  0
SECTION
  2
BLOCKS
  0
ENDSEC
  0
SECTION
  2
ENTITIES
  0
LINE
  8
0
 10
95
 20
250.826
 11
20
 21
20
  0
LINE
  8
0
 10
20
 20
20
 11
170
 21
20
  0
LINE
  8
0
 10
170
 20
20
 11
95
 21
250.826
  0
LINE
  8
0
 10
94.874
 20
232.83
 11
94.749
 21
232.842
  0
LINE
  8
0
 10
94.749
 20
232.842
 11
94.625
 21
232.862
  0
LINE
  8
0
 10
94.625
 20
232.862
 11
94.5029
 21
232.889
  0
LINE
  8
0
 10
94.5029
 20
232.889
 11
94.3818
 21
232.924
  0
LINE
  8
0
 10
94.3818
 20
232.924
 11
94.2637
 21
232.967
  0
LINE
  8
0
 10
94.2637
 20
232.967
 11
94.1484
 21
233.017
  0
LINE
  8
0
 10
94.1484
 20
233.017
 11
94.0361
 21
233.074
  0
LINE
  8
0
 10
94.0361
 20
233.074
 11
93.9287
 21
233.138
  0
LINE
  8
0
 10
93.9287
 20
233.138
 11
93.8242
 21
233.208
  0
LINE
  8
0
 10
93.8242
 20
233.208
 11
93.7256
 21
233.285
  0
LINE
  8
0
 10
93.7256
 20
233.285
 11
93.6309
 21
233.368
  0
LINE
  8
0
 10
93.6309
 20
233.368
 11
93.542
 21
233.457
  0
LINE
  8
0
 10
93.542
 20
233.457
 11
93.459
 21
233.551
  0
LINE
  8
0
 10
93.459
 20
233.551
 11
93.3818
 21
233.651
  0
LINE
  8
0
 10
93.3818
 20
233.651
 11
93.3115
 21
233.755
  0
LINE
  8
0
 10
93.3115
 20
233.755
 11
93.2471
 21
233.863
  0
LINE
  8
0
 10
93.2471
 20
233.863
 11
93.1904
 21
233.975
  0
LINE
  8
0
 10
93.1904
 20
233.975
 11
93.1406
 21
234.09
  0
LINE
  8
0
 10
93.1406
 20
234.09
 11
93.0977
 21
234.208
  0
LINE
  8
0
 10
93.0977
 20
234.208
 11
93.0625
 21
234.329
  0
LINE
  8
0
 10
93.0625
 20
234.329
 11
93.0352
 21
234.451
  0
LINE
  8
0
 10
93.0352
 20
234.451
 11
93.0156
 21
234.576
  0
LINE
  8
0
 10
93.0156
 20
234.576
 11
93.0039
 21
234.701
  0
LINE
  8
0
 10
93.0039
 20
234.701
 11
93
 21
234.826
  0
LINE
  8
0
 10
93
 20
234.826
 11
93.0039
 21
234.952
  0
LINE
  8
0
 10
93.0039
 20
234.952
 11
93.0156
 21
235.077
  0
LINE
  8
0
 10
93.0156
 20
235.077
 11
93.0352
 21
235.201
  0
LINE
  8
0
 10
93.0352
 20
235.201
 11
93.0625
 21
235.324
  0
LINE
  8
0
 10
93.0625
 20
235.324
 11
93.0977
 21
235.444
  0
LINE
  8
0
 10
93.0977
 20
235.444
 11
93.1406
 21
235.562
  0
LINE
  8
0
 10
93.1406
 20
235.562
 11
93.1904
 21
235.678
  0
LINE
  8
0
 10
93.1904
 20
235.678
 11
93.2471
 21
235.79
  0
LINE
  8
0
 10
93.2471
 20
235.79
 11
93.3115
 21
235.898
  0
LINE
  8
0
 10
93.3115
 20
235.898
 11
93.3818
 21
236.002
  0
LINE
  8
0
 10
93.3818
 20
236.002
 11
93.459
 21
236.101
  0
LINE
  8
0
 10
93.459
 20
236.101
 11
93.542
 21
236.195
  0
LINE
  8
0
 10
93.542
 20
236.195
 11
93.6309
 21
236.284
  0
LINE
  8
0
 10
93.6309
 20
236.284
 11
93.7256
 21
236.367
  0
LINE
  8
0
 10
93.7256
 20
236.367
 11
93.8242
 21
236.444
  0
LINE
  8
0
 10
93.8242
 20
236.444
 11
93.9287
 21
236.515
  0
LINE
  8
0
 10
93.9287
 20
236.515
 11
94.0361
 21
236.579
  0
LINE
  8
0
 10
94.0361
 20
236.579
 11
94.1484
 21
236.636
  0
LINE
  8
0
 10
94.1484
 20
236.636
 11
94.2637
 21
236.686
  0
LINE
  8
0
 10
94.2637
 20
236.686
 11
94.3818
 21
236.728
  0
LINE
  8
0
 10
94.3818
 20
236.728
 11
94.5029
 21
236.763
  0
LINE
  8
0
 10
94.5029
 20
236.763
 11
94.625
 21
236.791
  0
LINE
  8
0
 10
94.625
 20
236.791
 11
94.749
 21
236.81
  0
LINE
  8
0
 10
94.749
 20
236.81
 11
94.874
 21
236.822
  0
LINE
  8
0
 10
94.874
 20
236.822
 11
95
 21
236.826
  0
LINE
  8
0
 10
95
 20
236.826
 11
95.126
 21
236.822
  0
LINE
  8
0
 10
95.126
 20
236.822
 11
95.251
 21
236.81
  0
LINE
  8
0
 10
95.251
 20
236.81
 11
95.375
 21
236.791
  0
LINE
  8
0
 10
95.375
 20
236.791
 11
95.4971
 21
236.763
  0
LINE
  8
0
 10
95.4971
 20
236.763
 11
95.6182
 21
236.728
  0
LINE
  8
0
 10
95.6182
 20
236.728
 11
95.7363
 21
236.686
  0
LINE
  8
0
 10
95.7363
 20
236.686
 11
95.8516
 21
236.636
  0
LINE
  8
0
 10
95.8516
 20
236.636
 11
95.9639
 21
236.579
  0
LINE
  8
0
 10
95.9639
 20
236.579
 11
96.0713
 21
236.515
  0
LINE
  8
0
 10
96.0713
 20
236.515
 11
96.1758
 21
236.444
  0
LINE
  8
0
 10
96.1758
 20
236.444
 11
96.2744
 21
236.367
  0
LINE
  8
0
 10
96.2744
 20
236.367
 11
96.3691
 21
236.284
  0
LINE
  8
0
 10
96.3691
 20
236.284
 11
96.458
 21
236.195
  0
LINE
  8
0
 10
96.458
 20
236.195
 11
96.541
 21
236.101
  0
LINE
  8
0
 10
96.541
 20
236.101
 11
96.6182
 21
236.002
  0
LINE
  8
0
 10
96.6182
 20
236.002
 11
96.6885
 21
235.898
  0
LINE
  8
0
 10
96.6885
 20
235.898
 11
96.7529
 21
235.79
  0
LINE
  8
0
 10
96.7529
 20
235.79
 11
96.8096
 21
235.678
  0
LINE
  8
0
 10
96.8096
 20
235.678
 11
96.8594
 21
235.562
  0
LINE
  8
0
 10
96.8594
 20
235.562
 11
96.9023
 21
235.444
  0
LINE
  8
0
 10
96.9023
 20
235.444
 11
96.9375
 21
235.324
  0
LINE
  8
0
 10
96.9375
 20
235.324
 11
96.9648
 21
235.201
  0
LINE
  8
0
 10
96.9648
 20
235.201
 11
96.9844
 21
235.077
  0
LINE
  8
0
 10
96.9844
 20
235.077
 11
96.9961
 21
234.952
  0
LINE
  8
0
 10
96.9961
 20
234.952
 11
97
 21
234.826
  0
LINE
  8
0
 10
97
 20
234.826
 11
96.9961
 21
234.701
  0
LINE
  8
0
 10
96.9961
 20
234.701
 11
96.9844
 21
234.576
  0
LINE
  8
0
 10
96.9844
 20
234.576
 11
96.9648
 21
234.451
  0
LINE
  8
0
 10
96.9648
 20
234.451
 11
96.9375
 21
234.329
  0
LINE
  8
0
 10
96.9375
 20
234.329
 11
96.9023
 21
234.208
  0
LINE
  8
0
 10
96.9023
 20
234.208
 11
96.8594
 21
234.09
  0
LINE
  8
0
 10
96.8594
 20
234.09
 11
96.8096
 21
233.975
  0
LINE
  8
0
 10
96.8096
 20
233.975
 11
96.7529
 21
233.863
  0
LINE
  8
0
 10
96.7529
 20
233.863
 11
96.6885
 21
233.755
  0
LINE
  8
0
 10
96.6885
 20
233.755
 11
96.6182
 21
233.651
  0
LINE
  8
0
 10
96.6182
 20
233.651
 11
96.541
 21
233.551
  0
LINE
  8
0
 10
96.541
 20
233.551
 11
96.458
 21
233.457
  0
LINE
  8
0
 10
96.458
 20
233.457
 11
96.3691
 21
233.368
  0
LINE
  8
0
 10
96.3691
 20
233.368
 11
96.2744
 21
233.285
  0
LINE
  8
0
 10
96.2744
 20
233.285
 11
96.1758
 21
233.208
  0
LINE
  8
0
 10
96.1758
 20
233.208
 11
96.0713
 21
233.138
  0
LINE
  8
0
 10
96.0713
 20
233.138
 11
95.9639
 21
233.074
  0
LINE
  8
0
 10
95.9639
 20
233.074
 11
95.8516
 21
233.017
  0
LINE
  8
0
 10
95.8516
 20
233.017
 11
95.7363
 21
232.967
  0
LINE
  8
0
 10
95.7363
 20
232.967
 11
95.6182
 21
232.924
  0
LINE
  8
0
 10
95.6182
 20
232.924
 11
95.4971
 21
232.889
  0
LINE
  8
0
 10
95.4971
 20
232.889
 11
95.375
 21
232.862
  0
LINE
  8
0
 10
95.375
 20
232.862
 11
95.251
 21
232.842
  0
LINE
  8
0
 10
95.251
 20
232.842
 11
95.126
 21
232.83
  0
LINE
  8
0
 10
95.126
 20
232.83
 11
95
 21
232.826
  0
LINE
  8
0
 10
95
 20
232.826
 11
94.874
 21
232.83
  0
LINE
  8
0
 10
95
 20
211.993
 11
95.9863
 21
208.957
  0
LINE
  8
0
 10
95.9863
 20
208.957
 11
93.5371
 21
207.49
  0
LINE
  8
0
 10
93.5371
 20
207.49
 11
95
 21
211.993
  0
LINE
  8
0
 10
91.6064
 20
201.55
 11
92.1748
 21
203.299
  0
LINE
  8
0
 10
92.1748
 20
203.299
 11
96.96
 21
205.961
  0
LINE
  8
0
 10
96.96
 20
205.961
 11
99.9238
 21
196.839
  0
LINE
  8
0
 10
99.9238
 20
196.839
 11
91.6064
 21
201.55
  0
LINE
  8
0
 10
89.0137
 20
193.57
 11
90.7031
 21
198.769
  0
LINE
  8
0
 10
90.7031
 20
198.769
 11
99.416
 21
193.643
  0
LINE
  8
0
 10
99.416
 20
193.643
 11
89.1064
 21
187.691
  0
LINE
  8
0
 10
89.1064
 20
187.691
 11
89.0137
 21
193.57
  0
LINE
  8
0
 10
90.6748
 20
184.974
 11
100.984
 21
190.926
  0
LINE
  8
0
 10
100.984
 20
190.926
 11
101.084
 21
178.744
  0
LINE
  8
0
 10
101.084
 20
178.744
 11
90.6748
 21
184.974
  0
LINE
  8
0
 10
103.962
 20
184.41
 11
105.496
 21
179.69
  0
LINE
  8
0
 10
105.496
 20
179.69
 11
103.915
 21
178.743
  0
LINE
  8
0
 10
103.915
 20
178.743
 11
103.962
 21
184.41
  0
LINE
  8
0
 10
89.0674
 20
182.192
 11
99.6699
 21
176.292
  0
LINE
  8
0
 10
99.6699
 20
176.292
 11
89.0674
 21
170.287
  0
LINE
  8
0
 10
89.0674
 20
170.287
 11
89.0674
 21
182.192
  0
LINE
  8
0
 10
82.1455
 20
172.432
 11
85.1807
 21
181.773
  0
LINE
  8
0
 10
85.1807
 20
181.773
 11
85.9316
 21
182.191
  0
LINE
  8
0
 10
85.9316
 20
182.191
 11
85.9316
 21
170.288
  0
LINE
  8
0
 10
85.9316
 20
170.288
 11
82.1455
 21
172.432
  0
LINE
  8
0
 10
105.331
 20
176.292
 11
106.406
 21
176.89
  0
LINE
  8
0
 10
106.406
 20
176.89
 11
106.887
 21
175.411
  0
LINE
  8
0
 10
106.887
 20
175.411
 11
105.331
 21
176.292
  0
LINE
  8
0
 10
90.584
 20
167.662
 11
101.085
 21
173.84
  0
LINE
  8
0
 10
101.085
 20
173.84
 11
100.894
 21
161.71
  0
LINE
  8
0
 10
100.894
 20
161.71
 11
90.584
 21
167.662
  0
LINE
  8
0
 10
103.915
 20
173.84
 11
108.22
 21
171.308
  0
LINE
  8
0
 10
108.22
 20
171.308
 11
110.196
 21
165.225
  0
LINE
  8
0
 10
110.196
 20
165.225
 11
104.106
 21
161.71
  0
LINE
  8
0
 10
104.106
 20
161.71
 11
103.915
 21
173.84
  0
LINE
  8
0
 10
81.209
 20
169.549
 11
84.416
 21
167.662
  0
LINE
  8
0
 10
84.416
 20
167.662
 11
79.7139
 21
164.947
  0
LINE
  8
0
 10
79.7139
 20
164.947
 11
81.209
 21
169.549
  0
LINE
  8
0
 10
77.4365
 20
157.939
 11
78.2646
 21
160.489
  0
LINE
  8
0
 10
78.2646
 20
160.489
 11
85.9844
 21
164.946
  0
LINE
  8
0
 10
85.9844
 20
164.946
 11
86.084
 21
152.763
  0
LINE
  8
0
 10
86.084
 20
152.763
 11
77.4365
 21
157.939
  0
LINE
  8
0
 10
89.0156
 20
164.946
 11
99.3262
 21
158.994
  0
LINE
  8
0
 10
99.3262
 20
158.994
 11
88.915
 21
152.763
  0
LINE
  8
0
 10
88.915
 20
152.763
 11
89.0156
 21
164.946
  0
LINE
  8
0
 10
105.675
 20
158.993
 11
111.187
 21
162.176
  0
LINE
  8
0
 10
111.187
 20
162.176
 11
113.801
 21
154.13
  0
LINE
  8
0
 10
113.801
 20
154.13
 11
105.675
 21
158.993
  0
LINE
  8
0
 10
104.067
 20
156.211
 11
114.67
 21
150.311
  0
LINE
  8
0
 10
114.67
 20
150.311
 11
104.067
 21
144.306
  0
LINE
  8
0
 10
104.067
 20
144.306
 11
104.067
 21
156.211
  0
LINE
  8
0
 10
90.3311
 20
150.311
 11
100.932
 21
156.21
  0
LINE
  8
0
 10
100.932
 20
156.21
 11
100.932
 21
144.307
  0
LINE
  8
0
 10
100.932
 20
144.307
 11
90.3311
 21
150.311
  0
LINE
  8
0
 10
74.0674
 20
147.571
 11
76.4453
 21
154.888
  0
LINE
  8
0
 10
76.4453
 20
154.888
 11
84.6699
 21
150.311
  0
LINE
  8
0
 10
84.6699
 20
150.311
 11
74.0674
 21
144.306
  0
LINE
  8
0
 10
74.0674
 20
144.306
 11
74.0674
 21
147.571
  0
LINE
  8
0
 10
75.584
 20
141.681
 11
86.085
 21
147.859
  0
LINE
  8
0
 10
86.085
 20
147.859
 11
85.8936
 21
135.729
  0
LINE
  8
0
 10
85.8936
 20
135.729
 11
75.584
 21
141.681
  0
LINE
  8
0
 10
88.915
 20
147.859
 11
99.416
 21
141.681
  0
LINE
  8
0
 10
99.416
 20
141.681
 11
89.1064
 21
135.729
  0
LINE
  8
0
 10
89.1064
 20
135.729
 11
88.915
 21
147.859
  0
LINE
  8
0
 10
105.584
 20
141.681
 11
115.878
 21
147.738
  0
LINE
  8
0
 10
115.878
 20
147.738
 11
116.073
 21
147.137
  0
LINE
  8
0
 10
116.073
 20
147.137
 11
115.894
 21
135.729
  0
LINE
  8
0
 10
115.894
 20
135.729
 11
105.584
 21
141.681
  0
LINE
  8
0
 10
104.016
 20
138.965
 11
114.326
 21
133.013
  0
LINE
  8
0
 10
114.326
 20
133.013
 11
103.915
 21
126.782
  0
LINE
  8
0
 10
103.915
 20
126.782
 11
104.016
 21
138.965
  0
LINE
  8
0
 10
74.0156
 20
138.965
 11
84.3262
 21
133.013
  0
LINE
  8
0
 10
84.3262
 20
133.013
 11
73.915
 21
126.782
  0
LINE
  8
0
 10
73.915
 20
126.782
 11
74.0156
 21
138.965
  0
LINE
  8
0
 10
90.6748
 20
133.012
 11
100.984
 21
138.965
  0
LINE
  8
0
 10
100.984
 20
138.965
 11
101.084
 21
126.782
  0
LINE
  8
0
 10
101.084
 20
126.782
 11
90.6748
 21
133.012
  0
LINE
  8
0
 10
67.9268
 20
128.672
 11
70.9912
 21
138.101
  0
LINE
  8
0
 10
70.9912
 20
138.101
 11
71.084
 21
126.782
  0
LINE
  8
0
 10
71.084
 20
126.782
 11
67.9268
 21
128.672
  0
LINE
  8
0
 10
119.072
 20
137.906
 11
119.674
 21
136.056
  0
LINE
  8
0
 10
119.674
 20
136.056
 11
119.106
 21
135.729
  0
LINE
  8
0
 10
119.106
 20
135.729
 11
119.072
 21
137.906
  0
LINE
  8
0
 10
119.067
 20
130.23
 11
122.118
 21
128.533
  0
LINE
  8
0
 10
122.118
 20
128.533
 11
124.445
 21
121.371
  0
LINE
  8
0
 10
124.445
 20
121.371
 11
119.067
 21
118.325
  0
LINE
  8
0
 10
119.067
 20
118.325
 11
119.067
 21
130.23
  0
LINE
  8
0
 10
89.0674
 20
130.23
 11
99.6699
 21
124.33
  0
LINE
  8
0
 10
99.6699
 20
124.33
 11
89.0674
 21
118.325
  0
LINE
  8
0
 10
89.0674
 20
118.325
 11
89.0674
 21
130.23
  0
LINE
  8
0
 10
75.3311
 20
124.33
 11
85.9316
 21
130.229
  0
LINE
  8
0
 10
85.9316
 20
130.229
 11
85.9316
 21
118.326
  0
LINE
  8
0
 10
85.9316
 20
118.326
 11
75.3311
 21
124.33
  0
LINE
  8
0
 10
105.331
 20
124.33
 11
115.932
 21
130.229
  0
LINE
  8
0
 10
115.932
 20
130.229
 11
115.932
 21
118.326
  0
LINE
  8
0
 10
115.932
 20
118.326
 11
105.331
 21
124.33
  0
LINE
  8
0
 10
66.999
 20
125.816
 11
69.6699
 21
124.33
  0
LINE
  8
0
 10
69.6699
 20
124.33
 11
65.8057
 21
122.141
  0
LINE
  8
0
 10
65.8057
 20
122.141
 11
66.999
 21
125.816
  0
LINE
  8
0
 10
73.915
 20
121.879
 11
84.416
 21
115.7
  0
LINE
  8
0
 10
84.416
 20
115.7
 11
74.1064
 21
109.748
  0
LINE
  8
0
 10
74.1064
 20
109.748
 11
73.915
 21
121.879
  0
LINE
  8
0
 10
90.584
 20
115.7
 11
101.085
 21
121.879
  0
LINE
  8
0
 10
101.085
 20
121.879
 11
100.894
 21
109.748
  0
LINE
  8
0
 10
100.894
 20
109.748
 11
90.584
 21
115.7
  0
LINE
  8
0
 10
103.915
 20
121.879
 11
114.416
 21
115.7
  0
LINE
  8
0
 10
114.416
 20
115.7
 11
104.106
 21
109.748
  0
LINE
  8
0
 10
104.106
 20
109.748
 11
103.915
 21
121.879
  0
LINE
  8
0
 10
63.2178
 20
114.179
 11
64.4521
 21
117.977
  0
LINE
  8
0
 10
64.4521
 20
117.977
 11
71.085
 21
121.879
  0
LINE
  8
0
 10
71.085
 20
121.879
 11
70.8936
 21
109.748
  0
LINE
  8
0
 10
70.8936
 20
109.748
 11
63.2178
 21
114.179
  0
LINE
  8
0
 10
120.584
 20
115.7
 11
125.372
 21
118.518
  0
LINE
  8
0
 10
125.372
 20
118.518
 11
127.604
 21
111.646
  0
LINE
  8
0
 10
127.604
 20
111.646
 11
120.584
 21
115.7
  0
LINE
  8
0
 10
105.675
 20
107.031
 11
115.984
 21
112.984
  0
LINE
  8
0
 10
115.984
 20
112.984
 11
116.084
 21
100.802
  0
LINE
  8
0
 10
116.084
 20
100.802
 11
105.675
 21
107.031
  0
LINE
  8
0
 10
75.6748
 20
107.031
 11
85.9844
 21
112.984
  0
LINE
  8
0
 10
85.9844
 20
112.984
 11
86.084
 21
100.802
  0
LINE
  8
0
 10
86.084
 20
100.802
 11
75.6748
 21
107.031
  0
LINE
  8
0
 10
89.0156
 20
112.984
 11
99.3262
 21
107.032
  0
LINE
  8
0
 10
99.3262
 20
107.032
 11
88.915
 21
100.801
  0
LINE
  8
0
 10
88.915
 20
100.801
 11
89.0156
 21
112.984
  0
LINE
  8
0
 10
119.016
 20
112.984
 11
129.053
 21
107.189
  0
LINE
  8
0
 10
129.053
 20
107.189
 11
129.141
 21
106.921
  0
LINE
  8
0
 10
129.141
 20
106.921
 11
118.915
 21
100.801
  0
LINE
  8
0
 10
118.915
 20
100.801
 11
119.016
 21
112.984
  0
LINE
  8
0
 10
58.916
 20
100.94
 11
62.2275
 21
111.13
  0
LINE
  8
0
 10
62.2275
 20
111.13
 11
69.3262
 21
107.032
  0
LINE
  8
0
 10
69.3262
 20
107.032
 11
58.915
 21
100.801
  0
LINE
  8
0
 10
58.915
 20
100.801
 11
58.916
 21
100.94
  0
LINE
  8
0
 10
104.067
 20
104.249
 11
114.67
 21
98.3496
  0
LINE
  8
0
 10
114.67
 20
98.3496
 11
104.067
 21
92.3447
  0
LINE
  8
0
 10
104.067
 20
92.3447
 11
104.067
 21
104.249
  0
LINE
  8
0
 10
74.0674
 20
104.249
 11
84.6699
 21
98.3496
  0
LINE
  8
0
 10
84.6699
 20
98.3496
 11
74.0674
 21
92.3447
  0
LINE
  8
0
 10
74.0674
 20
92.3447
 11
74.0674
 21
104.249
  0
LINE
  8
0
 10
60.3311
 20
98.3496
 11
70.9316
 21
104.248
  0
LINE
  8
0
 10
70.9316
 20
104.248
 11
70.9316
 21
92.3447
  0
LINE
  8
0
 10
70.9316
 20
92.3447
 11
60.3311
 21
98.3496
  0
LINE
  8
0
 10
90.3311
 20
98.3496
 11
100.932
 21
104.248
  0
LINE
  8
0
 10
100.932
 20
104.248
 11
100.932
 21
92.3447
  0
LINE
  8
0
 10
100.932
 20
92.3447
 11
90.3311
 21
98.3496
  0
LINE
  8
0
 10
120.331
 20
98.3496
 11
130.149
 21
103.813
  0
LINE
  8
0
 10
130.149
 20
103.813
 11
130.932
 21
101.407
  0
LINE
  8
0
 10
130.932
 20
101.407
 11
130.932
 21
92.3447
  0
LINE
  8
0
 10
130.932
 20
92.3447
 11
120.331
 21
98.3496
  0
LINE
  8
0
 10
75.584
 20
89.7197
 11
86.085
 21
95.8975
  0
LINE
  8
0
 10
86.085
 20
95.8975
 11
85.8936
 21
83.7676
  0
LINE
  8
0
 10
85.8936
 20
83.7676
 11
75.584
 21
89.7197
  0
LINE
  8
0
 10
105.584
 20
89.7197
 11
116.085
 21
95.8975
  0
LINE
  8
0
 10
116.085
 20
95.8975
 11
115.894
 21
83.7676
  0
LINE
  8
0
 10
115.894
 20
83.7676
 11
105.584
 21
89.7197
  0
LINE
  8
0
 10
88.915
 20
95.8975
 11
99.416
 21
89.7197
  0
LINE
  8
0
 10
99.416
 20
89.7197
 11
89.1064
 21
83.7676
  0
LINE
  8
0
 10
89.1064
 20
83.7676
 11
88.915
 21
95.8975
  0
LINE
  8
0
 10
118.915
 20
95.8975
 11
129.416
 21
89.7197
  0
LINE
  8
0
 10
129.416
 20
89.7197
 11
119.106
 21
83.7676
  0
LINE
  8
0
 10
119.106
 20
83.7676
 11
118.915
 21
95.8975
  0
LINE
  8
0
 10
58.915
 20
95.8975
 11
69.416
 21
89.7197
  0
LINE
  8
0
 10
69.416
 20
89.7197
 11
59.1064
 21
83.7676
  0
LINE
  8
0
 10
59.1064
 20
83.7676
 11
58.915
 21
95.8975
  0
LINE
  8
0
 10
53.7402
 20
85.0098
 11
56.0234
 21
92.0371
  0
LINE
  8
0
 10
56.0234
 20
92.0371
 11
55.8936
 21
83.7676
  0
LINE
  8
0
 10
55.8936
 20
83.7676
 11
53.7402
 21
85.0098
  0
LINE
  8
0
 10
134.016
 20
87.0029
 11
135.98
 21
85.8691
  0
LINE
  8
0
 10
135.98
 20
85.8691
 11
138.649
 21
77.6533
  0
LINE
  8
0
 10
138.649
 20
77.6533
 11
133.915
 21
74.8203
  0
LINE
  8
0
 10
133.915
 20
74.8203
 11
134.016
 21
87.0029
  0
LINE
  8
0
 10
74.0156
 20
87.0029
 11
84.3262
 21
81.0508
  0
LINE
  8
0
 10
84.3262
 20
81.0508
 11
73.915
 21
74.8203
  0
LINE
  8
0
 10
73.915
 20
74.8203
 11
74.0156
 21
87.0029
  0
LINE
  8
0
 10
90.6748
 20
81.0508
 11
100.984
 21
87.0029
  0
LINE
  8
0
 10
100.984
 20
87.0029
 11
101.084
 21
74.8203
  0
LINE
  8
0
 10
101.084
 20
74.8203
 11
90.6748
 21
81.0508
  0
LINE
  8
0
 10
120.675
 20
81.0508
 11
130.984
 21
87.0029
  0
LINE
  8
0
 10
130.984
 20
87.0029
 11
131.084
 21
74.8203
  0
LINE
  8
0
 10
131.084
 20
74.8203
 11
120.675
 21
81.0508
  0
LINE
  8
0
 10
104.016
 20
87.0029
 11
114.326
 21
81.0508
  0
LINE
  8
0
 10
114.326
 20
81.0508
 11
103.915
 21
74.8203
  0
LINE
  8
0
 10
103.915
 20
74.8203
 11
104.016
 21
87.0029
  0
LINE
  8
0
 10
60.6748
 20
81.0508
 11
70.9844
 21
87.0029
  0
LINE
  8
0
 10
70.9844
 20
87.0029
 11
71.084
 21
74.8203
  0
LINE
  8
0
 10
71.084
 20
74.8203
 11
60.6748
 21
81.0508
  0
LINE
  8
0
 10
52.75
 20
81.9609
 11
54.3262
 21
81.0508
  0
LINE
  8
0
 10
54.3262
 20
81.0508
 11
52.002
 21
79.6602
  0
LINE
  8
0
 10
52.002
 20
79.6602
 11
52.75
 21
81.9609
  0
LINE
  8
0
 10
89.0674
 20
78.2686
 11
99.6699
 21
72.3682
  0
LINE
  8
0
 10
99.6699
 20
72.3682
 11
89.0674
 21
66.3643
  0
LINE
  8
0
 10
89.0674
 20
66.3643
 11
89.0674
 21
78.2686
  0
LINE
  8
0
 10
119.067
 20
78.2686
 11
129.67
 21
72.3682
  0
LINE
  8
0
 10
129.67
 20
72.3682
 11
119.067
 21
66.3643
  0
LINE
  8
0
 10
119.067
 20
66.3643
 11
119.067
 21
78.2686
  0
LINE
  8
0
 10
59.0674
 20
78.2686
 11
69.6699
 21
72.3682
  0
LINE
  8
0
 10
69.6699
 20
72.3682
 11
59.0674
 21
66.3643
  0
LINE
  8
0
 10
59.0674
 20
66.3643
 11
59.0674
 21
78.2686
  0
LINE
  8
0
 10
48.9648
 20
70.3105
 11
50.583
 21
75.291
  0
LINE
  8
0
 10
50.583
 20
75.291
 11
55.9316
 21
78.2676
  0
LINE
  8
0
 10
55.9316
 20
78.2676
 11
55.9316
 21
66.3643
  0
LINE
  8
0
 10
55.9316
 20
66.3643
 11
48.9648
 21
70.3105
  0
LINE
  8
0
 10
105.331
 20
72.3682
 11
115.932
 21
78.2676
  0
LINE
  8
0
 10
115.932
 20
78.2676
 11
115.932
 21
66.3643
  0
LINE
  8
0
 10
115.932
 20
66.3643
 11
105.331
 21
72.3682
  0
LINE
  8
0
 10
75.3311
 20
72.3682
 11
85.9316
 21
78.2676
  0
LINE
  8
0
 10
85.9316
 20
78.2676
 11
85.9316
 21
66.3643
  0
LINE
  8
0
 10
85.9316
 20
66.3643
 11
75.3311
 21
72.3682
  0
LINE
  8
0
 10
135.331
 20
72.3682
 11
139.596
 21
74.7422
  0
LINE
  8
0
 10
139.596
 20
74.7422
 11
141.503
 21
68.873
  0
LINE
  8
0
 10
141.503
 20
68.873
 11
135.331
 21
72.3682
  0
LINE
  8
0
 10
90.584
 20
63.7383
 11
101.085
 21
69.917
  0
LINE
  8
0
 10
101.085
 20
69.917
 11
100.894
 21
57.7861
  0
LINE
  8
0
 10
100.894
 20
57.7861
 11
90.584
 21
63.7383
  0
LINE
  8
0
 10
103.915
 20
69.917
 11
114.416
 21
63.7383
  0
LINE
  8
0
 10
114.416
 20
63.7383
 11
104.106
 21
57.7871
  0
LINE
  8
0
 10
104.106
 20
57.7871
 11
103.915
 21
69.917
  0
LINE
  8
0
 10
73.915
 20
69.917
 11
84.416
 21
63.7383
  0
LINE
  8
0
 10
84.416
 20
63.7383
 11
74.1064
 21
57.7871
  0
LINE
  8
0
 10
74.1064
 20
57.7871
 11
73.915
 21
69.917
  0
LINE
  8
0
 10
133.915
 20
69.917
 11
142.877
 21
64.6445
  0
LINE
  8
0
 10
142.877
 20
64.6445
 11
143.368
 21
63.1328
  0
LINE
  8
0
 10
143.368
 20
63.1328
 11
134.106
 21
57.7871
  0
LINE
  8
0
 10
134.106
 20
57.7871
 11
133.915
 21
69.917
  0
LINE
  8
0
 10
60.584
 20
63.7383
 11
71.085
 21
69.917
  0
LINE
  8
0
 10
71.085
 20
69.917
 11
70.8936
 21
57.7861
  0
LINE
  8
0
 10
70.8936
 20
57.7861
 11
60.584
 21
63.7383
  0
LINE
  8
0
 10
120.584
 20
63.7383
 11
131.085
 21
69.917
  0
LINE
  8
0
 10
131.085
 20
69.917
 11
130.894
 21
57.7861
  0
LINE
  8
0
 10
130.894
 20
57.7861
 11
120.584
 21
63.7383
  0
LINE
  8
0
 10
48.0469
 20
67.4863
 11
54.416
 21
63.7383
  0
LINE
  8
0
 10
54.416
 20
63.7383
 11
45.0771
 21
58.3467
  0
LINE
  8
0
 10
45.0771
 20
58.3467
 11
48.0469
 21
67.4863
  0
LINE
  8
0
 10
119.016
 20
61.0225
 11
129.326
 21
55.0703
  0
LINE
  8
0
 10
129.326
 20
55.0703
 11
118.915
 21
48.8389
  0
LINE
  8
0
 10
118.915
 20
48.8389
 11
119.016
 21
61.0225
  0
LINE
  8
0
 10
45.6748
 20
55.0703
 11
55.9844
 21
61.0225
  0
LINE
  8
0
 10
55.9844
 20
61.0225
 11
56.084
 21
48.8398
  0
LINE
  8
0
 10
56.084
 20
48.8398
 11
45.6748
 21
55.0703
  0
LINE
  8
0
 10
105.675
 20
55.0703
 11
115.984
 21
61.0225
  0
LINE
  8
0
 10
115.984
 20
61.0225
 11
116.084
 21
48.8398
  0
LINE
  8
0
 10
116.084
 20
48.8398
 11
105.675
 21
55.0703
  0
LINE
  8
0
 10
89.0156
 20
61.0225
 11
99.3262
 21
55.0703
  0
LINE
  8
0
 10
99.3262
 20
55.0703
 11
88.915
 21
48.8389
  0
LINE
  8
0
 10
88.915
 20
48.8389
 11
89.0156
 21
61.0225
  0
LINE
  8
0
 10
59.0156
 20
61.0225
 11
69.3262
 21
55.0703
  0
LINE
  8
0
 10
69.3262
 20
55.0703
 11
58.915
 21
48.8389
  0
LINE
  8
0
 10
58.915
 20
48.8389
 11
59.0156
 21
61.0225
  0
LINE
  8
0
 10
75.6748
 20
55.0703
 11
85.9844
 21
61.0225
  0
LINE
  8
0
 10
85.9844
 20
61.0225
 11
86.084
 21
48.8398
  0
LINE
  8
0
 10
86.084
 20
48.8398
 11
75.6748
 21
55.0703
  0
LINE
  8
0
 10
135.675
 20
55.0703
 11
144.358
 21
60.084
  0
LINE
  8
0
 10
144.358
 20
60.084
 11
146.034
 21
54.9268
  0
LINE
  8
0
 10
146.034
 20
54.9268
 11
146.084
 21
48.8398
  0
LINE
  8
0
 10
146.084
 20
48.8398
 11
135.675
 21
55.0703
  0
LINE
  8
0
 10
44.0674
 20
52.2881
 11
54.6699
 21
46.3877
  0
LINE
  8
0
 10
54.6699
 20
46.3877
 11
44.0674
 21
40.3828
  0
LINE
  8
0
 10
44.0674
 20
40.3828
 11
44.0674
 21
52.2881
  0
LINE
  8
0
 10
104.067
 20
52.2881
 11
114.67
 21
46.3877
  0
LINE
  8
0
 10
114.67
 20
46.3877
 11
104.067
 21
40.3828
  0
LINE
  8
0
 10
104.067
 20
40.3828
 11
104.067
 21
52.2881
  0
LINE
  8
0
 10
134.067
 20
52.2881
 11
144.67
 21
46.3877
  0
LINE
  8
0
 10
144.67
 20
46.3877
 11
134.067
 21
40.3828
  0
LINE
  8
0
 10
134.067
 20
40.3828
 11
134.067
 21
52.2881
  0
LINE
  8
0
 10
74.0674
 20
52.2881
 11
84.6699
 21
46.3877
  0
LINE
  8
0
 10
84.6699
 20
46.3877
 11
74.0674
 21
40.3828
  0
LINE
  8
0
 10
74.0674
 20
40.3828
 11
74.0674
 21
52.2881
  0
LINE
  8
0
 10
60.3311
 20
46.3877
 11
70.9316
 21
52.2871
  0
LINE
  8
0
 10
70.9316
 20
52.2871
 11
70.9316
 21
40.3838
  0
LINE
  8
0
 10
70.9316
 20
40.3838
 11
60.3311
 21
46.3877
  0
LINE
  8
0
 10
90.3311
 20
46.3877
 11
100.932
 21
52.2871
  0
LINE
  8
0
 10
100.932
 20
52.2871
 11
100.932
 21
40.3838
  0
LINE
  8
0
 10
100.932
 20
40.3838
 11
90.3311
 21
46.3877
  0
LINE
  8
0
 10
120.331
 20
46.3877
 11
130.932
 21
52.2871
  0
LINE
  8
0
 10
130.932
 20
52.2871
 11
130.932
 21
40.3838
  0
LINE
  8
0
 10
130.932
 20
40.3838
 11
120.331
 21
46.3877
  0
LINE
  8
0
 10
39.5029
 20
41.1924
 11
40.9316
 21
45.5879
  0
LINE
  8
0
 10
40.9316
 20
45.5879
 11
40.9316
 21
40.3838
  0
LINE
  8
0
 10
40.9316
 20
40.3838
 11
39.5029
 21
41.1924
  0
LINE
  8
0
 10
89.1035
 20
32
 11
88.915
 21
43.9365
  0
LINE
  8
0
 10
88.915
 20
43.9365
 11
99.416
 21
37.7578
  0
LINE
  8
0
 10
99.416
 20
37.7578
 11
89.4434
 21
32
  0
LINE
  8
0
 10
89.4434
 20
32
 11
89.1035
 21
32
  0
LINE
  8
0
 10
55.5566
 20
32
 11
45.584
 21
37.7578
  0
LINE
  8
0
 10
45.584
 20
37.7578
 11
56.085
 21
43.9365
  0
LINE
  8
0
 10
56.085
 20
43.9365
 11
55.8965
 21
32
  0
LINE
  8
0
 10
55.8965
 20
32
 11
55.5566
 21
32
  0
LINE
  8
0
 10
149.104
 20
32
 11
148.915
 21
43.9365
  0
LINE
  8
0
 10
148.915
 20
43.9365
 11
149.769
 21
43.4346
  0
LINE
  8
0
 10
149.769
 20
43.4346
 11
152.845
 21
33.9639
  0
LINE
  8
0
 10
152.845
 20
33.9639
 11
149.443
 21
32
  0
LINE
  8
0
 10
149.443
 20
32
 11
149.104
 21
32
  0
LINE
  8
0
 10
59.1035
 20
32
 11
58.915
 21
43.9365
  0
LINE
  8
0
 10
58.915
 20
43.9365
 11
69.416
 21
37.7578
  0
LINE
  8
0
 10
69.416
 20
37.7578
 11
59.4434
 21
32
  0
LINE
  8
0
 10
59.4434
 20
32
 11
59.1035
 21
32
  0
LINE
  8
0
 10
115.557
 20
32
 11
105.584
 21
37.7578
  0
LINE
  8
0
 10
105.584
 20
37.7578
 11
116.085
 21
43.9365
  0
LINE
  8
0
 10
116.085
 20
43.9365
 11
115.896
 21
32
  0
LINE
  8
0
 10
115.896
 20
32
 11
115.557
 21
32
  0
LINE
  8
0
 10
119.104
 20
32
 11
118.915
 21
43.9365
  0
LINE
  8
0
 10
118.915
 20
43.9365
 11
129.416
 21
37.7578
  0
LINE
  8
0
 10
129.416
 20
37.7578
 11
119.443
 21
32
  0
LINE
  8
0
 10
119.443
 20
32
 11
119.104
 21
32
  0
LINE
  8
0
 10
145.557
 20
32
 11
135.584
 21
37.7578
  0
LINE
  8
0
 10
135.584
 20
37.7578
 11
146.085
 21
43.9365
  0
LINE
  8
0
 10
146.085
 20
43.9365
 11
145.896
 21
32
  0
LINE
  8
0
 10
145.896
 20
32
 11
145.557
 21
32
  0
LINE
  8
0
 10
85.5566
 20
32
 11
75.584
 21
37.7578
  0
LINE
  8
0
 10
75.584
 20
37.7578
 11
86.085
 21
43.9365
  0
LINE
  8
0
 10
86.085
 20
43.9365
 11
85.8965
 21
32
  0
LINE
  8
0
 10
85.8965
 20
32
 11
85.5566
 21
32
  0
LINE
  8
0
 10
38.5527
 20
38.2656
 11
39.416
 21
37.7578
  0
LINE
  8
0
 10
39.416
 20
37.7578
 11
38.1494
 21
37.0264
  0
LINE
  8
0
 10
38.1494
 20
37.0264
 11
38.5527
 21
38.2656
  0
LINE
  8
0
 10
65.7168
 20
32
 11
70.9844
 21
35.041
  0
LINE
  8
0
 10
70.9844
 20
35.041
 11
71.0088
 21
32
  0
LINE
  8
0
 10
71.0088
 20
32
 11
65.7168
 21
32
  0
LINE
  8
0
 10
36.5166
 20
32
 11
36.7012
 21
32.5684
  0
LINE
  8
0
 10
36.7012
 20
32.5684
 11
40.9844
 21
35.041
  0
LINE
  8
0
 10
40.9844
 20
35.041
 11
41.0088
 21
32
  0
LINE
  8
0
 10
41.0088
 20
32
 11
36.5166
 21
32
  0
LINE
  8
0
 10
133.991
 20
32
 11
134.016
 21
35.041
  0
LINE
  8
0
 10
134.016
 20
35.041
 11
139.284
 21
32
  0
LINE
  8
0
 10
139.284
 20
32
 11
133.991
 21
32
  0
LINE
  8
0
 10
43.9912
 20
32
 11
44.0156
 21
35.041
  0
LINE
  8
0
 10
44.0156
 20
35.041
 11
49.2842
 21
32
  0
LINE
  8
0
 10
49.2842
 20
32
 11
43.9912
 21
32
  0
LINE
  8
0
 10
73.9912
 20
32
 11
74.0156
 21
35.041
  0
LINE
  8
0
 10
74.0156
 20
35.041
 11
79.2842
 21
32
  0
LINE
  8
0
 10
79.2842
 20
32
 11
73.9912
 21
32
  0
LINE
  8
0
 10
95.7168
 20
32
 11
100.984
 21
35.041
  0
LINE
  8
0
 10
100.984
 20
35.041
 11
101.009
 21
32
  0
LINE
  8
0
 10
101.009
 20
32
 11
95.7168
 21
32
  0
LINE
  8
0
 10
103.991
 20
32
 11
104.016
 21
35.041
  0
LINE
  8
0
 10
104.016
 20
35.041
 11
109.284
 21
32
  0
LINE
  8
0
 10
109.284
 20
32
 11
103.991
 21
32
  0
LINE
  8
0
 10
125.717
 20
32
 11
130.984
 21
35.041
  0
LINE
  8
0
 10
130.984
 20
35.041
 11
131.009
 21
32
  0
LINE
  8
0
 10
131.009
 20
32
 11
125.717
 21
32
  0
LINE
  8
0
 10
85
 20
27
 11
85
 21
31
  0
LINE
  8
0
 10
85
 20
31
 11
105
 21
31
  0
LINE
  8
0
 10
105
 20
31
 11
105
 21
27
  0
LINE
  8
0
 10
105
 20
27
 11
85
 21
27
  0
LINE
  8
0
 10
26.3467
 20
22.7061
 11
26.2217
 21
22.7178
  0
LINE
  8
0
 10
26.2217
 20
22.7178
 11
26.0977
 21
22.7373
  0
LINE
  8
0
 10
26.0977
 20
22.7373
 11
25.9746
 21
22.7646
  0
LINE
  8
0
 10
25.9746
 20
22.7646
 11
25.8545
 21
22.7998
  0
LINE
  8
0
 10
25.8545
 20
22.7998
 11
25.7363
 21
22.8428
  0
LINE
  8
0
 10
25.7363
 20
22.8428
 11
25.6201
 21
22.8926
  0
LINE
  8
0
 10
25.6201
 20
22.8926
 11
25.5088
 21
22.9492
  0
LINE
  8
0
 10
25.5088
 20
22.9492
 11
25.4004
 21
23.0137
  0
LINE
  8
0
 10
25.4004
 20
23.0137
 11
25.2969
 21
23.084
  0
LINE
  8
0
 10
25.2969
 20
23.084
 11
25.1973
 21
23.1611
  0
LINE
  8
0
 10
25.1973
 20
23.1611
 11
25.1025
 21
23.2441
  0
LINE
  8
0
 10
25.1025
 20
23.2441
 11
25.0146
 21
23.333
  0
LINE
  8
0
 10
25.0146
 20
23.333
 11
24.9307
 21
23.4277
  0
LINE
  8
0
 10
24.9307
 20
23.4277
 11
24.8545
 21
23.5264
  0
LINE
  8
0
 10
24.8545
 20
23.5264
 11
24.7832
 21
23.6309
  0
LINE
  8
0
 10
24.7832
 20
23.6309
 11
24.7197
 21
23.7393
  0
LINE
  8
0
 10
24.7197
 20
23.7393
 11
24.6621
 21
23.8506
  0
LINE
  8
0
 10
24.6621
 20
23.8506
 11
24.6123
 21
23.9658
  0
LINE
  8
0
 10
24.6123
 20
23.9658
 11
24.5703
 21
24.084
  0
LINE
  8
0
 10
24.5703
 20
24.084
 11
24.5352
 21
24.2051
  0
LINE
  8
0
 10
24.5352
 20
24.2051
 11
24.5078
 21
24.3271
  0
LINE
  8
0
 10
24.5078
 20
24.3271
 11
24.4883
 21
24.4512
  0
LINE
  8
0
 10
24.4883
 20
24.4512
 11
24.4766
 21
24.5771
  0
LINE
  8
0
 10
24.4766
 20
24.5771
 11
24.4717
 21
24.7021
  0
LINE
  8
0
 10
24.4717
 20
24.7021
 11
24.4766
 21
24.8281
  0
LINE
  8
0
 10
24.4766
 20
24.8281
 11
24.4883
 21
24.9531
  0
LINE
  8
0
 10
24.4883
 20
24.9531
 11
24.5078
 21
25.0771
  0
LINE
  8
0
 10
24.5078
 20
25.0771
 11
24.5352
 21
25.1992
  0
LINE
  8
0
 10
24.5352
 20
25.1992
 11
24.5703
 21
25.3203
  0
LINE
  8
0
 10
24.5703
 20
25.3203
 11
24.6123
 21
25.4385
  0
LINE
  8
0
 10
24.6123
 20
25.4385
 11
24.6621
 21
25.5537
  0
LINE
  8
0
 10
24.6621
 20
25.5537
 11
24.7197
 21
25.666
  0
LINE
  8
0
 10
24.7197
 20
25.666
 11
24.7832
 21
25.7744
  0
LINE
  8
0
 10
24.7832
 20
25.7744
 11
24.8545
 21
25.8779
  0
LINE
  8
0
 10
24.8545
 20
25.8779
 11
24.9307
 21
25.9775
  0
LINE
  8
0
 10
24.9307
 20
25.9775
 11
25.0146
 21
26.0713
  0
LINE
  8
0
 10
25.0146
 20
26.0713
 11
25.1025
 21
26.1602
  0
LINE
  8
0
 10
25.1025
 20
26.1602
 11
25.1973
 21
26.2432
  0
LINE
  8
0
 10
25.1973
 20
26.2432
 11
25.2969
 21
26.3203
  0
LINE
  8
0
 10
25.2969
 20
26.3203
 11
25.4004
 21
26.3906
  0
LINE
  8
0
 10
25.4004
 20
26.3906
 11
25.5088
 21
26.4551
  0
LINE
  8
0
 10
25.5088
 20
26.4551
 11
25.6201
 21
26.5117
  0
LINE
  8
0
 10
25.6201
 20
26.5117
 11
25.7363
 21
26.5615
  0
LINE
  8
0
 10
25.7363
 20
26.5615
 11
25.8545
 21
26.6045
  0
LINE
  8
0
 10
25.8545
 20
26.6045
 11
25.9746
 21
26.6396
  0
LINE
  8
0
 10
25.9746
 20
26.6396
 11
26.0977
 21
26.667
  0
LINE
  8
0
 10
26.0977
 20
26.667
 11
26.2217
 21
26.6865
  0
LINE
  8
0
 10
26.2217
 20
26.6865
 11
26.3467
 21
26.6982
  0
LINE
  8
0
 10
26.3467
 20
26.6982
 11
26.4717
 21
26.7021
  0
LINE
  8
0
 10
26.4717
 20
26.7021
 11
26.5977
 21
26.6982
  0
LINE
  8
0
 10
26.5977
 20
26.6982
 11
26.7227
 21
26.6865
  0
LINE
  8
0
 10
26.7227
 20
26.6865
 11
26.8467
 21
26.667
  0
LINE
  8
0
 10
26.8467
 20
26.667
 11
26.9697
 21
26.6396
  0
LINE
  8
0
 10
26.9697
 20
26.6396
 11
27.0898
 21
26.6045
  0
LINE
  8
0
 10
27.0898
 20
26.6045
 11
27.208
 21
26.5615
  0
LINE
  8
0
 10
27.208
 20
26.5615
 11
27.3232
 21
26.5117
  0
LINE
  8
0
 10
27.3232
 20
26.5117
 11
27.4355
 21
26.4551
  0
LINE
  8
0
 10
27.4355
 20
26.4551
 11
27.5439
 21
26.3906
  0
LINE
  8
0
 10
27.5439
 20
26.3906
 11
27.6475
 21
26.3203
  0
LINE
  8
0
 10
27.6475
 20
26.3203
 11
27.7471
 21
26.2432
  0
LINE
  8
0
 10
27.7471
 20
26.2432
 11
27.8408
 21
26.1602
  0
LINE
  8
0
 10
27.8408
 20
26.1602
 11
27.9297
 21
26.0713
  0
LINE
  8
0
 10
27.9297
 20
26.0713
 11
28.0137
 21
25.9775
  0
LINE
  8
0
 10
28.0137
 20
25.9775
 11
28.0898
 21
25.8779
  0
LINE
  8
0
 10
28.0898
 20
25.8779
 11
28.1611
 21
25.7744
  0
LINE
  8
0
 10
28.1611
 20
25.7744
 11
28.2246
 21
25.666
  0
LINE
  8
0
 10
28.2246
 20
25.666
 11
28.2822
 21
25.5537
  0
LINE
  8
0
 10
28.2822
 20
25.5537
 11
28.332
 21
25.4385
  0
LINE
  8
0
 10
28.332
 20
25.4385
 11
28.374
 21
25.3203
  0
LINE
  8
0
 10
28.374
 20
25.3203
 11
28.4092
 21
25.1992
  0
LINE
  8
0
 10
28.4092
 20
25.1992
 11
28.4365
 21
25.0771
  0
LINE
  8
0
 10
28.4365
 20
25.0771
 11
28.4561
 21
24.9531
  0
LINE
  8
0
 10
28.4561
 20
24.9531
 11
28.4678
 21
24.8281
  0
LINE
  8
0
 10
28.4678
 20
24.8281
 11
28.4717
 21
24.7021
  0
LINE
  8
0
 10
28.4717
 20
24.7021
 11
28.4678
 21
24.5771
  0
LINE
  8
0
 10
28.4678
 20
24.5771
 11
28.4561
 21
24.4512
  0
LINE
  8
0
 10
28.4561
 20
24.4512
 11
28.4365
 21
24.3271
  0
LINE
  8
0
 10
28.4365
 20
24.3271
 11
28.4092
 21
24.2051
  0
LINE
  8
0
 10
28.4092
 20
24.2051
 11
28.374
 21
24.084
  0
LINE
  8
0
 10
28.374
 20
24.084
 11
28.332
 21
23.9658
  0
LINE
  8
0
 10
28.332
 20
23.9658
 11
28.2822
 21
23.8506
  0
LINE
  8
0
 10
28.2822
 20
23.8506
 11
28.2246
 21
23.7393
  0
LINE
  8
0
 10
28.2246
 20
23.7393
 11
28.1611
 21
23.6309
  0
LINE
  8
0
 10
28.1611
 20
23.6309
 11
28.0898
 21
23.5264
  0
LINE
  8
0
 10
28.0898
 20
23.5264
 11
28.0137
 21
23.4277
  0
LINE
  8
0
 10
28.0137
 20
23.4277
 11
27.9297
 21
23.333
  0
LINE
  8
0
 10
27.9297
 20
23.333
 11
27.8408
 21
23.2441
  0
LINE
  8
0
 10
27.8408
 20
23.2441
 11
27.7471
 21
23.1611
  0
LINE
  8
0
 10
27.7471
 20
23.1611
 11
27.6475
 21
23.084
  0
LINE
  8
0
 10
27.6475
 20
23.084
 11
27.5439
 21
23.0137
  0
LINE
  8
0
 10
27.5439
 20
23.0137
 11
27.4355
 21
22.9492
  0
LINE
  8
0
 10
27.4355
 20
22.9492
 11
27.3232
 21
22.8926
  0
LINE
  8
0
 10
27.3232
 20
22.8926
 11
27.208
 21
22.8428
  0
LINE
  8
0
 10
27.208
 20
22.8428
 11
27.0898
 21
22.7998
  0
LINE
  8
0
 10
27.0898
 20
22.7998
 11
26.9697
 21
22.7646
  0
LINE
  8
0
 10
26.9697
 20
22.7646
 11
26.8467
 21
22.7373
  0
LINE
  8
0
 10
26.8467
 20
22.7373
 11
26.7227
 21
22.7178
  0
LINE
  8
0
 10
26.7227
 20
22.7178
 11
26.5977
 21
22.7061
  0
LINE
  8
0
 10
26.5977
 20
22.7061
 11
26.4717
 21
22.7021
  0
LINE
  8
0
 10
26.4717
 20
22.7021
 11
26.3467
 21
22.7061
  0
LINE
  8
0
 10
163.402
 20
22.7061
 11
163.277
 21
22.7178
  0
LINE
  8
0
 10
163.277
 20
22.7178
 11
163.153
 21
22.7373
  0
LINE
  8
0
 10
163.153
 20
22.7373
 11
163.03
 21
22.7646
  0
LINE
  8
0
 10
163.03
 20
22.7646
 11
162.91
 21
22.7998
  0
LINE
  8
0
 10
162.91
 20
22.7998
 11
162.792
 21
22.8428
  0
LINE
  8
0
 10
162.792
 20
22.8428
 11
162.677
 21
22.8926
  0
LINE
  8
0
 10
162.677
 20
22.8926
 11
162.564
 21
22.9492
  0
LINE
  8
0
 10
162.564
 20
22.9492
 11
162.456
 21
23.0137
  0
LINE
  8
0
 10
162.456
 20
23.0137
 11
162.353
 21
23.084
  0
LINE
  8
0
 10
162.353
 20
23.084
 11
162.253
 21
23.1611
  0
LINE
  8
0
 10
162.253
 20
23.1611
 11
162.159
 21
23.2441
  0
LINE
  8
0
 10
162.159
 20
23.2441
 11
162.07
 21
23.333
  0
LINE
  8
0
 10
162.07
 20
23.333
 11
161.986
 21
23.4277
  0
LINE
  8
0
 10
161.986
 20
23.4277
 11
161.91
 21
23.5264
  0
LINE
  8
0
 10
161.91
 20
23.5264
 11
161.839
 21
23.6309
  0
LINE
  8
0
 10
161.839
 20
23.6309
 11
161.775
 21
23.7393
  0
LINE
  8
0
 10
161.775
 20
23.7393
 11
161.718
 21
23.8506
  0
LINE
  8
0
 10
161.718
 20
23.8506
 11
161.668
 21
23.9658
  0
LINE
  8
0
 10
161.668
 20
23.9658
 11
161.626
 21
24.084
  0
LINE
  8
0
 10
161.626
 20
24.084
 11
161.591
 21
24.2051
  0
LINE
  8
0
 10
161.591
 20
24.2051
 11
161.563
 21
24.3271
  0
LINE
  8
0
 10
161.563
 20
24.3271
 11
161.544
 21
24.4512
  0
LINE
  8
0
 10
161.544
 20
24.4512
 11
161.532
 21
24.5771
  0
LINE
  8
0
 10
161.532
 20
24.5771
 11
161.528
 21
24.7021
  0
LINE
  8
0
 10
161.528
 20
24.7021
 11
161.532
 21
24.8281
  0
LINE
  8
0
 10
161.532
 20
24.8281
 11
161.544
 21
24.9531
  0
LINE
  8
0
 10
161.544
 20
24.9531
 11
161.563
 21
25.0771
  0
LINE
  8
0
 10
161.563
 20
25.0771
 11
161.591
 21
25.1992
  0
LINE
  8
0
 10
161.591
 20
25.1992
 11
161.626
 21
25.3203
  0
LINE
  8
0
 10
161.626
 20
25.3203
 11
161.668
 21
25.4385
  0
LINE
  8
0
 10
161.668
 20
25.4385
 11
161.718
 21
25.5537
  0
LINE
  8
0
 10
161.718
 20
25.5537
 11
161.775
 21
25.666
  0
LINE
  8
0
 10
161.775
 20
25.666
 11
161.839
 21
25.7744
  0
LINE
  8
0
 10
161.839
 20
25.7744
 11
161.91
 21
25.8779
  0
LINE
  8
0
 10
161.91
 20
25.8779
 11
161.986
 21
25.9775
  0
LINE
  8
0
 10
161.986
 20
25.9775
 11
162.07
 21
26.0713
  0
LINE
  8
0
 10
162.07
 20
26.0713
 11
162.159
 21
26.1602
  0
LINE
  8
0
 10
162.159
 20
26.1602
 11
162.253
 21
26.2432
  0
LINE
  8
0
 10
162.253
 20
26.2432
 11
162.353
 21
26.3203
  0
LINE
  8
0
 10
162.353
 20
26.3203
 11
162.456
 21
26.3906
  0
LINE
  8
0
 10
162.456
 20
26.3906
 11
162.564
 21
26.4551
  0
LINE
  8
0
 10
162.564
 20
26.4551
 11
162.677
 21
26.5117
  0
LINE
  8
0
 10
162.677
 20
26.5117
 11
162.792
 21
26.5615
  0
LINE
  8
0
 10
162.792
 20
26.5615
 11
162.91
 21
26.6045
  0
LINE
  8
0
 10
162.91
 20
26.6045
 11
163.03
 21
26.6396
  0
LINE
  8
0
 10
163.03
 20
26.6396
 11
163.153
 21
26.667
  0
LINE
  8
0
 10
163.153
 20
26.667
 11
163.277
 21
26.6865
  0
LINE
  8
0
 10
163.277
 20
26.6865
 11
163.402
 21
26.6982
  0
LINE
  8
0
 10
163.402
 20
26.6982
 11
163.528
 21
26.7021
  0
LINE
  8
0
 10
163.528
 20
26.7021
 11
163.653
 21
26.6982
  0
LINE
  8
0
 10
163.653
 20
26.6982
 11
163.778
 21
26.6865
  0
LINE
  8
0
 10
163.778
 20
26.6865
 11
163.902
 21
26.667
  0
LINE
  8
0
 10
163.902
 20
26.667
 11
164.025
 21
26.6396
  0
LINE
  8
0
 10
164.025
 20
26.6396
 11
164.146
 21
26.6045
  0
LINE
  8
0
 10
164.146
 20
26.6045
 11
164.264
 21
26.5615
  0
LINE
  8
0
 10
164.264
 20
26.5615
 11
164.38
 21
26.5117
  0
LINE
  8
0
 10
164.38
 20
26.5117
 11
164.491
 21
26.4551
  0
LINE
  8
0
 10
164.491
 20
26.4551
 11
164.6
 21
26.3906
  0
LINE
  8
0
 10
164.6
 20
26.3906
 11
164.703
 21
26.3203
  0
LINE
  8
0
 10
164.703
 20
26.3203
 11
164.803
 21
26.2432
  0
LINE
  8
0
 10
164.803
 20
26.2432
 11
164.897
 21
26.1602
  0
LINE
  8
0
 10
164.897
 20
26.1602
 11
164.985
 21
26.0713
  0
LINE
  8
0
 10
164.985
 20
26.0713
 11
165.069
 21
25.9775
  0
LINE
  8
0
 10
165.069
 20
25.9775
 11
165.146
 21
25.8779
  0
LINE
  8
0
 10
165.146
 20
25.8779
 11
165.217
 21
25.7744
  0
LINE
  8
0
 10
165.217
 20
25.7744
 11
165.28
 21
25.666
  0
LINE
  8
0
 10
165.28
 20
25.666
 11
165.338
 21
25.5537
  0
LINE
  8
0
 10
165.338
 20
25.5537
 11
165.388
 21
25.4385
  0
LINE
  8
0
 10
165.388
 20
25.4385
 11
165.43
 21
25.3203
  0
LINE
  8
0
 10
165.43
 20
25.3203
 11
165.465
 21
25.1992
  0
LINE
  8
0
 10
165.465
 20
25.1992
 11
165.492
 21
25.0771
  0
LINE
  8
0
 10
165.492
 20
25.0771
 11
165.512
 21
24.9531
  0
LINE
  8
0
 10
165.512
 20
24.9531
 11
165.523
 21
24.8281
  0
LINE
  8
0
 10
165.523
 20
24.8281
 11
165.528
 21
24.7021
  0
LINE
  8
0
 10
165.528
 20
24.7021
 11
165.523
 21
24.5771
  0
LINE
  8
0
 10
165.523
 20
24.5771
 11
165.512
 21
24.4512
  0
LINE
  8
0
 10
165.512
 20
24.4512
 11
165.492
 21
24.3271
  0
LINE
  8
0
 10
165.492
 20
24.3271
 11
165.465
 21
24.2051
  0
LINE
  8
0
 10
165.465
 20
24.2051
 11
165.43
 21
24.084
  0
LINE
  8
0
 10
165.43
 20
24.084
 11
165.388
 21
23.9658
  0
LINE
  8
0
 10
165.388
 20
23.9658
 11
165.338
 21
23.8506
  0
LINE
  8
0
 10
165.338
 20
23.8506
 11
165.28
 21
23.7393
  0
LINE
  8
0
 10
165.28
 20
23.7393
 11
165.217
 21
23.6309
  0
LINE
  8
0
 10
165.217
 20
23.6309
 11
165.146
 21
23.5264
  0
LINE
  8
0
 10
165.146
 20
23.5264
 11
165.069
 21
23.4277
  0
LINE
  8
0
 10
165.069
 20
23.4277
 11
164.985
 21
23.333
  0
LINE
  8
0
 10
164.985
 20
23.333
 11
164.897
 21
23.2441
  0
LINE
  8
0
 10
164.897
 20
23.2441
 11
164.803
 21
23.1611
  0
LINE
  8
0
 10
164.803
 20
23.1611
 11
164.703
 21
23.084
  0
LINE
  8
0
 10
164.703
 20
23.084
 11
164.6
 21
23.0137
  0
LINE
  8
0
 10
164.6
 20
23.0137
 11
164.491
 21
22.9492
  0
LINE
  8
0
 10
164.491
 20
22.9492
 11
164.38
 21
22.8926
  0
LINE
  8
0
 10
164.38
 20
22.8926
 11
164.264
 21
22.8428
  0
LINE
  8
0
 10
164.264
 20
22.8428
 11
164.146
 21
22.7998
  0
LINE
  8
0
 10
164.146
 20
22.7998
 11
164.025
 21
22.7646
  0
LINE
  8
0
 10
164.025
 20
22.7646
 11
163.902
 21
22.7373
  0
LINE
  8
0
 10
163.902
 20
22.7373
 11
163.778
 21
22.7178
  0
LINE
  8
0
 10
163.778
 20
22.7178
 11
163.653
 21
22.7061
  0
LINE
  8
0
 10
163.653
 20
22.7061
 11
163.528
 21
22.7021
  0
LINE
  8
0
 10
163.528
 20
22.7021
 11
163.402
 21
22.7061
  0
ENDSEC
  0
SECTION
  2
OBJECTS
  0
DICTIONARY
  0
ENDSEC
  0
EOF
