  0
SECTION
  2
BLOCKS
  0
ENDSEC
  0
SECTION
  2
ENTITIES
  0
LINE
  8
0
 10
0
 20
230.826
 11
-75
 21
0
  0
LINE
  8
0
 10
-75
 20
0
 11
75
 21
0
  0
LINE
  8
0
 10
75
 20
0
 11
0
 21
230.826
  0
LINE
  8
0
 10
-0.12558
 20
212.83
 11
-0.250656
 21
212.842
  0
LINE
  8
0
 10
-0.250656
 20
212.842
 11
-0.374756
 21
212.862
  0
LINE
  8
0
 10
-0.374756
 20
212.862
 11
-0.497375
 21
212.889
  0
LINE
  8
0
 10
-0.497375
 20
212.889
 11
-0.618027
 21
212.924
  0
LINE
  8
0
 10
-0.618027
 20
212.924
 11
-0.736237
 21
212.967
  0
LINE
  8
0
 10
-0.736237
 20
212.967
 11
-0.851547
 21
213.017
  0
LINE
  8
0
 10
-0.851547
 20
213.017
 11
-0.963501
 21
213.074
  0
LINE
  8
0
 10
-0.963501
 20
213.074
 11
-1.07164
 21
213.138
  0
LINE
  8
0
 10
-1.07164
 20
213.138
 11
-1.17557
 21
213.208
  0
LINE
  8
0
 10
-1.17557
 20
213.208
 11
-1.27484
 21
213.285
  0
LINE
  8
0
 10
-1.27484
 20
213.285
 11
-1.36908
 21
213.368
  0
LINE
  8
0
 10
-1.36908
 20
213.368
 11
-1.45793
 21
213.457
  0
LINE
  8
0
 10
-1.45793
 20
213.457
 11
-1.54102
 21
213.551
  0
LINE
  8
0
 10
-1.54102
 20
213.551
 11
-1.61803
 21
213.651
  0
LINE
  8
0
 10
-1.61803
 20
213.651
 11
-1.68864
 21
213.755
  0
LINE
  8
0
 10
-1.68864
 20
213.755
 11
-1.75261
 21
213.863
  0
LINE
  8
0
 10
-1.75261
 20
213.863
 11
-1.80965
 21
213.975
  0
LINE
  8
0
 10
-1.80965
 20
213.975
 11
-1.85954
 21
214.09
  0
LINE
  8
0
 10
-1.85954
 20
214.09
 11
-1.9021
 21
214.208
  0
LINE
  8
0
 10
-1.9021
 20
214.208
 11
-1.93716
 21
214.329
  0
LINE
  8
0
 10
-1.93716
 20
214.329
 11
-1.96457
 21
214.451
  0
LINE
  8
0
 10
-1.96457
 20
214.451
 11
-1.98422
 21
214.576
  0
LINE
  8
0
 10
-1.98422
 20
214.576
 11
-1.99605
 21
214.701
  0
LINE
  8
0
 10
-1.99605
 20
214.701
 11
-2
 21
214.826
  0
LINE
  8
0
 10
-2
 20
214.826
 11
-1.99605
 21
214.952
  0
LINE
  8
0
 10
-1.99605
 20
214.952
 11
-1.98422
 21
215.077
  0
LINE
  8
0
 10
-1.98422
 20
215.077
 11
-1.96457
 21
215.201
  0
LINE
  8
0
 10
-1.96457
 20
215.201
 11
-1.93716
 21
215.324
  0
LINE
  8
0
 10
-1.93716
 20
215.324
 11
-1.9021
 21
215.444
  0
LINE
  8
0
 10
-1.9021
 20
215.444
 11
-1.85954
 21
215.562
  0
LINE
  8
0
 10
-1.85954
 20
215.562
 11
-1.80965
 21
215.678
  0
LINE
  8
0
 10
-1.80965
 20
215.678
 11
-1.75261
 21
215.79
  0
LINE
  8
0
 10
-1.75261
 20
215.79
 11
-1.68864
 21
215.898
  0
LINE
  8
0
 10
-1.68864
 20
215.898
 11
-1.61803
 21
216.002
  0
LINE
  8
0
 10
-1.61803
 20
216.002
 11
-1.54102
 21
216.101
  0
LINE
  8
0
 10
-1.54102
 20
216.101
 11
-1.45793
 21
216.195
  0
LINE
  8
0
 10
-1.45793
 20
216.195
 11
-1.36908
 21
216.284
  0
LINE
  8
0
 10
-1.36908
 20
216.284
 11
-1.27484
 21
216.367
  0
LINE
  8
0
 10
-1.27484
 20
216.367
 11
-1.17557
 21
216.444
  0
LINE
  8
0
 10
-1.17557
 20
216.444
 11
-1.07164
 21
216.515
  0
LINE
  8
0
 10
-1.07164
 20
216.515
 11
-0.963501
 21
216.579
  0
LINE
  8
0
 10
-0.963501
 20
216.579
 11
-0.851547
 21
216.636
  0
LINE
  8
0
 10
-0.851547
 20
216.636
 11
-0.736237
 21
216.686
  0
LINE
  8
0
 10
-0.736237
 20
216.686
 11
-0.618027
 21
216.728
  0
LINE
  8
0
 10
-0.618027
 20
216.728
 11
-0.497375
 21
216.763
  0
LINE
  8
0
 10
-0.497375
 20
216.763
 11
-0.374756
 21
216.791
  0
LINE
  8
0
 10
-0.374756
 20
216.791
 11
-0.250656
 21
216.81
  0
LINE
  8
0
 10
-0.250656
 20
216.81
 11
-0.12558
 21
216.822
  0
LINE
  8
0
 10
-0.12558
 20
216.822
 11
0
 21
216.826
  0
LINE
  8
0
 10
0
 20
216.826
 11
0.12558
 21
216.822
  0
LINE
  8
0
 10
0.12558
 20
216.822
 11
0.250656
 21
216.81
  0
LINE
  8
0
 10
0.250656
 20
216.81
 11
0.374756
 21
216.791
  0
LINE
  8
0
 10
0.374756
 20
216.791
 11
0.497375
 21
216.763
  0
LINE
  8
0
 10
0.497375
 20
216.763
 11
0.618027
 21
216.728
  0
LINE
  8
0
 10
0.618027
 20
216.728
 11
0.736237
 21
216.686
  0
LINE
  8
0
 10
0.736237
 20
216.686
 11
0.851547
 21
216.636
  0
LINE
  8
0
 10
0.851547
 20
216.636
 11
0.963501
 21
216.579
  0
LINE
  8
0
 10
0.963501
 20
216.579
 11
1.07164
 21
216.515
  0
LINE
  8
0
 10
1.07164
 20
216.515
 11
1.17557
 21
216.444
  0
LINE
  8
0
 10
1.17557
 20
216.444
 11
1.27484
 21
216.367
  0
LINE
  8
0
 10
1.27484
 20
216.367
 11
1.36908
 21
216.284
  0
LINE
  8
0
 10
1.36908
 20
216.284
 11
1.45793
 21
216.195
  0
LINE
  8
0
 10
1.45793
 20
216.195
 11
1.54102
 21
216.101
  0
LINE
  8
0
 10
1.54102
 20
216.101
 11
1.61803
 21
216.002
  0
LINE
  8
0
 10
1.61803
 20
216.002
 11
1.68864
 21
215.898
  0
LINE
  8
0
 10
1.68864
 20
215.898
 11
1.75261
 21
215.79
  0
LINE
  8
0
 10
1.75261
 20
215.79
 11
1.80965
 21
215.678
  0
LINE
  8
0
 10
1.80965
 20
215.678
 11
1.85954
 21
215.562
  0
LINE
  8
0
 10
1.85954
 20
215.562
 11
1.9021
 21
215.444
  0
LINE
  8
0
 10
1.9021
 20
215.444
 11
1.93716
 21
215.324
  0
LINE
  8
0
 10
1.93716
 20
215.324
 11
1.96457
 21
215.201
  0
LINE
  8
0
 10
1.96457
 20
215.201
 11
1.98422
 21
215.077
  0
LINE
  8
0
 10
1.98422
 20
215.077
 11
1.99605
 21
214.952
  0
LINE
  8
0
 10
1.99605
 20
214.952
 11
2
 21
214.826
  0
LINE
  8
0
 10
2
 20
214.826
 11
1.99605
 21
214.701
  0
LINE
  8
0
 10
1.99605
 20
214.701
 11
1.98422
 21
214.576
  0
LINE
  8
0
 10
1.98422
 20
214.576
 11
1.96457
 21
214.451
  0
LINE
  8
0
 10
1.96457
 20
214.451
 11
1.93716
 21
214.329
  0
LINE
  8
0
 10
1.93716
 20
214.329
 11
1.9021
 21
214.208
  0
LINE
  8
0
 10
1.9021
 20
214.208
 11
1.85954
 21
214.09
  0
LINE
  8
0
 10
1.85954
 20
214.09
 11
1.80965
 21
213.975
  0
LINE
  8
0
 10
1.80965
 20
213.975
 11
1.75261
 21
213.863
  0
LINE
  8
0
 10
1.75261
 20
213.863
 11
1.68864
 21
213.755
  0
LINE
  8
0
 10
1.68864
 20
213.755
 11
1.61803
 21
213.651
  0
LINE
  8
0
 10
1.61803
 20
213.651
 11
1.54102
 21
213.551
  0
LINE
  8
0
 10
1.54102
 20
213.551
 11
1.45793
 21
213.457
  0
LINE
  8
0
 10
1.45793
 20
213.457
 11
1.36908
 21
213.368
  0
LINE
  8
0
 10
1.36908
 20
213.368
 11
1.27484
 21
213.285
  0
LINE
  8
0
 10
1.27484
 20
213.285
 11
1.17557
 21
213.208
  0
LINE
  8
0
 10
1.17557
 20
213.208
 11
1.07164
 21
213.138
  0
LINE
  8
0
 10
1.07164
 20
213.138
 11
0.963501
 21
213.074
  0
LINE
  8
0
 10
0.963501
 20
213.074
 11
0.851547
 21
213.017
  0
LINE
  8
0
 10
0.851547
 20
213.017
 11
0.736237
 21
212.967
  0
LINE
  8
0
 10
0.736237
 20
212.967
 11
0.618027
 21
212.924
  0
LINE
  8
0
 10
0.618027
 20
212.924
 11
0.497375
 21
212.889
  0
LINE
  8
0
 10
0.497375
 20
212.889
 11
0.374756
 21
212.862
  0
LINE
  8
0
 10
0.374756
 20
212.862
 11
0.250656
 21
212.842
  0
LINE
  8
0
 10
0.250656
 20
212.842
 11
0.12558
 21
212.83
  0
LINE
  8
0
 10
0.12558
 20
212.83
 11
0
 21
212.826
  0
LINE
  8
0
 10
0
 20
212.826
 11
-0.12558
 21
212.83
  0
LINE
  8
0
 10
-4.7166
 20
177.477
 11
0
 21
191.993
  0
LINE
  8
0
 10
0
 20
191.993
 11
4.62733
 21
177.752
  0
LINE
  8
0
 10
4.62733
 20
177.752
 11
3.61931
 21
177.314
  0
LINE
  8
0
 10
3.61931
 20
177.314
 11
3.35358
 21
177.166
  0
LINE
  8
0
 10
3.35358
 20
177.166
 11
-4.7166
 21
177.477
  0
LINE
  8
0
 10
-10.5178
 20
159.623
 11
-4.22905
 21
154.673
  0
LINE
  8
0
 10
-4.22905
 20
154.673
 11
-0.889435
 21
155.134
  0
LINE
  8
0
 10
-0.889435
 20
155.134
 11
-9.35989
 21
161.801
  0
LINE
  8
0
 10
-9.35989
 20
161.801
 11
-8.71902
 21
163.542
  0
LINE
  8
0
 10
-8.71902
 20
163.542
 11
-8.36128
 21
163.692
  0
LINE
  8
0
 10
-8.36128
 20
163.692
 11
-8.59772
 21
163.871
  0
LINE
  8
0
 10
-8.59772
 20
163.871
 11
-4.487
 21
175.04
  0
LINE
  8
0
 10
-4.487
 20
175.04
 11
5.63539
 21
174.65
  0
LINE
  8
0
 10
5.63539
 20
174.65
 11
10.6944
 21
159.079
  0
LINE
  8
0
 10
10.6944
 20
159.079
 11
2.83928
 21
153.822
  0
LINE
  8
0
 10
2.83928
 20
153.822
 11
2.01027
 21
155.533
  0
LINE
  8
0
 10
2.01027
 20
155.533
 11
-12.4963
 21
153.534
  0
LINE
  8
0
 10
-12.4963
 20
153.534
 11
-10.5178
 21
159.623
  0
LINE
  8
0
 10
-4.22905
 20
154.673
 11
-4.53163
 21
154.911
  0
LINE
  8
0
 10
-4.53163
 20
154.911
 11
-4.75021
 21
154.602
  0
LINE
  8
0
 10
-4.75021
 20
154.602
 11
-4.22905
 21
154.673
  0
LINE
  8
0
 10
8.23013
 20
148.234
 11
8.63869
 21
148.966
  0
LINE
  8
0
 10
8.63869
 20
148.966
 11
8.70918
 21
148.96
  0
LINE
  8
0
 10
8.70918
 20
148.96
 11
10.6233
 21
153.853
  0
LINE
  8
0
 10
10.6233
 20
153.853
 11
10.2841
 21
154.442
  0
LINE
  8
0
 10
10.2841
 20
154.442
 11
9.79958
 21
155.515
  0
LINE
  8
0
 10
9.79958
 20
155.515
 11
9.78722
 21
155.552
  0
LINE
  8
0
 10
9.78722
 20
155.552
 11
11.4738
 21
156.681
  0
LINE
  8
0
 10
11.4738
 20
156.681
 11
11.5898
 21
156.324
  0
LINE
  8
0
 10
11.5898
 20
156.324
 11
8.3931
 21
148.152
  0
LINE
  8
0
 10
8.3931
 20
148.152
 11
13.9699
 21
148.999
  0
LINE
  8
0
 10
13.9699
 20
148.999
 11
8.65562
 21
148.192
  0
LINE
  8
0
 10
8.65562
 20
148.192
 11
8.43979
 21
147.811
  0
LINE
  8
0
 10
8.43979
 20
147.811
 11
8.23013
 21
148.234
  0
LINE
  8
0
 10
12.3206
 20
154.075
 11
13.5
 21
150.445
  0
LINE
  8
0
 10
13.5
 20
150.445
 11
10.7364
 21
150.025
  0
LINE
  8
0
 10
10.7364
 20
150.025
 11
12.3206
 21
154.075
  0
LINE
  8
0
 10
3.9077
 20
151.617
 11
6.20911
 21
153.157
  0
LINE
  8
0
 10
6.20911
 20
153.157
 11
5.06172
 21
149.235
  0
LINE
  8
0
 10
5.06172
 20
149.235
 11
3.9077
 21
151.617
  0
LINE
  8
0
 10
-15.8654
 20
137.076
 11
-13.4369
 21
150.639
  0
LINE
  8
0
 10
-13.4369
 20
150.639
 11
-13.3297
 21
150.969
  0
LINE
  8
0
 10
-13.3297
 20
150.969
 11
0.594864
 21
152.888
  0
LINE
  8
0
 10
0.594864
 20
152.888
 11
6.74561
 21
140.192
  0
LINE
  8
0
 10
6.74561
 20
140.192
 11
-3.42682
 21
130.42
  0
LINE
  8
0
 10
-3.42682
 20
130.42
 11
-15.8654
 21
137.076
  0
LINE
  8
0
 10
12.8307
 20
140.607
 11
10.9815
 21
144.427
  0
LINE
  8
0
 10
10.9815
 20
144.427
 11
12.8737
 21
147.302
  0
LINE
  8
0
 10
12.8737
 20
147.302
 11
13.6629
 21
146.81
  0
LINE
  8
0
 10
13.6629
 20
146.81
 11
14.8761
 21
146.209
  0
LINE
  8
0
 10
14.8761
 20
146.209
 11
17.1883
 21
139.093
  0
LINE
  8
0
 10
17.1883
 20
139.093
 11
12.8307
 21
140.607
  0
LINE
  8
0
 10
6.63826
 20
145.98
 11
6.67969
 21
146.122
  0
LINE
  8
0
 10
6.67969
 20
146.122
 11
7.24136
 21
145.696
  0
LINE
  8
0
 10
7.24136
 20
145.696
 11
6.99051
 21
145.253
  0
LINE
  8
0
 10
6.99051
 20
145.253
 11
6.63826
 21
145.98
  0
LINE
  8
0
 10
7.69386
 20
143.801
 11
8.54645
 21
145.306
  0
LINE
  8
0
 10
8.54645
 20
145.306
 11
9.40132
 21
143.54
  0
LINE
  8
0
 10
9.40132
 20
143.54
 11
7.92046
 21
143.334
  0
LINE
  8
0
 10
7.92046
 20
143.334
 11
8.30009
 21
142.55
  0
LINE
  8
0
 10
8.30009
 20
142.55
 11
7.69386
 21
143.801
  0
LINE
  8
0
 10
18.8145
 20
129.49
 11
16.2087
 21
128.833
  0
LINE
  8
0
 10
16.2087
 20
128.833
 11
14.4445
 21
129.985
  0
LINE
  8
0
 10
14.4445
 20
129.985
 11
14.7466
 21
135.716
  0
LINE
  8
0
 10
14.7466
 20
135.716
 11
15.8217
 21
136.707
  0
LINE
  8
0
 10
15.8217
 20
136.707
 11
16.6727
 21
138.853
  0
LINE
  8
0
 10
16.6727
 20
138.853
 11
15.2547
 21
139.346
  0
LINE
  8
0
 10
15.2547
 20
139.346
 11
14.7924
 21
138.18
  0
LINE
  8
0
 10
14.7924
 20
138.18
 11
13.8148
 21
139.234
  0
LINE
  8
0
 10
13.8148
 20
139.234
 11
9.76181
 21
138.64
  0
LINE
  8
0
 10
9.76181
 20
138.64
 11
8.95592
 21
138.95
  0
LINE
  8
0
 10
8.95592
 20
138.95
 11
9.69864
 21
139.664
  0
LINE
  8
0
 10
9.69864
 20
139.664
 11
8.52885
 21
142.078
  0
LINE
  8
0
 10
8.52885
 20
142.078
 11
10.0092
 21
142.284
  0
LINE
  8
0
 10
10.0092
 20
142.284
 11
10.6588
 21
140.943
  0
LINE
  8
0
 10
10.6588
 20
140.943
 11
17.342
 21
138.62
  0
LINE
  8
0
 10
17.342
 20
138.62
 11
17.4698
 21
138.227
  0
LINE
  8
0
 10
17.4698
 20
138.227
 11
14.7466
 21
135.716
  0
LINE
  8
0
 10
14.7466
 20
135.716
 11
14.7169
 21
135.149
  0
LINE
  8
0
 10
14.7169
 20
135.149
 11
17.6045
 21
137.812
  0
LINE
  8
0
 10
17.6045
 20
137.812
 11
20.4198
 21
129.148
  0
LINE
  8
0
 10
20.4198
 20
129.148
 11
18.2742
 21
128.237
  0
LINE
  8
0
 10
18.2742
 20
128.237
 11
18.8145
 21
129.49
  0
LINE
  8
0
 10
12.2905
 20
137.669
 11
13.3163
 21
137.819
  0
LINE
  8
0
 10
13.3163
 20
137.819
 11
14.101
 21
136.973
  0
LINE
  8
0
 10
14.101
 20
136.973
 11
12.2905
 21
137.669
  0
LINE
  8
0
 10
2.58774
 20
132.832
 11
7.02278
 21
137.093
  0
LINE
  8
0
 10
7.02278
 20
137.093
 11
12.2823
 21
135.072
  0
LINE
  8
0
 10
12.2823
 20
135.072
 11
11.8964
 21
127.747
  0
LINE
  8
0
 10
11.8964
 20
127.747
 11
9.15459
 21
127.057
  0
LINE
  8
0
 10
9.15459
 20
127.057
 11
2.58774
 21
132.832
  0
LINE
  8
0
 10
-25.819
 20
112.531
 11
-24.674
 21
116.055
  0
LINE
  8
0
 10
-24.674
 20
116.055
 11
-18.8187
 21
121.773
  0
LINE
  8
0
 10
-18.8187
 20
121.773
 11
-21.2313
 21
126.65
  0
LINE
  8
0
 10
-21.2313
 20
126.65
 11
-21.1589
 21
126.873
  0
LINE
  8
0
 10
-21.1589
 20
126.873
 11
-18.7537
 21
129.888
  0
LINE
  8
0
 10
-18.7537
 20
129.888
 11
-20.1126
 21
130.093
  0
LINE
  8
0
 10
-20.1126
 20
130.093
 11
-19.5745
 21
131.749
  0
LINE
  8
0
 10
-19.5745
 20
131.749
 11
-17.8368
 21
130.158
  0
LINE
  8
0
 10
-17.8368
 20
130.158
 11
-17.3985
 21
135.143
  0
LINE
  8
0
 10
-17.3985
 20
135.143
 11
-18.3128
 21
135.632
  0
LINE
  8
0
 10
-18.3128
 20
135.632
 11
-10.8778
 21
131.654
  0
LINE
  8
0
 10
-10.8778
 20
131.654
 11
-12.7622
 21
129.328
  0
LINE
  8
0
 10
-12.7622
 20
129.328
 11
-11.7238
 21
127.728
  0
LINE
  8
0
 10
-11.7238
 20
127.728
 11
-12.2232
 21
127.409
  0
LINE
  8
0
 10
-12.2232
 20
127.409
 11
-13.3802
 21
126.499
  0
LINE
  8
0
 10
-13.3802
 20
126.499
 11
-14.442
 21
125.48
  0
LINE
  8
0
 10
-14.442
 20
125.48
 11
-15.3992
 21
124.361
  0
LINE
  8
0
 10
-15.3992
 20
124.361
 11
-16.2417
 21
123.154
  0
LINE
  8
0
 10
-16.2417
 20
123.154
 11
-16.9622
 21
121.87
  0
LINE
  8
0
 10
-16.9622
 20
121.87
 11
-17.5532
 21
120.522
  0
LINE
  8
0
 10
-17.5532
 20
120.522
 11
-18.0093
 21
119.123
  0
LINE
  8
0
 10
-18.0093
 20
119.123
 11
-18.3261
 21
117.685
  0
LINE
  8
0
 10
-18.3261
 20
117.685
 11
-18.5003
 21
116.223
  0
LINE
  8
0
 10
-18.5003
 20
116.223
 11
-18.5305
 21
114.752
  0
LINE
  8
0
 10
-18.5305
 20
114.752
 11
-18.4163
 21
113.284
  0
LINE
  8
0
 10
-18.4163
 20
113.284
 11
-18.1712
 21
111.905
  0
LINE
  8
0
 10
-18.1712
 20
111.905
 11
-25.819
 21
112.531
  0
LINE
  8
0
 10
-19.1236
 20
133.137
 11
-18.8275
 21
134.048
  0
LINE
  8
0
 10
-18.8275
 20
134.048
 11
-18.9237
 21
132.954
  0
LINE
  8
0
 10
-18.9237
 20
132.954
 11
-19.1236
 21
133.137
  0
LINE
  8
0
 10
0.40535
 20
129.653
 11
-0.510864
 21
129.855
  0
LINE
  8
0
 10
-0.510864
 20
129.855
 11
1.55319
 21
131.838
  0
LINE
  8
0
 10
1.55319
 20
131.838
 11
1.38405
 21
129.334
  0
LINE
  8
0
 10
1.38405
 20
129.334
 11
0.40535
 21
129.653
  0
LINE
  8
0
 10
10.9357
 20
111.238
 11
11.2525
 21
112.676
  0
LINE
  8
0
 10
11.2525
 20
112.676
 11
11.4269
 21
114.137
  0
LINE
  8
0
 10
11.4269
 20
114.137
 11
11.4569
 21
115.609
  0
LINE
  8
0
 10
11.4569
 20
115.609
 11
11.3427
 21
117.077
  0
LINE
  8
0
 10
11.3427
 20
117.077
 11
11.0852
 21
118.526
  0
LINE
  8
0
 10
11.0852
 20
118.526
 11
10.687
 21
119.943
  0
LINE
  8
0
 10
10.687
 20
119.943
 11
10.1516
 21
121.315
  0
LINE
  8
0
 10
10.1516
 20
121.315
 11
9.48441
 21
122.627
  0
LINE
  8
0
 10
9.48441
 20
122.627
 11
8.69179
 21
123.867
  0
LINE
  8
0
 10
8.69179
 20
123.867
 11
7.78152
 21
125.024
  0
LINE
  8
0
 10
7.78152
 20
125.024
 11
6.76231
 21
126.086
  0
LINE
  8
0
 10
6.76231
 20
126.086
 11
5.64377
 21
127.043
  0
LINE
  8
0
 10
5.64377
 20
127.043
 11
4.43687
 21
127.886
  0
LINE
  8
0
 10
4.43687
 20
127.886
 11
3.15308
 21
128.606
  0
LINE
  8
0
 10
3.15308
 20
128.606
 11
2.67952
 21
128.814
  0
LINE
  8
0
 10
2.67952
 20
128.814
 11
2.81799
 21
130.862
  0
LINE
  8
0
 10
2.81799
 20
130.862
 11
8.80211
 21
125.599
  0
LINE
  8
0
 10
8.80211
 20
125.599
 11
16.5298
 21
127.545
  0
LINE
  8
0
 10
16.5298
 20
127.545
 11
13.3731
 21
120.228
  0
LINE
  8
0
 10
13.3731
 20
120.228
 11
17.6122
 21
113.48
  0
LINE
  8
0
 10
17.6122
 20
113.48
 11
11.4175
 21
114.058
  0
LINE
  8
0
 10
11.4175
 20
114.058
 11
11.2601
 21
112.739
  0
LINE
  8
0
 10
11.2601
 20
112.739
 11
15.7372
 21
112.322
  0
LINE
  8
0
 10
15.7372
 20
112.322
 11
16.6704
 21
111.63
  0
LINE
  8
0
 10
16.6704
 20
111.63
 11
10.4855
 21
109.856
  0
LINE
  8
0
 10
10.4855
 20
109.856
 11
10.9357
 21
111.238
  0
LINE
  8
0
 10
-9.76639
 20
129.17
 11
-8.69865
 21
130.488
  0
LINE
  8
0
 10
-8.69865
 20
130.488
 11
-7.23335
 21
129.704
  0
LINE
  8
0
 10
-7.23335
 20
129.704
 11
-8.29948
 21
129.404
  0
LINE
  8
0
 10
-8.29948
 20
129.404
 11
-9.59084
 21
128.9
  0
LINE
  8
0
 10
-9.59084
 20
128.9
 11
-9.76639
 21
129.17
  0
LINE
  8
0
 10
-4.37096
 20
103.21
 11
-5.54031
 21
103.349
  0
LINE
  8
0
 10
-5.54031
 20
103.349
 11
-6.69044
 21
103.602
  0
LINE
  8
0
 10
-6.69044
 20
103.602
 11
-7.81013
 21
103.967
  0
LINE
  8
0
 10
-7.81013
 20
103.967
 11
-8.88863
 21
104.44
  0
LINE
  8
0
 10
-8.88863
 20
104.44
 11
-9.91562
 21
105.016
  0
LINE
  8
0
 10
-9.91562
 20
105.016
 11
-10.881
 21
105.69
  0
LINE
  8
0
 10
-10.881
 20
105.69
 11
-11.776
 21
106.456
  0
LINE
  8
0
 10
-11.776
 20
106.456
 11
-12.5912
 21
107.306
  0
LINE
  8
0
 10
-12.5912
 20
107.306
 11
-13.3195
 21
108.231
  0
LINE
  8
0
 10
-13.3195
 20
108.231
 11
-13.9536
 21
109.223
  0
LINE
  8
0
 10
-13.9536
 20
109.223
 11
-14.4873
 21
110.273
  0
LINE
  8
0
 10
-14.4873
 20
110.273
 11
-14.9155
 21
111.37
  0
LINE
  8
0
 10
-14.9155
 20
111.37
 11
-15.2344
 21
112.504
  0
LINE
  8
0
 10
-15.2344
 20
112.504
 11
-15.4404
 21
113.663
  0
LINE
  8
0
 10
-15.4404
 20
113.663
 11
-15.5317
 21
114.837
  0
LINE
  8
0
 10
-15.5317
 20
114.837
 11
-15.5077
 21
116.015
  0
LINE
  8
0
 10
-15.5077
 20
116.015
 11
-15.3683
 21
117.184
  0
LINE
  8
0
 10
-15.3683
 20
117.184
 11
-15.1149
 21
118.334
  0
LINE
  8
0
 10
-15.1149
 20
118.334
 11
-14.7498
 21
119.454
  0
LINE
  8
0
 10
-14.7498
 20
119.454
 11
-14.277
 21
120.532
  0
LINE
  8
0
 10
-14.277
 20
120.532
 11
-13.7009
 21
121.559
  0
LINE
  8
0
 10
-13.7009
 20
121.559
 11
-13.0266
 21
122.525
  0
LINE
  8
0
 10
-13.0266
 20
122.525
 11
-12.261
 21
123.42
  0
LINE
  8
0
 10
-12.261
 20
123.42
 11
-11.4114
 21
124.235
  0
LINE
  8
0
 10
-11.4114
 20
124.235
 11
-10.486
 21
124.963
  0
LINE
  8
0
 10
-10.486
 20
124.963
 11
-9.49356
 21
125.597
  0
LINE
  8
0
 10
-9.49356
 20
125.597
 11
-8.44391
 21
126.131
  0
LINE
  8
0
 10
-8.44391
 20
126.131
 11
-7.34688
 21
126.559
  0
LINE
  8
0
 10
-7.34688
 20
126.559
 11
-6.21323
 21
126.878
  0
LINE
  8
0
 10
-6.21323
 20
126.878
 11
-5.05371
 21
127.084
  0
LINE
  8
0
 10
-5.05371
 20
127.084
 11
-3.87955
 21
127.176
  0
LINE
  8
0
 10
-3.87955
 20
127.176
 11
-2.70218
 21
127.151
  0
LINE
  8
0
 10
-2.70218
 20
127.151
 11
-1.53305
 21
127.012
  0
LINE
  8
0
 10
-1.53305
 20
127.012
 11
-0.382919
 21
126.758
  0
LINE
  8
0
 10
-0.382919
 20
126.758
 11
0.736542
 21
126.394
  0
LINE
  8
0
 10
0.736542
 20
126.394
 11
1.81503
 21
125.921
  0
LINE
  8
0
 10
1.81503
 20
125.921
 11
2.84203
 21
125.344
  0
LINE
  8
0
 10
2.84203
 20
125.344
 11
3.80768
 21
124.67
  0
LINE
  8
0
 10
3.80768
 20
124.67
 11
4.70238
 21
123.905
  0
LINE
  8
0
 10
4.70238
 20
123.905
 11
5.51788
 21
123.055
  0
LINE
  8
0
 10
5.51788
 20
123.055
 11
6.24619
 21
122.13
  0
LINE
  8
0
 10
6.24619
 20
122.13
 11
6.88019
 21
121.137
  0
LINE
  8
0
 10
6.88019
 20
121.137
 11
7.41394
 21
120.088
  0
LINE
  8
0
 10
7.41394
 20
120.088
 11
7.84218
 21
118.991
  0
LINE
  8
0
 10
7.84218
 20
118.991
 11
8.16078
 21
117.857
  0
LINE
  8
0
 10
8.16078
 20
117.857
 11
8.36678
 21
116.698
  0
LINE
  8
0
 10
8.36678
 20
116.698
 11
8.45833
 21
115.523
  0
LINE
  8
0
 10
8.45833
 20
115.523
 11
8.43407
 21
114.346
  0
LINE
  8
0
 10
8.43407
 20
114.346
 11
8.29468
 21
113.177
  0
LINE
  8
0
 10
8.29468
 20
113.177
 11
8.04131
 21
112.027
  0
LINE
  8
0
 10
8.04131
 20
112.027
 11
7.67647
 21
110.907
  0
LINE
  8
0
 10
7.67647
 20
110.907
 11
7.2036
 21
109.829
  0
LINE
  8
0
 10
7.2036
 20
109.829
 11
6.62727
 21
108.802
  0
LINE
  8
0
 10
6.62727
 20
108.802
 11
5.95299
 21
107.836
  0
LINE
  8
0
 10
5.95299
 20
107.836
 11
5.18761
 21
106.941
  0
LINE
  8
0
 10
5.18761
 20
106.941
 11
4.338
 21
106.126
  0
LINE
  8
0
 10
4.338
 20
106.126
 11
3.4124
 21
105.397
  0
LINE
  8
0
 10
3.4124
 20
105.397
 11
2.4202
 21
104.763
  0
LINE
  8
0
 10
2.4202
 20
104.763
 11
1.37032
 21
104.23
  0
LINE
  8
0
 10
1.37032
 20
104.23
 11
0.273285
 21
103.801
  0
LINE
  8
0
 10
0.273285
 20
103.801
 11
-0.860138
 21
103.483
  0
LINE
  8
0
 10
-0.860138
 20
103.483
 11
-2.01942
 21
103.277
  0
LINE
  8
0
 10
-2.01942
 20
103.277
 11
-3.19359
 21
103.185
  0
LINE
  8
0
 10
-3.19359
 20
103.185
 11
-4.37096
 21
103.21
  0
LINE
  8
0
 10
12.5608
 20
107.308
 11
10.2122
 21
108.397
  0
LINE
  8
0
 10
10.2122
 20
108.397
 11
19.6225
 21
111.096
  0
LINE
  8
0
 10
19.6225
 20
111.096
 11
18.289
 21
112.084
  0
LINE
  8
0
 10
18.289
 20
112.084
 11
20.1677
 21
111.909
  0
LINE
  8
0
 10
20.1677
 20
111.909
 11
17.3067
 21
116.462
  0
LINE
  8
0
 10
17.3067
 20
116.462
 11
17.6058
 21
125.039
  0
LINE
  8
0
 10
17.6058
 20
125.039
 11
21.4011
 21
126.128
  0
LINE
  8
0
 10
21.4011
 20
126.128
 11
27.5718
 21
107.136
  0
LINE
  8
0
 10
27.5718
 20
107.136
 11
17.9821
 21
110.626
  0
LINE
  8
0
 10
17.9821
 20
110.626
 11
14.6413
 21
109.667
  0
LINE
  8
0
 10
14.6413
 20
109.667
 11
14.6272
 21
109.263
  0
LINE
  8
0
 10
14.6272
 20
109.263
 11
20.5229
 21
107.118
  0
LINE
  8
0
 10
20.5229
 20
107.118
 11
20.1773
 21
104.775
  0
LINE
  8
0
 10
20.1773
 20
104.775
 11
20.1091
 21
104.754
  0
LINE
  8
0
 10
20.1091
 20
104.754
 11
12.5608
 21
107.308
  0
LINE
  8
0
 10
-22.644
 20
122.302
 11
-22.1239
 21
122.185
  0
LINE
  8
0
 10
-22.1239
 20
122.185
 11
-22.3972
 21
123.062
  0
LINE
  8
0
 10
-22.3972
 20
123.062
 11
-22.3047
 21
123.347
  0
LINE
  8
0
 10
-22.3047
 20
123.347
 11
-21.7758
 21
122.278
  0
LINE
  8
0
 10
-21.7758
 20
122.278
 11
-23.0593
 21
121.024
  0
LINE
  8
0
 10
-23.0593
 20
121.024
 11
-22.644
 21
122.302
  0
LINE
  8
0
 10
14.8686
 20
120.343
 11
15.0263
 21
120.709
  0
LINE
  8
0
 10
15.0263
 20
120.709
 11
15.006
 21
120.125
  0
LINE
  8
0
 10
15.006
 20
120.125
 11
14.8686
 21
120.343
  0
LINE
  8
0
 10
-27.1521
 20
108.428
 11
-26.5898
 21
110.159
  0
LINE
  8
0
 10
-26.5898
 20
110.159
 11
-17.3643
 21
109.404
  0
LINE
  8
0
 10
-17.3643
 20
109.404
 11
-17.225
 21
109.046
  0
LINE
  8
0
 10
-17.225
 20
109.046
 11
-16.7931
 21
108.197
  0
LINE
  8
0
 10
-16.7931
 20
108.197
 11
-23.0219
 21
105.689
  0
LINE
  8
0
 10
-23.0219
 20
105.689
 11
-27.1521
 21
108.428
  0
LINE
  8
0
 10
-18.9999
 20
91.2642
 11
-17.2739
 21
92.3869
  0
LINE
  8
0
 10
-17.2739
 20
92.3869
 11
-21.4126
 21
94.4919
  0
LINE
  8
0
 10
-21.4126
 20
94.4919
 11
-25.627
 21
100.129
  0
LINE
  8
0
 10
-25.627
 20
100.129
 11
-20.7907
 21
103.033
  0
LINE
  8
0
 10
-20.7907
 20
103.033
 11
-27.9819
 21
105.874
  0
LINE
  8
0
 10
-27.9819
 20
105.874
 11
-27.5779
 21
107.117
  0
LINE
  8
0
 10
-27.5779
 20
107.117
 11
-23.1738
 21
104.197
  0
LINE
  8
0
 10
-23.1738
 20
104.197
 11
-16.114
 21
107.039
  0
LINE
  8
0
 10
-16.114
 20
107.039
 11
-15.9082
 21
106.717
  0
LINE
  8
0
 10
-15.9082
 20
106.717
 11
-17.2964
 21
101.726
  0
LINE
  8
0
 10
-17.2964
 20
101.726
 11
-20.3414
 21
102.435
  0
LINE
  8
0
 10
-20.3414
 20
102.435
 11
-16.2321
 21
93.361
  0
LINE
  8
0
 10
-16.2321
 20
93.361
 11
-16.309
 21
93.2335
  0
LINE
  8
0
 10
-16.309
 20
93.2335
 11
-18.734
 21
93.1296
  0
LINE
  8
0
 10
-18.734
 20
93.1296
 11
-17.2739
 21
92.3869
  0
LINE
  8
0
 10
-17.2739
 20
92.3869
 11
-18.1359
 21
91.8261
  0
LINE
  8
0
 10
-18.1359
 20
91.8261
 11
-17.1318
 21
91.8694
  0
LINE
  8
0
 10
-17.1318
 20
91.8694
 11
-18.168
 21
90.1514
  0
LINE
  8
0
 10
-18.168
 20
90.1514
 11
-18.9999
 21
91.2642
  0
LINE
  8
0
 10
28.095
 20
101.343
 11
22.7353
 21
103.409
  0
LINE
  8
0
 10
22.7353
 20
103.409
 11
21.9667
 21
104.484
  0
LINE
  8
0
 10
21.9667
 20
104.484
 11
22.262
 21
106.485
  0
LINE
  8
0
 10
22.262
 20
106.485
 11
21.0845
 21
106.914
  0
LINE
  8
0
 10
21.0845
 20
106.914
 11
28.5236
 21
104.207
  0
LINE
  8
0
 10
28.5236
 20
104.207
 11
29.7273
 21
100.502
  0
LINE
  8
0
 10
29.7273
 20
100.502
 11
28.095
 21
101.343
  0
LINE
  8
0
 10
8.87878
 20
104.862
 11
9.51279
 21
106.754
  0
LINE
  8
0
 10
9.51279
 20
106.754
 11
12.1346
 21
105.539
  0
LINE
  8
0
 10
12.1346
 20
105.539
 11
17.1879
 21
103.829
  0
LINE
  8
0
 10
17.1879
 20
103.829
 11
10.689
 21
101.771
  0
LINE
  8
0
 10
10.689
 20
101.771
 11
8.87878
 21
104.862
  0
LINE
  8
0
 10
17.1879
 20
103.829
 11
14.9799
 21
104.576
  0
LINE
  8
0
 10
14.9799
 20
104.576
 11
12.8913
 21
104.527
  0
LINE
  8
0
 10
12.8913
 20
104.527
 11
11.247
 21
101.948
  0
LINE
  8
0
 10
11.247
 20
101.948
 11
17.1879
 21
103.829
  0
LINE
  8
0
 10
-16.0018
 20
101.425
 11
-14.8984
 21
105.392
  0
LINE
  8
0
 10
-14.8984
 20
105.392
 11
-14.8551
 21
105.337
  0
LINE
  8
0
 10
-14.8551
 20
105.337
 11
-13.8357
 21
104.275
  0
LINE
  8
0
 10
-13.8357
 20
104.275
 11
-13.8183
 21
104.26
  0
LINE
  8
0
 10
-13.8183
 20
104.26
 11
-13.7805
 21
104.1
  0
LINE
  8
0
 10
-13.7805
 20
104.1
 11
-14.1422
 21
104.155
  0
LINE
  8
0
 10
-14.1422
 20
104.155
 11
-13.5301
 21
103.043
  0
LINE
  8
0
 10
-13.5301
 20
103.043
 11
-12.9803
 21
100.721
  0
LINE
  8
0
 10
-12.9803
 20
100.721
 11
-16.0018
 21
101.425
  0
LINE
  8
0
 10
5.54443
 20
103.262
 11
6.30661
 21
103.862
  0
LINE
  8
0
 10
6.30661
 20
103.862
 11
7.36862
 21
104.881
  0
LINE
  8
0
 10
7.36862
 20
104.881
 11
7.56042
 21
105.105
  0
LINE
  8
0
 10
7.56042
 20
105.105
 11
6.47896
 21
101.877
  0
LINE
  8
0
 10
6.47896
 20
101.877
 11
5.54443
 21
103.262
  0
LINE
  8
0
 10
-28.5695
 20
104.066
 11
-28.393
 21
104.609
  0
LINE
  8
0
 10
-28.393
 20
104.609
 11
-23.7806
 21
102.786
  0
LINE
  8
0
 10
-23.7806
 20
102.786
 11
-26.426
 21
101.198
  0
LINE
  8
0
 10
-26.426
 20
101.198
 11
-28.5695
 21
104.066
  0
LINE
  8
0
 10
27.1154
 20
97.2836
 11
22.9801
 21
103.066
  0
LINE
  8
0
 10
22.9801
 20
103.066
 11
24.6231
 21
100.769
  0
LINE
  8
0
 10
24.6231
 20
100.769
 11
27.1195
 21
99.8067
  0
LINE
  8
0
 10
27.1195
 20
99.8067
 11
30.5231
 21
98.053
  0
LINE
  8
0
 10
30.5231
 20
98.053
 11
30.9111
 21
96.859
  0
LINE
  8
0
 10
30.9111
 20
96.859
 11
27.1154
 21
97.2836
  0
LINE
  8
0
 10
4.14139
 20
100.092
 11
3.80928
 21
102.108
  0
LINE
  8
0
 10
3.80928
 20
102.108
 11
3.9093
 21
102.159
  0
LINE
  8
0
 10
3.9093
 20
102.159
 11
5.1373
 21
102.944
  0
LINE
  8
0
 10
5.1373
 20
102.944
 11
4.45267
 21
102.506
  0
LINE
  8
0
 10
4.45267
 20
102.506
 11
6.54076
 21
99.4119
  0
LINE
  8
0
 10
6.54076
 20
99.4119
 11
6.25992
 21
99.0961
  0
LINE
  8
0
 10
6.25992
 20
99.0961
 11
4.14139
 21
100.092
  0
LINE
  8
0
 10
-11.6819
 20
102.438
 11
-11.3557
 21
102.389
  0
LINE
  8
0
 10
-11.3557
 20
102.389
 11
-10.2264
 21
101.755
  0
LINE
  8
0
 10
-10.2264
 20
101.755
 11
-9.33701
 21
101.365
  0
LINE
  8
0
 10
-9.33701
 20
101.365
 11
-10.505
 21
100.3
  0
LINE
  8
0
 10
-10.505
 20
100.3
 11
-11.6819
 21
102.438
  0
LINE
  8
0
 10
13.3811
 20
100.078
 11
20.5177
 21
102.337
  0
LINE
  8
0
 10
20.5177
 20
102.337
 11
28.7233
 21
90.862
  0
LINE
  8
0
 10
28.7233
 20
90.862
 11
23.343
 21
83.5731
  0
LINE
  8
0
 10
23.343
 20
83.5731
 11
13.3811
 21
100.078
  0
LINE
  8
0
 10
-29.1369
 20
102.319
 11
-18.7035
 21
88.3627
  0
LINE
  8
0
 10
-18.7035
 20
88.3627
 11
-34.2731
 21
86.5116
  0
LINE
  8
0
 10
-34.2731
 20
86.5116
 11
-29.1369
 21
102.319
  0
LINE
  8
0
 10
7.85545
 20
101.807
 11
8.17909
 21
101.254
  0
LINE
  8
0
 10
8.17909
 20
101.254
 11
7.36267
 21
100.336
  0
LINE
  8
0
 10
7.36267
 20
100.336
 11
7.85545
 21
101.807
  0
LINE
  8
0
 10
-2.42935
 20
96.965
 11
-2.70836
 21
100.218
  0
LINE
  8
0
 10
-2.70836
 20
100.218
 11
-1.64017
 21
100.301
  0
LINE
  8
0
 10
-1.64017
 20
100.301
 11
-0.190887
 21
100.558
  0
LINE
  8
0
 10
-0.190887
 20
100.558
 11
1.22589
 21
100.957
  0
LINE
  8
0
 10
1.22589
 20
100.957
 11
2.56737
 21
101.48
  0
LINE
  8
0
 10
2.56737
 20
101.48
 11
2.94479
 21
99.1876
  0
LINE
  8
0
 10
2.94479
 20
99.1876
 11
10.0417
 21
95.8505
  0
LINE
  8
0
 10
10.0417
 20
95.8505
 11
10.6844
 21
97.0155
  0
LINE
  8
0
 10
10.6844
 20
97.0155
 11
8.54988
 21
98.0192
  0
LINE
  8
0
 10
8.54988
 20
98.0192
 11
9.20425
 21
98.755
  0
LINE
  8
0
 10
9.20425
 20
98.755
 11
12.1607
 21
99.6912
  0
LINE
  8
0
 10
12.1607
 20
99.6912
 11
9.9543
 21
95.6919
  0
LINE
  8
0
 10
9.9543
 20
95.6919
 11
4.63966
 21
92.9437
  0
LINE
  8
0
 10
4.63966
 20
92.9437
 11
-2.42935
 21
96.965
  0
LINE
  8
0
 10
-10.9309
 20
87.3334
 11
-18.8505
 21
86.4492
  0
LINE
  8
0
 10
-18.8505
 20
86.4492
 11
-18.6001
 21
86.8644
  0
LINE
  8
0
 10
-18.6001
 20
86.8644
 11
-15.9467
 21
87.1798
  0
LINE
  8
0
 10
-15.9467
 20
87.1798
 11
-17.3099
 21
89.0033
  0
LINE
  8
0
 10
-17.3099
 20
89.0033
 11
-14.7347
 21
93.2729
  0
LINE
  8
0
 10
-14.7347
 20
93.2729
 11
-18.0222
 21
100.532
  0
LINE
  8
0
 10
-18.0222
 20
100.532
 11
-10.2608
 21
98.7253
  0
LINE
  8
0
 10
-10.2608
 20
98.7253
 11
-7.92755
 21
100.854
  0
LINE
  8
0
 10
-7.92755
 20
100.854
 11
-7.47871
 21
100.708
  0
LINE
  8
0
 10
-7.47871
 20
100.708
 11
-6.04134
 21
100.391
  0
LINE
  8
0
 10
-6.04134
 20
100.391
 11
-4.57947
 21
100.217
  0
LINE
  8
0
 10
-4.57947
 20
100.217
 11
-4.03976
 21
100.206
  0
LINE
  8
0
 10
-4.03976
 20
100.206
 11
-3.69255
 21
96.1561
  0
LINE
  8
0
 10
-3.69255
 20
96.1561
 11
3.23387
 21
92.2159
  0
LINE
  8
0
 10
3.23387
 20
92.2159
 11
-4.1066
 21
89.1148
  0
LINE
  8
0
 10
-4.1066
 20
89.1148
 11
-5.71381
 21
81.3094
  0
LINE
  8
0
 10
-5.71381
 20
81.3094
 11
-10.9309
 21
87.3334
  0
LINE
  8
0
 10
12.9131
 20
97.9498
 11
23.6533
 21
80.1563
  0
LINE
  8
0
 10
23.6533
 20
80.1563
 11
2.87292
 21
79.7517
  0
LINE
  8
0
 10
2.87292
 20
79.7517
 11
12.9131
 21
97.9498
  0
LINE
  8
0
 10
29.1799
 20
95.5434
 11
31.4199
 21
95.2928
  0
LINE
  8
0
 10
31.4199
 20
95.2928
 11
36.5934
 21
79.3705
  0
LINE
  8
0
 10
36.5934
 20
79.3705
 11
36.2753
 21
79.3163
  0
LINE
  8
0
 10
36.2753
 20
79.3163
 11
29.1799
 21
95.5434
  0
LINE
  8
0
 10
4.30115
 20
91.2255
 11
6.22879
 21
92.0399
  0
LINE
  8
0
 10
6.22879
 20
92.0399
 11
6.01593
 21
92.1609
  0
LINE
  8
0
 10
6.01593
 20
92.1609
 11
8.80074
 21
93.6011
  0
LINE
  8
0
 10
8.80074
 20
93.6011
 11
3.3577
 21
83.7354
  0
LINE
  8
0
 10
3.3577
 20
83.7354
 11
4.30115
 21
91.2255
  0
LINE
  8
0
 10
-2.21375
 20
88.4732
 11
2.88803
 21
90.6286
  0
LINE
  8
0
 10
2.88803
 20
90.6286
 11
2.08214
 21
84.23
  0
LINE
  8
0
 10
2.08214
 20
84.23
 11
-2.21375
 21
88.4732
  0
LINE
  8
0
 10
18.1306
 20
73.2288
 11
15.1687
 21
78.491
  0
LINE
  8
0
 10
15.1687
 20
78.491
 11
15.702
 21
78.5013
  0
LINE
  8
0
 10
15.702
 20
78.5013
 11
21.2508
 21
76.6517
  0
LINE
  8
0
 10
21.2508
 20
76.6517
 11
22.7168
 21
78.6379
  0
LINE
  8
0
 10
22.7168
 20
78.6379
 11
26.28
 21
78.7073
  0
LINE
  8
0
 10
26.28
 20
78.7073
 11
24.7
 21
81.3248
  0
LINE
  8
0
 10
24.7
 20
81.3248
 11
30.3896
 21
89.0326
  0
LINE
  8
0
 10
30.3896
 20
89.0326
 11
34.1224
 21
80.496
  0
LINE
  8
0
 10
34.1224
 20
80.496
 11
30.0732
 21
78.0646
  0
LINE
  8
0
 10
30.0732
 20
78.0646
 11
30.0538
 21
78.176
  0
LINE
  8
0
 10
30.0538
 20
78.176
 11
30.9386
 21
85.9617
  0
LINE
  8
0
 10
30.9386
 20
85.9617
 11
29.2236
 21
87.4531
  0
LINE
  8
0
 10
29.2236
 20
87.4531
 11
26.3901
 21
83.6143
  0
LINE
  8
0
 10
26.3901
 20
83.6143
 11
27.5375
 21
84.8615
  0
LINE
  8
0
 10
27.5375
 20
84.8615
 11
28.9094
 21
77.0113
  0
LINE
  8
0
 10
28.9094
 20
77.0113
 11
28.9845
 21
76.9769
  0
LINE
  8
0
 10
28.9845
 20
76.9769
 11
26.7254
 21
75.0275
  0
LINE
  8
0
 10
26.7254
 20
75.0275
 11
19.5371
 21
77.0804
  0
LINE
  8
0
 10
19.5371
 20
77.0804
 11
20.6607
 21
72.5954
  0
LINE
  8
0
 10
20.6607
 20
72.5954
 11
18.1306
 21
73.2288
  0
LINE
  8
0
 10
4.67377
 20
76.99
 11
6.01891
 21
78.3127
  0
LINE
  8
0
 10
6.01891
 20
78.3127
 11
3.83629
 21
78.2701
  0
LINE
  8
0
 10
3.83629
 20
78.2701
 11
3.02811
 21
77.4752
  0
LINE
  8
0
 10
3.02811
 20
77.4752
 11
2.28333
 21
77.6949
  0
LINE
  8
0
 10
2.28333
 20
77.6949
 11
2.7491
 21
78.2491
  0
LINE
  8
0
 10
2.7491
 20
78.2491
 11
0.986023
 21
78.2147
  0
LINE
  8
0
 10
0.986023
 20
78.2147
 11
0.893555
 21
78.1046
  0
LINE
  8
0
 10
0.893555
 20
78.1046
 11
-2.09679
 21
78.9865
  0
LINE
  8
0
 10
-2.09679
 20
78.9865
 11
-3.04161
 21
83.2529
  0
LINE
  8
0
 10
-3.04161
 20
83.2529
 11
-3.88756
 21
83.5955
  0
LINE
  8
0
 10
-3.88756
 20
83.5955
 11
-4.1716
 21
82.2156
  0
LINE
  8
0
 10
-4.1716
 20
82.2156
 11
-3.55156
 21
79.4157
  0
LINE
  8
0
 10
-3.55156
 20
79.4157
 11
-4.67972
 21
79.7482
  0
LINE
  8
0
 10
-4.67972
 20
79.7482
 11
-3.08945
 21
87.4718
  0
LINE
  8
0
 10
-3.08945
 20
87.4718
 11
2.41791
 21
82.032
  0
LINE
  8
0
 10
2.41791
 20
82.032
 11
0.341034
 21
78.2676
  0
LINE
  8
0
 10
0.341034
 20
78.2676
 11
0.549316
 21
78.2063
  0
LINE
  8
0
 10
0.549316
 20
78.2063
 11
9.62517
 21
78.3829
  0
LINE
  8
0
 10
9.62517
 20
78.3829
 11
7.86232
 21
76.0495
  0
LINE
  8
0
 10
7.86232
 20
76.0495
 11
4.67377
 21
76.99
  0
LINE
  8
0
 10
-26.0152
 20
79.8792
 11
-33.8097
 21
81.5367
  0
LINE
  8
0
 10
-33.8097
 20
81.5367
 11
-33.3492
 21
81.9304
  0
LINE
  8
0
 10
-33.3492
 20
81.9304
 11
-27.3663
 21
85.8221
  0
LINE
  8
0
 10
-27.3663
 20
85.8221
 11
-26.2866
 21
85.9505
  0
LINE
  8
0
 10
-26.2866
 20
85.9505
 11
-25.3004
 21
83.3053
  0
LINE
  8
0
 10
-25.3004
 20
83.3053
 11
-23.4295
 21
86.2901
  0
LINE
  8
0
 10
-23.4295
 20
86.2901
 11
-20.2705
 21
86.6657
  0
LINE
  8
0
 10
-20.2705
 20
86.6657
 11
-21.3769
 21
84.8315
  0
LINE
  8
0
 10
-21.3769
 20
84.8315
 11
-15.8899
 21
85.444
  0
LINE
  8
0
 10
-15.8899
 20
85.444
 11
-12.9607
 21
82.1904
  0
LINE
  8
0
 10
-12.9607
 20
82.1904
 11
-10.5281
 21
81.4731
  0
LINE
  8
0
 10
-10.5281
 20
81.4731
 11
-14.2664
 21
85.6252
  0
LINE
  8
0
 10
-14.2664
 20
85.6252
 11
-12.8313
 21
85.7854
  0
LINE
  8
0
 10
-12.8313
 20
85.7854
 11
-10.5441
 21
84.8589
  0
LINE
  8
0
 10
-10.5441
 20
84.8589
 11
-7.27844
 21
81.0881
  0
LINE
  8
0
 10
-7.27844
 20
81.0881
 11
-7.30568
 21
80.5228
  0
LINE
  8
0
 10
-7.30568
 20
80.5228
 11
-15.4353
 21
82.9201
  0
LINE
  8
0
 10
-15.4353
 20
82.9201
 11
-14.6727
 21
79.7608
  0
LINE
  8
0
 10
-14.6727
 20
79.7608
 11
-18.9768
 21
79.42
  0
LINE
  8
0
 10
-18.9768
 20
79.42
 11
-22.961
 21
72.5188
  0
LINE
  8
0
 10
-22.961
 20
72.5188
 11
-26.0152
 21
79.8792
  0
LINE
  8
0
 10
28.6759
 20
86.0594
 11
28.8414
 21
86.026
  0
LINE
  8
0
 10
28.8414
 20
86.026
 11
29.5409
 21
85.4179
  0
LINE
  8
0
 10
29.5409
 20
85.4179
 11
29.2442
 21
82.8075
  0
LINE
  8
0
 10
29.2442
 20
82.8075
 11
28.6759
 21
86.0594
  0
LINE
  8
0
 10
-34.7837
 20
84.9403
 11
-30.7327
 21
85.422
  0
LINE
  8
0
 10
-30.7327
 20
85.422
 11
-35.6709
 21
82.2097
  0
LINE
  8
0
 10
-35.6709
 20
82.2097
 11
-34.7837
 21
84.9403
  0
LINE
  8
0
 10
-8.62679
 20
61.1065
 11
-8.74237
 21
61.2988
  0
LINE
  8
0
 10
-8.74237
 20
61.2988
 11
-8.68835
 21
61.361
  0
LINE
  8
0
 10
-8.68835
 20
61.361
 11
-13.3676
 21
80.7464
  0
LINE
  8
0
 10
-13.3676
 20
80.7464
 11
6.56776
 21
74.8676
  0
LINE
  8
0
 10
6.56776
 20
74.8676
 11
5.22629
 21
73.5915
  0
LINE
  8
0
 10
5.22629
 20
73.5915
 11
2.82211
 21
74.611
  0
LINE
  8
0
 10
2.82211
 20
74.611
 11
-8.74237
 21
61.2988
  0
LINE
  8
0
 10
-8.74237
 20
61.2988
 11
-8.36151
 21
60.6652
  0
LINE
  8
0
 10
-8.36151
 20
60.6652
 11
-8.4906
 21
60.5423
  0
LINE
  8
0
 10
-8.4906
 20
60.5423
 11
-8.62679
 21
61.1065
  0
LINE
  8
0
 10
-38.0571
 20
74.8659
 11
-36.4081
 21
79.9408
  0
LINE
  8
0
 10
-36.4081
 20
79.9408
 11
-35.4916
 21
80.537
  0
LINE
  8
0
 10
-35.4916
 20
80.537
 11
-34.747
 21
80.3786
  0
LINE
  8
0
 10
-34.747
 20
80.3786
 11
-29.3088
 21
73.841
  0
LINE
  8
0
 10
-29.3088
 20
73.841
 11
-30.7631
 21
71.5355
  0
LINE
  8
0
 10
-30.7631
 20
71.5355
 11
-28.5354
 21
70.5183
  0
LINE
  8
0
 10
-28.5354
 20
70.5183
 11
-26.5237
 21
73.7074
  0
LINE
  8
0
 10
-26.5237
 20
73.7074
 11
-22.6822
 21
67.8457
  0
LINE
  8
0
 10
-22.6822
 20
67.8457
 11
-38.0571
 21
74.8659
  0
LINE
  8
0
 10
-30.9116
 20
79.5631
 11
-30.2724
 21
79.4271
  0
LINE
  8
0
 10
-30.2724
 20
79.4271
 11
-28.3184
 21
76.4457
  0
LINE
  8
0
 10
-28.3184
 20
76.4457
 11
-30.9116
 21
79.5631
  0
LINE
  8
0
 10
34.0826
 20
78.9233
 11
34.0443
 21
78.7631
  0
LINE
  8
0
 10
34.0443
 20
78.7631
 11
33.4158
 21
78.5228
  0
LINE
  8
0
 10
33.4158
 20
78.5228
 11
34.0826
 21
78.9233
  0
LINE
  8
0
 10
8.12004
 20
72.3645
 11
12.7123
 21
78.4429
  0
LINE
  8
0
 10
12.7123
 20
78.4429
 11
13.6615
 21
78.4615
  0
LINE
  8
0
 10
13.6615
 20
78.4615
 11
16.357
 21
73.6728
  0
LINE
  8
0
 10
16.357
 20
73.6728
 11
17.7197
 21
73.3316
  0
LINE
  8
0
 10
17.7197
 20
73.3316
 11
11.4194
 21
74.9088
  0
LINE
  8
0
 10
11.4194
 20
74.9088
 11
9.46838
 21
71.7928
  0
LINE
  8
0
 10
9.46838
 20
71.7928
 11
8.12004
 21
72.3645
  0
LINE
  8
0
 10
-22.0908
 20
71.3712
 11
-18.1762
 21
78.1518
  0
LINE
  8
0
 10
-18.1762
 20
78.1518
 11
-14.3573
 21
78.4541
  0
LINE
  8
0
 10
-14.3573
 20
78.4541
 11
-12.8844
 21
72.3524
  0
LINE
  8
0
 10
-12.8844
 20
72.3524
 11
-21.2414
 21
70.0752
  0
LINE
  8
0
 10
-21.2414
 20
70.0752
 11
-22.0908
 21
71.3712
  0
LINE
  8
0
 10
31.1504
 20
73.7639
 11
31.9512
 21
74.3853
  0
LINE
  8
0
 10
31.9512
 20
74.3853
 11
32.948
 21
75.0124
  0
LINE
  8
0
 10
32.948
 20
75.0124
 11
34.0013
 21
75.5389
  0
LINE
  8
0
 10
34.0013
 20
75.5389
 11
35.1013
 21
75.9593
  0
LINE
  8
0
 10
35.1013
 20
75.9593
 11
36.2373
 21
76.2701
  0
LINE
  8
0
 10
36.2373
 20
76.2701
 11
37.3981
 21
76.4681
  0
LINE
  8
0
 10
37.3981
 20
76.4681
 11
37.5333
 21
76.4777
  0
LINE
  8
0
 10
37.5333
 20
76.4777
 11
39.1581
 21
71.4771
  0
LINE
  8
0
 10
39.1581
 20
71.4771
 11
31.1504
 21
73.7639
  0
LINE
  8
0
 10
21.6236
 20
74.9245
 11
39.7168
 21
69.7578
  0
LINE
  8
0
 10
39.7168
 20
69.7578
 11
40.3031
 21
67.9533
  0
LINE
  8
0
 10
40.3031
 20
67.9533
 11
26.6743
 21
54.763
  0
LINE
  8
0
 10
26.6743
 20
54.763
 11
21.6236
 21
74.9245
  0
LINE
  8
0
 10
-45.2816
 20
52.6309
 11
-45.1032
 21
52.7619
  0
LINE
  8
0
 10
-45.1032
 20
52.7619
 11
-44.008
 21
53.7454
  0
LINE
  8
0
 10
-44.008
 20
53.7454
 11
-43.0147
 21
54.8317
  0
LINE
  8
0
 10
-43.0147
 20
54.8317
 11
-42.1323
 21
56.01
  0
LINE
  8
0
 10
-42.1323
 20
56.01
 11
-41.3697
 21
57.2691
  0
LINE
  8
0
 10
-41.3697
 20
57.2691
 11
-40.7343
 21
58.5968
  0
LINE
  8
0
 10
-40.7343
 20
58.5968
 11
-40.2322
 21
59.9806
  0
LINE
  8
0
 10
-40.2322
 20
59.9806
 11
-39.868
 21
61.4068
  0
LINE
  8
0
 10
-39.868
 20
61.4068
 11
-39.6453
 21
62.862
  0
LINE
  8
0
 10
-39.6453
 20
62.862
 11
-39.5663
 21
64.3319
  0
LINE
  8
0
 10
-39.5663
 20
64.3319
 11
-39.6318
 21
65.8025
  0
LINE
  8
0
 10
-39.6318
 20
65.8025
 11
-39.8412
 21
67.2595
  0
LINE
  8
0
 10
-39.8412
 20
67.2595
 11
-40.1371
 21
68.4642
  0
LINE
  8
0
 10
-40.1371
 20
68.4642
 11
-38.5236
 21
73.43
  0
LINE
  8
0
 10
-38.5236
 20
73.43
 11
-24.4839
 21
67.0194
  0
LINE
  8
0
 10
-24.4839
 20
67.0194
 11
-41.4141
 21
54.9626
  0
LINE
  8
0
 10
-41.4141
 20
54.9626
 11
-41.5984
 21
56.8914
  0
LINE
  8
0
 10
-41.5984
 20
56.8914
 11
-42.1323
 21
56.01
  0
LINE
  8
0
 10
-42.1323
 20
56.01
 11
-42.9204
 21
54.9576
  0
LINE
  8
0
 10
-42.9204
 20
54.9576
 11
-42.7057
 21
52.7109
  0
LINE
  8
0
 10
-42.7057
 20
52.7109
 11
-45.6453
 21
51.5115
  0
LINE
  8
0
 10
-45.6453
 20
51.5115
 11
-45.2816
 21
52.6309
  0
LINE
  8
0
 10
22.1629
 20
58.8161
 11
18.2506
 21
58.4885
  0
LINE
  8
0
 10
18.2506
 20
58.4885
 11
19.0558
 21
67.7271
  0
LINE
  8
0
 10
19.0558
 20
67.7271
 11
16.943
 21
68.623
  0
LINE
  8
0
 10
16.943
 20
68.623
 11
15.4379
 21
72.2059
  0
LINE
  8
0
 10
15.4379
 20
72.2059
 11
21.132
 21
70.7136
  0
LINE
  8
0
 10
21.132
 20
70.7136
 11
24.9715
 21
55.3874
  0
LINE
  8
0
 10
24.9715
 20
55.3874
 11
22.1629
 21
58.8161
  0
LINE
  8
0
 10
11.7311
 20
70.8333
 11
12.5407
 21
72.126
  0
LINE
  8
0
 10
12.5407
 20
72.126
 11
14.2067
 21
71.709
  0
LINE
  8
0
 10
14.2067
 20
71.709
 11
15.1909
 21
69.3661
  0
LINE
  8
0
 10
15.1909
 20
69.3661
 11
11.7311
 21
70.8333
  0
LINE
  8
0
 10
-5.75363
 20
61.0383
 11
3.49777
 21
71.6882
  0
LINE
  8
0
 10
3.49777
 20
71.6882
 11
16.4848
 21
66.181
  0
LINE
  8
0
 10
16.4848
 20
66.181
 11
15.2598
 21
52.127
  0
LINE
  8
0
 10
15.2598
 20
52.127
 11
1.51497
 21
48.949
  0
LINE
  8
0
 10
1.51497
 20
48.949
 11
-5.75363
 21
61.0383
  0
LINE
  8
0
 10
-12.7441
 20
52.986
 11
-20.7111
 21
53.1515
  0
LINE
  8
0
 10
-20.7111
 20
53.1515
 11
-15.7336
 21
59.3743
  0
LINE
  8
0
 10
-15.7336
 20
59.3743
 11
-18.0373
 21
67.0029
  0
LINE
  8
0
 10
-18.0373
 20
67.0029
 11
-10.9479
 21
64.3294
  0
LINE
  8
0
 10
-10.9479
 20
64.3294
 11
-11.3246
 21
65.8901
  0
LINE
  8
0
 10
-11.3246
 20
65.8901
 11
-18.0542
 21
68.428
  0
LINE
  8
0
 10
-18.0542
 20
68.428
 11
-12.3148
 21
69.9919
  0
LINE
  8
0
 10
-12.3148
 20
69.9919
 11
-9.33907
 21
57.6648
  0
LINE
  8
0
 10
-9.33907
 20
57.6648
 11
-7.56958
 21
59.3482
  0
LINE
  8
0
 10
-7.56958
 20
59.3482
 11
-4.47578
 21
54.2025
  0
LINE
  8
0
 10
-4.47578
 20
54.2025
 11
-5.74471
 21
53.8544
  0
LINE
  8
0
 10
-5.74471
 20
53.8544
 11
-8.36472
 21
46.3283
  0
LINE
  8
0
 10
-8.36472
 20
46.3283
 11
-12.7441
 21
52.986
  0
LINE
  8
0
 10
-11.3983
 20
45.1868
 11
-24.8135
 21
56.6325
  0
LINE
  8
0
 10
-24.8135
 20
56.6325
 11
-38.5334
 21
48.2143
  0
LINE
  8
0
 10
-38.5334
 20
48.2143
 11
-37.7712
 21
52.7896
  0
LINE
  8
0
 10
-37.7712
 20
52.7896
 11
-35.3307
 21
50.1794
  0
LINE
  8
0
 10
-35.3307
 20
50.1794
 11
-34.1757
 21
50.8881
  0
LINE
  8
0
 10
-34.1757
 20
50.8881
 11
-38.3221
 21
55.3231
  0
LINE
  8
0
 10
-38.3221
 20
55.3231
 11
-36.1143
 21
56.8955
  0
LINE
  8
0
 10
-36.1143
 20
56.8955
 11
-34.8512
 21
55.9155
  0
LINE
  8
0
 10
-34.8512
 20
55.9155
 11
-37.7646
 21
54.7269
  0
LINE
  8
0
 10
-37.7646
 20
54.7269
 11
-36.6682
 21
53.5541
  0
LINE
  8
0
 10
-36.6682
 20
53.5541
 11
-31.8791
 21
55.508
  0
LINE
  8
0
 10
-31.8791
 20
55.508
 11
-34.8386
 21
57.804
  0
LINE
  8
0
 10
-34.8386
 20
57.804
 11
-21.4977
 21
67.3048
  0
LINE
  8
0
 10
-21.4977
 20
67.3048
 11
-21.7513
 21
67.4207
  0
LINE
  8
0
 10
-21.7513
 20
67.4207
 11
-19.7179
 21
67.9748
  0
LINE
  8
0
 10
-19.7179
 20
67.9748
 11
-17.2064
 21
59.6588
  0
LINE
  8
0
 10
-17.2064
 20
59.6588
 11
-21.1114
 21
54.7768
  0
LINE
  8
0
 10
-21.1114
 20
54.7768
 11
-22.6703
 21
54.804
  0
LINE
  8
0
 10
-22.6703
 20
54.804
 11
-19.1389
 21
51.791
  0
LINE
  8
0
 10
-19.1389
 20
51.791
 11
-13.4695
 21
51.6734
  0
LINE
  8
0
 10
-13.4695
 20
51.6734
 11
-7.9953
 21
43.351
  0
LINE
  8
0
 10
-7.9953
 20
43.351
 11
-4.72023
 21
52.7587
  0
LINE
  8
0
 10
-4.72023
 20
52.7587
 11
-3.76511
 21
53.0208
  0
LINE
  8
0
 10
-3.76511
 20
53.0208
 11
-2.16248
 21
50.3552
  0
LINE
  8
0
 10
-2.16248
 20
50.3552
 11
-2.46712
 21
49.8208
  0
LINE
  8
0
 10
-2.46712
 20
49.8208
 11
-3.06747
 21
48.4768
  0
LINE
  8
0
 10
-3.06747
 20
48.4768
 11
-3.53302
 21
47.0804
  0
LINE
  8
0
 10
-3.53302
 20
47.0804
 11
-3.85963
 21
45.6451
  0
LINE
  8
0
 10
-3.85963
 20
45.6451
 11
-4.04388
 21
44.1846
  0
LINE
  8
0
 10
-4.04388
 20
44.1846
 11
-4.08417
 21
42.7131
  0
LINE
  8
0
 10
-4.08417
 20
42.7131
 11
-4.04114
 21
42.1077
  0
LINE
  8
0
 10
-4.04114
 20
42.1077
 11
-4.30183
 21
41.4075
  0
LINE
  8
0
 10
-4.30183
 20
41.4075
 11
-6.34506
 21
48.0911
  0
LINE
  8
0
 10
-6.34506
 20
48.0911
 11
-7.69638
 21
44.2095
  0
LINE
  8
0
 10
-7.69638
 20
44.2095
 11
-6.00197
 21
38.6676
  0
LINE
  8
0
 10
-6.00197
 20
38.6676
 11
-17.3936
 21
30.6913
  0
LINE
  8
0
 10
-17.3936
 20
30.6913
 11
-11.3983
 21
45.1868
  0
LINE
  8
0
 10
37.9145
 20
52.5893
 11
36.7461
 21
52.7367
  0
LINE
  8
0
 10
36.7461
 20
52.7367
 11
35.598
 21
52.9981
  0
LINE
  8
0
 10
35.598
 20
52.9981
 11
34.4808
 21
53.371
  0
LINE
  8
0
 10
34.4808
 20
53.371
 11
33.4055
 21
53.8512
  0
LINE
  8
0
 10
33.4055
 20
53.8512
 11
32.3827
 21
54.4346
  0
LINE
  8
0
 10
32.3827
 20
54.4346
 11
31.4218
 21
55.1155
  0
LINE
  8
0
 10
31.4218
 20
55.1155
 11
30.5324
 21
55.8873
  0
LINE
  8
0
 10
30.5324
 20
55.8873
 11
30.2744
 21
56.1599
  0
LINE
  8
0
 10
30.2744
 20
56.1599
 11
40.8191
 21
66.3652
  0
LINE
  8
0
 10
40.8191
 20
66.3652
 11
44.7905
 21
54.1425
  0
LINE
  8
0
 10
44.7905
 20
54.1425
 11
44.7164
 21
54.0958
  0
LINE
  8
0
 10
44.7164
 20
54.0958
 11
43.6631
 21
53.5694
  0
LINE
  8
0
 10
43.6631
 20
53.5694
 11
42.5631
 21
53.149
  0
LINE
  8
0
 10
42.5631
 20
53.149
 11
41.4272
 21
52.8381
  0
LINE
  8
0
 10
41.4272
 20
52.8381
 11
40.2663
 21
52.6402
  0
LINE
  8
0
 10
40.2663
 20
52.6402
 11
39.0916
 21
52.5568
  0
LINE
  8
0
 10
39.0916
 20
52.5568
 11
37.9145
 21
52.5893
  0
LINE
  8
0
 10
22.2977
 20
52.8043
 11
21.2858
 21
53.8734
  0
LINE
  8
0
 10
21.2858
 20
53.8734
 11
20.1739
 21
54.8379
  0
LINE
  8
0
 10
20.1739
 20
54.8379
 11
18.9727
 21
55.6889
  0
LINE
  8
0
 10
18.9727
 20
55.6889
 11
18.0524
 21
56.2137
  0
LINE
  8
0
 10
18.0524
 20
56.2137
 11
18.1336
 21
57.1464
  0
LINE
  8
0
 10
18.1336
 20
57.1464
 11
21.5783
 21
57.4348
  0
LINE
  8
0
 10
21.5783
 20
57.4348
 11
24.7018
 21
53.6218
  0
LINE
  8
0
 10
24.7018
 20
53.6218
 11
22.3872
 21
52.6889
  0
LINE
  8
0
 10
22.3872
 20
52.6889
 11
22.2977
 21
52.8043
  0
LINE
  8
0
 10
-38.7449
 20
55.0221
 11
-38.8692
 21
54.2762
  0
LINE
  8
0
 10
-38.8692
 20
54.2762
 11
-41.031
 21
53.3941
  0
LINE
  8
0
 10
-41.031
 20
53.3941
 11
-38.7449
 21
55.0221
  0
LINE
  8
0
 10
-25.862
 20
31.93
 11
-29.4743
 21
36.187
  0
LINE
  8
0
 10
-29.4743
 20
36.187
 11
-34.181
 21
34.2548
  0
LINE
  8
0
 10
-34.181
 20
34.2548
 11
-37.0708
 21
46.2642
  0
LINE
  8
0
 10
-37.0708
 20
46.2642
 11
-25.0472
 21
53.6415
  0
LINE
  8
0
 10
-25.0472
 20
53.6415
 11
-14.3152
 21
44.4851
  0
LINE
  8
0
 10
-14.3152
 20
44.4851
 11
-19.707
 21
31.4487
  0
LINE
  8
0
 10
-19.707
 20
31.4487
 11
-25.862
 21
31.93
  0
LINE
  8
0
 10
26.9637
 20
52.9558
 11
27.3786
 21
53.3572
  0
LINE
  8
0
 10
27.3786
 20
53.3572
 11
27.2129
 21
52.6514
  0
LINE
  8
0
 10
27.2129
 20
52.6514
 11
26.9637
 21
52.9558
  0
LINE
  8
0
 10
25.5567
 20
46.2841
 11
25.1681
 21
47.7039
  0
LINE
  8
0
 10
25.1681
 20
47.7039
 11
24.6423
 21
49.0788
  0
LINE
  8
0
 10
24.6423
 20
49.0788
 11
23.9841
 21
50.3955
  0
LINE
  8
0
 10
23.9841
 20
50.3955
 11
23.8234
 21
50.6509
  0
LINE
  8
0
 10
23.8234
 20
50.6509
 11
26.3134
 21
51.6544
  0
LINE
  8
0
 10
26.3134
 20
51.6544
 11
27.8909
 21
49.7288
  0
LINE
  8
0
 10
27.8909
 20
49.7288
 11
28.5546
 21
52.5578
  0
LINE
  8
0
 10
28.5546
 20
52.5578
 11
29.4035
 21
52.8997
  0
LINE
  8
0
 10
29.4035
 20
52.8997
 11
29.5692
 21
52.756
  0
LINE
  8
0
 10
29.5692
 20
52.756
 11
29.7329
 21
52.6399
  0
LINE
  8
0
 10
29.7329
 20
52.6399
 11
30.743
 21
47.8362
  0
LINE
  8
0
 10
30.743
 20
47.8362
 11
28.933
 21
47.3182
  0
LINE
  8
0
 10
28.933
 20
47.3182
 11
25.8037
 21
44.8376
  0
LINE
  8
0
 10
25.8037
 20
44.8376
 11
25.5567
 21
46.2841
  0
LINE
  8
0
 10
22.3746
 20
44.5158
 11
21.5126
 21
45.7092
  0
LINE
  8
0
 10
21.5126
 20
45.7092
 11
20.538
 21
46.8124
  0
LINE
  8
0
 10
20.538
 20
46.8124
 11
19.46
 21
47.8146
  0
LINE
  8
0
 10
19.46
 20
47.8146
 11
18.2888
 21
48.7064
  0
LINE
  8
0
 10
18.2888
 20
48.7064
 11
17.0357
 21
49.4791
  0
LINE
  8
0
 10
17.0357
 20
49.4791
 11
16.2474
 21
49.8643
  0
LINE
  8
0
 10
16.2474
 20
49.8643
 11
17.5246
 21
50.1595
  0
LINE
  8
0
 10
17.5246
 20
50.1595
 11
17.7612
 21
52.8752
  0
LINE
  8
0
 10
17.7612
 20
52.8752
 11
18.3215
 21
52.4781
  0
LINE
  8
0
 10
18.3215
 20
52.4781
 11
19.211
 21
51.7063
  0
LINE
  8
0
 10
19.211
 20
51.7063
 11
20.0205
 21
50.8512
  0
LINE
  8
0
 10
20.0205
 20
50.8512
 11
20.7424
 21
49.9208
  0
LINE
  8
0
 10
20.7424
 20
49.9208
 11
21.3698
 21
48.924
  0
LINE
  8
0
 10
21.3698
 20
48.924
 11
21.8962
 21
47.8707
  0
LINE
  8
0
 10
21.8962
 20
47.8707
 11
22.3169
 21
46.7709
  0
LINE
  8
0
 10
22.3169
 20
46.7709
 11
22.6277
 21
45.635
  0
LINE
  8
0
 10
22.6277
 20
45.635
 11
22.8259
 21
44.4741
  0
LINE
  8
0
 10
22.8259
 20
44.4741
 11
22.8852
 21
43.6389
  0
LINE
  8
0
 10
22.8852
 20
43.6389
 11
22.3746
 21
44.5158
  0
LINE
  8
0
 10
-42.8091
 20
51.0487
 11
-39.1908
 21
52.525
  0
LINE
  8
0
 10
-39.1908
 20
52.525
 11
-39.1855
 21
52.3776
  0
LINE
  8
0
 10
-39.1855
 20
52.3776
 11
-40.2754
 21
45.836
  0
LINE
  8
0
 10
-40.2754
 20
45.836
 11
-40.9458
 21
45.5224
  0
LINE
  8
0
 10
-40.9458
 20
45.5224
 11
-42.8091
 21
51.0487
  0
LINE
  8
0
 10
32.5797
 20
50.8958
 11
32.5699
 21
50.9428
  0
LINE
  8
0
 10
32.5699
 20
50.9428
 11
32.6791
 21
50.894
  0
LINE
  8
0
 10
32.6791
 20
50.894
 11
32.5797
 21
50.8958
  0
LINE
  8
0
 10
36.0729
 20
48.4042
 11
41.3578
 21
48.3074
  0
LINE
  8
0
 10
41.3578
 20
48.3074
 11
41.9005
 21
49.8792
  0
LINE
  8
0
 10
41.9005
 20
49.8792
 11
42.076
 21
49.9091
  0
LINE
  8
0
 10
42.076
 20
49.9091
 11
43.4834
 21
50.2941
  0
LINE
  8
0
 10
43.4834
 20
50.2941
 11
42.7659
 21
49.025
  0
LINE
  8
0
 10
42.7659
 20
49.025
 11
42.464
 21
48.3424
  0
LINE
  8
0
 10
42.464
 20
48.3424
 11
38.4089
 21
46.4336
  0
LINE
  8
0
 10
38.4089
 20
46.4336
 11
36.0729
 21
48.4042
  0
LINE
  8
0
 10
-46.2521
 20
49.6441
 11
-45.0607
 21
50.1302
  0
LINE
  8
0
 10
-45.0607
 20
50.1302
 11
-43.1582
 21
44.4876
  0
LINE
  8
0
 10
-43.1582
 20
44.4876
 11
-45.9984
 21
43.1594
  0
LINE
  8
0
 10
-45.9984
 20
43.1594
 11
-48.3925
 21
43.0566
  0
LINE
  8
0
 10
-48.3925
 20
43.0566
 11
-46.2521
 21
49.6441
  0
LINE
  8
0
 10
45.7397
 20
48.1964
 11
46.0263
 21
48.7036
  0
LINE
  8
0
 10
46.0263
 20
48.7036
 11
46.1192
 21
48.8357
  0
LINE
  8
0
 10
46.1192
 20
48.8357
 11
45.7505
 21
48.1726
  0
LINE
  8
0
 10
45.7505
 20
48.1726
 11
45.7397
 21
48.1964
  0
LINE
  8
0
 10
16.3657
 20
29.4334
 11
13.626
 21
39.0105
  0
LINE
  8
0
 10
13.626
 20
39.0105
 11
7.69089
 21
31.0104
  0
LINE
  8
0
 10
7.69089
 20
31.0104
 11
-1.08604
 21
31.3223
  0
LINE
  8
0
 10
-1.08604
 20
31.3223
 11
-1.34537
 21
31.8888
  0
LINE
  8
0
 10
-1.34537
 20
31.8888
 11
-1.72806
 21
33.0025
  0
LINE
  8
0
 10
-1.72806
 20
33.0025
 11
-1.99974
 21
34.1483
  0
LINE
  8
0
 10
-1.99974
 20
34.1483
 11
-2.15767
 21
35.3154
  0
LINE
  8
0
 10
-2.15767
 20
35.3154
 11
-2.2007
 21
36.4923
  0
LINE
  8
0
 10
-2.2007
 20
36.4923
 11
-2.12791
 21
37.6676
  0
LINE
  8
0
 10
-2.12791
 20
37.6676
 11
-1.94046
 21
38.8303
  0
LINE
  8
0
 10
-1.94046
 20
38.8303
 11
-1.63994
 21
39.9688
  0
LINE
  8
0
 10
-1.63994
 20
39.9688
 11
-1.2291
 21
41.0725
  0
LINE
  8
0
 10
-1.2291
 20
41.0725
 11
-0.71228
 21
42.1306
  0
LINE
  8
0
 10
-0.71228
 20
42.1306
 11
-0.0940704
 21
43.1331
  0
LINE
  8
0
 10
-0.0940704
 20
43.1331
 11
0.619125
 21
44.0699
  0
LINE
  8
0
 10
0.619125
 20
44.0699
 11
1.4209
 21
44.9323
  0
LINE
  8
0
 10
1.4209
 20
44.9323
 11
2.30324
 21
45.7121
  0
LINE
  8
0
 10
2.30324
 20
45.7121
 11
3.2579
 21
46.4017
  0
LINE
  8
0
 10
3.2579
 20
46.4017
 11
4.27574
 21
46.9943
  0
LINE
  8
0
 10
4.27574
 20
46.9943
 11
4.72549
 21
47.2003
  0
LINE
  8
0
 10
4.72549
 20
47.2003
 11
9.59839
 21
48.3269
  0
LINE
  8
0
 10
9.59839
 20
48.3269
 11
9.94995
 21
48.3397
  0
LINE
  8
0
 10
9.94995
 20
48.3397
 11
11.1253
 21
48.2669
  0
LINE
  8
0
 10
11.1253
 20
48.2669
 11
12.2878
 21
48.0795
  0
LINE
  8
0
 10
12.2878
 20
48.0795
 11
13.4264
 21
47.7789
  0
LINE
  8
0
 10
13.4264
 20
47.7789
 11
14.5301
 21
47.3683
  0
LINE
  8
0
 10
14.5301
 20
47.3683
 11
15.5882
 21
46.8513
  0
LINE
  8
0
 10
15.5882
 20
46.8513
 11
16.5905
 21
46.2333
  0
LINE
  8
0
 10
16.5905
 20
46.2333
 11
17.5275
 21
45.5199
  0
LINE
  8
0
 10
17.5275
 20
45.5199
 11
18.39
 21
44.7179
  0
LINE
  8
0
 10
18.39
 20
44.7179
 11
19.1698
 21
43.8355
  0
LINE
  8
0
 10
19.1698
 20
43.8355
 11
19.8594
 21
42.8809
  0
LINE
  8
0
 10
19.8594
 20
42.8809
 11
20.452
 21
41.8633
  0
LINE
  8
0
 10
20.452
 20
41.8633
 11
20.942
 21
40.7923
  0
LINE
  8
0
 10
20.942
 20
40.7923
 11
21.3247
 21
39.6786
  0
LINE
  8
0
 10
21.3247
 20
39.6786
 11
21.5964
 21
38.5328
  0
LINE
  8
0
 10
21.5964
 20
38.5328
 11
21.7543
 21
37.3657
  0
LINE
  8
0
 10
21.7543
 20
37.3657
 11
21.7973
 21
36.189
  0
LINE
  8
0
 10
21.7973
 20
36.189
 11
21.7245
 21
35.0135
  0
LINE
  8
0
 10
21.7245
 20
35.0135
 11
21.5371
 21
33.851
  0
LINE
  8
0
 10
21.5371
 20
33.851
 11
21.2366
 21
32.7123
  0
LINE
  8
0
 10
21.2366
 20
32.7123
 11
20.8257
 21
31.6087
  0
LINE
  8
0
 10
20.8257
 20
31.6087
 11
20.3089
 21
30.5505
  0
LINE
  8
0
 10
20.3089
 20
30.5505
 11
19.6907
 21
29.5483
  0
LINE
  8
0
 10
19.6907
 20
29.5483
 11
18.9773
 21
28.6112
  0
LINE
  8
0
 10
18.9773
 20
28.6112
 11
18.9381
 21
28.5691
  0
LINE
  8
0
 10
18.9381
 20
28.5691
 11
21.7751
 21
27.6158
  0
LINE
  8
0
 10
21.7751
 20
27.6158
 11
16.3657
 21
29.4334
  0
LINE
  8
0
 10
31.7001
 20
36.1765
 11
30.7462
 21
37.2973
  0
LINE
  8
0
 10
30.7462
 20
37.2973
 11
29.6867
 21
38.3195
  0
LINE
  8
0
 10
29.6867
 20
38.3195
 11
28.5324
 21
39.2327
  0
LINE
  8
0
 10
28.5324
 20
39.2327
 11
27.2939
 21
40.0285
  0
LINE
  8
0
 10
27.2939
 20
40.0285
 11
25.9836
 21
40.6992
  0
LINE
  8
0
 10
25.9836
 20
40.6992
 11
24.6137
 21
41.2382
  0
LINE
  8
0
 10
24.6137
 20
41.2382
 11
24.2615
 21
41.3382
  0
LINE
  8
0
 10
24.2615
 20
41.3382
 11
28.867
 21
44.9889
  0
LINE
  8
0
 10
28.867
 20
44.9889
 11
33.9013
 21
46.4297
  0
LINE
  8
0
 10
33.9013
 20
46.4297
 11
37.2414
 21
43.6117
  0
LINE
  8
0
 10
37.2414
 20
43.6117
 11
36.5527
 21
39.4245
  0
LINE
  8
0
 10
36.5527
 20
39.4245
 11
31.8084
 21
36.0204
  0
LINE
  8
0
 10
31.8084
 20
36.0204
 11
31.7001
 21
36.1765
  0
LINE
  8
0
 10
32.9139
 20
29.4077
 11
44.9295
 21
46.367
  0
LINE
  8
0
 10
44.9295
 20
46.367
 11
53.0792
 21
28.6325
  0
LINE
  8
0
 10
53.0792
 20
28.6325
 11
53.4484
 21
27.4961
  0
LINE
  8
0
 10
53.4484
 20
27.4961
 11
32.9139
 21
29.4077
  0
LINE
  8
0
 10
40.8652
 20
44.9076
 11
41.4663
 21
45.1905
  0
LINE
  8
0
 10
41.4663
 20
45.1905
 11
41.3887
 21
44.844
  0
LINE
  8
0
 10
41.3887
 20
44.844
 11
41.2585
 21
43.7801
  0
LINE
  8
0
 10
41.2585
 20
43.7801
 11
41.0458
 21
43.4801
  0
LINE
  8
0
 10
41.0458
 20
43.4801
 11
40.8652
 21
44.9076
  0
LINE
  8
0
 10
-39.2283
 20
37.8777
 11
-46.2994
 21
41.5531
  0
LINE
  8
0
 10
-46.2994
 20
41.5531
 11
-39.229
 21
44.8598
  0
LINE
  8
0
 10
-39.229
 20
44.8598
 11
-36.4529
 21
33.3223
  0
LINE
  8
0
 10
-36.4529
 20
33.3223
 11
-38.5561
 21
32.459
  0
LINE
  8
0
 10
-38.5561
 20
32.459
 11
-39.2283
 21
37.8777
  0
LINE
  8
0
 10
38.7964
 20
41.9225
 11
38.8499
 21
41.4998
  0
LINE
  8
0
 10
38.8499
 20
41.4998
 11
38.7231
 21
41.4769
  0
LINE
  8
0
 10
38.7231
 20
41.4769
 11
38.7964
 21
41.9225
  0
LINE
  8
0
 10
-46.8031
 20
36.5051
 11
-49.2641
 21
40.3741
  0
LINE
  8
0
 10
-49.2641
 20
40.3741
 11
-48.924
 21
41.421
  0
LINE
  8
0
 10
-48.924
 20
41.421
 11
-45.1758
 21
39.4728
  0
LINE
  8
0
 10
-45.1758
 20
39.4728
 11
-46.8832
 21
38.2043
  0
LINE
  8
0
 10
-46.8832
 20
38.2043
 11
-40.3764
 21
36.3479
  0
LINE
  8
0
 10
-40.3764
 20
36.3479
 11
-40.3391
 21
36.0464
  0
LINE
  8
0
 10
-40.3391
 20
36.0464
 11
-46.8031
 21
36.5051
  0
LINE
  8
0
 10
32.4454
 20
35.9897
 11
38.54
 21
40.3629
  0
LINE
  8
0
 10
38.54
 20
40.3629
 11
38.581
 21
40.6115
  0
LINE
  8
0
 10
38.581
 20
40.6115
 11
38.863
 21
41.3975
  0
LINE
  8
0
 10
38.863
 20
41.3975
 11
38.9701
 21
40.5502
  0
LINE
  8
0
 10
38.9701
 20
40.5502
 11
38.1374
 21
39.3748
  0
LINE
  8
0
 10
38.1374
 20
39.3748
 11
38.475
 21
40.3162
  0
LINE
  8
0
 10
38.475
 20
40.3162
 11
36.329
 21
38.7763
  0
LINE
  8
0
 10
36.329
 20
38.7763
 11
34.9088
 21
34.818
  0
LINE
  8
0
 10
34.9088
 20
34.818
 11
34.888
 21
34.7885
  0
LINE
  8
0
 10
34.888
 20
34.7885
 11
32.4454
 21
35.9897
  0
LINE
  8
0
 10
49.0725
 20
40.9436
 11
49.0792
 21
40.9432
  0
LINE
  8
0
 10
49.0792
 20
40.9432
 11
49.0949
 21
40.8948
  0
LINE
  8
0
 10
49.0949
 20
40.8948
 11
49.0725
 21
40.9436
  0
LINE
  8
0
 10
-43.5759
 20
38.6413
 11
-43.932
 21
38.7429
  0
LINE
  8
0
 10
-43.932
 20
38.7429
 11
-43.8659
 21
38.7921
  0
LINE
  8
0
 10
-43.8659
 20
38.7921
 11
-40.4599
 21
37.0217
  0
LINE
  8
0
 10
-40.4599
 20
37.0217
 11
-43.5759
 21
38.6413
  0
LINE
  8
0
 10
18.2657
 20
15.1271
 11
17.4923
 21
15.2665
  0
LINE
  8
0
 10
17.4923
 20
15.2665
 11
17.5461
 21
20.6965
  0
LINE
  8
0
 10
17.5461
 20
20.6965
 11
25.8085
 21
26.2606
  0
LINE
  8
0
 10
25.8085
 20
26.2606
 11
21.9427
 21
27.5595
  0
LINE
  8
0
 10
21.9427
 20
27.5595
 11
22.164
 21
27.8502
  0
LINE
  8
0
 10
22.164
 20
27.8502
 11
22.9367
 21
29.1031
  0
LINE
  8
0
 10
22.9367
 20
29.1031
 11
23.5828
 21
30.4256
  0
LINE
  8
0
 10
23.5828
 20
30.4256
 11
24.0962
 21
31.8053
  0
LINE
  8
0
 10
24.0962
 20
31.8053
 11
24.4718
 21
33.2285
  0
LINE
  8
0
 10
24.4718
 20
33.2285
 11
24.7062
 21
34.6819
  0
LINE
  8
0
 10
24.7062
 20
34.6819
 11
24.7971
 21
36.151
  0
LINE
  8
0
 10
24.7971
 20
36.151
 11
24.7433
 21
37.6221
  0
LINE
  8
0
 10
24.7433
 20
37.6221
 11
24.6938
 21
37.9865
  0
LINE
  8
0
 10
24.6938
 20
37.9865
 11
24.7495
 21
37.9647
  0
LINE
  8
0
 10
24.7495
 20
37.9647
 11
25.798
 21
37.4282
  0
LINE
  8
0
 10
25.798
 20
37.4282
 11
26.7886
 21
36.7917
  0
LINE
  8
0
 10
26.7886
 20
36.7917
 11
27.7121
 21
36.0609
  0
LINE
  8
0
 10
27.7121
 20
36.0609
 11
28.5596
 21
35.2433
  0
LINE
  8
0
 10
28.5596
 20
35.2433
 11
29.3227
 21
34.3465
  0
LINE
  8
0
 10
29.3227
 20
34.3465
 11
29.9945
 21
33.3791
  0
LINE
  8
0
 10
29.9945
 20
33.3791
 11
30.5681
 21
32.3507
  0
LINE
  8
0
 10
30.5681
 20
32.3507
 11
31.0382
 21
31.2708
  0
LINE
  8
0
 10
31.0382
 20
31.2708
 11
31.4001
 21
30.1502
  0
LINE
  8
0
 10
31.4001
 20
30.1502
 11
31.4474
 21
29.9326
  0
LINE
  8
0
 10
31.4474
 20
29.9326
 11
33.579
 21
32.9412
  0
LINE
  8
0
 10
33.579
 20
32.9412
 11
33.2568
 21
33.6816
  0
LINE
  8
0
 10
33.2568
 20
33.6816
 11
32.5397
 21
34.9673
  0
LINE
  8
0
 10
32.5397
 20
34.9673
 11
31.9762
 21
35.7789
  0
LINE
  8
0
 10
31.9762
 20
35.7789
 11
34.6559
 21
34.4612
  0
LINE
  8
0
 10
34.6559
 20
34.4612
 11
30.1881
 21
28.1551
  0
LINE
  8
0
 10
30.1881
 20
28.1551
 11
53.9531
 21
25.9428
  0
LINE
  8
0
 10
53.9531
 20
25.9428
 11
55.123
 21
22.3422
  0
LINE
  8
0
 10
55.123
 20
22.3422
 11
38.5904
 21
17.976
  0
LINE
  8
0
 10
38.5904
 20
17.976
 11
41.0818
 21
27.1409
  0
LINE
  8
0
 10
41.0818
 20
27.1409
 11
36.9543
 21
27.5252
  0
LINE
  8
0
 10
36.9543
 20
27.5252
 11
35.5998
 21
25.9319
  0
LINE
  8
0
 10
35.5998
 20
25.9319
 11
34.7637
 21
26.0271
  0
LINE
  8
0
 10
34.7637
 20
26.0271
 11
34.8065
 21
26.5588
  0
LINE
  8
0
 10
34.8065
 20
26.5588
 11
34.7857
 21
27.7271
  0
LINE
  8
0
 10
34.7857
 20
27.7271
 11
31.7661
 21
28.0081
  0
LINE
  8
0
 10
31.7661
 20
28.0081
 11
31.7869
 21
27.8298
  0
LINE
  8
0
 10
31.7869
 20
27.8298
 11
31.8079
 21
26.6525
  0
LINE
  8
0
 10
31.8079
 20
26.6525
 11
31.7134
 21
25.4787
  0
LINE
  8
0
 10
31.7134
 20
25.4787
 11
31.5044
 21
24.3197
  0
LINE
  8
0
 10
31.5044
 20
24.3197
 11
31.1829
 21
23.187
  0
LINE
  8
0
 10
31.1829
 20
23.187
 11
30.7516
 21
22.0911
  0
LINE
  8
0
 10
30.7516
 20
22.0911
 11
30.2154
 21
21.0426
  0
LINE
  8
0
 10
30.2154
 20
21.0426
 11
29.5786
 21
20.052
  0
LINE
  8
0
 10
29.5786
 20
20.052
 11
28.848
 21
19.1284
  0
LINE
  8
0
 10
28.848
 20
19.1284
 11
28.0302
 21
18.2809
  0
LINE
  8
0
 10
28.0302
 20
18.2809
 11
27.1335
 21
17.5178
  0
LINE
  8
0
 10
27.1335
 20
17.5178
 11
26.1662
 21
16.846
  0
LINE
  8
0
 10
26.1662
 20
16.846
 11
25.1376
 21
16.2724
  0
LINE
  8
0
 10
25.1376
 20
16.2724
 11
24.058
 21
15.8023
  0
LINE
  8
0
 10
24.058
 20
15.8023
 11
22.9374
 21
15.4404
  0
LINE
  8
0
 10
22.9374
 20
15.4404
 11
21.7866
 21
15.19
  0
LINE
  8
0
 10
21.7866
 20
15.19
 11
20.617
 21
15.0536
  0
LINE
  8
0
 10
20.617
 20
15.0536
 11
19.4396
 21
15.0326
  0
LINE
  8
0
 10
19.4396
 20
15.0326
 11
18.2657
 21
15.1271
  0
LINE
  8
0
 10
-24.6943
 20
12
 11
-18.6774
 21
21.7484
  0
LINE
  8
0
 10
-18.6774
 20
21.7484
 11
-16.4495
 21
22.8201
  0
LINE
  8
0
 10
-16.4495
 20
22.8201
 11
-17.1364
 21
27.9086
  0
LINE
  8
0
 10
-17.1364
 20
27.9086
 11
-13.9812
 21
30.118
  0
LINE
  8
0
 10
-13.9812
 20
30.118
 11
-12.2635
 21
30.5963
  0
LINE
  8
0
 10
-12.2635
 20
30.5963
 11
-12.6945
 21
31.0188
  0
LINE
  8
0
 10
-12.6945
 20
31.0188
 11
-5.19104
 21
36.2726
  0
LINE
  8
0
 10
-5.19104
 20
36.2726
 11
-5.14664
 21
35.0591
  0
LINE
  8
0
 10
-5.14664
 20
35.0591
 11
-4.94911
 21
33.6004
  0
LINE
  8
0
 10
-4.94911
 20
33.6004
 11
-4.60945
 21
32.168
  0
LINE
  8
0
 10
-4.60945
 20
32.168
 11
-4.13109
 21
30.776
  0
LINE
  8
0
 10
-4.13109
 20
30.776
 11
-3.5186
 21
29.4375
  0
LINE
  8
0
 10
-3.5186
 20
29.4375
 11
-2.77794
 21
28.1654
  0
LINE
  8
0
 10
-2.77794
 20
28.1654
 11
-2.38106
 21
27.6158
  0
LINE
  8
0
 10
-2.38106
 20
27.6158
 11
-0.876709
 21
12
  0
LINE
  8
0
 10
-0.876709
 20
12
 11
-24.6943
 21
12
  0
LINE
  8
0
 10
9.86984
 20
18.3491
 11
2.26685
 21
15.9625
  0
LINE
  8
0
 10
2.26685
 20
15.9625
 11
4.99763
 21
23.4488
  0
LINE
  8
0
 10
4.99763
 20
23.4488
 11
0.377197
 21
29.9417
  0
LINE
  8
0
 10
0.377197
 20
29.9417
 11
8.34137
 21
29.6588
  0
LINE
  8
0
 10
8.34137
 20
29.6588
 11
13.0895
 21
36.0588
  0
LINE
  8
0
 10
13.0895
 20
36.0588
 11
15.2813
 21
28.3972
  0
LINE
  8
0
 10
15.2813
 20
28.3972
 11
22.8355
 21
25.8589
  0
LINE
  8
0
 10
22.8355
 20
25.8589
 11
16.2254
 21
21.4076
  0
LINE
  8
0
 10
16.2254
 20
21.4076
 11
16.1467
 21
13.4393
  0
LINE
  8
0
 10
16.1467
 20
13.4393
 11
9.86984
 21
18.3491
  0
LINE
  8
0
 10
-49.1043
 20
32.6807
 11
-51.6214
 21
33.1191
  0
LINE
  8
0
 10
-51.6214
 20
33.1191
 11
-50.8274
 21
35.5627
  0
LINE
  8
0
 10
-50.8274
 20
35.5627
 11
-46.0927
 21
29.958
  0
LINE
  8
0
 10
-46.0927
 20
29.958
 11
-48.4156
 21
27.8543
  0
LINE
  8
0
 10
-48.4156
 20
27.8543
 11
-48.0236
 21
25.1061
  0
LINE
  8
0
 10
-48.0236
 20
25.1061
 11
-49.1043
 21
32.6807
  0
LINE
  8
0
 10
-47.2
 20
35.0298
 11
-40.9797
 21
34.5882
  0
LINE
  8
0
 10
-40.9797
 20
34.5882
 11
-44.2928
 21
31.5878
  0
LINE
  8
0
 10
-44.2928
 20
31.5878
 11
-47.2
 21
35.0298
  0
LINE
  8
0
 10
-34.5827
 20
12
 11
-42.1717
 21
13.8479
  0
LINE
  8
0
 10
-42.1717
 20
13.8479
 11
-43.2333
 21
27.9152
  0
LINE
  8
0
 10
-43.2333
 20
27.9152
 11
-30.1838
 21
33.2722
  0
LINE
  8
0
 10
-30.1838
 20
33.2722
 11
-21.0562
 21
22.5154
  0
LINE
  8
0
 10
-21.0562
 20
22.5154
 11
-27.5465
 21
12
  0
LINE
  8
0
 10
-27.5465
 20
12
 11
-34.5827
 21
12
  0
LINE
  8
0
 10
-40.6769
 20
31.5883
 11
-40.2564
 21
31.9689
  0
LINE
  8
0
 10
-40.2564
 20
31.9689
 11
-40.0449
 21
31.8476
  0
LINE
  8
0
 10
-40.0449
 20
31.8476
 11
-45.7862
 21
29.4908
  0
LINE
  8
0
 10
-45.7862
 20
29.4908
 11
-40.6769
 21
31.5883
  0
LINE
  8
0
 10
-52.379
 20
30.7874
 11
-51.2579
 21
30.5922
  0
LINE
  8
0
 10
-51.2579
 20
30.5922
 11
-49.2654
 21
16.6261
  0
LINE
  8
0
 10
-49.2654
 20
16.6261
 11
-58.4423
 21
12.1265
  0
LINE
  8
0
 10
-58.4423
 20
12.1265
 11
-52.379
 21
30.7874
  0
LINE
  8
0
 10
-23.6492
 20
29.3224
 11
-22.6964
 21
29.2477
  0
LINE
  8
0
 10
-22.6964
 20
29.2477
 11
-23.416
 21
29.0475
  0
LINE
  8
0
 10
-23.416
 20
29.0475
 11
-23.6492
 21
29.3224
  0
LINE
  8
0
 10
-23.1668
 20
28.7538
 11
-22.3471
 21
27.7879
  0
LINE
  8
0
 10
-22.3471
 20
27.7879
 11
-19.6701
 21
28.5334
  0
LINE
  8
0
 10
-19.6701
 20
28.5334
 11
-19.0908
 21
24.2428
  0
LINE
  8
0
 10
-19.0908
 20
24.2428
 11
-19.267
 21
24.1581
  0
LINE
  8
0
 10
-19.267
 20
24.1581
 11
-18.0647
 21
22.7411
  0
LINE
  8
0
 10
-18.0647
 20
22.7411
 11
-23.1668
 21
28.7538
  0
LINE
  8
0
 10
-46.0031
 20
12
 11
-47.2984
 21
14.8875
  0
LINE
  8
0
 10
-47.2984
 20
14.8875
 11
-46.6136
 21
15.2232
  0
LINE
  8
0
 10
-46.6136
 20
15.2232
 11
-48.002
 21
24.9546
  0
LINE
  8
0
 10
-48.002
 20
24.9546
 11
-45.6075
 21
27.123
  0
LINE
  8
0
 10
-45.6075
 20
27.123
 11
-44.4659
 21
12
  0
LINE
  8
0
 10
-44.4659
 20
12
 11
-46.0031
 21
12
  0
LINE
  8
0
 10
-0.682526
 20
25.6282
 11
0.136414
 21
24.8667
  0
LINE
  8
0
 10
0.136414
 20
24.8667
 11
1.3076
 21
23.9748
  0
LINE
  8
0
 10
1.3076
 20
23.9748
 11
2.56073
 21
23.2023
  0
LINE
  8
0
 10
2.56073
 20
23.2023
 11
3.35335
 21
22.815
  0
LINE
  8
0
 10
3.35335
 20
22.815
 11
0.374908
 21
14.6492
  0
LINE
  8
0
 10
0.374908
 20
14.6492
 11
-0.682526
 21
25.6282
  0
LINE
  8
0
 10
36.0029
 20
23.6504
 11
37.3489
 21
23.4971
  0
LINE
  8
0
 10
37.3489
 20
23.4971
 11
39.0948
 21
25.5504
  0
LINE
  8
0
 10
39.0948
 20
25.5504
 11
38.1168
 21
21.9528
  0
LINE
  8
0
 10
38.1168
 20
21.9528
 11
37.2778
 21
21.4214
  0
LINE
  8
0
 10
37.2778
 20
21.4214
 11
36.0029
 21
23.6504
  0
LINE
  8
0
 10
34.0681
 20
22.3785
 11
34.3781
 21
23.4703
  0
LINE
  8
0
 10
34.3781
 20
23.4703
 11
35.0047
 21
22.3746
  0
LINE
  8
0
 10
35.0047
 20
22.3746
 11
34.0681
 21
22.3785
  0
LINE
  8
0
 10
36.2785
 20
20.8693
 11
36.4055
 21
20.8688
  0
LINE
  8
0
 10
36.4055
 20
20.8688
 11
36.3338
 21
20.8235
  0
LINE
  8
0
 10
36.3338
 20
20.8235
 11
36.2785
 21
20.8693
  0
LINE
  8
0
 10
24.4512
 20
12
 11
27.0074
 21
13.8843
  0
LINE
  8
0
 10
27.0074
 20
13.8843
 11
27.7542
 21
14.3008
  0
LINE
  8
0
 10
27.7542
 20
14.3008
 11
28.9634
 21
15.1404
  0
LINE
  8
0
 10
28.9634
 20
15.1404
 11
30.0845
 21
16.0946
  0
LINE
  8
0
 10
30.0845
 20
16.0946
 11
30.2782
 21
16.2954
  0
LINE
  8
0
 10
30.2782
 20
16.2954
 11
30.5592
 21
16.5025
  0
LINE
  8
0
 10
30.5592
 20
16.5025
 11
30.5383
 21
16.5649
  0
LINE
  8
0
 10
30.5383
 20
16.5649
 11
30.3375
 21
16.3568
  0
LINE
  8
0
 10
30.3375
 20
16.3568
 11
31.1064
 21
17.1539
  0
LINE
  8
0
 10
31.1064
 20
17.1539
 11
32.0199
 21
18.3083
  0
LINE
  8
0
 10
32.0199
 20
18.3083
 11
32.8157
 21
19.5466
  0
LINE
  8
0
 10
32.8157
 20
19.5466
 11
33.1895
 21
20.2774
  0
LINE
  8
0
 10
33.1895
 20
20.2774
 11
36.1425
 21
17.8297
  0
LINE
  8
0
 10
36.1425
 20
17.8297
 11
37.1736
 21
18.4827
  0
LINE
  8
0
 10
37.1736
 20
18.4827
 11
36.4613
 21
15.8623
  0
LINE
  8
0
 10
36.4613
 20
15.8623
 11
50.7703
 21
19.6413
  0
LINE
  8
0
 10
50.7703
 20
19.6413
 11
55.8282
 21
17.2729
  0
LINE
  8
0
 10
55.8282
 20
17.2729
 11
56.0987
 21
17.562
  0
LINE
  8
0
 10
56.0987
 20
17.562
 11
56.8182
 21
17.125
  0
LINE
  8
0
 10
56.8182
 20
17.125
 11
58.4834
 21
12
  0
LINE
  8
0
 10
58.4834
 20
12
 11
24.4512
 21
12
  0
LINE
  8
0
 10
12.2089
 20
12
 11
6.68243
 21
15.9568
  0
LINE
  8
0
 10
6.68243
 20
15.9568
 11
3.7841
 21
15.0472
  0
LINE
  8
0
 10
3.7841
 20
15.0472
 11
4.07246
 21
14.8408
  0
LINE
  8
0
 10
4.07246
 20
14.8408
 11
0.595322
 21
12.3602
  0
LINE
  8
0
 10
0.595322
 20
12.3602
 11
0.437622
 21
13.9969
  0
LINE
  8
0
 10
0.437622
 20
13.9969
 11
8.96667
 21
16.6739
  0
LINE
  8
0
 10
8.96667
 20
16.6739
 11
9.9408
 21
15.7341
  0
LINE
  8
0
 10
9.9408
 20
15.7341
 11
11.0953
 21
14.8206
  0
LINE
  8
0
 10
11.0953
 20
14.8206
 11
12.3338
 21
14.0248
  0
LINE
  8
0
 10
12.3338
 20
14.0248
 11
13.6441
 21
13.3544
  0
LINE
  8
0
 10
13.6441
 20
13.3544
 11
14.5612
 21
12.9937
  0
LINE
  8
0
 10
14.5612
 20
12.9937
 11
15.8316
 21
12
  0
LINE
  8
0
 10
15.8316
 20
12
 11
12.2089
 21
12
  0
LINE
  8
0
 10
17.4599
 20
12
 11
17.4886
 21
14.8875
  0
LINE
  8
0
 10
17.4886
 20
14.8875
 11
17.4623
 21
12.2272
  0
LINE
  8
0
 10
17.4623
 20
12.2272
 11
17.8786
 21
12.1521
  0
LINE
  8
0
 10
17.8786
 20
12.1521
 11
19.346
 21
12.034
  0
LINE
  8
0
 10
19.346
 20
12.034
 11
20.4337
 21
12.0535
  0
LINE
  8
0
 10
20.4337
 20
12.0535
 11
20.3611
 21
12
  0
LINE
  8
0
 10
20.3611
 20
12
 11
17.4599
 21
12
  0
LINE
  8
0
 10
2.67339
 20
12
 11
5.36156
 21
13.9177
  0
LINE
  8
0
 10
5.36156
 20
13.9177
 11
4.44362
 21
14.575
  0
LINE
  8
0
 10
4.44362
 20
14.575
 11
8.04004
 21
12
  0
LINE
  8
0
 10
8.04004
 20
12
 11
2.67339
 21
12
  0
LINE
  8
0
 10
-50.7085
 20
13.2155
 11
-49.479
 21
13.8184
  0
LINE
  8
0
 10
-49.479
 20
13.8184
 11
-49.1075
 21
12.9903
  0
LINE
  8
0
 10
-49.1075
 20
12.9903
 11
-49.1982
 21
12.844
  0
LINE
  8
0
 10
-49.1982
 20
12.844
 11
-50.7085
 21
13.2155
  0
LINE
  8
0
 10
-10
 20
7
 11
-10
 21
11
  0
LINE
  8
0
 10
-10
 20
11
 11
10
 21
11
  0
LINE
  8
0
 10
10
 20
11
 11
10
 21
7
  0
LINE
  8
0
 10
10
 20
7
 11
-10
 21
7
  0
LINE
  8
0
 10
-68.6534
 20
2.70622
 11
-68.7785
 21
2.71805
  0
LINE
  8
0
 10
-68.7785
 20
2.71805
 11
-68.9026
 21
2.7377
  0
LINE
  8
0
 10
-68.9026
 20
2.7377
 11
-69.0252
 21
2.76511
  0
LINE
  8
0
 10
-69.0252
 20
2.76511
 11
-69.1459
 21
2.80016
  0
LINE
  8
0
 10
-69.1459
 20
2.80016
 11
-69.2641
 21
2.84273
  0
LINE
  8
0
 10
-69.2641
 20
2.84273
 11
-69.3794
 21
2.89262
  0
LINE
  8
0
 10
-69.3794
 20
2.89262
 11
-69.4914
 21
2.94966
  0
LINE
  8
0
 10
-69.4914
 20
2.94966
 11
-69.5995
 21
3.01363
  0
LINE
  8
0
 10
-69.5995
 20
3.01363
 11
-69.7034
 21
3.08424
  0
LINE
  8
0
 10
-69.7034
 20
3.08424
 11
-69.8027
 21
3.16125
  0
LINE
  8
0
 10
-69.8027
 20
3.16125
 11
-69.897
 21
3.24434
  0
LINE
  8
0
 10
-69.897
 20
3.24434
 11
-69.9858
 21
3.33318
  0
LINE
  8
0
 10
-69.9858
 20
3.33318
 11
-70.0689
 21
3.42743
  0
LINE
  8
0
 10
-70.0689
 20
3.42743
 11
-70.1459
 21
3.5267
  0
LINE
  8
0
 10
-70.1459
 20
3.5267
 11
-70.2165
 21
3.63062
  0
LINE
  8
0
 10
-70.2165
 20
3.63062
 11
-70.2805
 21
3.73877
  0
LINE
  8
0
 10
-70.2805
 20
3.73877
 11
-70.3375
 21
3.85072
  0
LINE
  8
0
 10
-70.3375
 20
3.85072
 11
-70.3874
 21
3.96602
  0
LINE
  8
0
 10
-70.3874
 20
3.96602
 11
-70.43
 21
4.08424
  0
LINE
  8
0
 10
-70.43
 20
4.08424
 11
-70.465
 21
4.2049
  0
LINE
  8
0
 10
-70.465
 20
4.2049
 11
-70.4924
 21
4.32751
  0
LINE
  8
0
 10
-70.4924
 20
4.32751
 11
-70.5121
 21
4.45161
  0
LINE
  8
0
 10
-70.5121
 20
4.45161
 11
-70.5239
 21
4.57669
  0
LINE
  8
0
 10
-70.5239
 20
4.57669
 11
-70.5279
 21
4.70227
  0
LINE
  8
0
 10
-70.5279
 20
4.70227
 11
-70.5239
 21
4.82785
  0
LINE
  8
0
 10
-70.5239
 20
4.82785
 11
-70.5121
 21
4.95294
  0
LINE
  8
0
 10
-70.5121
 20
4.95294
 11
-70.4924
 21
5.07704
  0
LINE
  8
0
 10
-70.4924
 20
5.07704
 11
-70.465
 21
5.19966
  0
LINE
  8
0
 10
-70.465
 20
5.19966
 11
-70.43
 21
5.32031
  0
LINE
  8
0
 10
-70.43
 20
5.32031
 11
-70.3874
 21
5.43852
  0
LINE
  8
0
 10
-70.3874
 20
5.43852
 11
-70.3375
 21
5.55383
  0
LINE
  8
0
 10
-70.3375
 20
5.55383
 11
-70.2805
 21
5.66579
  0
LINE
  8
0
 10
-70.2805
 20
5.66579
 11
-70.2165
 21
5.77393
  0
LINE
  8
0
 10
-70.2165
 20
5.77393
 11
-70.1459
 21
5.87784
  0
LINE
  8
0
 10
-70.1459
 20
5.87784
 11
-70.0689
 21
5.97713
  0
LINE
  8
0
 10
-70.0689
 20
5.97713
 11
-69.9858
 21
6.07137
  0
LINE
  8
0
 10
-69.9858
 20
6.07137
 11
-69.897
 21
6.16022
  0
LINE
  8
0
 10
-69.897
 20
6.16022
 11
-69.8027
 21
6.2433
  0
LINE
  8
0
 10
-69.8027
 20
6.2433
 11
-69.7034
 21
6.32031
  0
LINE
  8
0
 10
-69.7034
 20
6.32031
 11
-69.5995
 21
6.39093
  0
LINE
  8
0
 10
-69.5995
 20
6.39093
 11
-69.4914
 21
6.4549
  0
LINE
  8
0
 10
-69.4914
 20
6.4549
 11
-69.3794
 21
6.51193
  0
LINE
  8
0
 10
-69.3794
 20
6.51193
 11
-69.2641
 21
6.56183
  0
LINE
  8
0
 10
-69.2641
 20
6.56183
 11
-69.1459
 21
6.60439
  0
LINE
  8
0
 10
-69.1459
 20
6.60439
 11
-69.0252
 21
6.63943
  0
LINE
  8
0
 10
-69.0252
 20
6.63943
 11
-68.9026
 21
6.66685
  0
LINE
  8
0
 10
-68.9026
 20
6.66685
 11
-68.7785
 21
6.68651
  0
LINE
  8
0
 10
-68.7785
 20
6.68651
 11
-68.6534
 21
6.69833
  0
LINE
  8
0
 10
-68.6534
 20
6.69833
 11
-68.5279
 21
6.70227
  0
LINE
  8
0
 10
-68.5279
 20
6.70227
 11
-68.4023
 21
6.69833
  0
LINE
  8
0
 10
-68.4023
 20
6.69833
 11
-68.2772
 21
6.68651
  0
LINE
  8
0
 10
-68.2772
 20
6.68651
 11
-68.1531
 21
6.66685
  0
LINE
  8
0
 10
-68.1531
 20
6.66685
 11
-68.0305
 21
6.63943
  0
LINE
  8
0
 10
-68.0305
 20
6.63943
 11
-67.9098
 21
6.60439
  0
LINE
  8
0
 10
-67.9098
 20
6.60439
 11
-67.7916
 21
6.56183
  0
LINE
  8
0
 10
-67.7916
 20
6.56183
 11
-67.6763
 21
6.51193
  0
LINE
  8
0
 10
-67.6763
 20
6.51193
 11
-67.5643
 21
6.4549
  0
LINE
  8
0
 10
-67.5643
 20
6.4549
 11
-67.4562
 21
6.39093
  0
LINE
  8
0
 10
-67.4562
 20
6.39093
 11
-67.3523
 21
6.32031
  0
LINE
  8
0
 10
-67.3523
 20
6.32031
 11
-67.253
 21
6.2433
  0
LINE
  8
0
 10
-67.253
 20
6.2433
 11
-67.1588
 21
6.16022
  0
LINE
  8
0
 10
-67.1588
 20
6.16022
 11
-67.0699
 21
6.07137
  0
LINE
  8
0
 10
-67.0699
 20
6.07137
 11
-66.9868
 21
5.97713
  0
LINE
  8
0
 10
-66.9868
 20
5.97713
 11
-66.9098
 21
5.87784
  0
LINE
  8
0
 10
-66.9098
 20
5.87784
 11
-66.8392
 21
5.77393
  0
LINE
  8
0
 10
-66.8392
 20
5.77393
 11
-66.7752
 21
5.66579
  0
LINE
  8
0
 10
-66.7752
 20
5.66579
 11
-66.7182
 21
5.55383
  0
LINE
  8
0
 10
-66.7182
 20
5.55383
 11
-66.6683
 21
5.43852
  0
LINE
  8
0
 10
-66.6683
 20
5.43852
 11
-66.6257
 21
5.32031
  0
LINE
  8
0
 10
-66.6257
 20
5.32031
 11
-66.5907
 21
5.19966
  0
LINE
  8
0
 10
-66.5907
 20
5.19966
 11
-66.5633
 21
5.07704
  0
LINE
  8
0
 10
-66.5633
 20
5.07704
 11
-66.5436
 21
4.95294
  0
LINE
  8
0
 10
-66.5436
 20
4.95294
 11
-66.5318
 21
4.82785
  0
LINE
  8
0
 10
-66.5318
 20
4.82785
 11
-66.5279
 21
4.70227
  0
LINE
  8
0
 10
-66.5279
 20
4.70227
 11
-66.5318
 21
4.57669
  0
LINE
  8
0
 10
-66.5318
 20
4.57669
 11
-66.5436
 21
4.45161
  0
LINE
  8
0
 10
-66.5436
 20
4.45161
 11
-66.5633
 21
4.32751
  0
LINE
  8
0
 10
-66.5633
 20
4.32751
 11
-66.5907
 21
4.2049
  0
LINE
  8
0
 10
-66.5907
 20
4.2049
 11
-66.6257
 21
4.08424
  0
LINE
  8
0
 10
-66.6257
 20
4.08424
 11
-66.6683
 21
3.96602
  0
LINE
  8
0
 10
-66.6683
 20
3.96602
 11
-66.7182
 21
3.85072
  0
LINE
  8
0
 10
-66.7182
 20
3.85072
 11
-66.7752
 21
3.73877
  0
LINE
  8
0
 10
-66.7752
 20
3.73877
 11
-66.8392
 21
3.63062
  0
LINE
  8
0
 10
-66.8392
 20
3.63062
 11
-66.9098
 21
3.5267
  0
LINE
  8
0
 10
-66.9098
 20
3.5267
 11
-66.9868
 21
3.42743
  0
LINE
  8
0
 10
-66.9868
 20
3.42743
 11
-67.0699
 21
3.33318
  0
LINE
  8
0
 10
-67.0699
 20
3.33318
 11
-67.1588
 21
3.24434
  0
LINE
  8
0
 10
-67.1588
 20
3.24434
 11
-67.253
 21
3.16125
  0
LINE
  8
0
 10
-67.253
 20
3.16125
 11
-67.3523
 21
3.08424
  0
LINE
  8
0
 10
-67.3523
 20
3.08424
 11
-67.4562
 21
3.01363
  0
LINE
  8
0
 10
-67.4562
 20
3.01363
 11
-67.5643
 21
2.94966
  0
LINE
  8
0
 10
-67.5643
 20
2.94966
 11
-67.6763
 21
2.89262
  0
LINE
  8
0
 10
-67.6763
 20
2.89262
 11
-67.7916
 21
2.84273
  0
LINE
  8
0
 10
-67.7916
 20
2.84273
 11
-67.9098
 21
2.80016
  0
LINE
  8
0
 10
-67.9098
 20
2.80016
 11
-68.0305
 21
2.76511
  0
LINE
  8
0
 10
-68.0305
 20
2.76511
 11
-68.1531
 21
2.7377
  0
LINE
  8
0
 10
-68.1531
 20
2.7377
 11
-68.2772
 21
2.71805
  0
LINE
  8
0
 10
-68.2772
 20
2.71805
 11
-68.4023
 21
2.70622
  0
LINE
  8
0
 10
-68.4023
 20
2.70622
 11
-68.5279
 21
2.70227
  0
LINE
  8
0
 10
-68.5279
 20
2.70227
 11
-68.6534
 21
2.70622
  0
LINE
  8
0
 10
68.4023
 20
2.70622
 11
68.2772
 21
2.71805
  0
LINE
  8
0
 10
68.2772
 20
2.71805
 11
68.1531
 21
2.7377
  0
LINE
  8
0
 10
68.1531
 20
2.7377
 11
68.0305
 21
2.76511
  0
LINE
  8
0
 10
68.0305
 20
2.76511
 11
67.9098
 21
2.80016
  0
LINE
  8
0
 10
67.9098
 20
2.80016
 11
67.7916
 21
2.84273
  0
LINE
  8
0
 10
67.7916
 20
2.84273
 11
67.6763
 21
2.89262
  0
LINE
  8
0
 10
67.6763
 20
2.89262
 11
67.5643
 21
2.94966
  0
LINE
  8
0
 10
67.5643
 20
2.94966
 11
67.4562
 21
3.01363
  0
LINE
  8
0
 10
67.4562
 20
3.01363
 11
67.3523
 21
3.08424
  0
LINE
  8
0
 10
67.3523
 20
3.08424
 11
67.253
 21
3.16125
  0
LINE
  8
0
 10
67.253
 20
3.16125
 11
67.1588
 21
3.24434
  0
LINE
  8
0
 10
67.1588
 20
3.24434
 11
67.0699
 21
3.33318
  0
LINE
  8
0
 10
67.0699
 20
3.33318
 11
66.9868
 21
3.42743
  0
LINE
  8
0
 10
66.9868
 20
3.42743
 11
66.9098
 21
3.5267
  0
LINE
  8
0
 10
66.9098
 20
3.5267
 11
66.8392
 21
3.63062
  0
LINE
  8
0
 10
66.8392
 20
3.63062
 11
66.7752
 21
3.73877
  0
LINE
  8
0
 10
66.7752
 20
3.73877
 11
66.7182
 21
3.85072
  0
LINE
  8
0
 10
66.7182
 20
3.85072
 11
66.6683
 21
3.96602
  0
LINE
  8
0
 10
66.6683
 20
3.96602
 11
66.6257
 21
4.08424
  0
LINE
  8
0
 10
66.6257
 20
4.08424
 11
66.5907
 21
4.2049
  0
LINE
  8
0
 10
66.5907
 20
4.2049
 11
66.5633
 21
4.32751
  0
LINE
  8
0
 10
66.5633
 20
4.32751
 11
66.5436
 21
4.45161
  0
LINE
  8
0
 10
66.5436
 20
4.45161
 11
66.5318
 21
4.57669
  0
LINE
  8
0
 10
66.5318
 20
4.57669
 11
66.5279
 21
4.70227
  0
LINE
  8
0
 10
66.5279
 20
4.70227
 11
66.5318
 21
4.82785
  0
LINE
  8
0
 10
66.5318
 20
4.82785
 11
66.5436
 21
4.95294
  0
LINE
  8
0
 10
66.5436
 20
4.95294
 11
66.5633
 21
5.07704
  0
LINE
  8
0
 10
66.5633
 20
5.07704
 11
66.5907
 21
5.19966
  0
LINE
  8
0
 10
66.5907
 20
5.19966
 11
66.6257
 21
5.32031
  0
LINE
  8
0
 10
66.6257
 20
5.32031
 11
66.6683
 21
5.43852
  0
LINE
  8
0
 10
66.6683
 20
5.43852
 11
66.7182
 21
5.55383
  0
LINE
  8
0
 10
66.7182
 20
5.55383
 11
66.7752
 21
5.66579
  0
LINE
  8
0
 10
66.7752
 20
5.66579
 11
66.8392
 21
5.77393
  0
LINE
  8
0
 10
66.8392
 20
5.77393
 11
66.9098
 21
5.87784
  0
LINE
  8
0
 10
66.9098
 20
5.87784
 11
66.9868
 21
5.97713
  0
LINE
  8
0
 10
66.9868
 20
5.97713
 11
67.0699
 21
6.07137
  0
LINE
  8
0
 10
67.0699
 20
6.07137
 11
67.1588
 21
6.16022
  0
LINE
  8
0
 10
67.1588
 20
6.16022
 11
67.253
 21
6.2433
  0
LINE
  8
0
 10
67.253
 20
6.2433
 11
67.3523
 21
6.32031
  0
LINE
  8
0
 10
67.3523
 20
6.32031
 11
67.4562
 21
6.39093
  0
LINE
  8
0
 10
67.4562
 20
6.39093
 11
67.5643
 21
6.4549
  0
LINE
  8
0
 10
67.5643
 20
6.4549
 11
67.6763
 21
6.51193
  0
LINE
  8
0
 10
67.6763
 20
6.51193
 11
67.7916
 21
6.56183
  0
LINE
  8
0
 10
67.7916
 20
6.56183
 11
67.9098
 21
6.60439
  0
LINE
  8
0
 10
67.9098
 20
6.60439
 11
68.0305
 21
6.63943
  0
LINE
  8
0
 10
68.0305
 20
6.63943
 11
68.1531
 21
6.66685
  0
LINE
  8
0
 10
68.1531
 20
6.66685
 11
68.2772
 21
6.68651
  0
LINE
  8
0
 10
68.2772
 20
6.68651
 11
68.4023
 21
6.69833
  0
LINE
  8
0
 10
68.4023
 20
6.69833
 11
68.5279
 21
6.70227
  0
LINE
  8
0
 10
68.5279
 20
6.70227
 11
68.6534
 21
6.69833
  0
LINE
  8
0
 10
68.6534
 20
6.69833
 11
68.7785
 21
6.68651
  0
LINE
  8
0
 10
68.7785
 20
6.68651
 11
68.9026
 21
6.66685
  0
LINE
  8
0
 10
68.9026
 20
6.66685
 11
69.0252
 21
6.63943
  0
LINE
  8
0
 10
69.0252
 20
6.63943
 11
69.1459
 21
6.60439
  0
LINE
  8
0
 10
69.1459
 20
6.60439
 11
69.2641
 21
6.56183
  0
LINE
  8
0
 10
69.2641
 20
6.56183
 11
69.3794
 21
6.51193
  0
LINE
  8
0
 10
69.3794
 20
6.51193
 11
69.4914
 21
6.4549
  0
LINE
  8
0
 10
69.4914
 20
6.4549
 11
69.5995
 21
6.39093
  0
LINE
  8
0
 10
69.5995
 20
6.39093
 11
69.7034
 21
6.32031
  0
LINE
  8
0
 10
69.7034
 20
6.32031
 11
69.8027
 21
6.2433
  0
LINE
  8
0
 10
69.8027
 20
6.2433
 11
69.897
 21
6.16022
  0
LINE
  8
0
 10
69.897
 20
6.16022
 11
69.9858
 21
6.07137
  0
LINE
  8
0
 10
69.9858
 20
6.07137
 11
70.0689
 21
5.97713
  0
LINE
  8
0
 10
70.0689
 20
5.97713
 11
70.1459
 21
5.87784
  0
LINE
  8
0
 10
70.1459
 20
5.87784
 11
70.2165
 21
5.77393
  0
LINE
  8
0
 10
70.2165
 20
5.77393
 11
70.2805
 21
5.66579
  0
LINE
  8
0
 10
70.2805
 20
5.66579
 11
70.3375
 21
5.55383
  0
LINE
  8
0
 10
70.3375
 20
5.55383
 11
70.3874
 21
5.43852
  0
LINE
  8
0
 10
70.3874
 20
5.43852
 11
70.43
 21
5.32031
  0
LINE
  8
0
 10
70.43
 20
5.32031
 11
70.465
 21
5.19966
  0
LINE
  8
0
 10
70.465
 20
5.19966
 11
70.4924
 21
5.07704
  0
LINE
  8
0
 10
70.4924
 20
5.07704
 11
70.5121
 21
4.95294
  0
LINE
  8
0
 10
70.5121
 20
4.95294
 11
70.5239
 21
4.82785
  0
LINE
  8
0
 10
70.5239
 20
4.82785
 11
70.5279
 21
4.70227
  0
LINE
  8
0
 10
70.5279
 20
4.70227
 11
70.5239
 21
4.57669
  0
LINE
  8
0
 10
70.5239
 20
4.57669
 11
70.5121
 21
4.45161
  0
LINE
  8
0
 10
70.5121
 20
4.45161
 11
70.4924
 21
4.32751
  0
LINE
  8
0
 10
70.4924
 20
4.32751
 11
70.465
 21
4.2049
  0
LINE
  8
0
 10
70.465
 20
4.2049
 11
70.43
 21
4.08424
  0
LINE
  8
0
 10
70.43
 20
4.08424
 11
70.3874
 21
3.96602
  0
LINE
  8
0
 10
70.3874
 20
3.96602
 11
70.3375
 21
3.85072
  0
LINE
  8
0
 10
70.3375
 20
3.85072
 11
70.2805
 21
3.73877
  0
LINE
  8
0
 10
70.2805
 20
3.73877
 11
70.2165
 21
3.63062
  0
LINE
  8
0
 10
70.2165
 20
3.63062
 11
70.1459
 21
3.5267
  0
LINE
  8
0
 10
70.1459
 20
3.5267
 11
70.0689
 21
3.42743
  0
LINE
  8
0
 10
70.0689
 20
3.42743
 11
69.9858
 21
3.33318
  0
LINE
  8
0
 10
69.9858
 20
3.33318
 11
69.897
 21
3.24434
  0
LINE
  8
0
 10
69.897
 20
3.24434
 11
69.8027
 21
3.16125
  0
LINE
  8
0
 10
69.8027
 20
3.16125
 11
69.7034
 21
3.08424
  0
LINE
  8
0
 10
69.7034
 20
3.08424
 11
69.5995
 21
3.01363
  0
LINE
  8
0
 10
69.5995
 20
3.01363
 11
69.4914
 21
2.94966
  0
LINE
  8
0
 10
69.4914
 20
2.94966
 11
69.3794
 21
2.89262
  0
LINE
  8
0
 10
69.3794
 20
2.89262
 11
69.2641
 21
2.84273
  0
LINE
  8
0
 10
69.2641
 20
2.84273
 11
69.1459
 21
2.80016
  0
LINE
  8
0
 10
69.1459
 20
2.80016
 11
69.0252
 21
2.76511
  0
LINE
  8
0
 10
69.0252
 20
2.76511
 11
68.9026
 21
2.7377
  0
LINE
  8
0
 10
68.9026
 20
2.7377
 11
68.7785
 21
2.71805
  0
LINE
  8
0
 10
68.7785
 20
2.71805
 11
68.6534
 21
2.70622
  0
LINE
  8
0
 10
68.6534
 20
2.70622
 11
68.5279
 21
2.70227
  0
LINE
  8
0
 10
68.5279
 20
2.70227
 11
68.4023
 21
2.70622
  0
ENDSEC
  0
SECTION
  2
OBJECTS
  0
DICTIONARY
  0
ENDSEC
  0
EOF
