  0
SECTION
  2
BLOCKS
  0
ENDSEC
  0
SECTION
  2
ENTITIES
  0
LINE
  8
0
 10
0
 20
230.826
 11
-75
 21
0
  0
LINE
  8
0
 10
-75
 20
0
 11
75
 21
0
  0
LINE
  8
0
 10
75
 20
0
 11
0
 21
230.826
  0
LINE
  8
0
 10
-0.12558
 20
212.83
 11
-0.250656
 21
212.842
  0
LINE
  8
0
 10
-0.250656
 20
212.842
 11
-0.374756
 21
212.862
  0
LINE
  8
0
 10
-0.374756
 20
212.862
 11
-0.497375
 21
212.889
  0
LINE
  8
0
 10
-0.497375
 20
212.889
 11
-0.618027
 21
212.924
  0
LINE
  8
0
 10
-0.618027
 20
212.924
 11
-0.736237
 21
212.967
  0
LINE
  8
0
 10
-0.736237
 20
212.967
 11
-0.851547
 21
213.017
  0
LINE
  8
0
 10
-0.851547
 20
213.017
 11
-0.963501
 21
213.074
  0
LINE
  8
0
 10
-0.963501
 20
213.074
 11
-1.07164
 21
213.138
  0
LINE
  8
0
 10
-1.07164
 20
213.138
 11
-1.17557
 21
213.208
  0
LINE
  8
0
 10
-1.17557
 20
213.208
 11
-1.27484
 21
213.285
  0
LINE
  8
0
 10
-1.27484
 20
213.285
 11
-1.36908
 21
213.368
  0
LINE
  8
0
 10
-1.36908
 20
213.368
 11
-1.45793
 21
213.457
  0
LINE
  8
0
 10
-1.45793
 20
213.457
 11
-1.54102
 21
213.551
  0
LINE
  8
0
 10
-1.54102
 20
213.551
 11
-1.61803
 21
213.651
  0
LINE
  8
0
 10
-1.61803
 20
213.651
 11
-1.68864
 21
213.755
  0
LINE
  8
0
 10
-1.68864
 20
213.755
 11
-1.75261
 21
213.863
  0
LINE
  8
0
 10
-1.75261
 20
213.863
 11
-1.80965
 21
213.975
  0
LINE
  8
0
 10
-1.80965
 20
213.975
 11
-1.85954
 21
214.09
  0
LINE
  8
0
 10
-1.85954
 20
214.09
 11
-1.9021
 21
214.208
  0
LINE
  8
0
 10
-1.9021
 20
214.208
 11
-1.93716
 21
214.329
  0
LINE
  8
0
 10
-1.93716
 20
214.329
 11
-1.96457
 21
214.451
  0
LINE
  8
0
 10
-1.96457
 20
214.451
 11
-1.98422
 21
214.576
  0
LINE
  8
0
 10
-1.98422
 20
214.576
 11
-1.99605
 21
214.701
  0
LINE
  8
0
 10
-1.99605
 20
214.701
 11
-2
 21
214.826
  0
LINE
  8
0
 10
-2
 20
214.826
 11
-1.99605
 21
214.952
  0
LINE
  8
0
 10
-1.99605
 20
214.952
 11
-1.98422
 21
215.077
  0
LINE
  8
0
 10
-1.98422
 20
215.077
 11
-1.96457
 21
215.201
  0
LINE
  8
0
 10
-1.96457
 20
215.201
 11
-1.93716
 21
215.324
  0
LINE
  8
0
 10
-1.93716
 20
215.324
 11
-1.9021
 21
215.444
  0
LINE
  8
0
 10
-1.9021
 20
215.444
 11
-1.85954
 21
215.562
  0
LINE
  8
0
 10
-1.85954
 20
215.562
 11
-1.80965
 21
215.678
  0
LINE
  8
0
 10
-1.80965
 20
215.678
 11
-1.75261
 21
215.79
  0
LINE
  8
0
 10
-1.75261
 20
215.79
 11
-1.68864
 21
215.898
  0
LINE
  8
0
 10
-1.68864
 20
215.898
 11
-1.61803
 21
216.002
  0
LINE
  8
0
 10
-1.61803
 20
216.002
 11
-1.54102
 21
216.101
  0
LINE
  8
0
 10
-1.54102
 20
216.101
 11
-1.45793
 21
216.195
  0
LINE
  8
0
 10
-1.45793
 20
216.195
 11
-1.36908
 21
216.284
  0
LINE
  8
0
 10
-1.36908
 20
216.284
 11
-1.27484
 21
216.367
  0
LINE
  8
0
 10
-1.27484
 20
216.367
 11
-1.17557
 21
216.444
  0
LINE
  8
0
 10
-1.17557
 20
216.444
 11
-1.07164
 21
216.515
  0
LINE
  8
0
 10
-1.07164
 20
216.515
 11
-0.963501
 21
216.579
  0
LINE
  8
0
 10
-0.963501
 20
216.579
 11
-0.851547
 21
216.636
  0
LINE
  8
0
 10
-0.851547
 20
216.636
 11
-0.736237
 21
216.686
  0
LINE
  8
0
 10
-0.736237
 20
216.686
 11
-0.618027
 21
216.728
  0
LINE
  8
0
 10
-0.618027
 20
216.728
 11
-0.497375
 21
216.763
  0
LINE
  8
0
 10
-0.497375
 20
216.763
 11
-0.374756
 21
216.791
  0
LINE
  8
0
 10
-0.374756
 20
216.791
 11
-0.250656
 21
216.81
  0
LINE
  8
0
 10
-0.250656
 20
216.81
 11
-0.12558
 21
216.822
  0
LINE
  8
0
 10
-0.12558
 20
216.822
 11
0
 21
216.826
  0
LINE
  8
0
 10
0
 20
216.826
 11
0.12558
 21
216.822
  0
LINE
  8
0
 10
0.12558
 20
216.822
 11
0.250656
 21
216.81
  0
LINE
  8
0
 10
0.250656
 20
216.81
 11
0.374756
 21
216.791
  0
LINE
  8
0
 10
0.374756
 20
216.791
 11
0.497375
 21
216.763
  0
LINE
  8
0
 10
0.497375
 20
216.763
 11
0.618027
 21
216.728
  0
LINE
  8
0
 10
0.618027
 20
216.728
 11
0.736237
 21
216.686
  0
LINE
  8
0
 10
0.736237
 20
216.686
 11
0.851547
 21
216.636
  0
LINE
  8
0
 10
0.851547
 20
216.636
 11
0.963501
 21
216.579
  0
LINE
  8
0
 10
0.963501
 20
216.579
 11
1.07164
 21
216.515
  0
LINE
  8
0
 10
1.07164
 20
216.515
 11
1.17557
 21
216.444
  0
LINE
  8
0
 10
1.17557
 20
216.444
 11
1.27484
 21
216.367
  0
LINE
  8
0
 10
1.27484
 20
216.367
 11
1.36908
 21
216.284
  0
LINE
  8
0
 10
1.36908
 20
216.284
 11
1.45793
 21
216.195
  0
LINE
  8
0
 10
1.45793
 20
216.195
 11
1.54102
 21
216.101
  0
LINE
  8
0
 10
1.54102
 20
216.101
 11
1.61803
 21
216.002
  0
LINE
  8
0
 10
1.61803
 20
216.002
 11
1.68864
 21
215.898
  0
LINE
  8
0
 10
1.68864
 20
215.898
 11
1.75261
 21
215.79
  0
LINE
  8
0
 10
1.75261
 20
215.79
 11
1.80965
 21
215.678
  0
LINE
  8
0
 10
1.80965
 20
215.678
 11
1.85954
 21
215.562
  0
LINE
  8
0
 10
1.85954
 20
215.562
 11
1.9021
 21
215.444
  0
LINE
  8
0
 10
1.9021
 20
215.444
 11
1.93716
 21
215.324
  0
LINE
  8
0
 10
1.93716
 20
215.324
 11
1.96457
 21
215.201
  0
LINE
  8
0
 10
1.96457
 20
215.201
 11
1.98422
 21
215.077
  0
LINE
  8
0
 10
1.98422
 20
215.077
 11
1.99605
 21
214.952
  0
LINE
  8
0
 10
1.99605
 20
214.952
 11
2
 21
214.826
  0
LINE
  8
0
 10
2
 20
214.826
 11
1.99605
 21
214.701
  0
LINE
  8
0
 10
1.99605
 20
214.701
 11
1.98422
 21
214.576
  0
LINE
  8
0
 10
1.98422
 20
214.576
 11
1.96457
 21
214.451
  0
LINE
  8
0
 10
1.96457
 20
214.451
 11
1.93716
 21
214.329
  0
LINE
  8
0
 10
1.93716
 20
214.329
 11
1.9021
 21
214.208
  0
LINE
  8
0
 10
1.9021
 20
214.208
 11
1.85954
 21
214.09
  0
LINE
  8
0
 10
1.85954
 20
214.09
 11
1.80965
 21
213.975
  0
LINE
  8
0
 10
1.80965
 20
213.975
 11
1.75261
 21
213.863
  0
LINE
  8
0
 10
1.75261
 20
213.863
 11
1.68864
 21
213.755
  0
LINE
  8
0
 10
1.68864
 20
213.755
 11
1.61803
 21
213.651
  0
LINE
  8
0
 10
1.61803
 20
213.651
 11
1.54102
 21
213.551
  0
LINE
  8
0
 10
1.54102
 20
213.551
 11
1.45793
 21
213.457
  0
LINE
  8
0
 10
1.45793
 20
213.457
 11
1.36908
 21
213.368
  0
LINE
  8
0
 10
1.36908
 20
213.368
 11
1.27484
 21
213.285
  0
LINE
  8
0
 10
1.27484
 20
213.285
 11
1.17557
 21
213.208
  0
LINE
  8
0
 10
1.17557
 20
213.208
 11
1.07164
 21
213.138
  0
LINE
  8
0
 10
1.07164
 20
213.138
 11
0.963501
 21
213.074
  0
LINE
  8
0
 10
0.963501
 20
213.074
 11
0.851547
 21
213.017
  0
LINE
  8
0
 10
0.851547
 20
213.017
 11
0.736237
 21
212.967
  0
LINE
  8
0
 10
0.736237
 20
212.967
 11
0.618027
 21
212.924
  0
LINE
  8
0
 10
0.618027
 20
212.924
 11
0.497375
 21
212.889
  0
LINE
  8
0
 10
0.497375
 20
212.889
 11
0.374756
 21
212.862
  0
LINE
  8
0
 10
0.374756
 20
212.862
 11
0.250656
 21
212.842
  0
LINE
  8
0
 10
0.250656
 20
212.842
 11
0.12558
 21
212.83
  0
LINE
  8
0
 10
0.12558
 20
212.83
 11
0
 21
212.826
  0
LINE
  8
0
 10
0
 20
212.826
 11
-0.12558
 21
212.83
  0
LINE
  8
0
 10
1.01944
 20
188.682
 11
1.03473
 21
188.809
  0
LINE
  8
0
 10
1.03473
 20
188.809
 11
1.32678
 21
187.91
  0
LINE
  8
0
 10
1.32678
 20
187.91
 11
1.01944
 21
188.682
  0
LINE
  8
0
 10
-0.934296
 20
179.633
 11
-3.19321
 21
182.166
  0
LINE
  8
0
 10
-3.19321
 20
182.166
 11
-2.19496
 21
185.238
  0
LINE
  8
0
 10
-2.19496
 20
185.238
 11
-1.38565
 21
184.652
  0
LINE
  8
0
 10
-1.38565
 20
184.652
 11
1.78711
 21
182.225
  0
LINE
  8
0
 10
1.78711
 20
182.225
 11
3.65446
 21
180.746
  0
LINE
  8
0
 10
3.65446
 20
180.746
 11
4.16641
 21
179.171
  0
LINE
  8
0
 10
4.16641
 20
179.171
 11
1.73676
 21
176.741
  0
LINE
  8
0
 10
1.73676
 20
176.741
 11
-0.934296
 21
179.633
  0
LINE
  8
0
 10
-4.16844
 20
179.164
 11
-2.59186
 21
177.588
  0
LINE
  8
0
 10
-2.59186
 20
177.588
 11
-3.31375
 21
177.136
  0
LINE
  8
0
 10
-3.31375
 20
177.136
 11
-4.49387
 21
176.458
  0
LINE
  8
0
 10
-4.49387
 20
176.458
 11
-5.15535
 21
176.127
  0
LINE
  8
0
 10
-5.15535
 20
176.127
 11
-4.16844
 21
179.164
  0
LINE
  8
0
 10
2.59186
 20
172.412
 11
3.31375
 21
172.864
  0
LINE
  8
0
 10
3.31375
 20
172.864
 11
4.49387
 21
173.542
  0
LINE
  8
0
 10
4.49387
 20
173.542
 11
5.45609
 21
174.024
  0
LINE
  8
0
 10
5.45609
 20
174.024
 11
5.79649
 21
174.154
  0
LINE
  8
0
 10
5.79649
 20
174.154
 11
6.38496
 21
172.343
  0
LINE
  8
0
 10
6.38496
 20
172.343
 11
6.09924
 21
171.885
  0
LINE
  8
0
 10
6.09924
 20
171.885
 11
5.32242
 21
170.792
  0
LINE
  8
0
 10
5.32242
 20
170.792
 11
4.83902
 21
170.165
  0
LINE
  8
0
 10
4.83902
 20
170.165
 11
2.59186
 21
172.412
  0
LINE
  8
0
 10
7.03812
 20
161.649
 11
5.79941
 21
162.284
  0
LINE
  8
0
 10
5.79941
 20
162.284
 11
3.91479
 21
163.517
  0
LINE
  8
0
 10
3.91479
 20
163.517
 11
1.38565
 21
165.348
  0
LINE
  8
0
 10
1.38565
 20
165.348
 11
-1.78711
 21
167.775
  0
LINE
  8
0
 10
-1.78711
 20
167.775
 11
-4.81934
 21
170.177
  0
LINE
  8
0
 10
-4.81934
 20
170.177
 11
-1.73676
 21
173.259
  0
LINE
  8
0
 10
-1.73676
 20
173.259
 11
0.934296
 21
170.367
  0
LINE
  8
0
 10
0.934296
 20
170.367
 11
3.56277
 21
167.42
  0
LINE
  8
0
 10
3.56277
 20
167.42
 11
5.54672
 21
165.071
  0
LINE
  8
0
 10
5.54672
 20
165.071
 11
6.88614
 21
163.318
  0
LINE
  8
0
 10
6.88614
 20
163.318
 11
7.57919
 21
162.164
  0
LINE
  8
0
 10
7.57919
 20
162.164
 11
7.62863
 21
161.61
  0
LINE
  8
0
 10
7.62863
 20
161.61
 11
7.03812
 21
161.649
  0
LINE
  8
0
 10
6.08276
 20
168.921
 11
7.19864
 21
169.838
  0
LINE
  8
0
 10
7.19864
 20
169.838
 11
8.17705
 21
166.827
  0
LINE
  8
0
 10
8.17705
 20
166.827
 11
6.08276
 21
168.921
  0
LINE
  8
0
 10
-2.36938
 20
161.194
 11
-3.61542
 21
161.969
  0
LINE
  8
0
 10
-3.61542
 20
161.969
 11
-5.25742
 21
163.154
  0
LINE
  8
0
 10
-5.25742
 20
163.154
 11
-7.29675
 21
164.747
  0
LINE
  8
0
 10
-7.29675
 20
164.747
 11
-8.52513
 21
165.756
  0
LINE
  8
0
 10
-8.52513
 20
165.756
 11
-8.18102
 21
166.815
  0
LINE
  8
0
 10
-8.18102
 20
166.815
 11
-6.08597
 21
168.91
  0
LINE
  8
0
 10
-6.08597
 20
168.91
 11
-4.76944
 21
167.209
  0
LINE
  8
0
 10
-4.76944
 20
167.209
 11
-3.23639
 21
165.122
  0
LINE
  8
0
 10
-3.23639
 20
165.122
 11
-2.09976
 21
163.445
  0
LINE
  8
0
 10
-2.09976
 20
163.445
 11
-1.36093
 21
162.176
  0
LINE
  8
0
 10
-1.36093
 20
162.176
 11
-1.01944
 21
161.318
  0
LINE
  8
0
 10
-1.01944
 20
161.318
 11
-1.07346
 21
160.87
  0
LINE
  8
0
 10
-1.07346
 20
160.87
 11
-1.52206
 21
160.828
  0
LINE
  8
0
 10
-1.52206
 20
160.828
 11
-2.36938
 21
161.194
  0
LINE
  8
0
 10
-8.80005
 20
160.692
 11
-9.54437
 21
160.976
  0
LINE
  8
0
 10
-9.54437
 20
160.976
 11
-10.0034
 21
161.206
  0
LINE
  8
0
 10
-10.0034
 20
161.206
 11
-9.23177
 21
163.581
  0
LINE
  8
0
 10
-9.23177
 20
163.581
 11
-8.9003
 21
163.115
  0
LINE
  8
0
 10
-8.9003
 20
163.115
 11
-8.34091
 21
162.218
  0
LINE
  8
0
 10
-8.34091
 20
162.218
 11
-7.9985
 21
161.518
  0
LINE
  8
0
 10
-7.9985
 20
161.518
 11
-7.87399
 21
161.017
  0
LINE
  8
0
 10
-7.87399
 20
161.017
 11
-7.966
 21
160.713
  0
LINE
  8
0
 10
-7.966
 20
160.713
 11
-8.27408
 21
160.604
  0
LINE
  8
0
 10
-8.27408
 20
160.604
 11
-8.80005
 21
160.692
  0
LINE
  8
0
 10
9.67758
 20
155.792
 11
8.9003
 21
156.885
  0
LINE
  8
0
 10
8.9003
 20
156.885
 11
8.34091
 21
157.782
  0
LINE
  8
0
 10
8.34091
 20
157.782
 11
7.9985
 21
158.482
  0
LINE
  8
0
 10
7.9985
 20
158.482
 11
7.87399
 21
158.983
  0
LINE
  8
0
 10
7.87399
 20
158.983
 11
7.966
 21
159.287
  0
LINE
  8
0
 10
7.966
 20
159.287
 11
8.27408
 21
159.396
  0
LINE
  8
0
 10
8.27408
 20
159.396
 11
8.80005
 21
159.308
  0
LINE
  8
0
 10
8.80005
 20
159.308
 11
9.54437
 21
159.024
  0
LINE
  8
0
 10
9.54437
 20
159.024
 11
10.5061
 21
158.542
  0
LINE
  8
0
 10
10.5061
 20
158.542
 11
10.9523
 21
158.286
  0
LINE
  8
0
 10
10.9523
 20
158.286
 11
11.5235
 21
156.528
  0
LINE
  8
0
 10
11.5235
 20
156.528
 11
10.161
 21
155.165
  0
LINE
  8
0
 10
10.161
 20
155.165
 11
9.67758
 21
155.792
  0
LINE
  8
0
 10
4.76944
 20
152.791
 11
3.23639
 21
154.878
  0
LINE
  8
0
 10
3.23639
 20
154.878
 11
2.09976
 21
156.555
  0
LINE
  8
0
 10
2.09976
 20
156.555
 11
1.36093
 21
157.824
  0
LINE
  8
0
 10
1.36093
 20
157.824
 11
1.01944
 21
158.682
  0
LINE
  8
0
 10
1.01944
 20
158.682
 11
1.07346
 21
159.13
  0
LINE
  8
0
 10
1.07346
 20
159.13
 11
1.52206
 21
159.172
  0
LINE
  8
0
 10
1.52206
 20
159.172
 11
2.36938
 21
158.806
  0
LINE
  8
0
 10
2.36938
 20
158.806
 11
3.61542
 21
158.031
  0
LINE
  8
0
 10
3.61542
 20
158.031
 11
5.25742
 21
156.846
  0
LINE
  8
0
 10
5.25742
 20
156.846
 11
7.29675
 21
155.253
  0
LINE
  8
0
 10
7.29675
 20
155.253
 11
8.91769
 21
153.922
  0
LINE
  8
0
 10
8.91769
 20
153.922
 11
6.08597
 21
151.09
  0
LINE
  8
0
 10
6.08597
 20
151.09
 11
4.76944
 21
152.791
  0
LINE
  8
0
 10
-0.934296
 20
149.633
 11
-3.56277
 21
152.58
  0
LINE
  8
0
 10
-3.56277
 20
152.58
 11
-5.54672
 21
154.929
  0
LINE
  8
0
 10
-5.54672
 20
154.929
 11
-6.88614
 21
156.682
  0
LINE
  8
0
 10
-6.88614
 20
156.682
 11
-7.57919
 21
157.836
  0
LINE
  8
0
 10
-7.57919
 20
157.836
 11
-7.62863
 21
158.39
  0
LINE
  8
0
 10
-7.62863
 20
158.39
 11
-7.03812
 21
158.351
  0
LINE
  8
0
 10
-7.03812
 20
158.351
 11
-5.79941
 21
157.716
  0
LINE
  8
0
 10
-5.79941
 20
157.716
 11
-3.91479
 21
156.483
  0
LINE
  8
0
 10
-3.91479
 20
156.483
 11
-1.38565
 21
154.652
  0
LINE
  8
0
 10
-1.38565
 20
154.652
 11
1.78711
 21
152.225
  0
LINE
  8
0
 10
1.78711
 20
152.225
 11
4.81934
 21
149.823
  0
LINE
  8
0
 10
4.81934
 20
149.823
 11
1.73676
 21
146.741
  0
LINE
  8
0
 10
1.73676
 20
146.741
 11
-0.934296
 21
149.633
  0
LINE
  8
0
 10
-11.5256
 20
156.521
 11
-10.1807
 21
155.177
  0
LINE
  8
0
 10
-10.1807
 20
155.177
 11
-12.5801
 21
153.276
  0
LINE
  8
0
 10
-12.5801
 20
153.276
 11
-11.5256
 21
156.521
  0
LINE
  8
0
 10
-13.9265
 20
145.87
 11
-13.9806
 21
146.318
  0
LINE
  8
0
 10
-13.9806
 20
146.318
 11
-13.6386
 21
147.177
  0
LINE
  8
0
 10
-13.6386
 20
147.177
 11
-12.9002
 21
148.445
  0
LINE
  8
0
 10
-12.9002
 20
148.445
 11
-11.7636
 21
150.122
  0
LINE
  8
0
 10
-11.7636
 20
150.122
 11
-10.2306
 21
152.209
  0
LINE
  8
0
 10
-10.2306
 20
152.209
 11
-8.91449
 21
153.91
  0
LINE
  8
0
 10
-8.91449
 20
153.91
 11
-6.08276
 21
151.079
  0
LINE
  8
0
 10
-6.08276
 20
151.079
 11
-7.70325
 21
149.747
  0
LINE
  8
0
 10
-7.70325
 20
149.747
 11
-9.74258
 21
148.154
  0
LINE
  8
0
 10
-9.74258
 20
148.154
 11
-11.385
 21
146.969
  0
LINE
  8
0
 10
-11.385
 20
146.969
 11
-12.6306
 21
146.194
  0
LINE
  8
0
 10
-12.6306
 20
146.194
 11
-13.4779
 21
145.828
  0
LINE
  8
0
 10
-13.4779
 20
145.828
 11
-13.9265
 21
145.87
  0
LINE
  8
0
 10
7.42081
 20
147.164
 11
8.11432
 21
148.318
  0
LINE
  8
0
 10
8.11432
 20
148.318
 11
9.45328
 21
150.071
  0
LINE
  8
0
 10
9.45328
 20
150.071
 11
11.4372
 21
152.42
  0
LINE
  8
0
 10
11.4372
 20
152.42
 11
12.4788
 21
153.588
  0
LINE
  8
0
 10
12.4788
 20
153.588
 11
13.5473
 21
150.299
  0
LINE
  8
0
 10
13.5473
 20
150.299
 11
11.0847
 21
148.517
  0
LINE
  8
0
 10
11.0847
 20
148.517
 11
9.20059
 21
147.284
  0
LINE
  8
0
 10
9.20059
 20
147.284
 11
7.96188
 21
146.649
  0
LINE
  8
0
 10
7.96188
 20
146.649
 11
7.37137
 21
146.61
  0
LINE
  8
0
 10
7.37137
 20
146.61
 11
7.42081
 21
147.164
  0
LINE
  8
0
 10
-7.034
 20
145.713
 11
-7.12601
 21
146.017
  0
LINE
  8
0
 10
-7.12601
 20
146.017
 11
-7.0015
 21
146.518
  0
LINE
  8
0
 10
-7.0015
 20
146.518
 11
-6.65909
 21
147.218
  0
LINE
  8
0
 10
-6.65909
 20
147.218
 11
-6.0997
 21
148.115
  0
LINE
  8
0
 10
-6.0997
 20
148.115
 11
-5.32242
 21
149.208
  0
LINE
  8
0
 10
-5.32242
 20
149.208
 11
-4.83902
 21
149.835
  0
LINE
  8
0
 10
-4.83902
 20
149.835
 11
-2.59186
 21
147.588
  0
LINE
  8
0
 10
-2.59186
 20
147.588
 11
-3.31375
 21
147.136
  0
LINE
  8
0
 10
-3.31375
 20
147.136
 11
-4.49387
 21
146.458
  0
LINE
  8
0
 10
-4.49387
 20
146.458
 11
-5.45609
 21
145.976
  0
LINE
  8
0
 10
-5.45609
 20
145.976
 11
-6.19995
 21
145.692
  0
LINE
  8
0
 10
-6.19995
 20
145.692
 11
-6.72592
 21
145.604
  0
LINE
  8
0
 10
-6.72592
 20
145.604
 11
-7.034
 21
145.713
  0
LINE
  8
0
 10
2.59186
 20
142.412
 11
3.31375
 21
142.864
  0
LINE
  8
0
 10
3.31375
 20
142.864
 11
4.49387
 21
143.542
  0
LINE
  8
0
 10
4.49387
 20
143.542
 11
5.45609
 21
144.024
  0
LINE
  8
0
 10
5.45609
 20
144.024
 11
6.19995
 21
144.308
  0
LINE
  8
0
 10
6.19995
 20
144.308
 11
6.72592
 21
144.396
  0
LINE
  8
0
 10
6.72592
 20
144.396
 11
7.034
 21
144.287
  0
LINE
  8
0
 10
7.034
 20
144.287
 11
7.12601
 21
143.983
  0
LINE
  8
0
 10
7.12601
 20
143.983
 11
7.0015
 21
143.481
  0
LINE
  8
0
 10
7.0015
 20
143.481
 11
6.65909
 21
142.782
  0
LINE
  8
0
 10
6.65909
 20
142.782
 11
6.09924
 21
141.885
  0
LINE
  8
0
 10
6.09924
 20
141.885
 11
5.32242
 21
140.792
  0
LINE
  8
0
 10
5.32242
 20
140.792
 11
4.83902
 21
140.165
  0
LINE
  8
0
 10
4.83902
 20
140.165
 11
2.59186
 21
142.412
  0
LINE
  8
0
 10
6.08276
 20
138.921
 11
7.70325
 21
140.253
  0
LINE
  8
0
 10
7.70325
 20
140.253
 11
9.74258
 21
141.846
  0
LINE
  8
0
 10
9.74258
 20
141.846
 11
11.385
 21
143.031
  0
LINE
  8
0
 10
11.385
 20
143.031
 11
12.6306
 21
143.806
  0
LINE
  8
0
 10
12.6306
 20
143.806
 11
13.4779
 21
144.172
  0
LINE
  8
0
 10
13.4779
 20
144.172
 11
13.9265
 21
144.13
  0
LINE
  8
0
 10
13.9265
 20
144.13
 11
13.9806
 21
143.682
  0
LINE
  8
0
 10
13.9806
 20
143.682
 11
13.6386
 21
142.823
  0
LINE
  8
0
 10
13.6386
 20
142.823
 11
12.8998
 21
141.554
  0
LINE
  8
0
 10
12.8998
 20
141.554
 11
11.7636
 21
139.878
  0
LINE
  8
0
 10
11.7636
 20
139.878
 11
10.2306
 21
137.791
  0
LINE
  8
0
 10
10.2306
 20
137.791
 11
8.91449
 21
136.09
  0
LINE
  8
0
 10
8.91449
 20
136.09
 11
6.08276
 21
138.921
  0
LINE
  8
0
 10
-18.8806
 20
133.885
 11
-18.1446
 21
136.15
  0
LINE
  8
0
 10
-18.1446
 20
136.15
 11
-16.7871
 21
137.225
  0
LINE
  8
0
 10
-16.7871
 20
137.225
 11
-13.6139
 21
139.653
  0
LINE
  8
0
 10
-13.6139
 20
139.653
 11
-11.0847
 21
141.483
  0
LINE
  8
0
 10
-11.0847
 20
141.483
 11
-9.20059
 21
142.716
  0
LINE
  8
0
 10
-9.20059
 20
142.716
 11
-7.96188
 21
143.351
  0
LINE
  8
0
 10
-7.96188
 20
143.351
 11
-7.37137
 21
143.39
  0
LINE
  8
0
 10
-7.37137
 20
143.39
 11
-7.42081
 21
142.836
  0
LINE
  8
0
 10
-7.42081
 20
142.836
 11
-8.11432
 21
141.682
  0
LINE
  8
0
 10
-8.11432
 20
141.682
 11
-9.45374
 21
139.929
  0
LINE
  8
0
 10
-9.45374
 20
139.929
 11
-11.4372
 21
137.58
  0
LINE
  8
0
 10
-11.4372
 20
137.58
 11
-14.0657
 21
134.633
  0
LINE
  8
0
 10
-14.0657
 20
134.633
 11
-16.7368
 21
131.741
  0
LINE
  8
0
 10
-16.7368
 20
131.741
 11
-18.8806
 21
133.885
  0
LINE
  8
0
 10
7.03812
 20
131.649
 11
5.79941
 21
132.284
  0
LINE
  8
0
 10
5.79941
 20
132.284
 11
3.91479
 21
133.517
  0
LINE
  8
0
 10
3.91479
 20
133.517
 11
1.38565
 21
135.348
  0
LINE
  8
0
 10
1.38565
 20
135.348
 11
-1.78711
 21
137.775
  0
LINE
  8
0
 10
-1.78711
 20
137.775
 11
-4.81934
 21
140.177
  0
LINE
  8
0
 10
-4.81934
 20
140.177
 11
-1.73676
 21
143.259
  0
LINE
  8
0
 10
-1.73676
 20
143.259
 11
0.934296
 21
140.367
  0
LINE
  8
0
 10
0.934296
 20
140.367
 11
3.56277
 21
137.42
  0
LINE
  8
0
 10
3.56277
 20
137.42
 11
5.54672
 21
135.071
  0
LINE
  8
0
 10
5.54672
 20
135.071
 11
6.88614
 21
133.318
  0
LINE
  8
0
 10
6.88614
 20
133.318
 11
7.57919
 21
132.164
  0
LINE
  8
0
 10
7.57919
 20
132.164
 11
7.62863
 21
131.61
  0
LINE
  8
0
 10
7.62863
 20
131.61
 11
7.03812
 21
131.649
  0
LINE
  8
0
 10
10.1807
 20
134.823
 11
13.2129
 21
137.225
  0
LINE
  8
0
 10
13.2129
 20
137.225
 11
16.3861
 21
139.653
  0
LINE
  8
0
 10
16.3861
 20
139.653
 11
16.8884
 21
140.016
  0
LINE
  8
0
 10
16.8884
 20
140.016
 11
17.9157
 21
136.855
  0
LINE
  8
0
 10
17.9157
 20
136.855
 11
15.9343
 21
134.633
  0
LINE
  8
0
 10
15.9343
 20
134.633
 11
13.2632
 21
131.741
  0
LINE
  8
0
 10
13.2632
 20
131.741
 11
10.1807
 21
134.823
  0
LINE
  8
0
 10
-2.36938
 20
131.194
 11
-3.61542
 21
131.969
  0
LINE
  8
0
 10
-3.61542
 20
131.969
 11
-5.25742
 21
133.154
  0
LINE
  8
0
 10
-5.25742
 20
133.154
 11
-7.29675
 21
134.747
  0
LINE
  8
0
 10
-7.29675
 20
134.747
 11
-8.91769
 21
136.078
  0
LINE
  8
0
 10
-8.91769
 20
136.078
 11
-6.08597
 21
138.91
  0
LINE
  8
0
 10
-6.08597
 20
138.91
 11
-4.76944
 21
137.209
  0
LINE
  8
0
 10
-4.76944
 20
137.209
 11
-3.23639
 21
135.122
  0
LINE
  8
0
 10
-3.23639
 20
135.122
 11
-2.09976
 21
133.445
  0
LINE
  8
0
 10
-2.09976
 20
133.445
 11
-1.36093
 21
132.176
  0
LINE
  8
0
 10
-1.36093
 20
132.176
 11
-1.01944
 21
131.318
  0
LINE
  8
0
 10
-1.01944
 20
131.318
 11
-1.07346
 21
130.87
  0
LINE
  8
0
 10
-1.07346
 20
130.87
 11
-1.52206
 21
130.828
  0
LINE
  8
0
 10
-1.52206
 20
130.828
 11
-2.36938
 21
131.194
  0
LINE
  8
0
 10
-8.80005
 20
130.692
 11
-9.54437
 21
130.976
  0
LINE
  8
0
 10
-9.54437
 20
130.976
 11
-10.5061
 21
131.458
  0
LINE
  8
0
 10
-10.5061
 20
131.458
 11
-11.6862
 21
132.136
  0
LINE
  8
0
 10
-11.6862
 20
132.136
 11
-12.4081
 21
132.588
  0
LINE
  8
0
 10
-12.4081
 20
132.588
 11
-10.161
 21
134.835
  0
LINE
  8
0
 10
-10.161
 20
134.835
 11
-9.67758
 21
134.208
  0
LINE
  8
0
 10
-9.67758
 20
134.208
 11
-8.9003
 21
133.115
  0
LINE
  8
0
 10
-8.9003
 20
133.115
 11
-8.34091
 21
132.218
  0
LINE
  8
0
 10
-8.34091
 20
132.218
 11
-7.9985
 21
131.518
  0
LINE
  8
0
 10
-7.9985
 20
131.518
 11
-7.87399
 21
131.017
  0
LINE
  8
0
 10
-7.87399
 20
131.017
 11
-7.966
 21
130.713
  0
LINE
  8
0
 10
-7.966
 20
130.713
 11
-8.27408
 21
130.604
  0
LINE
  8
0
 10
-8.27408
 20
130.604
 11
-8.80005
 21
130.692
  0
LINE
  8
0
 10
19.4939
 20
131.458
 11
18.3138
 21
132.136
  0
LINE
  8
0
 10
18.3138
 20
132.136
 11
17.5919
 21
132.588
  0
LINE
  8
0
 10
17.5919
 20
132.588
 11
18.8827
 21
133.879
  0
LINE
  8
0
 10
18.8827
 20
133.879
 11
19.7032
 21
131.353
  0
LINE
  8
0
 10
19.7032
 20
131.353
 11
19.4939
 21
131.458
  0
LINE
  8
0
 10
9.67758
 20
125.792
 11
8.9003
 21
126.885
  0
LINE
  8
0
 10
8.9003
 20
126.885
 11
8.34091
 21
127.782
  0
LINE
  8
0
 10
8.34091
 20
127.782
 11
7.9985
 21
128.482
  0
LINE
  8
0
 10
7.9985
 20
128.482
 11
7.87399
 21
128.983
  0
LINE
  8
0
 10
7.87399
 20
128.983
 11
7.966
 21
129.287
  0
LINE
  8
0
 10
7.966
 20
129.287
 11
8.27408
 21
129.396
  0
LINE
  8
0
 10
8.27408
 20
129.396
 11
8.80005
 21
129.308
  0
LINE
  8
0
 10
8.80005
 20
129.308
 11
9.54437
 21
129.024
  0
LINE
  8
0
 10
9.54437
 20
129.024
 11
10.5061
 21
128.542
  0
LINE
  8
0
 10
10.5061
 20
128.542
 11
11.6862
 21
127.864
  0
LINE
  8
0
 10
11.6862
 20
127.864
 11
12.4081
 21
127.412
  0
LINE
  8
0
 10
12.4081
 20
127.412
 11
10.161
 21
125.165
  0
LINE
  8
0
 10
10.161
 20
125.165
 11
9.67758
 21
125.792
  0
LINE
  8
0
 10
4.76944
 20
122.791
 11
3.23639
 21
124.878
  0
LINE
  8
0
 10
3.23639
 20
124.878
 11
2.09976
 21
126.555
  0
LINE
  8
0
 10
2.09976
 20
126.555
 11
1.36093
 21
127.824
  0
LINE
  8
0
 10
1.36093
 20
127.824
 11
1.01944
 21
128.682
  0
LINE
  8
0
 10
1.01944
 20
128.682
 11
1.07346
 21
129.13
  0
LINE
  8
0
 10
1.07346
 20
129.13
 11
1.52206
 21
129.172
  0
LINE
  8
0
 10
1.52206
 20
129.172
 11
2.36938
 21
128.806
  0
LINE
  8
0
 10
2.36938
 20
128.806
 11
3.61542
 21
128.031
  0
LINE
  8
0
 10
3.61542
 20
128.031
 11
5.25742
 21
126.846
  0
LINE
  8
0
 10
5.25742
 20
126.846
 11
7.29675
 21
125.253
  0
LINE
  8
0
 10
7.29675
 20
125.253
 11
8.91769
 21
123.922
  0
LINE
  8
0
 10
8.91769
 20
123.922
 11
6.08597
 21
121.09
  0
LINE
  8
0
 10
6.08597
 20
121.09
 11
4.76944
 21
122.791
  0
LINE
  8
0
 10
-20.3224
 20
125.792
 11
-21.0997
 21
126.885
  0
LINE
  8
0
 10
-21.0997
 20
126.885
 11
-21.136
 21
126.944
  0
LINE
  8
0
 10
-21.136
 20
126.944
 11
-20.4597
 21
129.025
  0
LINE
  8
0
 10
-20.4597
 20
129.025
 11
-20.4556
 21
129.024
  0
LINE
  8
0
 10
-20.4556
 20
129.024
 11
-19.4939
 21
128.542
  0
LINE
  8
0
 10
-19.4939
 20
128.542
 11
-18.3138
 21
127.864
  0
LINE
  8
0
 10
-18.3138
 20
127.864
 11
-17.5919
 21
127.412
  0
LINE
  8
0
 10
-17.5919
 20
127.412
 11
-19.839
 21
125.165
  0
LINE
  8
0
 10
-19.839
 20
125.165
 11
-20.3224
 21
125.792
  0
LINE
  8
0
 10
-0.934296
 20
119.633
 11
-3.56277
 21
122.58
  0
LINE
  8
0
 10
-3.56277
 20
122.58
 11
-5.54672
 21
124.929
  0
LINE
  8
0
 10
-5.54672
 20
124.929
 11
-6.88614
 21
126.682
  0
LINE
  8
0
 10
-6.88614
 20
126.682
 11
-7.57919
 21
127.836
  0
LINE
  8
0
 10
-7.57919
 20
127.836
 11
-7.62863
 21
128.39
  0
LINE
  8
0
 10
-7.62863
 20
128.39
 11
-7.03812
 21
128.351
  0
LINE
  8
0
 10
-7.03812
 20
128.351
 11
-5.79941
 21
127.716
  0
LINE
  8
0
 10
-5.79941
 20
127.716
 11
-3.91479
 21
126.483
  0
LINE
  8
0
 10
-3.91479
 20
126.483
 11
-1.38565
 21
124.652
  0
LINE
  8
0
 10
-1.38565
 20
124.652
 11
1.78711
 21
122.225
  0
LINE
  8
0
 10
1.78711
 20
122.225
 11
4.81934
 21
119.823
  0
LINE
  8
0
 10
4.81934
 20
119.823
 11
1.73676
 21
116.741
  0
LINE
  8
0
 10
1.73676
 20
116.741
 11
-0.934296
 21
119.633
  0
LINE
  8
0
 10
7.42081
 20
117.164
 11
8.11432
 21
118.318
  0
LINE
  8
0
 10
8.11432
 20
118.318
 11
9.45328
 21
120.071
  0
LINE
  8
0
 10
9.45328
 20
120.071
 11
11.4372
 21
122.42
  0
LINE
  8
0
 10
11.4372
 20
122.42
 11
14.0657
 21
125.367
  0
LINE
  8
0
 10
14.0657
 20
125.367
 11
16.7368
 21
128.259
  0
LINE
  8
0
 10
16.7368
 20
128.259
 11
19.8193
 21
125.177
  0
LINE
  8
0
 10
19.8193
 20
125.177
 11
16.7871
 21
122.775
  0
LINE
  8
0
 10
16.7871
 20
122.775
 11
13.6139
 21
120.347
  0
LINE
  8
0
 10
13.6139
 20
120.347
 11
11.0847
 21
118.517
  0
LINE
  8
0
 10
11.0847
 20
118.517
 11
9.20059
 21
117.284
  0
LINE
  8
0
 10
9.20059
 20
117.284
 11
7.96188
 21
116.649
  0
LINE
  8
0
 10
7.96188
 20
116.649
 11
7.37137
 21
116.61
  0
LINE
  8
0
 10
7.37137
 20
116.61
 11
7.42081
 21
117.164
  0
LINE
  8
0
 10
-22.5792
 20
117.164
 11
-21.8857
 21
118.318
  0
LINE
  8
0
 10
-21.8857
 20
118.318
 11
-20.5467
 21
120.071
  0
LINE
  8
0
 10
-20.5467
 20
120.071
 11
-18.5628
 21
122.42
  0
LINE
  8
0
 10
-18.5628
 20
122.42
 11
-15.9343
 21
125.367
  0
LINE
  8
0
 10
-15.9343
 20
125.367
 11
-13.2632
 21
128.259
  0
LINE
  8
0
 10
-13.2632
 20
128.259
 11
-10.1807
 21
125.177
  0
LINE
  8
0
 10
-10.1807
 20
125.177
 11
-13.2129
 21
122.775
  0
LINE
  8
0
 10
-13.2129
 20
122.775
 11
-16.3861
 21
120.347
  0
LINE
  8
0
 10
-16.3861
 20
120.347
 11
-18.9153
 21
118.517
  0
LINE
  8
0
 10
-18.9153
 20
118.517
 11
-20.7994
 21
117.284
  0
LINE
  8
0
 10
-20.7994
 20
117.284
 11
-22.0381
 21
116.649
  0
LINE
  8
0
 10
-22.0381
 20
116.649
 11
-22.6286
 21
116.61
  0
LINE
  8
0
 10
-22.6286
 20
116.61
 11
-22.5792
 21
117.164
  0
LINE
  8
0
 10
-21.8997
 20
124.593
 11
-21.0823
 21
123.922
  0
LINE
  8
0
 10
-21.0823
 20
123.922
 11
-22.6162
 21
122.388
  0
LINE
  8
0
 10
-22.6162
 20
122.388
 11
-21.8997
 21
124.593
  0
LINE
  8
0
 10
-13.9265
 20
115.87
 11
-13.9806
 21
116.318
  0
LINE
  8
0
 10
-13.9806
 20
116.318
 11
-13.6386
 21
117.177
  0
LINE
  8
0
 10
-13.6386
 20
117.177
 11
-12.9002
 21
118.445
  0
LINE
  8
0
 10
-12.9002
 20
118.445
 11
-11.7636
 21
120.122
  0
LINE
  8
0
 10
-11.7636
 20
120.122
 11
-10.2306
 21
122.209
  0
LINE
  8
0
 10
-10.2306
 20
122.209
 11
-8.91449
 21
123.91
  0
LINE
  8
0
 10
-8.91449
 20
123.91
 11
-6.08276
 21
121.079
  0
LINE
  8
0
 10
-6.08276
 20
121.079
 11
-7.70325
 21
119.747
  0
LINE
  8
0
 10
-7.70325
 20
119.747
 11
-9.74258
 21
118.154
  0
LINE
  8
0
 10
-9.74258
 20
118.154
 11
-11.385
 21
116.969
  0
LINE
  8
0
 10
-11.385
 20
116.969
 11
-12.6306
 21
116.194
  0
LINE
  8
0
 10
-12.6306
 20
116.194
 11
-13.4779
 21
115.828
  0
LINE
  8
0
 10
-13.4779
 20
115.828
 11
-13.9265
 21
115.87
  0
LINE
  8
0
 10
16.0735
 20
115.87
 11
16.0194
 21
116.318
  0
LINE
  8
0
 10
16.0194
 20
116.318
 11
16.3614
 21
117.177
  0
LINE
  8
0
 10
16.3614
 20
117.177
 11
17.0998
 21
118.445
  0
LINE
  8
0
 10
17.0998
 20
118.445
 11
18.2364
 21
120.122
  0
LINE
  8
0
 10
18.2364
 20
120.122
 11
19.7694
 21
122.209
  0
LINE
  8
0
 10
19.7694
 20
122.209
 11
21.0855
 21
123.91
  0
LINE
  8
0
 10
21.0855
 20
123.91
 11
22.6202
 21
122.376
  0
LINE
  8
0
 10
22.6202
 20
122.376
 11
23.2261
 21
120.511
  0
LINE
  8
0
 10
23.2261
 20
120.511
 11
22.2968
 21
119.747
  0
LINE
  8
0
 10
22.2968
 20
119.747
 11
20.2574
 21
118.154
  0
LINE
  8
0
 10
20.2574
 20
118.154
 11
18.615
 21
116.969
  0
LINE
  8
0
 10
18.615
 20
116.969
 11
17.3694
 21
116.194
  0
LINE
  8
0
 10
17.3694
 20
116.194
 11
16.5221
 21
115.828
  0
LINE
  8
0
 10
16.5221
 20
115.828
 11
16.0735
 21
115.87
  0
LINE
  8
0
 10
-7.034
 20
115.713
 11
-7.12601
 21
116.017
  0
LINE
  8
0
 10
-7.12601
 20
116.017
 11
-7.0015
 21
116.518
  0
LINE
  8
0
 10
-7.0015
 20
116.518
 11
-6.65909
 21
117.218
  0
LINE
  8
0
 10
-6.65909
 20
117.218
 11
-6.0997
 21
118.115
  0
LINE
  8
0
 10
-6.0997
 20
118.115
 11
-5.32242
 21
119.208
  0
LINE
  8
0
 10
-5.32242
 20
119.208
 11
-4.83902
 21
119.835
  0
LINE
  8
0
 10
-4.83902
 20
119.835
 11
-2.59186
 21
117.588
  0
LINE
  8
0
 10
-2.59186
 20
117.588
 11
-3.31375
 21
117.136
  0
LINE
  8
0
 10
-3.31375
 20
117.136
 11
-4.49387
 21
116.458
  0
LINE
  8
0
 10
-4.49387
 20
116.458
 11
-5.45609
 21
115.976
  0
LINE
  8
0
 10
-5.45609
 20
115.976
 11
-6.19995
 21
115.692
  0
LINE
  8
0
 10
-6.19995
 20
115.692
 11
-6.72592
 21
115.604
  0
LINE
  8
0
 10
-6.72592
 20
115.604
 11
-7.034
 21
115.713
  0
LINE
  8
0
 10
22.966
 20
115.713
 11
22.874
 21
116.017
  0
LINE
  8
0
 10
22.874
 20
116.017
 11
22.9985
 21
116.518
  0
LINE
  8
0
 10
22.9985
 20
116.518
 11
23.3409
 21
117.218
  0
LINE
  8
0
 10
23.3409
 20
117.218
 11
23.9003
 21
118.115
  0
LINE
  8
0
 10
23.9003
 20
118.115
 11
23.9719
 21
118.215
  0
LINE
  8
0
 10
23.9719
 20
118.215
 11
24.6777
 21
116.043
  0
LINE
  8
0
 10
24.6777
 20
116.043
 11
24.5439
 21
115.976
  0
LINE
  8
0
 10
24.5439
 20
115.976
 11
23.8
 21
115.692
  0
LINE
  8
0
 10
23.8
 20
115.692
 11
23.2741
 21
115.604
  0
LINE
  8
0
 10
23.2741
 20
115.604
 11
22.966
 21
115.713
  0
LINE
  8
0
 10
-26.2378
 20
111.242
 11
-25.4874
 21
113.551
  0
LINE
  8
0
 10
-25.4874
 20
113.551
 11
-24.5439
 21
114.024
  0
LINE
  8
0
 10
-24.5439
 20
114.024
 11
-23.8
 21
114.308
  0
LINE
  8
0
 10
-23.8
 20
114.308
 11
-23.2741
 21
114.396
  0
LINE
  8
0
 10
-23.2741
 20
114.396
 11
-22.966
 21
114.287
  0
LINE
  8
0
 10
-22.966
 20
114.287
 11
-22.874
 21
113.983
  0
LINE
  8
0
 10
-22.874
 20
113.983
 11
-22.9985
 21
113.481
  0
LINE
  8
0
 10
-22.9985
 20
113.481
 11
-23.3409
 21
112.782
  0
LINE
  8
0
 10
-23.3409
 20
112.782
 11
-23.9008
 21
111.885
  0
LINE
  8
0
 10
-23.9008
 20
111.885
 11
-24.6776
 21
110.792
  0
LINE
  8
0
 10
-24.6776
 20
110.792
 11
-25.161
 21
110.165
  0
LINE
  8
0
 10
-25.161
 20
110.165
 11
-26.2378
 21
111.242
  0
LINE
  8
0
 10
2.59186
 20
112.412
 11
3.31375
 21
112.864
  0
LINE
  8
0
 10
3.31375
 20
112.864
 11
4.49387
 21
113.542
  0
LINE
  8
0
 10
4.49387
 20
113.542
 11
5.45609
 21
114.024
  0
LINE
  8
0
 10
5.45609
 20
114.024
 11
6.19995
 21
114.308
  0
LINE
  8
0
 10
6.19995
 20
114.308
 11
6.72592
 21
114.396
  0
LINE
  8
0
 10
6.72592
 20
114.396
 11
7.034
 21
114.287
  0
LINE
  8
0
 10
7.034
 20
114.287
 11
7.12601
 21
113.983
  0
LINE
  8
0
 10
7.12601
 20
113.983
 11
7.0015
 21
113.481
  0
LINE
  8
0
 10
7.0015
 20
113.481
 11
6.65909
 21
112.782
  0
LINE
  8
0
 10
6.65909
 20
112.782
 11
6.09924
 21
111.885
  0
LINE
  8
0
 10
6.09924
 20
111.885
 11
5.32242
 21
110.792
  0
LINE
  8
0
 10
5.32242
 20
110.792
 11
4.83902
 21
110.165
  0
LINE
  8
0
 10
4.83902
 20
110.165
 11
2.59186
 21
112.412
  0
LINE
  8
0
 10
-23.9172
 20
108.921
 11
-22.2968
 21
110.253
  0
LINE
  8
0
 10
-22.2968
 20
110.253
 11
-20.2574
 21
111.846
  0
LINE
  8
0
 10
-20.2574
 20
111.846
 11
-18.615
 21
113.031
  0
LINE
  8
0
 10
-18.615
 20
113.031
 11
-17.3694
 21
113.806
  0
LINE
  8
0
 10
-17.3694
 20
113.806
 11
-16.5221
 21
114.172
  0
LINE
  8
0
 10
-16.5221
 20
114.172
 11
-16.0735
 21
114.13
  0
LINE
  8
0
 10
-16.0735
 20
114.13
 11
-16.0194
 21
113.682
  0
LINE
  8
0
 10
-16.0194
 20
113.682
 11
-16.3614
 21
112.823
  0
LINE
  8
0
 10
-16.3614
 20
112.823
 11
-17.1002
 21
111.554
  0
LINE
  8
0
 10
-17.1002
 20
111.554
 11
-18.2364
 21
109.878
  0
LINE
  8
0
 10
-18.2364
 20
109.878
 11
-19.7694
 21
107.791
  0
LINE
  8
0
 10
-19.7694
 20
107.791
 11
-21.0855
 21
106.09
  0
LINE
  8
0
 10
-21.0855
 20
106.09
 11
-23.9172
 21
108.921
  0
LINE
  8
0
 10
6.08276
 20
108.921
 11
7.70325
 21
110.253
  0
LINE
  8
0
 10
7.70325
 20
110.253
 11
9.74258
 21
111.846
  0
LINE
  8
0
 10
9.74258
 20
111.846
 11
11.385
 21
113.031
  0
LINE
  8
0
 10
11.385
 20
113.031
 11
12.6306
 21
113.806
  0
LINE
  8
0
 10
12.6306
 20
113.806
 11
13.4779
 21
114.172
  0
LINE
  8
0
 10
13.4779
 20
114.172
 11
13.9265
 21
114.13
  0
LINE
  8
0
 10
13.9265
 20
114.13
 11
13.9806
 21
113.682
  0
LINE
  8
0
 10
13.9806
 20
113.682
 11
13.6386
 21
112.823
  0
LINE
  8
0
 10
13.6386
 20
112.823
 11
12.8998
 21
111.554
  0
LINE
  8
0
 10
12.8998
 20
111.554
 11
11.7636
 21
109.878
  0
LINE
  8
0
 10
11.7636
 20
109.878
 11
10.2306
 21
107.791
  0
LINE
  8
0
 10
10.2306
 20
107.791
 11
8.91449
 21
106.09
  0
LINE
  8
0
 10
8.91449
 20
106.09
 11
6.08276
 21
108.921
  0
LINE
  8
0
 10
-19.8193
 20
104.823
 11
-16.7871
 21
107.225
  0
LINE
  8
0
 10
-16.7871
 20
107.225
 11
-13.6139
 21
109.653
  0
LINE
  8
0
 10
-13.6139
 20
109.653
 11
-11.0847
 21
111.483
  0
LINE
  8
0
 10
-11.0847
 20
111.483
 11
-9.20059
 21
112.716
  0
LINE
  8
0
 10
-9.20059
 20
112.716
 11
-7.96188
 21
113.351
  0
LINE
  8
0
 10
-7.96188
 20
113.351
 11
-7.37137
 21
113.39
  0
LINE
  8
0
 10
-7.37137
 20
113.39
 11
-7.42081
 21
112.836
  0
LINE
  8
0
 10
-7.42081
 20
112.836
 11
-8.11432
 21
111.682
  0
LINE
  8
0
 10
-8.11432
 20
111.682
 11
-9.45374
 21
109.929
  0
LINE
  8
0
 10
-9.45374
 20
109.929
 11
-11.4372
 21
107.58
  0
LINE
  8
0
 10
-11.4372
 20
107.58
 11
-14.0657
 21
104.633
  0
LINE
  8
0
 10
-14.0657
 20
104.633
 11
-16.7368
 21
101.741
  0
LINE
  8
0
 10
-16.7368
 20
101.741
 11
-19.8193
 21
104.823
  0
LINE
  8
0
 10
10.1807
 20
104.823
 11
13.2129
 21
107.225
  0
LINE
  8
0
 10
13.2129
 20
107.225
 11
16.3861
 21
109.653
  0
LINE
  8
0
 10
16.3861
 20
109.653
 11
18.9153
 21
111.483
  0
LINE
  8
0
 10
18.9153
 20
111.483
 11
20.7994
 21
112.716
  0
LINE
  8
0
 10
20.7994
 20
112.716
 11
22.0381
 21
113.351
  0
LINE
  8
0
 10
22.0381
 20
113.351
 11
22.6286
 21
113.39
  0
LINE
  8
0
 10
22.6286
 20
113.39
 11
22.5792
 21
112.836
  0
LINE
  8
0
 10
22.5792
 20
112.836
 11
21.8857
 21
111.682
  0
LINE
  8
0
 10
21.8857
 20
111.682
 11
20.5463
 21
109.929
  0
LINE
  8
0
 10
20.5463
 20
109.929
 11
18.5628
 21
107.58
  0
LINE
  8
0
 10
18.5628
 20
107.58
 11
15.9343
 21
104.633
  0
LINE
  8
0
 10
15.9343
 20
104.633
 11
13.2632
 21
101.741
  0
LINE
  8
0
 10
13.2632
 20
101.741
 11
10.1807
 21
104.823
  0
LINE
  8
0
 10
7.03812
 20
101.649
 11
5.79941
 21
102.284
  0
LINE
  8
0
 10
5.79941
 20
102.284
 11
3.91479
 21
103.517
  0
LINE
  8
0
 10
3.91479
 20
103.517
 11
1.38565
 21
105.348
  0
LINE
  8
0
 10
1.38565
 20
105.348
 11
-1.78711
 21
107.775
  0
LINE
  8
0
 10
-1.78711
 20
107.775
 11
-4.81934
 21
110.177
  0
LINE
  8
0
 10
-4.81934
 20
110.177
 11
-1.73676
 21
113.259
  0
LINE
  8
0
 10
-1.73676
 20
113.259
 11
0.934296
 21
110.367
  0
LINE
  8
0
 10
0.934296
 20
110.367
 11
3.56277
 21
107.42
  0
LINE
  8
0
 10
3.56277
 20
107.42
 11
5.54672
 21
105.071
  0
LINE
  8
0
 10
5.54672
 20
105.071
 11
6.88614
 21
103.318
  0
LINE
  8
0
 10
6.88614
 20
103.318
 11
7.57919
 21
102.164
  0
LINE
  8
0
 10
7.57919
 20
102.164
 11
7.62863
 21
101.61
  0
LINE
  8
0
 10
7.62863
 20
101.61
 11
7.03812
 21
101.649
  0
LINE
  8
0
 10
25.1807
 20
110.177
 11
26.2398
 21
111.236
  0
LINE
  8
0
 10
26.2398
 20
111.236
 11
27.0703
 21
108.68
  0
LINE
  8
0
 10
27.0703
 20
108.68
 11
25.1807
 21
110.177
  0
LINE
  8
0
 10
-2.36938
 20
101.194
 11
-3.61542
 21
101.969
  0
LINE
  8
0
 10
-3.61542
 20
101.969
 11
-5.25742
 21
103.154
  0
LINE
  8
0
 10
-5.25742
 20
103.154
 11
-7.29675
 21
104.747
  0
LINE
  8
0
 10
-7.29675
 20
104.747
 11
-8.91769
 21
106.078
  0
LINE
  8
0
 10
-8.91769
 20
106.078
 11
-6.08597
 21
108.91
  0
LINE
  8
0
 10
-6.08597
 20
108.91
 11
-4.76944
 21
107.209
  0
LINE
  8
0
 10
-4.76944
 20
107.209
 11
-3.23639
 21
105.122
  0
LINE
  8
0
 10
-3.23639
 20
105.122
 11
-2.09976
 21
103.445
  0
LINE
  8
0
 10
-2.09976
 20
103.445
 11
-1.36093
 21
102.176
  0
LINE
  8
0
 10
-1.36093
 20
102.176
 11
-1.01944
 21
101.318
  0
LINE
  8
0
 10
-1.01944
 20
101.318
 11
-1.07346
 21
100.87
  0
LINE
  8
0
 10
-1.07346
 20
100.87
 11
-1.52206
 21
100.828
  0
LINE
  8
0
 10
-1.52206
 20
100.828
 11
-2.36938
 21
101.194
  0
LINE
  8
0
 10
27.6306
 20
101.194
 11
26.3846
 21
101.969
  0
LINE
  8
0
 10
26.3846
 20
101.969
 11
24.7426
 21
103.154
  0
LINE
  8
0
 10
24.7426
 20
103.154
 11
22.7032
 21
104.747
  0
LINE
  8
0
 10
22.7032
 20
104.747
 11
21.0823
 21
106.078
  0
LINE
  8
0
 10
21.0823
 20
106.078
 11
23.914
 21
108.91
  0
LINE
  8
0
 10
23.914
 20
108.91
 11
25.2306
 21
107.209
  0
LINE
  8
0
 10
25.2306
 20
107.209
 11
26.7636
 21
105.122
  0
LINE
  8
0
 10
26.7636
 20
105.122
 11
27.9002
 21
103.445
  0
LINE
  8
0
 10
27.9002
 20
103.445
 11
28.6391
 21
102.176
  0
LINE
  8
0
 10
28.6391
 20
102.176
 11
28.9806
 21
101.318
  0
LINE
  8
0
 10
28.9806
 20
101.318
 11
28.9265
 21
100.87
  0
LINE
  8
0
 10
28.9265
 20
100.87
 11
28.4779
 21
100.828
  0
LINE
  8
0
 10
28.4779
 20
100.828
 11
27.6306
 21
101.194
  0
LINE
  8
0
 10
-22.9619
 20
101.649
 11
-24.2006
 21
102.284
  0
LINE
  8
0
 10
-24.2006
 20
102.284
 11
-26.0852
 21
103.517
  0
LINE
  8
0
 10
-26.0852
 20
103.517
 11
-28.2408
 21
105.077
  0
LINE
  8
0
 10
-28.2408
 20
105.077
 11
-27.2013
 21
108.277
  0
LINE
  8
0
 10
-27.2013
 20
108.277
 11
-26.4372
 21
107.42
  0
LINE
  8
0
 10
-26.4372
 20
107.42
 11
-24.4533
 21
105.071
  0
LINE
  8
0
 10
-24.4533
 20
105.071
 11
-23.1139
 21
103.318
  0
LINE
  8
0
 10
-23.1139
 20
103.318
 11
-22.4208
 21
102.164
  0
LINE
  8
0
 10
-22.4208
 20
102.164
 11
-22.3714
 21
101.61
  0
LINE
  8
0
 10
-22.3714
 20
101.61
 11
-22.9619
 21
101.649
  0
LINE
  8
0
 10
21.2
 20
100.692
 11
20.4556
 21
100.976
  0
LINE
  8
0
 10
20.4556
 20
100.976
 11
19.4939
 21
101.458
  0
LINE
  8
0
 10
19.4939
 20
101.458
 11
18.3138
 21
102.136
  0
LINE
  8
0
 10
18.3138
 20
102.136
 11
17.5919
 21
102.588
  0
LINE
  8
0
 10
17.5919
 20
102.588
 11
19.839
 21
104.835
  0
LINE
  8
0
 10
19.839
 20
104.835
 11
20.3224
 21
104.208
  0
LINE
  8
0
 10
20.3224
 20
104.208
 11
21.0997
 21
103.115
  0
LINE
  8
0
 10
21.0997
 20
103.115
 11
21.6591
 21
102.218
  0
LINE
  8
0
 10
21.6591
 20
102.218
 11
22.0015
 21
101.518
  0
LINE
  8
0
 10
22.0015
 20
101.518
 11
22.126
 21
101.017
  0
LINE
  8
0
 10
22.126
 20
101.017
 11
22.034
 21
100.713
  0
LINE
  8
0
 10
22.034
 20
100.713
 11
21.7259
 21
100.604
  0
LINE
  8
0
 10
21.7259
 20
100.604
 11
21.2
 21
100.692
  0
LINE
  8
0
 10
-8.80005
 20
100.692
 11
-9.54437
 21
100.976
  0
LINE
  8
0
 10
-9.54437
 20
100.976
 11
-10.5061
 21
101.458
  0
LINE
  8
0
 10
-10.5061
 20
101.458
 11
-11.6862
 21
102.136
  0
LINE
  8
0
 10
-11.6862
 20
102.136
 11
-12.4081
 21
102.588
  0
LINE
  8
0
 10
-12.4081
 20
102.588
 11
-10.161
 21
104.835
  0
LINE
  8
0
 10
-10.161
 20
104.835
 11
-9.67758
 21
104.208
  0
LINE
  8
0
 10
-9.67758
 20
104.208
 11
-8.9003
 21
103.115
  0
LINE
  8
0
 10
-8.9003
 20
103.115
 11
-8.34091
 21
102.218
  0
LINE
  8
0
 10
-8.34091
 20
102.218
 11
-7.9985
 21
101.518
  0
LINE
  8
0
 10
-7.9985
 20
101.518
 11
-7.87399
 21
101.017
  0
LINE
  8
0
 10
-7.87399
 20
101.017
 11
-7.966
 21
100.713
  0
LINE
  8
0
 10
-7.966
 20
100.713
 11
-8.27408
 21
100.604
  0
LINE
  8
0
 10
-8.27408
 20
100.604
 11
-8.80005
 21
100.692
  0
LINE
  8
0
 10
-20.3224
 20
95.7918
 11
-21.0997
 21
96.8854
  0
LINE
  8
0
 10
-21.0997
 20
96.8854
 11
-21.6591
 21
97.7817
  0
LINE
  8
0
 10
-21.6591
 20
97.7817
 11
-22.0015
 21
98.4816
  0
LINE
  8
0
 10
-22.0015
 20
98.4816
 11
-22.126
 21
98.9828
  0
LINE
  8
0
 10
-22.126
 20
98.9828
 11
-22.034
 21
99.2868
  0
LINE
  8
0
 10
-22.034
 20
99.2868
 11
-21.7259
 21
99.3958
  0
LINE
  8
0
 10
-21.7259
 20
99.3958
 11
-21.2
 21
99.3079
  0
LINE
  8
0
 10
-21.2
 20
99.3079
 11
-20.4556
 21
99.0236
  0
LINE
  8
0
 10
-20.4556
 20
99.0236
 11
-19.4939
 21
98.542
  0
LINE
  8
0
 10
-19.4939
 20
98.542
 11
-18.3138
 21
97.8641
  0
LINE
  8
0
 10
-18.3138
 20
97.8641
 11
-17.5919
 21
97.4123
  0
LINE
  8
0
 10
-17.5919
 20
97.4123
 11
-19.839
 21
95.1651
  0
LINE
  8
0
 10
-19.839
 20
95.1651
 11
-20.3224
 21
95.7918
  0
LINE
  8
0
 10
9.67758
 20
95.7918
 11
8.9003
 21
96.8854
  0
LINE
  8
0
 10
8.9003
 20
96.8854
 11
8.34091
 21
97.7817
  0
LINE
  8
0
 10
8.34091
 20
97.7817
 11
7.9985
 21
98.4816
  0
LINE
  8
0
 10
7.9985
 20
98.4816
 11
7.87399
 21
98.9828
  0
LINE
  8
0
 10
7.87399
 20
98.9828
 11
7.966
 21
99.2868
  0
LINE
  8
0
 10
7.966
 20
99.2868
 11
8.27408
 21
99.3958
  0
LINE
  8
0
 10
8.27408
 20
99.3958
 11
8.80005
 21
99.3079
  0
LINE
  8
0
 10
8.80005
 20
99.3079
 11
9.54437
 21
99.0236
  0
LINE
  8
0
 10
9.54437
 20
99.0236
 11
10.5061
 21
98.542
  0
LINE
  8
0
 10
10.5061
 20
98.542
 11
11.6862
 21
97.8641
  0
LINE
  8
0
 10
11.6862
 20
97.8641
 11
12.4081
 21
97.4123
  0
LINE
  8
0
 10
12.4081
 20
97.4123
 11
10.161
 21
95.1651
  0
LINE
  8
0
 10
10.161
 20
95.1651
 11
9.67758
 21
95.7918
  0
LINE
  8
0
 10
-25.2306
 20
92.7911
 11
-26.7636
 21
94.8776
  0
LINE
  8
0
 10
-26.7636
 20
94.8776
 11
-27.9002
 21
96.5553
  0
LINE
  8
0
 10
-27.9002
 20
96.5553
 11
-28.6391
 21
97.8242
  0
LINE
  8
0
 10
-28.6391
 20
97.8242
 11
-28.9806
 21
98.6821
  0
LINE
  8
0
 10
-28.9806
 20
98.6821
 11
-28.9265
 21
99.1302
  0
LINE
  8
0
 10
-28.9265
 20
99.1302
 11
-28.4779
 21
99.1724
  0
LINE
  8
0
 10
-28.4779
 20
99.1724
 11
-27.6306
 21
98.8062
  0
LINE
  8
0
 10
-27.6306
 20
98.8062
 11
-26.3846
 21
98.0307
  0
LINE
  8
0
 10
-26.3846
 20
98.0307
 11
-24.7426
 21
96.8465
  0
LINE
  8
0
 10
-24.7426
 20
96.8465
 11
-22.7032
 21
95.253
  0
LINE
  8
0
 10
-22.7032
 20
95.253
 11
-21.0823
 21
93.9218
  0
LINE
  8
0
 10
-21.0823
 20
93.9218
 11
-23.914
 21
91.0901
  0
LINE
  8
0
 10
-23.914
 20
91.0901
 11
-25.2306
 21
92.7911
  0
LINE
  8
0
 10
4.76944
 20
92.7911
 11
3.23639
 21
94.8776
  0
LINE
  8
0
 10
3.23639
 20
94.8776
 11
2.09976
 21
96.5553
  0
LINE
  8
0
 10
2.09976
 20
96.5553
 11
1.36093
 21
97.8242
  0
LINE
  8
0
 10
1.36093
 20
97.8242
 11
1.01944
 21
98.6821
  0
LINE
  8
0
 10
1.01944
 20
98.6821
 11
1.07346
 21
99.1302
  0
LINE
  8
0
 10
1.07346
 20
99.1302
 11
1.52206
 21
99.1724
  0
LINE
  8
0
 10
1.52206
 20
99.1724
 11
2.36938
 21
98.8062
  0
LINE
  8
0
 10
2.36938
 20
98.8062
 11
3.61542
 21
98.0307
  0
LINE
  8
0
 10
3.61542
 20
98.0307
 11
5.25742
 21
96.8465
  0
LINE
  8
0
 10
5.25742
 20
96.8465
 11
7.29675
 21
95.253
  0
LINE
  8
0
 10
7.29675
 20
95.253
 11
8.91769
 21
93.9218
  0
LINE
  8
0
 10
8.91769
 20
93.9218
 11
6.08597
 21
91.0901
  0
LINE
  8
0
 10
6.08597
 20
91.0901
 11
4.76944
 21
92.7911
  0
LINE
  8
0
 10
29.0657
 20
89.633
 11
26.4372
 21
92.5801
  0
LINE
  8
0
 10
26.4372
 20
92.5801
 11
24.4533
 21
94.9294
  0
LINE
  8
0
 10
24.4533
 20
94.9294
 11
23.1139
 21
96.6821
  0
LINE
  8
0
 10
23.1139
 20
96.6821
 11
22.4208
 21
97.8357
  0
LINE
  8
0
 10
22.4208
 20
97.8357
 11
22.3714
 21
98.3896
  0
LINE
  8
0
 10
22.3714
 20
98.3896
 11
22.9619
 21
98.3511
  0
LINE
  8
0
 10
22.9619
 20
98.3511
 11
24.2006
 21
97.7158
  0
LINE
  8
0
 10
24.2006
 20
97.7158
 11
26.0852
 21
96.4825
  0
LINE
  8
0
 10
26.0852
 20
96.4825
 11
28.6143
 21
94.6524
  0
LINE
  8
0
 10
28.6143
 20
94.6524
 11
31.7871
 21
92.2253
  0
LINE
  8
0
 10
31.7871
 20
92.2253
 11
32.6348
 21
91.5539
  0
LINE
  8
0
 10
32.6348
 20
91.5539
 11
33.5949
 21
88.599
  0
LINE
  8
0
 10
33.5949
 20
88.599
 11
31.7368
 21
86.7409
  0
LINE
  8
0
 10
31.7368
 20
86.7409
 11
29.0657
 21
89.633
  0
LINE
  8
0
 10
-0.934296
 20
89.633
 11
-3.56277
 21
92.5801
  0
LINE
  8
0
 10
-3.56277
 20
92.5801
 11
-5.54672
 21
94.9294
  0
LINE
  8
0
 10
-5.54672
 20
94.9294
 11
-6.88614
 21
96.6821
  0
LINE
  8
0
 10
-6.88614
 20
96.6821
 11
-7.57919
 21
97.8357
  0
LINE
  8
0
 10
-7.57919
 20
97.8357
 11
-7.62863
 21
98.3896
  0
LINE
  8
0
 10
-7.62863
 20
98.3896
 11
-7.03812
 21
98.3511
  0
LINE
  8
0
 10
-7.03812
 20
98.3511
 11
-5.79941
 21
97.7158
  0
LINE
  8
0
 10
-5.79941
 20
97.7158
 11
-3.91479
 21
96.4825
  0
LINE
  8
0
 10
-3.91479
 20
96.4825
 11
-1.38565
 21
94.6524
  0
LINE
  8
0
 10
-1.38565
 20
94.6524
 11
1.78711
 21
92.2253
  0
LINE
  8
0
 10
1.78711
 20
92.2253
 11
4.81934
 21
89.8235
  0
LINE
  8
0
 10
4.81934
 20
89.8235
 11
1.73676
 21
86.7409
  0
LINE
  8
0
 10
1.73676
 20
86.7409
 11
-0.934296
 21
89.633
  0
LINE
  8
0
 10
-22.5792
 20
87.1643
 11
-21.8857
 21
88.3183
  0
LINE
  8
0
 10
-21.8857
 20
88.3183
 11
-20.5467
 21
90.0706
  0
LINE
  8
0
 10
-20.5467
 20
90.0706
 11
-18.5628
 21
92.4199
  0
LINE
  8
0
 10
-18.5628
 20
92.4199
 11
-15.9343
 21
95.367
  0
LINE
  8
0
 10
-15.9343
 20
95.367
 11
-13.2632
 21
98.2591
  0
LINE
  8
0
 10
-13.2632
 20
98.2591
 11
-10.1807
 21
95.1765
  0
LINE
  8
0
 10
-10.1807
 20
95.1765
 11
-13.2129
 21
92.7747
  0
LINE
  8
0
 10
-13.2129
 20
92.7747
 11
-16.3861
 21
90.3471
  0
LINE
  8
0
 10
-16.3861
 20
90.3471
 11
-18.9153
 21
88.517
  0
LINE
  8
0
 10
-18.9153
 20
88.517
 11
-20.7994
 21
87.2842
  0
LINE
  8
0
 10
-20.7994
 20
87.2842
 11
-22.0381
 21
86.6489
  0
LINE
  8
0
 10
-22.0381
 20
86.6489
 11
-22.6286
 21
86.6104
  0
LINE
  8
0
 10
-22.6286
 20
86.6104
 11
-22.5792
 21
87.1643
  0
LINE
  8
0
 10
7.42081
 20
87.1643
 11
8.11432
 21
88.3183
  0
LINE
  8
0
 10
8.11432
 20
88.3183
 11
9.45328
 21
90.0706
  0
LINE
  8
0
 10
9.45328
 20
90.0706
 11
11.4372
 21
92.4199
  0
LINE
  8
0
 10
11.4372
 20
92.4199
 11
14.0657
 21
95.367
  0
LINE
  8
0
 10
14.0657
 20
95.367
 11
16.7368
 21
98.2591
  0
LINE
  8
0
 10
16.7368
 20
98.2591
 11
19.8193
 21
95.1765
  0
LINE
  8
0
 10
19.8193
 20
95.1765
 11
16.7871
 21
92.7747
  0
LINE
  8
0
 10
16.7871
 20
92.7747
 11
13.6139
 21
90.3471
  0
LINE
  8
0
 10
13.6139
 20
90.3471
 11
11.0847
 21
88.517
  0
LINE
  8
0
 10
11.0847
 20
88.517
 11
9.20059
 21
87.2842
  0
LINE
  8
0
 10
9.20059
 20
87.2842
 11
7.96188
 21
86.6489
  0
LINE
  8
0
 10
7.96188
 20
86.6489
 11
7.37137
 21
86.6104
  0
LINE
  8
0
 10
7.37137
 20
86.6104
 11
7.42081
 21
87.1643
  0
LINE
  8
0
 10
-30.9343
 20
89.633
 11
-32.6382
 21
91.5434
  0
LINE
  8
0
 10
-32.6382
 20
91.5434
 11
-31.5819
 21
94.7944
  0
LINE
  8
0
 10
-31.5819
 20
94.7944
 11
-31.3857
 21
94.6524
  0
LINE
  8
0
 10
-31.3857
 20
94.6524
 11
-28.2129
 21
92.2253
  0
LINE
  8
0
 10
-28.2129
 20
92.2253
 11
-25.1807
 21
89.8235
  0
LINE
  8
0
 10
-25.1807
 20
89.8235
 11
-28.2632
 21
86.7409
  0
LINE
  8
0
 10
-28.2632
 20
86.7409
 11
-30.9343
 21
89.633
  0
LINE
  8
0
 10
16.0735
 20
85.8698
 11
16.0194
 21
86.3179
  0
LINE
  8
0
 10
16.0194
 20
86.3179
 11
16.3614
 21
87.1767
  0
LINE
  8
0
 10
16.3614
 20
87.1767
 11
17.0998
 21
88.4447
  0
LINE
  8
0
 10
17.0998
 20
88.4447
 11
18.2364
 21
90.1224
  0
LINE
  8
0
 10
18.2364
 20
90.1224
 11
19.7694
 21
92.2089
  0
LINE
  8
0
 10
19.7694
 20
92.2089
 11
21.0855
 21
93.9104
  0
LINE
  8
0
 10
21.0855
 20
93.9104
 11
23.9172
 21
91.0786
  0
LINE
  8
0
 10
23.9172
 20
91.0786
 11
22.2968
 21
89.747
  0
LINE
  8
0
 10
22.2968
 20
89.747
 11
20.2574
 21
88.1535
  0
LINE
  8
0
 10
20.2574
 20
88.1535
 11
18.615
 21
86.9688
  0
LINE
  8
0
 10
18.615
 20
86.9688
 11
17.3694
 21
86.1938
  0
LINE
  8
0
 10
17.3694
 20
86.1938
 11
16.5221
 21
85.8276
  0
LINE
  8
0
 10
16.5221
 20
85.8276
 11
16.0735
 21
85.8698
  0
LINE
  8
0
 10
-13.9265
 20
85.8698
 11
-13.9806
 21
86.3179
  0
LINE
  8
0
 10
-13.9806
 20
86.3179
 11
-13.6386
 21
87.1767
  0
LINE
  8
0
 10
-13.6386
 20
87.1767
 11
-12.9002
 21
88.4447
  0
LINE
  8
0
 10
-12.9002
 20
88.4447
 11
-11.7636
 21
90.1224
  0
LINE
  8
0
 10
-11.7636
 20
90.1224
 11
-10.2306
 21
92.2089
  0
LINE
  8
0
 10
-10.2306
 20
92.2089
 11
-8.91449
 21
93.9104
  0
LINE
  8
0
 10
-8.91449
 20
93.9104
 11
-6.08276
 21
91.0786
  0
LINE
  8
0
 10
-6.08276
 20
91.0786
 11
-7.70325
 21
89.747
  0
LINE
  8
0
 10
-7.70325
 20
89.747
 11
-9.74258
 21
88.1535
  0
LINE
  8
0
 10
-9.74258
 20
88.1535
 11
-11.385
 21
86.9688
  0
LINE
  8
0
 10
-11.385
 20
86.9688
 11
-12.6306
 21
86.1938
  0
LINE
  8
0
 10
-12.6306
 20
86.1938
 11
-13.4779
 21
85.8276
  0
LINE
  8
0
 10
-13.4779
 20
85.8276
 11
-13.9265
 21
85.8698
  0
LINE
  8
0
 10
-7.034
 20
85.7132
 11
-7.12601
 21
86.0172
  0
LINE
  8
0
 10
-7.12601
 20
86.0172
 11
-7.0015
 21
86.5184
  0
LINE
  8
0
 10
-7.0015
 20
86.5184
 11
-6.65909
 21
87.2183
  0
LINE
  8
0
 10
-6.65909
 20
87.2183
 11
-6.0997
 21
88.1146
  0
LINE
  8
0
 10
-6.0997
 20
88.1146
 11
-5.32242
 21
89.2082
  0
LINE
  8
0
 10
-5.32242
 20
89.2082
 11
-4.83902
 21
89.8349
  0
LINE
  8
0
 10
-4.83902
 20
89.8349
 11
-2.59186
 21
87.5877
  0
LINE
  8
0
 10
-2.59186
 20
87.5877
 11
-3.31375
 21
87.1359
  0
LINE
  8
0
 10
-3.31375
 20
87.1359
 11
-4.49387
 21
86.458
  0
LINE
  8
0
 10
-4.49387
 20
86.458
 11
-5.45609
 21
85.9764
  0
LINE
  8
0
 10
-5.45609
 20
85.9764
 11
-6.19995
 21
85.6921
  0
LINE
  8
0
 10
-6.19995
 20
85.6921
 11
-6.72592
 21
85.6042
  0
LINE
  8
0
 10
-6.72592
 20
85.6042
 11
-7.034
 21
85.7132
  0
LINE
  8
0
 10
22.966
 20
85.7132
 11
22.874
 21
86.0172
  0
LINE
  8
0
 10
22.874
 20
86.0172
 11
22.9985
 21
86.5184
  0
LINE
  8
0
 10
22.9985
 20
86.5184
 11
23.3409
 21
87.2183
  0
LINE
  8
0
 10
23.3409
 20
87.2183
 11
23.9003
 21
88.1146
  0
LINE
  8
0
 10
23.9003
 20
88.1146
 11
24.6776
 21
89.2082
  0
LINE
  8
0
 10
24.6776
 20
89.2082
 11
25.161
 21
89.8349
  0
LINE
  8
0
 10
25.161
 20
89.8349
 11
27.4081
 21
87.5877
  0
LINE
  8
0
 10
27.4081
 20
87.5877
 11
26.6862
 21
87.1359
  0
LINE
  8
0
 10
26.6862
 20
87.1359
 11
25.5061
 21
86.458
  0
LINE
  8
0
 10
25.5061
 20
86.458
 11
24.5439
 21
85.9764
  0
LINE
  8
0
 10
24.5439
 20
85.9764
 11
23.8
 21
85.6921
  0
LINE
  8
0
 10
23.8
 20
85.6921
 11
23.2741
 21
85.6042
  0
LINE
  8
0
 10
23.2741
 20
85.6042
 11
22.966
 21
85.7132
  0
LINE
  8
0
 10
-33.5969
 20
88.5928
 11
-32.5919
 21
87.5877
  0
LINE
  8
0
 10
-32.5919
 20
87.5877
 11
-33.3138
 21
87.1359
  0
LINE
  8
0
 10
-33.3138
 20
87.1359
 11
-34.2439
 21
86.6016
  0
LINE
  8
0
 10
-34.2439
 20
86.6016
 11
-33.5969
 21
88.5928
  0
LINE
  8
0
 10
-27.4081
 20
82.4123
 11
-26.6862
 21
82.8641
  0
LINE
  8
0
 10
-26.6862
 20
82.8641
 11
-25.5061
 21
83.542
  0
LINE
  8
0
 10
-25.5061
 20
83.542
 11
-24.5439
 21
84.0236
  0
LINE
  8
0
 10
-24.5439
 20
84.0236
 11
-23.8
 21
84.3079
  0
LINE
  8
0
 10
-23.8
 20
84.3079
 11
-23.2741
 21
84.3958
  0
LINE
  8
0
 10
-23.2741
 20
84.3958
 11
-22.966
 21
84.2868
  0
LINE
  8
0
 10
-22.966
 20
84.2868
 11
-22.874
 21
83.9828
  0
LINE
  8
0
 10
-22.874
 20
83.9828
 11
-22.9985
 21
83.4811
  0
LINE
  8
0
 10
-22.9985
 20
83.4811
 11
-23.3409
 21
82.7817
  0
LINE
  8
0
 10
-23.3409
 20
82.7817
 11
-23.9008
 21
81.8849
  0
LINE
  8
0
 10
-23.9008
 20
81.8849
 11
-24.6776
 21
80.7918
  0
LINE
  8
0
 10
-24.6776
 20
80.7918
 11
-25.161
 21
80.1651
  0
LINE
  8
0
 10
-25.161
 20
80.1651
 11
-27.4081
 21
82.4123
  0
LINE
  8
0
 10
2.59186
 20
82.4123
 11
3.31375
 21
82.8641
  0
LINE
  8
0
 10
3.31375
 20
82.8641
 11
4.49387
 21
83.542
  0
LINE
  8
0
 10
4.49387
 20
83.542
 11
5.45609
 21
84.0236
  0
LINE
  8
0
 10
5.45609
 20
84.0236
 11
6.19995
 21
84.3079
  0
LINE
  8
0
 10
6.19995
 20
84.3079
 11
6.72592
 21
84.3958
  0
LINE
  8
0
 10
6.72592
 20
84.3958
 11
7.034
 21
84.2868
  0
LINE
  8
0
 10
7.034
 20
84.2868
 11
7.12601
 21
83.9828
  0
LINE
  8
0
 10
7.12601
 20
83.9828
 11
7.0015
 21
83.4811
  0
LINE
  8
0
 10
7.0015
 20
83.4811
 11
6.65909
 21
82.7817
  0
LINE
  8
0
 10
6.65909
 20
82.7817
 11
6.09924
 21
81.8849
  0
LINE
  8
0
 10
6.09924
 20
81.8849
 11
5.32242
 21
80.7918
  0
LINE
  8
0
 10
5.32242
 20
80.7918
 11
4.83902
 21
80.1651
  0
LINE
  8
0
 10
4.83902
 20
80.1651
 11
2.59186
 21
82.4123
  0
LINE
  8
0
 10
6.08276
 20
78.9214
 11
7.70325
 21
80.253
  0
LINE
  8
0
 10
7.70325
 20
80.253
 11
9.74258
 21
81.8465
  0
LINE
  8
0
 10
9.74258
 20
81.8465
 11
11.385
 21
83.0312
  0
LINE
  8
0
 10
11.385
 20
83.0312
 11
12.6306
 21
83.8062
  0
LINE
  8
0
 10
12.6306
 20
83.8062
 11
13.4779
 21
84.1724
  0
LINE
  8
0
 10
13.4779
 20
84.1724
 11
13.9265
 21
84.1302
  0
LINE
  8
0
 10
13.9265
 20
84.1302
 11
13.9806
 21
83.6821
  0
LINE
  8
0
 10
13.9806
 20
83.6821
 11
13.6386
 21
82.8233
  0
LINE
  8
0
 10
13.6386
 20
82.8233
 11
12.8998
 21
81.5544
  0
LINE
  8
0
 10
12.8998
 20
81.5544
 11
11.7636
 21
79.8776
  0
LINE
  8
0
 10
11.7636
 20
79.8776
 11
10.2306
 21
77.7911
  0
LINE
  8
0
 10
10.2306
 20
77.7911
 11
8.91449
 21
76.0896
  0
LINE
  8
0
 10
8.91449
 20
76.0896
 11
6.08276
 21
78.9214
  0
LINE
  8
0
 10
-23.9172
 20
78.9214
 11
-22.2968
 21
80.253
  0
LINE
  8
0
 10
-22.2968
 20
80.253
 11
-20.2574
 21
81.8465
  0
LINE
  8
0
 10
-20.2574
 20
81.8465
 11
-18.615
 21
83.0312
  0
LINE
  8
0
 10
-18.615
 20
83.0312
 11
-17.3694
 21
83.8062
  0
LINE
  8
0
 10
-17.3694
 20
83.8062
 11
-16.5221
 21
84.1724
  0
LINE
  8
0
 10
-16.5221
 20
84.1724
 11
-16.0735
 21
84.1302
  0
LINE
  8
0
 10
-16.0735
 20
84.1302
 11
-16.0194
 21
83.6821
  0
LINE
  8
0
 10
-16.0194
 20
83.6821
 11
-16.3614
 21
82.8233
  0
LINE
  8
0
 10
-16.3614
 20
82.8233
 11
-17.1002
 21
81.5544
  0
LINE
  8
0
 10
-17.1002
 20
81.5544
 11
-18.2364
 21
79.8776
  0
LINE
  8
0
 10
-18.2364
 20
79.8776
 11
-19.7694
 21
77.7911
  0
LINE
  8
0
 10
-19.7694
 20
77.7911
 11
-21.0855
 21
76.0896
  0
LINE
  8
0
 10
-21.0855
 20
76.0896
 11
-23.9172
 21
78.9214
  0
LINE
  8
0
 10
32.5919
 20
82.4123
 11
33.3138
 21
82.8641
  0
LINE
  8
0
 10
33.3138
 20
82.8641
 11
34.4939
 21
83.542
  0
LINE
  8
0
 10
34.4939
 20
83.542
 11
35.1339
 21
83.8624
  0
LINE
  8
0
 10
35.1339
 20
83.8624
 11
35.8777
 21
81.5732
  0
LINE
  8
0
 10
35.8777
 20
81.5732
 11
35.3224
 21
80.7918
  0
LINE
  8
0
 10
35.3224
 20
80.7918
 11
34.839
 21
80.1651
  0
LINE
  8
0
 10
34.839
 20
80.1651
 11
32.5919
 21
82.4123
  0
LINE
  8
0
 10
10.1807
 20
74.8235
 11
13.2129
 21
77.2253
  0
LINE
  8
0
 10
13.2129
 20
77.2253
 11
16.3861
 21
79.6529
  0
LINE
  8
0
 10
16.3861
 20
79.6529
 11
18.9153
 21
81.483
  0
LINE
  8
0
 10
18.9153
 20
81.483
 11
20.7994
 21
82.7158
  0
LINE
  8
0
 10
20.7994
 20
82.7158
 11
22.0381
 21
83.3511
  0
LINE
  8
0
 10
22.0381
 20
83.3511
 11
22.6286
 21
83.3896
  0
LINE
  8
0
 10
22.6286
 20
83.3896
 11
22.5792
 21
82.8357
  0
LINE
  8
0
 10
22.5792
 20
82.8357
 11
21.8857
 21
81.6817
  0
LINE
  8
0
 10
21.8857
 20
81.6817
 11
20.5463
 21
79.9289
  0
LINE
  8
0
 10
20.5463
 20
79.9289
 11
18.5628
 21
77.5801
  0
LINE
  8
0
 10
18.5628
 20
77.5801
 11
15.9343
 21
74.633
  0
LINE
  8
0
 10
15.9343
 20
74.633
 11
13.2632
 21
71.7409
  0
LINE
  8
0
 10
13.2632
 20
71.7409
 11
10.1807
 21
74.8235
  0
LINE
  8
0
 10
-19.8193
 20
74.8235
 11
-16.7871
 21
77.2253
  0
LINE
  8
0
 10
-16.7871
 20
77.2253
 11
-13.6139
 21
79.6529
  0
LINE
  8
0
 10
-13.6139
 20
79.6529
 11
-11.0847
 21
81.483
  0
LINE
  8
0
 10
-11.0847
 20
81.483
 11
-9.20059
 21
82.7158
  0
LINE
  8
0
 10
-9.20059
 20
82.7158
 11
-7.96188
 21
83.3511
  0
LINE
  8
0
 10
-7.96188
 20
83.3511
 11
-7.37137
 21
83.3896
  0
LINE
  8
0
 10
-7.37137
 20
83.3896
 11
-7.42081
 21
82.8357
  0
LINE
  8
0
 10
-7.42081
 20
82.8357
 11
-8.11432
 21
81.6817
  0
LINE
  8
0
 10
-8.11432
 20
81.6817
 11
-9.45374
 21
79.9289
  0
LINE
  8
0
 10
-9.45374
 20
79.9289
 11
-11.4372
 21
77.5801
  0
LINE
  8
0
 10
-11.4372
 20
77.5801
 11
-14.0657
 21
74.633
  0
LINE
  8
0
 10
-14.0657
 20
74.633
 11
-16.7368
 21
71.7409
  0
LINE
  8
0
 10
-16.7368
 20
71.7409
 11
-19.8193
 21
74.8235
  0
LINE
  8
0
 10
7.03812
 20
71.6489
 11
5.79941
 21
72.2842
  0
LINE
  8
0
 10
5.79941
 20
72.2842
 11
3.91479
 21
73.5175
  0
LINE
  8
0
 10
3.91479
 20
73.5175
 11
1.38565
 21
75.3476
  0
LINE
  8
0
 10
1.38565
 20
75.3476
 11
-1.78711
 21
77.7747
  0
LINE
  8
0
 10
-1.78711
 20
77.7747
 11
-4.81934
 21
80.1765
  0
LINE
  8
0
 10
-4.81934
 20
80.1765
 11
-1.73676
 21
83.2591
  0
LINE
  8
0
 10
-1.73676
 20
83.2591
 11
0.934296
 21
80.367
  0
LINE
  8
0
 10
0.934296
 20
80.367
 11
3.56277
 21
77.4199
  0
LINE
  8
0
 10
3.56277
 20
77.4199
 11
5.54672
 21
75.0706
  0
LINE
  8
0
 10
5.54672
 20
75.0706
 11
6.88614
 21
73.3179
  0
LINE
  8
0
 10
6.88614
 20
73.3179
 11
7.57919
 21
72.1643
  0
LINE
  8
0
 10
7.57919
 20
72.1643
 11
7.62863
 21
71.6104
  0
LINE
  8
0
 10
7.62863
 20
71.6104
 11
7.03812
 21
71.6489
  0
LINE
  8
0
 10
37.0381
 20
71.6489
 11
35.7994
 21
72.2842
  0
LINE
  8
0
 10
35.7994
 20
72.2842
 11
33.9148
 21
73.5175
  0
LINE
  8
0
 10
33.9148
 20
73.5175
 11
31.3857
 21
75.3476
  0
LINE
  8
0
 10
31.3857
 20
75.3476
 11
28.2129
 21
77.7747
  0
LINE
  8
0
 10
28.2129
 20
77.7747
 11
25.1807
 21
80.1765
  0
LINE
  8
0
 10
25.1807
 20
80.1765
 11
28.2632
 21
83.2591
  0
LINE
  8
0
 10
28.2632
 20
83.2591
 11
30.9343
 21
80.367
  0
LINE
  8
0
 10
30.9343
 20
80.367
 11
33.5628
 21
77.4199
  0
LINE
  8
0
 10
33.5628
 20
77.4199
 11
35.5467
 21
75.0706
  0
LINE
  8
0
 10
35.5467
 20
75.0706
 11
36.8861
 21
73.3179
  0
LINE
  8
0
 10
36.8861
 20
73.3179
 11
37.5792
 21
72.1643
  0
LINE
  8
0
 10
37.5792
 20
72.1643
 11
37.6286
 21
71.6104
  0
LINE
  8
0
 10
37.6286
 20
71.6104
 11
37.0381
 21
71.6489
  0
LINE
  8
0
 10
-22.9619
 20
71.6489
 11
-24.2006
 21
72.2842
  0
LINE
  8
0
 10
-24.2006
 20
72.2842
 11
-26.0852
 21
73.5175
  0
LINE
  8
0
 10
-26.0852
 20
73.5175
 11
-28.6143
 21
75.3476
  0
LINE
  8
0
 10
-28.6143
 20
75.3476
 11
-31.7871
 21
77.7747
  0
LINE
  8
0
 10
-31.7871
 20
77.7747
 11
-34.8193
 21
80.1765
  0
LINE
  8
0
 10
-34.8193
 20
80.1765
 11
-31.7368
 21
83.2591
  0
LINE
  8
0
 10
-31.7368
 20
83.2591
 11
-29.0657
 21
80.367
  0
LINE
  8
0
 10
-29.0657
 20
80.367
 11
-26.4372
 21
77.4199
  0
LINE
  8
0
 10
-26.4372
 20
77.4199
 11
-24.4533
 21
75.0706
  0
LINE
  8
0
 10
-24.4533
 20
75.0706
 11
-23.1139
 21
73.3179
  0
LINE
  8
0
 10
-23.1139
 20
73.3179
 11
-22.4208
 21
72.1643
  0
LINE
  8
0
 10
-22.4208
 20
72.1643
 11
-22.3714
 21
71.6104
  0
LINE
  8
0
 10
-22.3714
 20
71.6104
 11
-22.9619
 21
71.6489
  0
LINE
  8
0
 10
36.0828
 20
78.9214
 11
36.601
 21
79.3472
  0
LINE
  8
0
 10
36.601
 20
79.3472
 11
37.0554
 21
77.9488
  0
LINE
  8
0
 10
37.0554
 20
77.9488
 11
36.0828
 21
78.9214
  0
LINE
  8
0
 10
27.6306
 20
71.1938
 11
26.3846
 21
71.9693
  0
LINE
  8
0
 10
26.3846
 20
71.9693
 11
24.7426
 21
73.1535
  0
LINE
  8
0
 10
24.7426
 20
73.1535
 11
22.7032
 21
74.747
  0
LINE
  8
0
 10
22.7032
 20
74.747
 11
21.0823
 21
76.0782
  0
LINE
  8
0
 10
21.0823
 20
76.0782
 11
23.914
 21
78.9099
  0
LINE
  8
0
 10
23.914
 20
78.9099
 11
25.2306
 21
77.2089
  0
LINE
  8
0
 10
25.2306
 20
77.2089
 11
26.7636
 21
75.1224
  0
LINE
  8
0
 10
26.7636
 20
75.1224
 11
27.9002
 21
73.4447
  0
LINE
  8
0
 10
27.9002
 20
73.4447
 11
28.6391
 21
72.1758
  0
LINE
  8
0
 10
28.6391
 20
72.1758
 11
28.9806
 21
71.3179
  0
LINE
  8
0
 10
28.9806
 20
71.3179
 11
28.9265
 21
70.8698
  0
LINE
  8
0
 10
28.9265
 20
70.8698
 11
28.4779
 21
70.8276
  0
LINE
  8
0
 10
28.4779
 20
70.8276
 11
27.6306
 21
71.1938
  0
LINE
  8
0
 10
-32.3694
 20
71.1938
 11
-33.6154
 21
71.9693
  0
LINE
  8
0
 10
-33.6154
 20
71.9693
 11
-35.2574
 21
73.1535
  0
LINE
  8
0
 10
-35.2574
 20
73.1535
 11
-37.2968
 21
74.747
  0
LINE
  8
0
 10
-37.2968
 20
74.747
 11
-37.9274
 21
75.2649
  0
LINE
  8
0
 10
-37.9274
 20
75.2649
 11
-37.0593
 21
77.9366
  0
LINE
  8
0
 10
-37.0593
 20
77.9366
 11
-36.086
 21
78.9099
  0
LINE
  8
0
 10
-36.086
 20
78.9099
 11
-34.7694
 21
77.2089
  0
LINE
  8
0
 10
-34.7694
 20
77.2089
 11
-33.2364
 21
75.1224
  0
LINE
  8
0
 10
-33.2364
 20
75.1224
 11
-32.0998
 21
73.4447
  0
LINE
  8
0
 10
-32.0998
 20
73.4447
 11
-31.3609
 21
72.1758
  0
LINE
  8
0
 10
-31.3609
 20
72.1758
 11
-31.0194
 21
71.3179
  0
LINE
  8
0
 10
-31.0194
 20
71.3179
 11
-31.0735
 21
70.8698
  0
LINE
  8
0
 10
-31.0735
 20
70.8698
 11
-31.5221
 21
70.8276
  0
LINE
  8
0
 10
-31.5221
 20
70.8276
 11
-32.3694
 21
71.1938
  0
LINE
  8
0
 10
-2.36938
 20
71.1938
 11
-3.61542
 21
71.9693
  0
LINE
  8
0
 10
-3.61542
 20
71.9693
 11
-5.25742
 21
73.1535
  0
LINE
  8
0
 10
-5.25742
 20
73.1535
 11
-7.29675
 21
74.747
  0
LINE
  8
0
 10
-7.29675
 20
74.747
 11
-8.91769
 21
76.0782
  0
LINE
  8
0
 10
-8.91769
 20
76.0782
 11
-6.08597
 21
78.9099
  0
LINE
  8
0
 10
-6.08597
 20
78.9099
 11
-4.76944
 21
77.2089
  0
LINE
  8
0
 10
-4.76944
 20
77.2089
 11
-3.23639
 21
75.1224
  0
LINE
  8
0
 10
-3.23639
 20
75.1224
 11
-2.09976
 21
73.4447
  0
LINE
  8
0
 10
-2.09976
 20
73.4447
 11
-1.36093
 21
72.1758
  0
LINE
  8
0
 10
-1.36093
 20
72.1758
 11
-1.01944
 21
71.3179
  0
LINE
  8
0
 10
-1.01944
 20
71.3179
 11
-1.07346
 21
70.8698
  0
LINE
  8
0
 10
-1.07346
 20
70.8698
 11
-1.52206
 21
70.8276
  0
LINE
  8
0
 10
-1.52206
 20
70.8276
 11
-2.36938
 21
71.1938
  0
LINE
  8
0
 10
21.2
 20
70.6921
 11
20.4556
 21
70.9764
  0
LINE
  8
0
 10
20.4556
 20
70.9764
 11
19.4939
 21
71.458
  0
LINE
  8
0
 10
19.4939
 20
71.458
 11
18.3138
 21
72.1359
  0
LINE
  8
0
 10
18.3138
 20
72.1359
 11
17.5919
 21
72.5877
  0
LINE
  8
0
 10
17.5919
 20
72.5877
 11
19.839
 21
74.8349
  0
LINE
  8
0
 10
19.839
 20
74.8349
 11
20.3224
 21
74.2082
  0
LINE
  8
0
 10
20.3224
 20
74.2082
 11
21.0997
 21
73.1146
  0
LINE
  8
0
 10
21.0997
 20
73.1146
 11
21.6591
 21
72.2183
  0
LINE
  8
0
 10
21.6591
 20
72.2183
 11
22.0015
 21
71.5184
  0
LINE
  8
0
 10
22.0015
 20
71.5184
 11
22.126
 21
71.0172
  0
LINE
  8
0
 10
22.126
 20
71.0172
 11
22.034
 21
70.7132
  0
LINE
  8
0
 10
22.034
 20
70.7132
 11
21.7259
 21
70.6042
  0
LINE
  8
0
 10
21.7259
 20
70.6042
 11
21.2
 21
70.6921
  0
LINE
  8
0
 10
-8.80005
 20
70.6921
 11
-9.54437
 21
70.9764
  0
LINE
  8
0
 10
-9.54437
 20
70.9764
 11
-10.5061
 21
71.458
  0
LINE
  8
0
 10
-10.5061
 20
71.458
 11
-11.6862
 21
72.1359
  0
LINE
  8
0
 10
-11.6862
 20
72.1359
 11
-12.4081
 21
72.5877
  0
LINE
  8
0
 10
-12.4081
 20
72.5877
 11
-10.161
 21
74.8349
  0
LINE
  8
0
 10
-10.161
 20
74.8349
 11
-9.67758
 21
74.2082
  0
LINE
  8
0
 10
-9.67758
 20
74.2082
 11
-8.9003
 21
73.1146
  0
LINE
  8
0
 10
-8.9003
 20
73.1146
 11
-8.34091
 21
72.2183
  0
LINE
  8
0
 10
-8.34091
 20
72.2183
 11
-7.9985
 21
71.5184
  0
LINE
  8
0
 10
-7.9985
 20
71.5184
 11
-7.87399
 21
71.0172
  0
LINE
  8
0
 10
-7.87399
 20
71.0172
 11
-7.966
 21
70.7132
  0
LINE
  8
0
 10
-7.966
 20
70.7132
 11
-8.27408
 21
70.6042
  0
LINE
  8
0
 10
-8.27408
 20
70.6042
 11
-8.80005
 21
70.6921
  0
LINE
  8
0
 10
-38.8
 20
70.6921
 11
-39.3455
 21
70.9005
  0
LINE
  8
0
 10
-39.3455
 20
70.9005
 11
-38.72
 21
72.8257
  0
LINE
  8
0
 10
-38.72
 20
72.8257
 11
-38.3409
 21
72.2183
  0
LINE
  8
0
 10
-38.3409
 20
72.2183
 11
-37.9985
 21
71.5184
  0
LINE
  8
0
 10
-37.9985
 20
71.5184
 11
-37.874
 21
71.0172
  0
LINE
  8
0
 10
-37.874
 20
71.0172
 11
-37.966
 21
70.7132
  0
LINE
  8
0
 10
-37.966
 20
70.7132
 11
-38.2741
 21
70.6042
  0
LINE
  8
0
 10
-38.2741
 20
70.6042
 11
-38.8
 21
70.6921
  0
LINE
  8
0
 10
39.6776
 20
65.7918
 11
38.9003
 21
66.8854
  0
LINE
  8
0
 10
38.9003
 20
66.8854
 11
38.3409
 21
67.7817
  0
LINE
  8
0
 10
38.3409
 20
67.7817
 11
37.9985
 21
68.4816
  0
LINE
  8
0
 10
37.9985
 20
68.4816
 11
37.874
 21
68.9828
  0
LINE
  8
0
 10
37.874
 20
68.9828
 11
37.966
 21
69.2868
  0
LINE
  8
0
 10
37.966
 20
69.2868
 11
38.2741
 21
69.3958
  0
LINE
  8
0
 10
38.2741
 20
69.3958
 11
38.8
 21
69.3079
  0
LINE
  8
0
 10
38.8
 20
69.3079
 11
39.5444
 21
69.0236
  0
LINE
  8
0
 10
39.5444
 20
69.0236
 11
40.0352
 21
68.7778
  0
LINE
  8
0
 10
40.0352
 20
68.7778
 11
40.952
 21
65.9561
  0
LINE
  8
0
 10
40.952
 20
65.9561
 11
40.161
 21
65.1651
  0
LINE
  8
0
 10
40.161
 20
65.1651
 11
39.6776
 21
65.7918
  0
LINE
  8
0
 10
9.67758
 20
65.7918
 11
8.9003
 21
66.8854
  0
LINE
  8
0
 10
8.9003
 20
66.8854
 11
8.34091
 21
67.7817
  0
LINE
  8
0
 10
8.34091
 20
67.7817
 11
7.9985
 21
68.4816
  0
LINE
  8
0
 10
7.9985
 20
68.4816
 11
7.87399
 21
68.9828
  0
LINE
  8
0
 10
7.87399
 20
68.9828
 11
7.966
 21
69.2868
  0
LINE
  8
0
 10
7.966
 20
69.2868
 11
8.27408
 21
69.3958
  0
LINE
  8
0
 10
8.27408
 20
69.3958
 11
8.80005
 21
69.3079
  0
LINE
  8
0
 10
8.80005
 20
69.3079
 11
9.54437
 21
69.0236
  0
LINE
  8
0
 10
9.54437
 20
69.0236
 11
10.5061
 21
68.542
  0
LINE
  8
0
 10
10.5061
 20
68.542
 11
11.6862
 21
67.8641
  0
LINE
  8
0
 10
11.6862
 20
67.8641
 11
12.4081
 21
67.4123
  0
LINE
  8
0
 10
12.4081
 20
67.4123
 11
10.161
 21
65.1651
  0
LINE
  8
0
 10
10.161
 20
65.1651
 11
9.67758
 21
65.7918
  0
LINE
  8
0
 10
-20.3224
 20
65.7918
 11
-21.0997
 21
66.8854
  0
LINE
  8
0
 10
-21.0997
 20
66.8854
 11
-21.6591
 21
67.7817
  0
LINE
  8
0
 10
-21.6591
 20
67.7817
 11
-22.0015
 21
68.4816
  0
LINE
  8
0
 10
-22.0015
 20
68.4816
 11
-22.126
 21
68.9828
  0
LINE
  8
0
 10
-22.126
 20
68.9828
 11
-22.034
 21
69.2868
  0
LINE
  8
0
 10
-22.034
 20
69.2868
 11
-21.7259
 21
69.3958
  0
LINE
  8
0
 10
-21.7259
 20
69.3958
 11
-21.2
 21
69.3079
  0
LINE
  8
0
 10
-21.2
 20
69.3079
 11
-20.4556
 21
69.0236
  0
LINE
  8
0
 10
-20.4556
 20
69.0236
 11
-19.4939
 21
68.542
  0
LINE
  8
0
 10
-19.4939
 20
68.542
 11
-18.3138
 21
67.8641
  0
LINE
  8
0
 10
-18.3138
 20
67.8641
 11
-17.5919
 21
67.4123
  0
LINE
  8
0
 10
-17.5919
 20
67.4123
 11
-19.839
 21
65.1651
  0
LINE
  8
0
 10
-19.839
 20
65.1651
 11
-20.3224
 21
65.7918
  0
LINE
  8
0
 10
4.76944
 20
62.7911
 11
3.23639
 21
64.8776
  0
LINE
  8
0
 10
3.23639
 20
64.8776
 11
2.09976
 21
66.5553
  0
LINE
  8
0
 10
2.09976
 20
66.5553
 11
1.36093
 21
67.8242
  0
LINE
  8
0
 10
1.36093
 20
67.8242
 11
1.01944
 21
68.6821
  0
LINE
  8
0
 10
1.01944
 20
68.6821
 11
1.07346
 21
69.1302
  0
LINE
  8
0
 10
1.07346
 20
69.1302
 11
1.52206
 21
69.1724
  0
LINE
  8
0
 10
1.52206
 20
69.1724
 11
2.36938
 21
68.8062
  0
LINE
  8
0
 10
2.36938
 20
68.8062
 11
3.61542
 21
68.0307
  0
LINE
  8
0
 10
3.61542
 20
68.0307
 11
5.25742
 21
66.8465
  0
LINE
  8
0
 10
5.25742
 20
66.8465
 11
7.29675
 21
65.253
  0
LINE
  8
0
 10
7.29675
 20
65.253
 11
8.91769
 21
63.9218
  0
LINE
  8
0
 10
8.91769
 20
63.9218
 11
6.08597
 21
61.0901
  0
LINE
  8
0
 10
6.08597
 20
61.0901
 11
4.76944
 21
62.7911
  0
LINE
  8
0
 10
-25.2306
 20
62.7911
 11
-26.7636
 21
64.8776
  0
LINE
  8
0
 10
-26.7636
 20
64.8776
 11
-27.9002
 21
66.5553
  0
LINE
  8
0
 10
-27.9002
 20
66.5553
 11
-28.6391
 21
67.8242
  0
LINE
  8
0
 10
-28.6391
 20
67.8242
 11
-28.9806
 21
68.6821
  0
LINE
  8
0
 10
-28.9806
 20
68.6821
 11
-28.9265
 21
69.1302
  0
LINE
  8
0
 10
-28.9265
 20
69.1302
 11
-28.4779
 21
69.1724
  0
LINE
  8
0
 10
-28.4779
 20
69.1724
 11
-27.6306
 21
68.8062
  0
LINE
  8
0
 10
-27.6306
 20
68.8062
 11
-26.3846
 21
68.0307
  0
LINE
  8
0
 10
-26.3846
 20
68.0307
 11
-24.7426
 21
66.8465
  0
LINE
  8
0
 10
-24.7426
 20
66.8465
 11
-22.7032
 21
65.253
  0
LINE
  8
0
 10
-22.7032
 20
65.253
 11
-21.0823
 21
63.9218
  0
LINE
  8
0
 10
-21.0823
 20
63.9218
 11
-23.914
 21
61.0901
  0
LINE
  8
0
 10
-23.914
 20
61.0901
 11
-25.2306
 21
62.7911
  0
LINE
  8
0
 10
34.7694
 20
62.7911
 11
33.2364
 21
64.8776
  0
LINE
  8
0
 10
33.2364
 20
64.8776
 11
32.0998
 21
66.5553
  0
LINE
  8
0
 10
32.0998
 20
66.5553
 11
31.3609
 21
67.8242
  0
LINE
  8
0
 10
31.3609
 20
67.8242
 11
31.0194
 21
68.6821
  0
LINE
  8
0
 10
31.0194
 20
68.6821
 11
31.0735
 21
69.1302
  0
LINE
  8
0
 10
31.0735
 20
69.1302
 11
31.5221
 21
69.1724
  0
LINE
  8
0
 10
31.5221
 20
69.1724
 11
32.3694
 21
68.8062
  0
LINE
  8
0
 10
32.3694
 20
68.8062
 11
33.6154
 21
68.0307
  0
LINE
  8
0
 10
33.6154
 20
68.0307
 11
35.2574
 21
66.8465
  0
LINE
  8
0
 10
35.2574
 20
66.8465
 11
37.2968
 21
65.253
  0
LINE
  8
0
 10
37.2968
 20
65.253
 11
38.9177
 21
63.9218
  0
LINE
  8
0
 10
38.9177
 20
63.9218
 11
36.086
 21
61.0901
  0
LINE
  8
0
 10
36.086
 20
61.0901
 11
34.7694
 21
62.7911
  0
LINE
  8
0
 10
-0.934296
 20
59.633
 11
-3.56277
 21
62.5801
  0
LINE
  8
0
 10
-3.56277
 20
62.5801
 11
-5.54672
 21
64.9294
  0
LINE
  8
0
 10
-5.54672
 20
64.9294
 11
-6.88614
 21
66.6821
  0
LINE
  8
0
 10
-6.88614
 20
66.6821
 11
-7.57919
 21
67.8357
  0
LINE
  8
0
 10
-7.57919
 20
67.8357
 11
-7.62863
 21
68.3896
  0
LINE
  8
0
 10
-7.62863
 20
68.3896
 11
-7.03812
 21
68.3511
  0
LINE
  8
0
 10
-7.03812
 20
68.3511
 11
-5.79941
 21
67.7158
  0
LINE
  8
0
 10
-5.79941
 20
67.7158
 11
-3.91479
 21
66.4825
  0
LINE
  8
0
 10
-3.91479
 20
66.4825
 11
-1.38565
 21
64.6524
  0
LINE
  8
0
 10
-1.38565
 20
64.6524
 11
1.78711
 21
62.2253
  0
LINE
  8
0
 10
1.78711
 20
62.2253
 11
4.81934
 21
59.8235
  0
LINE
  8
0
 10
4.81934
 20
59.8235
 11
1.73676
 21
56.7409
  0
LINE
  8
0
 10
1.73676
 20
56.7409
 11
-0.934296
 21
59.633
  0
LINE
  8
0
 10
-30.9343
 20
59.633
 11
-33.5628
 21
62.5801
  0
LINE
  8
0
 10
-33.5628
 20
62.5801
 11
-35.5467
 21
64.9294
  0
LINE
  8
0
 10
-35.5467
 20
64.9294
 11
-36.8861
 21
66.6821
  0
LINE
  8
0
 10
-36.8861
 20
66.6821
 11
-37.5792
 21
67.8357
  0
LINE
  8
0
 10
-37.5792
 20
67.8357
 11
-37.6286
 21
68.3896
  0
LINE
  8
0
 10
-37.6286
 20
68.3896
 11
-37.0381
 21
68.3511
  0
LINE
  8
0
 10
-37.0381
 20
68.3511
 11
-35.7994
 21
67.7158
  0
LINE
  8
0
 10
-35.7994
 20
67.7158
 11
-33.9148
 21
66.4825
  0
LINE
  8
0
 10
-33.9148
 20
66.4825
 11
-31.3857
 21
64.6524
  0
LINE
  8
0
 10
-31.3857
 20
64.6524
 11
-28.2129
 21
62.2253
  0
LINE
  8
0
 10
-28.2129
 20
62.2253
 11
-25.1807
 21
59.8235
  0
LINE
  8
0
 10
-25.1807
 20
59.8235
 11
-28.2632
 21
56.7409
  0
LINE
  8
0
 10
-28.2632
 20
56.7409
 11
-30.9343
 21
59.633
  0
LINE
  8
0
 10
29.0657
 20
59.633
 11
26.4372
 21
62.5801
  0
LINE
  8
0
 10
26.4372
 20
62.5801
 11
24.4533
 21
64.9294
  0
LINE
  8
0
 10
24.4533
 20
64.9294
 11
23.1139
 21
66.6821
  0
LINE
  8
0
 10
23.1139
 20
66.6821
 11
22.4208
 21
67.8357
  0
LINE
  8
0
 10
22.4208
 20
67.8357
 11
22.3714
 21
68.3896
  0
LINE
  8
0
 10
22.3714
 20
68.3896
 11
22.9619
 21
68.3511
  0
LINE
  8
0
 10
22.9619
 20
68.3511
 11
24.2006
 21
67.7158
  0
LINE
  8
0
 10
24.2006
 20
67.7158
 11
26.0852
 21
66.4825
  0
LINE
  8
0
 10
26.0852
 20
66.4825
 11
28.6143
 21
64.6524
  0
LINE
  8
0
 10
28.6143
 20
64.6524
 11
31.7871
 21
62.2253
  0
LINE
  8
0
 10
31.7871
 20
62.2253
 11
34.8193
 21
59.8235
  0
LINE
  8
0
 10
34.8193
 20
59.8235
 11
31.7368
 21
56.7409
  0
LINE
  8
0
 10
31.7368
 20
56.7409
 11
29.0657
 21
59.633
  0
LINE
  8
0
 10
7.42081
 20
57.1643
 11
8.11432
 21
58.3183
  0
LINE
  8
0
 10
8.11432
 20
58.3183
 11
9.45328
 21
60.0706
  0
LINE
  8
0
 10
9.45328
 20
60.0706
 11
11.4372
 21
62.4199
  0
LINE
  8
0
 10
11.4372
 20
62.4199
 11
14.0657
 21
65.367
  0
LINE
  8
0
 10
14.0657
 20
65.367
 11
16.7368
 21
68.2591
  0
LINE
  8
0
 10
16.7368
 20
68.2591
 11
19.8193
 21
65.1765
  0
LINE
  8
0
 10
19.8193
 20
65.1765
 11
16.7871
 21
62.7747
  0
LINE
  8
0
 10
16.7871
 20
62.7747
 11
13.6139
 21
60.3471
  0
LINE
  8
0
 10
13.6139
 20
60.3471
 11
11.0847
 21
58.517
  0
LINE
  8
0
 10
11.0847
 20
58.517
 11
9.20059
 21
57.2842
  0
LINE
  8
0
 10
9.20059
 20
57.2842
 11
7.96188
 21
56.6489
  0
LINE
  8
0
 10
7.96188
 20
56.6489
 11
7.37137
 21
56.6104
  0
LINE
  8
0
 10
7.37137
 20
56.6104
 11
7.42081
 21
57.1643
  0
LINE
  8
0
 10
-22.5792
 20
57.1643
 11
-21.8857
 21
58.3183
  0
LINE
  8
0
 10
-21.8857
 20
58.3183
 11
-20.5467
 21
60.0706
  0
LINE
  8
0
 10
-20.5467
 20
60.0706
 11
-18.5628
 21
62.4199
  0
LINE
  8
0
 10
-18.5628
 20
62.4199
 11
-15.9343
 21
65.367
  0
LINE
  8
0
 10
-15.9343
 20
65.367
 11
-13.2632
 21
68.2591
  0
LINE
  8
0
 10
-13.2632
 20
68.2591
 11
-10.1807
 21
65.1765
  0
LINE
  8
0
 10
-10.1807
 20
65.1765
 11
-13.2129
 21
62.7747
  0
LINE
  8
0
 10
-13.2129
 20
62.7747
 11
-16.3861
 21
60.3471
  0
LINE
  8
0
 10
-16.3861
 20
60.3471
 11
-18.9153
 21
58.517
  0
LINE
  8
0
 10
-18.9153
 20
58.517
 11
-20.7994
 21
57.2842
  0
LINE
  8
0
 10
-20.7994
 20
57.2842
 11
-22.0381
 21
56.6489
  0
LINE
  8
0
 10
-22.0381
 20
56.6489
 11
-22.6286
 21
56.6104
  0
LINE
  8
0
 10
-22.6286
 20
56.6104
 11
-22.5792
 21
57.1643
  0
LINE
  8
0
 10
-40.954
 20
65.9499
 11
-40.1807
 21
65.1765
  0
LINE
  8
0
 10
-40.1807
 20
65.1765
 11
-41.5604
 21
64.0836
  0
LINE
  8
0
 10
-41.5604
 20
64.0836
 11
-40.954
 21
65.9499
  0
LINE
  8
0
 10
16.0735
 20
55.8698
 11
16.0194
 21
56.3179
  0
LINE
  8
0
 10
16.0194
 20
56.3179
 11
16.3614
 21
57.1767
  0
LINE
  8
0
 10
16.3614
 20
57.1767
 11
17.0998
 21
58.4447
  0
LINE
  8
0
 10
17.0998
 20
58.4447
 11
18.2364
 21
60.1224
  0
LINE
  8
0
 10
18.2364
 20
60.1224
 11
19.7694
 21
62.2089
  0
LINE
  8
0
 10
19.7694
 20
62.2089
 11
21.0855
 21
63.9104
  0
LINE
  8
0
 10
21.0855
 20
63.9104
 11
23.9172
 21
61.0786
  0
LINE
  8
0
 10
23.9172
 20
61.0786
 11
22.2968
 21
59.747
  0
LINE
  8
0
 10
22.2968
 20
59.747
 11
20.2574
 21
58.1535
  0
LINE
  8
0
 10
20.2574
 20
58.1535
 11
18.615
 21
56.9688
  0
LINE
  8
0
 10
18.615
 20
56.9688
 11
17.3694
 21
56.1938
  0
LINE
  8
0
 10
17.3694
 20
56.1938
 11
16.5221
 21
55.8276
  0
LINE
  8
0
 10
16.5221
 20
55.8276
 11
16.0735
 21
55.8698
  0
LINE
  8
0
 10
-13.9265
 20
55.8698
 11
-13.9806
 21
56.3179
  0
LINE
  8
0
 10
-13.9806
 20
56.3179
 11
-13.6386
 21
57.1767
  0
LINE
  8
0
 10
-13.6386
 20
57.1767
 11
-12.9002
 21
58.4447
  0
LINE
  8
0
 10
-12.9002
 20
58.4447
 11
-11.7636
 21
60.1224
  0
LINE
  8
0
 10
-11.7636
 20
60.1224
 11
-10.2306
 21
62.2089
  0
LINE
  8
0
 10
-10.2306
 20
62.2089
 11
-8.91449
 21
63.9104
  0
LINE
  8
0
 10
-8.91449
 20
63.9104
 11
-6.08276
 21
61.0786
  0
LINE
  8
0
 10
-6.08276
 20
61.0786
 11
-7.70325
 21
59.747
  0
LINE
  8
0
 10
-7.70325
 20
59.747
 11
-9.74258
 21
58.1535
  0
LINE
  8
0
 10
-9.74258
 20
58.1535
 11
-11.385
 21
56.9688
  0
LINE
  8
0
 10
-11.385
 20
56.9688
 11
-12.6306
 21
56.1938
  0
LINE
  8
0
 10
-12.6306
 20
56.1938
 11
-13.4779
 21
55.8276
  0
LINE
  8
0
 10
-13.4779
 20
55.8276
 11
-13.9265
 21
55.8698
  0
LINE
  8
0
 10
-43.9265
 20
55.8698
 11
-43.9806
 21
56.3179
  0
LINE
  8
0
 10
-43.9806
 20
56.3179
 11
-43.6386
 21
57.1767
  0
LINE
  8
0
 10
-43.6386
 20
57.1767
 11
-42.9002
 21
58.4447
  0
LINE
  8
0
 10
-42.9002
 20
58.4447
 11
-41.7636
 21
60.1224
  0
LINE
  8
0
 10
-41.7636
 20
60.1224
 11
-40.2306
 21
62.2089
  0
LINE
  8
0
 10
-40.2306
 20
62.2089
 11
-38.9145
 21
63.9104
  0
LINE
  8
0
 10
-38.9145
 20
63.9104
 11
-36.0828
 21
61.0786
  0
LINE
  8
0
 10
-36.0828
 20
61.0786
 11
-37.7032
 21
59.747
  0
LINE
  8
0
 10
-37.7032
 20
59.747
 11
-39.7426
 21
58.1535
  0
LINE
  8
0
 10
-39.7426
 20
58.1535
 11
-41.385
 21
56.9688
  0
LINE
  8
0
 10
-41.385
 20
56.9688
 11
-42.6306
 21
56.1938
  0
LINE
  8
0
 10
-42.6306
 20
56.1938
 11
-43.4779
 21
55.8276
  0
LINE
  8
0
 10
-43.4779
 20
55.8276
 11
-43.9265
 21
55.8698
  0
LINE
  8
0
 10
37.4208
 20
57.1643
 11
38.1143
 21
58.3183
  0
LINE
  8
0
 10
38.1143
 20
58.3183
 11
39.4533
 21
60.0706
  0
LINE
  8
0
 10
39.4533
 20
60.0706
 11
41.4372
 21
62.4199
  0
LINE
  8
0
 10
41.4372
 20
62.4199
 11
41.9238
 21
62.9654
  0
LINE
  8
0
 10
41.9238
 20
62.9654
 11
42.9343
 21
59.8553
  0
LINE
  8
0
 10
42.9343
 20
59.8553
 11
41.0847
 21
58.517
  0
LINE
  8
0
 10
41.0847
 20
58.517
 11
39.2006
 21
57.2842
  0
LINE
  8
0
 10
39.2006
 20
57.2842
 11
37.9619
 21
56.6489
  0
LINE
  8
0
 10
37.9619
 20
56.6489
 11
37.3714
 21
56.6104
  0
LINE
  8
0
 10
37.3714
 20
56.6104
 11
37.4208
 21
57.1643
  0
LINE
  8
0
 10
-7.034
 20
55.7132
 11
-7.12601
 21
56.0172
  0
LINE
  8
0
 10
-7.12601
 20
56.0172
 11
-7.0015
 21
56.5184
  0
LINE
  8
0
 10
-7.0015
 20
56.5184
 11
-6.65909
 21
57.2183
  0
LINE
  8
0
 10
-6.65909
 20
57.2183
 11
-6.0997
 21
58.1146
  0
LINE
  8
0
 10
-6.0997
 20
58.1146
 11
-5.32242
 21
59.2082
  0
LINE
  8
0
 10
-5.32242
 20
59.2082
 11
-4.83902
 21
59.8349
  0
LINE
  8
0
 10
-4.83902
 20
59.8349
 11
-2.59186
 21
57.5877
  0
LINE
  8
0
 10
-2.59186
 20
57.5877
 11
-3.31375
 21
57.1359
  0
LINE
  8
0
 10
-3.31375
 20
57.1359
 11
-4.49387
 21
56.458
  0
LINE
  8
0
 10
-4.49387
 20
56.458
 11
-5.45609
 21
55.9764
  0
LINE
  8
0
 10
-5.45609
 20
55.9764
 11
-6.19995
 21
55.6921
  0
LINE
  8
0
 10
-6.19995
 20
55.6921
 11
-6.72592
 21
55.6042
  0
LINE
  8
0
 10
-6.72592
 20
55.6042
 11
-7.034
 21
55.7132
  0
LINE
  8
0
 10
22.966
 20
55.7132
 11
22.874
 21
56.0172
  0
LINE
  8
0
 10
22.874
 20
56.0172
 11
22.9985
 21
56.5184
  0
LINE
  8
0
 10
22.9985
 20
56.5184
 11
23.3409
 21
57.2183
  0
LINE
  8
0
 10
23.3409
 20
57.2183
 11
23.9003
 21
58.1146
  0
LINE
  8
0
 10
23.9003
 20
58.1146
 11
24.6776
 21
59.2082
  0
LINE
  8
0
 10
24.6776
 20
59.2082
 11
25.161
 21
59.8349
  0
LINE
  8
0
 10
25.161
 20
59.8349
 11
27.4081
 21
57.5877
  0
LINE
  8
0
 10
27.4081
 20
57.5877
 11
26.6862
 21
57.1359
  0
LINE
  8
0
 10
26.6862
 20
57.1359
 11
25.5061
 21
56.458
  0
LINE
  8
0
 10
25.5061
 20
56.458
 11
24.5439
 21
55.9764
  0
LINE
  8
0
 10
24.5439
 20
55.9764
 11
23.8
 21
55.6921
  0
LINE
  8
0
 10
23.8
 20
55.6921
 11
23.2741
 21
55.6042
  0
LINE
  8
0
 10
23.2741
 20
55.6042
 11
22.966
 21
55.7132
  0
LINE
  8
0
 10
-37.034
 20
55.7132
 11
-37.126
 21
56.0172
  0
LINE
  8
0
 10
-37.126
 20
56.0172
 11
-37.0015
 21
56.5184
  0
LINE
  8
0
 10
-37.0015
 20
56.5184
 11
-36.6591
 21
57.2183
  0
LINE
  8
0
 10
-36.6591
 20
57.2183
 11
-36.0997
 21
58.1146
  0
LINE
  8
0
 10
-36.0997
 20
58.1146
 11
-35.3224
 21
59.2082
  0
LINE
  8
0
 10
-35.3224
 20
59.2082
 11
-34.839
 21
59.8349
  0
LINE
  8
0
 10
-34.839
 20
59.8349
 11
-32.5919
 21
57.5877
  0
LINE
  8
0
 10
-32.5919
 20
57.5877
 11
-33.3138
 21
57.1359
  0
LINE
  8
0
 10
-33.3138
 20
57.1359
 11
-34.4939
 21
56.458
  0
LINE
  8
0
 10
-34.4939
 20
56.458
 11
-35.4561
 21
55.9764
  0
LINE
  8
0
 10
-35.4561
 20
55.9764
 11
-36.2
 21
55.6921
  0
LINE
  8
0
 10
-36.2
 20
55.6921
 11
-36.7259
 21
55.6042
  0
LINE
  8
0
 10
-36.7259
 20
55.6042
 11
-37.034
 21
55.7132
  0
LINE
  8
0
 10
2.59186
 20
52.4123
 11
3.31375
 21
52.8641
  0
LINE
  8
0
 10
3.31375
 20
52.8641
 11
4.49387
 21
53.542
  0
LINE
  8
0
 10
4.49387
 20
53.542
 11
5.45609
 21
54.0236
  0
LINE
  8
0
 10
5.45609
 20
54.0236
 11
6.19995
 21
54.3079
  0
LINE
  8
0
 10
6.19995
 20
54.3079
 11
6.72592
 21
54.3958
  0
LINE
  8
0
 10
6.72592
 20
54.3958
 11
7.034
 21
54.2868
  0
LINE
  8
0
 10
7.034
 20
54.2868
 11
7.12601
 21
53.9828
  0
LINE
  8
0
 10
7.12601
 20
53.9828
 11
7.0015
 21
53.4811
  0
LINE
  8
0
 10
7.0015
 20
53.4811
 11
6.65909
 21
52.7817
  0
LINE
  8
0
 10
6.65909
 20
52.7817
 11
6.09924
 21
51.8849
  0
LINE
  8
0
 10
6.09924
 20
51.8849
 11
5.32242
 21
50.7918
  0
LINE
  8
0
 10
5.32242
 20
50.7918
 11
4.83902
 21
50.1651
  0
LINE
  8
0
 10
4.83902
 20
50.1651
 11
2.59186
 21
52.4123
  0
LINE
  8
0
 10
32.5919
 20
52.4123
 11
33.3138
 21
52.8641
  0
LINE
  8
0
 10
33.3138
 20
52.8641
 11
34.4939
 21
53.542
  0
LINE
  8
0
 10
34.4939
 20
53.542
 11
35.4561
 21
54.0236
  0
LINE
  8
0
 10
35.4561
 20
54.0236
 11
36.2
 21
54.3079
  0
LINE
  8
0
 10
36.2
 20
54.3079
 11
36.7259
 21
54.3958
  0
LINE
  8
0
 10
36.7259
 20
54.3958
 11
37.034
 21
54.2868
  0
LINE
  8
0
 10
37.034
 20
54.2868
 11
37.126
 21
53.9828
  0
LINE
  8
0
 10
37.126
 20
53.9828
 11
37.0015
 21
53.4811
  0
LINE
  8
0
 10
37.0015
 20
53.4811
 11
36.6591
 21
52.7817
  0
LINE
  8
0
 10
36.6591
 20
52.7817
 11
36.0992
 21
51.8849
  0
LINE
  8
0
 10
36.0992
 20
51.8849
 11
35.3224
 21
50.7918
  0
LINE
  8
0
 10
35.3224
 20
50.7918
 11
34.839
 21
50.1651
  0
LINE
  8
0
 10
34.839
 20
50.1651
 11
32.5919
 21
52.4123
  0
LINE
  8
0
 10
-27.4081
 20
52.4123
 11
-26.6862
 21
52.8641
  0
LINE
  8
0
 10
-26.6862
 20
52.8641
 11
-25.5061
 21
53.542
  0
LINE
  8
0
 10
-25.5061
 20
53.542
 11
-24.5439
 21
54.0236
  0
LINE
  8
0
 10
-24.5439
 20
54.0236
 11
-23.8
 21
54.3079
  0
LINE
  8
0
 10
-23.8
 20
54.3079
 11
-23.2741
 21
54.3958
  0
LINE
  8
0
 10
-23.2741
 20
54.3958
 11
-22.966
 21
54.2868
  0
LINE
  8
0
 10
-22.966
 20
54.2868
 11
-22.874
 21
53.9828
  0
LINE
  8
0
 10
-22.874
 20
53.9828
 11
-22.9985
 21
53.4811
  0
LINE
  8
0
 10
-22.9985
 20
53.4811
 11
-23.3409
 21
52.7817
  0
LINE
  8
0
 10
-23.3409
 20
52.7817
 11
-23.9008
 21
51.8849
  0
LINE
  8
0
 10
-23.9008
 20
51.8849
 11
-24.6776
 21
50.7918
  0
LINE
  8
0
 10
-24.6776
 20
50.7918
 11
-25.161
 21
50.1651
  0
LINE
  8
0
 10
-25.161
 20
50.1651
 11
-27.4081
 21
52.4123
  0
LINE
  8
0
 10
6.08276
 20
48.9214
 11
7.70325
 21
50.253
  0
LINE
  8
0
 10
7.70325
 20
50.253
 11
9.74258
 21
51.8465
  0
LINE
  8
0
 10
9.74258
 20
51.8465
 11
11.385
 21
53.0312
  0
LINE
  8
0
 10
11.385
 20
53.0312
 11
12.6306
 21
53.8062
  0
LINE
  8
0
 10
12.6306
 20
53.8062
 11
13.4779
 21
54.1724
  0
LINE
  8
0
 10
13.4779
 20
54.1724
 11
13.9265
 21
54.1302
  0
LINE
  8
0
 10
13.9265
 20
54.1302
 11
13.9806
 21
53.6821
  0
LINE
  8
0
 10
13.9806
 20
53.6821
 11
13.6386
 21
52.8233
  0
LINE
  8
0
 10
13.6386
 20
52.8233
 11
12.8998
 21
51.5544
  0
LINE
  8
0
 10
12.8998
 20
51.5544
 11
11.7636
 21
49.8776
  0
LINE
  8
0
 10
11.7636
 20
49.8776
 11
10.2306
 21
47.7911
  0
LINE
  8
0
 10
10.2306
 20
47.7911
 11
8.91449
 21
46.0896
  0
LINE
  8
0
 10
8.91449
 20
46.0896
 11
6.08276
 21
48.9214
  0
LINE
  8
0
 10
-23.9172
 20
48.9214
 11
-22.2968
 21
50.253
  0
LINE
  8
0
 10
-22.2968
 20
50.253
 11
-20.2574
 21
51.8465
  0
LINE
  8
0
 10
-20.2574
 20
51.8465
 11
-18.615
 21
53.0312
  0
LINE
  8
0
 10
-18.615
 20
53.0312
 11
-17.3694
 21
53.8062
  0
LINE
  8
0
 10
-17.3694
 20
53.8062
 11
-16.5221
 21
54.1724
  0
LINE
  8
0
 10
-16.5221
 20
54.1724
 11
-16.0735
 21
54.1302
  0
LINE
  8
0
 10
-16.0735
 20
54.1302
 11
-16.0194
 21
53.6821
  0
LINE
  8
0
 10
-16.0194
 20
53.6821
 11
-16.3614
 21
52.8233
  0
LINE
  8
0
 10
-16.3614
 20
52.8233
 11
-17.1002
 21
51.5544
  0
LINE
  8
0
 10
-17.1002
 20
51.5544
 11
-18.2364
 21
49.8776
  0
LINE
  8
0
 10
-18.2364
 20
49.8776
 11
-19.7694
 21
47.7911
  0
LINE
  8
0
 10
-19.7694
 20
47.7911
 11
-21.0855
 21
46.0896
  0
LINE
  8
0
 10
-21.0855
 20
46.0896
 11
-23.9172
 21
48.9214
  0
LINE
  8
0
 10
36.0828
 20
48.9214
 11
37.7032
 21
50.253
  0
LINE
  8
0
 10
37.7032
 20
50.253
 11
39.7426
 21
51.8465
  0
LINE
  8
0
 10
39.7426
 20
51.8465
 11
41.385
 21
53.0312
  0
LINE
  8
0
 10
41.385
 20
53.0312
 11
42.6306
 21
53.8062
  0
LINE
  8
0
 10
42.6306
 20
53.8062
 11
43.4779
 21
54.1724
  0
LINE
  8
0
 10
43.4779
 20
54.1724
 11
43.9265
 21
54.1302
  0
LINE
  8
0
 10
43.9265
 20
54.1302
 11
43.9806
 21
53.6821
  0
LINE
  8
0
 10
43.9806
 20
53.6821
 11
43.6386
 21
52.8233
  0
LINE
  8
0
 10
43.6386
 20
52.8233
 11
42.8998
 21
51.5544
  0
LINE
  8
0
 10
42.8998
 20
51.5544
 11
41.7636
 21
49.8776
  0
LINE
  8
0
 10
41.7636
 20
49.8776
 11
40.2306
 21
47.7911
  0
LINE
  8
0
 10
40.2306
 20
47.7911
 11
38.9145
 21
46.0896
  0
LINE
  8
0
 10
38.9145
 20
46.0896
 11
36.0828
 21
48.9214
  0
LINE
  8
0
 10
-48.3091
 20
43.3132
 11
-47.125
 21
46.9577
  0
LINE
  8
0
 10
-47.125
 20
46.9577
 11
-46.7871
 21
47.2253
  0
LINE
  8
0
 10
-46.7871
 20
47.2253
 11
-43.6139
 21
49.6529
  0
LINE
  8
0
 10
-43.6139
 20
49.6529
 11
-41.0847
 21
51.483
  0
LINE
  8
0
 10
-41.0847
 20
51.483
 11
-39.2006
 21
52.7158
  0
LINE
  8
0
 10
-39.2006
 20
52.7158
 11
-37.9619
 21
53.3511
  0
LINE
  8
0
 10
-37.9619
 20
53.3511
 11
-37.3714
 21
53.3896
  0
LINE
  8
0
 10
-37.3714
 20
53.3896
 11
-37.4208
 21
52.8357
  0
LINE
  8
0
 10
-37.4208
 20
52.8357
 11
-38.1143
 21
51.6817
  0
LINE
  8
0
 10
-38.1143
 20
51.6817
 11
-39.4537
 21
49.9289
  0
LINE
  8
0
 10
-39.4537
 20
49.9289
 11
-41.4372
 21
47.5801
  0
LINE
  8
0
 10
-41.4372
 20
47.5801
 11
-44.0657
 21
44.633
  0
LINE
  8
0
 10
-44.0657
 20
44.633
 11
-46.7368
 21
41.7409
  0
LINE
  8
0
 10
-46.7368
 20
41.7409
 11
-48.3091
 21
43.3132
  0
LINE
  8
0
 10
10.1807
 20
44.8235
 11
13.2129
 21
47.2253
  0
LINE
  8
0
 10
13.2129
 20
47.2253
 11
16.3861
 21
49.6529
  0
LINE
  8
0
 10
16.3861
 20
49.6529
 11
18.9153
 21
51.483
  0
LINE
  8
0
 10
18.9153
 20
51.483
 11
20.7994
 21
52.7158
  0
LINE
  8
0
 10
20.7994
 20
52.7158
 11
22.0381
 21
53.3511
  0
LINE
  8
0
 10
22.0381
 20
53.3511
 11
22.6286
 21
53.3896
  0
LINE
  8
0
 10
22.6286
 20
53.3896
 11
22.5792
 21
52.8357
  0
LINE
  8
0
 10
22.5792
 20
52.8357
 11
21.8857
 21
51.6817
  0
LINE
  8
0
 10
21.8857
 20
51.6817
 11
20.5463
 21
49.9289
  0
LINE
  8
0
 10
20.5463
 20
49.9289
 11
18.5628
 21
47.5801
  0
LINE
  8
0
 10
18.5628
 20
47.5801
 11
15.9343
 21
44.633
  0
LINE
  8
0
 10
15.9343
 20
44.633
 11
13.2632
 21
41.7409
  0
LINE
  8
0
 10
13.2632
 20
41.7409
 11
10.1807
 21
44.8235
  0
LINE
  8
0
 10
-19.8193
 20
44.8235
 11
-16.7871
 21
47.2253
  0
LINE
  8
0
 10
-16.7871
 20
47.2253
 11
-13.6139
 21
49.6529
  0
LINE
  8
0
 10
-13.6139
 20
49.6529
 11
-11.0847
 21
51.483
  0
LINE
  8
0
 10
-11.0847
 20
51.483
 11
-9.20059
 21
52.7158
  0
LINE
  8
0
 10
-9.20059
 20
52.7158
 11
-7.96188
 21
53.3511
  0
LINE
  8
0
 10
-7.96188
 20
53.3511
 11
-7.37137
 21
53.3896
  0
LINE
  8
0
 10
-7.37137
 20
53.3896
 11
-7.42081
 21
52.8357
  0
LINE
  8
0
 10
-7.42081
 20
52.8357
 11
-8.11432
 21
51.6817
  0
LINE
  8
0
 10
-8.11432
 20
51.6817
 11
-9.45374
 21
49.9289
  0
LINE
  8
0
 10
-9.45374
 20
49.9289
 11
-11.4372
 21
47.5801
  0
LINE
  8
0
 10
-11.4372
 20
47.5801
 11
-14.0657
 21
44.633
  0
LINE
  8
0
 10
-14.0657
 20
44.633
 11
-16.7368
 21
41.7409
  0
LINE
  8
0
 10
-16.7368
 20
41.7409
 11
-19.8193
 21
44.8235
  0
LINE
  8
0
 10
7.03812
 20
41.6489
 11
5.79941
 21
42.2842
  0
LINE
  8
0
 10
5.79941
 20
42.2842
 11
3.91479
 21
43.5175
  0
LINE
  8
0
 10
3.91479
 20
43.5175
 11
1.38565
 21
45.3476
  0
LINE
  8
0
 10
1.38565
 20
45.3476
 11
-1.78711
 21
47.7747
  0
LINE
  8
0
 10
-1.78711
 20
47.7747
 11
-4.81934
 21
50.1765
  0
LINE
  8
0
 10
-4.81934
 20
50.1765
 11
-1.73676
 21
53.2591
  0
LINE
  8
0
 10
-1.73676
 20
53.2591
 11
0.934296
 21
50.367
  0
LINE
  8
0
 10
0.934296
 20
50.367
 11
3.56277
 21
47.4199
  0
LINE
  8
0
 10
3.56277
 20
47.4199
 11
5.54672
 21
45.0706
  0
LINE
  8
0
 10
5.54672
 20
45.0706
 11
6.88614
 21
43.3179
  0
LINE
  8
0
 10
6.88614
 20
43.3179
 11
7.57919
 21
42.1643
  0
LINE
  8
0
 10
7.57919
 20
42.1643
 11
7.62863
 21
41.6104
  0
LINE
  8
0
 10
7.62863
 20
41.6104
 11
7.03812
 21
41.6489
  0
LINE
  8
0
 10
37.0381
 20
41.6489
 11
35.7994
 21
42.2842
  0
LINE
  8
0
 10
35.7994
 20
42.2842
 11
33.9148
 21
43.5175
  0
LINE
  8
0
 10
33.9148
 20
43.5175
 11
31.3857
 21
45.3476
  0
LINE
  8
0
 10
31.3857
 20
45.3476
 11
28.2129
 21
47.7747
  0
LINE
  8
0
 10
28.2129
 20
47.7747
 11
25.1807
 21
50.1765
  0
LINE
  8
0
 10
25.1807
 20
50.1765
 11
28.2632
 21
53.2591
  0
LINE
  8
0
 10
28.2632
 20
53.2591
 11
30.9343
 21
50.367
  0
LINE
  8
0
 10
30.9343
 20
50.367
 11
33.5628
 21
47.4199
  0
LINE
  8
0
 10
33.5628
 20
47.4199
 11
35.5467
 21
45.0706
  0
LINE
  8
0
 10
35.5467
 20
45.0706
 11
36.8861
 21
43.3179
  0
LINE
  8
0
 10
36.8861
 20
43.3179
 11
37.5792
 21
42.1643
  0
LINE
  8
0
 10
37.5792
 20
42.1643
 11
37.6286
 21
41.6104
  0
LINE
  8
0
 10
37.6286
 20
41.6104
 11
37.0381
 21
41.6489
  0
LINE
  8
0
 10
-22.9619
 20
41.6489
 11
-24.2006
 21
42.2842
  0
LINE
  8
0
 10
-24.2006
 20
42.2842
 11
-26.0852
 21
43.5175
  0
LINE
  8
0
 10
-26.0852
 20
43.5175
 11
-28.6143
 21
45.3476
  0
LINE
  8
0
 10
-28.6143
 20
45.3476
 11
-31.7871
 21
47.7747
  0
LINE
  8
0
 10
-31.7871
 20
47.7747
 11
-34.8193
 21
50.1765
  0
LINE
  8
0
 10
-34.8193
 20
50.1765
 11
-31.7368
 21
53.2591
  0
LINE
  8
0
 10
-31.7368
 20
53.2591
 11
-29.0657
 21
50.367
  0
LINE
  8
0
 10
-29.0657
 20
50.367
 11
-26.4372
 21
47.4199
  0
LINE
  8
0
 10
-26.4372
 20
47.4199
 11
-24.4533
 21
45.0706
  0
LINE
  8
0
 10
-24.4533
 20
45.0706
 11
-23.1139
 21
43.3179
  0
LINE
  8
0
 10
-23.1139
 20
43.3179
 11
-22.4208
 21
42.1643
  0
LINE
  8
0
 10
-22.4208
 20
42.1643
 11
-22.3714
 21
41.6104
  0
LINE
  8
0
 10
-22.3714
 20
41.6104
 11
-22.9619
 21
41.6489
  0
LINE
  8
0
 10
40.1807
 20
44.8235
 11
43.2129
 21
47.2253
  0
LINE
  8
0
 10
43.2129
 20
47.2253
 11
46.2765
 21
49.569
  0
LINE
  8
0
 10
46.2765
 20
49.569
 11
47.3607
 21
46.2323
  0
LINE
  8
0
 10
47.3607
 20
46.2323
 11
45.9343
 21
44.633
  0
LINE
  8
0
 10
45.9343
 20
44.633
 11
43.2632
 21
41.7409
  0
LINE
  8
0
 10
43.2632
 20
41.7409
 11
40.1807
 21
44.8235
  0
LINE
  8
0
 10
-32.3694
 20
41.1938
 11
-33.6154
 21
41.9693
  0
LINE
  8
0
 10
-33.6154
 20
41.9693
 11
-35.2574
 21
43.1535
  0
LINE
  8
0
 10
-35.2574
 20
43.1535
 11
-37.2968
 21
44.747
  0
LINE
  8
0
 10
-37.2968
 20
44.747
 11
-38.9177
 21
46.0782
  0
LINE
  8
0
 10
-38.9177
 20
46.0782
 11
-36.086
 21
48.9099
  0
LINE
  8
0
 10
-36.086
 20
48.9099
 11
-34.7694
 21
47.2089
  0
LINE
  8
0
 10
-34.7694
 20
47.2089
 11
-33.2364
 21
45.1224
  0
LINE
  8
0
 10
-33.2364
 20
45.1224
 11
-32.0998
 21
43.4447
  0
LINE
  8
0
 10
-32.0998
 20
43.4447
 11
-31.3609
 21
42.1758
  0
LINE
  8
0
 10
-31.3609
 20
42.1758
 11
-31.0194
 21
41.3179
  0
LINE
  8
0
 10
-31.0194
 20
41.3179
 11
-31.0735
 21
40.8698
  0
LINE
  8
0
 10
-31.0735
 20
40.8698
 11
-31.5221
 21
40.8276
  0
LINE
  8
0
 10
-31.5221
 20
40.8276
 11
-32.3694
 21
41.1938
  0
LINE
  8
0
 10
-2.36938
 20
41.1938
 11
-3.61542
 21
41.9693
  0
LINE
  8
0
 10
-3.61542
 20
41.9693
 11
-5.25742
 21
43.1535
  0
LINE
  8
0
 10
-5.25742
 20
43.1535
 11
-7.29675
 21
44.747
  0
LINE
  8
0
 10
-7.29675
 20
44.747
 11
-8.91769
 21
46.0782
  0
LINE
  8
0
 10
-8.91769
 20
46.0782
 11
-6.08597
 21
48.9099
  0
LINE
  8
0
 10
-6.08597
 20
48.9099
 11
-4.76944
 21
47.2089
  0
LINE
  8
0
 10
-4.76944
 20
47.2089
 11
-3.23639
 21
45.1224
  0
LINE
  8
0
 10
-3.23639
 20
45.1224
 11
-2.09976
 21
43.4447
  0
LINE
  8
0
 10
-2.09976
 20
43.4447
 11
-1.36093
 21
42.1758
  0
LINE
  8
0
 10
-1.36093
 20
42.1758
 11
-1.01944
 21
41.3179
  0
LINE
  8
0
 10
-1.01944
 20
41.3179
 11
-1.07346
 21
40.8698
  0
LINE
  8
0
 10
-1.07346
 20
40.8698
 11
-1.52206
 21
40.8276
  0
LINE
  8
0
 10
-1.52206
 20
40.8276
 11
-2.36938
 21
41.1938
  0
LINE
  8
0
 10
27.6306
 20
41.1938
 11
26.3846
 21
41.9693
  0
LINE
  8
0
 10
26.3846
 20
41.9693
 11
24.7426
 21
43.1535
  0
LINE
  8
0
 10
24.7426
 20
43.1535
 11
22.7032
 21
44.747
  0
LINE
  8
0
 10
22.7032
 20
44.747
 11
21.0823
 21
46.0782
  0
LINE
  8
0
 10
21.0823
 20
46.0782
 11
23.914
 21
48.9099
  0
LINE
  8
0
 10
23.914
 20
48.9099
 11
25.2306
 21
47.2089
  0
LINE
  8
0
 10
25.2306
 20
47.2089
 11
26.7636
 21
45.1224
  0
LINE
  8
0
 10
26.7636
 20
45.1224
 11
27.9002
 21
43.4447
  0
LINE
  8
0
 10
27.9002
 20
43.4447
 11
28.6391
 21
42.1758
  0
LINE
  8
0
 10
28.6391
 20
42.1758
 11
28.9806
 21
41.3179
  0
LINE
  8
0
 10
28.9806
 20
41.3179
 11
28.9265
 21
40.8698
  0
LINE
  8
0
 10
28.9265
 20
40.8698
 11
28.4779
 21
40.8276
  0
LINE
  8
0
 10
28.4779
 20
40.8276
 11
27.6306
 21
41.1938
  0
LINE
  8
0
 10
21.2
 20
40.6921
 11
20.4556
 21
40.9764
  0
LINE
  8
0
 10
20.4556
 20
40.9764
 11
19.4939
 21
41.458
  0
LINE
  8
0
 10
19.4939
 20
41.458
 11
18.3138
 21
42.1359
  0
LINE
  8
0
 10
18.3138
 20
42.1359
 11
17.5919
 21
42.5877
  0
LINE
  8
0
 10
17.5919
 20
42.5877
 11
19.839
 21
44.8349
  0
LINE
  8
0
 10
19.839
 20
44.8349
 11
20.3224
 21
44.2082
  0
LINE
  8
0
 10
20.3224
 20
44.2082
 11
21.0997
 21
43.1146
  0
LINE
  8
0
 10
21.0997
 20
43.1146
 11
21.6591
 21
42.2183
  0
LINE
  8
0
 10
21.6591
 20
42.2183
 11
22.0015
 21
41.5184
  0
LINE
  8
0
 10
22.0015
 20
41.5184
 11
22.126
 21
41.0172
  0
LINE
  8
0
 10
22.126
 20
41.0172
 11
22.034
 21
40.7132
  0
LINE
  8
0
 10
22.034
 20
40.7132
 11
21.7259
 21
40.6042
  0
LINE
  8
0
 10
21.7259
 20
40.6042
 11
21.2
 21
40.6921
  0
LINE
  8
0
 10
-38.8
 20
40.6921
 11
-39.5444
 21
40.9764
  0
LINE
  8
0
 10
-39.5444
 20
40.9764
 11
-40.5061
 21
41.458
  0
LINE
  8
0
 10
-40.5061
 20
41.458
 11
-41.6862
 21
42.1359
  0
LINE
  8
0
 10
-41.6862
 20
42.1359
 11
-42.4081
 21
42.5877
  0
LINE
  8
0
 10
-42.4081
 20
42.5877
 11
-40.161
 21
44.8349
  0
LINE
  8
0
 10
-40.161
 20
44.8349
 11
-39.6776
 21
44.2082
  0
LINE
  8
0
 10
-39.6776
 20
44.2082
 11
-38.9003
 21
43.1146
  0
LINE
  8
0
 10
-38.9003
 20
43.1146
 11
-38.3409
 21
42.2183
  0
LINE
  8
0
 10
-38.3409
 20
42.2183
 11
-37.9985
 21
41.5184
  0
LINE
  8
0
 10
-37.9985
 20
41.5184
 11
-37.874
 21
41.0172
  0
LINE
  8
0
 10
-37.874
 20
41.0172
 11
-37.966
 21
40.7132
  0
LINE
  8
0
 10
-37.966
 20
40.7132
 11
-38.2741
 21
40.6042
  0
LINE
  8
0
 10
-38.2741
 20
40.6042
 11
-38.8
 21
40.6921
  0
LINE
  8
0
 10
-8.80005
 20
40.6921
 11
-9.54437
 21
40.9764
  0
LINE
  8
0
 10
-9.54437
 20
40.9764
 11
-10.5061
 21
41.458
  0
LINE
  8
0
 10
-10.5061
 20
41.458
 11
-11.6862
 21
42.1359
  0
LINE
  8
0
 10
-11.6862
 20
42.1359
 11
-12.4081
 21
42.5877
  0
LINE
  8
0
 10
-12.4081
 20
42.5877
 11
-10.161
 21
44.8349
  0
LINE
  8
0
 10
-10.161
 20
44.8349
 11
-9.67758
 21
44.2082
  0
LINE
  8
0
 10
-9.67758
 20
44.2082
 11
-8.9003
 21
43.1146
  0
LINE
  8
0
 10
-8.9003
 20
43.1146
 11
-8.34091
 21
42.2183
  0
LINE
  8
0
 10
-8.34091
 20
42.2183
 11
-7.9985
 21
41.5184
  0
LINE
  8
0
 10
-7.9985
 20
41.5184
 11
-7.87399
 21
41.0172
  0
LINE
  8
0
 10
-7.87399
 20
41.0172
 11
-7.966
 21
40.7132
  0
LINE
  8
0
 10
-7.966
 20
40.7132
 11
-8.27408
 21
40.6042
  0
LINE
  8
0
 10
-8.27408
 20
40.6042
 11
-8.80005
 21
40.6921
  0
LINE
  8
0
 10
48.3138
 20
42.1359
 11
47.5919
 21
42.5877
  0
LINE
  8
0
 10
47.5919
 20
42.5877
 11
48.3111
 21
43.307
  0
LINE
  8
0
 10
48.3111
 20
43.307
 11
48.7784
 21
41.869
  0
LINE
  8
0
 10
48.7784
 20
41.869
 11
48.3138
 21
42.1359
  0
LINE
  8
0
 10
-20.3224
 20
35.7918
 11
-21.0997
 21
36.8854
  0
LINE
  8
0
 10
-21.0997
 20
36.8854
 11
-21.6591
 21
37.7817
  0
LINE
  8
0
 10
-21.6591
 20
37.7817
 11
-22.0015
 21
38.4816
  0
LINE
  8
0
 10
-22.0015
 20
38.4816
 11
-22.126
 21
38.9828
  0
LINE
  8
0
 10
-22.126
 20
38.9828
 11
-22.034
 21
39.2868
  0
LINE
  8
0
 10
-22.034
 20
39.2868
 11
-21.7259
 21
39.3958
  0
LINE
  8
0
 10
-21.7259
 20
39.3958
 11
-21.2
 21
39.3079
  0
LINE
  8
0
 10
-21.2
 20
39.3079
 11
-20.4556
 21
39.0236
  0
LINE
  8
0
 10
-20.4556
 20
39.0236
 11
-19.4939
 21
38.542
  0
LINE
  8
0
 10
-19.4939
 20
38.542
 11
-18.3138
 21
37.8641
  0
LINE
  8
0
 10
-18.3138
 20
37.8641
 11
-17.5919
 21
37.4123
  0
LINE
  8
0
 10
-17.5919
 20
37.4123
 11
-19.839
 21
35.1651
  0
LINE
  8
0
 10
-19.839
 20
35.1651
 11
-20.3224
 21
35.7918
  0
LINE
  8
0
 10
39.6776
 20
35.7918
 11
38.9003
 21
36.8854
  0
LINE
  8
0
 10
38.9003
 20
36.8854
 11
38.3409
 21
37.7817
  0
LINE
  8
0
 10
38.3409
 20
37.7817
 11
37.9985
 21
38.4816
  0
LINE
  8
0
 10
37.9985
 20
38.4816
 11
37.874
 21
38.9828
  0
LINE
  8
0
 10
37.874
 20
38.9828
 11
37.966
 21
39.2868
  0
LINE
  8
0
 10
37.966
 20
39.2868
 11
38.2741
 21
39.3958
  0
LINE
  8
0
 10
38.2741
 20
39.3958
 11
38.8
 21
39.3079
  0
LINE
  8
0
 10
38.8
 20
39.3079
 11
39.5444
 21
39.0236
  0
LINE
  8
0
 10
39.5444
 20
39.0236
 11
40.5061
 21
38.542
  0
LINE
  8
0
 10
40.5061
 20
38.542
 11
41.6862
 21
37.8641
  0
LINE
  8
0
 10
41.6862
 20
37.8641
 11
42.4081
 21
37.4123
  0
LINE
  8
0
 10
42.4081
 20
37.4123
 11
40.161
 21
35.1651
  0
LINE
  8
0
 10
40.161
 20
35.1651
 11
39.6776
 21
35.7918
  0
LINE
  8
0
 10
9.67758
 20
35.7918
 11
8.9003
 21
36.8854
  0
LINE
  8
0
 10
8.9003
 20
36.8854
 11
8.34091
 21
37.7817
  0
LINE
  8
0
 10
8.34091
 20
37.7817
 11
7.9985
 21
38.4816
  0
LINE
  8
0
 10
7.9985
 20
38.4816
 11
7.87399
 21
38.9828
  0
LINE
  8
0
 10
7.87399
 20
38.9828
 11
7.966
 21
39.2868
  0
LINE
  8
0
 10
7.966
 20
39.2868
 11
8.27408
 21
39.3958
  0
LINE
  8
0
 10
8.27408
 20
39.3958
 11
8.80005
 21
39.3079
  0
LINE
  8
0
 10
8.80005
 20
39.3079
 11
9.54437
 21
39.0236
  0
LINE
  8
0
 10
9.54437
 20
39.0236
 11
10.5061
 21
38.542
  0
LINE
  8
0
 10
10.5061
 20
38.542
 11
11.6862
 21
37.8641
  0
LINE
  8
0
 10
11.6862
 20
37.8641
 11
12.4081
 21
37.4123
  0
LINE
  8
0
 10
12.4081
 20
37.4123
 11
10.161
 21
35.1651
  0
LINE
  8
0
 10
10.161
 20
35.1651
 11
9.67758
 21
35.7918
  0
LINE
  8
0
 10
-25.2306
 20
32.7911
 11
-26.7636
 21
34.8776
  0
LINE
  8
0
 10
-26.7636
 20
34.8776
 11
-27.9002
 21
36.5553
  0
LINE
  8
0
 10
-27.9002
 20
36.5553
 11
-28.6391
 21
37.8242
  0
LINE
  8
0
 10
-28.6391
 20
37.8242
 11
-28.9806
 21
38.6821
  0
LINE
  8
0
 10
-28.9806
 20
38.6821
 11
-28.9265
 21
39.1302
  0
LINE
  8
0
 10
-28.9265
 20
39.1302
 11
-28.4779
 21
39.1724
  0
LINE
  8
0
 10
-28.4779
 20
39.1724
 11
-27.6306
 21
38.8062
  0
LINE
  8
0
 10
-27.6306
 20
38.8062
 11
-26.3846
 21
38.0307
  0
LINE
  8
0
 10
-26.3846
 20
38.0307
 11
-24.7426
 21
36.8465
  0
LINE
  8
0
 10
-24.7426
 20
36.8465
 11
-22.7032
 21
35.253
  0
LINE
  8
0
 10
-22.7032
 20
35.253
 11
-21.0823
 21
33.9218
  0
LINE
  8
0
 10
-21.0823
 20
33.9218
 11
-23.914
 21
31.0901
  0
LINE
  8
0
 10
-23.914
 20
31.0901
 11
-25.2306
 21
32.7911
  0
LINE
  8
0
 10
34.7694
 20
32.7911
 11
33.2364
 21
34.8776
  0
LINE
  8
0
 10
33.2364
 20
34.8776
 11
32.0998
 21
36.5553
  0
LINE
  8
0
 10
32.0998
 20
36.5553
 11
31.3609
 21
37.8242
  0
LINE
  8
0
 10
31.3609
 20
37.8242
 11
31.0194
 21
38.6821
  0
LINE
  8
0
 10
31.0194
 20
38.6821
 11
31.0735
 21
39.1302
  0
LINE
  8
0
 10
31.0735
 20
39.1302
 11
31.5221
 21
39.1724
  0
LINE
  8
0
 10
31.5221
 20
39.1724
 11
32.3694
 21
38.8062
  0
LINE
  8
0
 10
32.3694
 20
38.8062
 11
33.6154
 21
38.0307
  0
LINE
  8
0
 10
33.6154
 20
38.0307
 11
35.2574
 21
36.8465
  0
LINE
  8
0
 10
35.2574
 20
36.8465
 11
37.2968
 21
35.253
  0
LINE
  8
0
 10
37.2968
 20
35.253
 11
38.9177
 21
33.9218
  0
LINE
  8
0
 10
38.9177
 20
33.9218
 11
36.086
 21
31.0901
  0
LINE
  8
0
 10
36.086
 20
31.0901
 11
34.7694
 21
32.7911
  0
LINE
  8
0
 10
4.76944
 20
32.7911
 11
3.23639
 21
34.8776
  0
LINE
  8
0
 10
3.23639
 20
34.8776
 11
2.09976
 21
36.5553
  0
LINE
  8
0
 10
2.09976
 20
36.5553
 11
1.36093
 21
37.8242
  0
LINE
  8
0
 10
1.36093
 20
37.8242
 11
1.01944
 21
38.6821
  0
LINE
  8
0
 10
1.01944
 20
38.6821
 11
1.07346
 21
39.1302
  0
LINE
  8
0
 10
1.07346
 20
39.1302
 11
1.52206
 21
39.1724
  0
LINE
  8
0
 10
1.52206
 20
39.1724
 11
2.36938
 21
38.8062
  0
LINE
  8
0
 10
2.36938
 20
38.8062
 11
3.61542
 21
38.0307
  0
LINE
  8
0
 10
3.61542
 20
38.0307
 11
5.25742
 21
36.8465
  0
LINE
  8
0
 10
5.25742
 20
36.8465
 11
7.29675
 21
35.253
  0
LINE
  8
0
 10
7.29675
 20
35.253
 11
8.91769
 21
33.9218
  0
LINE
  8
0
 10
8.91769
 20
33.9218
 11
6.08597
 21
31.0901
  0
LINE
  8
0
 10
6.08597
 20
31.0901
 11
4.76944
 21
32.7911
  0
LINE
  8
0
 10
-50.3224
 20
35.7918
 11
-50.6179
 21
36.2075
  0
LINE
  8
0
 10
-50.6179
 20
36.2075
 11
-49.8082
 21
38.6994
  0
LINE
  8
0
 10
-49.8082
 20
38.6994
 11
-49.4939
 21
38.542
  0
LINE
  8
0
 10
-49.4939
 20
38.542
 11
-48.3138
 21
37.8641
  0
LINE
  8
0
 10
-48.3138
 20
37.8641
 11
-47.5919
 21
37.4123
  0
LINE
  8
0
 10
-47.5919
 20
37.4123
 11
-49.839
 21
35.1651
  0
LINE
  8
0
 10
-49.839
 20
35.1651
 11
-50.3224
 21
35.7918
  0
LINE
  8
0
 10
-0.934296
 20
29.633
 11
-3.56277
 21
32.5801
  0
LINE
  8
0
 10
-3.56277
 20
32.5801
 11
-5.54672
 21
34.9294
  0
LINE
  8
0
 10
-5.54672
 20
34.9294
 11
-6.88614
 21
36.6821
  0
LINE
  8
0
 10
-6.88614
 20
36.6821
 11
-7.57919
 21
37.8357
  0
LINE
  8
0
 10
-7.57919
 20
37.8357
 11
-7.62863
 21
38.3896
  0
LINE
  8
0
 10
-7.62863
 20
38.3896
 11
-7.03812
 21
38.3511
  0
LINE
  8
0
 10
-7.03812
 20
38.3511
 11
-5.79941
 21
37.7158
  0
LINE
  8
0
 10
-5.79941
 20
37.7158
 11
-3.91479
 21
36.4825
  0
LINE
  8
0
 10
-3.91479
 20
36.4825
 11
-1.38565
 21
34.6524
  0
LINE
  8
0
 10
-1.38565
 20
34.6524
 11
1.78711
 21
32.2253
  0
LINE
  8
0
 10
1.78711
 20
32.2253
 11
4.81934
 21
29.8235
  0
LINE
  8
0
 10
4.81934
 20
29.8235
 11
1.73676
 21
26.7409
  0
LINE
  8
0
 10
1.73676
 20
26.7409
 11
-0.934296
 21
29.633
  0
LINE
  8
0
 10
-30.9343
 20
29.633
 11
-33.5628
 21
32.5801
  0
LINE
  8
0
 10
-33.5628
 20
32.5801
 11
-35.5467
 21
34.9294
  0
LINE
  8
0
 10
-35.5467
 20
34.9294
 11
-36.8861
 21
36.6821
  0
LINE
  8
0
 10
-36.8861
 20
36.6821
 11
-37.5792
 21
37.8357
  0
LINE
  8
0
 10
-37.5792
 20
37.8357
 11
-37.6286
 21
38.3896
  0
LINE
  8
0
 10
-37.6286
 20
38.3896
 11
-37.0381
 21
38.3511
  0
LINE
  8
0
 10
-37.0381
 20
38.3511
 11
-35.7994
 21
37.7158
  0
LINE
  8
0
 10
-35.7994
 20
37.7158
 11
-33.9148
 21
36.4825
  0
LINE
  8
0
 10
-33.9148
 20
36.4825
 11
-31.3857
 21
34.6524
  0
LINE
  8
0
 10
-31.3857
 20
34.6524
 11
-28.2129
 21
32.2253
  0
LINE
  8
0
 10
-28.2129
 20
32.2253
 11
-25.1807
 21
29.8235
  0
LINE
  8
0
 10
-25.1807
 20
29.8235
 11
-28.2632
 21
26.7409
  0
LINE
  8
0
 10
-28.2632
 20
26.7409
 11
-30.9343
 21
29.633
  0
LINE
  8
0
 10
29.0657
 20
29.633
 11
26.4372
 21
32.5801
  0
LINE
  8
0
 10
26.4372
 20
32.5801
 11
24.4533
 21
34.9294
  0
LINE
  8
0
 10
24.4533
 20
34.9294
 11
23.1139
 21
36.6821
  0
LINE
  8
0
 10
23.1139
 20
36.6821
 11
22.4208
 21
37.8357
  0
LINE
  8
0
 10
22.4208
 20
37.8357
 11
22.3714
 21
38.3896
  0
LINE
  8
0
 10
22.3714
 20
38.3896
 11
22.9619
 21
38.3511
  0
LINE
  8
0
 10
22.9619
 20
38.3511
 11
24.2006
 21
37.7158
  0
LINE
  8
0
 10
24.2006
 20
37.7158
 11
26.0852
 21
36.4825
  0
LINE
  8
0
 10
26.0852
 20
36.4825
 11
28.6143
 21
34.6524
  0
LINE
  8
0
 10
28.6143
 20
34.6524
 11
31.7871
 21
32.2253
  0
LINE
  8
0
 10
31.7871
 20
32.2253
 11
34.8193
 21
29.8235
  0
LINE
  8
0
 10
34.8193
 20
29.8235
 11
31.7368
 21
26.7409
  0
LINE
  8
0
 10
31.7368
 20
26.7409
 11
29.0657
 21
29.633
  0
LINE
  8
0
 10
37.4208
 20
27.1643
 11
38.1143
 21
28.3183
  0
LINE
  8
0
 10
38.1143
 20
28.3183
 11
39.4533
 21
30.0706
  0
LINE
  8
0
 10
39.4533
 20
30.0706
 11
41.4372
 21
32.4199
  0
LINE
  8
0
 10
41.4372
 20
32.4199
 11
44.0657
 21
35.367
  0
LINE
  8
0
 10
44.0657
 20
35.367
 11
46.7368
 21
38.2591
  0
LINE
  8
0
 10
46.7368
 20
38.2591
 11
49.8193
 21
35.1765
  0
LINE
  8
0
 10
49.8193
 20
35.1765
 11
46.7871
 21
32.7747
  0
LINE
  8
0
 10
46.7871
 20
32.7747
 11
43.6139
 21
30.3471
  0
LINE
  8
0
 10
43.6139
 20
30.3471
 11
41.0847
 21
28.517
  0
LINE
  8
0
 10
41.0847
 20
28.517
 11
39.2006
 21
27.2842
  0
LINE
  8
0
 10
39.2006
 20
27.2842
 11
37.9619
 21
26.6489
  0
LINE
  8
0
 10
37.9619
 20
26.6489
 11
37.3714
 21
26.6104
  0
LINE
  8
0
 10
37.3714
 20
26.6104
 11
37.4208
 21
27.1643
  0
LINE
  8
0
 10
7.42081
 20
27.1643
 11
8.11432
 21
28.3183
  0
LINE
  8
0
 10
8.11432
 20
28.3183
 11
9.45328
 21
30.0706
  0
LINE
  8
0
 10
9.45328
 20
30.0706
 11
11.4372
 21
32.4199
  0
LINE
  8
0
 10
11.4372
 20
32.4199
 11
14.0657
 21
35.367
  0
LINE
  8
0
 10
14.0657
 20
35.367
 11
16.7368
 21
38.2591
  0
LINE
  8
0
 10
16.7368
 20
38.2591
 11
19.8193
 21
35.1765
  0
LINE
  8
0
 10
19.8193
 20
35.1765
 11
16.7871
 21
32.7747
  0
LINE
  8
0
 10
16.7871
 20
32.7747
 11
13.6139
 21
30.3471
  0
LINE
  8
0
 10
13.6139
 20
30.3471
 11
11.0847
 21
28.517
  0
LINE
  8
0
 10
11.0847
 20
28.517
 11
9.20059
 21
27.2842
  0
LINE
  8
0
 10
9.20059
 20
27.2842
 11
7.96188
 21
26.6489
  0
LINE
  8
0
 10
7.96188
 20
26.6489
 11
7.37137
 21
26.6104
  0
LINE
  8
0
 10
7.37137
 20
26.6104
 11
7.42081
 21
27.1643
  0
LINE
  8
0
 10
-22.5792
 20
27.1643
 11
-21.8857
 21
28.3183
  0
LINE
  8
0
 10
-21.8857
 20
28.3183
 11
-20.5467
 21
30.0706
  0
LINE
  8
0
 10
-20.5467
 20
30.0706
 11
-18.5628
 21
32.4199
  0
LINE
  8
0
 10
-18.5628
 20
32.4199
 11
-15.9343
 21
35.367
  0
LINE
  8
0
 10
-15.9343
 20
35.367
 11
-13.2632
 21
38.2591
  0
LINE
  8
0
 10
-13.2632
 20
38.2591
 11
-10.1807
 21
35.1765
  0
LINE
  8
0
 10
-10.1807
 20
35.1765
 11
-13.2129
 21
32.7747
  0
LINE
  8
0
 10
-13.2129
 20
32.7747
 11
-16.3861
 21
30.3471
  0
LINE
  8
0
 10
-16.3861
 20
30.3471
 11
-18.9153
 21
28.517
  0
LINE
  8
0
 10
-18.9153
 20
28.517
 11
-20.7994
 21
27.2842
  0
LINE
  8
0
 10
-20.7994
 20
27.2842
 11
-22.0381
 21
26.6489
  0
LINE
  8
0
 10
-22.0381
 20
26.6489
 11
-22.6286
 21
26.6104
  0
LINE
  8
0
 10
-22.6286
 20
26.6104
 11
-22.5792
 21
27.1643
  0
LINE
  8
0
 10
-52.5792
 20
27.1643
 11
-51.8857
 21
28.3183
  0
LINE
  8
0
 10
-51.8857
 20
28.3183
 11
-50.5467
 21
30.0706
  0
LINE
  8
0
 10
-50.5467
 20
30.0706
 11
-48.5628
 21
32.4199
  0
LINE
  8
0
 10
-48.5628
 20
32.4199
 11
-45.9343
 21
35.367
  0
LINE
  8
0
 10
-45.9343
 20
35.367
 11
-43.2632
 21
38.2591
  0
LINE
  8
0
 10
-43.2632
 20
38.2591
 11
-40.1807
 21
35.1765
  0
LINE
  8
0
 10
-40.1807
 20
35.1765
 11
-43.2129
 21
32.7747
  0
LINE
  8
0
 10
-43.2129
 20
32.7747
 11
-46.3861
 21
30.3471
  0
LINE
  8
0
 10
-46.3861
 20
30.3471
 11
-48.9153
 21
28.517
  0
LINE
  8
0
 10
-48.9153
 20
28.517
 11
-50.7994
 21
27.2842
  0
LINE
  8
0
 10
-50.7994
 20
27.2842
 11
-52.0381
 21
26.6489
  0
LINE
  8
0
 10
-52.0381
 20
26.6489
 11
-52.6286
 21
26.6104
  0
LINE
  8
0
 10
-52.6286
 20
26.6104
 11
-52.5792
 21
27.1643
  0
LINE
  8
0
 10
-51.302
 20
34.1022
 11
-51.0823
 21
33.9218
  0
LINE
  8
0
 10
-51.0823
 20
33.9218
 11
-51.4945
 21
33.5096
  0
LINE
  8
0
 10
-51.4945
 20
33.5096
 11
-51.302
 21
34.1022
  0
LINE
  8
0
 10
46.0735
 20
25.8698
 11
46.0194
 21
26.3179
  0
LINE
  8
0
 10
46.0194
 20
26.3179
 11
46.3614
 21
27.1767
  0
LINE
  8
0
 10
46.3614
 20
27.1767
 11
47.0998
 21
28.4447
  0
LINE
  8
0
 10
47.0998
 20
28.4447
 11
48.2364
 21
30.1224
  0
LINE
  8
0
 10
48.2364
 20
30.1224
 11
49.7694
 21
32.2089
  0
LINE
  8
0
 10
49.7694
 20
32.2089
 11
51.0855
 21
33.9104
  0
LINE
  8
0
 10
51.0855
 20
33.9104
 11
51.4985
 21
33.4974
  0
LINE
  8
0
 10
51.4985
 20
33.4974
 11
52.6285
 21
30.0196
  0
LINE
  8
0
 10
52.6285
 20
30.0196
 11
52.2968
 21
29.747
  0
LINE
  8
0
 10
52.2968
 20
29.747
 11
50.2574
 21
28.1535
  0
LINE
  8
0
 10
50.2574
 20
28.1535
 11
48.615
 21
26.9688
  0
LINE
  8
0
 10
48.615
 20
26.9688
 11
47.3694
 21
26.1938
  0
LINE
  8
0
 10
47.3694
 20
26.1938
 11
46.5221
 21
25.8276
  0
LINE
  8
0
 10
46.5221
 20
25.8276
 11
46.0735
 21
25.8698
  0
LINE
  8
0
 10
-13.9265
 20
25.8698
 11
-13.9806
 21
26.3179
  0
LINE
  8
0
 10
-13.9806
 20
26.3179
 11
-13.6386
 21
27.1767
  0
LINE
  8
0
 10
-13.6386
 20
27.1767
 11
-12.9002
 21
28.4447
  0
LINE
  8
0
 10
-12.9002
 20
28.4447
 11
-11.7636
 21
30.1224
  0
LINE
  8
0
 10
-11.7636
 20
30.1224
 11
-10.2306
 21
32.2089
  0
LINE
  8
0
 10
-10.2306
 20
32.2089
 11
-8.91449
 21
33.9104
  0
LINE
  8
0
 10
-8.91449
 20
33.9104
 11
-6.08276
 21
31.0786
  0
LINE
  8
0
 10
-6.08276
 20
31.0786
 11
-7.70325
 21
29.747
  0
LINE
  8
0
 10
-7.70325
 20
29.747
 11
-9.74258
 21
28.1535
  0
LINE
  8
0
 10
-9.74258
 20
28.1535
 11
-11.385
 21
26.9688
  0
LINE
  8
0
 10
-11.385
 20
26.9688
 11
-12.6306
 21
26.1938
  0
LINE
  8
0
 10
-12.6306
 20
26.1938
 11
-13.4779
 21
25.8276
  0
LINE
  8
0
 10
-13.4779
 20
25.8276
 11
-13.9265
 21
25.8698
  0
LINE
  8
0
 10
-43.9265
 20
25.8698
 11
-43.9806
 21
26.3179
  0
LINE
  8
0
 10
-43.9806
 20
26.3179
 11
-43.6386
 21
27.1767
  0
LINE
  8
0
 10
-43.6386
 20
27.1767
 11
-42.9002
 21
28.4447
  0
LINE
  8
0
 10
-42.9002
 20
28.4447
 11
-41.7636
 21
30.1224
  0
LINE
  8
0
 10
-41.7636
 20
30.1224
 11
-40.2306
 21
32.2089
  0
LINE
  8
0
 10
-40.2306
 20
32.2089
 11
-38.9145
 21
33.9104
  0
LINE
  8
0
 10
-38.9145
 20
33.9104
 11
-36.0828
 21
31.0786
  0
LINE
  8
0
 10
-36.0828
 20
31.0786
 11
-37.7032
 21
29.747
  0
LINE
  8
0
 10
-37.7032
 20
29.747
 11
-39.7426
 21
28.1535
  0
LINE
  8
0
 10
-39.7426
 20
28.1535
 11
-41.385
 21
26.9688
  0
LINE
  8
0
 10
-41.385
 20
26.9688
 11
-42.6306
 21
26.1938
  0
LINE
  8
0
 10
-42.6306
 20
26.1938
 11
-43.4779
 21
25.8276
  0
LINE
  8
0
 10
-43.4779
 20
25.8276
 11
-43.9265
 21
25.8698
  0
LINE
  8
0
 10
16.0735
 20
25.8698
 11
16.0194
 21
26.3179
  0
LINE
  8
0
 10
16.0194
 20
26.3179
 11
16.3614
 21
27.1767
  0
LINE
  8
0
 10
16.3614
 20
27.1767
 11
17.0998
 21
28.4447
  0
LINE
  8
0
 10
17.0998
 20
28.4447
 11
18.2364
 21
30.1224
  0
LINE
  8
0
 10
18.2364
 20
30.1224
 11
19.7694
 21
32.2089
  0
LINE
  8
0
 10
19.7694
 20
32.2089
 11
21.0855
 21
33.9104
  0
LINE
  8
0
 10
21.0855
 20
33.9104
 11
23.9172
 21
31.0786
  0
LINE
  8
0
 10
23.9172
 20
31.0786
 11
22.2968
 21
29.747
  0
LINE
  8
0
 10
22.2968
 20
29.747
 11
20.2574
 21
28.1535
  0
LINE
  8
0
 10
20.2574
 20
28.1535
 11
18.615
 21
26.9688
  0
LINE
  8
0
 10
18.615
 20
26.9688
 11
17.3694
 21
26.1938
  0
LINE
  8
0
 10
17.3694
 20
26.1938
 11
16.5221
 21
25.8276
  0
LINE
  8
0
 10
16.5221
 20
25.8276
 11
16.0735
 21
25.8698
  0
LINE
  8
0
 10
-37.034
 20
25.7132
 11
-37.126
 21
26.0172
  0
LINE
  8
0
 10
-37.126
 20
26.0172
 11
-37.0015
 21
26.5184
  0
LINE
  8
0
 10
-37.0015
 20
26.5184
 11
-36.6591
 21
27.2183
  0
LINE
  8
0
 10
-36.6591
 20
27.2183
 11
-36.0997
 21
28.1146
  0
LINE
  8
0
 10
-36.0997
 20
28.1146
 11
-35.3224
 21
29.2082
  0
LINE
  8
0
 10
-35.3224
 20
29.2082
 11
-34.839
 21
29.8349
  0
LINE
  8
0
 10
-34.839
 20
29.8349
 11
-32.5919
 21
27.5877
  0
LINE
  8
0
 10
-32.5919
 20
27.5877
 11
-33.3138
 21
27.1359
  0
LINE
  8
0
 10
-33.3138
 20
27.1359
 11
-34.4939
 21
26.458
  0
LINE
  8
0
 10
-34.4939
 20
26.458
 11
-35.4561
 21
25.9764
  0
LINE
  8
0
 10
-35.4561
 20
25.9764
 11
-36.2
 21
25.6921
  0
LINE
  8
0
 10
-36.2
 20
25.6921
 11
-36.7259
 21
25.6042
  0
LINE
  8
0
 10
-36.7259
 20
25.6042
 11
-37.034
 21
25.7132
  0
LINE
  8
0
 10
-7.034
 20
25.7132
 11
-7.12601
 21
26.0172
  0
LINE
  8
0
 10
-7.12601
 20
26.0172
 11
-7.0015
 21
26.5184
  0
LINE
  8
0
 10
-7.0015
 20
26.5184
 11
-6.65909
 21
27.2183
  0
LINE
  8
0
 10
-6.65909
 20
27.2183
 11
-6.0997
 21
28.1146
  0
LINE
  8
0
 10
-6.0997
 20
28.1146
 11
-5.32242
 21
29.2082
  0
LINE
  8
0
 10
-5.32242
 20
29.2082
 11
-4.83902
 21
29.8349
  0
LINE
  8
0
 10
-4.83902
 20
29.8349
 11
-2.59186
 21
27.5877
  0
LINE
  8
0
 10
-2.59186
 20
27.5877
 11
-3.31375
 21
27.1359
  0
LINE
  8
0
 10
-3.31375
 20
27.1359
 11
-4.49387
 21
26.458
  0
LINE
  8
0
 10
-4.49387
 20
26.458
 11
-5.45609
 21
25.9764
  0
LINE
  8
0
 10
-5.45609
 20
25.9764
 11
-6.19995
 21
25.6921
  0
LINE
  8
0
 10
-6.19995
 20
25.6921
 11
-6.72592
 21
25.6042
  0
LINE
  8
0
 10
-6.72592
 20
25.6042
 11
-7.034
 21
25.7132
  0
LINE
  8
0
 10
22.966
 20
25.7132
 11
22.874
 21
26.0172
  0
LINE
  8
0
 10
22.874
 20
26.0172
 11
22.9985
 21
26.5184
  0
LINE
  8
0
 10
22.9985
 20
26.5184
 11
23.3409
 21
27.2183
  0
LINE
  8
0
 10
23.3409
 20
27.2183
 11
23.9003
 21
28.1146
  0
LINE
  8
0
 10
23.9003
 20
28.1146
 11
24.6776
 21
29.2082
  0
LINE
  8
0
 10
24.6776
 20
29.2082
 11
25.161
 21
29.8349
  0
LINE
  8
0
 10
25.161
 20
29.8349
 11
27.4081
 21
27.5877
  0
LINE
  8
0
 10
27.4081
 20
27.5877
 11
26.6862
 21
27.1359
  0
LINE
  8
0
 10
26.6862
 20
27.1359
 11
25.5061
 21
26.458
  0
LINE
  8
0
 10
25.5061
 20
26.458
 11
24.5439
 21
25.9764
  0
LINE
  8
0
 10
24.5439
 20
25.9764
 11
23.8
 21
25.6921
  0
LINE
  8
0
 10
23.8
 20
25.6921
 11
23.2741
 21
25.6042
  0
LINE
  8
0
 10
23.2741
 20
25.6042
 11
22.966
 21
25.7132
  0
LINE
  8
0
 10
52.966
 20
25.7132
 11
52.874
 21
26.0172
  0
LINE
  8
0
 10
52.874
 20
26.0172
 11
52.9985
 21
26.5184
  0
LINE
  8
0
 10
52.9985
 20
26.5184
 11
53.3409
 21
27.2183
  0
LINE
  8
0
 10
53.3409
 20
27.2183
 11
53.471
 21
27.4267
  0
LINE
  8
0
 10
53.471
 20
27.4267
 11
54.0087
 21
25.7719
  0
LINE
  8
0
 10
54.0087
 20
25.7719
 11
53.8
 21
25.6921
  0
LINE
  8
0
 10
53.8
 20
25.6921
 11
53.2741
 21
25.6042
  0
LINE
  8
0
 10
53.2741
 20
25.6042
 11
52.966
 21
25.7132
  0
LINE
  8
0
 10
-55.6662
 20
20.6704
 11
-54.5831
 21
24.004
  0
LINE
  8
0
 10
-54.5831
 20
24.004
 11
-54.5439
 21
24.0236
  0
LINE
  8
0
 10
-54.5439
 20
24.0236
 11
-53.8
 21
24.3079
  0
LINE
  8
0
 10
-53.8
 20
24.3079
 11
-53.2741
 21
24.3958
  0
LINE
  8
0
 10
-53.2741
 20
24.3958
 11
-52.966
 21
24.2868
  0
LINE
  8
0
 10
-52.966
 20
24.2868
 11
-52.874
 21
23.9828
  0
LINE
  8
0
 10
-52.874
 20
23.9828
 11
-52.9985
 21
23.4811
  0
LINE
  8
0
 10
-52.9985
 20
23.4811
 11
-53.3409
 21
22.7817
  0
LINE
  8
0
 10
-53.3409
 20
22.7817
 11
-53.9008
 21
21.8849
  0
LINE
  8
0
 10
-53.9008
 20
21.8849
 11
-54.6776
 21
20.7918
  0
LINE
  8
0
 10
-54.6776
 20
20.7918
 11
-55.161
 21
20.1651
  0
LINE
  8
0
 10
-55.161
 20
20.1651
 11
-55.6662
 21
20.6704
  0
LINE
  8
0
 10
-27.4081
 20
22.4123
 11
-26.6862
 21
22.8641
  0
LINE
  8
0
 10
-26.6862
 20
22.8641
 11
-25.5061
 21
23.542
  0
LINE
  8
0
 10
-25.5061
 20
23.542
 11
-24.5439
 21
24.0236
  0
LINE
  8
0
 10
-24.5439
 20
24.0236
 11
-23.8
 21
24.3079
  0
LINE
  8
0
 10
-23.8
 20
24.3079
 11
-23.2741
 21
24.3958
  0
LINE
  8
0
 10
-23.2741
 20
24.3958
 11
-22.966
 21
24.2868
  0
LINE
  8
0
 10
-22.966
 20
24.2868
 11
-22.874
 21
23.9828
  0
LINE
  8
0
 10
-22.874
 20
23.9828
 11
-22.9985
 21
23.4811
  0
LINE
  8
0
 10
-22.9985
 20
23.4811
 11
-23.3409
 21
22.7817
  0
LINE
  8
0
 10
-23.3409
 20
22.7817
 11
-23.9008
 21
21.8849
  0
LINE
  8
0
 10
-23.9008
 20
21.8849
 11
-24.6776
 21
20.7918
  0
LINE
  8
0
 10
-24.6776
 20
20.7918
 11
-25.161
 21
20.1651
  0
LINE
  8
0
 10
-25.161
 20
20.1651
 11
-27.4081
 21
22.4123
  0
LINE
  8
0
 10
32.5919
 20
22.4123
 11
33.3138
 21
22.8641
  0
LINE
  8
0
 10
33.3138
 20
22.8641
 11
34.4939
 21
23.542
  0
LINE
  8
0
 10
34.4939
 20
23.542
 11
35.4561
 21
24.0236
  0
LINE
  8
0
 10
35.4561
 20
24.0236
 11
36.2
 21
24.3079
  0
LINE
  8
0
 10
36.2
 20
24.3079
 11
36.7259
 21
24.3958
  0
LINE
  8
0
 10
36.7259
 20
24.3958
 11
37.034
 21
24.2868
  0
LINE
  8
0
 10
37.034
 20
24.2868
 11
37.126
 21
23.9828
  0
LINE
  8
0
 10
37.126
 20
23.9828
 11
37.0015
 21
23.4811
  0
LINE
  8
0
 10
37.0015
 20
23.4811
 11
36.6591
 21
22.7817
  0
LINE
  8
0
 10
36.6591
 20
22.7817
 11
36.0992
 21
21.8849
  0
LINE
  8
0
 10
36.0992
 20
21.8849
 11
35.3224
 21
20.7918
  0
LINE
  8
0
 10
35.3224
 20
20.7918
 11
34.839
 21
20.1651
  0
LINE
  8
0
 10
34.839
 20
20.1651
 11
32.5919
 21
22.4123
  0
LINE
  8
0
 10
2.59186
 20
22.4123
 11
3.31375
 21
22.8641
  0
LINE
  8
0
 10
3.31375
 20
22.8641
 11
4.49387
 21
23.542
  0
LINE
  8
0
 10
4.49387
 20
23.542
 11
5.45609
 21
24.0236
  0
LINE
  8
0
 10
5.45609
 20
24.0236
 11
6.19995
 21
24.3079
  0
LINE
  8
0
 10
6.19995
 20
24.3079
 11
6.72592
 21
24.3958
  0
LINE
  8
0
 10
6.72592
 20
24.3958
 11
7.034
 21
24.2868
  0
LINE
  8
0
 10
7.034
 20
24.2868
 11
7.12601
 21
23.9828
  0
LINE
  8
0
 10
7.12601
 20
23.9828
 11
7.0015
 21
23.4811
  0
LINE
  8
0
 10
7.0015
 20
23.4811
 11
6.65909
 21
22.7817
  0
LINE
  8
0
 10
6.65909
 20
22.7817
 11
6.09924
 21
21.8849
  0
LINE
  8
0
 10
6.09924
 20
21.8849
 11
5.32242
 21
20.7918
  0
LINE
  8
0
 10
5.32242
 20
20.7918
 11
4.83902
 21
20.1651
  0
LINE
  8
0
 10
4.83902
 20
20.1651
 11
2.59186
 21
22.4123
  0
LINE
  8
0
 10
36.0828
 20
18.9214
 11
37.7032
 21
20.253
  0
LINE
  8
0
 10
37.7032
 20
20.253
 11
39.7426
 21
21.8465
  0
LINE
  8
0
 10
39.7426
 20
21.8465
 11
41.385
 21
23.0312
  0
LINE
  8
0
 10
41.385
 20
23.0312
 11
42.6306
 21
23.8062
  0
LINE
  8
0
 10
42.6306
 20
23.8062
 11
43.4779
 21
24.1724
  0
LINE
  8
0
 10
43.4779
 20
24.1724
 11
43.9265
 21
24.1302
  0
LINE
  8
0
 10
43.9265
 20
24.1302
 11
43.9806
 21
23.6821
  0
LINE
  8
0
 10
43.9806
 20
23.6821
 11
43.6386
 21
22.8233
  0
LINE
  8
0
 10
43.6386
 20
22.8233
 11
42.8998
 21
21.5544
  0
LINE
  8
0
 10
42.8998
 20
21.5544
 11
41.7636
 21
19.8776
  0
LINE
  8
0
 10
41.7636
 20
19.8776
 11
40.2306
 21
17.7911
  0
LINE
  8
0
 10
40.2306
 20
17.7911
 11
38.9145
 21
16.0896
  0
LINE
  8
0
 10
38.9145
 20
16.0896
 11
36.0828
 21
18.9214
  0
LINE
  8
0
 10
6.08276
 20
18.9214
 11
7.70325
 21
20.253
  0
LINE
  8
0
 10
7.70325
 20
20.253
 11
9.74258
 21
21.8465
  0
LINE
  8
0
 10
9.74258
 20
21.8465
 11
11.385
 21
23.0312
  0
LINE
  8
0
 10
11.385
 20
23.0312
 11
12.6306
 21
23.8062
  0
LINE
  8
0
 10
12.6306
 20
23.8062
 11
13.4779
 21
24.1724
  0
LINE
  8
0
 10
13.4779
 20
24.1724
 11
13.9265
 21
24.1302
  0
LINE
  8
0
 10
13.9265
 20
24.1302
 11
13.9806
 21
23.6821
  0
LINE
  8
0
 10
13.9806
 20
23.6821
 11
13.6386
 21
22.8233
  0
LINE
  8
0
 10
13.6386
 20
22.8233
 11
12.8998
 21
21.5544
  0
LINE
  8
0
 10
12.8998
 20
21.5544
 11
11.7636
 21
19.8776
  0
LINE
  8
0
 10
11.7636
 20
19.8776
 11
10.2306
 21
17.7911
  0
LINE
  8
0
 10
10.2306
 20
17.7911
 11
8.91449
 21
16.0896
  0
LINE
  8
0
 10
8.91449
 20
16.0896
 11
6.08276
 21
18.9214
  0
LINE
  8
0
 10
-23.9172
 20
18.9214
 11
-22.2968
 21
20.253
  0
LINE
  8
0
 10
-22.2968
 20
20.253
 11
-20.2574
 21
21.8465
  0
LINE
  8
0
 10
-20.2574
 20
21.8465
 11
-18.615
 21
23.0312
  0
LINE
  8
0
 10
-18.615
 20
23.0312
 11
-17.3694
 21
23.8062
  0
LINE
  8
0
 10
-17.3694
 20
23.8062
 11
-16.5221
 21
24.1724
  0
LINE
  8
0
 10
-16.5221
 20
24.1724
 11
-16.0735
 21
24.1302
  0
LINE
  8
0
 10
-16.0735
 20
24.1302
 11
-16.0194
 21
23.6821
  0
LINE
  8
0
 10
-16.0194
 20
23.6821
 11
-16.3614
 21
22.8233
  0
LINE
  8
0
 10
-16.3614
 20
22.8233
 11
-17.1002
 21
21.5544
  0
LINE
  8
0
 10
-17.1002
 20
21.5544
 11
-18.2364
 21
19.8776
  0
LINE
  8
0
 10
-18.2364
 20
19.8776
 11
-19.7694
 21
17.7911
  0
LINE
  8
0
 10
-19.7694
 20
17.7911
 11
-21.0855
 21
16.0896
  0
LINE
  8
0
 10
-21.0855
 20
16.0896
 11
-23.9172
 21
18.9214
  0
LINE
  8
0
 10
-53.9172
 20
18.9214
 11
-52.2968
 21
20.253
  0
LINE
  8
0
 10
-52.2968
 20
20.253
 11
-50.2574
 21
21.8465
  0
LINE
  8
0
 10
-50.2574
 20
21.8465
 11
-48.615
 21
23.0312
  0
LINE
  8
0
 10
-48.615
 20
23.0312
 11
-47.3694
 21
23.8062
  0
LINE
  8
0
 10
-47.3694
 20
23.8062
 11
-46.5221
 21
24.1724
  0
LINE
  8
0
 10
-46.5221
 20
24.1724
 11
-46.0735
 21
24.1302
  0
LINE
  8
0
 10
-46.0735
 20
24.1302
 11
-46.0194
 21
23.6821
  0
LINE
  8
0
 10
-46.0194
 20
23.6821
 11
-46.3614
 21
22.8233
  0
LINE
  8
0
 10
-46.3614
 20
22.8233
 11
-47.1002
 21
21.5544
  0
LINE
  8
0
 10
-47.1002
 20
21.5544
 11
-48.2364
 21
19.8776
  0
LINE
  8
0
 10
-48.2364
 20
19.8776
 11
-49.7694
 21
17.7911
  0
LINE
  8
0
 10
-49.7694
 20
17.7911
 11
-51.0855
 21
16.0896
  0
LINE
  8
0
 10
-51.0855
 20
16.0896
 11
-53.9172
 21
18.9214
  0
LINE
  8
0
 10
-16.9959
 20
12
 11
-19.8193
 21
14.8235
  0
LINE
  8
0
 10
-19.8193
 20
14.8235
 11
-16.7871
 21
17.2253
  0
LINE
  8
0
 10
-16.7871
 20
17.2253
 11
-13.6139
 21
19.6529
  0
LINE
  8
0
 10
-13.6139
 20
19.6529
 11
-11.0847
 21
21.483
  0
LINE
  8
0
 10
-11.0847
 20
21.483
 11
-9.20059
 21
22.7158
  0
LINE
  8
0
 10
-9.20059
 20
22.7158
 11
-7.96188
 21
23.3511
  0
LINE
  8
0
 10
-7.96188
 20
23.3511
 11
-7.37137
 21
23.3896
  0
LINE
  8
0
 10
-7.37137
 20
23.3896
 11
-7.42081
 21
22.8357
  0
LINE
  8
0
 10
-7.42081
 20
22.8357
 11
-8.11432
 21
21.6817
  0
LINE
  8
0
 10
-8.11432
 20
21.6817
 11
-9.45374
 21
19.9289
  0
LINE
  8
0
 10
-9.45374
 20
19.9289
 11
-11.4372
 21
17.5801
  0
LINE
  8
0
 10
-11.4372
 20
17.5801
 11
-14.0657
 21
14.633
  0
LINE
  8
0
 10
-14.0657
 20
14.633
 11
-16.4974
 21
12
  0
LINE
  8
0
 10
-16.4974
 20
12
 11
-16.9959
 21
12
  0
LINE
  8
0
 10
13.0041
 20
12
 11
10.1807
 21
14.8235
  0
LINE
  8
0
 10
10.1807
 20
14.8235
 11
13.2129
 21
17.2253
  0
LINE
  8
0
 10
13.2129
 20
17.2253
 11
16.3861
 21
19.6529
  0
LINE
  8
0
 10
16.3861
 20
19.6529
 11
18.9153
 21
21.483
  0
LINE
  8
0
 10
18.9153
 20
21.483
 11
20.7994
 21
22.7158
  0
LINE
  8
0
 10
20.7994
 20
22.7158
 11
22.0381
 21
23.3511
  0
LINE
  8
0
 10
22.0381
 20
23.3511
 11
22.6286
 21
23.3896
  0
LINE
  8
0
 10
22.6286
 20
23.3896
 11
22.5792
 21
22.8357
  0
LINE
  8
0
 10
22.5792
 20
22.8357
 11
21.8857
 21
21.6817
  0
LINE
  8
0
 10
21.8857
 20
21.6817
 11
20.5463
 21
19.9289
  0
LINE
  8
0
 10
20.5463
 20
19.9289
 11
18.5628
 21
17.5801
  0
LINE
  8
0
 10
18.5628
 20
17.5801
 11
15.9343
 21
14.633
  0
LINE
  8
0
 10
15.9343
 20
14.633
 11
13.5026
 21
12
  0
LINE
  8
0
 10
13.5026
 20
12
 11
13.0041
 21
12
  0
LINE
  8
0
 10
-46.9959
 20
12
 11
-49.8193
 21
14.8235
  0
LINE
  8
0
 10
-49.8193
 20
14.8235
 11
-46.7871
 21
17.2253
  0
LINE
  8
0
 10
-46.7871
 20
17.2253
 11
-43.6139
 21
19.6529
  0
LINE
  8
0
 10
-43.6139
 20
19.6529
 11
-41.0847
 21
21.483
  0
LINE
  8
0
 10
-41.0847
 20
21.483
 11
-39.2006
 21
22.7158
  0
LINE
  8
0
 10
-39.2006
 20
22.7158
 11
-37.9619
 21
23.3511
  0
LINE
  8
0
 10
-37.9619
 20
23.3511
 11
-37.3714
 21
23.3896
  0
LINE
  8
0
 10
-37.3714
 20
23.3896
 11
-37.4208
 21
22.8357
  0
LINE
  8
0
 10
-37.4208
 20
22.8357
 11
-38.1143
 21
21.6817
  0
LINE
  8
0
 10
-38.1143
 20
21.6817
 11
-39.4537
 21
19.9289
  0
LINE
  8
0
 10
-39.4537
 20
19.9289
 11
-41.4372
 21
17.5801
  0
LINE
  8
0
 10
-41.4372
 20
17.5801
 11
-44.0657
 21
14.633
  0
LINE
  8
0
 10
-44.0657
 20
14.633
 11
-46.4974
 21
12
  0
LINE
  8
0
 10
-46.4974
 20
12
 11
-46.9959
 21
12
  0
LINE
  8
0
 10
43.0041
 20
12
 11
40.1807
 21
14.8235
  0
LINE
  8
0
 10
40.1807
 20
14.8235
 11
43.2129
 21
17.2253
  0
LINE
  8
0
 10
43.2129
 20
17.2253
 11
46.3861
 21
19.6529
  0
LINE
  8
0
 10
46.3861
 20
19.6529
 11
48.9153
 21
21.483
  0
LINE
  8
0
 10
48.9153
 20
21.483
 11
50.7994
 21
22.7158
  0
LINE
  8
0
 10
50.7994
 20
22.7158
 11
52.0381
 21
23.3511
  0
LINE
  8
0
 10
52.0381
 20
23.3511
 11
52.6286
 21
23.3896
  0
LINE
  8
0
 10
52.6286
 20
23.3896
 11
52.5792
 21
22.8357
  0
LINE
  8
0
 10
52.5792
 20
22.8357
 11
51.8857
 21
21.6817
  0
LINE
  8
0
 10
51.8857
 20
21.6817
 11
50.5463
 21
19.9289
  0
LINE
  8
0
 10
50.5463
 20
19.9289
 11
48.5628
 21
17.5801
  0
LINE
  8
0
 10
48.5628
 20
17.5801
 11
45.9343
 21
14.633
  0
LINE
  8
0
 10
45.9343
 20
14.633
 11
43.5026
 21
12
  0
LINE
  8
0
 10
43.5026
 20
12
 11
43.0041
 21
12
  0
LINE
  8
0
 10
-23.6464
 20
12
 11
-24.2006
 21
12.2842
  0
LINE
  8
0
 10
-24.2006
 20
12.2842
 11
-26.0852
 21
13.5175
  0
LINE
  8
0
 10
-26.0852
 20
13.5175
 11
-28.6143
 21
15.3476
  0
LINE
  8
0
 10
-28.6143
 20
15.3476
 11
-31.7871
 21
17.7747
  0
LINE
  8
0
 10
-31.7871
 20
17.7747
 11
-34.8193
 21
20.1765
  0
LINE
  8
0
 10
-34.8193
 20
20.1765
 11
-31.7368
 21
23.2591
  0
LINE
  8
0
 10
-31.7368
 20
23.2591
 11
-29.0657
 21
20.367
  0
LINE
  8
0
 10
-29.0657
 20
20.367
 11
-26.4372
 21
17.4199
  0
LINE
  8
0
 10
-26.4372
 20
17.4199
 11
-24.4533
 21
15.0706
  0
LINE
  8
0
 10
-24.4533
 20
15.0706
 11
-23.1139
 21
13.3179
  0
LINE
  8
0
 10
-23.1139
 20
13.3179
 11
-22.4208
 21
12.1643
  0
LINE
  8
0
 10
-22.4208
 20
12.1643
 11
-22.4061
 21
12
  0
LINE
  8
0
 10
-22.4061
 20
12
 11
-23.6464
 21
12
  0
LINE
  8
0
 10
6.35356
 20
12
 11
5.79941
 21
12.2842
  0
LINE
  8
0
 10
5.79941
 20
12.2842
 11
3.91479
 21
13.5175
  0
LINE
  8
0
 10
3.91479
 20
13.5175
 11
1.38565
 21
15.3476
  0
LINE
  8
0
 10
1.38565
 20
15.3476
 11
-1.78711
 21
17.7747
  0
LINE
  8
0
 10
-1.78711
 20
17.7747
 11
-4.81934
 21
20.1765
  0
LINE
  8
0
 10
-4.81934
 20
20.1765
 11
-1.73676
 21
23.2591
  0
LINE
  8
0
 10
-1.73676
 20
23.2591
 11
0.934296
 21
20.367
  0
LINE
  8
0
 10
0.934296
 20
20.367
 11
3.56277
 21
17.4199
  0
LINE
  8
0
 10
3.56277
 20
17.4199
 11
5.54672
 21
15.0706
  0
LINE
  8
0
 10
5.54672
 20
15.0706
 11
6.88614
 21
13.3179
  0
LINE
  8
0
 10
6.88614
 20
13.3179
 11
7.57919
 21
12.1643
  0
LINE
  8
0
 10
7.57919
 20
12.1643
 11
7.59386
 21
12
  0
LINE
  8
0
 10
7.59386
 20
12
 11
6.35356
 21
12
  0
LINE
  8
0
 10
36.3536
 20
12
 11
35.7994
 21
12.2842
  0
LINE
  8
0
 10
35.7994
 20
12.2842
 11
33.9148
 21
13.5175
  0
LINE
  8
0
 10
33.9148
 20
13.5175
 11
31.3857
 21
15.3476
  0
LINE
  8
0
 10
31.3857
 20
15.3476
 11
28.2129
 21
17.7747
  0
LINE
  8
0
 10
28.2129
 20
17.7747
 11
25.1807
 21
20.1765
  0
LINE
  8
0
 10
25.1807
 20
20.1765
 11
28.2632
 21
23.2591
  0
LINE
  8
0
 10
28.2632
 20
23.2591
 11
30.9343
 21
20.367
  0
LINE
  8
0
 10
30.9343
 20
20.367
 11
33.5628
 21
17.4199
  0
LINE
  8
0
 10
33.5628
 20
17.4199
 11
35.5467
 21
15.0706
  0
LINE
  8
0
 10
35.5467
 20
15.0706
 11
36.8861
 21
13.3179
  0
LINE
  8
0
 10
36.8861
 20
13.3179
 11
37.5792
 21
12.1643
  0
LINE
  8
0
 10
37.5792
 20
12.1643
 11
37.5939
 21
12
  0
LINE
  8
0
 10
37.5939
 20
12
 11
36.3536
 21
12
  0
LINE
  8
0
 10
55.1807
 20
20.1765
 11
55.6683
 21
20.6641
  0
LINE
  8
0
 10
55.6683
 20
20.6641
 11
56.0506
 21
19.4875
  0
LINE
  8
0
 10
56.0506
 20
19.4875
 11
55.1807
 21
20.1765
  0
LINE
  8
0
 10
-33.658
 20
12
 11
-35.2574
 21
13.1535
  0
LINE
  8
0
 10
-35.2574
 20
13.1535
 11
-37.2968
 21
14.747
  0
LINE
  8
0
 10
-37.2968
 20
14.747
 11
-38.9177
 21
16.0782
  0
LINE
  8
0
 10
-38.9177
 20
16.0782
 11
-36.086
 21
18.9099
  0
LINE
  8
0
 10
-36.086
 20
18.9099
 11
-34.7694
 21
17.2089
  0
LINE
  8
0
 10
-34.7694
 20
17.2089
 11
-33.2364
 21
15.1224
  0
LINE
  8
0
 10
-33.2364
 20
15.1224
 11
-32.0998
 21
13.4447
  0
LINE
  8
0
 10
-32.0998
 20
13.4447
 11
-31.3609
 21
12.1758
  0
LINE
  8
0
 10
-31.3609
 20
12.1758
 11
-31.291
 21
12
  0
LINE
  8
0
 10
-31.291
 20
12
 11
-33.658
 21
12
  0
LINE
  8
0
 10
-3.65799
 20
12
 11
-5.25742
 21
13.1535
  0
LINE
  8
0
 10
-5.25742
 20
13.1535
 11
-7.29675
 21
14.747
  0
LINE
  8
0
 10
-7.29675
 20
14.747
 11
-8.91769
 21
16.0782
  0
LINE
  8
0
 10
-8.91769
 20
16.0782
 11
-6.08597
 21
18.9099
  0
LINE
  8
0
 10
-6.08597
 20
18.9099
 11
-4.76944
 21
17.2089
  0
LINE
  8
0
 10
-4.76944
 20
17.2089
 11
-3.23639
 21
15.1224
  0
LINE
  8
0
 10
-3.23639
 20
15.1224
 11
-2.09976
 21
13.4447
  0
LINE
  8
0
 10
-2.09976
 20
13.4447
 11
-1.36093
 21
12.1758
  0
LINE
  8
0
 10
-1.36093
 20
12.1758
 11
-1.29097
 21
12
  0
LINE
  8
0
 10
-1.29097
 20
12
 11
-3.65799
 21
12
  0
LINE
  8
0
 10
56.342
 20
12
 11
54.7426
 21
13.1535
  0
LINE
  8
0
 10
54.7426
 20
13.1535
 11
52.7032
 21
14.747
  0
LINE
  8
0
 10
52.7032
 20
14.747
 11
51.0823
 21
16.0782
  0
LINE
  8
0
 10
51.0823
 20
16.0782
 11
53.914
 21
18.9099
  0
LINE
  8
0
 10
53.914
 20
18.9099
 11
55.2306
 21
17.2089
  0
LINE
  8
0
 10
55.2306
 20
17.2089
 11
56.7636
 21
15.1224
  0
LINE
  8
0
 10
56.7636
 20
15.1224
 11
57.9002
 21
13.4447
  0
LINE
  8
0
 10
57.9002
 20
13.4447
 11
58.1577
 21
13.0025
  0
LINE
  8
0
 10
58.1577
 20
13.0025
 11
58.4834
 21
12
  0
LINE
  8
0
 10
58.4834
 20
12
 11
56.342
 21
12
  0
LINE
  8
0
 10
26.342
 20
12
 11
24.7426
 21
13.1535
  0
LINE
  8
0
 10
24.7426
 20
13.1535
 11
22.7032
 21
14.747
  0
LINE
  8
0
 10
22.7032
 20
14.747
 11
21.0823
 21
16.0782
  0
LINE
  8
0
 10
21.0823
 20
16.0782
 11
23.914
 21
18.9099
  0
LINE
  8
0
 10
23.914
 20
18.9099
 11
25.2306
 21
17.2089
  0
LINE
  8
0
 10
25.2306
 20
17.2089
 11
26.7636
 21
15.1224
  0
LINE
  8
0
 10
26.7636
 20
15.1224
 11
27.9002
 21
13.4447
  0
LINE
  8
0
 10
27.9002
 20
13.4447
 11
28.6391
 21
12.1758
  0
LINE
  8
0
 10
28.6391
 20
12.1758
 11
28.709
 21
12
  0
LINE
  8
0
 10
28.709
 20
12
 11
26.342
 21
12
  0
LINE
  8
0
 10
-53.6464
 20
12
 11
-54.2006
 21
12.2842
  0
LINE
  8
0
 10
-54.2006
 20
12.2842
 11
-56.0852
 21
13.5175
  0
LINE
  8
0
 10
-56.0852
 20
13.5175
 11
-57.6277
 21
14.6336
  0
LINE
  8
0
 10
-57.6277
 20
14.6336
 11
-56.6462
 21
17.6542
  0
LINE
  8
0
 10
-56.6462
 20
17.6542
 11
-56.4372
 21
17.4199
  0
LINE
  8
0
 10
-56.4372
 20
17.4199
 11
-54.4533
 21
15.0706
  0
LINE
  8
0
 10
-54.4533
 20
15.0706
 11
-53.1139
 21
13.3179
  0
LINE
  8
0
 10
-53.1139
 20
13.3179
 11
-52.4208
 21
12.1643
  0
LINE
  8
0
 10
-52.4208
 20
12.1643
 11
-52.4061
 21
12
  0
LINE
  8
0
 10
-52.4061
 20
12
 11
-53.6464
 21
12
  0
LINE
  8
0
 10
-41.4496
 20
12
 11
-41.6862
 21
12.1359
  0
LINE
  8
0
 10
-41.6862
 20
12.1359
 11
-42.4081
 21
12.5877
  0
LINE
  8
0
 10
-42.4081
 20
12.5877
 11
-40.161
 21
14.8349
  0
LINE
  8
0
 10
-40.161
 20
14.8349
 11
-39.6776
 21
14.2082
  0
LINE
  8
0
 10
-39.6776
 20
14.2082
 11
-38.9003
 21
13.1146
  0
LINE
  8
0
 10
-38.9003
 20
13.1146
 11
-38.3409
 21
12.2183
  0
LINE
  8
0
 10
-38.3409
 20
12.2183
 11
-38.2341
 21
12
  0
LINE
  8
0
 10
-38.2341
 20
12
 11
-41.4496
 21
12
  0
LINE
  8
0
 10
-11.4496
 20
12
 11
-11.6862
 21
12.1359
  0
LINE
  8
0
 10
-11.6862
 20
12.1359
 11
-12.4081
 21
12.5877
  0
LINE
  8
0
 10
-12.4081
 20
12.5877
 11
-10.161
 21
14.8349
  0
LINE
  8
0
 10
-10.161
 20
14.8349
 11
-9.67758
 21
14.2082
  0
LINE
  8
0
 10
-9.67758
 20
14.2082
 11
-8.9003
 21
13.1146
  0
LINE
  8
0
 10
-8.9003
 20
13.1146
 11
-8.34091
 21
12.2183
  0
LINE
  8
0
 10
-8.34091
 20
12.2183
 11
-8.2341
 21
12
  0
LINE
  8
0
 10
-8.2341
 20
12
 11
-11.4496
 21
12
  0
LINE
  8
0
 10
18.5504
 20
12
 11
18.3138
 21
12.1359
  0
LINE
  8
0
 10
18.3138
 20
12.1359
 11
17.5919
 21
12.5877
  0
LINE
  8
0
 10
17.5919
 20
12.5877
 11
19.839
 21
14.8349
  0
LINE
  8
0
 10
19.839
 20
14.8349
 11
20.3224
 21
14.2082
  0
LINE
  8
0
 10
20.3224
 20
14.2082
 11
21.0997
 21
13.1146
  0
LINE
  8
0
 10
21.0997
 20
13.1146
 11
21.6591
 21
12.2183
  0
LINE
  8
0
 10
21.6591
 20
12.2183
 11
21.7659
 21
12
  0
LINE
  8
0
 10
21.7659
 20
12
 11
18.5504
 21
12
  0
LINE
  8
0
 10
48.5504
 20
12
 11
48.3138
 21
12.1359
  0
LINE
  8
0
 10
48.3138
 20
12.1359
 11
47.5919
 21
12.5877
  0
LINE
  8
0
 10
47.5919
 20
12.5877
 11
49.839
 21
14.8349
  0
LINE
  8
0
 10
49.839
 20
14.8349
 11
50.3224
 21
14.2082
  0
LINE
  8
0
 10
50.3224
 20
14.2082
 11
51.0997
 21
13.1146
  0
LINE
  8
0
 10
51.0997
 20
13.1146
 11
51.6591
 21
12.2183
  0
LINE
  8
0
 10
51.6591
 20
12.2183
 11
51.7659
 21
12
  0
LINE
  8
0
 10
51.7659
 20
12
 11
48.5504
 21
12
  0
LINE
  8
0
 10
-10
 20
7
 11
-10
 21
11
  0
LINE
  8
0
 10
-10
 20
11
 11
10
 21
11
  0
LINE
  8
0
 10
10
 20
11
 11
10
 21
7
  0
LINE
  8
0
 10
10
 20
7
 11
-10
 21
7
  0
LINE
  8
0
 10
-68.6534
 20
2.70622
 11
-68.7785
 21
2.71805
  0
LINE
  8
0
 10
-68.7785
 20
2.71805
 11
-68.9026
 21
2.7377
  0
LINE
  8
0
 10
-68.9026
 20
2.7377
 11
-69.0252
 21
2.76511
  0
LINE
  8
0
 10
-69.0252
 20
2.76511
 11
-69.1459
 21
2.80016
  0
LINE
  8
0
 10
-69.1459
 20
2.80016
 11
-69.2641
 21
2.84273
  0
LINE
  8
0
 10
-69.2641
 20
2.84273
 11
-69.3794
 21
2.89262
  0
LINE
  8
0
 10
-69.3794
 20
2.89262
 11
-69.4914
 21
2.94966
  0
LINE
  8
0
 10
-69.4914
 20
2.94966
 11
-69.5995
 21
3.01363
  0
LINE
  8
0
 10
-69.5995
 20
3.01363
 11
-69.7034
 21
3.08424
  0
LINE
  8
0
 10
-69.7034
 20
3.08424
 11
-69.8027
 21
3.16125
  0
LINE
  8
0
 10
-69.8027
 20
3.16125
 11
-69.897
 21
3.24434
  0
LINE
  8
0
 10
-69.897
 20
3.24434
 11
-69.9858
 21
3.33318
  0
LINE
  8
0
 10
-69.9858
 20
3.33318
 11
-70.0689
 21
3.42743
  0
LINE
  8
0
 10
-70.0689
 20
3.42743
 11
-70.1459
 21
3.5267
  0
LINE
  8
0
 10
-70.1459
 20
3.5267
 11
-70.2165
 21
3.63062
  0
LINE
  8
0
 10
-70.2165
 20
3.63062
 11
-70.2805
 21
3.73877
  0
LINE
  8
0
 10
-70.2805
 20
3.73877
 11
-70.3375
 21
3.85072
  0
LINE
  8
0
 10
-70.3375
 20
3.85072
 11
-70.3874
 21
3.96602
  0
LINE
  8
0
 10
-70.3874
 20
3.96602
 11
-70.43
 21
4.08424
  0
LINE
  8
0
 10
-70.43
 20
4.08424
 11
-70.465
 21
4.2049
  0
LINE
  8
0
 10
-70.465
 20
4.2049
 11
-70.4924
 21
4.32751
  0
LINE
  8
0
 10
-70.4924
 20
4.32751
 11
-70.5121
 21
4.45161
  0
LINE
  8
0
 10
-70.5121
 20
4.45161
 11
-70.5239
 21
4.57669
  0
LINE
  8
0
 10
-70.5239
 20
4.57669
 11
-70.5279
 21
4.70227
  0
LINE
  8
0
 10
-70.5279
 20
4.70227
 11
-70.5239
 21
4.82785
  0
LINE
  8
0
 10
-70.5239
 20
4.82785
 11
-70.5121
 21
4.95294
  0
LINE
  8
0
 10
-70.5121
 20
4.95294
 11
-70.4924
 21
5.07704
  0
LINE
  8
0
 10
-70.4924
 20
5.07704
 11
-70.465
 21
5.19966
  0
LINE
  8
0
 10
-70.465
 20
5.19966
 11
-70.43
 21
5.32031
  0
LINE
  8
0
 10
-70.43
 20
5.32031
 11
-70.3874
 21
5.43852
  0
LINE
  8
0
 10
-70.3874
 20
5.43852
 11
-70.3375
 21
5.55383
  0
LINE
  8
0
 10
-70.3375
 20
5.55383
 11
-70.2805
 21
5.66579
  0
LINE
  8
0
 10
-70.2805
 20
5.66579
 11
-70.2165
 21
5.77393
  0
LINE
  8
0
 10
-70.2165
 20
5.77393
 11
-70.1459
 21
5.87784
  0
LINE
  8
0
 10
-70.1459
 20
5.87784
 11
-70.0689
 21
5.97713
  0
LINE
  8
0
 10
-70.0689
 20
5.97713
 11
-69.9858
 21
6.07137
  0
LINE
  8
0
 10
-69.9858
 20
6.07137
 11
-69.897
 21
6.16022
  0
LINE
  8
0
 10
-69.897
 20
6.16022
 11
-69.8027
 21
6.2433
  0
LINE
  8
0
 10
-69.8027
 20
6.2433
 11
-69.7034
 21
6.32031
  0
LINE
  8
0
 10
-69.7034
 20
6.32031
 11
-69.5995
 21
6.39093
  0
LINE
  8
0
 10
-69.5995
 20
6.39093
 11
-69.4914
 21
6.4549
  0
LINE
  8
0
 10
-69.4914
 20
6.4549
 11
-69.3794
 21
6.51193
  0
LINE
  8
0
 10
-69.3794
 20
6.51193
 11
-69.2641
 21
6.56183
  0
LINE
  8
0
 10
-69.2641
 20
6.56183
 11
-69.1459
 21
6.60439
  0
LINE
  8
0
 10
-69.1459
 20
6.60439
 11
-69.0252
 21
6.63943
  0
LINE
  8
0
 10
-69.0252
 20
6.63943
 11
-68.9026
 21
6.66685
  0
LINE
  8
0
 10
-68.9026
 20
6.66685
 11
-68.7785
 21
6.68651
  0
LINE
  8
0
 10
-68.7785
 20
6.68651
 11
-68.6534
 21
6.69833
  0
LINE
  8
0
 10
-68.6534
 20
6.69833
 11
-68.5279
 21
6.70227
  0
LINE
  8
0
 10
-68.5279
 20
6.70227
 11
-68.4023
 21
6.69833
  0
LINE
  8
0
 10
-68.4023
 20
6.69833
 11
-68.2772
 21
6.68651
  0
LINE
  8
0
 10
-68.2772
 20
6.68651
 11
-68.1531
 21
6.66685
  0
LINE
  8
0
 10
-68.1531
 20
6.66685
 11
-68.0305
 21
6.63943
  0
LINE
  8
0
 10
-68.0305
 20
6.63943
 11
-67.9098
 21
6.60439
  0
LINE
  8
0
 10
-67.9098
 20
6.60439
 11
-67.7916
 21
6.56183
  0
LINE
  8
0
 10
-67.7916
 20
6.56183
 11
-67.6763
 21
6.51193
  0
LINE
  8
0
 10
-67.6763
 20
6.51193
 11
-67.5643
 21
6.4549
  0
LINE
  8
0
 10
-67.5643
 20
6.4549
 11
-67.4562
 21
6.39093
  0
LINE
  8
0
 10
-67.4562
 20
6.39093
 11
-67.3523
 21
6.32031
  0
LINE
  8
0
 10
-67.3523
 20
6.32031
 11
-67.253
 21
6.2433
  0
LINE
  8
0
 10
-67.253
 20
6.2433
 11
-67.1588
 21
6.16022
  0
LINE
  8
0
 10
-67.1588
 20
6.16022
 11
-67.0699
 21
6.07137
  0
LINE
  8
0
 10
-67.0699
 20
6.07137
 11
-66.9868
 21
5.97713
  0
LINE
  8
0
 10
-66.9868
 20
5.97713
 11
-66.9098
 21
5.87784
  0
LINE
  8
0
 10
-66.9098
 20
5.87784
 11
-66.8392
 21
5.77393
  0
LINE
  8
0
 10
-66.8392
 20
5.77393
 11
-66.7752
 21
5.66579
  0
LINE
  8
0
 10
-66.7752
 20
5.66579
 11
-66.7182
 21
5.55383
  0
LINE
  8
0
 10
-66.7182
 20
5.55383
 11
-66.6683
 21
5.43852
  0
LINE
  8
0
 10
-66.6683
 20
5.43852
 11
-66.6257
 21
5.32031
  0
LINE
  8
0
 10
-66.6257
 20
5.32031
 11
-66.5907
 21
5.19966
  0
LINE
  8
0
 10
-66.5907
 20
5.19966
 11
-66.5633
 21
5.07704
  0
LINE
  8
0
 10
-66.5633
 20
5.07704
 11
-66.5436
 21
4.95294
  0
LINE
  8
0
 10
-66.5436
 20
4.95294
 11
-66.5318
 21
4.82785
  0
LINE
  8
0
 10
-66.5318
 20
4.82785
 11
-66.5279
 21
4.70227
  0
LINE
  8
0
 10
-66.5279
 20
4.70227
 11
-66.5318
 21
4.57669
  0
LINE
  8
0
 10
-66.5318
 20
4.57669
 11
-66.5436
 21
4.45161
  0
LINE
  8
0
 10
-66.5436
 20
4.45161
 11
-66.5633
 21
4.32751
  0
LINE
  8
0
 10
-66.5633
 20
4.32751
 11
-66.5907
 21
4.2049
  0
LINE
  8
0
 10
-66.5907
 20
4.2049
 11
-66.6257
 21
4.08424
  0
LINE
  8
0
 10
-66.6257
 20
4.08424
 11
-66.6683
 21
3.96602
  0
LINE
  8
0
 10
-66.6683
 20
3.96602
 11
-66.7182
 21
3.85072
  0
LINE
  8
0
 10
-66.7182
 20
3.85072
 11
-66.7752
 21
3.73877
  0
LINE
  8
0
 10
-66.7752
 20
3.73877
 11
-66.8392
 21
3.63062
  0
LINE
  8
0
 10
-66.8392
 20
3.63062
 11
-66.9098
 21
3.5267
  0
LINE
  8
0
 10
-66.9098
 20
3.5267
 11
-66.9868
 21
3.42743
  0
LINE
  8
0
 10
-66.9868
 20
3.42743
 11
-67.0699
 21
3.33318
  0
LINE
  8
0
 10
-67.0699
 20
3.33318
 11
-67.1588
 21
3.24434
  0
LINE
  8
0
 10
-67.1588
 20
3.24434
 11
-67.253
 21
3.16125
  0
LINE
  8
0
 10
-67.253
 20
3.16125
 11
-67.3523
 21
3.08424
  0
LINE
  8
0
 10
-67.3523
 20
3.08424
 11
-67.4562
 21
3.01363
  0
LINE
  8
0
 10
-67.4562
 20
3.01363
 11
-67.5643
 21
2.94966
  0
LINE
  8
0
 10
-67.5643
 20
2.94966
 11
-67.6763
 21
2.89262
  0
LINE
  8
0
 10
-67.6763
 20
2.89262
 11
-67.7916
 21
2.84273
  0
LINE
  8
0
 10
-67.7916
 20
2.84273
 11
-67.9098
 21
2.80016
  0
LINE
  8
0
 10
-67.9098
 20
2.80016
 11
-68.0305
 21
2.76511
  0
LINE
  8
0
 10
-68.0305
 20
2.76511
 11
-68.1531
 21
2.7377
  0
LINE
  8
0
 10
-68.1531
 20
2.7377
 11
-68.2772
 21
2.71805
  0
LINE
  8
0
 10
-68.2772
 20
2.71805
 11
-68.4023
 21
2.70622
  0
LINE
  8
0
 10
-68.4023
 20
2.70622
 11
-68.5279
 21
2.70227
  0
LINE
  8
0
 10
-68.5279
 20
2.70227
 11
-68.6534
 21
2.70622
  0
LINE
  8
0
 10
68.4023
 20
2.70622
 11
68.2772
 21
2.71805
  0
LINE
  8
0
 10
68.2772
 20
2.71805
 11
68.1531
 21
2.7377
  0
LINE
  8
0
 10
68.1531
 20
2.7377
 11
68.0305
 21
2.76511
  0
LINE
  8
0
 10
68.0305
 20
2.76511
 11
67.9098
 21
2.80016
  0
LINE
  8
0
 10
67.9098
 20
2.80016
 11
67.7916
 21
2.84273
  0
LINE
  8
0
 10
67.7916
 20
2.84273
 11
67.6763
 21
2.89262
  0
LINE
  8
0
 10
67.6763
 20
2.89262
 11
67.5643
 21
2.94966
  0
LINE
  8
0
 10
67.5643
 20
2.94966
 11
67.4562
 21
3.01363
  0
LINE
  8
0
 10
67.4562
 20
3.01363
 11
67.3523
 21
3.08424
  0
LINE
  8
0
 10
67.3523
 20
3.08424
 11
67.253
 21
3.16125
  0
LINE
  8
0
 10
67.253
 20
3.16125
 11
67.1588
 21
3.24434
  0
LINE
  8
0
 10
67.1588
 20
3.24434
 11
67.0699
 21
3.33318
  0
LINE
  8
0
 10
67.0699
 20
3.33318
 11
66.9868
 21
3.42743
  0
LINE
  8
0
 10
66.9868
 20
3.42743
 11
66.9098
 21
3.5267
  0
LINE
  8
0
 10
66.9098
 20
3.5267
 11
66.8392
 21
3.63062
  0
LINE
  8
0
 10
66.8392
 20
3.63062
 11
66.7752
 21
3.73877
  0
LINE
  8
0
 10
66.7752
 20
3.73877
 11
66.7182
 21
3.85072
  0
LINE
  8
0
 10
66.7182
 20
3.85072
 11
66.6683
 21
3.96602
  0
LINE
  8
0
 10
66.6683
 20
3.96602
 11
66.6257
 21
4.08424
  0
LINE
  8
0
 10
66.6257
 20
4.08424
 11
66.5907
 21
4.2049
  0
LINE
  8
0
 10
66.5907
 20
4.2049
 11
66.5633
 21
4.32751
  0
LINE
  8
0
 10
66.5633
 20
4.32751
 11
66.5436
 21
4.45161
  0
LINE
  8
0
 10
66.5436
 20
4.45161
 11
66.5318
 21
4.57669
  0
LINE
  8
0
 10
66.5318
 20
4.57669
 11
66.5279
 21
4.70227
  0
LINE
  8
0
 10
66.5279
 20
4.70227
 11
66.5318
 21
4.82785
  0
LINE
  8
0
 10
66.5318
 20
4.82785
 11
66.5436
 21
4.95294
  0
LINE
  8
0
 10
66.5436
 20
4.95294
 11
66.5633
 21
5.07704
  0
LINE
  8
0
 10
66.5633
 20
5.07704
 11
66.5907
 21
5.19966
  0
LINE
  8
0
 10
66.5907
 20
5.19966
 11
66.6257
 21
5.32031
  0
LINE
  8
0
 10
66.6257
 20
5.32031
 11
66.6683
 21
5.43852
  0
LINE
  8
0
 10
66.6683
 20
5.43852
 11
66.7182
 21
5.55383
  0
LINE
  8
0
 10
66.7182
 20
5.55383
 11
66.7752
 21
5.66579
  0
LINE
  8
0
 10
66.7752
 20
5.66579
 11
66.8392
 21
5.77393
  0
LINE
  8
0
 10
66.8392
 20
5.77393
 11
66.9098
 21
5.87784
  0
LINE
  8
0
 10
66.9098
 20
5.87784
 11
66.9868
 21
5.97713
  0
LINE
  8
0
 10
66.9868
 20
5.97713
 11
67.0699
 21
6.07137
  0
LINE
  8
0
 10
67.0699
 20
6.07137
 11
67.1588
 21
6.16022
  0
LINE
  8
0
 10
67.1588
 20
6.16022
 11
67.253
 21
6.2433
  0
LINE
  8
0
 10
67.253
 20
6.2433
 11
67.3523
 21
6.32031
  0
LINE
  8
0
 10
67.3523
 20
6.32031
 11
67.4562
 21
6.39093
  0
LINE
  8
0
 10
67.4562
 20
6.39093
 11
67.5643
 21
6.4549
  0
LINE
  8
0
 10
67.5643
 20
6.4549
 11
67.6763
 21
6.51193
  0
LINE
  8
0
 10
67.6763
 20
6.51193
 11
67.7916
 21
6.56183
  0
LINE
  8
0
 10
67.7916
 20
6.56183
 11
67.9098
 21
6.60439
  0
LINE
  8
0
 10
67.9098
 20
6.60439
 11
68.0305
 21
6.63943
  0
LINE
  8
0
 10
68.0305
 20
6.63943
 11
68.1531
 21
6.66685
  0
LINE
  8
0
 10
68.1531
 20
6.66685
 11
68.2772
 21
6.68651
  0
LINE
  8
0
 10
68.2772
 20
6.68651
 11
68.4023
 21
6.69833
  0
LINE
  8
0
 10
68.4023
 20
6.69833
 11
68.5279
 21
6.70227
  0
LINE
  8
0
 10
68.5279
 20
6.70227
 11
68.6534
 21
6.69833
  0
LINE
  8
0
 10
68.6534
 20
6.69833
 11
68.7785
 21
6.68651
  0
LINE
  8
0
 10
68.7785
 20
6.68651
 11
68.9026
 21
6.66685
  0
LINE
  8
0
 10
68.9026
 20
6.66685
 11
69.0252
 21
6.63943
  0
LINE
  8
0
 10
69.0252
 20
6.63943
 11
69.1459
 21
6.60439
  0
LINE
  8
0
 10
69.1459
 20
6.60439
 11
69.2641
 21
6.56183
  0
LINE
  8
0
 10
69.2641
 20
6.56183
 11
69.3794
 21
6.51193
  0
LINE
  8
0
 10
69.3794
 20
6.51193
 11
69.4914
 21
6.4549
  0
LINE
  8
0
 10
69.4914
 20
6.4549
 11
69.5995
 21
6.39093
  0
LINE
  8
0
 10
69.5995
 20
6.39093
 11
69.7034
 21
6.32031
  0
LINE
  8
0
 10
69.7034
 20
6.32031
 11
69.8027
 21
6.2433
  0
LINE
  8
0
 10
69.8027
 20
6.2433
 11
69.897
 21
6.16022
  0
LINE
  8
0
 10
69.897
 20
6.16022
 11
69.9858
 21
6.07137
  0
LINE
  8
0
 10
69.9858
 20
6.07137
 11
70.0689
 21
5.97713
  0
LINE
  8
0
 10
70.0689
 20
5.97713
 11
70.1459
 21
5.87784
  0
LINE
  8
0
 10
70.1459
 20
5.87784
 11
70.2165
 21
5.77393
  0
LINE
  8
0
 10
70.2165
 20
5.77393
 11
70.2805
 21
5.66579
  0
LINE
  8
0
 10
70.2805
 20
5.66579
 11
70.3375
 21
5.55383
  0
LINE
  8
0
 10
70.3375
 20
5.55383
 11
70.3874
 21
5.43852
  0
LINE
  8
0
 10
70.3874
 20
5.43852
 11
70.43
 21
5.32031
  0
LINE
  8
0
 10
70.43
 20
5.32031
 11
70.465
 21
5.19966
  0
LINE
  8
0
 10
70.465
 20
5.19966
 11
70.4924
 21
5.07704
  0
LINE
  8
0
 10
70.4924
 20
5.07704
 11
70.5121
 21
4.95294
  0
LINE
  8
0
 10
70.5121
 20
4.95294
 11
70.5239
 21
4.82785
  0
LINE
  8
0
 10
70.5239
 20
4.82785
 11
70.5279
 21
4.70227
  0
LINE
  8
0
 10
70.5279
 20
4.70227
 11
70.5239
 21
4.57669
  0
LINE
  8
0
 10
70.5239
 20
4.57669
 11
70.5121
 21
4.45161
  0
LINE
  8
0
 10
70.5121
 20
4.45161
 11
70.4924
 21
4.32751
  0
LINE
  8
0
 10
70.4924
 20
4.32751
 11
70.465
 21
4.2049
  0
LINE
  8
0
 10
70.465
 20
4.2049
 11
70.43
 21
4.08424
  0
LINE
  8
0
 10
70.43
 20
4.08424
 11
70.3874
 21
3.96602
  0
LINE
  8
0
 10
70.3874
 20
3.96602
 11
70.3375
 21
3.85072
  0
LINE
  8
0
 10
70.3375
 20
3.85072
 11
70.2805
 21
3.73877
  0
LINE
  8
0
 10
70.2805
 20
3.73877
 11
70.2165
 21
3.63062
  0
LINE
  8
0
 10
70.2165
 20
3.63062
 11
70.1459
 21
3.5267
  0
LINE
  8
0
 10
70.1459
 20
3.5267
 11
70.0689
 21
3.42743
  0
LINE
  8
0
 10
70.0689
 20
3.42743
 11
69.9858
 21
3.33318
  0
LINE
  8
0
 10
69.9858
 20
3.33318
 11
69.897
 21
3.24434
  0
LINE
  8
0
 10
69.897
 20
3.24434
 11
69.8027
 21
3.16125
  0
LINE
  8
0
 10
69.8027
 20
3.16125
 11
69.7034
 21
3.08424
  0
LINE
  8
0
 10
69.7034
 20
3.08424
 11
69.5995
 21
3.01363
  0
LINE
  8
0
 10
69.5995
 20
3.01363
 11
69.4914
 21
2.94966
  0
LINE
  8
0
 10
69.4914
 20
2.94966
 11
69.3794
 21
2.89262
  0
LINE
  8
0
 10
69.3794
 20
2.89262
 11
69.2641
 21
2.84273
  0
LINE
  8
0
 10
69.2641
 20
2.84273
 11
69.1459
 21
2.80016
  0
LINE
  8
0
 10
69.1459
 20
2.80016
 11
69.0252
 21
2.76511
  0
LINE
  8
0
 10
69.0252
 20
2.76511
 11
68.9026
 21
2.7377
  0
LINE
  8
0
 10
68.9026
 20
2.7377
 11
68.7785
 21
2.71805
  0
LINE
  8
0
 10
68.7785
 20
2.71805
 11
68.6534
 21
2.70622
  0
LINE
  8
0
 10
68.6534
 20
2.70622
 11
68.5279
 21
2.70227
  0
LINE
  8
0
 10
68.5279
 20
2.70227
 11
68.4023
 21
2.70622
  0
ENDSEC
  0
SECTION
  2
OBJECTS
  0
DICTIONARY
  0
ENDSEC
  0
EOF
