  0
SECTION
  2
BLOCKS
  0
ENDSEC
  0
SECTION
  2
ENTITIES
  0
LINE
  8
0
 10
0
 20
230.826
 11
-75
 21
0
  0
LINE
  8
0
 10
-75
 20
0
 11
75
 21
0
  0
LINE
  8
0
 10
75
 20
0
 11
0
 21
230.826
  0
LINE
  8
0
 10
-0.12558
 20
212.83
 11
-0.250656
 21
212.842
  0
LINE
  8
0
 10
-0.250656
 20
212.842
 11
-0.374756
 21
212.862
  0
LINE
  8
0
 10
-0.374756
 20
212.862
 11
-0.497375
 21
212.889
  0
LINE
  8
0
 10
-0.497375
 20
212.889
 11
-0.618027
 21
212.924
  0
LINE
  8
0
 10
-0.618027
 20
212.924
 11
-0.736237
 21
212.967
  0
LINE
  8
0
 10
-0.736237
 20
212.967
 11
-0.851547
 21
213.017
  0
LINE
  8
0
 10
-0.851547
 20
213.017
 11
-0.963501
 21
213.074
  0
LINE
  8
0
 10
-0.963501
 20
213.074
 11
-1.07164
 21
213.138
  0
LINE
  8
0
 10
-1.07164
 20
213.138
 11
-1.17557
 21
213.208
  0
LINE
  8
0
 10
-1.17557
 20
213.208
 11
-1.27484
 21
213.285
  0
LINE
  8
0
 10
-1.27484
 20
213.285
 11
-1.36908
 21
213.368
  0
LINE
  8
0
 10
-1.36908
 20
213.368
 11
-1.45793
 21
213.457
  0
LINE
  8
0
 10
-1.45793
 20
213.457
 11
-1.54102
 21
213.551
  0
LINE
  8
0
 10
-1.54102
 20
213.551
 11
-1.61803
 21
213.651
  0
LINE
  8
0
 10
-1.61803
 20
213.651
 11
-1.68864
 21
213.755
  0
LINE
  8
0
 10
-1.68864
 20
213.755
 11
-1.75261
 21
213.863
  0
LINE
  8
0
 10
-1.75261
 20
213.863
 11
-1.80965
 21
213.975
  0
LINE
  8
0
 10
-1.80965
 20
213.975
 11
-1.85954
 21
214.09
  0
LINE
  8
0
 10
-1.85954
 20
214.09
 11
-1.9021
 21
214.208
  0
LINE
  8
0
 10
-1.9021
 20
214.208
 11
-1.93716
 21
214.329
  0
LINE
  8
0
 10
-1.93716
 20
214.329
 11
-1.96457
 21
214.451
  0
LINE
  8
0
 10
-1.96457
 20
214.451
 11
-1.98422
 21
214.576
  0
LINE
  8
0
 10
-1.98422
 20
214.576
 11
-1.99605
 21
214.701
  0
LINE
  8
0
 10
-1.99605
 20
214.701
 11
-2
 21
214.826
  0
LINE
  8
0
 10
-2
 20
214.826
 11
-1.99605
 21
214.952
  0
LINE
  8
0
 10
-1.99605
 20
214.952
 11
-1.98422
 21
215.077
  0
LINE
  8
0
 10
-1.98422
 20
215.077
 11
-1.96457
 21
215.201
  0
LINE
  8
0
 10
-1.96457
 20
215.201
 11
-1.93716
 21
215.324
  0
LINE
  8
0
 10
-1.93716
 20
215.324
 11
-1.9021
 21
215.444
  0
LINE
  8
0
 10
-1.9021
 20
215.444
 11
-1.85954
 21
215.562
  0
LINE
  8
0
 10
-1.85954
 20
215.562
 11
-1.80965
 21
215.678
  0
LINE
  8
0
 10
-1.80965
 20
215.678
 11
-1.75261
 21
215.79
  0
LINE
  8
0
 10
-1.75261
 20
215.79
 11
-1.68864
 21
215.898
  0
LINE
  8
0
 10
-1.68864
 20
215.898
 11
-1.61803
 21
216.002
  0
LINE
  8
0
 10
-1.61803
 20
216.002
 11
-1.54102
 21
216.101
  0
LINE
  8
0
 10
-1.54102
 20
216.101
 11
-1.45793
 21
216.195
  0
LINE
  8
0
 10
-1.45793
 20
216.195
 11
-1.36908
 21
216.284
  0
LINE
  8
0
 10
-1.36908
 20
216.284
 11
-1.27484
 21
216.367
  0
LINE
  8
0
 10
-1.27484
 20
216.367
 11
-1.17557
 21
216.444
  0
LINE
  8
0
 10
-1.17557
 20
216.444
 11
-1.07164
 21
216.515
  0
LINE
  8
0
 10
-1.07164
 20
216.515
 11
-0.963501
 21
216.579
  0
LINE
  8
0
 10
-0.963501
 20
216.579
 11
-0.851547
 21
216.636
  0
LINE
  8
0
 10
-0.851547
 20
216.636
 11
-0.736237
 21
216.686
  0
LINE
  8
0
 10
-0.736237
 20
216.686
 11
-0.618027
 21
216.728
  0
LINE
  8
0
 10
-0.618027
 20
216.728
 11
-0.497375
 21
216.763
  0
LINE
  8
0
 10
-0.497375
 20
216.763
 11
-0.374756
 21
216.791
  0
LINE
  8
0
 10
-0.374756
 20
216.791
 11
-0.250656
 21
216.81
  0
LINE
  8
0
 10
-0.250656
 20
216.81
 11
-0.12558
 21
216.822
  0
LINE
  8
0
 10
-0.12558
 20
216.822
 11
0
 21
216.826
  0
LINE
  8
0
 10
0
 20
216.826
 11
0.12558
 21
216.822
  0
LINE
  8
0
 10
0.12558
 20
216.822
 11
0.250656
 21
216.81
  0
LINE
  8
0
 10
0.250656
 20
216.81
 11
0.374756
 21
216.791
  0
LINE
  8
0
 10
0.374756
 20
216.791
 11
0.497375
 21
216.763
  0
LINE
  8
0
 10
0.497375
 20
216.763
 11
0.618027
 21
216.728
  0
LINE
  8
0
 10
0.618027
 20
216.728
 11
0.736237
 21
216.686
  0
LINE
  8
0
 10
0.736237
 20
216.686
 11
0.851547
 21
216.636
  0
LINE
  8
0
 10
0.851547
 20
216.636
 11
0.963501
 21
216.579
  0
LINE
  8
0
 10
0.963501
 20
216.579
 11
1.07164
 21
216.515
  0
LINE
  8
0
 10
1.07164
 20
216.515
 11
1.17557
 21
216.444
  0
LINE
  8
0
 10
1.17557
 20
216.444
 11
1.27484
 21
216.367
  0
LINE
  8
0
 10
1.27484
 20
216.367
 11
1.36908
 21
216.284
  0
LINE
  8
0
 10
1.36908
 20
216.284
 11
1.45793
 21
216.195
  0
LINE
  8
0
 10
1.45793
 20
216.195
 11
1.54102
 21
216.101
  0
LINE
  8
0
 10
1.54102
 20
216.101
 11
1.61803
 21
216.002
  0
LINE
  8
0
 10
1.61803
 20
216.002
 11
1.68864
 21
215.898
  0
LINE
  8
0
 10
1.68864
 20
215.898
 11
1.75261
 21
215.79
  0
LINE
  8
0
 10
1.75261
 20
215.79
 11
1.80965
 21
215.678
  0
LINE
  8
0
 10
1.80965
 20
215.678
 11
1.85954
 21
215.562
  0
LINE
  8
0
 10
1.85954
 20
215.562
 11
1.9021
 21
215.444
  0
LINE
  8
0
 10
1.9021
 20
215.444
 11
1.93716
 21
215.324
  0
LINE
  8
0
 10
1.93716
 20
215.324
 11
1.96457
 21
215.201
  0
LINE
  8
0
 10
1.96457
 20
215.201
 11
1.98422
 21
215.077
  0
LINE
  8
0
 10
1.98422
 20
215.077
 11
1.99605
 21
214.952
  0
LINE
  8
0
 10
1.99605
 20
214.952
 11
2
 21
214.826
  0
LINE
  8
0
 10
2
 20
214.826
 11
1.99605
 21
214.701
  0
LINE
  8
0
 10
1.99605
 20
214.701
 11
1.98422
 21
214.576
  0
LINE
  8
0
 10
1.98422
 20
214.576
 11
1.96457
 21
214.451
  0
LINE
  8
0
 10
1.96457
 20
214.451
 11
1.93716
 21
214.329
  0
LINE
  8
0
 10
1.93716
 20
214.329
 11
1.9021
 21
214.208
  0
LINE
  8
0
 10
1.9021
 20
214.208
 11
1.85954
 21
214.09
  0
LINE
  8
0
 10
1.85954
 20
214.09
 11
1.80965
 21
213.975
  0
LINE
  8
0
 10
1.80965
 20
213.975
 11
1.75261
 21
213.863
  0
LINE
  8
0
 10
1.75261
 20
213.863
 11
1.68864
 21
213.755
  0
LINE
  8
0
 10
1.68864
 20
213.755
 11
1.61803
 21
213.651
  0
LINE
  8
0
 10
1.61803
 20
213.651
 11
1.54102
 21
213.551
  0
LINE
  8
0
 10
1.54102
 20
213.551
 11
1.45793
 21
213.457
  0
LINE
  8
0
 10
1.45793
 20
213.457
 11
1.36908
 21
213.368
  0
LINE
  8
0
 10
1.36908
 20
213.368
 11
1.27484
 21
213.285
  0
LINE
  8
0
 10
1.27484
 20
213.285
 11
1.17557
 21
213.208
  0
LINE
  8
0
 10
1.17557
 20
213.208
 11
1.07164
 21
213.138
  0
LINE
  8
0
 10
1.07164
 20
213.138
 11
0.963501
 21
213.074
  0
LINE
  8
0
 10
0.963501
 20
213.074
 11
0.851547
 21
213.017
  0
LINE
  8
0
 10
0.851547
 20
213.017
 11
0.736237
 21
212.967
  0
LINE
  8
0
 10
0.736237
 20
212.967
 11
0.618027
 21
212.924
  0
LINE
  8
0
 10
0.618027
 20
212.924
 11
0.497375
 21
212.889
  0
LINE
  8
0
 10
0.497375
 20
212.889
 11
0.374756
 21
212.862
  0
LINE
  8
0
 10
0.374756
 20
212.862
 11
0.250656
 21
212.842
  0
LINE
  8
0
 10
0.250656
 20
212.842
 11
0.12558
 21
212.83
  0
LINE
  8
0
 10
0.12558
 20
212.83
 11
0
 21
212.826
  0
LINE
  8
0
 10
0
 20
212.826
 11
-0.12558
 21
212.83
  0
LINE
  8
0
 10
-0.353241
 20
190.906
 11
0
 21
190.811
  0
LINE
  8
0
 10
0
 20
190.811
 11
0.360306
 21
190.885
  0
LINE
  8
0
 10
0.360306
 20
190.885
 11
1.04469
 21
188.778
  0
LINE
  8
0
 10
1.04469
 20
188.778
 11
0.625076
 21
189.062
  0
LINE
  8
0
 10
0.625076
 20
189.062
 11
0
 21
189.189
  0
LINE
  8
0
 10
0
 20
189.189
 11
-0.625046
 21
189.021
  0
LINE
  8
0
 10
-0.625046
 20
189.021
 11
-1.07402
 21
188.688
  0
LINE
  8
0
 10
-1.07402
 20
188.688
 11
-0.353241
 21
190.906
  0
LINE
  8
0
 10
-1.50015
 20
183.999
 11
-1.50015
 21
172
  0
LINE
  8
0
 10
-1.50015
 20
172
 11
-5.99974
 21
169
  0
LINE
  8
0
 10
-5.99974
 20
169
 11
-1.50015
 21
183.999
  0
LINE
  8
0
 10
1.50015
 20
172
 11
1.50015
 21
183.999
  0
LINE
  8
0
 10
1.50015
 20
183.999
 11
5.99974
 21
169
  0
LINE
  8
0
 10
5.99974
 20
169
 11
1.50015
 21
172
  0
LINE
  8
0
 10
-0.294037
 20
164.515
 11
-0.585251
 21
164.558
  0
LINE
  8
0
 10
-0.585251
 20
164.558
 11
-0.870804
 21
164.629
  0
LINE
  8
0
 10
-0.870804
 20
164.629
 11
-1.14798
 21
164.728
  0
LINE
  8
0
 10
-1.14798
 20
164.728
 11
-1.41409
 21
164.854
  0
LINE
  8
0
 10
-1.41409
 20
164.854
 11
-1.66663
 21
165.006
  0
LINE
  8
0
 10
-1.66663
 20
165.006
 11
-1.90308
 21
165.181
  0
LINE
  8
0
 10
-1.90308
 20
165.181
 11
-2.1212
 21
165.379
  0
LINE
  8
0
 10
-2.1212
 20
165.379
 11
-2.31891
 21
165.597
  0
LINE
  8
0
 10
-2.31891
 20
165.597
 11
-2.49428
 21
165.833
  0
LINE
  8
0
 10
-2.49428
 20
165.833
 11
-2.64561
 21
166.086
  0
LINE
  8
0
 10
-2.64561
 20
166.086
 11
-2.77148
 21
166.352
  0
LINE
  8
0
 10
-2.77148
 20
166.352
 11
-2.87068
 21
166.629
  0
LINE
  8
0
 10
-2.87068
 20
166.629
 11
-2.9422
 21
166.915
  0
LINE
  8
0
 10
-2.9422
 20
166.915
 11
-2.9854
 21
167.206
  0
LINE
  8
0
 10
-2.9854
 20
167.206
 11
-2.99986
 21
167.5
  0
LINE
  8
0
 10
-2.99986
 20
167.5
 11
-2.98537
 21
167.794
  0
LINE
  8
0
 10
-2.98537
 20
167.794
 11
-2.94218
 21
168.085
  0
LINE
  8
0
 10
-2.94218
 20
168.085
 11
-2.87068
 21
168.371
  0
LINE
  8
0
 10
-2.87068
 20
168.371
 11
-2.77148
 21
168.648
  0
LINE
  8
0
 10
-2.77148
 20
168.648
 11
-2.64561
 21
168.914
  0
LINE
  8
0
 10
-2.64561
 20
168.914
 11
-2.49428
 21
169.167
  0
LINE
  8
0
 10
-2.49428
 20
169.167
 11
-2.31891
 21
169.403
  0
LINE
  8
0
 10
-2.31891
 20
169.403
 11
-2.1212
 21
169.621
  0
LINE
  8
0
 10
-2.1212
 20
169.621
 11
-1.90308
 21
169.819
  0
LINE
  8
0
 10
-1.90308
 20
169.819
 11
-1.66663
 21
169.994
  0
LINE
  8
0
 10
-1.66663
 20
169.994
 11
-1.41409
 21
170.146
  0
LINE
  8
0
 10
-1.41409
 20
170.146
 11
-1.14798
 21
170.271
  0
LINE
  8
0
 10
-1.14798
 20
170.271
 11
-0.870804
 21
170.371
  0
LINE
  8
0
 10
-0.870804
 20
170.371
 11
-0.585205
 21
170.442
  0
LINE
  8
0
 10
-0.585205
 20
170.442
 11
-0.294022
 21
170.485
  0
LINE
  8
0
 10
-0.294022
 20
170.485
 11
0
 21
170.5
  0
LINE
  8
0
 10
0
 20
170.5
 11
0.294067
 21
170.485
  0
LINE
  8
0
 10
0.294067
 20
170.485
 11
0.585266
 21
170.442
  0
LINE
  8
0
 10
0.585266
 20
170.442
 11
0.870819
 21
170.371
  0
LINE
  8
0
 10
0.870819
 20
170.371
 11
1.14799
 21
170.271
  0
LINE
  8
0
 10
1.14799
 20
170.271
 11
1.41412
 21
170.146
  0
LINE
  8
0
 10
1.41412
 20
170.146
 11
1.66664
 21
169.994
  0
LINE
  8
0
 10
1.66664
 20
169.994
 11
1.90311
 21
169.819
  0
LINE
  8
0
 10
1.90311
 20
169.819
 11
2.12123
 21
169.621
  0
LINE
  8
0
 10
2.12123
 20
169.621
 11
2.31894
 21
169.403
  0
LINE
  8
0
 10
2.31894
 20
169.403
 11
2.49431
 21
169.167
  0
LINE
  8
0
 10
2.49431
 20
169.167
 11
2.64565
 21
168.914
  0
LINE
  8
0
 10
2.64565
 20
168.914
 11
2.7715
 21
168.648
  0
LINE
  8
0
 10
2.7715
 20
168.648
 11
2.8707
 21
168.371
  0
LINE
  8
0
 10
2.8707
 20
168.371
 11
2.94223
 21
168.085
  0
LINE
  8
0
 10
2.94223
 20
168.085
 11
2.98541
 21
167.794
  0
LINE
  8
0
 10
2.98541
 20
167.794
 11
2.99986
 21
167.5
  0
LINE
  8
0
 10
2.99986
 20
167.5
 11
2.9854
 21
167.206
  0
LINE
  8
0
 10
2.9854
 20
167.206
 11
2.9422
 21
166.915
  0
LINE
  8
0
 10
2.9422
 20
166.915
 11
2.8707
 21
166.629
  0
LINE
  8
0
 10
2.8707
 20
166.629
 11
2.7715
 21
166.352
  0
LINE
  8
0
 10
2.7715
 20
166.352
 11
2.64565
 21
166.086
  0
LINE
  8
0
 10
2.64565
 20
166.086
 11
2.49428
 21
165.833
  0
LINE
  8
0
 10
2.49428
 20
165.833
 11
2.31894
 21
165.597
  0
LINE
  8
0
 10
2.31894
 20
165.597
 11
2.1212
 21
165.379
  0
LINE
  8
0
 10
2.1212
 20
165.379
 11
1.90311
 21
165.181
  0
LINE
  8
0
 10
1.90311
 20
165.181
 11
1.66664
 21
165.006
  0
LINE
  8
0
 10
1.66664
 20
165.006
 11
1.41412
 21
164.854
  0
LINE
  8
0
 10
1.41412
 20
164.854
 11
1.14799
 21
164.728
  0
LINE
  8
0
 10
1.14799
 20
164.728
 11
0.870819
 21
164.629
  0
LINE
  8
0
 10
0.870819
 20
164.629
 11
0.58522
 21
164.558
  0
LINE
  8
0
 10
0.58522
 20
164.558
 11
0.294037
 21
164.515
  0
LINE
  8
0
 10
0.294037
 20
164.515
 11
0
 21
164.5
  0
LINE
  8
0
 10
0
 20
164.5
 11
-0.294037
 21
164.515
  0
LINE
  8
0
 10
-5.99974
 20
166
 11
-1.50015
 21
163
  0
LINE
  8
0
 10
-1.50015
 20
163
 11
-1.50015
 21
151.001
  0
LINE
  8
0
 10
-1.50015
 20
151.001
 11
-5.99974
 21
166
  0
LINE
  8
0
 10
1.50015
 20
163
 11
5.99974
 21
166
  0
LINE
  8
0
 10
5.99974
 20
166
 11
1.50015
 21
151.001
  0
LINE
  8
0
 10
1.50015
 20
151.001
 11
1.50015
 21
163
  0
LINE
  8
0
 10
-11.8749
 20
140.398
 11
-12.4999
 21
141.746
  0
LINE
  8
0
 10
-12.4999
 20
141.746
 11
-13.1249
 21
142.799
  0
LINE
  8
0
 10
-13.1249
 20
142.799
 11
-13.7499
 21
143.557
  0
LINE
  8
0
 10
-13.7499
 20
143.557
 11
-14.3749
 21
144.021
  0
LINE
  8
0
 10
-14.3749
 20
144.021
 11
-15
 21
144.189
  0
LINE
  8
0
 10
-15
 20
144.189
 11
-15.5704
 21
144.073
  0
LINE
  8
0
 10
-15.5704
 20
144.073
 11
-15.0051
 21
145.812
  0
LINE
  8
0
 10
-15.0051
 20
145.812
 11
-15
 21
145.811
  0
LINE
  8
0
 10
-15
 20
145.811
 11
-14.3749
 21
145.979
  0
LINE
  8
0
 10
-14.3749
 20
145.979
 11
-13.7499
 21
146.443
  0
LINE
  8
0
 10
-13.7499
 20
146.443
 11
-13.1249
 21
147.201
  0
LINE
  8
0
 10
-13.1249
 20
147.201
 11
-12.4999
 21
148.254
  0
LINE
  8
0
 10
-12.4999
 20
148.254
 11
-11.8749
 21
149.602
  0
LINE
  8
0
 10
-11.8749
 20
149.602
 11
-11.25
 21
151.245
  0
LINE
  8
0
 10
-11.25
 20
151.245
 11
-9.00018
 21
145
  0
LINE
  8
0
 10
-9.00018
 20
145
 11
-11.25
 21
138.755
  0
LINE
  8
0
 10
-11.25
 20
138.755
 11
-11.8749
 21
140.398
  0
LINE
  8
0
 10
-5.99982
 20
145
 11
-3.75
 21
151.245
  0
LINE
  8
0
 10
-3.75
 20
151.245
 11
-3.12512
 21
149.602
  0
LINE
  8
0
 10
-3.12512
 20
149.602
 11
-2.50012
 21
148.254
  0
LINE
  8
0
 10
-2.50012
 20
148.254
 11
-1.87511
 21
147.201
  0
LINE
  8
0
 10
-1.87511
 20
147.201
 11
-1.25011
 21
146.443
  0
LINE
  8
0
 10
-1.25011
 20
146.443
 11
-0.625046
 21
145.979
  0
LINE
  8
0
 10
-0.625046
 20
145.979
 11
0
 21
145.811
  0
LINE
  8
0
 10
0
 20
145.811
 11
0.625076
 21
145.938
  0
LINE
  8
0
 10
0.625076
 20
145.938
 11
1.25011
 21
146.361
  0
LINE
  8
0
 10
1.25011
 20
146.361
 11
1.87511
 21
147.078
  0
LINE
  8
0
 10
1.87511
 20
147.078
 11
2.50014
 21
148.09
  0
LINE
  8
0
 10
2.50014
 20
148.09
 11
3.12515
 21
149.397
  0
LINE
  8
0
 10
3.12515
 20
149.397
 11
3.75
 21
151
  0
LINE
  8
0
 10
3.75
 20
151
 11
5.99982
 21
145
  0
LINE
  8
0
 10
5.99982
 20
145
 11
3.75
 21
139
  0
LINE
  8
0
 10
3.75
 20
139
 11
3.12515
 21
140.603
  0
LINE
  8
0
 10
3.12515
 20
140.603
 11
2.50014
 21
141.91
  0
LINE
  8
0
 10
2.50014
 20
141.91
 11
1.87511
 21
142.922
  0
LINE
  8
0
 10
1.87511
 20
142.922
 11
1.25011
 21
143.639
  0
LINE
  8
0
 10
1.25011
 20
143.639
 11
0.625076
 21
144.062
  0
LINE
  8
0
 10
0.625076
 20
144.062
 11
0
 21
144.189
  0
LINE
  8
0
 10
0
 20
144.189
 11
-0.625046
 21
144.021
  0
LINE
  8
0
 10
-0.625046
 20
144.021
 11
-1.25011
 21
143.557
  0
LINE
  8
0
 10
-1.25011
 20
143.557
 11
-1.87511
 21
142.799
  0
LINE
  8
0
 10
-1.87511
 20
142.799
 11
-2.50012
 21
141.746
  0
LINE
  8
0
 10
-2.50012
 20
141.746
 11
-3.12512
 21
140.398
  0
LINE
  8
0
 10
-3.12512
 20
140.398
 11
-3.75
 21
138.755
  0
LINE
  8
0
 10
-3.75
 20
138.755
 11
-5.99982
 21
145
  0
LINE
  8
0
 10
9.00018
 20
145
 11
11.25
 21
151
  0
LINE
  8
0
 10
11.25
 20
151
 11
11.8748
 21
149.397
  0
LINE
  8
0
 10
11.8748
 20
149.397
 11
12.4998
 21
148.09
  0
LINE
  8
0
 10
12.4998
 20
148.09
 11
13.1249
 21
147.078
  0
LINE
  8
0
 10
13.1249
 20
147.078
 11
13.7499
 21
146.361
  0
LINE
  8
0
 10
13.7499
 20
146.361
 11
14.3749
 21
145.938
  0
LINE
  8
0
 10
14.3749
 20
145.938
 11
15
 21
145.811
  0
LINE
  8
0
 10
15
 20
145.811
 11
15.0051
 21
145.813
  0
LINE
  8
0
 10
15.0051
 20
145.813
 11
15.5837
 21
144.032
  0
LINE
  8
0
 10
15.5837
 20
144.032
 11
15
 21
144.189
  0
LINE
  8
0
 10
15
 20
144.189
 11
14.3749
 21
144.062
  0
LINE
  8
0
 10
14.3749
 20
144.062
 11
13.7499
 21
143.639
  0
LINE
  8
0
 10
13.7499
 20
143.639
 11
13.1249
 21
142.922
  0
LINE
  8
0
 10
13.1249
 20
142.922
 11
12.4998
 21
141.91
  0
LINE
  8
0
 10
12.4998
 20
141.91
 11
11.8748
 21
140.603
  0
LINE
  8
0
 10
11.8748
 20
140.603
 11
11.25
 21
139
  0
LINE
  8
0
 10
11.25
 20
139
 11
9.00018
 21
145
  0
LINE
  8
0
 10
-1.50015
 20
138.999
 11
-1.50015
 21
127
  0
LINE
  8
0
 10
-1.50015
 20
127
 11
-5.99974
 21
124
  0
LINE
  8
0
 10
-5.99974
 20
124
 11
-1.50015
 21
138.999
  0
LINE
  8
0
 10
-13.4998
 20
127
 11
-13.4998
 21
138.999
  0
LINE
  8
0
 10
-13.4998
 20
138.999
 11
-9.00024
 21
124
  0
LINE
  8
0
 10
-9.00024
 20
124
 11
-13.4998
 21
127
  0
LINE
  8
0
 10
-16.5002
 20
138.999
 11
-16.5002
 21
127
  0
LINE
  8
0
 10
-16.5002
 20
127
 11
-20.9997
 21
124
  0
LINE
  8
0
 10
-20.9997
 20
124
 11
-16.5002
 21
138.999
  0
LINE
  8
0
 10
1.50015
 20
127
 11
1.50015
 21
138.999
  0
LINE
  8
0
 10
1.50015
 20
138.999
 11
5.99974
 21
124
  0
LINE
  8
0
 10
5.99974
 20
124
 11
1.50015
 21
127
  0
LINE
  8
0
 10
16.5002
 20
127
 11
16.5002
 21
138.999
  0
LINE
  8
0
 10
16.5002
 20
138.999
 11
20.9997
 21
124
  0
LINE
  8
0
 10
20.9997
 20
124
 11
16.5002
 21
127
  0
LINE
  8
0
 10
13.4998
 20
138.999
 11
13.4998
 21
127
  0
LINE
  8
0
 10
13.4998
 20
127
 11
9.00024
 21
124
  0
LINE
  8
0
 10
9.00024
 20
124
 11
13.4998
 21
138.999
  0
LINE
  8
0
 10
-0.294037
 20
119.515
 11
-0.585251
 21
119.558
  0
LINE
  8
0
 10
-0.585251
 20
119.558
 11
-0.870804
 21
119.629
  0
LINE
  8
0
 10
-0.870804
 20
119.629
 11
-1.14798
 21
119.728
  0
LINE
  8
0
 10
-1.14798
 20
119.728
 11
-1.41409
 21
119.854
  0
LINE
  8
0
 10
-1.41409
 20
119.854
 11
-1.66663
 21
120.006
  0
LINE
  8
0
 10
-1.66663
 20
120.006
 11
-1.90308
 21
120.181
  0
LINE
  8
0
 10
-1.90308
 20
120.181
 11
-2.1212
 21
120.379
  0
LINE
  8
0
 10
-2.1212
 20
120.379
 11
-2.31891
 21
120.597
  0
LINE
  8
0
 10
-2.31891
 20
120.597
 11
-2.49428
 21
120.833
  0
LINE
  8
0
 10
-2.49428
 20
120.833
 11
-2.64561
 21
121.086
  0
LINE
  8
0
 10
-2.64561
 20
121.086
 11
-2.77148
 21
121.352
  0
LINE
  8
0
 10
-2.77148
 20
121.352
 11
-2.87068
 21
121.629
  0
LINE
  8
0
 10
-2.87068
 20
121.629
 11
-2.9422
 21
121.915
  0
LINE
  8
0
 10
-2.9422
 20
121.915
 11
-2.9854
 21
122.206
  0
LINE
  8
0
 10
-2.9854
 20
122.206
 11
-2.99986
 21
122.5
  0
LINE
  8
0
 10
-2.99986
 20
122.5
 11
-2.98537
 21
122.794
  0
LINE
  8
0
 10
-2.98537
 20
122.794
 11
-2.94218
 21
123.085
  0
LINE
  8
0
 10
-2.94218
 20
123.085
 11
-2.87068
 21
123.371
  0
LINE
  8
0
 10
-2.87068
 20
123.371
 11
-2.77148
 21
123.648
  0
LINE
  8
0
 10
-2.77148
 20
123.648
 11
-2.64561
 21
123.914
  0
LINE
  8
0
 10
-2.64561
 20
123.914
 11
-2.49428
 21
124.167
  0
LINE
  8
0
 10
-2.49428
 20
124.167
 11
-2.31891
 21
124.403
  0
LINE
  8
0
 10
-2.31891
 20
124.403
 11
-2.1212
 21
124.621
  0
LINE
  8
0
 10
-2.1212
 20
124.621
 11
-1.90308
 21
124.819
  0
LINE
  8
0
 10
-1.90308
 20
124.819
 11
-1.66663
 21
124.994
  0
LINE
  8
0
 10
-1.66663
 20
124.994
 11
-1.41409
 21
125.146
  0
LINE
  8
0
 10
-1.41409
 20
125.146
 11
-1.14798
 21
125.271
  0
LINE
  8
0
 10
-1.14798
 20
125.271
 11
-0.870804
 21
125.371
  0
LINE
  8
0
 10
-0.870804
 20
125.371
 11
-0.585205
 21
125.442
  0
LINE
  8
0
 10
-0.585205
 20
125.442
 11
-0.294022
 21
125.485
  0
LINE
  8
0
 10
-0.294022
 20
125.485
 11
0
 21
125.5
  0
LINE
  8
0
 10
0
 20
125.5
 11
0.294067
 21
125.485
  0
LINE
  8
0
 10
0.294067
 20
125.485
 11
0.585266
 21
125.442
  0
LINE
  8
0
 10
0.585266
 20
125.442
 11
0.870819
 21
125.371
  0
LINE
  8
0
 10
0.870819
 20
125.371
 11
1.14799
 21
125.271
  0
LINE
  8
0
 10
1.14799
 20
125.271
 11
1.41412
 21
125.146
  0
LINE
  8
0
 10
1.41412
 20
125.146
 11
1.66664
 21
124.994
  0
LINE
  8
0
 10
1.66664
 20
124.994
 11
1.90311
 21
124.819
  0
LINE
  8
0
 10
1.90311
 20
124.819
 11
2.12123
 21
124.621
  0
LINE
  8
0
 10
2.12123
 20
124.621
 11
2.31894
 21
124.403
  0
LINE
  8
0
 10
2.31894
 20
124.403
 11
2.49431
 21
124.167
  0
LINE
  8
0
 10
2.49431
 20
124.167
 11
2.64565
 21
123.914
  0
LINE
  8
0
 10
2.64565
 20
123.914
 11
2.7715
 21
123.648
  0
LINE
  8
0
 10
2.7715
 20
123.648
 11
2.8707
 21
123.371
  0
LINE
  8
0
 10
2.8707
 20
123.371
 11
2.94223
 21
123.085
  0
LINE
  8
0
 10
2.94223
 20
123.085
 11
2.98541
 21
122.794
  0
LINE
  8
0
 10
2.98541
 20
122.794
 11
2.99986
 21
122.5
  0
LINE
  8
0
 10
2.99986
 20
122.5
 11
2.9854
 21
122.206
  0
LINE
  8
0
 10
2.9854
 20
122.206
 11
2.9422
 21
121.915
  0
LINE
  8
0
 10
2.9422
 20
121.915
 11
2.8707
 21
121.629
  0
LINE
  8
0
 10
2.8707
 20
121.629
 11
2.7715
 21
121.352
  0
LINE
  8
0
 10
2.7715
 20
121.352
 11
2.64565
 21
121.086
  0
LINE
  8
0
 10
2.64565
 20
121.086
 11
2.49428
 21
120.833
  0
LINE
  8
0
 10
2.49428
 20
120.833
 11
2.31894
 21
120.597
  0
LINE
  8
0
 10
2.31894
 20
120.597
 11
2.1212
 21
120.379
  0
LINE
  8
0
 10
2.1212
 20
120.379
 11
1.90311
 21
120.181
  0
LINE
  8
0
 10
1.90311
 20
120.181
 11
1.66664
 21
120.006
  0
LINE
  8
0
 10
1.66664
 20
120.006
 11
1.41412
 21
119.854
  0
LINE
  8
0
 10
1.41412
 20
119.854
 11
1.14799
 21
119.728
  0
LINE
  8
0
 10
1.14799
 20
119.728
 11
0.870819
 21
119.629
  0
LINE
  8
0
 10
0.870819
 20
119.629
 11
0.58522
 21
119.558
  0
LINE
  8
0
 10
0.58522
 20
119.558
 11
0.294037
 21
119.515
  0
LINE
  8
0
 10
0.294037
 20
119.515
 11
0
 21
119.5
  0
LINE
  8
0
 10
0
 20
119.5
 11
-0.294037
 21
119.515
  0
LINE
  8
0
 10
14.7059
 20
119.515
 11
14.4147
 21
119.558
  0
LINE
  8
0
 10
14.4147
 20
119.558
 11
14.1292
 21
119.629
  0
LINE
  8
0
 10
14.1292
 20
119.629
 11
13.852
 21
119.728
  0
LINE
  8
0
 10
13.852
 20
119.728
 11
13.5859
 21
119.854
  0
LINE
  8
0
 10
13.5859
 20
119.854
 11
13.3333
 21
120.006
  0
LINE
  8
0
 10
13.3333
 20
120.006
 11
13.0969
 21
120.181
  0
LINE
  8
0
 10
13.0969
 20
120.181
 11
12.8788
 21
120.379
  0
LINE
  8
0
 10
12.8788
 20
120.379
 11
12.6811
 21
120.597
  0
LINE
  8
0
 10
12.6811
 20
120.597
 11
12.5057
 21
120.833
  0
LINE
  8
0
 10
12.5057
 20
120.833
 11
12.3544
 21
121.086
  0
LINE
  8
0
 10
12.3544
 20
121.086
 11
12.2285
 21
121.352
  0
LINE
  8
0
 10
12.2285
 20
121.352
 11
12.1293
 21
121.629
  0
LINE
  8
0
 10
12.1293
 20
121.629
 11
12.0578
 21
121.915
  0
LINE
  8
0
 10
12.0578
 20
121.915
 11
12.0146
 21
122.206
  0
LINE
  8
0
 10
12.0146
 20
122.206
 11
12.0001
 21
122.5
  0
LINE
  8
0
 10
12.0001
 20
122.5
 11
12.0146
 21
122.794
  0
LINE
  8
0
 10
12.0146
 20
122.794
 11
12.0578
 21
123.085
  0
LINE
  8
0
 10
12.0578
 20
123.085
 11
12.1293
 21
123.371
  0
LINE
  8
0
 10
12.1293
 20
123.371
 11
12.2285
 21
123.648
  0
LINE
  8
0
 10
12.2285
 20
123.648
 11
12.3544
 21
123.914
  0
LINE
  8
0
 10
12.3544
 20
123.914
 11
12.5057
 21
124.167
  0
LINE
  8
0
 10
12.5057
 20
124.167
 11
12.6811
 21
124.403
  0
LINE
  8
0
 10
12.6811
 20
124.403
 11
12.8788
 21
124.621
  0
LINE
  8
0
 10
12.8788
 20
124.621
 11
13.0969
 21
124.819
  0
LINE
  8
0
 10
13.0969
 20
124.819
 11
13.3333
 21
124.994
  0
LINE
  8
0
 10
13.3333
 20
124.994
 11
13.5859
 21
125.146
  0
LINE
  8
0
 10
13.5859
 20
125.146
 11
13.852
 21
125.271
  0
LINE
  8
0
 10
13.852
 20
125.271
 11
14.1292
 21
125.371
  0
LINE
  8
0
 10
14.1292
 20
125.371
 11
14.4148
 21
125.442
  0
LINE
  8
0
 10
14.4148
 20
125.442
 11
14.7059
 21
125.485
  0
LINE
  8
0
 10
14.7059
 20
125.485
 11
15
 21
125.5
  0
LINE
  8
0
 10
15
 20
125.5
 11
15.294
 21
125.485
  0
LINE
  8
0
 10
15.294
 20
125.485
 11
15.5853
 21
125.442
  0
LINE
  8
0
 10
15.5853
 20
125.442
 11
15.8708
 21
125.371
  0
LINE
  8
0
 10
15.8708
 20
125.371
 11
16.148
 21
125.271
  0
LINE
  8
0
 10
16.148
 20
125.271
 11
16.4141
 21
125.146
  0
LINE
  8
0
 10
16.4141
 20
125.146
 11
16.6666
 21
124.994
  0
LINE
  8
0
 10
16.6666
 20
124.994
 11
16.9031
 21
124.819
  0
LINE
  8
0
 10
16.9031
 20
124.819
 11
17.1212
 21
124.621
  0
LINE
  8
0
 10
17.1212
 20
124.621
 11
17.3189
 21
124.403
  0
LINE
  8
0
 10
17.3189
 20
124.403
 11
17.4943
 21
124.167
  0
LINE
  8
0
 10
17.4943
 20
124.167
 11
17.6456
 21
123.914
  0
LINE
  8
0
 10
17.6456
 20
123.914
 11
17.7715
 21
123.648
  0
LINE
  8
0
 10
17.7715
 20
123.648
 11
17.8707
 21
123.371
  0
LINE
  8
0
 10
17.8707
 20
123.371
 11
17.9422
 21
123.085
  0
LINE
  8
0
 10
17.9422
 20
123.085
 11
17.9854
 21
122.794
  0
LINE
  8
0
 10
17.9854
 20
122.794
 11
17.9999
 21
122.5
  0
LINE
  8
0
 10
17.9999
 20
122.5
 11
17.9854
 21
122.206
  0
LINE
  8
0
 10
17.9854
 20
122.206
 11
17.9422
 21
121.915
  0
LINE
  8
0
 10
17.9422
 20
121.915
 11
17.8707
 21
121.629
  0
LINE
  8
0
 10
17.8707
 20
121.629
 11
17.7715
 21
121.352
  0
LINE
  8
0
 10
17.7715
 20
121.352
 11
17.6456
 21
121.086
  0
LINE
  8
0
 10
17.6456
 20
121.086
 11
17.4943
 21
120.833
  0
LINE
  8
0
 10
17.4943
 20
120.833
 11
17.3189
 21
120.597
  0
LINE
  8
0
 10
17.3189
 20
120.597
 11
17.1212
 21
120.379
  0
LINE
  8
0
 10
17.1212
 20
120.379
 11
16.9031
 21
120.181
  0
LINE
  8
0
 10
16.9031
 20
120.181
 11
16.6666
 21
120.006
  0
LINE
  8
0
 10
16.6666
 20
120.006
 11
16.4141
 21
119.854
  0
LINE
  8
0
 10
16.4141
 20
119.854
 11
16.148
 21
119.728
  0
LINE
  8
0
 10
16.148
 20
119.728
 11
15.8708
 21
119.629
  0
LINE
  8
0
 10
15.8708
 20
119.629
 11
15.5852
 21
119.558
  0
LINE
  8
0
 10
15.5852
 20
119.558
 11
15.294
 21
119.515
  0
LINE
  8
0
 10
15.294
 20
119.515
 11
15
 21
119.5
  0
LINE
  8
0
 10
15
 20
119.5
 11
14.7059
 21
119.515
  0
LINE
  8
0
 10
-15.2941
 20
119.515
 11
-15.5853
 21
119.558
  0
LINE
  8
0
 10
-15.5853
 20
119.558
 11
-15.8708
 21
119.629
  0
LINE
  8
0
 10
-15.8708
 20
119.629
 11
-16.148
 21
119.728
  0
LINE
  8
0
 10
-16.148
 20
119.728
 11
-16.4141
 21
119.854
  0
LINE
  8
0
 10
-16.4141
 20
119.854
 11
-16.6666
 21
120.006
  0
LINE
  8
0
 10
-16.6666
 20
120.006
 11
-16.9031
 21
120.181
  0
LINE
  8
0
 10
-16.9031
 20
120.181
 11
-17.1212
 21
120.379
  0
LINE
  8
0
 10
-17.1212
 20
120.379
 11
-17.3189
 21
120.597
  0
LINE
  8
0
 10
-17.3189
 20
120.597
 11
-17.4943
 21
120.833
  0
LINE
  8
0
 10
-17.4943
 20
120.833
 11
-17.6456
 21
121.086
  0
LINE
  8
0
 10
-17.6456
 20
121.086
 11
-17.7715
 21
121.352
  0
LINE
  8
0
 10
-17.7715
 20
121.352
 11
-17.8707
 21
121.629
  0
LINE
  8
0
 10
-17.8707
 20
121.629
 11
-17.9422
 21
121.915
  0
LINE
  8
0
 10
-17.9422
 20
121.915
 11
-17.9854
 21
122.206
  0
LINE
  8
0
 10
-17.9854
 20
122.206
 11
-17.9999
 21
122.5
  0
LINE
  8
0
 10
-17.9999
 20
122.5
 11
-17.9854
 21
122.794
  0
LINE
  8
0
 10
-17.9854
 20
122.794
 11
-17.9422
 21
123.085
  0
LINE
  8
0
 10
-17.9422
 20
123.085
 11
-17.8707
 21
123.371
  0
LINE
  8
0
 10
-17.8707
 20
123.371
 11
-17.7715
 21
123.648
  0
LINE
  8
0
 10
-17.7715
 20
123.648
 11
-17.6456
 21
123.914
  0
LINE
  8
0
 10
-17.6456
 20
123.914
 11
-17.4943
 21
124.167
  0
LINE
  8
0
 10
-17.4943
 20
124.167
 11
-17.3189
 21
124.403
  0
LINE
  8
0
 10
-17.3189
 20
124.403
 11
-17.1212
 21
124.621
  0
LINE
  8
0
 10
-17.1212
 20
124.621
 11
-16.9031
 21
124.819
  0
LINE
  8
0
 10
-16.9031
 20
124.819
 11
-16.6666
 21
124.994
  0
LINE
  8
0
 10
-16.6666
 20
124.994
 11
-16.4141
 21
125.146
  0
LINE
  8
0
 10
-16.4141
 20
125.146
 11
-16.148
 21
125.271
  0
LINE
  8
0
 10
-16.148
 20
125.271
 11
-15.8708
 21
125.371
  0
LINE
  8
0
 10
-15.8708
 20
125.371
 11
-15.5852
 21
125.442
  0
LINE
  8
0
 10
-15.5852
 20
125.442
 11
-15.294
 21
125.485
  0
LINE
  8
0
 10
-15.294
 20
125.485
 11
-15
 21
125.5
  0
LINE
  8
0
 10
-15
 20
125.5
 11
-14.7059
 21
125.485
  0
LINE
  8
0
 10
-14.7059
 20
125.485
 11
-14.4147
 21
125.442
  0
LINE
  8
0
 10
-14.4147
 20
125.442
 11
-14.1292
 21
125.371
  0
LINE
  8
0
 10
-14.1292
 20
125.371
 11
-13.852
 21
125.271
  0
LINE
  8
0
 10
-13.852
 20
125.271
 11
-13.5859
 21
125.146
  0
LINE
  8
0
 10
-13.5859
 20
125.146
 11
-13.3334
 21
124.994
  0
LINE
  8
0
 10
-13.3334
 20
124.994
 11
-13.0969
 21
124.819
  0
LINE
  8
0
 10
-13.0969
 20
124.819
 11
-12.8788
 21
124.621
  0
LINE
  8
0
 10
-12.8788
 20
124.621
 11
-12.6811
 21
124.403
  0
LINE
  8
0
 10
-12.6811
 20
124.403
 11
-12.5057
 21
124.167
  0
LINE
  8
0
 10
-12.5057
 20
124.167
 11
-12.3544
 21
123.914
  0
LINE
  8
0
 10
-12.3544
 20
123.914
 11
-12.2285
 21
123.648
  0
LINE
  8
0
 10
-12.2285
 20
123.648
 11
-12.1293
 21
123.371
  0
LINE
  8
0
 10
-12.1293
 20
123.371
 11
-12.0578
 21
123.085
  0
LINE
  8
0
 10
-12.0578
 20
123.085
 11
-12.0146
 21
122.794
  0
LINE
  8
0
 10
-12.0146
 20
122.794
 11
-12.0001
 21
122.5
  0
LINE
  8
0
 10
-12.0001
 20
122.5
 11
-12.0146
 21
122.206
  0
LINE
  8
0
 10
-12.0146
 20
122.206
 11
-12.0578
 21
121.915
  0
LINE
  8
0
 10
-12.0578
 20
121.915
 11
-12.1293
 21
121.629
  0
LINE
  8
0
 10
-12.1293
 20
121.629
 11
-12.2285
 21
121.352
  0
LINE
  8
0
 10
-12.2285
 20
121.352
 11
-12.3544
 21
121.086
  0
LINE
  8
0
 10
-12.3544
 20
121.086
 11
-12.5057
 21
120.833
  0
LINE
  8
0
 10
-12.5057
 20
120.833
 11
-12.6811
 21
120.597
  0
LINE
  8
0
 10
-12.6811
 20
120.597
 11
-12.8788
 21
120.379
  0
LINE
  8
0
 10
-12.8788
 20
120.379
 11
-13.0969
 21
120.181
  0
LINE
  8
0
 10
-13.0969
 20
120.181
 11
-13.3334
 21
120.006
  0
LINE
  8
0
 10
-13.3334
 20
120.006
 11
-13.5859
 21
119.854
  0
LINE
  8
0
 10
-13.5859
 20
119.854
 11
-13.852
 21
119.728
  0
LINE
  8
0
 10
-13.852
 20
119.728
 11
-14.1292
 21
119.629
  0
LINE
  8
0
 10
-14.1292
 20
119.629
 11
-14.4148
 21
119.558
  0
LINE
  8
0
 10
-14.4148
 20
119.558
 11
-14.706
 21
119.515
  0
LINE
  8
0
 10
-14.706
 20
119.515
 11
-15
 21
119.5
  0
LINE
  8
0
 10
-15
 20
119.5
 11
-15.2941
 21
119.515
  0
LINE
  8
0
 10
-13.4998
 20
118
 11
-9.00024
 21
121
  0
LINE
  8
0
 10
-9.00024
 20
121
 11
-13.4998
 21
106.001
  0
LINE
  8
0
 10
-13.4998
 20
106.001
 11
-13.4998
 21
118
  0
LINE
  8
0
 10
-20.9997
 20
121
 11
-16.5002
 21
118
  0
LINE
  8
0
 10
-16.5002
 20
118
 11
-16.5002
 21
106.001
  0
LINE
  8
0
 10
-16.5002
 20
106.001
 11
-20.9997
 21
121
  0
LINE
  8
0
 10
1.50015
 20
118
 11
5.99974
 21
121
  0
LINE
  8
0
 10
5.99974
 20
121
 11
1.50015
 21
106.001
  0
LINE
  8
0
 10
1.50015
 20
106.001
 11
1.50015
 21
118
  0
LINE
  8
0
 10
-5.99974
 20
121
 11
-1.50015
 21
118
  0
LINE
  8
0
 10
-1.50015
 20
118
 11
-1.50015
 21
106.001
  0
LINE
  8
0
 10
-1.50015
 20
106.001
 11
-5.99974
 21
121
  0
LINE
  8
0
 10
9.00024
 20
121
 11
13.4998
 21
118
  0
LINE
  8
0
 10
13.4998
 20
118
 11
13.4998
 21
106.001
  0
LINE
  8
0
 10
13.4998
 20
106.001
 11
9.00024
 21
121
  0
LINE
  8
0
 10
16.5002
 20
118
 11
20.9997
 21
121
  0
LINE
  8
0
 10
20.9997
 20
121
 11
16.5002
 21
106.001
  0
LINE
  8
0
 10
16.5002
 20
106.001
 11
16.5002
 21
118
  0
LINE
  8
0
 10
-5.99982
 20
100
 11
-3.75
 21
106.245
  0
LINE
  8
0
 10
-3.75
 20
106.245
 11
-3.12512
 21
104.602
  0
LINE
  8
0
 10
-3.12512
 20
104.602
 11
-2.50012
 21
103.254
  0
LINE
  8
0
 10
-2.50012
 20
103.254
 11
-1.87511
 21
102.201
  0
LINE
  8
0
 10
-1.87511
 20
102.201
 11
-1.25011
 21
101.443
  0
LINE
  8
0
 10
-1.25011
 20
101.443
 11
-0.625046
 21
100.979
  0
LINE
  8
0
 10
-0.625046
 20
100.979
 11
0
 21
100.811
  0
LINE
  8
0
 10
0
 20
100.811
 11
0.625076
 21
100.938
  0
LINE
  8
0
 10
0.625076
 20
100.938
 11
1.25011
 21
101.361
  0
LINE
  8
0
 10
1.25011
 20
101.361
 11
1.87511
 21
102.078
  0
LINE
  8
0
 10
1.87511
 20
102.078
 11
2.50014
 21
103.09
  0
LINE
  8
0
 10
2.50014
 20
103.09
 11
3.12515
 21
104.397
  0
LINE
  8
0
 10
3.12515
 20
104.397
 11
3.75
 21
106
  0
LINE
  8
0
 10
3.75
 20
106
 11
5.99982
 21
100
  0
LINE
  8
0
 10
5.99982
 20
100
 11
3.75
 21
94.0004
  0
LINE
  8
0
 10
3.75
 20
94.0004
 11
3.12515
 21
95.6025
  0
LINE
  8
0
 10
3.12515
 20
95.6025
 11
2.50014
 21
96.9099
  0
LINE
  8
0
 10
2.50014
 20
96.9099
 11
1.87511
 21
97.9222
  0
LINE
  8
0
 10
1.87511
 20
97.9222
 11
1.25011
 21
98.6395
  0
LINE
  8
0
 10
1.25011
 20
98.6395
 11
0.625076
 21
99.0616
  0
LINE
  8
0
 10
0.625076
 20
99.0616
 11
0
 21
99.1887
  0
LINE
  8
0
 10
0
 20
99.1887
 11
-0.625046
 21
99.0206
  0
LINE
  8
0
 10
-0.625046
 20
99.0206
 11
-1.25011
 21
98.5575
  0
LINE
  8
0
 10
-1.25011
 20
98.5575
 11
-1.87511
 21
97.7993
  0
LINE
  8
0
 10
-1.87511
 20
97.7993
 11
-2.50012
 21
96.746
  0
LINE
  8
0
 10
-2.50012
 20
96.746
 11
-3.12512
 21
95.3976
  0
LINE
  8
0
 10
-3.12512
 20
95.3976
 11
-3.75
 21
93.7545
  0
LINE
  8
0
 10
-3.75
 20
93.7545
 11
-5.99982
 21
100
  0
LINE
  8
0
 10
-11.8749
 20
95.3976
 11
-12.4999
 21
96.746
  0
LINE
  8
0
 10
-12.4999
 20
96.746
 11
-13.1249
 21
97.7993
  0
LINE
  8
0
 10
-13.1249
 20
97.7993
 11
-13.7499
 21
98.5575
  0
LINE
  8
0
 10
-13.7499
 20
98.5575
 11
-14.3749
 21
99.0206
  0
LINE
  8
0
 10
-14.3749
 20
99.0206
 11
-15
 21
99.1887
  0
LINE
  8
0
 10
-15
 20
99.1887
 11
-15.6251
 21
99.0616
  0
LINE
  8
0
 10
-15.6251
 20
99.0616
 11
-16.2501
 21
98.6395
  0
LINE
  8
0
 10
-16.2501
 20
98.6395
 11
-16.8751
 21
97.9222
  0
LINE
  8
0
 10
-16.8751
 20
97.9222
 11
-17.5001
 21
96.9099
  0
LINE
  8
0
 10
-17.5001
 20
96.9099
 11
-18.1252
 21
95.6025
  0
LINE
  8
0
 10
-18.1252
 20
95.6025
 11
-18.75
 21
94.0004
  0
LINE
  8
0
 10
-18.75
 20
94.0004
 11
-20.9998
 21
100
  0
LINE
  8
0
 10
-20.9998
 20
100
 11
-18.75
 21
106
  0
LINE
  8
0
 10
-18.75
 20
106
 11
-18.1252
 21
104.397
  0
LINE
  8
0
 10
-18.1252
 20
104.397
 11
-17.5001
 21
103.09
  0
LINE
  8
0
 10
-17.5001
 20
103.09
 11
-16.8751
 21
102.078
  0
LINE
  8
0
 10
-16.8751
 20
102.078
 11
-16.2501
 21
101.361
  0
LINE
  8
0
 10
-16.2501
 20
101.361
 11
-15.6251
 21
100.938
  0
LINE
  8
0
 10
-15.6251
 20
100.938
 11
-15
 21
100.811
  0
LINE
  8
0
 10
-15
 20
100.811
 11
-14.3749
 21
100.979
  0
LINE
  8
0
 10
-14.3749
 20
100.979
 11
-13.7499
 21
101.443
  0
LINE
  8
0
 10
-13.7499
 20
101.443
 11
-13.1249
 21
102.201
  0
LINE
  8
0
 10
-13.1249
 20
102.201
 11
-12.4999
 21
103.254
  0
LINE
  8
0
 10
-12.4999
 20
103.254
 11
-11.8749
 21
104.602
  0
LINE
  8
0
 10
-11.8749
 20
104.602
 11
-11.25
 21
106.245
  0
LINE
  8
0
 10
-11.25
 20
106.245
 11
-9.00018
 21
100
  0
LINE
  8
0
 10
-9.00018
 20
100
 11
-11.25
 21
93.7545
  0
LINE
  8
0
 10
-11.25
 20
93.7545
 11
-11.8749
 21
95.3976
  0
LINE
  8
0
 10
18.1251
 20
95.3976
 11
17.5001
 21
96.746
  0
LINE
  8
0
 10
17.5001
 20
96.746
 11
16.8751
 21
97.7993
  0
LINE
  8
0
 10
16.8751
 20
97.7993
 11
16.2501
 21
98.5575
  0
LINE
  8
0
 10
16.2501
 20
98.5575
 11
15.625
 21
99.0206
  0
LINE
  8
0
 10
15.625
 20
99.0206
 11
15
 21
99.1887
  0
LINE
  8
0
 10
15
 20
99.1887
 11
14.3749
 21
99.0616
  0
LINE
  8
0
 10
14.3749
 20
99.0616
 11
13.7499
 21
98.6395
  0
LINE
  8
0
 10
13.7499
 20
98.6395
 11
13.1249
 21
97.9222
  0
LINE
  8
0
 10
13.1249
 20
97.9222
 11
12.4998
 21
96.9099
  0
LINE
  8
0
 10
12.4998
 20
96.9099
 11
11.8748
 21
95.6025
  0
LINE
  8
0
 10
11.8748
 20
95.6025
 11
11.25
 21
94.0004
  0
LINE
  8
0
 10
11.25
 20
94.0004
 11
9.00018
 21
100
  0
LINE
  8
0
 10
9.00018
 20
100
 11
11.25
 21
106
  0
LINE
  8
0
 10
11.25
 20
106
 11
11.8748
 21
104.397
  0
LINE
  8
0
 10
11.8748
 20
104.397
 11
12.4998
 21
103.09
  0
LINE
  8
0
 10
12.4998
 20
103.09
 11
13.1249
 21
102.078
  0
LINE
  8
0
 10
13.1249
 20
102.078
 11
13.7499
 21
101.361
  0
LINE
  8
0
 10
13.7499
 20
101.361
 11
14.3749
 21
100.938
  0
LINE
  8
0
 10
14.3749
 20
100.938
 11
15
 21
100.811
  0
LINE
  8
0
 10
15
 20
100.811
 11
15.625
 21
100.979
  0
LINE
  8
0
 10
15.625
 20
100.979
 11
16.2501
 21
101.443
  0
LINE
  8
0
 10
16.2501
 20
101.443
 11
16.8751
 21
102.201
  0
LINE
  8
0
 10
16.8751
 20
102.201
 11
17.5001
 21
103.254
  0
LINE
  8
0
 10
17.5001
 20
103.254
 11
18.1251
 21
104.602
  0
LINE
  8
0
 10
18.1251
 20
104.602
 11
18.75
 21
106.245
  0
LINE
  8
0
 10
18.75
 20
106.245
 11
20.9998
 21
100
  0
LINE
  8
0
 10
20.9998
 20
100
 11
18.75
 21
93.7545
  0
LINE
  8
0
 10
18.75
 20
93.7545
 11
18.1251
 21
95.3976
  0
LINE
  8
0
 10
24.0002
 20
100
 11
26.25
 21
106.245
  0
LINE
  8
0
 10
26.25
 20
106.245
 11
26.8749
 21
104.602
  0
LINE
  8
0
 10
26.8749
 20
104.602
 11
27.4999
 21
103.254
  0
LINE
  8
0
 10
27.4999
 20
103.254
 11
28.1249
 21
102.201
  0
LINE
  8
0
 10
28.1249
 20
102.201
 11
28.7499
 21
101.443
  0
LINE
  8
0
 10
28.7499
 20
101.443
 11
29.3749
 21
100.979
  0
LINE
  8
0
 10
29.3749
 20
100.979
 11
29.5912
 21
100.921
  0
LINE
  8
0
 10
29.5912
 20
100.921
 11
30.165
 21
99.1551
  0
LINE
  8
0
 10
30.165
 20
99.1551
 11
30
 21
99.1887
  0
LINE
  8
0
 10
30
 20
99.1887
 11
29.3749
 21
99.0206
  0
LINE
  8
0
 10
29.3749
 20
99.0206
 11
28.7499
 21
98.5575
  0
LINE
  8
0
 10
28.7499
 20
98.5575
 11
28.1249
 21
97.7993
  0
LINE
  8
0
 10
28.1249
 20
97.7993
 11
27.4999
 21
96.746
  0
LINE
  8
0
 10
27.4999
 20
96.746
 11
26.8749
 21
95.3976
  0
LINE
  8
0
 10
26.8749
 20
95.3976
 11
26.25
 21
93.7545
  0
LINE
  8
0
 10
26.25
 20
93.7545
 11
24.0002
 21
100
  0
LINE
  8
0
 10
-26.8748
 20
95.6025
 11
-27.4998
 21
96.9099
  0
LINE
  8
0
 10
-27.4998
 20
96.9099
 11
-28.1249
 21
97.9222
  0
LINE
  8
0
 10
-28.1249
 20
97.9222
 11
-28.7499
 21
98.6395
  0
LINE
  8
0
 10
-28.7499
 20
98.6395
 11
-29.3749
 21
99.0616
  0
LINE
  8
0
 10
-29.3749
 20
99.0616
 11
-30
 21
99.1887
  0
LINE
  8
0
 10
-30
 20
99.1887
 11
-30.1689
 21
99.1433
  0
LINE
  8
0
 10
-30.1689
 20
99.1433
 11
-29.6005
 21
100.893
  0
LINE
  8
0
 10
-29.6005
 20
100.893
 11
-29.3749
 21
100.938
  0
LINE
  8
0
 10
-29.3749
 20
100.938
 11
-28.7499
 21
101.361
  0
LINE
  8
0
 10
-28.7499
 20
101.361
 11
-28.1249
 21
102.078
  0
LINE
  8
0
 10
-28.1249
 20
102.078
 11
-27.4998
 21
103.09
  0
LINE
  8
0
 10
-27.4998
 20
103.09
 11
-26.8748
 21
104.397
  0
LINE
  8
0
 10
-26.8748
 20
104.397
 11
-26.25
 21
106
  0
LINE
  8
0
 10
-26.25
 20
106
 11
-24.0002
 21
100
  0
LINE
  8
0
 10
-24.0002
 20
100
 11
-26.25
 21
94.0004
  0
LINE
  8
0
 10
-26.25
 20
94.0004
 11
-26.8748
 21
95.6025
  0
LINE
  8
0
 10
1.50015
 20
82.0001
 11
1.50015
 21
93.999
  0
LINE
  8
0
 10
1.50015
 20
93.999
 11
5.99974
 21
79.0003
  0
LINE
  8
0
 10
5.99974
 20
79.0003
 11
1.50015
 21
82.0001
  0
LINE
  8
0
 10
-16.5002
 20
93.999
 11
-16.5002
 21
82.0001
  0
LINE
  8
0
 10
-16.5002
 20
82.0001
 11
-20.9997
 21
79.0003
  0
LINE
  8
0
 10
-20.9997
 20
79.0003
 11
-16.5002
 21
93.999
  0
LINE
  8
0
 10
-13.4998
 20
82.0001
 11
-13.4998
 21
93.999
  0
LINE
  8
0
 10
-13.4998
 20
93.999
 11
-9.00024
 21
79.0003
  0
LINE
  8
0
 10
-9.00024
 20
79.0003
 11
-13.4998
 21
82.0001
  0
LINE
  8
0
 10
-28.4998
 20
82.0001
 11
-28.4998
 21
93.999
  0
LINE
  8
0
 10
-28.4998
 20
93.999
 11
-24.0002
 21
79.0003
  0
LINE
  8
0
 10
-24.0002
 20
79.0003
 11
-28.4998
 21
82.0001
  0
LINE
  8
0
 10
-31.5002
 20
93.999
 11
-31.5002
 21
82.0001
  0
LINE
  8
0
 10
-31.5002
 20
82.0001
 11
-35.9997
 21
79.0003
  0
LINE
  8
0
 10
-35.9997
 20
79.0003
 11
-31.5002
 21
93.999
  0
LINE
  8
0
 10
16.5002
 20
82.0001
 11
16.5002
 21
93.999
  0
LINE
  8
0
 10
16.5002
 20
93.999
 11
20.9997
 21
79.0003
  0
LINE
  8
0
 10
20.9997
 20
79.0003
 11
16.5002
 21
82.0001
  0
LINE
  8
0
 10
13.4998
 20
93.999
 11
13.4998
 21
82.0001
  0
LINE
  8
0
 10
13.4998
 20
82.0001
 11
9.00024
 21
79.0003
  0
LINE
  8
0
 10
9.00024
 20
79.0003
 11
13.4998
 21
93.999
  0
LINE
  8
0
 10
28.4998
 20
93.999
 11
28.4998
 21
82.0001
  0
LINE
  8
0
 10
28.4998
 20
82.0001
 11
24.0002
 21
79.0003
  0
LINE
  8
0
 10
24.0002
 20
79.0003
 11
28.4998
 21
93.999
  0
LINE
  8
0
 10
31.5002
 20
82.0001
 11
31.5002
 21
93.999
  0
LINE
  8
0
 10
31.5002
 20
93.999
 11
35.9997
 21
79.0003
  0
LINE
  8
0
 10
35.9997
 20
79.0003
 11
31.5002
 21
82.0001
  0
LINE
  8
0
 10
-1.50015
 20
93.999
 11
-1.50015
 21
82.0001
  0
LINE
  8
0
 10
-1.50015
 20
82.0001
 11
-5.99974
 21
79.0003
  0
LINE
  8
0
 10
-5.99974
 20
79.0003
 11
-1.50015
 21
93.999
  0
LINE
  8
0
 10
14.7059
 20
74.5146
 11
14.4147
 21
74.5578
  0
LINE
  8
0
 10
14.4147
 20
74.5578
 11
14.1292
 21
74.6293
  0
LINE
  8
0
 10
14.1292
 20
74.6293
 11
13.852
 21
74.7285
  0
LINE
  8
0
 10
13.852
 20
74.7285
 11
13.5859
 21
74.8544
  0
LINE
  8
0
 10
13.5859
 20
74.8544
 11
13.3333
 21
75.0057
  0
LINE
  8
0
 10
13.3333
 20
75.0057
 11
13.0969
 21
75.1811
  0
LINE
  8
0
 10
13.0969
 20
75.1811
 11
12.8788
 21
75.3788
  0
LINE
  8
0
 10
12.8788
 20
75.3788
 11
12.6811
 21
75.5969
  0
LINE
  8
0
 10
12.6811
 20
75.5969
 11
12.5057
 21
75.8334
  0
LINE
  8
0
 10
12.5057
 20
75.8334
 11
12.3544
 21
76.0859
  0
LINE
  8
0
 10
12.3544
 20
76.0859
 11
12.2285
 21
76.352
  0
LINE
  8
0
 10
12.2285
 20
76.352
 11
12.1293
 21
76.6292
  0
LINE
  8
0
 10
12.1293
 20
76.6292
 11
12.0578
 21
76.9148
  0
LINE
  8
0
 10
12.0578
 20
76.9148
 11
12.0146
 21
77.2059
  0
LINE
  8
0
 10
12.0146
 20
77.2059
 11
12.0001
 21
77.5
  0
LINE
  8
0
 10
12.0001
 20
77.5
 11
12.0146
 21
77.7941
  0
LINE
  8
0
 10
12.0146
 20
77.7941
 11
12.0578
 21
78.0853
  0
LINE
  8
0
 10
12.0578
 20
78.0853
 11
12.1293
 21
78.3708
  0
LINE
  8
0
 10
12.1293
 20
78.3708
 11
12.2285
 21
78.648
  0
LINE
  8
0
 10
12.2285
 20
78.648
 11
12.3544
 21
78.9141
  0
LINE
  8
0
 10
12.3544
 20
78.9141
 11
12.5057
 21
79.1666
  0
LINE
  8
0
 10
12.5057
 20
79.1666
 11
12.6811
 21
79.4031
  0
LINE
  8
0
 10
12.6811
 20
79.4031
 11
12.8788
 21
79.6212
  0
LINE
  8
0
 10
12.8788
 20
79.6212
 11
13.0969
 21
79.8189
  0
LINE
  8
0
 10
13.0969
 20
79.8189
 11
13.3333
 21
79.9943
  0
LINE
  8
0
 10
13.3333
 20
79.9943
 11
13.5859
 21
80.1456
  0
LINE
  8
0
 10
13.5859
 20
80.1456
 11
13.852
 21
80.2715
  0
LINE
  8
0
 10
13.852
 20
80.2715
 11
14.1292
 21
80.3707
  0
LINE
  8
0
 10
14.1292
 20
80.3707
 11
14.4148
 21
80.4422
  0
LINE
  8
0
 10
14.4148
 20
80.4422
 11
14.7059
 21
80.4854
  0
LINE
  8
0
 10
14.7059
 20
80.4854
 11
15
 21
80.4998
  0
LINE
  8
0
 10
15
 20
80.4998
 11
15.294
 21
80.4854
  0
LINE
  8
0
 10
15.294
 20
80.4854
 11
15.5853
 21
80.4422
  0
LINE
  8
0
 10
15.5853
 20
80.4422
 11
15.8708
 21
80.3707
  0
LINE
  8
0
 10
15.8708
 20
80.3707
 11
16.148
 21
80.2715
  0
LINE
  8
0
 10
16.148
 20
80.2715
 11
16.4141
 21
80.1456
  0
LINE
  8
0
 10
16.4141
 20
80.1456
 11
16.6666
 21
79.9943
  0
LINE
  8
0
 10
16.6666
 20
79.9943
 11
16.9031
 21
79.8189
  0
LINE
  8
0
 10
16.9031
 20
79.8189
 11
17.1212
 21
79.6212
  0
LINE
  8
0
 10
17.1212
 20
79.6212
 11
17.3189
 21
79.4031
  0
LINE
  8
0
 10
17.3189
 20
79.4031
 11
17.4943
 21
79.1666
  0
LINE
  8
0
 10
17.4943
 20
79.1666
 11
17.6456
 21
78.9141
  0
LINE
  8
0
 10
17.6456
 20
78.9141
 11
17.7715
 21
78.648
  0
LINE
  8
0
 10
17.7715
 20
78.648
 11
17.8707
 21
78.3708
  0
LINE
  8
0
 10
17.8707
 20
78.3708
 11
17.9422
 21
78.0852
  0
LINE
  8
0
 10
17.9422
 20
78.0852
 11
17.9854
 21
77.794
  0
LINE
  8
0
 10
17.9854
 20
77.794
 11
17.9999
 21
77.5
  0
LINE
  8
0
 10
17.9999
 20
77.5
 11
17.9854
 21
77.2059
  0
LINE
  8
0
 10
17.9854
 20
77.2059
 11
17.9422
 21
76.9147
  0
LINE
  8
0
 10
17.9422
 20
76.9147
 11
17.8707
 21
76.6292
  0
LINE
  8
0
 10
17.8707
 20
76.6292
 11
17.7715
 21
76.352
  0
LINE
  8
0
 10
17.7715
 20
76.352
 11
17.6456
 21
76.0859
  0
LINE
  8
0
 10
17.6456
 20
76.0859
 11
17.4943
 21
75.8333
  0
LINE
  8
0
 10
17.4943
 20
75.8333
 11
17.3189
 21
75.5969
  0
LINE
  8
0
 10
17.3189
 20
75.5969
 11
17.1212
 21
75.3788
  0
LINE
  8
0
 10
17.1212
 20
75.3788
 11
16.9031
 21
75.1811
  0
LINE
  8
0
 10
16.9031
 20
75.1811
 11
16.6666
 21
75.0057
  0
LINE
  8
0
 10
16.6666
 20
75.0057
 11
16.4141
 21
74.8544
  0
LINE
  8
0
 10
16.4141
 20
74.8544
 11
16.148
 21
74.7285
  0
LINE
  8
0
 10
16.148
 20
74.7285
 11
15.8708
 21
74.6293
  0
LINE
  8
0
 10
15.8708
 20
74.6293
 11
15.5852
 21
74.5578
  0
LINE
  8
0
 10
15.5852
 20
74.5578
 11
15.294
 21
74.5146
  0
LINE
  8
0
 10
15.294
 20
74.5146
 11
15
 21
74.5002
  0
LINE
  8
0
 10
15
 20
74.5002
 11
14.7059
 21
74.5146
  0
LINE
  8
0
 10
-0.294037
 20
74.5146
 11
-0.585251
 21
74.5578
  0
LINE
  8
0
 10
-0.585251
 20
74.5578
 11
-0.870804
 21
74.6293
  0
LINE
  8
0
 10
-0.870804
 20
74.6293
 11
-1.14798
 21
74.7285
  0
LINE
  8
0
 10
-1.14798
 20
74.7285
 11
-1.41409
 21
74.8544
  0
LINE
  8
0
 10
-1.41409
 20
74.8544
 11
-1.66663
 21
75.0057
  0
LINE
  8
0
 10
-1.66663
 20
75.0057
 11
-1.90308
 21
75.1811
  0
LINE
  8
0
 10
-1.90308
 20
75.1811
 11
-2.1212
 21
75.3788
  0
LINE
  8
0
 10
-2.1212
 20
75.3788
 11
-2.31891
 21
75.5969
  0
LINE
  8
0
 10
-2.31891
 20
75.5969
 11
-2.49428
 21
75.8334
  0
LINE
  8
0
 10
-2.49428
 20
75.8334
 11
-2.64561
 21
76.0859
  0
LINE
  8
0
 10
-2.64561
 20
76.0859
 11
-2.77148
 21
76.352
  0
LINE
  8
0
 10
-2.77148
 20
76.352
 11
-2.87068
 21
76.6292
  0
LINE
  8
0
 10
-2.87068
 20
76.6292
 11
-2.9422
 21
76.9148
  0
LINE
  8
0
 10
-2.9422
 20
76.9148
 11
-2.9854
 21
77.2059
  0
LINE
  8
0
 10
-2.9854
 20
77.2059
 11
-2.99986
 21
77.5
  0
LINE
  8
0
 10
-2.99986
 20
77.5
 11
-2.98537
 21
77.7941
  0
LINE
  8
0
 10
-2.98537
 20
77.7941
 11
-2.94218
 21
78.0853
  0
LINE
  8
0
 10
-2.94218
 20
78.0853
 11
-2.87068
 21
78.3708
  0
LINE
  8
0
 10
-2.87068
 20
78.3708
 11
-2.77148
 21
78.648
  0
LINE
  8
0
 10
-2.77148
 20
78.648
 11
-2.64561
 21
78.9141
  0
LINE
  8
0
 10
-2.64561
 20
78.9141
 11
-2.49428
 21
79.1666
  0
LINE
  8
0
 10
-2.49428
 20
79.1666
 11
-2.31891
 21
79.4031
  0
LINE
  8
0
 10
-2.31891
 20
79.4031
 11
-2.1212
 21
79.6212
  0
LINE
  8
0
 10
-2.1212
 20
79.6212
 11
-1.90308
 21
79.8189
  0
LINE
  8
0
 10
-1.90308
 20
79.8189
 11
-1.66663
 21
79.9943
  0
LINE
  8
0
 10
-1.66663
 20
79.9943
 11
-1.41409
 21
80.1456
  0
LINE
  8
0
 10
-1.41409
 20
80.1456
 11
-1.14798
 21
80.2715
  0
LINE
  8
0
 10
-1.14798
 20
80.2715
 11
-0.870804
 21
80.3707
  0
LINE
  8
0
 10
-0.870804
 20
80.3707
 11
-0.585205
 21
80.4422
  0
LINE
  8
0
 10
-0.585205
 20
80.4422
 11
-0.294022
 21
80.4854
  0
LINE
  8
0
 10
-0.294022
 20
80.4854
 11
0
 21
80.4998
  0
LINE
  8
0
 10
0
 20
80.4998
 11
0.294067
 21
80.4854
  0
LINE
  8
0
 10
0.294067
 20
80.4854
 11
0.585266
 21
80.4422
  0
LINE
  8
0
 10
0.585266
 20
80.4422
 11
0.870819
 21
80.3707
  0
LINE
  8
0
 10
0.870819
 20
80.3707
 11
1.14799
 21
80.2715
  0
LINE
  8
0
 10
1.14799
 20
80.2715
 11
1.41412
 21
80.1456
  0
LINE
  8
0
 10
1.41412
 20
80.1456
 11
1.66664
 21
79.9943
  0
LINE
  8
0
 10
1.66664
 20
79.9943
 11
1.90311
 21
79.8189
  0
LINE
  8
0
 10
1.90311
 20
79.8189
 11
2.12123
 21
79.6212
  0
LINE
  8
0
 10
2.12123
 20
79.6212
 11
2.31894
 21
79.4031
  0
LINE
  8
0
 10
2.31894
 20
79.4031
 11
2.49431
 21
79.1666
  0
LINE
  8
0
 10
2.49431
 20
79.1666
 11
2.64565
 21
78.9141
  0
LINE
  8
0
 10
2.64565
 20
78.9141
 11
2.7715
 21
78.648
  0
LINE
  8
0
 10
2.7715
 20
78.648
 11
2.8707
 21
78.3708
  0
LINE
  8
0
 10
2.8707
 20
78.3708
 11
2.94223
 21
78.0852
  0
LINE
  8
0
 10
2.94223
 20
78.0852
 11
2.98541
 21
77.794
  0
LINE
  8
0
 10
2.98541
 20
77.794
 11
2.99986
 21
77.5
  0
LINE
  8
0
 10
2.99986
 20
77.5
 11
2.9854
 21
77.2059
  0
LINE
  8
0
 10
2.9854
 20
77.2059
 11
2.9422
 21
76.9147
  0
LINE
  8
0
 10
2.9422
 20
76.9147
 11
2.8707
 21
76.6292
  0
LINE
  8
0
 10
2.8707
 20
76.6292
 11
2.7715
 21
76.352
  0
LINE
  8
0
 10
2.7715
 20
76.352
 11
2.64565
 21
76.0859
  0
LINE
  8
0
 10
2.64565
 20
76.0859
 11
2.49428
 21
75.8333
  0
LINE
  8
0
 10
2.49428
 20
75.8333
 11
2.31894
 21
75.5969
  0
LINE
  8
0
 10
2.31894
 20
75.5969
 11
2.1212
 21
75.3788
  0
LINE
  8
0
 10
2.1212
 20
75.3788
 11
1.90311
 21
75.1811
  0
LINE
  8
0
 10
1.90311
 20
75.1811
 11
1.66664
 21
75.0057
  0
LINE
  8
0
 10
1.66664
 20
75.0057
 11
1.41412
 21
74.8544
  0
LINE
  8
0
 10
1.41412
 20
74.8544
 11
1.14799
 21
74.7285
  0
LINE
  8
0
 10
1.14799
 20
74.7285
 11
0.870819
 21
74.6293
  0
LINE
  8
0
 10
0.870819
 20
74.6293
 11
0.58522
 21
74.5578
  0
LINE
  8
0
 10
0.58522
 20
74.5578
 11
0.294037
 21
74.5146
  0
LINE
  8
0
 10
0.294037
 20
74.5146
 11
0
 21
74.5002
  0
LINE
  8
0
 10
0
 20
74.5002
 11
-0.294037
 21
74.5146
  0
LINE
  8
0
 10
-15.2941
 20
74.5146
 11
-15.5853
 21
74.5578
  0
LINE
  8
0
 10
-15.5853
 20
74.5578
 11
-15.8708
 21
74.6293
  0
LINE
  8
0
 10
-15.8708
 20
74.6293
 11
-16.148
 21
74.7285
  0
LINE
  8
0
 10
-16.148
 20
74.7285
 11
-16.4141
 21
74.8544
  0
LINE
  8
0
 10
-16.4141
 20
74.8544
 11
-16.6666
 21
75.0057
  0
LINE
  8
0
 10
-16.6666
 20
75.0057
 11
-16.9031
 21
75.1811
  0
LINE
  8
0
 10
-16.9031
 20
75.1811
 11
-17.1212
 21
75.3788
  0
LINE
  8
0
 10
-17.1212
 20
75.3788
 11
-17.3189
 21
75.5969
  0
LINE
  8
0
 10
-17.3189
 20
75.5969
 11
-17.4943
 21
75.8334
  0
LINE
  8
0
 10
-17.4943
 20
75.8334
 11
-17.6456
 21
76.0859
  0
LINE
  8
0
 10
-17.6456
 20
76.0859
 11
-17.7715
 21
76.352
  0
LINE
  8
0
 10
-17.7715
 20
76.352
 11
-17.8707
 21
76.6292
  0
LINE
  8
0
 10
-17.8707
 20
76.6292
 11
-17.9422
 21
76.9148
  0
LINE
  8
0
 10
-17.9422
 20
76.9148
 11
-17.9854
 21
77.2059
  0
LINE
  8
0
 10
-17.9854
 20
77.2059
 11
-17.9999
 21
77.5
  0
LINE
  8
0
 10
-17.9999
 20
77.5
 11
-17.9854
 21
77.7941
  0
LINE
  8
0
 10
-17.9854
 20
77.7941
 11
-17.9422
 21
78.0853
  0
LINE
  8
0
 10
-17.9422
 20
78.0853
 11
-17.8707
 21
78.3708
  0
LINE
  8
0
 10
-17.8707
 20
78.3708
 11
-17.7715
 21
78.648
  0
LINE
  8
0
 10
-17.7715
 20
78.648
 11
-17.6456
 21
78.9141
  0
LINE
  8
0
 10
-17.6456
 20
78.9141
 11
-17.4943
 21
79.1666
  0
LINE
  8
0
 10
-17.4943
 20
79.1666
 11
-17.3189
 21
79.4031
  0
LINE
  8
0
 10
-17.3189
 20
79.4031
 11
-17.1212
 21
79.6212
  0
LINE
  8
0
 10
-17.1212
 20
79.6212
 11
-16.9031
 21
79.8189
  0
LINE
  8
0
 10
-16.9031
 20
79.8189
 11
-16.6666
 21
79.9943
  0
LINE
  8
0
 10
-16.6666
 20
79.9943
 11
-16.4141
 21
80.1456
  0
LINE
  8
0
 10
-16.4141
 20
80.1456
 11
-16.148
 21
80.2715
  0
LINE
  8
0
 10
-16.148
 20
80.2715
 11
-15.8708
 21
80.3707
  0
LINE
  8
0
 10
-15.8708
 20
80.3707
 11
-15.5852
 21
80.4422
  0
LINE
  8
0
 10
-15.5852
 20
80.4422
 11
-15.294
 21
80.4854
  0
LINE
  8
0
 10
-15.294
 20
80.4854
 11
-15
 21
80.4998
  0
LINE
  8
0
 10
-15
 20
80.4998
 11
-14.7059
 21
80.4854
  0
LINE
  8
0
 10
-14.7059
 20
80.4854
 11
-14.4147
 21
80.4422
  0
LINE
  8
0
 10
-14.4147
 20
80.4422
 11
-14.1292
 21
80.3707
  0
LINE
  8
0
 10
-14.1292
 20
80.3707
 11
-13.852
 21
80.2715
  0
LINE
  8
0
 10
-13.852
 20
80.2715
 11
-13.5859
 21
80.1456
  0
LINE
  8
0
 10
-13.5859
 20
80.1456
 11
-13.3334
 21
79.9943
  0
LINE
  8
0
 10
-13.3334
 20
79.9943
 11
-13.0969
 21
79.8189
  0
LINE
  8
0
 10
-13.0969
 20
79.8189
 11
-12.8788
 21
79.6212
  0
LINE
  8
0
 10
-12.8788
 20
79.6212
 11
-12.6811
 21
79.4031
  0
LINE
  8
0
 10
-12.6811
 20
79.4031
 11
-12.5057
 21
79.1666
  0
LINE
  8
0
 10
-12.5057
 20
79.1666
 11
-12.3544
 21
78.9141
  0
LINE
  8
0
 10
-12.3544
 20
78.9141
 11
-12.2285
 21
78.648
  0
LINE
  8
0
 10
-12.2285
 20
78.648
 11
-12.1293
 21
78.3708
  0
LINE
  8
0
 10
-12.1293
 20
78.3708
 11
-12.0578
 21
78.0852
  0
LINE
  8
0
 10
-12.0578
 20
78.0852
 11
-12.0146
 21
77.794
  0
LINE
  8
0
 10
-12.0146
 20
77.794
 11
-12.0001
 21
77.5
  0
LINE
  8
0
 10
-12.0001
 20
77.5
 11
-12.0146
 21
77.2059
  0
LINE
  8
0
 10
-12.0146
 20
77.2059
 11
-12.0578
 21
76.9147
  0
LINE
  8
0
 10
-12.0578
 20
76.9147
 11
-12.1293
 21
76.6292
  0
LINE
  8
0
 10
-12.1293
 20
76.6292
 11
-12.2285
 21
76.352
  0
LINE
  8
0
 10
-12.2285
 20
76.352
 11
-12.3544
 21
76.0859
  0
LINE
  8
0
 10
-12.3544
 20
76.0859
 11
-12.5057
 21
75.8333
  0
LINE
  8
0
 10
-12.5057
 20
75.8333
 11
-12.6811
 21
75.5969
  0
LINE
  8
0
 10
-12.6811
 20
75.5969
 11
-12.8788
 21
75.3788
  0
LINE
  8
0
 10
-12.8788
 20
75.3788
 11
-13.0969
 21
75.1811
  0
LINE
  8
0
 10
-13.0969
 20
75.1811
 11
-13.3334
 21
75.0057
  0
LINE
  8
0
 10
-13.3334
 20
75.0057
 11
-13.5859
 21
74.8544
  0
LINE
  8
0
 10
-13.5859
 20
74.8544
 11
-13.852
 21
74.7285
  0
LINE
  8
0
 10
-13.852
 20
74.7285
 11
-14.1292
 21
74.6293
  0
LINE
  8
0
 10
-14.1292
 20
74.6293
 11
-14.4148
 21
74.5578
  0
LINE
  8
0
 10
-14.4148
 20
74.5578
 11
-14.706
 21
74.5146
  0
LINE
  8
0
 10
-14.706
 20
74.5146
 11
-15
 21
74.5002
  0
LINE
  8
0
 10
-15
 20
74.5002
 11
-15.2941
 21
74.5146
  0
LINE
  8
0
 10
-30.294
 20
74.5146
 11
-30.5853
 21
74.5578
  0
LINE
  8
0
 10
-30.5853
 20
74.5578
 11
-30.8708
 21
74.6293
  0
LINE
  8
0
 10
-30.8708
 20
74.6293
 11
-31.148
 21
74.7285
  0
LINE
  8
0
 10
-31.148
 20
74.7285
 11
-31.4141
 21
74.8544
  0
LINE
  8
0
 10
-31.4141
 20
74.8544
 11
-31.6666
 21
75.0057
  0
LINE
  8
0
 10
-31.6666
 20
75.0057
 11
-31.9031
 21
75.1811
  0
LINE
  8
0
 10
-31.9031
 20
75.1811
 11
-32.1212
 21
75.3788
  0
LINE
  8
0
 10
-32.1212
 20
75.3788
 11
-32.3189
 21
75.5969
  0
LINE
  8
0
 10
-32.3189
 20
75.5969
 11
-32.4943
 21
75.8334
  0
LINE
  8
0
 10
-32.4943
 20
75.8334
 11
-32.6456
 21
76.0859
  0
LINE
  8
0
 10
-32.6456
 20
76.0859
 11
-32.7715
 21
76.352
  0
LINE
  8
0
 10
-32.7715
 20
76.352
 11
-32.8707
 21
76.6292
  0
LINE
  8
0
 10
-32.8707
 20
76.6292
 11
-32.9422
 21
76.9148
  0
LINE
  8
0
 10
-32.9422
 20
76.9148
 11
-32.9854
 21
77.2059
  0
LINE
  8
0
 10
-32.9854
 20
77.2059
 11
-32.9999
 21
77.5
  0
LINE
  8
0
 10
-32.9999
 20
77.5
 11
-32.9854
 21
77.7941
  0
LINE
  8
0
 10
-32.9854
 20
77.7941
 11
-32.9422
 21
78.0853
  0
LINE
  8
0
 10
-32.9422
 20
78.0853
 11
-32.8707
 21
78.3708
  0
LINE
  8
0
 10
-32.8707
 20
78.3708
 11
-32.7715
 21
78.648
  0
LINE
  8
0
 10
-32.7715
 20
78.648
 11
-32.6456
 21
78.9141
  0
LINE
  8
0
 10
-32.6456
 20
78.9141
 11
-32.4943
 21
79.1666
  0
LINE
  8
0
 10
-32.4943
 20
79.1666
 11
-32.3189
 21
79.4031
  0
LINE
  8
0
 10
-32.3189
 20
79.4031
 11
-32.1212
 21
79.6212
  0
LINE
  8
0
 10
-32.1212
 20
79.6212
 11
-31.9031
 21
79.8189
  0
LINE
  8
0
 10
-31.9031
 20
79.8189
 11
-31.6666
 21
79.9943
  0
LINE
  8
0
 10
-31.6666
 20
79.9943
 11
-31.4141
 21
80.1456
  0
LINE
  8
0
 10
-31.4141
 20
80.1456
 11
-31.148
 21
80.2715
  0
LINE
  8
0
 10
-31.148
 20
80.2715
 11
-30.8708
 21
80.3707
  0
LINE
  8
0
 10
-30.8708
 20
80.3707
 11
-30.5852
 21
80.4422
  0
LINE
  8
0
 10
-30.5852
 20
80.4422
 11
-30.294
 21
80.4854
  0
LINE
  8
0
 10
-30.294
 20
80.4854
 11
-30
 21
80.4998
  0
LINE
  8
0
 10
-30
 20
80.4998
 11
-29.7059
 21
80.4854
  0
LINE
  8
0
 10
-29.7059
 20
80.4854
 11
-29.4147
 21
80.4422
  0
LINE
  8
0
 10
-29.4147
 20
80.4422
 11
-29.1292
 21
80.3707
  0
LINE
  8
0
 10
-29.1292
 20
80.3707
 11
-28.852
 21
80.2715
  0
LINE
  8
0
 10
-28.852
 20
80.2715
 11
-28.5859
 21
80.1456
  0
LINE
  8
0
 10
-28.5859
 20
80.1456
 11
-28.3333
 21
79.9943
  0
LINE
  8
0
 10
-28.3333
 20
79.9943
 11
-28.0969
 21
79.8189
  0
LINE
  8
0
 10
-28.0969
 20
79.8189
 11
-27.8788
 21
79.6212
  0
LINE
  8
0
 10
-27.8788
 20
79.6212
 11
-27.6811
 21
79.4031
  0
LINE
  8
0
 10
-27.6811
 20
79.4031
 11
-27.5057
 21
79.1666
  0
LINE
  8
0
 10
-27.5057
 20
79.1666
 11
-27.3544
 21
78.9141
  0
LINE
  8
0
 10
-27.3544
 20
78.9141
 11
-27.2285
 21
78.648
  0
LINE
  8
0
 10
-27.2285
 20
78.648
 11
-27.1293
 21
78.3708
  0
LINE
  8
0
 10
-27.1293
 20
78.3708
 11
-27.0578
 21
78.0852
  0
LINE
  8
0
 10
-27.0578
 20
78.0852
 11
-27.0146
 21
77.794
  0
LINE
  8
0
 10
-27.0146
 20
77.794
 11
-27.0001
 21
77.5
  0
LINE
  8
0
 10
-27.0001
 20
77.5
 11
-27.0146
 21
77.2059
  0
LINE
  8
0
 10
-27.0146
 20
77.2059
 11
-27.0578
 21
76.9147
  0
LINE
  8
0
 10
-27.0578
 20
76.9147
 11
-27.1293
 21
76.6292
  0
LINE
  8
0
 10
-27.1293
 20
76.6292
 11
-27.2285
 21
76.352
  0
LINE
  8
0
 10
-27.2285
 20
76.352
 11
-27.3544
 21
76.0859
  0
LINE
  8
0
 10
-27.3544
 20
76.0859
 11
-27.5057
 21
75.8333
  0
LINE
  8
0
 10
-27.5057
 20
75.8333
 11
-27.6811
 21
75.5969
  0
LINE
  8
0
 10
-27.6811
 20
75.5969
 11
-27.8788
 21
75.3788
  0
LINE
  8
0
 10
-27.8788
 20
75.3788
 11
-28.0969
 21
75.1811
  0
LINE
  8
0
 10
-28.0969
 20
75.1811
 11
-28.3333
 21
75.0057
  0
LINE
  8
0
 10
-28.3333
 20
75.0057
 11
-28.5859
 21
74.8544
  0
LINE
  8
0
 10
-28.5859
 20
74.8544
 11
-28.852
 21
74.7285
  0
LINE
  8
0
 10
-28.852
 20
74.7285
 11
-29.1292
 21
74.6293
  0
LINE
  8
0
 10
-29.1292
 20
74.6293
 11
-29.4148
 21
74.5578
  0
LINE
  8
0
 10
-29.4148
 20
74.5578
 11
-29.7059
 21
74.5146
  0
LINE
  8
0
 10
-29.7059
 20
74.5146
 11
-30
 21
74.5002
  0
LINE
  8
0
 10
-30
 20
74.5002
 11
-30.294
 21
74.5146
  0
LINE
  8
0
 10
29.7059
 20
74.5146
 11
29.4147
 21
74.5578
  0
LINE
  8
0
 10
29.4147
 20
74.5578
 11
29.1292
 21
74.6293
  0
LINE
  8
0
 10
29.1292
 20
74.6293
 11
28.852
 21
74.7285
  0
LINE
  8
0
 10
28.852
 20
74.7285
 11
28.5859
 21
74.8544
  0
LINE
  8
0
 10
28.5859
 20
74.8544
 11
28.3334
 21
75.0057
  0
LINE
  8
0
 10
28.3334
 20
75.0057
 11
28.0969
 21
75.1811
  0
LINE
  8
0
 10
28.0969
 20
75.1811
 11
27.8788
 21
75.3788
  0
LINE
  8
0
 10
27.8788
 20
75.3788
 11
27.6811
 21
75.5969
  0
LINE
  8
0
 10
27.6811
 20
75.5969
 11
27.5057
 21
75.8334
  0
LINE
  8
0
 10
27.5057
 20
75.8334
 11
27.3544
 21
76.0859
  0
LINE
  8
0
 10
27.3544
 20
76.0859
 11
27.2285
 21
76.352
  0
LINE
  8
0
 10
27.2285
 20
76.352
 11
27.1293
 21
76.6292
  0
LINE
  8
0
 10
27.1293
 20
76.6292
 11
27.0578
 21
76.9148
  0
LINE
  8
0
 10
27.0578
 20
76.9148
 11
27.0146
 21
77.2059
  0
LINE
  8
0
 10
27.0146
 20
77.2059
 11
27.0001
 21
77.5
  0
LINE
  8
0
 10
27.0001
 20
77.5
 11
27.0146
 21
77.7941
  0
LINE
  8
0
 10
27.0146
 20
77.7941
 11
27.0578
 21
78.0853
  0
LINE
  8
0
 10
27.0578
 20
78.0853
 11
27.1293
 21
78.3708
  0
LINE
  8
0
 10
27.1293
 20
78.3708
 11
27.2285
 21
78.648
  0
LINE
  8
0
 10
27.2285
 20
78.648
 11
27.3544
 21
78.9141
  0
LINE
  8
0
 10
27.3544
 20
78.9141
 11
27.5057
 21
79.1666
  0
LINE
  8
0
 10
27.5057
 20
79.1666
 11
27.6811
 21
79.4031
  0
LINE
  8
0
 10
27.6811
 20
79.4031
 11
27.8788
 21
79.6212
  0
LINE
  8
0
 10
27.8788
 20
79.6212
 11
28.0969
 21
79.8189
  0
LINE
  8
0
 10
28.0969
 20
79.8189
 11
28.3334
 21
79.9943
  0
LINE
  8
0
 10
28.3334
 20
79.9943
 11
28.5859
 21
80.1456
  0
LINE
  8
0
 10
28.5859
 20
80.1456
 11
28.852
 21
80.2715
  0
LINE
  8
0
 10
28.852
 20
80.2715
 11
29.1292
 21
80.3707
  0
LINE
  8
0
 10
29.1292
 20
80.3707
 11
29.4148
 21
80.4422
  0
LINE
  8
0
 10
29.4148
 20
80.4422
 11
29.706
 21
80.4854
  0
LINE
  8
0
 10
29.706
 20
80.4854
 11
30
 21
80.4998
  0
LINE
  8
0
 10
30
 20
80.4998
 11
30.2941
 21
80.4854
  0
LINE
  8
0
 10
30.2941
 20
80.4854
 11
30.5853
 21
80.4422
  0
LINE
  8
0
 10
30.5853
 20
80.4422
 11
30.8708
 21
80.3707
  0
LINE
  8
0
 10
30.8708
 20
80.3707
 11
31.148
 21
80.2715
  0
LINE
  8
0
 10
31.148
 20
80.2715
 11
31.4141
 21
80.1456
  0
LINE
  8
0
 10
31.4141
 20
80.1456
 11
31.6666
 21
79.9943
  0
LINE
  8
0
 10
31.6666
 20
79.9943
 11
31.9031
 21
79.8189
  0
LINE
  8
0
 10
31.9031
 20
79.8189
 11
32.1212
 21
79.6212
  0
LINE
  8
0
 10
32.1212
 20
79.6212
 11
32.3189
 21
79.4031
  0
LINE
  8
0
 10
32.3189
 20
79.4031
 11
32.4943
 21
79.1666
  0
LINE
  8
0
 10
32.4943
 20
79.1666
 11
32.6456
 21
78.9141
  0
LINE
  8
0
 10
32.6456
 20
78.9141
 11
32.7715
 21
78.648
  0
LINE
  8
0
 10
32.7715
 20
78.648
 11
32.8707
 21
78.3708
  0
LINE
  8
0
 10
32.8707
 20
78.3708
 11
32.9422
 21
78.0852
  0
LINE
  8
0
 10
32.9422
 20
78.0852
 11
32.9854
 21
77.794
  0
LINE
  8
0
 10
32.9854
 20
77.794
 11
32.9999
 21
77.5
  0
LINE
  8
0
 10
32.9999
 20
77.5
 11
32.9854
 21
77.2059
  0
LINE
  8
0
 10
32.9854
 20
77.2059
 11
32.9422
 21
76.9147
  0
LINE
  8
0
 10
32.9422
 20
76.9147
 11
32.8707
 21
76.6292
  0
LINE
  8
0
 10
32.8707
 20
76.6292
 11
32.7715
 21
76.352
  0
LINE
  8
0
 10
32.7715
 20
76.352
 11
32.6456
 21
76.0859
  0
LINE
  8
0
 10
32.6456
 20
76.0859
 11
32.4943
 21
75.8333
  0
LINE
  8
0
 10
32.4943
 20
75.8333
 11
32.3189
 21
75.5969
  0
LINE
  8
0
 10
32.3189
 20
75.5969
 11
32.1212
 21
75.3788
  0
LINE
  8
0
 10
32.1212
 20
75.3788
 11
31.9031
 21
75.1811
  0
LINE
  8
0
 10
31.9031
 20
75.1811
 11
31.6666
 21
75.0057
  0
LINE
  8
0
 10
31.6666
 20
75.0057
 11
31.4141
 21
74.8544
  0
LINE
  8
0
 10
31.4141
 20
74.8544
 11
31.148
 21
74.7285
  0
LINE
  8
0
 10
31.148
 20
74.7285
 11
30.8708
 21
74.6293
  0
LINE
  8
0
 10
30.8708
 20
74.6293
 11
30.5852
 21
74.5578
  0
LINE
  8
0
 10
30.5852
 20
74.5578
 11
30.294
 21
74.5146
  0
LINE
  8
0
 10
30.294
 20
74.5146
 11
30
 21
74.5002
  0
LINE
  8
0
 10
30
 20
74.5002
 11
29.7059
 21
74.5146
  0
LINE
  8
0
 10
31.5002
 20
72.9999
 11
35.9997
 21
75.9996
  0
LINE
  8
0
 10
35.9997
 20
75.9996
 11
31.5002
 21
61.001
  0
LINE
  8
0
 10
31.5002
 20
61.001
 11
31.5002
 21
72.9999
  0
LINE
  8
0
 10
9.00024
 20
75.9996
 11
13.4998
 21
72.9999
  0
LINE
  8
0
 10
13.4998
 20
72.9999
 11
13.4998
 21
61.001
  0
LINE
  8
0
 10
13.4998
 20
61.001
 11
9.00024
 21
75.9996
  0
LINE
  8
0
 10
16.5002
 20
72.9999
 11
20.9997
 21
75.9996
  0
LINE
  8
0
 10
20.9997
 20
75.9996
 11
16.5002
 21
61.001
  0
LINE
  8
0
 10
16.5002
 20
61.001
 11
16.5002
 21
72.9999
  0
LINE
  8
0
 10
1.50015
 20
72.9999
 11
5.99974
 21
75.9996
  0
LINE
  8
0
 10
5.99974
 20
75.9996
 11
1.50015
 21
61.001
  0
LINE
  8
0
 10
1.50015
 20
61.001
 11
1.50015
 21
72.9999
  0
LINE
  8
0
 10
-5.99974
 20
75.9996
 11
-1.50015
 21
72.9999
  0
LINE
  8
0
 10
-1.50015
 20
72.9999
 11
-1.50015
 21
61.001
  0
LINE
  8
0
 10
-1.50015
 20
61.001
 11
-5.99974
 21
75.9996
  0
LINE
  8
0
 10
-13.4998
 20
72.9999
 11
-9.00024
 21
75.9996
  0
LINE
  8
0
 10
-9.00024
 20
75.9996
 11
-13.4998
 21
61.001
  0
LINE
  8
0
 10
-13.4998
 20
61.001
 11
-13.4998
 21
72.9999
  0
LINE
  8
0
 10
-35.9997
 20
75.9996
 11
-31.5002
 21
72.9999
  0
LINE
  8
0
 10
-31.5002
 20
72.9999
 11
-31.5002
 21
61.001
  0
LINE
  8
0
 10
-31.5002
 20
61.001
 11
-35.9997
 21
75.9996
  0
LINE
  8
0
 10
-28.4998
 20
72.9999
 11
-24.0002
 21
75.9996
  0
LINE
  8
0
 10
-24.0002
 20
75.9996
 11
-28.4998
 21
61.001
  0
LINE
  8
0
 10
-28.4998
 20
61.001
 11
-28.4998
 21
72.9999
  0
LINE
  8
0
 10
24.0002
 20
75.9996
 11
28.4998
 21
72.9999
  0
LINE
  8
0
 10
28.4998
 20
72.9999
 11
28.4998
 21
61.001
  0
LINE
  8
0
 10
28.4998
 20
61.001
 11
24.0002
 21
75.9996
  0
LINE
  8
0
 10
-20.9997
 20
75.9996
 11
-16.5002
 21
72.9999
  0
LINE
  8
0
 10
-16.5002
 20
72.9999
 11
-16.5002
 21
61.001
  0
LINE
  8
0
 10
-16.5002
 20
61.001
 11
-20.9997
 21
75.9996
  0
LINE
  8
0
 10
-5.99982
 20
55
 11
-3.75
 21
61.2455
  0
LINE
  8
0
 10
-3.75
 20
61.2455
 11
-3.12512
 21
59.6024
  0
LINE
  8
0
 10
-3.12512
 20
59.6024
 11
-2.50012
 21
58.254
  0
LINE
  8
0
 10
-2.50012
 20
58.254
 11
-1.87511
 21
57.2007
  0
LINE
  8
0
 10
-1.87511
 20
57.2007
 11
-1.25011
 21
56.4425
  0
LINE
  8
0
 10
-1.25011
 20
56.4425
 11
-0.625046
 21
55.9794
  0
LINE
  8
0
 10
-0.625046
 20
55.9794
 11
0
 21
55.8113
  0
LINE
  8
0
 10
0
 20
55.8113
 11
0.625076
 21
55.9384
  0
LINE
  8
0
 10
0.625076
 20
55.9384
 11
1.25011
 21
56.3605
  0
LINE
  8
0
 10
1.25011
 20
56.3605
 11
1.87511
 21
57.0778
  0
LINE
  8
0
 10
1.87511
 20
57.0778
 11
2.50014
 21
58.0901
  0
LINE
  8
0
 10
2.50014
 20
58.0901
 11
3.12515
 21
59.3975
  0
LINE
  8
0
 10
3.12515
 20
59.3975
 11
3.75
 21
60.9996
  0
LINE
  8
0
 10
3.75
 20
60.9996
 11
5.99982
 21
55
  0
LINE
  8
0
 10
5.99982
 20
55
 11
3.75
 21
49.0004
  0
LINE
  8
0
 10
3.75
 20
49.0004
 11
3.12515
 21
50.6025
  0
LINE
  8
0
 10
3.12515
 20
50.6025
 11
2.50014
 21
51.9099
  0
LINE
  8
0
 10
2.50014
 20
51.9099
 11
1.87511
 21
52.9222
  0
LINE
  8
0
 10
1.87511
 20
52.9222
 11
1.25011
 21
53.6395
  0
LINE
  8
0
 10
1.25011
 20
53.6395
 11
0.625076
 21
54.0616
  0
LINE
  8
0
 10
0.625076
 20
54.0616
 11
0
 21
54.1887
  0
LINE
  8
0
 10
0
 20
54.1887
 11
-0.625046
 21
54.0206
  0
LINE
  8
0
 10
-0.625046
 20
54.0206
 11
-1.25011
 21
53.5575
  0
LINE
  8
0
 10
-1.25011
 20
53.5575
 11
-1.87511
 21
52.7993
  0
LINE
  8
0
 10
-1.87511
 20
52.7993
 11
-2.50012
 21
51.746
  0
LINE
  8
0
 10
-2.50012
 20
51.746
 11
-3.12512
 21
50.3976
  0
LINE
  8
0
 10
-3.12512
 20
50.3976
 11
-3.75
 21
48.7545
  0
LINE
  8
0
 10
-3.75
 20
48.7545
 11
-5.99982
 21
55
  0
LINE
  8
0
 10
18.1251
 20
50.3976
 11
17.5001
 21
51.746
  0
LINE
  8
0
 10
17.5001
 20
51.746
 11
16.8751
 21
52.7993
  0
LINE
  8
0
 10
16.8751
 20
52.7993
 11
16.2501
 21
53.5575
  0
LINE
  8
0
 10
16.2501
 20
53.5575
 11
15.625
 21
54.0206
  0
LINE
  8
0
 10
15.625
 20
54.0206
 11
15
 21
54.1887
  0
LINE
  8
0
 10
15
 20
54.1887
 11
14.3749
 21
54.0616
  0
LINE
  8
0
 10
14.3749
 20
54.0616
 11
13.7499
 21
53.6395
  0
LINE
  8
0
 10
13.7499
 20
53.6395
 11
13.1249
 21
52.9222
  0
LINE
  8
0
 10
13.1249
 20
52.9222
 11
12.4998
 21
51.9099
  0
LINE
  8
0
 10
12.4998
 20
51.9099
 11
11.8748
 21
50.6025
  0
LINE
  8
0
 10
11.8748
 20
50.6025
 11
11.25
 21
49.0004
  0
LINE
  8
0
 10
11.25
 20
49.0004
 11
9.00018
 21
55
  0
LINE
  8
0
 10
9.00018
 20
55
 11
11.25
 21
60.9996
  0
LINE
  8
0
 10
11.25
 20
60.9996
 11
11.8748
 21
59.3975
  0
LINE
  8
0
 10
11.8748
 20
59.3975
 11
12.4998
 21
58.0901
  0
LINE
  8
0
 10
12.4998
 20
58.0901
 11
13.1249
 21
57.0778
  0
LINE
  8
0
 10
13.1249
 20
57.0778
 11
13.7499
 21
56.3605
  0
LINE
  8
0
 10
13.7499
 20
56.3605
 11
14.3749
 21
55.9384
  0
LINE
  8
0
 10
14.3749
 20
55.9384
 11
15
 21
55.8113
  0
LINE
  8
0
 10
15
 20
55.8113
 11
15.625
 21
55.9794
  0
LINE
  8
0
 10
15.625
 20
55.9794
 11
16.2501
 21
56.4425
  0
LINE
  8
0
 10
16.2501
 20
56.4425
 11
16.8751
 21
57.2007
  0
LINE
  8
0
 10
16.8751
 20
57.2007
 11
17.5001
 21
58.254
  0
LINE
  8
0
 10
17.5001
 20
58.254
 11
18.1251
 21
59.6024
  0
LINE
  8
0
 10
18.1251
 20
59.6024
 11
18.75
 21
61.2455
  0
LINE
  8
0
 10
18.75
 20
61.2455
 11
20.9998
 21
55
  0
LINE
  8
0
 10
20.9998
 20
55
 11
18.75
 21
48.7545
  0
LINE
  8
0
 10
18.75
 20
48.7545
 11
18.1251
 21
50.3976
  0
LINE
  8
0
 10
24.0002
 20
55
 11
26.25
 21
61.2455
  0
LINE
  8
0
 10
26.25
 20
61.2455
 11
26.8749
 21
59.6024
  0
LINE
  8
0
 10
26.8749
 20
59.6024
 11
27.4999
 21
58.254
  0
LINE
  8
0
 10
27.4999
 20
58.254
 11
28.1249
 21
57.2007
  0
LINE
  8
0
 10
28.1249
 20
57.2007
 11
28.7499
 21
56.4425
  0
LINE
  8
0
 10
28.7499
 20
56.4425
 11
29.3749
 21
55.9794
  0
LINE
  8
0
 10
29.3749
 20
55.9794
 11
30
 21
55.8113
  0
LINE
  8
0
 10
30
 20
55.8113
 11
30.6251
 21
55.9384
  0
LINE
  8
0
 10
30.6251
 20
55.9384
 11
31.2501
 21
56.3605
  0
LINE
  8
0
 10
31.2501
 20
56.3605
 11
31.8751
 21
57.0778
  0
LINE
  8
0
 10
31.8751
 20
57.0778
 11
32.5001
 21
58.0901
  0
LINE
  8
0
 10
32.5001
 20
58.0901
 11
33.1252
 21
59.3975
  0
LINE
  8
0
 10
33.1252
 20
59.3975
 11
33.75
 21
60.9996
  0
LINE
  8
0
 10
33.75
 20
60.9996
 11
35.9998
 21
55
  0
LINE
  8
0
 10
35.9998
 20
55
 11
33.75
 21
49.0004
  0
LINE
  8
0
 10
33.75
 20
49.0004
 11
33.1252
 21
50.6025
  0
LINE
  8
0
 10
33.1252
 20
50.6025
 11
32.5001
 21
51.9099
  0
LINE
  8
0
 10
32.5001
 20
51.9099
 11
31.8751
 21
52.9222
  0
LINE
  8
0
 10
31.8751
 20
52.9222
 11
31.2501
 21
53.6395
  0
LINE
  8
0
 10
31.2501
 20
53.6395
 11
30.6251
 21
54.0616
  0
LINE
  8
0
 10
30.6251
 20
54.0616
 11
30
 21
54.1887
  0
LINE
  8
0
 10
30
 20
54.1887
 11
29.3749
 21
54.0206
  0
LINE
  8
0
 10
29.3749
 20
54.0206
 11
28.7499
 21
53.5575
  0
LINE
  8
0
 10
28.7499
 20
53.5575
 11
28.1249
 21
52.7993
  0
LINE
  8
0
 10
28.1249
 20
52.7993
 11
27.4999
 21
51.746
  0
LINE
  8
0
 10
27.4999
 20
51.746
 11
26.8749
 21
50.3976
  0
LINE
  8
0
 10
26.8749
 20
50.3976
 11
26.25
 21
48.7545
  0
LINE
  8
0
 10
26.25
 20
48.7545
 11
24.0002
 21
55
  0
LINE
  8
0
 10
-41.8749
 20
50.3976
 11
-42.4999
 21
51.746
  0
LINE
  8
0
 10
-42.4999
 20
51.746
 11
-43.1249
 21
52.7993
  0
LINE
  8
0
 10
-43.1249
 20
52.7993
 11
-43.7499
 21
53.5575
  0
LINE
  8
0
 10
-43.7499
 20
53.5575
 11
-44.3749
 21
54.0206
  0
LINE
  8
0
 10
-44.3749
 20
54.0206
 11
-44.7935
 21
54.1332
  0
LINE
  8
0
 10
-44.7935
 20
54.1332
 11
-44.1362
 21
56.1563
  0
LINE
  8
0
 10
-44.1362
 20
56.1563
 11
-43.7499
 21
56.4425
  0
LINE
  8
0
 10
-43.7499
 20
56.4425
 11
-43.1249
 21
57.2007
  0
LINE
  8
0
 10
-43.1249
 20
57.2007
 11
-42.4999
 21
58.254
  0
LINE
  8
0
 10
-42.4999
 20
58.254
 11
-41.8749
 21
59.6024
  0
LINE
  8
0
 10
-41.8749
 20
59.6024
 11
-41.25
 21
61.2455
  0
LINE
  8
0
 10
-41.25
 20
61.2455
 11
-39.0002
 21
55
  0
LINE
  8
0
 10
-39.0002
 20
55
 11
-41.25
 21
48.7545
  0
LINE
  8
0
 10
-41.25
 20
48.7545
 11
-41.8749
 21
50.3976
  0
LINE
  8
0
 10
-11.8749
 20
50.3976
 11
-12.4999
 21
51.746
  0
LINE
  8
0
 10
-12.4999
 20
51.746
 11
-13.1249
 21
52.7993
  0
LINE
  8
0
 10
-13.1249
 20
52.7993
 11
-13.7499
 21
53.5575
  0
LINE
  8
0
 10
-13.7499
 20
53.5575
 11
-14.3749
 21
54.0206
  0
LINE
  8
0
 10
-14.3749
 20
54.0206
 11
-15
 21
54.1887
  0
LINE
  8
0
 10
-15
 20
54.1887
 11
-15.6251
 21
54.0616
  0
LINE
  8
0
 10
-15.6251
 20
54.0616
 11
-16.2501
 21
53.6395
  0
LINE
  8
0
 10
-16.2501
 20
53.6395
 11
-16.8751
 21
52.9222
  0
LINE
  8
0
 10
-16.8751
 20
52.9222
 11
-17.5001
 21
51.9099
  0
LINE
  8
0
 10
-17.5001
 20
51.9099
 11
-18.1252
 21
50.6025
  0
LINE
  8
0
 10
-18.1252
 20
50.6025
 11
-18.75
 21
49.0004
  0
LINE
  8
0
 10
-18.75
 20
49.0004
 11
-20.9998
 21
55
  0
LINE
  8
0
 10
-20.9998
 20
55
 11
-18.75
 21
60.9996
  0
LINE
  8
0
 10
-18.75
 20
60.9996
 11
-18.1252
 21
59.3975
  0
LINE
  8
0
 10
-18.1252
 20
59.3975
 11
-17.5001
 21
58.0901
  0
LINE
  8
0
 10
-17.5001
 20
58.0901
 11
-16.8751
 21
57.0778
  0
LINE
  8
0
 10
-16.8751
 20
57.0778
 11
-16.2501
 21
56.3605
  0
LINE
  8
0
 10
-16.2501
 20
56.3605
 11
-15.6251
 21
55.9384
  0
LINE
  8
0
 10
-15.6251
 20
55.9384
 11
-15
 21
55.8113
  0
LINE
  8
0
 10
-15
 20
55.8113
 11
-14.3749
 21
55.9794
  0
LINE
  8
0
 10
-14.3749
 20
55.9794
 11
-13.7499
 21
56.4425
  0
LINE
  8
0
 10
-13.7499
 20
56.4425
 11
-13.1249
 21
57.2007
  0
LINE
  8
0
 10
-13.1249
 20
57.2007
 11
-12.4999
 21
58.254
  0
LINE
  8
0
 10
-12.4999
 20
58.254
 11
-11.8749
 21
59.6024
  0
LINE
  8
0
 10
-11.8749
 20
59.6024
 11
-11.25
 21
61.2455
  0
LINE
  8
0
 10
-11.25
 20
61.2455
 11
-9.00018
 21
55
  0
LINE
  8
0
 10
-9.00018
 20
55
 11
-11.25
 21
48.7545
  0
LINE
  8
0
 10
-11.25
 20
48.7545
 11
-11.8749
 21
50.3976
  0
LINE
  8
0
 10
-35.9998
 20
55
 11
-33.75
 21
61.2455
  0
LINE
  8
0
 10
-33.75
 20
61.2455
 11
-33.1251
 21
59.6024
  0
LINE
  8
0
 10
-33.1251
 20
59.6024
 11
-32.5001
 21
58.254
  0
LINE
  8
0
 10
-32.5001
 20
58.254
 11
-31.8751
 21
57.2007
  0
LINE
  8
0
 10
-31.8751
 20
57.2007
 11
-31.2501
 21
56.4425
  0
LINE
  8
0
 10
-31.2501
 20
56.4425
 11
-30.625
 21
55.9794
  0
LINE
  8
0
 10
-30.625
 20
55.9794
 11
-30
 21
55.8113
  0
LINE
  8
0
 10
-30
 20
55.8113
 11
-29.3749
 21
55.9384
  0
LINE
  8
0
 10
-29.3749
 20
55.9384
 11
-28.7499
 21
56.3605
  0
LINE
  8
0
 10
-28.7499
 20
56.3605
 11
-28.1249
 21
57.0778
  0
LINE
  8
0
 10
-28.1249
 20
57.0778
 11
-27.4998
 21
58.0901
  0
LINE
  8
0
 10
-27.4998
 20
58.0901
 11
-26.8748
 21
59.3975
  0
LINE
  8
0
 10
-26.8748
 20
59.3975
 11
-26.25
 21
60.9996
  0
LINE
  8
0
 10
-26.25
 20
60.9996
 11
-24.0002
 21
55
  0
LINE
  8
0
 10
-24.0002
 20
55
 11
-26.25
 21
49.0004
  0
LINE
  8
0
 10
-26.25
 20
49.0004
 11
-26.8748
 21
50.6025
  0
LINE
  8
0
 10
-26.8748
 20
50.6025
 11
-27.4998
 21
51.9099
  0
LINE
  8
0
 10
-27.4998
 20
51.9099
 11
-28.1249
 21
52.9222
  0
LINE
  8
0
 10
-28.1249
 20
52.9222
 11
-28.7499
 21
53.6395
  0
LINE
  8
0
 10
-28.7499
 20
53.6395
 11
-29.3749
 21
54.0616
  0
LINE
  8
0
 10
-29.3749
 20
54.0616
 11
-30
 21
54.1887
  0
LINE
  8
0
 10
-30
 20
54.1887
 11
-30.625
 21
54.0206
  0
LINE
  8
0
 10
-30.625
 20
54.0206
 11
-31.2501
 21
53.5575
  0
LINE
  8
0
 10
-31.2501
 20
53.5575
 11
-31.8751
 21
52.7993
  0
LINE
  8
0
 10
-31.8751
 20
52.7993
 11
-32.5001
 21
51.746
  0
LINE
  8
0
 10
-32.5001
 20
51.746
 11
-33.1251
 21
50.3976
  0
LINE
  8
0
 10
-33.1251
 20
50.3976
 11
-33.75
 21
48.7545
  0
LINE
  8
0
 10
-33.75
 20
48.7545
 11
-35.9998
 21
55
  0
LINE
  8
0
 10
39.0002
 20
55
 11
41.25
 21
60.9996
  0
LINE
  8
0
 10
41.25
 20
60.9996
 11
41.8748
 21
59.3975
  0
LINE
  8
0
 10
41.8748
 20
59.3975
 11
42.4998
 21
58.0901
  0
LINE
  8
0
 10
42.4998
 20
58.0901
 11
43.1249
 21
57.0778
  0
LINE
  8
0
 10
43.1249
 20
57.0778
 11
43.7499
 21
56.3605
  0
LINE
  8
0
 10
43.7499
 20
56.3605
 11
44.1598
 21
56.0837
  0
LINE
  8
0
 10
44.1598
 20
56.0837
 11
44.7894
 21
54.1459
  0
LINE
  8
0
 10
44.7894
 20
54.1459
 11
44.3749
 21
54.0616
  0
LINE
  8
0
 10
44.3749
 20
54.0616
 11
43.7499
 21
53.6395
  0
LINE
  8
0
 10
43.7499
 20
53.6395
 11
43.1249
 21
52.9222
  0
LINE
  8
0
 10
43.1249
 20
52.9222
 11
42.4998
 21
51.9099
  0
LINE
  8
0
 10
42.4998
 20
51.9099
 11
41.8748
 21
50.6025
  0
LINE
  8
0
 10
41.8748
 20
50.6025
 11
41.25
 21
49.0004
  0
LINE
  8
0
 10
41.25
 20
49.0004
 11
39.0002
 21
55
  0
LINE
  8
0
 10
16.5002
 20
37.0001
 11
16.5002
 21
48.999
  0
LINE
  8
0
 10
16.5002
 20
48.999
 11
20.9997
 21
34.0003
  0
LINE
  8
0
 10
20.9997
 20
34.0003
 11
16.5002
 21
37.0001
  0
LINE
  8
0
 10
13.4998
 20
48.999
 11
13.4998
 21
37.0001
  0
LINE
  8
0
 10
13.4998
 20
37.0001
 11
9.00024
 21
34.0003
  0
LINE
  8
0
 10
9.00024
 20
34.0003
 11
13.4998
 21
48.999
  0
LINE
  8
0
 10
-43.4998
 20
37.0001
 11
-43.4998
 21
48.999
  0
LINE
  8
0
 10
-43.4998
 20
48.999
 11
-39.0002
 21
34.0003
  0
LINE
  8
0
 10
-39.0002
 20
34.0003
 11
-43.4998
 21
37.0001
  0
LINE
  8
0
 10
1.50015
 20
37.0001
 11
1.50015
 21
48.999
  0
LINE
  8
0
 10
1.50015
 20
48.999
 11
5.99974
 21
34.0003
  0
LINE
  8
0
 10
5.99974
 20
34.0003
 11
1.50015
 21
37.0001
  0
LINE
  8
0
 10
-1.50015
 20
48.999
 11
-1.50015
 21
37.0001
  0
LINE
  8
0
 10
-1.50015
 20
37.0001
 11
-5.99974
 21
34.0003
  0
LINE
  8
0
 10
-5.99974
 20
34.0003
 11
-1.50015
 21
48.999
  0
LINE
  8
0
 10
43.4998
 20
48.999
 11
43.4998
 21
37.0001
  0
LINE
  8
0
 10
43.4998
 20
37.0001
 11
39.0002
 21
34.0003
  0
LINE
  8
0
 10
39.0002
 20
34.0003
 11
43.4998
 21
48.999
  0
LINE
  8
0
 10
31.5002
 20
37.0001
 11
31.5002
 21
48.999
  0
LINE
  8
0
 10
31.5002
 20
48.999
 11
35.9997
 21
34.0003
  0
LINE
  8
0
 10
35.9997
 20
34.0003
 11
31.5002
 21
37.0001
  0
LINE
  8
0
 10
28.4998
 20
48.999
 11
28.4998
 21
37.0001
  0
LINE
  8
0
 10
28.4998
 20
37.0001
 11
24.0002
 21
34.0003
  0
LINE
  8
0
 10
24.0002
 20
34.0003
 11
28.4998
 21
48.999
  0
LINE
  8
0
 10
-28.4998
 20
37.0001
 11
-28.4998
 21
48.999
  0
LINE
  8
0
 10
-28.4998
 20
48.999
 11
-24.0002
 21
34.0003
  0
LINE
  8
0
 10
-24.0002
 20
34.0003
 11
-28.4998
 21
37.0001
  0
LINE
  8
0
 10
-31.5002
 20
48.999
 11
-31.5002
 21
37.0001
  0
LINE
  8
0
 10
-31.5002
 20
37.0001
 11
-35.9997
 21
34.0003
  0
LINE
  8
0
 10
-35.9997
 20
34.0003
 11
-31.5002
 21
48.999
  0
LINE
  8
0
 10
-13.4998
 20
37.0001
 11
-13.4998
 21
48.999
  0
LINE
  8
0
 10
-13.4998
 20
48.999
 11
-9.00024
 21
34.0003
  0
LINE
  8
0
 10
-9.00024
 20
34.0003
 11
-13.4998
 21
37.0001
  0
LINE
  8
0
 10
-16.5002
 20
48.999
 11
-16.5002
 21
37.0001
  0
LINE
  8
0
 10
-16.5002
 20
37.0001
 11
-20.9997
 21
34.0003
  0
LINE
  8
0
 10
-20.9997
 20
34.0003
 11
-16.5002
 21
48.999
  0
LINE
  8
0
 10
46.5002
 20
37.0001
 11
46.5002
 21
48.8807
  0
LINE
  8
0
 10
46.5002
 20
48.8807
 11
46.9628
 21
47.4568
  0
LINE
  8
0
 10
46.9628
 20
47.4568
 11
50.9997
 21
34.0003
  0
LINE
  8
0
 10
50.9997
 20
34.0003
 11
46.5002
 21
37.0001
  0
LINE
  8
0
 10
-46.9628
 20
47.4568
 11
-46.5002
 21
48.8807
  0
LINE
  8
0
 10
-46.5002
 20
48.8807
 11
-46.5002
 21
37.0001
  0
LINE
  8
0
 10
-46.5002
 20
37.0001
 11
-50.9997
 21
34.0003
  0
LINE
  8
0
 10
-50.9997
 20
34.0003
 11
-46.9628
 21
47.4568
  0
LINE
  8
0
 10
44.7059
 20
29.5146
 11
44.4147
 21
29.5578
  0
LINE
  8
0
 10
44.4147
 20
29.5578
 11
44.1292
 21
29.6293
  0
LINE
  8
0
 10
44.1292
 20
29.6293
 11
43.852
 21
29.7285
  0
LINE
  8
0
 10
43.852
 20
29.7285
 11
43.5859
 21
29.8544
  0
LINE
  8
0
 10
43.5859
 20
29.8544
 11
43.3333
 21
30.0057
  0
LINE
  8
0
 10
43.3333
 20
30.0057
 11
43.0969
 21
30.1811
  0
LINE
  8
0
 10
43.0969
 20
30.1811
 11
42.8788
 21
30.3788
  0
LINE
  8
0
 10
42.8788
 20
30.3788
 11
42.6811
 21
30.5969
  0
LINE
  8
0
 10
42.6811
 20
30.5969
 11
42.5057
 21
30.8334
  0
LINE
  8
0
 10
42.5057
 20
30.8334
 11
42.3544
 21
31.0859
  0
LINE
  8
0
 10
42.3544
 20
31.0859
 11
42.2285
 21
31.352
  0
LINE
  8
0
 10
42.2285
 20
31.352
 11
42.1293
 21
31.6292
  0
LINE
  8
0
 10
42.1293
 20
31.6292
 11
42.0578
 21
31.9148
  0
LINE
  8
0
 10
42.0578
 20
31.9148
 11
42.0146
 21
32.2059
  0
LINE
  8
0
 10
42.0146
 20
32.2059
 11
42.0001
 21
32.5
  0
LINE
  8
0
 10
42.0001
 20
32.5
 11
42.0146
 21
32.7941
  0
LINE
  8
0
 10
42.0146
 20
32.7941
 11
42.0578
 21
33.0853
  0
LINE
  8
0
 10
42.0578
 20
33.0853
 11
42.1293
 21
33.3708
  0
LINE
  8
0
 10
42.1293
 20
33.3708
 11
42.2285
 21
33.648
  0
LINE
  8
0
 10
42.2285
 20
33.648
 11
42.3544
 21
33.9141
  0
LINE
  8
0
 10
42.3544
 20
33.9141
 11
42.5057
 21
34.1666
  0
LINE
  8
0
 10
42.5057
 20
34.1666
 11
42.6811
 21
34.4031
  0
LINE
  8
0
 10
42.6811
 20
34.4031
 11
42.8788
 21
34.6212
  0
LINE
  8
0
 10
42.8788
 20
34.6212
 11
43.0969
 21
34.8189
  0
LINE
  8
0
 10
43.0969
 20
34.8189
 11
43.3333
 21
34.9943
  0
LINE
  8
0
 10
43.3333
 20
34.9943
 11
43.5859
 21
35.1456
  0
LINE
  8
0
 10
43.5859
 20
35.1456
 11
43.852
 21
35.2715
  0
LINE
  8
0
 10
43.852
 20
35.2715
 11
44.1292
 21
35.3707
  0
LINE
  8
0
 10
44.1292
 20
35.3707
 11
44.4148
 21
35.4422
  0
LINE
  8
0
 10
44.4148
 20
35.4422
 11
44.7059
 21
35.4854
  0
LINE
  8
0
 10
44.7059
 20
35.4854
 11
45
 21
35.4998
  0
LINE
  8
0
 10
45
 20
35.4998
 11
45.294
 21
35.4854
  0
LINE
  8
0
 10
45.294
 20
35.4854
 11
45.5853
 21
35.4422
  0
LINE
  8
0
 10
45.5853
 20
35.4422
 11
45.8708
 21
35.3707
  0
LINE
  8
0
 10
45.8708
 20
35.3707
 11
46.148
 21
35.2715
  0
LINE
  8
0
 10
46.148
 20
35.2715
 11
46.4141
 21
35.1456
  0
LINE
  8
0
 10
46.4141
 20
35.1456
 11
46.6666
 21
34.9943
  0
LINE
  8
0
 10
46.6666
 20
34.9943
 11
46.9031
 21
34.8189
  0
LINE
  8
0
 10
46.9031
 20
34.8189
 11
47.1212
 21
34.6212
  0
LINE
  8
0
 10
47.1212
 20
34.6212
 11
47.3189
 21
34.4031
  0
LINE
  8
0
 10
47.3189
 20
34.4031
 11
47.4943
 21
34.1666
  0
LINE
  8
0
 10
47.4943
 20
34.1666
 11
47.6456
 21
33.9141
  0
LINE
  8
0
 10
47.6456
 20
33.9141
 11
47.7715
 21
33.648
  0
LINE
  8
0
 10
47.7715
 20
33.648
 11
47.8707
 21
33.3708
  0
LINE
  8
0
 10
47.8707
 20
33.3708
 11
47.9422
 21
33.0852
  0
LINE
  8
0
 10
47.9422
 20
33.0852
 11
47.9854
 21
32.794
  0
LINE
  8
0
 10
47.9854
 20
32.794
 11
47.9999
 21
32.5
  0
LINE
  8
0
 10
47.9999
 20
32.5
 11
47.9854
 21
32.2059
  0
LINE
  8
0
 10
47.9854
 20
32.2059
 11
47.9422
 21
31.9147
  0
LINE
  8
0
 10
47.9422
 20
31.9147
 11
47.8707
 21
31.6292
  0
LINE
  8
0
 10
47.8707
 20
31.6292
 11
47.7715
 21
31.352
  0
LINE
  8
0
 10
47.7715
 20
31.352
 11
47.6456
 21
31.0859
  0
LINE
  8
0
 10
47.6456
 20
31.0859
 11
47.4943
 21
30.8333
  0
LINE
  8
0
 10
47.4943
 20
30.8333
 11
47.3189
 21
30.5969
  0
LINE
  8
0
 10
47.3189
 20
30.5969
 11
47.1212
 21
30.3788
  0
LINE
  8
0
 10
47.1212
 20
30.3788
 11
46.9031
 21
30.1811
  0
LINE
  8
0
 10
46.9031
 20
30.1811
 11
46.6666
 21
30.0057
  0
LINE
  8
0
 10
46.6666
 20
30.0057
 11
46.4141
 21
29.8544
  0
LINE
  8
0
 10
46.4141
 20
29.8544
 11
46.148
 21
29.7285
  0
LINE
  8
0
 10
46.148
 20
29.7285
 11
45.8708
 21
29.6293
  0
LINE
  8
0
 10
45.8708
 20
29.6293
 11
45.5852
 21
29.5578
  0
LINE
  8
0
 10
45.5852
 20
29.5578
 11
45.294
 21
29.5146
  0
LINE
  8
0
 10
45.294
 20
29.5146
 11
45
 21
29.5002
  0
LINE
  8
0
 10
45
 20
29.5002
 11
44.7059
 21
29.5146
  0
LINE
  8
0
 10
-45.2941
 20
29.5146
 11
-45.5853
 21
29.5578
  0
LINE
  8
0
 10
-45.5853
 20
29.5578
 11
-45.8708
 21
29.6293
  0
LINE
  8
0
 10
-45.8708
 20
29.6293
 11
-46.148
 21
29.7285
  0
LINE
  8
0
 10
-46.148
 20
29.7285
 11
-46.4141
 21
29.8544
  0
LINE
  8
0
 10
-46.4141
 20
29.8544
 11
-46.6666
 21
30.0057
  0
LINE
  8
0
 10
-46.6666
 20
30.0057
 11
-46.9031
 21
30.1811
  0
LINE
  8
0
 10
-46.9031
 20
30.1811
 11
-47.1212
 21
30.3788
  0
LINE
  8
0
 10
-47.1212
 20
30.3788
 11
-47.3189
 21
30.5969
  0
LINE
  8
0
 10
-47.3189
 20
30.5969
 11
-47.4943
 21
30.8334
  0
LINE
  8
0
 10
-47.4943
 20
30.8334
 11
-47.6456
 21
31.0859
  0
LINE
  8
0
 10
-47.6456
 20
31.0859
 11
-47.7715
 21
31.352
  0
LINE
  8
0
 10
-47.7715
 20
31.352
 11
-47.8707
 21
31.6292
  0
LINE
  8
0
 10
-47.8707
 20
31.6292
 11
-47.9422
 21
31.9148
  0
LINE
  8
0
 10
-47.9422
 20
31.9148
 11
-47.9854
 21
32.2059
  0
LINE
  8
0
 10
-47.9854
 20
32.2059
 11
-47.9999
 21
32.5
  0
LINE
  8
0
 10
-47.9999
 20
32.5
 11
-47.9854
 21
32.7941
  0
LINE
  8
0
 10
-47.9854
 20
32.7941
 11
-47.9422
 21
33.0853
  0
LINE
  8
0
 10
-47.9422
 20
33.0853
 11
-47.8707
 21
33.3708
  0
LINE
  8
0
 10
-47.8707
 20
33.3708
 11
-47.7715
 21
33.648
  0
LINE
  8
0
 10
-47.7715
 20
33.648
 11
-47.6456
 21
33.9141
  0
LINE
  8
0
 10
-47.6456
 20
33.9141
 11
-47.4943
 21
34.1666
  0
LINE
  8
0
 10
-47.4943
 20
34.1666
 11
-47.3189
 21
34.4031
  0
LINE
  8
0
 10
-47.3189
 20
34.4031
 11
-47.1212
 21
34.6212
  0
LINE
  8
0
 10
-47.1212
 20
34.6212
 11
-46.9031
 21
34.8189
  0
LINE
  8
0
 10
-46.9031
 20
34.8189
 11
-46.6666
 21
34.9943
  0
LINE
  8
0
 10
-46.6666
 20
34.9943
 11
-46.4141
 21
35.1456
  0
LINE
  8
0
 10
-46.4141
 20
35.1456
 11
-46.148
 21
35.2715
  0
LINE
  8
0
 10
-46.148
 20
35.2715
 11
-45.8708
 21
35.3707
  0
LINE
  8
0
 10
-45.8708
 20
35.3707
 11
-45.5852
 21
35.4422
  0
LINE
  8
0
 10
-45.5852
 20
35.4422
 11
-45.294
 21
35.4854
  0
LINE
  8
0
 10
-45.294
 20
35.4854
 11
-45
 21
35.4998
  0
LINE
  8
0
 10
-45
 20
35.4998
 11
-44.7059
 21
35.4854
  0
LINE
  8
0
 10
-44.7059
 20
35.4854
 11
-44.4147
 21
35.4422
  0
LINE
  8
0
 10
-44.4147
 20
35.4422
 11
-44.1292
 21
35.3707
  0
LINE
  8
0
 10
-44.1292
 20
35.3707
 11
-43.852
 21
35.2715
  0
LINE
  8
0
 10
-43.852
 20
35.2715
 11
-43.5859
 21
35.1456
  0
LINE
  8
0
 10
-43.5859
 20
35.1456
 11
-43.3334
 21
34.9943
  0
LINE
  8
0
 10
-43.3334
 20
34.9943
 11
-43.0969
 21
34.8189
  0
LINE
  8
0
 10
-43.0969
 20
34.8189
 11
-42.8788
 21
34.6212
  0
LINE
  8
0
 10
-42.8788
 20
34.6212
 11
-42.6811
 21
34.4031
  0
LINE
  8
0
 10
-42.6811
 20
34.4031
 11
-42.5057
 21
34.1666
  0
LINE
  8
0
 10
-42.5057
 20
34.1666
 11
-42.3544
 21
33.9141
  0
LINE
  8
0
 10
-42.3544
 20
33.9141
 11
-42.2285
 21
33.648
  0
LINE
  8
0
 10
-42.2285
 20
33.648
 11
-42.1293
 21
33.3708
  0
LINE
  8
0
 10
-42.1293
 20
33.3708
 11
-42.0578
 21
33.0852
  0
LINE
  8
0
 10
-42.0578
 20
33.0852
 11
-42.0146
 21
32.794
  0
LINE
  8
0
 10
-42.0146
 20
32.794
 11
-42.0001
 21
32.5
  0
LINE
  8
0
 10
-42.0001
 20
32.5
 11
-42.0146
 21
32.2059
  0
LINE
  8
0
 10
-42.0146
 20
32.2059
 11
-42.0578
 21
31.9147
  0
LINE
  8
0
 10
-42.0578
 20
31.9147
 11
-42.1293
 21
31.6292
  0
LINE
  8
0
 10
-42.1293
 20
31.6292
 11
-42.2285
 21
31.352
  0
LINE
  8
0
 10
-42.2285
 20
31.352
 11
-42.3544
 21
31.0859
  0
LINE
  8
0
 10
-42.3544
 20
31.0859
 11
-42.5057
 21
30.8333
  0
LINE
  8
0
 10
-42.5057
 20
30.8333
 11
-42.6811
 21
30.5969
  0
LINE
  8
0
 10
-42.6811
 20
30.5969
 11
-42.8788
 21
30.3788
  0
LINE
  8
0
 10
-42.8788
 20
30.3788
 11
-43.0969
 21
30.1811
  0
LINE
  8
0
 10
-43.0969
 20
30.1811
 11
-43.3334
 21
30.0057
  0
LINE
  8
0
 10
-43.3334
 20
30.0057
 11
-43.5859
 21
29.8544
  0
LINE
  8
0
 10
-43.5859
 20
29.8544
 11
-43.852
 21
29.7285
  0
LINE
  8
0
 10
-43.852
 20
29.7285
 11
-44.1292
 21
29.6293
  0
LINE
  8
0
 10
-44.1292
 20
29.6293
 11
-44.4148
 21
29.5578
  0
LINE
  8
0
 10
-44.4148
 20
29.5578
 11
-44.706
 21
29.5146
  0
LINE
  8
0
 10
-44.706
 20
29.5146
 11
-45
 21
29.5002
  0
LINE
  8
0
 10
-45
 20
29.5002
 11
-45.2941
 21
29.5146
  0
LINE
  8
0
 10
14.7059
 20
29.5146
 11
14.4147
 21
29.5578
  0
LINE
  8
0
 10
14.4147
 20
29.5578
 11
14.1292
 21
29.6293
  0
LINE
  8
0
 10
14.1292
 20
29.6293
 11
13.852
 21
29.7285
  0
LINE
  8
0
 10
13.852
 20
29.7285
 11
13.5859
 21
29.8544
  0
LINE
  8
0
 10
13.5859
 20
29.8544
 11
13.3333
 21
30.0057
  0
LINE
  8
0
 10
13.3333
 20
30.0057
 11
13.0969
 21
30.1811
  0
LINE
  8
0
 10
13.0969
 20
30.1811
 11
12.8788
 21
30.3788
  0
LINE
  8
0
 10
12.8788
 20
30.3788
 11
12.6811
 21
30.5969
  0
LINE
  8
0
 10
12.6811
 20
30.5969
 11
12.5057
 21
30.8334
  0
LINE
  8
0
 10
12.5057
 20
30.8334
 11
12.3544
 21
31.0859
  0
LINE
  8
0
 10
12.3544
 20
31.0859
 11
12.2285
 21
31.352
  0
LINE
  8
0
 10
12.2285
 20
31.352
 11
12.1293
 21
31.6292
  0
LINE
  8
0
 10
12.1293
 20
31.6292
 11
12.0578
 21
31.9148
  0
LINE
  8
0
 10
12.0578
 20
31.9148
 11
12.0146
 21
32.2059
  0
LINE
  8
0
 10
12.0146
 20
32.2059
 11
12.0001
 21
32.5
  0
LINE
  8
0
 10
12.0001
 20
32.5
 11
12.0146
 21
32.7941
  0
LINE
  8
0
 10
12.0146
 20
32.7941
 11
12.0578
 21
33.0853
  0
LINE
  8
0
 10
12.0578
 20
33.0853
 11
12.1293
 21
33.3708
  0
LINE
  8
0
 10
12.1293
 20
33.3708
 11
12.2285
 21
33.648
  0
LINE
  8
0
 10
12.2285
 20
33.648
 11
12.3544
 21
33.9141
  0
LINE
  8
0
 10
12.3544
 20
33.9141
 11
12.5057
 21
34.1666
  0
LINE
  8
0
 10
12.5057
 20
34.1666
 11
12.6811
 21
34.4031
  0
LINE
  8
0
 10
12.6811
 20
34.4031
 11
12.8788
 21
34.6212
  0
LINE
  8
0
 10
12.8788
 20
34.6212
 11
13.0969
 21
34.8189
  0
LINE
  8
0
 10
13.0969
 20
34.8189
 11
13.3333
 21
34.9943
  0
LINE
  8
0
 10
13.3333
 20
34.9943
 11
13.5859
 21
35.1456
  0
LINE
  8
0
 10
13.5859
 20
35.1456
 11
13.852
 21
35.2715
  0
LINE
  8
0
 10
13.852
 20
35.2715
 11
14.1292
 21
35.3707
  0
LINE
  8
0
 10
14.1292
 20
35.3707
 11
14.4148
 21
35.4422
  0
LINE
  8
0
 10
14.4148
 20
35.4422
 11
14.7059
 21
35.4854
  0
LINE
  8
0
 10
14.7059
 20
35.4854
 11
15
 21
35.4998
  0
LINE
  8
0
 10
15
 20
35.4998
 11
15.294
 21
35.4854
  0
LINE
  8
0
 10
15.294
 20
35.4854
 11
15.5853
 21
35.4422
  0
LINE
  8
0
 10
15.5853
 20
35.4422
 11
15.8708
 21
35.3707
  0
LINE
  8
0
 10
15.8708
 20
35.3707
 11
16.148
 21
35.2715
  0
LINE
  8
0
 10
16.148
 20
35.2715
 11
16.4141
 21
35.1456
  0
LINE
  8
0
 10
16.4141
 20
35.1456
 11
16.6666
 21
34.9943
  0
LINE
  8
0
 10
16.6666
 20
34.9943
 11
16.9031
 21
34.8189
  0
LINE
  8
0
 10
16.9031
 20
34.8189
 11
17.1212
 21
34.6212
  0
LINE
  8
0
 10
17.1212
 20
34.6212
 11
17.3189
 21
34.4031
  0
LINE
  8
0
 10
17.3189
 20
34.4031
 11
17.4943
 21
34.1666
  0
LINE
  8
0
 10
17.4943
 20
34.1666
 11
17.6456
 21
33.9141
  0
LINE
  8
0
 10
17.6456
 20
33.9141
 11
17.7715
 21
33.648
  0
LINE
  8
0
 10
17.7715
 20
33.648
 11
17.8707
 21
33.3708
  0
LINE
  8
0
 10
17.8707
 20
33.3708
 11
17.9422
 21
33.0852
  0
LINE
  8
0
 10
17.9422
 20
33.0852
 11
17.9854
 21
32.794
  0
LINE
  8
0
 10
17.9854
 20
32.794
 11
17.9999
 21
32.5
  0
LINE
  8
0
 10
17.9999
 20
32.5
 11
17.9854
 21
32.2059
  0
LINE
  8
0
 10
17.9854
 20
32.2059
 11
17.9422
 21
31.9147
  0
LINE
  8
0
 10
17.9422
 20
31.9147
 11
17.8707
 21
31.6292
  0
LINE
  8
0
 10
17.8707
 20
31.6292
 11
17.7715
 21
31.352
  0
LINE
  8
0
 10
17.7715
 20
31.352
 11
17.6456
 21
31.0859
  0
LINE
  8
0
 10
17.6456
 20
31.0859
 11
17.4943
 21
30.8333
  0
LINE
  8
0
 10
17.4943
 20
30.8333
 11
17.3189
 21
30.5969
  0
LINE
  8
0
 10
17.3189
 20
30.5969
 11
17.1212
 21
30.3788
  0
LINE
  8
0
 10
17.1212
 20
30.3788
 11
16.9031
 21
30.1811
  0
LINE
  8
0
 10
16.9031
 20
30.1811
 11
16.6666
 21
30.0057
  0
LINE
  8
0
 10
16.6666
 20
30.0057
 11
16.4141
 21
29.8544
  0
LINE
  8
0
 10
16.4141
 20
29.8544
 11
16.148
 21
29.7285
  0
LINE
  8
0
 10
16.148
 20
29.7285
 11
15.8708
 21
29.6293
  0
LINE
  8
0
 10
15.8708
 20
29.6293
 11
15.5852
 21
29.5578
  0
LINE
  8
0
 10
15.5852
 20
29.5578
 11
15.294
 21
29.5146
  0
LINE
  8
0
 10
15.294
 20
29.5146
 11
15
 21
29.5002
  0
LINE
  8
0
 10
15
 20
29.5002
 11
14.7059
 21
29.5146
  0
LINE
  8
0
 10
-15.2941
 20
29.5146
 11
-15.5853
 21
29.5578
  0
LINE
  8
0
 10
-15.5853
 20
29.5578
 11
-15.8708
 21
29.6293
  0
LINE
  8
0
 10
-15.8708
 20
29.6293
 11
-16.148
 21
29.7285
  0
LINE
  8
0
 10
-16.148
 20
29.7285
 11
-16.4141
 21
29.8544
  0
LINE
  8
0
 10
-16.4141
 20
29.8544
 11
-16.6666
 21
30.0057
  0
LINE
  8
0
 10
-16.6666
 20
30.0057
 11
-16.9031
 21
30.1811
  0
LINE
  8
0
 10
-16.9031
 20
30.1811
 11
-17.1212
 21
30.3788
  0
LINE
  8
0
 10
-17.1212
 20
30.3788
 11
-17.3189
 21
30.5969
  0
LINE
  8
0
 10
-17.3189
 20
30.5969
 11
-17.4943
 21
30.8334
  0
LINE
  8
0
 10
-17.4943
 20
30.8334
 11
-17.6456
 21
31.0859
  0
LINE
  8
0
 10
-17.6456
 20
31.0859
 11
-17.7715
 21
31.352
  0
LINE
  8
0
 10
-17.7715
 20
31.352
 11
-17.8707
 21
31.6292
  0
LINE
  8
0
 10
-17.8707
 20
31.6292
 11
-17.9422
 21
31.9148
  0
LINE
  8
0
 10
-17.9422
 20
31.9148
 11
-17.9854
 21
32.2059
  0
LINE
  8
0
 10
-17.9854
 20
32.2059
 11
-17.9999
 21
32.5
  0
LINE
  8
0
 10
-17.9999
 20
32.5
 11
-17.9854
 21
32.7941
  0
LINE
  8
0
 10
-17.9854
 20
32.7941
 11
-17.9422
 21
33.0853
  0
LINE
  8
0
 10
-17.9422
 20
33.0853
 11
-17.8707
 21
33.3708
  0
LINE
  8
0
 10
-17.8707
 20
33.3708
 11
-17.7715
 21
33.648
  0
LINE
  8
0
 10
-17.7715
 20
33.648
 11
-17.6456
 21
33.9141
  0
LINE
  8
0
 10
-17.6456
 20
33.9141
 11
-17.4943
 21
34.1666
  0
LINE
  8
0
 10
-17.4943
 20
34.1666
 11
-17.3189
 21
34.4031
  0
LINE
  8
0
 10
-17.3189
 20
34.4031
 11
-17.1212
 21
34.6212
  0
LINE
  8
0
 10
-17.1212
 20
34.6212
 11
-16.9031
 21
34.8189
  0
LINE
  8
0
 10
-16.9031
 20
34.8189
 11
-16.6666
 21
34.9943
  0
LINE
  8
0
 10
-16.6666
 20
34.9943
 11
-16.4141
 21
35.1456
  0
LINE
  8
0
 10
-16.4141
 20
35.1456
 11
-16.148
 21
35.2715
  0
LINE
  8
0
 10
-16.148
 20
35.2715
 11
-15.8708
 21
35.3707
  0
LINE
  8
0
 10
-15.8708
 20
35.3707
 11
-15.5852
 21
35.4422
  0
LINE
  8
0
 10
-15.5852
 20
35.4422
 11
-15.294
 21
35.4854
  0
LINE
  8
0
 10
-15.294
 20
35.4854
 11
-15
 21
35.4998
  0
LINE
  8
0
 10
-15
 20
35.4998
 11
-14.7059
 21
35.4854
  0
LINE
  8
0
 10
-14.7059
 20
35.4854
 11
-14.4147
 21
35.4422
  0
LINE
  8
0
 10
-14.4147
 20
35.4422
 11
-14.1292
 21
35.3707
  0
LINE
  8
0
 10
-14.1292
 20
35.3707
 11
-13.852
 21
35.2715
  0
LINE
  8
0
 10
-13.852
 20
35.2715
 11
-13.5859
 21
35.1456
  0
LINE
  8
0
 10
-13.5859
 20
35.1456
 11
-13.3334
 21
34.9943
  0
LINE
  8
0
 10
-13.3334
 20
34.9943
 11
-13.0969
 21
34.8189
  0
LINE
  8
0
 10
-13.0969
 20
34.8189
 11
-12.8788
 21
34.6212
  0
LINE
  8
0
 10
-12.8788
 20
34.6212
 11
-12.6811
 21
34.4031
  0
LINE
  8
0
 10
-12.6811
 20
34.4031
 11
-12.5057
 21
34.1666
  0
LINE
  8
0
 10
-12.5057
 20
34.1666
 11
-12.3544
 21
33.9141
  0
LINE
  8
0
 10
-12.3544
 20
33.9141
 11
-12.2285
 21
33.648
  0
LINE
  8
0
 10
-12.2285
 20
33.648
 11
-12.1293
 21
33.3708
  0
LINE
  8
0
 10
-12.1293
 20
33.3708
 11
-12.0578
 21
33.0852
  0
LINE
  8
0
 10
-12.0578
 20
33.0852
 11
-12.0146
 21
32.794
  0
LINE
  8
0
 10
-12.0146
 20
32.794
 11
-12.0001
 21
32.5
  0
LINE
  8
0
 10
-12.0001
 20
32.5
 11
-12.0146
 21
32.2059
  0
LINE
  8
0
 10
-12.0146
 20
32.2059
 11
-12.0578
 21
31.9147
  0
LINE
  8
0
 10
-12.0578
 20
31.9147
 11
-12.1293
 21
31.6292
  0
LINE
  8
0
 10
-12.1293
 20
31.6292
 11
-12.2285
 21
31.352
  0
LINE
  8
0
 10
-12.2285
 20
31.352
 11
-12.3544
 21
31.0859
  0
LINE
  8
0
 10
-12.3544
 20
31.0859
 11
-12.5057
 21
30.8333
  0
LINE
  8
0
 10
-12.5057
 20
30.8333
 11
-12.6811
 21
30.5969
  0
LINE
  8
0
 10
-12.6811
 20
30.5969
 11
-12.8788
 21
30.3788
  0
LINE
  8
0
 10
-12.8788
 20
30.3788
 11
-13.0969
 21
30.1811
  0
LINE
  8
0
 10
-13.0969
 20
30.1811
 11
-13.3334
 21
30.0057
  0
LINE
  8
0
 10
-13.3334
 20
30.0057
 11
-13.5859
 21
29.8544
  0
LINE
  8
0
 10
-13.5859
 20
29.8544
 11
-13.852
 21
29.7285
  0
LINE
  8
0
 10
-13.852
 20
29.7285
 11
-14.1292
 21
29.6293
  0
LINE
  8
0
 10
-14.1292
 20
29.6293
 11
-14.4148
 21
29.5578
  0
LINE
  8
0
 10
-14.4148
 20
29.5578
 11
-14.706
 21
29.5146
  0
LINE
  8
0
 10
-14.706
 20
29.5146
 11
-15
 21
29.5002
  0
LINE
  8
0
 10
-15
 20
29.5002
 11
-15.2941
 21
29.5146
  0
LINE
  8
0
 10
-0.294037
 20
29.5146
 11
-0.585251
 21
29.5578
  0
LINE
  8
0
 10
-0.585251
 20
29.5578
 11
-0.870804
 21
29.6293
  0
LINE
  8
0
 10
-0.870804
 20
29.6293
 11
-1.14798
 21
29.7285
  0
LINE
  8
0
 10
-1.14798
 20
29.7285
 11
-1.41409
 21
29.8544
  0
LINE
  8
0
 10
-1.41409
 20
29.8544
 11
-1.66663
 21
30.0057
  0
LINE
  8
0
 10
-1.66663
 20
30.0057
 11
-1.90308
 21
30.1811
  0
LINE
  8
0
 10
-1.90308
 20
30.1811
 11
-2.1212
 21
30.3788
  0
LINE
  8
0
 10
-2.1212
 20
30.3788
 11
-2.31891
 21
30.5969
  0
LINE
  8
0
 10
-2.31891
 20
30.5969
 11
-2.49428
 21
30.8334
  0
LINE
  8
0
 10
-2.49428
 20
30.8334
 11
-2.64561
 21
31.0859
  0
LINE
  8
0
 10
-2.64561
 20
31.0859
 11
-2.77148
 21
31.352
  0
LINE
  8
0
 10
-2.77148
 20
31.352
 11
-2.87068
 21
31.6292
  0
LINE
  8
0
 10
-2.87068
 20
31.6292
 11
-2.9422
 21
31.9148
  0
LINE
  8
0
 10
-2.9422
 20
31.9148
 11
-2.9854
 21
32.2059
  0
LINE
  8
0
 10
-2.9854
 20
32.2059
 11
-2.99986
 21
32.5
  0
LINE
  8
0
 10
-2.99986
 20
32.5
 11
-2.98537
 21
32.7941
  0
LINE
  8
0
 10
-2.98537
 20
32.7941
 11
-2.94218
 21
33.0853
  0
LINE
  8
0
 10
-2.94218
 20
33.0853
 11
-2.87068
 21
33.3708
  0
LINE
  8
0
 10
-2.87068
 20
33.3708
 11
-2.77148
 21
33.648
  0
LINE
  8
0
 10
-2.77148
 20
33.648
 11
-2.64561
 21
33.9141
  0
LINE
  8
0
 10
-2.64561
 20
33.9141
 11
-2.49428
 21
34.1666
  0
LINE
  8
0
 10
-2.49428
 20
34.1666
 11
-2.31891
 21
34.4031
  0
LINE
  8
0
 10
-2.31891
 20
34.4031
 11
-2.1212
 21
34.6212
  0
LINE
  8
0
 10
-2.1212
 20
34.6212
 11
-1.90308
 21
34.8189
  0
LINE
  8
0
 10
-1.90308
 20
34.8189
 11
-1.66663
 21
34.9943
  0
LINE
  8
0
 10
-1.66663
 20
34.9943
 11
-1.41409
 21
35.1456
  0
LINE
  8
0
 10
-1.41409
 20
35.1456
 11
-1.14798
 21
35.2715
  0
LINE
  8
0
 10
-1.14798
 20
35.2715
 11
-0.870804
 21
35.3707
  0
LINE
  8
0
 10
-0.870804
 20
35.3707
 11
-0.585205
 21
35.4422
  0
LINE
  8
0
 10
-0.585205
 20
35.4422
 11
-0.294022
 21
35.4854
  0
LINE
  8
0
 10
-0.294022
 20
35.4854
 11
0
 21
35.4998
  0
LINE
  8
0
 10
0
 20
35.4998
 11
0.294067
 21
35.4854
  0
LINE
  8
0
 10
0.294067
 20
35.4854
 11
0.585266
 21
35.4422
  0
LINE
  8
0
 10
0.585266
 20
35.4422
 11
0.870819
 21
35.3707
  0
LINE
  8
0
 10
0.870819
 20
35.3707
 11
1.14799
 21
35.2715
  0
LINE
  8
0
 10
1.14799
 20
35.2715
 11
1.41412
 21
35.1456
  0
LINE
  8
0
 10
1.41412
 20
35.1456
 11
1.66664
 21
34.9943
  0
LINE
  8
0
 10
1.66664
 20
34.9943
 11
1.90311
 21
34.8189
  0
LINE
  8
0
 10
1.90311
 20
34.8189
 11
2.12123
 21
34.6212
  0
LINE
  8
0
 10
2.12123
 20
34.6212
 11
2.31894
 21
34.4031
  0
LINE
  8
0
 10
2.31894
 20
34.4031
 11
2.49431
 21
34.1666
  0
LINE
  8
0
 10
2.49431
 20
34.1666
 11
2.64565
 21
33.9141
  0
LINE
  8
0
 10
2.64565
 20
33.9141
 11
2.7715
 21
33.648
  0
LINE
  8
0
 10
2.7715
 20
33.648
 11
2.8707
 21
33.3708
  0
LINE
  8
0
 10
2.8707
 20
33.3708
 11
2.94223
 21
33.0852
  0
LINE
  8
0
 10
2.94223
 20
33.0852
 11
2.98541
 21
32.794
  0
LINE
  8
0
 10
2.98541
 20
32.794
 11
2.99986
 21
32.5
  0
LINE
  8
0
 10
2.99986
 20
32.5
 11
2.9854
 21
32.2059
  0
LINE
  8
0
 10
2.9854
 20
32.2059
 11
2.9422
 21
31.9147
  0
LINE
  8
0
 10
2.9422
 20
31.9147
 11
2.8707
 21
31.6292
  0
LINE
  8
0
 10
2.8707
 20
31.6292
 11
2.7715
 21
31.352
  0
LINE
  8
0
 10
2.7715
 20
31.352
 11
2.64565
 21
31.0859
  0
LINE
  8
0
 10
2.64565
 20
31.0859
 11
2.49428
 21
30.8333
  0
LINE
  8
0
 10
2.49428
 20
30.8333
 11
2.31894
 21
30.5969
  0
LINE
  8
0
 10
2.31894
 20
30.5969
 11
2.1212
 21
30.3788
  0
LINE
  8
0
 10
2.1212
 20
30.3788
 11
1.90311
 21
30.1811
  0
LINE
  8
0
 10
1.90311
 20
30.1811
 11
1.66664
 21
30.0057
  0
LINE
  8
0
 10
1.66664
 20
30.0057
 11
1.41412
 21
29.8544
  0
LINE
  8
0
 10
1.41412
 20
29.8544
 11
1.14799
 21
29.7285
  0
LINE
  8
0
 10
1.14799
 20
29.7285
 11
0.870819
 21
29.6293
  0
LINE
  8
0
 10
0.870819
 20
29.6293
 11
0.58522
 21
29.5578
  0
LINE
  8
0
 10
0.58522
 20
29.5578
 11
0.294037
 21
29.5146
  0
LINE
  8
0
 10
0.294037
 20
29.5146
 11
0
 21
29.5002
  0
LINE
  8
0
 10
0
 20
29.5002
 11
-0.294037
 21
29.5146
  0
LINE
  8
0
 10
-30.294
 20
29.5146
 11
-30.5853
 21
29.5578
  0
LINE
  8
0
 10
-30.5853
 20
29.5578
 11
-30.8708
 21
29.6293
  0
LINE
  8
0
 10
-30.8708
 20
29.6293
 11
-31.148
 21
29.7285
  0
LINE
  8
0
 10
-31.148
 20
29.7285
 11
-31.4141
 21
29.8544
  0
LINE
  8
0
 10
-31.4141
 20
29.8544
 11
-31.6666
 21
30.0057
  0
LINE
  8
0
 10
-31.6666
 20
30.0057
 11
-31.9031
 21
30.1811
  0
LINE
  8
0
 10
-31.9031
 20
30.1811
 11
-32.1212
 21
30.3788
  0
LINE
  8
0
 10
-32.1212
 20
30.3788
 11
-32.3189
 21
30.5969
  0
LINE
  8
0
 10
-32.3189
 20
30.5969
 11
-32.4943
 21
30.8334
  0
LINE
  8
0
 10
-32.4943
 20
30.8334
 11
-32.6456
 21
31.0859
  0
LINE
  8
0
 10
-32.6456
 20
31.0859
 11
-32.7715
 21
31.352
  0
LINE
  8
0
 10
-32.7715
 20
31.352
 11
-32.8707
 21
31.6292
  0
LINE
  8
0
 10
-32.8707
 20
31.6292
 11
-32.9422
 21
31.9148
  0
LINE
  8
0
 10
-32.9422
 20
31.9148
 11
-32.9854
 21
32.2059
  0
LINE
  8
0
 10
-32.9854
 20
32.2059
 11
-32.9999
 21
32.5
  0
LINE
  8
0
 10
-32.9999
 20
32.5
 11
-32.9854
 21
32.7941
  0
LINE
  8
0
 10
-32.9854
 20
32.7941
 11
-32.9422
 21
33.0853
  0
LINE
  8
0
 10
-32.9422
 20
33.0853
 11
-32.8707
 21
33.3708
  0
LINE
  8
0
 10
-32.8707
 20
33.3708
 11
-32.7715
 21
33.648
  0
LINE
  8
0
 10
-32.7715
 20
33.648
 11
-32.6456
 21
33.9141
  0
LINE
  8
0
 10
-32.6456
 20
33.9141
 11
-32.4943
 21
34.1666
  0
LINE
  8
0
 10
-32.4943
 20
34.1666
 11
-32.3189
 21
34.4031
  0
LINE
  8
0
 10
-32.3189
 20
34.4031
 11
-32.1212
 21
34.6212
  0
LINE
  8
0
 10
-32.1212
 20
34.6212
 11
-31.9031
 21
34.8189
  0
LINE
  8
0
 10
-31.9031
 20
34.8189
 11
-31.6666
 21
34.9943
  0
LINE
  8
0
 10
-31.6666
 20
34.9943
 11
-31.4141
 21
35.1456
  0
LINE
  8
0
 10
-31.4141
 20
35.1456
 11
-31.148
 21
35.2715
  0
LINE
  8
0
 10
-31.148
 20
35.2715
 11
-30.8708
 21
35.3707
  0
LINE
  8
0
 10
-30.8708
 20
35.3707
 11
-30.5852
 21
35.4422
  0
LINE
  8
0
 10
-30.5852
 20
35.4422
 11
-30.294
 21
35.4854
  0
LINE
  8
0
 10
-30.294
 20
35.4854
 11
-30
 21
35.4998
  0
LINE
  8
0
 10
-30
 20
35.4998
 11
-29.7059
 21
35.4854
  0
LINE
  8
0
 10
-29.7059
 20
35.4854
 11
-29.4147
 21
35.4422
  0
LINE
  8
0
 10
-29.4147
 20
35.4422
 11
-29.1292
 21
35.3707
  0
LINE
  8
0
 10
-29.1292
 20
35.3707
 11
-28.852
 21
35.2715
  0
LINE
  8
0
 10
-28.852
 20
35.2715
 11
-28.5859
 21
35.1456
  0
LINE
  8
0
 10
-28.5859
 20
35.1456
 11
-28.3333
 21
34.9943
  0
LINE
  8
0
 10
-28.3333
 20
34.9943
 11
-28.0969
 21
34.8189
  0
LINE
  8
0
 10
-28.0969
 20
34.8189
 11
-27.8788
 21
34.6212
  0
LINE
  8
0
 10
-27.8788
 20
34.6212
 11
-27.6811
 21
34.4031
  0
LINE
  8
0
 10
-27.6811
 20
34.4031
 11
-27.5057
 21
34.1666
  0
LINE
  8
0
 10
-27.5057
 20
34.1666
 11
-27.3544
 21
33.9141
  0
LINE
  8
0
 10
-27.3544
 20
33.9141
 11
-27.2285
 21
33.648
  0
LINE
  8
0
 10
-27.2285
 20
33.648
 11
-27.1293
 21
33.3708
  0
LINE
  8
0
 10
-27.1293
 20
33.3708
 11
-27.0578
 21
33.0852
  0
LINE
  8
0
 10
-27.0578
 20
33.0852
 11
-27.0146
 21
32.794
  0
LINE
  8
0
 10
-27.0146
 20
32.794
 11
-27.0001
 21
32.5
  0
LINE
  8
0
 10
-27.0001
 20
32.5
 11
-27.0146
 21
32.2059
  0
LINE
  8
0
 10
-27.0146
 20
32.2059
 11
-27.0578
 21
31.9147
  0
LINE
  8
0
 10
-27.0578
 20
31.9147
 11
-27.1293
 21
31.6292
  0
LINE
  8
0
 10
-27.1293
 20
31.6292
 11
-27.2285
 21
31.352
  0
LINE
  8
0
 10
-27.2285
 20
31.352
 11
-27.3544
 21
31.0859
  0
LINE
  8
0
 10
-27.3544
 20
31.0859
 11
-27.5057
 21
30.8333
  0
LINE
  8
0
 10
-27.5057
 20
30.8333
 11
-27.6811
 21
30.5969
  0
LINE
  8
0
 10
-27.6811
 20
30.5969
 11
-27.8788
 21
30.3788
  0
LINE
  8
0
 10
-27.8788
 20
30.3788
 11
-28.0969
 21
30.1811
  0
LINE
  8
0
 10
-28.0969
 20
30.1811
 11
-28.3333
 21
30.0057
  0
LINE
  8
0
 10
-28.3333
 20
30.0057
 11
-28.5859
 21
29.8544
  0
LINE
  8
0
 10
-28.5859
 20
29.8544
 11
-28.852
 21
29.7285
  0
LINE
  8
0
 10
-28.852
 20
29.7285
 11
-29.1292
 21
29.6293
  0
LINE
  8
0
 10
-29.1292
 20
29.6293
 11
-29.4148
 21
29.5578
  0
LINE
  8
0
 10
-29.4148
 20
29.5578
 11
-29.7059
 21
29.5146
  0
LINE
  8
0
 10
-29.7059
 20
29.5146
 11
-30
 21
29.5002
  0
LINE
  8
0
 10
-30
 20
29.5002
 11
-30.294
 21
29.5146
  0
LINE
  8
0
 10
29.7059
 20
29.5146
 11
29.4147
 21
29.5578
  0
LINE
  8
0
 10
29.4147
 20
29.5578
 11
29.1292
 21
29.6293
  0
LINE
  8
0
 10
29.1292
 20
29.6293
 11
28.852
 21
29.7285
  0
LINE
  8
0
 10
28.852
 20
29.7285
 11
28.5859
 21
29.8544
  0
LINE
  8
0
 10
28.5859
 20
29.8544
 11
28.3334
 21
30.0057
  0
LINE
  8
0
 10
28.3334
 20
30.0057
 11
28.0969
 21
30.1811
  0
LINE
  8
0
 10
28.0969
 20
30.1811
 11
27.8788
 21
30.3788
  0
LINE
  8
0
 10
27.8788
 20
30.3788
 11
27.6811
 21
30.5969
  0
LINE
  8
0
 10
27.6811
 20
30.5969
 11
27.5057
 21
30.8334
  0
LINE
  8
0
 10
27.5057
 20
30.8334
 11
27.3544
 21
31.0859
  0
LINE
  8
0
 10
27.3544
 20
31.0859
 11
27.2285
 21
31.352
  0
LINE
  8
0
 10
27.2285
 20
31.352
 11
27.1293
 21
31.6292
  0
LINE
  8
0
 10
27.1293
 20
31.6292
 11
27.0578
 21
31.9148
  0
LINE
  8
0
 10
27.0578
 20
31.9148
 11
27.0146
 21
32.2059
  0
LINE
  8
0
 10
27.0146
 20
32.2059
 11
27.0001
 21
32.5
  0
LINE
  8
0
 10
27.0001
 20
32.5
 11
27.0146
 21
32.7941
  0
LINE
  8
0
 10
27.0146
 20
32.7941
 11
27.0578
 21
33.0853
  0
LINE
  8
0
 10
27.0578
 20
33.0853
 11
27.1293
 21
33.3708
  0
LINE
  8
0
 10
27.1293
 20
33.3708
 11
27.2285
 21
33.648
  0
LINE
  8
0
 10
27.2285
 20
33.648
 11
27.3544
 21
33.9141
  0
LINE
  8
0
 10
27.3544
 20
33.9141
 11
27.5057
 21
34.1666
  0
LINE
  8
0
 10
27.5057
 20
34.1666
 11
27.6811
 21
34.4031
  0
LINE
  8
0
 10
27.6811
 20
34.4031
 11
27.8788
 21
34.6212
  0
LINE
  8
0
 10
27.8788
 20
34.6212
 11
28.0969
 21
34.8189
  0
LINE
  8
0
 10
28.0969
 20
34.8189
 11
28.3334
 21
34.9943
  0
LINE
  8
0
 10
28.3334
 20
34.9943
 11
28.5859
 21
35.1456
  0
LINE
  8
0
 10
28.5859
 20
35.1456
 11
28.852
 21
35.2715
  0
LINE
  8
0
 10
28.852
 20
35.2715
 11
29.1292
 21
35.3707
  0
LINE
  8
0
 10
29.1292
 20
35.3707
 11
29.4148
 21
35.4422
  0
LINE
  8
0
 10
29.4148
 20
35.4422
 11
29.706
 21
35.4854
  0
LINE
  8
0
 10
29.706
 20
35.4854
 11
30
 21
35.4998
  0
LINE
  8
0
 10
30
 20
35.4998
 11
30.2941
 21
35.4854
  0
LINE
  8
0
 10
30.2941
 20
35.4854
 11
30.5853
 21
35.4422
  0
LINE
  8
0
 10
30.5853
 20
35.4422
 11
30.8708
 21
35.3707
  0
LINE
  8
0
 10
30.8708
 20
35.3707
 11
31.148
 21
35.2715
  0
LINE
  8
0
 10
31.148
 20
35.2715
 11
31.4141
 21
35.1456
  0
LINE
  8
0
 10
31.4141
 20
35.1456
 11
31.6666
 21
34.9943
  0
LINE
  8
0
 10
31.6666
 20
34.9943
 11
31.9031
 21
34.8189
  0
LINE
  8
0
 10
31.9031
 20
34.8189
 11
32.1212
 21
34.6212
  0
LINE
  8
0
 10
32.1212
 20
34.6212
 11
32.3189
 21
34.4031
  0
LINE
  8
0
 10
32.3189
 20
34.4031
 11
32.4943
 21
34.1666
  0
LINE
  8
0
 10
32.4943
 20
34.1666
 11
32.6456
 21
33.9141
  0
LINE
  8
0
 10
32.6456
 20
33.9141
 11
32.7715
 21
33.648
  0
LINE
  8
0
 10
32.7715
 20
33.648
 11
32.8707
 21
33.3708
  0
LINE
  8
0
 10
32.8707
 20
33.3708
 11
32.9422
 21
33.0852
  0
LINE
  8
0
 10
32.9422
 20
33.0852
 11
32.9854
 21
32.794
  0
LINE
  8
0
 10
32.9854
 20
32.794
 11
32.9999
 21
32.5
  0
LINE
  8
0
 10
32.9999
 20
32.5
 11
32.9854
 21
32.2059
  0
LINE
  8
0
 10
32.9854
 20
32.2059
 11
32.9422
 21
31.9147
  0
LINE
  8
0
 10
32.9422
 20
31.9147
 11
32.8707
 21
31.6292
  0
LINE
  8
0
 10
32.8707
 20
31.6292
 11
32.7715
 21
31.352
  0
LINE
  8
0
 10
32.7715
 20
31.352
 11
32.6456
 21
31.0859
  0
LINE
  8
0
 10
32.6456
 20
31.0859
 11
32.4943
 21
30.8333
  0
LINE
  8
0
 10
32.4943
 20
30.8333
 11
32.3189
 21
30.5969
  0
LINE
  8
0
 10
32.3189
 20
30.5969
 11
32.1212
 21
30.3788
  0
LINE
  8
0
 10
32.1212
 20
30.3788
 11
31.9031
 21
30.1811
  0
LINE
  8
0
 10
31.9031
 20
30.1811
 11
31.6666
 21
30.0057
  0
LINE
  8
0
 10
31.6666
 20
30.0057
 11
31.4141
 21
29.8544
  0
LINE
  8
0
 10
31.4141
 20
29.8544
 11
31.148
 21
29.7285
  0
LINE
  8
0
 10
31.148
 20
29.7285
 11
30.8708
 21
29.6293
  0
LINE
  8
0
 10
30.8708
 20
29.6293
 11
30.5852
 21
29.5578
  0
LINE
  8
0
 10
30.5852
 20
29.5578
 11
30.294
 21
29.5146
  0
LINE
  8
0
 10
30.294
 20
29.5146
 11
30
 21
29.5002
  0
LINE
  8
0
 10
30
 20
29.5002
 11
29.7059
 21
29.5146
  0
LINE
  8
0
 10
-5.99974
 20
30.9996
 11
-1.50015
 21
27.9999
  0
LINE
  8
0
 10
-1.50015
 20
27.9999
 11
-1.50015
 21
16.001
  0
LINE
  8
0
 10
-1.50015
 20
16.001
 11
-5.99974
 21
30.9996
  0
LINE
  8
0
 10
-43.4998
 20
27.9999
 11
-39.0002
 21
30.9996
  0
LINE
  8
0
 10
-39.0002
 20
30.9996
 11
-43.4998
 21
16.001
  0
LINE
  8
0
 10
-43.4998
 20
16.001
 11
-43.4998
 21
27.9999
  0
LINE
  8
0
 10
-20.9997
 20
30.9996
 11
-16.5002
 21
27.9999
  0
LINE
  8
0
 10
-16.5002
 20
27.9999
 11
-16.5002
 21
16.001
  0
LINE
  8
0
 10
-16.5002
 20
16.001
 11
-20.9997
 21
30.9996
  0
LINE
  8
0
 10
-13.4998
 20
27.9999
 11
-9.00024
 21
30.9996
  0
LINE
  8
0
 10
-9.00024
 20
30.9996
 11
-13.4998
 21
16.001
  0
LINE
  8
0
 10
-13.4998
 20
16.001
 11
-13.4998
 21
27.9999
  0
LINE
  8
0
 10
-35.9997
 20
30.9996
 11
-31.5002
 21
27.9999
  0
LINE
  8
0
 10
-31.5002
 20
27.9999
 11
-31.5002
 21
16.001
  0
LINE
  8
0
 10
-31.5002
 20
16.001
 11
-35.9997
 21
30.9996
  0
LINE
  8
0
 10
-28.4998
 20
27.9999
 11
-24.0002
 21
30.9996
  0
LINE
  8
0
 10
-24.0002
 20
30.9996
 11
-28.4998
 21
16.001
  0
LINE
  8
0
 10
-28.4998
 20
16.001
 11
-28.4998
 21
27.9999
  0
LINE
  8
0
 10
9.00024
 20
30.9996
 11
13.4998
 21
27.9999
  0
LINE
  8
0
 10
13.4998
 20
27.9999
 11
13.4998
 21
16.001
  0
LINE
  8
0
 10
13.4998
 20
16.001
 11
9.00024
 21
30.9996
  0
LINE
  8
0
 10
16.5002
 20
27.9999
 11
20.9997
 21
30.9996
  0
LINE
  8
0
 10
20.9997
 20
30.9996
 11
16.5002
 21
16.001
  0
LINE
  8
0
 10
16.5002
 20
16.001
 11
16.5002
 21
27.9999
  0
LINE
  8
0
 10
-50.9997
 20
30.9996
 11
-46.5002
 21
27.9999
  0
LINE
  8
0
 10
-46.5002
 20
27.9999
 11
-46.5002
 21
16.001
  0
LINE
  8
0
 10
-46.5002
 20
16.001
 11
-50.9997
 21
30.9996
  0
LINE
  8
0
 10
39.0002
 20
30.9996
 11
43.4998
 21
27.9999
  0
LINE
  8
0
 10
43.4998
 20
27.9999
 11
43.4998
 21
16.001
  0
LINE
  8
0
 10
43.4998
 20
16.001
 11
39.0002
 21
30.9996
  0
LINE
  8
0
 10
46.5002
 20
27.9999
 11
50.9997
 21
30.9996
  0
LINE
  8
0
 10
50.9997
 20
30.9996
 11
46.5002
 21
16.001
  0
LINE
  8
0
 10
46.5002
 20
16.001
 11
46.5002
 21
27.9999
  0
LINE
  8
0
 10
24.0002
 20
30.9996
 11
28.4998
 21
27.9999
  0
LINE
  8
0
 10
28.4998
 20
27.9999
 11
28.4998
 21
16.001
  0
LINE
  8
0
 10
28.4998
 20
16.001
 11
24.0002
 21
30.9996
  0
LINE
  8
0
 10
31.5002
 20
27.9999
 11
35.9997
 21
30.9996
  0
LINE
  8
0
 10
35.9997
 20
30.9996
 11
31.5002
 21
16.001
  0
LINE
  8
0
 10
31.5002
 20
16.001
 11
31.5002
 21
27.9999
  0
LINE
  8
0
 10
1.50015
 20
27.9999
 11
5.99974
 21
30.9996
  0
LINE
  8
0
 10
5.99974
 20
30.9996
 11
1.50015
 21
16.001
  0
LINE
  8
0
 10
1.50015
 20
16.001
 11
1.50015
 21
27.9999
  0
LINE
  8
0
 10
-13.2903
 20
12
 11
-13.1249
 21
12.2007
  0
LINE
  8
0
 10
-13.1249
 20
12.2007
 11
-12.4999
 21
13.254
  0
LINE
  8
0
 10
-12.4999
 20
13.254
 11
-11.8749
 21
14.6024
  0
LINE
  8
0
 10
-11.8749
 20
14.6024
 11
-11.25
 21
16.2455
  0
LINE
  8
0
 10
-11.25
 20
16.2455
 11
-9.72064
 21
12
  0
LINE
  8
0
 10
-9.72064
 20
12
 11
-13.2903
 21
12
  0
LINE
  8
0
 10
16.7097
 20
12
 11
16.8751
 21
12.2007
  0
LINE
  8
0
 10
16.8751
 20
12.2007
 11
17.5001
 21
13.254
  0
LINE
  8
0
 10
17.5001
 20
13.254
 11
18.1251
 21
14.6024
  0
LINE
  8
0
 10
18.1251
 20
14.6024
 11
18.75
 21
16.2455
  0
LINE
  8
0
 10
18.75
 20
16.2455
 11
20.2794
 21
12
  0
LINE
  8
0
 10
20.2794
 20
12
 11
16.7097
 21
12
  0
LINE
  8
0
 10
-5.27936
 20
12
 11
-3.75
 21
16.2455
  0
LINE
  8
0
 10
-3.75
 20
16.2455
 11
-3.12512
 21
14.6024
  0
LINE
  8
0
 10
-3.12512
 20
14.6024
 11
-2.50012
 21
13.254
  0
LINE
  8
0
 10
-2.50012
 20
13.254
 11
-1.87511
 21
12.2007
  0
LINE
  8
0
 10
-1.87511
 20
12.2007
 11
-1.70966
 21
12
  0
LINE
  8
0
 10
-1.70966
 20
12
 11
-5.27936
 21
12
  0
LINE
  8
0
 10
-43.2903
 20
12
 11
-43.1249
 21
12.2007
  0
LINE
  8
0
 10
-43.1249
 20
12.2007
 11
-42.4999
 21
13.254
  0
LINE
  8
0
 10
-42.4999
 20
13.254
 11
-41.8749
 21
14.6024
  0
LINE
  8
0
 10
-41.8749
 20
14.6024
 11
-41.25
 21
16.2455
  0
LINE
  8
0
 10
-41.25
 20
16.2455
 11
-39.7206
 21
12
  0
LINE
  8
0
 10
-39.7206
 20
12
 11
-43.2903
 21
12
  0
LINE
  8
0
 10
46.7097
 20
12
 11
46.8751
 21
12.2007
  0
LINE
  8
0
 10
46.8751
 20
12.2007
 11
47.5001
 21
13.254
  0
LINE
  8
0
 10
47.5001
 20
13.254
 11
48.1251
 21
14.6024
  0
LINE
  8
0
 10
48.1251
 20
14.6024
 11
48.75
 21
16.2455
  0
LINE
  8
0
 10
48.75
 20
16.2455
 11
50.2794
 21
12
  0
LINE
  8
0
 10
50.2794
 20
12
 11
46.7097
 21
12
  0
LINE
  8
0
 10
-35.2794
 20
12
 11
-33.75
 21
16.2455
  0
LINE
  8
0
 10
-33.75
 20
16.2455
 11
-33.1251
 21
14.6024
  0
LINE
  8
0
 10
-33.1251
 20
14.6024
 11
-32.5001
 21
13.254
  0
LINE
  8
0
 10
-32.5001
 20
13.254
 11
-31.8751
 21
12.2007
  0
LINE
  8
0
 10
-31.8751
 20
12.2007
 11
-31.7097
 21
12
  0
LINE
  8
0
 10
-31.7097
 20
12
 11
-35.2794
 21
12
  0
LINE
  8
0
 10
54.7206
 20
12
 11
56.25
 21
16.2455
  0
LINE
  8
0
 10
56.25
 20
16.2455
 11
56.8749
 21
14.6024
  0
LINE
  8
0
 10
56.8749
 20
14.6024
 11
57.4999
 21
13.254
  0
LINE
  8
0
 10
57.4999
 20
13.254
 11
58.1249
 21
12.2007
  0
LINE
  8
0
 10
58.1249
 20
12.2007
 11
58.2903
 21
12
  0
LINE
  8
0
 10
58.2903
 20
12
 11
54.7206
 21
12
  0
LINE
  8
0
 10
24.7206
 20
12
 11
26.25
 21
16.2455
  0
LINE
  8
0
 10
26.25
 20
16.2455
 11
26.8749
 21
14.6024
  0
LINE
  8
0
 10
26.8749
 20
14.6024
 11
27.4999
 21
13.254
  0
LINE
  8
0
 10
27.4999
 20
13.254
 11
28.1249
 21
12.2007
  0
LINE
  8
0
 10
28.1249
 20
12.2007
 11
28.2903
 21
12
  0
LINE
  8
0
 10
28.2903
 20
12
 11
24.7206
 21
12
  0
LINE
  8
0
 10
-50.2498
 20
12
 11
-48.75
 21
15.9996
  0
LINE
  8
0
 10
-48.75
 20
15.9996
 11
-48.1252
 21
14.3975
  0
LINE
  8
0
 10
-48.1252
 20
14.3975
 11
-47.5001
 21
13.0901
  0
LINE
  8
0
 10
-47.5001
 20
13.0901
 11
-46.8751
 21
12.0778
  0
LINE
  8
0
 10
-46.8751
 20
12.0778
 11
-46.8073
 21
12
  0
LINE
  8
0
 10
-46.8073
 20
12
 11
-50.2498
 21
12
  0
LINE
  8
0
 10
31.8073
 20
12
 11
31.8751
 21
12.0778
  0
LINE
  8
0
 10
31.8751
 20
12.0778
 11
32.5001
 21
13.0901
  0
LINE
  8
0
 10
32.5001
 20
13.0901
 11
33.1252
 21
14.3975
  0
LINE
  8
0
 10
33.1252
 20
14.3975
 11
33.75
 21
15.9996
  0
LINE
  8
0
 10
33.75
 20
15.9996
 11
35.2498
 21
12
  0
LINE
  8
0
 10
35.2498
 20
12
 11
31.8073
 21
12
  0
LINE
  8
0
 10
-28.1926
 20
12
 11
-28.1249
 21
12.0778
  0
LINE
  8
0
 10
-28.1249
 20
12.0778
 11
-27.4998
 21
13.0901
  0
LINE
  8
0
 10
-27.4998
 20
13.0901
 11
-26.8748
 21
14.3975
  0
LINE
  8
0
 10
-26.8748
 20
14.3975
 11
-26.25
 21
15.9996
  0
LINE
  8
0
 10
-26.25
 20
15.9996
 11
-24.7502
 21
12
  0
LINE
  8
0
 10
-24.7502
 20
12
 11
-28.1926
 21
12
  0
LINE
  8
0
 10
39.7502
 20
12
 11
41.25
 21
15.9996
  0
LINE
  8
0
 10
41.25
 20
15.9996
 11
41.8748
 21
14.3975
  0
LINE
  8
0
 10
41.8748
 20
14.3975
 11
42.4998
 21
13.0901
  0
LINE
  8
0
 10
42.4998
 20
13.0901
 11
43.1249
 21
12.0778
  0
LINE
  8
0
 10
43.1249
 20
12.0778
 11
43.1926
 21
12
  0
LINE
  8
0
 10
43.1926
 20
12
 11
39.7502
 21
12
  0
LINE
  8
0
 10
-20.2498
 20
12
 11
-18.75
 21
15.9996
  0
LINE
  8
0
 10
-18.75
 20
15.9996
 11
-18.1252
 21
14.3975
  0
LINE
  8
0
 10
-18.1252
 20
14.3975
 11
-17.5001
 21
13.0901
  0
LINE
  8
0
 10
-17.5001
 20
13.0901
 11
-16.8751
 21
12.0778
  0
LINE
  8
0
 10
-16.8751
 20
12.0778
 11
-16.8073
 21
12
  0
LINE
  8
0
 10
-16.8073
 20
12
 11
-20.2498
 21
12
  0
LINE
  8
0
 10
-58.1926
 20
12
 11
-58.1249
 21
12.0778
  0
LINE
  8
0
 10
-58.1249
 20
12.0778
 11
-57.4998
 21
13.0901
  0
LINE
  8
0
 10
-57.4998
 20
13.0901
 11
-56.8748
 21
14.3975
  0
LINE
  8
0
 10
-56.8748
 20
14.3975
 11
-56.25
 21
15.9996
  0
LINE
  8
0
 10
-56.25
 20
15.9996
 11
-54.7502
 21
12
  0
LINE
  8
0
 10
-54.7502
 20
12
 11
-58.1926
 21
12
  0
LINE
  8
0
 10
9.75017
 20
12
 11
11.25
 21
15.9996
  0
LINE
  8
0
 10
11.25
 20
15.9996
 11
11.8748
 21
14.3975
  0
LINE
  8
0
 10
11.8748
 20
14.3975
 11
12.4998
 21
13.0901
  0
LINE
  8
0
 10
12.4998
 20
13.0901
 11
13.1249
 21
12.0778
  0
LINE
  8
0
 10
13.1249
 20
12.0778
 11
13.1926
 21
12
  0
LINE
  8
0
 10
13.1926
 20
12
 11
9.75017
 21
12
  0
LINE
  8
0
 10
1.80734
 20
12
 11
1.87511
 21
12.0778
  0
LINE
  8
0
 10
1.87511
 20
12.0778
 11
2.50014
 21
13.0901
  0
LINE
  8
0
 10
2.50014
 20
13.0901
 11
3.12515
 21
14.3975
  0
LINE
  8
0
 10
3.12515
 20
14.3975
 11
3.75
 21
15.9996
  0
LINE
  8
0
 10
3.75
 20
15.9996
 11
5.24983
 21
12
  0
LINE
  8
0
 10
5.24983
 20
12
 11
1.80734
 21
12
  0
LINE
  8
0
 10
-10
 20
7
 11
-10
 21
11
  0
LINE
  8
0
 10
-10
 20
11
 11
10
 21
11
  0
LINE
  8
0
 10
10
 20
11
 11
10
 21
7
  0
LINE
  8
0
 10
10
 20
7
 11
-10
 21
7
  0
LINE
  8
0
 10
-68.6534
 20
2.70622
 11
-68.7785
 21
2.71805
  0
LINE
  8
0
 10
-68.7785
 20
2.71805
 11
-68.9026
 21
2.7377
  0
LINE
  8
0
 10
-68.9026
 20
2.7377
 11
-69.0252
 21
2.76511
  0
LINE
  8
0
 10
-69.0252
 20
2.76511
 11
-69.1459
 21
2.80016
  0
LINE
  8
0
 10
-69.1459
 20
2.80016
 11
-69.2641
 21
2.84273
  0
LINE
  8
0
 10
-69.2641
 20
2.84273
 11
-69.3794
 21
2.89262
  0
LINE
  8
0
 10
-69.3794
 20
2.89262
 11
-69.4914
 21
2.94966
  0
LINE
  8
0
 10
-69.4914
 20
2.94966
 11
-69.5995
 21
3.01363
  0
LINE
  8
0
 10
-69.5995
 20
3.01363
 11
-69.7034
 21
3.08424
  0
LINE
  8
0
 10
-69.7034
 20
3.08424
 11
-69.8027
 21
3.16125
  0
LINE
  8
0
 10
-69.8027
 20
3.16125
 11
-69.897
 21
3.24434
  0
LINE
  8
0
 10
-69.897
 20
3.24434
 11
-69.9858
 21
3.33318
  0
LINE
  8
0
 10
-69.9858
 20
3.33318
 11
-70.0689
 21
3.42743
  0
LINE
  8
0
 10
-70.0689
 20
3.42743
 11
-70.1459
 21
3.5267
  0
LINE
  8
0
 10
-70.1459
 20
3.5267
 11
-70.2165
 21
3.63062
  0
LINE
  8
0
 10
-70.2165
 20
3.63062
 11
-70.2805
 21
3.73877
  0
LINE
  8
0
 10
-70.2805
 20
3.73877
 11
-70.3375
 21
3.85072
  0
LINE
  8
0
 10
-70.3375
 20
3.85072
 11
-70.3874
 21
3.96602
  0
LINE
  8
0
 10
-70.3874
 20
3.96602
 11
-70.43
 21
4.08424
  0
LINE
  8
0
 10
-70.43
 20
4.08424
 11
-70.465
 21
4.2049
  0
LINE
  8
0
 10
-70.465
 20
4.2049
 11
-70.4924
 21
4.32751
  0
LINE
  8
0
 10
-70.4924
 20
4.32751
 11
-70.5121
 21
4.45161
  0
LINE
  8
0
 10
-70.5121
 20
4.45161
 11
-70.5239
 21
4.57669
  0
LINE
  8
0
 10
-70.5239
 20
4.57669
 11
-70.5279
 21
4.70227
  0
LINE
  8
0
 10
-70.5279
 20
4.70227
 11
-70.5239
 21
4.82785
  0
LINE
  8
0
 10
-70.5239
 20
4.82785
 11
-70.5121
 21
4.95294
  0
LINE
  8
0
 10
-70.5121
 20
4.95294
 11
-70.4924
 21
5.07704
  0
LINE
  8
0
 10
-70.4924
 20
5.07704
 11
-70.465
 21
5.19966
  0
LINE
  8
0
 10
-70.465
 20
5.19966
 11
-70.43
 21
5.32031
  0
LINE
  8
0
 10
-70.43
 20
5.32031
 11
-70.3874
 21
5.43852
  0
LINE
  8
0
 10
-70.3874
 20
5.43852
 11
-70.3375
 21
5.55383
  0
LINE
  8
0
 10
-70.3375
 20
5.55383
 11
-70.2805
 21
5.66579
  0
LINE
  8
0
 10
-70.2805
 20
5.66579
 11
-70.2165
 21
5.77393
  0
LINE
  8
0
 10
-70.2165
 20
5.77393
 11
-70.1459
 21
5.87784
  0
LINE
  8
0
 10
-70.1459
 20
5.87784
 11
-70.0689
 21
5.97713
  0
LINE
  8
0
 10
-70.0689
 20
5.97713
 11
-69.9858
 21
6.07137
  0
LINE
  8
0
 10
-69.9858
 20
6.07137
 11
-69.897
 21
6.16022
  0
LINE
  8
0
 10
-69.897
 20
6.16022
 11
-69.8027
 21
6.2433
  0
LINE
  8
0
 10
-69.8027
 20
6.2433
 11
-69.7034
 21
6.32031
  0
LINE
  8
0
 10
-69.7034
 20
6.32031
 11
-69.5995
 21
6.39093
  0
LINE
  8
0
 10
-69.5995
 20
6.39093
 11
-69.4914
 21
6.4549
  0
LINE
  8
0
 10
-69.4914
 20
6.4549
 11
-69.3794
 21
6.51193
  0
LINE
  8
0
 10
-69.3794
 20
6.51193
 11
-69.2641
 21
6.56183
  0
LINE
  8
0
 10
-69.2641
 20
6.56183
 11
-69.1459
 21
6.60439
  0
LINE
  8
0
 10
-69.1459
 20
6.60439
 11
-69.0252
 21
6.63943
  0
LINE
  8
0
 10
-69.0252
 20
6.63943
 11
-68.9026
 21
6.66685
  0
LINE
  8
0
 10
-68.9026
 20
6.66685
 11
-68.7785
 21
6.68651
  0
LINE
  8
0
 10
-68.7785
 20
6.68651
 11
-68.6534
 21
6.69833
  0
LINE
  8
0
 10
-68.6534
 20
6.69833
 11
-68.5279
 21
6.70227
  0
LINE
  8
0
 10
-68.5279
 20
6.70227
 11
-68.4023
 21
6.69833
  0
LINE
  8
0
 10
-68.4023
 20
6.69833
 11
-68.2772
 21
6.68651
  0
LINE
  8
0
 10
-68.2772
 20
6.68651
 11
-68.1531
 21
6.66685
  0
LINE
  8
0
 10
-68.1531
 20
6.66685
 11
-68.0305
 21
6.63943
  0
LINE
  8
0
 10
-68.0305
 20
6.63943
 11
-67.9098
 21
6.60439
  0
LINE
  8
0
 10
-67.9098
 20
6.60439
 11
-67.7916
 21
6.56183
  0
LINE
  8
0
 10
-67.7916
 20
6.56183
 11
-67.6763
 21
6.51193
  0
LINE
  8
0
 10
-67.6763
 20
6.51193
 11
-67.5643
 21
6.4549
  0
LINE
  8
0
 10
-67.5643
 20
6.4549
 11
-67.4562
 21
6.39093
  0
LINE
  8
0
 10
-67.4562
 20
6.39093
 11
-67.3523
 21
6.32031
  0
LINE
  8
0
 10
-67.3523
 20
6.32031
 11
-67.253
 21
6.2433
  0
LINE
  8
0
 10
-67.253
 20
6.2433
 11
-67.1588
 21
6.16022
  0
LINE
  8
0
 10
-67.1588
 20
6.16022
 11
-67.0699
 21
6.07137
  0
LINE
  8
0
 10
-67.0699
 20
6.07137
 11
-66.9868
 21
5.97713
  0
LINE
  8
0
 10
-66.9868
 20
5.97713
 11
-66.9098
 21
5.87784
  0
LINE
  8
0
 10
-66.9098
 20
5.87784
 11
-66.8392
 21
5.77393
  0
LINE
  8
0
 10
-66.8392
 20
5.77393
 11
-66.7752
 21
5.66579
  0
LINE
  8
0
 10
-66.7752
 20
5.66579
 11
-66.7182
 21
5.55383
  0
LINE
  8
0
 10
-66.7182
 20
5.55383
 11
-66.6683
 21
5.43852
  0
LINE
  8
0
 10
-66.6683
 20
5.43852
 11
-66.6257
 21
5.32031
  0
LINE
  8
0
 10
-66.6257
 20
5.32031
 11
-66.5907
 21
5.19966
  0
LINE
  8
0
 10
-66.5907
 20
5.19966
 11
-66.5633
 21
5.07704
  0
LINE
  8
0
 10
-66.5633
 20
5.07704
 11
-66.5436
 21
4.95294
  0
LINE
  8
0
 10
-66.5436
 20
4.95294
 11
-66.5318
 21
4.82785
  0
LINE
  8
0
 10
-66.5318
 20
4.82785
 11
-66.5279
 21
4.70227
  0
LINE
  8
0
 10
-66.5279
 20
4.70227
 11
-66.5318
 21
4.57669
  0
LINE
  8
0
 10
-66.5318
 20
4.57669
 11
-66.5436
 21
4.45161
  0
LINE
  8
0
 10
-66.5436
 20
4.45161
 11
-66.5633
 21
4.32751
  0
LINE
  8
0
 10
-66.5633
 20
4.32751
 11
-66.5907
 21
4.2049
  0
LINE
  8
0
 10
-66.5907
 20
4.2049
 11
-66.6257
 21
4.08424
  0
LINE
  8
0
 10
-66.6257
 20
4.08424
 11
-66.6683
 21
3.96602
  0
LINE
  8
0
 10
-66.6683
 20
3.96602
 11
-66.7182
 21
3.85072
  0
LINE
  8
0
 10
-66.7182
 20
3.85072
 11
-66.7752
 21
3.73877
  0
LINE
  8
0
 10
-66.7752
 20
3.73877
 11
-66.8392
 21
3.63062
  0
LINE
  8
0
 10
-66.8392
 20
3.63062
 11
-66.9098
 21
3.5267
  0
LINE
  8
0
 10
-66.9098
 20
3.5267
 11
-66.9868
 21
3.42743
  0
LINE
  8
0
 10
-66.9868
 20
3.42743
 11
-67.0699
 21
3.33318
  0
LINE
  8
0
 10
-67.0699
 20
3.33318
 11
-67.1588
 21
3.24434
  0
LINE
  8
0
 10
-67.1588
 20
3.24434
 11
-67.253
 21
3.16125
  0
LINE
  8
0
 10
-67.253
 20
3.16125
 11
-67.3523
 21
3.08424
  0
LINE
  8
0
 10
-67.3523
 20
3.08424
 11
-67.4562
 21
3.01363
  0
LINE
  8
0
 10
-67.4562
 20
3.01363
 11
-67.5643
 21
2.94966
  0
LINE
  8
0
 10
-67.5643
 20
2.94966
 11
-67.6763
 21
2.89262
  0
LINE
  8
0
 10
-67.6763
 20
2.89262
 11
-67.7916
 21
2.84273
  0
LINE
  8
0
 10
-67.7916
 20
2.84273
 11
-67.9098
 21
2.80016
  0
LINE
  8
0
 10
-67.9098
 20
2.80016
 11
-68.0305
 21
2.76511
  0
LINE
  8
0
 10
-68.0305
 20
2.76511
 11
-68.1531
 21
2.7377
  0
LINE
  8
0
 10
-68.1531
 20
2.7377
 11
-68.2772
 21
2.71805
  0
LINE
  8
0
 10
-68.2772
 20
2.71805
 11
-68.4023
 21
2.70622
  0
LINE
  8
0
 10
-68.4023
 20
2.70622
 11
-68.5279
 21
2.70227
  0
LINE
  8
0
 10
-68.5279
 20
2.70227
 11
-68.6534
 21
2.70622
  0
LINE
  8
0
 10
68.4023
 20
2.70622
 11
68.2772
 21
2.71805
  0
LINE
  8
0
 10
68.2772
 20
2.71805
 11
68.1531
 21
2.7377
  0
LINE
  8
0
 10
68.1531
 20
2.7377
 11
68.0305
 21
2.76511
  0
LINE
  8
0
 10
68.0305
 20
2.76511
 11
67.9098
 21
2.80016
  0
LINE
  8
0
 10
67.9098
 20
2.80016
 11
67.7916
 21
2.84273
  0
LINE
  8
0
 10
67.7916
 20
2.84273
 11
67.6763
 21
2.89262
  0
LINE
  8
0
 10
67.6763
 20
2.89262
 11
67.5643
 21
2.94966
  0
LINE
  8
0
 10
67.5643
 20
2.94966
 11
67.4562
 21
3.01363
  0
LINE
  8
0
 10
67.4562
 20
3.01363
 11
67.3523
 21
3.08424
  0
LINE
  8
0
 10
67.3523
 20
3.08424
 11
67.253
 21
3.16125
  0
LINE
  8
0
 10
67.253
 20
3.16125
 11
67.1588
 21
3.24434
  0
LINE
  8
0
 10
67.1588
 20
3.24434
 11
67.0699
 21
3.33318
  0
LINE
  8
0
 10
67.0699
 20
3.33318
 11
66.9868
 21
3.42743
  0
LINE
  8
0
 10
66.9868
 20
3.42743
 11
66.9098
 21
3.5267
  0
LINE
  8
0
 10
66.9098
 20
3.5267
 11
66.8392
 21
3.63062
  0
LINE
  8
0
 10
66.8392
 20
3.63062
 11
66.7752
 21
3.73877
  0
LINE
  8
0
 10
66.7752
 20
3.73877
 11
66.7182
 21
3.85072
  0
LINE
  8
0
 10
66.7182
 20
3.85072
 11
66.6683
 21
3.96602
  0
LINE
  8
0
 10
66.6683
 20
3.96602
 11
66.6257
 21
4.08424
  0
LINE
  8
0
 10
66.6257
 20
4.08424
 11
66.5907
 21
4.2049
  0
LINE
  8
0
 10
66.5907
 20
4.2049
 11
66.5633
 21
4.32751
  0
LINE
  8
0
 10
66.5633
 20
4.32751
 11
66.5436
 21
4.45161
  0
LINE
  8
0
 10
66.5436
 20
4.45161
 11
66.5318
 21
4.57669
  0
LINE
  8
0
 10
66.5318
 20
4.57669
 11
66.5279
 21
4.70227
  0
LINE
  8
0
 10
66.5279
 20
4.70227
 11
66.5318
 21
4.82785
  0
LINE
  8
0
 10
66.5318
 20
4.82785
 11
66.5436
 21
4.95294
  0
LINE
  8
0
 10
66.5436
 20
4.95294
 11
66.5633
 21
5.07704
  0
LINE
  8
0
 10
66.5633
 20
5.07704
 11
66.5907
 21
5.19966
  0
LINE
  8
0
 10
66.5907
 20
5.19966
 11
66.6257
 21
5.32031
  0
LINE
  8
0
 10
66.6257
 20
5.32031
 11
66.6683
 21
5.43852
  0
LINE
  8
0
 10
66.6683
 20
5.43852
 11
66.7182
 21
5.55383
  0
LINE
  8
0
 10
66.7182
 20
5.55383
 11
66.7752
 21
5.66579
  0
LINE
  8
0
 10
66.7752
 20
5.66579
 11
66.8392
 21
5.77393
  0
LINE
  8
0
 10
66.8392
 20
5.77393
 11
66.9098
 21
5.87784
  0
LINE
  8
0
 10
66.9098
 20
5.87784
 11
66.9868
 21
5.97713
  0
LINE
  8
0
 10
66.9868
 20
5.97713
 11
67.0699
 21
6.07137
  0
LINE
  8
0
 10
67.0699
 20
6.07137
 11
67.1588
 21
6.16022
  0
LINE
  8
0
 10
67.1588
 20
6.16022
 11
67.253
 21
6.2433
  0
LINE
  8
0
 10
67.253
 20
6.2433
 11
67.3523
 21
6.32031
  0
LINE
  8
0
 10
67.3523
 20
6.32031
 11
67.4562
 21
6.39093
  0
LINE
  8
0
 10
67.4562
 20
6.39093
 11
67.5643
 21
6.4549
  0
LINE
  8
0
 10
67.5643
 20
6.4549
 11
67.6763
 21
6.51193
  0
LINE
  8
0
 10
67.6763
 20
6.51193
 11
67.7916
 21
6.56183
  0
LINE
  8
0
 10
67.7916
 20
6.56183
 11
67.9098
 21
6.60439
  0
LINE
  8
0
 10
67.9098
 20
6.60439
 11
68.0305
 21
6.63943
  0
LINE
  8
0
 10
68.0305
 20
6.63943
 11
68.1531
 21
6.66685
  0
LINE
  8
0
 10
68.1531
 20
6.66685
 11
68.2772
 21
6.68651
  0
LINE
  8
0
 10
68.2772
 20
6.68651
 11
68.4023
 21
6.69833
  0
LINE
  8
0
 10
68.4023
 20
6.69833
 11
68.5279
 21
6.70227
  0
LINE
  8
0
 10
68.5279
 20
6.70227
 11
68.6534
 21
6.69833
  0
LINE
  8
0
 10
68.6534
 20
6.69833
 11
68.7785
 21
6.68651
  0
LINE
  8
0
 10
68.7785
 20
6.68651
 11
68.9026
 21
6.66685
  0
LINE
  8
0
 10
68.9026
 20
6.66685
 11
69.0252
 21
6.63943
  0
LINE
  8
0
 10
69.0252
 20
6.63943
 11
69.1459
 21
6.60439
  0
LINE
  8
0
 10
69.1459
 20
6.60439
 11
69.2641
 21
6.56183
  0
LINE
  8
0
 10
69.2641
 20
6.56183
 11
69.3794
 21
6.51193
  0
LINE
  8
0
 10
69.3794
 20
6.51193
 11
69.4914
 21
6.4549
  0
LINE
  8
0
 10
69.4914
 20
6.4549
 11
69.5995
 21
6.39093
  0
LINE
  8
0
 10
69.5995
 20
6.39093
 11
69.7034
 21
6.32031
  0
LINE
  8
0
 10
69.7034
 20
6.32031
 11
69.8027
 21
6.2433
  0
LINE
  8
0
 10
69.8027
 20
6.2433
 11
69.897
 21
6.16022
  0
LINE
  8
0
 10
69.897
 20
6.16022
 11
69.9858
 21
6.07137
  0
LINE
  8
0
 10
69.9858
 20
6.07137
 11
70.0689
 21
5.97713
  0
LINE
  8
0
 10
70.0689
 20
5.97713
 11
70.1459
 21
5.87784
  0
LINE
  8
0
 10
70.1459
 20
5.87784
 11
70.2165
 21
5.77393
  0
LINE
  8
0
 10
70.2165
 20
5.77393
 11
70.2805
 21
5.66579
  0
LINE
  8
0
 10
70.2805
 20
5.66579
 11
70.3375
 21
5.55383
  0
LINE
  8
0
 10
70.3375
 20
5.55383
 11
70.3874
 21
5.43852
  0
LINE
  8
0
 10
70.3874
 20
5.43852
 11
70.43
 21
5.32031
  0
LINE
  8
0
 10
70.43
 20
5.32031
 11
70.465
 21
5.19966
  0
LINE
  8
0
 10
70.465
 20
5.19966
 11
70.4924
 21
5.07704
  0
LINE
  8
0
 10
70.4924
 20
5.07704
 11
70.5121
 21
4.95294
  0
LINE
  8
0
 10
70.5121
 20
4.95294
 11
70.5239
 21
4.82785
  0
LINE
  8
0
 10
70.5239
 20
4.82785
 11
70.5279
 21
4.70227
  0
LINE
  8
0
 10
70.5279
 20
4.70227
 11
70.5239
 21
4.57669
  0
LINE
  8
0
 10
70.5239
 20
4.57669
 11
70.5121
 21
4.45161
  0
LINE
  8
0
 10
70.5121
 20
4.45161
 11
70.4924
 21
4.32751
  0
LINE
  8
0
 10
70.4924
 20
4.32751
 11
70.465
 21
4.2049
  0
LINE
  8
0
 10
70.465
 20
4.2049
 11
70.43
 21
4.08424
  0
LINE
  8
0
 10
70.43
 20
4.08424
 11
70.3874
 21
3.96602
  0
LINE
  8
0
 10
70.3874
 20
3.96602
 11
70.3375
 21
3.85072
  0
LINE
  8
0
 10
70.3375
 20
3.85072
 11
70.2805
 21
3.73877
  0
LINE
  8
0
 10
70.2805
 20
3.73877
 11
70.2165
 21
3.63062
  0
LINE
  8
0
 10
70.2165
 20
3.63062
 11
70.1459
 21
3.5267
  0
LINE
  8
0
 10
70.1459
 20
3.5267
 11
70.0689
 21
3.42743
  0
LINE
  8
0
 10
70.0689
 20
3.42743
 11
69.9858
 21
3.33318
  0
LINE
  8
0
 10
69.9858
 20
3.33318
 11
69.897
 21
3.24434
  0
LINE
  8
0
 10
69.897
 20
3.24434
 11
69.8027
 21
3.16125
  0
LINE
  8
0
 10
69.8027
 20
3.16125
 11
69.7034
 21
3.08424
  0
LINE
  8
0
 10
69.7034
 20
3.08424
 11
69.5995
 21
3.01363
  0
LINE
  8
0
 10
69.5995
 20
3.01363
 11
69.4914
 21
2.94966
  0
LINE
  8
0
 10
69.4914
 20
2.94966
 11
69.3794
 21
2.89262
  0
LINE
  8
0
 10
69.3794
 20
2.89262
 11
69.2641
 21
2.84273
  0
LINE
  8
0
 10
69.2641
 20
2.84273
 11
69.1459
 21
2.80016
  0
LINE
  8
0
 10
69.1459
 20
2.80016
 11
69.0252
 21
2.76511
  0
LINE
  8
0
 10
69.0252
 20
2.76511
 11
68.9026
 21
2.7377
  0
LINE
  8
0
 10
68.9026
 20
2.7377
 11
68.7785
 21
2.71805
  0
LINE
  8
0
 10
68.7785
 20
2.71805
 11
68.6534
 21
2.70622
  0
LINE
  8
0
 10
68.6534
 20
2.70622
 11
68.5279
 21
2.70227
  0
LINE
  8
0
 10
68.5279
 20
2.70227
 11
68.4023
 21
2.70622
  0
ENDSEC
  0
SECTION
  2
OBJECTS
  0
DICTIONARY
  0
ENDSEC
  0
EOF
