  0
SECTION
  2
BLOCKS
  0
ENDSEC
  0
SECTION
  2
ENTITIES
  0
LINE
  8
0
 10
0
 20
230.826
 11
-75
 21
0
  0
LINE
  8
0
 10
-75
 20
0
 11
75
 21
0
  0
LINE
  8
0
 10
75
 20
0
 11
0
 21
230.826
  0
LINE
  8
0
 10
-0.12558
 20
212.83
 11
-0.250656
 21
212.842
  0
LINE
  8
0
 10
-0.250656
 20
212.842
 11
-0.374756
 21
212.862
  0
LINE
  8
0
 10
-0.374756
 20
212.862
 11
-0.497375
 21
212.889
  0
LINE
  8
0
 10
-0.497375
 20
212.889
 11
-0.618027
 21
212.924
  0
LINE
  8
0
 10
-0.618027
 20
212.924
 11
-0.736237
 21
212.967
  0
LINE
  8
0
 10
-0.736237
 20
212.967
 11
-0.851547
 21
213.017
  0
LINE
  8
0
 10
-0.851547
 20
213.017
 11
-0.963501
 21
213.074
  0
LINE
  8
0
 10
-0.963501
 20
213.074
 11
-1.07164
 21
213.138
  0
LINE
  8
0
 10
-1.07164
 20
213.138
 11
-1.17557
 21
213.208
  0
LINE
  8
0
 10
-1.17557
 20
213.208
 11
-1.27484
 21
213.285
  0
LINE
  8
0
 10
-1.27484
 20
213.285
 11
-1.36908
 21
213.368
  0
LINE
  8
0
 10
-1.36908
 20
213.368
 11
-1.45793
 21
213.457
  0
LINE
  8
0
 10
-1.45793
 20
213.457
 11
-1.54102
 21
213.551
  0
LINE
  8
0
 10
-1.54102
 20
213.551
 11
-1.61803
 21
213.651
  0
LINE
  8
0
 10
-1.61803
 20
213.651
 11
-1.68864
 21
213.755
  0
LINE
  8
0
 10
-1.68864
 20
213.755
 11
-1.75261
 21
213.863
  0
LINE
  8
0
 10
-1.75261
 20
213.863
 11
-1.80965
 21
213.975
  0
LINE
  8
0
 10
-1.80965
 20
213.975
 11
-1.85954
 21
214.09
  0
LINE
  8
0
 10
-1.85954
 20
214.09
 11
-1.9021
 21
214.208
  0
LINE
  8
0
 10
-1.9021
 20
214.208
 11
-1.93716
 21
214.329
  0
LINE
  8
0
 10
-1.93716
 20
214.329
 11
-1.96457
 21
214.451
  0
LINE
  8
0
 10
-1.96457
 20
214.451
 11
-1.98422
 21
214.576
  0
LINE
  8
0
 10
-1.98422
 20
214.576
 11
-1.99605
 21
214.701
  0
LINE
  8
0
 10
-1.99605
 20
214.701
 11
-2
 21
214.826
  0
LINE
  8
0
 10
-2
 20
214.826
 11
-1.99605
 21
214.952
  0
LINE
  8
0
 10
-1.99605
 20
214.952
 11
-1.98422
 21
215.077
  0
LINE
  8
0
 10
-1.98422
 20
215.077
 11
-1.96457
 21
215.201
  0
LINE
  8
0
 10
-1.96457
 20
215.201
 11
-1.93716
 21
215.324
  0
LINE
  8
0
 10
-1.93716
 20
215.324
 11
-1.9021
 21
215.444
  0
LINE
  8
0
 10
-1.9021
 20
215.444
 11
-1.85954
 21
215.562
  0
LINE
  8
0
 10
-1.85954
 20
215.562
 11
-1.80965
 21
215.678
  0
LINE
  8
0
 10
-1.80965
 20
215.678
 11
-1.75261
 21
215.79
  0
LINE
  8
0
 10
-1.75261
 20
215.79
 11
-1.68864
 21
215.898
  0
LINE
  8
0
 10
-1.68864
 20
215.898
 11
-1.61803
 21
216.002
  0
LINE
  8
0
 10
-1.61803
 20
216.002
 11
-1.54102
 21
216.101
  0
LINE
  8
0
 10
-1.54102
 20
216.101
 11
-1.45793
 21
216.195
  0
LINE
  8
0
 10
-1.45793
 20
216.195
 11
-1.36908
 21
216.284
  0
LINE
  8
0
 10
-1.36908
 20
216.284
 11
-1.27484
 21
216.367
  0
LINE
  8
0
 10
-1.27484
 20
216.367
 11
-1.17557
 21
216.444
  0
LINE
  8
0
 10
-1.17557
 20
216.444
 11
-1.07164
 21
216.515
  0
LINE
  8
0
 10
-1.07164
 20
216.515
 11
-0.963501
 21
216.579
  0
LINE
  8
0
 10
-0.963501
 20
216.579
 11
-0.851547
 21
216.636
  0
LINE
  8
0
 10
-0.851547
 20
216.636
 11
-0.736237
 21
216.686
  0
LINE
  8
0
 10
-0.736237
 20
216.686
 11
-0.618027
 21
216.728
  0
LINE
  8
0
 10
-0.618027
 20
216.728
 11
-0.497375
 21
216.763
  0
LINE
  8
0
 10
-0.497375
 20
216.763
 11
-0.374756
 21
216.791
  0
LINE
  8
0
 10
-0.374756
 20
216.791
 11
-0.250656
 21
216.81
  0
LINE
  8
0
 10
-0.250656
 20
216.81
 11
-0.12558
 21
216.822
  0
LINE
  8
0
 10
-0.12558
 20
216.822
 11
0
 21
216.826
  0
LINE
  8
0
 10
0
 20
216.826
 11
0.12558
 21
216.822
  0
LINE
  8
0
 10
0.12558
 20
216.822
 11
0.250656
 21
216.81
  0
LINE
  8
0
 10
0.250656
 20
216.81
 11
0.374756
 21
216.791
  0
LINE
  8
0
 10
0.374756
 20
216.791
 11
0.497375
 21
216.763
  0
LINE
  8
0
 10
0.497375
 20
216.763
 11
0.618027
 21
216.728
  0
LINE
  8
0
 10
0.618027
 20
216.728
 11
0.736237
 21
216.686
  0
LINE
  8
0
 10
0.736237
 20
216.686
 11
0.851547
 21
216.636
  0
LINE
  8
0
 10
0.851547
 20
216.636
 11
0.963501
 21
216.579
  0
LINE
  8
0
 10
0.963501
 20
216.579
 11
1.07164
 21
216.515
  0
LINE
  8
0
 10
1.07164
 20
216.515
 11
1.17557
 21
216.444
  0
LINE
  8
0
 10
1.17557
 20
216.444
 11
1.27484
 21
216.367
  0
LINE
  8
0
 10
1.27484
 20
216.367
 11
1.36908
 21
216.284
  0
LINE
  8
0
 10
1.36908
 20
216.284
 11
1.45793
 21
216.195
  0
LINE
  8
0
 10
1.45793
 20
216.195
 11
1.54102
 21
216.101
  0
LINE
  8
0
 10
1.54102
 20
216.101
 11
1.61803
 21
216.002
  0
LINE
  8
0
 10
1.61803
 20
216.002
 11
1.68864
 21
215.898
  0
LINE
  8
0
 10
1.68864
 20
215.898
 11
1.75261
 21
215.79
  0
LINE
  8
0
 10
1.75261
 20
215.79
 11
1.80965
 21
215.678
  0
LINE
  8
0
 10
1.80965
 20
215.678
 11
1.85954
 21
215.562
  0
LINE
  8
0
 10
1.85954
 20
215.562
 11
1.9021
 21
215.444
  0
LINE
  8
0
 10
1.9021
 20
215.444
 11
1.93716
 21
215.324
  0
LINE
  8
0
 10
1.93716
 20
215.324
 11
1.96457
 21
215.201
  0
LINE
  8
0
 10
1.96457
 20
215.201
 11
1.98422
 21
215.077
  0
LINE
  8
0
 10
1.98422
 20
215.077
 11
1.99605
 21
214.952
  0
LINE
  8
0
 10
1.99605
 20
214.952
 11
2
 21
214.826
  0
LINE
  8
0
 10
2
 20
214.826
 11
1.99605
 21
214.701
  0
LINE
  8
0
 10
1.99605
 20
214.701
 11
1.98422
 21
214.576
  0
LINE
  8
0
 10
1.98422
 20
214.576
 11
1.96457
 21
214.451
  0
LINE
  8
0
 10
1.96457
 20
214.451
 11
1.93716
 21
214.329
  0
LINE
  8
0
 10
1.93716
 20
214.329
 11
1.9021
 21
214.208
  0
LINE
  8
0
 10
1.9021
 20
214.208
 11
1.85954
 21
214.09
  0
LINE
  8
0
 10
1.85954
 20
214.09
 11
1.80965
 21
213.975
  0
LINE
  8
0
 10
1.80965
 20
213.975
 11
1.75261
 21
213.863
  0
LINE
  8
0
 10
1.75261
 20
213.863
 11
1.68864
 21
213.755
  0
LINE
  8
0
 10
1.68864
 20
213.755
 11
1.61803
 21
213.651
  0
LINE
  8
0
 10
1.61803
 20
213.651
 11
1.54102
 21
213.551
  0
LINE
  8
0
 10
1.54102
 20
213.551
 11
1.45793
 21
213.457
  0
LINE
  8
0
 10
1.45793
 20
213.457
 11
1.36908
 21
213.368
  0
LINE
  8
0
 10
1.36908
 20
213.368
 11
1.27484
 21
213.285
  0
LINE
  8
0
 10
1.27484
 20
213.285
 11
1.17557
 21
213.208
  0
LINE
  8
0
 10
1.17557
 20
213.208
 11
1.07164
 21
213.138
  0
LINE
  8
0
 10
1.07164
 20
213.138
 11
0.963501
 21
213.074
  0
LINE
  8
0
 10
0.963501
 20
213.074
 11
0.851547
 21
213.017
  0
LINE
  8
0
 10
0.851547
 20
213.017
 11
0.736237
 21
212.967
  0
LINE
  8
0
 10
0.736237
 20
212.967
 11
0.618027
 21
212.924
  0
LINE
  8
0
 10
0.618027
 20
212.924
 11
0.497375
 21
212.889
  0
LINE
  8
0
 10
0.497375
 20
212.889
 11
0.374756
 21
212.862
  0
LINE
  8
0
 10
0.374756
 20
212.862
 11
0.250656
 21
212.842
  0
LINE
  8
0
 10
0.250656
 20
212.842
 11
0.12558
 21
212.83
  0
LINE
  8
0
 10
0.12558
 20
212.83
 11
0
 21
212.826
  0
LINE
  8
0
 10
0
 20
212.826
 11
-0.12558
 21
212.83
  0
LINE
  8
0
 10
-4.16895
 20
179.163
 11
-2.15601
 21
185.358
  0
LINE
  8
0
 10
-2.15601
 20
185.358
 11
-1.15265
 21
185.937
  0
LINE
  8
0
 10
-1.15265
 20
185.937
 11
1.84845
 21
180.74
  0
LINE
  8
0
 10
1.84845
 20
180.74
 11
-3.34808
 21
177.741
  0
LINE
  8
0
 10
-3.34808
 20
177.741
 11
-4.16895
 21
179.163
  0
LINE
  8
0
 10
-1.84845
 20
175.144
 11
3.34808
 21
178.143
  0
LINE
  8
0
 10
3.34808
 20
178.143
 11
5.98309
 21
173.579
  0
LINE
  8
0
 10
5.98309
 20
173.579
 11
6.21382
 21
172.869
  0
LINE
  8
0
 10
6.21382
 20
172.869
 11
1.15265
 21
169.947
  0
LINE
  8
0
 10
1.15265
 20
169.947
 11
-1.84845
 21
175.144
  0
LINE
  8
0
 10
5.65201
 20
167.75
 11
7.07578
 21
170.216
  0
LINE
  8
0
 10
7.07578
 20
170.216
 11
8.39093
 21
166.169
  0
LINE
  8
0
 10
8.39093
 20
166.169
 11
5.65201
 21
167.75
  0
LINE
  8
0
 10
1.15173
 20
159.956
 11
4.15237
 21
165.153
  0
LINE
  8
0
 10
4.15237
 20
165.153
 11
9.34799
 21
162.153
  0
LINE
  8
0
 10
9.34799
 20
162.153
 11
6.34781
 21
156.956
  0
LINE
  8
0
 10
6.34781
 20
156.956
 11
1.15173
 21
159.956
  0
LINE
  8
0
 10
8.65173
 20
156.956
 11
10.9526
 21
158.285
  0
LINE
  8
0
 10
10.9526
 20
158.285
 11
12.8482
 21
152.451
  0
LINE
  8
0
 10
12.8482
 20
152.451
 11
11.6519
 21
151.76
  0
LINE
  8
0
 10
11.6519
 20
151.76
 11
8.65173
 21
156.956
  0
LINE
  8
0
 10
-7.5
 20
148.961
 11
-7.5
 21
154.961
  0
LINE
  8
0
 10
-7.5
 20
154.961
 11
-1.49963
 21
154.961
  0
LINE
  8
0
 10
-1.49963
 20
154.961
 11
-1.49963
 21
148.961
  0
LINE
  8
0
 10
-1.49963
 20
148.961
 11
-7.5
 21
148.961
  0
LINE
  8
0
 10
1.49963
 20
148.961
 11
1.49963
 21
154.961
  0
LINE
  8
0
 10
1.49963
 20
154.961
 11
7.5
 21
154.961
  0
LINE
  8
0
 10
7.5
 20
154.961
 11
7.5
 21
148.961
  0
LINE
  8
0
 10
7.5
 20
148.961
 11
1.49963
 21
148.961
  0
LINE
  8
0
 10
-14.9722
 20
145.914
 11
-13.2397
 21
151.246
  0
LINE
  8
0
 10
-13.2397
 20
151.246
 11
-11.6519
 21
152.162
  0
LINE
  8
0
 10
-11.6519
 20
152.162
 11
-8.65173
 21
146.966
  0
LINE
  8
0
 10
-8.65173
 20
146.966
 11
-13.8474
 21
143.966
  0
LINE
  8
0
 10
-13.8474
 20
143.966
 11
-14.9722
 21
145.914
  0
LINE
  8
0
 10
13.1516
 20
149.163
 11
13.7957
 21
149.535
  0
LINE
  8
0
 10
13.7957
 20
149.535
 11
14.9006
 21
146.134
  0
LINE
  8
0
 10
14.9006
 20
146.134
 11
13.1516
 21
149.163
  0
LINE
  8
0
 10
-9.34799
 20
141.77
 11
-6.34781
 21
146.966
  0
LINE
  8
0
 10
-6.34781
 20
146.966
 11
-1.15173
 21
143.966
  0
LINE
  8
0
 10
-1.15173
 20
143.966
 11
-4.15237
 21
138.769
  0
LINE
  8
0
 10
-4.15237
 20
138.769
 11
-9.34799
 21
141.77
  0
LINE
  8
0
 10
-13.8483
 20
133.975
 11
-10.8476
 21
139.172
  0
LINE
  8
0
 10
-10.8476
 20
139.172
 11
-5.65201
 21
136.172
  0
LINE
  8
0
 10
-5.65201
 20
136.172
 11
-8.65219
 21
130.975
  0
LINE
  8
0
 10
-8.65219
 20
130.975
 11
-13.8483
 21
133.975
  0
LINE
  8
0
 10
16.1517
 20
133.975
 11
17.8792
 21
136.967
  0
LINE
  8
0
 10
17.8792
 20
136.967
 11
19.4745
 21
132.057
  0
LINE
  8
0
 10
19.4745
 20
132.057
 11
16.1517
 21
133.975
  0
LINE
  8
0
 10
-6.34827
 20
130.975
 11
-1.15265
 21
133.976
  0
LINE
  8
0
 10
-1.15265
 20
133.976
 11
1.84845
 21
128.779
  0
LINE
  8
0
 10
1.84845
 20
128.779
 11
-3.34808
 21
125.779
  0
LINE
  8
0
 10
-3.34808
 20
125.779
 11
-6.34827
 21
130.975
  0
LINE
  8
0
 10
16.4996
 20
122.981
 11
16.4996
 21
128.98
  0
LINE
  8
0
 10
16.4996
 20
128.98
 11
20.4743
 21
128.98
  0
LINE
  8
0
 10
20.4743
 20
128.98
 11
22.4236
 21
122.981
  0
LINE
  8
0
 10
22.4236
 20
122.981
 11
16.4996
 21
122.981
  0
LINE
  8
0
 10
-22.4236
 20
122.981
 11
-20.4743
 21
128.98
  0
LINE
  8
0
 10
-20.4743
 20
128.98
 11
-16.4996
 21
128.98
  0
LINE
  8
0
 10
-16.4996
 20
128.98
 11
-16.4996
 21
122.981
  0
LINE
  8
0
 10
-16.4996
 20
122.981
 11
-22.4236
 21
122.981
  0
LINE
  8
0
 10
-13.5004
 20
122.981
 11
-13.5004
 21
128.98
  0
LINE
  8
0
 10
-13.5004
 20
128.98
 11
-7.5
 21
128.98
  0
LINE
  8
0
 10
-7.5
 20
128.98
 11
-7.5
 21
122.981
  0
LINE
  8
0
 10
-7.5
 20
122.981
 11
-13.5004
 21
122.981
  0
LINE
  8
0
 10
7.5
 20
122.981
 11
7.5
 21
128.98
  0
LINE
  8
0
 10
7.5
 20
128.98
 11
13.5004
 21
128.98
  0
LINE
  8
0
 10
13.5004
 20
128.98
 11
13.5004
 21
122.981
  0
LINE
  8
0
 10
13.5004
 20
122.981
 11
7.5
 21
122.981
  0
LINE
  8
0
 10
-1.84845
 20
123.182
 11
3.34808
 21
126.181
  0
LINE
  8
0
 10
3.34808
 20
126.181
 11
6.34827
 21
120.985
  0
LINE
  8
0
 10
6.34827
 20
120.985
 11
1.15265
 21
117.985
  0
LINE
  8
0
 10
1.15265
 20
117.985
 11
-1.84845
 21
123.182
  0
LINE
  8
0
 10
-24.348
 20
115.789
 11
-21.3478
 21
120.985
  0
LINE
  8
0
 10
-21.3478
 20
120.985
 11
-16.1517
 21
117.986
  0
LINE
  8
0
 10
-16.1517
 20
117.986
 11
-19.0356
 21
112.99
  0
LINE
  8
0
 10
-19.0356
 20
112.99
 11
-19.0366
 21
112.99
  0
LINE
  8
0
 10
-19.0366
 20
112.99
 11
-19.1524
 21
112.789
  0
LINE
  8
0
 10
-19.1524
 20
112.789
 11
-24.348
 21
115.789
  0
LINE
  8
0
 10
5.65201
 20
115.789
 11
8.65219
 21
120.985
  0
LINE
  8
0
 10
8.65219
 20
120.985
 11
13.8483
 21
117.986
  0
LINE
  8
0
 10
13.8483
 20
117.986
 11
10.9644
 21
112.99
  0
LINE
  8
0
 10
10.9644
 20
112.99
 11
10.9634
 21
112.99
  0
LINE
  8
0
 10
10.9634
 20
112.99
 11
10.8476
 21
112.789
  0
LINE
  8
0
 10
10.8476
 20
112.789
 11
5.65201
 21
115.789
  0
LINE
  8
0
 10
1.15173
 20
107.995
 11
4.03564
 21
112.99
  0
LINE
  8
0
 10
4.03564
 20
112.99
 11
4.03656
 21
112.99
  0
LINE
  8
0
 10
4.03656
 20
112.99
 11
4.15237
 21
113.191
  0
LINE
  8
0
 10
4.15237
 20
113.191
 11
9.34799
 21
110.192
  0
LINE
  8
0
 10
9.34799
 20
110.192
 11
6.34781
 21
104.995
  0
LINE
  8
0
 10
6.34781
 20
104.995
 11
1.15173
 21
107.995
  0
LINE
  8
0
 10
-27.5385
 20
107.239
 11
-25.6428
 21
113.073
  0
LINE
  8
0
 10
-25.6428
 20
113.073
 11
-20.652
 21
110.192
  0
LINE
  8
0
 10
-20.652
 20
110.192
 11
-23.6522
 21
104.995
  0
LINE
  8
0
 10
-23.6522
 20
104.995
 11
-27.5385
 21
107.239
  0
LINE
  8
0
 10
-21.3483
 20
104.995
 11
-16.1526
 21
107.995
  0
LINE
  8
0
 10
-16.1526
 20
107.995
 11
-13.1516
 21
102.798
  0
LINE
  8
0
 10
-13.1516
 20
102.798
 11
-18.3481
 21
99.799
  0
LINE
  8
0
 10
-18.3481
 20
99.799
 11
-21.3483
 21
104.995
  0
LINE
  8
0
 10
8.65173
 20
104.995
 11
13.8474
 21
107.995
  0
LINE
  8
0
 10
13.8474
 20
107.995
 11
16.8484
 21
102.798
  0
LINE
  8
0
 10
16.8484
 20
102.798
 11
11.6519
 21
99.799
  0
LINE
  8
0
 10
11.6519
 20
99.799
 11
8.65173
 21
104.995
  0
LINE
  8
0
 10
-28.5004
 20
97.0003
 11
-28.5004
 21
103
  0
LINE
  8
0
 10
-28.5004
 20
103
 11
-22.5
 21
103
  0
LINE
  8
0
 10
-22.5
 20
103
 11
-22.5
 21
97.0003
  0
LINE
  8
0
 10
-22.5
 20
97.0003
 11
-28.5004
 21
97.0003
  0
LINE
  8
0
 10
1.49963
 20
97.0003
 11
1.49963
 21
103
  0
LINE
  8
0
 10
1.49963
 20
103
 11
7.5
 21
103
  0
LINE
  8
0
 10
7.5
 20
103
 11
7.5
 21
97.0003
  0
LINE
  8
0
 10
7.5
 20
97.0003
 11
1.49963
 21
97.0003
  0
LINE
  8
0
 10
-7.5
 20
97.0003
 11
-7.5
 21
103
  0
LINE
  8
0
 10
-7.5
 20
103
 11
-1.49963
 21
103
  0
LINE
  8
0
 10
-1.49963
 20
103
 11
-1.49963
 21
97.0003
  0
LINE
  8
0
 10
-1.49963
 20
97.0003
 11
-7.5
 21
97.0003
  0
LINE
  8
0
 10
22.5
 20
97.0003
 11
22.5
 21
103
  0
LINE
  8
0
 10
22.5
 20
103
 11
28.5004
 21
103
  0
LINE
  8
0
 10
28.5004
 20
103
 11
28.5004
 21
97.0003
  0
LINE
  8
0
 10
28.5004
 20
97.0003
 11
22.5
 21
97.0003
  0
LINE
  8
0
 10
-16.8484
 20
97.2017
 11
-11.6519
 21
100.201
  0
LINE
  8
0
 10
-11.6519
 20
100.201
 11
-8.65173
 21
95.0049
  0
LINE
  8
0
 10
-8.65173
 20
95.0049
 11
-13.8474
 21
92.0047
  0
LINE
  8
0
 10
-13.8474
 20
92.0047
 11
-16.8484
 21
97.2017
  0
LINE
  8
0
 10
13.1516
 20
97.2017
 11
18.3481
 21
100.201
  0
LINE
  8
0
 10
18.3481
 20
100.201
 11
21.3483
 21
95.0049
  0
LINE
  8
0
 10
21.3483
 20
95.0049
 11
16.1526
 21
92.0047
  0
LINE
  8
0
 10
16.1526
 20
92.0047
 11
13.1516
 21
97.2017
  0
LINE
  8
0
 10
-9.34799
 20
89.8083
 11
-6.34781
 21
95.0049
  0
LINE
  8
0
 10
-6.34781
 20
95.0049
 11
-1.15173
 21
92.0052
  0
LINE
  8
0
 10
-1.15173
 20
92.0052
 11
-4.03564
 21
87.0096
  0
LINE
  8
0
 10
-4.03564
 20
87.0096
 11
-4.03656
 21
87.0096
  0
LINE
  8
0
 10
-4.03656
 20
87.0096
 11
-4.15237
 21
86.8086
  0
LINE
  8
0
 10
-4.15237
 20
86.8086
 11
-9.34799
 21
89.8083
  0
LINE
  8
0
 10
20.652
 20
89.8083
 11
23.6522
 21
95.0049
  0
LINE
  8
0
 10
23.6522
 20
95.0049
 11
28.8483
 21
92.0052
  0
LINE
  8
0
 10
28.8483
 20
92.0052
 11
25.9644
 21
87.0096
  0
LINE
  8
0
 10
25.9644
 20
87.0096
 11
25.9634
 21
87.0096
  0
LINE
  8
0
 10
25.9634
 20
87.0096
 11
25.8476
 21
86.8086
  0
LINE
  8
0
 10
25.8476
 20
86.8086
 11
20.652
 21
89.8083
  0
LINE
  8
0
 10
-34.1728
 20
86.8204
 11
-32.2771
 21
92.6548
  0
LINE
  8
0
 10
-32.2771
 20
92.6548
 11
-31.1517
 21
92.0052
  0
LINE
  8
0
 10
-31.1517
 20
92.0052
 11
-34.0356
 21
87.0096
  0
LINE
  8
0
 10
-34.0356
 20
87.0096
 11
-34.0366
 21
87.0096
  0
LINE
  8
0
 10
-34.0366
 20
87.0096
 11
-34.1524
 21
86.8086
  0
LINE
  8
0
 10
-34.1524
 20
86.8086
 11
-34.1728
 21
86.8204
  0
LINE
  8
0
 10
-13.8483
 20
82.0145
 11
-10.9644
 21
87.01
  0
LINE
  8
0
 10
-10.9644
 20
87.01
 11
-10.9634
 21
87.01
  0
LINE
  8
0
 10
-10.9634
 20
87.01
 11
-10.8476
 21
87.211
  0
LINE
  8
0
 10
-10.8476
 20
87.211
 11
-5.65201
 21
84.2113
  0
LINE
  8
0
 10
-5.65201
 20
84.2113
 11
-8.65219
 21
79.0147
  0
LINE
  8
0
 10
-8.65219
 20
79.0147
 11
-13.8483
 21
82.0145
  0
LINE
  8
0
 10
16.1517
 20
82.0145
 11
19.0356
 21
87.01
  0
LINE
  8
0
 10
19.0356
 20
87.01
 11
19.0366
 21
87.01
  0
LINE
  8
0
 10
19.0366
 20
87.01
 11
19.1524
 21
87.211
  0
LINE
  8
0
 10
19.1524
 20
87.211
 11
24.348
 21
84.2113
  0
LINE
  8
0
 10
24.348
 20
84.2113
 11
21.3478
 21
79.0147
  0
LINE
  8
0
 10
21.3478
 20
79.0147
 11
16.1517
 21
82.0145
  0
LINE
  8
0
 10
-6.34827
 20
79.0147
 11
-1.15265
 21
82.0149
  0
LINE
  8
0
 10
-1.15265
 20
82.0149
 11
1.84845
 21
76.8179
  0
LINE
  8
0
 10
1.84845
 20
76.8179
 11
-3.34808
 21
73.8187
  0
LINE
  8
0
 10
-3.34808
 20
73.8187
 11
-6.34827
 21
79.0147
  0
LINE
  8
0
 10
-36.3483
 20
79.0147
 11
-31.1526
 21
82.0149
  0
LINE
  8
0
 10
-31.1526
 20
82.0149
 11
-28.1516
 21
76.8179
  0
LINE
  8
0
 10
-28.1516
 20
76.8179
 11
-33.3481
 21
73.8187
  0
LINE
  8
0
 10
-33.3481
 20
73.8187
 11
-36.3483
 21
79.0147
  0
LINE
  8
0
 10
23.6517
 20
79.0147
 11
28.8474
 21
82.0149
  0
LINE
  8
0
 10
28.8474
 20
82.0149
 11
31.8484
 21
76.8179
  0
LINE
  8
0
 10
31.8484
 20
76.8179
 11
26.6519
 21
73.8187
  0
LINE
  8
0
 10
26.6519
 20
73.8187
 11
23.6517
 21
79.0147
  0
LINE
  8
0
 10
-22.5
 20
71.0199
 11
-22.5
 21
77.0193
  0
LINE
  8
0
 10
-22.5
 20
77.0193
 11
-16.4996
 21
77.0193
  0
LINE
  8
0
 10
-16.4996
 20
77.0193
 11
-16.4996
 21
71.0199
  0
LINE
  8
0
 10
-16.4996
 20
71.0199
 11
-22.5
 21
71.0199
  0
LINE
  8
0
 10
16.4996
 20
71.0199
 11
16.4996
 21
77.0193
  0
LINE
  8
0
 10
16.4996
 20
77.0193
 11
22.5
 21
77.0193
  0
LINE
  8
0
 10
22.5
 20
77.0193
 11
22.5
 21
71.0199
  0
LINE
  8
0
 10
22.5
 20
71.0199
 11
16.4996
 21
71.0199
  0
LINE
  8
0
 10
7.5
 20
71.0199
 11
7.5
 21
77.0193
  0
LINE
  8
0
 10
7.5
 20
77.0193
 11
13.5004
 21
77.0193
  0
LINE
  8
0
 10
13.5004
 20
77.0193
 11
13.5004
 21
71.0199
  0
LINE
  8
0
 10
13.5004
 20
71.0199
 11
7.5
 21
71.0199
  0
LINE
  8
0
 10
-13.5004
 20
71.0199
 11
-13.5004
 21
77.0193
  0
LINE
  8
0
 10
-13.5004
 20
77.0193
 11
-7.5
 21
77.0193
  0
LINE
  8
0
 10
-7.5
 20
77.0193
 11
-7.5
 21
71.0199
  0
LINE
  8
0
 10
-7.5
 20
71.0199
 11
-13.5004
 21
71.0199
  0
LINE
  8
0
 10
-39.3067
 20
71.0199
 11
-37.5
 21
76.5803
  0
LINE
  8
0
 10
-37.5
 20
76.5803
 11
-37.5
 21
71.0199
  0
LINE
  8
0
 10
-37.5
 20
71.0199
 11
-39.3067
 21
71.0199
  0
LINE
  8
0
 10
37.5
 20
71.0199
 11
37.5
 21
76.5803
  0
LINE
  8
0
 10
37.5
 20
76.5803
 11
39.3067
 21
71.0199
  0
LINE
  8
0
 10
39.3067
 20
71.0199
 11
37.5
 21
71.0199
  0
LINE
  8
0
 10
-1.84845
 20
71.2213
 11
3.34808
 21
74.2206
  0
LINE
  8
0
 10
3.34808
 20
74.2206
 11
6.34827
 21
69.0245
  0
LINE
  8
0
 10
6.34827
 20
69.0245
 11
1.15265
 21
66.0243
  0
LINE
  8
0
 10
1.15265
 20
66.0243
 11
-1.84845
 21
71.2213
  0
LINE
  8
0
 10
28.1516
 20
71.2213
 11
33.3481
 21
74.2206
  0
LINE
  8
0
 10
33.3481
 20
74.2206
 11
36.3483
 21
69.0245
  0
LINE
  8
0
 10
36.3483
 20
69.0245
 11
31.1526
 21
66.0243
  0
LINE
  8
0
 10
31.1526
 20
66.0243
 11
28.1516
 21
71.2213
  0
LINE
  8
0
 10
-31.8484
 20
71.2213
 11
-26.6519
 21
74.2206
  0
LINE
  8
0
 10
-26.6519
 20
74.2206
 11
-23.6517
 21
69.0245
  0
LINE
  8
0
 10
-23.6517
 20
69.0245
 11
-28.8474
 21
66.0243
  0
LINE
  8
0
 10
-28.8474
 20
66.0243
 11
-31.8484
 21
71.2213
  0
LINE
  8
0
 10
-24.348
 20
63.828
 11
-21.3478
 21
69.0245
  0
LINE
  8
0
 10
-21.3478
 20
69.0245
 11
-16.1517
 21
66.0248
  0
LINE
  8
0
 10
-16.1517
 20
66.0248
 11
-19.1524
 21
60.8278
  0
LINE
  8
0
 10
-19.1524
 20
60.8278
 11
-24.348
 21
63.828
  0
LINE
  8
0
 10
35.652
 20
63.828
 11
38.6522
 21
69.0245
  0
LINE
  8
0
 10
38.6522
 20
69.0245
 11
40.2558
 21
68.0987
  0
LINE
  8
0
 10
40.2558
 20
68.0987
 11
41.9807
 21
62.7902
  0
LINE
  8
0
 10
41.9807
 20
62.7902
 11
40.8476
 21
60.8278
  0
LINE
  8
0
 10
40.8476
 20
60.8278
 11
35.652
 21
63.828
  0
LINE
  8
0
 10
5.65201
 20
63.828
 11
8.65219
 21
69.0245
  0
LINE
  8
0
 10
8.65219
 20
69.0245
 11
13.8483
 21
66.0248
  0
LINE
  8
0
 10
13.8483
 20
66.0248
 11
10.8476
 21
60.8278
  0
LINE
  8
0
 10
10.8476
 20
60.8278
 11
5.65201
 21
63.828
  0
LINE
  8
0
 10
31.1517
 20
56.0336
 11
34.1524
 21
61.2306
  0
LINE
  8
0
 10
34.1524
 20
61.2306
 11
39.348
 21
58.2304
  0
LINE
  8
0
 10
39.348
 20
58.2304
 11
36.3478
 21
53.0339
  0
LINE
  8
0
 10
36.3478
 20
53.0339
 11
31.1517
 21
56.0336
  0
LINE
  8
0
 10
1.15173
 20
56.0336
 11
4.15237
 21
61.2306
  0
LINE
  8
0
 10
4.15237
 20
61.2306
 11
9.34799
 21
58.2304
  0
LINE
  8
0
 10
9.34799
 20
58.2304
 11
6.34781
 21
53.0339
  0
LINE
  8
0
 10
6.34781
 20
53.0339
 11
1.15173
 21
56.0336
  0
LINE
  8
0
 10
-28.8483
 20
56.0336
 11
-25.8476
 21
61.2306
  0
LINE
  8
0
 10
-25.8476
 20
61.2306
 11
-20.652
 21
58.2304
  0
LINE
  8
0
 10
-20.652
 20
58.2304
 11
-23.6522
 21
53.0339
  0
LINE
  8
0
 10
-23.6522
 20
53.0339
 11
-28.8483
 21
56.0336
  0
LINE
  8
0
 10
8.65173
 20
53.0339
 11
13.8474
 21
56.0341
  0
LINE
  8
0
 10
13.8474
 20
56.0341
 11
16.8484
 21
50.8371
  0
LINE
  8
0
 10
16.8484
 20
50.8371
 11
11.6519
 21
47.8378
  0
LINE
  8
0
 10
11.6519
 20
47.8378
 11
8.65173
 21
53.0339
  0
LINE
  8
0
 10
-21.3483
 20
53.0339
 11
-16.1526
 21
56.0341
  0
LINE
  8
0
 10
-16.1526
 20
56.0341
 11
-13.1516
 21
50.8371
  0
LINE
  8
0
 10
-13.1516
 20
50.8371
 11
-18.3481
 21
47.8378
  0
LINE
  8
0
 10
-18.3481
 20
47.8378
 11
-21.3483
 21
53.0339
  0
LINE
  8
0
 10
38.6517
 20
53.0339
 11
43.8474
 21
56.0341
  0
LINE
  8
0
 10
43.8474
 20
56.0341
 11
44.5985
 21
54.7333
  0
LINE
  8
0
 10
44.5985
 20
54.7333
 11
46.0199
 21
50.3589
  0
LINE
  8
0
 10
46.0199
 20
50.3589
 11
41.6519
 21
47.8378
  0
LINE
  8
0
 10
41.6519
 20
47.8378
 11
38.6517
 21
53.0339
  0
LINE
  8
0
 10
-44.8876
 20
53.8435
 11
-43.1516
 21
50.8371
  0
LINE
  8
0
 10
-43.1516
 20
50.8371
 11
-46.4907
 21
48.9099
  0
LINE
  8
0
 10
-46.4907
 20
48.9099
 11
-44.8876
 21
53.8435
  0
LINE
  8
0
 10
-37.5
 20
45.0391
 11
-37.5
 21
51.0385
  0
LINE
  8
0
 10
-37.5
 20
51.0385
 11
-31.4996
 21
51.0385
  0
LINE
  8
0
 10
-31.4996
 20
51.0385
 11
-31.4996
 21
45.0391
  0
LINE
  8
0
 10
-31.4996
 20
45.0391
 11
-37.5
 21
45.0391
  0
LINE
  8
0
 10
-28.5004
 20
45.0391
 11
-28.5004
 21
51.0385
  0
LINE
  8
0
 10
-28.5004
 20
51.0385
 11
-22.5
 21
51.0385
  0
LINE
  8
0
 10
-22.5
 20
51.0385
 11
-22.5
 21
45.0391
  0
LINE
  8
0
 10
-22.5
 20
45.0391
 11
-28.5004
 21
45.0391
  0
LINE
  8
0
 10
-7.5
 20
45.0391
 11
-7.5
 21
51.0385
  0
LINE
  8
0
 10
-7.5
 20
51.0385
 11
-1.49963
 21
51.0385
  0
LINE
  8
0
 10
-1.49963
 20
51.0385
 11
-1.49963
 21
45.0391
  0
LINE
  8
0
 10
-1.49963
 20
45.0391
 11
-7.5
 21
45.0391
  0
LINE
  8
0
 10
1.49963
 20
45.0391
 11
1.49963
 21
51.0385
  0
LINE
  8
0
 10
1.49963
 20
51.0385
 11
7.5
 21
51.0385
  0
LINE
  8
0
 10
7.5
 20
51.0385
 11
7.5
 21
45.0391
  0
LINE
  8
0
 10
7.5
 20
45.0391
 11
1.49963
 21
45.0391
  0
LINE
  8
0
 10
22.5
 20
45.0391
 11
22.5
 21
51.0385
  0
LINE
  8
0
 10
22.5
 20
51.0385
 11
28.5004
 21
51.0385
  0
LINE
  8
0
 10
28.5004
 20
51.0385
 11
28.5004
 21
45.0391
  0
LINE
  8
0
 10
28.5004
 20
45.0391
 11
22.5
 21
45.0391
  0
LINE
  8
0
 10
31.4996
 20
45.0391
 11
31.4996
 21
51.0385
  0
LINE
  8
0
 10
31.4996
 20
51.0385
 11
37.5
 21
51.0385
  0
LINE
  8
0
 10
37.5
 20
51.0385
 11
37.5
 21
45.0391
  0
LINE
  8
0
 10
37.5
 20
45.0391
 11
31.4996
 21
45.0391
  0
LINE
  8
0
 10
13.1516
 20
45.2405
 11
18.3481
 21
48.2397
  0
LINE
  8
0
 10
18.3481
 20
48.2397
 11
21.3483
 21
43.0437
  0
LINE
  8
0
 10
21.3483
 20
43.0437
 11
16.1526
 21
40.0435
  0
LINE
  8
0
 10
16.1526
 20
40.0435
 11
13.1516
 21
45.2405
  0
LINE
  8
0
 10
-16.8484
 20
45.2405
 11
-11.6519
 21
48.2397
  0
LINE
  8
0
 10
-11.6519
 20
48.2397
 11
-8.65173
 21
43.0437
  0
LINE
  8
0
 10
-8.65173
 20
43.0437
 11
-13.8474
 21
40.0435
  0
LINE
  8
0
 10
-13.8474
 20
40.0435
 11
-16.8484
 21
45.2405
  0
LINE
  8
0
 10
-46.8484
 20
45.2405
 11
-41.6519
 21
48.2397
  0
LINE
  8
0
 10
-41.6519
 20
48.2397
 11
-38.6517
 21
43.0437
  0
LINE
  8
0
 10
-38.6517
 20
43.0437
 11
-43.8474
 21
40.0435
  0
LINE
  8
0
 10
-43.8474
 20
40.0435
 11
-46.8484
 21
45.2405
  0
LINE
  8
0
 10
43.1516
 20
45.2405
 11
46.9673
 21
47.4428
  0
LINE
  8
0
 10
46.9673
 20
47.4428
 11
48.863
 21
41.6086
  0
LINE
  8
0
 10
48.863
 20
41.6086
 11
46.1526
 21
40.0435
  0
LINE
  8
0
 10
46.1526
 20
40.0435
 11
43.1516
 21
45.2405
  0
LINE
  8
0
 10
20.652
 20
37.8471
 11
23.6522
 21
43.0437
  0
LINE
  8
0
 10
23.6522
 20
43.0437
 11
28.8483
 21
40.0439
  0
LINE
  8
0
 10
28.8483
 20
40.0439
 11
25.8476
 21
34.847
  0
LINE
  8
0
 10
25.8476
 20
34.847
 11
20.652
 21
37.8471
  0
LINE
  8
0
 10
-9.34799
 20
37.8471
 11
-6.34781
 21
43.0437
  0
LINE
  8
0
 10
-6.34781
 20
43.0437
 11
-1.15173
 21
40.0439
  0
LINE
  8
0
 10
-1.15173
 20
40.0439
 11
-4.15237
 21
34.847
  0
LINE
  8
0
 10
-4.15237
 20
34.847
 11
-9.34799
 21
37.8471
  0
LINE
  8
0
 10
-39.348
 20
37.8471
 11
-36.3478
 21
43.0437
  0
LINE
  8
0
 10
-36.3478
 20
43.0437
 11
-31.1517
 21
40.0439
  0
LINE
  8
0
 10
-31.1517
 20
40.0439
 11
-34.1524
 21
34.847
  0
LINE
  8
0
 10
-34.1524
 20
34.847
 11
-39.348
 21
37.8471
  0
LINE
  8
0
 10
46.1517
 20
30.0528
 11
49.1524
 21
35.2498
  0
LINE
  8
0
 10
49.1524
 20
35.2498
 11
51.3394
 21
33.9869
  0
LINE
  8
0
 10
51.3394
 20
33.9869
 11
52.7841
 21
29.5408
  0
LINE
  8
0
 10
52.7841
 20
29.5408
 11
51.3478
 21
27.0531
  0
LINE
  8
0
 10
51.3478
 20
27.0531
 11
46.1517
 21
30.0528
  0
LINE
  8
0
 10
-43.8483
 20
30.0528
 11
-40.8476
 21
35.2498
  0
LINE
  8
0
 10
-40.8476
 20
35.2498
 11
-35.652
 21
32.2496
  0
LINE
  8
0
 10
-35.652
 20
32.2496
 11
-38.6522
 21
27.0531
  0
LINE
  8
0
 10
-38.6522
 20
27.0531
 11
-43.8483
 21
30.0528
  0
LINE
  8
0
 10
-13.8483
 20
30.0528
 11
-10.8476
 21
35.2498
  0
LINE
  8
0
 10
-10.8476
 20
35.2498
 11
-5.65201
 21
32.2496
  0
LINE
  8
0
 10
-5.65201
 20
32.2496
 11
-8.65219
 21
27.0531
  0
LINE
  8
0
 10
-8.65219
 20
27.0531
 11
-13.8483
 21
30.0528
  0
LINE
  8
0
 10
16.1517
 20
30.0528
 11
19.1524
 21
35.2498
  0
LINE
  8
0
 10
19.1524
 20
35.2498
 11
24.348
 21
32.2496
  0
LINE
  8
0
 10
24.348
 20
32.2496
 11
21.3478
 21
27.0531
  0
LINE
  8
0
 10
21.3478
 20
27.0531
 11
16.1517
 21
30.0528
  0
LINE
  8
0
 10
-6.34827
 20
27.0531
 11
-1.15265
 21
30.0533
  0
LINE
  8
0
 10
-1.15265
 20
30.0533
 11
1.84845
 21
24.8563
  0
LINE
  8
0
 10
1.84845
 20
24.8563
 11
-3.34808
 21
21.857
  0
LINE
  8
0
 10
-3.34808
 20
21.857
 11
-6.34827
 21
27.0531
  0
LINE
  8
0
 10
-36.3483
 20
27.0531
 11
-31.1526
 21
30.0533
  0
LINE
  8
0
 10
-31.1526
 20
30.0533
 11
-28.1516
 21
24.8563
  0
LINE
  8
0
 10
-28.1516
 20
24.8563
 11
-33.3481
 21
21.857
  0
LINE
  8
0
 10
-33.3481
 20
21.857
 11
-36.3483
 21
27.0531
  0
LINE
  8
0
 10
23.6517
 20
27.0531
 11
28.8474
 21
30.0533
  0
LINE
  8
0
 10
28.8474
 20
30.0533
 11
31.8484
 21
24.8563
  0
LINE
  8
0
 10
31.8484
 20
24.8563
 11
26.6519
 21
21.857
  0
LINE
  8
0
 10
26.6519
 20
21.857
 11
23.6517
 21
27.0531
  0
LINE
  8
0
 10
-52.5
 20
19.0582
 11
-52.5
 21
25.0577
  0
LINE
  8
0
 10
-52.5
 20
25.0577
 11
-46.4996
 21
25.0577
  0
LINE
  8
0
 10
-46.4996
 20
25.0577
 11
-46.4996
 21
19.0582
  0
LINE
  8
0
 10
-46.4996
 20
19.0582
 11
-52.5
 21
19.0582
  0
LINE
  8
0
 10
-43.5004
 20
19.0582
 11
-43.5004
 21
25.0577
  0
LINE
  8
0
 10
-43.5004
 20
25.0577
 11
-37.5
 21
25.0577
  0
LINE
  8
0
 10
-37.5
 20
25.0577
 11
-37.5
 21
19.0582
  0
LINE
  8
0
 10
-37.5
 20
19.0582
 11
-43.5004
 21
19.0582
  0
LINE
  8
0
 10
-22.5
 20
19.0582
 11
-22.5
 21
25.0577
  0
LINE
  8
0
 10
-22.5
 20
25.0577
 11
-16.4996
 21
25.0577
  0
LINE
  8
0
 10
-16.4996
 20
25.0577
 11
-16.4996
 21
19.0582
  0
LINE
  8
0
 10
-16.4996
 20
19.0582
 11
-22.5
 21
19.0582
  0
LINE
  8
0
 10
-13.5004
 20
19.0582
 11
-13.5004
 21
25.0577
  0
LINE
  8
0
 10
-13.5004
 20
25.0577
 11
-7.5
 21
25.0577
  0
LINE
  8
0
 10
-7.5
 20
25.0577
 11
-7.5
 21
19.0582
  0
LINE
  8
0
 10
-7.5
 20
19.0582
 11
-13.5004
 21
19.0582
  0
LINE
  8
0
 10
7.5
 20
19.0582
 11
7.5
 21
25.0577
  0
LINE
  8
0
 10
7.5
 20
25.0577
 11
13.5004
 21
25.0577
  0
LINE
  8
0
 10
13.5004
 20
25.0577
 11
13.5004
 21
19.0582
  0
LINE
  8
0
 10
13.5004
 20
19.0582
 11
7.5
 21
19.0582
  0
LINE
  8
0
 10
16.4996
 20
19.0582
 11
16.4996
 21
25.0577
  0
LINE
  8
0
 10
16.4996
 20
25.0577
 11
22.5
 21
25.0577
  0
LINE
  8
0
 10
22.5
 20
25.0577
 11
22.5
 21
19.0582
  0
LINE
  8
0
 10
22.5
 20
19.0582
 11
16.4996
 21
19.0582
  0
LINE
  8
0
 10
37.5
 20
19.0582
 11
37.5
 21
25.0577
  0
LINE
  8
0
 10
37.5
 20
25.0577
 11
43.5004
 21
25.0577
  0
LINE
  8
0
 10
43.5004
 20
25.0577
 11
43.5004
 21
19.0582
  0
LINE
  8
0
 10
43.5004
 20
19.0582
 11
37.5
 21
19.0582
  0
LINE
  8
0
 10
46.4996
 20
19.0582
 11
46.4996
 21
25.0577
  0
LINE
  8
0
 10
46.4996
 20
25.0577
 11
52.5
 21
25.0577
  0
LINE
  8
0
 10
52.5
 20
25.0577
 11
52.5
 21
19.0582
  0
LINE
  8
0
 10
52.5
 20
19.0582
 11
46.4996
 21
19.0582
  0
LINE
  8
0
 10
-31.8484
 20
19.2596
 11
-26.6519
 21
22.2589
  0
LINE
  8
0
 10
-26.6519
 20
22.2589
 11
-23.6517
 21
17.0628
  0
LINE
  8
0
 10
-23.6517
 20
17.0628
 11
-28.8474
 21
14.0627
  0
LINE
  8
0
 10
-28.8474
 20
14.0627
 11
-31.8484
 21
19.2596
  0
LINE
  8
0
 10
-1.84845
 20
19.2596
 11
3.34808
 21
22.2589
  0
LINE
  8
0
 10
3.34808
 20
22.2589
 11
6.34827
 21
17.0628
  0
LINE
  8
0
 10
6.34827
 20
17.0628
 11
1.15265
 21
14.0627
  0
LINE
  8
0
 10
1.15265
 20
14.0627
 11
-1.84845
 21
19.2596
  0
LINE
  8
0
 10
28.1516
 20
19.2596
 11
33.3481
 21
22.2589
  0
LINE
  8
0
 10
33.3481
 20
22.2589
 11
36.3483
 21
17.0628
  0
LINE
  8
0
 10
36.3483
 20
17.0628
 11
31.1526
 21
14.0627
  0
LINE
  8
0
 10
31.1526
 20
14.0627
 11
28.1516
 21
19.2596
  0
LINE
  8
0
 10
-55.6909
 20
20.5945
 11
-53.6517
 21
17.0628
  0
LINE
  8
0
 10
-53.6517
 20
17.0628
 11
-57.5744
 21
14.7977
  0
LINE
  8
0
 10
-57.5744
 20
14.7977
 11
-55.6909
 21
20.5945
  0
LINE
  8
0
 10
-24.2708
 20
12
 11
-21.3478
 21
17.0628
  0
LINE
  8
0
 10
-21.3478
 20
17.0628
 11
-16.1517
 21
14.0631
  0
LINE
  8
0
 10
-16.1517
 20
14.0631
 11
-17.3429
 21
12
  0
LINE
  8
0
 10
-17.3429
 20
12
 11
-24.2708
 21
12
  0
LINE
  8
0
 10
35.7292
 20
12
 11
38.6522
 21
17.0628
  0
LINE
  8
0
 10
38.6522
 20
17.0628
 11
43.8483
 21
14.0631
  0
LINE
  8
0
 10
43.8483
 20
14.0631
 11
42.6571
 21
12
  0
LINE
  8
0
 10
42.6571
 20
12
 11
35.7292
 21
12
  0
LINE
  8
0
 10
5.7292
 20
12
 11
8.65219
 21
17.0628
  0
LINE
  8
0
 10
8.65219
 20
17.0628
 11
13.8483
 21
14.0631
  0
LINE
  8
0
 10
13.8483
 20
14.0631
 11
12.6571
 21
12
  0
LINE
  8
0
 10
12.6571
 20
12
 11
5.7292
 21
12
  0
LINE
  8
0
 10
-54.2708
 20
12
 11
-51.3478
 21
17.0628
  0
LINE
  8
0
 10
-51.3478
 20
17.0628
 11
-46.1517
 21
14.0631
  0
LINE
  8
0
 10
-46.1517
 20
14.0631
 11
-47.3429
 21
12
  0
LINE
  8
0
 10
-47.3429
 20
12
 11
-54.2708
 21
12
  0
LINE
  8
0
 10
-10
 20
7
 11
-10
 21
11
  0
LINE
  8
0
 10
-10
 20
11
 11
10
 21
11
  0
LINE
  8
0
 10
10
 20
11
 11
10
 21
7
  0
LINE
  8
0
 10
10
 20
7
 11
-10
 21
7
  0
LINE
  8
0
 10
-68.6534
 20
2.70622
 11
-68.7785
 21
2.71805
  0
LINE
  8
0
 10
-68.7785
 20
2.71805
 11
-68.9026
 21
2.7377
  0
LINE
  8
0
 10
-68.9026
 20
2.7377
 11
-69.0252
 21
2.76511
  0
LINE
  8
0
 10
-69.0252
 20
2.76511
 11
-69.1459
 21
2.80016
  0
LINE
  8
0
 10
-69.1459
 20
2.80016
 11
-69.2641
 21
2.84273
  0
LINE
  8
0
 10
-69.2641
 20
2.84273
 11
-69.3794
 21
2.89262
  0
LINE
  8
0
 10
-69.3794
 20
2.89262
 11
-69.4914
 21
2.94966
  0
LINE
  8
0
 10
-69.4914
 20
2.94966
 11
-69.5995
 21
3.01363
  0
LINE
  8
0
 10
-69.5995
 20
3.01363
 11
-69.7034
 21
3.08424
  0
LINE
  8
0
 10
-69.7034
 20
3.08424
 11
-69.8027
 21
3.16125
  0
LINE
  8
0
 10
-69.8027
 20
3.16125
 11
-69.897
 21
3.24434
  0
LINE
  8
0
 10
-69.897
 20
3.24434
 11
-69.9858
 21
3.33318
  0
LINE
  8
0
 10
-69.9858
 20
3.33318
 11
-70.0689
 21
3.42743
  0
LINE
  8
0
 10
-70.0689
 20
3.42743
 11
-70.1459
 21
3.5267
  0
LINE
  8
0
 10
-70.1459
 20
3.5267
 11
-70.2165
 21
3.63062
  0
LINE
  8
0
 10
-70.2165
 20
3.63062
 11
-70.2805
 21
3.73877
  0
LINE
  8
0
 10
-70.2805
 20
3.73877
 11
-70.3375
 21
3.85072
  0
LINE
  8
0
 10
-70.3375
 20
3.85072
 11
-70.3874
 21
3.96602
  0
LINE
  8
0
 10
-70.3874
 20
3.96602
 11
-70.43
 21
4.08424
  0
LINE
  8
0
 10
-70.43
 20
4.08424
 11
-70.465
 21
4.2049
  0
LINE
  8
0
 10
-70.465
 20
4.2049
 11
-70.4924
 21
4.32751
  0
LINE
  8
0
 10
-70.4924
 20
4.32751
 11
-70.5121
 21
4.45161
  0
LINE
  8
0
 10
-70.5121
 20
4.45161
 11
-70.5239
 21
4.57669
  0
LINE
  8
0
 10
-70.5239
 20
4.57669
 11
-70.5279
 21
4.70227
  0
LINE
  8
0
 10
-70.5279
 20
4.70227
 11
-70.5239
 21
4.82785
  0
LINE
  8
0
 10
-70.5239
 20
4.82785
 11
-70.5121
 21
4.95294
  0
LINE
  8
0
 10
-70.5121
 20
4.95294
 11
-70.4924
 21
5.07704
  0
LINE
  8
0
 10
-70.4924
 20
5.07704
 11
-70.465
 21
5.19966
  0
LINE
  8
0
 10
-70.465
 20
5.19966
 11
-70.43
 21
5.32031
  0
LINE
  8
0
 10
-70.43
 20
5.32031
 11
-70.3874
 21
5.43852
  0
LINE
  8
0
 10
-70.3874
 20
5.43852
 11
-70.3375
 21
5.55383
  0
LINE
  8
0
 10
-70.3375
 20
5.55383
 11
-70.2805
 21
5.66579
  0
LINE
  8
0
 10
-70.2805
 20
5.66579
 11
-70.2165
 21
5.77393
  0
LINE
  8
0
 10
-70.2165
 20
5.77393
 11
-70.1459
 21
5.87784
  0
LINE
  8
0
 10
-70.1459
 20
5.87784
 11
-70.0689
 21
5.97713
  0
LINE
  8
0
 10
-70.0689
 20
5.97713
 11
-69.9858
 21
6.07137
  0
LINE
  8
0
 10
-69.9858
 20
6.07137
 11
-69.897
 21
6.16022
  0
LINE
  8
0
 10
-69.897
 20
6.16022
 11
-69.8027
 21
6.2433
  0
LINE
  8
0
 10
-69.8027
 20
6.2433
 11
-69.7034
 21
6.32031
  0
LINE
  8
0
 10
-69.7034
 20
6.32031
 11
-69.5995
 21
6.39093
  0
LINE
  8
0
 10
-69.5995
 20
6.39093
 11
-69.4914
 21
6.4549
  0
LINE
  8
0
 10
-69.4914
 20
6.4549
 11
-69.3794
 21
6.51193
  0
LINE
  8
0
 10
-69.3794
 20
6.51193
 11
-69.2641
 21
6.56183
  0
LINE
  8
0
 10
-69.2641
 20
6.56183
 11
-69.1459
 21
6.60439
  0
LINE
  8
0
 10
-69.1459
 20
6.60439
 11
-69.0252
 21
6.63943
  0
LINE
  8
0
 10
-69.0252
 20
6.63943
 11
-68.9026
 21
6.66685
  0
LINE
  8
0
 10
-68.9026
 20
6.66685
 11
-68.7785
 21
6.68651
  0
LINE
  8
0
 10
-68.7785
 20
6.68651
 11
-68.6534
 21
6.69833
  0
LINE
  8
0
 10
-68.6534
 20
6.69833
 11
-68.5279
 21
6.70227
  0
LINE
  8
0
 10
-68.5279
 20
6.70227
 11
-68.4023
 21
6.69833
  0
LINE
  8
0
 10
-68.4023
 20
6.69833
 11
-68.2772
 21
6.68651
  0
LINE
  8
0
 10
-68.2772
 20
6.68651
 11
-68.1531
 21
6.66685
  0
LINE
  8
0
 10
-68.1531
 20
6.66685
 11
-68.0305
 21
6.63943
  0
LINE
  8
0
 10
-68.0305
 20
6.63943
 11
-67.9098
 21
6.60439
  0
LINE
  8
0
 10
-67.9098
 20
6.60439
 11
-67.7916
 21
6.56183
  0
LINE
  8
0
 10
-67.7916
 20
6.56183
 11
-67.6763
 21
6.51193
  0
LINE
  8
0
 10
-67.6763
 20
6.51193
 11
-67.5643
 21
6.4549
  0
LINE
  8
0
 10
-67.5643
 20
6.4549
 11
-67.4562
 21
6.39093
  0
LINE
  8
0
 10
-67.4562
 20
6.39093
 11
-67.3523
 21
6.32031
  0
LINE
  8
0
 10
-67.3523
 20
6.32031
 11
-67.253
 21
6.2433
  0
LINE
  8
0
 10
-67.253
 20
6.2433
 11
-67.1588
 21
6.16022
  0
LINE
  8
0
 10
-67.1588
 20
6.16022
 11
-67.0699
 21
6.07137
  0
LINE
  8
0
 10
-67.0699
 20
6.07137
 11
-66.9868
 21
5.97713
  0
LINE
  8
0
 10
-66.9868
 20
5.97713
 11
-66.9098
 21
5.87784
  0
LINE
  8
0
 10
-66.9098
 20
5.87784
 11
-66.8392
 21
5.77393
  0
LINE
  8
0
 10
-66.8392
 20
5.77393
 11
-66.7752
 21
5.66579
  0
LINE
  8
0
 10
-66.7752
 20
5.66579
 11
-66.7182
 21
5.55383
  0
LINE
  8
0
 10
-66.7182
 20
5.55383
 11
-66.6683
 21
5.43852
  0
LINE
  8
0
 10
-66.6683
 20
5.43852
 11
-66.6257
 21
5.32031
  0
LINE
  8
0
 10
-66.6257
 20
5.32031
 11
-66.5907
 21
5.19966
  0
LINE
  8
0
 10
-66.5907
 20
5.19966
 11
-66.5633
 21
5.07704
  0
LINE
  8
0
 10
-66.5633
 20
5.07704
 11
-66.5436
 21
4.95294
  0
LINE
  8
0
 10
-66.5436
 20
4.95294
 11
-66.5318
 21
4.82785
  0
LINE
  8
0
 10
-66.5318
 20
4.82785
 11
-66.5279
 21
4.70227
  0
LINE
  8
0
 10
-66.5279
 20
4.70227
 11
-66.5318
 21
4.57669
  0
LINE
  8
0
 10
-66.5318
 20
4.57669
 11
-66.5436
 21
4.45161
  0
LINE
  8
0
 10
-66.5436
 20
4.45161
 11
-66.5633
 21
4.32751
  0
LINE
  8
0
 10
-66.5633
 20
4.32751
 11
-66.5907
 21
4.2049
  0
LINE
  8
0
 10
-66.5907
 20
4.2049
 11
-66.6257
 21
4.08424
  0
LINE
  8
0
 10
-66.6257
 20
4.08424
 11
-66.6683
 21
3.96602
  0
LINE
  8
0
 10
-66.6683
 20
3.96602
 11
-66.7182
 21
3.85072
  0
LINE
  8
0
 10
-66.7182
 20
3.85072
 11
-66.7752
 21
3.73877
  0
LINE
  8
0
 10
-66.7752
 20
3.73877
 11
-66.8392
 21
3.63062
  0
LINE
  8
0
 10
-66.8392
 20
3.63062
 11
-66.9098
 21
3.5267
  0
LINE
  8
0
 10
-66.9098
 20
3.5267
 11
-66.9868
 21
3.42743
  0
LINE
  8
0
 10
-66.9868
 20
3.42743
 11
-67.0699
 21
3.33318
  0
LINE
  8
0
 10
-67.0699
 20
3.33318
 11
-67.1588
 21
3.24434
  0
LINE
  8
0
 10
-67.1588
 20
3.24434
 11
-67.253
 21
3.16125
  0
LINE
  8
0
 10
-67.253
 20
3.16125
 11
-67.3523
 21
3.08424
  0
LINE
  8
0
 10
-67.3523
 20
3.08424
 11
-67.4562
 21
3.01363
  0
LINE
  8
0
 10
-67.4562
 20
3.01363
 11
-67.5643
 21
2.94966
  0
LINE
  8
0
 10
-67.5643
 20
2.94966
 11
-67.6763
 21
2.89262
  0
LINE
  8
0
 10
-67.6763
 20
2.89262
 11
-67.7916
 21
2.84273
  0
LINE
  8
0
 10
-67.7916
 20
2.84273
 11
-67.9098
 21
2.80016
  0
LINE
  8
0
 10
-67.9098
 20
2.80016
 11
-68.0305
 21
2.76511
  0
LINE
  8
0
 10
-68.0305
 20
2.76511
 11
-68.1531
 21
2.7377
  0
LINE
  8
0
 10
-68.1531
 20
2.7377
 11
-68.2772
 21
2.71805
  0
LINE
  8
0
 10
-68.2772
 20
2.71805
 11
-68.4023
 21
2.70622
  0
LINE
  8
0
 10
-68.4023
 20
2.70622
 11
-68.5279
 21
2.70227
  0
LINE
  8
0
 10
-68.5279
 20
2.70227
 11
-68.6534
 21
2.70622
  0
LINE
  8
0
 10
68.4023
 20
2.70622
 11
68.2772
 21
2.71805
  0
LINE
  8
0
 10
68.2772
 20
2.71805
 11
68.1531
 21
2.7377
  0
LINE
  8
0
 10
68.1531
 20
2.7377
 11
68.0305
 21
2.76511
  0
LINE
  8
0
 10
68.0305
 20
2.76511
 11
67.9098
 21
2.80016
  0
LINE
  8
0
 10
67.9098
 20
2.80016
 11
67.7916
 21
2.84273
  0
LINE
  8
0
 10
67.7916
 20
2.84273
 11
67.6763
 21
2.89262
  0
LINE
  8
0
 10
67.6763
 20
2.89262
 11
67.5643
 21
2.94966
  0
LINE
  8
0
 10
67.5643
 20
2.94966
 11
67.4562
 21
3.01363
  0
LINE
  8
0
 10
67.4562
 20
3.01363
 11
67.3523
 21
3.08424
  0
LINE
  8
0
 10
67.3523
 20
3.08424
 11
67.253
 21
3.16125
  0
LINE
  8
0
 10
67.253
 20
3.16125
 11
67.1588
 21
3.24434
  0
LINE
  8
0
 10
67.1588
 20
3.24434
 11
67.0699
 21
3.33318
  0
LINE
  8
0
 10
67.0699
 20
3.33318
 11
66.9868
 21
3.42743
  0
LINE
  8
0
 10
66.9868
 20
3.42743
 11
66.9098
 21
3.5267
  0
LINE
  8
0
 10
66.9098
 20
3.5267
 11
66.8392
 21
3.63062
  0
LINE
  8
0
 10
66.8392
 20
3.63062
 11
66.7752
 21
3.73877
  0
LINE
  8
0
 10
66.7752
 20
3.73877
 11
66.7182
 21
3.85072
  0
LINE
  8
0
 10
66.7182
 20
3.85072
 11
66.6683
 21
3.96602
  0
LINE
  8
0
 10
66.6683
 20
3.96602
 11
66.6257
 21
4.08424
  0
LINE
  8
0
 10
66.6257
 20
4.08424
 11
66.5907
 21
4.2049
  0
LINE
  8
0
 10
66.5907
 20
4.2049
 11
66.5633
 21
4.32751
  0
LINE
  8
0
 10
66.5633
 20
4.32751
 11
66.5436
 21
4.45161
  0
LINE
  8
0
 10
66.5436
 20
4.45161
 11
66.5318
 21
4.57669
  0
LINE
  8
0
 10
66.5318
 20
4.57669
 11
66.5279
 21
4.70227
  0
LINE
  8
0
 10
66.5279
 20
4.70227
 11
66.5318
 21
4.82785
  0
LINE
  8
0
 10
66.5318
 20
4.82785
 11
66.5436
 21
4.95294
  0
LINE
  8
0
 10
66.5436
 20
4.95294
 11
66.5633
 21
5.07704
  0
LINE
  8
0
 10
66.5633
 20
5.07704
 11
66.5907
 21
5.19966
  0
LINE
  8
0
 10
66.5907
 20
5.19966
 11
66.6257
 21
5.32031
  0
LINE
  8
0
 10
66.6257
 20
5.32031
 11
66.6683
 21
5.43852
  0
LINE
  8
0
 10
66.6683
 20
5.43852
 11
66.7182
 21
5.55383
  0
LINE
  8
0
 10
66.7182
 20
5.55383
 11
66.7752
 21
5.66579
  0
LINE
  8
0
 10
66.7752
 20
5.66579
 11
66.8392
 21
5.77393
  0
LINE
  8
0
 10
66.8392
 20
5.77393
 11
66.9098
 21
5.87784
  0
LINE
  8
0
 10
66.9098
 20
5.87784
 11
66.9868
 21
5.97713
  0
LINE
  8
0
 10
66.9868
 20
5.97713
 11
67.0699
 21
6.07137
  0
LINE
  8
0
 10
67.0699
 20
6.07137
 11
67.1588
 21
6.16022
  0
LINE
  8
0
 10
67.1588
 20
6.16022
 11
67.253
 21
6.2433
  0
LINE
  8
0
 10
67.253
 20
6.2433
 11
67.3523
 21
6.32031
  0
LINE
  8
0
 10
67.3523
 20
6.32031
 11
67.4562
 21
6.39093
  0
LINE
  8
0
 10
67.4562
 20
6.39093
 11
67.5643
 21
6.4549
  0
LINE
  8
0
 10
67.5643
 20
6.4549
 11
67.6763
 21
6.51193
  0
LINE
  8
0
 10
67.6763
 20
6.51193
 11
67.7916
 21
6.56183
  0
LINE
  8
0
 10
67.7916
 20
6.56183
 11
67.9098
 21
6.60439
  0
LINE
  8
0
 10
67.9098
 20
6.60439
 11
68.0305
 21
6.63943
  0
LINE
  8
0
 10
68.0305
 20
6.63943
 11
68.1531
 21
6.66685
  0
LINE
  8
0
 10
68.1531
 20
6.66685
 11
68.2772
 21
6.68651
  0
LINE
  8
0
 10
68.2772
 20
6.68651
 11
68.4023
 21
6.69833
  0
LINE
  8
0
 10
68.4023
 20
6.69833
 11
68.5279
 21
6.70227
  0
LINE
  8
0
 10
68.5279
 20
6.70227
 11
68.6534
 21
6.69833
  0
LINE
  8
0
 10
68.6534
 20
6.69833
 11
68.7785
 21
6.68651
  0
LINE
  8
0
 10
68.7785
 20
6.68651
 11
68.9026
 21
6.66685
  0
LINE
  8
0
 10
68.9026
 20
6.66685
 11
69.0252
 21
6.63943
  0
LINE
  8
0
 10
69.0252
 20
6.63943
 11
69.1459
 21
6.60439
  0
LINE
  8
0
 10
69.1459
 20
6.60439
 11
69.2641
 21
6.56183
  0
LINE
  8
0
 10
69.2641
 20
6.56183
 11
69.3794
 21
6.51193
  0
LINE
  8
0
 10
69.3794
 20
6.51193
 11
69.4914
 21
6.4549
  0
LINE
  8
0
 10
69.4914
 20
6.4549
 11
69.5995
 21
6.39093
  0
LINE
  8
0
 10
69.5995
 20
6.39093
 11
69.7034
 21
6.32031
  0
LINE
  8
0
 10
69.7034
 20
6.32031
 11
69.8027
 21
6.2433
  0
LINE
  8
0
 10
69.8027
 20
6.2433
 11
69.897
 21
6.16022
  0
LINE
  8
0
 10
69.897
 20
6.16022
 11
69.9858
 21
6.07137
  0
LINE
  8
0
 10
69.9858
 20
6.07137
 11
70.0689
 21
5.97713
  0
LINE
  8
0
 10
70.0689
 20
5.97713
 11
70.1459
 21
5.87784
  0
LINE
  8
0
 10
70.1459
 20
5.87784
 11
70.2165
 21
5.77393
  0
LINE
  8
0
 10
70.2165
 20
5.77393
 11
70.2805
 21
5.66579
  0
LINE
  8
0
 10
70.2805
 20
5.66579
 11
70.3375
 21
5.55383
  0
LINE
  8
0
 10
70.3375
 20
5.55383
 11
70.3874
 21
5.43852
  0
LINE
  8
0
 10
70.3874
 20
5.43852
 11
70.43
 21
5.32031
  0
LINE
  8
0
 10
70.43
 20
5.32031
 11
70.465
 21
5.19966
  0
LINE
  8
0
 10
70.465
 20
5.19966
 11
70.4924
 21
5.07704
  0
LINE
  8
0
 10
70.4924
 20
5.07704
 11
70.5121
 21
4.95294
  0
LINE
  8
0
 10
70.5121
 20
4.95294
 11
70.5239
 21
4.82785
  0
LINE
  8
0
 10
70.5239
 20
4.82785
 11
70.5279
 21
4.70227
  0
LINE
  8
0
 10
70.5279
 20
4.70227
 11
70.5239
 21
4.57669
  0
LINE
  8
0
 10
70.5239
 20
4.57669
 11
70.5121
 21
4.45161
  0
LINE
  8
0
 10
70.5121
 20
4.45161
 11
70.4924
 21
4.32751
  0
LINE
  8
0
 10
70.4924
 20
4.32751
 11
70.465
 21
4.2049
  0
LINE
  8
0
 10
70.465
 20
4.2049
 11
70.43
 21
4.08424
  0
LINE
  8
0
 10
70.43
 20
4.08424
 11
70.3874
 21
3.96602
  0
LINE
  8
0
 10
70.3874
 20
3.96602
 11
70.3375
 21
3.85072
  0
LINE
  8
0
 10
70.3375
 20
3.85072
 11
70.2805
 21
3.73877
  0
LINE
  8
0
 10
70.2805
 20
3.73877
 11
70.2165
 21
3.63062
  0
LINE
  8
0
 10
70.2165
 20
3.63062
 11
70.1459
 21
3.5267
  0
LINE
  8
0
 10
70.1459
 20
3.5267
 11
70.0689
 21
3.42743
  0
LINE
  8
0
 10
70.0689
 20
3.42743
 11
69.9858
 21
3.33318
  0
LINE
  8
0
 10
69.9858
 20
3.33318
 11
69.897
 21
3.24434
  0
LINE
  8
0
 10
69.897
 20
3.24434
 11
69.8027
 21
3.16125
  0
LINE
  8
0
 10
69.8027
 20
3.16125
 11
69.7034
 21
3.08424
  0
LINE
  8
0
 10
69.7034
 20
3.08424
 11
69.5995
 21
3.01363
  0
LINE
  8
0
 10
69.5995
 20
3.01363
 11
69.4914
 21
2.94966
  0
LINE
  8
0
 10
69.4914
 20
2.94966
 11
69.3794
 21
2.89262
  0
LINE
  8
0
 10
69.3794
 20
2.89262
 11
69.2641
 21
2.84273
  0
LINE
  8
0
 10
69.2641
 20
2.84273
 11
69.1459
 21
2.80016
  0
LINE
  8
0
 10
69.1459
 20
2.80016
 11
69.0252
 21
2.76511
  0
LINE
  8
0
 10
69.0252
 20
2.76511
 11
68.9026
 21
2.7377
  0
LINE
  8
0
 10
68.9026
 20
2.7377
 11
68.7785
 21
2.71805
  0
LINE
  8
0
 10
68.7785
 20
2.71805
 11
68.6534
 21
2.70622
  0
LINE
  8
0
 10
68.6534
 20
2.70622
 11
68.5279
 21
2.70227
  0
LINE
  8
0
 10
68.5279
 20
2.70227
 11
68.4023
 21
2.70622
  0
ENDSEC
  0
SECTION
  2
OBJECTS
  0
DICTIONARY
  0
ENDSEC
  0
EOF
