  0
SECTION
  2
BLOCKS
  0
ENDSEC
  0
SECTION
  2
ENTITIES
  0
LINE
  8
0
 10
0
 20
230.826
 11
-75
 21
0
  0
LINE
  8
0
 10
-75
 20
0
 11
75
 21
0
  0
LINE
  8
0
 10
75
 20
0
 11
0
 21
230.826
  0
LINE
  8
0
 10
-0.12558
 20
212.83
 11
-0.250656
 21
212.842
  0
LINE
  8
0
 10
-0.250656
 20
212.842
 11
-0.374756
 21
212.862
  0
LINE
  8
0
 10
-0.374756
 20
212.862
 11
-0.497375
 21
212.889
  0
LINE
  8
0
 10
-0.497375
 20
212.889
 11
-0.618027
 21
212.924
  0
LINE
  8
0
 10
-0.618027
 20
212.924
 11
-0.736237
 21
212.967
  0
LINE
  8
0
 10
-0.736237
 20
212.967
 11
-0.851547
 21
213.017
  0
LINE
  8
0
 10
-0.851547
 20
213.017
 11
-0.963501
 21
213.074
  0
LINE
  8
0
 10
-0.963501
 20
213.074
 11
-1.07164
 21
213.138
  0
LINE
  8
0
 10
-1.07164
 20
213.138
 11
-1.17557
 21
213.208
  0
LINE
  8
0
 10
-1.17557
 20
213.208
 11
-1.27484
 21
213.285
  0
LINE
  8
0
 10
-1.27484
 20
213.285
 11
-1.36908
 21
213.368
  0
LINE
  8
0
 10
-1.36908
 20
213.368
 11
-1.45793
 21
213.457
  0
LINE
  8
0
 10
-1.45793
 20
213.457
 11
-1.54102
 21
213.551
  0
LINE
  8
0
 10
-1.54102
 20
213.551
 11
-1.61803
 21
213.651
  0
LINE
  8
0
 10
-1.61803
 20
213.651
 11
-1.68864
 21
213.755
  0
LINE
  8
0
 10
-1.68864
 20
213.755
 11
-1.75261
 21
213.863
  0
LINE
  8
0
 10
-1.75261
 20
213.863
 11
-1.80965
 21
213.975
  0
LINE
  8
0
 10
-1.80965
 20
213.975
 11
-1.85954
 21
214.09
  0
LINE
  8
0
 10
-1.85954
 20
214.09
 11
-1.9021
 21
214.208
  0
LINE
  8
0
 10
-1.9021
 20
214.208
 11
-1.93716
 21
214.329
  0
LINE
  8
0
 10
-1.93716
 20
214.329
 11
-1.96457
 21
214.451
  0
LINE
  8
0
 10
-1.96457
 20
214.451
 11
-1.98422
 21
214.576
  0
LINE
  8
0
 10
-1.98422
 20
214.576
 11
-1.99605
 21
214.701
  0
LINE
  8
0
 10
-1.99605
 20
214.701
 11
-2
 21
214.826
  0
LINE
  8
0
 10
-2
 20
214.826
 11
-1.99605
 21
214.952
  0
LINE
  8
0
 10
-1.99605
 20
214.952
 11
-1.98422
 21
215.077
  0
LINE
  8
0
 10
-1.98422
 20
215.077
 11
-1.96457
 21
215.201
  0
LINE
  8
0
 10
-1.96457
 20
215.201
 11
-1.93716
 21
215.324
  0
LINE
  8
0
 10
-1.93716
 20
215.324
 11
-1.9021
 21
215.444
  0
LINE
  8
0
 10
-1.9021
 20
215.444
 11
-1.85954
 21
215.562
  0
LINE
  8
0
 10
-1.85954
 20
215.562
 11
-1.80965
 21
215.678
  0
LINE
  8
0
 10
-1.80965
 20
215.678
 11
-1.75261
 21
215.79
  0
LINE
  8
0
 10
-1.75261
 20
215.79
 11
-1.68864
 21
215.898
  0
LINE
  8
0
 10
-1.68864
 20
215.898
 11
-1.61803
 21
216.002
  0
LINE
  8
0
 10
-1.61803
 20
216.002
 11
-1.54102
 21
216.101
  0
LINE
  8
0
 10
-1.54102
 20
216.101
 11
-1.45793
 21
216.195
  0
LINE
  8
0
 10
-1.45793
 20
216.195
 11
-1.36908
 21
216.284
  0
LINE
  8
0
 10
-1.36908
 20
216.284
 11
-1.27484
 21
216.367
  0
LINE
  8
0
 10
-1.27484
 20
216.367
 11
-1.17557
 21
216.444
  0
LINE
  8
0
 10
-1.17557
 20
216.444
 11
-1.07164
 21
216.515
  0
LINE
  8
0
 10
-1.07164
 20
216.515
 11
-0.963501
 21
216.579
  0
LINE
  8
0
 10
-0.963501
 20
216.579
 11
-0.851547
 21
216.636
  0
LINE
  8
0
 10
-0.851547
 20
216.636
 11
-0.736237
 21
216.686
  0
LINE
  8
0
 10
-0.736237
 20
216.686
 11
-0.618027
 21
216.728
  0
LINE
  8
0
 10
-0.618027
 20
216.728
 11
-0.497375
 21
216.763
  0
LINE
  8
0
 10
-0.497375
 20
216.763
 11
-0.374756
 21
216.791
  0
LINE
  8
0
 10
-0.374756
 20
216.791
 11
-0.250656
 21
216.81
  0
LINE
  8
0
 10
-0.250656
 20
216.81
 11
-0.12558
 21
216.822
  0
LINE
  8
0
 10
-0.12558
 20
216.822
 11
0
 21
216.826
  0
LINE
  8
0
 10
0
 20
216.826
 11
0.12558
 21
216.822
  0
LINE
  8
0
 10
0.12558
 20
216.822
 11
0.250656
 21
216.81
  0
LINE
  8
0
 10
0.250656
 20
216.81
 11
0.374756
 21
216.791
  0
LINE
  8
0
 10
0.374756
 20
216.791
 11
0.497375
 21
216.763
  0
LINE
  8
0
 10
0.497375
 20
216.763
 11
0.618027
 21
216.728
  0
LINE
  8
0
 10
0.618027
 20
216.728
 11
0.736237
 21
216.686
  0
LINE
  8
0
 10
0.736237
 20
216.686
 11
0.851547
 21
216.636
  0
LINE
  8
0
 10
0.851547
 20
216.636
 11
0.963501
 21
216.579
  0
LINE
  8
0
 10
0.963501
 20
216.579
 11
1.07164
 21
216.515
  0
LINE
  8
0
 10
1.07164
 20
216.515
 11
1.17557
 21
216.444
  0
LINE
  8
0
 10
1.17557
 20
216.444
 11
1.27484
 21
216.367
  0
LINE
  8
0
 10
1.27484
 20
216.367
 11
1.36908
 21
216.284
  0
LINE
  8
0
 10
1.36908
 20
216.284
 11
1.45793
 21
216.195
  0
LINE
  8
0
 10
1.45793
 20
216.195
 11
1.54102
 21
216.101
  0
LINE
  8
0
 10
1.54102
 20
216.101
 11
1.61803
 21
216.002
  0
LINE
  8
0
 10
1.61803
 20
216.002
 11
1.68864
 21
215.898
  0
LINE
  8
0
 10
1.68864
 20
215.898
 11
1.75261
 21
215.79
  0
LINE
  8
0
 10
1.75261
 20
215.79
 11
1.80965
 21
215.678
  0
LINE
  8
0
 10
1.80965
 20
215.678
 11
1.85954
 21
215.562
  0
LINE
  8
0
 10
1.85954
 20
215.562
 11
1.9021
 21
215.444
  0
LINE
  8
0
 10
1.9021
 20
215.444
 11
1.93716
 21
215.324
  0
LINE
  8
0
 10
1.93716
 20
215.324
 11
1.96457
 21
215.201
  0
LINE
  8
0
 10
1.96457
 20
215.201
 11
1.98422
 21
215.077
  0
LINE
  8
0
 10
1.98422
 20
215.077
 11
1.99605
 21
214.952
  0
LINE
  8
0
 10
1.99605
 20
214.952
 11
2
 21
214.826
  0
LINE
  8
0
 10
2
 20
214.826
 11
1.99605
 21
214.701
  0
LINE
  8
0
 10
1.99605
 20
214.701
 11
1.98422
 21
214.576
  0
LINE
  8
0
 10
1.98422
 20
214.576
 11
1.96457
 21
214.451
  0
LINE
  8
0
 10
1.96457
 20
214.451
 11
1.93716
 21
214.329
  0
LINE
  8
0
 10
1.93716
 20
214.329
 11
1.9021
 21
214.208
  0
LINE
  8
0
 10
1.9021
 20
214.208
 11
1.85954
 21
214.09
  0
LINE
  8
0
 10
1.85954
 20
214.09
 11
1.80965
 21
213.975
  0
LINE
  8
0
 10
1.80965
 20
213.975
 11
1.75261
 21
213.863
  0
LINE
  8
0
 10
1.75261
 20
213.863
 11
1.68864
 21
213.755
  0
LINE
  8
0
 10
1.68864
 20
213.755
 11
1.61803
 21
213.651
  0
LINE
  8
0
 10
1.61803
 20
213.651
 11
1.54102
 21
213.551
  0
LINE
  8
0
 10
1.54102
 20
213.551
 11
1.45793
 21
213.457
  0
LINE
  8
0
 10
1.45793
 20
213.457
 11
1.36908
 21
213.368
  0
LINE
  8
0
 10
1.36908
 20
213.368
 11
1.27484
 21
213.285
  0
LINE
  8
0
 10
1.27484
 20
213.285
 11
1.17557
 21
213.208
  0
LINE
  8
0
 10
1.17557
 20
213.208
 11
1.07164
 21
213.138
  0
LINE
  8
0
 10
1.07164
 20
213.138
 11
0.963501
 21
213.074
  0
LINE
  8
0
 10
0.963501
 20
213.074
 11
0.851547
 21
213.017
  0
LINE
  8
0
 10
0.851547
 20
213.017
 11
0.736237
 21
212.967
  0
LINE
  8
0
 10
0.736237
 20
212.967
 11
0.618027
 21
212.924
  0
LINE
  8
0
 10
0.618027
 20
212.924
 11
0.497375
 21
212.889
  0
LINE
  8
0
 10
0.497375
 20
212.889
 11
0.374756
 21
212.862
  0
LINE
  8
0
 10
0.374756
 20
212.862
 11
0.250656
 21
212.842
  0
LINE
  8
0
 10
0.250656
 20
212.842
 11
0.12558
 21
212.83
  0
LINE
  8
0
 10
0.12558
 20
212.83
 11
0
 21
212.826
  0
LINE
  8
0
 10
0
 20
212.826
 11
-0.12558
 21
212.83
  0
LINE
  8
0
 10
-1.12363
 20
188.535
 11
0
 21
191.993
  0
LINE
  8
0
 10
0
 20
191.993
 11
1.12363
 21
188.535
  0
LINE
  8
0
 10
1.12363
 20
188.535
 11
0
 21
185.144
  0
LINE
  8
0
 10
0
 20
185.144
 11
-1.12363
 21
188.535
  0
LINE
  8
0
 10
-1.60895
 20
178
 11
0
 21
182.856
  0
LINE
  8
0
 10
0
 20
182.856
 11
1.60895
 21
178
  0
LINE
  8
0
 10
1.60895
 20
178
 11
0
 21
173.144
  0
LINE
  8
0
 10
0
 20
173.144
 11
-1.60895
 21
178
  0
LINE
  8
0
 10
3.10492
 20
177.38
 11
4.51759
 21
178.09
  0
LINE
  8
0
 10
4.51759
 20
178.09
 11
5.4453
 21
175.235
  0
LINE
  8
0
 10
5.4453
 20
175.235
 11
5.38019
 21
175.105
  0
LINE
  8
0
 10
5.38019
 20
175.105
 11
0.80896
 21
172.809
  0
LINE
  8
0
 10
0.80896
 20
172.809
 11
3.10492
 21
177.38
  0
LINE
  8
0
 10
-5.38019
 20
175.105
 11
-5.4453
 21
175.235
  0
LINE
  8
0
 10
-5.4453
 20
175.235
 11
-4.51759
 21
178.09
  0
LINE
  8
0
 10
-4.51759
 20
178.09
 11
-3.10492
 21
177.38
  0
LINE
  8
0
 10
-3.10492
 20
177.38
 11
-0.80896
 21
172.809
  0
LINE
  8
0
 10
-0.80896
 20
172.809
 11
-5.38019
 21
175.105
  0
LINE
  8
0
 10
-6.92
 20
170.696
 11
-5.97606
 21
173.601
  0
LINE
  8
0
 10
-5.97606
 20
173.601
 11
-1.14423
 21
172
  0
LINE
  8
0
 10
-1.14423
 20
172
 11
-6
 21
170.391
  0
LINE
  8
0
 10
-6
 20
170.391
 11
-6.92
 21
170.696
  0
LINE
  8
0
 10
1.14423
 20
172
 11
5.97606
 21
173.601
  0
LINE
  8
0
 10
5.97606
 20
173.601
 11
6.92
 21
170.696
  0
LINE
  8
0
 10
6.92
 20
170.696
 11
6
 21
170.391
  0
LINE
  8
0
 10
6
 20
170.391
 11
1.14423
 21
172
  0
LINE
  8
0
 10
-5.38019
 20
168.895
 11
-0.80896
 21
171.191
  0
LINE
  8
0
 10
-0.80896
 20
171.191
 11
-3.10492
 21
166.62
  0
LINE
  8
0
 10
-3.10492
 20
166.62
 11
-7.67615
 21
164.324
  0
LINE
  8
0
 10
-7.67615
 20
164.324
 11
-5.38019
 21
168.895
  0
LINE
  8
0
 10
3.10492
 20
166.62
 11
0.80896
 21
171.191
  0
LINE
  8
0
 10
0.80896
 20
171.191
 11
5.38019
 21
168.895
  0
LINE
  8
0
 10
5.38019
 20
168.895
 11
7.67615
 21
164.324
  0
LINE
  8
0
 10
7.67615
 20
164.324
 11
3.10492
 21
166.62
  0
LINE
  8
0
 10
-1.60895
 20
166
 11
0
 21
170.856
  0
LINE
  8
0
 10
0
 20
170.856
 11
1.60895
 21
166
  0
LINE
  8
0
 10
1.60895
 20
166
 11
0
 21
161.144
  0
LINE
  8
0
 10
0
 20
161.144
 11
-1.60895
 21
166
  0
LINE
  8
0
 10
-1.60895
 20
154
 11
0
 21
158.856
  0
LINE
  8
0
 10
0
 20
158.856
 11
1.60895
 21
154
  0
LINE
  8
0
 10
1.60895
 20
154
 11
0
 21
149.144
  0
LINE
  8
0
 10
0
 20
149.144
 11
-1.60895
 21
154
  0
LINE
  8
0
 10
3.10492
 20
153.38
 11
7.67615
 21
155.676
  0
LINE
  8
0
 10
7.67615
 20
155.676
 11
5.38019
 21
151.105
  0
LINE
  8
0
 10
5.38019
 20
151.105
 11
0.80896
 21
148.809
  0
LINE
  8
0
 10
0.80896
 20
148.809
 11
3.10492
 21
153.38
  0
LINE
  8
0
 10
-5.38019
 20
151.105
 11
-7.67615
 21
155.676
  0
LINE
  8
0
 10
-7.67615
 20
155.676
 11
-3.10492
 21
153.38
  0
LINE
  8
0
 10
-3.10492
 20
153.38
 11
-0.80896
 21
148.809
  0
LINE
  8
0
 10
-0.80896
 20
148.809
 11
-5.38019
 21
151.105
  0
LINE
  8
0
 10
1.14423
 20
148
 11
6
 21
149.609
  0
LINE
  8
0
 10
6
 20
149.609
 11
10.8558
 21
148
  0
LINE
  8
0
 10
10.8558
 20
148
 11
6
 21
146.391
  0
LINE
  8
0
 10
6
 20
146.391
 11
1.14423
 21
148
  0
LINE
  8
0
 10
-10.8558
 20
148
 11
-6
 21
149.609
  0
LINE
  8
0
 10
-6
 20
149.609
 11
-1.14423
 21
148
  0
LINE
  8
0
 10
-1.14423
 20
148
 11
-6
 21
146.391
  0
LINE
  8
0
 10
-6
 20
146.391
 11
-10.8558
 21
148
  0
LINE
  8
0
 10
-14.1826
 20
148.344
 11
-13.1442
 21
148
  0
LINE
  8
0
 10
-13.1442
 20
148
 11
-14.4331
 21
147.573
  0
LINE
  8
0
 10
-14.4331
 20
147.573
 11
-14.1826
 21
148.344
  0
LINE
  8
0
 10
13.1442
 20
148
 11
14.1826
 21
148.344
  0
LINE
  8
0
 10
14.1826
 20
148.344
 11
14.4331
 21
147.573
  0
LINE
  8
0
 10
14.4331
 20
147.573
 11
13.1442
 21
148
  0
LINE
  8
0
 10
-5.38019
 20
144.895
 11
-0.80896
 21
147.191
  0
LINE
  8
0
 10
-0.80896
 20
147.191
 11
-3.10492
 21
142.62
  0
LINE
  8
0
 10
-3.10492
 20
142.62
 11
-7.67615
 21
140.324
  0
LINE
  8
0
 10
-7.67615
 20
140.324
 11
-5.38019
 21
144.895
  0
LINE
  8
0
 10
3.10492
 20
142.62
 11
0.80896
 21
147.191
  0
LINE
  8
0
 10
0.80896
 20
147.191
 11
5.38019
 21
144.895
  0
LINE
  8
0
 10
5.38019
 20
144.895
 11
7.67615
 21
140.324
  0
LINE
  8
0
 10
7.67615
 20
140.324
 11
3.10492
 21
142.62
  0
LINE
  8
0
 10
-1.60895
 20
142
 11
0
 21
146.856
  0
LINE
  8
0
 10
0
 20
146.856
 11
1.60895
 21
142
  0
LINE
  8
0
 10
1.60895
 20
142
 11
0
 21
137.144
  0
LINE
  8
0
 10
0
 20
137.144
 11
-1.60895
 21
142
  0
LINE
  8
0
 10
-16.7233
 20
140.524
 11
-16.606
 21
140.886
  0
LINE
  8
0
 10
-16.606
 20
140.886
 11
-16.3239
 21
140.324
  0
LINE
  8
0
 10
-16.3239
 20
140.324
 11
-16.7233
 21
140.524
  0
LINE
  8
0
 10
16.606
 20
140.886
 11
16.7233
 21
140.524
  0
LINE
  8
0
 10
16.7233
 20
140.524
 11
16.3239
 21
140.324
  0
LINE
  8
0
 10
16.3239
 20
140.324
 11
16.606
 21
140.886
  0
LINE
  8
0
 10
-1.60895
 20
130
 11
0
 21
134.856
  0
LINE
  8
0
 10
0
 20
134.856
 11
1.60895
 21
130
  0
LINE
  8
0
 10
1.60895
 20
130
 11
0
 21
125.144
  0
LINE
  8
0
 10
0
 20
125.144
 11
-1.60895
 21
130
  0
LINE
  8
0
 10
-20.2369
 20
129.711
 11
-16.3239
 21
131.676
  0
LINE
  8
0
 10
-16.3239
 20
131.676
 11
-18.6198
 21
127.105
  0
LINE
  8
0
 10
-18.6198
 20
127.105
 11
-21.564
 21
125.626
  0
LINE
  8
0
 10
-21.564
 20
125.626
 11
-20.2369
 21
129.711
  0
LINE
  8
0
 10
18.6198
 20
127.105
 11
16.3239
 21
131.676
  0
LINE
  8
0
 10
16.3239
 20
131.676
 11
20.2369
 21
129.711
  0
LINE
  8
0
 10
20.2369
 20
129.711
 11
21.564
 21
125.626
  0
LINE
  8
0
 10
21.564
 20
125.626
 11
18.6198
 21
127.105
  0
LINE
  8
0
 10
3.10492
 20
129.38
 11
7.67615
 21
131.676
  0
LINE
  8
0
 10
7.67615
 20
131.676
 11
5.38019
 21
127.105
  0
LINE
  8
0
 10
5.38019
 20
127.105
 11
0.80896
 21
124.809
  0
LINE
  8
0
 10
0.80896
 20
124.809
 11
3.10492
 21
129.38
  0
LINE
  8
0
 10
-5.38019
 20
127.105
 11
-7.67615
 21
131.676
  0
LINE
  8
0
 10
-7.67615
 20
131.676
 11
-3.10492
 21
129.38
  0
LINE
  8
0
 10
-3.10492
 20
129.38
 11
-0.80896
 21
124.809
  0
LINE
  8
0
 10
-0.80896
 20
124.809
 11
-5.38019
 21
127.105
  0
LINE
  8
0
 10
1.14423
 20
124
 11
6
 21
125.609
  0
LINE
  8
0
 10
6
 20
125.609
 11
10.8558
 21
124
  0
LINE
  8
0
 10
10.8558
 20
124
 11
6
 21
122.391
  0
LINE
  8
0
 10
6
 20
122.391
 11
1.14423
 21
124
  0
LINE
  8
0
 10
-22.1666
 20
123.772
 11
-22.0003
 21
124.283
  0
LINE
  8
0
 10
-22.0003
 20
124.283
 11
-18
 21
125.609
  0
LINE
  8
0
 10
-18
 20
125.609
 11
-13.1442
 21
124
  0
LINE
  8
0
 10
-13.1442
 20
124
 11
-18
 21
122.391
  0
LINE
  8
0
 10
-18
 20
122.391
 11
-22.1666
 21
123.772
  0
LINE
  8
0
 10
-10.8558
 20
124
 11
-6
 21
125.609
  0
LINE
  8
0
 10
-6
 20
125.609
 11
-1.14423
 21
124
  0
LINE
  8
0
 10
-1.14423
 20
124
 11
-6
 21
122.391
  0
LINE
  8
0
 10
-6
 20
122.391
 11
-10.8558
 21
124
  0
LINE
  8
0
 10
13.1442
 20
124
 11
18
 21
125.609
  0
LINE
  8
0
 10
18
 20
125.609
 11
22.0003
 21
124.283
  0
LINE
  8
0
 10
22.0003
 20
124.283
 11
22.1666
 21
123.772
  0
LINE
  8
0
 10
22.1666
 20
123.772
 11
18
 21
122.391
  0
LINE
  8
0
 10
18
 20
122.391
 11
13.1442
 21
124
  0
LINE
  8
0
 10
-5.38019
 20
120.895
 11
-0.80896
 21
123.191
  0
LINE
  8
0
 10
-0.80896
 20
123.191
 11
-3.10492
 21
118.62
  0
LINE
  8
0
 10
-3.10492
 20
118.62
 11
-7.67615
 21
116.324
  0
LINE
  8
0
 10
-7.67615
 20
116.324
 11
-5.38019
 21
120.895
  0
LINE
  8
0
 10
3.10492
 20
118.62
 11
0.80896
 21
123.191
  0
LINE
  8
0
 10
0.80896
 20
123.191
 11
5.38019
 21
120.895
  0
LINE
  8
0
 10
5.38019
 20
120.895
 11
7.67615
 21
116.324
  0
LINE
  8
0
 10
7.67615
 20
116.324
 11
3.10492
 21
118.62
  0
LINE
  8
0
 10
-1.60895
 20
118
 11
0
 21
122.856
  0
LINE
  8
0
 10
0
 20
122.856
 11
1.60895
 21
118
  0
LINE
  8
0
 10
1.60895
 20
118
 11
0
 21
113.144
  0
LINE
  8
0
 10
0
 20
113.144
 11
-1.60895
 21
118
  0
LINE
  8
0
 10
-20.8951
 20
118.62
 11
-22.6835
 21
122.181
  0
LINE
  8
0
 10
-22.6835
 20
122.181
 11
-22.4725
 21
122.83
  0
LINE
  8
0
 10
-22.4725
 20
122.83
 11
-18.6198
 21
120.895
  0
LINE
  8
0
 10
-18.6198
 20
120.895
 11
-16.3239
 21
116.324
  0
LINE
  8
0
 10
-16.3239
 20
116.324
 11
-20.8951
 21
118.62
  0
LINE
  8
0
 10
18.6198
 20
120.895
 11
22.4725
 21
122.83
  0
LINE
  8
0
 10
22.4725
 20
122.83
 11
22.6835
 21
122.181
  0
LINE
  8
0
 10
22.6835
 20
122.181
 11
20.8951
 21
118.62
  0
LINE
  8
0
 10
20.8951
 20
118.62
 11
16.3239
 21
116.324
  0
LINE
  8
0
 10
16.3239
 20
116.324
 11
18.6198
 21
120.895
  0
LINE
  8
0
 10
-24.8178
 20
115.612
 11
-23.2246
 21
120.516
  0
LINE
  8
0
 10
-23.2246
 20
120.516
 11
-22.3911
 21
118
  0
LINE
  8
0
 10
-22.3911
 20
118
 11
-24
 21
113.144
  0
LINE
  8
0
 10
-24
 20
113.144
 11
-24.8178
 21
115.612
  0
LINE
  8
0
 10
22.3911
 20
118
 11
23.2246
 21
120.516
  0
LINE
  8
0
 10
23.2246
 20
120.516
 11
24.8178
 21
115.612
  0
LINE
  8
0
 10
24.8178
 20
115.612
 11
24
 21
113.144
  0
LINE
  8
0
 10
24
 20
113.144
 11
22.3911
 21
118
  0
LINE
  8
0
 10
-1.60895
 20
106
 11
0
 21
110.856
  0
LINE
  8
0
 10
0
 20
110.856
 11
1.60895
 21
106
  0
LINE
  8
0
 10
1.60895
 20
106
 11
0
 21
101.144
  0
LINE
  8
0
 10
0
 20
101.144
 11
-1.60895
 21
106
  0
LINE
  8
0
 10
-25.6089
 20
106
 11
-24
 21
110.856
  0
LINE
  8
0
 10
-24
 20
110.856
 11
-22.3911
 21
106
  0
LINE
  8
0
 10
-22.3911
 20
106
 11
-24
 21
101.144
  0
LINE
  8
0
 10
-24
 20
101.144
 11
-25.6089
 21
106
  0
LINE
  8
0
 10
22.3911
 20
106
 11
24
 21
110.856
  0
LINE
  8
0
 10
24
 20
110.856
 11
25.6089
 21
106
  0
LINE
  8
0
 10
25.6089
 20
106
 11
24
 21
101.144
  0
LINE
  8
0
 10
24
 20
101.144
 11
22.3911
 21
106
  0
LINE
  8
0
 10
18.6198
 20
103.105
 11
16.3239
 21
107.676
  0
LINE
  8
0
 10
16.3239
 20
107.676
 11
20.8951
 21
105.38
  0
LINE
  8
0
 10
20.8951
 20
105.38
 11
23.191
 21
100.809
  0
LINE
  8
0
 10
23.191
 20
100.809
 11
18.6198
 21
103.105
  0
LINE
  8
0
 10
-5.38019
 20
103.105
 11
-7.67615
 21
107.676
  0
LINE
  8
0
 10
-7.67615
 20
107.676
 11
-3.10492
 21
105.38
  0
LINE
  8
0
 10
-3.10492
 20
105.38
 11
-0.80896
 21
100.809
  0
LINE
  8
0
 10
-0.80896
 20
100.809
 11
-5.38019
 21
103.105
  0
LINE
  8
0
 10
3.10492
 20
105.38
 11
7.67615
 21
107.676
  0
LINE
  8
0
 10
7.67615
 20
107.676
 11
5.38019
 21
103.105
  0
LINE
  8
0
 10
5.38019
 20
103.105
 11
0.80896
 21
100.809
  0
LINE
  8
0
 10
0.80896
 20
100.809
 11
3.10492
 21
105.38
  0
LINE
  8
0
 10
-20.8951
 20
105.38
 11
-16.3239
 21
107.676
  0
LINE
  8
0
 10
-16.3239
 20
107.676
 11
-18.6198
 21
103.105
  0
LINE
  8
0
 10
-18.6198
 20
103.105
 11
-23.191
 21
100.809
  0
LINE
  8
0
 10
-23.191
 20
100.809
 11
-20.8951
 21
105.38
  0
LINE
  8
0
 10
-28.9516
 20
102.89
 11
-27.9968
 21
105.828
  0
LINE
  8
0
 10
-27.9968
 20
105.828
 11
-27.1049
 21
105.38
  0
LINE
  8
0
 10
-27.1049
 20
105.38
 11
-24.809
 21
100.809
  0
LINE
  8
0
 10
-24.809
 20
100.809
 11
-28.9516
 21
102.89
  0
LINE
  8
0
 10
27.1049
 20
105.38
 11
27.9968
 21
105.828
  0
LINE
  8
0
 10
27.9968
 20
105.828
 11
28.9516
 21
102.89
  0
LINE
  8
0
 10
28.9516
 20
102.89
 11
24.809
 21
100.809
  0
LINE
  8
0
 10
24.809
 20
100.809
 11
27.1049
 21
105.38
  0
LINE
  8
0
 10
13.1442
 20
100
 11
18
 21
101.609
  0
LINE
  8
0
 10
18
 20
101.609
 11
22.8558
 21
100
  0
LINE
  8
0
 10
22.8558
 20
100
 11
18
 21
98.3911
  0
LINE
  8
0
 10
18
 20
98.3911
 11
13.1442
 21
100
  0
LINE
  8
0
 10
-10.8558
 20
100
 11
-6
 21
101.609
  0
LINE
  8
0
 10
-6
 20
101.609
 11
-1.14423
 21
100
  0
LINE
  8
0
 10
-1.14423
 20
100
 11
-6
 21
98.3911
  0
LINE
  8
0
 10
-6
 20
98.3911
 11
-10.8558
 21
100
  0
LINE
  8
0
 10
-22.8558
 20
100
 11
-18
 21
101.609
  0
LINE
  8
0
 10
-18
 20
101.609
 11
-13.1442
 21
100
  0
LINE
  8
0
 10
-13.1442
 20
100
 11
-18
 21
98.3911
  0
LINE
  8
0
 10
-18
 20
98.3911
 11
-22.8558
 21
100
  0
LINE
  8
0
 10
1.14423
 20
100
 11
6
 21
101.609
  0
LINE
  8
0
 10
6
 20
101.609
 11
10.8558
 21
100
  0
LINE
  8
0
 10
10.8558
 20
100
 11
6
 21
98.3911
  0
LINE
  8
0
 10
6
 20
98.3911
 11
1.14423
 21
100
  0
LINE
  8
0
 10
-30.3731
 20
98.5147
 11
-29.4292
 21
101.42
  0
LINE
  8
0
 10
-29.4292
 20
101.42
 11
-25.1442
 21
100
  0
LINE
  8
0
 10
-25.1442
 20
100
 11
-30
 21
98.3911
  0
LINE
  8
0
 10
-30
 20
98.3911
 11
-30.3731
 21
98.5147
  0
LINE
  8
0
 10
25.1442
 20
100
 11
29.4292
 21
101.42
  0
LINE
  8
0
 10
29.4292
 20
101.42
 11
30.3731
 21
98.5147
  0
LINE
  8
0
 10
30.3731
 20
98.5147
 11
30
 21
98.3911
  0
LINE
  8
0
 10
30
 20
98.3911
 11
25.1442
 21
100
  0
LINE
  8
0
 10
27.1049
 20
94.6198
 11
24.809
 21
99.191
  0
LINE
  8
0
 10
24.809
 20
99.191
 11
29.3802
 21
96.8951
  0
LINE
  8
0
 10
29.3802
 20
96.8951
 11
31.6761
 21
92.3239
  0
LINE
  8
0
 10
31.6761
 20
92.3239
 11
27.1049
 21
94.6198
  0
LINE
  8
0
 10
3.10492
 20
94.6198
 11
0.80896
 21
99.191
  0
LINE
  8
0
 10
0.80896
 20
99.191
 11
5.38019
 21
96.8951
  0
LINE
  8
0
 10
5.38019
 20
96.8951
 11
7.67615
 21
92.3239
  0
LINE
  8
0
 10
7.67615
 20
92.3239
 11
3.10492
 21
94.6198
  0
LINE
  8
0
 10
-20.8951
 20
94.6198
 11
-23.191
 21
99.191
  0
LINE
  8
0
 10
-23.191
 20
99.191
 11
-18.6198
 21
96.8951
  0
LINE
  8
0
 10
-18.6198
 20
96.8951
 11
-16.3239
 21
92.3239
  0
LINE
  8
0
 10
-16.3239
 20
92.3239
 11
-20.8951
 21
94.6198
  0
LINE
  8
0
 10
-29.3802
 20
96.8951
 11
-24.809
 21
99.191
  0
LINE
  8
0
 10
-24.809
 20
99.191
 11
-27.1049
 21
94.6198
  0
LINE
  8
0
 10
-27.1049
 20
94.6198
 11
-31.6761
 21
92.3239
  0
LINE
  8
0
 10
-31.6761
 20
92.3239
 11
-29.3802
 21
96.8951
  0
LINE
  8
0
 10
18.6198
 20
96.8951
 11
23.191
 21
99.191
  0
LINE
  8
0
 10
23.191
 20
99.191
 11
20.8951
 21
94.6198
  0
LINE
  8
0
 10
20.8951
 20
94.6198
 11
16.3239
 21
92.3239
  0
LINE
  8
0
 10
16.3239
 20
92.3239
 11
18.6198
 21
96.8951
  0
LINE
  8
0
 10
-5.38019
 20
96.8951
 11
-0.80896
 21
99.191
  0
LINE
  8
0
 10
-0.80896
 20
99.191
 11
-3.10492
 21
94.6198
  0
LINE
  8
0
 10
-3.10492
 20
94.6198
 11
-7.67615
 21
92.3239
  0
LINE
  8
0
 10
-7.67615
 20
92.3239
 11
-5.38019
 21
96.8951
  0
LINE
  8
0
 10
-1.60895
 20
94
 11
0
 21
98.8558
  0
LINE
  8
0
 10
0
 20
98.8558
 11
1.60895
 21
94
  0
LINE
  8
0
 10
1.60895
 20
94
 11
0
 21
89.1442
  0
LINE
  8
0
 10
0
 20
89.1442
 11
-1.60895
 21
94
  0
LINE
  8
0
 10
-25.6089
 20
94
 11
-24
 21
98.8558
  0
LINE
  8
0
 10
-24
 20
98.8558
 11
-22.3911
 21
94
  0
LINE
  8
0
 10
-22.3911
 20
94
 11
-24
 21
89.1442
  0
LINE
  8
0
 10
-24
 20
89.1442
 11
-25.6089
 21
94
  0
LINE
  8
0
 10
22.3911
 20
94
 11
24
 21
98.8558
  0
LINE
  8
0
 10
24
 20
98.8558
 11
25.6089
 21
94
  0
LINE
  8
0
 10
25.6089
 20
94
 11
24
 21
89.1442
  0
LINE
  8
0
 10
24
 20
89.1442
 11
22.3911
 21
94
  0
LINE
  8
0
 10
22.3911
 20
82
 11
24
 21
86.8558
  0
LINE
  8
0
 10
24
 20
86.8558
 11
25.6089
 21
82
  0
LINE
  8
0
 10
25.6089
 20
82
 11
24
 21
77.1442
  0
LINE
  8
0
 10
24
 20
77.1442
 11
22.3911
 21
82
  0
LINE
  8
0
 10
-25.6089
 20
82
 11
-24
 21
86.8558
  0
LINE
  8
0
 10
-24
 20
86.8558
 11
-22.3911
 21
82
  0
LINE
  8
0
 10
-22.3911
 20
82
 11
-24
 21
77.1442
  0
LINE
  8
0
 10
-24
 20
77.1442
 11
-25.6089
 21
82
  0
LINE
  8
0
 10
-1.60895
 20
82
 11
0
 21
86.8558
  0
LINE
  8
0
 10
0
 20
86.8558
 11
1.60895
 21
82
  0
LINE
  8
0
 10
1.60895
 20
82
 11
0
 21
77.1442
  0
LINE
  8
0
 10
0
 20
77.1442
 11
-1.60895
 21
82
  0
LINE
  8
0
 10
-5.38019
 20
79.1049
 11
-7.67615
 21
83.6761
  0
LINE
  8
0
 10
-7.67615
 20
83.6761
 11
-3.10492
 21
81.3802
  0
LINE
  8
0
 10
-3.10492
 20
81.3802
 11
-0.80896
 21
76.809
  0
LINE
  8
0
 10
-0.80896
 20
76.809
 11
-5.38019
 21
79.1049
  0
LINE
  8
0
 10
3.10492
 20
81.3802
 11
7.67615
 21
83.6761
  0
LINE
  8
0
 10
7.67615
 20
83.6761
 11
5.38019
 21
79.1049
  0
LINE
  8
0
 10
5.38019
 20
79.1049
 11
0.80896
 21
76.809
  0
LINE
  8
0
 10
0.80896
 20
76.809
 11
3.10492
 21
81.3802
  0
LINE
  8
0
 10
27.1049
 20
81.3802
 11
31.6761
 21
83.6761
  0
LINE
  8
0
 10
31.6761
 20
83.6761
 11
29.3802
 21
79.1049
  0
LINE
  8
0
 10
29.3802
 20
79.1049
 11
24.809
 21
76.809
  0
LINE
  8
0
 10
24.809
 20
76.809
 11
27.1049
 21
81.3802
  0
LINE
  8
0
 10
-20.8951
 20
81.3802
 11
-16.3239
 21
83.6761
  0
LINE
  8
0
 10
-16.3239
 20
83.6761
 11
-18.6198
 21
79.1049
  0
LINE
  8
0
 10
-18.6198
 20
79.1049
 11
-23.191
 21
76.809
  0
LINE
  8
0
 10
-23.191
 20
76.809
 11
-20.8951
 21
81.3802
  0
LINE
  8
0
 10
-29.3802
 20
79.1049
 11
-31.6761
 21
83.6761
  0
LINE
  8
0
 10
-31.6761
 20
83.6761
 11
-27.1049
 21
81.3802
  0
LINE
  8
0
 10
-27.1049
 20
81.3802
 11
-24.809
 21
76.809
  0
LINE
  8
0
 10
-24.809
 20
76.809
 11
-29.3802
 21
79.1049
  0
LINE
  8
0
 10
18.6198
 20
79.1049
 11
16.3239
 21
83.6761
  0
LINE
  8
0
 10
16.3239
 20
83.6761
 11
20.8951
 21
81.3802
  0
LINE
  8
0
 10
20.8951
 20
81.3802
 11
23.191
 21
76.809
  0
LINE
  8
0
 10
23.191
 20
76.809
 11
18.6198
 21
79.1049
  0
LINE
  8
0
 10
-22.8558
 20
76
 11
-18
 21
77.6089
  0
LINE
  8
0
 10
-18
 20
77.6089
 11
-13.1442
 21
76
  0
LINE
  8
0
 10
-13.1442
 20
76
 11
-18
 21
74.3911
  0
LINE
  8
0
 10
-18
 20
74.3911
 11
-22.8558
 21
76
  0
LINE
  8
0
 10
13.1442
 20
76
 11
18
 21
77.6089
  0
LINE
  8
0
 10
18
 20
77.6089
 11
22.8558
 21
76
  0
LINE
  8
0
 10
22.8558
 20
76
 11
18
 21
74.3911
  0
LINE
  8
0
 10
18
 20
74.3911
 11
13.1442
 21
76
  0
LINE
  8
0
 10
25.1442
 20
76
 11
30
 21
77.6089
  0
LINE
  8
0
 10
30
 20
77.6089
 11
34.8558
 21
76
  0
LINE
  8
0
 10
34.8558
 20
76
 11
30
 21
74.3911
  0
LINE
  8
0
 10
30
 20
74.3911
 11
25.1442
 21
76
  0
LINE
  8
0
 10
-10.8558
 20
76
 11
-6
 21
77.6089
  0
LINE
  8
0
 10
-6
 20
77.6089
 11
-1.14423
 21
76
  0
LINE
  8
0
 10
-1.14423
 20
76
 11
-6
 21
74.3911
  0
LINE
  8
0
 10
-6
 20
74.3911
 11
-10.8558
 21
76
  0
LINE
  8
0
 10
1.14423
 20
76
 11
6
 21
77.6089
  0
LINE
  8
0
 10
6
 20
77.6089
 11
10.8558
 21
76
  0
LINE
  8
0
 10
10.8558
 20
76
 11
6
 21
74.3911
  0
LINE
  8
0
 10
6
 20
74.3911
 11
1.14423
 21
76
  0
LINE
  8
0
 10
-34.8558
 20
76
 11
-30
 21
77.6089
  0
LINE
  8
0
 10
-30
 20
77.6089
 11
-25.1442
 21
76
  0
LINE
  8
0
 10
-25.1442
 20
76
 11
-30
 21
74.3911
  0
LINE
  8
0
 10
-30
 20
74.3911
 11
-34.8558
 21
76
  0
LINE
  8
0
 10
-37.6357
 20
76.1628
 11
-37.1442
 21
76
  0
LINE
  8
0
 10
-37.1442
 20
76
 11
-37.7542
 21
75.7979
  0
LINE
  8
0
 10
-37.7542
 20
75.7979
 11
-37.6357
 21
76.1628
  0
LINE
  8
0
 10
37.1442
 20
76
 11
37.6357
 21
76.1628
  0
LINE
  8
0
 10
37.6357
 20
76.1628
 11
37.7542
 21
75.7979
  0
LINE
  8
0
 10
37.7542
 20
75.7979
 11
37.1442
 21
76
  0
LINE
  8
0
 10
27.1049
 20
70.6198
 11
24.809
 21
75.191
  0
LINE
  8
0
 10
24.809
 20
75.191
 11
29.3802
 21
72.8951
  0
LINE
  8
0
 10
29.3802
 20
72.8951
 11
31.6761
 21
68.3239
  0
LINE
  8
0
 10
31.6761
 20
68.3239
 11
27.1049
 21
70.6198
  0
LINE
  8
0
 10
-20.8951
 20
70.6198
 11
-23.191
 21
75.191
  0
LINE
  8
0
 10
-23.191
 20
75.191
 11
-18.6198
 21
72.8951
  0
LINE
  8
0
 10
-18.6198
 20
72.8951
 11
-16.3239
 21
68.3239
  0
LINE
  8
0
 10
-16.3239
 20
68.3239
 11
-20.8951
 21
70.6198
  0
LINE
  8
0
 10
18.6198
 20
72.8951
 11
23.191
 21
75.191
  0
LINE
  8
0
 10
23.191
 20
75.191
 11
20.8951
 21
70.6198
  0
LINE
  8
0
 10
20.8951
 20
70.6198
 11
16.3239
 21
68.3239
  0
LINE
  8
0
 10
16.3239
 20
68.3239
 11
18.6198
 21
72.8951
  0
LINE
  8
0
 10
-5.38019
 20
72.8951
 11
-0.80896
 21
75.191
  0
LINE
  8
0
 10
-0.80896
 20
75.191
 11
-3.10492
 21
70.6198
  0
LINE
  8
0
 10
-3.10492
 20
70.6198
 11
-7.67615
 21
68.3239
  0
LINE
  8
0
 10
-7.67615
 20
68.3239
 11
-5.38019
 21
72.8951
  0
LINE
  8
0
 10
3.10492
 20
70.6198
 11
0.80896
 21
75.191
  0
LINE
  8
0
 10
0.80896
 20
75.191
 11
5.38019
 21
72.8951
  0
LINE
  8
0
 10
5.38019
 20
72.8951
 11
7.67615
 21
68.3239
  0
LINE
  8
0
 10
7.67615
 20
68.3239
 11
3.10492
 21
70.6198
  0
LINE
  8
0
 10
-29.3802
 20
72.8951
 11
-24.809
 21
75.191
  0
LINE
  8
0
 10
-24.809
 20
75.191
 11
-27.1049
 21
70.6198
  0
LINE
  8
0
 10
-27.1049
 20
70.6198
 11
-31.6761
 21
68.3239
  0
LINE
  8
0
 10
-31.6761
 20
68.3239
 11
-29.3802
 21
72.8951
  0
LINE
  8
0
 10
-1.60895
 20
70
 11
0
 21
74.8558
  0
LINE
  8
0
 10
0
 20
74.8558
 11
1.60895
 21
70
  0
LINE
  8
0
 10
1.60895
 20
70
 11
0
 21
65.1442
  0
LINE
  8
0
 10
0
 20
65.1442
 11
-1.60895
 21
70
  0
LINE
  8
0
 10
22.3911
 20
70
 11
24
 21
74.8558
  0
LINE
  8
0
 10
24
 20
74.8558
 11
25.6089
 21
70
  0
LINE
  8
0
 10
25.6089
 20
70
 11
24
 21
65.1442
  0
LINE
  8
0
 10
24
 20
65.1442
 11
22.3911
 21
70
  0
LINE
  8
0
 10
-25.6089
 20
70
 11
-24
 21
74.8558
  0
LINE
  8
0
 10
-24
 20
74.8558
 11
-22.3911
 21
70
  0
LINE
  8
0
 10
-22.3911
 20
70
 11
-24
 21
65.1442
  0
LINE
  8
0
 10
-24
 20
65.1442
 11
-25.6089
 21
70
  0
LINE
  8
0
 10
-25.6089
 20
58
 11
-24
 21
62.8558
  0
LINE
  8
0
 10
-24
 20
62.8558
 11
-22.3911
 21
58
  0
LINE
  8
0
 10
-22.3911
 20
58
 11
-24
 21
53.1442
  0
LINE
  8
0
 10
-24
 20
53.1442
 11
-25.6089
 21
58
  0
LINE
  8
0
 10
22.3911
 20
58
 11
24
 21
62.8558
  0
LINE
  8
0
 10
24
 20
62.8558
 11
25.6089
 21
58
  0
LINE
  8
0
 10
25.6089
 20
58
 11
24
 21
53.1442
  0
LINE
  8
0
 10
24
 20
53.1442
 11
22.3911
 21
58
  0
LINE
  8
0
 10
-1.60895
 20
58
 11
0
 21
62.8558
  0
LINE
  8
0
 10
0
 20
62.8558
 11
1.60895
 21
58
  0
LINE
  8
0
 10
1.60895
 20
58
 11
0
 21
53.1442
  0
LINE
  8
0
 10
0
 20
53.1442
 11
-1.60895
 21
58
  0
LINE
  8
0
 10
-43.5129
 20
58.0744
 11
-40.3239
 21
59.6761
  0
LINE
  8
0
 10
-40.3239
 20
59.6761
 11
-42.6198
 21
55.1049
  0
LINE
  8
0
 10
-42.6198
 20
55.1049
 11
-44.8401
 21
53.9897
  0
LINE
  8
0
 10
-44.8401
 20
53.9897
 11
-43.5129
 21
58.0744
  0
LINE
  8
0
 10
18.6198
 20
55.1049
 11
16.3239
 21
59.6761
  0
LINE
  8
0
 10
16.3239
 20
59.6761
 11
20.8951
 21
57.3802
  0
LINE
  8
0
 10
20.8951
 20
57.3802
 11
23.191
 21
52.809
  0
LINE
  8
0
 10
23.191
 20
52.809
 11
18.6198
 21
55.1049
  0
LINE
  8
0
 10
-29.3802
 20
55.1049
 11
-31.6761
 21
59.6761
  0
LINE
  8
0
 10
-31.6761
 20
59.6761
 11
-27.1049
 21
57.3802
  0
LINE
  8
0
 10
-27.1049
 20
57.3802
 11
-24.809
 21
52.809
  0
LINE
  8
0
 10
-24.809
 20
52.809
 11
-29.3802
 21
55.1049
  0
LINE
  8
0
 10
-20.8951
 20
57.3802
 11
-16.3239
 21
59.6761
  0
LINE
  8
0
 10
-16.3239
 20
59.6761
 11
-18.6198
 21
55.1049
  0
LINE
  8
0
 10
-18.6198
 20
55.1049
 11
-23.191
 21
52.809
  0
LINE
  8
0
 10
-23.191
 20
52.809
 11
-20.8951
 21
57.3802
  0
LINE
  8
0
 10
27.1049
 20
57.3802
 11
31.6761
 21
59.6761
  0
LINE
  8
0
 10
31.6761
 20
59.6761
 11
29.3802
 21
55.1049
  0
LINE
  8
0
 10
29.3802
 20
55.1049
 11
24.809
 21
52.809
  0
LINE
  8
0
 10
24.809
 20
52.809
 11
27.1049
 21
57.3802
  0
LINE
  8
0
 10
3.10492
 20
57.3802
 11
7.67615
 21
59.6761
  0
LINE
  8
0
 10
7.67615
 20
59.6761
 11
5.38019
 21
55.1049
  0
LINE
  8
0
 10
5.38019
 20
55.1049
 11
0.80896
 21
52.809
  0
LINE
  8
0
 10
0.80896
 20
52.809
 11
3.10492
 21
57.3802
  0
LINE
  8
0
 10
42.6198
 20
55.1049
 11
40.3239
 21
59.6761
  0
LINE
  8
0
 10
40.3239
 20
59.6761
 11
43.5129
 21
58.0744
  0
LINE
  8
0
 10
43.5129
 20
58.0744
 11
44.8401
 21
53.9897
  0
LINE
  8
0
 10
44.8401
 20
53.9897
 11
42.6198
 21
55.1049
  0
LINE
  8
0
 10
-5.38019
 20
55.1049
 11
-7.67615
 21
59.6761
  0
LINE
  8
0
 10
-7.67615
 20
59.6761
 11
-3.10492
 21
57.3802
  0
LINE
  8
0
 10
-3.10492
 20
57.3802
 11
-0.80896
 21
52.809
  0
LINE
  8
0
 10
-0.80896
 20
52.809
 11
-5.38019
 21
55.1049
  0
LINE
  8
0
 10
37.1442
 20
52
 11
42
 21
53.6089
  0
LINE
  8
0
 10
42
 20
53.6089
 11
45.3214
 21
52.5084
  0
LINE
  8
0
 10
45.3214
 20
52.5084
 11
45.6197
 21
51.5904
  0
LINE
  8
0
 10
45.6197
 20
51.5904
 11
42
 21
50.3911
  0
LINE
  8
0
 10
42
 20
50.3911
 11
37.1442
 21
52
  0
LINE
  8
0
 10
25.1442
 20
52
 11
30
 21
53.6089
  0
LINE
  8
0
 10
30
 20
53.6089
 11
34.8558
 21
52
  0
LINE
  8
0
 10
34.8558
 20
52
 11
30
 21
50.3911
  0
LINE
  8
0
 10
30
 20
50.3911
 11
25.1442
 21
52
  0
LINE
  8
0
 10
13.1442
 20
52
 11
18
 21
53.6089
  0
LINE
  8
0
 10
18
 20
53.6089
 11
22.8558
 21
52
  0
LINE
  8
0
 10
22.8558
 20
52
 11
18
 21
50.3911
  0
LINE
  8
0
 10
18
 20
50.3911
 11
13.1442
 21
52
  0
LINE
  8
0
 10
1.14423
 20
52
 11
6
 21
53.6089
  0
LINE
  8
0
 10
6
 20
53.6089
 11
10.8558
 21
52
  0
LINE
  8
0
 10
10.8558
 20
52
 11
6
 21
50.3911
  0
LINE
  8
0
 10
6
 20
50.3911
 11
1.14423
 21
52
  0
LINE
  8
0
 10
-22.8558
 20
52
 11
-18
 21
53.6089
  0
LINE
  8
0
 10
-18
 20
53.6089
 11
-13.1442
 21
52
  0
LINE
  8
0
 10
-13.1442
 20
52
 11
-18
 21
50.3911
  0
LINE
  8
0
 10
-18
 20
50.3911
 11
-22.8558
 21
52
  0
LINE
  8
0
 10
-10.8558
 20
52
 11
-6
 21
53.6089
  0
LINE
  8
0
 10
-6
 20
53.6089
 11
-1.14423
 21
52
  0
LINE
  8
0
 10
-1.14423
 20
52
 11
-6
 21
50.3911
  0
LINE
  8
0
 10
-6
 20
50.3911
 11
-10.8558
 21
52
  0
LINE
  8
0
 10
-34.8558
 20
52
 11
-30
 21
53.6089
  0
LINE
  8
0
 10
-30
 20
53.6089
 11
-25.1442
 21
52
  0
LINE
  8
0
 10
-25.1442
 20
52
 11
-30
 21
50.3911
  0
LINE
  8
0
 10
-30
 20
50.3911
 11
-34.8558
 21
52
  0
LINE
  8
0
 10
-45.6197
 20
51.5904
 11
-45.3214
 21
52.5084
  0
LINE
  8
0
 10
-45.3214
 20
52.5084
 11
-42
 21
53.6089
  0
LINE
  8
0
 10
-42
 20
53.6089
 11
-37.1442
 21
52
  0
LINE
  8
0
 10
-37.1442
 20
52
 11
-42
 21
50.3911
  0
LINE
  8
0
 10
-42
 20
50.3911
 11
-45.6197
 21
51.5904
  0
LINE
  8
0
 10
-29.3802
 20
48.8951
 11
-24.809
 21
51.191
  0
LINE
  8
0
 10
-24.809
 20
51.191
 11
-27.1049
 21
46.6198
  0
LINE
  8
0
 10
-27.1049
 20
46.6198
 11
-31.6761
 21
44.3239
  0
LINE
  8
0
 10
-31.6761
 20
44.3239
 11
-29.3802
 21
48.8951
  0
LINE
  8
0
 10
-5.38019
 20
48.8951
 11
-0.80896
 21
51.191
  0
LINE
  8
0
 10
-0.80896
 20
51.191
 11
-3.10492
 21
46.6198
  0
LINE
  8
0
 10
-3.10492
 20
46.6198
 11
-7.67615
 21
44.3239
  0
LINE
  8
0
 10
-7.67615
 20
44.3239
 11
-5.38019
 21
48.8951
  0
LINE
  8
0
 10
18.6198
 20
48.8951
 11
23.191
 21
51.191
  0
LINE
  8
0
 10
23.191
 20
51.191
 11
20.8951
 21
46.6198
  0
LINE
  8
0
 10
20.8951
 20
46.6198
 11
16.3239
 21
44.3239
  0
LINE
  8
0
 10
16.3239
 20
44.3239
 11
18.6198
 21
48.8951
  0
LINE
  8
0
 10
3.10492
 20
46.6198
 11
0.80896
 21
51.191
  0
LINE
  8
0
 10
0.80896
 20
51.191
 11
5.38019
 21
48.8951
  0
LINE
  8
0
 10
5.38019
 20
48.8951
 11
7.67615
 21
44.3239
  0
LINE
  8
0
 10
7.67615
 20
44.3239
 11
3.10492
 21
46.6198
  0
LINE
  8
0
 10
-20.8951
 20
46.6198
 11
-23.191
 21
51.191
  0
LINE
  8
0
 10
-23.191
 20
51.191
 11
-18.6198
 21
48.8951
  0
LINE
  8
0
 10
-18.6198
 20
48.8951
 11
-16.3239
 21
44.3239
  0
LINE
  8
0
 10
-16.3239
 20
44.3239
 11
-20.8951
 21
46.6198
  0
LINE
  8
0
 10
27.1049
 20
46.6198
 11
24.809
 21
51.191
  0
LINE
  8
0
 10
24.809
 20
51.191
 11
29.3802
 21
48.8951
  0
LINE
  8
0
 10
29.3802
 20
48.8951
 11
31.6761
 21
44.3239
  0
LINE
  8
0
 10
31.6761
 20
44.3239
 11
27.1049
 21
46.6198
  0
LINE
  8
0
 10
22.3911
 20
46
 11
24
 21
50.8558
  0
LINE
  8
0
 10
24
 20
50.8558
 11
25.6089
 21
46
  0
LINE
  8
0
 10
25.6089
 20
46
 11
24
 21
41.1442
  0
LINE
  8
0
 10
24
 20
41.1442
 11
22.3911
 21
46
  0
LINE
  8
0
 10
-25.6089
 20
46
 11
-24
 21
50.8558
  0
LINE
  8
0
 10
-24
 20
50.8558
 11
-22.3911
 21
46
  0
LINE
  8
0
 10
-22.3911
 20
46
 11
-24
 21
41.1442
  0
LINE
  8
0
 10
-24
 20
41.1442
 11
-25.6089
 21
46
  0
LINE
  8
0
 10
-1.60895
 20
46
 11
0
 21
50.8558
  0
LINE
  8
0
 10
0
 20
50.8558
 11
1.60895
 21
46
  0
LINE
  8
0
 10
1.60895
 20
46
 11
0
 21
41.1442
  0
LINE
  8
0
 10
0
 20
41.1442
 11
-1.60895
 21
46
  0
LINE
  8
0
 10
-44.8951
 20
46.6198
 11
-46.3157
 21
49.4483
  0
LINE
  8
0
 10
-46.3157
 20
49.4483
 11
-45.9517
 21
50.5686
  0
LINE
  8
0
 10
-45.9517
 20
50.5686
 11
-42.6198
 21
48.8951
  0
LINE
  8
0
 10
-42.6198
 20
48.8951
 11
-40.3239
 21
44.3239
  0
LINE
  8
0
 10
-40.3239
 20
44.3239
 11
-44.8951
 21
46.6198
  0
LINE
  8
0
 10
42.6198
 20
48.8951
 11
45.9517
 21
50.5686
  0
LINE
  8
0
 10
45.9517
 20
50.5686
 11
46.3157
 21
49.4483
  0
LINE
  8
0
 10
46.3157
 20
49.4483
 11
44.8951
 21
46.6198
  0
LINE
  8
0
 10
44.8951
 20
46.6198
 11
40.3239
 21
44.3239
  0
LINE
  8
0
 10
40.3239
 20
44.3239
 11
42.6198
 21
48.8951
  0
LINE
  8
0
 10
-48.5119
 20
42.6891
 11
-46.9187
 21
47.5925
  0
LINE
  8
0
 10
-46.9187
 20
47.5925
 11
-46.3911
 21
46
  0
LINE
  8
0
 10
-46.3911
 20
46
 11
-48
 21
41.1442
  0
LINE
  8
0
 10
-48
 20
41.1442
 11
-48.5119
 21
42.6891
  0
LINE
  8
0
 10
46.3911
 20
46
 11
46.9187
 21
47.5925
  0
LINE
  8
0
 10
46.9187
 20
47.5925
 11
48.5119
 21
42.6891
  0
LINE
  8
0
 10
48.5119
 20
42.6891
 11
48
 21
41.1442
  0
LINE
  8
0
 10
48
 20
41.1442
 11
46.3911
 21
46
  0
LINE
  8
0
 10
-49.6089
 20
34
 11
-48
 21
38.8558
  0
LINE
  8
0
 10
-48
 20
38.8558
 11
-46.3911
 21
34
  0
LINE
  8
0
 10
-46.3911
 20
34
 11
-48
 21
29.1442
  0
LINE
  8
0
 10
-48
 20
29.1442
 11
-49.6089
 21
34
  0
LINE
  8
0
 10
22.3911
 20
34
 11
24
 21
38.8558
  0
LINE
  8
0
 10
24
 20
38.8558
 11
25.6089
 21
34
  0
LINE
  8
0
 10
25.6089
 20
34
 11
24
 21
29.1442
  0
LINE
  8
0
 10
24
 20
29.1442
 11
22.3911
 21
34
  0
LINE
  8
0
 10
-1.60895
 20
34
 11
0
 21
38.8558
  0
LINE
  8
0
 10
0
 20
38.8558
 11
1.60895
 21
34
  0
LINE
  8
0
 10
1.60895
 20
34
 11
0
 21
29.1442
  0
LINE
  8
0
 10
0
 20
29.1442
 11
-1.60895
 21
34
  0
LINE
  8
0
 10
46.3911
 20
34
 11
48
 21
38.8558
  0
LINE
  8
0
 10
48
 20
38.8558
 11
49.6089
 21
34
  0
LINE
  8
0
 10
49.6089
 20
34
 11
48
 21
29.1442
  0
LINE
  8
0
 10
48
 20
29.1442
 11
46.3911
 21
34
  0
LINE
  8
0
 10
-25.6089
 20
34
 11
-24
 21
38.8558
  0
LINE
  8
0
 10
-24
 20
38.8558
 11
-22.3911
 21
34
  0
LINE
  8
0
 10
-22.3911
 20
34
 11
-24
 21
29.1442
  0
LINE
  8
0
 10
-24
 20
29.1442
 11
-25.6089
 21
34
  0
LINE
  8
0
 10
-5.38019
 20
31.1049
 11
-7.67615
 21
35.6761
  0
LINE
  8
0
 10
-7.67615
 20
35.6761
 11
-3.10492
 21
33.3802
  0
LINE
  8
0
 10
-3.10492
 20
33.3802
 11
-0.80896
 21
28.809
  0
LINE
  8
0
 10
-0.80896
 20
28.809
 11
-5.38019
 21
31.1049
  0
LINE
  8
0
 10
-44.8951
 20
33.3802
 11
-40.3239
 21
35.6761
  0
LINE
  8
0
 10
-40.3239
 20
35.6761
 11
-42.6198
 21
31.1049
  0
LINE
  8
0
 10
-42.6198
 20
31.1049
 11
-47.191
 21
28.809
  0
LINE
  8
0
 10
-47.191
 20
28.809
 11
-44.8951
 21
33.3802
  0
LINE
  8
0
 10
42.6198
 20
31.1049
 11
40.3239
 21
35.6761
  0
LINE
  8
0
 10
40.3239
 20
35.6761
 11
44.8951
 21
33.3802
  0
LINE
  8
0
 10
44.8951
 20
33.3802
 11
47.191
 21
28.809
  0
LINE
  8
0
 10
47.191
 20
28.809
 11
42.6198
 21
31.1049
  0
LINE
  8
0
 10
3.10492
 20
33.3802
 11
7.67615
 21
35.6761
  0
LINE
  8
0
 10
7.67615
 20
35.6761
 11
5.38019
 21
31.1049
  0
LINE
  8
0
 10
5.38019
 20
31.1049
 11
0.80896
 21
28.809
  0
LINE
  8
0
 10
0.80896
 20
28.809
 11
3.10492
 21
33.3802
  0
LINE
  8
0
 10
-20.8951
 20
33.3802
 11
-16.3239
 21
35.6761
  0
LINE
  8
0
 10
-16.3239
 20
35.6761
 11
-18.6198
 21
31.1049
  0
LINE
  8
0
 10
-18.6198
 20
31.1049
 11
-23.191
 21
28.809
  0
LINE
  8
0
 10
-23.191
 20
28.809
 11
-20.8951
 21
33.3802
  0
LINE
  8
0
 10
-29.3802
 20
31.1049
 11
-31.6761
 21
35.6761
  0
LINE
  8
0
 10
-31.6761
 20
35.6761
 11
-27.1049
 21
33.3802
  0
LINE
  8
0
 10
-27.1049
 20
33.3802
 11
-24.809
 21
28.809
  0
LINE
  8
0
 10
-24.809
 20
28.809
 11
-29.3802
 21
31.1049
  0
LINE
  8
0
 10
27.1049
 20
33.3802
 11
31.6761
 21
35.6761
  0
LINE
  8
0
 10
31.6761
 20
35.6761
 11
29.3802
 21
31.1049
  0
LINE
  8
0
 10
29.3802
 20
31.1049
 11
24.809
 21
28.809
  0
LINE
  8
0
 10
24.809
 20
28.809
 11
27.1049
 21
33.3802
  0
LINE
  8
0
 10
18.6198
 20
31.1049
 11
16.3239
 21
35.6761
  0
LINE
  8
0
 10
16.3239
 20
35.6761
 11
20.8951
 21
33.3802
  0
LINE
  8
0
 10
20.8951
 20
33.3802
 11
23.191
 21
28.809
  0
LINE
  8
0
 10
23.191
 20
28.809
 11
18.6198
 21
31.1049
  0
LINE
  8
0
 10
-52.4308
 20
30.6281
 11
-51.476
 21
33.5666
  0
LINE
  8
0
 10
-51.476
 20
33.5666
 11
-51.1049
 21
33.3802
  0
LINE
  8
0
 10
-51.1049
 20
33.3802
 11
-48.809
 21
28.809
  0
LINE
  8
0
 10
-48.809
 20
28.809
 11
-52.4308
 21
30.6281
  0
LINE
  8
0
 10
51.1049
 20
33.3802
 11
51.476
 21
33.5666
  0
LINE
  8
0
 10
51.476
 20
33.5666
 11
52.4308
 21
30.6281
  0
LINE
  8
0
 10
52.4308
 20
30.6281
 11
48.809
 21
28.809
  0
LINE
  8
0
 10
48.809
 20
28.809
 11
51.1049
 21
33.3802
  0
LINE
  8
0
 10
13.1442
 20
28
 11
18
 21
29.6089
  0
LINE
  8
0
 10
18
 20
29.6089
 11
22.8558
 21
28
  0
LINE
  8
0
 10
22.8558
 20
28
 11
18
 21
26.3911
  0
LINE
  8
0
 10
18
 20
26.3911
 11
13.1442
 21
28
  0
LINE
  8
0
 10
37.1442
 20
28
 11
42
 21
29.6089
  0
LINE
  8
0
 10
42
 20
29.6089
 11
46.8558
 21
28
  0
LINE
  8
0
 10
46.8558
 20
28
 11
42
 21
26.3911
  0
LINE
  8
0
 10
42
 20
26.3911
 11
37.1442
 21
28
  0
LINE
  8
0
 10
25.1442
 20
28
 11
30
 21
29.6089
  0
LINE
  8
0
 10
30
 20
29.6089
 11
34.8558
 21
28
  0
LINE
  8
0
 10
34.8558
 20
28
 11
30
 21
26.3911
  0
LINE
  8
0
 10
30
 20
26.3911
 11
25.1442
 21
28
  0
LINE
  8
0
 10
-10.8558
 20
28
 11
-6
 21
29.6089
  0
LINE
  8
0
 10
-6
 20
29.6089
 11
-1.14423
 21
28
  0
LINE
  8
0
 10
-1.14423
 20
28
 11
-6
 21
26.3911
  0
LINE
  8
0
 10
-6
 20
26.3911
 11
-10.8558
 21
28
  0
LINE
  8
0
 10
-46.8558
 20
28
 11
-42
 21
29.6089
  0
LINE
  8
0
 10
-42
 20
29.6089
 11
-37.1442
 21
28
  0
LINE
  8
0
 10
-37.1442
 20
28
 11
-42
 21
26.3911
  0
LINE
  8
0
 10
-42
 20
26.3911
 11
-46.8558
 21
28
  0
LINE
  8
0
 10
-22.8558
 20
28
 11
-18
 21
29.6089
  0
LINE
  8
0
 10
-18
 20
29.6089
 11
-13.1442
 21
28
  0
LINE
  8
0
 10
-13.1442
 20
28
 11
-18
 21
26.3911
  0
LINE
  8
0
 10
-18
 20
26.3911
 11
-22.8558
 21
28
  0
LINE
  8
0
 10
-34.8558
 20
28
 11
-30
 21
29.6089
  0
LINE
  8
0
 10
-30
 20
29.6089
 11
-25.1442
 21
28
  0
LINE
  8
0
 10
-25.1442
 20
28
 11
-30
 21
26.3911
  0
LINE
  8
0
 10
-30
 20
26.3911
 11
-34.8558
 21
28
  0
LINE
  8
0
 10
1.14423
 20
28
 11
6
 21
29.6089
  0
LINE
  8
0
 10
6
 20
29.6089
 11
10.8558
 21
28
  0
LINE
  8
0
 10
10.8558
 20
28
 11
6
 21
26.3911
  0
LINE
  8
0
 10
6
 20
26.3911
 11
1.14423
 21
28
  0
LINE
  8
0
 10
-52.8823
 20
29.2386
 11
-49.1442
 21
28
  0
LINE
  8
0
 10
-49.1442
 20
28
 11
-53.7843
 21
26.4625
  0
LINE
  8
0
 10
-53.7843
 20
26.4625
 11
-52.8823
 21
29.2386
  0
LINE
  8
0
 10
49.1442
 20
28
 11
52.8823
 21
29.2386
  0
LINE
  8
0
 10
52.8823
 20
29.2386
 11
53.7843
 21
26.4625
  0
LINE
  8
0
 10
53.7843
 20
26.4625
 11
49.1442
 21
28
  0
LINE
  8
0
 10
-29.3802
 20
24.8951
 11
-24.809
 21
27.191
  0
LINE
  8
0
 10
-24.809
 20
27.191
 11
-27.1049
 21
22.6198
  0
LINE
  8
0
 10
-27.1049
 20
22.6198
 11
-31.6761
 21
20.3239
  0
LINE
  8
0
 10
-31.6761
 20
20.3239
 11
-29.3802
 21
24.8951
  0
LINE
  8
0
 10
51.1049
 20
22.6198
 11
48.809
 21
27.191
  0
LINE
  8
0
 10
48.809
 20
27.191
 11
53.3802
 21
24.8951
  0
LINE
  8
0
 10
53.3802
 20
24.8951
 11
55.6761
 21
20.3239
  0
LINE
  8
0
 10
55.6761
 20
20.3239
 11
51.1049
 21
22.6198
  0
LINE
  8
0
 10
42.6198
 20
24.8951
 11
47.191
 21
27.191
  0
LINE
  8
0
 10
47.191
 20
27.191
 11
44.8951
 21
22.6198
  0
LINE
  8
0
 10
44.8951
 20
22.6198
 11
40.3239
 21
20.3239
  0
LINE
  8
0
 10
40.3239
 20
20.3239
 11
42.6198
 21
24.8951
  0
LINE
  8
0
 10
-53.3802
 20
24.8951
 11
-48.809
 21
27.191
  0
LINE
  8
0
 10
-48.809
 20
27.191
 11
-51.1049
 21
22.6198
  0
LINE
  8
0
 10
-51.1049
 20
22.6198
 11
-55.6761
 21
20.3239
  0
LINE
  8
0
 10
-55.6761
 20
20.3239
 11
-53.3802
 21
24.8951
  0
LINE
  8
0
 10
-44.8951
 20
22.6198
 11
-47.191
 21
27.191
  0
LINE
  8
0
 10
-47.191
 20
27.191
 11
-42.6198
 21
24.8951
  0
LINE
  8
0
 10
-42.6198
 20
24.8951
 11
-40.3239
 21
20.3239
  0
LINE
  8
0
 10
-40.3239
 20
20.3239
 11
-44.8951
 21
22.6198
  0
LINE
  8
0
 10
18.6198
 20
24.8951
 11
23.191
 21
27.191
  0
LINE
  8
0
 10
23.191
 20
27.191
 11
20.8951
 21
22.6198
  0
LINE
  8
0
 10
20.8951
 20
22.6198
 11
16.3239
 21
20.3239
  0
LINE
  8
0
 10
16.3239
 20
20.3239
 11
18.6198
 21
24.8951
  0
LINE
  8
0
 10
3.10492
 20
22.6198
 11
0.80896
 21
27.191
  0
LINE
  8
0
 10
0.80896
 20
27.191
 11
5.38019
 21
24.8951
  0
LINE
  8
0
 10
5.38019
 20
24.8951
 11
7.67615
 21
20.3239
  0
LINE
  8
0
 10
7.67615
 20
20.3239
 11
3.10492
 21
22.6198
  0
LINE
  8
0
 10
-5.38019
 20
24.8951
 11
-0.80896
 21
27.191
  0
LINE
  8
0
 10
-0.80896
 20
27.191
 11
-3.10492
 21
22.6198
  0
LINE
  8
0
 10
-3.10492
 20
22.6198
 11
-7.67615
 21
20.3239
  0
LINE
  8
0
 10
-7.67615
 20
20.3239
 11
-5.38019
 21
24.8951
  0
LINE
  8
0
 10
-20.8951
 20
22.6198
 11
-23.191
 21
27.191
  0
LINE
  8
0
 10
-23.191
 20
27.191
 11
-18.6198
 21
24.8951
  0
LINE
  8
0
 10
-18.6198
 20
24.8951
 11
-16.3239
 21
20.3239
  0
LINE
  8
0
 10
-16.3239
 20
20.3239
 11
-20.8951
 21
22.6198
  0
LINE
  8
0
 10
27.1049
 20
22.6198
 11
24.809
 21
27.191
  0
LINE
  8
0
 10
24.809
 20
27.191
 11
29.3802
 21
24.8951
  0
LINE
  8
0
 10
29.3802
 20
24.8951
 11
31.6761
 21
20.3239
  0
LINE
  8
0
 10
31.6761
 20
20.3239
 11
27.1049
 21
22.6198
  0
LINE
  8
0
 10
-1.60895
 20
22
 11
0
 21
26.8558
  0
LINE
  8
0
 10
0
 20
26.8558
 11
1.60895
 21
22
  0
LINE
  8
0
 10
1.60895
 20
22
 11
0
 21
17.1442
  0
LINE
  8
0
 10
0
 20
17.1442
 11
-1.60895
 21
22
  0
LINE
  8
0
 10
-25.6089
 20
22
 11
-24
 21
26.8558
  0
LINE
  8
0
 10
-24
 20
26.8558
 11
-22.3911
 21
22
  0
LINE
  8
0
 10
-22.3911
 20
22
 11
-24
 21
17.1442
  0
LINE
  8
0
 10
-24
 20
17.1442
 11
-25.6089
 21
22
  0
LINE
  8
0
 10
22.3911
 20
22
 11
24
 21
26.8558
  0
LINE
  8
0
 10
24
 20
26.8558
 11
25.6089
 21
22
  0
LINE
  8
0
 10
25.6089
 20
22
 11
24
 21
17.1442
  0
LINE
  8
0
 10
24
 20
17.1442
 11
22.3911
 21
22
  0
LINE
  8
0
 10
-49.6089
 20
22
 11
-48
 21
26.8558
  0
LINE
  8
0
 10
-48
 20
26.8558
 11
-46.3911
 21
22
  0
LINE
  8
0
 10
-46.3911
 20
22
 11
-48
 21
17.1442
  0
LINE
  8
0
 10
-48
 20
17.1442
 11
-49.6089
 21
22
  0
LINE
  8
0
 10
46.3911
 20
22
 11
48
 21
26.8558
  0
LINE
  8
0
 10
48
 20
26.8558
 11
49.6089
 21
22
  0
LINE
  8
0
 10
49.6089
 20
22
 11
48
 21
17.1442
  0
LINE
  8
0
 10
48
 20
17.1442
 11
46.3911
 21
22
  0
LINE
  8
0
 10
-48.9463
 20
12
 11
-48
 21
14.8558
  0
LINE
  8
0
 10
-48
 20
14.8558
 11
-47.0537
 21
12
  0
LINE
  8
0
 10
-47.0537
 20
12
 11
-48.9463
 21
12
  0
LINE
  8
0
 10
-24.9463
 20
12
 11
-24
 21
14.8558
  0
LINE
  8
0
 10
-24
 20
14.8558
 11
-23.0537
 21
12
  0
LINE
  8
0
 10
-23.0537
 20
12
 11
-24.9463
 21
12
  0
LINE
  8
0
 10
-0.946259
 20
12
 11
0
 21
14.8558
  0
LINE
  8
0
 10
0
 20
14.8558
 11
0.946259
 21
12
  0
LINE
  8
0
 10
0.946259
 20
12
 11
-0.946259
 21
12
  0
LINE
  8
0
 10
23.0537
 20
12
 11
24
 21
14.8558
  0
LINE
  8
0
 10
24
 20
14.8558
 11
24.9463
 21
12
  0
LINE
  8
0
 10
24.9463
 20
12
 11
23.0537
 21
12
  0
LINE
  8
0
 10
47.0537
 20
12
 11
48
 21
14.8558
  0
LINE
  8
0
 10
48
 20
14.8558
 11
48.9463
 21
12
  0
LINE
  8
0
 10
48.9463
 20
12
 11
47.0537
 21
12
  0
LINE
  8
0
 10
-10
 20
7
 11
-10
 21
11
  0
LINE
  8
0
 10
-10
 20
11
 11
10
 21
11
  0
LINE
  8
0
 10
10
 20
11
 11
10
 21
7
  0
LINE
  8
0
 10
10
 20
7
 11
-10
 21
7
  0
LINE
  8
0
 10
-68.6534
 20
2.70622
 11
-68.7785
 21
2.71805
  0
LINE
  8
0
 10
-68.7785
 20
2.71805
 11
-68.9026
 21
2.7377
  0
LINE
  8
0
 10
-68.9026
 20
2.7377
 11
-69.0252
 21
2.76511
  0
LINE
  8
0
 10
-69.0252
 20
2.76511
 11
-69.1459
 21
2.80016
  0
LINE
  8
0
 10
-69.1459
 20
2.80016
 11
-69.2641
 21
2.84273
  0
LINE
  8
0
 10
-69.2641
 20
2.84273
 11
-69.3794
 21
2.89262
  0
LINE
  8
0
 10
-69.3794
 20
2.89262
 11
-69.4914
 21
2.94966
  0
LINE
  8
0
 10
-69.4914
 20
2.94966
 11
-69.5995
 21
3.01363
  0
LINE
  8
0
 10
-69.5995
 20
3.01363
 11
-69.7034
 21
3.08424
  0
LINE
  8
0
 10
-69.7034
 20
3.08424
 11
-69.8027
 21
3.16125
  0
LINE
  8
0
 10
-69.8027
 20
3.16125
 11
-69.897
 21
3.24434
  0
LINE
  8
0
 10
-69.897
 20
3.24434
 11
-69.9858
 21
3.33318
  0
LINE
  8
0
 10
-69.9858
 20
3.33318
 11
-70.0689
 21
3.42743
  0
LINE
  8
0
 10
-70.0689
 20
3.42743
 11
-70.1459
 21
3.5267
  0
LINE
  8
0
 10
-70.1459
 20
3.5267
 11
-70.2165
 21
3.63062
  0
LINE
  8
0
 10
-70.2165
 20
3.63062
 11
-70.2805
 21
3.73877
  0
LINE
  8
0
 10
-70.2805
 20
3.73877
 11
-70.3375
 21
3.85072
  0
LINE
  8
0
 10
-70.3375
 20
3.85072
 11
-70.3874
 21
3.96602
  0
LINE
  8
0
 10
-70.3874
 20
3.96602
 11
-70.43
 21
4.08424
  0
LINE
  8
0
 10
-70.43
 20
4.08424
 11
-70.465
 21
4.2049
  0
LINE
  8
0
 10
-70.465
 20
4.2049
 11
-70.4924
 21
4.32751
  0
LINE
  8
0
 10
-70.4924
 20
4.32751
 11
-70.5121
 21
4.45161
  0
LINE
  8
0
 10
-70.5121
 20
4.45161
 11
-70.5239
 21
4.57669
  0
LINE
  8
0
 10
-70.5239
 20
4.57669
 11
-70.5279
 21
4.70227
  0
LINE
  8
0
 10
-70.5279
 20
4.70227
 11
-70.5239
 21
4.82785
  0
LINE
  8
0
 10
-70.5239
 20
4.82785
 11
-70.5121
 21
4.95294
  0
LINE
  8
0
 10
-70.5121
 20
4.95294
 11
-70.4924
 21
5.07704
  0
LINE
  8
0
 10
-70.4924
 20
5.07704
 11
-70.465
 21
5.19966
  0
LINE
  8
0
 10
-70.465
 20
5.19966
 11
-70.43
 21
5.32031
  0
LINE
  8
0
 10
-70.43
 20
5.32031
 11
-70.3874
 21
5.43852
  0
LINE
  8
0
 10
-70.3874
 20
5.43852
 11
-70.3375
 21
5.55383
  0
LINE
  8
0
 10
-70.3375
 20
5.55383
 11
-70.2805
 21
5.66579
  0
LINE
  8
0
 10
-70.2805
 20
5.66579
 11
-70.2165
 21
5.77393
  0
LINE
  8
0
 10
-70.2165
 20
5.77393
 11
-70.1459
 21
5.87784
  0
LINE
  8
0
 10
-70.1459
 20
5.87784
 11
-70.0689
 21
5.97713
  0
LINE
  8
0
 10
-70.0689
 20
5.97713
 11
-69.9858
 21
6.07137
  0
LINE
  8
0
 10
-69.9858
 20
6.07137
 11
-69.897
 21
6.16022
  0
LINE
  8
0
 10
-69.897
 20
6.16022
 11
-69.8027
 21
6.2433
  0
LINE
  8
0
 10
-69.8027
 20
6.2433
 11
-69.7034
 21
6.32031
  0
LINE
  8
0
 10
-69.7034
 20
6.32031
 11
-69.5995
 21
6.39093
  0
LINE
  8
0
 10
-69.5995
 20
6.39093
 11
-69.4914
 21
6.4549
  0
LINE
  8
0
 10
-69.4914
 20
6.4549
 11
-69.3794
 21
6.51193
  0
LINE
  8
0
 10
-69.3794
 20
6.51193
 11
-69.2641
 21
6.56183
  0
LINE
  8
0
 10
-69.2641
 20
6.56183
 11
-69.1459
 21
6.60439
  0
LINE
  8
0
 10
-69.1459
 20
6.60439
 11
-69.0252
 21
6.63943
  0
LINE
  8
0
 10
-69.0252
 20
6.63943
 11
-68.9026
 21
6.66685
  0
LINE
  8
0
 10
-68.9026
 20
6.66685
 11
-68.7785
 21
6.68651
  0
LINE
  8
0
 10
-68.7785
 20
6.68651
 11
-68.6534
 21
6.69833
  0
LINE
  8
0
 10
-68.6534
 20
6.69833
 11
-68.5279
 21
6.70227
  0
LINE
  8
0
 10
-68.5279
 20
6.70227
 11
-68.4023
 21
6.69833
  0
LINE
  8
0
 10
-68.4023
 20
6.69833
 11
-68.2772
 21
6.68651
  0
LINE
  8
0
 10
-68.2772
 20
6.68651
 11
-68.1531
 21
6.66685
  0
LINE
  8
0
 10
-68.1531
 20
6.66685
 11
-68.0305
 21
6.63943
  0
LINE
  8
0
 10
-68.0305
 20
6.63943
 11
-67.9098
 21
6.60439
  0
LINE
  8
0
 10
-67.9098
 20
6.60439
 11
-67.7916
 21
6.56183
  0
LINE
  8
0
 10
-67.7916
 20
6.56183
 11
-67.6763
 21
6.51193
  0
LINE
  8
0
 10
-67.6763
 20
6.51193
 11
-67.5643
 21
6.4549
  0
LINE
  8
0
 10
-67.5643
 20
6.4549
 11
-67.4562
 21
6.39093
  0
LINE
  8
0
 10
-67.4562
 20
6.39093
 11
-67.3523
 21
6.32031
  0
LINE
  8
0
 10
-67.3523
 20
6.32031
 11
-67.253
 21
6.2433
  0
LINE
  8
0
 10
-67.253
 20
6.2433
 11
-67.1588
 21
6.16022
  0
LINE
  8
0
 10
-67.1588
 20
6.16022
 11
-67.0699
 21
6.07137
  0
LINE
  8
0
 10
-67.0699
 20
6.07137
 11
-66.9868
 21
5.97713
  0
LINE
  8
0
 10
-66.9868
 20
5.97713
 11
-66.9098
 21
5.87784
  0
LINE
  8
0
 10
-66.9098
 20
5.87784
 11
-66.8392
 21
5.77393
  0
LINE
  8
0
 10
-66.8392
 20
5.77393
 11
-66.7752
 21
5.66579
  0
LINE
  8
0
 10
-66.7752
 20
5.66579
 11
-66.7182
 21
5.55383
  0
LINE
  8
0
 10
-66.7182
 20
5.55383
 11
-66.6683
 21
5.43852
  0
LINE
  8
0
 10
-66.6683
 20
5.43852
 11
-66.6257
 21
5.32031
  0
LINE
  8
0
 10
-66.6257
 20
5.32031
 11
-66.5907
 21
5.19966
  0
LINE
  8
0
 10
-66.5907
 20
5.19966
 11
-66.5633
 21
5.07704
  0
LINE
  8
0
 10
-66.5633
 20
5.07704
 11
-66.5436
 21
4.95294
  0
LINE
  8
0
 10
-66.5436
 20
4.95294
 11
-66.5318
 21
4.82785
  0
LINE
  8
0
 10
-66.5318
 20
4.82785
 11
-66.5279
 21
4.70227
  0
LINE
  8
0
 10
-66.5279
 20
4.70227
 11
-66.5318
 21
4.57669
  0
LINE
  8
0
 10
-66.5318
 20
4.57669
 11
-66.5436
 21
4.45161
  0
LINE
  8
0
 10
-66.5436
 20
4.45161
 11
-66.5633
 21
4.32751
  0
LINE
  8
0
 10
-66.5633
 20
4.32751
 11
-66.5907
 21
4.2049
  0
LINE
  8
0
 10
-66.5907
 20
4.2049
 11
-66.6257
 21
4.08424
  0
LINE
  8
0
 10
-66.6257
 20
4.08424
 11
-66.6683
 21
3.96602
  0
LINE
  8
0
 10
-66.6683
 20
3.96602
 11
-66.7182
 21
3.85072
  0
LINE
  8
0
 10
-66.7182
 20
3.85072
 11
-66.7752
 21
3.73877
  0
LINE
  8
0
 10
-66.7752
 20
3.73877
 11
-66.8392
 21
3.63062
  0
LINE
  8
0
 10
-66.8392
 20
3.63062
 11
-66.9098
 21
3.5267
  0
LINE
  8
0
 10
-66.9098
 20
3.5267
 11
-66.9868
 21
3.42743
  0
LINE
  8
0
 10
-66.9868
 20
3.42743
 11
-67.0699
 21
3.33318
  0
LINE
  8
0
 10
-67.0699
 20
3.33318
 11
-67.1588
 21
3.24434
  0
LINE
  8
0
 10
-67.1588
 20
3.24434
 11
-67.253
 21
3.16125
  0
LINE
  8
0
 10
-67.253
 20
3.16125
 11
-67.3523
 21
3.08424
  0
LINE
  8
0
 10
-67.3523
 20
3.08424
 11
-67.4562
 21
3.01363
  0
LINE
  8
0
 10
-67.4562
 20
3.01363
 11
-67.5643
 21
2.94966
  0
LINE
  8
0
 10
-67.5643
 20
2.94966
 11
-67.6763
 21
2.89262
  0
LINE
  8
0
 10
-67.6763
 20
2.89262
 11
-67.7916
 21
2.84273
  0
LINE
  8
0
 10
-67.7916
 20
2.84273
 11
-67.9098
 21
2.80016
  0
LINE
  8
0
 10
-67.9098
 20
2.80016
 11
-68.0305
 21
2.76511
  0
LINE
  8
0
 10
-68.0305
 20
2.76511
 11
-68.1531
 21
2.7377
  0
LINE
  8
0
 10
-68.1531
 20
2.7377
 11
-68.2772
 21
2.71805
  0
LINE
  8
0
 10
-68.2772
 20
2.71805
 11
-68.4023
 21
2.70622
  0
LINE
  8
0
 10
-68.4023
 20
2.70622
 11
-68.5279
 21
2.70227
  0
LINE
  8
0
 10
-68.5279
 20
2.70227
 11
-68.6534
 21
2.70622
  0
LINE
  8
0
 10
68.4023
 20
2.70622
 11
68.2772
 21
2.71805
  0
LINE
  8
0
 10
68.2772
 20
2.71805
 11
68.1531
 21
2.7377
  0
LINE
  8
0
 10
68.1531
 20
2.7377
 11
68.0305
 21
2.76511
  0
LINE
  8
0
 10
68.0305
 20
2.76511
 11
67.9098
 21
2.80016
  0
LINE
  8
0
 10
67.9098
 20
2.80016
 11
67.7916
 21
2.84273
  0
LINE
  8
0
 10
67.7916
 20
2.84273
 11
67.6763
 21
2.89262
  0
LINE
  8
0
 10
67.6763
 20
2.89262
 11
67.5643
 21
2.94966
  0
LINE
  8
0
 10
67.5643
 20
2.94966
 11
67.4562
 21
3.01363
  0
LINE
  8
0
 10
67.4562
 20
3.01363
 11
67.3523
 21
3.08424
  0
LINE
  8
0
 10
67.3523
 20
3.08424
 11
67.253
 21
3.16125
  0
LINE
  8
0
 10
67.253
 20
3.16125
 11
67.1588
 21
3.24434
  0
LINE
  8
0
 10
67.1588
 20
3.24434
 11
67.0699
 21
3.33318
  0
LINE
  8
0
 10
67.0699
 20
3.33318
 11
66.9868
 21
3.42743
  0
LINE
  8
0
 10
66.9868
 20
3.42743
 11
66.9098
 21
3.5267
  0
LINE
  8
0
 10
66.9098
 20
3.5267
 11
66.8392
 21
3.63062
  0
LINE
  8
0
 10
66.8392
 20
3.63062
 11
66.7752
 21
3.73877
  0
LINE
  8
0
 10
66.7752
 20
3.73877
 11
66.7182
 21
3.85072
  0
LINE
  8
0
 10
66.7182
 20
3.85072
 11
66.6683
 21
3.96602
  0
LINE
  8
0
 10
66.6683
 20
3.96602
 11
66.6257
 21
4.08424
  0
LINE
  8
0
 10
66.6257
 20
4.08424
 11
66.5907
 21
4.2049
  0
LINE
  8
0
 10
66.5907
 20
4.2049
 11
66.5633
 21
4.32751
  0
LINE
  8
0
 10
66.5633
 20
4.32751
 11
66.5436
 21
4.45161
  0
LINE
  8
0
 10
66.5436
 20
4.45161
 11
66.5318
 21
4.57669
  0
LINE
  8
0
 10
66.5318
 20
4.57669
 11
66.5279
 21
4.70227
  0
LINE
  8
0
 10
66.5279
 20
4.70227
 11
66.5318
 21
4.82785
  0
LINE
  8
0
 10
66.5318
 20
4.82785
 11
66.5436
 21
4.95294
  0
LINE
  8
0
 10
66.5436
 20
4.95294
 11
66.5633
 21
5.07704
  0
LINE
  8
0
 10
66.5633
 20
5.07704
 11
66.5907
 21
5.19966
  0
LINE
  8
0
 10
66.5907
 20
5.19966
 11
66.6257
 21
5.32031
  0
LINE
  8
0
 10
66.6257
 20
5.32031
 11
66.6683
 21
5.43852
  0
LINE
  8
0
 10
66.6683
 20
5.43852
 11
66.7182
 21
5.55383
  0
LINE
  8
0
 10
66.7182
 20
5.55383
 11
66.7752
 21
5.66579
  0
LINE
  8
0
 10
66.7752
 20
5.66579
 11
66.8392
 21
5.77393
  0
LINE
  8
0
 10
66.8392
 20
5.77393
 11
66.9098
 21
5.87784
  0
LINE
  8
0
 10
66.9098
 20
5.87784
 11
66.9868
 21
5.97713
  0
LINE
  8
0
 10
66.9868
 20
5.97713
 11
67.0699
 21
6.07137
  0
LINE
  8
0
 10
67.0699
 20
6.07137
 11
67.1588
 21
6.16022
  0
LINE
  8
0
 10
67.1588
 20
6.16022
 11
67.253
 21
6.2433
  0
LINE
  8
0
 10
67.253
 20
6.2433
 11
67.3523
 21
6.32031
  0
LINE
  8
0
 10
67.3523
 20
6.32031
 11
67.4562
 21
6.39093
  0
LINE
  8
0
 10
67.4562
 20
6.39093
 11
67.5643
 21
6.4549
  0
LINE
  8
0
 10
67.5643
 20
6.4549
 11
67.6763
 21
6.51193
  0
LINE
  8
0
 10
67.6763
 20
6.51193
 11
67.7916
 21
6.56183
  0
LINE
  8
0
 10
67.7916
 20
6.56183
 11
67.9098
 21
6.60439
  0
LINE
  8
0
 10
67.9098
 20
6.60439
 11
68.0305
 21
6.63943
  0
LINE
  8
0
 10
68.0305
 20
6.63943
 11
68.1531
 21
6.66685
  0
LINE
  8
0
 10
68.1531
 20
6.66685
 11
68.2772
 21
6.68651
  0
LINE
  8
0
 10
68.2772
 20
6.68651
 11
68.4023
 21
6.69833
  0
LINE
  8
0
 10
68.4023
 20
6.69833
 11
68.5279
 21
6.70227
  0
LINE
  8
0
 10
68.5279
 20
6.70227
 11
68.6534
 21
6.69833
  0
LINE
  8
0
 10
68.6534
 20
6.69833
 11
68.7785
 21
6.68651
  0
LINE
  8
0
 10
68.7785
 20
6.68651
 11
68.9026
 21
6.66685
  0
LINE
  8
0
 10
68.9026
 20
6.66685
 11
69.0252
 21
6.63943
  0
LINE
  8
0
 10
69.0252
 20
6.63943
 11
69.1459
 21
6.60439
  0
LINE
  8
0
 10
69.1459
 20
6.60439
 11
69.2641
 21
6.56183
  0
LINE
  8
0
 10
69.2641
 20
6.56183
 11
69.3794
 21
6.51193
  0
LINE
  8
0
 10
69.3794
 20
6.51193
 11
69.4914
 21
6.4549
  0
LINE
  8
0
 10
69.4914
 20
6.4549
 11
69.5995
 21
6.39093
  0
LINE
  8
0
 10
69.5995
 20
6.39093
 11
69.7034
 21
6.32031
  0
LINE
  8
0
 10
69.7034
 20
6.32031
 11
69.8027
 21
6.2433
  0
LINE
  8
0
 10
69.8027
 20
6.2433
 11
69.897
 21
6.16022
  0
LINE
  8
0
 10
69.897
 20
6.16022
 11
69.9858
 21
6.07137
  0
LINE
  8
0
 10
69.9858
 20
6.07137
 11
70.0689
 21
5.97713
  0
LINE
  8
0
 10
70.0689
 20
5.97713
 11
70.1459
 21
5.87784
  0
LINE
  8
0
 10
70.1459
 20
5.87784
 11
70.2165
 21
5.77393
  0
LINE
  8
0
 10
70.2165
 20
5.77393
 11
70.2805
 21
5.66579
  0
LINE
  8
0
 10
70.2805
 20
5.66579
 11
70.3375
 21
5.55383
  0
LINE
  8
0
 10
70.3375
 20
5.55383
 11
70.3874
 21
5.43852
  0
LINE
  8
0
 10
70.3874
 20
5.43852
 11
70.43
 21
5.32031
  0
LINE
  8
0
 10
70.43
 20
5.32031
 11
70.465
 21
5.19966
  0
LINE
  8
0
 10
70.465
 20
5.19966
 11
70.4924
 21
5.07704
  0
LINE
  8
0
 10
70.4924
 20
5.07704
 11
70.5121
 21
4.95294
  0
LINE
  8
0
 10
70.5121
 20
4.95294
 11
70.5239
 21
4.82785
  0
LINE
  8
0
 10
70.5239
 20
4.82785
 11
70.5279
 21
4.70227
  0
LINE
  8
0
 10
70.5279
 20
4.70227
 11
70.5239
 21
4.57669
  0
LINE
  8
0
 10
70.5239
 20
4.57669
 11
70.5121
 21
4.45161
  0
LINE
  8
0
 10
70.5121
 20
4.45161
 11
70.4924
 21
4.32751
  0
LINE
  8
0
 10
70.4924
 20
4.32751
 11
70.465
 21
4.2049
  0
LINE
  8
0
 10
70.465
 20
4.2049
 11
70.43
 21
4.08424
  0
LINE
  8
0
 10
70.43
 20
4.08424
 11
70.3874
 21
3.96602
  0
LINE
  8
0
 10
70.3874
 20
3.96602
 11
70.3375
 21
3.85072
  0
LINE
  8
0
 10
70.3375
 20
3.85072
 11
70.2805
 21
3.73877
  0
LINE
  8
0
 10
70.2805
 20
3.73877
 11
70.2165
 21
3.63062
  0
LINE
  8
0
 10
70.2165
 20
3.63062
 11
70.1459
 21
3.5267
  0
LINE
  8
0
 10
70.1459
 20
3.5267
 11
70.0689
 21
3.42743
  0
LINE
  8
0
 10
70.0689
 20
3.42743
 11
69.9858
 21
3.33318
  0
LINE
  8
0
 10
69.9858
 20
3.33318
 11
69.897
 21
3.24434
  0
LINE
  8
0
 10
69.897
 20
3.24434
 11
69.8027
 21
3.16125
  0
LINE
  8
0
 10
69.8027
 20
3.16125
 11
69.7034
 21
3.08424
  0
LINE
  8
0
 10
69.7034
 20
3.08424
 11
69.5995
 21
3.01363
  0
LINE
  8
0
 10
69.5995
 20
3.01363
 11
69.4914
 21
2.94966
  0
LINE
  8
0
 10
69.4914
 20
2.94966
 11
69.3794
 21
2.89262
  0
LINE
  8
0
 10
69.3794
 20
2.89262
 11
69.2641
 21
2.84273
  0
LINE
  8
0
 10
69.2641
 20
2.84273
 11
69.1459
 21
2.80016
  0
LINE
  8
0
 10
69.1459
 20
2.80016
 11
69.0252
 21
2.76511
  0
LINE
  8
0
 10
69.0252
 20
2.76511
 11
68.9026
 21
2.7377
  0
LINE
  8
0
 10
68.9026
 20
2.7377
 11
68.7785
 21
2.71805
  0
LINE
  8
0
 10
68.7785
 20
2.71805
 11
68.6534
 21
2.70622
  0
LINE
  8
0
 10
68.6534
 20
2.70622
 11
68.5279
 21
2.70227
  0
LINE
  8
0
 10
68.5279
 20
2.70227
 11
68.4023
 21
2.70622
  0
ENDSEC
  0
SECTION
  2
OBJECTS
  0
DICTIONARY
  0
ENDSEC
  0
EOF
