  0
SECTION
  2
BLOCKS
  0
ENDSEC
  0
SECTION
  2
ENTITIES
  0
LINE
  8
0
 10
0
 20
230.826
 11
-75
 21
0
  0
LINE
  8
0
 10
-75
 20
0
 11
75
 21
0
  0
LINE
  8
0
 10
75
 20
0
 11
0
 21
230.826
  0
LINE
  8
0
 10
-0.12558
 20
212.83
 11
-0.250656
 21
212.842
  0
LINE
  8
0
 10
-0.250656
 20
212.842
 11
-0.374756
 21
212.862
  0
LINE
  8
0
 10
-0.374756
 20
212.862
 11
-0.497375
 21
212.889
  0
LINE
  8
0
 10
-0.497375
 20
212.889
 11
-0.618027
 21
212.924
  0
LINE
  8
0
 10
-0.618027
 20
212.924
 11
-0.736237
 21
212.967
  0
LINE
  8
0
 10
-0.736237
 20
212.967
 11
-0.851547
 21
213.017
  0
LINE
  8
0
 10
-0.851547
 20
213.017
 11
-0.963501
 21
213.074
  0
LINE
  8
0
 10
-0.963501
 20
213.074
 11
-1.07164
 21
213.138
  0
LINE
  8
0
 10
-1.07164
 20
213.138
 11
-1.17557
 21
213.208
  0
LINE
  8
0
 10
-1.17557
 20
213.208
 11
-1.27484
 21
213.285
  0
LINE
  8
0
 10
-1.27484
 20
213.285
 11
-1.36908
 21
213.368
  0
LINE
  8
0
 10
-1.36908
 20
213.368
 11
-1.45793
 21
213.457
  0
LINE
  8
0
 10
-1.45793
 20
213.457
 11
-1.54102
 21
213.551
  0
LINE
  8
0
 10
-1.54102
 20
213.551
 11
-1.61803
 21
213.651
  0
LINE
  8
0
 10
-1.61803
 20
213.651
 11
-1.68864
 21
213.755
  0
LINE
  8
0
 10
-1.68864
 20
213.755
 11
-1.75261
 21
213.863
  0
LINE
  8
0
 10
-1.75261
 20
213.863
 11
-1.80965
 21
213.975
  0
LINE
  8
0
 10
-1.80965
 20
213.975
 11
-1.85954
 21
214.09
  0
LINE
  8
0
 10
-1.85954
 20
214.09
 11
-1.9021
 21
214.208
  0
LINE
  8
0
 10
-1.9021
 20
214.208
 11
-1.93716
 21
214.329
  0
LINE
  8
0
 10
-1.93716
 20
214.329
 11
-1.96457
 21
214.451
  0
LINE
  8
0
 10
-1.96457
 20
214.451
 11
-1.98422
 21
214.576
  0
LINE
  8
0
 10
-1.98422
 20
214.576
 11
-1.99605
 21
214.701
  0
LINE
  8
0
 10
-1.99605
 20
214.701
 11
-2
 21
214.826
  0
LINE
  8
0
 10
-2
 20
214.826
 11
-1.99605
 21
214.952
  0
LINE
  8
0
 10
-1.99605
 20
214.952
 11
-1.98422
 21
215.077
  0
LINE
  8
0
 10
-1.98422
 20
215.077
 11
-1.96457
 21
215.201
  0
LINE
  8
0
 10
-1.96457
 20
215.201
 11
-1.93716
 21
215.324
  0
LINE
  8
0
 10
-1.93716
 20
215.324
 11
-1.9021
 21
215.444
  0
LINE
  8
0
 10
-1.9021
 20
215.444
 11
-1.85954
 21
215.562
  0
LINE
  8
0
 10
-1.85954
 20
215.562
 11
-1.80965
 21
215.678
  0
LINE
  8
0
 10
-1.80965
 20
215.678
 11
-1.75261
 21
215.79
  0
LINE
  8
0
 10
-1.75261
 20
215.79
 11
-1.68864
 21
215.898
  0
LINE
  8
0
 10
-1.68864
 20
215.898
 11
-1.61803
 21
216.002
  0
LINE
  8
0
 10
-1.61803
 20
216.002
 11
-1.54102
 21
216.101
  0
LINE
  8
0
 10
-1.54102
 20
216.101
 11
-1.45793
 21
216.195
  0
LINE
  8
0
 10
-1.45793
 20
216.195
 11
-1.36908
 21
216.284
  0
LINE
  8
0
 10
-1.36908
 20
216.284
 11
-1.27484
 21
216.367
  0
LINE
  8
0
 10
-1.27484
 20
216.367
 11
-1.17557
 21
216.444
  0
LINE
  8
0
 10
-1.17557
 20
216.444
 11
-1.07164
 21
216.515
  0
LINE
  8
0
 10
-1.07164
 20
216.515
 11
-0.963501
 21
216.579
  0
LINE
  8
0
 10
-0.963501
 20
216.579
 11
-0.851547
 21
216.636
  0
LINE
  8
0
 10
-0.851547
 20
216.636
 11
-0.736237
 21
216.686
  0
LINE
  8
0
 10
-0.736237
 20
216.686
 11
-0.618027
 21
216.728
  0
LINE
  8
0
 10
-0.618027
 20
216.728
 11
-0.497375
 21
216.763
  0
LINE
  8
0
 10
-0.497375
 20
216.763
 11
-0.374756
 21
216.791
  0
LINE
  8
0
 10
-0.374756
 20
216.791
 11
-0.250656
 21
216.81
  0
LINE
  8
0
 10
-0.250656
 20
216.81
 11
-0.12558
 21
216.822
  0
LINE
  8
0
 10
-0.12558
 20
216.822
 11
0
 21
216.826
  0
LINE
  8
0
 10
0
 20
216.826
 11
0.12558
 21
216.822
  0
LINE
  8
0
 10
0.12558
 20
216.822
 11
0.250656
 21
216.81
  0
LINE
  8
0
 10
0.250656
 20
216.81
 11
0.374756
 21
216.791
  0
LINE
  8
0
 10
0.374756
 20
216.791
 11
0.497375
 21
216.763
  0
LINE
  8
0
 10
0.497375
 20
216.763
 11
0.618027
 21
216.728
  0
LINE
  8
0
 10
0.618027
 20
216.728
 11
0.736237
 21
216.686
  0
LINE
  8
0
 10
0.736237
 20
216.686
 11
0.851547
 21
216.636
  0
LINE
  8
0
 10
0.851547
 20
216.636
 11
0.963501
 21
216.579
  0
LINE
  8
0
 10
0.963501
 20
216.579
 11
1.07164
 21
216.515
  0
LINE
  8
0
 10
1.07164
 20
216.515
 11
1.17557
 21
216.444
  0
LINE
  8
0
 10
1.17557
 20
216.444
 11
1.27484
 21
216.367
  0
LINE
  8
0
 10
1.27484
 20
216.367
 11
1.36908
 21
216.284
  0
LINE
  8
0
 10
1.36908
 20
216.284
 11
1.45793
 21
216.195
  0
LINE
  8
0
 10
1.45793
 20
216.195
 11
1.54102
 21
216.101
  0
LINE
  8
0
 10
1.54102
 20
216.101
 11
1.61803
 21
216.002
  0
LINE
  8
0
 10
1.61803
 20
216.002
 11
1.68864
 21
215.898
  0
LINE
  8
0
 10
1.68864
 20
215.898
 11
1.75261
 21
215.79
  0
LINE
  8
0
 10
1.75261
 20
215.79
 11
1.80965
 21
215.678
  0
LINE
  8
0
 10
1.80965
 20
215.678
 11
1.85954
 21
215.562
  0
LINE
  8
0
 10
1.85954
 20
215.562
 11
1.9021
 21
215.444
  0
LINE
  8
0
 10
1.9021
 20
215.444
 11
1.93716
 21
215.324
  0
LINE
  8
0
 10
1.93716
 20
215.324
 11
1.96457
 21
215.201
  0
LINE
  8
0
 10
1.96457
 20
215.201
 11
1.98422
 21
215.077
  0
LINE
  8
0
 10
1.98422
 20
215.077
 11
1.99605
 21
214.952
  0
LINE
  8
0
 10
1.99605
 20
214.952
 11
2
 21
214.826
  0
LINE
  8
0
 10
2
 20
214.826
 11
1.99605
 21
214.701
  0
LINE
  8
0
 10
1.99605
 20
214.701
 11
1.98422
 21
214.576
  0
LINE
  8
0
 10
1.98422
 20
214.576
 11
1.96457
 21
214.451
  0
LINE
  8
0
 10
1.96457
 20
214.451
 11
1.93716
 21
214.329
  0
LINE
  8
0
 10
1.93716
 20
214.329
 11
1.9021
 21
214.208
  0
LINE
  8
0
 10
1.9021
 20
214.208
 11
1.85954
 21
214.09
  0
LINE
  8
0
 10
1.85954
 20
214.09
 11
1.80965
 21
213.975
  0
LINE
  8
0
 10
1.80965
 20
213.975
 11
1.75261
 21
213.863
  0
LINE
  8
0
 10
1.75261
 20
213.863
 11
1.68864
 21
213.755
  0
LINE
  8
0
 10
1.68864
 20
213.755
 11
1.61803
 21
213.651
  0
LINE
  8
0
 10
1.61803
 20
213.651
 11
1.54102
 21
213.551
  0
LINE
  8
0
 10
1.54102
 20
213.551
 11
1.45793
 21
213.457
  0
LINE
  8
0
 10
1.45793
 20
213.457
 11
1.36908
 21
213.368
  0
LINE
  8
0
 10
1.36908
 20
213.368
 11
1.27484
 21
213.285
  0
LINE
  8
0
 10
1.27484
 20
213.285
 11
1.17557
 21
213.208
  0
LINE
  8
0
 10
1.17557
 20
213.208
 11
1.07164
 21
213.138
  0
LINE
  8
0
 10
1.07164
 20
213.138
 11
0.963501
 21
213.074
  0
LINE
  8
0
 10
0.963501
 20
213.074
 11
0.851547
 21
213.017
  0
LINE
  8
0
 10
0.851547
 20
213.017
 11
0.736237
 21
212.967
  0
LINE
  8
0
 10
0.736237
 20
212.967
 11
0.618027
 21
212.924
  0
LINE
  8
0
 10
0.618027
 20
212.924
 11
0.497375
 21
212.889
  0
LINE
  8
0
 10
0.497375
 20
212.889
 11
0.374756
 21
212.862
  0
LINE
  8
0
 10
0.374756
 20
212.862
 11
0.250656
 21
212.842
  0
LINE
  8
0
 10
0.250656
 20
212.842
 11
0.12558
 21
212.83
  0
LINE
  8
0
 10
0.12558
 20
212.83
 11
0
 21
212.826
  0
LINE
  8
0
 10
0
 20
212.826
 11
-0.12558
 21
212.83
  0
LINE
  8
0
 10
1.5065
 20
175.006
 11
1.5065
 21
176.498
  0
LINE
  8
0
 10
1.5065
 20
176.498
 11
1.51474
 21
176.507
  0
LINE
  8
0
 10
1.51474
 20
176.507
 11
1.5065
 21
176.507
  0
LINE
  8
0
 10
1.5065
 20
176.507
 11
1.5065
 21
176.515
  0
LINE
  8
0
 10
1.5065
 20
176.515
 11
1.4978
 21
176.507
  0
LINE
  8
0
 10
1.4978
 20
176.507
 11
0.00640869
 21
176.507
  0
LINE
  8
0
 10
0.00640869
 20
176.507
 11
0.00640869
 21
185.494
  0
LINE
  8
0
 10
0.00640869
 20
185.494
 11
2.11188
 21
185.494
  0
LINE
  8
0
 10
2.11188
 20
185.494
 11
2.59531
 21
184.006
  0
LINE
  8
0
 10
2.59531
 20
184.006
 11
1.49323
 21
184.006
  0
LINE
  8
0
 10
1.49323
 20
184.006
 11
1.49323
 21
177.994
  0
LINE
  8
0
 10
1.49323
 20
177.994
 11
2.99332
 21
177.993
  0
LINE
  8
0
 10
2.99332
 20
177.993
 11
2.99377
 21
176.493
  0
LINE
  8
0
 10
2.99377
 20
176.493
 11
5.03633
 21
176.493
  0
LINE
  8
0
 10
5.03633
 20
176.493
 11
5.51942
 21
175.006
  0
LINE
  8
0
 10
5.51942
 20
175.006
 11
1.5065
 21
175.006
  0
LINE
  8
0
 10
-2.59512
 20
184.007
 11
-2.11188
 21
185.494
  0
LINE
  8
0
 10
-2.11188
 20
185.494
 11
-1.50604
 21
185.494
  0
LINE
  8
0
 10
-1.50604
 20
185.494
 11
-1.50604
 21
184.007
  0
LINE
  8
0
 10
-1.50604
 20
184.007
 11
-2.59512
 21
184.007
  0
LINE
  8
0
 10
-5.9935
 20
161.506
 11
-5.9935
 21
164.5
  0
LINE
  8
0
 10
-5.9935
 20
164.5
 11
-5.96466
 21
164.792
  0
LINE
  8
0
 10
-5.96466
 20
164.792
 11
-5.87997
 21
165.071
  0
LINE
  8
0
 10
-5.87997
 20
165.071
 11
-5.74173
 21
165.33
  0
LINE
  8
0
 10
-5.74173
 20
165.33
 11
-5.55634
 21
165.556
  0
LINE
  8
0
 10
-5.55634
 20
165.556
 11
-5.32974
 21
165.742
  0
LINE
  8
0
 10
-5.32974
 20
165.742
 11
-5.07111
 21
165.88
  0
LINE
  8
0
 10
-5.07111
 20
165.88
 11
-4.79141
 21
165.965
  0
LINE
  8
0
 10
-4.79141
 20
165.965
 11
-4.4989
 21
165.993
  0
LINE
  8
0
 10
-4.4989
 20
165.993
 11
-1.49323
 21
165.994
  0
LINE
  8
0
 10
-1.49323
 20
165.994
 11
-1.49323
 21
172.006
  0
LINE
  8
0
 10
-1.49323
 20
172.006
 11
-2.99332
 21
172.007
  0
LINE
  8
0
 10
-2.99332
 20
172.007
 11
-2.99377
 21
173.507
  0
LINE
  8
0
 10
-2.99377
 20
173.507
 11
-6.00668
 21
173.507
  0
LINE
  8
0
 10
-6.00668
 20
173.507
 11
-5.52359
 21
174.994
  0
LINE
  8
0
 10
-5.52359
 20
174.994
 11
-1.5065
 21
174.994
  0
LINE
  8
0
 10
-1.5065
 20
174.994
 11
-1.5065
 21
173.502
  0
LINE
  8
0
 10
-1.5065
 20
173.502
 11
-1.51474
 21
173.493
  0
LINE
  8
0
 10
-1.51474
 20
173.493
 11
-1.5065
 21
173.493
  0
LINE
  8
0
 10
-1.5065
 20
173.493
 11
-1.5065
 21
173.485
  0
LINE
  8
0
 10
-1.5065
 20
173.485
 11
-1.4978
 21
173.493
  0
LINE
  8
0
 10
-1.4978
 20
173.493
 11
-0.00640869
 21
173.493
  0
LINE
  8
0
 10
-0.00640869
 20
173.493
 11
-0.00640869
 21
164.506
  0
LINE
  8
0
 10
-0.00640869
 20
164.506
 11
-2.99973
 21
164.506
  0
LINE
  8
0
 10
-2.99973
 20
164.506
 11
-3.29315
 21
164.477
  0
LINE
  8
0
 10
-3.29315
 20
164.477
 11
-3.57651
 21
164.391
  0
LINE
  8
0
 10
-3.57651
 20
164.391
 11
-3.83698
 21
164.252
  0
LINE
  8
0
 10
-3.83698
 20
164.252
 11
-4.06494
 21
164.065
  0
LINE
  8
0
 10
-4.06494
 20
164.065
 11
-4.25171
 21
163.837
  0
LINE
  8
0
 10
-4.25171
 20
163.837
 11
-4.39087
 21
163.577
  0
LINE
  8
0
 10
-4.39087
 20
163.577
 11
-4.47647
 21
163.293
  0
LINE
  8
0
 10
-4.47647
 20
163.293
 11
-4.50623
 21
163.001
  0
LINE
  8
0
 10
-4.50623
 20
163.001
 11
-4.50623
 21
161.506
  0
LINE
  8
0
 10
-4.50623
 20
161.506
 11
-5.9935
 21
161.506
  0
LINE
  8
0
 10
4.50623
 20
160.006
 11
4.50623
 21
163
  0
LINE
  8
0
 10
4.50623
 20
163
 11
4.47739
 21
163.293
  0
LINE
  8
0
 10
4.47739
 20
163.293
 11
4.39087
 21
163.577
  0
LINE
  8
0
 10
4.39087
 20
163.577
 11
4.25171
 21
163.837
  0
LINE
  8
0
 10
4.25171
 20
163.837
 11
4.06494
 21
164.065
  0
LINE
  8
0
 10
4.06494
 20
164.065
 11
3.83698
 21
164.252
  0
LINE
  8
0
 10
3.83698
 20
164.252
 11
3.57651
 21
164.391
  0
LINE
  8
0
 10
3.57651
 20
164.391
 11
3.29315
 21
164.476
  0
LINE
  8
0
 10
3.29315
 20
164.476
 11
3.00064
 21
164.506
  0
LINE
  8
0
 10
3.00064
 20
164.506
 11
1.50604
 21
164.506
  0
LINE
  8
0
 10
1.50604
 20
164.506
 11
1.50604
 21
165.993
  0
LINE
  8
0
 10
1.50604
 20
165.993
 11
4.49982
 21
165.993
  0
LINE
  8
0
 10
4.49982
 20
165.993
 11
4.79233
 21
165.965
  0
LINE
  8
0
 10
4.79233
 20
165.965
 11
5.07111
 21
165.88
  0
LINE
  8
0
 10
5.07111
 20
165.88
 11
5.3302
 21
165.741
  0
LINE
  8
0
 10
5.3302
 20
165.741
 11
5.55679
 21
165.556
  0
LINE
  8
0
 10
5.55679
 20
165.556
 11
5.74219
 21
165.329
  0
LINE
  8
0
 10
5.74219
 20
165.329
 11
5.87997
 21
165.071
  0
LINE
  8
0
 10
5.87997
 20
165.071
 11
5.96466
 21
164.791
  0
LINE
  8
0
 10
5.96466
 20
164.791
 11
5.9935
 21
164.499
  0
LINE
  8
0
 10
5.9935
 20
164.499
 11
5.99442
 21
161.493
  0
LINE
  8
0
 10
5.99442
 20
161.493
 11
9.91013
 21
161.493
  0
LINE
  8
0
 10
9.91013
 20
161.493
 11
10.3932
 21
160.006
  0
LINE
  8
0
 10
10.3932
 20
160.006
 11
4.50623
 21
160.006
  0
LINE
  8
0
 10
-4.49982
 20
154.007
 11
-4.79233
 21
154.035
  0
LINE
  8
0
 10
-4.79233
 20
154.035
 11
-5.07111
 21
154.12
  0
LINE
  8
0
 10
-5.07111
 20
154.12
 11
-5.3302
 21
154.259
  0
LINE
  8
0
 10
-5.3302
 20
154.259
 11
-5.55679
 21
154.444
  0
LINE
  8
0
 10
-5.55679
 20
154.444
 11
-5.74219
 21
154.671
  0
LINE
  8
0
 10
-5.74219
 20
154.671
 11
-5.87997
 21
154.929
  0
LINE
  8
0
 10
-5.87997
 20
154.929
 11
-5.96466
 21
155.209
  0
LINE
  8
0
 10
-5.96466
 20
155.209
 11
-5.9935
 21
155.501
  0
LINE
  8
0
 10
-5.9935
 20
155.501
 11
-5.99442
 21
158.507
  0
LINE
  8
0
 10
-5.99442
 20
158.507
 11
-10.8805
 21
158.507
  0
LINE
  8
0
 10
-10.8805
 20
158.507
 11
-10.3974
 21
159.994
  0
LINE
  8
0
 10
-10.3974
 20
159.994
 11
-4.50623
 21
159.994
  0
LINE
  8
0
 10
-4.50623
 20
159.994
 11
-4.50623
 21
157
  0
LINE
  8
0
 10
-4.50623
 20
157
 11
-4.47739
 21
156.707
  0
LINE
  8
0
 10
-4.47739
 20
156.707
 11
-4.39087
 21
156.423
  0
LINE
  8
0
 10
-4.39087
 20
156.423
 11
-4.25171
 21
156.163
  0
LINE
  8
0
 10
-4.25171
 20
156.163
 11
-4.06494
 21
155.935
  0
LINE
  8
0
 10
-4.06494
 20
155.935
 11
-3.83698
 21
155.748
  0
LINE
  8
0
 10
-3.83698
 20
155.748
 11
-3.57651
 21
155.609
  0
LINE
  8
0
 10
-3.57651
 20
155.609
 11
-3.29315
 21
155.524
  0
LINE
  8
0
 10
-3.29315
 20
155.524
 11
-3.00064
 21
155.494
  0
LINE
  8
0
 10
-3.00064
 20
155.494
 11
-1.50604
 21
155.494
  0
LINE
  8
0
 10
-1.50604
 20
155.494
 11
-1.50604
 21
154.007
  0
LINE
  8
0
 10
-1.50604
 20
154.007
 11
-4.49982
 21
154.007
  0
LINE
  8
0
 10
1.5065
 20
145.006
 11
1.5065
 21
146.498
  0
LINE
  8
0
 10
1.5065
 20
146.498
 11
1.51474
 21
146.507
  0
LINE
  8
0
 10
1.51474
 20
146.507
 11
1.5065
 21
146.507
  0
LINE
  8
0
 10
1.5065
 20
146.507
 11
1.5065
 21
146.515
  0
LINE
  8
0
 10
1.5065
 20
146.515
 11
1.4978
 21
146.507
  0
LINE
  8
0
 10
1.4978
 20
146.507
 11
0.00640869
 21
146.507
  0
LINE
  8
0
 10
0.00640869
 20
146.507
 11
0.00640869
 21
155.494
  0
LINE
  8
0
 10
0.00640869
 20
155.494
 11
2.99973
 21
155.494
  0
LINE
  8
0
 10
2.99973
 20
155.494
 11
3.29315
 21
155.523
  0
LINE
  8
0
 10
3.29315
 20
155.523
 11
3.57651
 21
155.609
  0
LINE
  8
0
 10
3.57651
 20
155.609
 11
3.83698
 21
155.748
  0
LINE
  8
0
 10
3.83698
 20
155.748
 11
4.06494
 21
155.935
  0
LINE
  8
0
 10
4.06494
 20
155.935
 11
4.25171
 21
156.163
  0
LINE
  8
0
 10
4.25171
 20
156.163
 11
4.39087
 21
156.423
  0
LINE
  8
0
 10
4.39087
 20
156.423
 11
4.47647
 21
156.707
  0
LINE
  8
0
 10
4.47647
 20
156.707
 11
4.50623
 21
156.999
  0
LINE
  8
0
 10
4.50623
 20
156.999
 11
4.50623
 21
158.494
  0
LINE
  8
0
 10
4.50623
 20
158.494
 11
5.9935
 21
158.494
  0
LINE
  8
0
 10
5.9935
 20
158.494
 11
5.9935
 21
155.5
  0
LINE
  8
0
 10
5.9935
 20
155.5
 11
5.96466
 21
155.208
  0
LINE
  8
0
 10
5.96466
 20
155.208
 11
5.87997
 21
154.929
  0
LINE
  8
0
 10
5.87997
 20
154.929
 11
5.74127
 21
154.67
  0
LINE
  8
0
 10
5.74127
 20
154.67
 11
5.55588
 21
154.443
  0
LINE
  8
0
 10
5.55588
 20
154.443
 11
5.32974
 21
154.258
  0
LINE
  8
0
 10
5.32974
 20
154.258
 11
5.07111
 21
154.12
  0
LINE
  8
0
 10
5.07111
 20
154.12
 11
4.79141
 21
154.035
  0
LINE
  8
0
 10
4.79141
 20
154.035
 11
4.4989
 21
154.007
  0
LINE
  8
0
 10
4.4989
 20
154.007
 11
1.49323
 21
154.006
  0
LINE
  8
0
 10
1.49323
 20
154.006
 11
1.49323
 21
147.994
  0
LINE
  8
0
 10
1.49323
 20
147.994
 11
2.99332
 21
147.993
  0
LINE
  8
0
 10
2.99332
 20
147.993
 11
2.99377
 21
146.493
  0
LINE
  8
0
 10
2.99377
 20
146.493
 11
9.0065
 21
146.493
  0
LINE
  8
0
 10
9.0065
 20
146.493
 11
9.0065
 21
149.5
  0
LINE
  8
0
 10
9.0065
 20
149.5
 11
9.03534
 21
149.792
  0
LINE
  8
0
 10
9.03534
 20
149.792
 11
9.12003
 21
150.071
  0
LINE
  8
0
 10
9.12003
 20
150.071
 11
9.25827
 21
150.33
  0
LINE
  8
0
 10
9.25827
 20
150.33
 11
9.44366
 21
150.556
  0
LINE
  8
0
 10
9.44366
 20
150.556
 11
9.67026
 21
150.742
  0
LINE
  8
0
 10
9.67026
 20
150.742
 11
9.92889
 21
150.88
  0
LINE
  8
0
 10
9.92889
 20
150.88
 11
10.2086
 21
150.965
  0
LINE
  8
0
 10
10.2086
 20
150.965
 11
10.5011
 21
150.993
  0
LINE
  8
0
 10
10.5011
 20
150.993
 11
13.3217
 21
150.993
  0
LINE
  8
0
 10
13.3217
 20
150.993
 11
13.494
 21
150.463
  0
LINE
  8
0
 10
13.494
 20
150.463
 11
13.494
 21
149.506
  0
LINE
  8
0
 10
13.494
 20
149.506
 11
12.0003
 21
149.506
  0
LINE
  8
0
 10
12.0003
 20
149.506
 11
11.7068
 21
149.477
  0
LINE
  8
0
 10
11.7068
 20
149.477
 11
11.4235
 21
149.391
  0
LINE
  8
0
 10
11.4235
 20
149.391
 11
11.163
 21
149.252
  0
LINE
  8
0
 10
11.163
 20
149.252
 11
10.9351
 21
149.065
  0
LINE
  8
0
 10
10.9351
 20
149.065
 11
10.7483
 21
148.837
  0
LINE
  8
0
 10
10.7483
 20
148.837
 11
10.6091
 21
148.577
  0
LINE
  8
0
 10
10.6091
 20
148.577
 11
10.5235
 21
148.293
  0
LINE
  8
0
 10
10.5235
 20
148.293
 11
10.4938
 21
148.001
  0
LINE
  8
0
 10
10.4938
 20
148.001
 11
10.4938
 21
145.006
  0
LINE
  8
0
 10
10.4938
 20
145.006
 11
1.5065
 21
145.006
  0
LINE
  8
0
 10
-10.4938
 20
146.506
 11
-10.4938
 21
148
  0
LINE
  8
0
 10
-10.4938
 20
148
 11
-10.5226
 21
148.293
  0
LINE
  8
0
 10
-10.5226
 20
148.293
 11
-10.6091
 21
148.577
  0
LINE
  8
0
 10
-10.6091
 20
148.577
 11
-10.7483
 21
148.837
  0
LINE
  8
0
 10
-10.7483
 20
148.837
 11
-10.9351
 21
149.065
  0
LINE
  8
0
 10
-10.9351
 20
149.065
 11
-11.163
 21
149.252
  0
LINE
  8
0
 10
-11.163
 20
149.252
 11
-11.4235
 21
149.391
  0
LINE
  8
0
 10
-11.4235
 20
149.391
 11
-11.7068
 21
149.476
  0
LINE
  8
0
 10
-11.7068
 20
149.476
 11
-11.9994
 21
149.506
  0
LINE
  8
0
 10
-11.9994
 20
149.506
 11
-13.8049
 21
149.506
  0
LINE
  8
0
 10
-13.8049
 20
149.506
 11
-13.3217
 21
150.993
  0
LINE
  8
0
 10
-13.3217
 20
150.993
 11
-10.5002
 21
150.993
  0
LINE
  8
0
 10
-10.5002
 20
150.993
 11
-10.2077
 21
150.965
  0
LINE
  8
0
 10
-10.2077
 20
150.965
 11
-9.92889
 21
150.88
  0
LINE
  8
0
 10
-9.92889
 20
150.88
 11
-9.6698
 21
150.741
  0
LINE
  8
0
 10
-9.6698
 20
150.741
 11
-9.44321
 21
150.556
  0
LINE
  8
0
 10
-9.44321
 20
150.556
 11
-9.25781
 21
150.329
  0
LINE
  8
0
 10
-9.25781
 20
150.329
 11
-9.12003
 21
150.071
  0
LINE
  8
0
 10
-9.12003
 20
150.071
 11
-9.03534
 21
149.791
  0
LINE
  8
0
 10
-9.03534
 20
149.791
 11
-9.0065
 21
149.499
  0
LINE
  8
0
 10
-9.0065
 20
149.499
 11
-9.0065
 21
146.506
  0
LINE
  8
0
 10
-9.0065
 20
146.506
 11
-10.4938
 21
146.506
  0
LINE
  8
0
 10
-5.9935
 20
131.506
 11
-5.9935
 21
134.5
  0
LINE
  8
0
 10
-5.9935
 20
134.5
 11
-5.96466
 21
134.792
  0
LINE
  8
0
 10
-5.96466
 20
134.792
 11
-5.87997
 21
135.071
  0
LINE
  8
0
 10
-5.87997
 20
135.071
 11
-5.74173
 21
135.33
  0
LINE
  8
0
 10
-5.74173
 20
135.33
 11
-5.55634
 21
135.556
  0
LINE
  8
0
 10
-5.55634
 20
135.556
 11
-5.32974
 21
135.742
  0
LINE
  8
0
 10
-5.32974
 20
135.742
 11
-5.07111
 21
135.88
  0
LINE
  8
0
 10
-5.07111
 20
135.88
 11
-4.79141
 21
135.965
  0
LINE
  8
0
 10
-4.79141
 20
135.965
 11
-4.4989
 21
135.993
  0
LINE
  8
0
 10
-4.4989
 20
135.993
 11
-1.49323
 21
135.994
  0
LINE
  8
0
 10
-1.49323
 20
135.994
 11
-1.49323
 21
142.006
  0
LINE
  8
0
 10
-1.49323
 20
142.006
 11
-2.99332
 21
142.007
  0
LINE
  8
0
 10
-2.99332
 20
142.007
 11
-2.99377
 21
143.507
  0
LINE
  8
0
 10
-2.99377
 20
143.507
 11
-9.0065
 21
143.507
  0
LINE
  8
0
 10
-9.0065
 20
143.507
 11
-9.0065
 21
140.5
  0
LINE
  8
0
 10
-9.0065
 20
140.5
 11
-9.03534
 21
140.208
  0
LINE
  8
0
 10
-9.03534
 20
140.208
 11
-9.12003
 21
139.929
  0
LINE
  8
0
 10
-9.12003
 20
139.929
 11
-9.25873
 21
139.67
  0
LINE
  8
0
 10
-9.25873
 20
139.67
 11
-9.44412
 21
139.443
  0
LINE
  8
0
 10
-9.44412
 20
139.443
 11
-9.67026
 21
139.258
  0
LINE
  8
0
 10
-9.67026
 20
139.258
 11
-9.92889
 21
139.12
  0
LINE
  8
0
 10
-9.92889
 20
139.12
 11
-10.2086
 21
139.035
  0
LINE
  8
0
 10
-10.2086
 20
139.035
 11
-10.5011
 21
139.007
  0
LINE
  8
0
 10
-10.5011
 20
139.007
 11
-13.494
 21
139.007
  0
LINE
  8
0
 10
-13.494
 20
139.007
 11
-13.494
 21
140.494
  0
LINE
  8
0
 10
-13.494
 20
140.494
 11
-12.0003
 21
140.494
  0
LINE
  8
0
 10
-12.0003
 20
140.494
 11
-11.7068
 21
140.523
  0
LINE
  8
0
 10
-11.7068
 20
140.523
 11
-11.4235
 21
140.609
  0
LINE
  8
0
 10
-11.4235
 20
140.609
 11
-11.163
 21
140.748
  0
LINE
  8
0
 10
-11.163
 20
140.748
 11
-10.9351
 21
140.935
  0
LINE
  8
0
 10
-10.9351
 20
140.935
 11
-10.7483
 21
141.163
  0
LINE
  8
0
 10
-10.7483
 20
141.163
 11
-10.6091
 21
141.423
  0
LINE
  8
0
 10
-10.6091
 20
141.423
 11
-10.5235
 21
141.707
  0
LINE
  8
0
 10
-10.5235
 20
141.707
 11
-10.4938
 21
141.999
  0
LINE
  8
0
 10
-10.4938
 20
141.999
 11
-10.4938
 21
144.994
  0
LINE
  8
0
 10
-10.4938
 20
144.994
 11
-1.5065
 21
144.994
  0
LINE
  8
0
 10
-1.5065
 20
144.994
 11
-1.5065
 21
143.502
  0
LINE
  8
0
 10
-1.5065
 20
143.502
 11
-1.51474
 21
143.493
  0
LINE
  8
0
 10
-1.51474
 20
143.493
 11
-1.5065
 21
143.493
  0
LINE
  8
0
 10
-1.5065
 20
143.493
 11
-1.5065
 21
143.485
  0
LINE
  8
0
 10
-1.5065
 20
143.485
 11
-1.4978
 21
143.493
  0
LINE
  8
0
 10
-1.4978
 20
143.493
 11
-0.00640869
 21
143.493
  0
LINE
  8
0
 10
-0.00640869
 20
143.493
 11
-0.00640869
 21
134.506
  0
LINE
  8
0
 10
-0.00640869
 20
134.506
 11
-2.99973
 21
134.506
  0
LINE
  8
0
 10
-2.99973
 20
134.506
 11
-3.29315
 21
134.477
  0
LINE
  8
0
 10
-3.29315
 20
134.477
 11
-3.57651
 21
134.391
  0
LINE
  8
0
 10
-3.57651
 20
134.391
 11
-3.83698
 21
134.252
  0
LINE
  8
0
 10
-3.83698
 20
134.252
 11
-4.06494
 21
134.065
  0
LINE
  8
0
 10
-4.06494
 20
134.065
 11
-4.25171
 21
133.837
  0
LINE
  8
0
 10
-4.25171
 20
133.837
 11
-4.39087
 21
133.577
  0
LINE
  8
0
 10
-4.39087
 20
133.577
 11
-4.47647
 21
133.293
  0
LINE
  8
0
 10
-4.47647
 20
133.293
 11
-4.50623
 21
133.001
  0
LINE
  8
0
 10
-4.50623
 20
133.001
 11
-4.50623
 21
131.506
  0
LINE
  8
0
 10
-4.50623
 20
131.506
 11
-5.9935
 21
131.506
  0
LINE
  8
0
 10
4.50623
 20
130.006
 11
4.50623
 21
133
  0
LINE
  8
0
 10
4.50623
 20
133
 11
4.47739
 21
133.293
  0
LINE
  8
0
 10
4.47739
 20
133.293
 11
4.39087
 21
133.577
  0
LINE
  8
0
 10
4.39087
 20
133.577
 11
4.25171
 21
133.837
  0
LINE
  8
0
 10
4.25171
 20
133.837
 11
4.06494
 21
134.065
  0
LINE
  8
0
 10
4.06494
 20
134.065
 11
3.83698
 21
134.252
  0
LINE
  8
0
 10
3.83698
 20
134.252
 11
3.57651
 21
134.391
  0
LINE
  8
0
 10
3.57651
 20
134.391
 11
3.29315
 21
134.476
  0
LINE
  8
0
 10
3.29315
 20
134.476
 11
3.00064
 21
134.506
  0
LINE
  8
0
 10
3.00064
 20
134.506
 11
1.50604
 21
134.506
  0
LINE
  8
0
 10
1.50604
 20
134.506
 11
1.50604
 21
135.993
  0
LINE
  8
0
 10
1.50604
 20
135.993
 11
4.49982
 21
135.993
  0
LINE
  8
0
 10
4.49982
 20
135.993
 11
4.79233
 21
135.965
  0
LINE
  8
0
 10
4.79233
 20
135.965
 11
5.07111
 21
135.88
  0
LINE
  8
0
 10
5.07111
 20
135.88
 11
5.3302
 21
135.741
  0
LINE
  8
0
 10
5.3302
 20
135.741
 11
5.55679
 21
135.556
  0
LINE
  8
0
 10
5.55679
 20
135.556
 11
5.74219
 21
135.329
  0
LINE
  8
0
 10
5.74219
 20
135.329
 11
5.87997
 21
135.071
  0
LINE
  8
0
 10
5.87997
 20
135.071
 11
5.96466
 21
134.791
  0
LINE
  8
0
 10
5.96466
 20
134.791
 11
5.9935
 21
134.499
  0
LINE
  8
0
 10
5.9935
 20
134.499
 11
5.99442
 21
131.493
  0
LINE
  8
0
 10
5.99442
 20
131.493
 11
12.0062
 21
131.493
  0
LINE
  8
0
 10
12.0062
 20
131.493
 11
12.0067
 21
132.993
  0
LINE
  8
0
 10
12.0067
 20
132.993
 11
13.5068
 21
132.994
  0
LINE
  8
0
 10
13.5068
 20
132.994
 11
13.5068
 21
139.007
  0
LINE
  8
0
 10
13.5068
 20
139.007
 11
10.5002
 21
139.007
  0
LINE
  8
0
 10
10.5002
 20
139.007
 11
10.2077
 21
139.035
  0
LINE
  8
0
 10
10.2077
 20
139.035
 11
9.92889
 21
139.12
  0
LINE
  8
0
 10
9.92889
 20
139.12
 11
9.6698
 21
139.259
  0
LINE
  8
0
 10
9.6698
 20
139.259
 11
9.44321
 21
139.444
  0
LINE
  8
0
 10
9.44321
 20
139.444
 11
9.25781
 21
139.671
  0
LINE
  8
0
 10
9.25781
 20
139.671
 11
9.12003
 21
139.929
  0
LINE
  8
0
 10
9.12003
 20
139.929
 11
9.03534
 21
140.209
  0
LINE
  8
0
 10
9.03534
 20
140.209
 11
9.0065
 21
140.501
  0
LINE
  8
0
 10
9.0065
 20
140.501
 11
9.0065
 21
143.494
  0
LINE
  8
0
 10
9.0065
 20
143.494
 11
10.4938
 21
143.494
  0
LINE
  8
0
 10
10.4938
 20
143.494
 11
10.4938
 21
142
  0
LINE
  8
0
 10
10.4938
 20
142
 11
10.5226
 21
141.707
  0
LINE
  8
0
 10
10.5226
 20
141.707
 11
10.6091
 21
141.423
  0
LINE
  8
0
 10
10.6091
 20
141.423
 11
10.7483
 21
141.163
  0
LINE
  8
0
 10
10.7483
 20
141.163
 11
10.9351
 21
140.935
  0
LINE
  8
0
 10
10.9351
 20
140.935
 11
11.163
 21
140.748
  0
LINE
  8
0
 10
11.163
 20
140.748
 11
11.4235
 21
140.609
  0
LINE
  8
0
 10
11.4235
 20
140.609
 11
11.7068
 21
140.524
  0
LINE
  8
0
 10
11.7068
 20
140.524
 11
11.9994
 21
140.494
  0
LINE
  8
0
 10
11.9994
 20
140.494
 11
14.9936
 21
140.494
  0
LINE
  8
0
 10
14.9936
 20
140.494
 11
14.9936
 21
131.507
  0
LINE
  8
0
 10
14.9936
 20
131.507
 11
13.5022
 21
131.507
  0
LINE
  8
0
 10
13.5022
 20
131.507
 11
13.4935
 21
131.515
  0
LINE
  8
0
 10
13.4935
 20
131.515
 11
13.4935
 21
131.507
  0
LINE
  8
0
 10
13.4935
 20
131.507
 11
13.4853
 21
131.507
  0
LINE
  8
0
 10
13.4853
 20
131.507
 11
13.4935
 21
131.498
  0
LINE
  8
0
 10
13.4935
 20
131.498
 11
13.4935
 21
130.006
  0
LINE
  8
0
 10
13.4935
 20
130.006
 11
4.50623
 21
130.006
  0
LINE
  8
0
 10
16.506
 20
139.007
 11
16.506
 21
140.494
  0
LINE
  8
0
 10
16.506
 20
140.494
 11
16.7333
 21
140.494
  0
LINE
  8
0
 10
16.7333
 20
140.494
 11
17.2165
 21
139.007
  0
LINE
  8
0
 10
17.2165
 20
139.007
 11
16.506
 21
139.007
  0
LINE
  8
0
 10
-20.1408
 20
130.006
 11
-19.6577
 21
131.493
  0
LINE
  8
0
 10
-19.6577
 20
131.493
 11
-17.9938
 21
131.493
  0
LINE
  8
0
 10
-17.9938
 20
131.493
 11
-17.9933
 21
132.993
  0
LINE
  8
0
 10
-17.9933
 20
132.993
 11
-16.4932
 21
132.994
  0
LINE
  8
0
 10
-16.4932
 20
132.994
 11
-16.4932
 21
139.007
  0
LINE
  8
0
 10
-16.4932
 20
139.007
 11
-17.2165
 21
139.007
  0
LINE
  8
0
 10
-17.2165
 20
139.007
 11
-16.7333
 21
140.494
  0
LINE
  8
0
 10
-16.7333
 20
140.494
 11
-15.0064
 21
140.494
  0
LINE
  8
0
 10
-15.0064
 20
140.494
 11
-15.0064
 21
131.507
  0
LINE
  8
0
 10
-15.0064
 20
131.507
 11
-16.4978
 21
131.507
  0
LINE
  8
0
 10
-16.4978
 20
131.507
 11
-16.5065
 21
131.515
  0
LINE
  8
0
 10
-16.5065
 20
131.515
 11
-16.5065
 21
131.507
  0
LINE
  8
0
 10
-16.5065
 20
131.507
 11
-16.5147
 21
131.507
  0
LINE
  8
0
 10
-16.5147
 20
131.507
 11
-16.5065
 21
131.498
  0
LINE
  8
0
 10
-16.5065
 20
131.498
 11
-16.5065
 21
130.006
  0
LINE
  8
0
 10
-16.5065
 20
130.006
 11
-20.1408
 21
130.006
  0
LINE
  8
0
 10
-10.4938
 20
116.506
 11
-10.4938
 21
118
  0
LINE
  8
0
 10
-10.4938
 20
118
 11
-10.5226
 21
118.293
  0
LINE
  8
0
 10
-10.5226
 20
118.293
 11
-10.6091
 21
118.577
  0
LINE
  8
0
 10
-10.6091
 20
118.577
 11
-10.7483
 21
118.837
  0
LINE
  8
0
 10
-10.7483
 20
118.837
 11
-10.9351
 21
119.065
  0
LINE
  8
0
 10
-10.9351
 20
119.065
 11
-11.163
 21
119.252
  0
LINE
  8
0
 10
-11.163
 20
119.252
 11
-11.4235
 21
119.391
  0
LINE
  8
0
 10
-11.4235
 20
119.391
 11
-11.7068
 21
119.476
  0
LINE
  8
0
 10
-11.7068
 20
119.476
 11
-11.9994
 21
119.506
  0
LINE
  8
0
 10
-11.9994
 20
119.506
 11
-14.9936
 21
119.506
  0
LINE
  8
0
 10
-14.9936
 20
119.506
 11
-14.9936
 21
128.493
  0
LINE
  8
0
 10
-14.9936
 20
128.493
 11
-13.5022
 21
128.493
  0
LINE
  8
0
 10
-13.5022
 20
128.493
 11
-13.4935
 21
128.485
  0
LINE
  8
0
 10
-13.4935
 20
128.485
 11
-13.4935
 21
128.493
  0
LINE
  8
0
 10
-13.4935
 20
128.493
 11
-13.4853
 21
128.493
  0
LINE
  8
0
 10
-13.4853
 20
128.493
 11
-13.4935
 21
128.502
  0
LINE
  8
0
 10
-13.4935
 20
128.502
 11
-13.4935
 21
129.994
  0
LINE
  8
0
 10
-13.4935
 20
129.994
 11
-4.50623
 21
129.994
  0
LINE
  8
0
 10
-4.50623
 20
129.994
 11
-4.50623
 21
127
  0
LINE
  8
0
 10
-4.50623
 20
127
 11
-4.47739
 21
126.707
  0
LINE
  8
0
 10
-4.47739
 20
126.707
 11
-4.39087
 21
126.423
  0
LINE
  8
0
 10
-4.39087
 20
126.423
 11
-4.25171
 21
126.163
  0
LINE
  8
0
 10
-4.25171
 20
126.163
 11
-4.06494
 21
125.935
  0
LINE
  8
0
 10
-4.06494
 20
125.935
 11
-3.83698
 21
125.748
  0
LINE
  8
0
 10
-3.83698
 20
125.748
 11
-3.57651
 21
125.609
  0
LINE
  8
0
 10
-3.57651
 20
125.609
 11
-3.29315
 21
125.524
  0
LINE
  8
0
 10
-3.29315
 20
125.524
 11
-3.00064
 21
125.494
  0
LINE
  8
0
 10
-3.00064
 20
125.494
 11
-1.50604
 21
125.494
  0
LINE
  8
0
 10
-1.50604
 20
125.494
 11
-1.50604
 21
124.007
  0
LINE
  8
0
 10
-1.50604
 20
124.007
 11
-4.49982
 21
124.007
  0
LINE
  8
0
 10
-4.49982
 20
124.007
 11
-4.79233
 21
124.035
  0
LINE
  8
0
 10
-4.79233
 20
124.035
 11
-5.07111
 21
124.12
  0
LINE
  8
0
 10
-5.07111
 20
124.12
 11
-5.3302
 21
124.259
  0
LINE
  8
0
 10
-5.3302
 20
124.259
 11
-5.55679
 21
124.444
  0
LINE
  8
0
 10
-5.55679
 20
124.444
 11
-5.74219
 21
124.671
  0
LINE
  8
0
 10
-5.74219
 20
124.671
 11
-5.87997
 21
124.929
  0
LINE
  8
0
 10
-5.87997
 20
124.929
 11
-5.96466
 21
125.209
  0
LINE
  8
0
 10
-5.96466
 20
125.209
 11
-5.9935
 21
125.501
  0
LINE
  8
0
 10
-5.9935
 20
125.501
 11
-5.99442
 21
128.507
  0
LINE
  8
0
 10
-5.99442
 20
128.507
 11
-12.0062
 21
128.507
  0
LINE
  8
0
 10
-12.0062
 20
128.507
 11
-12.0067
 21
127.007
  0
LINE
  8
0
 10
-12.0067
 20
127.007
 11
-13.5068
 21
127.006
  0
LINE
  8
0
 10
-13.5068
 20
127.006
 11
-13.5068
 21
120.993
  0
LINE
  8
0
 10
-13.5068
 20
120.993
 11
-10.5002
 21
120.993
  0
LINE
  8
0
 10
-10.5002
 20
120.993
 11
-10.2077
 21
120.965
  0
LINE
  8
0
 10
-10.2077
 20
120.965
 11
-9.92889
 21
120.88
  0
LINE
  8
0
 10
-9.92889
 20
120.88
 11
-9.6698
 21
120.741
  0
LINE
  8
0
 10
-9.6698
 20
120.741
 11
-9.44321
 21
120.556
  0
LINE
  8
0
 10
-9.44321
 20
120.556
 11
-9.25781
 21
120.329
  0
LINE
  8
0
 10
-9.25781
 20
120.329
 11
-9.12003
 21
120.071
  0
LINE
  8
0
 10
-9.12003
 20
120.071
 11
-9.03534
 21
119.791
  0
LINE
  8
0
 10
-9.03534
 20
119.791
 11
-9.0065
 21
119.499
  0
LINE
  8
0
 10
-9.0065
 20
119.499
 11
-9.0065
 21
116.506
  0
LINE
  8
0
 10
-9.0065
 20
116.506
 11
-10.4938
 21
116.506
  0
LINE
  8
0
 10
19.5062
 20
116.506
 11
19.5062
 21
118
  0
LINE
  8
0
 10
19.5062
 20
118
 11
19.4774
 21
118.293
  0
LINE
  8
0
 10
19.4774
 20
118.293
 11
19.3909
 21
118.577
  0
LINE
  8
0
 10
19.3909
 20
118.577
 11
19.2517
 21
118.837
  0
LINE
  8
0
 10
19.2517
 20
118.837
 11
19.0649
 21
119.065
  0
LINE
  8
0
 10
19.0649
 20
119.065
 11
18.837
 21
119.252
  0
LINE
  8
0
 10
18.837
 20
119.252
 11
18.5765
 21
119.391
  0
LINE
  8
0
 10
18.5765
 20
119.391
 11
18.2932
 21
119.476
  0
LINE
  8
0
 10
18.2932
 20
119.476
 11
18.0006
 21
119.506
  0
LINE
  8
0
 10
18.0006
 20
119.506
 11
15.0064
 21
119.506
  0
LINE
  8
0
 10
15.0064
 20
119.506
 11
15.0064
 21
128.493
  0
LINE
  8
0
 10
15.0064
 20
128.493
 11
16.4978
 21
128.493
  0
LINE
  8
0
 10
16.4978
 20
128.493
 11
16.5065
 21
128.485
  0
LINE
  8
0
 10
16.5065
 20
128.485
 11
16.5065
 21
128.493
  0
LINE
  8
0
 10
16.5065
 20
128.493
 11
16.5147
 21
128.493
  0
LINE
  8
0
 10
16.5147
 20
128.493
 11
16.5065
 21
128.502
  0
LINE
  8
0
 10
16.5065
 20
128.502
 11
16.5065
 21
129.994
  0
LINE
  8
0
 10
16.5065
 20
129.994
 11
20.145
 21
129.994
  0
LINE
  8
0
 10
20.145
 20
129.994
 11
20.6281
 21
128.507
  0
LINE
  8
0
 10
20.6281
 20
128.507
 11
17.9938
 21
128.507
  0
LINE
  8
0
 10
17.9938
 20
128.507
 11
17.9933
 21
127.007
  0
LINE
  8
0
 10
17.9933
 20
127.007
 11
16.4932
 21
127.006
  0
LINE
  8
0
 10
16.4932
 20
127.006
 11
16.4932
 21
120.993
  0
LINE
  8
0
 10
16.4932
 20
120.993
 11
19.4998
 21
120.993
  0
LINE
  8
0
 10
19.4998
 20
120.993
 11
19.7923
 21
120.965
  0
LINE
  8
0
 10
19.7923
 20
120.965
 11
20.0711
 21
120.88
  0
LINE
  8
0
 10
20.0711
 20
120.88
 11
20.3302
 21
120.741
  0
LINE
  8
0
 10
20.3302
 20
120.741
 11
20.5568
 21
120.556
  0
LINE
  8
0
 10
20.5568
 20
120.556
 11
20.7422
 21
120.329
  0
LINE
  8
0
 10
20.7422
 20
120.329
 11
20.88
 21
120.071
  0
LINE
  8
0
 10
20.88
 20
120.071
 11
20.9647
 21
119.791
  0
LINE
  8
0
 10
20.9647
 20
119.791
 11
20.9935
 21
119.499
  0
LINE
  8
0
 10
20.9935
 20
119.499
 11
20.9935
 21
116.506
  0
LINE
  8
0
 10
20.9935
 20
116.506
 11
19.5062
 21
116.506
  0
LINE
  8
0
 10
1.5065
 20
115.006
 11
1.5065
 21
116.498
  0
LINE
  8
0
 10
1.5065
 20
116.498
 11
1.51474
 21
116.507
  0
LINE
  8
0
 10
1.51474
 20
116.507
 11
1.5065
 21
116.507
  0
LINE
  8
0
 10
1.5065
 20
116.507
 11
1.5065
 21
116.515
  0
LINE
  8
0
 10
1.5065
 20
116.515
 11
1.4978
 21
116.507
  0
LINE
  8
0
 10
1.4978
 20
116.507
 11
0.00640869
 21
116.507
  0
LINE
  8
0
 10
0.00640869
 20
116.507
 11
0.00640869
 21
125.494
  0
LINE
  8
0
 10
0.00640869
 20
125.494
 11
2.99973
 21
125.494
  0
LINE
  8
0
 10
2.99973
 20
125.494
 11
3.29315
 21
125.523
  0
LINE
  8
0
 10
3.29315
 20
125.523
 11
3.57651
 21
125.609
  0
LINE
  8
0
 10
3.57651
 20
125.609
 11
3.83698
 21
125.748
  0
LINE
  8
0
 10
3.83698
 20
125.748
 11
4.06494
 21
125.935
  0
LINE
  8
0
 10
4.06494
 20
125.935
 11
4.25171
 21
126.163
  0
LINE
  8
0
 10
4.25171
 20
126.163
 11
4.39087
 21
126.423
  0
LINE
  8
0
 10
4.39087
 20
126.423
 11
4.47647
 21
126.707
  0
LINE
  8
0
 10
4.47647
 20
126.707
 11
4.50623
 21
126.999
  0
LINE
  8
0
 10
4.50623
 20
126.999
 11
4.50623
 21
128.494
  0
LINE
  8
0
 10
4.50623
 20
128.494
 11
5.9935
 21
128.494
  0
LINE
  8
0
 10
5.9935
 20
128.494
 11
5.9935
 21
125.5
  0
LINE
  8
0
 10
5.9935
 20
125.5
 11
5.96466
 21
125.208
  0
LINE
  8
0
 10
5.96466
 20
125.208
 11
5.87997
 21
124.929
  0
LINE
  8
0
 10
5.87997
 20
124.929
 11
5.74127
 21
124.67
  0
LINE
  8
0
 10
5.74127
 20
124.67
 11
5.55588
 21
124.443
  0
LINE
  8
0
 10
5.55588
 20
124.443
 11
5.32974
 21
124.258
  0
LINE
  8
0
 10
5.32974
 20
124.258
 11
5.07111
 21
124.12
  0
LINE
  8
0
 10
5.07111
 20
124.12
 11
4.79141
 21
124.035
  0
LINE
  8
0
 10
4.79141
 20
124.035
 11
4.4989
 21
124.007
  0
LINE
  8
0
 10
4.4989
 20
124.007
 11
1.49323
 21
124.006
  0
LINE
  8
0
 10
1.49323
 20
124.006
 11
1.49323
 21
117.994
  0
LINE
  8
0
 10
1.49323
 20
117.994
 11
2.99332
 21
117.993
  0
LINE
  8
0
 10
2.99332
 20
117.993
 11
2.99377
 21
116.493
  0
LINE
  8
0
 10
2.99377
 20
116.493
 11
9.0065
 21
116.493
  0
LINE
  8
0
 10
9.0065
 20
116.493
 11
9.0065
 21
119.5
  0
LINE
  8
0
 10
9.0065
 20
119.5
 11
9.03534
 21
119.792
  0
LINE
  8
0
 10
9.03534
 20
119.792
 11
9.12003
 21
120.071
  0
LINE
  8
0
 10
9.12003
 20
120.071
 11
9.25827
 21
120.33
  0
LINE
  8
0
 10
9.25827
 20
120.33
 11
9.44366
 21
120.556
  0
LINE
  8
0
 10
9.44366
 20
120.556
 11
9.67026
 21
120.742
  0
LINE
  8
0
 10
9.67026
 20
120.742
 11
9.92889
 21
120.88
  0
LINE
  8
0
 10
9.92889
 20
120.88
 11
10.2086
 21
120.965
  0
LINE
  8
0
 10
10.2086
 20
120.965
 11
10.5011
 21
120.993
  0
LINE
  8
0
 10
10.5011
 20
120.993
 11
13.494
 21
120.993
  0
LINE
  8
0
 10
13.494
 20
120.993
 11
13.494
 21
119.506
  0
LINE
  8
0
 10
13.494
 20
119.506
 11
12.0003
 21
119.506
  0
LINE
  8
0
 10
12.0003
 20
119.506
 11
11.7068
 21
119.477
  0
LINE
  8
0
 10
11.7068
 20
119.477
 11
11.4235
 21
119.391
  0
LINE
  8
0
 10
11.4235
 20
119.391
 11
11.163
 21
119.252
  0
LINE
  8
0
 10
11.163
 20
119.252
 11
10.9351
 21
119.065
  0
LINE
  8
0
 10
10.9351
 20
119.065
 11
10.7483
 21
118.837
  0
LINE
  8
0
 10
10.7483
 20
118.837
 11
10.6091
 21
118.577
  0
LINE
  8
0
 10
10.6091
 20
118.577
 11
10.5235
 21
118.293
  0
LINE
  8
0
 10
10.5235
 20
118.293
 11
10.4938
 21
118.001
  0
LINE
  8
0
 10
10.4938
 20
118.001
 11
10.4938
 21
115.006
  0
LINE
  8
0
 10
10.4938
 20
115.006
 11
1.5065
 21
115.006
  0
LINE
  8
0
 10
-25.0146
 20
115.006
 11
-24.5315
 21
116.493
  0
LINE
  8
0
 10
-24.5315
 20
116.493
 11
-20.9935
 21
116.493
  0
LINE
  8
0
 10
-20.9935
 20
116.493
 11
-20.9935
 21
119.5
  0
LINE
  8
0
 10
-20.9935
 20
119.5
 11
-20.9647
 21
119.792
  0
LINE
  8
0
 10
-20.9647
 20
119.792
 11
-20.88
 21
120.071
  0
LINE
  8
0
 10
-20.88
 20
120.071
 11
-20.7417
 21
120.33
  0
LINE
  8
0
 10
-20.7417
 20
120.33
 11
-20.5563
 21
120.556
  0
LINE
  8
0
 10
-20.5563
 20
120.556
 11
-20.3297
 21
120.742
  0
LINE
  8
0
 10
-20.3297
 20
120.742
 11
-20.0711
 21
120.88
  0
LINE
  8
0
 10
-20.0711
 20
120.88
 11
-19.7914
 21
120.965
  0
LINE
  8
0
 10
-19.7914
 20
120.965
 11
-19.4989
 21
120.993
  0
LINE
  8
0
 10
-19.4989
 20
120.993
 11
-16.506
 21
120.993
  0
LINE
  8
0
 10
-16.506
 20
120.993
 11
-16.506
 21
119.506
  0
LINE
  8
0
 10
-16.506
 20
119.506
 11
-17.9997
 21
119.506
  0
LINE
  8
0
 10
-17.9997
 20
119.506
 11
-18.2932
 21
119.477
  0
LINE
  8
0
 10
-18.2932
 20
119.477
 11
-18.5765
 21
119.391
  0
LINE
  8
0
 10
-18.5765
 20
119.391
 11
-18.837
 21
119.252
  0
LINE
  8
0
 10
-18.837
 20
119.252
 11
-19.0649
 21
119.065
  0
LINE
  8
0
 10
-19.0649
 20
119.065
 11
-19.2517
 21
118.837
  0
LINE
  8
0
 10
-19.2517
 20
118.837
 11
-19.3909
 21
118.577
  0
LINE
  8
0
 10
-19.3909
 20
118.577
 11
-19.4765
 21
118.293
  0
LINE
  8
0
 10
-19.4765
 20
118.293
 11
-19.5062
 21
118.001
  0
LINE
  8
0
 10
-19.5062
 20
118.001
 11
-19.5062
 21
115.006
  0
LINE
  8
0
 10
-19.5062
 20
115.006
 11
-25.0146
 21
115.006
  0
LINE
  8
0
 10
-5.9935
 20
101.506
 11
-5.9935
 21
104.5
  0
LINE
  8
0
 10
-5.9935
 20
104.5
 11
-5.96466
 21
104.792
  0
LINE
  8
0
 10
-5.96466
 20
104.792
 11
-5.87997
 21
105.071
  0
LINE
  8
0
 10
-5.87997
 20
105.071
 11
-5.74173
 21
105.33
  0
LINE
  8
0
 10
-5.74173
 20
105.33
 11
-5.55634
 21
105.556
  0
LINE
  8
0
 10
-5.55634
 20
105.556
 11
-5.32974
 21
105.742
  0
LINE
  8
0
 10
-5.32974
 20
105.742
 11
-5.07111
 21
105.88
  0
LINE
  8
0
 10
-5.07111
 20
105.88
 11
-4.79141
 21
105.965
  0
LINE
  8
0
 10
-4.79141
 20
105.965
 11
-4.4989
 21
105.993
  0
LINE
  8
0
 10
-4.4989
 20
105.993
 11
-1.49323
 21
105.994
  0
LINE
  8
0
 10
-1.49323
 20
105.994
 11
-1.49323
 21
112.006
  0
LINE
  8
0
 10
-1.49323
 20
112.006
 11
-2.99332
 21
112.007
  0
LINE
  8
0
 10
-2.99332
 20
112.007
 11
-2.99377
 21
113.507
  0
LINE
  8
0
 10
-2.99377
 20
113.507
 11
-9.0065
 21
113.507
  0
LINE
  8
0
 10
-9.0065
 20
113.507
 11
-9.0065
 21
110.5
  0
LINE
  8
0
 10
-9.0065
 20
110.5
 11
-9.03534
 21
110.208
  0
LINE
  8
0
 10
-9.03534
 20
110.208
 11
-9.12003
 21
109.929
  0
LINE
  8
0
 10
-9.12003
 20
109.929
 11
-9.25873
 21
109.67
  0
LINE
  8
0
 10
-9.25873
 20
109.67
 11
-9.44412
 21
109.443
  0
LINE
  8
0
 10
-9.44412
 20
109.443
 11
-9.67026
 21
109.258
  0
LINE
  8
0
 10
-9.67026
 20
109.258
 11
-9.92889
 21
109.12
  0
LINE
  8
0
 10
-9.92889
 20
109.12
 11
-10.2086
 21
109.035
  0
LINE
  8
0
 10
-10.2086
 20
109.035
 11
-10.5011
 21
109.007
  0
LINE
  8
0
 10
-10.5011
 20
109.007
 11
-13.494
 21
109.007
  0
LINE
  8
0
 10
-13.494
 20
109.007
 11
-13.494
 21
110.494
  0
LINE
  8
0
 10
-13.494
 20
110.494
 11
-12.0003
 21
110.494
  0
LINE
  8
0
 10
-12.0003
 20
110.494
 11
-11.7068
 21
110.523
  0
LINE
  8
0
 10
-11.7068
 20
110.523
 11
-11.4235
 21
110.609
  0
LINE
  8
0
 10
-11.4235
 20
110.609
 11
-11.163
 21
110.748
  0
LINE
  8
0
 10
-11.163
 20
110.748
 11
-10.9351
 21
110.935
  0
LINE
  8
0
 10
-10.9351
 20
110.935
 11
-10.7483
 21
111.163
  0
LINE
  8
0
 10
-10.7483
 20
111.163
 11
-10.6091
 21
111.423
  0
LINE
  8
0
 10
-10.6091
 20
111.423
 11
-10.5235
 21
111.707
  0
LINE
  8
0
 10
-10.5235
 20
111.707
 11
-10.4938
 21
111.999
  0
LINE
  8
0
 10
-10.4938
 20
111.999
 11
-10.4938
 21
114.994
  0
LINE
  8
0
 10
-10.4938
 20
114.994
 11
-1.5065
 21
114.994
  0
LINE
  8
0
 10
-1.5065
 20
114.994
 11
-1.5065
 21
113.502
  0
LINE
  8
0
 10
-1.5065
 20
113.502
 11
-1.51474
 21
113.493
  0
LINE
  8
0
 10
-1.51474
 20
113.493
 11
-1.5065
 21
113.493
  0
LINE
  8
0
 10
-1.5065
 20
113.493
 11
-1.5065
 21
113.485
  0
LINE
  8
0
 10
-1.5065
 20
113.485
 11
-1.4978
 21
113.493
  0
LINE
  8
0
 10
-1.4978
 20
113.493
 11
-0.00640869
 21
113.493
  0
LINE
  8
0
 10
-0.00640869
 20
113.493
 11
-0.00640869
 21
104.506
  0
LINE
  8
0
 10
-0.00640869
 20
104.506
 11
-2.99973
 21
104.506
  0
LINE
  8
0
 10
-2.99973
 20
104.506
 11
-3.29315
 21
104.477
  0
LINE
  8
0
 10
-3.29315
 20
104.477
 11
-3.57651
 21
104.391
  0
LINE
  8
0
 10
-3.57651
 20
104.391
 11
-3.83698
 21
104.252
  0
LINE
  8
0
 10
-3.83698
 20
104.252
 11
-4.06494
 21
104.065
  0
LINE
  8
0
 10
-4.06494
 20
104.065
 11
-4.25171
 21
103.837
  0
LINE
  8
0
 10
-4.25171
 20
103.837
 11
-4.39087
 21
103.577
  0
LINE
  8
0
 10
-4.39087
 20
103.577
 11
-4.47647
 21
103.293
  0
LINE
  8
0
 10
-4.47647
 20
103.293
 11
-4.50623
 21
103.001
  0
LINE
  8
0
 10
-4.50623
 20
103.001
 11
-4.50623
 21
101.506
  0
LINE
  8
0
 10
-4.50623
 20
101.506
 11
-5.9935
 21
101.506
  0
LINE
  8
0
 10
16.506
 20
109.007
 11
16.506
 21
110.494
  0
LINE
  8
0
 10
16.506
 20
110.494
 11
17.9997
 21
110.494
  0
LINE
  8
0
 10
17.9997
 20
110.494
 11
18.2932
 21
110.523
  0
LINE
  8
0
 10
18.2932
 20
110.523
 11
18.5765
 21
110.609
  0
LINE
  8
0
 10
18.5765
 20
110.609
 11
18.837
 21
110.748
  0
LINE
  8
0
 10
18.837
 20
110.748
 11
19.0649
 21
110.935
  0
LINE
  8
0
 10
19.0649
 20
110.935
 11
19.2517
 21
111.163
  0
LINE
  8
0
 10
19.2517
 20
111.163
 11
19.3909
 21
111.423
  0
LINE
  8
0
 10
19.3909
 20
111.423
 11
19.4765
 21
111.707
  0
LINE
  8
0
 10
19.4765
 20
111.707
 11
19.5062
 21
111.999
  0
LINE
  8
0
 10
19.5062
 20
111.999
 11
19.5062
 21
114.994
  0
LINE
  8
0
 10
19.5062
 20
114.994
 11
25.0188
 21
114.994
  0
LINE
  8
0
 10
25.0188
 20
114.994
 11
25.5019
 21
113.507
  0
LINE
  8
0
 10
25.5019
 20
113.507
 11
20.9935
 21
113.507
  0
LINE
  8
0
 10
20.9935
 20
113.507
 11
20.9935
 21
110.5
  0
LINE
  8
0
 10
20.9935
 20
110.5
 11
20.9647
 21
110.208
  0
LINE
  8
0
 10
20.9647
 20
110.208
 11
20.88
 21
109.929
  0
LINE
  8
0
 10
20.88
 20
109.929
 11
20.7413
 21
109.67
  0
LINE
  8
0
 10
20.7413
 20
109.67
 11
20.5559
 21
109.443
  0
LINE
  8
0
 10
20.5559
 20
109.443
 11
20.3297
 21
109.258
  0
LINE
  8
0
 10
20.3297
 20
109.258
 11
20.0711
 21
109.12
  0
LINE
  8
0
 10
20.0711
 20
109.12
 11
19.7914
 21
109.035
  0
LINE
  8
0
 10
19.7914
 20
109.035
 11
19.4989
 21
109.007
  0
LINE
  8
0
 10
19.4989
 20
109.007
 11
16.506
 21
109.007
  0
LINE
  8
0
 10
-25.4938
 20
100.006
 11
-25.4938
 21
103
  0
LINE
  8
0
 10
-25.4938
 20
103
 11
-25.5226
 21
103.293
  0
LINE
  8
0
 10
-25.5226
 20
103.293
 11
-25.6091
 21
103.577
  0
LINE
  8
0
 10
-25.6091
 20
103.577
 11
-25.7483
 21
103.837
  0
LINE
  8
0
 10
-25.7483
 20
103.837
 11
-25.9351
 21
104.065
  0
LINE
  8
0
 10
-25.9351
 20
104.065
 11
-26.163
 21
104.252
  0
LINE
  8
0
 10
-26.163
 20
104.252
 11
-26.4235
 21
104.391
  0
LINE
  8
0
 10
-26.4235
 20
104.391
 11
-26.7068
 21
104.476
  0
LINE
  8
0
 10
-26.7068
 20
104.476
 11
-26.9994
 21
104.506
  0
LINE
  8
0
 10
-26.9994
 20
104.506
 11
-28.4263
 21
104.506
  0
LINE
  8
0
 10
-28.4263
 20
104.506
 11
-27.9431
 21
105.993
  0
LINE
  8
0
 10
-27.9431
 20
105.993
 11
-25.5002
 21
105.993
  0
LINE
  8
0
 10
-25.5002
 20
105.993
 11
-25.2077
 21
105.965
  0
LINE
  8
0
 10
-25.2077
 20
105.965
 11
-24.9289
 21
105.88
  0
LINE
  8
0
 10
-24.9289
 20
105.88
 11
-24.6698
 21
105.741
  0
LINE
  8
0
 10
-24.6698
 20
105.741
 11
-24.4432
 21
105.556
  0
LINE
  8
0
 10
-24.4432
 20
105.556
 11
-24.2578
 21
105.329
  0
LINE
  8
0
 10
-24.2578
 20
105.329
 11
-24.12
 21
105.071
  0
LINE
  8
0
 10
-24.12
 20
105.071
 11
-24.0353
 21
104.791
  0
LINE
  8
0
 10
-24.0353
 20
104.791
 11
-24.0065
 21
104.499
  0
LINE
  8
0
 10
-24.0065
 20
104.499
 11
-24.0056
 21
101.493
  0
LINE
  8
0
 10
-24.0056
 20
101.493
 11
-17.9938
 21
101.493
  0
LINE
  8
0
 10
-17.9938
 20
101.493
 11
-17.9933
 21
102.993
  0
LINE
  8
0
 10
-17.9933
 20
102.993
 11
-16.4932
 21
102.994
  0
LINE
  8
0
 10
-16.4932
 20
102.994
 11
-16.4932
 21
109.007
  0
LINE
  8
0
 10
-16.4932
 20
109.007
 11
-19.4998
 21
109.007
  0
LINE
  8
0
 10
-19.4998
 20
109.007
 11
-19.7923
 21
109.035
  0
LINE
  8
0
 10
-19.7923
 20
109.035
 11
-20.0711
 21
109.12
  0
LINE
  8
0
 10
-20.0711
 20
109.12
 11
-20.3302
 21
109.259
  0
LINE
  8
0
 10
-20.3302
 20
109.259
 11
-20.5568
 21
109.444
  0
LINE
  8
0
 10
-20.5568
 20
109.444
 11
-20.7422
 21
109.671
  0
LINE
  8
0
 10
-20.7422
 20
109.671
 11
-20.88
 21
109.929
  0
LINE
  8
0
 10
-20.88
 20
109.929
 11
-20.9647
 21
110.209
  0
LINE
  8
0
 10
-20.9647
 20
110.209
 11
-20.9935
 21
110.501
  0
LINE
  8
0
 10
-20.9935
 20
110.501
 11
-20.9935
 21
113.494
  0
LINE
  8
0
 10
-20.9935
 20
113.494
 11
-19.5062
 21
113.494
  0
LINE
  8
0
 10
-19.5062
 20
113.494
 11
-19.5062
 21
112
  0
LINE
  8
0
 10
-19.5062
 20
112
 11
-19.4774
 21
111.707
  0
LINE
  8
0
 10
-19.4774
 20
111.707
 11
-19.3909
 21
111.423
  0
LINE
  8
0
 10
-19.3909
 20
111.423
 11
-19.2517
 21
111.163
  0
LINE
  8
0
 10
-19.2517
 20
111.163
 11
-19.0649
 21
110.935
  0
LINE
  8
0
 10
-19.0649
 20
110.935
 11
-18.837
 21
110.748
  0
LINE
  8
0
 10
-18.837
 20
110.748
 11
-18.5765
 21
110.609
  0
LINE
  8
0
 10
-18.5765
 20
110.609
 11
-18.2932
 21
110.524
  0
LINE
  8
0
 10
-18.2932
 20
110.524
 11
-18.0006
 21
110.494
  0
LINE
  8
0
 10
-18.0006
 20
110.494
 11
-15.0064
 21
110.494
  0
LINE
  8
0
 10
-15.0064
 20
110.494
 11
-15.0064
 21
101.507
  0
LINE
  8
0
 10
-15.0064
 20
101.507
 11
-16.4978
 21
101.507
  0
LINE
  8
0
 10
-16.4978
 20
101.507
 11
-16.5065
 21
101.515
  0
LINE
  8
0
 10
-16.5065
 20
101.515
 11
-16.5065
 21
101.507
  0
LINE
  8
0
 10
-16.5065
 20
101.507
 11
-16.5147
 21
101.507
  0
LINE
  8
0
 10
-16.5147
 20
101.507
 11
-16.5065
 21
101.498
  0
LINE
  8
0
 10
-16.5065
 20
101.498
 11
-16.5065
 21
100.006
  0
LINE
  8
0
 10
-16.5065
 20
100.006
 11
-25.4938
 21
100.006
  0
LINE
  8
0
 10
4.50623
 20
100.006
 11
4.50623
 21
103
  0
LINE
  8
0
 10
4.50623
 20
103
 11
4.47739
 21
103.293
  0
LINE
  8
0
 10
4.47739
 20
103.293
 11
4.39087
 21
103.577
  0
LINE
  8
0
 10
4.39087
 20
103.577
 11
4.25171
 21
103.837
  0
LINE
  8
0
 10
4.25171
 20
103.837
 11
4.06494
 21
104.065
  0
LINE
  8
0
 10
4.06494
 20
104.065
 11
3.83698
 21
104.252
  0
LINE
  8
0
 10
3.83698
 20
104.252
 11
3.57651
 21
104.391
  0
LINE
  8
0
 10
3.57651
 20
104.391
 11
3.29315
 21
104.476
  0
LINE
  8
0
 10
3.29315
 20
104.476
 11
3.00064
 21
104.506
  0
LINE
  8
0
 10
3.00064
 20
104.506
 11
1.50604
 21
104.506
  0
LINE
  8
0
 10
1.50604
 20
104.506
 11
1.50604
 21
105.993
  0
LINE
  8
0
 10
1.50604
 20
105.993
 11
4.49982
 21
105.993
  0
LINE
  8
0
 10
4.49982
 20
105.993
 11
4.79233
 21
105.965
  0
LINE
  8
0
 10
4.79233
 20
105.965
 11
5.07111
 21
105.88
  0
LINE
  8
0
 10
5.07111
 20
105.88
 11
5.3302
 21
105.741
  0
LINE
  8
0
 10
5.3302
 20
105.741
 11
5.55679
 21
105.556
  0
LINE
  8
0
 10
5.55679
 20
105.556
 11
5.74219
 21
105.329
  0
LINE
  8
0
 10
5.74219
 20
105.329
 11
5.87997
 21
105.071
  0
LINE
  8
0
 10
5.87997
 20
105.071
 11
5.96466
 21
104.791
  0
LINE
  8
0
 10
5.96466
 20
104.791
 11
5.9935
 21
104.499
  0
LINE
  8
0
 10
5.9935
 20
104.499
 11
5.99442
 21
101.493
  0
LINE
  8
0
 10
5.99442
 20
101.493
 11
12.0062
 21
101.493
  0
LINE
  8
0
 10
12.0062
 20
101.493
 11
12.0067
 21
102.993
  0
LINE
  8
0
 10
12.0067
 20
102.993
 11
13.5068
 21
102.994
  0
LINE
  8
0
 10
13.5068
 20
102.994
 11
13.5068
 21
109.007
  0
LINE
  8
0
 10
13.5068
 20
109.007
 11
10.5002
 21
109.007
  0
LINE
  8
0
 10
10.5002
 20
109.007
 11
10.2077
 21
109.035
  0
LINE
  8
0
 10
10.2077
 20
109.035
 11
9.92889
 21
109.12
  0
LINE
  8
0
 10
9.92889
 20
109.12
 11
9.6698
 21
109.259
  0
LINE
  8
0
 10
9.6698
 20
109.259
 11
9.44321
 21
109.444
  0
LINE
  8
0
 10
9.44321
 20
109.444
 11
9.25781
 21
109.671
  0
LINE
  8
0
 10
9.25781
 20
109.671
 11
9.12003
 21
109.929
  0
LINE
  8
0
 10
9.12003
 20
109.929
 11
9.03534
 21
110.209
  0
LINE
  8
0
 10
9.03534
 20
110.209
 11
9.0065
 21
110.501
  0
LINE
  8
0
 10
9.0065
 20
110.501
 11
9.0065
 21
113.494
  0
LINE
  8
0
 10
9.0065
 20
113.494
 11
10.4938
 21
113.494
  0
LINE
  8
0
 10
10.4938
 20
113.494
 11
10.4938
 21
112
  0
LINE
  8
0
 10
10.4938
 20
112
 11
10.5226
 21
111.707
  0
LINE
  8
0
 10
10.5226
 20
111.707
 11
10.6091
 21
111.423
  0
LINE
  8
0
 10
10.6091
 20
111.423
 11
10.7483
 21
111.163
  0
LINE
  8
0
 10
10.7483
 20
111.163
 11
10.9351
 21
110.935
  0
LINE
  8
0
 10
10.9351
 20
110.935
 11
11.163
 21
110.748
  0
LINE
  8
0
 10
11.163
 20
110.748
 11
11.4235
 21
110.609
  0
LINE
  8
0
 10
11.4235
 20
110.609
 11
11.7068
 21
110.524
  0
LINE
  8
0
 10
11.7068
 20
110.524
 11
11.9994
 21
110.494
  0
LINE
  8
0
 10
11.9994
 20
110.494
 11
14.9936
 21
110.494
  0
LINE
  8
0
 10
14.9936
 20
110.494
 11
14.9936
 21
101.507
  0
LINE
  8
0
 10
14.9936
 20
101.507
 11
13.5022
 21
101.507
  0
LINE
  8
0
 10
13.5022
 20
101.507
 11
13.4935
 21
101.515
  0
LINE
  8
0
 10
13.4935
 20
101.515
 11
13.4935
 21
101.507
  0
LINE
  8
0
 10
13.4935
 20
101.507
 11
13.4853
 21
101.507
  0
LINE
  8
0
 10
13.4853
 20
101.507
 11
13.4935
 21
101.498
  0
LINE
  8
0
 10
13.4935
 20
101.498
 11
13.4935
 21
100.006
  0
LINE
  8
0
 10
13.4935
 20
100.006
 11
4.50623
 21
100.006
  0
LINE
  8
0
 10
24.0065
 20
101.506
 11
24.0065
 21
104.5
  0
LINE
  8
0
 10
24.0065
 20
104.5
 11
24.0353
 21
104.792
  0
LINE
  8
0
 10
24.0353
 20
104.792
 11
24.12
 21
105.071
  0
LINE
  8
0
 10
24.12
 20
105.071
 11
24.2583
 21
105.33
  0
LINE
  8
0
 10
24.2583
 20
105.33
 11
24.4437
 21
105.556
  0
LINE
  8
0
 10
24.4437
 20
105.556
 11
24.6703
 21
105.742
  0
LINE
  8
0
 10
24.6703
 20
105.742
 11
24.9289
 21
105.88
  0
LINE
  8
0
 10
24.9289
 20
105.88
 11
25.2086
 21
105.965
  0
LINE
  8
0
 10
25.2086
 20
105.965
 11
25.5011
 21
105.993
  0
LINE
  8
0
 10
25.5011
 20
105.993
 11
27.9428
 21
105.994
  0
LINE
  8
0
 10
27.9428
 20
105.994
 11
28.4263
 21
104.506
  0
LINE
  8
0
 10
28.4263
 20
104.506
 11
27.0003
 21
104.506
  0
LINE
  8
0
 10
27.0003
 20
104.506
 11
26.7068
 21
104.477
  0
LINE
  8
0
 10
26.7068
 20
104.477
 11
26.4235
 21
104.391
  0
LINE
  8
0
 10
26.4235
 20
104.391
 11
26.163
 21
104.252
  0
LINE
  8
0
 10
26.163
 20
104.252
 11
25.9351
 21
104.065
  0
LINE
  8
0
 10
25.9351
 20
104.065
 11
25.7483
 21
103.837
  0
LINE
  8
0
 10
25.7483
 20
103.837
 11
25.6091
 21
103.577
  0
LINE
  8
0
 10
25.6091
 20
103.577
 11
25.5235
 21
103.293
  0
LINE
  8
0
 10
25.5235
 20
103.293
 11
25.4938
 21
103.001
  0
LINE
  8
0
 10
25.4938
 20
103.001
 11
25.4938
 21
101.506
  0
LINE
  8
0
 10
25.4938
 20
101.506
 11
24.0065
 21
101.506
  0
LINE
  8
0
 10
19.5062
 20
86.506
 11
19.5062
 21
87.9997
  0
LINE
  8
0
 10
19.5062
 20
87.9997
 11
19.4774
 21
88.2932
  0
LINE
  8
0
 10
19.4774
 20
88.2932
 11
19.3909
 21
88.5765
  0
LINE
  8
0
 10
19.3909
 20
88.5765
 11
19.2517
 21
88.837
  0
LINE
  8
0
 10
19.2517
 20
88.837
 11
19.0649
 21
89.0649
  0
LINE
  8
0
 10
19.0649
 20
89.0649
 11
18.837
 21
89.2517
  0
LINE
  8
0
 10
18.837
 20
89.2517
 11
18.5765
 21
89.3909
  0
LINE
  8
0
 10
18.5765
 20
89.3909
 11
18.2932
 21
89.4765
  0
LINE
  8
0
 10
18.2932
 20
89.4765
 11
18.0006
 21
89.5062
  0
LINE
  8
0
 10
18.0006
 20
89.5062
 11
15.0064
 21
89.5062
  0
LINE
  8
0
 10
15.0064
 20
89.5062
 11
15.0064
 21
98.4935
  0
LINE
  8
0
 10
15.0064
 20
98.4935
 11
16.4978
 21
98.4935
  0
LINE
  8
0
 10
16.4978
 20
98.4935
 11
16.5065
 21
98.4853
  0
LINE
  8
0
 10
16.5065
 20
98.4853
 11
16.5065
 21
98.4935
  0
LINE
  8
0
 10
16.5065
 20
98.4935
 11
16.5147
 21
98.4935
  0
LINE
  8
0
 10
16.5147
 20
98.4935
 11
16.5065
 21
98.5022
  0
LINE
  8
0
 10
16.5065
 20
98.5022
 11
16.5065
 21
99.9936
  0
LINE
  8
0
 10
16.5065
 20
99.9936
 11
25.4938
 21
99.9936
  0
LINE
  8
0
 10
25.4938
 20
99.9936
 11
25.4938
 21
97.0003
  0
LINE
  8
0
 10
25.4938
 20
97.0003
 11
25.5226
 21
96.7068
  0
LINE
  8
0
 10
25.5226
 20
96.7068
 11
25.6091
 21
96.4235
  0
LINE
  8
0
 10
25.6091
 20
96.4235
 11
25.7483
 21
96.163
  0
LINE
  8
0
 10
25.7483
 20
96.163
 11
25.9351
 21
95.9351
  0
LINE
  8
0
 10
25.9351
 20
95.9351
 11
26.163
 21
95.7483
  0
LINE
  8
0
 10
26.163
 20
95.7483
 11
26.4235
 21
95.6091
  0
LINE
  8
0
 10
26.4235
 20
95.6091
 11
26.7068
 21
95.5235
  0
LINE
  8
0
 10
26.7068
 20
95.5235
 11
26.9994
 21
95.4938
  0
LINE
  8
0
 10
26.9994
 20
95.4938
 11
28.494
 21
95.4938
  0
LINE
  8
0
 10
28.494
 20
95.4938
 11
28.494
 21
94.0065
  0
LINE
  8
0
 10
28.494
 20
94.0065
 11
25.5002
 21
94.0065
  0
LINE
  8
0
 10
25.5002
 20
94.0065
 11
25.2077
 21
94.0353
  0
LINE
  8
0
 10
25.2077
 20
94.0353
 11
24.9289
 21
94.12
  0
LINE
  8
0
 10
24.9289
 20
94.12
 11
24.6698
 21
94.2587
  0
LINE
  8
0
 10
24.6698
 20
94.2587
 11
24.4432
 21
94.4441
  0
LINE
  8
0
 10
24.4432
 20
94.4441
 11
24.2578
 21
94.6707
  0
LINE
  8
0
 10
24.2578
 20
94.6707
 11
24.12
 21
94.9289
  0
LINE
  8
0
 10
24.12
 20
94.9289
 11
24.0353
 21
95.2086
  0
LINE
  8
0
 10
24.0353
 20
95.2086
 11
24.0065
 21
95.5011
  0
LINE
  8
0
 10
24.0065
 20
95.5011
 11
24.0056
 21
98.5068
  0
LINE
  8
0
 10
24.0056
 20
98.5068
 11
17.9938
 21
98.5068
  0
LINE
  8
0
 10
17.9938
 20
98.5068
 11
17.9933
 21
97.0067
  0
LINE
  8
0
 10
17.9933
 20
97.0067
 11
16.4932
 21
97.0062
  0
LINE
  8
0
 10
16.4932
 20
97.0062
 11
16.4932
 21
90.9935
  0
LINE
  8
0
 10
16.4932
 20
90.9935
 11
19.4998
 21
90.9935
  0
LINE
  8
0
 10
19.4998
 20
90.9935
 11
19.7923
 21
90.9647
  0
LINE
  8
0
 10
19.7923
 20
90.9647
 11
20.0711
 21
90.88
  0
LINE
  8
0
 10
20.0711
 20
90.88
 11
20.3302
 21
90.7413
  0
LINE
  8
0
 10
20.3302
 20
90.7413
 11
20.5568
 21
90.5559
  0
LINE
  8
0
 10
20.5568
 20
90.5559
 11
20.7422
 21
90.3293
  0
LINE
  8
0
 10
20.7422
 20
90.3293
 11
20.88
 21
90.0711
  0
LINE
  8
0
 10
20.88
 20
90.0711
 11
20.9647
 21
89.7914
  0
LINE
  8
0
 10
20.9647
 20
89.7914
 11
20.9935
 21
89.4989
  0
LINE
  8
0
 10
20.9935
 20
89.4989
 11
20.9935
 21
86.506
  0
LINE
  8
0
 10
20.9935
 20
86.506
 11
19.5062
 21
86.506
  0
LINE
  8
0
 10
-10.4938
 20
86.506
 11
-10.4938
 21
87.9997
  0
LINE
  8
0
 10
-10.4938
 20
87.9997
 11
-10.5226
 21
88.2932
  0
LINE
  8
0
 10
-10.5226
 20
88.2932
 11
-10.6091
 21
88.5765
  0
LINE
  8
0
 10
-10.6091
 20
88.5765
 11
-10.7483
 21
88.837
  0
LINE
  8
0
 10
-10.7483
 20
88.837
 11
-10.9351
 21
89.0649
  0
LINE
  8
0
 10
-10.9351
 20
89.0649
 11
-11.163
 21
89.2517
  0
LINE
  8
0
 10
-11.163
 20
89.2517
 11
-11.4235
 21
89.3909
  0
LINE
  8
0
 10
-11.4235
 20
89.3909
 11
-11.7068
 21
89.4765
  0
LINE
  8
0
 10
-11.7068
 20
89.4765
 11
-11.9994
 21
89.5062
  0
LINE
  8
0
 10
-11.9994
 20
89.5062
 11
-14.9936
 21
89.5062
  0
LINE
  8
0
 10
-14.9936
 20
89.5062
 11
-14.9936
 21
98.4935
  0
LINE
  8
0
 10
-14.9936
 20
98.4935
 11
-13.5022
 21
98.4935
  0
LINE
  8
0
 10
-13.5022
 20
98.4935
 11
-13.4935
 21
98.4853
  0
LINE
  8
0
 10
-13.4935
 20
98.4853
 11
-13.4935
 21
98.4935
  0
LINE
  8
0
 10
-13.4935
 20
98.4935
 11
-13.4853
 21
98.4935
  0
LINE
  8
0
 10
-13.4853
 20
98.4935
 11
-13.4935
 21
98.5022
  0
LINE
  8
0
 10
-13.4935
 20
98.5022
 11
-13.4935
 21
99.9936
  0
LINE
  8
0
 10
-13.4935
 20
99.9936
 11
-4.50623
 21
99.9936
  0
LINE
  8
0
 10
-4.50623
 20
99.9936
 11
-4.50623
 21
97.0003
  0
LINE
  8
0
 10
-4.50623
 20
97.0003
 11
-4.47739
 21
96.7068
  0
LINE
  8
0
 10
-4.47739
 20
96.7068
 11
-4.39087
 21
96.4235
  0
LINE
  8
0
 10
-4.39087
 20
96.4235
 11
-4.25171
 21
96.163
  0
LINE
  8
0
 10
-4.25171
 20
96.163
 11
-4.06494
 21
95.9351
  0
LINE
  8
0
 10
-4.06494
 20
95.9351
 11
-3.83698
 21
95.7483
  0
LINE
  8
0
 10
-3.83698
 20
95.7483
 11
-3.57651
 21
95.6091
  0
LINE
  8
0
 10
-3.57651
 20
95.6091
 11
-3.29315
 21
95.5235
  0
LINE
  8
0
 10
-3.29315
 20
95.5235
 11
-3.00064
 21
95.4938
  0
LINE
  8
0
 10
-3.00064
 20
95.4938
 11
-1.50604
 21
95.4938
  0
LINE
  8
0
 10
-1.50604
 20
95.4938
 11
-1.50604
 21
94.0065
  0
LINE
  8
0
 10
-1.50604
 20
94.0065
 11
-4.49982
 21
94.0065
  0
LINE
  8
0
 10
-4.49982
 20
94.0065
 11
-4.79233
 21
94.0353
  0
LINE
  8
0
 10
-4.79233
 20
94.0353
 11
-5.07111
 21
94.12
  0
LINE
  8
0
 10
-5.07111
 20
94.12
 11
-5.3302
 21
94.2587
  0
LINE
  8
0
 10
-5.3302
 20
94.2587
 11
-5.55679
 21
94.4441
  0
LINE
  8
0
 10
-5.55679
 20
94.4441
 11
-5.74219
 21
94.6707
  0
LINE
  8
0
 10
-5.74219
 20
94.6707
 11
-5.87997
 21
94.9289
  0
LINE
  8
0
 10
-5.87997
 20
94.9289
 11
-5.96466
 21
95.2086
  0
LINE
  8
0
 10
-5.96466
 20
95.2086
 11
-5.9935
 21
95.5011
  0
LINE
  8
0
 10
-5.9935
 20
95.5011
 11
-5.99442
 21
98.5068
  0
LINE
  8
0
 10
-5.99442
 20
98.5068
 11
-12.0062
 21
98.5068
  0
LINE
  8
0
 10
-12.0062
 20
98.5068
 11
-12.0067
 21
97.0067
  0
LINE
  8
0
 10
-12.0067
 20
97.0067
 11
-13.5068
 21
97.0062
  0
LINE
  8
0
 10
-13.5068
 20
97.0062
 11
-13.5068
 21
90.9935
  0
LINE
  8
0
 10
-13.5068
 20
90.9935
 11
-10.5002
 21
90.9935
  0
LINE
  8
0
 10
-10.5002
 20
90.9935
 11
-10.2077
 21
90.9647
  0
LINE
  8
0
 10
-10.2077
 20
90.9647
 11
-9.92889
 21
90.88
  0
LINE
  8
0
 10
-9.92889
 20
90.88
 11
-9.6698
 21
90.7413
  0
LINE
  8
0
 10
-9.6698
 20
90.7413
 11
-9.44321
 21
90.5559
  0
LINE
  8
0
 10
-9.44321
 20
90.5559
 11
-9.25781
 21
90.3293
  0
LINE
  8
0
 10
-9.25781
 20
90.3293
 11
-9.12003
 21
90.0711
  0
LINE
  8
0
 10
-9.12003
 20
90.0711
 11
-9.03534
 21
89.7914
  0
LINE
  8
0
 10
-9.03534
 20
89.7914
 11
-9.0065
 21
89.4989
  0
LINE
  8
0
 10
-9.0065
 20
89.4989
 11
-9.0065
 21
86.506
  0
LINE
  8
0
 10
-9.0065
 20
86.506
 11
-10.4938
 21
86.506
  0
LINE
  8
0
 10
1.5065
 20
85.0064
 11
1.5065
 21
86.4978
  0
LINE
  8
0
 10
1.5065
 20
86.4978
 11
1.51474
 21
86.5065
  0
LINE
  8
0
 10
1.51474
 20
86.5065
 11
1.5065
 21
86.5065
  0
LINE
  8
0
 10
1.5065
 20
86.5065
 11
1.5065
 21
86.5147
  0
LINE
  8
0
 10
1.5065
 20
86.5147
 11
1.4978
 21
86.5065
  0
LINE
  8
0
 10
1.4978
 20
86.5065
 11
0.00640869
 21
86.5065
  0
LINE
  8
0
 10
0.00640869
 20
86.5065
 11
0.00640869
 21
95.4938
  0
LINE
  8
0
 10
0.00640869
 20
95.4938
 11
2.99973
 21
95.4938
  0
LINE
  8
0
 10
2.99973
 20
95.4938
 11
3.29315
 21
95.5226
  0
LINE
  8
0
 10
3.29315
 20
95.5226
 11
3.57651
 21
95.6091
  0
LINE
  8
0
 10
3.57651
 20
95.6091
 11
3.83698
 21
95.7483
  0
LINE
  8
0
 10
3.83698
 20
95.7483
 11
4.06494
 21
95.9351
  0
LINE
  8
0
 10
4.06494
 20
95.9351
 11
4.25171
 21
96.163
  0
LINE
  8
0
 10
4.25171
 20
96.163
 11
4.39087
 21
96.4235
  0
LINE
  8
0
 10
4.39087
 20
96.4235
 11
4.47647
 21
96.7068
  0
LINE
  8
0
 10
4.47647
 20
96.7068
 11
4.50623
 21
96.9994
  0
LINE
  8
0
 10
4.50623
 20
96.9994
 11
4.50623
 21
98.494
  0
LINE
  8
0
 10
4.50623
 20
98.494
 11
5.9935
 21
98.494
  0
LINE
  8
0
 10
5.9935
 20
98.494
 11
5.9935
 21
95.5002
  0
LINE
  8
0
 10
5.9935
 20
95.5002
 11
5.96466
 21
95.2077
  0
LINE
  8
0
 10
5.96466
 20
95.2077
 11
5.87997
 21
94.9289
  0
LINE
  8
0
 10
5.87997
 20
94.9289
 11
5.74127
 21
94.6698
  0
LINE
  8
0
 10
5.74127
 20
94.6698
 11
5.55588
 21
94.4432
  0
LINE
  8
0
 10
5.55588
 20
94.4432
 11
5.32974
 21
94.2583
  0
LINE
  8
0
 10
5.32974
 20
94.2583
 11
5.07111
 21
94.12
  0
LINE
  8
0
 10
5.07111
 20
94.12
 11
4.79141
 21
94.0353
  0
LINE
  8
0
 10
4.79141
 20
94.0353
 11
4.4989
 21
94.0065
  0
LINE
  8
0
 10
4.4989
 20
94.0065
 11
1.49323
 21
94.0056
  0
LINE
  8
0
 10
1.49323
 20
94.0056
 11
1.49323
 21
87.9938
  0
LINE
  8
0
 10
1.49323
 20
87.9938
 11
2.99332
 21
87.9933
  0
LINE
  8
0
 10
2.99332
 20
87.9933
 11
2.99377
 21
86.4932
  0
LINE
  8
0
 10
2.99377
 20
86.4932
 11
9.0065
 21
86.4932
  0
LINE
  8
0
 10
9.0065
 20
86.4932
 11
9.0065
 21
89.4998
  0
LINE
  8
0
 10
9.0065
 20
89.4998
 11
9.03534
 21
89.7923
  0
LINE
  8
0
 10
9.03534
 20
89.7923
 11
9.12003
 21
90.0711
  0
LINE
  8
0
 10
9.12003
 20
90.0711
 11
9.25827
 21
90.3297
  0
LINE
  8
0
 10
9.25827
 20
90.3297
 11
9.44366
 21
90.5563
  0
LINE
  8
0
 10
9.44366
 20
90.5563
 11
9.67026
 21
90.7417
  0
LINE
  8
0
 10
9.67026
 20
90.7417
 11
9.92889
 21
90.88
  0
LINE
  8
0
 10
9.92889
 20
90.88
 11
10.2086
 21
90.9647
  0
LINE
  8
0
 10
10.2086
 20
90.9647
 11
10.5011
 21
90.9935
  0
LINE
  8
0
 10
10.5011
 20
90.9935
 11
13.494
 21
90.9935
  0
LINE
  8
0
 10
13.494
 20
90.9935
 11
13.494
 21
89.5062
  0
LINE
  8
0
 10
13.494
 20
89.5062
 11
12.0003
 21
89.5062
  0
LINE
  8
0
 10
12.0003
 20
89.5062
 11
11.7068
 21
89.4774
  0
LINE
  8
0
 10
11.7068
 20
89.4774
 11
11.4235
 21
89.3909
  0
LINE
  8
0
 10
11.4235
 20
89.3909
 11
11.163
 21
89.2517
  0
LINE
  8
0
 10
11.163
 20
89.2517
 11
10.9351
 21
89.0649
  0
LINE
  8
0
 10
10.9351
 20
89.0649
 11
10.7483
 21
88.837
  0
LINE
  8
0
 10
10.7483
 20
88.837
 11
10.6091
 21
88.5765
  0
LINE
  8
0
 10
10.6091
 20
88.5765
 11
10.5235
 21
88.2932
  0
LINE
  8
0
 10
10.5235
 20
88.2932
 11
10.4938
 21
88.0006
  0
LINE
  8
0
 10
10.4938
 20
88.0006
 11
10.4938
 21
85.0064
  0
LINE
  8
0
 10
10.4938
 20
85.0064
 11
1.5065
 21
85.0064
  0
LINE
  8
0
 10
-28.4935
 20
85.0064
 11
-28.4935
 21
86.4978
  0
LINE
  8
0
 10
-28.4935
 20
86.4978
 11
-28.4853
 21
86.5065
  0
LINE
  8
0
 10
-28.4853
 20
86.5065
 11
-28.4935
 21
86.5065
  0
LINE
  8
0
 10
-28.4935
 20
86.5065
 11
-28.4935
 21
86.5147
  0
LINE
  8
0
 10
-28.4935
 20
86.5147
 11
-28.5022
 21
86.5065
  0
LINE
  8
0
 10
-28.5022
 20
86.5065
 11
-29.9936
 21
86.5065
  0
LINE
  8
0
 10
-29.9936
 20
86.5065
 11
-29.9936
 21
95.4938
  0
LINE
  8
0
 10
-29.9936
 20
95.4938
 11
-27.0003
 21
95.4938
  0
LINE
  8
0
 10
-27.0003
 20
95.4938
 11
-26.7068
 21
95.5226
  0
LINE
  8
0
 10
-26.7068
 20
95.5226
 11
-26.4235
 21
95.6091
  0
LINE
  8
0
 10
-26.4235
 20
95.6091
 11
-26.163
 21
95.7483
  0
LINE
  8
0
 10
-26.163
 20
95.7483
 11
-25.9351
 21
95.9351
  0
LINE
  8
0
 10
-25.9351
 20
95.9351
 11
-25.7483
 21
96.163
  0
LINE
  8
0
 10
-25.7483
 20
96.163
 11
-25.6091
 21
96.4235
  0
LINE
  8
0
 10
-25.6091
 20
96.4235
 11
-25.5235
 21
96.7068
  0
LINE
  8
0
 10
-25.5235
 20
96.7068
 11
-25.4938
 21
96.9994
  0
LINE
  8
0
 10
-25.4938
 20
96.9994
 11
-25.4938
 21
98.494
  0
LINE
  8
0
 10
-25.4938
 20
98.494
 11
-24.0065
 21
98.494
  0
LINE
  8
0
 10
-24.0065
 20
98.494
 11
-24.0065
 21
95.5002
  0
LINE
  8
0
 10
-24.0065
 20
95.5002
 11
-24.0353
 21
95.2077
  0
LINE
  8
0
 10
-24.0353
 20
95.2077
 11
-24.12
 21
94.9289
  0
LINE
  8
0
 10
-24.12
 20
94.9289
 11
-24.2587
 21
94.6698
  0
LINE
  8
0
 10
-24.2587
 20
94.6698
 11
-24.4441
 21
94.4432
  0
LINE
  8
0
 10
-24.4441
 20
94.4432
 11
-24.6703
 21
94.2583
  0
LINE
  8
0
 10
-24.6703
 20
94.2583
 11
-24.9289
 21
94.12
  0
LINE
  8
0
 10
-24.9289
 20
94.12
 11
-25.2086
 21
94.0353
  0
LINE
  8
0
 10
-25.2086
 20
94.0353
 11
-25.5011
 21
94.0065
  0
LINE
  8
0
 10
-25.5011
 20
94.0065
 11
-28.5068
 21
94.0056
  0
LINE
  8
0
 10
-28.5068
 20
94.0056
 11
-28.5068
 21
87.9938
  0
LINE
  8
0
 10
-28.5068
 20
87.9938
 11
-27.0067
 21
87.9933
  0
LINE
  8
0
 10
-27.0067
 20
87.9933
 11
-27.0062
 21
86.4932
  0
LINE
  8
0
 10
-27.0062
 20
86.4932
 11
-20.9935
 21
86.4932
  0
LINE
  8
0
 10
-20.9935
 20
86.4932
 11
-20.9935
 21
89.4998
  0
LINE
  8
0
 10
-20.9935
 20
89.4998
 11
-20.9647
 21
89.7923
  0
LINE
  8
0
 10
-20.9647
 20
89.7923
 11
-20.88
 21
90.0711
  0
LINE
  8
0
 10
-20.88
 20
90.0711
 11
-20.7417
 21
90.3297
  0
LINE
  8
0
 10
-20.7417
 20
90.3297
 11
-20.5563
 21
90.5563
  0
LINE
  8
0
 10
-20.5563
 20
90.5563
 11
-20.3297
 21
90.7417
  0
LINE
  8
0
 10
-20.3297
 20
90.7417
 11
-20.0711
 21
90.88
  0
LINE
  8
0
 10
-20.0711
 20
90.88
 11
-19.7914
 21
90.9647
  0
LINE
  8
0
 10
-19.7914
 20
90.9647
 11
-19.4989
 21
90.9935
  0
LINE
  8
0
 10
-19.4989
 20
90.9935
 11
-16.506
 21
90.9935
  0
LINE
  8
0
 10
-16.506
 20
90.9935
 11
-16.506
 21
89.5062
  0
LINE
  8
0
 10
-16.506
 20
89.5062
 11
-17.9997
 21
89.5062
  0
LINE
  8
0
 10
-17.9997
 20
89.5062
 11
-18.2932
 21
89.4774
  0
LINE
  8
0
 10
-18.2932
 20
89.4774
 11
-18.5765
 21
89.3909
  0
LINE
  8
0
 10
-18.5765
 20
89.3909
 11
-18.837
 21
89.2517
  0
LINE
  8
0
 10
-18.837
 20
89.2517
 11
-19.0649
 21
89.0649
  0
LINE
  8
0
 10
-19.0649
 20
89.0649
 11
-19.2517
 21
88.837
  0
LINE
  8
0
 10
-19.2517
 20
88.837
 11
-19.3909
 21
88.5765
  0
LINE
  8
0
 10
-19.3909
 20
88.5765
 11
-19.4765
 21
88.2932
  0
LINE
  8
0
 10
-19.4765
 20
88.2932
 11
-19.5062
 21
88.0006
  0
LINE
  8
0
 10
-19.5062
 20
88.0006
 11
-19.5062
 21
85.0064
  0
LINE
  8
0
 10
-19.5062
 20
85.0064
 11
-28.4935
 21
85.0064
  0
LINE
  8
0
 10
31.5065
 20
85.0064
 11
31.5065
 21
86.4978
  0
LINE
  8
0
 10
31.5065
 20
86.4978
 11
31.5147
 21
86.5065
  0
LINE
  8
0
 10
31.5147
 20
86.5065
 11
31.5065
 21
86.5065
  0
LINE
  8
0
 10
31.5065
 20
86.5065
 11
31.5065
 21
86.5147
  0
LINE
  8
0
 10
31.5065
 20
86.5147
 11
31.4978
 21
86.5065
  0
LINE
  8
0
 10
31.4978
 20
86.5065
 11
30.0064
 21
86.5065
  0
LINE
  8
0
 10
30.0064
 20
86.5065
 11
30.0064
 21
95.4938
  0
LINE
  8
0
 10
30.0064
 20
95.4938
 11
31.3546
 21
95.4938
  0
LINE
  8
0
 10
31.3546
 20
95.4938
 11
31.8382
 21
94.0057
  0
LINE
  8
0
 10
31.8382
 20
94.0057
 11
31.4932
 21
94.0056
  0
LINE
  8
0
 10
31.4932
 20
94.0056
 11
31.4932
 21
87.9938
  0
LINE
  8
0
 10
31.4932
 20
87.9938
 11
32.9933
 21
87.9933
  0
LINE
  8
0
 10
32.9933
 20
87.9933
 11
32.9938
 21
86.4932
  0
LINE
  8
0
 10
32.9938
 20
86.4932
 11
34.2791
 21
86.4932
  0
LINE
  8
0
 10
34.2791
 20
86.4932
 11
34.7622
 21
85.0064
  0
LINE
  8
0
 10
34.7622
 20
85.0064
 11
31.5065
 21
85.0064
  0
LINE
  8
0
 10
-31.8379
 20
94.0065
 11
-31.506
 21
95.0278
  0
LINE
  8
0
 10
-31.506
 20
95.0278
 11
-31.506
 21
94.0065
  0
LINE
  8
0
 10
-31.506
 20
94.0065
 11
-31.8379
 21
94.0065
  0
LINE
  8
0
 10
-5.9935
 20
71.506
 11
-5.9935
 21
74.4998
  0
LINE
  8
0
 10
-5.9935
 20
74.4998
 11
-5.96466
 21
74.7923
  0
LINE
  8
0
 10
-5.96466
 20
74.7923
 11
-5.87997
 21
75.0711
  0
LINE
  8
0
 10
-5.87997
 20
75.0711
 11
-5.74173
 21
75.3297
  0
LINE
  8
0
 10
-5.74173
 20
75.3297
 11
-5.55634
 21
75.5563
  0
LINE
  8
0
 10
-5.55634
 20
75.5563
 11
-5.32974
 21
75.7417
  0
LINE
  8
0
 10
-5.32974
 20
75.7417
 11
-5.07111
 21
75.88
  0
LINE
  8
0
 10
-5.07111
 20
75.88
 11
-4.79141
 21
75.9647
  0
LINE
  8
0
 10
-4.79141
 20
75.9647
 11
-4.4989
 21
75.9935
  0
LINE
  8
0
 10
-4.4989
 20
75.9935
 11
-1.49323
 21
75.9944
  0
LINE
  8
0
 10
-1.49323
 20
75.9944
 11
-1.49323
 21
82.0062
  0
LINE
  8
0
 10
-1.49323
 20
82.0062
 11
-2.99332
 21
82.0067
  0
LINE
  8
0
 10
-2.99332
 20
82.0067
 11
-2.99377
 21
83.5068
  0
LINE
  8
0
 10
-2.99377
 20
83.5068
 11
-9.0065
 21
83.5068
  0
LINE
  8
0
 10
-9.0065
 20
83.5068
 11
-9.0065
 21
80.5002
  0
LINE
  8
0
 10
-9.0065
 20
80.5002
 11
-9.03534
 21
80.2077
  0
LINE
  8
0
 10
-9.03534
 20
80.2077
 11
-9.12003
 21
79.9289
  0
LINE
  8
0
 10
-9.12003
 20
79.9289
 11
-9.25873
 21
79.6698
  0
LINE
  8
0
 10
-9.25873
 20
79.6698
 11
-9.44412
 21
79.4432
  0
LINE
  8
0
 10
-9.44412
 20
79.4432
 11
-9.67026
 21
79.2583
  0
LINE
  8
0
 10
-9.67026
 20
79.2583
 11
-9.92889
 21
79.12
  0
LINE
  8
0
 10
-9.92889
 20
79.12
 11
-10.2086
 21
79.0353
  0
LINE
  8
0
 10
-10.2086
 20
79.0353
 11
-10.5011
 21
79.0065
  0
LINE
  8
0
 10
-10.5011
 20
79.0065
 11
-13.494
 21
79.0065
  0
LINE
  8
0
 10
-13.494
 20
79.0065
 11
-13.494
 21
80.4938
  0
LINE
  8
0
 10
-13.494
 20
80.4938
 11
-12.0003
 21
80.4938
  0
LINE
  8
0
 10
-12.0003
 20
80.4938
 11
-11.7068
 21
80.5226
  0
LINE
  8
0
 10
-11.7068
 20
80.5226
 11
-11.4235
 21
80.6091
  0
LINE
  8
0
 10
-11.4235
 20
80.6091
 11
-11.163
 21
80.7483
  0
LINE
  8
0
 10
-11.163
 20
80.7483
 11
-10.9351
 21
80.9351
  0
LINE
  8
0
 10
-10.9351
 20
80.9351
 11
-10.7483
 21
81.163
  0
LINE
  8
0
 10
-10.7483
 20
81.163
 11
-10.6091
 21
81.4235
  0
LINE
  8
0
 10
-10.6091
 20
81.4235
 11
-10.5235
 21
81.7068
  0
LINE
  8
0
 10
-10.5235
 20
81.7068
 11
-10.4938
 21
81.9994
  0
LINE
  8
0
 10
-10.4938
 20
81.9994
 11
-10.4938
 21
84.9936
  0
LINE
  8
0
 10
-10.4938
 20
84.9936
 11
-1.5065
 21
84.9936
  0
LINE
  8
0
 10
-1.5065
 20
84.9936
 11
-1.5065
 21
83.5022
  0
LINE
  8
0
 10
-1.5065
 20
83.5022
 11
-1.51474
 21
83.4935
  0
LINE
  8
0
 10
-1.51474
 20
83.4935
 11
-1.5065
 21
83.4935
  0
LINE
  8
0
 10
-1.5065
 20
83.4935
 11
-1.5065
 21
83.4853
  0
LINE
  8
0
 10
-1.5065
 20
83.4853
 11
-1.4978
 21
83.4935
  0
LINE
  8
0
 10
-1.4978
 20
83.4935
 11
-0.00640869
 21
83.4935
  0
LINE
  8
0
 10
-0.00640869
 20
83.4935
 11
-0.00640869
 21
74.5062
  0
LINE
  8
0
 10
-0.00640869
 20
74.5062
 11
-2.99973
 21
74.5062
  0
LINE
  8
0
 10
-2.99973
 20
74.5062
 11
-3.29315
 21
74.4774
  0
LINE
  8
0
 10
-3.29315
 20
74.4774
 11
-3.57651
 21
74.3909
  0
LINE
  8
0
 10
-3.57651
 20
74.3909
 11
-3.83698
 21
74.2517
  0
LINE
  8
0
 10
-3.83698
 20
74.2517
 11
-4.06494
 21
74.0649
  0
LINE
  8
0
 10
-4.06494
 20
74.0649
 11
-4.25171
 21
73.837
  0
LINE
  8
0
 10
-4.25171
 20
73.837
 11
-4.39087
 21
73.5765
  0
LINE
  8
0
 10
-4.39087
 20
73.5765
 11
-4.47647
 21
73.2932
  0
LINE
  8
0
 10
-4.47647
 20
73.2932
 11
-4.50623
 21
73.0006
  0
LINE
  8
0
 10
-4.50623
 20
73.0006
 11
-4.50623
 21
71.506
  0
LINE
  8
0
 10
-4.50623
 20
71.506
 11
-5.9935
 21
71.506
  0
LINE
  8
0
 10
24.0065
 20
71.506
 11
24.0065
 21
74.4998
  0
LINE
  8
0
 10
24.0065
 20
74.4998
 11
24.0353
 21
74.7923
  0
LINE
  8
0
 10
24.0353
 20
74.7923
 11
24.12
 21
75.0711
  0
LINE
  8
0
 10
24.12
 20
75.0711
 11
24.2583
 21
75.3297
  0
LINE
  8
0
 10
24.2583
 20
75.3297
 11
24.4437
 21
75.5563
  0
LINE
  8
0
 10
24.4437
 20
75.5563
 11
24.6703
 21
75.7417
  0
LINE
  8
0
 10
24.6703
 20
75.7417
 11
24.9289
 21
75.88
  0
LINE
  8
0
 10
24.9289
 20
75.88
 11
25.2086
 21
75.9647
  0
LINE
  8
0
 10
25.2086
 20
75.9647
 11
25.5011
 21
75.9935
  0
LINE
  8
0
 10
25.5011
 20
75.9935
 11
28.5068
 21
75.9944
  0
LINE
  8
0
 10
28.5068
 20
75.9944
 11
28.5068
 21
82.0062
  0
LINE
  8
0
 10
28.5068
 20
82.0062
 11
27.0067
 21
82.0067
  0
LINE
  8
0
 10
27.0067
 20
82.0067
 11
27.0062
 21
83.5068
  0
LINE
  8
0
 10
27.0062
 20
83.5068
 11
20.9935
 21
83.5068
  0
LINE
  8
0
 10
20.9935
 20
83.5068
 11
20.9935
 21
80.5002
  0
LINE
  8
0
 10
20.9935
 20
80.5002
 11
20.9647
 21
80.2077
  0
LINE
  8
0
 10
20.9647
 20
80.2077
 11
20.88
 21
79.9289
  0
LINE
  8
0
 10
20.88
 20
79.9289
 11
20.7413
 21
79.6698
  0
LINE
  8
0
 10
20.7413
 20
79.6698
 11
20.5559
 21
79.4432
  0
LINE
  8
0
 10
20.5559
 20
79.4432
 11
20.3297
 21
79.2583
  0
LINE
  8
0
 10
20.3297
 20
79.2583
 11
20.0711
 21
79.12
  0
LINE
  8
0
 10
20.0711
 20
79.12
 11
19.7914
 21
79.0353
  0
LINE
  8
0
 10
19.7914
 20
79.0353
 11
19.4989
 21
79.0065
  0
LINE
  8
0
 10
19.4989
 20
79.0065
 11
16.506
 21
79.0065
  0
LINE
  8
0
 10
16.506
 20
79.0065
 11
16.506
 21
80.4938
  0
LINE
  8
0
 10
16.506
 20
80.4938
 11
17.9997
 21
80.4938
  0
LINE
  8
0
 10
17.9997
 20
80.4938
 11
18.2932
 21
80.5226
  0
LINE
  8
0
 10
18.2932
 20
80.5226
 11
18.5765
 21
80.6091
  0
LINE
  8
0
 10
18.5765
 20
80.6091
 11
18.837
 21
80.7483
  0
LINE
  8
0
 10
18.837
 20
80.7483
 11
19.0649
 21
80.9351
  0
LINE
  8
0
 10
19.0649
 20
80.9351
 11
19.2517
 21
81.163
  0
LINE
  8
0
 10
19.2517
 20
81.163
 11
19.3909
 21
81.4235
  0
LINE
  8
0
 10
19.3909
 20
81.4235
 11
19.4765
 21
81.7068
  0
LINE
  8
0
 10
19.4765
 20
81.7068
 11
19.5062
 21
81.9994
  0
LINE
  8
0
 10
19.5062
 20
81.9994
 11
19.5062
 21
84.9936
  0
LINE
  8
0
 10
19.5062
 20
84.9936
 11
28.4935
 21
84.9936
  0
LINE
  8
0
 10
28.4935
 20
84.9936
 11
28.4935
 21
83.5022
  0
LINE
  8
0
 10
28.4935
 20
83.5022
 11
28.4853
 21
83.4935
  0
LINE
  8
0
 10
28.4853
 20
83.4935
 11
28.4935
 21
83.4935
  0
LINE
  8
0
 10
28.4935
 20
83.4935
 11
28.4935
 21
83.4853
  0
LINE
  8
0
 10
28.4935
 20
83.4853
 11
28.5022
 21
83.4935
  0
LINE
  8
0
 10
28.5022
 20
83.4935
 11
29.9936
 21
83.4935
  0
LINE
  8
0
 10
29.9936
 20
83.4935
 11
29.9936
 21
74.5062
  0
LINE
  8
0
 10
29.9936
 20
74.5062
 11
27.0003
 21
74.5062
  0
LINE
  8
0
 10
27.0003
 20
74.5062
 11
26.7068
 21
74.4774
  0
LINE
  8
0
 10
26.7068
 20
74.4774
 11
26.4235
 21
74.3909
  0
LINE
  8
0
 10
26.4235
 20
74.3909
 11
26.163
 21
74.2517
  0
LINE
  8
0
 10
26.163
 20
74.2517
 11
25.9351
 21
74.0649
  0
LINE
  8
0
 10
25.9351
 20
74.0649
 11
25.7483
 21
73.837
  0
LINE
  8
0
 10
25.7483
 20
73.837
 11
25.6091
 21
73.5765
  0
LINE
  8
0
 10
25.6091
 20
73.5765
 11
25.5235
 21
73.2932
  0
LINE
  8
0
 10
25.5235
 20
73.2932
 11
25.4938
 21
73.0006
  0
LINE
  8
0
 10
25.4938
 20
73.0006
 11
25.4938
 21
71.506
  0
LINE
  8
0
 10
25.4938
 20
71.506
 11
24.0065
 21
71.506
  0
LINE
  8
0
 10
-35.9935
 20
71.506
 11
-35.9935
 21
74.4998
  0
LINE
  8
0
 10
-35.9935
 20
74.4998
 11
-35.9647
 21
74.7923
  0
LINE
  8
0
 10
-35.9647
 20
74.7923
 11
-35.88
 21
75.0711
  0
LINE
  8
0
 10
-35.88
 20
75.0711
 11
-35.7417
 21
75.3297
  0
LINE
  8
0
 10
-35.7417
 20
75.3297
 11
-35.5563
 21
75.5563
  0
LINE
  8
0
 10
-35.5563
 20
75.5563
 11
-35.3297
 21
75.7417
  0
LINE
  8
0
 10
-35.3297
 20
75.7417
 11
-35.0711
 21
75.88
  0
LINE
  8
0
 10
-35.0711
 20
75.88
 11
-34.7914
 21
75.9647
  0
LINE
  8
0
 10
-34.7914
 20
75.9647
 11
-34.4989
 21
75.9935
  0
LINE
  8
0
 10
-34.4989
 20
75.9935
 11
-31.4932
 21
75.9944
  0
LINE
  8
0
 10
-31.4932
 20
75.9944
 11
-31.4932
 21
82.0062
  0
LINE
  8
0
 10
-31.4932
 20
82.0062
 11
-32.9933
 21
82.0067
  0
LINE
  8
0
 10
-32.9933
 20
82.0067
 11
-32.9938
 21
83.5068
  0
LINE
  8
0
 10
-32.9938
 20
83.5068
 11
-35.2495
 21
83.5068
  0
LINE
  8
0
 10
-35.2495
 20
83.5068
 11
-34.7664
 21
84.9936
  0
LINE
  8
0
 10
-34.7664
 20
84.9936
 11
-31.5065
 21
84.9936
  0
LINE
  8
0
 10
-31.5065
 20
84.9936
 11
-31.5065
 21
83.5022
  0
LINE
  8
0
 10
-31.5065
 20
83.5022
 11
-31.5147
 21
83.4935
  0
LINE
  8
0
 10
-31.5147
 20
83.4935
 11
-31.5065
 21
83.4935
  0
LINE
  8
0
 10
-31.5065
 20
83.4935
 11
-31.5065
 21
83.4853
  0
LINE
  8
0
 10
-31.5065
 20
83.4853
 11
-31.4978
 21
83.4935
  0
LINE
  8
0
 10
-31.4978
 20
83.4935
 11
-30.0064
 21
83.4935
  0
LINE
  8
0
 10
-30.0064
 20
83.4935
 11
-30.0064
 21
74.5062
  0
LINE
  8
0
 10
-30.0064
 20
74.5062
 11
-32.9997
 21
74.5062
  0
LINE
  8
0
 10
-32.9997
 20
74.5062
 11
-33.2932
 21
74.4774
  0
LINE
  8
0
 10
-33.2932
 20
74.4774
 11
-33.5765
 21
74.3909
  0
LINE
  8
0
 10
-33.5765
 20
74.3909
 11
-33.837
 21
74.2517
  0
LINE
  8
0
 10
-33.837
 20
74.2517
 11
-34.0649
 21
74.0649
  0
LINE
  8
0
 10
-34.0649
 20
74.0649
 11
-34.2517
 21
73.837
  0
LINE
  8
0
 10
-34.2517
 20
73.837
 11
-34.3909
 21
73.5765
  0
LINE
  8
0
 10
-34.3909
 20
73.5765
 11
-34.4765
 21
73.2932
  0
LINE
  8
0
 10
-34.4765
 20
73.2932
 11
-34.5062
 21
73.0006
  0
LINE
  8
0
 10
-34.5062
 20
73.0006
 11
-34.5062
 21
71.506
  0
LINE
  8
0
 10
-34.5062
 20
71.506
 11
-35.9935
 21
71.506
  0
LINE
  8
0
 10
4.50623
 20
70.0064
 11
4.50623
 21
72.9997
  0
LINE
  8
0
 10
4.50623
 20
72.9997
 11
4.47739
 21
73.2932
  0
LINE
  8
0
 10
4.47739
 20
73.2932
 11
4.39087
 21
73.5765
  0
LINE
  8
0
 10
4.39087
 20
73.5765
 11
4.25171
 21
73.837
  0
LINE
  8
0
 10
4.25171
 20
73.837
 11
4.06494
 21
74.0649
  0
LINE
  8
0
 10
4.06494
 20
74.0649
 11
3.83698
 21
74.2517
  0
LINE
  8
0
 10
3.83698
 20
74.2517
 11
3.57651
 21
74.3909
  0
LINE
  8
0
 10
3.57651
 20
74.3909
 11
3.29315
 21
74.4765
  0
LINE
  8
0
 10
3.29315
 20
74.4765
 11
3.00064
 21
74.5062
  0
LINE
  8
0
 10
3.00064
 20
74.5062
 11
1.50604
 21
74.5062
  0
LINE
  8
0
 10
1.50604
 20
74.5062
 11
1.50604
 21
75.9935
  0
LINE
  8
0
 10
1.50604
 20
75.9935
 11
4.49982
 21
75.9935
  0
LINE
  8
0
 10
4.49982
 20
75.9935
 11
4.79233
 21
75.9647
  0
LINE
  8
0
 10
4.79233
 20
75.9647
 11
5.07111
 21
75.88
  0
LINE
  8
0
 10
5.07111
 20
75.88
 11
5.3302
 21
75.7413
  0
LINE
  8
0
 10
5.3302
 20
75.7413
 11
5.55679
 21
75.5559
  0
LINE
  8
0
 10
5.55679
 20
75.5559
 11
5.74219
 21
75.3293
  0
LINE
  8
0
 10
5.74219
 20
75.3293
 11
5.87997
 21
75.0711
  0
LINE
  8
0
 10
5.87997
 20
75.0711
 11
5.96466
 21
74.7914
  0
LINE
  8
0
 10
5.96466
 20
74.7914
 11
5.9935
 21
74.4989
  0
LINE
  8
0
 10
5.9935
 20
74.4989
 11
5.99442
 21
71.4932
  0
LINE
  8
0
 10
5.99442
 20
71.4932
 11
12.0062
 21
71.4932
  0
LINE
  8
0
 10
12.0062
 20
71.4932
 11
12.0067
 21
72.9933
  0
LINE
  8
0
 10
12.0067
 20
72.9933
 11
13.5068
 21
72.9938
  0
LINE
  8
0
 10
13.5068
 20
72.9938
 11
13.5068
 21
79.0065
  0
LINE
  8
0
 10
13.5068
 20
79.0065
 11
10.5002
 21
79.0065
  0
LINE
  8
0
 10
10.5002
 20
79.0065
 11
10.2077
 21
79.0353
  0
LINE
  8
0
 10
10.2077
 20
79.0353
 11
9.92889
 21
79.12
  0
LINE
  8
0
 10
9.92889
 20
79.12
 11
9.6698
 21
79.2587
  0
LINE
  8
0
 10
9.6698
 20
79.2587
 11
9.44321
 21
79.4441
  0
LINE
  8
0
 10
9.44321
 20
79.4441
 11
9.25781
 21
79.6707
  0
LINE
  8
0
 10
9.25781
 20
79.6707
 11
9.12003
 21
79.9289
  0
LINE
  8
0
 10
9.12003
 20
79.9289
 11
9.03534
 21
80.2086
  0
LINE
  8
0
 10
9.03534
 20
80.2086
 11
9.0065
 21
80.5011
  0
LINE
  8
0
 10
9.0065
 20
80.5011
 11
9.0065
 21
83.494
  0
LINE
  8
0
 10
9.0065
 20
83.494
 11
10.4938
 21
83.494
  0
LINE
  8
0
 10
10.4938
 20
83.494
 11
10.4938
 21
82.0003
  0
LINE
  8
0
 10
10.4938
 20
82.0003
 11
10.5226
 21
81.7068
  0
LINE
  8
0
 10
10.5226
 20
81.7068
 11
10.6091
 21
81.4235
  0
LINE
  8
0
 10
10.6091
 20
81.4235
 11
10.7483
 21
81.163
  0
LINE
  8
0
 10
10.7483
 20
81.163
 11
10.9351
 21
80.9351
  0
LINE
  8
0
 10
10.9351
 20
80.9351
 11
11.163
 21
80.7483
  0
LINE
  8
0
 10
11.163
 20
80.7483
 11
11.4235
 21
80.6091
  0
LINE
  8
0
 10
11.4235
 20
80.6091
 11
11.7068
 21
80.5235
  0
LINE
  8
0
 10
11.7068
 20
80.5235
 11
11.9994
 21
80.4938
  0
LINE
  8
0
 10
11.9994
 20
80.4938
 11
14.9936
 21
80.4938
  0
LINE
  8
0
 10
14.9936
 20
80.4938
 11
14.9936
 21
71.5065
  0
LINE
  8
0
 10
14.9936
 20
71.5065
 11
13.5022
 21
71.5065
  0
LINE
  8
0
 10
13.5022
 20
71.5065
 11
13.4935
 21
71.5147
  0
LINE
  8
0
 10
13.4935
 20
71.5147
 11
13.4935
 21
71.5065
  0
LINE
  8
0
 10
13.4935
 20
71.5065
 11
13.4853
 21
71.5065
  0
LINE
  8
0
 10
13.4853
 20
71.5065
 11
13.4935
 21
71.4978
  0
LINE
  8
0
 10
13.4935
 20
71.4978
 11
13.4935
 21
70.0064
  0
LINE
  8
0
 10
13.4935
 20
70.0064
 11
4.50623
 21
70.0064
  0
LINE
  8
0
 10
-25.4938
 20
70.0064
 11
-25.4938
 21
72.9997
  0
LINE
  8
0
 10
-25.4938
 20
72.9997
 11
-25.5226
 21
73.2932
  0
LINE
  8
0
 10
-25.5226
 20
73.2932
 11
-25.6091
 21
73.5765
  0
LINE
  8
0
 10
-25.6091
 20
73.5765
 11
-25.7483
 21
73.837
  0
LINE
  8
0
 10
-25.7483
 20
73.837
 11
-25.9351
 21
74.0649
  0
LINE
  8
0
 10
-25.9351
 20
74.0649
 11
-26.163
 21
74.2517
  0
LINE
  8
0
 10
-26.163
 20
74.2517
 11
-26.4235
 21
74.3909
  0
LINE
  8
0
 10
-26.4235
 20
74.3909
 11
-26.7068
 21
74.4765
  0
LINE
  8
0
 10
-26.7068
 20
74.4765
 11
-26.9994
 21
74.5062
  0
LINE
  8
0
 10
-26.9994
 20
74.5062
 11
-28.494
 21
74.5062
  0
LINE
  8
0
 10
-28.494
 20
74.5062
 11
-28.494
 21
75.9935
  0
LINE
  8
0
 10
-28.494
 20
75.9935
 11
-25.5002
 21
75.9935
  0
LINE
  8
0
 10
-25.5002
 20
75.9935
 11
-25.2077
 21
75.9647
  0
LINE
  8
0
 10
-25.2077
 20
75.9647
 11
-24.9289
 21
75.88
  0
LINE
  8
0
 10
-24.9289
 20
75.88
 11
-24.6698
 21
75.7413
  0
LINE
  8
0
 10
-24.6698
 20
75.7413
 11
-24.4432
 21
75.5559
  0
LINE
  8
0
 10
-24.4432
 20
75.5559
 11
-24.2578
 21
75.3293
  0
LINE
  8
0
 10
-24.2578
 20
75.3293
 11
-24.12
 21
75.0711
  0
LINE
  8
0
 10
-24.12
 20
75.0711
 11
-24.0353
 21
74.7914
  0
LINE
  8
0
 10
-24.0353
 20
74.7914
 11
-24.0065
 21
74.4989
  0
LINE
  8
0
 10
-24.0065
 20
74.4989
 11
-24.0056
 21
71.4932
  0
LINE
  8
0
 10
-24.0056
 20
71.4932
 11
-17.9938
 21
71.4932
  0
LINE
  8
0
 10
-17.9938
 20
71.4932
 11
-17.9933
 21
72.9933
  0
LINE
  8
0
 10
-17.9933
 20
72.9933
 11
-16.4932
 21
72.9938
  0
LINE
  8
0
 10
-16.4932
 20
72.9938
 11
-16.4932
 21
79.0065
  0
LINE
  8
0
 10
-16.4932
 20
79.0065
 11
-19.4998
 21
79.0065
  0
LINE
  8
0
 10
-19.4998
 20
79.0065
 11
-19.7923
 21
79.0353
  0
LINE
  8
0
 10
-19.7923
 20
79.0353
 11
-20.0711
 21
79.12
  0
LINE
  8
0
 10
-20.0711
 20
79.12
 11
-20.3302
 21
79.2587
  0
LINE
  8
0
 10
-20.3302
 20
79.2587
 11
-20.5568
 21
79.4441
  0
LINE
  8
0
 10
-20.5568
 20
79.4441
 11
-20.7422
 21
79.6707
  0
LINE
  8
0
 10
-20.7422
 20
79.6707
 11
-20.88
 21
79.9289
  0
LINE
  8
0
 10
-20.88
 20
79.9289
 11
-20.9647
 21
80.2086
  0
LINE
  8
0
 10
-20.9647
 20
80.2086
 11
-20.9935
 21
80.5011
  0
LINE
  8
0
 10
-20.9935
 20
80.5011
 11
-20.9935
 21
83.494
  0
LINE
  8
0
 10
-20.9935
 20
83.494
 11
-19.5062
 21
83.494
  0
LINE
  8
0
 10
-19.5062
 20
83.494
 11
-19.5062
 21
82.0003
  0
LINE
  8
0
 10
-19.5062
 20
82.0003
 11
-19.4774
 21
81.7068
  0
LINE
  8
0
 10
-19.4774
 20
81.7068
 11
-19.3909
 21
81.4235
  0
LINE
  8
0
 10
-19.3909
 20
81.4235
 11
-19.2517
 21
81.163
  0
LINE
  8
0
 10
-19.2517
 20
81.163
 11
-19.0649
 21
80.9351
  0
LINE
  8
0
 10
-19.0649
 20
80.9351
 11
-18.837
 21
80.7483
  0
LINE
  8
0
 10
-18.837
 20
80.7483
 11
-18.5765
 21
80.6091
  0
LINE
  8
0
 10
-18.5765
 20
80.6091
 11
-18.2932
 21
80.5235
  0
LINE
  8
0
 10
-18.2932
 20
80.5235
 11
-18.0006
 21
80.4938
  0
LINE
  8
0
 10
-18.0006
 20
80.4938
 11
-15.0064
 21
80.4938
  0
LINE
  8
0
 10
-15.0064
 20
80.4938
 11
-15.0064
 21
71.5065
  0
LINE
  8
0
 10
-15.0064
 20
71.5065
 11
-16.4978
 21
71.5065
  0
LINE
  8
0
 10
-16.4978
 20
71.5065
 11
-16.5065
 21
71.5147
  0
LINE
  8
0
 10
-16.5065
 20
71.5147
 11
-16.5065
 21
71.5065
  0
LINE
  8
0
 10
-16.5065
 20
71.5065
 11
-16.5147
 21
71.5065
  0
LINE
  8
0
 10
-16.5147
 20
71.5065
 11
-16.5065
 21
71.4978
  0
LINE
  8
0
 10
-16.5065
 20
71.4978
 11
-16.5065
 21
70.0064
  0
LINE
  8
0
 10
-16.5065
 20
70.0064
 11
-25.4938
 21
70.0064
  0
LINE
  8
0
 10
34.5062
 20
70.0064
 11
34.5062
 21
72.9997
  0
LINE
  8
0
 10
34.5062
 20
72.9997
 11
34.4774
 21
73.2932
  0
LINE
  8
0
 10
34.4774
 20
73.2932
 11
34.3909
 21
73.5765
  0
LINE
  8
0
 10
34.3909
 20
73.5765
 11
34.2517
 21
73.837
  0
LINE
  8
0
 10
34.2517
 20
73.837
 11
34.0649
 21
74.0649
  0
LINE
  8
0
 10
34.0649
 20
74.0649
 11
33.837
 21
74.2517
  0
LINE
  8
0
 10
33.837
 20
74.2517
 11
33.5765
 21
74.3909
  0
LINE
  8
0
 10
33.5765
 20
74.3909
 11
33.2932
 21
74.4765
  0
LINE
  8
0
 10
33.2932
 20
74.4765
 11
33.0006
 21
74.5062
  0
LINE
  8
0
 10
33.0006
 20
74.5062
 11
31.506
 21
74.5062
  0
LINE
  8
0
 10
31.506
 20
74.5062
 11
31.506
 21
75.9935
  0
LINE
  8
0
 10
31.506
 20
75.9935
 11
34.4998
 21
75.9935
  0
LINE
  8
0
 10
34.4998
 20
75.9935
 11
34.7923
 21
75.9647
  0
LINE
  8
0
 10
34.7923
 20
75.9647
 11
35.0711
 21
75.88
  0
LINE
  8
0
 10
35.0711
 20
75.88
 11
35.3302
 21
75.7413
  0
LINE
  8
0
 10
35.3302
 20
75.7413
 11
35.5568
 21
75.5559
  0
LINE
  8
0
 10
35.5568
 20
75.5559
 11
35.7422
 21
75.3293
  0
LINE
  8
0
 10
35.7422
 20
75.3293
 11
35.88
 21
75.0711
  0
LINE
  8
0
 10
35.88
 20
75.0711
 11
35.9647
 21
74.7914
  0
LINE
  8
0
 10
35.9647
 20
74.7914
 11
35.9935
 21
74.4989
  0
LINE
  8
0
 10
35.9935
 20
74.4989
 11
35.9944
 21
71.4932
  0
LINE
  8
0
 10
35.9944
 20
71.4932
 11
39.1529
 21
71.4932
  0
LINE
  8
0
 10
39.1529
 20
71.4932
 11
39.636
 21
70.0064
  0
LINE
  8
0
 10
39.636
 20
70.0064
 11
34.5062
 21
70.0064
  0
LINE
  8
0
 10
19.5062
 20
56.506
 11
19.5062
 21
57.9997
  0
LINE
  8
0
 10
19.5062
 20
57.9997
 11
19.4774
 21
58.2932
  0
LINE
  8
0
 10
19.4774
 20
58.2932
 11
19.3909
 21
58.5765
  0
LINE
  8
0
 10
19.3909
 20
58.5765
 11
19.2517
 21
58.837
  0
LINE
  8
0
 10
19.2517
 20
58.837
 11
19.0649
 21
59.0649
  0
LINE
  8
0
 10
19.0649
 20
59.0649
 11
18.837
 21
59.2517
  0
LINE
  8
0
 10
18.837
 20
59.2517
 11
18.5765
 21
59.3909
  0
LINE
  8
0
 10
18.5765
 20
59.3909
 11
18.2932
 21
59.4765
  0
LINE
  8
0
 10
18.2932
 20
59.4765
 11
18.0006
 21
59.5062
  0
LINE
  8
0
 10
18.0006
 20
59.5062
 11
15.0064
 21
59.5062
  0
LINE
  8
0
 10
15.0064
 20
59.5062
 11
15.0064
 21
68.4935
  0
LINE
  8
0
 10
15.0064
 20
68.4935
 11
16.4978
 21
68.4935
  0
LINE
  8
0
 10
16.4978
 20
68.4935
 11
16.5065
 21
68.4853
  0
LINE
  8
0
 10
16.5065
 20
68.4853
 11
16.5065
 21
68.4935
  0
LINE
  8
0
 10
16.5065
 20
68.4935
 11
16.5147
 21
68.4935
  0
LINE
  8
0
 10
16.5147
 20
68.4935
 11
16.5065
 21
68.5022
  0
LINE
  8
0
 10
16.5065
 20
68.5022
 11
16.5065
 21
69.9936
  0
LINE
  8
0
 10
16.5065
 20
69.9936
 11
25.4938
 21
69.9936
  0
LINE
  8
0
 10
25.4938
 20
69.9936
 11
25.4938
 21
67.0003
  0
LINE
  8
0
 10
25.4938
 20
67.0003
 11
25.5226
 21
66.7068
  0
LINE
  8
0
 10
25.5226
 20
66.7068
 11
25.6091
 21
66.4235
  0
LINE
  8
0
 10
25.6091
 20
66.4235
 11
25.7483
 21
66.163
  0
LINE
  8
0
 10
25.7483
 20
66.163
 11
25.9351
 21
65.9351
  0
LINE
  8
0
 10
25.9351
 20
65.9351
 11
26.163
 21
65.7483
  0
LINE
  8
0
 10
26.163
 20
65.7483
 11
26.4235
 21
65.6091
  0
LINE
  8
0
 10
26.4235
 20
65.6091
 11
26.7068
 21
65.5235
  0
LINE
  8
0
 10
26.7068
 20
65.5235
 11
26.9994
 21
65.4938
  0
LINE
  8
0
 10
26.9994
 20
65.4938
 11
28.494
 21
65.4938
  0
LINE
  8
0
 10
28.494
 20
65.4938
 11
28.494
 21
64.0065
  0
LINE
  8
0
 10
28.494
 20
64.0065
 11
25.5002
 21
64.0065
  0
LINE
  8
0
 10
25.5002
 20
64.0065
 11
25.2077
 21
64.0353
  0
LINE
  8
0
 10
25.2077
 20
64.0353
 11
24.9289
 21
64.12
  0
LINE
  8
0
 10
24.9289
 20
64.12
 11
24.6698
 21
64.2587
  0
LINE
  8
0
 10
24.6698
 20
64.2587
 11
24.4432
 21
64.4441
  0
LINE
  8
0
 10
24.4432
 20
64.4441
 11
24.2578
 21
64.6707
  0
LINE
  8
0
 10
24.2578
 20
64.6707
 11
24.12
 21
64.9289
  0
LINE
  8
0
 10
24.12
 20
64.9289
 11
24.0353
 21
65.2086
  0
LINE
  8
0
 10
24.0353
 20
65.2086
 11
24.0065
 21
65.5011
  0
LINE
  8
0
 10
24.0065
 20
65.5011
 11
24.0056
 21
68.5068
  0
LINE
  8
0
 10
24.0056
 20
68.5068
 11
17.9938
 21
68.5068
  0
LINE
  8
0
 10
17.9938
 20
68.5068
 11
17.9933
 21
67.0067
  0
LINE
  8
0
 10
17.9933
 20
67.0067
 11
16.4932
 21
67.0062
  0
LINE
  8
0
 10
16.4932
 20
67.0062
 11
16.4932
 21
60.9935
  0
LINE
  8
0
 10
16.4932
 20
60.9935
 11
19.4998
 21
60.9935
  0
LINE
  8
0
 10
19.4998
 20
60.9935
 11
19.7923
 21
60.9647
  0
LINE
  8
0
 10
19.7923
 20
60.9647
 11
20.0711
 21
60.88
  0
LINE
  8
0
 10
20.0711
 20
60.88
 11
20.3302
 21
60.7413
  0
LINE
  8
0
 10
20.3302
 20
60.7413
 11
20.5568
 21
60.5559
  0
LINE
  8
0
 10
20.5568
 20
60.5559
 11
20.7422
 21
60.3293
  0
LINE
  8
0
 10
20.7422
 20
60.3293
 11
20.88
 21
60.0711
  0
LINE
  8
0
 10
20.88
 20
60.0711
 11
20.9647
 21
59.7914
  0
LINE
  8
0
 10
20.9647
 20
59.7914
 11
20.9935
 21
59.4989
  0
LINE
  8
0
 10
20.9935
 20
59.4989
 11
20.9935
 21
56.506
  0
LINE
  8
0
 10
20.9935
 20
56.506
 11
19.5062
 21
56.506
  0
LINE
  8
0
 10
-10.4938
 20
56.506
 11
-10.4938
 21
57.9997
  0
LINE
  8
0
 10
-10.4938
 20
57.9997
 11
-10.5226
 21
58.2932
  0
LINE
  8
0
 10
-10.5226
 20
58.2932
 11
-10.6091
 21
58.5765
  0
LINE
  8
0
 10
-10.6091
 20
58.5765
 11
-10.7483
 21
58.837
  0
LINE
  8
0
 10
-10.7483
 20
58.837
 11
-10.9351
 21
59.0649
  0
LINE
  8
0
 10
-10.9351
 20
59.0649
 11
-11.163
 21
59.2517
  0
LINE
  8
0
 10
-11.163
 20
59.2517
 11
-11.4235
 21
59.3909
  0
LINE
  8
0
 10
-11.4235
 20
59.3909
 11
-11.7068
 21
59.4765
  0
LINE
  8
0
 10
-11.7068
 20
59.4765
 11
-11.9994
 21
59.5062
  0
LINE
  8
0
 10
-11.9994
 20
59.5062
 11
-14.9936
 21
59.5062
  0
LINE
  8
0
 10
-14.9936
 20
59.5062
 11
-14.9936
 21
68.4935
  0
LINE
  8
0
 10
-14.9936
 20
68.4935
 11
-13.5022
 21
68.4935
  0
LINE
  8
0
 10
-13.5022
 20
68.4935
 11
-13.4935
 21
68.4853
  0
LINE
  8
0
 10
-13.4935
 20
68.4853
 11
-13.4935
 21
68.4935
  0
LINE
  8
0
 10
-13.4935
 20
68.4935
 11
-13.4853
 21
68.4935
  0
LINE
  8
0
 10
-13.4853
 20
68.4935
 11
-13.4935
 21
68.5022
  0
LINE
  8
0
 10
-13.4935
 20
68.5022
 11
-13.4935
 21
69.9936
  0
LINE
  8
0
 10
-13.4935
 20
69.9936
 11
-4.50623
 21
69.9936
  0
LINE
  8
0
 10
-4.50623
 20
69.9936
 11
-4.50623
 21
67.0003
  0
LINE
  8
0
 10
-4.50623
 20
67.0003
 11
-4.47739
 21
66.7068
  0
LINE
  8
0
 10
-4.47739
 20
66.7068
 11
-4.39087
 21
66.4235
  0
LINE
  8
0
 10
-4.39087
 20
66.4235
 11
-4.25171
 21
66.163
  0
LINE
  8
0
 10
-4.25171
 20
66.163
 11
-4.06494
 21
65.9351
  0
LINE
  8
0
 10
-4.06494
 20
65.9351
 11
-3.83698
 21
65.7483
  0
LINE
  8
0
 10
-3.83698
 20
65.7483
 11
-3.57651
 21
65.6091
  0
LINE
  8
0
 10
-3.57651
 20
65.6091
 11
-3.29315
 21
65.5235
  0
LINE
  8
0
 10
-3.29315
 20
65.5235
 11
-3.00064
 21
65.4938
  0
LINE
  8
0
 10
-3.00064
 20
65.4938
 11
-1.50604
 21
65.4938
  0
LINE
  8
0
 10
-1.50604
 20
65.4938
 11
-1.50604
 21
64.0065
  0
LINE
  8
0
 10
-1.50604
 20
64.0065
 11
-4.49982
 21
64.0065
  0
LINE
  8
0
 10
-4.49982
 20
64.0065
 11
-4.79233
 21
64.0353
  0
LINE
  8
0
 10
-4.79233
 20
64.0353
 11
-5.07111
 21
64.12
  0
LINE
  8
0
 10
-5.07111
 20
64.12
 11
-5.3302
 21
64.2587
  0
LINE
  8
0
 10
-5.3302
 20
64.2587
 11
-5.55679
 21
64.4441
  0
LINE
  8
0
 10
-5.55679
 20
64.4441
 11
-5.74219
 21
64.6707
  0
LINE
  8
0
 10
-5.74219
 20
64.6707
 11
-5.87997
 21
64.9289
  0
LINE
  8
0
 10
-5.87997
 20
64.9289
 11
-5.96466
 21
65.2086
  0
LINE
  8
0
 10
-5.96466
 20
65.2086
 11
-5.9935
 21
65.5011
  0
LINE
  8
0
 10
-5.9935
 20
65.5011
 11
-5.99442
 21
68.5068
  0
LINE
  8
0
 10
-5.99442
 20
68.5068
 11
-12.0062
 21
68.5068
  0
LINE
  8
0
 10
-12.0062
 20
68.5068
 11
-12.0067
 21
67.0067
  0
LINE
  8
0
 10
-12.0067
 20
67.0067
 11
-13.5068
 21
67.0062
  0
LINE
  8
0
 10
-13.5068
 20
67.0062
 11
-13.5068
 21
60.9935
  0
LINE
  8
0
 10
-13.5068
 20
60.9935
 11
-10.5002
 21
60.9935
  0
LINE
  8
0
 10
-10.5002
 20
60.9935
 11
-10.2077
 21
60.9647
  0
LINE
  8
0
 10
-10.2077
 20
60.9647
 11
-9.92889
 21
60.88
  0
LINE
  8
0
 10
-9.92889
 20
60.88
 11
-9.6698
 21
60.7413
  0
LINE
  8
0
 10
-9.6698
 20
60.7413
 11
-9.44321
 21
60.5559
  0
LINE
  8
0
 10
-9.44321
 20
60.5559
 11
-9.25781
 21
60.3293
  0
LINE
  8
0
 10
-9.25781
 20
60.3293
 11
-9.12003
 21
60.0711
  0
LINE
  8
0
 10
-9.12003
 20
60.0711
 11
-9.03534
 21
59.7914
  0
LINE
  8
0
 10
-9.03534
 20
59.7914
 11
-9.0065
 21
59.4989
  0
LINE
  8
0
 10
-9.0065
 20
59.4989
 11
-9.0065
 21
56.506
  0
LINE
  8
0
 10
-9.0065
 20
56.506
 11
-10.4938
 21
56.506
  0
LINE
  8
0
 10
-34.4998
 20
64.0065
 11
-34.7923
 21
64.0353
  0
LINE
  8
0
 10
-34.7923
 20
64.0353
 11
-35.0711
 21
64.12
  0
LINE
  8
0
 10
-35.0711
 20
64.12
 11
-35.3302
 21
64.2587
  0
LINE
  8
0
 10
-35.3302
 20
64.2587
 11
-35.5568
 21
64.4441
  0
LINE
  8
0
 10
-35.5568
 20
64.4441
 11
-35.7422
 21
64.6707
  0
LINE
  8
0
 10
-35.7422
 20
64.6707
 11
-35.88
 21
64.9289
  0
LINE
  8
0
 10
-35.88
 20
64.9289
 11
-35.9647
 21
65.2086
  0
LINE
  8
0
 10
-35.9647
 20
65.2086
 11
-35.9935
 21
65.5011
  0
LINE
  8
0
 10
-35.9935
 20
65.5011
 11
-35.9944
 21
68.5068
  0
LINE
  8
0
 10
-35.9944
 20
68.5068
 11
-40.1232
 21
68.5068
  0
LINE
  8
0
 10
-40.1232
 20
68.5068
 11
-39.6402
 21
69.9936
  0
LINE
  8
0
 10
-39.6402
 20
69.9936
 11
-34.5062
 21
69.9936
  0
LINE
  8
0
 10
-34.5062
 20
69.9936
 11
-34.5062
 21
67.0003
  0
LINE
  8
0
 10
-34.5062
 20
67.0003
 11
-34.4774
 21
66.7068
  0
LINE
  8
0
 10
-34.4774
 20
66.7068
 11
-34.3909
 21
66.4235
  0
LINE
  8
0
 10
-34.3909
 20
66.4235
 11
-34.2517
 21
66.163
  0
LINE
  8
0
 10
-34.2517
 20
66.163
 11
-34.0649
 21
65.9351
  0
LINE
  8
0
 10
-34.0649
 20
65.9351
 11
-33.837
 21
65.7483
  0
LINE
  8
0
 10
-33.837
 20
65.7483
 11
-33.5765
 21
65.6091
  0
LINE
  8
0
 10
-33.5765
 20
65.6091
 11
-33.2932
 21
65.5235
  0
LINE
  8
0
 10
-33.2932
 20
65.5235
 11
-33.0006
 21
65.4938
  0
LINE
  8
0
 10
-33.0006
 20
65.4938
 11
-31.506
 21
65.4938
  0
LINE
  8
0
 10
-31.506
 20
65.4938
 11
-31.506
 21
64.0065
  0
LINE
  8
0
 10
-31.506
 20
64.0065
 11
-34.4998
 21
64.0065
  0
LINE
  8
0
 10
31.5065
 20
55.0064
 11
31.5065
 21
56.4978
  0
LINE
  8
0
 10
31.5065
 20
56.4978
 11
31.5147
 21
56.5065
  0
LINE
  8
0
 10
31.5147
 20
56.5065
 11
31.5065
 21
56.5065
  0
LINE
  8
0
 10
31.5065
 20
56.5065
 11
31.5065
 21
56.5147
  0
LINE
  8
0
 10
31.5065
 20
56.5147
 11
31.4978
 21
56.5065
  0
LINE
  8
0
 10
31.4978
 20
56.5065
 11
30.0064
 21
56.5065
  0
LINE
  8
0
 10
30.0064
 20
56.5065
 11
30.0064
 21
65.4938
  0
LINE
  8
0
 10
30.0064
 20
65.4938
 11
32.9997
 21
65.4938
  0
LINE
  8
0
 10
32.9997
 20
65.4938
 11
33.2932
 21
65.5226
  0
LINE
  8
0
 10
33.2932
 20
65.5226
 11
33.5765
 21
65.6091
  0
LINE
  8
0
 10
33.5765
 20
65.6091
 11
33.837
 21
65.7483
  0
LINE
  8
0
 10
33.837
 20
65.7483
 11
34.0649
 21
65.9351
  0
LINE
  8
0
 10
34.0649
 20
65.9351
 11
34.2517
 21
66.163
  0
LINE
  8
0
 10
34.2517
 20
66.163
 11
34.3909
 21
66.4235
  0
LINE
  8
0
 10
34.3909
 20
66.4235
 11
34.4765
 21
66.7068
  0
LINE
  8
0
 10
34.4765
 20
66.7068
 11
34.5062
 21
66.9994
  0
LINE
  8
0
 10
34.5062
 20
66.9994
 11
34.5062
 21
68.494
  0
LINE
  8
0
 10
34.5062
 20
68.494
 11
35.9935
 21
68.494
  0
LINE
  8
0
 10
35.9935
 20
68.494
 11
35.9935
 21
65.5002
  0
LINE
  8
0
 10
35.9935
 20
65.5002
 11
35.9647
 21
65.2077
  0
LINE
  8
0
 10
35.9647
 20
65.2077
 11
35.88
 21
64.9289
  0
LINE
  8
0
 10
35.88
 20
64.9289
 11
35.7413
 21
64.6698
  0
LINE
  8
0
 10
35.7413
 20
64.6698
 11
35.5559
 21
64.4432
  0
LINE
  8
0
 10
35.5559
 20
64.4432
 11
35.3297
 21
64.2583
  0
LINE
  8
0
 10
35.3297
 20
64.2583
 11
35.0711
 21
64.12
  0
LINE
  8
0
 10
35.0711
 20
64.12
 11
34.7914
 21
64.0353
  0
LINE
  8
0
 10
34.7914
 20
64.0353
 11
34.4989
 21
64.0065
  0
LINE
  8
0
 10
34.4989
 20
64.0065
 11
31.4932
 21
64.0056
  0
LINE
  8
0
 10
31.4932
 20
64.0056
 11
31.4932
 21
57.9938
  0
LINE
  8
0
 10
31.4932
 20
57.9938
 11
32.9933
 21
57.9933
  0
LINE
  8
0
 10
32.9933
 20
57.9933
 11
32.9938
 21
56.4932
  0
LINE
  8
0
 10
32.9938
 20
56.4932
 11
39.0065
 21
56.4932
  0
LINE
  8
0
 10
39.0065
 20
56.4932
 11
39.0065
 21
59.4998
  0
LINE
  8
0
 10
39.0065
 20
59.4998
 11
39.0353
 21
59.7923
  0
LINE
  8
0
 10
39.0353
 20
59.7923
 11
39.12
 21
60.0711
  0
LINE
  8
0
 10
39.12
 20
60.0711
 11
39.2583
 21
60.3297
  0
LINE
  8
0
 10
39.2583
 20
60.3297
 11
39.4437
 21
60.5563
  0
LINE
  8
0
 10
39.4437
 20
60.5563
 11
39.6703
 21
60.7417
  0
LINE
  8
0
 10
39.6703
 20
60.7417
 11
39.9289
 21
60.88
  0
LINE
  8
0
 10
39.9289
 20
60.88
 11
40.2086
 21
60.9647
  0
LINE
  8
0
 10
40.2086
 20
60.9647
 11
40.5011
 21
60.9935
  0
LINE
  8
0
 10
40.5011
 20
60.9935
 11
42.5645
 21
60.9935
  0
LINE
  8
0
 10
42.5645
 20
60.9935
 11
43.0477
 21
59.5062
  0
LINE
  8
0
 10
43.0477
 20
59.5062
 11
42.0003
 21
59.5062
  0
LINE
  8
0
 10
42.0003
 20
59.5062
 11
41.7068
 21
59.4774
  0
LINE
  8
0
 10
41.7068
 20
59.4774
 11
41.4235
 21
59.3909
  0
LINE
  8
0
 10
41.4235
 20
59.3909
 11
41.163
 21
59.2517
  0
LINE
  8
0
 10
41.163
 20
59.2517
 11
40.9351
 21
59.0649
  0
LINE
  8
0
 10
40.9351
 20
59.0649
 11
40.7483
 21
58.837
  0
LINE
  8
0
 10
40.7483
 20
58.837
 11
40.6091
 21
58.5765
  0
LINE
  8
0
 10
40.6091
 20
58.5765
 11
40.5235
 21
58.2932
  0
LINE
  8
0
 10
40.5235
 20
58.2932
 11
40.4938
 21
58.0006
  0
LINE
  8
0
 10
40.4938
 20
58.0006
 11
40.4938
 21
55.0064
  0
LINE
  8
0
 10
40.4938
 20
55.0064
 11
31.5065
 21
55.0064
  0
LINE
  8
0
 10
-28.4935
 20
55.0064
 11
-28.4935
 21
56.4978
  0
LINE
  8
0
 10
-28.4935
 20
56.4978
 11
-28.4853
 21
56.5065
  0
LINE
  8
0
 10
-28.4853
 20
56.5065
 11
-28.4935
 21
56.5065
  0
LINE
  8
0
 10
-28.4935
 20
56.5065
 11
-28.4935
 21
56.5147
  0
LINE
  8
0
 10
-28.4935
 20
56.5147
 11
-28.5022
 21
56.5065
  0
LINE
  8
0
 10
-28.5022
 20
56.5065
 11
-29.9936
 21
56.5065
  0
LINE
  8
0
 10
-29.9936
 20
56.5065
 11
-29.9936
 21
65.4938
  0
LINE
  8
0
 10
-29.9936
 20
65.4938
 11
-27.0003
 21
65.4938
  0
LINE
  8
0
 10
-27.0003
 20
65.4938
 11
-26.7068
 21
65.5226
  0
LINE
  8
0
 10
-26.7068
 20
65.5226
 11
-26.4235
 21
65.6091
  0
LINE
  8
0
 10
-26.4235
 20
65.6091
 11
-26.163
 21
65.7483
  0
LINE
  8
0
 10
-26.163
 20
65.7483
 11
-25.9351
 21
65.9351
  0
LINE
  8
0
 10
-25.9351
 20
65.9351
 11
-25.7483
 21
66.163
  0
LINE
  8
0
 10
-25.7483
 20
66.163
 11
-25.6091
 21
66.4235
  0
LINE
  8
0
 10
-25.6091
 20
66.4235
 11
-25.5235
 21
66.7068
  0
LINE
  8
0
 10
-25.5235
 20
66.7068
 11
-25.4938
 21
66.9994
  0
LINE
  8
0
 10
-25.4938
 20
66.9994
 11
-25.4938
 21
68.494
  0
LINE
  8
0
 10
-25.4938
 20
68.494
 11
-24.0065
 21
68.494
  0
LINE
  8
0
 10
-24.0065
 20
68.494
 11
-24.0065
 21
65.5002
  0
LINE
  8
0
 10
-24.0065
 20
65.5002
 11
-24.0353
 21
65.2077
  0
LINE
  8
0
 10
-24.0353
 20
65.2077
 11
-24.12
 21
64.9289
  0
LINE
  8
0
 10
-24.12
 20
64.9289
 11
-24.2587
 21
64.6698
  0
LINE
  8
0
 10
-24.2587
 20
64.6698
 11
-24.4441
 21
64.4432
  0
LINE
  8
0
 10
-24.4441
 20
64.4432
 11
-24.6703
 21
64.2583
  0
LINE
  8
0
 10
-24.6703
 20
64.2583
 11
-24.9289
 21
64.12
  0
LINE
  8
0
 10
-24.9289
 20
64.12
 11
-25.2086
 21
64.0353
  0
LINE
  8
0
 10
-25.2086
 20
64.0353
 11
-25.5011
 21
64.0065
  0
LINE
  8
0
 10
-25.5011
 20
64.0065
 11
-28.5068
 21
64.0056
  0
LINE
  8
0
 10
-28.5068
 20
64.0056
 11
-28.5068
 21
57.9938
  0
LINE
  8
0
 10
-28.5068
 20
57.9938
 11
-27.0067
 21
57.9933
  0
LINE
  8
0
 10
-27.0067
 20
57.9933
 11
-27.0062
 21
56.4932
  0
LINE
  8
0
 10
-27.0062
 20
56.4932
 11
-20.9935
 21
56.4932
  0
LINE
  8
0
 10
-20.9935
 20
56.4932
 11
-20.9935
 21
59.4998
  0
LINE
  8
0
 10
-20.9935
 20
59.4998
 11
-20.9647
 21
59.7923
  0
LINE
  8
0
 10
-20.9647
 20
59.7923
 11
-20.88
 21
60.0711
  0
LINE
  8
0
 10
-20.88
 20
60.0711
 11
-20.7417
 21
60.3297
  0
LINE
  8
0
 10
-20.7417
 20
60.3297
 11
-20.5563
 21
60.5563
  0
LINE
  8
0
 10
-20.5563
 20
60.5563
 11
-20.3297
 21
60.7417
  0
LINE
  8
0
 10
-20.3297
 20
60.7417
 11
-20.0711
 21
60.88
  0
LINE
  8
0
 10
-20.0711
 20
60.88
 11
-19.7914
 21
60.9647
  0
LINE
  8
0
 10
-19.7914
 20
60.9647
 11
-19.4989
 21
60.9935
  0
LINE
  8
0
 10
-19.4989
 20
60.9935
 11
-16.506
 21
60.9935
  0
LINE
  8
0
 10
-16.506
 20
60.9935
 11
-16.506
 21
59.5062
  0
LINE
  8
0
 10
-16.506
 20
59.5062
 11
-17.9997
 21
59.5062
  0
LINE
  8
0
 10
-17.9997
 20
59.5062
 11
-18.2932
 21
59.4774
  0
LINE
  8
0
 10
-18.2932
 20
59.4774
 11
-18.5765
 21
59.3909
  0
LINE
  8
0
 10
-18.5765
 20
59.3909
 11
-18.837
 21
59.2517
  0
LINE
  8
0
 10
-18.837
 20
59.2517
 11
-19.0649
 21
59.0649
  0
LINE
  8
0
 10
-19.0649
 20
59.0649
 11
-19.2517
 21
58.837
  0
LINE
  8
0
 10
-19.2517
 20
58.837
 11
-19.3909
 21
58.5765
  0
LINE
  8
0
 10
-19.3909
 20
58.5765
 11
-19.4765
 21
58.2932
  0
LINE
  8
0
 10
-19.4765
 20
58.2932
 11
-19.5062
 21
58.0006
  0
LINE
  8
0
 10
-19.5062
 20
58.0006
 11
-19.5062
 21
55.0064
  0
LINE
  8
0
 10
-19.5062
 20
55.0064
 11
-28.4935
 21
55.0064
  0
LINE
  8
0
 10
1.5065
 20
55.0064
 11
1.5065
 21
56.4978
  0
LINE
  8
0
 10
1.5065
 20
56.4978
 11
1.51474
 21
56.5065
  0
LINE
  8
0
 10
1.51474
 20
56.5065
 11
1.5065
 21
56.5065
  0
LINE
  8
0
 10
1.5065
 20
56.5065
 11
1.5065
 21
56.5147
  0
LINE
  8
0
 10
1.5065
 20
56.5147
 11
1.4978
 21
56.5065
  0
LINE
  8
0
 10
1.4978
 20
56.5065
 11
0.00640869
 21
56.5065
  0
LINE
  8
0
 10
0.00640869
 20
56.5065
 11
0.00640869
 21
65.4938
  0
LINE
  8
0
 10
0.00640869
 20
65.4938
 11
2.99973
 21
65.4938
  0
LINE
  8
0
 10
2.99973
 20
65.4938
 11
3.29315
 21
65.5226
  0
LINE
  8
0
 10
3.29315
 20
65.5226
 11
3.57651
 21
65.6091
  0
LINE
  8
0
 10
3.57651
 20
65.6091
 11
3.83698
 21
65.7483
  0
LINE
  8
0
 10
3.83698
 20
65.7483
 11
4.06494
 21
65.9351
  0
LINE
  8
0
 10
4.06494
 20
65.9351
 11
4.25171
 21
66.163
  0
LINE
  8
0
 10
4.25171
 20
66.163
 11
4.39087
 21
66.4235
  0
LINE
  8
0
 10
4.39087
 20
66.4235
 11
4.47647
 21
66.7068
  0
LINE
  8
0
 10
4.47647
 20
66.7068
 11
4.50623
 21
66.9994
  0
LINE
  8
0
 10
4.50623
 20
66.9994
 11
4.50623
 21
68.494
  0
LINE
  8
0
 10
4.50623
 20
68.494
 11
5.9935
 21
68.494
  0
LINE
  8
0
 10
5.9935
 20
68.494
 11
5.9935
 21
65.5002
  0
LINE
  8
0
 10
5.9935
 20
65.5002
 11
5.96466
 21
65.2077
  0
LINE
  8
0
 10
5.96466
 20
65.2077
 11
5.87997
 21
64.9289
  0
LINE
  8
0
 10
5.87997
 20
64.9289
 11
5.74127
 21
64.6698
  0
LINE
  8
0
 10
5.74127
 20
64.6698
 11
5.55588
 21
64.4432
  0
LINE
  8
0
 10
5.55588
 20
64.4432
 11
5.32974
 21
64.2583
  0
LINE
  8
0
 10
5.32974
 20
64.2583
 11
5.07111
 21
64.12
  0
LINE
  8
0
 10
5.07111
 20
64.12
 11
4.79141
 21
64.0353
  0
LINE
  8
0
 10
4.79141
 20
64.0353
 11
4.4989
 21
64.0065
  0
LINE
  8
0
 10
4.4989
 20
64.0065
 11
1.49323
 21
64.0056
  0
LINE
  8
0
 10
1.49323
 20
64.0056
 11
1.49323
 21
57.9938
  0
LINE
  8
0
 10
1.49323
 20
57.9938
 11
2.99332
 21
57.9933
  0
LINE
  8
0
 10
2.99332
 20
57.9933
 11
2.99377
 21
56.4932
  0
LINE
  8
0
 10
2.99377
 20
56.4932
 11
9.0065
 21
56.4932
  0
LINE
  8
0
 10
9.0065
 20
56.4932
 11
9.0065
 21
59.4998
  0
LINE
  8
0
 10
9.0065
 20
59.4998
 11
9.03534
 21
59.7923
  0
LINE
  8
0
 10
9.03534
 20
59.7923
 11
9.12003
 21
60.0711
  0
LINE
  8
0
 10
9.12003
 20
60.0711
 11
9.25827
 21
60.3297
  0
LINE
  8
0
 10
9.25827
 20
60.3297
 11
9.44366
 21
60.5563
  0
LINE
  8
0
 10
9.44366
 20
60.5563
 11
9.67026
 21
60.7417
  0
LINE
  8
0
 10
9.67026
 20
60.7417
 11
9.92889
 21
60.88
  0
LINE
  8
0
 10
9.92889
 20
60.88
 11
10.2086
 21
60.9647
  0
LINE
  8
0
 10
10.2086
 20
60.9647
 11
10.5011
 21
60.9935
  0
LINE
  8
0
 10
10.5011
 20
60.9935
 11
13.494
 21
60.9935
  0
LINE
  8
0
 10
13.494
 20
60.9935
 11
13.494
 21
59.5062
  0
LINE
  8
0
 10
13.494
 20
59.5062
 11
12.0003
 21
59.5062
  0
LINE
  8
0
 10
12.0003
 20
59.5062
 11
11.7068
 21
59.4774
  0
LINE
  8
0
 10
11.7068
 20
59.4774
 11
11.4235
 21
59.3909
  0
LINE
  8
0
 10
11.4235
 20
59.3909
 11
11.163
 21
59.2517
  0
LINE
  8
0
 10
11.163
 20
59.2517
 11
10.9351
 21
59.0649
  0
LINE
  8
0
 10
10.9351
 20
59.0649
 11
10.7483
 21
58.837
  0
LINE
  8
0
 10
10.7483
 20
58.837
 11
10.6091
 21
58.5765
  0
LINE
  8
0
 10
10.6091
 20
58.5765
 11
10.5235
 21
58.2932
  0
LINE
  8
0
 10
10.5235
 20
58.2932
 11
10.4938
 21
58.0006
  0
LINE
  8
0
 10
10.4938
 20
58.0006
 11
10.4938
 21
55.0064
  0
LINE
  8
0
 10
10.4938
 20
55.0064
 11
1.5065
 21
55.0064
  0
LINE
  8
0
 10
-40.4938
 20
56.506
 11
-40.4938
 21
57.9997
  0
LINE
  8
0
 10
-40.4938
 20
57.9997
 11
-40.5226
 21
58.2932
  0
LINE
  8
0
 10
-40.5226
 20
58.2932
 11
-40.6091
 21
58.5765
  0
LINE
  8
0
 10
-40.6091
 20
58.5765
 11
-40.7483
 21
58.837
  0
LINE
  8
0
 10
-40.7483
 20
58.837
 11
-40.9351
 21
59.0649
  0
LINE
  8
0
 10
-40.9351
 20
59.0649
 11
-41.163
 21
59.2517
  0
LINE
  8
0
 10
-41.163
 20
59.2517
 11
-41.4235
 21
59.3909
  0
LINE
  8
0
 10
-41.4235
 20
59.3909
 11
-41.7068
 21
59.4765
  0
LINE
  8
0
 10
-41.7068
 20
59.4765
 11
-41.9994
 21
59.5062
  0
LINE
  8
0
 10
-41.9994
 20
59.5062
 11
-43.0477
 21
59.5062
  0
LINE
  8
0
 10
-43.0477
 20
59.5062
 11
-42.5645
 21
60.9935
  0
LINE
  8
0
 10
-42.5645
 20
60.9935
 11
-40.5002
 21
60.9935
  0
LINE
  8
0
 10
-40.5002
 20
60.9935
 11
-40.2077
 21
60.9647
  0
LINE
  8
0
 10
-40.2077
 20
60.9647
 11
-39.9289
 21
60.88
  0
LINE
  8
0
 10
-39.9289
 20
60.88
 11
-39.6698
 21
60.7413
  0
LINE
  8
0
 10
-39.6698
 20
60.7413
 11
-39.4432
 21
60.5559
  0
LINE
  8
0
 10
-39.4432
 20
60.5559
 11
-39.2578
 21
60.3293
  0
LINE
  8
0
 10
-39.2578
 20
60.3293
 11
-39.12
 21
60.0711
  0
LINE
  8
0
 10
-39.12
 20
60.0711
 11
-39.0353
 21
59.7914
  0
LINE
  8
0
 10
-39.0353
 20
59.7914
 11
-39.0065
 21
59.4989
  0
LINE
  8
0
 10
-39.0065
 20
59.4989
 11
-39.0065
 21
56.506
  0
LINE
  8
0
 10
-39.0065
 20
56.506
 11
-40.4938
 21
56.506
  0
LINE
  8
0
 10
-35.9935
 20
41.506
 11
-35.9935
 21
44.4998
  0
LINE
  8
0
 10
-35.9935
 20
44.4998
 11
-35.9647
 21
44.7923
  0
LINE
  8
0
 10
-35.9647
 20
44.7923
 11
-35.88
 21
45.0711
  0
LINE
  8
0
 10
-35.88
 20
45.0711
 11
-35.7417
 21
45.3297
  0
LINE
  8
0
 10
-35.7417
 20
45.3297
 11
-35.5563
 21
45.5563
  0
LINE
  8
0
 10
-35.5563
 20
45.5563
 11
-35.3297
 21
45.7417
  0
LINE
  8
0
 10
-35.3297
 20
45.7417
 11
-35.0711
 21
45.88
  0
LINE
  8
0
 10
-35.0711
 20
45.88
 11
-34.7914
 21
45.9647
  0
LINE
  8
0
 10
-34.7914
 20
45.9647
 11
-34.4989
 21
45.9935
  0
LINE
  8
0
 10
-34.4989
 20
45.9935
 11
-31.4932
 21
45.9944
  0
LINE
  8
0
 10
-31.4932
 20
45.9944
 11
-31.4932
 21
52.0062
  0
LINE
  8
0
 10
-31.4932
 20
52.0062
 11
-32.9933
 21
52.0067
  0
LINE
  8
0
 10
-32.9933
 20
52.0067
 11
-32.9938
 21
53.5068
  0
LINE
  8
0
 10
-32.9938
 20
53.5068
 11
-39.0065
 21
53.5068
  0
LINE
  8
0
 10
-39.0065
 20
53.5068
 11
-39.0065
 21
50.5002
  0
LINE
  8
0
 10
-39.0065
 20
50.5002
 11
-39.0353
 21
50.2077
  0
LINE
  8
0
 10
-39.0353
 20
50.2077
 11
-39.12
 21
49.9289
  0
LINE
  8
0
 10
-39.12
 20
49.9289
 11
-39.2587
 21
49.6698
  0
LINE
  8
0
 10
-39.2587
 20
49.6698
 11
-39.4441
 21
49.4432
  0
LINE
  8
0
 10
-39.4441
 20
49.4432
 11
-39.6703
 21
49.2583
  0
LINE
  8
0
 10
-39.6703
 20
49.2583
 11
-39.9289
 21
49.12
  0
LINE
  8
0
 10
-39.9289
 20
49.12
 11
-40.2086
 21
49.0353
  0
LINE
  8
0
 10
-40.2086
 20
49.0353
 11
-40.5011
 21
49.0065
  0
LINE
  8
0
 10
-40.5011
 20
49.0065
 11
-43.494
 21
49.0065
  0
LINE
  8
0
 10
-43.494
 20
49.0065
 11
-43.494
 21
50.4938
  0
LINE
  8
0
 10
-43.494
 20
50.4938
 11
-42.0003
 21
50.4938
  0
LINE
  8
0
 10
-42.0003
 20
50.4938
 11
-41.7068
 21
50.5226
  0
LINE
  8
0
 10
-41.7068
 20
50.5226
 11
-41.4235
 21
50.6091
  0
LINE
  8
0
 10
-41.4235
 20
50.6091
 11
-41.163
 21
50.7483
  0
LINE
  8
0
 10
-41.163
 20
50.7483
 11
-40.9351
 21
50.9351
  0
LINE
  8
0
 10
-40.9351
 20
50.9351
 11
-40.7483
 21
51.163
  0
LINE
  8
0
 10
-40.7483
 20
51.163
 11
-40.6091
 21
51.4235
  0
LINE
  8
0
 10
-40.6091
 20
51.4235
 11
-40.5235
 21
51.7068
  0
LINE
  8
0
 10
-40.5235
 20
51.7068
 11
-40.4938
 21
51.9994
  0
LINE
  8
0
 10
-40.4938
 20
51.9994
 11
-40.4938
 21
54.9936
  0
LINE
  8
0
 10
-40.4938
 20
54.9936
 11
-31.5065
 21
54.9936
  0
LINE
  8
0
 10
-31.5065
 20
54.9936
 11
-31.5065
 21
53.5022
  0
LINE
  8
0
 10
-31.5065
 20
53.5022
 11
-31.5147
 21
53.4935
  0
LINE
  8
0
 10
-31.5147
 20
53.4935
 11
-31.5065
 21
53.4935
  0
LINE
  8
0
 10
-31.5065
 20
53.4935
 11
-31.5065
 21
53.4853
  0
LINE
  8
0
 10
-31.5065
 20
53.4853
 11
-31.4978
 21
53.4935
  0
LINE
  8
0
 10
-31.4978
 20
53.4935
 11
-30.0064
 21
53.4935
  0
LINE
  8
0
 10
-30.0064
 20
53.4935
 11
-30.0064
 21
44.5062
  0
LINE
  8
0
 10
-30.0064
 20
44.5062
 11
-32.9997
 21
44.5062
  0
LINE
  8
0
 10
-32.9997
 20
44.5062
 11
-33.2932
 21
44.4774
  0
LINE
  8
0
 10
-33.2932
 20
44.4774
 11
-33.5765
 21
44.3909
  0
LINE
  8
0
 10
-33.5765
 20
44.3909
 11
-33.837
 21
44.2517
  0
LINE
  8
0
 10
-33.837
 20
44.2517
 11
-34.0649
 21
44.0649
  0
LINE
  8
0
 10
-34.0649
 20
44.0649
 11
-34.2517
 21
43.837
  0
LINE
  8
0
 10
-34.2517
 20
43.837
 11
-34.3909
 21
43.5765
  0
LINE
  8
0
 10
-34.3909
 20
43.5765
 11
-34.4765
 21
43.2932
  0
LINE
  8
0
 10
-34.4765
 20
43.2932
 11
-34.5062
 21
43.0006
  0
LINE
  8
0
 10
-34.5062
 20
43.0006
 11
-34.5062
 21
41.506
  0
LINE
  8
0
 10
-34.5062
 20
41.506
 11
-35.9935
 21
41.506
  0
LINE
  8
0
 10
-5.9935
 20
41.506
 11
-5.9935
 21
44.4998
  0
LINE
  8
0
 10
-5.9935
 20
44.4998
 11
-5.96466
 21
44.7923
  0
LINE
  8
0
 10
-5.96466
 20
44.7923
 11
-5.87997
 21
45.0711
  0
LINE
  8
0
 10
-5.87997
 20
45.0711
 11
-5.74173
 21
45.3297
  0
LINE
  8
0
 10
-5.74173
 20
45.3297
 11
-5.55634
 21
45.5563
  0
LINE
  8
0
 10
-5.55634
 20
45.5563
 11
-5.32974
 21
45.7417
  0
LINE
  8
0
 10
-5.32974
 20
45.7417
 11
-5.07111
 21
45.88
  0
LINE
  8
0
 10
-5.07111
 20
45.88
 11
-4.79141
 21
45.9647
  0
LINE
  8
0
 10
-4.79141
 20
45.9647
 11
-4.4989
 21
45.9935
  0
LINE
  8
0
 10
-4.4989
 20
45.9935
 11
-1.49323
 21
45.9944
  0
LINE
  8
0
 10
-1.49323
 20
45.9944
 11
-1.49323
 21
52.0062
  0
LINE
  8
0
 10
-1.49323
 20
52.0062
 11
-2.99332
 21
52.0067
  0
LINE
  8
0
 10
-2.99332
 20
52.0067
 11
-2.99377
 21
53.5068
  0
LINE
  8
0
 10
-2.99377
 20
53.5068
 11
-9.0065
 21
53.5068
  0
LINE
  8
0
 10
-9.0065
 20
53.5068
 11
-9.0065
 21
50.5002
  0
LINE
  8
0
 10
-9.0065
 20
50.5002
 11
-9.03534
 21
50.2077
  0
LINE
  8
0
 10
-9.03534
 20
50.2077
 11
-9.12003
 21
49.9289
  0
LINE
  8
0
 10
-9.12003
 20
49.9289
 11
-9.25873
 21
49.6698
  0
LINE
  8
0
 10
-9.25873
 20
49.6698
 11
-9.44412
 21
49.4432
  0
LINE
  8
0
 10
-9.44412
 20
49.4432
 11
-9.67026
 21
49.2583
  0
LINE
  8
0
 10
-9.67026
 20
49.2583
 11
-9.92889
 21
49.12
  0
LINE
  8
0
 10
-9.92889
 20
49.12
 11
-10.2086
 21
49.0353
  0
LINE
  8
0
 10
-10.2086
 20
49.0353
 11
-10.5011
 21
49.0065
  0
LINE
  8
0
 10
-10.5011
 20
49.0065
 11
-13.494
 21
49.0065
  0
LINE
  8
0
 10
-13.494
 20
49.0065
 11
-13.494
 21
50.4938
  0
LINE
  8
0
 10
-13.494
 20
50.4938
 11
-12.0003
 21
50.4938
  0
LINE
  8
0
 10
-12.0003
 20
50.4938
 11
-11.7068
 21
50.5226
  0
LINE
  8
0
 10
-11.7068
 20
50.5226
 11
-11.4235
 21
50.6091
  0
LINE
  8
0
 10
-11.4235
 20
50.6091
 11
-11.163
 21
50.7483
  0
LINE
  8
0
 10
-11.163
 20
50.7483
 11
-10.9351
 21
50.9351
  0
LINE
  8
0
 10
-10.9351
 20
50.9351
 11
-10.7483
 21
51.163
  0
LINE
  8
0
 10
-10.7483
 20
51.163
 11
-10.6091
 21
51.4235
  0
LINE
  8
0
 10
-10.6091
 20
51.4235
 11
-10.5235
 21
51.7068
  0
LINE
  8
0
 10
-10.5235
 20
51.7068
 11
-10.4938
 21
51.9994
  0
LINE
  8
0
 10
-10.4938
 20
51.9994
 11
-10.4938
 21
54.9936
  0
LINE
  8
0
 10
-10.4938
 20
54.9936
 11
-1.5065
 21
54.9936
  0
LINE
  8
0
 10
-1.5065
 20
54.9936
 11
-1.5065
 21
53.5022
  0
LINE
  8
0
 10
-1.5065
 20
53.5022
 11
-1.51474
 21
53.4935
  0
LINE
  8
0
 10
-1.51474
 20
53.4935
 11
-1.5065
 21
53.4935
  0
LINE
  8
0
 10
-1.5065
 20
53.4935
 11
-1.5065
 21
53.4853
  0
LINE
  8
0
 10
-1.5065
 20
53.4853
 11
-1.4978
 21
53.4935
  0
LINE
  8
0
 10
-1.4978
 20
53.4935
 11
-0.00640869
 21
53.4935
  0
LINE
  8
0
 10
-0.00640869
 20
53.4935
 11
-0.00640869
 21
44.5062
  0
LINE
  8
0
 10
-0.00640869
 20
44.5062
 11
-2.99973
 21
44.5062
  0
LINE
  8
0
 10
-2.99973
 20
44.5062
 11
-3.29315
 21
44.4774
  0
LINE
  8
0
 10
-3.29315
 20
44.4774
 11
-3.57651
 21
44.3909
  0
LINE
  8
0
 10
-3.57651
 20
44.3909
 11
-3.83698
 21
44.2517
  0
LINE
  8
0
 10
-3.83698
 20
44.2517
 11
-4.06494
 21
44.0649
  0
LINE
  8
0
 10
-4.06494
 20
44.0649
 11
-4.25171
 21
43.837
  0
LINE
  8
0
 10
-4.25171
 20
43.837
 11
-4.39087
 21
43.5765
  0
LINE
  8
0
 10
-4.39087
 20
43.5765
 11
-4.47647
 21
43.2932
  0
LINE
  8
0
 10
-4.47647
 20
43.2932
 11
-4.50623
 21
43.0006
  0
LINE
  8
0
 10
-4.50623
 20
43.0006
 11
-4.50623
 21
41.506
  0
LINE
  8
0
 10
-4.50623
 20
41.506
 11
-5.9935
 21
41.506
  0
LINE
  8
0
 10
24.0065
 20
41.506
 11
24.0065
 21
44.4998
  0
LINE
  8
0
 10
24.0065
 20
44.4998
 11
24.0353
 21
44.7923
  0
LINE
  8
0
 10
24.0353
 20
44.7923
 11
24.12
 21
45.0711
  0
LINE
  8
0
 10
24.12
 20
45.0711
 11
24.2583
 21
45.3297
  0
LINE
  8
0
 10
24.2583
 20
45.3297
 11
24.4437
 21
45.5563
  0
LINE
  8
0
 10
24.4437
 20
45.5563
 11
24.6703
 21
45.7417
  0
LINE
  8
0
 10
24.6703
 20
45.7417
 11
24.9289
 21
45.88
  0
LINE
  8
0
 10
24.9289
 20
45.88
 11
25.2086
 21
45.9647
  0
LINE
  8
0
 10
25.2086
 20
45.9647
 11
25.5011
 21
45.9935
  0
LINE
  8
0
 10
25.5011
 20
45.9935
 11
28.5068
 21
45.9944
  0
LINE
  8
0
 10
28.5068
 20
45.9944
 11
28.5068
 21
52.0062
  0
LINE
  8
0
 10
28.5068
 20
52.0062
 11
27.0067
 21
52.0067
  0
LINE
  8
0
 10
27.0067
 20
52.0067
 11
27.0062
 21
53.5068
  0
LINE
  8
0
 10
27.0062
 20
53.5068
 11
20.9935
 21
53.5068
  0
LINE
  8
0
 10
20.9935
 20
53.5068
 11
20.9935
 21
50.5002
  0
LINE
  8
0
 10
20.9935
 20
50.5002
 11
20.9647
 21
50.2077
  0
LINE
  8
0
 10
20.9647
 20
50.2077
 11
20.88
 21
49.9289
  0
LINE
  8
0
 10
20.88
 20
49.9289
 11
20.7413
 21
49.6698
  0
LINE
  8
0
 10
20.7413
 20
49.6698
 11
20.5559
 21
49.4432
  0
LINE
  8
0
 10
20.5559
 20
49.4432
 11
20.3297
 21
49.2583
  0
LINE
  8
0
 10
20.3297
 20
49.2583
 11
20.0711
 21
49.12
  0
LINE
  8
0
 10
20.0711
 20
49.12
 11
19.7914
 21
49.0353
  0
LINE
  8
0
 10
19.7914
 20
49.0353
 11
19.4989
 21
49.0065
  0
LINE
  8
0
 10
19.4989
 20
49.0065
 11
16.506
 21
49.0065
  0
LINE
  8
0
 10
16.506
 20
49.0065
 11
16.506
 21
50.4938
  0
LINE
  8
0
 10
16.506
 20
50.4938
 11
17.9997
 21
50.4938
  0
LINE
  8
0
 10
17.9997
 20
50.4938
 11
18.2932
 21
50.5226
  0
LINE
  8
0
 10
18.2932
 20
50.5226
 11
18.5765
 21
50.6091
  0
LINE
  8
0
 10
18.5765
 20
50.6091
 11
18.837
 21
50.7483
  0
LINE
  8
0
 10
18.837
 20
50.7483
 11
19.0649
 21
50.9351
  0
LINE
  8
0
 10
19.0649
 20
50.9351
 11
19.2517
 21
51.163
  0
LINE
  8
0
 10
19.2517
 20
51.163
 11
19.3909
 21
51.4235
  0
LINE
  8
0
 10
19.3909
 20
51.4235
 11
19.4765
 21
51.7068
  0
LINE
  8
0
 10
19.4765
 20
51.7068
 11
19.5062
 21
51.9994
  0
LINE
  8
0
 10
19.5062
 20
51.9994
 11
19.5062
 21
54.9936
  0
LINE
  8
0
 10
19.5062
 20
54.9936
 11
28.4935
 21
54.9936
  0
LINE
  8
0
 10
28.4935
 20
54.9936
 11
28.4935
 21
53.5022
  0
LINE
  8
0
 10
28.4935
 20
53.5022
 11
28.4853
 21
53.4935
  0
LINE
  8
0
 10
28.4853
 20
53.4935
 11
28.4935
 21
53.4935
  0
LINE
  8
0
 10
28.4935
 20
53.4935
 11
28.4935
 21
53.4853
  0
LINE
  8
0
 10
28.4935
 20
53.4853
 11
28.5022
 21
53.4935
  0
LINE
  8
0
 10
28.5022
 20
53.4935
 11
29.9936
 21
53.4935
  0
LINE
  8
0
 10
29.9936
 20
53.4935
 11
29.9936
 21
44.5062
  0
LINE
  8
0
 10
29.9936
 20
44.5062
 11
27.0003
 21
44.5062
  0
LINE
  8
0
 10
27.0003
 20
44.5062
 11
26.7068
 21
44.4774
  0
LINE
  8
0
 10
26.7068
 20
44.4774
 11
26.4235
 21
44.3909
  0
LINE
  8
0
 10
26.4235
 20
44.3909
 11
26.163
 21
44.2517
  0
LINE
  8
0
 10
26.163
 20
44.2517
 11
25.9351
 21
44.0649
  0
LINE
  8
0
 10
25.9351
 20
44.0649
 11
25.7483
 21
43.837
  0
LINE
  8
0
 10
25.7483
 20
43.837
 11
25.6091
 21
43.5765
  0
LINE
  8
0
 10
25.6091
 20
43.5765
 11
25.5235
 21
43.2932
  0
LINE
  8
0
 10
25.5235
 20
43.2932
 11
25.4938
 21
43.0006
  0
LINE
  8
0
 10
25.4938
 20
43.0006
 11
25.4938
 21
41.506
  0
LINE
  8
0
 10
25.4938
 20
41.506
 11
24.0065
 21
41.506
  0
LINE
  8
0
 10
34.5062
 20
40.0064
 11
34.5062
 21
42.9997
  0
LINE
  8
0
 10
34.5062
 20
42.9997
 11
34.4774
 21
43.2932
  0
LINE
  8
0
 10
34.4774
 20
43.2932
 11
34.3909
 21
43.5765
  0
LINE
  8
0
 10
34.3909
 20
43.5765
 11
34.2517
 21
43.837
  0
LINE
  8
0
 10
34.2517
 20
43.837
 11
34.0649
 21
44.0649
  0
LINE
  8
0
 10
34.0649
 20
44.0649
 11
33.837
 21
44.2517
  0
LINE
  8
0
 10
33.837
 20
44.2517
 11
33.5765
 21
44.3909
  0
LINE
  8
0
 10
33.5765
 20
44.3909
 11
33.2932
 21
44.4765
  0
LINE
  8
0
 10
33.2932
 20
44.4765
 11
33.0006
 21
44.5062
  0
LINE
  8
0
 10
33.0006
 20
44.5062
 11
31.506
 21
44.5062
  0
LINE
  8
0
 10
31.506
 20
44.5062
 11
31.506
 21
45.9935
  0
LINE
  8
0
 10
31.506
 20
45.9935
 11
34.4998
 21
45.9935
  0
LINE
  8
0
 10
34.4998
 20
45.9935
 11
34.7923
 21
45.9647
  0
LINE
  8
0
 10
34.7923
 20
45.9647
 11
35.0711
 21
45.88
  0
LINE
  8
0
 10
35.0711
 20
45.88
 11
35.3302
 21
45.7413
  0
LINE
  8
0
 10
35.3302
 20
45.7413
 11
35.5568
 21
45.5559
  0
LINE
  8
0
 10
35.5568
 20
45.5559
 11
35.7422
 21
45.3293
  0
LINE
  8
0
 10
35.7422
 20
45.3293
 11
35.88
 21
45.0711
  0
LINE
  8
0
 10
35.88
 20
45.0711
 11
35.9647
 21
44.7914
  0
LINE
  8
0
 10
35.9647
 20
44.7914
 11
35.9935
 21
44.4989
  0
LINE
  8
0
 10
35.9935
 20
44.4989
 11
35.9944
 21
41.4932
  0
LINE
  8
0
 10
35.9944
 20
41.4932
 11
42.0062
 21
41.4932
  0
LINE
  8
0
 10
42.0062
 20
41.4932
 11
42.0067
 21
42.9933
  0
LINE
  8
0
 10
42.0067
 20
42.9933
 11
43.5068
 21
42.9938
  0
LINE
  8
0
 10
43.5068
 20
42.9938
 11
43.5068
 21
49.0065
  0
LINE
  8
0
 10
43.5068
 20
49.0065
 11
40.5002
 21
49.0065
  0
LINE
  8
0
 10
40.5002
 20
49.0065
 11
40.2077
 21
49.0353
  0
LINE
  8
0
 10
40.2077
 20
49.0353
 11
39.9289
 21
49.12
  0
LINE
  8
0
 10
39.9289
 20
49.12
 11
39.6698
 21
49.2587
  0
LINE
  8
0
 10
39.6698
 20
49.2587
 11
39.4432
 21
49.4441
  0
LINE
  8
0
 10
39.4432
 20
49.4441
 11
39.2578
 21
49.6707
  0
LINE
  8
0
 10
39.2578
 20
49.6707
 11
39.12
 21
49.9289
  0
LINE
  8
0
 10
39.12
 20
49.9289
 11
39.0353
 21
50.2086
  0
LINE
  8
0
 10
39.0353
 20
50.2086
 11
39.0065
 21
50.5011
  0
LINE
  8
0
 10
39.0065
 20
50.5011
 11
39.0065
 21
53.494
  0
LINE
  8
0
 10
39.0065
 20
53.494
 11
40.4938
 21
53.494
  0
LINE
  8
0
 10
40.4938
 20
53.494
 11
40.4938
 21
52.0003
  0
LINE
  8
0
 10
40.4938
 20
52.0003
 11
40.5226
 21
51.7068
  0
LINE
  8
0
 10
40.5226
 20
51.7068
 11
40.6091
 21
51.4235
  0
LINE
  8
0
 10
40.6091
 20
51.4235
 11
40.7483
 21
51.163
  0
LINE
  8
0
 10
40.7483
 20
51.163
 11
40.9351
 21
50.9351
  0
LINE
  8
0
 10
40.9351
 20
50.9351
 11
41.163
 21
50.7483
  0
LINE
  8
0
 10
41.163
 20
50.7483
 11
41.4235
 21
50.6091
  0
LINE
  8
0
 10
41.4235
 20
50.6091
 11
41.7068
 21
50.5235
  0
LINE
  8
0
 10
41.7068
 20
50.5235
 11
41.9994
 21
50.4938
  0
LINE
  8
0
 10
41.9994
 20
50.4938
 11
44.9936
 21
50.4938
  0
LINE
  8
0
 10
44.9936
 20
50.4938
 11
44.9936
 21
41.5065
  0
LINE
  8
0
 10
44.9936
 20
41.5065
 11
43.5022
 21
41.5065
  0
LINE
  8
0
 10
43.5022
 20
41.5065
 11
43.4935
 21
41.5147
  0
LINE
  8
0
 10
43.4935
 20
41.5147
 11
43.4935
 21
41.5065
  0
LINE
  8
0
 10
43.4935
 20
41.5065
 11
43.4853
 21
41.5065
  0
LINE
  8
0
 10
43.4853
 20
41.5065
 11
43.4935
 21
41.4978
  0
LINE
  8
0
 10
43.4935
 20
41.4978
 11
43.4935
 21
40.0064
  0
LINE
  8
0
 10
43.4935
 20
40.0064
 11
34.5062
 21
40.0064
  0
LINE
  8
0
 10
-25.4938
 20
40.0064
 11
-25.4938
 21
42.9997
  0
LINE
  8
0
 10
-25.4938
 20
42.9997
 11
-25.5226
 21
43.2932
  0
LINE
  8
0
 10
-25.5226
 20
43.2932
 11
-25.6091
 21
43.5765
  0
LINE
  8
0
 10
-25.6091
 20
43.5765
 11
-25.7483
 21
43.837
  0
LINE
  8
0
 10
-25.7483
 20
43.837
 11
-25.9351
 21
44.0649
  0
LINE
  8
0
 10
-25.9351
 20
44.0649
 11
-26.163
 21
44.2517
  0
LINE
  8
0
 10
-26.163
 20
44.2517
 11
-26.4235
 21
44.3909
  0
LINE
  8
0
 10
-26.4235
 20
44.3909
 11
-26.7068
 21
44.4765
  0
LINE
  8
0
 10
-26.7068
 20
44.4765
 11
-26.9994
 21
44.5062
  0
LINE
  8
0
 10
-26.9994
 20
44.5062
 11
-28.494
 21
44.5062
  0
LINE
  8
0
 10
-28.494
 20
44.5062
 11
-28.494
 21
45.9935
  0
LINE
  8
0
 10
-28.494
 20
45.9935
 11
-25.5002
 21
45.9935
  0
LINE
  8
0
 10
-25.5002
 20
45.9935
 11
-25.2077
 21
45.9647
  0
LINE
  8
0
 10
-25.2077
 20
45.9647
 11
-24.9289
 21
45.88
  0
LINE
  8
0
 10
-24.9289
 20
45.88
 11
-24.6698
 21
45.7413
  0
LINE
  8
0
 10
-24.6698
 20
45.7413
 11
-24.4432
 21
45.5559
  0
LINE
  8
0
 10
-24.4432
 20
45.5559
 11
-24.2578
 21
45.3293
  0
LINE
  8
0
 10
-24.2578
 20
45.3293
 11
-24.12
 21
45.0711
  0
LINE
  8
0
 10
-24.12
 20
45.0711
 11
-24.0353
 21
44.7914
  0
LINE
  8
0
 10
-24.0353
 20
44.7914
 11
-24.0065
 21
44.4989
  0
LINE
  8
0
 10
-24.0065
 20
44.4989
 11
-24.0056
 21
41.4932
  0
LINE
  8
0
 10
-24.0056
 20
41.4932
 11
-17.9938
 21
41.4932
  0
LINE
  8
0
 10
-17.9938
 20
41.4932
 11
-17.9933
 21
42.9933
  0
LINE
  8
0
 10
-17.9933
 20
42.9933
 11
-16.4932
 21
42.9938
  0
LINE
  8
0
 10
-16.4932
 20
42.9938
 11
-16.4932
 21
49.0065
  0
LINE
  8
0
 10
-16.4932
 20
49.0065
 11
-19.4998
 21
49.0065
  0
LINE
  8
0
 10
-19.4998
 20
49.0065
 11
-19.7923
 21
49.0353
  0
LINE
  8
0
 10
-19.7923
 20
49.0353
 11
-20.0711
 21
49.12
  0
LINE
  8
0
 10
-20.0711
 20
49.12
 11
-20.3302
 21
49.2587
  0
LINE
  8
0
 10
-20.3302
 20
49.2587
 11
-20.5568
 21
49.4441
  0
LINE
  8
0
 10
-20.5568
 20
49.4441
 11
-20.7422
 21
49.6707
  0
LINE
  8
0
 10
-20.7422
 20
49.6707
 11
-20.88
 21
49.9289
  0
LINE
  8
0
 10
-20.88
 20
49.9289
 11
-20.9647
 21
50.2086
  0
LINE
  8
0
 10
-20.9647
 20
50.2086
 11
-20.9935
 21
50.5011
  0
LINE
  8
0
 10
-20.9935
 20
50.5011
 11
-20.9935
 21
53.494
  0
LINE
  8
0
 10
-20.9935
 20
53.494
 11
-19.5062
 21
53.494
  0
LINE
  8
0
 10
-19.5062
 20
53.494
 11
-19.5062
 21
52.0003
  0
LINE
  8
0
 10
-19.5062
 20
52.0003
 11
-19.4774
 21
51.7068
  0
LINE
  8
0
 10
-19.4774
 20
51.7068
 11
-19.3909
 21
51.4235
  0
LINE
  8
0
 10
-19.3909
 20
51.4235
 11
-19.2517
 21
51.163
  0
LINE
  8
0
 10
-19.2517
 20
51.163
 11
-19.0649
 21
50.9351
  0
LINE
  8
0
 10
-19.0649
 20
50.9351
 11
-18.837
 21
50.7483
  0
LINE
  8
0
 10
-18.837
 20
50.7483
 11
-18.5765
 21
50.6091
  0
LINE
  8
0
 10
-18.5765
 20
50.6091
 11
-18.2932
 21
50.5235
  0
LINE
  8
0
 10
-18.2932
 20
50.5235
 11
-18.0006
 21
50.4938
  0
LINE
  8
0
 10
-18.0006
 20
50.4938
 11
-15.0064
 21
50.4938
  0
LINE
  8
0
 10
-15.0064
 20
50.4938
 11
-15.0064
 21
41.5065
  0
LINE
  8
0
 10
-15.0064
 20
41.5065
 11
-16.4978
 21
41.5065
  0
LINE
  8
0
 10
-16.4978
 20
41.5065
 11
-16.5065
 21
41.5147
  0
LINE
  8
0
 10
-16.5065
 20
41.5147
 11
-16.5065
 21
41.5065
  0
LINE
  8
0
 10
-16.5065
 20
41.5065
 11
-16.5147
 21
41.5065
  0
LINE
  8
0
 10
-16.5147
 20
41.5065
 11
-16.5065
 21
41.4978
  0
LINE
  8
0
 10
-16.5065
 20
41.4978
 11
-16.5065
 21
40.0064
  0
LINE
  8
0
 10
-16.5065
 20
40.0064
 11
-25.4938
 21
40.0064
  0
LINE
  8
0
 10
4.50623
 20
40.0064
 11
4.50623
 21
42.9997
  0
LINE
  8
0
 10
4.50623
 20
42.9997
 11
4.47739
 21
43.2932
  0
LINE
  8
0
 10
4.47739
 20
43.2932
 11
4.39087
 21
43.5765
  0
LINE
  8
0
 10
4.39087
 20
43.5765
 11
4.25171
 21
43.837
  0
LINE
  8
0
 10
4.25171
 20
43.837
 11
4.06494
 21
44.0649
  0
LINE
  8
0
 10
4.06494
 20
44.0649
 11
3.83698
 21
44.2517
  0
LINE
  8
0
 10
3.83698
 20
44.2517
 11
3.57651
 21
44.3909
  0
LINE
  8
0
 10
3.57651
 20
44.3909
 11
3.29315
 21
44.4765
  0
LINE
  8
0
 10
3.29315
 20
44.4765
 11
3.00064
 21
44.5062
  0
LINE
  8
0
 10
3.00064
 20
44.5062
 11
1.50604
 21
44.5062
  0
LINE
  8
0
 10
1.50604
 20
44.5062
 11
1.50604
 21
45.9935
  0
LINE
  8
0
 10
1.50604
 20
45.9935
 11
4.49982
 21
45.9935
  0
LINE
  8
0
 10
4.49982
 20
45.9935
 11
4.79233
 21
45.9647
  0
LINE
  8
0
 10
4.79233
 20
45.9647
 11
5.07111
 21
45.88
  0
LINE
  8
0
 10
5.07111
 20
45.88
 11
5.3302
 21
45.7413
  0
LINE
  8
0
 10
5.3302
 20
45.7413
 11
5.55679
 21
45.5559
  0
LINE
  8
0
 10
5.55679
 20
45.5559
 11
5.74219
 21
45.3293
  0
LINE
  8
0
 10
5.74219
 20
45.3293
 11
5.87997
 21
45.0711
  0
LINE
  8
0
 10
5.87997
 20
45.0711
 11
5.96466
 21
44.7914
  0
LINE
  8
0
 10
5.96466
 20
44.7914
 11
5.9935
 21
44.4989
  0
LINE
  8
0
 10
5.9935
 20
44.4989
 11
5.99442
 21
41.4932
  0
LINE
  8
0
 10
5.99442
 20
41.4932
 11
12.0062
 21
41.4932
  0
LINE
  8
0
 10
12.0062
 20
41.4932
 11
12.0067
 21
42.9933
  0
LINE
  8
0
 10
12.0067
 20
42.9933
 11
13.5068
 21
42.9938
  0
LINE
  8
0
 10
13.5068
 20
42.9938
 11
13.5068
 21
49.0065
  0
LINE
  8
0
 10
13.5068
 20
49.0065
 11
10.5002
 21
49.0065
  0
LINE
  8
0
 10
10.5002
 20
49.0065
 11
10.2077
 21
49.0353
  0
LINE
  8
0
 10
10.2077
 20
49.0353
 11
9.92889
 21
49.12
  0
LINE
  8
0
 10
9.92889
 20
49.12
 11
9.6698
 21
49.2587
  0
LINE
  8
0
 10
9.6698
 20
49.2587
 11
9.44321
 21
49.4441
  0
LINE
  8
0
 10
9.44321
 20
49.4441
 11
9.25781
 21
49.6707
  0
LINE
  8
0
 10
9.25781
 20
49.6707
 11
9.12003
 21
49.9289
  0
LINE
  8
0
 10
9.12003
 20
49.9289
 11
9.03534
 21
50.2086
  0
LINE
  8
0
 10
9.03534
 20
50.2086
 11
9.0065
 21
50.5011
  0
LINE
  8
0
 10
9.0065
 20
50.5011
 11
9.0065
 21
53.494
  0
LINE
  8
0
 10
9.0065
 20
53.494
 11
10.4938
 21
53.494
  0
LINE
  8
0
 10
10.4938
 20
53.494
 11
10.4938
 21
52.0003
  0
LINE
  8
0
 10
10.4938
 20
52.0003
 11
10.5226
 21
51.7068
  0
LINE
  8
0
 10
10.5226
 20
51.7068
 11
10.6091
 21
51.4235
  0
LINE
  8
0
 10
10.6091
 20
51.4235
 11
10.7483
 21
51.163
  0
LINE
  8
0
 10
10.7483
 20
51.163
 11
10.9351
 21
50.9351
  0
LINE
  8
0
 10
10.9351
 20
50.9351
 11
11.163
 21
50.7483
  0
LINE
  8
0
 10
11.163
 20
50.7483
 11
11.4235
 21
50.6091
  0
LINE
  8
0
 10
11.4235
 20
50.6091
 11
11.7068
 21
50.5235
  0
LINE
  8
0
 10
11.7068
 20
50.5235
 11
11.9994
 21
50.4938
  0
LINE
  8
0
 10
11.9994
 20
50.4938
 11
14.9936
 21
50.4938
  0
LINE
  8
0
 10
14.9936
 20
50.4938
 11
14.9936
 21
41.5065
  0
LINE
  8
0
 10
14.9936
 20
41.5065
 11
13.5022
 21
41.5065
  0
LINE
  8
0
 10
13.5022
 20
41.5065
 11
13.4935
 21
41.5147
  0
LINE
  8
0
 10
13.4935
 20
41.5147
 11
13.4935
 21
41.5065
  0
LINE
  8
0
 10
13.4935
 20
41.5065
 11
13.4853
 21
41.5065
  0
LINE
  8
0
 10
13.4853
 20
41.5065
 11
13.4935
 21
41.4978
  0
LINE
  8
0
 10
13.4935
 20
41.4978
 11
13.4935
 21
40.0064
  0
LINE
  8
0
 10
13.4935
 20
40.0064
 11
4.50623
 21
40.0064
  0
LINE
  8
0
 10
-49.3836
 20
40.0064
 11
-48.9005
 21
41.4932
  0
LINE
  8
0
 10
-48.9005
 20
41.4932
 11
-47.9938
 21
41.4932
  0
LINE
  8
0
 10
-47.9938
 20
41.4932
 11
-47.9933
 21
42.9933
  0
LINE
  8
0
 10
-47.9933
 20
42.9933
 11
-46.4932
 21
42.9938
  0
LINE
  8
0
 10
-46.4932
 20
42.9938
 11
-46.4932
 21
48.902
  0
LINE
  8
0
 10
-46.4932
 20
48.902
 11
-45.976
 21
50.4938
  0
LINE
  8
0
 10
-45.976
 20
50.4938
 11
-45.0064
 21
50.4938
  0
LINE
  8
0
 10
-45.0064
 20
50.4938
 11
-45.0064
 21
41.5065
  0
LINE
  8
0
 10
-45.0064
 20
41.5065
 11
-46.4978
 21
41.5065
  0
LINE
  8
0
 10
-46.4978
 20
41.5065
 11
-46.5065
 21
41.5147
  0
LINE
  8
0
 10
-46.5065
 20
41.5147
 11
-46.5065
 21
41.5065
  0
LINE
  8
0
 10
-46.5065
 20
41.5065
 11
-46.5147
 21
41.5065
  0
LINE
  8
0
 10
-46.5147
 20
41.5065
 11
-46.5065
 21
41.4978
  0
LINE
  8
0
 10
-46.5065
 20
41.4978
 11
-46.5065
 21
40.0064
  0
LINE
  8
0
 10
-46.5065
 20
40.0064
 11
-49.3836
 21
40.0064
  0
LINE
  8
0
 10
-10.4938
 20
26.506
 11
-10.4938
 21
27.9997
  0
LINE
  8
0
 10
-10.4938
 20
27.9997
 11
-10.5226
 21
28.2932
  0
LINE
  8
0
 10
-10.5226
 20
28.2932
 11
-10.6091
 21
28.5765
  0
LINE
  8
0
 10
-10.6091
 20
28.5765
 11
-10.7483
 21
28.837
  0
LINE
  8
0
 10
-10.7483
 20
28.837
 11
-10.9351
 21
29.0649
  0
LINE
  8
0
 10
-10.9351
 20
29.0649
 11
-11.163
 21
29.2517
  0
LINE
  8
0
 10
-11.163
 20
29.2517
 11
-11.4235
 21
29.3909
  0
LINE
  8
0
 10
-11.4235
 20
29.3909
 11
-11.7068
 21
29.4765
  0
LINE
  8
0
 10
-11.7068
 20
29.4765
 11
-11.9994
 21
29.5062
  0
LINE
  8
0
 10
-11.9994
 20
29.5062
 11
-14.9936
 21
29.5062
  0
LINE
  8
0
 10
-14.9936
 20
29.5062
 11
-14.9936
 21
38.4935
  0
LINE
  8
0
 10
-14.9936
 20
38.4935
 11
-13.5022
 21
38.4935
  0
LINE
  8
0
 10
-13.5022
 20
38.4935
 11
-13.4935
 21
38.4853
  0
LINE
  8
0
 10
-13.4935
 20
38.4853
 11
-13.4935
 21
38.4935
  0
LINE
  8
0
 10
-13.4935
 20
38.4935
 11
-13.4853
 21
38.4935
  0
LINE
  8
0
 10
-13.4853
 20
38.4935
 11
-13.4935
 21
38.5022
  0
LINE
  8
0
 10
-13.4935
 20
38.5022
 11
-13.4935
 21
39.9936
  0
LINE
  8
0
 10
-13.4935
 20
39.9936
 11
-4.50623
 21
39.9936
  0
LINE
  8
0
 10
-4.50623
 20
39.9936
 11
-4.50623
 21
37.0003
  0
LINE
  8
0
 10
-4.50623
 20
37.0003
 11
-4.47739
 21
36.7068
  0
LINE
  8
0
 10
-4.47739
 20
36.7068
 11
-4.39087
 21
36.4235
  0
LINE
  8
0
 10
-4.39087
 20
36.4235
 11
-4.25171
 21
36.163
  0
LINE
  8
0
 10
-4.25171
 20
36.163
 11
-4.06494
 21
35.9351
  0
LINE
  8
0
 10
-4.06494
 20
35.9351
 11
-3.83698
 21
35.7483
  0
LINE
  8
0
 10
-3.83698
 20
35.7483
 11
-3.57651
 21
35.6091
  0
LINE
  8
0
 10
-3.57651
 20
35.6091
 11
-3.29315
 21
35.5235
  0
LINE
  8
0
 10
-3.29315
 20
35.5235
 11
-3.00064
 21
35.4938
  0
LINE
  8
0
 10
-3.00064
 20
35.4938
 11
-1.50604
 21
35.4938
  0
LINE
  8
0
 10
-1.50604
 20
35.4938
 11
-1.50604
 21
34.0065
  0
LINE
  8
0
 10
-1.50604
 20
34.0065
 11
-4.49982
 21
34.0065
  0
LINE
  8
0
 10
-4.49982
 20
34.0065
 11
-4.79233
 21
34.0353
  0
LINE
  8
0
 10
-4.79233
 20
34.0353
 11
-5.07111
 21
34.12
  0
LINE
  8
0
 10
-5.07111
 20
34.12
 11
-5.3302
 21
34.2587
  0
LINE
  8
0
 10
-5.3302
 20
34.2587
 11
-5.55679
 21
34.4441
  0
LINE
  8
0
 10
-5.55679
 20
34.4441
 11
-5.74219
 21
34.6707
  0
LINE
  8
0
 10
-5.74219
 20
34.6707
 11
-5.87997
 21
34.9289
  0
LINE
  8
0
 10
-5.87997
 20
34.9289
 11
-5.96466
 21
35.2086
  0
LINE
  8
0
 10
-5.96466
 20
35.2086
 11
-5.9935
 21
35.5011
  0
LINE
  8
0
 10
-5.9935
 20
35.5011
 11
-5.99442
 21
38.5068
  0
LINE
  8
0
 10
-5.99442
 20
38.5068
 11
-12.0062
 21
38.5068
  0
LINE
  8
0
 10
-12.0062
 20
38.5068
 11
-12.0067
 21
37.0067
  0
LINE
  8
0
 10
-12.0067
 20
37.0067
 11
-13.5068
 21
37.0062
  0
LINE
  8
0
 10
-13.5068
 20
37.0062
 11
-13.5068
 21
30.9935
  0
LINE
  8
0
 10
-13.5068
 20
30.9935
 11
-10.5002
 21
30.9935
  0
LINE
  8
0
 10
-10.5002
 20
30.9935
 11
-10.2077
 21
30.9647
  0
LINE
  8
0
 10
-10.2077
 20
30.9647
 11
-9.92889
 21
30.88
  0
LINE
  8
0
 10
-9.92889
 20
30.88
 11
-9.6698
 21
30.7413
  0
LINE
  8
0
 10
-9.6698
 20
30.7413
 11
-9.44321
 21
30.5559
  0
LINE
  8
0
 10
-9.44321
 20
30.5559
 11
-9.25781
 21
30.3293
  0
LINE
  8
0
 10
-9.25781
 20
30.3293
 11
-9.12003
 21
30.0711
  0
LINE
  8
0
 10
-9.12003
 20
30.0711
 11
-9.03534
 21
29.7914
  0
LINE
  8
0
 10
-9.03534
 20
29.7914
 11
-9.0065
 21
29.4989
  0
LINE
  8
0
 10
-9.0065
 20
29.4989
 11
-9.0065
 21
26.506
  0
LINE
  8
0
 10
-9.0065
 20
26.506
 11
-10.4938
 21
26.506
  0
LINE
  8
0
 10
19.5062
 20
26.506
 11
19.5062
 21
27.9997
  0
LINE
  8
0
 10
19.5062
 20
27.9997
 11
19.4774
 21
28.2932
  0
LINE
  8
0
 10
19.4774
 20
28.2932
 11
19.3909
 21
28.5765
  0
LINE
  8
0
 10
19.3909
 20
28.5765
 11
19.2517
 21
28.837
  0
LINE
  8
0
 10
19.2517
 20
28.837
 11
19.0649
 21
29.0649
  0
LINE
  8
0
 10
19.0649
 20
29.0649
 11
18.837
 21
29.2517
  0
LINE
  8
0
 10
18.837
 20
29.2517
 11
18.5765
 21
29.3909
  0
LINE
  8
0
 10
18.5765
 20
29.3909
 11
18.2932
 21
29.4765
  0
LINE
  8
0
 10
18.2932
 20
29.4765
 11
18.0006
 21
29.5062
  0
LINE
  8
0
 10
18.0006
 20
29.5062
 11
15.0064
 21
29.5062
  0
LINE
  8
0
 10
15.0064
 20
29.5062
 11
15.0064
 21
38.4935
  0
LINE
  8
0
 10
15.0064
 20
38.4935
 11
16.4978
 21
38.4935
  0
LINE
  8
0
 10
16.4978
 20
38.4935
 11
16.5065
 21
38.4853
  0
LINE
  8
0
 10
16.5065
 20
38.4853
 11
16.5065
 21
38.4935
  0
LINE
  8
0
 10
16.5065
 20
38.4935
 11
16.5147
 21
38.4935
  0
LINE
  8
0
 10
16.5147
 20
38.4935
 11
16.5065
 21
38.5022
  0
LINE
  8
0
 10
16.5065
 20
38.5022
 11
16.5065
 21
39.9936
  0
LINE
  8
0
 10
16.5065
 20
39.9936
 11
25.4938
 21
39.9936
  0
LINE
  8
0
 10
25.4938
 20
39.9936
 11
25.4938
 21
37.0003
  0
LINE
  8
0
 10
25.4938
 20
37.0003
 11
25.5226
 21
36.7068
  0
LINE
  8
0
 10
25.5226
 20
36.7068
 11
25.6091
 21
36.4235
  0
LINE
  8
0
 10
25.6091
 20
36.4235
 11
25.7483
 21
36.163
  0
LINE
  8
0
 10
25.7483
 20
36.163
 11
25.9351
 21
35.9351
  0
LINE
  8
0
 10
25.9351
 20
35.9351
 11
26.163
 21
35.7483
  0
LINE
  8
0
 10
26.163
 20
35.7483
 11
26.4235
 21
35.6091
  0
LINE
  8
0
 10
26.4235
 20
35.6091
 11
26.7068
 21
35.5235
  0
LINE
  8
0
 10
26.7068
 20
35.5235
 11
26.9994
 21
35.4938
  0
LINE
  8
0
 10
26.9994
 20
35.4938
 11
28.494
 21
35.4938
  0
LINE
  8
0
 10
28.494
 20
35.4938
 11
28.494
 21
34.0065
  0
LINE
  8
0
 10
28.494
 20
34.0065
 11
25.5002
 21
34.0065
  0
LINE
  8
0
 10
25.5002
 20
34.0065
 11
25.2077
 21
34.0353
  0
LINE
  8
0
 10
25.2077
 20
34.0353
 11
24.9289
 21
34.12
  0
LINE
  8
0
 10
24.9289
 20
34.12
 11
24.6698
 21
34.2587
  0
LINE
  8
0
 10
24.6698
 20
34.2587
 11
24.4432
 21
34.4441
  0
LINE
  8
0
 10
24.4432
 20
34.4441
 11
24.2578
 21
34.6707
  0
LINE
  8
0
 10
24.2578
 20
34.6707
 11
24.12
 21
34.9289
  0
LINE
  8
0
 10
24.12
 20
34.9289
 11
24.0353
 21
35.2086
  0
LINE
  8
0
 10
24.0353
 20
35.2086
 11
24.0065
 21
35.5011
  0
LINE
  8
0
 10
24.0065
 20
35.5011
 11
24.0056
 21
38.5068
  0
LINE
  8
0
 10
24.0056
 20
38.5068
 11
17.9938
 21
38.5068
  0
LINE
  8
0
 10
17.9938
 20
38.5068
 11
17.9933
 21
37.0067
  0
LINE
  8
0
 10
17.9933
 20
37.0067
 11
16.4932
 21
37.0062
  0
LINE
  8
0
 10
16.4932
 20
37.0062
 11
16.4932
 21
30.9935
  0
LINE
  8
0
 10
16.4932
 20
30.9935
 11
19.4998
 21
30.9935
  0
LINE
  8
0
 10
19.4998
 20
30.9935
 11
19.7923
 21
30.9647
  0
LINE
  8
0
 10
19.7923
 20
30.9647
 11
20.0711
 21
30.88
  0
LINE
  8
0
 10
20.0711
 20
30.88
 11
20.3302
 21
30.7413
  0
LINE
  8
0
 10
20.3302
 20
30.7413
 11
20.5568
 21
30.5559
  0
LINE
  8
0
 10
20.5568
 20
30.5559
 11
20.7422
 21
30.3293
  0
LINE
  8
0
 10
20.7422
 20
30.3293
 11
20.88
 21
30.0711
  0
LINE
  8
0
 10
20.88
 20
30.0711
 11
20.9647
 21
29.7914
  0
LINE
  8
0
 10
20.9647
 20
29.7914
 11
20.9935
 21
29.4989
  0
LINE
  8
0
 10
20.9935
 20
29.4989
 11
20.9935
 21
26.506
  0
LINE
  8
0
 10
20.9935
 20
26.506
 11
19.5062
 21
26.506
  0
LINE
  8
0
 10
49.5062
 20
26.506
 11
49.5062
 21
27.9997
  0
LINE
  8
0
 10
49.5062
 20
27.9997
 11
49.4774
 21
28.2932
  0
LINE
  8
0
 10
49.4774
 20
28.2932
 11
49.3909
 21
28.5765
  0
LINE
  8
0
 10
49.3909
 20
28.5765
 11
49.2517
 21
28.837
  0
LINE
  8
0
 10
49.2517
 20
28.837
 11
49.0649
 21
29.0649
  0
LINE
  8
0
 10
49.0649
 20
29.0649
 11
48.837
 21
29.2517
  0
LINE
  8
0
 10
48.837
 20
29.2517
 11
48.5765
 21
29.3909
  0
LINE
  8
0
 10
48.5765
 20
29.3909
 11
48.2932
 21
29.4765
  0
LINE
  8
0
 10
48.2932
 20
29.4765
 11
48.0006
 21
29.5062
  0
LINE
  8
0
 10
48.0006
 20
29.5062
 11
45.0064
 21
29.5062
  0
LINE
  8
0
 10
45.0064
 20
29.5062
 11
45.0064
 21
38.4935
  0
LINE
  8
0
 10
45.0064
 20
38.4935
 11
46.4978
 21
38.4935
  0
LINE
  8
0
 10
46.4978
 20
38.4935
 11
46.5065
 21
38.4853
  0
LINE
  8
0
 10
46.5065
 20
38.4853
 11
46.5065
 21
38.4935
  0
LINE
  8
0
 10
46.5065
 20
38.4935
 11
46.5147
 21
38.4935
  0
LINE
  8
0
 10
46.5147
 20
38.4935
 11
46.5065
 21
38.5022
  0
LINE
  8
0
 10
46.5065
 20
38.5022
 11
46.5065
 21
39.9936
  0
LINE
  8
0
 10
46.5065
 20
39.9936
 11
49.3877
 21
39.9936
  0
LINE
  8
0
 10
49.3877
 20
39.9936
 11
49.8708
 21
38.5068
  0
LINE
  8
0
 10
49.8708
 20
38.5068
 11
47.9938
 21
38.5068
  0
LINE
  8
0
 10
47.9938
 20
38.5068
 11
47.9933
 21
37.0067
  0
LINE
  8
0
 10
47.9933
 20
37.0067
 11
46.4932
 21
37.0062
  0
LINE
  8
0
 10
46.4932
 20
37.0062
 11
46.4932
 21
30.9935
  0
LINE
  8
0
 10
46.4932
 20
30.9935
 11
49.4998
 21
30.9935
  0
LINE
  8
0
 10
49.4998
 20
30.9935
 11
49.7923
 21
30.9647
  0
LINE
  8
0
 10
49.7923
 20
30.9647
 11
50.0711
 21
30.88
  0
LINE
  8
0
 10
50.0711
 20
30.88
 11
50.3302
 21
30.7413
  0
LINE
  8
0
 10
50.3302
 20
30.7413
 11
50.5568
 21
30.5559
  0
LINE
  8
0
 10
50.5568
 20
30.5559
 11
50.7422
 21
30.3293
  0
LINE
  8
0
 10
50.7422
 20
30.3293
 11
50.88
 21
30.0711
  0
LINE
  8
0
 10
50.88
 20
30.0711
 11
50.9647
 21
29.7914
  0
LINE
  8
0
 10
50.9647
 20
29.7914
 11
50.9935
 21
29.4989
  0
LINE
  8
0
 10
50.9935
 20
29.4989
 11
50.9935
 21
26.506
  0
LINE
  8
0
 10
50.9935
 20
26.506
 11
49.5062
 21
26.506
  0
LINE
  8
0
 10
-40.4938
 20
26.506
 11
-40.4938
 21
27.9997
  0
LINE
  8
0
 10
-40.4938
 20
27.9997
 11
-40.5226
 21
28.2932
  0
LINE
  8
0
 10
-40.5226
 20
28.2932
 11
-40.6091
 21
28.5765
  0
LINE
  8
0
 10
-40.6091
 20
28.5765
 11
-40.7483
 21
28.837
  0
LINE
  8
0
 10
-40.7483
 20
28.837
 11
-40.9351
 21
29.0649
  0
LINE
  8
0
 10
-40.9351
 20
29.0649
 11
-41.163
 21
29.2517
  0
LINE
  8
0
 10
-41.163
 20
29.2517
 11
-41.4235
 21
29.3909
  0
LINE
  8
0
 10
-41.4235
 20
29.3909
 11
-41.7068
 21
29.4765
  0
LINE
  8
0
 10
-41.7068
 20
29.4765
 11
-41.9994
 21
29.5062
  0
LINE
  8
0
 10
-41.9994
 20
29.5062
 11
-44.9936
 21
29.5062
  0
LINE
  8
0
 10
-44.9936
 20
29.5062
 11
-44.9936
 21
38.4935
  0
LINE
  8
0
 10
-44.9936
 20
38.4935
 11
-43.5022
 21
38.4935
  0
LINE
  8
0
 10
-43.5022
 20
38.4935
 11
-43.4935
 21
38.4853
  0
LINE
  8
0
 10
-43.4935
 20
38.4853
 11
-43.4935
 21
38.4935
  0
LINE
  8
0
 10
-43.4935
 20
38.4935
 11
-43.4853
 21
38.4935
  0
LINE
  8
0
 10
-43.4853
 20
38.4935
 11
-43.4935
 21
38.5022
  0
LINE
  8
0
 10
-43.4935
 20
38.5022
 11
-43.4935
 21
39.9936
  0
LINE
  8
0
 10
-43.4935
 20
39.9936
 11
-34.5062
 21
39.9936
  0
LINE
  8
0
 10
-34.5062
 20
39.9936
 11
-34.5062
 21
37.0003
  0
LINE
  8
0
 10
-34.5062
 20
37.0003
 11
-34.4774
 21
36.7068
  0
LINE
  8
0
 10
-34.4774
 20
36.7068
 11
-34.3909
 21
36.4235
  0
LINE
  8
0
 10
-34.3909
 20
36.4235
 11
-34.2517
 21
36.163
  0
LINE
  8
0
 10
-34.2517
 20
36.163
 11
-34.0649
 21
35.9351
  0
LINE
  8
0
 10
-34.0649
 20
35.9351
 11
-33.837
 21
35.7483
  0
LINE
  8
0
 10
-33.837
 20
35.7483
 11
-33.5765
 21
35.6091
  0
LINE
  8
0
 10
-33.5765
 20
35.6091
 11
-33.2932
 21
35.5235
  0
LINE
  8
0
 10
-33.2932
 20
35.5235
 11
-33.0006
 21
35.4938
  0
LINE
  8
0
 10
-33.0006
 20
35.4938
 11
-31.506
 21
35.4938
  0
LINE
  8
0
 10
-31.506
 20
35.4938
 11
-31.506
 21
34.0065
  0
LINE
  8
0
 10
-31.506
 20
34.0065
 11
-34.4998
 21
34.0065
  0
LINE
  8
0
 10
-34.4998
 20
34.0065
 11
-34.7923
 21
34.0353
  0
LINE
  8
0
 10
-34.7923
 20
34.0353
 11
-35.0711
 21
34.12
  0
LINE
  8
0
 10
-35.0711
 20
34.12
 11
-35.3302
 21
34.2587
  0
LINE
  8
0
 10
-35.3302
 20
34.2587
 11
-35.5568
 21
34.4441
  0
LINE
  8
0
 10
-35.5568
 20
34.4441
 11
-35.7422
 21
34.6707
  0
LINE
  8
0
 10
-35.7422
 20
34.6707
 11
-35.88
 21
34.9289
  0
LINE
  8
0
 10
-35.88
 20
34.9289
 11
-35.9647
 21
35.2086
  0
LINE
  8
0
 10
-35.9647
 20
35.2086
 11
-35.9935
 21
35.5011
  0
LINE
  8
0
 10
-35.9935
 20
35.5011
 11
-35.9944
 21
38.5068
  0
LINE
  8
0
 10
-35.9944
 20
38.5068
 11
-42.0062
 21
38.5068
  0
LINE
  8
0
 10
-42.0062
 20
38.5068
 11
-42.0067
 21
37.0067
  0
LINE
  8
0
 10
-42.0067
 20
37.0067
 11
-43.5068
 21
37.0062
  0
LINE
  8
0
 10
-43.5068
 20
37.0062
 11
-43.5068
 21
30.9935
  0
LINE
  8
0
 10
-43.5068
 20
30.9935
 11
-40.5002
 21
30.9935
  0
LINE
  8
0
 10
-40.5002
 20
30.9935
 11
-40.2077
 21
30.9647
  0
LINE
  8
0
 10
-40.2077
 20
30.9647
 11
-39.9289
 21
30.88
  0
LINE
  8
0
 10
-39.9289
 20
30.88
 11
-39.6698
 21
30.7413
  0
LINE
  8
0
 10
-39.6698
 20
30.7413
 11
-39.4432
 21
30.5559
  0
LINE
  8
0
 10
-39.4432
 20
30.5559
 11
-39.2578
 21
30.3293
  0
LINE
  8
0
 10
-39.2578
 20
30.3293
 11
-39.12
 21
30.0711
  0
LINE
  8
0
 10
-39.12
 20
30.0711
 11
-39.0353
 21
29.7914
  0
LINE
  8
0
 10
-39.0353
 20
29.7914
 11
-39.0065
 21
29.4989
  0
LINE
  8
0
 10
-39.0065
 20
29.4989
 11
-39.0065
 21
26.506
  0
LINE
  8
0
 10
-39.0065
 20
26.506
 11
-40.4938
 21
26.506
  0
LINE
  8
0
 10
31.5065
 20
25.0064
 11
31.5065
 21
26.4978
  0
LINE
  8
0
 10
31.5065
 20
26.4978
 11
31.5147
 21
26.5065
  0
LINE
  8
0
 10
31.5147
 20
26.5065
 11
31.5065
 21
26.5065
  0
LINE
  8
0
 10
31.5065
 20
26.5065
 11
31.5065
 21
26.5147
  0
LINE
  8
0
 10
31.5065
 20
26.5147
 11
31.4978
 21
26.5065
  0
LINE
  8
0
 10
31.4978
 20
26.5065
 11
30.0064
 21
26.5065
  0
LINE
  8
0
 10
30.0064
 20
26.5065
 11
30.0064
 21
35.4938
  0
LINE
  8
0
 10
30.0064
 20
35.4938
 11
32.9997
 21
35.4938
  0
LINE
  8
0
 10
32.9997
 20
35.4938
 11
33.2932
 21
35.5226
  0
LINE
  8
0
 10
33.2932
 20
35.5226
 11
33.5765
 21
35.6091
  0
LINE
  8
0
 10
33.5765
 20
35.6091
 11
33.837
 21
35.7483
  0
LINE
  8
0
 10
33.837
 20
35.7483
 11
34.0649
 21
35.9351
  0
LINE
  8
0
 10
34.0649
 20
35.9351
 11
34.2517
 21
36.163
  0
LINE
  8
0
 10
34.2517
 20
36.163
 11
34.3909
 21
36.4235
  0
LINE
  8
0
 10
34.3909
 20
36.4235
 11
34.4765
 21
36.7068
  0
LINE
  8
0
 10
34.4765
 20
36.7068
 11
34.5062
 21
36.9994
  0
LINE
  8
0
 10
34.5062
 20
36.9994
 11
34.5062
 21
38.494
  0
LINE
  8
0
 10
34.5062
 20
38.494
 11
35.9935
 21
38.494
  0
LINE
  8
0
 10
35.9935
 20
38.494
 11
35.9935
 21
35.5002
  0
LINE
  8
0
 10
35.9935
 20
35.5002
 11
35.9647
 21
35.2077
  0
LINE
  8
0
 10
35.9647
 20
35.2077
 11
35.88
 21
34.9289
  0
LINE
  8
0
 10
35.88
 20
34.9289
 11
35.7413
 21
34.6698
  0
LINE
  8
0
 10
35.7413
 20
34.6698
 11
35.5559
 21
34.4432
  0
LINE
  8
0
 10
35.5559
 20
34.4432
 11
35.3297
 21
34.2583
  0
LINE
  8
0
 10
35.3297
 20
34.2583
 11
35.0711
 21
34.12
  0
LINE
  8
0
 10
35.0711
 20
34.12
 11
34.7914
 21
34.0353
  0
LINE
  8
0
 10
34.7914
 20
34.0353
 11
34.4989
 21
34.0065
  0
LINE
  8
0
 10
34.4989
 20
34.0065
 11
31.4932
 21
34.0056
  0
LINE
  8
0
 10
31.4932
 20
34.0056
 11
31.4932
 21
27.9938
  0
LINE
  8
0
 10
31.4932
 20
27.9938
 11
32.9933
 21
27.9933
  0
LINE
  8
0
 10
32.9933
 20
27.9933
 11
32.9938
 21
26.4932
  0
LINE
  8
0
 10
32.9938
 20
26.4932
 11
39.0065
 21
26.4932
  0
LINE
  8
0
 10
39.0065
 20
26.4932
 11
39.0065
 21
29.4998
  0
LINE
  8
0
 10
39.0065
 20
29.4998
 11
39.0353
 21
29.7923
  0
LINE
  8
0
 10
39.0353
 20
29.7923
 11
39.12
 21
30.0711
  0
LINE
  8
0
 10
39.12
 20
30.0711
 11
39.2583
 21
30.3297
  0
LINE
  8
0
 10
39.2583
 20
30.3297
 11
39.4437
 21
30.5563
  0
LINE
  8
0
 10
39.4437
 20
30.5563
 11
39.6703
 21
30.7417
  0
LINE
  8
0
 10
39.6703
 20
30.7417
 11
39.9289
 21
30.88
  0
LINE
  8
0
 10
39.9289
 20
30.88
 11
40.2086
 21
30.9647
  0
LINE
  8
0
 10
40.2086
 20
30.9647
 11
40.5011
 21
30.9935
  0
LINE
  8
0
 10
40.5011
 20
30.9935
 11
43.494
 21
30.9935
  0
LINE
  8
0
 10
43.494
 20
30.9935
 11
43.494
 21
29.5062
  0
LINE
  8
0
 10
43.494
 20
29.5062
 11
42.0003
 21
29.5062
  0
LINE
  8
0
 10
42.0003
 20
29.5062
 11
41.7068
 21
29.4774
  0
LINE
  8
0
 10
41.7068
 20
29.4774
 11
41.4235
 21
29.3909
  0
LINE
  8
0
 10
41.4235
 20
29.3909
 11
41.163
 21
29.2517
  0
LINE
  8
0
 10
41.163
 20
29.2517
 11
40.9351
 21
29.0649
  0
LINE
  8
0
 10
40.9351
 20
29.0649
 11
40.7483
 21
28.837
  0
LINE
  8
0
 10
40.7483
 20
28.837
 11
40.6091
 21
28.5765
  0
LINE
  8
0
 10
40.6091
 20
28.5765
 11
40.5235
 21
28.2932
  0
LINE
  8
0
 10
40.5235
 20
28.2932
 11
40.4938
 21
28.0006
  0
LINE
  8
0
 10
40.4938
 20
28.0006
 11
40.4938
 21
25.0064
  0
LINE
  8
0
 10
40.4938
 20
25.0064
 11
31.5065
 21
25.0064
  0
LINE
  8
0
 10
-28.4935
 20
25.0064
 11
-28.4935
 21
26.4978
  0
LINE
  8
0
 10
-28.4935
 20
26.4978
 11
-28.4853
 21
26.5065
  0
LINE
  8
0
 10
-28.4853
 20
26.5065
 11
-28.4935
 21
26.5065
  0
LINE
  8
0
 10
-28.4935
 20
26.5065
 11
-28.4935
 21
26.5147
  0
LINE
  8
0
 10
-28.4935
 20
26.5147
 11
-28.5022
 21
26.5065
  0
LINE
  8
0
 10
-28.5022
 20
26.5065
 11
-29.9936
 21
26.5065
  0
LINE
  8
0
 10
-29.9936
 20
26.5065
 11
-29.9936
 21
35.4938
  0
LINE
  8
0
 10
-29.9936
 20
35.4938
 11
-27.0003
 21
35.4938
  0
LINE
  8
0
 10
-27.0003
 20
35.4938
 11
-26.7068
 21
35.5226
  0
LINE
  8
0
 10
-26.7068
 20
35.5226
 11
-26.4235
 21
35.6091
  0
LINE
  8
0
 10
-26.4235
 20
35.6091
 11
-26.163
 21
35.7483
  0
LINE
  8
0
 10
-26.163
 20
35.7483
 11
-25.9351
 21
35.9351
  0
LINE
  8
0
 10
-25.9351
 20
35.9351
 11
-25.7483
 21
36.163
  0
LINE
  8
0
 10
-25.7483
 20
36.163
 11
-25.6091
 21
36.4235
  0
LINE
  8
0
 10
-25.6091
 20
36.4235
 11
-25.5235
 21
36.7068
  0
LINE
  8
0
 10
-25.5235
 20
36.7068
 11
-25.4938
 21
36.9994
  0
LINE
  8
0
 10
-25.4938
 20
36.9994
 11
-25.4938
 21
38.494
  0
LINE
  8
0
 10
-25.4938
 20
38.494
 11
-24.0065
 21
38.494
  0
LINE
  8
0
 10
-24.0065
 20
38.494
 11
-24.0065
 21
35.5002
  0
LINE
  8
0
 10
-24.0065
 20
35.5002
 11
-24.0353
 21
35.2077
  0
LINE
  8
0
 10
-24.0353
 20
35.2077
 11
-24.12
 21
34.9289
  0
LINE
  8
0
 10
-24.12
 20
34.9289
 11
-24.2587
 21
34.6698
  0
LINE
  8
0
 10
-24.2587
 20
34.6698
 11
-24.4441
 21
34.4432
  0
LINE
  8
0
 10
-24.4441
 20
34.4432
 11
-24.6703
 21
34.2583
  0
LINE
  8
0
 10
-24.6703
 20
34.2583
 11
-24.9289
 21
34.12
  0
LINE
  8
0
 10
-24.9289
 20
34.12
 11
-25.2086
 21
34.0353
  0
LINE
  8
0
 10
-25.2086
 20
34.0353
 11
-25.5011
 21
34.0065
  0
LINE
  8
0
 10
-25.5011
 20
34.0065
 11
-28.5068
 21
34.0056
  0
LINE
  8
0
 10
-28.5068
 20
34.0056
 11
-28.5068
 21
27.9938
  0
LINE
  8
0
 10
-28.5068
 20
27.9938
 11
-27.0067
 21
27.9933
  0
LINE
  8
0
 10
-27.0067
 20
27.9933
 11
-27.0062
 21
26.4932
  0
LINE
  8
0
 10
-27.0062
 20
26.4932
 11
-20.9935
 21
26.4932
  0
LINE
  8
0
 10
-20.9935
 20
26.4932
 11
-20.9935
 21
29.4998
  0
LINE
  8
0
 10
-20.9935
 20
29.4998
 11
-20.9647
 21
29.7923
  0
LINE
  8
0
 10
-20.9647
 20
29.7923
 11
-20.88
 21
30.0711
  0
LINE
  8
0
 10
-20.88
 20
30.0711
 11
-20.7417
 21
30.3297
  0
LINE
  8
0
 10
-20.7417
 20
30.3297
 11
-20.5563
 21
30.5563
  0
LINE
  8
0
 10
-20.5563
 20
30.5563
 11
-20.3297
 21
30.7417
  0
LINE
  8
0
 10
-20.3297
 20
30.7417
 11
-20.0711
 21
30.88
  0
LINE
  8
0
 10
-20.0711
 20
30.88
 11
-19.7914
 21
30.9647
  0
LINE
  8
0
 10
-19.7914
 20
30.9647
 11
-19.4989
 21
30.9935
  0
LINE
  8
0
 10
-19.4989
 20
30.9935
 11
-16.506
 21
30.9935
  0
LINE
  8
0
 10
-16.506
 20
30.9935
 11
-16.506
 21
29.5062
  0
LINE
  8
0
 10
-16.506
 20
29.5062
 11
-17.9997
 21
29.5062
  0
LINE
  8
0
 10
-17.9997
 20
29.5062
 11
-18.2932
 21
29.4774
  0
LINE
  8
0
 10
-18.2932
 20
29.4774
 11
-18.5765
 21
29.3909
  0
LINE
  8
0
 10
-18.5765
 20
29.3909
 11
-18.837
 21
29.2517
  0
LINE
  8
0
 10
-18.837
 20
29.2517
 11
-19.0649
 21
29.0649
  0
LINE
  8
0
 10
-19.0649
 20
29.0649
 11
-19.2517
 21
28.837
  0
LINE
  8
0
 10
-19.2517
 20
28.837
 11
-19.3909
 21
28.5765
  0
LINE
  8
0
 10
-19.3909
 20
28.5765
 11
-19.4765
 21
28.2932
  0
LINE
  8
0
 10
-19.4765
 20
28.2932
 11
-19.5062
 21
28.0006
  0
LINE
  8
0
 10
-19.5062
 20
28.0006
 11
-19.5062
 21
25.0064
  0
LINE
  8
0
 10
-19.5062
 20
25.0064
 11
-28.4935
 21
25.0064
  0
LINE
  8
0
 10
1.5065
 20
25.0064
 11
1.5065
 21
26.4978
  0
LINE
  8
0
 10
1.5065
 20
26.4978
 11
1.51474
 21
26.5065
  0
LINE
  8
0
 10
1.51474
 20
26.5065
 11
1.5065
 21
26.5065
  0
LINE
  8
0
 10
1.5065
 20
26.5065
 11
1.5065
 21
26.5147
  0
LINE
  8
0
 10
1.5065
 20
26.5147
 11
1.4978
 21
26.5065
  0
LINE
  8
0
 10
1.4978
 20
26.5065
 11
0.00640869
 21
26.5065
  0
LINE
  8
0
 10
0.00640869
 20
26.5065
 11
0.00640869
 21
35.4938
  0
LINE
  8
0
 10
0.00640869
 20
35.4938
 11
2.99973
 21
35.4938
  0
LINE
  8
0
 10
2.99973
 20
35.4938
 11
3.29315
 21
35.5226
  0
LINE
  8
0
 10
3.29315
 20
35.5226
 11
3.57651
 21
35.6091
  0
LINE
  8
0
 10
3.57651
 20
35.6091
 11
3.83698
 21
35.7483
  0
LINE
  8
0
 10
3.83698
 20
35.7483
 11
4.06494
 21
35.9351
  0
LINE
  8
0
 10
4.06494
 20
35.9351
 11
4.25171
 21
36.163
  0
LINE
  8
0
 10
4.25171
 20
36.163
 11
4.39087
 21
36.4235
  0
LINE
  8
0
 10
4.39087
 20
36.4235
 11
4.47647
 21
36.7068
  0
LINE
  8
0
 10
4.47647
 20
36.7068
 11
4.50623
 21
36.9994
  0
LINE
  8
0
 10
4.50623
 20
36.9994
 11
4.50623
 21
38.494
  0
LINE
  8
0
 10
4.50623
 20
38.494
 11
5.9935
 21
38.494
  0
LINE
  8
0
 10
5.9935
 20
38.494
 11
5.9935
 21
35.5002
  0
LINE
  8
0
 10
5.9935
 20
35.5002
 11
5.96466
 21
35.2077
  0
LINE
  8
0
 10
5.96466
 20
35.2077
 11
5.87997
 21
34.9289
  0
LINE
  8
0
 10
5.87997
 20
34.9289
 11
5.74127
 21
34.6698
  0
LINE
  8
0
 10
5.74127
 20
34.6698
 11
5.55588
 21
34.4432
  0
LINE
  8
0
 10
5.55588
 20
34.4432
 11
5.32974
 21
34.2583
  0
LINE
  8
0
 10
5.32974
 20
34.2583
 11
5.07111
 21
34.12
  0
LINE
  8
0
 10
5.07111
 20
34.12
 11
4.79141
 21
34.0353
  0
LINE
  8
0
 10
4.79141
 20
34.0353
 11
4.4989
 21
34.0065
  0
LINE
  8
0
 10
4.4989
 20
34.0065
 11
1.49323
 21
34.0056
  0
LINE
  8
0
 10
1.49323
 20
34.0056
 11
1.49323
 21
27.9938
  0
LINE
  8
0
 10
1.49323
 20
27.9938
 11
2.99332
 21
27.9933
  0
LINE
  8
0
 10
2.99332
 20
27.9933
 11
2.99377
 21
26.4932
  0
LINE
  8
0
 10
2.99377
 20
26.4932
 11
9.0065
 21
26.4932
  0
LINE
  8
0
 10
9.0065
 20
26.4932
 11
9.0065
 21
29.4998
  0
LINE
  8
0
 10
9.0065
 20
29.4998
 11
9.03534
 21
29.7923
  0
LINE
  8
0
 10
9.03534
 20
29.7923
 11
9.12003
 21
30.0711
  0
LINE
  8
0
 10
9.12003
 20
30.0711
 11
9.25827
 21
30.3297
  0
LINE
  8
0
 10
9.25827
 20
30.3297
 11
9.44366
 21
30.5563
  0
LINE
  8
0
 10
9.44366
 20
30.5563
 11
9.67026
 21
30.7417
  0
LINE
  8
0
 10
9.67026
 20
30.7417
 11
9.92889
 21
30.88
  0
LINE
  8
0
 10
9.92889
 20
30.88
 11
10.2086
 21
30.9647
  0
LINE
  8
0
 10
10.2086
 20
30.9647
 11
10.5011
 21
30.9935
  0
LINE
  8
0
 10
10.5011
 20
30.9935
 11
13.494
 21
30.9935
  0
LINE
  8
0
 10
13.494
 20
30.9935
 11
13.494
 21
29.5062
  0
LINE
  8
0
 10
13.494
 20
29.5062
 11
12.0003
 21
29.5062
  0
LINE
  8
0
 10
12.0003
 20
29.5062
 11
11.7068
 21
29.4774
  0
LINE
  8
0
 10
11.7068
 20
29.4774
 11
11.4235
 21
29.3909
  0
LINE
  8
0
 10
11.4235
 20
29.3909
 11
11.163
 21
29.2517
  0
LINE
  8
0
 10
11.163
 20
29.2517
 11
10.9351
 21
29.0649
  0
LINE
  8
0
 10
10.9351
 20
29.0649
 11
10.7483
 21
28.837
  0
LINE
  8
0
 10
10.7483
 20
28.837
 11
10.6091
 21
28.5765
  0
LINE
  8
0
 10
10.6091
 20
28.5765
 11
10.5235
 21
28.2932
  0
LINE
  8
0
 10
10.5235
 20
28.2932
 11
10.4938
 21
28.0006
  0
LINE
  8
0
 10
10.4938
 20
28.0006
 11
10.4938
 21
25.0064
  0
LINE
  8
0
 10
10.4938
 20
25.0064
 11
1.5065
 21
25.0064
  0
LINE
  8
0
 10
-54.2574
 20
25.0064
 11
-53.7743
 21
26.4932
  0
LINE
  8
0
 10
-53.7743
 20
26.4932
 11
-50.9935
 21
26.4932
  0
LINE
  8
0
 10
-50.9935
 20
26.4932
 11
-50.9935
 21
29.4998
  0
LINE
  8
0
 10
-50.9935
 20
29.4998
 11
-50.9647
 21
29.7923
  0
LINE
  8
0
 10
-50.9647
 20
29.7923
 11
-50.88
 21
30.0711
  0
LINE
  8
0
 10
-50.88
 20
30.0711
 11
-50.7417
 21
30.3297
  0
LINE
  8
0
 10
-50.7417
 20
30.3297
 11
-50.5563
 21
30.5563
  0
LINE
  8
0
 10
-50.5563
 20
30.5563
 11
-50.3297
 21
30.7417
  0
LINE
  8
0
 10
-50.3297
 20
30.7417
 11
-50.0711
 21
30.88
  0
LINE
  8
0
 10
-50.0711
 20
30.88
 11
-49.7914
 21
30.9647
  0
LINE
  8
0
 10
-49.7914
 20
30.9647
 11
-49.4989
 21
30.9935
  0
LINE
  8
0
 10
-49.4989
 20
30.9935
 11
-46.506
 21
30.9935
  0
LINE
  8
0
 10
-46.506
 20
30.9935
 11
-46.506
 21
29.5062
  0
LINE
  8
0
 10
-46.506
 20
29.5062
 11
-47.9997
 21
29.5062
  0
LINE
  8
0
 10
-47.9997
 20
29.5062
 11
-48.2932
 21
29.4774
  0
LINE
  8
0
 10
-48.2932
 20
29.4774
 11
-48.5765
 21
29.3909
  0
LINE
  8
0
 10
-48.5765
 20
29.3909
 11
-48.837
 21
29.2517
  0
LINE
  8
0
 10
-48.837
 20
29.2517
 11
-49.0649
 21
29.0649
  0
LINE
  8
0
 10
-49.0649
 20
29.0649
 11
-49.2517
 21
28.837
  0
LINE
  8
0
 10
-49.2517
 20
28.837
 11
-49.3909
 21
28.5765
  0
LINE
  8
0
 10
-49.3909
 20
28.5765
 11
-49.4765
 21
28.2932
  0
LINE
  8
0
 10
-49.4765
 20
28.2932
 11
-49.5062
 21
28.0006
  0
LINE
  8
0
 10
-49.5062
 20
28.0006
 11
-49.5062
 21
25.0064
  0
LINE
  8
0
 10
-49.5062
 20
25.0064
 11
-54.2574
 21
25.0064
  0
LINE
  8
0
 10
46.506
 20
19.0065
 11
46.506
 21
20.4938
  0
LINE
  8
0
 10
46.506
 20
20.4938
 11
47.9997
 21
20.4938
  0
LINE
  8
0
 10
47.9997
 20
20.4938
 11
48.2932
 21
20.5226
  0
LINE
  8
0
 10
48.2932
 20
20.5226
 11
48.5765
 21
20.6091
  0
LINE
  8
0
 10
48.5765
 20
20.6091
 11
48.837
 21
20.7483
  0
LINE
  8
0
 10
48.837
 20
20.7483
 11
49.0649
 21
20.9351
  0
LINE
  8
0
 10
49.0649
 20
20.9351
 11
49.2517
 21
21.163
  0
LINE
  8
0
 10
49.2517
 20
21.163
 11
49.3909
 21
21.4235
  0
LINE
  8
0
 10
49.3909
 20
21.4235
 11
49.4765
 21
21.7068
  0
LINE
  8
0
 10
49.4765
 20
21.7068
 11
49.5062
 21
21.9994
  0
LINE
  8
0
 10
49.5062
 20
21.9994
 11
49.5062
 21
24.9936
  0
LINE
  8
0
 10
49.5062
 20
24.9936
 11
54.2615
 21
24.9936
  0
LINE
  8
0
 10
54.2615
 20
24.9936
 11
54.7446
 21
23.5068
  0
LINE
  8
0
 10
54.7446
 20
23.5068
 11
50.9935
 21
23.5068
  0
LINE
  8
0
 10
50.9935
 20
23.5068
 11
50.9935
 21
20.5002
  0
LINE
  8
0
 10
50.9935
 20
20.5002
 11
50.9647
 21
20.2077
  0
LINE
  8
0
 10
50.9647
 20
20.2077
 11
50.88
 21
19.9289
  0
LINE
  8
0
 10
50.88
 20
19.9289
 11
50.7413
 21
19.6698
  0
LINE
  8
0
 10
50.7413
 20
19.6698
 11
50.5559
 21
19.4432
  0
LINE
  8
0
 10
50.5559
 20
19.4432
 11
50.3297
 21
19.2583
  0
LINE
  8
0
 10
50.3297
 20
19.2583
 11
50.0711
 21
19.12
  0
LINE
  8
0
 10
50.0711
 20
19.12
 11
49.7914
 21
19.0353
  0
LINE
  8
0
 10
49.7914
 20
19.0353
 11
49.4989
 21
19.0065
  0
LINE
  8
0
 10
49.4989
 20
19.0065
 11
46.506
 21
19.0065
  0
LINE
  8
0
 10
24.0065
 20
12
 11
24.0065
 21
14.4998
  0
LINE
  8
0
 10
24.0065
 20
14.4998
 11
24.0353
 21
14.7923
  0
LINE
  8
0
 10
24.0353
 20
14.7923
 11
24.12
 21
15.0711
  0
LINE
  8
0
 10
24.12
 20
15.0711
 11
24.2583
 21
15.3297
  0
LINE
  8
0
 10
24.2583
 20
15.3297
 11
24.4437
 21
15.5563
  0
LINE
  8
0
 10
24.4437
 20
15.5563
 11
24.6703
 21
15.7417
  0
LINE
  8
0
 10
24.6703
 20
15.7417
 11
24.9289
 21
15.88
  0
LINE
  8
0
 10
24.9289
 20
15.88
 11
25.2086
 21
15.9647
  0
LINE
  8
0
 10
25.2086
 20
15.9647
 11
25.5011
 21
15.9935
  0
LINE
  8
0
 10
25.5011
 20
15.9935
 11
28.5068
 21
15.9944
  0
LINE
  8
0
 10
28.5068
 20
15.9944
 11
28.5068
 21
22.0062
  0
LINE
  8
0
 10
28.5068
 20
22.0062
 11
27.0067
 21
22.0067
  0
LINE
  8
0
 10
27.0067
 20
22.0067
 11
27.0062
 21
23.5068
  0
LINE
  8
0
 10
27.0062
 20
23.5068
 11
20.9935
 21
23.5068
  0
LINE
  8
0
 10
20.9935
 20
23.5068
 11
20.9935
 21
20.5002
  0
LINE
  8
0
 10
20.9935
 20
20.5002
 11
20.9647
 21
20.2077
  0
LINE
  8
0
 10
20.9647
 20
20.2077
 11
20.88
 21
19.9289
  0
LINE
  8
0
 10
20.88
 20
19.9289
 11
20.7413
 21
19.6698
  0
LINE
  8
0
 10
20.7413
 20
19.6698
 11
20.5559
 21
19.4432
  0
LINE
  8
0
 10
20.5559
 20
19.4432
 11
20.3297
 21
19.2583
  0
LINE
  8
0
 10
20.3297
 20
19.2583
 11
20.0711
 21
19.12
  0
LINE
  8
0
 10
20.0711
 20
19.12
 11
19.7914
 21
19.0353
  0
LINE
  8
0
 10
19.7914
 20
19.0353
 11
19.4989
 21
19.0065
  0
LINE
  8
0
 10
19.4989
 20
19.0065
 11
16.506
 21
19.0065
  0
LINE
  8
0
 10
16.506
 20
19.0065
 11
16.506
 21
20.4938
  0
LINE
  8
0
 10
16.506
 20
20.4938
 11
17.9997
 21
20.4938
  0
LINE
  8
0
 10
17.9997
 20
20.4938
 11
18.2932
 21
20.5226
  0
LINE
  8
0
 10
18.2932
 20
20.5226
 11
18.5765
 21
20.6091
  0
LINE
  8
0
 10
18.5765
 20
20.6091
 11
18.837
 21
20.7483
  0
LINE
  8
0
 10
18.837
 20
20.7483
 11
19.0649
 21
20.9351
  0
LINE
  8
0
 10
19.0649
 20
20.9351
 11
19.2517
 21
21.163
  0
LINE
  8
0
 10
19.2517
 20
21.163
 11
19.3909
 21
21.4235
  0
LINE
  8
0
 10
19.3909
 20
21.4235
 11
19.4765
 21
21.7068
  0
LINE
  8
0
 10
19.4765
 20
21.7068
 11
19.5062
 21
21.9994
  0
LINE
  8
0
 10
19.5062
 20
21.9994
 11
19.5062
 21
24.9936
  0
LINE
  8
0
 10
19.5062
 20
24.9936
 11
28.4935
 21
24.9936
  0
LINE
  8
0
 10
28.4935
 20
24.9936
 11
28.4935
 21
23.5022
  0
LINE
  8
0
 10
28.4935
 20
23.5022
 11
28.4853
 21
23.4935
  0
LINE
  8
0
 10
28.4853
 20
23.4935
 11
28.4935
 21
23.4935
  0
LINE
  8
0
 10
28.4935
 20
23.4935
 11
28.4935
 21
23.4853
  0
LINE
  8
0
 10
28.4935
 20
23.4853
 11
28.5022
 21
23.4935
  0
LINE
  8
0
 10
28.5022
 20
23.4935
 11
29.9936
 21
23.4935
  0
LINE
  8
0
 10
29.9936
 20
23.4935
 11
29.9936
 21
14.5062
  0
LINE
  8
0
 10
29.9936
 20
14.5062
 11
27.0003
 21
14.5062
  0
LINE
  8
0
 10
27.0003
 20
14.5062
 11
26.7068
 21
14.4774
  0
LINE
  8
0
 10
26.7068
 20
14.4774
 11
26.4235
 21
14.3909
  0
LINE
  8
0
 10
26.4235
 20
14.3909
 11
26.163
 21
14.2517
  0
LINE
  8
0
 10
26.163
 20
14.2517
 11
25.9351
 21
14.0649
  0
LINE
  8
0
 10
25.9351
 20
14.0649
 11
25.7483
 21
13.837
  0
LINE
  8
0
 10
25.7483
 20
13.837
 11
25.6091
 21
13.5765
  0
LINE
  8
0
 10
25.6091
 20
13.5765
 11
25.5235
 21
13.2932
  0
LINE
  8
0
 10
25.5235
 20
13.2932
 11
25.4938
 21
13.0006
  0
LINE
  8
0
 10
25.4938
 20
13.0006
 11
25.4938
 21
12
  0
LINE
  8
0
 10
25.4938
 20
12
 11
24.0065
 21
12
  0
LINE
  8
0
 10
-5.9935
 20
12
 11
-5.9935
 21
14.4998
  0
LINE
  8
0
 10
-5.9935
 20
14.4998
 11
-5.96466
 21
14.7923
  0
LINE
  8
0
 10
-5.96466
 20
14.7923
 11
-5.87997
 21
15.0711
  0
LINE
  8
0
 10
-5.87997
 20
15.0711
 11
-5.74173
 21
15.3297
  0
LINE
  8
0
 10
-5.74173
 20
15.3297
 11
-5.55634
 21
15.5563
  0
LINE
  8
0
 10
-5.55634
 20
15.5563
 11
-5.32974
 21
15.7417
  0
LINE
  8
0
 10
-5.32974
 20
15.7417
 11
-5.07111
 21
15.88
  0
LINE
  8
0
 10
-5.07111
 20
15.88
 11
-4.79141
 21
15.9647
  0
LINE
  8
0
 10
-4.79141
 20
15.9647
 11
-4.4989
 21
15.9935
  0
LINE
  8
0
 10
-4.4989
 20
15.9935
 11
-1.49323
 21
15.9944
  0
LINE
  8
0
 10
-1.49323
 20
15.9944
 11
-1.49323
 21
22.0062
  0
LINE
  8
0
 10
-1.49323
 20
22.0062
 11
-2.99332
 21
22.0067
  0
LINE
  8
0
 10
-2.99332
 20
22.0067
 11
-2.99377
 21
23.5068
  0
LINE
  8
0
 10
-2.99377
 20
23.5068
 11
-9.0065
 21
23.5068
  0
LINE
  8
0
 10
-9.0065
 20
23.5068
 11
-9.0065
 21
20.5002
  0
LINE
  8
0
 10
-9.0065
 20
20.5002
 11
-9.03534
 21
20.2077
  0
LINE
  8
0
 10
-9.03534
 20
20.2077
 11
-9.12003
 21
19.9289
  0
LINE
  8
0
 10
-9.12003
 20
19.9289
 11
-9.25873
 21
19.6698
  0
LINE
  8
0
 10
-9.25873
 20
19.6698
 11
-9.44412
 21
19.4432
  0
LINE
  8
0
 10
-9.44412
 20
19.4432
 11
-9.67026
 21
19.2583
  0
LINE
  8
0
 10
-9.67026
 20
19.2583
 11
-9.92889
 21
19.12
  0
LINE
  8
0
 10
-9.92889
 20
19.12
 11
-10.2086
 21
19.0353
  0
LINE
  8
0
 10
-10.2086
 20
19.0353
 11
-10.5011
 21
19.0065
  0
LINE
  8
0
 10
-10.5011
 20
19.0065
 11
-13.494
 21
19.0065
  0
LINE
  8
0
 10
-13.494
 20
19.0065
 11
-13.494
 21
20.4938
  0
LINE
  8
0
 10
-13.494
 20
20.4938
 11
-12.0003
 21
20.4938
  0
LINE
  8
0
 10
-12.0003
 20
20.4938
 11
-11.7068
 21
20.5226
  0
LINE
  8
0
 10
-11.7068
 20
20.5226
 11
-11.4235
 21
20.6091
  0
LINE
  8
0
 10
-11.4235
 20
20.6091
 11
-11.163
 21
20.7483
  0
LINE
  8
0
 10
-11.163
 20
20.7483
 11
-10.9351
 21
20.9351
  0
LINE
  8
0
 10
-10.9351
 20
20.9351
 11
-10.7483
 21
21.163
  0
LINE
  8
0
 10
-10.7483
 20
21.163
 11
-10.6091
 21
21.4235
  0
LINE
  8
0
 10
-10.6091
 20
21.4235
 11
-10.5235
 21
21.7068
  0
LINE
  8
0
 10
-10.5235
 20
21.7068
 11
-10.4938
 21
21.9994
  0
LINE
  8
0
 10
-10.4938
 20
21.9994
 11
-10.4938
 21
24.9936
  0
LINE
  8
0
 10
-10.4938
 20
24.9936
 11
-1.5065
 21
24.9936
  0
LINE
  8
0
 10
-1.5065
 20
24.9936
 11
-1.5065
 21
23.5022
  0
LINE
  8
0
 10
-1.5065
 20
23.5022
 11
-1.51474
 21
23.4935
  0
LINE
  8
0
 10
-1.51474
 20
23.4935
 11
-1.5065
 21
23.4935
  0
LINE
  8
0
 10
-1.5065
 20
23.4935
 11
-1.5065
 21
23.4853
  0
LINE
  8
0
 10
-1.5065
 20
23.4853
 11
-1.4978
 21
23.4935
  0
LINE
  8
0
 10
-1.4978
 20
23.4935
 11
-0.00640869
 21
23.4935
  0
LINE
  8
0
 10
-0.00640869
 20
23.4935
 11
-0.00640869
 21
14.5062
  0
LINE
  8
0
 10
-0.00640869
 20
14.5062
 11
-2.99973
 21
14.5062
  0
LINE
  8
0
 10
-2.99973
 20
14.5062
 11
-3.29315
 21
14.4774
  0
LINE
  8
0
 10
-3.29315
 20
14.4774
 11
-3.57651
 21
14.3909
  0
LINE
  8
0
 10
-3.57651
 20
14.3909
 11
-3.83698
 21
14.2517
  0
LINE
  8
0
 10
-3.83698
 20
14.2517
 11
-4.06494
 21
14.0649
  0
LINE
  8
0
 10
-4.06494
 20
14.0649
 11
-4.25171
 21
13.837
  0
LINE
  8
0
 10
-4.25171
 20
13.837
 11
-4.39087
 21
13.5765
  0
LINE
  8
0
 10
-4.39087
 20
13.5765
 11
-4.47647
 21
13.2932
  0
LINE
  8
0
 10
-4.47647
 20
13.2932
 11
-4.50623
 21
13.0006
  0
LINE
  8
0
 10
-4.50623
 20
13.0006
 11
-4.50623
 21
12
  0
LINE
  8
0
 10
-4.50623
 20
12
 11
-5.9935
 21
12
  0
LINE
  8
0
 10
-35.9935
 20
12
 11
-35.9935
 21
14.4998
  0
LINE
  8
0
 10
-35.9935
 20
14.4998
 11
-35.9647
 21
14.7923
  0
LINE
  8
0
 10
-35.9647
 20
14.7923
 11
-35.88
 21
15.0711
  0
LINE
  8
0
 10
-35.88
 20
15.0711
 11
-35.7417
 21
15.3297
  0
LINE
  8
0
 10
-35.7417
 20
15.3297
 11
-35.5563
 21
15.5563
  0
LINE
  8
0
 10
-35.5563
 20
15.5563
 11
-35.3297
 21
15.7417
  0
LINE
  8
0
 10
-35.3297
 20
15.7417
 11
-35.0711
 21
15.88
  0
LINE
  8
0
 10
-35.0711
 20
15.88
 11
-34.7914
 21
15.9647
  0
LINE
  8
0
 10
-34.7914
 20
15.9647
 11
-34.4989
 21
15.9935
  0
LINE
  8
0
 10
-34.4989
 20
15.9935
 11
-31.4932
 21
15.9944
  0
LINE
  8
0
 10
-31.4932
 20
15.9944
 11
-31.4932
 21
22.0062
  0
LINE
  8
0
 10
-31.4932
 20
22.0062
 11
-32.9933
 21
22.0067
  0
LINE
  8
0
 10
-32.9933
 20
22.0067
 11
-32.9938
 21
23.5068
  0
LINE
  8
0
 10
-32.9938
 20
23.5068
 11
-39.0065
 21
23.5068
  0
LINE
  8
0
 10
-39.0065
 20
23.5068
 11
-39.0065
 21
20.5002
  0
LINE
  8
0
 10
-39.0065
 20
20.5002
 11
-39.0353
 21
20.2077
  0
LINE
  8
0
 10
-39.0353
 20
20.2077
 11
-39.12
 21
19.9289
  0
LINE
  8
0
 10
-39.12
 20
19.9289
 11
-39.2587
 21
19.6698
  0
LINE
  8
0
 10
-39.2587
 20
19.6698
 11
-39.4441
 21
19.4432
  0
LINE
  8
0
 10
-39.4441
 20
19.4432
 11
-39.6703
 21
19.2583
  0
LINE
  8
0
 10
-39.6703
 20
19.2583
 11
-39.9289
 21
19.12
  0
LINE
  8
0
 10
-39.9289
 20
19.12
 11
-40.2086
 21
19.0353
  0
LINE
  8
0
 10
-40.2086
 20
19.0353
 11
-40.5011
 21
19.0065
  0
LINE
  8
0
 10
-40.5011
 20
19.0065
 11
-43.494
 21
19.0065
  0
LINE
  8
0
 10
-43.494
 20
19.0065
 11
-43.494
 21
20.4938
  0
LINE
  8
0
 10
-43.494
 20
20.4938
 11
-42.0003
 21
20.4938
  0
LINE
  8
0
 10
-42.0003
 20
20.4938
 11
-41.7068
 21
20.5226
  0
LINE
  8
0
 10
-41.7068
 20
20.5226
 11
-41.4235
 21
20.6091
  0
LINE
  8
0
 10
-41.4235
 20
20.6091
 11
-41.163
 21
20.7483
  0
LINE
  8
0
 10
-41.163
 20
20.7483
 11
-40.9351
 21
20.9351
  0
LINE
  8
0
 10
-40.9351
 20
20.9351
 11
-40.7483
 21
21.163
  0
LINE
  8
0
 10
-40.7483
 20
21.163
 11
-40.6091
 21
21.4235
  0
LINE
  8
0
 10
-40.6091
 20
21.4235
 11
-40.5235
 21
21.7068
  0
LINE
  8
0
 10
-40.5235
 20
21.7068
 11
-40.4938
 21
21.9994
  0
LINE
  8
0
 10
-40.4938
 20
21.9994
 11
-40.4938
 21
24.9936
  0
LINE
  8
0
 10
-40.4938
 20
24.9936
 11
-31.5065
 21
24.9936
  0
LINE
  8
0
 10
-31.5065
 20
24.9936
 11
-31.5065
 21
23.5022
  0
LINE
  8
0
 10
-31.5065
 20
23.5022
 11
-31.5147
 21
23.4935
  0
LINE
  8
0
 10
-31.5147
 20
23.4935
 11
-31.5065
 21
23.4935
  0
LINE
  8
0
 10
-31.5065
 20
23.4935
 11
-31.5065
 21
23.4853
  0
LINE
  8
0
 10
-31.5065
 20
23.4853
 11
-31.4978
 21
23.4935
  0
LINE
  8
0
 10
-31.4978
 20
23.4935
 11
-30.0064
 21
23.4935
  0
LINE
  8
0
 10
-30.0064
 20
23.4935
 11
-30.0064
 21
14.5062
  0
LINE
  8
0
 10
-30.0064
 20
14.5062
 11
-32.9997
 21
14.5062
  0
LINE
  8
0
 10
-32.9997
 20
14.5062
 11
-33.2932
 21
14.4774
  0
LINE
  8
0
 10
-33.2932
 20
14.4774
 11
-33.5765
 21
14.3909
  0
LINE
  8
0
 10
-33.5765
 20
14.3909
 11
-33.837
 21
14.2517
  0
LINE
  8
0
 10
-33.837
 20
14.2517
 11
-34.0649
 21
14.0649
  0
LINE
  8
0
 10
-34.0649
 20
14.0649
 11
-34.2517
 21
13.837
  0
LINE
  8
0
 10
-34.2517
 20
13.837
 11
-34.3909
 21
13.5765
  0
LINE
  8
0
 10
-34.3909
 20
13.5765
 11
-34.4765
 21
13.2932
  0
LINE
  8
0
 10
-34.4765
 20
13.2932
 11
-34.5062
 21
13.0006
  0
LINE
  8
0
 10
-34.5062
 20
13.0006
 11
-34.5062
 21
12
  0
LINE
  8
0
 10
-34.5062
 20
12
 11
-35.9935
 21
12
  0
LINE
  8
0
 10
42.0064
 20
12
 11
42.0067
 21
12.9933
  0
LINE
  8
0
 10
42.0067
 20
12.9933
 11
43.5068
 21
12.9938
  0
LINE
  8
0
 10
43.5068
 20
12.9938
 11
43.5068
 21
19.0065
  0
LINE
  8
0
 10
43.5068
 20
19.0065
 11
40.5002
 21
19.0065
  0
LINE
  8
0
 10
40.5002
 20
19.0065
 11
40.2077
 21
19.0353
  0
LINE
  8
0
 10
40.2077
 20
19.0353
 11
39.9289
 21
19.12
  0
LINE
  8
0
 10
39.9289
 20
19.12
 11
39.6698
 21
19.2587
  0
LINE
  8
0
 10
39.6698
 20
19.2587
 11
39.4432
 21
19.4441
  0
LINE
  8
0
 10
39.4432
 20
19.4441
 11
39.2578
 21
19.6707
  0
LINE
  8
0
 10
39.2578
 20
19.6707
 11
39.12
 21
19.9289
  0
LINE
  8
0
 10
39.12
 20
19.9289
 11
39.0353
 21
20.2086
  0
LINE
  8
0
 10
39.0353
 20
20.2086
 11
39.0065
 21
20.5011
  0
LINE
  8
0
 10
39.0065
 20
20.5011
 11
39.0065
 21
23.494
  0
LINE
  8
0
 10
39.0065
 20
23.494
 11
40.4938
 21
23.494
  0
LINE
  8
0
 10
40.4938
 20
23.494
 11
40.4938
 21
22.0003
  0
LINE
  8
0
 10
40.4938
 20
22.0003
 11
40.5226
 21
21.7068
  0
LINE
  8
0
 10
40.5226
 20
21.7068
 11
40.6091
 21
21.4235
  0
LINE
  8
0
 10
40.6091
 20
21.4235
 11
40.7483
 21
21.163
  0
LINE
  8
0
 10
40.7483
 20
21.163
 11
40.9351
 21
20.9351
  0
LINE
  8
0
 10
40.9351
 20
20.9351
 11
41.163
 21
20.7483
  0
LINE
  8
0
 10
41.163
 20
20.7483
 11
41.4235
 21
20.6091
  0
LINE
  8
0
 10
41.4235
 20
20.6091
 11
41.7068
 21
20.5235
  0
LINE
  8
0
 10
41.7068
 20
20.5235
 11
41.9994
 21
20.4938
  0
LINE
  8
0
 10
41.9994
 20
20.4938
 11
44.9936
 21
20.4938
  0
LINE
  8
0
 10
44.9936
 20
20.4938
 11
44.9936
 21
12
  0
LINE
  8
0
 10
44.9936
 20
12
 11
42.0064
 21
12
  0
LINE
  8
0
 10
-17.9936
 20
12
 11
-17.9933
 21
12.9933
  0
LINE
  8
0
 10
-17.9933
 20
12.9933
 11
-16.4932
 21
12.9938
  0
LINE
  8
0
 10
-16.4932
 20
12.9938
 11
-16.4932
 21
19.0065
  0
LINE
  8
0
 10
-16.4932
 20
19.0065
 11
-19.4998
 21
19.0065
  0
LINE
  8
0
 10
-19.4998
 20
19.0065
 11
-19.7923
 21
19.0353
  0
LINE
  8
0
 10
-19.7923
 20
19.0353
 11
-20.0711
 21
19.12
  0
LINE
  8
0
 10
-20.0711
 20
19.12
 11
-20.3302
 21
19.2587
  0
LINE
  8
0
 10
-20.3302
 20
19.2587
 11
-20.5568
 21
19.4441
  0
LINE
  8
0
 10
-20.5568
 20
19.4441
 11
-20.7422
 21
19.6707
  0
LINE
  8
0
 10
-20.7422
 20
19.6707
 11
-20.88
 21
19.9289
  0
LINE
  8
0
 10
-20.88
 20
19.9289
 11
-20.9647
 21
20.2086
  0
LINE
  8
0
 10
-20.9647
 20
20.2086
 11
-20.9935
 21
20.5011
  0
LINE
  8
0
 10
-20.9935
 20
20.5011
 11
-20.9935
 21
23.494
  0
LINE
  8
0
 10
-20.9935
 20
23.494
 11
-19.5062
 21
23.494
  0
LINE
  8
0
 10
-19.5062
 20
23.494
 11
-19.5062
 21
22.0003
  0
LINE
  8
0
 10
-19.5062
 20
22.0003
 11
-19.4774
 21
21.7068
  0
LINE
  8
0
 10
-19.4774
 20
21.7068
 11
-19.3909
 21
21.4235
  0
LINE
  8
0
 10
-19.3909
 20
21.4235
 11
-19.2517
 21
21.163
  0
LINE
  8
0
 10
-19.2517
 20
21.163
 11
-19.0649
 21
20.9351
  0
LINE
  8
0
 10
-19.0649
 20
20.9351
 11
-18.837
 21
20.7483
  0
LINE
  8
0
 10
-18.837
 20
20.7483
 11
-18.5765
 21
20.6091
  0
LINE
  8
0
 10
-18.5765
 20
20.6091
 11
-18.2932
 21
20.5235
  0
LINE
  8
0
 10
-18.2932
 20
20.5235
 11
-18.0006
 21
20.4938
  0
LINE
  8
0
 10
-18.0006
 20
20.4938
 11
-15.0064
 21
20.4938
  0
LINE
  8
0
 10
-15.0064
 20
20.4938
 11
-15.0064
 21
12
  0
LINE
  8
0
 10
-15.0064
 20
12
 11
-17.9936
 21
12
  0
LINE
  8
0
 10
12.0064
 20
12
 11
12.0067
 21
12.9933
  0
LINE
  8
0
 10
12.0067
 20
12.9933
 11
13.5068
 21
12.9938
  0
LINE
  8
0
 10
13.5068
 20
12.9938
 11
13.5068
 21
19.0065
  0
LINE
  8
0
 10
13.5068
 20
19.0065
 11
10.5002
 21
19.0065
  0
LINE
  8
0
 10
10.5002
 20
19.0065
 11
10.2077
 21
19.0353
  0
LINE
  8
0
 10
10.2077
 20
19.0353
 11
9.92889
 21
19.12
  0
LINE
  8
0
 10
9.92889
 20
19.12
 11
9.6698
 21
19.2587
  0
LINE
  8
0
 10
9.6698
 20
19.2587
 11
9.44321
 21
19.4441
  0
LINE
  8
0
 10
9.44321
 20
19.4441
 11
9.25781
 21
19.6707
  0
LINE
  8
0
 10
9.25781
 20
19.6707
 11
9.12003
 21
19.9289
  0
LINE
  8
0
 10
9.12003
 20
19.9289
 11
9.03534
 21
20.2086
  0
LINE
  8
0
 10
9.03534
 20
20.2086
 11
9.0065
 21
20.5011
  0
LINE
  8
0
 10
9.0065
 20
20.5011
 11
9.0065
 21
23.494
  0
LINE
  8
0
 10
9.0065
 20
23.494
 11
10.4938
 21
23.494
  0
LINE
  8
0
 10
10.4938
 20
23.494
 11
10.4938
 21
22.0003
  0
LINE
  8
0
 10
10.4938
 20
22.0003
 11
10.5226
 21
21.7068
  0
LINE
  8
0
 10
10.5226
 20
21.7068
 11
10.6091
 21
21.4235
  0
LINE
  8
0
 10
10.6091
 20
21.4235
 11
10.7483
 21
21.163
  0
LINE
  8
0
 10
10.7483
 20
21.163
 11
10.9351
 21
20.9351
  0
LINE
  8
0
 10
10.9351
 20
20.9351
 11
11.163
 21
20.7483
  0
LINE
  8
0
 10
11.163
 20
20.7483
 11
11.4235
 21
20.6091
  0
LINE
  8
0
 10
11.4235
 20
20.6091
 11
11.7068
 21
20.5235
  0
LINE
  8
0
 10
11.7068
 20
20.5235
 11
11.9994
 21
20.4938
  0
LINE
  8
0
 10
11.9994
 20
20.4938
 11
14.9936
 21
20.4938
  0
LINE
  8
0
 10
14.9936
 20
20.4938
 11
14.9936
 21
12
  0
LINE
  8
0
 10
14.9936
 20
12
 11
12.0064
 21
12
  0
LINE
  8
0
 10
-47.9936
 20
12
 11
-47.9933
 21
12.9933
  0
LINE
  8
0
 10
-47.9933
 20
12.9933
 11
-46.4932
 21
12.9938
  0
LINE
  8
0
 10
-46.4932
 20
12.9938
 11
-46.4932
 21
19.0065
  0
LINE
  8
0
 10
-46.4932
 20
19.0065
 11
-49.4998
 21
19.0065
  0
LINE
  8
0
 10
-49.4998
 20
19.0065
 11
-49.7923
 21
19.0353
  0
LINE
  8
0
 10
-49.7923
 20
19.0353
 11
-50.0711
 21
19.12
  0
LINE
  8
0
 10
-50.0711
 20
19.12
 11
-50.3302
 21
19.2587
  0
LINE
  8
0
 10
-50.3302
 20
19.2587
 11
-50.5568
 21
19.4441
  0
LINE
  8
0
 10
-50.5568
 20
19.4441
 11
-50.7422
 21
19.6707
  0
LINE
  8
0
 10
-50.7422
 20
19.6707
 11
-50.88
 21
19.9289
  0
LINE
  8
0
 10
-50.88
 20
19.9289
 11
-50.9647
 21
20.2086
  0
LINE
  8
0
 10
-50.9647
 20
20.2086
 11
-50.9935
 21
20.5011
  0
LINE
  8
0
 10
-50.9935
 20
20.5011
 11
-50.9935
 21
23.494
  0
LINE
  8
0
 10
-50.9935
 20
23.494
 11
-49.5062
 21
23.494
  0
LINE
  8
0
 10
-49.5062
 20
23.494
 11
-49.5062
 21
22.0003
  0
LINE
  8
0
 10
-49.5062
 20
22.0003
 11
-49.4774
 21
21.7068
  0
LINE
  8
0
 10
-49.4774
 20
21.7068
 11
-49.3909
 21
21.4235
  0
LINE
  8
0
 10
-49.3909
 20
21.4235
 11
-49.2517
 21
21.163
  0
LINE
  8
0
 10
-49.2517
 20
21.163
 11
-49.0649
 21
20.9351
  0
LINE
  8
0
 10
-49.0649
 20
20.9351
 11
-48.837
 21
20.7483
  0
LINE
  8
0
 10
-48.837
 20
20.7483
 11
-48.5765
 21
20.6091
  0
LINE
  8
0
 10
-48.5765
 20
20.6091
 11
-48.2932
 21
20.5235
  0
LINE
  8
0
 10
-48.2932
 20
20.5235
 11
-48.0006
 21
20.4938
  0
LINE
  8
0
 10
-48.0006
 20
20.4938
 11
-45.0064
 21
20.4938
  0
LINE
  8
0
 10
-45.0064
 20
20.4938
 11
-45.0064
 21
12
  0
LINE
  8
0
 10
-45.0064
 20
12
 11
-47.9936
 21
12
  0
LINE
  8
0
 10
54.0065
 20
12
 11
54.0065
 21
14.4998
  0
LINE
  8
0
 10
54.0065
 20
14.4998
 11
54.0353
 21
14.7923
  0
LINE
  8
0
 10
54.0353
 20
14.7923
 11
54.12
 21
15.0711
  0
LINE
  8
0
 10
54.12
 20
15.0711
 11
54.2583
 21
15.3297
  0
LINE
  8
0
 10
54.2583
 20
15.3297
 11
54.4437
 21
15.5563
  0
LINE
  8
0
 10
54.4437
 20
15.5563
 11
54.6703
 21
15.7417
  0
LINE
  8
0
 10
54.6703
 20
15.7417
 11
54.9289
 21
15.88
  0
LINE
  8
0
 10
54.9289
 20
15.88
 11
55.2086
 21
15.9647
  0
LINE
  8
0
 10
55.2086
 20
15.9647
 11
55.5011
 21
15.9935
  0
LINE
  8
0
 10
55.5011
 20
15.9935
 11
57.1857
 21
15.994
  0
LINE
  8
0
 10
57.1857
 20
15.994
 11
57.6691
 21
14.5062
  0
LINE
  8
0
 10
57.6691
 20
14.5062
 11
57.0003
 21
14.5062
  0
LINE
  8
0
 10
57.0003
 20
14.5062
 11
56.7068
 21
14.4774
  0
LINE
  8
0
 10
56.7068
 20
14.4774
 11
56.4235
 21
14.3909
  0
LINE
  8
0
 10
56.4235
 20
14.3909
 11
56.163
 21
14.2517
  0
LINE
  8
0
 10
56.163
 20
14.2517
 11
55.9351
 21
14.0649
  0
LINE
  8
0
 10
55.9351
 20
14.0649
 11
55.7483
 21
13.837
  0
LINE
  8
0
 10
55.7483
 20
13.837
 11
55.6091
 21
13.5765
  0
LINE
  8
0
 10
55.6091
 20
13.5765
 11
55.5235
 21
13.2932
  0
LINE
  8
0
 10
55.5235
 20
13.2932
 11
55.4938
 21
13.0006
  0
LINE
  8
0
 10
55.4938
 20
13.0006
 11
55.4938
 21
12
  0
LINE
  8
0
 10
55.4938
 20
12
 11
54.0065
 21
12
  0
LINE
  8
0
 10
-25.4938
 20
12
 11
-25.4938
 21
12.9997
  0
LINE
  8
0
 10
-25.4938
 20
12.9997
 11
-25.5226
 21
13.2932
  0
LINE
  8
0
 10
-25.5226
 20
13.2932
 11
-25.6091
 21
13.5765
  0
LINE
  8
0
 10
-25.6091
 20
13.5765
 11
-25.7483
 21
13.837
  0
LINE
  8
0
 10
-25.7483
 20
13.837
 11
-25.9351
 21
14.0649
  0
LINE
  8
0
 10
-25.9351
 20
14.0649
 11
-26.163
 21
14.2517
  0
LINE
  8
0
 10
-26.163
 20
14.2517
 11
-26.4235
 21
14.3909
  0
LINE
  8
0
 10
-26.4235
 20
14.3909
 11
-26.7068
 21
14.4765
  0
LINE
  8
0
 10
-26.7068
 20
14.4765
 11
-26.9994
 21
14.5062
  0
LINE
  8
0
 10
-26.9994
 20
14.5062
 11
-28.494
 21
14.5062
  0
LINE
  8
0
 10
-28.494
 20
14.5062
 11
-28.494
 21
15.9935
  0
LINE
  8
0
 10
-28.494
 20
15.9935
 11
-25.5002
 21
15.9935
  0
LINE
  8
0
 10
-25.5002
 20
15.9935
 11
-25.2077
 21
15.9647
  0
LINE
  8
0
 10
-25.2077
 20
15.9647
 11
-24.9289
 21
15.88
  0
LINE
  8
0
 10
-24.9289
 20
15.88
 11
-24.6698
 21
15.7413
  0
LINE
  8
0
 10
-24.6698
 20
15.7413
 11
-24.4432
 21
15.5559
  0
LINE
  8
0
 10
-24.4432
 20
15.5559
 11
-24.2578
 21
15.3293
  0
LINE
  8
0
 10
-24.2578
 20
15.3293
 11
-24.12
 21
15.0711
  0
LINE
  8
0
 10
-24.12
 20
15.0711
 11
-24.0353
 21
14.7914
  0
LINE
  8
0
 10
-24.0353
 20
14.7914
 11
-24.0065
 21
14.4989
  0
LINE
  8
0
 10
-24.0065
 20
14.4989
 11
-24.0057
 21
12
  0
LINE
  8
0
 10
-24.0057
 20
12
 11
-25.4938
 21
12
  0
LINE
  8
0
 10
4.50623
 20
12
 11
4.50623
 21
12.9997
  0
LINE
  8
0
 10
4.50623
 20
12.9997
 11
4.47739
 21
13.2932
  0
LINE
  8
0
 10
4.47739
 20
13.2932
 11
4.39087
 21
13.5765
  0
LINE
  8
0
 10
4.39087
 20
13.5765
 11
4.25171
 21
13.837
  0
LINE
  8
0
 10
4.25171
 20
13.837
 11
4.06494
 21
14.0649
  0
LINE
  8
0
 10
4.06494
 20
14.0649
 11
3.83698
 21
14.2517
  0
LINE
  8
0
 10
3.83698
 20
14.2517
 11
3.57651
 21
14.3909
  0
LINE
  8
0
 10
3.57651
 20
14.3909
 11
3.29315
 21
14.4765
  0
LINE
  8
0
 10
3.29315
 20
14.4765
 11
3.00064
 21
14.5062
  0
LINE
  8
0
 10
3.00064
 20
14.5062
 11
1.50604
 21
14.5062
  0
LINE
  8
0
 10
1.50604
 20
14.5062
 11
1.50604
 21
15.9935
  0
LINE
  8
0
 10
1.50604
 20
15.9935
 11
4.49982
 21
15.9935
  0
LINE
  8
0
 10
4.49982
 20
15.9935
 11
4.79233
 21
15.9647
  0
LINE
  8
0
 10
4.79233
 20
15.9647
 11
5.07111
 21
15.88
  0
LINE
  8
0
 10
5.07111
 20
15.88
 11
5.3302
 21
15.7413
  0
LINE
  8
0
 10
5.3302
 20
15.7413
 11
5.55679
 21
15.5559
  0
LINE
  8
0
 10
5.55679
 20
15.5559
 11
5.74219
 21
15.3293
  0
LINE
  8
0
 10
5.74219
 20
15.3293
 11
5.87997
 21
15.0711
  0
LINE
  8
0
 10
5.87997
 20
15.0711
 11
5.96466
 21
14.7914
  0
LINE
  8
0
 10
5.96466
 20
14.7914
 11
5.9935
 21
14.4989
  0
LINE
  8
0
 10
5.9935
 20
14.4989
 11
5.99426
 21
12
  0
LINE
  8
0
 10
5.99426
 20
12
 11
4.50623
 21
12
  0
LINE
  8
0
 10
34.5062
 20
12
 11
34.5062
 21
12.9997
  0
LINE
  8
0
 10
34.5062
 20
12.9997
 11
34.4774
 21
13.2932
  0
LINE
  8
0
 10
34.4774
 20
13.2932
 11
34.3909
 21
13.5765
  0
LINE
  8
0
 10
34.3909
 20
13.5765
 11
34.2517
 21
13.837
  0
LINE
  8
0
 10
34.2517
 20
13.837
 11
34.0649
 21
14.0649
  0
LINE
  8
0
 10
34.0649
 20
14.0649
 11
33.837
 21
14.2517
  0
LINE
  8
0
 10
33.837
 20
14.2517
 11
33.5765
 21
14.3909
  0
LINE
  8
0
 10
33.5765
 20
14.3909
 11
33.2932
 21
14.4765
  0
LINE
  8
0
 10
33.2932
 20
14.4765
 11
33.0006
 21
14.5062
  0
LINE
  8
0
 10
33.0006
 20
14.5062
 11
31.506
 21
14.5062
  0
LINE
  8
0
 10
31.506
 20
14.5062
 11
31.506
 21
15.9935
  0
LINE
  8
0
 10
31.506
 20
15.9935
 11
34.4998
 21
15.9935
  0
LINE
  8
0
 10
34.4998
 20
15.9935
 11
34.7923
 21
15.9647
  0
LINE
  8
0
 10
34.7923
 20
15.9647
 11
35.0711
 21
15.88
  0
LINE
  8
0
 10
35.0711
 20
15.88
 11
35.3302
 21
15.7413
  0
LINE
  8
0
 10
35.3302
 20
15.7413
 11
35.5568
 21
15.5559
  0
LINE
  8
0
 10
35.5568
 20
15.5559
 11
35.7422
 21
15.3293
  0
LINE
  8
0
 10
35.7422
 20
15.3293
 11
35.88
 21
15.0711
  0
LINE
  8
0
 10
35.88
 20
15.0711
 11
35.9647
 21
14.7914
  0
LINE
  8
0
 10
35.9647
 20
14.7914
 11
35.9935
 21
14.4989
  0
LINE
  8
0
 10
35.9935
 20
14.4989
 11
35.9943
 21
12
  0
LINE
  8
0
 10
35.9943
 20
12
 11
34.5062
 21
12
  0
LINE
  8
0
 10
-55.4938
 20
12
 11
-55.4938
 21
12.9997
  0
LINE
  8
0
 10
-55.4938
 20
12.9997
 11
-55.5226
 21
13.2932
  0
LINE
  8
0
 10
-55.5226
 20
13.2932
 11
-55.6091
 21
13.5765
  0
LINE
  8
0
 10
-55.6091
 20
13.5765
 11
-55.7483
 21
13.837
  0
LINE
  8
0
 10
-55.7483
 20
13.837
 11
-55.9351
 21
14.0649
  0
LINE
  8
0
 10
-55.9351
 20
14.0649
 11
-56.163
 21
14.2517
  0
LINE
  8
0
 10
-56.163
 20
14.2517
 11
-56.4235
 21
14.3909
  0
LINE
  8
0
 10
-56.4235
 20
14.3909
 11
-56.7068
 21
14.4765
  0
LINE
  8
0
 10
-56.7068
 20
14.4765
 11
-56.9994
 21
14.5062
  0
LINE
  8
0
 10
-56.9994
 20
14.5062
 11
-57.6691
 21
14.5062
  0
LINE
  8
0
 10
-57.6691
 20
14.5062
 11
-57.1859
 21
15.9935
  0
LINE
  8
0
 10
-57.1859
 20
15.9935
 11
-55.5002
 21
15.9935
  0
LINE
  8
0
 10
-55.5002
 20
15.9935
 11
-55.2077
 21
15.9647
  0
LINE
  8
0
 10
-55.2077
 20
15.9647
 11
-54.9289
 21
15.88
  0
LINE
  8
0
 10
-54.9289
 20
15.88
 11
-54.6698
 21
15.7413
  0
LINE
  8
0
 10
-54.6698
 20
15.7413
 11
-54.4432
 21
15.5559
  0
LINE
  8
0
 10
-54.4432
 20
15.5559
 11
-54.2578
 21
15.3293
  0
LINE
  8
0
 10
-54.2578
 20
15.3293
 11
-54.12
 21
15.0711
  0
LINE
  8
0
 10
-54.12
 20
15.0711
 11
-54.0353
 21
14.7914
  0
LINE
  8
0
 10
-54.0353
 20
14.7914
 11
-54.0065
 21
14.4989
  0
LINE
  8
0
 10
-54.0065
 20
14.4989
 11
-54.0057
 21
12
  0
LINE
  8
0
 10
-54.0057
 20
12
 11
-55.4938
 21
12
  0
LINE
  8
0
 10
-10
 20
7
 11
-10
 21
11
  0
LINE
  8
0
 10
-10
 20
11
 11
10
 21
11
  0
LINE
  8
0
 10
10
 20
11
 11
10
 21
7
  0
LINE
  8
0
 10
10
 20
7
 11
-10
 21
7
  0
LINE
  8
0
 10
-68.6534
 20
2.70622
 11
-68.7785
 21
2.71805
  0
LINE
  8
0
 10
-68.7785
 20
2.71805
 11
-68.9026
 21
2.7377
  0
LINE
  8
0
 10
-68.9026
 20
2.7377
 11
-69.0252
 21
2.76511
  0
LINE
  8
0
 10
-69.0252
 20
2.76511
 11
-69.1459
 21
2.80016
  0
LINE
  8
0
 10
-69.1459
 20
2.80016
 11
-69.2641
 21
2.84273
  0
LINE
  8
0
 10
-69.2641
 20
2.84273
 11
-69.3794
 21
2.89262
  0
LINE
  8
0
 10
-69.3794
 20
2.89262
 11
-69.4914
 21
2.94966
  0
LINE
  8
0
 10
-69.4914
 20
2.94966
 11
-69.5995
 21
3.01363
  0
LINE
  8
0
 10
-69.5995
 20
3.01363
 11
-69.7034
 21
3.08424
  0
LINE
  8
0
 10
-69.7034
 20
3.08424
 11
-69.8027
 21
3.16125
  0
LINE
  8
0
 10
-69.8027
 20
3.16125
 11
-69.897
 21
3.24434
  0
LINE
  8
0
 10
-69.897
 20
3.24434
 11
-69.9858
 21
3.33318
  0
LINE
  8
0
 10
-69.9858
 20
3.33318
 11
-70.0689
 21
3.42743
  0
LINE
  8
0
 10
-70.0689
 20
3.42743
 11
-70.1459
 21
3.5267
  0
LINE
  8
0
 10
-70.1459
 20
3.5267
 11
-70.2165
 21
3.63062
  0
LINE
  8
0
 10
-70.2165
 20
3.63062
 11
-70.2805
 21
3.73877
  0
LINE
  8
0
 10
-70.2805
 20
3.73877
 11
-70.3375
 21
3.85072
  0
LINE
  8
0
 10
-70.3375
 20
3.85072
 11
-70.3874
 21
3.96602
  0
LINE
  8
0
 10
-70.3874
 20
3.96602
 11
-70.43
 21
4.08424
  0
LINE
  8
0
 10
-70.43
 20
4.08424
 11
-70.465
 21
4.2049
  0
LINE
  8
0
 10
-70.465
 20
4.2049
 11
-70.4924
 21
4.32751
  0
LINE
  8
0
 10
-70.4924
 20
4.32751
 11
-70.5121
 21
4.45161
  0
LINE
  8
0
 10
-70.5121
 20
4.45161
 11
-70.5239
 21
4.57669
  0
LINE
  8
0
 10
-70.5239
 20
4.57669
 11
-70.5279
 21
4.70227
  0
LINE
  8
0
 10
-70.5279
 20
4.70227
 11
-70.5239
 21
4.82785
  0
LINE
  8
0
 10
-70.5239
 20
4.82785
 11
-70.5121
 21
4.95294
  0
LINE
  8
0
 10
-70.5121
 20
4.95294
 11
-70.4924
 21
5.07704
  0
LINE
  8
0
 10
-70.4924
 20
5.07704
 11
-70.465
 21
5.19966
  0
LINE
  8
0
 10
-70.465
 20
5.19966
 11
-70.43
 21
5.32031
  0
LINE
  8
0
 10
-70.43
 20
5.32031
 11
-70.3874
 21
5.43852
  0
LINE
  8
0
 10
-70.3874
 20
5.43852
 11
-70.3375
 21
5.55383
  0
LINE
  8
0
 10
-70.3375
 20
5.55383
 11
-70.2805
 21
5.66579
  0
LINE
  8
0
 10
-70.2805
 20
5.66579
 11
-70.2165
 21
5.77393
  0
LINE
  8
0
 10
-70.2165
 20
5.77393
 11
-70.1459
 21
5.87784
  0
LINE
  8
0
 10
-70.1459
 20
5.87784
 11
-70.0689
 21
5.97713
  0
LINE
  8
0
 10
-70.0689
 20
5.97713
 11
-69.9858
 21
6.07137
  0
LINE
  8
0
 10
-69.9858
 20
6.07137
 11
-69.897
 21
6.16022
  0
LINE
  8
0
 10
-69.897
 20
6.16022
 11
-69.8027
 21
6.2433
  0
LINE
  8
0
 10
-69.8027
 20
6.2433
 11
-69.7034
 21
6.32031
  0
LINE
  8
0
 10
-69.7034
 20
6.32031
 11
-69.5995
 21
6.39093
  0
LINE
  8
0
 10
-69.5995
 20
6.39093
 11
-69.4914
 21
6.4549
  0
LINE
  8
0
 10
-69.4914
 20
6.4549
 11
-69.3794
 21
6.51193
  0
LINE
  8
0
 10
-69.3794
 20
6.51193
 11
-69.2641
 21
6.56183
  0
LINE
  8
0
 10
-69.2641
 20
6.56183
 11
-69.1459
 21
6.60439
  0
LINE
  8
0
 10
-69.1459
 20
6.60439
 11
-69.0252
 21
6.63943
  0
LINE
  8
0
 10
-69.0252
 20
6.63943
 11
-68.9026
 21
6.66685
  0
LINE
  8
0
 10
-68.9026
 20
6.66685
 11
-68.7785
 21
6.68651
  0
LINE
  8
0
 10
-68.7785
 20
6.68651
 11
-68.6534
 21
6.69833
  0
LINE
  8
0
 10
-68.6534
 20
6.69833
 11
-68.5279
 21
6.70227
  0
LINE
  8
0
 10
-68.5279
 20
6.70227
 11
-68.4023
 21
6.69833
  0
LINE
  8
0
 10
-68.4023
 20
6.69833
 11
-68.2772
 21
6.68651
  0
LINE
  8
0
 10
-68.2772
 20
6.68651
 11
-68.1531
 21
6.66685
  0
LINE
  8
0
 10
-68.1531
 20
6.66685
 11
-68.0305
 21
6.63943
  0
LINE
  8
0
 10
-68.0305
 20
6.63943
 11
-67.9098
 21
6.60439
  0
LINE
  8
0
 10
-67.9098
 20
6.60439
 11
-67.7916
 21
6.56183
  0
LINE
  8
0
 10
-67.7916
 20
6.56183
 11
-67.6763
 21
6.51193
  0
LINE
  8
0
 10
-67.6763
 20
6.51193
 11
-67.5643
 21
6.4549
  0
LINE
  8
0
 10
-67.5643
 20
6.4549
 11
-67.4562
 21
6.39093
  0
LINE
  8
0
 10
-67.4562
 20
6.39093
 11
-67.3523
 21
6.32031
  0
LINE
  8
0
 10
-67.3523
 20
6.32031
 11
-67.253
 21
6.2433
  0
LINE
  8
0
 10
-67.253
 20
6.2433
 11
-67.1588
 21
6.16022
  0
LINE
  8
0
 10
-67.1588
 20
6.16022
 11
-67.0699
 21
6.07137
  0
LINE
  8
0
 10
-67.0699
 20
6.07137
 11
-66.9868
 21
5.97713
  0
LINE
  8
0
 10
-66.9868
 20
5.97713
 11
-66.9098
 21
5.87784
  0
LINE
  8
0
 10
-66.9098
 20
5.87784
 11
-66.8392
 21
5.77393
  0
LINE
  8
0
 10
-66.8392
 20
5.77393
 11
-66.7752
 21
5.66579
  0
LINE
  8
0
 10
-66.7752
 20
5.66579
 11
-66.7182
 21
5.55383
  0
LINE
  8
0
 10
-66.7182
 20
5.55383
 11
-66.6683
 21
5.43852
  0
LINE
  8
0
 10
-66.6683
 20
5.43852
 11
-66.6257
 21
5.32031
  0
LINE
  8
0
 10
-66.6257
 20
5.32031
 11
-66.5907
 21
5.19966
  0
LINE
  8
0
 10
-66.5907
 20
5.19966
 11
-66.5633
 21
5.07704
  0
LINE
  8
0
 10
-66.5633
 20
5.07704
 11
-66.5436
 21
4.95294
  0
LINE
  8
0
 10
-66.5436
 20
4.95294
 11
-66.5318
 21
4.82785
  0
LINE
  8
0
 10
-66.5318
 20
4.82785
 11
-66.5279
 21
4.70227
  0
LINE
  8
0
 10
-66.5279
 20
4.70227
 11
-66.5318
 21
4.57669
  0
LINE
  8
0
 10
-66.5318
 20
4.57669
 11
-66.5436
 21
4.45161
  0
LINE
  8
0
 10
-66.5436
 20
4.45161
 11
-66.5633
 21
4.32751
  0
LINE
  8
0
 10
-66.5633
 20
4.32751
 11
-66.5907
 21
4.2049
  0
LINE
  8
0
 10
-66.5907
 20
4.2049
 11
-66.6257
 21
4.08424
  0
LINE
  8
0
 10
-66.6257
 20
4.08424
 11
-66.6683
 21
3.96602
  0
LINE
  8
0
 10
-66.6683
 20
3.96602
 11
-66.7182
 21
3.85072
  0
LINE
  8
0
 10
-66.7182
 20
3.85072
 11
-66.7752
 21
3.73877
  0
LINE
  8
0
 10
-66.7752
 20
3.73877
 11
-66.8392
 21
3.63062
  0
LINE
  8
0
 10
-66.8392
 20
3.63062
 11
-66.9098
 21
3.5267
  0
LINE
  8
0
 10
-66.9098
 20
3.5267
 11
-66.9868
 21
3.42743
  0
LINE
  8
0
 10
-66.9868
 20
3.42743
 11
-67.0699
 21
3.33318
  0
LINE
  8
0
 10
-67.0699
 20
3.33318
 11
-67.1588
 21
3.24434
  0
LINE
  8
0
 10
-67.1588
 20
3.24434
 11
-67.253
 21
3.16125
  0
LINE
  8
0
 10
-67.253
 20
3.16125
 11
-67.3523
 21
3.08424
  0
LINE
  8
0
 10
-67.3523
 20
3.08424
 11
-67.4562
 21
3.01363
  0
LINE
  8
0
 10
-67.4562
 20
3.01363
 11
-67.5643
 21
2.94966
  0
LINE
  8
0
 10
-67.5643
 20
2.94966
 11
-67.6763
 21
2.89262
  0
LINE
  8
0
 10
-67.6763
 20
2.89262
 11
-67.7916
 21
2.84273
  0
LINE
  8
0
 10
-67.7916
 20
2.84273
 11
-67.9098
 21
2.80016
  0
LINE
  8
0
 10
-67.9098
 20
2.80016
 11
-68.0305
 21
2.76511
  0
LINE
  8
0
 10
-68.0305
 20
2.76511
 11
-68.1531
 21
2.7377
  0
LINE
  8
0
 10
-68.1531
 20
2.7377
 11
-68.2772
 21
2.71805
  0
LINE
  8
0
 10
-68.2772
 20
2.71805
 11
-68.4023
 21
2.70622
  0
LINE
  8
0
 10
-68.4023
 20
2.70622
 11
-68.5279
 21
2.70227
  0
LINE
  8
0
 10
-68.5279
 20
2.70227
 11
-68.6534
 21
2.70622
  0
LINE
  8
0
 10
68.4023
 20
2.70622
 11
68.2772
 21
2.71805
  0
LINE
  8
0
 10
68.2772
 20
2.71805
 11
68.1531
 21
2.7377
  0
LINE
  8
0
 10
68.1531
 20
2.7377
 11
68.0305
 21
2.76511
  0
LINE
  8
0
 10
68.0305
 20
2.76511
 11
67.9098
 21
2.80016
  0
LINE
  8
0
 10
67.9098
 20
2.80016
 11
67.7916
 21
2.84273
  0
LINE
  8
0
 10
67.7916
 20
2.84273
 11
67.6763
 21
2.89262
  0
LINE
  8
0
 10
67.6763
 20
2.89262
 11
67.5643
 21
2.94966
  0
LINE
  8
0
 10
67.5643
 20
2.94966
 11
67.4562
 21
3.01363
  0
LINE
  8
0
 10
67.4562
 20
3.01363
 11
67.3523
 21
3.08424
  0
LINE
  8
0
 10
67.3523
 20
3.08424
 11
67.253
 21
3.16125
  0
LINE
  8
0
 10
67.253
 20
3.16125
 11
67.1588
 21
3.24434
  0
LINE
  8
0
 10
67.1588
 20
3.24434
 11
67.0699
 21
3.33318
  0
LINE
  8
0
 10
67.0699
 20
3.33318
 11
66.9868
 21
3.42743
  0
LINE
  8
0
 10
66.9868
 20
3.42743
 11
66.9098
 21
3.5267
  0
LINE
  8
0
 10
66.9098
 20
3.5267
 11
66.8392
 21
3.63062
  0
LINE
  8
0
 10
66.8392
 20
3.63062
 11
66.7752
 21
3.73877
  0
LINE
  8
0
 10
66.7752
 20
3.73877
 11
66.7182
 21
3.85072
  0
LINE
  8
0
 10
66.7182
 20
3.85072
 11
66.6683
 21
3.96602
  0
LINE
  8
0
 10
66.6683
 20
3.96602
 11
66.6257
 21
4.08424
  0
LINE
  8
0
 10
66.6257
 20
4.08424
 11
66.5907
 21
4.2049
  0
LINE
  8
0
 10
66.5907
 20
4.2049
 11
66.5633
 21
4.32751
  0
LINE
  8
0
 10
66.5633
 20
4.32751
 11
66.5436
 21
4.45161
  0
LINE
  8
0
 10
66.5436
 20
4.45161
 11
66.5318
 21
4.57669
  0
LINE
  8
0
 10
66.5318
 20
4.57669
 11
66.5279
 21
4.70227
  0
LINE
  8
0
 10
66.5279
 20
4.70227
 11
66.5318
 21
4.82785
  0
LINE
  8
0
 10
66.5318
 20
4.82785
 11
66.5436
 21
4.95294
  0
LINE
  8
0
 10
66.5436
 20
4.95294
 11
66.5633
 21
5.07704
  0
LINE
  8
0
 10
66.5633
 20
5.07704
 11
66.5907
 21
5.19966
  0
LINE
  8
0
 10
66.5907
 20
5.19966
 11
66.6257
 21
5.32031
  0
LINE
  8
0
 10
66.6257
 20
5.32031
 11
66.6683
 21
5.43852
  0
LINE
  8
0
 10
66.6683
 20
5.43852
 11
66.7182
 21
5.55383
  0
LINE
  8
0
 10
66.7182
 20
5.55383
 11
66.7752
 21
5.66579
  0
LINE
  8
0
 10
66.7752
 20
5.66579
 11
66.8392
 21
5.77393
  0
LINE
  8
0
 10
66.8392
 20
5.77393
 11
66.9098
 21
5.87784
  0
LINE
  8
0
 10
66.9098
 20
5.87784
 11
66.9868
 21
5.97713
  0
LINE
  8
0
 10
66.9868
 20
5.97713
 11
67.0699
 21
6.07137
  0
LINE
  8
0
 10
67.0699
 20
6.07137
 11
67.1588
 21
6.16022
  0
LINE
  8
0
 10
67.1588
 20
6.16022
 11
67.253
 21
6.2433
  0
LINE
  8
0
 10
67.253
 20
6.2433
 11
67.3523
 21
6.32031
  0
LINE
  8
0
 10
67.3523
 20
6.32031
 11
67.4562
 21
6.39093
  0
LINE
  8
0
 10
67.4562
 20
6.39093
 11
67.5643
 21
6.4549
  0
LINE
  8
0
 10
67.5643
 20
6.4549
 11
67.6763
 21
6.51193
  0
LINE
  8
0
 10
67.6763
 20
6.51193
 11
67.7916
 21
6.56183
  0
LINE
  8
0
 10
67.7916
 20
6.56183
 11
67.9098
 21
6.60439
  0
LINE
  8
0
 10
67.9098
 20
6.60439
 11
68.0305
 21
6.63943
  0
LINE
  8
0
 10
68.0305
 20
6.63943
 11
68.1531
 21
6.66685
  0
LINE
  8
0
 10
68.1531
 20
6.66685
 11
68.2772
 21
6.68651
  0
LINE
  8
0
 10
68.2772
 20
6.68651
 11
68.4023
 21
6.69833
  0
LINE
  8
0
 10
68.4023
 20
6.69833
 11
68.5279
 21
6.70227
  0
LINE
  8
0
 10
68.5279
 20
6.70227
 11
68.6534
 21
6.69833
  0
LINE
  8
0
 10
68.6534
 20
6.69833
 11
68.7785
 21
6.68651
  0
LINE
  8
0
 10
68.7785
 20
6.68651
 11
68.9026
 21
6.66685
  0
LINE
  8
0
 10
68.9026
 20
6.66685
 11
69.0252
 21
6.63943
  0
LINE
  8
0
 10
69.0252
 20
6.63943
 11
69.1459
 21
6.60439
  0
LINE
  8
0
 10
69.1459
 20
6.60439
 11
69.2641
 21
6.56183
  0
LINE
  8
0
 10
69.2641
 20
6.56183
 11
69.3794
 21
6.51193
  0
LINE
  8
0
 10
69.3794
 20
6.51193
 11
69.4914
 21
6.4549
  0
LINE
  8
0
 10
69.4914
 20
6.4549
 11
69.5995
 21
6.39093
  0
LINE
  8
0
 10
69.5995
 20
6.39093
 11
69.7034
 21
6.32031
  0
LINE
  8
0
 10
69.7034
 20
6.32031
 11
69.8027
 21
6.2433
  0
LINE
  8
0
 10
69.8027
 20
6.2433
 11
69.897
 21
6.16022
  0
LINE
  8
0
 10
69.897
 20
6.16022
 11
69.9858
 21
6.07137
  0
LINE
  8
0
 10
69.9858
 20
6.07137
 11
70.0689
 21
5.97713
  0
LINE
  8
0
 10
70.0689
 20
5.97713
 11
70.1459
 21
5.87784
  0
LINE
  8
0
 10
70.1459
 20
5.87784
 11
70.2165
 21
5.77393
  0
LINE
  8
0
 10
70.2165
 20
5.77393
 11
70.2805
 21
5.66579
  0
LINE
  8
0
 10
70.2805
 20
5.66579
 11
70.3375
 21
5.55383
  0
LINE
  8
0
 10
70.3375
 20
5.55383
 11
70.3874
 21
5.43852
  0
LINE
  8
0
 10
70.3874
 20
5.43852
 11
70.43
 21
5.32031
  0
LINE
  8
0
 10
70.43
 20
5.32031
 11
70.465
 21
5.19966
  0
LINE
  8
0
 10
70.465
 20
5.19966
 11
70.4924
 21
5.07704
  0
LINE
  8
0
 10
70.4924
 20
5.07704
 11
70.5121
 21
4.95294
  0
LINE
  8
0
 10
70.5121
 20
4.95294
 11
70.5239
 21
4.82785
  0
LINE
  8
0
 10
70.5239
 20
4.82785
 11
70.5279
 21
4.70227
  0
LINE
  8
0
 10
70.5279
 20
4.70227
 11
70.5239
 21
4.57669
  0
LINE
  8
0
 10
70.5239
 20
4.57669
 11
70.5121
 21
4.45161
  0
LINE
  8
0
 10
70.5121
 20
4.45161
 11
70.4924
 21
4.32751
  0
LINE
  8
0
 10
70.4924
 20
4.32751
 11
70.465
 21
4.2049
  0
LINE
  8
0
 10
70.465
 20
4.2049
 11
70.43
 21
4.08424
  0
LINE
  8
0
 10
70.43
 20
4.08424
 11
70.3874
 21
3.96602
  0
LINE
  8
0
 10
70.3874
 20
3.96602
 11
70.3375
 21
3.85072
  0
LINE
  8
0
 10
70.3375
 20
3.85072
 11
70.2805
 21
3.73877
  0
LINE
  8
0
 10
70.2805
 20
3.73877
 11
70.2165
 21
3.63062
  0
LINE
  8
0
 10
70.2165
 20
3.63062
 11
70.1459
 21
3.5267
  0
LINE
  8
0
 10
70.1459
 20
3.5267
 11
70.0689
 21
3.42743
  0
LINE
  8
0
 10
70.0689
 20
3.42743
 11
69.9858
 21
3.33318
  0
LINE
  8
0
 10
69.9858
 20
3.33318
 11
69.897
 21
3.24434
  0
LINE
  8
0
 10
69.897
 20
3.24434
 11
69.8027
 21
3.16125
  0
LINE
  8
0
 10
69.8027
 20
3.16125
 11
69.7034
 21
3.08424
  0
LINE
  8
0
 10
69.7034
 20
3.08424
 11
69.5995
 21
3.01363
  0
LINE
  8
0
 10
69.5995
 20
3.01363
 11
69.4914
 21
2.94966
  0
LINE
  8
0
 10
69.4914
 20
2.94966
 11
69.3794
 21
2.89262
  0
LINE
  8
0
 10
69.3794
 20
2.89262
 11
69.2641
 21
2.84273
  0
LINE
  8
0
 10
69.2641
 20
2.84273
 11
69.1459
 21
2.80016
  0
LINE
  8
0
 10
69.1459
 20
2.80016
 11
69.0252
 21
2.76511
  0
LINE
  8
0
 10
69.0252
 20
2.76511
 11
68.9026
 21
2.7377
  0
LINE
  8
0
 10
68.9026
 20
2.7377
 11
68.7785
 21
2.71805
  0
LINE
  8
0
 10
68.7785
 20
2.71805
 11
68.6534
 21
2.70622
  0
LINE
  8
0
 10
68.6534
 20
2.70622
 11
68.5279
 21
2.70227
  0
LINE
  8
0
 10
68.5279
 20
2.70227
 11
68.4023
 21
2.70622
  0
ENDSEC
  0
SECTION
  2
OBJECTS
  0
DICTIONARY
  0
ENDSEC
  0
EOF
