  0
SECTION
  2
BLOCKS
  0
ENDSEC
  0
SECTION
  2
ENTITIES
  0
LINE
  8
0
 10
0
 20
230.826
 11
-75
 21
0
  0
LINE
  8
0
 10
-75
 20
0
 11
75
 21
0
  0
LINE
  8
0
 10
75
 20
0
 11
0
 21
230.826
  0
LINE
  8
0
 10
-0.12558
 20
212.83
 11
-0.250656
 21
212.842
  0
LINE
  8
0
 10
-0.250656
 20
212.842
 11
-0.374756
 21
212.862
  0
LINE
  8
0
 10
-0.374756
 20
212.862
 11
-0.497375
 21
212.889
  0
LINE
  8
0
 10
-0.497375
 20
212.889
 11
-0.618027
 21
212.924
  0
LINE
  8
0
 10
-0.618027
 20
212.924
 11
-0.736237
 21
212.967
  0
LINE
  8
0
 10
-0.736237
 20
212.967
 11
-0.851547
 21
213.017
  0
LINE
  8
0
 10
-0.851547
 20
213.017
 11
-0.963501
 21
213.074
  0
LINE
  8
0
 10
-0.963501
 20
213.074
 11
-1.07164
 21
213.138
  0
LINE
  8
0
 10
-1.07164
 20
213.138
 11
-1.17557
 21
213.208
  0
LINE
  8
0
 10
-1.17557
 20
213.208
 11
-1.27484
 21
213.285
  0
LINE
  8
0
 10
-1.27484
 20
213.285
 11
-1.36908
 21
213.368
  0
LINE
  8
0
 10
-1.36908
 20
213.368
 11
-1.45793
 21
213.457
  0
LINE
  8
0
 10
-1.45793
 20
213.457
 11
-1.54102
 21
213.551
  0
LINE
  8
0
 10
-1.54102
 20
213.551
 11
-1.61803
 21
213.651
  0
LINE
  8
0
 10
-1.61803
 20
213.651
 11
-1.68864
 21
213.755
  0
LINE
  8
0
 10
-1.68864
 20
213.755
 11
-1.75261
 21
213.863
  0
LINE
  8
0
 10
-1.75261
 20
213.863
 11
-1.80965
 21
213.975
  0
LINE
  8
0
 10
-1.80965
 20
213.975
 11
-1.85954
 21
214.09
  0
LINE
  8
0
 10
-1.85954
 20
214.09
 11
-1.9021
 21
214.208
  0
LINE
  8
0
 10
-1.9021
 20
214.208
 11
-1.93716
 21
214.329
  0
LINE
  8
0
 10
-1.93716
 20
214.329
 11
-1.96457
 21
214.451
  0
LINE
  8
0
 10
-1.96457
 20
214.451
 11
-1.98422
 21
214.576
  0
LINE
  8
0
 10
-1.98422
 20
214.576
 11
-1.99605
 21
214.701
  0
LINE
  8
0
 10
-1.99605
 20
214.701
 11
-2
 21
214.826
  0
LINE
  8
0
 10
-2
 20
214.826
 11
-1.99605
 21
214.952
  0
LINE
  8
0
 10
-1.99605
 20
214.952
 11
-1.98422
 21
215.077
  0
LINE
  8
0
 10
-1.98422
 20
215.077
 11
-1.96457
 21
215.201
  0
LINE
  8
0
 10
-1.96457
 20
215.201
 11
-1.93716
 21
215.324
  0
LINE
  8
0
 10
-1.93716
 20
215.324
 11
-1.9021
 21
215.444
  0
LINE
  8
0
 10
-1.9021
 20
215.444
 11
-1.85954
 21
215.562
  0
LINE
  8
0
 10
-1.85954
 20
215.562
 11
-1.80965
 21
215.678
  0
LINE
  8
0
 10
-1.80965
 20
215.678
 11
-1.75261
 21
215.79
  0
LINE
  8
0
 10
-1.75261
 20
215.79
 11
-1.68864
 21
215.898
  0
LINE
  8
0
 10
-1.68864
 20
215.898
 11
-1.61803
 21
216.002
  0
LINE
  8
0
 10
-1.61803
 20
216.002
 11
-1.54102
 21
216.101
  0
LINE
  8
0
 10
-1.54102
 20
216.101
 11
-1.45793
 21
216.195
  0
LINE
  8
0
 10
-1.45793
 20
216.195
 11
-1.36908
 21
216.284
  0
LINE
  8
0
 10
-1.36908
 20
216.284
 11
-1.27484
 21
216.367
  0
LINE
  8
0
 10
-1.27484
 20
216.367
 11
-1.17557
 21
216.444
  0
LINE
  8
0
 10
-1.17557
 20
216.444
 11
-1.07164
 21
216.515
  0
LINE
  8
0
 10
-1.07164
 20
216.515
 11
-0.963501
 21
216.579
  0
LINE
  8
0
 10
-0.963501
 20
216.579
 11
-0.851547
 21
216.636
  0
LINE
  8
0
 10
-0.851547
 20
216.636
 11
-0.736237
 21
216.686
  0
LINE
  8
0
 10
-0.736237
 20
216.686
 11
-0.618027
 21
216.728
  0
LINE
  8
0
 10
-0.618027
 20
216.728
 11
-0.497375
 21
216.763
  0
LINE
  8
0
 10
-0.497375
 20
216.763
 11
-0.374756
 21
216.791
  0
LINE
  8
0
 10
-0.374756
 20
216.791
 11
-0.250656
 21
216.81
  0
LINE
  8
0
 10
-0.250656
 20
216.81
 11
-0.12558
 21
216.822
  0
LINE
  8
0
 10
-0.12558
 20
216.822
 11
0
 21
216.826
  0
LINE
  8
0
 10
0
 20
216.826
 11
0.12558
 21
216.822
  0
LINE
  8
0
 10
0.12558
 20
216.822
 11
0.250656
 21
216.81
  0
LINE
  8
0
 10
0.250656
 20
216.81
 11
0.374756
 21
216.791
  0
LINE
  8
0
 10
0.374756
 20
216.791
 11
0.497375
 21
216.763
  0
LINE
  8
0
 10
0.497375
 20
216.763
 11
0.618027
 21
216.728
  0
LINE
  8
0
 10
0.618027
 20
216.728
 11
0.736237
 21
216.686
  0
LINE
  8
0
 10
0.736237
 20
216.686
 11
0.851547
 21
216.636
  0
LINE
  8
0
 10
0.851547
 20
216.636
 11
0.963501
 21
216.579
  0
LINE
  8
0
 10
0.963501
 20
216.579
 11
1.07164
 21
216.515
  0
LINE
  8
0
 10
1.07164
 20
216.515
 11
1.17557
 21
216.444
  0
LINE
  8
0
 10
1.17557
 20
216.444
 11
1.27484
 21
216.367
  0
LINE
  8
0
 10
1.27484
 20
216.367
 11
1.36908
 21
216.284
  0
LINE
  8
0
 10
1.36908
 20
216.284
 11
1.45793
 21
216.195
  0
LINE
  8
0
 10
1.45793
 20
216.195
 11
1.54102
 21
216.101
  0
LINE
  8
0
 10
1.54102
 20
216.101
 11
1.61803
 21
216.002
  0
LINE
  8
0
 10
1.61803
 20
216.002
 11
1.68864
 21
215.898
  0
LINE
  8
0
 10
1.68864
 20
215.898
 11
1.75261
 21
215.79
  0
LINE
  8
0
 10
1.75261
 20
215.79
 11
1.80965
 21
215.678
  0
LINE
  8
0
 10
1.80965
 20
215.678
 11
1.85954
 21
215.562
  0
LINE
  8
0
 10
1.85954
 20
215.562
 11
1.9021
 21
215.444
  0
LINE
  8
0
 10
1.9021
 20
215.444
 11
1.93716
 21
215.324
  0
LINE
  8
0
 10
1.93716
 20
215.324
 11
1.96457
 21
215.201
  0
LINE
  8
0
 10
1.96457
 20
215.201
 11
1.98422
 21
215.077
  0
LINE
  8
0
 10
1.98422
 20
215.077
 11
1.99605
 21
214.952
  0
LINE
  8
0
 10
1.99605
 20
214.952
 11
2
 21
214.826
  0
LINE
  8
0
 10
2
 20
214.826
 11
1.99605
 21
214.701
  0
LINE
  8
0
 10
1.99605
 20
214.701
 11
1.98422
 21
214.576
  0
LINE
  8
0
 10
1.98422
 20
214.576
 11
1.96457
 21
214.451
  0
LINE
  8
0
 10
1.96457
 20
214.451
 11
1.93716
 21
214.329
  0
LINE
  8
0
 10
1.93716
 20
214.329
 11
1.9021
 21
214.208
  0
LINE
  8
0
 10
1.9021
 20
214.208
 11
1.85954
 21
214.09
  0
LINE
  8
0
 10
1.85954
 20
214.09
 11
1.80965
 21
213.975
  0
LINE
  8
0
 10
1.80965
 20
213.975
 11
1.75261
 21
213.863
  0
LINE
  8
0
 10
1.75261
 20
213.863
 11
1.68864
 21
213.755
  0
LINE
  8
0
 10
1.68864
 20
213.755
 11
1.61803
 21
213.651
  0
LINE
  8
0
 10
1.61803
 20
213.651
 11
1.54102
 21
213.551
  0
LINE
  8
0
 10
1.54102
 20
213.551
 11
1.45793
 21
213.457
  0
LINE
  8
0
 10
1.45793
 20
213.457
 11
1.36908
 21
213.368
  0
LINE
  8
0
 10
1.36908
 20
213.368
 11
1.27484
 21
213.285
  0
LINE
  8
0
 10
1.27484
 20
213.285
 11
1.17557
 21
213.208
  0
LINE
  8
0
 10
1.17557
 20
213.208
 11
1.07164
 21
213.138
  0
LINE
  8
0
 10
1.07164
 20
213.138
 11
0.963501
 21
213.074
  0
LINE
  8
0
 10
0.963501
 20
213.074
 11
0.851547
 21
213.017
  0
LINE
  8
0
 10
0.851547
 20
213.017
 11
0.736237
 21
212.967
  0
LINE
  8
0
 10
0.736237
 20
212.967
 11
0.618027
 21
212.924
  0
LINE
  8
0
 10
0.618027
 20
212.924
 11
0.497375
 21
212.889
  0
LINE
  8
0
 10
0.497375
 20
212.889
 11
0.374756
 21
212.862
  0
LINE
  8
0
 10
0.374756
 20
212.862
 11
0.250656
 21
212.842
  0
LINE
  8
0
 10
0.250656
 20
212.842
 11
0.12558
 21
212.83
  0
LINE
  8
0
 10
0.12558
 20
212.83
 11
0
 21
212.826
  0
LINE
  8
0
 10
0
 20
212.826
 11
-0.12558
 21
212.83
  0
LINE
  8
0
 10
0.00320435
 20
179.44
 11
0.00320435
 21
179.442
  0
LINE
  8
0
 10
0.00320435
 20
179.442
 11
0
 21
179.441
  0
LINE
  8
0
 10
0
 20
179.441
 11
-0.00320435
 21
179.442
  0
LINE
  8
0
 10
-0.00320435
 20
179.442
 11
-0.00320435
 21
179.44
  0
LINE
  8
0
 10
-0.00320435
 20
179.44
 11
-4.52283
 21
178.074
  0
LINE
  8
0
 10
-4.52283
 20
178.074
 11
-2.11661
 21
185.479
  0
LINE
  8
0
 10
-2.11661
 20
185.479
 11
0
 21
187.596
  0
LINE
  8
0
 10
0
 20
187.596
 11
2.1167
 21
185.479
  0
LINE
  8
0
 10
2.1167
 20
185.479
 11
4.52283
 21
178.074
  0
LINE
  8
0
 10
4.52283
 20
178.074
 11
0.00320435
 21
179.44
  0
LINE
  8
0
 10
-4.56619
 20
166.971
 11
-4.49661
 21
167.5
  0
LINE
  8
0
 10
-4.49661
 20
167.5
 11
-4.59915
 21
168.277
  0
LINE
  8
0
 10
-4.59915
 20
168.277
 11
-4.89899
 21
169.001
  0
LINE
  8
0
 10
-4.89899
 20
169.001
 11
-5.37598
 21
169.624
  0
LINE
  8
0
 10
-5.37598
 20
169.624
 11
-5.99854
 21
170.101
  0
LINE
  8
0
 10
-5.99854
 20
170.101
 11
-6.72226
 21
170.4
  0
LINE
  8
0
 10
-6.72226
 20
170.4
 11
-7.00394
 21
170.438
  0
LINE
  8
0
 10
-7.00394
 20
170.438
 11
-6.34151
 21
172.476
  0
LINE
  8
0
 10
-6.34151
 20
172.476
 11
-0.00320435
 21
170.56
  0
LINE
  8
0
 10
-0.00320435
 20
170.56
 11
-0.00320435
 21
170.558
  0
LINE
  8
0
 10
-0.00320435
 20
170.558
 11
0
 21
170.559
  0
LINE
  8
0
 10
0
 20
170.559
 11
0.00320435
 21
170.558
  0
LINE
  8
0
 10
0.00320435
 20
170.558
 11
0.00320435
 21
170.56
  0
LINE
  8
0
 10
0.00320435
 20
170.56
 11
6.34151
 21
172.476
  0
LINE
  8
0
 10
6.34151
 20
172.476
 11
6.72353
 21
171.301
  0
LINE
  8
0
 10
6.72353
 20
171.301
 11
6.48926
 21
171.27
  0
LINE
  8
0
 10
6.48926
 20
171.27
 11
5.54855
 21
170.88
  0
LINE
  8
0
 10
5.54855
 20
170.88
 11
4.73969
 21
170.26
  0
LINE
  8
0
 10
4.73969
 20
170.26
 11
4.11942
 21
169.451
  0
LINE
  8
0
 10
4.11942
 20
169.451
 11
3.72986
 21
168.51
  0
LINE
  8
0
 10
3.72986
 20
168.51
 11
3.59665
 21
167.5
  0
LINE
  8
0
 10
3.59665
 20
167.5
 11
3.72986
 21
166.489
  0
LINE
  8
0
 10
3.72986
 20
166.489
 11
3.83377
 21
166.238
  0
LINE
  8
0
 10
3.83377
 20
166.238
 11
0
 21
162.404
  0
LINE
  8
0
 10
0
 20
162.404
 11
-4.56619
 21
166.971
  0
LINE
  8
0
 10
5.16403
 20
166.151
 11
4.89441
 21
166.802
  0
LINE
  8
0
 10
4.89441
 20
166.802
 11
4.8024
 21
167.5
  0
LINE
  8
0
 10
4.8024
 20
167.5
 11
4.89441
 21
168.197
  0
LINE
  8
0
 10
4.89441
 20
168.197
 11
5.16403
 21
168.849
  0
LINE
  8
0
 10
5.16403
 20
168.849
 11
5.5925
 21
169.407
  0
LINE
  8
0
 10
5.5925
 20
169.407
 11
6.15097
 21
169.836
  0
LINE
  8
0
 10
6.15097
 20
169.836
 11
6.80237
 21
170.105
  0
LINE
  8
0
 10
6.80237
 20
170.105
 11
7.09923
 21
170.144
  0
LINE
  8
0
 10
7.09923
 20
170.144
 11
7.6978
 21
168.302
  0
LINE
  8
0
 10
7.6978
 20
168.302
 11
5.3302
 21
165.934
  0
LINE
  8
0
 10
5.3302
 20
165.934
 11
5.16403
 21
166.151
  0
LINE
  8
0
 10
-8.19717
 20
164.894
 11
-8.73296
 21
165.116
  0
LINE
  8
0
 10
-8.73296
 20
165.116
 11
-7.99417
 21
167.39
  0
LINE
  8
0
 10
-7.99417
 20
167.39
 11
-5.93445
 21
165.33
  0
LINE
  8
0
 10
-5.93445
 20
165.33
 11
-6.15097
 21
165.164
  0
LINE
  8
0
 10
-6.15097
 20
165.164
 11
-6.80237
 21
164.894
  0
LINE
  8
0
 10
-6.80237
 20
164.894
 11
-7.5
 21
164.802
  0
LINE
  8
0
 10
-7.5
 20
164.802
 11
-8.19717
 21
164.894
  0
LINE
  8
0
 10
11.1658
 20
151.239
 11
11.2697
 21
151.49
  0
LINE
  8
0
 10
11.2697
 20
151.49
 11
11.4029
 21
152.5
  0
LINE
  8
0
 10
11.4029
 20
152.5
 11
11.2697
 21
153.511
  0
LINE
  8
0
 10
11.2697
 20
153.511
 11
10.8801
 21
154.451
  0
LINE
  8
0
 10
10.8801
 20
154.451
 11
10.2599
 21
155.26
  0
LINE
  8
0
 10
10.2599
 20
155.26
 11
9.45099
 21
155.881
  0
LINE
  8
0
 10
9.45099
 20
155.881
 11
8.51028
 21
156.27
  0
LINE
  8
0
 10
8.51028
 20
156.27
 11
7.5
 21
156.403
  0
LINE
  8
0
 10
7.5
 20
156.403
 11
6.48926
 21
156.27
  0
LINE
  8
0
 10
6.48926
 20
156.27
 11
6.23795
 21
156.166
  0
LINE
  8
0
 10
6.23795
 20
156.166
 11
2.40417
 21
160
  0
LINE
  8
0
 10
2.40417
 20
160
 11
6.97083
 21
164.566
  0
LINE
  8
0
 10
6.97083
 20
164.566
 11
7.5
 21
164.497
  0
LINE
  8
0
 10
7.5
 20
164.497
 11
8.27728
 21
164.599
  0
LINE
  8
0
 10
8.27728
 20
164.599
 11
8.82695
 21
164.827
  0
LINE
  8
0
 10
8.82695
 20
164.827
 11
12.7517
 21
152.748
  0
LINE
  8
0
 10
12.7517
 20
152.748
 11
14.0932
 21
148.311
  0
LINE
  8
0
 10
14.0932
 20
148.311
 11
11.1658
 21
151.239
  0
LINE
  8
0
 10
-12.7517
 20
152.748
 11
-9.10358
 21
163.976
  0
LINE
  8
0
 10
-9.10358
 20
163.976
 11
-8.51028
 21
163.73
  0
LINE
  8
0
 10
-8.51028
 20
163.73
 11
-7.5
 21
163.597
  0
LINE
  8
0
 10
-7.5
 20
163.597
 11
-6.48926
 21
163.73
  0
LINE
  8
0
 10
-6.48926
 20
163.73
 11
-6.23795
 21
163.834
  0
LINE
  8
0
 10
-6.23795
 20
163.834
 11
-2.40417
 21
160
  0
LINE
  8
0
 10
-2.40417
 20
160
 11
-6.97083
 21
155.434
  0
LINE
  8
0
 10
-6.97083
 20
155.434
 11
-7.5
 21
155.503
  0
LINE
  8
0
 10
-7.5
 20
155.503
 11
-8.27728
 21
155.401
  0
LINE
  8
0
 10
-8.27728
 20
155.401
 11
-9.00101
 21
155.101
  0
LINE
  8
0
 10
-9.00101
 20
155.101
 11
-9.62357
 21
154.624
  0
LINE
  8
0
 10
-9.62357
 20
154.624
 11
-10.1006
 21
154.001
  0
LINE
  8
0
 10
-10.1006
 20
154.001
 11
-10.4004
 21
153.278
  0
LINE
  8
0
 10
-10.4004
 20
153.278
 11
-10.5029
 21
152.5
  0
LINE
  8
0
 10
-10.5029
 20
152.5
 11
-10.4333
 21
151.971
  0
LINE
  8
0
 10
-10.4333
 20
151.971
 11
-14.0932
 21
148.311
  0
LINE
  8
0
 10
-14.0932
 20
148.311
 11
-12.7517
 21
152.748
  0
LINE
  8
0
 10
0.00320435
 20
149.44
 11
0.00320435
 21
149.442
  0
LINE
  8
0
 10
0.00320435
 20
149.442
 11
0
 21
149.441
  0
LINE
  8
0
 10
0
 20
149.441
 11
-0.00320435
 21
149.442
  0
LINE
  8
0
 10
-0.00320435
 20
149.442
 11
-0.00320435
 21
149.44
  0
LINE
  8
0
 10
-0.00320435
 20
149.44
 11
-11.6885
 21
145.907
  0
LINE
  8
0
 10
-11.6885
 20
145.907
 11
-8.76114
 21
148.834
  0
LINE
  8
0
 10
-8.76114
 20
148.834
 11
-8.51028
 21
148.73
  0
LINE
  8
0
 10
-8.51028
 20
148.73
 11
-7.5
 21
148.597
  0
LINE
  8
0
 10
-7.5
 20
148.597
 11
-6.48926
 21
148.73
  0
LINE
  8
0
 10
-6.48926
 20
148.73
 11
-5.54855
 21
149.12
  0
LINE
  8
0
 10
-5.54855
 20
149.12
 11
-4.73969
 21
149.74
  0
LINE
  8
0
 10
-4.73969
 20
149.74
 11
-4.11942
 21
150.549
  0
LINE
  8
0
 10
-4.11942
 20
150.549
 11
-3.72986
 21
151.49
  0
LINE
  8
0
 10
-3.72986
 20
151.49
 11
-3.59665
 21
152.5
  0
LINE
  8
0
 10
-3.59665
 20
152.5
 11
-3.72986
 21
153.511
  0
LINE
  8
0
 10
-3.72986
 20
153.511
 11
-3.83377
 21
153.762
  0
LINE
  8
0
 10
-3.83377
 20
153.762
 11
0
 21
157.596
  0
LINE
  8
0
 10
0
 20
157.596
 11
4.56619
 21
153.029
  0
LINE
  8
0
 10
4.56619
 20
153.029
 11
4.49661
 21
152.5
  0
LINE
  8
0
 10
4.49661
 20
152.5
 11
4.59915
 21
151.723
  0
LINE
  8
0
 10
4.59915
 20
151.723
 11
4.89899
 21
150.999
  0
LINE
  8
0
 10
4.89899
 20
150.999
 11
5.37598
 21
150.376
  0
LINE
  8
0
 10
5.37598
 20
150.376
 11
5.99854
 21
149.899
  0
LINE
  8
0
 10
5.99854
 20
149.899
 11
6.72226
 21
149.6
  0
LINE
  8
0
 10
6.72226
 20
149.6
 11
7.5
 21
149.497
  0
LINE
  8
0
 10
7.5
 20
149.497
 11
8.02872
 21
149.567
  0
LINE
  8
0
 10
8.02872
 20
149.567
 11
11.6885
 21
145.907
  0
LINE
  8
0
 10
11.6885
 20
145.907
 11
0.00320435
 21
149.44
  0
LINE
  8
0
 10
5.93445
 20
154.67
 11
6.15097
 21
154.836
  0
LINE
  8
0
 10
6.15097
 20
154.836
 11
6.80237
 21
155.106
  0
LINE
  8
0
 10
6.80237
 20
155.106
 11
7.5
 21
155.198
  0
LINE
  8
0
 10
7.5
 20
155.198
 11
8.19717
 21
155.106
  0
LINE
  8
0
 10
8.19717
 20
155.106
 11
8.84857
 21
154.836
  0
LINE
  8
0
 10
8.84857
 20
154.836
 11
9.40704
 21
154.407
  0
LINE
  8
0
 10
9.40704
 20
154.407
 11
9.83551
 21
153.849
  0
LINE
  8
0
 10
9.83551
 20
153.849
 11
10.1051
 21
153.198
  0
LINE
  8
0
 10
10.1051
 20
153.198
 11
10.1971
 21
152.5
  0
LINE
  8
0
 10
10.1971
 20
152.5
 11
10.1051
 21
151.803
  0
LINE
  8
0
 10
10.1051
 20
151.803
 11
9.83551
 21
151.151
  0
LINE
  8
0
 10
9.83551
 20
151.151
 11
9.66934
 21
150.935
  0
LINE
  8
0
 10
9.66934
 20
150.935
 11
5.93445
 21
154.67
  0
LINE
  8
0
 10
-8.19717
 20
149.895
 11
-8.84857
 21
150.164
  0
LINE
  8
0
 10
-8.84857
 20
150.164
 11
-9.06509
 21
150.331
  0
LINE
  8
0
 10
-9.06509
 20
150.331
 11
-5.3302
 21
154.066
  0
LINE
  8
0
 10
-5.3302
 20
154.066
 11
-5.16403
 21
153.849
  0
LINE
  8
0
 10
-5.16403
 20
153.849
 11
-4.89441
 21
153.198
  0
LINE
  8
0
 10
-4.89441
 20
153.198
 11
-4.8024
 21
152.5
  0
LINE
  8
0
 10
-4.8024
 20
152.5
 11
-4.89441
 21
151.803
  0
LINE
  8
0
 10
-4.89441
 20
151.803
 11
-5.16403
 21
151.151
  0
LINE
  8
0
 10
-5.16403
 20
151.151
 11
-5.59296
 21
150.593
  0
LINE
  8
0
 10
-5.59296
 20
150.593
 11
-6.15097
 21
150.164
  0
LINE
  8
0
 10
-6.15097
 20
150.164
 11
-6.80237
 21
149.895
  0
LINE
  8
0
 10
-6.80237
 20
149.895
 11
-7.5
 21
149.803
  0
LINE
  8
0
 10
-7.5
 20
149.803
 11
-8.19717
 21
149.895
  0
LINE
  8
0
 10
-4.56619
 20
136.971
 11
-4.49661
 21
137.5
  0
LINE
  8
0
 10
-4.49661
 20
137.5
 11
-4.59915
 21
138.277
  0
LINE
  8
0
 10
-4.59915
 20
138.277
 11
-4.89899
 21
139.001
  0
LINE
  8
0
 10
-4.89899
 20
139.001
 11
-5.37598
 21
139.624
  0
LINE
  8
0
 10
-5.37598
 20
139.624
 11
-5.99854
 21
140.101
  0
LINE
  8
0
 10
-5.99854
 20
140.101
 11
-6.72226
 21
140.4
  0
LINE
  8
0
 10
-6.72226
 20
140.4
 11
-7.5
 21
140.503
  0
LINE
  8
0
 10
-7.5
 20
140.503
 11
-8.02872
 21
140.433
  0
LINE
  8
0
 10
-8.02872
 20
140.433
 11
-11.6885
 21
144.093
  0
LINE
  8
0
 10
-11.6885
 20
144.093
 11
-0.00320435
 21
140.56
  0
LINE
  8
0
 10
-0.00320435
 20
140.56
 11
-0.00320435
 21
140.558
  0
LINE
  8
0
 10
-0.00320435
 20
140.558
 11
0
 21
140.559
  0
LINE
  8
0
 10
0
 20
140.559
 11
0.00320435
 21
140.558
  0
LINE
  8
0
 10
0.00320435
 20
140.558
 11
0.00320435
 21
140.56
  0
LINE
  8
0
 10
0.00320435
 20
140.56
 11
11.6885
 21
144.093
  0
LINE
  8
0
 10
11.6885
 20
144.093
 11
8.76114
 21
141.166
  0
LINE
  8
0
 10
8.76114
 20
141.166
 11
8.51028
 21
141.27
  0
LINE
  8
0
 10
8.51028
 20
141.27
 11
7.5
 21
141.403
  0
LINE
  8
0
 10
7.5
 20
141.403
 11
6.48926
 21
141.27
  0
LINE
  8
0
 10
6.48926
 20
141.27
 11
5.54855
 21
140.88
  0
LINE
  8
0
 10
5.54855
 20
140.88
 11
4.73969
 21
140.26
  0
LINE
  8
0
 10
4.73969
 20
140.26
 11
4.11942
 21
139.451
  0
LINE
  8
0
 10
4.11942
 20
139.451
 11
3.72986
 21
138.51
  0
LINE
  8
0
 10
3.72986
 20
138.51
 11
3.59665
 21
137.5
  0
LINE
  8
0
 10
3.59665
 20
137.5
 11
3.72986
 21
136.489
  0
LINE
  8
0
 10
3.72986
 20
136.489
 11
3.83377
 21
136.238
  0
LINE
  8
0
 10
3.83377
 20
136.238
 11
0
 21
132.404
  0
LINE
  8
0
 10
0
 20
132.404
 11
-4.56619
 21
136.971
  0
LINE
  8
0
 10
19.4403
 20
129.997
 11
19.4421
 21
129.997
  0
LINE
  8
0
 10
19.4421
 20
129.997
 11
19.4412
 21
130
  0
LINE
  8
0
 10
19.4412
 20
130
 11
19.4421
 21
130.003
  0
LINE
  8
0
 10
19.4421
 20
130.003
 11
19.4403
 21
130.003
  0
LINE
  8
0
 10
19.4403
 20
130.003
 11
15.9068
 21
141.689
  0
LINE
  8
0
 10
15.9068
 20
141.689
 11
16.556
 21
141.039
  0
LINE
  8
0
 10
16.556
 20
141.039
 11
21.6474
 21
125.37
  0
LINE
  8
0
 10
21.6474
 20
125.37
 11
20.999
 21
125.101
  0
LINE
  8
0
 10
20.999
 20
125.101
 11
20.3764
 21
124.624
  0
LINE
  8
0
 10
20.3764
 20
124.624
 11
19.8994
 21
124.001
  0
LINE
  8
0
 10
19.8994
 20
124.001
 11
19.5996
 21
123.278
  0
LINE
  8
0
 10
19.5996
 20
123.278
 11
19.4971
 21
122.5
  0
LINE
  8
0
 10
19.4971
 20
122.5
 11
19.5667
 21
121.971
  0
LINE
  8
0
 10
19.5667
 20
121.971
 11
15.9068
 21
118.311
  0
LINE
  8
0
 10
15.9068
 20
118.311
 11
19.4403
 21
129.997
  0
LINE
  8
0
 10
-18.8342
 20
121.239
 11
-18.7303
 21
121.49
  0
LINE
  8
0
 10
-18.7303
 20
121.49
 11
-18.5971
 21
122.5
  0
LINE
  8
0
 10
-18.5971
 20
122.5
 11
-18.7303
 21
123.511
  0
LINE
  8
0
 10
-18.7303
 20
123.511
 11
-19.1199
 21
124.451
  0
LINE
  8
0
 10
-19.1199
 20
124.451
 11
-19.7401
 21
125.26
  0
LINE
  8
0
 10
-19.7401
 20
125.26
 11
-20.549
 21
125.881
  0
LINE
  8
0
 10
-20.549
 20
125.881
 11
-21.3708
 21
126.221
  0
LINE
  8
0
 10
-21.3708
 20
126.221
 11
-16.556
 21
141.039
  0
LINE
  8
0
 10
-16.556
 20
141.039
 11
-15.9068
 21
141.689
  0
LINE
  8
0
 10
-15.9068
 20
141.689
 11
-19.4403
 21
130.003
  0
LINE
  8
0
 10
-19.4403
 20
130.003
 11
-19.4421
 21
130.003
  0
LINE
  8
0
 10
-19.4421
 20
130.003
 11
-19.4412
 21
130
  0
LINE
  8
0
 10
-19.4412
 20
130
 11
-19.4421
 21
129.997
  0
LINE
  8
0
 10
-19.4421
 20
129.997
 11
-19.4403
 21
129.997
  0
LINE
  8
0
 10
-19.4403
 20
129.997
 11
-15.9068
 21
118.311
  0
LINE
  8
0
 10
-15.9068
 20
118.311
 11
-18.8342
 21
121.239
  0
LINE
  8
0
 10
11.1658
 20
121.239
 11
11.2697
 21
121.49
  0
LINE
  8
0
 10
11.2697
 20
121.49
 11
11.4029
 21
122.5
  0
LINE
  8
0
 10
11.4029
 20
122.5
 11
11.2697
 21
123.511
  0
LINE
  8
0
 10
11.2697
 20
123.511
 11
10.8801
 21
124.451
  0
LINE
  8
0
 10
10.8801
 20
124.451
 11
10.2599
 21
125.26
  0
LINE
  8
0
 10
10.2599
 20
125.26
 11
9.45099
 21
125.881
  0
LINE
  8
0
 10
9.45099
 20
125.881
 11
8.51028
 21
126.27
  0
LINE
  8
0
 10
8.51028
 20
126.27
 11
7.5
 21
126.403
  0
LINE
  8
0
 10
7.5
 20
126.403
 11
6.48926
 21
126.27
  0
LINE
  8
0
 10
6.48926
 20
126.27
 11
6.23795
 21
126.166
  0
LINE
  8
0
 10
6.23795
 20
126.166
 11
2.40417
 21
130
  0
LINE
  8
0
 10
2.40417
 20
130
 11
6.97083
 21
134.566
  0
LINE
  8
0
 10
6.97083
 20
134.566
 11
7.5
 21
134.497
  0
LINE
  8
0
 10
7.5
 20
134.497
 11
8.27728
 21
134.599
  0
LINE
  8
0
 10
8.27728
 20
134.599
 11
9.00101
 21
134.899
  0
LINE
  8
0
 10
9.00101
 20
134.899
 11
9.62357
 21
135.376
  0
LINE
  8
0
 10
9.62357
 20
135.376
 11
10.1006
 21
135.999
  0
LINE
  8
0
 10
10.1006
 20
135.999
 11
10.4004
 21
136.722
  0
LINE
  8
0
 10
10.4004
 20
136.722
 11
10.5029
 21
137.5
  0
LINE
  8
0
 10
10.5029
 20
137.5
 11
10.4333
 21
138.029
  0
LINE
  8
0
 10
10.4333
 20
138.029
 11
14.0932
 21
141.689
  0
LINE
  8
0
 10
14.0932
 20
141.689
 11
10.5597
 21
130.003
  0
LINE
  8
0
 10
10.5597
 20
130.003
 11
10.5579
 21
130.003
  0
LINE
  8
0
 10
10.5579
 20
130.003
 11
10.5588
 21
130
  0
LINE
  8
0
 10
10.5588
 20
130
 11
10.5579
 21
129.997
  0
LINE
  8
0
 10
10.5579
 20
129.997
 11
10.5597
 21
129.997
  0
LINE
  8
0
 10
10.5597
 20
129.997
 11
14.0932
 21
118.311
  0
LINE
  8
0
 10
14.0932
 20
118.311
 11
11.1658
 21
121.239
  0
LINE
  8
0
 10
-10.5597
 20
129.997
 11
-10.5579
 21
129.997
  0
LINE
  8
0
 10
-10.5579
 20
129.997
 11
-10.5588
 21
130
  0
LINE
  8
0
 10
-10.5588
 20
130
 11
-10.5579
 21
130.003
  0
LINE
  8
0
 10
-10.5579
 20
130.003
 11
-10.5597
 21
130.003
  0
LINE
  8
0
 10
-10.5597
 20
130.003
 11
-14.0932
 21
141.689
  0
LINE
  8
0
 10
-14.0932
 20
141.689
 11
-11.1658
 21
138.761
  0
LINE
  8
0
 10
-11.1658
 20
138.761
 11
-11.2697
 21
138.51
  0
LINE
  8
0
 10
-11.2697
 20
138.51
 11
-11.4029
 21
137.5
  0
LINE
  8
0
 10
-11.4029
 20
137.5
 11
-11.2697
 21
136.489
  0
LINE
  8
0
 10
-11.2697
 20
136.489
 11
-10.8801
 21
135.549
  0
LINE
  8
0
 10
-10.8801
 20
135.549
 11
-10.2599
 21
134.74
  0
LINE
  8
0
 10
-10.2599
 20
134.74
 11
-9.45099
 21
134.119
  0
LINE
  8
0
 10
-9.45099
 20
134.119
 11
-8.51028
 21
133.73
  0
LINE
  8
0
 10
-8.51028
 20
133.73
 11
-7.5
 21
133.597
  0
LINE
  8
0
 10
-7.5
 20
133.597
 11
-6.48926
 21
133.73
  0
LINE
  8
0
 10
-6.48926
 20
133.73
 11
-6.23795
 21
133.834
  0
LINE
  8
0
 10
-6.23795
 20
133.834
 11
-2.40417
 21
130
  0
LINE
  8
0
 10
-2.40417
 20
130
 11
-6.97083
 21
125.434
  0
LINE
  8
0
 10
-6.97083
 20
125.434
 11
-7.5
 21
125.503
  0
LINE
  8
0
 10
-7.5
 20
125.503
 11
-8.27728
 21
125.401
  0
LINE
  8
0
 10
-8.27728
 20
125.401
 11
-9.00101
 21
125.101
  0
LINE
  8
0
 10
-9.00101
 20
125.101
 11
-9.62357
 21
124.624
  0
LINE
  8
0
 10
-9.62357
 20
124.624
 11
-10.1006
 21
124.001
  0
LINE
  8
0
 10
-10.1006
 20
124.001
 11
-10.4004
 21
123.278
  0
LINE
  8
0
 10
-10.4004
 20
123.278
 11
-10.5029
 21
122.5
  0
LINE
  8
0
 10
-10.5029
 20
122.5
 11
-10.4333
 21
121.971
  0
LINE
  8
0
 10
-10.4333
 20
121.971
 11
-14.0932
 21
118.311
  0
LINE
  8
0
 10
-14.0932
 20
118.311
 11
-10.5597
 21
129.997
  0
LINE
  8
0
 10
5.16403
 20
136.151
 11
4.89441
 21
136.802
  0
LINE
  8
0
 10
4.89441
 20
136.802
 11
4.8024
 21
137.5
  0
LINE
  8
0
 10
4.8024
 20
137.5
 11
4.89441
 21
138.197
  0
LINE
  8
0
 10
4.89441
 20
138.197
 11
5.16403
 21
138.849
  0
LINE
  8
0
 10
5.16403
 20
138.849
 11
5.5925
 21
139.407
  0
LINE
  8
0
 10
5.5925
 20
139.407
 11
6.15097
 21
139.836
  0
LINE
  8
0
 10
6.15097
 20
139.836
 11
6.80237
 21
140.105
  0
LINE
  8
0
 10
6.80237
 20
140.105
 11
7.5
 21
140.197
  0
LINE
  8
0
 10
7.5
 20
140.197
 11
8.19717
 21
140.105
  0
LINE
  8
0
 10
8.19717
 20
140.105
 11
8.84857
 21
139.836
  0
LINE
  8
0
 10
8.84857
 20
139.836
 11
9.06509
 21
139.669
  0
LINE
  8
0
 10
9.06509
 20
139.669
 11
5.3302
 21
135.934
  0
LINE
  8
0
 10
5.3302
 20
135.934
 11
5.16403
 21
136.151
  0
LINE
  8
0
 10
-8.19717
 20
134.894
 11
-8.84857
 21
135.164
  0
LINE
  8
0
 10
-8.84857
 20
135.164
 11
-9.40704
 21
135.593
  0
LINE
  8
0
 10
-9.40704
 20
135.593
 11
-9.83551
 21
136.151
  0
LINE
  8
0
 10
-9.83551
 20
136.151
 11
-10.1051
 21
136.802
  0
LINE
  8
0
 10
-10.1051
 20
136.802
 11
-10.1971
 21
137.5
  0
LINE
  8
0
 10
-10.1971
 20
137.5
 11
-10.1051
 21
138.197
  0
LINE
  8
0
 10
-10.1051
 20
138.197
 11
-9.83551
 21
138.849
  0
LINE
  8
0
 10
-9.83551
 20
138.849
 11
-9.66934
 21
139.065
  0
LINE
  8
0
 10
-9.66934
 20
139.065
 11
-5.93445
 21
135.33
  0
LINE
  8
0
 10
-5.93445
 20
135.33
 11
-6.15097
 21
135.164
  0
LINE
  8
0
 10
-6.15097
 20
135.164
 11
-6.80237
 21
134.894
  0
LINE
  8
0
 10
-6.80237
 20
134.894
 11
-7.5
 21
134.802
  0
LINE
  8
0
 10
-7.5
 20
134.802
 11
-8.19717
 21
134.894
  0
LINE
  8
0
 10
0.00320435
 20
119.44
 11
0.00320435
 21
119.442
  0
LINE
  8
0
 10
0.00320435
 20
119.442
 11
0
 21
119.441
  0
LINE
  8
0
 10
0
 20
119.441
 11
-0.00320435
 21
119.442
  0
LINE
  8
0
 10
-0.00320435
 20
119.442
 11
-0.00320435
 21
119.44
  0
LINE
  8
0
 10
-0.00320435
 20
119.44
 11
-11.6885
 21
115.907
  0
LINE
  8
0
 10
-11.6885
 20
115.907
 11
-8.76114
 21
118.834
  0
LINE
  8
0
 10
-8.76114
 20
118.834
 11
-8.51028
 21
118.73
  0
LINE
  8
0
 10
-8.51028
 20
118.73
 11
-7.5
 21
118.597
  0
LINE
  8
0
 10
-7.5
 20
118.597
 11
-6.48926
 21
118.73
  0
LINE
  8
0
 10
-6.48926
 20
118.73
 11
-5.54855
 21
119.12
  0
LINE
  8
0
 10
-5.54855
 20
119.12
 11
-4.73969
 21
119.74
  0
LINE
  8
0
 10
-4.73969
 20
119.74
 11
-4.11942
 21
120.549
  0
LINE
  8
0
 10
-4.11942
 20
120.549
 11
-3.72986
 21
121.49
  0
LINE
  8
0
 10
-3.72986
 20
121.49
 11
-3.59665
 21
122.5
  0
LINE
  8
0
 10
-3.59665
 20
122.5
 11
-3.72986
 21
123.511
  0
LINE
  8
0
 10
-3.72986
 20
123.511
 11
-3.83377
 21
123.762
  0
LINE
  8
0
 10
-3.83377
 20
123.762
 11
0
 21
127.596
  0
LINE
  8
0
 10
0
 20
127.596
 11
4.56619
 21
123.029
  0
LINE
  8
0
 10
4.56619
 20
123.029
 11
4.49661
 21
122.5
  0
LINE
  8
0
 10
4.49661
 20
122.5
 11
4.59915
 21
121.723
  0
LINE
  8
0
 10
4.59915
 20
121.723
 11
4.89899
 21
120.999
  0
LINE
  8
0
 10
4.89899
 20
120.999
 11
5.37598
 21
120.376
  0
LINE
  8
0
 10
5.37598
 20
120.376
 11
5.99854
 21
119.899
  0
LINE
  8
0
 10
5.99854
 20
119.899
 11
6.72226
 21
119.6
  0
LINE
  8
0
 10
6.72226
 20
119.6
 11
7.5
 21
119.497
  0
LINE
  8
0
 10
7.5
 20
119.497
 11
8.02872
 21
119.567
  0
LINE
  8
0
 10
8.02872
 20
119.567
 11
11.6885
 21
115.907
  0
LINE
  8
0
 10
11.6885
 20
115.907
 11
0.00320435
 21
119.44
  0
LINE
  8
0
 10
5.93445
 20
124.67
 11
6.15097
 21
124.836
  0
LINE
  8
0
 10
6.15097
 20
124.836
 11
6.80237
 21
125.106
  0
LINE
  8
0
 10
6.80237
 20
125.106
 11
7.5
 21
125.198
  0
LINE
  8
0
 10
7.5
 20
125.198
 11
8.19717
 21
125.106
  0
LINE
  8
0
 10
8.19717
 20
125.106
 11
8.84857
 21
124.836
  0
LINE
  8
0
 10
8.84857
 20
124.836
 11
9.40704
 21
124.407
  0
LINE
  8
0
 10
9.40704
 20
124.407
 11
9.83551
 21
123.849
  0
LINE
  8
0
 10
9.83551
 20
123.849
 11
10.1051
 21
123.198
  0
LINE
  8
0
 10
10.1051
 20
123.198
 11
10.1971
 21
122.5
  0
LINE
  8
0
 10
10.1971
 20
122.5
 11
10.1051
 21
121.803
  0
LINE
  8
0
 10
10.1051
 20
121.803
 11
9.83551
 21
121.151
  0
LINE
  8
0
 10
9.83551
 20
121.151
 11
9.66934
 21
120.935
  0
LINE
  8
0
 10
9.66934
 20
120.935
 11
5.93445
 21
124.67
  0
LINE
  8
0
 10
-22.412
 20
123.016
 11
-21.7414
 21
125.08
  0
LINE
  8
0
 10
-21.7414
 20
125.08
 11
-21.1514
 21
124.836
  0
LINE
  8
0
 10
-21.1514
 20
124.836
 11
-20.593
 21
124.407
  0
LINE
  8
0
 10
-20.593
 20
124.407
 11
-20.1645
 21
123.849
  0
LINE
  8
0
 10
-20.1645
 20
123.849
 11
-19.8949
 21
123.198
  0
LINE
  8
0
 10
-19.8949
 20
123.198
 11
-19.8029
 21
122.5
  0
LINE
  8
0
 10
-19.8029
 20
122.5
 11
-19.8949
 21
121.803
  0
LINE
  8
0
 10
-19.8949
 20
121.803
 11
-20.1645
 21
121.151
  0
LINE
  8
0
 10
-20.1645
 20
121.151
 11
-20.3307
 21
120.935
  0
LINE
  8
0
 10
-20.3307
 20
120.935
 11
-22.412
 21
123.016
  0
LINE
  8
0
 10
-8.19717
 20
119.895
 11
-8.84857
 21
120.164
  0
LINE
  8
0
 10
-8.84857
 20
120.164
 11
-9.06509
 21
120.331
  0
LINE
  8
0
 10
-9.06509
 20
120.331
 11
-5.3302
 21
124.066
  0
LINE
  8
0
 10
-5.3302
 20
124.066
 11
-5.16403
 21
123.849
  0
LINE
  8
0
 10
-5.16403
 20
123.849
 11
-4.89441
 21
123.198
  0
LINE
  8
0
 10
-4.89441
 20
123.198
 11
-4.8024
 21
122.5
  0
LINE
  8
0
 10
-4.8024
 20
122.5
 11
-4.89441
 21
121.803
  0
LINE
  8
0
 10
-4.89441
 20
121.803
 11
-5.16403
 21
121.151
  0
LINE
  8
0
 10
-5.16403
 20
121.151
 11
-5.59296
 21
120.593
  0
LINE
  8
0
 10
-5.59296
 20
120.593
 11
-6.15097
 21
120.164
  0
LINE
  8
0
 10
-6.15097
 20
120.164
 11
-6.80237
 21
119.895
  0
LINE
  8
0
 10
-6.80237
 20
119.895
 11
-7.5
 21
119.803
  0
LINE
  8
0
 10
-7.5
 20
119.803
 11
-8.19717
 21
119.895
  0
LINE
  8
0
 10
21.8028
 20
119.895
 11
21.1514
 21
120.164
  0
LINE
  8
0
 10
21.1514
 20
120.164
 11
20.9349
 21
120.331
  0
LINE
  8
0
 10
20.9349
 20
120.331
 11
22.7084
 21
122.104
  0
LINE
  8
0
 10
22.7084
 20
122.104
 11
23.3992
 21
119.978
  0
LINE
  8
0
 10
23.3992
 20
119.978
 11
23.1976
 21
119.895
  0
LINE
  8
0
 10
23.1976
 20
119.895
 11
22.5
 21
119.803
  0
LINE
  8
0
 10
22.5
 20
119.803
 11
21.8028
 21
119.895
  0
LINE
  8
0
 10
-24.1485
 20
117.672
 11
-23.4932
 21
119.689
  0
LINE
  8
0
 10
-23.4932
 20
119.689
 11
-23.2777
 21
119.6
  0
LINE
  8
0
 10
-23.2777
 20
119.6
 11
-22.5
 21
119.497
  0
LINE
  8
0
 10
-22.5
 20
119.497
 11
-21.9713
 21
119.567
  0
LINE
  8
0
 10
-21.9713
 20
119.567
 11
-18.3115
 21
115.907
  0
LINE
  8
0
 10
-18.3115
 20
115.907
 11
-24.1485
 21
117.672
  0
LINE
  8
0
 10
21.2389
 20
118.834
 11
21.4897
 21
118.73
  0
LINE
  8
0
 10
21.4897
 20
118.73
 11
22.5
 21
118.597
  0
LINE
  8
0
 10
22.5
 20
118.597
 11
23.5107
 21
118.73
  0
LINE
  8
0
 10
23.5107
 20
118.73
 11
23.7698
 21
118.838
  0
LINE
  8
0
 10
23.7698
 20
118.838
 11
24.1485
 21
117.672
  0
LINE
  8
0
 10
24.1485
 20
117.672
 11
18.3115
 21
115.907
  0
LINE
  8
0
 10
18.3115
 20
115.907
 11
21.2389
 21
118.834
  0
LINE
  8
0
 10
-4.56619
 20
106.971
 11
-4.49661
 21
107.5
  0
LINE
  8
0
 10
-4.49661
 20
107.5
 11
-4.59915
 21
108.277
  0
LINE
  8
0
 10
-4.59915
 20
108.277
 11
-4.89899
 21
109.001
  0
LINE
  8
0
 10
-4.89899
 20
109.001
 11
-5.37598
 21
109.624
  0
LINE
  8
0
 10
-5.37598
 20
109.624
 11
-5.99854
 21
110.101
  0
LINE
  8
0
 10
-5.99854
 20
110.101
 11
-6.72226
 21
110.4
  0
LINE
  8
0
 10
-6.72226
 20
110.4
 11
-7.5
 21
110.503
  0
LINE
  8
0
 10
-7.5
 20
110.503
 11
-8.02872
 21
110.433
  0
LINE
  8
0
 10
-8.02872
 20
110.433
 11
-11.6885
 21
114.093
  0
LINE
  8
0
 10
-11.6885
 20
114.093
 11
-0.00320435
 21
110.56
  0
LINE
  8
0
 10
-0.00320435
 20
110.56
 11
-0.00320435
 21
110.558
  0
LINE
  8
0
 10
-0.00320435
 20
110.558
 11
0
 21
110.559
  0
LINE
  8
0
 10
0
 20
110.559
 11
0.00320435
 21
110.558
  0
LINE
  8
0
 10
0.00320435
 20
110.558
 11
0.00320435
 21
110.56
  0
LINE
  8
0
 10
0.00320435
 20
110.56
 11
11.6885
 21
114.093
  0
LINE
  8
0
 10
11.6885
 20
114.093
 11
8.76114
 21
111.166
  0
LINE
  8
0
 10
8.76114
 20
111.166
 11
8.51028
 21
111.27
  0
LINE
  8
0
 10
8.51028
 20
111.27
 11
7.5
 21
111.403
  0
LINE
  8
0
 10
7.5
 20
111.403
 11
6.48926
 21
111.27
  0
LINE
  8
0
 10
6.48926
 20
111.27
 11
5.54855
 21
110.88
  0
LINE
  8
0
 10
5.54855
 20
110.88
 11
4.73969
 21
110.26
  0
LINE
  8
0
 10
4.73969
 20
110.26
 11
4.11942
 21
109.451
  0
LINE
  8
0
 10
4.11942
 20
109.451
 11
3.72986
 21
108.51
  0
LINE
  8
0
 10
3.72986
 20
108.51
 11
3.59665
 21
107.5
  0
LINE
  8
0
 10
3.59665
 20
107.5
 11
3.72986
 21
106.489
  0
LINE
  8
0
 10
3.72986
 20
106.489
 11
3.83377
 21
106.238
  0
LINE
  8
0
 10
3.83377
 20
106.238
 11
0
 21
102.404
  0
LINE
  8
0
 10
0
 20
102.404
 11
-4.56619
 21
106.971
  0
LINE
  8
0
 10
25.4338
 20
106.971
 11
25.5034
 21
107.5
  0
LINE
  8
0
 10
25.5034
 20
107.5
 11
25.4008
 21
108.277
  0
LINE
  8
0
 10
25.4008
 20
108.277
 11
25.101
 21
109.001
  0
LINE
  8
0
 10
25.101
 20
109.001
 11
24.624
 21
109.624
  0
LINE
  8
0
 10
24.624
 20
109.624
 11
24.0015
 21
110.101
  0
LINE
  8
0
 10
24.0015
 20
110.101
 11
23.2777
 21
110.4
  0
LINE
  8
0
 10
23.2777
 20
110.4
 11
22.5
 21
110.503
  0
LINE
  8
0
 10
22.5
 20
110.503
 11
21.9713
 21
110.433
  0
LINE
  8
0
 10
21.9713
 20
110.433
 11
18.3115
 21
114.093
  0
LINE
  8
0
 10
18.3115
 20
114.093
 11
26.074
 21
111.746
  0
LINE
  8
0
 10
26.074
 20
111.746
 11
28.6806
 21
103.724
  0
LINE
  8
0
 10
28.6806
 20
103.724
 11
25.4338
 21
106.971
  0
LINE
  8
0
 10
-26.074
 20
111.746
 11
-18.3115
 21
114.093
  0
LINE
  8
0
 10
-18.3115
 20
114.093
 11
-21.2389
 21
111.166
  0
LINE
  8
0
 10
-21.2389
 20
111.166
 11
-21.4897
 21
111.27
  0
LINE
  8
0
 10
-21.4897
 20
111.27
 11
-22.5
 21
111.403
  0
LINE
  8
0
 10
-22.5
 20
111.403
 11
-23.5107
 21
111.27
  0
LINE
  8
0
 10
-23.5107
 20
111.27
 11
-24.4514
 21
110.88
  0
LINE
  8
0
 10
-24.4514
 20
110.88
 11
-25.2603
 21
110.26
  0
LINE
  8
0
 10
-25.2603
 20
110.26
 11
-25.8806
 21
109.451
  0
LINE
  8
0
 10
-25.8806
 20
109.451
 11
-26.2701
 21
108.51
  0
LINE
  8
0
 10
-26.2701
 20
108.51
 11
-26.4034
 21
107.5
  0
LINE
  8
0
 10
-26.4034
 20
107.5
 11
-26.2701
 21
106.489
  0
LINE
  8
0
 10
-26.2701
 20
106.489
 11
-26.1662
 21
106.238
  0
LINE
  8
0
 10
-26.1662
 20
106.238
 11
-28.6806
 21
103.724
  0
LINE
  8
0
 10
-28.6806
 20
103.724
 11
-26.074
 21
111.746
  0
LINE
  8
0
 10
-10.5597
 20
99.9968
 11
-10.5579
 21
99.9968
  0
LINE
  8
0
 10
-10.5579
 20
99.9968
 11
-10.5588
 21
100
  0
LINE
  8
0
 10
-10.5588
 20
100
 11
-10.5579
 21
100.003
  0
LINE
  8
0
 10
-10.5579
 20
100.003
 11
-10.5597
 21
100.003
  0
LINE
  8
0
 10
-10.5597
 20
100.003
 11
-14.0932
 21
111.689
  0
LINE
  8
0
 10
-14.0932
 20
111.689
 11
-11.1658
 21
108.761
  0
LINE
  8
0
 10
-11.1658
 20
108.761
 11
-11.2697
 21
108.51
  0
LINE
  8
0
 10
-11.2697
 20
108.51
 11
-11.4029
 21
107.5
  0
LINE
  8
0
 10
-11.4029
 20
107.5
 11
-11.2697
 21
106.489
  0
LINE
  8
0
 10
-11.2697
 20
106.489
 11
-10.8801
 21
105.549
  0
LINE
  8
0
 10
-10.8801
 20
105.549
 11
-10.2599
 21
104.74
  0
LINE
  8
0
 10
-10.2599
 20
104.74
 11
-9.45099
 21
104.119
  0
LINE
  8
0
 10
-9.45099
 20
104.119
 11
-8.51028
 21
103.73
  0
LINE
  8
0
 10
-8.51028
 20
103.73
 11
-7.5
 21
103.597
  0
LINE
  8
0
 10
-7.5
 20
103.597
 11
-6.48926
 21
103.73
  0
LINE
  8
0
 10
-6.48926
 20
103.73
 11
-6.23795
 21
103.834
  0
LINE
  8
0
 10
-6.23795
 20
103.834
 11
-2.40417
 21
100
  0
LINE
  8
0
 10
-2.40417
 20
100
 11
-6.97083
 21
95.4338
  0
LINE
  8
0
 10
-6.97083
 20
95.4338
 11
-7.5
 21
95.5034
  0
LINE
  8
0
 10
-7.5
 20
95.5034
 11
-8.27728
 21
95.4008
  0
LINE
  8
0
 10
-8.27728
 20
95.4008
 11
-9.00101
 21
95.101
  0
LINE
  8
0
 10
-9.00101
 20
95.101
 11
-9.62357
 21
94.624
  0
LINE
  8
0
 10
-9.62357
 20
94.624
 11
-10.1006
 21
94.0015
  0
LINE
  8
0
 10
-10.1006
 20
94.0015
 11
-10.4004
 21
93.2777
  0
LINE
  8
0
 10
-10.4004
 20
93.2777
 11
-10.5029
 21
92.5
  0
LINE
  8
0
 10
-10.5029
 20
92.5
 11
-10.4333
 21
91.9713
  0
LINE
  8
0
 10
-10.4333
 20
91.9713
 11
-14.0932
 21
88.3115
  0
LINE
  8
0
 10
-14.0932
 20
88.3115
 11
-10.5597
 21
99.9968
  0
LINE
  8
0
 10
-18.8342
 20
91.2389
 11
-18.7303
 21
91.4897
  0
LINE
  8
0
 10
-18.7303
 20
91.4897
 11
-18.5971
 21
92.5
  0
LINE
  8
0
 10
-18.5971
 20
92.5
 11
-18.7303
 21
93.5107
  0
LINE
  8
0
 10
-18.7303
 20
93.5107
 11
-19.1199
 21
94.4514
  0
LINE
  8
0
 10
-19.1199
 20
94.4514
 11
-19.7401
 21
95.2603
  0
LINE
  8
0
 10
-19.7401
 20
95.2603
 11
-20.549
 21
95.8806
  0
LINE
  8
0
 10
-20.549
 20
95.8806
 11
-21.4897
 21
96.2701
  0
LINE
  8
0
 10
-21.4897
 20
96.2701
 11
-22.5
 21
96.4034
  0
LINE
  8
0
 10
-22.5
 20
96.4034
 11
-23.5107
 21
96.2701
  0
LINE
  8
0
 10
-23.5107
 20
96.2701
 11
-23.7621
 21
96.1662
  0
LINE
  8
0
 10
-23.7621
 20
96.1662
 11
-27.5958
 21
100
  0
LINE
  8
0
 10
-27.5958
 20
100
 11
-23.0292
 21
104.566
  0
LINE
  8
0
 10
-23.0292
 20
104.566
 11
-22.5
 21
104.497
  0
LINE
  8
0
 10
-22.5
 20
104.497
 11
-21.7227
 21
104.599
  0
LINE
  8
0
 10
-21.7227
 20
104.599
 11
-20.999
 21
104.899
  0
LINE
  8
0
 10
-20.999
 20
104.899
 11
-20.3764
 21
105.376
  0
LINE
  8
0
 10
-20.3764
 20
105.376
 11
-19.8994
 21
105.999
  0
LINE
  8
0
 10
-19.8994
 20
105.999
 11
-19.5996
 21
106.722
  0
LINE
  8
0
 10
-19.5996
 20
106.722
 11
-19.4971
 21
107.5
  0
LINE
  8
0
 10
-19.4971
 20
107.5
 11
-19.5667
 21
108.029
  0
LINE
  8
0
 10
-19.5667
 20
108.029
 11
-15.9068
 21
111.689
  0
LINE
  8
0
 10
-15.9068
 20
111.689
 11
-19.4403
 21
100.003
  0
LINE
  8
0
 10
-19.4403
 20
100.003
 11
-19.4421
 21
100.003
  0
LINE
  8
0
 10
-19.4421
 20
100.003
 11
-19.4412
 21
100
  0
LINE
  8
0
 10
-19.4412
 20
100
 11
-19.4421
 21
99.9968
  0
LINE
  8
0
 10
-19.4421
 20
99.9968
 11
-19.4403
 21
99.9968
  0
LINE
  8
0
 10
-19.4403
 20
99.9968
 11
-15.9068
 21
88.3115
  0
LINE
  8
0
 10
-15.9068
 20
88.3115
 11
-18.8342
 21
91.2389
  0
LINE
  8
0
 10
19.4403
 20
99.9968
 11
19.4421
 21
99.9968
  0
LINE
  8
0
 10
19.4421
 20
99.9968
 11
19.4412
 21
100
  0
LINE
  8
0
 10
19.4412
 20
100
 11
19.4421
 21
100.003
  0
LINE
  8
0
 10
19.4421
 20
100.003
 11
19.4403
 21
100.003
  0
LINE
  8
0
 10
19.4403
 20
100.003
 11
15.9068
 21
111.689
  0
LINE
  8
0
 10
15.9068
 20
111.689
 11
18.8342
 21
108.761
  0
LINE
  8
0
 10
18.8342
 20
108.761
 11
18.7303
 21
108.51
  0
LINE
  8
0
 10
18.7303
 20
108.51
 11
18.5971
 21
107.5
  0
LINE
  8
0
 10
18.5971
 20
107.5
 11
18.7303
 21
106.489
  0
LINE
  8
0
 10
18.7303
 20
106.489
 11
19.1199
 21
105.549
  0
LINE
  8
0
 10
19.1199
 20
105.549
 11
19.7401
 21
104.74
  0
LINE
  8
0
 10
19.7401
 20
104.74
 11
20.549
 21
104.119
  0
LINE
  8
0
 10
20.549
 20
104.119
 11
21.4897
 21
103.73
  0
LINE
  8
0
 10
21.4897
 20
103.73
 11
22.5
 21
103.597
  0
LINE
  8
0
 10
22.5
 20
103.597
 11
23.5107
 21
103.73
  0
LINE
  8
0
 10
23.5107
 20
103.73
 11
23.7621
 21
103.834
  0
LINE
  8
0
 10
23.7621
 20
103.834
 11
27.5958
 21
100
  0
LINE
  8
0
 10
27.5958
 20
100
 11
23.0292
 21
95.4338
  0
LINE
  8
0
 10
23.0292
 20
95.4338
 11
22.5
 21
95.5034
  0
LINE
  8
0
 10
22.5
 20
95.5034
 11
21.7227
 21
95.4008
  0
LINE
  8
0
 10
21.7227
 20
95.4008
 11
20.999
 21
95.101
  0
LINE
  8
0
 10
20.999
 20
95.101
 11
20.3764
 21
94.624
  0
LINE
  8
0
 10
20.3764
 20
94.624
 11
19.8994
 21
94.0015
  0
LINE
  8
0
 10
19.8994
 20
94.0015
 11
19.5996
 21
93.2777
  0
LINE
  8
0
 10
19.5996
 20
93.2777
 11
19.4971
 21
92.5
  0
LINE
  8
0
 10
19.4971
 20
92.5
 11
19.5667
 21
91.9713
  0
LINE
  8
0
 10
19.5667
 20
91.9713
 11
15.9068
 21
88.3115
  0
LINE
  8
0
 10
15.9068
 20
88.3115
 11
19.4403
 21
99.9968
  0
LINE
  8
0
 10
11.1658
 20
91.2389
 11
11.2697
 21
91.4897
  0
LINE
  8
0
 10
11.2697
 20
91.4897
 11
11.4029
 21
92.5
  0
LINE
  8
0
 10
11.4029
 20
92.5
 11
11.2697
 21
93.5107
  0
LINE
  8
0
 10
11.2697
 20
93.5107
 11
10.8801
 21
94.4514
  0
LINE
  8
0
 10
10.8801
 20
94.4514
 11
10.2599
 21
95.2603
  0
LINE
  8
0
 10
10.2599
 20
95.2603
 11
9.45099
 21
95.8806
  0
LINE
  8
0
 10
9.45099
 20
95.8806
 11
8.51028
 21
96.2701
  0
LINE
  8
0
 10
8.51028
 20
96.2701
 11
7.5
 21
96.4034
  0
LINE
  8
0
 10
7.5
 20
96.4034
 11
6.48926
 21
96.2701
  0
LINE
  8
0
 10
6.48926
 20
96.2701
 11
6.23795
 21
96.1662
  0
LINE
  8
0
 10
6.23795
 20
96.1662
 11
2.40417
 21
100
  0
LINE
  8
0
 10
2.40417
 20
100
 11
6.97083
 21
104.566
  0
LINE
  8
0
 10
6.97083
 20
104.566
 11
7.5
 21
104.497
  0
LINE
  8
0
 10
7.5
 20
104.497
 11
8.27728
 21
104.599
  0
LINE
  8
0
 10
8.27728
 20
104.599
 11
9.00101
 21
104.899
  0
LINE
  8
0
 10
9.00101
 20
104.899
 11
9.62357
 21
105.376
  0
LINE
  8
0
 10
9.62357
 20
105.376
 11
10.1006
 21
105.999
  0
LINE
  8
0
 10
10.1006
 20
105.999
 11
10.4004
 21
106.722
  0
LINE
  8
0
 10
10.4004
 20
106.722
 11
10.5029
 21
107.5
  0
LINE
  8
0
 10
10.5029
 20
107.5
 11
10.4333
 21
108.029
  0
LINE
  8
0
 10
10.4333
 20
108.029
 11
14.0932
 21
111.689
  0
LINE
  8
0
 10
14.0932
 20
111.689
 11
10.5597
 21
100.003
  0
LINE
  8
0
 10
10.5597
 20
100.003
 11
10.5579
 21
100.003
  0
LINE
  8
0
 10
10.5579
 20
100.003
 11
10.5588
 21
100
  0
LINE
  8
0
 10
10.5588
 20
100
 11
10.5579
 21
99.9968
  0
LINE
  8
0
 10
10.5579
 20
99.9968
 11
10.5597
 21
99.9968
  0
LINE
  8
0
 10
10.5597
 20
99.9968
 11
14.0932
 21
88.3115
  0
LINE
  8
0
 10
14.0932
 20
88.3115
 11
11.1658
 21
91.2389
  0
LINE
  8
0
 10
-24.836
 20
106.151
 11
-25.1056
 21
106.802
  0
LINE
  8
0
 10
-25.1056
 20
106.802
 11
-25.1976
 21
107.5
  0
LINE
  8
0
 10
-25.1976
 20
107.5
 11
-25.1056
 21
108.197
  0
LINE
  8
0
 10
-25.1056
 20
108.197
 11
-24.836
 21
108.849
  0
LINE
  8
0
 10
-24.836
 20
108.849
 11
-24.4075
 21
109.407
  0
LINE
  8
0
 10
-24.4075
 20
109.407
 11
-23.849
 21
109.836
  0
LINE
  8
0
 10
-23.849
 20
109.836
 11
-23.1976
 21
110.105
  0
LINE
  8
0
 10
-23.1976
 20
110.105
 11
-22.5
 21
110.197
  0
LINE
  8
0
 10
-22.5
 20
110.197
 11
-21.8028
 21
110.105
  0
LINE
  8
0
 10
-21.8028
 20
110.105
 11
-21.1514
 21
109.836
  0
LINE
  8
0
 10
-21.1514
 20
109.836
 11
-20.9349
 21
109.669
  0
LINE
  8
0
 10
-20.9349
 20
109.669
 11
-24.6698
 21
105.934
  0
LINE
  8
0
 10
-24.6698
 20
105.934
 11
-24.836
 21
106.151
  0
LINE
  8
0
 10
5.16403
 20
106.151
 11
4.89441
 21
106.802
  0
LINE
  8
0
 10
4.89441
 20
106.802
 11
4.8024
 21
107.5
  0
LINE
  8
0
 10
4.8024
 20
107.5
 11
4.89441
 21
108.197
  0
LINE
  8
0
 10
4.89441
 20
108.197
 11
5.16403
 21
108.849
  0
LINE
  8
0
 10
5.16403
 20
108.849
 11
5.5925
 21
109.407
  0
LINE
  8
0
 10
5.5925
 20
109.407
 11
6.15097
 21
109.836
  0
LINE
  8
0
 10
6.15097
 20
109.836
 11
6.80237
 21
110.105
  0
LINE
  8
0
 10
6.80237
 20
110.105
 11
7.5
 21
110.197
  0
LINE
  8
0
 10
7.5
 20
110.197
 11
8.19717
 21
110.105
  0
LINE
  8
0
 10
8.19717
 20
110.105
 11
8.84857
 21
109.836
  0
LINE
  8
0
 10
8.84857
 20
109.836
 11
9.06509
 21
109.669
  0
LINE
  8
0
 10
9.06509
 20
109.669
 11
5.3302
 21
105.934
  0
LINE
  8
0
 10
5.3302
 20
105.934
 11
5.16403
 21
106.151
  0
LINE
  8
0
 10
-8.19717
 20
104.894
 11
-8.84857
 21
105.164
  0
LINE
  8
0
 10
-8.84857
 20
105.164
 11
-9.40704
 21
105.593
  0
LINE
  8
0
 10
-9.40704
 20
105.593
 11
-9.83551
 21
106.151
  0
LINE
  8
0
 10
-9.83551
 20
106.151
 11
-10.1051
 21
106.802
  0
LINE
  8
0
 10
-10.1051
 20
106.802
 11
-10.1971
 21
107.5
  0
LINE
  8
0
 10
-10.1971
 20
107.5
 11
-10.1051
 21
108.197
  0
LINE
  8
0
 10
-10.1051
 20
108.197
 11
-9.83551
 21
108.849
  0
LINE
  8
0
 10
-9.83551
 20
108.849
 11
-9.66934
 21
109.065
  0
LINE
  8
0
 10
-9.66934
 20
109.065
 11
-5.93445
 21
105.33
  0
LINE
  8
0
 10
-5.93445
 20
105.33
 11
-6.15097
 21
105.164
  0
LINE
  8
0
 10
-6.15097
 20
105.164
 11
-6.80237
 21
104.894
  0
LINE
  8
0
 10
-6.80237
 20
104.894
 11
-7.5
 21
104.802
  0
LINE
  8
0
 10
-7.5
 20
104.802
 11
-8.19717
 21
104.894
  0
LINE
  8
0
 10
21.8028
 20
104.894
 11
21.1514
 21
105.164
  0
LINE
  8
0
 10
21.1514
 20
105.164
 11
20.593
 21
105.593
  0
LINE
  8
0
 10
20.593
 20
105.593
 11
20.1645
 21
106.151
  0
LINE
  8
0
 10
20.1645
 20
106.151
 11
19.8949
 21
106.802
  0
LINE
  8
0
 10
19.8949
 20
106.802
 11
19.8029
 21
107.5
  0
LINE
  8
0
 10
19.8029
 20
107.5
 11
19.8949
 21
108.197
  0
LINE
  8
0
 10
19.8949
 20
108.197
 11
20.1645
 21
108.849
  0
LINE
  8
0
 10
20.1645
 20
108.849
 11
20.3307
 21
109.065
  0
LINE
  8
0
 10
20.3307
 20
109.065
 11
24.0656
 21
105.33
  0
LINE
  8
0
 10
24.0656
 20
105.33
 11
23.849
 21
105.164
  0
LINE
  8
0
 10
23.849
 20
105.164
 11
23.1976
 21
104.894
  0
LINE
  8
0
 10
23.1976
 20
104.894
 11
22.5
 21
104.802
  0
LINE
  8
0
 10
22.5
 20
104.802
 11
21.8028
 21
104.894
  0
LINE
  8
0
 10
0.00320435
 20
89.4403
 11
0.00320435
 21
89.4421
  0
LINE
  8
0
 10
0.00320435
 20
89.4421
 11
0
 21
89.4412
  0
LINE
  8
0
 10
0
 20
89.4412
 11
-0.00320435
 21
89.4421
  0
LINE
  8
0
 10
-0.00320435
 20
89.4421
 11
-0.00320435
 21
89.4403
  0
LINE
  8
0
 10
-0.00320435
 20
89.4403
 11
-11.6885
 21
85.9068
  0
LINE
  8
0
 10
-11.6885
 20
85.9068
 11
-8.76114
 21
88.8342
  0
LINE
  8
0
 10
-8.76114
 20
88.8342
 11
-8.51028
 21
88.7303
  0
LINE
  8
0
 10
-8.51028
 20
88.7303
 11
-7.5
 21
88.5971
  0
LINE
  8
0
 10
-7.5
 20
88.5971
 11
-6.48926
 21
88.7303
  0
LINE
  8
0
 10
-6.48926
 20
88.7303
 11
-5.54855
 21
89.1199
  0
LINE
  8
0
 10
-5.54855
 20
89.1199
 11
-4.73969
 21
89.7401
  0
LINE
  8
0
 10
-4.73969
 20
89.7401
 11
-4.11942
 21
90.549
  0
LINE
  8
0
 10
-4.11942
 20
90.549
 11
-3.72986
 21
91.4897
  0
LINE
  8
0
 10
-3.72986
 20
91.4897
 11
-3.59665
 21
92.5
  0
LINE
  8
0
 10
-3.59665
 20
92.5
 11
-3.72986
 21
93.5107
  0
LINE
  8
0
 10
-3.72986
 20
93.5107
 11
-3.83377
 21
93.7621
  0
LINE
  8
0
 10
-3.83377
 20
93.7621
 11
0
 21
97.5958
  0
LINE
  8
0
 10
0
 20
97.5958
 11
4.56619
 21
93.0292
  0
LINE
  8
0
 10
4.56619
 20
93.0292
 11
4.49661
 21
92.5
  0
LINE
  8
0
 10
4.49661
 20
92.5
 11
4.59915
 21
91.7227
  0
LINE
  8
0
 10
4.59915
 20
91.7227
 11
4.89899
 21
90.999
  0
LINE
  8
0
 10
4.89899
 20
90.999
 11
5.37598
 21
90.3764
  0
LINE
  8
0
 10
5.37598
 20
90.3764
 11
5.99854
 21
89.8994
  0
LINE
  8
0
 10
5.99854
 20
89.8994
 11
6.72226
 21
89.5996
  0
LINE
  8
0
 10
6.72226
 20
89.5996
 11
7.5
 21
89.4971
  0
LINE
  8
0
 10
7.5
 20
89.4971
 11
8.02872
 21
89.5667
  0
LINE
  8
0
 10
8.02872
 20
89.5667
 11
11.6885
 21
85.9068
  0
LINE
  8
0
 10
11.6885
 20
85.9068
 11
0.00320435
 21
89.4403
  0
LINE
  8
0
 10
21.2389
 20
88.8342
 11
21.4897
 21
88.7303
  0
LINE
  8
0
 10
21.4897
 20
88.7303
 11
22.5
 21
88.5971
  0
LINE
  8
0
 10
22.5
 20
88.5971
 11
23.5107
 21
88.7303
  0
LINE
  8
0
 10
23.5107
 20
88.7303
 11
24.4514
 21
89.1199
  0
LINE
  8
0
 10
24.4514
 20
89.1199
 11
25.2603
 21
89.7401
  0
LINE
  8
0
 10
25.2603
 20
89.7401
 11
25.8806
 21
90.549
  0
LINE
  8
0
 10
25.8806
 20
90.549
 11
26.2701
 21
91.4897
  0
LINE
  8
0
 10
26.2701
 20
91.4897
 11
26.4034
 21
92.5
  0
LINE
  8
0
 10
26.4034
 20
92.5
 11
26.2701
 21
93.5107
  0
LINE
  8
0
 10
26.2701
 20
93.5107
 11
26.1662
 21
93.7621
  0
LINE
  8
0
 10
26.1662
 20
93.7621
 11
30
 21
97.5958
  0
LINE
  8
0
 10
30
 20
97.5958
 11
30.995
 21
96.6008
  0
LINE
  8
0
 10
30.995
 20
96.6008
 11
33.6831
 21
88.3276
  0
LINE
  8
0
 10
33.6831
 20
88.3276
 11
30.0032
 21
89.4403
  0
LINE
  8
0
 10
30.0032
 20
89.4403
 11
30.0032
 21
89.4421
  0
LINE
  8
0
 10
30.0032
 20
89.4421
 11
30
 21
89.4412
  0
LINE
  8
0
 10
30
 20
89.4412
 11
29.9968
 21
89.4421
  0
LINE
  8
0
 10
29.9968
 20
89.4421
 11
29.9968
 21
89.4403
  0
LINE
  8
0
 10
29.9968
 20
89.4403
 11
18.3115
 21
85.9068
  0
LINE
  8
0
 10
18.3115
 20
85.9068
 11
21.2389
 21
88.8342
  0
LINE
  8
0
 10
-29.9968
 20
89.4403
 11
-29.9968
 21
89.4421
  0
LINE
  8
0
 10
-29.9968
 20
89.4421
 11
-30
 21
89.4412
  0
LINE
  8
0
 10
-30
 20
89.4412
 11
-30.0032
 21
89.4421
  0
LINE
  8
0
 10
-30.0032
 20
89.4421
 11
-30.0032
 21
89.4403
  0
LINE
  8
0
 10
-30.0032
 20
89.4403
 11
-33.6831
 21
88.3276
  0
LINE
  8
0
 10
-33.6831
 20
88.3276
 11
-30.9949
 21
96.6009
  0
LINE
  8
0
 10
-30.9949
 20
96.6009
 11
-30
 21
97.5958
  0
LINE
  8
0
 10
-30
 20
97.5958
 11
-25.4338
 21
93.0292
  0
LINE
  8
0
 10
-25.4338
 20
93.0292
 11
-25.5034
 21
92.5
  0
LINE
  8
0
 10
-25.5034
 20
92.5
 11
-25.4008
 21
91.7227
  0
LINE
  8
0
 10
-25.4008
 20
91.7227
 11
-25.101
 21
90.999
  0
LINE
  8
0
 10
-25.101
 20
90.999
 11
-24.624
 21
90.3764
  0
LINE
  8
0
 10
-24.624
 20
90.3764
 11
-24.0015
 21
89.8994
  0
LINE
  8
0
 10
-24.0015
 20
89.8994
 11
-23.2777
 21
89.5996
  0
LINE
  8
0
 10
-23.2777
 20
89.5996
 11
-22.5
 21
89.4971
  0
LINE
  8
0
 10
-22.5
 20
89.4971
 11
-21.9713
 21
89.5667
  0
LINE
  8
0
 10
-21.9713
 20
89.5667
 11
-18.3115
 21
85.9068
  0
LINE
  8
0
 10
-18.3115
 20
85.9068
 11
-29.9968
 21
89.4403
  0
LINE
  8
0
 10
-24.0656
 20
94.6698
 11
-23.849
 21
94.836
  0
LINE
  8
0
 10
-23.849
 20
94.836
 11
-23.1976
 21
95.1056
  0
LINE
  8
0
 10
-23.1976
 20
95.1056
 11
-22.5
 21
95.1976
  0
LINE
  8
0
 10
-22.5
 20
95.1976
 11
-21.8028
 21
95.1056
  0
LINE
  8
0
 10
-21.8028
 20
95.1056
 11
-21.1514
 21
94.836
  0
LINE
  8
0
 10
-21.1514
 20
94.836
 11
-20.593
 21
94.407
  0
LINE
  8
0
 10
-20.593
 20
94.407
 11
-20.1645
 21
93.849
  0
LINE
  8
0
 10
-20.1645
 20
93.849
 11
-19.8949
 21
93.1976
  0
LINE
  8
0
 10
-19.8949
 20
93.1976
 11
-19.8029
 21
92.4995
  0
LINE
  8
0
 10
-19.8029
 20
92.4995
 11
-19.8949
 21
91.8028
  0
LINE
  8
0
 10
-19.8949
 20
91.8028
 11
-20.1645
 21
91.1514
  0
LINE
  8
0
 10
-20.1645
 20
91.1514
 11
-20.3307
 21
90.9349
  0
LINE
  8
0
 10
-20.3307
 20
90.9349
 11
-24.0656
 21
94.6698
  0
LINE
  8
0
 10
5.93445
 20
94.6698
 11
6.15097
 21
94.836
  0
LINE
  8
0
 10
6.15097
 20
94.836
 11
6.80237
 21
95.1056
  0
LINE
  8
0
 10
6.80237
 20
95.1056
 11
7.5
 21
95.1976
  0
LINE
  8
0
 10
7.5
 20
95.1976
 11
8.19717
 21
95.1056
  0
LINE
  8
0
 10
8.19717
 20
95.1056
 11
8.84857
 21
94.836
  0
LINE
  8
0
 10
8.84857
 20
94.836
 11
9.40704
 21
94.407
  0
LINE
  8
0
 10
9.40704
 20
94.407
 11
9.83551
 21
93.849
  0
LINE
  8
0
 10
9.83551
 20
93.849
 11
10.1051
 21
93.1976
  0
LINE
  8
0
 10
10.1051
 20
93.1976
 11
10.1971
 21
92.4995
  0
LINE
  8
0
 10
10.1971
 20
92.4995
 11
10.1051
 21
91.8028
  0
LINE
  8
0
 10
10.1051
 20
91.8028
 11
9.83551
 21
91.1514
  0
LINE
  8
0
 10
9.83551
 20
91.1514
 11
9.66934
 21
90.9349
  0
LINE
  8
0
 10
9.66934
 20
90.9349
 11
5.93445
 21
94.6698
  0
LINE
  8
0
 10
-8.19717
 20
89.8949
 11
-8.84857
 21
90.1645
  0
LINE
  8
0
 10
-8.84857
 20
90.1645
 11
-9.06509
 21
90.3307
  0
LINE
  8
0
 10
-9.06509
 20
90.3307
 11
-5.3302
 21
94.0656
  0
LINE
  8
0
 10
-5.3302
 20
94.0656
 11
-5.16403
 21
93.849
  0
LINE
  8
0
 10
-5.16403
 20
93.849
 11
-4.89441
 21
93.1976
  0
LINE
  8
0
 10
-4.89441
 20
93.1976
 11
-4.8024
 21
92.4995
  0
LINE
  8
0
 10
-4.8024
 20
92.4995
 11
-4.89441
 21
91.8028
  0
LINE
  8
0
 10
-4.89441
 20
91.8028
 11
-5.16403
 21
91.1514
  0
LINE
  8
0
 10
-5.16403
 20
91.1514
 11
-5.59296
 21
90.593
  0
LINE
  8
0
 10
-5.59296
 20
90.593
 11
-6.15097
 21
90.1645
  0
LINE
  8
0
 10
-6.15097
 20
90.1645
 11
-6.80237
 21
89.8949
  0
LINE
  8
0
 10
-6.80237
 20
89.8949
 11
-7.5
 21
89.8029
  0
LINE
  8
0
 10
-7.5
 20
89.8029
 11
-8.19717
 21
89.8949
  0
LINE
  8
0
 10
21.8028
 20
89.8949
 11
21.1514
 21
90.1645
  0
LINE
  8
0
 10
21.1514
 20
90.1645
 11
20.9349
 21
90.3307
  0
LINE
  8
0
 10
20.9349
 20
90.3307
 11
24.6698
 21
94.0656
  0
LINE
  8
0
 10
24.6698
 20
94.0656
 11
24.836
 21
93.849
  0
LINE
  8
0
 10
24.836
 20
93.849
 11
25.1056
 21
93.1976
  0
LINE
  8
0
 10
25.1056
 20
93.1976
 11
25.1976
 21
92.4995
  0
LINE
  8
0
 10
25.1976
 20
92.4995
 11
25.1056
 21
91.8028
  0
LINE
  8
0
 10
25.1056
 20
91.8028
 11
24.836
 21
91.1514
  0
LINE
  8
0
 10
24.836
 20
91.1514
 11
24.407
 21
90.593
  0
LINE
  8
0
 10
24.407
 20
90.593
 11
23.849
 21
90.1645
  0
LINE
  8
0
 10
23.849
 20
90.1645
 11
23.1976
 21
89.8949
  0
LINE
  8
0
 10
23.1976
 20
89.8949
 11
22.5
 21
89.8029
  0
LINE
  8
0
 10
22.5
 20
89.8029
 11
21.8028
 21
89.8949
  0
LINE
  8
0
 10
25.4338
 20
76.9708
 11
25.5034
 21
77.5
  0
LINE
  8
0
 10
25.5034
 20
77.5
 11
25.4008
 21
78.2773
  0
LINE
  8
0
 10
25.4008
 20
78.2773
 11
25.101
 21
79.001
  0
LINE
  8
0
 10
25.101
 20
79.001
 11
24.624
 21
79.6236
  0
LINE
  8
0
 10
24.624
 20
79.6236
 11
24.0015
 21
80.1006
  0
LINE
  8
0
 10
24.0015
 20
80.1006
 11
23.2777
 21
80.4004
  0
LINE
  8
0
 10
23.2777
 20
80.4004
 11
22.5
 21
80.5029
  0
LINE
  8
0
 10
22.5
 20
80.5029
 11
21.9713
 21
80.4333
  0
LINE
  8
0
 10
21.9713
 20
80.4333
 11
18.3115
 21
84.0932
  0
LINE
  8
0
 10
18.3115
 20
84.0932
 11
29.9968
 21
80.5597
  0
LINE
  8
0
 10
29.9968
 20
80.5597
 11
29.9968
 21
80.5579
  0
LINE
  8
0
 10
29.9968
 20
80.5579
 11
30
 21
80.5588
  0
LINE
  8
0
 10
30
 20
80.5588
 11
30.0032
 21
80.5579
  0
LINE
  8
0
 10
30.0032
 20
80.5579
 11
30.0032
 21
80.5597
  0
LINE
  8
0
 10
30.0032
 20
80.5597
 11
35.652
 21
82.2678
  0
LINE
  8
0
 10
35.652
 20
82.2678
 11
36.0372
 21
81.0825
  0
LINE
  8
0
 10
36.0372
 20
81.0825
 11
35.5486
 21
80.8801
  0
LINE
  8
0
 10
35.5486
 20
80.8801
 11
34.7397
 21
80.2599
  0
LINE
  8
0
 10
34.7397
 20
80.2599
 11
34.1194
 21
79.451
  0
LINE
  8
0
 10
34.1194
 20
79.451
 11
33.7299
 21
78.5103
  0
LINE
  8
0
 10
33.7299
 20
78.5103
 11
33.5966
 21
77.5
  0
LINE
  8
0
 10
33.5966
 20
77.5
 11
33.7299
 21
76.4893
  0
LINE
  8
0
 10
33.7299
 20
76.4893
 11
33.8338
 21
76.2379
  0
LINE
  8
0
 10
33.8338
 20
76.2379
 11
30
 21
72.4042
  0
LINE
  8
0
 10
30
 20
72.4042
 11
25.4338
 21
76.9708
  0
LINE
  8
0
 10
-4.56619
 20
76.9708
 11
-4.49661
 21
77.5
  0
LINE
  8
0
 10
-4.49661
 20
77.5
 11
-4.59915
 21
78.2773
  0
LINE
  8
0
 10
-4.59915
 20
78.2773
 11
-4.89899
 21
79.001
  0
LINE
  8
0
 10
-4.89899
 20
79.001
 11
-5.37598
 21
79.6236
  0
LINE
  8
0
 10
-5.37598
 20
79.6236
 11
-5.99854
 21
80.1006
  0
LINE
  8
0
 10
-5.99854
 20
80.1006
 11
-6.72226
 21
80.4004
  0
LINE
  8
0
 10
-6.72226
 20
80.4004
 11
-7.5
 21
80.5029
  0
LINE
  8
0
 10
-7.5
 20
80.5029
 11
-8.02872
 21
80.4333
  0
LINE
  8
0
 10
-8.02872
 20
80.4333
 11
-11.6885
 21
84.0932
  0
LINE
  8
0
 10
-11.6885
 20
84.0932
 11
-0.00320435
 21
80.5597
  0
LINE
  8
0
 10
-0.00320435
 20
80.5597
 11
-0.00320435
 21
80.5579
  0
LINE
  8
0
 10
-0.00320435
 20
80.5579
 11
0
 21
80.5588
  0
LINE
  8
0
 10
0
 20
80.5588
 11
0.00320435
 21
80.5579
  0
LINE
  8
0
 10
0.00320435
 20
80.5579
 11
0.00320435
 21
80.5597
  0
LINE
  8
0
 10
0.00320435
 20
80.5597
 11
11.6885
 21
84.0932
  0
LINE
  8
0
 10
11.6885
 20
84.0932
 11
8.76114
 21
81.1658
  0
LINE
  8
0
 10
8.76114
 20
81.1658
 11
8.51028
 21
81.2697
  0
LINE
  8
0
 10
8.51028
 20
81.2697
 11
7.5
 21
81.4029
  0
LINE
  8
0
 10
7.5
 20
81.4029
 11
6.48926
 21
81.2697
  0
LINE
  8
0
 10
6.48926
 20
81.2697
 11
5.54855
 21
80.8801
  0
LINE
  8
0
 10
5.54855
 20
80.8801
 11
4.73969
 21
80.2599
  0
LINE
  8
0
 10
4.73969
 20
80.2599
 11
4.11942
 21
79.451
  0
LINE
  8
0
 10
4.11942
 20
79.451
 11
3.72986
 21
78.5103
  0
LINE
  8
0
 10
3.72986
 20
78.5103
 11
3.59665
 21
77.5
  0
LINE
  8
0
 10
3.59665
 20
77.5
 11
3.72986
 21
76.4893
  0
LINE
  8
0
 10
3.72986
 20
76.4893
 11
3.83377
 21
76.2379
  0
LINE
  8
0
 10
3.83377
 20
76.2379
 11
0
 21
72.4042
  0
LINE
  8
0
 10
0
 20
72.4042
 11
-4.56619
 21
76.9708
  0
LINE
  8
0
 10
-34.5662
 20
76.9708
 11
-34.4966
 21
77.5
  0
LINE
  8
0
 10
-34.4966
 20
77.5
 11
-34.5992
 21
78.2773
  0
LINE
  8
0
 10
-34.5992
 20
78.2773
 11
-34.899
 21
79.001
  0
LINE
  8
0
 10
-34.899
 20
79.001
 11
-35.376
 21
79.6236
  0
LINE
  8
0
 10
-35.376
 20
79.6236
 11
-35.9985
 21
80.1006
  0
LINE
  8
0
 10
-35.9985
 20
80.1006
 11
-36.3138
 21
80.2312
  0
LINE
  8
0
 10
-36.3138
 20
80.2312
 11
-35.652
 21
82.2678
  0
LINE
  8
0
 10
-35.652
 20
82.2678
 11
-30.0032
 21
80.5597
  0
LINE
  8
0
 10
-30.0032
 20
80.5597
 11
-30.0032
 21
80.5579
  0
LINE
  8
0
 10
-30.0032
 20
80.5579
 11
-30
 21
80.5588
  0
LINE
  8
0
 10
-30
 20
80.5588
 11
-29.9968
 21
80.5579
  0
LINE
  8
0
 10
-29.9968
 20
80.5579
 11
-29.9968
 21
80.5597
  0
LINE
  8
0
 10
-29.9968
 20
80.5597
 11
-18.3115
 21
84.0932
  0
LINE
  8
0
 10
-18.3115
 20
84.0932
 11
-21.2389
 21
81.1658
  0
LINE
  8
0
 10
-21.2389
 20
81.1658
 11
-21.4897
 21
81.2697
  0
LINE
  8
0
 10
-21.4897
 20
81.2697
 11
-22.5
 21
81.4029
  0
LINE
  8
0
 10
-22.5
 20
81.4029
 11
-23.5107
 21
81.2697
  0
LINE
  8
0
 10
-23.5107
 20
81.2697
 11
-24.4514
 21
80.8801
  0
LINE
  8
0
 10
-24.4514
 20
80.8801
 11
-25.2603
 21
80.2599
  0
LINE
  8
0
 10
-25.2603
 20
80.2599
 11
-25.8806
 21
79.451
  0
LINE
  8
0
 10
-25.8806
 20
79.451
 11
-26.2701
 21
78.5103
  0
LINE
  8
0
 10
-26.2701
 20
78.5103
 11
-26.4034
 21
77.5
  0
LINE
  8
0
 10
-26.4034
 20
77.5
 11
-26.2701
 21
76.4893
  0
LINE
  8
0
 10
-26.2701
 20
76.4893
 11
-26.1662
 21
76.2379
  0
LINE
  8
0
 10
-26.1662
 20
76.2379
 11
-30
 21
72.4042
  0
LINE
  8
0
 10
-30
 20
72.4042
 11
-34.5662
 21
76.9708
  0
LINE
  8
0
 10
-18.8342
 20
61.2389
 11
-18.7303
 21
61.4897
  0
LINE
  8
0
 10
-18.7303
 20
61.4897
 11
-18.5971
 21
62.5
  0
LINE
  8
0
 10
-18.5971
 20
62.5
 11
-18.7303
 21
63.5107
  0
LINE
  8
0
 10
-18.7303
 20
63.5107
 11
-19.1199
 21
64.4514
  0
LINE
  8
0
 10
-19.1199
 20
64.4514
 11
-19.7401
 21
65.2603
  0
LINE
  8
0
 10
-19.7401
 20
65.2603
 11
-20.549
 21
65.8806
  0
LINE
  8
0
 10
-20.549
 20
65.8806
 11
-21.4897
 21
66.2701
  0
LINE
  8
0
 10
-21.4897
 20
66.2701
 11
-22.5
 21
66.4034
  0
LINE
  8
0
 10
-22.5
 20
66.4034
 11
-23.5107
 21
66.2701
  0
LINE
  8
0
 10
-23.5107
 20
66.2701
 11
-23.7621
 21
66.1662
  0
LINE
  8
0
 10
-23.7621
 20
66.1662
 11
-27.5958
 21
70
  0
LINE
  8
0
 10
-27.5958
 20
70
 11
-23.0292
 21
74.5662
  0
LINE
  8
0
 10
-23.0292
 20
74.5662
 11
-22.5
 21
74.4966
  0
LINE
  8
0
 10
-22.5
 20
74.4966
 11
-21.7227
 21
74.5992
  0
LINE
  8
0
 10
-21.7227
 20
74.5992
 11
-20.999
 21
74.899
  0
LINE
  8
0
 10
-20.999
 20
74.899
 11
-20.3764
 21
75.376
  0
LINE
  8
0
 10
-20.3764
 20
75.376
 11
-19.8994
 21
75.9985
  0
LINE
  8
0
 10
-19.8994
 20
75.9985
 11
-19.5996
 21
76.7223
  0
LINE
  8
0
 10
-19.5996
 20
76.7223
 11
-19.4971
 21
77.5
  0
LINE
  8
0
 10
-19.4971
 20
77.5
 11
-19.5667
 21
78.0287
  0
LINE
  8
0
 10
-19.5667
 20
78.0287
 11
-15.9068
 21
81.6885
  0
LINE
  8
0
 10
-15.9068
 20
81.6885
 11
-19.4403
 21
70.0032
  0
LINE
  8
0
 10
-19.4403
 20
70.0032
 11
-19.4421
 21
70.0032
  0
LINE
  8
0
 10
-19.4421
 20
70.0032
 11
-19.4412
 21
70
  0
LINE
  8
0
 10
-19.4412
 20
70
 11
-19.4421
 21
69.9968
  0
LINE
  8
0
 10
-19.4421
 20
69.9968
 11
-19.4403
 21
69.9968
  0
LINE
  8
0
 10
-19.4403
 20
69.9968
 11
-15.9068
 21
58.3115
  0
LINE
  8
0
 10
-15.9068
 20
58.3115
 11
-18.8342
 21
61.2389
  0
LINE
  8
0
 10
-10.5597
 20
69.9968
 11
-10.5579
 21
69.9968
  0
LINE
  8
0
 10
-10.5579
 20
69.9968
 11
-10.5588
 21
70
  0
LINE
  8
0
 10
-10.5588
 20
70
 11
-10.5579
 21
70.0032
  0
LINE
  8
0
 10
-10.5579
 20
70.0032
 11
-10.5597
 21
70.0032
  0
LINE
  8
0
 10
-10.5597
 20
70.0032
 11
-14.0932
 21
81.6885
  0
LINE
  8
0
 10
-14.0932
 20
81.6885
 11
-11.1658
 21
78.7611
  0
LINE
  8
0
 10
-11.1658
 20
78.7611
 11
-11.2697
 21
78.5103
  0
LINE
  8
0
 10
-11.2697
 20
78.5103
 11
-11.4029
 21
77.5
  0
LINE
  8
0
 10
-11.4029
 20
77.5
 11
-11.2697
 21
76.4893
  0
LINE
  8
0
 10
-11.2697
 20
76.4893
 11
-10.8801
 21
75.5486
  0
LINE
  8
0
 10
-10.8801
 20
75.5486
 11
-10.2599
 21
74.7397
  0
LINE
  8
0
 10
-10.2599
 20
74.7397
 11
-9.45099
 21
74.1194
  0
LINE
  8
0
 10
-9.45099
 20
74.1194
 11
-8.51028
 21
73.7299
  0
LINE
  8
0
 10
-8.51028
 20
73.7299
 11
-7.5
 21
73.5966
  0
LINE
  8
0
 10
-7.5
 20
73.5966
 11
-6.48926
 21
73.7299
  0
LINE
  8
0
 10
-6.48926
 20
73.7299
 11
-6.23795
 21
73.8338
  0
LINE
  8
0
 10
-6.23795
 20
73.8338
 11
-2.40417
 21
70
  0
LINE
  8
0
 10
-2.40417
 20
70
 11
-6.97083
 21
65.4338
  0
LINE
  8
0
 10
-6.97083
 20
65.4338
 11
-7.5
 21
65.5034
  0
LINE
  8
0
 10
-7.5
 20
65.5034
 11
-8.27728
 21
65.4008
  0
LINE
  8
0
 10
-8.27728
 20
65.4008
 11
-9.00101
 21
65.101
  0
LINE
  8
0
 10
-9.00101
 20
65.101
 11
-9.62357
 21
64.624
  0
LINE
  8
0
 10
-9.62357
 20
64.624
 11
-10.1006
 21
64.0015
  0
LINE
  8
0
 10
-10.1006
 20
64.0015
 11
-10.4004
 21
63.2777
  0
LINE
  8
0
 10
-10.4004
 20
63.2777
 11
-10.5029
 21
62.5
  0
LINE
  8
0
 10
-10.5029
 20
62.5
 11
-10.4333
 21
61.9713
  0
LINE
  8
0
 10
-10.4333
 20
61.9713
 11
-14.0932
 21
58.3115
  0
LINE
  8
0
 10
-14.0932
 20
58.3115
 11
-10.5597
 21
69.9968
  0
LINE
  8
0
 10
19.4403
 20
69.9968
 11
19.4421
 21
69.9968
  0
LINE
  8
0
 10
19.4421
 20
69.9968
 11
19.4412
 21
70
  0
LINE
  8
0
 10
19.4412
 20
70
 11
19.4421
 21
70.0032
  0
LINE
  8
0
 10
19.4421
 20
70.0032
 11
19.4403
 21
70.0032
  0
LINE
  8
0
 10
19.4403
 20
70.0032
 11
15.9068
 21
81.6885
  0
LINE
  8
0
 10
15.9068
 20
81.6885
 11
18.8342
 21
78.7611
  0
LINE
  8
0
 10
18.8342
 20
78.7611
 11
18.7303
 21
78.5103
  0
LINE
  8
0
 10
18.7303
 20
78.5103
 11
18.5971
 21
77.5
  0
LINE
  8
0
 10
18.5971
 20
77.5
 11
18.7303
 21
76.4893
  0
LINE
  8
0
 10
18.7303
 20
76.4893
 11
19.1199
 21
75.5486
  0
LINE
  8
0
 10
19.1199
 20
75.5486
 11
19.7401
 21
74.7397
  0
LINE
  8
0
 10
19.7401
 20
74.7397
 11
20.549
 21
74.1194
  0
LINE
  8
0
 10
20.549
 20
74.1194
 11
21.4897
 21
73.7299
  0
LINE
  8
0
 10
21.4897
 20
73.7299
 11
22.5
 21
73.5966
  0
LINE
  8
0
 10
22.5
 20
73.5966
 11
23.5107
 21
73.7299
  0
LINE
  8
0
 10
23.5107
 20
73.7299
 11
23.7621
 21
73.8338
  0
LINE
  8
0
 10
23.7621
 20
73.8338
 11
27.5958
 21
70
  0
LINE
  8
0
 10
27.5958
 20
70
 11
23.0292
 21
65.4338
  0
LINE
  8
0
 10
23.0292
 20
65.4338
 11
22.5
 21
65.5034
  0
LINE
  8
0
 10
22.5
 20
65.5034
 11
21.7227
 21
65.4008
  0
LINE
  8
0
 10
21.7227
 20
65.4008
 11
20.999
 21
65.101
  0
LINE
  8
0
 10
20.999
 20
65.101
 11
20.3764
 21
64.624
  0
LINE
  8
0
 10
20.3764
 20
64.624
 11
19.8994
 21
64.0015
  0
LINE
  8
0
 10
19.8994
 20
64.0015
 11
19.5996
 21
63.2777
  0
LINE
  8
0
 10
19.5996
 20
63.2777
 11
19.4971
 21
62.5
  0
LINE
  8
0
 10
19.4971
 20
62.5
 11
19.5667
 21
61.9713
  0
LINE
  8
0
 10
19.5667
 20
61.9713
 11
15.9068
 21
58.3115
  0
LINE
  8
0
 10
15.9068
 20
58.3115
 11
19.4403
 21
69.9968
  0
LINE
  8
0
 10
11.1658
 20
61.2389
 11
11.2697
 21
61.4897
  0
LINE
  8
0
 10
11.2697
 20
61.4897
 11
11.4029
 21
62.5
  0
LINE
  8
0
 10
11.4029
 20
62.5
 11
11.2697
 21
63.5107
  0
LINE
  8
0
 10
11.2697
 20
63.5107
 11
10.8801
 21
64.4514
  0
LINE
  8
0
 10
10.8801
 20
64.4514
 11
10.2599
 21
65.2603
  0
LINE
  8
0
 10
10.2599
 20
65.2603
 11
9.45099
 21
65.8806
  0
LINE
  8
0
 10
9.45099
 20
65.8806
 11
8.51028
 21
66.2701
  0
LINE
  8
0
 10
8.51028
 20
66.2701
 11
7.5
 21
66.4034
  0
LINE
  8
0
 10
7.5
 20
66.4034
 11
6.48926
 21
66.2701
  0
LINE
  8
0
 10
6.48926
 20
66.2701
 11
6.23795
 21
66.1662
  0
LINE
  8
0
 10
6.23795
 20
66.1662
 11
2.40417
 21
70
  0
LINE
  8
0
 10
2.40417
 20
70
 11
6.97083
 21
74.5662
  0
LINE
  8
0
 10
6.97083
 20
74.5662
 11
7.5
 21
74.4966
  0
LINE
  8
0
 10
7.5
 20
74.4966
 11
8.27728
 21
74.5992
  0
LINE
  8
0
 10
8.27728
 20
74.5992
 11
9.00101
 21
74.899
  0
LINE
  8
0
 10
9.00101
 20
74.899
 11
9.62357
 21
75.376
  0
LINE
  8
0
 10
9.62357
 20
75.376
 11
10.1006
 21
75.9985
  0
LINE
  8
0
 10
10.1006
 20
75.9985
 11
10.4004
 21
76.7223
  0
LINE
  8
0
 10
10.4004
 20
76.7223
 11
10.5029
 21
77.5
  0
LINE
  8
0
 10
10.5029
 20
77.5
 11
10.4333
 21
78.0287
  0
LINE
  8
0
 10
10.4333
 20
78.0287
 11
14.0932
 21
81.6885
  0
LINE
  8
0
 10
14.0932
 20
81.6885
 11
10.5597
 21
70.0032
  0
LINE
  8
0
 10
10.5597
 20
70.0032
 11
10.5579
 21
70.0032
  0
LINE
  8
0
 10
10.5579
 20
70.0032
 11
10.5588
 21
70
  0
LINE
  8
0
 10
10.5588
 20
70
 11
10.5579
 21
69.9968
  0
LINE
  8
0
 10
10.5579
 20
69.9968
 11
10.5597
 21
69.9968
  0
LINE
  8
0
 10
10.5597
 20
69.9968
 11
14.0932
 21
58.3115
  0
LINE
  8
0
 10
14.0932
 20
58.3115
 11
11.1658
 21
61.2389
  0
LINE
  8
0
 10
-24.836
 20
76.151
 11
-25.1056
 21
76.8024
  0
LINE
  8
0
 10
-25.1056
 20
76.8024
 11
-25.1976
 21
77.5005
  0
LINE
  8
0
 10
-25.1976
 20
77.5005
 11
-25.1056
 21
78.1972
  0
LINE
  8
0
 10
-25.1056
 20
78.1972
 11
-24.836
 21
78.8486
  0
LINE
  8
0
 10
-24.836
 20
78.8486
 11
-24.4075
 21
79.4066
  0
LINE
  8
0
 10
-24.4075
 20
79.4066
 11
-23.849
 21
79.8355
  0
LINE
  8
0
 10
-23.849
 20
79.8355
 11
-23.1976
 21
80.1051
  0
LINE
  8
0
 10
-23.1976
 20
80.1051
 11
-22.5
 21
80.1971
  0
LINE
  8
0
 10
-22.5
 20
80.1971
 11
-21.8028
 21
80.1051
  0
LINE
  8
0
 10
-21.8028
 20
80.1051
 11
-21.1514
 21
79.8355
  0
LINE
  8
0
 10
-21.1514
 20
79.8355
 11
-20.9349
 21
79.6693
  0
LINE
  8
0
 10
-20.9349
 20
79.6693
 11
-24.6698
 21
75.9344
  0
LINE
  8
0
 10
-24.6698
 20
75.9344
 11
-24.836
 21
76.151
  0
LINE
  8
0
 10
5.16403
 20
76.151
 11
4.89441
 21
76.8024
  0
LINE
  8
0
 10
4.89441
 20
76.8024
 11
4.8024
 21
77.5005
  0
LINE
  8
0
 10
4.8024
 20
77.5005
 11
4.89441
 21
78.1972
  0
LINE
  8
0
 10
4.89441
 20
78.1972
 11
5.16403
 21
78.8486
  0
LINE
  8
0
 10
5.16403
 20
78.8486
 11
5.5925
 21
79.4066
  0
LINE
  8
0
 10
5.5925
 20
79.4066
 11
6.15097
 21
79.8355
  0
LINE
  8
0
 10
6.15097
 20
79.8355
 11
6.80237
 21
80.1051
  0
LINE
  8
0
 10
6.80237
 20
80.1051
 11
7.5
 21
80.1971
  0
LINE
  8
0
 10
7.5
 20
80.1971
 11
8.19717
 21
80.1051
  0
LINE
  8
0
 10
8.19717
 20
80.1051
 11
8.84857
 21
79.8355
  0
LINE
  8
0
 10
8.84857
 20
79.8355
 11
9.06509
 21
79.6693
  0
LINE
  8
0
 10
9.06509
 20
79.6693
 11
5.3302
 21
75.9344
  0
LINE
  8
0
 10
5.3302
 20
75.9344
 11
5.16403
 21
76.151
  0
LINE
  8
0
 10
35.164
 20
76.151
 11
34.8944
 21
76.8024
  0
LINE
  8
0
 10
34.8944
 20
76.8024
 11
34.8024
 21
77.5005
  0
LINE
  8
0
 10
34.8024
 20
77.5005
 11
34.8944
 21
78.1972
  0
LINE
  8
0
 10
34.8944
 20
78.1972
 11
35.164
 21
78.8486
  0
LINE
  8
0
 10
35.164
 20
78.8486
 11
35.5925
 21
79.4066
  0
LINE
  8
0
 10
35.5925
 20
79.4066
 11
36.151
 21
79.8355
  0
LINE
  8
0
 10
36.151
 20
79.8355
 11
36.4078
 21
79.9418
  0
LINE
  8
0
 10
36.4078
 20
79.9418
 11
37.1263
 21
77.7305
  0
LINE
  8
0
 10
37.1263
 20
77.7305
 11
35.3302
 21
75.9344
  0
LINE
  8
0
 10
35.3302
 20
75.9344
 11
35.164
 21
76.151
  0
LINE
  8
0
 10
21.8028
 20
74.8944
 11
21.1514
 21
75.164
  0
LINE
  8
0
 10
21.1514
 20
75.164
 11
20.593
 21
75.593
  0
LINE
  8
0
 10
20.593
 20
75.593
 11
20.1645
 21
76.151
  0
LINE
  8
0
 10
20.1645
 20
76.151
 11
19.8949
 21
76.8024
  0
LINE
  8
0
 10
19.8949
 20
76.8024
 11
19.8029
 21
77.5005
  0
LINE
  8
0
 10
19.8029
 20
77.5005
 11
19.8949
 21
78.1972
  0
LINE
  8
0
 10
19.8949
 20
78.1972
 11
20.1645
 21
78.8486
  0
LINE
  8
0
 10
20.1645
 20
78.8486
 11
20.3307
 21
79.0651
  0
LINE
  8
0
 10
20.3307
 20
79.0651
 11
24.0656
 21
75.3302
  0
LINE
  8
0
 10
24.0656
 20
75.3302
 11
23.849
 21
75.164
  0
LINE
  8
0
 10
23.849
 20
75.164
 11
23.1976
 21
74.8944
  0
LINE
  8
0
 10
23.1976
 20
74.8944
 11
22.5
 21
74.8024
  0
LINE
  8
0
 10
22.5
 20
74.8024
 11
21.8028
 21
74.8944
  0
LINE
  8
0
 10
-8.19717
 20
74.8944
 11
-8.84857
 21
75.164
  0
LINE
  8
0
 10
-8.84857
 20
75.164
 11
-9.40704
 21
75.593
  0
LINE
  8
0
 10
-9.40704
 20
75.593
 11
-9.83551
 21
76.151
  0
LINE
  8
0
 10
-9.83551
 20
76.151
 11
-10.1051
 21
76.8024
  0
LINE
  8
0
 10
-10.1051
 20
76.8024
 11
-10.1971
 21
77.5005
  0
LINE
  8
0
 10
-10.1971
 20
77.5005
 11
-10.1051
 21
78.1972
  0
LINE
  8
0
 10
-10.1051
 20
78.1972
 11
-9.83551
 21
78.8486
  0
LINE
  8
0
 10
-9.83551
 20
78.8486
 11
-9.66934
 21
79.0651
  0
LINE
  8
0
 10
-9.66934
 20
79.0651
 11
-5.93445
 21
75.3302
  0
LINE
  8
0
 10
-5.93445
 20
75.3302
 11
-6.15097
 21
75.164
  0
LINE
  8
0
 10
-6.15097
 20
75.164
 11
-6.80237
 21
74.8944
  0
LINE
  8
0
 10
-6.80237
 20
74.8944
 11
-7.5
 21
74.8024
  0
LINE
  8
0
 10
-7.5
 20
74.8024
 11
-8.19717
 21
74.8944
  0
LINE
  8
0
 10
-38.0539
 20
74.8755
 11
-37.4226
 21
76.8184
  0
LINE
  8
0
 10
-37.4226
 20
76.8184
 11
-35.9344
 21
75.3302
  0
LINE
  8
0
 10
-35.9344
 20
75.3302
 11
-36.151
 21
75.164
  0
LINE
  8
0
 10
-36.151
 20
75.164
 11
-36.8024
 21
74.8944
  0
LINE
  8
0
 10
-36.8024
 20
74.8944
 11
-37.5
 21
74.8024
  0
LINE
  8
0
 10
-37.5
 20
74.8024
 11
-38.0539
 21
74.8755
  0
LINE
  8
0
 10
41.1658
 20
61.2389
 11
41.2697
 21
61.4897
  0
LINE
  8
0
 10
41.2697
 20
61.4897
 11
41.4029
 21
62.5
  0
LINE
  8
0
 10
41.4029
 20
62.5
 11
41.2697
 21
63.5107
  0
LINE
  8
0
 10
41.2697
 20
63.5107
 11
40.8801
 21
64.4514
  0
LINE
  8
0
 10
40.8801
 20
64.4514
 11
40.2599
 21
65.2603
  0
LINE
  8
0
 10
40.2599
 20
65.2603
 11
39.451
 21
65.8806
  0
LINE
  8
0
 10
39.451
 20
65.8806
 11
38.5103
 21
66.2701
  0
LINE
  8
0
 10
38.5103
 20
66.2701
 11
37.5
 21
66.4034
  0
LINE
  8
0
 10
37.5
 20
66.4034
 11
36.4893
 21
66.2701
  0
LINE
  8
0
 10
36.4893
 20
66.2701
 11
36.2379
 21
66.1662
  0
LINE
  8
0
 10
36.2379
 20
66.1662
 11
32.4042
 21
70
  0
LINE
  8
0
 10
32.4042
 20
70
 11
36.9708
 21
74.5662
  0
LINE
  8
0
 10
36.9708
 20
74.5662
 11
37.5
 21
74.4966
  0
LINE
  8
0
 10
37.5
 20
74.4966
 11
38.1492
 21
74.5823
  0
LINE
  8
0
 10
38.1492
 20
74.5823
 11
43.1196
 21
59.2851
  0
LINE
  8
0
 10
43.1196
 20
59.2851
 11
41.1658
 21
61.2389
  0
LINE
  8
0
 10
-38.4296
 20
73.7192
 11
-37.5
 21
73.5966
  0
LINE
  8
0
 10
-37.5
 20
73.5966
 11
-36.4893
 21
73.7299
  0
LINE
  8
0
 10
-36.4893
 20
73.7299
 11
-36.2379
 21
73.8338
  0
LINE
  8
0
 10
-36.2379
 20
73.8338
 11
-32.4042
 21
70
  0
LINE
  8
0
 10
-32.4042
 20
70
 11
-36.9708
 21
65.4338
  0
LINE
  8
0
 10
-36.9708
 20
65.4338
 11
-37.5
 21
65.5034
  0
LINE
  8
0
 10
-37.5
 20
65.5034
 11
-38.2773
 21
65.4008
  0
LINE
  8
0
 10
-38.2773
 20
65.4008
 11
-39.001
 21
65.101
  0
LINE
  8
0
 10
-39.001
 20
65.101
 11
-39.6236
 21
64.624
  0
LINE
  8
0
 10
-39.6236
 20
64.624
 11
-40.1006
 21
64.0015
  0
LINE
  8
0
 10
-40.1006
 20
64.0015
 11
-40.4004
 21
63.2777
  0
LINE
  8
0
 10
-40.4004
 20
63.2777
 11
-40.5029
 21
62.5
  0
LINE
  8
0
 10
-40.5029
 20
62.5
 11
-40.4333
 21
61.9713
  0
LINE
  8
0
 10
-40.4333
 20
61.9713
 11
-43.1196
 21
59.2851
  0
LINE
  8
0
 10
-43.1196
 20
59.2851
 11
-38.4296
 21
73.7192
  0
LINE
  8
0
 10
30.0032
 20
59.4403
 11
30.0032
 21
59.4421
  0
LINE
  8
0
 10
30.0032
 20
59.4421
 11
30
 21
59.4412
  0
LINE
  8
0
 10
30
 20
59.4412
 11
29.9968
 21
59.4421
  0
LINE
  8
0
 10
29.9968
 20
59.4421
 11
29.9968
 21
59.4403
  0
LINE
  8
0
 10
29.9968
 20
59.4403
 11
18.3115
 21
55.9068
  0
LINE
  8
0
 10
18.3115
 20
55.9068
 11
21.2389
 21
58.8342
  0
LINE
  8
0
 10
21.2389
 20
58.8342
 11
21.4897
 21
58.7303
  0
LINE
  8
0
 10
21.4897
 20
58.7303
 11
22.5
 21
58.5971
  0
LINE
  8
0
 10
22.5
 20
58.5971
 11
23.5107
 21
58.7303
  0
LINE
  8
0
 10
23.5107
 20
58.7303
 11
24.4514
 21
59.1199
  0
LINE
  8
0
 10
24.4514
 20
59.1199
 11
25.2603
 21
59.7401
  0
LINE
  8
0
 10
25.2603
 20
59.7401
 11
25.8806
 21
60.549
  0
LINE
  8
0
 10
25.8806
 20
60.549
 11
26.2701
 21
61.4897
  0
LINE
  8
0
 10
26.2701
 20
61.4897
 11
26.4034
 21
62.5
  0
LINE
  8
0
 10
26.4034
 20
62.5
 11
26.2701
 21
63.5107
  0
LINE
  8
0
 10
26.2701
 20
63.5107
 11
26.1662
 21
63.7621
  0
LINE
  8
0
 10
26.1662
 20
63.7621
 11
30
 21
67.5958
  0
LINE
  8
0
 10
30
 20
67.5958
 11
34.5662
 21
63.0292
  0
LINE
  8
0
 10
34.5662
 20
63.0292
 11
34.4966
 21
62.5
  0
LINE
  8
0
 10
34.4966
 20
62.5
 11
34.5992
 21
61.7227
  0
LINE
  8
0
 10
34.5992
 20
61.7227
 11
34.899
 21
60.999
  0
LINE
  8
0
 10
34.899
 20
60.999
 11
35.376
 21
60.3764
  0
LINE
  8
0
 10
35.376
 20
60.3764
 11
35.9985
 21
59.8994
  0
LINE
  8
0
 10
35.9985
 20
59.8994
 11
36.7223
 21
59.5996
  0
LINE
  8
0
 10
36.7223
 20
59.5996
 11
37.5
 21
59.4971
  0
LINE
  8
0
 10
37.5
 20
59.4971
 11
38.0287
 21
59.5667
  0
LINE
  8
0
 10
38.0287
 20
59.5667
 11
41.6885
 21
55.9068
  0
LINE
  8
0
 10
41.6885
 20
55.9068
 11
30.0032
 21
59.4403
  0
LINE
  8
0
 10
0.00320435
 20
59.4403
 11
0.00320435
 21
59.4421
  0
LINE
  8
0
 10
0.00320435
 20
59.4421
 11
0
 21
59.4412
  0
LINE
  8
0
 10
0
 20
59.4412
 11
-0.00320435
 21
59.4421
  0
LINE
  8
0
 10
-0.00320435
 20
59.4421
 11
-0.00320435
 21
59.4403
  0
LINE
  8
0
 10
-0.00320435
 20
59.4403
 11
-11.6885
 21
55.9068
  0
LINE
  8
0
 10
-11.6885
 20
55.9068
 11
-8.76114
 21
58.8342
  0
LINE
  8
0
 10
-8.76114
 20
58.8342
 11
-8.51028
 21
58.7303
  0
LINE
  8
0
 10
-8.51028
 20
58.7303
 11
-7.5
 21
58.5971
  0
LINE
  8
0
 10
-7.5
 20
58.5971
 11
-6.48926
 21
58.7303
  0
LINE
  8
0
 10
-6.48926
 20
58.7303
 11
-5.54855
 21
59.1199
  0
LINE
  8
0
 10
-5.54855
 20
59.1199
 11
-4.73969
 21
59.7401
  0
LINE
  8
0
 10
-4.73969
 20
59.7401
 11
-4.11942
 21
60.549
  0
LINE
  8
0
 10
-4.11942
 20
60.549
 11
-3.72986
 21
61.4897
  0
LINE
  8
0
 10
-3.72986
 20
61.4897
 11
-3.59665
 21
62.5
  0
LINE
  8
0
 10
-3.59665
 20
62.5
 11
-3.72986
 21
63.5107
  0
LINE
  8
0
 10
-3.72986
 20
63.5107
 11
-3.83377
 21
63.7621
  0
LINE
  8
0
 10
-3.83377
 20
63.7621
 11
0
 21
67.5958
  0
LINE
  8
0
 10
0
 20
67.5958
 11
4.56619
 21
63.0292
  0
LINE
  8
0
 10
4.56619
 20
63.0292
 11
4.49661
 21
62.5
  0
LINE
  8
0
 10
4.49661
 20
62.5
 11
4.59915
 21
61.7227
  0
LINE
  8
0
 10
4.59915
 20
61.7227
 11
4.89899
 21
60.999
  0
LINE
  8
0
 10
4.89899
 20
60.999
 11
5.37598
 21
60.3764
  0
LINE
  8
0
 10
5.37598
 20
60.3764
 11
5.99854
 21
59.8994
  0
LINE
  8
0
 10
5.99854
 20
59.8994
 11
6.72226
 21
59.5996
  0
LINE
  8
0
 10
6.72226
 20
59.5996
 11
7.5
 21
59.4971
  0
LINE
  8
0
 10
7.5
 20
59.4971
 11
8.02872
 21
59.5667
  0
LINE
  8
0
 10
8.02872
 20
59.5667
 11
11.6885
 21
55.9068
  0
LINE
  8
0
 10
11.6885
 20
55.9068
 11
0.00320435
 21
59.4403
  0
LINE
  8
0
 10
-29.9968
 20
59.4403
 11
-29.9968
 21
59.4421
  0
LINE
  8
0
 10
-29.9968
 20
59.4421
 11
-30
 21
59.4412
  0
LINE
  8
0
 10
-30
 20
59.4412
 11
-30.0032
 21
59.4421
  0
LINE
  8
0
 10
-30.0032
 20
59.4421
 11
-30.0032
 21
59.4403
  0
LINE
  8
0
 10
-30.0032
 20
59.4403
 11
-41.6885
 21
55.9068
  0
LINE
  8
0
 10
-41.6885
 20
55.9068
 11
-38.7611
 21
58.8342
  0
LINE
  8
0
 10
-38.7611
 20
58.8342
 11
-38.5103
 21
58.7303
  0
LINE
  8
0
 10
-38.5103
 20
58.7303
 11
-37.5
 21
58.5971
  0
LINE
  8
0
 10
-37.5
 20
58.5971
 11
-36.4893
 21
58.7303
  0
LINE
  8
0
 10
-36.4893
 20
58.7303
 11
-35.5486
 21
59.1199
  0
LINE
  8
0
 10
-35.5486
 20
59.1199
 11
-34.7397
 21
59.7401
  0
LINE
  8
0
 10
-34.7397
 20
59.7401
 11
-34.1194
 21
60.549
  0
LINE
  8
0
 10
-34.1194
 20
60.549
 11
-33.7299
 21
61.4897
  0
LINE
  8
0
 10
-33.7299
 20
61.4897
 11
-33.5966
 21
62.5
  0
LINE
  8
0
 10
-33.5966
 20
62.5
 11
-33.7299
 21
63.5107
  0
LINE
  8
0
 10
-33.7299
 20
63.5107
 11
-33.8338
 21
63.7621
  0
LINE
  8
0
 10
-33.8338
 20
63.7621
 11
-30
 21
67.5958
  0
LINE
  8
0
 10
-30
 20
67.5958
 11
-25.4338
 21
63.0292
  0
LINE
  8
0
 10
-25.4338
 20
63.0292
 11
-25.5034
 21
62.5
  0
LINE
  8
0
 10
-25.5034
 20
62.5
 11
-25.4008
 21
61.7227
  0
LINE
  8
0
 10
-25.4008
 20
61.7227
 11
-25.101
 21
60.999
  0
LINE
  8
0
 10
-25.101
 20
60.999
 11
-24.624
 21
60.3764
  0
LINE
  8
0
 10
-24.624
 20
60.3764
 11
-24.0015
 21
59.8994
  0
LINE
  8
0
 10
-24.0015
 20
59.8994
 11
-23.2777
 21
59.5996
  0
LINE
  8
0
 10
-23.2777
 20
59.5996
 11
-22.5
 21
59.4971
  0
LINE
  8
0
 10
-22.5
 20
59.4971
 11
-21.9713
 21
59.5667
  0
LINE
  8
0
 10
-21.9713
 20
59.5667
 11
-18.3115
 21
55.9068
  0
LINE
  8
0
 10
-18.3115
 20
55.9068
 11
-29.9968
 21
59.4403
  0
LINE
  8
0
 10
5.93445
 20
64.6698
 11
6.15097
 21
64.836
  0
LINE
  8
0
 10
6.15097
 20
64.836
 11
6.80237
 21
65.1056
  0
LINE
  8
0
 10
6.80237
 20
65.1056
 11
7.5
 21
65.1976
  0
LINE
  8
0
 10
7.5
 20
65.1976
 11
8.19717
 21
65.1056
  0
LINE
  8
0
 10
8.19717
 20
65.1056
 11
8.84857
 21
64.836
  0
LINE
  8
0
 10
8.84857
 20
64.836
 11
9.40704
 21
64.407
  0
LINE
  8
0
 10
9.40704
 20
64.407
 11
9.83551
 21
63.849
  0
LINE
  8
0
 10
9.83551
 20
63.849
 11
10.1051
 21
63.1976
  0
LINE
  8
0
 10
10.1051
 20
63.1976
 11
10.1971
 21
62.4995
  0
LINE
  8
0
 10
10.1971
 20
62.4995
 11
10.1051
 21
61.8028
  0
LINE
  8
0
 10
10.1051
 20
61.8028
 11
9.83551
 21
61.1514
  0
LINE
  8
0
 10
9.83551
 20
61.1514
 11
9.66934
 21
60.9349
  0
LINE
  8
0
 10
9.66934
 20
60.9349
 11
5.93445
 21
64.6698
  0
LINE
  8
0
 10
35.9344
 20
64.6698
 11
36.151
 21
64.836
  0
LINE
  8
0
 10
36.151
 20
64.836
 11
36.8024
 21
65.1056
  0
LINE
  8
0
 10
36.8024
 20
65.1056
 11
37.5
 21
65.1976
  0
LINE
  8
0
 10
37.5
 20
65.1976
 11
38.1972
 21
65.1056
  0
LINE
  8
0
 10
38.1972
 20
65.1056
 11
38.8486
 21
64.836
  0
LINE
  8
0
 10
38.8486
 20
64.836
 11
39.407
 21
64.407
  0
LINE
  8
0
 10
39.407
 20
64.407
 11
39.8355
 21
63.849
  0
LINE
  8
0
 10
39.8355
 20
63.849
 11
40.1051
 21
63.1976
  0
LINE
  8
0
 10
40.1051
 20
63.1976
 11
40.1971
 21
62.4995
  0
LINE
  8
0
 10
40.1971
 20
62.4995
 11
40.1051
 21
61.8028
  0
LINE
  8
0
 10
40.1051
 20
61.8028
 11
39.8355
 21
61.1514
  0
LINE
  8
0
 10
39.8355
 20
61.1514
 11
39.6693
 21
60.9349
  0
LINE
  8
0
 10
39.6693
 20
60.9349
 11
35.9344
 21
64.6698
  0
LINE
  8
0
 10
-24.0656
 20
64.6698
 11
-23.849
 21
64.836
  0
LINE
  8
0
 10
-23.849
 20
64.836
 11
-23.1976
 21
65.1056
  0
LINE
  8
0
 10
-23.1976
 20
65.1056
 11
-22.5
 21
65.1976
  0
LINE
  8
0
 10
-22.5
 20
65.1976
 11
-21.8028
 21
65.1056
  0
LINE
  8
0
 10
-21.8028
 20
65.1056
 11
-21.1514
 21
64.836
  0
LINE
  8
0
 10
-21.1514
 20
64.836
 11
-20.593
 21
64.407
  0
LINE
  8
0
 10
-20.593
 20
64.407
 11
-20.1645
 21
63.849
  0
LINE
  8
0
 10
-20.1645
 20
63.849
 11
-19.8949
 21
63.1976
  0
LINE
  8
0
 10
-19.8949
 20
63.1976
 11
-19.8029
 21
62.4995
  0
LINE
  8
0
 10
-19.8029
 20
62.4995
 11
-19.8949
 21
61.8028
  0
LINE
  8
0
 10
-19.8949
 20
61.8028
 11
-20.1645
 21
61.1514
  0
LINE
  8
0
 10
-20.1645
 20
61.1514
 11
-20.3307
 21
60.9349
  0
LINE
  8
0
 10
-20.3307
 20
60.9349
 11
-24.0656
 21
64.6698
  0
LINE
  8
0
 10
-8.19717
 20
59.8949
 11
-8.84857
 21
60.1645
  0
LINE
  8
0
 10
-8.84857
 20
60.1645
 11
-9.06509
 21
60.3307
  0
LINE
  8
0
 10
-9.06509
 20
60.3307
 11
-5.3302
 21
64.0656
  0
LINE
  8
0
 10
-5.3302
 20
64.0656
 11
-5.16403
 21
63.849
  0
LINE
  8
0
 10
-5.16403
 20
63.849
 11
-4.89441
 21
63.1976
  0
LINE
  8
0
 10
-4.89441
 20
63.1976
 11
-4.8024
 21
62.4995
  0
LINE
  8
0
 10
-4.8024
 20
62.4995
 11
-4.89441
 21
61.8028
  0
LINE
  8
0
 10
-4.89441
 20
61.8028
 11
-5.16403
 21
61.1514
  0
LINE
  8
0
 10
-5.16403
 20
61.1514
 11
-5.59296
 21
60.593
  0
LINE
  8
0
 10
-5.59296
 20
60.593
 11
-6.15097
 21
60.1645
  0
LINE
  8
0
 10
-6.15097
 20
60.1645
 11
-6.80237
 21
59.8949
  0
LINE
  8
0
 10
-6.80237
 20
59.8949
 11
-7.5
 21
59.8029
  0
LINE
  8
0
 10
-7.5
 20
59.8029
 11
-8.19717
 21
59.8949
  0
LINE
  8
0
 10
21.8028
 20
59.8949
 11
21.1514
 21
60.1645
  0
LINE
  8
0
 10
21.1514
 20
60.1645
 11
20.9349
 21
60.3307
  0
LINE
  8
0
 10
20.9349
 20
60.3307
 11
24.6698
 21
64.0656
  0
LINE
  8
0
 10
24.6698
 20
64.0656
 11
24.836
 21
63.849
  0
LINE
  8
0
 10
24.836
 20
63.849
 11
25.1056
 21
63.1976
  0
LINE
  8
0
 10
25.1056
 20
63.1976
 11
25.1976
 21
62.4995
  0
LINE
  8
0
 10
25.1976
 20
62.4995
 11
25.1056
 21
61.8028
  0
LINE
  8
0
 10
25.1056
 20
61.8028
 11
24.836
 21
61.1514
  0
LINE
  8
0
 10
24.836
 20
61.1514
 11
24.407
 21
60.593
  0
LINE
  8
0
 10
24.407
 20
60.593
 11
23.849
 21
60.1645
  0
LINE
  8
0
 10
23.849
 20
60.1645
 11
23.1976
 21
59.8949
  0
LINE
  8
0
 10
23.1976
 20
59.8949
 11
22.5
 21
59.8029
  0
LINE
  8
0
 10
22.5
 20
59.8029
 11
21.8028
 21
59.8949
  0
LINE
  8
0
 10
-38.1972
 20
59.8949
 11
-38.8486
 21
60.1645
  0
LINE
  8
0
 10
-38.8486
 20
60.1645
 11
-39.0651
 21
60.3307
  0
LINE
  8
0
 10
-39.0651
 20
60.3307
 11
-35.3302
 21
64.0656
  0
LINE
  8
0
 10
-35.3302
 20
64.0656
 11
-35.164
 21
63.849
  0
LINE
  8
0
 10
-35.164
 20
63.849
 11
-34.8944
 21
63.1976
  0
LINE
  8
0
 10
-34.8944
 20
63.1976
 11
-34.8024
 21
62.4995
  0
LINE
  8
0
 10
-34.8024
 20
62.4995
 11
-34.8944
 21
61.8028
  0
LINE
  8
0
 10
-34.8944
 20
61.8028
 11
-35.164
 21
61.1514
  0
LINE
  8
0
 10
-35.164
 20
61.1514
 11
-35.593
 21
60.593
  0
LINE
  8
0
 10
-35.593
 20
60.593
 11
-36.151
 21
60.1645
  0
LINE
  8
0
 10
-36.151
 20
60.1645
 11
-36.8024
 21
59.8949
  0
LINE
  8
0
 10
-36.8024
 20
59.8949
 11
-37.5
 21
59.8029
  0
LINE
  8
0
 10
-37.5
 20
59.8029
 11
-38.1972
 21
59.8949
  0
LINE
  8
0
 10
-34.5662
 20
46.9708
 11
-34.4966
 21
47.5
  0
LINE
  8
0
 10
-34.4966
 20
47.5
 11
-34.5992
 21
48.2773
  0
LINE
  8
0
 10
-34.5992
 20
48.2773
 11
-34.899
 21
49.001
  0
LINE
  8
0
 10
-34.899
 20
49.001
 11
-35.376
 21
49.6236
  0
LINE
  8
0
 10
-35.376
 20
49.6236
 11
-35.9985
 21
50.1006
  0
LINE
  8
0
 10
-35.9985
 20
50.1006
 11
-36.7223
 21
50.4004
  0
LINE
  8
0
 10
-36.7223
 20
50.4004
 11
-37.5
 21
50.5029
  0
LINE
  8
0
 10
-37.5
 20
50.5029
 11
-38.0287
 21
50.4333
  0
LINE
  8
0
 10
-38.0287
 20
50.4333
 11
-41.6885
 21
54.0932
  0
LINE
  8
0
 10
-41.6885
 20
54.0932
 11
-30.0032
 21
50.5597
  0
LINE
  8
0
 10
-30.0032
 20
50.5597
 11
-30.0032
 21
50.5579
  0
LINE
  8
0
 10
-30.0032
 20
50.5579
 11
-30
 21
50.5588
  0
LINE
  8
0
 10
-30
 20
50.5588
 11
-29.9968
 21
50.5579
  0
LINE
  8
0
 10
-29.9968
 20
50.5579
 11
-29.9968
 21
50.5597
  0
LINE
  8
0
 10
-29.9968
 20
50.5597
 11
-18.3115
 21
54.0932
  0
LINE
  8
0
 10
-18.3115
 20
54.0932
 11
-21.2389
 21
51.1658
  0
LINE
  8
0
 10
-21.2389
 20
51.1658
 11
-21.4897
 21
51.2697
  0
LINE
  8
0
 10
-21.4897
 20
51.2697
 11
-22.5
 21
51.4029
  0
LINE
  8
0
 10
-22.5
 20
51.4029
 11
-23.5107
 21
51.2697
  0
LINE
  8
0
 10
-23.5107
 20
51.2697
 11
-24.4514
 21
50.8801
  0
LINE
  8
0
 10
-24.4514
 20
50.8801
 11
-25.2603
 21
50.2599
  0
LINE
  8
0
 10
-25.2603
 20
50.2599
 11
-25.8806
 21
49.451
  0
LINE
  8
0
 10
-25.8806
 20
49.451
 11
-26.2701
 21
48.5103
  0
LINE
  8
0
 10
-26.2701
 20
48.5103
 11
-26.4034
 21
47.5
  0
LINE
  8
0
 10
-26.4034
 20
47.5
 11
-26.2701
 21
46.4893
  0
LINE
  8
0
 10
-26.2701
 20
46.4893
 11
-26.1662
 21
46.2379
  0
LINE
  8
0
 10
-26.1662
 20
46.2379
 11
-30
 21
42.4042
  0
LINE
  8
0
 10
-30
 20
42.4042
 11
-34.5662
 21
46.9708
  0
LINE
  8
0
 10
-4.56619
 20
46.9708
 11
-4.49661
 21
47.5
  0
LINE
  8
0
 10
-4.49661
 20
47.5
 11
-4.59915
 21
48.2773
  0
LINE
  8
0
 10
-4.59915
 20
48.2773
 11
-4.89899
 21
49.001
  0
LINE
  8
0
 10
-4.89899
 20
49.001
 11
-5.37598
 21
49.6236
  0
LINE
  8
0
 10
-5.37598
 20
49.6236
 11
-5.99854
 21
50.1006
  0
LINE
  8
0
 10
-5.99854
 20
50.1006
 11
-6.72226
 21
50.4004
  0
LINE
  8
0
 10
-6.72226
 20
50.4004
 11
-7.5
 21
50.5029
  0
LINE
  8
0
 10
-7.5
 20
50.5029
 11
-8.02872
 21
50.4333
  0
LINE
  8
0
 10
-8.02872
 20
50.4333
 11
-11.6885
 21
54.0932
  0
LINE
  8
0
 10
-11.6885
 20
54.0932
 11
-0.00320435
 21
50.5597
  0
LINE
  8
0
 10
-0.00320435
 20
50.5597
 11
-0.00320435
 21
50.5579
  0
LINE
  8
0
 10
-0.00320435
 20
50.5579
 11
0
 21
50.5588
  0
LINE
  8
0
 10
0
 20
50.5588
 11
0.00320435
 21
50.5579
  0
LINE
  8
0
 10
0.00320435
 20
50.5579
 11
0.00320435
 21
50.5597
  0
LINE
  8
0
 10
0.00320435
 20
50.5597
 11
11.6885
 21
54.0932
  0
LINE
  8
0
 10
11.6885
 20
54.0932
 11
8.76114
 21
51.1658
  0
LINE
  8
0
 10
8.76114
 20
51.1658
 11
8.51028
 21
51.2697
  0
LINE
  8
0
 10
8.51028
 20
51.2697
 11
7.5
 21
51.4029
  0
LINE
  8
0
 10
7.5
 20
51.4029
 11
6.48926
 21
51.2697
  0
LINE
  8
0
 10
6.48926
 20
51.2697
 11
5.54855
 21
50.8801
  0
LINE
  8
0
 10
5.54855
 20
50.8801
 11
4.73969
 21
50.2599
  0
LINE
  8
0
 10
4.73969
 20
50.2599
 11
4.11942
 21
49.451
  0
LINE
  8
0
 10
4.11942
 20
49.451
 11
3.72986
 21
48.5103
  0
LINE
  8
0
 10
3.72986
 20
48.5103
 11
3.59665
 21
47.5
  0
LINE
  8
0
 10
3.59665
 20
47.5
 11
3.72986
 21
46.4893
  0
LINE
  8
0
 10
3.72986
 20
46.4893
 11
3.83377
 21
46.2379
  0
LINE
  8
0
 10
3.83377
 20
46.2379
 11
0
 21
42.4042
  0
LINE
  8
0
 10
0
 20
42.4042
 11
-4.56619
 21
46.9708
  0
LINE
  8
0
 10
25.4338
 20
46.9708
 11
25.5034
 21
47.5
  0
LINE
  8
0
 10
25.5034
 20
47.5
 11
25.4008
 21
48.2773
  0
LINE
  8
0
 10
25.4008
 20
48.2773
 11
25.101
 21
49.001
  0
LINE
  8
0
 10
25.101
 20
49.001
 11
24.624
 21
49.6236
  0
LINE
  8
0
 10
24.624
 20
49.6236
 11
24.0015
 21
50.1006
  0
LINE
  8
0
 10
24.0015
 20
50.1006
 11
23.2777
 21
50.4004
  0
LINE
  8
0
 10
23.2777
 20
50.4004
 11
22.5
 21
50.5029
  0
LINE
  8
0
 10
22.5
 20
50.5029
 11
21.9713
 21
50.4333
  0
LINE
  8
0
 10
21.9713
 20
50.4333
 11
18.3115
 21
54.0932
  0
LINE
  8
0
 10
18.3115
 20
54.0932
 11
29.9968
 21
50.5597
  0
LINE
  8
0
 10
29.9968
 20
50.5597
 11
29.9968
 21
50.5579
  0
LINE
  8
0
 10
29.9968
 20
50.5579
 11
30
 21
50.5588
  0
LINE
  8
0
 10
30
 20
50.5588
 11
30.0032
 21
50.5579
  0
LINE
  8
0
 10
30.0032
 20
50.5579
 11
30.0032
 21
50.5597
  0
LINE
  8
0
 10
30.0032
 20
50.5597
 11
41.6885
 21
54.0932
  0
LINE
  8
0
 10
41.6885
 20
54.0932
 11
38.7611
 21
51.1658
  0
LINE
  8
0
 10
38.7611
 20
51.1658
 11
38.5103
 21
51.2697
  0
LINE
  8
0
 10
38.5103
 20
51.2697
 11
37.5
 21
51.4029
  0
LINE
  8
0
 10
37.5
 20
51.4029
 11
36.4893
 21
51.2697
  0
LINE
  8
0
 10
36.4893
 20
51.2697
 11
35.5486
 21
50.8801
  0
LINE
  8
0
 10
35.5486
 20
50.8801
 11
34.7397
 21
50.2599
  0
LINE
  8
0
 10
34.7397
 20
50.2599
 11
34.1194
 21
49.451
  0
LINE
  8
0
 10
34.1194
 20
49.451
 11
33.7299
 21
48.5103
  0
LINE
  8
0
 10
33.7299
 20
48.5103
 11
33.5966
 21
47.5
  0
LINE
  8
0
 10
33.5966
 20
47.5
 11
33.7299
 21
46.4893
  0
LINE
  8
0
 10
33.7299
 20
46.4893
 11
33.8338
 21
46.2379
  0
LINE
  8
0
 10
33.8338
 20
46.2379
 11
30
 21
42.4042
  0
LINE
  8
0
 10
30
 20
42.4042
 11
25.4338
 21
46.9708
  0
LINE
  8
0
 10
-40.5597
 20
39.9968
 11
-40.5579
 21
39.9968
  0
LINE
  8
0
 10
-40.5579
 20
39.9968
 11
-40.5588
 21
40
  0
LINE
  8
0
 10
-40.5588
 20
40
 11
-40.5579
 21
40.0032
  0
LINE
  8
0
 10
-40.5579
 20
40.0032
 11
-40.5597
 21
40.0032
  0
LINE
  8
0
 10
-40.5597
 20
40.0032
 11
-44.0932
 21
51.6885
  0
LINE
  8
0
 10
-44.0932
 20
51.6885
 11
-41.1658
 21
48.7611
  0
LINE
  8
0
 10
-41.1658
 20
48.7611
 11
-41.2697
 21
48.5103
  0
LINE
  8
0
 10
-41.2697
 20
48.5103
 11
-41.4029
 21
47.5
  0
LINE
  8
0
 10
-41.4029
 20
47.5
 11
-41.2697
 21
46.4893
  0
LINE
  8
0
 10
-41.2697
 20
46.4893
 11
-40.8801
 21
45.5486
  0
LINE
  8
0
 10
-40.8801
 20
45.5486
 11
-40.2599
 21
44.7397
  0
LINE
  8
0
 10
-40.2599
 20
44.7397
 11
-39.451
 21
44.1194
  0
LINE
  8
0
 10
-39.451
 20
44.1194
 11
-38.5103
 21
43.7299
  0
LINE
  8
0
 10
-38.5103
 20
43.7299
 11
-37.5
 21
43.5966
  0
LINE
  8
0
 10
-37.5
 20
43.5966
 11
-36.4893
 21
43.7299
  0
LINE
  8
0
 10
-36.4893
 20
43.7299
 11
-36.2379
 21
43.8338
  0
LINE
  8
0
 10
-36.2379
 20
43.8338
 11
-32.4042
 21
40
  0
LINE
  8
0
 10
-32.4042
 20
40
 11
-36.9708
 21
35.4338
  0
LINE
  8
0
 10
-36.9708
 20
35.4338
 11
-37.5
 21
35.5034
  0
LINE
  8
0
 10
-37.5
 20
35.5034
 11
-38.2773
 21
35.4008
  0
LINE
  8
0
 10
-38.2773
 20
35.4008
 11
-39.001
 21
35.101
  0
LINE
  8
0
 10
-39.001
 20
35.101
 11
-39.6236
 21
34.624
  0
LINE
  8
0
 10
-39.6236
 20
34.624
 11
-40.1006
 21
34.0015
  0
LINE
  8
0
 10
-40.1006
 20
34.0015
 11
-40.4004
 21
33.2777
  0
LINE
  8
0
 10
-40.4004
 20
33.2777
 11
-40.5029
 21
32.5
  0
LINE
  8
0
 10
-40.5029
 20
32.5
 11
-40.4333
 21
31.9713
  0
LINE
  8
0
 10
-40.4333
 20
31.9713
 11
-44.0932
 21
28.3115
  0
LINE
  8
0
 10
-44.0932
 20
28.3115
 11
-40.5597
 21
39.9968
  0
LINE
  8
0
 10
-18.8342
 20
31.2389
 11
-18.7303
 21
31.4897
  0
LINE
  8
0
 10
-18.7303
 20
31.4897
 11
-18.5971
 21
32.5
  0
LINE
  8
0
 10
-18.5971
 20
32.5
 11
-18.7303
 21
33.5107
  0
LINE
  8
0
 10
-18.7303
 20
33.5107
 11
-19.1199
 21
34.4514
  0
LINE
  8
0
 10
-19.1199
 20
34.4514
 11
-19.7401
 21
35.2603
  0
LINE
  8
0
 10
-19.7401
 20
35.2603
 11
-20.549
 21
35.8806
  0
LINE
  8
0
 10
-20.549
 20
35.8806
 11
-21.4897
 21
36.2701
  0
LINE
  8
0
 10
-21.4897
 20
36.2701
 11
-22.5
 21
36.4034
  0
LINE
  8
0
 10
-22.5
 20
36.4034
 11
-23.5107
 21
36.2701
  0
LINE
  8
0
 10
-23.5107
 20
36.2701
 11
-23.7621
 21
36.1662
  0
LINE
  8
0
 10
-23.7621
 20
36.1662
 11
-27.5958
 21
40
  0
LINE
  8
0
 10
-27.5958
 20
40
 11
-23.0292
 21
44.5662
  0
LINE
  8
0
 10
-23.0292
 20
44.5662
 11
-22.5
 21
44.4966
  0
LINE
  8
0
 10
-22.5
 20
44.4966
 11
-21.7227
 21
44.5992
  0
LINE
  8
0
 10
-21.7227
 20
44.5992
 11
-20.999
 21
44.899
  0
LINE
  8
0
 10
-20.999
 20
44.899
 11
-20.3764
 21
45.376
  0
LINE
  8
0
 10
-20.3764
 20
45.376
 11
-19.8994
 21
45.9985
  0
LINE
  8
0
 10
-19.8994
 20
45.9985
 11
-19.5996
 21
46.7223
  0
LINE
  8
0
 10
-19.5996
 20
46.7223
 11
-19.4971
 21
47.5
  0
LINE
  8
0
 10
-19.4971
 20
47.5
 11
-19.5667
 21
48.0287
  0
LINE
  8
0
 10
-19.5667
 20
48.0287
 11
-15.9068
 21
51.6885
  0
LINE
  8
0
 10
-15.9068
 20
51.6885
 11
-19.4403
 21
40.0032
  0
LINE
  8
0
 10
-19.4403
 20
40.0032
 11
-19.4421
 21
40.0032
  0
LINE
  8
0
 10
-19.4421
 20
40.0032
 11
-19.4412
 21
40
  0
LINE
  8
0
 10
-19.4412
 20
40
 11
-19.4421
 21
39.9968
  0
LINE
  8
0
 10
-19.4421
 20
39.9968
 11
-19.4403
 21
39.9968
  0
LINE
  8
0
 10
-19.4403
 20
39.9968
 11
-15.9068
 21
28.3115
  0
LINE
  8
0
 10
-15.9068
 20
28.3115
 11
-18.8342
 21
31.2389
  0
LINE
  8
0
 10
19.4403
 20
39.9968
 11
19.4421
 21
39.9968
  0
LINE
  8
0
 10
19.4421
 20
39.9968
 11
19.4412
 21
40
  0
LINE
  8
0
 10
19.4412
 20
40
 11
19.4421
 21
40.0032
  0
LINE
  8
0
 10
19.4421
 20
40.0032
 11
19.4403
 21
40.0032
  0
LINE
  8
0
 10
19.4403
 20
40.0032
 11
15.9068
 21
51.6885
  0
LINE
  8
0
 10
15.9068
 20
51.6885
 11
18.8342
 21
48.7611
  0
LINE
  8
0
 10
18.8342
 20
48.7611
 11
18.7303
 21
48.5103
  0
LINE
  8
0
 10
18.7303
 20
48.5103
 11
18.5971
 21
47.5
  0
LINE
  8
0
 10
18.5971
 20
47.5
 11
18.7303
 21
46.4893
  0
LINE
  8
0
 10
18.7303
 20
46.4893
 11
19.1199
 21
45.5486
  0
LINE
  8
0
 10
19.1199
 20
45.5486
 11
19.7401
 21
44.7397
  0
LINE
  8
0
 10
19.7401
 20
44.7397
 11
20.549
 21
44.1194
  0
LINE
  8
0
 10
20.549
 20
44.1194
 11
21.4897
 21
43.7299
  0
LINE
  8
0
 10
21.4897
 20
43.7299
 11
22.5
 21
43.5966
  0
LINE
  8
0
 10
22.5
 20
43.5966
 11
23.5107
 21
43.7299
  0
LINE
  8
0
 10
23.5107
 20
43.7299
 11
23.7621
 21
43.8338
  0
LINE
  8
0
 10
23.7621
 20
43.8338
 11
27.5958
 21
40
  0
LINE
  8
0
 10
27.5958
 20
40
 11
23.0292
 21
35.4338
  0
LINE
  8
0
 10
23.0292
 20
35.4338
 11
22.5
 21
35.5034
  0
LINE
  8
0
 10
22.5
 20
35.5034
 11
21.7227
 21
35.4008
  0
LINE
  8
0
 10
21.7227
 20
35.4008
 11
20.999
 21
35.101
  0
LINE
  8
0
 10
20.999
 20
35.101
 11
20.3764
 21
34.624
  0
LINE
  8
0
 10
20.3764
 20
34.624
 11
19.8994
 21
34.0015
  0
LINE
  8
0
 10
19.8994
 20
34.0015
 11
19.5996
 21
33.2777
  0
LINE
  8
0
 10
19.5996
 20
33.2777
 11
19.4971
 21
32.5
  0
LINE
  8
0
 10
19.4971
 20
32.5
 11
19.5667
 21
31.9713
  0
LINE
  8
0
 10
19.5667
 20
31.9713
 11
15.9068
 21
28.3115
  0
LINE
  8
0
 10
15.9068
 20
28.3115
 11
19.4403
 21
39.9968
  0
LINE
  8
0
 10
41.1658
 20
31.2389
 11
41.2697
 21
31.4897
  0
LINE
  8
0
 10
41.2697
 20
31.4897
 11
41.4029
 21
32.5
  0
LINE
  8
0
 10
41.4029
 20
32.5
 11
41.2697
 21
33.5107
  0
LINE
  8
0
 10
41.2697
 20
33.5107
 11
40.8801
 21
34.4514
  0
LINE
  8
0
 10
40.8801
 20
34.4514
 11
40.2599
 21
35.2603
  0
LINE
  8
0
 10
40.2599
 20
35.2603
 11
39.451
 21
35.8806
  0
LINE
  8
0
 10
39.451
 20
35.8806
 11
38.5103
 21
36.2701
  0
LINE
  8
0
 10
38.5103
 20
36.2701
 11
37.5
 21
36.4034
  0
LINE
  8
0
 10
37.5
 20
36.4034
 11
36.4893
 21
36.2701
  0
LINE
  8
0
 10
36.4893
 20
36.2701
 11
36.2379
 21
36.1662
  0
LINE
  8
0
 10
36.2379
 20
36.1662
 11
32.4042
 21
40
  0
LINE
  8
0
 10
32.4042
 20
40
 11
36.9708
 21
44.5662
  0
LINE
  8
0
 10
36.9708
 20
44.5662
 11
37.5
 21
44.4966
  0
LINE
  8
0
 10
37.5
 20
44.4966
 11
38.2773
 21
44.5992
  0
LINE
  8
0
 10
38.2773
 20
44.5992
 11
39.001
 21
44.899
  0
LINE
  8
0
 10
39.001
 20
44.899
 11
39.6236
 21
45.376
  0
LINE
  8
0
 10
39.6236
 20
45.376
 11
40.1006
 21
45.9985
  0
LINE
  8
0
 10
40.1006
 20
45.9985
 11
40.4004
 21
46.7223
  0
LINE
  8
0
 10
40.4004
 20
46.7223
 11
40.5029
 21
47.5
  0
LINE
  8
0
 10
40.5029
 20
47.5
 11
40.4333
 21
48.0287
  0
LINE
  8
0
 10
40.4333
 20
48.0287
 11
44.0932
 21
51.6885
  0
LINE
  8
0
 10
44.0932
 20
51.6885
 11
40.5597
 21
40.0032
  0
LINE
  8
0
 10
40.5597
 20
40.0032
 11
40.5579
 21
40.0032
  0
LINE
  8
0
 10
40.5579
 20
40.0032
 11
40.5588
 21
40
  0
LINE
  8
0
 10
40.5588
 20
40
 11
40.5579
 21
39.9968
  0
LINE
  8
0
 10
40.5579
 20
39.9968
 11
40.5597
 21
39.9968
  0
LINE
  8
0
 10
40.5597
 20
39.9968
 11
44.0932
 21
28.3115
  0
LINE
  8
0
 10
44.0932
 20
28.3115
 11
41.1658
 21
31.2389
  0
LINE
  8
0
 10
11.1658
 20
31.2389
 11
11.2697
 21
31.4897
  0
LINE
  8
0
 10
11.2697
 20
31.4897
 11
11.4029
 21
32.5
  0
LINE
  8
0
 10
11.4029
 20
32.5
 11
11.2697
 21
33.5107
  0
LINE
  8
0
 10
11.2697
 20
33.5107
 11
10.8801
 21
34.4514
  0
LINE
  8
0
 10
10.8801
 20
34.4514
 11
10.2599
 21
35.2603
  0
LINE
  8
0
 10
10.2599
 20
35.2603
 11
9.45099
 21
35.8806
  0
LINE
  8
0
 10
9.45099
 20
35.8806
 11
8.51028
 21
36.2701
  0
LINE
  8
0
 10
8.51028
 20
36.2701
 11
7.5
 21
36.4034
  0
LINE
  8
0
 10
7.5
 20
36.4034
 11
6.48926
 21
36.2701
  0
LINE
  8
0
 10
6.48926
 20
36.2701
 11
6.23795
 21
36.1662
  0
LINE
  8
0
 10
6.23795
 20
36.1662
 11
2.40417
 21
40
  0
LINE
  8
0
 10
2.40417
 20
40
 11
6.97083
 21
44.5662
  0
LINE
  8
0
 10
6.97083
 20
44.5662
 11
7.5
 21
44.4966
  0
LINE
  8
0
 10
7.5
 20
44.4966
 11
8.27728
 21
44.5992
  0
LINE
  8
0
 10
8.27728
 20
44.5992
 11
9.00101
 21
44.899
  0
LINE
  8
0
 10
9.00101
 20
44.899
 11
9.62357
 21
45.376
  0
LINE
  8
0
 10
9.62357
 20
45.376
 11
10.1006
 21
45.9985
  0
LINE
  8
0
 10
10.1006
 20
45.9985
 11
10.4004
 21
46.7223
  0
LINE
  8
0
 10
10.4004
 20
46.7223
 11
10.5029
 21
47.5
  0
LINE
  8
0
 10
10.5029
 20
47.5
 11
10.4333
 21
48.0287
  0
LINE
  8
0
 10
10.4333
 20
48.0287
 11
14.0932
 21
51.6885
  0
LINE
  8
0
 10
14.0932
 20
51.6885
 11
10.5597
 21
40.0032
  0
LINE
  8
0
 10
10.5597
 20
40.0032
 11
10.5579
 21
40.0032
  0
LINE
  8
0
 10
10.5579
 20
40.0032
 11
10.5588
 21
40
  0
LINE
  8
0
 10
10.5588
 20
40
 11
10.5579
 21
39.9968
  0
LINE
  8
0
 10
10.5579
 20
39.9968
 11
10.5597
 21
39.9968
  0
LINE
  8
0
 10
10.5597
 20
39.9968
 11
14.0932
 21
28.3115
  0
LINE
  8
0
 10
14.0932
 20
28.3115
 11
11.1658
 21
31.2389
  0
LINE
  8
0
 10
-10.5597
 20
39.9968
 11
-10.5579
 21
39.9968
  0
LINE
  8
0
 10
-10.5579
 20
39.9968
 11
-10.5588
 21
40
  0
LINE
  8
0
 10
-10.5588
 20
40
 11
-10.5579
 21
40.0032
  0
LINE
  8
0
 10
-10.5579
 20
40.0032
 11
-10.5597
 21
40.0032
  0
LINE
  8
0
 10
-10.5597
 20
40.0032
 11
-14.0932
 21
51.6885
  0
LINE
  8
0
 10
-14.0932
 20
51.6885
 11
-11.1658
 21
48.7611
  0
LINE
  8
0
 10
-11.1658
 20
48.7611
 11
-11.2697
 21
48.5103
  0
LINE
  8
0
 10
-11.2697
 20
48.5103
 11
-11.4029
 21
47.5
  0
LINE
  8
0
 10
-11.4029
 20
47.5
 11
-11.2697
 21
46.4893
  0
LINE
  8
0
 10
-11.2697
 20
46.4893
 11
-10.8801
 21
45.5486
  0
LINE
  8
0
 10
-10.8801
 20
45.5486
 11
-10.2599
 21
44.7397
  0
LINE
  8
0
 10
-10.2599
 20
44.7397
 11
-9.45099
 21
44.1194
  0
LINE
  8
0
 10
-9.45099
 20
44.1194
 11
-8.51028
 21
43.7299
  0
LINE
  8
0
 10
-8.51028
 20
43.7299
 11
-7.5
 21
43.5966
  0
LINE
  8
0
 10
-7.5
 20
43.5966
 11
-6.48926
 21
43.7299
  0
LINE
  8
0
 10
-6.48926
 20
43.7299
 11
-6.23795
 21
43.8338
  0
LINE
  8
0
 10
-6.23795
 20
43.8338
 11
-2.40417
 21
40
  0
LINE
  8
0
 10
-2.40417
 20
40
 11
-6.97083
 21
35.4338
  0
LINE
  8
0
 10
-6.97083
 20
35.4338
 11
-7.5
 21
35.5034
  0
LINE
  8
0
 10
-7.5
 20
35.5034
 11
-8.27728
 21
35.4008
  0
LINE
  8
0
 10
-8.27728
 20
35.4008
 11
-9.00101
 21
35.101
  0
LINE
  8
0
 10
-9.00101
 20
35.101
 11
-9.62357
 21
34.624
  0
LINE
  8
0
 10
-9.62357
 20
34.624
 11
-10.1006
 21
34.0015
  0
LINE
  8
0
 10
-10.1006
 20
34.0015
 11
-10.4004
 21
33.2777
  0
LINE
  8
0
 10
-10.4004
 20
33.2777
 11
-10.5029
 21
32.5
  0
LINE
  8
0
 10
-10.5029
 20
32.5
 11
-10.4333
 21
31.9713
  0
LINE
  8
0
 10
-10.4333
 20
31.9713
 11
-14.0932
 21
28.3115
  0
LINE
  8
0
 10
-14.0932
 20
28.3115
 11
-10.5597
 21
39.9968
  0
LINE
  8
0
 10
35.164
 20
46.151
 11
34.8944
 21
46.8024
  0
LINE
  8
0
 10
34.8944
 20
46.8024
 11
34.8024
 21
47.5005
  0
LINE
  8
0
 10
34.8024
 20
47.5005
 11
34.8944
 21
48.1972
  0
LINE
  8
0
 10
34.8944
 20
48.1972
 11
35.164
 21
48.8486
  0
LINE
  8
0
 10
35.164
 20
48.8486
 11
35.5925
 21
49.4066
  0
LINE
  8
0
 10
35.5925
 20
49.4066
 11
36.151
 21
49.8355
  0
LINE
  8
0
 10
36.151
 20
49.8355
 11
36.8024
 21
50.1051
  0
LINE
  8
0
 10
36.8024
 20
50.1051
 11
37.5
 21
50.1971
  0
LINE
  8
0
 10
37.5
 20
50.1971
 11
38.1972
 21
50.1051
  0
LINE
  8
0
 10
38.1972
 20
50.1051
 11
38.8486
 21
49.8355
  0
LINE
  8
0
 10
38.8486
 20
49.8355
 11
39.0651
 21
49.6693
  0
LINE
  8
0
 10
39.0651
 20
49.6693
 11
35.3302
 21
45.9344
  0
LINE
  8
0
 10
35.3302
 20
45.9344
 11
35.164
 21
46.151
  0
LINE
  8
0
 10
5.16403
 20
46.151
 11
4.89441
 21
46.8024
  0
LINE
  8
0
 10
4.89441
 20
46.8024
 11
4.8024
 21
47.5005
  0
LINE
  8
0
 10
4.8024
 20
47.5005
 11
4.89441
 21
48.1972
  0
LINE
  8
0
 10
4.89441
 20
48.1972
 11
5.16403
 21
48.8486
  0
LINE
  8
0
 10
5.16403
 20
48.8486
 11
5.5925
 21
49.4066
  0
LINE
  8
0
 10
5.5925
 20
49.4066
 11
6.15097
 21
49.8355
  0
LINE
  8
0
 10
6.15097
 20
49.8355
 11
6.80237
 21
50.1051
  0
LINE
  8
0
 10
6.80237
 20
50.1051
 11
7.5
 21
50.1971
  0
LINE
  8
0
 10
7.5
 20
50.1971
 11
8.19717
 21
50.1051
  0
LINE
  8
0
 10
8.19717
 20
50.1051
 11
8.84857
 21
49.8355
  0
LINE
  8
0
 10
8.84857
 20
49.8355
 11
9.06509
 21
49.6693
  0
LINE
  8
0
 10
9.06509
 20
49.6693
 11
5.3302
 21
45.9344
  0
LINE
  8
0
 10
5.3302
 20
45.9344
 11
5.16403
 21
46.151
  0
LINE
  8
0
 10
-24.836
 20
46.151
 11
-25.1056
 21
46.8024
  0
LINE
  8
0
 10
-25.1056
 20
46.8024
 11
-25.1976
 21
47.5005
  0
LINE
  8
0
 10
-25.1976
 20
47.5005
 11
-25.1056
 21
48.1972
  0
LINE
  8
0
 10
-25.1056
 20
48.1972
 11
-24.836
 21
48.8486
  0
LINE
  8
0
 10
-24.836
 20
48.8486
 11
-24.4075
 21
49.4066
  0
LINE
  8
0
 10
-24.4075
 20
49.4066
 11
-23.849
 21
49.8355
  0
LINE
  8
0
 10
-23.849
 20
49.8355
 11
-23.1976
 21
50.1051
  0
LINE
  8
0
 10
-23.1976
 20
50.1051
 11
-22.5
 21
50.1971
  0
LINE
  8
0
 10
-22.5
 20
50.1971
 11
-21.8028
 21
50.1051
  0
LINE
  8
0
 10
-21.8028
 20
50.1051
 11
-21.1514
 21
49.8355
  0
LINE
  8
0
 10
-21.1514
 20
49.8355
 11
-20.9349
 21
49.6693
  0
LINE
  8
0
 10
-20.9349
 20
49.6693
 11
-24.6698
 21
45.9344
  0
LINE
  8
0
 10
-24.6698
 20
45.9344
 11
-24.836
 21
46.151
  0
LINE
  8
0
 10
21.8028
 20
44.8944
 11
21.1514
 21
45.164
  0
LINE
  8
0
 10
21.1514
 20
45.164
 11
20.593
 21
45.593
  0
LINE
  8
0
 10
20.593
 20
45.593
 11
20.1645
 21
46.151
  0
LINE
  8
0
 10
20.1645
 20
46.151
 11
19.8949
 21
46.8024
  0
LINE
  8
0
 10
19.8949
 20
46.8024
 11
19.8029
 21
47.5005
  0
LINE
  8
0
 10
19.8029
 20
47.5005
 11
19.8949
 21
48.1972
  0
LINE
  8
0
 10
19.8949
 20
48.1972
 11
20.1645
 21
48.8486
  0
LINE
  8
0
 10
20.1645
 20
48.8486
 11
20.3307
 21
49.0651
  0
LINE
  8
0
 10
20.3307
 20
49.0651
 11
24.0656
 21
45.3302
  0
LINE
  8
0
 10
24.0656
 20
45.3302
 11
23.849
 21
45.164
  0
LINE
  8
0
 10
23.849
 20
45.164
 11
23.1976
 21
44.8944
  0
LINE
  8
0
 10
23.1976
 20
44.8944
 11
22.5
 21
44.8024
  0
LINE
  8
0
 10
22.5
 20
44.8024
 11
21.8028
 21
44.8944
  0
LINE
  8
0
 10
-38.1972
 20
44.8944
 11
-38.8486
 21
45.164
  0
LINE
  8
0
 10
-38.8486
 20
45.164
 11
-39.407
 21
45.593
  0
LINE
  8
0
 10
-39.407
 20
45.593
 11
-39.8355
 21
46.151
  0
LINE
  8
0
 10
-39.8355
 20
46.151
 11
-40.1051
 21
46.8024
  0
LINE
  8
0
 10
-40.1051
 20
46.8024
 11
-40.1971
 21
47.5005
  0
LINE
  8
0
 10
-40.1971
 20
47.5005
 11
-40.1051
 21
48.1972
  0
LINE
  8
0
 10
-40.1051
 20
48.1972
 11
-39.8355
 21
48.8486
  0
LINE
  8
0
 10
-39.8355
 20
48.8486
 11
-39.6693
 21
49.0651
  0
LINE
  8
0
 10
-39.6693
 20
49.0651
 11
-35.9344
 21
45.3302
  0
LINE
  8
0
 10
-35.9344
 20
45.3302
 11
-36.151
 21
45.164
  0
LINE
  8
0
 10
-36.151
 20
45.164
 11
-36.8024
 21
44.8944
  0
LINE
  8
0
 10
-36.8024
 20
44.8944
 11
-37.5
 21
44.8024
  0
LINE
  8
0
 10
-37.5
 20
44.8024
 11
-38.1972
 21
44.8944
  0
LINE
  8
0
 10
-8.19717
 20
44.8944
 11
-8.84857
 21
45.164
  0
LINE
  8
0
 10
-8.84857
 20
45.164
 11
-9.40704
 21
45.593
  0
LINE
  8
0
 10
-9.40704
 20
45.593
 11
-9.83551
 21
46.151
  0
LINE
  8
0
 10
-9.83551
 20
46.151
 11
-10.1051
 21
46.8024
  0
LINE
  8
0
 10
-10.1051
 20
46.8024
 11
-10.1971
 21
47.5005
  0
LINE
  8
0
 10
-10.1971
 20
47.5005
 11
-10.1051
 21
48.1972
  0
LINE
  8
0
 10
-10.1051
 20
48.1972
 11
-9.83551
 21
48.8486
  0
LINE
  8
0
 10
-9.83551
 20
48.8486
 11
-9.66934
 21
49.0651
  0
LINE
  8
0
 10
-9.66934
 20
49.0651
 11
-5.93445
 21
45.3302
  0
LINE
  8
0
 10
-5.93445
 20
45.3302
 11
-6.15097
 21
45.164
  0
LINE
  8
0
 10
-6.15097
 20
45.164
 11
-6.80237
 21
44.8944
  0
LINE
  8
0
 10
-6.80237
 20
44.8944
 11
-7.5
 21
44.8024
  0
LINE
  8
0
 10
-7.5
 20
44.8024
 11
-8.19717
 21
44.8944
  0
LINE
  8
0
 10
-48.8342
 20
31.2389
 11
-48.7303
 21
31.4897
  0
LINE
  8
0
 10
-48.7303
 20
31.4897
 11
-48.5971
 21
32.5
  0
LINE
  8
0
 10
-48.5971
 20
32.5
 11
-48.7303
 21
33.5107
  0
LINE
  8
0
 10
-48.7303
 20
33.5107
 11
-49.1199
 21
34.4514
  0
LINE
  8
0
 10
-49.1199
 20
34.4514
 11
-49.7401
 21
35.2603
  0
LINE
  8
0
 10
-49.7401
 20
35.2603
 11
-50.549
 21
35.8806
  0
LINE
  8
0
 10
-50.549
 20
35.8806
 11
-50.7034
 21
35.9445
  0
LINE
  8
0
 10
-50.7034
 20
35.9445
 11
-49.4145
 21
39.9113
  0
LINE
  8
0
 10
-49.4145
 20
39.9113
 11
-45.9068
 21
28.3115
  0
LINE
  8
0
 10
-45.9068
 20
28.3115
 11
-48.8342
 21
31.2389
  0
LINE
  8
0
 10
49.4145
 20
39.9113
 11
50.9817
 21
35.0878
  0
LINE
  8
0
 10
50.9817
 20
35.0878
 11
50.3764
 21
34.624
  0
LINE
  8
0
 10
50.3764
 20
34.624
 11
49.8994
 21
34.0015
  0
LINE
  8
0
 10
49.8994
 20
34.0015
 11
49.5996
 21
33.2777
  0
LINE
  8
0
 10
49.5996
 20
33.2777
 11
49.4971
 21
32.5
  0
LINE
  8
0
 10
49.4971
 20
32.5
 11
49.5667
 21
31.9713
  0
LINE
  8
0
 10
49.5667
 20
31.9713
 11
45.9068
 21
28.3115
  0
LINE
  8
0
 10
45.9068
 20
28.3115
 11
49.4145
 21
39.9113
  0
LINE
  8
0
 10
30.0032
 20
29.4403
 11
30.0032
 21
29.4421
  0
LINE
  8
0
 10
30.0032
 20
29.4421
 11
30
 21
29.4412
  0
LINE
  8
0
 10
30
 20
29.4412
 11
29.9968
 21
29.4421
  0
LINE
  8
0
 10
29.9968
 20
29.4421
 11
29.9968
 21
29.4403
  0
LINE
  8
0
 10
29.9968
 20
29.4403
 11
18.3115
 21
25.9068
  0
LINE
  8
0
 10
18.3115
 20
25.9068
 11
21.2389
 21
28.8342
  0
LINE
  8
0
 10
21.2389
 20
28.8342
 11
21.4897
 21
28.7303
  0
LINE
  8
0
 10
21.4897
 20
28.7303
 11
22.5
 21
28.5971
  0
LINE
  8
0
 10
22.5
 20
28.5971
 11
23.5107
 21
28.7303
  0
LINE
  8
0
 10
23.5107
 20
28.7303
 11
24.4514
 21
29.1199
  0
LINE
  8
0
 10
24.4514
 20
29.1199
 11
25.2603
 21
29.7401
  0
LINE
  8
0
 10
25.2603
 20
29.7401
 11
25.8806
 21
30.549
  0
LINE
  8
0
 10
25.8806
 20
30.549
 11
26.2701
 21
31.4897
  0
LINE
  8
0
 10
26.2701
 20
31.4897
 11
26.4034
 21
32.5
  0
LINE
  8
0
 10
26.4034
 20
32.5
 11
26.2701
 21
33.5107
  0
LINE
  8
0
 10
26.2701
 20
33.5107
 11
26.1662
 21
33.7621
  0
LINE
  8
0
 10
26.1662
 20
33.7621
 11
30
 21
37.5958
  0
LINE
  8
0
 10
30
 20
37.5958
 11
34.5662
 21
33.0292
  0
LINE
  8
0
 10
34.5662
 20
33.0292
 11
34.4966
 21
32.5
  0
LINE
  8
0
 10
34.4966
 20
32.5
 11
34.5992
 21
31.7227
  0
LINE
  8
0
 10
34.5992
 20
31.7227
 11
34.899
 21
30.999
  0
LINE
  8
0
 10
34.899
 20
30.999
 11
35.376
 21
30.3764
  0
LINE
  8
0
 10
35.376
 20
30.3764
 11
35.9985
 21
29.8994
  0
LINE
  8
0
 10
35.9985
 20
29.8994
 11
36.7223
 21
29.5996
  0
LINE
  8
0
 10
36.7223
 20
29.5996
 11
37.5
 21
29.4971
  0
LINE
  8
0
 10
37.5
 20
29.4971
 11
38.0287
 21
29.5667
  0
LINE
  8
0
 10
38.0287
 20
29.5667
 11
41.6885
 21
25.9068
  0
LINE
  8
0
 10
41.6885
 20
25.9068
 11
30.0032
 21
29.4403
  0
LINE
  8
0
 10
-29.9968
 20
29.4403
 11
-29.9968
 21
29.4421
  0
LINE
  8
0
 10
-29.9968
 20
29.4421
 11
-30
 21
29.4412
  0
LINE
  8
0
 10
-30
 20
29.4412
 11
-30.0032
 21
29.4421
  0
LINE
  8
0
 10
-30.0032
 20
29.4421
 11
-30.0032
 21
29.4403
  0
LINE
  8
0
 10
-30.0032
 20
29.4403
 11
-41.6885
 21
25.9068
  0
LINE
  8
0
 10
-41.6885
 20
25.9068
 11
-38.7611
 21
28.8342
  0
LINE
  8
0
 10
-38.7611
 20
28.8342
 11
-38.5103
 21
28.7303
  0
LINE
  8
0
 10
-38.5103
 20
28.7303
 11
-37.5
 21
28.5971
  0
LINE
  8
0
 10
-37.5
 20
28.5971
 11
-36.4893
 21
28.7303
  0
LINE
  8
0
 10
-36.4893
 20
28.7303
 11
-35.5486
 21
29.1199
  0
LINE
  8
0
 10
-35.5486
 20
29.1199
 11
-34.7397
 21
29.7401
  0
LINE
  8
0
 10
-34.7397
 20
29.7401
 11
-34.1194
 21
30.549
  0
LINE
  8
0
 10
-34.1194
 20
30.549
 11
-33.7299
 21
31.4897
  0
LINE
  8
0
 10
-33.7299
 20
31.4897
 11
-33.5966
 21
32.5
  0
LINE
  8
0
 10
-33.5966
 20
32.5
 11
-33.7299
 21
33.5107
  0
LINE
  8
0
 10
-33.7299
 20
33.5107
 11
-33.8338
 21
33.7621
  0
LINE
  8
0
 10
-33.8338
 20
33.7621
 11
-30
 21
37.5958
  0
LINE
  8
0
 10
-30
 20
37.5958
 11
-25.4338
 21
33.0292
  0
LINE
  8
0
 10
-25.4338
 20
33.0292
 11
-25.5034
 21
32.5
  0
LINE
  8
0
 10
-25.5034
 20
32.5
 11
-25.4008
 21
31.7227
  0
LINE
  8
0
 10
-25.4008
 20
31.7227
 11
-25.101
 21
30.999
  0
LINE
  8
0
 10
-25.101
 20
30.999
 11
-24.624
 21
30.3764
  0
LINE
  8
0
 10
-24.624
 20
30.3764
 11
-24.0015
 21
29.8994
  0
LINE
  8
0
 10
-24.0015
 20
29.8994
 11
-23.2777
 21
29.5996
  0
LINE
  8
0
 10
-23.2777
 20
29.5996
 11
-22.5
 21
29.4971
  0
LINE
  8
0
 10
-22.5
 20
29.4971
 11
-21.9713
 21
29.5667
  0
LINE
  8
0
 10
-21.9713
 20
29.5667
 11
-18.3115
 21
25.9068
  0
LINE
  8
0
 10
-18.3115
 20
25.9068
 11
-29.9968
 21
29.4403
  0
LINE
  8
0
 10
0.00320435
 20
29.4403
 11
0.00320435
 21
29.4421
  0
LINE
  8
0
 10
0.00320435
 20
29.4421
 11
0
 21
29.4412
  0
LINE
  8
0
 10
0
 20
29.4412
 11
-0.00320435
 21
29.4421
  0
LINE
  8
0
 10
-0.00320435
 20
29.4421
 11
-0.00320435
 21
29.4403
  0
LINE
  8
0
 10
-0.00320435
 20
29.4403
 11
-11.6885
 21
25.9068
  0
LINE
  8
0
 10
-11.6885
 20
25.9068
 11
-8.76114
 21
28.8342
  0
LINE
  8
0
 10
-8.76114
 20
28.8342
 11
-8.51028
 21
28.7303
  0
LINE
  8
0
 10
-8.51028
 20
28.7303
 11
-7.5
 21
28.5971
  0
LINE
  8
0
 10
-7.5
 20
28.5971
 11
-6.48926
 21
28.7303
  0
LINE
  8
0
 10
-6.48926
 20
28.7303
 11
-5.54855
 21
29.1199
  0
LINE
  8
0
 10
-5.54855
 20
29.1199
 11
-4.73969
 21
29.7401
  0
LINE
  8
0
 10
-4.73969
 20
29.7401
 11
-4.11942
 21
30.549
  0
LINE
  8
0
 10
-4.11942
 20
30.549
 11
-3.72986
 21
31.4897
  0
LINE
  8
0
 10
-3.72986
 20
31.4897
 11
-3.59665
 21
32.5
  0
LINE
  8
0
 10
-3.59665
 20
32.5
 11
-3.72986
 21
33.5107
  0
LINE
  8
0
 10
-3.72986
 20
33.5107
 11
-3.83377
 21
33.7621
  0
LINE
  8
0
 10
-3.83377
 20
33.7621
 11
0
 21
37.5958
  0
LINE
  8
0
 10
0
 20
37.5958
 11
4.56619
 21
33.0292
  0
LINE
  8
0
 10
4.56619
 20
33.0292
 11
4.49661
 21
32.5
  0
LINE
  8
0
 10
4.49661
 20
32.5
 11
4.59915
 21
31.7227
  0
LINE
  8
0
 10
4.59915
 20
31.7227
 11
4.89899
 21
30.999
  0
LINE
  8
0
 10
4.89899
 20
30.999
 11
5.37598
 21
30.3764
  0
LINE
  8
0
 10
5.37598
 20
30.3764
 11
5.99854
 21
29.8994
  0
LINE
  8
0
 10
5.99854
 20
29.8994
 11
6.72226
 21
29.5996
  0
LINE
  8
0
 10
6.72226
 20
29.5996
 11
7.5
 21
29.4971
  0
LINE
  8
0
 10
7.5
 20
29.4971
 11
8.02872
 21
29.5667
  0
LINE
  8
0
 10
8.02872
 20
29.5667
 11
11.6885
 21
25.9068
  0
LINE
  8
0
 10
11.6885
 20
25.9068
 11
0.00320435
 21
29.4403
  0
LINE
  8
0
 10
-24.0656
 20
34.6698
 11
-23.849
 21
34.836
  0
LINE
  8
0
 10
-23.849
 20
34.836
 11
-23.1976
 21
35.1056
  0
LINE
  8
0
 10
-23.1976
 20
35.1056
 11
-22.5
 21
35.1976
  0
LINE
  8
0
 10
-22.5
 20
35.1976
 11
-21.8028
 21
35.1056
  0
LINE
  8
0
 10
-21.8028
 20
35.1056
 11
-21.1514
 21
34.836
  0
LINE
  8
0
 10
-21.1514
 20
34.836
 11
-20.593
 21
34.407
  0
LINE
  8
0
 10
-20.593
 20
34.407
 11
-20.1645
 21
33.849
  0
LINE
  8
0
 10
-20.1645
 20
33.849
 11
-19.8949
 21
33.1976
  0
LINE
  8
0
 10
-19.8949
 20
33.1976
 11
-19.8029
 21
32.4995
  0
LINE
  8
0
 10
-19.8029
 20
32.4995
 11
-19.8949
 21
31.8028
  0
LINE
  8
0
 10
-19.8949
 20
31.8028
 11
-20.1645
 21
31.1514
  0
LINE
  8
0
 10
-20.1645
 20
31.1514
 11
-20.3307
 21
30.9349
  0
LINE
  8
0
 10
-20.3307
 20
30.9349
 11
-24.0656
 21
34.6698
  0
LINE
  8
0
 10
35.9344
 20
34.6698
 11
36.151
 21
34.836
  0
LINE
  8
0
 10
36.151
 20
34.836
 11
36.8024
 21
35.1056
  0
LINE
  8
0
 10
36.8024
 20
35.1056
 11
37.5
 21
35.1976
  0
LINE
  8
0
 10
37.5
 20
35.1976
 11
38.1972
 21
35.1056
  0
LINE
  8
0
 10
38.1972
 20
35.1056
 11
38.8486
 21
34.836
  0
LINE
  8
0
 10
38.8486
 20
34.836
 11
39.407
 21
34.407
  0
LINE
  8
0
 10
39.407
 20
34.407
 11
39.8355
 21
33.849
  0
LINE
  8
0
 10
39.8355
 20
33.849
 11
40.1051
 21
33.1976
  0
LINE
  8
0
 10
40.1051
 20
33.1976
 11
40.1971
 21
32.4995
  0
LINE
  8
0
 10
40.1971
 20
32.4995
 11
40.1051
 21
31.8028
  0
LINE
  8
0
 10
40.1051
 20
31.8028
 11
39.8355
 21
31.1514
  0
LINE
  8
0
 10
39.8355
 20
31.1514
 11
39.6693
 21
30.9349
  0
LINE
  8
0
 10
39.6693
 20
30.9349
 11
35.9344
 21
34.6698
  0
LINE
  8
0
 10
5.93445
 20
34.6698
 11
6.15097
 21
34.836
  0
LINE
  8
0
 10
6.15097
 20
34.836
 11
6.80237
 21
35.1056
  0
LINE
  8
0
 10
6.80237
 20
35.1056
 11
7.5
 21
35.1976
  0
LINE
  8
0
 10
7.5
 20
35.1976
 11
8.19717
 21
35.1056
  0
LINE
  8
0
 10
8.19717
 20
35.1056
 11
8.84857
 21
34.836
  0
LINE
  8
0
 10
8.84857
 20
34.836
 11
9.40704
 21
34.407
  0
LINE
  8
0
 10
9.40704
 20
34.407
 11
9.83551
 21
33.849
  0
LINE
  8
0
 10
9.83551
 20
33.849
 11
10.1051
 21
33.1976
  0
LINE
  8
0
 10
10.1051
 20
33.1976
 11
10.1971
 21
32.4995
  0
LINE
  8
0
 10
10.1971
 20
32.4995
 11
10.1051
 21
31.8028
  0
LINE
  8
0
 10
10.1051
 20
31.8028
 11
9.83551
 21
31.1514
  0
LINE
  8
0
 10
9.83551
 20
31.1514
 11
9.66934
 21
30.9349
  0
LINE
  8
0
 10
9.66934
 20
30.9349
 11
5.93445
 21
34.6698
  0
LINE
  8
0
 10
-51.8405
 20
32.4448
 11
-51.0811
 21
34.782
  0
LINE
  8
0
 10
-51.0811
 20
34.782
 11
-50.593
 21
34.407
  0
LINE
  8
0
 10
-50.593
 20
34.407
 11
-50.1645
 21
33.849
  0
LINE
  8
0
 10
-50.1645
 20
33.849
 11
-49.8949
 21
33.1976
  0
LINE
  8
0
 10
-49.8949
 20
33.1976
 11
-49.8029
 21
32.4995
  0
LINE
  8
0
 10
-49.8029
 20
32.4995
 11
-49.8949
 21
31.8028
  0
LINE
  8
0
 10
-49.8949
 20
31.8028
 11
-50.1645
 21
31.1514
  0
LINE
  8
0
 10
-50.1645
 20
31.1514
 11
-50.3307
 21
30.9349
  0
LINE
  8
0
 10
-50.3307
 20
30.9349
 11
-51.8405
 21
32.4448
  0
LINE
  8
0
 10
-8.19717
 20
29.8949
 11
-8.84857
 21
30.1645
  0
LINE
  8
0
 10
-8.84857
 20
30.1645
 11
-9.06509
 21
30.3307
  0
LINE
  8
0
 10
-9.06509
 20
30.3307
 11
-5.3302
 21
34.0656
  0
LINE
  8
0
 10
-5.3302
 20
34.0656
 11
-5.16403
 21
33.849
  0
LINE
  8
0
 10
-5.16403
 20
33.849
 11
-4.89441
 21
33.1976
  0
LINE
  8
0
 10
-4.89441
 20
33.1976
 11
-4.8024
 21
32.4995
  0
LINE
  8
0
 10
-4.8024
 20
32.4995
 11
-4.89441
 21
31.8028
  0
LINE
  8
0
 10
-4.89441
 20
31.8028
 11
-5.16403
 21
31.1514
  0
LINE
  8
0
 10
-5.16403
 20
31.1514
 11
-5.59296
 21
30.593
  0
LINE
  8
0
 10
-5.59296
 20
30.593
 11
-6.15097
 21
30.1645
  0
LINE
  8
0
 10
-6.15097
 20
30.1645
 11
-6.80237
 21
29.8949
  0
LINE
  8
0
 10
-6.80237
 20
29.8949
 11
-7.5
 21
29.8029
  0
LINE
  8
0
 10
-7.5
 20
29.8029
 11
-8.19717
 21
29.8949
  0
LINE
  8
0
 10
21.8028
 20
29.8949
 11
21.1514
 21
30.1645
  0
LINE
  8
0
 10
21.1514
 20
30.1645
 11
20.9349
 21
30.3307
  0
LINE
  8
0
 10
20.9349
 20
30.3307
 11
24.6698
 21
34.0656
  0
LINE
  8
0
 10
24.6698
 20
34.0656
 11
24.836
 21
33.849
  0
LINE
  8
0
 10
24.836
 20
33.849
 11
25.1056
 21
33.1976
  0
LINE
  8
0
 10
25.1056
 20
33.1976
 11
25.1976
 21
32.4995
  0
LINE
  8
0
 10
25.1976
 20
32.4995
 11
25.1056
 21
31.8028
  0
LINE
  8
0
 10
25.1056
 20
31.8028
 11
24.836
 21
31.1514
  0
LINE
  8
0
 10
24.836
 20
31.1514
 11
24.407
 21
30.593
  0
LINE
  8
0
 10
24.407
 20
30.593
 11
23.849
 21
30.1645
  0
LINE
  8
0
 10
23.849
 20
30.1645
 11
23.1976
 21
29.8949
  0
LINE
  8
0
 10
23.1976
 20
29.8949
 11
22.5
 21
29.8029
  0
LINE
  8
0
 10
22.5
 20
29.8029
 11
21.8028
 21
29.8949
  0
LINE
  8
0
 10
-38.1972
 20
29.8949
 11
-38.8486
 21
30.1645
  0
LINE
  8
0
 10
-38.8486
 20
30.1645
 11
-39.0651
 21
30.3307
  0
LINE
  8
0
 10
-39.0651
 20
30.3307
 11
-35.3302
 21
34.0656
  0
LINE
  8
0
 10
-35.3302
 20
34.0656
 11
-35.164
 21
33.849
  0
LINE
  8
0
 10
-35.164
 20
33.849
 11
-34.8944
 21
33.1976
  0
LINE
  8
0
 10
-34.8944
 20
33.1976
 11
-34.8024
 21
32.4995
  0
LINE
  8
0
 10
-34.8024
 20
32.4995
 11
-34.8944
 21
31.8028
  0
LINE
  8
0
 10
-34.8944
 20
31.8028
 11
-35.164
 21
31.1514
  0
LINE
  8
0
 10
-35.164
 20
31.1514
 11
-35.593
 21
30.593
  0
LINE
  8
0
 10
-35.593
 20
30.593
 11
-36.151
 21
30.1645
  0
LINE
  8
0
 10
-36.151
 20
30.1645
 11
-36.8024
 21
29.8949
  0
LINE
  8
0
 10
-36.8024
 20
29.8949
 11
-37.5
 21
29.8029
  0
LINE
  8
0
 10
-37.5
 20
29.8029
 11
-38.1972
 21
29.8949
  0
LINE
  8
0
 10
51.8028
 20
29.8949
 11
51.1514
 21
30.1645
  0
LINE
  8
0
 10
51.1514
 20
30.1645
 11
50.9349
 21
30.3307
  0
LINE
  8
0
 10
50.9349
 20
30.3307
 11
52.1369
 21
31.5326
  0
LINE
  8
0
 10
52.1369
 20
31.5326
 11
52.6907
 21
29.828
  0
LINE
  8
0
 10
52.6907
 20
29.828
 11
52.5
 21
29.8029
  0
LINE
  8
0
 10
52.5
 20
29.8029
 11
51.8028
 21
29.8949
  0
LINE
  8
0
 10
-53.4591
 20
27.4634
 11
-52.786
 21
29.5348
  0
LINE
  8
0
 10
-52.786
 20
29.5348
 11
-52.5
 21
29.4971
  0
LINE
  8
0
 10
-52.5
 20
29.4971
 11
-51.9713
 21
29.5667
  0
LINE
  8
0
 10
-51.9713
 20
29.5667
 11
-48.3115
 21
25.9068
  0
LINE
  8
0
 10
-48.3115
 20
25.9068
 11
-53.4591
 21
27.4634
  0
LINE
  8
0
 10
51.2389
 20
28.8342
 11
51.4897
 21
28.7303
  0
LINE
  8
0
 10
51.4897
 20
28.7303
 11
52.5
 21
28.5971
  0
LINE
  8
0
 10
52.5
 20
28.5971
 11
53.0664
 21
28.6718
  0
LINE
  8
0
 10
53.0664
 20
28.6718
 11
53.4591
 21
27.4634
  0
LINE
  8
0
 10
53.4591
 20
27.4634
 11
48.3115
 21
25.9068
  0
LINE
  8
0
 10
48.3115
 20
25.9068
 11
51.2389
 21
28.8342
  0
LINE
  8
0
 10
-34.5662
 20
16.9708
 11
-34.4966
 21
17.5
  0
LINE
  8
0
 10
-34.4966
 20
17.5
 11
-34.5992
 21
18.2773
  0
LINE
  8
0
 10
-34.5992
 20
18.2773
 11
-34.899
 21
19.001
  0
LINE
  8
0
 10
-34.899
 20
19.001
 11
-35.376
 21
19.6236
  0
LINE
  8
0
 10
-35.376
 20
19.6236
 11
-35.9985
 21
20.1006
  0
LINE
  8
0
 10
-35.9985
 20
20.1006
 11
-36.7223
 21
20.4004
  0
LINE
  8
0
 10
-36.7223
 20
20.4004
 11
-37.5
 21
20.5029
  0
LINE
  8
0
 10
-37.5
 20
20.5029
 11
-38.0287
 21
20.4333
  0
LINE
  8
0
 10
-38.0287
 20
20.4333
 11
-41.6885
 21
24.0932
  0
LINE
  8
0
 10
-41.6885
 20
24.0932
 11
-30.0032
 21
20.5597
  0
LINE
  8
0
 10
-30.0032
 20
20.5597
 11
-30.0032
 21
20.5579
  0
LINE
  8
0
 10
-30.0032
 20
20.5579
 11
-30
 21
20.5588
  0
LINE
  8
0
 10
-30
 20
20.5588
 11
-29.9968
 21
20.5579
  0
LINE
  8
0
 10
-29.9968
 20
20.5579
 11
-29.9968
 21
20.5597
  0
LINE
  8
0
 10
-29.9968
 20
20.5597
 11
-18.3115
 21
24.0932
  0
LINE
  8
0
 10
-18.3115
 20
24.0932
 11
-21.2389
 21
21.1658
  0
LINE
  8
0
 10
-21.2389
 20
21.1658
 11
-21.4897
 21
21.2697
  0
LINE
  8
0
 10
-21.4897
 20
21.2697
 11
-22.5
 21
21.4029
  0
LINE
  8
0
 10
-22.5
 20
21.4029
 11
-23.5107
 21
21.2697
  0
LINE
  8
0
 10
-23.5107
 20
21.2697
 11
-24.4514
 21
20.8801
  0
LINE
  8
0
 10
-24.4514
 20
20.8801
 11
-25.2603
 21
20.2599
  0
LINE
  8
0
 10
-25.2603
 20
20.2599
 11
-25.8806
 21
19.451
  0
LINE
  8
0
 10
-25.8806
 20
19.451
 11
-26.2701
 21
18.5103
  0
LINE
  8
0
 10
-26.2701
 20
18.5103
 11
-26.4034
 21
17.5
  0
LINE
  8
0
 10
-26.4034
 20
17.5
 11
-26.2701
 21
16.4893
  0
LINE
  8
0
 10
-26.2701
 20
16.4893
 11
-26.1662
 21
16.2379
  0
LINE
  8
0
 10
-26.1662
 20
16.2379
 11
-30
 21
12.4042
  0
LINE
  8
0
 10
-30
 20
12.4042
 11
-34.5662
 21
16.9708
  0
LINE
  8
0
 10
-4.56619
 20
16.9708
 11
-4.49661
 21
17.5
  0
LINE
  8
0
 10
-4.49661
 20
17.5
 11
-4.59915
 21
18.2773
  0
LINE
  8
0
 10
-4.59915
 20
18.2773
 11
-4.89899
 21
19.001
  0
LINE
  8
0
 10
-4.89899
 20
19.001
 11
-5.37598
 21
19.6236
  0
LINE
  8
0
 10
-5.37598
 20
19.6236
 11
-5.99854
 21
20.1006
  0
LINE
  8
0
 10
-5.99854
 20
20.1006
 11
-6.72226
 21
20.4004
  0
LINE
  8
0
 10
-6.72226
 20
20.4004
 11
-7.5
 21
20.5029
  0
LINE
  8
0
 10
-7.5
 20
20.5029
 11
-8.02872
 21
20.4333
  0
LINE
  8
0
 10
-8.02872
 20
20.4333
 11
-11.6885
 21
24.0932
  0
LINE
  8
0
 10
-11.6885
 20
24.0932
 11
-0.00320435
 21
20.5597
  0
LINE
  8
0
 10
-0.00320435
 20
20.5597
 11
-0.00320435
 21
20.5579
  0
LINE
  8
0
 10
-0.00320435
 20
20.5579
 11
0
 21
20.5588
  0
LINE
  8
0
 10
0
 20
20.5588
 11
0.00320435
 21
20.5579
  0
LINE
  8
0
 10
0.00320435
 20
20.5579
 11
0.00320435
 21
20.5597
  0
LINE
  8
0
 10
0.00320435
 20
20.5597
 11
11.6885
 21
24.0932
  0
LINE
  8
0
 10
11.6885
 20
24.0932
 11
8.76114
 21
21.1658
  0
LINE
  8
0
 10
8.76114
 20
21.1658
 11
8.51028
 21
21.2697
  0
LINE
  8
0
 10
8.51028
 20
21.2697
 11
7.5
 21
21.4029
  0
LINE
  8
0
 10
7.5
 20
21.4029
 11
6.48926
 21
21.2697
  0
LINE
  8
0
 10
6.48926
 20
21.2697
 11
5.54855
 21
20.8801
  0
LINE
  8
0
 10
5.54855
 20
20.8801
 11
4.73969
 21
20.2599
  0
LINE
  8
0
 10
4.73969
 20
20.2599
 11
4.11942
 21
19.451
  0
LINE
  8
0
 10
4.11942
 20
19.451
 11
3.72986
 21
18.5103
  0
LINE
  8
0
 10
3.72986
 20
18.5103
 11
3.59665
 21
17.5
  0
LINE
  8
0
 10
3.59665
 20
17.5
 11
3.72986
 21
16.4893
  0
LINE
  8
0
 10
3.72986
 20
16.4893
 11
3.83377
 21
16.2379
  0
LINE
  8
0
 10
3.83377
 20
16.2379
 11
0
 21
12.4042
  0
LINE
  8
0
 10
0
 20
12.4042
 11
-4.56619
 21
16.9708
  0
LINE
  8
0
 10
25.4338
 20
16.9708
 11
25.5034
 21
17.5
  0
LINE
  8
0
 10
25.5034
 20
17.5
 11
25.4008
 21
18.2773
  0
LINE
  8
0
 10
25.4008
 20
18.2773
 11
25.101
 21
19.001
  0
LINE
  8
0
 10
25.101
 20
19.001
 11
24.624
 21
19.6236
  0
LINE
  8
0
 10
24.624
 20
19.6236
 11
24.0015
 21
20.1006
  0
LINE
  8
0
 10
24.0015
 20
20.1006
 11
23.2777
 21
20.4004
  0
LINE
  8
0
 10
23.2777
 20
20.4004
 11
22.5
 21
20.5029
  0
LINE
  8
0
 10
22.5
 20
20.5029
 11
21.9713
 21
20.4333
  0
LINE
  8
0
 10
21.9713
 20
20.4333
 11
18.3115
 21
24.0932
  0
LINE
  8
0
 10
18.3115
 20
24.0932
 11
29.9968
 21
20.5597
  0
LINE
  8
0
 10
29.9968
 20
20.5597
 11
29.9968
 21
20.5579
  0
LINE
  8
0
 10
29.9968
 20
20.5579
 11
30
 21
20.5588
  0
LINE
  8
0
 10
30
 20
20.5588
 11
30.0032
 21
20.5579
  0
LINE
  8
0
 10
30.0032
 20
20.5579
 11
30.0032
 21
20.5597
  0
LINE
  8
0
 10
30.0032
 20
20.5597
 11
41.6885
 21
24.0932
  0
LINE
  8
0
 10
41.6885
 20
24.0932
 11
38.7611
 21
21.1658
  0
LINE
  8
0
 10
38.7611
 20
21.1658
 11
38.5103
 21
21.2697
  0
LINE
  8
0
 10
38.5103
 20
21.2697
 11
37.5
 21
21.4029
  0
LINE
  8
0
 10
37.5
 20
21.4029
 11
36.4893
 21
21.2697
  0
LINE
  8
0
 10
36.4893
 20
21.2697
 11
35.5486
 21
20.8801
  0
LINE
  8
0
 10
35.5486
 20
20.8801
 11
34.7397
 21
20.2599
  0
LINE
  8
0
 10
34.7397
 20
20.2599
 11
34.1194
 21
19.451
  0
LINE
  8
0
 10
34.1194
 20
19.451
 11
33.7299
 21
18.5103
  0
LINE
  8
0
 10
33.7299
 20
18.5103
 11
33.5966
 21
17.5
  0
LINE
  8
0
 10
33.5966
 20
17.5
 11
33.7299
 21
16.4893
  0
LINE
  8
0
 10
33.7299
 20
16.4893
 11
33.8338
 21
16.2379
  0
LINE
  8
0
 10
33.8338
 20
16.2379
 11
30
 21
12.4042
  0
LINE
  8
0
 10
30
 20
12.4042
 11
25.4338
 21
16.9708
  0
LINE
  8
0
 10
55.4338
 20
16.9708
 11
55.5034
 21
17.5
  0
LINE
  8
0
 10
55.5034
 20
17.5
 11
55.4008
 21
18.2773
  0
LINE
  8
0
 10
55.4008
 20
18.2773
 11
55.101
 21
19.001
  0
LINE
  8
0
 10
55.101
 20
19.001
 11
54.624
 21
19.6236
  0
LINE
  8
0
 10
54.624
 20
19.6236
 11
54.0015
 21
20.1006
  0
LINE
  8
0
 10
54.0015
 20
20.1006
 11
53.2777
 21
20.4004
  0
LINE
  8
0
 10
53.2777
 20
20.4004
 11
52.5
 21
20.5029
  0
LINE
  8
0
 10
52.5
 20
20.5029
 11
51.9713
 21
20.4333
  0
LINE
  8
0
 10
51.9713
 20
20.4333
 11
48.3115
 21
24.0932
  0
LINE
  8
0
 10
48.3115
 20
24.0932
 11
55.2343
 21
21.9998
  0
LINE
  8
0
 10
55.2343
 20
21.9998
 11
57.5588
 21
14.8456
  0
LINE
  8
0
 10
57.5588
 20
14.8456
 11
55.4338
 21
16.9708
  0
LINE
  8
0
 10
-55.2343
 20
21.9998
 11
-48.3115
 21
24.0932
  0
LINE
  8
0
 10
-48.3115
 20
24.0932
 11
-51.2389
 21
21.1658
  0
LINE
  8
0
 10
-51.2389
 20
21.1658
 11
-51.4897
 21
21.2697
  0
LINE
  8
0
 10
-51.4897
 20
21.2697
 11
-52.5
 21
21.4029
  0
LINE
  8
0
 10
-52.5
 20
21.4029
 11
-53.5107
 21
21.2697
  0
LINE
  8
0
 10
-53.5107
 20
21.2697
 11
-54.4514
 21
20.8801
  0
LINE
  8
0
 10
-54.4514
 20
20.8801
 11
-55.2603
 21
20.2599
  0
LINE
  8
0
 10
-55.2603
 20
20.2599
 11
-55.8806
 21
19.451
  0
LINE
  8
0
 10
-55.8806
 20
19.451
 11
-56.2701
 21
18.5103
  0
LINE
  8
0
 10
-56.2701
 20
18.5103
 11
-56.4034
 21
17.5
  0
LINE
  8
0
 10
-56.4034
 20
17.5
 11
-56.2701
 21
16.4893
  0
LINE
  8
0
 10
-56.2701
 20
16.4893
 11
-56.1662
 21
16.2379
  0
LINE
  8
0
 10
-56.1662
 20
16.2379
 11
-57.5589
 21
14.8452
  0
LINE
  8
0
 10
-57.5589
 20
14.8452
 11
-55.2343
 21
21.9998
  0
LINE
  8
0
 10
-41.1635
 20
12
 11
-44.0932
 21
21.6885
  0
LINE
  8
0
 10
-44.0932
 20
21.6885
 11
-41.1658
 21
18.7611
  0
LINE
  8
0
 10
-41.1658
 20
18.7611
 11
-41.2697
 21
18.5103
  0
LINE
  8
0
 10
-41.2697
 20
18.5103
 11
-41.4029
 21
17.5
  0
LINE
  8
0
 10
-41.4029
 20
17.5
 11
-41.2697
 21
16.4893
  0
LINE
  8
0
 10
-41.2697
 20
16.4893
 11
-40.8801
 21
15.5486
  0
LINE
  8
0
 10
-40.8801
 20
15.5486
 11
-40.2599
 21
14.7397
  0
LINE
  8
0
 10
-40.2599
 20
14.7397
 11
-39.451
 21
14.1194
  0
LINE
  8
0
 10
-39.451
 20
14.1194
 11
-38.5103
 21
13.7299
  0
LINE
  8
0
 10
-38.5103
 20
13.7299
 11
-37.5
 21
13.5966
  0
LINE
  8
0
 10
-37.5
 20
13.5966
 11
-36.4893
 21
13.7299
  0
LINE
  8
0
 10
-36.4893
 20
13.7299
 11
-36.2379
 21
13.8338
  0
LINE
  8
0
 10
-36.2379
 20
13.8338
 11
-34.4042
 21
12
  0
LINE
  8
0
 10
-34.4042
 20
12
 11
-41.1635
 21
12
  0
LINE
  8
0
 10
-25.5956
 20
12
 11
-23.0292
 21
14.5662
  0
LINE
  8
0
 10
-23.0292
 20
14.5662
 11
-22.5
 21
14.4966
  0
LINE
  8
0
 10
-22.5
 20
14.4966
 11
-21.7227
 21
14.5992
  0
LINE
  8
0
 10
-21.7227
 20
14.5992
 11
-20.999
 21
14.899
  0
LINE
  8
0
 10
-20.999
 20
14.899
 11
-20.3764
 21
15.376
  0
LINE
  8
0
 10
-20.3764
 20
15.376
 11
-19.8994
 21
15.9985
  0
LINE
  8
0
 10
-19.8994
 20
15.9985
 11
-19.5996
 21
16.7223
  0
LINE
  8
0
 10
-19.5996
 20
16.7223
 11
-19.4971
 21
17.5
  0
LINE
  8
0
 10
-19.4971
 20
17.5
 11
-19.5667
 21
18.0287
  0
LINE
  8
0
 10
-19.5667
 20
18.0287
 11
-15.9068
 21
21.6885
  0
LINE
  8
0
 10
-15.9068
 20
21.6885
 11
-18.8365
 21
12
  0
LINE
  8
0
 10
-18.8365
 20
12
 11
-25.5956
 21
12
  0
LINE
  8
0
 10
-55.5956
 20
12
 11
-53.0292
 21
14.5662
  0
LINE
  8
0
 10
-53.0292
 20
14.5662
 11
-52.5
 21
14.4966
  0
LINE
  8
0
 10
-52.5
 20
14.4966
 11
-51.7227
 21
14.5992
  0
LINE
  8
0
 10
-51.7227
 20
14.5992
 11
-50.999
 21
14.899
  0
LINE
  8
0
 10
-50.999
 20
14.899
 11
-50.3764
 21
15.376
  0
LINE
  8
0
 10
-50.3764
 20
15.376
 11
-49.8994
 21
15.9985
  0
LINE
  8
0
 10
-49.8994
 20
15.9985
 11
-49.5996
 21
16.7223
  0
LINE
  8
0
 10
-49.5996
 20
16.7223
 11
-49.4971
 21
17.5
  0
LINE
  8
0
 10
-49.4971
 20
17.5
 11
-49.5667
 21
18.0287
  0
LINE
  8
0
 10
-49.5667
 20
18.0287
 11
-45.9068
 21
21.6885
  0
LINE
  8
0
 10
-45.9068
 20
21.6885
 11
-48.8365
 21
12
  0
LINE
  8
0
 10
-48.8365
 20
12
 11
-55.5956
 21
12
  0
LINE
  8
0
 10
34.4044
 20
12
 11
36.9708
 21
14.5662
  0
LINE
  8
0
 10
36.9708
 20
14.5662
 11
37.5
 21
14.4966
  0
LINE
  8
0
 10
37.5
 20
14.4966
 11
38.2773
 21
14.5992
  0
LINE
  8
0
 10
38.2773
 20
14.5992
 11
39.001
 21
14.899
  0
LINE
  8
0
 10
39.001
 20
14.899
 11
39.6236
 21
15.376
  0
LINE
  8
0
 10
39.6236
 20
15.376
 11
40.1006
 21
15.9985
  0
LINE
  8
0
 10
40.1006
 20
15.9985
 11
40.4004
 21
16.7223
  0
LINE
  8
0
 10
40.4004
 20
16.7223
 11
40.5029
 21
17.5
  0
LINE
  8
0
 10
40.5029
 20
17.5
 11
40.4333
 21
18.0287
  0
LINE
  8
0
 10
40.4333
 20
18.0287
 11
44.0932
 21
21.6885
  0
LINE
  8
0
 10
44.0932
 20
21.6885
 11
41.1635
 21
12
  0
LINE
  8
0
 10
41.1635
 20
12
 11
34.4044
 21
12
  0
LINE
  8
0
 10
18.8365
 20
12
 11
15.9068
 21
21.6885
  0
LINE
  8
0
 10
15.9068
 20
21.6885
 11
18.8342
 21
18.7611
  0
LINE
  8
0
 10
18.8342
 20
18.7611
 11
18.7303
 21
18.5103
  0
LINE
  8
0
 10
18.7303
 20
18.5103
 11
18.5971
 21
17.5
  0
LINE
  8
0
 10
18.5971
 20
17.5
 11
18.7303
 21
16.4893
  0
LINE
  8
0
 10
18.7303
 20
16.4893
 11
19.1199
 21
15.5486
  0
LINE
  8
0
 10
19.1199
 20
15.5486
 11
19.7401
 21
14.7397
  0
LINE
  8
0
 10
19.7401
 20
14.7397
 11
20.549
 21
14.1194
  0
LINE
  8
0
 10
20.549
 20
14.1194
 11
21.4897
 21
13.7299
  0
LINE
  8
0
 10
21.4897
 20
13.7299
 11
22.5
 21
13.5966
  0
LINE
  8
0
 10
22.5
 20
13.5966
 11
23.5107
 21
13.7299
  0
LINE
  8
0
 10
23.5107
 20
13.7299
 11
23.7621
 21
13.8338
  0
LINE
  8
0
 10
23.7621
 20
13.8338
 11
25.5958
 21
12
  0
LINE
  8
0
 10
25.5958
 20
12
 11
18.8365
 21
12
  0
LINE
  8
0
 10
48.8365
 20
12
 11
45.9068
 21
21.6885
  0
LINE
  8
0
 10
45.9068
 20
21.6885
 11
48.8342
 21
18.7611
  0
LINE
  8
0
 10
48.8342
 20
18.7611
 11
48.7303
 21
18.5103
  0
LINE
  8
0
 10
48.7303
 20
18.5103
 11
48.5971
 21
17.5
  0
LINE
  8
0
 10
48.5971
 20
17.5
 11
48.7303
 21
16.4893
  0
LINE
  8
0
 10
48.7303
 20
16.4893
 11
49.1199
 21
15.5486
  0
LINE
  8
0
 10
49.1199
 20
15.5486
 11
49.7401
 21
14.7397
  0
LINE
  8
0
 10
49.7401
 20
14.7397
 11
50.549
 21
14.1194
  0
LINE
  8
0
 10
50.549
 20
14.1194
 11
51.4897
 21
13.7299
  0
LINE
  8
0
 10
51.4897
 20
13.7299
 11
52.5
 21
13.5966
  0
LINE
  8
0
 10
52.5
 20
13.5966
 11
53.5107
 21
13.7299
  0
LINE
  8
0
 10
53.5107
 20
13.7299
 11
53.7621
 21
13.8338
  0
LINE
  8
0
 10
53.7621
 20
13.8338
 11
55.5958
 21
12
  0
LINE
  8
0
 10
55.5958
 20
12
 11
48.8365
 21
12
  0
LINE
  8
0
 10
-11.1635
 20
12
 11
-14.0932
 21
21.6885
  0
LINE
  8
0
 10
-14.0932
 20
21.6885
 11
-11.1658
 21
18.7611
  0
LINE
  8
0
 10
-11.1658
 20
18.7611
 11
-11.2697
 21
18.5103
  0
LINE
  8
0
 10
-11.2697
 20
18.5103
 11
-11.4029
 21
17.5
  0
LINE
  8
0
 10
-11.4029
 20
17.5
 11
-11.2697
 21
16.4893
  0
LINE
  8
0
 10
-11.2697
 20
16.4893
 11
-10.8801
 21
15.5486
  0
LINE
  8
0
 10
-10.8801
 20
15.5486
 11
-10.2599
 21
14.7397
  0
LINE
  8
0
 10
-10.2599
 20
14.7397
 11
-9.45099
 21
14.1194
  0
LINE
  8
0
 10
-9.45099
 20
14.1194
 11
-8.51028
 21
13.7299
  0
LINE
  8
0
 10
-8.51028
 20
13.7299
 11
-7.5
 21
13.5966
  0
LINE
  8
0
 10
-7.5
 20
13.5966
 11
-6.48926
 21
13.7299
  0
LINE
  8
0
 10
-6.48926
 20
13.7299
 11
-6.23795
 21
13.8338
  0
LINE
  8
0
 10
-6.23795
 20
13.8338
 11
-4.40417
 21
12
  0
LINE
  8
0
 10
-4.40417
 20
12
 11
-11.1635
 21
12
  0
LINE
  8
0
 10
4.40437
 20
12
 11
6.97083
 21
14.5662
  0
LINE
  8
0
 10
6.97083
 20
14.5662
 11
7.5
 21
14.4966
  0
LINE
  8
0
 10
7.5
 20
14.4966
 11
8.27728
 21
14.5992
  0
LINE
  8
0
 10
8.27728
 20
14.5992
 11
9.00101
 21
14.899
  0
LINE
  8
0
 10
9.00101
 20
14.899
 11
9.62357
 21
15.376
  0
LINE
  8
0
 10
9.62357
 20
15.376
 11
10.1006
 21
15.9985
  0
LINE
  8
0
 10
10.1006
 20
15.9985
 11
10.4004
 21
16.7223
  0
LINE
  8
0
 10
10.4004
 20
16.7223
 11
10.5029
 21
17.5
  0
LINE
  8
0
 10
10.5029
 20
17.5
 11
10.4333
 21
18.0287
  0
LINE
  8
0
 10
10.4333
 20
18.0287
 11
14.0932
 21
21.6885
  0
LINE
  8
0
 10
14.0932
 20
21.6885
 11
11.1635
 21
12
  0
LINE
  8
0
 10
11.1635
 20
12
 11
4.40437
 21
12
  0
LINE
  8
0
 10
5.16403
 20
16.151
 11
4.89441
 21
16.8024
  0
LINE
  8
0
 10
4.89441
 20
16.8024
 11
4.8024
 21
17.5005
  0
LINE
  8
0
 10
4.8024
 20
17.5005
 11
4.89441
 21
18.1972
  0
LINE
  8
0
 10
4.89441
 20
18.1972
 11
5.16403
 21
18.8486
  0
LINE
  8
0
 10
5.16403
 20
18.8486
 11
5.5925
 21
19.4066
  0
LINE
  8
0
 10
5.5925
 20
19.4066
 11
6.15097
 21
19.8355
  0
LINE
  8
0
 10
6.15097
 20
19.8355
 11
6.80237
 21
20.1051
  0
LINE
  8
0
 10
6.80237
 20
20.1051
 11
7.5
 21
20.1971
  0
LINE
  8
0
 10
7.5
 20
20.1971
 11
8.19717
 21
20.1051
  0
LINE
  8
0
 10
8.19717
 20
20.1051
 11
8.84857
 21
19.8355
  0
LINE
  8
0
 10
8.84857
 20
19.8355
 11
9.06509
 21
19.6693
  0
LINE
  8
0
 10
9.06509
 20
19.6693
 11
5.3302
 21
15.9344
  0
LINE
  8
0
 10
5.3302
 20
15.9344
 11
5.16403
 21
16.151
  0
LINE
  8
0
 10
-54.836
 20
16.151
 11
-55.1056
 21
16.8024
  0
LINE
  8
0
 10
-55.1056
 20
16.8024
 11
-55.1976
 21
17.5005
  0
LINE
  8
0
 10
-55.1976
 20
17.5005
 11
-55.1056
 21
18.1972
  0
LINE
  8
0
 10
-55.1056
 20
18.1972
 11
-54.836
 21
18.8486
  0
LINE
  8
0
 10
-54.836
 20
18.8486
 11
-54.4075
 21
19.4066
  0
LINE
  8
0
 10
-54.4075
 20
19.4066
 11
-53.849
 21
19.8355
  0
LINE
  8
0
 10
-53.849
 20
19.8355
 11
-53.1976
 21
20.1051
  0
LINE
  8
0
 10
-53.1976
 20
20.1051
 11
-52.5
 21
20.1971
  0
LINE
  8
0
 10
-52.5
 20
20.1971
 11
-51.8028
 21
20.1051
  0
LINE
  8
0
 10
-51.8028
 20
20.1051
 11
-51.1514
 21
19.8355
  0
LINE
  8
0
 10
-51.1514
 20
19.8355
 11
-50.9349
 21
19.6693
  0
LINE
  8
0
 10
-50.9349
 20
19.6693
 11
-54.6698
 21
15.9344
  0
LINE
  8
0
 10
-54.6698
 20
15.9344
 11
-54.836
 21
16.151
  0
LINE
  8
0
 10
35.164
 20
16.151
 11
34.8944
 21
16.8024
  0
LINE
  8
0
 10
34.8944
 20
16.8024
 11
34.8024
 21
17.5005
  0
LINE
  8
0
 10
34.8024
 20
17.5005
 11
34.8944
 21
18.1972
  0
LINE
  8
0
 10
34.8944
 20
18.1972
 11
35.164
 21
18.8486
  0
LINE
  8
0
 10
35.164
 20
18.8486
 11
35.5925
 21
19.4066
  0
LINE
  8
0
 10
35.5925
 20
19.4066
 11
36.151
 21
19.8355
  0
LINE
  8
0
 10
36.151
 20
19.8355
 11
36.8024
 21
20.1051
  0
LINE
  8
0
 10
36.8024
 20
20.1051
 11
37.5
 21
20.1971
  0
LINE
  8
0
 10
37.5
 20
20.1971
 11
38.1972
 21
20.1051
  0
LINE
  8
0
 10
38.1972
 20
20.1051
 11
38.8486
 21
19.8355
  0
LINE
  8
0
 10
38.8486
 20
19.8355
 11
39.0651
 21
19.6693
  0
LINE
  8
0
 10
39.0651
 20
19.6693
 11
35.3302
 21
15.9344
  0
LINE
  8
0
 10
35.3302
 20
15.9344
 11
35.164
 21
16.151
  0
LINE
  8
0
 10
-24.836
 20
16.151
 11
-25.1056
 21
16.8024
  0
LINE
  8
0
 10
-25.1056
 20
16.8024
 11
-25.1976
 21
17.5005
  0
LINE
  8
0
 10
-25.1976
 20
17.5005
 11
-25.1056
 21
18.1972
  0
LINE
  8
0
 10
-25.1056
 20
18.1972
 11
-24.836
 21
18.8486
  0
LINE
  8
0
 10
-24.836
 20
18.8486
 11
-24.4075
 21
19.4066
  0
LINE
  8
0
 10
-24.4075
 20
19.4066
 11
-23.849
 21
19.8355
  0
LINE
  8
0
 10
-23.849
 20
19.8355
 11
-23.1976
 21
20.1051
  0
LINE
  8
0
 10
-23.1976
 20
20.1051
 11
-22.5
 21
20.1971
  0
LINE
  8
0
 10
-22.5
 20
20.1971
 11
-21.8028
 21
20.1051
  0
LINE
  8
0
 10
-21.8028
 20
20.1051
 11
-21.1514
 21
19.8355
  0
LINE
  8
0
 10
-21.1514
 20
19.8355
 11
-20.9349
 21
19.6693
  0
LINE
  8
0
 10
-20.9349
 20
19.6693
 11
-24.6698
 21
15.9344
  0
LINE
  8
0
 10
-24.6698
 20
15.9344
 11
-24.836
 21
16.151
  0
LINE
  8
0
 10
51.8028
 20
14.8944
 11
51.1514
 21
15.164
  0
LINE
  8
0
 10
51.1514
 20
15.164
 11
50.593
 21
15.593
  0
LINE
  8
0
 10
50.593
 20
15.593
 11
50.1645
 21
16.151
  0
LINE
  8
0
 10
50.1645
 20
16.151
 11
49.8949
 21
16.8024
  0
LINE
  8
0
 10
49.8949
 20
16.8024
 11
49.8029
 21
17.5005
  0
LINE
  8
0
 10
49.8029
 20
17.5005
 11
49.8949
 21
18.1972
  0
LINE
  8
0
 10
49.8949
 20
18.1972
 11
50.1645
 21
18.8486
  0
LINE
  8
0
 10
50.1645
 20
18.8486
 11
50.3307
 21
19.0651
  0
LINE
  8
0
 10
50.3307
 20
19.0651
 11
54.0656
 21
15.3302
  0
LINE
  8
0
 10
54.0656
 20
15.3302
 11
53.849
 21
15.164
  0
LINE
  8
0
 10
53.849
 20
15.164
 11
53.1976
 21
14.8944
  0
LINE
  8
0
 10
53.1976
 20
14.8944
 11
52.5
 21
14.8024
  0
LINE
  8
0
 10
52.5
 20
14.8024
 11
51.8028
 21
14.8944
  0
LINE
  8
0
 10
21.8028
 20
14.8944
 11
21.1514
 21
15.164
  0
LINE
  8
0
 10
21.1514
 20
15.164
 11
20.593
 21
15.593
  0
LINE
  8
0
 10
20.593
 20
15.593
 11
20.1645
 21
16.151
  0
LINE
  8
0
 10
20.1645
 20
16.151
 11
19.8949
 21
16.8024
  0
LINE
  8
0
 10
19.8949
 20
16.8024
 11
19.8029
 21
17.5005
  0
LINE
  8
0
 10
19.8029
 20
17.5005
 11
19.8949
 21
18.1972
  0
LINE
  8
0
 10
19.8949
 20
18.1972
 11
20.1645
 21
18.8486
  0
LINE
  8
0
 10
20.1645
 20
18.8486
 11
20.3307
 21
19.0651
  0
LINE
  8
0
 10
20.3307
 20
19.0651
 11
24.0656
 21
15.3302
  0
LINE
  8
0
 10
24.0656
 20
15.3302
 11
23.849
 21
15.164
  0
LINE
  8
0
 10
23.849
 20
15.164
 11
23.1976
 21
14.8944
  0
LINE
  8
0
 10
23.1976
 20
14.8944
 11
22.5
 21
14.8024
  0
LINE
  8
0
 10
22.5
 20
14.8024
 11
21.8028
 21
14.8944
  0
LINE
  8
0
 10
-38.1972
 20
14.8944
 11
-38.8486
 21
15.164
  0
LINE
  8
0
 10
-38.8486
 20
15.164
 11
-39.407
 21
15.593
  0
LINE
  8
0
 10
-39.407
 20
15.593
 11
-39.8355
 21
16.151
  0
LINE
  8
0
 10
-39.8355
 20
16.151
 11
-40.1051
 21
16.8024
  0
LINE
  8
0
 10
-40.1051
 20
16.8024
 11
-40.1971
 21
17.5005
  0
LINE
  8
0
 10
-40.1971
 20
17.5005
 11
-40.1051
 21
18.1972
  0
LINE
  8
0
 10
-40.1051
 20
18.1972
 11
-39.8355
 21
18.8486
  0
LINE
  8
0
 10
-39.8355
 20
18.8486
 11
-39.6693
 21
19.0651
  0
LINE
  8
0
 10
-39.6693
 20
19.0651
 11
-35.9344
 21
15.3302
  0
LINE
  8
0
 10
-35.9344
 20
15.3302
 11
-36.151
 21
15.164
  0
LINE
  8
0
 10
-36.151
 20
15.164
 11
-36.8024
 21
14.8944
  0
LINE
  8
0
 10
-36.8024
 20
14.8944
 11
-37.5
 21
14.8024
  0
LINE
  8
0
 10
-37.5
 20
14.8024
 11
-38.1972
 21
14.8944
  0
LINE
  8
0
 10
-8.19717
 20
14.8944
 11
-8.84857
 21
15.164
  0
LINE
  8
0
 10
-8.84857
 20
15.164
 11
-9.40704
 21
15.593
  0
LINE
  8
0
 10
-9.40704
 20
15.593
 11
-9.83551
 21
16.151
  0
LINE
  8
0
 10
-9.83551
 20
16.151
 11
-10.1051
 21
16.8024
  0
LINE
  8
0
 10
-10.1051
 20
16.8024
 11
-10.1971
 21
17.5005
  0
LINE
  8
0
 10
-10.1971
 20
17.5005
 11
-10.1051
 21
18.1972
  0
LINE
  8
0
 10
-10.1051
 20
18.1972
 11
-9.83551
 21
18.8486
  0
LINE
  8
0
 10
-9.83551
 20
18.8486
 11
-9.66934
 21
19.0651
  0
LINE
  8
0
 10
-9.66934
 20
19.0651
 11
-5.93445
 21
15.3302
  0
LINE
  8
0
 10
-5.93445
 20
15.3302
 11
-6.15097
 21
15.164
  0
LINE
  8
0
 10
-6.15097
 20
15.164
 11
-6.80237
 21
14.8944
  0
LINE
  8
0
 10
-6.80237
 20
14.8944
 11
-7.5
 21
14.8024
  0
LINE
  8
0
 10
-7.5
 20
14.8024
 11
-8.19717
 21
14.8944
  0
LINE
  8
0
 10
-10
 20
7
 11
-10
 21
11
  0
LINE
  8
0
 10
-10
 20
11
 11
10
 21
11
  0
LINE
  8
0
 10
10
 20
11
 11
10
 21
7
  0
LINE
  8
0
 10
10
 20
7
 11
-10
 21
7
  0
LINE
  8
0
 10
-68.6534
 20
2.70622
 11
-68.7785
 21
2.71805
  0
LINE
  8
0
 10
-68.7785
 20
2.71805
 11
-68.9026
 21
2.7377
  0
LINE
  8
0
 10
-68.9026
 20
2.7377
 11
-69.0252
 21
2.76511
  0
LINE
  8
0
 10
-69.0252
 20
2.76511
 11
-69.1459
 21
2.80016
  0
LINE
  8
0
 10
-69.1459
 20
2.80016
 11
-69.2641
 21
2.84273
  0
LINE
  8
0
 10
-69.2641
 20
2.84273
 11
-69.3794
 21
2.89262
  0
LINE
  8
0
 10
-69.3794
 20
2.89262
 11
-69.4914
 21
2.94966
  0
LINE
  8
0
 10
-69.4914
 20
2.94966
 11
-69.5995
 21
3.01363
  0
LINE
  8
0
 10
-69.5995
 20
3.01363
 11
-69.7034
 21
3.08424
  0
LINE
  8
0
 10
-69.7034
 20
3.08424
 11
-69.8027
 21
3.16125
  0
LINE
  8
0
 10
-69.8027
 20
3.16125
 11
-69.897
 21
3.24434
  0
LINE
  8
0
 10
-69.897
 20
3.24434
 11
-69.9858
 21
3.33318
  0
LINE
  8
0
 10
-69.9858
 20
3.33318
 11
-70.0689
 21
3.42743
  0
LINE
  8
0
 10
-70.0689
 20
3.42743
 11
-70.1459
 21
3.5267
  0
LINE
  8
0
 10
-70.1459
 20
3.5267
 11
-70.2165
 21
3.63062
  0
LINE
  8
0
 10
-70.2165
 20
3.63062
 11
-70.2805
 21
3.73877
  0
LINE
  8
0
 10
-70.2805
 20
3.73877
 11
-70.3375
 21
3.85072
  0
LINE
  8
0
 10
-70.3375
 20
3.85072
 11
-70.3874
 21
3.96602
  0
LINE
  8
0
 10
-70.3874
 20
3.96602
 11
-70.43
 21
4.08424
  0
LINE
  8
0
 10
-70.43
 20
4.08424
 11
-70.465
 21
4.2049
  0
LINE
  8
0
 10
-70.465
 20
4.2049
 11
-70.4924
 21
4.32751
  0
LINE
  8
0
 10
-70.4924
 20
4.32751
 11
-70.5121
 21
4.45161
  0
LINE
  8
0
 10
-70.5121
 20
4.45161
 11
-70.5239
 21
4.57669
  0
LINE
  8
0
 10
-70.5239
 20
4.57669
 11
-70.5279
 21
4.70227
  0
LINE
  8
0
 10
-70.5279
 20
4.70227
 11
-70.5239
 21
4.82785
  0
LINE
  8
0
 10
-70.5239
 20
4.82785
 11
-70.5121
 21
4.95294
  0
LINE
  8
0
 10
-70.5121
 20
4.95294
 11
-70.4924
 21
5.07704
  0
LINE
  8
0
 10
-70.4924
 20
5.07704
 11
-70.465
 21
5.19966
  0
LINE
  8
0
 10
-70.465
 20
5.19966
 11
-70.43
 21
5.32031
  0
LINE
  8
0
 10
-70.43
 20
5.32031
 11
-70.3874
 21
5.43852
  0
LINE
  8
0
 10
-70.3874
 20
5.43852
 11
-70.3375
 21
5.55383
  0
LINE
  8
0
 10
-70.3375
 20
5.55383
 11
-70.2805
 21
5.66579
  0
LINE
  8
0
 10
-70.2805
 20
5.66579
 11
-70.2165
 21
5.77393
  0
LINE
  8
0
 10
-70.2165
 20
5.77393
 11
-70.1459
 21
5.87784
  0
LINE
  8
0
 10
-70.1459
 20
5.87784
 11
-70.0689
 21
5.97713
  0
LINE
  8
0
 10
-70.0689
 20
5.97713
 11
-69.9858
 21
6.07137
  0
LINE
  8
0
 10
-69.9858
 20
6.07137
 11
-69.897
 21
6.16022
  0
LINE
  8
0
 10
-69.897
 20
6.16022
 11
-69.8027
 21
6.2433
  0
LINE
  8
0
 10
-69.8027
 20
6.2433
 11
-69.7034
 21
6.32031
  0
LINE
  8
0
 10
-69.7034
 20
6.32031
 11
-69.5995
 21
6.39093
  0
LINE
  8
0
 10
-69.5995
 20
6.39093
 11
-69.4914
 21
6.4549
  0
LINE
  8
0
 10
-69.4914
 20
6.4549
 11
-69.3794
 21
6.51193
  0
LINE
  8
0
 10
-69.3794
 20
6.51193
 11
-69.2641
 21
6.56183
  0
LINE
  8
0
 10
-69.2641
 20
6.56183
 11
-69.1459
 21
6.60439
  0
LINE
  8
0
 10
-69.1459
 20
6.60439
 11
-69.0252
 21
6.63943
  0
LINE
  8
0
 10
-69.0252
 20
6.63943
 11
-68.9026
 21
6.66685
  0
LINE
  8
0
 10
-68.9026
 20
6.66685
 11
-68.7785
 21
6.68651
  0
LINE
  8
0
 10
-68.7785
 20
6.68651
 11
-68.6534
 21
6.69833
  0
LINE
  8
0
 10
-68.6534
 20
6.69833
 11
-68.5279
 21
6.70227
  0
LINE
  8
0
 10
-68.5279
 20
6.70227
 11
-68.4023
 21
6.69833
  0
LINE
  8
0
 10
-68.4023
 20
6.69833
 11
-68.2772
 21
6.68651
  0
LINE
  8
0
 10
-68.2772
 20
6.68651
 11
-68.1531
 21
6.66685
  0
LINE
  8
0
 10
-68.1531
 20
6.66685
 11
-68.0305
 21
6.63943
  0
LINE
  8
0
 10
-68.0305
 20
6.63943
 11
-67.9098
 21
6.60439
  0
LINE
  8
0
 10
-67.9098
 20
6.60439
 11
-67.7916
 21
6.56183
  0
LINE
  8
0
 10
-67.7916
 20
6.56183
 11
-67.6763
 21
6.51193
  0
LINE
  8
0
 10
-67.6763
 20
6.51193
 11
-67.5643
 21
6.4549
  0
LINE
  8
0
 10
-67.5643
 20
6.4549
 11
-67.4562
 21
6.39093
  0
LINE
  8
0
 10
-67.4562
 20
6.39093
 11
-67.3523
 21
6.32031
  0
LINE
  8
0
 10
-67.3523
 20
6.32031
 11
-67.253
 21
6.2433
  0
LINE
  8
0
 10
-67.253
 20
6.2433
 11
-67.1588
 21
6.16022
  0
LINE
  8
0
 10
-67.1588
 20
6.16022
 11
-67.0699
 21
6.07137
  0
LINE
  8
0
 10
-67.0699
 20
6.07137
 11
-66.9868
 21
5.97713
  0
LINE
  8
0
 10
-66.9868
 20
5.97713
 11
-66.9098
 21
5.87784
  0
LINE
  8
0
 10
-66.9098
 20
5.87784
 11
-66.8392
 21
5.77393
  0
LINE
  8
0
 10
-66.8392
 20
5.77393
 11
-66.7752
 21
5.66579
  0
LINE
  8
0
 10
-66.7752
 20
5.66579
 11
-66.7182
 21
5.55383
  0
LINE
  8
0
 10
-66.7182
 20
5.55383
 11
-66.6683
 21
5.43852
  0
LINE
  8
0
 10
-66.6683
 20
5.43852
 11
-66.6257
 21
5.32031
  0
LINE
  8
0
 10
-66.6257
 20
5.32031
 11
-66.5907
 21
5.19966
  0
LINE
  8
0
 10
-66.5907
 20
5.19966
 11
-66.5633
 21
5.07704
  0
LINE
  8
0
 10
-66.5633
 20
5.07704
 11
-66.5436
 21
4.95294
  0
LINE
  8
0
 10
-66.5436
 20
4.95294
 11
-66.5318
 21
4.82785
  0
LINE
  8
0
 10
-66.5318
 20
4.82785
 11
-66.5279
 21
4.70227
  0
LINE
  8
0
 10
-66.5279
 20
4.70227
 11
-66.5318
 21
4.57669
  0
LINE
  8
0
 10
-66.5318
 20
4.57669
 11
-66.5436
 21
4.45161
  0
LINE
  8
0
 10
-66.5436
 20
4.45161
 11
-66.5633
 21
4.32751
  0
LINE
  8
0
 10
-66.5633
 20
4.32751
 11
-66.5907
 21
4.2049
  0
LINE
  8
0
 10
-66.5907
 20
4.2049
 11
-66.6257
 21
4.08424
  0
LINE
  8
0
 10
-66.6257
 20
4.08424
 11
-66.6683
 21
3.96602
  0
LINE
  8
0
 10
-66.6683
 20
3.96602
 11
-66.7182
 21
3.85072
  0
LINE
  8
0
 10
-66.7182
 20
3.85072
 11
-66.7752
 21
3.73877
  0
LINE
  8
0
 10
-66.7752
 20
3.73877
 11
-66.8392
 21
3.63062
  0
LINE
  8
0
 10
-66.8392
 20
3.63062
 11
-66.9098
 21
3.5267
  0
LINE
  8
0
 10
-66.9098
 20
3.5267
 11
-66.9868
 21
3.42743
  0
LINE
  8
0
 10
-66.9868
 20
3.42743
 11
-67.0699
 21
3.33318
  0
LINE
  8
0
 10
-67.0699
 20
3.33318
 11
-67.1588
 21
3.24434
  0
LINE
  8
0
 10
-67.1588
 20
3.24434
 11
-67.253
 21
3.16125
  0
LINE
  8
0
 10
-67.253
 20
3.16125
 11
-67.3523
 21
3.08424
  0
LINE
  8
0
 10
-67.3523
 20
3.08424
 11
-67.4562
 21
3.01363
  0
LINE
  8
0
 10
-67.4562
 20
3.01363
 11
-67.5643
 21
2.94966
  0
LINE
  8
0
 10
-67.5643
 20
2.94966
 11
-67.6763
 21
2.89262
  0
LINE
  8
0
 10
-67.6763
 20
2.89262
 11
-67.7916
 21
2.84273
  0
LINE
  8
0
 10
-67.7916
 20
2.84273
 11
-67.9098
 21
2.80016
  0
LINE
  8
0
 10
-67.9098
 20
2.80016
 11
-68.0305
 21
2.76511
  0
LINE
  8
0
 10
-68.0305
 20
2.76511
 11
-68.1531
 21
2.7377
  0
LINE
  8
0
 10
-68.1531
 20
2.7377
 11
-68.2772
 21
2.71805
  0
LINE
  8
0
 10
-68.2772
 20
2.71805
 11
-68.4023
 21
2.70622
  0
LINE
  8
0
 10
-68.4023
 20
2.70622
 11
-68.5279
 21
2.70227
  0
LINE
  8
0
 10
-68.5279
 20
2.70227
 11
-68.6534
 21
2.70622
  0
LINE
  8
0
 10
68.4023
 20
2.70622
 11
68.2772
 21
2.71805
  0
LINE
  8
0
 10
68.2772
 20
2.71805
 11
68.1531
 21
2.7377
  0
LINE
  8
0
 10
68.1531
 20
2.7377
 11
68.0305
 21
2.76511
  0
LINE
  8
0
 10
68.0305
 20
2.76511
 11
67.9098
 21
2.80016
  0
LINE
  8
0
 10
67.9098
 20
2.80016
 11
67.7916
 21
2.84273
  0
LINE
  8
0
 10
67.7916
 20
2.84273
 11
67.6763
 21
2.89262
  0
LINE
  8
0
 10
67.6763
 20
2.89262
 11
67.5643
 21
2.94966
  0
LINE
  8
0
 10
67.5643
 20
2.94966
 11
67.4562
 21
3.01363
  0
LINE
  8
0
 10
67.4562
 20
3.01363
 11
67.3523
 21
3.08424
  0
LINE
  8
0
 10
67.3523
 20
3.08424
 11
67.253
 21
3.16125
  0
LINE
  8
0
 10
67.253
 20
3.16125
 11
67.1588
 21
3.24434
  0
LINE
  8
0
 10
67.1588
 20
3.24434
 11
67.0699
 21
3.33318
  0
LINE
  8
0
 10
67.0699
 20
3.33318
 11
66.9868
 21
3.42743
  0
LINE
  8
0
 10
66.9868
 20
3.42743
 11
66.9098
 21
3.5267
  0
LINE
  8
0
 10
66.9098
 20
3.5267
 11
66.8392
 21
3.63062
  0
LINE
  8
0
 10
66.8392
 20
3.63062
 11
66.7752
 21
3.73877
  0
LINE
  8
0
 10
66.7752
 20
3.73877
 11
66.7182
 21
3.85072
  0
LINE
  8
0
 10
66.7182
 20
3.85072
 11
66.6683
 21
3.96602
  0
LINE
  8
0
 10
66.6683
 20
3.96602
 11
66.6257
 21
4.08424
  0
LINE
  8
0
 10
66.6257
 20
4.08424
 11
66.5907
 21
4.2049
  0
LINE
  8
0
 10
66.5907
 20
4.2049
 11
66.5633
 21
4.32751
  0
LINE
  8
0
 10
66.5633
 20
4.32751
 11
66.5436
 21
4.45161
  0
LINE
  8
0
 10
66.5436
 20
4.45161
 11
66.5318
 21
4.57669
  0
LINE
  8
0
 10
66.5318
 20
4.57669
 11
66.5279
 21
4.70227
  0
LINE
  8
0
 10
66.5279
 20
4.70227
 11
66.5318
 21
4.82785
  0
LINE
  8
0
 10
66.5318
 20
4.82785
 11
66.5436
 21
4.95294
  0
LINE
  8
0
 10
66.5436
 20
4.95294
 11
66.5633
 21
5.07704
  0
LINE
  8
0
 10
66.5633
 20
5.07704
 11
66.5907
 21
5.19966
  0
LINE
  8
0
 10
66.5907
 20
5.19966
 11
66.6257
 21
5.32031
  0
LINE
  8
0
 10
66.6257
 20
5.32031
 11
66.6683
 21
5.43852
  0
LINE
  8
0
 10
66.6683
 20
5.43852
 11
66.7182
 21
5.55383
  0
LINE
  8
0
 10
66.7182
 20
5.55383
 11
66.7752
 21
5.66579
  0
LINE
  8
0
 10
66.7752
 20
5.66579
 11
66.8392
 21
5.77393
  0
LINE
  8
0
 10
66.8392
 20
5.77393
 11
66.9098
 21
5.87784
  0
LINE
  8
0
 10
66.9098
 20
5.87784
 11
66.9868
 21
5.97713
  0
LINE
  8
0
 10
66.9868
 20
5.97713
 11
67.0699
 21
6.07137
  0
LINE
  8
0
 10
67.0699
 20
6.07137
 11
67.1588
 21
6.16022
  0
LINE
  8
0
 10
67.1588
 20
6.16022
 11
67.253
 21
6.2433
  0
LINE
  8
0
 10
67.253
 20
6.2433
 11
67.3523
 21
6.32031
  0
LINE
  8
0
 10
67.3523
 20
6.32031
 11
67.4562
 21
6.39093
  0
LINE
  8
0
 10
67.4562
 20
6.39093
 11
67.5643
 21
6.4549
  0
LINE
  8
0
 10
67.5643
 20
6.4549
 11
67.6763
 21
6.51193
  0
LINE
  8
0
 10
67.6763
 20
6.51193
 11
67.7916
 21
6.56183
  0
LINE
  8
0
 10
67.7916
 20
6.56183
 11
67.9098
 21
6.60439
  0
LINE
  8
0
 10
67.9098
 20
6.60439
 11
68.0305
 21
6.63943
  0
LINE
  8
0
 10
68.0305
 20
6.63943
 11
68.1531
 21
6.66685
  0
LINE
  8
0
 10
68.1531
 20
6.66685
 11
68.2772
 21
6.68651
  0
LINE
  8
0
 10
68.2772
 20
6.68651
 11
68.4023
 21
6.69833
  0
LINE
  8
0
 10
68.4023
 20
6.69833
 11
68.5279
 21
6.70227
  0
LINE
  8
0
 10
68.5279
 20
6.70227
 11
68.6534
 21
6.69833
  0
LINE
  8
0
 10
68.6534
 20
6.69833
 11
68.7785
 21
6.68651
  0
LINE
  8
0
 10
68.7785
 20
6.68651
 11
68.9026
 21
6.66685
  0
LINE
  8
0
 10
68.9026
 20
6.66685
 11
69.0252
 21
6.63943
  0
LINE
  8
0
 10
69.0252
 20
6.63943
 11
69.1459
 21
6.60439
  0
LINE
  8
0
 10
69.1459
 20
6.60439
 11
69.2641
 21
6.56183
  0
LINE
  8
0
 10
69.2641
 20
6.56183
 11
69.3794
 21
6.51193
  0
LINE
  8
0
 10
69.3794
 20
6.51193
 11
69.4914
 21
6.4549
  0
LINE
  8
0
 10
69.4914
 20
6.4549
 11
69.5995
 21
6.39093
  0
LINE
  8
0
 10
69.5995
 20
6.39093
 11
69.7034
 21
6.32031
  0
LINE
  8
0
 10
69.7034
 20
6.32031
 11
69.8027
 21
6.2433
  0
LINE
  8
0
 10
69.8027
 20
6.2433
 11
69.897
 21
6.16022
  0
LINE
  8
0
 10
69.897
 20
6.16022
 11
69.9858
 21
6.07137
  0
LINE
  8
0
 10
69.9858
 20
6.07137
 11
70.0689
 21
5.97713
  0
LINE
  8
0
 10
70.0689
 20
5.97713
 11
70.1459
 21
5.87784
  0
LINE
  8
0
 10
70.1459
 20
5.87784
 11
70.2165
 21
5.77393
  0
LINE
  8
0
 10
70.2165
 20
5.77393
 11
70.2805
 21
5.66579
  0
LINE
  8
0
 10
70.2805
 20
5.66579
 11
70.3375
 21
5.55383
  0
LINE
  8
0
 10
70.3375
 20
5.55383
 11
70.3874
 21
5.43852
  0
LINE
  8
0
 10
70.3874
 20
5.43852
 11
70.43
 21
5.32031
  0
LINE
  8
0
 10
70.43
 20
5.32031
 11
70.465
 21
5.19966
  0
LINE
  8
0
 10
70.465
 20
5.19966
 11
70.4924
 21
5.07704
  0
LINE
  8
0
 10
70.4924
 20
5.07704
 11
70.5121
 21
4.95294
  0
LINE
  8
0
 10
70.5121
 20
4.95294
 11
70.5239
 21
4.82785
  0
LINE
  8
0
 10
70.5239
 20
4.82785
 11
70.5279
 21
4.70227
  0
LINE
  8
0
 10
70.5279
 20
4.70227
 11
70.5239
 21
4.57669
  0
LINE
  8
0
 10
70.5239
 20
4.57669
 11
70.5121
 21
4.45161
  0
LINE
  8
0
 10
70.5121
 20
4.45161
 11
70.4924
 21
4.32751
  0
LINE
  8
0
 10
70.4924
 20
4.32751
 11
70.465
 21
4.2049
  0
LINE
  8
0
 10
70.465
 20
4.2049
 11
70.43
 21
4.08424
  0
LINE
  8
0
 10
70.43
 20
4.08424
 11
70.3874
 21
3.96602
  0
LINE
  8
0
 10
70.3874
 20
3.96602
 11
70.3375
 21
3.85072
  0
LINE
  8
0
 10
70.3375
 20
3.85072
 11
70.2805
 21
3.73877
  0
LINE
  8
0
 10
70.2805
 20
3.73877
 11
70.2165
 21
3.63062
  0
LINE
  8
0
 10
70.2165
 20
3.63062
 11
70.1459
 21
3.5267
  0
LINE
  8
0
 10
70.1459
 20
3.5267
 11
70.0689
 21
3.42743
  0
LINE
  8
0
 10
70.0689
 20
3.42743
 11
69.9858
 21
3.33318
  0
LINE
  8
0
 10
69.9858
 20
3.33318
 11
69.897
 21
3.24434
  0
LINE
  8
0
 10
69.897
 20
3.24434
 11
69.8027
 21
3.16125
  0
LINE
  8
0
 10
69.8027
 20
3.16125
 11
69.7034
 21
3.08424
  0
LINE
  8
0
 10
69.7034
 20
3.08424
 11
69.5995
 21
3.01363
  0
LINE
  8
0
 10
69.5995
 20
3.01363
 11
69.4914
 21
2.94966
  0
LINE
  8
0
 10
69.4914
 20
2.94966
 11
69.3794
 21
2.89262
  0
LINE
  8
0
 10
69.3794
 20
2.89262
 11
69.2641
 21
2.84273
  0
LINE
  8
0
 10
69.2641
 20
2.84273
 11
69.1459
 21
2.80016
  0
LINE
  8
0
 10
69.1459
 20
2.80016
 11
69.0252
 21
2.76511
  0
LINE
  8
0
 10
69.0252
 20
2.76511
 11
68.9026
 21
2.7377
  0
LINE
  8
0
 10
68.9026
 20
2.7377
 11
68.7785
 21
2.71805
  0
LINE
  8
0
 10
68.7785
 20
2.71805
 11
68.6534
 21
2.70622
  0
LINE
  8
0
 10
68.6534
 20
2.70622
 11
68.5279
 21
2.70227
  0
LINE
  8
0
 10
68.5279
 20
2.70227
 11
68.4023
 21
2.70622
  0
ENDSEC
  0
SECTION
  2
OBJECTS
  0
DICTIONARY
  0
ENDSEC
  0
EOF
