  0
SECTION
  2
BLOCKS
  0
ENDSEC
  0
SECTION
  2
ENTITIES
  0
LINE
  8
0
 10
0
 20
230.826
 11
-75
 21
0
  0
LINE
  8
0
 10
-75
 20
0
 11
75
 21
0
  0
LINE
  8
0
 10
75
 20
0
 11
0
 21
230.826
  0
LINE
  8
0
 10
-0.12558
 20
212.83
 11
-0.250656
 21
212.842
  0
LINE
  8
0
 10
-0.250656
 20
212.842
 11
-0.374756
 21
212.862
  0
LINE
  8
0
 10
-0.374756
 20
212.862
 11
-0.497375
 21
212.889
  0
LINE
  8
0
 10
-0.497375
 20
212.889
 11
-0.618027
 21
212.924
  0
LINE
  8
0
 10
-0.618027
 20
212.924
 11
-0.736237
 21
212.967
  0
LINE
  8
0
 10
-0.736237
 20
212.967
 11
-0.851547
 21
213.017
  0
LINE
  8
0
 10
-0.851547
 20
213.017
 11
-0.963501
 21
213.074
  0
LINE
  8
0
 10
-0.963501
 20
213.074
 11
-1.07164
 21
213.138
  0
LINE
  8
0
 10
-1.07164
 20
213.138
 11
-1.17557
 21
213.208
  0
LINE
  8
0
 10
-1.17557
 20
213.208
 11
-1.27484
 21
213.285
  0
LINE
  8
0
 10
-1.27484
 20
213.285
 11
-1.36908
 21
213.368
  0
LINE
  8
0
 10
-1.36908
 20
213.368
 11
-1.45793
 21
213.457
  0
LINE
  8
0
 10
-1.45793
 20
213.457
 11
-1.54102
 21
213.551
  0
LINE
  8
0
 10
-1.54102
 20
213.551
 11
-1.61803
 21
213.651
  0
LINE
  8
0
 10
-1.61803
 20
213.651
 11
-1.68864
 21
213.755
  0
LINE
  8
0
 10
-1.68864
 20
213.755
 11
-1.75261
 21
213.863
  0
LINE
  8
0
 10
-1.75261
 20
213.863
 11
-1.80965
 21
213.975
  0
LINE
  8
0
 10
-1.80965
 20
213.975
 11
-1.85954
 21
214.09
  0
LINE
  8
0
 10
-1.85954
 20
214.09
 11
-1.9021
 21
214.208
  0
LINE
  8
0
 10
-1.9021
 20
214.208
 11
-1.93716
 21
214.329
  0
LINE
  8
0
 10
-1.93716
 20
214.329
 11
-1.96457
 21
214.451
  0
LINE
  8
0
 10
-1.96457
 20
214.451
 11
-1.98422
 21
214.576
  0
LINE
  8
0
 10
-1.98422
 20
214.576
 11
-1.99605
 21
214.701
  0
LINE
  8
0
 10
-1.99605
 20
214.701
 11
-2
 21
214.826
  0
LINE
  8
0
 10
-2
 20
214.826
 11
-1.99605
 21
214.952
  0
LINE
  8
0
 10
-1.99605
 20
214.952
 11
-1.98422
 21
215.077
  0
LINE
  8
0
 10
-1.98422
 20
215.077
 11
-1.96457
 21
215.201
  0
LINE
  8
0
 10
-1.96457
 20
215.201
 11
-1.93716
 21
215.324
  0
LINE
  8
0
 10
-1.93716
 20
215.324
 11
-1.9021
 21
215.444
  0
LINE
  8
0
 10
-1.9021
 20
215.444
 11
-1.85954
 21
215.562
  0
LINE
  8
0
 10
-1.85954
 20
215.562
 11
-1.80965
 21
215.678
  0
LINE
  8
0
 10
-1.80965
 20
215.678
 11
-1.75261
 21
215.79
  0
LINE
  8
0
 10
-1.75261
 20
215.79
 11
-1.68864
 21
215.898
  0
LINE
  8
0
 10
-1.68864
 20
215.898
 11
-1.61803
 21
216.002
  0
LINE
  8
0
 10
-1.61803
 20
216.002
 11
-1.54102
 21
216.101
  0
LINE
  8
0
 10
-1.54102
 20
216.101
 11
-1.45793
 21
216.195
  0
LINE
  8
0
 10
-1.45793
 20
216.195
 11
-1.36908
 21
216.284
  0
LINE
  8
0
 10
-1.36908
 20
216.284
 11
-1.27484
 21
216.367
  0
LINE
  8
0
 10
-1.27484
 20
216.367
 11
-1.17557
 21
216.444
  0
LINE
  8
0
 10
-1.17557
 20
216.444
 11
-1.07164
 21
216.515
  0
LINE
  8
0
 10
-1.07164
 20
216.515
 11
-0.963501
 21
216.579
  0
LINE
  8
0
 10
-0.963501
 20
216.579
 11
-0.851547
 21
216.636
  0
LINE
  8
0
 10
-0.851547
 20
216.636
 11
-0.736237
 21
216.686
  0
LINE
  8
0
 10
-0.736237
 20
216.686
 11
-0.618027
 21
216.728
  0
LINE
  8
0
 10
-0.618027
 20
216.728
 11
-0.497375
 21
216.763
  0
LINE
  8
0
 10
-0.497375
 20
216.763
 11
-0.374756
 21
216.791
  0
LINE
  8
0
 10
-0.374756
 20
216.791
 11
-0.250656
 21
216.81
  0
LINE
  8
0
 10
-0.250656
 20
216.81
 11
-0.12558
 21
216.822
  0
LINE
  8
0
 10
-0.12558
 20
216.822
 11
0
 21
216.826
  0
LINE
  8
0
 10
0
 20
216.826
 11
0.12558
 21
216.822
  0
LINE
  8
0
 10
0.12558
 20
216.822
 11
0.250656
 21
216.81
  0
LINE
  8
0
 10
0.250656
 20
216.81
 11
0.374756
 21
216.791
  0
LINE
  8
0
 10
0.374756
 20
216.791
 11
0.497375
 21
216.763
  0
LINE
  8
0
 10
0.497375
 20
216.763
 11
0.618027
 21
216.728
  0
LINE
  8
0
 10
0.618027
 20
216.728
 11
0.736237
 21
216.686
  0
LINE
  8
0
 10
0.736237
 20
216.686
 11
0.851547
 21
216.636
  0
LINE
  8
0
 10
0.851547
 20
216.636
 11
0.963501
 21
216.579
  0
LINE
  8
0
 10
0.963501
 20
216.579
 11
1.07164
 21
216.515
  0
LINE
  8
0
 10
1.07164
 20
216.515
 11
1.17557
 21
216.444
  0
LINE
  8
0
 10
1.17557
 20
216.444
 11
1.27484
 21
216.367
  0
LINE
  8
0
 10
1.27484
 20
216.367
 11
1.36908
 21
216.284
  0
LINE
  8
0
 10
1.36908
 20
216.284
 11
1.45793
 21
216.195
  0
LINE
  8
0
 10
1.45793
 20
216.195
 11
1.54102
 21
216.101
  0
LINE
  8
0
 10
1.54102
 20
216.101
 11
1.61803
 21
216.002
  0
LINE
  8
0
 10
1.61803
 20
216.002
 11
1.68864
 21
215.898
  0
LINE
  8
0
 10
1.68864
 20
215.898
 11
1.75261
 21
215.79
  0
LINE
  8
0
 10
1.75261
 20
215.79
 11
1.80965
 21
215.678
  0
LINE
  8
0
 10
1.80965
 20
215.678
 11
1.85954
 21
215.562
  0
LINE
  8
0
 10
1.85954
 20
215.562
 11
1.9021
 21
215.444
  0
LINE
  8
0
 10
1.9021
 20
215.444
 11
1.93716
 21
215.324
  0
LINE
  8
0
 10
1.93716
 20
215.324
 11
1.96457
 21
215.201
  0
LINE
  8
0
 10
1.96457
 20
215.201
 11
1.98422
 21
215.077
  0
LINE
  8
0
 10
1.98422
 20
215.077
 11
1.99605
 21
214.952
  0
LINE
  8
0
 10
1.99605
 20
214.952
 11
2
 21
214.826
  0
LINE
  8
0
 10
2
 20
214.826
 11
1.99605
 21
214.701
  0
LINE
  8
0
 10
1.99605
 20
214.701
 11
1.98422
 21
214.576
  0
LINE
  8
0
 10
1.98422
 20
214.576
 11
1.96457
 21
214.451
  0
LINE
  8
0
 10
1.96457
 20
214.451
 11
1.93716
 21
214.329
  0
LINE
  8
0
 10
1.93716
 20
214.329
 11
1.9021
 21
214.208
  0
LINE
  8
0
 10
1.9021
 20
214.208
 11
1.85954
 21
214.09
  0
LINE
  8
0
 10
1.85954
 20
214.09
 11
1.80965
 21
213.975
  0
LINE
  8
0
 10
1.80965
 20
213.975
 11
1.75261
 21
213.863
  0
LINE
  8
0
 10
1.75261
 20
213.863
 11
1.68864
 21
213.755
  0
LINE
  8
0
 10
1.68864
 20
213.755
 11
1.61803
 21
213.651
  0
LINE
  8
0
 10
1.61803
 20
213.651
 11
1.54102
 21
213.551
  0
LINE
  8
0
 10
1.54102
 20
213.551
 11
1.45793
 21
213.457
  0
LINE
  8
0
 10
1.45793
 20
213.457
 11
1.36908
 21
213.368
  0
LINE
  8
0
 10
1.36908
 20
213.368
 11
1.27484
 21
213.285
  0
LINE
  8
0
 10
1.27484
 20
213.285
 11
1.17557
 21
213.208
  0
LINE
  8
0
 10
1.17557
 20
213.208
 11
1.07164
 21
213.138
  0
LINE
  8
0
 10
1.07164
 20
213.138
 11
0.963501
 21
213.074
  0
LINE
  8
0
 10
0.963501
 20
213.074
 11
0.851547
 21
213.017
  0
LINE
  8
0
 10
0.851547
 20
213.017
 11
0.736237
 21
212.967
  0
LINE
  8
0
 10
0.736237
 20
212.967
 11
0.618027
 21
212.924
  0
LINE
  8
0
 10
0.618027
 20
212.924
 11
0.497375
 21
212.889
  0
LINE
  8
0
 10
0.497375
 20
212.889
 11
0.374756
 21
212.862
  0
LINE
  8
0
 10
0.374756
 20
212.862
 11
0.250656
 21
212.842
  0
LINE
  8
0
 10
0.250656
 20
212.842
 11
0.12558
 21
212.83
  0
LINE
  8
0
 10
0.12558
 20
212.83
 11
0
 21
212.826
  0
LINE
  8
0
 10
0
 20
212.826
 11
-0.12558
 21
212.83
  0
LINE
  8
0
 10
-3.57207
 20
181
 11
0
 21
191.993
  0
LINE
  8
0
 10
0
 20
191.993
 11
3.57207
 21
181
  0
LINE
  8
0
 10
3.57207
 20
181
 11
-3.57207
 21
181
  0
LINE
  8
0
 10
-4.38171
 20
161
 11
-7.82977
 21
167.896
  0
LINE
  8
0
 10
-7.82977
 20
167.896
 11
-4.22176
 21
179
  0
LINE
  8
0
 10
-4.22176
 20
179
 11
4.22176
 21
179
  0
LINE
  8
0
 10
4.22176
 20
179
 11
7.82986
 21
167.896
  0
LINE
  8
0
 10
7.82986
 20
167.896
 11
4.38171
 21
161
  0
LINE
  8
0
 10
4.38171
 20
161
 11
-4.38171
 21
161
  0
LINE
  8
0
 10
6.11786
 20
160
 11
8.71049
 21
165.185
  0
LINE
  8
0
 10
8.71049
 20
165.185
 11
11.7687
 21
155.773
  0
LINE
  8
0
 10
11.7687
 20
155.773
 11
10
 21
152.236
  0
LINE
  8
0
 10
10
 20
152.236
 11
6.11786
 21
160
  0
LINE
  8
0
 10
-11.7687
 20
155.773
 11
-8.71049
 21
165.185
  0
LINE
  8
0
 10
-8.71049
 20
165.185
 11
-6.11786
 21
160
  0
LINE
  8
0
 10
-6.11786
 20
160
 11
-10
 21
152.236
  0
LINE
  8
0
 10
-10
 20
152.236
 11
-11.7687
 21
155.773
  0
LINE
  8
0
 10
-4.38171
 20
141
 11
-8.88184
 21
150
  0
LINE
  8
0
 10
-8.88184
 20
150
 11
-4.38202
 21
159
  0
LINE
  8
0
 10
-4.38202
 20
159
 11
4.38202
 21
159
  0
LINE
  8
0
 10
4.38202
 20
159
 11
8.88214
 21
150
  0
LINE
  8
0
 10
8.88214
 20
150
 11
4.38171
 21
141
  0
LINE
  8
0
 10
4.38171
 20
141
 11
-4.38171
 21
141
  0
LINE
  8
0
 10
-16.5689
 20
141
 11
-12.6493
 21
153.063
  0
LINE
  8
0
 10
-12.6493
 20
153.063
 11
-11.1179
 21
150
  0
LINE
  8
0
 10
-11.1179
 20
150
 11
-15.6183
 21
141
  0
LINE
  8
0
 10
-15.6183
 20
141
 11
-16.5689
 21
141
  0
LINE
  8
0
 10
15.6183
 20
141
 11
11.1182
 21
150
  0
LINE
  8
0
 10
11.1182
 20
150
 11
12.6494
 21
153.063
  0
LINE
  8
0
 10
12.6494
 20
153.063
 11
16.5689
 21
141
  0
LINE
  8
0
 10
16.5689
 20
141
 11
15.6183
 21
141
  0
LINE
  8
0
 10
-13.8821
 20
140
 11
-10
 21
147.764
  0
LINE
  8
0
 10
-10
 20
147.764
 11
-6.11786
 21
140
  0
LINE
  8
0
 10
-6.11786
 20
140
 11
-10
 21
132.236
  0
LINE
  8
0
 10
-10
 20
132.236
 11
-13.8821
 21
140
  0
LINE
  8
0
 10
6.11786
 20
140
 11
10
 21
147.764
  0
LINE
  8
0
 10
10
 20
147.764
 11
13.8821
 21
140
  0
LINE
  8
0
 10
13.8821
 20
140
 11
10
 21
132.236
  0
LINE
  8
0
 10
10
 20
132.236
 11
6.11786
 21
140
  0
LINE
  8
0
 10
-4.38171
 20
121
 11
-8.88184
 21
130
  0
LINE
  8
0
 10
-8.88184
 20
130
 11
-4.38202
 21
139
  0
LINE
  8
0
 10
-4.38202
 20
139
 11
4.38202
 21
139
  0
LINE
  8
0
 10
4.38202
 20
139
 11
8.88214
 21
130
  0
LINE
  8
0
 10
8.88214
 20
130
 11
4.38171
 21
121
  0
LINE
  8
0
 10
4.38171
 20
121
 11
-4.38171
 21
121
  0
LINE
  8
0
 10
-23.0672
 20
121
 11
-17.2185
 21
139
  0
LINE
  8
0
 10
-17.2185
 20
139
 11
-15.618
 21
139
  0
LINE
  8
0
 10
-15.618
 20
139
 11
-11.1179
 21
130
  0
LINE
  8
0
 10
-11.1179
 20
130
 11
-15.6183
 21
121
  0
LINE
  8
0
 10
-15.6183
 20
121
 11
-23.0672
 21
121
  0
LINE
  8
0
 10
15.6183
 20
121
 11
11.1182
 21
130
  0
LINE
  8
0
 10
11.1182
 20
130
 11
15.618
 21
139
  0
LINE
  8
0
 10
15.618
 20
139
 11
17.2185
 21
139
  0
LINE
  8
0
 10
17.2185
 20
139
 11
23.0672
 21
121
  0
LINE
  8
0
 10
23.0672
 20
121
 11
15.6183
 21
121
  0
LINE
  8
0
 10
-13.8821
 20
120
 11
-10
 21
127.764
  0
LINE
  8
0
 10
-10
 20
127.764
 11
-6.11786
 21
120
  0
LINE
  8
0
 10
-6.11786
 20
120
 11
-10
 21
112.236
  0
LINE
  8
0
 10
-10
 20
112.236
 11
-13.8821
 21
120
  0
LINE
  8
0
 10
6.11786
 20
120
 11
10
 21
127.764
  0
LINE
  8
0
 10
10
 20
127.764
 11
13.8821
 21
120
  0
LINE
  8
0
 10
13.8821
 20
120
 11
10
 21
112.236
  0
LINE
  8
0
 10
10
 20
112.236
 11
6.11786
 21
120
  0
LINE
  8
0
 10
15.6183
 20
101
 11
11.1182
 21
110
  0
LINE
  8
0
 10
11.1182
 20
110
 11
15.618
 21
119
  0
LINE
  8
0
 10
15.618
 20
119
 11
23.7169
 21
119
  0
LINE
  8
0
 10
23.7169
 20
119
 11
27.5239
 21
107.284
  0
LINE
  8
0
 10
27.5239
 20
107.284
 11
24.3817
 21
101
  0
LINE
  8
0
 10
24.3817
 20
101
 11
15.6183
 21
101
  0
LINE
  8
0
 10
-4.38171
 20
101
 11
-8.88184
 21
110
  0
LINE
  8
0
 10
-8.88184
 20
110
 11
-4.38202
 21
119
  0
LINE
  8
0
 10
-4.38202
 20
119
 11
4.38202
 21
119
  0
LINE
  8
0
 10
4.38202
 20
119
 11
8.88214
 21
110
  0
LINE
  8
0
 10
8.88214
 20
110
 11
4.38171
 21
101
  0
LINE
  8
0
 10
4.38171
 20
101
 11
-4.38171
 21
101
  0
LINE
  8
0
 10
-24.3817
 20
101
 11
-27.5238
 21
107.284
  0
LINE
  8
0
 10
-27.5238
 20
107.284
 11
-23.7169
 21
119
  0
LINE
  8
0
 10
-23.7169
 20
119
 11
-15.618
 21
119
  0
LINE
  8
0
 10
-15.618
 20
119
 11
-11.1179
 21
110
  0
LINE
  8
0
 10
-11.1179
 20
110
 11
-15.6183
 21
101
  0
LINE
  8
0
 10
-15.6183
 20
101
 11
-24.3817
 21
101
  0
LINE
  8
0
 10
-13.8821
 20
100
 11
-10
 21
107.764
  0
LINE
  8
0
 10
-10
 20
107.764
 11
-6.11786
 21
100
  0
LINE
  8
0
 10
-6.11786
 20
100
 11
-10
 21
92.2357
  0
LINE
  8
0
 10
-10
 20
92.2357
 11
-13.8821
 21
100
  0
LINE
  8
0
 10
6.11786
 20
100
 11
10
 21
107.764
  0
LINE
  8
0
 10
10
 20
107.764
 11
13.8821
 21
100
  0
LINE
  8
0
 10
13.8821
 20
100
 11
10
 21
92.2357
  0
LINE
  8
0
 10
10
 20
92.2357
 11
6.11786
 21
100
  0
LINE
  8
0
 10
-31.4627
 20
95.1611
 11
-28.4045
 21
104.573
  0
LINE
  8
0
 10
-28.4045
 20
104.573
 11
-26.1179
 21
100
  0
LINE
  8
0
 10
-26.1179
 20
100
 11
-30
 21
92.2357
  0
LINE
  8
0
 10
-30
 20
92.2357
 11
-31.4627
 21
95.1611
  0
LINE
  8
0
 10
26.1179
 20
100
 11
28.4045
 21
104.573
  0
LINE
  8
0
 10
28.4045
 20
104.573
 11
31.4627
 21
95.1611
  0
LINE
  8
0
 10
31.4627
 20
95.1611
 11
30
 21
92.2357
  0
LINE
  8
0
 10
30
 20
92.2357
 11
26.1179
 21
100
  0
LINE
  8
0
 10
-4.38171
 20
80.9998
 11
-8.88184
 21
90
  0
LINE
  8
0
 10
-8.88184
 20
90
 11
-4.38202
 21
99.0002
  0
LINE
  8
0
 10
-4.38202
 20
99.0002
 11
4.38202
 21
99.0002
  0
LINE
  8
0
 10
4.38202
 20
99.0002
 11
8.88214
 21
90
  0
LINE
  8
0
 10
8.88214
 20
90
 11
4.38171
 21
80.9998
  0
LINE
  8
0
 10
4.38171
 20
80.9998
 11
-4.38171
 21
80.9998
  0
LINE
  8
0
 10
-24.3817
 20
80.9998
 11
-28.8818
 21
90
  0
LINE
  8
0
 10
-28.8818
 20
90
 11
-24.382
 21
99.0002
  0
LINE
  8
0
 10
-24.382
 20
99.0002
 11
-15.618
 21
99.0002
  0
LINE
  8
0
 10
-15.618
 20
99.0002
 11
-11.1179
 21
90
  0
LINE
  8
0
 10
-11.1179
 20
90
 11
-15.6183
 21
80.9998
  0
LINE
  8
0
 10
-15.6183
 20
80.9998
 11
-24.3817
 21
80.9998
  0
LINE
  8
0
 10
15.6183
 20
80.9998
 11
11.1182
 21
90
  0
LINE
  8
0
 10
11.1182
 20
90
 11
15.618
 21
99.0002
  0
LINE
  8
0
 10
15.618
 20
99.0002
 11
24.382
 21
99.0002
  0
LINE
  8
0
 10
24.382
 20
99.0002
 11
28.8821
 21
90
  0
LINE
  8
0
 10
28.8821
 20
90
 11
24.3817
 21
80.9998
  0
LINE
  8
0
 10
24.3817
 20
80.9998
 11
15.6183
 21
80.9998
  0
LINE
  8
0
 10
-36.064
 20
80.9998
 11
-32.3433
 21
92.4509
  0
LINE
  8
0
 10
-32.3433
 20
92.4509
 11
-31.1179
 21
90
  0
LINE
  8
0
 10
-31.1179
 20
90
 11
-35.6183
 21
80.9998
  0
LINE
  8
0
 10
-35.6183
 20
80.9998
 11
-36.064
 21
80.9998
  0
LINE
  8
0
 10
35.6183
 20
80.9998
 11
31.1182
 21
90
  0
LINE
  8
0
 10
31.1182
 20
90
 11
32.3434
 21
92.4507
  0
LINE
  8
0
 10
32.3434
 20
92.4507
 11
36.064
 21
80.9998
  0
LINE
  8
0
 10
36.064
 20
80.9998
 11
35.6183
 21
80.9998
  0
LINE
  8
0
 10
6.11786
 20
80
 11
10
 21
87.7643
  0
LINE
  8
0
 10
10
 20
87.7643
 11
13.8821
 21
80
  0
LINE
  8
0
 10
13.8821
 20
80
 11
10
 21
72.2357
  0
LINE
  8
0
 10
10
 20
72.2357
 11
6.11786
 21
80
  0
LINE
  8
0
 10
26.1179
 20
80
 11
30
 21
87.7643
  0
LINE
  8
0
 10
30
 20
87.7643
 11
33.8821
 21
80
  0
LINE
  8
0
 10
33.8821
 20
80
 11
30
 21
72.2357
  0
LINE
  8
0
 10
30
 20
72.2357
 11
26.1179
 21
80
  0
LINE
  8
0
 10
-33.8821
 20
80
 11
-30
 21
87.7643
  0
LINE
  8
0
 10
-30
 20
87.7643
 11
-26.1179
 21
80
  0
LINE
  8
0
 10
-26.1179
 20
80
 11
-30
 21
72.2357
  0
LINE
  8
0
 10
-30
 20
72.2357
 11
-33.8821
 21
80
  0
LINE
  8
0
 10
-13.8821
 20
80
 11
-10
 21
87.7643
  0
LINE
  8
0
 10
-10
 20
87.7643
 11
-6.11786
 21
80
  0
LINE
  8
0
 10
-6.11786
 20
80
 11
-10
 21
72.2357
  0
LINE
  8
0
 10
-10
 20
72.2357
 11
-13.8821
 21
80
  0
LINE
  8
0
 10
-4.38171
 20
60.9998
 11
-8.88184
 21
70
  0
LINE
  8
0
 10
-8.88184
 20
70
 11
-4.38202
 21
79.0002
  0
LINE
  8
0
 10
-4.38202
 20
79.0002
 11
4.38202
 21
79.0002
  0
LINE
  8
0
 10
4.38202
 20
79.0002
 11
8.88214
 21
70
  0
LINE
  8
0
 10
8.88214
 20
70
 11
4.38171
 21
60.9998
  0
LINE
  8
0
 10
4.38171
 20
60.9998
 11
-4.38171
 21
60.9998
  0
LINE
  8
0
 10
-24.3817
 20
60.9998
 11
-28.8818
 21
70
  0
LINE
  8
0
 10
-28.8818
 20
70
 11
-24.382
 21
79.0002
  0
LINE
  8
0
 10
-24.382
 20
79.0002
 11
-15.618
 21
79.0002
  0
LINE
  8
0
 10
-15.618
 20
79.0002
 11
-11.1179
 21
70
  0
LINE
  8
0
 10
-11.1179
 20
70
 11
-15.6183
 21
60.9998
  0
LINE
  8
0
 10
-15.6183
 20
60.9998
 11
-24.3817
 21
60.9998
  0
LINE
  8
0
 10
15.6183
 20
60.9998
 11
11.1182
 21
70
  0
LINE
  8
0
 10
11.1182
 20
70
 11
15.618
 21
79.0002
  0
LINE
  8
0
 10
15.618
 20
79.0002
 11
24.382
 21
79.0002
  0
LINE
  8
0
 10
24.382
 20
79.0002
 11
28.8821
 21
70
  0
LINE
  8
0
 10
28.8821
 20
70
 11
24.3817
 21
60.9998
  0
LINE
  8
0
 10
24.3817
 20
60.9998
 11
15.6183
 21
60.9998
  0
LINE
  8
0
 10
35.6183
 20
60.9998
 11
31.1182
 21
70
  0
LINE
  8
0
 10
31.1182
 20
70
 11
35.618
 21
79.0002
  0
LINE
  8
0
 10
35.618
 20
79.0002
 11
36.7137
 21
79.0002
  0
LINE
  8
0
 10
36.7137
 20
79.0002
 11
42.5624
 21
60.9998
  0
LINE
  8
0
 10
42.5624
 20
60.9998
 11
35.6183
 21
60.9998
  0
LINE
  8
0
 10
-42.5624
 20
60.9998
 11
-36.7137
 21
79.0002
  0
LINE
  8
0
 10
-36.7137
 20
79.0002
 11
-35.618
 21
79.0002
  0
LINE
  8
0
 10
-35.618
 20
79.0002
 11
-31.1179
 21
70
  0
LINE
  8
0
 10
-31.1179
 20
70
 11
-35.6183
 21
60.9998
  0
LINE
  8
0
 10
-35.6183
 20
60.9998
 11
-42.5624
 21
60.9998
  0
LINE
  8
0
 10
-33.8821
 20
60
 11
-30
 21
67.7643
  0
LINE
  8
0
 10
-30
 20
67.7643
 11
-26.1179
 21
60
  0
LINE
  8
0
 10
-26.1179
 20
60
 11
-30
 21
52.2357
  0
LINE
  8
0
 10
-30
 20
52.2357
 11
-33.8821
 21
60
  0
LINE
  8
0
 10
26.1179
 20
60
 11
30
 21
67.7643
  0
LINE
  8
0
 10
30
 20
67.7643
 11
33.8821
 21
60
  0
LINE
  8
0
 10
33.8821
 20
60
 11
30
 21
52.2357
  0
LINE
  8
0
 10
30
 20
52.2357
 11
26.1179
 21
60
  0
LINE
  8
0
 10
-13.8821
 20
60
 11
-10
 21
67.7643
  0
LINE
  8
0
 10
-10
 20
67.7643
 11
-6.11786
 21
60
  0
LINE
  8
0
 10
-6.11786
 20
60
 11
-10
 21
52.2357
  0
LINE
  8
0
 10
-10
 20
52.2357
 11
-13.8821
 21
60
  0
LINE
  8
0
 10
6.11786
 20
60
 11
10
 21
67.7643
  0
LINE
  8
0
 10
10
 20
67.7643
 11
13.8821
 21
60
  0
LINE
  8
0
 10
13.8821
 20
60
 11
10
 21
52.2357
  0
LINE
  8
0
 10
10
 20
52.2357
 11
6.11786
 21
60
  0
LINE
  8
0
 10
-4.38171
 20
40.9998
 11
-8.88184
 21
50
  0
LINE
  8
0
 10
-8.88184
 20
50
 11
-4.38202
 21
59.0002
  0
LINE
  8
0
 10
-4.38202
 20
59.0002
 11
4.38202
 21
59.0002
  0
LINE
  8
0
 10
4.38202
 20
59.0002
 11
8.88214
 21
50
  0
LINE
  8
0
 10
8.88214
 20
50
 11
4.38171
 21
40.9998
  0
LINE
  8
0
 10
4.38171
 20
40.9998
 11
-4.38171
 21
40.9998
  0
LINE
  8
0
 10
-44.3817
 20
40.9998
 11
-47.2178
 21
46.672
  0
LINE
  8
0
 10
-47.2178
 20
46.672
 11
-43.2121
 21
59.0002
  0
LINE
  8
0
 10
-43.2121
 20
59.0002
 11
-35.618
 21
59.0002
  0
LINE
  8
0
 10
-35.618
 20
59.0002
 11
-31.1179
 21
50
  0
LINE
  8
0
 10
-31.1179
 20
50
 11
-35.6183
 21
40.9998
  0
LINE
  8
0
 10
-35.6183
 20
40.9998
 11
-44.3817
 21
40.9998
  0
LINE
  8
0
 10
35.6183
 20
40.9998
 11
31.1182
 21
50
  0
LINE
  8
0
 10
31.1182
 20
50
 11
35.618
 21
59.0002
  0
LINE
  8
0
 10
35.618
 20
59.0002
 11
43.2121
 21
59.0002
  0
LINE
  8
0
 10
43.2121
 20
59.0002
 11
47.2179
 21
46.6717
  0
LINE
  8
0
 10
47.2179
 20
46.6717
 11
44.3817
 21
40.9998
  0
LINE
  8
0
 10
44.3817
 20
40.9998
 11
35.6183
 21
40.9998
  0
LINE
  8
0
 10
15.6183
 20
40.9998
 11
11.1182
 21
50
  0
LINE
  8
0
 10
11.1182
 20
50
 11
15.618
 21
59.0002
  0
LINE
  8
0
 10
15.618
 20
59.0002
 11
24.382
 21
59.0002
  0
LINE
  8
0
 10
24.382
 20
59.0002
 11
28.8821
 21
50
  0
LINE
  8
0
 10
28.8821
 20
50
 11
24.3817
 21
40.9998
  0
LINE
  8
0
 10
24.3817
 20
40.9998
 11
15.6183
 21
40.9998
  0
LINE
  8
0
 10
-24.3817
 20
40.9998
 11
-28.8818
 21
50
  0
LINE
  8
0
 10
-28.8818
 20
50
 11
-24.382
 21
59.0002
  0
LINE
  8
0
 10
-24.382
 20
59.0002
 11
-15.618
 21
59.0002
  0
LINE
  8
0
 10
-15.618
 20
59.0002
 11
-11.1179
 21
50
  0
LINE
  8
0
 10
-11.1179
 20
50
 11
-15.6183
 21
40.9998
  0
LINE
  8
0
 10
-15.6183
 20
40.9998
 11
-24.3817
 21
40.9998
  0
LINE
  8
0
 10
-13.8821
 20
40
 11
-10
 21
47.7643
  0
LINE
  8
0
 10
-10
 20
47.7643
 11
-6.11786
 21
40
  0
LINE
  8
0
 10
-6.11786
 20
40
 11
-10
 21
32.2357
  0
LINE
  8
0
 10
-10
 20
32.2357
 11
-13.8821
 21
40
  0
LINE
  8
0
 10
-33.8821
 20
40
 11
-30
 21
47.7643
  0
LINE
  8
0
 10
-30
 20
47.7643
 11
-26.1179
 21
40
  0
LINE
  8
0
 10
-26.1179
 20
40
 11
-30
 21
32.2357
  0
LINE
  8
0
 10
-30
 20
32.2357
 11
-33.8821
 21
40
  0
LINE
  8
0
 10
6.11786
 20
40
 11
10
 21
47.7643
  0
LINE
  8
0
 10
10
 20
47.7643
 11
13.8821
 21
40
  0
LINE
  8
0
 10
13.8821
 20
40
 11
10
 21
32.2357
  0
LINE
  8
0
 10
10
 20
32.2357
 11
6.11786
 21
40
  0
LINE
  8
0
 10
26.1179
 20
40
 11
30
 21
47.7643
  0
LINE
  8
0
 10
30
 20
47.7643
 11
33.8821
 21
40
  0
LINE
  8
0
 10
33.8821
 20
40
 11
30
 21
32.2357
  0
LINE
  8
0
 10
30
 20
32.2357
 11
26.1179
 21
40
  0
LINE
  8
0
 10
46.1179
 20
40
 11
48.0985
 21
43.9614
  0
LINE
  8
0
 10
48.0985
 20
43.9614
 11
51.1567
 21
34.5492
  0
LINE
  8
0
 10
51.1567
 20
34.5492
 11
50
 21
32.2357
  0
LINE
  8
0
 10
50
 20
32.2357
 11
46.1179
 21
40
  0
LINE
  8
0
 10
-51.1567
 20
34.5492
 11
-48.0985
 21
43.9614
  0
LINE
  8
0
 10
-48.0985
 20
43.9614
 11
-46.1179
 21
40
  0
LINE
  8
0
 10
-46.1179
 20
40
 11
-50
 21
32.2357
  0
LINE
  8
0
 10
-50
 20
32.2357
 11
-51.1567
 21
34.5492
  0
LINE
  8
0
 10
35.6183
 20
20.9998
 11
31.1182
 21
30
  0
LINE
  8
0
 10
31.1182
 20
30
 11
35.618
 21
39.0002
  0
LINE
  8
0
 10
35.618
 20
39.0002
 11
44.382
 21
39.0002
  0
LINE
  8
0
 10
44.382
 20
39.0002
 11
48.8821
 21
30
  0
LINE
  8
0
 10
48.8821
 20
30
 11
44.3817
 21
20.9998
  0
LINE
  8
0
 10
44.3817
 20
20.9998
 11
35.6183
 21
20.9998
  0
LINE
  8
0
 10
-44.3817
 20
20.9998
 11
-48.8818
 21
30
  0
LINE
  8
0
 10
-48.8818
 20
30
 11
-44.382
 21
39.0002
  0
LINE
  8
0
 10
-44.382
 20
39.0002
 11
-35.618
 21
39.0002
  0
LINE
  8
0
 10
-35.618
 20
39.0002
 11
-31.1179
 21
30
  0
LINE
  8
0
 10
-31.1179
 20
30
 11
-35.6183
 21
20.9998
  0
LINE
  8
0
 10
-35.6183
 20
20.9998
 11
-44.3817
 21
20.9998
  0
LINE
  8
0
 10
15.6183
 20
20.9998
 11
11.1182
 21
30
  0
LINE
  8
0
 10
11.1182
 20
30
 11
15.618
 21
39.0002
  0
LINE
  8
0
 10
15.618
 20
39.0002
 11
24.382
 21
39.0002
  0
LINE
  8
0
 10
24.382
 20
39.0002
 11
28.8821
 21
30
  0
LINE
  8
0
 10
28.8821
 20
30
 11
24.3817
 21
20.9998
  0
LINE
  8
0
 10
24.3817
 20
20.9998
 11
15.6183
 21
20.9998
  0
LINE
  8
0
 10
-24.3817
 20
20.9998
 11
-28.8818
 21
30
  0
LINE
  8
0
 10
-28.8818
 20
30
 11
-24.382
 21
39.0002
  0
LINE
  8
0
 10
-24.382
 20
39.0002
 11
-15.618
 21
39.0002
  0
LINE
  8
0
 10
-15.618
 20
39.0002
 11
-11.1179
 21
30
  0
LINE
  8
0
 10
-11.1179
 20
30
 11
-15.6183
 21
20.9998
  0
LINE
  8
0
 10
-15.6183
 20
20.9998
 11
-24.3817
 21
20.9998
  0
LINE
  8
0
 10
-4.38171
 20
20.9998
 11
-8.88184
 21
30
  0
LINE
  8
0
 10
-8.88184
 20
30
 11
-4.38202
 21
39.0002
  0
LINE
  8
0
 10
-4.38202
 20
39.0002
 11
4.38202
 21
39.0002
  0
LINE
  8
0
 10
4.38202
 20
39.0002
 11
8.88214
 21
30
  0
LINE
  8
0
 10
8.88214
 20
30
 11
4.38171
 21
20.9998
  0
LINE
  8
0
 10
4.38171
 20
20.9998
 11
-4.38171
 21
20.9998
  0
LINE
  8
0
 10
-52.0373
 20
31.839
 11
-51.1179
 21
30
  0
LINE
  8
0
 10
-51.1179
 20
30
 11
-55.4496
 21
21.3371
  0
LINE
  8
0
 10
-55.4496
 20
21.3371
 11
-52.0373
 21
31.839
  0
LINE
  8
0
 10
51.1182
 20
30
 11
52.0374
 21
31.8387
  0
LINE
  8
0
 10
52.0374
 20
31.8387
 11
55.4496
 21
21.3371
  0
LINE
  8
0
 10
55.4496
 20
21.3371
 11
51.1182
 21
30
  0
LINE
  8
0
 10
-13.8821
 20
20
 11
-10
 21
27.7643
  0
LINE
  8
0
 10
-10
 20
27.7643
 11
-6.11786
 21
20
  0
LINE
  8
0
 10
-6.11786
 20
20
 11
-10
 21
12.2357
  0
LINE
  8
0
 10
-10
 20
12.2357
 11
-13.8821
 21
20
  0
LINE
  8
0
 10
-53.8821
 20
20
 11
-50
 21
27.7643
  0
LINE
  8
0
 10
-50
 20
27.7643
 11
-46.1179
 21
20
  0
LINE
  8
0
 10
-46.1179
 20
20
 11
-50
 21
12.2357
  0
LINE
  8
0
 10
-50
 20
12.2357
 11
-53.8821
 21
20
  0
LINE
  8
0
 10
46.1179
 20
20
 11
50
 21
27.7643
  0
LINE
  8
0
 10
50
 20
27.7643
 11
53.8821
 21
20
  0
LINE
  8
0
 10
53.8821
 20
20
 11
50
 21
12.2357
  0
LINE
  8
0
 10
50
 20
12.2357
 11
46.1179
 21
20
  0
LINE
  8
0
 10
26.1179
 20
20
 11
30
 21
27.7643
  0
LINE
  8
0
 10
30
 20
27.7643
 11
33.8821
 21
20
  0
LINE
  8
0
 10
33.8821
 20
20
 11
30
 21
12.2357
  0
LINE
  8
0
 10
30
 20
12.2357
 11
26.1179
 21
20
  0
LINE
  8
0
 10
6.11786
 20
20
 11
10
 21
27.7643
  0
LINE
  8
0
 10
10
 20
27.7643
 11
13.8821
 21
20
  0
LINE
  8
0
 10
13.8821
 20
20
 11
10
 21
12.2357
  0
LINE
  8
0
 10
10
 20
12.2357
 11
6.11786
 21
20
  0
LINE
  8
0
 10
-33.8821
 20
20
 11
-30
 21
27.7643
  0
LINE
  8
0
 10
-30
 20
27.7643
 11
-26.1179
 21
20
  0
LINE
  8
0
 10
-26.1179
 20
20
 11
-30
 21
12.2357
  0
LINE
  8
0
 10
-30
 20
12.2357
 11
-33.8821
 21
20
  0
LINE
  8
0
 10
52.1181
 20
12
 11
55.618
 21
19.0002
  0
LINE
  8
0
 10
55.618
 20
19.0002
 11
56.2089
 21
19.0002
  0
LINE
  8
0
 10
56.2089
 20
19.0002
 11
58.4834
 21
12
  0
LINE
  8
0
 10
58.4834
 20
12
 11
52.1181
 21
12
  0
LINE
  8
0
 10
-7.8819
 20
12
 11
-4.38202
 21
19.0002
  0
LINE
  8
0
 10
-4.38202
 20
19.0002
 11
4.38202
 21
19.0002
  0
LINE
  8
0
 10
4.38202
 20
19.0002
 11
7.88214
 21
12
  0
LINE
  8
0
 10
7.88214
 20
12
 11
-7.8819
 21
12
  0
LINE
  8
0
 10
-27.8819
 20
12
 11
-24.382
 21
19.0002
  0
LINE
  8
0
 10
-24.382
 20
19.0002
 11
-15.618
 21
19.0002
  0
LINE
  8
0
 10
-15.618
 20
19.0002
 11
-12.1179
 21
12
  0
LINE
  8
0
 10
-12.1179
 20
12
 11
-27.8819
 21
12
  0
LINE
  8
0
 10
12.1181
 20
12
 11
15.618
 21
19.0002
  0
LINE
  8
0
 10
15.618
 20
19.0002
 11
24.382
 21
19.0002
  0
LINE
  8
0
 10
24.382
 20
19.0002
 11
27.8821
 21
12
  0
LINE
  8
0
 10
27.8821
 20
12
 11
12.1181
 21
12
  0
LINE
  8
0
 10
-47.8819
 20
12
 11
-44.382
 21
19.0002
  0
LINE
  8
0
 10
-44.382
 20
19.0002
 11
-35.618
 21
19.0002
  0
LINE
  8
0
 10
-35.618
 20
19.0002
 11
-32.1179
 21
12
  0
LINE
  8
0
 10
-32.1179
 20
12
 11
-47.8819
 21
12
  0
LINE
  8
0
 10
32.1181
 20
12
 11
35.618
 21
19.0002
  0
LINE
  8
0
 10
35.618
 20
19.0002
 11
44.382
 21
19.0002
  0
LINE
  8
0
 10
44.382
 20
19.0002
 11
47.8821
 21
12
  0
LINE
  8
0
 10
47.8821
 20
12
 11
32.1181
 21
12
  0
LINE
  8
0
 10
-58.4834
 20
12
 11
-56.2089
 21
19.0002
  0
LINE
  8
0
 10
-56.2089
 20
19.0002
 11
-55.618
 21
19.0002
  0
LINE
  8
0
 10
-55.618
 20
19.0002
 11
-52.1179
 21
12
  0
LINE
  8
0
 10
-52.1179
 20
12
 11
-58.4834
 21
12
  0
LINE
  8
0
 10
-10
 20
7
 11
-10
 21
11
  0
LINE
  8
0
 10
-10
 20
11
 11
10
 21
11
  0
LINE
  8
0
 10
10
 20
11
 11
10
 21
7
  0
LINE
  8
0
 10
10
 20
7
 11
-10
 21
7
  0
LINE
  8
0
 10
-68.6534
 20
2.70622
 11
-68.7785
 21
2.71805
  0
LINE
  8
0
 10
-68.7785
 20
2.71805
 11
-68.9026
 21
2.7377
  0
LINE
  8
0
 10
-68.9026
 20
2.7377
 11
-69.0252
 21
2.76511
  0
LINE
  8
0
 10
-69.0252
 20
2.76511
 11
-69.1459
 21
2.80016
  0
LINE
  8
0
 10
-69.1459
 20
2.80016
 11
-69.2641
 21
2.84273
  0
LINE
  8
0
 10
-69.2641
 20
2.84273
 11
-69.3794
 21
2.89262
  0
LINE
  8
0
 10
-69.3794
 20
2.89262
 11
-69.4914
 21
2.94966
  0
LINE
  8
0
 10
-69.4914
 20
2.94966
 11
-69.5995
 21
3.01363
  0
LINE
  8
0
 10
-69.5995
 20
3.01363
 11
-69.7034
 21
3.08424
  0
LINE
  8
0
 10
-69.7034
 20
3.08424
 11
-69.8027
 21
3.16125
  0
LINE
  8
0
 10
-69.8027
 20
3.16125
 11
-69.897
 21
3.24434
  0
LINE
  8
0
 10
-69.897
 20
3.24434
 11
-69.9858
 21
3.33318
  0
LINE
  8
0
 10
-69.9858
 20
3.33318
 11
-70.0689
 21
3.42743
  0
LINE
  8
0
 10
-70.0689
 20
3.42743
 11
-70.1459
 21
3.5267
  0
LINE
  8
0
 10
-70.1459
 20
3.5267
 11
-70.2165
 21
3.63062
  0
LINE
  8
0
 10
-70.2165
 20
3.63062
 11
-70.2805
 21
3.73877
  0
LINE
  8
0
 10
-70.2805
 20
3.73877
 11
-70.3375
 21
3.85072
  0
LINE
  8
0
 10
-70.3375
 20
3.85072
 11
-70.3874
 21
3.96602
  0
LINE
  8
0
 10
-70.3874
 20
3.96602
 11
-70.43
 21
4.08424
  0
LINE
  8
0
 10
-70.43
 20
4.08424
 11
-70.465
 21
4.2049
  0
LINE
  8
0
 10
-70.465
 20
4.2049
 11
-70.4924
 21
4.32751
  0
LINE
  8
0
 10
-70.4924
 20
4.32751
 11
-70.5121
 21
4.45161
  0
LINE
  8
0
 10
-70.5121
 20
4.45161
 11
-70.5239
 21
4.57669
  0
LINE
  8
0
 10
-70.5239
 20
4.57669
 11
-70.5279
 21
4.70227
  0
LINE
  8
0
 10
-70.5279
 20
4.70227
 11
-70.5239
 21
4.82785
  0
LINE
  8
0
 10
-70.5239
 20
4.82785
 11
-70.5121
 21
4.95294
  0
LINE
  8
0
 10
-70.5121
 20
4.95294
 11
-70.4924
 21
5.07704
  0
LINE
  8
0
 10
-70.4924
 20
5.07704
 11
-70.465
 21
5.19966
  0
LINE
  8
0
 10
-70.465
 20
5.19966
 11
-70.43
 21
5.32031
  0
LINE
  8
0
 10
-70.43
 20
5.32031
 11
-70.3874
 21
5.43852
  0
LINE
  8
0
 10
-70.3874
 20
5.43852
 11
-70.3375
 21
5.55383
  0
LINE
  8
0
 10
-70.3375
 20
5.55383
 11
-70.2805
 21
5.66579
  0
LINE
  8
0
 10
-70.2805
 20
5.66579
 11
-70.2165
 21
5.77393
  0
LINE
  8
0
 10
-70.2165
 20
5.77393
 11
-70.1459
 21
5.87784
  0
LINE
  8
0
 10
-70.1459
 20
5.87784
 11
-70.0689
 21
5.97713
  0
LINE
  8
0
 10
-70.0689
 20
5.97713
 11
-69.9858
 21
6.07137
  0
LINE
  8
0
 10
-69.9858
 20
6.07137
 11
-69.897
 21
6.16022
  0
LINE
  8
0
 10
-69.897
 20
6.16022
 11
-69.8027
 21
6.2433
  0
LINE
  8
0
 10
-69.8027
 20
6.2433
 11
-69.7034
 21
6.32031
  0
LINE
  8
0
 10
-69.7034
 20
6.32031
 11
-69.5995
 21
6.39093
  0
LINE
  8
0
 10
-69.5995
 20
6.39093
 11
-69.4914
 21
6.4549
  0
LINE
  8
0
 10
-69.4914
 20
6.4549
 11
-69.3794
 21
6.51193
  0
LINE
  8
0
 10
-69.3794
 20
6.51193
 11
-69.2641
 21
6.56183
  0
LINE
  8
0
 10
-69.2641
 20
6.56183
 11
-69.1459
 21
6.60439
  0
LINE
  8
0
 10
-69.1459
 20
6.60439
 11
-69.0252
 21
6.63943
  0
LINE
  8
0
 10
-69.0252
 20
6.63943
 11
-68.9026
 21
6.66685
  0
LINE
  8
0
 10
-68.9026
 20
6.66685
 11
-68.7785
 21
6.68651
  0
LINE
  8
0
 10
-68.7785
 20
6.68651
 11
-68.6534
 21
6.69833
  0
LINE
  8
0
 10
-68.6534
 20
6.69833
 11
-68.5279
 21
6.70227
  0
LINE
  8
0
 10
-68.5279
 20
6.70227
 11
-68.4023
 21
6.69833
  0
LINE
  8
0
 10
-68.4023
 20
6.69833
 11
-68.2772
 21
6.68651
  0
LINE
  8
0
 10
-68.2772
 20
6.68651
 11
-68.1531
 21
6.66685
  0
LINE
  8
0
 10
-68.1531
 20
6.66685
 11
-68.0305
 21
6.63943
  0
LINE
  8
0
 10
-68.0305
 20
6.63943
 11
-67.9098
 21
6.60439
  0
LINE
  8
0
 10
-67.9098
 20
6.60439
 11
-67.7916
 21
6.56183
  0
LINE
  8
0
 10
-67.7916
 20
6.56183
 11
-67.6763
 21
6.51193
  0
LINE
  8
0
 10
-67.6763
 20
6.51193
 11
-67.5643
 21
6.4549
  0
LINE
  8
0
 10
-67.5643
 20
6.4549
 11
-67.4562
 21
6.39093
  0
LINE
  8
0
 10
-67.4562
 20
6.39093
 11
-67.3523
 21
6.32031
  0
LINE
  8
0
 10
-67.3523
 20
6.32031
 11
-67.253
 21
6.2433
  0
LINE
  8
0
 10
-67.253
 20
6.2433
 11
-67.1588
 21
6.16022
  0
LINE
  8
0
 10
-67.1588
 20
6.16022
 11
-67.0699
 21
6.07137
  0
LINE
  8
0
 10
-67.0699
 20
6.07137
 11
-66.9868
 21
5.97713
  0
LINE
  8
0
 10
-66.9868
 20
5.97713
 11
-66.9098
 21
5.87784
  0
LINE
  8
0
 10
-66.9098
 20
5.87784
 11
-66.8392
 21
5.77393
  0
LINE
  8
0
 10
-66.8392
 20
5.77393
 11
-66.7752
 21
5.66579
  0
LINE
  8
0
 10
-66.7752
 20
5.66579
 11
-66.7182
 21
5.55383
  0
LINE
  8
0
 10
-66.7182
 20
5.55383
 11
-66.6683
 21
5.43852
  0
LINE
  8
0
 10
-66.6683
 20
5.43852
 11
-66.6257
 21
5.32031
  0
LINE
  8
0
 10
-66.6257
 20
5.32031
 11
-66.5907
 21
5.19966
  0
LINE
  8
0
 10
-66.5907
 20
5.19966
 11
-66.5633
 21
5.07704
  0
LINE
  8
0
 10
-66.5633
 20
5.07704
 11
-66.5436
 21
4.95294
  0
LINE
  8
0
 10
-66.5436
 20
4.95294
 11
-66.5318
 21
4.82785
  0
LINE
  8
0
 10
-66.5318
 20
4.82785
 11
-66.5279
 21
4.70227
  0
LINE
  8
0
 10
-66.5279
 20
4.70227
 11
-66.5318
 21
4.57669
  0
LINE
  8
0
 10
-66.5318
 20
4.57669
 11
-66.5436
 21
4.45161
  0
LINE
  8
0
 10
-66.5436
 20
4.45161
 11
-66.5633
 21
4.32751
  0
LINE
  8
0
 10
-66.5633
 20
4.32751
 11
-66.5907
 21
4.2049
  0
LINE
  8
0
 10
-66.5907
 20
4.2049
 11
-66.6257
 21
4.08424
  0
LINE
  8
0
 10
-66.6257
 20
4.08424
 11
-66.6683
 21
3.96602
  0
LINE
  8
0
 10
-66.6683
 20
3.96602
 11
-66.7182
 21
3.85072
  0
LINE
  8
0
 10
-66.7182
 20
3.85072
 11
-66.7752
 21
3.73877
  0
LINE
  8
0
 10
-66.7752
 20
3.73877
 11
-66.8392
 21
3.63062
  0
LINE
  8
0
 10
-66.8392
 20
3.63062
 11
-66.9098
 21
3.5267
  0
LINE
  8
0
 10
-66.9098
 20
3.5267
 11
-66.9868
 21
3.42743
  0
LINE
  8
0
 10
-66.9868
 20
3.42743
 11
-67.0699
 21
3.33318
  0
LINE
  8
0
 10
-67.0699
 20
3.33318
 11
-67.1588
 21
3.24434
  0
LINE
  8
0
 10
-67.1588
 20
3.24434
 11
-67.253
 21
3.16125
  0
LINE
  8
0
 10
-67.253
 20
3.16125
 11
-67.3523
 21
3.08424
  0
LINE
  8
0
 10
-67.3523
 20
3.08424
 11
-67.4562
 21
3.01363
  0
LINE
  8
0
 10
-67.4562
 20
3.01363
 11
-67.5643
 21
2.94966
  0
LINE
  8
0
 10
-67.5643
 20
2.94966
 11
-67.6763
 21
2.89262
  0
LINE
  8
0
 10
-67.6763
 20
2.89262
 11
-67.7916
 21
2.84273
  0
LINE
  8
0
 10
-67.7916
 20
2.84273
 11
-67.9098
 21
2.80016
  0
LINE
  8
0
 10
-67.9098
 20
2.80016
 11
-68.0305
 21
2.76511
  0
LINE
  8
0
 10
-68.0305
 20
2.76511
 11
-68.1531
 21
2.7377
  0
LINE
  8
0
 10
-68.1531
 20
2.7377
 11
-68.2772
 21
2.71805
  0
LINE
  8
0
 10
-68.2772
 20
2.71805
 11
-68.4023
 21
2.70622
  0
LINE
  8
0
 10
-68.4023
 20
2.70622
 11
-68.5279
 21
2.70227
  0
LINE
  8
0
 10
-68.5279
 20
2.70227
 11
-68.6534
 21
2.70622
  0
LINE
  8
0
 10
68.4023
 20
2.70622
 11
68.2772
 21
2.71805
  0
LINE
  8
0
 10
68.2772
 20
2.71805
 11
68.1531
 21
2.7377
  0
LINE
  8
0
 10
68.1531
 20
2.7377
 11
68.0305
 21
2.76511
  0
LINE
  8
0
 10
68.0305
 20
2.76511
 11
67.9098
 21
2.80016
  0
LINE
  8
0
 10
67.9098
 20
2.80016
 11
67.7916
 21
2.84273
  0
LINE
  8
0
 10
67.7916
 20
2.84273
 11
67.6763
 21
2.89262
  0
LINE
  8
0
 10
67.6763
 20
2.89262
 11
67.5643
 21
2.94966
  0
LINE
  8
0
 10
67.5643
 20
2.94966
 11
67.4562
 21
3.01363
  0
LINE
  8
0
 10
67.4562
 20
3.01363
 11
67.3523
 21
3.08424
  0
LINE
  8
0
 10
67.3523
 20
3.08424
 11
67.253
 21
3.16125
  0
LINE
  8
0
 10
67.253
 20
3.16125
 11
67.1588
 21
3.24434
  0
LINE
  8
0
 10
67.1588
 20
3.24434
 11
67.0699
 21
3.33318
  0
LINE
  8
0
 10
67.0699
 20
3.33318
 11
66.9868
 21
3.42743
  0
LINE
  8
0
 10
66.9868
 20
3.42743
 11
66.9098
 21
3.5267
  0
LINE
  8
0
 10
66.9098
 20
3.5267
 11
66.8392
 21
3.63062
  0
LINE
  8
0
 10
66.8392
 20
3.63062
 11
66.7752
 21
3.73877
  0
LINE
  8
0
 10
66.7752
 20
3.73877
 11
66.7182
 21
3.85072
  0
LINE
  8
0
 10
66.7182
 20
3.85072
 11
66.6683
 21
3.96602
  0
LINE
  8
0
 10
66.6683
 20
3.96602
 11
66.6257
 21
4.08424
  0
LINE
  8
0
 10
66.6257
 20
4.08424
 11
66.5907
 21
4.2049
  0
LINE
  8
0
 10
66.5907
 20
4.2049
 11
66.5633
 21
4.32751
  0
LINE
  8
0
 10
66.5633
 20
4.32751
 11
66.5436
 21
4.45161
  0
LINE
  8
0
 10
66.5436
 20
4.45161
 11
66.5318
 21
4.57669
  0
LINE
  8
0
 10
66.5318
 20
4.57669
 11
66.5279
 21
4.70227
  0
LINE
  8
0
 10
66.5279
 20
4.70227
 11
66.5318
 21
4.82785
  0
LINE
  8
0
 10
66.5318
 20
4.82785
 11
66.5436
 21
4.95294
  0
LINE
  8
0
 10
66.5436
 20
4.95294
 11
66.5633
 21
5.07704
  0
LINE
  8
0
 10
66.5633
 20
5.07704
 11
66.5907
 21
5.19966
  0
LINE
  8
0
 10
66.5907
 20
5.19966
 11
66.6257
 21
5.32031
  0
LINE
  8
0
 10
66.6257
 20
5.32031
 11
66.6683
 21
5.43852
  0
LINE
  8
0
 10
66.6683
 20
5.43852
 11
66.7182
 21
5.55383
  0
LINE
  8
0
 10
66.7182
 20
5.55383
 11
66.7752
 21
5.66579
  0
LINE
  8
0
 10
66.7752
 20
5.66579
 11
66.8392
 21
5.77393
  0
LINE
  8
0
 10
66.8392
 20
5.77393
 11
66.9098
 21
5.87784
  0
LINE
  8
0
 10
66.9098
 20
5.87784
 11
66.9868
 21
5.97713
  0
LINE
  8
0
 10
66.9868
 20
5.97713
 11
67.0699
 21
6.07137
  0
LINE
  8
0
 10
67.0699
 20
6.07137
 11
67.1588
 21
6.16022
  0
LINE
  8
0
 10
67.1588
 20
6.16022
 11
67.253
 21
6.2433
  0
LINE
  8
0
 10
67.253
 20
6.2433
 11
67.3523
 21
6.32031
  0
LINE
  8
0
 10
67.3523
 20
6.32031
 11
67.4562
 21
6.39093
  0
LINE
  8
0
 10
67.4562
 20
6.39093
 11
67.5643
 21
6.4549
  0
LINE
  8
0
 10
67.5643
 20
6.4549
 11
67.6763
 21
6.51193
  0
LINE
  8
0
 10
67.6763
 20
6.51193
 11
67.7916
 21
6.56183
  0
LINE
  8
0
 10
67.7916
 20
6.56183
 11
67.9098
 21
6.60439
  0
LINE
  8
0
 10
67.9098
 20
6.60439
 11
68.0305
 21
6.63943
  0
LINE
  8
0
 10
68.0305
 20
6.63943
 11
68.1531
 21
6.66685
  0
LINE
  8
0
 10
68.1531
 20
6.66685
 11
68.2772
 21
6.68651
  0
LINE
  8
0
 10
68.2772
 20
6.68651
 11
68.4023
 21
6.69833
  0
LINE
  8
0
 10
68.4023
 20
6.69833
 11
68.5279
 21
6.70227
  0
LINE
  8
0
 10
68.5279
 20
6.70227
 11
68.6534
 21
6.69833
  0
LINE
  8
0
 10
68.6534
 20
6.69833
 11
68.7785
 21
6.68651
  0
LINE
  8
0
 10
68.7785
 20
6.68651
 11
68.9026
 21
6.66685
  0
LINE
  8
0
 10
68.9026
 20
6.66685
 11
69.0252
 21
6.63943
  0
LINE
  8
0
 10
69.0252
 20
6.63943
 11
69.1459
 21
6.60439
  0
LINE
  8
0
 10
69.1459
 20
6.60439
 11
69.2641
 21
6.56183
  0
LINE
  8
0
 10
69.2641
 20
6.56183
 11
69.3794
 21
6.51193
  0
LINE
  8
0
 10
69.3794
 20
6.51193
 11
69.4914
 21
6.4549
  0
LINE
  8
0
 10
69.4914
 20
6.4549
 11
69.5995
 21
6.39093
  0
LINE
  8
0
 10
69.5995
 20
6.39093
 11
69.7034
 21
6.32031
  0
LINE
  8
0
 10
69.7034
 20
6.32031
 11
69.8027
 21
6.2433
  0
LINE
  8
0
 10
69.8027
 20
6.2433
 11
69.897
 21
6.16022
  0
LINE
  8
0
 10
69.897
 20
6.16022
 11
69.9858
 21
6.07137
  0
LINE
  8
0
 10
69.9858
 20
6.07137
 11
70.0689
 21
5.97713
  0
LINE
  8
0
 10
70.0689
 20
5.97713
 11
70.1459
 21
5.87784
  0
LINE
  8
0
 10
70.1459
 20
5.87784
 11
70.2165
 21
5.77393
  0
LINE
  8
0
 10
70.2165
 20
5.77393
 11
70.2805
 21
5.66579
  0
LINE
  8
0
 10
70.2805
 20
5.66579
 11
70.3375
 21
5.55383
  0
LINE
  8
0
 10
70.3375
 20
5.55383
 11
70.3874
 21
5.43852
  0
LINE
  8
0
 10
70.3874
 20
5.43852
 11
70.43
 21
5.32031
  0
LINE
  8
0
 10
70.43
 20
5.32031
 11
70.465
 21
5.19966
  0
LINE
  8
0
 10
70.465
 20
5.19966
 11
70.4924
 21
5.07704
  0
LINE
  8
0
 10
70.4924
 20
5.07704
 11
70.5121
 21
4.95294
  0
LINE
  8
0
 10
70.5121
 20
4.95294
 11
70.5239
 21
4.82785
  0
LINE
  8
0
 10
70.5239
 20
4.82785
 11
70.5279
 21
4.70227
  0
LINE
  8
0
 10
70.5279
 20
4.70227
 11
70.5239
 21
4.57669
  0
LINE
  8
0
 10
70.5239
 20
4.57669
 11
70.5121
 21
4.45161
  0
LINE
  8
0
 10
70.5121
 20
4.45161
 11
70.4924
 21
4.32751
  0
LINE
  8
0
 10
70.4924
 20
4.32751
 11
70.465
 21
4.2049
  0
LINE
  8
0
 10
70.465
 20
4.2049
 11
70.43
 21
4.08424
  0
LINE
  8
0
 10
70.43
 20
4.08424
 11
70.3874
 21
3.96602
  0
LINE
  8
0
 10
70.3874
 20
3.96602
 11
70.3375
 21
3.85072
  0
LINE
  8
0
 10
70.3375
 20
3.85072
 11
70.2805
 21
3.73877
  0
LINE
  8
0
 10
70.2805
 20
3.73877
 11
70.2165
 21
3.63062
  0
LINE
  8
0
 10
70.2165
 20
3.63062
 11
70.1459
 21
3.5267
  0
LINE
  8
0
 10
70.1459
 20
3.5267
 11
70.0689
 21
3.42743
  0
LINE
  8
0
 10
70.0689
 20
3.42743
 11
69.9858
 21
3.33318
  0
LINE
  8
0
 10
69.9858
 20
3.33318
 11
69.897
 21
3.24434
  0
LINE
  8
0
 10
69.897
 20
3.24434
 11
69.8027
 21
3.16125
  0
LINE
  8
0
 10
69.8027
 20
3.16125
 11
69.7034
 21
3.08424
  0
LINE
  8
0
 10
69.7034
 20
3.08424
 11
69.5995
 21
3.01363
  0
LINE
  8
0
 10
69.5995
 20
3.01363
 11
69.4914
 21
2.94966
  0
LINE
  8
0
 10
69.4914
 20
2.94966
 11
69.3794
 21
2.89262
  0
LINE
  8
0
 10
69.3794
 20
2.89262
 11
69.2641
 21
2.84273
  0
LINE
  8
0
 10
69.2641
 20
2.84273
 11
69.1459
 21
2.80016
  0
LINE
  8
0
 10
69.1459
 20
2.80016
 11
69.0252
 21
2.76511
  0
LINE
  8
0
 10
69.0252
 20
2.76511
 11
68.9026
 21
2.7377
  0
LINE
  8
0
 10
68.9026
 20
2.7377
 11
68.7785
 21
2.71805
  0
LINE
  8
0
 10
68.7785
 20
2.71805
 11
68.6534
 21
2.70622
  0
LINE
  8
0
 10
68.6534
 20
2.70622
 11
68.5279
 21
2.70227
  0
LINE
  8
0
 10
68.5279
 20
2.70227
 11
68.4023
 21
2.70622
  0
ENDSEC
  0
SECTION
  2
OBJECTS
  0
DICTIONARY
  0
ENDSEC
  0
EOF
