  0
SECTION
  2
BLOCKS
  0
ENDSEC
  0
SECTION
  2
ENTITIES
  0
LINE
  8
0
 10
0
 20
230.826
 11
-75
 21
0
  0
LINE
  8
0
 10
-75
 20
0
 11
75
 21
0
  0
LINE
  8
0
 10
75
 20
0
 11
0
 21
230.826
  0
LINE
  8
0
 10
-0.12558
 20
212.83
 11
-0.250656
 21
212.842
  0
LINE
  8
0
 10
-0.250656
 20
212.842
 11
-0.374756
 21
212.862
  0
LINE
  8
0
 10
-0.374756
 20
212.862
 11
-0.497375
 21
212.889
  0
LINE
  8
0
 10
-0.497375
 20
212.889
 11
-0.618027
 21
212.924
  0
LINE
  8
0
 10
-0.618027
 20
212.924
 11
-0.736237
 21
212.967
  0
LINE
  8
0
 10
-0.736237
 20
212.967
 11
-0.851547
 21
213.017
  0
LINE
  8
0
 10
-0.851547
 20
213.017
 11
-0.963501
 21
213.074
  0
LINE
  8
0
 10
-0.963501
 20
213.074
 11
-1.07164
 21
213.138
  0
LINE
  8
0
 10
-1.07164
 20
213.138
 11
-1.17557
 21
213.208
  0
LINE
  8
0
 10
-1.17557
 20
213.208
 11
-1.27484
 21
213.285
  0
LINE
  8
0
 10
-1.27484
 20
213.285
 11
-1.36908
 21
213.368
  0
LINE
  8
0
 10
-1.36908
 20
213.368
 11
-1.45793
 21
213.457
  0
LINE
  8
0
 10
-1.45793
 20
213.457
 11
-1.54102
 21
213.551
  0
LINE
  8
0
 10
-1.54102
 20
213.551
 11
-1.61803
 21
213.651
  0
LINE
  8
0
 10
-1.61803
 20
213.651
 11
-1.68864
 21
213.755
  0
LINE
  8
0
 10
-1.68864
 20
213.755
 11
-1.75261
 21
213.863
  0
LINE
  8
0
 10
-1.75261
 20
213.863
 11
-1.80965
 21
213.975
  0
LINE
  8
0
 10
-1.80965
 20
213.975
 11
-1.85954
 21
214.09
  0
LINE
  8
0
 10
-1.85954
 20
214.09
 11
-1.9021
 21
214.208
  0
LINE
  8
0
 10
-1.9021
 20
214.208
 11
-1.93716
 21
214.329
  0
LINE
  8
0
 10
-1.93716
 20
214.329
 11
-1.96457
 21
214.451
  0
LINE
  8
0
 10
-1.96457
 20
214.451
 11
-1.98422
 21
214.576
  0
LINE
  8
0
 10
-1.98422
 20
214.576
 11
-1.99605
 21
214.701
  0
LINE
  8
0
 10
-1.99605
 20
214.701
 11
-2
 21
214.826
  0
LINE
  8
0
 10
-2
 20
214.826
 11
-1.99605
 21
214.952
  0
LINE
  8
0
 10
-1.99605
 20
214.952
 11
-1.98422
 21
215.077
  0
LINE
  8
0
 10
-1.98422
 20
215.077
 11
-1.96457
 21
215.201
  0
LINE
  8
0
 10
-1.96457
 20
215.201
 11
-1.93716
 21
215.324
  0
LINE
  8
0
 10
-1.93716
 20
215.324
 11
-1.9021
 21
215.444
  0
LINE
  8
0
 10
-1.9021
 20
215.444
 11
-1.85954
 21
215.562
  0
LINE
  8
0
 10
-1.85954
 20
215.562
 11
-1.80965
 21
215.678
  0
LINE
  8
0
 10
-1.80965
 20
215.678
 11
-1.75261
 21
215.79
  0
LINE
  8
0
 10
-1.75261
 20
215.79
 11
-1.68864
 21
215.898
  0
LINE
  8
0
 10
-1.68864
 20
215.898
 11
-1.61803
 21
216.002
  0
LINE
  8
0
 10
-1.61803
 20
216.002
 11
-1.54102
 21
216.101
  0
LINE
  8
0
 10
-1.54102
 20
216.101
 11
-1.45793
 21
216.195
  0
LINE
  8
0
 10
-1.45793
 20
216.195
 11
-1.36908
 21
216.284
  0
LINE
  8
0
 10
-1.36908
 20
216.284
 11
-1.27484
 21
216.367
  0
LINE
  8
0
 10
-1.27484
 20
216.367
 11
-1.17557
 21
216.444
  0
LINE
  8
0
 10
-1.17557
 20
216.444
 11
-1.07164
 21
216.515
  0
LINE
  8
0
 10
-1.07164
 20
216.515
 11
-0.963501
 21
216.579
  0
LINE
  8
0
 10
-0.963501
 20
216.579
 11
-0.851547
 21
216.636
  0
LINE
  8
0
 10
-0.851547
 20
216.636
 11
-0.736237
 21
216.686
  0
LINE
  8
0
 10
-0.736237
 20
216.686
 11
-0.618027
 21
216.728
  0
LINE
  8
0
 10
-0.618027
 20
216.728
 11
-0.497375
 21
216.763
  0
LINE
  8
0
 10
-0.497375
 20
216.763
 11
-0.374756
 21
216.791
  0
LINE
  8
0
 10
-0.374756
 20
216.791
 11
-0.250656
 21
216.81
  0
LINE
  8
0
 10
-0.250656
 20
216.81
 11
-0.12558
 21
216.822
  0
LINE
  8
0
 10
-0.12558
 20
216.822
 11
0
 21
216.826
  0
LINE
  8
0
 10
0
 20
216.826
 11
0.12558
 21
216.822
  0
LINE
  8
0
 10
0.12558
 20
216.822
 11
0.250656
 21
216.81
  0
LINE
  8
0
 10
0.250656
 20
216.81
 11
0.374756
 21
216.791
  0
LINE
  8
0
 10
0.374756
 20
216.791
 11
0.497375
 21
216.763
  0
LINE
  8
0
 10
0.497375
 20
216.763
 11
0.618027
 21
216.728
  0
LINE
  8
0
 10
0.618027
 20
216.728
 11
0.736237
 21
216.686
  0
LINE
  8
0
 10
0.736237
 20
216.686
 11
0.851547
 21
216.636
  0
LINE
  8
0
 10
0.851547
 20
216.636
 11
0.963501
 21
216.579
  0
LINE
  8
0
 10
0.963501
 20
216.579
 11
1.07164
 21
216.515
  0
LINE
  8
0
 10
1.07164
 20
216.515
 11
1.17557
 21
216.444
  0
LINE
  8
0
 10
1.17557
 20
216.444
 11
1.27484
 21
216.367
  0
LINE
  8
0
 10
1.27484
 20
216.367
 11
1.36908
 21
216.284
  0
LINE
  8
0
 10
1.36908
 20
216.284
 11
1.45793
 21
216.195
  0
LINE
  8
0
 10
1.45793
 20
216.195
 11
1.54102
 21
216.101
  0
LINE
  8
0
 10
1.54102
 20
216.101
 11
1.61803
 21
216.002
  0
LINE
  8
0
 10
1.61803
 20
216.002
 11
1.68864
 21
215.898
  0
LINE
  8
0
 10
1.68864
 20
215.898
 11
1.75261
 21
215.79
  0
LINE
  8
0
 10
1.75261
 20
215.79
 11
1.80965
 21
215.678
  0
LINE
  8
0
 10
1.80965
 20
215.678
 11
1.85954
 21
215.562
  0
LINE
  8
0
 10
1.85954
 20
215.562
 11
1.9021
 21
215.444
  0
LINE
  8
0
 10
1.9021
 20
215.444
 11
1.93716
 21
215.324
  0
LINE
  8
0
 10
1.93716
 20
215.324
 11
1.96457
 21
215.201
  0
LINE
  8
0
 10
1.96457
 20
215.201
 11
1.98422
 21
215.077
  0
LINE
  8
0
 10
1.98422
 20
215.077
 11
1.99605
 21
214.952
  0
LINE
  8
0
 10
1.99605
 20
214.952
 11
2
 21
214.826
  0
LINE
  8
0
 10
2
 20
214.826
 11
1.99605
 21
214.701
  0
LINE
  8
0
 10
1.99605
 20
214.701
 11
1.98422
 21
214.576
  0
LINE
  8
0
 10
1.98422
 20
214.576
 11
1.96457
 21
214.451
  0
LINE
  8
0
 10
1.96457
 20
214.451
 11
1.93716
 21
214.329
  0
LINE
  8
0
 10
1.93716
 20
214.329
 11
1.9021
 21
214.208
  0
LINE
  8
0
 10
1.9021
 20
214.208
 11
1.85954
 21
214.09
  0
LINE
  8
0
 10
1.85954
 20
214.09
 11
1.80965
 21
213.975
  0
LINE
  8
0
 10
1.80965
 20
213.975
 11
1.75261
 21
213.863
  0
LINE
  8
0
 10
1.75261
 20
213.863
 11
1.68864
 21
213.755
  0
LINE
  8
0
 10
1.68864
 20
213.755
 11
1.61803
 21
213.651
  0
LINE
  8
0
 10
1.61803
 20
213.651
 11
1.54102
 21
213.551
  0
LINE
  8
0
 10
1.54102
 20
213.551
 11
1.45793
 21
213.457
  0
LINE
  8
0
 10
1.45793
 20
213.457
 11
1.36908
 21
213.368
  0
LINE
  8
0
 10
1.36908
 20
213.368
 11
1.27484
 21
213.285
  0
LINE
  8
0
 10
1.27484
 20
213.285
 11
1.17557
 21
213.208
  0
LINE
  8
0
 10
1.17557
 20
213.208
 11
1.07164
 21
213.138
  0
LINE
  8
0
 10
1.07164
 20
213.138
 11
0.963501
 21
213.074
  0
LINE
  8
0
 10
0.963501
 20
213.074
 11
0.851547
 21
213.017
  0
LINE
  8
0
 10
0.851547
 20
213.017
 11
0.736237
 21
212.967
  0
LINE
  8
0
 10
0.736237
 20
212.967
 11
0.618027
 21
212.924
  0
LINE
  8
0
 10
0.618027
 20
212.924
 11
0.497375
 21
212.889
  0
LINE
  8
0
 10
0.497375
 20
212.889
 11
0.374756
 21
212.862
  0
LINE
  8
0
 10
0.374756
 20
212.862
 11
0.250656
 21
212.842
  0
LINE
  8
0
 10
0.250656
 20
212.842
 11
0.12558
 21
212.83
  0
LINE
  8
0
 10
0.12558
 20
212.83
 11
0
 21
212.826
  0
LINE
  8
0
 10
0
 20
212.826
 11
-0.12558
 21
212.83
  0
LINE
  8
0
 10
2.11572
 20
181.024
 11
2.65446
 21
183.824
  0
LINE
  8
0
 10
2.65446
 20
183.824
 11
4.43352
 21
178.348
  0
LINE
  8
0
 10
4.43352
 20
178.348
 11
3.46744
 21
178.683
  0
LINE
  8
0
 10
3.46744
 20
178.683
 11
-3.29092
 21
176.342
  0
LINE
  8
0
 10
-3.29092
 20
176.342
 11
2.11572
 21
181.024
  0
LINE
  8
0
 10
-6.56465
 20
171.79
 11
-3.89262
 21
180.013
  0
LINE
  8
0
 10
-3.89262
 20
180.013
 11
0.566452
 21
181.558
  0
LINE
  8
0
 10
0.566452
 20
181.558
 11
-4.84032
 21
176.875
  0
LINE
  8
0
 10
-4.84032
 20
176.875
 11
-6.19182
 21
169.852
  0
LINE
  8
0
 10
-6.19182
 20
169.852
 11
-6.56465
 21
171.79
  0
LINE
  8
0
 10
3.78023
 20
177.075
 11
4.98265
 21
176.658
  0
LINE
  8
0
 10
4.98265
 20
176.658
 11
5.2652
 21
175.789
  0
LINE
  8
0
 10
5.2652
 20
175.789
 11
3.78023
 21
177.075
  0
LINE
  8
0
 10
-8.35233
 20
166.288
 11
-7.47113
 21
169
  0
LINE
  8
0
 10
-7.47113
 20
169
 11
-7.4283
 21
168.777
  0
LINE
  8
0
 10
-7.4283
 20
168.777
 11
-2.02174
 21
164.095
  0
LINE
  8
0
 10
-2.02174
 20
164.095
 11
-8.35233
 21
166.288
  0
LINE
  8
0
 10
6.5988
 20
164.294
 11
7.49193
 21
168.936
  0
LINE
  8
0
 10
7.49193
 20
168.936
 11
9.99037
 21
161.246
  0
LINE
  8
0
 10
9.99037
 20
161.246
 11
7.9503
 21
161.953
  0
LINE
  8
0
 10
7.9503
 20
161.953
 11
1.19203
 21
159.612
  0
LINE
  8
0
 10
1.19203
 20
159.612
 11
6.5988
 21
164.294
  0
LINE
  8
0
 10
-3.06056
 20
160.145
 11
-8.46713
 21
164.828
  0
LINE
  8
0
 10
-8.46713
 20
164.828
 11
-1.70895
 21
162.487
  0
LINE
  8
0
 10
-1.70895
 20
162.487
 11
5.0493
 21
164.828
  0
LINE
  8
0
 10
5.0493
 20
164.828
 11
-0.357239
 21
160.145
  0
LINE
  8
0
 10
-0.357239
 20
160.145
 11
-1.70895
 21
153.121
  0
LINE
  8
0
 10
-1.70895
 20
153.121
 11
-3.06056
 21
160.145
  0
LINE
  8
0
 10
8.26309
 20
160.345
 11
10.5395
 21
159.556
  0
LINE
  8
0
 10
10.5395
 20
159.556
 11
11.0744
 21
157.91
  0
LINE
  8
0
 10
11.0744
 20
157.91
 11
8.26309
 21
160.345
  0
LINE
  8
0
 10
-4.29706
 20
149.706
 11
-11.0553
 21
147.365
  0
LINE
  8
0
 10
-11.0553
 20
147.365
 11
-5.64856
 21
152.047
  0
LINE
  8
0
 10
-5.64856
 20
152.047
 11
-4.29706
 21
159.07
  0
LINE
  8
0
 10
-4.29706
 20
159.07
 11
-2.94556
 21
152.047
  0
LINE
  8
0
 10
-2.94556
 20
152.047
 11
2.46121
 21
147.364
  0
LINE
  8
0
 10
2.46121
 20
147.364
 11
-4.29706
 21
149.706
  0
LINE
  8
0
 10
11.0816
 20
147.564
 11
12.3293
 21
154.048
  0
LINE
  8
0
 10
12.3293
 20
154.048
 11
12.8389
 21
152.479
  0
LINE
  8
0
 10
12.8389
 20
152.479
 11
13.7849
 21
147.564
  0
LINE
  8
0
 10
13.7849
 20
147.564
 11
14.691
 21
146.779
  0
LINE
  8
0
 10
14.691
 20
146.779
 11
15.5473
 21
144.144
  0
LINE
  8
0
 10
15.5473
 20
144.144
 11
12.4333
 21
145.223
  0
LINE
  8
0
 10
12.4333
 20
145.223
 11
5.67499
 21
142.882
  0
LINE
  8
0
 10
5.67499
 20
142.882
 11
11.0816
 21
147.564
  0
LINE
  8
0
 10
-14.9433
 20
146.003
 11
-13.5173
 21
150.391
  0
LINE
  8
0
 10
-13.5173
 20
150.391
 11
-7.19817
 21
152.58
  0
LINE
  8
0
 10
-7.19817
 20
152.58
 11
-12.6046
 21
147.898
  0
LINE
  8
0
 10
-12.6046
 20
147.898
 11
-13.9563
 21
140.874
  0
LINE
  8
0
 10
-13.9563
 20
140.874
 11
-14.9433
 21
146.003
  0
LINE
  8
0
 10
1.42249
 20
143.415
 11
-3.98427
 21
148.097
  0
LINE
  8
0
 10
-3.98427
 20
148.097
 11
2.774
 21
145.756
  0
LINE
  8
0
 10
2.774
 20
145.756
 11
9.53227
 21
148.097
  0
LINE
  8
0
 10
9.53227
 20
148.097
 11
4.1255
 21
143.415
  0
LINE
  8
0
 10
4.1255
 20
143.415
 11
2.774
 21
136.391
  0
LINE
  8
0
 10
2.774
 20
136.391
 11
1.42249
 21
143.415
  0
LINE
  8
0
 10
12.7461
 20
143.614
 11
16.0964
 21
142.454
  0
LINE
  8
0
 10
16.0964
 20
142.454
 11
16.8836
 21
140.031
  0
LINE
  8
0
 10
16.8836
 20
140.031
 11
12.7461
 21
143.614
  0
LINE
  8
0
 10
-16.5445
 20
137.458
 11
-17.8686
 21
136.999
  0
LINE
  8
0
 10
-17.8686
 20
136.999
 11
-15.8498
 21
143.213
  0
LINE
  8
0
 10
-15.8498
 20
143.213
 11
-15.193
 21
139.799
  0
LINE
  8
0
 10
-15.193
 20
139.799
 11
-9.78625
 21
135.117
  0
LINE
  8
0
 10
-9.78625
 20
135.117
 11
-16.5445
 21
137.458
  0
LINE
  8
0
 10
-1.16591
 20
135.316
 11
0.185791
 21
142.34
  0
LINE
  8
0
 10
0.185791
 20
142.34
 11
1.53751
 21
135.317
  0
LINE
  8
0
 10
1.53751
 20
135.317
 11
6.94406
 21
130.634
  0
LINE
  8
0
 10
6.94406
 20
130.634
 11
0.185791
 21
132.975
  0
LINE
  8
0
 10
0.185791
 20
132.975
 11
-6.57237
 21
130.634
  0
LINE
  8
0
 10
-6.57237
 20
130.634
 11
-1.16591
 21
135.316
  0
LINE
  8
0
 10
15.5646
 20
130.834
 11
16.9161
 21
137.857
  0
LINE
  8
0
 10
16.9161
 20
137.857
 11
18.2676
 21
130.834
  0
LINE
  8
0
 10
18.2676
 20
130.834
 11
20.5002
 21
128.9
  0
LINE
  8
0
 10
20.5002
 20
128.9
 11
21.1041
 21
127.042
  0
LINE
  8
0
 10
21.1041
 20
127.042
 11
16.9161
 21
128.492
  0
LINE
  8
0
 10
16.9161
 20
128.492
 11
10.1579
 21
126.151
  0
LINE
  8
0
 10
10.1579
 20
126.151
 11
15.5646
 21
130.834
  0
LINE
  8
0
 10
-10.825
 20
131.167
 11
-16.2318
 21
135.85
  0
LINE
  8
0
 10
-16.2318
 20
135.85
 11
-9.47346
 21
133.509
  0
LINE
  8
0
 10
-9.47346
 20
133.509
 11
-2.71519
 21
135.85
  0
LINE
  8
0
 10
-2.71519
 20
135.85
 11
-8.12196
 21
131.167
  0
LINE
  8
0
 10
-8.12196
 20
131.167
 11
-9.47346
 21
124.144
  0
LINE
  8
0
 10
-9.47346
 20
124.144
 11
-10.825
 21
131.167
  0
LINE
  8
0
 10
19.4772
 20
132.049
 11
19.5112
 21
131.944
  0
LINE
  8
0
 10
19.5112
 20
131.944
 11
19.5042
 21
131.908
  0
LINE
  8
0
 10
19.5042
 20
131.908
 11
19.4772
 21
132.049
  0
LINE
  8
0
 10
5.90514
 20
126.684
 11
0.498581
 21
131.367
  0
LINE
  8
0
 10
0.498581
 20
131.367
 11
7.25685
 21
129.026
  0
LINE
  8
0
 10
7.25685
 20
129.026
 11
14.015
 21
131.367
  0
LINE
  8
0
 10
14.015
 20
131.367
 11
8.60858
 21
126.685
  0
LINE
  8
0
 10
8.60858
 20
126.685
 11
7.25685
 21
119.661
  0
LINE
  8
0
 10
7.25685
 20
119.661
 11
5.90514
 21
126.684
  0
LINE
  8
0
 10
-13.4134
 20
123.069
 11
-12.0617
 21
130.093
  0
LINE
  8
0
 10
-12.0617
 20
130.093
 11
-10.71
 21
123.069
  0
LINE
  8
0
 10
-10.71
 20
123.069
 11
-5.30341
 21
118.387
  0
LINE
  8
0
 10
-5.30341
 20
118.387
 11
-12.0617
 21
120.728
  0
LINE
  8
0
 10
-12.0617
 20
120.728
 11
-18.8199
 21
118.387
  0
LINE
  8
0
 10
-18.8199
 20
118.387
 11
-13.4134
 21
123.069
  0
LINE
  8
0
 10
22.6357
 20
122.202
 11
17.2289
 21
126.884
  0
LINE
  8
0
 10
17.2289
 20
126.884
 11
21.6533
 21
125.352
  0
LINE
  8
0
 10
21.6533
 20
125.352
 11
24.3486
 21
117.056
  0
LINE
  8
0
 10
24.3486
 20
117.056
 11
23.9872
 21
115.178
  0
LINE
  8
0
 10
23.9872
 20
115.178
 11
22.6357
 21
122.202
  0
LINE
  8
0
 10
4.66866
 20
116.245
 11
-2.08961
 21
113.904
  0
LINE
  8
0
 10
-2.08961
 20
113.904
 11
3.31714
 21
118.586
  0
LINE
  8
0
 10
3.31714
 20
118.586
 11
4.66866
 21
125.61
  0
LINE
  8
0
 10
4.66866
 20
125.61
 11
6.02016
 21
118.586
  0
LINE
  8
0
 10
6.02016
 20
118.586
 11
11.4269
 21
113.904
  0
LINE
  8
0
 10
11.4269
 20
113.904
 11
4.66866
 21
116.245
  0
LINE
  8
0
 10
-23.0725
 20
118.92
 11
-23.5958
 21
119.373
  0
LINE
  8
0
 10
-23.5958
 20
119.373
 11
-22.8547
 21
121.654
  0
LINE
  8
0
 10
-22.8547
 20
121.654
 11
-21.7209
 21
121.261
  0
LINE
  8
0
 10
-21.7209
 20
121.261
 11
-14.9627
 21
123.602
  0
LINE
  8
0
 10
-14.9627
 20
123.602
 11
-20.3694
 21
118.92
  0
LINE
  8
0
 10
-20.3694
 20
118.92
 11
-21.7209
 21
111.896
  0
LINE
  8
0
 10
-21.7209
 20
111.896
 11
-23.0725
 21
118.92
  0
LINE
  8
0
 10
-22.4167
 20
123.002
 11
-22.3662
 21
123.157
  0
LINE
  8
0
 10
-22.3662
 20
123.157
 11
-22.0337
 21
122.869
  0
LINE
  8
0
 10
-22.0337
 20
122.869
 11
-22.4167
 21
123.002
  0
LINE
  8
0
 10
20.0473
 20
114.103
 11
21.399
 21
121.127
  0
LINE
  8
0
 10
21.399
 20
121.127
 11
22.7507
 21
114.103
  0
LINE
  8
0
 10
22.7507
 20
114.103
 11
26.3094
 21
111.021
  0
LINE
  8
0
 10
26.3094
 20
111.021
 11
26.661
 21
109.939
  0
LINE
  8
0
 10
26.661
 20
109.939
 11
21.399
 21
111.762
  0
LINE
  8
0
 10
21.399
 20
111.762
 11
14.6406
 21
109.421
  0
LINE
  8
0
 10
14.6406
 20
109.421
 11
20.0473
 21
114.103
  0
LINE
  8
0
 10
-6.34233
 20
114.437
 11
-11.7489
 21
119.119
  0
LINE
  8
0
 10
-11.7489
 20
119.119
 11
-4.99062
 21
116.779
  0
LINE
  8
0
 10
-4.99062
 20
116.779
 11
1.76755
 21
119.119
  0
LINE
  8
0
 10
1.76755
 20
119.119
 11
-3.63889
 21
114.437
  0
LINE
  8
0
 10
-3.63889
 20
114.437
 11
-4.99062
 21
107.413
  0
LINE
  8
0
 10
-4.99062
 20
107.413
 11
-6.34233
 21
114.437
  0
LINE
  8
0
 10
-24.3091
 20
108.48
 11
-27.4935
 21
107.377
  0
LINE
  8
0
 10
-27.4935
 20
107.377
 11
-26.6538
 21
109.962
  0
LINE
  8
0
 10
-26.6538
 20
109.962
 11
-25.6608
 21
110.822
  0
LINE
  8
0
 10
-25.6608
 20
110.822
 11
-24.6243
 21
116.208
  0
LINE
  8
0
 10
-24.6243
 20
116.208
 11
-24.2285
 21
117.426
  0
LINE
  8
0
 10
-24.2285
 20
117.426
 11
-22.9574
 21
110.822
  0
LINE
  8
0
 10
-22.9574
 20
110.822
 11
-17.5509
 21
106.139
  0
LINE
  8
0
 10
-17.5509
 20
106.139
 11
-24.3091
 21
108.48
  0
LINE
  8
0
 10
10.3882
 20
109.954
 11
4.98145
 21
114.637
  0
LINE
  8
0
 10
4.98145
 20
114.637
 11
11.7397
 21
112.295
  0
LINE
  8
0
 10
11.7397
 20
112.295
 11
18.498
 21
114.637
  0
LINE
  8
0
 10
18.498
 20
114.637
 11
13.0912
 21
109.954
  0
LINE
  8
0
 10
13.0912
 20
109.954
 11
11.7397
 21
102.931
  0
LINE
  8
0
 10
11.7397
 20
102.931
 11
10.3882
 21
109.954
  0
LINE
  8
0
 10
-7.57881
 20
103.997
 11
-14.3371
 21
101.656
  0
LINE
  8
0
 10
-14.3371
 20
101.656
 11
-8.93033
 21
106.339
  0
LINE
  8
0
 10
-8.93033
 20
106.339
 11
-7.57881
 21
113.362
  0
LINE
  8
0
 10
-7.57881
 20
113.362
 11
-6.22731
 21
106.339
  0
LINE
  8
0
 10
-6.22731
 20
106.339
 11
-0.820541
 21
101.656
  0
LINE
  8
0
 10
-0.820541
 20
101.656
 11
-7.57881
 21
103.997
  0
LINE
  8
0
 10
27.1183
 20
105.471
 11
21.7118
 21
110.154
  0
LINE
  8
0
 10
21.7118
 20
110.154
 11
27.2101
 21
108.249
  0
LINE
  8
0
 10
27.2101
 20
108.249
 11
29.186
 21
102.168
  0
LINE
  8
0
 10
29.186
 20
102.168
 11
28.4701
 21
98.4477
  0
LINE
  8
0
 10
28.4701
 20
98.4477
 11
27.1183
 21
105.471
  0
LINE
  8
0
 10
7.79979
 20
101.856
 11
9.1515
 21
108.88
  0
LINE
  8
0
 10
9.1515
 20
108.88
 11
10.5032
 21
101.856
  0
LINE
  8
0
 10
10.5032
 20
101.856
 11
15.9098
 21
97.1736
  0
LINE
  8
0
 10
15.9098
 20
97.1736
 11
9.1515
 21
99.5144
  0
LINE
  8
0
 10
9.1515
 20
99.5144
 11
2.39334
 21
97.1734
  0
LINE
  8
0
 10
2.39334
 20
97.1734
 11
7.79979
 21
101.856
  0
LINE
  8
0
 10
-18.5897
 20
102.19
 11
-23.9963
 21
106.872
  0
LINE
  8
0
 10
-23.9963
 20
106.872
 11
-17.2381
 21
104.531
  0
LINE
  8
0
 10
-17.2381
 20
104.531
 11
-10.4798
 21
106.872
  0
LINE
  8
0
 10
-10.4798
 20
106.872
 11
-15.8864
 21
102.19
  0
LINE
  8
0
 10
-15.8864
 20
102.19
 11
-17.2381
 21
95.1659
  0
LINE
  8
0
 10
-17.2381
 20
95.1659
 11
-18.5897
 21
102.19
  0
LINE
  8
0
 10
24.5303
 20
97.373
 11
25.8819
 21
104.396
  0
LINE
  8
0
 10
25.8819
 20
104.396
 11
27.2334
 21
97.373
  0
LINE
  8
0
 10
27.2334
 20
97.373
 11
32.1188
 21
93.142
  0
LINE
  8
0
 10
32.1188
 20
93.142
 11
32.218
 21
92.8367
  0
LINE
  8
0
 10
32.218
 20
92.8367
 11
25.8819
 21
95.0317
  0
LINE
  8
0
 10
25.8819
 20
95.0317
 11
19.1236
 21
92.6907
  0
LINE
  8
0
 10
19.1236
 20
92.6907
 11
24.5303
 21
97.373
  0
LINE
  8
0
 10
-1.85925
 20
97.7067
 11
-7.26602
 21
102.389
  0
LINE
  8
0
 10
-7.26602
 20
102.389
 11
-0.507751
 21
100.048
  0
LINE
  8
0
 10
-0.507751
 20
100.048
 11
6.25052
 21
102.389
  0
LINE
  8
0
 10
6.25052
 20
102.389
 11
0.843735
 21
97.7067
  0
LINE
  8
0
 10
0.843735
 20
97.7067
 11
-0.507751
 21
90.6833
  0
LINE
  8
0
 10
-0.507751
 20
90.6833
 11
-1.85925
 21
97.7067
  0
LINE
  8
0
 10
-19.8262
 20
91.7501
 11
-26.5845
 21
89.409
  0
LINE
  8
0
 10
-26.5845
 20
89.409
 11
-21.1777
 21
94.0914
  0
LINE
  8
0
 10
-21.1777
 20
94.0914
 11
-19.8262
 21
101.115
  0
LINE
  8
0
 10
-19.8262
 20
101.115
 11
-18.4747
 21
94.0914
  0
LINE
  8
0
 10
-18.4747
 20
94.0914
 11
-13.0679
 21
89.4088
  0
LINE
  8
0
 10
-13.0679
 20
89.4088
 11
-19.8262
 21
91.7501
  0
LINE
  8
0
 10
14.8708
 20
93.2238
 11
9.46429
 21
97.9062
  0
LINE
  8
0
 10
9.46429
 20
97.9062
 11
16.2226
 21
95.5654
  0
LINE
  8
0
 10
16.2226
 20
95.5654
 11
22.9807
 21
97.9063
  0
LINE
  8
0
 10
22.9807
 20
97.9063
 11
17.5743
 21
93.224
  0
LINE
  8
0
 10
17.5743
 20
93.224
 11
16.2226
 21
86.2002
  0
LINE
  8
0
 10
16.2226
 20
86.2002
 11
14.8708
 21
93.2238
  0
LINE
  8
0
 10
-4.44757
 20
89.6083
 11
-3.09596
 21
96.632
  0
LINE
  8
0
 10
-3.09596
 20
96.632
 11
-1.74423
 21
89.6084
  0
LINE
  8
0
 10
-1.74423
 20
89.6084
 11
3.66231
 21
84.9261
  0
LINE
  8
0
 10
3.66231
 20
84.9261
 11
-3.09586
 21
87.267
  0
LINE
  8
0
 10
-3.09586
 20
87.267
 11
-9.85413
 21
84.926
  0
LINE
  8
0
 10
-9.85413
 20
84.926
 11
-4.44757
 21
89.6083
  0
LINE
  8
0
 10
-31.665
 20
94.5385
 11
-31.419
 21
95.2956
  0
LINE
  8
0
 10
-31.419
 20
95.2956
 11
-29.7983
 21
93.8919
  0
LINE
  8
0
 10
-29.7983
 20
93.8919
 11
-31.665
 21
94.5385
  0
LINE
  8
0
 10
-30.8372
 20
89.9422
 11
-32.6487
 21
91.511
  0
LINE
  8
0
 10
-32.6487
 20
91.511
 11
-32.1031
 21
93.1903
  0
LINE
  8
0
 10
-32.1031
 20
93.1903
 11
-29.4855
 21
92.2837
  0
LINE
  8
0
 10
-29.4855
 20
92.2837
 11
-22.7273
 21
94.6246
  0
LINE
  8
0
 10
-22.7273
 20
94.6246
 11
-28.1337
 21
89.9424
  0
LINE
  8
0
 10
-28.1337
 20
89.9424
 11
-29.4855
 21
82.9185
  0
LINE
  8
0
 10
-29.4855
 20
82.9185
 11
-30.8372
 21
89.9422
  0
LINE
  8
0
 10
31.6014
 20
88.741
 11
26.1946
 21
93.4235
  0
LINE
  8
0
 10
26.1946
 20
93.4235
 11
32.7671
 21
91.1467
  0
LINE
  8
0
 10
32.7671
 20
91.1467
 11
34.0234
 21
87.2803
  0
LINE
  8
0
 10
34.0234
 20
87.2803
 11
32.9529
 21
81.7176
  0
LINE
  8
0
 10
32.9529
 20
81.7176
 11
31.6014
 21
88.741
  0
LINE
  8
0
 10
13.6344
 20
82.7842
 11
6.8761
 21
80.4432
  0
LINE
  8
0
 10
6.8761
 20
80.4432
 11
12.2829
 21
85.1256
  0
LINE
  8
0
 10
12.2829
 20
85.1256
 11
13.6344
 21
92.1489
  0
LINE
  8
0
 10
13.6344
 20
92.1489
 11
14.9859
 21
85.1256
  0
LINE
  8
0
 10
14.9859
 20
85.1256
 11
20.3927
 21
80.443
  0
LINE
  8
0
 10
20.3927
 20
80.443
 11
13.6344
 21
82.7842
  0
LINE
  8
0
 10
-14.1066
 20
85.4593
 11
-19.5134
 21
90.1419
  0
LINE
  8
0
 10
-19.5134
 20
90.1419
 11
-12.7551
 21
87.8006
  0
LINE
  8
0
 10
-12.7551
 20
87.8006
 11
-5.99684
 21
90.1416
  0
LINE
  8
0
 10
-5.99684
 20
90.1416
 11
-11.4036
 21
85.4593
  0
LINE
  8
0
 10
-11.4036
 20
85.4593
 11
-12.7551
 21
78.4359
  0
LINE
  8
0
 10
-12.7551
 20
78.4359
 11
-14.1066
 21
85.4593
  0
LINE
  8
0
 10
-32.0737
 20
79.5026
 11
-37.1183
 21
77.7552
  0
LINE
  8
0
 10
-37.1183
 20
77.7552
 11
-36.7156
 21
78.9943
  0
LINE
  8
0
 10
-36.7156
 20
78.9943
 11
-33.4252
 21
81.8439
  0
LINE
  8
0
 10
-33.4252
 20
81.8439
 11
-32.0737
 21
88.8673
  0
LINE
  8
0
 10
-32.0737
 20
88.8673
 11
-30.7222
 21
81.8439
  0
LINE
  8
0
 10
-30.7222
 20
81.8439
 11
-25.3154
 21
77.1613
  0
LINE
  8
0
 10
-25.3154
 20
77.1613
 11
-32.0737
 21
79.5026
  0
LINE
  8
0
 10
29.013
 20
80.6425
 11
30.3647
 21
87.6663
  0
LINE
  8
0
 10
30.3647
 20
87.6663
 11
31.7164
 21
80.6427
  0
LINE
  8
0
 10
31.7164
 20
80.6427
 11
37.123
 21
75.9603
  0
LINE
  8
0
 10
37.123
 20
75.9603
 11
30.3647
 21
78.3011
  0
LINE
  8
0
 10
30.3647
 20
78.3011
 11
23.6065
 21
75.9602
  0
LINE
  8
0
 10
23.6065
 20
75.9602
 11
29.013
 21
80.6425
  0
LINE
  8
0
 10
2.62349
 20
80.9764
 11
-2.78307
 21
85.6588
  0
LINE
  8
0
 10
-2.78307
 20
85.6588
 11
3.9751
 21
83.3179
  0
LINE
  8
0
 10
3.9751
 20
83.3179
 11
10.7334
 21
85.6589
  0
LINE
  8
0
 10
10.7334
 20
85.6589
 11
5.32681
 21
80.9765
  0
LINE
  8
0
 10
5.32681
 20
80.9765
 11
3.9751
 21
73.9527
  0
LINE
  8
0
 10
3.9751
 20
73.9527
 11
2.62349
 21
80.9764
  0
LINE
  8
0
 10
-16.6951
 20
77.3608
 11
-15.3433
 21
84.3846
  0
LINE
  8
0
 10
-15.3433
 20
84.3846
 11
-13.9916
 21
77.3611
  0
LINE
  8
0
 10
-13.9916
 20
77.3611
 11
-8.58505
 21
72.6787
  0
LINE
  8
0
 10
-8.58505
 20
72.6787
 11
-15.3433
 21
75.0195
  0
LINE
  8
0
 10
-15.3433
 20
75.0195
 11
-22.1017
 21
72.6786
  0
LINE
  8
0
 10
-22.1017
 20
72.6786
 11
-16.6951
 21
77.3608
  0
LINE
  8
0
 10
-35.6979
 20
82.1267
 11
-34.9748
 21
82.3771
  0
LINE
  8
0
 10
-34.9748
 20
82.3771
 11
-35.8678
 21
81.6037
  0
LINE
  8
0
 10
-35.8678
 20
81.6037
 11
-35.6979
 21
82.1267
  0
LINE
  8
0
 10
19.3539
 20
76.4935
 11
13.9472
 21
81.176
  0
LINE
  8
0
 10
13.9472
 20
81.176
 11
20.7054
 21
78.8348
  0
LINE
  8
0
 10
20.7054
 20
78.8348
 11
27.4637
 21
81.1758
  0
LINE
  8
0
 10
27.4637
 20
81.1758
 11
22.0569
 21
76.4935
  0
LINE
  8
0
 10
22.0569
 20
76.4935
 11
20.7054
 21
69.4701
  0
LINE
  8
0
 10
20.7054
 20
69.4701
 11
19.3539
 21
76.4935
  0
LINE
  8
0
 10
1.38699
 20
70.5368
 11
-5.37126
 21
68.1958
  0
LINE
  8
0
 10
-5.37126
 20
68.1958
 11
0.0354919
 21
72.8782
  0
LINE
  8
0
 10
0.0354919
 20
72.8782
 11
1.38699
 21
79.9016
  0
LINE
  8
0
 10
1.38699
 20
79.9016
 11
2.73849
 21
72.8782
  0
LINE
  8
0
 10
2.73849
 20
72.8782
 11
8.14528
 21
68.1956
  0
LINE
  8
0
 10
8.14528
 20
68.1956
 11
1.38699
 21
70.5368
  0
LINE
  8
0
 10
-26.3541
 20
73.2118
 11
-31.7609
 21
77.8944
  0
LINE
  8
0
 10
-31.7609
 20
77.8944
 11
-25.0026
 21
75.5531
  0
LINE
  8
0
 10
-25.0026
 20
75.5531
 11
-18.2443
 21
77.8942
  0
LINE
  8
0
 10
-18.2443
 20
77.8942
 11
-23.6511
 21
73.2118
  0
LINE
  8
0
 10
-23.6511
 20
73.2118
 11
-25.0026
 21
66.1884
  0
LINE
  8
0
 10
-25.0026
 20
66.1884
 11
-26.3541
 21
73.2118
  0
LINE
  8
0
 10
36.0841
 20
72.0106
 11
30.6775
 21
76.693
  0
LINE
  8
0
 10
30.6775
 20
76.693
 11
37.4358
 21
74.3522
  0
LINE
  8
0
 10
37.4358
 20
74.3522
 11
38.1442
 21
74.5975
  0
LINE
  8
0
 10
38.1442
 20
74.5975
 11
38.9414
 21
72.1441
  0
LINE
  8
0
 10
38.9414
 20
72.1441
 11
38.7875
 21
72.0108
  0
LINE
  8
0
 10
38.7875
 20
72.0108
 11
37.4358
 21
64.987
  0
LINE
  8
0
 10
37.4358
 20
64.987
 11
36.0841
 21
72.0106
  0
LINE
  8
0
 10
16.7656
 20
68.3951
 11
18.1172
 21
75.4188
  0
LINE
  8
0
 10
18.1172
 20
75.4188
 11
19.4689
 21
68.3952
  0
LINE
  8
0
 10
19.4689
 20
68.3952
 11
24.8755
 21
63.7129
  0
LINE
  8
0
 10
24.8755
 20
63.7129
 11
18.1173
 21
66.0538
  0
LINE
  8
0
 10
18.1173
 20
66.0538
 11
11.3591
 21
63.7128
  0
LINE
  8
0
 10
11.3591
 20
63.7128
 11
16.7656
 21
68.3951
  0
LINE
  8
0
 10
-9.62399
 20
68.7289
 11
-15.0305
 21
73.4113
  0
LINE
  8
0
 10
-15.0305
 20
73.4113
 11
-8.27226
 21
71.0705
  0
LINE
  8
0
 10
-8.27226
 20
71.0705
 11
-1.5141
 21
73.4114
  0
LINE
  8
0
 10
-1.5141
 20
73.4114
 11
-6.92055
 21
68.7292
  0
LINE
  8
0
 10
-6.92055
 20
68.7292
 11
-8.27226
 21
61.7054
  0
LINE
  8
0
 10
-8.27226
 20
61.7054
 11
-9.62399
 21
68.7289
  0
LINE
  8
0
 10
-28.9425
 20
65.1134
 11
-27.5908
 21
72.1372
  0
LINE
  8
0
 10
-27.5908
 20
72.1372
 11
-26.2391
 21
65.1136
  0
LINE
  8
0
 10
-26.2391
 20
65.1136
 11
-20.8325
 21
60.4312
  0
LINE
  8
0
 10
-20.8325
 20
60.4312
 11
-27.5908
 21
62.772
  0
LINE
  8
0
 10
-27.5908
 20
62.772
 11
-34.349
 21
60.4311
  0
LINE
  8
0
 10
-34.349
 20
60.4311
 11
-28.9425
 21
65.1134
  0
LINE
  8
0
 10
34.8476
 20
61.571
 11
28.0893
 21
59.23
  0
LINE
  8
0
 10
28.0893
 20
59.23
 11
33.4961
 21
63.9124
  0
LINE
  8
0
 10
33.4961
 20
63.9124
 11
34.8476
 21
70.9357
  0
LINE
  8
0
 10
34.8476
 20
70.9357
 11
36.1991
 21
63.9124
  0
LINE
  8
0
 10
36.1991
 20
63.9124
 11
41.6059
 21
59.2298
  0
LINE
  8
0
 10
41.6059
 20
59.2298
 11
34.8476
 21
61.571
  0
LINE
  8
0
 10
7.10655
 20
64.2461
 11
1.69978
 21
68.9287
  0
LINE
  8
0
 10
1.69978
 20
68.9287
 11
8.45807
 21
66.5874
  0
LINE
  8
0
 10
8.45807
 20
66.5874
 11
15.2163
 21
68.9285
  0
LINE
  8
0
 10
15.2163
 20
68.9285
 11
9.80957
 21
64.2461
  0
LINE
  8
0
 10
9.80957
 20
64.2461
 11
8.45807
 21
57.2227
  0
LINE
  8
0
 10
8.45807
 20
57.2227
 11
7.10655
 21
64.2461
  0
LINE
  8
0
 10
-10.8605
 20
58.2894
 11
-17.6187
 21
55.9483
  0
LINE
  8
0
 10
-17.6187
 20
55.9483
 11
-12.212
 21
60.6307
  0
LINE
  8
0
 10
-12.212
 20
60.6307
 11
-10.8605
 21
67.6541
  0
LINE
  8
0
 10
-10.8605
 20
67.6541
 11
-9.50897
 21
60.6307
  0
LINE
  8
0
 10
-9.50897
 20
60.6307
 11
-4.10219
 21
55.9481
  0
LINE
  8
0
 10
-4.10219
 20
55.9481
 11
-10.8605
 21
58.2894
  0
LINE
  8
0
 10
-40.9135
 20
66.0746
 11
-40.472
 21
67.4333
  0
LINE
  8
0
 10
-40.472
 20
67.4333
 11
-37.5629
 21
64.9138
  0
LINE
  8
0
 10
-37.5629
 20
64.9138
 11
-40.9135
 21
66.0746
  0
LINE
  8
0
 10
-38.6016
 20
60.9643
 11
-41.7016
 21
63.6491
  0
LINE
  8
0
 10
-41.7016
 20
63.6491
 11
-41.3515
 21
64.7265
  0
LINE
  8
0
 10
-41.3515
 20
64.7265
 11
-37.2501
 21
63.3057
  0
LINE
  8
0
 10
-37.2501
 20
63.3057
 11
-30.4918
 21
65.6467
  0
LINE
  8
0
 10
-30.4918
 20
65.6467
 11
-35.8986
 21
60.9643
  0
LINE
  8
0
 10
-35.8986
 20
60.9643
 11
-37.2501
 21
53.9409
  0
LINE
  8
0
 10
-37.2501
 20
53.9409
 11
-38.6016
 21
60.9643
  0
LINE
  8
0
 10
23.8367
 20
59.7632
 11
18.4301
 21
64.4456
  0
LINE
  8
0
 10
18.4301
 20
64.4456
 11
25.1883
 21
62.1047
  0
LINE
  8
0
 10
25.1883
 20
62.1047
 11
31.9466
 21
64.4457
  0
LINE
  8
0
 10
31.9466
 20
64.4457
 11
26.54
 21
59.7633
  0
LINE
  8
0
 10
26.54
 20
59.7633
 11
25.1883
 21
52.7395
  0
LINE
  8
0
 10
25.1883
 20
52.7395
 11
23.8367
 21
59.7632
  0
LINE
  8
0
 10
4.51813
 20
56.1476
 11
5.86986
 21
63.1714
  0
LINE
  8
0
 10
5.86986
 20
63.1714
 11
7.22157
 21
56.1478
  0
LINE
  8
0
 10
7.22157
 20
56.1478
 11
12.6281
 21
51.4655
  0
LINE
  8
0
 10
12.6281
 20
51.4655
 11
5.86986
 21
53.8063
  0
LINE
  8
0
 10
5.86986
 20
53.8063
 11
-0.888519
 21
51.4654
  0
LINE
  8
0
 10
-0.888519
 20
51.4654
 11
4.51813
 21
56.1476
  0
LINE
  8
0
 10
-21.8715
 20
56.4815
 11
-27.278
 21
61.1638
  0
LINE
  8
0
 10
-27.278
 20
61.1638
 11
-20.5197
 21
58.823
  0
LINE
  8
0
 10
-20.5197
 20
58.823
 11
-13.7616
 21
61.1639
  0
LINE
  8
0
 10
-13.7616
 20
61.1639
 11
-19.168
 21
56.4817
  0
LINE
  8
0
 10
-19.168
 20
56.4817
 11
-20.5197
 21
49.4579
  0
LINE
  8
0
 10
-20.5197
 20
49.4579
 11
-21.8715
 21
56.4815
  0
LINE
  8
0
 10
40.5671
 20
55.2803
 11
35.1604
 21
59.9628
  0
LINE
  8
0
 10
35.1604
 20
59.9628
 11
41.9186
 21
57.6216
  0
LINE
  8
0
 10
41.9186
 20
57.6216
 11
43.4839
 21
58.1638
  0
LINE
  8
0
 10
43.4839
 20
58.1638
 11
44.1681
 21
56.0579
  0
LINE
  8
0
 10
44.1681
 20
56.0579
 11
43.2701
 21
55.2803
  0
LINE
  8
0
 10
43.2701
 20
55.2803
 11
41.9186
 21
48.2569
  0
LINE
  8
0
 10
41.9186
 20
48.2569
 11
40.5671
 21
55.2803
  0
LINE
  8
0
 10
-41.1899
 20
52.866
 11
-39.8383
 21
59.8897
  0
LINE
  8
0
 10
-39.8383
 20
59.8897
 11
-38.4866
 21
52.8661
  0
LINE
  8
0
 10
-38.4866
 20
52.8661
 11
-33.08
 21
48.1837
  0
LINE
  8
0
 10
-33.08
 20
48.1837
 11
-39.8382
 21
50.5246
  0
LINE
  8
0
 10
-39.8382
 20
50.5246
 11
-46.5965
 21
48.1836
  0
LINE
  8
0
 10
-46.5965
 20
48.1836
 11
-41.1899
 21
52.866
  0
LINE
  8
0
 10
22.6002
 20
49.3237
 11
15.8419
 21
46.9826
  0
LINE
  8
0
 10
15.8419
 20
46.9826
 11
21.2487
 21
51.665
  0
LINE
  8
0
 10
21.2487
 20
51.665
 11
22.6002
 21
58.6884
  0
LINE
  8
0
 10
22.6002
 20
58.6884
 11
23.9517
 21
51.665
  0
LINE
  8
0
 10
23.9517
 20
51.665
 11
29.3585
 21
46.9824
  0
LINE
  8
0
 10
29.3585
 20
46.9824
 11
22.6002
 21
49.3237
  0
LINE
  8
0
 10
-5.14091
 20
51.9986
 11
-10.5477
 21
56.6812
  0
LINE
  8
0
 10
-10.5477
 20
56.6812
 11
-3.7894
 21
54.34
  0
LINE
  8
0
 10
-3.7894
 20
54.34
 11
2.96886
 21
56.681
  0
LINE
  8
0
 10
2.96886
 20
56.681
 11
-2.4379
 21
51.9986
  0
LINE
  8
0
 10
-2.4379
 20
51.9986
 11
-3.7894
 21
44.9752
  0
LINE
  8
0
 10
-3.7894
 20
44.9752
 11
-5.14091
 21
51.9986
  0
LINE
  8
0
 10
-23.108
 20
46.0419
 11
-29.8662
 21
43.7009
  0
LINE
  8
0
 10
-29.8662
 20
43.7009
 11
-24.4595
 21
48.3832
  0
LINE
  8
0
 10
-24.4595
 20
48.3832
 11
-23.108
 21
55.4066
  0
LINE
  8
0
 10
-23.108
 20
55.4066
 11
-21.7565
 21
48.3832
  0
LINE
  8
0
 10
-21.7565
 20
48.3832
 11
-16.3497
 21
43.7007
  0
LINE
  8
0
 10
-16.3497
 20
43.7007
 11
-23.108
 21
46.0419
  0
LINE
  8
0
 10
39.3305
 20
44.8406
 11
32.5722
 21
42.4997
  0
LINE
  8
0
 10
32.5722
 20
42.4997
 11
37.9788
 21
47.1819
  0
LINE
  8
0
 10
37.9788
 20
47.1819
 11
39.3304
 21
54.2056
  0
LINE
  8
0
 10
39.3304
 20
54.2056
 11
40.6822
 21
47.182
  0
LINE
  8
0
 10
40.6822
 20
47.182
 11
46.0887
 21
42.4997
  0
LINE
  8
0
 10
46.0887
 20
42.4997
 11
39.3305
 21
44.8406
  0
LINE
  8
0
 10
-45.3227
 20
52.5044
 11
-42.7392
 21
53.3993
  0
LINE
  8
0
 10
-42.7392
 20
53.3993
 11
-45.9297
 21
50.6362
  0
LINE
  8
0
 10
-45.9297
 20
50.6362
 11
-45.3227
 21
52.5044
  0
LINE
  8
0
 10
11.5892
 20
47.5157
 11
6.18265
 21
52.1981
  0
LINE
  8
0
 10
6.18265
 20
52.1981
 11
12.9409
 21
49.8573
  0
LINE
  8
0
 10
12.9409
 20
49.8573
 11
19.6991
 21
52.1982
  0
LINE
  8
0
 10
19.6991
 20
52.1982
 11
14.2926
 21
47.516
  0
LINE
  8
0
 10
14.2926
 20
47.516
 11
12.9409
 21
40.4921
  0
LINE
  8
0
 10
12.9409
 20
40.4921
 11
11.5892
 21
47.5157
  0
LINE
  8
0
 10
-7.72934
 20
43.9001
 11
-6.37761
 21
50.924
  0
LINE
  8
0
 10
-6.37761
 20
50.924
 11
-5.02589
 21
43.9004
  0
LINE
  8
0
 10
-5.02589
 20
43.9004
 11
0.380646
 21
39.218
  0
LINE
  8
0
 10
0.380646
 20
39.218
 11
-6.37761
 21
41.5588
  0
LINE
  8
0
 10
-6.37761
 20
41.5588
 11
-13.136
 21
39.2179
  0
LINE
  8
0
 10
-13.136
 20
39.2179
 11
-7.72934
 21
43.9001
  0
LINE
  8
0
 10
-34.1189
 20
44.2341
 11
-39.5254
 21
48.9164
  0
LINE
  8
0
 10
-39.5254
 20
48.9164
 11
-32.7672
 21
46.5755
  0
LINE
  8
0
 10
-32.7672
 20
46.5755
 11
-26.009
 21
48.9165
  0
LINE
  8
0
 10
-26.009
 20
48.9165
 11
-31.4155
 21
44.2342
  0
LINE
  8
0
 10
-31.4155
 20
44.2342
 11
-32.7672
 21
37.2104
  0
LINE
  8
0
 10
-32.7672
 20
37.2104
 11
-34.1189
 21
44.2341
  0
LINE
  8
0
 10
28.3198
 20
43.0329
 11
22.913
 21
47.7155
  0
LINE
  8
0
 10
22.913
 20
47.7155
 11
29.6713
 21
45.3742
  0
LINE
  8
0
 10
29.6713
 20
45.3742
 11
36.4296
 21
47.7152
  0
LINE
  8
0
 10
36.4296
 20
47.7152
 11
31.0228
 21
43.0329
  0
LINE
  8
0
 10
31.0228
 20
43.0329
 11
29.6713
 21
36.0095
  0
LINE
  8
0
 10
29.6713
 20
36.0095
 11
28.3198
 21
43.0329
  0
LINE
  8
0
 10
10.3527
 20
37.0762
 11
3.59444
 21
34.7352
  0
LINE
  8
0
 10
3.59444
 20
34.7352
 11
9.00121
 21
39.4175
  0
LINE
  8
0
 10
9.00121
 20
39.4175
 11
10.3527
 21
46.4409
  0
LINE
  8
0
 10
10.3527
 20
46.4409
 11
11.7042
 21
39.4175
  0
LINE
  8
0
 10
11.7042
 20
39.4175
 11
17.111
 21
34.7349
  0
LINE
  8
0
 10
17.111
 20
34.7349
 11
10.3527
 21
37.0762
  0
LINE
  8
0
 10
-17.3884
 20
39.7511
 11
-22.7952
 21
44.4337
  0
LINE
  8
0
 10
-22.7952
 20
44.4337
 11
-16.0369
 21
42.0925
  0
LINE
  8
0
 10
-16.0369
 20
42.0925
 11
-9.27861
 21
44.4335
  0
LINE
  8
0
 10
-9.27861
 20
44.4335
 11
-14.6854
 21
39.7511
  0
LINE
  8
0
 10
-14.6854
 20
39.7511
 11
-16.0369
 21
32.7277
  0
LINE
  8
0
 10
-16.0369
 20
32.7277
 11
-17.3884
 21
39.7511
  0
LINE
  8
0
 10
45.0499
 20
38.55
 11
39.6433
 21
43.2324
  0
LINE
  8
0
 10
39.6433
 20
43.2324
 11
46.4015
 21
40.8915
  0
LINE
  8
0
 10
46.4015
 20
40.8915
 11
48.8234
 21
41.7304
  0
LINE
  8
0
 10
48.8234
 20
41.7304
 11
49.3948
 21
39.9718
  0
LINE
  8
0
 10
49.3948
 20
39.9718
 11
47.7532
 21
38.5501
  0
LINE
  8
0
 10
47.7532
 20
38.5501
 11
46.4015
 21
31.5263
  0
LINE
  8
0
 10
46.4015
 20
31.5263
 11
45.0499
 21
38.55
  0
LINE
  8
0
 10
-35.3553
 20
33.7945
 11
-42.1136
 21
31.4535
  0
LINE
  8
0
 10
-42.1136
 20
31.4535
 11
-36.7068
 21
36.1358
  0
LINE
  8
0
 10
-36.7068
 20
36.1358
 11
-35.3553
 21
43.1592
  0
LINE
  8
0
 10
-35.3553
 20
43.1592
 11
-34.0038
 21
36.1358
  0
LINE
  8
0
 10
-34.0038
 20
36.1358
 11
-28.5971
 21
31.4533
  0
LINE
  8
0
 10
-28.5971
 20
31.4533
 11
-35.3553
 21
33.7945
  0
LINE
  8
0
 10
25.7313
 20
34.9344
 11
27.0831
 21
41.9582
  0
LINE
  8
0
 10
27.0831
 20
41.9582
 11
28.4348
 21
34.9346
  0
LINE
  8
0
 10
28.4348
 20
34.9346
 11
33.8413
 21
30.2523
  0
LINE
  8
0
 10
33.8413
 20
30.2523
 11
27.0831
 21
32.5931
  0
LINE
  8
0
 10
27.0831
 20
32.5931
 11
20.3247
 21
30.2522
  0
LINE
  8
0
 10
20.3247
 20
30.2522
 11
25.7313
 21
34.9344
  0
LINE
  8
0
 10
-0.658264
 20
35.2683
 11
-6.06482
 21
39.9506
  0
LINE
  8
0
 10
-6.06482
 20
39.9506
 11
0.693436
 21
37.6098
  0
LINE
  8
0
 10
0.693436
 20
37.6098
 11
7.45161
 21
39.9507
  0
LINE
  8
0
 10
7.45161
 20
39.9507
 11
2.04517
 21
35.2685
  0
LINE
  8
0
 10
2.04517
 20
35.2685
 11
0.693436
 21
28.2447
  0
LINE
  8
0
 10
0.693436
 20
28.2447
 11
-0.658264
 21
35.2683
  0
LINE
  8
0
 10
-50.1619
 20
37.6109
 11
-49.5249
 21
39.5716
  0
LINE
  8
0
 10
-49.5249
 20
39.5716
 11
-45.3274
 21
35.9364
  0
LINE
  8
0
 10
-45.3274
 20
35.9364
 11
-50.1619
 21
37.6109
  0
LINE
  8
0
 10
-18.625
 20
29.3114
 11
-25.3834
 21
26.9705
  0
LINE
  8
0
 10
-25.3834
 20
26.9705
 11
-19.9767
 21
31.6528
  0
LINE
  8
0
 10
-19.9767
 20
31.6528
 11
-18.6251
 21
38.6765
  0
LINE
  8
0
 10
-18.6251
 20
38.6765
 11
-17.2734
 21
31.6529
  0
LINE
  8
0
 10
-17.2734
 20
31.6529
 11
-11.8668
 21
26.9705
  0
LINE
  8
0
 10
-11.8668
 20
26.9705
 11
-18.625
 21
29.3114
  0
LINE
  8
0
 10
49.8703
 20
38.5085
 11
49.9564
 21
38.2433
  0
LINE
  8
0
 10
49.9564
 20
38.2433
 11
49.3025
 21
38.0168
  0
LINE
  8
0
 10
49.3025
 20
38.0168
 11
49.8703
 21
38.5085
  0
LINE
  8
0
 10
43.8134
 20
28.1104
 11
37.0551
 21
25.7694
  0
LINE
  8
0
 10
37.0551
 20
25.7694
 11
42.4619
 21
30.4518
  0
LINE
  8
0
 10
42.4619
 20
30.4518
 11
43.8134
 21
37.4752
  0
LINE
  8
0
 10
43.8134
 20
37.4752
 11
45.1649
 21
30.4518
  0
LINE
  8
0
 10
45.1649
 20
30.4518
 11
50.5717
 21
25.7692
  0
LINE
  8
0
 10
50.5717
 20
25.7692
 11
43.8134
 21
28.1104
  0
LINE
  8
0
 10
-46.3662
 20
31.9867
 11
-50.7545
 21
35.7872
  0
LINE
  8
0
 10
-50.7545
 20
35.7872
 11
-50.5999
 21
36.2628
  0
LINE
  8
0
 10
-50.5999
 20
36.2628
 11
-45.0146
 21
34.3282
  0
LINE
  8
0
 10
-45.0146
 20
34.3282
 11
-38.2563
 21
36.6692
  0
LINE
  8
0
 10
-38.2563
 20
36.6692
 11
-43.6629
 21
31.9868
  0
LINE
  8
0
 10
-43.6629
 20
31.9868
 11
-45.0146
 21
24.963
  0
LINE
  8
0
 10
-45.0146
 20
24.963
 11
-46.3662
 21
31.9867
  0
LINE
  8
0
 10
16.0723
 20
30.7854
 11
10.6655
 21
35.468
  0
LINE
  8
0
 10
10.6655
 20
35.468
 11
17.4238
 21
33.1267
  0
LINE
  8
0
 10
17.4238
 20
33.1267
 11
24.1821
 21
35.4678
  0
LINE
  8
0
 10
24.1821
 20
35.4678
 11
18.7753
 21
30.7854
  0
LINE
  8
0
 10
18.7753
 20
30.7854
 11
17.4238
 21
23.762
  0
LINE
  8
0
 10
17.4238
 20
23.762
 11
16.0723
 21
30.7854
  0
LINE
  8
0
 10
-1.89476
 20
24.8287
 11
-8.65303
 21
22.4877
  0
LINE
  8
0
 10
-8.65303
 20
22.4877
 11
-3.24626
 21
27.17
  0
LINE
  8
0
 10
-3.24626
 20
27.17
 11
-1.89476
 21
34.1934
  0
LINE
  8
0
 10
-1.89476
 20
34.1934
 11
-0.543243
 21
27.17
  0
LINE
  8
0
 10
-0.543243
 20
27.17
 11
4.86351
 21
22.4874
  0
LINE
  8
0
 10
4.86351
 20
22.4874
 11
-1.89476
 21
24.8287
  0
LINE
  8
0
 10
-29.6358
 20
27.5037
 11
-35.0425
 21
32.1863
  0
LINE
  8
0
 10
-35.0425
 20
32.1863
 11
-28.2843
 21
29.8451
  0
LINE
  8
0
 10
-28.2843
 20
29.8451
 11
-21.526
 21
32.1861
  0
LINE
  8
0
 10
-21.526
 20
32.1861
 11
-26.9328
 21
27.5037
  0
LINE
  8
0
 10
-26.9328
 20
27.5037
 11
-28.2843
 21
20.4804
  0
LINE
  8
0
 10
-28.2843
 20
20.4804
 11
-29.6358
 21
27.5037
  0
LINE
  8
0
 10
32.8024
 20
26.3025
 11
27.3958
 21
30.9849
  0
LINE
  8
0
 10
27.3958
 20
30.9849
 11
34.1541
 21
28.6441
  0
LINE
  8
0
 10
34.1541
 20
28.6441
 11
40.9123
 21
30.985
  0
LINE
  8
0
 10
40.9123
 20
30.985
 11
35.5058
 21
26.3027
  0
LINE
  8
0
 10
35.5058
 20
26.3027
 11
34.1541
 21
19.2789
  0
LINE
  8
0
 10
34.1541
 20
19.2789
 11
32.8024
 21
26.3025
  0
LINE
  8
0
 10
-47.6027
 20
21.5471
 11
-54.361
 21
19.2061
  0
LINE
  8
0
 10
-54.361
 20
19.2061
 11
-48.9542
 21
23.8885
  0
LINE
  8
0
 10
-48.9542
 20
23.8885
 11
-47.6027
 21
30.9118
  0
LINE
  8
0
 10
-47.6027
 20
30.9118
 11
-46.2512
 21
23.8885
  0
LINE
  8
0
 10
-46.2512
 20
23.8885
 11
-40.8444
 21
19.2059
  0
LINE
  8
0
 10
-40.8444
 20
19.2059
 11
-47.6027
 21
21.5471
  0
LINE
  8
0
 10
13.4839
 20
22.687
 11
14.8356
 21
29.7108
  0
LINE
  8
0
 10
14.8356
 20
29.7108
 11
16.1873
 21
22.6872
  0
LINE
  8
0
 10
16.1873
 20
22.6872
 11
21.5939
 21
18.0048
  0
LINE
  8
0
 10
21.5939
 20
18.0048
 11
14.8356
 21
20.3456
  0
LINE
  8
0
 10
14.8356
 20
20.3456
 11
8.07741
 21
18.0047
  0
LINE
  8
0
 10
8.07741
 20
18.0047
 11
13.4839
 21
22.687
  0
LINE
  8
0
 10
-12.9056
 20
23.0209
 11
-18.3122
 21
27.7032
  0
LINE
  8
0
 10
-18.3122
 20
27.7032
 11
-11.554
 21
25.3623
  0
LINE
  8
0
 10
-11.554
 20
25.3623
 11
-4.79575
 21
27.7034
  0
LINE
  8
0
 10
-4.79575
 20
27.7034
 11
-10.2023
 21
23.021
  0
LINE
  8
0
 10
-10.2023
 20
23.021
 11
-11.554
 21
15.9972
  0
LINE
  8
0
 10
-11.554
 20
15.9972
 11
-12.9056
 21
23.0209
  0
LINE
  8
0
 10
49.533
 20
21.8197
 11
44.1262
 21
26.5023
  0
LINE
  8
0
 10
44.1262
 20
26.5023
 11
50.8845
 21
24.161
  0
LINE
  8
0
 10
50.8845
 20
24.161
 11
54.1631
 21
25.2967
  0
LINE
  8
0
 10
54.1631
 20
25.2967
 11
54.6215
 21
23.8856
  0
LINE
  8
0
 10
54.6215
 20
23.8856
 11
52.236
 21
21.8197
  0
LINE
  8
0
 10
52.236
 20
21.8197
 11
50.8845
 21
14.7963
  0
LINE
  8
0
 10
50.8845
 20
14.7963
 11
49.533
 21
21.8197
  0
LINE
  8
0
 10
-30.8724
 20
17.0641
 11
-37.6308
 21
14.7231
  0
LINE
  8
0
 10
-37.6308
 20
14.7231
 11
-32.2241
 21
19.4054
  0
LINE
  8
0
 10
-32.2241
 20
19.4054
 11
-30.8725
 21
26.4291
  0
LINE
  8
0
 10
-30.8725
 20
26.4291
 11
-29.5208
 21
19.4055
  0
LINE
  8
0
 10
-29.5208
 20
19.4055
 11
-24.1142
 21
14.7231
  0
LINE
  8
0
 10
-24.1142
 20
14.7231
 11
-30.8724
 21
17.0641
  0
LINE
  8
0
 10
31.5659
 20
15.863
 11
24.8076
 21
13.5219
  0
LINE
  8
0
 10
24.8076
 20
13.5219
 11
30.2144
 21
18.2043
  0
LINE
  8
0
 10
30.2144
 20
18.2043
 11
31.5659
 21
25.2277
  0
LINE
  8
0
 10
31.5659
 20
25.2277
 11
32.9174
 21
18.2043
  0
LINE
  8
0
 10
32.9174
 20
18.2043
 11
38.3242
 21
13.5217
  0
LINE
  8
0
 10
38.3242
 20
13.5217
 11
31.5659
 21
15.863
  0
LINE
  8
0
 10
-57.6298
 20
14.627
 11
-54.9475
 21
22.8825
  0
LINE
  8
0
 10
-54.9475
 20
22.8825
 11
-50.5038
 21
24.4217
  0
LINE
  8
0
 10
-50.5038
 20
24.4217
 11
-55.9103
 21
19.7394
  0
LINE
  8
0
 10
-55.9103
 20
19.7394
 11
-57.262
 21
12.7156
  0
LINE
  8
0
 10
-57.262
 20
12.7156
 11
-57.6298
 21
14.627
  0
LINE
  8
0
 10
5.08289
 20
12
 11
3.8248
 21
18.5379
  0
LINE
  8
0
 10
3.8248
 20
18.5379
 11
-1.58195
 21
23.2205
  0
LINE
  8
0
 10
-1.58195
 20
23.2205
 11
5.1763
 21
20.8793
  0
LINE
  8
0
 10
5.1763
 20
20.8793
 11
11.9346
 21
23.2203
  0
LINE
  8
0
 10
11.9346
 20
23.2203
 11
6.5278
 21
18.5379
  0
LINE
  8
0
 10
6.5278
 20
18.5379
 11
5.26971
 21
12
  0
LINE
  8
0
 10
5.26971
 20
12
 11
5.08289
 21
12
  0
LINE
  8
0
 10
55.097
 20
22.4222
 11
55.2961
 21
21.8096
  0
LINE
  8
0
 10
55.2961
 20
21.8096
 11
53.7855
 21
21.2863
  0
LINE
  8
0
 10
53.7855
 20
21.2863
 11
55.097
 21
22.4222
  0
LINE
  8
0
 10
-18.8684
 20
12
 11
-15.4936
 21
14.9227
  0
LINE
  8
0
 10
-15.4936
 20
14.9227
 11
-14.1421
 21
21.946
  0
LINE
  8
0
 10
-14.1421
 20
21.946
 11
-12.7906
 21
14.9227
  0
LINE
  8
0
 10
-12.7906
 20
14.9227
 11
-9.41597
 21
12
  0
LINE
  8
0
 10
-9.41597
 20
12
 11
-12.4641
 21
12
  0
LINE
  8
0
 10
-12.4641
 20
12
 11
-14.1421
 21
12.5813
  0
LINE
  8
0
 10
-14.1421
 20
12.5813
 11
-15.8203
 21
12
  0
LINE
  8
0
 10
-15.8203
 20
12
 11
-18.8684
 21
12
  0
LINE
  8
0
 10
44.957
 20
12
 11
46.9445
 21
13.7212
  0
LINE
  8
0
 10
46.9445
 20
13.7212
 11
48.2963
 21
20.745
  0
LINE
  8
0
 10
48.2963
 20
20.745
 11
49.648
 21
13.7214
  0
LINE
  8
0
 10
49.648
 20
13.7214
 11
51.6357
 21
12
  0
LINE
  8
0
 10
51.6357
 20
12
 11
44.957
 21
12
  0
LINE
  8
0
 10
-41.2565
 20
12
 11
-41.8831
 21
15.2564
  0
LINE
  8
0
 10
-41.8831
 20
15.2564
 11
-47.2899
 21
19.9389
  0
LINE
  8
0
 10
-47.2899
 20
19.9389
 11
-40.5316
 21
17.5977
  0
LINE
  8
0
 10
-40.5316
 20
17.5977
 11
-33.7734
 21
19.9387
  0
LINE
  8
0
 10
-33.7734
 20
19.9387
 11
-39.1801
 21
15.2564
  0
LINE
  8
0
 10
-39.1801
 20
15.2564
 11
-39.8067
 21
12
  0
LINE
  8
0
 10
-39.8067
 20
12
 11
-41.2565
 21
12
  0
LINE
  8
0
 10
20.9504
 20
12
 11
20.5549
 21
14.0551
  0
LINE
  8
0
 10
20.5549
 20
14.0551
 11
15.1484
 21
18.7374
  0
LINE
  8
0
 10
15.1484
 20
18.7374
 11
21.9066
 21
16.3966
  0
LINE
  8
0
 10
21.9066
 20
16.3966
 11
28.6648
 21
18.7375
  0
LINE
  8
0
 10
28.6648
 20
18.7375
 11
23.2584
 21
14.0553
  0
LINE
  8
0
 10
23.2584
 20
14.0553
 11
22.8628
 21
12
  0
LINE
  8
0
 10
22.8628
 20
12
 11
20.9504
 21
12
  0
LINE
  8
0
 10
1.53676
 20
12
 11
2.58809
 21
17.4633
  0
LINE
  8
0
 10
2.58809
 20
17.4633
 11
3.63953
 21
12
  0
LINE
  8
0
 10
3.63953
 20
12
 11
1.53676
 21
12
  0
LINE
  8
0
 10
-26.5692
 20
12
 11
-30.5596
 21
15.4559
  0
LINE
  8
0
 10
-30.5596
 20
15.4559
 11
-23.8014
 21
13.115
  0
LINE
  8
0
 10
-23.8014
 20
13.115
 11
-17.0431
 21
15.456
  0
LINE
  8
0
 10
-17.0431
 20
15.456
 11
-21.0336
 21
12
  0
LINE
  8
0
 10
-21.0336
 20
12
 11
-26.5692
 21
12
  0
LINE
  8
0
 10
34.4822
 20
12
 11
31.8787
 21
14.2548
  0
LINE
  8
0
 10
31.8787
 20
14.2548
 11
38.3874
 21
12
  0
LINE
  8
0
 10
38.3874
 20
12
 11
34.4822
 21
12
  0
LINE
  8
0
 10
38.8866
 20
12
 11
45.3953
 21
14.2546
  0
LINE
  8
0
 10
45.3953
 20
14.2546
 11
42.7919
 21
12
  0
LINE
  8
0
 10
42.7919
 20
12
 11
38.8866
 21
12
  0
LINE
  8
0
 10
-43.5397
 20
12
 11
-43.1198
 21
14.1817
  0
LINE
  8
0
 10
-43.1198
 20
14.1817
 11
-42.7
 21
12
  0
LINE
  8
0
 10
-42.7
 20
12
 11
-43.5397
 21
12
  0
LINE
  8
0
 10
19.1298
 20
12
 11
19.3184
 21
12.9802
  0
LINE
  8
0
 10
19.3184
 20
12.9802
 11
19.507
 21
12
  0
LINE
  8
0
 10
19.507
 20
12
 11
19.1298
 21
12
  0
LINE
  8
0
 10
-10
 20
7
 11
-10
 21
11
  0
LINE
  8
0
 10
-10
 20
11
 11
10
 21
11
  0
LINE
  8
0
 10
10
 20
11
 11
10
 21
7
  0
LINE
  8
0
 10
10
 20
7
 11
-10
 21
7
  0
LINE
  8
0
 10
68.4023
 20
2.70622
 11
68.2772
 21
2.71805
  0
LINE
  8
0
 10
68.2772
 20
2.71805
 11
68.1531
 21
2.7377
  0
LINE
  8
0
 10
68.1531
 20
2.7377
 11
68.0305
 21
2.76511
  0
LINE
  8
0
 10
68.0305
 20
2.76511
 11
67.9098
 21
2.80016
  0
LINE
  8
0
 10
67.9098
 20
2.80016
 11
67.7916
 21
2.84273
  0
LINE
  8
0
 10
67.7916
 20
2.84273
 11
67.6763
 21
2.89262
  0
LINE
  8
0
 10
67.6763
 20
2.89262
 11
67.5643
 21
2.94966
  0
LINE
  8
0
 10
67.5643
 20
2.94966
 11
67.4562
 21
3.01363
  0
LINE
  8
0
 10
67.4562
 20
3.01363
 11
67.3523
 21
3.08424
  0
LINE
  8
0
 10
67.3523
 20
3.08424
 11
67.253
 21
3.16125
  0
LINE
  8
0
 10
67.253
 20
3.16125
 11
67.1588
 21
3.24434
  0
LINE
  8
0
 10
67.1588
 20
3.24434
 11
67.0699
 21
3.33318
  0
LINE
  8
0
 10
67.0699
 20
3.33318
 11
66.9868
 21
3.42743
  0
LINE
  8
0
 10
66.9868
 20
3.42743
 11
66.9098
 21
3.5267
  0
LINE
  8
0
 10
66.9098
 20
3.5267
 11
66.8392
 21
3.63062
  0
LINE
  8
0
 10
66.8392
 20
3.63062
 11
66.7752
 21
3.73877
  0
LINE
  8
0
 10
66.7752
 20
3.73877
 11
66.7182
 21
3.85072
  0
LINE
  8
0
 10
66.7182
 20
3.85072
 11
66.6683
 21
3.96602
  0
LINE
  8
0
 10
66.6683
 20
3.96602
 11
66.6257
 21
4.08424
  0
LINE
  8
0
 10
66.6257
 20
4.08424
 11
66.5907
 21
4.2049
  0
LINE
  8
0
 10
66.5907
 20
4.2049
 11
66.5633
 21
4.32751
  0
LINE
  8
0
 10
66.5633
 20
4.32751
 11
66.5436
 21
4.45161
  0
LINE
  8
0
 10
66.5436
 20
4.45161
 11
66.5318
 21
4.57669
  0
LINE
  8
0
 10
66.5318
 20
4.57669
 11
66.5279
 21
4.70227
  0
LINE
  8
0
 10
66.5279
 20
4.70227
 11
66.5318
 21
4.82785
  0
LINE
  8
0
 10
66.5318
 20
4.82785
 11
66.5436
 21
4.95294
  0
LINE
  8
0
 10
66.5436
 20
4.95294
 11
66.5633
 21
5.07704
  0
LINE
  8
0
 10
66.5633
 20
5.07704
 11
66.5907
 21
5.19966
  0
LINE
  8
0
 10
66.5907
 20
5.19966
 11
66.6257
 21
5.32031
  0
LINE
  8
0
 10
66.6257
 20
5.32031
 11
66.6683
 21
5.43852
  0
LINE
  8
0
 10
66.6683
 20
5.43852
 11
66.7182
 21
5.55383
  0
LINE
  8
0
 10
66.7182
 20
5.55383
 11
66.7752
 21
5.66579
  0
LINE
  8
0
 10
66.7752
 20
5.66579
 11
66.8392
 21
5.77393
  0
LINE
  8
0
 10
66.8392
 20
5.77393
 11
66.9098
 21
5.87784
  0
LINE
  8
0
 10
66.9098
 20
5.87784
 11
66.9868
 21
5.97713
  0
LINE
  8
0
 10
66.9868
 20
5.97713
 11
67.0699
 21
6.07137
  0
LINE
  8
0
 10
67.0699
 20
6.07137
 11
67.1588
 21
6.16022
  0
LINE
  8
0
 10
67.1588
 20
6.16022
 11
67.253
 21
6.2433
  0
LINE
  8
0
 10
67.253
 20
6.2433
 11
67.3523
 21
6.32031
  0
LINE
  8
0
 10
67.3523
 20
6.32031
 11
67.4562
 21
6.39093
  0
LINE
  8
0
 10
67.4562
 20
6.39093
 11
67.5643
 21
6.4549
  0
LINE
  8
0
 10
67.5643
 20
6.4549
 11
67.6763
 21
6.51193
  0
LINE
  8
0
 10
67.6763
 20
6.51193
 11
67.7916
 21
6.56183
  0
LINE
  8
0
 10
67.7916
 20
6.56183
 11
67.9098
 21
6.60439
  0
LINE
  8
0
 10
67.9098
 20
6.60439
 11
68.0305
 21
6.63943
  0
LINE
  8
0
 10
68.0305
 20
6.63943
 11
68.1531
 21
6.66685
  0
LINE
  8
0
 10
68.1531
 20
6.66685
 11
68.2772
 21
6.68651
  0
LINE
  8
0
 10
68.2772
 20
6.68651
 11
68.4023
 21
6.69833
  0
LINE
  8
0
 10
68.4023
 20
6.69833
 11
68.5279
 21
6.70227
  0
LINE
  8
0
 10
68.5279
 20
6.70227
 11
68.6534
 21
6.69833
  0
LINE
  8
0
 10
68.6534
 20
6.69833
 11
68.7785
 21
6.68651
  0
LINE
  8
0
 10
68.7785
 20
6.68651
 11
68.9026
 21
6.66685
  0
LINE
  8
0
 10
68.9026
 20
6.66685
 11
69.0252
 21
6.63943
  0
LINE
  8
0
 10
69.0252
 20
6.63943
 11
69.1459
 21
6.60439
  0
LINE
  8
0
 10
69.1459
 20
6.60439
 11
69.2641
 21
6.56183
  0
LINE
  8
0
 10
69.2641
 20
6.56183
 11
69.3794
 21
6.51193
  0
LINE
  8
0
 10
69.3794
 20
6.51193
 11
69.4914
 21
6.4549
  0
LINE
  8
0
 10
69.4914
 20
6.4549
 11
69.5995
 21
6.39093
  0
LINE
  8
0
 10
69.5995
 20
6.39093
 11
69.7034
 21
6.32031
  0
LINE
  8
0
 10
69.7034
 20
6.32031
 11
69.8027
 21
6.2433
  0
LINE
  8
0
 10
69.8027
 20
6.2433
 11
69.897
 21
6.16022
  0
LINE
  8
0
 10
69.897
 20
6.16022
 11
69.9858
 21
6.07137
  0
LINE
  8
0
 10
69.9858
 20
6.07137
 11
70.0689
 21
5.97713
  0
LINE
  8
0
 10
70.0689
 20
5.97713
 11
70.1459
 21
5.87784
  0
LINE
  8
0
 10
70.1459
 20
5.87784
 11
70.2165
 21
5.77393
  0
LINE
  8
0
 10
70.2165
 20
5.77393
 11
70.2805
 21
5.66579
  0
LINE
  8
0
 10
70.2805
 20
5.66579
 11
70.3375
 21
5.55383
  0
LINE
  8
0
 10
70.3375
 20
5.55383
 11
70.3874
 21
5.43852
  0
LINE
  8
0
 10
70.3874
 20
5.43852
 11
70.43
 21
5.32031
  0
LINE
  8
0
 10
70.43
 20
5.32031
 11
70.465
 21
5.19966
  0
LINE
  8
0
 10
70.465
 20
5.19966
 11
70.4924
 21
5.07704
  0
LINE
  8
0
 10
70.4924
 20
5.07704
 11
70.5121
 21
4.95294
  0
LINE
  8
0
 10
70.5121
 20
4.95294
 11
70.5239
 21
4.82785
  0
LINE
  8
0
 10
70.5239
 20
4.82785
 11
70.5279
 21
4.70227
  0
LINE
  8
0
 10
70.5279
 20
4.70227
 11
70.5239
 21
4.57669
  0
LINE
  8
0
 10
70.5239
 20
4.57669
 11
70.5121
 21
4.45161
  0
LINE
  8
0
 10
70.5121
 20
4.45161
 11
70.4924
 21
4.32751
  0
LINE
  8
0
 10
70.4924
 20
4.32751
 11
70.465
 21
4.2049
  0
LINE
  8
0
 10
70.465
 20
4.2049
 11
70.43
 21
4.08424
  0
LINE
  8
0
 10
70.43
 20
4.08424
 11
70.3874
 21
3.96602
  0
LINE
  8
0
 10
70.3874
 20
3.96602
 11
70.3375
 21
3.85072
  0
LINE
  8
0
 10
70.3375
 20
3.85072
 11
70.2805
 21
3.73877
  0
LINE
  8
0
 10
70.2805
 20
3.73877
 11
70.2165
 21
3.63062
  0
LINE
  8
0
 10
70.2165
 20
3.63062
 11
70.1459
 21
3.5267
  0
LINE
  8
0
 10
70.1459
 20
3.5267
 11
70.0689
 21
3.42743
  0
LINE
  8
0
 10
70.0689
 20
3.42743
 11
69.9858
 21
3.33318
  0
LINE
  8
0
 10
69.9858
 20
3.33318
 11
69.897
 21
3.24434
  0
LINE
  8
0
 10
69.897
 20
3.24434
 11
69.8027
 21
3.16125
  0
LINE
  8
0
 10
69.8027
 20
3.16125
 11
69.7034
 21
3.08424
  0
LINE
  8
0
 10
69.7034
 20
3.08424
 11
69.5995
 21
3.01363
  0
LINE
  8
0
 10
69.5995
 20
3.01363
 11
69.4914
 21
2.94966
  0
LINE
  8
0
 10
69.4914
 20
2.94966
 11
69.3794
 21
2.89262
  0
LINE
  8
0
 10
69.3794
 20
2.89262
 11
69.2641
 21
2.84273
  0
LINE
  8
0
 10
69.2641
 20
2.84273
 11
69.1459
 21
2.80016
  0
LINE
  8
0
 10
69.1459
 20
2.80016
 11
69.0252
 21
2.76511
  0
LINE
  8
0
 10
69.0252
 20
2.76511
 11
68.9026
 21
2.7377
  0
LINE
  8
0
 10
68.9026
 20
2.7377
 11
68.7785
 21
2.71805
  0
LINE
  8
0
 10
68.7785
 20
2.71805
 11
68.6534
 21
2.70622
  0
LINE
  8
0
 10
68.6534
 20
2.70622
 11
68.5279
 21
2.70227
  0
LINE
  8
0
 10
68.5279
 20
2.70227
 11
68.4023
 21
2.70622
  0
LINE
  8
0
 10
-68.6534
 20
2.70622
 11
-68.7785
 21
2.71805
  0
LINE
  8
0
 10
-68.7785
 20
2.71805
 11
-68.9026
 21
2.7377
  0
LINE
  8
0
 10
-68.9026
 20
2.7377
 11
-69.0252
 21
2.76511
  0
LINE
  8
0
 10
-69.0252
 20
2.76511
 11
-69.1459
 21
2.80016
  0
LINE
  8
0
 10
-69.1459
 20
2.80016
 11
-69.2641
 21
2.84273
  0
LINE
  8
0
 10
-69.2641
 20
2.84273
 11
-69.3794
 21
2.89262
  0
LINE
  8
0
 10
-69.3794
 20
2.89262
 11
-69.4914
 21
2.94966
  0
LINE
  8
0
 10
-69.4914
 20
2.94966
 11
-69.5995
 21
3.01363
  0
LINE
  8
0
 10
-69.5995
 20
3.01363
 11
-69.7034
 21
3.08424
  0
LINE
  8
0
 10
-69.7034
 20
3.08424
 11
-69.8027
 21
3.16125
  0
LINE
  8
0
 10
-69.8027
 20
3.16125
 11
-69.897
 21
3.24434
  0
LINE
  8
0
 10
-69.897
 20
3.24434
 11
-69.9858
 21
3.33318
  0
LINE
  8
0
 10
-69.9858
 20
3.33318
 11
-70.0689
 21
3.42743
  0
LINE
  8
0
 10
-70.0689
 20
3.42743
 11
-70.1459
 21
3.5267
  0
LINE
  8
0
 10
-70.1459
 20
3.5267
 11
-70.2165
 21
3.63062
  0
LINE
  8
0
 10
-70.2165
 20
3.63062
 11
-70.2805
 21
3.73877
  0
LINE
  8
0
 10
-70.2805
 20
3.73877
 11
-70.3375
 21
3.85072
  0
LINE
  8
0
 10
-70.3375
 20
3.85072
 11
-70.3874
 21
3.96602
  0
LINE
  8
0
 10
-70.3874
 20
3.96602
 11
-70.43
 21
4.08424
  0
LINE
  8
0
 10
-70.43
 20
4.08424
 11
-70.465
 21
4.2049
  0
LINE
  8
0
 10
-70.465
 20
4.2049
 11
-70.4924
 21
4.32751
  0
LINE
  8
0
 10
-70.4924
 20
4.32751
 11
-70.5121
 21
4.45161
  0
LINE
  8
0
 10
-70.5121
 20
4.45161
 11
-70.5239
 21
4.57669
  0
LINE
  8
0
 10
-70.5239
 20
4.57669
 11
-70.5279
 21
4.70227
  0
LINE
  8
0
 10
-70.5279
 20
4.70227
 11
-70.5239
 21
4.82785
  0
LINE
  8
0
 10
-70.5239
 20
4.82785
 11
-70.5121
 21
4.95294
  0
LINE
  8
0
 10
-70.5121
 20
4.95294
 11
-70.4924
 21
5.07704
  0
LINE
  8
0
 10
-70.4924
 20
5.07704
 11
-70.465
 21
5.19966
  0
LINE
  8
0
 10
-70.465
 20
5.19966
 11
-70.43
 21
5.32031
  0
LINE
  8
0
 10
-70.43
 20
5.32031
 11
-70.3874
 21
5.43852
  0
LINE
  8
0
 10
-70.3874
 20
5.43852
 11
-70.3375
 21
5.55383
  0
LINE
  8
0
 10
-70.3375
 20
5.55383
 11
-70.2805
 21
5.66579
  0
LINE
  8
0
 10
-70.2805
 20
5.66579
 11
-70.2165
 21
5.77393
  0
LINE
  8
0
 10
-70.2165
 20
5.77393
 11
-70.1459
 21
5.87784
  0
LINE
  8
0
 10
-70.1459
 20
5.87784
 11
-70.0689
 21
5.97713
  0
LINE
  8
0
 10
-70.0689
 20
5.97713
 11
-69.9858
 21
6.07137
  0
LINE
  8
0
 10
-69.9858
 20
6.07137
 11
-69.897
 21
6.16022
  0
LINE
  8
0
 10
-69.897
 20
6.16022
 11
-69.8027
 21
6.2433
  0
LINE
  8
0
 10
-69.8027
 20
6.2433
 11
-69.7034
 21
6.32031
  0
LINE
  8
0
 10
-69.7034
 20
6.32031
 11
-69.5995
 21
6.39093
  0
LINE
  8
0
 10
-69.5995
 20
6.39093
 11
-69.4914
 21
6.4549
  0
LINE
  8
0
 10
-69.4914
 20
6.4549
 11
-69.3794
 21
6.51193
  0
LINE
  8
0
 10
-69.3794
 20
6.51193
 11
-69.2641
 21
6.56183
  0
LINE
  8
0
 10
-69.2641
 20
6.56183
 11
-69.1459
 21
6.60439
  0
LINE
  8
0
 10
-69.1459
 20
6.60439
 11
-69.0252
 21
6.63943
  0
LINE
  8
0
 10
-69.0252
 20
6.63943
 11
-68.9026
 21
6.66685
  0
LINE
  8
0
 10
-68.9026
 20
6.66685
 11
-68.7785
 21
6.68651
  0
LINE
  8
0
 10
-68.7785
 20
6.68651
 11
-68.6534
 21
6.69833
  0
LINE
  8
0
 10
-68.6534
 20
6.69833
 11
-68.5279
 21
6.70227
  0
LINE
  8
0
 10
-68.5279
 20
6.70227
 11
-68.4023
 21
6.69833
  0
LINE
  8
0
 10
-68.4023
 20
6.69833
 11
-68.2772
 21
6.68651
  0
LINE
  8
0
 10
-68.2772
 20
6.68651
 11
-68.1531
 21
6.66685
  0
LINE
  8
0
 10
-68.1531
 20
6.66685
 11
-68.0305
 21
6.63943
  0
LINE
  8
0
 10
-68.0305
 20
6.63943
 11
-67.9098
 21
6.60439
  0
LINE
  8
0
 10
-67.9098
 20
6.60439
 11
-67.7916
 21
6.56183
  0
LINE
  8
0
 10
-67.7916
 20
6.56183
 11
-67.6763
 21
6.51193
  0
LINE
  8
0
 10
-67.6763
 20
6.51193
 11
-67.5643
 21
6.4549
  0
LINE
  8
0
 10
-67.5643
 20
6.4549
 11
-67.4562
 21
6.39093
  0
LINE
  8
0
 10
-67.4562
 20
6.39093
 11
-67.3523
 21
6.32031
  0
LINE
  8
0
 10
-67.3523
 20
6.32031
 11
-67.253
 21
6.2433
  0
LINE
  8
0
 10
-67.253
 20
6.2433
 11
-67.1588
 21
6.16022
  0
LINE
  8
0
 10
-67.1588
 20
6.16022
 11
-67.0699
 21
6.07137
  0
LINE
  8
0
 10
-67.0699
 20
6.07137
 11
-66.9868
 21
5.97713
  0
LINE
  8
0
 10
-66.9868
 20
5.97713
 11
-66.9098
 21
5.87784
  0
LINE
  8
0
 10
-66.9098
 20
5.87784
 11
-66.8392
 21
5.77393
  0
LINE
  8
0
 10
-66.8392
 20
5.77393
 11
-66.7752
 21
5.66579
  0
LINE
  8
0
 10
-66.7752
 20
5.66579
 11
-66.7182
 21
5.55383
  0
LINE
  8
0
 10
-66.7182
 20
5.55383
 11
-66.6683
 21
5.43852
  0
LINE
  8
0
 10
-66.6683
 20
5.43852
 11
-66.6257
 21
5.32031
  0
LINE
  8
0
 10
-66.6257
 20
5.32031
 11
-66.5907
 21
5.19966
  0
LINE
  8
0
 10
-66.5907
 20
5.19966
 11
-66.5633
 21
5.07704
  0
LINE
  8
0
 10
-66.5633
 20
5.07704
 11
-66.5436
 21
4.95294
  0
LINE
  8
0
 10
-66.5436
 20
4.95294
 11
-66.5318
 21
4.82785
  0
LINE
  8
0
 10
-66.5318
 20
4.82785
 11
-66.5279
 21
4.70227
  0
LINE
  8
0
 10
-66.5279
 20
4.70227
 11
-66.5318
 21
4.57669
  0
LINE
  8
0
 10
-66.5318
 20
4.57669
 11
-66.5436
 21
4.45161
  0
LINE
  8
0
 10
-66.5436
 20
4.45161
 11
-66.5633
 21
4.32751
  0
LINE
  8
0
 10
-66.5633
 20
4.32751
 11
-66.5907
 21
4.2049
  0
LINE
  8
0
 10
-66.5907
 20
4.2049
 11
-66.6257
 21
4.08424
  0
LINE
  8
0
 10
-66.6257
 20
4.08424
 11
-66.6683
 21
3.96602
  0
LINE
  8
0
 10
-66.6683
 20
3.96602
 11
-66.7182
 21
3.85072
  0
LINE
  8
0
 10
-66.7182
 20
3.85072
 11
-66.7752
 21
3.73877
  0
LINE
  8
0
 10
-66.7752
 20
3.73877
 11
-66.8392
 21
3.63062
  0
LINE
  8
0
 10
-66.8392
 20
3.63062
 11
-66.9098
 21
3.5267
  0
LINE
  8
0
 10
-66.9098
 20
3.5267
 11
-66.9868
 21
3.42743
  0
LINE
  8
0
 10
-66.9868
 20
3.42743
 11
-67.0699
 21
3.33318
  0
LINE
  8
0
 10
-67.0699
 20
3.33318
 11
-67.1588
 21
3.24434
  0
LINE
  8
0
 10
-67.1588
 20
3.24434
 11
-67.253
 21
3.16125
  0
LINE
  8
0
 10
-67.253
 20
3.16125
 11
-67.3523
 21
3.08424
  0
LINE
  8
0
 10
-67.3523
 20
3.08424
 11
-67.4562
 21
3.01363
  0
LINE
  8
0
 10
-67.4562
 20
3.01363
 11
-67.5643
 21
2.94966
  0
LINE
  8
0
 10
-67.5643
 20
2.94966
 11
-67.6763
 21
2.89262
  0
LINE
  8
0
 10
-67.6763
 20
2.89262
 11
-67.7916
 21
2.84273
  0
LINE
  8
0
 10
-67.7916
 20
2.84273
 11
-67.9098
 21
2.80016
  0
LINE
  8
0
 10
-67.9098
 20
2.80016
 11
-68.0305
 21
2.76511
  0
LINE
  8
0
 10
-68.0305
 20
2.76511
 11
-68.1531
 21
2.7377
  0
LINE
  8
0
 10
-68.1531
 20
2.7377
 11
-68.2772
 21
2.71805
  0
LINE
  8
0
 10
-68.2772
 20
2.71805
 11
-68.4023
 21
2.70622
  0
LINE
  8
0
 10
-68.4023
 20
2.70622
 11
-68.5279
 21
2.70227
  0
LINE
  8
0
 10
-68.5279
 20
2.70227
 11
-68.6534
 21
2.70622
  0
ENDSEC
  0
SECTION
  2
OBJECTS
  0
DICTIONARY
  0
ENDSEC
  0
EOF
