  0
SECTION
  2
BLOCKS
  0
ENDSEC
  0
SECTION
  2
ENTITIES
  0
LINE
  8
0
 10
0
 20
230.826
 11
-75
 21
0
  0
LINE
  8
0
 10
-75
 20
0
 11
75
 21
0
  0
LINE
  8
0
 10
75
 20
0
 11
0
 21
230.826
  0
LINE
  8
0
 10
-0.12558
 20
212.83
 11
-0.250656
 21
212.842
  0
LINE
  8
0
 10
-0.250656
 20
212.842
 11
-0.374756
 21
212.862
  0
LINE
  8
0
 10
-0.374756
 20
212.862
 11
-0.497375
 21
212.889
  0
LINE
  8
0
 10
-0.497375
 20
212.889
 11
-0.618027
 21
212.924
  0
LINE
  8
0
 10
-0.618027
 20
212.924
 11
-0.736237
 21
212.967
  0
LINE
  8
0
 10
-0.736237
 20
212.967
 11
-0.851547
 21
213.017
  0
LINE
  8
0
 10
-0.851547
 20
213.017
 11
-0.963501
 21
213.074
  0
LINE
  8
0
 10
-0.963501
 20
213.074
 11
-1.07164
 21
213.138
  0
LINE
  8
0
 10
-1.07164
 20
213.138
 11
-1.17557
 21
213.208
  0
LINE
  8
0
 10
-1.17557
 20
213.208
 11
-1.27484
 21
213.285
  0
LINE
  8
0
 10
-1.27484
 20
213.285
 11
-1.36908
 21
213.368
  0
LINE
  8
0
 10
-1.36908
 20
213.368
 11
-1.45793
 21
213.457
  0
LINE
  8
0
 10
-1.45793
 20
213.457
 11
-1.54102
 21
213.551
  0
LINE
  8
0
 10
-1.54102
 20
213.551
 11
-1.61803
 21
213.651
  0
LINE
  8
0
 10
-1.61803
 20
213.651
 11
-1.68864
 21
213.755
  0
LINE
  8
0
 10
-1.68864
 20
213.755
 11
-1.75261
 21
213.863
  0
LINE
  8
0
 10
-1.75261
 20
213.863
 11
-1.80965
 21
213.975
  0
LINE
  8
0
 10
-1.80965
 20
213.975
 11
-1.85954
 21
214.09
  0
LINE
  8
0
 10
-1.85954
 20
214.09
 11
-1.9021
 21
214.208
  0
LINE
  8
0
 10
-1.9021
 20
214.208
 11
-1.93716
 21
214.329
  0
LINE
  8
0
 10
-1.93716
 20
214.329
 11
-1.96457
 21
214.451
  0
LINE
  8
0
 10
-1.96457
 20
214.451
 11
-1.98422
 21
214.576
  0
LINE
  8
0
 10
-1.98422
 20
214.576
 11
-1.99605
 21
214.701
  0
LINE
  8
0
 10
-1.99605
 20
214.701
 11
-2
 21
214.826
  0
LINE
  8
0
 10
-2
 20
214.826
 11
-1.99605
 21
214.952
  0
LINE
  8
0
 10
-1.99605
 20
214.952
 11
-1.98422
 21
215.077
  0
LINE
  8
0
 10
-1.98422
 20
215.077
 11
-1.96457
 21
215.201
  0
LINE
  8
0
 10
-1.96457
 20
215.201
 11
-1.93716
 21
215.324
  0
LINE
  8
0
 10
-1.93716
 20
215.324
 11
-1.9021
 21
215.444
  0
LINE
  8
0
 10
-1.9021
 20
215.444
 11
-1.85954
 21
215.562
  0
LINE
  8
0
 10
-1.85954
 20
215.562
 11
-1.80965
 21
215.678
  0
LINE
  8
0
 10
-1.80965
 20
215.678
 11
-1.75261
 21
215.79
  0
LINE
  8
0
 10
-1.75261
 20
215.79
 11
-1.68864
 21
215.898
  0
LINE
  8
0
 10
-1.68864
 20
215.898
 11
-1.61803
 21
216.002
  0
LINE
  8
0
 10
-1.61803
 20
216.002
 11
-1.54102
 21
216.101
  0
LINE
  8
0
 10
-1.54102
 20
216.101
 11
-1.45793
 21
216.195
  0
LINE
  8
0
 10
-1.45793
 20
216.195
 11
-1.36908
 21
216.284
  0
LINE
  8
0
 10
-1.36908
 20
216.284
 11
-1.27484
 21
216.367
  0
LINE
  8
0
 10
-1.27484
 20
216.367
 11
-1.17557
 21
216.444
  0
LINE
  8
0
 10
-1.17557
 20
216.444
 11
-1.07164
 21
216.515
  0
LINE
  8
0
 10
-1.07164
 20
216.515
 11
-0.963501
 21
216.579
  0
LINE
  8
0
 10
-0.963501
 20
216.579
 11
-0.851547
 21
216.636
  0
LINE
  8
0
 10
-0.851547
 20
216.636
 11
-0.736237
 21
216.686
  0
LINE
  8
0
 10
-0.736237
 20
216.686
 11
-0.618027
 21
216.728
  0
LINE
  8
0
 10
-0.618027
 20
216.728
 11
-0.497375
 21
216.763
  0
LINE
  8
0
 10
-0.497375
 20
216.763
 11
-0.374756
 21
216.791
  0
LINE
  8
0
 10
-0.374756
 20
216.791
 11
-0.250656
 21
216.81
  0
LINE
  8
0
 10
-0.250656
 20
216.81
 11
-0.12558
 21
216.822
  0
LINE
  8
0
 10
-0.12558
 20
216.822
 11
0
 21
216.826
  0
LINE
  8
0
 10
0
 20
216.826
 11
0.12558
 21
216.822
  0
LINE
  8
0
 10
0.12558
 20
216.822
 11
0.250656
 21
216.81
  0
LINE
  8
0
 10
0.250656
 20
216.81
 11
0.374756
 21
216.791
  0
LINE
  8
0
 10
0.374756
 20
216.791
 11
0.497375
 21
216.763
  0
LINE
  8
0
 10
0.497375
 20
216.763
 11
0.618027
 21
216.728
  0
LINE
  8
0
 10
0.618027
 20
216.728
 11
0.736237
 21
216.686
  0
LINE
  8
0
 10
0.736237
 20
216.686
 11
0.851547
 21
216.636
  0
LINE
  8
0
 10
0.851547
 20
216.636
 11
0.963501
 21
216.579
  0
LINE
  8
0
 10
0.963501
 20
216.579
 11
1.07164
 21
216.515
  0
LINE
  8
0
 10
1.07164
 20
216.515
 11
1.17557
 21
216.444
  0
LINE
  8
0
 10
1.17557
 20
216.444
 11
1.27484
 21
216.367
  0
LINE
  8
0
 10
1.27484
 20
216.367
 11
1.36908
 21
216.284
  0
LINE
  8
0
 10
1.36908
 20
216.284
 11
1.45793
 21
216.195
  0
LINE
  8
0
 10
1.45793
 20
216.195
 11
1.54102
 21
216.101
  0
LINE
  8
0
 10
1.54102
 20
216.101
 11
1.61803
 21
216.002
  0
LINE
  8
0
 10
1.61803
 20
216.002
 11
1.68864
 21
215.898
  0
LINE
  8
0
 10
1.68864
 20
215.898
 11
1.75261
 21
215.79
  0
LINE
  8
0
 10
1.75261
 20
215.79
 11
1.80965
 21
215.678
  0
LINE
  8
0
 10
1.80965
 20
215.678
 11
1.85954
 21
215.562
  0
LINE
  8
0
 10
1.85954
 20
215.562
 11
1.9021
 21
215.444
  0
LINE
  8
0
 10
1.9021
 20
215.444
 11
1.93716
 21
215.324
  0
LINE
  8
0
 10
1.93716
 20
215.324
 11
1.96457
 21
215.201
  0
LINE
  8
0
 10
1.96457
 20
215.201
 11
1.98422
 21
215.077
  0
LINE
  8
0
 10
1.98422
 20
215.077
 11
1.99605
 21
214.952
  0
LINE
  8
0
 10
1.99605
 20
214.952
 11
2
 21
214.826
  0
LINE
  8
0
 10
2
 20
214.826
 11
1.99605
 21
214.701
  0
LINE
  8
0
 10
1.99605
 20
214.701
 11
1.98422
 21
214.576
  0
LINE
  8
0
 10
1.98422
 20
214.576
 11
1.96457
 21
214.451
  0
LINE
  8
0
 10
1.96457
 20
214.451
 11
1.93716
 21
214.329
  0
LINE
  8
0
 10
1.93716
 20
214.329
 11
1.9021
 21
214.208
  0
LINE
  8
0
 10
1.9021
 20
214.208
 11
1.85954
 21
214.09
  0
LINE
  8
0
 10
1.85954
 20
214.09
 11
1.80965
 21
213.975
  0
LINE
  8
0
 10
1.80965
 20
213.975
 11
1.75261
 21
213.863
  0
LINE
  8
0
 10
1.75261
 20
213.863
 11
1.68864
 21
213.755
  0
LINE
  8
0
 10
1.68864
 20
213.755
 11
1.61803
 21
213.651
  0
LINE
  8
0
 10
1.61803
 20
213.651
 11
1.54102
 21
213.551
  0
LINE
  8
0
 10
1.54102
 20
213.551
 11
1.45793
 21
213.457
  0
LINE
  8
0
 10
1.45793
 20
213.457
 11
1.36908
 21
213.368
  0
LINE
  8
0
 10
1.36908
 20
213.368
 11
1.27484
 21
213.285
  0
LINE
  8
0
 10
1.27484
 20
213.285
 11
1.17557
 21
213.208
  0
LINE
  8
0
 10
1.17557
 20
213.208
 11
1.07164
 21
213.138
  0
LINE
  8
0
 10
1.07164
 20
213.138
 11
0.963501
 21
213.074
  0
LINE
  8
0
 10
0.963501
 20
213.074
 11
0.851547
 21
213.017
  0
LINE
  8
0
 10
0.851547
 20
213.017
 11
0.736237
 21
212.967
  0
LINE
  8
0
 10
0.736237
 20
212.967
 11
0.618027
 21
212.924
  0
LINE
  8
0
 10
0.618027
 20
212.924
 11
0.497375
 21
212.889
  0
LINE
  8
0
 10
0.497375
 20
212.889
 11
0.374756
 21
212.862
  0
LINE
  8
0
 10
0.374756
 20
212.862
 11
0.250656
 21
212.842
  0
LINE
  8
0
 10
0.250656
 20
212.842
 11
0.12558
 21
212.83
  0
LINE
  8
0
 10
0.12558
 20
212.83
 11
0
 21
212.826
  0
LINE
  8
0
 10
0
 20
212.826
 11
-0.12558
 21
212.83
  0
LINE
  8
0
 10
-0.939407
 20
189.025
 11
-0.955063
 21
189.054
  0
LINE
  8
0
 10
-0.955063
 20
189.054
 11
0
 21
191.993
  0
LINE
  8
0
 10
0
 20
191.993
 11
0.271118
 21
191.159
  0
LINE
  8
0
 10
0.271118
 20
191.159
 11
0.261154
 21
191.096
  0
LINE
  8
0
 10
0.261154
 20
191.096
 11
0.114822
 21
189.986
  0
LINE
  8
0
 10
0.114822
 20
189.986
 11
-0.0037384
 21
188.857
  0
LINE
  8
0
 10
-0.0037384
 20
188.857
 11
-0.0037384
 21
187.512
  0
LINE
  8
0
 10
-0.0037384
 20
187.512
 11
-0.939407
 21
189.025
  0
LINE
  8
0
 10
5.25352
 20
170.213
 11
3.26309
 21
172.576
  0
LINE
  8
0
 10
3.26309
 20
172.576
 11
2.6532
 21
173.54
  0
LINE
  8
0
 10
2.6532
 20
173.54
 11
2.18323
 21
174.555
  0
LINE
  8
0
 10
2.18323
 20
174.555
 11
1.85478
 21
175.621
  0
LINE
  8
0
 10
1.85478
 20
175.621
 11
1.66733
 21
176.737
  0
LINE
  8
0
 10
1.66733
 20
176.737
 11
1.62247
 21
177.904
  0
LINE
  8
0
 10
1.62247
 20
177.904
 11
1.71753
 21
179.122
  0
LINE
  8
0
 10
1.71753
 20
179.122
 11
1.95305
 21
180.391
  0
LINE
  8
0
 10
1.95305
 20
180.391
 11
2.33063
 21
181.711
  0
LINE
  8
0
 10
2.33063
 20
181.711
 11
2.84973
 21
183.081
  0
LINE
  8
0
 10
2.84973
 20
183.081
 11
2.87691
 21
183.139
  0
LINE
  8
0
 10
2.87691
 20
183.139
 11
6.66298
 21
171.487
  0
LINE
  8
0
 10
6.66298
 20
171.487
 11
5.25352
 21
169.798
  0
LINE
  8
0
 10
5.25352
 20
169.798
 11
5.25352
 21
170.213
  0
LINE
  8
0
 10
-5.24605
 20
170.213
 11
-6.5672
 21
171.782
  0
LINE
  8
0
 10
-6.5672
 20
171.782
 11
-4.07628
 21
179.448
  0
LINE
  8
0
 10
-4.07628
 20
179.448
 11
-3.83934
 21
178.594
  0
LINE
  8
0
 10
-3.83934
 20
178.594
 11
-3.52585
 21
177.581
  0
LINE
  8
0
 10
-3.52585
 20
177.581
 11
-3.18405
 21
176.584
  0
LINE
  8
0
 10
-3.18405
 20
176.584
 11
-2.81502
 21
175.604
  0
LINE
  8
0
 10
-2.81502
 20
175.604
 11
-2.41768
 21
174.641
  0
LINE
  8
0
 10
-2.41768
 20
174.641
 11
-1.9931
 21
173.696
  0
LINE
  8
0
 10
-1.9931
 20
173.696
 11
-5.24605
 21
169.798
  0
LINE
  8
0
 10
-5.24605
 20
169.798
 11
-5.24605
 21
170.213
  0
LINE
  8
0
 10
-0.939407
 20
154.025
 11
-1.74049
 21
155.498
  0
LINE
  8
0
 10
-1.74049
 20
155.498
 11
-2.40005
 21
156.919
  0
LINE
  8
0
 10
-2.40005
 20
156.919
 11
-2.91916
 21
158.289
  0
LINE
  8
0
 10
-2.91916
 20
158.289
 11
-3.29674
 21
159.609
  0
LINE
  8
0
 10
-3.29674
 20
159.609
 11
-3.53279
 21
160.878
  0
LINE
  8
0
 10
-3.53279
 20
160.878
 11
-3.62732
 21
162.096
  0
LINE
  8
0
 10
-3.62732
 20
162.096
 11
-3.58192
 21
163.263
  0
LINE
  8
0
 10
-3.58192
 20
163.263
 11
-3.39447
 21
164.38
  0
LINE
  8
0
 10
-3.39447
 20
164.38
 11
-3.06656
 21
165.446
  0
LINE
  8
0
 10
-3.06656
 20
165.446
 11
-2.59659
 21
166.459
  0
LINE
  8
0
 10
-2.59659
 20
166.459
 11
-1.98616
 21
167.424
  0
LINE
  8
0
 10
-1.98616
 20
167.424
 11
0.00320435
 21
169.787
  0
LINE
  8
0
 10
0.00320435
 20
169.787
 11
0.00320435
 21
170.202
  0
LINE
  8
0
 10
0.00320435
 20
170.202
 11
3.25615
 21
166.304
  0
LINE
  8
0
 10
3.25615
 20
166.304
 11
2.83211
 21
165.36
  0
LINE
  8
0
 10
2.83211
 20
165.36
 11
2.43477
 21
164.396
  0
LINE
  8
0
 10
2.43477
 20
164.396
 11
2.06573
 21
163.416
  0
LINE
  8
0
 10
2.06573
 20
163.416
 11
1.72394
 21
162.42
  0
LINE
  8
0
 10
1.72394
 20
162.42
 11
1.41045
 21
161.407
  0
LINE
  8
0
 10
1.41045
 20
161.407
 11
1.12473
 21
160.377
  0
LINE
  8
0
 10
1.12473
 20
160.377
 11
0.866776
 21
159.332
  0
LINE
  8
0
 10
0.866776
 20
159.332
 11
0.637131
 21
158.269
  0
LINE
  8
0
 10
0.637131
 20
158.269
 11
0.435257
 21
157.191
  0
LINE
  8
0
 10
0.435257
 20
157.191
 11
0.261154
 21
156.096
  0
LINE
  8
0
 10
0.261154
 20
156.096
 11
0.114822
 21
154.986
  0
LINE
  8
0
 10
0.114822
 20
154.986
 11
-0.0037384
 21
153.857
  0
LINE
  8
0
 10
-0.0037384
 20
153.857
 11
-0.0037384
 21
152.512
  0
LINE
  8
0
 10
-0.0037384
 20
152.512
 11
-0.939407
 21
154.025
  0
LINE
  8
0
 10
-11.4395
 20
154.025
 11
-12.0012
 21
155.058
  0
LINE
  8
0
 10
-12.0012
 20
155.058
 11
-8.03766
 21
167.256
  0
LINE
  8
0
 10
-8.03766
 20
167.256
 11
-7.24342
 21
166.304
  0
LINE
  8
0
 10
-7.24342
 20
166.304
 11
-7.66747
 21
165.36
  0
LINE
  8
0
 10
-7.66747
 20
165.36
 11
-8.0648
 21
164.396
  0
LINE
  8
0
 10
-8.0648
 20
164.396
 11
-8.43384
 21
163.416
  0
LINE
  8
0
 10
-8.43384
 20
163.416
 11
-8.77563
 21
162.42
  0
LINE
  8
0
 10
-8.77563
 20
162.42
 11
-9.08913
 21
161.407
  0
LINE
  8
0
 10
-9.08913
 20
161.407
 11
-9.37485
 21
160.377
  0
LINE
  8
0
 10
-9.37485
 20
160.377
 11
-9.6328
 21
159.332
  0
LINE
  8
0
 10
-9.6328
 20
159.332
 11
-9.86244
 21
158.269
  0
LINE
  8
0
 10
-9.86244
 20
158.269
 11
-10.0643
 21
157.191
  0
LINE
  8
0
 10
-10.0643
 20
157.191
 11
-10.2384
 21
156.096
  0
LINE
  8
0
 10
-10.2384
 20
156.096
 11
-10.3848
 21
154.986
  0
LINE
  8
0
 10
-10.3848
 20
154.986
 11
-10.5033
 21
153.857
  0
LINE
  8
0
 10
-10.5033
 20
153.857
 11
-10.5033
 21
152.512
  0
LINE
  8
0
 10
-10.5033
 20
152.512
 11
-11.4395
 21
154.025
  0
LINE
  8
0
 10
9.56017
 20
154.025
 11
8.75908
 21
155.498
  0
LINE
  8
0
 10
8.75908
 20
155.498
 11
8.09952
 21
156.919
  0
LINE
  8
0
 10
8.09952
 20
156.919
 11
7.58041
 21
158.289
  0
LINE
  8
0
 10
7.58041
 20
158.289
 11
7.20284
 21
159.609
  0
LINE
  8
0
 10
7.20284
 20
159.609
 11
6.96678
 21
160.878
  0
LINE
  8
0
 10
6.96678
 20
160.878
 11
6.87225
 21
162.096
  0
LINE
  8
0
 10
6.87225
 20
162.096
 11
6.91765
 21
163.263
  0
LINE
  8
0
 10
6.91765
 20
163.263
 11
7.1051
 21
164.38
  0
LINE
  8
0
 10
7.1051
 20
164.38
 11
7.43301
 21
165.446
  0
LINE
  8
0
 10
7.43301
 20
165.446
 11
7.90298
 21
166.459
  0
LINE
  8
0
 10
7.90298
 20
166.459
 11
8.16306
 21
166.87
  0
LINE
  8
0
 10
8.16306
 20
166.87
 11
11.0712
 21
157.92
  0
LINE
  8
0
 10
11.0712
 20
157.92
 11
10.9348
 21
157.191
  0
LINE
  8
0
 10
10.9348
 20
157.191
 11
10.7607
 21
156.096
  0
LINE
  8
0
 10
10.7607
 20
156.096
 11
10.6144
 21
154.986
  0
LINE
  8
0
 10
10.6144
 20
154.986
 11
10.4958
 21
153.857
  0
LINE
  8
0
 10
10.4958
 20
153.857
 11
10.4958
 21
152.512
  0
LINE
  8
0
 10
10.4958
 20
152.512
 11
9.56017
 21
154.025
  0
LINE
  8
0
 10
-5.24605
 20
135.213
 11
-7.23648
 21
137.576
  0
LINE
  8
0
 10
-7.23648
 20
137.576
 11
-7.84637
 21
138.54
  0
LINE
  8
0
 10
-7.84637
 20
138.54
 11
-8.31635
 21
139.555
  0
LINE
  8
0
 10
-8.31635
 20
139.555
 11
-8.64479
 21
140.621
  0
LINE
  8
0
 10
-8.64479
 20
140.621
 11
-8.83224
 21
141.737
  0
LINE
  8
0
 10
-8.83224
 20
141.737
 11
-8.87711
 21
142.904
  0
LINE
  8
0
 10
-8.87711
 20
142.904
 11
-8.78204
 21
144.122
  0
LINE
  8
0
 10
-8.78204
 20
144.122
 11
-8.54652
 21
145.391
  0
LINE
  8
0
 10
-8.54652
 20
145.391
 11
-8.16895
 21
146.711
  0
LINE
  8
0
 10
-8.16895
 20
146.711
 11
-7.64984
 21
148.081
  0
LINE
  8
0
 10
-7.64984
 20
148.081
 11
-6.99028
 21
149.502
  0
LINE
  8
0
 10
-6.99028
 20
149.502
 11
-6.18919
 21
150.975
  0
LINE
  8
0
 10
-6.18919
 20
150.975
 11
-5.25352
 21
152.489
  0
LINE
  8
0
 10
-5.25352
 20
152.489
 11
-5.25352
 21
151.143
  0
LINE
  8
0
 10
-5.25352
 20
151.143
 11
-5.1355
 21
150.016
  0
LINE
  8
0
 10
-5.1355
 20
150.016
 11
-4.98917
 21
148.904
  0
LINE
  8
0
 10
-4.98917
 20
148.904
 11
-4.81453
 21
147.809
  0
LINE
  8
0
 10
-4.81453
 20
147.809
 11
-4.61266
 21
146.731
  0
LINE
  8
0
 10
-4.61266
 20
146.731
 11
-4.38301
 21
145.669
  0
LINE
  8
0
 10
-4.38301
 20
145.669
 11
-4.12506
 21
144.624
  0
LINE
  8
0
 10
-4.12506
 20
144.624
 11
-3.83934
 21
143.594
  0
LINE
  8
0
 10
-3.83934
 20
143.594
 11
-3.52585
 21
142.581
  0
LINE
  8
0
 10
-3.52585
 20
142.581
 11
-3.18405
 21
141.584
  0
LINE
  8
0
 10
-3.18405
 20
141.584
 11
-2.81502
 21
140.604
  0
LINE
  8
0
 10
-2.81502
 20
140.604
 11
-2.41768
 21
139.641
  0
LINE
  8
0
 10
-2.41768
 20
139.641
 11
-1.9931
 21
138.696
  0
LINE
  8
0
 10
-1.9931
 20
138.696
 11
-5.24605
 21
134.798
  0
LINE
  8
0
 10
-5.24605
 20
134.798
 11
-5.24605
 21
135.213
  0
LINE
  8
0
 10
5.25352
 20
135.213
 11
3.26309
 21
137.576
  0
LINE
  8
0
 10
3.26309
 20
137.576
 11
2.6532
 21
138.54
  0
LINE
  8
0
 10
2.6532
 20
138.54
 11
2.18323
 21
139.555
  0
LINE
  8
0
 10
2.18323
 20
139.555
 11
1.85478
 21
140.621
  0
LINE
  8
0
 10
1.85478
 20
140.621
 11
1.66733
 21
141.737
  0
LINE
  8
0
 10
1.66733
 20
141.737
 11
1.62247
 21
142.904
  0
LINE
  8
0
 10
1.62247
 20
142.904
 11
1.71753
 21
144.122
  0
LINE
  8
0
 10
1.71753
 20
144.122
 11
1.95305
 21
145.391
  0
LINE
  8
0
 10
1.95305
 20
145.391
 11
2.33063
 21
146.711
  0
LINE
  8
0
 10
2.33063
 20
146.711
 11
2.84973
 21
148.081
  0
LINE
  8
0
 10
2.84973
 20
148.081
 11
3.50929
 21
149.502
  0
LINE
  8
0
 10
3.50929
 20
149.502
 11
4.31038
 21
150.975
  0
LINE
  8
0
 10
4.31038
 20
150.975
 11
5.24605
 21
152.489
  0
LINE
  8
0
 10
5.24605
 20
152.489
 11
5.24605
 21
151.143
  0
LINE
  8
0
 10
5.24605
 20
151.143
 11
5.36407
 21
150.016
  0
LINE
  8
0
 10
5.36407
 20
150.016
 11
5.51041
 21
148.904
  0
LINE
  8
0
 10
5.51041
 20
148.904
 11
5.68504
 21
147.809
  0
LINE
  8
0
 10
5.68504
 20
147.809
 11
5.88692
 21
146.731
  0
LINE
  8
0
 10
5.88692
 20
146.731
 11
6.11656
 21
145.669
  0
LINE
  8
0
 10
6.11656
 20
145.669
 11
6.37451
 21
144.624
  0
LINE
  8
0
 10
6.37451
 20
144.624
 11
6.66023
 21
143.594
  0
LINE
  8
0
 10
6.66023
 20
143.594
 11
6.97372
 21
142.581
  0
LINE
  8
0
 10
6.97372
 20
142.581
 11
7.31552
 21
141.584
  0
LINE
  8
0
 10
7.31552
 20
141.584
 11
7.68456
 21
140.604
  0
LINE
  8
0
 10
7.68456
 20
140.604
 11
8.08189
 21
139.641
  0
LINE
  8
0
 10
8.08189
 20
139.641
 11
8.50647
 21
138.696
  0
LINE
  8
0
 10
8.50647
 20
138.696
 11
5.25352
 21
134.798
  0
LINE
  8
0
 10
5.25352
 20
134.798
 11
5.25352
 21
135.213
  0
LINE
  8
0
 10
15.7531
 20
135.213
 11
13.7627
 21
137.576
  0
LINE
  8
0
 10
13.7627
 20
137.576
 11
13.1528
 21
138.54
  0
LINE
  8
0
 10
13.1528
 20
138.54
 11
12.6828
 21
139.555
  0
LINE
  8
0
 10
12.6828
 20
139.555
 11
12.3544
 21
140.621
  0
LINE
  8
0
 10
12.3544
 20
140.621
 11
12.1669
 21
141.737
  0
LINE
  8
0
 10
12.1669
 20
141.737
 11
12.122
 21
142.904
  0
LINE
  8
0
 10
12.122
 20
142.904
 11
12.2171
 21
144.122
  0
LINE
  8
0
 10
12.2171
 20
144.122
 11
12.4526
 21
145.391
  0
LINE
  8
0
 10
12.4526
 20
145.391
 11
12.8302
 21
146.711
  0
LINE
  8
0
 10
12.8302
 20
146.711
 11
13.3493
 21
148.081
  0
LINE
  8
0
 10
13.3493
 20
148.081
 11
13.8897
 21
149.245
  0
LINE
  8
0
 10
13.8897
 20
149.245
 11
17.7906
 21
137.239
  0
LINE
  8
0
 10
17.7906
 20
137.239
 11
15.7531
 21
134.798
  0
LINE
  8
0
 10
15.7531
 20
134.798
 11
15.7531
 21
135.213
  0
LINE
  8
0
 10
-15.7462
 20
135.213
 11
-17.6966
 21
137.529
  0
LINE
  8
0
 10
-17.6966
 20
137.529
 11
-14.9505
 21
145.981
  0
LINE
  8
0
 10
-14.9505
 20
145.981
 11
-14.8831
 21
145.669
  0
LINE
  8
0
 10
-14.8831
 20
145.669
 11
-14.6252
 21
144.624
  0
LINE
  8
0
 10
-14.6252
 20
144.624
 11
-14.3394
 21
143.594
  0
LINE
  8
0
 10
-14.3394
 20
143.594
 11
-14.026
 21
142.581
  0
LINE
  8
0
 10
-14.026
 20
142.581
 11
-13.6842
 21
141.584
  0
LINE
  8
0
 10
-13.6842
 20
141.584
 11
-13.3151
 21
140.604
  0
LINE
  8
0
 10
-13.3151
 20
140.604
 11
-12.9178
 21
139.641
  0
LINE
  8
0
 10
-12.9178
 20
139.641
 11
-12.4932
 21
138.696
  0
LINE
  8
0
 10
-12.4932
 20
138.696
 11
-15.7462
 21
134.798
  0
LINE
  8
0
 10
-15.7462
 20
134.798
 11
-15.7462
 21
135.213
  0
LINE
  8
0
 10
-11.4395
 20
119.025
 11
-12.2406
 21
120.498
  0
LINE
  8
0
 10
-12.2406
 20
120.498
 11
-12.9002
 21
121.919
  0
LINE
  8
0
 10
-12.9002
 20
121.919
 11
-13.4193
 21
123.289
  0
LINE
  8
0
 10
-13.4193
 20
123.289
 11
-13.7968
 21
124.609
  0
LINE
  8
0
 10
-13.7968
 20
124.609
 11
-14.0329
 21
125.878
  0
LINE
  8
0
 10
-14.0329
 20
125.878
 11
-14.1274
 21
127.096
  0
LINE
  8
0
 10
-14.1274
 20
127.096
 11
-14.082
 21
128.263
  0
LINE
  8
0
 10
-14.082
 20
128.263
 11
-13.8946
 21
129.38
  0
LINE
  8
0
 10
-13.8946
 20
129.38
 11
-13.5667
 21
130.446
  0
LINE
  8
0
 10
-13.5667
 20
130.446
 11
-13.0967
 21
131.459
  0
LINE
  8
0
 10
-13.0967
 20
131.459
 11
-12.4863
 21
132.424
  0
LINE
  8
0
 10
-12.4863
 20
132.424
 11
-10.4964
 21
134.787
  0
LINE
  8
0
 10
-10.4964
 20
134.787
 11
-10.4964
 21
135.202
  0
LINE
  8
0
 10
-10.4964
 20
135.202
 11
-7.24342
 21
131.304
  0
LINE
  8
0
 10
-7.24342
 20
131.304
 11
-7.66747
 21
130.36
  0
LINE
  8
0
 10
-7.66747
 20
130.36
 11
-8.0648
 21
129.396
  0
LINE
  8
0
 10
-8.0648
 20
129.396
 11
-8.43384
 21
128.416
  0
LINE
  8
0
 10
-8.43384
 20
128.416
 11
-8.77563
 21
127.42
  0
LINE
  8
0
 10
-8.77563
 20
127.42
 11
-9.08913
 21
126.407
  0
LINE
  8
0
 10
-9.08913
 20
126.407
 11
-9.37485
 21
125.377
  0
LINE
  8
0
 10
-9.37485
 20
125.377
 11
-9.6328
 21
124.332
  0
LINE
  8
0
 10
-9.6328
 20
124.332
 11
-9.86244
 21
123.269
  0
LINE
  8
0
 10
-9.86244
 20
123.269
 11
-10.0643
 21
122.191
  0
LINE
  8
0
 10
-10.0643
 20
122.191
 11
-10.2384
 21
121.096
  0
LINE
  8
0
 10
-10.2384
 20
121.096
 11
-10.3848
 21
119.986
  0
LINE
  8
0
 10
-10.3848
 20
119.986
 11
-10.5033
 21
118.857
  0
LINE
  8
0
 10
-10.5033
 20
118.857
 11
-10.5033
 21
117.512
  0
LINE
  8
0
 10
-10.5033
 20
117.512
 11
-11.4395
 21
119.025
  0
LINE
  8
0
 10
-0.939407
 20
119.025
 11
-1.74049
 21
120.498
  0
LINE
  8
0
 10
-1.74049
 20
120.498
 11
-2.40005
 21
121.919
  0
LINE
  8
0
 10
-2.40005
 20
121.919
 11
-2.91916
 21
123.289
  0
LINE
  8
0
 10
-2.91916
 20
123.289
 11
-3.29674
 21
124.609
  0
LINE
  8
0
 10
-3.29674
 20
124.609
 11
-3.53279
 21
125.878
  0
LINE
  8
0
 10
-3.53279
 20
125.878
 11
-3.62732
 21
127.096
  0
LINE
  8
0
 10
-3.62732
 20
127.096
 11
-3.58192
 21
128.263
  0
LINE
  8
0
 10
-3.58192
 20
128.263
 11
-3.39447
 21
129.38
  0
LINE
  8
0
 10
-3.39447
 20
129.38
 11
-3.06656
 21
130.446
  0
LINE
  8
0
 10
-3.06656
 20
130.446
 11
-2.59659
 21
131.459
  0
LINE
  8
0
 10
-2.59659
 20
131.459
 11
-1.98616
 21
132.424
  0
LINE
  8
0
 10
-1.98616
 20
132.424
 11
0.00320435
 21
134.787
  0
LINE
  8
0
 10
0.00320435
 20
134.787
 11
0.00320435
 21
135.202
  0
LINE
  8
0
 10
0.00320435
 20
135.202
 11
3.25615
 21
131.304
  0
LINE
  8
0
 10
3.25615
 20
131.304
 11
2.83211
 21
130.36
  0
LINE
  8
0
 10
2.83211
 20
130.36
 11
2.43477
 21
129.396
  0
LINE
  8
0
 10
2.43477
 20
129.396
 11
2.06573
 21
128.416
  0
LINE
  8
0
 10
2.06573
 20
128.416
 11
1.72394
 21
127.42
  0
LINE
  8
0
 10
1.72394
 20
127.42
 11
1.41045
 21
126.407
  0
LINE
  8
0
 10
1.41045
 20
126.407
 11
1.12473
 21
125.377
  0
LINE
  8
0
 10
1.12473
 20
125.377
 11
0.866776
 21
124.332
  0
LINE
  8
0
 10
0.866776
 20
124.332
 11
0.637131
 21
123.269
  0
LINE
  8
0
 10
0.637131
 20
123.269
 11
0.435257
 21
122.191
  0
LINE
  8
0
 10
0.435257
 20
122.191
 11
0.261154
 21
121.096
  0
LINE
  8
0
 10
0.261154
 20
121.096
 11
0.114822
 21
119.986
  0
LINE
  8
0
 10
0.114822
 20
119.986
 11
-0.0037384
 21
118.857
  0
LINE
  8
0
 10
-0.0037384
 20
118.857
 11
-0.0037384
 21
117.512
  0
LINE
  8
0
 10
-0.0037384
 20
117.512
 11
-0.939407
 21
119.025
  0
LINE
  8
0
 10
9.56017
 20
119.025
 11
8.75908
 21
120.498
  0
LINE
  8
0
 10
8.75908
 20
120.498
 11
8.09952
 21
121.919
  0
LINE
  8
0
 10
8.09952
 20
121.919
 11
7.58041
 21
123.289
  0
LINE
  8
0
 10
7.58041
 20
123.289
 11
7.20284
 21
124.609
  0
LINE
  8
0
 10
7.20284
 20
124.609
 11
6.96678
 21
125.878
  0
LINE
  8
0
 10
6.96678
 20
125.878
 11
6.87225
 21
127.096
  0
LINE
  8
0
 10
6.87225
 20
127.096
 11
6.91765
 21
128.263
  0
LINE
  8
0
 10
6.91765
 20
128.263
 11
7.1051
 21
129.38
  0
LINE
  8
0
 10
7.1051
 20
129.38
 11
7.43301
 21
130.446
  0
LINE
  8
0
 10
7.43301
 20
130.446
 11
7.90298
 21
131.459
  0
LINE
  8
0
 10
7.90298
 20
131.459
 11
8.51341
 21
132.424
  0
LINE
  8
0
 10
8.51341
 20
132.424
 11
10.5033
 21
134.787
  0
LINE
  8
0
 10
10.5033
 20
134.787
 11
10.5033
 21
135.202
  0
LINE
  8
0
 10
10.5033
 20
135.202
 11
13.7557
 21
131.304
  0
LINE
  8
0
 10
13.7557
 20
131.304
 11
13.3317
 21
130.36
  0
LINE
  8
0
 10
13.3317
 20
130.36
 11
12.9343
 21
129.396
  0
LINE
  8
0
 10
12.9343
 20
129.396
 11
12.5653
 21
128.416
  0
LINE
  8
0
 10
12.5653
 20
128.416
 11
12.2235
 21
127.42
  0
LINE
  8
0
 10
12.2235
 20
127.42
 11
11.91
 21
126.407
  0
LINE
  8
0
 10
11.91
 20
126.407
 11
11.6243
 21
125.377
  0
LINE
  8
0
 10
11.6243
 20
125.377
 11
11.3663
 21
124.332
  0
LINE
  8
0
 10
11.3663
 20
124.332
 11
11.1367
 21
123.269
  0
LINE
  8
0
 10
11.1367
 20
123.269
 11
10.9348
 21
122.191
  0
LINE
  8
0
 10
10.9348
 20
122.191
 11
10.7607
 21
121.096
  0
LINE
  8
0
 10
10.7607
 20
121.096
 11
10.6144
 21
119.986
  0
LINE
  8
0
 10
10.6144
 20
119.986
 11
10.4958
 21
118.857
  0
LINE
  8
0
 10
10.4958
 20
118.857
 11
10.4958
 21
117.512
  0
LINE
  8
0
 10
10.4958
 20
117.512
 11
9.56017
 21
119.025
  0
LINE
  8
0
 10
-21.9396
 20
119.025
 11
-22.7407
 21
120.498
  0
LINE
  8
0
 10
-22.7407
 20
120.498
 11
-23.0287
 21
121.118
  0
LINE
  8
0
 10
-23.0287
 20
121.118
 11
-19.1655
 21
133.008
  0
LINE
  8
0
 10
-19.1655
 20
133.008
 11
-17.7435
 21
131.304
  0
LINE
  8
0
 10
-17.7435
 20
131.304
 11
-18.1676
 21
130.36
  0
LINE
  8
0
 10
-18.1676
 20
130.36
 11
-18.5649
 21
129.396
  0
LINE
  8
0
 10
-18.5649
 20
129.396
 11
-18.9339
 21
128.416
  0
LINE
  8
0
 10
-18.9339
 20
128.416
 11
-19.2757
 21
127.42
  0
LINE
  8
0
 10
-19.2757
 20
127.42
 11
-19.5892
 21
126.407
  0
LINE
  8
0
 10
-19.5892
 20
126.407
 11
-19.875
 21
125.377
  0
LINE
  8
0
 10
-19.875
 20
125.377
 11
-20.1329
 21
124.332
  0
LINE
  8
0
 10
-20.1329
 20
124.332
 11
-20.3625
 21
123.269
  0
LINE
  8
0
 10
-20.3625
 20
123.269
 11
-20.5644
 21
122.191
  0
LINE
  8
0
 10
-20.5644
 20
122.191
 11
-20.7385
 21
121.096
  0
LINE
  8
0
 10
-20.7385
 20
121.096
 11
-20.8849
 21
119.986
  0
LINE
  8
0
 10
-20.8849
 20
119.986
 11
-21.0034
 21
118.857
  0
LINE
  8
0
 10
-21.0034
 20
118.857
 11
-21.0034
 21
117.512
  0
LINE
  8
0
 10
-21.0034
 20
117.512
 11
-21.9396
 21
119.025
  0
LINE
  8
0
 10
20.0597
 20
119.025
 11
19.2587
 21
120.498
  0
LINE
  8
0
 10
19.2587
 20
120.498
 11
18.5991
 21
121.919
  0
LINE
  8
0
 10
18.5991
 20
121.919
 11
18.08
 21
123.289
  0
LINE
  8
0
 10
18.08
 20
123.289
 11
17.7024
 21
124.609
  0
LINE
  8
0
 10
17.7024
 20
124.609
 11
17.4664
 21
125.878
  0
LINE
  8
0
 10
17.4664
 20
125.878
 11
17.3718
 21
127.096
  0
LINE
  8
0
 10
17.3718
 20
127.096
 11
17.4172
 21
128.263
  0
LINE
  8
0
 10
17.4172
 20
128.263
 11
17.6047
 21
129.38
  0
LINE
  8
0
 10
17.6047
 20
129.38
 11
17.9326
 21
130.446
  0
LINE
  8
0
 10
17.9326
 20
130.446
 11
18.4026
 21
131.459
  0
LINE
  8
0
 10
18.4026
 20
131.459
 11
19.013
 21
132.424
  0
LINE
  8
0
 10
19.013
 20
132.424
 11
19.26
 21
132.717
  0
LINE
  8
0
 10
19.26
 20
132.717
 11
21.9175
 21
124.538
  0
LINE
  8
0
 10
21.9175
 20
124.538
 11
21.8665
 21
124.332
  0
LINE
  8
0
 10
21.8665
 20
124.332
 11
21.6368
 21
123.269
  0
LINE
  8
0
 10
21.6368
 20
123.269
 11
21.4349
 21
122.191
  0
LINE
  8
0
 10
21.4349
 20
122.191
 11
21.2608
 21
121.096
  0
LINE
  8
0
 10
21.2608
 20
121.096
 11
21.1145
 21
119.986
  0
LINE
  8
0
 10
21.1145
 20
119.986
 11
20.9959
 21
118.857
  0
LINE
  8
0
 10
20.9959
 20
118.857
 11
20.9959
 21
117.512
  0
LINE
  8
0
 10
20.9959
 20
117.512
 11
20.0597
 21
119.025
  0
LINE
  8
0
 10
-5.24605
 20
100.213
 11
-7.23648
 21
102.576
  0
LINE
  8
0
 10
-7.23648
 20
102.576
 11
-7.84637
 21
103.54
  0
LINE
  8
0
 10
-7.84637
 20
103.54
 11
-8.31635
 21
104.555
  0
LINE
  8
0
 10
-8.31635
 20
104.555
 11
-8.64479
 21
105.621
  0
LINE
  8
0
 10
-8.64479
 20
105.621
 11
-8.83224
 21
106.737
  0
LINE
  8
0
 10
-8.83224
 20
106.737
 11
-8.87711
 21
107.904
  0
LINE
  8
0
 10
-8.87711
 20
107.904
 11
-8.78204
 21
109.122
  0
LINE
  8
0
 10
-8.78204
 20
109.122
 11
-8.54652
 21
110.391
  0
LINE
  8
0
 10
-8.54652
 20
110.391
 11
-8.16895
 21
111.711
  0
LINE
  8
0
 10
-8.16895
 20
111.711
 11
-7.64984
 21
113.081
  0
LINE
  8
0
 10
-7.64984
 20
113.081
 11
-6.99028
 21
114.502
  0
LINE
  8
0
 10
-6.99028
 20
114.502
 11
-6.18919
 21
115.975
  0
LINE
  8
0
 10
-6.18919
 20
115.975
 11
-5.25352
 21
117.489
  0
LINE
  8
0
 10
-5.25352
 20
117.489
 11
-5.25352
 21
116.143
  0
LINE
  8
0
 10
-5.25352
 20
116.143
 11
-5.1355
 21
115.016
  0
LINE
  8
0
 10
-5.1355
 20
115.016
 11
-4.98917
 21
113.904
  0
LINE
  8
0
 10
-4.98917
 20
113.904
 11
-4.81453
 21
112.809
  0
LINE
  8
0
 10
-4.81453
 20
112.809
 11
-4.61266
 21
111.731
  0
LINE
  8
0
 10
-4.61266
 20
111.731
 11
-4.38301
 21
110.669
  0
LINE
  8
0
 10
-4.38301
 20
110.669
 11
-4.12506
 21
109.624
  0
LINE
  8
0
 10
-4.12506
 20
109.624
 11
-3.83934
 21
108.594
  0
LINE
  8
0
 10
-3.83934
 20
108.594
 11
-3.52585
 21
107.581
  0
LINE
  8
0
 10
-3.52585
 20
107.581
 11
-3.18405
 21
106.584
  0
LINE
  8
0
 10
-3.18405
 20
106.584
 11
-2.81502
 21
105.604
  0
LINE
  8
0
 10
-2.81502
 20
105.604
 11
-2.41768
 21
104.641
  0
LINE
  8
0
 10
-2.41768
 20
104.641
 11
-1.9931
 21
103.696
  0
LINE
  8
0
 10
-1.9931
 20
103.696
 11
-5.24605
 21
99.7981
  0
LINE
  8
0
 10
-5.24605
 20
99.7981
 11
-5.24605
 21
100.213
  0
LINE
  8
0
 10
-15.7462
 20
100.213
 11
-17.7366
 21
102.576
  0
LINE
  8
0
 10
-17.7366
 20
102.576
 11
-18.3465
 21
103.54
  0
LINE
  8
0
 10
-18.3465
 20
103.54
 11
-18.8165
 21
104.555
  0
LINE
  8
0
 10
-18.8165
 20
104.555
 11
-19.1449
 21
105.621
  0
LINE
  8
0
 10
-19.1449
 20
105.621
 11
-19.3324
 21
106.737
  0
LINE
  8
0
 10
-19.3324
 20
106.737
 11
-19.3772
 21
107.904
  0
LINE
  8
0
 10
-19.3772
 20
107.904
 11
-19.2822
 21
109.122
  0
LINE
  8
0
 10
-19.2822
 20
109.122
 11
-19.0466
 21
110.391
  0
LINE
  8
0
 10
-19.0466
 20
110.391
 11
-18.6691
 21
111.711
  0
LINE
  8
0
 10
-18.6691
 20
111.711
 11
-18.1499
 21
113.081
  0
LINE
  8
0
 10
-18.1499
 20
113.081
 11
-17.4904
 21
114.502
  0
LINE
  8
0
 10
-17.4904
 20
114.502
 11
-16.6893
 21
115.975
  0
LINE
  8
0
 10
-16.6893
 20
115.975
 11
-15.7536
 21
117.489
  0
LINE
  8
0
 10
-15.7536
 20
117.489
 11
-15.7536
 21
116.143
  0
LINE
  8
0
 10
-15.7536
 20
116.143
 11
-15.6356
 21
115.016
  0
LINE
  8
0
 10
-15.6356
 20
115.016
 11
-15.4893
 21
113.904
  0
LINE
  8
0
 10
-15.4893
 20
113.904
 11
-15.3146
 21
112.809
  0
LINE
  8
0
 10
-15.3146
 20
112.809
 11
-15.1128
 21
111.731
  0
LINE
  8
0
 10
-15.1128
 20
111.731
 11
-14.8831
 21
110.669
  0
LINE
  8
0
 10
-14.8831
 20
110.669
 11
-14.6252
 21
109.624
  0
LINE
  8
0
 10
-14.6252
 20
109.624
 11
-14.3394
 21
108.594
  0
LINE
  8
0
 10
-14.3394
 20
108.594
 11
-14.026
 21
107.581
  0
LINE
  8
0
 10
-14.026
 20
107.581
 11
-13.6842
 21
106.584
  0
LINE
  8
0
 10
-13.6842
 20
106.584
 11
-13.3151
 21
105.604
  0
LINE
  8
0
 10
-13.3151
 20
105.604
 11
-12.9178
 21
104.641
  0
LINE
  8
0
 10
-12.9178
 20
104.641
 11
-12.4932
 21
103.696
  0
LINE
  8
0
 10
-12.4932
 20
103.696
 11
-15.7462
 21
99.7981
  0
LINE
  8
0
 10
-15.7462
 20
99.7981
 11
-15.7462
 21
100.213
  0
LINE
  8
0
 10
5.25352
 20
100.213
 11
3.26309
 21
102.576
  0
LINE
  8
0
 10
3.26309
 20
102.576
 11
2.6532
 21
103.54
  0
LINE
  8
0
 10
2.6532
 20
103.54
 11
2.18323
 21
104.555
  0
LINE
  8
0
 10
2.18323
 20
104.555
 11
1.85478
 21
105.621
  0
LINE
  8
0
 10
1.85478
 20
105.621
 11
1.66733
 21
106.737
  0
LINE
  8
0
 10
1.66733
 20
106.737
 11
1.62247
 21
107.904
  0
LINE
  8
0
 10
1.62247
 20
107.904
 11
1.71753
 21
109.122
  0
LINE
  8
0
 10
1.71753
 20
109.122
 11
1.95305
 21
110.391
  0
LINE
  8
0
 10
1.95305
 20
110.391
 11
2.33063
 21
111.711
  0
LINE
  8
0
 10
2.33063
 20
111.711
 11
2.84973
 21
113.081
  0
LINE
  8
0
 10
2.84973
 20
113.081
 11
3.50929
 21
114.502
  0
LINE
  8
0
 10
3.50929
 20
114.502
 11
4.31038
 21
115.975
  0
LINE
  8
0
 10
4.31038
 20
115.975
 11
5.24605
 21
117.489
  0
LINE
  8
0
 10
5.24605
 20
117.489
 11
5.24605
 21
116.143
  0
LINE
  8
0
 10
5.24605
 20
116.143
 11
5.36407
 21
115.016
  0
LINE
  8
0
 10
5.36407
 20
115.016
 11
5.51041
 21
113.904
  0
LINE
  8
0
 10
5.51041
 20
113.904
 11
5.68504
 21
112.809
  0
LINE
  8
0
 10
5.68504
 20
112.809
 11
5.88692
 21
111.731
  0
LINE
  8
0
 10
5.88692
 20
111.731
 11
6.11656
 21
110.669
  0
LINE
  8
0
 10
6.11656
 20
110.669
 11
6.37451
 21
109.624
  0
LINE
  8
0
 10
6.37451
 20
109.624
 11
6.66023
 21
108.594
  0
LINE
  8
0
 10
6.66023
 20
108.594
 11
6.97372
 21
107.581
  0
LINE
  8
0
 10
6.97372
 20
107.581
 11
7.31552
 21
106.584
  0
LINE
  8
0
 10
7.31552
 20
106.584
 11
7.68456
 21
105.604
  0
LINE
  8
0
 10
7.68456
 20
105.604
 11
8.08189
 21
104.641
  0
LINE
  8
0
 10
8.08189
 20
104.641
 11
8.50647
 21
103.696
  0
LINE
  8
0
 10
8.50647
 20
103.696
 11
5.25352
 21
99.7981
  0
LINE
  8
0
 10
5.25352
 20
99.7981
 11
5.25352
 21
100.213
  0
LINE
  8
0
 10
15.7531
 20
100.213
 11
13.7627
 21
102.576
  0
LINE
  8
0
 10
13.7627
 20
102.576
 11
13.1528
 21
103.54
  0
LINE
  8
0
 10
13.1528
 20
103.54
 11
12.6828
 21
104.555
  0
LINE
  8
0
 10
12.6828
 20
104.555
 11
12.3544
 21
105.621
  0
LINE
  8
0
 10
12.3544
 20
105.621
 11
12.1669
 21
106.737
  0
LINE
  8
0
 10
12.1669
 20
106.737
 11
12.122
 21
107.904
  0
LINE
  8
0
 10
12.122
 20
107.904
 11
12.2171
 21
109.122
  0
LINE
  8
0
 10
12.2171
 20
109.122
 11
12.4526
 21
110.391
  0
LINE
  8
0
 10
12.4526
 20
110.391
 11
12.8302
 21
111.711
  0
LINE
  8
0
 10
12.8302
 20
111.711
 11
13.3493
 21
113.081
  0
LINE
  8
0
 10
13.3493
 20
113.081
 11
14.0089
 21
114.502
  0
LINE
  8
0
 10
14.0089
 20
114.502
 11
14.81
 21
115.975
  0
LINE
  8
0
 10
14.81
 20
115.975
 11
15.7456
 21
117.489
  0
LINE
  8
0
 10
15.7456
 20
117.489
 11
15.7456
 21
116.143
  0
LINE
  8
0
 10
15.7456
 20
116.143
 11
15.8636
 21
115.016
  0
LINE
  8
0
 10
15.8636
 20
115.016
 11
16.01
 21
113.904
  0
LINE
  8
0
 10
16.01
 20
113.904
 11
16.1846
 21
112.809
  0
LINE
  8
0
 10
16.1846
 20
112.809
 11
16.3865
 21
111.731
  0
LINE
  8
0
 10
16.3865
 20
111.731
 11
16.6161
 21
110.669
  0
LINE
  8
0
 10
16.6161
 20
110.669
 11
16.8741
 21
109.624
  0
LINE
  8
0
 10
16.8741
 20
109.624
 11
17.1598
 21
108.594
  0
LINE
  8
0
 10
17.1598
 20
108.594
 11
17.4733
 21
107.581
  0
LINE
  8
0
 10
17.4733
 20
107.581
 11
17.8151
 21
106.584
  0
LINE
  8
0
 10
17.8151
 20
106.584
 11
18.1841
 21
105.604
  0
LINE
  8
0
 10
18.1841
 20
105.604
 11
18.5815
 21
104.641
  0
LINE
  8
0
 10
18.5815
 20
104.641
 11
19.006
 21
103.696
  0
LINE
  8
0
 10
19.006
 20
103.696
 11
15.7531
 21
99.7981
  0
LINE
  8
0
 10
15.7531
 20
99.7981
 11
15.7531
 21
100.213
  0
LINE
  8
0
 10
26.2532
 20
100.213
 11
24.2628
 21
102.576
  0
LINE
  8
0
 10
24.2628
 20
102.576
 11
23.6529
 21
103.54
  0
LINE
  8
0
 10
23.6529
 20
103.54
 11
23.1829
 21
104.555
  0
LINE
  8
0
 10
23.1829
 20
104.555
 11
22.8545
 21
105.621
  0
LINE
  8
0
 10
22.8545
 20
105.621
 11
22.667
 21
106.737
  0
LINE
  8
0
 10
22.667
 20
106.737
 11
22.6221
 21
107.904
  0
LINE
  8
0
 10
22.6221
 20
107.904
 11
22.7172
 21
109.122
  0
LINE
  8
0
 10
22.7172
 20
109.122
 11
22.9527
 21
110.391
  0
LINE
  8
0
 10
22.9527
 20
110.391
 11
23.3303
 21
111.711
  0
LINE
  8
0
 10
23.3303
 20
111.711
 11
23.8494
 21
113.081
  0
LINE
  8
0
 10
23.8494
 20
113.081
 11
24.509
 21
114.502
  0
LINE
  8
0
 10
24.509
 20
114.502
 11
24.9281
 21
115.273
  0
LINE
  8
0
 10
24.9281
 20
115.273
 11
28.9185
 21
102.992
  0
LINE
  8
0
 10
28.9185
 20
102.992
 11
26.2532
 21
99.7981
  0
LINE
  8
0
 10
26.2532
 20
99.7981
 11
26.2532
 21
100.213
  0
LINE
  8
0
 10
-26.2463
 20
100.213
 11
-28.2367
 21
102.576
  0
LINE
  8
0
 10
-28.2367
 20
102.576
 11
-28.7763
 21
103.429
  0
LINE
  8
0
 10
-28.7763
 20
103.429
 11
-25.7832
 21
112.641
  0
LINE
  8
0
 10
-25.7832
 20
112.641
 11
-25.6129
 21
111.731
  0
LINE
  8
0
 10
-25.6129
 20
111.731
 11
-25.3832
 21
110.669
  0
LINE
  8
0
 10
-25.3832
 20
110.669
 11
-25.1253
 21
109.624
  0
LINE
  8
0
 10
-25.1253
 20
109.624
 11
-24.8396
 21
108.594
  0
LINE
  8
0
 10
-24.8396
 20
108.594
 11
-24.5261
 21
107.581
  0
LINE
  8
0
 10
-24.5261
 20
107.581
 11
-24.1843
 21
106.584
  0
LINE
  8
0
 10
-24.1843
 20
106.584
 11
-23.8152
 21
105.604
  0
LINE
  8
0
 10
-23.8152
 20
105.604
 11
-23.4179
 21
104.641
  0
LINE
  8
0
 10
-23.4179
 20
104.641
 11
-22.9933
 21
103.696
  0
LINE
  8
0
 10
-22.9933
 20
103.696
 11
-26.2463
 21
99.7981
  0
LINE
  8
0
 10
-26.2463
 20
99.7981
 11
-26.2463
 21
100.213
  0
LINE
  8
0
 10
-0.939407
 20
84.0253
 11
-1.74049
 21
85.4977
  0
LINE
  8
0
 10
-1.74049
 20
85.4977
 11
-2.40005
 21
86.9193
  0
LINE
  8
0
 10
-2.40005
 20
86.9193
 11
-2.91916
 21
88.2892
  0
LINE
  8
0
 10
-2.91916
 20
88.2892
 11
-3.29674
 21
89.6094
  0
LINE
  8
0
 10
-3.29674
 20
89.6094
 11
-3.53279
 21
90.8783
  0
LINE
  8
0
 10
-3.53279
 20
90.8783
 11
-3.62732
 21
92.0959
  0
LINE
  8
0
 10
-3.62732
 20
92.0959
 11
-3.58192
 21
93.2634
  0
LINE
  8
0
 10
-3.58192
 20
93.2634
 11
-3.39447
 21
94.3801
  0
LINE
  8
0
 10
-3.39447
 20
94.3801
 11
-3.06656
 21
95.4456
  0
LINE
  8
0
 10
-3.06656
 20
95.4456
 11
-2.59659
 21
96.4592
  0
LINE
  8
0
 10
-2.59659
 20
96.4592
 11
-1.98616
 21
97.4237
  0
LINE
  8
0
 10
-1.98616
 20
97.4237
 11
0.00320435
 21
99.7869
  0
LINE
  8
0
 10
0.00320435
 20
99.7869
 11
0.00320435
 21
100.202
  0
LINE
  8
0
 10
0.00320435
 20
100.202
 11
3.25615
 21
96.3043
  0
LINE
  8
0
 10
3.25615
 20
96.3043
 11
2.83211
 21
95.3596
  0
LINE
  8
0
 10
2.83211
 20
95.3596
 11
2.43477
 21
94.3961
  0
LINE
  8
0
 10
2.43477
 20
94.3961
 11
2.06573
 21
93.4161
  0
LINE
  8
0
 10
2.06573
 20
93.4161
 11
1.72394
 21
92.4196
  0
LINE
  8
0
 10
1.72394
 20
92.4196
 11
1.41045
 21
91.407
  0
LINE
  8
0
 10
1.41045
 20
91.407
 11
1.12473
 21
90.3768
  0
LINE
  8
0
 10
1.12473
 20
90.3768
 11
0.866776
 21
89.3317
  0
LINE
  8
0
 10
0.866776
 20
89.3317
 11
0.637131
 21
88.2694
  0
LINE
  8
0
 10
0.637131
 20
88.2694
 11
0.435257
 21
87.1912
  0
LINE
  8
0
 10
0.435257
 20
87.1912
 11
0.261154
 21
86.0963
  0
LINE
  8
0
 10
0.261154
 20
86.0963
 11
0.114822
 21
84.9855
  0
LINE
  8
0
 10
0.114822
 20
84.9855
 11
-0.0037384
 21
83.857
  0
LINE
  8
0
 10
-0.0037384
 20
83.857
 11
-0.0037384
 21
82.5117
  0
LINE
  8
0
 10
-0.0037384
 20
82.5117
 11
-0.939407
 21
84.0253
  0
LINE
  8
0
 10
20.0597
 20
84.0253
 11
19.2587
 21
85.4977
  0
LINE
  8
0
 10
19.2587
 20
85.4977
 11
18.5991
 21
86.9193
  0
LINE
  8
0
 10
18.5991
 20
86.9193
 11
18.08
 21
88.2892
  0
LINE
  8
0
 10
18.08
 20
88.2892
 11
17.7024
 21
89.6094
  0
LINE
  8
0
 10
17.7024
 20
89.6094
 11
17.4664
 21
90.8783
  0
LINE
  8
0
 10
17.4664
 20
90.8783
 11
17.3718
 21
92.0959
  0
LINE
  8
0
 10
17.3718
 20
92.0959
 11
17.4172
 21
93.2634
  0
LINE
  8
0
 10
17.4172
 20
93.2634
 11
17.6047
 21
94.3801
  0
LINE
  8
0
 10
17.6047
 20
94.3801
 11
17.9326
 21
95.4456
  0
LINE
  8
0
 10
17.9326
 20
95.4456
 11
18.4026
 21
96.4592
  0
LINE
  8
0
 10
18.4026
 20
96.4592
 11
19.013
 21
97.4237
  0
LINE
  8
0
 10
19.013
 20
97.4237
 11
21.0029
 21
99.7869
  0
LINE
  8
0
 10
21.0029
 20
99.7869
 11
21.0029
 21
100.202
  0
LINE
  8
0
 10
21.0029
 20
100.202
 11
24.2558
 21
96.3043
  0
LINE
  8
0
 10
24.2558
 20
96.3043
 11
23.8318
 21
95.3596
  0
LINE
  8
0
 10
23.8318
 20
95.3596
 11
23.4344
 21
94.3961
  0
LINE
  8
0
 10
23.4344
 20
94.3961
 11
23.0654
 21
93.4161
  0
LINE
  8
0
 10
23.0654
 20
93.4161
 11
22.7236
 21
92.4196
  0
LINE
  8
0
 10
22.7236
 20
92.4196
 11
22.4101
 21
91.407
  0
LINE
  8
0
 10
22.4101
 20
91.407
 11
22.1244
 21
90.3768
  0
LINE
  8
0
 10
22.1244
 20
90.3768
 11
21.8665
 21
89.3317
  0
LINE
  8
0
 10
21.8665
 20
89.3317
 11
21.6368
 21
88.2694
  0
LINE
  8
0
 10
21.6368
 20
88.2694
 11
21.4349
 21
87.1912
  0
LINE
  8
0
 10
21.4349
 20
87.1912
 11
21.2608
 21
86.0963
  0
LINE
  8
0
 10
21.2608
 20
86.0963
 11
21.1145
 21
84.9855
  0
LINE
  8
0
 10
21.1145
 20
84.9855
 11
20.9959
 21
83.857
  0
LINE
  8
0
 10
20.9959
 20
83.857
 11
20.9959
 21
82.5117
  0
LINE
  8
0
 10
20.9959
 20
82.5117
 11
20.0597
 21
84.0253
  0
LINE
  8
0
 10
-21.9396
 20
84.0253
 11
-22.7407
 21
85.4977
  0
LINE
  8
0
 10
-22.7407
 20
85.4977
 11
-23.4003
 21
86.9193
  0
LINE
  8
0
 10
-23.4003
 20
86.9193
 11
-23.9194
 21
88.2892
  0
LINE
  8
0
 10
-23.9194
 20
88.2892
 11
-24.297
 21
89.6094
  0
LINE
  8
0
 10
-24.297
 20
89.6094
 11
-24.533
 21
90.8783
  0
LINE
  8
0
 10
-24.533
 20
90.8783
 11
-24.6275
 21
92.0959
  0
LINE
  8
0
 10
-24.6275
 20
92.0959
 11
-24.5821
 21
93.2634
  0
LINE
  8
0
 10
-24.5821
 20
93.2634
 11
-24.3947
 21
94.3801
  0
LINE
  8
0
 10
-24.3947
 20
94.3801
 11
-24.0668
 21
95.4456
  0
LINE
  8
0
 10
-24.0668
 20
95.4456
 11
-23.5968
 21
96.4592
  0
LINE
  8
0
 10
-23.5968
 20
96.4592
 11
-22.9864
 21
97.4237
  0
LINE
  8
0
 10
-22.9864
 20
97.4237
 11
-20.9965
 21
99.7869
  0
LINE
  8
0
 10
-20.9965
 20
99.7869
 11
-20.9965
 21
100.202
  0
LINE
  8
0
 10
-20.9965
 20
100.202
 11
-17.7435
 21
96.3043
  0
LINE
  8
0
 10
-17.7435
 20
96.3043
 11
-18.1676
 21
95.3596
  0
LINE
  8
0
 10
-18.1676
 20
95.3596
 11
-18.5649
 21
94.3961
  0
LINE
  8
0
 10
-18.5649
 20
94.3961
 11
-18.9339
 21
93.4161
  0
LINE
  8
0
 10
-18.9339
 20
93.4161
 11
-19.2757
 21
92.4196
  0
LINE
  8
0
 10
-19.2757
 20
92.4196
 11
-19.5892
 21
91.407
  0
LINE
  8
0
 10
-19.5892
 20
91.407
 11
-19.875
 21
90.3768
  0
LINE
  8
0
 10
-19.875
 20
90.3768
 11
-20.1329
 21
89.3317
  0
LINE
  8
0
 10
-20.1329
 20
89.3317
 11
-20.3625
 21
88.2694
  0
LINE
  8
0
 10
-20.3625
 20
88.2694
 11
-20.5644
 21
87.1912
  0
LINE
  8
0
 10
-20.5644
 20
87.1912
 11
-20.7385
 21
86.0963
  0
LINE
  8
0
 10
-20.7385
 20
86.0963
 11
-20.8849
 21
84.9855
  0
LINE
  8
0
 10
-20.8849
 20
84.9855
 11
-21.0034
 21
83.857
  0
LINE
  8
0
 10
-21.0034
 20
83.857
 11
-21.0034
 21
82.5117
  0
LINE
  8
0
 10
-21.0034
 20
82.5117
 11
-21.9396
 21
84.0253
  0
LINE
  8
0
 10
-11.4395
 20
84.0253
 11
-12.2406
 21
85.4977
  0
LINE
  8
0
 10
-12.2406
 20
85.4977
 11
-12.9002
 21
86.9193
  0
LINE
  8
0
 10
-12.9002
 20
86.9193
 11
-13.4193
 21
88.2892
  0
LINE
  8
0
 10
-13.4193
 20
88.2892
 11
-13.7968
 21
89.6094
  0
LINE
  8
0
 10
-13.7968
 20
89.6094
 11
-14.0329
 21
90.8783
  0
LINE
  8
0
 10
-14.0329
 20
90.8783
 11
-14.1274
 21
92.0959
  0
LINE
  8
0
 10
-14.1274
 20
92.0959
 11
-14.082
 21
93.2634
  0
LINE
  8
0
 10
-14.082
 20
93.2634
 11
-13.8946
 21
94.3801
  0
LINE
  8
0
 10
-13.8946
 20
94.3801
 11
-13.5667
 21
95.4456
  0
LINE
  8
0
 10
-13.5667
 20
95.4456
 11
-13.0967
 21
96.4592
  0
LINE
  8
0
 10
-13.0967
 20
96.4592
 11
-12.4863
 21
97.4237
  0
LINE
  8
0
 10
-12.4863
 20
97.4237
 11
-10.4964
 21
99.7869
  0
LINE
  8
0
 10
-10.4964
 20
99.7869
 11
-10.4964
 21
100.202
  0
LINE
  8
0
 10
-10.4964
 20
100.202
 11
-7.24342
 21
96.3043
  0
LINE
  8
0
 10
-7.24342
 20
96.3043
 11
-7.66747
 21
95.3596
  0
LINE
  8
0
 10
-7.66747
 20
95.3596
 11
-8.0648
 21
94.3961
  0
LINE
  8
0
 10
-8.0648
 20
94.3961
 11
-8.43384
 21
93.4161
  0
LINE
  8
0
 10
-8.43384
 20
93.4161
 11
-8.77563
 21
92.4196
  0
LINE
  8
0
 10
-8.77563
 20
92.4196
 11
-9.08913
 21
91.407
  0
LINE
  8
0
 10
-9.08913
 20
91.407
 11
-9.37485
 21
90.3768
  0
LINE
  8
0
 10
-9.37485
 20
90.3768
 11
-9.6328
 21
89.3317
  0
LINE
  8
0
 10
-9.6328
 20
89.3317
 11
-9.86244
 21
88.2694
  0
LINE
  8
0
 10
-9.86244
 20
88.2694
 11
-10.0643
 21
87.1912
  0
LINE
  8
0
 10
-10.0643
 20
87.1912
 11
-10.2384
 21
86.0963
  0
LINE
  8
0
 10
-10.2384
 20
86.0963
 11
-10.3848
 21
84.9855
  0
LINE
  8
0
 10
-10.3848
 20
84.9855
 11
-10.5033
 21
83.857
  0
LINE
  8
0
 10
-10.5033
 20
83.857
 11
-10.5033
 21
82.5117
  0
LINE
  8
0
 10
-10.5033
 20
82.5117
 11
-11.4395
 21
84.0253
  0
LINE
  8
0
 10
9.56017
 20
84.0253
 11
8.75908
 21
85.4977
  0
LINE
  8
0
 10
8.75908
 20
85.4977
 11
8.09952
 21
86.9193
  0
LINE
  8
0
 10
8.09952
 20
86.9193
 11
7.58041
 21
88.2892
  0
LINE
  8
0
 10
7.58041
 20
88.2892
 11
7.20284
 21
89.6094
  0
LINE
  8
0
 10
7.20284
 20
89.6094
 11
6.96678
 21
90.8783
  0
LINE
  8
0
 10
6.96678
 20
90.8783
 11
6.87225
 21
92.0959
  0
LINE
  8
0
 10
6.87225
 20
92.0959
 11
6.91765
 21
93.2634
  0
LINE
  8
0
 10
6.91765
 20
93.2634
 11
7.1051
 21
94.3801
  0
LINE
  8
0
 10
7.1051
 20
94.3801
 11
7.43301
 21
95.4456
  0
LINE
  8
0
 10
7.43301
 20
95.4456
 11
7.90298
 21
96.4592
  0
LINE
  8
0
 10
7.90298
 20
96.4592
 11
8.51341
 21
97.4237
  0
LINE
  8
0
 10
8.51341
 20
97.4237
 11
10.5033
 21
99.7869
  0
LINE
  8
0
 10
10.5033
 20
99.7869
 11
10.5033
 21
100.202
  0
LINE
  8
0
 10
10.5033
 20
100.202
 11
13.7557
 21
96.3043
  0
LINE
  8
0
 10
13.7557
 20
96.3043
 11
13.3317
 21
95.3596
  0
LINE
  8
0
 10
13.3317
 20
95.3596
 11
12.9343
 21
94.3961
  0
LINE
  8
0
 10
12.9343
 20
94.3961
 11
12.5653
 21
93.4161
  0
LINE
  8
0
 10
12.5653
 20
93.4161
 11
12.2235
 21
92.4196
  0
LINE
  8
0
 10
12.2235
 20
92.4196
 11
11.91
 21
91.407
  0
LINE
  8
0
 10
11.91
 20
91.407
 11
11.6243
 21
90.3768
  0
LINE
  8
0
 10
11.6243
 20
90.3768
 11
11.3663
 21
89.3317
  0
LINE
  8
0
 10
11.3663
 20
89.3317
 11
11.1367
 21
88.2694
  0
LINE
  8
0
 10
11.1367
 20
88.2694
 11
10.9348
 21
87.1912
  0
LINE
  8
0
 10
10.9348
 20
87.1912
 11
10.7607
 21
86.0963
  0
LINE
  8
0
 10
10.7607
 20
86.0963
 11
10.6144
 21
84.9855
  0
LINE
  8
0
 10
10.6144
 20
84.9855
 11
10.4958
 21
83.857
  0
LINE
  8
0
 10
10.4958
 20
83.857
 11
10.4958
 21
82.5123
  0
LINE
  8
0
 10
10.4958
 20
82.5123
 11
9.56017
 21
84.0253
  0
LINE
  8
0
 10
-32.4397
 20
84.0253
 11
-33.2408
 21
85.4977
  0
LINE
  8
0
 10
-33.2408
 20
85.4977
 11
-33.9004
 21
86.9193
  0
LINE
  8
0
 10
-33.9004
 20
86.9193
 11
-34.0297
 21
87.2607
  0
LINE
  8
0
 10
-34.0297
 20
87.2607
 11
-30.2932
 21
98.7604
  0
LINE
  8
0
 10
-30.2932
 20
98.7604
 11
-28.2436
 21
96.3043
  0
LINE
  8
0
 10
-28.2436
 20
96.3043
 11
-28.6677
 21
95.3596
  0
LINE
  8
0
 10
-28.6677
 20
95.3596
 11
-29.065
 21
94.3961
  0
LINE
  8
0
 10
-29.065
 20
94.3961
 11
-29.4341
 21
93.4161
  0
LINE
  8
0
 10
-29.4341
 20
93.4161
 11
-29.7758
 21
92.4196
  0
LINE
  8
0
 10
-29.7758
 20
92.4196
 11
-30.0893
 21
91.407
  0
LINE
  8
0
 10
-30.0893
 20
91.407
 11
-30.3751
 21
90.3768
  0
LINE
  8
0
 10
-30.3751
 20
90.3768
 11
-30.633
 21
89.3317
  0
LINE
  8
0
 10
-30.633
 20
89.3317
 11
-30.8627
 21
88.2694
  0
LINE
  8
0
 10
-30.8627
 20
88.2694
 11
-31.0645
 21
87.1912
  0
LINE
  8
0
 10
-31.0645
 20
87.1912
 11
-31.2386
 21
86.0963
  0
LINE
  8
0
 10
-31.2386
 20
86.0963
 11
-31.385
 21
84.9855
  0
LINE
  8
0
 10
-31.385
 20
84.9855
 11
-31.5035
 21
83.857
  0
LINE
  8
0
 10
-31.5035
 20
83.857
 11
-31.5035
 21
82.5117
  0
LINE
  8
0
 10
-31.5035
 20
82.5117
 11
-32.4397
 21
84.0253
  0
LINE
  8
0
 10
30.5598
 20
84.0253
 11
29.7588
 21
85.4977
  0
LINE
  8
0
 10
29.7588
 20
85.4977
 11
29.0992
 21
86.9193
  0
LINE
  8
0
 10
29.0992
 20
86.9193
 11
28.5801
 21
88.2892
  0
LINE
  8
0
 10
28.5801
 20
88.2892
 11
28.2025
 21
89.6094
  0
LINE
  8
0
 10
28.2025
 20
89.6094
 11
27.9665
 21
90.8783
  0
LINE
  8
0
 10
27.9665
 20
90.8783
 11
27.8719
 21
92.0959
  0
LINE
  8
0
 10
27.8719
 20
92.0959
 11
27.9173
 21
93.2634
  0
LINE
  8
0
 10
27.9173
 20
93.2634
 11
28.1048
 21
94.3801
  0
LINE
  8
0
 10
28.1048
 20
94.3801
 11
28.4327
 21
95.4456
  0
LINE
  8
0
 10
28.4327
 20
95.4456
 11
28.9027
 21
96.4592
  0
LINE
  8
0
 10
28.9027
 20
96.4592
 11
29.5131
 21
97.4237
  0
LINE
  8
0
 10
29.5131
 20
97.4237
 11
30.3894
 21
98.4644
  0
LINE
  8
0
 10
30.3894
 20
98.4644
 11
32.8054
 21
91.0289
  0
LINE
  8
0
 10
32.8054
 20
91.0289
 11
32.6245
 21
90.3768
  0
LINE
  8
0
 10
32.6245
 20
90.3768
 11
32.3666
 21
89.3317
  0
LINE
  8
0
 10
32.3666
 20
89.3317
 11
32.1369
 21
88.2694
  0
LINE
  8
0
 10
32.1369
 20
88.2694
 11
31.935
 21
87.1912
  0
LINE
  8
0
 10
31.935
 20
87.1912
 11
31.7609
 21
86.0963
  0
LINE
  8
0
 10
31.7609
 20
86.0963
 11
31.6146
 21
84.9855
  0
LINE
  8
0
 10
31.6146
 20
84.9855
 11
31.496
 21
83.857
  0
LINE
  8
0
 10
31.496
 20
83.857
 11
31.496
 21
82.5117
  0
LINE
  8
0
 10
31.496
 20
82.5117
 11
30.5598
 21
84.0253
  0
LINE
  8
0
 10
5.25352
 20
65.2131
 11
3.26309
 21
67.5763
  0
LINE
  8
0
 10
3.26309
 20
67.5763
 11
2.6532
 21
68.5403
  0
LINE
  8
0
 10
2.6532
 20
68.5403
 11
2.18323
 21
69.555
  0
LINE
  8
0
 10
2.18323
 20
69.555
 11
1.85478
 21
70.6215
  0
LINE
  8
0
 10
1.85478
 20
70.6215
 11
1.66733
 21
71.7371
  0
LINE
  8
0
 10
1.66733
 20
71.7371
 11
1.62247
 21
72.9035
  0
LINE
  8
0
 10
1.62247
 20
72.9035
 11
1.71753
 21
74.1217
  0
LINE
  8
0
 10
1.71753
 20
74.1217
 11
1.95305
 21
75.3912
  0
LINE
  8
0
 10
1.95305
 20
75.3912
 11
2.33063
 21
76.7108
  0
LINE
  8
0
 10
2.33063
 20
76.7108
 11
2.84973
 21
78.0807
  0
LINE
  8
0
 10
2.84973
 20
78.0807
 11
3.50929
 21
79.5023
  0
LINE
  8
0
 10
3.50929
 20
79.5023
 11
4.31038
 21
80.9747
  0
LINE
  8
0
 10
4.31038
 20
80.9747
 11
5.24605
 21
82.4888
  0
LINE
  8
0
 10
5.24605
 20
82.4888
 11
5.24605
 21
81.1435
  0
LINE
  8
0
 10
5.24605
 20
81.1435
 11
5.36407
 21
80.0156
  0
LINE
  8
0
 10
5.36407
 20
80.0156
 11
5.51041
 21
78.9042
  0
LINE
  8
0
 10
5.51041
 20
78.9042
 11
5.68504
 21
77.8094
  0
LINE
  8
0
 10
5.68504
 20
77.8094
 11
5.88692
 21
76.7311
  0
LINE
  8
0
 10
5.88692
 20
76.7311
 11
6.11656
 21
75.6689
  0
LINE
  8
0
 10
6.11656
 20
75.6689
 11
6.37451
 21
74.6237
  0
LINE
  8
0
 10
6.37451
 20
74.6237
 11
6.66023
 21
73.5941
  0
LINE
  8
0
 10
6.66023
 20
73.5941
 11
6.97372
 21
72.5809
  0
LINE
  8
0
 10
6.97372
 20
72.5809
 11
7.31552
 21
71.5844
  0
LINE
  8
0
 10
7.31552
 20
71.5844
 11
7.68456
 21
70.6044
  0
LINE
  8
0
 10
7.68456
 20
70.6044
 11
8.08189
 21
69.641
  0
LINE
  8
0
 10
8.08189
 20
69.641
 11
8.50647
 21
68.6957
  0
LINE
  8
0
 10
8.50647
 20
68.6957
 11
5.25352
 21
64.7981
  0
LINE
  8
0
 10
5.25352
 20
64.7981
 11
5.25352
 21
65.2131
  0
LINE
  8
0
 10
-5.24605
 20
65.2131
 11
-7.23648
 21
67.5763
  0
LINE
  8
0
 10
-7.23648
 20
67.5763
 11
-7.84637
 21
68.5403
  0
LINE
  8
0
 10
-7.84637
 20
68.5403
 11
-8.31635
 21
69.555
  0
LINE
  8
0
 10
-8.31635
 20
69.555
 11
-8.64479
 21
70.6215
  0
LINE
  8
0
 10
-8.64479
 20
70.6215
 11
-8.83224
 21
71.7371
  0
LINE
  8
0
 10
-8.83224
 20
71.7371
 11
-8.87711
 21
72.9035
  0
LINE
  8
0
 10
-8.87711
 20
72.9035
 11
-8.78204
 21
74.1217
  0
LINE
  8
0
 10
-8.78204
 20
74.1217
 11
-8.54652
 21
75.3912
  0
LINE
  8
0
 10
-8.54652
 20
75.3912
 11
-8.16895
 21
76.7108
  0
LINE
  8
0
 10
-8.16895
 20
76.7108
 11
-7.64984
 21
78.0807
  0
LINE
  8
0
 10
-7.64984
 20
78.0807
 11
-6.99028
 21
79.5023
  0
LINE
  8
0
 10
-6.99028
 20
79.5023
 11
-6.18919
 21
80.9747
  0
LINE
  8
0
 10
-6.18919
 20
80.9747
 11
-5.25352
 21
82.4888
  0
LINE
  8
0
 10
-5.25352
 20
82.4888
 11
-5.25352
 21
81.1435
  0
LINE
  8
0
 10
-5.25352
 20
81.1435
 11
-5.1355
 21
80.0156
  0
LINE
  8
0
 10
-5.1355
 20
80.0156
 11
-4.98917
 21
78.9042
  0
LINE
  8
0
 10
-4.98917
 20
78.9042
 11
-4.81453
 21
77.8094
  0
LINE
  8
0
 10
-4.81453
 20
77.8094
 11
-4.61266
 21
76.7311
  0
LINE
  8
0
 10
-4.61266
 20
76.7311
 11
-4.38301
 21
75.6689
  0
LINE
  8
0
 10
-4.38301
 20
75.6689
 11
-4.12506
 21
74.6237
  0
LINE
  8
0
 10
-4.12506
 20
74.6237
 11
-3.83934
 21
73.5941
  0
LINE
  8
0
 10
-3.83934
 20
73.5941
 11
-3.52585
 21
72.5809
  0
LINE
  8
0
 10
-3.52585
 20
72.5809
 11
-3.18405
 21
71.5844
  0
LINE
  8
0
 10
-3.18405
 20
71.5844
 11
-2.81502
 21
70.6044
  0
LINE
  8
0
 10
-2.81502
 20
70.6044
 11
-2.41768
 21
69.641
  0
LINE
  8
0
 10
-2.41768
 20
69.641
 11
-1.9931
 21
68.6957
  0
LINE
  8
0
 10
-1.9931
 20
68.6957
 11
-5.24605
 21
64.7981
  0
LINE
  8
0
 10
-5.24605
 20
64.7981
 11
-5.24605
 21
65.2131
  0
LINE
  8
0
 10
26.2532
 20
65.2131
 11
24.2628
 21
67.5763
  0
LINE
  8
0
 10
24.2628
 20
67.5763
 11
23.6529
 21
68.5403
  0
LINE
  8
0
 10
23.6529
 20
68.5403
 11
23.1829
 21
69.555
  0
LINE
  8
0
 10
23.1829
 20
69.555
 11
22.8545
 21
70.6215
  0
LINE
  8
0
 10
22.8545
 20
70.6215
 11
22.667
 21
71.7371
  0
LINE
  8
0
 10
22.667
 20
71.7371
 11
22.6221
 21
72.9035
  0
LINE
  8
0
 10
22.6221
 20
72.9035
 11
22.7172
 21
74.1217
  0
LINE
  8
0
 10
22.7172
 20
74.1217
 11
22.9527
 21
75.3912
  0
LINE
  8
0
 10
22.9527
 20
75.3912
 11
23.3303
 21
76.7108
  0
LINE
  8
0
 10
23.3303
 20
76.7108
 11
23.8494
 21
78.0807
  0
LINE
  8
0
 10
23.8494
 20
78.0807
 11
24.509
 21
79.5023
  0
LINE
  8
0
 10
24.509
 20
79.5023
 11
25.3101
 21
80.9747
  0
LINE
  8
0
 10
25.3101
 20
80.9747
 11
26.2457
 21
82.4888
  0
LINE
  8
0
 10
26.2457
 20
82.4888
 11
26.2457
 21
81.1435
  0
LINE
  8
0
 10
26.2457
 20
81.1435
 11
26.3638
 21
80.0156
  0
LINE
  8
0
 10
26.3638
 20
80.0156
 11
26.5101
 21
78.9042
  0
LINE
  8
0
 10
26.5101
 20
78.9042
 11
26.6847
 21
77.8094
  0
LINE
  8
0
 10
26.6847
 20
77.8094
 11
26.8866
 21
76.7311
  0
LINE
  8
0
 10
26.8866
 20
76.7311
 11
27.1162
 21
75.6689
  0
LINE
  8
0
 10
27.1162
 20
75.6689
 11
27.3742
 21
74.6237
  0
LINE
  8
0
 10
27.3742
 20
74.6237
 11
27.6599
 21
73.5941
  0
LINE
  8
0
 10
27.6599
 20
73.5941
 11
27.9734
 21
72.5809
  0
LINE
  8
0
 10
27.9734
 20
72.5809
 11
28.3152
 21
71.5844
  0
LINE
  8
0
 10
28.3152
 20
71.5844
 11
28.6842
 21
70.6044
  0
LINE
  8
0
 10
28.6842
 20
70.6044
 11
29.0816
 21
69.641
  0
LINE
  8
0
 10
29.0816
 20
69.641
 11
29.5061
 21
68.6957
  0
LINE
  8
0
 10
29.5061
 20
68.6957
 11
26.2532
 21
64.7981
  0
LINE
  8
0
 10
26.2532
 20
64.7981
 11
26.2532
 21
65.2131
  0
LINE
  8
0
 10
15.7531
 20
65.2131
 11
13.7627
 21
67.5763
  0
LINE
  8
0
 10
13.7627
 20
67.5763
 11
13.1528
 21
68.5403
  0
LINE
  8
0
 10
13.1528
 20
68.5403
 11
12.6828
 21
69.555
  0
LINE
  8
0
 10
12.6828
 20
69.555
 11
12.3544
 21
70.6215
  0
LINE
  8
0
 10
12.3544
 20
70.6215
 11
12.1669
 21
71.7371
  0
LINE
  8
0
 10
12.1669
 20
71.7371
 11
12.122
 21
72.9035
  0
LINE
  8
0
 10
12.122
 20
72.9035
 11
12.2171
 21
74.1217
  0
LINE
  8
0
 10
12.2171
 20
74.1217
 11
12.4526
 21
75.3912
  0
LINE
  8
0
 10
12.4526
 20
75.3912
 11
12.8302
 21
76.7108
  0
LINE
  8
0
 10
12.8302
 20
76.7108
 11
13.3493
 21
78.0807
  0
LINE
  8
0
 10
13.3493
 20
78.0807
 11
14.0089
 21
79.5023
  0
LINE
  8
0
 10
14.0089
 20
79.5023
 11
14.81
 21
80.9747
  0
LINE
  8
0
 10
14.81
 20
80.9747
 11
15.7456
 21
82.4888
  0
LINE
  8
0
 10
15.7456
 20
82.4888
 11
15.7456
 21
81.1435
  0
LINE
  8
0
 10
15.7456
 20
81.1435
 11
15.8636
 21
80.0156
  0
LINE
  8
0
 10
15.8636
 20
80.0156
 11
16.01
 21
78.9042
  0
LINE
  8
0
 10
16.01
 20
78.9042
 11
16.1846
 21
77.8094
  0
LINE
  8
0
 10
16.1846
 20
77.8094
 11
16.3865
 21
76.7311
  0
LINE
  8
0
 10
16.3865
 20
76.7311
 11
16.6161
 21
75.6689
  0
LINE
  8
0
 10
16.6161
 20
75.6689
 11
16.8741
 21
74.6237
  0
LINE
  8
0
 10
16.8741
 20
74.6237
 11
17.1598
 21
73.5941
  0
LINE
  8
0
 10
17.1598
 20
73.5941
 11
17.4733
 21
72.5809
  0
LINE
  8
0
 10
17.4733
 20
72.5809
 11
17.8151
 21
71.5844
  0
LINE
  8
0
 10
17.8151
 20
71.5844
 11
18.1841
 21
70.6044
  0
LINE
  8
0
 10
18.1841
 20
70.6044
 11
18.5815
 21
69.641
  0
LINE
  8
0
 10
18.5815
 20
69.641
 11
19.006
 21
68.6957
  0
LINE
  8
0
 10
19.006
 20
68.6957
 11
15.7531
 21
64.7981
  0
LINE
  8
0
 10
15.7531
 20
64.7981
 11
15.7531
 21
65.2131
  0
LINE
  8
0
 10
-26.2463
 20
65.2131
 11
-28.2367
 21
67.5763
  0
LINE
  8
0
 10
-28.2367
 20
67.5763
 11
-28.8466
 21
68.5403
  0
LINE
  8
0
 10
-28.8466
 20
68.5403
 11
-29.3166
 21
69.555
  0
LINE
  8
0
 10
-29.3166
 20
69.555
 11
-29.645
 21
70.6215
  0
LINE
  8
0
 10
-29.645
 20
70.6215
 11
-29.8325
 21
71.7371
  0
LINE
  8
0
 10
-29.8325
 20
71.7371
 11
-29.8773
 21
72.9035
  0
LINE
  8
0
 10
-29.8773
 20
72.9035
 11
-29.7823
 21
74.1217
  0
LINE
  8
0
 10
-29.7823
 20
74.1217
 11
-29.5467
 21
75.3912
  0
LINE
  8
0
 10
-29.5467
 20
75.3912
 11
-29.1692
 21
76.7108
  0
LINE
  8
0
 10
-29.1692
 20
76.7108
 11
-28.6501
 21
78.0807
  0
LINE
  8
0
 10
-28.6501
 20
78.0807
 11
-27.9905
 21
79.5023
  0
LINE
  8
0
 10
-27.9905
 20
79.5023
 11
-27.1894
 21
80.9747
  0
LINE
  8
0
 10
-27.1894
 20
80.9747
 11
-26.2537
 21
82.4888
  0
LINE
  8
0
 10
-26.2537
 20
82.4888
 11
-26.2537
 21
81.1435
  0
LINE
  8
0
 10
-26.2537
 20
81.1435
 11
-26.1357
 21
80.0156
  0
LINE
  8
0
 10
-26.1357
 20
80.0156
 11
-25.9894
 21
78.9042
  0
LINE
  8
0
 10
-25.9894
 20
78.9042
 11
-25.8147
 21
77.8094
  0
LINE
  8
0
 10
-25.8147
 20
77.8094
 11
-25.6129
 21
76.7311
  0
LINE
  8
0
 10
-25.6129
 20
76.7311
 11
-25.3832
 21
75.6689
  0
LINE
  8
0
 10
-25.3832
 20
75.6689
 11
-25.1253
 21
74.6237
  0
LINE
  8
0
 10
-25.1253
 20
74.6237
 11
-24.8396
 21
73.5941
  0
LINE
  8
0
 10
-24.8396
 20
73.5941
 11
-24.5261
 21
72.5809
  0
LINE
  8
0
 10
-24.5261
 20
72.5809
 11
-24.1843
 21
71.5844
  0
LINE
  8
0
 10
-24.1843
 20
71.5844
 11
-23.8152
 21
70.6044
  0
LINE
  8
0
 10
-23.8152
 20
70.6044
 11
-23.4179
 21
69.641
  0
LINE
  8
0
 10
-23.4179
 20
69.641
 11
-22.9933
 21
68.6957
  0
LINE
  8
0
 10
-22.9933
 20
68.6957
 11
-26.2463
 21
64.7981
  0
LINE
  8
0
 10
-26.2463
 20
64.7981
 11
-26.2463
 21
65.2131
  0
LINE
  8
0
 10
-15.7462
 20
65.2131
 11
-17.7366
 21
67.5763
  0
LINE
  8
0
 10
-17.7366
 20
67.5763
 11
-18.3465
 21
68.5403
  0
LINE
  8
0
 10
-18.3465
 20
68.5403
 11
-18.8165
 21
69.555
  0
LINE
  8
0
 10
-18.8165
 20
69.555
 11
-19.1449
 21
70.6215
  0
LINE
  8
0
 10
-19.1449
 20
70.6215
 11
-19.3324
 21
71.7371
  0
LINE
  8
0
 10
-19.3324
 20
71.7371
 11
-19.3772
 21
72.9035
  0
LINE
  8
0
 10
-19.3772
 20
72.9035
 11
-19.2822
 21
74.1217
  0
LINE
  8
0
 10
-19.2822
 20
74.1217
 11
-19.0466
 21
75.3912
  0
LINE
  8
0
 10
-19.0466
 20
75.3912
 11
-18.6691
 21
76.7108
  0
LINE
  8
0
 10
-18.6691
 20
76.7108
 11
-18.1499
 21
78.0807
  0
LINE
  8
0
 10
-18.1499
 20
78.0807
 11
-17.4904
 21
79.5023
  0
LINE
  8
0
 10
-17.4904
 20
79.5023
 11
-16.6893
 21
80.9747
  0
LINE
  8
0
 10
-16.6893
 20
80.9747
 11
-15.7536
 21
82.4888
  0
LINE
  8
0
 10
-15.7536
 20
82.4888
 11
-15.7536
 21
81.1435
  0
LINE
  8
0
 10
-15.7536
 20
81.1435
 11
-15.6356
 21
80.0156
  0
LINE
  8
0
 10
-15.6356
 20
80.0156
 11
-15.4893
 21
78.9042
  0
LINE
  8
0
 10
-15.4893
 20
78.9042
 11
-15.3146
 21
77.8094
  0
LINE
  8
0
 10
-15.3146
 20
77.8094
 11
-15.1128
 21
76.7311
  0
LINE
  8
0
 10
-15.1128
 20
76.7311
 11
-14.8831
 21
75.6689
  0
LINE
  8
0
 10
-14.8831
 20
75.6689
 11
-14.6252
 21
74.6237
  0
LINE
  8
0
 10
-14.6252
 20
74.6237
 11
-14.3394
 21
73.5941
  0
LINE
  8
0
 10
-14.3394
 20
73.5941
 11
-14.026
 21
72.5809
  0
LINE
  8
0
 10
-14.026
 20
72.5809
 11
-13.6842
 21
71.5844
  0
LINE
  8
0
 10
-13.6842
 20
71.5844
 11
-13.3151
 21
70.6044
  0
LINE
  8
0
 10
-13.3151
 20
70.6044
 11
-12.9178
 21
69.641
  0
LINE
  8
0
 10
-12.9178
 20
69.641
 11
-12.4932
 21
68.6957
  0
LINE
  8
0
 10
-12.4932
 20
68.6957
 11
-15.7462
 21
64.7981
  0
LINE
  8
0
 10
-15.7462
 20
64.7981
 11
-15.7462
 21
65.2131
  0
LINE
  8
0
 10
36.7533
 20
65.2131
 11
34.7629
 21
67.5763
  0
LINE
  8
0
 10
34.7629
 20
67.5763
 11
34.153
 21
68.5403
  0
LINE
  8
0
 10
34.153
 20
68.5403
 11
33.683
 21
69.555
  0
LINE
  8
0
 10
33.683
 20
69.555
 11
33.3546
 21
70.6215
  0
LINE
  8
0
 10
33.3546
 20
70.6215
 11
33.1671
 21
71.7371
  0
LINE
  8
0
 10
33.1671
 20
71.7371
 11
33.1223
 21
72.9035
  0
LINE
  8
0
 10
33.1223
 20
72.9035
 11
33.2173
 21
74.1217
  0
LINE
  8
0
 10
33.2173
 20
74.1217
 11
33.4528
 21
75.3912
  0
LINE
  8
0
 10
33.4528
 20
75.3912
 11
33.8304
 21
76.7108
  0
LINE
  8
0
 10
33.8304
 20
76.7108
 11
34.3495
 21
78.0807
  0
LINE
  8
0
 10
34.3495
 20
78.0807
 11
35.0091
 21
79.5023
  0
LINE
  8
0
 10
35.0091
 20
79.5023
 11
35.8102
 21
80.9747
  0
LINE
  8
0
 10
35.8102
 20
80.9747
 11
35.9819
 21
81.2526
  0
LINE
  8
0
 10
35.9819
 20
81.2526
 11
37.2993
 21
77.1981
  0
LINE
  8
0
 10
37.2993
 20
77.1981
 11
37.3867
 21
76.7311
  0
LINE
  8
0
 10
37.3867
 20
76.7311
 11
37.6163
 21
75.6689
  0
LINE
  8
0
 10
37.6163
 20
75.6689
 11
37.8743
 21
74.6237
  0
LINE
  8
0
 10
37.8743
 20
74.6237
 11
38.16
 21
73.5941
  0
LINE
  8
0
 10
38.16
 20
73.5941
 11
38.4735
 21
72.5809
  0
LINE
  8
0
 10
38.4735
 20
72.5809
 11
38.8153
 21
71.5844
  0
LINE
  8
0
 10
38.8153
 20
71.5844
 11
39.1843
 21
70.6044
  0
LINE
  8
0
 10
39.1843
 20
70.6044
 11
39.5817
 21
69.641
  0
LINE
  8
0
 10
39.5817
 20
69.641
 11
40.0063
 21
68.6957
  0
LINE
  8
0
 10
40.0063
 20
68.6957
 11
36.7533
 21
64.7981
  0
LINE
  8
0
 10
36.7533
 20
64.7981
 11
36.7533
 21
65.2131
  0
LINE
  8
0
 10
-36.7464
 20
65.2131
 11
-38.7368
 21
67.5763
  0
LINE
  8
0
 10
-38.7368
 20
67.5763
 11
-39.3467
 21
68.5403
  0
LINE
  8
0
 10
-39.3467
 20
68.5403
 11
-39.7967
 21
69.5118
  0
LINE
  8
0
 10
-39.7967
 20
69.5118
 11
-36.5632
 21
79.4636
  0
LINE
  8
0
 10
-36.5632
 20
79.4636
 11
-36.4895
 21
78.9042
  0
LINE
  8
0
 10
-36.4895
 20
78.9042
 11
-36.3148
 21
77.8094
  0
LINE
  8
0
 10
-36.3148
 20
77.8094
 11
-36.113
 21
76.7311
  0
LINE
  8
0
 10
-36.113
 20
76.7311
 11
-35.8833
 21
75.6689
  0
LINE
  8
0
 10
-35.8833
 20
75.6689
 11
-35.6254
 21
74.6237
  0
LINE
  8
0
 10
-35.6254
 20
74.6237
 11
-35.3397
 21
73.5941
  0
LINE
  8
0
 10
-35.3397
 20
73.5941
 11
-35.0262
 21
72.5809
  0
LINE
  8
0
 10
-35.0262
 20
72.5809
 11
-34.6844
 21
71.5844
  0
LINE
  8
0
 10
-34.6844
 20
71.5844
 11
-34.3153
 21
70.6044
  0
LINE
  8
0
 10
-34.3153
 20
70.6044
 11
-33.918
 21
69.641
  0
LINE
  8
0
 10
-33.918
 20
69.641
 11
-33.4934
 21
68.6957
  0
LINE
  8
0
 10
-33.4934
 20
68.6957
 11
-36.7464
 21
64.7981
  0
LINE
  8
0
 10
-36.7464
 20
64.7981
 11
-36.7464
 21
65.2131
  0
LINE
  8
0
 10
20.0597
 20
49.0253
 11
19.2587
 21
50.4977
  0
LINE
  8
0
 10
19.2587
 20
50.4977
 11
18.5991
 21
51.9193
  0
LINE
  8
0
 10
18.5991
 20
51.9193
 11
18.08
 21
53.2892
  0
LINE
  8
0
 10
18.08
 20
53.2892
 11
17.7024
 21
54.6094
  0
LINE
  8
0
 10
17.7024
 20
54.6094
 11
17.4664
 21
55.8783
  0
LINE
  8
0
 10
17.4664
 20
55.8783
 11
17.3718
 21
57.0959
  0
LINE
  8
0
 10
17.3718
 20
57.0959
 11
17.4172
 21
58.2634
  0
LINE
  8
0
 10
17.4172
 20
58.2634
 11
17.6047
 21
59.3801
  0
LINE
  8
0
 10
17.6047
 20
59.3801
 11
17.9326
 21
60.4456
  0
LINE
  8
0
 10
17.9326
 20
60.4456
 11
18.4026
 21
61.4592
  0
LINE
  8
0
 10
18.4026
 20
61.4592
 11
19.013
 21
62.4237
  0
LINE
  8
0
 10
19.013
 20
62.4237
 11
21.0029
 21
64.7869
  0
LINE
  8
0
 10
21.0029
 20
64.7869
 11
21.0029
 21
65.2024
  0
LINE
  8
0
 10
21.0029
 20
65.2024
 11
24.2558
 21
61.3043
  0
LINE
  8
0
 10
24.2558
 20
61.3043
 11
23.8318
 21
60.3596
  0
LINE
  8
0
 10
23.8318
 20
60.3596
 11
23.4344
 21
59.3961
  0
LINE
  8
0
 10
23.4344
 20
59.3961
 11
23.0654
 21
58.4161
  0
LINE
  8
0
 10
23.0654
 20
58.4161
 11
22.7236
 21
57.4196
  0
LINE
  8
0
 10
22.7236
 20
57.4196
 11
22.4101
 21
56.407
  0
LINE
  8
0
 10
22.4101
 20
56.407
 11
22.1244
 21
55.3768
  0
LINE
  8
0
 10
22.1244
 20
55.3768
 11
21.8665
 21
54.3317
  0
LINE
  8
0
 10
21.8665
 20
54.3317
 11
21.6368
 21
53.2694
  0
LINE
  8
0
 10
21.6368
 20
53.2694
 11
21.4349
 21
52.1912
  0
LINE
  8
0
 10
21.4349
 20
52.1912
 11
21.2608
 21
51.0963
  0
LINE
  8
0
 10
21.2608
 20
51.0963
 11
21.1145
 21
49.9855
  0
LINE
  8
0
 10
21.1145
 20
49.9855
 11
20.9959
 21
48.857
  0
LINE
  8
0
 10
20.9959
 20
48.857
 11
20.9959
 21
47.5117
  0
LINE
  8
0
 10
20.9959
 20
47.5117
 11
20.0597
 21
49.0253
  0
LINE
  8
0
 10
30.5598
 20
49.0253
 11
29.7588
 21
50.4977
  0
LINE
  8
0
 10
29.7588
 20
50.4977
 11
29.0992
 21
51.9193
  0
LINE
  8
0
 10
29.0992
 20
51.9193
 11
28.5801
 21
53.2892
  0
LINE
  8
0
 10
28.5801
 20
53.2892
 11
28.2025
 21
54.6094
  0
LINE
  8
0
 10
28.2025
 20
54.6094
 11
27.9665
 21
55.8783
  0
LINE
  8
0
 10
27.9665
 20
55.8783
 11
27.8719
 21
57.0959
  0
LINE
  8
0
 10
27.8719
 20
57.0959
 11
27.9173
 21
58.2634
  0
LINE
  8
0
 10
27.9173
 20
58.2634
 11
28.1048
 21
59.3801
  0
LINE
  8
0
 10
28.1048
 20
59.3801
 11
28.4327
 21
60.4456
  0
LINE
  8
0
 10
28.4327
 20
60.4456
 11
28.9027
 21
61.4592
  0
LINE
  8
0
 10
28.9027
 20
61.4592
 11
29.5131
 21
62.4237
  0
LINE
  8
0
 10
29.5131
 20
62.4237
 11
31.503
 21
64.7869
  0
LINE
  8
0
 10
31.503
 20
64.7869
 11
31.503
 21
65.2024
  0
LINE
  8
0
 10
31.503
 20
65.2024
 11
34.7559
 21
61.3043
  0
LINE
  8
0
 10
34.7559
 20
61.3043
 11
34.3319
 21
60.3596
  0
LINE
  8
0
 10
34.3319
 20
60.3596
 11
33.9346
 21
59.3961
  0
LINE
  8
0
 10
33.9346
 20
59.3961
 11
33.5655
 21
58.4161
  0
LINE
  8
0
 10
33.5655
 20
58.4161
 11
33.2237
 21
57.4196
  0
LINE
  8
0
 10
33.2237
 20
57.4196
 11
32.9102
 21
56.407
  0
LINE
  8
0
 10
32.9102
 20
56.407
 11
32.6245
 21
55.3768
  0
LINE
  8
0
 10
32.6245
 20
55.3768
 11
32.3666
 21
54.3317
  0
LINE
  8
0
 10
32.3666
 20
54.3317
 11
32.1369
 21
53.2694
  0
LINE
  8
0
 10
32.1369
 20
53.2694
 11
31.935
 21
52.1912
  0
LINE
  8
0
 10
31.935
 20
52.1912
 11
31.7609
 21
51.0963
  0
LINE
  8
0
 10
31.7609
 20
51.0963
 11
31.6146
 21
49.9855
  0
LINE
  8
0
 10
31.6146
 20
49.9855
 11
31.496
 21
48.857
  0
LINE
  8
0
 10
31.496
 20
48.857
 11
31.496
 21
47.5117
  0
LINE
  8
0
 10
31.496
 20
47.5117
 11
30.5598
 21
49.0253
  0
LINE
  8
0
 10
-11.4395
 20
49.0253
 11
-12.2406
 21
50.4977
  0
LINE
  8
0
 10
-12.2406
 20
50.4977
 11
-12.9002
 21
51.9193
  0
LINE
  8
0
 10
-12.9002
 20
51.9193
 11
-13.4193
 21
53.2892
  0
LINE
  8
0
 10
-13.4193
 20
53.2892
 11
-13.7968
 21
54.6094
  0
LINE
  8
0
 10
-13.7968
 20
54.6094
 11
-14.0329
 21
55.8783
  0
LINE
  8
0
 10
-14.0329
 20
55.8783
 11
-14.1274
 21
57.0959
  0
LINE
  8
0
 10
-14.1274
 20
57.0959
 11
-14.082
 21
58.2634
  0
LINE
  8
0
 10
-14.082
 20
58.2634
 11
-13.8946
 21
59.3801
  0
LINE
  8
0
 10
-13.8946
 20
59.3801
 11
-13.5667
 21
60.4456
  0
LINE
  8
0
 10
-13.5667
 20
60.4456
 11
-13.0967
 21
61.4592
  0
LINE
  8
0
 10
-13.0967
 20
61.4592
 11
-12.4863
 21
62.4237
  0
LINE
  8
0
 10
-12.4863
 20
62.4237
 11
-10.4964
 21
64.7869
  0
LINE
  8
0
 10
-10.4964
 20
64.7869
 11
-10.4964
 21
65.2024
  0
LINE
  8
0
 10
-10.4964
 20
65.2024
 11
-7.24342
 21
61.3043
  0
LINE
  8
0
 10
-7.24342
 20
61.3043
 11
-7.66747
 21
60.3596
  0
LINE
  8
0
 10
-7.66747
 20
60.3596
 11
-8.0648
 21
59.3961
  0
LINE
  8
0
 10
-8.0648
 20
59.3961
 11
-8.43384
 21
58.4161
  0
LINE
  8
0
 10
-8.43384
 20
58.4161
 11
-8.77563
 21
57.4196
  0
LINE
  8
0
 10
-8.77563
 20
57.4196
 11
-9.08913
 21
56.407
  0
LINE
  8
0
 10
-9.08913
 20
56.407
 11
-9.37485
 21
55.3768
  0
LINE
  8
0
 10
-9.37485
 20
55.3768
 11
-9.6328
 21
54.3317
  0
LINE
  8
0
 10
-9.6328
 20
54.3317
 11
-9.86244
 21
53.2694
  0
LINE
  8
0
 10
-9.86244
 20
53.2694
 11
-10.0643
 21
52.1912
  0
LINE
  8
0
 10
-10.0643
 20
52.1912
 11
-10.2384
 21
51.0963
  0
LINE
  8
0
 10
-10.2384
 20
51.0963
 11
-10.3848
 21
49.9855
  0
LINE
  8
0
 10
-10.3848
 20
49.9855
 11
-10.5033
 21
48.857
  0
LINE
  8
0
 10
-10.5033
 20
48.857
 11
-10.5033
 21
47.5117
  0
LINE
  8
0
 10
-10.5033
 20
47.5117
 11
-11.4395
 21
49.0253
  0
LINE
  8
0
 10
-0.939407
 20
49.0253
 11
-1.74049
 21
50.4977
  0
LINE
  8
0
 10
-1.74049
 20
50.4977
 11
-2.40005
 21
51.9193
  0
LINE
  8
0
 10
-2.40005
 20
51.9193
 11
-2.91916
 21
53.2892
  0
LINE
  8
0
 10
-2.91916
 20
53.2892
 11
-3.29674
 21
54.6094
  0
LINE
  8
0
 10
-3.29674
 20
54.6094
 11
-3.53279
 21
55.8783
  0
LINE
  8
0
 10
-3.53279
 20
55.8783
 11
-3.62732
 21
57.0959
  0
LINE
  8
0
 10
-3.62732
 20
57.0959
 11
-3.58192
 21
58.2634
  0
LINE
  8
0
 10
-3.58192
 20
58.2634
 11
-3.39447
 21
59.3801
  0
LINE
  8
0
 10
-3.39447
 20
59.3801
 11
-3.06656
 21
60.4456
  0
LINE
  8
0
 10
-3.06656
 20
60.4456
 11
-2.59659
 21
61.4592
  0
LINE
  8
0
 10
-2.59659
 20
61.4592
 11
-1.98616
 21
62.4237
  0
LINE
  8
0
 10
-1.98616
 20
62.4237
 11
0.00320435
 21
64.7869
  0
LINE
  8
0
 10
0.00320435
 20
64.7869
 11
0.00320435
 21
65.2024
  0
LINE
  8
0
 10
0.00320435
 20
65.2024
 11
3.25615
 21
61.3043
  0
LINE
  8
0
 10
3.25615
 20
61.3043
 11
2.83211
 21
60.3596
  0
LINE
  8
0
 10
2.83211
 20
60.3596
 11
2.43477
 21
59.3961
  0
LINE
  8
0
 10
2.43477
 20
59.3961
 11
2.06573
 21
58.4161
  0
LINE
  8
0
 10
2.06573
 20
58.4161
 11
1.72394
 21
57.4196
  0
LINE
  8
0
 10
1.72394
 20
57.4196
 11
1.41045
 21
56.407
  0
LINE
  8
0
 10
1.41045
 20
56.407
 11
1.12473
 21
55.3768
  0
LINE
  8
0
 10
1.12473
 20
55.3768
 11
0.866776
 21
54.3317
  0
LINE
  8
0
 10
0.866776
 20
54.3317
 11
0.637131
 21
53.2694
  0
LINE
  8
0
 10
0.637131
 20
53.2694
 11
0.435257
 21
52.1912
  0
LINE
  8
0
 10
0.435257
 20
52.1912
 11
0.261154
 21
51.0963
  0
LINE
  8
0
 10
0.261154
 20
51.0963
 11
0.114822
 21
49.9855
  0
LINE
  8
0
 10
0.114822
 20
49.9855
 11
-0.0037384
 21
48.857
  0
LINE
  8
0
 10
-0.0037384
 20
48.857
 11
-0.0037384
 21
47.5117
  0
LINE
  8
0
 10
-0.0037384
 20
47.5117
 11
-0.939407
 21
49.0253
  0
LINE
  8
0
 10
-32.4397
 20
49.0253
 11
-33.2408
 21
50.4977
  0
LINE
  8
0
 10
-33.2408
 20
50.4977
 11
-33.9004
 21
51.9193
  0
LINE
  8
0
 10
-33.9004
 20
51.9193
 11
-34.4195
 21
53.2892
  0
LINE
  8
0
 10
-34.4195
 20
53.2892
 11
-34.7971
 21
54.6094
  0
LINE
  8
0
 10
-34.7971
 20
54.6094
 11
-35.0331
 21
55.8783
  0
LINE
  8
0
 10
-35.0331
 20
55.8783
 11
-35.1276
 21
57.0959
  0
LINE
  8
0
 10
-35.1276
 20
57.0959
 11
-35.0822
 21
58.2634
  0
LINE
  8
0
 10
-35.0822
 20
58.2634
 11
-34.8948
 21
59.3801
  0
LINE
  8
0
 10
-34.8948
 20
59.3801
 11
-34.5669
 21
60.4456
  0
LINE
  8
0
 10
-34.5669
 20
60.4456
 11
-34.0969
 21
61.4592
  0
LINE
  8
0
 10
-34.0969
 20
61.4592
 11
-33.4865
 21
62.4237
  0
LINE
  8
0
 10
-33.4865
 20
62.4237
 11
-31.4966
 21
64.7869
  0
LINE
  8
0
 10
-31.4966
 20
64.7869
 11
-31.4966
 21
65.2024
  0
LINE
  8
0
 10
-31.4966
 20
65.2024
 11
-28.2436
 21
61.3043
  0
LINE
  8
0
 10
-28.2436
 20
61.3043
 11
-28.6677
 21
60.3596
  0
LINE
  8
0
 10
-28.6677
 20
60.3596
 11
-29.065
 21
59.3961
  0
LINE
  8
0
 10
-29.065
 20
59.3961
 11
-29.4341
 21
58.4161
  0
LINE
  8
0
 10
-29.4341
 20
58.4161
 11
-29.7758
 21
57.4196
  0
LINE
  8
0
 10
-29.7758
 20
57.4196
 11
-30.0893
 21
56.407
  0
LINE
  8
0
 10
-30.0893
 20
56.407
 11
-30.3751
 21
55.3768
  0
LINE
  8
0
 10
-30.3751
 20
55.3768
 11
-30.633
 21
54.3317
  0
LINE
  8
0
 10
-30.633
 20
54.3317
 11
-30.8627
 21
53.2694
  0
LINE
  8
0
 10
-30.8627
 20
53.2694
 11
-31.0645
 21
52.1912
  0
LINE
  8
0
 10
-31.0645
 20
52.1912
 11
-31.2386
 21
51.0963
  0
LINE
  8
0
 10
-31.2386
 20
51.0963
 11
-31.385
 21
49.9855
  0
LINE
  8
0
 10
-31.385
 20
49.9855
 11
-31.5035
 21
48.857
  0
LINE
  8
0
 10
-31.5035
 20
48.857
 11
-31.5035
 21
47.5117
  0
LINE
  8
0
 10
-31.5035
 20
47.5117
 11
-32.4397
 21
49.0253
  0
LINE
  8
0
 10
-21.9396
 20
49.0253
 11
-22.7407
 21
50.4977
  0
LINE
  8
0
 10
-22.7407
 20
50.4977
 11
-23.4003
 21
51.9193
  0
LINE
  8
0
 10
-23.4003
 20
51.9193
 11
-23.9194
 21
53.2892
  0
LINE
  8
0
 10
-23.9194
 20
53.2892
 11
-24.297
 21
54.6094
  0
LINE
  8
0
 10
-24.297
 20
54.6094
 11
-24.533
 21
55.8783
  0
LINE
  8
0
 10
-24.533
 20
55.8783
 11
-24.6275
 21
57.0959
  0
LINE
  8
0
 10
-24.6275
 20
57.0959
 11
-24.5821
 21
58.2634
  0
LINE
  8
0
 10
-24.5821
 20
58.2634
 11
-24.3947
 21
59.3801
  0
LINE
  8
0
 10
-24.3947
 20
59.3801
 11
-24.0668
 21
60.4456
  0
LINE
  8
0
 10
-24.0668
 20
60.4456
 11
-23.5968
 21
61.4592
  0
LINE
  8
0
 10
-23.5968
 20
61.4592
 11
-22.9864
 21
62.4237
  0
LINE
  8
0
 10
-22.9864
 20
62.4237
 11
-20.9965
 21
64.7869
  0
LINE
  8
0
 10
-20.9965
 20
64.7869
 11
-20.9965
 21
65.2024
  0
LINE
  8
0
 10
-20.9965
 20
65.2024
 11
-17.7435
 21
61.3043
  0
LINE
  8
0
 10
-17.7435
 20
61.3043
 11
-18.1676
 21
60.3596
  0
LINE
  8
0
 10
-18.1676
 20
60.3596
 11
-18.5649
 21
59.3961
  0
LINE
  8
0
 10
-18.5649
 20
59.3961
 11
-18.9339
 21
58.4161
  0
LINE
  8
0
 10
-18.9339
 20
58.4161
 11
-19.2757
 21
57.4196
  0
LINE
  8
0
 10
-19.2757
 20
57.4196
 11
-19.5892
 21
56.407
  0
LINE
  8
0
 10
-19.5892
 20
56.407
 11
-19.875
 21
55.3768
  0
LINE
  8
0
 10
-19.875
 20
55.3768
 11
-20.1329
 21
54.3317
  0
LINE
  8
0
 10
-20.1329
 20
54.3317
 11
-20.3625
 21
53.2694
  0
LINE
  8
0
 10
-20.3625
 20
53.2694
 11
-20.5644
 21
52.1912
  0
LINE
  8
0
 10
-20.5644
 20
52.1912
 11
-20.7385
 21
51.0963
  0
LINE
  8
0
 10
-20.7385
 20
51.0963
 11
-20.8849
 21
49.9855
  0
LINE
  8
0
 10
-20.8849
 20
49.9855
 11
-21.0034
 21
48.857
  0
LINE
  8
0
 10
-21.0034
 20
48.857
 11
-21.0034
 21
47.5117
  0
LINE
  8
0
 10
-21.0034
 20
47.5117
 11
-21.9396
 21
49.0253
  0
LINE
  8
0
 10
9.56017
 20
49.0253
 11
8.75908
 21
50.4977
  0
LINE
  8
0
 10
8.75908
 20
50.4977
 11
8.09952
 21
51.9193
  0
LINE
  8
0
 10
8.09952
 20
51.9193
 11
7.58041
 21
53.2892
  0
LINE
  8
0
 10
7.58041
 20
53.2892
 11
7.20284
 21
54.6094
  0
LINE
  8
0
 10
7.20284
 20
54.6094
 11
6.96678
 21
55.8783
  0
LINE
  8
0
 10
6.96678
 20
55.8783
 11
6.87225
 21
57.0959
  0
LINE
  8
0
 10
6.87225
 20
57.0959
 11
6.91765
 21
58.2634
  0
LINE
  8
0
 10
6.91765
 20
58.2634
 11
7.1051
 21
59.3801
  0
LINE
  8
0
 10
7.1051
 20
59.3801
 11
7.43301
 21
60.4456
  0
LINE
  8
0
 10
7.43301
 20
60.4456
 11
7.90298
 21
61.4592
  0
LINE
  8
0
 10
7.90298
 20
61.4592
 11
8.51341
 21
62.4237
  0
LINE
  8
0
 10
8.51341
 20
62.4237
 11
10.5033
 21
64.7869
  0
LINE
  8
0
 10
10.5033
 20
64.7869
 11
10.5033
 21
65.2019
  0
LINE
  8
0
 10
10.5033
 20
65.2019
 11
13.7557
 21
61.3043
  0
LINE
  8
0
 10
13.7557
 20
61.3043
 11
13.3317
 21
60.3596
  0
LINE
  8
0
 10
13.3317
 20
60.3596
 11
12.9343
 21
59.3961
  0
LINE
  8
0
 10
12.9343
 20
59.3961
 11
12.5653
 21
58.4161
  0
LINE
  8
0
 10
12.5653
 20
58.4161
 11
12.2235
 21
57.4196
  0
LINE
  8
0
 10
12.2235
 20
57.4196
 11
11.91
 21
56.407
  0
LINE
  8
0
 10
11.91
 20
56.407
 11
11.6243
 21
55.3768
  0
LINE
  8
0
 10
11.6243
 20
55.3768
 11
11.3663
 21
54.3317
  0
LINE
  8
0
 10
11.3663
 20
54.3317
 11
11.1367
 21
53.2694
  0
LINE
  8
0
 10
11.1367
 20
53.2694
 11
10.9348
 21
52.1912
  0
LINE
  8
0
 10
10.9348
 20
52.1912
 11
10.7607
 21
51.0963
  0
LINE
  8
0
 10
10.7607
 20
51.0963
 11
10.6144
 21
49.9855
  0
LINE
  8
0
 10
10.6144
 20
49.9855
 11
10.4958
 21
48.857
  0
LINE
  8
0
 10
10.4958
 20
48.857
 11
10.4958
 21
47.5123
  0
LINE
  8
0
 10
10.4958
 20
47.5123
 11
9.56017
 21
49.0253
  0
LINE
  8
0
 10
-42.9398
 20
49.0253
 11
-43.7409
 21
50.4977
  0
LINE
  8
0
 10
-43.7409
 20
50.4977
 11
-44.4005
 21
51.9193
  0
LINE
  8
0
 10
-44.4005
 20
51.9193
 11
-44.9196
 21
53.2892
  0
LINE
  8
0
 10
-44.9196
 20
53.2892
 11
-44.989
 21
53.5317
  0
LINE
  8
0
 10
-44.989
 20
53.5317
 11
-41.421
 21
64.5126
  0
LINE
  8
0
 10
-41.421
 20
64.5126
 11
-38.7437
 21
61.3043
  0
LINE
  8
0
 10
-38.7437
 20
61.3043
 11
-39.1678
 21
60.3596
  0
LINE
  8
0
 10
-39.1678
 20
60.3596
 11
-39.5651
 21
59.3961
  0
LINE
  8
0
 10
-39.5651
 20
59.3961
 11
-39.9342
 21
58.4161
  0
LINE
  8
0
 10
-39.9342
 20
58.4161
 11
-40.276
 21
57.4196
  0
LINE
  8
0
 10
-40.276
 20
57.4196
 11
-40.5894
 21
56.407
  0
LINE
  8
0
 10
-40.5894
 20
56.407
 11
-40.8752
 21
55.3768
  0
LINE
  8
0
 10
-40.8752
 20
55.3768
 11
-41.1331
 21
54.3317
  0
LINE
  8
0
 10
-41.1331
 20
54.3317
 11
-41.3628
 21
53.2694
  0
LINE
  8
0
 10
-41.3628
 20
53.2694
 11
-41.5646
 21
52.1912
  0
LINE
  8
0
 10
-41.5646
 20
52.1912
 11
-41.7387
 21
51.0963
  0
LINE
  8
0
 10
-41.7387
 20
51.0963
 11
-41.8851
 21
49.9855
  0
LINE
  8
0
 10
-41.8851
 20
49.9855
 11
-42.0036
 21
48.857
  0
LINE
  8
0
 10
-42.0036
 20
48.857
 11
-42.0036
 21
47.5117
  0
LINE
  8
0
 10
-42.0036
 20
47.5117
 11
-42.9398
 21
49.0253
  0
LINE
  8
0
 10
41.06
 20
49.0253
 11
40.2589
 21
50.4977
  0
LINE
  8
0
 10
40.2589
 20
50.4977
 11
39.5993
 21
51.9193
  0
LINE
  8
0
 10
39.5993
 20
51.9193
 11
39.0802
 21
53.2892
  0
LINE
  8
0
 10
39.0802
 20
53.2892
 11
38.7026
 21
54.6094
  0
LINE
  8
0
 10
38.7026
 20
54.6094
 11
38.4666
 21
55.8783
  0
LINE
  8
0
 10
38.4666
 20
55.8783
 11
38.372
 21
57.0959
  0
LINE
  8
0
 10
38.372
 20
57.0959
 11
38.4174
 21
58.2634
  0
LINE
  8
0
 10
38.4174
 20
58.2634
 11
38.6049
 21
59.3801
  0
LINE
  8
0
 10
38.6049
 20
59.3801
 11
38.9328
 21
60.4456
  0
LINE
  8
0
 10
38.9328
 20
60.4456
 11
39.4028
 21
61.4592
  0
LINE
  8
0
 10
39.4028
 20
61.4592
 11
40.0132
 21
62.4237
  0
LINE
  8
0
 10
40.0132
 20
62.4237
 11
41.5188
 21
64.2117
  0
LINE
  8
0
 10
41.5188
 20
64.2117
 11
43.7248
 21
57.4224
  0
LINE
  8
0
 10
43.7248
 20
57.4224
 11
43.7238
 21
57.4196
  0
LINE
  8
0
 10
43.7238
 20
57.4196
 11
43.4103
 21
56.407
  0
LINE
  8
0
 10
43.4103
 20
56.407
 11
43.1246
 21
55.3768
  0
LINE
  8
0
 10
43.1246
 20
55.3768
 11
42.8667
 21
54.3317
  0
LINE
  8
0
 10
42.8667
 20
54.3317
 11
42.637
 21
53.2694
  0
LINE
  8
0
 10
42.637
 20
53.2694
 11
42.4352
 21
52.1912
  0
LINE
  8
0
 10
42.4352
 20
52.1912
 11
42.261
 21
51.0963
  0
LINE
  8
0
 10
42.261
 20
51.0963
 11
42.1147
 21
49.9855
  0
LINE
  8
0
 10
42.1147
 20
49.9855
 11
41.9962
 21
48.857
  0
LINE
  8
0
 10
41.9962
 20
48.857
 11
41.9962
 21
47.5117
  0
LINE
  8
0
 10
41.9962
 20
47.5117
 11
41.06
 21
49.0253
  0
LINE
  8
0
 10
-26.2463
 20
30.2131
 11
-28.2367
 21
32.5763
  0
LINE
  8
0
 10
-28.2367
 20
32.5763
 11
-28.8466
 21
33.5403
  0
LINE
  8
0
 10
-28.8466
 20
33.5403
 11
-29.3166
 21
34.555
  0
LINE
  8
0
 10
-29.3166
 20
34.555
 11
-29.645
 21
35.6215
  0
LINE
  8
0
 10
-29.645
 20
35.6215
 11
-29.8325
 21
36.7371
  0
LINE
  8
0
 10
-29.8325
 20
36.7371
 11
-29.8773
 21
37.9035
  0
LINE
  8
0
 10
-29.8773
 20
37.9035
 11
-29.7823
 21
39.1217
  0
LINE
  8
0
 10
-29.7823
 20
39.1217
 11
-29.5467
 21
40.3912
  0
LINE
  8
0
 10
-29.5467
 20
40.3912
 11
-29.1692
 21
41.7108
  0
LINE
  8
0
 10
-29.1692
 20
41.7108
 11
-28.6501
 21
43.0807
  0
LINE
  8
0
 10
-28.6501
 20
43.0807
 11
-27.9905
 21
44.5023
  0
LINE
  8
0
 10
-27.9905
 20
44.5023
 11
-27.1894
 21
45.9747
  0
LINE
  8
0
 10
-27.1894
 20
45.9747
 11
-26.2537
 21
47.4888
  0
LINE
  8
0
 10
-26.2537
 20
47.4888
 11
-26.2537
 21
46.1435
  0
LINE
  8
0
 10
-26.2537
 20
46.1435
 11
-26.1357
 21
45.0156
  0
LINE
  8
0
 10
-26.1357
 20
45.0156
 11
-25.9894
 21
43.9042
  0
LINE
  8
0
 10
-25.9894
 20
43.9042
 11
-25.8147
 21
42.8094
  0
LINE
  8
0
 10
-25.8147
 20
42.8094
 11
-25.6129
 21
41.7311
  0
LINE
  8
0
 10
-25.6129
 20
41.7311
 11
-25.3832
 21
40.6689
  0
LINE
  8
0
 10
-25.3832
 20
40.6689
 11
-25.1253
 21
39.6237
  0
LINE
  8
0
 10
-25.1253
 20
39.6237
 11
-24.8396
 21
38.5941
  0
LINE
  8
0
 10
-24.8396
 20
38.5941
 11
-24.5261
 21
37.5809
  0
LINE
  8
0
 10
-24.5261
 20
37.5809
 11
-24.1843
 21
36.5844
  0
LINE
  8
0
 10
-24.1843
 20
36.5844
 11
-23.8152
 21
35.6044
  0
LINE
  8
0
 10
-23.8152
 20
35.6044
 11
-23.4179
 21
34.641
  0
LINE
  8
0
 10
-23.4179
 20
34.641
 11
-22.9933
 21
33.6957
  0
LINE
  8
0
 10
-22.9933
 20
33.6957
 11
-26.2463
 21
29.7981
  0
LINE
  8
0
 10
-26.2463
 20
29.7981
 11
-26.2463
 21
30.2131
  0
LINE
  8
0
 10
-15.7462
 20
30.2131
 11
-17.7366
 21
32.5763
  0
LINE
  8
0
 10
-17.7366
 20
32.5763
 11
-18.3465
 21
33.5403
  0
LINE
  8
0
 10
-18.3465
 20
33.5403
 11
-18.8165
 21
34.555
  0
LINE
  8
0
 10
-18.8165
 20
34.555
 11
-19.1449
 21
35.6215
  0
LINE
  8
0
 10
-19.1449
 20
35.6215
 11
-19.3324
 21
36.7371
  0
LINE
  8
0
 10
-19.3324
 20
36.7371
 11
-19.3772
 21
37.9035
  0
LINE
  8
0
 10
-19.3772
 20
37.9035
 11
-19.2822
 21
39.1217
  0
LINE
  8
0
 10
-19.2822
 20
39.1217
 11
-19.0466
 21
40.3912
  0
LINE
  8
0
 10
-19.0466
 20
40.3912
 11
-18.6691
 21
41.7108
  0
LINE
  8
0
 10
-18.6691
 20
41.7108
 11
-18.1499
 21
43.0807
  0
LINE
  8
0
 10
-18.1499
 20
43.0807
 11
-17.4904
 21
44.5023
  0
LINE
  8
0
 10
-17.4904
 20
44.5023
 11
-16.6893
 21
45.9747
  0
LINE
  8
0
 10
-16.6893
 20
45.9747
 11
-15.7536
 21
47.4888
  0
LINE
  8
0
 10
-15.7536
 20
47.4888
 11
-15.7536
 21
46.1435
  0
LINE
  8
0
 10
-15.7536
 20
46.1435
 11
-15.6356
 21
45.0156
  0
LINE
  8
0
 10
-15.6356
 20
45.0156
 11
-15.4893
 21
43.9042
  0
LINE
  8
0
 10
-15.4893
 20
43.9042
 11
-15.3146
 21
42.8094
  0
LINE
  8
0
 10
-15.3146
 20
42.8094
 11
-15.1128
 21
41.7311
  0
LINE
  8
0
 10
-15.1128
 20
41.7311
 11
-14.8831
 21
40.6689
  0
LINE
  8
0
 10
-14.8831
 20
40.6689
 11
-14.6252
 21
39.6237
  0
LINE
  8
0
 10
-14.6252
 20
39.6237
 11
-14.3394
 21
38.5941
  0
LINE
  8
0
 10
-14.3394
 20
38.5941
 11
-14.026
 21
37.5809
  0
LINE
  8
0
 10
-14.026
 20
37.5809
 11
-13.6842
 21
36.5844
  0
LINE
  8
0
 10
-13.6842
 20
36.5844
 11
-13.3151
 21
35.6044
  0
LINE
  8
0
 10
-13.3151
 20
35.6044
 11
-12.9178
 21
34.641
  0
LINE
  8
0
 10
-12.9178
 20
34.641
 11
-12.4932
 21
33.6957
  0
LINE
  8
0
 10
-12.4932
 20
33.6957
 11
-15.7462
 21
29.7981
  0
LINE
  8
0
 10
-15.7462
 20
29.7981
 11
-15.7462
 21
30.2131
  0
LINE
  8
0
 10
36.7533
 20
30.2131
 11
34.7629
 21
32.5763
  0
LINE
  8
0
 10
34.7629
 20
32.5763
 11
34.153
 21
33.5403
  0
LINE
  8
0
 10
34.153
 20
33.5403
 11
33.683
 21
34.555
  0
LINE
  8
0
 10
33.683
 20
34.555
 11
33.3546
 21
35.6215
  0
LINE
  8
0
 10
33.3546
 20
35.6215
 11
33.1671
 21
36.7371
  0
LINE
  8
0
 10
33.1671
 20
36.7371
 11
33.1223
 21
37.9035
  0
LINE
  8
0
 10
33.1223
 20
37.9035
 11
33.2173
 21
39.1217
  0
LINE
  8
0
 10
33.2173
 20
39.1217
 11
33.4528
 21
40.3912
  0
LINE
  8
0
 10
33.4528
 20
40.3912
 11
33.8304
 21
41.7108
  0
LINE
  8
0
 10
33.8304
 20
41.7108
 11
34.3495
 21
43.0807
  0
LINE
  8
0
 10
34.3495
 20
43.0807
 11
35.0091
 21
44.5023
  0
LINE
  8
0
 10
35.0091
 20
44.5023
 11
35.8102
 21
45.9747
  0
LINE
  8
0
 10
35.8102
 20
45.9747
 11
36.7458
 21
47.4888
  0
LINE
  8
0
 10
36.7458
 20
47.4888
 11
36.7458
 21
46.1435
  0
LINE
  8
0
 10
36.7458
 20
46.1435
 11
36.8639
 21
45.0156
  0
LINE
  8
0
 10
36.8639
 20
45.0156
 11
37.0102
 21
43.9042
  0
LINE
  8
0
 10
37.0102
 20
43.9042
 11
37.1848
 21
42.8094
  0
LINE
  8
0
 10
37.1848
 20
42.8094
 11
37.3867
 21
41.7311
  0
LINE
  8
0
 10
37.3867
 20
41.7311
 11
37.6163
 21
40.6689
  0
LINE
  8
0
 10
37.6163
 20
40.6689
 11
37.8743
 21
39.6237
  0
LINE
  8
0
 10
37.8743
 20
39.6237
 11
38.16
 21
38.5941
  0
LINE
  8
0
 10
38.16
 20
38.5941
 11
38.4735
 21
37.5809
  0
LINE
  8
0
 10
38.4735
 20
37.5809
 11
38.8153
 21
36.5844
  0
LINE
  8
0
 10
38.8153
 20
36.5844
 11
39.1843
 21
35.6044
  0
LINE
  8
0
 10
39.1843
 20
35.6044
 11
39.5817
 21
34.641
  0
LINE
  8
0
 10
39.5817
 20
34.641
 11
40.0063
 21
33.6957
  0
LINE
  8
0
 10
40.0063
 20
33.6957
 11
36.7533
 21
29.7981
  0
LINE
  8
0
 10
36.7533
 20
29.7981
 11
36.7533
 21
30.2131
  0
LINE
  8
0
 10
-36.7464
 20
30.2131
 11
-38.7368
 21
32.5763
  0
LINE
  8
0
 10
-38.7368
 20
32.5763
 11
-39.3467
 21
33.5403
  0
LINE
  8
0
 10
-39.3467
 20
33.5403
 11
-39.8167
 21
34.555
  0
LINE
  8
0
 10
-39.8167
 20
34.555
 11
-40.1451
 21
35.6215
  0
LINE
  8
0
 10
-40.1451
 20
35.6215
 11
-40.3326
 21
36.7371
  0
LINE
  8
0
 10
-40.3326
 20
36.7371
 11
-40.3774
 21
37.9035
  0
LINE
  8
0
 10
-40.3774
 20
37.9035
 11
-40.2824
 21
39.1217
  0
LINE
  8
0
 10
-40.2824
 20
39.1217
 11
-40.0468
 21
40.3912
  0
LINE
  8
0
 10
-40.0468
 20
40.3912
 11
-39.6693
 21
41.7108
  0
LINE
  8
0
 10
-39.6693
 20
41.7108
 11
-39.1502
 21
43.0807
  0
LINE
  8
0
 10
-39.1502
 20
43.0807
 11
-38.4906
 21
44.5023
  0
LINE
  8
0
 10
-38.4906
 20
44.5023
 11
-37.6895
 21
45.9747
  0
LINE
  8
0
 10
-37.6895
 20
45.9747
 11
-36.7538
 21
47.4888
  0
LINE
  8
0
 10
-36.7538
 20
47.4888
 11
-36.7538
 21
46.1435
  0
LINE
  8
0
 10
-36.7538
 20
46.1435
 11
-36.6358
 21
45.0156
  0
LINE
  8
0
 10
-36.6358
 20
45.0156
 11
-36.4895
 21
43.9042
  0
LINE
  8
0
 10
-36.4895
 20
43.9042
 11
-36.3148
 21
42.8094
  0
LINE
  8
0
 10
-36.3148
 20
42.8094
 11
-36.113
 21
41.7311
  0
LINE
  8
0
 10
-36.113
 20
41.7311
 11
-35.8833
 21
40.6689
  0
LINE
  8
0
 10
-35.8833
 20
40.6689
 11
-35.6254
 21
39.6237
  0
LINE
  8
0
 10
-35.6254
 20
39.6237
 11
-35.3397
 21
38.5941
  0
LINE
  8
0
 10
-35.3397
 20
38.5941
 11
-35.0262
 21
37.5809
  0
LINE
  8
0
 10
-35.0262
 20
37.5809
 11
-34.6844
 21
36.5844
  0
LINE
  8
0
 10
-34.6844
 20
36.5844
 11
-34.3153
 21
35.6044
  0
LINE
  8
0
 10
-34.3153
 20
35.6044
 11
-33.918
 21
34.641
  0
LINE
  8
0
 10
-33.918
 20
34.641
 11
-33.4934
 21
33.6957
  0
LINE
  8
0
 10
-33.4934
 20
33.6957
 11
-36.7464
 21
29.7981
  0
LINE
  8
0
 10
-36.7464
 20
29.7981
 11
-36.7464
 21
30.2131
  0
LINE
  8
0
 10
5.25352
 20
30.2131
 11
3.26309
 21
32.5763
  0
LINE
  8
0
 10
3.26309
 20
32.5763
 11
2.6532
 21
33.5403
  0
LINE
  8
0
 10
2.6532
 20
33.5403
 11
2.18323
 21
34.555
  0
LINE
  8
0
 10
2.18323
 20
34.555
 11
1.85478
 21
35.6215
  0
LINE
  8
0
 10
1.85478
 20
35.6215
 11
1.66733
 21
36.7371
  0
LINE
  8
0
 10
1.66733
 20
36.7371
 11
1.62247
 21
37.9035
  0
LINE
  8
0
 10
1.62247
 20
37.9035
 11
1.71753
 21
39.1217
  0
LINE
  8
0
 10
1.71753
 20
39.1217
 11
1.95305
 21
40.3912
  0
LINE
  8
0
 10
1.95305
 20
40.3912
 11
2.33063
 21
41.7108
  0
LINE
  8
0
 10
2.33063
 20
41.7108
 11
2.84973
 21
43.0807
  0
LINE
  8
0
 10
2.84973
 20
43.0807
 11
3.50929
 21
44.5023
  0
LINE
  8
0
 10
3.50929
 20
44.5023
 11
4.31038
 21
45.9747
  0
LINE
  8
0
 10
4.31038
 20
45.9747
 11
5.24605
 21
47.4888
  0
LINE
  8
0
 10
5.24605
 20
47.4888
 11
5.24605
 21
46.1435
  0
LINE
  8
0
 10
5.24605
 20
46.1435
 11
5.36407
 21
45.0156
  0
LINE
  8
0
 10
5.36407
 20
45.0156
 11
5.51041
 21
43.9042
  0
LINE
  8
0
 10
5.51041
 20
43.9042
 11
5.68504
 21
42.8094
  0
LINE
  8
0
 10
5.68504
 20
42.8094
 11
5.88692
 21
41.7311
  0
LINE
  8
0
 10
5.88692
 20
41.7311
 11
6.11656
 21
40.6689
  0
LINE
  8
0
 10
6.11656
 20
40.6689
 11
6.37451
 21
39.6237
  0
LINE
  8
0
 10
6.37451
 20
39.6237
 11
6.66023
 21
38.5941
  0
LINE
  8
0
 10
6.66023
 20
38.5941
 11
6.97372
 21
37.5809
  0
LINE
  8
0
 10
6.97372
 20
37.5809
 11
7.31552
 21
36.5844
  0
LINE
  8
0
 10
7.31552
 20
36.5844
 11
7.68456
 21
35.6044
  0
LINE
  8
0
 10
7.68456
 20
35.6044
 11
8.08189
 21
34.641
  0
LINE
  8
0
 10
8.08189
 20
34.641
 11
8.50647
 21
33.6957
  0
LINE
  8
0
 10
8.50647
 20
33.6957
 11
5.25352
 21
29.7981
  0
LINE
  8
0
 10
5.25352
 20
29.7981
 11
5.25352
 21
30.2131
  0
LINE
  8
0
 10
-5.24605
 20
30.2131
 11
-7.23648
 21
32.5763
  0
LINE
  8
0
 10
-7.23648
 20
32.5763
 11
-7.84637
 21
33.5403
  0
LINE
  8
0
 10
-7.84637
 20
33.5403
 11
-8.31635
 21
34.555
  0
LINE
  8
0
 10
-8.31635
 20
34.555
 11
-8.64479
 21
35.6215
  0
LINE
  8
0
 10
-8.64479
 20
35.6215
 11
-8.83224
 21
36.7371
  0
LINE
  8
0
 10
-8.83224
 20
36.7371
 11
-8.87711
 21
37.9035
  0
LINE
  8
0
 10
-8.87711
 20
37.9035
 11
-8.78204
 21
39.1217
  0
LINE
  8
0
 10
-8.78204
 20
39.1217
 11
-8.54652
 21
40.3912
  0
LINE
  8
0
 10
-8.54652
 20
40.3912
 11
-8.16895
 21
41.7108
  0
LINE
  8
0
 10
-8.16895
 20
41.7108
 11
-7.64984
 21
43.0807
  0
LINE
  8
0
 10
-7.64984
 20
43.0807
 11
-6.99028
 21
44.5023
  0
LINE
  8
0
 10
-6.99028
 20
44.5023
 11
-6.18919
 21
45.9747
  0
LINE
  8
0
 10
-6.18919
 20
45.9747
 11
-5.25352
 21
47.4888
  0
LINE
  8
0
 10
-5.25352
 20
47.4888
 11
-5.25352
 21
46.1435
  0
LINE
  8
0
 10
-5.25352
 20
46.1435
 11
-5.1355
 21
45.0156
  0
LINE
  8
0
 10
-5.1355
 20
45.0156
 11
-4.98917
 21
43.9042
  0
LINE
  8
0
 10
-4.98917
 20
43.9042
 11
-4.81453
 21
42.8094
  0
LINE
  8
0
 10
-4.81453
 20
42.8094
 11
-4.61266
 21
41.7311
  0
LINE
  8
0
 10
-4.61266
 20
41.7311
 11
-4.38301
 21
40.6689
  0
LINE
  8
0
 10
-4.38301
 20
40.6689
 11
-4.12506
 21
39.6237
  0
LINE
  8
0
 10
-4.12506
 20
39.6237
 11
-3.83934
 21
38.5941
  0
LINE
  8
0
 10
-3.83934
 20
38.5941
 11
-3.52585
 21
37.5809
  0
LINE
  8
0
 10
-3.52585
 20
37.5809
 11
-3.18405
 21
36.5844
  0
LINE
  8
0
 10
-3.18405
 20
36.5844
 11
-2.81502
 21
35.6044
  0
LINE
  8
0
 10
-2.81502
 20
35.6044
 11
-2.41768
 21
34.641
  0
LINE
  8
0
 10
-2.41768
 20
34.641
 11
-1.9931
 21
33.6957
  0
LINE
  8
0
 10
-1.9931
 20
33.6957
 11
-5.24605
 21
29.7981
  0
LINE
  8
0
 10
-5.24605
 20
29.7981
 11
-5.24605
 21
30.2131
  0
LINE
  8
0
 10
26.2532
 20
30.2131
 11
24.2628
 21
32.5763
  0
LINE
  8
0
 10
24.2628
 20
32.5763
 11
23.6529
 21
33.5403
  0
LINE
  8
0
 10
23.6529
 20
33.5403
 11
23.1829
 21
34.555
  0
LINE
  8
0
 10
23.1829
 20
34.555
 11
22.8545
 21
35.6215
  0
LINE
  8
0
 10
22.8545
 20
35.6215
 11
22.667
 21
36.7371
  0
LINE
  8
0
 10
22.667
 20
36.7371
 11
22.6221
 21
37.9035
  0
LINE
  8
0
 10
22.6221
 20
37.9035
 11
22.7172
 21
39.1217
  0
LINE
  8
0
 10
22.7172
 20
39.1217
 11
22.9527
 21
40.3912
  0
LINE
  8
0
 10
22.9527
 20
40.3912
 11
23.3303
 21
41.7108
  0
LINE
  8
0
 10
23.3303
 20
41.7108
 11
23.8494
 21
43.0807
  0
LINE
  8
0
 10
23.8494
 20
43.0807
 11
24.509
 21
44.5023
  0
LINE
  8
0
 10
24.509
 20
44.5023
 11
25.3101
 21
45.9747
  0
LINE
  8
0
 10
25.3101
 20
45.9747
 11
26.2457
 21
47.4888
  0
LINE
  8
0
 10
26.2457
 20
47.4888
 11
26.2457
 21
46.1435
  0
LINE
  8
0
 10
26.2457
 20
46.1435
 11
26.3638
 21
45.0156
  0
LINE
  8
0
 10
26.3638
 20
45.0156
 11
26.5101
 21
43.9042
  0
LINE
  8
0
 10
26.5101
 20
43.9042
 11
26.6847
 21
42.8094
  0
LINE
  8
0
 10
26.6847
 20
42.8094
 11
26.8866
 21
41.7311
  0
LINE
  8
0
 10
26.8866
 20
41.7311
 11
27.1162
 21
40.6689
  0
LINE
  8
0
 10
27.1162
 20
40.6689
 11
27.3742
 21
39.6237
  0
LINE
  8
0
 10
27.3742
 20
39.6237
 11
27.6599
 21
38.5941
  0
LINE
  8
0
 10
27.6599
 20
38.5941
 11
27.9734
 21
37.5809
  0
LINE
  8
0
 10
27.9734
 20
37.5809
 11
28.3152
 21
36.5844
  0
LINE
  8
0
 10
28.3152
 20
36.5844
 11
28.6842
 21
35.6044
  0
LINE
  8
0
 10
28.6842
 20
35.6044
 11
29.0816
 21
34.641
  0
LINE
  8
0
 10
29.0816
 20
34.641
 11
29.5061
 21
33.6957
  0
LINE
  8
0
 10
29.5061
 20
33.6957
 11
26.2532
 21
29.7981
  0
LINE
  8
0
 10
26.2532
 20
29.7981
 11
26.2532
 21
30.2131
  0
LINE
  8
0
 10
15.7531
 20
30.2131
 11
13.7627
 21
32.5763
  0
LINE
  8
0
 10
13.7627
 20
32.5763
 11
13.1528
 21
33.5403
  0
LINE
  8
0
 10
13.1528
 20
33.5403
 11
12.6828
 21
34.555
  0
LINE
  8
0
 10
12.6828
 20
34.555
 11
12.3544
 21
35.6215
  0
LINE
  8
0
 10
12.3544
 20
35.6215
 11
12.1669
 21
36.7371
  0
LINE
  8
0
 10
12.1669
 20
36.7371
 11
12.122
 21
37.9035
  0
LINE
  8
0
 10
12.122
 20
37.9035
 11
12.2171
 21
39.1217
  0
LINE
  8
0
 10
12.2171
 20
39.1217
 11
12.4526
 21
40.3912
  0
LINE
  8
0
 10
12.4526
 20
40.3912
 11
12.8302
 21
41.7108
  0
LINE
  8
0
 10
12.8302
 20
41.7108
 11
13.3493
 21
43.0807
  0
LINE
  8
0
 10
13.3493
 20
43.0807
 11
14.0089
 21
44.5023
  0
LINE
  8
0
 10
14.0089
 20
44.5023
 11
14.81
 21
45.9747
  0
LINE
  8
0
 10
14.81
 20
45.9747
 11
15.7456
 21
47.4888
  0
LINE
  8
0
 10
15.7456
 20
47.4888
 11
15.7456
 21
46.1435
  0
LINE
  8
0
 10
15.7456
 20
46.1435
 11
15.8636
 21
45.0156
  0
LINE
  8
0
 10
15.8636
 20
45.0156
 11
16.01
 21
43.9042
  0
LINE
  8
0
 10
16.01
 20
43.9042
 11
16.1846
 21
42.8094
  0
LINE
  8
0
 10
16.1846
 20
42.8094
 11
16.3865
 21
41.7311
  0
LINE
  8
0
 10
16.3865
 20
41.7311
 11
16.6161
 21
40.6689
  0
LINE
  8
0
 10
16.6161
 20
40.6689
 11
16.8741
 21
39.6237
  0
LINE
  8
0
 10
16.8741
 20
39.6237
 11
17.1598
 21
38.5941
  0
LINE
  8
0
 10
17.1598
 20
38.5941
 11
17.4733
 21
37.5809
  0
LINE
  8
0
 10
17.4733
 20
37.5809
 11
17.8151
 21
36.5844
  0
LINE
  8
0
 10
17.8151
 20
36.5844
 11
18.1841
 21
35.6044
  0
LINE
  8
0
 10
18.1841
 20
35.6044
 11
18.5815
 21
34.641
  0
LINE
  8
0
 10
18.5815
 20
34.641
 11
19.006
 21
33.6957
  0
LINE
  8
0
 10
19.006
 20
33.6957
 11
15.7531
 21
29.7981
  0
LINE
  8
0
 10
15.7531
 20
29.7981
 11
15.7531
 21
30.2131
  0
LINE
  8
0
 10
47.2534
 20
30.2131
 11
45.263
 21
32.5763
  0
LINE
  8
0
 10
45.263
 20
32.5763
 11
44.6531
 21
33.5403
  0
LINE
  8
0
 10
44.6531
 20
33.5403
 11
44.1831
 21
34.555
  0
LINE
  8
0
 10
44.1831
 20
34.555
 11
43.8547
 21
35.6215
  0
LINE
  8
0
 10
43.8547
 20
35.6215
 11
43.6672
 21
36.7371
  0
LINE
  8
0
 10
43.6672
 20
36.7371
 11
43.6224
 21
37.9035
  0
LINE
  8
0
 10
43.6224
 20
37.9035
 11
43.7174
 21
39.1217
  0
LINE
  8
0
 10
43.7174
 20
39.1217
 11
43.9529
 21
40.3912
  0
LINE
  8
0
 10
43.9529
 20
40.3912
 11
44.3305
 21
41.7108
  0
LINE
  8
0
 10
44.3305
 20
41.7108
 11
44.8496
 21
43.0807
  0
LINE
  8
0
 10
44.8496
 20
43.0807
 11
45.5092
 21
44.5023
  0
LINE
  8
0
 10
45.5092
 20
44.5023
 11
46.3103
 21
45.9747
  0
LINE
  8
0
 10
46.3103
 20
45.9747
 11
47.0536
 21
47.1775
  0
LINE
  8
0
 10
47.0536
 20
47.1775
 11
47.2459
 21
46.5854
  0
LINE
  8
0
 10
47.2459
 20
46.5854
 11
47.2459
 21
46.1435
  0
LINE
  8
0
 10
47.2459
 20
46.1435
 11
47.364
 21
45.0156
  0
LINE
  8
0
 10
47.364
 20
45.0156
 11
47.5103
 21
43.9042
  0
LINE
  8
0
 10
47.5103
 20
43.9042
 11
47.6849
 21
42.8094
  0
LINE
  8
0
 10
47.6849
 20
42.8094
 11
47.8868
 21
41.7311
  0
LINE
  8
0
 10
47.8868
 20
41.7311
 11
48.1165
 21
40.6689
  0
LINE
  8
0
 10
48.1165
 20
40.6689
 11
48.3744
 21
39.6237
  0
LINE
  8
0
 10
48.3744
 20
39.6237
 11
48.6601
 21
38.5941
  0
LINE
  8
0
 10
48.6601
 20
38.5941
 11
48.9736
 21
37.5809
  0
LINE
  8
0
 10
48.9736
 20
37.5809
 11
49.3154
 21
36.5844
  0
LINE
  8
0
 10
49.3154
 20
36.5844
 11
49.6844
 21
35.6044
  0
LINE
  8
0
 10
49.6844
 20
35.6044
 11
50.0818
 21
34.641
  0
LINE
  8
0
 10
50.0818
 20
34.641
 11
50.5064
 21
33.6957
  0
LINE
  8
0
 10
50.5064
 20
33.6957
 11
47.2534
 21
29.7981
  0
LINE
  8
0
 10
47.2534
 20
29.7981
 11
47.2534
 21
30.2131
  0
LINE
  8
0
 10
-47.2465
 20
30.2131
 11
-49.2369
 21
32.5763
  0
LINE
  8
0
 10
-49.2369
 20
32.5763
 11
-49.8468
 21
33.5403
  0
LINE
  8
0
 10
-49.8468
 20
33.5403
 11
-50.3168
 21
34.555
  0
LINE
  8
0
 10
-50.3168
 20
34.555
 11
-50.6452
 21
35.6215
  0
LINE
  8
0
 10
-50.6452
 20
35.6215
 11
-50.7008
 21
35.9524
  0
LINE
  8
0
 10
-50.7008
 20
35.9524
 11
-47.254
 21
46.5607
  0
LINE
  8
0
 10
-47.254
 20
46.5607
 11
-47.254
 21
46.1435
  0
LINE
  8
0
 10
-47.254
 20
46.1435
 11
-47.1359
 21
45.0156
  0
LINE
  8
0
 10
-47.1359
 20
45.0156
 11
-46.9896
 21
43.9042
  0
LINE
  8
0
 10
-46.9896
 20
43.9042
 11
-46.815
 21
42.8094
  0
LINE
  8
0
 10
-46.815
 20
42.8094
 11
-46.6131
 21
41.7311
  0
LINE
  8
0
 10
-46.6131
 20
41.7311
 11
-46.3834
 21
40.6689
  0
LINE
  8
0
 10
-46.3834
 20
40.6689
 11
-46.1255
 21
39.6237
  0
LINE
  8
0
 10
-46.1255
 20
39.6237
 11
-45.8398
 21
38.5941
  0
LINE
  8
0
 10
-45.8398
 20
38.5941
 11
-45.5263
 21
37.5809
  0
LINE
  8
0
 10
-45.5263
 20
37.5809
 11
-45.1845
 21
36.5844
  0
LINE
  8
0
 10
-45.1845
 20
36.5844
 11
-44.8154
 21
35.6044
  0
LINE
  8
0
 10
-44.8154
 20
35.6044
 11
-44.4181
 21
34.641
  0
LINE
  8
0
 10
-44.4181
 20
34.641
 11
-43.9935
 21
33.6957
  0
LINE
  8
0
 10
-43.9935
 20
33.6957
 11
-47.2465
 21
29.7981
  0
LINE
  8
0
 10
-47.2465
 20
29.7981
 11
-47.2465
 21
30.2131
  0
LINE
  8
0
 10
51.5601
 20
14.0253
 11
50.759
 21
15.4977
  0
LINE
  8
0
 10
50.759
 20
15.4977
 11
50.0994
 21
16.9193
  0
LINE
  8
0
 10
50.0994
 20
16.9193
 11
49.5803
 21
18.2892
  0
LINE
  8
0
 10
49.5803
 20
18.2892
 11
49.2027
 21
19.6094
  0
LINE
  8
0
 10
49.2027
 20
19.6094
 11
48.9667
 21
20.8783
  0
LINE
  8
0
 10
48.9667
 20
20.8783
 11
48.8721
 21
22.0959
  0
LINE
  8
0
 10
48.8721
 20
22.0959
 11
48.9175
 21
23.2634
  0
LINE
  8
0
 10
48.9175
 20
23.2634
 11
49.105
 21
24.3801
  0
LINE
  8
0
 10
49.105
 20
24.3801
 11
49.4329
 21
25.4456
  0
LINE
  8
0
 10
49.4329
 20
25.4456
 11
49.9029
 21
26.4592
  0
LINE
  8
0
 10
49.9029
 20
26.4592
 11
50.5133
 21
27.4237
  0
LINE
  8
0
 10
50.5133
 20
27.4237
 11
52.5032
 21
29.7869
  0
LINE
  8
0
 10
52.5032
 20
29.7869
 11
52.5032
 21
30.2024
  0
LINE
  8
0
 10
52.5032
 20
30.2024
 11
52.6111
 21
30.0731
  0
LINE
  8
0
 10
52.6111
 20
30.0731
 11
54.6776
 21
23.7132
  0
LINE
  8
0
 10
54.6776
 20
23.7132
 11
54.5657
 21
23.4161
  0
LINE
  8
0
 10
54.5657
 20
23.4161
 11
54.2239
 21
22.4196
  0
LINE
  8
0
 10
54.2239
 20
22.4196
 11
53.9104
 21
21.407
  0
LINE
  8
0
 10
53.9104
 20
21.407
 11
53.6247
 21
20.3768
  0
LINE
  8
0
 10
53.6247
 20
20.3768
 11
53.3668
 21
19.3317
  0
LINE
  8
0
 10
53.3668
 20
19.3317
 11
53.1371
 21
18.2694
  0
LINE
  8
0
 10
53.1371
 20
18.2694
 11
52.9353
 21
17.1912
  0
LINE
  8
0
 10
52.9353
 20
17.1912
 11
52.7612
 21
16.0963
  0
LINE
  8
0
 10
52.7612
 20
16.0963
 11
52.6148
 21
14.9855
  0
LINE
  8
0
 10
52.6148
 20
14.9855
 11
52.4963
 21
13.857
  0
LINE
  8
0
 10
52.4963
 20
13.857
 11
52.4963
 21
12.5117
  0
LINE
  8
0
 10
52.4963
 20
12.5117
 11
51.5601
 21
14.0253
  0
LINE
  8
0
 10
41.06
 20
14.0253
 11
40.2589
 21
15.4977
  0
LINE
  8
0
 10
40.2589
 20
15.4977
 11
39.5993
 21
16.9193
  0
LINE
  8
0
 10
39.5993
 20
16.9193
 11
39.0802
 21
18.2892
  0
LINE
  8
0
 10
39.0802
 20
18.2892
 11
38.7026
 21
19.6094
  0
LINE
  8
0
 10
38.7026
 20
19.6094
 11
38.4666
 21
20.8783
  0
LINE
  8
0
 10
38.4666
 20
20.8783
 11
38.372
 21
22.0959
  0
LINE
  8
0
 10
38.372
 20
22.0959
 11
38.4174
 21
23.2634
  0
LINE
  8
0
 10
38.4174
 20
23.2634
 11
38.6049
 21
24.3801
  0
LINE
  8
0
 10
38.6049
 20
24.3801
 11
38.9328
 21
25.4456
  0
LINE
  8
0
 10
38.9328
 20
25.4456
 11
39.4028
 21
26.4592
  0
LINE
  8
0
 10
39.4028
 20
26.4592
 11
40.0132
 21
27.4237
  0
LINE
  8
0
 10
40.0132
 20
27.4237
 11
42.0031
 21
29.7869
  0
LINE
  8
0
 10
42.0031
 20
29.7869
 11
42.0031
 21
30.2024
  0
LINE
  8
0
 10
42.0031
 20
30.2024
 11
45.256
 21
26.3043
  0
LINE
  8
0
 10
45.256
 20
26.3043
 11
44.832
 21
25.3596
  0
LINE
  8
0
 10
44.832
 20
25.3596
 11
44.4347
 21
24.3961
  0
LINE
  8
0
 10
44.4347
 20
24.3961
 11
44.0656
 21
23.4161
  0
LINE
  8
0
 10
44.0656
 20
23.4161
 11
43.7238
 21
22.4196
  0
LINE
  8
0
 10
43.7238
 20
22.4196
 11
43.4103
 21
21.407
  0
LINE
  8
0
 10
43.4103
 20
21.407
 11
43.1246
 21
20.3768
  0
LINE
  8
0
 10
43.1246
 20
20.3768
 11
42.8667
 21
19.3317
  0
LINE
  8
0
 10
42.8667
 20
19.3317
 11
42.637
 21
18.2694
  0
LINE
  8
0
 10
42.637
 20
18.2694
 11
42.4352
 21
17.1912
  0
LINE
  8
0
 10
42.4352
 20
17.1912
 11
42.261
 21
16.0963
  0
LINE
  8
0
 10
42.261
 20
16.0963
 11
42.1147
 21
14.9855
  0
LINE
  8
0
 10
42.1147
 20
14.9855
 11
41.9962
 21
13.857
  0
LINE
  8
0
 10
41.9962
 20
13.857
 11
41.9962
 21
12.5117
  0
LINE
  8
0
 10
41.9962
 20
12.5117
 11
41.06
 21
14.0253
  0
LINE
  8
0
 10
30.5598
 20
14.0253
 11
29.7588
 21
15.4977
  0
LINE
  8
0
 10
29.7588
 20
15.4977
 11
29.0992
 21
16.9193
  0
LINE
  8
0
 10
29.0992
 20
16.9193
 11
28.5801
 21
18.2892
  0
LINE
  8
0
 10
28.5801
 20
18.2892
 11
28.2025
 21
19.6094
  0
LINE
  8
0
 10
28.2025
 20
19.6094
 11
27.9665
 21
20.8783
  0
LINE
  8
0
 10
27.9665
 20
20.8783
 11
27.8719
 21
22.0959
  0
LINE
  8
0
 10
27.8719
 20
22.0959
 11
27.9173
 21
23.2634
  0
LINE
  8
0
 10
27.9173
 20
23.2634
 11
28.1048
 21
24.3801
  0
LINE
  8
0
 10
28.1048
 20
24.3801
 11
28.4327
 21
25.4456
  0
LINE
  8
0
 10
28.4327
 20
25.4456
 11
28.9027
 21
26.4592
  0
LINE
  8
0
 10
28.9027
 20
26.4592
 11
29.5131
 21
27.4237
  0
LINE
  8
0
 10
29.5131
 20
27.4237
 11
31.503
 21
29.7869
  0
LINE
  8
0
 10
31.503
 20
29.7869
 11
31.503
 21
30.2024
  0
LINE
  8
0
 10
31.503
 20
30.2024
 11
34.7559
 21
26.3043
  0
LINE
  8
0
 10
34.7559
 20
26.3043
 11
34.3319
 21
25.3596
  0
LINE
  8
0
 10
34.3319
 20
25.3596
 11
33.9346
 21
24.3961
  0
LINE
  8
0
 10
33.9346
 20
24.3961
 11
33.5655
 21
23.4161
  0
LINE
  8
0
 10
33.5655
 20
23.4161
 11
33.2237
 21
22.4196
  0
LINE
  8
0
 10
33.2237
 20
22.4196
 11
32.9102
 21
21.407
  0
LINE
  8
0
 10
32.9102
 20
21.407
 11
32.6245
 21
20.3768
  0
LINE
  8
0
 10
32.6245
 20
20.3768
 11
32.3666
 21
19.3317
  0
LINE
  8
0
 10
32.3666
 20
19.3317
 11
32.1369
 21
18.2694
  0
LINE
  8
0
 10
32.1369
 20
18.2694
 11
31.935
 21
17.1912
  0
LINE
  8
0
 10
31.935
 20
17.1912
 11
31.7609
 21
16.0963
  0
LINE
  8
0
 10
31.7609
 20
16.0963
 11
31.6146
 21
14.9855
  0
LINE
  8
0
 10
31.6146
 20
14.9855
 11
31.496
 21
13.857
  0
LINE
  8
0
 10
31.496
 20
13.857
 11
31.496
 21
12.5117
  0
LINE
  8
0
 10
31.496
 20
12.5117
 11
30.5598
 21
14.0253
  0
LINE
  8
0
 10
20.0597
 20
14.0253
 11
19.2587
 21
15.4977
  0
LINE
  8
0
 10
19.2587
 20
15.4977
 11
18.5991
 21
16.9193
  0
LINE
  8
0
 10
18.5991
 20
16.9193
 11
18.08
 21
18.2892
  0
LINE
  8
0
 10
18.08
 20
18.2892
 11
17.7024
 21
19.6094
  0
LINE
  8
0
 10
17.7024
 20
19.6094
 11
17.4664
 21
20.8783
  0
LINE
  8
0
 10
17.4664
 20
20.8783
 11
17.3718
 21
22.0959
  0
LINE
  8
0
 10
17.3718
 20
22.0959
 11
17.4172
 21
23.2634
  0
LINE
  8
0
 10
17.4172
 20
23.2634
 11
17.6047
 21
24.3801
  0
LINE
  8
0
 10
17.6047
 20
24.3801
 11
17.9326
 21
25.4456
  0
LINE
  8
0
 10
17.9326
 20
25.4456
 11
18.4026
 21
26.4592
  0
LINE
  8
0
 10
18.4026
 20
26.4592
 11
19.013
 21
27.4237
  0
LINE
  8
0
 10
19.013
 20
27.4237
 11
21.0029
 21
29.7869
  0
LINE
  8
0
 10
21.0029
 20
29.7869
 11
21.0029
 21
30.2024
  0
LINE
  8
0
 10
21.0029
 20
30.2024
 11
24.2558
 21
26.3043
  0
LINE
  8
0
 10
24.2558
 20
26.3043
 11
23.8318
 21
25.3596
  0
LINE
  8
0
 10
23.8318
 20
25.3596
 11
23.4344
 21
24.3961
  0
LINE
  8
0
 10
23.4344
 20
24.3961
 11
23.0654
 21
23.4161
  0
LINE
  8
0
 10
23.0654
 20
23.4161
 11
22.7236
 21
22.4196
  0
LINE
  8
0
 10
22.7236
 20
22.4196
 11
22.4101
 21
21.407
  0
LINE
  8
0
 10
22.4101
 20
21.407
 11
22.1244
 21
20.3768
  0
LINE
  8
0
 10
22.1244
 20
20.3768
 11
21.8665
 21
19.3317
  0
LINE
  8
0
 10
21.8665
 20
19.3317
 11
21.6368
 21
18.2694
  0
LINE
  8
0
 10
21.6368
 20
18.2694
 11
21.4349
 21
17.1912
  0
LINE
  8
0
 10
21.4349
 20
17.1912
 11
21.2608
 21
16.0963
  0
LINE
  8
0
 10
21.2608
 20
16.0963
 11
21.1145
 21
14.9855
  0
LINE
  8
0
 10
21.1145
 20
14.9855
 11
20.9959
 21
13.857
  0
LINE
  8
0
 10
20.9959
 20
13.857
 11
20.9959
 21
12.5117
  0
LINE
  8
0
 10
20.9959
 20
12.5117
 11
20.0597
 21
14.0253
  0
LINE
  8
0
 10
-11.4395
 20
14.0253
 11
-12.2406
 21
15.4977
  0
LINE
  8
0
 10
-12.2406
 20
15.4977
 11
-12.9002
 21
16.9193
  0
LINE
  8
0
 10
-12.9002
 20
16.9193
 11
-13.4193
 21
18.2892
  0
LINE
  8
0
 10
-13.4193
 20
18.2892
 11
-13.7968
 21
19.6094
  0
LINE
  8
0
 10
-13.7968
 20
19.6094
 11
-14.0329
 21
20.8783
  0
LINE
  8
0
 10
-14.0329
 20
20.8783
 11
-14.1274
 21
22.0959
  0
LINE
  8
0
 10
-14.1274
 20
22.0959
 11
-14.082
 21
23.2634
  0
LINE
  8
0
 10
-14.082
 20
23.2634
 11
-13.8946
 21
24.3801
  0
LINE
  8
0
 10
-13.8946
 20
24.3801
 11
-13.5667
 21
25.4456
  0
LINE
  8
0
 10
-13.5667
 20
25.4456
 11
-13.0967
 21
26.4592
  0
LINE
  8
0
 10
-13.0967
 20
26.4592
 11
-12.4863
 21
27.4237
  0
LINE
  8
0
 10
-12.4863
 20
27.4237
 11
-10.4964
 21
29.7869
  0
LINE
  8
0
 10
-10.4964
 20
29.7869
 11
-10.4964
 21
30.2024
  0
LINE
  8
0
 10
-10.4964
 20
30.2024
 11
-7.24342
 21
26.3043
  0
LINE
  8
0
 10
-7.24342
 20
26.3043
 11
-7.66747
 21
25.3596
  0
LINE
  8
0
 10
-7.66747
 20
25.3596
 11
-8.0648
 21
24.3961
  0
LINE
  8
0
 10
-8.0648
 20
24.3961
 11
-8.43384
 21
23.4161
  0
LINE
  8
0
 10
-8.43384
 20
23.4161
 11
-8.77563
 21
22.4196
  0
LINE
  8
0
 10
-8.77563
 20
22.4196
 11
-9.08913
 21
21.407
  0
LINE
  8
0
 10
-9.08913
 20
21.407
 11
-9.37485
 21
20.3768
  0
LINE
  8
0
 10
-9.37485
 20
20.3768
 11
-9.6328
 21
19.3317
  0
LINE
  8
0
 10
-9.6328
 20
19.3317
 11
-9.86244
 21
18.2694
  0
LINE
  8
0
 10
-9.86244
 20
18.2694
 11
-10.0643
 21
17.1912
  0
LINE
  8
0
 10
-10.0643
 20
17.1912
 11
-10.2384
 21
16.0963
  0
LINE
  8
0
 10
-10.2384
 20
16.0963
 11
-10.3848
 21
14.9855
  0
LINE
  8
0
 10
-10.3848
 20
14.9855
 11
-10.5033
 21
13.857
  0
LINE
  8
0
 10
-10.5033
 20
13.857
 11
-10.5033
 21
12.5117
  0
LINE
  8
0
 10
-10.5033
 20
12.5117
 11
-11.4395
 21
14.0253
  0
LINE
  8
0
 10
-21.9396
 20
14.0253
 11
-22.7407
 21
15.4977
  0
LINE
  8
0
 10
-22.7407
 20
15.4977
 11
-23.4003
 21
16.9193
  0
LINE
  8
0
 10
-23.4003
 20
16.9193
 11
-23.9194
 21
18.2892
  0
LINE
  8
0
 10
-23.9194
 20
18.2892
 11
-24.297
 21
19.6094
  0
LINE
  8
0
 10
-24.297
 20
19.6094
 11
-24.533
 21
20.8783
  0
LINE
  8
0
 10
-24.533
 20
20.8783
 11
-24.6275
 21
22.0959
  0
LINE
  8
0
 10
-24.6275
 20
22.0959
 11
-24.5821
 21
23.2634
  0
LINE
  8
0
 10
-24.5821
 20
23.2634
 11
-24.3947
 21
24.3801
  0
LINE
  8
0
 10
-24.3947
 20
24.3801
 11
-24.0668
 21
25.4456
  0
LINE
  8
0
 10
-24.0668
 20
25.4456
 11
-23.5968
 21
26.4592
  0
LINE
  8
0
 10
-23.5968
 20
26.4592
 11
-22.9864
 21
27.4237
  0
LINE
  8
0
 10
-22.9864
 20
27.4237
 11
-20.9965
 21
29.7869
  0
LINE
  8
0
 10
-20.9965
 20
29.7869
 11
-20.9965
 21
30.2024
  0
LINE
  8
0
 10
-20.9965
 20
30.2024
 11
-17.7435
 21
26.3043
  0
LINE
  8
0
 10
-17.7435
 20
26.3043
 11
-18.1676
 21
25.3596
  0
LINE
  8
0
 10
-18.1676
 20
25.3596
 11
-18.5649
 21
24.3961
  0
LINE
  8
0
 10
-18.5649
 20
24.3961
 11
-18.9339
 21
23.4161
  0
LINE
  8
0
 10
-18.9339
 20
23.4161
 11
-19.2757
 21
22.4196
  0
LINE
  8
0
 10
-19.2757
 20
22.4196
 11
-19.5892
 21
21.407
  0
LINE
  8
0
 10
-19.5892
 20
21.407
 11
-19.875
 21
20.3768
  0
LINE
  8
0
 10
-19.875
 20
20.3768
 11
-20.1329
 21
19.3317
  0
LINE
  8
0
 10
-20.1329
 20
19.3317
 11
-20.3625
 21
18.2694
  0
LINE
  8
0
 10
-20.3625
 20
18.2694
 11
-20.5644
 21
17.1912
  0
LINE
  8
0
 10
-20.5644
 20
17.1912
 11
-20.7385
 21
16.0963
  0
LINE
  8
0
 10
-20.7385
 20
16.0963
 11
-20.8849
 21
14.9855
  0
LINE
  8
0
 10
-20.8849
 20
14.9855
 11
-21.0034
 21
13.857
  0
LINE
  8
0
 10
-21.0034
 20
13.857
 11
-21.0034
 21
12.5117
  0
LINE
  8
0
 10
-21.0034
 20
12.5117
 11
-21.9396
 21
14.0253
  0
LINE
  8
0
 10
-32.4397
 20
14.0253
 11
-33.2408
 21
15.4977
  0
LINE
  8
0
 10
-33.2408
 20
15.4977
 11
-33.9004
 21
16.9193
  0
LINE
  8
0
 10
-33.9004
 20
16.9193
 11
-34.4195
 21
18.2892
  0
LINE
  8
0
 10
-34.4195
 20
18.2892
 11
-34.7971
 21
19.6094
  0
LINE
  8
0
 10
-34.7971
 20
19.6094
 11
-35.0331
 21
20.8783
  0
LINE
  8
0
 10
-35.0331
 20
20.8783
 11
-35.1276
 21
22.0959
  0
LINE
  8
0
 10
-35.1276
 20
22.0959
 11
-35.0822
 21
23.2634
  0
LINE
  8
0
 10
-35.0822
 20
23.2634
 11
-34.8948
 21
24.3801
  0
LINE
  8
0
 10
-34.8948
 20
24.3801
 11
-34.5669
 21
25.4456
  0
LINE
  8
0
 10
-34.5669
 20
25.4456
 11
-34.0969
 21
26.4592
  0
LINE
  8
0
 10
-34.0969
 20
26.4592
 11
-33.4865
 21
27.4237
  0
LINE
  8
0
 10
-33.4865
 20
27.4237
 11
-31.4966
 21
29.7869
  0
LINE
  8
0
 10
-31.4966
 20
29.7869
 11
-31.4966
 21
30.2024
  0
LINE
  8
0
 10
-31.4966
 20
30.2024
 11
-28.2436
 21
26.3043
  0
LINE
  8
0
 10
-28.2436
 20
26.3043
 11
-28.6677
 21
25.3596
  0
LINE
  8
0
 10
-28.6677
 20
25.3596
 11
-29.065
 21
24.3961
  0
LINE
  8
0
 10
-29.065
 20
24.3961
 11
-29.4341
 21
23.4161
  0
LINE
  8
0
 10
-29.4341
 20
23.4161
 11
-29.7758
 21
22.4196
  0
LINE
  8
0
 10
-29.7758
 20
22.4196
 11
-30.0893
 21
21.407
  0
LINE
  8
0
 10
-30.0893
 20
21.407
 11
-30.3751
 21
20.3768
  0
LINE
  8
0
 10
-30.3751
 20
20.3768
 11
-30.633
 21
19.3317
  0
LINE
  8
0
 10
-30.633
 20
19.3317
 11
-30.8627
 21
18.2694
  0
LINE
  8
0
 10
-30.8627
 20
18.2694
 11
-31.0645
 21
17.1912
  0
LINE
  8
0
 10
-31.0645
 20
17.1912
 11
-31.2386
 21
16.0963
  0
LINE
  8
0
 10
-31.2386
 20
16.0963
 11
-31.385
 21
14.9855
  0
LINE
  8
0
 10
-31.385
 20
14.9855
 11
-31.5035
 21
13.857
  0
LINE
  8
0
 10
-31.5035
 20
13.857
 11
-31.5035
 21
12.5117
  0
LINE
  8
0
 10
-31.5035
 20
12.5117
 11
-32.4397
 21
14.0253
  0
LINE
  8
0
 10
-42.9398
 20
14.0253
 11
-43.7409
 21
15.4977
  0
LINE
  8
0
 10
-43.7409
 20
15.4977
 11
-44.4005
 21
16.9193
  0
LINE
  8
0
 10
-44.4005
 20
16.9193
 11
-44.9196
 21
18.2892
  0
LINE
  8
0
 10
-44.9196
 20
18.2892
 11
-45.2972
 21
19.6094
  0
LINE
  8
0
 10
-45.2972
 20
19.6094
 11
-45.5332
 21
20.8783
  0
LINE
  8
0
 10
-45.5332
 20
20.8783
 11
-45.6277
 21
22.0959
  0
LINE
  8
0
 10
-45.6277
 20
22.0959
 11
-45.5824
 21
23.2634
  0
LINE
  8
0
 10
-45.5824
 20
23.2634
 11
-45.3949
 21
24.3801
  0
LINE
  8
0
 10
-45.3949
 20
24.3801
 11
-45.067
 21
25.4456
  0
LINE
  8
0
 10
-45.067
 20
25.4456
 11
-44.597
 21
26.4592
  0
LINE
  8
0
 10
-44.597
 20
26.4592
 11
-43.9866
 21
27.4237
  0
LINE
  8
0
 10
-43.9866
 20
27.4237
 11
-41.9967
 21
29.7869
  0
LINE
  8
0
 10
-41.9967
 20
29.7869
 11
-41.9967
 21
30.2024
  0
LINE
  8
0
 10
-41.9967
 20
30.2024
 11
-38.7437
 21
26.3043
  0
LINE
  8
0
 10
-38.7437
 20
26.3043
 11
-39.1678
 21
25.3596
  0
LINE
  8
0
 10
-39.1678
 20
25.3596
 11
-39.5651
 21
24.3961
  0
LINE
  8
0
 10
-39.5651
 20
24.3961
 11
-39.9342
 21
23.4161
  0
LINE
  8
0
 10
-39.9342
 20
23.4161
 11
-40.276
 21
22.4196
  0
LINE
  8
0
 10
-40.276
 20
22.4196
 11
-40.5894
 21
21.407
  0
LINE
  8
0
 10
-40.5894
 20
21.407
 11
-40.8752
 21
20.3768
  0
LINE
  8
0
 10
-40.8752
 20
20.3768
 11
-41.1331
 21
19.3317
  0
LINE
  8
0
 10
-41.1331
 20
19.3317
 11
-41.3628
 21
18.2694
  0
LINE
  8
0
 10
-41.3628
 20
18.2694
 11
-41.5646
 21
17.1912
  0
LINE
  8
0
 10
-41.5646
 20
17.1912
 11
-41.7387
 21
16.0963
  0
LINE
  8
0
 10
-41.7387
 20
16.0963
 11
-41.8851
 21
14.9855
  0
LINE
  8
0
 10
-41.8851
 20
14.9855
 11
-42.0036
 21
13.857
  0
LINE
  8
0
 10
-42.0036
 20
13.857
 11
-42.0036
 21
12.5117
  0
LINE
  8
0
 10
-42.0036
 20
12.5117
 11
-42.9398
 21
14.0253
  0
LINE
  8
0
 10
-0.939407
 20
14.0253
 11
-1.74049
 21
15.4977
  0
LINE
  8
0
 10
-1.74049
 20
15.4977
 11
-2.40005
 21
16.9193
  0
LINE
  8
0
 10
-2.40005
 20
16.9193
 11
-2.91916
 21
18.2892
  0
LINE
  8
0
 10
-2.91916
 20
18.2892
 11
-3.29674
 21
19.6094
  0
LINE
  8
0
 10
-3.29674
 20
19.6094
 11
-3.53279
 21
20.8783
  0
LINE
  8
0
 10
-3.53279
 20
20.8783
 11
-3.62732
 21
22.0959
  0
LINE
  8
0
 10
-3.62732
 20
22.0959
 11
-3.58192
 21
23.2634
  0
LINE
  8
0
 10
-3.58192
 20
23.2634
 11
-3.39447
 21
24.3801
  0
LINE
  8
0
 10
-3.39447
 20
24.3801
 11
-3.06656
 21
25.4456
  0
LINE
  8
0
 10
-3.06656
 20
25.4456
 11
-2.59659
 21
26.4592
  0
LINE
  8
0
 10
-2.59659
 20
26.4592
 11
-1.98616
 21
27.4237
  0
LINE
  8
0
 10
-1.98616
 20
27.4237
 11
0.00320435
 21
29.7869
  0
LINE
  8
0
 10
0.00320435
 20
29.7869
 11
0.00320435
 21
30.2024
  0
LINE
  8
0
 10
0.00320435
 20
30.2024
 11
3.25615
 21
26.3043
  0
LINE
  8
0
 10
3.25615
 20
26.3043
 11
2.83211
 21
25.3596
  0
LINE
  8
0
 10
2.83211
 20
25.3596
 11
2.43477
 21
24.3961
  0
LINE
  8
0
 10
2.43477
 20
24.3961
 11
2.06573
 21
23.4161
  0
LINE
  8
0
 10
2.06573
 20
23.4161
 11
1.72394
 21
22.4196
  0
LINE
  8
0
 10
1.72394
 20
22.4196
 11
1.41045
 21
21.407
  0
LINE
  8
0
 10
1.41045
 20
21.407
 11
1.12473
 21
20.3768
  0
LINE
  8
0
 10
1.12473
 20
20.3768
 11
0.866776
 21
19.3317
  0
LINE
  8
0
 10
0.866776
 20
19.3317
 11
0.637131
 21
18.2694
  0
LINE
  8
0
 10
0.637131
 20
18.2694
 11
0.435257
 21
17.1912
  0
LINE
  8
0
 10
0.435257
 20
17.1912
 11
0.261154
 21
16.0963
  0
LINE
  8
0
 10
0.261154
 20
16.0963
 11
0.114822
 21
14.9855
  0
LINE
  8
0
 10
0.114822
 20
14.9855
 11
-0.0037384
 21
13.857
  0
LINE
  8
0
 10
-0.0037384
 20
13.857
 11
-0.0037384
 21
12.5117
  0
LINE
  8
0
 10
-0.0037384
 20
12.5117
 11
-0.939407
 21
14.0253
  0
LINE
  8
0
 10
-53.4394
 20
14.0253
 11
-54.2405
 21
15.4977
  0
LINE
  8
0
 10
-54.2405
 20
15.4977
 11
-54.9001
 21
16.9193
  0
LINE
  8
0
 10
-54.9001
 20
16.9193
 11
-55.4192
 21
18.2892
  0
LINE
  8
0
 10
-55.4192
 20
18.2892
 11
-55.7967
 21
19.6094
  0
LINE
  8
0
 10
-55.7967
 20
19.6094
 11
-55.8747
 21
20.0287
  0
LINE
  8
0
 10
-55.8747
 20
20.0287
 11
-52.8347
 21
29.385
  0
LINE
  8
0
 10
-52.8347
 20
29.385
 11
-52.4963
 21
29.7869
  0
LINE
  8
0
 10
-52.4963
 20
29.7869
 11
-52.4963
 21
30.2019
  0
LINE
  8
0
 10
-52.4963
 20
30.2019
 11
-49.2439
 21
26.3043
  0
LINE
  8
0
 10
-49.2439
 20
26.3043
 11
-49.6679
 21
25.3596
  0
LINE
  8
0
 10
-49.6679
 20
25.3596
 11
-50.0652
 21
24.3961
  0
LINE
  8
0
 10
-50.0652
 20
24.3961
 11
-50.4343
 21
23.4161
  0
LINE
  8
0
 10
-50.4343
 20
23.4161
 11
-50.7761
 21
22.4196
  0
LINE
  8
0
 10
-50.7761
 20
22.4196
 11
-51.0896
 21
21.407
  0
LINE
  8
0
 10
-51.0896
 20
21.407
 11
-51.3753
 21
20.3768
  0
LINE
  8
0
 10
-51.3753
 20
20.3768
 11
-51.6332
 21
19.3317
  0
LINE
  8
0
 10
-51.6332
 20
19.3317
 11
-51.8629
 21
18.2694
  0
LINE
  8
0
 10
-51.8629
 20
18.2694
 11
-52.0647
 21
17.1912
  0
LINE
  8
0
 10
-52.0647
 20
17.1912
 11
-52.2388
 21
16.0963
  0
LINE
  8
0
 10
-52.2388
 20
16.0963
 11
-52.3852
 21
14.9855
  0
LINE
  8
0
 10
-52.3852
 20
14.9855
 11
-52.5037
 21
13.857
  0
LINE
  8
0
 10
-52.5037
 20
13.857
 11
-52.5037
 21
12.5123
  0
LINE
  8
0
 10
-52.5037
 20
12.5123
 11
-53.4394
 21
14.0253
  0
LINE
  8
0
 10
9.56017
 20
14.0253
 11
8.75908
 21
15.4977
  0
LINE
  8
0
 10
8.75908
 20
15.4977
 11
8.09952
 21
16.9193
  0
LINE
  8
0
 10
8.09952
 20
16.9193
 11
7.58041
 21
18.2892
  0
LINE
  8
0
 10
7.58041
 20
18.2892
 11
7.20284
 21
19.6094
  0
LINE
  8
0
 10
7.20284
 20
19.6094
 11
6.96678
 21
20.8783
  0
LINE
  8
0
 10
6.96678
 20
20.8783
 11
6.87225
 21
22.0959
  0
LINE
  8
0
 10
6.87225
 20
22.0959
 11
6.91765
 21
23.2634
  0
LINE
  8
0
 10
6.91765
 20
23.2634
 11
7.1051
 21
24.3801
  0
LINE
  8
0
 10
7.1051
 20
24.3801
 11
7.43301
 21
25.4456
  0
LINE
  8
0
 10
7.43301
 20
25.4456
 11
7.90298
 21
26.4592
  0
LINE
  8
0
 10
7.90298
 20
26.4592
 11
8.51341
 21
27.4237
  0
LINE
  8
0
 10
8.51341
 20
27.4237
 11
10.5033
 21
29.7869
  0
LINE
  8
0
 10
10.5033
 20
29.7869
 11
10.5033
 21
30.2019
  0
LINE
  8
0
 10
10.5033
 20
30.2019
 11
13.7557
 21
26.3043
  0
LINE
  8
0
 10
13.7557
 20
26.3043
 11
13.3317
 21
25.3596
  0
LINE
  8
0
 10
13.3317
 20
25.3596
 11
12.9343
 21
24.3961
  0
LINE
  8
0
 10
12.9343
 20
24.3961
 11
12.5653
 21
23.4161
  0
LINE
  8
0
 10
12.5653
 20
23.4161
 11
12.2235
 21
22.4196
  0
LINE
  8
0
 10
12.2235
 20
22.4196
 11
11.91
 21
21.407
  0
LINE
  8
0
 10
11.91
 20
21.407
 11
11.6243
 21
20.3768
  0
LINE
  8
0
 10
11.6243
 20
20.3768
 11
11.3663
 21
19.3317
  0
LINE
  8
0
 10
11.3663
 20
19.3317
 11
11.1367
 21
18.2694
  0
LINE
  8
0
 10
11.1367
 20
18.2694
 11
10.9348
 21
17.1912
  0
LINE
  8
0
 10
10.9348
 20
17.1912
 11
10.7607
 21
16.0963
  0
LINE
  8
0
 10
10.7607
 20
16.0963
 11
10.6144
 21
14.9855
  0
LINE
  8
0
 10
10.6144
 20
14.9855
 11
10.4958
 21
13.857
  0
LINE
  8
0
 10
10.4958
 20
13.857
 11
10.4958
 21
12.5123
  0
LINE
  8
0
 10
10.4958
 20
12.5123
 11
9.56017
 21
14.0253
  0
LINE
  8
0
 10
-58.0556
 20
12
 11
-57.7535
 21
12.4888
  0
LINE
  8
0
 10
-57.7535
 20
12.4888
 11
-57.7535
 21
12
  0
LINE
  8
0
 10
-57.7535
 20
12
 11
-58.0556
 21
12
  0
LINE
  8
0
 10
15.4436
 20
12
 11
15.7456
 21
12.4888
  0
LINE
  8
0
 10
15.7456
 20
12.4888
 11
15.7456
 21
12
  0
LINE
  8
0
 10
15.7456
 20
12
 11
15.4436
 21
12
  0
LINE
  8
0
 10
-26.5558
 20
12
 11
-26.2537
 21
12.4888
  0
LINE
  8
0
 10
-26.2537
 20
12.4888
 11
-26.2537
 21
12
  0
LINE
  8
0
 10
-26.2537
 20
12
 11
-26.5558
 21
12
  0
LINE
  8
0
 10
4.94398
 20
12
 11
5.24605
 21
12.4888
  0
LINE
  8
0
 10
5.24605
 20
12.4888
 11
5.24605
 21
12
  0
LINE
  8
0
 10
5.24605
 20
12
 11
4.94398
 21
12
  0
LINE
  8
0
 10
-47.556
 20
12
 11
-47.254
 21
12.4888
  0
LINE
  8
0
 10
-47.254
 20
12.4888
 11
-47.254
 21
12
  0
LINE
  8
0
 10
-47.254
 20
12
 11
-47.556
 21
12
  0
LINE
  8
0
 10
25.9437
 20
12
 11
26.2457
 21
12.4888
  0
LINE
  8
0
 10
26.2457
 20
12.4888
 11
26.2457
 21
12
  0
LINE
  8
0
 10
26.2457
 20
12
 11
25.9437
 21
12
  0
LINE
  8
0
 10
36.4438
 20
12
 11
36.7458
 21
12.4888
  0
LINE
  8
0
 10
36.7458
 20
12.4888
 11
36.7458
 21
12
  0
LINE
  8
0
 10
36.7458
 20
12
 11
36.4438
 21
12
  0
LINE
  8
0
 10
-16.0557
 20
12
 11
-15.7536
 21
12.4888
  0
LINE
  8
0
 10
-15.7536
 20
12.4888
 11
-15.7536
 21
12
  0
LINE
  8
0
 10
-15.7536
 20
12
 11
-16.0557
 21
12
  0
LINE
  8
0
 10
-37.0559
 20
12
 11
-36.7538
 21
12.4888
  0
LINE
  8
0
 10
-36.7538
 20
12.4888
 11
-36.7538
 21
12
  0
LINE
  8
0
 10
-36.7538
 20
12
 11
-37.0559
 21
12
  0
LINE
  8
0
 10
-5.55559
 20
12
 11
-5.25352
 21
12.4888
  0
LINE
  8
0
 10
-5.25352
 20
12.4888
 11
-5.25352
 21
12
  0
LINE
  8
0
 10
-5.25352
 20
12
 11
-5.55559
 21
12
  0
LINE
  8
0
 10
57.444
 20
12
 11
57.746
 21
12.4888
  0
LINE
  8
0
 10
57.746
 20
12.4888
 11
57.746
 21
12
  0
LINE
  8
0
 10
57.746
 20
12
 11
57.444
 21
12
  0
LINE
  8
0
 10
46.9439
 20
12
 11
47.2459
 21
12.4888
  0
LINE
  8
0
 10
47.2459
 20
12.4888
 11
47.2459
 21
12
  0
LINE
  8
0
 10
47.2459
 20
12
 11
46.9439
 21
12
  0
LINE
  8
0
 10
-10
 20
7
 11
-10
 21
11
  0
LINE
  8
0
 10
-10
 20
11
 11
10
 21
11
  0
LINE
  8
0
 10
10
 20
11
 11
10
 21
7
  0
LINE
  8
0
 10
10
 20
7
 11
-10
 21
7
  0
LINE
  8
0
 10
-68.6534
 20
2.70622
 11
-68.7785
 21
2.71805
  0
LINE
  8
0
 10
-68.7785
 20
2.71805
 11
-68.9026
 21
2.7377
  0
LINE
  8
0
 10
-68.9026
 20
2.7377
 11
-69.0252
 21
2.76511
  0
LINE
  8
0
 10
-69.0252
 20
2.76511
 11
-69.1459
 21
2.80016
  0
LINE
  8
0
 10
-69.1459
 20
2.80016
 11
-69.2641
 21
2.84273
  0
LINE
  8
0
 10
-69.2641
 20
2.84273
 11
-69.3794
 21
2.89262
  0
LINE
  8
0
 10
-69.3794
 20
2.89262
 11
-69.4914
 21
2.94966
  0
LINE
  8
0
 10
-69.4914
 20
2.94966
 11
-69.5995
 21
3.01363
  0
LINE
  8
0
 10
-69.5995
 20
3.01363
 11
-69.7034
 21
3.08424
  0
LINE
  8
0
 10
-69.7034
 20
3.08424
 11
-69.8027
 21
3.16125
  0
LINE
  8
0
 10
-69.8027
 20
3.16125
 11
-69.897
 21
3.24434
  0
LINE
  8
0
 10
-69.897
 20
3.24434
 11
-69.9858
 21
3.33318
  0
LINE
  8
0
 10
-69.9858
 20
3.33318
 11
-70.0689
 21
3.42743
  0
LINE
  8
0
 10
-70.0689
 20
3.42743
 11
-70.1459
 21
3.5267
  0
LINE
  8
0
 10
-70.1459
 20
3.5267
 11
-70.2165
 21
3.63062
  0
LINE
  8
0
 10
-70.2165
 20
3.63062
 11
-70.2805
 21
3.73877
  0
LINE
  8
0
 10
-70.2805
 20
3.73877
 11
-70.3375
 21
3.85072
  0
LINE
  8
0
 10
-70.3375
 20
3.85072
 11
-70.3874
 21
3.96602
  0
LINE
  8
0
 10
-70.3874
 20
3.96602
 11
-70.43
 21
4.08424
  0
LINE
  8
0
 10
-70.43
 20
4.08424
 11
-70.465
 21
4.2049
  0
LINE
  8
0
 10
-70.465
 20
4.2049
 11
-70.4924
 21
4.32751
  0
LINE
  8
0
 10
-70.4924
 20
4.32751
 11
-70.5121
 21
4.45161
  0
LINE
  8
0
 10
-70.5121
 20
4.45161
 11
-70.5239
 21
4.57669
  0
LINE
  8
0
 10
-70.5239
 20
4.57669
 11
-70.5279
 21
4.70227
  0
LINE
  8
0
 10
-70.5279
 20
4.70227
 11
-70.5239
 21
4.82785
  0
LINE
  8
0
 10
-70.5239
 20
4.82785
 11
-70.5121
 21
4.95294
  0
LINE
  8
0
 10
-70.5121
 20
4.95294
 11
-70.4924
 21
5.07704
  0
LINE
  8
0
 10
-70.4924
 20
5.07704
 11
-70.465
 21
5.19966
  0
LINE
  8
0
 10
-70.465
 20
5.19966
 11
-70.43
 21
5.32031
  0
LINE
  8
0
 10
-70.43
 20
5.32031
 11
-70.3874
 21
5.43852
  0
LINE
  8
0
 10
-70.3874
 20
5.43852
 11
-70.3375
 21
5.55383
  0
LINE
  8
0
 10
-70.3375
 20
5.55383
 11
-70.2805
 21
5.66579
  0
LINE
  8
0
 10
-70.2805
 20
5.66579
 11
-70.2165
 21
5.77393
  0
LINE
  8
0
 10
-70.2165
 20
5.77393
 11
-70.1459
 21
5.87784
  0
LINE
  8
0
 10
-70.1459
 20
5.87784
 11
-70.0689
 21
5.97713
  0
LINE
  8
0
 10
-70.0689
 20
5.97713
 11
-69.9858
 21
6.07137
  0
LINE
  8
0
 10
-69.9858
 20
6.07137
 11
-69.897
 21
6.16022
  0
LINE
  8
0
 10
-69.897
 20
6.16022
 11
-69.8027
 21
6.2433
  0
LINE
  8
0
 10
-69.8027
 20
6.2433
 11
-69.7034
 21
6.32031
  0
LINE
  8
0
 10
-69.7034
 20
6.32031
 11
-69.5995
 21
6.39093
  0
LINE
  8
0
 10
-69.5995
 20
6.39093
 11
-69.4914
 21
6.4549
  0
LINE
  8
0
 10
-69.4914
 20
6.4549
 11
-69.3794
 21
6.51193
  0
LINE
  8
0
 10
-69.3794
 20
6.51193
 11
-69.2641
 21
6.56183
  0
LINE
  8
0
 10
-69.2641
 20
6.56183
 11
-69.1459
 21
6.60439
  0
LINE
  8
0
 10
-69.1459
 20
6.60439
 11
-69.0252
 21
6.63943
  0
LINE
  8
0
 10
-69.0252
 20
6.63943
 11
-68.9026
 21
6.66685
  0
LINE
  8
0
 10
-68.9026
 20
6.66685
 11
-68.7785
 21
6.68651
  0
LINE
  8
0
 10
-68.7785
 20
6.68651
 11
-68.6534
 21
6.69833
  0
LINE
  8
0
 10
-68.6534
 20
6.69833
 11
-68.5279
 21
6.70227
  0
LINE
  8
0
 10
-68.5279
 20
6.70227
 11
-68.4023
 21
6.69833
  0
LINE
  8
0
 10
-68.4023
 20
6.69833
 11
-68.2772
 21
6.68651
  0
LINE
  8
0
 10
-68.2772
 20
6.68651
 11
-68.1531
 21
6.66685
  0
LINE
  8
0
 10
-68.1531
 20
6.66685
 11
-68.0305
 21
6.63943
  0
LINE
  8
0
 10
-68.0305
 20
6.63943
 11
-67.9098
 21
6.60439
  0
LINE
  8
0
 10
-67.9098
 20
6.60439
 11
-67.7916
 21
6.56183
  0
LINE
  8
0
 10
-67.7916
 20
6.56183
 11
-67.6763
 21
6.51193
  0
LINE
  8
0
 10
-67.6763
 20
6.51193
 11
-67.5643
 21
6.4549
  0
LINE
  8
0
 10
-67.5643
 20
6.4549
 11
-67.4562
 21
6.39093
  0
LINE
  8
0
 10
-67.4562
 20
6.39093
 11
-67.3523
 21
6.32031
  0
LINE
  8
0
 10
-67.3523
 20
6.32031
 11
-67.253
 21
6.2433
  0
LINE
  8
0
 10
-67.253
 20
6.2433
 11
-67.1588
 21
6.16022
  0
LINE
  8
0
 10
-67.1588
 20
6.16022
 11
-67.0699
 21
6.07137
  0
LINE
  8
0
 10
-67.0699
 20
6.07137
 11
-66.9868
 21
5.97713
  0
LINE
  8
0
 10
-66.9868
 20
5.97713
 11
-66.9098
 21
5.87784
  0
LINE
  8
0
 10
-66.9098
 20
5.87784
 11
-66.8392
 21
5.77393
  0
LINE
  8
0
 10
-66.8392
 20
5.77393
 11
-66.7752
 21
5.66579
  0
LINE
  8
0
 10
-66.7752
 20
5.66579
 11
-66.7182
 21
5.55383
  0
LINE
  8
0
 10
-66.7182
 20
5.55383
 11
-66.6683
 21
5.43852
  0
LINE
  8
0
 10
-66.6683
 20
5.43852
 11
-66.6257
 21
5.32031
  0
LINE
  8
0
 10
-66.6257
 20
5.32031
 11
-66.5907
 21
5.19966
  0
LINE
  8
0
 10
-66.5907
 20
5.19966
 11
-66.5633
 21
5.07704
  0
LINE
  8
0
 10
-66.5633
 20
5.07704
 11
-66.5436
 21
4.95294
  0
LINE
  8
0
 10
-66.5436
 20
4.95294
 11
-66.5318
 21
4.82785
  0
LINE
  8
0
 10
-66.5318
 20
4.82785
 11
-66.5279
 21
4.70227
  0
LINE
  8
0
 10
-66.5279
 20
4.70227
 11
-66.5318
 21
4.57669
  0
LINE
  8
0
 10
-66.5318
 20
4.57669
 11
-66.5436
 21
4.45161
  0
LINE
  8
0
 10
-66.5436
 20
4.45161
 11
-66.5633
 21
4.32751
  0
LINE
  8
0
 10
-66.5633
 20
4.32751
 11
-66.5907
 21
4.2049
  0
LINE
  8
0
 10
-66.5907
 20
4.2049
 11
-66.6257
 21
4.08424
  0
LINE
  8
0
 10
-66.6257
 20
4.08424
 11
-66.6683
 21
3.96602
  0
LINE
  8
0
 10
-66.6683
 20
3.96602
 11
-66.7182
 21
3.85072
  0
LINE
  8
0
 10
-66.7182
 20
3.85072
 11
-66.7752
 21
3.73877
  0
LINE
  8
0
 10
-66.7752
 20
3.73877
 11
-66.8392
 21
3.63062
  0
LINE
  8
0
 10
-66.8392
 20
3.63062
 11
-66.9098
 21
3.5267
  0
LINE
  8
0
 10
-66.9098
 20
3.5267
 11
-66.9868
 21
3.42743
  0
LINE
  8
0
 10
-66.9868
 20
3.42743
 11
-67.0699
 21
3.33318
  0
LINE
  8
0
 10
-67.0699
 20
3.33318
 11
-67.1588
 21
3.24434
  0
LINE
  8
0
 10
-67.1588
 20
3.24434
 11
-67.253
 21
3.16125
  0
LINE
  8
0
 10
-67.253
 20
3.16125
 11
-67.3523
 21
3.08424
  0
LINE
  8
0
 10
-67.3523
 20
3.08424
 11
-67.4562
 21
3.01363
  0
LINE
  8
0
 10
-67.4562
 20
3.01363
 11
-67.5643
 21
2.94966
  0
LINE
  8
0
 10
-67.5643
 20
2.94966
 11
-67.6763
 21
2.89262
  0
LINE
  8
0
 10
-67.6763
 20
2.89262
 11
-67.7916
 21
2.84273
  0
LINE
  8
0
 10
-67.7916
 20
2.84273
 11
-67.9098
 21
2.80016
  0
LINE
  8
0
 10
-67.9098
 20
2.80016
 11
-68.0305
 21
2.76511
  0
LINE
  8
0
 10
-68.0305
 20
2.76511
 11
-68.1531
 21
2.7377
  0
LINE
  8
0
 10
-68.1531
 20
2.7377
 11
-68.2772
 21
2.71805
  0
LINE
  8
0
 10
-68.2772
 20
2.71805
 11
-68.4023
 21
2.70622
  0
LINE
  8
0
 10
-68.4023
 20
2.70622
 11
-68.5279
 21
2.70227
  0
LINE
  8
0
 10
-68.5279
 20
2.70227
 11
-68.6534
 21
2.70622
  0
LINE
  8
0
 10
68.4023
 20
2.70622
 11
68.2772
 21
2.71805
  0
LINE
  8
0
 10
68.2772
 20
2.71805
 11
68.1531
 21
2.7377
  0
LINE
  8
0
 10
68.1531
 20
2.7377
 11
68.0305
 21
2.76511
  0
LINE
  8
0
 10
68.0305
 20
2.76511
 11
67.9098
 21
2.80016
  0
LINE
  8
0
 10
67.9098
 20
2.80016
 11
67.7916
 21
2.84273
  0
LINE
  8
0
 10
67.7916
 20
2.84273
 11
67.6763
 21
2.89262
  0
LINE
  8
0
 10
67.6763
 20
2.89262
 11
67.5643
 21
2.94966
  0
LINE
  8
0
 10
67.5643
 20
2.94966
 11
67.4562
 21
3.01363
  0
LINE
  8
0
 10
67.4562
 20
3.01363
 11
67.3523
 21
3.08424
  0
LINE
  8
0
 10
67.3523
 20
3.08424
 11
67.253
 21
3.16125
  0
LINE
  8
0
 10
67.253
 20
3.16125
 11
67.1588
 21
3.24434
  0
LINE
  8
0
 10
67.1588
 20
3.24434
 11
67.0699
 21
3.33318
  0
LINE
  8
0
 10
67.0699
 20
3.33318
 11
66.9868
 21
3.42743
  0
LINE
  8
0
 10
66.9868
 20
3.42743
 11
66.9098
 21
3.5267
  0
LINE
  8
0
 10
66.9098
 20
3.5267
 11
66.8392
 21
3.63062
  0
LINE
  8
0
 10
66.8392
 20
3.63062
 11
66.7752
 21
3.73877
  0
LINE
  8
0
 10
66.7752
 20
3.73877
 11
66.7182
 21
3.85072
  0
LINE
  8
0
 10
66.7182
 20
3.85072
 11
66.6683
 21
3.96602
  0
LINE
  8
0
 10
66.6683
 20
3.96602
 11
66.6257
 21
4.08424
  0
LINE
  8
0
 10
66.6257
 20
4.08424
 11
66.5907
 21
4.2049
  0
LINE
  8
0
 10
66.5907
 20
4.2049
 11
66.5633
 21
4.32751
  0
LINE
  8
0
 10
66.5633
 20
4.32751
 11
66.5436
 21
4.45161
  0
LINE
  8
0
 10
66.5436
 20
4.45161
 11
66.5318
 21
4.57669
  0
LINE
  8
0
 10
66.5318
 20
4.57669
 11
66.5279
 21
4.70227
  0
LINE
  8
0
 10
66.5279
 20
4.70227
 11
66.5318
 21
4.82785
  0
LINE
  8
0
 10
66.5318
 20
4.82785
 11
66.5436
 21
4.95294
  0
LINE
  8
0
 10
66.5436
 20
4.95294
 11
66.5633
 21
5.07704
  0
LINE
  8
0
 10
66.5633
 20
5.07704
 11
66.5907
 21
5.19966
  0
LINE
  8
0
 10
66.5907
 20
5.19966
 11
66.6257
 21
5.32031
  0
LINE
  8
0
 10
66.6257
 20
5.32031
 11
66.6683
 21
5.43852
  0
LINE
  8
0
 10
66.6683
 20
5.43852
 11
66.7182
 21
5.55383
  0
LINE
  8
0
 10
66.7182
 20
5.55383
 11
66.7752
 21
5.66579
  0
LINE
  8
0
 10
66.7752
 20
5.66579
 11
66.8392
 21
5.77393
  0
LINE
  8
0
 10
66.8392
 20
5.77393
 11
66.9098
 21
5.87784
  0
LINE
  8
0
 10
66.9098
 20
5.87784
 11
66.9868
 21
5.97713
  0
LINE
  8
0
 10
66.9868
 20
5.97713
 11
67.0699
 21
6.07137
  0
LINE
  8
0
 10
67.0699
 20
6.07137
 11
67.1588
 21
6.16022
  0
LINE
  8
0
 10
67.1588
 20
6.16022
 11
67.253
 21
6.2433
  0
LINE
  8
0
 10
67.253
 20
6.2433
 11
67.3523
 21
6.32031
  0
LINE
  8
0
 10
67.3523
 20
6.32031
 11
67.4562
 21
6.39093
  0
LINE
  8
0
 10
67.4562
 20
6.39093
 11
67.5643
 21
6.4549
  0
LINE
  8
0
 10
67.5643
 20
6.4549
 11
67.6763
 21
6.51193
  0
LINE
  8
0
 10
67.6763
 20
6.51193
 11
67.7916
 21
6.56183
  0
LINE
  8
0
 10
67.7916
 20
6.56183
 11
67.9098
 21
6.60439
  0
LINE
  8
0
 10
67.9098
 20
6.60439
 11
68.0305
 21
6.63943
  0
LINE
  8
0
 10
68.0305
 20
6.63943
 11
68.1531
 21
6.66685
  0
LINE
  8
0
 10
68.1531
 20
6.66685
 11
68.2772
 21
6.68651
  0
LINE
  8
0
 10
68.2772
 20
6.68651
 11
68.4023
 21
6.69833
  0
LINE
  8
0
 10
68.4023
 20
6.69833
 11
68.5279
 21
6.70227
  0
LINE
  8
0
 10
68.5279
 20
6.70227
 11
68.6534
 21
6.69833
  0
LINE
  8
0
 10
68.6534
 20
6.69833
 11
68.7785
 21
6.68651
  0
LINE
  8
0
 10
68.7785
 20
6.68651
 11
68.9026
 21
6.66685
  0
LINE
  8
0
 10
68.9026
 20
6.66685
 11
69.0252
 21
6.63943
  0
LINE
  8
0
 10
69.0252
 20
6.63943
 11
69.1459
 21
6.60439
  0
LINE
  8
0
 10
69.1459
 20
6.60439
 11
69.2641
 21
6.56183
  0
LINE
  8
0
 10
69.2641
 20
6.56183
 11
69.3794
 21
6.51193
  0
LINE
  8
0
 10
69.3794
 20
6.51193
 11
69.4914
 21
6.4549
  0
LINE
  8
0
 10
69.4914
 20
6.4549
 11
69.5995
 21
6.39093
  0
LINE
  8
0
 10
69.5995
 20
6.39093
 11
69.7034
 21
6.32031
  0
LINE
  8
0
 10
69.7034
 20
6.32031
 11
69.8027
 21
6.2433
  0
LINE
  8
0
 10
69.8027
 20
6.2433
 11
69.897
 21
6.16022
  0
LINE
  8
0
 10
69.897
 20
6.16022
 11
69.9858
 21
6.07137
  0
LINE
  8
0
 10
69.9858
 20
6.07137
 11
70.0689
 21
5.97713
  0
LINE
  8
0
 10
70.0689
 20
5.97713
 11
70.1459
 21
5.87784
  0
LINE
  8
0
 10
70.1459
 20
5.87784
 11
70.2165
 21
5.77393
  0
LINE
  8
0
 10
70.2165
 20
5.77393
 11
70.2805
 21
5.66579
  0
LINE
  8
0
 10
70.2805
 20
5.66579
 11
70.3375
 21
5.55383
  0
LINE
  8
0
 10
70.3375
 20
5.55383
 11
70.3874
 21
5.43852
  0
LINE
  8
0
 10
70.3874
 20
5.43852
 11
70.43
 21
5.32031
  0
LINE
  8
0
 10
70.43
 20
5.32031
 11
70.465
 21
5.19966
  0
LINE
  8
0
 10
70.465
 20
5.19966
 11
70.4924
 21
5.07704
  0
LINE
  8
0
 10
70.4924
 20
5.07704
 11
70.5121
 21
4.95294
  0
LINE
  8
0
 10
70.5121
 20
4.95294
 11
70.5239
 21
4.82785
  0
LINE
  8
0
 10
70.5239
 20
4.82785
 11
70.5279
 21
4.70227
  0
LINE
  8
0
 10
70.5279
 20
4.70227
 11
70.5239
 21
4.57669
  0
LINE
  8
0
 10
70.5239
 20
4.57669
 11
70.5121
 21
4.45161
  0
LINE
  8
0
 10
70.5121
 20
4.45161
 11
70.4924
 21
4.32751
  0
LINE
  8
0
 10
70.4924
 20
4.32751
 11
70.465
 21
4.2049
  0
LINE
  8
0
 10
70.465
 20
4.2049
 11
70.43
 21
4.08424
  0
LINE
  8
0
 10
70.43
 20
4.08424
 11
70.3874
 21
3.96602
  0
LINE
  8
0
 10
70.3874
 20
3.96602
 11
70.3375
 21
3.85072
  0
LINE
  8
0
 10
70.3375
 20
3.85072
 11
70.2805
 21
3.73877
  0
LINE
  8
0
 10
70.2805
 20
3.73877
 11
70.2165
 21
3.63062
  0
LINE
  8
0
 10
70.2165
 20
3.63062
 11
70.1459
 21
3.5267
  0
LINE
  8
0
 10
70.1459
 20
3.5267
 11
70.0689
 21
3.42743
  0
LINE
  8
0
 10
70.0689
 20
3.42743
 11
69.9858
 21
3.33318
  0
LINE
  8
0
 10
69.9858
 20
3.33318
 11
69.897
 21
3.24434
  0
LINE
  8
0
 10
69.897
 20
3.24434
 11
69.8027
 21
3.16125
  0
LINE
  8
0
 10
69.8027
 20
3.16125
 11
69.7034
 21
3.08424
  0
LINE
  8
0
 10
69.7034
 20
3.08424
 11
69.5995
 21
3.01363
  0
LINE
  8
0
 10
69.5995
 20
3.01363
 11
69.4914
 21
2.94966
  0
LINE
  8
0
 10
69.4914
 20
2.94966
 11
69.3794
 21
2.89262
  0
LINE
  8
0
 10
69.3794
 20
2.89262
 11
69.2641
 21
2.84273
  0
LINE
  8
0
 10
69.2641
 20
2.84273
 11
69.1459
 21
2.80016
  0
LINE
  8
0
 10
69.1459
 20
2.80016
 11
69.0252
 21
2.76511
  0
LINE
  8
0
 10
69.0252
 20
2.76511
 11
68.9026
 21
2.7377
  0
LINE
  8
0
 10
68.9026
 20
2.7377
 11
68.7785
 21
2.71805
  0
LINE
  8
0
 10
68.7785
 20
2.71805
 11
68.6534
 21
2.70622
  0
LINE
  8
0
 10
68.6534
 20
2.70622
 11
68.5279
 21
2.70227
  0
LINE
  8
0
 10
68.5279
 20
2.70227
 11
68.4023
 21
2.70622
  0
ENDSEC
  0
SECTION
  2
OBJECTS
  0
DICTIONARY
  0
ENDSEC
  0
EOF
