  0
SECTION
  2
BLOCKS
  0
ENDSEC
  0
SECTION
  2
ENTITIES
  0
LINE
  8
0
 10
0
 20
230.826
 11
-75
 21
0
  0
LINE
  8
0
 10
-75
 20
0
 11
75
 21
0
  0
LINE
  8
0
 10
75
 20
0
 11
0
 21
230.826
  0
LINE
  8
0
 10
-0.12558
 20
212.83
 11
-0.250656
 21
212.842
  0
LINE
  8
0
 10
-0.250656
 20
212.842
 11
-0.374756
 21
212.862
  0
LINE
  8
0
 10
-0.374756
 20
212.862
 11
-0.497375
 21
212.889
  0
LINE
  8
0
 10
-0.497375
 20
212.889
 11
-0.618027
 21
212.924
  0
LINE
  8
0
 10
-0.618027
 20
212.924
 11
-0.736237
 21
212.967
  0
LINE
  8
0
 10
-0.736237
 20
212.967
 11
-0.851547
 21
213.017
  0
LINE
  8
0
 10
-0.851547
 20
213.017
 11
-0.963501
 21
213.074
  0
LINE
  8
0
 10
-0.963501
 20
213.074
 11
-1.07164
 21
213.138
  0
LINE
  8
0
 10
-1.07164
 20
213.138
 11
-1.17557
 21
213.208
  0
LINE
  8
0
 10
-1.17557
 20
213.208
 11
-1.27484
 21
213.285
  0
LINE
  8
0
 10
-1.27484
 20
213.285
 11
-1.36908
 21
213.368
  0
LINE
  8
0
 10
-1.36908
 20
213.368
 11
-1.45793
 21
213.457
  0
LINE
  8
0
 10
-1.45793
 20
213.457
 11
-1.54102
 21
213.551
  0
LINE
  8
0
 10
-1.54102
 20
213.551
 11
-1.61803
 21
213.651
  0
LINE
  8
0
 10
-1.61803
 20
213.651
 11
-1.68864
 21
213.755
  0
LINE
  8
0
 10
-1.68864
 20
213.755
 11
-1.75261
 21
213.863
  0
LINE
  8
0
 10
-1.75261
 20
213.863
 11
-1.80965
 21
213.975
  0
LINE
  8
0
 10
-1.80965
 20
213.975
 11
-1.85954
 21
214.09
  0
LINE
  8
0
 10
-1.85954
 20
214.09
 11
-1.9021
 21
214.208
  0
LINE
  8
0
 10
-1.9021
 20
214.208
 11
-1.93716
 21
214.329
  0
LINE
  8
0
 10
-1.93716
 20
214.329
 11
-1.96457
 21
214.451
  0
LINE
  8
0
 10
-1.96457
 20
214.451
 11
-1.98422
 21
214.576
  0
LINE
  8
0
 10
-1.98422
 20
214.576
 11
-1.99605
 21
214.701
  0
LINE
  8
0
 10
-1.99605
 20
214.701
 11
-2
 21
214.826
  0
LINE
  8
0
 10
-2
 20
214.826
 11
-1.99605
 21
214.952
  0
LINE
  8
0
 10
-1.99605
 20
214.952
 11
-1.98422
 21
215.077
  0
LINE
  8
0
 10
-1.98422
 20
215.077
 11
-1.96457
 21
215.201
  0
LINE
  8
0
 10
-1.96457
 20
215.201
 11
-1.93716
 21
215.324
  0
LINE
  8
0
 10
-1.93716
 20
215.324
 11
-1.9021
 21
215.444
  0
LINE
  8
0
 10
-1.9021
 20
215.444
 11
-1.85954
 21
215.562
  0
LINE
  8
0
 10
-1.85954
 20
215.562
 11
-1.80965
 21
215.678
  0
LINE
  8
0
 10
-1.80965
 20
215.678
 11
-1.75261
 21
215.79
  0
LINE
  8
0
 10
-1.75261
 20
215.79
 11
-1.68864
 21
215.898
  0
LINE
  8
0
 10
-1.68864
 20
215.898
 11
-1.61803
 21
216.002
  0
LINE
  8
0
 10
-1.61803
 20
216.002
 11
-1.54102
 21
216.101
  0
LINE
  8
0
 10
-1.54102
 20
216.101
 11
-1.45793
 21
216.195
  0
LINE
  8
0
 10
-1.45793
 20
216.195
 11
-1.36908
 21
216.284
  0
LINE
  8
0
 10
-1.36908
 20
216.284
 11
-1.27484
 21
216.367
  0
LINE
  8
0
 10
-1.27484
 20
216.367
 11
-1.17557
 21
216.444
  0
LINE
  8
0
 10
-1.17557
 20
216.444
 11
-1.07164
 21
216.515
  0
LINE
  8
0
 10
-1.07164
 20
216.515
 11
-0.963501
 21
216.579
  0
LINE
  8
0
 10
-0.963501
 20
216.579
 11
-0.851547
 21
216.636
  0
LINE
  8
0
 10
-0.851547
 20
216.636
 11
-0.736237
 21
216.686
  0
LINE
  8
0
 10
-0.736237
 20
216.686
 11
-0.618027
 21
216.728
  0
LINE
  8
0
 10
-0.618027
 20
216.728
 11
-0.497375
 21
216.763
  0
LINE
  8
0
 10
-0.497375
 20
216.763
 11
-0.374756
 21
216.791
  0
LINE
  8
0
 10
-0.374756
 20
216.791
 11
-0.250656
 21
216.81
  0
LINE
  8
0
 10
-0.250656
 20
216.81
 11
-0.12558
 21
216.822
  0
LINE
  8
0
 10
-0.12558
 20
216.822
 11
0
 21
216.826
  0
LINE
  8
0
 10
0
 20
216.826
 11
0.12558
 21
216.822
  0
LINE
  8
0
 10
0.12558
 20
216.822
 11
0.250656
 21
216.81
  0
LINE
  8
0
 10
0.250656
 20
216.81
 11
0.374756
 21
216.791
  0
LINE
  8
0
 10
0.374756
 20
216.791
 11
0.497375
 21
216.763
  0
LINE
  8
0
 10
0.497375
 20
216.763
 11
0.618027
 21
216.728
  0
LINE
  8
0
 10
0.618027
 20
216.728
 11
0.736237
 21
216.686
  0
LINE
  8
0
 10
0.736237
 20
216.686
 11
0.851547
 21
216.636
  0
LINE
  8
0
 10
0.851547
 20
216.636
 11
0.963501
 21
216.579
  0
LINE
  8
0
 10
0.963501
 20
216.579
 11
1.07164
 21
216.515
  0
LINE
  8
0
 10
1.07164
 20
216.515
 11
1.17557
 21
216.444
  0
LINE
  8
0
 10
1.17557
 20
216.444
 11
1.27484
 21
216.367
  0
LINE
  8
0
 10
1.27484
 20
216.367
 11
1.36908
 21
216.284
  0
LINE
  8
0
 10
1.36908
 20
216.284
 11
1.45793
 21
216.195
  0
LINE
  8
0
 10
1.45793
 20
216.195
 11
1.54102
 21
216.101
  0
LINE
  8
0
 10
1.54102
 20
216.101
 11
1.61803
 21
216.002
  0
LINE
  8
0
 10
1.61803
 20
216.002
 11
1.68864
 21
215.898
  0
LINE
  8
0
 10
1.68864
 20
215.898
 11
1.75261
 21
215.79
  0
LINE
  8
0
 10
1.75261
 20
215.79
 11
1.80965
 21
215.678
  0
LINE
  8
0
 10
1.80965
 20
215.678
 11
1.85954
 21
215.562
  0
LINE
  8
0
 10
1.85954
 20
215.562
 11
1.9021
 21
215.444
  0
LINE
  8
0
 10
1.9021
 20
215.444
 11
1.93716
 21
215.324
  0
LINE
  8
0
 10
1.93716
 20
215.324
 11
1.96457
 21
215.201
  0
LINE
  8
0
 10
1.96457
 20
215.201
 11
1.98422
 21
215.077
  0
LINE
  8
0
 10
1.98422
 20
215.077
 11
1.99605
 21
214.952
  0
LINE
  8
0
 10
1.99605
 20
214.952
 11
2
 21
214.826
  0
LINE
  8
0
 10
2
 20
214.826
 11
1.99605
 21
214.701
  0
LINE
  8
0
 10
1.99605
 20
214.701
 11
1.98422
 21
214.576
  0
LINE
  8
0
 10
1.98422
 20
214.576
 11
1.96457
 21
214.451
  0
LINE
  8
0
 10
1.96457
 20
214.451
 11
1.93716
 21
214.329
  0
LINE
  8
0
 10
1.93716
 20
214.329
 11
1.9021
 21
214.208
  0
LINE
  8
0
 10
1.9021
 20
214.208
 11
1.85954
 21
214.09
  0
LINE
  8
0
 10
1.85954
 20
214.09
 11
1.80965
 21
213.975
  0
LINE
  8
0
 10
1.80965
 20
213.975
 11
1.75261
 21
213.863
  0
LINE
  8
0
 10
1.75261
 20
213.863
 11
1.68864
 21
213.755
  0
LINE
  8
0
 10
1.68864
 20
213.755
 11
1.61803
 21
213.651
  0
LINE
  8
0
 10
1.61803
 20
213.651
 11
1.54102
 21
213.551
  0
LINE
  8
0
 10
1.54102
 20
213.551
 11
1.45793
 21
213.457
  0
LINE
  8
0
 10
1.45793
 20
213.457
 11
1.36908
 21
213.368
  0
LINE
  8
0
 10
1.36908
 20
213.368
 11
1.27484
 21
213.285
  0
LINE
  8
0
 10
1.27484
 20
213.285
 11
1.17557
 21
213.208
  0
LINE
  8
0
 10
1.17557
 20
213.208
 11
1.07164
 21
213.138
  0
LINE
  8
0
 10
1.07164
 20
213.138
 11
0.963501
 21
213.074
  0
LINE
  8
0
 10
0.963501
 20
213.074
 11
0.851547
 21
213.017
  0
LINE
  8
0
 10
0.851547
 20
213.017
 11
0.736237
 21
212.967
  0
LINE
  8
0
 10
0.736237
 20
212.967
 11
0.618027
 21
212.924
  0
LINE
  8
0
 10
0.618027
 20
212.924
 11
0.497375
 21
212.889
  0
LINE
  8
0
 10
0.497375
 20
212.889
 11
0.374756
 21
212.862
  0
LINE
  8
0
 10
0.374756
 20
212.862
 11
0.250656
 21
212.842
  0
LINE
  8
0
 10
0.250656
 20
212.842
 11
0.12558
 21
212.83
  0
LINE
  8
0
 10
0.12558
 20
212.83
 11
0
 21
212.826
  0
LINE
  8
0
 10
0
 20
212.826
 11
-0.12558
 21
212.83
  0
LINE
  8
0
 10
-1.90735
 20
168.142
 11
-5.10025
 21
168.501
  0
LINE
  8
0
 10
-5.10025
 20
168.501
 11
-7.4756
 21
168.986
  0
LINE
  8
0
 10
-7.4756
 20
168.986
 11
-5.52151
 21
175
  0
LINE
  8
0
 10
-5.52151
 20
175
 11
-0.238037
 21
175
  0
LINE
  8
0
 10
-0.238037
 20
175
 11
-0.304413
 21
176.19
  0
LINE
  8
0
 10
-0.304413
 20
176.19
 11
-0.582886
 21
177.2
  0
LINE
  8
0
 10
-0.582886
 20
177.2
 11
-1.07269
 21
178.032
  0
LINE
  8
0
 10
-1.07269
 20
178.032
 11
-1.7746
 21
178.683
  0
LINE
  8
0
 10
-1.7746
 20
178.683
 11
-2.68936
 21
179.156
  0
LINE
  8
0
 10
-2.68936
 20
179.156
 11
-3.81546
 21
179.449
  0
LINE
  8
0
 10
-3.81546
 20
179.449
 11
-4.06908
 21
179.47
  0
LINE
  8
0
 10
-4.06908
 20
179.47
 11
-3.34119
 21
181.71
  0
LINE
  8
0
 10
-3.34119
 20
181.71
 11
-1.17874
 21
181.905
  0
LINE
  8
0
 10
-1.17874
 20
181.905
 11
1.90735
 21
181.858
  0
LINE
  8
0
 10
1.90735
 20
181.858
 11
3.34579
 21
181.696
  0
LINE
  8
0
 10
3.34579
 20
181.696
 11
5.52151
 21
175
  0
LINE
  8
0
 10
5.52151
 20
175
 11
0.238037
 21
175
  0
LINE
  8
0
 10
0.238037
 20
175
 11
0.304413
 21
173.81
  0
LINE
  8
0
 10
0.304413
 20
173.81
 11
0.582886
 21
172.8
  0
LINE
  8
0
 10
0.582886
 20
172.8
 11
1.07269
 21
171.968
  0
LINE
  8
0
 10
1.07269
 20
171.968
 11
1.7746
 21
171.317
  0
LINE
  8
0
 10
1.7746
 20
171.317
 11
2.68936
 21
170.844
  0
LINE
  8
0
 10
2.68936
 20
170.844
 11
3.81546
 21
170.551
  0
LINE
  8
0
 10
3.81546
 20
170.551
 11
5.15289
 21
170.438
  0
LINE
  8
0
 10
5.15289
 20
170.438
 11
6.70319
 21
170.505
  0
LINE
  8
0
 10
6.70319
 20
170.505
 11
6.97002
 21
170.542
  0
LINE
  8
0
 10
6.97002
 20
170.542
 11
7.4463
 21
169.076
  0
LINE
  8
0
 10
7.4463
 20
169.076
 11
7.0343
 21
168.943
  0
LINE
  8
0
 10
7.0343
 20
168.943
 11
4.15955
 21
168.363
  0
LINE
  8
0
 10
4.15955
 20
168.363
 11
1.17874
 21
168.095
  0
LINE
  8
0
 10
1.17874
 20
168.095
 11
-1.90735
 21
168.142
  0
LINE
  8
0
 10
-9.58301
 20
162.5
 11
-8.59155
 21
165.551
  0
LINE
  8
0
 10
-8.59155
 20
165.551
 11
-6.06918
 21
164.426
  0
LINE
  8
0
 10
-6.06918
 20
164.426
 11
-2.34604
 21
162.5
  0
LINE
  8
0
 10
-2.34604
 20
162.5
 11
-9.58301
 21
162.5
  0
LINE
  8
0
 10
9.68552
 20
158.961
 11
6.06918
 21
160.574
  0
LINE
  8
0
 10
6.06918
 20
160.574
 11
2.34604
 21
162.5
  0
LINE
  8
0
 10
2.34604
 20
162.5
 11
9.58301
 21
162.5
  0
LINE
  8
0
 10
9.58301
 20
162.5
 11
10.8762
 21
158.52
  0
LINE
  8
0
 10
10.8762
 20
158.52
 11
9.68552
 21
158.961
  0
LINE
  8
0
 10
-10.4209
 20
159.921
 11
-9.97772
 21
160.066
  0
LINE
  8
0
 10
-9.97772
 20
160.066
 11
-10.4687
 21
159.774
  0
LINE
  8
0
 10
-10.4687
 20
159.774
 11
-10.4209
 21
159.921
  0
LINE
  8
0
 10
-1.90735
 20
143.142
 11
-5.10025
 21
143.501
  0
LINE
  8
0
 10
-5.10025
 20
143.501
 11
-8.39844
 21
144.174
  0
LINE
  8
0
 10
-8.39844
 20
144.174
 11
-11.8034
 21
145.161
  0
LINE
  8
0
 10
-11.8034
 20
145.161
 11
-14.8503
 21
146.289
  0
LINE
  8
0
 10
-14.8503
 20
146.289
 11
-13.6445
 21
150
  0
LINE
  8
0
 10
-13.6445
 20
150
 11
-0.238037
 21
150
  0
LINE
  8
0
 10
-0.238037
 20
150
 11
-0.304413
 21
151.19
  0
LINE
  8
0
 10
-0.304413
 20
151.19
 11
-0.582886
 21
152.2
  0
LINE
  8
0
 10
-0.582886
 20
152.2
 11
-1.07269
 21
153.032
  0
LINE
  8
0
 10
-1.07269
 20
153.032
 11
-1.7746
 21
153.683
  0
LINE
  8
0
 10
-1.7746
 20
153.683
 11
-2.68936
 21
154.156
  0
LINE
  8
0
 10
-2.68936
 20
154.156
 11
-3.81546
 21
154.449
  0
LINE
  8
0
 10
-3.81546
 20
154.449
 11
-5.15289
 21
154.562
  0
LINE
  8
0
 10
-5.15289
 20
154.562
 11
-6.70319
 21
154.495
  0
LINE
  8
0
 10
-6.70319
 20
154.495
 11
-8.46481
 21
154.25
  0
LINE
  8
0
 10
-8.46481
 20
154.25
 11
-10.4393
 21
153.824
  0
LINE
  8
0
 10
-10.4393
 20
153.824
 11
-12.5961
 21
153.227
  0
LINE
  8
0
 10
-12.5961
 20
153.227
 11
-12.341
 21
154.012
  0
LINE
  8
0
 10
-12.341
 20
154.012
 11
-9.80301
 21
155.163
  0
LINE
  8
0
 10
-9.80301
 20
155.163
 11
-7.0343
 21
156.057
  0
LINE
  8
0
 10
-7.0343
 20
156.057
 11
-4.15955
 21
156.637
  0
LINE
  8
0
 10
-4.15955
 20
156.637
 11
-1.17874
 21
156.905
  0
LINE
  8
0
 10
-1.17874
 20
156.905
 11
1.90735
 21
156.858
  0
LINE
  8
0
 10
1.90735
 20
156.858
 11
5.10025
 21
156.499
  0
LINE
  8
0
 10
5.10025
 20
156.499
 11
8.39844
 21
155.826
  0
LINE
  8
0
 10
8.39844
 20
155.826
 11
11.8034
 21
154.839
  0
LINE
  8
0
 10
11.8034
 20
154.839
 11
12.1089
 21
154.726
  0
LINE
  8
0
 10
12.1089
 20
154.726
 11
13.6445
 21
150
  0
LINE
  8
0
 10
13.6445
 20
150
 11
0.238037
 21
150
  0
LINE
  8
0
 10
0.238037
 20
150
 11
0.304413
 21
148.81
  0
LINE
  8
0
 10
0.304413
 20
148.81
 11
0.582886
 21
147.8
  0
LINE
  8
0
 10
0.582886
 20
147.8
 11
1.07269
 21
146.968
  0
LINE
  8
0
 10
1.07269
 20
146.968
 11
1.7746
 21
146.317
  0
LINE
  8
0
 10
1.7746
 20
146.317
 11
2.68936
 21
145.844
  0
LINE
  8
0
 10
2.68936
 20
145.844
 11
3.81546
 21
145.551
  0
LINE
  8
0
 10
3.81546
 20
145.551
 11
5.15289
 21
145.438
  0
LINE
  8
0
 10
5.15289
 20
145.438
 11
6.70319
 21
145.505
  0
LINE
  8
0
 10
6.70319
 20
145.505
 11
8.46481
 21
145.75
  0
LINE
  8
0
 10
8.46481
 20
145.75
 11
10.4393
 21
146.176
  0
LINE
  8
0
 10
10.4393
 20
146.176
 11
12.6244
 21
146.781
  0
LINE
  8
0
 10
12.6244
 20
146.781
 11
14.4917
 21
147.393
  0
LINE
  8
0
 10
14.4917
 20
147.393
 11
14.5304
 21
147.274
  0
LINE
  8
0
 10
14.5304
 20
147.274
 11
12.4657
 21
146.045
  0
LINE
  8
0
 10
12.4657
 20
146.045
 11
9.80301
 21
144.837
  0
LINE
  8
0
 10
9.80301
 20
144.837
 11
7.0343
 21
143.943
  0
LINE
  8
0
 10
7.0343
 20
143.943
 11
4.15955
 21
143.363
  0
LINE
  8
0
 10
4.15955
 20
143.363
 11
1.17874
 21
143.095
  0
LINE
  8
0
 10
1.17874
 20
143.095
 11
-1.90735
 21
143.142
  0
LINE
  8
0
 10
-17.706
 20
137.5
 11
-15.8809
 21
143.117
  0
LINE
  8
0
 10
-15.8809
 20
143.117
 11
-13.1966
 21
142.339
  0
LINE
  8
0
 10
-13.1966
 20
142.339
 11
-9.68552
 21
141.039
  0
LINE
  8
0
 10
-9.68552
 20
141.039
 11
-6.06918
 21
139.426
  0
LINE
  8
0
 10
-6.06918
 20
139.426
 11
-2.34604
 21
137.5
  0
LINE
  8
0
 10
-2.34604
 20
137.5
 11
-17.706
 21
137.5
  0
LINE
  8
0
 10
12.5343
 20
141.455
 11
15.197
 21
142.663
  0
LINE
  8
0
 10
15.197
 20
142.663
 11
15.9495
 21
142.906
  0
LINE
  8
0
 10
15.9495
 20
142.906
 11
16.339
 21
141.707
  0
LINE
  8
0
 10
16.339
 20
141.707
 11
14.5607
 21
141.324
  0
LINE
  8
0
 10
14.5607
 20
141.324
 11
12.3756
 21
140.719
  0
LINE
  8
0
 10
12.3756
 20
140.719
 11
9.97772
 21
139.934
  0
LINE
  8
0
 10
9.97772
 20
139.934
 11
12.5343
 21
141.455
  0
LINE
  8
0
 10
16.6016
 20
131.674
 11
13.1966
 21
132.661
  0
LINE
  8
0
 10
13.1966
 20
132.661
 11
9.68552
 21
133.961
  0
LINE
  8
0
 10
9.68552
 20
133.961
 11
6.06918
 21
135.574
  0
LINE
  8
0
 10
6.06918
 20
135.574
 11
2.34604
 21
137.5
  0
LINE
  8
0
 10
2.34604
 20
137.5
 11
17.706
 21
137.5
  0
LINE
  8
0
 10
17.706
 20
137.5
 11
19.8117
 21
131.019
  0
LINE
  8
0
 10
19.8117
 20
131.019
 11
16.6016
 21
131.674
  0
LINE
  8
0
 10
-19.1789
 20
132.967
 11
-18.2968
 21
133.005
  0
LINE
  8
0
 10
-18.2968
 20
133.005
 11
-16.5352
 21
133.25
  0
LINE
  8
0
 10
-16.5352
 20
133.25
 11
-14.5607
 21
133.676
  0
LINE
  8
0
 10
-14.5607
 20
133.676
 11
-12.3756
 21
134.281
  0
LINE
  8
0
 10
-12.3756
 20
134.281
 11
-9.97772
 21
135.066
  0
LINE
  8
0
 10
-9.97772
 20
135.066
 11
-12.5343
 21
133.545
  0
LINE
  8
0
 10
-12.5343
 20
133.545
 11
-15.197
 21
132.337
  0
LINE
  8
0
 10
-15.197
 20
132.337
 11
-17.9657
 21
131.443
  0
LINE
  8
0
 10
-17.9657
 20
131.443
 11
-19.7938
 21
131.074
  0
LINE
  8
0
 10
-19.7938
 20
131.074
 11
-19.1789
 21
132.967
  0
LINE
  8
0
 10
-1.90735
 20
118.142
 11
-5.10025
 21
118.501
  0
LINE
  8
0
 10
-5.10025
 20
118.501
 11
-8.39844
 21
119.174
  0
LINE
  8
0
 10
-8.39844
 20
119.174
 11
-11.8034
 21
120.161
  0
LINE
  8
0
 10
-11.8034
 20
120.161
 11
-15.3145
 21
121.461
  0
LINE
  8
0
 10
-15.3145
 20
121.461
 11
-18.9308
 21
123.074
  0
LINE
  8
0
 10
-18.9308
 20
123.074
 11
-21.8951
 21
124.607
  0
LINE
  8
0
 10
-21.8951
 20
124.607
 11
-21.7675
 21
125
  0
LINE
  8
0
 10
-21.7675
 20
125
 11
-0.238037
 21
125
  0
LINE
  8
0
 10
-0.238037
 20
125
 11
-0.304413
 21
126.19
  0
LINE
  8
0
 10
-0.304413
 20
126.19
 11
-0.582886
 21
127.2
  0
LINE
  8
0
 10
-0.582886
 20
127.2
 11
-1.07269
 21
128.032
  0
LINE
  8
0
 10
-1.07269
 20
128.032
 11
-1.7746
 21
128.683
  0
LINE
  8
0
 10
-1.7746
 20
128.683
 11
-2.68936
 21
129.156
  0
LINE
  8
0
 10
-2.68936
 20
129.156
 11
-3.81546
 21
129.449
  0
LINE
  8
0
 10
-3.81546
 20
129.449
 11
-5.15289
 21
129.562
  0
LINE
  8
0
 10
-5.15289
 20
129.562
 11
-6.70319
 21
129.495
  0
LINE
  8
0
 10
-6.70319
 20
129.495
 11
-8.46481
 21
129.25
  0
LINE
  8
0
 10
-8.46481
 20
129.25
 11
-10.4393
 21
128.824
  0
LINE
  8
0
 10
-10.4393
 20
128.824
 11
-12.6244
 21
128.219
  0
LINE
  8
0
 10
-12.6244
 20
128.219
 11
-15.0223
 21
127.434
  0
LINE
  8
0
 10
-15.0223
 20
127.434
 11
-12.4657
 21
128.955
  0
LINE
  8
0
 10
-12.4657
 20
128.955
 11
-9.80301
 21
130.163
  0
LINE
  8
0
 10
-9.80301
 20
130.163
 11
-7.0343
 21
131.057
  0
LINE
  8
0
 10
-7.0343
 20
131.057
 11
-4.15955
 21
131.637
  0
LINE
  8
0
 10
-4.15955
 20
131.637
 11
-1.17874
 21
131.905
  0
LINE
  8
0
 10
-1.17874
 20
131.905
 11
1.90735
 21
131.858
  0
LINE
  8
0
 10
1.90735
 20
131.858
 11
5.10025
 21
131.499
  0
LINE
  8
0
 10
5.10025
 20
131.499
 11
8.39844
 21
130.826
  0
LINE
  8
0
 10
8.39844
 20
130.826
 11
11.8034
 21
129.839
  0
LINE
  8
0
 10
11.8034
 20
129.839
 11
15.3145
 21
128.539
  0
LINE
  8
0
 10
15.3145
 20
128.539
 11
18.9308
 21
126.926
  0
LINE
  8
0
 10
18.9308
 20
126.926
 11
21.5883
 21
125.551
  0
LINE
  8
0
 10
21.5883
 20
125.551
 11
21.7675
 21
125
  0
LINE
  8
0
 10
21.7675
 20
125
 11
0.238037
 21
125
  0
LINE
  8
0
 10
0.238037
 20
125
 11
0.304413
 21
123.81
  0
LINE
  8
0
 10
0.304413
 20
123.81
 11
0.582886
 21
122.8
  0
LINE
  8
0
 10
0.582886
 20
122.8
 11
1.07269
 21
121.968
  0
LINE
  8
0
 10
1.07269
 20
121.968
 11
1.7746
 21
121.317
  0
LINE
  8
0
 10
1.7746
 20
121.317
 11
2.68936
 21
120.844
  0
LINE
  8
0
 10
2.68936
 20
120.844
 11
3.81546
 21
120.551
  0
LINE
  8
0
 10
3.81546
 20
120.551
 11
5.15289
 21
120.438
  0
LINE
  8
0
 10
5.15289
 20
120.438
 11
6.70319
 21
120.505
  0
LINE
  8
0
 10
6.70319
 20
120.505
 11
8.46481
 21
120.75
  0
LINE
  8
0
 10
8.46481
 20
120.75
 11
10.4393
 21
121.176
  0
LINE
  8
0
 10
10.4393
 20
121.176
 11
12.6244
 21
121.781
  0
LINE
  8
0
 10
12.6244
 20
121.781
 11
15.0223
 21
122.566
  0
LINE
  8
0
 10
15.0223
 20
122.566
 11
12.4657
 21
121.045
  0
LINE
  8
0
 10
12.4657
 20
121.045
 11
9.80301
 21
119.837
  0
LINE
  8
0
 10
9.80301
 20
119.837
 11
7.0343
 21
118.943
  0
LINE
  8
0
 10
7.0343
 20
118.943
 11
4.15955
 21
118.363
  0
LINE
  8
0
 10
4.15955
 20
118.363
 11
1.17874
 21
118.095
  0
LINE
  8
0
 10
1.17874
 20
118.095
 11
-1.90735
 21
118.142
  0
LINE
  8
0
 10
23.0927
 20
105.642
 11
19.8997
 21
106.001
  0
LINE
  8
0
 10
19.8997
 20
106.001
 11
16.6016
 21
106.674
  0
LINE
  8
0
 10
16.6016
 20
106.674
 11
13.1966
 21
107.661
  0
LINE
  8
0
 10
13.1966
 20
107.661
 11
9.68552
 21
108.961
  0
LINE
  8
0
 10
9.68552
 20
108.961
 11
6.06918
 21
110.574
  0
LINE
  8
0
 10
6.06918
 20
110.574
 11
2.34604
 21
112.5
  0
LINE
  8
0
 10
2.34604
 20
112.5
 11
24.762
 21
112.5
  0
LINE
  8
0
 10
24.762
 20
112.5
 11
24.6956
 21
113.69
  0
LINE
  8
0
 10
24.6956
 20
113.69
 11
24.4171
 21
114.7
  0
LINE
  8
0
 10
24.4171
 20
114.7
 11
23.9273
 21
115.532
  0
LINE
  8
0
 10
23.9273
 20
115.532
 11
23.2254
 21
116.183
  0
LINE
  8
0
 10
23.2254
 20
116.183
 11
22.3106
 21
116.656
  0
LINE
  8
0
 10
22.3106
 20
116.656
 11
21.1845
 21
116.949
  0
LINE
  8
0
 10
21.1845
 20
116.949
 11
19.8471
 21
117.062
  0
LINE
  8
0
 10
19.8471
 20
117.062
 11
18.2968
 21
116.995
  0
LINE
  8
0
 10
18.2968
 20
116.995
 11
16.5352
 21
116.75
  0
LINE
  8
0
 10
16.5352
 20
116.75
 11
14.5607
 21
116.324
  0
LINE
  8
0
 10
14.5607
 20
116.324
 11
12.3756
 21
115.719
  0
LINE
  8
0
 10
12.3756
 20
115.719
 11
9.97772
 21
114.934
  0
LINE
  8
0
 10
9.97772
 20
114.934
 11
12.5343
 21
116.455
  0
LINE
  8
0
 10
12.5343
 20
116.455
 11
15.197
 21
117.663
  0
LINE
  8
0
 10
15.197
 20
117.663
 11
17.9657
 21
118.557
  0
LINE
  8
0
 10
17.9657
 20
118.557
 11
20.8405
 21
119.137
  0
LINE
  8
0
 10
20.8405
 20
119.137
 11
23.5922
 21
119.384
  0
LINE
  8
0
 10
23.5922
 20
119.384
 11
25.829
 21
112.5
  0
LINE
  8
0
 10
25.829
 20
112.5
 11
25.238
 21
112.5
  0
LINE
  8
0
 10
25.238
 20
112.5
 11
25.3044
 21
111.31
  0
LINE
  8
0
 10
25.3044
 20
111.31
 11
25.5829
 21
110.3
  0
LINE
  8
0
 10
25.5829
 20
110.3
 11
26.0727
 21
109.468
  0
LINE
  8
0
 10
26.0727
 20
109.468
 11
26.7746
 21
108.817
  0
LINE
  8
0
 10
26.7746
 20
108.817
 11
27.0766
 21
108.66
  0
LINE
  8
0
 10
27.0766
 20
108.66
 11
28.0187
 21
105.761
  0
LINE
  8
0
 10
28.0187
 20
105.761
 11
26.1787
 21
105.595
  0
LINE
  8
0
 10
26.1787
 20
105.595
 11
23.0927
 21
105.642
  0
LINE
  8
0
 10
-26.9073
 20
105.642
 11
-28.0167
 21
105.767
  0
LINE
  8
0
 10
-28.0167
 20
105.767
 11
-25.829
 21
112.5
  0
LINE
  8
0
 10
-25.829
 20
112.5
 11
-25.238
 21
112.5
  0
LINE
  8
0
 10
-25.238
 20
112.5
 11
-25.3044
 21
113.69
  0
LINE
  8
0
 10
-25.3044
 20
113.69
 11
-25.3677
 21
113.92
  0
LINE
  8
0
 10
-25.3677
 20
113.92
 11
-23.5982
 21
119.366
  0
LINE
  8
0
 10
-23.5982
 20
119.366
 11
-23.0927
 21
119.358
  0
LINE
  8
0
 10
-23.0927
 20
119.358
 11
-19.8997
 21
118.999
  0
LINE
  8
0
 10
-19.8997
 20
118.999
 11
-16.6016
 21
118.326
  0
LINE
  8
0
 10
-16.6016
 20
118.326
 11
-13.1966
 21
117.339
  0
LINE
  8
0
 10
-13.1966
 20
117.339
 11
-9.68552
 21
116.039
  0
LINE
  8
0
 10
-9.68552
 20
116.039
 11
-6.06918
 21
114.426
  0
LINE
  8
0
 10
-6.06918
 20
114.426
 11
-2.34604
 21
112.5
  0
LINE
  8
0
 10
-2.34604
 20
112.5
 11
-24.762
 21
112.5
  0
LINE
  8
0
 10
-24.762
 20
112.5
 11
-24.6956
 21
111.31
  0
LINE
  8
0
 10
-24.6956
 20
111.31
 11
-24.4171
 21
110.3
  0
LINE
  8
0
 10
-24.4171
 20
110.3
 11
-23.9273
 21
109.468
  0
LINE
  8
0
 10
-23.9273
 20
109.468
 11
-23.2254
 21
108.817
  0
LINE
  8
0
 10
-23.2254
 20
108.817
 11
-22.3106
 21
108.344
  0
LINE
  8
0
 10
-22.3106
 20
108.344
 11
-21.1845
 21
108.051
  0
LINE
  8
0
 10
-21.1845
 20
108.051
 11
-19.8471
 21
107.938
  0
LINE
  8
0
 10
-19.8471
 20
107.938
 11
-18.2968
 21
108.005
  0
LINE
  8
0
 10
-18.2968
 20
108.005
 11
-16.5352
 21
108.25
  0
LINE
  8
0
 10
-16.5352
 20
108.25
 11
-14.5607
 21
108.676
  0
LINE
  8
0
 10
-14.5607
 20
108.676
 11
-12.3756
 21
109.281
  0
LINE
  8
0
 10
-12.3756
 20
109.281
 11
-9.97772
 21
110.066
  0
LINE
  8
0
 10
-9.97772
 20
110.066
 11
-12.5343
 21
108.545
  0
LINE
  8
0
 10
-12.5343
 20
108.545
 11
-15.197
 21
107.337
  0
LINE
  8
0
 10
-15.197
 20
107.337
 11
-17.9657
 21
106.443
  0
LINE
  8
0
 10
-17.9657
 20
106.443
 11
-20.8405
 21
105.863
  0
LINE
  8
0
 10
-20.8405
 20
105.863
 11
-23.8213
 21
105.595
  0
LINE
  8
0
 10
-23.8213
 20
105.595
 11
-26.9073
 21
105.642
  0
LINE
  8
0
 10
-1.90735
 20
93.1419
 11
-5.10025
 21
93.5013
  0
LINE
  8
0
 10
-5.10025
 20
93.5013
 11
-8.39844
 21
94.1742
  0
LINE
  8
0
 10
-8.39844
 20
94.1742
 11
-11.8034
 21
95.1607
  0
LINE
  8
0
 10
-11.8034
 20
95.1607
 11
-15.3145
 21
96.4607
  0
LINE
  8
0
 10
-15.3145
 20
96.4607
 11
-18.9308
 21
98.0736
  0
LINE
  8
0
 10
-18.9308
 20
98.0736
 11
-22.654
 21
100
  0
LINE
  8
0
 10
-22.654
 20
100
 11
-0.238037
 21
100
  0
LINE
  8
0
 10
-0.238037
 20
100
 11
-0.304413
 21
101.19
  0
LINE
  8
0
 10
-0.304413
 20
101.19
 11
-0.582886
 21
102.2
  0
LINE
  8
0
 10
-0.582886
 20
102.2
 11
-1.07269
 21
103.032
  0
LINE
  8
0
 10
-1.07269
 20
103.032
 11
-1.7746
 21
103.683
  0
LINE
  8
0
 10
-1.7746
 20
103.683
 11
-2.68936
 21
104.156
  0
LINE
  8
0
 10
-2.68936
 20
104.156
 11
-3.81546
 21
104.449
  0
LINE
  8
0
 10
-3.81546
 20
104.449
 11
-5.15289
 21
104.562
  0
LINE
  8
0
 10
-5.15289
 20
104.562
 11
-6.70319
 21
104.495
  0
LINE
  8
0
 10
-6.70319
 20
104.495
 11
-8.46481
 21
104.25
  0
LINE
  8
0
 10
-8.46481
 20
104.25
 11
-10.4393
 21
103.824
  0
LINE
  8
0
 10
-10.4393
 20
103.824
 11
-12.6244
 21
103.219
  0
LINE
  8
0
 10
-12.6244
 20
103.219
 11
-15.0223
 21
102.434
  0
LINE
  8
0
 10
-15.0223
 20
102.434
 11
-12.4657
 21
103.955
  0
LINE
  8
0
 10
-12.4657
 20
103.955
 11
-9.80301
 21
105.163
  0
LINE
  8
0
 10
-9.80301
 20
105.163
 11
-7.0343
 21
106.057
  0
LINE
  8
0
 10
-7.0343
 20
106.057
 11
-4.15955
 21
106.637
  0
LINE
  8
0
 10
-4.15955
 20
106.637
 11
-1.17874
 21
106.905
  0
LINE
  8
0
 10
-1.17874
 20
106.905
 11
1.90735
 21
106.858
  0
LINE
  8
0
 10
1.90735
 20
106.858
 11
5.10025
 21
106.499
  0
LINE
  8
0
 10
5.10025
 20
106.499
 11
8.39844
 21
105.826
  0
LINE
  8
0
 10
8.39844
 20
105.826
 11
11.8034
 21
104.839
  0
LINE
  8
0
 10
11.8034
 20
104.839
 11
15.3145
 21
103.539
  0
LINE
  8
0
 10
15.3145
 20
103.539
 11
18.9308
 21
101.926
  0
LINE
  8
0
 10
18.9308
 20
101.926
 11
22.654
 21
100
  0
LINE
  8
0
 10
22.654
 20
100
 11
0.238037
 21
100
  0
LINE
  8
0
 10
0.238037
 20
100
 11
0.304413
 21
98.8098
  0
LINE
  8
0
 10
0.304413
 20
98.8098
 11
0.582886
 21
97.7997
  0
LINE
  8
0
 10
0.582886
 20
97.7997
 11
1.07269
 21
96.9681
  0
LINE
  8
0
 10
1.07269
 20
96.9681
 11
1.7746
 21
96.3165
  0
LINE
  8
0
 10
1.7746
 20
96.3165
 11
2.68936
 21
95.8435
  0
LINE
  8
0
 10
2.68936
 20
95.8435
 11
3.81546
 21
95.5513
  0
LINE
  8
0
 10
3.81546
 20
95.5513
 11
5.15289
 21
95.4384
  0
LINE
  8
0
 10
5.15289
 20
95.4384
 11
6.70319
 21
95.5048
  0
LINE
  8
0
 10
6.70319
 20
95.5048
 11
8.46481
 21
95.7504
  0
LINE
  8
0
 10
8.46481
 20
95.7504
 11
10.4393
 21
96.1761
  0
LINE
  8
0
 10
10.4393
 20
96.1761
 11
12.6244
 21
96.7812
  0
LINE
  8
0
 10
12.6244
 20
96.7812
 11
15.0223
 21
97.5662
  0
LINE
  8
0
 10
15.0223
 20
97.5662
 11
12.4657
 21
96.0449
  0
LINE
  8
0
 10
12.4657
 20
96.0449
 11
9.80301
 21
94.8372
  0
LINE
  8
0
 10
9.80301
 20
94.8372
 11
7.0343
 21
93.943
  0
LINE
  8
0
 10
7.0343
 20
93.943
 11
4.15955
 21
93.3632
  0
LINE
  8
0
 10
4.15955
 20
93.3632
 11
1.17874
 21
93.0954
  0
LINE
  8
0
 10
1.17874
 20
93.0954
 11
-1.90735
 21
93.1419
  0
LINE
  8
0
 10
-29.8905
 20
100
 11
-29.5243
 21
101.127
  0
LINE
  8
0
 10
-29.5243
 20
101.127
 11
-27.346
 21
100
  0
LINE
  8
0
 10
-27.346
 20
100
 11
-29.8905
 21
100
  0
LINE
  8
0
 10
27.346
 20
100
 11
29.8905
 21
100
  0
LINE
  8
0
 10
29.8905
 20
100
 11
30.4047
 21
98.4174
  0
LINE
  8
0
 10
30.4047
 20
98.4174
 11
27.346
 21
100
  0
LINE
  8
0
 10
-26.9073
 20
80.6419
 11
-30.1003
 21
81.0013
  0
LINE
  8
0
 10
-30.1003
 20
81.0013
 11
-33.3984
 21
81.6742
  0
LINE
  8
0
 10
-33.3984
 20
81.6742
 11
-35.6344
 21
82.322
  0
LINE
  8
0
 10
-35.6344
 20
82.322
 11
-33.952
 21
87.5
  0
LINE
  8
0
 10
-33.952
 20
87.5
 11
-25.238
 21
87.5
  0
LINE
  8
0
 10
-25.238
 20
87.5
 11
-25.3044
 21
88.6902
  0
LINE
  8
0
 10
-25.3044
 20
88.6902
 11
-25.5829
 21
89.7003
  0
LINE
  8
0
 10
-25.5829
 20
89.7003
 11
-26.0727
 21
90.5319
  0
LINE
  8
0
 10
-26.0727
 20
90.5319
 11
-26.7746
 21
91.1835
  0
LINE
  8
0
 10
-26.7746
 20
91.1835
 11
-27.6894
 21
91.6565
  0
LINE
  8
0
 10
-27.6894
 20
91.6565
 11
-28.8155
 21
91.9487
  0
LINE
  8
0
 10
-28.8155
 20
91.9487
 11
-30.1529
 21
92.0616
  0
LINE
  8
0
 10
-30.1529
 20
92.0616
 11
-31.7032
 21
91.9952
  0
LINE
  8
0
 10
-31.7032
 20
91.9952
 11
-32.5288
 21
91.8801
  0
LINE
  8
0
 10
-32.5288
 20
91.8801
 11
-31.9804
 21
93.5678
  0
LINE
  8
0
 10
-31.9804
 20
93.5678
 11
-29.1595
 21
94.1368
  0
LINE
  8
0
 10
-29.1595
 20
94.1368
 11
-26.1787
 21
94.4046
  0
LINE
  8
0
 10
-26.1787
 20
94.4046
 11
-23.0927
 21
94.3581
  0
LINE
  8
0
 10
-23.0927
 20
94.3581
 11
-19.8997
 21
93.9987
  0
LINE
  8
0
 10
-19.8997
 20
93.9987
 11
-16.6016
 21
93.3258
  0
LINE
  8
0
 10
-16.6016
 20
93.3258
 11
-13.1966
 21
92.3393
  0
LINE
  8
0
 10
-13.1966
 20
92.3393
 11
-9.68552
 21
91.0393
  0
LINE
  8
0
 10
-9.68552
 20
91.0393
 11
-6.06918
 21
89.4264
  0
LINE
  8
0
 10
-6.06918
 20
89.4264
 11
-2.34604
 21
87.5
  0
LINE
  8
0
 10
-2.34604
 20
87.5
 11
-24.762
 21
87.5
  0
LINE
  8
0
 10
-24.762
 20
87.5
 11
-24.6956
 21
86.3098
  0
LINE
  8
0
 10
-24.6956
 20
86.3098
 11
-24.4171
 21
85.2997
  0
LINE
  8
0
 10
-24.4171
 20
85.2997
 11
-23.9273
 21
84.4681
  0
LINE
  8
0
 10
-23.9273
 20
84.4681
 11
-23.2254
 21
83.8165
  0
LINE
  8
0
 10
-23.2254
 20
83.8165
 11
-22.3106
 21
83.3435
  0
LINE
  8
0
 10
-22.3106
 20
83.3435
 11
-21.1845
 21
83.0513
  0
LINE
  8
0
 10
-21.1845
 20
83.0513
 11
-19.8471
 21
82.9384
  0
LINE
  8
0
 10
-19.8471
 20
82.9384
 11
-18.2968
 21
83.0048
  0
LINE
  8
0
 10
-18.2968
 20
83.0048
 11
-16.5352
 21
83.2504
  0
LINE
  8
0
 10
-16.5352
 20
83.2504
 11
-14.5607
 21
83.6761
  0
LINE
  8
0
 10
-14.5607
 20
83.6761
 11
-12.3756
 21
84.2812
  0
LINE
  8
0
 10
-12.3756
 20
84.2812
 11
-9.97772
 21
85.0662
  0
LINE
  8
0
 10
-9.97772
 20
85.0662
 11
-12.5343
 21
83.5449
  0
LINE
  8
0
 10
-12.5343
 20
83.5449
 11
-15.197
 21
82.3372
  0
LINE
  8
0
 10
-15.197
 20
82.3372
 11
-17.9657
 21
81.443
  0
LINE
  8
0
 10
-17.9657
 20
81.443
 11
-20.8405
 21
80.8632
  0
LINE
  8
0
 10
-20.8405
 20
80.8632
 11
-23.8213
 21
80.5954
  0
LINE
  8
0
 10
-23.8213
 20
80.5954
 11
-26.9073
 21
80.6419
  0
LINE
  8
0
 10
23.0927
 20
80.6419
 11
19.8997
 21
81.0013
  0
LINE
  8
0
 10
19.8997
 20
81.0013
 11
16.6016
 21
81.6742
  0
LINE
  8
0
 10
16.6016
 20
81.6742
 11
13.1966
 21
82.6607
  0
LINE
  8
0
 10
13.1966
 20
82.6607
 11
9.68552
 21
83.9607
  0
LINE
  8
0
 10
9.68552
 20
83.9607
 11
6.06918
 21
85.5736
  0
LINE
  8
0
 10
6.06918
 20
85.5736
 11
2.34604
 21
87.5
  0
LINE
  8
0
 10
2.34604
 20
87.5
 11
24.762
 21
87.5
  0
LINE
  8
0
 10
24.762
 20
87.5
 11
24.6956
 21
88.6902
  0
LINE
  8
0
 10
24.6956
 20
88.6902
 11
24.4171
 21
89.7003
  0
LINE
  8
0
 10
24.4171
 20
89.7003
 11
23.9273
 21
90.5319
  0
LINE
  8
0
 10
23.9273
 20
90.5319
 11
23.2254
 21
91.1835
  0
LINE
  8
0
 10
23.2254
 20
91.1835
 11
22.3106
 21
91.6565
  0
LINE
  8
0
 10
22.3106
 20
91.6565
 11
21.1845
 21
91.9487
  0
LINE
  8
0
 10
21.1845
 20
91.9487
 11
19.8471
 21
92.0616
  0
LINE
  8
0
 10
19.8471
 20
92.0616
 11
18.2968
 21
91.9952
  0
LINE
  8
0
 10
18.2968
 20
91.9952
 11
16.5352
 21
91.7496
  0
LINE
  8
0
 10
16.5352
 20
91.7496
 11
14.5607
 21
91.3239
  0
LINE
  8
0
 10
14.5607
 20
91.3239
 11
12.3756
 21
90.7188
  0
LINE
  8
0
 10
12.3756
 20
90.7188
 11
9.97772
 21
89.9338
  0
LINE
  8
0
 10
9.97772
 20
89.9338
 11
12.5343
 21
91.4551
  0
LINE
  8
0
 10
12.5343
 20
91.4551
 11
15.197
 21
92.6628
  0
LINE
  8
0
 10
15.197
 20
92.6628
 11
17.9657
 21
93.557
  0
LINE
  8
0
 10
17.9657
 20
93.557
 11
20.8405
 21
94.1368
  0
LINE
  8
0
 10
20.8405
 20
94.1368
 11
23.8213
 21
94.4046
  0
LINE
  8
0
 10
23.8213
 20
94.4046
 11
26.9073
 21
94.3581
  0
LINE
  8
0
 10
26.9073
 20
94.3581
 11
30.1003
 21
93.9987
  0
LINE
  8
0
 10
30.1003
 20
93.9987
 11
31.964
 21
93.6185
  0
LINE
  8
0
 10
31.964
 20
93.6185
 11
33.952
 21
87.5
  0
LINE
  8
0
 10
33.952
 20
87.5
 11
25.238
 21
87.5
  0
LINE
  8
0
 10
25.238
 20
87.5
 11
25.3044
 21
86.3098
  0
LINE
  8
0
 10
25.3044
 20
86.3098
 11
25.5829
 21
85.2997
  0
LINE
  8
0
 10
25.5829
 20
85.2997
 11
26.0727
 21
84.4681
  0
LINE
  8
0
 10
26.0727
 20
84.4681
 11
26.7746
 21
83.8165
  0
LINE
  8
0
 10
26.7746
 20
83.8165
 11
27.6894
 21
83.3435
  0
LINE
  8
0
 10
27.6894
 20
83.3435
 11
28.8155
 21
83.0513
  0
LINE
  8
0
 10
28.8155
 20
83.0513
 11
30.1529
 21
82.9384
  0
LINE
  8
0
 10
30.1529
 20
82.9384
 11
31.7032
 21
83.0048
  0
LINE
  8
0
 10
31.7032
 20
83.0048
 11
33.4648
 21
83.2504
  0
LINE
  8
0
 10
33.4648
 20
83.2504
 11
35.2104
 21
83.6268
  0
LINE
  8
0
 10
35.2104
 20
83.6268
 11
35.5233
 21
82.6639
  0
LINE
  8
0
 10
35.5233
 20
82.6639
 11
34.803
 21
82.3372
  0
LINE
  8
0
 10
34.803
 20
82.3372
 11
32.0343
 21
81.443
  0
LINE
  8
0
 10
32.0343
 20
81.443
 11
29.1595
 21
80.8632
  0
LINE
  8
0
 10
29.1595
 20
80.8632
 11
26.1787
 21
80.5954
  0
LINE
  8
0
 10
26.1787
 20
80.5954
 11
23.0927
 21
80.6419
  0
LINE
  8
0
 10
-1.90735
 20
68.1419
 11
-5.10025
 21
68.5013
  0
LINE
  8
0
 10
-5.10025
 20
68.5013
 11
-8.39844
 21
69.1742
  0
LINE
  8
0
 10
-8.39844
 20
69.1742
 11
-11.8034
 21
70.1607
  0
LINE
  8
0
 10
-11.8034
 20
70.1607
 11
-15.3145
 21
71.4607
  0
LINE
  8
0
 10
-15.3145
 20
71.4607
 11
-18.9308
 21
73.0736
  0
LINE
  8
0
 10
-18.9308
 20
73.0736
 11
-22.654
 21
75
  0
LINE
  8
0
 10
-22.654
 20
75
 11
-0.238037
 21
75
  0
LINE
  8
0
 10
-0.238037
 20
75
 11
-0.304413
 21
76.1902
  0
LINE
  8
0
 10
-0.304413
 20
76.1902
 11
-0.582886
 21
77.2003
  0
LINE
  8
0
 10
-0.582886
 20
77.2003
 11
-1.07269
 21
78.0319
  0
LINE
  8
0
 10
-1.07269
 20
78.0319
 11
-1.7746
 21
78.6835
  0
LINE
  8
0
 10
-1.7746
 20
78.6835
 11
-2.68936
 21
79.1565
  0
LINE
  8
0
 10
-2.68936
 20
79.1565
 11
-3.81546
 21
79.4487
  0
LINE
  8
0
 10
-3.81546
 20
79.4487
 11
-5.15289
 21
79.5616
  0
LINE
  8
0
 10
-5.15289
 20
79.5616
 11
-6.70319
 21
79.4952
  0
LINE
  8
0
 10
-6.70319
 20
79.4952
 11
-8.46481
 21
79.2496
  0
LINE
  8
0
 10
-8.46481
 20
79.2496
 11
-10.4393
 21
78.8239
  0
LINE
  8
0
 10
-10.4393
 20
78.8239
 11
-12.6244
 21
78.2188
  0
LINE
  8
0
 10
-12.6244
 20
78.2188
 11
-15.0223
 21
77.4338
  0
LINE
  8
0
 10
-15.0223
 20
77.4338
 11
-12.4657
 21
78.9551
  0
LINE
  8
0
 10
-12.4657
 20
78.9551
 11
-9.80301
 21
80.1628
  0
LINE
  8
0
 10
-9.80301
 20
80.1628
 11
-7.0343
 21
81.057
  0
LINE
  8
0
 10
-7.0343
 20
81.057
 11
-4.15955
 21
81.6368
  0
LINE
  8
0
 10
-4.15955
 20
81.6368
 11
-1.17874
 21
81.9046
  0
LINE
  8
0
 10
-1.17874
 20
81.9046
 11
1.90735
 21
81.8581
  0
LINE
  8
0
 10
1.90735
 20
81.8581
 11
5.10025
 21
81.4987
  0
LINE
  8
0
 10
5.10025
 20
81.4987
 11
8.39844
 21
80.8258
  0
LINE
  8
0
 10
8.39844
 20
80.8258
 11
11.8034
 21
79.8393
  0
LINE
  8
0
 10
11.8034
 20
79.8393
 11
15.3145
 21
78.5393
  0
LINE
  8
0
 10
15.3145
 20
78.5393
 11
18.9308
 21
76.9264
  0
LINE
  8
0
 10
18.9308
 20
76.9264
 11
22.654
 21
75
  0
LINE
  8
0
 10
22.654
 20
75
 11
0.238037
 21
75
  0
LINE
  8
0
 10
0.238037
 20
75
 11
0.304413
 21
73.8098
  0
LINE
  8
0
 10
0.304413
 20
73.8098
 11
0.582886
 21
72.7997
  0
LINE
  8
0
 10
0.582886
 20
72.7997
 11
1.07269
 21
71.9681
  0
LINE
  8
0
 10
1.07269
 20
71.9681
 11
1.7746
 21
71.3165
  0
LINE
  8
0
 10
1.7746
 20
71.3165
 11
2.68936
 21
70.8435
  0
LINE
  8
0
 10
2.68936
 20
70.8435
 11
3.81546
 21
70.5513
  0
LINE
  8
0
 10
3.81546
 20
70.5513
 11
5.15289
 21
70.4384
  0
LINE
  8
0
 10
5.15289
 20
70.4384
 11
6.70319
 21
70.5048
  0
LINE
  8
0
 10
6.70319
 20
70.5048
 11
8.46481
 21
70.7504
  0
LINE
  8
0
 10
8.46481
 20
70.7504
 11
10.4393
 21
71.1761
  0
LINE
  8
0
 10
10.4393
 20
71.1761
 11
12.6244
 21
71.7812
  0
LINE
  8
0
 10
12.6244
 20
71.7812
 11
15.0223
 21
72.5662
  0
LINE
  8
0
 10
15.0223
 20
72.5662
 11
12.4657
 21
71.0449
  0
LINE
  8
0
 10
12.4657
 20
71.0449
 11
9.80301
 21
69.8372
  0
LINE
  8
0
 10
9.80301
 20
69.8372
 11
7.0343
 21
68.943
  0
LINE
  8
0
 10
7.0343
 20
68.943
 11
4.15955
 21
68.3632
  0
LINE
  8
0
 10
4.15955
 20
68.3632
 11
1.17874
 21
68.0954
  0
LINE
  8
0
 10
1.17874
 20
68.0954
 11
-1.90735
 21
68.1419
  0
LINE
  8
0
 10
-38.0135
 20
75
 11
-36.6296
 21
79.2591
  0
LINE
  8
0
 10
-36.6296
 20
79.2591
 11
-34.6855
 21
78.5393
  0
LINE
  8
0
 10
-34.6855
 20
78.5393
 11
-31.0692
 21
76.9264
  0
LINE
  8
0
 10
-31.0692
 20
76.9264
 11
-27.346
 21
75
  0
LINE
  8
0
 10
-27.346
 20
75
 11
-38.0135
 21
75
  0
LINE
  8
0
 10
36.859
 20
78.5532
 11
37.0068
 21
78.0981
  0
LINE
  8
0
 10
37.0068
 20
78.0981
 11
34.9777
 21
77.4338
  0
LINE
  8
0
 10
34.9777
 20
77.4338
 11
36.859
 21
78.5532
  0
LINE
  8
0
 10
38.1966
 20
70.1607
 11
34.6855
 21
71.4607
  0
LINE
  8
0
 10
34.6855
 20
71.4607
 11
31.0692
 21
73.0736
  0
LINE
  8
0
 10
31.0692
 20
73.0736
 11
27.346
 21
75
  0
LINE
  8
0
 10
27.346
 20
75
 11
38.0135
 21
75
  0
LINE
  8
0
 10
38.0135
 20
75
 11
39.7302
 21
69.7163
  0
LINE
  8
0
 10
39.7302
 20
69.7163
 11
38.1966
 21
70.1607
  0
LINE
  8
0
 10
-39.2258
 20
71.2689
 11
-37.3756
 21
71.7812
  0
LINE
  8
0
 10
-37.3756
 20
71.7812
 11
-34.9777
 21
72.5662
  0
LINE
  8
0
 10
-34.9777
 20
72.5662
 11
-37.5343
 21
71.0449
  0
LINE
  8
0
 10
-37.5343
 20
71.0449
 11
-39.6035
 21
70.1064
  0
LINE
  8
0
 10
-39.6035
 20
70.1064
 11
-39.2258
 21
71.2689
  0
LINE
  8
0
 10
-26.9073
 20
55.6419
 11
-30.1003
 21
56.0013
  0
LINE
  8
0
 10
-30.1003
 20
56.0013
 11
-33.3984
 21
56.6742
  0
LINE
  8
0
 10
-33.3984
 20
56.6742
 11
-36.8034
 21
57.6607
  0
LINE
  8
0
 10
-36.8034
 20
57.6607
 11
-40.3145
 21
58.9607
  0
LINE
  8
0
 10
-40.3145
 20
58.9607
 11
-42.8566
 21
60.0945
  0
LINE
  8
0
 10
-42.8566
 20
60.0945
 11
-42.075
 21
62.5
  0
LINE
  8
0
 10
-42.075
 20
62.5
 11
-25.238
 21
62.5
  0
LINE
  8
0
 10
-25.238
 20
62.5
 11
-25.3044
 21
63.6902
  0
LINE
  8
0
 10
-25.3044
 20
63.6902
 11
-25.5829
 21
64.7003
  0
LINE
  8
0
 10
-25.5829
 20
64.7003
 11
-26.0727
 21
65.5319
  0
LINE
  8
0
 10
-26.0727
 20
65.5319
 11
-26.7746
 21
66.1835
  0
LINE
  8
0
 10
-26.7746
 20
66.1835
 11
-27.6894
 21
66.6565
  0
LINE
  8
0
 10
-27.6894
 20
66.6565
 11
-28.8155
 21
66.9487
  0
LINE
  8
0
 10
-28.8155
 20
66.9487
 11
-30.1529
 21
67.0616
  0
LINE
  8
0
 10
-30.1529
 20
67.0616
 11
-31.7032
 21
66.9952
  0
LINE
  8
0
 10
-31.7032
 20
66.9952
 11
-33.4648
 21
66.7496
  0
LINE
  8
0
 10
-33.4648
 20
66.7496
 11
-35.4393
 21
66.3239
  0
LINE
  8
0
 10
-35.4393
 20
66.3239
 11
-37.6244
 21
65.7188
  0
LINE
  8
0
 10
-37.6244
 20
65.7188
 11
-40.0223
 21
64.9338
  0
LINE
  8
0
 10
-40.0223
 20
64.9338
 11
-37.4657
 21
66.4551
  0
LINE
  8
0
 10
-37.4657
 20
66.4551
 11
-34.803
 21
67.6628
  0
LINE
  8
0
 10
-34.803
 20
67.6628
 11
-32.0343
 21
68.557
  0
LINE
  8
0
 10
-32.0343
 20
68.557
 11
-29.1595
 21
69.1368
  0
LINE
  8
0
 10
-29.1595
 20
69.1368
 11
-26.1787
 21
69.4046
  0
LINE
  8
0
 10
-26.1787
 20
69.4046
 11
-23.0927
 21
69.3581
  0
LINE
  8
0
 10
-23.0927
 20
69.3581
 11
-19.8997
 21
68.9987
  0
LINE
  8
0
 10
-19.8997
 20
68.9987
 11
-16.6016
 21
68.3258
  0
LINE
  8
0
 10
-16.6016
 20
68.3258
 11
-13.1966
 21
67.3393
  0
LINE
  8
0
 10
-13.1966
 20
67.3393
 11
-9.68552
 21
66.0393
  0
LINE
  8
0
 10
-9.68552
 20
66.0393
 11
-6.06918
 21
64.4264
  0
LINE
  8
0
 10
-6.06918
 20
64.4264
 11
-2.34604
 21
62.5
  0
LINE
  8
0
 10
-2.34604
 20
62.5
 11
-24.762
 21
62.5
  0
LINE
  8
0
 10
-24.762
 20
62.5
 11
-24.6956
 21
61.3098
  0
LINE
  8
0
 10
-24.6956
 20
61.3098
 11
-24.4171
 21
60.2997
  0
LINE
  8
0
 10
-24.4171
 20
60.2997
 11
-23.9273
 21
59.4681
  0
LINE
  8
0
 10
-23.9273
 20
59.4681
 11
-23.2254
 21
58.8165
  0
LINE
  8
0
 10
-23.2254
 20
58.8165
 11
-22.3106
 21
58.3435
  0
LINE
  8
0
 10
-22.3106
 20
58.3435
 11
-21.1845
 21
58.0513
  0
LINE
  8
0
 10
-21.1845
 20
58.0513
 11
-19.8471
 21
57.9384
  0
LINE
  8
0
 10
-19.8471
 20
57.9384
 11
-18.2968
 21
58.0048
  0
LINE
  8
0
 10
-18.2968
 20
58.0048
 11
-16.5352
 21
58.2504
  0
LINE
  8
0
 10
-16.5352
 20
58.2504
 11
-14.5607
 21
58.6761
  0
LINE
  8
0
 10
-14.5607
 20
58.6761
 11
-12.3756
 21
59.2812
  0
LINE
  8
0
 10
-12.3756
 20
59.2812
 11
-9.97772
 21
60.0662
  0
LINE
  8
0
 10
-9.97772
 20
60.0662
 11
-12.5343
 21
58.5449
  0
LINE
  8
0
 10
-12.5343
 20
58.5449
 11
-15.197
 21
57.3372
  0
LINE
  8
0
 10
-15.197
 20
57.3372
 11
-17.9657
 21
56.443
  0
LINE
  8
0
 10
-17.9657
 20
56.443
 11
-20.8405
 21
55.8632
  0
LINE
  8
0
 10
-20.8405
 20
55.8632
 11
-23.8213
 21
55.5954
  0
LINE
  8
0
 10
-23.8213
 20
55.5954
 11
-26.9073
 21
55.6419
  0
LINE
  8
0
 10
23.0927
 20
55.6419
 11
19.8997
 21
56.0013
  0
LINE
  8
0
 10
19.8997
 20
56.0013
 11
16.6016
 21
56.6742
  0
LINE
  8
0
 10
16.6016
 20
56.6742
 11
13.1966
 21
57.6607
  0
LINE
  8
0
 10
13.1966
 20
57.6607
 11
9.68552
 21
58.9607
  0
LINE
  8
0
 10
9.68552
 20
58.9607
 11
6.06918
 21
60.5736
  0
LINE
  8
0
 10
6.06918
 20
60.5736
 11
2.34604
 21
62.5
  0
LINE
  8
0
 10
2.34604
 20
62.5
 11
24.762
 21
62.5
  0
LINE
  8
0
 10
24.762
 20
62.5
 11
24.6956
 21
63.6902
  0
LINE
  8
0
 10
24.6956
 20
63.6902
 11
24.4171
 21
64.7003
  0
LINE
  8
0
 10
24.4171
 20
64.7003
 11
23.9273
 21
65.5319
  0
LINE
  8
0
 10
23.9273
 20
65.5319
 11
23.2254
 21
66.1835
  0
LINE
  8
0
 10
23.2254
 20
66.1835
 11
22.3106
 21
66.6565
  0
LINE
  8
0
 10
22.3106
 20
66.6565
 11
21.1845
 21
66.9487
  0
LINE
  8
0
 10
21.1845
 20
66.9487
 11
19.8471
 21
67.0616
  0
LINE
  8
0
 10
19.8471
 20
67.0616
 11
18.2968
 21
66.9952
  0
LINE
  8
0
 10
18.2968
 20
66.9952
 11
16.5352
 21
66.7496
  0
LINE
  8
0
 10
16.5352
 20
66.7496
 11
14.5607
 21
66.3239
  0
LINE
  8
0
 10
14.5607
 20
66.3239
 11
12.3756
 21
65.7188
  0
LINE
  8
0
 10
12.3756
 20
65.7188
 11
9.97772
 21
64.9338
  0
LINE
  8
0
 10
9.97772
 20
64.9338
 11
12.5343
 21
66.4551
  0
LINE
  8
0
 10
12.5343
 20
66.4551
 11
15.197
 21
67.6628
  0
LINE
  8
0
 10
15.197
 20
67.6628
 11
17.9657
 21
68.557
  0
LINE
  8
0
 10
17.9657
 20
68.557
 11
20.8405
 21
69.1368
  0
LINE
  8
0
 10
20.8405
 20
69.1368
 11
23.8213
 21
69.4046
  0
LINE
  8
0
 10
23.8213
 20
69.4046
 11
26.9073
 21
69.3581
  0
LINE
  8
0
 10
26.9073
 20
69.3581
 11
30.1003
 21
68.9987
  0
LINE
  8
0
 10
30.1003
 20
68.9987
 11
33.3984
 21
68.3258
  0
LINE
  8
0
 10
33.3984
 20
68.3258
 11
36.8034
 21
67.3393
  0
LINE
  8
0
 10
36.8034
 20
67.3393
 11
40.3145
 21
66.0393
  0
LINE
  8
0
 10
40.3145
 20
66.0393
 11
41.0285
 21
65.7209
  0
LINE
  8
0
 10
41.0285
 20
65.7209
 11
42.075
 21
62.5
  0
LINE
  8
0
 10
42.075
 20
62.5
 11
25.238
 21
62.5
  0
LINE
  8
0
 10
25.238
 20
62.5
 11
25.3044
 21
61.3098
  0
LINE
  8
0
 10
25.3044
 20
61.3098
 11
25.5829
 21
60.2997
  0
LINE
  8
0
 10
25.5829
 20
60.2997
 11
26.0727
 21
59.4681
  0
LINE
  8
0
 10
26.0727
 20
59.4681
 11
26.7746
 21
58.8165
  0
LINE
  8
0
 10
26.7746
 20
58.8165
 11
27.6894
 21
58.3435
  0
LINE
  8
0
 10
27.6894
 20
58.3435
 11
28.8155
 21
58.0513
  0
LINE
  8
0
 10
28.8155
 20
58.0513
 11
30.1529
 21
57.9384
  0
LINE
  8
0
 10
30.1529
 20
57.9384
 11
31.7032
 21
58.0048
  0
LINE
  8
0
 10
31.7032
 20
58.0048
 11
33.4648
 21
58.2504
  0
LINE
  8
0
 10
33.4648
 20
58.2504
 11
35.4393
 21
58.6761
  0
LINE
  8
0
 10
35.4393
 20
58.6761
 11
37.6244
 21
59.2812
  0
LINE
  8
0
 10
37.6244
 20
59.2812
 11
40.0223
 21
60.0662
  0
LINE
  8
0
 10
40.0223
 20
60.0662
 11
37.4657
 21
58.5449
  0
LINE
  8
0
 10
37.4657
 20
58.5449
 11
34.803
 21
57.3372
  0
LINE
  8
0
 10
34.803
 20
57.3372
 11
32.0343
 21
56.443
  0
LINE
  8
0
 10
32.0343
 20
56.443
 11
29.1595
 21
55.8632
  0
LINE
  8
0
 10
29.1595
 20
55.8632
 11
26.1787
 21
55.5954
  0
LINE
  8
0
 10
26.1787
 20
55.5954
 11
23.0927
 21
55.6419
  0
LINE
  8
0
 10
-1.90735
 20
43.1419
 11
-5.10025
 21
43.5013
  0
LINE
  8
0
 10
-5.10025
 20
43.5013
 11
-8.39844
 21
44.1742
  0
LINE
  8
0
 10
-8.39844
 20
44.1742
 11
-11.8034
 21
45.1607
  0
LINE
  8
0
 10
-11.8034
 20
45.1607
 11
-15.3145
 21
46.4607
  0
LINE
  8
0
 10
-15.3145
 20
46.4607
 11
-18.9308
 21
48.0736
  0
LINE
  8
0
 10
-18.9308
 20
48.0736
 11
-22.654
 21
50
  0
LINE
  8
0
 10
-22.654
 20
50
 11
-0.238037
 21
50
  0
LINE
  8
0
 10
-0.238037
 20
50
 11
-0.304413
 21
51.1902
  0
LINE
  8
0
 10
-0.304413
 20
51.1902
 11
-0.582886
 21
52.2003
  0
LINE
  8
0
 10
-0.582886
 20
52.2003
 11
-1.07269
 21
53.0319
  0
LINE
  8
0
 10
-1.07269
 20
53.0319
 11
-1.7746
 21
53.6835
  0
LINE
  8
0
 10
-1.7746
 20
53.6835
 11
-2.68936
 21
54.1565
  0
LINE
  8
0
 10
-2.68936
 20
54.1565
 11
-3.81546
 21
54.4487
  0
LINE
  8
0
 10
-3.81546
 20
54.4487
 11
-5.15289
 21
54.5616
  0
LINE
  8
0
 10
-5.15289
 20
54.5616
 11
-6.70319
 21
54.4952
  0
LINE
  8
0
 10
-6.70319
 20
54.4952
 11
-8.46481
 21
54.2496
  0
LINE
  8
0
 10
-8.46481
 20
54.2496
 11
-10.4393
 21
53.8239
  0
LINE
  8
0
 10
-10.4393
 20
53.8239
 11
-12.6244
 21
53.2188
  0
LINE
  8
0
 10
-12.6244
 20
53.2188
 11
-15.0223
 21
52.4338
  0
LINE
  8
0
 10
-15.0223
 20
52.4338
 11
-12.4657
 21
53.9551
  0
LINE
  8
0
 10
-12.4657
 20
53.9551
 11
-9.80301
 21
55.1628
  0
LINE
  8
0
 10
-9.80301
 20
55.1628
 11
-7.0343
 21
56.057
  0
LINE
  8
0
 10
-7.0343
 20
56.057
 11
-4.15955
 21
56.6368
  0
LINE
  8
0
 10
-4.15955
 20
56.6368
 11
-1.17874
 21
56.9046
  0
LINE
  8
0
 10
-1.17874
 20
56.9046
 11
1.90735
 21
56.8581
  0
LINE
  8
0
 10
1.90735
 20
56.8581
 11
5.10025
 21
56.4987
  0
LINE
  8
0
 10
5.10025
 20
56.4987
 11
8.39844
 21
55.8258
  0
LINE
  8
0
 10
8.39844
 20
55.8258
 11
11.8034
 21
54.8393
  0
LINE
  8
0
 10
11.8034
 20
54.8393
 11
15.3145
 21
53.5393
  0
LINE
  8
0
 10
15.3145
 20
53.5393
 11
18.9308
 21
51.9264
  0
LINE
  8
0
 10
18.9308
 20
51.9264
 11
22.654
 21
50
  0
LINE
  8
0
 10
22.654
 20
50
 11
0.238037
 21
50
  0
LINE
  8
0
 10
0.238037
 20
50
 11
0.304413
 21
48.8098
  0
LINE
  8
0
 10
0.304413
 20
48.8098
 11
0.582886
 21
47.7997
  0
LINE
  8
0
 10
0.582886
 20
47.7997
 11
1.07269
 21
46.9681
  0
LINE
  8
0
 10
1.07269
 20
46.9681
 11
1.7746
 21
46.3165
  0
LINE
  8
0
 10
1.7746
 20
46.3165
 11
2.68936
 21
45.8435
  0
LINE
  8
0
 10
2.68936
 20
45.8435
 11
3.81546
 21
45.5513
  0
LINE
  8
0
 10
3.81546
 20
45.5513
 11
5.15289
 21
45.4384
  0
LINE
  8
0
 10
5.15289
 20
45.4384
 11
6.70319
 21
45.5048
  0
LINE
  8
0
 10
6.70319
 20
45.5048
 11
8.46481
 21
45.7504
  0
LINE
  8
0
 10
8.46481
 20
45.7504
 11
10.4393
 21
46.1761
  0
LINE
  8
0
 10
10.4393
 20
46.1761
 11
12.6244
 21
46.7812
  0
LINE
  8
0
 10
12.6244
 20
46.7812
 11
15.0223
 21
47.5662
  0
LINE
  8
0
 10
15.0223
 20
47.5662
 11
12.4657
 21
46.0449
  0
LINE
  8
0
 10
12.4657
 20
46.0449
 11
9.80301
 21
44.8372
  0
LINE
  8
0
 10
9.80301
 20
44.8372
 11
7.0343
 21
43.943
  0
LINE
  8
0
 10
7.0343
 20
43.943
 11
4.15955
 21
43.3632
  0
LINE
  8
0
 10
4.15955
 20
43.3632
 11
1.17874
 21
43.0954
  0
LINE
  8
0
 10
1.17874
 20
43.0954
 11
-1.90735
 21
43.1419
  0
LINE
  8
0
 10
-46.1365
 20
50
 11
-44.0793
 21
56.3313
  0
LINE
  8
0
 10
-44.0793
 20
56.3313
 11
-41.6016
 21
55.8258
  0
LINE
  8
0
 10
-41.6016
 20
55.8258
 11
-38.1966
 21
54.8393
  0
LINE
  8
0
 10
-38.1966
 20
54.8393
 11
-34.6855
 21
53.5393
  0
LINE
  8
0
 10
-34.6855
 20
53.5393
 11
-31.0692
 21
51.9264
  0
LINE
  8
0
 10
-31.0692
 20
51.9264
 11
-27.346
 21
50
  0
LINE
  8
0
 10
-27.346
 20
50
 11
-46.1365
 21
50
  0
LINE
  8
0
 10
37.5343
 20
53.9551
 11
40.197
 21
55.1628
  0
LINE
  8
0
 10
40.197
 20
55.1628
 11
42.9657
 21
56.057
  0
LINE
  8
0
 10
42.9657
 20
56.057
 11
44.0945
 21
56.2847
  0
LINE
  8
0
 10
44.0945
 20
56.2847
 11
44.657
 21
54.5535
  0
LINE
  8
0
 10
44.657
 20
54.5535
 11
43.2968
 21
54.4952
  0
LINE
  8
0
 10
43.2968
 20
54.4952
 11
41.5352
 21
54.2496
  0
LINE
  8
0
 10
41.5352
 20
54.2496
 11
39.5607
 21
53.8239
  0
LINE
  8
0
 10
39.5607
 20
53.8239
 11
37.3756
 21
53.2188
  0
LINE
  8
0
 10
37.3756
 20
53.2188
 11
34.9777
 21
52.4338
  0
LINE
  8
0
 10
34.9777
 20
52.4338
 11
37.5343
 21
53.9551
  0
LINE
  8
0
 10
48.0927
 20
43.1419
 11
44.8997
 21
43.5013
  0
LINE
  8
0
 10
44.8997
 20
43.5013
 11
41.6016
 21
44.1742
  0
LINE
  8
0
 10
41.6016
 20
44.1742
 11
38.1966
 21
45.1607
  0
LINE
  8
0
 10
38.1966
 20
45.1607
 11
34.6855
 21
46.4607
  0
LINE
  8
0
 10
34.6855
 20
46.4607
 11
31.0692
 21
48.0736
  0
LINE
  8
0
 10
31.0692
 20
48.0736
 11
27.346
 21
50
  0
LINE
  8
0
 10
27.346
 20
50
 11
46.1365
 21
50
  0
LINE
  8
0
 10
46.1365
 20
50
 11
48.3661
 21
43.1378
  0
LINE
  8
0
 10
48.3661
 20
43.1378
 11
48.0927
 21
43.1419
  0
LINE
  8
0
 10
-47.4616
 20
45.9216
 11
-47.3106
 21
45.8435
  0
LINE
  8
0
 10
-47.3106
 20
45.8435
 11
-46.1845
 21
45.5513
  0
LINE
  8
0
 10
-46.1845
 20
45.5513
 11
-44.8471
 21
45.4384
  0
LINE
  8
0
 10
-44.8471
 20
45.4384
 11
-43.2968
 21
45.5048
  0
LINE
  8
0
 10
-43.2968
 20
45.5048
 11
-41.5352
 21
45.7504
  0
LINE
  8
0
 10
-41.5352
 20
45.7504
 11
-39.5607
 21
46.1761
  0
LINE
  8
0
 10
-39.5607
 20
46.1761
 11
-37.3756
 21
46.7812
  0
LINE
  8
0
 10
-37.3756
 20
46.7812
 11
-34.9777
 21
47.5662
  0
LINE
  8
0
 10
-34.9777
 20
47.5662
 11
-37.5343
 21
46.0449
  0
LINE
  8
0
 10
-37.5343
 20
46.0449
 11
-40.197
 21
44.8372
  0
LINE
  8
0
 10
-40.197
 20
44.8372
 11
-42.9657
 21
43.943
  0
LINE
  8
0
 10
-42.9657
 20
43.943
 11
-45.8405
 21
43.3632
  0
LINE
  8
0
 10
-45.8405
 20
43.3632
 11
-48.3666
 21
43.1362
  0
LINE
  8
0
 10
-48.3666
 20
43.1362
 11
-47.4616
 21
45.9216
  0
LINE
  8
0
 10
-26.9073
 20
30.6419
 11
-30.1003
 21
31.0013
  0
LINE
  8
0
 10
-30.1003
 20
31.0013
 11
-33.3984
 21
31.6742
  0
LINE
  8
0
 10
-33.3984
 20
31.6742
 11
-36.8034
 21
32.6607
  0
LINE
  8
0
 10
-36.8034
 20
32.6607
 11
-40.3145
 21
33.9607
  0
LINE
  8
0
 10
-40.3145
 20
33.9607
 11
-43.9308
 21
35.5736
  0
LINE
  8
0
 10
-43.9308
 20
35.5736
 11
-47.654
 21
37.5
  0
LINE
  8
0
 10
-47.654
 20
37.5
 11
-25.238
 21
37.5
  0
LINE
  8
0
 10
-25.238
 20
37.5
 11
-25.3044
 21
38.6902
  0
LINE
  8
0
 10
-25.3044
 20
38.6902
 11
-25.5829
 21
39.7003
  0
LINE
  8
0
 10
-25.5829
 20
39.7003
 11
-26.0727
 21
40.5319
  0
LINE
  8
0
 10
-26.0727
 20
40.5319
 11
-26.7746
 21
41.1835
  0
LINE
  8
0
 10
-26.7746
 20
41.1835
 11
-27.6894
 21
41.6565
  0
LINE
  8
0
 10
-27.6894
 20
41.6565
 11
-28.8155
 21
41.9487
  0
LINE
  8
0
 10
-28.8155
 20
41.9487
 11
-30.1529
 21
42.0616
  0
LINE
  8
0
 10
-30.1529
 20
42.0616
 11
-31.7032
 21
41.9952
  0
LINE
  8
0
 10
-31.7032
 20
41.9952
 11
-33.4648
 21
41.7496
  0
LINE
  8
0
 10
-33.4648
 20
41.7496
 11
-35.4393
 21
41.3239
  0
LINE
  8
0
 10
-35.4393
 20
41.3239
 11
-37.6244
 21
40.7188
  0
LINE
  8
0
 10
-37.6244
 20
40.7188
 11
-40.0223
 21
39.9338
  0
LINE
  8
0
 10
-40.0223
 20
39.9338
 11
-37.4657
 21
41.4551
  0
LINE
  8
0
 10
-37.4657
 20
41.4551
 11
-34.803
 21
42.6628
  0
LINE
  8
0
 10
-34.803
 20
42.6628
 11
-32.0343
 21
43.557
  0
LINE
  8
0
 10
-32.0343
 20
43.557
 11
-29.1595
 21
44.1368
  0
LINE
  8
0
 10
-29.1595
 20
44.1368
 11
-26.1787
 21
44.4046
  0
LINE
  8
0
 10
-26.1787
 20
44.4046
 11
-23.0927
 21
44.3581
  0
LINE
  8
0
 10
-23.0927
 20
44.3581
 11
-19.8997
 21
43.9987
  0
LINE
  8
0
 10
-19.8997
 20
43.9987
 11
-16.6016
 21
43.3258
  0
LINE
  8
0
 10
-16.6016
 20
43.3258
 11
-13.1966
 21
42.3393
  0
LINE
  8
0
 10
-13.1966
 20
42.3393
 11
-9.68552
 21
41.0393
  0
LINE
  8
0
 10
-9.68552
 20
41.0393
 11
-6.06918
 21
39.4264
  0
LINE
  8
0
 10
-6.06918
 20
39.4264
 11
-2.34604
 21
37.5
  0
LINE
  8
0
 10
-2.34604
 20
37.5
 11
-24.762
 21
37.5
  0
LINE
  8
0
 10
-24.762
 20
37.5
 11
-24.6956
 21
36.3098
  0
LINE
  8
0
 10
-24.6956
 20
36.3098
 11
-24.4171
 21
35.2997
  0
LINE
  8
0
 10
-24.4171
 20
35.2997
 11
-23.9273
 21
34.4681
  0
LINE
  8
0
 10
-23.9273
 20
34.4681
 11
-23.2254
 21
33.8165
  0
LINE
  8
0
 10
-23.2254
 20
33.8165
 11
-22.3106
 21
33.3435
  0
LINE
  8
0
 10
-22.3106
 20
33.3435
 11
-21.1845
 21
33.0513
  0
LINE
  8
0
 10
-21.1845
 20
33.0513
 11
-19.8471
 21
32.9384
  0
LINE
  8
0
 10
-19.8471
 20
32.9384
 11
-18.2968
 21
33.0048
  0
LINE
  8
0
 10
-18.2968
 20
33.0048
 11
-16.5352
 21
33.2504
  0
LINE
  8
0
 10
-16.5352
 20
33.2504
 11
-14.5607
 21
33.6761
  0
LINE
  8
0
 10
-14.5607
 20
33.6761
 11
-12.3756
 21
34.2812
  0
LINE
  8
0
 10
-12.3756
 20
34.2812
 11
-9.97772
 21
35.0662
  0
LINE
  8
0
 10
-9.97772
 20
35.0662
 11
-12.5343
 21
33.5449
  0
LINE
  8
0
 10
-12.5343
 20
33.5449
 11
-15.197
 21
32.3372
  0
LINE
  8
0
 10
-15.197
 20
32.3372
 11
-17.9657
 21
31.443
  0
LINE
  8
0
 10
-17.9657
 20
31.443
 11
-20.8405
 21
30.8632
  0
LINE
  8
0
 10
-20.8405
 20
30.8632
 11
-23.8213
 21
30.5954
  0
LINE
  8
0
 10
-23.8213
 20
30.5954
 11
-26.9073
 21
30.6419
  0
LINE
  8
0
 10
23.0927
 20
30.6419
 11
19.8997
 21
31.0013
  0
LINE
  8
0
 10
19.8997
 20
31.0013
 11
16.6016
 21
31.6742
  0
LINE
  8
0
 10
16.6016
 20
31.6742
 11
13.1966
 21
32.6607
  0
LINE
  8
0
 10
13.1966
 20
32.6607
 11
9.68552
 21
33.9607
  0
LINE
  8
0
 10
9.68552
 20
33.9607
 11
6.06918
 21
35.5736
  0
LINE
  8
0
 10
6.06918
 20
35.5736
 11
2.34604
 21
37.5
  0
LINE
  8
0
 10
2.34604
 20
37.5
 11
24.762
 21
37.5
  0
LINE
  8
0
 10
24.762
 20
37.5
 11
24.6956
 21
38.6902
  0
LINE
  8
0
 10
24.6956
 20
38.6902
 11
24.4171
 21
39.7003
  0
LINE
  8
0
 10
24.4171
 20
39.7003
 11
23.9273
 21
40.5319
  0
LINE
  8
0
 10
23.9273
 20
40.5319
 11
23.2254
 21
41.1835
  0
LINE
  8
0
 10
23.2254
 20
41.1835
 11
22.3106
 21
41.6565
  0
LINE
  8
0
 10
22.3106
 20
41.6565
 11
21.1845
 21
41.9487
  0
LINE
  8
0
 10
21.1845
 20
41.9487
 11
19.8471
 21
42.0616
  0
LINE
  8
0
 10
19.8471
 20
42.0616
 11
18.2968
 21
41.9952
  0
LINE
  8
0
 10
18.2968
 20
41.9952
 11
16.5352
 21
41.7496
  0
LINE
  8
0
 10
16.5352
 20
41.7496
 11
14.5607
 21
41.3239
  0
LINE
  8
0
 10
14.5607
 20
41.3239
 11
12.3756
 21
40.7188
  0
LINE
  8
0
 10
12.3756
 20
40.7188
 11
9.97772
 21
39.9338
  0
LINE
  8
0
 10
9.97772
 20
39.9338
 11
12.5343
 21
41.4551
  0
LINE
  8
0
 10
12.5343
 20
41.4551
 11
15.197
 21
42.6628
  0
LINE
  8
0
 10
15.197
 20
42.6628
 11
17.9657
 21
43.557
  0
LINE
  8
0
 10
17.9657
 20
43.557
 11
20.8405
 21
44.1368
  0
LINE
  8
0
 10
20.8405
 20
44.1368
 11
23.8213
 21
44.4046
  0
LINE
  8
0
 10
23.8213
 20
44.4046
 11
26.9073
 21
44.3581
  0
LINE
  8
0
 10
26.9073
 20
44.3581
 11
30.1003
 21
43.9987
  0
LINE
  8
0
 10
30.1003
 20
43.9987
 11
33.3984
 21
43.3258
  0
LINE
  8
0
 10
33.3984
 20
43.3258
 11
36.8034
 21
42.3393
  0
LINE
  8
0
 10
36.8034
 20
42.3393
 11
40.3145
 21
41.0393
  0
LINE
  8
0
 10
40.3145
 20
41.0393
 11
43.9308
 21
39.4264
  0
LINE
  8
0
 10
43.9308
 20
39.4264
 11
47.654
 21
37.5
  0
LINE
  8
0
 10
47.654
 20
37.5
 11
25.238
 21
37.5
  0
LINE
  8
0
 10
25.238
 20
37.5
 11
25.3044
 21
36.3098
  0
LINE
  8
0
 10
25.3044
 20
36.3098
 11
25.5829
 21
35.2997
  0
LINE
  8
0
 10
25.5829
 20
35.2997
 11
26.0727
 21
34.4681
  0
LINE
  8
0
 10
26.0727
 20
34.4681
 11
26.7746
 21
33.8165
  0
LINE
  8
0
 10
26.7746
 20
33.8165
 11
27.6894
 21
33.3435
  0
LINE
  8
0
 10
27.6894
 20
33.3435
 11
28.8155
 21
33.0513
  0
LINE
  8
0
 10
28.8155
 20
33.0513
 11
30.1529
 21
32.9384
  0
LINE
  8
0
 10
30.1529
 20
32.9384
 11
31.7032
 21
33.0048
  0
LINE
  8
0
 10
31.7032
 20
33.0048
 11
33.4648
 21
33.2504
  0
LINE
  8
0
 10
33.4648
 20
33.2504
 11
35.4393
 21
33.6761
  0
LINE
  8
0
 10
35.4393
 20
33.6761
 11
37.6244
 21
34.2812
  0
LINE
  8
0
 10
37.6244
 20
34.2812
 11
40.0223
 21
35.0662
  0
LINE
  8
0
 10
40.0223
 20
35.0662
 11
37.4657
 21
33.5449
  0
LINE
  8
0
 10
37.4657
 20
33.5449
 11
34.803
 21
32.3372
  0
LINE
  8
0
 10
34.803
 20
32.3372
 11
32.0343
 21
31.443
  0
LINE
  8
0
 10
32.0343
 20
31.443
 11
29.1595
 21
30.8632
  0
LINE
  8
0
 10
29.1595
 20
30.8632
 11
26.1787
 21
30.5954
  0
LINE
  8
0
 10
26.1787
 20
30.5954
 11
23.0927
 21
30.6419
  0
LINE
  8
0
 10
-1.90735
 20
18.1419
 11
-5.10025
 21
18.5013
  0
LINE
  8
0
 10
-5.10025
 20
18.5013
 11
-8.39844
 21
19.1742
  0
LINE
  8
0
 10
-8.39844
 20
19.1742
 11
-11.8034
 21
20.1607
  0
LINE
  8
0
 10
-11.8034
 20
20.1607
 11
-15.3145
 21
21.4607
  0
LINE
  8
0
 10
-15.3145
 20
21.4607
 11
-18.9308
 21
23.0736
  0
LINE
  8
0
 10
-18.9308
 20
23.0736
 11
-22.654
 21
25
  0
LINE
  8
0
 10
-22.654
 20
25
 11
-0.238037
 21
25
  0
LINE
  8
0
 10
-0.238037
 20
25
 11
-0.304413
 21
26.1902
  0
LINE
  8
0
 10
-0.304413
 20
26.1902
 11
-0.582886
 21
27.2003
  0
LINE
  8
0
 10
-0.582886
 20
27.2003
 11
-1.07269
 21
28.0319
  0
LINE
  8
0
 10
-1.07269
 20
28.0319
 11
-1.7746
 21
28.6835
  0
LINE
  8
0
 10
-1.7746
 20
28.6835
 11
-2.68936
 21
29.1565
  0
LINE
  8
0
 10
-2.68936
 20
29.1565
 11
-3.81546
 21
29.4487
  0
LINE
  8
0
 10
-3.81546
 20
29.4487
 11
-5.15289
 21
29.5616
  0
LINE
  8
0
 10
-5.15289
 20
29.5616
 11
-6.70319
 21
29.4952
  0
LINE
  8
0
 10
-6.70319
 20
29.4952
 11
-8.46481
 21
29.2496
  0
LINE
  8
0
 10
-8.46481
 20
29.2496
 11
-10.4393
 21
28.8239
  0
LINE
  8
0
 10
-10.4393
 20
28.8239
 11
-12.6244
 21
28.2188
  0
LINE
  8
0
 10
-12.6244
 20
28.2188
 11
-15.0223
 21
27.4338
  0
LINE
  8
0
 10
-15.0223
 20
27.4338
 11
-12.4657
 21
28.9551
  0
LINE
  8
0
 10
-12.4657
 20
28.9551
 11
-9.80301
 21
30.1628
  0
LINE
  8
0
 10
-9.80301
 20
30.1628
 11
-7.0343
 21
31.057
  0
LINE
  8
0
 10
-7.0343
 20
31.057
 11
-4.15955
 21
31.6368
  0
LINE
  8
0
 10
-4.15955
 20
31.6368
 11
-1.17874
 21
31.9046
  0
LINE
  8
0
 10
-1.17874
 20
31.9046
 11
1.90735
 21
31.8581
  0
LINE
  8
0
 10
1.90735
 20
31.8581
 11
5.10025
 21
31.4987
  0
LINE
  8
0
 10
5.10025
 20
31.4987
 11
8.39844
 21
30.8258
  0
LINE
  8
0
 10
8.39844
 20
30.8258
 11
11.8034
 21
29.8393
  0
LINE
  8
0
 10
11.8034
 20
29.8393
 11
15.3145
 21
28.5393
  0
LINE
  8
0
 10
15.3145
 20
28.5393
 11
18.9308
 21
26.9264
  0
LINE
  8
0
 10
18.9308
 20
26.9264
 11
22.654
 21
25
  0
LINE
  8
0
 10
22.654
 20
25
 11
0.238037
 21
25
  0
LINE
  8
0
 10
0.238037
 20
25
 11
0.304413
 21
23.8098
  0
LINE
  8
0
 10
0.304413
 20
23.8098
 11
0.582886
 21
22.7997
  0
LINE
  8
0
 10
0.582886
 20
22.7997
 11
1.07269
 21
21.9681
  0
LINE
  8
0
 10
1.07269
 20
21.9681
 11
1.7746
 21
21.3165
  0
LINE
  8
0
 10
1.7746
 20
21.3165
 11
2.68936
 21
20.8435
  0
LINE
  8
0
 10
2.68936
 20
20.8435
 11
3.81546
 21
20.5513
  0
LINE
  8
0
 10
3.81546
 20
20.5513
 11
5.15289
 21
20.4384
  0
LINE
  8
0
 10
5.15289
 20
20.4384
 11
6.70319
 21
20.5048
  0
LINE
  8
0
 10
6.70319
 20
20.5048
 11
8.46481
 21
20.7504
  0
LINE
  8
0
 10
8.46481
 20
20.7504
 11
10.4393
 21
21.1761
  0
LINE
  8
0
 10
10.4393
 20
21.1761
 11
12.6244
 21
21.7812
  0
LINE
  8
0
 10
12.6244
 20
21.7812
 11
15.0223
 21
22.5662
  0
LINE
  8
0
 10
15.0223
 20
22.5662
 11
12.4657
 21
21.0449
  0
LINE
  8
0
 10
12.4657
 20
21.0449
 11
9.80301
 21
19.8372
  0
LINE
  8
0
 10
9.80301
 20
19.8372
 11
7.0343
 21
18.943
  0
LINE
  8
0
 10
7.0343
 20
18.943
 11
4.15955
 21
18.3632
  0
LINE
  8
0
 10
4.15955
 20
18.3632
 11
1.17874
 21
18.0954
  0
LINE
  8
0
 10
1.17874
 20
18.0954
 11
-1.90735
 21
18.1419
  0
LINE
  8
0
 10
-51.9073
 20
18.1419
 11
-55.1003
 21
18.5013
  0
LINE
  8
0
 10
-55.1003
 20
18.5013
 11
-56.292
 21
18.7444
  0
LINE
  8
0
 10
-56.292
 20
18.7444
 11
-54.2595
 21
25
  0
LINE
  8
0
 10
-54.2595
 20
25
 11
-50.238
 21
25
  0
LINE
  8
0
 10
-50.238
 20
25
 11
-50.3044
 21
26.1902
  0
LINE
  8
0
 10
-50.3044
 20
26.1902
 11
-50.5829
 21
27.2003
  0
LINE
  8
0
 10
-50.5829
 20
27.2003
 11
-51.0727
 21
28.0319
  0
LINE
  8
0
 10
-51.0727
 20
28.0319
 11
-51.7746
 21
28.6835
  0
LINE
  8
0
 10
-51.7746
 20
28.6835
 11
-52.6894
 21
29.1565
  0
LINE
  8
0
 10
-52.6894
 20
29.1565
 11
-52.8919
 21
29.209
  0
LINE
  8
0
 10
-52.8919
 20
29.209
 11
-52.0412
 21
31.8271
  0
LINE
  8
0
 10
-52.0412
 20
31.8271
 11
-51.1787
 21
31.9046
  0
LINE
  8
0
 10
-51.1787
 20
31.9046
 11
-48.0927
 21
31.8581
  0
LINE
  8
0
 10
-48.0927
 20
31.8581
 11
-44.8997
 21
31.4987
  0
LINE
  8
0
 10
-44.8997
 20
31.4987
 11
-41.6016
 21
30.8258
  0
LINE
  8
0
 10
-41.6016
 20
30.8258
 11
-38.1966
 21
29.8393
  0
LINE
  8
0
 10
-38.1966
 20
29.8393
 11
-34.6855
 21
28.5393
  0
LINE
  8
0
 10
-34.6855
 20
28.5393
 11
-31.0692
 21
26.9264
  0
LINE
  8
0
 10
-31.0692
 20
26.9264
 11
-27.346
 21
25
  0
LINE
  8
0
 10
-27.346
 20
25
 11
-49.762
 21
25
  0
LINE
  8
0
 10
-49.762
 20
25
 11
-49.6956
 21
23.8098
  0
LINE
  8
0
 10
-49.6956
 20
23.8098
 11
-49.4171
 21
22.7997
  0
LINE
  8
0
 10
-49.4171
 20
22.7997
 11
-48.9273
 21
21.9681
  0
LINE
  8
0
 10
-48.9273
 20
21.9681
 11
-48.2254
 21
21.3165
  0
LINE
  8
0
 10
-48.2254
 20
21.3165
 11
-47.3106
 21
20.8435
  0
LINE
  8
0
 10
-47.3106
 20
20.8435
 11
-46.1845
 21
20.5513
  0
LINE
  8
0
 10
-46.1845
 20
20.5513
 11
-44.8471
 21
20.4384
  0
LINE
  8
0
 10
-44.8471
 20
20.4384
 11
-43.2968
 21
20.5048
  0
LINE
  8
0
 10
-43.2968
 20
20.5048
 11
-41.5352
 21
20.7504
  0
LINE
  8
0
 10
-41.5352
 20
20.7504
 11
-39.5607
 21
21.1761
  0
LINE
  8
0
 10
-39.5607
 20
21.1761
 11
-37.3756
 21
21.7812
  0
LINE
  8
0
 10
-37.3756
 20
21.7812
 11
-34.9777
 21
22.5662
  0
LINE
  8
0
 10
-34.9777
 20
22.5662
 11
-37.5343
 21
21.0449
  0
LINE
  8
0
 10
-37.5343
 20
21.0449
 11
-40.197
 21
19.8372
  0
LINE
  8
0
 10
-40.197
 20
19.8372
 11
-42.9657
 21
18.943
  0
LINE
  8
0
 10
-42.9657
 20
18.943
 11
-45.8405
 21
18.3632
  0
LINE
  8
0
 10
-45.8405
 20
18.3632
 11
-48.8213
 21
18.0954
  0
LINE
  8
0
 10
-48.8213
 20
18.0954
 11
-51.9073
 21
18.1419
  0
LINE
  8
0
 10
48.0927
 20
18.1419
 11
44.8997
 21
18.5013
  0
LINE
  8
0
 10
44.8997
 20
18.5013
 11
41.6016
 21
19.1742
  0
LINE
  8
0
 10
41.6016
 20
19.1742
 11
38.1966
 21
20.1607
  0
LINE
  8
0
 10
38.1966
 20
20.1607
 11
34.6855
 21
21.4607
  0
LINE
  8
0
 10
34.6855
 20
21.4607
 11
31.0692
 21
23.0736
  0
LINE
  8
0
 10
31.0692
 20
23.0736
 11
27.346
 21
25
  0
LINE
  8
0
 10
27.346
 20
25
 11
49.762
 21
25
  0
LINE
  8
0
 10
49.762
 20
25
 11
49.6956
 21
26.1902
  0
LINE
  8
0
 10
49.6956
 20
26.1902
 11
49.4171
 21
27.2003
  0
LINE
  8
0
 10
49.4171
 20
27.2003
 11
48.9273
 21
28.0319
  0
LINE
  8
0
 10
48.9273
 20
28.0319
 11
48.2254
 21
28.6835
  0
LINE
  8
0
 10
48.2254
 20
28.6835
 11
47.3106
 21
29.1565
  0
LINE
  8
0
 10
47.3106
 20
29.1565
 11
46.1845
 21
29.4487
  0
LINE
  8
0
 10
46.1845
 20
29.4487
 11
44.8471
 21
29.5616
  0
LINE
  8
0
 10
44.8471
 20
29.5616
 11
43.2968
 21
29.4952
  0
LINE
  8
0
 10
43.2968
 20
29.4952
 11
41.5352
 21
29.2496
  0
LINE
  8
0
 10
41.5352
 20
29.2496
 11
39.5607
 21
28.8239
  0
LINE
  8
0
 10
39.5607
 20
28.8239
 11
37.3756
 21
28.2188
  0
LINE
  8
0
 10
37.3756
 20
28.2188
 11
34.9777
 21
27.4338
  0
LINE
  8
0
 10
34.9777
 20
27.4338
 11
37.5343
 21
28.9551
  0
LINE
  8
0
 10
37.5343
 20
28.9551
 11
40.197
 21
30.1628
  0
LINE
  8
0
 10
40.197
 20
30.1628
 11
42.9657
 21
31.057
  0
LINE
  8
0
 10
42.9657
 20
31.057
 11
45.8405
 21
31.6368
  0
LINE
  8
0
 10
45.8405
 20
31.6368
 11
48.8213
 21
31.9046
  0
LINE
  8
0
 10
48.8213
 20
31.9046
 11
51.9073
 21
31.8581
  0
LINE
  8
0
 10
51.9073
 20
31.8581
 11
52.0358
 21
31.8436
  0
LINE
  8
0
 10
52.0358
 20
31.8436
 11
54.2595
 21
25
  0
LINE
  8
0
 10
54.2595
 20
25
 11
50.238
 21
25
  0
LINE
  8
0
 10
50.238
 20
25
 11
50.3044
 21
23.8098
  0
LINE
  8
0
 10
50.3044
 20
23.8098
 11
50.5829
 21
22.7997
  0
LINE
  8
0
 10
50.5829
 20
22.7997
 11
51.0727
 21
21.9681
  0
LINE
  8
0
 10
51.0727
 20
21.9681
 11
51.7746
 21
21.3165
  0
LINE
  8
0
 10
51.7746
 20
21.3165
 11
52.6894
 21
20.8435
  0
LINE
  8
0
 10
52.6894
 20
20.8435
 11
53.8155
 21
20.5513
  0
LINE
  8
0
 10
53.8155
 20
20.5513
 11
55.1529
 21
20.4384
  0
LINE
  8
0
 10
55.1529
 20
20.4384
 11
55.7335
 21
20.4632
  0
LINE
  8
0
 10
55.7335
 20
20.4632
 11
56.2771
 21
18.7903
  0
LINE
  8
0
 10
56.2771
 20
18.7903
 11
54.1595
 21
18.3632
  0
LINE
  8
0
 10
54.1595
 20
18.3632
 11
51.1787
 21
18.0954
  0
LINE
  8
0
 10
51.1787
 20
18.0954
 11
48.0927
 21
18.1419
  0
LINE
  8
0
 10
-46.6876
 20
12
 11
-47.654
 21
12.5
  0
LINE
  8
0
 10
-47.654
 20
12.5
 11
-25.238
 21
12.5
  0
LINE
  8
0
 10
-25.238
 20
12.5
 11
-25.3044
 21
13.6902
  0
LINE
  8
0
 10
-25.3044
 20
13.6902
 11
-25.5829
 21
14.7003
  0
LINE
  8
0
 10
-25.5829
 20
14.7003
 11
-26.0727
 21
15.5319
  0
LINE
  8
0
 10
-26.0727
 20
15.5319
 11
-26.7746
 21
16.1835
  0
LINE
  8
0
 10
-26.7746
 20
16.1835
 11
-27.6894
 21
16.6565
  0
LINE
  8
0
 10
-27.6894
 20
16.6565
 11
-28.8155
 21
16.9487
  0
LINE
  8
0
 10
-28.8155
 20
16.9487
 11
-30.1529
 21
17.0616
  0
LINE
  8
0
 10
-30.1529
 20
17.0616
 11
-31.7032
 21
16.9952
  0
LINE
  8
0
 10
-31.7032
 20
16.9952
 11
-33.4648
 21
16.7496
  0
LINE
  8
0
 10
-33.4648
 20
16.7496
 11
-35.4393
 21
16.3239
  0
LINE
  8
0
 10
-35.4393
 20
16.3239
 11
-37.6244
 21
15.7188
  0
LINE
  8
0
 10
-37.6244
 20
15.7188
 11
-40.0223
 21
14.9338
  0
LINE
  8
0
 10
-40.0223
 20
14.9338
 11
-37.4657
 21
16.4551
  0
LINE
  8
0
 10
-37.4657
 20
16.4551
 11
-34.803
 21
17.6628
  0
LINE
  8
0
 10
-34.803
 20
17.6628
 11
-32.0343
 21
18.557
  0
LINE
  8
0
 10
-32.0343
 20
18.557
 11
-29.1595
 21
19.1368
  0
LINE
  8
0
 10
-29.1595
 20
19.1368
 11
-26.1787
 21
19.4046
  0
LINE
  8
0
 10
-26.1787
 20
19.4046
 11
-23.0927
 21
19.3581
  0
LINE
  8
0
 10
-23.0927
 20
19.3581
 11
-19.8997
 21
18.9987
  0
LINE
  8
0
 10
-19.8997
 20
18.9987
 11
-16.6016
 21
18.3258
  0
LINE
  8
0
 10
-16.6016
 20
18.3258
 11
-13.1966
 21
17.3393
  0
LINE
  8
0
 10
-13.1966
 20
17.3393
 11
-9.68552
 21
16.0393
  0
LINE
  8
0
 10
-9.68552
 20
16.0393
 11
-6.06918
 21
14.4264
  0
LINE
  8
0
 10
-6.06918
 20
14.4264
 11
-2.34604
 21
12.5
  0
LINE
  8
0
 10
-2.34604
 20
12.5
 11
-24.762
 21
12.5
  0
LINE
  8
0
 10
-24.762
 20
12.5
 11
-24.7341
 21
12
  0
LINE
  8
0
 10
-24.7341
 20
12
 11
-46.6876
 21
12
  0
LINE
  8
0
 10
3.31238
 20
12
 11
2.34604
 21
12.5
  0
LINE
  8
0
 10
2.34604
 20
12.5
 11
24.762
 21
12.5
  0
LINE
  8
0
 10
24.762
 20
12.5
 11
24.6956
 21
13.6902
  0
LINE
  8
0
 10
24.6956
 20
13.6902
 11
24.4171
 21
14.7003
  0
LINE
  8
0
 10
24.4171
 20
14.7003
 11
23.9273
 21
15.5319
  0
LINE
  8
0
 10
23.9273
 20
15.5319
 11
23.2254
 21
16.1835
  0
LINE
  8
0
 10
23.2254
 20
16.1835
 11
22.3106
 21
16.6565
  0
LINE
  8
0
 10
22.3106
 20
16.6565
 11
21.1845
 21
16.9487
  0
LINE
  8
0
 10
21.1845
 20
16.9487
 11
19.8471
 21
17.0616
  0
LINE
  8
0
 10
19.8471
 20
17.0616
 11
18.2968
 21
16.9952
  0
LINE
  8
0
 10
18.2968
 20
16.9952
 11
16.5352
 21
16.7496
  0
LINE
  8
0
 10
16.5352
 20
16.7496
 11
14.5607
 21
16.3239
  0
LINE
  8
0
 10
14.5607
 20
16.3239
 11
12.3756
 21
15.7188
  0
LINE
  8
0
 10
12.3756
 20
15.7188
 11
9.97772
 21
14.9338
  0
LINE
  8
0
 10
9.97772
 20
14.9338
 11
12.5343
 21
16.4551
  0
LINE
  8
0
 10
12.5343
 20
16.4551
 11
15.197
 21
17.6628
  0
LINE
  8
0
 10
15.197
 20
17.6628
 11
17.9657
 21
18.557
  0
LINE
  8
0
 10
17.9657
 20
18.557
 11
20.8405
 21
19.1368
  0
LINE
  8
0
 10
20.8405
 20
19.1368
 11
23.8213
 21
19.4046
  0
LINE
  8
0
 10
23.8213
 20
19.4046
 11
26.9073
 21
19.3581
  0
LINE
  8
0
 10
26.9073
 20
19.3581
 11
30.1003
 21
18.9987
  0
LINE
  8
0
 10
30.1003
 20
18.9987
 11
33.3984
 21
18.3258
  0
LINE
  8
0
 10
33.3984
 20
18.3258
 11
36.8034
 21
17.3393
  0
LINE
  8
0
 10
36.8034
 20
17.3393
 11
40.3145
 21
16.0393
  0
LINE
  8
0
 10
40.3145
 20
16.0393
 11
43.9308
 21
14.4264
  0
LINE
  8
0
 10
43.9308
 20
14.4264
 11
47.654
 21
12.5
  0
LINE
  8
0
 10
47.654
 20
12.5
 11
25.238
 21
12.5
  0
LINE
  8
0
 10
25.238
 20
12.5
 11
25.2659
 21
12
  0
LINE
  8
0
 10
25.2659
 20
12
 11
3.31238
 21
12
  0
LINE
  8
0
 10
-58.321
 20
12.5
 11
-57.4892
 21
15.0598
  0
LINE
  8
0
 10
-57.4892
 20
15.0598
 11
-56.0692
 21
14.4264
  0
LINE
  8
0
 10
-56.0692
 20
14.4264
 11
-52.346
 21
12.5
  0
LINE
  8
0
 10
-52.346
 20
12.5
 11
-58.321
 21
12.5
  0
LINE
  8
0
 10
53.3124
 20
12
 11
52.346
 21
12.5
  0
LINE
  8
0
 10
52.346
 20
12.5
 11
58.321
 21
12.5
  0
LINE
  8
0
 10
58.321
 20
12.5
 11
58.4834
 21
12
  0
LINE
  8
0
 10
58.4834
 20
12
 11
53.3124
 21
12
  0
LINE
  8
0
 10
-10
 20
7
 11
-10
 21
11
  0
LINE
  8
0
 10
-10
 20
11
 11
10
 21
11
  0
LINE
  8
0
 10
10
 20
11
 11
10
 21
7
  0
LINE
  8
0
 10
10
 20
7
 11
-10
 21
7
  0
LINE
  8
0
 10
-68.6534
 20
2.70622
 11
-68.7785
 21
2.71805
  0
LINE
  8
0
 10
-68.7785
 20
2.71805
 11
-68.9026
 21
2.7377
  0
LINE
  8
0
 10
-68.9026
 20
2.7377
 11
-69.0252
 21
2.76511
  0
LINE
  8
0
 10
-69.0252
 20
2.76511
 11
-69.1459
 21
2.80016
  0
LINE
  8
0
 10
-69.1459
 20
2.80016
 11
-69.2641
 21
2.84273
  0
LINE
  8
0
 10
-69.2641
 20
2.84273
 11
-69.3794
 21
2.89262
  0
LINE
  8
0
 10
-69.3794
 20
2.89262
 11
-69.4914
 21
2.94966
  0
LINE
  8
0
 10
-69.4914
 20
2.94966
 11
-69.5995
 21
3.01363
  0
LINE
  8
0
 10
-69.5995
 20
3.01363
 11
-69.7034
 21
3.08424
  0
LINE
  8
0
 10
-69.7034
 20
3.08424
 11
-69.8027
 21
3.16125
  0
LINE
  8
0
 10
-69.8027
 20
3.16125
 11
-69.897
 21
3.24434
  0
LINE
  8
0
 10
-69.897
 20
3.24434
 11
-69.9858
 21
3.33318
  0
LINE
  8
0
 10
-69.9858
 20
3.33318
 11
-70.0689
 21
3.42743
  0
LINE
  8
0
 10
-70.0689
 20
3.42743
 11
-70.1459
 21
3.5267
  0
LINE
  8
0
 10
-70.1459
 20
3.5267
 11
-70.2165
 21
3.63062
  0
LINE
  8
0
 10
-70.2165
 20
3.63062
 11
-70.2805
 21
3.73877
  0
LINE
  8
0
 10
-70.2805
 20
3.73877
 11
-70.3375
 21
3.85072
  0
LINE
  8
0
 10
-70.3375
 20
3.85072
 11
-70.3874
 21
3.96602
  0
LINE
  8
0
 10
-70.3874
 20
3.96602
 11
-70.43
 21
4.08424
  0
LINE
  8
0
 10
-70.43
 20
4.08424
 11
-70.465
 21
4.2049
  0
LINE
  8
0
 10
-70.465
 20
4.2049
 11
-70.4924
 21
4.32751
  0
LINE
  8
0
 10
-70.4924
 20
4.32751
 11
-70.5121
 21
4.45161
  0
LINE
  8
0
 10
-70.5121
 20
4.45161
 11
-70.5239
 21
4.57669
  0
LINE
  8
0
 10
-70.5239
 20
4.57669
 11
-70.5279
 21
4.70227
  0
LINE
  8
0
 10
-70.5279
 20
4.70227
 11
-70.5239
 21
4.82785
  0
LINE
  8
0
 10
-70.5239
 20
4.82785
 11
-70.5121
 21
4.95294
  0
LINE
  8
0
 10
-70.5121
 20
4.95294
 11
-70.4924
 21
5.07704
  0
LINE
  8
0
 10
-70.4924
 20
5.07704
 11
-70.465
 21
5.19966
  0
LINE
  8
0
 10
-70.465
 20
5.19966
 11
-70.43
 21
5.32031
  0
LINE
  8
0
 10
-70.43
 20
5.32031
 11
-70.3874
 21
5.43852
  0
LINE
  8
0
 10
-70.3874
 20
5.43852
 11
-70.3375
 21
5.55383
  0
LINE
  8
0
 10
-70.3375
 20
5.55383
 11
-70.2805
 21
5.66579
  0
LINE
  8
0
 10
-70.2805
 20
5.66579
 11
-70.2165
 21
5.77393
  0
LINE
  8
0
 10
-70.2165
 20
5.77393
 11
-70.1459
 21
5.87784
  0
LINE
  8
0
 10
-70.1459
 20
5.87784
 11
-70.0689
 21
5.97713
  0
LINE
  8
0
 10
-70.0689
 20
5.97713
 11
-69.9858
 21
6.07137
  0
LINE
  8
0
 10
-69.9858
 20
6.07137
 11
-69.897
 21
6.16022
  0
LINE
  8
0
 10
-69.897
 20
6.16022
 11
-69.8027
 21
6.2433
  0
LINE
  8
0
 10
-69.8027
 20
6.2433
 11
-69.7034
 21
6.32031
  0
LINE
  8
0
 10
-69.7034
 20
6.32031
 11
-69.5995
 21
6.39093
  0
LINE
  8
0
 10
-69.5995
 20
6.39093
 11
-69.4914
 21
6.4549
  0
LINE
  8
0
 10
-69.4914
 20
6.4549
 11
-69.3794
 21
6.51193
  0
LINE
  8
0
 10
-69.3794
 20
6.51193
 11
-69.2641
 21
6.56183
  0
LINE
  8
0
 10
-69.2641
 20
6.56183
 11
-69.1459
 21
6.60439
  0
LINE
  8
0
 10
-69.1459
 20
6.60439
 11
-69.0252
 21
6.63943
  0
LINE
  8
0
 10
-69.0252
 20
6.63943
 11
-68.9026
 21
6.66685
  0
LINE
  8
0
 10
-68.9026
 20
6.66685
 11
-68.7785
 21
6.68651
  0
LINE
  8
0
 10
-68.7785
 20
6.68651
 11
-68.6534
 21
6.69833
  0
LINE
  8
0
 10
-68.6534
 20
6.69833
 11
-68.5279
 21
6.70227
  0
LINE
  8
0
 10
-68.5279
 20
6.70227
 11
-68.4023
 21
6.69833
  0
LINE
  8
0
 10
-68.4023
 20
6.69833
 11
-68.2772
 21
6.68651
  0
LINE
  8
0
 10
-68.2772
 20
6.68651
 11
-68.1531
 21
6.66685
  0
LINE
  8
0
 10
-68.1531
 20
6.66685
 11
-68.0305
 21
6.63943
  0
LINE
  8
0
 10
-68.0305
 20
6.63943
 11
-67.9098
 21
6.60439
  0
LINE
  8
0
 10
-67.9098
 20
6.60439
 11
-67.7916
 21
6.56183
  0
LINE
  8
0
 10
-67.7916
 20
6.56183
 11
-67.6763
 21
6.51193
  0
LINE
  8
0
 10
-67.6763
 20
6.51193
 11
-67.5643
 21
6.4549
  0
LINE
  8
0
 10
-67.5643
 20
6.4549
 11
-67.4562
 21
6.39093
  0
LINE
  8
0
 10
-67.4562
 20
6.39093
 11
-67.3523
 21
6.32031
  0
LINE
  8
0
 10
-67.3523
 20
6.32031
 11
-67.253
 21
6.2433
  0
LINE
  8
0
 10
-67.253
 20
6.2433
 11
-67.1588
 21
6.16022
  0
LINE
  8
0
 10
-67.1588
 20
6.16022
 11
-67.0699
 21
6.07137
  0
LINE
  8
0
 10
-67.0699
 20
6.07137
 11
-66.9868
 21
5.97713
  0
LINE
  8
0
 10
-66.9868
 20
5.97713
 11
-66.9098
 21
5.87784
  0
LINE
  8
0
 10
-66.9098
 20
5.87784
 11
-66.8392
 21
5.77393
  0
LINE
  8
0
 10
-66.8392
 20
5.77393
 11
-66.7752
 21
5.66579
  0
LINE
  8
0
 10
-66.7752
 20
5.66579
 11
-66.7182
 21
5.55383
  0
LINE
  8
0
 10
-66.7182
 20
5.55383
 11
-66.6683
 21
5.43852
  0
LINE
  8
0
 10
-66.6683
 20
5.43852
 11
-66.6257
 21
5.32031
  0
LINE
  8
0
 10
-66.6257
 20
5.32031
 11
-66.5907
 21
5.19966
  0
LINE
  8
0
 10
-66.5907
 20
5.19966
 11
-66.5633
 21
5.07704
  0
LINE
  8
0
 10
-66.5633
 20
5.07704
 11
-66.5436
 21
4.95294
  0
LINE
  8
0
 10
-66.5436
 20
4.95294
 11
-66.5318
 21
4.82785
  0
LINE
  8
0
 10
-66.5318
 20
4.82785
 11
-66.5279
 21
4.70227
  0
LINE
  8
0
 10
-66.5279
 20
4.70227
 11
-66.5318
 21
4.57669
  0
LINE
  8
0
 10
-66.5318
 20
4.57669
 11
-66.5436
 21
4.45161
  0
LINE
  8
0
 10
-66.5436
 20
4.45161
 11
-66.5633
 21
4.32751
  0
LINE
  8
0
 10
-66.5633
 20
4.32751
 11
-66.5907
 21
4.2049
  0
LINE
  8
0
 10
-66.5907
 20
4.2049
 11
-66.6257
 21
4.08424
  0
LINE
  8
0
 10
-66.6257
 20
4.08424
 11
-66.6683
 21
3.96602
  0
LINE
  8
0
 10
-66.6683
 20
3.96602
 11
-66.7182
 21
3.85072
  0
LINE
  8
0
 10
-66.7182
 20
3.85072
 11
-66.7752
 21
3.73877
  0
LINE
  8
0
 10
-66.7752
 20
3.73877
 11
-66.8392
 21
3.63062
  0
LINE
  8
0
 10
-66.8392
 20
3.63062
 11
-66.9098
 21
3.5267
  0
LINE
  8
0
 10
-66.9098
 20
3.5267
 11
-66.9868
 21
3.42743
  0
LINE
  8
0
 10
-66.9868
 20
3.42743
 11
-67.0699
 21
3.33318
  0
LINE
  8
0
 10
-67.0699
 20
3.33318
 11
-67.1588
 21
3.24434
  0
LINE
  8
0
 10
-67.1588
 20
3.24434
 11
-67.253
 21
3.16125
  0
LINE
  8
0
 10
-67.253
 20
3.16125
 11
-67.3523
 21
3.08424
  0
LINE
  8
0
 10
-67.3523
 20
3.08424
 11
-67.4562
 21
3.01363
  0
LINE
  8
0
 10
-67.4562
 20
3.01363
 11
-67.5643
 21
2.94966
  0
LINE
  8
0
 10
-67.5643
 20
2.94966
 11
-67.6763
 21
2.89262
  0
LINE
  8
0
 10
-67.6763
 20
2.89262
 11
-67.7916
 21
2.84273
  0
LINE
  8
0
 10
-67.7916
 20
2.84273
 11
-67.9098
 21
2.80016
  0
LINE
  8
0
 10
-67.9098
 20
2.80016
 11
-68.0305
 21
2.76511
  0
LINE
  8
0
 10
-68.0305
 20
2.76511
 11
-68.1531
 21
2.7377
  0
LINE
  8
0
 10
-68.1531
 20
2.7377
 11
-68.2772
 21
2.71805
  0
LINE
  8
0
 10
-68.2772
 20
2.71805
 11
-68.4023
 21
2.70622
  0
LINE
  8
0
 10
-68.4023
 20
2.70622
 11
-68.5279
 21
2.70227
  0
LINE
  8
0
 10
-68.5279
 20
2.70227
 11
-68.6534
 21
2.70622
  0
LINE
  8
0
 10
68.4023
 20
2.70622
 11
68.2772
 21
2.71805
  0
LINE
  8
0
 10
68.2772
 20
2.71805
 11
68.1531
 21
2.7377
  0
LINE
  8
0
 10
68.1531
 20
2.7377
 11
68.0305
 21
2.76511
  0
LINE
  8
0
 10
68.0305
 20
2.76511
 11
67.9098
 21
2.80016
  0
LINE
  8
0
 10
67.9098
 20
2.80016
 11
67.7916
 21
2.84273
  0
LINE
  8
0
 10
67.7916
 20
2.84273
 11
67.6763
 21
2.89262
  0
LINE
  8
0
 10
67.6763
 20
2.89262
 11
67.5643
 21
2.94966
  0
LINE
  8
0
 10
67.5643
 20
2.94966
 11
67.4562
 21
3.01363
  0
LINE
  8
0
 10
67.4562
 20
3.01363
 11
67.3523
 21
3.08424
  0
LINE
  8
0
 10
67.3523
 20
3.08424
 11
67.253
 21
3.16125
  0
LINE
  8
0
 10
67.253
 20
3.16125
 11
67.1588
 21
3.24434
  0
LINE
  8
0
 10
67.1588
 20
3.24434
 11
67.0699
 21
3.33318
  0
LINE
  8
0
 10
67.0699
 20
3.33318
 11
66.9868
 21
3.42743
  0
LINE
  8
0
 10
66.9868
 20
3.42743
 11
66.9098
 21
3.5267
  0
LINE
  8
0
 10
66.9098
 20
3.5267
 11
66.8392
 21
3.63062
  0
LINE
  8
0
 10
66.8392
 20
3.63062
 11
66.7752
 21
3.73877
  0
LINE
  8
0
 10
66.7752
 20
3.73877
 11
66.7182
 21
3.85072
  0
LINE
  8
0
 10
66.7182
 20
3.85072
 11
66.6683
 21
3.96602
  0
LINE
  8
0
 10
66.6683
 20
3.96602
 11
66.6257
 21
4.08424
  0
LINE
  8
0
 10
66.6257
 20
4.08424
 11
66.5907
 21
4.2049
  0
LINE
  8
0
 10
66.5907
 20
4.2049
 11
66.5633
 21
4.32751
  0
LINE
  8
0
 10
66.5633
 20
4.32751
 11
66.5436
 21
4.45161
  0
LINE
  8
0
 10
66.5436
 20
4.45161
 11
66.5318
 21
4.57669
  0
LINE
  8
0
 10
66.5318
 20
4.57669
 11
66.5279
 21
4.70227
  0
LINE
  8
0
 10
66.5279
 20
4.70227
 11
66.5318
 21
4.82785
  0
LINE
  8
0
 10
66.5318
 20
4.82785
 11
66.5436
 21
4.95294
  0
LINE
  8
0
 10
66.5436
 20
4.95294
 11
66.5633
 21
5.07704
  0
LINE
  8
0
 10
66.5633
 20
5.07704
 11
66.5907
 21
5.19966
  0
LINE
  8
0
 10
66.5907
 20
5.19966
 11
66.6257
 21
5.32031
  0
LINE
  8
0
 10
66.6257
 20
5.32031
 11
66.6683
 21
5.43852
  0
LINE
  8
0
 10
66.6683
 20
5.43852
 11
66.7182
 21
5.55383
  0
LINE
  8
0
 10
66.7182
 20
5.55383
 11
66.7752
 21
5.66579
  0
LINE
  8
0
 10
66.7752
 20
5.66579
 11
66.8392
 21
5.77393
  0
LINE
  8
0
 10
66.8392
 20
5.77393
 11
66.9098
 21
5.87784
  0
LINE
  8
0
 10
66.9098
 20
5.87784
 11
66.9868
 21
5.97713
  0
LINE
  8
0
 10
66.9868
 20
5.97713
 11
67.0699
 21
6.07137
  0
LINE
  8
0
 10
67.0699
 20
6.07137
 11
67.1588
 21
6.16022
  0
LINE
  8
0
 10
67.1588
 20
6.16022
 11
67.253
 21
6.2433
  0
LINE
  8
0
 10
67.253
 20
6.2433
 11
67.3523
 21
6.32031
  0
LINE
  8
0
 10
67.3523
 20
6.32031
 11
67.4562
 21
6.39093
  0
LINE
  8
0
 10
67.4562
 20
6.39093
 11
67.5643
 21
6.4549
  0
LINE
  8
0
 10
67.5643
 20
6.4549
 11
67.6763
 21
6.51193
  0
LINE
  8
0
 10
67.6763
 20
6.51193
 11
67.7916
 21
6.56183
  0
LINE
  8
0
 10
67.7916
 20
6.56183
 11
67.9098
 21
6.60439
  0
LINE
  8
0
 10
67.9098
 20
6.60439
 11
68.0305
 21
6.63943
  0
LINE
  8
0
 10
68.0305
 20
6.63943
 11
68.1531
 21
6.66685
  0
LINE
  8
0
 10
68.1531
 20
6.66685
 11
68.2772
 21
6.68651
  0
LINE
  8
0
 10
68.2772
 20
6.68651
 11
68.4023
 21
6.69833
  0
LINE
  8
0
 10
68.4023
 20
6.69833
 11
68.5279
 21
6.70227
  0
LINE
  8
0
 10
68.5279
 20
6.70227
 11
68.6534
 21
6.69833
  0
LINE
  8
0
 10
68.6534
 20
6.69833
 11
68.7785
 21
6.68651
  0
LINE
  8
0
 10
68.7785
 20
6.68651
 11
68.9026
 21
6.66685
  0
LINE
  8
0
 10
68.9026
 20
6.66685
 11
69.0252
 21
6.63943
  0
LINE
  8
0
 10
69.0252
 20
6.63943
 11
69.1459
 21
6.60439
  0
LINE
  8
0
 10
69.1459
 20
6.60439
 11
69.2641
 21
6.56183
  0
LINE
  8
0
 10
69.2641
 20
6.56183
 11
69.3794
 21
6.51193
  0
LINE
  8
0
 10
69.3794
 20
6.51193
 11
69.4914
 21
6.4549
  0
LINE
  8
0
 10
69.4914
 20
6.4549
 11
69.5995
 21
6.39093
  0
LINE
  8
0
 10
69.5995
 20
6.39093
 11
69.7034
 21
6.32031
  0
LINE
  8
0
 10
69.7034
 20
6.32031
 11
69.8027
 21
6.2433
  0
LINE
  8
0
 10
69.8027
 20
6.2433
 11
69.897
 21
6.16022
  0
LINE
  8
0
 10
69.897
 20
6.16022
 11
69.9858
 21
6.07137
  0
LINE
  8
0
 10
69.9858
 20
6.07137
 11
70.0689
 21
5.97713
  0
LINE
  8
0
 10
70.0689
 20
5.97713
 11
70.1459
 21
5.87784
  0
LINE
  8
0
 10
70.1459
 20
5.87784
 11
70.2165
 21
5.77393
  0
LINE
  8
0
 10
70.2165
 20
5.77393
 11
70.2805
 21
5.66579
  0
LINE
  8
0
 10
70.2805
 20
5.66579
 11
70.3375
 21
5.55383
  0
LINE
  8
0
 10
70.3375
 20
5.55383
 11
70.3874
 21
5.43852
  0
LINE
  8
0
 10
70.3874
 20
5.43852
 11
70.43
 21
5.32031
  0
LINE
  8
0
 10
70.43
 20
5.32031
 11
70.465
 21
5.19966
  0
LINE
  8
0
 10
70.465
 20
5.19966
 11
70.4924
 21
5.07704
  0
LINE
  8
0
 10
70.4924
 20
5.07704
 11
70.5121
 21
4.95294
  0
LINE
  8
0
 10
70.5121
 20
4.95294
 11
70.5239
 21
4.82785
  0
LINE
  8
0
 10
70.5239
 20
4.82785
 11
70.5279
 21
4.70227
  0
LINE
  8
0
 10
70.5279
 20
4.70227
 11
70.5239
 21
4.57669
  0
LINE
  8
0
 10
70.5239
 20
4.57669
 11
70.5121
 21
4.45161
  0
LINE
  8
0
 10
70.5121
 20
4.45161
 11
70.4924
 21
4.32751
  0
LINE
  8
0
 10
70.4924
 20
4.32751
 11
70.465
 21
4.2049
  0
LINE
  8
0
 10
70.465
 20
4.2049
 11
70.43
 21
4.08424
  0
LINE
  8
0
 10
70.43
 20
4.08424
 11
70.3874
 21
3.96602
  0
LINE
  8
0
 10
70.3874
 20
3.96602
 11
70.3375
 21
3.85072
  0
LINE
  8
0
 10
70.3375
 20
3.85072
 11
70.2805
 21
3.73877
  0
LINE
  8
0
 10
70.2805
 20
3.73877
 11
70.2165
 21
3.63062
  0
LINE
  8
0
 10
70.2165
 20
3.63062
 11
70.1459
 21
3.5267
  0
LINE
  8
0
 10
70.1459
 20
3.5267
 11
70.0689
 21
3.42743
  0
LINE
  8
0
 10
70.0689
 20
3.42743
 11
69.9858
 21
3.33318
  0
LINE
  8
0
 10
69.9858
 20
3.33318
 11
69.897
 21
3.24434
  0
LINE
  8
0
 10
69.897
 20
3.24434
 11
69.8027
 21
3.16125
  0
LINE
  8
0
 10
69.8027
 20
3.16125
 11
69.7034
 21
3.08424
  0
LINE
  8
0
 10
69.7034
 20
3.08424
 11
69.5995
 21
3.01363
  0
LINE
  8
0
 10
69.5995
 20
3.01363
 11
69.4914
 21
2.94966
  0
LINE
  8
0
 10
69.4914
 20
2.94966
 11
69.3794
 21
2.89262
  0
LINE
  8
0
 10
69.3794
 20
2.89262
 11
69.2641
 21
2.84273
  0
LINE
  8
0
 10
69.2641
 20
2.84273
 11
69.1459
 21
2.80016
  0
LINE
  8
0
 10
69.1459
 20
2.80016
 11
69.0252
 21
2.76511
  0
LINE
  8
0
 10
69.0252
 20
2.76511
 11
68.9026
 21
2.7377
  0
LINE
  8
0
 10
68.9026
 20
2.7377
 11
68.7785
 21
2.71805
  0
LINE
  8
0
 10
68.7785
 20
2.71805
 11
68.6534
 21
2.70622
  0
LINE
  8
0
 10
68.6534
 20
2.70622
 11
68.5279
 21
2.70227
  0
LINE
  8
0
 10
68.5279
 20
2.70227
 11
68.4023
 21
2.70622
  0
ENDSEC
  0
SECTION
  2
OBJECTS
  0
DICTIONARY
  0
ENDSEC
  0
EOF
