  0
SECTION
  2
BLOCKS
  0
ENDSEC
  0
SECTION
  2
ENTITIES
  0
LINE
  8
0
 10
0
 20
230.826
 11
-75
 21
0
  0
LINE
  8
0
 10
-75
 20
0
 11
75
 21
0
  0
LINE
  8
0
 10
75
 20
0
 11
0
 21
230.826
  0
LINE
  8
0
 10
-0.12558
 20
212.83
 11
-0.250656
 21
212.842
  0
LINE
  8
0
 10
-0.250656
 20
212.842
 11
-0.374756
 21
212.862
  0
LINE
  8
0
 10
-0.374756
 20
212.862
 11
-0.497375
 21
212.889
  0
LINE
  8
0
 10
-0.497375
 20
212.889
 11
-0.618027
 21
212.924
  0
LINE
  8
0
 10
-0.618027
 20
212.924
 11
-0.736237
 21
212.967
  0
LINE
  8
0
 10
-0.736237
 20
212.967
 11
-0.851547
 21
213.017
  0
LINE
  8
0
 10
-0.851547
 20
213.017
 11
-0.963501
 21
213.074
  0
LINE
  8
0
 10
-0.963501
 20
213.074
 11
-1.07164
 21
213.138
  0
LINE
  8
0
 10
-1.07164
 20
213.138
 11
-1.17557
 21
213.208
  0
LINE
  8
0
 10
-1.17557
 20
213.208
 11
-1.27484
 21
213.285
  0
LINE
  8
0
 10
-1.27484
 20
213.285
 11
-1.36908
 21
213.368
  0
LINE
  8
0
 10
-1.36908
 20
213.368
 11
-1.45793
 21
213.457
  0
LINE
  8
0
 10
-1.45793
 20
213.457
 11
-1.54102
 21
213.551
  0
LINE
  8
0
 10
-1.54102
 20
213.551
 11
-1.61803
 21
213.651
  0
LINE
  8
0
 10
-1.61803
 20
213.651
 11
-1.68864
 21
213.755
  0
LINE
  8
0
 10
-1.68864
 20
213.755
 11
-1.75261
 21
213.863
  0
LINE
  8
0
 10
-1.75261
 20
213.863
 11
-1.80965
 21
213.975
  0
LINE
  8
0
 10
-1.80965
 20
213.975
 11
-1.85954
 21
214.09
  0
LINE
  8
0
 10
-1.85954
 20
214.09
 11
-1.9021
 21
214.208
  0
LINE
  8
0
 10
-1.9021
 20
214.208
 11
-1.93716
 21
214.329
  0
LINE
  8
0
 10
-1.93716
 20
214.329
 11
-1.96457
 21
214.451
  0
LINE
  8
0
 10
-1.96457
 20
214.451
 11
-1.98422
 21
214.576
  0
LINE
  8
0
 10
-1.98422
 20
214.576
 11
-1.99605
 21
214.701
  0
LINE
  8
0
 10
-1.99605
 20
214.701
 11
-2
 21
214.826
  0
LINE
  8
0
 10
-2
 20
214.826
 11
-1.99605
 21
214.952
  0
LINE
  8
0
 10
-1.99605
 20
214.952
 11
-1.98422
 21
215.077
  0
LINE
  8
0
 10
-1.98422
 20
215.077
 11
-1.96457
 21
215.201
  0
LINE
  8
0
 10
-1.96457
 20
215.201
 11
-1.93716
 21
215.324
  0
LINE
  8
0
 10
-1.93716
 20
215.324
 11
-1.9021
 21
215.444
  0
LINE
  8
0
 10
-1.9021
 20
215.444
 11
-1.85954
 21
215.562
  0
LINE
  8
0
 10
-1.85954
 20
215.562
 11
-1.80965
 21
215.678
  0
LINE
  8
0
 10
-1.80965
 20
215.678
 11
-1.75261
 21
215.79
  0
LINE
  8
0
 10
-1.75261
 20
215.79
 11
-1.68864
 21
215.898
  0
LINE
  8
0
 10
-1.68864
 20
215.898
 11
-1.61803
 21
216.002
  0
LINE
  8
0
 10
-1.61803
 20
216.002
 11
-1.54102
 21
216.101
  0
LINE
  8
0
 10
-1.54102
 20
216.101
 11
-1.45793
 21
216.195
  0
LINE
  8
0
 10
-1.45793
 20
216.195
 11
-1.36908
 21
216.284
  0
LINE
  8
0
 10
-1.36908
 20
216.284
 11
-1.27484
 21
216.367
  0
LINE
  8
0
 10
-1.27484
 20
216.367
 11
-1.17557
 21
216.444
  0
LINE
  8
0
 10
-1.17557
 20
216.444
 11
-1.07164
 21
216.515
  0
LINE
  8
0
 10
-1.07164
 20
216.515
 11
-0.963501
 21
216.579
  0
LINE
  8
0
 10
-0.963501
 20
216.579
 11
-0.851547
 21
216.636
  0
LINE
  8
0
 10
-0.851547
 20
216.636
 11
-0.736237
 21
216.686
  0
LINE
  8
0
 10
-0.736237
 20
216.686
 11
-0.618027
 21
216.728
  0
LINE
  8
0
 10
-0.618027
 20
216.728
 11
-0.497375
 21
216.763
  0
LINE
  8
0
 10
-0.497375
 20
216.763
 11
-0.374756
 21
216.791
  0
LINE
  8
0
 10
-0.374756
 20
216.791
 11
-0.250656
 21
216.81
  0
LINE
  8
0
 10
-0.250656
 20
216.81
 11
-0.12558
 21
216.822
  0
LINE
  8
0
 10
-0.12558
 20
216.822
 11
0
 21
216.826
  0
LINE
  8
0
 10
0
 20
216.826
 11
0.12558
 21
216.822
  0
LINE
  8
0
 10
0.12558
 20
216.822
 11
0.250656
 21
216.81
  0
LINE
  8
0
 10
0.250656
 20
216.81
 11
0.374756
 21
216.791
  0
LINE
  8
0
 10
0.374756
 20
216.791
 11
0.497375
 21
216.763
  0
LINE
  8
0
 10
0.497375
 20
216.763
 11
0.618027
 21
216.728
  0
LINE
  8
0
 10
0.618027
 20
216.728
 11
0.736237
 21
216.686
  0
LINE
  8
0
 10
0.736237
 20
216.686
 11
0.851547
 21
216.636
  0
LINE
  8
0
 10
0.851547
 20
216.636
 11
0.963501
 21
216.579
  0
LINE
  8
0
 10
0.963501
 20
216.579
 11
1.07164
 21
216.515
  0
LINE
  8
0
 10
1.07164
 20
216.515
 11
1.17557
 21
216.444
  0
LINE
  8
0
 10
1.17557
 20
216.444
 11
1.27484
 21
216.367
  0
LINE
  8
0
 10
1.27484
 20
216.367
 11
1.36908
 21
216.284
  0
LINE
  8
0
 10
1.36908
 20
216.284
 11
1.45793
 21
216.195
  0
LINE
  8
0
 10
1.45793
 20
216.195
 11
1.54102
 21
216.101
  0
LINE
  8
0
 10
1.54102
 20
216.101
 11
1.61803
 21
216.002
  0
LINE
  8
0
 10
1.61803
 20
216.002
 11
1.68864
 21
215.898
  0
LINE
  8
0
 10
1.68864
 20
215.898
 11
1.75261
 21
215.79
  0
LINE
  8
0
 10
1.75261
 20
215.79
 11
1.80965
 21
215.678
  0
LINE
  8
0
 10
1.80965
 20
215.678
 11
1.85954
 21
215.562
  0
LINE
  8
0
 10
1.85954
 20
215.562
 11
1.9021
 21
215.444
  0
LINE
  8
0
 10
1.9021
 20
215.444
 11
1.93716
 21
215.324
  0
LINE
  8
0
 10
1.93716
 20
215.324
 11
1.96457
 21
215.201
  0
LINE
  8
0
 10
1.96457
 20
215.201
 11
1.98422
 21
215.077
  0
LINE
  8
0
 10
1.98422
 20
215.077
 11
1.99605
 21
214.952
  0
LINE
  8
0
 10
1.99605
 20
214.952
 11
2
 21
214.826
  0
LINE
  8
0
 10
2
 20
214.826
 11
1.99605
 21
214.701
  0
LINE
  8
0
 10
1.99605
 20
214.701
 11
1.98422
 21
214.576
  0
LINE
  8
0
 10
1.98422
 20
214.576
 11
1.96457
 21
214.451
  0
LINE
  8
0
 10
1.96457
 20
214.451
 11
1.93716
 21
214.329
  0
LINE
  8
0
 10
1.93716
 20
214.329
 11
1.9021
 21
214.208
  0
LINE
  8
0
 10
1.9021
 20
214.208
 11
1.85954
 21
214.09
  0
LINE
  8
0
 10
1.85954
 20
214.09
 11
1.80965
 21
213.975
  0
LINE
  8
0
 10
1.80965
 20
213.975
 11
1.75261
 21
213.863
  0
LINE
  8
0
 10
1.75261
 20
213.863
 11
1.68864
 21
213.755
  0
LINE
  8
0
 10
1.68864
 20
213.755
 11
1.61803
 21
213.651
  0
LINE
  8
0
 10
1.61803
 20
213.651
 11
1.54102
 21
213.551
  0
LINE
  8
0
 10
1.54102
 20
213.551
 11
1.45793
 21
213.457
  0
LINE
  8
0
 10
1.45793
 20
213.457
 11
1.36908
 21
213.368
  0
LINE
  8
0
 10
1.36908
 20
213.368
 11
1.27484
 21
213.285
  0
LINE
  8
0
 10
1.27484
 20
213.285
 11
1.17557
 21
213.208
  0
LINE
  8
0
 10
1.17557
 20
213.208
 11
1.07164
 21
213.138
  0
LINE
  8
0
 10
1.07164
 20
213.138
 11
0.963501
 21
213.074
  0
LINE
  8
0
 10
0.963501
 20
213.074
 11
0.851547
 21
213.017
  0
LINE
  8
0
 10
0.851547
 20
213.017
 11
0.736237
 21
212.967
  0
LINE
  8
0
 10
0.736237
 20
212.967
 11
0.618027
 21
212.924
  0
LINE
  8
0
 10
0.618027
 20
212.924
 11
0.497375
 21
212.889
  0
LINE
  8
0
 10
0.497375
 20
212.889
 11
0.374756
 21
212.862
  0
LINE
  8
0
 10
0.374756
 20
212.862
 11
0.250656
 21
212.842
  0
LINE
  8
0
 10
0.250656
 20
212.842
 11
0.12558
 21
212.83
  0
LINE
  8
0
 10
0.12558
 20
212.83
 11
0
 21
212.826
  0
LINE
  8
0
 10
0
 20
212.826
 11
-0.12558
 21
212.83
  0
LINE
  8
0
 10
-3.05441
 20
182.593
 11
0
 21
191.993
  0
LINE
  8
0
 10
0
 20
191.993
 11
3.05435
 21
182.593
  0
LINE
  8
0
 10
3.05435
 20
182.593
 11
0
 21
180.83
  0
LINE
  8
0
 10
0
 20
180.83
 11
-3.05441
 21
182.593
  0
LINE
  8
0
 10
1.49994
 20
179.386
 11
3.68634
 21
180.648
  0
LINE
  8
0
 10
3.68634
 20
180.648
 11
4.69611
 21
177.54
  0
LINE
  8
0
 10
4.69611
 20
177.54
 11
1.49994
 21
179.386
  0
LINE
  8
0
 10
-5.18695
 20
176.03
 11
-3.6864
 21
180.648
  0
LINE
  8
0
 10
-3.6864
 20
180.648
 11
4.7493
 21
175.777
  0
LINE
  8
0
 10
4.7493
 20
175.777
 11
0
 21
173.035
  0
LINE
  8
0
 10
0
 20
173.035
 11
-5.18695
 21
176.03
  0
LINE
  8
0
 10
0.750351
 20
171.735
 11
5.66106
 21
174.57
  0
LINE
  8
0
 10
5.66106
 20
174.57
 11
7.16162
 21
169.952
  0
LINE
  8
0
 10
7.16162
 20
169.952
 11
0.750732
 21
166.251
  0
LINE
  8
0
 10
0.750732
 20
166.251
 11
0.750351
 21
171.735
  0
LINE
  8
0
 10
-5.50003
 20
174.477
 11
-0.749969
 21
171.735
  0
LINE
  8
0
 10
-0.749969
 20
171.735
 11
-0.749969
 21
165.385
  0
LINE
  8
0
 10
-0.749969
 20
165.385
 11
-5.50003
 21
162.643
  0
LINE
  8
0
 10
-5.50003
 20
162.643
 11
-5.50003
 21
174.477
  0
LINE
  8
0
 10
-7.16158
 20
169.952
 11
-7.00031
 21
170.449
  0
LINE
  8
0
 10
-7.00031
 20
170.449
 11
-7.00035
 21
169.859
  0
LINE
  8
0
 10
-7.00035
 20
169.859
 11
-7.16158
 21
169.952
  0
LINE
  8
0
 10
-7.79352
 20
168.007
 11
-7.50046
 21
167.838
  0
LINE
  8
0
 10
-7.50046
 20
167.838
 11
-7.50046
 21
162.066
  0
LINE
  8
0
 10
-7.50046
 20
162.066
 11
-10.2377
 21
160.485
  0
LINE
  8
0
 10
-10.2377
 20
160.485
 11
-7.79352
 21
168.007
  0
LINE
  8
0
 10
7.50046
 20
162.065
 11
7.50046
 21
167.838
  0
LINE
  8
0
 10
7.50046
 20
167.838
 11
7.79361
 21
168.007
  0
LINE
  8
0
 10
7.79361
 20
168.007
 11
10.2377
 21
160.485
  0
LINE
  8
0
 10
10.2377
 20
160.485
 11
7.50046
 21
162.065
  0
LINE
  8
0
 10
0.749969
 20
158.168
 11
0.749969
 21
164.519
  0
LINE
  8
0
 10
0.749969
 20
164.519
 11
5.50003
 21
167.261
  0
LINE
  8
0
 10
5.50003
 20
167.261
 11
5.50003
 21
155.426
  0
LINE
  8
0
 10
5.50003
 20
155.426
 11
0.749969
 21
158.168
  0
LINE
  8
0
 10
-11.0001
 20
157.735
 11
-0.750732
 21
163.652
  0
LINE
  8
0
 10
-0.750732
 20
163.652
 11
-0.750351
 21
158.168
  0
LINE
  8
0
 10
-0.750351
 20
158.168
 11
-6.25038
 21
154.993
  0
LINE
  8
0
 10
-6.25038
 20
154.993
 11
-11.0001
 21
157.735
  0
LINE
  8
0
 10
6.99997
 20
154.56
 11
7.00035
 21
160.044
  0
LINE
  8
0
 10
7.00035
 20
160.044
 11
11.1616
 21
157.642
  0
LINE
  8
0
 10
11.1616
 20
157.642
 11
13.0849
 21
151.722
  0
LINE
  8
0
 10
13.0849
 20
151.722
 11
12.5
 21
151.384
  0
LINE
  8
0
 10
12.5
 20
151.384
 11
6.99997
 21
154.56
  0
LINE
  8
0
 10
-4.7493
 20
154.126
 11
0
 21
156.868
  0
LINE
  8
0
 10
0
 20
156.868
 11
5.50003
 21
153.693
  0
LINE
  8
0
 10
5.50003
 20
153.693
 11
5.49965
 21
148.209
  0
LINE
  8
0
 10
5.49965
 20
148.209
 11
-4.7493
 21
154.126
  0
LINE
  8
0
 10
-13.085
 20
151.722
 11
-11.5844
 21
156.34
  0
LINE
  8
0
 10
-11.5844
 20
156.34
 11
-7.7507
 21
154.127
  0
LINE
  8
0
 10
-7.7507
 20
154.127
 11
-12.5
 21
151.384
  0
LINE
  8
0
 10
-12.5
 20
151.384
 11
-13.085
 21
151.722
  0
LINE
  8
0
 10
-11.7496
 20
150.085
 11
-6.24962
 21
153.26
  0
LINE
  8
0
 10
-6.24962
 20
153.26
 11
-1.49994
 21
150.518
  0
LINE
  8
0
 10
-1.49994
 20
150.518
 11
-11.7493
 21
144.6
  0
LINE
  8
0
 10
-11.7493
 20
144.6
 11
-11.7496
 21
150.085
  0
LINE
  8
0
 10
6.99997
 20
152.827
 11
11.75
 21
150.085
  0
LINE
  8
0
 10
11.75
 20
150.085
 11
11.75
 21
143.734
  0
LINE
  8
0
 10
11.75
 20
143.734
 11
6.99997
 21
140.992
  0
LINE
  8
0
 10
6.99997
 20
140.992
 11
6.99997
 21
152.827
  0
LINE
  8
0
 10
-13.559
 20
150.263
 11
-13.25
 21
150.085
  0
LINE
  8
0
 10
-13.25
 20
150.085
 11
-13.25
 21
143.734
  0
LINE
  8
0
 10
-13.25
 20
143.734
 11
-16.2416
 21
142.007
  0
LINE
  8
0
 10
-16.2416
 20
142.007
 11
-13.559
 21
150.263
  0
LINE
  8
0
 10
13.2504
 20
150.085
 11
13.5591
 21
150.263
  0
LINE
  8
0
 10
13.5591
 20
150.263
 11
15.0596
 21
145.645
  0
LINE
  8
0
 10
15.0596
 20
145.645
 11
13.2507
 21
144.6
  0
LINE
  8
0
 10
13.2507
 20
144.6
 11
13.2504
 21
150.085
  0
LINE
  8
0
 10
-4.99954
 20
140.414
 11
-4.99954
 21
146.187
  0
LINE
  8
0
 10
-4.99954
 20
146.187
 11
0
 21
149.074
  0
LINE
  8
0
 10
0
 20
149.074
 11
4.99954
 21
146.188
  0
LINE
  8
0
 10
4.99954
 20
146.188
 11
4.99954
 21
140.415
  0
LINE
  8
0
 10
4.99954
 20
140.415
 11
0
 21
137.528
  0
LINE
  8
0
 10
0
 20
137.528
 11
-4.99954
 21
140.414
  0
LINE
  8
0
 10
-11.75
 20
136.517
 11
-11.75
 21
142.868
  0
LINE
  8
0
 10
-11.75
 20
142.868
 11
-6.99997
 21
145.61
  0
LINE
  8
0
 10
-6.99997
 20
145.61
 11
-6.99997
 21
133.775
  0
LINE
  8
0
 10
-6.99997
 20
133.775
 11
-11.75
 21
136.517
  0
LINE
  8
0
 10
13.25
 20
136.517
 11
13.25
 21
142.868
  0
LINE
  8
0
 10
13.25
 20
142.868
 11
15.5335
 21
144.186
  0
LINE
  8
0
 10
15.5335
 20
144.186
 11
18
 21
136.595
  0
LINE
  8
0
 10
18
 20
136.595
 11
18
 21
133.775
  0
LINE
  8
0
 10
18
 20
133.775
 11
13.25
 21
136.517
  0
LINE
  8
0
 10
1.49994
 20
136.084
 11
11.7493
 21
142.002
  0
LINE
  8
0
 10
11.7493
 20
142.002
 11
11.7496
 21
136.517
  0
LINE
  8
0
 10
11.7496
 20
136.517
 11
6.24962
 21
133.342
  0
LINE
  8
0
 10
6.24962
 20
133.342
 11
1.49994
 21
136.084
  0
LINE
  8
0
 10
-19.0086
 20
133.491
 11
-16.9343
 21
139.875
  0
LINE
  8
0
 10
-16.9343
 20
139.875
 11
-13.2507
 21
142.002
  0
LINE
  8
0
 10
-13.2507
 20
142.002
 11
-13.2504
 21
136.517
  0
LINE
  8
0
 10
-13.2504
 20
136.517
 11
-18.7504
 21
133.342
  0
LINE
  8
0
 10
-18.7504
 20
133.342
 11
-19.0086
 21
133.491
  0
LINE
  8
0
 10
-5.50003
 20
132.909
 11
-5.49965
 21
138.393
  0
LINE
  8
0
 10
-5.49965
 20
138.393
 11
4.7493
 21
132.476
  0
LINE
  8
0
 10
4.7493
 20
132.476
 11
0
 21
129.734
  0
LINE
  8
0
 10
0
 20
129.734
 11
-5.50003
 21
132.909
  0
LINE
  8
0
 10
7.7507
 20
132.475
 11
12.5
 21
135.218
  0
LINE
  8
0
 10
12.5
 20
135.218
 11
18
 21
132.042
  0
LINE
  8
0
 10
18
 20
132.042
 11
17.9996
 21
126.558
  0
LINE
  8
0
 10
17.9996
 20
126.558
 11
7.7507
 21
132.475
  0
LINE
  8
0
 10
-17.2493
 20
132.475
 11
-12.5
 21
135.218
  0
LINE
  8
0
 10
-12.5
 20
135.218
 11
-6.99997
 21
132.042
  0
LINE
  8
0
 10
-6.99997
 20
132.042
 11
-7.00035
 21
126.558
  0
LINE
  8
0
 10
-7.00035
 20
126.558
 11
-17.2493
 21
132.475
  0
LINE
  8
0
 10
-19.821
 20
130.991
 11
-18.7496
 21
131.609
  0
LINE
  8
0
 10
-18.7496
 20
131.609
 11
-13.9999
 21
128.867
  0
LINE
  8
0
 10
-13.9999
 20
128.867
 11
-22.0145
 21
124.24
  0
LINE
  8
0
 10
-22.0145
 20
124.24
 11
-19.821
 21
130.991
  0
LINE
  8
0
 10
0.750351
 20
128.434
 11
6.25038
 21
131.609
  0
LINE
  8
0
 10
6.25038
 20
131.609
 11
11.0001
 21
128.867
  0
LINE
  8
0
 10
11.0001
 20
128.867
 11
0.750732
 21
122.95
  0
LINE
  8
0
 10
0.750732
 20
122.95
 11
0.750351
 21
128.434
  0
LINE
  8
0
 10
-5.50003
 20
131.176
 11
-0.749969
 21
128.434
  0
LINE
  8
0
 10
-0.749969
 20
128.434
 11
-0.749969
 21
122.083
  0
LINE
  8
0
 10
-0.749969
 20
122.083
 11
-5.50003
 21
119.341
  0
LINE
  8
0
 10
-5.50003
 20
119.341
 11
-5.50003
 21
131.176
  0
LINE
  8
0
 10
19.5
 20
131.176
 11
19.821
 21
130.991
  0
LINE
  8
0
 10
19.821
 20
130.991
 11
22.9576
 21
121.337
  0
LINE
  8
0
 10
22.9576
 20
121.337
 11
19.5
 21
119.341
  0
LINE
  8
0
 10
19.5
 20
119.341
 11
19.5
 21
131.176
  0
LINE
  8
0
 10
-17.4995
 20
118.764
 11
-17.4995
 21
124.537
  0
LINE
  8
0
 10
-17.4995
 20
124.537
 11
-12.5
 21
127.423
  0
LINE
  8
0
 10
-12.5
 20
127.423
 11
-7.50046
 21
124.537
  0
LINE
  8
0
 10
-7.50046
 20
124.537
 11
-7.50046
 21
118.764
  0
LINE
  8
0
 10
-7.50046
 20
118.764
 11
-12.5
 21
115.878
  0
LINE
  8
0
 10
-12.5
 20
115.878
 11
-17.4995
 21
118.764
  0
LINE
  8
0
 10
7.50046
 20
118.764
 11
7.50046
 21
124.537
  0
LINE
  8
0
 10
7.50046
 20
124.537
 11
12.5
 21
127.423
  0
LINE
  8
0
 10
12.5
 20
127.423
 11
17.4995
 21
124.537
  0
LINE
  8
0
 10
17.4995
 20
124.537
 11
17.4995
 21
118.764
  0
LINE
  8
0
 10
17.4995
 20
118.764
 11
12.5
 21
115.878
  0
LINE
  8
0
 10
12.5
 20
115.878
 11
7.50046
 21
118.764
  0
LINE
  8
0
 10
0.749969
 20
114.867
 11
0.749969
 21
121.217
  0
LINE
  8
0
 10
0.749969
 20
121.217
 11
5.50003
 21
123.959
  0
LINE
  8
0
 10
5.50003
 20
123.959
 11
5.50003
 21
112.125
  0
LINE
  8
0
 10
5.50003
 20
112.125
 11
0.749969
 21
114.867
  0
LINE
  8
0
 10
-24.25
 20
114.867
 11
-24.25
 21
117.36
  0
LINE
  8
0
 10
-24.25
 20
117.36
 11
-22.7072
 21
122.108
  0
LINE
  8
0
 10
-22.7072
 20
122.108
 11
-19.5
 21
123.959
  0
LINE
  8
0
 10
-19.5
 20
123.959
 11
-19.5
 21
112.125
  0
LINE
  8
0
 10
-19.5
 20
112.125
 11
-24.25
 21
114.867
  0
LINE
  8
0
 10
-11.0001
 20
114.434
 11
-0.750732
 21
120.351
  0
LINE
  8
0
 10
-0.750732
 20
120.351
 11
-0.750351
 21
114.867
  0
LINE
  8
0
 10
-0.750351
 20
114.867
 11
-6.25038
 21
111.691
  0
LINE
  8
0
 10
-6.25038
 20
111.691
 11
-11.0001
 21
114.434
  0
LINE
  8
0
 10
13.9999
 20
114.434
 11
23.4314
 21
119.879
  0
LINE
  8
0
 10
23.4314
 20
119.879
 11
24.2495
 21
117.361
  0
LINE
  8
0
 10
24.2495
 20
117.361
 11
24.2496
 21
114.867
  0
LINE
  8
0
 10
24.2496
 20
114.867
 11
18.7496
 21
111.691
  0
LINE
  8
0
 10
18.7496
 20
111.691
 11
13.9999
 21
114.434
  0
LINE
  8
0
 10
6.99997
 20
111.258
 11
7.00035
 21
116.743
  0
LINE
  8
0
 10
7.00035
 20
116.743
 11
17.2493
 21
110.825
  0
LINE
  8
0
 10
17.2493
 20
110.825
 11
12.5
 21
108.083
  0
LINE
  8
0
 10
12.5
 20
108.083
 11
6.99997
 21
111.258
  0
LINE
  8
0
 10
-18
 20
111.258
 11
-17.9996
 21
116.743
  0
LINE
  8
0
 10
-17.9996
 20
116.743
 11
-7.7507
 21
110.825
  0
LINE
  8
0
 10
-7.7507
 20
110.825
 11
-12.5
 21
108.083
  0
LINE
  8
0
 10
-12.5
 20
108.083
 11
-18
 21
111.258
  0
LINE
  8
0
 10
20.2507
 20
110.825
 11
25
 21
113.567
  0
LINE
  8
0
 10
25
 20
113.567
 11
25.5935
 21
113.225
  0
LINE
  8
0
 10
25.5935
 20
113.225
 11
27.787
 21
106.474
  0
LINE
  8
0
 10
27.787
 20
106.474
 11
20.2507
 21
110.825
  0
LINE
  8
0
 10
-26.9065
 20
109.184
 11
-25.5935
 21
113.225
  0
LINE
  8
0
 10
-25.5935
 20
113.225
 11
-25
 21
113.567
  0
LINE
  8
0
 10
-25
 20
113.567
 11
-19.5
 21
110.392
  0
LINE
  8
0
 10
-19.5
 20
110.392
 11
-19.5004
 21
104.908
  0
LINE
  8
0
 10
-19.5004
 20
104.908
 11
-26.9065
 21
109.184
  0
LINE
  8
0
 10
-4.7493
 20
110.825
 11
0
 21
113.567
  0
LINE
  8
0
 10
0
 20
113.567
 11
5.50003
 21
110.392
  0
LINE
  8
0
 10
5.50003
 20
110.392
 11
5.49965
 21
104.908
  0
LINE
  8
0
 10
5.49965
 20
104.908
 11
-4.7493
 21
110.825
  0
LINE
  8
0
 10
13.2504
 20
106.784
 11
18.7504
 21
109.959
  0
LINE
  8
0
 10
18.7504
 20
109.959
 11
23.5001
 21
107.217
  0
LINE
  8
0
 10
23.5001
 20
107.217
 11
13.2507
 21
101.299
  0
LINE
  8
0
 10
13.2507
 20
101.299
 11
13.2504
 21
106.784
  0
LINE
  8
0
 10
-11.7496
 20
106.784
 11
-6.24962
 21
109.959
  0
LINE
  8
0
 10
-6.24962
 20
109.959
 11
-1.49994
 21
107.217
  0
LINE
  8
0
 10
-1.49994
 20
107.217
 11
-11.7493
 21
101.299
  0
LINE
  8
0
 10
-11.7493
 20
101.299
 11
-11.7496
 21
106.784
  0
LINE
  8
0
 10
6.99997
 20
109.526
 11
11.75
 21
106.784
  0
LINE
  8
0
 10
11.75
 20
106.784
 11
11.75
 21
100.433
  0
LINE
  8
0
 10
11.75
 20
100.433
 11
6.99997
 21
97.691
  0
LINE
  8
0
 10
6.99997
 20
97.691
 11
6.99997
 21
109.526
  0
LINE
  8
0
 10
-18
 20
109.526
 11
-13.25
 21
106.784
  0
LINE
  8
0
 10
-13.25
 20
106.784
 11
-13.25
 21
100.433
  0
LINE
  8
0
 10
-13.25
 20
100.433
 11
-18
 21
97.691
  0
LINE
  8
0
 10
-18
 20
97.691
 11
-18
 21
109.526
  0
LINE
  8
0
 10
-27.3805
 20
107.725
 11
-26.4999
 21
107.217
  0
LINE
  8
0
 10
-26.4999
 20
107.217
 11
-27.7871
 21
106.474
  0
LINE
  8
0
 10
-27.7871
 20
106.474
 11
-27.3805
 21
107.725
  0
LINE
  8
0
 10
-29.9995
 20
97.1134
 11
-29.9995
 21
99.6644
  0
LINE
  8
0
 10
-29.9995
 20
99.6644
 11
-28.711
 21
103.63
  0
LINE
  8
0
 10
-28.711
 20
103.63
 11
-25
 21
105.773
  0
LINE
  8
0
 10
-25
 20
105.773
 11
-20.0005
 21
102.887
  0
LINE
  8
0
 10
-20.0005
 20
102.887
 11
-20.0005
 21
97.1138
  0
LINE
  8
0
 10
-20.0005
 20
97.1138
 11
-25
 21
94.2272
  0
LINE
  8
0
 10
-25
 20
94.2272
 11
-29.9995
 21
97.1134
  0
LINE
  8
0
 10
20.0005
 20
97.1134
 11
20.0005
 21
102.886
  0
LINE
  8
0
 10
20.0005
 20
102.886
 11
25
 21
105.773
  0
LINE
  8
0
 10
25
 20
105.773
 11
28.7108
 21
103.631
  0
LINE
  8
0
 10
28.7108
 20
103.631
 11
29.9995
 21
99.6644
  0
LINE
  8
0
 10
29.9995
 20
99.6644
 11
29.9995
 21
97.1138
  0
LINE
  8
0
 10
29.9995
 20
97.1138
 11
25
 21
94.2272
  0
LINE
  8
0
 10
25
 20
94.2272
 11
20.0005
 21
97.1134
  0
LINE
  8
0
 10
-4.99954
 20
97.1134
 11
-4.99954
 21
102.886
  0
LINE
  8
0
 10
-4.99954
 20
102.886
 11
0
 21
105.773
  0
LINE
  8
0
 10
0
 20
105.773
 11
4.99954
 21
102.887
  0
LINE
  8
0
 10
4.99954
 20
102.887
 11
4.99954
 21
97.1138
  0
LINE
  8
0
 10
4.99954
 20
97.1138
 11
0
 21
94.2272
  0
LINE
  8
0
 10
0
 20
94.2272
 11
-4.99954
 21
97.1134
  0
LINE
  8
0
 10
13.25
 20
93.2163
 11
13.25
 21
99.567
  0
LINE
  8
0
 10
13.25
 20
99.567
 11
18
 21
102.309
  0
LINE
  8
0
 10
18
 20
102.309
 11
18
 21
90.4743
  0
LINE
  8
0
 10
18
 20
90.4743
 11
13.25
 21
93.2163
  0
LINE
  8
0
 10
-11.75
 20
93.2163
 11
-11.75
 21
99.567
  0
LINE
  8
0
 10
-11.75
 20
99.567
 11
-6.99997
 21
102.309
  0
LINE
  8
0
 10
-6.99997
 20
102.309
 11
-6.99997
 21
90.4743
  0
LINE
  8
0
 10
-6.99997
 20
90.4743
 11
-11.75
 21
93.2163
  0
LINE
  8
0
 10
1.49994
 20
92.7834
 11
11.7493
 21
98.7007
  0
LINE
  8
0
 10
11.7493
 20
98.7007
 11
11.7496
 21
93.2163
  0
LINE
  8
0
 10
11.7496
 20
93.2163
 11
6.24962
 21
90.041
  0
LINE
  8
0
 10
6.24962
 20
90.041
 11
1.49994
 21
92.7834
  0
LINE
  8
0
 10
-23.5001
 20
92.7834
 11
-13.2507
 21
98.7007
  0
LINE
  8
0
 10
-13.2507
 20
98.7007
 11
-13.2504
 21
93.2163
  0
LINE
  8
0
 10
-13.2504
 20
93.2163
 11
-18.7504
 21
90.041
  0
LINE
  8
0
 10
-18.7504
 20
90.041
 11
-23.5001
 21
92.7834
  0
LINE
  8
0
 10
26.4999
 20
92.7834
 11
31.3294
 21
95.5716
  0
LINE
  8
0
 10
31.3294
 20
95.5716
 11
32.8299
 21
90.9533
  0
LINE
  8
0
 10
32.8299
 20
90.9533
 11
31.2496
 21
90.041
  0
LINE
  8
0
 10
31.2496
 20
90.041
 11
26.4999
 21
92.7834
  0
LINE
  8
0
 10
-5.50003
 20
89.608
 11
-5.49965
 21
95.0924
  0
LINE
  8
0
 10
-5.49965
 20
95.0924
 11
4.7493
 21
89.175
  0
LINE
  8
0
 10
4.7493
 20
89.175
 11
0
 21
86.4326
  0
LINE
  8
0
 10
0
 20
86.4326
 11
-5.50003
 21
89.608
  0
LINE
  8
0
 10
-30.5
 20
89.608
 11
-30.4996
 21
95.0924
  0
LINE
  8
0
 10
-30.4996
 20
95.0924
 11
-20.2507
 21
89.175
  0
LINE
  8
0
 10
-20.2507
 20
89.175
 11
-25
 21
86.4326
  0
LINE
  8
0
 10
-25
 20
86.4326
 11
-30.5
 21
89.608
  0
LINE
  8
0
 10
19.5
 20
89.608
 11
19.5004
 21
95.0924
  0
LINE
  8
0
 10
19.5004
 20
95.0924
 11
29.7493
 21
89.175
  0
LINE
  8
0
 10
29.7493
 20
89.175
 11
25
 21
86.4326
  0
LINE
  8
0
 10
25
 20
86.4326
 11
19.5
 21
89.608
  0
LINE
  8
0
 10
-32.8299
 20
90.9534
 11
-32
 21
93.5077
  0
LINE
  8
0
 10
-32
 20
93.5077
 11
-32
 21
90.4743
  0
LINE
  8
0
 10
-32
 20
90.4743
 11
-32.8299
 21
90.9534
  0
LINE
  8
0
 10
-17.2493
 20
89.1747
 11
-12.5
 21
91.917
  0
LINE
  8
0
 10
-12.5
 20
91.917
 11
-6.99997
 21
88.7417
  0
LINE
  8
0
 10
-6.99997
 20
88.7417
 11
-7.00035
 21
83.2573
  0
LINE
  8
0
 10
-7.00035
 20
83.2573
 11
-17.2493
 21
89.1747
  0
LINE
  8
0
 10
7.7507
 20
89.1747
 11
12.5
 21
91.917
  0
LINE
  8
0
 10
12.5
 20
91.917
 11
18
 21
88.7417
  0
LINE
  8
0
 10
18
 20
88.7417
 11
17.9996
 21
83.2573
  0
LINE
  8
0
 10
17.9996
 20
83.2573
 11
7.7507
 21
89.1747
  0
LINE
  8
0
 10
-34.8045
 20
84.8763
 11
-33.3039
 21
89.4945
  0
LINE
  8
0
 10
-33.3039
 20
89.4945
 11
-32
 21
88.7417
  0
LINE
  8
0
 10
-32
 20
88.7417
 11
-32.0004
 21
83.2573
  0
LINE
  8
0
 10
-32.0004
 20
83.2573
 11
-34.8045
 21
84.8763
  0
LINE
  8
0
 10
32.7507
 20
89.1747
 11
33.304
 21
89.4942
  0
LINE
  8
0
 10
33.304
 20
89.4942
 11
33.5596
 21
88.7076
  0
LINE
  8
0
 10
33.5596
 20
88.7076
 11
32.7507
 21
89.1747
  0
LINE
  8
0
 10
0.750351
 20
85.1334
 11
6.25038
 21
88.3087
  0
LINE
  8
0
 10
6.25038
 20
88.3087
 11
11.0001
 21
85.5663
  0
LINE
  8
0
 10
11.0001
 20
85.5663
 11
0.750732
 21
79.649
  0
LINE
  8
0
 10
0.750732
 20
79.649
 11
0.750351
 21
85.1334
  0
LINE
  8
0
 10
25.7504
 20
85.1334
 11
31.2504
 21
88.3087
  0
LINE
  8
0
 10
31.2504
 20
88.3087
 11
34.2524
 21
86.5754
  0
LINE
  8
0
 10
34.2524
 20
86.5754
 11
34.8045
 21
84.8761
  0
LINE
  8
0
 10
34.8045
 20
84.8761
 11
25.7507
 21
79.649
  0
LINE
  8
0
 10
25.7507
 20
79.649
 11
25.7504
 21
85.1334
  0
LINE
  8
0
 10
-24.2496
 20
85.1334
 11
-18.7496
 21
88.3087
  0
LINE
  8
0
 10
-18.7496
 20
88.3087
 11
-13.9999
 21
85.5663
  0
LINE
  8
0
 10
-13.9999
 20
85.5663
 11
-24.2493
 21
79.649
  0
LINE
  8
0
 10
-24.2493
 20
79.649
 11
-24.2496
 21
85.1334
  0
LINE
  8
0
 10
-30.5
 20
87.8754
 11
-25.75
 21
85.1334
  0
LINE
  8
0
 10
-25.75
 20
85.1334
 11
-25.75
 21
78.7827
  0
LINE
  8
0
 10
-25.75
 20
78.7827
 11
-30.5
 21
76.0406
  0
LINE
  8
0
 10
-30.5
 20
76.0406
 11
-30.5
 21
87.8754
  0
LINE
  8
0
 10
19.5
 20
87.8754
 11
24.25
 21
85.1334
  0
LINE
  8
0
 10
24.25
 20
85.1334
 11
24.25
 21
78.7827
  0
LINE
  8
0
 10
24.25
 20
78.7827
 11
19.5
 21
76.0406
  0
LINE
  8
0
 10
19.5
 20
76.0406
 11
19.5
 21
87.8754
  0
LINE
  8
0
 10
-5.50003
 20
87.8754
 11
-0.749969
 21
85.1334
  0
LINE
  8
0
 10
-0.749969
 20
85.1334
 11
-0.749969
 21
78.7827
  0
LINE
  8
0
 10
-0.749969
 20
78.7827
 11
-5.50003
 21
76.0406
  0
LINE
  8
0
 10
-5.50003
 20
76.0406
 11
-5.50003
 21
87.8754
  0
LINE
  8
0
 10
-17.4995
 20
75.4631
 11
-17.4995
 21
81.2359
  0
LINE
  8
0
 10
-17.4995
 20
81.2359
 11
-12.5
 21
84.1225
  0
LINE
  8
0
 10
-12.5
 20
84.1225
 11
-7.50046
 21
81.2363
  0
LINE
  8
0
 10
-7.50046
 20
81.2363
 11
-7.50046
 21
75.4635
  0
LINE
  8
0
 10
-7.50046
 20
75.4635
 11
-12.5
 21
72.5769
  0
LINE
  8
0
 10
-12.5
 20
72.5769
 11
-17.4995
 21
75.4631
  0
LINE
  8
0
 10
7.50046
 20
75.4631
 11
7.50046
 21
81.2359
  0
LINE
  8
0
 10
7.50046
 20
81.2359
 11
12.5
 21
84.1225
  0
LINE
  8
0
 10
12.5
 20
84.1225
 11
17.4995
 21
81.2363
  0
LINE
  8
0
 10
17.4995
 20
81.2363
 11
17.4995
 21
75.4635
  0
LINE
  8
0
 10
17.4995
 20
75.4635
 11
12.5
 21
72.5769
  0
LINE
  8
0
 10
12.5
 20
72.5769
 11
7.50046
 21
75.4631
  0
LINE
  8
0
 10
-38.5953
 20
73.2092
 11
-35.4365
 21
82.9312
  0
LINE
  8
0
 10
-35.4365
 20
82.9312
 11
-32.5005
 21
81.2363
  0
LINE
  8
0
 10
-32.5005
 20
81.2363
 11
-32.5005
 21
75.4635
  0
LINE
  8
0
 10
-32.5005
 20
75.4635
 11
-37.5
 21
72.5769
  0
LINE
  8
0
 10
-37.5
 20
72.5769
 11
-38.5953
 21
73.2092
  0
LINE
  8
0
 10
32.5005
 20
75.4631
 11
32.5005
 21
81.2359
  0
LINE
  8
0
 10
32.5005
 20
81.2359
 11
35.4365
 21
82.9311
  0
LINE
  8
0
 10
35.4365
 20
82.9311
 11
38.5953
 21
73.2093
  0
LINE
  8
0
 10
38.5953
 20
73.2093
 11
37.5
 21
72.5769
  0
LINE
  8
0
 10
37.5
 20
72.5769
 11
32.5005
 21
75.4631
  0
LINE
  8
0
 10
0.749969
 20
71.566
 11
0.749969
 21
77.9167
  0
LINE
  8
0
 10
0.749969
 20
77.9167
 11
5.50003
 21
80.6587
  0
LINE
  8
0
 10
5.50003
 20
80.6587
 11
5.50003
 21
68.824
  0
LINE
  8
0
 10
5.50003
 20
68.824
 11
0.749969
 21
71.566
  0
LINE
  8
0
 10
25.75
 20
71.566
 11
25.75
 21
77.9167
  0
LINE
  8
0
 10
25.75
 20
77.9167
 11
30.5
 21
80.6587
  0
LINE
  8
0
 10
30.5
 20
80.6587
 11
30.5
 21
68.824
  0
LINE
  8
0
 10
30.5
 20
68.824
 11
25.75
 21
71.566
  0
LINE
  8
0
 10
-24.25
 20
71.566
 11
-24.25
 21
77.9167
  0
LINE
  8
0
 10
-24.25
 20
77.9167
 11
-19.5
 21
80.6587
  0
LINE
  8
0
 10
-19.5
 20
80.6587
 11
-19.5
 21
68.824
  0
LINE
  8
0
 10
-19.5
 20
68.824
 11
-24.25
 21
71.566
  0
LINE
  8
0
 10
-36.0001
 20
71.133
 11
-25.7507
 21
77.0504
  0
LINE
  8
0
 10
-25.7507
 20
77.0504
 11
-25.7504
 21
71.566
  0
LINE
  8
0
 10
-25.7504
 20
71.566
 11
-31.2504
 21
68.3907
  0
LINE
  8
0
 10
-31.2504
 20
68.3907
 11
-36.0001
 21
71.133
  0
LINE
  8
0
 10
-11.0001
 20
71.133
 11
-0.750732
 21
77.0504
  0
LINE
  8
0
 10
-0.750732
 20
77.0504
 11
-0.750351
 21
71.566
  0
LINE
  8
0
 10
-0.750351
 20
71.566
 11
-6.25038
 21
68.3907
  0
LINE
  8
0
 10
-6.25038
 20
68.3907
 11
-11.0001
 21
71.133
  0
LINE
  8
0
 10
13.9999
 20
71.133
 11
24.2493
 21
77.0504
  0
LINE
  8
0
 10
24.2493
 20
77.0504
 11
24.2496
 21
71.566
  0
LINE
  8
0
 10
24.2496
 20
71.566
 11
18.7496
 21
68.3907
  0
LINE
  8
0
 10
18.7496
 20
68.3907
 11
13.9999
 21
71.133
  0
LINE
  8
0
 10
32
 20
67.9577
 11
32.0004
 21
73.4421
  0
LINE
  8
0
 10
32.0004
 20
73.4421
 11
40.0251
 21
68.8089
  0
LINE
  8
0
 10
40.0251
 20
68.8089
 11
40.7278
 21
66.6462
  0
LINE
  8
0
 10
40.7278
 20
66.6462
 11
37.5
 21
64.7823
  0
LINE
  8
0
 10
37.5
 20
64.7823
 11
32
 21
67.9577
  0
LINE
  8
0
 10
-18
 20
67.9577
 11
-17.9996
 21
73.4421
  0
LINE
  8
0
 10
-17.9996
 20
73.4421
 11
-7.7507
 21
67.5247
  0
LINE
  8
0
 10
-7.7507
 20
67.5247
 11
-12.5
 21
64.7823
  0
LINE
  8
0
 10
-12.5
 20
64.7823
 11
-18
 21
67.9577
  0
LINE
  8
0
 10
6.99997
 20
67.9577
 11
7.00035
 21
73.4421
  0
LINE
  8
0
 10
7.00035
 20
73.4421
 11
17.2493
 21
67.5247
  0
LINE
  8
0
 10
17.2493
 20
67.5247
 11
12.5
 21
64.7823
  0
LINE
  8
0
 10
12.5
 20
64.7823
 11
6.99997
 21
67.9577
  0
LINE
  8
0
 10
38.9999
 20
71.133
 11
39.2273
 21
71.2643
  0
LINE
  8
0
 10
39.2273
 20
71.2643
 11
39.3323
 21
70.9412
  0
LINE
  8
0
 10
39.3323
 20
70.9412
 11
38.9999
 21
71.133
  0
LINE
  8
0
 10
-40.7279
 20
66.6459
 11
-39.2273
 21
71.2641
  0
LINE
  8
0
 10
-39.2273
 20
71.2641
 11
-32.7507
 21
67.5247
  0
LINE
  8
0
 10
-32.7507
 20
67.5247
 11
-37.5
 21
64.7823
  0
LINE
  8
0
 10
-37.5
 20
64.7823
 11
-40.7279
 21
66.6459
  0
LINE
  8
0
 10
-29.7493
 20
67.524
 11
-25
 21
70.2663
  0
LINE
  8
0
 10
-25
 20
70.2663
 11
-19.5
 21
67.091
  0
LINE
  8
0
 10
-19.5
 20
67.091
 11
-19.5004
 21
61.6066
  0
LINE
  8
0
 10
-19.5004
 20
61.6066
 11
-29.7493
 21
67.524
  0
LINE
  8
0
 10
-4.7493
 20
67.524
 11
0
 21
70.2663
  0
LINE
  8
0
 10
0
 20
70.2663
 11
5.50003
 21
67.091
  0
LINE
  8
0
 10
5.50003
 20
67.091
 11
5.49965
 21
61.6066
  0
LINE
  8
0
 10
5.49965
 20
61.6066
 11
-4.7493
 21
67.524
  0
LINE
  8
0
 10
20.2507
 20
67.524
 11
25
 21
70.2663
  0
LINE
  8
0
 10
25
 20
70.2663
 11
30.5
 21
67.091
  0
LINE
  8
0
 10
30.5
 20
67.091
 11
30.4996
 21
61.6066
  0
LINE
  8
0
 10
30.4996
 20
61.6066
 11
20.2507
 21
67.524
  0
LINE
  8
0
 10
13.2504
 20
63.4827
 11
18.7504
 21
66.658
  0
LINE
  8
0
 10
18.7504
 20
66.658
 11
23.5001
 21
63.9156
  0
LINE
  8
0
 10
23.5001
 20
63.9156
 11
13.2507
 21
57.9983
  0
LINE
  8
0
 10
13.2507
 20
57.9983
 11
13.2504
 21
63.4827
  0
LINE
  8
0
 10
-11.7496
 20
63.4827
 11
-6.24962
 21
66.658
  0
LINE
  8
0
 10
-6.24962
 20
66.658
 11
-1.49994
 21
63.9156
  0
LINE
  8
0
 10
-1.49994
 20
63.9156
 11
-11.7493
 21
57.9983
  0
LINE
  8
0
 10
-11.7493
 20
57.9983
 11
-11.7496
 21
63.4827
  0
LINE
  8
0
 10
-36.7496
 20
63.4827
 11
-31.2496
 21
66.658
  0
LINE
  8
0
 10
-31.2496
 20
66.658
 11
-26.4999
 21
63.9156
  0
LINE
  8
0
 10
-26.4999
 20
63.9156
 11
-36.7493
 21
57.9983
  0
LINE
  8
0
 10
-36.7493
 20
57.9983
 11
-36.7496
 21
63.4827
  0
LINE
  8
0
 10
6.99997
 20
66.2247
 11
11.75
 21
63.4827
  0
LINE
  8
0
 10
11.75
 20
63.4827
 11
11.75
 21
57.132
  0
LINE
  8
0
 10
11.75
 20
57.132
 11
6.99997
 21
54.39
  0
LINE
  8
0
 10
6.99997
 20
54.39
 11
6.99997
 21
66.2247
  0
LINE
  8
0
 10
32
 20
66.2247
 11
36.75
 21
63.4827
  0
LINE
  8
0
 10
36.75
 20
63.4827
 11
36.75
 21
57.132
  0
LINE
  8
0
 10
36.75
 20
57.132
 11
32
 21
54.39
  0
LINE
  8
0
 10
32
 20
54.39
 11
32
 21
66.2247
  0
LINE
  8
0
 10
-18
 20
66.2247
 11
-13.25
 21
63.4827
  0
LINE
  8
0
 10
-13.25
 20
63.4827
 11
-13.25
 21
57.132
  0
LINE
  8
0
 10
-13.25
 20
57.132
 11
-18
 21
54.39
  0
LINE
  8
0
 10
-18
 20
54.39
 11
-18
 21
66.2247
  0
LINE
  8
0
 10
38.2504
 20
63.4827
 11
41.202
 21
65.1868
  0
LINE
  8
0
 10
41.202
 20
65.1868
 11
42.7026
 21
60.5685
  0
LINE
  8
0
 10
42.7026
 20
60.5685
 11
38.2507
 21
57.9983
  0
LINE
  8
0
 10
38.2507
 20
57.9983
 11
38.2504
 21
63.4827
  0
LINE
  8
0
 10
-43
 20
59.653
 11
-41.202
 21
65.1867
  0
LINE
  8
0
 10
-41.202
 20
65.1867
 11
-38.25
 21
63.4827
  0
LINE
  8
0
 10
-38.25
 20
63.4827
 11
-38.25
 21
57.132
  0
LINE
  8
0
 10
-38.25
 20
57.132
 11
-43
 21
54.39
  0
LINE
  8
0
 10
-43
 20
54.39
 11
-43
 21
59.653
  0
LINE
  8
0
 10
20.0005
 20
53.8124
 11
20.0005
 21
59.5852
  0
LINE
  8
0
 10
20.0005
 20
59.5852
 11
25
 21
62.4718
  0
LINE
  8
0
 10
25
 20
62.4718
 11
29.9995
 21
59.5856
  0
LINE
  8
0
 10
29.9995
 20
59.5856
 11
29.9995
 21
53.8128
  0
LINE
  8
0
 10
29.9995
 20
53.8128
 11
25
 21
50.9262
  0
LINE
  8
0
 10
25
 20
50.9262
 11
20.0005
 21
53.8124
  0
LINE
  8
0
 10
-4.99954
 20
53.8124
 11
-4.99954
 21
59.5852
  0
LINE
  8
0
 10
-4.99954
 20
59.5852
 11
0
 21
62.4718
  0
LINE
  8
0
 10
0
 20
62.4718
 11
4.99954
 21
59.5856
  0
LINE
  8
0
 10
4.99954
 20
59.5856
 11
4.99954
 21
53.8128
  0
LINE
  8
0
 10
4.99954
 20
53.8128
 11
0
 21
50.9262
  0
LINE
  8
0
 10
0
 20
50.9262
 11
-4.99954
 21
53.8124
  0
LINE
  8
0
 10
-29.9995
 20
53.8124
 11
-29.9995
 21
59.5852
  0
LINE
  8
0
 10
-29.9995
 20
59.5852
 11
-25
 21
62.4718
  0
LINE
  8
0
 10
-25
 20
62.4718
 11
-20.0005
 21
59.5856
  0
LINE
  8
0
 10
-20.0005
 20
59.5856
 11
-20.0005
 21
53.8128
  0
LINE
  8
0
 10
-20.0005
 20
53.8128
 11
-25
 21
50.9262
  0
LINE
  8
0
 10
-25
 20
50.9262
 11
-29.9995
 21
53.8124
  0
LINE
  8
0
 10
-11.75
 20
49.9153
 11
-11.75
 21
56.266
  0
LINE
  8
0
 10
-11.75
 20
56.266
 11
-6.99997
 21
59.008
  0
LINE
  8
0
 10
-6.99997
 20
59.008
 11
-6.99997
 21
47.1733
  0
LINE
  8
0
 10
-6.99997
 20
47.1733
 11
-11.75
 21
49.9153
  0
LINE
  8
0
 10
-36.75
 20
49.9153
 11
-36.75
 21
56.266
  0
LINE
  8
0
 10
-36.75
 20
56.266
 11
-32
 21
59.008
  0
LINE
  8
0
 10
-32
 20
59.008
 11
-32
 21
47.1733
  0
LINE
  8
0
 10
-32
 20
47.1733
 11
-36.75
 21
49.9153
  0
LINE
  8
0
 10
38.25
 20
49.9153
 11
38.25
 21
56.266
  0
LINE
  8
0
 10
38.25
 20
56.266
 11
43
 21
59.008
  0
LINE
  8
0
 10
43
 20
59.008
 11
43
 21
47.1733
  0
LINE
  8
0
 10
43
 20
47.1733
 11
38.25
 21
49.9153
  0
LINE
  8
0
 10
13.25
 20
49.9153
 11
13.25
 21
56.266
  0
LINE
  8
0
 10
13.25
 20
56.266
 11
18
 21
59.008
  0
LINE
  8
0
 10
18
 20
59.008
 11
18
 21
47.1733
  0
LINE
  8
0
 10
18
 20
47.1733
 11
13.25
 21
49.9153
  0
LINE
  8
0
 10
1.49994
 20
49.4823
 11
11.7493
 21
55.3997
  0
LINE
  8
0
 10
11.7493
 20
55.3997
 11
11.7496
 21
49.9153
  0
LINE
  8
0
 10
11.7496
 20
49.9153
 11
6.24962
 21
46.74
  0
LINE
  8
0
 10
6.24962
 20
46.74
 11
1.49994
 21
49.4823
  0
LINE
  8
0
 10
-46.6515
 20
48.415
 11
-45.7977
 21
51.0425
  0
LINE
  8
0
 10
-45.7977
 20
51.0425
 11
-38.2507
 21
55.3997
  0
LINE
  8
0
 10
-38.2507
 20
55.3997
 11
-38.2504
 21
49.9153
  0
LINE
  8
0
 10
-38.2504
 20
49.9153
 11
-43.7504
 21
46.74
  0
LINE
  8
0
 10
-43.7504
 20
46.74
 11
-46.6515
 21
48.415
  0
LINE
  8
0
 10
26.4999
 20
49.4823
 11
36.7493
 21
55.3997
  0
LINE
  8
0
 10
36.7493
 20
55.3997
 11
36.7496
 21
49.9153
  0
LINE
  8
0
 10
36.7496
 20
49.9153
 11
31.2496
 21
46.74
  0
LINE
  8
0
 10
31.2496
 20
46.74
 11
26.4999
 21
49.4823
  0
LINE
  8
0
 10
-23.5001
 20
49.4823
 11
-13.2507
 21
55.3997
  0
LINE
  8
0
 10
-13.2507
 20
55.3997
 11
-13.2504
 21
49.9153
  0
LINE
  8
0
 10
-13.2504
 20
49.9153
 11
-18.7504
 21
46.74
  0
LINE
  8
0
 10
-18.7504
 20
46.74
 11
-23.5001
 21
49.4823
  0
LINE
  8
0
 10
44.5
 20
46.307
 11
44.5004
 21
51.7914
  0
LINE
  8
0
 10
44.5004
 20
51.7914
 11
45.7978
 21
51.0423
  0
LINE
  8
0
 10
45.7978
 20
51.0423
 11
47.9913
 21
44.2913
  0
LINE
  8
0
 10
47.9913
 20
44.2913
 11
44.5
 21
46.307
  0
LINE
  8
0
 10
-5.50003
 20
46.307
 11
-5.49965
 21
51.7914
  0
LINE
  8
0
 10
-5.49965
 20
51.7914
 11
4.7493
 21
45.874
  0
LINE
  8
0
 10
4.7493
 20
45.874
 11
0
 21
43.1316
  0
LINE
  8
0
 10
0
 20
43.1316
 11
-5.50003
 21
46.307
  0
LINE
  8
0
 10
-30.5
 20
46.307
 11
-30.4996
 21
51.7914
  0
LINE
  8
0
 10
-30.4996
 20
51.7914
 11
-20.2507
 21
45.874
  0
LINE
  8
0
 10
-20.2507
 20
45.874
 11
-25
 21
43.1316
  0
LINE
  8
0
 10
-25
 20
43.1316
 11
-30.5
 21
46.307
  0
LINE
  8
0
 10
19.5
 20
46.307
 11
19.5004
 21
51.7914
  0
LINE
  8
0
 10
19.5004
 20
51.7914
 11
29.7493
 21
45.874
  0
LINE
  8
0
 10
29.7493
 20
45.874
 11
25
 21
43.1316
  0
LINE
  8
0
 10
25
 20
43.1316
 11
19.5
 21
46.307
  0
LINE
  8
0
 10
-42.2493
 20
45.8733
 11
-37.5
 21
48.6156
  0
LINE
  8
0
 10
-37.5
 20
48.6156
 11
-32
 21
45.4403
  0
LINE
  8
0
 10
-32
 20
45.4403
 11
-32.0004
 21
39.9559
  0
LINE
  8
0
 10
-32.0004
 20
39.9559
 11
-42.2493
 21
45.8733
  0
LINE
  8
0
 10
-17.2493
 20
45.8733
 11
-12.5
 21
48.6156
  0
LINE
  8
0
 10
-12.5
 20
48.6156
 11
-6.99997
 21
45.4403
  0
LINE
  8
0
 10
-6.99997
 20
45.4403
 11
-7.00035
 21
39.9559
  0
LINE
  8
0
 10
-7.00035
 20
39.9559
 11
-17.2493
 21
45.8733
  0
LINE
  8
0
 10
32.7507
 20
45.8733
 11
37.5
 21
48.6156
  0
LINE
  8
0
 10
37.5
 20
48.6156
 11
43
 21
45.4403
  0
LINE
  8
0
 10
43
 20
45.4403
 11
42.9996
 21
39.9559
  0
LINE
  8
0
 10
42.9996
 20
39.9559
 11
32.7507
 21
45.8733
  0
LINE
  8
0
 10
7.7507
 20
45.8733
 11
12.5
 21
48.6156
  0
LINE
  8
0
 10
12.5
 20
48.6156
 11
18
 21
45.4403
  0
LINE
  8
0
 10
18
 20
45.4403
 11
17.9996
 21
39.9559
  0
LINE
  8
0
 10
17.9996
 20
39.9559
 11
7.7507
 21
45.8733
  0
LINE
  8
0
 10
-47.1254
 20
46.9564
 11
-45.2507
 21
45.874
  0
LINE
  8
0
 10
-45.2507
 20
45.874
 11
-47.9913
 21
44.2915
  0
LINE
  8
0
 10
-47.9913
 20
44.2915
 11
-47.1254
 21
46.9564
  0
LINE
  8
0
 10
0.750351
 20
41.832
 11
6.25038
 21
45.0073
  0
LINE
  8
0
 10
6.25038
 20
45.0073
 11
11.0001
 21
42.2649
  0
LINE
  8
0
 10
11.0001
 20
42.2649
 11
0.750732
 21
36.3476
  0
LINE
  8
0
 10
0.750732
 20
36.3476
 11
0.750351
 21
41.832
  0
LINE
  8
0
 10
25.7504
 20
41.832
 11
31.2504
 21
45.0073
  0
LINE
  8
0
 10
31.2504
 20
45.0073
 11
36.0001
 21
42.2649
  0
LINE
  8
0
 10
36.0001
 20
42.2649
 11
25.7507
 21
36.3476
  0
LINE
  8
0
 10
25.7507
 20
36.3476
 11
25.7504
 21
41.832
  0
LINE
  8
0
 10
-24.2496
 20
41.832
 11
-18.7496
 21
45.0073
  0
LINE
  8
0
 10
-18.7496
 20
45.0073
 11
-13.9999
 21
42.2649
  0
LINE
  8
0
 10
-13.9999
 20
42.2649
 11
-24.2493
 21
36.3476
  0
LINE
  8
0
 10
-24.2493
 20
36.3476
 11
-24.2496
 21
41.832
  0
LINE
  8
0
 10
-49.2496
 20
40.4189
 11
-48.6844
 21
42.1583
  0
LINE
  8
0
 10
-48.6844
 20
42.1583
 11
-43.7496
 21
45.0073
  0
LINE
  8
0
 10
-43.7496
 20
45.0073
 11
-38.9999
 21
42.2649
  0
LINE
  8
0
 10
-38.9999
 20
42.2649
 11
-49.2493
 21
36.3476
  0
LINE
  8
0
 10
-49.2493
 20
36.3476
 11
-49.2496
 21
40.4189
  0
LINE
  8
0
 10
44.5
 20
44.574
 11
48.6843
 21
42.1585
  0
LINE
  8
0
 10
48.6843
 20
42.1585
 11
49.25
 21
40.4174
  0
LINE
  8
0
 10
49.25
 20
40.4174
 11
49.25
 21
35.4813
  0
LINE
  8
0
 10
49.25
 20
35.4813
 11
44.5
 21
32.7393
  0
LINE
  8
0
 10
44.5
 20
32.7393
 11
44.5
 21
44.574
  0
LINE
  8
0
 10
-5.50003
 20
44.574
 11
-0.749969
 21
41.832
  0
LINE
  8
0
 10
-0.749969
 20
41.832
 11
-0.749969
 21
35.4813
  0
LINE
  8
0
 10
-0.749969
 20
35.4813
 11
-5.50003
 21
32.7393
  0
LINE
  8
0
 10
-5.50003
 20
32.7393
 11
-5.50003
 21
44.574
  0
LINE
  8
0
 10
-30.5
 20
44.574
 11
-25.75
 21
41.832
  0
LINE
  8
0
 10
-25.75
 20
41.832
 11
-25.75
 21
35.4813
  0
LINE
  8
0
 10
-25.75
 20
35.4813
 11
-30.5
 21
32.7393
  0
LINE
  8
0
 10
-30.5
 20
32.7393
 11
-30.5
 21
44.574
  0
LINE
  8
0
 10
19.5
 20
44.574
 11
24.25
 21
41.832
  0
LINE
  8
0
 10
24.25
 20
41.832
 11
24.25
 21
35.4813
  0
LINE
  8
0
 10
24.25
 20
35.4813
 11
19.5
 21
32.7393
  0
LINE
  8
0
 10
19.5
 20
32.7393
 11
19.5
 21
44.574
  0
LINE
  8
0
 10
-17.4995
 20
32.1617
 11
-17.4995
 21
37.9345
  0
LINE
  8
0
 10
-17.4995
 20
37.9345
 11
-12.5
 21
40.8211
  0
LINE
  8
0
 10
-12.5
 20
40.8211
 11
-7.50046
 21
37.9349
  0
LINE
  8
0
 10
-7.50046
 20
37.9349
 11
-7.50046
 21
32.1621
  0
LINE
  8
0
 10
-7.50046
 20
32.1621
 11
-12.5
 21
29.2755
  0
LINE
  8
0
 10
-12.5
 20
29.2755
 11
-17.4995
 21
32.1617
  0
LINE
  8
0
 10
32.5005
 20
32.1617
 11
32.5005
 21
37.9345
  0
LINE
  8
0
 10
32.5005
 20
37.9345
 11
37.5
 21
40.8211
  0
LINE
  8
0
 10
37.5
 20
40.8211
 11
42.4995
 21
37.9349
  0
LINE
  8
0
 10
42.4995
 20
37.9349
 11
42.4995
 21
32.1621
  0
LINE
  8
0
 10
42.4995
 20
32.1621
 11
37.5
 21
29.2755
  0
LINE
  8
0
 10
37.5
 20
29.2755
 11
32.5005
 21
32.1617
  0
LINE
  8
0
 10
7.50046
 20
32.1617
 11
7.50046
 21
37.9345
  0
LINE
  8
0
 10
7.50046
 20
37.9345
 11
12.5
 21
40.8211
  0
LINE
  8
0
 10
12.5
 20
40.8211
 11
17.4995
 21
37.9349
  0
LINE
  8
0
 10
17.4995
 20
37.9349
 11
17.4995
 21
32.1621
  0
LINE
  8
0
 10
17.4995
 20
32.1621
 11
12.5
 21
29.2755
  0
LINE
  8
0
 10
12.5
 20
29.2755
 11
7.50046
 21
32.1617
  0
LINE
  8
0
 10
-42.4995
 20
32.1617
 11
-42.4995
 21
37.9345
  0
LINE
  8
0
 10
-42.4995
 20
37.9345
 11
-37.5
 21
40.8211
  0
LINE
  8
0
 10
-37.5
 20
40.8211
 11
-32.5005
 21
37.9349
  0
LINE
  8
0
 10
-32.5005
 20
37.9349
 11
-32.5005
 21
32.1621
  0
LINE
  8
0
 10
-32.5005
 20
32.1621
 11
-37.5
 21
29.2755
  0
LINE
  8
0
 10
-37.5
 20
29.2755
 11
-42.4995
 21
32.1617
  0
LINE
  8
0
 10
0.749969
 20
28.2646
 11
0.749969
 21
34.6153
  0
LINE
  8
0
 10
0.749969
 20
34.6153
 11
5.50003
 21
37.3573
  0
LINE
  8
0
 10
5.50003
 20
37.3573
 11
5.50003
 21
25.5226
  0
LINE
  8
0
 10
5.50003
 20
25.5226
 11
0.749969
 21
28.2646
  0
LINE
  8
0
 10
-49.25
 20
28.2646
 11
-49.25
 21
34.6153
  0
LINE
  8
0
 10
-49.25
 20
34.6153
 11
-44.5
 21
37.3573
  0
LINE
  8
0
 10
-44.5
 20
37.3573
 11
-44.5
 21
25.5226
  0
LINE
  8
0
 10
-44.5
 20
25.5226
 11
-49.25
 21
28.2646
  0
LINE
  8
0
 10
25.75
 20
28.2646
 11
25.75
 21
34.6153
  0
LINE
  8
0
 10
25.75
 20
34.6153
 11
30.5
 21
37.3573
  0
LINE
  8
0
 10
30.5
 20
37.3573
 11
30.5
 21
25.5226
  0
LINE
  8
0
 10
30.5
 20
25.5226
 11
25.75
 21
28.2646
  0
LINE
  8
0
 10
-24.25
 20
28.2646
 11
-24.25
 21
34.6153
  0
LINE
  8
0
 10
-24.25
 20
34.6153
 11
-19.5
 21
37.3573
  0
LINE
  8
0
 10
-19.5
 20
37.3573
 11
-19.5
 21
25.5226
  0
LINE
  8
0
 10
-19.5
 20
25.5226
 11
-24.25
 21
28.2646
  0
LINE
  8
0
 10
-50.75
 20
35.8011
 11
-50.75
 21
35.4813
  0
LINE
  8
0
 10
-50.75
 20
35.4813
 11
-50.8779
 21
35.4074
  0
LINE
  8
0
 10
-50.8779
 20
35.4074
 11
-50.75
 21
35.8011
  0
LINE
  8
0
 10
50.75
 20
28.2646
 11
50.75
 21
34.6153
  0
LINE
  8
0
 10
50.75
 20
34.6153
 11
51.0744
 21
34.8026
  0
LINE
  8
0
 10
51.0744
 20
34.8026
 11
53.764
 21
26.5247
  0
LINE
  8
0
 10
53.764
 20
26.5247
 11
50.75
 21
28.2646
  0
LINE
  8
0
 10
-36.0001
 20
27.8316
 11
-25.7507
 21
33.749
  0
LINE
  8
0
 10
-25.7507
 20
33.749
 11
-25.7504
 21
28.2646
  0
LINE
  8
0
 10
-25.7504
 20
28.2646
 11
-31.2504
 21
25.0893
  0
LINE
  8
0
 10
-31.2504
 20
25.0893
 11
-36.0001
 21
27.8316
  0
LINE
  8
0
 10
-51.5705
 20
33.2757
 11
-50.7507
 21
33.749
  0
LINE
  8
0
 10
-50.7507
 20
33.749
 11
-50.7504
 21
28.2646
  0
LINE
  8
0
 10
-50.7504
 20
28.2646
 11
-53.7641
 21
26.5247
  0
LINE
  8
0
 10
-53.7641
 20
26.5247
 11
-51.5705
 21
33.2757
  0
LINE
  8
0
 10
13.9999
 20
27.8316
 11
24.2493
 21
33.749
  0
LINE
  8
0
 10
24.2493
 20
33.749
 11
24.2496
 21
28.2646
  0
LINE
  8
0
 10
24.2496
 20
28.2646
 11
18.7496
 21
25.0893
  0
LINE
  8
0
 10
18.7496
 20
25.0893
 11
13.9999
 21
27.8316
  0
LINE
  8
0
 10
-11.0001
 20
27.8316
 11
-0.750732
 21
33.749
  0
LINE
  8
0
 10
-0.750732
 20
33.749
 11
-0.750351
 21
28.2646
  0
LINE
  8
0
 10
-0.750351
 20
28.2646
 11
-6.25038
 21
25.0893
  0
LINE
  8
0
 10
-6.25038
 20
25.0893
 11
-11.0001
 21
27.8316
  0
LINE
  8
0
 10
38.9999
 20
27.8316
 11
49.2493
 21
33.749
  0
LINE
  8
0
 10
49.2493
 20
33.749
 11
49.2496
 21
28.2646
  0
LINE
  8
0
 10
49.2496
 20
28.2646
 11
43.7496
 21
25.0893
  0
LINE
  8
0
 10
43.7496
 20
25.0893
 11
38.9999
 21
27.8316
  0
LINE
  8
0
 10
6.99997
 20
24.6563
 11
7.00035
 21
30.1407
  0
LINE
  8
0
 10
7.00035
 20
30.1407
 11
17.2493
 21
24.2233
  0
LINE
  8
0
 10
17.2493
 20
24.2233
 11
12.5
 21
21.4809
  0
LINE
  8
0
 10
12.5
 20
21.4809
 11
6.99997
 21
24.6563
  0
LINE
  8
0
 10
-18
 20
24.6563
 11
-17.9996
 21
30.1407
  0
LINE
  8
0
 10
-17.9996
 20
30.1407
 11
-7.7507
 21
24.2233
  0
LINE
  8
0
 10
-7.7507
 20
24.2233
 11
-12.5
 21
21.4809
  0
LINE
  8
0
 10
-12.5
 20
21.4809
 11
-18
 21
24.6563
  0
LINE
  8
0
 10
-43
 20
24.6563
 11
-42.9996
 21
30.1407
  0
LINE
  8
0
 10
-42.9996
 20
30.1407
 11
-32.7507
 21
24.2233
  0
LINE
  8
0
 10
-32.7507
 20
24.2233
 11
-37.5
 21
21.4809
  0
LINE
  8
0
 10
-37.5
 20
21.4809
 11
-43
 21
24.6563
  0
LINE
  8
0
 10
32
 20
24.6563
 11
32.0004
 21
30.1407
  0
LINE
  8
0
 10
32.0004
 20
30.1407
 11
42.2493
 21
24.2233
  0
LINE
  8
0
 10
42.2493
 20
24.2233
 11
37.5
 21
21.4809
  0
LINE
  8
0
 10
37.5
 20
21.4809
 11
32
 21
24.6563
  0
LINE
  8
0
 10
20.2507
 20
24.2226
 11
25
 21
26.965
  0
LINE
  8
0
 10
25
 20
26.965
 11
30.5
 21
23.7896
  0
LINE
  8
0
 10
30.5
 20
23.7896
 11
30.4996
 21
18.3052
  0
LINE
  8
0
 10
30.4996
 20
18.3052
 11
20.2507
 21
24.2226
  0
LINE
  8
0
 10
-29.7493
 20
24.2226
 11
-25
 21
26.965
  0
LINE
  8
0
 10
-25
 20
26.965
 11
-19.5
 21
23.7896
  0
LINE
  8
0
 10
-19.5
 20
23.7896
 11
-19.5004
 21
18.3052
  0
LINE
  8
0
 10
-19.5004
 20
18.3052
 11
-29.7493
 21
24.2226
  0
LINE
  8
0
 10
45.2507
 20
24.2226
 11
50
 21
26.965
  0
LINE
  8
0
 10
50
 20
26.965
 11
54.4571
 21
24.3917
  0
LINE
  8
0
 10
54.4571
 20
24.3917
 11
55.4998
 21
21.1825
  0
LINE
  8
0
 10
55.4998
 20
21.1825
 11
55.4996
 21
18.3052
  0
LINE
  8
0
 10
55.4996
 20
18.3052
 11
45.2507
 21
24.2226
  0
LINE
  8
0
 10
-4.7493
 20
24.2226
 11
0
 21
26.965
  0
LINE
  8
0
 10
0
 20
26.965
 11
5.50003
 21
23.7896
  0
LINE
  8
0
 10
5.50003
 20
23.7896
 11
5.49965
 21
18.3052
  0
LINE
  8
0
 10
5.49965
 20
18.3052
 11
-4.7493
 21
24.2226
  0
LINE
  8
0
 10
-54.5495
 20
24.1072
 11
-54.4573
 21
24.3912
  0
LINE
  8
0
 10
-54.4573
 20
24.3912
 11
-50
 21
26.965
  0
LINE
  8
0
 10
-50
 20
26.965
 11
-44.5
 21
23.7896
  0
LINE
  8
0
 10
-44.5
 20
23.7896
 11
-44.5004
 21
18.3052
  0
LINE
  8
0
 10
-44.5004
 20
18.3052
 11
-54.5495
 21
24.1072
  0
LINE
  8
0
 10
-36.7496
 20
20.1813
 11
-31.2496
 21
23.3566
  0
LINE
  8
0
 10
-31.2496
 20
23.3566
 11
-26.4999
 21
20.6142
  0
LINE
  8
0
 10
-26.4999
 20
20.6142
 11
-36.7493
 21
14.6969
  0
LINE
  8
0
 10
-36.7493
 20
14.6969
 11
-36.7496
 21
20.1813
  0
LINE
  8
0
 10
13.2504
 20
20.1813
 11
18.7504
 21
23.3566
  0
LINE
  8
0
 10
18.7504
 20
23.3566
 11
23.5001
 21
20.6142
  0
LINE
  8
0
 10
23.5001
 20
20.6142
 11
13.2507
 21
14.6969
  0
LINE
  8
0
 10
13.2507
 20
14.6969
 11
13.2504
 21
20.1813
  0
LINE
  8
0
 10
-11.7496
 20
20.1813
 11
-6.24962
 21
23.3566
  0
LINE
  8
0
 10
-6.24962
 20
23.3566
 11
-1.49994
 21
20.6142
  0
LINE
  8
0
 10
-1.49994
 20
20.6142
 11
-11.7493
 21
14.6969
  0
LINE
  8
0
 10
-11.7493
 20
14.6969
 11
-11.7496
 21
20.1813
  0
LINE
  8
0
 10
38.2504
 20
20.1813
 11
43.7504
 21
23.3566
  0
LINE
  8
0
 10
43.7504
 20
23.3566
 11
48.5001
 21
20.6142
  0
LINE
  8
0
 10
48.5001
 20
20.6142
 11
38.2507
 21
14.6969
  0
LINE
  8
0
 10
38.2507
 20
14.6969
 11
38.2504
 21
20.1813
  0
LINE
  8
0
 10
6.99997
 20
12
 11
6.99997
 21
22.9233
  0
LINE
  8
0
 10
6.99997
 20
22.9233
 11
11.75
 21
20.1813
  0
LINE
  8
0
 10
11.75
 20
20.1813
 11
11.75
 21
13.8306
  0
LINE
  8
0
 10
11.75
 20
13.8306
 11
8.57889
 21
12
  0
LINE
  8
0
 10
8.57889
 20
12
 11
6.99997
 21
12
  0
LINE
  8
0
 10
-18
 20
12
 11
-18
 21
22.9233
  0
LINE
  8
0
 10
-18
 20
22.9233
 11
-13.25
 21
20.1813
  0
LINE
  8
0
 10
-13.25
 20
20.1813
 11
-13.25
 21
13.8306
  0
LINE
  8
0
 10
-13.25
 20
13.8306
 11
-16.4211
 21
12
  0
LINE
  8
0
 10
-16.4211
 20
12
 11
-18
 21
12
  0
LINE
  8
0
 10
32
 20
12
 11
32
 21
22.9233
  0
LINE
  8
0
 10
32
 20
22.9233
 11
36.75
 21
20.1813
  0
LINE
  8
0
 10
36.75
 20
20.1813
 11
36.75
 21
13.8306
  0
LINE
  8
0
 10
36.75
 20
13.8306
 11
33.5789
 21
12
  0
LINE
  8
0
 10
33.5789
 20
12
 11
32
 21
12
  0
LINE
  8
0
 10
-43
 20
12
 11
-43
 21
22.9233
  0
LINE
  8
0
 10
-43
 20
22.9233
 11
-38.25
 21
20.1813
  0
LINE
  8
0
 10
-38.25
 20
20.1813
 11
-38.25
 21
13.8306
  0
LINE
  8
0
 10
-38.25
 20
13.8306
 11
-41.4211
 21
12
  0
LINE
  8
0
 10
-41.4211
 20
12
 11
-43
 21
12
  0
LINE
  8
0
 10
-55.0235
 20
22.6487
 11
-51.4999
 21
20.6142
  0
LINE
  8
0
 10
-51.4999
 20
20.6142
 11
-56.6507
 21
17.6405
  0
LINE
  8
0
 10
-56.6507
 20
17.6405
 11
-55.0235
 21
22.6487
  0
LINE
  8
0
 10
-29.9995
 20
12
 11
-29.9995
 21
16.2838
  0
LINE
  8
0
 10
-29.9995
 20
16.2838
 11
-25
 21
19.1704
  0
LINE
  8
0
 10
-25
 20
19.1704
 11
-20.0005
 21
16.2842
  0
LINE
  8
0
 10
-20.0005
 20
16.2842
 11
-20.0005
 21
12
  0
LINE
  8
0
 10
-20.0005
 20
12
 11
-29.9995
 21
12
  0
LINE
  8
0
 10
-4.99954
 20
12
 11
-4.99954
 21
16.2838
  0
LINE
  8
0
 10
-4.99954
 20
16.2838
 11
0
 21
19.1704
  0
LINE
  8
0
 10
0
 20
19.1704
 11
4.99954
 21
16.2842
  0
LINE
  8
0
 10
4.99954
 20
16.2842
 11
4.99954
 21
12
  0
LINE
  8
0
 10
4.99954
 20
12
 11
-4.99954
 21
12
  0
LINE
  8
0
 10
-54.9995
 20
12
 11
-54.9995
 21
16.2838
  0
LINE
  8
0
 10
-54.9995
 20
16.2838
 11
-50
 21
19.1704
  0
LINE
  8
0
 10
-50
 20
19.1704
 11
-45.0005
 21
16.2842
  0
LINE
  8
0
 10
-45.0005
 20
16.2842
 11
-45.0005
 21
12
  0
LINE
  8
0
 10
-45.0005
 20
12
 11
-54.9995
 21
12
  0
LINE
  8
0
 10
45.0005
 20
12
 11
45.0005
 21
16.2838
  0
LINE
  8
0
 10
45.0005
 20
16.2838
 11
50
 21
19.1704
  0
LINE
  8
0
 10
50
 20
19.1704
 11
54.9995
 21
16.2842
  0
LINE
  8
0
 10
54.9995
 20
16.2842
 11
54.9995
 21
12
  0
LINE
  8
0
 10
54.9995
 20
12
 11
45.0005
 21
12
  0
LINE
  8
0
 10
20.0005
 20
12
 11
20.0005
 21
16.2838
  0
LINE
  8
0
 10
20.0005
 20
16.2838
 11
25
 21
19.1704
  0
LINE
  8
0
 10
25
 20
19.1704
 11
29.9995
 21
16.2842
  0
LINE
  8
0
 10
29.9995
 20
16.2842
 11
29.9995
 21
12
  0
LINE
  8
0
 10
29.9995
 20
12
 11
20.0005
 21
12
  0
LINE
  8
0
 10
57
 20
12
 11
57
 21
16.5656
  0
LINE
  8
0
 10
57
 20
16.5656
 11
58.4834
 21
12
  0
LINE
  8
0
 10
58.4834
 20
12
 11
57
 21
12
  0
LINE
  8
0
 10
-11.75
 20
12
 11
-11.75
 21
12.9646
  0
LINE
  8
0
 10
-11.75
 20
12.9646
 11
-6.99997
 21
15.7066
  0
LINE
  8
0
 10
-6.99997
 20
15.7066
 11
-6.99997
 21
12
  0
LINE
  8
0
 10
-6.99997
 20
12
 11
-11.75
 21
12
  0
LINE
  8
0
 10
13.25
 20
12
 11
13.25
 21
12.9646
  0
LINE
  8
0
 10
13.25
 20
12.9646
 11
18
 21
15.7066
  0
LINE
  8
0
 10
18
 20
15.7066
 11
18
 21
12
  0
LINE
  8
0
 10
18
 20
12
 11
13.25
 21
12
  0
LINE
  8
0
 10
-36.75
 20
12
 11
-36.75
 21
12.9646
  0
LINE
  8
0
 10
-36.75
 20
12.9646
 11
-32
 21
15.7066
  0
LINE
  8
0
 10
-32
 20
15.7066
 11
-32
 21
12
  0
LINE
  8
0
 10
-32
 20
12
 11
-36.75
 21
12
  0
LINE
  8
0
 10
-58.4834
 20
12
 11
-57.3435
 21
15.5083
  0
LINE
  8
0
 10
-57.3435
 20
15.5083
 11
-57
 21
15.7066
  0
LINE
  8
0
 10
-57
 20
15.7066
 11
-57
 21
12
  0
LINE
  8
0
 10
-57
 20
12
 11
-58.4834
 21
12
  0
LINE
  8
0
 10
38.25
 20
12
 11
38.25
 21
12.9646
  0
LINE
  8
0
 10
38.25
 20
12.9646
 11
43
 21
15.7066
  0
LINE
  8
0
 10
43
 20
15.7066
 11
43
 21
12
  0
LINE
  8
0
 10
43
 20
12
 11
38.25
 21
12
  0
LINE
  8
0
 10
-13.421
 20
12
 11
-13.2507
 21
12.0983
  0
LINE
  8
0
 10
-13.2507
 20
12.0983
 11
-13.2507
 21
12
  0
LINE
  8
0
 10
-13.2507
 20
12
 11
-13.421
 21
12
  0
LINE
  8
0
 10
11.579
 20
12
 11
11.7493
 21
12.0983
  0
LINE
  8
0
 10
11.7493
 20
12.0983
 11
11.7493
 21
12
  0
LINE
  8
0
 10
11.7493
 20
12
 11
11.579
 21
12
  0
LINE
  8
0
 10
-38.421
 20
12
 11
-38.2507
 21
12.0983
  0
LINE
  8
0
 10
-38.2507
 20
12.0983
 11
-38.2507
 21
12
  0
LINE
  8
0
 10
-38.2507
 20
12
 11
-38.421
 21
12
  0
LINE
  8
0
 10
36.579
 20
12
 11
36.7493
 21
12.0983
  0
LINE
  8
0
 10
36.7493
 20
12.0983
 11
36.7493
 21
12
  0
LINE
  8
0
 10
36.7493
 20
12
 11
36.579
 21
12
  0
LINE
  8
0
 10
-10
 20
7
 11
-10
 21
11
  0
LINE
  8
0
 10
-10
 20
11
 11
10
 21
11
  0
LINE
  8
0
 10
10
 20
11
 11
10
 21
7
  0
LINE
  8
0
 10
10
 20
7
 11
-10
 21
7
  0
LINE
  8
0
 10
-68.6534
 20
2.70622
 11
-68.7785
 21
2.71805
  0
LINE
  8
0
 10
-68.7785
 20
2.71805
 11
-68.9026
 21
2.7377
  0
LINE
  8
0
 10
-68.9026
 20
2.7377
 11
-69.0252
 21
2.76511
  0
LINE
  8
0
 10
-69.0252
 20
2.76511
 11
-69.1459
 21
2.80016
  0
LINE
  8
0
 10
-69.1459
 20
2.80016
 11
-69.2641
 21
2.84273
  0
LINE
  8
0
 10
-69.2641
 20
2.84273
 11
-69.3794
 21
2.89262
  0
LINE
  8
0
 10
-69.3794
 20
2.89262
 11
-69.4914
 21
2.94966
  0
LINE
  8
0
 10
-69.4914
 20
2.94966
 11
-69.5995
 21
3.01363
  0
LINE
  8
0
 10
-69.5995
 20
3.01363
 11
-69.7034
 21
3.08424
  0
LINE
  8
0
 10
-69.7034
 20
3.08424
 11
-69.8027
 21
3.16125
  0
LINE
  8
0
 10
-69.8027
 20
3.16125
 11
-69.897
 21
3.24434
  0
LINE
  8
0
 10
-69.897
 20
3.24434
 11
-69.9858
 21
3.33318
  0
LINE
  8
0
 10
-69.9858
 20
3.33318
 11
-70.0689
 21
3.42743
  0
LINE
  8
0
 10
-70.0689
 20
3.42743
 11
-70.1459
 21
3.5267
  0
LINE
  8
0
 10
-70.1459
 20
3.5267
 11
-70.2165
 21
3.63062
  0
LINE
  8
0
 10
-70.2165
 20
3.63062
 11
-70.2805
 21
3.73877
  0
LINE
  8
0
 10
-70.2805
 20
3.73877
 11
-70.3375
 21
3.85072
  0
LINE
  8
0
 10
-70.3375
 20
3.85072
 11
-70.3874
 21
3.96602
  0
LINE
  8
0
 10
-70.3874
 20
3.96602
 11
-70.43
 21
4.08424
  0
LINE
  8
0
 10
-70.43
 20
4.08424
 11
-70.465
 21
4.2049
  0
LINE
  8
0
 10
-70.465
 20
4.2049
 11
-70.4924
 21
4.32751
  0
LINE
  8
0
 10
-70.4924
 20
4.32751
 11
-70.5121
 21
4.45161
  0
LINE
  8
0
 10
-70.5121
 20
4.45161
 11
-70.5239
 21
4.57669
  0
LINE
  8
0
 10
-70.5239
 20
4.57669
 11
-70.5279
 21
4.70227
  0
LINE
  8
0
 10
-70.5279
 20
4.70227
 11
-70.5239
 21
4.82785
  0
LINE
  8
0
 10
-70.5239
 20
4.82785
 11
-70.5121
 21
4.95294
  0
LINE
  8
0
 10
-70.5121
 20
4.95294
 11
-70.4924
 21
5.07704
  0
LINE
  8
0
 10
-70.4924
 20
5.07704
 11
-70.465
 21
5.19966
  0
LINE
  8
0
 10
-70.465
 20
5.19966
 11
-70.43
 21
5.32031
  0
LINE
  8
0
 10
-70.43
 20
5.32031
 11
-70.3874
 21
5.43852
  0
LINE
  8
0
 10
-70.3874
 20
5.43852
 11
-70.3375
 21
5.55383
  0
LINE
  8
0
 10
-70.3375
 20
5.55383
 11
-70.2805
 21
5.66579
  0
LINE
  8
0
 10
-70.2805
 20
5.66579
 11
-70.2165
 21
5.77393
  0
LINE
  8
0
 10
-70.2165
 20
5.77393
 11
-70.1459
 21
5.87784
  0
LINE
  8
0
 10
-70.1459
 20
5.87784
 11
-70.0689
 21
5.97713
  0
LINE
  8
0
 10
-70.0689
 20
5.97713
 11
-69.9858
 21
6.07137
  0
LINE
  8
0
 10
-69.9858
 20
6.07137
 11
-69.897
 21
6.16022
  0
LINE
  8
0
 10
-69.897
 20
6.16022
 11
-69.8027
 21
6.2433
  0
LINE
  8
0
 10
-69.8027
 20
6.2433
 11
-69.7034
 21
6.32031
  0
LINE
  8
0
 10
-69.7034
 20
6.32031
 11
-69.5995
 21
6.39093
  0
LINE
  8
0
 10
-69.5995
 20
6.39093
 11
-69.4914
 21
6.4549
  0
LINE
  8
0
 10
-69.4914
 20
6.4549
 11
-69.3794
 21
6.51193
  0
LINE
  8
0
 10
-69.3794
 20
6.51193
 11
-69.2641
 21
6.56183
  0
LINE
  8
0
 10
-69.2641
 20
6.56183
 11
-69.1459
 21
6.60439
  0
LINE
  8
0
 10
-69.1459
 20
6.60439
 11
-69.0252
 21
6.63943
  0
LINE
  8
0
 10
-69.0252
 20
6.63943
 11
-68.9026
 21
6.66685
  0
LINE
  8
0
 10
-68.9026
 20
6.66685
 11
-68.7785
 21
6.68651
  0
LINE
  8
0
 10
-68.7785
 20
6.68651
 11
-68.6534
 21
6.69833
  0
LINE
  8
0
 10
-68.6534
 20
6.69833
 11
-68.5279
 21
6.70227
  0
LINE
  8
0
 10
-68.5279
 20
6.70227
 11
-68.4023
 21
6.69833
  0
LINE
  8
0
 10
-68.4023
 20
6.69833
 11
-68.2772
 21
6.68651
  0
LINE
  8
0
 10
-68.2772
 20
6.68651
 11
-68.1531
 21
6.66685
  0
LINE
  8
0
 10
-68.1531
 20
6.66685
 11
-68.0305
 21
6.63943
  0
LINE
  8
0
 10
-68.0305
 20
6.63943
 11
-67.9098
 21
6.60439
  0
LINE
  8
0
 10
-67.9098
 20
6.60439
 11
-67.7916
 21
6.56183
  0
LINE
  8
0
 10
-67.7916
 20
6.56183
 11
-67.6763
 21
6.51193
  0
LINE
  8
0
 10
-67.6763
 20
6.51193
 11
-67.5643
 21
6.4549
  0
LINE
  8
0
 10
-67.5643
 20
6.4549
 11
-67.4562
 21
6.39093
  0
LINE
  8
0
 10
-67.4562
 20
6.39093
 11
-67.3523
 21
6.32031
  0
LINE
  8
0
 10
-67.3523
 20
6.32031
 11
-67.253
 21
6.2433
  0
LINE
  8
0
 10
-67.253
 20
6.2433
 11
-67.1588
 21
6.16022
  0
LINE
  8
0
 10
-67.1588
 20
6.16022
 11
-67.0699
 21
6.07137
  0
LINE
  8
0
 10
-67.0699
 20
6.07137
 11
-66.9868
 21
5.97713
  0
LINE
  8
0
 10
-66.9868
 20
5.97713
 11
-66.9098
 21
5.87784
  0
LINE
  8
0
 10
-66.9098
 20
5.87784
 11
-66.8392
 21
5.77393
  0
LINE
  8
0
 10
-66.8392
 20
5.77393
 11
-66.7752
 21
5.66579
  0
LINE
  8
0
 10
-66.7752
 20
5.66579
 11
-66.7182
 21
5.55383
  0
LINE
  8
0
 10
-66.7182
 20
5.55383
 11
-66.6683
 21
5.43852
  0
LINE
  8
0
 10
-66.6683
 20
5.43852
 11
-66.6257
 21
5.32031
  0
LINE
  8
0
 10
-66.6257
 20
5.32031
 11
-66.5907
 21
5.19966
  0
LINE
  8
0
 10
-66.5907
 20
5.19966
 11
-66.5633
 21
5.07704
  0
LINE
  8
0
 10
-66.5633
 20
5.07704
 11
-66.5436
 21
4.95294
  0
LINE
  8
0
 10
-66.5436
 20
4.95294
 11
-66.5318
 21
4.82785
  0
LINE
  8
0
 10
-66.5318
 20
4.82785
 11
-66.5279
 21
4.70227
  0
LINE
  8
0
 10
-66.5279
 20
4.70227
 11
-66.5318
 21
4.57669
  0
LINE
  8
0
 10
-66.5318
 20
4.57669
 11
-66.5436
 21
4.45161
  0
LINE
  8
0
 10
-66.5436
 20
4.45161
 11
-66.5633
 21
4.32751
  0
LINE
  8
0
 10
-66.5633
 20
4.32751
 11
-66.5907
 21
4.2049
  0
LINE
  8
0
 10
-66.5907
 20
4.2049
 11
-66.6257
 21
4.08424
  0
LINE
  8
0
 10
-66.6257
 20
4.08424
 11
-66.6683
 21
3.96602
  0
LINE
  8
0
 10
-66.6683
 20
3.96602
 11
-66.7182
 21
3.85072
  0
LINE
  8
0
 10
-66.7182
 20
3.85072
 11
-66.7752
 21
3.73877
  0
LINE
  8
0
 10
-66.7752
 20
3.73877
 11
-66.8392
 21
3.63062
  0
LINE
  8
0
 10
-66.8392
 20
3.63062
 11
-66.9098
 21
3.5267
  0
LINE
  8
0
 10
-66.9098
 20
3.5267
 11
-66.9868
 21
3.42743
  0
LINE
  8
0
 10
-66.9868
 20
3.42743
 11
-67.0699
 21
3.33318
  0
LINE
  8
0
 10
-67.0699
 20
3.33318
 11
-67.1588
 21
3.24434
  0
LINE
  8
0
 10
-67.1588
 20
3.24434
 11
-67.253
 21
3.16125
  0
LINE
  8
0
 10
-67.253
 20
3.16125
 11
-67.3523
 21
3.08424
  0
LINE
  8
0
 10
-67.3523
 20
3.08424
 11
-67.4562
 21
3.01363
  0
LINE
  8
0
 10
-67.4562
 20
3.01363
 11
-67.5643
 21
2.94966
  0
LINE
  8
0
 10
-67.5643
 20
2.94966
 11
-67.6763
 21
2.89262
  0
LINE
  8
0
 10
-67.6763
 20
2.89262
 11
-67.7916
 21
2.84273
  0
LINE
  8
0
 10
-67.7916
 20
2.84273
 11
-67.9098
 21
2.80016
  0
LINE
  8
0
 10
-67.9098
 20
2.80016
 11
-68.0305
 21
2.76511
  0
LINE
  8
0
 10
-68.0305
 20
2.76511
 11
-68.1531
 21
2.7377
  0
LINE
  8
0
 10
-68.1531
 20
2.7377
 11
-68.2772
 21
2.71805
  0
LINE
  8
0
 10
-68.2772
 20
2.71805
 11
-68.4023
 21
2.70622
  0
LINE
  8
0
 10
-68.4023
 20
2.70622
 11
-68.5279
 21
2.70227
  0
LINE
  8
0
 10
-68.5279
 20
2.70227
 11
-68.6534
 21
2.70622
  0
LINE
  8
0
 10
68.4023
 20
2.70622
 11
68.2772
 21
2.71805
  0
LINE
  8
0
 10
68.2772
 20
2.71805
 11
68.1531
 21
2.7377
  0
LINE
  8
0
 10
68.1531
 20
2.7377
 11
68.0305
 21
2.76511
  0
LINE
  8
0
 10
68.0305
 20
2.76511
 11
67.9098
 21
2.80016
  0
LINE
  8
0
 10
67.9098
 20
2.80016
 11
67.7916
 21
2.84273
  0
LINE
  8
0
 10
67.7916
 20
2.84273
 11
67.6763
 21
2.89262
  0
LINE
  8
0
 10
67.6763
 20
2.89262
 11
67.5643
 21
2.94966
  0
LINE
  8
0
 10
67.5643
 20
2.94966
 11
67.4562
 21
3.01363
  0
LINE
  8
0
 10
67.4562
 20
3.01363
 11
67.3523
 21
3.08424
  0
LINE
  8
0
 10
67.3523
 20
3.08424
 11
67.253
 21
3.16125
  0
LINE
  8
0
 10
67.253
 20
3.16125
 11
67.1588
 21
3.24434
  0
LINE
  8
0
 10
67.1588
 20
3.24434
 11
67.0699
 21
3.33318
  0
LINE
  8
0
 10
67.0699
 20
3.33318
 11
66.9868
 21
3.42743
  0
LINE
  8
0
 10
66.9868
 20
3.42743
 11
66.9098
 21
3.5267
  0
LINE
  8
0
 10
66.9098
 20
3.5267
 11
66.8392
 21
3.63062
  0
LINE
  8
0
 10
66.8392
 20
3.63062
 11
66.7752
 21
3.73877
  0
LINE
  8
0
 10
66.7752
 20
3.73877
 11
66.7182
 21
3.85072
  0
LINE
  8
0
 10
66.7182
 20
3.85072
 11
66.6683
 21
3.96602
  0
LINE
  8
0
 10
66.6683
 20
3.96602
 11
66.6257
 21
4.08424
  0
LINE
  8
0
 10
66.6257
 20
4.08424
 11
66.5907
 21
4.2049
  0
LINE
  8
0
 10
66.5907
 20
4.2049
 11
66.5633
 21
4.32751
  0
LINE
  8
0
 10
66.5633
 20
4.32751
 11
66.5436
 21
4.45161
  0
LINE
  8
0
 10
66.5436
 20
4.45161
 11
66.5318
 21
4.57669
  0
LINE
  8
0
 10
66.5318
 20
4.57669
 11
66.5279
 21
4.70227
  0
LINE
  8
0
 10
66.5279
 20
4.70227
 11
66.5318
 21
4.82785
  0
LINE
  8
0
 10
66.5318
 20
4.82785
 11
66.5436
 21
4.95294
  0
LINE
  8
0
 10
66.5436
 20
4.95294
 11
66.5633
 21
5.07704
  0
LINE
  8
0
 10
66.5633
 20
5.07704
 11
66.5907
 21
5.19966
  0
LINE
  8
0
 10
66.5907
 20
5.19966
 11
66.6257
 21
5.32031
  0
LINE
  8
0
 10
66.6257
 20
5.32031
 11
66.6683
 21
5.43852
  0
LINE
  8
0
 10
66.6683
 20
5.43852
 11
66.7182
 21
5.55383
  0
LINE
  8
0
 10
66.7182
 20
5.55383
 11
66.7752
 21
5.66579
  0
LINE
  8
0
 10
66.7752
 20
5.66579
 11
66.8392
 21
5.77393
  0
LINE
  8
0
 10
66.8392
 20
5.77393
 11
66.9098
 21
5.87784
  0
LINE
  8
0
 10
66.9098
 20
5.87784
 11
66.9868
 21
5.97713
  0
LINE
  8
0
 10
66.9868
 20
5.97713
 11
67.0699
 21
6.07137
  0
LINE
  8
0
 10
67.0699
 20
6.07137
 11
67.1588
 21
6.16022
  0
LINE
  8
0
 10
67.1588
 20
6.16022
 11
67.253
 21
6.2433
  0
LINE
  8
0
 10
67.253
 20
6.2433
 11
67.3523
 21
6.32031
  0
LINE
  8
0
 10
67.3523
 20
6.32031
 11
67.4562
 21
6.39093
  0
LINE
  8
0
 10
67.4562
 20
6.39093
 11
67.5643
 21
6.4549
  0
LINE
  8
0
 10
67.5643
 20
6.4549
 11
67.6763
 21
6.51193
  0
LINE
  8
0
 10
67.6763
 20
6.51193
 11
67.7916
 21
6.56183
  0
LINE
  8
0
 10
67.7916
 20
6.56183
 11
67.9098
 21
6.60439
  0
LINE
  8
0
 10
67.9098
 20
6.60439
 11
68.0305
 21
6.63943
  0
LINE
  8
0
 10
68.0305
 20
6.63943
 11
68.1531
 21
6.66685
  0
LINE
  8
0
 10
68.1531
 20
6.66685
 11
68.2772
 21
6.68651
  0
LINE
  8
0
 10
68.2772
 20
6.68651
 11
68.4023
 21
6.69833
  0
LINE
  8
0
 10
68.4023
 20
6.69833
 11
68.5279
 21
6.70227
  0
LINE
  8
0
 10
68.5279
 20
6.70227
 11
68.6534
 21
6.69833
  0
LINE
  8
0
 10
68.6534
 20
6.69833
 11
68.7785
 21
6.68651
  0
LINE
  8
0
 10
68.7785
 20
6.68651
 11
68.9026
 21
6.66685
  0
LINE
  8
0
 10
68.9026
 20
6.66685
 11
69.0252
 21
6.63943
  0
LINE
  8
0
 10
69.0252
 20
6.63943
 11
69.1459
 21
6.60439
  0
LINE
  8
0
 10
69.1459
 20
6.60439
 11
69.2641
 21
6.56183
  0
LINE
  8
0
 10
69.2641
 20
6.56183
 11
69.3794
 21
6.51193
  0
LINE
  8
0
 10
69.3794
 20
6.51193
 11
69.4914
 21
6.4549
  0
LINE
  8
0
 10
69.4914
 20
6.4549
 11
69.5995
 21
6.39093
  0
LINE
  8
0
 10
69.5995
 20
6.39093
 11
69.7034
 21
6.32031
  0
LINE
  8
0
 10
69.7034
 20
6.32031
 11
69.8027
 21
6.2433
  0
LINE
  8
0
 10
69.8027
 20
6.2433
 11
69.897
 21
6.16022
  0
LINE
  8
0
 10
69.897
 20
6.16022
 11
69.9858
 21
6.07137
  0
LINE
  8
0
 10
69.9858
 20
6.07137
 11
70.0689
 21
5.97713
  0
LINE
  8
0
 10
70.0689
 20
5.97713
 11
70.1459
 21
5.87784
  0
LINE
  8
0
 10
70.1459
 20
5.87784
 11
70.2165
 21
5.77393
  0
LINE
  8
0
 10
70.2165
 20
5.77393
 11
70.2805
 21
5.66579
  0
LINE
  8
0
 10
70.2805
 20
5.66579
 11
70.3375
 21
5.55383
  0
LINE
  8
0
 10
70.3375
 20
5.55383
 11
70.3874
 21
5.43852
  0
LINE
  8
0
 10
70.3874
 20
5.43852
 11
70.43
 21
5.32031
  0
LINE
  8
0
 10
70.43
 20
5.32031
 11
70.465
 21
5.19966
  0
LINE
  8
0
 10
70.465
 20
5.19966
 11
70.4924
 21
5.07704
  0
LINE
  8
0
 10
70.4924
 20
5.07704
 11
70.5121
 21
4.95294
  0
LINE
  8
0
 10
70.5121
 20
4.95294
 11
70.5239
 21
4.82785
  0
LINE
  8
0
 10
70.5239
 20
4.82785
 11
70.5279
 21
4.70227
  0
LINE
  8
0
 10
70.5279
 20
4.70227
 11
70.5239
 21
4.57669
  0
LINE
  8
0
 10
70.5239
 20
4.57669
 11
70.5121
 21
4.45161
  0
LINE
  8
0
 10
70.5121
 20
4.45161
 11
70.4924
 21
4.32751
  0
LINE
  8
0
 10
70.4924
 20
4.32751
 11
70.465
 21
4.2049
  0
LINE
  8
0
 10
70.465
 20
4.2049
 11
70.43
 21
4.08424
  0
LINE
  8
0
 10
70.43
 20
4.08424
 11
70.3874
 21
3.96602
  0
LINE
  8
0
 10
70.3874
 20
3.96602
 11
70.3375
 21
3.85072
  0
LINE
  8
0
 10
70.3375
 20
3.85072
 11
70.2805
 21
3.73877
  0
LINE
  8
0
 10
70.2805
 20
3.73877
 11
70.2165
 21
3.63062
  0
LINE
  8
0
 10
70.2165
 20
3.63062
 11
70.1459
 21
3.5267
  0
LINE
  8
0
 10
70.1459
 20
3.5267
 11
70.0689
 21
3.42743
  0
LINE
  8
0
 10
70.0689
 20
3.42743
 11
69.9858
 21
3.33318
  0
LINE
  8
0
 10
69.9858
 20
3.33318
 11
69.897
 21
3.24434
  0
LINE
  8
0
 10
69.897
 20
3.24434
 11
69.8027
 21
3.16125
  0
LINE
  8
0
 10
69.8027
 20
3.16125
 11
69.7034
 21
3.08424
  0
LINE
  8
0
 10
69.7034
 20
3.08424
 11
69.5995
 21
3.01363
  0
LINE
  8
0
 10
69.5995
 20
3.01363
 11
69.4914
 21
2.94966
  0
LINE
  8
0
 10
69.4914
 20
2.94966
 11
69.3794
 21
2.89262
  0
LINE
  8
0
 10
69.3794
 20
2.89262
 11
69.2641
 21
2.84273
  0
LINE
  8
0
 10
69.2641
 20
2.84273
 11
69.1459
 21
2.80016
  0
LINE
  8
0
 10
69.1459
 20
2.80016
 11
69.0252
 21
2.76511
  0
LINE
  8
0
 10
69.0252
 20
2.76511
 11
68.9026
 21
2.7377
  0
LINE
  8
0
 10
68.9026
 20
2.7377
 11
68.7785
 21
2.71805
  0
LINE
  8
0
 10
68.7785
 20
2.71805
 11
68.6534
 21
2.70622
  0
LINE
  8
0
 10
68.6534
 20
2.70622
 11
68.5279
 21
2.70227
  0
LINE
  8
0
 10
68.5279
 20
2.70227
 11
68.4023
 21
2.70622
  0
ENDSEC
  0
SECTION
  2
OBJECTS
  0
DICTIONARY
  0
ENDSEC
  0
EOF
