  0
SECTION
  2
BLOCKS
  0
ENDSEC
  0
SECTION
  2
ENTITIES
  0
LINE
  8
0
 10
0
 20
230.826
 11
-75
 21
0
  0
LINE
  8
0
 10
-75
 20
0
 11
75
 21
0
  0
LINE
  8
0
 10
75
 20
0
 11
0
 21
230.826
  0
LINE
  8
0
 10
-0.12558
 20
212.83
 11
-0.250656
 21
212.842
  0
LINE
  8
0
 10
-0.250656
 20
212.842
 11
-0.374756
 21
212.862
  0
LINE
  8
0
 10
-0.374756
 20
212.862
 11
-0.497375
 21
212.889
  0
LINE
  8
0
 10
-0.497375
 20
212.889
 11
-0.618027
 21
212.924
  0
LINE
  8
0
 10
-0.618027
 20
212.924
 11
-0.736237
 21
212.967
  0
LINE
  8
0
 10
-0.736237
 20
212.967
 11
-0.851547
 21
213.017
  0
LINE
  8
0
 10
-0.851547
 20
213.017
 11
-0.963501
 21
213.074
  0
LINE
  8
0
 10
-0.963501
 20
213.074
 11
-1.07164
 21
213.138
  0
LINE
  8
0
 10
-1.07164
 20
213.138
 11
-1.17557
 21
213.208
  0
LINE
  8
0
 10
-1.17557
 20
213.208
 11
-1.27484
 21
213.285
  0
LINE
  8
0
 10
-1.27484
 20
213.285
 11
-1.36908
 21
213.368
  0
LINE
  8
0
 10
-1.36908
 20
213.368
 11
-1.45793
 21
213.457
  0
LINE
  8
0
 10
-1.45793
 20
213.457
 11
-1.54102
 21
213.551
  0
LINE
  8
0
 10
-1.54102
 20
213.551
 11
-1.61803
 21
213.651
  0
LINE
  8
0
 10
-1.61803
 20
213.651
 11
-1.68864
 21
213.755
  0
LINE
  8
0
 10
-1.68864
 20
213.755
 11
-1.75261
 21
213.863
  0
LINE
  8
0
 10
-1.75261
 20
213.863
 11
-1.80965
 21
213.975
  0
LINE
  8
0
 10
-1.80965
 20
213.975
 11
-1.85954
 21
214.09
  0
LINE
  8
0
 10
-1.85954
 20
214.09
 11
-1.9021
 21
214.208
  0
LINE
  8
0
 10
-1.9021
 20
214.208
 11
-1.93716
 21
214.329
  0
LINE
  8
0
 10
-1.93716
 20
214.329
 11
-1.96457
 21
214.451
  0
LINE
  8
0
 10
-1.96457
 20
214.451
 11
-1.98422
 21
214.576
  0
LINE
  8
0
 10
-1.98422
 20
214.576
 11
-1.99605
 21
214.701
  0
LINE
  8
0
 10
-1.99605
 20
214.701
 11
-2
 21
214.826
  0
LINE
  8
0
 10
-2
 20
214.826
 11
-1.99605
 21
214.952
  0
LINE
  8
0
 10
-1.99605
 20
214.952
 11
-1.98422
 21
215.077
  0
LINE
  8
0
 10
-1.98422
 20
215.077
 11
-1.96457
 21
215.201
  0
LINE
  8
0
 10
-1.96457
 20
215.201
 11
-1.93716
 21
215.324
  0
LINE
  8
0
 10
-1.93716
 20
215.324
 11
-1.9021
 21
215.444
  0
LINE
  8
0
 10
-1.9021
 20
215.444
 11
-1.85954
 21
215.562
  0
LINE
  8
0
 10
-1.85954
 20
215.562
 11
-1.80965
 21
215.678
  0
LINE
  8
0
 10
-1.80965
 20
215.678
 11
-1.75261
 21
215.79
  0
LINE
  8
0
 10
-1.75261
 20
215.79
 11
-1.68864
 21
215.898
  0
LINE
  8
0
 10
-1.68864
 20
215.898
 11
-1.61803
 21
216.002
  0
LINE
  8
0
 10
-1.61803
 20
216.002
 11
-1.54102
 21
216.101
  0
LINE
  8
0
 10
-1.54102
 20
216.101
 11
-1.45793
 21
216.195
  0
LINE
  8
0
 10
-1.45793
 20
216.195
 11
-1.36908
 21
216.284
  0
LINE
  8
0
 10
-1.36908
 20
216.284
 11
-1.27484
 21
216.367
  0
LINE
  8
0
 10
-1.27484
 20
216.367
 11
-1.17557
 21
216.444
  0
LINE
  8
0
 10
-1.17557
 20
216.444
 11
-1.07164
 21
216.515
  0
LINE
  8
0
 10
-1.07164
 20
216.515
 11
-0.963501
 21
216.579
  0
LINE
  8
0
 10
-0.963501
 20
216.579
 11
-0.851547
 21
216.636
  0
LINE
  8
0
 10
-0.851547
 20
216.636
 11
-0.736237
 21
216.686
  0
LINE
  8
0
 10
-0.736237
 20
216.686
 11
-0.618027
 21
216.728
  0
LINE
  8
0
 10
-0.618027
 20
216.728
 11
-0.497375
 21
216.763
  0
LINE
  8
0
 10
-0.497375
 20
216.763
 11
-0.374756
 21
216.791
  0
LINE
  8
0
 10
-0.374756
 20
216.791
 11
-0.250656
 21
216.81
  0
LINE
  8
0
 10
-0.250656
 20
216.81
 11
-0.12558
 21
216.822
  0
LINE
  8
0
 10
-0.12558
 20
216.822
 11
0
 21
216.826
  0
LINE
  8
0
 10
0
 20
216.826
 11
0.12558
 21
216.822
  0
LINE
  8
0
 10
0.12558
 20
216.822
 11
0.250656
 21
216.81
  0
LINE
  8
0
 10
0.250656
 20
216.81
 11
0.374756
 21
216.791
  0
LINE
  8
0
 10
0.374756
 20
216.791
 11
0.497375
 21
216.763
  0
LINE
  8
0
 10
0.497375
 20
216.763
 11
0.618027
 21
216.728
  0
LINE
  8
0
 10
0.618027
 20
216.728
 11
0.736237
 21
216.686
  0
LINE
  8
0
 10
0.736237
 20
216.686
 11
0.851547
 21
216.636
  0
LINE
  8
0
 10
0.851547
 20
216.636
 11
0.963501
 21
216.579
  0
LINE
  8
0
 10
0.963501
 20
216.579
 11
1.07164
 21
216.515
  0
LINE
  8
0
 10
1.07164
 20
216.515
 11
1.17557
 21
216.444
  0
LINE
  8
0
 10
1.17557
 20
216.444
 11
1.27484
 21
216.367
  0
LINE
  8
0
 10
1.27484
 20
216.367
 11
1.36908
 21
216.284
  0
LINE
  8
0
 10
1.36908
 20
216.284
 11
1.45793
 21
216.195
  0
LINE
  8
0
 10
1.45793
 20
216.195
 11
1.54102
 21
216.101
  0
LINE
  8
0
 10
1.54102
 20
216.101
 11
1.61803
 21
216.002
  0
LINE
  8
0
 10
1.61803
 20
216.002
 11
1.68864
 21
215.898
  0
LINE
  8
0
 10
1.68864
 20
215.898
 11
1.75261
 21
215.79
  0
LINE
  8
0
 10
1.75261
 20
215.79
 11
1.80965
 21
215.678
  0
LINE
  8
0
 10
1.80965
 20
215.678
 11
1.85954
 21
215.562
  0
LINE
  8
0
 10
1.85954
 20
215.562
 11
1.9021
 21
215.444
  0
LINE
  8
0
 10
1.9021
 20
215.444
 11
1.93716
 21
215.324
  0
LINE
  8
0
 10
1.93716
 20
215.324
 11
1.96457
 21
215.201
  0
LINE
  8
0
 10
1.96457
 20
215.201
 11
1.98422
 21
215.077
  0
LINE
  8
0
 10
1.98422
 20
215.077
 11
1.99605
 21
214.952
  0
LINE
  8
0
 10
1.99605
 20
214.952
 11
2
 21
214.826
  0
LINE
  8
0
 10
2
 20
214.826
 11
1.99605
 21
214.701
  0
LINE
  8
0
 10
1.99605
 20
214.701
 11
1.98422
 21
214.576
  0
LINE
  8
0
 10
1.98422
 20
214.576
 11
1.96457
 21
214.451
  0
LINE
  8
0
 10
1.96457
 20
214.451
 11
1.93716
 21
214.329
  0
LINE
  8
0
 10
1.93716
 20
214.329
 11
1.9021
 21
214.208
  0
LINE
  8
0
 10
1.9021
 20
214.208
 11
1.85954
 21
214.09
  0
LINE
  8
0
 10
1.85954
 20
214.09
 11
1.80965
 21
213.975
  0
LINE
  8
0
 10
1.80965
 20
213.975
 11
1.75261
 21
213.863
  0
LINE
  8
0
 10
1.75261
 20
213.863
 11
1.68864
 21
213.755
  0
LINE
  8
0
 10
1.68864
 20
213.755
 11
1.61803
 21
213.651
  0
LINE
  8
0
 10
1.61803
 20
213.651
 11
1.54102
 21
213.551
  0
LINE
  8
0
 10
1.54102
 20
213.551
 11
1.45793
 21
213.457
  0
LINE
  8
0
 10
1.45793
 20
213.457
 11
1.36908
 21
213.368
  0
LINE
  8
0
 10
1.36908
 20
213.368
 11
1.27484
 21
213.285
  0
LINE
  8
0
 10
1.27484
 20
213.285
 11
1.17557
 21
213.208
  0
LINE
  8
0
 10
1.17557
 20
213.208
 11
1.07164
 21
213.138
  0
LINE
  8
0
 10
1.07164
 20
213.138
 11
0.963501
 21
213.074
  0
LINE
  8
0
 10
0.963501
 20
213.074
 11
0.851547
 21
213.017
  0
LINE
  8
0
 10
0.851547
 20
213.017
 11
0.736237
 21
212.967
  0
LINE
  8
0
 10
0.736237
 20
212.967
 11
0.618027
 21
212.924
  0
LINE
  8
0
 10
0.618027
 20
212.924
 11
0.497375
 21
212.889
  0
LINE
  8
0
 10
0.497375
 20
212.889
 11
0.374756
 21
212.862
  0
LINE
  8
0
 10
0.374756
 20
212.862
 11
0.250656
 21
212.842
  0
LINE
  8
0
 10
0.250656
 20
212.842
 11
0.12558
 21
212.83
  0
LINE
  8
0
 10
0.12558
 20
212.83
 11
0
 21
212.826
  0
LINE
  8
0
 10
0
 20
212.826
 11
-0.12558
 21
212.83
  0
LINE
  8
0
 10
-3.21304
 20
173.502
 11
-4.319
 21
174.835
  0
LINE
  8
0
 10
-4.319
 20
174.835
 11
-5.00885
 21
176.219
  0
LINE
  8
0
 10
-5.00885
 20
176.219
 11
-5.05196
 21
176.445
  0
LINE
  8
0
 10
-5.05196
 20
176.445
 11
-2.88861
 21
183.103
  0
LINE
  8
0
 10
-2.88861
 20
183.103
 11
-2.2197
 21
183.89
  0
LINE
  8
0
 10
-2.2197
 20
183.89
 11
-0.413818
 21
185.575
  0
LINE
  8
0
 10
-0.413818
 20
185.575
 11
1.57997
 21
187.131
  0
LINE
  8
0
 10
1.57997
 20
187.131
 11
4.38652
 21
178.493
  0
LINE
  8
0
 10
4.38652
 20
178.493
 11
3.77197
 21
177.617
  0
LINE
  8
0
 10
3.77197
 20
177.617
 11
3.07205
 21
177.15
  0
LINE
  8
0
 10
3.07205
 20
177.15
 11
2.3497
 21
177.184
  0
LINE
  8
0
 10
2.3497
 20
177.184
 11
1.60355
 21
177.717
  0
LINE
  8
0
 10
1.60355
 20
177.717
 11
0.834503
 21
178.751
  0
LINE
  8
0
 10
0.834503
 20
178.751
 11
0.0421143
 21
180.287
  0
LINE
  8
0
 10
0.0421143
 20
180.287
 11
-0.778656
 21
182.333
  0
LINE
  8
0
 10
-0.778656
 20
182.333
 11
-1.69556
 21
172.221
  0
LINE
  8
0
 10
-1.69556
 20
172.221
 11
-3.21304
 21
173.502
  0
LINE
  8
0
 10
-8.51559
 20
165.785
 11
-7.57648
 21
168.675
  0
LINE
  8
0
 10
-7.57648
 20
168.675
 11
-7.565
 21
168.515
  0
LINE
  8
0
 10
-7.565
 20
168.515
 11
-7.5032
 21
165.245
  0
LINE
  8
0
 10
-7.5032
 20
165.245
 11
-7.5032
 21
164.959
  0
LINE
  8
0
 10
-7.5032
 20
164.959
 11
-8.51559
 21
165.785
  0
LINE
  8
0
 10
5.56961
 20
159.669
 11
3.45932
 21
160.056
  0
LINE
  8
0
 10
3.45932
 20
160.056
 11
1.09726
 21
160.778
  0
LINE
  8
0
 10
1.09726
 20
160.778
 11
-1.51611
 21
161.835
  0
LINE
  8
0
 10
-1.51611
 20
161.835
 11
-4.38171
 21
163.227
  0
LINE
  8
0
 10
-4.38171
 20
163.227
 11
-7.29309
 21
164.835
  0
LINE
  8
0
 10
-7.29309
 20
164.835
 11
-7.49268
 21
164.951
  0
LINE
  8
0
 10
-7.49268
 20
164.951
 11
-4.21005
 21
166.197
  0
LINE
  8
0
 10
-4.21005
 20
166.197
 11
-1.34399
 21
167.175
  0
LINE
  8
0
 10
-1.34399
 20
167.175
 11
1.09955
 21
167.882
  0
LINE
  8
0
 10
1.09955
 20
167.882
 11
3.12103
 21
168.318
  0
LINE
  8
0
 10
3.12103
 20
168.318
 11
4.72046
 21
168.485
  0
LINE
  8
0
 10
4.72046
 20
168.485
 11
5.89691
 21
168.382
  0
LINE
  8
0
 10
5.89691
 20
168.382
 11
6.65039
 21
168.009
  0
LINE
  8
0
 10
6.65039
 20
168.009
 11
6.98227
 21
167.367
  0
LINE
  8
0
 10
6.98227
 20
167.367
 11
6.89301
 21
166.454
  0
LINE
  8
0
 10
6.89301
 20
166.454
 11
6.38168
 21
165.271
  0
LINE
  8
0
 10
6.38168
 20
165.271
 11
5.4483
 21
163.816
  0
LINE
  8
0
 10
5.4483
 20
163.816
 11
4.08646
 21
162.082
  0
LINE
  8
0
 10
4.08646
 20
162.082
 11
8.98288
 21
164.347
  0
LINE
  8
0
 10
8.98288
 20
164.347
 11
10.2472
 21
160.456
  0
LINE
  8
0
 10
10.2472
 20
160.456
 11
9.03625
 21
159.902
  0
LINE
  8
0
 10
9.03625
 20
159.902
 11
7.4295
 21
159.619
  0
LINE
  8
0
 10
7.4295
 20
159.619
 11
5.56961
 21
159.669
  0
LINE
  8
0
 10
-12.6503
 20
151.203
 11
-13.1399
 21
151.553
  0
LINE
  8
0
 10
-13.1399
 20
151.553
 11
-9.09871
 21
163.991
  0
LINE
  8
0
 10
-9.09871
 20
163.991
 11
-7.72568
 21
164.818
  0
LINE
  8
0
 10
-7.72568
 20
164.818
 11
-7.50412
 21
164.947
  0
LINE
  8
0
 10
-7.50412
 20
164.947
 11
-8.06671
 21
161.48
  0
LINE
  8
0
 10
-8.06671
 20
161.48
 11
-8.65311
 21
158.509
  0
LINE
  8
0
 10
-8.65311
 20
158.509
 11
-9.26239
 21
156.039
  0
LINE
  8
0
 10
-9.26239
 20
156.039
 11
-9.89548
 21
154.071
  0
LINE
  8
0
 10
-9.89548
 20
154.071
 11
-10.5505
 21
152.602
  0
LINE
  8
0
 10
-10.5505
 20
152.602
 11
-11.228
 21
151.636
  0
LINE
  8
0
 10
-11.228
 20
151.636
 11
-11.9279
 21
151.169
  0
LINE
  8
0
 10
-11.9279
 20
151.169
 11
-12.6503
 21
151.203
  0
LINE
  8
0
 10
4.77676
 20
141.198
 11
2.4971
 21
143.191
  0
LINE
  8
0
 10
2.4971
 20
143.191
 11
0.662384
 21
144.954
  0
LINE
  8
0
 10
0.662384
 20
144.954
 11
-0.726471
 21
146.487
  0
LINE
  8
0
 10
-0.726471
 20
146.487
 11
-1.66992
 21
147.788
  0
LINE
  8
0
 10
-1.66992
 20
147.788
 11
-2.16843
 21
148.858
  0
LINE
  8
0
 10
-2.16843
 20
148.858
 11
-2.22244
 21
149.698
  0
LINE
  8
0
 10
-2.22244
 20
149.698
 11
-1.83243
 21
150.306
  0
LINE
  8
0
 10
-1.83243
 20
150.306
 11
-0.997925
 21
150.685
  0
LINE
  8
0
 10
-0.997925
 20
150.685
 11
0.283356
 21
150.834
  0
LINE
  8
0
 10
0.283356
 20
150.834
 11
2.00958
 21
150.753
  0
LINE
  8
0
 10
2.00958
 20
150.753
 11
4.19174
 21
150.441
  0
LINE
  8
0
 10
4.19174
 20
150.441
 11
-4.10797
 21
156.291
  0
LINE
  8
0
 10
-4.10797
 20
156.291
 11
-2.23938
 21
156.965
  0
LINE
  8
0
 10
-2.23938
 20
156.965
 11
-0.531464
 21
157.256
  0
LINE
  8
0
 10
-0.531464
 20
157.256
 11
1.01212
 21
157.161
  0
LINE
  8
0
 10
1.01212
 20
157.161
 11
2.39044
 21
156.682
  0
LINE
  8
0
 10
2.39044
 20
156.682
 11
3.60535
 21
155.817
  0
LINE
  8
0
 10
3.60535
 20
155.817
 11
4.65454
 21
154.567
  0
LINE
  8
0
 10
4.65454
 20
154.567
 11
5.53986
 21
152.931
  0
LINE
  8
0
 10
5.53986
 20
152.931
 11
6.26083
 21
150.91
  0
LINE
  8
0
 10
6.26083
 20
150.91
 11
6.81702
 21
148.503
  0
LINE
  8
0
 10
6.81702
 20
148.503
 11
7.20795
 21
145.712
  0
LINE
  8
0
 10
7.20795
 20
145.712
 11
7.435
 21
142.534
  0
LINE
  8
0
 10
7.435
 20
142.534
 11
7.4968
 21
139.264
  0
LINE
  8
0
 10
7.4968
 20
139.264
 11
7.4968
 21
138.978
  0
LINE
  8
0
 10
7.4968
 20
138.978
 11
4.77676
 21
141.198
  0
LINE
  8
0
 10
11.787
 20
147.521
 11
10.681
 21
148.854
  0
LINE
  8
0
 10
10.681
 20
148.854
 11
9.99115
 21
150.239
  0
LINE
  8
0
 10
9.99115
 20
150.239
 11
9.71741
 21
151.671
  0
LINE
  8
0
 10
9.71741
 20
151.671
 11
9.8584
 21
153.156
  0
LINE
  8
0
 10
9.8584
 20
153.156
 11
10.4169
 21
154.689
  0
LINE
  8
0
 10
10.4169
 20
154.689
 11
11.3905
 21
156.274
  0
LINE
  8
0
 10
11.3905
 20
156.274
 11
11.5463
 21
156.458
  0
LINE
  8
0
 10
11.5463
 20
156.458
 11
13.6452
 21
149.998
  0
LINE
  8
0
 10
13.6452
 20
149.998
 11
13.3044
 21
146.24
  0
LINE
  8
0
 10
13.3044
 20
146.24
 11
11.787
 21
147.521
  0
LINE
  8
0
 10
-9.43039
 20
133.689
 11
-11.5407
 21
134.075
  0
LINE
  8
0
 10
-11.5407
 20
134.075
 11
-13.9027
 21
134.797
  0
LINE
  8
0
 10
-13.9027
 20
134.797
 11
-16.5161
 21
135.854
  0
LINE
  8
0
 10
-16.5161
 20
135.854
 11
-18.0056
 21
136.578
  0
LINE
  8
0
 10
-18.0056
 20
136.578
 11
-16.526
 21
141.132
  0
LINE
  8
0
 10
-16.526
 20
141.132
 11
-16.344
 21
141.194
  0
LINE
  8
0
 10
-16.344
 20
141.194
 11
-13.9005
 21
141.901
  0
LINE
  8
0
 10
-13.9005
 20
141.901
 11
-11.879
 21
142.337
  0
LINE
  8
0
 10
-11.879
 20
142.337
 11
-10.2795
 21
142.504
  0
LINE
  8
0
 10
-10.2795
 20
142.504
 11
-9.10309
 21
142.401
  0
LINE
  8
0
 10
-9.10309
 20
142.401
 11
-8.34961
 21
142.028
  0
LINE
  8
0
 10
-8.34961
 20
142.028
 11
-8.01773
 21
141.386
  0
LINE
  8
0
 10
-8.01773
 20
141.386
 11
-8.10699
 21
140.473
  0
LINE
  8
0
 10
-8.10699
 20
140.473
 11
-8.61832
 21
139.29
  0
LINE
  8
0
 10
-8.61832
 20
139.29
 11
-9.5517
 21
137.835
  0
LINE
  8
0
 10
-9.5517
 20
137.835
 11
-10.9135
 21
136.102
  0
LINE
  8
0
 10
-10.9135
 20
136.102
 11
-1.69693
 21
140.364
  0
LINE
  8
0
 10
-1.69693
 20
140.364
 11
-2.04758
 21
138.409
  0
LINE
  8
0
 10
-2.04758
 20
138.409
 11
-2.64954
 21
136.784
  0
LINE
  8
0
 10
-2.64954
 20
136.784
 11
-3.50327
 21
135.495
  0
LINE
  8
0
 10
-3.50327
 20
135.495
 11
-4.60693
 21
134.541
  0
LINE
  8
0
 10
-4.60693
 20
134.541
 11
-5.96375
 21
133.922
  0
LINE
  8
0
 10
-5.96375
 20
133.922
 11
-7.5705
 21
133.638
  0
LINE
  8
0
 10
-7.5705
 20
133.638
 11
-9.43039
 21
133.689
  0
LINE
  8
0
 10
18.4593
 20
134.075
 11
16.0973
 21
134.797
  0
LINE
  8
0
 10
16.0973
 20
134.797
 11
13.4839
 21
135.854
  0
LINE
  8
0
 10
13.4839
 20
135.854
 11
10.6183
 21
137.246
  0
LINE
  8
0
 10
10.6183
 20
137.246
 11
7.70691
 21
138.854
  0
LINE
  8
0
 10
7.70691
 20
138.854
 11
7.50732
 21
138.97
  0
LINE
  8
0
 10
7.50732
 20
138.97
 11
10.7899
 21
140.216
  0
LINE
  8
0
 10
10.7899
 20
140.216
 11
13.656
 21
141.194
  0
LINE
  8
0
 10
13.656
 20
141.194
 11
16.0995
 21
141.901
  0
LINE
  8
0
 10
16.0995
 20
141.901
 11
16.2645
 21
141.937
  0
LINE
  8
0
 10
16.2645
 20
141.937
 11
18.8416
 21
134.005
  0
LINE
  8
0
 10
18.8416
 20
134.005
 11
18.4593
 21
134.075
  0
LINE
  8
0
 10
-3.21304
 20
121.54
 11
-4.319
 21
122.874
  0
LINE
  8
0
 10
-4.319
 20
122.874
 11
-5.00885
 21
124.258
  0
LINE
  8
0
 10
-5.00885
 20
124.258
 11
-5.28259
 21
125.691
  0
LINE
  8
0
 10
-5.28259
 20
125.691
 11
-5.1416
 21
127.175
  0
LINE
  8
0
 10
-5.1416
 20
127.175
 11
-4.58313
 21
128.709
  0
LINE
  8
0
 10
-4.58313
 20
128.709
 11
-3.60947
 21
130.293
  0
LINE
  8
0
 10
-3.60947
 20
130.293
 11
-2.2197
 21
131.929
  0
LINE
  8
0
 10
-2.2197
 20
131.929
 11
-0.413818
 21
133.613
  0
LINE
  8
0
 10
-0.413818
 20
133.613
 11
1.80862
 21
135.348
  0
LINE
  8
0
 10
1.80862
 20
135.348
 11
4.44717
 21
137.133
  0
LINE
  8
0
 10
4.44717
 20
137.133
 11
7.27432
 21
138.838
  0
LINE
  8
0
 10
7.27432
 20
138.838
 11
7.49588
 21
138.966
  0
LINE
  8
0
 10
7.49588
 20
138.966
 11
6.93329
 21
135.5
  0
LINE
  8
0
 10
6.93329
 20
135.5
 11
6.34689
 21
132.528
  0
LINE
  8
0
 10
6.34689
 20
132.528
 11
5.73761
 21
130.058
  0
LINE
  8
0
 10
5.73761
 20
130.058
 11
5.10452
 21
128.09
  0
LINE
  8
0
 10
5.10452
 20
128.09
 11
4.44946
 21
126.621
  0
LINE
  8
0
 10
4.44946
 20
126.621
 11
3.77197
 21
125.655
  0
LINE
  8
0
 10
3.77197
 20
125.655
 11
3.07205
 21
125.188
  0
LINE
  8
0
 10
3.07205
 20
125.188
 11
2.3497
 21
125.222
  0
LINE
  8
0
 10
2.3497
 20
125.222
 11
1.60355
 21
125.756
  0
LINE
  8
0
 10
1.60355
 20
125.756
 11
0.834503
 21
126.79
  0
LINE
  8
0
 10
0.834503
 20
126.79
 11
0.0421143
 21
128.325
  0
LINE
  8
0
 10
0.0421143
 20
128.325
 11
-0.778656
 21
130.371
  0
LINE
  8
0
 10
-0.778656
 20
130.371
 11
-1.69556
 21
120.259
  0
LINE
  8
0
 10
-1.69556
 20
120.259
 11
-3.21304
 21
121.54
  0
LINE
  8
0
 10
-10.2232
 20
115.217
 11
-12.5029
 21
117.211
  0
LINE
  8
0
 10
-12.5029
 20
117.211
 11
-14.3376
 21
118.973
  0
LINE
  8
0
 10
-14.3376
 20
118.973
 11
-15.7265
 21
120.506
  0
LINE
  8
0
 10
-15.7265
 20
120.506
 11
-16.6699
 21
121.807
  0
LINE
  8
0
 10
-16.6699
 20
121.807
 11
-17.1684
 21
122.877
  0
LINE
  8
0
 10
-17.1684
 20
122.877
 11
-17.2224
 21
123.717
  0
LINE
  8
0
 10
-17.2224
 20
123.717
 11
-16.8324
 21
124.326
  0
LINE
  8
0
 10
-16.8324
 20
124.326
 11
-15.9979
 21
124.704
  0
LINE
  8
0
 10
-15.9979
 20
124.704
 11
-14.7166
 21
124.853
  0
LINE
  8
0
 10
-14.7166
 20
124.853
 11
-12.9904
 21
124.772
  0
LINE
  8
0
 10
-12.9904
 20
124.772
 11
-10.8083
 21
124.46
  0
LINE
  8
0
 10
-10.8083
 20
124.46
 11
-19.108
 21
130.31
  0
LINE
  8
0
 10
-19.108
 20
130.31
 11
-17.2394
 21
130.984
  0
LINE
  8
0
 10
-17.2394
 20
130.984
 11
-15.5315
 21
131.275
  0
LINE
  8
0
 10
-15.5315
 20
131.275
 11
-13.9879
 21
131.18
  0
LINE
  8
0
 10
-13.9879
 20
131.18
 11
-12.6096
 21
130.701
  0
LINE
  8
0
 10
-12.6096
 20
130.701
 11
-11.3947
 21
129.836
  0
LINE
  8
0
 10
-11.3947
 20
129.836
 11
-10.3455
 21
128.586
  0
LINE
  8
0
 10
-10.3455
 20
128.586
 11
-9.46014
 21
126.95
  0
LINE
  8
0
 10
-9.46014
 20
126.95
 11
-8.73917
 21
124.929
  0
LINE
  8
0
 10
-8.73917
 20
124.929
 11
-8.18298
 21
122.522
  0
LINE
  8
0
 10
-8.18298
 20
122.522
 11
-7.79205
 21
119.731
  0
LINE
  8
0
 10
-7.79205
 20
119.731
 11
-7.565
 21
116.553
  0
LINE
  8
0
 10
-7.565
 20
116.553
 11
-7.5032
 21
113.283
  0
LINE
  8
0
 10
-7.5032
 20
113.283
 11
-7.5032
 21
112.997
  0
LINE
  8
0
 10
-7.5032
 20
112.997
 11
-10.2232
 21
115.217
  0
LINE
  8
0
 10
19.7768
 20
115.217
 11
17.4971
 21
117.211
  0
LINE
  8
0
 10
17.4971
 20
117.211
 11
15.6624
 21
118.973
  0
LINE
  8
0
 10
15.6624
 20
118.973
 11
14.2735
 21
120.506
  0
LINE
  8
0
 10
14.2735
 20
120.506
 11
13.3301
 21
121.807
  0
LINE
  8
0
 10
13.3301
 20
121.807
 11
12.8316
 21
122.877
  0
LINE
  8
0
 10
12.8316
 20
122.877
 11
12.7776
 21
123.717
  0
LINE
  8
0
 10
12.7776
 20
123.717
 11
13.1676
 21
124.326
  0
LINE
  8
0
 10
13.1676
 20
124.326
 11
14.0021
 21
124.704
  0
LINE
  8
0
 10
14.0021
 20
124.704
 11
15.2834
 21
124.853
  0
LINE
  8
0
 10
15.2834
 20
124.853
 11
17.0096
 21
124.772
  0
LINE
  8
0
 10
17.0096
 20
124.772
 11
19.1917
 21
124.46
  0
LINE
  8
0
 10
19.1917
 20
124.46
 11
10.892
 21
130.31
  0
LINE
  8
0
 10
10.892
 20
130.31
 11
12.7606
 21
130.984
  0
LINE
  8
0
 10
12.7606
 20
130.984
 11
14.4685
 21
131.275
  0
LINE
  8
0
 10
14.4685
 20
131.275
 11
16.0121
 21
131.18
  0
LINE
  8
0
 10
16.0121
 20
131.18
 11
17.3904
 21
130.701
  0
LINE
  8
0
 10
17.3904
 20
130.701
 11
18.6053
 21
129.836
  0
LINE
  8
0
 10
18.6053
 20
129.836
 11
19.6545
 21
128.586
  0
LINE
  8
0
 10
19.6545
 20
128.586
 11
20.5399
 21
126.95
  0
LINE
  8
0
 10
20.5399
 20
126.95
 11
21.2608
 21
124.929
  0
LINE
  8
0
 10
21.2608
 20
124.929
 11
21.817
 21
122.522
  0
LINE
  8
0
 10
21.817
 20
122.522
 11
22.2079
 21
119.731
  0
LINE
  8
0
 10
22.2079
 20
119.731
 11
22.435
 21
116.553
  0
LINE
  8
0
 10
22.435
 20
116.553
 11
22.4968
 21
113.283
  0
LINE
  8
0
 10
22.4968
 20
113.283
 11
22.4968
 21
112.997
  0
LINE
  8
0
 10
22.4968
 20
112.997
 11
19.7768
 21
115.217
  0
LINE
  8
0
 10
5.56961
 20
107.708
 11
3.45932
 21
108.094
  0
LINE
  8
0
 10
3.45932
 20
108.094
 11
1.09726
 21
108.816
  0
LINE
  8
0
 10
1.09726
 20
108.816
 11
-1.51611
 21
109.874
  0
LINE
  8
0
 10
-1.51611
 20
109.874
 11
-4.38171
 21
111.266
  0
LINE
  8
0
 10
-4.38171
 20
111.266
 11
-7.29309
 21
112.873
  0
LINE
  8
0
 10
-7.29309
 20
112.873
 11
-7.49268
 21
112.989
  0
LINE
  8
0
 10
-7.49268
 20
112.989
 11
-4.21005
 21
114.236
  0
LINE
  8
0
 10
-4.21005
 20
114.236
 11
-1.34399
 21
115.213
  0
LINE
  8
0
 10
-1.34399
 20
115.213
 11
1.09955
 21
115.92
  0
LINE
  8
0
 10
1.09955
 20
115.92
 11
3.12103
 21
116.356
  0
LINE
  8
0
 10
3.12103
 20
116.356
 11
4.72046
 21
116.523
  0
LINE
  8
0
 10
4.72046
 20
116.523
 11
5.89691
 21
116.42
  0
LINE
  8
0
 10
5.89691
 20
116.42
 11
6.65039
 21
116.047
  0
LINE
  8
0
 10
6.65039
 20
116.047
 11
6.98227
 21
115.405
  0
LINE
  8
0
 10
6.98227
 20
115.405
 11
6.89301
 21
114.492
  0
LINE
  8
0
 10
6.89301
 20
114.492
 11
6.38168
 21
113.309
  0
LINE
  8
0
 10
6.38168
 20
113.309
 11
5.4483
 21
111.854
  0
LINE
  8
0
 10
5.4483
 20
111.854
 11
4.08646
 21
110.121
  0
LINE
  8
0
 10
4.08646
 20
110.121
 11
13.3031
 21
114.383
  0
LINE
  8
0
 10
13.3031
 20
114.383
 11
12.9524
 21
112.428
  0
LINE
  8
0
 10
12.9524
 20
112.428
 11
12.3505
 21
110.803
  0
LINE
  8
0
 10
12.3505
 20
110.803
 11
11.4967
 21
109.514
  0
LINE
  8
0
 10
11.4967
 20
109.514
 11
10.3931
 21
108.561
  0
LINE
  8
0
 10
10.3931
 20
108.561
 11
9.03625
 21
107.941
  0
LINE
  8
0
 10
9.03625
 20
107.941
 11
7.4295
 21
107.657
  0
LINE
  8
0
 10
7.4295
 20
107.657
 11
5.56961
 21
107.708
  0
LINE
  8
0
 10
-24.4304
 20
107.708
 11
-26.5407
 21
108.094
  0
LINE
  8
0
 10
-26.5407
 20
108.094
 11
-27.1955
 21
108.294
  0
LINE
  8
0
 10
-27.1955
 20
108.294
 11
-24.5427
 21
116.459
  0
LINE
  8
0
 10
-24.5427
 20
116.459
 11
-24.1031
 21
116.42
  0
LINE
  8
0
 10
-24.1031
 20
116.42
 11
-23.3496
 21
116.047
  0
LINE
  8
0
 10
-23.3496
 20
116.047
 11
-23.0177
 21
115.405
  0
LINE
  8
0
 10
-23.0177
 20
115.405
 11
-23.107
 21
114.492
  0
LINE
  8
0
 10
-23.107
 20
114.492
 11
-23.6183
 21
113.309
  0
LINE
  8
0
 10
-23.6183
 20
113.309
 11
-24.5517
 21
111.854
  0
LINE
  8
0
 10
-24.5517
 20
111.854
 11
-25.9135
 21
110.121
  0
LINE
  8
0
 10
-25.9135
 20
110.121
 11
-16.6969
 21
114.383
  0
LINE
  8
0
 10
-16.6969
 20
114.383
 11
-17.0476
 21
112.428
  0
LINE
  8
0
 10
-17.0476
 20
112.428
 11
-17.6495
 21
110.803
  0
LINE
  8
0
 10
-17.6495
 20
110.803
 11
-18.5033
 21
109.514
  0
LINE
  8
0
 10
-18.5033
 20
109.514
 11
-19.6069
 21
108.561
  0
LINE
  8
0
 10
-19.6069
 20
108.561
 11
-20.9637
 21
107.941
  0
LINE
  8
0
 10
-20.9637
 20
107.941
 11
-22.5705
 21
107.657
  0
LINE
  8
0
 10
-22.5705
 20
107.657
 11
-24.4304
 21
107.708
  0
LINE
  8
0
 10
25.6183
 20
111.266
 11
22.7069
 21
112.873
  0
LINE
  8
0
 10
22.7069
 20
112.873
 11
22.5073
 21
112.989
  0
LINE
  8
0
 10
22.5073
 20
112.989
 11
25.3227
 21
114.058
  0
LINE
  8
0
 10
25.3227
 20
114.058
 11
26.3447
 21
110.913
  0
LINE
  8
0
 10
26.3447
 20
110.913
 11
25.6183
 21
111.266
  0
LINE
  8
0
 10
11.787
 20
95.5592
 11
10.681
 21
96.8927
  0
LINE
  8
0
 10
10.681
 20
96.8927
 11
9.99115
 21
98.277
  0
LINE
  8
0
 10
9.99115
 20
98.277
 11
9.71741
 21
99.7098
  0
LINE
  8
0
 10
9.71741
 20
99.7098
 11
9.8584
 21
101.194
  0
LINE
  8
0
 10
9.8584
 20
101.194
 11
10.4169
 21
102.728
  0
LINE
  8
0
 10
10.4169
 20
102.728
 11
11.3905
 21
104.313
  0
LINE
  8
0
 10
11.3905
 20
104.313
 11
12.7803
 21
105.948
  0
LINE
  8
0
 10
12.7803
 20
105.948
 11
14.5862
 21
107.632
  0
LINE
  8
0
 10
14.5862
 20
107.632
 11
16.8086
 21
109.367
  0
LINE
  8
0
 10
16.8086
 20
109.367
 11
19.4472
 21
111.152
  0
LINE
  8
0
 10
19.4472
 20
111.152
 11
22.2743
 21
112.857
  0
LINE
  8
0
 10
22.2743
 20
112.857
 11
22.4959
 21
112.985
  0
LINE
  8
0
 10
22.4959
 20
112.985
 11
21.9333
 21
109.519
  0
LINE
  8
0
 10
21.9333
 20
109.519
 11
21.3469
 21
106.547
  0
LINE
  8
0
 10
21.3469
 20
106.547
 11
20.7376
 21
104.077
  0
LINE
  8
0
 10
20.7376
 20
104.077
 11
20.1045
 21
102.109
  0
LINE
  8
0
 10
20.1045
 20
102.109
 11
19.4495
 21
100.64
  0
LINE
  8
0
 10
19.4495
 20
100.64
 11
18.772
 21
99.6741
  0
LINE
  8
0
 10
18.772
 20
99.6741
 11
18.0721
 21
99.2076
  0
LINE
  8
0
 10
18.0721
 20
99.2076
 11
17.3497
 21
99.241
  0
LINE
  8
0
 10
17.3497
 20
99.241
 11
16.6035
 21
99.7748
  0
LINE
  8
0
 10
16.6035
 20
99.7748
 11
15.8345
 21
100.809
  0
LINE
  8
0
 10
15.8345
 20
100.809
 11
15.0421
 21
102.344
  0
LINE
  8
0
 10
15.0421
 20
102.344
 11
14.2213
 21
104.39
  0
LINE
  8
0
 10
14.2213
 20
104.39
 11
13.3044
 21
94.2784
  0
LINE
  8
0
 10
13.3044
 20
94.2784
 11
11.787
 21
95.5592
  0
LINE
  8
0
 10
-18.213
 20
95.5592
 11
-19.319
 21
96.8927
  0
LINE
  8
0
 10
-19.319
 20
96.8927
 11
-20.0089
 21
98.277
  0
LINE
  8
0
 10
-20.0089
 20
98.277
 11
-20.2826
 21
99.7098
  0
LINE
  8
0
 10
-20.2826
 20
99.7098
 11
-20.1416
 21
101.194
  0
LINE
  8
0
 10
-20.1416
 20
101.194
 11
-19.5831
 21
102.728
  0
LINE
  8
0
 10
-19.5831
 20
102.728
 11
-18.6095
 21
104.313
  0
LINE
  8
0
 10
-18.6095
 20
104.313
 11
-17.2197
 21
105.948
  0
LINE
  8
0
 10
-17.2197
 20
105.948
 11
-15.4138
 21
107.632
  0
LINE
  8
0
 10
-15.4138
 20
107.632
 11
-13.1914
 21
109.367
  0
LINE
  8
0
 10
-13.1914
 20
109.367
 11
-10.5528
 21
111.152
  0
LINE
  8
0
 10
-10.5528
 20
111.152
 11
-7.72568
 21
112.857
  0
LINE
  8
0
 10
-7.72568
 20
112.857
 11
-7.50412
 21
112.985
  0
LINE
  8
0
 10
-7.50412
 20
112.985
 11
-8.06671
 21
109.519
  0
LINE
  8
0
 10
-8.06671
 20
109.519
 11
-8.65311
 21
106.547
  0
LINE
  8
0
 10
-8.65311
 20
106.547
 11
-9.26239
 21
104.077
  0
LINE
  8
0
 10
-9.26239
 20
104.077
 11
-9.89548
 21
102.109
  0
LINE
  8
0
 10
-9.89548
 20
102.109
 11
-10.5505
 21
100.64
  0
LINE
  8
0
 10
-10.5505
 20
100.64
 11
-11.228
 21
99.6741
  0
LINE
  8
0
 10
-11.228
 20
99.6741
 11
-11.9279
 21
99.2076
  0
LINE
  8
0
 10
-11.9279
 20
99.2076
 11
-12.6503
 21
99.241
  0
LINE
  8
0
 10
-12.6503
 20
99.241
 11
-13.3965
 21
99.7748
  0
LINE
  8
0
 10
-13.3965
 20
99.7748
 11
-14.1655
 21
100.809
  0
LINE
  8
0
 10
-14.1655
 20
100.809
 11
-14.9579
 21
102.344
  0
LINE
  8
0
 10
-14.9579
 20
102.344
 11
-15.7787
 21
104.39
  0
LINE
  8
0
 10
-15.7787
 20
104.39
 11
-16.6956
 21
94.2784
  0
LINE
  8
0
 10
-16.6956
 20
94.2784
 11
-18.213
 21
95.5592
  0
LINE
  8
0
 10
4.77676
 20
89.2361
 11
2.4971
 21
91.2297
  0
LINE
  8
0
 10
2.4971
 20
91.2297
 11
0.662384
 21
92.9926
  0
LINE
  8
0
 10
0.662384
 20
92.9926
 11
-0.726471
 21
94.5251
  0
LINE
  8
0
 10
-0.726471
 20
94.5251
 11
-1.66992
 21
95.8261
  0
LINE
  8
0
 10
-1.66992
 20
95.8261
 11
-2.16843
 21
96.8959
  0
LINE
  8
0
 10
-2.16843
 20
96.8959
 11
-2.22244
 21
97.7359
  0
LINE
  8
0
 10
-2.22244
 20
97.7359
 11
-1.83243
 21
98.3447
  0
LINE
  8
0
 10
-1.83243
 20
98.3447
 11
-0.997925
 21
98.7233
  0
LINE
  8
0
 10
-0.997925
 20
98.7233
 11
0.283356
 21
98.8725
  0
LINE
  8
0
 10
0.283356
 20
98.8725
 11
2.00958
 21
98.7915
  0
LINE
  8
0
 10
2.00958
 20
98.7915
 11
4.19174
 21
98.4789
  0
LINE
  8
0
 10
4.19174
 20
98.4789
 11
-4.10797
 21
104.329
  0
LINE
  8
0
 10
-4.10797
 20
104.329
 11
-2.23938
 21
105.003
  0
LINE
  8
0
 10
-2.23938
 20
105.003
 11
-0.531464
 21
105.294
  0
LINE
  8
0
 10
-0.531464
 20
105.294
 11
1.01212
 21
105.199
  0
LINE
  8
0
 10
1.01212
 20
105.199
 11
2.39044
 21
104.72
  0
LINE
  8
0
 10
2.39044
 20
104.72
 11
3.60535
 21
103.855
  0
LINE
  8
0
 10
3.60535
 20
103.855
 11
4.65454
 21
102.605
  0
LINE
  8
0
 10
4.65454
 20
102.605
 11
5.53986
 21
100.97
  0
LINE
  8
0
 10
5.53986
 20
100.97
 11
6.26083
 21
98.9485
  0
LINE
  8
0
 10
6.26083
 20
98.9485
 11
6.81702
 21
96.5416
  0
LINE
  8
0
 10
6.81702
 20
96.5416
 11
7.20795
 21
93.7502
  0
LINE
  8
0
 10
7.20795
 20
93.7502
 11
7.435
 21
90.5724
  0
LINE
  8
0
 10
7.435
 20
90.5724
 11
7.4968
 21
87.3026
  0
LINE
  8
0
 10
7.4968
 20
87.3026
 11
7.4968
 21
87.0164
  0
LINE
  8
0
 10
7.4968
 20
87.0164
 11
4.77676
 21
89.2361
  0
LINE
  8
0
 10
25.892
 20
104.329
 11
27.7606
 21
105.003
  0
LINE
  8
0
 10
27.7606
 20
105.003
 11
28.2384
 21
105.085
  0
LINE
  8
0
 10
28.2384
 20
105.085
 11
29.2538
 21
101.959
  0
LINE
  8
0
 10
29.2538
 20
101.959
 11
25.892
 21
104.329
  0
LINE
  8
0
 10
-25.2232
 20
89.2361
 11
-27.5029
 21
91.2297
  0
LINE
  8
0
 10
-27.5029
 20
91.2297
 11
-29.3376
 21
92.9926
  0
LINE
  8
0
 10
-29.3376
 20
92.9926
 11
-30.7265
 21
94.5251
  0
LINE
  8
0
 10
-30.7265
 20
94.5251
 11
-31.3776
 21
95.423
  0
LINE
  8
0
 10
-31.3776
 20
95.423
 11
-30.2781
 21
98.8071
  0
LINE
  8
0
 10
-30.2781
 20
98.8071
 11
-29.7166
 21
98.8725
  0
LINE
  8
0
 10
-29.7166
 20
98.8725
 11
-27.9904
 21
98.7915
  0
LINE
  8
0
 10
-27.9904
 20
98.7915
 11
-25.8083
 21
98.4789
  0
LINE
  8
0
 10
-25.8083
 20
98.4789
 11
-29.5319
 21
101.104
  0
LINE
  8
0
 10
-29.5319
 20
101.104
 11
-28.281
 21
104.953
  0
LINE
  8
0
 10
-28.281
 20
104.953
 11
-27.6096
 21
104.72
  0
LINE
  8
0
 10
-27.6096
 20
104.72
 11
-26.3947
 21
103.855
  0
LINE
  8
0
 10
-26.3947
 20
103.855
 11
-25.3455
 21
102.605
  0
LINE
  8
0
 10
-25.3455
 20
102.605
 11
-24.4601
 21
100.97
  0
LINE
  8
0
 10
-24.4601
 20
100.97
 11
-23.7392
 21
98.9485
  0
LINE
  8
0
 10
-23.7392
 20
98.9485
 11
-23.183
 21
96.5416
  0
LINE
  8
0
 10
-23.183
 20
96.5416
 11
-22.7921
 21
93.7502
  0
LINE
  8
0
 10
-22.7921
 20
93.7502
 11
-22.565
 21
90.5724
  0
LINE
  8
0
 10
-22.565
 20
90.5724
 11
-22.5032
 21
87.3026
  0
LINE
  8
0
 10
-22.5032
 20
87.3026
 11
-22.5032
 21
87.0164
  0
LINE
  8
0
 10
-22.5032
 20
87.0164
 11
-25.2232
 21
89.2361
  0
LINE
  8
0
 10
32.4971
 20
91.2297
 11
30.6624
 21
92.9926
  0
LINE
  8
0
 10
30.6624
 20
92.9926
 11
29.2735
 21
94.5251
  0
LINE
  8
0
 10
29.2735
 20
94.5251
 11
28.3301
 21
95.8261
  0
LINE
  8
0
 10
28.3301
 20
95.8261
 11
27.8316
 21
96.8959
  0
LINE
  8
0
 10
27.8316
 20
96.8959
 11
27.7776
 21
97.7359
  0
LINE
  8
0
 10
27.7776
 20
97.7359
 11
28.1676
 21
98.3447
  0
LINE
  8
0
 10
28.1676
 20
98.3447
 11
29.0021
 21
98.7233
  0
LINE
  8
0
 10
29.0021
 20
98.7233
 11
30.2578
 21
98.8696
  0
LINE
  8
0
 10
30.2578
 20
98.8696
 11
32.8366
 21
90.9328
  0
LINE
  8
0
 10
32.8366
 20
90.9328
 11
32.4971
 21
91.2297
  0
LINE
  8
0
 10
20.5696
 20
81.727
 11
18.4593
 21
82.1133
  0
LINE
  8
0
 10
18.4593
 20
82.1133
 11
16.0973
 21
82.8352
  0
LINE
  8
0
 10
16.0973
 20
82.8352
 11
13.4839
 21
83.8927
  0
LINE
  8
0
 10
13.4839
 20
83.8927
 11
10.6183
 21
85.2847
  0
LINE
  8
0
 10
10.6183
 20
85.2847
 11
7.70691
 21
86.8924
  0
LINE
  8
0
 10
7.70691
 20
86.8924
 11
7.50732
 21
87.0082
  0
LINE
  8
0
 10
7.50732
 20
87.0082
 11
10.7899
 21
88.2547
  0
LINE
  8
0
 10
10.7899
 20
88.2547
 11
13.656
 21
89.232
  0
LINE
  8
0
 10
13.656
 20
89.232
 11
16.0995
 21
89.9393
  0
LINE
  8
0
 10
16.0995
 20
89.9393
 11
18.121
 21
90.3755
  0
LINE
  8
0
 10
18.121
 20
90.3755
 11
19.7205
 21
90.5426
  0
LINE
  8
0
 10
19.7205
 20
90.5426
 11
20.8969
 21
90.4391
  0
LINE
  8
0
 10
20.8969
 20
90.4391
 11
21.6504
 21
90.0661
  0
LINE
  8
0
 10
21.6504
 20
90.0661
 11
21.9823
 21
89.4243
  0
LINE
  8
0
 10
21.9823
 20
89.4243
 11
21.893
 21
88.511
  0
LINE
  8
0
 10
21.893
 20
88.511
 11
21.3817
 21
87.3282
  0
LINE
  8
0
 10
21.3817
 20
87.3282
 11
20.4483
 21
85.8734
  0
LINE
  8
0
 10
20.4483
 20
85.8734
 11
19.0865
 21
84.1399
  0
LINE
  8
0
 10
19.0865
 20
84.1399
 11
28.3031
 21
88.4026
  0
LINE
  8
0
 10
28.3031
 20
88.4026
 11
27.9524
 21
86.447
  0
LINE
  8
0
 10
27.9524
 20
86.447
 11
27.3505
 21
84.8219
  0
LINE
  8
0
 10
27.3505
 20
84.8219
 11
26.4967
 21
83.5333
  0
LINE
  8
0
 10
26.4967
 20
83.5333
 11
25.3931
 21
82.5798
  0
LINE
  8
0
 10
25.3931
 20
82.5798
 11
24.0363
 21
81.96
  0
LINE
  8
0
 10
24.0363
 20
81.96
 11
22.4295
 21
81.6762
  0
LINE
  8
0
 10
22.4295
 20
81.6762
 11
20.5696
 21
81.727
  0
LINE
  8
0
 10
-9.43039
 20
81.727
 11
-11.5407
 21
82.1133
  0
LINE
  8
0
 10
-11.5407
 20
82.1133
 11
-13.9027
 21
82.8352
  0
LINE
  8
0
 10
-13.9027
 20
82.8352
 11
-16.5161
 21
83.8927
  0
LINE
  8
0
 10
-16.5161
 20
83.8927
 11
-19.3817
 21
85.2847
  0
LINE
  8
0
 10
-19.3817
 20
85.2847
 11
-22.2931
 21
86.8924
  0
LINE
  8
0
 10
-22.2931
 20
86.8924
 11
-22.4927
 21
87.0082
  0
LINE
  8
0
 10
-22.4927
 20
87.0082
 11
-19.2101
 21
88.2547
  0
LINE
  8
0
 10
-19.2101
 20
88.2547
 11
-16.344
 21
89.232
  0
LINE
  8
0
 10
-16.344
 20
89.232
 11
-13.9005
 21
89.9393
  0
LINE
  8
0
 10
-13.9005
 20
89.9393
 11
-11.879
 21
90.3755
  0
LINE
  8
0
 10
-11.879
 20
90.3755
 11
-10.2795
 21
90.5426
  0
LINE
  8
0
 10
-10.2795
 20
90.5426
 11
-9.10309
 21
90.4391
  0
LINE
  8
0
 10
-9.10309
 20
90.4391
 11
-8.34961
 21
90.0661
  0
LINE
  8
0
 10
-8.34961
 20
90.0661
 11
-8.01773
 21
89.4243
  0
LINE
  8
0
 10
-8.01773
 20
89.4243
 11
-8.10699
 21
88.511
  0
LINE
  8
0
 10
-8.10699
 20
88.511
 11
-8.61832
 21
87.3282
  0
LINE
  8
0
 10
-8.61832
 20
87.3282
 11
-9.5517
 21
85.8734
  0
LINE
  8
0
 10
-9.5517
 20
85.8734
 11
-10.9135
 21
84.1399
  0
LINE
  8
0
 10
-10.9135
 20
84.1399
 11
-1.69693
 21
88.4026
  0
LINE
  8
0
 10
-1.69693
 20
88.4026
 11
-2.04758
 21
86.447
  0
LINE
  8
0
 10
-2.04758
 20
86.447
 11
-2.64954
 21
84.8219
  0
LINE
  8
0
 10
-2.64954
 20
84.8219
 11
-3.50327
 21
83.5333
  0
LINE
  8
0
 10
-3.50327
 20
83.5333
 11
-4.60693
 21
82.5798
  0
LINE
  8
0
 10
-4.60693
 20
82.5798
 11
-5.96375
 21
81.96
  0
LINE
  8
0
 10
-5.96375
 20
81.96
 11
-7.5705
 21
81.6762
  0
LINE
  8
0
 10
-7.5705
 20
81.6762
 11
-9.43039
 21
81.727
  0
LINE
  8
0
 10
-34.0057
 20
87.3348
 11
-31.6969
 21
88.4026
  0
LINE
  8
0
 10
-31.6969
 20
88.4026
 11
-32.0476
 21
86.447
  0
LINE
  8
0
 10
-32.0476
 20
86.447
 11
-32.6495
 21
84.8219
  0
LINE
  8
0
 10
-32.6495
 20
84.8219
 11
-33.5033
 21
83.5333
  0
LINE
  8
0
 10
-33.5033
 20
83.5333
 11
-34.6069
 21
82.5798
  0
LINE
  8
0
 10
-34.6069
 20
82.5798
 11
-35.7151
 21
82.0736
  0
LINE
  8
0
 10
-35.7151
 20
82.0736
 11
-34.0057
 21
87.3348
  0
LINE
  8
0
 10
-33.213
 20
69.5784
 11
-34.319
 21
70.9119
  0
LINE
  8
0
 10
-34.319
 20
70.9119
 11
-35.0089
 21
72.2961
  0
LINE
  8
0
 10
-35.0089
 20
72.2961
 11
-35.2826
 21
73.7289
  0
LINE
  8
0
 10
-35.2826
 20
73.7289
 11
-35.1416
 21
75.2135
  0
LINE
  8
0
 10
-35.1416
 20
75.2135
 11
-34.5831
 21
76.747
  0
LINE
  8
0
 10
-34.5831
 20
76.747
 11
-33.6095
 21
78.3318
  0
LINE
  8
0
 10
-33.6095
 20
78.3318
 11
-32.2197
 21
79.9669
  0
LINE
  8
0
 10
-32.2197
 20
79.9669
 11
-30.4138
 21
81.6515
  0
LINE
  8
0
 10
-30.4138
 20
81.6515
 11
-28.1914
 21
83.3859
  0
LINE
  8
0
 10
-28.1914
 20
83.3859
 11
-25.5528
 21
85.1712
  0
LINE
  8
0
 10
-25.5528
 20
85.1712
 11
-22.7257
 21
86.8759
  0
LINE
  8
0
 10
-22.7257
 20
86.8759
 11
-22.5041
 21
87.0041
  0
LINE
  8
0
 10
-22.5041
 20
87.0041
 11
-23.0667
 21
83.5379
  0
LINE
  8
0
 10
-23.0667
 20
83.5379
 11
-23.6531
 21
80.5666
  0
LINE
  8
0
 10
-23.6531
 20
80.5666
 11
-24.2624
 21
78.0965
  0
LINE
  8
0
 10
-24.2624
 20
78.0965
 11
-24.8955
 21
76.1281
  0
LINE
  8
0
 10
-24.8955
 20
76.1281
 11
-25.5505
 21
74.6596
  0
LINE
  8
0
 10
-25.5505
 20
74.6596
 11
-26.228
 21
73.6932
  0
LINE
  8
0
 10
-26.228
 20
73.6932
 11
-26.9279
 21
73.2268
  0
LINE
  8
0
 10
-26.9279
 20
73.2268
 11
-27.6503
 21
73.2602
  0
LINE
  8
0
 10
-27.6503
 20
73.2602
 11
-28.3965
 21
73.7939
  0
LINE
  8
0
 10
-28.3965
 20
73.7939
 11
-29.1655
 21
74.828
  0
LINE
  8
0
 10
-29.1655
 20
74.828
 11
-29.9579
 21
76.3634
  0
LINE
  8
0
 10
-29.9579
 20
76.3634
 11
-30.7787
 21
78.4096
  0
LINE
  8
0
 10
-30.7787
 20
78.4096
 11
-31.6956
 21
68.2976
  0
LINE
  8
0
 10
-31.6956
 20
68.2976
 11
-33.213
 21
69.5784
  0
LINE
  8
0
 10
-3.21304
 20
69.5784
 11
-4.319
 21
70.9119
  0
LINE
  8
0
 10
-4.319
 20
70.9119
 11
-5.00885
 21
72.2961
  0
LINE
  8
0
 10
-5.00885
 20
72.2961
 11
-5.28259
 21
73.7289
  0
LINE
  8
0
 10
-5.28259
 20
73.7289
 11
-5.1416
 21
75.2135
  0
LINE
  8
0
 10
-5.1416
 20
75.2135
 11
-4.58313
 21
76.747
  0
LINE
  8
0
 10
-4.58313
 20
76.747
 11
-3.60947
 21
78.3318
  0
LINE
  8
0
 10
-3.60947
 20
78.3318
 11
-2.2197
 21
79.9669
  0
LINE
  8
0
 10
-2.2197
 20
79.9669
 11
-0.413818
 21
81.6515
  0
LINE
  8
0
 10
-0.413818
 20
81.6515
 11
1.80862
 21
83.3859
  0
LINE
  8
0
 10
1.80862
 20
83.3859
 11
4.44717
 21
85.1712
  0
LINE
  8
0
 10
4.44717
 20
85.1712
 11
7.27432
 21
86.8759
  0
LINE
  8
0
 10
7.27432
 20
86.8759
 11
7.49588
 21
87.0041
  0
LINE
  8
0
 10
7.49588
 20
87.0041
 11
6.93329
 21
83.5379
  0
LINE
  8
0
 10
6.93329
 20
83.5379
 11
6.34689
 21
80.5666
  0
LINE
  8
0
 10
6.34689
 20
80.5666
 11
5.73761
 21
78.0965
  0
LINE
  8
0
 10
5.73761
 20
78.0965
 11
5.10452
 21
76.1281
  0
LINE
  8
0
 10
5.10452
 20
76.1281
 11
4.44946
 21
74.6596
  0
LINE
  8
0
 10
4.44946
 20
74.6596
 11
3.77197
 21
73.6932
  0
LINE
  8
0
 10
3.77197
 20
73.6932
 11
3.07205
 21
73.2268
  0
LINE
  8
0
 10
3.07205
 20
73.2268
 11
2.3497
 21
73.2602
  0
LINE
  8
0
 10
2.3497
 20
73.2602
 11
1.60355
 21
73.7939
  0
LINE
  8
0
 10
1.60355
 20
73.7939
 11
0.834503
 21
74.828
  0
LINE
  8
0
 10
0.834503
 20
74.828
 11
0.0421143
 21
76.3634
  0
LINE
  8
0
 10
0.0421143
 20
76.3634
 11
-0.778656
 21
78.4096
  0
LINE
  8
0
 10
-0.778656
 20
78.4096
 11
-1.69556
 21
68.2976
  0
LINE
  8
0
 10
-1.69556
 20
68.2976
 11
-3.21304
 21
69.5784
  0
LINE
  8
0
 10
26.787
 20
69.5784
 11
25.681
 21
70.9119
  0
LINE
  8
0
 10
25.681
 20
70.9119
 11
24.9911
 21
72.2961
  0
LINE
  8
0
 10
24.9911
 20
72.2961
 11
24.7174
 21
73.7289
  0
LINE
  8
0
 10
24.7174
 20
73.7289
 11
24.8584
 21
75.2135
  0
LINE
  8
0
 10
24.8584
 20
75.2135
 11
25.4169
 21
76.747
  0
LINE
  8
0
 10
25.4169
 20
76.747
 11
26.3905
 21
78.3318
  0
LINE
  8
0
 10
26.3905
 20
78.3318
 11
27.7803
 21
79.9669
  0
LINE
  8
0
 10
27.7803
 20
79.9669
 11
29.5862
 21
81.6515
  0
LINE
  8
0
 10
29.5862
 20
81.6515
 11
31.8086
 21
83.3859
  0
LINE
  8
0
 10
31.8086
 20
83.3859
 11
34.4472
 21
85.1712
  0
LINE
  8
0
 10
34.4472
 20
85.1712
 11
34.6658
 21
85.303
  0
LINE
  8
0
 10
34.6658
 20
85.303
 11
36.2856
 21
80.3179
  0
LINE
  8
0
 10
36.2856
 20
80.3179
 11
35.7376
 21
78.0965
  0
LINE
  8
0
 10
35.7376
 20
78.0965
 11
35.1045
 21
76.1281
  0
LINE
  8
0
 10
35.1045
 20
76.1281
 11
34.4495
 21
74.6596
  0
LINE
  8
0
 10
34.4495
 20
74.6596
 11
33.772
 21
73.6932
  0
LINE
  8
0
 10
33.772
 20
73.6932
 11
33.0721
 21
73.2268
  0
LINE
  8
0
 10
33.0721
 20
73.2268
 11
32.3497
 21
73.2602
  0
LINE
  8
0
 10
32.3497
 20
73.2602
 11
31.6035
 21
73.7939
  0
LINE
  8
0
 10
31.6035
 20
73.7939
 11
30.8345
 21
74.828
  0
LINE
  8
0
 10
30.8345
 20
74.828
 11
30.0421
 21
76.3634
  0
LINE
  8
0
 10
30.0421
 20
76.3634
 11
29.2213
 21
78.4096
  0
LINE
  8
0
 10
29.2213
 20
78.4096
 11
28.3044
 21
68.2976
  0
LINE
  8
0
 10
28.3044
 20
68.2976
 11
26.787
 21
69.5784
  0
LINE
  8
0
 10
-10.2232
 20
63.2553
 11
-12.5029
 21
65.2489
  0
LINE
  8
0
 10
-12.5029
 20
65.2489
 11
-14.3376
 21
67.0117
  0
LINE
  8
0
 10
-14.3376
 20
67.0117
 11
-15.7265
 21
68.5443
  0
LINE
  8
0
 10
-15.7265
 20
68.5443
 11
-16.6699
 21
69.8453
  0
LINE
  8
0
 10
-16.6699
 20
69.8453
 11
-17.1684
 21
70.9151
  0
LINE
  8
0
 10
-17.1684
 20
70.9151
 11
-17.2224
 21
71.7551
  0
LINE
  8
0
 10
-17.2224
 20
71.7551
 11
-16.8324
 21
72.3639
  0
LINE
  8
0
 10
-16.8324
 20
72.3639
 11
-15.9979
 21
72.7425
  0
LINE
  8
0
 10
-15.9979
 20
72.7425
 11
-14.7166
 21
72.8917
  0
LINE
  8
0
 10
-14.7166
 20
72.8917
 11
-12.9904
 21
72.8107
  0
LINE
  8
0
 10
-12.9904
 20
72.8107
 11
-10.8083
 21
72.498
  0
LINE
  8
0
 10
-10.8083
 20
72.498
 11
-19.108
 21
78.3482
  0
LINE
  8
0
 10
-19.108
 20
78.3482
 11
-17.2394
 21
79.0225
  0
LINE
  8
0
 10
-17.2394
 20
79.0225
 11
-15.5315
 21
79.3132
  0
LINE
  8
0
 10
-15.5315
 20
79.3132
 11
-13.9879
 21
79.2184
  0
LINE
  8
0
 10
-13.9879
 20
79.2184
 11
-12.6096
 21
78.7392
  0
LINE
  8
0
 10
-12.6096
 20
78.7392
 11
-11.3947
 21
77.8745
  0
LINE
  8
0
 10
-11.3947
 20
77.8745
 11
-10.3455
 21
76.6243
  0
LINE
  8
0
 10
-10.3455
 20
76.6243
 11
-9.46014
 21
74.9887
  0
LINE
  8
0
 10
-9.46014
 20
74.9887
 11
-8.73917
 21
72.9677
  0
LINE
  8
0
 10
-8.73917
 20
72.9677
 11
-8.18298
 21
70.5608
  0
LINE
  8
0
 10
-8.18298
 20
70.5608
 11
-7.79205
 21
67.7693
  0
LINE
  8
0
 10
-7.79205
 20
67.7693
 11
-7.565
 21
64.5915
  0
LINE
  8
0
 10
-7.565
 20
64.5915
 11
-7.5032
 21
61.3217
  0
LINE
  8
0
 10
-7.5032
 20
61.3217
 11
-7.5032
 21
61.0356
  0
LINE
  8
0
 10
-7.5032
 20
61.0356
 11
-10.2232
 21
63.2553
  0
LINE
  8
0
 10
19.7768
 20
63.2553
 11
17.4971
 21
65.2489
  0
LINE
  8
0
 10
17.4971
 20
65.2489
 11
15.6624
 21
67.0117
  0
LINE
  8
0
 10
15.6624
 20
67.0117
 11
14.2735
 21
68.5443
  0
LINE
  8
0
 10
14.2735
 20
68.5443
 11
13.3301
 21
69.8453
  0
LINE
  8
0
 10
13.3301
 20
69.8453
 11
12.8316
 21
70.9151
  0
LINE
  8
0
 10
12.8316
 20
70.9151
 11
12.7776
 21
71.7551
  0
LINE
  8
0
 10
12.7776
 20
71.7551
 11
13.1676
 21
72.3639
  0
LINE
  8
0
 10
13.1676
 20
72.3639
 11
14.0021
 21
72.7425
  0
LINE
  8
0
 10
14.0021
 20
72.7425
 11
15.2834
 21
72.8917
  0
LINE
  8
0
 10
15.2834
 20
72.8917
 11
17.0096
 21
72.8107
  0
LINE
  8
0
 10
17.0096
 20
72.8107
 11
19.1917
 21
72.498
  0
LINE
  8
0
 10
19.1917
 20
72.498
 11
10.892
 21
78.3482
  0
LINE
  8
0
 10
10.892
 20
78.3482
 11
12.7606
 21
79.0225
  0
LINE
  8
0
 10
12.7606
 20
79.0225
 11
14.4685
 21
79.3132
  0
LINE
  8
0
 10
14.4685
 20
79.3132
 11
16.0121
 21
79.2184
  0
LINE
  8
0
 10
16.0121
 20
79.2184
 11
17.3904
 21
78.7392
  0
LINE
  8
0
 10
17.3904
 20
78.7392
 11
18.6053
 21
77.8745
  0
LINE
  8
0
 10
18.6053
 20
77.8745
 11
19.6545
 21
76.6243
  0
LINE
  8
0
 10
19.6545
 20
76.6243
 11
20.5399
 21
74.9887
  0
LINE
  8
0
 10
20.5399
 20
74.9887
 11
21.2608
 21
72.9677
  0
LINE
  8
0
 10
21.2608
 20
72.9677
 11
21.817
 21
70.5608
  0
LINE
  8
0
 10
21.817
 20
70.5608
 11
22.2079
 21
67.7693
  0
LINE
  8
0
 10
22.2079
 20
67.7693
 11
22.435
 21
64.5915
  0
LINE
  8
0
 10
22.435
 20
64.5915
 11
22.4968
 21
61.3217
  0
LINE
  8
0
 10
22.4968
 20
61.3217
 11
22.4968
 21
61.0356
  0
LINE
  8
0
 10
22.4968
 20
61.0356
 11
19.7768
 21
63.2553
  0
LINE
  8
0
 10
-40.2232
 20
63.2553
 11
-41.4741
 21
64.3492
  0
LINE
  8
0
 10
-41.4741
 20
64.3492
 11
-38.712
 21
72.8501
  0
LINE
  8
0
 10
-38.712
 20
72.8501
 11
-38.183
 21
70.5608
  0
LINE
  8
0
 10
-38.183
 20
70.5608
 11
-37.7921
 21
67.7693
  0
LINE
  8
0
 10
-37.7921
 20
67.7693
 11
-37.565
 21
64.5915
  0
LINE
  8
0
 10
-37.565
 20
64.5915
 11
-37.5032
 21
61.3217
  0
LINE
  8
0
 10
-37.5032
 20
61.3217
 11
-37.5032
 21
61.0356
  0
LINE
  8
0
 10
-37.5032
 20
61.0356
 11
-40.2232
 21
63.2553
  0
LINE
  8
0
 10
35.5696
 20
55.7462
 11
33.4593
 21
56.1325
  0
LINE
  8
0
 10
33.4593
 20
56.1325
 11
31.0973
 21
56.8544
  0
LINE
  8
0
 10
31.0973
 20
56.8544
 11
28.4839
 21
57.9118
  0
LINE
  8
0
 10
28.4839
 20
57.9118
 11
25.6183
 21
59.3039
  0
LINE
  8
0
 10
25.6183
 20
59.3039
 11
22.7069
 21
60.9116
  0
LINE
  8
0
 10
22.7069
 20
60.9116
 11
22.5073
 21
61.0274
  0
LINE
  8
0
 10
22.5073
 20
61.0274
 11
25.7899
 21
62.2739
  0
LINE
  8
0
 10
25.7899
 20
62.2739
 11
28.656
 21
63.2512
  0
LINE
  8
0
 10
28.656
 20
63.2512
 11
31.0995
 21
63.9584
  0
LINE
  8
0
 10
31.0995
 20
63.9584
 11
33.121
 21
64.3947
  0
LINE
  8
0
 10
33.121
 20
64.3947
 11
34.7205
 21
64.5618
  0
LINE
  8
0
 10
34.7205
 20
64.5618
 11
35.8969
 21
64.4583
  0
LINE
  8
0
 10
35.8969
 20
64.4583
 11
36.6504
 21
64.0852
  0
LINE
  8
0
 10
36.6504
 20
64.0852
 11
36.9823
 21
63.4435
  0
LINE
  8
0
 10
36.9823
 20
63.4435
 11
36.893
 21
62.5302
  0
LINE
  8
0
 10
36.893
 20
62.5302
 11
36.3817
 21
61.3474
  0
LINE
  8
0
 10
36.3817
 20
61.3474
 11
35.4483
 21
59.8926
  0
LINE
  8
0
 10
35.4483
 20
59.8926
 11
34.0865
 21
58.159
  0
LINE
  8
0
 10
34.0865
 20
58.159
 11
42.2575
 21
61.9382
  0
LINE
  8
0
 10
42.2575
 20
61.9382
 11
42.837
 21
60.1546
  0
LINE
  8
0
 10
42.837
 20
60.1546
 11
42.3505
 21
58.8411
  0
LINE
  8
0
 10
42.3505
 20
58.8411
 11
41.4967
 21
57.5525
  0
LINE
  8
0
 10
41.4967
 20
57.5525
 11
40.3931
 21
56.599
  0
LINE
  8
0
 10
40.3931
 20
56.599
 11
39.0363
 21
55.9792
  0
LINE
  8
0
 10
39.0363
 20
55.9792
 11
37.4295
 21
55.6953
  0
LINE
  8
0
 10
37.4295
 20
55.6953
 11
35.5696
 21
55.7462
  0
LINE
  8
0
 10
5.56961
 20
55.7462
 11
3.45932
 21
56.1325
  0
LINE
  8
0
 10
3.45932
 20
56.1325
 11
1.09726
 21
56.8544
  0
LINE
  8
0
 10
1.09726
 20
56.8544
 11
-1.51611
 21
57.9118
  0
LINE
  8
0
 10
-1.51611
 20
57.9118
 11
-4.38171
 21
59.3039
  0
LINE
  8
0
 10
-4.38171
 20
59.3039
 11
-7.29309
 21
60.9116
  0
LINE
  8
0
 10
-7.29309
 20
60.9116
 11
-7.49268
 21
61.0274
  0
LINE
  8
0
 10
-7.49268
 20
61.0274
 11
-4.21005
 21
62.2739
  0
LINE
  8
0
 10
-4.21005
 20
62.2739
 11
-1.34399
 21
63.2512
  0
LINE
  8
0
 10
-1.34399
 20
63.2512
 11
1.09955
 21
63.9584
  0
LINE
  8
0
 10
1.09955
 20
63.9584
 11
3.12103
 21
64.3947
  0
LINE
  8
0
 10
3.12103
 20
64.3947
 11
4.72046
 21
64.5618
  0
LINE
  8
0
 10
4.72046
 20
64.5618
 11
5.89691
 21
64.4583
  0
LINE
  8
0
 10
5.89691
 20
64.4583
 11
6.65039
 21
64.0852
  0
LINE
  8
0
 10
6.65039
 20
64.0852
 11
6.98227
 21
63.4435
  0
LINE
  8
0
 10
6.98227
 20
63.4435
 11
6.89301
 21
62.5302
  0
LINE
  8
0
 10
6.89301
 20
62.5302
 11
6.38168
 21
61.3474
  0
LINE
  8
0
 10
6.38168
 20
61.3474
 11
5.4483
 21
59.8926
  0
LINE
  8
0
 10
5.4483
 20
59.8926
 11
4.08646
 21
58.159
  0
LINE
  8
0
 10
4.08646
 20
58.159
 11
13.3031
 21
62.4217
  0
LINE
  8
0
 10
13.3031
 20
62.4217
 11
12.9524
 21
60.4662
  0
LINE
  8
0
 10
12.9524
 20
60.4662
 11
12.3505
 21
58.8411
  0
LINE
  8
0
 10
12.3505
 20
58.8411
 11
11.4967
 21
57.5525
  0
LINE
  8
0
 10
11.4967
 20
57.5525
 11
10.3931
 21
56.599
  0
LINE
  8
0
 10
10.3931
 20
56.599
 11
9.03625
 21
55.9792
  0
LINE
  8
0
 10
9.03625
 20
55.9792
 11
7.4295
 21
55.6953
  0
LINE
  8
0
 10
7.4295
 20
55.6953
 11
5.56961
 21
55.7462
  0
LINE
  8
0
 10
-24.4304
 20
55.7462
 11
-26.5407
 21
56.1325
  0
LINE
  8
0
 10
-26.5407
 20
56.1325
 11
-28.9027
 21
56.8544
  0
LINE
  8
0
 10
-28.9027
 20
56.8544
 11
-31.5161
 21
57.9118
  0
LINE
  8
0
 10
-31.5161
 20
57.9118
 11
-34.3817
 21
59.3039
  0
LINE
  8
0
 10
-34.3817
 20
59.3039
 11
-37.2931
 21
60.9116
  0
LINE
  8
0
 10
-37.2931
 20
60.9116
 11
-37.4927
 21
61.0274
  0
LINE
  8
0
 10
-37.4927
 20
61.0274
 11
-34.2101
 21
62.2739
  0
LINE
  8
0
 10
-34.2101
 20
62.2739
 11
-31.344
 21
63.2512
  0
LINE
  8
0
 10
-31.344
 20
63.2512
 11
-28.9005
 21
63.9584
  0
LINE
  8
0
 10
-28.9005
 20
63.9584
 11
-26.879
 21
64.3947
  0
LINE
  8
0
 10
-26.879
 20
64.3947
 11
-25.2795
 21
64.5618
  0
LINE
  8
0
 10
-25.2795
 20
64.5618
 11
-24.1031
 21
64.4583
  0
LINE
  8
0
 10
-24.1031
 20
64.4583
 11
-23.3496
 21
64.0852
  0
LINE
  8
0
 10
-23.3496
 20
64.0852
 11
-23.0177
 21
63.4435
  0
LINE
  8
0
 10
-23.0177
 20
63.4435
 11
-23.107
 21
62.5302
  0
LINE
  8
0
 10
-23.107
 20
62.5302
 11
-23.6183
 21
61.3474
  0
LINE
  8
0
 10
-23.6183
 20
61.3474
 11
-24.5517
 21
59.8926
  0
LINE
  8
0
 10
-24.5517
 20
59.8926
 11
-25.9135
 21
58.159
  0
LINE
  8
0
 10
-25.9135
 20
58.159
 11
-16.6969
 21
62.4217
  0
LINE
  8
0
 10
-16.6969
 20
62.4217
 11
-17.0476
 21
60.4662
  0
LINE
  8
0
 10
-17.0476
 20
60.4662
 11
-17.6495
 21
58.8411
  0
LINE
  8
0
 10
-17.6495
 20
58.8411
 11
-18.5033
 21
57.5525
  0
LINE
  8
0
 10
-18.5033
 20
57.5525
 11
-19.6069
 21
56.599
  0
LINE
  8
0
 10
-19.6069
 20
56.599
 11
-20.9637
 21
55.9792
  0
LINE
  8
0
 10
-20.9637
 20
55.9792
 11
-22.5705
 21
55.6953
  0
LINE
  8
0
 10
-22.5705
 20
55.6953
 11
-24.4304
 21
55.7462
  0
LINE
  8
0
 10
11.787
 20
43.5976
 11
10.681
 21
44.931
  0
LINE
  8
0
 10
10.681
 20
44.931
 11
9.99115
 21
46.3153
  0
LINE
  8
0
 10
9.99115
 20
46.3153
 11
9.71741
 21
47.7481
  0
LINE
  8
0
 10
9.71741
 20
47.7481
 11
9.8584
 21
49.2326
  0
LINE
  8
0
 10
9.8584
 20
49.2326
 11
10.4169
 21
50.7661
  0
LINE
  8
0
 10
10.4169
 20
50.7661
 11
11.3905
 21
52.3509
  0
LINE
  8
0
 10
11.3905
 20
52.3509
 11
12.7803
 21
53.9861
  0
LINE
  8
0
 10
12.7803
 20
53.9861
 11
14.5862
 21
55.6706
  0
LINE
  8
0
 10
14.5862
 20
55.6706
 11
16.8086
 21
57.4051
  0
LINE
  8
0
 10
16.8086
 20
57.4051
 11
19.4472
 21
59.1904
  0
LINE
  8
0
 10
19.4472
 20
59.1904
 11
22.2743
 21
60.8951
  0
LINE
  8
0
 10
22.2743
 20
60.8951
 11
22.4959
 21
61.0233
  0
LINE
  8
0
 10
22.4959
 20
61.0233
 11
21.9333
 21
57.5571
  0
LINE
  8
0
 10
21.9333
 20
57.5571
 11
21.3469
 21
54.5857
  0
LINE
  8
0
 10
21.3469
 20
54.5857
 11
20.7376
 21
52.1156
  0
LINE
  8
0
 10
20.7376
 20
52.1156
 11
20.1045
 21
50.1472
  0
LINE
  8
0
 10
20.1045
 20
50.1472
 11
19.4495
 21
48.6787
  0
LINE
  8
0
 10
19.4495
 20
48.6787
 11
18.772
 21
47.7124
  0
LINE
  8
0
 10
18.772
 20
47.7124
 11
18.0721
 21
47.2459
  0
LINE
  8
0
 10
18.0721
 20
47.2459
 11
17.3497
 21
47.2794
  0
LINE
  8
0
 10
17.3497
 20
47.2794
 11
16.6035
 21
47.8131
  0
LINE
  8
0
 10
16.6035
 20
47.8131
 11
15.8345
 21
48.8472
  0
LINE
  8
0
 10
15.8345
 20
48.8472
 11
15.0421
 21
50.3825
  0
LINE
  8
0
 10
15.0421
 20
50.3825
 11
14.2213
 21
52.4287
  0
LINE
  8
0
 10
14.2213
 20
52.4287
 11
13.3044
 21
42.3167
  0
LINE
  8
0
 10
13.3044
 20
42.3167
 11
11.787
 21
43.5976
  0
LINE
  8
0
 10
-42.6503
 20
47.2794
 11
-43.3965
 21
47.8131
  0
LINE
  8
0
 10
-43.3965
 20
47.8131
 11
-44.1655
 21
48.8472
  0
LINE
  8
0
 10
-44.1655
 20
48.8472
 11
-44.9579
 21
50.3825
  0
LINE
  8
0
 10
-44.9579
 20
50.3825
 11
-45.5404
 21
51.8346
  0
LINE
  8
0
 10
-45.5404
 20
51.8346
 11
-43.9135
 21
56.8415
  0
LINE
  8
0
 10
-43.9135
 20
56.8415
 11
-43.1914
 21
57.4051
  0
LINE
  8
0
 10
-43.1914
 20
57.4051
 11
-40.5528
 21
59.1904
  0
LINE
  8
0
 10
-40.5528
 20
59.1904
 11
-37.7257
 21
60.8951
  0
LINE
  8
0
 10
-37.7257
 20
60.8951
 11
-37.5041
 21
61.0233
  0
LINE
  8
0
 10
-37.5041
 20
61.0233
 11
-38.0667
 21
57.5571
  0
LINE
  8
0
 10
-38.0667
 20
57.5571
 11
-38.6531
 21
54.5857
  0
LINE
  8
0
 10
-38.6531
 20
54.5857
 11
-39.2624
 21
52.1156
  0
LINE
  8
0
 10
-39.2624
 20
52.1156
 11
-39.8955
 21
50.1472
  0
LINE
  8
0
 10
-39.8955
 20
50.1472
 11
-40.5505
 21
48.6787
  0
LINE
  8
0
 10
-40.5505
 20
48.6787
 11
-41.228
 21
47.7124
  0
LINE
  8
0
 10
-41.228
 20
47.7124
 11
-41.9279
 21
47.2459
  0
LINE
  8
0
 10
-41.9279
 20
47.2459
 11
-42.6503
 21
47.2794
  0
LINE
  8
0
 10
-18.213
 20
43.5976
 11
-19.319
 21
44.931
  0
LINE
  8
0
 10
-19.319
 20
44.931
 11
-20.0089
 21
46.3153
  0
LINE
  8
0
 10
-20.0089
 20
46.3153
 11
-20.2826
 21
47.7481
  0
LINE
  8
0
 10
-20.2826
 20
47.7481
 11
-20.1416
 21
49.2326
  0
LINE
  8
0
 10
-20.1416
 20
49.2326
 11
-19.5831
 21
50.7661
  0
LINE
  8
0
 10
-19.5831
 20
50.7661
 11
-18.6095
 21
52.3509
  0
LINE
  8
0
 10
-18.6095
 20
52.3509
 11
-17.2197
 21
53.9861
  0
LINE
  8
0
 10
-17.2197
 20
53.9861
 11
-15.4138
 21
55.6706
  0
LINE
  8
0
 10
-15.4138
 20
55.6706
 11
-13.1914
 21
57.4051
  0
LINE
  8
0
 10
-13.1914
 20
57.4051
 11
-10.5528
 21
59.1904
  0
LINE
  8
0
 10
-10.5528
 20
59.1904
 11
-7.72568
 21
60.8951
  0
LINE
  8
0
 10
-7.72568
 20
60.8951
 11
-7.50412
 21
61.0233
  0
LINE
  8
0
 10
-7.50412
 20
61.0233
 11
-8.06671
 21
57.5571
  0
LINE
  8
0
 10
-8.06671
 20
57.5571
 11
-8.65311
 21
54.5857
  0
LINE
  8
0
 10
-8.65311
 20
54.5857
 11
-9.26239
 21
52.1156
  0
LINE
  8
0
 10
-9.26239
 20
52.1156
 11
-9.89548
 21
50.1472
  0
LINE
  8
0
 10
-9.89548
 20
50.1472
 11
-10.5505
 21
48.6787
  0
LINE
  8
0
 10
-10.5505
 20
48.6787
 11
-11.228
 21
47.7124
  0
LINE
  8
0
 10
-11.228
 20
47.7124
 11
-11.9279
 21
47.2459
  0
LINE
  8
0
 10
-11.9279
 20
47.2459
 11
-12.6503
 21
47.2794
  0
LINE
  8
0
 10
-12.6503
 20
47.2794
 11
-13.3965
 21
47.8131
  0
LINE
  8
0
 10
-13.3965
 20
47.8131
 11
-14.1655
 21
48.8472
  0
LINE
  8
0
 10
-14.1655
 20
48.8472
 11
-14.9579
 21
50.3825
  0
LINE
  8
0
 10
-14.9579
 20
50.3825
 11
-15.7787
 21
52.4287
  0
LINE
  8
0
 10
-15.7787
 20
52.4287
 11
-16.6956
 21
42.3167
  0
LINE
  8
0
 10
-16.6956
 20
42.3167
 11
-18.213
 21
43.5976
  0
LINE
  8
0
 10
41.787
 20
43.5976
 11
40.681
 21
44.931
  0
LINE
  8
0
 10
40.681
 20
44.931
 11
39.9911
 21
46.3153
  0
LINE
  8
0
 10
39.9911
 20
46.3153
 11
39.7174
 21
47.7481
  0
LINE
  8
0
 10
39.7174
 20
47.7481
 11
39.8584
 21
49.2326
  0
LINE
  8
0
 10
39.8584
 20
49.2326
 11
40.4169
 21
50.7661
  0
LINE
  8
0
 10
40.4169
 20
50.7661
 11
41.3905
 21
52.3509
  0
LINE
  8
0
 10
41.3905
 20
52.3509
 11
42.7803
 21
53.9861
  0
LINE
  8
0
 10
42.7803
 20
53.9861
 11
44.3619
 21
55.4614
  0
LINE
  8
0
 10
44.3619
 20
55.4614
 11
46.9208
 21
47.5862
  0
LINE
  8
0
 10
46.9208
 20
47.5862
 11
46.6035
 21
47.8131
  0
LINE
  8
0
 10
46.6035
 20
47.8131
 11
45.8345
 21
48.8472
  0
LINE
  8
0
 10
45.8345
 20
48.8472
 11
45.0421
 21
50.3825
  0
LINE
  8
0
 10
45.0421
 20
50.3825
 11
44.2213
 21
52.4287
  0
LINE
  8
0
 10
44.2213
 20
52.4287
 11
43.3044
 21
42.3167
  0
LINE
  8
0
 10
43.3044
 20
42.3167
 11
41.787
 21
43.5976
  0
LINE
  8
0
 10
-25.2232
 20
37.2745
 11
-27.5029
 21
39.268
  0
LINE
  8
0
 10
-27.5029
 20
39.268
 11
-29.3376
 21
41.0309
  0
LINE
  8
0
 10
-29.3376
 20
41.0309
 11
-30.7265
 21
42.5635
  0
LINE
  8
0
 10
-30.7265
 20
42.5635
 11
-31.6699
 21
43.8644
  0
LINE
  8
0
 10
-31.6699
 20
43.8644
 11
-32.1684
 21
44.9342
  0
LINE
  8
0
 10
-32.1684
 20
44.9342
 11
-32.2224
 21
45.7742
  0
LINE
  8
0
 10
-32.2224
 20
45.7742
 11
-31.8324
 21
46.3831
  0
LINE
  8
0
 10
-31.8324
 20
46.3831
 11
-30.9979
 21
46.7616
  0
LINE
  8
0
 10
-30.9979
 20
46.7616
 11
-29.7166
 21
46.9109
  0
LINE
  8
0
 10
-29.7166
 20
46.9109
 11
-27.9904
 21
46.8298
  0
LINE
  8
0
 10
-27.9904
 20
46.8298
 11
-25.8083
 21
46.5172
  0
LINE
  8
0
 10
-25.8083
 20
46.5172
 11
-34.108
 21
52.3674
  0
LINE
  8
0
 10
-34.108
 20
52.3674
 11
-32.2394
 21
53.0417
  0
LINE
  8
0
 10
-32.2394
 20
53.0417
 11
-30.5315
 21
53.3324
  0
LINE
  8
0
 10
-30.5315
 20
53.3324
 11
-28.9879
 21
53.2376
  0
LINE
  8
0
 10
-28.9879
 20
53.2376
 11
-27.6096
 21
52.7583
  0
LINE
  8
0
 10
-27.6096
 20
52.7583
 11
-26.3947
 21
51.8936
  0
LINE
  8
0
 10
-26.3947
 20
51.8936
 11
-25.3455
 21
50.6435
  0
LINE
  8
0
 10
-25.3455
 20
50.6435
 11
-24.4601
 21
49.0079
  0
LINE
  8
0
 10
-24.4601
 20
49.0079
 11
-23.7392
 21
46.9868
  0
LINE
  8
0
 10
-23.7392
 20
46.9868
 11
-23.183
 21
44.5799
  0
LINE
  8
0
 10
-23.183
 20
44.5799
 11
-22.7921
 21
41.7885
  0
LINE
  8
0
 10
-22.7921
 20
41.7885
 11
-22.565
 21
38.6107
  0
LINE
  8
0
 10
-22.565
 20
38.6107
 11
-22.5032
 21
35.3409
  0
LINE
  8
0
 10
-22.5032
 20
35.3409
 11
-22.5032
 21
35.0548
  0
LINE
  8
0
 10
-22.5032
 20
35.0548
 11
-25.2232
 21
37.2745
  0
LINE
  8
0
 10
4.77676
 20
37.2745
 11
2.4971
 21
39.268
  0
LINE
  8
0
 10
2.4971
 20
39.268
 11
0.662384
 21
41.0309
  0
LINE
  8
0
 10
0.662384
 20
41.0309
 11
-0.726471
 21
42.5635
  0
LINE
  8
0
 10
-0.726471
 20
42.5635
 11
-1.66992
 21
43.8644
  0
LINE
  8
0
 10
-1.66992
 20
43.8644
 11
-2.16843
 21
44.9342
  0
LINE
  8
0
 10
-2.16843
 20
44.9342
 11
-2.22244
 21
45.7742
  0
LINE
  8
0
 10
-2.22244
 20
45.7742
 11
-1.83243
 21
46.3831
  0
LINE
  8
0
 10
-1.83243
 20
46.3831
 11
-0.997925
 21
46.7616
  0
LINE
  8
0
 10
-0.997925
 20
46.7616
 11
0.283356
 21
46.9109
  0
LINE
  8
0
 10
0.283356
 20
46.9109
 11
2.00958
 21
46.8298
  0
LINE
  8
0
 10
2.00958
 20
46.8298
 11
4.19174
 21
46.5172
  0
LINE
  8
0
 10
4.19174
 20
46.5172
 11
-4.10797
 21
52.3674
  0
LINE
  8
0
 10
-4.10797
 20
52.3674
 11
-2.23938
 21
53.0417
  0
LINE
  8
0
 10
-2.23938
 20
53.0417
 11
-0.531464
 21
53.3324
  0
LINE
  8
0
 10
-0.531464
 20
53.3324
 11
1.01212
 21
53.2376
  0
LINE
  8
0
 10
1.01212
 20
53.2376
 11
2.39044
 21
52.7583
  0
LINE
  8
0
 10
2.39044
 20
52.7583
 11
3.60535
 21
51.8936
  0
LINE
  8
0
 10
3.60535
 20
51.8936
 11
4.65454
 21
50.6435
  0
LINE
  8
0
 10
4.65454
 20
50.6435
 11
5.53986
 21
49.0079
  0
LINE
  8
0
 10
5.53986
 20
49.0079
 11
6.26083
 21
46.9868
  0
LINE
  8
0
 10
6.26083
 20
46.9868
 11
6.81702
 21
44.5799
  0
LINE
  8
0
 10
6.81702
 20
44.5799
 11
7.20795
 21
41.7885
  0
LINE
  8
0
 10
7.20795
 20
41.7885
 11
7.435
 21
38.6107
  0
LINE
  8
0
 10
7.435
 20
38.6107
 11
7.4968
 21
35.3409
  0
LINE
  8
0
 10
7.4968
 20
35.3409
 11
7.4968
 21
35.0548
  0
LINE
  8
0
 10
7.4968
 20
35.0548
 11
4.77676
 21
37.2745
  0
LINE
  8
0
 10
34.7768
 20
37.2745
 11
32.4971
 21
39.268
  0
LINE
  8
0
 10
32.4971
 20
39.268
 11
30.6624
 21
41.0309
  0
LINE
  8
0
 10
30.6624
 20
41.0309
 11
29.2735
 21
42.5635
  0
LINE
  8
0
 10
29.2735
 20
42.5635
 11
28.3301
 21
43.8644
  0
LINE
  8
0
 10
28.3301
 20
43.8644
 11
27.8316
 21
44.9342
  0
LINE
  8
0
 10
27.8316
 20
44.9342
 11
27.7776
 21
45.7742
  0
LINE
  8
0
 10
27.7776
 20
45.7742
 11
28.1676
 21
46.3831
  0
LINE
  8
0
 10
28.1676
 20
46.3831
 11
29.0021
 21
46.7616
  0
LINE
  8
0
 10
29.0021
 20
46.7616
 11
30.2834
 21
46.9109
  0
LINE
  8
0
 10
30.2834
 20
46.9109
 11
32.0096
 21
46.8298
  0
LINE
  8
0
 10
32.0096
 20
46.8298
 11
34.1917
 21
46.5172
  0
LINE
  8
0
 10
34.1917
 20
46.5172
 11
25.892
 21
52.3674
  0
LINE
  8
0
 10
25.892
 20
52.3674
 11
27.7606
 21
53.0417
  0
LINE
  8
0
 10
27.7606
 20
53.0417
 11
29.4685
 21
53.3324
  0
LINE
  8
0
 10
29.4685
 20
53.3324
 11
31.0121
 21
53.2376
  0
LINE
  8
0
 10
31.0121
 20
53.2376
 11
32.3904
 21
52.7583
  0
LINE
  8
0
 10
32.3904
 20
52.7583
 11
33.6053
 21
51.8936
  0
LINE
  8
0
 10
33.6053
 20
51.8936
 11
34.6545
 21
50.6435
  0
LINE
  8
0
 10
34.6545
 20
50.6435
 11
35.5399
 21
49.0079
  0
LINE
  8
0
 10
35.5399
 20
49.0079
 11
36.2608
 21
46.9868
  0
LINE
  8
0
 10
36.2608
 20
46.9868
 11
36.817
 21
44.5799
  0
LINE
  8
0
 10
36.817
 20
44.5799
 11
37.2079
 21
41.7885
  0
LINE
  8
0
 10
37.2079
 20
41.7885
 11
37.435
 21
38.6107
  0
LINE
  8
0
 10
37.435
 20
38.6107
 11
37.4968
 21
35.3409
  0
LINE
  8
0
 10
37.4968
 20
35.3409
 11
37.4968
 21
35.0548
  0
LINE
  8
0
 10
37.4968
 20
35.0548
 11
34.7768
 21
37.2745
  0
LINE
  8
0
 10
-48.213
 20
43.5976
 11
-48.2157
 21
43.6008
  0
LINE
  8
0
 10
-48.2157
 20
43.6008
 11
-45.9456
 21
50.5874
  0
LINE
  8
0
 10
-45.9456
 20
50.5874
 11
-46.6956
 21
42.3167
  0
LINE
  8
0
 10
-46.6956
 20
42.3167
 11
-48.213
 21
43.5976
  0
LINE
  8
0
 10
-39.4304
 20
29.7653
 11
-41.5407
 21
30.1517
  0
LINE
  8
0
 10
-41.5407
 20
30.1517
 11
-43.9027
 21
30.8736
  0
LINE
  8
0
 10
-43.9027
 20
30.8736
 11
-46.5161
 21
31.931
  0
LINE
  8
0
 10
-46.5161
 20
31.931
 11
-49.3817
 21
33.3231
  0
LINE
  8
0
 10
-49.3817
 20
33.3231
 11
-51.2245
 21
34.3407
  0
LINE
  8
0
 10
-51.2245
 20
34.3407
 11
-50.7844
 21
35.6952
  0
LINE
  8
0
 10
-50.7844
 20
35.6952
 11
-49.2101
 21
36.293
  0
LINE
  8
0
 10
-49.2101
 20
36.293
 11
-46.344
 21
37.2704
  0
LINE
  8
0
 10
-46.344
 20
37.2704
 11
-43.9005
 21
37.9776
  0
LINE
  8
0
 10
-43.9005
 20
37.9776
 11
-41.879
 21
38.4138
  0
LINE
  8
0
 10
-41.879
 20
38.4138
 11
-40.2795
 21
38.5809
  0
LINE
  8
0
 10
-40.2795
 20
38.5809
 11
-39.1031
 21
38.4775
  0
LINE
  8
0
 10
-39.1031
 20
38.4775
 11
-38.3496
 21
38.1044
  0
LINE
  8
0
 10
-38.3496
 20
38.1044
 11
-38.0177
 21
37.4626
  0
LINE
  8
0
 10
-38.0177
 20
37.4626
 11
-38.107
 21
36.5494
  0
LINE
  8
0
 10
-38.107
 20
36.5494
 11
-38.6183
 21
35.3665
  0
LINE
  8
0
 10
-38.6183
 20
35.3665
 11
-39.5517
 21
33.9117
  0
LINE
  8
0
 10
-39.5517
 20
33.9117
 11
-40.9135
 21
32.1782
  0
LINE
  8
0
 10
-40.9135
 20
32.1782
 11
-31.6969
 21
36.4409
  0
LINE
  8
0
 10
-31.6969
 20
36.4409
 11
-32.0476
 21
34.4853
  0
LINE
  8
0
 10
-32.0476
 20
34.4853
 11
-32.6495
 21
32.8603
  0
LINE
  8
0
 10
-32.6495
 20
32.8603
 11
-33.5033
 21
31.5717
  0
LINE
  8
0
 10
-33.5033
 20
31.5717
 11
-34.6069
 21
30.6181
  0
LINE
  8
0
 10
-34.6069
 20
30.6181
 11
-35.9637
 21
29.9983
  0
LINE
  8
0
 10
-35.9637
 20
29.9983
 11
-37.5705
 21
29.7145
  0
LINE
  8
0
 10
-37.5705
 20
29.7145
 11
-39.4304
 21
29.7653
  0
LINE
  8
0
 10
20.5696
 20
29.7653
 11
18.4593
 21
30.1517
  0
LINE
  8
0
 10
18.4593
 20
30.1517
 11
16.0973
 21
30.8736
  0
LINE
  8
0
 10
16.0973
 20
30.8736
 11
13.4839
 21
31.931
  0
LINE
  8
0
 10
13.4839
 20
31.931
 11
10.6183
 21
33.3231
  0
LINE
  8
0
 10
10.6183
 20
33.3231
 11
7.70691
 21
34.9307
  0
LINE
  8
0
 10
7.70691
 20
34.9307
 11
7.50732
 21
35.0465
  0
LINE
  8
0
 10
7.50732
 20
35.0465
 11
10.7899
 21
36.293
  0
LINE
  8
0
 10
10.7899
 20
36.293
 11
13.656
 21
37.2704
  0
LINE
  8
0
 10
13.656
 20
37.2704
 11
16.0995
 21
37.9776
  0
LINE
  8
0
 10
16.0995
 20
37.9776
 11
18.121
 21
38.4138
  0
LINE
  8
0
 10
18.121
 20
38.4138
 11
19.7205
 21
38.5809
  0
LINE
  8
0
 10
19.7205
 20
38.5809
 11
20.8969
 21
38.4775
  0
LINE
  8
0
 10
20.8969
 20
38.4775
 11
21.6504
 21
38.1044
  0
LINE
  8
0
 10
21.6504
 20
38.1044
 11
21.9823
 21
37.4626
  0
LINE
  8
0
 10
21.9823
 20
37.4626
 11
21.893
 21
36.5494
  0
LINE
  8
0
 10
21.893
 20
36.5494
 11
21.3817
 21
35.3665
  0
LINE
  8
0
 10
21.3817
 20
35.3665
 11
20.4483
 21
33.9117
  0
LINE
  8
0
 10
20.4483
 20
33.9117
 11
19.0865
 21
32.1782
  0
LINE
  8
0
 10
19.0865
 20
32.1782
 11
28.3031
 21
36.4409
  0
LINE
  8
0
 10
28.3031
 20
36.4409
 11
27.9524
 21
34.4853
  0
LINE
  8
0
 10
27.9524
 20
34.4853
 11
27.3505
 21
32.8603
  0
LINE
  8
0
 10
27.3505
 20
32.8603
 11
26.4967
 21
31.5717
  0
LINE
  8
0
 10
26.4967
 20
31.5717
 11
25.3931
 21
30.6181
  0
LINE
  8
0
 10
25.3931
 20
30.6181
 11
24.0363
 21
29.9983
  0
LINE
  8
0
 10
24.0363
 20
29.9983
 11
22.4295
 21
29.7145
  0
LINE
  8
0
 10
22.4295
 20
29.7145
 11
20.5696
 21
29.7653
  0
LINE
  8
0
 10
-9.43039
 20
29.7653
 11
-11.5407
 21
30.1517
  0
LINE
  8
0
 10
-11.5407
 20
30.1517
 11
-13.9027
 21
30.8736
  0
LINE
  8
0
 10
-13.9027
 20
30.8736
 11
-16.5161
 21
31.931
  0
LINE
  8
0
 10
-16.5161
 20
31.931
 11
-19.3817
 21
33.3231
  0
LINE
  8
0
 10
-19.3817
 20
33.3231
 11
-22.2931
 21
34.9307
  0
LINE
  8
0
 10
-22.2931
 20
34.9307
 11
-22.4927
 21
35.0465
  0
LINE
  8
0
 10
-22.4927
 20
35.0465
 11
-19.2101
 21
36.293
  0
LINE
  8
0
 10
-19.2101
 20
36.293
 11
-16.344
 21
37.2704
  0
LINE
  8
0
 10
-16.344
 20
37.2704
 11
-13.9005
 21
37.9776
  0
LINE
  8
0
 10
-13.9005
 20
37.9776
 11
-11.879
 21
38.4138
  0
LINE
  8
0
 10
-11.879
 20
38.4138
 11
-10.2795
 21
38.5809
  0
LINE
  8
0
 10
-10.2795
 20
38.5809
 11
-9.10309
 21
38.4775
  0
LINE
  8
0
 10
-9.10309
 20
38.4775
 11
-8.34961
 21
38.1044
  0
LINE
  8
0
 10
-8.34961
 20
38.1044
 11
-8.01773
 21
37.4626
  0
LINE
  8
0
 10
-8.01773
 20
37.4626
 11
-8.10699
 21
36.5494
  0
LINE
  8
0
 10
-8.10699
 20
36.5494
 11
-8.61832
 21
35.3665
  0
LINE
  8
0
 10
-8.61832
 20
35.3665
 11
-9.5517
 21
33.9117
  0
LINE
  8
0
 10
-9.5517
 20
33.9117
 11
-10.9135
 21
32.1782
  0
LINE
  8
0
 10
-10.9135
 20
32.1782
 11
-1.69693
 21
36.4409
  0
LINE
  8
0
 10
-1.69693
 20
36.4409
 11
-2.04758
 21
34.4853
  0
LINE
  8
0
 10
-2.04758
 20
34.4853
 11
-2.64954
 21
32.8603
  0
LINE
  8
0
 10
-2.64954
 20
32.8603
 11
-3.50327
 21
31.5717
  0
LINE
  8
0
 10
-3.50327
 20
31.5717
 11
-4.60693
 21
30.6181
  0
LINE
  8
0
 10
-4.60693
 20
30.6181
 11
-5.96375
 21
29.9983
  0
LINE
  8
0
 10
-5.96375
 20
29.9983
 11
-7.5705
 21
29.7145
  0
LINE
  8
0
 10
-7.5705
 20
29.7145
 11
-9.43039
 21
29.7653
  0
LINE
  8
0
 10
50.5696
 20
29.7653
 11
48.4593
 21
30.1517
  0
LINE
  8
0
 10
48.4593
 20
30.1517
 11
46.0973
 21
30.8736
  0
LINE
  8
0
 10
46.0973
 20
30.8736
 11
43.4839
 21
31.931
  0
LINE
  8
0
 10
43.4839
 20
31.931
 11
40.6183
 21
33.3231
  0
LINE
  8
0
 10
40.6183
 20
33.3231
 11
37.7069
 21
34.9307
  0
LINE
  8
0
 10
37.7069
 20
34.9307
 11
37.5073
 21
35.0465
  0
LINE
  8
0
 10
37.5073
 20
35.0465
 11
40.7899
 21
36.293
  0
LINE
  8
0
 10
40.7899
 20
36.293
 11
43.656
 21
37.2704
  0
LINE
  8
0
 10
43.656
 20
37.2704
 11
46.0995
 21
37.9776
  0
LINE
  8
0
 10
46.0995
 20
37.9776
 11
48.121
 21
38.4138
  0
LINE
  8
0
 10
48.121
 20
38.4138
 11
49.7205
 21
38.5809
  0
LINE
  8
0
 10
49.7205
 20
38.5809
 11
49.8505
 21
38.5695
  0
LINE
  8
0
 10
49.8505
 20
38.5695
 11
51.0561
 21
34.859
  0
LINE
  8
0
 10
51.0561
 20
34.859
 11
50.4483
 21
33.9117
  0
LINE
  8
0
 10
50.4483
 20
33.9117
 11
49.0865
 21
32.1782
  0
LINE
  8
0
 10
49.0865
 20
32.1782
 11
51.556
 21
33.3204
  0
LINE
  8
0
 10
51.556
 20
33.3204
 11
52.7114
 21
29.7643
  0
LINE
  8
0
 10
52.7114
 20
29.7643
 11
52.4295
 21
29.7145
  0
LINE
  8
0
 10
52.4295
 20
29.7145
 11
50.5696
 21
29.7653
  0
LINE
  8
0
 10
-3.21304
 20
17.6167
 11
-4.319
 21
18.9502
  0
LINE
  8
0
 10
-4.319
 20
18.9502
 11
-5.00885
 21
20.3345
  0
LINE
  8
0
 10
-5.00885
 20
20.3345
 11
-5.28259
 21
21.7673
  0
LINE
  8
0
 10
-5.28259
 20
21.7673
 11
-5.1416
 21
23.2518
  0
LINE
  8
0
 10
-5.1416
 20
23.2518
 11
-4.58313
 21
24.7853
  0
LINE
  8
0
 10
-4.58313
 20
24.7853
 11
-3.60947
 21
26.3701
  0
LINE
  8
0
 10
-3.60947
 20
26.3701
 11
-2.2197
 21
28.0052
  0
LINE
  8
0
 10
-2.2197
 20
28.0052
 11
-0.413818
 21
29.6898
  0
LINE
  8
0
 10
-0.413818
 20
29.6898
 11
1.80862
 21
31.4243
  0
LINE
  8
0
 10
1.80862
 20
31.4243
 11
4.44717
 21
33.2095
  0
LINE
  8
0
 10
4.44717
 20
33.2095
 11
7.27432
 21
34.9142
  0
LINE
  8
0
 10
7.27432
 20
34.9142
 11
7.49588
 21
35.0424
  0
LINE
  8
0
 10
7.49588
 20
35.0424
 11
6.93329
 21
31.5762
  0
LINE
  8
0
 10
6.93329
 20
31.5762
 11
6.34689
 21
28.6049
  0
LINE
  8
0
 10
6.34689
 20
28.6049
 11
5.73761
 21
26.1348
  0
LINE
  8
0
 10
5.73761
 20
26.1348
 11
5.10452
 21
24.1664
  0
LINE
  8
0
 10
5.10452
 20
24.1664
 11
4.44946
 21
22.6979
  0
LINE
  8
0
 10
4.44946
 20
22.6979
 11
3.77197
 21
21.7316
  0
LINE
  8
0
 10
3.77197
 20
21.7316
 11
3.07205
 21
21.2651
  0
LINE
  8
0
 10
3.07205
 20
21.2651
 11
2.3497
 21
21.2985
  0
LINE
  8
0
 10
2.3497
 20
21.2985
 11
1.60355
 21
21.8323
  0
LINE
  8
0
 10
1.60355
 20
21.8323
 11
0.834503
 21
22.8664
  0
LINE
  8
0
 10
0.834503
 20
22.8664
 11
0.0421143
 21
24.4017
  0
LINE
  8
0
 10
0.0421143
 20
24.4017
 11
-0.778656
 21
26.4479
  0
LINE
  8
0
 10
-0.778656
 20
26.4479
 11
-1.69556
 21
16.3359
  0
LINE
  8
0
 10
-1.69556
 20
16.3359
 11
-3.21304
 21
17.6167
  0
LINE
  8
0
 10
26.787
 20
17.6167
 11
25.681
 21
18.9502
  0
LINE
  8
0
 10
25.681
 20
18.9502
 11
24.9911
 21
20.3345
  0
LINE
  8
0
 10
24.9911
 20
20.3345
 11
24.7174
 21
21.7673
  0
LINE
  8
0
 10
24.7174
 20
21.7673
 11
24.8584
 21
23.2518
  0
LINE
  8
0
 10
24.8584
 20
23.2518
 11
25.4169
 21
24.7853
  0
LINE
  8
0
 10
25.4169
 20
24.7853
 11
26.3905
 21
26.3701
  0
LINE
  8
0
 10
26.3905
 20
26.3701
 11
27.7803
 21
28.0052
  0
LINE
  8
0
 10
27.7803
 20
28.0052
 11
29.5862
 21
29.6898
  0
LINE
  8
0
 10
29.5862
 20
29.6898
 11
31.8086
 21
31.4243
  0
LINE
  8
0
 10
31.8086
 20
31.4243
 11
34.4472
 21
33.2095
  0
LINE
  8
0
 10
34.4472
 20
33.2095
 11
37.2743
 21
34.9142
  0
LINE
  8
0
 10
37.2743
 20
34.9142
 11
37.4959
 21
35.0424
  0
LINE
  8
0
 10
37.4959
 20
35.0424
 11
36.9333
 21
31.5762
  0
LINE
  8
0
 10
36.9333
 20
31.5762
 11
36.3469
 21
28.6049
  0
LINE
  8
0
 10
36.3469
 20
28.6049
 11
35.7376
 21
26.1348
  0
LINE
  8
0
 10
35.7376
 20
26.1348
 11
35.1045
 21
24.1664
  0
LINE
  8
0
 10
35.1045
 20
24.1664
 11
34.4495
 21
22.6979
  0
LINE
  8
0
 10
34.4495
 20
22.6979
 11
33.772
 21
21.7316
  0
LINE
  8
0
 10
33.772
 20
21.7316
 11
33.0721
 21
21.2651
  0
LINE
  8
0
 10
33.0721
 20
21.2651
 11
32.3497
 21
21.2985
  0
LINE
  8
0
 10
32.3497
 20
21.2985
 11
31.6035
 21
21.8323
  0
LINE
  8
0
 10
31.6035
 20
21.8323
 11
30.8345
 21
22.8664
  0
LINE
  8
0
 10
30.8345
 20
22.8664
 11
30.0421
 21
24.4017
  0
LINE
  8
0
 10
30.0421
 20
24.4017
 11
29.2213
 21
26.4479
  0
LINE
  8
0
 10
29.2213
 20
26.4479
 11
28.3044
 21
16.3359
  0
LINE
  8
0
 10
28.3044
 20
16.3359
 11
26.787
 21
17.6167
  0
LINE
  8
0
 10
-33.213
 20
17.6167
 11
-34.319
 21
18.9502
  0
LINE
  8
0
 10
-34.319
 20
18.9502
 11
-35.0089
 21
20.3345
  0
LINE
  8
0
 10
-35.0089
 20
20.3345
 11
-35.2826
 21
21.7673
  0
LINE
  8
0
 10
-35.2826
 20
21.7673
 11
-35.1416
 21
23.2518
  0
LINE
  8
0
 10
-35.1416
 20
23.2518
 11
-34.5831
 21
24.7853
  0
LINE
  8
0
 10
-34.5831
 20
24.7853
 11
-33.6095
 21
26.3701
  0
LINE
  8
0
 10
-33.6095
 20
26.3701
 11
-32.2197
 21
28.0052
  0
LINE
  8
0
 10
-32.2197
 20
28.0052
 11
-30.4138
 21
29.6898
  0
LINE
  8
0
 10
-30.4138
 20
29.6898
 11
-28.1914
 21
31.4243
  0
LINE
  8
0
 10
-28.1914
 20
31.4243
 11
-25.5528
 21
33.2095
  0
LINE
  8
0
 10
-25.5528
 20
33.2095
 11
-22.7257
 21
34.9142
  0
LINE
  8
0
 10
-22.7257
 20
34.9142
 11
-22.5041
 21
35.0424
  0
LINE
  8
0
 10
-22.5041
 20
35.0424
 11
-23.0667
 21
31.5762
  0
LINE
  8
0
 10
-23.0667
 20
31.5762
 11
-23.6531
 21
28.6049
  0
LINE
  8
0
 10
-23.6531
 20
28.6049
 11
-24.2624
 21
26.1348
  0
LINE
  8
0
 10
-24.2624
 20
26.1348
 11
-24.8955
 21
24.1664
  0
LINE
  8
0
 10
-24.8955
 20
24.1664
 11
-25.5505
 21
22.6979
  0
LINE
  8
0
 10
-25.5505
 20
22.6979
 11
-26.228
 21
21.7316
  0
LINE
  8
0
 10
-26.228
 20
21.7316
 11
-26.9279
 21
21.2651
  0
LINE
  8
0
 10
-26.9279
 20
21.2651
 11
-27.6503
 21
21.2985
  0
LINE
  8
0
 10
-27.6503
 20
21.2985
 11
-28.3965
 21
21.8323
  0
LINE
  8
0
 10
-28.3965
 20
21.8323
 11
-29.1655
 21
22.8664
  0
LINE
  8
0
 10
-29.1655
 20
22.8664
 11
-29.9579
 21
24.4017
  0
LINE
  8
0
 10
-29.9579
 20
24.4017
 11
-30.7787
 21
26.4479
  0
LINE
  8
0
 10
-30.7787
 20
26.4479
 11
-31.6956
 21
16.3359
  0
LINE
  8
0
 10
-31.6956
 20
16.3359
 11
-33.213
 21
17.6167
  0
LINE
  8
0
 10
-11.031
 20
12
 11
-12.5029
 21
13.2872
  0
LINE
  8
0
 10
-12.5029
 20
13.2872
 11
-14.3376
 21
15.05
  0
LINE
  8
0
 10
-14.3376
 20
15.05
 11
-15.7265
 21
16.5826
  0
LINE
  8
0
 10
-15.7265
 20
16.5826
 11
-16.6699
 21
17.8836
  0
LINE
  8
0
 10
-16.6699
 20
17.8836
 11
-17.1684
 21
18.9534
  0
LINE
  8
0
 10
-17.1684
 20
18.9534
 11
-17.2224
 21
19.7934
  0
LINE
  8
0
 10
-17.2224
 20
19.7934
 11
-16.8324
 21
20.4022
  0
LINE
  8
0
 10
-16.8324
 20
20.4022
 11
-15.9979
 21
20.7808
  0
LINE
  8
0
 10
-15.9979
 20
20.7808
 11
-14.7166
 21
20.93
  0
LINE
  8
0
 10
-14.7166
 20
20.93
 11
-12.9904
 21
20.849
  0
LINE
  8
0
 10
-12.9904
 20
20.849
 11
-10.8083
 21
20.5363
  0
LINE
  8
0
 10
-10.8083
 20
20.5363
 11
-19.108
 21
26.3866
  0
LINE
  8
0
 10
-19.108
 20
26.3866
 11
-17.2394
 21
27.0609
  0
LINE
  8
0
 10
-17.2394
 20
27.0609
 11
-15.5315
 21
27.3515
  0
LINE
  8
0
 10
-15.5315
 20
27.3515
 11
-13.9879
 21
27.2568
  0
LINE
  8
0
 10
-13.9879
 20
27.2568
 11
-12.6096
 21
26.7775
  0
LINE
  8
0
 10
-12.6096
 20
26.7775
 11
-11.3947
 21
25.9128
  0
LINE
  8
0
 10
-11.3947
 20
25.9128
 11
-10.3455
 21
24.6626
  0
LINE
  8
0
 10
-10.3455
 20
24.6626
 11
-9.46014
 21
23.027
  0
LINE
  8
0
 10
-9.46014
 20
23.027
 11
-8.73917
 21
21.006
  0
LINE
  8
0
 10
-8.73917
 20
21.006
 11
-8.18298
 21
18.5991
  0
LINE
  8
0
 10
-8.18298
 20
18.5991
 11
-7.79205
 21
15.8076
  0
LINE
  8
0
 10
-7.79205
 20
15.8076
 11
-7.565
 21
12.6299
  0
LINE
  8
0
 10
-7.565
 20
12.6299
 11
-7.5531
 21
12
  0
LINE
  8
0
 10
-7.5531
 20
12
 11
-11.031
 21
12
  0
LINE
  8
0
 10
18.969
 20
12
 11
17.4971
 21
13.2872
  0
LINE
  8
0
 10
17.4971
 20
13.2872
 11
15.6624
 21
15.05
  0
LINE
  8
0
 10
15.6624
 20
15.05
 11
14.2735
 21
16.5826
  0
LINE
  8
0
 10
14.2735
 20
16.5826
 11
13.3301
 21
17.8836
  0
LINE
  8
0
 10
13.3301
 20
17.8836
 11
12.8316
 21
18.9534
  0
LINE
  8
0
 10
12.8316
 20
18.9534
 11
12.7776
 21
19.7934
  0
LINE
  8
0
 10
12.7776
 20
19.7934
 11
13.1676
 21
20.4022
  0
LINE
  8
0
 10
13.1676
 20
20.4022
 11
14.0021
 21
20.7808
  0
LINE
  8
0
 10
14.0021
 20
20.7808
 11
15.2834
 21
20.93
  0
LINE
  8
0
 10
15.2834
 20
20.93
 11
17.0096
 21
20.849
  0
LINE
  8
0
 10
17.0096
 20
20.849
 11
19.1917
 21
20.5363
  0
LINE
  8
0
 10
19.1917
 20
20.5363
 11
10.892
 21
26.3866
  0
LINE
  8
0
 10
10.892
 20
26.3866
 11
12.7606
 21
27.0609
  0
LINE
  8
0
 10
12.7606
 20
27.0609
 11
14.4685
 21
27.3515
  0
LINE
  8
0
 10
14.4685
 20
27.3515
 11
16.0121
 21
27.2568
  0
LINE
  8
0
 10
16.0121
 20
27.2568
 11
17.3904
 21
26.7775
  0
LINE
  8
0
 10
17.3904
 20
26.7775
 11
18.6053
 21
25.9128
  0
LINE
  8
0
 10
18.6053
 20
25.9128
 11
19.6545
 21
24.6626
  0
LINE
  8
0
 10
19.6545
 20
24.6626
 11
20.5399
 21
23.027
  0
LINE
  8
0
 10
20.5399
 20
23.027
 11
21.2608
 21
21.006
  0
LINE
  8
0
 10
21.2608
 20
21.006
 11
21.817
 21
18.5991
  0
LINE
  8
0
 10
21.817
 20
18.5991
 11
22.2079
 21
15.8076
  0
LINE
  8
0
 10
22.2079
 20
15.8076
 11
22.435
 21
12.6299
  0
LINE
  8
0
 10
22.435
 20
12.6299
 11
22.4469
 21
12
  0
LINE
  8
0
 10
22.4469
 20
12
 11
18.969
 21
12
  0
LINE
  8
0
 10
48.969
 20
12
 11
47.4971
 21
13.2872
  0
LINE
  8
0
 10
47.4971
 20
13.2872
 11
45.6624
 21
15.05
  0
LINE
  8
0
 10
45.6624
 20
15.05
 11
44.2735
 21
16.5826
  0
LINE
  8
0
 10
44.2735
 20
16.5826
 11
43.3301
 21
17.8836
  0
LINE
  8
0
 10
43.3301
 20
17.8836
 11
42.8316
 21
18.9534
  0
LINE
  8
0
 10
42.8316
 20
18.9534
 11
42.7776
 21
19.7934
  0
LINE
  8
0
 10
42.7776
 20
19.7934
 11
43.1676
 21
20.4022
  0
LINE
  8
0
 10
43.1676
 20
20.4022
 11
44.0021
 21
20.7808
  0
LINE
  8
0
 10
44.0021
 20
20.7808
 11
45.2834
 21
20.93
  0
LINE
  8
0
 10
45.2834
 20
20.93
 11
47.0096
 21
20.849
  0
LINE
  8
0
 10
47.0096
 20
20.849
 11
49.1917
 21
20.5363
  0
LINE
  8
0
 10
49.1917
 20
20.5363
 11
40.892
 21
26.3866
  0
LINE
  8
0
 10
40.892
 20
26.3866
 11
42.7606
 21
27.0609
  0
LINE
  8
0
 10
42.7606
 20
27.0609
 11
44.4685
 21
27.3515
  0
LINE
  8
0
 10
44.4685
 20
27.3515
 11
46.0121
 21
27.2568
  0
LINE
  8
0
 10
46.0121
 20
27.2568
 11
47.3904
 21
26.7775
  0
LINE
  8
0
 10
47.3904
 20
26.7775
 11
48.6053
 21
25.9128
  0
LINE
  8
0
 10
48.6053
 20
25.9128
 11
49.6545
 21
24.6626
  0
LINE
  8
0
 10
49.6545
 20
24.6626
 11
50.5399
 21
23.027
  0
LINE
  8
0
 10
50.5399
 20
23.027
 11
51.2608
 21
21.006
  0
LINE
  8
0
 10
51.2608
 20
21.006
 11
51.817
 21
18.5991
  0
LINE
  8
0
 10
51.817
 20
18.5991
 11
52.2079
 21
15.8076
  0
LINE
  8
0
 10
52.2079
 20
15.8076
 11
52.435
 21
12.6299
  0
LINE
  8
0
 10
52.435
 20
12.6299
 11
52.4469
 21
12
  0
LINE
  8
0
 10
52.4469
 20
12
 11
48.969
 21
12
  0
LINE
  8
0
 10
-41.031
 20
12
 11
-42.5029
 21
13.2872
  0
LINE
  8
0
 10
-42.5029
 20
13.2872
 11
-44.3376
 21
15.05
  0
LINE
  8
0
 10
-44.3376
 20
15.05
 11
-45.7265
 21
16.5826
  0
LINE
  8
0
 10
-45.7265
 20
16.5826
 11
-46.6699
 21
17.8836
  0
LINE
  8
0
 10
-46.6699
 20
17.8836
 11
-47.1684
 21
18.9534
  0
LINE
  8
0
 10
-47.1684
 20
18.9534
 11
-47.2224
 21
19.7934
  0
LINE
  8
0
 10
-47.2224
 20
19.7934
 11
-46.8324
 21
20.4022
  0
LINE
  8
0
 10
-46.8324
 20
20.4022
 11
-45.9979
 21
20.7808
  0
LINE
  8
0
 10
-45.9979
 20
20.7808
 11
-44.7166
 21
20.93
  0
LINE
  8
0
 10
-44.7166
 20
20.93
 11
-42.9904
 21
20.849
  0
LINE
  8
0
 10
-42.9904
 20
20.849
 11
-40.8083
 21
20.5363
  0
LINE
  8
0
 10
-40.8083
 20
20.5363
 11
-49.108
 21
26.3866
  0
LINE
  8
0
 10
-49.108
 20
26.3866
 11
-47.2394
 21
27.0609
  0
LINE
  8
0
 10
-47.2394
 20
27.0609
 11
-45.5315
 21
27.3515
  0
LINE
  8
0
 10
-45.5315
 20
27.3515
 11
-43.9879
 21
27.2568
  0
LINE
  8
0
 10
-43.9879
 20
27.2568
 11
-42.6096
 21
26.7775
  0
LINE
  8
0
 10
-42.6096
 20
26.7775
 11
-41.3947
 21
25.9128
  0
LINE
  8
0
 10
-41.3947
 20
25.9128
 11
-40.3455
 21
24.6626
  0
LINE
  8
0
 10
-40.3455
 20
24.6626
 11
-39.4601
 21
23.027
  0
LINE
  8
0
 10
-39.4601
 20
23.027
 11
-38.7392
 21
21.006
  0
LINE
  8
0
 10
-38.7392
 20
21.006
 11
-38.183
 21
18.5991
  0
LINE
  8
0
 10
-38.183
 20
18.5991
 11
-37.7921
 21
15.8076
  0
LINE
  8
0
 10
-37.7921
 20
15.8076
 11
-37.565
 21
12.6299
  0
LINE
  8
0
 10
-37.565
 20
12.6299
 11
-37.5531
 21
12
  0
LINE
  8
0
 10
-37.5531
 20
12
 11
-41.031
 21
12
  0
LINE
  8
0
 10
55.681
 20
18.9502
 11
54.9911
 21
20.3345
  0
LINE
  8
0
 10
54.9911
 20
20.3345
 11
54.7174
 21
21.7673
  0
LINE
  8
0
 10
54.7174
 20
21.7673
 11
54.8514
 21
23.1782
  0
LINE
  8
0
 10
54.8514
 20
23.1782
 11
56.5756
 21
17.8715
  0
LINE
  8
0
 10
56.5756
 20
17.8715
 11
55.681
 21
18.9502
  0
LINE
  8
0
 10
31.1145
 20
12
 11
33.121
 21
12.433
  0
LINE
  8
0
 10
33.121
 20
12.433
 11
34.7205
 21
12.6001
  0
LINE
  8
0
 10
34.7205
 20
12.6001
 11
35.8969
 21
12.4966
  0
LINE
  8
0
 10
35.8969
 20
12.4966
 11
36.6504
 21
12.1236
  0
LINE
  8
0
 10
36.6504
 20
12.1236
 11
36.7143
 21
12
  0
LINE
  8
0
 10
36.7143
 20
12
 11
31.1145
 21
12
  0
LINE
  8
0
 10
1.11453
 20
12
 11
3.12103
 21
12.433
  0
LINE
  8
0
 10
3.12103
 20
12.433
 11
4.72046
 21
12.6001
  0
LINE
  8
0
 10
4.72046
 20
12.6001
 11
5.89691
 21
12.4966
  0
LINE
  8
0
 10
5.89691
 20
12.4966
 11
6.65039
 21
12.1236
  0
LINE
  8
0
 10
6.65039
 20
12.1236
 11
6.71429
 21
12
  0
LINE
  8
0
 10
6.71429
 20
12
 11
1.11453
 21
12
  0
LINE
  8
0
 10
-28.8855
 20
12
 11
-26.879
 21
12.433
  0
LINE
  8
0
 10
-26.879
 20
12.433
 11
-25.2795
 21
12.6001
  0
LINE
  8
0
 10
-25.2795
 20
12.6001
 11
-24.1031
 21
12.4966
  0
LINE
  8
0
 10
-24.1031
 20
12.4966
 11
-23.3496
 21
12.1236
  0
LINE
  8
0
 10
-23.3496
 20
12.1236
 11
-23.2857
 21
12
  0
LINE
  8
0
 10
-23.2857
 20
12
 11
-28.8855
 21
12
  0
LINE
  8
0
 10
-58.4834
 20
12
 11
-58.4531
 21
12.0933
  0
LINE
  8
0
 10
-58.4531
 20
12.0933
 11
-56.879
 21
12.433
  0
LINE
  8
0
 10
-56.879
 20
12.433
 11
-55.2795
 21
12.6001
  0
LINE
  8
0
 10
-55.2795
 20
12.6001
 11
-54.1031
 21
12.4966
  0
LINE
  8
0
 10
-54.1031
 20
12.4966
 11
-53.3496
 21
12.1236
  0
LINE
  8
0
 10
-53.3496
 20
12.1236
 11
-53.2857
 21
12
  0
LINE
  8
0
 10
-53.2857
 20
12
 11
-58.4834
 21
12
  0
LINE
  8
0
 10
-10
 20
7
 11
-10
 21
11
  0
LINE
  8
0
 10
-10
 20
11
 11
10
 21
11
  0
LINE
  8
0
 10
10
 20
11
 11
10
 21
7
  0
LINE
  8
0
 10
10
 20
7
 11
-10
 21
7
  0
LINE
  8
0
 10
-68.6534
 20
2.70622
 11
-68.7785
 21
2.71805
  0
LINE
  8
0
 10
-68.7785
 20
2.71805
 11
-68.9026
 21
2.7377
  0
LINE
  8
0
 10
-68.9026
 20
2.7377
 11
-69.0252
 21
2.76511
  0
LINE
  8
0
 10
-69.0252
 20
2.76511
 11
-69.1459
 21
2.80016
  0
LINE
  8
0
 10
-69.1459
 20
2.80016
 11
-69.2641
 21
2.84273
  0
LINE
  8
0
 10
-69.2641
 20
2.84273
 11
-69.3794
 21
2.89262
  0
LINE
  8
0
 10
-69.3794
 20
2.89262
 11
-69.4914
 21
2.94966
  0
LINE
  8
0
 10
-69.4914
 20
2.94966
 11
-69.5995
 21
3.01363
  0
LINE
  8
0
 10
-69.5995
 20
3.01363
 11
-69.7034
 21
3.08424
  0
LINE
  8
0
 10
-69.7034
 20
3.08424
 11
-69.8027
 21
3.16125
  0
LINE
  8
0
 10
-69.8027
 20
3.16125
 11
-69.897
 21
3.24434
  0
LINE
  8
0
 10
-69.897
 20
3.24434
 11
-69.9858
 21
3.33318
  0
LINE
  8
0
 10
-69.9858
 20
3.33318
 11
-70.0689
 21
3.42743
  0
LINE
  8
0
 10
-70.0689
 20
3.42743
 11
-70.1459
 21
3.5267
  0
LINE
  8
0
 10
-70.1459
 20
3.5267
 11
-70.2165
 21
3.63062
  0
LINE
  8
0
 10
-70.2165
 20
3.63062
 11
-70.2805
 21
3.73877
  0
LINE
  8
0
 10
-70.2805
 20
3.73877
 11
-70.3375
 21
3.85072
  0
LINE
  8
0
 10
-70.3375
 20
3.85072
 11
-70.3874
 21
3.96602
  0
LINE
  8
0
 10
-70.3874
 20
3.96602
 11
-70.43
 21
4.08424
  0
LINE
  8
0
 10
-70.43
 20
4.08424
 11
-70.465
 21
4.2049
  0
LINE
  8
0
 10
-70.465
 20
4.2049
 11
-70.4924
 21
4.32751
  0
LINE
  8
0
 10
-70.4924
 20
4.32751
 11
-70.5121
 21
4.45161
  0
LINE
  8
0
 10
-70.5121
 20
4.45161
 11
-70.5239
 21
4.57669
  0
LINE
  8
0
 10
-70.5239
 20
4.57669
 11
-70.5279
 21
4.70227
  0
LINE
  8
0
 10
-70.5279
 20
4.70227
 11
-70.5239
 21
4.82785
  0
LINE
  8
0
 10
-70.5239
 20
4.82785
 11
-70.5121
 21
4.95294
  0
LINE
  8
0
 10
-70.5121
 20
4.95294
 11
-70.4924
 21
5.07704
  0
LINE
  8
0
 10
-70.4924
 20
5.07704
 11
-70.465
 21
5.19966
  0
LINE
  8
0
 10
-70.465
 20
5.19966
 11
-70.43
 21
5.32031
  0
LINE
  8
0
 10
-70.43
 20
5.32031
 11
-70.3874
 21
5.43852
  0
LINE
  8
0
 10
-70.3874
 20
5.43852
 11
-70.3375
 21
5.55383
  0
LINE
  8
0
 10
-70.3375
 20
5.55383
 11
-70.2805
 21
5.66579
  0
LINE
  8
0
 10
-70.2805
 20
5.66579
 11
-70.2165
 21
5.77393
  0
LINE
  8
0
 10
-70.2165
 20
5.77393
 11
-70.1459
 21
5.87784
  0
LINE
  8
0
 10
-70.1459
 20
5.87784
 11
-70.0689
 21
5.97713
  0
LINE
  8
0
 10
-70.0689
 20
5.97713
 11
-69.9858
 21
6.07137
  0
LINE
  8
0
 10
-69.9858
 20
6.07137
 11
-69.897
 21
6.16022
  0
LINE
  8
0
 10
-69.897
 20
6.16022
 11
-69.8027
 21
6.2433
  0
LINE
  8
0
 10
-69.8027
 20
6.2433
 11
-69.7034
 21
6.32031
  0
LINE
  8
0
 10
-69.7034
 20
6.32031
 11
-69.5995
 21
6.39093
  0
LINE
  8
0
 10
-69.5995
 20
6.39093
 11
-69.4914
 21
6.4549
  0
LINE
  8
0
 10
-69.4914
 20
6.4549
 11
-69.3794
 21
6.51193
  0
LINE
  8
0
 10
-69.3794
 20
6.51193
 11
-69.2641
 21
6.56183
  0
LINE
  8
0
 10
-69.2641
 20
6.56183
 11
-69.1459
 21
6.60439
  0
LINE
  8
0
 10
-69.1459
 20
6.60439
 11
-69.0252
 21
6.63943
  0
LINE
  8
0
 10
-69.0252
 20
6.63943
 11
-68.9026
 21
6.66685
  0
LINE
  8
0
 10
-68.9026
 20
6.66685
 11
-68.7785
 21
6.68651
  0
LINE
  8
0
 10
-68.7785
 20
6.68651
 11
-68.6534
 21
6.69833
  0
LINE
  8
0
 10
-68.6534
 20
6.69833
 11
-68.5279
 21
6.70227
  0
LINE
  8
0
 10
-68.5279
 20
6.70227
 11
-68.4023
 21
6.69833
  0
LINE
  8
0
 10
-68.4023
 20
6.69833
 11
-68.2772
 21
6.68651
  0
LINE
  8
0
 10
-68.2772
 20
6.68651
 11
-68.1531
 21
6.66685
  0
LINE
  8
0
 10
-68.1531
 20
6.66685
 11
-68.0305
 21
6.63943
  0
LINE
  8
0
 10
-68.0305
 20
6.63943
 11
-67.9098
 21
6.60439
  0
LINE
  8
0
 10
-67.9098
 20
6.60439
 11
-67.7916
 21
6.56183
  0
LINE
  8
0
 10
-67.7916
 20
6.56183
 11
-67.6763
 21
6.51193
  0
LINE
  8
0
 10
-67.6763
 20
6.51193
 11
-67.5643
 21
6.4549
  0
LINE
  8
0
 10
-67.5643
 20
6.4549
 11
-67.4562
 21
6.39093
  0
LINE
  8
0
 10
-67.4562
 20
6.39093
 11
-67.3523
 21
6.32031
  0
LINE
  8
0
 10
-67.3523
 20
6.32031
 11
-67.253
 21
6.2433
  0
LINE
  8
0
 10
-67.253
 20
6.2433
 11
-67.1588
 21
6.16022
  0
LINE
  8
0
 10
-67.1588
 20
6.16022
 11
-67.0699
 21
6.07137
  0
LINE
  8
0
 10
-67.0699
 20
6.07137
 11
-66.9868
 21
5.97713
  0
LINE
  8
0
 10
-66.9868
 20
5.97713
 11
-66.9098
 21
5.87784
  0
LINE
  8
0
 10
-66.9098
 20
5.87784
 11
-66.8392
 21
5.77393
  0
LINE
  8
0
 10
-66.8392
 20
5.77393
 11
-66.7752
 21
5.66579
  0
LINE
  8
0
 10
-66.7752
 20
5.66579
 11
-66.7182
 21
5.55383
  0
LINE
  8
0
 10
-66.7182
 20
5.55383
 11
-66.6683
 21
5.43852
  0
LINE
  8
0
 10
-66.6683
 20
5.43852
 11
-66.6257
 21
5.32031
  0
LINE
  8
0
 10
-66.6257
 20
5.32031
 11
-66.5907
 21
5.19966
  0
LINE
  8
0
 10
-66.5907
 20
5.19966
 11
-66.5633
 21
5.07704
  0
LINE
  8
0
 10
-66.5633
 20
5.07704
 11
-66.5436
 21
4.95294
  0
LINE
  8
0
 10
-66.5436
 20
4.95294
 11
-66.5318
 21
4.82785
  0
LINE
  8
0
 10
-66.5318
 20
4.82785
 11
-66.5279
 21
4.70227
  0
LINE
  8
0
 10
-66.5279
 20
4.70227
 11
-66.5318
 21
4.57669
  0
LINE
  8
0
 10
-66.5318
 20
4.57669
 11
-66.5436
 21
4.45161
  0
LINE
  8
0
 10
-66.5436
 20
4.45161
 11
-66.5633
 21
4.32751
  0
LINE
  8
0
 10
-66.5633
 20
4.32751
 11
-66.5907
 21
4.2049
  0
LINE
  8
0
 10
-66.5907
 20
4.2049
 11
-66.6257
 21
4.08424
  0
LINE
  8
0
 10
-66.6257
 20
4.08424
 11
-66.6683
 21
3.96602
  0
LINE
  8
0
 10
-66.6683
 20
3.96602
 11
-66.7182
 21
3.85072
  0
LINE
  8
0
 10
-66.7182
 20
3.85072
 11
-66.7752
 21
3.73877
  0
LINE
  8
0
 10
-66.7752
 20
3.73877
 11
-66.8392
 21
3.63062
  0
LINE
  8
0
 10
-66.8392
 20
3.63062
 11
-66.9098
 21
3.5267
  0
LINE
  8
0
 10
-66.9098
 20
3.5267
 11
-66.9868
 21
3.42743
  0
LINE
  8
0
 10
-66.9868
 20
3.42743
 11
-67.0699
 21
3.33318
  0
LINE
  8
0
 10
-67.0699
 20
3.33318
 11
-67.1588
 21
3.24434
  0
LINE
  8
0
 10
-67.1588
 20
3.24434
 11
-67.253
 21
3.16125
  0
LINE
  8
0
 10
-67.253
 20
3.16125
 11
-67.3523
 21
3.08424
  0
LINE
  8
0
 10
-67.3523
 20
3.08424
 11
-67.4562
 21
3.01363
  0
LINE
  8
0
 10
-67.4562
 20
3.01363
 11
-67.5643
 21
2.94966
  0
LINE
  8
0
 10
-67.5643
 20
2.94966
 11
-67.6763
 21
2.89262
  0
LINE
  8
0
 10
-67.6763
 20
2.89262
 11
-67.7916
 21
2.84273
  0
LINE
  8
0
 10
-67.7916
 20
2.84273
 11
-67.9098
 21
2.80016
  0
LINE
  8
0
 10
-67.9098
 20
2.80016
 11
-68.0305
 21
2.76511
  0
LINE
  8
0
 10
-68.0305
 20
2.76511
 11
-68.1531
 21
2.7377
  0
LINE
  8
0
 10
-68.1531
 20
2.7377
 11
-68.2772
 21
2.71805
  0
LINE
  8
0
 10
-68.2772
 20
2.71805
 11
-68.4023
 21
2.70622
  0
LINE
  8
0
 10
-68.4023
 20
2.70622
 11
-68.5279
 21
2.70227
  0
LINE
  8
0
 10
-68.5279
 20
2.70227
 11
-68.6534
 21
2.70622
  0
LINE
  8
0
 10
68.4023
 20
2.70622
 11
68.2772
 21
2.71805
  0
LINE
  8
0
 10
68.2772
 20
2.71805
 11
68.1531
 21
2.7377
  0
LINE
  8
0
 10
68.1531
 20
2.7377
 11
68.0305
 21
2.76511
  0
LINE
  8
0
 10
68.0305
 20
2.76511
 11
67.9098
 21
2.80016
  0
LINE
  8
0
 10
67.9098
 20
2.80016
 11
67.7916
 21
2.84273
  0
LINE
  8
0
 10
67.7916
 20
2.84273
 11
67.6763
 21
2.89262
  0
LINE
  8
0
 10
67.6763
 20
2.89262
 11
67.5643
 21
2.94966
  0
LINE
  8
0
 10
67.5643
 20
2.94966
 11
67.4562
 21
3.01363
  0
LINE
  8
0
 10
67.4562
 20
3.01363
 11
67.3523
 21
3.08424
  0
LINE
  8
0
 10
67.3523
 20
3.08424
 11
67.253
 21
3.16125
  0
LINE
  8
0
 10
67.253
 20
3.16125
 11
67.1588
 21
3.24434
  0
LINE
  8
0
 10
67.1588
 20
3.24434
 11
67.0699
 21
3.33318
  0
LINE
  8
0
 10
67.0699
 20
3.33318
 11
66.9868
 21
3.42743
  0
LINE
  8
0
 10
66.9868
 20
3.42743
 11
66.9098
 21
3.5267
  0
LINE
  8
0
 10
66.9098
 20
3.5267
 11
66.8392
 21
3.63062
  0
LINE
  8
0
 10
66.8392
 20
3.63062
 11
66.7752
 21
3.73877
  0
LINE
  8
0
 10
66.7752
 20
3.73877
 11
66.7182
 21
3.85072
  0
LINE
  8
0
 10
66.7182
 20
3.85072
 11
66.6683
 21
3.96602
  0
LINE
  8
0
 10
66.6683
 20
3.96602
 11
66.6257
 21
4.08424
  0
LINE
  8
0
 10
66.6257
 20
4.08424
 11
66.5907
 21
4.2049
  0
LINE
  8
0
 10
66.5907
 20
4.2049
 11
66.5633
 21
4.32751
  0
LINE
  8
0
 10
66.5633
 20
4.32751
 11
66.5436
 21
4.45161
  0
LINE
  8
0
 10
66.5436
 20
4.45161
 11
66.5318
 21
4.57669
  0
LINE
  8
0
 10
66.5318
 20
4.57669
 11
66.5279
 21
4.70227
  0
LINE
  8
0
 10
66.5279
 20
4.70227
 11
66.5318
 21
4.82785
  0
LINE
  8
0
 10
66.5318
 20
4.82785
 11
66.5436
 21
4.95294
  0
LINE
  8
0
 10
66.5436
 20
4.95294
 11
66.5633
 21
5.07704
  0
LINE
  8
0
 10
66.5633
 20
5.07704
 11
66.5907
 21
5.19966
  0
LINE
  8
0
 10
66.5907
 20
5.19966
 11
66.6257
 21
5.32031
  0
LINE
  8
0
 10
66.6257
 20
5.32031
 11
66.6683
 21
5.43852
  0
LINE
  8
0
 10
66.6683
 20
5.43852
 11
66.7182
 21
5.55383
  0
LINE
  8
0
 10
66.7182
 20
5.55383
 11
66.7752
 21
5.66579
  0
LINE
  8
0
 10
66.7752
 20
5.66579
 11
66.8392
 21
5.77393
  0
LINE
  8
0
 10
66.8392
 20
5.77393
 11
66.9098
 21
5.87784
  0
LINE
  8
0
 10
66.9098
 20
5.87784
 11
66.9868
 21
5.97713
  0
LINE
  8
0
 10
66.9868
 20
5.97713
 11
67.0699
 21
6.07137
  0
LINE
  8
0
 10
67.0699
 20
6.07137
 11
67.1588
 21
6.16022
  0
LINE
  8
0
 10
67.1588
 20
6.16022
 11
67.253
 21
6.2433
  0
LINE
  8
0
 10
67.253
 20
6.2433
 11
67.3523
 21
6.32031
  0
LINE
  8
0
 10
67.3523
 20
6.32031
 11
67.4562
 21
6.39093
  0
LINE
  8
0
 10
67.4562
 20
6.39093
 11
67.5643
 21
6.4549
  0
LINE
  8
0
 10
67.5643
 20
6.4549
 11
67.6763
 21
6.51193
  0
LINE
  8
0
 10
67.6763
 20
6.51193
 11
67.7916
 21
6.56183
  0
LINE
  8
0
 10
67.7916
 20
6.56183
 11
67.9098
 21
6.60439
  0
LINE
  8
0
 10
67.9098
 20
6.60439
 11
68.0305
 21
6.63943
  0
LINE
  8
0
 10
68.0305
 20
6.63943
 11
68.1531
 21
6.66685
  0
LINE
  8
0
 10
68.1531
 20
6.66685
 11
68.2772
 21
6.68651
  0
LINE
  8
0
 10
68.2772
 20
6.68651
 11
68.4023
 21
6.69833
  0
LINE
  8
0
 10
68.4023
 20
6.69833
 11
68.5279
 21
6.70227
  0
LINE
  8
0
 10
68.5279
 20
6.70227
 11
68.6534
 21
6.69833
  0
LINE
  8
0
 10
68.6534
 20
6.69833
 11
68.7785
 21
6.68651
  0
LINE
  8
0
 10
68.7785
 20
6.68651
 11
68.9026
 21
6.66685
  0
LINE
  8
0
 10
68.9026
 20
6.66685
 11
69.0252
 21
6.63943
  0
LINE
  8
0
 10
69.0252
 20
6.63943
 11
69.1459
 21
6.60439
  0
LINE
  8
0
 10
69.1459
 20
6.60439
 11
69.2641
 21
6.56183
  0
LINE
  8
0
 10
69.2641
 20
6.56183
 11
69.3794
 21
6.51193
  0
LINE
  8
0
 10
69.3794
 20
6.51193
 11
69.4914
 21
6.4549
  0
LINE
  8
0
 10
69.4914
 20
6.4549
 11
69.5995
 21
6.39093
  0
LINE
  8
0
 10
69.5995
 20
6.39093
 11
69.7034
 21
6.32031
  0
LINE
  8
0
 10
69.7034
 20
6.32031
 11
69.8027
 21
6.2433
  0
LINE
  8
0
 10
69.8027
 20
6.2433
 11
69.897
 21
6.16022
  0
LINE
  8
0
 10
69.897
 20
6.16022
 11
69.9858
 21
6.07137
  0
LINE
  8
0
 10
69.9858
 20
6.07137
 11
70.0689
 21
5.97713
  0
LINE
  8
0
 10
70.0689
 20
5.97713
 11
70.1459
 21
5.87784
  0
LINE
  8
0
 10
70.1459
 20
5.87784
 11
70.2165
 21
5.77393
  0
LINE
  8
0
 10
70.2165
 20
5.77393
 11
70.2805
 21
5.66579
  0
LINE
  8
0
 10
70.2805
 20
5.66579
 11
70.3375
 21
5.55383
  0
LINE
  8
0
 10
70.3375
 20
5.55383
 11
70.3874
 21
5.43852
  0
LINE
  8
0
 10
70.3874
 20
5.43852
 11
70.43
 21
5.32031
  0
LINE
  8
0
 10
70.43
 20
5.32031
 11
70.465
 21
5.19966
  0
LINE
  8
0
 10
70.465
 20
5.19966
 11
70.4924
 21
5.07704
  0
LINE
  8
0
 10
70.4924
 20
5.07704
 11
70.5121
 21
4.95294
  0
LINE
  8
0
 10
70.5121
 20
4.95294
 11
70.5239
 21
4.82785
  0
LINE
  8
0
 10
70.5239
 20
4.82785
 11
70.5279
 21
4.70227
  0
LINE
  8
0
 10
70.5279
 20
4.70227
 11
70.5239
 21
4.57669
  0
LINE
  8
0
 10
70.5239
 20
4.57669
 11
70.5121
 21
4.45161
  0
LINE
  8
0
 10
70.5121
 20
4.45161
 11
70.4924
 21
4.32751
  0
LINE
  8
0
 10
70.4924
 20
4.32751
 11
70.465
 21
4.2049
  0
LINE
  8
0
 10
70.465
 20
4.2049
 11
70.43
 21
4.08424
  0
LINE
  8
0
 10
70.43
 20
4.08424
 11
70.3874
 21
3.96602
  0
LINE
  8
0
 10
70.3874
 20
3.96602
 11
70.3375
 21
3.85072
  0
LINE
  8
0
 10
70.3375
 20
3.85072
 11
70.2805
 21
3.73877
  0
LINE
  8
0
 10
70.2805
 20
3.73877
 11
70.2165
 21
3.63062
  0
LINE
  8
0
 10
70.2165
 20
3.63062
 11
70.1459
 21
3.5267
  0
LINE
  8
0
 10
70.1459
 20
3.5267
 11
70.0689
 21
3.42743
  0
LINE
  8
0
 10
70.0689
 20
3.42743
 11
69.9858
 21
3.33318
  0
LINE
  8
0
 10
69.9858
 20
3.33318
 11
69.897
 21
3.24434
  0
LINE
  8
0
 10
69.897
 20
3.24434
 11
69.8027
 21
3.16125
  0
LINE
  8
0
 10
69.8027
 20
3.16125
 11
69.7034
 21
3.08424
  0
LINE
  8
0
 10
69.7034
 20
3.08424
 11
69.5995
 21
3.01363
  0
LINE
  8
0
 10
69.5995
 20
3.01363
 11
69.4914
 21
2.94966
  0
LINE
  8
0
 10
69.4914
 20
2.94966
 11
69.3794
 21
2.89262
  0
LINE
  8
0
 10
69.3794
 20
2.89262
 11
69.2641
 21
2.84273
  0
LINE
  8
0
 10
69.2641
 20
2.84273
 11
69.1459
 21
2.80016
  0
LINE
  8
0
 10
69.1459
 20
2.80016
 11
69.0252
 21
2.76511
  0
LINE
  8
0
 10
69.0252
 20
2.76511
 11
68.9026
 21
2.7377
  0
LINE
  8
0
 10
68.9026
 20
2.7377
 11
68.7785
 21
2.71805
  0
LINE
  8
0
 10
68.7785
 20
2.71805
 11
68.6534
 21
2.70622
  0
LINE
  8
0
 10
68.6534
 20
2.70622
 11
68.5279
 21
2.70227
  0
LINE
  8
0
 10
68.5279
 20
2.70227
 11
68.4023
 21
2.70622
  0
ENDSEC
  0
SECTION
  2
OBJECTS
  0
DICTIONARY
  0
ENDSEC
  0
EOF
