  0
SECTION
  2
BLOCKS
  0
ENDSEC
  0
SECTION
  2
ENTITIES
  0
LINE
  8
0
 10
0
 20
230.826
 11
-75
 21
0
  0
LINE
  8
0
 10
-75
 20
0
 11
75
 21
0
  0
LINE
  8
0
 10
75
 20
0
 11
0
 21
230.826
  0
LINE
  8
0
 10
-0.12558
 20
212.83
 11
-0.250656
 21
212.842
  0
LINE
  8
0
 10
-0.250656
 20
212.842
 11
-0.374756
 21
212.862
  0
LINE
  8
0
 10
-0.374756
 20
212.862
 11
-0.497375
 21
212.889
  0
LINE
  8
0
 10
-0.497375
 20
212.889
 11
-0.618027
 21
212.924
  0
LINE
  8
0
 10
-0.618027
 20
212.924
 11
-0.736237
 21
212.967
  0
LINE
  8
0
 10
-0.736237
 20
212.967
 11
-0.851547
 21
213.017
  0
LINE
  8
0
 10
-0.851547
 20
213.017
 11
-0.963501
 21
213.074
  0
LINE
  8
0
 10
-0.963501
 20
213.074
 11
-1.07164
 21
213.138
  0
LINE
  8
0
 10
-1.07164
 20
213.138
 11
-1.17557
 21
213.208
  0
LINE
  8
0
 10
-1.17557
 20
213.208
 11
-1.27484
 21
213.285
  0
LINE
  8
0
 10
-1.27484
 20
213.285
 11
-1.36908
 21
213.368
  0
LINE
  8
0
 10
-1.36908
 20
213.368
 11
-1.45793
 21
213.457
  0
LINE
  8
0
 10
-1.45793
 20
213.457
 11
-1.54102
 21
213.551
  0
LINE
  8
0
 10
-1.54102
 20
213.551
 11
-1.61803
 21
213.651
  0
LINE
  8
0
 10
-1.61803
 20
213.651
 11
-1.68864
 21
213.755
  0
LINE
  8
0
 10
-1.68864
 20
213.755
 11
-1.75261
 21
213.863
  0
LINE
  8
0
 10
-1.75261
 20
213.863
 11
-1.80965
 21
213.975
  0
LINE
  8
0
 10
-1.80965
 20
213.975
 11
-1.85954
 21
214.09
  0
LINE
  8
0
 10
-1.85954
 20
214.09
 11
-1.9021
 21
214.208
  0
LINE
  8
0
 10
-1.9021
 20
214.208
 11
-1.93716
 21
214.329
  0
LINE
  8
0
 10
-1.93716
 20
214.329
 11
-1.96457
 21
214.451
  0
LINE
  8
0
 10
-1.96457
 20
214.451
 11
-1.98422
 21
214.576
  0
LINE
  8
0
 10
-1.98422
 20
214.576
 11
-1.99605
 21
214.701
  0
LINE
  8
0
 10
-1.99605
 20
214.701
 11
-2
 21
214.826
  0
LINE
  8
0
 10
-2
 20
214.826
 11
-1.99605
 21
214.952
  0
LINE
  8
0
 10
-1.99605
 20
214.952
 11
-1.98422
 21
215.077
  0
LINE
  8
0
 10
-1.98422
 20
215.077
 11
-1.96457
 21
215.201
  0
LINE
  8
0
 10
-1.96457
 20
215.201
 11
-1.93716
 21
215.324
  0
LINE
  8
0
 10
-1.93716
 20
215.324
 11
-1.9021
 21
215.444
  0
LINE
  8
0
 10
-1.9021
 20
215.444
 11
-1.85954
 21
215.562
  0
LINE
  8
0
 10
-1.85954
 20
215.562
 11
-1.80965
 21
215.678
  0
LINE
  8
0
 10
-1.80965
 20
215.678
 11
-1.75261
 21
215.79
  0
LINE
  8
0
 10
-1.75261
 20
215.79
 11
-1.68864
 21
215.898
  0
LINE
  8
0
 10
-1.68864
 20
215.898
 11
-1.61803
 21
216.002
  0
LINE
  8
0
 10
-1.61803
 20
216.002
 11
-1.54102
 21
216.101
  0
LINE
  8
0
 10
-1.54102
 20
216.101
 11
-1.45793
 21
216.195
  0
LINE
  8
0
 10
-1.45793
 20
216.195
 11
-1.36908
 21
216.284
  0
LINE
  8
0
 10
-1.36908
 20
216.284
 11
-1.27484
 21
216.367
  0
LINE
  8
0
 10
-1.27484
 20
216.367
 11
-1.17557
 21
216.444
  0
LINE
  8
0
 10
-1.17557
 20
216.444
 11
-1.07164
 21
216.515
  0
LINE
  8
0
 10
-1.07164
 20
216.515
 11
-0.963501
 21
216.579
  0
LINE
  8
0
 10
-0.963501
 20
216.579
 11
-0.851547
 21
216.636
  0
LINE
  8
0
 10
-0.851547
 20
216.636
 11
-0.736237
 21
216.686
  0
LINE
  8
0
 10
-0.736237
 20
216.686
 11
-0.618027
 21
216.728
  0
LINE
  8
0
 10
-0.618027
 20
216.728
 11
-0.497375
 21
216.763
  0
LINE
  8
0
 10
-0.497375
 20
216.763
 11
-0.374756
 21
216.791
  0
LINE
  8
0
 10
-0.374756
 20
216.791
 11
-0.250656
 21
216.81
  0
LINE
  8
0
 10
-0.250656
 20
216.81
 11
-0.12558
 21
216.822
  0
LINE
  8
0
 10
-0.12558
 20
216.822
 11
0
 21
216.826
  0
LINE
  8
0
 10
0
 20
216.826
 11
0.12558
 21
216.822
  0
LINE
  8
0
 10
0.12558
 20
216.822
 11
0.250656
 21
216.81
  0
LINE
  8
0
 10
0.250656
 20
216.81
 11
0.374756
 21
216.791
  0
LINE
  8
0
 10
0.374756
 20
216.791
 11
0.497375
 21
216.763
  0
LINE
  8
0
 10
0.497375
 20
216.763
 11
0.618027
 21
216.728
  0
LINE
  8
0
 10
0.618027
 20
216.728
 11
0.736237
 21
216.686
  0
LINE
  8
0
 10
0.736237
 20
216.686
 11
0.851547
 21
216.636
  0
LINE
  8
0
 10
0.851547
 20
216.636
 11
0.963501
 21
216.579
  0
LINE
  8
0
 10
0.963501
 20
216.579
 11
1.07164
 21
216.515
  0
LINE
  8
0
 10
1.07164
 20
216.515
 11
1.17557
 21
216.444
  0
LINE
  8
0
 10
1.17557
 20
216.444
 11
1.27484
 21
216.367
  0
LINE
  8
0
 10
1.27484
 20
216.367
 11
1.36908
 21
216.284
  0
LINE
  8
0
 10
1.36908
 20
216.284
 11
1.45793
 21
216.195
  0
LINE
  8
0
 10
1.45793
 20
216.195
 11
1.54102
 21
216.101
  0
LINE
  8
0
 10
1.54102
 20
216.101
 11
1.61803
 21
216.002
  0
LINE
  8
0
 10
1.61803
 20
216.002
 11
1.68864
 21
215.898
  0
LINE
  8
0
 10
1.68864
 20
215.898
 11
1.75261
 21
215.79
  0
LINE
  8
0
 10
1.75261
 20
215.79
 11
1.80965
 21
215.678
  0
LINE
  8
0
 10
1.80965
 20
215.678
 11
1.85954
 21
215.562
  0
LINE
  8
0
 10
1.85954
 20
215.562
 11
1.9021
 21
215.444
  0
LINE
  8
0
 10
1.9021
 20
215.444
 11
1.93716
 21
215.324
  0
LINE
  8
0
 10
1.93716
 20
215.324
 11
1.96457
 21
215.201
  0
LINE
  8
0
 10
1.96457
 20
215.201
 11
1.98422
 21
215.077
  0
LINE
  8
0
 10
1.98422
 20
215.077
 11
1.99605
 21
214.952
  0
LINE
  8
0
 10
1.99605
 20
214.952
 11
2
 21
214.826
  0
LINE
  8
0
 10
2
 20
214.826
 11
1.99605
 21
214.701
  0
LINE
  8
0
 10
1.99605
 20
214.701
 11
1.98422
 21
214.576
  0
LINE
  8
0
 10
1.98422
 20
214.576
 11
1.96457
 21
214.451
  0
LINE
  8
0
 10
1.96457
 20
214.451
 11
1.93716
 21
214.329
  0
LINE
  8
0
 10
1.93716
 20
214.329
 11
1.9021
 21
214.208
  0
LINE
  8
0
 10
1.9021
 20
214.208
 11
1.85954
 21
214.09
  0
LINE
  8
0
 10
1.85954
 20
214.09
 11
1.80965
 21
213.975
  0
LINE
  8
0
 10
1.80965
 20
213.975
 11
1.75261
 21
213.863
  0
LINE
  8
0
 10
1.75261
 20
213.863
 11
1.68864
 21
213.755
  0
LINE
  8
0
 10
1.68864
 20
213.755
 11
1.61803
 21
213.651
  0
LINE
  8
0
 10
1.61803
 20
213.651
 11
1.54102
 21
213.551
  0
LINE
  8
0
 10
1.54102
 20
213.551
 11
1.45793
 21
213.457
  0
LINE
  8
0
 10
1.45793
 20
213.457
 11
1.36908
 21
213.368
  0
LINE
  8
0
 10
1.36908
 20
213.368
 11
1.27484
 21
213.285
  0
LINE
  8
0
 10
1.27484
 20
213.285
 11
1.17557
 21
213.208
  0
LINE
  8
0
 10
1.17557
 20
213.208
 11
1.07164
 21
213.138
  0
LINE
  8
0
 10
1.07164
 20
213.138
 11
0.963501
 21
213.074
  0
LINE
  8
0
 10
0.963501
 20
213.074
 11
0.851547
 21
213.017
  0
LINE
  8
0
 10
0.851547
 20
213.017
 11
0.736237
 21
212.967
  0
LINE
  8
0
 10
0.736237
 20
212.967
 11
0.618027
 21
212.924
  0
LINE
  8
0
 10
0.618027
 20
212.924
 11
0.497375
 21
212.889
  0
LINE
  8
0
 10
0.497375
 20
212.889
 11
0.374756
 21
212.862
  0
LINE
  8
0
 10
0.374756
 20
212.862
 11
0.250656
 21
212.842
  0
LINE
  8
0
 10
0.250656
 20
212.842
 11
0.12558
 21
212.83
  0
LINE
  8
0
 10
0.12558
 20
212.83
 11
0
 21
212.826
  0
LINE
  8
0
 10
0
 20
212.826
 11
-0.12558
 21
212.83
  0
LINE
  8
0
 10
-1.16959
 20
184.121
 11
-2.29294
 21
184.462
  0
LINE
  8
0
 10
-2.29294
 20
184.462
 11
-2.42418
 21
184.533
  0
LINE
  8
0
 10
-2.42418
 20
184.533
 11
0
 21
191.993
  0
LINE
  8
0
 10
0
 20
191.993
 11
2.42419
 21
184.533
  0
LINE
  8
0
 10
2.42419
 20
184.533
 11
2.29294
 21
184.462
  0
LINE
  8
0
 10
2.29294
 20
184.462
 11
1.16959
 21
184.122
  0
LINE
  8
0
 10
1.16959
 20
184.122
 11
0
 21
184.007
  0
LINE
  8
0
 10
0
 20
184.007
 11
-1.16959
 21
184.121
  0
LINE
  8
0
 10
0.00640869
 20
172.003
 11
0.00640869
 21
172.01
  0
LINE
  8
0
 10
0.00640869
 20
172.01
 11
0
 21
172.007
  0
LINE
  8
0
 10
0
 20
172.007
 11
-0.00640869
 21
172.01
  0
LINE
  8
0
 10
-0.00640869
 20
172.01
 11
-0.00640869
 21
172.003
  0
LINE
  8
0
 10
-0.00640869
 20
172.003
 11
-5.98618
 21
169.013
  0
LINE
  8
0
 10
-5.98618
 20
169.013
 11
-2.99606
 21
174.994
  0
LINE
  8
0
 10
-2.99606
 20
174.994
 11
-2.98965
 21
174.994
  0
LINE
  8
0
 10
-2.98965
 20
174.994
 11
-2.99286
 21
175
  0
LINE
  8
0
 10
-2.99286
 20
175
 11
-2.98965
 21
175.006
  0
LINE
  8
0
 10
-2.98965
 20
175.006
 11
-2.99606
 21
175.006
  0
LINE
  8
0
 10
-2.99606
 20
175.006
 11
-4.52553
 21
178.065
  0
LINE
  8
0
 10
-4.52553
 20
178.065
 11
-3.91315
 21
179.95
  0
LINE
  8
0
 10
-3.91315
 20
179.95
 11
-0.00640869
 21
177.997
  0
LINE
  8
0
 10
-0.00640869
 20
177.997
 11
-0.00640869
 21
177.99
  0
LINE
  8
0
 10
-0.00640869
 20
177.99
 11
0
 21
177.993
  0
LINE
  8
0
 10
0
 20
177.993
 11
0.00640869
 21
177.99
  0
LINE
  8
0
 10
0.00640869
 20
177.99
 11
0.00640869
 21
177.997
  0
LINE
  8
0
 10
0.00640869
 20
177.997
 11
3.91315
 21
179.95
  0
LINE
  8
0
 10
3.91315
 20
179.95
 11
4.52553
 21
178.065
  0
LINE
  8
0
 10
4.52553
 20
178.065
 11
2.99606
 21
175.006
  0
LINE
  8
0
 10
2.99606
 20
175.006
 11
2.98965
 21
175.006
  0
LINE
  8
0
 10
2.98965
 20
175.006
 11
2.99286
 21
175
  0
LINE
  8
0
 10
2.99286
 20
175
 11
2.98965
 21
174.994
  0
LINE
  8
0
 10
2.98965
 20
174.994
 11
2.99606
 21
174.994
  0
LINE
  8
0
 10
2.99606
 20
174.994
 11
5.98618
 21
169.013
  0
LINE
  8
0
 10
5.98618
 20
169.013
 11
0.00640869
 21
172.003
  0
LINE
  8
0
 10
-1.16959
 20
154.121
 11
-2.29294
 21
154.462
  0
LINE
  8
0
 10
-2.29294
 20
154.462
 11
-3.33023
 21
155.017
  0
LINE
  8
0
 10
-3.33023
 20
155.017
 11
-4.23798
 21
155.762
  0
LINE
  8
0
 10
-4.23798
 20
155.762
 11
-4.98413
 21
156.671
  0
LINE
  8
0
 10
-4.98413
 20
156.671
 11
-5.53757
 21
157.707
  0
LINE
  8
0
 10
-5.53757
 20
157.707
 11
-5.87814
 21
158.83
  0
LINE
  8
0
 10
-5.87814
 20
158.83
 11
-5.9935
 21
160
  0
LINE
  8
0
 10
-5.9935
 20
160
 11
-5.87906
 21
161.17
  0
LINE
  8
0
 10
-5.87906
 20
161.17
 11
-5.53757
 21
162.293
  0
LINE
  8
0
 10
-5.53757
 20
162.293
 11
-4.98367
 21
163.33
  0
LINE
  8
0
 10
-4.98367
 20
163.33
 11
-4.23798
 21
164.238
  0
LINE
  8
0
 10
-4.23798
 20
164.238
 11
-3.32977
 21
164.984
  0
LINE
  8
0
 10
-3.32977
 20
164.984
 11
-2.29294
 21
165.538
  0
LINE
  8
0
 10
-2.29294
 20
165.538
 11
-1.16959
 21
165.878
  0
LINE
  8
0
 10
-1.16959
 20
165.878
 11
0
 21
165.993
  0
LINE
  8
0
 10
0
 20
165.993
 11
1.16959
 21
165.879
  0
LINE
  8
0
 10
1.16959
 20
165.879
 11
2.29294
 21
165.538
  0
LINE
  8
0
 10
2.29294
 20
165.538
 11
3.33023
 21
164.983
  0
LINE
  8
0
 10
3.33023
 20
164.983
 11
4.23798
 21
164.238
  0
LINE
  8
0
 10
4.23798
 20
164.238
 11
4.98413
 21
163.329
  0
LINE
  8
0
 10
4.98413
 20
163.329
 11
5.53757
 21
162.293
  0
LINE
  8
0
 10
5.53757
 20
162.293
 11
5.87814
 21
161.17
  0
LINE
  8
0
 10
5.87814
 20
161.17
 11
5.9935
 21
160
  0
LINE
  8
0
 10
5.9935
 20
160
 11
5.87906
 21
158.83
  0
LINE
  8
0
 10
5.87906
 20
158.83
 11
5.53757
 21
157.707
  0
LINE
  8
0
 10
5.53757
 20
157.707
 11
4.98322
 21
156.67
  0
LINE
  8
0
 10
4.98322
 20
156.67
 11
4.23798
 21
155.762
  0
LINE
  8
0
 10
4.23798
 20
155.762
 11
3.32977
 21
155.016
  0
LINE
  8
0
 10
3.32977
 20
155.016
 11
2.29294
 21
154.462
  0
LINE
  8
0
 10
2.29294
 20
154.462
 11
1.16959
 21
154.122
  0
LINE
  8
0
 10
1.16959
 20
154.122
 11
0
 21
154.007
  0
LINE
  8
0
 10
0
 20
154.007
 11
-1.16959
 21
154.121
  0
LINE
  8
0
 10
-11.8754
 20
155.445
 11
-11.03
 21
158.047
  0
LINE
  8
0
 10
-11.03
 20
158.047
 11
-9.01337
 21
154.014
  0
LINE
  8
0
 10
-9.01337
 20
154.014
 11
-11.8754
 21
155.445
  0
LINE
  8
0
 10
11.03
 20
158.047
 11
11.8754
 21
155.445
  0
LINE
  8
0
 10
11.8754
 20
155.445
 11
9.01337
 21
154.014
  0
LINE
  8
0
 10
9.01337
 20
154.014
 11
11.03
 21
158.047
  0
LINE
  8
0
 10
0.00640869
 20
142.003
 11
0.00640869
 21
142.01
  0
LINE
  8
0
 10
0.00640869
 20
142.01
 11
0
 21
142.007
  0
LINE
  8
0
 10
0
 20
142.007
 11
-0.00640869
 21
142.01
  0
LINE
  8
0
 10
-0.00640869
 20
142.01
 11
-0.00640869
 21
142.003
  0
LINE
  8
0
 10
-0.00640869
 20
142.003
 11
-5.98618
 21
139.013
  0
LINE
  8
0
 10
-5.98618
 20
139.013
 11
-2.99606
 21
144.994
  0
LINE
  8
0
 10
-2.99606
 20
144.994
 11
-2.98965
 21
144.994
  0
LINE
  8
0
 10
-2.98965
 20
144.994
 11
-2.99286
 21
145
  0
LINE
  8
0
 10
-2.99286
 20
145
 11
-2.98965
 21
145.006
  0
LINE
  8
0
 10
-2.98965
 20
145.006
 11
-2.99606
 21
145.006
  0
LINE
  8
0
 10
-2.99606
 20
145.006
 11
-5.98618
 21
150.987
  0
LINE
  8
0
 10
-5.98618
 20
150.987
 11
-0.00640869
 21
147.997
  0
LINE
  8
0
 10
-0.00640869
 20
147.997
 11
-0.00640869
 21
147.99
  0
LINE
  8
0
 10
-0.00640869
 20
147.99
 11
0
 21
147.993
  0
LINE
  8
0
 10
0
 20
147.993
 11
0.00640869
 21
147.99
  0
LINE
  8
0
 10
0.00640869
 20
147.99
 11
0.00640869
 21
147.997
  0
LINE
  8
0
 10
0.00640869
 20
147.997
 11
5.98618
 21
150.987
  0
LINE
  8
0
 10
5.98618
 20
150.987
 11
2.99606
 21
145.006
  0
LINE
  8
0
 10
2.99606
 20
145.006
 11
2.98965
 21
145.006
  0
LINE
  8
0
 10
2.98965
 20
145.006
 11
2.99286
 21
145
  0
LINE
  8
0
 10
2.99286
 20
145
 11
2.98965
 21
144.994
  0
LINE
  8
0
 10
2.98965
 20
144.994
 11
2.99606
 21
144.994
  0
LINE
  8
0
 10
2.99606
 20
144.994
 11
5.98618
 21
139.013
  0
LINE
  8
0
 10
5.98618
 20
139.013
 11
0.00640869
 21
142.003
  0
LINE
  8
0
 10
-16.6724
 20
140.681
 11
-13.7338
 21
149.725
  0
LINE
  8
0
 10
-13.7338
 20
149.725
 11
-9.00879
 21
145
  0
LINE
  8
0
 10
-9.00879
 20
145
 11
-15
 21
139.009
  0
LINE
  8
0
 10
-15
 20
139.009
 11
-16.6724
 21
140.681
  0
LINE
  8
0
 10
9.00879
 20
145
 11
13.7338
 21
149.725
  0
LINE
  8
0
 10
13.7338
 20
149.725
 11
16.6724
 21
140.681
  0
LINE
  8
0
 10
16.6724
 20
140.681
 11
15
 21
139.009
  0
LINE
  8
0
 10
15
 20
139.009
 11
9.00879
 21
145
  0
LINE
  8
0
 10
-1.16959
 20
124.121
 11
-2.29294
 21
124.462
  0
LINE
  8
0
 10
-2.29294
 20
124.462
 11
-3.33023
 21
125.017
  0
LINE
  8
0
 10
-3.33023
 20
125.017
 11
-4.23798
 21
125.762
  0
LINE
  8
0
 10
-4.23798
 20
125.762
 11
-4.98413
 21
126.671
  0
LINE
  8
0
 10
-4.98413
 20
126.671
 11
-5.53757
 21
127.707
  0
LINE
  8
0
 10
-5.53757
 20
127.707
 11
-5.87814
 21
128.83
  0
LINE
  8
0
 10
-5.87814
 20
128.83
 11
-5.9935
 21
130
  0
LINE
  8
0
 10
-5.9935
 20
130
 11
-5.87906
 21
131.17
  0
LINE
  8
0
 10
-5.87906
 20
131.17
 11
-5.53757
 21
132.293
  0
LINE
  8
0
 10
-5.53757
 20
132.293
 11
-4.98367
 21
133.33
  0
LINE
  8
0
 10
-4.98367
 20
133.33
 11
-4.23798
 21
134.238
  0
LINE
  8
0
 10
-4.23798
 20
134.238
 11
-3.32977
 21
134.984
  0
LINE
  8
0
 10
-3.32977
 20
134.984
 11
-2.29294
 21
135.538
  0
LINE
  8
0
 10
-2.29294
 20
135.538
 11
-1.16959
 21
135.878
  0
LINE
  8
0
 10
-1.16959
 20
135.878
 11
0
 21
135.993
  0
LINE
  8
0
 10
0
 20
135.993
 11
1.16959
 21
135.879
  0
LINE
  8
0
 10
1.16959
 20
135.879
 11
2.29294
 21
135.538
  0
LINE
  8
0
 10
2.29294
 20
135.538
 11
3.33023
 21
134.983
  0
LINE
  8
0
 10
3.33023
 20
134.983
 11
4.23798
 21
134.238
  0
LINE
  8
0
 10
4.23798
 20
134.238
 11
4.98413
 21
133.329
  0
LINE
  8
0
 10
4.98413
 20
133.329
 11
5.53757
 21
132.293
  0
LINE
  8
0
 10
5.53757
 20
132.293
 11
5.87814
 21
131.17
  0
LINE
  8
0
 10
5.87814
 20
131.17
 11
5.9935
 21
130
  0
LINE
  8
0
 10
5.9935
 20
130
 11
5.87906
 21
128.83
  0
LINE
  8
0
 10
5.87906
 20
128.83
 11
5.53757
 21
127.707
  0
LINE
  8
0
 10
5.53757
 20
127.707
 11
4.98322
 21
126.67
  0
LINE
  8
0
 10
4.98322
 20
126.67
 11
4.23798
 21
125.762
  0
LINE
  8
0
 10
4.23798
 20
125.762
 11
3.32977
 21
125.016
  0
LINE
  8
0
 10
3.32977
 20
125.016
 11
2.29294
 21
124.462
  0
LINE
  8
0
 10
2.29294
 20
124.462
 11
1.16959
 21
124.122
  0
LINE
  8
0
 10
1.16959
 20
124.122
 11
0
 21
124.007
  0
LINE
  8
0
 10
0
 20
124.007
 11
-1.16959
 21
124.121
  0
LINE
  8
0
 10
-14.9936
 20
127.004
 11
-14.9936
 21
127.01
  0
LINE
  8
0
 10
-14.9936
 20
127.01
 11
-15
 21
127.007
  0
LINE
  8
0
 10
-15
 20
127.007
 11
-15.0064
 21
127.01
  0
LINE
  8
0
 10
-15.0064
 20
127.01
 11
-15.0064
 21
127.004
  0
LINE
  8
0
 10
-15.0064
 20
127.004
 11
-20.9866
 21
124.014
  0
LINE
  8
0
 10
-20.9866
 20
124.014
 11
-17.9965
 21
129.994
  0
LINE
  8
0
 10
-17.9965
 20
129.994
 11
-17.9901
 21
129.994
  0
LINE
  8
0
 10
-17.9901
 20
129.994
 11
-17.9933
 21
130
  0
LINE
  8
0
 10
-17.9933
 20
130
 11
-17.9901
 21
130.006
  0
LINE
  8
0
 10
-17.9901
 20
130.006
 11
-17.9965
 21
130.006
  0
LINE
  8
0
 10
-17.9965
 20
130.006
 11
-19.2962
 21
132.606
  0
LINE
  8
0
 10
-19.2962
 20
132.606
 11
-18.5876
 21
134.787
  0
LINE
  8
0
 10
-18.5876
 20
134.787
 11
-15.0064
 21
132.996
  0
LINE
  8
0
 10
-15.0064
 20
132.996
 11
-15.0064
 21
132.99
  0
LINE
  8
0
 10
-15.0064
 20
132.99
 11
-15
 21
132.993
  0
LINE
  8
0
 10
-15
 20
132.993
 11
-14.9936
 21
132.99
  0
LINE
  8
0
 10
-14.9936
 20
132.99
 11
-14.9936
 21
132.996
  0
LINE
  8
0
 10
-14.9936
 20
132.996
 11
-9.01337
 21
135.986
  0
LINE
  8
0
 10
-9.01337
 20
135.986
 11
-12.0035
 21
130.006
  0
LINE
  8
0
 10
-12.0035
 20
130.006
 11
-12.0099
 21
130.006
  0
LINE
  8
0
 10
-12.0099
 20
130.006
 11
-12.0067
 21
130
  0
LINE
  8
0
 10
-12.0067
 20
130
 11
-12.0099
 21
129.994
  0
LINE
  8
0
 10
-12.0099
 20
129.994
 11
-12.0035
 21
129.994
  0
LINE
  8
0
 10
-12.0035
 20
129.994
 11
-9.01337
 21
124.014
  0
LINE
  8
0
 10
-9.01337
 20
124.014
 11
-14.9936
 21
127.004
  0
LINE
  8
0
 10
15.0064
 20
127.004
 11
15.0064
 21
127.01
  0
LINE
  8
0
 10
15.0064
 20
127.01
 11
15
 21
127.007
  0
LINE
  8
0
 10
15
 20
127.007
 11
14.9936
 21
127.01
  0
LINE
  8
0
 10
14.9936
 20
127.01
 11
14.9936
 21
127.004
  0
LINE
  8
0
 10
14.9936
 20
127.004
 11
9.01337
 21
124.014
  0
LINE
  8
0
 10
9.01337
 20
124.014
 11
12.0035
 21
129.994
  0
LINE
  8
0
 10
12.0035
 20
129.994
 11
12.0099
 21
129.994
  0
LINE
  8
0
 10
12.0099
 20
129.994
 11
12.0067
 21
130
  0
LINE
  8
0
 10
12.0067
 20
130
 11
12.0099
 21
130.006
  0
LINE
  8
0
 10
12.0099
 20
130.006
 11
12.0035
 21
130.006
  0
LINE
  8
0
 10
12.0035
 20
130.006
 11
9.01337
 21
135.986
  0
LINE
  8
0
 10
9.01337
 20
135.986
 11
14.9936
 21
132.996
  0
LINE
  8
0
 10
14.9936
 20
132.996
 11
14.9936
 21
132.99
  0
LINE
  8
0
 10
14.9936
 20
132.99
 11
15
 21
132.993
  0
LINE
  8
0
 10
15
 20
132.993
 11
15.0064
 21
132.99
  0
LINE
  8
0
 10
15.0064
 20
132.99
 11
15.0064
 21
132.996
  0
LINE
  8
0
 10
15.0064
 20
132.996
 11
18.5876
 21
134.787
  0
LINE
  8
0
 10
18.5876
 20
134.787
 11
19.2962
 21
132.606
  0
LINE
  8
0
 10
19.2962
 20
132.606
 11
17.9965
 21
130.006
  0
LINE
  8
0
 10
17.9965
 20
130.006
 11
17.9901
 21
130.006
  0
LINE
  8
0
 10
17.9901
 20
130.006
 11
17.9933
 21
130
  0
LINE
  8
0
 10
17.9933
 20
130
 11
17.9901
 21
129.994
  0
LINE
  8
0
 10
17.9901
 20
129.994
 11
17.9965
 21
129.994
  0
LINE
  8
0
 10
17.9965
 20
129.994
 11
20.9866
 21
124.014
  0
LINE
  8
0
 10
20.9866
 20
124.014
 11
15.0064
 21
127.004
  0
LINE
  8
0
 10
9.00879
 20
115
 11
15
 21
120.991
  0
LINE
  8
0
 10
15
 20
120.991
 11
20.9912
 21
115
  0
LINE
  8
0
 10
20.9912
 20
115
 11
15
 21
109.009
  0
LINE
  8
0
 10
15
 20
109.009
 11
9.00879
 21
115
  0
LINE
  8
0
 10
-20.9912
 20
115
 11
-15
 21
120.991
  0
LINE
  8
0
 10
-15
 20
120.991
 11
-9.00879
 21
115
  0
LINE
  8
0
 10
-9.00879
 20
115
 11
-15
 21
109.009
  0
LINE
  8
0
 10
-15
 20
109.009
 11
-20.9912
 21
115
  0
LINE
  8
0
 10
0.00640869
 20
112.003
 11
0.00640869
 21
112.01
  0
LINE
  8
0
 10
0.00640869
 20
112.01
 11
0
 21
112.007
  0
LINE
  8
0
 10
0
 20
112.007
 11
-0.00640869
 21
112.01
  0
LINE
  8
0
 10
-0.00640869
 20
112.01
 11
-0.00640869
 21
112.003
  0
LINE
  8
0
 10
-0.00640869
 20
112.003
 11
-5.98618
 21
109.013
  0
LINE
  8
0
 10
-5.98618
 20
109.013
 11
-2.99606
 21
114.994
  0
LINE
  8
0
 10
-2.99606
 20
114.994
 11
-2.98965
 21
114.994
  0
LINE
  8
0
 10
-2.98965
 20
114.994
 11
-2.99286
 21
115
  0
LINE
  8
0
 10
-2.99286
 20
115
 11
-2.98965
 21
115.006
  0
LINE
  8
0
 10
-2.98965
 20
115.006
 11
-2.99606
 21
115.006
  0
LINE
  8
0
 10
-2.99606
 20
115.006
 11
-5.98618
 21
120.987
  0
LINE
  8
0
 10
-5.98618
 20
120.987
 11
-0.00640869
 21
117.997
  0
LINE
  8
0
 10
-0.00640869
 20
117.997
 11
-0.00640869
 21
117.99
  0
LINE
  8
0
 10
-0.00640869
 20
117.99
 11
0
 21
117.993
  0
LINE
  8
0
 10
0
 20
117.993
 11
0.00640869
 21
117.99
  0
LINE
  8
0
 10
0.00640869
 20
117.99
 11
0.00640869
 21
117.997
  0
LINE
  8
0
 10
0.00640869
 20
117.997
 11
5.98618
 21
120.987
  0
LINE
  8
0
 10
5.98618
 20
120.987
 11
2.99606
 21
115.006
  0
LINE
  8
0
 10
2.99606
 20
115.006
 11
2.98965
 21
115.006
  0
LINE
  8
0
 10
2.98965
 20
115.006
 11
2.99286
 21
115
  0
LINE
  8
0
 10
2.99286
 20
115
 11
2.98965
 21
114.994
  0
LINE
  8
0
 10
2.98965
 20
114.994
 11
2.99606
 21
114.994
  0
LINE
  8
0
 10
2.99606
 20
114.994
 11
5.98618
 21
109.013
  0
LINE
  8
0
 10
5.98618
 20
109.013
 11
0.00640869
 21
112.003
  0
LINE
  8
0
 10
-26.5498
 20
110.281
 11
-25.8007
 21
112.587
  0
LINE
  8
0
 10
-25.8007
 20
112.587
 11
-24.0138
 21
109.013
  0
LINE
  8
0
 10
-24.0138
 20
109.013
 11
-26.5498
 21
110.281
  0
LINE
  8
0
 10
25.8007
 20
112.587
 11
26.5498
 21
110.281
  0
LINE
  8
0
 10
26.5498
 20
110.281
 11
24.0138
 21
109.013
  0
LINE
  8
0
 10
24.0138
 20
109.013
 11
25.8007
 21
112.587
  0
LINE
  8
0
 10
-1.16959
 20
94.1209
 11
-2.29294
 21
94.4624
  0
LINE
  8
0
 10
-2.29294
 20
94.4624
 11
-3.33023
 21
95.0168
  0
LINE
  8
0
 10
-3.33023
 20
95.0168
 11
-4.23798
 21
95.762
  0
LINE
  8
0
 10
-4.23798
 20
95.762
 11
-4.98413
 21
96.6707
  0
LINE
  8
0
 10
-4.98413
 20
96.6707
 11
-5.53757
 21
97.7071
  0
LINE
  8
0
 10
-5.53757
 20
97.7071
 11
-5.87814
 21
98.8304
  0
LINE
  8
0
 10
-5.87814
 20
98.8304
 11
-5.9935
 21
100
  0
LINE
  8
0
 10
-5.9935
 20
100
 11
-5.87906
 21
101.17
  0
LINE
  8
0
 10
-5.87906
 20
101.17
 11
-5.53757
 21
102.293
  0
LINE
  8
0
 10
-5.53757
 20
102.293
 11
-4.98367
 21
103.33
  0
LINE
  8
0
 10
-4.98367
 20
103.33
 11
-4.23798
 21
104.238
  0
LINE
  8
0
 10
-4.23798
 20
104.238
 11
-3.32977
 21
104.984
  0
LINE
  8
0
 10
-3.32977
 20
104.984
 11
-2.29294
 21
105.538
  0
LINE
  8
0
 10
-2.29294
 20
105.538
 11
-1.16959
 21
105.878
  0
LINE
  8
0
 10
-1.16959
 20
105.878
 11
0
 21
105.993
  0
LINE
  8
0
 10
0
 20
105.993
 11
1.16959
 21
105.879
  0
LINE
  8
0
 10
1.16959
 20
105.879
 11
2.29294
 21
105.538
  0
LINE
  8
0
 10
2.29294
 20
105.538
 11
3.33023
 21
104.983
  0
LINE
  8
0
 10
3.33023
 20
104.983
 11
4.23798
 21
104.238
  0
LINE
  8
0
 10
4.23798
 20
104.238
 11
4.98413
 21
103.329
  0
LINE
  8
0
 10
4.98413
 20
103.329
 11
5.53757
 21
102.293
  0
LINE
  8
0
 10
5.53757
 20
102.293
 11
5.87814
 21
101.17
  0
LINE
  8
0
 10
5.87814
 20
101.17
 11
5.9935
 21
99.9995
  0
LINE
  8
0
 10
5.9935
 20
99.9995
 11
5.87906
 21
98.8304
  0
LINE
  8
0
 10
5.87906
 20
98.8304
 11
5.53757
 21
97.7071
  0
LINE
  8
0
 10
5.53757
 20
97.7071
 11
4.98322
 21
96.6698
  0
LINE
  8
0
 10
4.98322
 20
96.6698
 11
4.23798
 21
95.762
  0
LINE
  8
0
 10
4.23798
 20
95.762
 11
3.32977
 21
95.0163
  0
LINE
  8
0
 10
3.32977
 20
95.0163
 11
2.29294
 21
94.4624
  0
LINE
  8
0
 10
2.29294
 20
94.4624
 11
1.16959
 21
94.1219
  0
LINE
  8
0
 10
1.16959
 20
94.1219
 11
0
 21
94.0065
  0
LINE
  8
0
 10
0
 20
94.0065
 11
-1.16959
 21
94.1209
  0
LINE
  8
0
 10
15.0064
 20
97.0039
 11
15.0064
 21
97.0103
  0
LINE
  8
0
 10
15.0064
 20
97.0103
 11
15
 21
97.0071
  0
LINE
  8
0
 10
15
 20
97.0071
 11
14.9936
 21
97.0103
  0
LINE
  8
0
 10
14.9936
 20
97.0103
 11
14.9936
 21
97.0039
  0
LINE
  8
0
 10
14.9936
 20
97.0039
 11
9.01337
 21
94.0138
  0
LINE
  8
0
 10
9.01337
 20
94.0138
 11
12.0035
 21
99.9936
  0
LINE
  8
0
 10
12.0035
 20
99.9936
 11
12.0099
 21
99.9936
  0
LINE
  8
0
 10
12.0099
 20
99.9936
 11
12.0067
 21
100
  0
LINE
  8
0
 10
12.0067
 20
100
 11
12.0099
 21
100.006
  0
LINE
  8
0
 10
12.0099
 20
100.006
 11
12.0035
 21
100.006
  0
LINE
  8
0
 10
12.0035
 20
100.006
 11
9.01337
 21
105.986
  0
LINE
  8
0
 10
9.01337
 20
105.986
 11
14.9936
 21
102.996
  0
LINE
  8
0
 10
14.9936
 20
102.996
 11
14.9936
 21
102.99
  0
LINE
  8
0
 10
14.9936
 20
102.99
 11
15
 21
102.993
  0
LINE
  8
0
 10
15
 20
102.993
 11
15.0064
 21
102.99
  0
LINE
  8
0
 10
15.0064
 20
102.99
 11
15.0064
 21
102.996
  0
LINE
  8
0
 10
15.0064
 20
102.996
 11
20.9866
 21
105.986
  0
LINE
  8
0
 10
20.9866
 20
105.986
 11
17.9965
 21
100.006
  0
LINE
  8
0
 10
17.9965
 20
100.006
 11
17.9901
 21
100.006
  0
LINE
  8
0
 10
17.9901
 20
100.006
 11
17.9933
 21
100
  0
LINE
  8
0
 10
17.9933
 20
100
 11
17.9901
 21
99.9936
  0
LINE
  8
0
 10
17.9901
 20
99.9936
 11
17.9965
 21
99.9936
  0
LINE
  8
0
 10
17.9965
 20
99.9936
 11
20.9866
 21
94.0138
  0
LINE
  8
0
 10
20.9866
 20
94.0138
 11
15.0064
 21
97.0039
  0
LINE
  8
0
 10
-14.9936
 20
97.0039
 11
-14.9936
 21
97.0103
  0
LINE
  8
0
 10
-14.9936
 20
97.0103
 11
-15
 21
97.0071
  0
LINE
  8
0
 10
-15
 20
97.0071
 11
-15.0064
 21
97.0103
  0
LINE
  8
0
 10
-15.0064
 20
97.0103
 11
-15.0064
 21
97.0039
  0
LINE
  8
0
 10
-15.0064
 20
97.0039
 11
-20.9866
 21
94.0138
  0
LINE
  8
0
 10
-20.9866
 20
94.0138
 11
-17.9965
 21
99.9936
  0
LINE
  8
0
 10
-17.9965
 20
99.9936
 11
-17.9901
 21
99.9936
  0
LINE
  8
0
 10
-17.9901
 20
99.9936
 11
-17.9933
 21
100
  0
LINE
  8
0
 10
-17.9933
 20
100
 11
-17.9901
 21
100.006
  0
LINE
  8
0
 10
-17.9901
 20
100.006
 11
-17.9965
 21
100.006
  0
LINE
  8
0
 10
-17.9965
 20
100.006
 11
-20.9866
 21
105.986
  0
LINE
  8
0
 10
-20.9866
 20
105.986
 11
-15.0064
 21
102.996
  0
LINE
  8
0
 10
-15.0064
 20
102.996
 11
-15.0064
 21
102.99
  0
LINE
  8
0
 10
-15.0064
 20
102.99
 11
-15
 21
102.993
  0
LINE
  8
0
 10
-15
 20
102.993
 11
-14.9936
 21
102.99
  0
LINE
  8
0
 10
-14.9936
 20
102.99
 11
-14.9936
 21
102.996
  0
LINE
  8
0
 10
-14.9936
 20
102.996
 11
-9.01337
 21
105.986
  0
LINE
  8
0
 10
-9.01337
 20
105.986
 11
-12.0035
 21
100.006
  0
LINE
  8
0
 10
-12.0035
 20
100.006
 11
-12.0099
 21
100.006
  0
LINE
  8
0
 10
-12.0099
 20
100.006
 11
-12.0067
 21
100
  0
LINE
  8
0
 10
-12.0067
 20
100
 11
-12.0099
 21
99.9936
  0
LINE
  8
0
 10
-12.0099
 20
99.9936
 11
-12.0035
 21
99.9936
  0
LINE
  8
0
 10
-12.0035
 20
99.9936
 11
-9.01337
 21
94.0138
  0
LINE
  8
0
 10
-9.01337
 20
94.0138
 11
-14.9936
 21
97.0039
  0
LINE
  8
0
 10
-31.1696
 20
94.1209
 11
-31.744
 21
94.2955
  0
LINE
  8
0
 10
-31.744
 20
94.2955
 11
-28.0567
 21
105.644
  0
LINE
  8
0
 10
-28.0567
 20
105.644
 11
-27.7071
 21
105.538
  0
LINE
  8
0
 10
-27.7071
 20
105.538
 11
-26.6698
 21
104.983
  0
LINE
  8
0
 10
-26.6698
 20
104.983
 11
-25.762
 21
104.238
  0
LINE
  8
0
 10
-25.762
 20
104.238
 11
-25.0159
 21
103.329
  0
LINE
  8
0
 10
-25.0159
 20
103.329
 11
-24.4624
 21
102.293
  0
LINE
  8
0
 10
-24.4624
 20
102.293
 11
-24.1219
 21
101.17
  0
LINE
  8
0
 10
-24.1219
 20
101.17
 11
-24.0065
 21
99.9995
  0
LINE
  8
0
 10
-24.0065
 20
99.9995
 11
-24.1209
 21
98.8304
  0
LINE
  8
0
 10
-24.1209
 20
98.8304
 11
-24.4624
 21
97.7071
  0
LINE
  8
0
 10
-24.4624
 20
97.7071
 11
-25.0168
 21
96.6698
  0
LINE
  8
0
 10
-25.0168
 20
96.6698
 11
-25.762
 21
95.762
  0
LINE
  8
0
 10
-25.762
 20
95.762
 11
-26.6702
 21
95.0163
  0
LINE
  8
0
 10
-26.6702
 20
95.0163
 11
-27.7071
 21
94.4624
  0
LINE
  8
0
 10
-27.7071
 20
94.4624
 11
-28.8304
 21
94.1219
  0
LINE
  8
0
 10
-28.8304
 20
94.1219
 11
-30
 21
94.0065
  0
LINE
  8
0
 10
-30
 20
94.0065
 11
-31.1696
 21
94.1209
  0
LINE
  8
0
 10
28.8304
 20
94.1209
 11
27.7071
 21
94.4624
  0
LINE
  8
0
 10
27.7071
 20
94.4624
 11
26.6698
 21
95.0168
  0
LINE
  8
0
 10
26.6698
 20
95.0168
 11
25.762
 21
95.762
  0
LINE
  8
0
 10
25.762
 20
95.762
 11
25.0159
 21
96.6707
  0
LINE
  8
0
 10
25.0159
 20
96.6707
 11
24.4624
 21
97.7071
  0
LINE
  8
0
 10
24.4624
 20
97.7071
 11
24.1219
 21
98.8304
  0
LINE
  8
0
 10
24.1219
 20
98.8304
 11
24.0065
 21
100
  0
LINE
  8
0
 10
24.0065
 20
100
 11
24.1209
 21
101.17
  0
LINE
  8
0
 10
24.1209
 20
101.17
 11
24.4624
 21
102.293
  0
LINE
  8
0
 10
24.4624
 20
102.293
 11
25.0163
 21
103.33
  0
LINE
  8
0
 10
25.0163
 20
103.33
 11
25.762
 21
104.238
  0
LINE
  8
0
 10
25.762
 20
104.238
 11
26.6702
 21
104.984
  0
LINE
  8
0
 10
26.6702
 20
104.984
 11
27.7071
 21
105.538
  0
LINE
  8
0
 10
27.7071
 20
105.538
 11
28.0568
 21
105.644
  0
LINE
  8
0
 10
28.0568
 20
105.644
 11
31.7438
 21
94.296
  0
LINE
  8
0
 10
31.7438
 20
94.296
 11
31.1696
 21
94.1219
  0
LINE
  8
0
 10
31.1696
 20
94.1219
 11
30
 21
94.0065
  0
LINE
  8
0
 10
30
 20
94.0065
 11
28.8304
 21
94.1209
  0
LINE
  8
0
 10
9.00879
 20
85
 11
15
 21
90.9912
  0
LINE
  8
0
 10
15
 20
90.9912
 11
20.9912
 21
85
  0
LINE
  8
0
 10
20.9912
 20
85
 11
15
 21
79.0088
  0
LINE
  8
0
 10
15
 20
79.0088
 11
9.00879
 21
85
  0
LINE
  8
0
 10
-20.9912
 20
85
 11
-15
 21
90.9912
  0
LINE
  8
0
 10
-15
 20
90.9912
 11
-9.00879
 21
85
  0
LINE
  8
0
 10
-9.00879
 20
85
 11
-15
 21
79.0088
  0
LINE
  8
0
 10
-15
 20
79.0088
 11
-20.9912
 21
85
  0
LINE
  8
0
 10
-29.9936
 20
82.0035
 11
-29.9936
 21
82.0099
  0
LINE
  8
0
 10
-29.9936
 20
82.0099
 11
-30
 21
82.0067
  0
LINE
  8
0
 10
-30
 20
82.0067
 11
-30.0064
 21
82.0099
  0
LINE
  8
0
 10
-30.0064
 20
82.0099
 11
-30.0064
 21
82.0035
  0
LINE
  8
0
 10
-30.0064
 20
82.0035
 11
-35.9862
 21
79.0134
  0
LINE
  8
0
 10
-35.9862
 20
79.0134
 11
-32.9961
 21
84.9936
  0
LINE
  8
0
 10
-32.9961
 20
84.9936
 11
-32.9897
 21
84.9936
  0
LINE
  8
0
 10
-32.9897
 20
84.9936
 11
-32.9929
 21
85
  0
LINE
  8
0
 10
-32.9929
 20
85
 11
-32.9897
 21
85.0064
  0
LINE
  8
0
 10
-32.9897
 20
85.0064
 11
-32.9961
 21
85.0064
  0
LINE
  8
0
 10
-32.9961
 20
85.0064
 11
-34.0665
 21
87.1474
  0
LINE
  8
0
 10
-34.0665
 20
87.1474
 11
-33.2617
 21
89.6243
  0
LINE
  8
0
 10
-33.2617
 20
89.6243
 11
-30.0064
 21
87.9965
  0
LINE
  8
0
 10
-30.0064
 20
87.9965
 11
-30.0064
 21
87.9901
  0
LINE
  8
0
 10
-30.0064
 20
87.9901
 11
-30
 21
87.9933
  0
LINE
  8
0
 10
-30
 20
87.9933
 11
-29.9936
 21
87.9901
  0
LINE
  8
0
 10
-29.9936
 20
87.9901
 11
-29.9936
 21
87.9965
  0
LINE
  8
0
 10
-29.9936
 20
87.9965
 11
-24.0138
 21
90.9866
  0
LINE
  8
0
 10
-24.0138
 20
90.9866
 11
-27.0039
 21
85.0064
  0
LINE
  8
0
 10
-27.0039
 20
85.0064
 11
-27.0103
 21
85.0064
  0
LINE
  8
0
 10
-27.0103
 20
85.0064
 11
-27.0071
 21
85
  0
LINE
  8
0
 10
-27.0071
 20
85
 11
-27.0103
 21
84.9936
  0
LINE
  8
0
 10
-27.0103
 20
84.9936
 11
-27.0039
 21
84.9936
  0
LINE
  8
0
 10
-27.0039
 20
84.9936
 11
-24.0138
 21
79.0134
  0
LINE
  8
0
 10
-24.0138
 20
79.0134
 11
-29.9936
 21
82.0035
  0
LINE
  8
0
 10
0.00640869
 20
82.0035
 11
0.00640869
 21
82.0099
  0
LINE
  8
0
 10
0.00640869
 20
82.0099
 11
0
 21
82.0067
  0
LINE
  8
0
 10
0
 20
82.0067
 11
-0.00640869
 21
82.0099
  0
LINE
  8
0
 10
-0.00640869
 20
82.0099
 11
-0.00640869
 21
82.0035
  0
LINE
  8
0
 10
-0.00640869
 20
82.0035
 11
-5.98618
 21
79.0134
  0
LINE
  8
0
 10
-5.98618
 20
79.0134
 11
-2.99606
 21
84.9936
  0
LINE
  8
0
 10
-2.99606
 20
84.9936
 11
-2.98965
 21
84.9936
  0
LINE
  8
0
 10
-2.98965
 20
84.9936
 11
-2.99286
 21
85
  0
LINE
  8
0
 10
-2.99286
 20
85
 11
-2.98965
 21
85.0064
  0
LINE
  8
0
 10
-2.98965
 20
85.0064
 11
-2.99606
 21
85.0064
  0
LINE
  8
0
 10
-2.99606
 20
85.0064
 11
-5.98618
 21
90.9866
  0
LINE
  8
0
 10
-5.98618
 20
90.9866
 11
-0.00640869
 21
87.9965
  0
LINE
  8
0
 10
-0.00640869
 20
87.9965
 11
-0.00640869
 21
87.9901
  0
LINE
  8
0
 10
-0.00640869
 20
87.9901
 11
0
 21
87.9933
  0
LINE
  8
0
 10
0
 20
87.9933
 11
0.00640869
 21
87.9901
  0
LINE
  8
0
 10
0.00640869
 20
87.9901
 11
0.00640869
 21
87.9965
  0
LINE
  8
0
 10
0.00640869
 20
87.9965
 11
5.98618
 21
90.9866
  0
LINE
  8
0
 10
5.98618
 20
90.9866
 11
2.99606
 21
85.0064
  0
LINE
  8
0
 10
2.99606
 20
85.0064
 11
2.98965
 21
85.0064
  0
LINE
  8
0
 10
2.98965
 20
85.0064
 11
2.99286
 21
85
  0
LINE
  8
0
 10
2.99286
 20
85
 11
2.98965
 21
84.9936
  0
LINE
  8
0
 10
2.98965
 20
84.9936
 11
2.99606
 21
84.9936
  0
LINE
  8
0
 10
2.99606
 20
84.9936
 11
5.98618
 21
79.0134
  0
LINE
  8
0
 10
5.98618
 20
79.0134
 11
0.00640869
 21
82.0035
  0
LINE
  8
0
 10
30.0064
 20
82.0035
 11
30.0064
 21
82.0099
  0
LINE
  8
0
 10
30.0064
 20
82.0099
 11
30
 21
82.0067
  0
LINE
  8
0
 10
30
 20
82.0067
 11
29.9936
 21
82.0099
  0
LINE
  8
0
 10
29.9936
 20
82.0099
 11
29.9936
 21
82.0035
  0
LINE
  8
0
 10
29.9936
 20
82.0035
 11
24.0138
 21
79.0134
  0
LINE
  8
0
 10
24.0138
 20
79.0134
 11
27.0039
 21
84.9936
  0
LINE
  8
0
 10
27.0039
 20
84.9936
 11
27.0103
 21
84.9936
  0
LINE
  8
0
 10
27.0103
 20
84.9936
 11
27.0071
 21
85
  0
LINE
  8
0
 10
27.0071
 20
85
 11
27.0103
 21
85.0064
  0
LINE
  8
0
 10
27.0103
 20
85.0064
 11
27.0039
 21
85.0064
  0
LINE
  8
0
 10
27.0039
 20
85.0064
 11
24.0138
 21
90.9866
  0
LINE
  8
0
 10
24.0138
 20
90.9866
 11
29.9936
 21
87.9965
  0
LINE
  8
0
 10
29.9936
 20
87.9965
 11
29.9936
 21
87.9901
  0
LINE
  8
0
 10
29.9936
 20
87.9901
 11
30
 21
87.9933
  0
LINE
  8
0
 10
30
 20
87.9933
 11
30.0064
 21
87.9901
  0
LINE
  8
0
 10
30.0064
 20
87.9901
 11
30.0064
 21
87.9965
  0
LINE
  8
0
 10
30.0064
 20
87.9965
 11
33.2617
 21
89.6243
  0
LINE
  8
0
 10
33.2617
 20
89.6243
 11
34.0665
 21
87.1474
  0
LINE
  8
0
 10
34.0665
 20
87.1474
 11
32.9961
 21
85.0064
  0
LINE
  8
0
 10
32.9961
 20
85.0064
 11
32.9897
 21
85.0064
  0
LINE
  8
0
 10
32.9897
 20
85.0064
 11
32.9929
 21
85
  0
LINE
  8
0
 10
32.9929
 20
85
 11
32.9897
 21
84.9936
  0
LINE
  8
0
 10
32.9897
 20
84.9936
 11
32.9961
 21
84.9936
  0
LINE
  8
0
 10
32.9961
 20
84.9936
 11
35.9862
 21
79.0134
  0
LINE
  8
0
 10
35.9862
 20
79.0134
 11
30.0064
 21
82.0035
  0
LINE
  8
0
 10
-1.16959
 20
64.1209
 11
-2.29294
 21
64.4624
  0
LINE
  8
0
 10
-2.29294
 20
64.4624
 11
-3.33023
 21
65.0168
  0
LINE
  8
0
 10
-3.33023
 20
65.0168
 11
-4.23798
 21
65.762
  0
LINE
  8
0
 10
-4.23798
 20
65.762
 11
-4.98413
 21
66.6707
  0
LINE
  8
0
 10
-4.98413
 20
66.6707
 11
-5.53757
 21
67.7071
  0
LINE
  8
0
 10
-5.53757
 20
67.7071
 11
-5.87814
 21
68.8304
  0
LINE
  8
0
 10
-5.87814
 20
68.8304
 11
-5.9935
 21
70.0005
  0
LINE
  8
0
 10
-5.9935
 20
70.0005
 11
-5.87906
 21
71.1696
  0
LINE
  8
0
 10
-5.87906
 20
71.1696
 11
-5.53757
 21
72.2929
  0
LINE
  8
0
 10
-5.53757
 20
72.2929
 11
-4.98367
 21
73.3298
  0
LINE
  8
0
 10
-4.98367
 20
73.3298
 11
-4.23798
 21
74.238
  0
LINE
  8
0
 10
-4.23798
 20
74.238
 11
-3.32977
 21
74.9837
  0
LINE
  8
0
 10
-3.32977
 20
74.9837
 11
-2.29294
 21
75.5376
  0
LINE
  8
0
 10
-2.29294
 20
75.5376
 11
-1.16959
 21
75.8781
  0
LINE
  8
0
 10
-1.16959
 20
75.8781
 11
0
 21
75.9935
  0
LINE
  8
0
 10
0
 20
75.9935
 11
1.16959
 21
75.8791
  0
LINE
  8
0
 10
1.16959
 20
75.8791
 11
2.29294
 21
75.5376
  0
LINE
  8
0
 10
2.29294
 20
75.5376
 11
3.33023
 21
74.9832
  0
LINE
  8
0
 10
3.33023
 20
74.9832
 11
4.23798
 21
74.238
  0
LINE
  8
0
 10
4.23798
 20
74.238
 11
4.98413
 21
73.3293
  0
LINE
  8
0
 10
4.98413
 20
73.3293
 11
5.53757
 21
72.2929
  0
LINE
  8
0
 10
5.53757
 20
72.2929
 11
5.87814
 21
71.1696
  0
LINE
  8
0
 10
5.87814
 20
71.1696
 11
5.9935
 21
69.9995
  0
LINE
  8
0
 10
5.9935
 20
69.9995
 11
5.87906
 21
68.8304
  0
LINE
  8
0
 10
5.87906
 20
68.8304
 11
5.53757
 21
67.7071
  0
LINE
  8
0
 10
5.53757
 20
67.7071
 11
4.98322
 21
66.6698
  0
LINE
  8
0
 10
4.98322
 20
66.6698
 11
4.23798
 21
65.762
  0
LINE
  8
0
 10
4.23798
 20
65.762
 11
3.32977
 21
65.0163
  0
LINE
  8
0
 10
3.32977
 20
65.0163
 11
2.29294
 21
64.4624
  0
LINE
  8
0
 10
2.29294
 20
64.4624
 11
1.16959
 21
64.1219
  0
LINE
  8
0
 10
1.16959
 20
64.1219
 11
0
 21
64.0065
  0
LINE
  8
0
 10
0
 20
64.0065
 11
-1.16959
 21
64.1209
  0
LINE
  8
0
 10
28.8304
 20
64.1209
 11
27.7071
 21
64.4624
  0
LINE
  8
0
 10
27.7071
 20
64.4624
 11
26.6698
 21
65.0168
  0
LINE
  8
0
 10
26.6698
 20
65.0168
 11
25.762
 21
65.762
  0
LINE
  8
0
 10
25.762
 20
65.762
 11
25.0159
 21
66.6707
  0
LINE
  8
0
 10
25.0159
 20
66.6707
 11
24.4624
 21
67.7071
  0
LINE
  8
0
 10
24.4624
 20
67.7071
 11
24.1219
 21
68.8304
  0
LINE
  8
0
 10
24.1219
 20
68.8304
 11
24.0065
 21
70.0005
  0
LINE
  8
0
 10
24.0065
 20
70.0005
 11
24.1209
 21
71.1696
  0
LINE
  8
0
 10
24.1209
 20
71.1696
 11
24.4624
 21
72.2929
  0
LINE
  8
0
 10
24.4624
 20
72.2929
 11
25.0163
 21
73.3298
  0
LINE
  8
0
 10
25.0163
 20
73.3298
 11
25.762
 21
74.238
  0
LINE
  8
0
 10
25.762
 20
74.238
 11
26.6702
 21
74.9837
  0
LINE
  8
0
 10
26.6702
 20
74.9837
 11
27.7071
 21
75.5376
  0
LINE
  8
0
 10
27.7071
 20
75.5376
 11
28.8304
 21
75.8781
  0
LINE
  8
0
 10
28.8304
 20
75.8781
 11
30
 21
75.9935
  0
LINE
  8
0
 10
30
 20
75.9935
 11
31.1696
 21
75.8791
  0
LINE
  8
0
 10
31.1696
 20
75.8791
 11
32.2929
 21
75.5376
  0
LINE
  8
0
 10
32.2929
 20
75.5376
 11
33.3302
 21
74.9832
  0
LINE
  8
0
 10
33.3302
 20
74.9832
 11
34.238
 21
74.238
  0
LINE
  8
0
 10
34.238
 20
74.238
 11
34.9841
 21
73.3293
  0
LINE
  8
0
 10
34.9841
 20
73.3293
 11
35.5376
 21
72.2929
  0
LINE
  8
0
 10
35.5376
 20
72.2929
 11
35.8781
 21
71.1696
  0
LINE
  8
0
 10
35.8781
 20
71.1696
 11
35.9935
 21
69.9995
  0
LINE
  8
0
 10
35.9935
 20
69.9995
 11
35.8791
 21
68.8304
  0
LINE
  8
0
 10
35.8791
 20
68.8304
 11
35.5376
 21
67.7071
  0
LINE
  8
0
 10
35.5376
 20
67.7071
 11
34.9832
 21
66.6698
  0
LINE
  8
0
 10
34.9832
 20
66.6698
 11
34.238
 21
65.762
  0
LINE
  8
0
 10
34.238
 20
65.762
 11
33.3298
 21
65.0163
  0
LINE
  8
0
 10
33.3298
 20
65.0163
 11
32.2929
 21
64.4624
  0
LINE
  8
0
 10
32.2929
 20
64.4624
 11
31.1696
 21
64.1219
  0
LINE
  8
0
 10
31.1696
 20
64.1219
 11
30
 21
64.0065
  0
LINE
  8
0
 10
30
 20
64.0065
 11
28.8304
 21
64.1209
  0
LINE
  8
0
 10
-31.1696
 20
64.1209
 11
-32.2929
 21
64.4624
  0
LINE
  8
0
 10
-32.2929
 20
64.4624
 11
-33.3302
 21
65.0168
  0
LINE
  8
0
 10
-33.3302
 20
65.0168
 11
-34.238
 21
65.762
  0
LINE
  8
0
 10
-34.238
 20
65.762
 11
-34.9841
 21
66.6707
  0
LINE
  8
0
 10
-34.9841
 20
66.6707
 11
-35.5376
 21
67.7071
  0
LINE
  8
0
 10
-35.5376
 20
67.7071
 11
-35.8781
 21
68.8304
  0
LINE
  8
0
 10
-35.8781
 20
68.8304
 11
-35.9935
 21
70.0005
  0
LINE
  8
0
 10
-35.9935
 20
70.0005
 11
-35.8791
 21
71.1696
  0
LINE
  8
0
 10
-35.8791
 20
71.1696
 11
-35.5376
 21
72.2929
  0
LINE
  8
0
 10
-35.5376
 20
72.2929
 11
-34.9837
 21
73.3298
  0
LINE
  8
0
 10
-34.9837
 20
73.3298
 11
-34.238
 21
74.238
  0
LINE
  8
0
 10
-34.238
 20
74.238
 11
-33.3298
 21
74.9837
  0
LINE
  8
0
 10
-33.3298
 20
74.9837
 11
-32.2929
 21
75.5376
  0
LINE
  8
0
 10
-32.2929
 20
75.5376
 11
-31.1696
 21
75.8781
  0
LINE
  8
0
 10
-31.1696
 20
75.8781
 11
-30
 21
75.9935
  0
LINE
  8
0
 10
-30
 20
75.9935
 11
-28.8304
 21
75.8791
  0
LINE
  8
0
 10
-28.8304
 20
75.8791
 11
-27.7071
 21
75.5376
  0
LINE
  8
0
 10
-27.7071
 20
75.5376
 11
-26.6698
 21
74.9832
  0
LINE
  8
0
 10
-26.6698
 20
74.9832
 11
-25.762
 21
74.238
  0
LINE
  8
0
 10
-25.762
 20
74.238
 11
-25.0159
 21
73.3293
  0
LINE
  8
0
 10
-25.0159
 20
73.3293
 11
-24.4624
 21
72.2929
  0
LINE
  8
0
 10
-24.4624
 20
72.2929
 11
-24.1219
 21
71.1696
  0
LINE
  8
0
 10
-24.1219
 20
71.1696
 11
-24.0065
 21
69.9995
  0
LINE
  8
0
 10
-24.0065
 20
69.9995
 11
-24.1209
 21
68.8304
  0
LINE
  8
0
 10
-24.1209
 20
68.8304
 11
-24.4624
 21
67.7071
  0
LINE
  8
0
 10
-24.4624
 20
67.7071
 11
-25.0168
 21
66.6698
  0
LINE
  8
0
 10
-25.0168
 20
66.6698
 11
-25.762
 21
65.762
  0
LINE
  8
0
 10
-25.762
 20
65.762
 11
-26.6702
 21
65.0163
  0
LINE
  8
0
 10
-26.6702
 20
65.0163
 11
-27.7071
 21
64.4624
  0
LINE
  8
0
 10
-27.7071
 20
64.4624
 11
-28.8304
 21
64.1219
  0
LINE
  8
0
 10
-28.8304
 20
64.1219
 11
-30
 21
64.0065
  0
LINE
  8
0
 10
-30
 20
64.0065
 11
-31.1696
 21
64.1209
  0
LINE
  8
0
 10
15.0064
 20
67.0039
 11
15.0064
 21
67.0103
  0
LINE
  8
0
 10
15.0064
 20
67.0103
 11
15
 21
67.0071
  0
LINE
  8
0
 10
15
 20
67.0071
 11
14.9936
 21
67.0103
  0
LINE
  8
0
 10
14.9936
 20
67.0103
 11
14.9936
 21
67.0039
  0
LINE
  8
0
 10
14.9936
 20
67.0039
 11
9.01337
 21
64.0138
  0
LINE
  8
0
 10
9.01337
 20
64.0138
 11
12.0035
 21
69.9936
  0
LINE
  8
0
 10
12.0035
 20
69.9936
 11
12.0099
 21
69.9936
  0
LINE
  8
0
 10
12.0099
 20
69.9936
 11
12.0067
 21
70
  0
LINE
  8
0
 10
12.0067
 20
70
 11
12.0099
 21
70.0064
  0
LINE
  8
0
 10
12.0099
 20
70.0064
 11
12.0035
 21
70.0064
  0
LINE
  8
0
 10
12.0035
 20
70.0064
 11
9.01337
 21
75.9862
  0
LINE
  8
0
 10
9.01337
 20
75.9862
 11
14.9936
 21
72.9961
  0
LINE
  8
0
 10
14.9936
 20
72.9961
 11
14.9936
 21
72.9897
  0
LINE
  8
0
 10
14.9936
 20
72.9897
 11
15
 21
72.9929
  0
LINE
  8
0
 10
15
 20
72.9929
 11
15.0064
 21
72.9897
  0
LINE
  8
0
 10
15.0064
 20
72.9897
 11
15.0064
 21
72.9961
  0
LINE
  8
0
 10
15.0064
 20
72.9961
 11
20.9866
 21
75.9862
  0
LINE
  8
0
 10
20.9866
 20
75.9862
 11
17.9965
 21
70.0064
  0
LINE
  8
0
 10
17.9965
 20
70.0064
 11
17.9901
 21
70.0064
  0
LINE
  8
0
 10
17.9901
 20
70.0064
 11
17.9933
 21
70
  0
LINE
  8
0
 10
17.9933
 20
70
 11
17.9901
 21
69.9936
  0
LINE
  8
0
 10
17.9901
 20
69.9936
 11
17.9965
 21
69.9936
  0
LINE
  8
0
 10
17.9965
 20
69.9936
 11
20.9866
 21
64.0138
  0
LINE
  8
0
 10
20.9866
 20
64.0138
 11
15.0064
 21
67.0039
  0
LINE
  8
0
 10
-14.9936
 20
67.0039
 11
-14.9936
 21
67.0103
  0
LINE
  8
0
 10
-14.9936
 20
67.0103
 11
-15
 21
67.0071
  0
LINE
  8
0
 10
-15
 20
67.0071
 11
-15.0064
 21
67.0103
  0
LINE
  8
0
 10
-15.0064
 20
67.0103
 11
-15.0064
 21
67.0039
  0
LINE
  8
0
 10
-15.0064
 20
67.0039
 11
-20.9866
 21
64.0138
  0
LINE
  8
0
 10
-20.9866
 20
64.0138
 11
-17.9965
 21
69.9936
  0
LINE
  8
0
 10
-17.9965
 20
69.9936
 11
-17.9901
 21
69.9936
  0
LINE
  8
0
 10
-17.9901
 20
69.9936
 11
-17.9933
 21
70
  0
LINE
  8
0
 10
-17.9933
 20
70
 11
-17.9901
 21
70.0064
  0
LINE
  8
0
 10
-17.9901
 20
70.0064
 11
-17.9965
 21
70.0064
  0
LINE
  8
0
 10
-17.9965
 20
70.0064
 11
-20.9866
 21
75.9862
  0
LINE
  8
0
 10
-20.9866
 20
75.9862
 11
-15.0064
 21
72.9961
  0
LINE
  8
0
 10
-15.0064
 20
72.9961
 11
-15.0064
 21
72.9897
  0
LINE
  8
0
 10
-15.0064
 20
72.9897
 11
-15
 21
72.9929
  0
LINE
  8
0
 10
-15
 20
72.9929
 11
-14.9936
 21
72.9897
  0
LINE
  8
0
 10
-14.9936
 20
72.9897
 11
-14.9936
 21
72.9961
  0
LINE
  8
0
 10
-14.9936
 20
72.9961
 11
-9.01337
 21
75.9862
  0
LINE
  8
0
 10
-9.01337
 20
75.9862
 11
-12.0035
 21
70.0064
  0
LINE
  8
0
 10
-12.0035
 20
70.0064
 11
-12.0099
 21
70.0064
  0
LINE
  8
0
 10
-12.0099
 20
70.0064
 11
-12.0067
 21
70
  0
LINE
  8
0
 10
-12.0067
 20
70
 11
-12.0099
 21
69.9936
  0
LINE
  8
0
 10
-12.0099
 20
69.9936
 11
-12.0035
 21
69.9936
  0
LINE
  8
0
 10
-12.0035
 20
69.9936
 11
-9.01337
 21
64.0138
  0
LINE
  8
0
 10
-9.01337
 20
64.0138
 11
-14.9936
 21
67.0039
  0
LINE
  8
0
 10
-41.224
 20
65.1191
 11
-40.571
 21
67.1288
  0
LINE
  8
0
 10
-40.571
 20
67.1288
 11
-39.0134
 21
64.0138
  0
LINE
  8
0
 10
-39.0134
 20
64.0138
 11
-41.224
 21
65.1191
  0
LINE
  8
0
 10
40.571
 20
67.1288
 11
41.224
 21
65.1191
  0
LINE
  8
0
 10
41.224
 20
65.1191
 11
39.0134
 21
64.0138
  0
LINE
  8
0
 10
39.0134
 20
64.0138
 11
40.571
 21
67.1288
  0
LINE
  8
0
 10
-20.9912
 20
55
 11
-15
 21
60.9912
  0
LINE
  8
0
 10
-15
 20
60.9912
 11
-9.00879
 21
55
  0
LINE
  8
0
 10
-9.00879
 20
55
 11
-15
 21
49.0088
  0
LINE
  8
0
 10
-15
 20
49.0088
 11
-20.9912
 21
55
  0
LINE
  8
0
 10
9.00879
 20
55
 11
15
 21
60.9912
  0
LINE
  8
0
 10
15
 20
60.9912
 11
20.9912
 21
55
  0
LINE
  8
0
 10
20.9912
 20
55
 11
15
 21
49.0088
  0
LINE
  8
0
 10
15
 20
49.0088
 11
9.00879
 21
55
  0
LINE
  8
0
 10
-29.9936
 20
52.0035
 11
-29.9936
 21
52.0099
  0
LINE
  8
0
 10
-29.9936
 20
52.0099
 11
-30
 21
52.0067
  0
LINE
  8
0
 10
-30
 20
52.0067
 11
-30.0064
 21
52.0099
  0
LINE
  8
0
 10
-30.0064
 20
52.0099
 11
-30.0064
 21
52.0035
  0
LINE
  8
0
 10
-30.0064
 20
52.0035
 11
-35.9862
 21
49.0134
  0
LINE
  8
0
 10
-35.9862
 20
49.0134
 11
-32.9961
 21
54.9936
  0
LINE
  8
0
 10
-32.9961
 20
54.9936
 11
-32.9897
 21
54.9936
  0
LINE
  8
0
 10
-32.9897
 20
54.9936
 11
-32.9929
 21
55
  0
LINE
  8
0
 10
-32.9929
 20
55
 11
-32.9897
 21
55.0064
  0
LINE
  8
0
 10
-32.9897
 20
55.0064
 11
-32.9961
 21
55.0064
  0
LINE
  8
0
 10
-32.9961
 20
55.0064
 11
-35.9862
 21
60.9866
  0
LINE
  8
0
 10
-35.9862
 20
60.9866
 11
-30.0064
 21
57.9965
  0
LINE
  8
0
 10
-30.0064
 20
57.9965
 11
-30.0064
 21
57.9901
  0
LINE
  8
0
 10
-30.0064
 20
57.9901
 11
-30
 21
57.9933
  0
LINE
  8
0
 10
-30
 20
57.9933
 11
-29.9936
 21
57.9901
  0
LINE
  8
0
 10
-29.9936
 20
57.9901
 11
-29.9936
 21
57.9965
  0
LINE
  8
0
 10
-29.9936
 20
57.9965
 11
-24.0138
 21
60.9866
  0
LINE
  8
0
 10
-24.0138
 20
60.9866
 11
-27.0039
 21
55.0064
  0
LINE
  8
0
 10
-27.0039
 20
55.0064
 11
-27.0103
 21
55.0064
  0
LINE
  8
0
 10
-27.0103
 20
55.0064
 11
-27.0071
 21
55
  0
LINE
  8
0
 10
-27.0071
 20
55
 11
-27.0103
 21
54.9936
  0
LINE
  8
0
 10
-27.0103
 20
54.9936
 11
-27.0039
 21
54.9936
  0
LINE
  8
0
 10
-27.0039
 20
54.9936
 11
-24.0138
 21
49.0134
  0
LINE
  8
0
 10
-24.0138
 20
49.0134
 11
-29.9936
 21
52.0035
  0
LINE
  8
0
 10
0.00640869
 20
52.0035
 11
0.00640869
 21
52.0099
  0
LINE
  8
0
 10
0.00640869
 20
52.0099
 11
0
 21
52.0067
  0
LINE
  8
0
 10
0
 20
52.0067
 11
-0.00640869
 21
52.0099
  0
LINE
  8
0
 10
-0.00640869
 20
52.0099
 11
-0.00640869
 21
52.0035
  0
LINE
  8
0
 10
-0.00640869
 20
52.0035
 11
-5.98618
 21
49.0134
  0
LINE
  8
0
 10
-5.98618
 20
49.0134
 11
-2.99606
 21
54.9936
  0
LINE
  8
0
 10
-2.99606
 20
54.9936
 11
-2.98965
 21
54.9936
  0
LINE
  8
0
 10
-2.98965
 20
54.9936
 11
-2.99286
 21
55
  0
LINE
  8
0
 10
-2.99286
 20
55
 11
-2.98965
 21
55.0064
  0
LINE
  8
0
 10
-2.98965
 20
55.0064
 11
-2.99606
 21
55.0064
  0
LINE
  8
0
 10
-2.99606
 20
55.0064
 11
-5.98618
 21
60.9866
  0
LINE
  8
0
 10
-5.98618
 20
60.9866
 11
-0.00640869
 21
57.9965
  0
LINE
  8
0
 10
-0.00640869
 20
57.9965
 11
-0.00640869
 21
57.9901
  0
LINE
  8
0
 10
-0.00640869
 20
57.9901
 11
0
 21
57.9933
  0
LINE
  8
0
 10
0
 20
57.9933
 11
0.00640869
 21
57.9901
  0
LINE
  8
0
 10
0.00640869
 20
57.9901
 11
0.00640869
 21
57.9965
  0
LINE
  8
0
 10
0.00640869
 20
57.9965
 11
5.98618
 21
60.9866
  0
LINE
  8
0
 10
5.98618
 20
60.9866
 11
2.99606
 21
55.0064
  0
LINE
  8
0
 10
2.99606
 20
55.0064
 11
2.98965
 21
55.0064
  0
LINE
  8
0
 10
2.98965
 20
55.0064
 11
2.99286
 21
55
  0
LINE
  8
0
 10
2.99286
 20
55
 11
2.98965
 21
54.9936
  0
LINE
  8
0
 10
2.98965
 20
54.9936
 11
2.99606
 21
54.9936
  0
LINE
  8
0
 10
2.99606
 20
54.9936
 11
5.98618
 21
49.0134
  0
LINE
  8
0
 10
5.98618
 20
49.0134
 11
0.00640869
 21
52.0035
  0
LINE
  8
0
 10
30.0064
 20
52.0035
 11
30.0064
 21
52.0099
  0
LINE
  8
0
 10
30.0064
 20
52.0099
 11
30
 21
52.0067
  0
LINE
  8
0
 10
30
 20
52.0067
 11
29.9936
 21
52.0099
  0
LINE
  8
0
 10
29.9936
 20
52.0099
 11
29.9936
 21
52.0035
  0
LINE
  8
0
 10
29.9936
 20
52.0035
 11
24.0138
 21
49.0134
  0
LINE
  8
0
 10
24.0138
 20
49.0134
 11
27.0039
 21
54.9936
  0
LINE
  8
0
 10
27.0039
 20
54.9936
 11
27.0103
 21
54.9936
  0
LINE
  8
0
 10
27.0103
 20
54.9936
 11
27.0071
 21
55
  0
LINE
  8
0
 10
27.0071
 20
55
 11
27.0103
 21
55.0064
  0
LINE
  8
0
 10
27.0103
 20
55.0064
 11
27.0039
 21
55.0064
  0
LINE
  8
0
 10
27.0039
 20
55.0064
 11
24.0138
 21
60.9866
  0
LINE
  8
0
 10
24.0138
 20
60.9866
 11
29.9936
 21
57.9965
  0
LINE
  8
0
 10
29.9936
 20
57.9965
 11
29.9936
 21
57.9901
  0
LINE
  8
0
 10
29.9936
 20
57.9901
 11
30
 21
57.9933
  0
LINE
  8
0
 10
30
 20
57.9933
 11
30.0064
 21
57.9901
  0
LINE
  8
0
 10
30.0064
 20
57.9901
 11
30.0064
 21
57.9965
  0
LINE
  8
0
 10
30.0064
 20
57.9965
 11
35.9862
 21
60.9866
  0
LINE
  8
0
 10
35.9862
 20
60.9866
 11
32.9961
 21
55.0064
  0
LINE
  8
0
 10
32.9961
 20
55.0064
 11
32.9897
 21
55.0064
  0
LINE
  8
0
 10
32.9897
 20
55.0064
 11
32.9929
 21
55
  0
LINE
  8
0
 10
32.9929
 20
55
 11
32.9897
 21
54.9936
  0
LINE
  8
0
 10
32.9897
 20
54.9936
 11
32.9961
 21
54.9936
  0
LINE
  8
0
 10
32.9961
 20
54.9936
 11
35.9862
 21
49.0134
  0
LINE
  8
0
 10
35.9862
 20
49.0134
 11
30.0064
 21
52.0035
  0
LINE
  8
0
 10
39.0088
 20
55
 11
43.1623
 21
59.1535
  0
LINE
  8
0
 10
43.1623
 20
59.1535
 11
46.1008
 21
50.1096
  0
LINE
  8
0
 10
46.1008
 20
50.1096
 11
45
 21
49.0088
  0
LINE
  8
0
 10
45
 20
49.0088
 11
39.0088
 21
55
  0
LINE
  8
0
 10
-46.1008
 20
50.1096
 11
-43.1623
 21
59.1535
  0
LINE
  8
0
 10
-43.1623
 20
59.1535
 11
-39.0088
 21
55
  0
LINE
  8
0
 10
-39.0088
 20
55
 11
-45
 21
49.0088
  0
LINE
  8
0
 10
-45
 20
49.0088
 11
-46.1008
 21
50.1096
  0
LINE
  8
0
 10
-31.1696
 20
34.1209
 11
-32.2929
 21
34.4624
  0
LINE
  8
0
 10
-32.2929
 20
34.4624
 11
-33.3302
 21
35.0168
  0
LINE
  8
0
 10
-33.3302
 20
35.0168
 11
-34.238
 21
35.762
  0
LINE
  8
0
 10
-34.238
 20
35.762
 11
-34.9841
 21
36.6707
  0
LINE
  8
0
 10
-34.9841
 20
36.6707
 11
-35.5376
 21
37.7071
  0
LINE
  8
0
 10
-35.5376
 20
37.7071
 11
-35.8781
 21
38.8304
  0
LINE
  8
0
 10
-35.8781
 20
38.8304
 11
-35.9935
 21
40.0005
  0
LINE
  8
0
 10
-35.9935
 20
40.0005
 11
-35.8791
 21
41.1696
  0
LINE
  8
0
 10
-35.8791
 20
41.1696
 11
-35.5376
 21
42.2929
  0
LINE
  8
0
 10
-35.5376
 20
42.2929
 11
-34.9837
 21
43.3298
  0
LINE
  8
0
 10
-34.9837
 20
43.3298
 11
-34.238
 21
44.238
  0
LINE
  8
0
 10
-34.238
 20
44.238
 11
-33.3298
 21
44.9837
  0
LINE
  8
0
 10
-33.3298
 20
44.9837
 11
-32.2929
 21
45.5376
  0
LINE
  8
0
 10
-32.2929
 20
45.5376
 11
-31.1696
 21
45.8781
  0
LINE
  8
0
 10
-31.1696
 20
45.8781
 11
-30
 21
45.9935
  0
LINE
  8
0
 10
-30
 20
45.9935
 11
-28.8304
 21
45.8791
  0
LINE
  8
0
 10
-28.8304
 20
45.8791
 11
-27.7071
 21
45.5376
  0
LINE
  8
0
 10
-27.7071
 20
45.5376
 11
-26.6698
 21
44.9832
  0
LINE
  8
0
 10
-26.6698
 20
44.9832
 11
-25.762
 21
44.238
  0
LINE
  8
0
 10
-25.762
 20
44.238
 11
-25.0159
 21
43.3293
  0
LINE
  8
0
 10
-25.0159
 20
43.3293
 11
-24.4624
 21
42.2929
  0
LINE
  8
0
 10
-24.4624
 20
42.2929
 11
-24.1219
 21
41.1696
  0
LINE
  8
0
 10
-24.1219
 20
41.1696
 11
-24.0065
 21
39.9995
  0
LINE
  8
0
 10
-24.0065
 20
39.9995
 11
-24.1209
 21
38.8304
  0
LINE
  8
0
 10
-24.1209
 20
38.8304
 11
-24.4624
 21
37.7071
  0
LINE
  8
0
 10
-24.4624
 20
37.7071
 11
-25.0168
 21
36.6698
  0
LINE
  8
0
 10
-25.0168
 20
36.6698
 11
-25.762
 21
35.762
  0
LINE
  8
0
 10
-25.762
 20
35.762
 11
-26.6702
 21
35.0163
  0
LINE
  8
0
 10
-26.6702
 20
35.0163
 11
-27.7071
 21
34.4624
  0
LINE
  8
0
 10
-27.7071
 20
34.4624
 11
-28.8304
 21
34.1219
  0
LINE
  8
0
 10
-28.8304
 20
34.1219
 11
-30
 21
34.0065
  0
LINE
  8
0
 10
-30
 20
34.0065
 11
-31.1696
 21
34.1209
  0
LINE
  8
0
 10
28.8304
 20
34.1209
 11
27.7071
 21
34.4624
  0
LINE
  8
0
 10
27.7071
 20
34.4624
 11
26.6698
 21
35.0168
  0
LINE
  8
0
 10
26.6698
 20
35.0168
 11
25.762
 21
35.762
  0
LINE
  8
0
 10
25.762
 20
35.762
 11
25.0159
 21
36.6707
  0
LINE
  8
0
 10
25.0159
 20
36.6707
 11
24.4624
 21
37.7071
  0
LINE
  8
0
 10
24.4624
 20
37.7071
 11
24.1219
 21
38.8304
  0
LINE
  8
0
 10
24.1219
 20
38.8304
 11
24.0065
 21
40.0005
  0
LINE
  8
0
 10
24.0065
 20
40.0005
 11
24.1209
 21
41.1696
  0
LINE
  8
0
 10
24.1209
 20
41.1696
 11
24.4624
 21
42.2929
  0
LINE
  8
0
 10
24.4624
 20
42.2929
 11
25.0163
 21
43.3298
  0
LINE
  8
0
 10
25.0163
 20
43.3298
 11
25.762
 21
44.238
  0
LINE
  8
0
 10
25.762
 20
44.238
 11
26.6702
 21
44.9837
  0
LINE
  8
0
 10
26.6702
 20
44.9837
 11
27.7071
 21
45.5376
  0
LINE
  8
0
 10
27.7071
 20
45.5376
 11
28.8304
 21
45.8781
  0
LINE
  8
0
 10
28.8304
 20
45.8781
 11
30
 21
45.9935
  0
LINE
  8
0
 10
30
 20
45.9935
 11
31.1696
 21
45.8791
  0
LINE
  8
0
 10
31.1696
 20
45.8791
 11
32.2929
 21
45.5376
  0
LINE
  8
0
 10
32.2929
 20
45.5376
 11
33.3302
 21
44.9832
  0
LINE
  8
0
 10
33.3302
 20
44.9832
 11
34.238
 21
44.238
  0
LINE
  8
0
 10
34.238
 20
44.238
 11
34.9841
 21
43.3293
  0
LINE
  8
0
 10
34.9841
 20
43.3293
 11
35.5376
 21
42.2929
  0
LINE
  8
0
 10
35.5376
 20
42.2929
 11
35.8781
 21
41.1696
  0
LINE
  8
0
 10
35.8781
 20
41.1696
 11
35.9935
 21
39.9995
  0
LINE
  8
0
 10
35.9935
 20
39.9995
 11
35.8791
 21
38.8304
  0
LINE
  8
0
 10
35.8791
 20
38.8304
 11
35.5376
 21
37.7071
  0
LINE
  8
0
 10
35.5376
 20
37.7071
 11
34.9832
 21
36.6698
  0
LINE
  8
0
 10
34.9832
 20
36.6698
 11
34.238
 21
35.762
  0
LINE
  8
0
 10
34.238
 20
35.762
 11
33.3298
 21
35.0163
  0
LINE
  8
0
 10
33.3298
 20
35.0163
 11
32.2929
 21
34.4624
  0
LINE
  8
0
 10
32.2929
 20
34.4624
 11
31.1696
 21
34.1219
  0
LINE
  8
0
 10
31.1696
 20
34.1219
 11
30
 21
34.0065
  0
LINE
  8
0
 10
30
 20
34.0065
 11
28.8304
 21
34.1209
  0
LINE
  8
0
 10
-1.16959
 20
34.1209
 11
-2.29294
 21
34.4624
  0
LINE
  8
0
 10
-2.29294
 20
34.4624
 11
-3.33023
 21
35.0168
  0
LINE
  8
0
 10
-3.33023
 20
35.0168
 11
-4.23798
 21
35.762
  0
LINE
  8
0
 10
-4.23798
 20
35.762
 11
-4.98413
 21
36.6707
  0
LINE
  8
0
 10
-4.98413
 20
36.6707
 11
-5.53757
 21
37.7071
  0
LINE
  8
0
 10
-5.53757
 20
37.7071
 11
-5.87814
 21
38.8304
  0
LINE
  8
0
 10
-5.87814
 20
38.8304
 11
-5.9935
 21
40.0005
  0
LINE
  8
0
 10
-5.9935
 20
40.0005
 11
-5.87906
 21
41.1696
  0
LINE
  8
0
 10
-5.87906
 20
41.1696
 11
-5.53757
 21
42.2929
  0
LINE
  8
0
 10
-5.53757
 20
42.2929
 11
-4.98367
 21
43.3298
  0
LINE
  8
0
 10
-4.98367
 20
43.3298
 11
-4.23798
 21
44.238
  0
LINE
  8
0
 10
-4.23798
 20
44.238
 11
-3.32977
 21
44.9837
  0
LINE
  8
0
 10
-3.32977
 20
44.9837
 11
-2.29294
 21
45.5376
  0
LINE
  8
0
 10
-2.29294
 20
45.5376
 11
-1.16959
 21
45.8781
  0
LINE
  8
0
 10
-1.16959
 20
45.8781
 11
0
 21
45.9935
  0
LINE
  8
0
 10
0
 20
45.9935
 11
1.16959
 21
45.8791
  0
LINE
  8
0
 10
1.16959
 20
45.8791
 11
2.29294
 21
45.5376
  0
LINE
  8
0
 10
2.29294
 20
45.5376
 11
3.33023
 21
44.9832
  0
LINE
  8
0
 10
3.33023
 20
44.9832
 11
4.23798
 21
44.238
  0
LINE
  8
0
 10
4.23798
 20
44.238
 11
4.98413
 21
43.3293
  0
LINE
  8
0
 10
4.98413
 20
43.3293
 11
5.53757
 21
42.2929
  0
LINE
  8
0
 10
5.53757
 20
42.2929
 11
5.87814
 21
41.1696
  0
LINE
  8
0
 10
5.87814
 20
41.1696
 11
5.9935
 21
39.9995
  0
LINE
  8
0
 10
5.9935
 20
39.9995
 11
5.87906
 21
38.8304
  0
LINE
  8
0
 10
5.87906
 20
38.8304
 11
5.53757
 21
37.7071
  0
LINE
  8
0
 10
5.53757
 20
37.7071
 11
4.98322
 21
36.6698
  0
LINE
  8
0
 10
4.98322
 20
36.6698
 11
4.23798
 21
35.762
  0
LINE
  8
0
 10
4.23798
 20
35.762
 11
3.32977
 21
35.0163
  0
LINE
  8
0
 10
3.32977
 20
35.0163
 11
2.29294
 21
34.4624
  0
LINE
  8
0
 10
2.29294
 20
34.4624
 11
1.16959
 21
34.1219
  0
LINE
  8
0
 10
1.16959
 20
34.1219
 11
0
 21
34.0065
  0
LINE
  8
0
 10
0
 20
34.0065
 11
-1.16959
 21
34.1209
  0
LINE
  8
0
 10
45.0064
 20
37.0039
 11
45.0064
 21
37.0103
  0
LINE
  8
0
 10
45.0064
 20
37.0103
 11
45
 21
37.0071
  0
LINE
  8
0
 10
45
 20
37.0071
 11
44.9936
 21
37.0103
  0
LINE
  8
0
 10
44.9936
 20
37.0103
 11
44.9936
 21
37.0039
  0
LINE
  8
0
 10
44.9936
 20
37.0039
 11
39.0134
 21
34.0138
  0
LINE
  8
0
 10
39.0134
 20
34.0138
 11
42.0035
 21
39.9936
  0
LINE
  8
0
 10
42.0035
 20
39.9936
 11
42.0099
 21
39.9936
  0
LINE
  8
0
 10
42.0099
 20
39.9936
 11
42.0067
 21
40
  0
LINE
  8
0
 10
42.0067
 20
40
 11
42.0099
 21
40.0064
  0
LINE
  8
0
 10
42.0099
 20
40.0064
 11
42.0035
 21
40.0064
  0
LINE
  8
0
 10
42.0035
 20
40.0064
 11
39.0134
 21
45.9862
  0
LINE
  8
0
 10
39.0134
 20
45.9862
 11
44.9936
 21
42.9961
  0
LINE
  8
0
 10
44.9936
 20
42.9961
 11
44.9936
 21
42.9897
  0
LINE
  8
0
 10
44.9936
 20
42.9897
 11
45
 21
42.9929
  0
LINE
  8
0
 10
45
 20
42.9929
 11
45.0064
 21
42.9897
  0
LINE
  8
0
 10
45.0064
 20
42.9897
 11
45.0064
 21
42.9961
  0
LINE
  8
0
 10
45.0064
 20
42.9961
 11
47.9362
 21
44.461
  0
LINE
  8
0
 10
47.9362
 20
44.461
 11
48.8373
 21
41.6878
  0
LINE
  8
0
 10
48.8373
 20
41.6878
 11
47.9965
 21
40.0064
  0
LINE
  8
0
 10
47.9965
 20
40.0064
 11
47.9901
 21
40.0064
  0
LINE
  8
0
 10
47.9901
 20
40.0064
 11
47.9933
 21
40
  0
LINE
  8
0
 10
47.9933
 20
40
 11
47.9901
 21
39.9936
  0
LINE
  8
0
 10
47.9901
 20
39.9936
 11
47.9965
 21
39.9936
  0
LINE
  8
0
 10
47.9965
 20
39.9936
 11
50.9866
 21
34.0138
  0
LINE
  8
0
 10
50.9866
 20
34.0138
 11
45.0064
 21
37.0039
  0
LINE
  8
0
 10
15.0064
 20
37.0039
 11
15.0064
 21
37.0103
  0
LINE
  8
0
 10
15.0064
 20
37.0103
 11
15
 21
37.0071
  0
LINE
  8
0
 10
15
 20
37.0071
 11
14.9936
 21
37.0103
  0
LINE
  8
0
 10
14.9936
 20
37.0103
 11
14.9936
 21
37.0039
  0
LINE
  8
0
 10
14.9936
 20
37.0039
 11
9.01337
 21
34.0138
  0
LINE
  8
0
 10
9.01337
 20
34.0138
 11
12.0035
 21
39.9936
  0
LINE
  8
0
 10
12.0035
 20
39.9936
 11
12.0099
 21
39.9936
  0
LINE
  8
0
 10
12.0099
 20
39.9936
 11
12.0067
 21
40
  0
LINE
  8
0
 10
12.0067
 20
40
 11
12.0099
 21
40.0064
  0
LINE
  8
0
 10
12.0099
 20
40.0064
 11
12.0035
 21
40.0064
  0
LINE
  8
0
 10
12.0035
 20
40.0064
 11
9.01337
 21
45.9862
  0
LINE
  8
0
 10
9.01337
 20
45.9862
 11
14.9936
 21
42.9961
  0
LINE
  8
0
 10
14.9936
 20
42.9961
 11
14.9936
 21
42.9897
  0
LINE
  8
0
 10
14.9936
 20
42.9897
 11
15
 21
42.9929
  0
LINE
  8
0
 10
15
 20
42.9929
 11
15.0064
 21
42.9897
  0
LINE
  8
0
 10
15.0064
 20
42.9897
 11
15.0064
 21
42.9961
  0
LINE
  8
0
 10
15.0064
 20
42.9961
 11
20.9866
 21
45.9862
  0
LINE
  8
0
 10
20.9866
 20
45.9862
 11
17.9965
 21
40.0064
  0
LINE
  8
0
 10
17.9965
 20
40.0064
 11
17.9901
 21
40.0064
  0
LINE
  8
0
 10
17.9901
 20
40.0064
 11
17.9933
 21
40
  0
LINE
  8
0
 10
17.9933
 20
40
 11
17.9901
 21
39.9936
  0
LINE
  8
0
 10
17.9901
 20
39.9936
 11
17.9965
 21
39.9936
  0
LINE
  8
0
 10
17.9965
 20
39.9936
 11
20.9866
 21
34.0138
  0
LINE
  8
0
 10
20.9866
 20
34.0138
 11
15.0064
 21
37.0039
  0
LINE
  8
0
 10
-14.9936
 20
37.0039
 11
-14.9936
 21
37.0103
  0
LINE
  8
0
 10
-14.9936
 20
37.0103
 11
-15
 21
37.0071
  0
LINE
  8
0
 10
-15
 20
37.0071
 11
-15.0064
 21
37.0103
  0
LINE
  8
0
 10
-15.0064
 20
37.0103
 11
-15.0064
 21
37.0039
  0
LINE
  8
0
 10
-15.0064
 20
37.0039
 11
-20.9866
 21
34.0138
  0
LINE
  8
0
 10
-20.9866
 20
34.0138
 11
-17.9965
 21
39.9936
  0
LINE
  8
0
 10
-17.9965
 20
39.9936
 11
-17.9901
 21
39.9936
  0
LINE
  8
0
 10
-17.9901
 20
39.9936
 11
-17.9933
 21
40
  0
LINE
  8
0
 10
-17.9933
 20
40
 11
-17.9901
 21
40.0064
  0
LINE
  8
0
 10
-17.9901
 20
40.0064
 11
-17.9965
 21
40.0064
  0
LINE
  8
0
 10
-17.9965
 20
40.0064
 11
-20.9866
 21
45.9862
  0
LINE
  8
0
 10
-20.9866
 20
45.9862
 11
-15.0064
 21
42.9961
  0
LINE
  8
0
 10
-15.0064
 20
42.9961
 11
-15.0064
 21
42.9897
  0
LINE
  8
0
 10
-15.0064
 20
42.9897
 11
-15
 21
42.9929
  0
LINE
  8
0
 10
-15
 20
42.9929
 11
-14.9936
 21
42.9897
  0
LINE
  8
0
 10
-14.9936
 20
42.9897
 11
-14.9936
 21
42.9961
  0
LINE
  8
0
 10
-14.9936
 20
42.9961
 11
-9.01337
 21
45.9862
  0
LINE
  8
0
 10
-9.01337
 20
45.9862
 11
-12.0035
 21
40.0064
  0
LINE
  8
0
 10
-12.0035
 20
40.0064
 11
-12.0099
 21
40.0064
  0
LINE
  8
0
 10
-12.0099
 20
40.0064
 11
-12.0067
 21
40
  0
LINE
  8
0
 10
-12.0067
 20
40
 11
-12.0099
 21
39.9936
  0
LINE
  8
0
 10
-12.0099
 20
39.9936
 11
-12.0035
 21
39.9936
  0
LINE
  8
0
 10
-12.0035
 20
39.9936
 11
-9.01337
 21
34.0138
  0
LINE
  8
0
 10
-9.01337
 20
34.0138
 11
-14.9936
 21
37.0039
  0
LINE
  8
0
 10
-44.9936
 20
37.0039
 11
-44.9936
 21
37.0103
  0
LINE
  8
0
 10
-44.9936
 20
37.0103
 11
-45
 21
37.0071
  0
LINE
  8
0
 10
-45
 20
37.0071
 11
-45.0064
 21
37.0103
  0
LINE
  8
0
 10
-45.0064
 20
37.0103
 11
-45.0064
 21
37.0039
  0
LINE
  8
0
 10
-45.0064
 20
37.0039
 11
-50.9866
 21
34.0138
  0
LINE
  8
0
 10
-50.9866
 20
34.0138
 11
-47.9965
 21
39.9936
  0
LINE
  8
0
 10
-47.9965
 20
39.9936
 11
-47.9901
 21
39.9936
  0
LINE
  8
0
 10
-47.9901
 20
39.9936
 11
-47.9933
 21
40
  0
LINE
  8
0
 10
-47.9933
 20
40
 11
-47.9901
 21
40.0064
  0
LINE
  8
0
 10
-47.9901
 20
40.0064
 11
-47.9965
 21
40.0064
  0
LINE
  8
0
 10
-47.9965
 20
40.0064
 11
-48.8373
 21
41.6878
  0
LINE
  8
0
 10
-48.8373
 20
41.6878
 11
-47.9362
 21
44.461
  0
LINE
  8
0
 10
-47.9362
 20
44.461
 11
-45.0064
 21
42.9961
  0
LINE
  8
0
 10
-45.0064
 20
42.9961
 11
-45.0064
 21
42.9897
  0
LINE
  8
0
 10
-45.0064
 20
42.9897
 11
-45
 21
42.9929
  0
LINE
  8
0
 10
-45
 20
42.9929
 11
-44.9936
 21
42.9897
  0
LINE
  8
0
 10
-44.9936
 20
42.9897
 11
-44.9936
 21
42.9961
  0
LINE
  8
0
 10
-44.9936
 20
42.9961
 11
-39.0134
 21
45.9862
  0
LINE
  8
0
 10
-39.0134
 20
45.9862
 11
-42.0035
 21
40.0064
  0
LINE
  8
0
 10
-42.0035
 20
40.0064
 11
-42.0099
 21
40.0064
  0
LINE
  8
0
 10
-42.0099
 20
40.0064
 11
-42.0067
 21
40
  0
LINE
  8
0
 10
-42.0067
 20
40
 11
-42.0099
 21
39.9936
  0
LINE
  8
0
 10
-42.0099
 20
39.9936
 11
-42.0035
 21
39.9936
  0
LINE
  8
0
 10
-42.0035
 20
39.9936
 11
-39.0134
 21
34.0138
  0
LINE
  8
0
 10
-39.0134
 20
34.0138
 11
-44.9936
 21
37.0039
  0
LINE
  8
0
 10
-50.9912
 20
25
 11
-45
 21
30.9912
  0
LINE
  8
0
 10
-45
 20
30.9912
 11
-39.0088
 21
25
  0
LINE
  8
0
 10
-39.0088
 20
25
 11
-45
 21
19.0088
  0
LINE
  8
0
 10
-45
 20
19.0088
 11
-50.9912
 21
25
  0
LINE
  8
0
 10
-20.9912
 20
25
 11
-15
 21
30.9912
  0
LINE
  8
0
 10
-15
 20
30.9912
 11
-9.00879
 21
25
  0
LINE
  8
0
 10
-9.00879
 20
25
 11
-15
 21
19.0088
  0
LINE
  8
0
 10
-15
 20
19.0088
 11
-20.9912
 21
25
  0
LINE
  8
0
 10
9.00879
 20
25
 11
15
 21
30.9912
  0
LINE
  8
0
 10
15
 20
30.9912
 11
20.9912
 21
25
  0
LINE
  8
0
 10
20.9912
 20
25
 11
15
 21
19.0088
  0
LINE
  8
0
 10
15
 20
19.0088
 11
9.00879
 21
25
  0
LINE
  8
0
 10
39.0088
 20
25
 11
45
 21
30.9912
  0
LINE
  8
0
 10
45
 20
30.9912
 11
50.9912
 21
25
  0
LINE
  8
0
 10
50.9912
 20
25
 11
45
 21
19.0088
  0
LINE
  8
0
 10
45
 20
19.0088
 11
39.0088
 21
25
  0
LINE
  8
0
 10
-29.9936
 20
22.0035
 11
-29.9936
 21
22.0099
  0
LINE
  8
0
 10
-29.9936
 20
22.0099
 11
-30
 21
22.0067
  0
LINE
  8
0
 10
-30
 20
22.0067
 11
-30.0064
 21
22.0099
  0
LINE
  8
0
 10
-30.0064
 20
22.0099
 11
-30.0064
 21
22.0035
  0
LINE
  8
0
 10
-30.0064
 20
22.0035
 11
-35.9862
 21
19.0134
  0
LINE
  8
0
 10
-35.9862
 20
19.0134
 11
-32.9961
 21
24.9936
  0
LINE
  8
0
 10
-32.9961
 20
24.9936
 11
-32.9897
 21
24.9936
  0
LINE
  8
0
 10
-32.9897
 20
24.9936
 11
-32.9929
 21
25
  0
LINE
  8
0
 10
-32.9929
 20
25
 11
-32.9897
 21
25.0064
  0
LINE
  8
0
 10
-32.9897
 20
25.0064
 11
-32.9961
 21
25.0064
  0
LINE
  8
0
 10
-32.9961
 20
25.0064
 11
-35.9862
 21
30.9866
  0
LINE
  8
0
 10
-35.9862
 20
30.9866
 11
-30.0064
 21
27.9965
  0
LINE
  8
0
 10
-30.0064
 20
27.9965
 11
-30.0064
 21
27.9901
  0
LINE
  8
0
 10
-30.0064
 20
27.9901
 11
-30
 21
27.9933
  0
LINE
  8
0
 10
-30
 20
27.9933
 11
-29.9936
 21
27.9901
  0
LINE
  8
0
 10
-29.9936
 20
27.9901
 11
-29.9936
 21
27.9965
  0
LINE
  8
0
 10
-29.9936
 20
27.9965
 11
-24.0138
 21
30.9866
  0
LINE
  8
0
 10
-24.0138
 20
30.9866
 11
-27.0039
 21
25.0064
  0
LINE
  8
0
 10
-27.0039
 20
25.0064
 11
-27.0103
 21
25.0064
  0
LINE
  8
0
 10
-27.0103
 20
25.0064
 11
-27.0071
 21
25
  0
LINE
  8
0
 10
-27.0071
 20
25
 11
-27.0103
 21
24.9936
  0
LINE
  8
0
 10
-27.0103
 20
24.9936
 11
-27.0039
 21
24.9936
  0
LINE
  8
0
 10
-27.0039
 20
24.9936
 11
-24.0138
 21
19.0134
  0
LINE
  8
0
 10
-24.0138
 20
19.0134
 11
-29.9936
 21
22.0035
  0
LINE
  8
0
 10
30.0064
 20
22.0035
 11
30.0064
 21
22.0099
  0
LINE
  8
0
 10
30.0064
 20
22.0099
 11
30
 21
22.0067
  0
LINE
  8
0
 10
30
 20
22.0067
 11
29.9936
 21
22.0099
  0
LINE
  8
0
 10
29.9936
 20
22.0099
 11
29.9936
 21
22.0035
  0
LINE
  8
0
 10
29.9936
 20
22.0035
 11
24.0138
 21
19.0134
  0
LINE
  8
0
 10
24.0138
 20
19.0134
 11
27.0039
 21
24.9936
  0
LINE
  8
0
 10
27.0039
 20
24.9936
 11
27.0103
 21
24.9936
  0
LINE
  8
0
 10
27.0103
 20
24.9936
 11
27.0071
 21
25
  0
LINE
  8
0
 10
27.0071
 20
25
 11
27.0103
 21
25.0064
  0
LINE
  8
0
 10
27.0103
 20
25.0064
 11
27.0039
 21
25.0064
  0
LINE
  8
0
 10
27.0039
 20
25.0064
 11
24.0138
 21
30.9866
  0
LINE
  8
0
 10
24.0138
 20
30.9866
 11
29.9936
 21
27.9965
  0
LINE
  8
0
 10
29.9936
 20
27.9965
 11
29.9936
 21
27.9901
  0
LINE
  8
0
 10
29.9936
 20
27.9901
 11
30
 21
27.9933
  0
LINE
  8
0
 10
30
 20
27.9933
 11
30.0064
 21
27.9901
  0
LINE
  8
0
 10
30.0064
 20
27.9901
 11
30.0064
 21
27.9965
  0
LINE
  8
0
 10
30.0064
 20
27.9965
 11
35.9862
 21
30.9866
  0
LINE
  8
0
 10
35.9862
 20
30.9866
 11
32.9961
 21
25.0064
  0
LINE
  8
0
 10
32.9961
 20
25.0064
 11
32.9897
 21
25.0064
  0
LINE
  8
0
 10
32.9897
 20
25.0064
 11
32.9929
 21
25
  0
LINE
  8
0
 10
32.9929
 20
25
 11
32.9897
 21
24.9936
  0
LINE
  8
0
 10
32.9897
 20
24.9936
 11
32.9961
 21
24.9936
  0
LINE
  8
0
 10
32.9961
 20
24.9936
 11
35.9862
 21
19.0134
  0
LINE
  8
0
 10
35.9862
 20
19.0134
 11
30.0064
 21
22.0035
  0
LINE
  8
0
 10
0.00640869
 20
22.0035
 11
0.00640869
 21
22.0099
  0
LINE
  8
0
 10
0.00640869
 20
22.0099
 11
0
 21
22.0067
  0
LINE
  8
0
 10
0
 20
22.0067
 11
-0.00640869
 21
22.0099
  0
LINE
  8
0
 10
-0.00640869
 20
22.0099
 11
-0.00640869
 21
22.0035
  0
LINE
  8
0
 10
-0.00640869
 20
22.0035
 11
-5.98618
 21
19.0134
  0
LINE
  8
0
 10
-5.98618
 20
19.0134
 11
-2.99606
 21
24.9936
  0
LINE
  8
0
 10
-2.99606
 20
24.9936
 11
-2.98965
 21
24.9936
  0
LINE
  8
0
 10
-2.98965
 20
24.9936
 11
-2.99286
 21
25
  0
LINE
  8
0
 10
-2.99286
 20
25
 11
-2.98965
 21
25.0064
  0
LINE
  8
0
 10
-2.98965
 20
25.0064
 11
-2.99606
 21
25.0064
  0
LINE
  8
0
 10
-2.99606
 20
25.0064
 11
-5.98618
 21
30.9866
  0
LINE
  8
0
 10
-5.98618
 20
30.9866
 11
-0.00640869
 21
27.9965
  0
LINE
  8
0
 10
-0.00640869
 20
27.9965
 11
-0.00640869
 21
27.9901
  0
LINE
  8
0
 10
-0.00640869
 20
27.9901
 11
0
 21
27.9933
  0
LINE
  8
0
 10
0
 20
27.9933
 11
0.00640869
 21
27.9901
  0
LINE
  8
0
 10
0.00640869
 20
27.9901
 11
0.00640869
 21
27.9965
  0
LINE
  8
0
 10
0.00640869
 20
27.9965
 11
5.98618
 21
30.9866
  0
LINE
  8
0
 10
5.98618
 20
30.9866
 11
2.99606
 21
25.0064
  0
LINE
  8
0
 10
2.99606
 20
25.0064
 11
2.98965
 21
25.0064
  0
LINE
  8
0
 10
2.98965
 20
25.0064
 11
2.99286
 21
25
  0
LINE
  8
0
 10
2.99286
 20
25
 11
2.98965
 21
24.9936
  0
LINE
  8
0
 10
2.98965
 20
24.9936
 11
2.99606
 21
24.9936
  0
LINE
  8
0
 10
2.99606
 20
24.9936
 11
5.98618
 21
19.0134
  0
LINE
  8
0
 10
5.98618
 20
19.0134
 11
0.00640869
 21
22.0035
  0
LINE
  8
0
 10
-55.8984
 20
19.9557
 11
-55.3417
 21
21.6691
  0
LINE
  8
0
 10
-55.3417
 20
21.6691
 11
-54.0138
 21
19.0134
  0
LINE
  8
0
 10
-54.0138
 20
19.0134
 11
-55.8984
 21
19.9557
  0
LINE
  8
0
 10
55.3417
 20
21.6691
 11
55.8984
 21
19.9557
  0
LINE
  8
0
 10
55.8984
 20
19.9557
 11
54.0138
 21
19.0134
  0
LINE
  8
0
 10
54.0138
 20
19.0134
 11
55.3417
 21
21.6691
  0
LINE
  8
0
 10
-35.6266
 20
12
 11
-35.5376
 21
12.2929
  0
LINE
  8
0
 10
-35.5376
 20
12.2929
 11
-34.9837
 21
13.3298
  0
LINE
  8
0
 10
-34.9837
 20
13.3298
 11
-34.238
 21
14.238
  0
LINE
  8
0
 10
-34.238
 20
14.238
 11
-33.3298
 21
14.9837
  0
LINE
  8
0
 10
-33.3298
 20
14.9837
 11
-32.2929
 21
15.5376
  0
LINE
  8
0
 10
-32.2929
 20
15.5376
 11
-31.1696
 21
15.8781
  0
LINE
  8
0
 10
-31.1696
 20
15.8781
 11
-30
 21
15.9935
  0
LINE
  8
0
 10
-30
 20
15.9935
 11
-28.8304
 21
15.8791
  0
LINE
  8
0
 10
-28.8304
 20
15.8791
 11
-27.7071
 21
15.5376
  0
LINE
  8
0
 10
-27.7071
 20
15.5376
 11
-26.6698
 21
14.9832
  0
LINE
  8
0
 10
-26.6698
 20
14.9832
 11
-25.762
 21
14.238
  0
LINE
  8
0
 10
-25.762
 20
14.238
 11
-25.0159
 21
13.3293
  0
LINE
  8
0
 10
-25.0159
 20
13.3293
 11
-24.4624
 21
12.2929
  0
LINE
  8
0
 10
-24.4624
 20
12.2929
 11
-24.3736
 21
12
  0
LINE
  8
0
 10
-24.3736
 20
12
 11
-35.6266
 21
12
  0
LINE
  8
0
 10
-5.62662
 20
12
 11
-5.53757
 21
12.2929
  0
LINE
  8
0
 10
-5.53757
 20
12.2929
 11
-4.98367
 21
13.3298
  0
LINE
  8
0
 10
-4.98367
 20
13.3298
 11
-4.23798
 21
14.238
  0
LINE
  8
0
 10
-4.23798
 20
14.238
 11
-3.32977
 21
14.9837
  0
LINE
  8
0
 10
-3.32977
 20
14.9837
 11
-2.29294
 21
15.5376
  0
LINE
  8
0
 10
-2.29294
 20
15.5376
 11
-1.16959
 21
15.8781
  0
LINE
  8
0
 10
-1.16959
 20
15.8781
 11
0
 21
15.9935
  0
LINE
  8
0
 10
0
 20
15.9935
 11
1.16959
 21
15.8791
  0
LINE
  8
0
 10
1.16959
 20
15.8791
 11
2.29294
 21
15.5376
  0
LINE
  8
0
 10
2.29294
 20
15.5376
 11
3.33023
 21
14.9832
  0
LINE
  8
0
 10
3.33023
 20
14.9832
 11
4.23798
 21
14.238
  0
LINE
  8
0
 10
4.23798
 20
14.238
 11
4.98413
 21
13.3293
  0
LINE
  8
0
 10
4.98413
 20
13.3293
 11
5.53757
 21
12.2929
  0
LINE
  8
0
 10
5.53757
 20
12.2929
 11
5.62637
 21
12
  0
LINE
  8
0
 10
5.62637
 20
12
 11
-5.62662
 21
12
  0
LINE
  8
0
 10
24.3734
 20
12
 11
24.4624
 21
12.2929
  0
LINE
  8
0
 10
24.4624
 20
12.2929
 11
25.0163
 21
13.3298
  0
LINE
  8
0
 10
25.0163
 20
13.3298
 11
25.762
 21
14.238
  0
LINE
  8
0
 10
25.762
 20
14.238
 11
26.6702
 21
14.9837
  0
LINE
  8
0
 10
26.6702
 20
14.9837
 11
27.7071
 21
15.5376
  0
LINE
  8
0
 10
27.7071
 20
15.5376
 11
28.8304
 21
15.8781
  0
LINE
  8
0
 10
28.8304
 20
15.8781
 11
30
 21
15.9935
  0
LINE
  8
0
 10
30
 20
15.9935
 11
31.1696
 21
15.8791
  0
LINE
  8
0
 10
31.1696
 20
15.8791
 11
32.2929
 21
15.5376
  0
LINE
  8
0
 10
32.2929
 20
15.5376
 11
33.3302
 21
14.9832
  0
LINE
  8
0
 10
33.3302
 20
14.9832
 11
34.238
 21
14.238
  0
LINE
  8
0
 10
34.238
 20
14.238
 11
34.9841
 21
13.3293
  0
LINE
  8
0
 10
34.9841
 20
13.3293
 11
35.5376
 21
12.2929
  0
LINE
  8
0
 10
35.5376
 20
12.2929
 11
35.6264
 21
12
  0
LINE
  8
0
 10
35.6264
 20
12
 11
24.3734
 21
12
  0
LINE
  8
0
 10
11.0066
 20
12
 11
9.01337
 21
15.9862
  0
LINE
  8
0
 10
9.01337
 20
15.9862
 11
14.9936
 21
12.9961
  0
LINE
  8
0
 10
14.9936
 20
12.9961
 11
14.9936
 21
12.9897
  0
LINE
  8
0
 10
14.9936
 20
12.9897
 11
15
 21
12.9929
  0
LINE
  8
0
 10
15
 20
12.9929
 11
15.0064
 21
12.9897
  0
LINE
  8
0
 10
15.0064
 20
12.9897
 11
15.0064
 21
12.9961
  0
LINE
  8
0
 10
15.0064
 20
12.9961
 11
20.9866
 21
15.9862
  0
LINE
  8
0
 10
20.9866
 20
15.9862
 11
18.9934
 21
12
  0
LINE
  8
0
 10
18.9934
 20
12
 11
11.0066
 21
12
  0
LINE
  8
0
 10
-18.9934
 20
12
 11
-20.9866
 21
15.9862
  0
LINE
  8
0
 10
-20.9866
 20
15.9862
 11
-15.0064
 21
12.9961
  0
LINE
  8
0
 10
-15.0064
 20
12.9961
 11
-15.0064
 21
12.9897
  0
LINE
  8
0
 10
-15.0064
 20
12.9897
 11
-15
 21
12.9929
  0
LINE
  8
0
 10
-15
 20
12.9929
 11
-14.9936
 21
12.9897
  0
LINE
  8
0
 10
-14.9936
 20
12.9897
 11
-14.9936
 21
12.9961
  0
LINE
  8
0
 10
-14.9936
 20
12.9961
 11
-9.01337
 21
15.9862
  0
LINE
  8
0
 10
-9.01337
 20
15.9862
 11
-11.0066
 21
12
  0
LINE
  8
0
 10
-11.0066
 20
12
 11
-18.9934
 21
12
  0
LINE
  8
0
 10
-48.9934
 20
12
 11
-50.9866
 21
15.9862
  0
LINE
  8
0
 10
-50.9866
 20
15.9862
 11
-45.0064
 21
12.9961
  0
LINE
  8
0
 10
-45.0064
 20
12.9961
 11
-45.0064
 21
12.9897
  0
LINE
  8
0
 10
-45.0064
 20
12.9897
 11
-45
 21
12.9929
  0
LINE
  8
0
 10
-45
 20
12.9929
 11
-44.9936
 21
12.9897
  0
LINE
  8
0
 10
-44.9936
 20
12.9897
 11
-44.9936
 21
12.9961
  0
LINE
  8
0
 10
-44.9936
 20
12.9961
 11
-39.0134
 21
15.9862
  0
LINE
  8
0
 10
-39.0134
 20
15.9862
 11
-41.0066
 21
12
  0
LINE
  8
0
 10
-41.0066
 20
12
 11
-48.9934
 21
12
  0
LINE
  8
0
 10
41.0066
 20
12
 11
39.0134
 21
15.9862
  0
LINE
  8
0
 10
39.0134
 20
15.9862
 11
44.9936
 21
12.9961
  0
LINE
  8
0
 10
44.9936
 20
12.9961
 11
44.9936
 21
12.9897
  0
LINE
  8
0
 10
44.9936
 20
12.9897
 11
45
 21
12.9929
  0
LINE
  8
0
 10
45
 20
12.9929
 11
45.0064
 21
12.9897
  0
LINE
  8
0
 10
45.0064
 20
12.9897
 11
45.0064
 21
12.9961
  0
LINE
  8
0
 10
45.0064
 20
12.9961
 11
50.9866
 21
15.9862
  0
LINE
  8
0
 10
50.9866
 20
15.9862
 11
48.9934
 21
12
  0
LINE
  8
0
 10
48.9934
 20
12
 11
41.0066
 21
12
  0
LINE
  8
0
 10
54.3734
 20
12
 11
54.4624
 21
12.2929
  0
LINE
  8
0
 10
54.4624
 20
12.2929
 11
55.0163
 21
13.3298
  0
LINE
  8
0
 10
55.0163
 20
13.3298
 11
55.762
 21
14.238
  0
LINE
  8
0
 10
55.762
 20
14.238
 11
56.6702
 21
14.9837
  0
LINE
  8
0
 10
56.6702
 20
14.9837
 11
57.3892
 21
15.3677
  0
LINE
  8
0
 10
57.3892
 20
15.3677
 11
58.4834
 21
12
  0
LINE
  8
0
 10
58.4834
 20
12
 11
54.3734
 21
12
  0
LINE
  8
0
 10
-58.4834
 20
12
 11
-57.3892
 21
15.3677
  0
LINE
  8
0
 10
-57.3892
 20
15.3677
 11
-56.6698
 21
14.9832
  0
LINE
  8
0
 10
-56.6698
 20
14.9832
 11
-55.762
 21
14.238
  0
LINE
  8
0
 10
-55.762
 20
14.238
 11
-55.0159
 21
13.3293
  0
LINE
  8
0
 10
-55.0159
 20
13.3293
 11
-54.4624
 21
12.2929
  0
LINE
  8
0
 10
-54.4624
 20
12.2929
 11
-54.3736
 21
12
  0
LINE
  8
0
 10
-54.3736
 20
12
 11
-58.4834
 21
12
  0
LINE
  8
0
 10
-10
 20
7
 11
-10
 21
11
  0
LINE
  8
0
 10
-10
 20
11
 11
10
 21
11
  0
LINE
  8
0
 10
10
 20
11
 11
10
 21
7
  0
LINE
  8
0
 10
10
 20
7
 11
-10
 21
7
  0
LINE
  8
0
 10
-68.6534
 20
2.70622
 11
-68.7785
 21
2.71805
  0
LINE
  8
0
 10
-68.7785
 20
2.71805
 11
-68.9026
 21
2.7377
  0
LINE
  8
0
 10
-68.9026
 20
2.7377
 11
-69.0252
 21
2.76511
  0
LINE
  8
0
 10
-69.0252
 20
2.76511
 11
-69.1459
 21
2.80016
  0
LINE
  8
0
 10
-69.1459
 20
2.80016
 11
-69.2641
 21
2.84273
  0
LINE
  8
0
 10
-69.2641
 20
2.84273
 11
-69.3794
 21
2.89262
  0
LINE
  8
0
 10
-69.3794
 20
2.89262
 11
-69.4914
 21
2.94966
  0
LINE
  8
0
 10
-69.4914
 20
2.94966
 11
-69.5995
 21
3.01363
  0
LINE
  8
0
 10
-69.5995
 20
3.01363
 11
-69.7034
 21
3.08424
  0
LINE
  8
0
 10
-69.7034
 20
3.08424
 11
-69.8027
 21
3.16125
  0
LINE
  8
0
 10
-69.8027
 20
3.16125
 11
-69.897
 21
3.24434
  0
LINE
  8
0
 10
-69.897
 20
3.24434
 11
-69.9858
 21
3.33318
  0
LINE
  8
0
 10
-69.9858
 20
3.33318
 11
-70.0689
 21
3.42743
  0
LINE
  8
0
 10
-70.0689
 20
3.42743
 11
-70.1459
 21
3.5267
  0
LINE
  8
0
 10
-70.1459
 20
3.5267
 11
-70.2165
 21
3.63062
  0
LINE
  8
0
 10
-70.2165
 20
3.63062
 11
-70.2805
 21
3.73877
  0
LINE
  8
0
 10
-70.2805
 20
3.73877
 11
-70.3375
 21
3.85072
  0
LINE
  8
0
 10
-70.3375
 20
3.85072
 11
-70.3874
 21
3.96602
  0
LINE
  8
0
 10
-70.3874
 20
3.96602
 11
-70.43
 21
4.08424
  0
LINE
  8
0
 10
-70.43
 20
4.08424
 11
-70.465
 21
4.2049
  0
LINE
  8
0
 10
-70.465
 20
4.2049
 11
-70.4924
 21
4.32751
  0
LINE
  8
0
 10
-70.4924
 20
4.32751
 11
-70.5121
 21
4.45161
  0
LINE
  8
0
 10
-70.5121
 20
4.45161
 11
-70.5239
 21
4.57669
  0
LINE
  8
0
 10
-70.5239
 20
4.57669
 11
-70.5279
 21
4.70227
  0
LINE
  8
0
 10
-70.5279
 20
4.70227
 11
-70.5239
 21
4.82785
  0
LINE
  8
0
 10
-70.5239
 20
4.82785
 11
-70.5121
 21
4.95294
  0
LINE
  8
0
 10
-70.5121
 20
4.95294
 11
-70.4924
 21
5.07704
  0
LINE
  8
0
 10
-70.4924
 20
5.07704
 11
-70.465
 21
5.19966
  0
LINE
  8
0
 10
-70.465
 20
5.19966
 11
-70.43
 21
5.32031
  0
LINE
  8
0
 10
-70.43
 20
5.32031
 11
-70.3874
 21
5.43852
  0
LINE
  8
0
 10
-70.3874
 20
5.43852
 11
-70.3375
 21
5.55383
  0
LINE
  8
0
 10
-70.3375
 20
5.55383
 11
-70.2805
 21
5.66579
  0
LINE
  8
0
 10
-70.2805
 20
5.66579
 11
-70.2165
 21
5.77393
  0
LINE
  8
0
 10
-70.2165
 20
5.77393
 11
-70.1459
 21
5.87784
  0
LINE
  8
0
 10
-70.1459
 20
5.87784
 11
-70.0689
 21
5.97713
  0
LINE
  8
0
 10
-70.0689
 20
5.97713
 11
-69.9858
 21
6.07137
  0
LINE
  8
0
 10
-69.9858
 20
6.07137
 11
-69.897
 21
6.16022
  0
LINE
  8
0
 10
-69.897
 20
6.16022
 11
-69.8027
 21
6.2433
  0
LINE
  8
0
 10
-69.8027
 20
6.2433
 11
-69.7034
 21
6.32031
  0
LINE
  8
0
 10
-69.7034
 20
6.32031
 11
-69.5995
 21
6.39093
  0
LINE
  8
0
 10
-69.5995
 20
6.39093
 11
-69.4914
 21
6.4549
  0
LINE
  8
0
 10
-69.4914
 20
6.4549
 11
-69.3794
 21
6.51193
  0
LINE
  8
0
 10
-69.3794
 20
6.51193
 11
-69.2641
 21
6.56183
  0
LINE
  8
0
 10
-69.2641
 20
6.56183
 11
-69.1459
 21
6.60439
  0
LINE
  8
0
 10
-69.1459
 20
6.60439
 11
-69.0252
 21
6.63943
  0
LINE
  8
0
 10
-69.0252
 20
6.63943
 11
-68.9026
 21
6.66685
  0
LINE
  8
0
 10
-68.9026
 20
6.66685
 11
-68.7785
 21
6.68651
  0
LINE
  8
0
 10
-68.7785
 20
6.68651
 11
-68.6534
 21
6.69833
  0
LINE
  8
0
 10
-68.6534
 20
6.69833
 11
-68.5279
 21
6.70227
  0
LINE
  8
0
 10
-68.5279
 20
6.70227
 11
-68.4023
 21
6.69833
  0
LINE
  8
0
 10
-68.4023
 20
6.69833
 11
-68.2772
 21
6.68651
  0
LINE
  8
0
 10
-68.2772
 20
6.68651
 11
-68.1531
 21
6.66685
  0
LINE
  8
0
 10
-68.1531
 20
6.66685
 11
-68.0305
 21
6.63943
  0
LINE
  8
0
 10
-68.0305
 20
6.63943
 11
-67.9098
 21
6.60439
  0
LINE
  8
0
 10
-67.9098
 20
6.60439
 11
-67.7916
 21
6.56183
  0
LINE
  8
0
 10
-67.7916
 20
6.56183
 11
-67.6763
 21
6.51193
  0
LINE
  8
0
 10
-67.6763
 20
6.51193
 11
-67.5643
 21
6.4549
  0
LINE
  8
0
 10
-67.5643
 20
6.4549
 11
-67.4562
 21
6.39093
  0
LINE
  8
0
 10
-67.4562
 20
6.39093
 11
-67.3523
 21
6.32031
  0
LINE
  8
0
 10
-67.3523
 20
6.32031
 11
-67.253
 21
6.2433
  0
LINE
  8
0
 10
-67.253
 20
6.2433
 11
-67.1588
 21
6.16022
  0
LINE
  8
0
 10
-67.1588
 20
6.16022
 11
-67.0699
 21
6.07137
  0
LINE
  8
0
 10
-67.0699
 20
6.07137
 11
-66.9868
 21
5.97713
  0
LINE
  8
0
 10
-66.9868
 20
5.97713
 11
-66.9098
 21
5.87784
  0
LINE
  8
0
 10
-66.9098
 20
5.87784
 11
-66.8392
 21
5.77393
  0
LINE
  8
0
 10
-66.8392
 20
5.77393
 11
-66.7752
 21
5.66579
  0
LINE
  8
0
 10
-66.7752
 20
5.66579
 11
-66.7182
 21
5.55383
  0
LINE
  8
0
 10
-66.7182
 20
5.55383
 11
-66.6683
 21
5.43852
  0
LINE
  8
0
 10
-66.6683
 20
5.43852
 11
-66.6257
 21
5.32031
  0
LINE
  8
0
 10
-66.6257
 20
5.32031
 11
-66.5907
 21
5.19966
  0
LINE
  8
0
 10
-66.5907
 20
5.19966
 11
-66.5633
 21
5.07704
  0
LINE
  8
0
 10
-66.5633
 20
5.07704
 11
-66.5436
 21
4.95294
  0
LINE
  8
0
 10
-66.5436
 20
4.95294
 11
-66.5318
 21
4.82785
  0
LINE
  8
0
 10
-66.5318
 20
4.82785
 11
-66.5279
 21
4.70227
  0
LINE
  8
0
 10
-66.5279
 20
4.70227
 11
-66.5318
 21
4.57669
  0
LINE
  8
0
 10
-66.5318
 20
4.57669
 11
-66.5436
 21
4.45161
  0
LINE
  8
0
 10
-66.5436
 20
4.45161
 11
-66.5633
 21
4.32751
  0
LINE
  8
0
 10
-66.5633
 20
4.32751
 11
-66.5907
 21
4.2049
  0
LINE
  8
0
 10
-66.5907
 20
4.2049
 11
-66.6257
 21
4.08424
  0
LINE
  8
0
 10
-66.6257
 20
4.08424
 11
-66.6683
 21
3.96602
  0
LINE
  8
0
 10
-66.6683
 20
3.96602
 11
-66.7182
 21
3.85072
  0
LINE
  8
0
 10
-66.7182
 20
3.85072
 11
-66.7752
 21
3.73877
  0
LINE
  8
0
 10
-66.7752
 20
3.73877
 11
-66.8392
 21
3.63062
  0
LINE
  8
0
 10
-66.8392
 20
3.63062
 11
-66.9098
 21
3.5267
  0
LINE
  8
0
 10
-66.9098
 20
3.5267
 11
-66.9868
 21
3.42743
  0
LINE
  8
0
 10
-66.9868
 20
3.42743
 11
-67.0699
 21
3.33318
  0
LINE
  8
0
 10
-67.0699
 20
3.33318
 11
-67.1588
 21
3.24434
  0
LINE
  8
0
 10
-67.1588
 20
3.24434
 11
-67.253
 21
3.16125
  0
LINE
  8
0
 10
-67.253
 20
3.16125
 11
-67.3523
 21
3.08424
  0
LINE
  8
0
 10
-67.3523
 20
3.08424
 11
-67.4562
 21
3.01363
  0
LINE
  8
0
 10
-67.4562
 20
3.01363
 11
-67.5643
 21
2.94966
  0
LINE
  8
0
 10
-67.5643
 20
2.94966
 11
-67.6763
 21
2.89262
  0
LINE
  8
0
 10
-67.6763
 20
2.89262
 11
-67.7916
 21
2.84273
  0
LINE
  8
0
 10
-67.7916
 20
2.84273
 11
-67.9098
 21
2.80016
  0
LINE
  8
0
 10
-67.9098
 20
2.80016
 11
-68.0305
 21
2.76511
  0
LINE
  8
0
 10
-68.0305
 20
2.76511
 11
-68.1531
 21
2.7377
  0
LINE
  8
0
 10
-68.1531
 20
2.7377
 11
-68.2772
 21
2.71805
  0
LINE
  8
0
 10
-68.2772
 20
2.71805
 11
-68.4023
 21
2.70622
  0
LINE
  8
0
 10
-68.4023
 20
2.70622
 11
-68.5279
 21
2.70227
  0
LINE
  8
0
 10
-68.5279
 20
2.70227
 11
-68.6534
 21
2.70622
  0
LINE
  8
0
 10
68.4023
 20
2.70622
 11
68.2772
 21
2.71805
  0
LINE
  8
0
 10
68.2772
 20
2.71805
 11
68.1531
 21
2.7377
  0
LINE
  8
0
 10
68.1531
 20
2.7377
 11
68.0305
 21
2.76511
  0
LINE
  8
0
 10
68.0305
 20
2.76511
 11
67.9098
 21
2.80016
  0
LINE
  8
0
 10
67.9098
 20
2.80016
 11
67.7916
 21
2.84273
  0
LINE
  8
0
 10
67.7916
 20
2.84273
 11
67.6763
 21
2.89262
  0
LINE
  8
0
 10
67.6763
 20
2.89262
 11
67.5643
 21
2.94966
  0
LINE
  8
0
 10
67.5643
 20
2.94966
 11
67.4562
 21
3.01363
  0
LINE
  8
0
 10
67.4562
 20
3.01363
 11
67.3523
 21
3.08424
  0
LINE
  8
0
 10
67.3523
 20
3.08424
 11
67.253
 21
3.16125
  0
LINE
  8
0
 10
67.253
 20
3.16125
 11
67.1588
 21
3.24434
  0
LINE
  8
0
 10
67.1588
 20
3.24434
 11
67.0699
 21
3.33318
  0
LINE
  8
0
 10
67.0699
 20
3.33318
 11
66.9868
 21
3.42743
  0
LINE
  8
0
 10
66.9868
 20
3.42743
 11
66.9098
 21
3.5267
  0
LINE
  8
0
 10
66.9098
 20
3.5267
 11
66.8392
 21
3.63062
  0
LINE
  8
0
 10
66.8392
 20
3.63062
 11
66.7752
 21
3.73877
  0
LINE
  8
0
 10
66.7752
 20
3.73877
 11
66.7182
 21
3.85072
  0
LINE
  8
0
 10
66.7182
 20
3.85072
 11
66.6683
 21
3.96602
  0
LINE
  8
0
 10
66.6683
 20
3.96602
 11
66.6257
 21
4.08424
  0
LINE
  8
0
 10
66.6257
 20
4.08424
 11
66.5907
 21
4.2049
  0
LINE
  8
0
 10
66.5907
 20
4.2049
 11
66.5633
 21
4.32751
  0
LINE
  8
0
 10
66.5633
 20
4.32751
 11
66.5436
 21
4.45161
  0
LINE
  8
0
 10
66.5436
 20
4.45161
 11
66.5318
 21
4.57669
  0
LINE
  8
0
 10
66.5318
 20
4.57669
 11
66.5279
 21
4.70227
  0
LINE
  8
0
 10
66.5279
 20
4.70227
 11
66.5318
 21
4.82785
  0
LINE
  8
0
 10
66.5318
 20
4.82785
 11
66.5436
 21
4.95294
  0
LINE
  8
0
 10
66.5436
 20
4.95294
 11
66.5633
 21
5.07704
  0
LINE
  8
0
 10
66.5633
 20
5.07704
 11
66.5907
 21
5.19966
  0
LINE
  8
0
 10
66.5907
 20
5.19966
 11
66.6257
 21
5.32031
  0
LINE
  8
0
 10
66.6257
 20
5.32031
 11
66.6683
 21
5.43852
  0
LINE
  8
0
 10
66.6683
 20
5.43852
 11
66.7182
 21
5.55383
  0
LINE
  8
0
 10
66.7182
 20
5.55383
 11
66.7752
 21
5.66579
  0
LINE
  8
0
 10
66.7752
 20
5.66579
 11
66.8392
 21
5.77393
  0
LINE
  8
0
 10
66.8392
 20
5.77393
 11
66.9098
 21
5.87784
  0
LINE
  8
0
 10
66.9098
 20
5.87784
 11
66.9868
 21
5.97713
  0
LINE
  8
0
 10
66.9868
 20
5.97713
 11
67.0699
 21
6.07137
  0
LINE
  8
0
 10
67.0699
 20
6.07137
 11
67.1588
 21
6.16022
  0
LINE
  8
0
 10
67.1588
 20
6.16022
 11
67.253
 21
6.2433
  0
LINE
  8
0
 10
67.253
 20
6.2433
 11
67.3523
 21
6.32031
  0
LINE
  8
0
 10
67.3523
 20
6.32031
 11
67.4562
 21
6.39093
  0
LINE
  8
0
 10
67.4562
 20
6.39093
 11
67.5643
 21
6.4549
  0
LINE
  8
0
 10
67.5643
 20
6.4549
 11
67.6763
 21
6.51193
  0
LINE
  8
0
 10
67.6763
 20
6.51193
 11
67.7916
 21
6.56183
  0
LINE
  8
0
 10
67.7916
 20
6.56183
 11
67.9098
 21
6.60439
  0
LINE
  8
0
 10
67.9098
 20
6.60439
 11
68.0305
 21
6.63943
  0
LINE
  8
0
 10
68.0305
 20
6.63943
 11
68.1531
 21
6.66685
  0
LINE
  8
0
 10
68.1531
 20
6.66685
 11
68.2772
 21
6.68651
  0
LINE
  8
0
 10
68.2772
 20
6.68651
 11
68.4023
 21
6.69833
  0
LINE
  8
0
 10
68.4023
 20
6.69833
 11
68.5279
 21
6.70227
  0
LINE
  8
0
 10
68.5279
 20
6.70227
 11
68.6534
 21
6.69833
  0
LINE
  8
0
 10
68.6534
 20
6.69833
 11
68.7785
 21
6.68651
  0
LINE
  8
0
 10
68.7785
 20
6.68651
 11
68.9026
 21
6.66685
  0
LINE
  8
0
 10
68.9026
 20
6.66685
 11
69.0252
 21
6.63943
  0
LINE
  8
0
 10
69.0252
 20
6.63943
 11
69.1459
 21
6.60439
  0
LINE
  8
0
 10
69.1459
 20
6.60439
 11
69.2641
 21
6.56183
  0
LINE
  8
0
 10
69.2641
 20
6.56183
 11
69.3794
 21
6.51193
  0
LINE
  8
0
 10
69.3794
 20
6.51193
 11
69.4914
 21
6.4549
  0
LINE
  8
0
 10
69.4914
 20
6.4549
 11
69.5995
 21
6.39093
  0
LINE
  8
0
 10
69.5995
 20
6.39093
 11
69.7034
 21
6.32031
  0
LINE
  8
0
 10
69.7034
 20
6.32031
 11
69.8027
 21
6.2433
  0
LINE
  8
0
 10
69.8027
 20
6.2433
 11
69.897
 21
6.16022
  0
LINE
  8
0
 10
69.897
 20
6.16022
 11
69.9858
 21
6.07137
  0
LINE
  8
0
 10
69.9858
 20
6.07137
 11
70.0689
 21
5.97713
  0
LINE
  8
0
 10
70.0689
 20
5.97713
 11
70.1459
 21
5.87784
  0
LINE
  8
0
 10
70.1459
 20
5.87784
 11
70.2165
 21
5.77393
  0
LINE
  8
0
 10
70.2165
 20
5.77393
 11
70.2805
 21
5.66579
  0
LINE
  8
0
 10
70.2805
 20
5.66579
 11
70.3375
 21
5.55383
  0
LINE
  8
0
 10
70.3375
 20
5.55383
 11
70.3874
 21
5.43852
  0
LINE
  8
0
 10
70.3874
 20
5.43852
 11
70.43
 21
5.32031
  0
LINE
  8
0
 10
70.43
 20
5.32031
 11
70.465
 21
5.19966
  0
LINE
  8
0
 10
70.465
 20
5.19966
 11
70.4924
 21
5.07704
  0
LINE
  8
0
 10
70.4924
 20
5.07704
 11
70.5121
 21
4.95294
  0
LINE
  8
0
 10
70.5121
 20
4.95294
 11
70.5239
 21
4.82785
  0
LINE
  8
0
 10
70.5239
 20
4.82785
 11
70.5279
 21
4.70227
  0
LINE
  8
0
 10
70.5279
 20
4.70227
 11
70.5239
 21
4.57669
  0
LINE
  8
0
 10
70.5239
 20
4.57669
 11
70.5121
 21
4.45161
  0
LINE
  8
0
 10
70.5121
 20
4.45161
 11
70.4924
 21
4.32751
  0
LINE
  8
0
 10
70.4924
 20
4.32751
 11
70.465
 21
4.2049
  0
LINE
  8
0
 10
70.465
 20
4.2049
 11
70.43
 21
4.08424
  0
LINE
  8
0
 10
70.43
 20
4.08424
 11
70.3874
 21
3.96602
  0
LINE
  8
0
 10
70.3874
 20
3.96602
 11
70.3375
 21
3.85072
  0
LINE
  8
0
 10
70.3375
 20
3.85072
 11
70.2805
 21
3.73877
  0
LINE
  8
0
 10
70.2805
 20
3.73877
 11
70.2165
 21
3.63062
  0
LINE
  8
0
 10
70.2165
 20
3.63062
 11
70.1459
 21
3.5267
  0
LINE
  8
0
 10
70.1459
 20
3.5267
 11
70.0689
 21
3.42743
  0
LINE
  8
0
 10
70.0689
 20
3.42743
 11
69.9858
 21
3.33318
  0
LINE
  8
0
 10
69.9858
 20
3.33318
 11
69.897
 21
3.24434
  0
LINE
  8
0
 10
69.897
 20
3.24434
 11
69.8027
 21
3.16125
  0
LINE
  8
0
 10
69.8027
 20
3.16125
 11
69.7034
 21
3.08424
  0
LINE
  8
0
 10
69.7034
 20
3.08424
 11
69.5995
 21
3.01363
  0
LINE
  8
0
 10
69.5995
 20
3.01363
 11
69.4914
 21
2.94966
  0
LINE
  8
0
 10
69.4914
 20
2.94966
 11
69.3794
 21
2.89262
  0
LINE
  8
0
 10
69.3794
 20
2.89262
 11
69.2641
 21
2.84273
  0
LINE
  8
0
 10
69.2641
 20
2.84273
 11
69.1459
 21
2.80016
  0
LINE
  8
0
 10
69.1459
 20
2.80016
 11
69.0252
 21
2.76511
  0
LINE
  8
0
 10
69.0252
 20
2.76511
 11
68.9026
 21
2.7377
  0
LINE
  8
0
 10
68.9026
 20
2.7377
 11
68.7785
 21
2.71805
  0
LINE
  8
0
 10
68.7785
 20
2.71805
 11
68.6534
 21
2.70622
  0
LINE
  8
0
 10
68.6534
 20
2.70622
 11
68.5279
 21
2.70227
  0
LINE
  8
0
 10
68.5279
 20
2.70227
 11
68.4023
 21
2.70622
  0
ENDSEC
  0
SECTION
  2
OBJECTS
  0
DICTIONARY
  0
ENDSEC
  0
EOF
