  0
SECTION
  2
BLOCKS
  0
ENDSEC
  0
SECTION
  2
ENTITIES
  0
LINE
  8
0
 10
0
 20
230.826
 11
-75
 21
0
  0
LINE
  8
0
 10
-75
 20
0
 11
75
 21
0
  0
LINE
  8
0
 10
75
 20
0
 11
0
 21
230.826
  0
LINE
  8
0
 10
-0.12558
 20
212.83
 11
-0.250656
 21
212.842
  0
LINE
  8
0
 10
-0.250656
 20
212.842
 11
-0.374756
 21
212.862
  0
LINE
  8
0
 10
-0.374756
 20
212.862
 11
-0.497375
 21
212.889
  0
LINE
  8
0
 10
-0.497375
 20
212.889
 11
-0.618027
 21
212.924
  0
LINE
  8
0
 10
-0.618027
 20
212.924
 11
-0.736237
 21
212.967
  0
LINE
  8
0
 10
-0.736237
 20
212.967
 11
-0.851547
 21
213.017
  0
LINE
  8
0
 10
-0.851547
 20
213.017
 11
-0.963501
 21
213.074
  0
LINE
  8
0
 10
-0.963501
 20
213.074
 11
-1.07164
 21
213.138
  0
LINE
  8
0
 10
-1.07164
 20
213.138
 11
-1.17557
 21
213.208
  0
LINE
  8
0
 10
-1.17557
 20
213.208
 11
-1.27484
 21
213.285
  0
LINE
  8
0
 10
-1.27484
 20
213.285
 11
-1.36908
 21
213.368
  0
LINE
  8
0
 10
-1.36908
 20
213.368
 11
-1.45793
 21
213.457
  0
LINE
  8
0
 10
-1.45793
 20
213.457
 11
-1.54102
 21
213.551
  0
LINE
  8
0
 10
-1.54102
 20
213.551
 11
-1.61803
 21
213.651
  0
LINE
  8
0
 10
-1.61803
 20
213.651
 11
-1.68864
 21
213.755
  0
LINE
  8
0
 10
-1.68864
 20
213.755
 11
-1.75261
 21
213.863
  0
LINE
  8
0
 10
-1.75261
 20
213.863
 11
-1.80965
 21
213.975
  0
LINE
  8
0
 10
-1.80965
 20
213.975
 11
-1.85954
 21
214.09
  0
LINE
  8
0
 10
-1.85954
 20
214.09
 11
-1.9021
 21
214.208
  0
LINE
  8
0
 10
-1.9021
 20
214.208
 11
-1.93716
 21
214.329
  0
LINE
  8
0
 10
-1.93716
 20
214.329
 11
-1.96457
 21
214.451
  0
LINE
  8
0
 10
-1.96457
 20
214.451
 11
-1.98422
 21
214.576
  0
LINE
  8
0
 10
-1.98422
 20
214.576
 11
-1.99605
 21
214.701
  0
LINE
  8
0
 10
-1.99605
 20
214.701
 11
-2
 21
214.826
  0
LINE
  8
0
 10
-2
 20
214.826
 11
-1.99605
 21
214.952
  0
LINE
  8
0
 10
-1.99605
 20
214.952
 11
-1.98422
 21
215.077
  0
LINE
  8
0
 10
-1.98422
 20
215.077
 11
-1.96457
 21
215.201
  0
LINE
  8
0
 10
-1.96457
 20
215.201
 11
-1.93716
 21
215.324
  0
LINE
  8
0
 10
-1.93716
 20
215.324
 11
-1.9021
 21
215.444
  0
LINE
  8
0
 10
-1.9021
 20
215.444
 11
-1.85954
 21
215.562
  0
LINE
  8
0
 10
-1.85954
 20
215.562
 11
-1.80965
 21
215.678
  0
LINE
  8
0
 10
-1.80965
 20
215.678
 11
-1.75261
 21
215.79
  0
LINE
  8
0
 10
-1.75261
 20
215.79
 11
-1.68864
 21
215.898
  0
LINE
  8
0
 10
-1.68864
 20
215.898
 11
-1.61803
 21
216.002
  0
LINE
  8
0
 10
-1.61803
 20
216.002
 11
-1.54102
 21
216.101
  0
LINE
  8
0
 10
-1.54102
 20
216.101
 11
-1.45793
 21
216.195
  0
LINE
  8
0
 10
-1.45793
 20
216.195
 11
-1.36908
 21
216.284
  0
LINE
  8
0
 10
-1.36908
 20
216.284
 11
-1.27484
 21
216.367
  0
LINE
  8
0
 10
-1.27484
 20
216.367
 11
-1.17557
 21
216.444
  0
LINE
  8
0
 10
-1.17557
 20
216.444
 11
-1.07164
 21
216.515
  0
LINE
  8
0
 10
-1.07164
 20
216.515
 11
-0.963501
 21
216.579
  0
LINE
  8
0
 10
-0.963501
 20
216.579
 11
-0.851547
 21
216.636
  0
LINE
  8
0
 10
-0.851547
 20
216.636
 11
-0.736237
 21
216.686
  0
LINE
  8
0
 10
-0.736237
 20
216.686
 11
-0.618027
 21
216.728
  0
LINE
  8
0
 10
-0.618027
 20
216.728
 11
-0.497375
 21
216.763
  0
LINE
  8
0
 10
-0.497375
 20
216.763
 11
-0.374756
 21
216.791
  0
LINE
  8
0
 10
-0.374756
 20
216.791
 11
-0.250656
 21
216.81
  0
LINE
  8
0
 10
-0.250656
 20
216.81
 11
-0.12558
 21
216.822
  0
LINE
  8
0
 10
-0.12558
 20
216.822
 11
0
 21
216.826
  0
LINE
  8
0
 10
0
 20
216.826
 11
0.12558
 21
216.822
  0
LINE
  8
0
 10
0.12558
 20
216.822
 11
0.250656
 21
216.81
  0
LINE
  8
0
 10
0.250656
 20
216.81
 11
0.374756
 21
216.791
  0
LINE
  8
0
 10
0.374756
 20
216.791
 11
0.497375
 21
216.763
  0
LINE
  8
0
 10
0.497375
 20
216.763
 11
0.618027
 21
216.728
  0
LINE
  8
0
 10
0.618027
 20
216.728
 11
0.736237
 21
216.686
  0
LINE
  8
0
 10
0.736237
 20
216.686
 11
0.851547
 21
216.636
  0
LINE
  8
0
 10
0.851547
 20
216.636
 11
0.963501
 21
216.579
  0
LINE
  8
0
 10
0.963501
 20
216.579
 11
1.07164
 21
216.515
  0
LINE
  8
0
 10
1.07164
 20
216.515
 11
1.17557
 21
216.444
  0
LINE
  8
0
 10
1.17557
 20
216.444
 11
1.27484
 21
216.367
  0
LINE
  8
0
 10
1.27484
 20
216.367
 11
1.36908
 21
216.284
  0
LINE
  8
0
 10
1.36908
 20
216.284
 11
1.45793
 21
216.195
  0
LINE
  8
0
 10
1.45793
 20
216.195
 11
1.54102
 21
216.101
  0
LINE
  8
0
 10
1.54102
 20
216.101
 11
1.61803
 21
216.002
  0
LINE
  8
0
 10
1.61803
 20
216.002
 11
1.68864
 21
215.898
  0
LINE
  8
0
 10
1.68864
 20
215.898
 11
1.75261
 21
215.79
  0
LINE
  8
0
 10
1.75261
 20
215.79
 11
1.80965
 21
215.678
  0
LINE
  8
0
 10
1.80965
 20
215.678
 11
1.85954
 21
215.562
  0
LINE
  8
0
 10
1.85954
 20
215.562
 11
1.9021
 21
215.444
  0
LINE
  8
0
 10
1.9021
 20
215.444
 11
1.93716
 21
215.324
  0
LINE
  8
0
 10
1.93716
 20
215.324
 11
1.96457
 21
215.201
  0
LINE
  8
0
 10
1.96457
 20
215.201
 11
1.98422
 21
215.077
  0
LINE
  8
0
 10
1.98422
 20
215.077
 11
1.99605
 21
214.952
  0
LINE
  8
0
 10
1.99605
 20
214.952
 11
2
 21
214.826
  0
LINE
  8
0
 10
2
 20
214.826
 11
1.99605
 21
214.701
  0
LINE
  8
0
 10
1.99605
 20
214.701
 11
1.98422
 21
214.576
  0
LINE
  8
0
 10
1.98422
 20
214.576
 11
1.96457
 21
214.451
  0
LINE
  8
0
 10
1.96457
 20
214.451
 11
1.93716
 21
214.329
  0
LINE
  8
0
 10
1.93716
 20
214.329
 11
1.9021
 21
214.208
  0
LINE
  8
0
 10
1.9021
 20
214.208
 11
1.85954
 21
214.09
  0
LINE
  8
0
 10
1.85954
 20
214.09
 11
1.80965
 21
213.975
  0
LINE
  8
0
 10
1.80965
 20
213.975
 11
1.75261
 21
213.863
  0
LINE
  8
0
 10
1.75261
 20
213.863
 11
1.68864
 21
213.755
  0
LINE
  8
0
 10
1.68864
 20
213.755
 11
1.61803
 21
213.651
  0
LINE
  8
0
 10
1.61803
 20
213.651
 11
1.54102
 21
213.551
  0
LINE
  8
0
 10
1.54102
 20
213.551
 11
1.45793
 21
213.457
  0
LINE
  8
0
 10
1.45793
 20
213.457
 11
1.36908
 21
213.368
  0
LINE
  8
0
 10
1.36908
 20
213.368
 11
1.27484
 21
213.285
  0
LINE
  8
0
 10
1.27484
 20
213.285
 11
1.17557
 21
213.208
  0
LINE
  8
0
 10
1.17557
 20
213.208
 11
1.07164
 21
213.138
  0
LINE
  8
0
 10
1.07164
 20
213.138
 11
0.963501
 21
213.074
  0
LINE
  8
0
 10
0.963501
 20
213.074
 11
0.851547
 21
213.017
  0
LINE
  8
0
 10
0.851547
 20
213.017
 11
0.736237
 21
212.967
  0
LINE
  8
0
 10
0.736237
 20
212.967
 11
0.618027
 21
212.924
  0
LINE
  8
0
 10
0.618027
 20
212.924
 11
0.497375
 21
212.889
  0
LINE
  8
0
 10
0.497375
 20
212.889
 11
0.374756
 21
212.862
  0
LINE
  8
0
 10
0.374756
 20
212.862
 11
0.250656
 21
212.842
  0
LINE
  8
0
 10
0.250656
 20
212.842
 11
0.12558
 21
212.83
  0
LINE
  8
0
 10
0.12558
 20
212.83
 11
0
 21
212.826
  0
LINE
  8
0
 10
0
 20
212.826
 11
-0.12558
 21
212.83
  0
LINE
  8
0
 10
-1.9278
 20
185.865
 11
1.9281
 21
185.865
  0
LINE
  8
0
 10
1.9281
 20
185.865
 11
0
 21
182.525
  0
LINE
  8
0
 10
0
 20
182.525
 11
-1.9278
 21
185.865
  0
LINE
  8
0
 10
1.36597
 20
180.891
 11
2.80022
 21
183.375
  0
LINE
  8
0
 10
2.80022
 20
183.375
 11
4.12486
 21
179.298
  0
LINE
  8
0
 10
4.12486
 20
179.298
 11
1.36597
 21
180.891
  0
LINE
  8
0
 10
-2.80022
 20
183.375
 11
-1.36597
 21
180.891
  0
LINE
  8
0
 10
-1.36597
 20
180.891
 11
-4.12486
 21
179.298
  0
LINE
  8
0
 10
-4.12486
 20
179.298
 11
-2.80022
 21
183.375
  0
LINE
  8
0
 10
-5.33936
 20
170.122
 11
-5.33936
 21
175.561
  0
LINE
  8
0
 10
-5.33936
 20
175.561
 11
-5.04851
 21
176.456
  0
LINE
  8
0
 10
-5.04851
 20
176.456
 11
0
 21
179.37
  0
LINE
  8
0
 10
0
 20
179.37
 11
5.04861
 21
176.455
  0
LINE
  8
0
 10
5.04861
 20
176.455
 11
5.33936
 21
175.561
  0
LINE
  8
0
 10
5.33936
 20
175.561
 11
5.33936
 21
170.122
  0
LINE
  8
0
 10
5.33936
 20
170.122
 11
0
 21
167.039
  0
LINE
  8
0
 10
0
 20
167.039
 11
-5.33936
 21
170.122
  0
LINE
  8
0
 10
-8.63403
 20
163.571
 11
-5.97351
 21
168.179
  0
LINE
  8
0
 10
-5.97351
 20
168.179
 11
-1.36597
 21
165.519
  0
LINE
  8
0
 10
-1.36597
 20
165.519
 11
-4.02649
 21
160.911
  0
LINE
  8
0
 10
-4.02649
 20
160.911
 11
-8.63403
 21
163.571
  0
LINE
  8
0
 10
1.36597
 20
165.519
 11
5.97351
 21
168.179
  0
LINE
  8
0
 10
5.97351
 20
168.179
 11
8.63403
 21
163.571
  0
LINE
  8
0
 10
8.63403
 20
163.571
 11
4.02649
 21
160.911
  0
LINE
  8
0
 10
4.02649
 20
160.911
 11
1.36597
 21
165.519
  0
LINE
  8
0
 10
-1.92749
 20
160.545
 11
-1.9281
 21
160.545
  0
LINE
  8
0
 10
-1.9281
 20
160.545
 11
0
 21
163.885
  0
LINE
  8
0
 10
0
 20
163.885
 11
1.92871
 21
160.545
  0
LINE
  8
0
 10
1.92871
 20
160.545
 11
-1.9281
 21
160.544
  0
LINE
  8
0
 10
-1.9281
 20
160.544
 11
-1.92749
 21
160.545
  0
LINE
  8
0
 10
-13.1457
 20
151.535
 11
-9.77203
 21
161.918
  0
LINE
  8
0
 10
-9.77203
 20
161.918
 11
-4.66064
 21
158.967
  0
LINE
  8
0
 10
-4.66064
 20
158.967
 11
-4.66064
 21
152.802
  0
LINE
  8
0
 10
-4.66064
 20
152.802
 11
-10
 21
149.719
  0
LINE
  8
0
 10
-10
 20
149.719
 11
-13.1457
 21
151.535
  0
LINE
  8
0
 10
4.66064
 20
152.802
 11
4.66064
 21
158.967
  0
LINE
  8
0
 10
4.66064
 20
158.967
 11
9.77202
 21
161.918
  0
LINE
  8
0
 10
9.77202
 20
161.918
 11
13.1457
 21
151.535
  0
LINE
  8
0
 10
13.1457
 20
151.535
 11
10
 21
149.719
  0
LINE
  8
0
 10
10
 20
149.719
 11
4.66064
 21
152.802
  0
LINE
  8
0
 10
-2.66022
 20
153.224
 11
-2.66022
 21
158.544
  0
LINE
  8
0
 10
-2.66022
 20
158.544
 11
2.66022
 21
158.544
  0
LINE
  8
0
 10
2.66022
 20
158.544
 11
2.66022
 21
153.224
  0
LINE
  8
0
 10
2.66022
 20
153.224
 11
-2.66022
 21
153.224
  0
LINE
  8
0
 10
-1.92871
 20
151.224
 11
1.9281
 21
151.224
  0
LINE
  8
0
 10
1.9281
 20
151.224
 11
1.92749
 21
151.223
  0
LINE
  8
0
 10
1.92749
 20
151.223
 11
1.9281
 21
151.223
  0
LINE
  8
0
 10
1.9281
 20
151.223
 11
0
 21
147.884
  0
LINE
  8
0
 10
0
 20
147.884
 11
-1.92871
 21
151.224
  0
LINE
  8
0
 10
-8.63403
 20
148.198
 11
-4.02649
 21
150.858
  0
LINE
  8
0
 10
-4.02649
 20
150.858
 11
-1.36597
 21
146.25
  0
LINE
  8
0
 10
-1.36597
 20
146.25
 11
-5.97351
 21
143.59
  0
LINE
  8
0
 10
-5.97351
 20
143.59
 11
-8.63403
 21
148.198
  0
LINE
  8
0
 10
1.36597
 20
146.25
 11
4.02649
 21
150.858
  0
LINE
  8
0
 10
4.02649
 20
150.858
 11
8.63403
 21
148.198
  0
LINE
  8
0
 10
8.63403
 20
148.198
 11
5.97351
 21
143.59
  0
LINE
  8
0
 10
5.97351
 20
143.59
 11
1.36597
 21
146.25
  0
LINE
  8
0
 10
-15.4586
 20
144.417
 11
-13.7776
 21
149.59
  0
LINE
  8
0
 10
-13.7776
 20
149.59
 11
-11.366
 21
148.198
  0
LINE
  8
0
 10
-11.366
 20
148.198
 11
-14.0265
 21
143.59
  0
LINE
  8
0
 10
-14.0265
 20
143.59
 11
-15.4586
 21
144.417
  0
LINE
  8
0
 10
11.366
 20
148.198
 11
13.7776
 21
149.59
  0
LINE
  8
0
 10
13.7776
 20
149.59
 11
15.4586
 21
144.417
  0
LINE
  8
0
 10
15.4586
 20
144.417
 11
14.0265
 21
143.59
  0
LINE
  8
0
 10
14.0265
 20
143.59
 11
11.366
 21
148.198
  0
LINE
  8
0
 10
8.07251
 20
143.225
 11
8.0719
 21
143.225
  0
LINE
  8
0
 10
8.0719
 20
143.225
 11
10
 21
146.564
  0
LINE
  8
0
 10
10
 20
146.564
 11
11.9287
 21
143.224
  0
LINE
  8
0
 10
11.9287
 20
143.224
 11
8.0719
 21
143.224
  0
LINE
  8
0
 10
8.0719
 20
143.224
 11
8.07251
 21
143.225
  0
LINE
  8
0
 10
-11.9275
 20
143.225
 11
-11.9281
 21
143.225
  0
LINE
  8
0
 10
-11.9281
 20
143.225
 11
-10
 21
146.564
  0
LINE
  8
0
 10
-10
 20
146.564
 11
-8.07129
 21
143.224
  0
LINE
  8
0
 10
-8.07129
 20
143.224
 11
-11.9281
 21
143.224
  0
LINE
  8
0
 10
-11.9281
 20
143.224
 11
-11.9275
 21
143.225
  0
LINE
  8
0
 10
-5.33936
 20
135.481
 11
-5.33936
 21
141.647
  0
LINE
  8
0
 10
-5.33936
 20
141.647
 11
0
 21
144.729
  0
LINE
  8
0
 10
0
 20
144.729
 11
5.33936
 21
141.646
  0
LINE
  8
0
 10
5.33936
 20
141.646
 11
5.33936
 21
135.481
  0
LINE
  8
0
 10
5.33936
 20
135.481
 11
0
 21
132.398
  0
LINE
  8
0
 10
0
 20
132.398
 11
-5.33936
 21
135.481
  0
LINE
  8
0
 10
14.6606
 20
135.481
 11
14.6606
 21
141.647
  0
LINE
  8
0
 10
14.6606
 20
141.647
 11
16.0904
 21
142.472
  0
LINE
  8
0
 10
16.0904
 20
142.472
 11
19.2167
 21
132.851
  0
LINE
  8
0
 10
19.2167
 20
132.851
 11
14.6606
 21
135.481
  0
LINE
  8
0
 10
-16.0905
 20
142.472
 11
-14.6606
 21
141.646
  0
LINE
  8
0
 10
-14.6606
 20
141.646
 11
-14.6606
 21
135.481
  0
LINE
  8
0
 10
-14.6606
 20
135.481
 11
-19.2167
 21
132.851
  0
LINE
  8
0
 10
-19.2167
 20
132.851
 11
-16.0905
 21
142.472
  0
LINE
  8
0
 10
7.33978
 20
135.904
 11
7.33978
 21
141.224
  0
LINE
  8
0
 10
7.33978
 20
141.224
 11
12.6602
 21
141.224
  0
LINE
  8
0
 10
12.6602
 20
141.224
 11
12.6602
 21
135.904
  0
LINE
  8
0
 10
12.6602
 20
135.904
 11
7.33978
 21
135.904
  0
LINE
  8
0
 10
-12.6602
 20
135.904
 11
-12.6602
 21
141.224
  0
LINE
  8
0
 10
-12.6602
 20
141.224
 11
-7.33978
 21
141.224
  0
LINE
  8
0
 10
-7.33978
 20
141.224
 11
-7.33978
 21
135.904
  0
LINE
  8
0
 10
-7.33978
 20
135.904
 11
-12.6602
 21
135.904
  0
LINE
  8
0
 10
-11.9287
 20
133.904
 11
-8.0719
 21
133.904
  0
LINE
  8
0
 10
-8.0719
 20
133.904
 11
-8.07251
 21
133.903
  0
LINE
  8
0
 10
-8.07251
 20
133.903
 11
-8.0719
 21
133.903
  0
LINE
  8
0
 10
-8.0719
 20
133.903
 11
-10
 21
130.564
  0
LINE
  8
0
 10
-10
 20
130.564
 11
-11.9287
 21
133.904
  0
LINE
  8
0
 10
8.07129
 20
133.904
 11
11.9281
 21
133.904
  0
LINE
  8
0
 10
11.9281
 20
133.904
 11
11.9275
 21
133.903
  0
LINE
  8
0
 10
11.9275
 20
133.903
 11
11.9281
 21
133.903
  0
LINE
  8
0
 10
11.9281
 20
133.903
 11
10
 21
130.564
  0
LINE
  8
0
 10
10
 20
130.564
 11
8.07129
 21
133.904
  0
LINE
  8
0
 10
-18.634
 20
130.878
 11
-14.0265
 21
133.538
  0
LINE
  8
0
 10
-14.0265
 20
133.538
 11
-11.366
 21
128.929
  0
LINE
  8
0
 10
-11.366
 20
128.929
 11
-15.9735
 21
126.27
  0
LINE
  8
0
 10
-15.9735
 20
126.27
 11
-18.634
 21
130.878
  0
LINE
  8
0
 10
-8.63403
 20
128.929
 11
-5.97351
 21
133.538
  0
LINE
  8
0
 10
-5.97351
 20
133.538
 11
-1.36597
 21
130.878
  0
LINE
  8
0
 10
-1.36597
 20
130.878
 11
-4.02649
 21
126.27
  0
LINE
  8
0
 10
-4.02649
 20
126.27
 11
-8.63403
 21
128.929
  0
LINE
  8
0
 10
11.366
 20
128.929
 11
14.0265
 21
133.538
  0
LINE
  8
0
 10
14.0265
 20
133.538
 11
18.634
 21
130.878
  0
LINE
  8
0
 10
18.634
 20
130.878
 11
15.9735
 21
126.27
  0
LINE
  8
0
 10
15.9735
 20
126.27
 11
11.366
 21
128.929
  0
LINE
  8
0
 10
1.36597
 20
130.878
 11
5.97351
 21
133.538
  0
LINE
  8
0
 10
5.97351
 20
133.538
 11
8.63403
 21
128.929
  0
LINE
  8
0
 10
8.63403
 20
128.929
 11
4.02649
 21
126.27
  0
LINE
  8
0
 10
4.02649
 20
126.27
 11
1.36597
 21
130.878
  0
LINE
  8
0
 10
-1.92749
 20
125.904
 11
-1.9281
 21
125.904
  0
LINE
  8
0
 10
-1.9281
 20
125.904
 11
0
 21
129.243
  0
LINE
  8
0
 10
0
 20
129.243
 11
1.92871
 21
125.904
  0
LINE
  8
0
 10
1.92871
 20
125.904
 11
-1.9281
 21
125.903
  0
LINE
  8
0
 10
-1.9281
 20
125.903
 11
-1.92749
 21
125.904
  0
LINE
  8
0
 10
18.0725
 20
125.904
 11
18.0719
 21
125.904
  0
LINE
  8
0
 10
18.0719
 20
125.904
 11
20
 21
129.243
  0
LINE
  8
0
 10
20
 20
129.243
 11
20.8888
 21
127.704
  0
LINE
  8
0
 10
20.8888
 20
127.704
 11
21.4739
 21
125.904
  0
LINE
  8
0
 10
21.4739
 20
125.904
 11
18.0719
 21
125.903
  0
LINE
  8
0
 10
18.0719
 20
125.903
 11
18.0725
 21
125.904
  0
LINE
  8
0
 10
-20.8889
 20
127.704
 11
-20
 21
129.243
  0
LINE
  8
0
 10
-20
 20
129.243
 11
-18.0713
 21
125.904
  0
LINE
  8
0
 10
-18.0713
 20
125.904
 11
-21.474
 21
125.903
  0
LINE
  8
0
 10
-21.474
 20
125.903
 11
-20.8889
 21
127.704
  0
LINE
  8
0
 10
4.66064
 20
118.161
 11
4.66064
 21
124.326
  0
LINE
  8
0
 10
4.66064
 20
124.326
 11
10
 21
127.409
  0
LINE
  8
0
 10
10
 20
127.409
 11
15.3394
 21
124.326
  0
LINE
  8
0
 10
15.3394
 20
124.326
 11
15.3394
 21
118.16
  0
LINE
  8
0
 10
15.3394
 20
118.16
 11
10
 21
115.078
  0
LINE
  8
0
 10
10
 20
115.078
 11
4.66064
 21
118.161
  0
LINE
  8
0
 10
-15.3394
 20
118.161
 11
-15.3394
 21
124.326
  0
LINE
  8
0
 10
-15.3394
 20
124.326
 11
-10
 21
127.409
  0
LINE
  8
0
 10
-10
 20
127.409
 11
-4.66064
 21
124.326
  0
LINE
  8
0
 10
-4.66064
 20
124.326
 11
-4.66064
 21
118.16
  0
LINE
  8
0
 10
-4.66064
 20
118.16
 11
-10
 21
115.078
  0
LINE
  8
0
 10
-10
 20
115.078
 11
-15.3394
 21
118.161
  0
LINE
  8
0
 10
17.3398
 20
118.583
 11
17.3398
 21
123.903
  0
LINE
  8
0
 10
17.3398
 20
123.903
 11
22.1239
 21
123.903
  0
LINE
  8
0
 10
22.1239
 20
123.903
 11
22.6602
 21
122.252
  0
LINE
  8
0
 10
22.6602
 20
122.252
 11
22.6602
 21
118.583
  0
LINE
  8
0
 10
22.6602
 20
118.583
 11
17.3398
 21
118.583
  0
LINE
  8
0
 10
-2.66022
 20
118.583
 11
-2.66022
 21
123.903
  0
LINE
  8
0
 10
-2.66022
 20
123.903
 11
2.66022
 21
123.903
  0
LINE
  8
0
 10
2.66022
 20
123.903
 11
2.66022
 21
118.583
  0
LINE
  8
0
 10
2.66022
 20
118.583
 11
-2.66022
 21
118.583
  0
LINE
  8
0
 10
-22.6602
 20
118.583
 11
-22.6602
 21
122.252
  0
LINE
  8
0
 10
-22.6602
 20
122.252
 11
-22.1239
 21
123.903
  0
LINE
  8
0
 10
-22.1239
 20
123.903
 11
-17.3398
 21
123.903
  0
LINE
  8
0
 10
-17.3398
 20
123.903
 11
-17.3398
 21
118.583
  0
LINE
  8
0
 10
-17.3398
 20
118.583
 11
-22.6602
 21
118.583
  0
LINE
  8
0
 10
-1.92871
 20
116.583
 11
1.9281
 21
116.583
  0
LINE
  8
0
 10
1.9281
 20
116.583
 11
0
 21
113.243
  0
LINE
  8
0
 10
0
 20
113.243
 11
-1.92871
 21
116.583
  0
LINE
  8
0
 10
18.0713
 20
116.583
 11
21.9281
 21
116.583
  0
LINE
  8
0
 10
21.9281
 20
116.583
 11
20
 21
113.243
  0
LINE
  8
0
 10
20
 20
113.243
 11
18.0713
 21
116.583
  0
LINE
  8
0
 10
-21.9287
 20
116.583
 11
-18.0719
 21
116.583
  0
LINE
  8
0
 10
-18.0719
 20
116.583
 11
-20
 21
113.243
  0
LINE
  8
0
 10
-20
 20
113.243
 11
-21.9287
 21
116.583
  0
LINE
  8
0
 10
11.366
 20
113.557
 11
15.9735
 21
116.217
  0
LINE
  8
0
 10
15.9735
 20
116.217
 11
18.634
 21
111.609
  0
LINE
  8
0
 10
18.634
 20
111.609
 11
14.0265
 21
108.949
  0
LINE
  8
0
 10
14.0265
 20
108.949
 11
11.366
 21
113.557
  0
LINE
  8
0
 10
-26.6193
 20
110.068
 11
-24.7586
 21
115.794
  0
LINE
  8
0
 10
-24.7586
 20
115.794
 11
-24.0265
 21
116.217
  0
LINE
  8
0
 10
-24.0265
 20
116.217
 11
-21.366
 21
111.609
  0
LINE
  8
0
 10
-21.366
 20
111.609
 11
-25.9735
 21
108.949
  0
LINE
  8
0
 10
-25.9735
 20
108.949
 11
-26.6193
 21
110.068
  0
LINE
  8
0
 10
-8.63403
 20
113.557
 11
-4.02649
 21
116.217
  0
LINE
  8
0
 10
-4.02649
 20
116.217
 11
-1.36597
 21
111.609
  0
LINE
  8
0
 10
-1.36597
 20
111.609
 11
-5.97351
 21
108.949
  0
LINE
  8
0
 10
-5.97351
 20
108.949
 11
-8.63403
 21
113.557
  0
LINE
  8
0
 10
-18.634
 20
111.609
 11
-15.9738
 21
116.217
  0
LINE
  8
0
 10
-15.9738
 20
116.217
 11
-11.366
 21
113.557
  0
LINE
  8
0
 10
-11.366
 20
113.557
 11
-14.0265
 21
108.949
  0
LINE
  8
0
 10
-14.0265
 20
108.949
 11
-18.634
 21
111.609
  0
LINE
  8
0
 10
1.36597
 20
111.609
 11
4.02618
 21
116.217
  0
LINE
  8
0
 10
4.02618
 20
116.217
 11
8.63403
 21
113.557
  0
LINE
  8
0
 10
8.63403
 20
113.557
 11
5.97351
 21
108.949
  0
LINE
  8
0
 10
5.97351
 20
108.949
 11
1.36597
 21
111.609
  0
LINE
  8
0
 10
21.366
 20
111.609
 11
24.0262
 21
116.217
  0
LINE
  8
0
 10
24.0262
 20
116.217
 11
24.7587
 21
115.794
  0
LINE
  8
0
 10
24.7587
 20
115.794
 11
26.6193
 21
110.068
  0
LINE
  8
0
 10
26.6193
 20
110.068
 11
25.9735
 21
108.949
  0
LINE
  8
0
 10
25.9735
 20
108.949
 11
21.366
 21
111.609
  0
LINE
  8
0
 10
10
 20
111.923
 11
11.9287
 21
108.583
  0
LINE
  8
0
 10
11.9287
 20
108.583
 11
8.0719
 21
108.583
  0
LINE
  8
0
 10
8.0719
 20
108.583
 11
10
 21
111.923
  0
LINE
  8
0
 10
-10
 20
111.923
 11
-8.07129
 21
108.583
  0
LINE
  8
0
 10
-8.07129
 20
108.583
 11
-11.9281
 21
108.583
  0
LINE
  8
0
 10
-11.9281
 20
108.583
 11
-10
 21
111.923
  0
LINE
  8
0
 10
-5.33936
 20
100.84
 11
-5.33936
 21
107.006
  0
LINE
  8
0
 10
-5.33936
 20
107.006
 11
0
 21
110.089
  0
LINE
  8
0
 10
0
 20
110.089
 11
5.33936
 21
107.006
  0
LINE
  8
0
 10
5.33936
 20
107.006
 11
5.33936
 21
100.84
  0
LINE
  8
0
 10
5.33936
 20
100.84
 11
0
 21
97.7576
  0
LINE
  8
0
 10
0
 20
97.7576
 11
-5.33936
 21
100.84
  0
LINE
  8
0
 10
-25.3394
 20
100.84
 11
-25.3394
 21
107.006
  0
LINE
  8
0
 10
-25.3394
 20
107.006
 11
-20
 21
110.089
  0
LINE
  8
0
 10
-20
 20
110.089
 11
-14.6606
 21
107.006
  0
LINE
  8
0
 10
-14.6606
 20
107.006
 11
-14.6606
 21
100.84
  0
LINE
  8
0
 10
-14.6606
 20
100.84
 11
-20
 21
97.7576
  0
LINE
  8
0
 10
-20
 20
97.7576
 11
-25.3394
 21
100.84
  0
LINE
  8
0
 10
14.6606
 20
100.84
 11
14.6606
 21
107.006
  0
LINE
  8
0
 10
14.6606
 20
107.006
 11
20
 21
110.089
  0
LINE
  8
0
 10
20
 20
110.089
 11
25.3394
 21
107.006
  0
LINE
  8
0
 10
25.3394
 20
107.006
 11
25.3394
 21
100.84
  0
LINE
  8
0
 10
25.3394
 20
100.84
 11
20
 21
97.7576
  0
LINE
  8
0
 10
20
 20
97.7576
 11
14.6606
 21
100.84
  0
LINE
  8
0
 10
-29.4801
 20
101.263
 11
-27.7516
 21
106.583
  0
LINE
  8
0
 10
-27.7516
 20
106.583
 11
-27.3398
 21
106.583
  0
LINE
  8
0
 10
-27.3398
 20
106.583
 11
-27.3398
 21
101.263
  0
LINE
  8
0
 10
-27.3398
 20
101.263
 11
-29.4801
 21
101.263
  0
LINE
  8
0
 10
-12.6602
 20
101.263
 11
-12.6602
 21
106.583
  0
LINE
  8
0
 10
-12.6602
 20
106.583
 11
-7.33978
 21
106.583
  0
LINE
  8
0
 10
-7.33978
 20
106.583
 11
-7.33978
 21
101.263
  0
LINE
  8
0
 10
-7.33978
 20
101.263
 11
-12.6602
 21
101.263
  0
LINE
  8
0
 10
7.33978
 20
101.263
 11
7.33978
 21
106.583
  0
LINE
  8
0
 10
7.33978
 20
106.583
 11
12.6602
 21
106.583
  0
LINE
  8
0
 10
12.6602
 20
106.583
 11
12.6602
 21
101.263
  0
LINE
  8
0
 10
12.6602
 20
101.263
 11
7.33978
 21
101.263
  0
LINE
  8
0
 10
27.3398
 20
101.263
 11
27.3398
 21
106.583
  0
LINE
  8
0
 10
27.3398
 20
106.583
 11
27.7516
 21
106.583
  0
LINE
  8
0
 10
27.7516
 20
106.583
 11
29.4801
 21
101.263
  0
LINE
  8
0
 10
29.4801
 20
101.263
 11
27.3398
 21
101.263
  0
LINE
  8
0
 10
-11.9287
 20
99.2627
 11
-8.0719
 21
99.263
  0
LINE
  8
0
 10
-8.0719
 20
99.263
 11
-8.07251
 21
99.2621
  0
LINE
  8
0
 10
-8.07251
 20
99.2621
 11
-8.0719
 21
99.2621
  0
LINE
  8
0
 10
-8.0719
 20
99.2621
 11
-10
 21
95.9229
  0
LINE
  8
0
 10
-10
 20
95.9229
 11
-11.9287
 21
99.2627
  0
LINE
  8
0
 10
8.07129
 20
99.2627
 11
11.9281
 21
99.263
  0
LINE
  8
0
 10
11.9281
 20
99.263
 11
11.9275
 21
99.2621
  0
LINE
  8
0
 10
11.9275
 20
99.2621
 11
11.9281
 21
99.2621
  0
LINE
  8
0
 10
11.9281
 20
99.2621
 11
10
 21
95.9229
  0
LINE
  8
0
 10
10
 20
95.9229
 11
8.07129
 21
99.2627
  0
LINE
  8
0
 10
-30.7777
 20
97.2695
 11
-30.13
 21
99.2628
  0
LINE
  8
0
 10
-30.13
 20
99.2628
 11
-28.0719
 21
99.263
  0
LINE
  8
0
 10
-28.0719
 20
99.263
 11
-28.0725
 21
99.2621
  0
LINE
  8
0
 10
-28.0725
 20
99.2621
 11
-28.0719
 21
99.2621
  0
LINE
  8
0
 10
-28.0719
 20
99.2621
 11
-30
 21
95.9229
  0
LINE
  8
0
 10
-30
 20
95.9229
 11
-30.7777
 21
97.2695
  0
LINE
  8
0
 10
28.0713
 20
99.2627
 11
30.13
 21
99.2629
  0
LINE
  8
0
 10
30.13
 20
99.2629
 11
30.7776
 21
97.2696
  0
LINE
  8
0
 10
30.7776
 20
97.2696
 11
30
 21
95.9229
  0
LINE
  8
0
 10
30
 20
95.9229
 11
28.0713
 21
99.2627
  0
LINE
  8
0
 10
1.36597
 20
96.2369
 11
5.97351
 21
98.8968
  0
LINE
  8
0
 10
5.97351
 20
98.8968
 11
8.63403
 21
94.2886
  0
LINE
  8
0
 10
8.63403
 20
94.2886
 11
4.02649
 21
91.6287
  0
LINE
  8
0
 10
4.02649
 20
91.6287
 11
1.36597
 21
96.2369
  0
LINE
  8
0
 10
-28.634
 20
94.2886
 11
-25.9735
 21
98.8968
  0
LINE
  8
0
 10
-25.9735
 20
98.8968
 11
-21.366
 21
96.2369
  0
LINE
  8
0
 10
-21.366
 20
96.2369
 11
-24.0265
 21
91.6287
  0
LINE
  8
0
 10
-24.0265
 20
91.6287
 11
-28.634
 21
94.2886
  0
LINE
  8
0
 10
-18.634
 20
96.2369
 11
-14.0265
 21
98.8968
  0
LINE
  8
0
 10
-14.0265
 20
98.8968
 11
-11.366
 21
94.2886
  0
LINE
  8
0
 10
-11.366
 20
94.2886
 11
-15.9735
 21
91.6287
  0
LINE
  8
0
 10
-15.9735
 20
91.6287
 11
-18.634
 21
96.2369
  0
LINE
  8
0
 10
21.366
 20
96.2369
 11
25.9735
 21
98.8968
  0
LINE
  8
0
 10
25.9735
 20
98.8968
 11
28.634
 21
94.2886
  0
LINE
  8
0
 10
28.634
 20
94.2886
 11
24.0265
 21
91.6287
  0
LINE
  8
0
 10
24.0265
 20
91.6287
 11
21.366
 21
96.2369
  0
LINE
  8
0
 10
11.366
 20
94.2886
 11
14.0265
 21
98.8968
  0
LINE
  8
0
 10
14.0265
 20
98.8968
 11
18.634
 21
96.2369
  0
LINE
  8
0
 10
18.634
 20
96.2369
 11
15.9735
 21
91.6287
  0
LINE
  8
0
 10
15.9735
 20
91.6287
 11
11.366
 21
94.2886
  0
LINE
  8
0
 10
-8.63403
 20
94.2886
 11
-5.97351
 21
98.8968
  0
LINE
  8
0
 10
-5.97351
 20
98.8968
 11
-1.36597
 21
96.2369
  0
LINE
  8
0
 10
-1.36597
 20
96.2369
 11
-4.02649
 21
91.6287
  0
LINE
  8
0
 10
-4.02649
 20
91.6287
 11
-8.63403
 21
94.2886
  0
LINE
  8
0
 10
-31.6093
 20
94.7101
 11
-31.366
 21
94.2886
  0
LINE
  8
0
 10
-31.366
 20
94.2886
 11
-31.834
 21
94.0184
  0
LINE
  8
0
 10
-31.834
 20
94.0184
 11
-31.6093
 21
94.7101
  0
LINE
  8
0
 10
31.366
 20
94.2886
 11
31.6093
 21
94.7101
  0
LINE
  8
0
 10
31.6093
 20
94.7101
 11
31.834
 21
94.0184
  0
LINE
  8
0
 10
31.834
 20
94.0184
 11
31.366
 21
94.2886
  0
LINE
  8
0
 10
-1.92749
 20
91.2634
 11
-1.9281
 21
91.2634
  0
LINE
  8
0
 10
-1.9281
 20
91.2634
 11
0
 21
94.6027
  0
LINE
  8
0
 10
0
 20
94.6027
 11
1.92871
 21
91.2628
  0
LINE
  8
0
 10
1.92871
 20
91.2628
 11
-1.9281
 21
91.2625
  0
LINE
  8
0
 10
-1.9281
 20
91.2625
 11
-1.92749
 21
91.2634
  0
LINE
  8
0
 10
18.0725
 20
91.2634
 11
18.0719
 21
91.2634
  0
LINE
  8
0
 10
18.0719
 20
91.2634
 11
20
 21
94.6027
  0
LINE
  8
0
 10
20
 20
94.6027
 11
21.9287
 21
91.2628
  0
LINE
  8
0
 10
21.9287
 20
91.2628
 11
18.0719
 21
91.2625
  0
LINE
  8
0
 10
18.0719
 20
91.2625
 11
18.0725
 21
91.2634
  0
LINE
  8
0
 10
-21.9275
 20
91.2634
 11
-21.9281
 21
91.2634
  0
LINE
  8
0
 10
-21.9281
 20
91.2634
 11
-20
 21
94.6027
  0
LINE
  8
0
 10
-20
 20
94.6027
 11
-18.0713
 21
91.2628
  0
LINE
  8
0
 10
-18.0713
 20
91.2628
 11
-21.9281
 21
91.2625
  0
LINE
  8
0
 10
-21.9281
 20
91.2625
 11
-21.9275
 21
91.2634
  0
LINE
  8
0
 10
-15.3394
 20
83.5199
 11
-15.3394
 21
89.6854
  0
LINE
  8
0
 10
-15.3394
 20
89.6854
 11
-10
 21
92.7679
  0
LINE
  8
0
 10
-10
 20
92.7679
 11
-4.66064
 21
89.6851
  0
LINE
  8
0
 10
-4.66064
 20
89.6851
 11
-4.66064
 21
83.5196
  0
LINE
  8
0
 10
-4.66064
 20
83.5196
 11
-10
 21
80.437
  0
LINE
  8
0
 10
-10
 20
80.437
 11
-15.3394
 21
83.5199
  0
LINE
  8
0
 10
-35.2601
 20
83.4741
 11
-32.7576
 21
91.1759
  0
LINE
  8
0
 10
-32.7576
 20
91.1759
 11
-30
 21
92.7679
  0
LINE
  8
0
 10
-30
 20
92.7679
 11
-24.6606
 21
89.6851
  0
LINE
  8
0
 10
-24.6606
 20
89.6851
 11
-24.6606
 21
83.5196
  0
LINE
  8
0
 10
-24.6606
 20
83.5196
 11
-30
 21
80.437
  0
LINE
  8
0
 10
-30
 20
80.437
 11
-35.2601
 21
83.4741
  0
LINE
  8
0
 10
24.6606
 20
83.5199
 11
24.6606
 21
89.6854
  0
LINE
  8
0
 10
24.6606
 20
89.6854
 11
30
 21
92.7679
  0
LINE
  8
0
 10
30
 20
92.7679
 11
32.7577
 21
91.1757
  0
LINE
  8
0
 10
32.7577
 20
91.1757
 11
35.2601
 21
83.4739
  0
LINE
  8
0
 10
35.2601
 20
83.4739
 11
30
 21
80.437
  0
LINE
  8
0
 10
30
 20
80.437
 11
24.6606
 21
83.5199
  0
LINE
  8
0
 10
4.66064
 20
83.5199
 11
4.66064
 21
89.6854
  0
LINE
  8
0
 10
4.66064
 20
89.6854
 11
10
 21
92.7679
  0
LINE
  8
0
 10
10
 20
92.7679
 11
15.3394
 21
89.6851
  0
LINE
  8
0
 10
15.3394
 20
89.6851
 11
15.3394
 21
83.5196
  0
LINE
  8
0
 10
15.3394
 20
83.5196
 11
10
 21
80.437
  0
LINE
  8
0
 10
10
 20
80.437
 11
4.66064
 21
83.5199
  0
LINE
  8
0
 10
17.3398
 20
83.9426
 11
17.3398
 21
89.2624
  0
LINE
  8
0
 10
17.3398
 20
89.2624
 11
22.6602
 21
89.2624
  0
LINE
  8
0
 10
22.6602
 20
89.2624
 11
22.6602
 21
83.9426
  0
LINE
  8
0
 10
22.6602
 20
83.9426
 11
17.3398
 21
83.9426
  0
LINE
  8
0
 10
-22.6602
 20
83.9426
 11
-22.6602
 21
89.2624
  0
LINE
  8
0
 10
-22.6602
 20
89.2624
 11
-17.3398
 21
89.2624
  0
LINE
  8
0
 10
-17.3398
 20
89.2624
 11
-17.3398
 21
83.9426
  0
LINE
  8
0
 10
-17.3398
 20
83.9426
 11
-22.6602
 21
83.9426
  0
LINE
  8
0
 10
-2.66022
 20
83.9426
 11
-2.66022
 21
89.2624
  0
LINE
  8
0
 10
-2.66022
 20
89.2624
 11
2.66022
 21
89.2624
  0
LINE
  8
0
 10
2.66022
 20
89.2624
 11
2.66022
 21
83.9426
  0
LINE
  8
0
 10
2.66022
 20
83.9426
 11
-2.66022
 21
83.9426
  0
LINE
  8
0
 10
-1.92871
 20
81.9421
 11
1.9281
 21
81.9424
  0
LINE
  8
0
 10
1.9281
 20
81.9424
 11
1.92749
 21
81.9415
  0
LINE
  8
0
 10
1.92749
 20
81.9415
 11
1.9281
 21
81.9415
  0
LINE
  8
0
 10
1.9281
 20
81.9415
 11
0
 21
78.6023
  0
LINE
  8
0
 10
0
 20
78.6023
 11
-1.92871
 21
81.9421
  0
LINE
  8
0
 10
-21.9287
 20
81.9421
 11
-18.0719
 21
81.9424
  0
LINE
  8
0
 10
-18.0719
 20
81.9424
 11
-18.0725
 21
81.9415
  0
LINE
  8
0
 10
-18.0725
 20
81.9415
 11
-18.0719
 21
81.9415
  0
LINE
  8
0
 10
-18.0719
 20
81.9415
 11
-20
 21
78.6023
  0
LINE
  8
0
 10
-20
 20
78.6023
 11
-21.9287
 21
81.9421
  0
LINE
  8
0
 10
18.0713
 20
81.9421
 11
21.9281
 21
81.9424
  0
LINE
  8
0
 10
21.9281
 20
81.9424
 11
21.9275
 21
81.9415
  0
LINE
  8
0
 10
21.9275
 20
81.9415
 11
21.9281
 21
81.9415
  0
LINE
  8
0
 10
21.9281
 20
81.9415
 11
20
 21
78.6023
  0
LINE
  8
0
 10
20
 20
78.6023
 11
18.0713
 21
81.9421
  0
LINE
  8
0
 10
11.366
 20
78.9163
 11
15.9735
 21
81.5762
  0
LINE
  8
0
 10
15.9735
 20
81.5762
 11
18.634
 21
76.9681
  0
LINE
  8
0
 10
18.634
 20
76.9681
 11
14.0265
 21
74.3082
  0
LINE
  8
0
 10
14.0265
 20
74.3082
 11
11.366
 21
78.9163
  0
LINE
  8
0
 10
1.36597
 20
76.9681
 11
4.02649
 21
81.5762
  0
LINE
  8
0
 10
4.02649
 20
81.5762
 11
8.63403
 21
78.9163
  0
LINE
  8
0
 10
8.63403
 20
78.9163
 11
5.97351
 21
74.3082
  0
LINE
  8
0
 10
5.97351
 20
74.3082
 11
1.36597
 21
76.9681
  0
LINE
  8
0
 10
21.366
 20
76.9681
 11
24.0265
 21
81.5762
  0
LINE
  8
0
 10
24.0265
 20
81.5762
 11
28.634
 21
78.9163
  0
LINE
  8
0
 10
28.634
 20
78.9163
 11
25.9735
 21
74.3082
  0
LINE
  8
0
 10
25.9735
 20
74.3082
 11
21.366
 21
76.9681
  0
LINE
  8
0
 10
-18.634
 20
76.9681
 11
-15.9735
 21
81.5762
  0
LINE
  8
0
 10
-15.9735
 20
81.5762
 11
-11.366
 21
78.9163
  0
LINE
  8
0
 10
-11.366
 20
78.9163
 11
-14.0265
 21
74.3082
  0
LINE
  8
0
 10
-14.0265
 20
74.3082
 11
-18.634
 21
76.9681
  0
LINE
  8
0
 10
-8.63403
 20
78.9163
 11
-4.02649
 21
81.5762
  0
LINE
  8
0
 10
-4.02649
 20
81.5762
 11
-1.36597
 21
76.9681
  0
LINE
  8
0
 10
-1.36597
 20
76.9681
 11
-5.97351
 21
74.3082
  0
LINE
  8
0
 10
-5.97351
 20
74.3082
 11
-8.63403
 21
78.9163
  0
LINE
  8
0
 10
-28.634
 20
78.9163
 11
-24.0265
 21
81.5762
  0
LINE
  8
0
 10
-24.0265
 20
81.5762
 11
-21.366
 21
76.9681
  0
LINE
  8
0
 10
-21.366
 20
76.9681
 11
-25.9735
 21
74.3082
  0
LINE
  8
0
 10
-25.9735
 20
74.3082
 11
-28.634
 21
78.9163
  0
LINE
  8
0
 10
-37.573
 20
76.3556
 11
-35.892
 21
81.5292
  0
LINE
  8
0
 10
-35.892
 20
81.5292
 11
-31.366
 21
78.9163
  0
LINE
  8
0
 10
-31.366
 20
78.9163
 11
-34.0265
 21
74.3082
  0
LINE
  8
0
 10
-34.0265
 20
74.3082
 11
-37.573
 21
76.3556
  0
LINE
  8
0
 10
31.366
 20
78.9163
 11
35.892
 21
81.5292
  0
LINE
  8
0
 10
35.892
 20
81.5292
 11
37.573
 21
76.3556
  0
LINE
  8
0
 10
37.573
 20
76.3556
 11
34.0265
 21
74.3082
  0
LINE
  8
0
 10
34.0265
 20
74.3082
 11
31.366
 21
78.9163
  0
LINE
  8
0
 10
-11.9275
 20
73.9429
 11
-11.9281
 21
73.9429
  0
LINE
  8
0
 10
-11.9281
 20
73.9429
 11
-10
 21
77.2821
  0
LINE
  8
0
 10
-10
 20
77.2821
 11
-8.07129
 21
73.9423
  0
LINE
  8
0
 10
-8.07129
 20
73.9423
 11
-11.9281
 21
73.942
  0
LINE
  8
0
 10
-11.9281
 20
73.942
 11
-11.9275
 21
73.9429
  0
LINE
  8
0
 10
28.0725
 20
73.9429
 11
28.0719
 21
73.9429
  0
LINE
  8
0
 10
28.0719
 20
73.9429
 11
30
 21
77.2821
  0
LINE
  8
0
 10
30
 20
77.2821
 11
31.9287
 21
73.9423
  0
LINE
  8
0
 10
31.9287
 20
73.9423
 11
28.0719
 21
73.942
  0
LINE
  8
0
 10
28.0719
 20
73.942
 11
28.0725
 21
73.9429
  0
LINE
  8
0
 10
8.07251
 20
73.9429
 11
8.0719
 21
73.9429
  0
LINE
  8
0
 10
8.0719
 20
73.9429
 11
10
 21
77.2821
  0
LINE
  8
0
 10
10
 20
77.2821
 11
11.9287
 21
73.9423
  0
LINE
  8
0
 10
11.9287
 20
73.9423
 11
8.0719
 21
73.942
  0
LINE
  8
0
 10
8.0719
 20
73.942
 11
8.07251
 21
73.9429
  0
LINE
  8
0
 10
-31.9275
 20
73.9429
 11
-31.9281
 21
73.9429
  0
LINE
  8
0
 10
-31.9281
 20
73.9429
 11
-30
 21
77.2821
  0
LINE
  8
0
 10
-30
 20
77.2821
 11
-28.0713
 21
73.9423
  0
LINE
  8
0
 10
-28.0713
 20
73.9423
 11
-31.9281
 21
73.942
  0
LINE
  8
0
 10
-31.9281
 20
73.942
 11
-31.9275
 21
73.9429
  0
LINE
  8
0
 10
-5.33936
 20
66.1993
 11
-5.33936
 21
72.3648
  0
LINE
  8
0
 10
-5.33936
 20
72.3648
 11
0
 21
75.4474
  0
LINE
  8
0
 10
0
 20
75.4474
 11
5.33936
 21
72.3645
  0
LINE
  8
0
 10
5.33936
 20
72.3645
 11
5.33936
 21
66.199
  0
LINE
  8
0
 10
5.33936
 20
66.199
 11
0
 21
63.1165
  0
LINE
  8
0
 10
0
 20
63.1165
 11
-5.33936
 21
66.1993
  0
LINE
  8
0
 10
-25.3394
 20
66.1993
 11
-25.3394
 21
72.3648
  0
LINE
  8
0
 10
-25.3394
 20
72.3648
 11
-20
 21
75.4474
  0
LINE
  8
0
 10
-20
 20
75.4474
 11
-14.6606
 21
72.3645
  0
LINE
  8
0
 10
-14.6606
 20
72.3645
 11
-14.6606
 21
66.199
  0
LINE
  8
0
 10
-14.6606
 20
66.199
 11
-20
 21
63.1165
  0
LINE
  8
0
 10
-20
 20
63.1165
 11
-25.3394
 21
66.1993
  0
LINE
  8
0
 10
14.6606
 20
66.1993
 11
14.6606
 21
72.3648
  0
LINE
  8
0
 10
14.6606
 20
72.3648
 11
20
 21
75.4474
  0
LINE
  8
0
 10
20
 20
75.4474
 11
25.3394
 21
72.3645
  0
LINE
  8
0
 10
25.3394
 20
72.3645
 11
25.3394
 21
66.199
  0
LINE
  8
0
 10
25.3394
 20
66.199
 11
20
 21
63.1165
  0
LINE
  8
0
 10
20
 20
63.1165
 11
14.6606
 21
66.1993
  0
LINE
  8
0
 10
34.6606
 20
66.1993
 11
34.6606
 21
72.3648
  0
LINE
  8
0
 10
34.6606
 20
72.3648
 11
38.2048
 21
74.411
  0
LINE
  8
0
 10
38.2048
 20
74.411
 11
41.5786
 21
64.0278
  0
LINE
  8
0
 10
41.5786
 20
64.0278
 11
40
 21
63.1165
  0
LINE
  8
0
 10
40
 20
63.1165
 11
34.6606
 21
66.1993
  0
LINE
  8
0
 10
-41.5785
 20
64.0279
 11
-38.2049
 21
74.4109
  0
LINE
  8
0
 10
-38.2049
 20
74.4109
 11
-34.6606
 21
72.3645
  0
LINE
  8
0
 10
-34.6606
 20
72.3645
 11
-34.6606
 21
66.199
  0
LINE
  8
0
 10
-34.6606
 20
66.199
 11
-40
 21
63.1165
  0
LINE
  8
0
 10
-40
 20
63.1165
 11
-41.5785
 21
64.0279
  0
LINE
  8
0
 10
7.33978
 20
66.622
 11
7.33978
 21
71.9418
  0
LINE
  8
0
 10
7.33978
 20
71.9418
 11
12.6602
 21
71.9418
  0
LINE
  8
0
 10
12.6602
 20
71.9418
 11
12.6602
 21
66.622
  0
LINE
  8
0
 10
12.6602
 20
66.622
 11
7.33978
 21
66.622
  0
LINE
  8
0
 10
27.3398
 20
66.622
 11
27.3398
 21
71.9418
  0
LINE
  8
0
 10
27.3398
 20
71.9418
 11
32.6602
 21
71.9418
  0
LINE
  8
0
 10
32.6602
 20
71.9418
 11
32.6602
 21
66.622
  0
LINE
  8
0
 10
32.6602
 20
66.622
 11
27.3398
 21
66.622
  0
LINE
  8
0
 10
-12.6602
 20
66.622
 11
-12.6602
 21
71.9418
  0
LINE
  8
0
 10
-12.6602
 20
71.9418
 11
-7.33978
 21
71.9418
  0
LINE
  8
0
 10
-7.33978
 20
71.9418
 11
-7.33978
 21
66.622
  0
LINE
  8
0
 10
-7.33978
 20
66.622
 11
-12.6602
 21
66.622
  0
LINE
  8
0
 10
-32.6602
 20
66.622
 11
-32.6602
 21
71.9418
  0
LINE
  8
0
 10
-32.6602
 20
71.9418
 11
-27.3398
 21
71.9418
  0
LINE
  8
0
 10
-27.3398
 20
71.9418
 11
-27.3398
 21
66.622
  0
LINE
  8
0
 10
-27.3398
 20
66.622
 11
-32.6602
 21
66.622
  0
LINE
  8
0
 10
-11.9287
 20
64.6216
 11
-8.0719
 21
64.6219
  0
LINE
  8
0
 10
-8.0719
 20
64.6219
 11
-8.07251
 21
64.621
  0
LINE
  8
0
 10
-8.07251
 20
64.621
 11
-8.0719
 21
64.621
  0
LINE
  8
0
 10
-8.0719
 20
64.621
 11
-10
 21
61.2817
  0
LINE
  8
0
 10
-10
 20
61.2817
 11
-11.9287
 21
64.6216
  0
LINE
  8
0
 10
8.07129
 20
64.6216
 11
11.9281
 21
64.6219
  0
LINE
  8
0
 10
11.9281
 20
64.6219
 11
11.9275
 21
64.621
  0
LINE
  8
0
 10
11.9275
 20
64.621
 11
11.9281
 21
64.621
  0
LINE
  8
0
 10
11.9281
 20
64.621
 11
10
 21
61.2817
  0
LINE
  8
0
 10
10
 20
61.2817
 11
8.07129
 21
64.6216
  0
LINE
  8
0
 10
28.0713
 20
64.6216
 11
31.9281
 21
64.6219
  0
LINE
  8
0
 10
31.9281
 20
64.6219
 11
31.9275
 21
64.621
  0
LINE
  8
0
 10
31.9275
 20
64.621
 11
31.9281
 21
64.621
  0
LINE
  8
0
 10
31.9281
 20
64.621
 11
30
 21
61.2817
  0
LINE
  8
0
 10
30
 20
61.2817
 11
28.0713
 21
64.6216
  0
LINE
  8
0
 10
-31.9287
 20
64.6216
 11
-28.0719
 21
64.6219
  0
LINE
  8
0
 10
-28.0719
 20
64.6219
 11
-28.0725
 21
64.621
  0
LINE
  8
0
 10
-28.0725
 20
64.621
 11
-28.0719
 21
64.621
  0
LINE
  8
0
 10
-28.0719
 20
64.621
 11
-30
 21
61.2817
  0
LINE
  8
0
 10
-30
 20
61.2817
 11
-31.9287
 21
64.6216
  0
LINE
  8
0
 10
11.366
 20
59.6475
 11
14.0265
 21
64.2557
  0
LINE
  8
0
 10
14.0265
 20
64.2557
 11
18.634
 21
61.5958
  0
LINE
  8
0
 10
18.634
 20
61.5958
 11
15.9735
 21
56.9876
  0
LINE
  8
0
 10
15.9735
 20
56.9876
 11
11.366
 21
59.6475
  0
LINE
  8
0
 10
-38.634
 20
61.5958
 11
-34.0265
 21
64.2557
  0
LINE
  8
0
 10
-34.0265
 20
64.2557
 11
-31.366
 21
59.6475
  0
LINE
  8
0
 10
-31.366
 20
59.6475
 11
-35.9735
 21
56.9876
  0
LINE
  8
0
 10
-35.9735
 20
56.9876
 11
-38.634
 21
61.5958
  0
LINE
  8
0
 10
-8.63403
 20
59.6475
 11
-5.97351
 21
64.2557
  0
LINE
  8
0
 10
-5.97351
 20
64.2557
 11
-1.36597
 21
61.5958
  0
LINE
  8
0
 10
-1.36597
 20
61.5958
 11
-4.02649
 21
56.9876
  0
LINE
  8
0
 10
-4.02649
 20
56.9876
 11
-8.63403
 21
59.6475
  0
LINE
  8
0
 10
31.366
 20
59.6475
 11
34.0265
 21
64.2557
  0
LINE
  8
0
 10
34.0265
 20
64.2557
 11
38.634
 21
61.5958
  0
LINE
  8
0
 10
38.634
 20
61.5958
 11
35.9735
 21
56.9876
  0
LINE
  8
0
 10
35.9735
 20
56.9876
 11
31.366
 21
59.6475
  0
LINE
  8
0
 10
-28.634
 20
59.6475
 11
-25.9735
 21
64.2557
  0
LINE
  8
0
 10
-25.9735
 20
64.2557
 11
-21.366
 21
61.5958
  0
LINE
  8
0
 10
-21.366
 20
61.5958
 11
-24.0265
 21
56.9876
  0
LINE
  8
0
 10
-24.0265
 20
56.9876
 11
-28.634
 21
59.6475
  0
LINE
  8
0
 10
-18.634
 20
61.5958
 11
-14.0265
 21
64.2557
  0
LINE
  8
0
 10
-14.0265
 20
64.2557
 11
-11.366
 21
59.6475
  0
LINE
  8
0
 10
-11.366
 20
59.6475
 11
-15.9735
 21
56.9876
  0
LINE
  8
0
 10
-15.9735
 20
56.9876
 11
-18.634
 21
61.5958
  0
LINE
  8
0
 10
21.366
 20
61.5958
 11
25.9735
 21
64.2557
  0
LINE
  8
0
 10
25.9735
 20
64.2557
 11
28.634
 21
59.6475
  0
LINE
  8
0
 10
28.634
 20
59.6475
 11
24.0265
 21
56.9876
  0
LINE
  8
0
 10
24.0265
 20
56.9876
 11
21.366
 21
61.5958
  0
LINE
  8
0
 10
1.36597
 20
61.5958
 11
5.97351
 21
64.2557
  0
LINE
  8
0
 10
5.97351
 20
64.2557
 11
8.63403
 21
59.6475
  0
LINE
  8
0
 10
8.63403
 20
59.6475
 11
4.02649
 21
56.9876
  0
LINE
  8
0
 10
4.02649
 20
56.9876
 11
1.36597
 21
61.5958
  0
LINE
  8
0
 10
-42.2104
 20
62.0832
 11
-41.366
 21
61.5958
  0
LINE
  8
0
 10
-41.366
 20
61.5958
 11
-43.6595
 21
57.6232
  0
LINE
  8
0
 10
-43.6595
 20
57.6232
 11
-42.2104
 21
62.0832
  0
LINE
  8
0
 10
41.366
 20
61.5958
 11
42.2104
 21
62.0832
  0
LINE
  8
0
 10
42.2104
 20
62.0832
 11
43.6595
 21
57.6232
  0
LINE
  8
0
 10
43.6595
 20
57.6232
 11
41.366
 21
61.5958
  0
LINE
  8
0
 10
-21.9275
 20
56.6223
 11
-21.9281
 21
56.6223
  0
LINE
  8
0
 10
-21.9281
 20
56.6223
 11
-20
 21
59.9615
  0
LINE
  8
0
 10
-20
 20
59.9615
 11
-18.0713
 21
56.6217
  0
LINE
  8
0
 10
-18.0713
 20
56.6217
 11
-21.9281
 21
56.6214
  0
LINE
  8
0
 10
-21.9281
 20
56.6214
 11
-21.9275
 21
56.6223
  0
LINE
  8
0
 10
38.0725
 20
56.6223
 11
38.0719
 21
56.6223
  0
LINE
  8
0
 10
38.0719
 20
56.6223
 11
40
 21
59.9615
  0
LINE
  8
0
 10
40
 20
59.9615
 11
41.9287
 21
56.6217
  0
LINE
  8
0
 10
41.9287
 20
56.6217
 11
38.0719
 21
56.6214
  0
LINE
  8
0
 10
38.0719
 20
56.6214
 11
38.0725
 21
56.6223
  0
LINE
  8
0
 10
18.0725
 20
56.6223
 11
18.0719
 21
56.6223
  0
LINE
  8
0
 10
18.0719
 20
56.6223
 11
20
 21
59.9615
  0
LINE
  8
0
 10
20
 20
59.9615
 11
21.9287
 21
56.6217
  0
LINE
  8
0
 10
21.9287
 20
56.6217
 11
18.0719
 21
56.6214
  0
LINE
  8
0
 10
18.0719
 20
56.6214
 11
18.0725
 21
56.6223
  0
LINE
  8
0
 10
-1.92749
 20
56.6223
 11
-1.9281
 21
56.6223
  0
LINE
  8
0
 10
-1.9281
 20
56.6223
 11
0
 21
59.9615
  0
LINE
  8
0
 10
0
 20
59.9615
 11
1.92871
 21
56.6217
  0
LINE
  8
0
 10
1.92871
 20
56.6217
 11
-1.9281
 21
56.6214
  0
LINE
  8
0
 10
-1.9281
 20
56.6214
 11
-1.92749
 21
56.6223
  0
LINE
  8
0
 10
-41.9275
 20
56.6223
 11
-41.9281
 21
56.6223
  0
LINE
  8
0
 10
-41.9281
 20
56.6223
 11
-40
 21
59.9615
  0
LINE
  8
0
 10
-40
 20
59.9615
 11
-38.0713
 21
56.6217
  0
LINE
  8
0
 10
-38.0713
 20
56.6217
 11
-41.9281
 21
56.6214
  0
LINE
  8
0
 10
-41.9281
 20
56.6214
 11
-41.9275
 21
56.6223
  0
LINE
  8
0
 10
4.66064
 20
48.8788
 11
4.66064
 21
55.0443
  0
LINE
  8
0
 10
4.66064
 20
55.0443
 11
10
 21
58.1268
  0
LINE
  8
0
 10
10
 20
58.1268
 11
15.3394
 21
55.0439
  0
LINE
  8
0
 10
15.3394
 20
55.0439
 11
15.3394
 21
48.8785
  0
LINE
  8
0
 10
15.3394
 20
48.8785
 11
10
 21
45.7959
  0
LINE
  8
0
 10
10
 20
45.7959
 11
4.66064
 21
48.8788
  0
LINE
  8
0
 10
-15.3394
 20
48.8788
 11
-15.3394
 21
55.0443
  0
LINE
  8
0
 10
-15.3394
 20
55.0443
 11
-10
 21
58.1268
  0
LINE
  8
0
 10
-10
 20
58.1268
 11
-4.66064
 21
55.0439
  0
LINE
  8
0
 10
-4.66064
 20
55.0439
 11
-4.66064
 21
48.8785
  0
LINE
  8
0
 10
-4.66064
 20
48.8785
 11
-10
 21
45.7959
  0
LINE
  8
0
 10
-10
 20
45.7959
 11
-15.3394
 21
48.8788
  0
LINE
  8
0
 10
24.6606
 20
48.8788
 11
24.6606
 21
55.0443
  0
LINE
  8
0
 10
24.6606
 20
55.0443
 11
30
 21
58.1268
  0
LINE
  8
0
 10
30
 20
58.1268
 11
35.3394
 21
55.0439
  0
LINE
  8
0
 10
35.3394
 20
55.0439
 11
35.3394
 21
48.8785
  0
LINE
  8
0
 10
35.3394
 20
48.8785
 11
30
 21
45.7959
  0
LINE
  8
0
 10
30
 20
45.7959
 11
24.6606
 21
48.8788
  0
LINE
  8
0
 10
-35.3394
 20
48.8788
 11
-35.3394
 21
55.0443
  0
LINE
  8
0
 10
-35.3394
 20
55.0443
 11
-30
 21
58.1268
  0
LINE
  8
0
 10
-30
 20
58.1268
 11
-24.6606
 21
55.0439
  0
LINE
  8
0
 10
-24.6606
 20
55.0439
 11
-24.6606
 21
48.8785
  0
LINE
  8
0
 10
-24.6606
 20
48.8785
 11
-30
 21
45.7959
  0
LINE
  8
0
 10
-30
 20
45.7959
 11
-35.3394
 21
48.8788
  0
LINE
  8
0
 10
37.3398
 20
49.3015
 11
37.3398
 21
54.6213
  0
LINE
  8
0
 10
37.3398
 20
54.6213
 11
42.6602
 21
54.6213
  0
LINE
  8
0
 10
42.6602
 20
54.6213
 11
42.6602
 21
49.3015
  0
LINE
  8
0
 10
42.6602
 20
49.3015
 11
37.3398
 21
49.3015
  0
LINE
  8
0
 10
-2.66022
 20
49.3015
 11
-2.66022
 21
54.6213
  0
LINE
  8
0
 10
-2.66022
 20
54.6213
 11
2.66022
 21
54.6213
  0
LINE
  8
0
 10
2.66022
 20
54.6213
 11
2.66022
 21
49.3015
  0
LINE
  8
0
 10
2.66022
 20
49.3015
 11
-2.66022
 21
49.3015
  0
LINE
  8
0
 10
-22.6602
 20
49.3015
 11
-22.6602
 21
54.6213
  0
LINE
  8
0
 10
-22.6602
 20
54.6213
 11
-17.3398
 21
54.6213
  0
LINE
  8
0
 10
-17.3398
 20
54.6213
 11
-17.3398
 21
49.3015
  0
LINE
  8
0
 10
-17.3398
 20
49.3015
 11
-22.6602
 21
49.3015
  0
LINE
  8
0
 10
-42.6602
 20
49.3015
 11
-42.6602
 21
54.6213
  0
LINE
  8
0
 10
-42.6602
 20
54.6213
 11
-37.3398
 21
54.6213
  0
LINE
  8
0
 10
-37.3398
 20
54.6213
 11
-37.3398
 21
49.3015
  0
LINE
  8
0
 10
-37.3398
 20
49.3015
 11
-42.6602
 21
49.3015
  0
LINE
  8
0
 10
17.3398
 20
49.3015
 11
17.3398
 21
54.6213
  0
LINE
  8
0
 10
17.3398
 20
54.6213
 11
22.6602
 21
54.6213
  0
LINE
  8
0
 10
22.6602
 20
54.6213
 11
22.6602
 21
49.3015
  0
LINE
  8
0
 10
22.6602
 20
49.3015
 11
17.3398
 21
49.3015
  0
LINE
  8
0
 10
-44.6606
 20
54.5421
 11
-44.6606
 21
48.8785
  0
LINE
  8
0
 10
-44.6606
 20
48.8785
 11
-46.9258
 21
47.5707
  0
LINE
  8
0
 10
-46.9258
 20
47.5707
 11
-44.6606
 21
54.5421
  0
LINE
  8
0
 10
44.6606
 20
48.8788
 11
44.6606
 21
54.5421
  0
LINE
  8
0
 10
44.6606
 20
54.5421
 11
46.9257
 21
47.571
  0
LINE
  8
0
 10
46.9257
 20
47.571
 11
44.6606
 21
48.8788
  0
LINE
  8
0
 10
18.0713
 20
47.301
 11
21.9281
 21
47.3013
  0
LINE
  8
0
 10
21.9281
 20
47.3013
 11
21.9275
 21
47.3004
  0
LINE
  8
0
 10
21.9275
 20
47.3004
 11
21.9281
 21
47.3004
  0
LINE
  8
0
 10
21.9281
 20
47.3004
 11
20
 21
43.9612
  0
LINE
  8
0
 10
20
 20
43.9612
 11
18.0713
 21
47.301
  0
LINE
  8
0
 10
38.0713
 20
47.301
 11
41.9281
 21
47.3013
  0
LINE
  8
0
 10
41.9281
 20
47.3013
 11
41.9275
 21
47.3004
  0
LINE
  8
0
 10
41.9275
 20
47.3004
 11
41.9281
 21
47.3004
  0
LINE
  8
0
 10
41.9281
 20
47.3004
 11
40
 21
43.9612
  0
LINE
  8
0
 10
40
 20
43.9612
 11
38.0713
 21
47.301
  0
LINE
  8
0
 10
-41.9287
 20
47.301
 11
-38.0719
 21
47.3013
  0
LINE
  8
0
 10
-38.0719
 20
47.3013
 11
-38.0725
 21
47.3004
  0
LINE
  8
0
 10
-38.0725
 20
47.3004
 11
-38.0719
 21
47.3004
  0
LINE
  8
0
 10
-38.0719
 20
47.3004
 11
-40
 21
43.9612
  0
LINE
  8
0
 10
-40
 20
43.9612
 11
-41.9287
 21
47.301
  0
LINE
  8
0
 10
-21.9287
 20
47.301
 11
-18.0719
 21
47.3013
  0
LINE
  8
0
 10
-18.0719
 20
47.3013
 11
-18.0725
 21
47.3004
  0
LINE
  8
0
 10
-18.0725
 20
47.3004
 11
-18.0719
 21
47.3004
  0
LINE
  8
0
 10
-18.0719
 20
47.3004
 11
-20
 21
43.9612
  0
LINE
  8
0
 10
-20
 20
43.9612
 11
-21.9287
 21
47.301
  0
LINE
  8
0
 10
-1.92871
 20
47.301
 11
1.9281
 21
47.3013
  0
LINE
  8
0
 10
1.9281
 20
47.3013
 11
1.92749
 21
47.3004
  0
LINE
  8
0
 10
1.92749
 20
47.3004
 11
1.9281
 21
47.3004
  0
LINE
  8
0
 10
1.9281
 20
47.3004
 11
0
 21
43.9612
  0
LINE
  8
0
 10
0
 20
43.9612
 11
-1.92871
 21
47.301
  0
LINE
  8
0
 10
-18.634
 20
42.327
 11
-15.9735
 21
46.9351
  0
LINE
  8
0
 10
-15.9735
 20
46.9351
 11
-11.366
 21
44.2752
  0
LINE
  8
0
 10
-11.366
 20
44.2752
 11
-14.0265
 21
39.6671
  0
LINE
  8
0
 10
-14.0265
 20
39.6671
 11
-18.634
 21
42.327
  0
LINE
  8
0
 10
11.366
 20
44.2752
 11
15.9735
 21
46.9351
  0
LINE
  8
0
 10
15.9735
 20
46.9351
 11
18.634
 21
42.327
  0
LINE
  8
0
 10
18.634
 20
42.327
 11
14.0265
 21
39.6671
  0
LINE
  8
0
 10
14.0265
 20
39.6671
 11
11.366
 21
44.2752
  0
LINE
  8
0
 10
-28.634
 20
44.2752
 11
-24.0265
 21
46.9351
  0
LINE
  8
0
 10
-24.0265
 20
46.9351
 11
-21.366
 21
42.327
  0
LINE
  8
0
 10
-21.366
 20
42.327
 11
-25.9735
 21
39.6671
  0
LINE
  8
0
 10
-25.9735
 20
39.6671
 11
-28.634
 21
44.2752
  0
LINE
  8
0
 10
1.36597
 20
42.327
 11
4.02649
 21
46.9351
  0
LINE
  8
0
 10
4.02649
 20
46.9351
 11
8.63403
 21
44.2752
  0
LINE
  8
0
 10
8.63403
 20
44.2752
 11
5.97351
 21
39.6671
  0
LINE
  8
0
 10
5.97351
 20
39.6671
 11
1.36597
 21
42.327
  0
LINE
  8
0
 10
21.366
 20
42.327
 11
24.0265
 21
46.9351
  0
LINE
  8
0
 10
24.0265
 20
46.9351
 11
28.634
 21
44.2752
  0
LINE
  8
0
 10
28.634
 20
44.2752
 11
25.9735
 21
39.6671
  0
LINE
  8
0
 10
25.9735
 20
39.6671
 11
21.366
 21
42.327
  0
LINE
  8
0
 10
-38.634
 20
42.327
 11
-35.9735
 21
46.9351
  0
LINE
  8
0
 10
-35.9735
 20
46.9351
 11
-31.366
 21
44.2752
  0
LINE
  8
0
 10
-31.366
 20
44.2752
 11
-34.0265
 21
39.6671
  0
LINE
  8
0
 10
-34.0265
 20
39.6671
 11
-38.634
 21
42.327
  0
LINE
  8
0
 10
-8.63403
 20
44.2752
 11
-4.02649
 21
46.9351
  0
LINE
  8
0
 10
-4.02649
 20
46.9351
 11
-1.36597
 21
42.327
  0
LINE
  8
0
 10
-1.36597
 20
42.327
 11
-5.97351
 21
39.6671
  0
LINE
  8
0
 10
-5.97351
 20
39.6671
 11
-8.63403
 21
44.2752
  0
LINE
  8
0
 10
-48.2261
 20
43.5687
 11
-47.8494
 21
44.7282
  0
LINE
  8
0
 10
-47.8494
 20
44.7282
 11
-44.0265
 21
46.9351
  0
LINE
  8
0
 10
-44.0265
 20
46.9351
 11
-41.366
 21
42.327
  0
LINE
  8
0
 10
-41.366
 20
42.327
 11
-45.9735
 21
39.6671
  0
LINE
  8
0
 10
-45.9735
 20
39.6671
 11
-48.2261
 21
43.5687
  0
LINE
  8
0
 10
41.366
 20
42.327
 11
44.0265
 21
46.9351
  0
LINE
  8
0
 10
44.0265
 20
46.9351
 11
47.8494
 21
44.7282
  0
LINE
  8
0
 10
47.8494
 20
44.7282
 11
48.2261
 21
43.5687
  0
LINE
  8
0
 10
48.2261
 20
43.5687
 11
45.9735
 21
39.6671
  0
LINE
  8
0
 10
45.9735
 20
39.6671
 11
41.366
 21
42.327
  0
LINE
  8
0
 10
31.366
 20
44.2752
 11
35.9735
 21
46.9351
  0
LINE
  8
0
 10
35.9735
 20
46.9351
 11
38.634
 21
42.327
  0
LINE
  8
0
 10
38.634
 20
42.327
 11
34.0265
 21
39.6671
  0
LINE
  8
0
 10
34.0265
 20
39.6671
 11
31.366
 21
44.2752
  0
LINE
  8
0
 10
-11.9275
 20
39.3018
 11
-11.9281
 21
39.3018
  0
LINE
  8
0
 10
-11.9281
 20
39.3018
 11
-10
 21
42.641
  0
LINE
  8
0
 10
-10
 20
42.641
 11
-8.07129
 21
39.3011
  0
LINE
  8
0
 10
-8.07129
 20
39.3011
 11
-11.9281
 21
39.3008
  0
LINE
  8
0
 10
-11.9281
 20
39.3008
 11
-11.9275
 21
39.3018
  0
LINE
  8
0
 10
28.0725
 20
39.3018
 11
28.0719
 21
39.3018
  0
LINE
  8
0
 10
28.0719
 20
39.3018
 11
30
 21
42.641
  0
LINE
  8
0
 10
30
 20
42.641
 11
31.9287
 21
39.3011
  0
LINE
  8
0
 10
31.9287
 20
39.3011
 11
28.0719
 21
39.3008
  0
LINE
  8
0
 10
28.0719
 20
39.3008
 11
28.0725
 21
39.3018
  0
LINE
  8
0
 10
8.07251
 20
39.3018
 11
8.0719
 21
39.3018
  0
LINE
  8
0
 10
8.0719
 20
39.3018
 11
10
 21
42.641
  0
LINE
  8
0
 10
10
 20
42.641
 11
11.9287
 21
39.3011
  0
LINE
  8
0
 10
11.9287
 20
39.3011
 11
8.0719
 21
39.3008
  0
LINE
  8
0
 10
8.0719
 20
39.3008
 11
8.07251
 21
39.3018
  0
LINE
  8
0
 10
-31.9275
 20
39.3018
 11
-31.9281
 21
39.3018
  0
LINE
  8
0
 10
-31.9281
 20
39.3018
 11
-30
 21
42.641
  0
LINE
  8
0
 10
-30
 20
42.641
 11
-28.0713
 21
39.3011
  0
LINE
  8
0
 10
-28.0713
 20
39.3011
 11
-31.9281
 21
39.3008
  0
LINE
  8
0
 10
-31.9281
 20
39.3008
 11
-31.9275
 21
39.3018
  0
LINE
  8
0
 10
-49.0577
 20
41.0093
 11
-48.0713
 21
39.3011
  0
LINE
  8
0
 10
-48.0713
 20
39.3011
 11
-49.6128
 21
39.301
  0
LINE
  8
0
 10
-49.6128
 20
39.301
 11
-49.0577
 21
41.0093
  0
LINE
  8
0
 10
48.0725
 20
39.3018
 11
48.0719
 21
39.3018
  0
LINE
  8
0
 10
48.0719
 20
39.3018
 11
49.0578
 21
41.0092
  0
LINE
  8
0
 10
49.0578
 20
41.0092
 11
49.6128
 21
39.301
  0
LINE
  8
0
 10
49.6128
 20
39.301
 11
48.0719
 21
39.3008
  0
LINE
  8
0
 10
48.0719
 20
39.3008
 11
48.0725
 21
39.3018
  0
LINE
  8
0
 10
-5.33936
 20
31.5582
 11
-5.33936
 21
37.7237
  0
LINE
  8
0
 10
-5.33936
 20
37.7237
 11
0
 21
40.8063
  0
LINE
  8
0
 10
0
 20
40.8063
 11
5.33936
 21
37.7234
  0
LINE
  8
0
 10
5.33936
 20
37.7234
 11
5.33936
 21
31.5579
  0
LINE
  8
0
 10
5.33936
 20
31.5579
 11
0
 21
28.4753
  0
LINE
  8
0
 10
0
 20
28.4753
 11
-5.33936
 21
31.5582
  0
LINE
  8
0
 10
14.6606
 20
31.5582
 11
14.6606
 21
37.7237
  0
LINE
  8
0
 10
14.6606
 20
37.7237
 11
20
 21
40.8063
  0
LINE
  8
0
 10
20
 20
40.8063
 11
25.3394
 21
37.7234
  0
LINE
  8
0
 10
25.3394
 20
37.7234
 11
25.3394
 21
31.5579
  0
LINE
  8
0
 10
25.3394
 20
31.5579
 11
20
 21
28.4753
  0
LINE
  8
0
 10
20
 20
28.4753
 11
14.6606
 21
31.5582
  0
LINE
  8
0
 10
-45.3394
 20
31.5582
 11
-45.3394
 21
37.7237
  0
LINE
  8
0
 10
-45.3394
 20
37.7237
 11
-40
 21
40.8063
  0
LINE
  8
0
 10
-40
 20
40.8063
 11
-34.6606
 21
37.7234
  0
LINE
  8
0
 10
-34.6606
 20
37.7234
 11
-34.6606
 21
31.5579
  0
LINE
  8
0
 10
-34.6606
 20
31.5579
 11
-40
 21
28.4753
  0
LINE
  8
0
 10
-40
 20
28.4753
 11
-45.3394
 21
31.5582
  0
LINE
  8
0
 10
34.6606
 20
31.5582
 11
34.6606
 21
37.7237
  0
LINE
  8
0
 10
34.6606
 20
37.7237
 11
40
 21
40.8063
  0
LINE
  8
0
 10
40
 20
40.8063
 11
45.3394
 21
37.7234
  0
LINE
  8
0
 10
45.3394
 20
37.7234
 11
45.3394
 21
31.5579
  0
LINE
  8
0
 10
45.3394
 20
31.5579
 11
40
 21
28.4753
  0
LINE
  8
0
 10
40
 20
28.4753
 11
34.6606
 21
31.5582
  0
LINE
  8
0
 10
-25.3394
 20
31.5582
 11
-25.3394
 21
37.7237
  0
LINE
  8
0
 10
-25.3394
 20
37.7237
 11
-20
 21
40.8063
  0
LINE
  8
0
 10
-20
 20
40.8063
 11
-14.6606
 21
37.7234
  0
LINE
  8
0
 10
-14.6606
 20
37.7234
 11
-14.6606
 21
31.5579
  0
LINE
  8
0
 10
-14.6606
 20
31.5579
 11
-20
 21
28.4753
  0
LINE
  8
0
 10
-20
 20
28.4753
 11
-25.3394
 21
31.5582
  0
LINE
  8
0
 10
47.3398
 20
31.9809
 11
47.3398
 21
37.3007
  0
LINE
  8
0
 10
47.3398
 20
37.3007
 11
50.2627
 21
37.3007
  0
LINE
  8
0
 10
50.2627
 20
37.3007
 11
51.9912
 21
31.9809
  0
LINE
  8
0
 10
51.9912
 20
31.9809
 11
47.3398
 21
31.9809
  0
LINE
  8
0
 10
27.3398
 20
31.9809
 11
27.3398
 21
37.3007
  0
LINE
  8
0
 10
27.3398
 20
37.3007
 11
32.6602
 21
37.3007
  0
LINE
  8
0
 10
32.6602
 20
37.3007
 11
32.6602
 21
31.9809
  0
LINE
  8
0
 10
32.6602
 20
31.9809
 11
27.3398
 21
31.9809
  0
LINE
  8
0
 10
7.33978
 20
31.9809
 11
7.33978
 21
37.3007
  0
LINE
  8
0
 10
7.33978
 20
37.3007
 11
12.6602
 21
37.3007
  0
LINE
  8
0
 10
12.6602
 20
37.3007
 11
12.6602
 21
31.9809
  0
LINE
  8
0
 10
12.6602
 20
31.9809
 11
7.33978
 21
31.9809
  0
LINE
  8
0
 10
-12.6602
 20
31.9809
 11
-12.6602
 21
37.3007
  0
LINE
  8
0
 10
-12.6602
 20
37.3007
 11
-7.33978
 21
37.3007
  0
LINE
  8
0
 10
-7.33978
 20
37.3007
 11
-7.33978
 21
31.9809
  0
LINE
  8
0
 10
-7.33978
 20
31.9809
 11
-12.6602
 21
31.9809
  0
LINE
  8
0
 10
-32.6602
 20
31.9809
 11
-32.6602
 21
37.3007
  0
LINE
  8
0
 10
-32.6602
 20
37.3007
 11
-27.3398
 21
37.3007
  0
LINE
  8
0
 10
-27.3398
 20
37.3007
 11
-27.3398
 21
31.9809
  0
LINE
  8
0
 10
-27.3398
 20
31.9809
 11
-32.6602
 21
31.9809
  0
LINE
  8
0
 10
-51.9912
 20
31.9809
 11
-50.2627
 21
37.3007
  0
LINE
  8
0
 10
-50.2627
 20
37.3007
 11
-47.3398
 21
37.3007
  0
LINE
  8
0
 10
-47.3398
 20
37.3007
 11
-47.3398
 21
31.9809
  0
LINE
  8
0
 10
-47.3398
 20
31.9809
 11
-51.9912
 21
31.9809
  0
LINE
  8
0
 10
48.0713
 20
29.9805
 11
51.9281
 21
29.9808
  0
LINE
  8
0
 10
51.9281
 20
29.9808
 11
51.9275
 21
29.9799
  0
LINE
  8
0
 10
51.9275
 20
29.9799
 11
51.9281
 21
29.9799
  0
LINE
  8
0
 10
51.9281
 20
29.9799
 11
50
 21
26.6406
  0
LINE
  8
0
 10
50
 20
26.6406
 11
48.0713
 21
29.9805
  0
LINE
  8
0
 10
8.07129
 20
29.9805
 11
11.9281
 21
29.9808
  0
LINE
  8
0
 10
11.9281
 20
29.9808
 11
11.9275
 21
29.9799
  0
LINE
  8
0
 10
11.9275
 20
29.9799
 11
11.9281
 21
29.9799
  0
LINE
  8
0
 10
11.9281
 20
29.9799
 11
10
 21
26.6406
  0
LINE
  8
0
 10
10
 20
26.6406
 11
8.07129
 21
29.9805
  0
LINE
  8
0
 10
-31.9287
 20
29.9805
 11
-28.0719
 21
29.9808
  0
LINE
  8
0
 10
-28.0719
 20
29.9808
 11
-28.0725
 21
29.9799
  0
LINE
  8
0
 10
-28.0725
 20
29.9799
 11
-28.0719
 21
29.9799
  0
LINE
  8
0
 10
-28.0719
 20
29.9799
 11
-30
 21
26.6406
  0
LINE
  8
0
 10
-30
 20
26.6406
 11
-31.9287
 21
29.9805
  0
LINE
  8
0
 10
-11.9287
 20
29.9805
 11
-8.0719
 21
29.9808
  0
LINE
  8
0
 10
-8.0719
 20
29.9808
 11
-8.07251
 21
29.9799
  0
LINE
  8
0
 10
-8.07251
 20
29.9799
 11
-8.0719
 21
29.9799
  0
LINE
  8
0
 10
-8.0719
 20
29.9799
 11
-10
 21
26.6406
  0
LINE
  8
0
 10
-10
 20
26.6406
 11
-11.9287
 21
29.9805
  0
LINE
  8
0
 10
28.0713
 20
29.9805
 11
31.9281
 21
29.9808
  0
LINE
  8
0
 10
31.9281
 20
29.9808
 11
31.9275
 21
29.9799
  0
LINE
  8
0
 10
31.9275
 20
29.9799
 11
31.9281
 21
29.9799
  0
LINE
  8
0
 10
31.9281
 20
29.9799
 11
30
 21
26.6406
  0
LINE
  8
0
 10
30
 20
26.6406
 11
28.0713
 21
29.9805
  0
LINE
  8
0
 10
-51.9287
 20
29.9805
 11
-48.0719
 21
29.9808
  0
LINE
  8
0
 10
-48.0719
 20
29.9808
 11
-48.0725
 21
29.9799
  0
LINE
  8
0
 10
-48.0725
 20
29.9799
 11
-48.0719
 21
29.9799
  0
LINE
  8
0
 10
-48.0719
 20
29.9799
 11
-50
 21
26.6406
  0
LINE
  8
0
 10
-50
 20
26.6406
 11
-51.9287
 21
29.9805
  0
LINE
  8
0
 10
-38.634
 20
26.9547
 11
-34.0265
 21
29.6146
  0
LINE
  8
0
 10
-34.0265
 20
29.6146
 11
-31.366
 21
25.0064
  0
LINE
  8
0
 10
-31.366
 20
25.0064
 11
-35.9735
 21
22.3465
  0
LINE
  8
0
 10
-35.9735
 20
22.3465
 11
-38.634
 21
26.9547
  0
LINE
  8
0
 10
21.366
 20
26.9547
 11
25.9735
 21
29.6146
  0
LINE
  8
0
 10
25.9735
 20
29.6146
 11
28.634
 21
25.0064
  0
LINE
  8
0
 10
28.634
 20
25.0064
 11
24.0265
 21
22.3465
  0
LINE
  8
0
 10
24.0265
 20
22.3465
 11
21.366
 21
26.9547
  0
LINE
  8
0
 10
31.366
 20
25.0064
 11
34.0265
 21
29.6146
  0
LINE
  8
0
 10
34.0265
 20
29.6146
 11
38.634
 21
26.9547
  0
LINE
  8
0
 10
38.634
 20
26.9547
 11
35.9735
 21
22.3465
  0
LINE
  8
0
 10
35.9735
 20
22.3465
 11
31.366
 21
25.0064
  0
LINE
  8
0
 10
-28.634
 20
25.0064
 11
-25.9735
 21
29.6146
  0
LINE
  8
0
 10
-25.9735
 20
29.6146
 11
-21.366
 21
26.9547
  0
LINE
  8
0
 10
-21.366
 20
26.9547
 11
-24.0265
 21
22.3465
  0
LINE
  8
0
 10
-24.0265
 20
22.3465
 11
-28.634
 21
25.0064
  0
LINE
  8
0
 10
-18.634
 20
26.9547
 11
-14.0265
 21
29.6146
  0
LINE
  8
0
 10
-14.0265
 20
29.6146
 11
-11.366
 21
25.0064
  0
LINE
  8
0
 10
-11.366
 20
25.0064
 11
-15.9735
 21
22.3465
  0
LINE
  8
0
 10
-15.9735
 20
22.3465
 11
-18.634
 21
26.9547
  0
LINE
  8
0
 10
11.366
 20
25.0064
 11
14.0265
 21
29.6146
  0
LINE
  8
0
 10
14.0265
 20
29.6146
 11
18.634
 21
26.9547
  0
LINE
  8
0
 10
18.634
 20
26.9547
 11
15.9735
 21
22.3465
  0
LINE
  8
0
 10
15.9735
 20
22.3465
 11
11.366
 21
25.0064
  0
LINE
  8
0
 10
-8.63403
 20
25.0064
 11
-5.97351
 21
29.6146
  0
LINE
  8
0
 10
-5.97351
 20
29.6146
 11
-1.36597
 21
26.9547
  0
LINE
  8
0
 10
-1.36597
 20
26.9547
 11
-4.02649
 21
22.3465
  0
LINE
  8
0
 10
-4.02649
 20
22.3465
 11
-8.63403
 21
25.0064
  0
LINE
  8
0
 10
-48.634
 20
25.0064
 11
-45.9735
 21
29.6146
  0
LINE
  8
0
 10
-45.9735
 20
29.6146
 11
-41.366
 21
26.9547
  0
LINE
  8
0
 10
-41.366
 20
26.9547
 11
-44.0265
 21
22.3465
  0
LINE
  8
0
 10
-44.0265
 20
22.3465
 11
-48.634
 21
25.0064
  0
LINE
  8
0
 10
1.36597
 20
26.9547
 11
5.97351
 21
29.6146
  0
LINE
  8
0
 10
5.97351
 20
29.6146
 11
8.63403
 21
25.0064
  0
LINE
  8
0
 10
8.63403
 20
25.0064
 11
4.02649
 21
22.3465
  0
LINE
  8
0
 10
4.02649
 20
22.3465
 11
1.36597
 21
26.9547
  0
LINE
  8
0
 10
41.366
 20
26.9547
 11
45.9735
 21
29.6146
  0
LINE
  8
0
 10
45.9735
 20
29.6146
 11
48.634
 21
25.0064
  0
LINE
  8
0
 10
48.634
 20
25.0064
 11
44.0265
 21
22.3465
  0
LINE
  8
0
 10
44.0265
 20
22.3465
 11
41.366
 21
26.9547
  0
LINE
  8
0
 10
-53.2161
 20
28.211
 11
-51.366
 21
25.0064
  0
LINE
  8
0
 10
-51.366
 20
25.0064
 11
-54.925
 21
22.9518
  0
LINE
  8
0
 10
-54.925
 20
22.9518
 11
-53.2161
 21
28.211
  0
LINE
  8
0
 10
51.366
 20
25.0064
 11
53.2161
 21
28.211
  0
LINE
  8
0
 10
53.2161
 20
28.211
 11
54.925
 21
22.9518
  0
LINE
  8
0
 10
54.925
 20
22.9518
 11
51.366
 21
25.0064
  0
LINE
  8
0
 10
18.0725
 20
21.9812
 11
18.0719
 21
21.9812
  0
LINE
  8
0
 10
18.0719
 20
21.9812
 11
20
 21
25.3204
  0
LINE
  8
0
 10
20
 20
25.3204
 11
21.9287
 21
21.9806
  0
LINE
  8
0
 10
21.9287
 20
21.9806
 11
18.0719
 21
21.9803
  0
LINE
  8
0
 10
18.0719
 20
21.9803
 11
18.0725
 21
21.9812
  0
LINE
  8
0
 10
38.0725
 20
21.9812
 11
38.0719
 21
21.9812
  0
LINE
  8
0
 10
38.0719
 20
21.9812
 11
40
 21
25.3204
  0
LINE
  8
0
 10
40
 20
25.3204
 11
41.9287
 21
21.9806
  0
LINE
  8
0
 10
41.9287
 20
21.9806
 11
38.0719
 21
21.9803
  0
LINE
  8
0
 10
38.0719
 20
21.9803
 11
38.0725
 21
21.9812
  0
LINE
  8
0
 10
-41.9275
 20
21.9812
 11
-41.9281
 21
21.9812
  0
LINE
  8
0
 10
-41.9281
 20
21.9812
 11
-40
 21
25.3204
  0
LINE
  8
0
 10
-40
 20
25.3204
 11
-38.0713
 21
21.9806
  0
LINE
  8
0
 10
-38.0713
 20
21.9806
 11
-41.9281
 21
21.9803
  0
LINE
  8
0
 10
-41.9281
 20
21.9803
 11
-41.9275
 21
21.9812
  0
LINE
  8
0
 10
-1.92749
 20
21.9812
 11
-1.9281
 21
21.9812
  0
LINE
  8
0
 10
-1.9281
 20
21.9812
 11
0
 21
25.3204
  0
LINE
  8
0
 10
0
 20
25.3204
 11
1.92871
 21
21.9806
  0
LINE
  8
0
 10
1.92871
 20
21.9806
 11
-1.9281
 21
21.9803
  0
LINE
  8
0
 10
-1.9281
 20
21.9803
 11
-1.92749
 21
21.9812
  0
LINE
  8
0
 10
-21.9275
 20
21.9812
 11
-21.9281
 21
21.9812
  0
LINE
  8
0
 10
-21.9281
 20
21.9812
 11
-20
 21
25.3204
  0
LINE
  8
0
 10
-20
 20
25.3204
 11
-18.0713
 21
21.9806
  0
LINE
  8
0
 10
-18.0713
 20
21.9806
 11
-21.9281
 21
21.9803
  0
LINE
  8
0
 10
-21.9281
 20
21.9803
 11
-21.9275
 21
21.9812
  0
LINE
  8
0
 10
-11.4639
 20
12
 11
-15.3394
 21
14.2377
  0
LINE
  8
0
 10
-15.3394
 20
14.2377
 11
-15.3394
 21
20.4031
  0
LINE
  8
0
 10
-15.3394
 20
20.4031
 11
-10
 21
23.4857
  0
LINE
  8
0
 10
-10
 20
23.4857
 11
-4.66064
 21
20.4028
  0
LINE
  8
0
 10
-4.66064
 20
20.4028
 11
-4.66064
 21
14.2374
  0
LINE
  8
0
 10
-4.66064
 20
14.2374
 11
-8.536
 21
12
  0
LINE
  8
0
 10
-8.536
 20
12
 11
-11.4639
 21
12
  0
LINE
  8
0
 10
48.5361
 20
12
 11
44.6606
 21
14.2377
  0
LINE
  8
0
 10
44.6606
 20
14.2377
 11
44.6606
 21
20.4031
  0
LINE
  8
0
 10
44.6606
 20
20.4031
 11
50
 21
23.4857
  0
LINE
  8
0
 10
50
 20
23.4857
 11
55.3394
 21
20.4028
  0
LINE
  8
0
 10
55.3394
 20
20.4028
 11
55.3394
 21
14.2374
  0
LINE
  8
0
 10
55.3394
 20
14.2374
 11
51.464
 21
12
  0
LINE
  8
0
 10
51.464
 20
12
 11
48.5361
 21
12
  0
LINE
  8
0
 10
8.53615
 20
12
 11
4.66064
 21
14.2377
  0
LINE
  8
0
 10
4.66064
 20
14.2377
 11
4.66064
 21
20.4031
  0
LINE
  8
0
 10
4.66064
 20
20.4031
 11
10
 21
23.4857
  0
LINE
  8
0
 10
10
 20
23.4857
 11
15.3394
 21
20.4028
  0
LINE
  8
0
 10
15.3394
 20
20.4028
 11
15.3394
 21
14.2374
  0
LINE
  8
0
 10
15.3394
 20
14.2374
 11
11.464
 21
12
  0
LINE
  8
0
 10
11.464
 20
12
 11
8.53615
 21
12
  0
LINE
  8
0
 10
28.5361
 20
12
 11
24.6606
 21
14.2377
  0
LINE
  8
0
 10
24.6606
 20
14.2377
 11
24.6606
 21
20.4031
  0
LINE
  8
0
 10
24.6606
 20
20.4031
 11
30
 21
23.4857
  0
LINE
  8
0
 10
30
 20
23.4857
 11
35.3394
 21
20.4028
  0
LINE
  8
0
 10
35.3394
 20
20.4028
 11
35.3394
 21
14.2374
  0
LINE
  8
0
 10
35.3394
 20
14.2374
 11
31.464
 21
12
  0
LINE
  8
0
 10
31.464
 20
12
 11
28.5361
 21
12
  0
LINE
  8
0
 10
-31.4639
 20
12
 11
-35.3394
 21
14.2377
  0
LINE
  8
0
 10
-35.3394
 20
14.2377
 11
-35.3394
 21
20.4031
  0
LINE
  8
0
 10
-35.3394
 20
20.4031
 11
-30
 21
23.4857
  0
LINE
  8
0
 10
-30
 20
23.4857
 11
-24.6606
 21
20.4028
  0
LINE
  8
0
 10
-24.6606
 20
20.4028
 11
-24.6606
 21
14.2374
  0
LINE
  8
0
 10
-24.6606
 20
14.2374
 11
-28.536
 21
12
  0
LINE
  8
0
 10
-28.536
 20
12
 11
-31.4639
 21
12
  0
LINE
  8
0
 10
-51.4639
 20
12
 11
-55.3394
 21
14.2377
  0
LINE
  8
0
 10
-55.3394
 20
14.2377
 11
-55.3394
 21
20.4031
  0
LINE
  8
0
 10
-55.3394
 20
20.4031
 11
-50
 21
23.4857
  0
LINE
  8
0
 10
-50
 20
23.4857
 11
-44.6606
 21
20.4028
  0
LINE
  8
0
 10
-44.6606
 20
20.4028
 11
-44.6606
 21
14.2374
  0
LINE
  8
0
 10
-44.6606
 20
14.2374
 11
-48.536
 21
12
  0
LINE
  8
0
 10
-48.536
 20
12
 11
-51.4639
 21
12
  0
LINE
  8
0
 10
-22.6602
 20
14.6603
 11
-22.6602
 21
19.9802
  0
LINE
  8
0
 10
-22.6602
 20
19.9802
 11
-17.3398
 21
19.9802
  0
LINE
  8
0
 10
-17.3398
 20
19.9802
 11
-17.3398
 21
14.6603
  0
LINE
  8
0
 10
-17.3398
 20
14.6603
 11
-22.6602
 21
14.6603
  0
LINE
  8
0
 10
-42.6602
 20
14.6603
 11
-42.6602
 21
19.9802
  0
LINE
  8
0
 10
-42.6602
 20
19.9802
 11
-37.3398
 21
19.9802
  0
LINE
  8
0
 10
-37.3398
 20
19.9802
 11
-37.3398
 21
14.6603
  0
LINE
  8
0
 10
-37.3398
 20
14.6603
 11
-42.6602
 21
14.6603
  0
LINE
  8
0
 10
37.3398
 20
14.6603
 11
37.3398
 21
19.9802
  0
LINE
  8
0
 10
37.3398
 20
19.9802
 11
42.6602
 21
19.9802
  0
LINE
  8
0
 10
42.6602
 20
19.9802
 11
42.6602
 21
14.6603
  0
LINE
  8
0
 10
42.6602
 20
14.6603
 11
37.3398
 21
14.6603
  0
LINE
  8
0
 10
17.3398
 20
14.6603
 11
17.3398
 21
19.9802
  0
LINE
  8
0
 10
17.3398
 20
19.9802
 11
22.6602
 21
19.9802
  0
LINE
  8
0
 10
22.6602
 20
19.9802
 11
22.6602
 21
14.6603
  0
LINE
  8
0
 10
22.6602
 20
14.6603
 11
17.3398
 21
14.6603
  0
LINE
  8
0
 10
-2.66022
 20
14.6603
 11
-2.66022
 21
19.9802
  0
LINE
  8
0
 10
-2.66022
 20
19.9802
 11
2.66022
 21
19.9802
  0
LINE
  8
0
 10
2.66022
 20
19.9802
 11
2.66022
 21
14.6603
  0
LINE
  8
0
 10
2.66022
 20
14.6603
 11
-2.66022
 21
14.6603
  0
LINE
  8
0
 10
-57.619
 20
14.6603
 11
-57.3398
 21
15.5197
  0
LINE
  8
0
 10
-57.3398
 20
15.5197
 11
-57.3398
 21
14.6603
  0
LINE
  8
0
 10
-57.3398
 20
14.6603
 11
-57.619
 21
14.6603
  0
LINE
  8
0
 10
57.3398
 20
14.6603
 11
57.3398
 21
15.5197
  0
LINE
  8
0
 10
57.3398
 20
15.5197
 11
57.619
 21
14.6603
  0
LINE
  8
0
 10
57.619
 20
14.6603
 11
57.3398
 21
14.6603
  0
LINE
  8
0
 10
-41.5476
 20
12
 11
-41.9287
 21
12.6599
  0
LINE
  8
0
 10
-41.9287
 20
12.6599
 11
-38.0719
 21
12.6602
  0
LINE
  8
0
 10
-38.0719
 20
12.6602
 11
-38.453
 21
12
  0
LINE
  8
0
 10
-38.453
 20
12
 11
-41.5476
 21
12
  0
LINE
  8
0
 10
-58.4834
 20
12
 11
-58.2689
 21
12.6602
  0
LINE
  8
0
 10
-58.2689
 20
12.6602
 11
-58.0719
 21
12.6602
  0
LINE
  8
0
 10
-58.0719
 20
12.6602
 11
-58.453
 21
12
  0
LINE
  8
0
 10
-58.453
 20
12
 11
-58.4834
 21
12
  0
LINE
  8
0
 10
-1.54759
 20
12
 11
-1.92871
 21
12.6599
  0
LINE
  8
0
 10
-1.92871
 20
12.6599
 11
1.9281
 21
12.6602
  0
LINE
  8
0
 10
1.9281
 20
12.6602
 11
1.54695
 21
12
  0
LINE
  8
0
 10
1.54695
 20
12
 11
-1.54759
 21
12
  0
LINE
  8
0
 10
18.4524
 20
12
 11
18.0713
 21
12.6599
  0
LINE
  8
0
 10
18.0713
 20
12.6599
 11
21.9281
 21
12.6602
  0
LINE
  8
0
 10
21.9281
 20
12.6602
 11
21.547
 21
12
  0
LINE
  8
0
 10
21.547
 20
12
 11
18.4524
 21
12
  0
LINE
  8
0
 10
38.4524
 20
12
 11
38.0713
 21
12.6599
  0
LINE
  8
0
 10
38.0713
 20
12.6599
 11
41.9281
 21
12.6602
  0
LINE
  8
0
 10
41.9281
 20
12.6602
 11
41.547
 21
12
  0
LINE
  8
0
 10
41.547
 20
12
 11
38.4524
 21
12
  0
LINE
  8
0
 10
-21.5476
 20
12
 11
-21.9287
 21
12.6599
  0
LINE
  8
0
 10
-21.9287
 20
12.6599
 11
-18.0719
 21
12.6602
  0
LINE
  8
0
 10
-18.0719
 20
12.6602
 11
-18.453
 21
12
  0
LINE
  8
0
 10
-18.453
 20
12
 11
-21.5476
 21
12
  0
LINE
  8
0
 10
58.4524
 20
12
 11
58.0713
 21
12.6599
  0
LINE
  8
0
 10
58.0713
 20
12.6599
 11
58.269
 21
12.6599
  0
LINE
  8
0
 10
58.269
 20
12.6599
 11
58.4834
 21
12
  0
LINE
  8
0
 10
58.4834
 20
12
 11
58.4524
 21
12
  0
LINE
  8
0
 10
15.4642
 20
12
 11
15.9735
 21
12.294
  0
LINE
  8
0
 10
15.9735
 20
12.294
 11
16.1433
 21
12
  0
LINE
  8
0
 10
16.1433
 20
12
 11
15.4642
 21
12
  0
LINE
  8
0
 10
-24.5358
 20
12
 11
-24.0265
 21
12.294
  0
LINE
  8
0
 10
-24.0265
 20
12.294
 11
-23.8567
 21
12
  0
LINE
  8
0
 10
-23.8567
 20
12
 11
-24.5358
 21
12
  0
LINE
  8
0
 10
-4.53577
 20
12
 11
-4.02649
 21
12.294
  0
LINE
  8
0
 10
-4.02649
 20
12.294
 11
-3.85674
 21
12
  0
LINE
  8
0
 10
-3.85674
 20
12
 11
-4.53577
 21
12
  0
LINE
  8
0
 10
35.4642
 20
12
 11
35.9735
 21
12.294
  0
LINE
  8
0
 10
35.9735
 20
12.294
 11
36.1433
 21
12
  0
LINE
  8
0
 10
36.1433
 20
12
 11
35.4642
 21
12
  0
LINE
  8
0
 10
55.4642
 20
12
 11
55.9735
 21
12.294
  0
LINE
  8
0
 10
55.9735
 20
12.294
 11
56.1433
 21
12
  0
LINE
  8
0
 10
56.1433
 20
12
 11
55.4642
 21
12
  0
LINE
  8
0
 10
-44.5358
 20
12
 11
-44.0265
 21
12.294
  0
LINE
  8
0
 10
-44.0265
 20
12.294
 11
-43.8567
 21
12
  0
LINE
  8
0
 10
-43.8567
 20
12
 11
-44.5358
 21
12
  0
LINE
  8
0
 10
43.8566
 20
12
 11
44.0262
 21
12.2937
  0
LINE
  8
0
 10
44.0262
 20
12.2937
 11
44.535
 21
12
  0
LINE
  8
0
 10
44.535
 20
12
 11
43.8566
 21
12
  0
LINE
  8
0
 10
-16.1434
 20
12
 11
-15.9738
 21
12.2937
  0
LINE
  8
0
 10
-15.9738
 20
12.2937
 11
-15.465
 21
12
  0
LINE
  8
0
 10
-15.465
 20
12
 11
-16.1434
 21
12
  0
LINE
  8
0
 10
-36.1434
 20
12
 11
-35.9738
 21
12.2937
  0
LINE
  8
0
 10
-35.9738
 20
12.2937
 11
-35.465
 21
12
  0
LINE
  8
0
 10
-35.465
 20
12
 11
-36.1434
 21
12
  0
LINE
  8
0
 10
23.8566
 20
12
 11
24.0262
 21
12.2937
  0
LINE
  8
0
 10
24.0262
 20
12.2937
 11
24.535
 21
12
  0
LINE
  8
0
 10
24.535
 20
12
 11
23.8566
 21
12
  0
LINE
  8
0
 10
3.85661
 20
12
 11
4.02618
 21
12.2937
  0
LINE
  8
0
 10
4.02618
 20
12.2937
 11
4.53503
 21
12
  0
LINE
  8
0
 10
4.53503
 20
12
 11
3.85661
 21
12
  0
LINE
  8
0
 10
-56.1434
 20
12
 11
-55.9738
 21
12.2937
  0
LINE
  8
0
 10
-55.9738
 20
12.2937
 11
-55.465
 21
12
  0
LINE
  8
0
 10
-55.465
 20
12
 11
-56.1434
 21
12
  0
LINE
  8
0
 10
-10
 20
7
 11
-10
 21
11
  0
LINE
  8
0
 10
-10
 20
11
 11
10
 21
11
  0
LINE
  8
0
 10
10
 20
11
 11
10
 21
7
  0
LINE
  8
0
 10
10
 20
7
 11
-10
 21
7
  0
LINE
  8
0
 10
-68.6534
 20
2.70622
 11
-68.7785
 21
2.71805
  0
LINE
  8
0
 10
-68.7785
 20
2.71805
 11
-68.9026
 21
2.7377
  0
LINE
  8
0
 10
-68.9026
 20
2.7377
 11
-69.0252
 21
2.76511
  0
LINE
  8
0
 10
-69.0252
 20
2.76511
 11
-69.1459
 21
2.80016
  0
LINE
  8
0
 10
-69.1459
 20
2.80016
 11
-69.2641
 21
2.84273
  0
LINE
  8
0
 10
-69.2641
 20
2.84273
 11
-69.3794
 21
2.89262
  0
LINE
  8
0
 10
-69.3794
 20
2.89262
 11
-69.4914
 21
2.94966
  0
LINE
  8
0
 10
-69.4914
 20
2.94966
 11
-69.5995
 21
3.01363
  0
LINE
  8
0
 10
-69.5995
 20
3.01363
 11
-69.7034
 21
3.08424
  0
LINE
  8
0
 10
-69.7034
 20
3.08424
 11
-69.8027
 21
3.16125
  0
LINE
  8
0
 10
-69.8027
 20
3.16125
 11
-69.897
 21
3.24434
  0
LINE
  8
0
 10
-69.897
 20
3.24434
 11
-69.9858
 21
3.33318
  0
LINE
  8
0
 10
-69.9858
 20
3.33318
 11
-70.0689
 21
3.42743
  0
LINE
  8
0
 10
-70.0689
 20
3.42743
 11
-70.1459
 21
3.5267
  0
LINE
  8
0
 10
-70.1459
 20
3.5267
 11
-70.2165
 21
3.63062
  0
LINE
  8
0
 10
-70.2165
 20
3.63062
 11
-70.2805
 21
3.73877
  0
LINE
  8
0
 10
-70.2805
 20
3.73877
 11
-70.3375
 21
3.85072
  0
LINE
  8
0
 10
-70.3375
 20
3.85072
 11
-70.3874
 21
3.96602
  0
LINE
  8
0
 10
-70.3874
 20
3.96602
 11
-70.43
 21
4.08424
  0
LINE
  8
0
 10
-70.43
 20
4.08424
 11
-70.465
 21
4.2049
  0
LINE
  8
0
 10
-70.465
 20
4.2049
 11
-70.4924
 21
4.32751
  0
LINE
  8
0
 10
-70.4924
 20
4.32751
 11
-70.5121
 21
4.45161
  0
LINE
  8
0
 10
-70.5121
 20
4.45161
 11
-70.5239
 21
4.57669
  0
LINE
  8
0
 10
-70.5239
 20
4.57669
 11
-70.5279
 21
4.70227
  0
LINE
  8
0
 10
-70.5279
 20
4.70227
 11
-70.5239
 21
4.82785
  0
LINE
  8
0
 10
-70.5239
 20
4.82785
 11
-70.5121
 21
4.95294
  0
LINE
  8
0
 10
-70.5121
 20
4.95294
 11
-70.4924
 21
5.07704
  0
LINE
  8
0
 10
-70.4924
 20
5.07704
 11
-70.465
 21
5.19966
  0
LINE
  8
0
 10
-70.465
 20
5.19966
 11
-70.43
 21
5.32031
  0
LINE
  8
0
 10
-70.43
 20
5.32031
 11
-70.3874
 21
5.43852
  0
LINE
  8
0
 10
-70.3874
 20
5.43852
 11
-70.3375
 21
5.55383
  0
LINE
  8
0
 10
-70.3375
 20
5.55383
 11
-70.2805
 21
5.66579
  0
LINE
  8
0
 10
-70.2805
 20
5.66579
 11
-70.2165
 21
5.77393
  0
LINE
  8
0
 10
-70.2165
 20
5.77393
 11
-70.1459
 21
5.87784
  0
LINE
  8
0
 10
-70.1459
 20
5.87784
 11
-70.0689
 21
5.97713
  0
LINE
  8
0
 10
-70.0689
 20
5.97713
 11
-69.9858
 21
6.07137
  0
LINE
  8
0
 10
-69.9858
 20
6.07137
 11
-69.897
 21
6.16022
  0
LINE
  8
0
 10
-69.897
 20
6.16022
 11
-69.8027
 21
6.2433
  0
LINE
  8
0
 10
-69.8027
 20
6.2433
 11
-69.7034
 21
6.32031
  0
LINE
  8
0
 10
-69.7034
 20
6.32031
 11
-69.5995
 21
6.39093
  0
LINE
  8
0
 10
-69.5995
 20
6.39093
 11
-69.4914
 21
6.4549
  0
LINE
  8
0
 10
-69.4914
 20
6.4549
 11
-69.3794
 21
6.51193
  0
LINE
  8
0
 10
-69.3794
 20
6.51193
 11
-69.2641
 21
6.56183
  0
LINE
  8
0
 10
-69.2641
 20
6.56183
 11
-69.1459
 21
6.60439
  0
LINE
  8
0
 10
-69.1459
 20
6.60439
 11
-69.0252
 21
6.63943
  0
LINE
  8
0
 10
-69.0252
 20
6.63943
 11
-68.9026
 21
6.66685
  0
LINE
  8
0
 10
-68.9026
 20
6.66685
 11
-68.7785
 21
6.68651
  0
LINE
  8
0
 10
-68.7785
 20
6.68651
 11
-68.6534
 21
6.69833
  0
LINE
  8
0
 10
-68.6534
 20
6.69833
 11
-68.5279
 21
6.70227
  0
LINE
  8
0
 10
-68.5279
 20
6.70227
 11
-68.4023
 21
6.69833
  0
LINE
  8
0
 10
-68.4023
 20
6.69833
 11
-68.2772
 21
6.68651
  0
LINE
  8
0
 10
-68.2772
 20
6.68651
 11
-68.1531
 21
6.66685
  0
LINE
  8
0
 10
-68.1531
 20
6.66685
 11
-68.0305
 21
6.63943
  0
LINE
  8
0
 10
-68.0305
 20
6.63943
 11
-67.9098
 21
6.60439
  0
LINE
  8
0
 10
-67.9098
 20
6.60439
 11
-67.7916
 21
6.56183
  0
LINE
  8
0
 10
-67.7916
 20
6.56183
 11
-67.6763
 21
6.51193
  0
LINE
  8
0
 10
-67.6763
 20
6.51193
 11
-67.5643
 21
6.4549
  0
LINE
  8
0
 10
-67.5643
 20
6.4549
 11
-67.4562
 21
6.39093
  0
LINE
  8
0
 10
-67.4562
 20
6.39093
 11
-67.3523
 21
6.32031
  0
LINE
  8
0
 10
-67.3523
 20
6.32031
 11
-67.253
 21
6.2433
  0
LINE
  8
0
 10
-67.253
 20
6.2433
 11
-67.1588
 21
6.16022
  0
LINE
  8
0
 10
-67.1588
 20
6.16022
 11
-67.0699
 21
6.07137
  0
LINE
  8
0
 10
-67.0699
 20
6.07137
 11
-66.9868
 21
5.97713
  0
LINE
  8
0
 10
-66.9868
 20
5.97713
 11
-66.9098
 21
5.87784
  0
LINE
  8
0
 10
-66.9098
 20
5.87784
 11
-66.8392
 21
5.77393
  0
LINE
  8
0
 10
-66.8392
 20
5.77393
 11
-66.7752
 21
5.66579
  0
LINE
  8
0
 10
-66.7752
 20
5.66579
 11
-66.7182
 21
5.55383
  0
LINE
  8
0
 10
-66.7182
 20
5.55383
 11
-66.6683
 21
5.43852
  0
LINE
  8
0
 10
-66.6683
 20
5.43852
 11
-66.6257
 21
5.32031
  0
LINE
  8
0
 10
-66.6257
 20
5.32031
 11
-66.5907
 21
5.19966
  0
LINE
  8
0
 10
-66.5907
 20
5.19966
 11
-66.5633
 21
5.07704
  0
LINE
  8
0
 10
-66.5633
 20
5.07704
 11
-66.5436
 21
4.95294
  0
LINE
  8
0
 10
-66.5436
 20
4.95294
 11
-66.5318
 21
4.82785
  0
LINE
  8
0
 10
-66.5318
 20
4.82785
 11
-66.5279
 21
4.70227
  0
LINE
  8
0
 10
-66.5279
 20
4.70227
 11
-66.5318
 21
4.57669
  0
LINE
  8
0
 10
-66.5318
 20
4.57669
 11
-66.5436
 21
4.45161
  0
LINE
  8
0
 10
-66.5436
 20
4.45161
 11
-66.5633
 21
4.32751
  0
LINE
  8
0
 10
-66.5633
 20
4.32751
 11
-66.5907
 21
4.2049
  0
LINE
  8
0
 10
-66.5907
 20
4.2049
 11
-66.6257
 21
4.08424
  0
LINE
  8
0
 10
-66.6257
 20
4.08424
 11
-66.6683
 21
3.96602
  0
LINE
  8
0
 10
-66.6683
 20
3.96602
 11
-66.7182
 21
3.85072
  0
LINE
  8
0
 10
-66.7182
 20
3.85072
 11
-66.7752
 21
3.73877
  0
LINE
  8
0
 10
-66.7752
 20
3.73877
 11
-66.8392
 21
3.63062
  0
LINE
  8
0
 10
-66.8392
 20
3.63062
 11
-66.9098
 21
3.5267
  0
LINE
  8
0
 10
-66.9098
 20
3.5267
 11
-66.9868
 21
3.42743
  0
LINE
  8
0
 10
-66.9868
 20
3.42743
 11
-67.0699
 21
3.33318
  0
LINE
  8
0
 10
-67.0699
 20
3.33318
 11
-67.1588
 21
3.24434
  0
LINE
  8
0
 10
-67.1588
 20
3.24434
 11
-67.253
 21
3.16125
  0
LINE
  8
0
 10
-67.253
 20
3.16125
 11
-67.3523
 21
3.08424
  0
LINE
  8
0
 10
-67.3523
 20
3.08424
 11
-67.4562
 21
3.01363
  0
LINE
  8
0
 10
-67.4562
 20
3.01363
 11
-67.5643
 21
2.94966
  0
LINE
  8
0
 10
-67.5643
 20
2.94966
 11
-67.6763
 21
2.89262
  0
LINE
  8
0
 10
-67.6763
 20
2.89262
 11
-67.7916
 21
2.84273
  0
LINE
  8
0
 10
-67.7916
 20
2.84273
 11
-67.9098
 21
2.80016
  0
LINE
  8
0
 10
-67.9098
 20
2.80016
 11
-68.0305
 21
2.76511
  0
LINE
  8
0
 10
-68.0305
 20
2.76511
 11
-68.1531
 21
2.7377
  0
LINE
  8
0
 10
-68.1531
 20
2.7377
 11
-68.2772
 21
2.71805
  0
LINE
  8
0
 10
-68.2772
 20
2.71805
 11
-68.4023
 21
2.70622
  0
LINE
  8
0
 10
-68.4023
 20
2.70622
 11
-68.5279
 21
2.70227
  0
LINE
  8
0
 10
-68.5279
 20
2.70227
 11
-68.6534
 21
2.70622
  0
LINE
  8
0
 10
68.4023
 20
2.70622
 11
68.2772
 21
2.71805
  0
LINE
  8
0
 10
68.2772
 20
2.71805
 11
68.1531
 21
2.7377
  0
LINE
  8
0
 10
68.1531
 20
2.7377
 11
68.0305
 21
2.76511
  0
LINE
  8
0
 10
68.0305
 20
2.76511
 11
67.9098
 21
2.80016
  0
LINE
  8
0
 10
67.9098
 20
2.80016
 11
67.7916
 21
2.84273
  0
LINE
  8
0
 10
67.7916
 20
2.84273
 11
67.6763
 21
2.89262
  0
LINE
  8
0
 10
67.6763
 20
2.89262
 11
67.5643
 21
2.94966
  0
LINE
  8
0
 10
67.5643
 20
2.94966
 11
67.4562
 21
3.01363
  0
LINE
  8
0
 10
67.4562
 20
3.01363
 11
67.3523
 21
3.08424
  0
LINE
  8
0
 10
67.3523
 20
3.08424
 11
67.253
 21
3.16125
  0
LINE
  8
0
 10
67.253
 20
3.16125
 11
67.1588
 21
3.24434
  0
LINE
  8
0
 10
67.1588
 20
3.24434
 11
67.0699
 21
3.33318
  0
LINE
  8
0
 10
67.0699
 20
3.33318
 11
66.9868
 21
3.42743
  0
LINE
  8
0
 10
66.9868
 20
3.42743
 11
66.9098
 21
3.5267
  0
LINE
  8
0
 10
66.9098
 20
3.5267
 11
66.8392
 21
3.63062
  0
LINE
  8
0
 10
66.8392
 20
3.63062
 11
66.7752
 21
3.73877
  0
LINE
  8
0
 10
66.7752
 20
3.73877
 11
66.7182
 21
3.85072
  0
LINE
  8
0
 10
66.7182
 20
3.85072
 11
66.6683
 21
3.96602
  0
LINE
  8
0
 10
66.6683
 20
3.96602
 11
66.6257
 21
4.08424
  0
LINE
  8
0
 10
66.6257
 20
4.08424
 11
66.5907
 21
4.2049
  0
LINE
  8
0
 10
66.5907
 20
4.2049
 11
66.5633
 21
4.32751
  0
LINE
  8
0
 10
66.5633
 20
4.32751
 11
66.5436
 21
4.45161
  0
LINE
  8
0
 10
66.5436
 20
4.45161
 11
66.5318
 21
4.57669
  0
LINE
  8
0
 10
66.5318
 20
4.57669
 11
66.5279
 21
4.70227
  0
LINE
  8
0
 10
66.5279
 20
4.70227
 11
66.5318
 21
4.82785
  0
LINE
  8
0
 10
66.5318
 20
4.82785
 11
66.5436
 21
4.95294
  0
LINE
  8
0
 10
66.5436
 20
4.95294
 11
66.5633
 21
5.07704
  0
LINE
  8
0
 10
66.5633
 20
5.07704
 11
66.5907
 21
5.19966
  0
LINE
  8
0
 10
66.5907
 20
5.19966
 11
66.6257
 21
5.32031
  0
LINE
  8
0
 10
66.6257
 20
5.32031
 11
66.6683
 21
5.43852
  0
LINE
  8
0
 10
66.6683
 20
5.43852
 11
66.7182
 21
5.55383
  0
LINE
  8
0
 10
66.7182
 20
5.55383
 11
66.7752
 21
5.66579
  0
LINE
  8
0
 10
66.7752
 20
5.66579
 11
66.8392
 21
5.77393
  0
LINE
  8
0
 10
66.8392
 20
5.77393
 11
66.9098
 21
5.87784
  0
LINE
  8
0
 10
66.9098
 20
5.87784
 11
66.9868
 21
5.97713
  0
LINE
  8
0
 10
66.9868
 20
5.97713
 11
67.0699
 21
6.07137
  0
LINE
  8
0
 10
67.0699
 20
6.07137
 11
67.1588
 21
6.16022
  0
LINE
  8
0
 10
67.1588
 20
6.16022
 11
67.253
 21
6.2433
  0
LINE
  8
0
 10
67.253
 20
6.2433
 11
67.3523
 21
6.32031
  0
LINE
  8
0
 10
67.3523
 20
6.32031
 11
67.4562
 21
6.39093
  0
LINE
  8
0
 10
67.4562
 20
6.39093
 11
67.5643
 21
6.4549
  0
LINE
  8
0
 10
67.5643
 20
6.4549
 11
67.6763
 21
6.51193
  0
LINE
  8
0
 10
67.6763
 20
6.51193
 11
67.7916
 21
6.56183
  0
LINE
  8
0
 10
67.7916
 20
6.56183
 11
67.9098
 21
6.60439
  0
LINE
  8
0
 10
67.9098
 20
6.60439
 11
68.0305
 21
6.63943
  0
LINE
  8
0
 10
68.0305
 20
6.63943
 11
68.1531
 21
6.66685
  0
LINE
  8
0
 10
68.1531
 20
6.66685
 11
68.2772
 21
6.68651
  0
LINE
  8
0
 10
68.2772
 20
6.68651
 11
68.4023
 21
6.69833
  0
LINE
  8
0
 10
68.4023
 20
6.69833
 11
68.5279
 21
6.70227
  0
LINE
  8
0
 10
68.5279
 20
6.70227
 11
68.6534
 21
6.69833
  0
LINE
  8
0
 10
68.6534
 20
6.69833
 11
68.7785
 21
6.68651
  0
LINE
  8
0
 10
68.7785
 20
6.68651
 11
68.9026
 21
6.66685
  0
LINE
  8
0
 10
68.9026
 20
6.66685
 11
69.0252
 21
6.63943
  0
LINE
  8
0
 10
69.0252
 20
6.63943
 11
69.1459
 21
6.60439
  0
LINE
  8
0
 10
69.1459
 20
6.60439
 11
69.2641
 21
6.56183
  0
LINE
  8
0
 10
69.2641
 20
6.56183
 11
69.3794
 21
6.51193
  0
LINE
  8
0
 10
69.3794
 20
6.51193
 11
69.4914
 21
6.4549
  0
LINE
  8
0
 10
69.4914
 20
6.4549
 11
69.5995
 21
6.39093
  0
LINE
  8
0
 10
69.5995
 20
6.39093
 11
69.7034
 21
6.32031
  0
LINE
  8
0
 10
69.7034
 20
6.32031
 11
69.8027
 21
6.2433
  0
LINE
  8
0
 10
69.8027
 20
6.2433
 11
69.897
 21
6.16022
  0
LINE
  8
0
 10
69.897
 20
6.16022
 11
69.9858
 21
6.07137
  0
LINE
  8
0
 10
69.9858
 20
6.07137
 11
70.0689
 21
5.97713
  0
LINE
  8
0
 10
70.0689
 20
5.97713
 11
70.1459
 21
5.87784
  0
LINE
  8
0
 10
70.1459
 20
5.87784
 11
70.2165
 21
5.77393
  0
LINE
  8
0
 10
70.2165
 20
5.77393
 11
70.2805
 21
5.66579
  0
LINE
  8
0
 10
70.2805
 20
5.66579
 11
70.3375
 21
5.55383
  0
LINE
  8
0
 10
70.3375
 20
5.55383
 11
70.3874
 21
5.43852
  0
LINE
  8
0
 10
70.3874
 20
5.43852
 11
70.43
 21
5.32031
  0
LINE
  8
0
 10
70.43
 20
5.32031
 11
70.465
 21
5.19966
  0
LINE
  8
0
 10
70.465
 20
5.19966
 11
70.4924
 21
5.07704
  0
LINE
  8
0
 10
70.4924
 20
5.07704
 11
70.5121
 21
4.95294
  0
LINE
  8
0
 10
70.5121
 20
4.95294
 11
70.5239
 21
4.82785
  0
LINE
  8
0
 10
70.5239
 20
4.82785
 11
70.5279
 21
4.70227
  0
LINE
  8
0
 10
70.5279
 20
4.70227
 11
70.5239
 21
4.57669
  0
LINE
  8
0
 10
70.5239
 20
4.57669
 11
70.5121
 21
4.45161
  0
LINE
  8
0
 10
70.5121
 20
4.45161
 11
70.4924
 21
4.32751
  0
LINE
  8
0
 10
70.4924
 20
4.32751
 11
70.465
 21
4.2049
  0
LINE
  8
0
 10
70.465
 20
4.2049
 11
70.43
 21
4.08424
  0
LINE
  8
0
 10
70.43
 20
4.08424
 11
70.3874
 21
3.96602
  0
LINE
  8
0
 10
70.3874
 20
3.96602
 11
70.3375
 21
3.85072
  0
LINE
  8
0
 10
70.3375
 20
3.85072
 11
70.2805
 21
3.73877
  0
LINE
  8
0
 10
70.2805
 20
3.73877
 11
70.2165
 21
3.63062
  0
LINE
  8
0
 10
70.2165
 20
3.63062
 11
70.1459
 21
3.5267
  0
LINE
  8
0
 10
70.1459
 20
3.5267
 11
70.0689
 21
3.42743
  0
LINE
  8
0
 10
70.0689
 20
3.42743
 11
69.9858
 21
3.33318
  0
LINE
  8
0
 10
69.9858
 20
3.33318
 11
69.897
 21
3.24434
  0
LINE
  8
0
 10
69.897
 20
3.24434
 11
69.8027
 21
3.16125
  0
LINE
  8
0
 10
69.8027
 20
3.16125
 11
69.7034
 21
3.08424
  0
LINE
  8
0
 10
69.7034
 20
3.08424
 11
69.5995
 21
3.01363
  0
LINE
  8
0
 10
69.5995
 20
3.01363
 11
69.4914
 21
2.94966
  0
LINE
  8
0
 10
69.4914
 20
2.94966
 11
69.3794
 21
2.89262
  0
LINE
  8
0
 10
69.3794
 20
2.89262
 11
69.2641
 21
2.84273
  0
LINE
  8
0
 10
69.2641
 20
2.84273
 11
69.1459
 21
2.80016
  0
LINE
  8
0
 10
69.1459
 20
2.80016
 11
69.0252
 21
2.76511
  0
LINE
  8
0
 10
69.0252
 20
2.76511
 11
68.9026
 21
2.7377
  0
LINE
  8
0
 10
68.9026
 20
2.7377
 11
68.7785
 21
2.71805
  0
LINE
  8
0
 10
68.7785
 20
2.71805
 11
68.6534
 21
2.70622
  0
LINE
  8
0
 10
68.6534
 20
2.70622
 11
68.5279
 21
2.70227
  0
LINE
  8
0
 10
68.5279
 20
2.70227
 11
68.4023
 21
2.70622
  0
ENDSEC
  0
SECTION
  2
OBJECTS
  0
DICTIONARY
  0
ENDSEC
  0
EOF
