  0
SECTION
  2
BLOCKS
  0
ENDSEC
  0
SECTION
  2
ENTITIES
  0
LINE
  8
0
 10
0
 20
230.826
 11
-75
 21
0
  0
LINE
  8
0
 10
-75
 20
0
 11
75
 21
0
  0
LINE
  8
0
 10
75
 20
0
 11
0
 21
230.826
  0
LINE
  8
0
 10
-0.12558
 20
212.83
 11
-0.250656
 21
212.842
  0
LINE
  8
0
 10
-0.250656
 20
212.842
 11
-0.374756
 21
212.862
  0
LINE
  8
0
 10
-0.374756
 20
212.862
 11
-0.497375
 21
212.889
  0
LINE
  8
0
 10
-0.497375
 20
212.889
 11
-0.618027
 21
212.924
  0
LINE
  8
0
 10
-0.618027
 20
212.924
 11
-0.736237
 21
212.967
  0
LINE
  8
0
 10
-0.736237
 20
212.967
 11
-0.851547
 21
213.017
  0
LINE
  8
0
 10
-0.851547
 20
213.017
 11
-0.963501
 21
213.074
  0
LINE
  8
0
 10
-0.963501
 20
213.074
 11
-1.07164
 21
213.138
  0
LINE
  8
0
 10
-1.07164
 20
213.138
 11
-1.17557
 21
213.208
  0
LINE
  8
0
 10
-1.17557
 20
213.208
 11
-1.27484
 21
213.285
  0
LINE
  8
0
 10
-1.27484
 20
213.285
 11
-1.36908
 21
213.368
  0
LINE
  8
0
 10
-1.36908
 20
213.368
 11
-1.45793
 21
213.457
  0
LINE
  8
0
 10
-1.45793
 20
213.457
 11
-1.54102
 21
213.551
  0
LINE
  8
0
 10
-1.54102
 20
213.551
 11
-1.61803
 21
213.651
  0
LINE
  8
0
 10
-1.61803
 20
213.651
 11
-1.68864
 21
213.755
  0
LINE
  8
0
 10
-1.68864
 20
213.755
 11
-1.75261
 21
213.863
  0
LINE
  8
0
 10
-1.75261
 20
213.863
 11
-1.80965
 21
213.975
  0
LINE
  8
0
 10
-1.80965
 20
213.975
 11
-1.85954
 21
214.09
  0
LINE
  8
0
 10
-1.85954
 20
214.09
 11
-1.9021
 21
214.208
  0
LINE
  8
0
 10
-1.9021
 20
214.208
 11
-1.93716
 21
214.329
  0
LINE
  8
0
 10
-1.93716
 20
214.329
 11
-1.96457
 21
214.451
  0
LINE
  8
0
 10
-1.96457
 20
214.451
 11
-1.98422
 21
214.576
  0
LINE
  8
0
 10
-1.98422
 20
214.576
 11
-1.99605
 21
214.701
  0
LINE
  8
0
 10
-1.99605
 20
214.701
 11
-2
 21
214.826
  0
LINE
  8
0
 10
-2
 20
214.826
 11
-1.99605
 21
214.952
  0
LINE
  8
0
 10
-1.99605
 20
214.952
 11
-1.98422
 21
215.077
  0
LINE
  8
0
 10
-1.98422
 20
215.077
 11
-1.96457
 21
215.201
  0
LINE
  8
0
 10
-1.96457
 20
215.201
 11
-1.93716
 21
215.324
  0
LINE
  8
0
 10
-1.93716
 20
215.324
 11
-1.9021
 21
215.444
  0
LINE
  8
0
 10
-1.9021
 20
215.444
 11
-1.85954
 21
215.562
  0
LINE
  8
0
 10
-1.85954
 20
215.562
 11
-1.80965
 21
215.678
  0
LINE
  8
0
 10
-1.80965
 20
215.678
 11
-1.75261
 21
215.79
  0
LINE
  8
0
 10
-1.75261
 20
215.79
 11
-1.68864
 21
215.898
  0
LINE
  8
0
 10
-1.68864
 20
215.898
 11
-1.61803
 21
216.002
  0
LINE
  8
0
 10
-1.61803
 20
216.002
 11
-1.54102
 21
216.101
  0
LINE
  8
0
 10
-1.54102
 20
216.101
 11
-1.45793
 21
216.195
  0
LINE
  8
0
 10
-1.45793
 20
216.195
 11
-1.36908
 21
216.284
  0
LINE
  8
0
 10
-1.36908
 20
216.284
 11
-1.27484
 21
216.367
  0
LINE
  8
0
 10
-1.27484
 20
216.367
 11
-1.17557
 21
216.444
  0
LINE
  8
0
 10
-1.17557
 20
216.444
 11
-1.07164
 21
216.515
  0
LINE
  8
0
 10
-1.07164
 20
216.515
 11
-0.963501
 21
216.579
  0
LINE
  8
0
 10
-0.963501
 20
216.579
 11
-0.851547
 21
216.636
  0
LINE
  8
0
 10
-0.851547
 20
216.636
 11
-0.736237
 21
216.686
  0
LINE
  8
0
 10
-0.736237
 20
216.686
 11
-0.618027
 21
216.728
  0
LINE
  8
0
 10
-0.618027
 20
216.728
 11
-0.497375
 21
216.763
  0
LINE
  8
0
 10
-0.497375
 20
216.763
 11
-0.374756
 21
216.791
  0
LINE
  8
0
 10
-0.374756
 20
216.791
 11
-0.250656
 21
216.81
  0
LINE
  8
0
 10
-0.250656
 20
216.81
 11
-0.12558
 21
216.822
  0
LINE
  8
0
 10
-0.12558
 20
216.822
 11
0
 21
216.826
  0
LINE
  8
0
 10
0
 20
216.826
 11
0.12558
 21
216.822
  0
LINE
  8
0
 10
0.12558
 20
216.822
 11
0.250656
 21
216.81
  0
LINE
  8
0
 10
0.250656
 20
216.81
 11
0.374756
 21
216.791
  0
LINE
  8
0
 10
0.374756
 20
216.791
 11
0.497375
 21
216.763
  0
LINE
  8
0
 10
0.497375
 20
216.763
 11
0.618027
 21
216.728
  0
LINE
  8
0
 10
0.618027
 20
216.728
 11
0.736237
 21
216.686
  0
LINE
  8
0
 10
0.736237
 20
216.686
 11
0.851547
 21
216.636
  0
LINE
  8
0
 10
0.851547
 20
216.636
 11
0.963501
 21
216.579
  0
LINE
  8
0
 10
0.963501
 20
216.579
 11
1.07164
 21
216.515
  0
LINE
  8
0
 10
1.07164
 20
216.515
 11
1.17557
 21
216.444
  0
LINE
  8
0
 10
1.17557
 20
216.444
 11
1.27484
 21
216.367
  0
LINE
  8
0
 10
1.27484
 20
216.367
 11
1.36908
 21
216.284
  0
LINE
  8
0
 10
1.36908
 20
216.284
 11
1.45793
 21
216.195
  0
LINE
  8
0
 10
1.45793
 20
216.195
 11
1.54102
 21
216.101
  0
LINE
  8
0
 10
1.54102
 20
216.101
 11
1.61803
 21
216.002
  0
LINE
  8
0
 10
1.61803
 20
216.002
 11
1.68864
 21
215.898
  0
LINE
  8
0
 10
1.68864
 20
215.898
 11
1.75261
 21
215.79
  0
LINE
  8
0
 10
1.75261
 20
215.79
 11
1.80965
 21
215.678
  0
LINE
  8
0
 10
1.80965
 20
215.678
 11
1.85954
 21
215.562
  0
LINE
  8
0
 10
1.85954
 20
215.562
 11
1.9021
 21
215.444
  0
LINE
  8
0
 10
1.9021
 20
215.444
 11
1.93716
 21
215.324
  0
LINE
  8
0
 10
1.93716
 20
215.324
 11
1.96457
 21
215.201
  0
LINE
  8
0
 10
1.96457
 20
215.201
 11
1.98422
 21
215.077
  0
LINE
  8
0
 10
1.98422
 20
215.077
 11
1.99605
 21
214.952
  0
LINE
  8
0
 10
1.99605
 20
214.952
 11
2
 21
214.826
  0
LINE
  8
0
 10
2
 20
214.826
 11
1.99605
 21
214.701
  0
LINE
  8
0
 10
1.99605
 20
214.701
 11
1.98422
 21
214.576
  0
LINE
  8
0
 10
1.98422
 20
214.576
 11
1.96457
 21
214.451
  0
LINE
  8
0
 10
1.96457
 20
214.451
 11
1.93716
 21
214.329
  0
LINE
  8
0
 10
1.93716
 20
214.329
 11
1.9021
 21
214.208
  0
LINE
  8
0
 10
1.9021
 20
214.208
 11
1.85954
 21
214.09
  0
LINE
  8
0
 10
1.85954
 20
214.09
 11
1.80965
 21
213.975
  0
LINE
  8
0
 10
1.80965
 20
213.975
 11
1.75261
 21
213.863
  0
LINE
  8
0
 10
1.75261
 20
213.863
 11
1.68864
 21
213.755
  0
LINE
  8
0
 10
1.68864
 20
213.755
 11
1.61803
 21
213.651
  0
LINE
  8
0
 10
1.61803
 20
213.651
 11
1.54102
 21
213.551
  0
LINE
  8
0
 10
1.54102
 20
213.551
 11
1.45793
 21
213.457
  0
LINE
  8
0
 10
1.45793
 20
213.457
 11
1.36908
 21
213.368
  0
LINE
  8
0
 10
1.36908
 20
213.368
 11
1.27484
 21
213.285
  0
LINE
  8
0
 10
1.27484
 20
213.285
 11
1.17557
 21
213.208
  0
LINE
  8
0
 10
1.17557
 20
213.208
 11
1.07164
 21
213.138
  0
LINE
  8
0
 10
1.07164
 20
213.138
 11
0.963501
 21
213.074
  0
LINE
  8
0
 10
0.963501
 20
213.074
 11
0.851547
 21
213.017
  0
LINE
  8
0
 10
0.851547
 20
213.017
 11
0.736237
 21
212.967
  0
LINE
  8
0
 10
0.736237
 20
212.967
 11
0.618027
 21
212.924
  0
LINE
  8
0
 10
0.618027
 20
212.924
 11
0.497375
 21
212.889
  0
LINE
  8
0
 10
0.497375
 20
212.889
 11
0.374756
 21
212.862
  0
LINE
  8
0
 10
0.374756
 20
212.862
 11
0.250656
 21
212.842
  0
LINE
  8
0
 10
0.250656
 20
212.842
 11
0.12558
 21
212.83
  0
LINE
  8
0
 10
0.12558
 20
212.83
 11
0
 21
212.826
  0
LINE
  8
0
 10
0
 20
212.826
 11
-0.12558
 21
212.83
  0
LINE
  8
0
 10
-3.11024
 20
182.421
 11
-2.10846
 21
185.504
  0
LINE
  8
0
 10
-2.10846
 20
185.504
 11
-2.10846
 21
181.156
  0
LINE
  8
0
 10
-2.10846
 20
181.156
 11
-3.11024
 21
182.421
  0
LINE
  8
0
 10
2.10846
 20
185.504
 11
3.11024
 21
182.421
  0
LINE
  8
0
 10
3.11024
 20
182.421
 11
2.10846
 21
181.156
  0
LINE
  8
0
 10
2.10846
 20
181.156
 11
2.10846
 21
185.504
  0
LINE
  8
0
 10
-4.74268
 20
177.397
 11
-2.88803
 21
175
  0
LINE
  8
0
 10
-2.88803
 20
175
 11
-7.35396
 21
169.36
  0
LINE
  8
0
 10
-7.35396
 20
169.36
 11
-4.74268
 21
177.397
  0
LINE
  8
0
 10
2.88803
 20
175
 11
4.74268
 21
177.397
  0
LINE
  8
0
 10
4.74268
 20
177.397
 11
7.35396
 21
169.36
  0
LINE
  8
0
 10
7.35396
 20
169.36
 11
2.88803
 21
175
  0
LINE
  8
0
 10
-9.11179
 20
160
 11
-2.10846
 21
169.051
  0
LINE
  8
0
 10
-2.10846
 20
169.051
 11
-2.10846
 21
151.156
  0
LINE
  8
0
 10
-2.10846
 20
151.156
 11
-9.11179
 21
160
  0
LINE
  8
0
 10
2.10846
 20
169.051
 11
9.11179
 21
160
  0
LINE
  8
0
 10
9.11179
 20
160
 11
2.10846
 21
151.156
  0
LINE
  8
0
 10
2.10846
 20
151.156
 11
2.10846
 21
169.051
  0
LINE
  8
0
 10
2.88803
 20
145
 11
9.89136
 21
154.051
  0
LINE
  8
0
 10
9.89136
 20
154.051
 11
9.89136
 21
136.156
  0
LINE
  8
0
 10
9.89136
 20
136.156
 11
2.88803
 21
145
  0
LINE
  8
0
 10
-9.89136
 20
154.051
 11
-2.88803
 21
145
  0
LINE
  8
0
 10
-2.88803
 20
145
 11
-9.89136
 21
136.156
  0
LINE
  8
0
 10
-9.89136
 20
136.156
 11
-9.89136
 21
154.051
  0
LINE
  8
0
 10
-16.9689
 20
139.768
 11
-14.1083
 21
148.573
  0
LINE
  8
0
 10
-14.1083
 20
148.573
 11
-14.1083
 21
136.156
  0
LINE
  8
0
 10
-14.1083
 20
136.156
 11
-16.9689
 21
139.768
  0
LINE
  8
0
 10
14.1083
 20
148.573
 11
16.9689
 21
139.768
  0
LINE
  8
0
 10
16.9689
 20
139.768
 11
14.1083
 21
136.156
  0
LINE
  8
0
 10
14.1083
 20
136.156
 11
14.1083
 21
148.573
  0
LINE
  8
0
 10
-9.11179
 20
130
 11
-2.10846
 21
139.051
  0
LINE
  8
0
 10
-2.10846
 20
139.051
 11
-2.10846
 21
121.156
  0
LINE
  8
0
 10
-2.10846
 20
121.156
 11
-9.11179
 21
130
  0
LINE
  8
0
 10
2.10846
 20
139.051
 11
9.11179
 21
130
  0
LINE
  8
0
 10
9.11179
 20
130
 11
2.10846
 21
121.156
  0
LINE
  8
0
 10
2.10846
 20
121.156
 11
2.10846
 21
139.051
  0
LINE
  8
0
 10
-21.8912
 20
124.619
 11
-18.5887
 21
134.783
  0
LINE
  8
0
 10
-18.5887
 20
134.783
 11
-14.8878
 21
130
  0
LINE
  8
0
 10
-14.8878
 20
130
 11
-21.8912
 21
121.156
  0
LINE
  8
0
 10
-21.8912
 20
121.156
 11
-21.8912
 21
124.619
  0
LINE
  8
0
 10
14.8878
 20
130
 11
18.5887
 21
134.783
  0
LINE
  8
0
 10
18.5887
 20
134.783
 11
21.8912
 21
124.619
  0
LINE
  8
0
 10
21.8912
 20
124.619
 11
21.8912
 21
121.156
  0
LINE
  8
0
 10
21.8912
 20
121.156
 11
14.8878
 21
130
  0
LINE
  8
0
 10
2.88803
 20
115
 11
9.89136
 21
124.051
  0
LINE
  8
0
 10
9.89136
 20
124.051
 11
9.89136
 21
106.156
  0
LINE
  8
0
 10
9.89136
 20
106.156
 11
2.88803
 21
115
  0
LINE
  8
0
 10
14.1083
 20
124.051
 11
21.1116
 21
115
  0
LINE
  8
0
 10
21.1116
 20
115
 11
14.1083
 21
106.156
  0
LINE
  8
0
 10
14.1083
 20
106.156
 11
14.1083
 21
124.051
  0
LINE
  8
0
 10
-9.89136
 20
124.051
 11
-2.88803
 21
115
  0
LINE
  8
0
 10
-2.88803
 20
115
 11
-9.89136
 21
106.156
  0
LINE
  8
0
 10
-9.89136
 20
106.156
 11
-9.89136
 21
124.051
  0
LINE
  8
0
 10
-21.1116
 20
115
 11
-14.1083
 21
124.051
  0
LINE
  8
0
 10
-14.1083
 20
124.051
 11
-14.1083
 21
106.156
  0
LINE
  8
0
 10
-14.1083
 20
106.156
 11
-21.1116
 21
115
  0
LINE
  8
0
 10
-30.8276
 20
97.1159
 11
-27.5587
 21
107.177
  0
LINE
  8
0
 10
-27.5587
 20
107.177
 11
-26.1081
 21
109.051
  0
LINE
  8
0
 10
-26.1081
 20
109.051
 11
-26.1081
 21
91.156
  0
LINE
  8
0
 10
-26.1081
 20
91.156
 11
-30.8276
 21
97.1159
  0
LINE
  8
0
 10
-9.11179
 20
100
 11
-2.10846
 21
109.051
  0
LINE
  8
0
 10
-2.10846
 20
109.051
 11
-2.10846
 21
91.156
  0
LINE
  8
0
 10
-2.10846
 20
91.156
 11
-9.11179
 21
100
  0
LINE
  8
0
 10
-21.8912
 20
109.051
 11
-14.8878
 21
100
  0
LINE
  8
0
 10
-14.8878
 20
100
 11
-21.8912
 21
91.156
  0
LINE
  8
0
 10
-21.8912
 20
91.156
 11
-21.8912
 21
109.051
  0
LINE
  8
0
 10
2.10846
 20
109.051
 11
9.11179
 21
100
  0
LINE
  8
0
 10
9.11179
 20
100
 11
2.10846
 21
91.156
  0
LINE
  8
0
 10
2.10846
 20
91.156
 11
2.10846
 21
109.051
  0
LINE
  8
0
 10
26.1081
 20
109.051
 11
27.5587
 21
107.177
  0
LINE
  8
0
 10
27.5587
 20
107.177
 11
30.8276
 21
97.1159
  0
LINE
  8
0
 10
30.8276
 20
97.1159
 11
26.1081
 21
91.156
  0
LINE
  8
0
 10
26.1081
 20
91.156
 11
26.1081
 21
109.051
  0
LINE
  8
0
 10
14.8878
 20
100
 11
21.8912
 21
109.051
  0
LINE
  8
0
 10
21.8912
 20
109.051
 11
21.8912
 21
91.156
  0
LINE
  8
0
 10
21.8912
 20
91.156
 11
14.8878
 21
100
  0
LINE
  8
0
 10
-21.1116
 20
85
 11
-14.1083
 21
94.0514
  0
LINE
  8
0
 10
-14.1083
 20
94.0514
 11
-14.1083
 21
76.156
  0
LINE
  8
0
 10
-14.1083
 20
76.156
 11
-21.1116
 21
85
  0
LINE
  8
0
 10
2.88803
 20
85
 11
9.89136
 21
94.0514
  0
LINE
  8
0
 10
9.89136
 20
94.0514
 11
9.89136
 21
76.156
  0
LINE
  8
0
 10
9.89136
 20
76.156
 11
2.88803
 21
85
  0
LINE
  8
0
 10
14.1083
 20
94.0514
 11
21.1116
 21
85
  0
LINE
  8
0
 10
21.1116
 20
85
 11
14.1083
 21
76.156
  0
LINE
  8
0
 10
14.1083
 20
76.156
 11
14.1083
 21
94.0514
  0
LINE
  8
0
 10
-9.89136
 20
94.0514
 11
-2.88803
 21
85
  0
LINE
  8
0
 10
-2.88803
 20
85
 11
-9.89136
 21
76.156
  0
LINE
  8
0
 10
-9.89136
 20
76.156
 11
-9.89136
 21
94.0514
  0
LINE
  8
0
 10
-33.8914
 20
87.6863
 11
-32.435
 21
92.1689
  0
LINE
  8
0
 10
-32.435
 20
92.1689
 11
-26.8881
 21
85
  0
LINE
  8
0
 10
-26.8881
 20
85
 11
-33.8914
 21
76.156
  0
LINE
  8
0
 10
-33.8914
 20
76.156
 11
-33.8914
 21
87.6863
  0
LINE
  8
0
 10
26.8881
 20
85
 11
32.435
 21
92.1689
  0
LINE
  8
0
 10
32.435
 20
92.1689
 11
33.8914
 21
87.6863
  0
LINE
  8
0
 10
33.8914
 20
87.6863
 11
33.8914
 21
76.156
  0
LINE
  8
0
 10
33.8914
 20
76.156
 11
26.8881
 21
85
  0
LINE
  8
0
 10
-21.8912
 20
79.0514
 11
-14.8878
 21
70
  0
LINE
  8
0
 10
-14.8878
 20
70
 11
-21.8912
 21
61.156
  0
LINE
  8
0
 10
-21.8912
 20
61.156
 11
-21.8912
 21
79.0514
  0
LINE
  8
0
 10
14.8878
 20
70
 11
21.8912
 21
79.0514
  0
LINE
  8
0
 10
21.8912
 20
79.0514
 11
21.8912
 21
61.156
  0
LINE
  8
0
 10
21.8912
 20
61.156
 11
14.8878
 21
70
  0
LINE
  8
0
 10
26.1081
 20
79.0514
 11
33.1114
 21
70
  0
LINE
  8
0
 10
33.1114
 20
70
 11
26.1081
 21
61.156
  0
LINE
  8
0
 10
26.1081
 20
61.156
 11
26.1081
 21
79.0514
  0
LINE
  8
0
 10
-33.1114
 20
70
 11
-26.1081
 21
79.0514
  0
LINE
  8
0
 10
-26.1081
 20
79.0514
 11
-26.1081
 21
61.156
  0
LINE
  8
0
 10
-26.1081
 20
61.156
 11
-33.1114
 21
70
  0
LINE
  8
0
 10
-9.11179
 20
70
 11
-2.10846
 21
79.0514
  0
LINE
  8
0
 10
-2.10846
 20
79.0514
 11
-2.10846
 21
61.156
  0
LINE
  8
0
 10
-2.10846
 20
61.156
 11
-9.11179
 21
70
  0
LINE
  8
0
 10
2.10846
 20
79.0514
 11
9.11179
 21
70
  0
LINE
  8
0
 10
9.11179
 20
70
 11
2.10846
 21
61.156
  0
LINE
  8
0
 10
2.10846
 20
61.156
 11
2.10846
 21
79.0514
  0
LINE
  8
0
 10
-39.4162
 20
70.6828
 11
-38.8879
 21
70
  0
LINE
  8
0
 10
-38.8879
 20
70
 11
-40.16
 21
68.3936
  0
LINE
  8
0
 10
-40.16
 20
68.3936
 11
-39.4162
 21
70.6828
  0
LINE
  8
0
 10
38.8879
 20
70
 11
39.4162
 21
70.6828
  0
LINE
  8
0
 10
39.4162
 20
70.6828
 11
40.16
 21
68.3936
  0
LINE
  8
0
 10
40.16
 20
68.3936
 11
38.8879
 21
70
  0
LINE
  8
0
 10
-9.89136
 20
64.0514
 11
-2.88803
 21
55
  0
LINE
  8
0
 10
-2.88803
 20
55
 11
-9.89136
 21
46.156
  0
LINE
  8
0
 10
-9.89136
 20
46.156
 11
-9.89136
 21
64.0514
  0
LINE
  8
0
 10
-44.6864
 20
54.4629
 11
-44.0776
 21
56.3365
  0
LINE
  8
0
 10
-44.0776
 20
56.3365
 11
-38.1084
 21
64.0514
  0
LINE
  8
0
 10
-38.1084
 20
64.0514
 11
-38.1084
 21
46.156
  0
LINE
  8
0
 10
-38.1084
 20
46.156
 11
-44.6864
 21
54.4629
  0
LINE
  8
0
 10
14.1083
 20
64.0514
 11
21.1116
 21
55
  0
LINE
  8
0
 10
21.1116
 20
55
 11
14.1083
 21
46.156
  0
LINE
  8
0
 10
14.1083
 20
46.156
 11
14.1083
 21
64.0514
  0
LINE
  8
0
 10
2.88803
 20
55
 11
9.89136
 21
64.0514
  0
LINE
  8
0
 10
9.89136
 20
64.0514
 11
9.89136
 21
46.156
  0
LINE
  8
0
 10
9.89136
 20
46.156
 11
2.88803
 21
55
  0
LINE
  8
0
 10
26.8881
 20
55
 11
33.8914
 21
64.0514
  0
LINE
  8
0
 10
33.8914
 20
64.0514
 11
33.8914
 21
46.156
  0
LINE
  8
0
 10
33.8914
 20
46.156
 11
26.8881
 21
55
  0
LINE
  8
0
 10
-33.8914
 20
64.0514
 11
-26.8881
 21
55
  0
LINE
  8
0
 10
-26.8881
 20
55
 11
-33.8914
 21
46.156
  0
LINE
  8
0
 10
-33.8914
 20
46.156
 11
-33.8914
 21
64.0514
  0
LINE
  8
0
 10
-21.1116
 20
55
 11
-14.1083
 21
64.0514
  0
LINE
  8
0
 10
-14.1083
 20
64.0514
 11
-14.1083
 21
46.156
  0
LINE
  8
0
 10
-14.1083
 20
46.156
 11
-21.1116
 21
55
  0
LINE
  8
0
 10
38.1084
 20
64.0514
 11
44.0776
 21
56.3365
  0
LINE
  8
0
 10
44.0776
 20
56.3365
 11
44.6864
 21
54.4629
  0
LINE
  8
0
 10
44.6864
 20
54.4629
 11
38.1084
 21
46.156
  0
LINE
  8
0
 10
38.1084
 20
46.156
 11
38.1084
 21
64.0514
  0
LINE
  8
0
 10
-45.8913
 20
49.0514
 11
-38.8879
 21
40
  0
LINE
  8
0
 10
-38.8879
 20
40
 11
-45.8913
 21
31.156
  0
LINE
  8
0
 10
-45.8913
 20
31.156
 11
-45.8913
 21
49.0514
  0
LINE
  8
0
 10
14.8878
 20
40
 11
21.8912
 21
49.0514
  0
LINE
  8
0
 10
21.8912
 20
49.0514
 11
21.8912
 21
31.156
  0
LINE
  8
0
 10
21.8912
 20
31.156
 11
14.8878
 21
40
  0
LINE
  8
0
 10
26.1081
 20
49.0514
 11
33.1114
 21
40
  0
LINE
  8
0
 10
33.1114
 20
40
 11
26.1081
 21
31.156
  0
LINE
  8
0
 10
26.1081
 20
31.156
 11
26.1081
 21
49.0514
  0
LINE
  8
0
 10
-9.11179
 20
40
 11
-2.10846
 21
49.0514
  0
LINE
  8
0
 10
-2.10846
 20
49.0514
 11
-2.10846
 21
31.156
  0
LINE
  8
0
 10
-2.10846
 20
31.156
 11
-9.11179
 21
40
  0
LINE
  8
0
 10
2.10846
 20
49.0514
 11
9.11179
 21
40
  0
LINE
  8
0
 10
9.11179
 20
40
 11
2.10846
 21
31.156
  0
LINE
  8
0
 10
2.10846
 20
31.156
 11
2.10846
 21
49.0514
  0
LINE
  8
0
 10
38.8879
 20
40
 11
45.8913
 21
49.0514
  0
LINE
  8
0
 10
45.8913
 20
49.0514
 11
45.8913
 21
31.156
  0
LINE
  8
0
 10
45.8913
 20
31.156
 11
38.8879
 21
40
  0
LINE
  8
0
 10
-33.1114
 20
40
 11
-26.1081
 21
49.0514
  0
LINE
  8
0
 10
-26.1081
 20
49.0514
 11
-26.1081
 21
31.156
  0
LINE
  8
0
 10
-26.1081
 20
31.156
 11
-33.1114
 21
40
  0
LINE
  8
0
 10
-21.8912
 20
49.0514
 11
-14.8878
 21
40
  0
LINE
  8
0
 10
-14.8878
 20
40
 11
-21.8912
 21
31.156
  0
LINE
  8
0
 10
-21.8912
 20
31.156
 11
-21.8912
 21
49.0514
  0
LINE
  8
0
 10
-51.6334
 20
33.0821
 11
-50.1082
 21
37.7763
  0
LINE
  8
0
 10
-50.1082
 20
37.7763
 11
-50.1082
 21
31.156
  0
LINE
  8
0
 10
-50.1082
 20
31.156
 11
-51.6334
 21
33.0821
  0
LINE
  8
0
 10
50.1082
 20
37.7763
 11
51.6334
 21
33.0821
  0
LINE
  8
0
 10
51.6334
 20
33.0821
 11
50.1082
 21
31.156
  0
LINE
  8
0
 10
50.1082
 20
31.156
 11
50.1082
 21
37.7763
  0
LINE
  8
0
 10
26.8881
 20
25
 11
33.8914
 21
34.0514
  0
LINE
  8
0
 10
33.8914
 20
34.0514
 11
33.8914
 21
16.156
  0
LINE
  8
0
 10
33.8914
 20
16.156
 11
26.8881
 21
25
  0
LINE
  8
0
 10
38.1084
 20
34.0514
 11
45.1117
 21
25
  0
LINE
  8
0
 10
45.1117
 20
25
 11
38.1084
 21
16.156
  0
LINE
  8
0
 10
38.1084
 20
16.156
 11
38.1084
 21
34.0514
  0
LINE
  8
0
 10
-45.1117
 20
25
 11
-38.1084
 21
34.0514
  0
LINE
  8
0
 10
-38.1084
 20
34.0514
 11
-38.1084
 21
16.156
  0
LINE
  8
0
 10
-38.1084
 20
16.156
 11
-45.1117
 21
25
  0
LINE
  8
0
 10
-9.89136
 20
34.0514
 11
-2.88803
 21
25
  0
LINE
  8
0
 10
-2.88803
 20
25
 11
-9.89136
 21
16.156
  0
LINE
  8
0
 10
-9.89136
 20
16.156
 11
-9.89136
 21
34.0514
  0
LINE
  8
0
 10
-33.8914
 20
34.0514
 11
-26.8881
 21
25
  0
LINE
  8
0
 10
-26.8881
 20
25
 11
-33.8914
 21
16.156
  0
LINE
  8
0
 10
-33.8914
 20
16.156
 11
-33.8914
 21
34.0514
  0
LINE
  8
0
 10
14.1083
 20
34.0514
 11
21.1116
 21
25
  0
LINE
  8
0
 10
21.1116
 20
25
 11
14.1083
 21
16.156
  0
LINE
  8
0
 10
14.1083
 20
16.156
 11
14.1083
 21
34.0514
  0
LINE
  8
0
 10
2.88803
 20
25
 11
9.89136
 21
34.0514
  0
LINE
  8
0
 10
9.89136
 20
34.0514
 11
9.89136
 21
16.156
  0
LINE
  8
0
 10
9.89136
 20
16.156
 11
2.88803
 21
25
  0
LINE
  8
0
 10
-21.1116
 20
25
 11
-14.1083
 21
34.0514
  0
LINE
  8
0
 10
-14.1083
 20
34.0514
 11
-14.1083
 21
16.156
  0
LINE
  8
0
 10
-14.1083
 20
16.156
 11
-21.1116
 21
25
  0
LINE
  8
0
 10
-53.2624
 20
28.0685
 11
-50.8882
 21
25
  0
LINE
  8
0
 10
-50.8882
 20
25
 11
-56.6053
 21
17.7803
  0
LINE
  8
0
 10
-56.6053
 20
17.7803
 11
-53.2624
 21
28.0685
  0
LINE
  8
0
 10
50.8882
 20
25
 11
53.2624
 21
28.0685
  0
LINE
  8
0
 10
53.2624
 20
28.0685
 11
56.6053
 21
17.7803
  0
LINE
  8
0
 10
56.6053
 20
17.7803
 11
50.8882
 21
25
  0
LINE
  8
0
 10
40.4354
 20
12
 11
45.8913
 21
19.0514
  0
LINE
  8
0
 10
45.8913
 20
19.0514
 11
45.8913
 21
12
  0
LINE
  8
0
 10
45.8913
 20
12
 11
40.4354
 21
12
  0
LINE
  8
0
 10
50.1082
 20
12
 11
50.1082
 21
19.0514
  0
LINE
  8
0
 10
50.1082
 20
19.0514
 11
55.564
 21
12
  0
LINE
  8
0
 10
55.564
 20
12
 11
50.1082
 21
12
  0
LINE
  8
0
 10
-31.5639
 20
12
 11
-26.1081
 21
19.0514
  0
LINE
  8
0
 10
-26.1081
 20
19.0514
 11
-26.1081
 21
12
  0
LINE
  8
0
 10
-26.1081
 20
12
 11
-31.5639
 21
12
  0
LINE
  8
0
 10
-21.8912
 20
12
 11
-21.8912
 21
19.0514
  0
LINE
  8
0
 10
-21.8912
 20
19.0514
 11
-16.4353
 21
12
  0
LINE
  8
0
 10
-16.4353
 20
12
 11
-21.8912
 21
12
  0
LINE
  8
0
 10
26.1081
 20
12
 11
26.1081
 21
19.0514
  0
LINE
  8
0
 10
26.1081
 20
19.0514
 11
31.5639
 21
12
  0
LINE
  8
0
 10
31.5639
 20
12
 11
26.1081
 21
12
  0
LINE
  8
0
 10
16.4353
 20
12
 11
21.8912
 21
19.0514
  0
LINE
  8
0
 10
21.8912
 20
19.0514
 11
21.8912
 21
12
  0
LINE
  8
0
 10
21.8912
 20
12
 11
16.4353
 21
12
  0
LINE
  8
0
 10
2.10846
 20
12
 11
2.10846
 21
19.0514
  0
LINE
  8
0
 10
2.10846
 20
19.0514
 11
7.56432
 21
12
  0
LINE
  8
0
 10
7.56432
 20
12
 11
2.10846
 21
12
  0
LINE
  8
0
 10
-7.56432
 20
12
 11
-2.10846
 21
19.0514
  0
LINE
  8
0
 10
-2.10846
 20
19.0514
 11
-2.10846
 21
12
  0
LINE
  8
0
 10
-2.10846
 20
12
 11
-7.56432
 21
12
  0
LINE
  8
0
 10
-45.8913
 20
12
 11
-45.8913
 21
19.0514
  0
LINE
  8
0
 10
-45.8913
 20
19.0514
 11
-40.4354
 21
12
  0
LINE
  8
0
 10
-40.4354
 20
12
 11
-45.8913
 21
12
  0
LINE
  8
0
 10
-55.564
 20
12
 11
-50.1082
 21
19.0514
  0
LINE
  8
0
 10
-50.1082
 20
19.0514
 11
-50.1082
 21
12
  0
LINE
  8
0
 10
-50.1082
 20
12
 11
-55.564
 21
12
  0
LINE
  8
0
 10
-10
 20
7
 11
-10
 21
11
  0
LINE
  8
0
 10
-10
 20
11
 11
10
 21
11
  0
LINE
  8
0
 10
10
 20
11
 11
10
 21
7
  0
LINE
  8
0
 10
10
 20
7
 11
-10
 21
7
  0
LINE
  8
0
 10
-68.6534
 20
2.70622
 11
-68.7785
 21
2.71805
  0
LINE
  8
0
 10
-68.7785
 20
2.71805
 11
-68.9026
 21
2.7377
  0
LINE
  8
0
 10
-68.9026
 20
2.7377
 11
-69.0252
 21
2.76511
  0
LINE
  8
0
 10
-69.0252
 20
2.76511
 11
-69.1459
 21
2.80016
  0
LINE
  8
0
 10
-69.1459
 20
2.80016
 11
-69.2641
 21
2.84273
  0
LINE
  8
0
 10
-69.2641
 20
2.84273
 11
-69.3794
 21
2.89262
  0
LINE
  8
0
 10
-69.3794
 20
2.89262
 11
-69.4914
 21
2.94966
  0
LINE
  8
0
 10
-69.4914
 20
2.94966
 11
-69.5995
 21
3.01363
  0
LINE
  8
0
 10
-69.5995
 20
3.01363
 11
-69.7034
 21
3.08424
  0
LINE
  8
0
 10
-69.7034
 20
3.08424
 11
-69.8027
 21
3.16125
  0
LINE
  8
0
 10
-69.8027
 20
3.16125
 11
-69.897
 21
3.24434
  0
LINE
  8
0
 10
-69.897
 20
3.24434
 11
-69.9858
 21
3.33318
  0
LINE
  8
0
 10
-69.9858
 20
3.33318
 11
-70.0689
 21
3.42743
  0
LINE
  8
0
 10
-70.0689
 20
3.42743
 11
-70.1459
 21
3.5267
  0
LINE
  8
0
 10
-70.1459
 20
3.5267
 11
-70.2165
 21
3.63062
  0
LINE
  8
0
 10
-70.2165
 20
3.63062
 11
-70.2805
 21
3.73877
  0
LINE
  8
0
 10
-70.2805
 20
3.73877
 11
-70.3375
 21
3.85072
  0
LINE
  8
0
 10
-70.3375
 20
3.85072
 11
-70.3874
 21
3.96602
  0
LINE
  8
0
 10
-70.3874
 20
3.96602
 11
-70.43
 21
4.08424
  0
LINE
  8
0
 10
-70.43
 20
4.08424
 11
-70.465
 21
4.2049
  0
LINE
  8
0
 10
-70.465
 20
4.2049
 11
-70.4924
 21
4.32751
  0
LINE
  8
0
 10
-70.4924
 20
4.32751
 11
-70.5121
 21
4.45161
  0
LINE
  8
0
 10
-70.5121
 20
4.45161
 11
-70.5239
 21
4.57669
  0
LINE
  8
0
 10
-70.5239
 20
4.57669
 11
-70.5279
 21
4.70227
  0
LINE
  8
0
 10
-70.5279
 20
4.70227
 11
-70.5239
 21
4.82785
  0
LINE
  8
0
 10
-70.5239
 20
4.82785
 11
-70.5121
 21
4.95294
  0
LINE
  8
0
 10
-70.5121
 20
4.95294
 11
-70.4924
 21
5.07704
  0
LINE
  8
0
 10
-70.4924
 20
5.07704
 11
-70.465
 21
5.19966
  0
LINE
  8
0
 10
-70.465
 20
5.19966
 11
-70.43
 21
5.32031
  0
LINE
  8
0
 10
-70.43
 20
5.32031
 11
-70.3874
 21
5.43852
  0
LINE
  8
0
 10
-70.3874
 20
5.43852
 11
-70.3375
 21
5.55383
  0
LINE
  8
0
 10
-70.3375
 20
5.55383
 11
-70.2805
 21
5.66579
  0
LINE
  8
0
 10
-70.2805
 20
5.66579
 11
-70.2165
 21
5.77393
  0
LINE
  8
0
 10
-70.2165
 20
5.77393
 11
-70.1459
 21
5.87784
  0
LINE
  8
0
 10
-70.1459
 20
5.87784
 11
-70.0689
 21
5.97713
  0
LINE
  8
0
 10
-70.0689
 20
5.97713
 11
-69.9858
 21
6.07137
  0
LINE
  8
0
 10
-69.9858
 20
6.07137
 11
-69.897
 21
6.16022
  0
LINE
  8
0
 10
-69.897
 20
6.16022
 11
-69.8027
 21
6.2433
  0
LINE
  8
0
 10
-69.8027
 20
6.2433
 11
-69.7034
 21
6.32031
  0
LINE
  8
0
 10
-69.7034
 20
6.32031
 11
-69.5995
 21
6.39093
  0
LINE
  8
0
 10
-69.5995
 20
6.39093
 11
-69.4914
 21
6.4549
  0
LINE
  8
0
 10
-69.4914
 20
6.4549
 11
-69.3794
 21
6.51193
  0
LINE
  8
0
 10
-69.3794
 20
6.51193
 11
-69.2641
 21
6.56183
  0
LINE
  8
0
 10
-69.2641
 20
6.56183
 11
-69.1459
 21
6.60439
  0
LINE
  8
0
 10
-69.1459
 20
6.60439
 11
-69.0252
 21
6.63943
  0
LINE
  8
0
 10
-69.0252
 20
6.63943
 11
-68.9026
 21
6.66685
  0
LINE
  8
0
 10
-68.9026
 20
6.66685
 11
-68.7785
 21
6.68651
  0
LINE
  8
0
 10
-68.7785
 20
6.68651
 11
-68.6534
 21
6.69833
  0
LINE
  8
0
 10
-68.6534
 20
6.69833
 11
-68.5279
 21
6.70227
  0
LINE
  8
0
 10
-68.5279
 20
6.70227
 11
-68.4023
 21
6.69833
  0
LINE
  8
0
 10
-68.4023
 20
6.69833
 11
-68.2772
 21
6.68651
  0
LINE
  8
0
 10
-68.2772
 20
6.68651
 11
-68.1531
 21
6.66685
  0
LINE
  8
0
 10
-68.1531
 20
6.66685
 11
-68.0305
 21
6.63943
  0
LINE
  8
0
 10
-68.0305
 20
6.63943
 11
-67.9098
 21
6.60439
  0
LINE
  8
0
 10
-67.9098
 20
6.60439
 11
-67.7916
 21
6.56183
  0
LINE
  8
0
 10
-67.7916
 20
6.56183
 11
-67.6763
 21
6.51193
  0
LINE
  8
0
 10
-67.6763
 20
6.51193
 11
-67.5643
 21
6.4549
  0
LINE
  8
0
 10
-67.5643
 20
6.4549
 11
-67.4562
 21
6.39093
  0
LINE
  8
0
 10
-67.4562
 20
6.39093
 11
-67.3523
 21
6.32031
  0
LINE
  8
0
 10
-67.3523
 20
6.32031
 11
-67.253
 21
6.2433
  0
LINE
  8
0
 10
-67.253
 20
6.2433
 11
-67.1588
 21
6.16022
  0
LINE
  8
0
 10
-67.1588
 20
6.16022
 11
-67.0699
 21
6.07137
  0
LINE
  8
0
 10
-67.0699
 20
6.07137
 11
-66.9868
 21
5.97713
  0
LINE
  8
0
 10
-66.9868
 20
5.97713
 11
-66.9098
 21
5.87784
  0
LINE
  8
0
 10
-66.9098
 20
5.87784
 11
-66.8392
 21
5.77393
  0
LINE
  8
0
 10
-66.8392
 20
5.77393
 11
-66.7752
 21
5.66579
  0
LINE
  8
0
 10
-66.7752
 20
5.66579
 11
-66.7182
 21
5.55383
  0
LINE
  8
0
 10
-66.7182
 20
5.55383
 11
-66.6683
 21
5.43852
  0
LINE
  8
0
 10
-66.6683
 20
5.43852
 11
-66.6257
 21
5.32031
  0
LINE
  8
0
 10
-66.6257
 20
5.32031
 11
-66.5907
 21
5.19966
  0
LINE
  8
0
 10
-66.5907
 20
5.19966
 11
-66.5633
 21
5.07704
  0
LINE
  8
0
 10
-66.5633
 20
5.07704
 11
-66.5436
 21
4.95294
  0
LINE
  8
0
 10
-66.5436
 20
4.95294
 11
-66.5318
 21
4.82785
  0
LINE
  8
0
 10
-66.5318
 20
4.82785
 11
-66.5279
 21
4.70227
  0
LINE
  8
0
 10
-66.5279
 20
4.70227
 11
-66.5318
 21
4.57669
  0
LINE
  8
0
 10
-66.5318
 20
4.57669
 11
-66.5436
 21
4.45161
  0
LINE
  8
0
 10
-66.5436
 20
4.45161
 11
-66.5633
 21
4.32751
  0
LINE
  8
0
 10
-66.5633
 20
4.32751
 11
-66.5907
 21
4.2049
  0
LINE
  8
0
 10
-66.5907
 20
4.2049
 11
-66.6257
 21
4.08424
  0
LINE
  8
0
 10
-66.6257
 20
4.08424
 11
-66.6683
 21
3.96602
  0
LINE
  8
0
 10
-66.6683
 20
3.96602
 11
-66.7182
 21
3.85072
  0
LINE
  8
0
 10
-66.7182
 20
3.85072
 11
-66.7752
 21
3.73877
  0
LINE
  8
0
 10
-66.7752
 20
3.73877
 11
-66.8392
 21
3.63062
  0
LINE
  8
0
 10
-66.8392
 20
3.63062
 11
-66.9098
 21
3.5267
  0
LINE
  8
0
 10
-66.9098
 20
3.5267
 11
-66.9868
 21
3.42743
  0
LINE
  8
0
 10
-66.9868
 20
3.42743
 11
-67.0699
 21
3.33318
  0
LINE
  8
0
 10
-67.0699
 20
3.33318
 11
-67.1588
 21
3.24434
  0
LINE
  8
0
 10
-67.1588
 20
3.24434
 11
-67.253
 21
3.16125
  0
LINE
  8
0
 10
-67.253
 20
3.16125
 11
-67.3523
 21
3.08424
  0
LINE
  8
0
 10
-67.3523
 20
3.08424
 11
-67.4562
 21
3.01363
  0
LINE
  8
0
 10
-67.4562
 20
3.01363
 11
-67.5643
 21
2.94966
  0
LINE
  8
0
 10
-67.5643
 20
2.94966
 11
-67.6763
 21
2.89262
  0
LINE
  8
0
 10
-67.6763
 20
2.89262
 11
-67.7916
 21
2.84273
  0
LINE
  8
0
 10
-67.7916
 20
2.84273
 11
-67.9098
 21
2.80016
  0
LINE
  8
0
 10
-67.9098
 20
2.80016
 11
-68.0305
 21
2.76511
  0
LINE
  8
0
 10
-68.0305
 20
2.76511
 11
-68.1531
 21
2.7377
  0
LINE
  8
0
 10
-68.1531
 20
2.7377
 11
-68.2772
 21
2.71805
  0
LINE
  8
0
 10
-68.2772
 20
2.71805
 11
-68.4023
 21
2.70622
  0
LINE
  8
0
 10
-68.4023
 20
2.70622
 11
-68.5279
 21
2.70227
  0
LINE
  8
0
 10
-68.5279
 20
2.70227
 11
-68.6534
 21
2.70622
  0
LINE
  8
0
 10
68.4023
 20
2.70622
 11
68.2772
 21
2.71805
  0
LINE
  8
0
 10
68.2772
 20
2.71805
 11
68.1531
 21
2.7377
  0
LINE
  8
0
 10
68.1531
 20
2.7377
 11
68.0305
 21
2.76511
  0
LINE
  8
0
 10
68.0305
 20
2.76511
 11
67.9098
 21
2.80016
  0
LINE
  8
0
 10
67.9098
 20
2.80016
 11
67.7916
 21
2.84273
  0
LINE
  8
0
 10
67.7916
 20
2.84273
 11
67.6763
 21
2.89262
  0
LINE
  8
0
 10
67.6763
 20
2.89262
 11
67.5643
 21
2.94966
  0
LINE
  8
0
 10
67.5643
 20
2.94966
 11
67.4562
 21
3.01363
  0
LINE
  8
0
 10
67.4562
 20
3.01363
 11
67.3523
 21
3.08424
  0
LINE
  8
0
 10
67.3523
 20
3.08424
 11
67.253
 21
3.16125
  0
LINE
  8
0
 10
67.253
 20
3.16125
 11
67.1588
 21
3.24434
  0
LINE
  8
0
 10
67.1588
 20
3.24434
 11
67.0699
 21
3.33318
  0
LINE
  8
0
 10
67.0699
 20
3.33318
 11
66.9868
 21
3.42743
  0
LINE
  8
0
 10
66.9868
 20
3.42743
 11
66.9098
 21
3.5267
  0
LINE
  8
0
 10
66.9098
 20
3.5267
 11
66.8392
 21
3.63062
  0
LINE
  8
0
 10
66.8392
 20
3.63062
 11
66.7752
 21
3.73877
  0
LINE
  8
0
 10
66.7752
 20
3.73877
 11
66.7182
 21
3.85072
  0
LINE
  8
0
 10
66.7182
 20
3.85072
 11
66.6683
 21
3.96602
  0
LINE
  8
0
 10
66.6683
 20
3.96602
 11
66.6257
 21
4.08424
  0
LINE
  8
0
 10
66.6257
 20
4.08424
 11
66.5907
 21
4.2049
  0
LINE
  8
0
 10
66.5907
 20
4.2049
 11
66.5633
 21
4.32751
  0
LINE
  8
0
 10
66.5633
 20
4.32751
 11
66.5436
 21
4.45161
  0
LINE
  8
0
 10
66.5436
 20
4.45161
 11
66.5318
 21
4.57669
  0
LINE
  8
0
 10
66.5318
 20
4.57669
 11
66.5279
 21
4.70227
  0
LINE
  8
0
 10
66.5279
 20
4.70227
 11
66.5318
 21
4.82785
  0
LINE
  8
0
 10
66.5318
 20
4.82785
 11
66.5436
 21
4.95294
  0
LINE
  8
0
 10
66.5436
 20
4.95294
 11
66.5633
 21
5.07704
  0
LINE
  8
0
 10
66.5633
 20
5.07704
 11
66.5907
 21
5.19966
  0
LINE
  8
0
 10
66.5907
 20
5.19966
 11
66.6257
 21
5.32031
  0
LINE
  8
0
 10
66.6257
 20
5.32031
 11
66.6683
 21
5.43852
  0
LINE
  8
0
 10
66.6683
 20
5.43852
 11
66.7182
 21
5.55383
  0
LINE
  8
0
 10
66.7182
 20
5.55383
 11
66.7752
 21
5.66579
  0
LINE
  8
0
 10
66.7752
 20
5.66579
 11
66.8392
 21
5.77393
  0
LINE
  8
0
 10
66.8392
 20
5.77393
 11
66.9098
 21
5.87784
  0
LINE
  8
0
 10
66.9098
 20
5.87784
 11
66.9868
 21
5.97713
  0
LINE
  8
0
 10
66.9868
 20
5.97713
 11
67.0699
 21
6.07137
  0
LINE
  8
0
 10
67.0699
 20
6.07137
 11
67.1588
 21
6.16022
  0
LINE
  8
0
 10
67.1588
 20
6.16022
 11
67.253
 21
6.2433
  0
LINE
  8
0
 10
67.253
 20
6.2433
 11
67.3523
 21
6.32031
  0
LINE
  8
0
 10
67.3523
 20
6.32031
 11
67.4562
 21
6.39093
  0
LINE
  8
0
 10
67.4562
 20
6.39093
 11
67.5643
 21
6.4549
  0
LINE
  8
0
 10
67.5643
 20
6.4549
 11
67.6763
 21
6.51193
  0
LINE
  8
0
 10
67.6763
 20
6.51193
 11
67.7916
 21
6.56183
  0
LINE
  8
0
 10
67.7916
 20
6.56183
 11
67.9098
 21
6.60439
  0
LINE
  8
0
 10
67.9098
 20
6.60439
 11
68.0305
 21
6.63943
  0
LINE
  8
0
 10
68.0305
 20
6.63943
 11
68.1531
 21
6.66685
  0
LINE
  8
0
 10
68.1531
 20
6.66685
 11
68.2772
 21
6.68651
  0
LINE
  8
0
 10
68.2772
 20
6.68651
 11
68.4023
 21
6.69833
  0
LINE
  8
0
 10
68.4023
 20
6.69833
 11
68.5279
 21
6.70227
  0
LINE
  8
0
 10
68.5279
 20
6.70227
 11
68.6534
 21
6.69833
  0
LINE
  8
0
 10
68.6534
 20
6.69833
 11
68.7785
 21
6.68651
  0
LINE
  8
0
 10
68.7785
 20
6.68651
 11
68.9026
 21
6.66685
  0
LINE
  8
0
 10
68.9026
 20
6.66685
 11
69.0252
 21
6.63943
  0
LINE
  8
0
 10
69.0252
 20
6.63943
 11
69.1459
 21
6.60439
  0
LINE
  8
0
 10
69.1459
 20
6.60439
 11
69.2641
 21
6.56183
  0
LINE
  8
0
 10
69.2641
 20
6.56183
 11
69.3794
 21
6.51193
  0
LINE
  8
0
 10
69.3794
 20
6.51193
 11
69.4914
 21
6.4549
  0
LINE
  8
0
 10
69.4914
 20
6.4549
 11
69.5995
 21
6.39093
  0
LINE
  8
0
 10
69.5995
 20
6.39093
 11
69.7034
 21
6.32031
  0
LINE
  8
0
 10
69.7034
 20
6.32031
 11
69.8027
 21
6.2433
  0
LINE
  8
0
 10
69.8027
 20
6.2433
 11
69.897
 21
6.16022
  0
LINE
  8
0
 10
69.897
 20
6.16022
 11
69.9858
 21
6.07137
  0
LINE
  8
0
 10
69.9858
 20
6.07137
 11
70.0689
 21
5.97713
  0
LINE
  8
0
 10
70.0689
 20
5.97713
 11
70.1459
 21
5.87784
  0
LINE
  8
0
 10
70.1459
 20
5.87784
 11
70.2165
 21
5.77393
  0
LINE
  8
0
 10
70.2165
 20
5.77393
 11
70.2805
 21
5.66579
  0
LINE
  8
0
 10
70.2805
 20
5.66579
 11
70.3375
 21
5.55383
  0
LINE
  8
0
 10
70.3375
 20
5.55383
 11
70.3874
 21
5.43852
  0
LINE
  8
0
 10
70.3874
 20
5.43852
 11
70.43
 21
5.32031
  0
LINE
  8
0
 10
70.43
 20
5.32031
 11
70.465
 21
5.19966
  0
LINE
  8
0
 10
70.465
 20
5.19966
 11
70.4924
 21
5.07704
  0
LINE
  8
0
 10
70.4924
 20
5.07704
 11
70.5121
 21
4.95294
  0
LINE
  8
0
 10
70.5121
 20
4.95294
 11
70.5239
 21
4.82785
  0
LINE
  8
0
 10
70.5239
 20
4.82785
 11
70.5279
 21
4.70227
  0
LINE
  8
0
 10
70.5279
 20
4.70227
 11
70.5239
 21
4.57669
  0
LINE
  8
0
 10
70.5239
 20
4.57669
 11
70.5121
 21
4.45161
  0
LINE
  8
0
 10
70.5121
 20
4.45161
 11
70.4924
 21
4.32751
  0
LINE
  8
0
 10
70.4924
 20
4.32751
 11
70.465
 21
4.2049
  0
LINE
  8
0
 10
70.465
 20
4.2049
 11
70.43
 21
4.08424
  0
LINE
  8
0
 10
70.43
 20
4.08424
 11
70.3874
 21
3.96602
  0
LINE
  8
0
 10
70.3874
 20
3.96602
 11
70.3375
 21
3.85072
  0
LINE
  8
0
 10
70.3375
 20
3.85072
 11
70.2805
 21
3.73877
  0
LINE
  8
0
 10
70.2805
 20
3.73877
 11
70.2165
 21
3.63062
  0
LINE
  8
0
 10
70.2165
 20
3.63062
 11
70.1459
 21
3.5267
  0
LINE
  8
0
 10
70.1459
 20
3.5267
 11
70.0689
 21
3.42743
  0
LINE
  8
0
 10
70.0689
 20
3.42743
 11
69.9858
 21
3.33318
  0
LINE
  8
0
 10
69.9858
 20
3.33318
 11
69.897
 21
3.24434
  0
LINE
  8
0
 10
69.897
 20
3.24434
 11
69.8027
 21
3.16125
  0
LINE
  8
0
 10
69.8027
 20
3.16125
 11
69.7034
 21
3.08424
  0
LINE
  8
0
 10
69.7034
 20
3.08424
 11
69.5995
 21
3.01363
  0
LINE
  8
0
 10
69.5995
 20
3.01363
 11
69.4914
 21
2.94966
  0
LINE
  8
0
 10
69.4914
 20
2.94966
 11
69.3794
 21
2.89262
  0
LINE
  8
0
 10
69.3794
 20
2.89262
 11
69.2641
 21
2.84273
  0
LINE
  8
0
 10
69.2641
 20
2.84273
 11
69.1459
 21
2.80016
  0
LINE
  8
0
 10
69.1459
 20
2.80016
 11
69.0252
 21
2.76511
  0
LINE
  8
0
 10
69.0252
 20
2.76511
 11
68.9026
 21
2.7377
  0
LINE
  8
0
 10
68.9026
 20
2.7377
 11
68.7785
 21
2.71805
  0
LINE
  8
0
 10
68.7785
 20
2.71805
 11
68.6534
 21
2.70622
  0
LINE
  8
0
 10
68.6534
 20
2.70622
 11
68.5279
 21
2.70227
  0
LINE
  8
0
 10
68.5279
 20
2.70227
 11
68.4023
 21
2.70622
  0
ENDSEC
  0
SECTION
  2
OBJECTS
  0
DICTIONARY
  0
ENDSEC
  0
EOF
