  0
SECTION
  2
BLOCKS
  0
ENDSEC
  0
SECTION
  2
ENTITIES
  0
LINE
  8
0
 10
0
 20
230.826
 11
-75
 21
0
  0
LINE
  8
0
 10
-75
 20
0
 11
75
 21
0
  0
LINE
  8
0
 10
75
 20
0
 11
0
 21
230.826
  0
LINE
  8
0
 10
-0.12558
 20
212.83
 11
-0.250656
 21
212.842
  0
LINE
  8
0
 10
-0.250656
 20
212.842
 11
-0.374756
 21
212.862
  0
LINE
  8
0
 10
-0.374756
 20
212.862
 11
-0.497375
 21
212.889
  0
LINE
  8
0
 10
-0.497375
 20
212.889
 11
-0.618027
 21
212.924
  0
LINE
  8
0
 10
-0.618027
 20
212.924
 11
-0.736237
 21
212.967
  0
LINE
  8
0
 10
-0.736237
 20
212.967
 11
-0.851547
 21
213.017
  0
LINE
  8
0
 10
-0.851547
 20
213.017
 11
-0.963501
 21
213.074
  0
LINE
  8
0
 10
-0.963501
 20
213.074
 11
-1.07164
 21
213.138
  0
LINE
  8
0
 10
-1.07164
 20
213.138
 11
-1.17557
 21
213.208
  0
LINE
  8
0
 10
-1.17557
 20
213.208
 11
-1.27484
 21
213.285
  0
LINE
  8
0
 10
-1.27484
 20
213.285
 11
-1.36908
 21
213.368
  0
LINE
  8
0
 10
-1.36908
 20
213.368
 11
-1.45793
 21
213.457
  0
LINE
  8
0
 10
-1.45793
 20
213.457
 11
-1.54102
 21
213.551
  0
LINE
  8
0
 10
-1.54102
 20
213.551
 11
-1.61803
 21
213.651
  0
LINE
  8
0
 10
-1.61803
 20
213.651
 11
-1.68864
 21
213.755
  0
LINE
  8
0
 10
-1.68864
 20
213.755
 11
-1.75261
 21
213.863
  0
LINE
  8
0
 10
-1.75261
 20
213.863
 11
-1.80965
 21
213.975
  0
LINE
  8
0
 10
-1.80965
 20
213.975
 11
-1.85954
 21
214.09
  0
LINE
  8
0
 10
-1.85954
 20
214.09
 11
-1.9021
 21
214.208
  0
LINE
  8
0
 10
-1.9021
 20
214.208
 11
-1.93716
 21
214.329
  0
LINE
  8
0
 10
-1.93716
 20
214.329
 11
-1.96457
 21
214.451
  0
LINE
  8
0
 10
-1.96457
 20
214.451
 11
-1.98422
 21
214.576
  0
LINE
  8
0
 10
-1.98422
 20
214.576
 11
-1.99605
 21
214.701
  0
LINE
  8
0
 10
-1.99605
 20
214.701
 11
-2
 21
214.826
  0
LINE
  8
0
 10
-2
 20
214.826
 11
-1.99605
 21
214.952
  0
LINE
  8
0
 10
-1.99605
 20
214.952
 11
-1.98422
 21
215.077
  0
LINE
  8
0
 10
-1.98422
 20
215.077
 11
-1.96457
 21
215.201
  0
LINE
  8
0
 10
-1.96457
 20
215.201
 11
-1.93716
 21
215.324
  0
LINE
  8
0
 10
-1.93716
 20
215.324
 11
-1.9021
 21
215.444
  0
LINE
  8
0
 10
-1.9021
 20
215.444
 11
-1.85954
 21
215.562
  0
LINE
  8
0
 10
-1.85954
 20
215.562
 11
-1.80965
 21
215.678
  0
LINE
  8
0
 10
-1.80965
 20
215.678
 11
-1.75261
 21
215.79
  0
LINE
  8
0
 10
-1.75261
 20
215.79
 11
-1.68864
 21
215.898
  0
LINE
  8
0
 10
-1.68864
 20
215.898
 11
-1.61803
 21
216.002
  0
LINE
  8
0
 10
-1.61803
 20
216.002
 11
-1.54102
 21
216.101
  0
LINE
  8
0
 10
-1.54102
 20
216.101
 11
-1.45793
 21
216.195
  0
LINE
  8
0
 10
-1.45793
 20
216.195
 11
-1.36908
 21
216.284
  0
LINE
  8
0
 10
-1.36908
 20
216.284
 11
-1.27484
 21
216.367
  0
LINE
  8
0
 10
-1.27484
 20
216.367
 11
-1.17557
 21
216.444
  0
LINE
  8
0
 10
-1.17557
 20
216.444
 11
-1.07164
 21
216.515
  0
LINE
  8
0
 10
-1.07164
 20
216.515
 11
-0.963501
 21
216.579
  0
LINE
  8
0
 10
-0.963501
 20
216.579
 11
-0.851547
 21
216.636
  0
LINE
  8
0
 10
-0.851547
 20
216.636
 11
-0.736237
 21
216.686
  0
LINE
  8
0
 10
-0.736237
 20
216.686
 11
-0.618027
 21
216.728
  0
LINE
  8
0
 10
-0.618027
 20
216.728
 11
-0.497375
 21
216.763
  0
LINE
  8
0
 10
-0.497375
 20
216.763
 11
-0.374756
 21
216.791
  0
LINE
  8
0
 10
-0.374756
 20
216.791
 11
-0.250656
 21
216.81
  0
LINE
  8
0
 10
-0.250656
 20
216.81
 11
-0.12558
 21
216.822
  0
LINE
  8
0
 10
-0.12558
 20
216.822
 11
0
 21
216.826
  0
LINE
  8
0
 10
0
 20
216.826
 11
0.12558
 21
216.822
  0
LINE
  8
0
 10
0.12558
 20
216.822
 11
0.250656
 21
216.81
  0
LINE
  8
0
 10
0.250656
 20
216.81
 11
0.374756
 21
216.791
  0
LINE
  8
0
 10
0.374756
 20
216.791
 11
0.497375
 21
216.763
  0
LINE
  8
0
 10
0.497375
 20
216.763
 11
0.618027
 21
216.728
  0
LINE
  8
0
 10
0.618027
 20
216.728
 11
0.736237
 21
216.686
  0
LINE
  8
0
 10
0.736237
 20
216.686
 11
0.851547
 21
216.636
  0
LINE
  8
0
 10
0.851547
 20
216.636
 11
0.963501
 21
216.579
  0
LINE
  8
0
 10
0.963501
 20
216.579
 11
1.07164
 21
216.515
  0
LINE
  8
0
 10
1.07164
 20
216.515
 11
1.17557
 21
216.444
  0
LINE
  8
0
 10
1.17557
 20
216.444
 11
1.27484
 21
216.367
  0
LINE
  8
0
 10
1.27484
 20
216.367
 11
1.36908
 21
216.284
  0
LINE
  8
0
 10
1.36908
 20
216.284
 11
1.45793
 21
216.195
  0
LINE
  8
0
 10
1.45793
 20
216.195
 11
1.54102
 21
216.101
  0
LINE
  8
0
 10
1.54102
 20
216.101
 11
1.61803
 21
216.002
  0
LINE
  8
0
 10
1.61803
 20
216.002
 11
1.68864
 21
215.898
  0
LINE
  8
0
 10
1.68864
 20
215.898
 11
1.75261
 21
215.79
  0
LINE
  8
0
 10
1.75261
 20
215.79
 11
1.80965
 21
215.678
  0
LINE
  8
0
 10
1.80965
 20
215.678
 11
1.85954
 21
215.562
  0
LINE
  8
0
 10
1.85954
 20
215.562
 11
1.9021
 21
215.444
  0
LINE
  8
0
 10
1.9021
 20
215.444
 11
1.93716
 21
215.324
  0
LINE
  8
0
 10
1.93716
 20
215.324
 11
1.96457
 21
215.201
  0
LINE
  8
0
 10
1.96457
 20
215.201
 11
1.98422
 21
215.077
  0
LINE
  8
0
 10
1.98422
 20
215.077
 11
1.99605
 21
214.952
  0
LINE
  8
0
 10
1.99605
 20
214.952
 11
2
 21
214.826
  0
LINE
  8
0
 10
2
 20
214.826
 11
1.99605
 21
214.701
  0
LINE
  8
0
 10
1.99605
 20
214.701
 11
1.98422
 21
214.576
  0
LINE
  8
0
 10
1.98422
 20
214.576
 11
1.96457
 21
214.451
  0
LINE
  8
0
 10
1.96457
 20
214.451
 11
1.93716
 21
214.329
  0
LINE
  8
0
 10
1.93716
 20
214.329
 11
1.9021
 21
214.208
  0
LINE
  8
0
 10
1.9021
 20
214.208
 11
1.85954
 21
214.09
  0
LINE
  8
0
 10
1.85954
 20
214.09
 11
1.80965
 21
213.975
  0
LINE
  8
0
 10
1.80965
 20
213.975
 11
1.75261
 21
213.863
  0
LINE
  8
0
 10
1.75261
 20
213.863
 11
1.68864
 21
213.755
  0
LINE
  8
0
 10
1.68864
 20
213.755
 11
1.61803
 21
213.651
  0
LINE
  8
0
 10
1.61803
 20
213.651
 11
1.54102
 21
213.551
  0
LINE
  8
0
 10
1.54102
 20
213.551
 11
1.45793
 21
213.457
  0
LINE
  8
0
 10
1.45793
 20
213.457
 11
1.36908
 21
213.368
  0
LINE
  8
0
 10
1.36908
 20
213.368
 11
1.27484
 21
213.285
  0
LINE
  8
0
 10
1.27484
 20
213.285
 11
1.17557
 21
213.208
  0
LINE
  8
0
 10
1.17557
 20
213.208
 11
1.07164
 21
213.138
  0
LINE
  8
0
 10
1.07164
 20
213.138
 11
0.963501
 21
213.074
  0
LINE
  8
0
 10
0.963501
 20
213.074
 11
0.851547
 21
213.017
  0
LINE
  8
0
 10
0.851547
 20
213.017
 11
0.736237
 21
212.967
  0
LINE
  8
0
 10
0.736237
 20
212.967
 11
0.618027
 21
212.924
  0
LINE
  8
0
 10
0.618027
 20
212.924
 11
0.497375
 21
212.889
  0
LINE
  8
0
 10
0.497375
 20
212.889
 11
0.374756
 21
212.862
  0
LINE
  8
0
 10
0.374756
 20
212.862
 11
0.250656
 21
212.842
  0
LINE
  8
0
 10
0.250656
 20
212.842
 11
0.12558
 21
212.83
  0
LINE
  8
0
 10
0.12558
 20
212.83
 11
0
 21
212.826
  0
LINE
  8
0
 10
0
 20
212.826
 11
-0.12558
 21
212.83
  0
LINE
  8
0
 10
-1.06229
 20
179.214
 11
-2.11433
 21
179.371
  0
LINE
  8
0
 10
-2.11433
 20
179.371
 11
-3.146
 21
179.629
  0
LINE
  8
0
 10
-3.146
 20
179.629
 11
-3.92671
 21
179.908
  0
LINE
  8
0
 10
-3.92671
 20
179.908
 11
0
 21
191.993
  0
LINE
  8
0
 10
0
 20
191.993
 11
3.92671
 21
179.908
  0
LINE
  8
0
 10
3.92671
 20
179.908
 11
3.146
 21
179.629
  0
LINE
  8
0
 10
3.146
 20
179.629
 11
2.11429
 21
179.371
  0
LINE
  8
0
 10
2.11429
 20
179.371
 11
1.06226
 21
179.214
  0
LINE
  8
0
 10
1.06226
 20
179.214
 11
0
 21
179.162
  0
LINE
  8
0
 10
0
 20
179.162
 11
-1.06229
 21
179.214
  0
LINE
  8
0
 10
4.37421
 20
169.376
 11
4.30362
 21
169.644
  0
LINE
  8
0
 10
4.30362
 20
169.644
 11
4.19244
 21
169.876
  0
LINE
  8
0
 10
4.19244
 20
169.876
 11
4.04073
 21
170.072
  0
LINE
  8
0
 10
4.04073
 20
170.072
 11
3.84842
 21
170.233
  0
LINE
  8
0
 10
3.84842
 20
170.233
 11
3.61557
 21
170.358
  0
LINE
  8
0
 10
3.61557
 20
170.358
 11
3.34213
 21
170.447
  0
LINE
  8
0
 10
3.34213
 20
170.447
 11
3.02812
 21
170.501
  0
LINE
  8
0
 10
3.02812
 20
170.501
 11
2.67357
 21
170.519
  0
LINE
  8
0
 10
2.67357
 20
170.519
 11
2.27847
 21
170.501
  0
LINE
  8
0
 10
2.27847
 20
170.501
 11
1.84279
 21
170.447
  0
LINE
  8
0
 10
1.84279
 20
170.447
 11
1.36713
 21
170.358
  0
LINE
  8
0
 10
1.36713
 20
170.358
 11
1.92119
 21
170.816
  0
LINE
  8
0
 10
1.92119
 20
170.816
 11
2.39703
 21
171.275
  0
LINE
  8
0
 10
2.39703
 20
171.275
 11
2.79416
 21
171.734
  0
LINE
  8
0
 10
2.79416
 20
171.734
 11
3.11261
 21
172.195
  0
LINE
  8
0
 10
3.11261
 20
172.195
 11
3.35236
 21
172.656
  0
LINE
  8
0
 10
3.35236
 20
172.656
 11
3.5134
 21
173.118
  0
LINE
  8
0
 10
3.5134
 20
173.118
 11
3.59578
 21
173.581
  0
LINE
  8
0
 10
3.59578
 20
173.581
 11
3.59941
 21
174.045
  0
LINE
  8
0
 10
3.59941
 20
174.045
 11
3.52437
 21
174.509
  0
LINE
  8
0
 10
3.52437
 20
174.509
 11
3.37062
 21
174.974
  0
LINE
  8
0
 10
3.37062
 20
174.974
 11
3.13817
 21
175.44
  0
LINE
  8
0
 10
3.13817
 20
175.44
 11
2.82724
 21
175.907
  0
LINE
  8
0
 10
2.82724
 20
175.907
 11
3.78383
 21
175.69
  0
LINE
  8
0
 10
3.78383
 20
175.69
 11
4.70752
 21
175.68
  0
LINE
  8
0
 10
4.70752
 20
175.68
 11
5.26064
 21
175.803
  0
LINE
  8
0
 10
5.26064
 20
175.803
 11
7.04666
 21
170.306
  0
LINE
  8
0
 10
7.04666
 20
170.306
 11
6.57014
 21
169.97
  0
LINE
  8
0
 10
6.57014
 20
169.97
 11
5.52484
 21
169.443
  0
LINE
  8
0
 10
5.52484
 20
169.443
 11
4.40421
 21
169.073
  0
LINE
  8
0
 10
4.40421
 20
169.073
 11
4.37421
 21
169.376
  0
LINE
  8
0
 10
-5.52484
 20
169.443
 11
-6.57014
 21
169.97
  0
LINE
  8
0
 10
-6.57014
 20
169.97
 11
-7.04666
 21
170.306
  0
LINE
  8
0
 10
-7.04666
 20
170.306
 11
-5.26064
 21
175.803
  0
LINE
  8
0
 10
-5.26064
 20
175.803
 11
-4.70752
 21
175.68
  0
LINE
  8
0
 10
-4.70752
 20
175.68
 11
-3.78383
 21
175.69
  0
LINE
  8
0
 10
-3.78383
 20
175.69
 11
-2.82724
 21
175.907
  0
LINE
  8
0
 10
-2.82724
 20
175.907
 11
-3.13815
 21
175.44
  0
LINE
  8
0
 10
-3.13815
 20
175.44
 11
-3.37062
 21
174.974
  0
LINE
  8
0
 10
-3.37062
 20
174.974
 11
-3.52437
 21
174.509
  0
LINE
  8
0
 10
-3.52437
 20
174.509
 11
-3.59941
 21
174.045
  0
LINE
  8
0
 10
-3.59941
 20
174.045
 11
-3.59578
 21
173.581
  0
LINE
  8
0
 10
-3.59578
 20
173.581
 11
-3.5134
 21
173.118
  0
LINE
  8
0
 10
-3.5134
 20
173.118
 11
-3.35236
 21
172.656
  0
LINE
  8
0
 10
-3.35236
 20
172.656
 11
-3.11263
 21
172.195
  0
LINE
  8
0
 10
-3.11263
 20
172.195
 11
-2.79416
 21
171.734
  0
LINE
  8
0
 10
-2.79416
 20
171.734
 11
-2.39703
 21
171.275
  0
LINE
  8
0
 10
-2.39703
 20
171.275
 11
-1.9212
 21
170.816
  0
LINE
  8
0
 10
-1.9212
 20
170.816
 11
-1.36713
 21
170.358
  0
LINE
  8
0
 10
-1.36713
 20
170.358
 11
-1.84279
 21
170.447
  0
LINE
  8
0
 10
-1.84279
 20
170.447
 11
-2.27844
 21
170.501
  0
LINE
  8
0
 10
-2.27844
 20
170.501
 11
-2.67357
 21
170.519
  0
LINE
  8
0
 10
-2.67357
 20
170.519
 11
-3.02811
 21
170.501
  0
LINE
  8
0
 10
-3.02811
 20
170.501
 11
-3.3421
 21
170.447
  0
LINE
  8
0
 10
-3.3421
 20
170.447
 11
-3.61557
 21
170.358
  0
LINE
  8
0
 10
-3.61557
 20
170.358
 11
-3.84842
 21
170.233
  0
LINE
  8
0
 10
-3.84842
 20
170.233
 11
-4.04073
 21
170.072
  0
LINE
  8
0
 10
-4.04073
 20
170.072
 11
-4.19244
 21
169.876
  0
LINE
  8
0
 10
-4.19244
 20
169.876
 11
-4.30362
 21
169.644
  0
LINE
  8
0
 10
-4.30362
 20
169.644
 11
-4.37421
 21
169.376
  0
LINE
  8
0
 10
-4.37421
 20
169.376
 11
-4.40421
 21
169.073
  0
LINE
  8
0
 10
-4.40421
 20
169.073
 11
-5.52484
 21
169.443
  0
LINE
  8
0
 10
7.66782
 20
167.096
 11
6.11082
 21
167.414
  0
LINE
  8
0
 10
6.11082
 20
167.414
 11
4.40726
 21
167.5
  0
LINE
  8
0
 10
4.40726
 20
167.5
 11
6.11079
 21
167.586
  0
LINE
  8
0
 10
6.11079
 20
167.586
 11
7.66779
 21
167.904
  0
LINE
  8
0
 10
7.66779
 20
167.904
 11
7.80911
 21
167.959
  0
LINE
  8
0
 10
7.80911
 20
167.959
 11
8.15115
 21
166.907
  0
LINE
  8
0
 10
8.15115
 20
166.907
 11
7.66782
 21
167.096
  0
LINE
  8
0
 10
-7.80911
 20
167.959
 11
-7.66782
 21
167.904
  0
LINE
  8
0
 10
-7.66782
 20
167.904
 11
-6.11082
 21
167.586
  0
LINE
  8
0
 10
-6.11082
 20
167.586
 11
-4.40726
 21
167.5
  0
LINE
  8
0
 10
-4.40726
 20
167.5
 11
-6.11082
 21
167.414
  0
LINE
  8
0
 10
-6.11082
 20
167.414
 11
-7.66782
 21
167.096
  0
LINE
  8
0
 10
-7.66782
 20
167.096
 11
-8.15115
 21
166.907
  0
LINE
  8
0
 10
-8.15115
 20
166.907
 11
-7.80911
 21
167.959
  0
LINE
  8
0
 10
-12.8739
 20
151.149
 11
-12.583
 21
153.241
  0
LINE
  8
0
 10
-12.583
 20
153.241
 11
-12.5714
 21
153.303
  0
LINE
  8
0
 10
-12.5714
 20
153.303
 11
-9.91158
 21
161.489
  0
LINE
  8
0
 10
-9.91158
 20
161.489
 11
-9.25348
 21
162.509
  0
LINE
  8
0
 10
-9.25348
 20
162.509
 11
-8.43449
 21
163.506
  0
LINE
  8
0
 10
-8.43449
 20
163.506
 11
-7.54005
 21
164.346
  0
LINE
  8
0
 10
-7.54005
 20
164.346
 11
-6.57014
 21
165.03
  0
LINE
  8
0
 10
-6.57014
 20
165.03
 11
-5.52484
 21
165.557
  0
LINE
  8
0
 10
-5.52484
 20
165.557
 11
-4.40421
 21
165.927
  0
LINE
  8
0
 10
-4.40421
 20
165.927
 11
-4.37421
 21
165.624
  0
LINE
  8
0
 10
-4.37421
 20
165.624
 11
-4.30362
 21
165.356
  0
LINE
  8
0
 10
-4.30362
 20
165.356
 11
-4.19244
 21
165.124
  0
LINE
  8
0
 10
-4.19244
 20
165.124
 11
-4.04073
 21
164.928
  0
LINE
  8
0
 10
-4.04073
 20
164.928
 11
-3.84842
 21
164.767
  0
LINE
  8
0
 10
-3.84842
 20
164.767
 11
-3.61557
 21
164.642
  0
LINE
  8
0
 10
-3.61557
 20
164.642
 11
-3.34213
 21
164.553
  0
LINE
  8
0
 10
-3.34213
 20
164.553
 11
-3.02812
 21
164.499
  0
LINE
  8
0
 10
-3.02812
 20
164.499
 11
-2.67357
 21
164.481
  0
LINE
  8
0
 10
-2.67357
 20
164.481
 11
-2.27847
 21
164.499
  0
LINE
  8
0
 10
-2.27847
 20
164.499
 11
-1.84279
 21
164.553
  0
LINE
  8
0
 10
-1.84279
 20
164.553
 11
-1.36713
 21
164.642
  0
LINE
  8
0
 10
-1.36713
 20
164.642
 11
-1.92119
 21
164.184
  0
LINE
  8
0
 10
-1.92119
 20
164.184
 11
-2.39703
 21
163.725
  0
LINE
  8
0
 10
-2.39703
 20
163.725
 11
-2.79416
 21
163.266
  0
LINE
  8
0
 10
-2.79416
 20
163.266
 11
-3.11261
 21
162.805
  0
LINE
  8
0
 10
-3.11261
 20
162.805
 11
-3.35236
 21
162.344
  0
LINE
  8
0
 10
-3.35236
 20
162.344
 11
-3.5134
 21
161.882
  0
LINE
  8
0
 10
-3.5134
 20
161.882
 11
-3.59578
 21
161.419
  0
LINE
  8
0
 10
-3.59578
 20
161.419
 11
-3.59941
 21
160.955
  0
LINE
  8
0
 10
-3.59941
 20
160.955
 11
-3.52437
 21
160.491
  0
LINE
  8
0
 10
-3.52437
 20
160.491
 11
-3.37062
 21
160.026
  0
LINE
  8
0
 10
-3.37062
 20
160.026
 11
-3.13817
 21
159.56
  0
LINE
  8
0
 10
-3.13817
 20
159.56
 11
-2.82724
 21
159.093
  0
LINE
  8
0
 10
-2.82724
 20
159.093
 11
-3.78383
 21
159.31
  0
LINE
  8
0
 10
-3.78383
 20
159.31
 11
-4.70752
 21
159.32
  0
LINE
  8
0
 10
-4.70752
 20
159.32
 11
-5.59795
 21
159.122
  0
LINE
  8
0
 10
-5.59795
 20
159.122
 11
-6.45511
 21
158.716
  0
LINE
  8
0
 10
-6.45511
 20
158.716
 11
-7.27899
 21
158.103
  0
LINE
  8
0
 10
-7.27899
 20
158.103
 11
-8.06964
 21
157.282
  0
LINE
  8
0
 10
-8.06964
 20
157.282
 11
-8.82698
 21
156.253
  0
LINE
  8
0
 10
-8.82698
 20
156.253
 11
-9.5511
 21
155.017
  0
LINE
  8
0
 10
-9.5511
 20
155.017
 11
-10.2419
 21
153.573
  0
LINE
  8
0
 10
-10.2419
 20
153.573
 11
-10.8995
 21
151.921
  0
LINE
  8
0
 10
-10.8995
 20
151.921
 11
-11.5238
 21
150.061
  0
LINE
  8
0
 10
-11.5238
 20
150.061
 11
-12.1146
 21
147.995
  0
LINE
  8
0
 10
-12.1146
 20
147.995
 11
-12.8739
 21
151.149
  0
LINE
  8
0
 10
11.5238
 20
150.061
 11
10.8995
 21
151.921
  0
LINE
  8
0
 10
10.8995
 20
151.921
 11
10.2419
 21
153.573
  0
LINE
  8
0
 10
10.2419
 20
153.573
 11
9.5511
 21
155.017
  0
LINE
  8
0
 10
9.5511
 20
155.017
 11
8.82701
 21
156.253
  0
LINE
  8
0
 10
8.82701
 20
156.253
 11
8.06964
 21
157.282
  0
LINE
  8
0
 10
8.06964
 20
157.282
 11
7.27901
 21
158.103
  0
LINE
  8
0
 10
7.27901
 20
158.103
 11
6.45511
 21
158.716
  0
LINE
  8
0
 10
6.45511
 20
158.716
 11
5.59795
 21
159.122
  0
LINE
  8
0
 10
5.59795
 20
159.122
 11
4.70752
 21
159.32
  0
LINE
  8
0
 10
4.70752
 20
159.32
 11
3.78383
 21
159.31
  0
LINE
  8
0
 10
3.78383
 20
159.31
 11
2.82724
 21
159.093
  0
LINE
  8
0
 10
2.82724
 20
159.093
 11
3.13815
 21
159.56
  0
LINE
  8
0
 10
3.13815
 20
159.56
 11
3.37062
 21
160.026
  0
LINE
  8
0
 10
3.37062
 20
160.026
 11
3.52437
 21
160.491
  0
LINE
  8
0
 10
3.52437
 20
160.491
 11
3.59941
 21
160.955
  0
LINE
  8
0
 10
3.59941
 20
160.955
 11
3.59578
 21
161.419
  0
LINE
  8
0
 10
3.59578
 20
161.419
 11
3.5134
 21
161.882
  0
LINE
  8
0
 10
3.5134
 20
161.882
 11
3.35236
 21
162.344
  0
LINE
  8
0
 10
3.35236
 20
162.344
 11
3.11263
 21
162.805
  0
LINE
  8
0
 10
3.11263
 20
162.805
 11
2.79416
 21
163.266
  0
LINE
  8
0
 10
2.79416
 20
163.266
 11
2.39703
 21
163.725
  0
LINE
  8
0
 10
2.39703
 20
163.725
 11
1.9212
 21
164.184
  0
LINE
  8
0
 10
1.9212
 20
164.184
 11
1.36713
 21
164.642
  0
LINE
  8
0
 10
1.36713
 20
164.642
 11
1.84279
 21
164.553
  0
LINE
  8
0
 10
1.84279
 20
164.553
 11
2.27844
 21
164.499
  0
LINE
  8
0
 10
2.27844
 20
164.499
 11
2.67357
 21
164.481
  0
LINE
  8
0
 10
2.67357
 20
164.481
 11
3.02811
 21
164.499
  0
LINE
  8
0
 10
3.02811
 20
164.499
 11
3.3421
 21
164.553
  0
LINE
  8
0
 10
3.3421
 20
164.553
 11
3.61557
 21
164.642
  0
LINE
  8
0
 10
3.61557
 20
164.642
 11
3.84842
 21
164.767
  0
LINE
  8
0
 10
3.84842
 20
164.767
 11
4.04073
 21
164.928
  0
LINE
  8
0
 10
4.04073
 20
164.928
 11
4.19244
 21
165.124
  0
LINE
  8
0
 10
4.19244
 20
165.124
 11
4.30362
 21
165.356
  0
LINE
  8
0
 10
4.30362
 20
165.356
 11
4.37421
 21
165.624
  0
LINE
  8
0
 10
4.37421
 20
165.624
 11
4.40421
 21
165.927
  0
LINE
  8
0
 10
4.40421
 20
165.927
 11
5.52484
 21
165.557
  0
LINE
  8
0
 10
5.52484
 20
165.557
 11
6.57014
 21
165.03
  0
LINE
  8
0
 10
6.57014
 20
165.03
 11
7.54005
 21
164.346
  0
LINE
  8
0
 10
7.54005
 20
164.346
 11
8.43452
 21
163.506
  0
LINE
  8
0
 10
8.43452
 20
163.506
 11
9.25348
 21
162.509
  0
LINE
  8
0
 10
9.25348
 20
162.509
 11
9.91156
 21
161.489
  0
LINE
  8
0
 10
9.91156
 20
161.489
 11
12.5714
 21
153.303
  0
LINE
  8
0
 10
12.5714
 20
153.303
 11
12.583
 21
153.241
  0
LINE
  8
0
 10
12.583
 20
153.241
 11
12.8739
 21
151.149
  0
LINE
  8
0
 10
12.8739
 20
151.149
 11
12.1146
 21
147.995
  0
LINE
  8
0
 10
12.1146
 20
147.995
 11
11.5238
 21
150.061
  0
LINE
  8
0
 10
-1.06229
 20
134.214
 11
-2.11433
 21
134.371
  0
LINE
  8
0
 10
-2.11433
 20
134.371
 11
-3.146
 21
134.629
  0
LINE
  8
0
 10
-3.146
 20
134.629
 11
-4.14738
 21
134.987
  0
LINE
  8
0
 10
-4.14738
 20
134.987
 11
-5.10884
 21
135.442
  0
LINE
  8
0
 10
-5.10884
 20
135.442
 11
-6.0211
 21
135.989
  0
LINE
  8
0
 10
-6.0211
 20
135.989
 11
-6.87535
 21
136.622
  0
LINE
  8
0
 10
-6.87535
 20
136.622
 11
-7.66342
 21
137.337
  0
LINE
  8
0
 10
-7.66342
 20
137.337
 11
-8.37764
 21
138.125
  0
LINE
  8
0
 10
-8.37764
 20
138.125
 11
-9.01122
 21
138.979
  0
LINE
  8
0
 10
-9.01122
 20
138.979
 11
-9.55798
 21
139.891
  0
LINE
  8
0
 10
-9.55798
 20
139.891
 11
-10.0127
 21
140.853
  0
LINE
  8
0
 10
-10.0127
 20
140.853
 11
-10.371
 21
141.854
  0
LINE
  8
0
 10
-10.371
 20
141.854
 11
-10.6295
 21
142.886
  0
LINE
  8
0
 10
-10.6295
 20
142.886
 11
-10.7855
 21
143.938
  0
LINE
  8
0
 10
-10.7855
 20
143.938
 11
-10.8377
 21
145
  0
LINE
  8
0
 10
-10.8377
 20
145
 11
-10.7855
 21
146.062
  0
LINE
  8
0
 10
-10.7855
 20
146.062
 11
-10.6294
 21
147.114
  0
LINE
  8
0
 10
-10.6294
 20
147.114
 11
-10.371
 21
148.146
  0
LINE
  8
0
 10
-10.371
 20
148.146
 11
-10.0127
 21
149.147
  0
LINE
  8
0
 10
-10.0127
 20
149.147
 11
-9.55798
 21
150.109
  0
LINE
  8
0
 10
-9.55798
 20
150.109
 11
-9.01122
 21
151.021
  0
LINE
  8
0
 10
-9.01122
 20
151.021
 11
-8.37764
 21
151.875
  0
LINE
  8
0
 10
-8.37764
 20
151.875
 11
-7.66342
 21
152.663
  0
LINE
  8
0
 10
-7.66342
 20
152.663
 11
-6.87535
 21
153.378
  0
LINE
  8
0
 10
-6.87535
 20
153.378
 11
-6.0211
 21
154.011
  0
LINE
  8
0
 10
-6.0211
 20
154.011
 11
-5.10884
 21
154.558
  0
LINE
  8
0
 10
-5.10884
 20
154.558
 11
-4.14738
 21
155.013
  0
LINE
  8
0
 10
-4.14738
 20
155.013
 11
-3.146
 21
155.371
  0
LINE
  8
0
 10
-3.146
 20
155.371
 11
-2.11429
 21
155.629
  0
LINE
  8
0
 10
-2.11429
 20
155.629
 11
-1.06226
 21
155.786
  0
LINE
  8
0
 10
-1.06226
 20
155.786
 11
0
 21
155.838
  0
LINE
  8
0
 10
0
 20
155.838
 11
1.06229
 21
155.786
  0
LINE
  8
0
 10
1.06229
 20
155.786
 11
2.11433
 21
155.629
  0
LINE
  8
0
 10
2.11433
 20
155.629
 11
3.146
 21
155.371
  0
LINE
  8
0
 10
3.146
 20
155.371
 11
4.14738
 21
155.013
  0
LINE
  8
0
 10
4.14738
 20
155.013
 11
5.10884
 21
154.558
  0
LINE
  8
0
 10
5.10884
 20
154.558
 11
6.0211
 21
154.011
  0
LINE
  8
0
 10
6.0211
 20
154.011
 11
6.87535
 21
153.378
  0
LINE
  8
0
 10
6.87535
 20
153.378
 11
7.66342
 21
152.663
  0
LINE
  8
0
 10
7.66342
 20
152.663
 11
8.37764
 21
151.875
  0
LINE
  8
0
 10
8.37764
 20
151.875
 11
9.01122
 21
151.021
  0
LINE
  8
0
 10
9.01122
 20
151.021
 11
9.55798
 21
150.109
  0
LINE
  8
0
 10
9.55798
 20
150.109
 11
10.0127
 21
149.147
  0
LINE
  8
0
 10
10.0127
 20
149.147
 11
10.371
 21
148.146
  0
LINE
  8
0
 10
10.371
 20
148.146
 11
10.6295
 21
147.114
  0
LINE
  8
0
 10
10.6295
 20
147.114
 11
10.7855
 21
146.062
  0
LINE
  8
0
 10
10.7855
 20
146.062
 11
10.8377
 21
145
  0
LINE
  8
0
 10
10.8377
 20
145
 11
10.7855
 21
143.938
  0
LINE
  8
0
 10
10.7855
 20
143.938
 11
10.6294
 21
142.886
  0
LINE
  8
0
 10
10.6294
 20
142.886
 11
10.371
 21
141.854
  0
LINE
  8
0
 10
10.371
 20
141.854
 11
10.0127
 21
140.853
  0
LINE
  8
0
 10
10.0127
 20
140.853
 11
9.55798
 21
139.891
  0
LINE
  8
0
 10
9.55798
 20
139.891
 11
9.01118
 21
138.979
  0
LINE
  8
0
 10
9.01118
 20
138.979
 11
8.37764
 21
138.125
  0
LINE
  8
0
 10
8.37764
 20
138.125
 11
7.66339
 21
137.337
  0
LINE
  8
0
 10
7.66339
 20
137.337
 11
6.87535
 21
136.622
  0
LINE
  8
0
 10
6.87535
 20
136.622
 11
6.0211
 21
135.989
  0
LINE
  8
0
 10
6.0211
 20
135.989
 11
5.10884
 21
135.442
  0
LINE
  8
0
 10
5.10884
 20
135.442
 11
4.14738
 21
134.987
  0
LINE
  8
0
 10
4.14738
 20
134.987
 11
3.146
 21
134.629
  0
LINE
  8
0
 10
3.146
 20
134.629
 11
2.11429
 21
134.371
  0
LINE
  8
0
 10
2.11429
 20
134.371
 11
1.06226
 21
134.214
  0
LINE
  8
0
 10
1.06226
 20
134.214
 11
0
 21
134.162
  0
LINE
  8
0
 10
0
 20
134.162
 11
-1.06229
 21
134.214
  0
LINE
  8
0
 10
4.37421
 20
124.376
 11
4.30362
 21
124.644
  0
LINE
  8
0
 10
4.30362
 20
124.644
 11
4.19244
 21
124.876
  0
LINE
  8
0
 10
4.19244
 20
124.876
 11
4.04073
 21
125.072
  0
LINE
  8
0
 10
4.04073
 20
125.072
 11
3.84842
 21
125.233
  0
LINE
  8
0
 10
3.84842
 20
125.233
 11
3.61557
 21
125.358
  0
LINE
  8
0
 10
3.61557
 20
125.358
 11
3.34213
 21
125.447
  0
LINE
  8
0
 10
3.34213
 20
125.447
 11
3.02812
 21
125.501
  0
LINE
  8
0
 10
3.02812
 20
125.501
 11
2.67357
 21
125.519
  0
LINE
  8
0
 10
2.67357
 20
125.519
 11
2.27847
 21
125.501
  0
LINE
  8
0
 10
2.27847
 20
125.501
 11
1.84279
 21
125.447
  0
LINE
  8
0
 10
1.84279
 20
125.447
 11
1.36713
 21
125.358
  0
LINE
  8
0
 10
1.36713
 20
125.358
 11
1.92119
 21
125.816
  0
LINE
  8
0
 10
1.92119
 20
125.816
 11
2.39703
 21
126.275
  0
LINE
  8
0
 10
2.39703
 20
126.275
 11
2.79416
 21
126.734
  0
LINE
  8
0
 10
2.79416
 20
126.734
 11
3.11261
 21
127.195
  0
LINE
  8
0
 10
3.11261
 20
127.195
 11
3.35236
 21
127.656
  0
LINE
  8
0
 10
3.35236
 20
127.656
 11
3.5134
 21
128.118
  0
LINE
  8
0
 10
3.5134
 20
128.118
 11
3.59578
 21
128.581
  0
LINE
  8
0
 10
3.59578
 20
128.581
 11
3.59941
 21
129.045
  0
LINE
  8
0
 10
3.59941
 20
129.045
 11
3.52437
 21
129.509
  0
LINE
  8
0
 10
3.52437
 20
129.509
 11
3.37062
 21
129.974
  0
LINE
  8
0
 10
3.37062
 20
129.974
 11
3.13817
 21
130.44
  0
LINE
  8
0
 10
3.13817
 20
130.44
 11
2.82724
 21
130.907
  0
LINE
  8
0
 10
2.82724
 20
130.907
 11
3.78383
 21
130.69
  0
LINE
  8
0
 10
3.78383
 20
130.69
 11
4.70752
 21
130.68
  0
LINE
  8
0
 10
4.70752
 20
130.68
 11
5.59795
 21
130.878
  0
LINE
  8
0
 10
5.59795
 20
130.878
 11
6.45511
 21
131.284
  0
LINE
  8
0
 10
6.45511
 20
131.284
 11
7.27899
 21
131.897
  0
LINE
  8
0
 10
7.27899
 20
131.897
 11
8.06964
 21
132.718
  0
LINE
  8
0
 10
8.06964
 20
132.718
 11
8.82698
 21
133.747
  0
LINE
  8
0
 10
8.82698
 20
133.747
 11
9.5511
 21
134.983
  0
LINE
  8
0
 10
9.5511
 20
134.983
 11
10.2419
 21
136.427
  0
LINE
  8
0
 10
10.2419
 20
136.427
 11
10.8995
 21
138.079
  0
LINE
  8
0
 10
10.8995
 20
138.079
 11
11.5238
 21
139.939
  0
LINE
  8
0
 10
11.5238
 20
139.939
 11
12.1146
 21
142.005
  0
LINE
  8
0
 10
12.1146
 20
142.005
 11
12.8739
 21
138.851
  0
LINE
  8
0
 10
12.8739
 20
138.851
 11
12.583
 21
136.759
  0
LINE
  8
0
 10
12.583
 20
136.759
 11
12.2167
 21
134.823
  0
LINE
  8
0
 10
12.2167
 20
134.823
 11
11.775
 21
133.043
  0
LINE
  8
0
 10
11.775
 20
133.043
 11
11.2578
 21
131.42
  0
LINE
  8
0
 10
11.2578
 20
131.42
 11
10.6651
 21
129.954
  0
LINE
  8
0
 10
10.6651
 20
129.954
 11
9.99702
 21
128.644
  0
LINE
  8
0
 10
9.99702
 20
128.644
 11
9.25346
 21
127.49
  0
LINE
  8
0
 10
9.25346
 20
127.49
 11
8.43449
 21
126.494
  0
LINE
  8
0
 10
8.43449
 20
126.494
 11
7.54002
 21
125.654
  0
LINE
  8
0
 10
7.54002
 20
125.654
 11
6.57014
 21
124.97
  0
LINE
  8
0
 10
6.57014
 20
124.97
 11
5.52484
 21
124.443
  0
LINE
  8
0
 10
5.52484
 20
124.443
 11
4.40421
 21
124.073
  0
LINE
  8
0
 10
4.40421
 20
124.073
 11
4.37421
 21
124.376
  0
LINE
  8
0
 10
-5.52484
 20
124.443
 11
-6.57014
 21
124.97
  0
LINE
  8
0
 10
-6.57014
 20
124.97
 11
-7.54005
 21
125.654
  0
LINE
  8
0
 10
-7.54005
 20
125.654
 11
-8.43452
 21
126.494
  0
LINE
  8
0
 10
-8.43452
 20
126.494
 11
-9.25348
 21
127.491
  0
LINE
  8
0
 10
-9.25348
 20
127.491
 11
-9.99706
 21
128.644
  0
LINE
  8
0
 10
-9.99706
 20
128.644
 11
-10.6651
 21
129.954
  0
LINE
  8
0
 10
-10.6651
 20
129.954
 11
-11.2578
 21
131.42
  0
LINE
  8
0
 10
-11.2578
 20
131.42
 11
-11.775
 21
133.043
  0
LINE
  8
0
 10
-11.775
 20
133.043
 11
-12.2167
 21
134.823
  0
LINE
  8
0
 10
-12.2167
 20
134.823
 11
-12.583
 21
136.759
  0
LINE
  8
0
 10
-12.583
 20
136.759
 11
-12.8739
 21
138.851
  0
LINE
  8
0
 10
-12.8739
 20
138.851
 11
-12.1146
 21
142.005
  0
LINE
  8
0
 10
-12.1146
 20
142.005
 11
-11.5238
 21
139.939
  0
LINE
  8
0
 10
-11.5238
 20
139.939
 11
-10.8995
 21
138.079
  0
LINE
  8
0
 10
-10.8995
 20
138.079
 11
-10.2419
 21
136.427
  0
LINE
  8
0
 10
-10.2419
 20
136.427
 11
-9.5511
 21
134.983
  0
LINE
  8
0
 10
-9.5511
 20
134.983
 11
-8.82701
 21
133.747
  0
LINE
  8
0
 10
-8.82701
 20
133.747
 11
-8.06964
 21
132.718
  0
LINE
  8
0
 10
-8.06964
 20
132.718
 11
-7.27901
 21
131.897
  0
LINE
  8
0
 10
-7.27901
 20
131.897
 11
-6.45511
 21
131.284
  0
LINE
  8
0
 10
-6.45511
 20
131.284
 11
-5.59795
 21
130.878
  0
LINE
  8
0
 10
-5.59795
 20
130.878
 11
-4.70752
 21
130.68
  0
LINE
  8
0
 10
-4.70752
 20
130.68
 11
-3.78383
 21
130.69
  0
LINE
  8
0
 10
-3.78383
 20
130.69
 11
-2.82724
 21
130.907
  0
LINE
  8
0
 10
-2.82724
 20
130.907
 11
-3.13815
 21
130.44
  0
LINE
  8
0
 10
-3.13815
 20
130.44
 11
-3.37062
 21
129.974
  0
LINE
  8
0
 10
-3.37062
 20
129.974
 11
-3.52437
 21
129.509
  0
LINE
  8
0
 10
-3.52437
 20
129.509
 11
-3.59941
 21
129.045
  0
LINE
  8
0
 10
-3.59941
 20
129.045
 11
-3.59578
 21
128.581
  0
LINE
  8
0
 10
-3.59578
 20
128.581
 11
-3.5134
 21
128.118
  0
LINE
  8
0
 10
-3.5134
 20
128.118
 11
-3.35236
 21
127.656
  0
LINE
  8
0
 10
-3.35236
 20
127.656
 11
-3.11263
 21
127.195
  0
LINE
  8
0
 10
-3.11263
 20
127.195
 11
-2.79416
 21
126.734
  0
LINE
  8
0
 10
-2.79416
 20
126.734
 11
-2.39703
 21
126.275
  0
LINE
  8
0
 10
-2.39703
 20
126.275
 11
-1.9212
 21
125.816
  0
LINE
  8
0
 10
-1.9212
 20
125.816
 11
-1.36713
 21
125.358
  0
LINE
  8
0
 10
-1.36713
 20
125.358
 11
-1.84279
 21
125.447
  0
LINE
  8
0
 10
-1.84279
 20
125.447
 11
-2.27844
 21
125.501
  0
LINE
  8
0
 10
-2.27844
 20
125.501
 11
-2.67357
 21
125.519
  0
LINE
  8
0
 10
-2.67357
 20
125.519
 11
-3.02811
 21
125.501
  0
LINE
  8
0
 10
-3.02811
 20
125.501
 11
-3.3421
 21
125.447
  0
LINE
  8
0
 10
-3.3421
 20
125.447
 11
-3.61557
 21
125.358
  0
LINE
  8
0
 10
-3.61557
 20
125.358
 11
-3.84842
 21
125.233
  0
LINE
  8
0
 10
-3.84842
 20
125.233
 11
-4.04073
 21
125.072
  0
LINE
  8
0
 10
-4.04073
 20
125.072
 11
-4.19244
 21
124.876
  0
LINE
  8
0
 10
-4.19244
 20
124.876
 11
-4.30362
 21
124.644
  0
LINE
  8
0
 10
-4.30362
 20
124.644
 11
-4.37421
 21
124.376
  0
LINE
  8
0
 10
-4.37421
 20
124.376
 11
-4.40421
 21
124.073
  0
LINE
  8
0
 10
-4.40421
 20
124.073
 11
-5.52484
 21
124.443
  0
LINE
  8
0
 10
-17.186
 20
139.1
 11
-17.1261
 21
138.851
  0
LINE
  8
0
 10
-17.1261
 20
138.851
 11
-17.417
 21
136.759
  0
LINE
  8
0
 10
-17.417
 20
136.759
 11
-17.7833
 21
134.823
  0
LINE
  8
0
 10
-17.7833
 20
134.823
 11
-18.225
 21
133.043
  0
LINE
  8
0
 10
-18.225
 20
133.043
 11
-18.7422
 21
131.42
  0
LINE
  8
0
 10
-18.7422
 20
131.42
 11
-19.3349
 21
129.954
  0
LINE
  8
0
 10
-19.3349
 20
129.954
 11
-20.003
 21
128.644
  0
LINE
  8
0
 10
-20.003
 20
128.644
 11
-20.7465
 21
127.49
  0
LINE
  8
0
 10
-20.7465
 20
127.49
 11
-21.0968
 21
127.064
  0
LINE
  8
0
 10
-21.0968
 20
127.064
 11
-17.186
 21
139.1
  0
LINE
  8
0
 10
20.7465
 20
127.491
 11
20.0029
 21
128.644
  0
LINE
  8
0
 10
20.0029
 20
128.644
 11
19.3349
 21
129.954
  0
LINE
  8
0
 10
19.3349
 20
129.954
 11
18.7422
 21
131.42
  0
LINE
  8
0
 10
18.7422
 20
131.42
 11
18.225
 21
133.043
  0
LINE
  8
0
 10
18.225
 20
133.043
 11
17.7833
 21
134.823
  0
LINE
  8
0
 10
17.7833
 20
134.823
 11
17.417
 21
136.759
  0
LINE
  8
0
 10
17.417
 20
136.759
 11
17.1261
 21
138.851
  0
LINE
  8
0
 10
17.1261
 20
138.851
 11
17.186
 21
139.1
  0
LINE
  8
0
 10
17.186
 20
139.1
 11
21.0968
 21
127.064
  0
LINE
  8
0
 10
21.0968
 20
127.064
 11
20.7465
 21
127.491
  0
LINE
  8
0
 10
14.9409
 20
108.788
 11
14.7319
 21
111.195
  0
LINE
  8
0
 10
14.7319
 20
111.195
 11
14.3731
 21
113.37
  0
LINE
  8
0
 10
14.3731
 20
113.37
 11
13.8645
 21
115.313
  0
LINE
  8
0
 10
13.8645
 20
115.313
 11
13.2061
 21
117.023
  0
LINE
  8
0
 10
13.2061
 20
117.023
 11
12.398
 21
118.502
  0
LINE
  8
0
 10
12.398
 20
118.502
 11
11.4401
 21
119.749
  0
LINE
  8
0
 10
11.4401
 20
119.749
 11
10.3325
 21
120.763
  0
LINE
  8
0
 10
10.3325
 20
120.763
 11
9.075
 21
121.545
  0
LINE
  8
0
 10
9.075
 20
121.545
 11
7.66782
 21
122.096
  0
LINE
  8
0
 10
7.66782
 20
122.096
 11
6.11082
 21
122.414
  0
LINE
  8
0
 10
6.11082
 20
122.414
 11
4.40726
 21
122.5
  0
LINE
  8
0
 10
4.40726
 20
122.5
 11
6.11079
 21
122.586
  0
LINE
  8
0
 10
6.11079
 20
122.586
 11
7.66779
 21
122.904
  0
LINE
  8
0
 10
7.66779
 20
122.904
 11
9.075
 21
123.454
  0
LINE
  8
0
 10
9.075
 20
123.454
 11
10.3325
 21
124.237
  0
LINE
  8
0
 10
10.3325
 20
124.237
 11
11.4401
 21
125.251
  0
LINE
  8
0
 10
11.4401
 20
125.251
 11
12.398
 21
126.498
  0
LINE
  8
0
 10
12.398
 20
126.498
 11
13.2061
 21
127.977
  0
LINE
  8
0
 10
13.2061
 20
127.977
 11
13.8645
 21
129.687
  0
LINE
  8
0
 10
13.8645
 20
129.687
 11
14.373
 21
131.63
  0
LINE
  8
0
 10
14.373
 20
131.63
 11
14.7318
 21
133.805
  0
LINE
  8
0
 10
14.7318
 20
133.805
 11
14.9409
 21
136.212
  0
LINE
  8
0
 10
14.9409
 20
136.212
 11
15
 21
138.844
  0
LINE
  8
0
 10
15
 20
138.844
 11
15.0591
 21
136.212
  0
LINE
  8
0
 10
15.0591
 20
136.212
 11
15.2681
 21
133.805
  0
LINE
  8
0
 10
15.2681
 20
133.805
 11
15.6269
 21
131.63
  0
LINE
  8
0
 10
15.6269
 20
131.63
 11
16.1355
 21
129.687
  0
LINE
  8
0
 10
16.1355
 20
129.687
 11
16.7939
 21
127.977
  0
LINE
  8
0
 10
16.7939
 20
127.977
 11
17.602
 21
126.498
  0
LINE
  8
0
 10
17.602
 20
126.498
 11
18.5599
 21
125.251
  0
LINE
  8
0
 10
18.5599
 20
125.251
 11
19.6675
 21
124.237
  0
LINE
  8
0
 10
19.6675
 20
124.237
 11
20.925
 21
123.454
  0
LINE
  8
0
 10
20.925
 20
123.454
 11
22.3322
 21
122.904
  0
LINE
  8
0
 10
22.3322
 20
122.904
 11
22.4567
 21
122.879
  0
LINE
  8
0
 10
22.4567
 20
122.879
 11
22.6875
 21
122.168
  0
LINE
  8
0
 10
22.6875
 20
122.168
 11
22.3322
 21
122.096
  0
LINE
  8
0
 10
22.3322
 20
122.096
 11
20.925
 21
121.545
  0
LINE
  8
0
 10
20.925
 20
121.545
 11
19.6675
 21
120.763
  0
LINE
  8
0
 10
19.6675
 20
120.763
 11
18.5599
 21
119.749
  0
LINE
  8
0
 10
18.5599
 20
119.749
 11
17.602
 21
118.502
  0
LINE
  8
0
 10
17.602
 20
118.502
 11
16.7939
 21
117.023
  0
LINE
  8
0
 10
16.7939
 20
117.023
 11
16.1355
 21
115.313
  0
LINE
  8
0
 10
16.1355
 20
115.313
 11
15.627
 21
113.37
  0
LINE
  8
0
 10
15.627
 20
113.37
 11
15.2682
 21
111.195
  0
LINE
  8
0
 10
15.2682
 20
111.195
 11
15.0591
 21
108.788
  0
LINE
  8
0
 10
15.0591
 20
108.788
 11
15
 21
106.156
  0
LINE
  8
0
 10
15
 20
106.156
 11
14.9409
 21
108.788
  0
LINE
  8
0
 10
-15.0591
 20
108.788
 11
-15.2681
 21
111.195
  0
LINE
  8
0
 10
-15.2681
 20
111.195
 11
-15.6269
 21
113.37
  0
LINE
  8
0
 10
-15.6269
 20
113.37
 11
-16.1355
 21
115.313
  0
LINE
  8
0
 10
-16.1355
 20
115.313
 11
-16.7939
 21
117.023
  0
LINE
  8
0
 10
-16.7939
 20
117.023
 11
-17.602
 21
118.502
  0
LINE
  8
0
 10
-17.602
 20
118.502
 11
-18.5599
 21
119.749
  0
LINE
  8
0
 10
-18.5599
 20
119.749
 11
-19.6675
 21
120.763
  0
LINE
  8
0
 10
-19.6675
 20
120.763
 11
-20.925
 21
121.545
  0
LINE
  8
0
 10
-20.925
 20
121.545
 11
-22.3322
 21
122.096
  0
LINE
  8
0
 10
-22.3322
 20
122.096
 11
-22.6875
 21
122.168
  0
LINE
  8
0
 10
-22.6875
 20
122.168
 11
-22.4567
 21
122.879
  0
LINE
  8
0
 10
-22.4567
 20
122.879
 11
-22.3322
 21
122.904
  0
LINE
  8
0
 10
-22.3322
 20
122.904
 11
-20.925
 21
123.454
  0
LINE
  8
0
 10
-20.925
 20
123.454
 11
-19.6675
 21
124.237
  0
LINE
  8
0
 10
-19.6675
 20
124.237
 11
-18.5599
 21
125.251
  0
LINE
  8
0
 10
-18.5599
 20
125.251
 11
-17.602
 21
126.498
  0
LINE
  8
0
 10
-17.602
 20
126.498
 11
-16.7939
 21
127.977
  0
LINE
  8
0
 10
-16.7939
 20
127.977
 11
-16.1355
 21
129.687
  0
LINE
  8
0
 10
-16.1355
 20
129.687
 11
-15.627
 21
131.63
  0
LINE
  8
0
 10
-15.627
 20
131.63
 11
-15.2682
 21
133.805
  0
LINE
  8
0
 10
-15.2682
 20
133.805
 11
-15.0591
 21
136.212
  0
LINE
  8
0
 10
-15.0591
 20
136.212
 11
-15
 21
138.844
  0
LINE
  8
0
 10
-15
 20
138.844
 11
-14.9409
 21
136.212
  0
LINE
  8
0
 10
-14.9409
 20
136.212
 11
-14.7319
 21
133.805
  0
LINE
  8
0
 10
-14.7319
 20
133.805
 11
-14.3731
 21
131.63
  0
LINE
  8
0
 10
-14.3731
 20
131.63
 11
-13.8645
 21
129.687
  0
LINE
  8
0
 10
-13.8645
 20
129.687
 11
-13.2061
 21
127.977
  0
LINE
  8
0
 10
-13.2061
 20
127.977
 11
-12.398
 21
126.498
  0
LINE
  8
0
 10
-12.398
 20
126.498
 11
-11.4401
 21
125.251
  0
LINE
  8
0
 10
-11.4401
 20
125.251
 11
-10.3325
 21
124.237
  0
LINE
  8
0
 10
-10.3325
 20
124.237
 11
-9.075
 21
123.454
  0
LINE
  8
0
 10
-9.075
 20
123.454
 11
-7.66782
 21
122.904
  0
LINE
  8
0
 10
-7.66782
 20
122.904
 11
-6.11082
 21
122.586
  0
LINE
  8
0
 10
-6.11082
 20
122.586
 11
-4.40726
 21
122.5
  0
LINE
  8
0
 10
-4.40726
 20
122.5
 11
-6.11082
 21
122.414
  0
LINE
  8
0
 10
-6.11082
 20
122.414
 11
-7.66782
 21
122.096
  0
LINE
  8
0
 10
-7.66782
 20
122.096
 11
-9.075
 21
121.545
  0
LINE
  8
0
 10
-9.075
 20
121.545
 11
-10.3325
 21
120.763
  0
LINE
  8
0
 10
-10.3325
 20
120.763
 11
-11.4401
 21
119.749
  0
LINE
  8
0
 10
-11.4401
 20
119.749
 11
-12.398
 21
118.502
  0
LINE
  8
0
 10
-12.398
 20
118.502
 11
-13.2061
 21
117.023
  0
LINE
  8
0
 10
-13.2061
 20
117.023
 11
-13.8645
 21
115.313
  0
LINE
  8
0
 10
-13.8645
 20
115.313
 11
-14.373
 21
113.37
  0
LINE
  8
0
 10
-14.373
 20
113.37
 11
-14.7318
 21
111.195
  0
LINE
  8
0
 10
-14.7318
 20
111.195
 11
-14.9409
 21
108.788
  0
LINE
  8
0
 10
-14.9409
 20
108.788
 11
-15
 21
106.156
  0
LINE
  8
0
 10
-15
 20
106.156
 11
-15.0591
 21
108.788
  0
LINE
  8
0
 10
11.5238
 20
105.061
 11
10.8995
 21
106.921
  0
LINE
  8
0
 10
10.8995
 20
106.921
 11
10.2419
 21
108.573
  0
LINE
  8
0
 10
10.2419
 20
108.573
 11
9.5511
 21
110.017
  0
LINE
  8
0
 10
9.5511
 20
110.017
 11
8.82701
 21
111.253
  0
LINE
  8
0
 10
8.82701
 20
111.253
 11
8.06964
 21
112.282
  0
LINE
  8
0
 10
8.06964
 20
112.282
 11
7.27901
 21
113.103
  0
LINE
  8
0
 10
7.27901
 20
113.103
 11
6.45511
 21
113.716
  0
LINE
  8
0
 10
6.45511
 20
113.716
 11
5.59795
 21
114.122
  0
LINE
  8
0
 10
5.59795
 20
114.122
 11
4.70752
 21
114.32
  0
LINE
  8
0
 10
4.70752
 20
114.32
 11
3.78383
 21
114.31
  0
LINE
  8
0
 10
3.78383
 20
114.31
 11
2.82724
 21
114.093
  0
LINE
  8
0
 10
2.82724
 20
114.093
 11
3.13815
 21
114.56
  0
LINE
  8
0
 10
3.13815
 20
114.56
 11
3.37062
 21
115.026
  0
LINE
  8
0
 10
3.37062
 20
115.026
 11
3.52437
 21
115.491
  0
LINE
  8
0
 10
3.52437
 20
115.491
 11
3.59941
 21
115.955
  0
LINE
  8
0
 10
3.59941
 20
115.955
 11
3.59578
 21
116.419
  0
LINE
  8
0
 10
3.59578
 20
116.419
 11
3.5134
 21
116.882
  0
LINE
  8
0
 10
3.5134
 20
116.882
 11
3.35236
 21
117.344
  0
LINE
  8
0
 10
3.35236
 20
117.344
 11
3.11263
 21
117.805
  0
LINE
  8
0
 10
3.11263
 20
117.805
 11
2.79416
 21
118.266
  0
LINE
  8
0
 10
2.79416
 20
118.266
 11
2.39703
 21
118.725
  0
LINE
  8
0
 10
2.39703
 20
118.725
 11
1.9212
 21
119.184
  0
LINE
  8
0
 10
1.9212
 20
119.184
 11
1.36713
 21
119.642
  0
LINE
  8
0
 10
1.36713
 20
119.642
 11
1.84279
 21
119.553
  0
LINE
  8
0
 10
1.84279
 20
119.553
 11
2.27844
 21
119.499
  0
LINE
  8
0
 10
2.27844
 20
119.499
 11
2.67357
 21
119.481
  0
LINE
  8
0
 10
2.67357
 20
119.481
 11
3.02811
 21
119.499
  0
LINE
  8
0
 10
3.02811
 20
119.499
 11
3.3421
 21
119.553
  0
LINE
  8
0
 10
3.3421
 20
119.553
 11
3.61557
 21
119.642
  0
LINE
  8
0
 10
3.61557
 20
119.642
 11
3.84842
 21
119.767
  0
LINE
  8
0
 10
3.84842
 20
119.767
 11
4.04073
 21
119.928
  0
LINE
  8
0
 10
4.04073
 20
119.928
 11
4.19244
 21
120.124
  0
LINE
  8
0
 10
4.19244
 20
120.124
 11
4.30362
 21
120.356
  0
LINE
  8
0
 10
4.30362
 20
120.356
 11
4.37421
 21
120.624
  0
LINE
  8
0
 10
4.37421
 20
120.624
 11
4.40421
 21
120.927
  0
LINE
  8
0
 10
4.40421
 20
120.927
 11
5.52484
 21
120.557
  0
LINE
  8
0
 10
5.52484
 20
120.557
 11
6.57014
 21
120.03
  0
LINE
  8
0
 10
6.57014
 20
120.03
 11
7.54005
 21
119.346
  0
LINE
  8
0
 10
7.54005
 20
119.346
 11
8.43452
 21
118.506
  0
LINE
  8
0
 10
8.43452
 20
118.506
 11
9.25348
 21
117.509
  0
LINE
  8
0
 10
9.25348
 20
117.509
 11
9.99706
 21
116.356
  0
LINE
  8
0
 10
9.99706
 20
116.356
 11
10.6651
 21
115.046
  0
LINE
  8
0
 10
10.6651
 20
115.046
 11
11.2578
 21
113.58
  0
LINE
  8
0
 10
11.2578
 20
113.58
 11
11.775
 21
111.957
  0
LINE
  8
0
 10
11.775
 20
111.957
 11
12.2167
 21
110.177
  0
LINE
  8
0
 10
12.2167
 20
110.177
 11
12.583
 21
108.241
  0
LINE
  8
0
 10
12.583
 20
108.241
 11
12.8739
 21
106.149
  0
LINE
  8
0
 10
12.8739
 20
106.149
 11
12.1146
 21
102.995
  0
LINE
  8
0
 10
12.1146
 20
102.995
 11
11.5238
 21
105.061
  0
LINE
  8
0
 10
-12.8739
 20
106.149
 11
-12.583
 21
108.241
  0
LINE
  8
0
 10
-12.583
 20
108.241
 11
-12.2167
 21
110.177
  0
LINE
  8
0
 10
-12.2167
 20
110.177
 11
-11.775
 21
111.957
  0
LINE
  8
0
 10
-11.775
 20
111.957
 11
-11.2578
 21
113.58
  0
LINE
  8
0
 10
-11.2578
 20
113.58
 11
-10.6651
 21
115.046
  0
LINE
  8
0
 10
-10.6651
 20
115.046
 11
-9.99702
 21
116.356
  0
LINE
  8
0
 10
-9.99702
 20
116.356
 11
-9.25348
 21
117.509
  0
LINE
  8
0
 10
-9.25348
 20
117.509
 11
-8.43449
 21
118.506
  0
LINE
  8
0
 10
-8.43449
 20
118.506
 11
-7.54005
 21
119.346
  0
LINE
  8
0
 10
-7.54005
 20
119.346
 11
-6.57014
 21
120.03
  0
LINE
  8
0
 10
-6.57014
 20
120.03
 11
-5.52484
 21
120.557
  0
LINE
  8
0
 10
-5.52484
 20
120.557
 11
-4.40421
 21
120.927
  0
LINE
  8
0
 10
-4.40421
 20
120.927
 11
-4.37421
 21
120.624
  0
LINE
  8
0
 10
-4.37421
 20
120.624
 11
-4.30362
 21
120.356
  0
LINE
  8
0
 10
-4.30362
 20
120.356
 11
-4.19244
 21
120.124
  0
LINE
  8
0
 10
-4.19244
 20
120.124
 11
-4.04073
 21
119.928
  0
LINE
  8
0
 10
-4.04073
 20
119.928
 11
-3.84842
 21
119.767
  0
LINE
  8
0
 10
-3.84842
 20
119.767
 11
-3.61557
 21
119.642
  0
LINE
  8
0
 10
-3.61557
 20
119.642
 11
-3.34213
 21
119.553
  0
LINE
  8
0
 10
-3.34213
 20
119.553
 11
-3.02812
 21
119.499
  0
LINE
  8
0
 10
-3.02812
 20
119.499
 11
-2.67357
 21
119.481
  0
LINE
  8
0
 10
-2.67357
 20
119.481
 11
-2.27847
 21
119.499
  0
LINE
  8
0
 10
-2.27847
 20
119.499
 11
-1.84279
 21
119.553
  0
LINE
  8
0
 10
-1.84279
 20
119.553
 11
-1.36713
 21
119.642
  0
LINE
  8
0
 10
-1.36713
 20
119.642
 11
-1.92119
 21
119.184
  0
LINE
  8
0
 10
-1.92119
 20
119.184
 11
-2.39703
 21
118.725
  0
LINE
  8
0
 10
-2.39703
 20
118.725
 11
-2.79416
 21
118.266
  0
LINE
  8
0
 10
-2.79416
 20
118.266
 11
-3.11261
 21
117.805
  0
LINE
  8
0
 10
-3.11261
 20
117.805
 11
-3.35236
 21
117.344
  0
LINE
  8
0
 10
-3.35236
 20
117.344
 11
-3.5134
 21
116.882
  0
LINE
  8
0
 10
-3.5134
 20
116.882
 11
-3.59578
 21
116.419
  0
LINE
  8
0
 10
-3.59578
 20
116.419
 11
-3.59941
 21
115.955
  0
LINE
  8
0
 10
-3.59941
 20
115.955
 11
-3.52437
 21
115.491
  0
LINE
  8
0
 10
-3.52437
 20
115.491
 11
-3.37062
 21
115.026
  0
LINE
  8
0
 10
-3.37062
 20
115.026
 11
-3.13817
 21
114.56
  0
LINE
  8
0
 10
-3.13817
 20
114.56
 11
-2.82724
 21
114.093
  0
LINE
  8
0
 10
-2.82724
 20
114.093
 11
-3.78383
 21
114.31
  0
LINE
  8
0
 10
-3.78383
 20
114.31
 11
-4.70752
 21
114.32
  0
LINE
  8
0
 10
-4.70752
 20
114.32
 11
-5.59795
 21
114.122
  0
LINE
  8
0
 10
-5.59795
 20
114.122
 11
-6.45511
 21
113.716
  0
LINE
  8
0
 10
-6.45511
 20
113.716
 11
-7.27899
 21
113.103
  0
LINE
  8
0
 10
-7.27899
 20
113.103
 11
-8.06964
 21
112.282
  0
LINE
  8
0
 10
-8.06964
 20
112.282
 11
-8.82698
 21
111.253
  0
LINE
  8
0
 10
-8.82698
 20
111.253
 11
-9.5511
 21
110.017
  0
LINE
  8
0
 10
-9.5511
 20
110.017
 11
-10.2419
 21
108.573
  0
LINE
  8
0
 10
-10.2419
 20
108.573
 11
-10.8995
 21
106.921
  0
LINE
  8
0
 10
-10.8995
 20
106.921
 11
-11.5238
 21
105.061
  0
LINE
  8
0
 10
-11.5238
 20
105.061
 11
-12.1146
 21
102.995
  0
LINE
  8
0
 10
-12.1146
 20
102.995
 11
-12.8739
 21
106.149
  0
LINE
  8
0
 10
17.1261
 20
106.149
 11
17.417
 21
108.241
  0
LINE
  8
0
 10
17.417
 20
108.241
 11
17.7833
 21
110.177
  0
LINE
  8
0
 10
17.7833
 20
110.177
 11
18.225
 21
111.957
  0
LINE
  8
0
 10
18.225
 20
111.957
 11
18.7422
 21
113.58
  0
LINE
  8
0
 10
18.7422
 20
113.58
 11
19.3349
 21
115.046
  0
LINE
  8
0
 10
19.3349
 20
115.046
 11
20.003
 21
116.356
  0
LINE
  8
0
 10
20.003
 20
116.356
 11
20.7465
 21
117.509
  0
LINE
  8
0
 10
20.7465
 20
117.509
 11
21.5655
 21
118.506
  0
LINE
  8
0
 10
21.5655
 20
118.506
 11
22.4599
 21
119.346
  0
LINE
  8
0
 10
22.4599
 20
119.346
 11
23.3913
 21
120.003
  0
LINE
  8
0
 10
23.3913
 20
120.003
 11
25.2413
 21
114.309
  0
LINE
  8
0
 10
25.2413
 20
114.309
 11
24.4021
 21
114.122
  0
LINE
  8
0
 10
24.4021
 20
114.122
 11
23.5449
 21
113.716
  0
LINE
  8
0
 10
23.5449
 20
113.716
 11
22.721
 21
113.103
  0
LINE
  8
0
 10
22.721
 20
113.103
 11
21.9304
 21
112.282
  0
LINE
  8
0
 10
21.9304
 20
112.282
 11
21.173
 21
111.253
  0
LINE
  8
0
 10
21.173
 20
111.253
 11
20.4489
 21
110.017
  0
LINE
  8
0
 10
20.4489
 20
110.017
 11
19.7581
 21
108.573
  0
LINE
  8
0
 10
19.7581
 20
108.573
 11
19.1005
 21
106.921
  0
LINE
  8
0
 10
19.1005
 20
106.921
 11
18.4762
 21
105.061
  0
LINE
  8
0
 10
18.4762
 20
105.061
 11
17.8854
 21
102.995
  0
LINE
  8
0
 10
17.8854
 20
102.995
 11
17.1261
 21
106.149
  0
LINE
  8
0
 10
-18.4762
 20
105.061
 11
-19.1005
 21
106.921
  0
LINE
  8
0
 10
-19.1005
 20
106.921
 11
-19.7581
 21
108.573
  0
LINE
  8
0
 10
-19.7581
 20
108.573
 11
-20.4489
 21
110.017
  0
LINE
  8
0
 10
-20.4489
 20
110.017
 11
-21.173
 21
111.253
  0
LINE
  8
0
 10
-21.173
 20
111.253
 11
-21.9304
 21
112.282
  0
LINE
  8
0
 10
-21.9304
 20
112.282
 11
-22.721
 21
113.103
  0
LINE
  8
0
 10
-22.721
 20
113.103
 11
-23.5449
 21
113.716
  0
LINE
  8
0
 10
-23.5449
 20
113.716
 11
-24.4021
 21
114.122
  0
LINE
  8
0
 10
-24.4021
 20
114.122
 11
-25.2413
 21
114.309
  0
LINE
  8
0
 10
-25.2413
 20
114.309
 11
-23.3913
 21
120.003
  0
LINE
  8
0
 10
-23.3913
 20
120.003
 11
-22.4599
 21
119.346
  0
LINE
  8
0
 10
-22.4599
 20
119.346
 11
-21.5655
 21
118.506
  0
LINE
  8
0
 10
-21.5655
 20
118.506
 11
-20.7465
 21
117.509
  0
LINE
  8
0
 10
-20.7465
 20
117.509
 11
-20.0029
 21
116.356
  0
LINE
  8
0
 10
-20.0029
 20
116.356
 11
-19.3349
 21
115.046
  0
LINE
  8
0
 10
-19.3349
 20
115.046
 11
-18.7422
 21
113.58
  0
LINE
  8
0
 10
-18.7422
 20
113.58
 11
-18.225
 21
111.957
  0
LINE
  8
0
 10
-18.225
 20
111.957
 11
-17.7833
 21
110.177
  0
LINE
  8
0
 10
-17.7833
 20
110.177
 11
-17.417
 21
108.241
  0
LINE
  8
0
 10
-17.417
 20
108.241
 11
-17.1261
 21
106.149
  0
LINE
  8
0
 10
-17.1261
 20
106.149
 11
-17.8854
 21
102.995
  0
LINE
  8
0
 10
-17.8854
 20
102.995
 11
-18.4762
 21
105.061
  0
LINE
  8
0
 10
-1.06229
 20
89.2145
 11
-2.11433
 21
89.3706
  0
LINE
  8
0
 10
-2.11433
 20
89.3706
 11
-3.146
 21
89.629
  0
LINE
  8
0
 10
-3.146
 20
89.629
 11
-4.14738
 21
89.9873
  0
LINE
  8
0
 10
-4.14738
 20
89.9873
 11
-5.10884
 21
90.442
  0
LINE
  8
0
 10
-5.10884
 20
90.442
 11
-6.0211
 21
90.9888
  0
LINE
  8
0
 10
-6.0211
 20
90.9888
 11
-6.87535
 21
91.6223
  0
LINE
  8
0
 10
-6.87535
 20
91.6223
 11
-7.66342
 21
92.3366
  0
LINE
  8
0
 10
-7.66342
 20
92.3366
 11
-8.37764
 21
93.1246
  0
LINE
  8
0
 10
-8.37764
 20
93.1246
 11
-9.01122
 21
93.9789
  0
LINE
  8
0
 10
-9.01122
 20
93.9789
 11
-9.55798
 21
94.8911
  0
LINE
  8
0
 10
-9.55798
 20
94.8911
 11
-10.0127
 21
95.8526
  0
LINE
  8
0
 10
-10.0127
 20
95.8526
 11
-10.371
 21
96.854
  0
LINE
  8
0
 10
-10.371
 20
96.854
 11
-10.6295
 21
97.8857
  0
LINE
  8
0
 10
-10.6295
 20
97.8857
 11
-10.7855
 21
98.9377
  0
LINE
  8
0
 10
-10.7855
 20
98.9377
 11
-10.8377
 21
100
  0
LINE
  8
0
 10
-10.8377
 20
100
 11
-10.7855
 21
101.062
  0
LINE
  8
0
 10
-10.7855
 20
101.062
 11
-10.6294
 21
102.114
  0
LINE
  8
0
 10
-10.6294
 20
102.114
 11
-10.371
 21
103.146
  0
LINE
  8
0
 10
-10.371
 20
103.146
 11
-10.0127
 21
104.147
  0
LINE
  8
0
 10
-10.0127
 20
104.147
 11
-9.55798
 21
105.109
  0
LINE
  8
0
 10
-9.55798
 20
105.109
 11
-9.01122
 21
106.021
  0
LINE
  8
0
 10
-9.01122
 20
106.021
 11
-8.37764
 21
106.875
  0
LINE
  8
0
 10
-8.37764
 20
106.875
 11
-7.66342
 21
107.663
  0
LINE
  8
0
 10
-7.66342
 20
107.663
 11
-6.87535
 21
108.378
  0
LINE
  8
0
 10
-6.87535
 20
108.378
 11
-6.0211
 21
109.011
  0
LINE
  8
0
 10
-6.0211
 20
109.011
 11
-5.10884
 21
109.558
  0
LINE
  8
0
 10
-5.10884
 20
109.558
 11
-4.14738
 21
110.013
  0
LINE
  8
0
 10
-4.14738
 20
110.013
 11
-3.146
 21
110.371
  0
LINE
  8
0
 10
-3.146
 20
110.371
 11
-2.11429
 21
110.629
  0
LINE
  8
0
 10
-2.11429
 20
110.629
 11
-1.06226
 21
110.786
  0
LINE
  8
0
 10
-1.06226
 20
110.786
 11
0
 21
110.838
  0
LINE
  8
0
 10
0
 20
110.838
 11
1.06229
 21
110.786
  0
LINE
  8
0
 10
1.06229
 20
110.786
 11
2.11433
 21
110.629
  0
LINE
  8
0
 10
2.11433
 20
110.629
 11
3.146
 21
110.371
  0
LINE
  8
0
 10
3.146
 20
110.371
 11
4.14738
 21
110.013
  0
LINE
  8
0
 10
4.14738
 20
110.013
 11
5.10884
 21
109.558
  0
LINE
  8
0
 10
5.10884
 20
109.558
 11
6.0211
 21
109.011
  0
LINE
  8
0
 10
6.0211
 20
109.011
 11
6.87535
 21
108.378
  0
LINE
  8
0
 10
6.87535
 20
108.378
 11
7.66342
 21
107.663
  0
LINE
  8
0
 10
7.66342
 20
107.663
 11
8.37764
 21
106.875
  0
LINE
  8
0
 10
8.37764
 20
106.875
 11
9.01122
 21
106.021
  0
LINE
  8
0
 10
9.01122
 20
106.021
 11
9.55798
 21
105.109
  0
LINE
  8
0
 10
9.55798
 20
105.109
 11
10.0127
 21
104.147
  0
LINE
  8
0
 10
10.0127
 20
104.147
 11
10.371
 21
103.146
  0
LINE
  8
0
 10
10.371
 20
103.146
 11
10.6295
 21
102.114
  0
LINE
  8
0
 10
10.6295
 20
102.114
 11
10.7855
 21
101.062
  0
LINE
  8
0
 10
10.7855
 20
101.062
 11
10.8377
 21
100
  0
LINE
  8
0
 10
10.8377
 20
100
 11
10.7855
 21
98.9377
  0
LINE
  8
0
 10
10.7855
 20
98.9377
 11
10.6294
 21
97.8857
  0
LINE
  8
0
 10
10.6294
 20
97.8857
 11
10.371
 21
96.854
  0
LINE
  8
0
 10
10.371
 20
96.854
 11
10.0127
 21
95.8526
  0
LINE
  8
0
 10
10.0127
 20
95.8526
 11
9.55798
 21
94.8911
  0
LINE
  8
0
 10
9.55798
 20
94.8911
 11
9.01118
 21
93.9789
  0
LINE
  8
0
 10
9.01118
 20
93.9789
 11
8.37764
 21
93.1246
  0
LINE
  8
0
 10
8.37764
 20
93.1246
 11
7.66339
 21
92.3366
  0
LINE
  8
0
 10
7.66339
 20
92.3366
 11
6.87535
 21
91.6223
  0
LINE
  8
0
 10
6.87535
 20
91.6223
 11
6.0211
 21
90.9888
  0
LINE
  8
0
 10
6.0211
 20
90.9888
 11
5.10884
 21
90.442
  0
LINE
  8
0
 10
5.10884
 20
90.442
 11
4.14738
 21
89.9873
  0
LINE
  8
0
 10
4.14738
 20
89.9873
 11
3.146
 21
89.629
  0
LINE
  8
0
 10
3.146
 20
89.629
 11
2.11429
 21
89.3705
  0
LINE
  8
0
 10
2.11429
 20
89.3705
 11
1.06226
 21
89.2145
  0
LINE
  8
0
 10
1.06226
 20
89.2145
 11
0
 21
89.1623
  0
LINE
  8
0
 10
0
 20
89.1623
 11
-1.06229
 21
89.2145
  0
LINE
  8
0
 10
-31.0623
 20
89.2145
 11
-32.1143
 21
89.3706
  0
LINE
  8
0
 10
-32.1143
 20
89.3706
 11
-33.146
 21
89.629
  0
LINE
  8
0
 10
-33.146
 20
89.629
 11
-33.2483
 21
89.6656
  0
LINE
  8
0
 10
-33.2483
 20
89.6656
 11
-26.5554
 21
110.264
  0
LINE
  8
0
 10
-26.5554
 20
110.264
 11
-25.8526
 21
110.013
  0
LINE
  8
0
 10
-25.8526
 20
110.013
 11
-24.8911
 21
109.558
  0
LINE
  8
0
 10
-24.8911
 20
109.558
 11
-23.9789
 21
109.011
  0
LINE
  8
0
 10
-23.9789
 20
109.011
 11
-23.1246
 21
108.378
  0
LINE
  8
0
 10
-23.1246
 20
108.378
 11
-22.3366
 21
107.663
  0
LINE
  8
0
 10
-22.3366
 20
107.663
 11
-21.6223
 21
106.875
  0
LINE
  8
0
 10
-21.6223
 20
106.875
 11
-20.9888
 21
106.021
  0
LINE
  8
0
 10
-20.9888
 20
106.021
 11
-20.442
 21
105.109
  0
LINE
  8
0
 10
-20.442
 20
105.109
 11
-19.9873
 21
104.147
  0
LINE
  8
0
 10
-19.9873
 20
104.147
 11
-19.629
 21
103.146
  0
LINE
  8
0
 10
-19.629
 20
103.146
 11
-19.3705
 21
102.114
  0
LINE
  8
0
 10
-19.3705
 20
102.114
 11
-19.2145
 21
101.062
  0
LINE
  8
0
 10
-19.2145
 20
101.062
 11
-19.1623
 21
100
  0
LINE
  8
0
 10
-19.1623
 20
100
 11
-19.2145
 21
98.9377
  0
LINE
  8
0
 10
-19.2145
 20
98.9377
 11
-19.3706
 21
97.8857
  0
LINE
  8
0
 10
-19.3706
 20
97.8857
 11
-19.629
 21
96.854
  0
LINE
  8
0
 10
-19.629
 20
96.854
 11
-19.9873
 21
95.8526
  0
LINE
  8
0
 10
-19.9873
 20
95.8526
 11
-20.442
 21
94.8911
  0
LINE
  8
0
 10
-20.442
 20
94.8911
 11
-20.9888
 21
93.9789
  0
LINE
  8
0
 10
-20.9888
 20
93.9789
 11
-21.6223
 21
93.1246
  0
LINE
  8
0
 10
-21.6223
 20
93.1246
 11
-22.3366
 21
92.3366
  0
LINE
  8
0
 10
-22.3366
 20
92.3366
 11
-23.1246
 21
91.6223
  0
LINE
  8
0
 10
-23.1246
 20
91.6223
 11
-23.9789
 21
90.9888
  0
LINE
  8
0
 10
-23.9789
 20
90.9888
 11
-24.8911
 21
90.442
  0
LINE
  8
0
 10
-24.8911
 20
90.442
 11
-25.8526
 21
89.9873
  0
LINE
  8
0
 10
-25.8526
 20
89.9873
 11
-26.854
 21
89.629
  0
LINE
  8
0
 10
-26.854
 20
89.629
 11
-27.8857
 21
89.3705
  0
LINE
  8
0
 10
-27.8857
 20
89.3705
 11
-28.9377
 21
89.2145
  0
LINE
  8
0
 10
-28.9377
 20
89.2145
 11
-30
 21
89.1623
  0
LINE
  8
0
 10
-30
 20
89.1623
 11
-31.0623
 21
89.2145
  0
LINE
  8
0
 10
28.9377
 20
89.2145
 11
27.8857
 21
89.3706
  0
LINE
  8
0
 10
27.8857
 20
89.3706
 11
26.854
 21
89.629
  0
LINE
  8
0
 10
26.854
 20
89.629
 11
25.8526
 21
89.9873
  0
LINE
  8
0
 10
25.8526
 20
89.9873
 11
24.8911
 21
90.442
  0
LINE
  8
0
 10
24.8911
 20
90.442
 11
23.9789
 21
90.9888
  0
LINE
  8
0
 10
23.9789
 20
90.9888
 11
23.1246
 21
91.6223
  0
LINE
  8
0
 10
23.1246
 20
91.6223
 11
22.3366
 21
92.3366
  0
LINE
  8
0
 10
22.3366
 20
92.3366
 11
21.6223
 21
93.1246
  0
LINE
  8
0
 10
21.6223
 20
93.1246
 11
20.9888
 21
93.9789
  0
LINE
  8
0
 10
20.9888
 20
93.9789
 11
20.442
 21
94.8911
  0
LINE
  8
0
 10
20.442
 20
94.8911
 11
19.9873
 21
95.8526
  0
LINE
  8
0
 10
19.9873
 20
95.8526
 11
19.629
 21
96.854
  0
LINE
  8
0
 10
19.629
 20
96.854
 11
19.3705
 21
97.8857
  0
LINE
  8
0
 10
19.3705
 20
97.8857
 11
19.2145
 21
98.9377
  0
LINE
  8
0
 10
19.2145
 20
98.9377
 11
19.1623
 21
100
  0
LINE
  8
0
 10
19.1623
 20
100
 11
19.2145
 21
101.062
  0
LINE
  8
0
 10
19.2145
 20
101.062
 11
19.3706
 21
102.114
  0
LINE
  8
0
 10
19.3706
 20
102.114
 11
19.629
 21
103.146
  0
LINE
  8
0
 10
19.629
 20
103.146
 11
19.9873
 21
104.147
  0
LINE
  8
0
 10
19.9873
 20
104.147
 11
20.442
 21
105.109
  0
LINE
  8
0
 10
20.442
 20
105.109
 11
20.9888
 21
106.021
  0
LINE
  8
0
 10
20.9888
 20
106.021
 11
21.6223
 21
106.875
  0
LINE
  8
0
 10
21.6223
 20
106.875
 11
22.3366
 21
107.663
  0
LINE
  8
0
 10
22.3366
 20
107.663
 11
23.1246
 21
108.378
  0
LINE
  8
0
 10
23.1246
 20
108.378
 11
23.9789
 21
109.011
  0
LINE
  8
0
 10
23.9789
 20
109.011
 11
24.8911
 21
109.558
  0
LINE
  8
0
 10
24.8911
 20
109.558
 11
25.8526
 21
110.013
  0
LINE
  8
0
 10
25.8526
 20
110.013
 11
26.5554
 21
110.264
  0
LINE
  8
0
 10
26.5554
 20
110.264
 11
33.2483
 21
89.6656
  0
LINE
  8
0
 10
33.2483
 20
89.6656
 11
33.146
 21
89.629
  0
LINE
  8
0
 10
33.146
 20
89.629
 11
32.1143
 21
89.3705
  0
LINE
  8
0
 10
32.1143
 20
89.3705
 11
31.0623
 21
89.2145
  0
LINE
  8
0
 10
31.0623
 20
89.2145
 11
30
 21
89.1623
  0
LINE
  8
0
 10
30
 20
89.1623
 11
28.9377
 21
89.2145
  0
LINE
  8
0
 10
4.37421
 20
79.3763
 11
4.30362
 21
79.644
  0
LINE
  8
0
 10
4.30362
 20
79.644
 11
4.19244
 21
79.8761
  0
LINE
  8
0
 10
4.19244
 20
79.8761
 11
4.04073
 21
80.0725
  0
LINE
  8
0
 10
4.04073
 20
80.0725
 11
3.84842
 21
80.2331
  0
LINE
  8
0
 10
3.84842
 20
80.2331
 11
3.61557
 21
80.3581
  0
LINE
  8
0
 10
3.61557
 20
80.3581
 11
3.34213
 21
80.4473
  0
LINE
  8
0
 10
3.34213
 20
80.4473
 11
3.02812
 21
80.5009
  0
LINE
  8
0
 10
3.02812
 20
80.5009
 11
2.67357
 21
80.5187
  0
LINE
  8
0
 10
2.67357
 20
80.5187
 11
2.27847
 21
80.5009
  0
LINE
  8
0
 10
2.27847
 20
80.5009
 11
1.84279
 21
80.4473
  0
LINE
  8
0
 10
1.84279
 20
80.4473
 11
1.36713
 21
80.3582
  0
LINE
  8
0
 10
1.36713
 20
80.3582
 11
1.92119
 21
80.8158
  0
LINE
  8
0
 10
1.92119
 20
80.8158
 11
2.39703
 21
81.2746
  0
LINE
  8
0
 10
2.39703
 20
81.2746
 11
2.79416
 21
81.7342
  0
LINE
  8
0
 10
2.79416
 20
81.7342
 11
3.11261
 21
82.1946
  0
LINE
  8
0
 10
3.11261
 20
82.1946
 11
3.35236
 21
82.6559
  0
LINE
  8
0
 10
3.35236
 20
82.6559
 11
3.5134
 21
83.1179
  0
LINE
  8
0
 10
3.5134
 20
83.1179
 11
3.59578
 21
83.5808
  0
LINE
  8
0
 10
3.59578
 20
83.5808
 11
3.59941
 21
84.0445
  0
LINE
  8
0
 10
3.59941
 20
84.0445
 11
3.52437
 21
84.509
  0
LINE
  8
0
 10
3.52437
 20
84.509
 11
3.37062
 21
84.9743
  0
LINE
  8
0
 10
3.37062
 20
84.9743
 11
3.13817
 21
85.4404
  0
LINE
  8
0
 10
3.13817
 20
85.4404
 11
2.82724
 21
85.907
  0
LINE
  8
0
 10
2.82724
 20
85.907
 11
3.78383
 21
85.6896
  0
LINE
  8
0
 10
3.78383
 20
85.6896
 11
4.70752
 21
85.6799
  0
LINE
  8
0
 10
4.70752
 20
85.6799
 11
5.59795
 21
85.8779
  0
LINE
  8
0
 10
5.59795
 20
85.8779
 11
6.45511
 21
86.2835
  0
LINE
  8
0
 10
6.45511
 20
86.2835
 11
7.27899
 21
86.8969
  0
LINE
  8
0
 10
7.27899
 20
86.8969
 11
8.06964
 21
87.7179
  0
LINE
  8
0
 10
8.06964
 20
87.7179
 11
8.82698
 21
88.7467
  0
LINE
  8
0
 10
8.82698
 20
88.7467
 11
9.5511
 21
89.9831
  0
LINE
  8
0
 10
9.5511
 20
89.9831
 11
10.2419
 21
91.4272
  0
LINE
  8
0
 10
10.2419
 20
91.4272
 11
10.8995
 21
93.079
  0
LINE
  8
0
 10
10.8995
 20
93.079
 11
11.5238
 21
94.9386
  0
LINE
  8
0
 10
11.5238
 20
94.9386
 11
12.1146
 21
97.0052
  0
LINE
  8
0
 10
12.1146
 20
97.0052
 11
12.8739
 21
93.8514
  0
LINE
  8
0
 10
12.8739
 20
93.8514
 11
12.583
 21
91.7587
  0
LINE
  8
0
 10
12.583
 20
91.7587
 11
12.2167
 21
89.8226
  0
LINE
  8
0
 10
12.2167
 20
89.8226
 11
11.775
 21
88.043
  0
LINE
  8
0
 10
11.775
 20
88.043
 11
11.2578
 21
86.42
  0
LINE
  8
0
 10
11.2578
 20
86.42
 11
10.6651
 21
84.9536
  0
LINE
  8
0
 10
10.6651
 20
84.9536
 11
9.99702
 21
83.6438
  0
LINE
  8
0
 10
9.99702
 20
83.6438
 11
9.25346
 21
82.4905
  0
LINE
  8
0
 10
9.25346
 20
82.4905
 11
8.43449
 21
81.4939
  0
LINE
  8
0
 10
8.43449
 20
81.4939
 11
7.54002
 21
80.6537
  0
LINE
  8
0
 10
7.54002
 20
80.6537
 11
6.57014
 21
79.9702
  0
LINE
  8
0
 10
6.57014
 20
79.9702
 11
5.52484
 21
79.4433
  0
LINE
  8
0
 10
5.52484
 20
79.4433
 11
4.40421
 21
79.0731
  0
LINE
  8
0
 10
4.40421
 20
79.0731
 11
4.37421
 21
79.3763
  0
LINE
  8
0
 10
24.4752
 20
79.4433
 11
23.4299
 21
79.9702
  0
LINE
  8
0
 10
23.4299
 20
79.9702
 11
22.4599
 21
80.6538
  0
LINE
  8
0
 10
22.4599
 20
80.6538
 11
21.5655
 21
81.4939
  0
LINE
  8
0
 10
21.5655
 20
81.4939
 11
20.7465
 21
82.4905
  0
LINE
  8
0
 10
20.7465
 20
82.4905
 11
20.0029
 21
83.6438
  0
LINE
  8
0
 10
20.0029
 20
83.6438
 11
19.3349
 21
84.9536
  0
LINE
  8
0
 10
19.3349
 20
84.9536
 11
18.7422
 21
86.42
  0
LINE
  8
0
 10
18.7422
 20
86.42
 11
18.225
 21
88.043
  0
LINE
  8
0
 10
18.225
 20
88.043
 11
17.7833
 21
89.8226
  0
LINE
  8
0
 10
17.7833
 20
89.8226
 11
17.417
 21
91.7588
  0
LINE
  8
0
 10
17.417
 20
91.7588
 11
17.1261
 21
93.8514
  0
LINE
  8
0
 10
17.1261
 20
93.8514
 11
17.8854
 21
97.0052
  0
LINE
  8
0
 10
17.8854
 20
97.0052
 11
18.4762
 21
94.9386
  0
LINE
  8
0
 10
18.4762
 20
94.9386
 11
19.1005
 21
93.079
  0
LINE
  8
0
 10
19.1005
 20
93.079
 11
19.7581
 21
91.4272
  0
LINE
  8
0
 10
19.7581
 20
91.4272
 11
20.4489
 21
89.9831
  0
LINE
  8
0
 10
20.4489
 20
89.9831
 11
21.173
 21
88.7467
  0
LINE
  8
0
 10
21.173
 20
88.7467
 11
21.9304
 21
87.7179
  0
LINE
  8
0
 10
21.9304
 20
87.7179
 11
22.721
 21
86.8969
  0
LINE
  8
0
 10
22.721
 20
86.8969
 11
23.5449
 21
86.2835
  0
LINE
  8
0
 10
23.5449
 20
86.2835
 11
24.4021
 21
85.8779
  0
LINE
  8
0
 10
24.4021
 20
85.8779
 11
25.2925
 21
85.6799
  0
LINE
  8
0
 10
25.2925
 20
85.6799
 11
26.2162
 21
85.6896
  0
LINE
  8
0
 10
26.2162
 20
85.6896
 11
27.1728
 21
85.907
  0
LINE
  8
0
 10
27.1728
 20
85.907
 11
26.8618
 21
85.4404
  0
LINE
  8
0
 10
26.8618
 20
85.4404
 11
26.6294
 21
84.9743
  0
LINE
  8
0
 10
26.6294
 20
84.9743
 11
26.4756
 21
84.509
  0
LINE
  8
0
 10
26.4756
 20
84.509
 11
26.4006
 21
84.0445
  0
LINE
  8
0
 10
26.4006
 20
84.0445
 11
26.4042
 21
83.5808
  0
LINE
  8
0
 10
26.4042
 20
83.5808
 11
26.4866
 21
83.1179
  0
LINE
  8
0
 10
26.4866
 20
83.1179
 11
26.6476
 21
82.6559
  0
LINE
  8
0
 10
26.6476
 20
82.6559
 11
26.8874
 21
82.1947
  0
LINE
  8
0
 10
26.8874
 20
82.1947
 11
27.2058
 21
81.7342
  0
LINE
  8
0
 10
27.2058
 20
81.7342
 11
27.603
 21
81.2746
  0
LINE
  8
0
 10
27.603
 20
81.2746
 11
28.0788
 21
80.8158
  0
LINE
  8
0
 10
28.0788
 20
80.8158
 11
28.6329
 21
80.3582
  0
LINE
  8
0
 10
28.6329
 20
80.3582
 11
28.1572
 21
80.4473
  0
LINE
  8
0
 10
28.1572
 20
80.4473
 11
27.7215
 21
80.5009
  0
LINE
  8
0
 10
27.7215
 20
80.5009
 11
27.3264
 21
80.5187
  0
LINE
  8
0
 10
27.3264
 20
80.5187
 11
26.9719
 21
80.5009
  0
LINE
  8
0
 10
26.9719
 20
80.5009
 11
26.6579
 21
80.4473
  0
LINE
  8
0
 10
26.6579
 20
80.4473
 11
26.3844
 21
80.3581
  0
LINE
  8
0
 10
26.3844
 20
80.3581
 11
26.1516
 21
80.2331
  0
LINE
  8
0
 10
26.1516
 20
80.2331
 11
25.9593
 21
80.0725
  0
LINE
  8
0
 10
25.9593
 20
80.0725
 11
25.8075
 21
79.8761
  0
LINE
  8
0
 10
25.8075
 20
79.8761
 11
25.6964
 21
79.644
  0
LINE
  8
0
 10
25.6964
 20
79.644
 11
25.6258
 21
79.3763
  0
LINE
  8
0
 10
25.6258
 20
79.3763
 11
25.5958
 21
79.0731
  0
LINE
  8
0
 10
25.5958
 20
79.0731
 11
24.4752
 21
79.4433
  0
LINE
  8
0
 10
-5.52484
 20
79.4433
 11
-6.57014
 21
79.9702
  0
LINE
  8
0
 10
-6.57014
 20
79.9702
 11
-7.54005
 21
80.6538
  0
LINE
  8
0
 10
-7.54005
 20
80.6538
 11
-8.43452
 21
81.4939
  0
LINE
  8
0
 10
-8.43452
 20
81.4939
 11
-9.25348
 21
82.4905
  0
LINE
  8
0
 10
-9.25348
 20
82.4905
 11
-9.99706
 21
83.6438
  0
LINE
  8
0
 10
-9.99706
 20
83.6438
 11
-10.6651
 21
84.9536
  0
LINE
  8
0
 10
-10.6651
 20
84.9536
 11
-11.2578
 21
86.42
  0
LINE
  8
0
 10
-11.2578
 20
86.42
 11
-11.775
 21
88.043
  0
LINE
  8
0
 10
-11.775
 20
88.043
 11
-12.2167
 21
89.8226
  0
LINE
  8
0
 10
-12.2167
 20
89.8226
 11
-12.583
 21
91.7588
  0
LINE
  8
0
 10
-12.583
 20
91.7588
 11
-12.8739
 21
93.8514
  0
LINE
  8
0
 10
-12.8739
 20
93.8514
 11
-12.1146
 21
97.0052
  0
LINE
  8
0
 10
-12.1146
 20
97.0052
 11
-11.5238
 21
94.9386
  0
LINE
  8
0
 10
-11.5238
 20
94.9386
 11
-10.8995
 21
93.079
  0
LINE
  8
0
 10
-10.8995
 20
93.079
 11
-10.2419
 21
91.4272
  0
LINE
  8
0
 10
-10.2419
 20
91.4272
 11
-9.5511
 21
89.9831
  0
LINE
  8
0
 10
-9.5511
 20
89.9831
 11
-8.82701
 21
88.7467
  0
LINE
  8
0
 10
-8.82701
 20
88.7467
 11
-8.06964
 21
87.7179
  0
LINE
  8
0
 10
-8.06964
 20
87.7179
 11
-7.27901
 21
86.8969
  0
LINE
  8
0
 10
-7.27901
 20
86.8969
 11
-6.45511
 21
86.2835
  0
LINE
  8
0
 10
-6.45511
 20
86.2835
 11
-5.59795
 21
85.8779
  0
LINE
  8
0
 10
-5.59795
 20
85.8779
 11
-4.70752
 21
85.6799
  0
LINE
  8
0
 10
-4.70752
 20
85.6799
 11
-3.78383
 21
85.6896
  0
LINE
  8
0
 10
-3.78383
 20
85.6896
 11
-2.82724
 21
85.907
  0
LINE
  8
0
 10
-2.82724
 20
85.907
 11
-3.13815
 21
85.4404
  0
LINE
  8
0
 10
-3.13815
 20
85.4404
 11
-3.37062
 21
84.9743
  0
LINE
  8
0
 10
-3.37062
 20
84.9743
 11
-3.52437
 21
84.509
  0
LINE
  8
0
 10
-3.52437
 20
84.509
 11
-3.59941
 21
84.0445
  0
LINE
  8
0
 10
-3.59941
 20
84.0445
 11
-3.59578
 21
83.5808
  0
LINE
  8
0
 10
-3.59578
 20
83.5808
 11
-3.5134
 21
83.1179
  0
LINE
  8
0
 10
-3.5134
 20
83.1179
 11
-3.35236
 21
82.6559
  0
LINE
  8
0
 10
-3.35236
 20
82.6559
 11
-3.11263
 21
82.1947
  0
LINE
  8
0
 10
-3.11263
 20
82.1947
 11
-2.79416
 21
81.7342
  0
LINE
  8
0
 10
-2.79416
 20
81.7342
 11
-2.39703
 21
81.2746
  0
LINE
  8
0
 10
-2.39703
 20
81.2746
 11
-1.9212
 21
80.8158
  0
LINE
  8
0
 10
-1.9212
 20
80.8158
 11
-1.36713
 21
80.3582
  0
LINE
  8
0
 10
-1.36713
 20
80.3582
 11
-1.84279
 21
80.4473
  0
LINE
  8
0
 10
-1.84279
 20
80.4473
 11
-2.27844
 21
80.5009
  0
LINE
  8
0
 10
-2.27844
 20
80.5009
 11
-2.67357
 21
80.5187
  0
LINE
  8
0
 10
-2.67357
 20
80.5187
 11
-3.02811
 21
80.5009
  0
LINE
  8
0
 10
-3.02811
 20
80.5009
 11
-3.3421
 21
80.4473
  0
LINE
  8
0
 10
-3.3421
 20
80.4473
 11
-3.61557
 21
80.3581
  0
LINE
  8
0
 10
-3.61557
 20
80.3581
 11
-3.84842
 21
80.2331
  0
LINE
  8
0
 10
-3.84842
 20
80.2331
 11
-4.04073
 21
80.0725
  0
LINE
  8
0
 10
-4.04073
 20
80.0725
 11
-4.19244
 21
79.8761
  0
LINE
  8
0
 10
-4.19244
 20
79.8761
 11
-4.30362
 21
79.644
  0
LINE
  8
0
 10
-4.30362
 20
79.644
 11
-4.37421
 21
79.3763
  0
LINE
  8
0
 10
-4.37421
 20
79.3763
 11
-4.40421
 21
79.0731
  0
LINE
  8
0
 10
-4.40421
 20
79.0731
 11
-5.52484
 21
79.4433
  0
LINE
  8
0
 10
-25.6258
 20
79.3763
 11
-25.6964
 21
79.644
  0
LINE
  8
0
 10
-25.6964
 20
79.644
 11
-25.8075
 21
79.8761
  0
LINE
  8
0
 10
-25.8075
 20
79.8761
 11
-25.9593
 21
80.0725
  0
LINE
  8
0
 10
-25.9593
 20
80.0725
 11
-26.1516
 21
80.2331
  0
LINE
  8
0
 10
-26.1516
 20
80.2331
 11
-26.3844
 21
80.3581
  0
LINE
  8
0
 10
-26.3844
 20
80.3581
 11
-26.6579
 21
80.4473
  0
LINE
  8
0
 10
-26.6579
 20
80.4473
 11
-26.9719
 21
80.5009
  0
LINE
  8
0
 10
-26.9719
 20
80.5009
 11
-27.3264
 21
80.5187
  0
LINE
  8
0
 10
-27.3264
 20
80.5187
 11
-27.7215
 21
80.5009
  0
LINE
  8
0
 10
-27.7215
 20
80.5009
 11
-28.1572
 21
80.4473
  0
LINE
  8
0
 10
-28.1572
 20
80.4473
 11
-28.6329
 21
80.3582
  0
LINE
  8
0
 10
-28.6329
 20
80.3582
 11
-28.0788
 21
80.8158
  0
LINE
  8
0
 10
-28.0788
 20
80.8158
 11
-27.603
 21
81.2746
  0
LINE
  8
0
 10
-27.603
 20
81.2746
 11
-27.2058
 21
81.7342
  0
LINE
  8
0
 10
-27.2058
 20
81.7342
 11
-26.8874
 21
82.1946
  0
LINE
  8
0
 10
-26.8874
 20
82.1946
 11
-26.6476
 21
82.6559
  0
LINE
  8
0
 10
-26.6476
 20
82.6559
 11
-26.4866
 21
83.1179
  0
LINE
  8
0
 10
-26.4866
 20
83.1179
 11
-26.4042
 21
83.5808
  0
LINE
  8
0
 10
-26.4042
 20
83.5808
 11
-26.4006
 21
84.0445
  0
LINE
  8
0
 10
-26.4006
 20
84.0445
 11
-26.4756
 21
84.509
  0
LINE
  8
0
 10
-26.4756
 20
84.509
 11
-26.6294
 21
84.9743
  0
LINE
  8
0
 10
-26.6294
 20
84.9743
 11
-26.8618
 21
85.4404
  0
LINE
  8
0
 10
-26.8618
 20
85.4404
 11
-27.1728
 21
85.907
  0
LINE
  8
0
 10
-27.1728
 20
85.907
 11
-26.2162
 21
85.6896
  0
LINE
  8
0
 10
-26.2162
 20
85.6896
 11
-25.2925
 21
85.6799
  0
LINE
  8
0
 10
-25.2925
 20
85.6799
 11
-24.4021
 21
85.8779
  0
LINE
  8
0
 10
-24.4021
 20
85.8779
 11
-23.5449
 21
86.2835
  0
LINE
  8
0
 10
-23.5449
 20
86.2835
 11
-22.721
 21
86.8969
  0
LINE
  8
0
 10
-22.721
 20
86.8969
 11
-21.9304
 21
87.7179
  0
LINE
  8
0
 10
-21.9304
 20
87.7179
 11
-21.173
 21
88.7467
  0
LINE
  8
0
 10
-21.173
 20
88.7467
 11
-20.4489
 21
89.9831
  0
LINE
  8
0
 10
-20.4489
 20
89.9831
 11
-19.7581
 21
91.4272
  0
LINE
  8
0
 10
-19.7581
 20
91.4272
 11
-19.1005
 21
93.079
  0
LINE
  8
0
 10
-19.1005
 20
93.079
 11
-18.4762
 21
94.9386
  0
LINE
  8
0
 10
-18.4762
 20
94.9386
 11
-17.8854
 21
97.0052
  0
LINE
  8
0
 10
-17.8854
 20
97.0052
 11
-17.1261
 21
93.8514
  0
LINE
  8
0
 10
-17.1261
 20
93.8514
 11
-17.417
 21
91.7587
  0
LINE
  8
0
 10
-17.417
 20
91.7587
 11
-17.7833
 21
89.8226
  0
LINE
  8
0
 10
-17.7833
 20
89.8226
 11
-18.225
 21
88.043
  0
LINE
  8
0
 10
-18.225
 20
88.043
 11
-18.7422
 21
86.42
  0
LINE
  8
0
 10
-18.7422
 20
86.42
 11
-19.3349
 21
84.9536
  0
LINE
  8
0
 10
-19.3349
 20
84.9536
 11
-20.003
 21
83.6438
  0
LINE
  8
0
 10
-20.003
 20
83.6438
 11
-20.7465
 21
82.4905
  0
LINE
  8
0
 10
-20.7465
 20
82.4905
 11
-21.5655
 21
81.4939
  0
LINE
  8
0
 10
-21.5655
 20
81.4939
 11
-22.46
 21
80.6537
  0
LINE
  8
0
 10
-22.46
 20
80.6537
 11
-23.4299
 21
79.9702
  0
LINE
  8
0
 10
-23.4299
 20
79.9702
 11
-24.4752
 21
79.4433
  0
LINE
  8
0
 10
-24.4752
 20
79.4433
 11
-25.5958
 21
79.0731
  0
LINE
  8
0
 10
-25.5958
 20
79.0731
 11
-25.6258
 21
79.3763
  0
LINE
  8
0
 10
14.9409
 20
63.7877
 11
14.7319
 21
66.1947
  0
LINE
  8
0
 10
14.7319
 20
66.1947
 11
14.3731
 21
68.3696
  0
LINE
  8
0
 10
14.3731
 20
68.3696
 11
13.8645
 21
70.3125
  0
LINE
  8
0
 10
13.8645
 20
70.3125
 11
13.2061
 21
72.0233
  0
LINE
  8
0
 10
13.2061
 20
72.0233
 11
12.398
 21
73.502
  0
LINE
  8
0
 10
12.398
 20
73.502
 11
11.4401
 21
74.7486
  0
LINE
  8
0
 10
11.4401
 20
74.7486
 11
10.3325
 21
75.7631
  0
LINE
  8
0
 10
10.3325
 20
75.7631
 11
9.075
 21
76.5455
  0
LINE
  8
0
 10
9.075
 20
76.5455
 11
7.66782
 21
77.0958
  0
LINE
  8
0
 10
7.66782
 20
77.0958
 11
6.11082
 21
77.414
  0
LINE
  8
0
 10
6.11082
 20
77.414
 11
4.40726
 21
77.5
  0
LINE
  8
0
 10
4.40726
 20
77.5
 11
6.11079
 21
77.586
  0
LINE
  8
0
 10
6.11079
 20
77.586
 11
7.66779
 21
77.9042
  0
LINE
  8
0
 10
7.66779
 20
77.9042
 11
9.075
 21
78.4545
  0
LINE
  8
0
 10
9.075
 20
78.4545
 11
10.3325
 21
79.2369
  0
LINE
  8
0
 10
10.3325
 20
79.2369
 11
11.4401
 21
80.2514
  0
LINE
  8
0
 10
11.4401
 20
80.2514
 11
12.398
 21
81.498
  0
LINE
  8
0
 10
12.398
 20
81.498
 11
13.2061
 21
82.9767
  0
LINE
  8
0
 10
13.2061
 20
82.9767
 11
13.8645
 21
84.6875
  0
LINE
  8
0
 10
13.8645
 20
84.6875
 11
14.373
 21
86.6303
  0
LINE
  8
0
 10
14.373
 20
86.6303
 11
14.7318
 21
88.8053
  0
LINE
  8
0
 10
14.7318
 20
88.8053
 11
14.9409
 21
91.2123
  0
LINE
  8
0
 10
14.9409
 20
91.2123
 11
15
 21
93.8443
  0
LINE
  8
0
 10
15
 20
93.8443
 11
15.0591
 21
91.2123
  0
LINE
  8
0
 10
15.0591
 20
91.2123
 11
15.2681
 21
88.8053
  0
LINE
  8
0
 10
15.2681
 20
88.8053
 11
15.6269
 21
86.6303
  0
LINE
  8
0
 10
15.6269
 20
86.6303
 11
16.1355
 21
84.6875
  0
LINE
  8
0
 10
16.1355
 20
84.6875
 11
16.7939
 21
82.9767
  0
LINE
  8
0
 10
16.7939
 20
82.9767
 11
17.602
 21
81.498
  0
LINE
  8
0
 10
17.602
 20
81.498
 11
18.5599
 21
80.2514
  0
LINE
  8
0
 10
18.5599
 20
80.2514
 11
19.6675
 21
79.2369
  0
LINE
  8
0
 10
19.6675
 20
79.2369
 11
20.925
 21
78.4545
  0
LINE
  8
0
 10
20.925
 20
78.4545
 11
22.3322
 21
77.9042
  0
LINE
  8
0
 10
22.3322
 20
77.9042
 11
23.8892
 21
77.586
  0
LINE
  8
0
 10
23.8892
 20
77.586
 11
25.5927
 21
77.5
  0
LINE
  8
0
 10
25.5927
 20
77.5
 11
23.8892
 21
77.414
  0
LINE
  8
0
 10
23.8892
 20
77.414
 11
22.3322
 21
77.0958
  0
LINE
  8
0
 10
22.3322
 20
77.0958
 11
20.925
 21
76.5455
  0
LINE
  8
0
 10
20.925
 20
76.5455
 11
19.6675
 21
75.7631
  0
LINE
  8
0
 10
19.6675
 20
75.7631
 11
18.5599
 21
74.7486
  0
LINE
  8
0
 10
18.5599
 20
74.7486
 11
17.602
 21
73.502
  0
LINE
  8
0
 10
17.602
 20
73.502
 11
16.7939
 21
72.0233
  0
LINE
  8
0
 10
16.7939
 20
72.0233
 11
16.1355
 21
70.3125
  0
LINE
  8
0
 10
16.1355
 20
70.3125
 11
15.627
 21
68.3697
  0
LINE
  8
0
 10
15.627
 20
68.3697
 11
15.2682
 21
66.1947
  0
LINE
  8
0
 10
15.2682
 20
66.1947
 11
15.0591
 21
63.7877
  0
LINE
  8
0
 10
15.0591
 20
63.7877
 11
15
 21
61.1557
  0
LINE
  8
0
 10
15
 20
61.1557
 11
14.9409
 21
63.7877
  0
LINE
  8
0
 10
-15.0591
 20
63.7877
 11
-15.2681
 21
66.1947
  0
LINE
  8
0
 10
-15.2681
 20
66.1947
 11
-15.6269
 21
68.3696
  0
LINE
  8
0
 10
-15.6269
 20
68.3696
 11
-16.1355
 21
70.3125
  0
LINE
  8
0
 10
-16.1355
 20
70.3125
 11
-16.7939
 21
72.0233
  0
LINE
  8
0
 10
-16.7939
 20
72.0233
 11
-17.602
 21
73.502
  0
LINE
  8
0
 10
-17.602
 20
73.502
 11
-18.5599
 21
74.7486
  0
LINE
  8
0
 10
-18.5599
 20
74.7486
 11
-19.6675
 21
75.7631
  0
LINE
  8
0
 10
-19.6675
 20
75.7631
 11
-20.925
 21
76.5455
  0
LINE
  8
0
 10
-20.925
 20
76.5455
 11
-22.3322
 21
77.0958
  0
LINE
  8
0
 10
-22.3322
 20
77.0958
 11
-23.8892
 21
77.414
  0
LINE
  8
0
 10
-23.8892
 20
77.414
 11
-25.5927
 21
77.5
  0
LINE
  8
0
 10
-25.5927
 20
77.5
 11
-23.8892
 21
77.586
  0
LINE
  8
0
 10
-23.8892
 20
77.586
 11
-22.3322
 21
77.9042
  0
LINE
  8
0
 10
-22.3322
 20
77.9042
 11
-20.925
 21
78.4545
  0
LINE
  8
0
 10
-20.925
 20
78.4545
 11
-19.6675
 21
79.2369
  0
LINE
  8
0
 10
-19.6675
 20
79.2369
 11
-18.5599
 21
80.2514
  0
LINE
  8
0
 10
-18.5599
 20
80.2514
 11
-17.602
 21
81.498
  0
LINE
  8
0
 10
-17.602
 20
81.498
 11
-16.7939
 21
82.9767
  0
LINE
  8
0
 10
-16.7939
 20
82.9767
 11
-16.1355
 21
84.6875
  0
LINE
  8
0
 10
-16.1355
 20
84.6875
 11
-15.627
 21
86.6303
  0
LINE
  8
0
 10
-15.627
 20
86.6303
 11
-15.2682
 21
88.8053
  0
LINE
  8
0
 10
-15.2682
 20
88.8053
 11
-15.0591
 21
91.2123
  0
LINE
  8
0
 10
-15.0591
 20
91.2123
 11
-15
 21
93.8443
  0
LINE
  8
0
 10
-15
 20
93.8443
 11
-14.9409
 21
91.2123
  0
LINE
  8
0
 10
-14.9409
 20
91.2123
 11
-14.7319
 21
88.8053
  0
LINE
  8
0
 10
-14.7319
 20
88.8053
 11
-14.3731
 21
86.6303
  0
LINE
  8
0
 10
-14.3731
 20
86.6303
 11
-13.8645
 21
84.6875
  0
LINE
  8
0
 10
-13.8645
 20
84.6875
 11
-13.2061
 21
82.9767
  0
LINE
  8
0
 10
-13.2061
 20
82.9767
 11
-12.398
 21
81.498
  0
LINE
  8
0
 10
-12.398
 20
81.498
 11
-11.4401
 21
80.2514
  0
LINE
  8
0
 10
-11.4401
 20
80.2514
 11
-10.3325
 21
79.2369
  0
LINE
  8
0
 10
-10.3325
 20
79.2369
 11
-9.075
 21
78.4545
  0
LINE
  8
0
 10
-9.075
 20
78.4545
 11
-7.66782
 21
77.9042
  0
LINE
  8
0
 10
-7.66782
 20
77.9042
 11
-6.11082
 21
77.586
  0
LINE
  8
0
 10
-6.11082
 20
77.586
 11
-4.40726
 21
77.5
  0
LINE
  8
0
 10
-4.40726
 20
77.5
 11
-6.11082
 21
77.414
  0
LINE
  8
0
 10
-6.11082
 20
77.414
 11
-7.66782
 21
77.0958
  0
LINE
  8
0
 10
-7.66782
 20
77.0958
 11
-9.075
 21
76.5455
  0
LINE
  8
0
 10
-9.075
 20
76.5455
 11
-10.3325
 21
75.7631
  0
LINE
  8
0
 10
-10.3325
 20
75.7631
 11
-11.4401
 21
74.7486
  0
LINE
  8
0
 10
-11.4401
 20
74.7486
 11
-12.398
 21
73.502
  0
LINE
  8
0
 10
-12.398
 20
73.502
 11
-13.2061
 21
72.0233
  0
LINE
  8
0
 10
-13.2061
 20
72.0233
 11
-13.8645
 21
70.3125
  0
LINE
  8
0
 10
-13.8645
 20
70.3125
 11
-14.373
 21
68.3697
  0
LINE
  8
0
 10
-14.373
 20
68.3697
 11
-14.7318
 21
66.1947
  0
LINE
  8
0
 10
-14.7318
 20
66.1947
 11
-14.9409
 21
63.7877
  0
LINE
  8
0
 10
-14.9409
 20
63.7877
 11
-15
 21
61.1557
  0
LINE
  8
0
 10
-15
 20
61.1557
 11
-15.0591
 21
63.7877
  0
LINE
  8
0
 10
-35.5248
 20
79.4433
 11
-36.4227
 21
79.8959
  0
LINE
  8
0
 10
-36.4227
 20
79.8959
 11
-34.5428
 21
85.6817
  0
LINE
  8
0
 10
-34.5428
 20
85.6817
 11
-33.7838
 21
85.6896
  0
LINE
  8
0
 10
-33.7838
 20
85.6896
 11
-32.8272
 21
85.907
  0
LINE
  8
0
 10
-32.8272
 20
85.907
 11
-33.1382
 21
85.4404
  0
LINE
  8
0
 10
-33.1382
 20
85.4404
 11
-33.3706
 21
84.9743
  0
LINE
  8
0
 10
-33.3706
 20
84.9743
 11
-33.5244
 21
84.509
  0
LINE
  8
0
 10
-33.5244
 20
84.509
 11
-33.5994
 21
84.0445
  0
LINE
  8
0
 10
-33.5994
 20
84.0445
 11
-33.5958
 21
83.5808
  0
LINE
  8
0
 10
-33.5958
 20
83.5808
 11
-33.5134
 21
83.1179
  0
LINE
  8
0
 10
-33.5134
 20
83.1179
 11
-33.3524
 21
82.6559
  0
LINE
  8
0
 10
-33.3524
 20
82.6559
 11
-33.1126
 21
82.1947
  0
LINE
  8
0
 10
-33.1126
 20
82.1947
 11
-32.7942
 21
81.7342
  0
LINE
  8
0
 10
-32.7942
 20
81.7342
 11
-32.397
 21
81.2746
  0
LINE
  8
0
 10
-32.397
 20
81.2746
 11
-31.9212
 21
80.8158
  0
LINE
  8
0
 10
-31.9212
 20
80.8158
 11
-31.3671
 21
80.3582
  0
LINE
  8
0
 10
-31.3671
 20
80.3582
 11
-31.8428
 21
80.4473
  0
LINE
  8
0
 10
-31.8428
 20
80.4473
 11
-32.2784
 21
80.5009
  0
LINE
  8
0
 10
-32.2784
 20
80.5009
 11
-32.6736
 21
80.5187
  0
LINE
  8
0
 10
-32.6736
 20
80.5187
 11
-33.0281
 21
80.5009
  0
LINE
  8
0
 10
-33.0281
 20
80.5009
 11
-33.3421
 21
80.4473
  0
LINE
  8
0
 10
-33.3421
 20
80.4473
 11
-33.6156
 21
80.3581
  0
LINE
  8
0
 10
-33.6156
 20
80.3581
 11
-33.8484
 21
80.2331
  0
LINE
  8
0
 10
-33.8484
 20
80.2331
 11
-34.0407
 21
80.0725
  0
LINE
  8
0
 10
-34.0407
 20
80.0725
 11
-34.1924
 21
79.8761
  0
LINE
  8
0
 10
-34.1924
 20
79.8761
 11
-34.3036
 21
79.644
  0
LINE
  8
0
 10
-34.3036
 20
79.644
 11
-34.3742
 21
79.3763
  0
LINE
  8
0
 10
-34.3742
 20
79.3763
 11
-34.4042
 21
79.0731
  0
LINE
  8
0
 10
-34.4042
 20
79.0731
 11
-35.5248
 21
79.4433
  0
LINE
  8
0
 10
34.3742
 20
79.3763
 11
34.3036
 21
79.644
  0
LINE
  8
0
 10
34.3036
 20
79.644
 11
34.1924
 21
79.8761
  0
LINE
  8
0
 10
34.1924
 20
79.8761
 11
34.0407
 21
80.0725
  0
LINE
  8
0
 10
34.0407
 20
80.0725
 11
33.8484
 21
80.2331
  0
LINE
  8
0
 10
33.8484
 20
80.2331
 11
33.6156
 21
80.3581
  0
LINE
  8
0
 10
33.6156
 20
80.3581
 11
33.3421
 21
80.4473
  0
LINE
  8
0
 10
33.3421
 20
80.4473
 11
33.0281
 21
80.5009
  0
LINE
  8
0
 10
33.0281
 20
80.5009
 11
32.6736
 21
80.5187
  0
LINE
  8
0
 10
32.6736
 20
80.5187
 11
32.2785
 21
80.5009
  0
LINE
  8
0
 10
32.2785
 20
80.5009
 11
31.8428
 21
80.4473
  0
LINE
  8
0
 10
31.8428
 20
80.4473
 11
31.3671
 21
80.3582
  0
LINE
  8
0
 10
31.3671
 20
80.3582
 11
31.9212
 21
80.8158
  0
LINE
  8
0
 10
31.9212
 20
80.8158
 11
32.397
 21
81.2746
  0
LINE
  8
0
 10
32.397
 20
81.2746
 11
32.7942
 21
81.7342
  0
LINE
  8
0
 10
32.7942
 20
81.7342
 11
33.1126
 21
82.1946
  0
LINE
  8
0
 10
33.1126
 20
82.1946
 11
33.3524
 21
82.6559
  0
LINE
  8
0
 10
33.3524
 20
82.6559
 11
33.5134
 21
83.1179
  0
LINE
  8
0
 10
33.5134
 20
83.1179
 11
33.5958
 21
83.5808
  0
LINE
  8
0
 10
33.5958
 20
83.5808
 11
33.5994
 21
84.0445
  0
LINE
  8
0
 10
33.5994
 20
84.0445
 11
33.5244
 21
84.509
  0
LINE
  8
0
 10
33.5244
 20
84.509
 11
33.3706
 21
84.9743
  0
LINE
  8
0
 10
33.3706
 20
84.9743
 11
33.1382
 21
85.4404
  0
LINE
  8
0
 10
33.1382
 20
85.4404
 11
32.8272
 21
85.907
  0
LINE
  8
0
 10
32.8272
 20
85.907
 11
33.7838
 21
85.6896
  0
LINE
  8
0
 10
33.7838
 20
85.6896
 11
34.5428
 21
85.6817
  0
LINE
  8
0
 10
34.5428
 20
85.6817
 11
36.4227
 21
79.8959
  0
LINE
  8
0
 10
36.4227
 20
79.8959
 11
35.5248
 21
79.4433
  0
LINE
  8
0
 10
35.5248
 20
79.4433
 11
34.4042
 21
79.0731
  0
LINE
  8
0
 10
34.4042
 20
79.0731
 11
34.3742
 21
79.3763
  0
LINE
  8
0
 10
-37.1071
 20
77.7896
 11
-36.1108
 21
77.586
  0
LINE
  8
0
 10
-36.1108
 20
77.586
 11
-34.4073
 21
77.5
  0
LINE
  8
0
 10
-34.4073
 20
77.5
 11
-36.1108
 21
77.414
  0
LINE
  8
0
 10
-36.1108
 20
77.414
 11
-37.3087
 21
77.1692
  0
LINE
  8
0
 10
-37.3087
 20
77.1692
 11
-37.1071
 21
77.7896
  0
LINE
  8
0
 10
36.1108
 20
77.414
 11
34.4073
 21
77.5
  0
LINE
  8
0
 10
34.4073
 20
77.5
 11
36.1108
 21
77.586
  0
LINE
  8
0
 10
36.1108
 20
77.586
 11
37.1071
 21
77.7896
  0
LINE
  8
0
 10
37.1071
 20
77.7896
 11
37.3087
 21
77.1692
  0
LINE
  8
0
 10
37.3087
 20
77.1692
 11
36.1108
 21
77.414
  0
LINE
  8
0
 10
-42.7207
 20
60.5125
 11
-38.541
 21
73.3766
  0
LINE
  8
0
 10
-38.541
 20
73.3766
 11
-38.4345
 21
73.5061
  0
LINE
  8
0
 10
-38.4345
 20
73.5061
 11
-37.5401
 21
74.3462
  0
LINE
  8
0
 10
-37.5401
 20
74.3462
 11
-36.5701
 21
75.0297
  0
LINE
  8
0
 10
-36.5701
 20
75.0297
 11
-35.5248
 21
75.5567
  0
LINE
  8
0
 10
-35.5248
 20
75.5567
 11
-34.4042
 21
75.9269
  0
LINE
  8
0
 10
-34.4042
 20
75.9269
 11
-34.3742
 21
75.6237
  0
LINE
  8
0
 10
-34.3742
 20
75.6237
 11
-34.3036
 21
75.3559
  0
LINE
  8
0
 10
-34.3036
 20
75.3559
 11
-34.1924
 21
75.1239
  0
LINE
  8
0
 10
-34.1924
 20
75.1239
 11
-34.0407
 21
74.9275
  0
LINE
  8
0
 10
-34.0407
 20
74.9275
 11
-33.8484
 21
74.7669
  0
LINE
  8
0
 10
-33.8484
 20
74.7669
 11
-33.6156
 21
74.6419
  0
LINE
  8
0
 10
-33.6156
 20
74.6419
 11
-33.3421
 21
74.5527
  0
LINE
  8
0
 10
-33.3421
 20
74.5527
 11
-33.0281
 21
74.4991
  0
LINE
  8
0
 10
-33.0281
 20
74.4991
 11
-32.6736
 21
74.4812
  0
LINE
  8
0
 10
-32.6736
 20
74.4812
 11
-32.2785
 21
74.4991
  0
LINE
  8
0
 10
-32.2785
 20
74.4991
 11
-31.8428
 21
74.5527
  0
LINE
  8
0
 10
-31.8428
 20
74.5527
 11
-31.3671
 21
74.6418
  0
LINE
  8
0
 10
-31.3671
 20
74.6418
 11
-31.9212
 21
74.1842
  0
LINE
  8
0
 10
-31.9212
 20
74.1842
 11
-32.397
 21
73.7254
  0
LINE
  8
0
 10
-32.397
 20
73.7254
 11
-32.7942
 21
73.2658
  0
LINE
  8
0
 10
-32.7942
 20
73.2658
 11
-33.1126
 21
72.8054
  0
LINE
  8
0
 10
-33.1126
 20
72.8054
 11
-33.3524
 21
72.3441
  0
LINE
  8
0
 10
-33.3524
 20
72.3441
 11
-33.5134
 21
71.8821
  0
LINE
  8
0
 10
-33.5134
 20
71.8821
 11
-33.5958
 21
71.4192
  0
LINE
  8
0
 10
-33.5958
 20
71.4192
 11
-33.5994
 21
70.9555
  0
LINE
  8
0
 10
-33.5994
 20
70.9555
 11
-33.5244
 21
70.491
  0
LINE
  8
0
 10
-33.5244
 20
70.491
 11
-33.3706
 21
70.0257
  0
LINE
  8
0
 10
-33.3706
 20
70.0257
 11
-33.1382
 21
69.5596
  0
LINE
  8
0
 10
-33.1382
 20
69.5596
 11
-32.8272
 21
69.093
  0
LINE
  8
0
 10
-32.8272
 20
69.093
 11
-33.7838
 21
69.3103
  0
LINE
  8
0
 10
-33.7838
 20
69.3103
 11
-34.7075
 21
69.3201
  0
LINE
  8
0
 10
-34.7075
 20
69.3201
 11
-35.5979
 21
69.1221
  0
LINE
  8
0
 10
-35.5979
 20
69.1221
 11
-36.4551
 21
68.7165
  0
LINE
  8
0
 10
-36.4551
 20
68.7165
 11
-37.279
 21
68.1031
  0
LINE
  8
0
 10
-37.279
 20
68.1031
 11
-38.0696
 21
67.2821
  0
LINE
  8
0
 10
-38.0696
 20
67.2821
 11
-38.827
 21
66.2533
  0
LINE
  8
0
 10
-38.827
 20
66.2533
 11
-39.5511
 21
65.0169
  0
LINE
  8
0
 10
-39.5511
 20
65.0169
 11
-40.2419
 21
63.5728
  0
LINE
  8
0
 10
-40.2419
 20
63.5728
 11
-40.8995
 21
61.921
  0
LINE
  8
0
 10
-40.8995
 20
61.921
 11
-41.5238
 21
60.0614
  0
LINE
  8
0
 10
-41.5238
 20
60.0614
 11
-42.1146
 21
57.9948
  0
LINE
  8
0
 10
-42.1146
 20
57.9948
 11
-42.7207
 21
60.5125
  0
LINE
  8
0
 10
-12.8739
 20
61.1486
 11
-12.583
 21
63.2413
  0
LINE
  8
0
 10
-12.583
 20
63.2413
 11
-12.2167
 21
65.1774
  0
LINE
  8
0
 10
-12.2167
 20
65.1774
 11
-11.775
 21
66.957
  0
LINE
  8
0
 10
-11.775
 20
66.957
 11
-11.2578
 21
68.58
  0
LINE
  8
0
 10
-11.2578
 20
68.58
 11
-10.6651
 21
70.0464
  0
LINE
  8
0
 10
-10.6651
 20
70.0464
 11
-9.99702
 21
71.3562
  0
LINE
  8
0
 10
-9.99702
 20
71.3562
 11
-9.25348
 21
72.5095
  0
LINE
  8
0
 10
-9.25348
 20
72.5095
 11
-8.43449
 21
73.5061
  0
LINE
  8
0
 10
-8.43449
 20
73.5061
 11
-7.54005
 21
74.3462
  0
LINE
  8
0
 10
-7.54005
 20
74.3462
 11
-6.57014
 21
75.0297
  0
LINE
  8
0
 10
-6.57014
 20
75.0297
 11
-5.52484
 21
75.5567
  0
LINE
  8
0
 10
-5.52484
 20
75.5567
 11
-4.40421
 21
75.9269
  0
LINE
  8
0
 10
-4.40421
 20
75.9269
 11
-4.37421
 21
75.6237
  0
LINE
  8
0
 10
-4.37421
 20
75.6237
 11
-4.30362
 21
75.3559
  0
LINE
  8
0
 10
-4.30362
 20
75.3559
 11
-4.19244
 21
75.1239
  0
LINE
  8
0
 10
-4.19244
 20
75.1239
 11
-4.04073
 21
74.9275
  0
LINE
  8
0
 10
-4.04073
 20
74.9275
 11
-3.84842
 21
74.7669
  0
LINE
  8
0
 10
-3.84842
 20
74.7669
 11
-3.61557
 21
74.6419
  0
LINE
  8
0
 10
-3.61557
 20
74.6419
 11
-3.34213
 21
74.5527
  0
LINE
  8
0
 10
-3.34213
 20
74.5527
 11
-3.02812
 21
74.4991
  0
LINE
  8
0
 10
-3.02812
 20
74.4991
 11
-2.67357
 21
74.4812
  0
LINE
  8
0
 10
-2.67357
 20
74.4812
 11
-2.27847
 21
74.4991
  0
LINE
  8
0
 10
-2.27847
 20
74.4991
 11
-1.84279
 21
74.5527
  0
LINE
  8
0
 10
-1.84279
 20
74.5527
 11
-1.36713
 21
74.6418
  0
LINE
  8
0
 10
-1.36713
 20
74.6418
 11
-1.92119
 21
74.1842
  0
LINE
  8
0
 10
-1.92119
 20
74.1842
 11
-2.39703
 21
73.7254
  0
LINE
  8
0
 10
-2.39703
 20
73.7254
 11
-2.79416
 21
73.2658
  0
LINE
  8
0
 10
-2.79416
 20
73.2658
 11
-3.11261
 21
72.8054
  0
LINE
  8
0
 10
-3.11261
 20
72.8054
 11
-3.35236
 21
72.3441
  0
LINE
  8
0
 10
-3.35236
 20
72.3441
 11
-3.5134
 21
71.8821
  0
LINE
  8
0
 10
-3.5134
 20
71.8821
 11
-3.59578
 21
71.4192
  0
LINE
  8
0
 10
-3.59578
 20
71.4192
 11
-3.59941
 21
70.9555
  0
LINE
  8
0
 10
-3.59941
 20
70.9555
 11
-3.52437
 21
70.491
  0
LINE
  8
0
 10
-3.52437
 20
70.491
 11
-3.37062
 21
70.0257
  0
LINE
  8
0
 10
-3.37062
 20
70.0257
 11
-3.13817
 21
69.5596
  0
LINE
  8
0
 10
-3.13817
 20
69.5596
 11
-2.82724
 21
69.093
  0
LINE
  8
0
 10
-2.82724
 20
69.093
 11
-3.78383
 21
69.3103
  0
LINE
  8
0
 10
-3.78383
 20
69.3103
 11
-4.70752
 21
69.3201
  0
LINE
  8
0
 10
-4.70752
 20
69.3201
 11
-5.59795
 21
69.1221
  0
LINE
  8
0
 10
-5.59795
 20
69.1221
 11
-6.45511
 21
68.7165
  0
LINE
  8
0
 10
-6.45511
 20
68.7165
 11
-7.27899
 21
68.1031
  0
LINE
  8
0
 10
-7.27899
 20
68.1031
 11
-8.06964
 21
67.2821
  0
LINE
  8
0
 10
-8.06964
 20
67.2821
 11
-8.82698
 21
66.2533
  0
LINE
  8
0
 10
-8.82698
 20
66.2533
 11
-9.5511
 21
65.0169
  0
LINE
  8
0
 10
-9.5511
 20
65.0169
 11
-10.2419
 21
63.5728
  0
LINE
  8
0
 10
-10.2419
 20
63.5728
 11
-10.8995
 21
61.921
  0
LINE
  8
0
 10
-10.8995
 20
61.921
 11
-11.5238
 21
60.0614
  0
LINE
  8
0
 10
-11.5238
 20
60.0614
 11
-12.1146
 21
57.9948
  0
LINE
  8
0
 10
-12.1146
 20
57.9948
 11
-12.8739
 21
61.1486
  0
LINE
  8
0
 10
11.5238
 20
60.0614
 11
10.8995
 21
61.9209
  0
LINE
  8
0
 10
10.8995
 20
61.9209
 11
10.2419
 21
63.5727
  0
LINE
  8
0
 10
10.2419
 20
63.5727
 11
9.5511
 21
65.0169
  0
LINE
  8
0
 10
9.5511
 20
65.0169
 11
8.82701
 21
66.2533
  0
LINE
  8
0
 10
8.82701
 20
66.2533
 11
8.06964
 21
67.282
  0
LINE
  8
0
 10
8.06964
 20
67.282
 11
7.27901
 21
68.1031
  0
LINE
  8
0
 10
7.27901
 20
68.1031
 11
6.45511
 21
68.7165
  0
LINE
  8
0
 10
6.45511
 20
68.7165
 11
5.59795
 21
69.1221
  0
LINE
  8
0
 10
5.59795
 20
69.1221
 11
4.70752
 21
69.3201
  0
LINE
  8
0
 10
4.70752
 20
69.3201
 11
3.78383
 21
69.3103
  0
LINE
  8
0
 10
3.78383
 20
69.3103
 11
2.82724
 21
69.093
  0
LINE
  8
0
 10
2.82724
 20
69.093
 11
3.13815
 21
69.5596
  0
LINE
  8
0
 10
3.13815
 20
69.5596
 11
3.37062
 21
70.0257
  0
LINE
  8
0
 10
3.37062
 20
70.0257
 11
3.52437
 21
70.491
  0
LINE
  8
0
 10
3.52437
 20
70.491
 11
3.59941
 21
70.9555
  0
LINE
  8
0
 10
3.59941
 20
70.9555
 11
3.59578
 21
71.4192
  0
LINE
  8
0
 10
3.59578
 20
71.4192
 11
3.5134
 21
71.8821
  0
LINE
  8
0
 10
3.5134
 20
71.8821
 11
3.35236
 21
72.3441
  0
LINE
  8
0
 10
3.35236
 20
72.3441
 11
3.11263
 21
72.8053
  0
LINE
  8
0
 10
3.11263
 20
72.8053
 11
2.79416
 21
73.2658
  0
LINE
  8
0
 10
2.79416
 20
73.2658
 11
2.39703
 21
73.7254
  0
LINE
  8
0
 10
2.39703
 20
73.7254
 11
1.9212
 21
74.1842
  0
LINE
  8
0
 10
1.9212
 20
74.1842
 11
1.36713
 21
74.6418
  0
LINE
  8
0
 10
1.36713
 20
74.6418
 11
1.84279
 21
74.5527
  0
LINE
  8
0
 10
1.84279
 20
74.5527
 11
2.27844
 21
74.4991
  0
LINE
  8
0
 10
2.27844
 20
74.4991
 11
2.67357
 21
74.4812
  0
LINE
  8
0
 10
2.67357
 20
74.4812
 11
3.02811
 21
74.4991
  0
LINE
  8
0
 10
3.02811
 20
74.4991
 11
3.3421
 21
74.5527
  0
LINE
  8
0
 10
3.3421
 20
74.5527
 11
3.61557
 21
74.6419
  0
LINE
  8
0
 10
3.61557
 20
74.6419
 11
3.84842
 21
74.7669
  0
LINE
  8
0
 10
3.84842
 20
74.7669
 11
4.04073
 21
74.9275
  0
LINE
  8
0
 10
4.04073
 20
74.9275
 11
4.19244
 21
75.1239
  0
LINE
  8
0
 10
4.19244
 20
75.1239
 11
4.30362
 21
75.3559
  0
LINE
  8
0
 10
4.30362
 20
75.3559
 11
4.37421
 21
75.6237
  0
LINE
  8
0
 10
4.37421
 20
75.6237
 11
4.40421
 21
75.9269
  0
LINE
  8
0
 10
4.40421
 20
75.9269
 11
5.52484
 21
75.5567
  0
LINE
  8
0
 10
5.52484
 20
75.5567
 11
6.57014
 21
75.0297
  0
LINE
  8
0
 10
6.57014
 20
75.0297
 11
7.54005
 21
74.3462
  0
LINE
  8
0
 10
7.54005
 20
74.3462
 11
8.43452
 21
73.5061
  0
LINE
  8
0
 10
8.43452
 20
73.5061
 11
9.25348
 21
72.5095
  0
LINE
  8
0
 10
9.25348
 20
72.5095
 11
9.99706
 21
71.3562
  0
LINE
  8
0
 10
9.99706
 20
71.3562
 11
10.6651
 21
70.0464
  0
LINE
  8
0
 10
10.6651
 20
70.0464
 11
11.2578
 21
68.58
  0
LINE
  8
0
 10
11.2578
 20
68.58
 11
11.775
 21
66.957
  0
LINE
  8
0
 10
11.775
 20
66.957
 11
12.2167
 21
65.1774
  0
LINE
  8
0
 10
12.2167
 20
65.1774
 11
12.583
 21
63.2412
  0
LINE
  8
0
 10
12.583
 20
63.2412
 11
12.8739
 21
61.1486
  0
LINE
  8
0
 10
12.8739
 20
61.1486
 11
12.1146
 21
57.9948
  0
LINE
  8
0
 10
12.1146
 20
57.9948
 11
11.5238
 21
60.0614
  0
LINE
  8
0
 10
17.1261
 20
61.1486
 11
17.417
 21
63.2413
  0
LINE
  8
0
 10
17.417
 20
63.2413
 11
17.7833
 21
65.1774
  0
LINE
  8
0
 10
17.7833
 20
65.1774
 11
18.225
 21
66.957
  0
LINE
  8
0
 10
18.225
 20
66.957
 11
18.7422
 21
68.58
  0
LINE
  8
0
 10
18.7422
 20
68.58
 11
19.3349
 21
70.0464
  0
LINE
  8
0
 10
19.3349
 20
70.0464
 11
20.003
 21
71.3562
  0
LINE
  8
0
 10
20.003
 20
71.3562
 11
20.7465
 21
72.5095
  0
LINE
  8
0
 10
20.7465
 20
72.5095
 11
21.5655
 21
73.5061
  0
LINE
  8
0
 10
21.5655
 20
73.5061
 11
22.4599
 21
74.3462
  0
LINE
  8
0
 10
22.4599
 20
74.3462
 11
23.4299
 21
75.0297
  0
LINE
  8
0
 10
23.4299
 20
75.0297
 11
24.4752
 21
75.5567
  0
LINE
  8
0
 10
24.4752
 20
75.5567
 11
25.5958
 21
75.9269
  0
LINE
  8
0
 10
25.5958
 20
75.9269
 11
25.6258
 21
75.6237
  0
LINE
  8
0
 10
25.6258
 20
75.6237
 11
25.6964
 21
75.3559
  0
LINE
  8
0
 10
25.6964
 20
75.3559
 11
25.8075
 21
75.1239
  0
LINE
  8
0
 10
25.8075
 20
75.1239
 11
25.9593
 21
74.9275
  0
LINE
  8
0
 10
25.9593
 20
74.9275
 11
26.1516
 21
74.7669
  0
LINE
  8
0
 10
26.1516
 20
74.7669
 11
26.3844
 21
74.6419
  0
LINE
  8
0
 10
26.3844
 20
74.6419
 11
26.6579
 21
74.5527
  0
LINE
  8
0
 10
26.6579
 20
74.5527
 11
26.9719
 21
74.4991
  0
LINE
  8
0
 10
26.9719
 20
74.4991
 11
27.3264
 21
74.4812
  0
LINE
  8
0
 10
27.3264
 20
74.4812
 11
27.7215
 21
74.4991
  0
LINE
  8
0
 10
27.7215
 20
74.4991
 11
28.1572
 21
74.5527
  0
LINE
  8
0
 10
28.1572
 20
74.5527
 11
28.6329
 21
74.6418
  0
LINE
  8
0
 10
28.6329
 20
74.6418
 11
28.0788
 21
74.1842
  0
LINE
  8
0
 10
28.0788
 20
74.1842
 11
27.603
 21
73.7254
  0
LINE
  8
0
 10
27.603
 20
73.7254
 11
27.2058
 21
73.2658
  0
LINE
  8
0
 10
27.2058
 20
73.2658
 11
26.8874
 21
72.8054
  0
LINE
  8
0
 10
26.8874
 20
72.8054
 11
26.6476
 21
72.3441
  0
LINE
  8
0
 10
26.6476
 20
72.3441
 11
26.4866
 21
71.8821
  0
LINE
  8
0
 10
26.4866
 20
71.8821
 11
26.4042
 21
71.4192
  0
LINE
  8
0
 10
26.4042
 20
71.4192
 11
26.4006
 21
70.9555
  0
LINE
  8
0
 10
26.4006
 20
70.9555
 11
26.4756
 21
70.491
  0
LINE
  8
0
 10
26.4756
 20
70.491
 11
26.6294
 21
70.0257
  0
LINE
  8
0
 10
26.6294
 20
70.0257
 11
26.8618
 21
69.5596
  0
LINE
  8
0
 10
26.8618
 20
69.5596
 11
27.1728
 21
69.093
  0
LINE
  8
0
 10
27.1728
 20
69.093
 11
26.2162
 21
69.3103
  0
LINE
  8
0
 10
26.2162
 20
69.3103
 11
25.2925
 21
69.3201
  0
LINE
  8
0
 10
25.2925
 20
69.3201
 11
24.4021
 21
69.1221
  0
LINE
  8
0
 10
24.4021
 20
69.1221
 11
23.5449
 21
68.7165
  0
LINE
  8
0
 10
23.5449
 20
68.7165
 11
22.721
 21
68.1031
  0
LINE
  8
0
 10
22.721
 20
68.1031
 11
21.9304
 21
67.2821
  0
LINE
  8
0
 10
21.9304
 20
67.2821
 11
21.173
 21
66.2533
  0
LINE
  8
0
 10
21.173
 20
66.2533
 11
20.4489
 21
65.0169
  0
LINE
  8
0
 10
20.4489
 20
65.0169
 11
19.7581
 21
63.5728
  0
LINE
  8
0
 10
19.7581
 20
63.5728
 11
19.1005
 21
61.921
  0
LINE
  8
0
 10
19.1005
 20
61.921
 11
18.4762
 21
60.0614
  0
LINE
  8
0
 10
18.4762
 20
60.0614
 11
17.8854
 21
57.9948
  0
LINE
  8
0
 10
17.8854
 20
57.9948
 11
17.1261
 21
61.1486
  0
LINE
  8
0
 10
41.5238
 20
60.0614
 11
40.8995
 21
61.9209
  0
LINE
  8
0
 10
40.8995
 20
61.9209
 11
40.2419
 21
63.5727
  0
LINE
  8
0
 10
40.2419
 20
63.5727
 11
39.5511
 21
65.0169
  0
LINE
  8
0
 10
39.5511
 20
65.0169
 11
38.827
 21
66.2533
  0
LINE
  8
0
 10
38.827
 20
66.2533
 11
38.0696
 21
67.282
  0
LINE
  8
0
 10
38.0696
 20
67.282
 11
37.279
 21
68.1031
  0
LINE
  8
0
 10
37.279
 20
68.1031
 11
36.4551
 21
68.7165
  0
LINE
  8
0
 10
36.4551
 20
68.7165
 11
35.5979
 21
69.1221
  0
LINE
  8
0
 10
35.5979
 20
69.1221
 11
34.7075
 21
69.3201
  0
LINE
  8
0
 10
34.7075
 20
69.3201
 11
33.7838
 21
69.3103
  0
LINE
  8
0
 10
33.7838
 20
69.3103
 11
32.8272
 21
69.093
  0
LINE
  8
0
 10
32.8272
 20
69.093
 11
33.1382
 21
69.5596
  0
LINE
  8
0
 10
33.1382
 20
69.5596
 11
33.3706
 21
70.0257
  0
LINE
  8
0
 10
33.3706
 20
70.0257
 11
33.5244
 21
70.491
  0
LINE
  8
0
 10
33.5244
 20
70.491
 11
33.5994
 21
70.9555
  0
LINE
  8
0
 10
33.5994
 20
70.9555
 11
33.5958
 21
71.4192
  0
LINE
  8
0
 10
33.5958
 20
71.4192
 11
33.5134
 21
71.8821
  0
LINE
  8
0
 10
33.5134
 20
71.8821
 11
33.3524
 21
72.3441
  0
LINE
  8
0
 10
33.3524
 20
72.3441
 11
33.1126
 21
72.8053
  0
LINE
  8
0
 10
33.1126
 20
72.8053
 11
32.7942
 21
73.2658
  0
LINE
  8
0
 10
32.7942
 20
73.2658
 11
32.397
 21
73.7254
  0
LINE
  8
0
 10
32.397
 20
73.7254
 11
31.9212
 21
74.1842
  0
LINE
  8
0
 10
31.9212
 20
74.1842
 11
31.3671
 21
74.6418
  0
LINE
  8
0
 10
31.3671
 20
74.6418
 11
31.8428
 21
74.5527
  0
LINE
  8
0
 10
31.8428
 20
74.5527
 11
32.2784
 21
74.4991
  0
LINE
  8
0
 10
32.2784
 20
74.4991
 11
32.6736
 21
74.4812
  0
LINE
  8
0
 10
32.6736
 20
74.4812
 11
33.0281
 21
74.4991
  0
LINE
  8
0
 10
33.0281
 20
74.4991
 11
33.3421
 21
74.5527
  0
LINE
  8
0
 10
33.3421
 20
74.5527
 11
33.6156
 21
74.6419
  0
LINE
  8
0
 10
33.6156
 20
74.6419
 11
33.8484
 21
74.7669
  0
LINE
  8
0
 10
33.8484
 20
74.7669
 11
34.0407
 21
74.9275
  0
LINE
  8
0
 10
34.0407
 20
74.9275
 11
34.1924
 21
75.1239
  0
LINE
  8
0
 10
34.1924
 20
75.1239
 11
34.3036
 21
75.3559
  0
LINE
  8
0
 10
34.3036
 20
75.3559
 11
34.3742
 21
75.6237
  0
LINE
  8
0
 10
34.3742
 20
75.6237
 11
34.4042
 21
75.9269
  0
LINE
  8
0
 10
34.4042
 20
75.9269
 11
35.5248
 21
75.5567
  0
LINE
  8
0
 10
35.5248
 20
75.5567
 11
36.5701
 21
75.0297
  0
LINE
  8
0
 10
36.5701
 20
75.0297
 11
37.5401
 21
74.3462
  0
LINE
  8
0
 10
37.5401
 20
74.3462
 11
38.4345
 21
73.5061
  0
LINE
  8
0
 10
38.4345
 20
73.5061
 11
38.541
 21
73.3766
  0
LINE
  8
0
 10
38.541
 20
73.3766
 11
42.7207
 21
60.5125
  0
LINE
  8
0
 10
42.7207
 20
60.5125
 11
42.1146
 21
57.9948
  0
LINE
  8
0
 10
42.1146
 20
57.9948
 11
41.5238
 21
60.0614
  0
LINE
  8
0
 10
-18.4762
 20
60.0614
 11
-19.1005
 21
61.9209
  0
LINE
  8
0
 10
-19.1005
 20
61.9209
 11
-19.7581
 21
63.5727
  0
LINE
  8
0
 10
-19.7581
 20
63.5727
 11
-20.4489
 21
65.0169
  0
LINE
  8
0
 10
-20.4489
 20
65.0169
 11
-21.173
 21
66.2533
  0
LINE
  8
0
 10
-21.173
 20
66.2533
 11
-21.9304
 21
67.282
  0
LINE
  8
0
 10
-21.9304
 20
67.282
 11
-22.721
 21
68.1031
  0
LINE
  8
0
 10
-22.721
 20
68.1031
 11
-23.5449
 21
68.7165
  0
LINE
  8
0
 10
-23.5449
 20
68.7165
 11
-24.4021
 21
69.1221
  0
LINE
  8
0
 10
-24.4021
 20
69.1221
 11
-25.2925
 21
69.3201
  0
LINE
  8
0
 10
-25.2925
 20
69.3201
 11
-26.2162
 21
69.3103
  0
LINE
  8
0
 10
-26.2162
 20
69.3103
 11
-27.1728
 21
69.093
  0
LINE
  8
0
 10
-27.1728
 20
69.093
 11
-26.8618
 21
69.5596
  0
LINE
  8
0
 10
-26.8618
 20
69.5596
 11
-26.6294
 21
70.0257
  0
LINE
  8
0
 10
-26.6294
 20
70.0257
 11
-26.4756
 21
70.491
  0
LINE
  8
0
 10
-26.4756
 20
70.491
 11
-26.4006
 21
70.9555
  0
LINE
  8
0
 10
-26.4006
 20
70.9555
 11
-26.4042
 21
71.4192
  0
LINE
  8
0
 10
-26.4042
 20
71.4192
 11
-26.4866
 21
71.8821
  0
LINE
  8
0
 10
-26.4866
 20
71.8821
 11
-26.6476
 21
72.3441
  0
LINE
  8
0
 10
-26.6476
 20
72.3441
 11
-26.8874
 21
72.8053
  0
LINE
  8
0
 10
-26.8874
 20
72.8053
 11
-27.2058
 21
73.2658
  0
LINE
  8
0
 10
-27.2058
 20
73.2658
 11
-27.603
 21
73.7254
  0
LINE
  8
0
 10
-27.603
 20
73.7254
 11
-28.0788
 21
74.1842
  0
LINE
  8
0
 10
-28.0788
 20
74.1842
 11
-28.6329
 21
74.6418
  0
LINE
  8
0
 10
-28.6329
 20
74.6418
 11
-28.1572
 21
74.5527
  0
LINE
  8
0
 10
-28.1572
 20
74.5527
 11
-27.7215
 21
74.4991
  0
LINE
  8
0
 10
-27.7215
 20
74.4991
 11
-27.3264
 21
74.4812
  0
LINE
  8
0
 10
-27.3264
 20
74.4812
 11
-26.9719
 21
74.4991
  0
LINE
  8
0
 10
-26.9719
 20
74.4991
 11
-26.6579
 21
74.5527
  0
LINE
  8
0
 10
-26.6579
 20
74.5527
 11
-26.3844
 21
74.6419
  0
LINE
  8
0
 10
-26.3844
 20
74.6419
 11
-26.1516
 21
74.7669
  0
LINE
  8
0
 10
-26.1516
 20
74.7669
 11
-25.9593
 21
74.9275
  0
LINE
  8
0
 10
-25.9593
 20
74.9275
 11
-25.8075
 21
75.1239
  0
LINE
  8
0
 10
-25.8075
 20
75.1239
 11
-25.6964
 21
75.3559
  0
LINE
  8
0
 10
-25.6964
 20
75.3559
 11
-25.6258
 21
75.6237
  0
LINE
  8
0
 10
-25.6258
 20
75.6237
 11
-25.5958
 21
75.9269
  0
LINE
  8
0
 10
-25.5958
 20
75.9269
 11
-24.4752
 21
75.5567
  0
LINE
  8
0
 10
-24.4752
 20
75.5567
 11
-23.4299
 21
75.0297
  0
LINE
  8
0
 10
-23.4299
 20
75.0297
 11
-22.4599
 21
74.3462
  0
LINE
  8
0
 10
-22.4599
 20
74.3462
 11
-21.5655
 21
73.5061
  0
LINE
  8
0
 10
-21.5655
 20
73.5061
 11
-20.7465
 21
72.5095
  0
LINE
  8
0
 10
-20.7465
 20
72.5095
 11
-20.0029
 21
71.3562
  0
LINE
  8
0
 10
-20.0029
 20
71.3562
 11
-19.3349
 21
70.0464
  0
LINE
  8
0
 10
-19.3349
 20
70.0464
 11
-18.7422
 21
68.58
  0
LINE
  8
0
 10
-18.7422
 20
68.58
 11
-18.225
 21
66.957
  0
LINE
  8
0
 10
-18.225
 20
66.957
 11
-17.7833
 21
65.1774
  0
LINE
  8
0
 10
-17.7833
 20
65.1774
 11
-17.417
 21
63.2412
  0
LINE
  8
0
 10
-17.417
 20
63.2412
 11
-17.1261
 21
61.1486
  0
LINE
  8
0
 10
-17.1261
 20
61.1486
 11
-17.8854
 21
57.9948
  0
LINE
  8
0
 10
-17.8854
 20
57.9948
 11
-18.4762
 21
60.0614
  0
LINE
  8
0
 10
28.9377
 20
44.2145
 11
27.8857
 21
44.3706
  0
LINE
  8
0
 10
27.8857
 20
44.3706
 11
26.854
 21
44.629
  0
LINE
  8
0
 10
26.854
 20
44.629
 11
25.8526
 21
44.9873
  0
LINE
  8
0
 10
25.8526
 20
44.9873
 11
24.8911
 21
45.442
  0
LINE
  8
0
 10
24.8911
 20
45.442
 11
23.9789
 21
45.9888
  0
LINE
  8
0
 10
23.9789
 20
45.9888
 11
23.1246
 21
46.6223
  0
LINE
  8
0
 10
23.1246
 20
46.6223
 11
22.3366
 21
47.3366
  0
LINE
  8
0
 10
22.3366
 20
47.3366
 11
21.6223
 21
48.1246
  0
LINE
  8
0
 10
21.6223
 20
48.1246
 11
20.9888
 21
48.9789
  0
LINE
  8
0
 10
20.9888
 20
48.9789
 11
20.442
 21
49.8911
  0
LINE
  8
0
 10
20.442
 20
49.8911
 11
19.9873
 21
50.8526
  0
LINE
  8
0
 10
19.9873
 20
50.8526
 11
19.629
 21
51.854
  0
LINE
  8
0
 10
19.629
 20
51.854
 11
19.3705
 21
52.8857
  0
LINE
  8
0
 10
19.3705
 20
52.8857
 11
19.2145
 21
53.9377
  0
LINE
  8
0
 10
19.2145
 20
53.9377
 11
19.1623
 21
55
  0
LINE
  8
0
 10
19.1623
 20
55
 11
19.2145
 21
56.0623
  0
LINE
  8
0
 10
19.2145
 20
56.0623
 11
19.3706
 21
57.1143
  0
LINE
  8
0
 10
19.3706
 20
57.1143
 11
19.629
 21
58.146
  0
LINE
  8
0
 10
19.629
 20
58.146
 11
19.9873
 21
59.1474
  0
LINE
  8
0
 10
19.9873
 20
59.1474
 11
20.442
 21
60.1088
  0
LINE
  8
0
 10
20.442
 20
60.1088
 11
20.9888
 21
61.0211
  0
LINE
  8
0
 10
20.9888
 20
61.0211
 11
21.6223
 21
61.8754
  0
LINE
  8
0
 10
21.6223
 20
61.8754
 11
22.3366
 21
62.6634
  0
LINE
  8
0
 10
22.3366
 20
62.6634
 11
23.1246
 21
63.3776
  0
LINE
  8
0
 10
23.1246
 20
63.3776
 11
23.9789
 21
64.0112
  0
LINE
  8
0
 10
23.9789
 20
64.0112
 11
24.8911
 21
64.558
  0
LINE
  8
0
 10
24.8911
 20
64.558
 11
25.8526
 21
65.0127
  0
LINE
  8
0
 10
25.8526
 20
65.0127
 11
26.854
 21
65.371
  0
LINE
  8
0
 10
26.854
 20
65.371
 11
27.8857
 21
65.6295
  0
LINE
  8
0
 10
27.8857
 20
65.6295
 11
28.9377
 21
65.7855
  0
LINE
  8
0
 10
28.9377
 20
65.7855
 11
30
 21
65.8377
  0
LINE
  8
0
 10
30
 20
65.8377
 11
31.0623
 21
65.7855
  0
LINE
  8
0
 10
31.0623
 20
65.7855
 11
32.1143
 21
65.6294
  0
LINE
  8
0
 10
32.1143
 20
65.6294
 11
33.146
 21
65.371
  0
LINE
  8
0
 10
33.146
 20
65.371
 11
34.1474
 21
65.0127
  0
LINE
  8
0
 10
34.1474
 20
65.0127
 11
35.1088
 21
64.558
  0
LINE
  8
0
 10
35.1088
 20
64.558
 11
36.0211
 21
64.0112
  0
LINE
  8
0
 10
36.0211
 20
64.0112
 11
36.8754
 21
63.3776
  0
LINE
  8
0
 10
36.8754
 20
63.3776
 11
37.6634
 21
62.6634
  0
LINE
  8
0
 10
37.6634
 20
62.6634
 11
38.3776
 21
61.8754
  0
LINE
  8
0
 10
38.3776
 20
61.8754
 11
39.0112
 21
61.0211
  0
LINE
  8
0
 10
39.0112
 20
61.0211
 11
39.558
 21
60.1088
  0
LINE
  8
0
 10
39.558
 20
60.1088
 11
40.0127
 21
59.1474
  0
LINE
  8
0
 10
40.0127
 20
59.1474
 11
40.371
 21
58.146
  0
LINE
  8
0
 10
40.371
 20
58.146
 11
40.6295
 21
57.1143
  0
LINE
  8
0
 10
40.6295
 20
57.1143
 11
40.7855
 21
56.0623
  0
LINE
  8
0
 10
40.7855
 20
56.0623
 11
40.8377
 21
55
  0
LINE
  8
0
 10
40.8377
 20
55
 11
40.7855
 21
53.9377
  0
LINE
  8
0
 10
40.7855
 20
53.9377
 11
40.6294
 21
52.8857
  0
LINE
  8
0
 10
40.6294
 20
52.8857
 11
40.371
 21
51.854
  0
LINE
  8
0
 10
40.371
 20
51.854
 11
40.0127
 21
50.8526
  0
LINE
  8
0
 10
40.0127
 20
50.8526
 11
39.558
 21
49.8911
  0
LINE
  8
0
 10
39.558
 20
49.8911
 11
39.0112
 21
48.9789
  0
LINE
  8
0
 10
39.0112
 20
48.9789
 11
38.3776
 21
48.1246
  0
LINE
  8
0
 10
38.3776
 20
48.1246
 11
37.6634
 21
47.3366
  0
LINE
  8
0
 10
37.6634
 20
47.3366
 11
36.8754
 21
46.6223
  0
LINE
  8
0
 10
36.8754
 20
46.6223
 11
36.0211
 21
45.9888
  0
LINE
  8
0
 10
36.0211
 20
45.9888
 11
35.1088
 21
45.442
  0
LINE
  8
0
 10
35.1088
 20
45.442
 11
34.1474
 21
44.9873
  0
LINE
  8
0
 10
34.1474
 20
44.9873
 11
33.146
 21
44.629
  0
LINE
  8
0
 10
33.146
 20
44.629
 11
32.1143
 21
44.3705
  0
LINE
  8
0
 10
32.1143
 20
44.3705
 11
31.0623
 21
44.2145
  0
LINE
  8
0
 10
31.0623
 20
44.2145
 11
30
 21
44.1623
  0
LINE
  8
0
 10
30
 20
44.1623
 11
28.9377
 21
44.2145
  0
LINE
  8
0
 10
-1.06229
 20
44.2145
 11
-2.11433
 21
44.3706
  0
LINE
  8
0
 10
-2.11433
 20
44.3706
 11
-3.146
 21
44.629
  0
LINE
  8
0
 10
-3.146
 20
44.629
 11
-4.14738
 21
44.9873
  0
LINE
  8
0
 10
-4.14738
 20
44.9873
 11
-5.10884
 21
45.442
  0
LINE
  8
0
 10
-5.10884
 20
45.442
 11
-6.0211
 21
45.9888
  0
LINE
  8
0
 10
-6.0211
 20
45.9888
 11
-6.87535
 21
46.6223
  0
LINE
  8
0
 10
-6.87535
 20
46.6223
 11
-7.66342
 21
47.3366
  0
LINE
  8
0
 10
-7.66342
 20
47.3366
 11
-8.37764
 21
48.1246
  0
LINE
  8
0
 10
-8.37764
 20
48.1246
 11
-9.01122
 21
48.9789
  0
LINE
  8
0
 10
-9.01122
 20
48.9789
 11
-9.55798
 21
49.8911
  0
LINE
  8
0
 10
-9.55798
 20
49.8911
 11
-10.0127
 21
50.8526
  0
LINE
  8
0
 10
-10.0127
 20
50.8526
 11
-10.371
 21
51.854
  0
LINE
  8
0
 10
-10.371
 20
51.854
 11
-10.6295
 21
52.8857
  0
LINE
  8
0
 10
-10.6295
 20
52.8857
 11
-10.7855
 21
53.9377
  0
LINE
  8
0
 10
-10.7855
 20
53.9377
 11
-10.8377
 21
55
  0
LINE
  8
0
 10
-10.8377
 20
55
 11
-10.7855
 21
56.0623
  0
LINE
  8
0
 10
-10.7855
 20
56.0623
 11
-10.6294
 21
57.1143
  0
LINE
  8
0
 10
-10.6294
 20
57.1143
 11
-10.371
 21
58.146
  0
LINE
  8
0
 10
-10.371
 20
58.146
 11
-10.0127
 21
59.1474
  0
LINE
  8
0
 10
-10.0127
 20
59.1474
 11
-9.55798
 21
60.1088
  0
LINE
  8
0
 10
-9.55798
 20
60.1088
 11
-9.01122
 21
61.0211
  0
LINE
  8
0
 10
-9.01122
 20
61.0211
 11
-8.37764
 21
61.8754
  0
LINE
  8
0
 10
-8.37764
 20
61.8754
 11
-7.66342
 21
62.6634
  0
LINE
  8
0
 10
-7.66342
 20
62.6634
 11
-6.87535
 21
63.3776
  0
LINE
  8
0
 10
-6.87535
 20
63.3776
 11
-6.0211
 21
64.0112
  0
LINE
  8
0
 10
-6.0211
 20
64.0112
 11
-5.10884
 21
64.558
  0
LINE
  8
0
 10
-5.10884
 20
64.558
 11
-4.14738
 21
65.0127
  0
LINE
  8
0
 10
-4.14738
 20
65.0127
 11
-3.146
 21
65.371
  0
LINE
  8
0
 10
-3.146
 20
65.371
 11
-2.11429
 21
65.6295
  0
LINE
  8
0
 10
-2.11429
 20
65.6295
 11
-1.06226
 21
65.7855
  0
LINE
  8
0
 10
-1.06226
 20
65.7855
 11
0
 21
65.8377
  0
LINE
  8
0
 10
0
 20
65.8377
 11
1.06229
 21
65.7855
  0
LINE
  8
0
 10
1.06229
 20
65.7855
 11
2.11433
 21
65.6294
  0
LINE
  8
0
 10
2.11433
 20
65.6294
 11
3.146
 21
65.371
  0
LINE
  8
0
 10
3.146
 20
65.371
 11
4.14738
 21
65.0127
  0
LINE
  8
0
 10
4.14738
 20
65.0127
 11
5.10884
 21
64.558
  0
LINE
  8
0
 10
5.10884
 20
64.558
 11
6.0211
 21
64.0112
  0
LINE
  8
0
 10
6.0211
 20
64.0112
 11
6.87535
 21
63.3776
  0
LINE
  8
0
 10
6.87535
 20
63.3776
 11
7.66342
 21
62.6634
  0
LINE
  8
0
 10
7.66342
 20
62.6634
 11
8.37764
 21
61.8754
  0
LINE
  8
0
 10
8.37764
 20
61.8754
 11
9.01122
 21
61.0211
  0
LINE
  8
0
 10
9.01122
 20
61.0211
 11
9.55798
 21
60.1088
  0
LINE
  8
0
 10
9.55798
 20
60.1088
 11
10.0127
 21
59.1474
  0
LINE
  8
0
 10
10.0127
 20
59.1474
 11
10.371
 21
58.146
  0
LINE
  8
0
 10
10.371
 20
58.146
 11
10.6295
 21
57.1143
  0
LINE
  8
0
 10
10.6295
 20
57.1143
 11
10.7855
 21
56.0623
  0
LINE
  8
0
 10
10.7855
 20
56.0623
 11
10.8377
 21
55
  0
LINE
  8
0
 10
10.8377
 20
55
 11
10.7855
 21
53.9377
  0
LINE
  8
0
 10
10.7855
 20
53.9377
 11
10.6294
 21
52.8857
  0
LINE
  8
0
 10
10.6294
 20
52.8857
 11
10.371
 21
51.854
  0
LINE
  8
0
 10
10.371
 20
51.854
 11
10.0127
 21
50.8526
  0
LINE
  8
0
 10
10.0127
 20
50.8526
 11
9.55798
 21
49.8911
  0
LINE
  8
0
 10
9.55798
 20
49.8911
 11
9.01118
 21
48.9789
  0
LINE
  8
0
 10
9.01118
 20
48.9789
 11
8.37764
 21
48.1246
  0
LINE
  8
0
 10
8.37764
 20
48.1246
 11
7.66339
 21
47.3366
  0
LINE
  8
0
 10
7.66339
 20
47.3366
 11
6.87535
 21
46.6223
  0
LINE
  8
0
 10
6.87535
 20
46.6223
 11
6.0211
 21
45.9888
  0
LINE
  8
0
 10
6.0211
 20
45.9888
 11
5.10884
 21
45.442
  0
LINE
  8
0
 10
5.10884
 20
45.442
 11
4.14738
 21
44.9873
  0
LINE
  8
0
 10
4.14738
 20
44.9873
 11
3.146
 21
44.629
  0
LINE
  8
0
 10
3.146
 20
44.629
 11
2.11429
 21
44.3705
  0
LINE
  8
0
 10
2.11429
 20
44.3705
 11
1.06226
 21
44.2145
  0
LINE
  8
0
 10
1.06226
 20
44.2145
 11
0
 21
44.1623
  0
LINE
  8
0
 10
0
 20
44.1623
 11
-1.06229
 21
44.2145
  0
LINE
  8
0
 10
-31.0623
 20
44.2145
 11
-32.1143
 21
44.3706
  0
LINE
  8
0
 10
-32.1143
 20
44.3706
 11
-33.146
 21
44.629
  0
LINE
  8
0
 10
-33.146
 20
44.629
 11
-34.1474
 21
44.9873
  0
LINE
  8
0
 10
-34.1474
 20
44.9873
 11
-35.1088
 21
45.442
  0
LINE
  8
0
 10
-35.1088
 20
45.442
 11
-36.0211
 21
45.9888
  0
LINE
  8
0
 10
-36.0211
 20
45.9888
 11
-36.8754
 21
46.6223
  0
LINE
  8
0
 10
-36.8754
 20
46.6223
 11
-37.6634
 21
47.3366
  0
LINE
  8
0
 10
-37.6634
 20
47.3366
 11
-38.3776
 21
48.1246
  0
LINE
  8
0
 10
-38.3776
 20
48.1246
 11
-39.0112
 21
48.9789
  0
LINE
  8
0
 10
-39.0112
 20
48.9789
 11
-39.558
 21
49.8911
  0
LINE
  8
0
 10
-39.558
 20
49.8911
 11
-40.0127
 21
50.8526
  0
LINE
  8
0
 10
-40.0127
 20
50.8526
 11
-40.371
 21
51.854
  0
LINE
  8
0
 10
-40.371
 20
51.854
 11
-40.6295
 21
52.8857
  0
LINE
  8
0
 10
-40.6295
 20
52.8857
 11
-40.7855
 21
53.9377
  0
LINE
  8
0
 10
-40.7855
 20
53.9377
 11
-40.8377
 21
55
  0
LINE
  8
0
 10
-40.8377
 20
55
 11
-40.7855
 21
56.0623
  0
LINE
  8
0
 10
-40.7855
 20
56.0623
 11
-40.6294
 21
57.1143
  0
LINE
  8
0
 10
-40.6294
 20
57.1143
 11
-40.371
 21
58.146
  0
LINE
  8
0
 10
-40.371
 20
58.146
 11
-40.0127
 21
59.1474
  0
LINE
  8
0
 10
-40.0127
 20
59.1474
 11
-39.558
 21
60.1088
  0
LINE
  8
0
 10
-39.558
 20
60.1088
 11
-39.0112
 21
61.0211
  0
LINE
  8
0
 10
-39.0112
 20
61.0211
 11
-38.3776
 21
61.8754
  0
LINE
  8
0
 10
-38.3776
 20
61.8754
 11
-37.6634
 21
62.6634
  0
LINE
  8
0
 10
-37.6634
 20
62.6634
 11
-36.8754
 21
63.3776
  0
LINE
  8
0
 10
-36.8754
 20
63.3776
 11
-36.0211
 21
64.0112
  0
LINE
  8
0
 10
-36.0211
 20
64.0112
 11
-35.1088
 21
64.558
  0
LINE
  8
0
 10
-35.1088
 20
64.558
 11
-34.1474
 21
65.0127
  0
LINE
  8
0
 10
-34.1474
 20
65.0127
 11
-33.146
 21
65.371
  0
LINE
  8
0
 10
-33.146
 20
65.371
 11
-32.1143
 21
65.6295
  0
LINE
  8
0
 10
-32.1143
 20
65.6295
 11
-31.0623
 21
65.7855
  0
LINE
  8
0
 10
-31.0623
 20
65.7855
 11
-30
 21
65.8377
  0
LINE
  8
0
 10
-30
 20
65.8377
 11
-28.9377
 21
65.7855
  0
LINE
  8
0
 10
-28.9377
 20
65.7855
 11
-27.8857
 21
65.6294
  0
LINE
  8
0
 10
-27.8857
 20
65.6294
 11
-26.854
 21
65.371
  0
LINE
  8
0
 10
-26.854
 20
65.371
 11
-25.8526
 21
65.0127
  0
LINE
  8
0
 10
-25.8526
 20
65.0127
 11
-24.8911
 21
64.558
  0
LINE
  8
0
 10
-24.8911
 20
64.558
 11
-23.9789
 21
64.0112
  0
LINE
  8
0
 10
-23.9789
 20
64.0112
 11
-23.1246
 21
63.3776
  0
LINE
  8
0
 10
-23.1246
 20
63.3776
 11
-22.3366
 21
62.6634
  0
LINE
  8
0
 10
-22.3366
 20
62.6634
 11
-21.6223
 21
61.8754
  0
LINE
  8
0
 10
-21.6223
 20
61.8754
 11
-20.9888
 21
61.0211
  0
LINE
  8
0
 10
-20.9888
 20
61.0211
 11
-20.442
 21
60.1088
  0
LINE
  8
0
 10
-20.442
 20
60.1088
 11
-19.9873
 21
59.1474
  0
LINE
  8
0
 10
-19.9873
 20
59.1474
 11
-19.629
 21
58.146
  0
LINE
  8
0
 10
-19.629
 20
58.146
 11
-19.3705
 21
57.1143
  0
LINE
  8
0
 10
-19.3705
 20
57.1143
 11
-19.2145
 21
56.0623
  0
LINE
  8
0
 10
-19.2145
 20
56.0623
 11
-19.1623
 21
55
  0
LINE
  8
0
 10
-19.1623
 20
55
 11
-19.2145
 21
53.9377
  0
LINE
  8
0
 10
-19.2145
 20
53.9377
 11
-19.3706
 21
52.8857
  0
LINE
  8
0
 10
-19.3706
 20
52.8857
 11
-19.629
 21
51.854
  0
LINE
  8
0
 10
-19.629
 20
51.854
 11
-19.9873
 21
50.8526
  0
LINE
  8
0
 10
-19.9873
 20
50.8526
 11
-20.442
 21
49.8911
  0
LINE
  8
0
 10
-20.442
 20
49.8911
 11
-20.9888
 21
48.9789
  0
LINE
  8
0
 10
-20.9888
 20
48.9789
 11
-21.6223
 21
48.1246
  0
LINE
  8
0
 10
-21.6223
 20
48.1246
 11
-22.3366
 21
47.3366
  0
LINE
  8
0
 10
-22.3366
 20
47.3366
 11
-23.1246
 21
46.6223
  0
LINE
  8
0
 10
-23.1246
 20
46.6223
 11
-23.9789
 21
45.9888
  0
LINE
  8
0
 10
-23.9789
 20
45.9888
 11
-24.8911
 21
45.442
  0
LINE
  8
0
 10
-24.8911
 20
45.442
 11
-25.8526
 21
44.9873
  0
LINE
  8
0
 10
-25.8526
 20
44.9873
 11
-26.854
 21
44.629
  0
LINE
  8
0
 10
-26.854
 20
44.629
 11
-27.8857
 21
44.3705
  0
LINE
  8
0
 10
-27.8857
 20
44.3705
 11
-28.9377
 21
44.2145
  0
LINE
  8
0
 10
-28.9377
 20
44.2145
 11
-30
 21
44.1623
  0
LINE
  8
0
 10
-30
 20
44.1623
 11
-31.0623
 21
44.2145
  0
LINE
  8
0
 10
-5.52484
 20
34.4433
 11
-6.57014
 21
34.9702
  0
LINE
  8
0
 10
-6.57014
 20
34.9702
 11
-7.54005
 21
35.6538
  0
LINE
  8
0
 10
-7.54005
 20
35.6538
 11
-8.43452
 21
36.4939
  0
LINE
  8
0
 10
-8.43452
 20
36.4939
 11
-9.25348
 21
37.4905
  0
LINE
  8
0
 10
-9.25348
 20
37.4905
 11
-9.99706
 21
38.6438
  0
LINE
  8
0
 10
-9.99706
 20
38.6438
 11
-10.6651
 21
39.9536
  0
LINE
  8
0
 10
-10.6651
 20
39.9536
 11
-11.2578
 21
41.42
  0
LINE
  8
0
 10
-11.2578
 20
41.42
 11
-11.775
 21
43.043
  0
LINE
  8
0
 10
-11.775
 20
43.043
 11
-12.2167
 21
44.8226
  0
LINE
  8
0
 10
-12.2167
 20
44.8226
 11
-12.583
 21
46.7588
  0
LINE
  8
0
 10
-12.583
 20
46.7588
 11
-12.8739
 21
48.8514
  0
LINE
  8
0
 10
-12.8739
 20
48.8514
 11
-12.1146
 21
52.0052
  0
LINE
  8
0
 10
-12.1146
 20
52.0052
 11
-11.5238
 21
49.9386
  0
LINE
  8
0
 10
-11.5238
 20
49.9386
 11
-10.8995
 21
48.079
  0
LINE
  8
0
 10
-10.8995
 20
48.079
 11
-10.2419
 21
46.4272
  0
LINE
  8
0
 10
-10.2419
 20
46.4272
 11
-9.5511
 21
44.9831
  0
LINE
  8
0
 10
-9.5511
 20
44.9831
 11
-8.82701
 21
43.7467
  0
LINE
  8
0
 10
-8.82701
 20
43.7467
 11
-8.06964
 21
42.7179
  0
LINE
  8
0
 10
-8.06964
 20
42.7179
 11
-7.27901
 21
41.8969
  0
LINE
  8
0
 10
-7.27901
 20
41.8969
 11
-6.45511
 21
41.2835
  0
LINE
  8
0
 10
-6.45511
 20
41.2835
 11
-5.59795
 21
40.8779
  0
LINE
  8
0
 10
-5.59795
 20
40.8779
 11
-4.70752
 21
40.6799
  0
LINE
  8
0
 10
-4.70752
 20
40.6799
 11
-3.78383
 21
40.6896
  0
LINE
  8
0
 10
-3.78383
 20
40.6896
 11
-2.82724
 21
40.907
  0
LINE
  8
0
 10
-2.82724
 20
40.907
 11
-3.13815
 21
40.4404
  0
LINE
  8
0
 10
-3.13815
 20
40.4404
 11
-3.37062
 21
39.9743
  0
LINE
  8
0
 10
-3.37062
 20
39.9743
 11
-3.52437
 21
39.509
  0
LINE
  8
0
 10
-3.52437
 20
39.509
 11
-3.59941
 21
39.0445
  0
LINE
  8
0
 10
-3.59941
 20
39.0445
 11
-3.59578
 21
38.5808
  0
LINE
  8
0
 10
-3.59578
 20
38.5808
 11
-3.5134
 21
38.1179
  0
LINE
  8
0
 10
-3.5134
 20
38.1179
 11
-3.35236
 21
37.6559
  0
LINE
  8
0
 10
-3.35236
 20
37.6559
 11
-3.11263
 21
37.1947
  0
LINE
  8
0
 10
-3.11263
 20
37.1947
 11
-2.79416
 21
36.7342
  0
LINE
  8
0
 10
-2.79416
 20
36.7342
 11
-2.39703
 21
36.2746
  0
LINE
  8
0
 10
-2.39703
 20
36.2746
 11
-1.9212
 21
35.8158
  0
LINE
  8
0
 10
-1.9212
 20
35.8158
 11
-1.36713
 21
35.3582
  0
LINE
  8
0
 10
-1.36713
 20
35.3582
 11
-1.84279
 21
35.4473
  0
LINE
  8
0
 10
-1.84279
 20
35.4473
 11
-2.27844
 21
35.5009
  0
LINE
  8
0
 10
-2.27844
 20
35.5009
 11
-2.67357
 21
35.5187
  0
LINE
  8
0
 10
-2.67357
 20
35.5187
 11
-3.02811
 21
35.5009
  0
LINE
  8
0
 10
-3.02811
 20
35.5009
 11
-3.3421
 21
35.4473
  0
LINE
  8
0
 10
-3.3421
 20
35.4473
 11
-3.61557
 21
35.3581
  0
LINE
  8
0
 10
-3.61557
 20
35.3581
 11
-3.84842
 21
35.2331
  0
LINE
  8
0
 10
-3.84842
 20
35.2331
 11
-4.04073
 21
35.0725
  0
LINE
  8
0
 10
-4.04073
 20
35.0725
 11
-4.19244
 21
34.8761
  0
LINE
  8
0
 10
-4.19244
 20
34.8761
 11
-4.30362
 21
34.644
  0
LINE
  8
0
 10
-4.30362
 20
34.644
 11
-4.37421
 21
34.3763
  0
LINE
  8
0
 10
-4.37421
 20
34.3763
 11
-4.40421
 21
34.0731
  0
LINE
  8
0
 10
-4.40421
 20
34.0731
 11
-5.52484
 21
34.4433
  0
LINE
  8
0
 10
-25.6258
 20
34.3763
 11
-25.6964
 21
34.644
  0
LINE
  8
0
 10
-25.6964
 20
34.644
 11
-25.8075
 21
34.8761
  0
LINE
  8
0
 10
-25.8075
 20
34.8761
 11
-25.9593
 21
35.0725
  0
LINE
  8
0
 10
-25.9593
 20
35.0725
 11
-26.1516
 21
35.2331
  0
LINE
  8
0
 10
-26.1516
 20
35.2331
 11
-26.3844
 21
35.3581
  0
LINE
  8
0
 10
-26.3844
 20
35.3581
 11
-26.6579
 21
35.4473
  0
LINE
  8
0
 10
-26.6579
 20
35.4473
 11
-26.9719
 21
35.5009
  0
LINE
  8
0
 10
-26.9719
 20
35.5009
 11
-27.3264
 21
35.5187
  0
LINE
  8
0
 10
-27.3264
 20
35.5187
 11
-27.7215
 21
35.5009
  0
LINE
  8
0
 10
-27.7215
 20
35.5009
 11
-28.1572
 21
35.4473
  0
LINE
  8
0
 10
-28.1572
 20
35.4473
 11
-28.6329
 21
35.3582
  0
LINE
  8
0
 10
-28.6329
 20
35.3582
 11
-28.0788
 21
35.8158
  0
LINE
  8
0
 10
-28.0788
 20
35.8158
 11
-27.603
 21
36.2746
  0
LINE
  8
0
 10
-27.603
 20
36.2746
 11
-27.2058
 21
36.7342
  0
LINE
  8
0
 10
-27.2058
 20
36.7342
 11
-26.8874
 21
37.1946
  0
LINE
  8
0
 10
-26.8874
 20
37.1946
 11
-26.6476
 21
37.6559
  0
LINE
  8
0
 10
-26.6476
 20
37.6559
 11
-26.4866
 21
38.1179
  0
LINE
  8
0
 10
-26.4866
 20
38.1179
 11
-26.4042
 21
38.5808
  0
LINE
  8
0
 10
-26.4042
 20
38.5808
 11
-26.4006
 21
39.0445
  0
LINE
  8
0
 10
-26.4006
 20
39.0445
 11
-26.4756
 21
39.509
  0
LINE
  8
0
 10
-26.4756
 20
39.509
 11
-26.6294
 21
39.9743
  0
LINE
  8
0
 10
-26.6294
 20
39.9743
 11
-26.8618
 21
40.4404
  0
LINE
  8
0
 10
-26.8618
 20
40.4404
 11
-27.1728
 21
40.907
  0
LINE
  8
0
 10
-27.1728
 20
40.907
 11
-26.2162
 21
40.6896
  0
LINE
  8
0
 10
-26.2162
 20
40.6896
 11
-25.2925
 21
40.6799
  0
LINE
  8
0
 10
-25.2925
 20
40.6799
 11
-24.4021
 21
40.8779
  0
LINE
  8
0
 10
-24.4021
 20
40.8779
 11
-23.5449
 21
41.2835
  0
LINE
  8
0
 10
-23.5449
 20
41.2835
 11
-22.721
 21
41.8969
  0
LINE
  8
0
 10
-22.721
 20
41.8969
 11
-21.9304
 21
42.7179
  0
LINE
  8
0
 10
-21.9304
 20
42.7179
 11
-21.173
 21
43.7467
  0
LINE
  8
0
 10
-21.173
 20
43.7467
 11
-20.4489
 21
44.9831
  0
LINE
  8
0
 10
-20.4489
 20
44.9831
 11
-19.7581
 21
46.4272
  0
LINE
  8
0
 10
-19.7581
 20
46.4272
 11
-19.1005
 21
48.079
  0
LINE
  8
0
 10
-19.1005
 20
48.079
 11
-18.4762
 21
49.9386
  0
LINE
  8
0
 10
-18.4762
 20
49.9386
 11
-17.8854
 21
52.0052
  0
LINE
  8
0
 10
-17.8854
 20
52.0052
 11
-17.1261
 21
48.8514
  0
LINE
  8
0
 10
-17.1261
 20
48.8514
 11
-17.417
 21
46.7587
  0
LINE
  8
0
 10
-17.417
 20
46.7587
 11
-17.7833
 21
44.8226
  0
LINE
  8
0
 10
-17.7833
 20
44.8226
 11
-18.225
 21
43.043
  0
LINE
  8
0
 10
-18.225
 20
43.043
 11
-18.7422
 21
41.42
  0
LINE
  8
0
 10
-18.7422
 20
41.42
 11
-19.3349
 21
39.9536
  0
LINE
  8
0
 10
-19.3349
 20
39.9536
 11
-20.003
 21
38.6438
  0
LINE
  8
0
 10
-20.003
 20
38.6438
 11
-20.7465
 21
37.4905
  0
LINE
  8
0
 10
-20.7465
 20
37.4905
 11
-21.5655
 21
36.4939
  0
LINE
  8
0
 10
-21.5655
 20
36.4939
 11
-22.46
 21
35.6537
  0
LINE
  8
0
 10
-22.46
 20
35.6537
 11
-23.4299
 21
34.9702
  0
LINE
  8
0
 10
-23.4299
 20
34.9702
 11
-24.4752
 21
34.4433
  0
LINE
  8
0
 10
-24.4752
 20
34.4433
 11
-25.5958
 21
34.0731
  0
LINE
  8
0
 10
-25.5958
 20
34.0731
 11
-25.6258
 21
34.3763
  0
LINE
  8
0
 10
4.37421
 20
34.3763
 11
4.30362
 21
34.644
  0
LINE
  8
0
 10
4.30362
 20
34.644
 11
4.19244
 21
34.8761
  0
LINE
  8
0
 10
4.19244
 20
34.8761
 11
4.04073
 21
35.0725
  0
LINE
  8
0
 10
4.04073
 20
35.0725
 11
3.84842
 21
35.2331
  0
LINE
  8
0
 10
3.84842
 20
35.2331
 11
3.61557
 21
35.3581
  0
LINE
  8
0
 10
3.61557
 20
35.3581
 11
3.34213
 21
35.4473
  0
LINE
  8
0
 10
3.34213
 20
35.4473
 11
3.02812
 21
35.5009
  0
LINE
  8
0
 10
3.02812
 20
35.5009
 11
2.67357
 21
35.5187
  0
LINE
  8
0
 10
2.67357
 20
35.5187
 11
2.27847
 21
35.5009
  0
LINE
  8
0
 10
2.27847
 20
35.5009
 11
1.84279
 21
35.4473
  0
LINE
  8
0
 10
1.84279
 20
35.4473
 11
1.36713
 21
35.3582
  0
LINE
  8
0
 10
1.36713
 20
35.3582
 11
1.92119
 21
35.8158
  0
LINE
  8
0
 10
1.92119
 20
35.8158
 11
2.39703
 21
36.2746
  0
LINE
  8
0
 10
2.39703
 20
36.2746
 11
2.79416
 21
36.7342
  0
LINE
  8
0
 10
2.79416
 20
36.7342
 11
3.11261
 21
37.1946
  0
LINE
  8
0
 10
3.11261
 20
37.1946
 11
3.35236
 21
37.6559
  0
LINE
  8
0
 10
3.35236
 20
37.6559
 11
3.5134
 21
38.1179
  0
LINE
  8
0
 10
3.5134
 20
38.1179
 11
3.59578
 21
38.5808
  0
LINE
  8
0
 10
3.59578
 20
38.5808
 11
3.59941
 21
39.0445
  0
LINE
  8
0
 10
3.59941
 20
39.0445
 11
3.52437
 21
39.509
  0
LINE
  8
0
 10
3.52437
 20
39.509
 11
3.37062
 21
39.9743
  0
LINE
  8
0
 10
3.37062
 20
39.9743
 11
3.13817
 21
40.4404
  0
LINE
  8
0
 10
3.13817
 20
40.4404
 11
2.82724
 21
40.907
  0
LINE
  8
0
 10
2.82724
 20
40.907
 11
3.78383
 21
40.6896
  0
LINE
  8
0
 10
3.78383
 20
40.6896
 11
4.70752
 21
40.6799
  0
LINE
  8
0
 10
4.70752
 20
40.6799
 11
5.59795
 21
40.8779
  0
LINE
  8
0
 10
5.59795
 20
40.8779
 11
6.45511
 21
41.2835
  0
LINE
  8
0
 10
6.45511
 20
41.2835
 11
7.27899
 21
41.8969
  0
LINE
  8
0
 10
7.27899
 20
41.8969
 11
8.06964
 21
42.7179
  0
LINE
  8
0
 10
8.06964
 20
42.7179
 11
8.82698
 21
43.7467
  0
LINE
  8
0
 10
8.82698
 20
43.7467
 11
9.5511
 21
44.9831
  0
LINE
  8
0
 10
9.5511
 20
44.9831
 11
10.2419
 21
46.4272
  0
LINE
  8
0
 10
10.2419
 20
46.4272
 11
10.8995
 21
48.079
  0
LINE
  8
0
 10
10.8995
 20
48.079
 11
11.5238
 21
49.9386
  0
LINE
  8
0
 10
11.5238
 20
49.9386
 11
12.1146
 21
52.0052
  0
LINE
  8
0
 10
12.1146
 20
52.0052
 11
12.8739
 21
48.8514
  0
LINE
  8
0
 10
12.8739
 20
48.8514
 11
12.583
 21
46.7587
  0
LINE
  8
0
 10
12.583
 20
46.7587
 11
12.2167
 21
44.8226
  0
LINE
  8
0
 10
12.2167
 20
44.8226
 11
11.775
 21
43.043
  0
LINE
  8
0
 10
11.775
 20
43.043
 11
11.2578
 21
41.42
  0
LINE
  8
0
 10
11.2578
 20
41.42
 11
10.6651
 21
39.9536
  0
LINE
  8
0
 10
10.6651
 20
39.9536
 11
9.99702
 21
38.6438
  0
LINE
  8
0
 10
9.99702
 20
38.6438
 11
9.25346
 21
37.4905
  0
LINE
  8
0
 10
9.25346
 20
37.4905
 11
8.43449
 21
36.4939
  0
LINE
  8
0
 10
8.43449
 20
36.4939
 11
7.54002
 21
35.6537
  0
LINE
  8
0
 10
7.54002
 20
35.6537
 11
6.57014
 21
34.9702
  0
LINE
  8
0
 10
6.57014
 20
34.9702
 11
5.52484
 21
34.4433
  0
LINE
  8
0
 10
5.52484
 20
34.4433
 11
4.40421
 21
34.0731
  0
LINE
  8
0
 10
4.40421
 20
34.0731
 11
4.37421
 21
34.3763
  0
LINE
  8
0
 10
-35.5248
 20
34.4433
 11
-36.5701
 21
34.9702
  0
LINE
  8
0
 10
-36.5701
 20
34.9702
 11
-37.5401
 21
35.6538
  0
LINE
  8
0
 10
-37.5401
 20
35.6538
 11
-38.4345
 21
36.4939
  0
LINE
  8
0
 10
-38.4345
 20
36.4939
 11
-39.2535
 21
37.4905
  0
LINE
  8
0
 10
-39.2535
 20
37.4905
 11
-39.9971
 21
38.6438
  0
LINE
  8
0
 10
-39.9971
 20
38.6438
 11
-40.6651
 21
39.9536
  0
LINE
  8
0
 10
-40.6651
 20
39.9536
 11
-41.2578
 21
41.42
  0
LINE
  8
0
 10
-41.2578
 20
41.42
 11
-41.775
 21
43.043
  0
LINE
  8
0
 10
-41.775
 20
43.043
 11
-42.2167
 21
44.8226
  0
LINE
  8
0
 10
-42.2167
 20
44.8226
 11
-42.583
 21
46.7588
  0
LINE
  8
0
 10
-42.583
 20
46.7588
 11
-42.8739
 21
48.8514
  0
LINE
  8
0
 10
-42.8739
 20
48.8514
 11
-42.1146
 21
52.0052
  0
LINE
  8
0
 10
-42.1146
 20
52.0052
 11
-41.5238
 21
49.9386
  0
LINE
  8
0
 10
-41.5238
 20
49.9386
 11
-40.8995
 21
48.079
  0
LINE
  8
0
 10
-40.8995
 20
48.079
 11
-40.2419
 21
46.4272
  0
LINE
  8
0
 10
-40.2419
 20
46.4272
 11
-39.5511
 21
44.9831
  0
LINE
  8
0
 10
-39.5511
 20
44.9831
 11
-38.827
 21
43.7467
  0
LINE
  8
0
 10
-38.827
 20
43.7467
 11
-38.0696
 21
42.7179
  0
LINE
  8
0
 10
-38.0696
 20
42.7179
 11
-37.279
 21
41.8969
  0
LINE
  8
0
 10
-37.279
 20
41.8969
 11
-36.4551
 21
41.2835
  0
LINE
  8
0
 10
-36.4551
 20
41.2835
 11
-35.5979
 21
40.8779
  0
LINE
  8
0
 10
-35.5979
 20
40.8779
 11
-34.7075
 21
40.6799
  0
LINE
  8
0
 10
-34.7075
 20
40.6799
 11
-33.7838
 21
40.6896
  0
LINE
  8
0
 10
-33.7838
 20
40.6896
 11
-32.8272
 21
40.907
  0
LINE
  8
0
 10
-32.8272
 20
40.907
 11
-33.1382
 21
40.4404
  0
LINE
  8
0
 10
-33.1382
 20
40.4404
 11
-33.3706
 21
39.9743
  0
LINE
  8
0
 10
-33.3706
 20
39.9743
 11
-33.5244
 21
39.509
  0
LINE
  8
0
 10
-33.5244
 20
39.509
 11
-33.5994
 21
39.0445
  0
LINE
  8
0
 10
-33.5994
 20
39.0445
 11
-33.5958
 21
38.5808
  0
LINE
  8
0
 10
-33.5958
 20
38.5808
 11
-33.5134
 21
38.1179
  0
LINE
  8
0
 10
-33.5134
 20
38.1179
 11
-33.3524
 21
37.6559
  0
LINE
  8
0
 10
-33.3524
 20
37.6559
 11
-33.1126
 21
37.1947
  0
LINE
  8
0
 10
-33.1126
 20
37.1947
 11
-32.7942
 21
36.7342
  0
LINE
  8
0
 10
-32.7942
 20
36.7342
 11
-32.397
 21
36.2746
  0
LINE
  8
0
 10
-32.397
 20
36.2746
 11
-31.9212
 21
35.8158
  0
LINE
  8
0
 10
-31.9212
 20
35.8158
 11
-31.3671
 21
35.3582
  0
LINE
  8
0
 10
-31.3671
 20
35.3582
 11
-31.8428
 21
35.4473
  0
LINE
  8
0
 10
-31.8428
 20
35.4473
 11
-32.2784
 21
35.5009
  0
LINE
  8
0
 10
-32.2784
 20
35.5009
 11
-32.6736
 21
35.5187
  0
LINE
  8
0
 10
-32.6736
 20
35.5187
 11
-33.0281
 21
35.5009
  0
LINE
  8
0
 10
-33.0281
 20
35.5009
 11
-33.3421
 21
35.4473
  0
LINE
  8
0
 10
-33.3421
 20
35.4473
 11
-33.6156
 21
35.3581
  0
LINE
  8
0
 10
-33.6156
 20
35.3581
 11
-33.8484
 21
35.2331
  0
LINE
  8
0
 10
-33.8484
 20
35.2331
 11
-34.0407
 21
35.0725
  0
LINE
  8
0
 10
-34.0407
 20
35.0725
 11
-34.1924
 21
34.8761
  0
LINE
  8
0
 10
-34.1924
 20
34.8761
 11
-34.3036
 21
34.644
  0
LINE
  8
0
 10
-34.3036
 20
34.644
 11
-34.3742
 21
34.3763
  0
LINE
  8
0
 10
-34.3742
 20
34.3763
 11
-34.4042
 21
34.0731
  0
LINE
  8
0
 10
-34.4042
 20
34.0731
 11
-35.5248
 21
34.4433
  0
LINE
  8
0
 10
34.3742
 20
34.3763
 11
34.3036
 21
34.644
  0
LINE
  8
0
 10
34.3036
 20
34.644
 11
34.1924
 21
34.8761
  0
LINE
  8
0
 10
34.1924
 20
34.8761
 11
34.0407
 21
35.0725
  0
LINE
  8
0
 10
34.0407
 20
35.0725
 11
33.8484
 21
35.2331
  0
LINE
  8
0
 10
33.8484
 20
35.2331
 11
33.6156
 21
35.3581
  0
LINE
  8
0
 10
33.6156
 20
35.3581
 11
33.3421
 21
35.4473
  0
LINE
  8
0
 10
33.3421
 20
35.4473
 11
33.0281
 21
35.5009
  0
LINE
  8
0
 10
33.0281
 20
35.5009
 11
32.6736
 21
35.5187
  0
LINE
  8
0
 10
32.6736
 20
35.5187
 11
32.2785
 21
35.5009
  0
LINE
  8
0
 10
32.2785
 20
35.5009
 11
31.8428
 21
35.4473
  0
LINE
  8
0
 10
31.8428
 20
35.4473
 11
31.3671
 21
35.3582
  0
LINE
  8
0
 10
31.3671
 20
35.3582
 11
31.9212
 21
35.8158
  0
LINE
  8
0
 10
31.9212
 20
35.8158
 11
32.397
 21
36.2746
  0
LINE
  8
0
 10
32.397
 20
36.2746
 11
32.7942
 21
36.7342
  0
LINE
  8
0
 10
32.7942
 20
36.7342
 11
33.1126
 21
37.1946
  0
LINE
  8
0
 10
33.1126
 20
37.1946
 11
33.3524
 21
37.6559
  0
LINE
  8
0
 10
33.3524
 20
37.6559
 11
33.5134
 21
38.1179
  0
LINE
  8
0
 10
33.5134
 20
38.1179
 11
33.5958
 21
38.5808
  0
LINE
  8
0
 10
33.5958
 20
38.5808
 11
33.5994
 21
39.0445
  0
LINE
  8
0
 10
33.5994
 20
39.0445
 11
33.5244
 21
39.509
  0
LINE
  8
0
 10
33.5244
 20
39.509
 11
33.3706
 21
39.9743
  0
LINE
  8
0
 10
33.3706
 20
39.9743
 11
33.1382
 21
40.4404
  0
LINE
  8
0
 10
33.1382
 20
40.4404
 11
32.8272
 21
40.907
  0
LINE
  8
0
 10
32.8272
 20
40.907
 11
33.7838
 21
40.6896
  0
LINE
  8
0
 10
33.7838
 20
40.6896
 11
34.7075
 21
40.6799
  0
LINE
  8
0
 10
34.7075
 20
40.6799
 11
35.5979
 21
40.8779
  0
LINE
  8
0
 10
35.5979
 20
40.8779
 11
36.4551
 21
41.2835
  0
LINE
  8
0
 10
36.4551
 20
41.2835
 11
37.279
 21
41.8969
  0
LINE
  8
0
 10
37.279
 20
41.8969
 11
38.0696
 21
42.7179
  0
LINE
  8
0
 10
38.0696
 20
42.7179
 11
38.827
 21
43.7467
  0
LINE
  8
0
 10
38.827
 20
43.7467
 11
39.5511
 21
44.9831
  0
LINE
  8
0
 10
39.5511
 20
44.9831
 11
40.2419
 21
46.4272
  0
LINE
  8
0
 10
40.2419
 20
46.4272
 11
40.8995
 21
48.079
  0
LINE
  8
0
 10
40.8995
 20
48.079
 11
41.5238
 21
49.9386
  0
LINE
  8
0
 10
41.5238
 20
49.9386
 11
42.1146
 21
52.0052
  0
LINE
  8
0
 10
42.1146
 20
52.0052
 11
42.8739
 21
48.8514
  0
LINE
  8
0
 10
42.8739
 20
48.8514
 11
42.583
 21
46.7587
  0
LINE
  8
0
 10
42.583
 20
46.7587
 11
42.2167
 21
44.8226
  0
LINE
  8
0
 10
42.2167
 20
44.8226
 11
41.775
 21
43.043
  0
LINE
  8
0
 10
41.775
 20
43.043
 11
41.2578
 21
41.42
  0
LINE
  8
0
 10
41.2578
 20
41.42
 11
40.6651
 21
39.9536
  0
LINE
  8
0
 10
40.6651
 20
39.9536
 11
39.997
 21
38.6438
  0
LINE
  8
0
 10
39.997
 20
38.6438
 11
39.2535
 21
37.4905
  0
LINE
  8
0
 10
39.2535
 20
37.4905
 11
38.4345
 21
36.4939
  0
LINE
  8
0
 10
38.4345
 20
36.4939
 11
37.54
 21
35.6537
  0
LINE
  8
0
 10
37.54
 20
35.6537
 11
36.5701
 21
34.9702
  0
LINE
  8
0
 10
36.5701
 20
34.9702
 11
35.5248
 21
34.4433
  0
LINE
  8
0
 10
35.5248
 20
34.4433
 11
34.4042
 21
34.0731
  0
LINE
  8
0
 10
34.4042
 20
34.0731
 11
34.3742
 21
34.3763
  0
LINE
  8
0
 10
24.4752
 20
34.4433
 11
23.4299
 21
34.9702
  0
LINE
  8
0
 10
23.4299
 20
34.9702
 11
22.4599
 21
35.6538
  0
LINE
  8
0
 10
22.4599
 20
35.6538
 11
21.5655
 21
36.4939
  0
LINE
  8
0
 10
21.5655
 20
36.4939
 11
20.7465
 21
37.4905
  0
LINE
  8
0
 10
20.7465
 20
37.4905
 11
20.0029
 21
38.6438
  0
LINE
  8
0
 10
20.0029
 20
38.6438
 11
19.3349
 21
39.9536
  0
LINE
  8
0
 10
19.3349
 20
39.9536
 11
18.7422
 21
41.42
  0
LINE
  8
0
 10
18.7422
 20
41.42
 11
18.225
 21
43.043
  0
LINE
  8
0
 10
18.225
 20
43.043
 11
17.7833
 21
44.8226
  0
LINE
  8
0
 10
17.7833
 20
44.8226
 11
17.417
 21
46.7588
  0
LINE
  8
0
 10
17.417
 20
46.7588
 11
17.1261
 21
48.8514
  0
LINE
  8
0
 10
17.1261
 20
48.8514
 11
17.8854
 21
52.0052
  0
LINE
  8
0
 10
17.8854
 20
52.0052
 11
18.4762
 21
49.9386
  0
LINE
  8
0
 10
18.4762
 20
49.9386
 11
19.1005
 21
48.079
  0
LINE
  8
0
 10
19.1005
 20
48.079
 11
19.7581
 21
46.4272
  0
LINE
  8
0
 10
19.7581
 20
46.4272
 11
20.4489
 21
44.9831
  0
LINE
  8
0
 10
20.4489
 20
44.9831
 11
21.173
 21
43.7467
  0
LINE
  8
0
 10
21.173
 20
43.7467
 11
21.9304
 21
42.7179
  0
LINE
  8
0
 10
21.9304
 20
42.7179
 11
22.721
 21
41.8969
  0
LINE
  8
0
 10
22.721
 20
41.8969
 11
23.5449
 21
41.2835
  0
LINE
  8
0
 10
23.5449
 20
41.2835
 11
24.4021
 21
40.8779
  0
LINE
  8
0
 10
24.4021
 20
40.8779
 11
25.2925
 21
40.6799
  0
LINE
  8
0
 10
25.2925
 20
40.6799
 11
26.2162
 21
40.6896
  0
LINE
  8
0
 10
26.2162
 20
40.6896
 11
27.1728
 21
40.907
  0
LINE
  8
0
 10
27.1728
 20
40.907
 11
26.8618
 21
40.4404
  0
LINE
  8
0
 10
26.8618
 20
40.4404
 11
26.6294
 21
39.9743
  0
LINE
  8
0
 10
26.6294
 20
39.9743
 11
26.4756
 21
39.509
  0
LINE
  8
0
 10
26.4756
 20
39.509
 11
26.4006
 21
39.0445
  0
LINE
  8
0
 10
26.4006
 20
39.0445
 11
26.4042
 21
38.5808
  0
LINE
  8
0
 10
26.4042
 20
38.5808
 11
26.4866
 21
38.1179
  0
LINE
  8
0
 10
26.4866
 20
38.1179
 11
26.6476
 21
37.6559
  0
LINE
  8
0
 10
26.6476
 20
37.6559
 11
26.8874
 21
37.1947
  0
LINE
  8
0
 10
26.8874
 20
37.1947
 11
27.2058
 21
36.7342
  0
LINE
  8
0
 10
27.2058
 20
36.7342
 11
27.603
 21
36.2746
  0
LINE
  8
0
 10
27.603
 20
36.2746
 11
28.0788
 21
35.8158
  0
LINE
  8
0
 10
28.0788
 20
35.8158
 11
28.6329
 21
35.3582
  0
LINE
  8
0
 10
28.6329
 20
35.3582
 11
28.1572
 21
35.4473
  0
LINE
  8
0
 10
28.1572
 20
35.4473
 11
27.7215
 21
35.5009
  0
LINE
  8
0
 10
27.7215
 20
35.5009
 11
27.3264
 21
35.5187
  0
LINE
  8
0
 10
27.3264
 20
35.5187
 11
26.9719
 21
35.5009
  0
LINE
  8
0
 10
26.9719
 20
35.5009
 11
26.6579
 21
35.4473
  0
LINE
  8
0
 10
26.6579
 20
35.4473
 11
26.3844
 21
35.3581
  0
LINE
  8
0
 10
26.3844
 20
35.3581
 11
26.1516
 21
35.2331
  0
LINE
  8
0
 10
26.1516
 20
35.2331
 11
25.9593
 21
35.0725
  0
LINE
  8
0
 10
25.9593
 20
35.0725
 11
25.8075
 21
34.8761
  0
LINE
  8
0
 10
25.8075
 20
34.8761
 11
25.6964
 21
34.644
  0
LINE
  8
0
 10
25.6964
 20
34.644
 11
25.6258
 21
34.3763
  0
LINE
  8
0
 10
25.6258
 20
34.3763
 11
25.5958
 21
34.0731
  0
LINE
  8
0
 10
25.5958
 20
34.0731
 11
24.4752
 21
34.4433
  0
LINE
  8
0
 10
44.9409
 20
18.7877
 11
44.7319
 21
21.1947
  0
LINE
  8
0
 10
44.7319
 20
21.1947
 11
44.3731
 21
23.3696
  0
LINE
  8
0
 10
44.3731
 20
23.3696
 11
43.8645
 21
25.3125
  0
LINE
  8
0
 10
43.8645
 20
25.3125
 11
43.2061
 21
27.0233
  0
LINE
  8
0
 10
43.2061
 20
27.0233
 11
42.398
 21
28.502
  0
LINE
  8
0
 10
42.398
 20
28.502
 11
41.4401
 21
29.7486
  0
LINE
  8
0
 10
41.4401
 20
29.7486
 11
40.3325
 21
30.7631
  0
LINE
  8
0
 10
40.3325
 20
30.7631
 11
39.075
 21
31.5455
  0
LINE
  8
0
 10
39.075
 20
31.5455
 11
37.6678
 21
32.0958
  0
LINE
  8
0
 10
37.6678
 20
32.0958
 11
36.1108
 21
32.414
  0
LINE
  8
0
 10
36.1108
 20
32.414
 11
34.4073
 21
32.5
  0
LINE
  8
0
 10
34.4073
 20
32.5
 11
36.1108
 21
32.586
  0
LINE
  8
0
 10
36.1108
 20
32.586
 11
37.6678
 21
32.9042
  0
LINE
  8
0
 10
37.6678
 20
32.9042
 11
39.075
 21
33.4545
  0
LINE
  8
0
 10
39.075
 20
33.4545
 11
40.3325
 21
34.2369
  0
LINE
  8
0
 10
40.3325
 20
34.2369
 11
41.4401
 21
35.2514
  0
LINE
  8
0
 10
41.4401
 20
35.2514
 11
42.398
 21
36.498
  0
LINE
  8
0
 10
42.398
 20
36.498
 11
43.2061
 21
37.9767
  0
LINE
  8
0
 10
43.2061
 20
37.9767
 11
43.8645
 21
39.6875
  0
LINE
  8
0
 10
43.8645
 20
39.6875
 11
44.373
 21
41.6303
  0
LINE
  8
0
 10
44.373
 20
41.6303
 11
44.7318
 21
43.8053
  0
LINE
  8
0
 10
44.7318
 20
43.8053
 11
44.9409
 21
46.2123
  0
LINE
  8
0
 10
44.9409
 20
46.2123
 11
45
 21
48.8443
  0
LINE
  8
0
 10
45
 20
48.8443
 11
45.0591
 21
46.2123
  0
LINE
  8
0
 10
45.0591
 20
46.2123
 11
45.2681
 21
43.8053
  0
LINE
  8
0
 10
45.2681
 20
43.8053
 11
45.6269
 21
41.6303
  0
LINE
  8
0
 10
45.6269
 20
41.6303
 11
46.1355
 21
39.6875
  0
LINE
  8
0
 10
46.1355
 20
39.6875
 11
46.7939
 21
37.9767
  0
LINE
  8
0
 10
46.7939
 20
37.9767
 11
47.602
 21
36.498
  0
LINE
  8
0
 10
47.602
 20
36.498
 11
48.5599
 21
35.2514
  0
LINE
  8
0
 10
48.5599
 20
35.2514
 11
49.6675
 21
34.2369
  0
LINE
  8
0
 10
49.6675
 20
34.2369
 11
50.925
 21
33.4545
  0
LINE
  8
0
 10
50.925
 20
33.4545
 11
51.5979
 21
33.1913
  0
LINE
  8
0
 10
51.5979
 20
33.1913
 11
51.9965
 21
31.9645
  0
LINE
  8
0
 10
51.9965
 20
31.9645
 11
50.925
 21
31.5455
  0
LINE
  8
0
 10
50.925
 20
31.5455
 11
49.6675
 21
30.7631
  0
LINE
  8
0
 10
49.6675
 20
30.7631
 11
48.5599
 21
29.7486
  0
LINE
  8
0
 10
48.5599
 20
29.7486
 11
47.602
 21
28.502
  0
LINE
  8
0
 10
47.602
 20
28.502
 11
46.7939
 21
27.0233
  0
LINE
  8
0
 10
46.7939
 20
27.0233
 11
46.1355
 21
25.3125
  0
LINE
  8
0
 10
46.1355
 20
25.3125
 11
45.627
 21
23.3697
  0
LINE
  8
0
 10
45.627
 20
23.3697
 11
45.2682
 21
21.1947
  0
LINE
  8
0
 10
45.2682
 20
21.1947
 11
45.0591
 21
18.7877
  0
LINE
  8
0
 10
45.0591
 20
18.7877
 11
45
 21
16.1557
  0
LINE
  8
0
 10
45
 20
16.1557
 11
44.9409
 21
18.7877
  0
LINE
  8
0
 10
-15.0591
 20
18.7877
 11
-15.2681
 21
21.1947
  0
LINE
  8
0
 10
-15.2681
 20
21.1947
 11
-15.6269
 21
23.3696
  0
LINE
  8
0
 10
-15.6269
 20
23.3696
 11
-16.1355
 21
25.3125
  0
LINE
  8
0
 10
-16.1355
 20
25.3125
 11
-16.7939
 21
27.0233
  0
LINE
  8
0
 10
-16.7939
 20
27.0233
 11
-17.602
 21
28.502
  0
LINE
  8
0
 10
-17.602
 20
28.502
 11
-18.5599
 21
29.7486
  0
LINE
  8
0
 10
-18.5599
 20
29.7486
 11
-19.6675
 21
30.7631
  0
LINE
  8
0
 10
-19.6675
 20
30.7631
 11
-20.925
 21
31.5455
  0
LINE
  8
0
 10
-20.925
 20
31.5455
 11
-22.3322
 21
32.0958
  0
LINE
  8
0
 10
-22.3322
 20
32.0958
 11
-23.8892
 21
32.414
  0
LINE
  8
0
 10
-23.8892
 20
32.414
 11
-25.5927
 21
32.5
  0
LINE
  8
0
 10
-25.5927
 20
32.5
 11
-23.8892
 21
32.586
  0
LINE
  8
0
 10
-23.8892
 20
32.586
 11
-22.3322
 21
32.9042
  0
LINE
  8
0
 10
-22.3322
 20
32.9042
 11
-20.925
 21
33.4545
  0
LINE
  8
0
 10
-20.925
 20
33.4545
 11
-19.6675
 21
34.2369
  0
LINE
  8
0
 10
-19.6675
 20
34.2369
 11
-18.5599
 21
35.2514
  0
LINE
  8
0
 10
-18.5599
 20
35.2514
 11
-17.602
 21
36.498
  0
LINE
  8
0
 10
-17.602
 20
36.498
 11
-16.7939
 21
37.9767
  0
LINE
  8
0
 10
-16.7939
 20
37.9767
 11
-16.1355
 21
39.6875
  0
LINE
  8
0
 10
-16.1355
 20
39.6875
 11
-15.627
 21
41.6303
  0
LINE
  8
0
 10
-15.627
 20
41.6303
 11
-15.2682
 21
43.8053
  0
LINE
  8
0
 10
-15.2682
 20
43.8053
 11
-15.0591
 21
46.2123
  0
LINE
  8
0
 10
-15.0591
 20
46.2123
 11
-15
 21
48.8443
  0
LINE
  8
0
 10
-15
 20
48.8443
 11
-14.9409
 21
46.2123
  0
LINE
  8
0
 10
-14.9409
 20
46.2123
 11
-14.7319
 21
43.8053
  0
LINE
  8
0
 10
-14.7319
 20
43.8053
 11
-14.3731
 21
41.6303
  0
LINE
  8
0
 10
-14.3731
 20
41.6303
 11
-13.8645
 21
39.6875
  0
LINE
  8
0
 10
-13.8645
 20
39.6875
 11
-13.2061
 21
37.9767
  0
LINE
  8
0
 10
-13.2061
 20
37.9767
 11
-12.398
 21
36.498
  0
LINE
  8
0
 10
-12.398
 20
36.498
 11
-11.4401
 21
35.2514
  0
LINE
  8
0
 10
-11.4401
 20
35.2514
 11
-10.3325
 21
34.2369
  0
LINE
  8
0
 10
-10.3325
 20
34.2369
 11
-9.075
 21
33.4545
  0
LINE
  8
0
 10
-9.075
 20
33.4545
 11
-7.66782
 21
32.9042
  0
LINE
  8
0
 10
-7.66782
 20
32.9042
 11
-6.11082
 21
32.586
  0
LINE
  8
0
 10
-6.11082
 20
32.586
 11
-4.40726
 21
32.5
  0
LINE
  8
0
 10
-4.40726
 20
32.5
 11
-6.11082
 21
32.414
  0
LINE
  8
0
 10
-6.11082
 20
32.414
 11
-7.66782
 21
32.0958
  0
LINE
  8
0
 10
-7.66782
 20
32.0958
 11
-9.075
 21
31.5455
  0
LINE
  8
0
 10
-9.075
 20
31.5455
 11
-10.3325
 21
30.7631
  0
LINE
  8
0
 10
-10.3325
 20
30.7631
 11
-11.4401
 21
29.7486
  0
LINE
  8
0
 10
-11.4401
 20
29.7486
 11
-12.398
 21
28.502
  0
LINE
  8
0
 10
-12.398
 20
28.502
 11
-13.2061
 21
27.0233
  0
LINE
  8
0
 10
-13.2061
 20
27.0233
 11
-13.8645
 21
25.3125
  0
LINE
  8
0
 10
-13.8645
 20
25.3125
 11
-14.373
 21
23.3697
  0
LINE
  8
0
 10
-14.373
 20
23.3697
 11
-14.7318
 21
21.1947
  0
LINE
  8
0
 10
-14.7318
 20
21.1947
 11
-14.9409
 21
18.7877
  0
LINE
  8
0
 10
-14.9409
 20
18.7877
 11
-15
 21
16.1557
  0
LINE
  8
0
 10
-15
 20
16.1557
 11
-15.0591
 21
18.7877
  0
LINE
  8
0
 10
-45.0591
 20
18.7877
 11
-45.2681
 21
21.1947
  0
LINE
  8
0
 10
-45.2681
 20
21.1947
 11
-45.6269
 21
23.3696
  0
LINE
  8
0
 10
-45.6269
 20
23.3696
 11
-46.1355
 21
25.3125
  0
LINE
  8
0
 10
-46.1355
 20
25.3125
 11
-46.7939
 21
27.0233
  0
LINE
  8
0
 10
-46.7939
 20
27.0233
 11
-47.602
 21
28.502
  0
LINE
  8
0
 10
-47.602
 20
28.502
 11
-48.5599
 21
29.7486
  0
LINE
  8
0
 10
-48.5599
 20
29.7486
 11
-49.6675
 21
30.7631
  0
LINE
  8
0
 10
-49.6675
 20
30.7631
 11
-50.925
 21
31.5455
  0
LINE
  8
0
 10
-50.925
 20
31.5455
 11
-51.9965
 21
31.9645
  0
LINE
  8
0
 10
-51.9965
 20
31.9645
 11
-51.5979
 21
33.1913
  0
LINE
  8
0
 10
-51.5979
 20
33.1913
 11
-50.925
 21
33.4545
  0
LINE
  8
0
 10
-50.925
 20
33.4545
 11
-49.6675
 21
34.2369
  0
LINE
  8
0
 10
-49.6675
 20
34.2369
 11
-48.5599
 21
35.2514
  0
LINE
  8
0
 10
-48.5599
 20
35.2514
 11
-47.602
 21
36.498
  0
LINE
  8
0
 10
-47.602
 20
36.498
 11
-46.7939
 21
37.9767
  0
LINE
  8
0
 10
-46.7939
 20
37.9767
 11
-46.1355
 21
39.6875
  0
LINE
  8
0
 10
-46.1355
 20
39.6875
 11
-45.627
 21
41.6303
  0
LINE
  8
0
 10
-45.627
 20
41.6303
 11
-45.2682
 21
43.8053
  0
LINE
  8
0
 10
-45.2682
 20
43.8053
 11
-45.0591
 21
46.2123
  0
LINE
  8
0
 10
-45.0591
 20
46.2123
 11
-45
 21
48.8443
  0
LINE
  8
0
 10
-45
 20
48.8443
 11
-44.9409
 21
46.2123
  0
LINE
  8
0
 10
-44.9409
 20
46.2123
 11
-44.7319
 21
43.8053
  0
LINE
  8
0
 10
-44.7319
 20
43.8053
 11
-44.3731
 21
41.6303
  0
LINE
  8
0
 10
-44.3731
 20
41.6303
 11
-43.8645
 21
39.6875
  0
LINE
  8
0
 10
-43.8645
 20
39.6875
 11
-43.2061
 21
37.9767
  0
LINE
  8
0
 10
-43.2061
 20
37.9767
 11
-42.398
 21
36.498
  0
LINE
  8
0
 10
-42.398
 20
36.498
 11
-41.4401
 21
35.2514
  0
LINE
  8
0
 10
-41.4401
 20
35.2514
 11
-40.3325
 21
34.2369
  0
LINE
  8
0
 10
-40.3325
 20
34.2369
 11
-39.075
 21
33.4545
  0
LINE
  8
0
 10
-39.075
 20
33.4545
 11
-37.6678
 21
32.9042
  0
LINE
  8
0
 10
-37.6678
 20
32.9042
 11
-36.1108
 21
32.586
  0
LINE
  8
0
 10
-36.1108
 20
32.586
 11
-34.4073
 21
32.5
  0
LINE
  8
0
 10
-34.4073
 20
32.5
 11
-36.1108
 21
32.414
  0
LINE
  8
0
 10
-36.1108
 20
32.414
 11
-37.6678
 21
32.0958
  0
LINE
  8
0
 10
-37.6678
 20
32.0958
 11
-39.075
 21
31.5455
  0
LINE
  8
0
 10
-39.075
 20
31.5455
 11
-40.3325
 21
30.7631
  0
LINE
  8
0
 10
-40.3325
 20
30.7631
 11
-41.4401
 21
29.7486
  0
LINE
  8
0
 10
-41.4401
 20
29.7486
 11
-42.398
 21
28.502
  0
LINE
  8
0
 10
-42.398
 20
28.502
 11
-43.2061
 21
27.0233
  0
LINE
  8
0
 10
-43.2061
 20
27.0233
 11
-43.8645
 21
25.3125
  0
LINE
  8
0
 10
-43.8645
 20
25.3125
 11
-44.373
 21
23.3697
  0
LINE
  8
0
 10
-44.373
 20
23.3697
 11
-44.7318
 21
21.1947
  0
LINE
  8
0
 10
-44.7318
 20
21.1947
 11
-44.9409
 21
18.7877
  0
LINE
  8
0
 10
-44.9409
 20
18.7877
 11
-45
 21
16.1557
  0
LINE
  8
0
 10
-45
 20
16.1557
 11
-45.0591
 21
18.7877
  0
LINE
  8
0
 10
14.9409
 20
18.7877
 11
14.7319
 21
21.1947
  0
LINE
  8
0
 10
14.7319
 20
21.1947
 11
14.3731
 21
23.3696
  0
LINE
  8
0
 10
14.3731
 20
23.3696
 11
13.8645
 21
25.3125
  0
LINE
  8
0
 10
13.8645
 20
25.3125
 11
13.2061
 21
27.0233
  0
LINE
  8
0
 10
13.2061
 20
27.0233
 11
12.398
 21
28.502
  0
LINE
  8
0
 10
12.398
 20
28.502
 11
11.4401
 21
29.7486
  0
LINE
  8
0
 10
11.4401
 20
29.7486
 11
10.3325
 21
30.7631
  0
LINE
  8
0
 10
10.3325
 20
30.7631
 11
9.075
 21
31.5455
  0
LINE
  8
0
 10
9.075
 20
31.5455
 11
7.66782
 21
32.0958
  0
LINE
  8
0
 10
7.66782
 20
32.0958
 11
6.11082
 21
32.414
  0
LINE
  8
0
 10
6.11082
 20
32.414
 11
4.40726
 21
32.5
  0
LINE
  8
0
 10
4.40726
 20
32.5
 11
6.11079
 21
32.586
  0
LINE
  8
0
 10
6.11079
 20
32.586
 11
7.66779
 21
32.9042
  0
LINE
  8
0
 10
7.66779
 20
32.9042
 11
9.075
 21
33.4545
  0
LINE
  8
0
 10
9.075
 20
33.4545
 11
10.3325
 21
34.2369
  0
LINE
  8
0
 10
10.3325
 20
34.2369
 11
11.4401
 21
35.2514
  0
LINE
  8
0
 10
11.4401
 20
35.2514
 11
12.398
 21
36.498
  0
LINE
  8
0
 10
12.398
 20
36.498
 11
13.2061
 21
37.9767
  0
LINE
  8
0
 10
13.2061
 20
37.9767
 11
13.8645
 21
39.6875
  0
LINE
  8
0
 10
13.8645
 20
39.6875
 11
14.373
 21
41.6303
  0
LINE
  8
0
 10
14.373
 20
41.6303
 11
14.7318
 21
43.8053
  0
LINE
  8
0
 10
14.7318
 20
43.8053
 11
14.9409
 21
46.2123
  0
LINE
  8
0
 10
14.9409
 20
46.2123
 11
15
 21
48.8443
  0
LINE
  8
0
 10
15
 20
48.8443
 11
15.0591
 21
46.2123
  0
LINE
  8
0
 10
15.0591
 20
46.2123
 11
15.2681
 21
43.8053
  0
LINE
  8
0
 10
15.2681
 20
43.8053
 11
15.6269
 21
41.6303
  0
LINE
  8
0
 10
15.6269
 20
41.6303
 11
16.1355
 21
39.6875
  0
LINE
  8
0
 10
16.1355
 20
39.6875
 11
16.7939
 21
37.9767
  0
LINE
  8
0
 10
16.7939
 20
37.9767
 11
17.602
 21
36.498
  0
LINE
  8
0
 10
17.602
 20
36.498
 11
18.5599
 21
35.2514
  0
LINE
  8
0
 10
18.5599
 20
35.2514
 11
19.6675
 21
34.2369
  0
LINE
  8
0
 10
19.6675
 20
34.2369
 11
20.925
 21
33.4545
  0
LINE
  8
0
 10
20.925
 20
33.4545
 11
22.3322
 21
32.9042
  0
LINE
  8
0
 10
22.3322
 20
32.9042
 11
23.8892
 21
32.586
  0
LINE
  8
0
 10
23.8892
 20
32.586
 11
25.5927
 21
32.5
  0
LINE
  8
0
 10
25.5927
 20
32.5
 11
23.8892
 21
32.414
  0
LINE
  8
0
 10
23.8892
 20
32.414
 11
22.3322
 21
32.0958
  0
LINE
  8
0
 10
22.3322
 20
32.0958
 11
20.925
 21
31.5455
  0
LINE
  8
0
 10
20.925
 20
31.5455
 11
19.6675
 21
30.7631
  0
LINE
  8
0
 10
19.6675
 20
30.7631
 11
18.5599
 21
29.7486
  0
LINE
  8
0
 10
18.5599
 20
29.7486
 11
17.602
 21
28.502
  0
LINE
  8
0
 10
17.602
 20
28.502
 11
16.7939
 21
27.0233
  0
LINE
  8
0
 10
16.7939
 20
27.0233
 11
16.1355
 21
25.3125
  0
LINE
  8
0
 10
16.1355
 20
25.3125
 11
15.627
 21
23.3697
  0
LINE
  8
0
 10
15.627
 20
23.3697
 11
15.2682
 21
21.1947
  0
LINE
  8
0
 10
15.2682
 20
21.1947
 11
15.0591
 21
18.7877
  0
LINE
  8
0
 10
15.0591
 20
18.7877
 11
15
 21
16.1557
  0
LINE
  8
0
 10
15
 20
16.1557
 11
14.9409
 21
18.7877
  0
LINE
  8
0
 10
-47.7338
 20
45.0838
 11
-47.7833
 21
44.8226
  0
LINE
  8
0
 10
-47.7833
 20
44.8226
 11
-48.225
 21
43.043
  0
LINE
  8
0
 10
-48.225
 20
43.043
 11
-48.7422
 21
41.42
  0
LINE
  8
0
 10
-48.7422
 20
41.42
 11
-49.3349
 21
39.9536
  0
LINE
  8
0
 10
-49.3349
 20
39.9536
 11
-49.5164
 21
39.5977
  0
LINE
  8
0
 10
-49.5164
 20
39.5977
 11
-47.7338
 21
45.0838
  0
LINE
  8
0
 10
49.3349
 20
39.9536
 11
48.7422
 21
41.42
  0
LINE
  8
0
 10
48.7422
 20
41.42
 11
48.225
 21
43.043
  0
LINE
  8
0
 10
48.225
 20
43.043
 11
47.7833
 21
44.8226
  0
LINE
  8
0
 10
47.7833
 20
44.8226
 11
47.7339
 21
45.0837
  0
LINE
  8
0
 10
47.7339
 20
45.0837
 11
49.5164
 21
39.5977
  0
LINE
  8
0
 10
49.5164
 20
39.5977
 11
49.3349
 21
39.9536
  0
LINE
  8
0
 10
17.1261
 20
16.1486
 11
17.417
 21
18.2413
  0
LINE
  8
0
 10
17.417
 20
18.2413
 11
17.7833
 21
20.1774
  0
LINE
  8
0
 10
17.7833
 20
20.1774
 11
18.225
 21
21.957
  0
LINE
  8
0
 10
18.225
 20
21.957
 11
18.7422
 21
23.58
  0
LINE
  8
0
 10
18.7422
 20
23.58
 11
19.3349
 21
25.0464
  0
LINE
  8
0
 10
19.3349
 20
25.0464
 11
20.003
 21
26.3562
  0
LINE
  8
0
 10
20.003
 20
26.3562
 11
20.7465
 21
27.5095
  0
LINE
  8
0
 10
20.7465
 20
27.5095
 11
21.5655
 21
28.5061
  0
LINE
  8
0
 10
21.5655
 20
28.5061
 11
22.4599
 21
29.3462
  0
LINE
  8
0
 10
22.4599
 20
29.3462
 11
23.4299
 21
30.0297
  0
LINE
  8
0
 10
23.4299
 20
30.0297
 11
24.4752
 21
30.5567
  0
LINE
  8
0
 10
24.4752
 20
30.5567
 11
25.5958
 21
30.9269
  0
LINE
  8
0
 10
25.5958
 20
30.9269
 11
25.6258
 21
30.6237
  0
LINE
  8
0
 10
25.6258
 20
30.6237
 11
25.6964
 21
30.3559
  0
LINE
  8
0
 10
25.6964
 20
30.3559
 11
25.8075
 21
30.1239
  0
LINE
  8
0
 10
25.8075
 20
30.1239
 11
25.9593
 21
29.9275
  0
LINE
  8
0
 10
25.9593
 20
29.9275
 11
26.1516
 21
29.7669
  0
LINE
  8
0
 10
26.1516
 20
29.7669
 11
26.3844
 21
29.6419
  0
LINE
  8
0
 10
26.3844
 20
29.6419
 11
26.6579
 21
29.5527
  0
LINE
  8
0
 10
26.6579
 20
29.5527
 11
26.9719
 21
29.4991
  0
LINE
  8
0
 10
26.9719
 20
29.4991
 11
27.3264
 21
29.4812
  0
LINE
  8
0
 10
27.3264
 20
29.4812
 11
27.7215
 21
29.4991
  0
LINE
  8
0
 10
27.7215
 20
29.4991
 11
28.1572
 21
29.5527
  0
LINE
  8
0
 10
28.1572
 20
29.5527
 11
28.6329
 21
29.6418
  0
LINE
  8
0
 10
28.6329
 20
29.6418
 11
28.0788
 21
29.1842
  0
LINE
  8
0
 10
28.0788
 20
29.1842
 11
27.603
 21
28.7254
  0
LINE
  8
0
 10
27.603
 20
28.7254
 11
27.2058
 21
28.2658
  0
LINE
  8
0
 10
27.2058
 20
28.2658
 11
26.8874
 21
27.8054
  0
LINE
  8
0
 10
26.8874
 20
27.8054
 11
26.6476
 21
27.3441
  0
LINE
  8
0
 10
26.6476
 20
27.3441
 11
26.4866
 21
26.8821
  0
LINE
  8
0
 10
26.4866
 20
26.8821
 11
26.4042
 21
26.4192
  0
LINE
  8
0
 10
26.4042
 20
26.4192
 11
26.4006
 21
25.9555
  0
LINE
  8
0
 10
26.4006
 20
25.9555
 11
26.4756
 21
25.491
  0
LINE
  8
0
 10
26.4756
 20
25.491
 11
26.6294
 21
25.0257
  0
LINE
  8
0
 10
26.6294
 20
25.0257
 11
26.8618
 21
24.5596
  0
LINE
  8
0
 10
26.8618
 20
24.5596
 11
27.1728
 21
24.093
  0
LINE
  8
0
 10
27.1728
 20
24.093
 11
26.2162
 21
24.3103
  0
LINE
  8
0
 10
26.2162
 20
24.3103
 11
25.2925
 21
24.3201
  0
LINE
  8
0
 10
25.2925
 20
24.3201
 11
24.4021
 21
24.1221
  0
LINE
  8
0
 10
24.4021
 20
24.1221
 11
23.5449
 21
23.7165
  0
LINE
  8
0
 10
23.5449
 20
23.7165
 11
22.721
 21
23.1031
  0
LINE
  8
0
 10
22.721
 20
23.1031
 11
21.9304
 21
22.2821
  0
LINE
  8
0
 10
21.9304
 20
22.2821
 11
21.173
 21
21.2533
  0
LINE
  8
0
 10
21.173
 20
21.2533
 11
20.4489
 21
20.0169
  0
LINE
  8
0
 10
20.4489
 20
20.0169
 11
19.7581
 21
18.5728
  0
LINE
  8
0
 10
19.7581
 20
18.5728
 11
19.1005
 21
16.921
  0
LINE
  8
0
 10
19.1005
 20
16.921
 11
18.4762
 21
15.0614
  0
LINE
  8
0
 10
18.4762
 20
15.0614
 11
17.8854
 21
12.9948
  0
LINE
  8
0
 10
17.8854
 20
12.9948
 11
17.1261
 21
16.1486
  0
LINE
  8
0
 10
-12.8739
 20
16.1486
 11
-12.583
 21
18.2413
  0
LINE
  8
0
 10
-12.583
 20
18.2413
 11
-12.2167
 21
20.1774
  0
LINE
  8
0
 10
-12.2167
 20
20.1774
 11
-11.775
 21
21.957
  0
LINE
  8
0
 10
-11.775
 20
21.957
 11
-11.2578
 21
23.58
  0
LINE
  8
0
 10
-11.2578
 20
23.58
 11
-10.6651
 21
25.0464
  0
LINE
  8
0
 10
-10.6651
 20
25.0464
 11
-9.99702
 21
26.3562
  0
LINE
  8
0
 10
-9.99702
 20
26.3562
 11
-9.25348
 21
27.5095
  0
LINE
  8
0
 10
-9.25348
 20
27.5095
 11
-8.43449
 21
28.5061
  0
LINE
  8
0
 10
-8.43449
 20
28.5061
 11
-7.54005
 21
29.3462
  0
LINE
  8
0
 10
-7.54005
 20
29.3462
 11
-6.57014
 21
30.0297
  0
LINE
  8
0
 10
-6.57014
 20
30.0297
 11
-5.52484
 21
30.5567
  0
LINE
  8
0
 10
-5.52484
 20
30.5567
 11
-4.40421
 21
30.9269
  0
LINE
  8
0
 10
-4.40421
 20
30.9269
 11
-4.37421
 21
30.6237
  0
LINE
  8
0
 10
-4.37421
 20
30.6237
 11
-4.30362
 21
30.3559
  0
LINE
  8
0
 10
-4.30362
 20
30.3559
 11
-4.19244
 21
30.1239
  0
LINE
  8
0
 10
-4.19244
 20
30.1239
 11
-4.04073
 21
29.9275
  0
LINE
  8
0
 10
-4.04073
 20
29.9275
 11
-3.84842
 21
29.7669
  0
LINE
  8
0
 10
-3.84842
 20
29.7669
 11
-3.61557
 21
29.6419
  0
LINE
  8
0
 10
-3.61557
 20
29.6419
 11
-3.34213
 21
29.5527
  0
LINE
  8
0
 10
-3.34213
 20
29.5527
 11
-3.02812
 21
29.4991
  0
LINE
  8
0
 10
-3.02812
 20
29.4991
 11
-2.67357
 21
29.4812
  0
LINE
  8
0
 10
-2.67357
 20
29.4812
 11
-2.27847
 21
29.4991
  0
LINE
  8
0
 10
-2.27847
 20
29.4991
 11
-1.84279
 21
29.5527
  0
LINE
  8
0
 10
-1.84279
 20
29.5527
 11
-1.36713
 21
29.6418
  0
LINE
  8
0
 10
-1.36713
 20
29.6418
 11
-1.92119
 21
29.1842
  0
LINE
  8
0
 10
-1.92119
 20
29.1842
 11
-2.39703
 21
28.7254
  0
LINE
  8
0
 10
-2.39703
 20
28.7254
 11
-2.79416
 21
28.2658
  0
LINE
  8
0
 10
-2.79416
 20
28.2658
 11
-3.11261
 21
27.8054
  0
LINE
  8
0
 10
-3.11261
 20
27.8054
 11
-3.35236
 21
27.3441
  0
LINE
  8
0
 10
-3.35236
 20
27.3441
 11
-3.5134
 21
26.8821
  0
LINE
  8
0
 10
-3.5134
 20
26.8821
 11
-3.59578
 21
26.4192
  0
LINE
  8
0
 10
-3.59578
 20
26.4192
 11
-3.59941
 21
25.9555
  0
LINE
  8
0
 10
-3.59941
 20
25.9555
 11
-3.52437
 21
25.491
  0
LINE
  8
0
 10
-3.52437
 20
25.491
 11
-3.37062
 21
25.0257
  0
LINE
  8
0
 10
-3.37062
 20
25.0257
 11
-3.13817
 21
24.5596
  0
LINE
  8
0
 10
-3.13817
 20
24.5596
 11
-2.82724
 21
24.093
  0
LINE
  8
0
 10
-2.82724
 20
24.093
 11
-3.78383
 21
24.3103
  0
LINE
  8
0
 10
-3.78383
 20
24.3103
 11
-4.70752
 21
24.3201
  0
LINE
  8
0
 10
-4.70752
 20
24.3201
 11
-5.59795
 21
24.1221
  0
LINE
  8
0
 10
-5.59795
 20
24.1221
 11
-6.45511
 21
23.7165
  0
LINE
  8
0
 10
-6.45511
 20
23.7165
 11
-7.27899
 21
23.1031
  0
LINE
  8
0
 10
-7.27899
 20
23.1031
 11
-8.06964
 21
22.2821
  0
LINE
  8
0
 10
-8.06964
 20
22.2821
 11
-8.82698
 21
21.2533
  0
LINE
  8
0
 10
-8.82698
 20
21.2533
 11
-9.5511
 21
20.0169
  0
LINE
  8
0
 10
-9.5511
 20
20.0169
 11
-10.2419
 21
18.5728
  0
LINE
  8
0
 10
-10.2419
 20
18.5728
 11
-10.8995
 21
16.921
  0
LINE
  8
0
 10
-10.8995
 20
16.921
 11
-11.5238
 21
15.0614
  0
LINE
  8
0
 10
-11.5238
 20
15.0614
 11
-12.1146
 21
12.9948
  0
LINE
  8
0
 10
-12.1146
 20
12.9948
 11
-12.8739
 21
16.1486
  0
LINE
  8
0
 10
-18.4762
 20
15.0614
 11
-19.1005
 21
16.9209
  0
LINE
  8
0
 10
-19.1005
 20
16.9209
 11
-19.7581
 21
18.5727
  0
LINE
  8
0
 10
-19.7581
 20
18.5727
 11
-20.4489
 21
20.0169
  0
LINE
  8
0
 10
-20.4489
 20
20.0169
 11
-21.173
 21
21.2533
  0
LINE
  8
0
 10
-21.173
 20
21.2533
 11
-21.9304
 21
22.282
  0
LINE
  8
0
 10
-21.9304
 20
22.282
 11
-22.721
 21
23.1031
  0
LINE
  8
0
 10
-22.721
 20
23.1031
 11
-23.5449
 21
23.7165
  0
LINE
  8
0
 10
-23.5449
 20
23.7165
 11
-24.4021
 21
24.1221
  0
LINE
  8
0
 10
-24.4021
 20
24.1221
 11
-25.2925
 21
24.3201
  0
LINE
  8
0
 10
-25.2925
 20
24.3201
 11
-26.2162
 21
24.3103
  0
LINE
  8
0
 10
-26.2162
 20
24.3103
 11
-27.1728
 21
24.093
  0
LINE
  8
0
 10
-27.1728
 20
24.093
 11
-26.8618
 21
24.5596
  0
LINE
  8
0
 10
-26.8618
 20
24.5596
 11
-26.6294
 21
25.0257
  0
LINE
  8
0
 10
-26.6294
 20
25.0257
 11
-26.4756
 21
25.491
  0
LINE
  8
0
 10
-26.4756
 20
25.491
 11
-26.4006
 21
25.9555
  0
LINE
  8
0
 10
-26.4006
 20
25.9555
 11
-26.4042
 21
26.4192
  0
LINE
  8
0
 10
-26.4042
 20
26.4192
 11
-26.4866
 21
26.8821
  0
LINE
  8
0
 10
-26.4866
 20
26.8821
 11
-26.6476
 21
27.3441
  0
LINE
  8
0
 10
-26.6476
 20
27.3441
 11
-26.8874
 21
27.8053
  0
LINE
  8
0
 10
-26.8874
 20
27.8053
 11
-27.2058
 21
28.2658
  0
LINE
  8
0
 10
-27.2058
 20
28.2658
 11
-27.603
 21
28.7254
  0
LINE
  8
0
 10
-27.603
 20
28.7254
 11
-28.0788
 21
29.1842
  0
LINE
  8
0
 10
-28.0788
 20
29.1842
 11
-28.6329
 21
29.6418
  0
LINE
  8
0
 10
-28.6329
 20
29.6418
 11
-28.1572
 21
29.5527
  0
LINE
  8
0
 10
-28.1572
 20
29.5527
 11
-27.7215
 21
29.4991
  0
LINE
  8
0
 10
-27.7215
 20
29.4991
 11
-27.3264
 21
29.4812
  0
LINE
  8
0
 10
-27.3264
 20
29.4812
 11
-26.9719
 21
29.4991
  0
LINE
  8
0
 10
-26.9719
 20
29.4991
 11
-26.6579
 21
29.5527
  0
LINE
  8
0
 10
-26.6579
 20
29.5527
 11
-26.3844
 21
29.6419
  0
LINE
  8
0
 10
-26.3844
 20
29.6419
 11
-26.1516
 21
29.7669
  0
LINE
  8
0
 10
-26.1516
 20
29.7669
 11
-25.9593
 21
29.9275
  0
LINE
  8
0
 10
-25.9593
 20
29.9275
 11
-25.8075
 21
30.1239
  0
LINE
  8
0
 10
-25.8075
 20
30.1239
 11
-25.6964
 21
30.3559
  0
LINE
  8
0
 10
-25.6964
 20
30.3559
 11
-25.6258
 21
30.6237
  0
LINE
  8
0
 10
-25.6258
 20
30.6237
 11
-25.5958
 21
30.9269
  0
LINE
  8
0
 10
-25.5958
 20
30.9269
 11
-24.4752
 21
30.5567
  0
LINE
  8
0
 10
-24.4752
 20
30.5567
 11
-23.4299
 21
30.0297
  0
LINE
  8
0
 10
-23.4299
 20
30.0297
 11
-22.4599
 21
29.3462
  0
LINE
  8
0
 10
-22.4599
 20
29.3462
 11
-21.5655
 21
28.5061
  0
LINE
  8
0
 10
-21.5655
 20
28.5061
 11
-20.7465
 21
27.5095
  0
LINE
  8
0
 10
-20.7465
 20
27.5095
 11
-20.0029
 21
26.3562
  0
LINE
  8
0
 10
-20.0029
 20
26.3562
 11
-19.3349
 21
25.0464
  0
LINE
  8
0
 10
-19.3349
 20
25.0464
 11
-18.7422
 21
23.58
  0
LINE
  8
0
 10
-18.7422
 20
23.58
 11
-18.225
 21
21.957
  0
LINE
  8
0
 10
-18.225
 20
21.957
 11
-17.7833
 21
20.1774
  0
LINE
  8
0
 10
-17.7833
 20
20.1774
 11
-17.417
 21
18.2412
  0
LINE
  8
0
 10
-17.417
 20
18.2412
 11
-17.1261
 21
16.1486
  0
LINE
  8
0
 10
-17.1261
 20
16.1486
 11
-17.8854
 21
12.9948
  0
LINE
  8
0
 10
-17.8854
 20
12.9948
 11
-18.4762
 21
15.0614
  0
LINE
  8
0
 10
41.5238
 20
15.0614
 11
40.8995
 21
16.9209
  0
LINE
  8
0
 10
40.8995
 20
16.9209
 11
40.2419
 21
18.5727
  0
LINE
  8
0
 10
40.2419
 20
18.5727
 11
39.5511
 21
20.0169
  0
LINE
  8
0
 10
39.5511
 20
20.0169
 11
38.827
 21
21.2533
  0
LINE
  8
0
 10
38.827
 20
21.2533
 11
38.0696
 21
22.282
  0
LINE
  8
0
 10
38.0696
 20
22.282
 11
37.279
 21
23.1031
  0
LINE
  8
0
 10
37.279
 20
23.1031
 11
36.4551
 21
23.7165
  0
LINE
  8
0
 10
36.4551
 20
23.7165
 11
35.5979
 21
24.1221
  0
LINE
  8
0
 10
35.5979
 20
24.1221
 11
34.7075
 21
24.3201
  0
LINE
  8
0
 10
34.7075
 20
24.3201
 11
33.7838
 21
24.3103
  0
LINE
  8
0
 10
33.7838
 20
24.3103
 11
32.8272
 21
24.093
  0
LINE
  8
0
 10
32.8272
 20
24.093
 11
33.1382
 21
24.5596
  0
LINE
  8
0
 10
33.1382
 20
24.5596
 11
33.3706
 21
25.0257
  0
LINE
  8
0
 10
33.3706
 20
25.0257
 11
33.5244
 21
25.491
  0
LINE
  8
0
 10
33.5244
 20
25.491
 11
33.5994
 21
25.9555
  0
LINE
  8
0
 10
33.5994
 20
25.9555
 11
33.5958
 21
26.4192
  0
LINE
  8
0
 10
33.5958
 20
26.4192
 11
33.5134
 21
26.8821
  0
LINE
  8
0
 10
33.5134
 20
26.8821
 11
33.3524
 21
27.3441
  0
LINE
  8
0
 10
33.3524
 20
27.3441
 11
33.1126
 21
27.8053
  0
LINE
  8
0
 10
33.1126
 20
27.8053
 11
32.7942
 21
28.2658
  0
LINE
  8
0
 10
32.7942
 20
28.2658
 11
32.397
 21
28.7254
  0
LINE
  8
0
 10
32.397
 20
28.7254
 11
31.9212
 21
29.1842
  0
LINE
  8
0
 10
31.9212
 20
29.1842
 11
31.3671
 21
29.6418
  0
LINE
  8
0
 10
31.3671
 20
29.6418
 11
31.8428
 21
29.5527
  0
LINE
  8
0
 10
31.8428
 20
29.5527
 11
32.2784
 21
29.4991
  0
LINE
  8
0
 10
32.2784
 20
29.4991
 11
32.6736
 21
29.4812
  0
LINE
  8
0
 10
32.6736
 20
29.4812
 11
33.0281
 21
29.4991
  0
LINE
  8
0
 10
33.0281
 20
29.4991
 11
33.3421
 21
29.5527
  0
LINE
  8
0
 10
33.3421
 20
29.5527
 11
33.6156
 21
29.6419
  0
LINE
  8
0
 10
33.6156
 20
29.6419
 11
33.8484
 21
29.7669
  0
LINE
  8
0
 10
33.8484
 20
29.7669
 11
34.0407
 21
29.9275
  0
LINE
  8
0
 10
34.0407
 20
29.9275
 11
34.1924
 21
30.1239
  0
LINE
  8
0
 10
34.1924
 20
30.1239
 11
34.3036
 21
30.3559
  0
LINE
  8
0
 10
34.3036
 20
30.3559
 11
34.3742
 21
30.6237
  0
LINE
  8
0
 10
34.3742
 20
30.6237
 11
34.4042
 21
30.9269
  0
LINE
  8
0
 10
34.4042
 20
30.9269
 11
35.5248
 21
30.5567
  0
LINE
  8
0
 10
35.5248
 20
30.5567
 11
36.5701
 21
30.0297
  0
LINE
  8
0
 10
36.5701
 20
30.0297
 11
37.5401
 21
29.3462
  0
LINE
  8
0
 10
37.5401
 20
29.3462
 11
38.4345
 21
28.5061
  0
LINE
  8
0
 10
38.4345
 20
28.5061
 11
39.2535
 21
27.5095
  0
LINE
  8
0
 10
39.2535
 20
27.5095
 11
39.9971
 21
26.3562
  0
LINE
  8
0
 10
39.9971
 20
26.3562
 11
40.6651
 21
25.0464
  0
LINE
  8
0
 10
40.6651
 20
25.0464
 11
41.2578
 21
23.58
  0
LINE
  8
0
 10
41.2578
 20
23.58
 11
41.775
 21
21.957
  0
LINE
  8
0
 10
41.775
 20
21.957
 11
42.2167
 21
20.1774
  0
LINE
  8
0
 10
42.2167
 20
20.1774
 11
42.583
 21
18.2412
  0
LINE
  8
0
 10
42.583
 20
18.2412
 11
42.8739
 21
16.1486
  0
LINE
  8
0
 10
42.8739
 20
16.1486
 11
42.1146
 21
12.9948
  0
LINE
  8
0
 10
42.1146
 20
12.9948
 11
41.5238
 21
15.0614
  0
LINE
  8
0
 10
11.5238
 20
15.0614
 11
10.8995
 21
16.9209
  0
LINE
  8
0
 10
10.8995
 20
16.9209
 11
10.2419
 21
18.5727
  0
LINE
  8
0
 10
10.2419
 20
18.5727
 11
9.5511
 21
20.0169
  0
LINE
  8
0
 10
9.5511
 20
20.0169
 11
8.82701
 21
21.2533
  0
LINE
  8
0
 10
8.82701
 20
21.2533
 11
8.06964
 21
22.282
  0
LINE
  8
0
 10
8.06964
 20
22.282
 11
7.27901
 21
23.1031
  0
LINE
  8
0
 10
7.27901
 20
23.1031
 11
6.45511
 21
23.7165
  0
LINE
  8
0
 10
6.45511
 20
23.7165
 11
5.59795
 21
24.1221
  0
LINE
  8
0
 10
5.59795
 20
24.1221
 11
4.70752
 21
24.3201
  0
LINE
  8
0
 10
4.70752
 20
24.3201
 11
3.78383
 21
24.3103
  0
LINE
  8
0
 10
3.78383
 20
24.3103
 11
2.82724
 21
24.093
  0
LINE
  8
0
 10
2.82724
 20
24.093
 11
3.13815
 21
24.5596
  0
LINE
  8
0
 10
3.13815
 20
24.5596
 11
3.37062
 21
25.0257
  0
LINE
  8
0
 10
3.37062
 20
25.0257
 11
3.52437
 21
25.491
  0
LINE
  8
0
 10
3.52437
 20
25.491
 11
3.59941
 21
25.9555
  0
LINE
  8
0
 10
3.59941
 20
25.9555
 11
3.59578
 21
26.4192
  0
LINE
  8
0
 10
3.59578
 20
26.4192
 11
3.5134
 21
26.8821
  0
LINE
  8
0
 10
3.5134
 20
26.8821
 11
3.35236
 21
27.3441
  0
LINE
  8
0
 10
3.35236
 20
27.3441
 11
3.11263
 21
27.8053
  0
LINE
  8
0
 10
3.11263
 20
27.8053
 11
2.79416
 21
28.2658
  0
LINE
  8
0
 10
2.79416
 20
28.2658
 11
2.39703
 21
28.7254
  0
LINE
  8
0
 10
2.39703
 20
28.7254
 11
1.9212
 21
29.1842
  0
LINE
  8
0
 10
1.9212
 20
29.1842
 11
1.36713
 21
29.6418
  0
LINE
  8
0
 10
1.36713
 20
29.6418
 11
1.84279
 21
29.5527
  0
LINE
  8
0
 10
1.84279
 20
29.5527
 11
2.27844
 21
29.4991
  0
LINE
  8
0
 10
2.27844
 20
29.4991
 11
2.67357
 21
29.4812
  0
LINE
  8
0
 10
2.67357
 20
29.4812
 11
3.02811
 21
29.4991
  0
LINE
  8
0
 10
3.02811
 20
29.4991
 11
3.3421
 21
29.5527
  0
LINE
  8
0
 10
3.3421
 20
29.5527
 11
3.61557
 21
29.6419
  0
LINE
  8
0
 10
3.61557
 20
29.6419
 11
3.84842
 21
29.7669
  0
LINE
  8
0
 10
3.84842
 20
29.7669
 11
4.04073
 21
29.9275
  0
LINE
  8
0
 10
4.04073
 20
29.9275
 11
4.19244
 21
30.1239
  0
LINE
  8
0
 10
4.19244
 20
30.1239
 11
4.30362
 21
30.3559
  0
LINE
  8
0
 10
4.30362
 20
30.3559
 11
4.37421
 21
30.6237
  0
LINE
  8
0
 10
4.37421
 20
30.6237
 11
4.40421
 21
30.9269
  0
LINE
  8
0
 10
4.40421
 20
30.9269
 11
5.52484
 21
30.5567
  0
LINE
  8
0
 10
5.52484
 20
30.5567
 11
6.57014
 21
30.0297
  0
LINE
  8
0
 10
6.57014
 20
30.0297
 11
7.54005
 21
29.3462
  0
LINE
  8
0
 10
7.54005
 20
29.3462
 11
8.43452
 21
28.5061
  0
LINE
  8
0
 10
8.43452
 20
28.5061
 11
9.25348
 21
27.5095
  0
LINE
  8
0
 10
9.25348
 20
27.5095
 11
9.99706
 21
26.3562
  0
LINE
  8
0
 10
9.99706
 20
26.3562
 11
10.6651
 21
25.0464
  0
LINE
  8
0
 10
10.6651
 20
25.0464
 11
11.2578
 21
23.58
  0
LINE
  8
0
 10
11.2578
 20
23.58
 11
11.775
 21
21.957
  0
LINE
  8
0
 10
11.775
 20
21.957
 11
12.2167
 21
20.1774
  0
LINE
  8
0
 10
12.2167
 20
20.1774
 11
12.583
 21
18.2412
  0
LINE
  8
0
 10
12.583
 20
18.2412
 11
12.8739
 21
16.1486
  0
LINE
  8
0
 10
12.8739
 20
16.1486
 11
12.1146
 21
12.9948
  0
LINE
  8
0
 10
12.1146
 20
12.9948
 11
11.5238
 21
15.0614
  0
LINE
  8
0
 10
-42.8739
 20
16.1486
 11
-42.583
 21
18.2413
  0
LINE
  8
0
 10
-42.583
 20
18.2413
 11
-42.2167
 21
20.1774
  0
LINE
  8
0
 10
-42.2167
 20
20.1774
 11
-41.775
 21
21.957
  0
LINE
  8
0
 10
-41.775
 20
21.957
 11
-41.2578
 21
23.58
  0
LINE
  8
0
 10
-41.2578
 20
23.58
 11
-40.6651
 21
25.0464
  0
LINE
  8
0
 10
-40.6651
 20
25.0464
 11
-39.997
 21
26.3562
  0
LINE
  8
0
 10
-39.997
 20
26.3562
 11
-39.2535
 21
27.5095
  0
LINE
  8
0
 10
-39.2535
 20
27.5095
 11
-38.4345
 21
28.5061
  0
LINE
  8
0
 10
-38.4345
 20
28.5061
 11
-37.5401
 21
29.3462
  0
LINE
  8
0
 10
-37.5401
 20
29.3462
 11
-36.5701
 21
30.0297
  0
LINE
  8
0
 10
-36.5701
 20
30.0297
 11
-35.5248
 21
30.5567
  0
LINE
  8
0
 10
-35.5248
 20
30.5567
 11
-34.4042
 21
30.9269
  0
LINE
  8
0
 10
-34.4042
 20
30.9269
 11
-34.3742
 21
30.6237
  0
LINE
  8
0
 10
-34.3742
 20
30.6237
 11
-34.3036
 21
30.3559
  0
LINE
  8
0
 10
-34.3036
 20
30.3559
 11
-34.1924
 21
30.1239
  0
LINE
  8
0
 10
-34.1924
 20
30.1239
 11
-34.0407
 21
29.9275
  0
LINE
  8
0
 10
-34.0407
 20
29.9275
 11
-33.8484
 21
29.7669
  0
LINE
  8
0
 10
-33.8484
 20
29.7669
 11
-33.6156
 21
29.6419
  0
LINE
  8
0
 10
-33.6156
 20
29.6419
 11
-33.3421
 21
29.5527
  0
LINE
  8
0
 10
-33.3421
 20
29.5527
 11
-33.0281
 21
29.4991
  0
LINE
  8
0
 10
-33.0281
 20
29.4991
 11
-32.6736
 21
29.4812
  0
LINE
  8
0
 10
-32.6736
 20
29.4812
 11
-32.2785
 21
29.4991
  0
LINE
  8
0
 10
-32.2785
 20
29.4991
 11
-31.8428
 21
29.5527
  0
LINE
  8
0
 10
-31.8428
 20
29.5527
 11
-31.3671
 21
29.6418
  0
LINE
  8
0
 10
-31.3671
 20
29.6418
 11
-31.9212
 21
29.1842
  0
LINE
  8
0
 10
-31.9212
 20
29.1842
 11
-32.397
 21
28.7254
  0
LINE
  8
0
 10
-32.397
 20
28.7254
 11
-32.7942
 21
28.2658
  0
LINE
  8
0
 10
-32.7942
 20
28.2658
 11
-33.1126
 21
27.8054
  0
LINE
  8
0
 10
-33.1126
 20
27.8054
 11
-33.3524
 21
27.3441
  0
LINE
  8
0
 10
-33.3524
 20
27.3441
 11
-33.5134
 21
26.8821
  0
LINE
  8
0
 10
-33.5134
 20
26.8821
 11
-33.5958
 21
26.4192
  0
LINE
  8
0
 10
-33.5958
 20
26.4192
 11
-33.5994
 21
25.9555
  0
LINE
  8
0
 10
-33.5994
 20
25.9555
 11
-33.5244
 21
25.491
  0
LINE
  8
0
 10
-33.5244
 20
25.491
 11
-33.3706
 21
25.0257
  0
LINE
  8
0
 10
-33.3706
 20
25.0257
 11
-33.1382
 21
24.5596
  0
LINE
  8
0
 10
-33.1382
 20
24.5596
 11
-32.8272
 21
24.093
  0
LINE
  8
0
 10
-32.8272
 20
24.093
 11
-33.7838
 21
24.3103
  0
LINE
  8
0
 10
-33.7838
 20
24.3103
 11
-34.7075
 21
24.3201
  0
LINE
  8
0
 10
-34.7075
 20
24.3201
 11
-35.5979
 21
24.1221
  0
LINE
  8
0
 10
-35.5979
 20
24.1221
 11
-36.4551
 21
23.7165
  0
LINE
  8
0
 10
-36.4551
 20
23.7165
 11
-37.279
 21
23.1031
  0
LINE
  8
0
 10
-37.279
 20
23.1031
 11
-38.0696
 21
22.2821
  0
LINE
  8
0
 10
-38.0696
 20
22.2821
 11
-38.827
 21
21.2533
  0
LINE
  8
0
 10
-38.827
 20
21.2533
 11
-39.5511
 21
20.0169
  0
LINE
  8
0
 10
-39.5511
 20
20.0169
 11
-40.2419
 21
18.5728
  0
LINE
  8
0
 10
-40.2419
 20
18.5728
 11
-40.8995
 21
16.921
  0
LINE
  8
0
 10
-40.8995
 20
16.921
 11
-41.5238
 21
15.0614
  0
LINE
  8
0
 10
-41.5238
 20
15.0614
 11
-42.1146
 21
12.9948
  0
LINE
  8
0
 10
-42.1146
 20
12.9948
 11
-42.8739
 21
16.1486
  0
LINE
  8
0
 10
-48.4762
 20
15.0614
 11
-49.1005
 21
16.9209
  0
LINE
  8
0
 10
-49.1005
 20
16.9209
 11
-49.7581
 21
18.5727
  0
LINE
  8
0
 10
-49.7581
 20
18.5727
 11
-50.4489
 21
20.0169
  0
LINE
  8
0
 10
-50.4489
 20
20.0169
 11
-51.173
 21
21.2533
  0
LINE
  8
0
 10
-51.173
 20
21.2533
 11
-51.9304
 21
22.282
  0
LINE
  8
0
 10
-51.9304
 20
22.282
 11
-52.721
 21
23.1031
  0
LINE
  8
0
 10
-52.721
 20
23.1031
 11
-53.5449
 21
23.7165
  0
LINE
  8
0
 10
-53.5449
 20
23.7165
 11
-54.4021
 21
24.1221
  0
LINE
  8
0
 10
-54.4021
 20
24.1221
 11
-54.5351
 21
24.1517
  0
LINE
  8
0
 10
-54.5351
 20
24.1517
 11
-52.7751
 21
29.5683
  0
LINE
  8
0
 10
-52.7751
 20
29.5683
 11
-52.4599
 21
29.3462
  0
LINE
  8
0
 10
-52.4599
 20
29.3462
 11
-51.5655
 21
28.5061
  0
LINE
  8
0
 10
-51.5655
 20
28.5061
 11
-50.7465
 21
27.5095
  0
LINE
  8
0
 10
-50.7465
 20
27.5095
 11
-50.0029
 21
26.3562
  0
LINE
  8
0
 10
-50.0029
 20
26.3562
 11
-49.3349
 21
25.0464
  0
LINE
  8
0
 10
-49.3349
 20
25.0464
 11
-48.7422
 21
23.58
  0
LINE
  8
0
 10
-48.7422
 20
23.58
 11
-48.225
 21
21.957
  0
LINE
  8
0
 10
-48.225
 20
21.957
 11
-47.7833
 21
20.1774
  0
LINE
  8
0
 10
-47.7833
 20
20.1774
 11
-47.417
 21
18.2412
  0
LINE
  8
0
 10
-47.417
 20
18.2412
 11
-47.1261
 21
16.1486
  0
LINE
  8
0
 10
-47.1261
 20
16.1486
 11
-47.8854
 21
12.9948
  0
LINE
  8
0
 10
-47.8854
 20
12.9948
 11
-48.4762
 21
15.0614
  0
LINE
  8
0
 10
47.1261
 20
16.1486
 11
47.417
 21
18.2413
  0
LINE
  8
0
 10
47.417
 20
18.2413
 11
47.7833
 21
20.1774
  0
LINE
  8
0
 10
47.7833
 20
20.1774
 11
48.225
 21
21.957
  0
LINE
  8
0
 10
48.225
 20
21.957
 11
48.7422
 21
23.58
  0
LINE
  8
0
 10
48.7422
 20
23.58
 11
49.3349
 21
25.0464
  0
LINE
  8
0
 10
49.3349
 20
25.0464
 11
50.003
 21
26.3562
  0
LINE
  8
0
 10
50.003
 20
26.3562
 11
50.7465
 21
27.5095
  0
LINE
  8
0
 10
50.7465
 20
27.5095
 11
51.5655
 21
28.5061
  0
LINE
  8
0
 10
51.5655
 20
28.5061
 11
52.4599
 21
29.3462
  0
LINE
  8
0
 10
52.4599
 20
29.3462
 11
52.7751
 21
29.5683
  0
LINE
  8
0
 10
52.7751
 20
29.5683
 11
54.5351
 21
24.1517
  0
LINE
  8
0
 10
54.5351
 20
24.1517
 11
54.4021
 21
24.1221
  0
LINE
  8
0
 10
54.4021
 20
24.1221
 11
53.5449
 21
23.7165
  0
LINE
  8
0
 10
53.5449
 20
23.7165
 11
52.721
 21
23.1031
  0
LINE
  8
0
 10
52.721
 20
23.1031
 11
51.9304
 21
22.2821
  0
LINE
  8
0
 10
51.9304
 20
22.2821
 11
51.173
 21
21.2533
  0
LINE
  8
0
 10
51.173
 20
21.2533
 11
50.4489
 21
20.0169
  0
LINE
  8
0
 10
50.4489
 20
20.0169
 11
49.7581
 21
18.5728
  0
LINE
  8
0
 10
49.7581
 20
18.5728
 11
49.1005
 21
16.921
  0
LINE
  8
0
 10
49.1005
 20
16.921
 11
48.4762
 21
15.0614
  0
LINE
  8
0
 10
48.4762
 20
15.0614
 11
47.8854
 21
12.9948
  0
LINE
  8
0
 10
47.8854
 20
12.9948
 11
47.1261
 21
16.1486
  0
LINE
  8
0
 10
-40.6464
 20
12
 11
-40.6294
 21
12.1143
  0
LINE
  8
0
 10
-40.6294
 20
12.1143
 11
-40.371
 21
13.146
  0
LINE
  8
0
 10
-40.371
 20
13.146
 11
-40.0127
 21
14.1474
  0
LINE
  8
0
 10
-40.0127
 20
14.1474
 11
-39.558
 21
15.1088
  0
LINE
  8
0
 10
-39.558
 20
15.1088
 11
-39.0112
 21
16.0211
  0
LINE
  8
0
 10
-39.0112
 20
16.0211
 11
-38.3776
 21
16.8754
  0
LINE
  8
0
 10
-38.3776
 20
16.8754
 11
-37.6634
 21
17.6634
  0
LINE
  8
0
 10
-37.6634
 20
17.6634
 11
-36.8754
 21
18.3776
  0
LINE
  8
0
 10
-36.8754
 20
18.3776
 11
-36.0211
 21
19.0112
  0
LINE
  8
0
 10
-36.0211
 20
19.0112
 11
-35.1088
 21
19.558
  0
LINE
  8
0
 10
-35.1088
 20
19.558
 11
-34.1474
 21
20.0127
  0
LINE
  8
0
 10
-34.1474
 20
20.0127
 11
-33.146
 21
20.371
  0
LINE
  8
0
 10
-33.146
 20
20.371
 11
-32.1143
 21
20.6295
  0
LINE
  8
0
 10
-32.1143
 20
20.6295
 11
-31.0623
 21
20.7855
  0
LINE
  8
0
 10
-31.0623
 20
20.7855
 11
-30
 21
20.8377
  0
LINE
  8
0
 10
-30
 20
20.8377
 11
-28.9377
 21
20.7855
  0
LINE
  8
0
 10
-28.9377
 20
20.7855
 11
-27.8857
 21
20.6294
  0
LINE
  8
0
 10
-27.8857
 20
20.6294
 11
-26.854
 21
20.371
  0
LINE
  8
0
 10
-26.854
 20
20.371
 11
-25.8526
 21
20.0127
  0
LINE
  8
0
 10
-25.8526
 20
20.0127
 11
-24.8911
 21
19.558
  0
LINE
  8
0
 10
-24.8911
 20
19.558
 11
-23.9789
 21
19.0112
  0
LINE
  8
0
 10
-23.9789
 20
19.0112
 11
-23.1246
 21
18.3776
  0
LINE
  8
0
 10
-23.1246
 20
18.3776
 11
-22.3366
 21
17.6634
  0
LINE
  8
0
 10
-22.3366
 20
17.6634
 11
-21.6223
 21
16.8754
  0
LINE
  8
0
 10
-21.6223
 20
16.8754
 11
-20.9888
 21
16.0211
  0
LINE
  8
0
 10
-20.9888
 20
16.0211
 11
-20.442
 21
15.1088
  0
LINE
  8
0
 10
-20.442
 20
15.1088
 11
-19.9873
 21
14.1474
  0
LINE
  8
0
 10
-19.9873
 20
14.1474
 11
-19.629
 21
13.146
  0
LINE
  8
0
 10
-19.629
 20
13.146
 11
-19.3705
 21
12.1143
  0
LINE
  8
0
 10
-19.3705
 20
12.1143
 11
-19.3536
 21
12
  0
LINE
  8
0
 10
-19.3536
 20
12
 11
-40.6464
 21
12
  0
LINE
  8
0
 10
19.3536
 20
12
 11
19.3706
 21
12.1143
  0
LINE
  8
0
 10
19.3706
 20
12.1143
 11
19.629
 21
13.146
  0
LINE
  8
0
 10
19.629
 20
13.146
 11
19.9873
 21
14.1474
  0
LINE
  8
0
 10
19.9873
 20
14.1474
 11
20.442
 21
15.1088
  0
LINE
  8
0
 10
20.442
 20
15.1088
 11
20.9888
 21
16.0211
  0
LINE
  8
0
 10
20.9888
 20
16.0211
 11
21.6223
 21
16.8754
  0
LINE
  8
0
 10
21.6223
 20
16.8754
 11
22.3366
 21
17.6634
  0
LINE
  8
0
 10
22.3366
 20
17.6634
 11
23.1246
 21
18.3776
  0
LINE
  8
0
 10
23.1246
 20
18.3776
 11
23.9789
 21
19.0112
  0
LINE
  8
0
 10
23.9789
 20
19.0112
 11
24.8911
 21
19.558
  0
LINE
  8
0
 10
24.8911
 20
19.558
 11
25.8526
 21
20.0127
  0
LINE
  8
0
 10
25.8526
 20
20.0127
 11
26.854
 21
20.371
  0
LINE
  8
0
 10
26.854
 20
20.371
 11
27.8857
 21
20.6295
  0
LINE
  8
0
 10
27.8857
 20
20.6295
 11
28.9377
 21
20.7855
  0
LINE
  8
0
 10
28.9377
 20
20.7855
 11
30
 21
20.8377
  0
LINE
  8
0
 10
30
 20
20.8377
 11
31.0623
 21
20.7855
  0
LINE
  8
0
 10
31.0623
 20
20.7855
 11
32.1143
 21
20.6294
  0
LINE
  8
0
 10
32.1143
 20
20.6294
 11
33.146
 21
20.371
  0
LINE
  8
0
 10
33.146
 20
20.371
 11
34.1474
 21
20.0127
  0
LINE
  8
0
 10
34.1474
 20
20.0127
 11
35.1088
 21
19.558
  0
LINE
  8
0
 10
35.1088
 20
19.558
 11
36.0211
 21
19.0112
  0
LINE
  8
0
 10
36.0211
 20
19.0112
 11
36.8754
 21
18.3776
  0
LINE
  8
0
 10
36.8754
 20
18.3776
 11
37.6634
 21
17.6634
  0
LINE
  8
0
 10
37.6634
 20
17.6634
 11
38.3776
 21
16.8754
  0
LINE
  8
0
 10
38.3776
 20
16.8754
 11
39.0112
 21
16.0211
  0
LINE
  8
0
 10
39.0112
 20
16.0211
 11
39.558
 21
15.1088
  0
LINE
  8
0
 10
39.558
 20
15.1088
 11
40.0127
 21
14.1474
  0
LINE
  8
0
 10
40.0127
 20
14.1474
 11
40.371
 21
13.146
  0
LINE
  8
0
 10
40.371
 20
13.146
 11
40.6295
 21
12.1143
  0
LINE
  8
0
 10
40.6295
 20
12.1143
 11
40.6464
 21
12
  0
LINE
  8
0
 10
40.6464
 20
12
 11
19.3536
 21
12
  0
LINE
  8
0
 10
-10.6464
 20
12
 11
-10.6294
 21
12.1143
  0
LINE
  8
0
 10
-10.6294
 20
12.1143
 11
-10.371
 21
13.146
  0
LINE
  8
0
 10
-10.371
 20
13.146
 11
-10.0127
 21
14.1474
  0
LINE
  8
0
 10
-10.0127
 20
14.1474
 11
-9.55798
 21
15.1088
  0
LINE
  8
0
 10
-9.55798
 20
15.1088
 11
-9.01122
 21
16.0211
  0
LINE
  8
0
 10
-9.01122
 20
16.0211
 11
-8.37764
 21
16.8754
  0
LINE
  8
0
 10
-8.37764
 20
16.8754
 11
-7.66342
 21
17.6634
  0
LINE
  8
0
 10
-7.66342
 20
17.6634
 11
-6.87535
 21
18.3776
  0
LINE
  8
0
 10
-6.87535
 20
18.3776
 11
-6.0211
 21
19.0112
  0
LINE
  8
0
 10
-6.0211
 20
19.0112
 11
-5.10884
 21
19.558
  0
LINE
  8
0
 10
-5.10884
 20
19.558
 11
-4.14738
 21
20.0127
  0
LINE
  8
0
 10
-4.14738
 20
20.0127
 11
-3.146
 21
20.371
  0
LINE
  8
0
 10
-3.146
 20
20.371
 11
-2.11429
 21
20.6295
  0
LINE
  8
0
 10
-2.11429
 20
20.6295
 11
-1.06226
 21
20.7855
  0
LINE
  8
0
 10
-1.06226
 20
20.7855
 11
0
 21
20.8377
  0
LINE
  8
0
 10
0
 20
20.8377
 11
1.06229
 21
20.7855
  0
LINE
  8
0
 10
1.06229
 20
20.7855
 11
2.11433
 21
20.6294
  0
LINE
  8
0
 10
2.11433
 20
20.6294
 11
3.146
 21
20.371
  0
LINE
  8
0
 10
3.146
 20
20.371
 11
4.14738
 21
20.0127
  0
LINE
  8
0
 10
4.14738
 20
20.0127
 11
5.10884
 21
19.558
  0
LINE
  8
0
 10
5.10884
 20
19.558
 11
6.0211
 21
19.0112
  0
LINE
  8
0
 10
6.0211
 20
19.0112
 11
6.87535
 21
18.3776
  0
LINE
  8
0
 10
6.87535
 20
18.3776
 11
7.66342
 21
17.6634
  0
LINE
  8
0
 10
7.66342
 20
17.6634
 11
8.37764
 21
16.8754
  0
LINE
  8
0
 10
8.37764
 20
16.8754
 11
9.01122
 21
16.0211
  0
LINE
  8
0
 10
9.01122
 20
16.0211
 11
9.55798
 21
15.1088
  0
LINE
  8
0
 10
9.55798
 20
15.1088
 11
10.0127
 21
14.1474
  0
LINE
  8
0
 10
10.0127
 20
14.1474
 11
10.371
 21
13.146
  0
LINE
  8
0
 10
10.371
 20
13.146
 11
10.6295
 21
12.1143
  0
LINE
  8
0
 10
10.6295
 20
12.1143
 11
10.6464
 21
12
  0
LINE
  8
0
 10
10.6464
 20
12
 11
-10.6464
 21
12
  0
LINE
  8
0
 10
-58.4834
 20
12
 11
-55.8771
 21
20.0215
  0
LINE
  8
0
 10
-55.8771
 20
20.0215
 11
-55.8526
 21
20.0127
  0
LINE
  8
0
 10
-55.8526
 20
20.0127
 11
-54.8911
 21
19.558
  0
LINE
  8
0
 10
-54.8911
 20
19.558
 11
-53.9789
 21
19.0112
  0
LINE
  8
0
 10
-53.9789
 20
19.0112
 11
-53.1246
 21
18.3776
  0
LINE
  8
0
 10
-53.1246
 20
18.3776
 11
-52.3366
 21
17.6634
  0
LINE
  8
0
 10
-52.3366
 20
17.6634
 11
-51.6223
 21
16.8754
  0
LINE
  8
0
 10
-51.6223
 20
16.8754
 11
-50.9888
 21
16.0211
  0
LINE
  8
0
 10
-50.9888
 20
16.0211
 11
-50.442
 21
15.1088
  0
LINE
  8
0
 10
-50.442
 20
15.1088
 11
-49.9873
 21
14.1474
  0
LINE
  8
0
 10
-49.9873
 20
14.1474
 11
-49.629
 21
13.146
  0
LINE
  8
0
 10
-49.629
 20
13.146
 11
-49.3705
 21
12.1143
  0
LINE
  8
0
 10
-49.3705
 20
12.1143
 11
-49.3536
 21
12
  0
LINE
  8
0
 10
-49.3536
 20
12
 11
-58.4834
 21
12
  0
LINE
  8
0
 10
49.3536
 20
12
 11
49.3706
 21
12.1143
  0
LINE
  8
0
 10
49.3706
 20
12.1143
 11
49.629
 21
13.146
  0
LINE
  8
0
 10
49.629
 20
13.146
 11
49.9873
 21
14.1474
  0
LINE
  8
0
 10
49.9873
 20
14.1474
 11
50.442
 21
15.1088
  0
LINE
  8
0
 10
50.442
 20
15.1088
 11
50.9888
 21
16.0211
  0
LINE
  8
0
 10
50.9888
 20
16.0211
 11
51.6223
 21
16.8754
  0
LINE
  8
0
 10
51.6223
 20
16.8754
 11
52.3366
 21
17.6634
  0
LINE
  8
0
 10
52.3366
 20
17.6634
 11
53.1246
 21
18.3776
  0
LINE
  8
0
 10
53.1246
 20
18.3776
 11
53.9789
 21
19.0112
  0
LINE
  8
0
 10
53.9789
 20
19.0112
 11
54.8911
 21
19.558
  0
LINE
  8
0
 10
54.8911
 20
19.558
 11
55.8526
 21
20.0127
  0
LINE
  8
0
 10
55.8526
 20
20.0127
 11
55.8771
 21
20.0215
  0
LINE
  8
0
 10
55.8771
 20
20.0215
 11
58.4834
 21
12
  0
LINE
  8
0
 10
58.4834
 20
12
 11
49.3536
 21
12
  0
LINE
  8
0
 10
-10
 20
7
 11
-10
 21
11
  0
LINE
  8
0
 10
-10
 20
11
 11
10
 21
11
  0
LINE
  8
0
 10
10
 20
11
 11
10
 21
7
  0
LINE
  8
0
 10
10
 20
7
 11
-10
 21
7
  0
LINE
  8
0
 10
-68.6534
 20
2.70622
 11
-68.7785
 21
2.71805
  0
LINE
  8
0
 10
-68.7785
 20
2.71805
 11
-68.9026
 21
2.7377
  0
LINE
  8
0
 10
-68.9026
 20
2.7377
 11
-69.0252
 21
2.76511
  0
LINE
  8
0
 10
-69.0252
 20
2.76511
 11
-69.1459
 21
2.80016
  0
LINE
  8
0
 10
-69.1459
 20
2.80016
 11
-69.2641
 21
2.84273
  0
LINE
  8
0
 10
-69.2641
 20
2.84273
 11
-69.3794
 21
2.89262
  0
LINE
  8
0
 10
-69.3794
 20
2.89262
 11
-69.4914
 21
2.94966
  0
LINE
  8
0
 10
-69.4914
 20
2.94966
 11
-69.5995
 21
3.01363
  0
LINE
  8
0
 10
-69.5995
 20
3.01363
 11
-69.7034
 21
3.08424
  0
LINE
  8
0
 10
-69.7034
 20
3.08424
 11
-69.8027
 21
3.16125
  0
LINE
  8
0
 10
-69.8027
 20
3.16125
 11
-69.897
 21
3.24434
  0
LINE
  8
0
 10
-69.897
 20
3.24434
 11
-69.9858
 21
3.33318
  0
LINE
  8
0
 10
-69.9858
 20
3.33318
 11
-70.0689
 21
3.42743
  0
LINE
  8
0
 10
-70.0689
 20
3.42743
 11
-70.1459
 21
3.5267
  0
LINE
  8
0
 10
-70.1459
 20
3.5267
 11
-70.2165
 21
3.63062
  0
LINE
  8
0
 10
-70.2165
 20
3.63062
 11
-70.2805
 21
3.73877
  0
LINE
  8
0
 10
-70.2805
 20
3.73877
 11
-70.3375
 21
3.85072
  0
LINE
  8
0
 10
-70.3375
 20
3.85072
 11
-70.3874
 21
3.96602
  0
LINE
  8
0
 10
-70.3874
 20
3.96602
 11
-70.43
 21
4.08424
  0
LINE
  8
0
 10
-70.43
 20
4.08424
 11
-70.465
 21
4.2049
  0
LINE
  8
0
 10
-70.465
 20
4.2049
 11
-70.4924
 21
4.32751
  0
LINE
  8
0
 10
-70.4924
 20
4.32751
 11
-70.5121
 21
4.45161
  0
LINE
  8
0
 10
-70.5121
 20
4.45161
 11
-70.5239
 21
4.57669
  0
LINE
  8
0
 10
-70.5239
 20
4.57669
 11
-70.5279
 21
4.70227
  0
LINE
  8
0
 10
-70.5279
 20
4.70227
 11
-70.5239
 21
4.82785
  0
LINE
  8
0
 10
-70.5239
 20
4.82785
 11
-70.5121
 21
4.95294
  0
LINE
  8
0
 10
-70.5121
 20
4.95294
 11
-70.4924
 21
5.07704
  0
LINE
  8
0
 10
-70.4924
 20
5.07704
 11
-70.465
 21
5.19966
  0
LINE
  8
0
 10
-70.465
 20
5.19966
 11
-70.43
 21
5.32031
  0
LINE
  8
0
 10
-70.43
 20
5.32031
 11
-70.3874
 21
5.43852
  0
LINE
  8
0
 10
-70.3874
 20
5.43852
 11
-70.3375
 21
5.55383
  0
LINE
  8
0
 10
-70.3375
 20
5.55383
 11
-70.2805
 21
5.66579
  0
LINE
  8
0
 10
-70.2805
 20
5.66579
 11
-70.2165
 21
5.77393
  0
LINE
  8
0
 10
-70.2165
 20
5.77393
 11
-70.1459
 21
5.87784
  0
LINE
  8
0
 10
-70.1459
 20
5.87784
 11
-70.0689
 21
5.97713
  0
LINE
  8
0
 10
-70.0689
 20
5.97713
 11
-69.9858
 21
6.07137
  0
LINE
  8
0
 10
-69.9858
 20
6.07137
 11
-69.897
 21
6.16022
  0
LINE
  8
0
 10
-69.897
 20
6.16022
 11
-69.8027
 21
6.2433
  0
LINE
  8
0
 10
-69.8027
 20
6.2433
 11
-69.7034
 21
6.32031
  0
LINE
  8
0
 10
-69.7034
 20
6.32031
 11
-69.5995
 21
6.39093
  0
LINE
  8
0
 10
-69.5995
 20
6.39093
 11
-69.4914
 21
6.4549
  0
LINE
  8
0
 10
-69.4914
 20
6.4549
 11
-69.3794
 21
6.51193
  0
LINE
  8
0
 10
-69.3794
 20
6.51193
 11
-69.2641
 21
6.56183
  0
LINE
  8
0
 10
-69.2641
 20
6.56183
 11
-69.1459
 21
6.60439
  0
LINE
  8
0
 10
-69.1459
 20
6.60439
 11
-69.0252
 21
6.63943
  0
LINE
  8
0
 10
-69.0252
 20
6.63943
 11
-68.9026
 21
6.66685
  0
LINE
  8
0
 10
-68.9026
 20
6.66685
 11
-68.7785
 21
6.68651
  0
LINE
  8
0
 10
-68.7785
 20
6.68651
 11
-68.6534
 21
6.69833
  0
LINE
  8
0
 10
-68.6534
 20
6.69833
 11
-68.5279
 21
6.70227
  0
LINE
  8
0
 10
-68.5279
 20
6.70227
 11
-68.4023
 21
6.69833
  0
LINE
  8
0
 10
-68.4023
 20
6.69833
 11
-68.2772
 21
6.68651
  0
LINE
  8
0
 10
-68.2772
 20
6.68651
 11
-68.1531
 21
6.66685
  0
LINE
  8
0
 10
-68.1531
 20
6.66685
 11
-68.0305
 21
6.63943
  0
LINE
  8
0
 10
-68.0305
 20
6.63943
 11
-67.9098
 21
6.60439
  0
LINE
  8
0
 10
-67.9098
 20
6.60439
 11
-67.7916
 21
6.56183
  0
LINE
  8
0
 10
-67.7916
 20
6.56183
 11
-67.6763
 21
6.51193
  0
LINE
  8
0
 10
-67.6763
 20
6.51193
 11
-67.5643
 21
6.4549
  0
LINE
  8
0
 10
-67.5643
 20
6.4549
 11
-67.4562
 21
6.39093
  0
LINE
  8
0
 10
-67.4562
 20
6.39093
 11
-67.3523
 21
6.32031
  0
LINE
  8
0
 10
-67.3523
 20
6.32031
 11
-67.253
 21
6.2433
  0
LINE
  8
0
 10
-67.253
 20
6.2433
 11
-67.1588
 21
6.16022
  0
LINE
  8
0
 10
-67.1588
 20
6.16022
 11
-67.0699
 21
6.07137
  0
LINE
  8
0
 10
-67.0699
 20
6.07137
 11
-66.9868
 21
5.97713
  0
LINE
  8
0
 10
-66.9868
 20
5.97713
 11
-66.9098
 21
5.87784
  0
LINE
  8
0
 10
-66.9098
 20
5.87784
 11
-66.8392
 21
5.77393
  0
LINE
  8
0
 10
-66.8392
 20
5.77393
 11
-66.7752
 21
5.66579
  0
LINE
  8
0
 10
-66.7752
 20
5.66579
 11
-66.7182
 21
5.55383
  0
LINE
  8
0
 10
-66.7182
 20
5.55383
 11
-66.6683
 21
5.43852
  0
LINE
  8
0
 10
-66.6683
 20
5.43852
 11
-66.6257
 21
5.32031
  0
LINE
  8
0
 10
-66.6257
 20
5.32031
 11
-66.5907
 21
5.19966
  0
LINE
  8
0
 10
-66.5907
 20
5.19966
 11
-66.5633
 21
5.07704
  0
LINE
  8
0
 10
-66.5633
 20
5.07704
 11
-66.5436
 21
4.95294
  0
LINE
  8
0
 10
-66.5436
 20
4.95294
 11
-66.5318
 21
4.82785
  0
LINE
  8
0
 10
-66.5318
 20
4.82785
 11
-66.5279
 21
4.70227
  0
LINE
  8
0
 10
-66.5279
 20
4.70227
 11
-66.5318
 21
4.57669
  0
LINE
  8
0
 10
-66.5318
 20
4.57669
 11
-66.5436
 21
4.45161
  0
LINE
  8
0
 10
-66.5436
 20
4.45161
 11
-66.5633
 21
4.32751
  0
LINE
  8
0
 10
-66.5633
 20
4.32751
 11
-66.5907
 21
4.2049
  0
LINE
  8
0
 10
-66.5907
 20
4.2049
 11
-66.6257
 21
4.08424
  0
LINE
  8
0
 10
-66.6257
 20
4.08424
 11
-66.6683
 21
3.96602
  0
LINE
  8
0
 10
-66.6683
 20
3.96602
 11
-66.7182
 21
3.85072
  0
LINE
  8
0
 10
-66.7182
 20
3.85072
 11
-66.7752
 21
3.73877
  0
LINE
  8
0
 10
-66.7752
 20
3.73877
 11
-66.8392
 21
3.63062
  0
LINE
  8
0
 10
-66.8392
 20
3.63062
 11
-66.9098
 21
3.5267
  0
LINE
  8
0
 10
-66.9098
 20
3.5267
 11
-66.9868
 21
3.42743
  0
LINE
  8
0
 10
-66.9868
 20
3.42743
 11
-67.0699
 21
3.33318
  0
LINE
  8
0
 10
-67.0699
 20
3.33318
 11
-67.1588
 21
3.24434
  0
LINE
  8
0
 10
-67.1588
 20
3.24434
 11
-67.253
 21
3.16125
  0
LINE
  8
0
 10
-67.253
 20
3.16125
 11
-67.3523
 21
3.08424
  0
LINE
  8
0
 10
-67.3523
 20
3.08424
 11
-67.4562
 21
3.01363
  0
LINE
  8
0
 10
-67.4562
 20
3.01363
 11
-67.5643
 21
2.94966
  0
LINE
  8
0
 10
-67.5643
 20
2.94966
 11
-67.6763
 21
2.89262
  0
LINE
  8
0
 10
-67.6763
 20
2.89262
 11
-67.7916
 21
2.84273
  0
LINE
  8
0
 10
-67.7916
 20
2.84273
 11
-67.9098
 21
2.80016
  0
LINE
  8
0
 10
-67.9098
 20
2.80016
 11
-68.0305
 21
2.76511
  0
LINE
  8
0
 10
-68.0305
 20
2.76511
 11
-68.1531
 21
2.7377
  0
LINE
  8
0
 10
-68.1531
 20
2.7377
 11
-68.2772
 21
2.71805
  0
LINE
  8
0
 10
-68.2772
 20
2.71805
 11
-68.4023
 21
2.70622
  0
LINE
  8
0
 10
-68.4023
 20
2.70622
 11
-68.5279
 21
2.70227
  0
LINE
  8
0
 10
-68.5279
 20
2.70227
 11
-68.6534
 21
2.70622
  0
LINE
  8
0
 10
68.4023
 20
2.70622
 11
68.2772
 21
2.71805
  0
LINE
  8
0
 10
68.2772
 20
2.71805
 11
68.1531
 21
2.7377
  0
LINE
  8
0
 10
68.1531
 20
2.7377
 11
68.0305
 21
2.76511
  0
LINE
  8
0
 10
68.0305
 20
2.76511
 11
67.9098
 21
2.80016
  0
LINE
  8
0
 10
67.9098
 20
2.80016
 11
67.7916
 21
2.84273
  0
LINE
  8
0
 10
67.7916
 20
2.84273
 11
67.6763
 21
2.89262
  0
LINE
  8
0
 10
67.6763
 20
2.89262
 11
67.5643
 21
2.94966
  0
LINE
  8
0
 10
67.5643
 20
2.94966
 11
67.4562
 21
3.01363
  0
LINE
  8
0
 10
67.4562
 20
3.01363
 11
67.3523
 21
3.08424
  0
LINE
  8
0
 10
67.3523
 20
3.08424
 11
67.253
 21
3.16125
  0
LINE
  8
0
 10
67.253
 20
3.16125
 11
67.1588
 21
3.24434
  0
LINE
  8
0
 10
67.1588
 20
3.24434
 11
67.0699
 21
3.33318
  0
LINE
  8
0
 10
67.0699
 20
3.33318
 11
66.9868
 21
3.42743
  0
LINE
  8
0
 10
66.9868
 20
3.42743
 11
66.9098
 21
3.5267
  0
LINE
  8
0
 10
66.9098
 20
3.5267
 11
66.8392
 21
3.63062
  0
LINE
  8
0
 10
66.8392
 20
3.63062
 11
66.7752
 21
3.73877
  0
LINE
  8
0
 10
66.7752
 20
3.73877
 11
66.7182
 21
3.85072
  0
LINE
  8
0
 10
66.7182
 20
3.85072
 11
66.6683
 21
3.96602
  0
LINE
  8
0
 10
66.6683
 20
3.96602
 11
66.6257
 21
4.08424
  0
LINE
  8
0
 10
66.6257
 20
4.08424
 11
66.5907
 21
4.2049
  0
LINE
  8
0
 10
66.5907
 20
4.2049
 11
66.5633
 21
4.32751
  0
LINE
  8
0
 10
66.5633
 20
4.32751
 11
66.5436
 21
4.45161
  0
LINE
  8
0
 10
66.5436
 20
4.45161
 11
66.5318
 21
4.57669
  0
LINE
  8
0
 10
66.5318
 20
4.57669
 11
66.5279
 21
4.70227
  0
LINE
  8
0
 10
66.5279
 20
4.70227
 11
66.5318
 21
4.82785
  0
LINE
  8
0
 10
66.5318
 20
4.82785
 11
66.5436
 21
4.95294
  0
LINE
  8
0
 10
66.5436
 20
4.95294
 11
66.5633
 21
5.07704
  0
LINE
  8
0
 10
66.5633
 20
5.07704
 11
66.5907
 21
5.19966
  0
LINE
  8
0
 10
66.5907
 20
5.19966
 11
66.6257
 21
5.32031
  0
LINE
  8
0
 10
66.6257
 20
5.32031
 11
66.6683
 21
5.43852
  0
LINE
  8
0
 10
66.6683
 20
5.43852
 11
66.7182
 21
5.55383
  0
LINE
  8
0
 10
66.7182
 20
5.55383
 11
66.7752
 21
5.66579
  0
LINE
  8
0
 10
66.7752
 20
5.66579
 11
66.8392
 21
5.77393
  0
LINE
  8
0
 10
66.8392
 20
5.77393
 11
66.9098
 21
5.87784
  0
LINE
  8
0
 10
66.9098
 20
5.87784
 11
66.9868
 21
5.97713
  0
LINE
  8
0
 10
66.9868
 20
5.97713
 11
67.0699
 21
6.07137
  0
LINE
  8
0
 10
67.0699
 20
6.07137
 11
67.1588
 21
6.16022
  0
LINE
  8
0
 10
67.1588
 20
6.16022
 11
67.253
 21
6.2433
  0
LINE
  8
0
 10
67.253
 20
6.2433
 11
67.3523
 21
6.32031
  0
LINE
  8
0
 10
67.3523
 20
6.32031
 11
67.4562
 21
6.39093
  0
LINE
  8
0
 10
67.4562
 20
6.39093
 11
67.5643
 21
6.4549
  0
LINE
  8
0
 10
67.5643
 20
6.4549
 11
67.6763
 21
6.51193
  0
LINE
  8
0
 10
67.6763
 20
6.51193
 11
67.7916
 21
6.56183
  0
LINE
  8
0
 10
67.7916
 20
6.56183
 11
67.9098
 21
6.60439
  0
LINE
  8
0
 10
67.9098
 20
6.60439
 11
68.0305
 21
6.63943
  0
LINE
  8
0
 10
68.0305
 20
6.63943
 11
68.1531
 21
6.66685
  0
LINE
  8
0
 10
68.1531
 20
6.66685
 11
68.2772
 21
6.68651
  0
LINE
  8
0
 10
68.2772
 20
6.68651
 11
68.4023
 21
6.69833
  0
LINE
  8
0
 10
68.4023
 20
6.69833
 11
68.5279
 21
6.70227
  0
LINE
  8
0
 10
68.5279
 20
6.70227
 11
68.6534
 21
6.69833
  0
LINE
  8
0
 10
68.6534
 20
6.69833
 11
68.7785
 21
6.68651
  0
LINE
  8
0
 10
68.7785
 20
6.68651
 11
68.9026
 21
6.66685
  0
LINE
  8
0
 10
68.9026
 20
6.66685
 11
69.0252
 21
6.63943
  0
LINE
  8
0
 10
69.0252
 20
6.63943
 11
69.1459
 21
6.60439
  0
LINE
  8
0
 10
69.1459
 20
6.60439
 11
69.2641
 21
6.56183
  0
LINE
  8
0
 10
69.2641
 20
6.56183
 11
69.3794
 21
6.51193
  0
LINE
  8
0
 10
69.3794
 20
6.51193
 11
69.4914
 21
6.4549
  0
LINE
  8
0
 10
69.4914
 20
6.4549
 11
69.5995
 21
6.39093
  0
LINE
  8
0
 10
69.5995
 20
6.39093
 11
69.7034
 21
6.32031
  0
LINE
  8
0
 10
69.7034
 20
6.32031
 11
69.8027
 21
6.2433
  0
LINE
  8
0
 10
69.8027
 20
6.2433
 11
69.897
 21
6.16022
  0
LINE
  8
0
 10
69.897
 20
6.16022
 11
69.9858
 21
6.07137
  0
LINE
  8
0
 10
69.9858
 20
6.07137
 11
70.0689
 21
5.97713
  0
LINE
  8
0
 10
70.0689
 20
5.97713
 11
70.1459
 21
5.87784
  0
LINE
  8
0
 10
70.1459
 20
5.87784
 11
70.2165
 21
5.77393
  0
LINE
  8
0
 10
70.2165
 20
5.77393
 11
70.2805
 21
5.66579
  0
LINE
  8
0
 10
70.2805
 20
5.66579
 11
70.3375
 21
5.55383
  0
LINE
  8
0
 10
70.3375
 20
5.55383
 11
70.3874
 21
5.43852
  0
LINE
  8
0
 10
70.3874
 20
5.43852
 11
70.43
 21
5.32031
  0
LINE
  8
0
 10
70.43
 20
5.32031
 11
70.465
 21
5.19966
  0
LINE
  8
0
 10
70.465
 20
5.19966
 11
70.4924
 21
5.07704
  0
LINE
  8
0
 10
70.4924
 20
5.07704
 11
70.5121
 21
4.95294
  0
LINE
  8
0
 10
70.5121
 20
4.95294
 11
70.5239
 21
4.82785
  0
LINE
  8
0
 10
70.5239
 20
4.82785
 11
70.5279
 21
4.70227
  0
LINE
  8
0
 10
70.5279
 20
4.70227
 11
70.5239
 21
4.57669
  0
LINE
  8
0
 10
70.5239
 20
4.57669
 11
70.5121
 21
4.45161
  0
LINE
  8
0
 10
70.5121
 20
4.45161
 11
70.4924
 21
4.32751
  0
LINE
  8
0
 10
70.4924
 20
4.32751
 11
70.465
 21
4.2049
  0
LINE
  8
0
 10
70.465
 20
4.2049
 11
70.43
 21
4.08424
  0
LINE
  8
0
 10
70.43
 20
4.08424
 11
70.3874
 21
3.96602
  0
LINE
  8
0
 10
70.3874
 20
3.96602
 11
70.3375
 21
3.85072
  0
LINE
  8
0
 10
70.3375
 20
3.85072
 11
70.2805
 21
3.73877
  0
LINE
  8
0
 10
70.2805
 20
3.73877
 11
70.2165
 21
3.63062
  0
LINE
  8
0
 10
70.2165
 20
3.63062
 11
70.1459
 21
3.5267
  0
LINE
  8
0
 10
70.1459
 20
3.5267
 11
70.0689
 21
3.42743
  0
LINE
  8
0
 10
70.0689
 20
3.42743
 11
69.9858
 21
3.33318
  0
LINE
  8
0
 10
69.9858
 20
3.33318
 11
69.897
 21
3.24434
  0
LINE
  8
0
 10
69.897
 20
3.24434
 11
69.8027
 21
3.16125
  0
LINE
  8
0
 10
69.8027
 20
3.16125
 11
69.7034
 21
3.08424
  0
LINE
  8
0
 10
69.7034
 20
3.08424
 11
69.5995
 21
3.01363
  0
LINE
  8
0
 10
69.5995
 20
3.01363
 11
69.4914
 21
2.94966
  0
LINE
  8
0
 10
69.4914
 20
2.94966
 11
69.3794
 21
2.89262
  0
LINE
  8
0
 10
69.3794
 20
2.89262
 11
69.2641
 21
2.84273
  0
LINE
  8
0
 10
69.2641
 20
2.84273
 11
69.1459
 21
2.80016
  0
LINE
  8
0
 10
69.1459
 20
2.80016
 11
69.0252
 21
2.76511
  0
LINE
  8
0
 10
69.0252
 20
2.76511
 11
68.9026
 21
2.7377
  0
LINE
  8
0
 10
68.9026
 20
2.7377
 11
68.7785
 21
2.71805
  0
LINE
  8
0
 10
68.7785
 20
2.71805
 11
68.6534
 21
2.70622
  0
LINE
  8
0
 10
68.6534
 20
2.70622
 11
68.5279
 21
2.70227
  0
LINE
  8
0
 10
68.5279
 20
2.70227
 11
68.4023
 21
2.70622
  0
ENDSEC
  0
SECTION
  2
OBJECTS
  0
DICTIONARY
  0
ENDSEC
  0
EOF
