  0
SECTION
  2
BLOCKS
  0
ENDSEC
  0
SECTION
  2
ENTITIES
  0
LINE
  8
0
 10
0
 20
230.826
 11
-75
 21
0
  0
LINE
  8
0
 10
-75
 20
0
 11
75
 21
0
  0
LINE
  8
0
 10
75
 20
0
 11
0
 21
230.826
  0
LINE
  8
0
 10
-0.12558
 20
212.83
 11
-0.250656
 21
212.842
  0
LINE
  8
0
 10
-0.250656
 20
212.842
 11
-0.374756
 21
212.862
  0
LINE
  8
0
 10
-0.374756
 20
212.862
 11
-0.497375
 21
212.889
  0
LINE
  8
0
 10
-0.497375
 20
212.889
 11
-0.618027
 21
212.924
  0
LINE
  8
0
 10
-0.618027
 20
212.924
 11
-0.736237
 21
212.967
  0
LINE
  8
0
 10
-0.736237
 20
212.967
 11
-0.851547
 21
213.017
  0
LINE
  8
0
 10
-0.851547
 20
213.017
 11
-0.963501
 21
213.074
  0
LINE
  8
0
 10
-0.963501
 20
213.074
 11
-1.07164
 21
213.138
  0
LINE
  8
0
 10
-1.07164
 20
213.138
 11
-1.17557
 21
213.208
  0
LINE
  8
0
 10
-1.17557
 20
213.208
 11
-1.27484
 21
213.285
  0
LINE
  8
0
 10
-1.27484
 20
213.285
 11
-1.36908
 21
213.368
  0
LINE
  8
0
 10
-1.36908
 20
213.368
 11
-1.45793
 21
213.457
  0
LINE
  8
0
 10
-1.45793
 20
213.457
 11
-1.54102
 21
213.551
  0
LINE
  8
0
 10
-1.54102
 20
213.551
 11
-1.61803
 21
213.651
  0
LINE
  8
0
 10
-1.61803
 20
213.651
 11
-1.68864
 21
213.755
  0
LINE
  8
0
 10
-1.68864
 20
213.755
 11
-1.75261
 21
213.863
  0
LINE
  8
0
 10
-1.75261
 20
213.863
 11
-1.80965
 21
213.975
  0
LINE
  8
0
 10
-1.80965
 20
213.975
 11
-1.85954
 21
214.09
  0
LINE
  8
0
 10
-1.85954
 20
214.09
 11
-1.9021
 21
214.208
  0
LINE
  8
0
 10
-1.9021
 20
214.208
 11
-1.93716
 21
214.329
  0
LINE
  8
0
 10
-1.93716
 20
214.329
 11
-1.96457
 21
214.451
  0
LINE
  8
0
 10
-1.96457
 20
214.451
 11
-1.98422
 21
214.576
  0
LINE
  8
0
 10
-1.98422
 20
214.576
 11
-1.99605
 21
214.701
  0
LINE
  8
0
 10
-1.99605
 20
214.701
 11
-2
 21
214.826
  0
LINE
  8
0
 10
-2
 20
214.826
 11
-1.99605
 21
214.952
  0
LINE
  8
0
 10
-1.99605
 20
214.952
 11
-1.98422
 21
215.077
  0
LINE
  8
0
 10
-1.98422
 20
215.077
 11
-1.96457
 21
215.201
  0
LINE
  8
0
 10
-1.96457
 20
215.201
 11
-1.93716
 21
215.324
  0
LINE
  8
0
 10
-1.93716
 20
215.324
 11
-1.9021
 21
215.444
  0
LINE
  8
0
 10
-1.9021
 20
215.444
 11
-1.85954
 21
215.562
  0
LINE
  8
0
 10
-1.85954
 20
215.562
 11
-1.80965
 21
215.678
  0
LINE
  8
0
 10
-1.80965
 20
215.678
 11
-1.75261
 21
215.79
  0
LINE
  8
0
 10
-1.75261
 20
215.79
 11
-1.68864
 21
215.898
  0
LINE
  8
0
 10
-1.68864
 20
215.898
 11
-1.61803
 21
216.002
  0
LINE
  8
0
 10
-1.61803
 20
216.002
 11
-1.54102
 21
216.101
  0
LINE
  8
0
 10
-1.54102
 20
216.101
 11
-1.45793
 21
216.195
  0
LINE
  8
0
 10
-1.45793
 20
216.195
 11
-1.36908
 21
216.284
  0
LINE
  8
0
 10
-1.36908
 20
216.284
 11
-1.27484
 21
216.367
  0
LINE
  8
0
 10
-1.27484
 20
216.367
 11
-1.17557
 21
216.444
  0
LINE
  8
0
 10
-1.17557
 20
216.444
 11
-1.07164
 21
216.515
  0
LINE
  8
0
 10
-1.07164
 20
216.515
 11
-0.963501
 21
216.579
  0
LINE
  8
0
 10
-0.963501
 20
216.579
 11
-0.851547
 21
216.636
  0
LINE
  8
0
 10
-0.851547
 20
216.636
 11
-0.736237
 21
216.686
  0
LINE
  8
0
 10
-0.736237
 20
216.686
 11
-0.618027
 21
216.728
  0
LINE
  8
0
 10
-0.618027
 20
216.728
 11
-0.497375
 21
216.763
  0
LINE
  8
0
 10
-0.497375
 20
216.763
 11
-0.374756
 21
216.791
  0
LINE
  8
0
 10
-0.374756
 20
216.791
 11
-0.250656
 21
216.81
  0
LINE
  8
0
 10
-0.250656
 20
216.81
 11
-0.12558
 21
216.822
  0
LINE
  8
0
 10
-0.12558
 20
216.822
 11
0
 21
216.826
  0
LINE
  8
0
 10
0
 20
216.826
 11
0.12558
 21
216.822
  0
LINE
  8
0
 10
0.12558
 20
216.822
 11
0.250656
 21
216.81
  0
LINE
  8
0
 10
0.250656
 20
216.81
 11
0.374756
 21
216.791
  0
LINE
  8
0
 10
0.374756
 20
216.791
 11
0.497375
 21
216.763
  0
LINE
  8
0
 10
0.497375
 20
216.763
 11
0.618027
 21
216.728
  0
LINE
  8
0
 10
0.618027
 20
216.728
 11
0.736237
 21
216.686
  0
LINE
  8
0
 10
0.736237
 20
216.686
 11
0.851547
 21
216.636
  0
LINE
  8
0
 10
0.851547
 20
216.636
 11
0.963501
 21
216.579
  0
LINE
  8
0
 10
0.963501
 20
216.579
 11
1.07164
 21
216.515
  0
LINE
  8
0
 10
1.07164
 20
216.515
 11
1.17557
 21
216.444
  0
LINE
  8
0
 10
1.17557
 20
216.444
 11
1.27484
 21
216.367
  0
LINE
  8
0
 10
1.27484
 20
216.367
 11
1.36908
 21
216.284
  0
LINE
  8
0
 10
1.36908
 20
216.284
 11
1.45793
 21
216.195
  0
LINE
  8
0
 10
1.45793
 20
216.195
 11
1.54102
 21
216.101
  0
LINE
  8
0
 10
1.54102
 20
216.101
 11
1.61803
 21
216.002
  0
LINE
  8
0
 10
1.61803
 20
216.002
 11
1.68864
 21
215.898
  0
LINE
  8
0
 10
1.68864
 20
215.898
 11
1.75261
 21
215.79
  0
LINE
  8
0
 10
1.75261
 20
215.79
 11
1.80965
 21
215.678
  0
LINE
  8
0
 10
1.80965
 20
215.678
 11
1.85954
 21
215.562
  0
LINE
  8
0
 10
1.85954
 20
215.562
 11
1.9021
 21
215.444
  0
LINE
  8
0
 10
1.9021
 20
215.444
 11
1.93716
 21
215.324
  0
LINE
  8
0
 10
1.93716
 20
215.324
 11
1.96457
 21
215.201
  0
LINE
  8
0
 10
1.96457
 20
215.201
 11
1.98422
 21
215.077
  0
LINE
  8
0
 10
1.98422
 20
215.077
 11
1.99605
 21
214.952
  0
LINE
  8
0
 10
1.99605
 20
214.952
 11
2
 21
214.826
  0
LINE
  8
0
 10
2
 20
214.826
 11
1.99605
 21
214.701
  0
LINE
  8
0
 10
1.99605
 20
214.701
 11
1.98422
 21
214.576
  0
LINE
  8
0
 10
1.98422
 20
214.576
 11
1.96457
 21
214.451
  0
LINE
  8
0
 10
1.96457
 20
214.451
 11
1.93716
 21
214.329
  0
LINE
  8
0
 10
1.93716
 20
214.329
 11
1.9021
 21
214.208
  0
LINE
  8
0
 10
1.9021
 20
214.208
 11
1.85954
 21
214.09
  0
LINE
  8
0
 10
1.85954
 20
214.09
 11
1.80965
 21
213.975
  0
LINE
  8
0
 10
1.80965
 20
213.975
 11
1.75261
 21
213.863
  0
LINE
  8
0
 10
1.75261
 20
213.863
 11
1.68864
 21
213.755
  0
LINE
  8
0
 10
1.68864
 20
213.755
 11
1.61803
 21
213.651
  0
LINE
  8
0
 10
1.61803
 20
213.651
 11
1.54102
 21
213.551
  0
LINE
  8
0
 10
1.54102
 20
213.551
 11
1.45793
 21
213.457
  0
LINE
  8
0
 10
1.45793
 20
213.457
 11
1.36908
 21
213.368
  0
LINE
  8
0
 10
1.36908
 20
213.368
 11
1.27484
 21
213.285
  0
LINE
  8
0
 10
1.27484
 20
213.285
 11
1.17557
 21
213.208
  0
LINE
  8
0
 10
1.17557
 20
213.208
 11
1.07164
 21
213.138
  0
LINE
  8
0
 10
1.07164
 20
213.138
 11
0.963501
 21
213.074
  0
LINE
  8
0
 10
0.963501
 20
213.074
 11
0.851547
 21
213.017
  0
LINE
  8
0
 10
0.851547
 20
213.017
 11
0.736237
 21
212.967
  0
LINE
  8
0
 10
0.736237
 20
212.967
 11
0.618027
 21
212.924
  0
LINE
  8
0
 10
0.618027
 20
212.924
 11
0.497375
 21
212.889
  0
LINE
  8
0
 10
0.497375
 20
212.889
 11
0.374756
 21
212.862
  0
LINE
  8
0
 10
0.374756
 20
212.862
 11
0.250656
 21
212.842
  0
LINE
  8
0
 10
0.250656
 20
212.842
 11
0.12558
 21
212.83
  0
LINE
  8
0
 10
0.12558
 20
212.83
 11
0
 21
212.826
  0
LINE
  8
0
 10
0
 20
212.826
 11
-0.12558
 21
212.83
  0
LINE
  8
0
 10
-0.584106
 20
179.563
 11
-1.14487
 21
179.734
  0
LINE
  8
0
 10
-1.14487
 20
179.734
 11
-1.66351
 21
180.011
  0
LINE
  8
0
 10
-1.66351
 20
180.011
 11
-2.11761
 21
180.383
  0
LINE
  8
0
 10
-2.11761
 20
180.383
 11
-2.37076
 21
180.692
  0
LINE
  8
0
 10
-2.37076
 20
180.692
 11
-3.4902
 21
181.252
  0
LINE
  8
0
 10
-3.4902
 20
181.252
 11
-2.52162
 21
184.233
  0
LINE
  8
0
 10
-2.52162
 20
184.233
 11
-2.37076
 21
184.308
  0
LINE
  8
0
 10
-2.37076
 20
184.308
 11
-2.11716
 21
184.618
  0
LINE
  8
0
 10
-2.11716
 20
184.618
 11
-1.66351
 21
184.989
  0
LINE
  8
0
 10
-1.66351
 20
184.989
 11
-1.14487
 21
185.266
  0
LINE
  8
0
 10
-1.14487
 20
185.266
 11
-0.584106
 21
185.436
  0
LINE
  8
0
 10
-0.584106
 20
185.436
 11
0
 21
185.494
  0
LINE
  8
0
 10
0
 20
185.494
 11
0.584106
 21
185.437
  0
LINE
  8
0
 10
0.584106
 20
185.437
 11
1.14487
 21
185.266
  0
LINE
  8
0
 10
1.14487
 20
185.266
 11
1.66306
 21
184.99
  0
LINE
  8
0
 10
1.66306
 20
184.99
 11
2.11716
 21
184.618
  0
LINE
  8
0
 10
2.11716
 20
184.618
 11
2.48932
 21
184.164
  0
LINE
  8
0
 10
2.48932
 20
184.164
 11
2.62941
 21
183.901
  0
LINE
  8
0
 10
2.62941
 20
183.901
 11
2.95348
 21
182.904
  0
LINE
  8
0
 10
2.95348
 20
182.904
 11
2.99332
 21
182.5
  0
LINE
  8
0
 10
2.99332
 20
182.5
 11
2.93655
 21
181.916
  0
LINE
  8
0
 10
2.93655
 20
181.916
 11
2.76581
 21
181.355
  0
LINE
  8
0
 10
2.76581
 20
181.355
 11
2.48886
 21
180.836
  0
LINE
  8
0
 10
2.48886
 20
180.836
 11
2.1167
 21
180.382
  0
LINE
  8
0
 10
2.1167
 20
180.382
 11
1.66306
 21
180.011
  0
LINE
  8
0
 10
1.66306
 20
180.011
 11
1.14487
 21
179.734
  0
LINE
  8
0
 10
1.14487
 20
179.734
 11
0.584106
 21
179.564
  0
LINE
  8
0
 10
0.584106
 20
179.564
 11
0
 21
179.506
  0
LINE
  8
0
 10
0
 20
179.506
 11
-0.584106
 21
179.563
  0
LINE
  8
0
 10
-4.99225
 20
176.629
 11
-4.73419
 21
176.145
  0
LINE
  8
0
 10
-4.73419
 20
176.145
 11
-4.56436
 21
175.584
  0
LINE
  8
0
 10
-4.56436
 20
175.584
 11
-4.50623
 21
175
  0
LINE
  8
0
 10
-4.50623
 20
175
 11
-4.56345
 21
174.416
  0
LINE
  8
0
 10
-4.56345
 20
174.416
 11
-4.73419
 21
173.855
  0
LINE
  8
0
 10
-4.73419
 20
173.855
 11
-5.01114
 21
173.336
  0
LINE
  8
0
 10
-5.01114
 20
173.336
 11
-5.3833
 21
172.882
  0
LINE
  8
0
 10
-5.3833
 20
172.882
 11
-5.83694
 21
172.511
  0
LINE
  8
0
 10
-5.83694
 20
172.511
 11
-6.35513
 21
172.234
  0
LINE
  8
0
 10
-6.35513
 20
172.234
 11
-6.42728
 21
172.212
  0
LINE
  8
0
 10
-6.42728
 20
172.212
 11
-4.99225
 21
176.629
  0
LINE
  8
0
 10
5.69183
 20
172.629
 11
5.38239
 21
172.883
  0
LINE
  8
0
 10
5.38239
 20
172.883
 11
5.01022
 21
173.337
  0
LINE
  8
0
 10
5.01022
 20
173.337
 11
4.73419
 21
173.855
  0
LINE
  8
0
 10
4.73419
 20
173.855
 11
4.56436
 21
174.416
  0
LINE
  8
0
 10
4.56436
 20
174.416
 11
4.50623
 21
175
  0
LINE
  8
0
 10
4.50623
 20
175
 11
4.56345
 21
175.584
  0
LINE
  8
0
 10
4.56345
 20
175.584
 11
4.73419
 21
176.145
  0
LINE
  8
0
 10
4.73419
 20
176.145
 11
4.99232
 21
176.629
  0
LINE
  8
0
 10
4.99232
 20
176.629
 11
7.40446
 21
169.205
  0
LINE
  8
0
 10
7.40446
 20
169.205
 11
5.69183
 21
172.629
  0
LINE
  8
0
 10
-0.584106
 20
164.563
 11
-1.14487
 21
164.734
  0
LINE
  8
0
 10
-1.14487
 20
164.734
 11
-1.66306
 21
165.01
  0
LINE
  8
0
 10
-1.66306
 20
165.01
 11
-2.11716
 21
165.382
  0
LINE
  8
0
 10
-2.11716
 20
165.382
 11
-2.48932
 21
165.836
  0
LINE
  8
0
 10
-2.48932
 20
165.836
 11
-2.76581
 21
166.355
  0
LINE
  8
0
 10
-2.76581
 20
166.355
 11
-2.93564
 21
166.915
  0
LINE
  8
0
 10
-2.93564
 20
166.915
 11
-2.99332
 21
167.5
  0
LINE
  8
0
 10
-2.99332
 20
167.5
 11
-2.93655
 21
168.084
  0
LINE
  8
0
 10
-2.93655
 20
168.084
 11
-2.76581
 21
168.645
  0
LINE
  8
0
 10
-2.76581
 20
168.645
 11
-2.48932
 21
169.163
  0
LINE
  8
0
 10
-2.48932
 20
169.163
 11
-2.11716
 21
169.617
  0
LINE
  8
0
 10
-2.11716
 20
169.617
 11
-1.66306
 21
169.989
  0
LINE
  8
0
 10
-1.66306
 20
169.989
 11
-1.14487
 21
170.266
  0
LINE
  8
0
 10
-1.14487
 20
170.266
 11
-0.584106
 21
170.436
  0
LINE
  8
0
 10
-0.584106
 20
170.436
 11
0
 21
170.494
  0
LINE
  8
0
 10
0
 20
170.494
 11
0.584106
 21
170.437
  0
LINE
  8
0
 10
0.584106
 20
170.437
 11
1.14487
 21
170.266
  0
LINE
  8
0
 10
1.14487
 20
170.266
 11
1.66351
 21
169.989
  0
LINE
  8
0
 10
1.66351
 20
169.989
 11
2.11761
 21
169.617
  0
LINE
  8
0
 10
2.11761
 20
169.617
 11
2.37076
 21
169.308
  0
LINE
  8
0
 10
2.37076
 20
169.308
 11
5.98618
 21
167.5
  0
LINE
  8
0
 10
5.98618
 20
167.5
 11
2.37076
 21
165.692
  0
LINE
  8
0
 10
2.37076
 20
165.692
 11
2.1167
 21
165.382
  0
LINE
  8
0
 10
2.1167
 20
165.382
 11
1.66351
 21
165.011
  0
LINE
  8
0
 10
1.66351
 20
165.011
 11
1.14487
 21
164.734
  0
LINE
  8
0
 10
1.14487
 20
164.734
 11
0.584106
 21
164.564
  0
LINE
  8
0
 10
0.584106
 20
164.564
 11
0
 21
164.506
  0
LINE
  8
0
 10
0
 20
164.506
 11
-0.584106
 21
164.563
  0
LINE
  8
0
 10
-8.08411
 20
157.063
 11
-8.64487
 21
157.234
  0
LINE
  8
0
 10
-8.64487
 20
157.234
 11
-9.16351
 21
157.511
  0
LINE
  8
0
 10
-9.16351
 20
157.511
 11
-9.61761
 21
157.883
  0
LINE
  8
0
 10
-9.61761
 20
157.883
 11
-9.98978
 21
158.337
  0
LINE
  8
0
 10
-9.98978
 20
158.337
 11
-10.2658
 21
158.855
  0
LINE
  8
0
 10
-10.2658
 20
158.855
 11
-10.4356
 21
159.416
  0
LINE
  8
0
 10
-10.4356
 20
159.416
 11
-10.4707
 21
159.768
  0
LINE
  8
0
 10
-10.4707
 20
159.768
 11
-9.76668
 21
161.935
  0
LINE
  8
0
 10
-9.76668
 20
161.935
 11
-9.61716
 21
162.117
  0
LINE
  8
0
 10
-9.61716
 20
162.117
 11
-9.30817
 21
162.371
  0
LINE
  8
0
 10
-9.30817
 20
162.371
 11
-7.5
 21
165.986
  0
LINE
  8
0
 10
-7.5
 20
165.986
 11
-5.69183
 21
162.371
  0
LINE
  8
0
 10
-5.69183
 20
162.371
 11
-5.38193
 21
162.117
  0
LINE
  8
0
 10
-5.38193
 20
162.117
 11
-5.01022
 21
161.663
  0
LINE
  8
0
 10
-5.01022
 20
161.663
 11
-4.73373
 21
161.145
  0
LINE
  8
0
 10
-4.73373
 20
161.145
 11
-4.5639
 21
160.584
  0
LINE
  8
0
 10
-4.5639
 20
160.584
 11
-4.50577
 21
160
  0
LINE
  8
0
 10
-4.50577
 20
160
 11
-4.56299
 21
159.416
  0
LINE
  8
0
 10
-4.56299
 20
159.416
 11
-4.73373
 21
158.855
  0
LINE
  8
0
 10
-4.73373
 20
158.855
 11
-5.01022
 21
158.337
  0
LINE
  8
0
 10
-5.01022
 20
158.337
 11
-5.38239
 21
157.883
  0
LINE
  8
0
 10
-5.38239
 20
157.883
 11
-5.83603
 21
157.511
  0
LINE
  8
0
 10
-5.83603
 20
157.511
 11
-6.35468
 21
157.234
  0
LINE
  8
0
 10
-6.35468
 20
157.234
 11
-6.91544
 21
157.064
  0
LINE
  8
0
 10
-6.91544
 20
157.064
 11
-7.5
 21
157.007
  0
LINE
  8
0
 10
-7.5
 20
157.007
 11
-8.08411
 21
157.063
  0
LINE
  8
0
 10
5.69183
 20
157.629
 11
5.38193
 21
157.883
  0
LINE
  8
0
 10
5.38193
 20
157.883
 11
5.01022
 21
158.337
  0
LINE
  8
0
 10
5.01022
 20
158.337
 11
4.73373
 21
158.855
  0
LINE
  8
0
 10
4.73373
 20
158.855
 11
4.5639
 21
159.416
  0
LINE
  8
0
 10
4.5639
 20
159.416
 11
4.50577
 21
160
  0
LINE
  8
0
 10
4.50577
 20
160
 11
4.56299
 21
160.584
  0
LINE
  8
0
 10
4.56299
 20
160.584
 11
4.73373
 21
161.145
  0
LINE
  8
0
 10
4.73373
 20
161.145
 11
5.00977
 21
161.663
  0
LINE
  8
0
 10
5.00977
 20
161.663
 11
5.38193
 21
162.117
  0
LINE
  8
0
 10
5.38193
 20
162.117
 11
5.83603
 21
162.489
  0
LINE
  8
0
 10
5.83603
 20
162.489
 11
6.35468
 21
162.766
  0
LINE
  8
0
 10
6.35468
 20
162.766
 11
6.91544
 21
162.936
  0
LINE
  8
0
 10
6.91544
 20
162.936
 11
7.5
 21
162.993
  0
LINE
  8
0
 10
7.5
 20
162.993
 11
8.08411
 21
162.937
  0
LINE
  8
0
 10
8.08411
 20
162.937
 11
8.64487
 21
162.766
  0
LINE
  8
0
 10
8.64487
 20
162.766
 11
9.16351
 21
162.489
  0
LINE
  8
0
 10
9.16351
 20
162.489
 11
9.61761
 21
162.117
  0
LINE
  8
0
 10
9.61761
 20
162.117
 11
9.76662
 21
161.935
  0
LINE
  8
0
 10
9.76662
 20
161.935
 11
10.471
 21
159.767
  0
LINE
  8
0
 10
10.471
 20
159.767
 11
10.4366
 21
159.416
  0
LINE
  8
0
 10
10.4366
 20
159.416
 11
10.2658
 21
158.855
  0
LINE
  8
0
 10
10.2658
 20
158.855
 11
9.98886
 21
158.336
  0
LINE
  8
0
 10
9.98886
 20
158.336
 11
9.6167
 21
157.882
  0
LINE
  8
0
 10
9.6167
 20
157.882
 11
9.30817
 21
157.629
  0
LINE
  8
0
 10
9.30817
 20
157.629
 11
7.5
 21
154.014
  0
LINE
  8
0
 10
7.5
 20
154.014
 11
5.69183
 21
157.629
  0
LINE
  8
0
 10
-0.584106
 20
149.563
 11
-1.14487
 21
149.734
  0
LINE
  8
0
 10
-1.14487
 20
149.734
 11
-1.66351
 21
150.011
  0
LINE
  8
0
 10
-1.66351
 20
150.011
 11
-2.11761
 21
150.383
  0
LINE
  8
0
 10
-2.11761
 20
150.383
 11
-2.37076
 21
150.692
  0
LINE
  8
0
 10
-2.37076
 20
150.692
 11
-5.98618
 21
152.5
  0
LINE
  8
0
 10
-5.98618
 20
152.5
 11
-2.37076
 21
154.308
  0
LINE
  8
0
 10
-2.37076
 20
154.308
 11
-2.11716
 21
154.618
  0
LINE
  8
0
 10
-2.11716
 20
154.618
 11
-1.66351
 21
154.989
  0
LINE
  8
0
 10
-1.66351
 20
154.989
 11
-1.14487
 21
155.266
  0
LINE
  8
0
 10
-1.14487
 20
155.266
 11
-0.584106
 21
155.436
  0
LINE
  8
0
 10
-0.584106
 20
155.436
 11
0
 21
155.494
  0
LINE
  8
0
 10
0
 20
155.494
 11
0.584106
 21
155.437
  0
LINE
  8
0
 10
0.584106
 20
155.437
 11
1.14487
 21
155.266
  0
LINE
  8
0
 10
1.14487
 20
155.266
 11
1.66306
 21
154.99
  0
LINE
  8
0
 10
1.66306
 20
154.99
 11
2.11716
 21
154.618
  0
LINE
  8
0
 10
2.11716
 20
154.618
 11
2.48932
 21
154.164
  0
LINE
  8
0
 10
2.48932
 20
154.164
 11
2.76581
 21
153.645
  0
LINE
  8
0
 10
2.76581
 20
153.645
 11
2.93564
 21
153.085
  0
LINE
  8
0
 10
2.93564
 20
153.085
 11
2.99332
 21
152.5
  0
LINE
  8
0
 10
2.99332
 20
152.5
 11
2.93655
 21
151.916
  0
LINE
  8
0
 10
2.93655
 20
151.916
 11
2.76581
 21
151.355
  0
LINE
  8
0
 10
2.76581
 20
151.355
 11
2.48886
 21
150.836
  0
LINE
  8
0
 10
2.48886
 20
150.836
 11
2.1167
 21
150.382
  0
LINE
  8
0
 10
2.1167
 20
150.382
 11
1.66306
 21
150.011
  0
LINE
  8
0
 10
1.66306
 20
150.011
 11
1.14487
 21
149.734
  0
LINE
  8
0
 10
1.14487
 20
149.734
 11
0.584106
 21
149.564
  0
LINE
  8
0
 10
0.584106
 20
149.564
 11
0
 21
149.506
  0
LINE
  8
0
 10
0
 20
149.506
 11
-0.584106
 21
149.563
  0
LINE
  8
0
 10
13.3365
 20
150.011
 11
12.8824
 21
150.383
  0
LINE
  8
0
 10
12.8824
 20
150.383
 11
12.6292
 21
150.692
  0
LINE
  8
0
 10
12.6292
 20
150.692
 11
9.01382
 21
152.5
  0
LINE
  8
0
 10
9.01382
 20
152.5
 11
12.2984
 21
154.143
  0
LINE
  8
0
 10
12.2984
 20
154.143
 11
13.705
 21
149.814
  0
LINE
  8
0
 10
13.705
 20
149.814
 11
13.3365
 21
150.011
  0
LINE
  8
0
 10
-12.3746
 20
153.908
 11
-12.2342
 21
153.645
  0
LINE
  8
0
 10
-12.2342
 20
153.645
 11
-12.0644
 21
153.084
  0
LINE
  8
0
 10
-12.0644
 20
153.084
 11
-12.0067
 21
152.499
  0
LINE
  8
0
 10
-12.0067
 20
152.499
 11
-12.0634
 21
151.915
  0
LINE
  8
0
 10
-12.0634
 20
151.915
 11
-12.2342
 21
151.355
  0
LINE
  8
0
 10
-12.2342
 20
151.355
 11
-12.5107
 21
150.836
  0
LINE
  8
0
 10
-12.5107
 20
150.836
 11
-12.8828
 21
150.382
  0
LINE
  8
0
 10
-12.8828
 20
150.382
 11
-13.3365
 21
150.011
  0
LINE
  8
0
 10
-13.3365
 20
150.011
 11
-13.705
 21
149.814
  0
LINE
  8
0
 10
-13.705
 20
149.814
 11
-12.3746
 21
153.908
  0
LINE
  8
0
 10
-8.08456
 20
142.063
 11
-8.64532
 21
142.234
  0
LINE
  8
0
 10
-8.64532
 20
142.234
 11
-9.16351
 21
142.511
  0
LINE
  8
0
 10
-9.16351
 20
142.511
 11
-9.61761
 21
142.883
  0
LINE
  8
0
 10
-9.61761
 20
142.883
 11
-9.98978
 21
143.337
  0
LINE
  8
0
 10
-9.98978
 20
143.337
 11
-10.2663
 21
143.855
  0
LINE
  8
0
 10
-10.2663
 20
143.855
 11
-10.4361
 21
144.416
  0
LINE
  8
0
 10
-10.4361
 20
144.416
 11
-10.4942
 21
145
  0
LINE
  8
0
 10
-10.4942
 20
145
 11
-10.437
 21
145.584
  0
LINE
  8
0
 10
-10.437
 20
145.584
 11
-10.2663
 21
146.145
  0
LINE
  8
0
 10
-10.2663
 20
146.145
 11
-9.98978
 21
146.663
  0
LINE
  8
0
 10
-9.98978
 20
146.663
 11
-9.61761
 21
147.117
  0
LINE
  8
0
 10
-9.61761
 20
147.117
 11
-9.30817
 21
147.371
  0
LINE
  8
0
 10
-9.30817
 20
147.371
 11
-7.5
 21
150.986
  0
LINE
  8
0
 10
-7.5
 20
150.986
 11
-5.69183
 21
147.371
  0
LINE
  8
0
 10
-5.69183
 20
147.371
 11
-5.38239
 21
147.117
  0
LINE
  8
0
 10
-5.38239
 20
147.117
 11
-5.01022
 21
146.663
  0
LINE
  8
0
 10
-5.01022
 20
146.663
 11
-4.73419
 21
146.145
  0
LINE
  8
0
 10
-4.73419
 20
146.145
 11
-4.56436
 21
145.584
  0
LINE
  8
0
 10
-4.56436
 20
145.584
 11
-4.50623
 21
145
  0
LINE
  8
0
 10
-4.50623
 20
145
 11
-4.56345
 21
144.416
  0
LINE
  8
0
 10
-4.56345
 20
144.416
 11
-4.73419
 21
143.855
  0
LINE
  8
0
 10
-4.73419
 20
143.855
 11
-5.01114
 21
143.336
  0
LINE
  8
0
 10
-5.01114
 20
143.336
 11
-5.3833
 21
142.882
  0
LINE
  8
0
 10
-5.3833
 20
142.882
 11
-5.83694
 21
142.511
  0
LINE
  8
0
 10
-5.83694
 20
142.511
 11
-6.35513
 21
142.234
  0
LINE
  8
0
 10
-6.35513
 20
142.234
 11
-6.91589
 21
142.064
  0
LINE
  8
0
 10
-6.91589
 20
142.064
 11
-7.50046
 21
142.007
  0
LINE
  8
0
 10
-7.50046
 20
142.007
 11
-8.08456
 21
142.063
  0
LINE
  8
0
 10
5.69183
 20
142.629
 11
5.38239
 21
142.883
  0
LINE
  8
0
 10
5.38239
 20
142.883
 11
5.01022
 21
143.337
  0
LINE
  8
0
 10
5.01022
 20
143.337
 11
4.73419
 21
143.855
  0
LINE
  8
0
 10
4.73419
 20
143.855
 11
4.56436
 21
144.416
  0
LINE
  8
0
 10
4.56436
 20
144.416
 11
4.50623
 21
145
  0
LINE
  8
0
 10
4.50623
 20
145
 11
4.56345
 21
145.584
  0
LINE
  8
0
 10
4.56345
 20
145.584
 11
4.73419
 21
146.145
  0
LINE
  8
0
 10
4.73419
 20
146.145
 11
5.01068
 21
146.663
  0
LINE
  8
0
 10
5.01068
 20
146.663
 11
5.38284
 21
147.117
  0
LINE
  8
0
 10
5.38284
 20
147.117
 11
5.83694
 21
147.489
  0
LINE
  8
0
 10
5.83694
 20
147.489
 11
6.35513
 21
147.766
  0
LINE
  8
0
 10
6.35513
 20
147.766
 11
6.91589
 21
147.936
  0
LINE
  8
0
 10
6.91589
 20
147.936
 11
7.50046
 21
147.993
  0
LINE
  8
0
 10
7.50046
 20
147.993
 11
8.08456
 21
147.937
  0
LINE
  8
0
 10
8.08456
 20
147.937
 11
8.64532
 21
147.766
  0
LINE
  8
0
 10
8.64532
 20
147.766
 11
9.16351
 21
147.489
  0
LINE
  8
0
 10
9.16351
 20
147.489
 11
9.61761
 21
147.117
  0
LINE
  8
0
 10
9.61761
 20
147.117
 11
9.98978
 21
146.663
  0
LINE
  8
0
 10
9.98978
 20
146.663
 11
10.2663
 21
146.145
  0
LINE
  8
0
 10
10.2663
 20
146.145
 11
10.4361
 21
145.584
  0
LINE
  8
0
 10
10.4361
 20
145.584
 11
10.4942
 21
145
  0
LINE
  8
0
 10
10.4942
 20
145
 11
10.437
 21
144.416
  0
LINE
  8
0
 10
10.437
 20
144.416
 11
10.2663
 21
143.855
  0
LINE
  8
0
 10
10.2663
 20
143.855
 11
9.98932
 21
143.336
  0
LINE
  8
0
 10
9.98932
 20
143.336
 11
9.61716
 21
142.882
  0
LINE
  8
0
 10
9.61716
 20
142.882
 11
9.30817
 21
142.629
  0
LINE
  8
0
 10
9.30817
 20
142.629
 11
7.5
 21
139.014
  0
LINE
  8
0
 10
7.5
 20
139.014
 11
5.69183
 21
142.629
  0
LINE
  8
0
 10
-15.5841
 20
134.563
 11
-16.1449
 21
134.734
  0
LINE
  8
0
 10
-16.1449
 20
134.734
 11
-16.6635
 21
135.011
  0
LINE
  8
0
 10
-16.6635
 20
135.011
 11
-17.1176
 21
135.383
  0
LINE
  8
0
 10
-17.1176
 20
135.383
 11
-17.4898
 21
135.837
  0
LINE
  8
0
 10
-17.4898
 20
135.837
 11
-17.7658
 21
136.355
  0
LINE
  8
0
 10
-17.7658
 20
136.355
 11
-17.9164
 21
136.852
  0
LINE
  8
0
 10
-17.9164
 20
136.852
 11
-16.982
 21
139.728
  0
LINE
  8
0
 10
-16.982
 20
139.728
 11
-16.6635
 21
139.989
  0
LINE
  8
0
 10
-16.6635
 20
139.989
 11
-16.1449
 21
140.266
  0
LINE
  8
0
 10
-16.1449
 20
140.266
 11
-15.5841
 21
140.436
  0
LINE
  8
0
 10
-15.5841
 20
140.436
 11
-15
 21
140.494
  0
LINE
  8
0
 10
-15
 20
140.494
 11
-14.4159
 21
140.437
  0
LINE
  8
0
 10
-14.4159
 20
140.437
 11
-13.8551
 21
140.266
  0
LINE
  8
0
 10
-13.8551
 20
140.266
 11
-13.3365
 21
139.989
  0
LINE
  8
0
 10
-13.3365
 20
139.989
 11
-12.8824
 21
139.617
  0
LINE
  8
0
 10
-12.8824
 20
139.617
 11
-12.6292
 21
139.308
  0
LINE
  8
0
 10
-12.6292
 20
139.308
 11
-9.01382
 21
137.5
  0
LINE
  8
0
 10
-9.01382
 20
137.5
 11
-12.6292
 21
135.692
  0
LINE
  8
0
 10
-12.6292
 20
135.692
 11
-12.8833
 21
135.382
  0
LINE
  8
0
 10
-12.8833
 20
135.382
 11
-13.3369
 21
135.011
  0
LINE
  8
0
 10
-13.3369
 20
135.011
 11
-13.8551
 21
134.734
  0
LINE
  8
0
 10
-13.8551
 20
134.734
 11
-14.4159
 21
134.564
  0
LINE
  8
0
 10
-14.4159
 20
134.564
 11
-15
 21
134.506
  0
LINE
  8
0
 10
-15
 20
134.506
 11
-15.5841
 21
134.563
  0
LINE
  8
0
 10
14.4159
 20
134.563
 11
13.8551
 21
134.734
  0
LINE
  8
0
 10
13.8551
 20
134.734
 11
13.3365
 21
135.011
  0
LINE
  8
0
 10
13.3365
 20
135.011
 11
12.8824
 21
135.383
  0
LINE
  8
0
 10
12.8824
 20
135.383
 11
12.5102
 21
135.837
  0
LINE
  8
0
 10
12.5102
 20
135.837
 11
12.2342
 21
136.355
  0
LINE
  8
0
 10
12.2342
 20
136.355
 11
12.0644
 21
136.916
  0
LINE
  8
0
 10
12.0644
 20
136.916
 11
12.0067
 21
137.501
  0
LINE
  8
0
 10
12.0067
 20
137.501
 11
12.0634
 21
138.085
  0
LINE
  8
0
 10
12.0634
 20
138.085
 11
12.2342
 21
138.645
  0
LINE
  8
0
 10
12.2342
 20
138.645
 11
12.5102
 21
139.163
  0
LINE
  8
0
 10
12.5102
 20
139.163
 11
12.8824
 21
139.617
  0
LINE
  8
0
 10
12.8824
 20
139.617
 11
13.3365
 21
139.989
  0
LINE
  8
0
 10
13.3365
 20
139.989
 11
13.8551
 21
140.266
  0
LINE
  8
0
 10
13.8551
 20
140.266
 11
14.4159
 21
140.436
  0
LINE
  8
0
 10
14.4159
 20
140.436
 11
15
 21
140.494
  0
LINE
  8
0
 10
15
 20
140.494
 11
15.5841
 21
140.437
  0
LINE
  8
0
 10
15.5841
 20
140.437
 11
16.1449
 21
140.266
  0
LINE
  8
0
 10
16.1449
 20
140.266
 11
16.6635
 21
139.989
  0
LINE
  8
0
 10
16.6635
 20
139.989
 11
16.982
 21
139.728
  0
LINE
  8
0
 10
16.982
 20
139.728
 11
18.1645
 21
136.089
  0
LINE
  8
0
 10
18.1645
 20
136.089
 11
17.3708
 21
135.692
  0
LINE
  8
0
 10
17.3708
 20
135.692
 11
17.1167
 21
135.382
  0
LINE
  8
0
 10
17.1167
 20
135.382
 11
16.6631
 21
135.011
  0
LINE
  8
0
 10
16.6631
 20
135.011
 11
16.1449
 21
134.734
  0
LINE
  8
0
 10
16.1449
 20
134.734
 11
15.5841
 21
134.564
  0
LINE
  8
0
 10
15.5841
 20
134.564
 11
15
 21
134.506
  0
LINE
  8
0
 10
15
 20
134.506
 11
14.4159
 21
134.563
  0
LINE
  8
0
 10
-0.584106
 20
134.563
 11
-1.14487
 21
134.734
  0
LINE
  8
0
 10
-1.14487
 20
134.734
 11
-1.66306
 21
135.01
  0
LINE
  8
0
 10
-1.66306
 20
135.01
 11
-2.11716
 21
135.382
  0
LINE
  8
0
 10
-2.11716
 20
135.382
 11
-2.48932
 21
135.836
  0
LINE
  8
0
 10
-2.48932
 20
135.836
 11
-2.76581
 21
136.355
  0
LINE
  8
0
 10
-2.76581
 20
136.355
 11
-2.93564
 21
136.915
  0
LINE
  8
0
 10
-2.93564
 20
136.915
 11
-2.99332
 21
137.5
  0
LINE
  8
0
 10
-2.99332
 20
137.5
 11
-2.93655
 21
138.084
  0
LINE
  8
0
 10
-2.93655
 20
138.084
 11
-2.76581
 21
138.645
  0
LINE
  8
0
 10
-2.76581
 20
138.645
 11
-2.48932
 21
139.163
  0
LINE
  8
0
 10
-2.48932
 20
139.163
 11
-2.11716
 21
139.617
  0
LINE
  8
0
 10
-2.11716
 20
139.617
 11
-1.66306
 21
139.989
  0
LINE
  8
0
 10
-1.66306
 20
139.989
 11
-1.14487
 21
140.266
  0
LINE
  8
0
 10
-1.14487
 20
140.266
 11
-0.584106
 21
140.436
  0
LINE
  8
0
 10
-0.584106
 20
140.436
 11
0
 21
140.494
  0
LINE
  8
0
 10
0
 20
140.494
 11
0.584106
 21
140.437
  0
LINE
  8
0
 10
0.584106
 20
140.437
 11
1.14487
 21
140.266
  0
LINE
  8
0
 10
1.14487
 20
140.266
 11
1.66351
 21
139.989
  0
LINE
  8
0
 10
1.66351
 20
139.989
 11
2.11761
 21
139.617
  0
LINE
  8
0
 10
2.11761
 20
139.617
 11
2.37076
 21
139.308
  0
LINE
  8
0
 10
2.37076
 20
139.308
 11
5.98618
 21
137.5
  0
LINE
  8
0
 10
5.98618
 20
137.5
 11
2.37076
 21
135.692
  0
LINE
  8
0
 10
2.37076
 20
135.692
 11
2.1167
 21
135.382
  0
LINE
  8
0
 10
2.1167
 20
135.382
 11
1.66351
 21
135.011
  0
LINE
  8
0
 10
1.66351
 20
135.011
 11
1.14487
 21
134.734
  0
LINE
  8
0
 10
1.14487
 20
134.734
 11
0.584106
 21
134.564
  0
LINE
  8
0
 10
0.584106
 20
134.564
 11
0
 21
134.506
  0
LINE
  8
0
 10
0
 20
134.506
 11
-0.584106
 21
134.563
  0
LINE
  8
0
 10
-8.08411
 20
127.063
 11
-8.64487
 21
127.234
  0
LINE
  8
0
 10
-8.64487
 20
127.234
 11
-9.16351
 21
127.511
  0
LINE
  8
0
 10
-9.16351
 20
127.511
 11
-9.61761
 21
127.883
  0
LINE
  8
0
 10
-9.61761
 20
127.883
 11
-9.98978
 21
128.337
  0
LINE
  8
0
 10
-9.98978
 20
128.337
 11
-10.2658
 21
128.855
  0
LINE
  8
0
 10
-10.2658
 20
128.855
 11
-10.4356
 21
129.416
  0
LINE
  8
0
 10
-10.4356
 20
129.416
 11
-10.4938
 21
130
  0
LINE
  8
0
 10
-10.4938
 20
130
 11
-10.4366
 21
130.584
  0
LINE
  8
0
 10
-10.4366
 20
130.584
 11
-10.2658
 21
131.145
  0
LINE
  8
0
 10
-10.2658
 20
131.145
 11
-9.98932
 21
131.663
  0
LINE
  8
0
 10
-9.98932
 20
131.663
 11
-9.61716
 21
132.117
  0
LINE
  8
0
 10
-9.61716
 20
132.117
 11
-9.30817
 21
132.371
  0
LINE
  8
0
 10
-9.30817
 20
132.371
 11
-7.5
 21
135.986
  0
LINE
  8
0
 10
-7.5
 20
135.986
 11
-5.69183
 21
132.371
  0
LINE
  8
0
 10
-5.69183
 20
132.371
 11
-5.38193
 21
132.117
  0
LINE
  8
0
 10
-5.38193
 20
132.117
 11
-5.01022
 21
131.663
  0
LINE
  8
0
 10
-5.01022
 20
131.663
 11
-4.73373
 21
131.145
  0
LINE
  8
0
 10
-4.73373
 20
131.145
 11
-4.5639
 21
130.584
  0
LINE
  8
0
 10
-4.5639
 20
130.584
 11
-4.50577
 21
130
  0
LINE
  8
0
 10
-4.50577
 20
130
 11
-4.56299
 21
129.416
  0
LINE
  8
0
 10
-4.56299
 20
129.416
 11
-4.73373
 21
128.855
  0
LINE
  8
0
 10
-4.73373
 20
128.855
 11
-5.01022
 21
128.337
  0
LINE
  8
0
 10
-5.01022
 20
128.337
 11
-5.38239
 21
127.883
  0
LINE
  8
0
 10
-5.38239
 20
127.883
 11
-5.83603
 21
127.511
  0
LINE
  8
0
 10
-5.83603
 20
127.511
 11
-6.35468
 21
127.234
  0
LINE
  8
0
 10
-6.35468
 20
127.234
 11
-6.91544
 21
127.064
  0
LINE
  8
0
 10
-6.91544
 20
127.064
 11
-7.5
 21
127.007
  0
LINE
  8
0
 10
-7.5
 20
127.007
 11
-8.08411
 21
127.063
  0
LINE
  8
0
 10
5.69183
 20
127.629
 11
5.38193
 21
127.883
  0
LINE
  8
0
 10
5.38193
 20
127.883
 11
5.01022
 21
128.337
  0
LINE
  8
0
 10
5.01022
 20
128.337
 11
4.73373
 21
128.855
  0
LINE
  8
0
 10
4.73373
 20
128.855
 11
4.5639
 21
129.416
  0
LINE
  8
0
 10
4.5639
 20
129.416
 11
4.50577
 21
130
  0
LINE
  8
0
 10
4.50577
 20
130
 11
4.56299
 21
130.584
  0
LINE
  8
0
 10
4.56299
 20
130.584
 11
4.73373
 21
131.145
  0
LINE
  8
0
 10
4.73373
 20
131.145
 11
5.00977
 21
131.663
  0
LINE
  8
0
 10
5.00977
 20
131.663
 11
5.38193
 21
132.117
  0
LINE
  8
0
 10
5.38193
 20
132.117
 11
5.83603
 21
132.489
  0
LINE
  8
0
 10
5.83603
 20
132.489
 11
6.35468
 21
132.766
  0
LINE
  8
0
 10
6.35468
 20
132.766
 11
6.91544
 21
132.936
  0
LINE
  8
0
 10
6.91544
 20
132.936
 11
7.5
 21
132.993
  0
LINE
  8
0
 10
7.5
 20
132.993
 11
8.08411
 21
132.937
  0
LINE
  8
0
 10
8.08411
 20
132.937
 11
8.64487
 21
132.766
  0
LINE
  8
0
 10
8.64487
 20
132.766
 11
9.16351
 21
132.489
  0
LINE
  8
0
 10
9.16351
 20
132.489
 11
9.61761
 21
132.117
  0
LINE
  8
0
 10
9.61761
 20
132.117
 11
9.98978
 21
131.663
  0
LINE
  8
0
 10
9.98978
 20
131.663
 11
10.2658
 21
131.145
  0
LINE
  8
0
 10
10.2658
 20
131.145
 11
10.4356
 21
130.584
  0
LINE
  8
0
 10
10.4356
 20
130.584
 11
10.4938
 21
130
  0
LINE
  8
0
 10
10.4938
 20
130
 11
10.4366
 21
129.416
  0
LINE
  8
0
 10
10.4366
 20
129.416
 11
10.2658
 21
128.855
  0
LINE
  8
0
 10
10.2658
 20
128.855
 11
9.98886
 21
128.336
  0
LINE
  8
0
 10
9.98886
 20
128.336
 11
9.6167
 21
127.882
  0
LINE
  8
0
 10
9.6167
 20
127.882
 11
9.30817
 21
127.629
  0
LINE
  8
0
 10
9.30817
 20
127.629
 11
7.5
 21
124.014
  0
LINE
  8
0
 10
7.5
 20
124.014
 11
5.69183
 21
127.629
  0
LINE
  8
0
 10
-19.757
 20
131.188
 11
-19.7342
 21
131.145
  0
LINE
  8
0
 10
-19.7342
 20
131.145
 11
-19.5644
 21
130.584
  0
LINE
  8
0
 10
-19.5644
 20
130.584
 11
-19.5062
 21
130
  0
LINE
  8
0
 10
-19.5062
 20
130
 11
-19.5634
 21
129.416
  0
LINE
  8
0
 10
-19.5634
 20
129.416
 11
-19.7342
 21
128.855
  0
LINE
  8
0
 10
-19.7342
 20
128.855
 11
-20.0111
 21
128.336
  0
LINE
  8
0
 10
-20.0111
 20
128.336
 11
-20.3833
 21
127.882
  0
LINE
  8
0
 10
-20.3833
 20
127.882
 11
-20.6918
 21
127.629
  0
LINE
  8
0
 10
-20.6918
 20
127.629
 11
-21.3237
 21
126.366
  0
LINE
  8
0
 10
-21.3237
 20
126.366
 11
-19.757
 21
131.188
  0
LINE
  8
0
 10
20.8365
 20
127.511
 11
20.3824
 21
127.883
  0
LINE
  8
0
 10
20.3824
 20
127.883
 11
20.0102
 21
128.337
  0
LINE
  8
0
 10
20.0102
 20
128.337
 11
19.7342
 21
128.855
  0
LINE
  8
0
 10
19.7342
 20
128.855
 11
19.5644
 21
129.416
  0
LINE
  8
0
 10
19.5644
 20
129.416
 11
19.5062
 21
130
  0
LINE
  8
0
 10
19.5062
 20
130
 11
19.5634
 21
130.584
  0
LINE
  8
0
 10
19.5634
 20
130.584
 11
19.7342
 21
131.145
  0
LINE
  8
0
 10
19.7342
 20
131.145
 11
19.757
 21
131.188
  0
LINE
  8
0
 10
19.757
 20
131.188
 11
20.9757
 21
127.437
  0
LINE
  8
0
 10
20.9757
 20
127.437
 11
20.8365
 21
127.511
  0
LINE
  8
0
 10
-0.584106
 20
119.563
 11
-1.14487
 21
119.734
  0
LINE
  8
0
 10
-1.14487
 20
119.734
 11
-1.66351
 21
120.011
  0
LINE
  8
0
 10
-1.66351
 20
120.011
 11
-2.11761
 21
120.383
  0
LINE
  8
0
 10
-2.11761
 20
120.383
 11
-2.37076
 21
120.692
  0
LINE
  8
0
 10
-2.37076
 20
120.692
 11
-5.98618
 21
122.5
  0
LINE
  8
0
 10
-5.98618
 20
122.5
 11
-2.37076
 21
124.308
  0
LINE
  8
0
 10
-2.37076
 20
124.308
 11
-2.11716
 21
124.618
  0
LINE
  8
0
 10
-2.11716
 20
124.618
 11
-1.66351
 21
124.989
  0
LINE
  8
0
 10
-1.66351
 20
124.989
 11
-1.14487
 21
125.266
  0
LINE
  8
0
 10
-1.14487
 20
125.266
 11
-0.584106
 21
125.436
  0
LINE
  8
0
 10
-0.584106
 20
125.436
 11
0
 21
125.494
  0
LINE
  8
0
 10
0
 20
125.494
 11
0.584106
 21
125.437
  0
LINE
  8
0
 10
0.584106
 20
125.437
 11
1.14487
 21
125.266
  0
LINE
  8
0
 10
1.14487
 20
125.266
 11
1.66306
 21
124.99
  0
LINE
  8
0
 10
1.66306
 20
124.99
 11
2.11716
 21
124.618
  0
LINE
  8
0
 10
2.11716
 20
124.618
 11
2.48932
 21
124.164
  0
LINE
  8
0
 10
2.48932
 20
124.164
 11
2.76581
 21
123.645
  0
LINE
  8
0
 10
2.76581
 20
123.645
 11
2.93564
 21
123.085
  0
LINE
  8
0
 10
2.93564
 20
123.085
 11
2.99332
 21
122.5
  0
LINE
  8
0
 10
2.99332
 20
122.5
 11
2.93655
 21
121.916
  0
LINE
  8
0
 10
2.93655
 20
121.916
 11
2.76581
 21
121.355
  0
LINE
  8
0
 10
2.76581
 20
121.355
 11
2.48886
 21
120.836
  0
LINE
  8
0
 10
2.48886
 20
120.836
 11
2.1167
 21
120.382
  0
LINE
  8
0
 10
2.1167
 20
120.382
 11
1.66306
 21
120.011
  0
LINE
  8
0
 10
1.66306
 20
120.011
 11
1.14487
 21
119.734
  0
LINE
  8
0
 10
1.14487
 20
119.734
 11
0.584106
 21
119.564
  0
LINE
  8
0
 10
0.584106
 20
119.564
 11
0
 21
119.506
  0
LINE
  8
0
 10
0
 20
119.506
 11
-0.584106
 21
119.563
  0
LINE
  8
0
 10
-15.5841
 20
119.563
 11
-16.1449
 21
119.734
  0
LINE
  8
0
 10
-16.1449
 20
119.734
 11
-16.6635
 21
120.011
  0
LINE
  8
0
 10
-16.6635
 20
120.011
 11
-17.1176
 21
120.383
  0
LINE
  8
0
 10
-17.1176
 20
120.383
 11
-17.3708
 21
120.692
  0
LINE
  8
0
 10
-17.3708
 20
120.692
 11
-20.9862
 21
122.5
  0
LINE
  8
0
 10
-20.9862
 20
122.5
 11
-17.3708
 21
124.308
  0
LINE
  8
0
 10
-17.3708
 20
124.308
 11
-17.1172
 21
124.617
  0
LINE
  8
0
 10
-17.1172
 20
124.617
 11
-16.6631
 21
124.989
  0
LINE
  8
0
 10
-16.6631
 20
124.989
 11
-16.1449
 21
125.266
  0
LINE
  8
0
 10
-16.1449
 20
125.266
 11
-15.5841
 21
125.436
  0
LINE
  8
0
 10
-15.5841
 20
125.436
 11
-15
 21
125.494
  0
LINE
  8
0
 10
-15
 20
125.494
 11
-14.4159
 21
125.437
  0
LINE
  8
0
 10
-14.4159
 20
125.437
 11
-13.8551
 21
125.266
  0
LINE
  8
0
 10
-13.8551
 20
125.266
 11
-13.3365
 21
124.989
  0
LINE
  8
0
 10
-13.3365
 20
124.989
 11
-12.8824
 21
124.617
  0
LINE
  8
0
 10
-12.8824
 20
124.617
 11
-12.5102
 21
124.163
  0
LINE
  8
0
 10
-12.5102
 20
124.163
 11
-12.2342
 21
123.645
  0
LINE
  8
0
 10
-12.2342
 20
123.645
 11
-12.0644
 21
123.084
  0
LINE
  8
0
 10
-12.0644
 20
123.084
 11
-12.0067
 21
122.499
  0
LINE
  8
0
 10
-12.0067
 20
122.499
 11
-12.0634
 21
121.915
  0
LINE
  8
0
 10
-12.0634
 20
121.915
 11
-12.2342
 21
121.355
  0
LINE
  8
0
 10
-12.2342
 20
121.355
 11
-12.5107
 21
120.836
  0
LINE
  8
0
 10
-12.5107
 20
120.836
 11
-12.8828
 21
120.382
  0
LINE
  8
0
 10
-12.8828
 20
120.382
 11
-13.3365
 21
120.011
  0
LINE
  8
0
 10
-13.3365
 20
120.011
 11
-13.8551
 21
119.734
  0
LINE
  8
0
 10
-13.8551
 20
119.734
 11
-14.4159
 21
119.564
  0
LINE
  8
0
 10
-14.4159
 20
119.564
 11
-15
 21
119.506
  0
LINE
  8
0
 10
-15
 20
119.506
 11
-15.5841
 21
119.563
  0
LINE
  8
0
 10
14.4159
 20
119.563
 11
13.8551
 21
119.734
  0
LINE
  8
0
 10
13.8551
 20
119.734
 11
13.3365
 21
120.011
  0
LINE
  8
0
 10
13.3365
 20
120.011
 11
12.8824
 21
120.383
  0
LINE
  8
0
 10
12.8824
 20
120.383
 11
12.6292
 21
120.692
  0
LINE
  8
0
 10
12.6292
 20
120.692
 11
9.01382
 21
122.5
  0
LINE
  8
0
 10
9.01382
 20
122.5
 11
12.6292
 21
124.308
  0
LINE
  8
0
 10
12.6292
 20
124.308
 11
12.8828
 21
124.617
  0
LINE
  8
0
 10
12.8828
 20
124.617
 11
13.3369
 21
124.989
  0
LINE
  8
0
 10
13.3369
 20
124.989
 11
13.8551
 21
125.266
  0
LINE
  8
0
 10
13.8551
 20
125.266
 11
14.4159
 21
125.436
  0
LINE
  8
0
 10
14.4159
 20
125.436
 11
15
 21
125.494
  0
LINE
  8
0
 10
15
 20
125.494
 11
15.5841
 21
125.437
  0
LINE
  8
0
 10
15.5841
 20
125.437
 11
16.1449
 21
125.266
  0
LINE
  8
0
 10
16.1449
 20
125.266
 11
16.6635
 21
124.989
  0
LINE
  8
0
 10
16.6635
 20
124.989
 11
17.1176
 21
124.617
  0
LINE
  8
0
 10
17.1176
 20
124.617
 11
17.4898
 21
124.163
  0
LINE
  8
0
 10
17.4898
 20
124.163
 11
17.7658
 21
123.645
  0
LINE
  8
0
 10
17.7658
 20
123.645
 11
17.9356
 21
123.084
  0
LINE
  8
0
 10
17.9356
 20
123.084
 11
17.9933
 21
122.499
  0
LINE
  8
0
 10
17.9933
 20
122.499
 11
17.9366
 21
121.915
  0
LINE
  8
0
 10
17.9366
 20
121.915
 11
17.7658
 21
121.355
  0
LINE
  8
0
 10
17.7658
 20
121.355
 11
17.4893
 21
120.836
  0
LINE
  8
0
 10
17.4893
 20
120.836
 11
17.1172
 21
120.382
  0
LINE
  8
0
 10
17.1172
 20
120.382
 11
16.6635
 21
120.011
  0
LINE
  8
0
 10
16.6635
 20
120.011
 11
16.1449
 21
119.734
  0
LINE
  8
0
 10
16.1449
 20
119.734
 11
15.5841
 21
119.564
  0
LINE
  8
0
 10
15.5841
 20
119.564
 11
15
 21
119.506
  0
LINE
  8
0
 10
15
 20
119.506
 11
14.4159
 21
119.563
  0
LINE
  8
0
 10
21.9154
 20
112.063
 11
21.3547
 21
112.234
  0
LINE
  8
0
 10
21.3547
 20
112.234
 11
20.8365
 21
112.511
  0
LINE
  8
0
 10
20.8365
 20
112.511
 11
20.3824
 21
112.883
  0
LINE
  8
0
 10
20.3824
 20
112.883
 11
20.0102
 21
113.337
  0
LINE
  8
0
 10
20.0102
 20
113.337
 11
19.7337
 21
113.855
  0
LINE
  8
0
 10
19.7337
 20
113.855
 11
19.5639
 21
114.416
  0
LINE
  8
0
 10
19.5639
 20
114.416
 11
19.5058
 21
115
  0
LINE
  8
0
 10
19.5058
 20
115
 11
19.563
 21
115.584
  0
LINE
  8
0
 10
19.563
 20
115.584
 11
19.7337
 21
116.145
  0
LINE
  8
0
 10
19.7337
 20
116.145
 11
20.0102
 21
116.663
  0
LINE
  8
0
 10
20.0102
 20
116.663
 11
20.3824
 21
117.117
  0
LINE
  8
0
 10
20.3824
 20
117.117
 11
20.6918
 21
117.371
  0
LINE
  8
0
 10
20.6918
 20
117.371
 11
22.5
 21
120.986
  0
LINE
  8
0
 10
22.5
 20
120.986
 11
24.1318
 21
117.723
  0
LINE
  8
0
 10
24.1318
 20
117.723
 11
25.3252
 21
114.05
  0
LINE
  8
0
 10
25.3252
 20
114.05
 11
25.2658
 21
113.855
  0
LINE
  8
0
 10
25.2658
 20
113.855
 11
24.9889
 21
113.336
  0
LINE
  8
0
 10
24.9889
 20
113.336
 11
24.6167
 21
112.882
  0
LINE
  8
0
 10
24.6167
 20
112.882
 11
24.1631
 21
112.511
  0
LINE
  8
0
 10
24.1631
 20
112.511
 11
23.6449
 21
112.234
  0
LINE
  8
0
 10
23.6449
 20
112.234
 11
23.0841
 21
112.064
  0
LINE
  8
0
 10
23.0841
 20
112.064
 11
22.4995
 21
112.007
  0
LINE
  8
0
 10
22.4995
 20
112.007
 11
21.9154
 21
112.063
  0
LINE
  8
0
 10
-8.08456
 20
112.063
 11
-8.64532
 21
112.234
  0
LINE
  8
0
 10
-8.64532
 20
112.234
 11
-9.16351
 21
112.511
  0
LINE
  8
0
 10
-9.16351
 20
112.511
 11
-9.61761
 21
112.883
  0
LINE
  8
0
 10
-9.61761
 20
112.883
 11
-9.98978
 21
113.337
  0
LINE
  8
0
 10
-9.98978
 20
113.337
 11
-10.2663
 21
113.855
  0
LINE
  8
0
 10
-10.2663
 20
113.855
 11
-10.4361
 21
114.416
  0
LINE
  8
0
 10
-10.4361
 20
114.416
 11
-10.4942
 21
115
  0
LINE
  8
0
 10
-10.4942
 20
115
 11
-10.437
 21
115.584
  0
LINE
  8
0
 10
-10.437
 20
115.584
 11
-10.2663
 21
116.145
  0
LINE
  8
0
 10
-10.2663
 20
116.145
 11
-9.98978
 21
116.663
  0
LINE
  8
0
 10
-9.98978
 20
116.663
 11
-9.61761
 21
117.117
  0
LINE
  8
0
 10
-9.61761
 20
117.117
 11
-9.30817
 21
117.371
  0
LINE
  8
0
 10
-9.30817
 20
117.371
 11
-7.5
 21
120.986
  0
LINE
  8
0
 10
-7.5
 20
120.986
 11
-5.69183
 21
117.371
  0
LINE
  8
0
 10
-5.69183
 20
117.371
 11
-5.38239
 21
117.117
  0
LINE
  8
0
 10
-5.38239
 20
117.117
 11
-5.01022
 21
116.663
  0
LINE
  8
0
 10
-5.01022
 20
116.663
 11
-4.73419
 21
116.145
  0
LINE
  8
0
 10
-4.73419
 20
116.145
 11
-4.56436
 21
115.584
  0
LINE
  8
0
 10
-4.56436
 20
115.584
 11
-4.50623
 21
115
  0
LINE
  8
0
 10
-4.50623
 20
115
 11
-4.56345
 21
114.416
  0
LINE
  8
0
 10
-4.56345
 20
114.416
 11
-4.73419
 21
113.855
  0
LINE
  8
0
 10
-4.73419
 20
113.855
 11
-5.01114
 21
113.336
  0
LINE
  8
0
 10
-5.01114
 20
113.336
 11
-5.3833
 21
112.882
  0
LINE
  8
0
 10
-5.3833
 20
112.882
 11
-5.83694
 21
112.511
  0
LINE
  8
0
 10
-5.83694
 20
112.511
 11
-6.35513
 21
112.234
  0
LINE
  8
0
 10
-6.35513
 20
112.234
 11
-6.91589
 21
112.064
  0
LINE
  8
0
 10
-6.91589
 20
112.064
 11
-7.50046
 21
112.007
  0
LINE
  8
0
 10
-7.50046
 20
112.007
 11
-8.08456
 21
112.063
  0
LINE
  8
0
 10
5.69183
 20
112.629
 11
5.38239
 21
112.883
  0
LINE
  8
0
 10
5.38239
 20
112.883
 11
5.01022
 21
113.337
  0
LINE
  8
0
 10
5.01022
 20
113.337
 11
4.73419
 21
113.855
  0
LINE
  8
0
 10
4.73419
 20
113.855
 11
4.56436
 21
114.416
  0
LINE
  8
0
 10
4.56436
 20
114.416
 11
4.50623
 21
115
  0
LINE
  8
0
 10
4.50623
 20
115
 11
4.56345
 21
115.584
  0
LINE
  8
0
 10
4.56345
 20
115.584
 11
4.73419
 21
116.145
  0
LINE
  8
0
 10
4.73419
 20
116.145
 11
5.01068
 21
116.663
  0
LINE
  8
0
 10
5.01068
 20
116.663
 11
5.38284
 21
117.117
  0
LINE
  8
0
 10
5.38284
 20
117.117
 11
5.83694
 21
117.489
  0
LINE
  8
0
 10
5.83694
 20
117.489
 11
6.35513
 21
117.766
  0
LINE
  8
0
 10
6.35513
 20
117.766
 11
6.91589
 21
117.936
  0
LINE
  8
0
 10
6.91589
 20
117.936
 11
7.50046
 21
117.993
  0
LINE
  8
0
 10
7.50046
 20
117.993
 11
8.08456
 21
117.937
  0
LINE
  8
0
 10
8.08456
 20
117.937
 11
8.64532
 21
117.766
  0
LINE
  8
0
 10
8.64532
 20
117.766
 11
9.16351
 21
117.489
  0
LINE
  8
0
 10
9.16351
 20
117.489
 11
9.61761
 21
117.117
  0
LINE
  8
0
 10
9.61761
 20
117.117
 11
9.98978
 21
116.663
  0
LINE
  8
0
 10
9.98978
 20
116.663
 11
10.2663
 21
116.145
  0
LINE
  8
0
 10
10.2663
 20
116.145
 11
10.4361
 21
115.584
  0
LINE
  8
0
 10
10.4361
 20
115.584
 11
10.4942
 21
115
  0
LINE
  8
0
 10
10.4942
 20
115
 11
10.437
 21
114.416
  0
LINE
  8
0
 10
10.437
 20
114.416
 11
10.2663
 21
113.855
  0
LINE
  8
0
 10
10.2663
 20
113.855
 11
9.98932
 21
113.336
  0
LINE
  8
0
 10
9.98932
 20
113.336
 11
9.61716
 21
112.882
  0
LINE
  8
0
 10
9.61716
 20
112.882
 11
9.30817
 21
112.629
  0
LINE
  8
0
 10
9.30817
 20
112.629
 11
7.5
 21
109.014
  0
LINE
  8
0
 10
7.5
 20
109.014
 11
5.69183
 21
112.629
  0
LINE
  8
0
 10
-24.3082
 20
112.629
 11
-24.6176
 21
112.883
  0
LINE
  8
0
 10
-24.6176
 20
112.883
 11
-24.9898
 21
113.337
  0
LINE
  8
0
 10
-24.9898
 20
113.337
 11
-25.2658
 21
113.855
  0
LINE
  8
0
 10
-25.2658
 20
113.855
 11
-25.3251
 21
114.051
  0
LINE
  8
0
 10
-25.3251
 20
114.051
 11
-24.2241
 21
117.439
  0
LINE
  8
0
 10
-24.2241
 20
117.439
 11
-24.1631
 21
117.489
  0
LINE
  8
0
 10
-24.1631
 20
117.489
 11
-23.6449
 21
117.766
  0
LINE
  8
0
 10
-23.6449
 20
117.766
 11
-23.0841
 21
117.936
  0
LINE
  8
0
 10
-23.0841
 20
117.936
 11
-22.4995
 21
117.993
  0
LINE
  8
0
 10
-22.4995
 20
117.993
 11
-21.9154
 21
117.937
  0
LINE
  8
0
 10
-21.9154
 20
117.937
 11
-21.3547
 21
117.766
  0
LINE
  8
0
 10
-21.3547
 20
117.766
 11
-20.8365
 21
117.489
  0
LINE
  8
0
 10
-20.8365
 20
117.489
 11
-20.3824
 21
117.117
  0
LINE
  8
0
 10
-20.3824
 20
117.117
 11
-20.0102
 21
116.663
  0
LINE
  8
0
 10
-20.0102
 20
116.663
 11
-19.7337
 21
116.145
  0
LINE
  8
0
 10
-19.7337
 20
116.145
 11
-19.5639
 21
115.584
  0
LINE
  8
0
 10
-19.5639
 20
115.584
 11
-19.5058
 21
115
  0
LINE
  8
0
 10
-19.5058
 20
115
 11
-19.563
 21
114.416
  0
LINE
  8
0
 10
-19.563
 20
114.416
 11
-19.7337
 21
113.855
  0
LINE
  8
0
 10
-19.7337
 20
113.855
 11
-20.0107
 21
113.336
  0
LINE
  8
0
 10
-20.0107
 20
113.336
 11
-20.3828
 21
112.882
  0
LINE
  8
0
 10
-20.3828
 20
112.882
 11
-20.6918
 21
112.629
  0
LINE
  8
0
 10
-20.6918
 20
112.629
 11
-22.5
 21
109.014
  0
LINE
  8
0
 10
-22.5
 20
109.014
 11
-24.3082
 21
112.629
  0
LINE
  8
0
 10
14.4159
 20
104.563
 11
13.8551
 21
104.734
  0
LINE
  8
0
 10
13.8551
 20
104.734
 11
13.3365
 21
105.011
  0
LINE
  8
0
 10
13.3365
 20
105.011
 11
12.8824
 21
105.383
  0
LINE
  8
0
 10
12.8824
 20
105.383
 11
12.5102
 21
105.837
  0
LINE
  8
0
 10
12.5102
 20
105.837
 11
12.2342
 21
106.355
  0
LINE
  8
0
 10
12.2342
 20
106.355
 11
12.0644
 21
106.916
  0
LINE
  8
0
 10
12.0644
 20
106.916
 11
12.0067
 21
107.501
  0
LINE
  8
0
 10
12.0067
 20
107.501
 11
12.0634
 21
108.085
  0
LINE
  8
0
 10
12.0634
 20
108.085
 11
12.2342
 21
108.645
  0
LINE
  8
0
 10
12.2342
 20
108.645
 11
12.5102
 21
109.163
  0
LINE
  8
0
 10
12.5102
 20
109.163
 11
12.8824
 21
109.617
  0
LINE
  8
0
 10
12.8824
 20
109.617
 11
13.3365
 21
109.989
  0
LINE
  8
0
 10
13.3365
 20
109.989
 11
13.8551
 21
110.266
  0
LINE
  8
0
 10
13.8551
 20
110.266
 11
14.4159
 21
110.436
  0
LINE
  8
0
 10
14.4159
 20
110.436
 11
15
 21
110.494
  0
LINE
  8
0
 10
15
 20
110.494
 11
15.5841
 21
110.437
  0
LINE
  8
0
 10
15.5841
 20
110.437
 11
16.1449
 21
110.266
  0
LINE
  8
0
 10
16.1449
 20
110.266
 11
16.6635
 21
109.989
  0
LINE
  8
0
 10
16.6635
 20
109.989
 11
17.1176
 21
109.617
  0
LINE
  8
0
 10
17.1176
 20
109.617
 11
17.3708
 21
109.308
  0
LINE
  8
0
 10
17.3708
 20
109.308
 11
20.9862
 21
107.5
  0
LINE
  8
0
 10
20.9862
 20
107.5
 11
17.3708
 21
105.692
  0
LINE
  8
0
 10
17.3708
 20
105.692
 11
17.1167
 21
105.382
  0
LINE
  8
0
 10
17.1167
 20
105.382
 11
16.6631
 21
105.011
  0
LINE
  8
0
 10
16.6631
 20
105.011
 11
16.1449
 21
104.734
  0
LINE
  8
0
 10
16.1449
 20
104.734
 11
15.5841
 21
104.564
  0
LINE
  8
0
 10
15.5841
 20
104.564
 11
15
 21
104.506
  0
LINE
  8
0
 10
15
 20
104.506
 11
14.4159
 21
104.563
  0
LINE
  8
0
 10
-15.5841
 20
104.563
 11
-16.1449
 21
104.734
  0
LINE
  8
0
 10
-16.1449
 20
104.734
 11
-16.6635
 21
105.011
  0
LINE
  8
0
 10
-16.6635
 20
105.011
 11
-17.1176
 21
105.383
  0
LINE
  8
0
 10
-17.1176
 20
105.383
 11
-17.4898
 21
105.837
  0
LINE
  8
0
 10
-17.4898
 20
105.837
 11
-17.7658
 21
106.355
  0
LINE
  8
0
 10
-17.7658
 20
106.355
 11
-17.9356
 21
106.916
  0
LINE
  8
0
 10
-17.9356
 20
106.916
 11
-17.9933
 21
107.501
  0
LINE
  8
0
 10
-17.9933
 20
107.501
 11
-17.9366
 21
108.085
  0
LINE
  8
0
 10
-17.9366
 20
108.085
 11
-17.7658
 21
108.645
  0
LINE
  8
0
 10
-17.7658
 20
108.645
 11
-17.4898
 21
109.163
  0
LINE
  8
0
 10
-17.4898
 20
109.163
 11
-17.1176
 21
109.617
  0
LINE
  8
0
 10
-17.1176
 20
109.617
 11
-16.6635
 21
109.989
  0
LINE
  8
0
 10
-16.6635
 20
109.989
 11
-16.1449
 21
110.266
  0
LINE
  8
0
 10
-16.1449
 20
110.266
 11
-15.5841
 21
110.436
  0
LINE
  8
0
 10
-15.5841
 20
110.436
 11
-15
 21
110.494
  0
LINE
  8
0
 10
-15
 20
110.494
 11
-14.4159
 21
110.437
  0
LINE
  8
0
 10
-14.4159
 20
110.437
 11
-13.8551
 21
110.266
  0
LINE
  8
0
 10
-13.8551
 20
110.266
 11
-13.3365
 21
109.989
  0
LINE
  8
0
 10
-13.3365
 20
109.989
 11
-12.8824
 21
109.617
  0
LINE
  8
0
 10
-12.8824
 20
109.617
 11
-12.6292
 21
109.308
  0
LINE
  8
0
 10
-12.6292
 20
109.308
 11
-9.01382
 21
107.5
  0
LINE
  8
0
 10
-9.01382
 20
107.5
 11
-12.6292
 21
105.692
  0
LINE
  8
0
 10
-12.6292
 20
105.692
 11
-12.8833
 21
105.382
  0
LINE
  8
0
 10
-12.8833
 20
105.382
 11
-13.3369
 21
105.011
  0
LINE
  8
0
 10
-13.3369
 20
105.011
 11
-13.8551
 21
104.734
  0
LINE
  8
0
 10
-13.8551
 20
104.734
 11
-14.4159
 21
104.564
  0
LINE
  8
0
 10
-14.4159
 20
104.564
 11
-15
 21
104.506
  0
LINE
  8
0
 10
-15
 20
104.506
 11
-15.5841
 21
104.563
  0
LINE
  8
0
 10
-0.584106
 20
104.563
 11
-1.14487
 21
104.734
  0
LINE
  8
0
 10
-1.14487
 20
104.734
 11
-1.66306
 21
105.01
  0
LINE
  8
0
 10
-1.66306
 20
105.01
 11
-2.11716
 21
105.382
  0
LINE
  8
0
 10
-2.11716
 20
105.382
 11
-2.48932
 21
105.836
  0
LINE
  8
0
 10
-2.48932
 20
105.836
 11
-2.76581
 21
106.355
  0
LINE
  8
0
 10
-2.76581
 20
106.355
 11
-2.93564
 21
106.915
  0
LINE
  8
0
 10
-2.93564
 20
106.915
 11
-2.99332
 21
107.5
  0
LINE
  8
0
 10
-2.99332
 20
107.5
 11
-2.93655
 21
108.084
  0
LINE
  8
0
 10
-2.93655
 20
108.084
 11
-2.76581
 21
108.645
  0
LINE
  8
0
 10
-2.76581
 20
108.645
 11
-2.48932
 21
109.163
  0
LINE
  8
0
 10
-2.48932
 20
109.163
 11
-2.11716
 21
109.617
  0
LINE
  8
0
 10
-2.11716
 20
109.617
 11
-1.66306
 21
109.989
  0
LINE
  8
0
 10
-1.66306
 20
109.989
 11
-1.14487
 21
110.266
  0
LINE
  8
0
 10
-1.14487
 20
110.266
 11
-0.584106
 21
110.436
  0
LINE
  8
0
 10
-0.584106
 20
110.436
 11
0
 21
110.494
  0
LINE
  8
0
 10
0
 20
110.494
 11
0.584106
 21
110.437
  0
LINE
  8
0
 10
0.584106
 20
110.437
 11
1.14487
 21
110.266
  0
LINE
  8
0
 10
1.14487
 20
110.266
 11
1.66351
 21
109.989
  0
LINE
  8
0
 10
1.66351
 20
109.989
 11
2.11761
 21
109.617
  0
LINE
  8
0
 10
2.11761
 20
109.617
 11
2.37076
 21
109.308
  0
LINE
  8
0
 10
2.37076
 20
109.308
 11
5.98618
 21
107.5
  0
LINE
  8
0
 10
5.98618
 20
107.5
 11
2.37076
 21
105.692
  0
LINE
  8
0
 10
2.37076
 20
105.692
 11
2.1167
 21
105.382
  0
LINE
  8
0
 10
2.1167
 20
105.382
 11
1.66351
 21
105.011
  0
LINE
  8
0
 10
1.66351
 20
105.011
 11
1.14487
 21
104.734
  0
LINE
  8
0
 10
1.14487
 20
104.734
 11
0.584106
 21
104.564
  0
LINE
  8
0
 10
0.584106
 20
104.564
 11
0
 21
104.506
  0
LINE
  8
0
 10
0
 20
104.506
 11
-0.584106
 21
104.563
  0
LINE
  8
0
 10
-26.9728
 20
108.98
 11
-24.0138
 21
107.5
  0
LINE
  8
0
 10
-24.0138
 20
107.5
 11
-27.6292
 21
105.692
  0
LINE
  8
0
 10
-27.6292
 20
105.692
 11
-27.8833
 21
105.382
  0
LINE
  8
0
 10
-27.8833
 20
105.382
 11
-28.2355
 21
105.093
  0
LINE
  8
0
 10
-28.2355
 20
105.093
 11
-26.9728
 21
108.98
  0
LINE
  8
0
 10
27.8828
 20
105.382
 11
27.5107
 21
105.836
  0
LINE
  8
0
 10
27.5107
 20
105.836
 11
27.2342
 21
106.355
  0
LINE
  8
0
 10
27.2342
 20
106.355
 11
27.0644
 21
106.915
  0
LINE
  8
0
 10
27.0644
 20
106.915
 11
27.0067
 21
107.5
  0
LINE
  8
0
 10
27.0067
 20
107.5
 11
27.0634
 21
108.084
  0
LINE
  8
0
 10
27.0634
 20
108.084
 11
27.1604
 21
108.402
  0
LINE
  8
0
 10
27.1604
 20
108.402
 11
28.2356
 21
105.093
  0
LINE
  8
0
 10
28.2356
 20
105.093
 11
27.8828
 21
105.382
  0
LINE
  8
0
 10
21.9159
 20
97.0634
 11
21.3551
 21
97.2342
  0
LINE
  8
0
 10
21.3551
 20
97.2342
 11
20.8365
 21
97.5111
  0
LINE
  8
0
 10
20.8365
 20
97.5111
 11
20.3824
 21
97.8833
  0
LINE
  8
0
 10
20.3824
 20
97.8833
 11
20.0102
 21
98.3374
  0
LINE
  8
0
 10
20.0102
 20
98.3374
 11
19.7342
 21
98.8551
  0
LINE
  8
0
 10
19.7342
 20
98.8551
 11
19.5644
 21
99.4159
  0
LINE
  8
0
 10
19.5644
 20
99.4159
 11
19.5062
 21
100
  0
LINE
  8
0
 10
19.5062
 20
100
 11
19.5634
 21
100.584
  0
LINE
  8
0
 10
19.5634
 20
100.584
 11
19.7342
 21
101.145
  0
LINE
  8
0
 10
19.7342
 20
101.145
 11
20.0107
 21
101.663
  0
LINE
  8
0
 10
20.0107
 20
101.663
 11
20.3828
 21
102.117
  0
LINE
  8
0
 10
20.3828
 20
102.117
 11
20.6918
 21
102.371
  0
LINE
  8
0
 10
20.6918
 20
102.371
 11
22.5
 21
105.986
  0
LINE
  8
0
 10
22.5
 20
105.986
 11
24.3082
 21
102.371
  0
LINE
  8
0
 10
24.3082
 20
102.371
 11
24.6181
 21
102.117
  0
LINE
  8
0
 10
24.6181
 20
102.117
 11
24.9898
 21
101.663
  0
LINE
  8
0
 10
24.9898
 20
101.663
 11
25.2663
 21
101.145
  0
LINE
  8
0
 10
25.2663
 20
101.145
 11
25.4361
 21
100.584
  0
LINE
  8
0
 10
25.4361
 20
100.584
 11
25.4942
 21
100
  0
LINE
  8
0
 10
25.4942
 20
100
 11
25.437
 21
99.4159
  0
LINE
  8
0
 10
25.437
 20
99.4159
 11
25.2663
 21
98.8551
  0
LINE
  8
0
 10
25.2663
 20
98.8551
 11
24.9898
 21
98.3369
  0
LINE
  8
0
 10
24.9898
 20
98.3369
 11
24.6176
 21
97.8828
  0
LINE
  8
0
 10
24.6176
 20
97.8828
 11
24.164
 21
97.5111
  0
LINE
  8
0
 10
24.164
 20
97.5111
 11
23.6453
 21
97.2342
  0
LINE
  8
0
 10
23.6453
 20
97.2342
 11
23.0846
 21
97.0644
  0
LINE
  8
0
 10
23.0846
 20
97.0644
 11
22.5
 21
97.0067
  0
LINE
  8
0
 10
22.5
 20
97.0067
 11
21.9159
 21
97.0634
  0
LINE
  8
0
 10
-8.08411
 20
97.0634
 11
-8.64487
 21
97.2342
  0
LINE
  8
0
 10
-8.64487
 20
97.2342
 11
-9.16351
 21
97.5111
  0
LINE
  8
0
 10
-9.16351
 20
97.5111
 11
-9.61761
 21
97.8833
  0
LINE
  8
0
 10
-9.61761
 20
97.8833
 11
-9.98978
 21
98.3374
  0
LINE
  8
0
 10
-9.98978
 20
98.3374
 11
-10.2658
 21
98.8551
  0
LINE
  8
0
 10
-10.2658
 20
98.8551
 11
-10.4356
 21
99.4159
  0
LINE
  8
0
 10
-10.4356
 20
99.4159
 11
-10.4938
 21
100
  0
LINE
  8
0
 10
-10.4938
 20
100
 11
-10.4366
 21
100.584
  0
LINE
  8
0
 10
-10.4366
 20
100.584
 11
-10.2658
 21
101.145
  0
LINE
  8
0
 10
-10.2658
 20
101.145
 11
-9.98932
 21
101.663
  0
LINE
  8
0
 10
-9.98932
 20
101.663
 11
-9.61716
 21
102.117
  0
LINE
  8
0
 10
-9.61716
 20
102.117
 11
-9.30817
 21
102.371
  0
LINE
  8
0
 10
-9.30817
 20
102.371
 11
-7.5
 21
105.986
  0
LINE
  8
0
 10
-7.5
 20
105.986
 11
-5.69183
 21
102.371
  0
LINE
  8
0
 10
-5.69183
 20
102.371
 11
-5.38193
 21
102.117
  0
LINE
  8
0
 10
-5.38193
 20
102.117
 11
-5.01022
 21
101.663
  0
LINE
  8
0
 10
-5.01022
 20
101.663
 11
-4.73373
 21
101.145
  0
LINE
  8
0
 10
-4.73373
 20
101.145
 11
-4.5639
 21
100.584
  0
LINE
  8
0
 10
-4.5639
 20
100.584
 11
-4.50577
 21
100
  0
LINE
  8
0
 10
-4.50577
 20
100
 11
-4.56299
 21
99.4159
  0
LINE
  8
0
 10
-4.56299
 20
99.4159
 11
-4.73373
 21
98.8551
  0
LINE
  8
0
 10
-4.73373
 20
98.8551
 11
-5.01022
 21
98.3369
  0
LINE
  8
0
 10
-5.01022
 20
98.3369
 11
-5.38239
 21
97.8828
  0
LINE
  8
0
 10
-5.38239
 20
97.8828
 11
-5.83603
 21
97.5111
  0
LINE
  8
0
 10
-5.83603
 20
97.5111
 11
-6.35468
 21
97.2342
  0
LINE
  8
0
 10
-6.35468
 20
97.2342
 11
-6.91544
 21
97.0644
  0
LINE
  8
0
 10
-6.91544
 20
97.0644
 11
-7.5
 21
97.0067
  0
LINE
  8
0
 10
-7.5
 20
97.0067
 11
-8.08411
 21
97.0634
  0
LINE
  8
0
 10
5.69183
 20
97.6292
 11
5.38193
 21
97.8833
  0
LINE
  8
0
 10
5.38193
 20
97.8833
 11
5.01022
 21
98.3369
  0
LINE
  8
0
 10
5.01022
 20
98.3369
 11
4.73373
 21
98.8551
  0
LINE
  8
0
 10
4.73373
 20
98.8551
 11
4.5639
 21
99.4159
  0
LINE
  8
0
 10
4.5639
 20
99.4159
 11
4.50577
 21
100
  0
LINE
  8
0
 10
4.50577
 20
100
 11
4.56299
 21
100.584
  0
LINE
  8
0
 10
4.56299
 20
100.584
 11
4.73373
 21
101.145
  0
LINE
  8
0
 10
4.73373
 20
101.145
 11
5.00977
 21
101.663
  0
LINE
  8
0
 10
5.00977
 20
101.663
 11
5.38193
 21
102.117
  0
LINE
  8
0
 10
5.38193
 20
102.117
 11
5.83603
 21
102.489
  0
LINE
  8
0
 10
5.83603
 20
102.489
 11
6.35468
 21
102.766
  0
LINE
  8
0
 10
6.35468
 20
102.766
 11
6.91544
 21
102.936
  0
LINE
  8
0
 10
6.91544
 20
102.936
 11
7.5
 21
102.993
  0
LINE
  8
0
 10
7.5
 20
102.993
 11
8.08411
 21
102.937
  0
LINE
  8
0
 10
8.08411
 20
102.937
 11
8.64487
 21
102.766
  0
LINE
  8
0
 10
8.64487
 20
102.766
 11
9.16351
 21
102.489
  0
LINE
  8
0
 10
9.16351
 20
102.489
 11
9.61761
 21
102.117
  0
LINE
  8
0
 10
9.61761
 20
102.117
 11
9.98978
 21
101.663
  0
LINE
  8
0
 10
9.98978
 20
101.663
 11
10.2658
 21
101.145
  0
LINE
  8
0
 10
10.2658
 20
101.145
 11
10.4356
 21
100.584
  0
LINE
  8
0
 10
10.4356
 20
100.584
 11
10.4938
 21
100
  0
LINE
  8
0
 10
10.4938
 20
100
 11
10.4366
 21
99.4159
  0
LINE
  8
0
 10
10.4366
 20
99.4159
 11
10.2658
 21
98.8551
  0
LINE
  8
0
 10
10.2658
 20
98.8551
 11
9.98886
 21
98.3365
  0
LINE
  8
0
 10
9.98886
 20
98.3365
 11
9.6167
 21
97.8824
  0
LINE
  8
0
 10
9.6167
 20
97.8824
 11
9.30817
 21
97.6292
  0
LINE
  8
0
 10
9.30817
 20
97.6292
 11
7.5
 21
94.0138
  0
LINE
  8
0
 10
7.5
 20
94.0138
 11
5.69183
 21
97.6292
  0
LINE
  8
0
 10
-24.3082
 20
97.6292
 11
-24.6181
 21
97.8833
  0
LINE
  8
0
 10
-24.6181
 20
97.8833
 11
-24.9898
 21
98.3369
  0
LINE
  8
0
 10
-24.9898
 20
98.3369
 11
-25.2663
 21
98.8551
  0
LINE
  8
0
 10
-25.2663
 20
98.8551
 11
-25.4361
 21
99.4159
  0
LINE
  8
0
 10
-25.4361
 20
99.4159
 11
-25.4942
 21
100
  0
LINE
  8
0
 10
-25.4942
 20
100
 11
-25.437
 21
100.584
  0
LINE
  8
0
 10
-25.437
 20
100.584
 11
-25.2663
 21
101.145
  0
LINE
  8
0
 10
-25.2663
 20
101.145
 11
-24.9902
 21
101.663
  0
LINE
  8
0
 10
-24.9902
 20
101.663
 11
-24.6181
 21
102.117
  0
LINE
  8
0
 10
-24.6181
 20
102.117
 11
-24.164
 21
102.489
  0
LINE
  8
0
 10
-24.164
 20
102.489
 11
-23.6453
 21
102.766
  0
LINE
  8
0
 10
-23.6453
 20
102.766
 11
-23.0846
 21
102.936
  0
LINE
  8
0
 10
-23.0846
 20
102.936
 11
-22.5
 21
102.993
  0
LINE
  8
0
 10
-22.5
 20
102.993
 11
-21.9159
 21
102.937
  0
LINE
  8
0
 10
-21.9159
 20
102.937
 11
-21.3551
 21
102.766
  0
LINE
  8
0
 10
-21.3551
 20
102.766
 11
-20.8365
 21
102.489
  0
LINE
  8
0
 10
-20.8365
 20
102.489
 11
-20.3824
 21
102.117
  0
LINE
  8
0
 10
-20.3824
 20
102.117
 11
-20.0102
 21
101.663
  0
LINE
  8
0
 10
-20.0102
 20
101.663
 11
-19.7342
 21
101.145
  0
LINE
  8
0
 10
-19.7342
 20
101.145
 11
-19.5644
 21
100.584
  0
LINE
  8
0
 10
-19.5644
 20
100.584
 11
-19.5062
 21
100
  0
LINE
  8
0
 10
-19.5062
 20
100
 11
-19.5634
 21
99.4159
  0
LINE
  8
0
 10
-19.5634
 20
99.4159
 11
-19.7342
 21
98.8551
  0
LINE
  8
0
 10
-19.7342
 20
98.8551
 11
-20.0111
 21
98.3365
  0
LINE
  8
0
 10
-20.0111
 20
98.3365
 11
-20.3833
 21
97.8824
  0
LINE
  8
0
 10
-20.3833
 20
97.8824
 11
-20.6918
 21
97.6292
  0
LINE
  8
0
 10
-20.6918
 20
97.6292
 11
-22.5
 21
94.0138
  0
LINE
  8
0
 10
-22.5
 20
94.0138
 11
-24.3082
 21
97.6292
  0
LINE
  8
0
 10
-0.584106
 20
89.5634
 11
-1.14487
 21
89.7342
  0
LINE
  8
0
 10
-1.14487
 20
89.7342
 11
-1.66351
 21
90.0111
  0
LINE
  8
0
 10
-1.66351
 20
90.0111
 11
-2.11761
 21
90.3833
  0
LINE
  8
0
 10
-2.11761
 20
90.3833
 11
-2.37076
 21
90.6918
  0
LINE
  8
0
 10
-2.37076
 20
90.6918
 11
-5.98618
 21
92.5
  0
LINE
  8
0
 10
-5.98618
 20
92.5
 11
-2.37076
 21
94.3082
  0
LINE
  8
0
 10
-2.37076
 20
94.3082
 11
-2.11716
 21
94.6176
  0
LINE
  8
0
 10
-2.11716
 20
94.6176
 11
-1.66351
 21
94.9893
  0
LINE
  8
0
 10
-1.66351
 20
94.9893
 11
-1.14487
 21
95.2663
  0
LINE
  8
0
 10
-1.14487
 20
95.2663
 11
-0.584106
 21
95.4361
  0
LINE
  8
0
 10
-0.584106
 20
95.4361
 11
0
 21
95.4942
  0
LINE
  8
0
 10
0
 20
95.4942
 11
0.584106
 21
95.437
  0
LINE
  8
0
 10
0.584106
 20
95.437
 11
1.14487
 21
95.2663
  0
LINE
  8
0
 10
1.14487
 20
95.2663
 11
1.66306
 21
94.9898
  0
LINE
  8
0
 10
1.66306
 20
94.9898
 11
2.11716
 21
94.6176
  0
LINE
  8
0
 10
2.11716
 20
94.6176
 11
2.48932
 21
94.1635
  0
LINE
  8
0
 10
2.48932
 20
94.1635
 11
2.76581
 21
93.6453
  0
LINE
  8
0
 10
2.76581
 20
93.6453
 11
2.93564
 21
93.0846
  0
LINE
  8
0
 10
2.93564
 20
93.0846
 11
2.99332
 21
92.4995
  0
LINE
  8
0
 10
2.99332
 20
92.4995
 11
2.93655
 21
91.9159
  0
LINE
  8
0
 10
2.93655
 20
91.9159
 11
2.76581
 21
91.3551
  0
LINE
  8
0
 10
2.76581
 20
91.3551
 11
2.48886
 21
90.8365
  0
LINE
  8
0
 10
2.48886
 20
90.8365
 11
2.1167
 21
90.3824
  0
LINE
  8
0
 10
2.1167
 20
90.3824
 11
1.66306
 21
90.0107
  0
LINE
  8
0
 10
1.66306
 20
90.0107
 11
1.14487
 21
89.7342
  0
LINE
  8
0
 10
1.14487
 20
89.7342
 11
0.584106
 21
89.5644
  0
LINE
  8
0
 10
0.584106
 20
89.5644
 11
0
 21
89.5062
  0
LINE
  8
0
 10
0
 20
89.5062
 11
-0.584106
 21
89.5634
  0
LINE
  8
0
 10
-30.5841
 20
89.5634
 11
-31.1449
 21
89.7342
  0
LINE
  8
0
 10
-31.1449
 20
89.7342
 11
-31.6635
 21
90.0111
  0
LINE
  8
0
 10
-31.6635
 20
90.0111
 11
-32.1176
 21
90.3833
  0
LINE
  8
0
 10
-32.1176
 20
90.3833
 11
-32.3708
 21
90.6918
  0
LINE
  8
0
 10
-32.3708
 20
90.6918
 11
-32.8388
 21
90.9259
  0
LINE
  8
0
 10
-32.8388
 20
90.9259
 11
-31.4881
 21
95.083
  0
LINE
  8
0
 10
-31.4881
 20
95.083
 11
-31.1449
 21
95.2663
  0
LINE
  8
0
 10
-31.1449
 20
95.2663
 11
-30.5841
 21
95.4361
  0
LINE
  8
0
 10
-30.5841
 20
95.4361
 11
-30
 21
95.4942
  0
LINE
  8
0
 10
-30
 20
95.4942
 11
-29.4159
 21
95.437
  0
LINE
  8
0
 10
-29.4159
 20
95.437
 11
-28.8551
 21
95.2663
  0
LINE
  8
0
 10
-28.8551
 20
95.2663
 11
-28.3369
 21
94.9898
  0
LINE
  8
0
 10
-28.3369
 20
94.9898
 11
-27.8828
 21
94.6176
  0
LINE
  8
0
 10
-27.8828
 20
94.6176
 11
-27.5107
 21
94.1635
  0
LINE
  8
0
 10
-27.5107
 20
94.1635
 11
-27.2342
 21
93.6453
  0
LINE
  8
0
 10
-27.2342
 20
93.6453
 11
-27.0644
 21
93.0846
  0
LINE
  8
0
 10
-27.0644
 20
93.0846
 11
-27.0067
 21
92.4995
  0
LINE
  8
0
 10
-27.0067
 20
92.4995
 11
-27.0634
 21
91.9159
  0
LINE
  8
0
 10
-27.0634
 20
91.9159
 11
-27.2342
 21
91.3551
  0
LINE
  8
0
 10
-27.2342
 20
91.3551
 11
-27.5111
 21
90.8365
  0
LINE
  8
0
 10
-27.5111
 20
90.8365
 11
-27.8833
 21
90.3824
  0
LINE
  8
0
 10
-27.8833
 20
90.3824
 11
-28.3369
 21
90.0107
  0
LINE
  8
0
 10
-28.3369
 20
90.0107
 11
-28.8551
 21
89.7342
  0
LINE
  8
0
 10
-28.8551
 20
89.7342
 11
-29.4159
 21
89.5644
  0
LINE
  8
0
 10
-29.4159
 20
89.5644
 11
-30
 21
89.5062
  0
LINE
  8
0
 10
-30
 20
89.5062
 11
-30.5841
 21
89.5634
  0
LINE
  8
0
 10
29.4159
 20
89.5634
 11
28.8551
 21
89.7342
  0
LINE
  8
0
 10
28.8551
 20
89.7342
 11
28.3365
 21
90.0111
  0
LINE
  8
0
 10
28.3365
 20
90.0111
 11
27.8824
 21
90.3833
  0
LINE
  8
0
 10
27.8824
 20
90.3833
 11
27.6292
 21
90.6918
  0
LINE
  8
0
 10
27.6292
 20
90.6918
 11
24.0138
 21
92.5
  0
LINE
  8
0
 10
24.0138
 20
92.5
 11
27.6292
 21
94.3082
  0
LINE
  8
0
 10
27.6292
 20
94.3082
 11
27.8828
 21
94.6176
  0
LINE
  8
0
 10
27.8828
 20
94.6176
 11
28.3365
 21
94.9893
  0
LINE
  8
0
 10
28.3365
 20
94.9893
 11
28.8551
 21
95.2663
  0
LINE
  8
0
 10
28.8551
 20
95.2663
 11
29.4159
 21
95.4361
  0
LINE
  8
0
 10
29.4159
 20
95.4361
 11
30
 21
95.4942
  0
LINE
  8
0
 10
30
 20
95.4942
 11
30.5841
 21
95.437
  0
LINE
  8
0
 10
30.5841
 20
95.437
 11
31.1449
 21
95.2663
  0
LINE
  8
0
 10
31.1449
 20
95.2663
 11
31.4881
 21
95.0831
  0
LINE
  8
0
 10
31.4881
 20
95.0831
 11
32.7245
 21
91.2778
  0
LINE
  8
0
 10
32.7245
 20
91.2778
 11
32.4889
 21
90.8365
  0
LINE
  8
0
 10
32.4889
 20
90.8365
 11
32.1167
 21
90.3824
  0
LINE
  8
0
 10
32.1167
 20
90.3824
 11
31.6631
 21
90.0107
  0
LINE
  8
0
 10
31.6631
 20
90.0107
 11
31.1449
 21
89.7342
  0
LINE
  8
0
 10
31.1449
 20
89.7342
 11
30.5841
 21
89.5644
  0
LINE
  8
0
 10
30.5841
 20
89.5644
 11
30
 21
89.5062
  0
LINE
  8
0
 10
30
 20
89.5062
 11
29.4159
 21
89.5634
  0
LINE
  8
0
 10
14.4159
 20
89.563
 11
13.8551
 21
89.7337
  0
LINE
  8
0
 10
13.8551
 20
89.7337
 11
13.3365
 21
90.0107
  0
LINE
  8
0
 10
13.3365
 20
90.0107
 11
12.8824
 21
90.3828
  0
LINE
  8
0
 10
12.8824
 20
90.3828
 11
12.6292
 21
90.6918
  0
LINE
  8
0
 10
12.6292
 20
90.6918
 11
9.01382
 21
92.5
  0
LINE
  8
0
 10
9.01382
 20
92.5
 11
12.6292
 21
94.3082
  0
LINE
  8
0
 10
12.6292
 20
94.3082
 11
12.8828
 21
94.6172
  0
LINE
  8
0
 10
12.8828
 20
94.6172
 11
13.3369
 21
94.9893
  0
LINE
  8
0
 10
13.3369
 20
94.9893
 11
13.8551
 21
95.2658
  0
LINE
  8
0
 10
13.8551
 20
95.2658
 11
14.4159
 21
95.4356
  0
LINE
  8
0
 10
14.4159
 20
95.4356
 11
15
 21
95.4938
  0
LINE
  8
0
 10
15
 20
95.4938
 11
15.5841
 21
95.4366
  0
LINE
  8
0
 10
15.5841
 20
95.4366
 11
16.1449
 21
95.2658
  0
LINE
  8
0
 10
16.1449
 20
95.2658
 11
16.6635
 21
94.9889
  0
LINE
  8
0
 10
16.6635
 20
94.9889
 11
17.1176
 21
94.6167
  0
LINE
  8
0
 10
17.1176
 20
94.6167
 11
17.4898
 21
94.1626
  0
LINE
  8
0
 10
17.4898
 20
94.1626
 11
17.7658
 21
93.6449
  0
LINE
  8
0
 10
17.7658
 20
93.6449
 11
17.9356
 21
93.0841
  0
LINE
  8
0
 10
17.9356
 20
93.0841
 11
17.9933
 21
92.4991
  0
LINE
  8
0
 10
17.9933
 20
92.4991
 11
17.9366
 21
91.9154
  0
LINE
  8
0
 10
17.9366
 20
91.9154
 11
17.7658
 21
91.3547
  0
LINE
  8
0
 10
17.7658
 20
91.3547
 11
17.4893
 21
90.8365
  0
LINE
  8
0
 10
17.4893
 20
90.8365
 11
17.1172
 21
90.3824
  0
LINE
  8
0
 10
17.1172
 20
90.3824
 11
16.6635
 21
90.0107
  0
LINE
  8
0
 10
16.6635
 20
90.0107
 11
16.1449
 21
89.7337
  0
LINE
  8
0
 10
16.1449
 20
89.7337
 11
15.5841
 21
89.5639
  0
LINE
  8
0
 10
15.5841
 20
89.5639
 11
15
 21
89.5058
  0
LINE
  8
0
 10
15
 20
89.5058
 11
14.4159
 21
89.563
  0
LINE
  8
0
 10
-15.5841
 20
89.563
 11
-16.1449
 21
89.7337
  0
LINE
  8
0
 10
-16.1449
 20
89.7337
 11
-16.6635
 21
90.0107
  0
LINE
  8
0
 10
-16.6635
 20
90.0107
 11
-17.1176
 21
90.3828
  0
LINE
  8
0
 10
-17.1176
 20
90.3828
 11
-17.3708
 21
90.6918
  0
LINE
  8
0
 10
-17.3708
 20
90.6918
 11
-20.9862
 21
92.5
  0
LINE
  8
0
 10
-20.9862
 20
92.5
 11
-17.3708
 21
94.3082
  0
LINE
  8
0
 10
-17.3708
 20
94.3082
 11
-17.1172
 21
94.6172
  0
LINE
  8
0
 10
-17.1172
 20
94.6172
 11
-16.6631
 21
94.9893
  0
LINE
  8
0
 10
-16.6631
 20
94.9893
 11
-16.1449
 21
95.2658
  0
LINE
  8
0
 10
-16.1449
 20
95.2658
 11
-15.5841
 21
95.4356
  0
LINE
  8
0
 10
-15.5841
 20
95.4356
 11
-15
 21
95.4938
  0
LINE
  8
0
 10
-15
 20
95.4938
 11
-14.4159
 21
95.4366
  0
LINE
  8
0
 10
-14.4159
 20
95.4366
 11
-13.8551
 21
95.2658
  0
LINE
  8
0
 10
-13.8551
 20
95.2658
 11
-13.3365
 21
94.9889
  0
LINE
  8
0
 10
-13.3365
 20
94.9889
 11
-12.8824
 21
94.6167
  0
LINE
  8
0
 10
-12.8824
 20
94.6167
 11
-12.5102
 21
94.1626
  0
LINE
  8
0
 10
-12.5102
 20
94.1626
 11
-12.2342
 21
93.6449
  0
LINE
  8
0
 10
-12.2342
 20
93.6449
 11
-12.0644
 21
93.0841
  0
LINE
  8
0
 10
-12.0644
 20
93.0841
 11
-12.0067
 21
92.4991
  0
LINE
  8
0
 10
-12.0067
 20
92.4991
 11
-12.0634
 21
91.9154
  0
LINE
  8
0
 10
-12.0634
 20
91.9154
 11
-12.2342
 21
91.3547
  0
LINE
  8
0
 10
-12.2342
 20
91.3547
 11
-12.5107
 21
90.8365
  0
LINE
  8
0
 10
-12.5107
 20
90.8365
 11
-12.8828
 21
90.3824
  0
LINE
  8
0
 10
-12.8828
 20
90.3824
 11
-13.3365
 21
90.0107
  0
LINE
  8
0
 10
-13.3365
 20
90.0107
 11
-13.8551
 21
89.7337
  0
LINE
  8
0
 10
-13.8551
 20
89.7337
 11
-14.4159
 21
89.5639
  0
LINE
  8
0
 10
-14.4159
 20
89.5639
 11
-15
 21
89.5058
  0
LINE
  8
0
 10
-15
 20
89.5058
 11
-15.5841
 21
89.563
  0
LINE
  8
0
 10
21.9154
 20
82.0634
 11
21.3547
 21
82.2342
  0
LINE
  8
0
 10
21.3547
 20
82.2342
 11
20.8365
 21
82.5107
  0
LINE
  8
0
 10
20.8365
 20
82.5107
 11
20.3824
 21
82.8828
  0
LINE
  8
0
 10
20.3824
 20
82.8828
 11
20.0102
 21
83.3369
  0
LINE
  8
0
 10
20.0102
 20
83.3369
 11
19.7337
 21
83.8551
  0
LINE
  8
0
 10
19.7337
 20
83.8551
 11
19.5639
 21
84.4159
  0
LINE
  8
0
 10
19.5639
 20
84.4159
 11
19.5058
 21
85
  0
LINE
  8
0
 10
19.5058
 20
85
 11
19.563
 21
85.5841
  0
LINE
  8
0
 10
19.563
 20
85.5841
 11
19.7337
 21
86.1449
  0
LINE
  8
0
 10
19.7337
 20
86.1449
 11
20.0102
 21
86.6631
  0
LINE
  8
0
 10
20.0102
 20
86.6631
 11
20.3824
 21
87.1172
  0
LINE
  8
0
 10
20.3824
 20
87.1172
 11
20.6918
 21
87.3708
  0
LINE
  8
0
 10
20.6918
 20
87.3708
 11
22.5
 21
90.9862
  0
LINE
  8
0
 10
22.5
 20
90.9862
 11
24.3082
 21
87.3708
  0
LINE
  8
0
 10
24.3082
 20
87.3708
 11
24.6176
 21
87.1167
  0
LINE
  8
0
 10
24.6176
 20
87.1167
 11
24.9898
 21
86.6626
  0
LINE
  8
0
 10
24.9898
 20
86.6626
 11
25.2658
 21
86.1449
  0
LINE
  8
0
 10
25.2658
 20
86.1449
 11
25.4356
 21
85.5841
  0
LINE
  8
0
 10
25.4356
 20
85.5841
 11
25.4938
 21
85
  0
LINE
  8
0
 10
25.4938
 20
85
 11
25.4366
 21
84.4159
  0
LINE
  8
0
 10
25.4366
 20
84.4159
 11
25.2658
 21
83.8551
  0
LINE
  8
0
 10
25.2658
 20
83.8551
 11
24.9889
 21
83.3365
  0
LINE
  8
0
 10
24.9889
 20
83.3365
 11
24.6167
 21
82.8824
  0
LINE
  8
0
 10
24.6167
 20
82.8824
 11
24.1631
 21
82.5107
  0
LINE
  8
0
 10
24.1631
 20
82.5107
 11
23.6449
 21
82.2342
  0
LINE
  8
0
 10
23.6449
 20
82.2342
 11
23.0841
 21
82.0644
  0
LINE
  8
0
 10
23.0841
 20
82.0644
 11
22.4995
 21
82.0067
  0
LINE
  8
0
 10
22.4995
 20
82.0067
 11
21.9154
 21
82.0634
  0
LINE
  8
0
 10
-8.08456
 20
82.0634
 11
-8.64532
 21
82.2342
  0
LINE
  8
0
 10
-8.64532
 20
82.2342
 11
-9.16351
 21
82.5107
  0
LINE
  8
0
 10
-9.16351
 20
82.5107
 11
-9.61761
 21
82.8828
  0
LINE
  8
0
 10
-9.61761
 20
82.8828
 11
-9.98978
 21
83.3369
  0
LINE
  8
0
 10
-9.98978
 20
83.3369
 11
-10.2663
 21
83.8551
  0
LINE
  8
0
 10
-10.2663
 20
83.8551
 11
-10.4361
 21
84.4159
  0
LINE
  8
0
 10
-10.4361
 20
84.4159
 11
-10.4942
 21
85
  0
LINE
  8
0
 10
-10.4942
 20
85
 11
-10.437
 21
85.5841
  0
LINE
  8
0
 10
-10.437
 20
85.5841
 11
-10.2663
 21
86.1449
  0
LINE
  8
0
 10
-10.2663
 20
86.1449
 11
-9.98978
 21
86.6631
  0
LINE
  8
0
 10
-9.98978
 20
86.6631
 11
-9.61761
 21
87.1172
  0
LINE
  8
0
 10
-9.61761
 20
87.1172
 11
-9.30817
 21
87.3708
  0
LINE
  8
0
 10
-9.30817
 20
87.3708
 11
-7.5
 21
90.9862
  0
LINE
  8
0
 10
-7.5
 20
90.9862
 11
-5.69183
 21
87.3708
  0
LINE
  8
0
 10
-5.69183
 20
87.3708
 11
-5.38239
 21
87.1167
  0
LINE
  8
0
 10
-5.38239
 20
87.1167
 11
-5.01022
 21
86.6626
  0
LINE
  8
0
 10
-5.01022
 20
86.6626
 11
-4.73419
 21
86.1449
  0
LINE
  8
0
 10
-4.73419
 20
86.1449
 11
-4.56436
 21
85.5841
  0
LINE
  8
0
 10
-4.56436
 20
85.5841
 11
-4.50623
 21
85
  0
LINE
  8
0
 10
-4.50623
 20
85
 11
-4.56345
 21
84.4159
  0
LINE
  8
0
 10
-4.56345
 20
84.4159
 11
-4.73419
 21
83.8551
  0
LINE
  8
0
 10
-4.73419
 20
83.8551
 11
-5.01114
 21
83.3365
  0
LINE
  8
0
 10
-5.01114
 20
83.3365
 11
-5.3833
 21
82.8824
  0
LINE
  8
0
 10
-5.3833
 20
82.8824
 11
-5.83694
 21
82.5107
  0
LINE
  8
0
 10
-5.83694
 20
82.5107
 11
-6.35513
 21
82.2342
  0
LINE
  8
0
 10
-6.35513
 20
82.2342
 11
-6.91589
 21
82.0644
  0
LINE
  8
0
 10
-6.91589
 20
82.0644
 11
-7.50046
 21
82.0067
  0
LINE
  8
0
 10
-7.50046
 20
82.0067
 11
-8.08456
 21
82.0634
  0
LINE
  8
0
 10
5.69183
 20
82.6292
 11
5.38239
 21
82.8833
  0
LINE
  8
0
 10
5.38239
 20
82.8833
 11
5.01022
 21
83.3374
  0
LINE
  8
0
 10
5.01022
 20
83.3374
 11
4.73419
 21
83.8551
  0
LINE
  8
0
 10
4.73419
 20
83.8551
 11
4.56436
 21
84.4159
  0
LINE
  8
0
 10
4.56436
 20
84.4159
 11
4.50623
 21
85
  0
LINE
  8
0
 10
4.50623
 20
85
 11
4.56345
 21
85.5841
  0
LINE
  8
0
 10
4.56345
 20
85.5841
 11
4.73419
 21
86.1449
  0
LINE
  8
0
 10
4.73419
 20
86.1449
 11
5.01068
 21
86.6631
  0
LINE
  8
0
 10
5.01068
 20
86.6631
 11
5.38284
 21
87.1172
  0
LINE
  8
0
 10
5.38284
 20
87.1172
 11
5.83694
 21
87.4893
  0
LINE
  8
0
 10
5.83694
 20
87.4893
 11
6.35513
 21
87.7658
  0
LINE
  8
0
 10
6.35513
 20
87.7658
 11
6.91589
 21
87.9356
  0
LINE
  8
0
 10
6.91589
 20
87.9356
 11
7.50046
 21
87.9933
  0
LINE
  8
0
 10
7.50046
 20
87.9933
 11
8.08456
 21
87.9366
  0
LINE
  8
0
 10
8.08456
 20
87.9366
 11
8.64532
 21
87.7658
  0
LINE
  8
0
 10
8.64532
 20
87.7658
 11
9.16351
 21
87.4893
  0
LINE
  8
0
 10
9.16351
 20
87.4893
 11
9.61761
 21
87.1172
  0
LINE
  8
0
 10
9.61761
 20
87.1172
 11
9.98978
 21
86.6631
  0
LINE
  8
0
 10
9.98978
 20
86.6631
 11
10.2663
 21
86.1449
  0
LINE
  8
0
 10
10.2663
 20
86.1449
 11
10.4361
 21
85.5841
  0
LINE
  8
0
 10
10.4361
 20
85.5841
 11
10.4942
 21
85
  0
LINE
  8
0
 10
10.4942
 20
85
 11
10.437
 21
84.4159
  0
LINE
  8
0
 10
10.437
 20
84.4159
 11
10.2663
 21
83.8551
  0
LINE
  8
0
 10
10.2663
 20
83.8551
 11
9.98932
 21
83.3365
  0
LINE
  8
0
 10
9.98932
 20
83.3365
 11
9.61716
 21
82.8824
  0
LINE
  8
0
 10
9.61716
 20
82.8824
 11
9.30817
 21
82.6292
  0
LINE
  8
0
 10
9.30817
 20
82.6292
 11
7.5
 21
79.0138
  0
LINE
  8
0
 10
7.5
 20
79.0138
 11
5.69183
 21
82.6292
  0
LINE
  8
0
 10
-24.3082
 20
82.6292
 11
-24.6176
 21
82.8833
  0
LINE
  8
0
 10
-24.6176
 20
82.8833
 11
-24.9898
 21
83.3374
  0
LINE
  8
0
 10
-24.9898
 20
83.3374
 11
-25.2658
 21
83.8551
  0
LINE
  8
0
 10
-25.2658
 20
83.8551
 11
-25.4356
 21
84.4159
  0
LINE
  8
0
 10
-25.4356
 20
84.4159
 11
-25.4938
 21
85
  0
LINE
  8
0
 10
-25.4938
 20
85
 11
-25.4366
 21
85.5841
  0
LINE
  8
0
 10
-25.4366
 20
85.5841
 11
-25.2658
 21
86.1449
  0
LINE
  8
0
 10
-25.2658
 20
86.1449
 11
-24.9893
 21
86.6631
  0
LINE
  8
0
 10
-24.9893
 20
86.6631
 11
-24.6172
 21
87.1172
  0
LINE
  8
0
 10
-24.6172
 20
87.1172
 11
-24.1631
 21
87.4893
  0
LINE
  8
0
 10
-24.1631
 20
87.4893
 11
-23.6449
 21
87.7658
  0
LINE
  8
0
 10
-23.6449
 20
87.7658
 11
-23.0841
 21
87.9356
  0
LINE
  8
0
 10
-23.0841
 20
87.9356
 11
-22.4995
 21
87.9933
  0
LINE
  8
0
 10
-22.4995
 20
87.9933
 11
-21.9154
 21
87.9366
  0
LINE
  8
0
 10
-21.9154
 20
87.9366
 11
-21.3547
 21
87.7658
  0
LINE
  8
0
 10
-21.3547
 20
87.7658
 11
-20.8365
 21
87.4893
  0
LINE
  8
0
 10
-20.8365
 20
87.4893
 11
-20.3824
 21
87.1172
  0
LINE
  8
0
 10
-20.3824
 20
87.1172
 11
-20.0102
 21
86.6631
  0
LINE
  8
0
 10
-20.0102
 20
86.6631
 11
-19.7337
 21
86.1449
  0
LINE
  8
0
 10
-19.7337
 20
86.1449
 11
-19.5639
 21
85.5841
  0
LINE
  8
0
 10
-19.5639
 20
85.5841
 11
-19.5058
 21
85
  0
LINE
  8
0
 10
-19.5058
 20
85
 11
-19.563
 21
84.4159
  0
LINE
  8
0
 10
-19.563
 20
84.4159
 11
-19.7337
 21
83.8551
  0
LINE
  8
0
 10
-19.7337
 20
83.8551
 11
-20.0107
 21
83.3365
  0
LINE
  8
0
 10
-20.0107
 20
83.3365
 11
-20.3828
 21
82.8824
  0
LINE
  8
0
 10
-20.3828
 20
82.8824
 11
-20.6918
 21
82.6292
  0
LINE
  8
0
 10
-20.6918
 20
82.6292
 11
-22.5
 21
79.0138
  0
LINE
  8
0
 10
-22.5
 20
79.0138
 11
-24.3082
 21
82.6292
  0
LINE
  8
0
 10
35.3824
 20
82.8833
 11
35.0102
 21
83.3374
  0
LINE
  8
0
 10
35.0102
 20
83.3374
 11
34.7342
 21
83.8551
  0
LINE
  8
0
 10
34.7342
 20
83.8551
 11
34.5644
 21
84.4159
  0
LINE
  8
0
 10
34.5644
 20
84.4159
 11
34.5062
 21
85
  0
LINE
  8
0
 10
34.5062
 20
85
 11
34.5634
 21
85.5841
  0
LINE
  8
0
 10
34.5634
 20
85.5841
 11
34.5688
 21
85.6017
  0
LINE
  8
0
 10
34.5688
 20
85.6017
 11
35.4774
 21
82.8053
  0
LINE
  8
0
 10
35.4774
 20
82.8053
 11
35.3824
 21
82.8833
  0
LINE
  8
0
 10
-34.5692
 20
85.6002
 11
-34.5644
 21
85.5841
  0
LINE
  8
0
 10
-34.5644
 20
85.5841
 11
-34.5062
 21
85
  0
LINE
  8
0
 10
-34.5062
 20
85
 11
-34.5634
 21
84.4159
  0
LINE
  8
0
 10
-34.5634
 20
84.4159
 11
-34.7342
 21
83.8551
  0
LINE
  8
0
 10
-34.7342
 20
83.8551
 11
-35.0111
 21
83.3365
  0
LINE
  8
0
 10
-35.0111
 20
83.3365
 11
-35.3833
 21
82.8824
  0
LINE
  8
0
 10
-35.3833
 20
82.8824
 11
-35.4774
 21
82.8053
  0
LINE
  8
0
 10
-35.4774
 20
82.8053
 11
-34.5692
 21
85.6002
  0
LINE
  8
0
 10
-15.5841
 20
74.5634
 11
-16.1449
 21
74.7342
  0
LINE
  8
0
 10
-16.1449
 20
74.7342
 11
-16.6635
 21
75.0111
  0
LINE
  8
0
 10
-16.6635
 20
75.0111
 11
-17.1176
 21
75.3833
  0
LINE
  8
0
 10
-17.1176
 20
75.3833
 11
-17.4898
 21
75.8374
  0
LINE
  8
0
 10
-17.4898
 20
75.8374
 11
-17.7658
 21
76.3551
  0
LINE
  8
0
 10
-17.7658
 20
76.3551
 11
-17.9356
 21
76.9159
  0
LINE
  8
0
 10
-17.9356
 20
76.9159
 11
-17.9933
 21
77.5009
  0
LINE
  8
0
 10
-17.9933
 20
77.5009
 11
-17.9366
 21
78.0846
  0
LINE
  8
0
 10
-17.9366
 20
78.0846
 11
-17.7658
 21
78.6453
  0
LINE
  8
0
 10
-17.7658
 20
78.6453
 11
-17.4898
 21
79.1631
  0
LINE
  8
0
 10
-17.4898
 20
79.1631
 11
-17.1176
 21
79.6172
  0
LINE
  8
0
 10
-17.1176
 20
79.6172
 11
-16.6635
 21
79.9893
  0
LINE
  8
0
 10
-16.6635
 20
79.9893
 11
-16.1449
 21
80.2663
  0
LINE
  8
0
 10
-16.1449
 20
80.2663
 11
-15.5841
 21
80.4361
  0
LINE
  8
0
 10
-15.5841
 20
80.4361
 11
-15
 21
80.4942
  0
LINE
  8
0
 10
-15
 20
80.4942
 11
-14.4159
 21
80.437
  0
LINE
  8
0
 10
-14.4159
 20
80.437
 11
-13.8551
 21
80.2663
  0
LINE
  8
0
 10
-13.8551
 20
80.2663
 11
-13.3365
 21
79.9893
  0
LINE
  8
0
 10
-13.3365
 20
79.9893
 11
-12.8824
 21
79.6172
  0
LINE
  8
0
 10
-12.8824
 20
79.6172
 11
-12.6292
 21
79.3082
  0
LINE
  8
0
 10
-12.6292
 20
79.3082
 11
-9.01382
 21
77.5
  0
LINE
  8
0
 10
-9.01382
 20
77.5
 11
-12.6292
 21
75.6918
  0
LINE
  8
0
 10
-12.6292
 20
75.6918
 11
-12.8833
 21
75.3824
  0
LINE
  8
0
 10
-12.8833
 20
75.3824
 11
-13.3369
 21
75.0107
  0
LINE
  8
0
 10
-13.3369
 20
75.0107
 11
-13.8551
 21
74.7342
  0
LINE
  8
0
 10
-13.8551
 20
74.7342
 11
-14.4159
 21
74.5644
  0
LINE
  8
0
 10
-14.4159
 20
74.5644
 11
-15
 21
74.5062
  0
LINE
  8
0
 10
-15
 20
74.5062
 11
-15.5841
 21
74.5634
  0
LINE
  8
0
 10
14.4159
 20
74.5634
 11
13.8551
 21
74.7342
  0
LINE
  8
0
 10
13.8551
 20
74.7342
 11
13.3365
 21
75.0111
  0
LINE
  8
0
 10
13.3365
 20
75.0111
 11
12.8824
 21
75.3833
  0
LINE
  8
0
 10
12.8824
 20
75.3833
 11
12.5102
 21
75.8374
  0
LINE
  8
0
 10
12.5102
 20
75.8374
 11
12.2342
 21
76.3551
  0
LINE
  8
0
 10
12.2342
 20
76.3551
 11
12.0644
 21
76.9159
  0
LINE
  8
0
 10
12.0644
 20
76.9159
 11
12.0067
 21
77.5009
  0
LINE
  8
0
 10
12.0067
 20
77.5009
 11
12.0634
 21
78.0846
  0
LINE
  8
0
 10
12.0634
 20
78.0846
 11
12.2342
 21
78.6453
  0
LINE
  8
0
 10
12.2342
 20
78.6453
 11
12.5102
 21
79.1631
  0
LINE
  8
0
 10
12.5102
 20
79.1631
 11
12.8824
 21
79.6172
  0
LINE
  8
0
 10
12.8824
 20
79.6172
 11
13.3365
 21
79.9893
  0
LINE
  8
0
 10
13.3365
 20
79.9893
 11
13.8551
 21
80.2663
  0
LINE
  8
0
 10
13.8551
 20
80.2663
 11
14.4159
 21
80.4361
  0
LINE
  8
0
 10
14.4159
 20
80.4361
 11
15
 21
80.4942
  0
LINE
  8
0
 10
15
 20
80.4942
 11
15.5841
 21
80.437
  0
LINE
  8
0
 10
15.5841
 20
80.437
 11
16.1449
 21
80.2663
  0
LINE
  8
0
 10
16.1449
 20
80.2663
 11
16.6635
 21
79.9893
  0
LINE
  8
0
 10
16.6635
 20
79.9893
 11
17.1176
 21
79.6172
  0
LINE
  8
0
 10
17.1176
 20
79.6172
 11
17.3708
 21
79.3082
  0
LINE
  8
0
 10
17.3708
 20
79.3082
 11
20.9862
 21
77.5
  0
LINE
  8
0
 10
20.9862
 20
77.5
 11
17.3708
 21
75.6918
  0
LINE
  8
0
 10
17.3708
 20
75.6918
 11
17.1167
 21
75.3824
  0
LINE
  8
0
 10
17.1167
 20
75.3824
 11
16.6631
 21
75.0107
  0
LINE
  8
0
 10
16.6631
 20
75.0107
 11
16.1449
 21
74.7342
  0
LINE
  8
0
 10
16.1449
 20
74.7342
 11
15.5841
 21
74.5644
  0
LINE
  8
0
 10
15.5841
 20
74.5644
 11
15
 21
74.5062
  0
LINE
  8
0
 10
15
 20
74.5062
 11
14.4159
 21
74.5634
  0
LINE
  8
0
 10
-0.584106
 20
74.563
 11
-1.14487
 21
74.7337
  0
LINE
  8
0
 10
-1.14487
 20
74.7337
 11
-1.66306
 21
75.0102
  0
LINE
  8
0
 10
-1.66306
 20
75.0102
 11
-2.11716
 21
75.3824
  0
LINE
  8
0
 10
-2.11716
 20
75.3824
 11
-2.48932
 21
75.8365
  0
LINE
  8
0
 10
-2.48932
 20
75.8365
 11
-2.76581
 21
76.3547
  0
LINE
  8
0
 10
-2.76581
 20
76.3547
 11
-2.93564
 21
76.9154
  0
LINE
  8
0
 10
-2.93564
 20
76.9154
 11
-2.99332
 21
77.5005
  0
LINE
  8
0
 10
-2.99332
 20
77.5005
 11
-2.93655
 21
78.0841
  0
LINE
  8
0
 10
-2.93655
 20
78.0841
 11
-2.76581
 21
78.6449
  0
LINE
  8
0
 10
-2.76581
 20
78.6449
 11
-2.48932
 21
79.1631
  0
LINE
  8
0
 10
-2.48932
 20
79.1631
 11
-2.11716
 21
79.6172
  0
LINE
  8
0
 10
-2.11716
 20
79.6172
 11
-1.66306
 21
79.9893
  0
LINE
  8
0
 10
-1.66306
 20
79.9893
 11
-1.14487
 21
80.2658
  0
LINE
  8
0
 10
-1.14487
 20
80.2658
 11
-0.584106
 21
80.4356
  0
LINE
  8
0
 10
-0.584106
 20
80.4356
 11
0
 21
80.4938
  0
LINE
  8
0
 10
0
 20
80.4938
 11
0.584106
 21
80.4366
  0
LINE
  8
0
 10
0.584106
 20
80.4366
 11
1.14487
 21
80.2658
  0
LINE
  8
0
 10
1.14487
 20
80.2658
 11
1.66351
 21
79.9889
  0
LINE
  8
0
 10
1.66351
 20
79.9889
 11
2.11761
 21
79.6167
  0
LINE
  8
0
 10
2.11761
 20
79.6167
 11
2.37076
 21
79.3082
  0
LINE
  8
0
 10
2.37076
 20
79.3082
 11
5.98618
 21
77.5
  0
LINE
  8
0
 10
5.98618
 20
77.5
 11
2.37076
 21
75.6918
  0
LINE
  8
0
 10
2.37076
 20
75.6918
 11
2.1167
 21
75.3819
  0
LINE
  8
0
 10
2.1167
 20
75.3819
 11
1.66351
 21
75.0107
  0
LINE
  8
0
 10
1.66351
 20
75.0107
 11
1.14487
 21
74.7337
  0
LINE
  8
0
 10
1.14487
 20
74.7337
 11
0.584106
 21
74.5639
  0
LINE
  8
0
 10
0.584106
 20
74.5639
 11
0
 21
74.5058
  0
LINE
  8
0
 10
0
 20
74.5058
 11
-0.584106
 21
74.563
  0
LINE
  8
0
 10
-30.5841
 20
74.563
 11
-31.1449
 21
74.7337
  0
LINE
  8
0
 10
-31.1449
 20
74.7337
 11
-31.6631
 21
75.0102
  0
LINE
  8
0
 10
-31.6631
 20
75.0102
 11
-32.1172
 21
75.3824
  0
LINE
  8
0
 10
-32.1172
 20
75.3824
 11
-32.4893
 21
75.8365
  0
LINE
  8
0
 10
-32.4893
 20
75.8365
 11
-32.7658
 21
76.3547
  0
LINE
  8
0
 10
-32.7658
 20
76.3547
 11
-32.9356
 21
76.9154
  0
LINE
  8
0
 10
-32.9356
 20
76.9154
 11
-32.9933
 21
77.5005
  0
LINE
  8
0
 10
-32.9933
 20
77.5005
 11
-32.9366
 21
78.0841
  0
LINE
  8
0
 10
-32.9366
 20
78.0841
 11
-32.7658
 21
78.6449
  0
LINE
  8
0
 10
-32.7658
 20
78.6449
 11
-32.4893
 21
79.1631
  0
LINE
  8
0
 10
-32.4893
 20
79.1631
 11
-32.1172
 21
79.6172
  0
LINE
  8
0
 10
-32.1172
 20
79.6172
 11
-31.6631
 21
79.9893
  0
LINE
  8
0
 10
-31.6631
 20
79.9893
 11
-31.1449
 21
80.2658
  0
LINE
  8
0
 10
-31.1449
 20
80.2658
 11
-30.5841
 21
80.4356
  0
LINE
  8
0
 10
-30.5841
 20
80.4356
 11
-30
 21
80.4938
  0
LINE
  8
0
 10
-30
 20
80.4938
 11
-29.4159
 21
80.4366
  0
LINE
  8
0
 10
-29.4159
 20
80.4366
 11
-28.8551
 21
80.2658
  0
LINE
  8
0
 10
-28.8551
 20
80.2658
 11
-28.3365
 21
79.9889
  0
LINE
  8
0
 10
-28.3365
 20
79.9889
 11
-27.8824
 21
79.6167
  0
LINE
  8
0
 10
-27.8824
 20
79.6167
 11
-27.6292
 21
79.3082
  0
LINE
  8
0
 10
-27.6292
 20
79.3082
 11
-24.0138
 21
77.5
  0
LINE
  8
0
 10
-24.0138
 20
77.5
 11
-27.6292
 21
75.6918
  0
LINE
  8
0
 10
-27.6292
 20
75.6918
 11
-27.8833
 21
75.3819
  0
LINE
  8
0
 10
-27.8833
 20
75.3819
 11
-28.3365
 21
75.0107
  0
LINE
  8
0
 10
-28.3365
 20
75.0107
 11
-28.8551
 21
74.7337
  0
LINE
  8
0
 10
-28.8551
 20
74.7337
 11
-29.4159
 21
74.5639
  0
LINE
  8
0
 10
-29.4159
 20
74.5639
 11
-30
 21
74.5058
  0
LINE
  8
0
 10
-30
 20
74.5058
 11
-30.5841
 21
74.563
  0
LINE
  8
0
 10
29.4159
 20
74.563
 11
28.8551
 21
74.7337
  0
LINE
  8
0
 10
28.8551
 20
74.7337
 11
28.3369
 21
75.0102
  0
LINE
  8
0
 10
28.3369
 20
75.0102
 11
27.8828
 21
75.3824
  0
LINE
  8
0
 10
27.8828
 20
75.3824
 11
27.5107
 21
75.8365
  0
LINE
  8
0
 10
27.5107
 20
75.8365
 11
27.2342
 21
76.3547
  0
LINE
  8
0
 10
27.2342
 20
76.3547
 11
27.0644
 21
76.9154
  0
LINE
  8
0
 10
27.0644
 20
76.9154
 11
27.0067
 21
77.5005
  0
LINE
  8
0
 10
27.0067
 20
77.5005
 11
27.0634
 21
78.0841
  0
LINE
  8
0
 10
27.0634
 20
78.0841
 11
27.2342
 21
78.6449
  0
LINE
  8
0
 10
27.2342
 20
78.6449
 11
27.5107
 21
79.1631
  0
LINE
  8
0
 10
27.5107
 20
79.1631
 11
27.8828
 21
79.6172
  0
LINE
  8
0
 10
27.8828
 20
79.6172
 11
28.3369
 21
79.9893
  0
LINE
  8
0
 10
28.3369
 20
79.9893
 11
28.8551
 21
80.2658
  0
LINE
  8
0
 10
28.8551
 20
80.2658
 11
29.4159
 21
80.4356
  0
LINE
  8
0
 10
29.4159
 20
80.4356
 11
30
 21
80.4938
  0
LINE
  8
0
 10
30
 20
80.4938
 11
30.5841
 21
80.4366
  0
LINE
  8
0
 10
30.5841
 20
80.4366
 11
31.1449
 21
80.2658
  0
LINE
  8
0
 10
31.1449
 20
80.2658
 11
31.6635
 21
79.9889
  0
LINE
  8
0
 10
31.6635
 20
79.9889
 11
32.1176
 21
79.6167
  0
LINE
  8
0
 10
32.1176
 20
79.6167
 11
32.3708
 21
79.3082
  0
LINE
  8
0
 10
32.3708
 20
79.3082
 11
35.9862
 21
77.5
  0
LINE
  8
0
 10
35.9862
 20
77.5
 11
32.3708
 21
75.6918
  0
LINE
  8
0
 10
32.3708
 20
75.6918
 11
32.1167
 21
75.3819
  0
LINE
  8
0
 10
32.1167
 20
75.3819
 11
31.6635
 21
75.0107
  0
LINE
  8
0
 10
31.6635
 20
75.0107
 11
31.1449
 21
74.7337
  0
LINE
  8
0
 10
31.1449
 20
74.7337
 11
30.5841
 21
74.5639
  0
LINE
  8
0
 10
30.5841
 20
74.5639
 11
30
 21
74.5058
  0
LINE
  8
0
 10
30
 20
74.5058
 11
29.4159
 21
74.563
  0
LINE
  8
0
 10
21.9159
 20
67.0634
 11
21.3551
 21
67.2342
  0
LINE
  8
0
 10
21.3551
 20
67.2342
 11
20.8365
 21
67.5111
  0
LINE
  8
0
 10
20.8365
 20
67.5111
 11
20.3824
 21
67.8833
  0
LINE
  8
0
 10
20.3824
 20
67.8833
 11
20.0102
 21
68.3374
  0
LINE
  8
0
 10
20.0102
 20
68.3374
 11
19.7342
 21
68.8551
  0
LINE
  8
0
 10
19.7342
 20
68.8551
 11
19.5644
 21
69.4159
  0
LINE
  8
0
 10
19.5644
 20
69.4159
 11
19.5062
 21
70
  0
LINE
  8
0
 10
19.5062
 20
70
 11
19.5634
 21
70.5841
  0
LINE
  8
0
 10
19.5634
 20
70.5841
 11
19.7342
 21
71.1449
  0
LINE
  8
0
 10
19.7342
 20
71.1449
 11
20.0107
 21
71.6631
  0
LINE
  8
0
 10
20.0107
 20
71.6631
 11
20.3828
 21
72.1172
  0
LINE
  8
0
 10
20.3828
 20
72.1172
 11
20.6918
 21
72.3708
  0
LINE
  8
0
 10
20.6918
 20
72.3708
 11
22.5
 21
75.9862
  0
LINE
  8
0
 10
22.5
 20
75.9862
 11
24.3082
 21
72.3708
  0
LINE
  8
0
 10
24.3082
 20
72.3708
 11
24.6181
 21
72.1167
  0
LINE
  8
0
 10
24.6181
 20
72.1167
 11
24.9898
 21
71.6631
  0
LINE
  8
0
 10
24.9898
 20
71.6631
 11
25.2663
 21
71.1449
  0
LINE
  8
0
 10
25.2663
 20
71.1449
 11
25.4361
 21
70.5841
  0
LINE
  8
0
 10
25.4361
 20
70.5841
 11
25.4942
 21
70
  0
LINE
  8
0
 10
25.4942
 20
70
 11
25.437
 21
69.4159
  0
LINE
  8
0
 10
25.437
 20
69.4159
 11
25.2663
 21
68.8551
  0
LINE
  8
0
 10
25.2663
 20
68.8551
 11
24.9898
 21
68.3369
  0
LINE
  8
0
 10
24.9898
 20
68.3369
 11
24.6176
 21
67.8828
  0
LINE
  8
0
 10
24.6176
 20
67.8828
 11
24.164
 21
67.5111
  0
LINE
  8
0
 10
24.164
 20
67.5111
 11
23.6453
 21
67.2342
  0
LINE
  8
0
 10
23.6453
 20
67.2342
 11
23.0846
 21
67.0644
  0
LINE
  8
0
 10
23.0846
 20
67.0644
 11
22.5
 21
67.0067
  0
LINE
  8
0
 10
22.5
 20
67.0067
 11
21.9159
 21
67.0634
  0
LINE
  8
0
 10
-8.08411
 20
67.0634
 11
-8.64487
 21
67.2342
  0
LINE
  8
0
 10
-8.64487
 20
67.2342
 11
-9.16351
 21
67.5111
  0
LINE
  8
0
 10
-9.16351
 20
67.5111
 11
-9.61761
 21
67.8833
  0
LINE
  8
0
 10
-9.61761
 20
67.8833
 11
-9.98978
 21
68.3374
  0
LINE
  8
0
 10
-9.98978
 20
68.3374
 11
-10.2658
 21
68.8551
  0
LINE
  8
0
 10
-10.2658
 20
68.8551
 11
-10.4356
 21
69.4159
  0
LINE
  8
0
 10
-10.4356
 20
69.4159
 11
-10.4938
 21
70
  0
LINE
  8
0
 10
-10.4938
 20
70
 11
-10.4366
 21
70.5841
  0
LINE
  8
0
 10
-10.4366
 20
70.5841
 11
-10.2658
 21
71.1449
  0
LINE
  8
0
 10
-10.2658
 20
71.1449
 11
-9.98932
 21
71.6631
  0
LINE
  8
0
 10
-9.98932
 20
71.6631
 11
-9.61716
 21
72.1172
  0
LINE
  8
0
 10
-9.61716
 20
72.1172
 11
-9.30817
 21
72.3708
  0
LINE
  8
0
 10
-9.30817
 20
72.3708
 11
-7.5
 21
75.9862
  0
LINE
  8
0
 10
-7.5
 20
75.9862
 11
-5.69183
 21
72.3708
  0
LINE
  8
0
 10
-5.69183
 20
72.3708
 11
-5.38193
 21
72.1167
  0
LINE
  8
0
 10
-5.38193
 20
72.1167
 11
-5.01022
 21
71.6631
  0
LINE
  8
0
 10
-5.01022
 20
71.6631
 11
-4.73373
 21
71.1449
  0
LINE
  8
0
 10
-4.73373
 20
71.1449
 11
-4.5639
 21
70.5841
  0
LINE
  8
0
 10
-4.5639
 20
70.5841
 11
-4.50577
 21
70
  0
LINE
  8
0
 10
-4.50577
 20
70
 11
-4.56299
 21
69.4159
  0
LINE
  8
0
 10
-4.56299
 20
69.4159
 11
-4.73373
 21
68.8551
  0
LINE
  8
0
 10
-4.73373
 20
68.8551
 11
-5.01022
 21
68.3369
  0
LINE
  8
0
 10
-5.01022
 20
68.3369
 11
-5.38239
 21
67.8828
  0
LINE
  8
0
 10
-5.38239
 20
67.8828
 11
-5.83603
 21
67.5111
  0
LINE
  8
0
 10
-5.83603
 20
67.5111
 11
-6.35468
 21
67.2342
  0
LINE
  8
0
 10
-6.35468
 20
67.2342
 11
-6.91544
 21
67.0644
  0
LINE
  8
0
 10
-6.91544
 20
67.0644
 11
-7.5
 21
67.0067
  0
LINE
  8
0
 10
-7.5
 20
67.0067
 11
-8.08411
 21
67.0634
  0
LINE
  8
0
 10
-38.0841
 20
67.0634
 11
-38.6449
 21
67.2342
  0
LINE
  8
0
 10
-38.6449
 20
67.2342
 11
-39.1635
 21
67.5111
  0
LINE
  8
0
 10
-39.1635
 20
67.5111
 11
-39.6176
 21
67.8833
  0
LINE
  8
0
 10
-39.6176
 20
67.8833
 11
-39.9898
 21
68.3374
  0
LINE
  8
0
 10
-39.9898
 20
68.3374
 11
-40.1069
 21
68.5571
  0
LINE
  8
0
 10
-40.1069
 20
68.5571
 11
-38.0511
 21
74.8844
  0
LINE
  8
0
 10
-38.0511
 20
74.8844
 11
-37.5
 21
75.9862
  0
LINE
  8
0
 10
-37.5
 20
75.9862
 11
-35.6918
 21
72.3708
  0
LINE
  8
0
 10
-35.6918
 20
72.3708
 11
-35.3819
 21
72.1167
  0
LINE
  8
0
 10
-35.3819
 20
72.1167
 11
-35.0102
 21
71.6631
  0
LINE
  8
0
 10
-35.0102
 20
71.6631
 11
-34.7337
 21
71.1449
  0
LINE
  8
0
 10
-34.7337
 20
71.1449
 11
-34.5639
 21
70.5841
  0
LINE
  8
0
 10
-34.5639
 20
70.5841
 11
-34.5058
 21
70
  0
LINE
  8
0
 10
-34.5058
 20
70
 11
-34.563
 21
69.4159
  0
LINE
  8
0
 10
-34.563
 20
69.4159
 11
-34.7337
 21
68.8551
  0
LINE
  8
0
 10
-34.7337
 20
68.8551
 11
-35.0102
 21
68.3369
  0
LINE
  8
0
 10
-35.0102
 20
68.3369
 11
-35.3824
 21
67.8828
  0
LINE
  8
0
 10
-35.3824
 20
67.8828
 11
-35.836
 21
67.5111
  0
LINE
  8
0
 10
-35.836
 20
67.5111
 11
-36.3547
 21
67.2342
  0
LINE
  8
0
 10
-36.3547
 20
67.2342
 11
-36.9154
 21
67.0644
  0
LINE
  8
0
 10
-36.9154
 20
67.0644
 11
-37.5
 21
67.0067
  0
LINE
  8
0
 10
-37.5
 20
67.0067
 11
-38.0841
 21
67.0634
  0
LINE
  8
0
 10
-24.3082
 20
67.6292
 11
-24.6181
 21
67.8833
  0
LINE
  8
0
 10
-24.6181
 20
67.8833
 11
-24.9898
 21
68.3369
  0
LINE
  8
0
 10
-24.9898
 20
68.3369
 11
-25.2663
 21
68.8551
  0
LINE
  8
0
 10
-25.2663
 20
68.8551
 11
-25.4361
 21
69.4159
  0
LINE
  8
0
 10
-25.4361
 20
69.4159
 11
-25.4942
 21
70
  0
LINE
  8
0
 10
-25.4942
 20
70
 11
-25.437
 21
70.5841
  0
LINE
  8
0
 10
-25.437
 20
70.5841
 11
-25.2663
 21
71.1449
  0
LINE
  8
0
 10
-25.2663
 20
71.1449
 11
-24.9902
 21
71.6626
  0
LINE
  8
0
 10
-24.9902
 20
71.6626
 11
-24.6181
 21
72.1167
  0
LINE
  8
0
 10
-24.6181
 20
72.1167
 11
-24.164
 21
72.4889
  0
LINE
  8
0
 10
-24.164
 20
72.4889
 11
-23.6453
 21
72.7658
  0
LINE
  8
0
 10
-23.6453
 20
72.7658
 11
-23.0846
 21
72.9356
  0
LINE
  8
0
 10
-23.0846
 20
72.9356
 11
-22.5
 21
72.9933
  0
LINE
  8
0
 10
-22.5
 20
72.9933
 11
-21.9159
 21
72.9366
  0
LINE
  8
0
 10
-21.9159
 20
72.9366
 11
-21.3551
 21
72.7658
  0
LINE
  8
0
 10
-21.3551
 20
72.7658
 11
-20.8365
 21
72.4889
  0
LINE
  8
0
 10
-20.8365
 20
72.4889
 11
-20.3824
 21
72.1167
  0
LINE
  8
0
 10
-20.3824
 20
72.1167
 11
-20.0102
 21
71.6626
  0
LINE
  8
0
 10
-20.0102
 20
71.6626
 11
-19.7342
 21
71.1449
  0
LINE
  8
0
 10
-19.7342
 20
71.1449
 11
-19.5644
 21
70.5841
  0
LINE
  8
0
 10
-19.5644
 20
70.5841
 11
-19.5062
 21
70
  0
LINE
  8
0
 10
-19.5062
 20
70
 11
-19.5634
 21
69.4159
  0
LINE
  8
0
 10
-19.5634
 20
69.4159
 11
-19.7342
 21
68.8551
  0
LINE
  8
0
 10
-19.7342
 20
68.8551
 11
-20.0111
 21
68.3365
  0
LINE
  8
0
 10
-20.0111
 20
68.3365
 11
-20.3833
 21
67.8824
  0
LINE
  8
0
 10
-20.3833
 20
67.8824
 11
-20.6918
 21
67.6292
  0
LINE
  8
0
 10
-20.6918
 20
67.6292
 11
-22.5
 21
64.0138
  0
LINE
  8
0
 10
-22.5
 20
64.0138
 11
-24.3082
 21
67.6292
  0
LINE
  8
0
 10
5.69183
 20
67.6292
 11
5.38193
 21
67.8833
  0
LINE
  8
0
 10
5.38193
 20
67.8833
 11
5.01022
 21
68.3369
  0
LINE
  8
0
 10
5.01022
 20
68.3369
 11
4.73373
 21
68.8551
  0
LINE
  8
0
 10
4.73373
 20
68.8551
 11
4.5639
 21
69.4159
  0
LINE
  8
0
 10
4.5639
 20
69.4159
 11
4.50577
 21
70
  0
LINE
  8
0
 10
4.50577
 20
70
 11
4.56299
 21
70.5841
  0
LINE
  8
0
 10
4.56299
 20
70.5841
 11
4.73373
 21
71.1449
  0
LINE
  8
0
 10
4.73373
 20
71.1449
 11
5.00977
 21
71.6626
  0
LINE
  8
0
 10
5.00977
 20
71.6626
 11
5.38193
 21
72.1167
  0
LINE
  8
0
 10
5.38193
 20
72.1167
 11
5.83603
 21
72.4889
  0
LINE
  8
0
 10
5.83603
 20
72.4889
 11
6.35468
 21
72.7658
  0
LINE
  8
0
 10
6.35468
 20
72.7658
 11
6.91544
 21
72.9356
  0
LINE
  8
0
 10
6.91544
 20
72.9356
 11
7.5
 21
72.9933
  0
LINE
  8
0
 10
7.5
 20
72.9933
 11
8.08411
 21
72.9366
  0
LINE
  8
0
 10
8.08411
 20
72.9366
 11
8.64487
 21
72.7658
  0
LINE
  8
0
 10
8.64487
 20
72.7658
 11
9.16351
 21
72.4889
  0
LINE
  8
0
 10
9.16351
 20
72.4889
 11
9.61761
 21
72.1167
  0
LINE
  8
0
 10
9.61761
 20
72.1167
 11
9.98978
 21
71.6626
  0
LINE
  8
0
 10
9.98978
 20
71.6626
 11
10.2658
 21
71.1449
  0
LINE
  8
0
 10
10.2658
 20
71.1449
 11
10.4356
 21
70.5841
  0
LINE
  8
0
 10
10.4356
 20
70.5841
 11
10.4938
 21
70
  0
LINE
  8
0
 10
10.4938
 20
70
 11
10.4366
 21
69.4159
  0
LINE
  8
0
 10
10.4366
 20
69.4159
 11
10.2658
 21
68.8551
  0
LINE
  8
0
 10
10.2658
 20
68.8551
 11
9.98886
 21
68.3365
  0
LINE
  8
0
 10
9.98886
 20
68.3365
 11
9.6167
 21
67.8824
  0
LINE
  8
0
 10
9.6167
 20
67.8824
 11
9.30817
 21
67.6292
  0
LINE
  8
0
 10
9.30817
 20
67.6292
 11
7.5
 21
64.0138
  0
LINE
  8
0
 10
7.5
 20
64.0138
 11
5.69183
 21
67.6292
  0
LINE
  8
0
 10
35.6918
 20
67.6292
 11
35.3819
 21
67.8833
  0
LINE
  8
0
 10
35.3819
 20
67.8833
 11
35.0102
 21
68.3369
  0
LINE
  8
0
 10
35.0102
 20
68.3369
 11
34.7337
 21
68.8551
  0
LINE
  8
0
 10
34.7337
 20
68.8551
 11
34.5639
 21
69.4159
  0
LINE
  8
0
 10
34.5639
 20
69.4159
 11
34.5058
 21
70
  0
LINE
  8
0
 10
34.5058
 20
70
 11
34.563
 21
70.5841
  0
LINE
  8
0
 10
34.563
 20
70.5841
 11
34.7337
 21
71.1449
  0
LINE
  8
0
 10
34.7337
 20
71.1449
 11
35.0098
 21
71.6626
  0
LINE
  8
0
 10
35.0098
 20
71.6626
 11
35.3819
 21
72.1167
  0
LINE
  8
0
 10
35.3819
 20
72.1167
 11
35.836
 21
72.4889
  0
LINE
  8
0
 10
35.836
 20
72.4889
 11
36.3547
 21
72.7658
  0
LINE
  8
0
 10
36.3547
 20
72.7658
 11
36.9154
 21
72.9356
  0
LINE
  8
0
 10
36.9154
 20
72.9356
 11
37.5
 21
72.9933
  0
LINE
  8
0
 10
37.5
 20
72.9933
 11
38.0841
 21
72.9366
  0
LINE
  8
0
 10
38.0841
 20
72.9366
 11
38.6449
 21
72.7658
  0
LINE
  8
0
 10
38.6449
 20
72.7658
 11
38.7592
 21
72.7047
  0
LINE
  8
0
 10
38.7592
 20
72.7047
 11
40.1068
 21
68.5574
  0
LINE
  8
0
 10
40.1068
 20
68.5574
 11
39.9889
 21
68.3365
  0
LINE
  8
0
 10
39.9889
 20
68.3365
 11
39.6167
 21
67.8824
  0
LINE
  8
0
 10
39.6167
 20
67.8824
 11
39.3082
 21
67.6292
  0
LINE
  8
0
 10
39.3082
 20
67.6292
 11
37.5
 21
64.0138
  0
LINE
  8
0
 10
37.5
 20
64.0138
 11
35.6918
 21
67.6292
  0
LINE
  8
0
 10
-30.5841
 20
59.5634
 11
-31.1449
 21
59.7342
  0
LINE
  8
0
 10
-31.1449
 20
59.7342
 11
-31.6635
 21
60.0111
  0
LINE
  8
0
 10
-31.6635
 20
60.0111
 11
-32.1176
 21
60.3833
  0
LINE
  8
0
 10
-32.1176
 20
60.3833
 11
-32.3708
 21
60.6918
  0
LINE
  8
0
 10
-32.3708
 20
60.6918
 11
-35.9862
 21
62.5
  0
LINE
  8
0
 10
-35.9862
 20
62.5
 11
-32.3708
 21
64.3082
  0
LINE
  8
0
 10
-32.3708
 20
64.3082
 11
-32.1172
 21
64.6176
  0
LINE
  8
0
 10
-32.1172
 20
64.6176
 11
-31.6635
 21
64.9893
  0
LINE
  8
0
 10
-31.6635
 20
64.9893
 11
-31.1449
 21
65.2663
  0
LINE
  8
0
 10
-31.1449
 20
65.2663
 11
-30.5841
 21
65.4361
  0
LINE
  8
0
 10
-30.5841
 20
65.4361
 11
-30
 21
65.4942
  0
LINE
  8
0
 10
-30
 20
65.4942
 11
-29.4159
 21
65.437
  0
LINE
  8
0
 10
-29.4159
 20
65.437
 11
-28.8551
 21
65.2663
  0
LINE
  8
0
 10
-28.8551
 20
65.2663
 11
-28.3369
 21
64.9898
  0
LINE
  8
0
 10
-28.3369
 20
64.9898
 11
-27.8828
 21
64.6176
  0
LINE
  8
0
 10
-27.8828
 20
64.6176
 11
-27.5107
 21
64.1635
  0
LINE
  8
0
 10
-27.5107
 20
64.1635
 11
-27.2342
 21
63.6453
  0
LINE
  8
0
 10
-27.2342
 20
63.6453
 11
-27.0644
 21
63.0846
  0
LINE
  8
0
 10
-27.0644
 20
63.0846
 11
-27.0067
 21
62.4995
  0
LINE
  8
0
 10
-27.0067
 20
62.4995
 11
-27.0634
 21
61.9159
  0
LINE
  8
0
 10
-27.0634
 20
61.9159
 11
-27.2342
 21
61.3551
  0
LINE
  8
0
 10
-27.2342
 20
61.3551
 11
-27.5111
 21
60.8365
  0
LINE
  8
0
 10
-27.5111
 20
60.8365
 11
-27.8833
 21
60.3824
  0
LINE
  8
0
 10
-27.8833
 20
60.3824
 11
-28.3369
 21
60.0107
  0
LINE
  8
0
 10
-28.3369
 20
60.0107
 11
-28.8551
 21
59.7342
  0
LINE
  8
0
 10
-28.8551
 20
59.7342
 11
-29.4159
 21
59.5644
  0
LINE
  8
0
 10
-29.4159
 20
59.5644
 11
-30
 21
59.5062
  0
LINE
  8
0
 10
-30
 20
59.5062
 11
-30.5841
 21
59.5634
  0
LINE
  8
0
 10
29.4159
 20
59.5634
 11
28.8551
 21
59.7342
  0
LINE
  8
0
 10
28.8551
 20
59.7342
 11
28.3365
 21
60.0111
  0
LINE
  8
0
 10
28.3365
 20
60.0111
 11
27.8824
 21
60.3833
  0
LINE
  8
0
 10
27.8824
 20
60.3833
 11
27.6292
 21
60.6918
  0
LINE
  8
0
 10
27.6292
 20
60.6918
 11
24.0138
 21
62.5
  0
LINE
  8
0
 10
24.0138
 20
62.5
 11
27.6292
 21
64.3082
  0
LINE
  8
0
 10
27.6292
 20
64.3082
 11
27.8828
 21
64.6176
  0
LINE
  8
0
 10
27.8828
 20
64.6176
 11
28.3365
 21
64.9893
  0
LINE
  8
0
 10
28.3365
 20
64.9893
 11
28.8551
 21
65.2663
  0
LINE
  8
0
 10
28.8551
 20
65.2663
 11
29.4159
 21
65.4361
  0
LINE
  8
0
 10
29.4159
 20
65.4361
 11
30
 21
65.4942
  0
LINE
  8
0
 10
30
 20
65.4942
 11
30.5841
 21
65.437
  0
LINE
  8
0
 10
30.5841
 20
65.437
 11
31.1449
 21
65.2663
  0
LINE
  8
0
 10
31.1449
 20
65.2663
 11
31.6631
 21
64.9898
  0
LINE
  8
0
 10
31.6631
 20
64.9898
 11
32.1172
 21
64.6176
  0
LINE
  8
0
 10
32.1172
 20
64.6176
 11
32.4893
 21
64.1635
  0
LINE
  8
0
 10
32.4893
 20
64.1635
 11
32.7658
 21
63.6453
  0
LINE
  8
0
 10
32.7658
 20
63.6453
 11
32.9356
 21
63.0846
  0
LINE
  8
0
 10
32.9356
 20
63.0846
 11
32.9933
 21
62.4995
  0
LINE
  8
0
 10
32.9933
 20
62.4995
 11
32.9366
 21
61.9159
  0
LINE
  8
0
 10
32.9366
 20
61.9159
 11
32.7658
 21
61.3551
  0
LINE
  8
0
 10
32.7658
 20
61.3551
 11
32.4889
 21
60.8365
  0
LINE
  8
0
 10
32.4889
 20
60.8365
 11
32.1167
 21
60.3824
  0
LINE
  8
0
 10
32.1167
 20
60.3824
 11
31.6631
 21
60.0107
  0
LINE
  8
0
 10
31.6631
 20
60.0107
 11
31.1449
 21
59.7342
  0
LINE
  8
0
 10
31.1449
 20
59.7342
 11
30.5841
 21
59.5644
  0
LINE
  8
0
 10
30.5841
 20
59.5644
 11
30
 21
59.5062
  0
LINE
  8
0
 10
30
 20
59.5062
 11
29.4159
 21
59.5634
  0
LINE
  8
0
 10
-0.584106
 20
59.5634
 11
-1.14487
 21
59.7342
  0
LINE
  8
0
 10
-1.14487
 20
59.7342
 11
-1.66351
 21
60.0111
  0
LINE
  8
0
 10
-1.66351
 20
60.0111
 11
-2.11761
 21
60.3833
  0
LINE
  8
0
 10
-2.11761
 20
60.3833
 11
-2.37076
 21
60.6918
  0
LINE
  8
0
 10
-2.37076
 20
60.6918
 11
-5.98618
 21
62.5
  0
LINE
  8
0
 10
-5.98618
 20
62.5
 11
-2.37076
 21
64.3082
  0
LINE
  8
0
 10
-2.37076
 20
64.3082
 11
-2.11716
 21
64.6176
  0
LINE
  8
0
 10
-2.11716
 20
64.6176
 11
-1.66351
 21
64.9893
  0
LINE
  8
0
 10
-1.66351
 20
64.9893
 11
-1.14487
 21
65.2663
  0
LINE
  8
0
 10
-1.14487
 20
65.2663
 11
-0.584106
 21
65.4361
  0
LINE
  8
0
 10
-0.584106
 20
65.4361
 11
0
 21
65.4942
  0
LINE
  8
0
 10
0
 20
65.4942
 11
0.584106
 21
65.437
  0
LINE
  8
0
 10
0.584106
 20
65.437
 11
1.14487
 21
65.2663
  0
LINE
  8
0
 10
1.14487
 20
65.2663
 11
1.66306
 21
64.9898
  0
LINE
  8
0
 10
1.66306
 20
64.9898
 11
2.11716
 21
64.6176
  0
LINE
  8
0
 10
2.11716
 20
64.6176
 11
2.48932
 21
64.1635
  0
LINE
  8
0
 10
2.48932
 20
64.1635
 11
2.76581
 21
63.6453
  0
LINE
  8
0
 10
2.76581
 20
63.6453
 11
2.93564
 21
63.0846
  0
LINE
  8
0
 10
2.93564
 20
63.0846
 11
2.99332
 21
62.4995
  0
LINE
  8
0
 10
2.99332
 20
62.4995
 11
2.93655
 21
61.9159
  0
LINE
  8
0
 10
2.93655
 20
61.9159
 11
2.76581
 21
61.3551
  0
LINE
  8
0
 10
2.76581
 20
61.3551
 11
2.48886
 21
60.8365
  0
LINE
  8
0
 10
2.48886
 20
60.8365
 11
2.1167
 21
60.3824
  0
LINE
  8
0
 10
2.1167
 20
60.3824
 11
1.66306
 21
60.0107
  0
LINE
  8
0
 10
1.66306
 20
60.0107
 11
1.14487
 21
59.7342
  0
LINE
  8
0
 10
1.14487
 20
59.7342
 11
0.584106
 21
59.5644
  0
LINE
  8
0
 10
0.584106
 20
59.5644
 11
0
 21
59.5062
  0
LINE
  8
0
 10
0
 20
59.5062
 11
-0.584106
 21
59.5634
  0
LINE
  8
0
 10
14.4159
 20
59.563
 11
13.8551
 21
59.7337
  0
LINE
  8
0
 10
13.8551
 20
59.7337
 11
13.3365
 21
60.0107
  0
LINE
  8
0
 10
13.3365
 20
60.0107
 11
12.8824
 21
60.3828
  0
LINE
  8
0
 10
12.8824
 20
60.3828
 11
12.6292
 21
60.6918
  0
LINE
  8
0
 10
12.6292
 20
60.6918
 11
9.01382
 21
62.5
  0
LINE
  8
0
 10
9.01382
 20
62.5
 11
12.6292
 21
64.3082
  0
LINE
  8
0
 10
12.6292
 20
64.3082
 11
12.8828
 21
64.6172
  0
LINE
  8
0
 10
12.8828
 20
64.6172
 11
13.3369
 21
64.9893
  0
LINE
  8
0
 10
13.3369
 20
64.9893
 11
13.8551
 21
65.2658
  0
LINE
  8
0
 10
13.8551
 20
65.2658
 11
14.4159
 21
65.4356
  0
LINE
  8
0
 10
14.4159
 20
65.4356
 11
15
 21
65.4938
  0
LINE
  8
0
 10
15
 20
65.4938
 11
15.5841
 21
65.4366
  0
LINE
  8
0
 10
15.5841
 20
65.4366
 11
16.1449
 21
65.2658
  0
LINE
  8
0
 10
16.1449
 20
65.2658
 11
16.6635
 21
64.9889
  0
LINE
  8
0
 10
16.6635
 20
64.9889
 11
17.1176
 21
64.6167
  0
LINE
  8
0
 10
17.1176
 20
64.6167
 11
17.4898
 21
64.1626
  0
LINE
  8
0
 10
17.4898
 20
64.1626
 11
17.7658
 21
63.6449
  0
LINE
  8
0
 10
17.7658
 20
63.6449
 11
17.9356
 21
63.0841
  0
LINE
  8
0
 10
17.9356
 20
63.0841
 11
17.9933
 21
62.4991
  0
LINE
  8
0
 10
17.9933
 20
62.4991
 11
17.9366
 21
61.9154
  0
LINE
  8
0
 10
17.9366
 20
61.9154
 11
17.7658
 21
61.3547
  0
LINE
  8
0
 10
17.7658
 20
61.3547
 11
17.4893
 21
60.8365
  0
LINE
  8
0
 10
17.4893
 20
60.8365
 11
17.1172
 21
60.3824
  0
LINE
  8
0
 10
17.1172
 20
60.3824
 11
16.6635
 21
60.0107
  0
LINE
  8
0
 10
16.6635
 20
60.0107
 11
16.1449
 21
59.7337
  0
LINE
  8
0
 10
16.1449
 20
59.7337
 11
15.5841
 21
59.5639
  0
LINE
  8
0
 10
15.5841
 20
59.5639
 11
15
 21
59.5058
  0
LINE
  8
0
 10
15
 20
59.5058
 11
14.4159
 21
59.563
  0
LINE
  8
0
 10
-15.5841
 20
59.563
 11
-16.1449
 21
59.7337
  0
LINE
  8
0
 10
-16.1449
 20
59.7337
 11
-16.6635
 21
60.0107
  0
LINE
  8
0
 10
-16.6635
 20
60.0107
 11
-17.1176
 21
60.3828
  0
LINE
  8
0
 10
-17.1176
 20
60.3828
 11
-17.3708
 21
60.6918
  0
LINE
  8
0
 10
-17.3708
 20
60.6918
 11
-20.9862
 21
62.5
  0
LINE
  8
0
 10
-20.9862
 20
62.5
 11
-17.3708
 21
64.3082
  0
LINE
  8
0
 10
-17.3708
 20
64.3082
 11
-17.1172
 21
64.6172
  0
LINE
  8
0
 10
-17.1172
 20
64.6172
 11
-16.6631
 21
64.9893
  0
LINE
  8
0
 10
-16.6631
 20
64.9893
 11
-16.1449
 21
65.2658
  0
LINE
  8
0
 10
-16.1449
 20
65.2658
 11
-15.5841
 21
65.4356
  0
LINE
  8
0
 10
-15.5841
 20
65.4356
 11
-15
 21
65.4938
  0
LINE
  8
0
 10
-15
 20
65.4938
 11
-14.4159
 21
65.4366
  0
LINE
  8
0
 10
-14.4159
 20
65.4366
 11
-13.8551
 21
65.2658
  0
LINE
  8
0
 10
-13.8551
 20
65.2658
 11
-13.3365
 21
64.9889
  0
LINE
  8
0
 10
-13.3365
 20
64.9889
 11
-12.8824
 21
64.6167
  0
LINE
  8
0
 10
-12.8824
 20
64.6167
 11
-12.5102
 21
64.1626
  0
LINE
  8
0
 10
-12.5102
 20
64.1626
 11
-12.2342
 21
63.6449
  0
LINE
  8
0
 10
-12.2342
 20
63.6449
 11
-12.0644
 21
63.0841
  0
LINE
  8
0
 10
-12.0644
 20
63.0841
 11
-12.0067
 21
62.4991
  0
LINE
  8
0
 10
-12.0067
 20
62.4991
 11
-12.0634
 21
61.9154
  0
LINE
  8
0
 10
-12.0634
 20
61.9154
 11
-12.2342
 21
61.3547
  0
LINE
  8
0
 10
-12.2342
 20
61.3547
 11
-12.5107
 21
60.8365
  0
LINE
  8
0
 10
-12.5107
 20
60.8365
 11
-12.8828
 21
60.3824
  0
LINE
  8
0
 10
-12.8828
 20
60.3824
 11
-13.3365
 21
60.0107
  0
LINE
  8
0
 10
-13.3365
 20
60.0107
 11
-13.8551
 21
59.7337
  0
LINE
  8
0
 10
-13.8551
 20
59.7337
 11
-14.4159
 21
59.5639
  0
LINE
  8
0
 10
-14.4159
 20
59.5639
 11
-15
 21
59.5058
  0
LINE
  8
0
 10
-15
 20
59.5058
 11
-15.5841
 21
59.563
  0
LINE
  8
0
 10
42.6292
 20
60.6918
 11
39.0138
 21
62.5
  0
LINE
  8
0
 10
39.0138
 20
62.5
 11
41.6471
 21
63.817
  0
LINE
  8
0
 10
41.6471
 20
63.817
 11
42.6843
 21
60.6246
  0
LINE
  8
0
 10
42.6843
 20
60.6246
 11
42.6292
 21
60.6918
  0
LINE
  8
0
 10
-42.0226
 20
62.661
 11
-42.0067
 21
62.4991
  0
LINE
  8
0
 10
-42.0067
 20
62.4991
 11
-42.0634
 21
61.9154
  0
LINE
  8
0
 10
-42.0634
 20
61.9154
 11
-42.2342
 21
61.3547
  0
LINE
  8
0
 10
-42.2342
 20
61.3547
 11
-42.5107
 21
60.8365
  0
LINE
  8
0
 10
-42.5107
 20
60.8365
 11
-42.6843
 21
60.6246
  0
LINE
  8
0
 10
-42.6843
 20
60.6246
 11
-42.0226
 21
62.661
  0
LINE
  8
0
 10
-38.0846
 20
52.0634
 11
-38.6453
 21
52.2342
  0
LINE
  8
0
 10
-38.6453
 20
52.2342
 11
-39.1635
 21
52.5107
  0
LINE
  8
0
 10
-39.1635
 20
52.5107
 11
-39.6176
 21
52.8828
  0
LINE
  8
0
 10
-39.6176
 20
52.8828
 11
-39.9898
 21
53.3369
  0
LINE
  8
0
 10
-39.9898
 20
53.3369
 11
-40.2663
 21
53.8551
  0
LINE
  8
0
 10
-40.2663
 20
53.8551
 11
-40.4361
 21
54.4159
  0
LINE
  8
0
 10
-40.4361
 20
54.4159
 11
-40.4942
 21
55
  0
LINE
  8
0
 10
-40.4942
 20
55
 11
-40.437
 21
55.5841
  0
LINE
  8
0
 10
-40.437
 20
55.5841
 11
-40.2663
 21
56.1449
  0
LINE
  8
0
 10
-40.2663
 20
56.1449
 11
-39.9898
 21
56.6631
  0
LINE
  8
0
 10
-39.9898
 20
56.6631
 11
-39.6176
 21
57.1172
  0
LINE
  8
0
 10
-39.6176
 20
57.1172
 11
-39.3082
 21
57.3708
  0
LINE
  8
0
 10
-39.3082
 20
57.3708
 11
-37.5
 21
60.9862
  0
LINE
  8
0
 10
-37.5
 20
60.9862
 11
-35.6918
 21
57.3708
  0
LINE
  8
0
 10
-35.6918
 20
57.3708
 11
-35.3824
 21
57.1167
  0
LINE
  8
0
 10
-35.3824
 20
57.1167
 11
-35.0102
 21
56.6626
  0
LINE
  8
0
 10
-35.0102
 20
56.6626
 11
-34.7342
 21
56.1449
  0
LINE
  8
0
 10
-34.7342
 20
56.1449
 11
-34.5644
 21
55.5841
  0
LINE
  8
0
 10
-34.5644
 20
55.5841
 11
-34.5062
 21
55
  0
LINE
  8
0
 10
-34.5062
 20
55
 11
-34.5634
 21
54.4159
  0
LINE
  8
0
 10
-34.5634
 20
54.4159
 11
-34.7342
 21
53.8551
  0
LINE
  8
0
 10
-34.7342
 20
53.8551
 11
-35.0111
 21
53.3365
  0
LINE
  8
0
 10
-35.0111
 20
53.3365
 11
-35.3833
 21
52.8824
  0
LINE
  8
0
 10
-35.3833
 20
52.8824
 11
-35.8369
 21
52.5107
  0
LINE
  8
0
 10
-35.8369
 20
52.5107
 11
-36.3551
 21
52.2342
  0
LINE
  8
0
 10
-36.3551
 20
52.2342
 11
-36.9159
 21
52.0644
  0
LINE
  8
0
 10
-36.9159
 20
52.0644
 11
-37.5005
 21
52.0067
  0
LINE
  8
0
 10
-37.5005
 20
52.0067
 11
-38.0846
 21
52.0634
  0
LINE
  8
0
 10
-8.08456
 20
52.0634
 11
-8.64532
 21
52.2342
  0
LINE
  8
0
 10
-8.64532
 20
52.2342
 11
-9.16351
 21
52.5107
  0
LINE
  8
0
 10
-9.16351
 20
52.5107
 11
-9.61761
 21
52.8828
  0
LINE
  8
0
 10
-9.61761
 20
52.8828
 11
-9.98978
 21
53.3369
  0
LINE
  8
0
 10
-9.98978
 20
53.3369
 11
-10.2663
 21
53.8551
  0
LINE
  8
0
 10
-10.2663
 20
53.8551
 11
-10.4361
 21
54.4159
  0
LINE
  8
0
 10
-10.4361
 20
54.4159
 11
-10.4942
 21
55
  0
LINE
  8
0
 10
-10.4942
 20
55
 11
-10.437
 21
55.5841
  0
LINE
  8
0
 10
-10.437
 20
55.5841
 11
-10.2663
 21
56.1449
  0
LINE
  8
0
 10
-10.2663
 20
56.1449
 11
-9.98978
 21
56.6631
  0
LINE
  8
0
 10
-9.98978
 20
56.6631
 11
-9.61761
 21
57.1172
  0
LINE
  8
0
 10
-9.61761
 20
57.1172
 11
-9.30817
 21
57.3708
  0
LINE
  8
0
 10
-9.30817
 20
57.3708
 11
-7.5
 21
60.9862
  0
LINE
  8
0
 10
-7.5
 20
60.9862
 11
-5.69183
 21
57.3708
  0
LINE
  8
0
 10
-5.69183
 20
57.3708
 11
-5.38239
 21
57.1167
  0
LINE
  8
0
 10
-5.38239
 20
57.1167
 11
-5.01022
 21
56.6626
  0
LINE
  8
0
 10
-5.01022
 20
56.6626
 11
-4.73419
 21
56.1449
  0
LINE
  8
0
 10
-4.73419
 20
56.1449
 11
-4.56436
 21
55.5841
  0
LINE
  8
0
 10
-4.56436
 20
55.5841
 11
-4.50623
 21
55
  0
LINE
  8
0
 10
-4.50623
 20
55
 11
-4.56345
 21
54.4159
  0
LINE
  8
0
 10
-4.56345
 20
54.4159
 11
-4.73419
 21
53.8551
  0
LINE
  8
0
 10
-4.73419
 20
53.8551
 11
-5.01114
 21
53.3365
  0
LINE
  8
0
 10
-5.01114
 20
53.3365
 11
-5.3833
 21
52.8824
  0
LINE
  8
0
 10
-5.3833
 20
52.8824
 11
-5.83694
 21
52.5107
  0
LINE
  8
0
 10
-5.83694
 20
52.5107
 11
-6.35513
 21
52.2342
  0
LINE
  8
0
 10
-6.35513
 20
52.2342
 11
-6.91589
 21
52.0644
  0
LINE
  8
0
 10
-6.91589
 20
52.0644
 11
-7.50046
 21
52.0067
  0
LINE
  8
0
 10
-7.50046
 20
52.0067
 11
-8.08456
 21
52.0634
  0
LINE
  8
0
 10
21.9154
 20
52.0634
 11
21.3547
 21
52.2342
  0
LINE
  8
0
 10
21.3547
 20
52.2342
 11
20.8365
 21
52.5107
  0
LINE
  8
0
 10
20.8365
 20
52.5107
 11
20.3824
 21
52.8828
  0
LINE
  8
0
 10
20.3824
 20
52.8828
 11
20.0102
 21
53.3369
  0
LINE
  8
0
 10
20.0102
 20
53.3369
 11
19.7337
 21
53.8551
  0
LINE
  8
0
 10
19.7337
 20
53.8551
 11
19.5639
 21
54.4159
  0
LINE
  8
0
 10
19.5639
 20
54.4159
 11
19.5058
 21
55
  0
LINE
  8
0
 10
19.5058
 20
55
 11
19.563
 21
55.5841
  0
LINE
  8
0
 10
19.563
 20
55.5841
 11
19.7337
 21
56.1449
  0
LINE
  8
0
 10
19.7337
 20
56.1449
 11
20.0102
 21
56.6631
  0
LINE
  8
0
 10
20.0102
 20
56.6631
 11
20.3824
 21
57.1172
  0
LINE
  8
0
 10
20.3824
 20
57.1172
 11
20.6918
 21
57.3708
  0
LINE
  8
0
 10
20.6918
 20
57.3708
 11
22.5
 21
60.9862
  0
LINE
  8
0
 10
22.5
 20
60.9862
 11
24.3082
 21
57.3708
  0
LINE
  8
0
 10
24.3082
 20
57.3708
 11
24.6176
 21
57.1167
  0
LINE
  8
0
 10
24.6176
 20
57.1167
 11
24.9898
 21
56.6626
  0
LINE
  8
0
 10
24.9898
 20
56.6626
 11
25.2658
 21
56.1449
  0
LINE
  8
0
 10
25.2658
 20
56.1449
 11
25.4356
 21
55.5841
  0
LINE
  8
0
 10
25.4356
 20
55.5841
 11
25.4938
 21
55
  0
LINE
  8
0
 10
25.4938
 20
55
 11
25.4366
 21
54.4159
  0
LINE
  8
0
 10
25.4366
 20
54.4159
 11
25.2658
 21
53.8551
  0
LINE
  8
0
 10
25.2658
 20
53.8551
 11
24.9889
 21
53.3365
  0
LINE
  8
0
 10
24.9889
 20
53.3365
 11
24.6167
 21
52.8824
  0
LINE
  8
0
 10
24.6167
 20
52.8824
 11
24.1631
 21
52.5107
  0
LINE
  8
0
 10
24.1631
 20
52.5107
 11
23.6449
 21
52.2342
  0
LINE
  8
0
 10
23.6449
 20
52.2342
 11
23.0841
 21
52.0644
  0
LINE
  8
0
 10
23.0841
 20
52.0644
 11
22.4995
 21
52.0067
  0
LINE
  8
0
 10
22.4995
 20
52.0067
 11
21.9154
 21
52.0634
  0
LINE
  8
0
 10
5.69183
 20
52.6292
 11
5.38239
 21
52.8833
  0
LINE
  8
0
 10
5.38239
 20
52.8833
 11
5.01022
 21
53.3374
  0
LINE
  8
0
 10
5.01022
 20
53.3374
 11
4.73419
 21
53.8551
  0
LINE
  8
0
 10
4.73419
 20
53.8551
 11
4.56436
 21
54.4159
  0
LINE
  8
0
 10
4.56436
 20
54.4159
 11
4.50623
 21
55
  0
LINE
  8
0
 10
4.50623
 20
55
 11
4.56345
 21
55.5841
  0
LINE
  8
0
 10
4.56345
 20
55.5841
 11
4.73419
 21
56.1449
  0
LINE
  8
0
 10
4.73419
 20
56.1449
 11
5.01068
 21
56.6631
  0
LINE
  8
0
 10
5.01068
 20
56.6631
 11
5.38284
 21
57.1172
  0
LINE
  8
0
 10
5.38284
 20
57.1172
 11
5.83694
 21
57.4893
  0
LINE
  8
0
 10
5.83694
 20
57.4893
 11
6.35513
 21
57.7658
  0
LINE
  8
0
 10
6.35513
 20
57.7658
 11
6.91589
 21
57.9356
  0
LINE
  8
0
 10
6.91589
 20
57.9356
 11
7.50046
 21
57.9933
  0
LINE
  8
0
 10
7.50046
 20
57.9933
 11
8.08456
 21
57.9366
  0
LINE
  8
0
 10
8.08456
 20
57.9366
 11
8.64532
 21
57.7658
  0
LINE
  8
0
 10
8.64532
 20
57.7658
 11
9.16351
 21
57.4893
  0
LINE
  8
0
 10
9.16351
 20
57.4893
 11
9.61761
 21
57.1172
  0
LINE
  8
0
 10
9.61761
 20
57.1172
 11
9.98978
 21
56.6631
  0
LINE
  8
0
 10
9.98978
 20
56.6631
 11
10.2663
 21
56.1449
  0
LINE
  8
0
 10
10.2663
 20
56.1449
 11
10.4361
 21
55.5841
  0
LINE
  8
0
 10
10.4361
 20
55.5841
 11
10.4942
 21
55
  0
LINE
  8
0
 10
10.4942
 20
55
 11
10.437
 21
54.4159
  0
LINE
  8
0
 10
10.437
 20
54.4159
 11
10.2663
 21
53.8551
  0
LINE
  8
0
 10
10.2663
 20
53.8551
 11
9.98932
 21
53.3365
  0
LINE
  8
0
 10
9.98932
 20
53.3365
 11
9.61716
 21
52.8824
  0
LINE
  8
0
 10
9.61716
 20
52.8824
 11
9.30817
 21
52.6292
  0
LINE
  8
0
 10
9.30817
 20
52.6292
 11
7.5
 21
49.0138
  0
LINE
  8
0
 10
7.5
 20
49.0138
 11
5.69183
 21
52.6292
  0
LINE
  8
0
 10
-24.3082
 20
52.6292
 11
-24.6176
 21
52.8833
  0
LINE
  8
0
 10
-24.6176
 20
52.8833
 11
-24.9898
 21
53.3374
  0
LINE
  8
0
 10
-24.9898
 20
53.3374
 11
-25.2658
 21
53.8551
  0
LINE
  8
0
 10
-25.2658
 20
53.8551
 11
-25.4356
 21
54.4159
  0
LINE
  8
0
 10
-25.4356
 20
54.4159
 11
-25.4938
 21
55
  0
LINE
  8
0
 10
-25.4938
 20
55
 11
-25.4366
 21
55.5841
  0
LINE
  8
0
 10
-25.4366
 20
55.5841
 11
-25.2658
 21
56.1449
  0
LINE
  8
0
 10
-25.2658
 20
56.1449
 11
-24.9893
 21
56.6631
  0
LINE
  8
0
 10
-24.9893
 20
56.6631
 11
-24.6172
 21
57.1172
  0
LINE
  8
0
 10
-24.6172
 20
57.1172
 11
-24.1631
 21
57.4893
  0
LINE
  8
0
 10
-24.1631
 20
57.4893
 11
-23.6449
 21
57.7658
  0
LINE
  8
0
 10
-23.6449
 20
57.7658
 11
-23.0841
 21
57.9356
  0
LINE
  8
0
 10
-23.0841
 20
57.9356
 11
-22.4995
 21
57.9933
  0
LINE
  8
0
 10
-22.4995
 20
57.9933
 11
-21.9154
 21
57.9366
  0
LINE
  8
0
 10
-21.9154
 20
57.9366
 11
-21.3547
 21
57.7658
  0
LINE
  8
0
 10
-21.3547
 20
57.7658
 11
-20.8365
 21
57.4893
  0
LINE
  8
0
 10
-20.8365
 20
57.4893
 11
-20.3824
 21
57.1172
  0
LINE
  8
0
 10
-20.3824
 20
57.1172
 11
-20.0102
 21
56.6631
  0
LINE
  8
0
 10
-20.0102
 20
56.6631
 11
-19.7337
 21
56.1449
  0
LINE
  8
0
 10
-19.7337
 20
56.1449
 11
-19.5639
 21
55.5841
  0
LINE
  8
0
 10
-19.5639
 20
55.5841
 11
-19.5058
 21
55
  0
LINE
  8
0
 10
-19.5058
 20
55
 11
-19.563
 21
54.4159
  0
LINE
  8
0
 10
-19.563
 20
54.4159
 11
-19.7337
 21
53.8551
  0
LINE
  8
0
 10
-19.7337
 20
53.8551
 11
-20.0107
 21
53.3365
  0
LINE
  8
0
 10
-20.0107
 20
53.3365
 11
-20.3828
 21
52.8824
  0
LINE
  8
0
 10
-20.3828
 20
52.8824
 11
-20.6918
 21
52.6292
  0
LINE
  8
0
 10
-20.6918
 20
52.6292
 11
-22.5
 21
49.0138
  0
LINE
  8
0
 10
-22.5
 20
49.0138
 11
-24.3082
 21
52.6292
  0
LINE
  8
0
 10
35.6918
 20
52.6292
 11
35.3824
 21
52.8833
  0
LINE
  8
0
 10
35.3824
 20
52.8833
 11
35.0102
 21
53.3374
  0
LINE
  8
0
 10
35.0102
 20
53.3374
 11
34.7342
 21
53.8551
  0
LINE
  8
0
 10
34.7342
 20
53.8551
 11
34.5644
 21
54.4159
  0
LINE
  8
0
 10
34.5644
 20
54.4159
 11
34.5062
 21
55
  0
LINE
  8
0
 10
34.5062
 20
55
 11
34.5634
 21
55.5841
  0
LINE
  8
0
 10
34.5634
 20
55.5841
 11
34.7342
 21
56.1449
  0
LINE
  8
0
 10
34.7342
 20
56.1449
 11
35.0107
 21
56.6631
  0
LINE
  8
0
 10
35.0107
 20
56.6631
 11
35.3828
 21
57.1172
  0
LINE
  8
0
 10
35.3828
 20
57.1172
 11
35.8369
 21
57.4893
  0
LINE
  8
0
 10
35.8369
 20
57.4893
 11
36.3551
 21
57.7658
  0
LINE
  8
0
 10
36.3551
 20
57.7658
 11
36.9159
 21
57.9356
  0
LINE
  8
0
 10
36.9159
 20
57.9356
 11
37.5005
 21
57.9933
  0
LINE
  8
0
 10
37.5005
 20
57.9933
 11
38.0846
 21
57.9366
  0
LINE
  8
0
 10
38.0846
 20
57.9366
 11
38.6453
 21
57.7658
  0
LINE
  8
0
 10
38.6453
 20
57.7658
 11
39.1635
 21
57.4893
  0
LINE
  8
0
 10
39.1635
 20
57.4893
 11
39.6176
 21
57.1172
  0
LINE
  8
0
 10
39.6176
 20
57.1172
 11
39.9898
 21
56.6631
  0
LINE
  8
0
 10
39.9898
 20
56.6631
 11
40.2663
 21
56.1449
  0
LINE
  8
0
 10
40.2663
 20
56.1449
 11
40.4361
 21
55.5841
  0
LINE
  8
0
 10
40.4361
 20
55.5841
 11
40.4942
 21
55
  0
LINE
  8
0
 10
40.4942
 20
55
 11
40.437
 21
54.4159
  0
LINE
  8
0
 10
40.437
 20
54.4159
 11
40.2663
 21
53.8551
  0
LINE
  8
0
 10
40.2663
 20
53.8551
 11
39.9893
 21
53.3365
  0
LINE
  8
0
 10
39.9893
 20
53.3365
 11
39.6172
 21
52.8824
  0
LINE
  8
0
 10
39.6172
 20
52.8824
 11
39.3082
 21
52.6292
  0
LINE
  8
0
 10
39.3082
 20
52.6292
 11
37.5
 21
49.0138
  0
LINE
  8
0
 10
37.5
 20
49.0138
 11
35.6918
 21
52.6292
  0
LINE
  8
0
 10
14.4159
 20
44.5634
 11
13.8551
 21
44.7342
  0
LINE
  8
0
 10
13.8551
 20
44.7342
 11
13.3365
 21
45.0111
  0
LINE
  8
0
 10
13.3365
 20
45.0111
 11
12.8824
 21
45.3833
  0
LINE
  8
0
 10
12.8824
 20
45.3833
 11
12.5102
 21
45.8374
  0
LINE
  8
0
 10
12.5102
 20
45.8374
 11
12.2342
 21
46.3551
  0
LINE
  8
0
 10
12.2342
 20
46.3551
 11
12.0644
 21
46.9159
  0
LINE
  8
0
 10
12.0644
 20
46.9159
 11
12.0067
 21
47.5009
  0
LINE
  8
0
 10
12.0067
 20
47.5009
 11
12.0634
 21
48.0846
  0
LINE
  8
0
 10
12.0634
 20
48.0846
 11
12.2342
 21
48.6453
  0
LINE
  8
0
 10
12.2342
 20
48.6453
 11
12.5102
 21
49.1631
  0
LINE
  8
0
 10
12.5102
 20
49.1631
 11
12.8824
 21
49.6172
  0
LINE
  8
0
 10
12.8824
 20
49.6172
 11
13.3365
 21
49.9893
  0
LINE
  8
0
 10
13.3365
 20
49.9893
 11
13.8551
 21
50.2663
  0
LINE
  8
0
 10
13.8551
 20
50.2663
 11
14.4159
 21
50.4361
  0
LINE
  8
0
 10
14.4159
 20
50.4361
 11
15
 21
50.4942
  0
LINE
  8
0
 10
15
 20
50.4942
 11
15.5841
 21
50.437
  0
LINE
  8
0
 10
15.5841
 20
50.437
 11
16.1449
 21
50.2663
  0
LINE
  8
0
 10
16.1449
 20
50.2663
 11
16.6635
 21
49.9893
  0
LINE
  8
0
 10
16.6635
 20
49.9893
 11
17.1176
 21
49.6172
  0
LINE
  8
0
 10
17.1176
 20
49.6172
 11
17.3708
 21
49.3082
  0
LINE
  8
0
 10
17.3708
 20
49.3082
 11
20.9862
 21
47.5
  0
LINE
  8
0
 10
20.9862
 20
47.5
 11
17.3708
 21
45.6918
  0
LINE
  8
0
 10
17.3708
 20
45.6918
 11
17.1167
 21
45.3824
  0
LINE
  8
0
 10
17.1167
 20
45.3824
 11
16.6631
 21
45.0107
  0
LINE
  8
0
 10
16.6631
 20
45.0107
 11
16.1449
 21
44.7342
  0
LINE
  8
0
 10
16.1449
 20
44.7342
 11
15.5841
 21
44.5644
  0
LINE
  8
0
 10
15.5841
 20
44.5644
 11
15
 21
44.5062
  0
LINE
  8
0
 10
15
 20
44.5062
 11
14.4159
 21
44.5634
  0
LINE
  8
0
 10
44.4159
 20
44.5634
 11
43.8551
 21
44.7342
  0
LINE
  8
0
 10
43.8551
 20
44.7342
 11
43.3365
 21
45.0111
  0
LINE
  8
0
 10
43.3365
 20
45.0111
 11
42.8824
 21
45.3833
  0
LINE
  8
0
 10
42.8824
 20
45.3833
 11
42.5102
 21
45.8374
  0
LINE
  8
0
 10
42.5102
 20
45.8374
 11
42.2342
 21
46.3551
  0
LINE
  8
0
 10
42.2342
 20
46.3551
 11
42.0644
 21
46.9159
  0
LINE
  8
0
 10
42.0644
 20
46.9159
 11
42.0067
 21
47.5009
  0
LINE
  8
0
 10
42.0067
 20
47.5009
 11
42.0634
 21
48.0846
  0
LINE
  8
0
 10
42.0634
 20
48.0846
 11
42.2342
 21
48.6453
  0
LINE
  8
0
 10
42.2342
 20
48.6453
 11
42.5102
 21
49.1631
  0
LINE
  8
0
 10
42.5102
 20
49.1631
 11
42.8824
 21
49.6172
  0
LINE
  8
0
 10
42.8824
 20
49.6172
 11
43.3365
 21
49.9893
  0
LINE
  8
0
 10
43.3365
 20
49.9893
 11
43.8551
 21
50.2663
  0
LINE
  8
0
 10
43.8551
 20
50.2663
 11
44.4159
 21
50.4361
  0
LINE
  8
0
 10
44.4159
 20
50.4361
 11
45
 21
50.4942
  0
LINE
  8
0
 10
45
 20
50.4942
 11
45.5841
 21
50.437
  0
LINE
  8
0
 10
45.5841
 20
50.437
 11
46.0395
 21
50.2983
  0
LINE
  8
0
 10
46.0395
 20
50.2983
 11
47.5131
 21
45.763
  0
LINE
  8
0
 10
47.5131
 20
45.763
 11
47.3708
 21
45.6918
  0
LINE
  8
0
 10
47.3708
 20
45.6918
 11
47.1167
 21
45.3824
  0
LINE
  8
0
 10
47.1167
 20
45.3824
 11
46.6631
 21
45.0107
  0
LINE
  8
0
 10
46.6631
 20
45.0107
 11
46.1449
 21
44.7342
  0
LINE
  8
0
 10
46.1449
 20
44.7342
 11
45.5841
 21
44.5644
  0
LINE
  8
0
 10
45.5841
 20
44.5644
 11
45
 21
44.5062
  0
LINE
  8
0
 10
45
 20
44.5062
 11
44.4159
 21
44.5634
  0
LINE
  8
0
 10
-15.5841
 20
44.5634
 11
-16.1449
 21
44.7342
  0
LINE
  8
0
 10
-16.1449
 20
44.7342
 11
-16.6635
 21
45.0111
  0
LINE
  8
0
 10
-16.6635
 20
45.0111
 11
-17.1176
 21
45.3833
  0
LINE
  8
0
 10
-17.1176
 20
45.3833
 11
-17.4898
 21
45.8374
  0
LINE
  8
0
 10
-17.4898
 20
45.8374
 11
-17.7658
 21
46.3551
  0
LINE
  8
0
 10
-17.7658
 20
46.3551
 11
-17.9356
 21
46.9159
  0
LINE
  8
0
 10
-17.9356
 20
46.9159
 11
-17.9933
 21
47.5009
  0
LINE
  8
0
 10
-17.9933
 20
47.5009
 11
-17.9366
 21
48.0846
  0
LINE
  8
0
 10
-17.9366
 20
48.0846
 11
-17.7658
 21
48.6453
  0
LINE
  8
0
 10
-17.7658
 20
48.6453
 11
-17.4898
 21
49.1631
  0
LINE
  8
0
 10
-17.4898
 20
49.1631
 11
-17.1176
 21
49.6172
  0
LINE
  8
0
 10
-17.1176
 20
49.6172
 11
-16.6635
 21
49.9893
  0
LINE
  8
0
 10
-16.6635
 20
49.9893
 11
-16.1449
 21
50.2663
  0
LINE
  8
0
 10
-16.1449
 20
50.2663
 11
-15.5841
 21
50.4361
  0
LINE
  8
0
 10
-15.5841
 20
50.4361
 11
-15
 21
50.4942
  0
LINE
  8
0
 10
-15
 20
50.4942
 11
-14.4159
 21
50.437
  0
LINE
  8
0
 10
-14.4159
 20
50.437
 11
-13.8551
 21
50.2663
  0
LINE
  8
0
 10
-13.8551
 20
50.2663
 11
-13.3365
 21
49.9893
  0
LINE
  8
0
 10
-13.3365
 20
49.9893
 11
-12.8824
 21
49.6172
  0
LINE
  8
0
 10
-12.8824
 20
49.6172
 11
-12.6292
 21
49.3082
  0
LINE
  8
0
 10
-12.6292
 20
49.3082
 11
-9.01382
 21
47.5
  0
LINE
  8
0
 10
-9.01382
 20
47.5
 11
-12.6292
 21
45.6918
  0
LINE
  8
0
 10
-12.6292
 20
45.6918
 11
-12.8833
 21
45.3824
  0
LINE
  8
0
 10
-12.8833
 20
45.3824
 11
-13.3369
 21
45.0107
  0
LINE
  8
0
 10
-13.3369
 20
45.0107
 11
-13.8551
 21
44.7342
  0
LINE
  8
0
 10
-13.8551
 20
44.7342
 11
-14.4159
 21
44.5644
  0
LINE
  8
0
 10
-14.4159
 20
44.5644
 11
-15
 21
44.5062
  0
LINE
  8
0
 10
-15
 20
44.5062
 11
-15.5841
 21
44.5634
  0
LINE
  8
0
 10
-45.5841
 20
44.5634
 11
-46.1449
 21
44.7342
  0
LINE
  8
0
 10
-46.1449
 20
44.7342
 11
-46.6635
 21
45.0111
  0
LINE
  8
0
 10
-46.6635
 20
45.0111
 11
-47.1176
 21
45.3833
  0
LINE
  8
0
 10
-47.1176
 20
45.3833
 11
-47.4892
 21
45.8367
  0
LINE
  8
0
 10
-47.4892
 20
45.8367
 11
-46.0396
 21
50.2982
  0
LINE
  8
0
 10
-46.0396
 20
50.2982
 11
-45.5841
 21
50.4361
  0
LINE
  8
0
 10
-45.5841
 20
50.4361
 11
-45
 21
50.4942
  0
LINE
  8
0
 10
-45
 20
50.4942
 11
-44.4159
 21
50.437
  0
LINE
  8
0
 10
-44.4159
 20
50.437
 11
-43.8551
 21
50.2663
  0
LINE
  8
0
 10
-43.8551
 20
50.2663
 11
-43.3365
 21
49.9893
  0
LINE
  8
0
 10
-43.3365
 20
49.9893
 11
-42.8824
 21
49.6172
  0
LINE
  8
0
 10
-42.8824
 20
49.6172
 11
-42.6292
 21
49.3082
  0
LINE
  8
0
 10
-42.6292
 20
49.3082
 11
-39.0138
 21
47.5
  0
LINE
  8
0
 10
-39.0138
 20
47.5
 11
-42.6292
 21
45.6918
  0
LINE
  8
0
 10
-42.6292
 20
45.6918
 11
-42.8833
 21
45.3824
  0
LINE
  8
0
 10
-42.8833
 20
45.3824
 11
-43.3369
 21
45.0107
  0
LINE
  8
0
 10
-43.3369
 20
45.0107
 11
-43.8551
 21
44.7342
  0
LINE
  8
0
 10
-43.8551
 20
44.7342
 11
-44.4159
 21
44.5644
  0
LINE
  8
0
 10
-44.4159
 20
44.5644
 11
-45
 21
44.5062
  0
LINE
  8
0
 10
-45
 20
44.5062
 11
-45.5841
 21
44.5634
  0
LINE
  8
0
 10
-30.5841
 20
44.563
 11
-31.1449
 21
44.7337
  0
LINE
  8
0
 10
-31.1449
 20
44.7337
 11
-31.6631
 21
45.0102
  0
LINE
  8
0
 10
-31.6631
 20
45.0102
 11
-32.1172
 21
45.3824
  0
LINE
  8
0
 10
-32.1172
 20
45.3824
 11
-32.4893
 21
45.8365
  0
LINE
  8
0
 10
-32.4893
 20
45.8365
 11
-32.7658
 21
46.3547
  0
LINE
  8
0
 10
-32.7658
 20
46.3547
 11
-32.9356
 21
46.9154
  0
LINE
  8
0
 10
-32.9356
 20
46.9154
 11
-32.9933
 21
47.5005
  0
LINE
  8
0
 10
-32.9933
 20
47.5005
 11
-32.9366
 21
48.0841
  0
LINE
  8
0
 10
-32.9366
 20
48.0841
 11
-32.7658
 21
48.6449
  0
LINE
  8
0
 10
-32.7658
 20
48.6449
 11
-32.4893
 21
49.1631
  0
LINE
  8
0
 10
-32.4893
 20
49.1631
 11
-32.1172
 21
49.6172
  0
LINE
  8
0
 10
-32.1172
 20
49.6172
 11
-31.6631
 21
49.9893
  0
LINE
  8
0
 10
-31.6631
 20
49.9893
 11
-31.1449
 21
50.2658
  0
LINE
  8
0
 10
-31.1449
 20
50.2658
 11
-30.5841
 21
50.4356
  0
LINE
  8
0
 10
-30.5841
 20
50.4356
 11
-30
 21
50.4938
  0
LINE
  8
0
 10
-30
 20
50.4938
 11
-29.4159
 21
50.4366
  0
LINE
  8
0
 10
-29.4159
 20
50.4366
 11
-28.8551
 21
50.2658
  0
LINE
  8
0
 10
-28.8551
 20
50.2658
 11
-28.3365
 21
49.9889
  0
LINE
  8
0
 10
-28.3365
 20
49.9889
 11
-27.8824
 21
49.6167
  0
LINE
  8
0
 10
-27.8824
 20
49.6167
 11
-27.6292
 21
49.3082
  0
LINE
  8
0
 10
-27.6292
 20
49.3082
 11
-24.0138
 21
47.5
  0
LINE
  8
0
 10
-24.0138
 20
47.5
 11
-27.6292
 21
45.6918
  0
LINE
  8
0
 10
-27.6292
 20
45.6918
 11
-27.8833
 21
45.3819
  0
LINE
  8
0
 10
-27.8833
 20
45.3819
 11
-28.3365
 21
45.0107
  0
LINE
  8
0
 10
-28.3365
 20
45.0107
 11
-28.8551
 21
44.7337
  0
LINE
  8
0
 10
-28.8551
 20
44.7337
 11
-29.4159
 21
44.5639
  0
LINE
  8
0
 10
-29.4159
 20
44.5639
 11
-30
 21
44.5058
  0
LINE
  8
0
 10
-30
 20
44.5058
 11
-30.5841
 21
44.563
  0
LINE
  8
0
 10
29.4159
 20
44.563
 11
28.8551
 21
44.7337
  0
LINE
  8
0
 10
28.8551
 20
44.7337
 11
28.3369
 21
45.0102
  0
LINE
  8
0
 10
28.3369
 20
45.0102
 11
27.8828
 21
45.3824
  0
LINE
  8
0
 10
27.8828
 20
45.3824
 11
27.5107
 21
45.8365
  0
LINE
  8
0
 10
27.5107
 20
45.8365
 11
27.2342
 21
46.3547
  0
LINE
  8
0
 10
27.2342
 20
46.3547
 11
27.0644
 21
46.9154
  0
LINE
  8
0
 10
27.0644
 20
46.9154
 11
27.0067
 21
47.5005
  0
LINE
  8
0
 10
27.0067
 20
47.5005
 11
27.0634
 21
48.0841
  0
LINE
  8
0
 10
27.0634
 20
48.0841
 11
27.2342
 21
48.6449
  0
LINE
  8
0
 10
27.2342
 20
48.6449
 11
27.5107
 21
49.1631
  0
LINE
  8
0
 10
27.5107
 20
49.1631
 11
27.8828
 21
49.6172
  0
LINE
  8
0
 10
27.8828
 20
49.6172
 11
28.3369
 21
49.9893
  0
LINE
  8
0
 10
28.3369
 20
49.9893
 11
28.8551
 21
50.2658
  0
LINE
  8
0
 10
28.8551
 20
50.2658
 11
29.4159
 21
50.4356
  0
LINE
  8
0
 10
29.4159
 20
50.4356
 11
30
 21
50.4938
  0
LINE
  8
0
 10
30
 20
50.4938
 11
30.5841
 21
50.4366
  0
LINE
  8
0
 10
30.5841
 20
50.4366
 11
31.1449
 21
50.2658
  0
LINE
  8
0
 10
31.1449
 20
50.2658
 11
31.6635
 21
49.9889
  0
LINE
  8
0
 10
31.6635
 20
49.9889
 11
32.1176
 21
49.6167
  0
LINE
  8
0
 10
32.1176
 20
49.6167
 11
32.3708
 21
49.3082
  0
LINE
  8
0
 10
32.3708
 20
49.3082
 11
35.9862
 21
47.5
  0
LINE
  8
0
 10
35.9862
 20
47.5
 11
32.3708
 21
45.6918
  0
LINE
  8
0
 10
32.3708
 20
45.6918
 11
32.1167
 21
45.3819
  0
LINE
  8
0
 10
32.1167
 20
45.3819
 11
31.6635
 21
45.0107
  0
LINE
  8
0
 10
31.6635
 20
45.0107
 11
31.1449
 21
44.7337
  0
LINE
  8
0
 10
31.1449
 20
44.7337
 11
30.5841
 21
44.5639
  0
LINE
  8
0
 10
30.5841
 20
44.5639
 11
30
 21
44.5058
  0
LINE
  8
0
 10
30
 20
44.5058
 11
29.4159
 21
44.563
  0
LINE
  8
0
 10
-0.584106
 20
44.563
 11
-1.14487
 21
44.7337
  0
LINE
  8
0
 10
-1.14487
 20
44.7337
 11
-1.66306
 21
45.0102
  0
LINE
  8
0
 10
-1.66306
 20
45.0102
 11
-2.11716
 21
45.3824
  0
LINE
  8
0
 10
-2.11716
 20
45.3824
 11
-2.48932
 21
45.8365
  0
LINE
  8
0
 10
-2.48932
 20
45.8365
 11
-2.76581
 21
46.3547
  0
LINE
  8
0
 10
-2.76581
 20
46.3547
 11
-2.93564
 21
46.9154
  0
LINE
  8
0
 10
-2.93564
 20
46.9154
 11
-2.99332
 21
47.5005
  0
LINE
  8
0
 10
-2.99332
 20
47.5005
 11
-2.93655
 21
48.0841
  0
LINE
  8
0
 10
-2.93655
 20
48.0841
 11
-2.76581
 21
48.6449
  0
LINE
  8
0
 10
-2.76581
 20
48.6449
 11
-2.48932
 21
49.1631
  0
LINE
  8
0
 10
-2.48932
 20
49.1631
 11
-2.11716
 21
49.6172
  0
LINE
  8
0
 10
-2.11716
 20
49.6172
 11
-1.66306
 21
49.9893
  0
LINE
  8
0
 10
-1.66306
 20
49.9893
 11
-1.14487
 21
50.2658
  0
LINE
  8
0
 10
-1.14487
 20
50.2658
 11
-0.584106
 21
50.4356
  0
LINE
  8
0
 10
-0.584106
 20
50.4356
 11
0
 21
50.4938
  0
LINE
  8
0
 10
0
 20
50.4938
 11
0.584106
 21
50.4366
  0
LINE
  8
0
 10
0.584106
 20
50.4366
 11
1.14487
 21
50.2658
  0
LINE
  8
0
 10
1.14487
 20
50.2658
 11
1.66351
 21
49.9889
  0
LINE
  8
0
 10
1.66351
 20
49.9889
 11
2.11761
 21
49.6167
  0
LINE
  8
0
 10
2.11761
 20
49.6167
 11
2.37076
 21
49.3082
  0
LINE
  8
0
 10
2.37076
 20
49.3082
 11
5.98618
 21
47.5
  0
LINE
  8
0
 10
5.98618
 20
47.5
 11
2.37076
 21
45.6918
  0
LINE
  8
0
 10
2.37076
 20
45.6918
 11
2.1167
 21
45.3819
  0
LINE
  8
0
 10
2.1167
 20
45.3819
 11
1.66351
 21
45.0107
  0
LINE
  8
0
 10
1.66351
 20
45.0107
 11
1.14487
 21
44.7337
  0
LINE
  8
0
 10
1.14487
 20
44.7337
 11
0.584106
 21
44.5639
  0
LINE
  8
0
 10
0.584106
 20
44.5639
 11
0
 21
44.5058
  0
LINE
  8
0
 10
0
 20
44.5058
 11
-0.584106
 21
44.563
  0
LINE
  8
0
 10
-8.08411
 20
37.0634
 11
-8.64487
 21
37.2342
  0
LINE
  8
0
 10
-8.64487
 20
37.2342
 11
-9.16351
 21
37.5111
  0
LINE
  8
0
 10
-9.16351
 20
37.5111
 11
-9.61761
 21
37.8833
  0
LINE
  8
0
 10
-9.61761
 20
37.8833
 11
-9.98978
 21
38.3374
  0
LINE
  8
0
 10
-9.98978
 20
38.3374
 11
-10.2658
 21
38.8551
  0
LINE
  8
0
 10
-10.2658
 20
38.8551
 11
-10.4356
 21
39.4159
  0
LINE
  8
0
 10
-10.4356
 20
39.4159
 11
-10.4938
 21
40
  0
LINE
  8
0
 10
-10.4938
 20
40
 11
-10.4366
 21
40.5841
  0
LINE
  8
0
 10
-10.4366
 20
40.5841
 11
-10.2658
 21
41.1449
  0
LINE
  8
0
 10
-10.2658
 20
41.1449
 11
-9.98932
 21
41.6631
  0
LINE
  8
0
 10
-9.98932
 20
41.6631
 11
-9.61716
 21
42.1172
  0
LINE
  8
0
 10
-9.61716
 20
42.1172
 11
-9.30817
 21
42.3708
  0
LINE
  8
0
 10
-9.30817
 20
42.3708
 11
-7.5
 21
45.9862
  0
LINE
  8
0
 10
-7.5
 20
45.9862
 11
-5.69183
 21
42.3708
  0
LINE
  8
0
 10
-5.69183
 20
42.3708
 11
-5.38193
 21
42.1167
  0
LINE
  8
0
 10
-5.38193
 20
42.1167
 11
-5.01022
 21
41.6631
  0
LINE
  8
0
 10
-5.01022
 20
41.6631
 11
-4.73373
 21
41.1449
  0
LINE
  8
0
 10
-4.73373
 20
41.1449
 11
-4.5639
 21
40.5841
  0
LINE
  8
0
 10
-4.5639
 20
40.5841
 11
-4.50577
 21
40
  0
LINE
  8
0
 10
-4.50577
 20
40
 11
-4.56299
 21
39.4159
  0
LINE
  8
0
 10
-4.56299
 20
39.4159
 11
-4.73373
 21
38.8551
  0
LINE
  8
0
 10
-4.73373
 20
38.8551
 11
-5.01022
 21
38.3369
  0
LINE
  8
0
 10
-5.01022
 20
38.3369
 11
-5.38239
 21
37.8828
  0
LINE
  8
0
 10
-5.38239
 20
37.8828
 11
-5.83603
 21
37.5111
  0
LINE
  8
0
 10
-5.83603
 20
37.5111
 11
-6.35468
 21
37.2342
  0
LINE
  8
0
 10
-6.35468
 20
37.2342
 11
-6.91544
 21
37.0644
  0
LINE
  8
0
 10
-6.91544
 20
37.0644
 11
-7.5
 21
37.0067
  0
LINE
  8
0
 10
-7.5
 20
37.0067
 11
-8.08411
 21
37.0634
  0
LINE
  8
0
 10
-38.0841
 20
37.0634
 11
-38.6449
 21
37.2342
  0
LINE
  8
0
 10
-38.6449
 20
37.2342
 11
-39.1635
 21
37.5111
  0
LINE
  8
0
 10
-39.1635
 20
37.5111
 11
-39.6176
 21
37.8833
  0
LINE
  8
0
 10
-39.6176
 20
37.8833
 11
-39.9898
 21
38.3374
  0
LINE
  8
0
 10
-39.9898
 20
38.3374
 11
-40.2658
 21
38.8551
  0
LINE
  8
0
 10
-40.2658
 20
38.8551
 11
-40.4356
 21
39.4159
  0
LINE
  8
0
 10
-40.4356
 20
39.4159
 11
-40.4938
 21
40
  0
LINE
  8
0
 10
-40.4938
 20
40
 11
-40.4366
 21
40.5841
  0
LINE
  8
0
 10
-40.4366
 20
40.5841
 11
-40.2658
 21
41.1449
  0
LINE
  8
0
 10
-40.2658
 20
41.1449
 11
-39.9893
 21
41.6631
  0
LINE
  8
0
 10
-39.9893
 20
41.6631
 11
-39.6172
 21
42.1172
  0
LINE
  8
0
 10
-39.6172
 20
42.1172
 11
-39.3082
 21
42.3708
  0
LINE
  8
0
 10
-39.3082
 20
42.3708
 11
-37.5
 21
45.9862
  0
LINE
  8
0
 10
-37.5
 20
45.9862
 11
-35.6918
 21
42.3708
  0
LINE
  8
0
 10
-35.6918
 20
42.3708
 11
-35.3819
 21
42.1167
  0
LINE
  8
0
 10
-35.3819
 20
42.1167
 11
-35.0102
 21
41.6631
  0
LINE
  8
0
 10
-35.0102
 20
41.6631
 11
-34.7337
 21
41.1449
  0
LINE
  8
0
 10
-34.7337
 20
41.1449
 11
-34.5639
 21
40.5841
  0
LINE
  8
0
 10
-34.5639
 20
40.5841
 11
-34.5058
 21
40
  0
LINE
  8
0
 10
-34.5058
 20
40
 11
-34.563
 21
39.4159
  0
LINE
  8
0
 10
-34.563
 20
39.4159
 11
-34.7337
 21
38.8551
  0
LINE
  8
0
 10
-34.7337
 20
38.8551
 11
-35.0102
 21
38.3369
  0
LINE
  8
0
 10
-35.0102
 20
38.3369
 11
-35.3824
 21
37.8828
  0
LINE
  8
0
 10
-35.3824
 20
37.8828
 11
-35.836
 21
37.5111
  0
LINE
  8
0
 10
-35.836
 20
37.5111
 11
-36.3547
 21
37.2342
  0
LINE
  8
0
 10
-36.3547
 20
37.2342
 11
-36.9154
 21
37.0644
  0
LINE
  8
0
 10
-36.9154
 20
37.0644
 11
-37.5
 21
37.0067
  0
LINE
  8
0
 10
-37.5
 20
37.0067
 11
-38.0841
 21
37.0634
  0
LINE
  8
0
 10
21.9159
 20
37.0634
 11
21.3551
 21
37.2342
  0
LINE
  8
0
 10
21.3551
 20
37.2342
 11
20.8365
 21
37.5111
  0
LINE
  8
0
 10
20.8365
 20
37.5111
 11
20.3824
 21
37.8833
  0
LINE
  8
0
 10
20.3824
 20
37.8833
 11
20.0102
 21
38.3374
  0
LINE
  8
0
 10
20.0102
 20
38.3374
 11
19.7342
 21
38.8551
  0
LINE
  8
0
 10
19.7342
 20
38.8551
 11
19.5644
 21
39.4159
  0
LINE
  8
0
 10
19.5644
 20
39.4159
 11
19.5062
 21
40
  0
LINE
  8
0
 10
19.5062
 20
40
 11
19.5634
 21
40.5841
  0
LINE
  8
0
 10
19.5634
 20
40.5841
 11
19.7342
 21
41.1449
  0
LINE
  8
0
 10
19.7342
 20
41.1449
 11
20.0107
 21
41.6631
  0
LINE
  8
0
 10
20.0107
 20
41.6631
 11
20.3828
 21
42.1172
  0
LINE
  8
0
 10
20.3828
 20
42.1172
 11
20.6918
 21
42.3708
  0
LINE
  8
0
 10
20.6918
 20
42.3708
 11
22.5
 21
45.9862
  0
LINE
  8
0
 10
22.5
 20
45.9862
 11
24.3082
 21
42.3708
  0
LINE
  8
0
 10
24.3082
 20
42.3708
 11
24.6181
 21
42.1167
  0
LINE
  8
0
 10
24.6181
 20
42.1167
 11
24.9898
 21
41.6631
  0
LINE
  8
0
 10
24.9898
 20
41.6631
 11
25.2663
 21
41.1449
  0
LINE
  8
0
 10
25.2663
 20
41.1449
 11
25.4361
 21
40.5841
  0
LINE
  8
0
 10
25.4361
 20
40.5841
 11
25.4942
 21
40
  0
LINE
  8
0
 10
25.4942
 20
40
 11
25.437
 21
39.4159
  0
LINE
  8
0
 10
25.437
 20
39.4159
 11
25.2663
 21
38.8551
  0
LINE
  8
0
 10
25.2663
 20
38.8551
 11
24.9898
 21
38.3369
  0
LINE
  8
0
 10
24.9898
 20
38.3369
 11
24.6176
 21
37.8828
  0
LINE
  8
0
 10
24.6176
 20
37.8828
 11
24.164
 21
37.5111
  0
LINE
  8
0
 10
24.164
 20
37.5111
 11
23.6453
 21
37.2342
  0
LINE
  8
0
 10
23.6453
 20
37.2342
 11
23.0846
 21
37.0644
  0
LINE
  8
0
 10
23.0846
 20
37.0644
 11
22.5
 21
37.0067
  0
LINE
  8
0
 10
22.5
 20
37.0067
 11
21.9159
 21
37.0634
  0
LINE
  8
0
 10
5.69183
 20
37.6292
 11
5.38193
 21
37.8833
  0
LINE
  8
0
 10
5.38193
 20
37.8833
 11
5.01022
 21
38.3369
  0
LINE
  8
0
 10
5.01022
 20
38.3369
 11
4.73373
 21
38.8551
  0
LINE
  8
0
 10
4.73373
 20
38.8551
 11
4.5639
 21
39.4159
  0
LINE
  8
0
 10
4.5639
 20
39.4159
 11
4.50577
 21
40
  0
LINE
  8
0
 10
4.50577
 20
40
 11
4.56299
 21
40.5841
  0
LINE
  8
0
 10
4.56299
 20
40.5841
 11
4.73373
 21
41.1449
  0
LINE
  8
0
 10
4.73373
 20
41.1449
 11
5.00977
 21
41.6626
  0
LINE
  8
0
 10
5.00977
 20
41.6626
 11
5.38193
 21
42.1167
  0
LINE
  8
0
 10
5.38193
 20
42.1167
 11
5.83603
 21
42.4889
  0
LINE
  8
0
 10
5.83603
 20
42.4889
 11
6.35468
 21
42.7658
  0
LINE
  8
0
 10
6.35468
 20
42.7658
 11
6.91544
 21
42.9356
  0
LINE
  8
0
 10
6.91544
 20
42.9356
 11
7.5
 21
42.9933
  0
LINE
  8
0
 10
7.5
 20
42.9933
 11
8.08411
 21
42.9366
  0
LINE
  8
0
 10
8.08411
 20
42.9366
 11
8.64487
 21
42.7658
  0
LINE
  8
0
 10
8.64487
 20
42.7658
 11
9.16351
 21
42.4889
  0
LINE
  8
0
 10
9.16351
 20
42.4889
 11
9.61761
 21
42.1167
  0
LINE
  8
0
 10
9.61761
 20
42.1167
 11
9.98978
 21
41.6626
  0
LINE
  8
0
 10
9.98978
 20
41.6626
 11
10.2658
 21
41.1449
  0
LINE
  8
0
 10
10.2658
 20
41.1449
 11
10.4356
 21
40.5841
  0
LINE
  8
0
 10
10.4356
 20
40.5841
 11
10.4938
 21
40
  0
LINE
  8
0
 10
10.4938
 20
40
 11
10.4366
 21
39.4159
  0
LINE
  8
0
 10
10.4366
 20
39.4159
 11
10.2658
 21
38.8551
  0
LINE
  8
0
 10
10.2658
 20
38.8551
 11
9.98886
 21
38.3365
  0
LINE
  8
0
 10
9.98886
 20
38.3365
 11
9.6167
 21
37.8824
  0
LINE
  8
0
 10
9.6167
 20
37.8824
 11
9.30817
 21
37.6292
  0
LINE
  8
0
 10
9.30817
 20
37.6292
 11
7.5
 21
34.0138
  0
LINE
  8
0
 10
7.5
 20
34.0138
 11
5.69183
 21
37.6292
  0
LINE
  8
0
 10
35.6918
 20
37.6292
 11
35.3819
 21
37.8833
  0
LINE
  8
0
 10
35.3819
 20
37.8833
 11
35.0102
 21
38.3369
  0
LINE
  8
0
 10
35.0102
 20
38.3369
 11
34.7337
 21
38.8551
  0
LINE
  8
0
 10
34.7337
 20
38.8551
 11
34.5639
 21
39.4159
  0
LINE
  8
0
 10
34.5639
 20
39.4159
 11
34.5058
 21
40
  0
LINE
  8
0
 10
34.5058
 20
40
 11
34.563
 21
40.5841
  0
LINE
  8
0
 10
34.563
 20
40.5841
 11
34.7337
 21
41.1449
  0
LINE
  8
0
 10
34.7337
 20
41.1449
 11
35.0098
 21
41.6626
  0
LINE
  8
0
 10
35.0098
 20
41.6626
 11
35.3819
 21
42.1167
  0
LINE
  8
0
 10
35.3819
 20
42.1167
 11
35.836
 21
42.4889
  0
LINE
  8
0
 10
35.836
 20
42.4889
 11
36.3547
 21
42.7658
  0
LINE
  8
0
 10
36.3547
 20
42.7658
 11
36.9154
 21
42.9356
  0
LINE
  8
0
 10
36.9154
 20
42.9356
 11
37.5
 21
42.9933
  0
LINE
  8
0
 10
37.5
 20
42.9933
 11
38.0841
 21
42.9366
  0
LINE
  8
0
 10
38.0841
 20
42.9366
 11
38.6449
 21
42.7658
  0
LINE
  8
0
 10
38.6449
 20
42.7658
 11
39.1635
 21
42.4889
  0
LINE
  8
0
 10
39.1635
 20
42.4889
 11
39.6176
 21
42.1167
  0
LINE
  8
0
 10
39.6176
 20
42.1167
 11
39.9898
 21
41.6626
  0
LINE
  8
0
 10
39.9898
 20
41.6626
 11
40.2658
 21
41.1449
  0
LINE
  8
0
 10
40.2658
 20
41.1449
 11
40.4356
 21
40.5841
  0
LINE
  8
0
 10
40.4356
 20
40.5841
 11
40.4938
 21
40
  0
LINE
  8
0
 10
40.4938
 20
40
 11
40.4366
 21
39.4159
  0
LINE
  8
0
 10
40.4366
 20
39.4159
 11
40.2658
 21
38.8551
  0
LINE
  8
0
 10
40.2658
 20
38.8551
 11
39.9889
 21
38.3365
  0
LINE
  8
0
 10
39.9889
 20
38.3365
 11
39.6167
 21
37.8824
  0
LINE
  8
0
 10
39.6167
 20
37.8824
 11
39.3082
 21
37.6292
  0
LINE
  8
0
 10
39.3082
 20
37.6292
 11
37.5
 21
34.0138
  0
LINE
  8
0
 10
37.5
 20
34.0138
 11
35.6918
 21
37.6292
  0
LINE
  8
0
 10
-24.3082
 20
37.6292
 11
-24.6181
 21
37.8833
  0
LINE
  8
0
 10
-24.6181
 20
37.8833
 11
-24.9898
 21
38.3369
  0
LINE
  8
0
 10
-24.9898
 20
38.3369
 11
-25.2663
 21
38.8551
  0
LINE
  8
0
 10
-25.2663
 20
38.8551
 11
-25.4361
 21
39.4159
  0
LINE
  8
0
 10
-25.4361
 20
39.4159
 11
-25.4942
 21
40
  0
LINE
  8
0
 10
-25.4942
 20
40
 11
-25.437
 21
40.5841
  0
LINE
  8
0
 10
-25.437
 20
40.5841
 11
-25.2663
 21
41.1449
  0
LINE
  8
0
 10
-25.2663
 20
41.1449
 11
-24.9902
 21
41.6626
  0
LINE
  8
0
 10
-24.9902
 20
41.6626
 11
-24.6181
 21
42.1167
  0
LINE
  8
0
 10
-24.6181
 20
42.1167
 11
-24.164
 21
42.4889
  0
LINE
  8
0
 10
-24.164
 20
42.4889
 11
-23.6453
 21
42.7658
  0
LINE
  8
0
 10
-23.6453
 20
42.7658
 11
-23.0846
 21
42.9356
  0
LINE
  8
0
 10
-23.0846
 20
42.9356
 11
-22.5
 21
42.9933
  0
LINE
  8
0
 10
-22.5
 20
42.9933
 11
-21.9159
 21
42.9366
  0
LINE
  8
0
 10
-21.9159
 20
42.9366
 11
-21.3551
 21
42.7658
  0
LINE
  8
0
 10
-21.3551
 20
42.7658
 11
-20.8365
 21
42.4889
  0
LINE
  8
0
 10
-20.8365
 20
42.4889
 11
-20.3824
 21
42.1167
  0
LINE
  8
0
 10
-20.3824
 20
42.1167
 11
-20.0102
 21
41.6626
  0
LINE
  8
0
 10
-20.0102
 20
41.6626
 11
-19.7342
 21
41.1449
  0
LINE
  8
0
 10
-19.7342
 20
41.1449
 11
-19.5644
 21
40.5841
  0
LINE
  8
0
 10
-19.5644
 20
40.5841
 11
-19.5062
 21
40
  0
LINE
  8
0
 10
-19.5062
 20
40
 11
-19.5634
 21
39.4159
  0
LINE
  8
0
 10
-19.5634
 20
39.4159
 11
-19.7342
 21
38.8551
  0
LINE
  8
0
 10
-19.7342
 20
38.8551
 11
-20.0111
 21
38.3365
  0
LINE
  8
0
 10
-20.0111
 20
38.3365
 11
-20.3833
 21
37.8824
  0
LINE
  8
0
 10
-20.3833
 20
37.8824
 11
-20.6918
 21
37.6292
  0
LINE
  8
0
 10
-20.6918
 20
37.6292
 11
-22.5
 21
34.0138
  0
LINE
  8
0
 10
-22.5
 20
34.0138
 11
-24.3082
 21
37.6292
  0
LINE
  8
0
 10
-49.5583
 20
39.4688
 11
-49.5634
 21
39.4159
  0
LINE
  8
0
 10
-49.5634
 20
39.4159
 11
-49.7342
 21
38.8551
  0
LINE
  8
0
 10
-49.7342
 20
38.8551
 11
-49.7941
 21
38.7429
  0
LINE
  8
0
 10
-49.7941
 20
38.7429
 11
-49.5583
 21
39.4688
  0
LINE
  8
0
 10
49.7342
 20
38.8551
 11
49.5644
 21
39.4159
  0
LINE
  8
0
 10
49.5644
 20
39.4159
 11
49.5595
 21
39.4651
  0
LINE
  8
0
 10
49.5595
 20
39.4651
 11
49.7943
 21
38.7425
  0
LINE
  8
0
 10
49.7943
 20
38.7425
 11
49.7342
 21
38.8551
  0
LINE
  8
0
 10
-0.584106
 20
29.5634
 11
-1.14487
 21
29.7342
  0
LINE
  8
0
 10
-1.14487
 20
29.7342
 11
-1.66351
 21
30.0111
  0
LINE
  8
0
 10
-1.66351
 20
30.0111
 11
-2.11761
 21
30.3833
  0
LINE
  8
0
 10
-2.11761
 20
30.3833
 11
-2.37076
 21
30.6918
  0
LINE
  8
0
 10
-2.37076
 20
30.6918
 11
-5.98618
 21
32.5
  0
LINE
  8
0
 10
-5.98618
 20
32.5
 11
-2.37076
 21
34.3082
  0
LINE
  8
0
 10
-2.37076
 20
34.3082
 11
-2.11716
 21
34.6176
  0
LINE
  8
0
 10
-2.11716
 20
34.6176
 11
-1.66351
 21
34.9893
  0
LINE
  8
0
 10
-1.66351
 20
34.9893
 11
-1.14487
 21
35.2663
  0
LINE
  8
0
 10
-1.14487
 20
35.2663
 11
-0.584106
 21
35.4361
  0
LINE
  8
0
 10
-0.584106
 20
35.4361
 11
0
 21
35.4942
  0
LINE
  8
0
 10
0
 20
35.4942
 11
0.584106
 21
35.437
  0
LINE
  8
0
 10
0.584106
 20
35.437
 11
1.14487
 21
35.2663
  0
LINE
  8
0
 10
1.14487
 20
35.2663
 11
1.66306
 21
34.9898
  0
LINE
  8
0
 10
1.66306
 20
34.9898
 11
2.11716
 21
34.6176
  0
LINE
  8
0
 10
2.11716
 20
34.6176
 11
2.48932
 21
34.1635
  0
LINE
  8
0
 10
2.48932
 20
34.1635
 11
2.76581
 21
33.6453
  0
LINE
  8
0
 10
2.76581
 20
33.6453
 11
2.93564
 21
33.0846
  0
LINE
  8
0
 10
2.93564
 20
33.0846
 11
2.99332
 21
32.4995
  0
LINE
  8
0
 10
2.99332
 20
32.4995
 11
2.93655
 21
31.9159
  0
LINE
  8
0
 10
2.93655
 20
31.9159
 11
2.76581
 21
31.3551
  0
LINE
  8
0
 10
2.76581
 20
31.3551
 11
2.48886
 21
30.8365
  0
LINE
  8
0
 10
2.48886
 20
30.8365
 11
2.1167
 21
30.3824
  0
LINE
  8
0
 10
2.1167
 20
30.3824
 11
1.66306
 21
30.0107
  0
LINE
  8
0
 10
1.66306
 20
30.0107
 11
1.14487
 21
29.7342
  0
LINE
  8
0
 10
1.14487
 20
29.7342
 11
0.584106
 21
29.5644
  0
LINE
  8
0
 10
0.584106
 20
29.5644
 11
0
 21
29.5062
  0
LINE
  8
0
 10
0
 20
29.5062
 11
-0.584106
 21
29.5634
  0
LINE
  8
0
 10
-30.5841
 20
29.5634
 11
-31.1449
 21
29.7342
  0
LINE
  8
0
 10
-31.1449
 20
29.7342
 11
-31.6635
 21
30.0111
  0
LINE
  8
0
 10
-31.6635
 20
30.0111
 11
-32.1176
 21
30.3833
  0
LINE
  8
0
 10
-32.1176
 20
30.3833
 11
-32.3708
 21
30.6918
  0
LINE
  8
0
 10
-32.3708
 20
30.6918
 11
-35.9862
 21
32.5
  0
LINE
  8
0
 10
-35.9862
 20
32.5
 11
-32.3708
 21
34.3082
  0
LINE
  8
0
 10
-32.3708
 20
34.3082
 11
-32.1172
 21
34.6176
  0
LINE
  8
0
 10
-32.1172
 20
34.6176
 11
-31.6635
 21
34.9893
  0
LINE
  8
0
 10
-31.6635
 20
34.9893
 11
-31.1449
 21
35.2663
  0
LINE
  8
0
 10
-31.1449
 20
35.2663
 11
-30.5841
 21
35.4361
  0
LINE
  8
0
 10
-30.5841
 20
35.4361
 11
-30
 21
35.4942
  0
LINE
  8
0
 10
-30
 20
35.4942
 11
-29.4159
 21
35.437
  0
LINE
  8
0
 10
-29.4159
 20
35.437
 11
-28.8551
 21
35.2663
  0
LINE
  8
0
 10
-28.8551
 20
35.2663
 11
-28.3369
 21
34.9898
  0
LINE
  8
0
 10
-28.3369
 20
34.9898
 11
-27.8828
 21
34.6176
  0
LINE
  8
0
 10
-27.8828
 20
34.6176
 11
-27.5107
 21
34.1635
  0
LINE
  8
0
 10
-27.5107
 20
34.1635
 11
-27.2342
 21
33.6453
  0
LINE
  8
0
 10
-27.2342
 20
33.6453
 11
-27.0644
 21
33.0846
  0
LINE
  8
0
 10
-27.0644
 20
33.0846
 11
-27.0067
 21
32.4995
  0
LINE
  8
0
 10
-27.0067
 20
32.4995
 11
-27.0634
 21
31.9159
  0
LINE
  8
0
 10
-27.0634
 20
31.9159
 11
-27.2342
 21
31.3551
  0
LINE
  8
0
 10
-27.2342
 20
31.3551
 11
-27.5111
 21
30.8365
  0
LINE
  8
0
 10
-27.5111
 20
30.8365
 11
-27.8833
 21
30.3824
  0
LINE
  8
0
 10
-27.8833
 20
30.3824
 11
-28.3369
 21
30.0107
  0
LINE
  8
0
 10
-28.3369
 20
30.0107
 11
-28.8551
 21
29.7342
  0
LINE
  8
0
 10
-28.8551
 20
29.7342
 11
-29.4159
 21
29.5644
  0
LINE
  8
0
 10
-29.4159
 20
29.5644
 11
-30
 21
29.5062
  0
LINE
  8
0
 10
-30
 20
29.5062
 11
-30.5841
 21
29.5634
  0
LINE
  8
0
 10
29.4159
 20
29.5634
 11
28.8551
 21
29.7342
  0
LINE
  8
0
 10
28.8551
 20
29.7342
 11
28.3365
 21
30.0111
  0
LINE
  8
0
 10
28.3365
 20
30.0111
 11
27.8824
 21
30.3833
  0
LINE
  8
0
 10
27.8824
 20
30.3833
 11
27.6292
 21
30.6918
  0
LINE
  8
0
 10
27.6292
 20
30.6918
 11
24.0138
 21
32.5
  0
LINE
  8
0
 10
24.0138
 20
32.5
 11
27.6292
 21
34.3082
  0
LINE
  8
0
 10
27.6292
 20
34.3082
 11
27.8828
 21
34.6176
  0
LINE
  8
0
 10
27.8828
 20
34.6176
 11
28.3365
 21
34.9893
  0
LINE
  8
0
 10
28.3365
 20
34.9893
 11
28.8551
 21
35.2663
  0
LINE
  8
0
 10
28.8551
 20
35.2663
 11
29.4159
 21
35.4361
  0
LINE
  8
0
 10
29.4159
 20
35.4361
 11
30
 21
35.4942
  0
LINE
  8
0
 10
30
 20
35.4942
 11
30.5841
 21
35.437
  0
LINE
  8
0
 10
30.5841
 20
35.437
 11
31.1449
 21
35.2663
  0
LINE
  8
0
 10
31.1449
 20
35.2663
 11
31.6631
 21
34.9898
  0
LINE
  8
0
 10
31.6631
 20
34.9898
 11
32.1172
 21
34.6176
  0
LINE
  8
0
 10
32.1172
 20
34.6176
 11
32.4893
 21
34.1635
  0
LINE
  8
0
 10
32.4893
 20
34.1635
 11
32.7658
 21
33.6453
  0
LINE
  8
0
 10
32.7658
 20
33.6453
 11
32.9356
 21
33.0846
  0
LINE
  8
0
 10
32.9356
 20
33.0846
 11
32.9933
 21
32.4995
  0
LINE
  8
0
 10
32.9933
 20
32.4995
 11
32.9366
 21
31.9159
  0
LINE
  8
0
 10
32.9366
 20
31.9159
 11
32.7658
 21
31.3551
  0
LINE
  8
0
 10
32.7658
 20
31.3551
 11
32.4889
 21
30.8365
  0
LINE
  8
0
 10
32.4889
 20
30.8365
 11
32.1167
 21
30.3824
  0
LINE
  8
0
 10
32.1167
 20
30.3824
 11
31.6631
 21
30.0107
  0
LINE
  8
0
 10
31.6631
 20
30.0107
 11
31.1449
 21
29.7342
  0
LINE
  8
0
 10
31.1449
 20
29.7342
 11
30.5841
 21
29.5644
  0
LINE
  8
0
 10
30.5841
 20
29.5644
 11
30
 21
29.5062
  0
LINE
  8
0
 10
30
 20
29.5062
 11
29.4159
 21
29.5634
  0
LINE
  8
0
 10
-15.5841
 20
29.563
 11
-16.1449
 21
29.7337
  0
LINE
  8
0
 10
-16.1449
 20
29.7337
 11
-16.6635
 21
30.0107
  0
LINE
  8
0
 10
-16.6635
 20
30.0107
 11
-17.1176
 21
30.3828
  0
LINE
  8
0
 10
-17.1176
 20
30.3828
 11
-17.3708
 21
30.6918
  0
LINE
  8
0
 10
-17.3708
 20
30.6918
 11
-20.9862
 21
32.5
  0
LINE
  8
0
 10
-20.9862
 20
32.5
 11
-17.3708
 21
34.3082
  0
LINE
  8
0
 10
-17.3708
 20
34.3082
 11
-17.1172
 21
34.6172
  0
LINE
  8
0
 10
-17.1172
 20
34.6172
 11
-16.6631
 21
34.9893
  0
LINE
  8
0
 10
-16.6631
 20
34.9893
 11
-16.1449
 21
35.2658
  0
LINE
  8
0
 10
-16.1449
 20
35.2658
 11
-15.5841
 21
35.4356
  0
LINE
  8
0
 10
-15.5841
 20
35.4356
 11
-15
 21
35.4938
  0
LINE
  8
0
 10
-15
 20
35.4938
 11
-14.4159
 21
35.4366
  0
LINE
  8
0
 10
-14.4159
 20
35.4366
 11
-13.8551
 21
35.2658
  0
LINE
  8
0
 10
-13.8551
 20
35.2658
 11
-13.3365
 21
34.9889
  0
LINE
  8
0
 10
-13.3365
 20
34.9889
 11
-12.8824
 21
34.6167
  0
LINE
  8
0
 10
-12.8824
 20
34.6167
 11
-12.5102
 21
34.1626
  0
LINE
  8
0
 10
-12.5102
 20
34.1626
 11
-12.2342
 21
33.6449
  0
LINE
  8
0
 10
-12.2342
 20
33.6449
 11
-12.0644
 21
33.0841
  0
LINE
  8
0
 10
-12.0644
 20
33.0841
 11
-12.0067
 21
32.4991
  0
LINE
  8
0
 10
-12.0067
 20
32.4991
 11
-12.0634
 21
31.9154
  0
LINE
  8
0
 10
-12.0634
 20
31.9154
 11
-12.2342
 21
31.3547
  0
LINE
  8
0
 10
-12.2342
 20
31.3547
 11
-12.5107
 21
30.8365
  0
LINE
  8
0
 10
-12.5107
 20
30.8365
 11
-12.8828
 21
30.3824
  0
LINE
  8
0
 10
-12.8828
 20
30.3824
 11
-13.3365
 21
30.0107
  0
LINE
  8
0
 10
-13.3365
 20
30.0107
 11
-13.8551
 21
29.7337
  0
LINE
  8
0
 10
-13.8551
 20
29.7337
 11
-14.4159
 21
29.5639
  0
LINE
  8
0
 10
-14.4159
 20
29.5639
 11
-15
 21
29.5058
  0
LINE
  8
0
 10
-15
 20
29.5058
 11
-15.5841
 21
29.563
  0
LINE
  8
0
 10
-45.5841
 20
29.563
 11
-46.1449
 21
29.7337
  0
LINE
  8
0
 10
-46.1449
 20
29.7337
 11
-46.6635
 21
30.0107
  0
LINE
  8
0
 10
-46.6635
 20
30.0107
 11
-47.1176
 21
30.3828
  0
LINE
  8
0
 10
-47.1176
 20
30.3828
 11
-47.3708
 21
30.6918
  0
LINE
  8
0
 10
-47.3708
 20
30.6918
 11
-50.9862
 21
32.5
  0
LINE
  8
0
 10
-50.9862
 20
32.5
 11
-47.3708
 21
34.3082
  0
LINE
  8
0
 10
-47.3708
 20
34.3082
 11
-47.1172
 21
34.6172
  0
LINE
  8
0
 10
-47.1172
 20
34.6172
 11
-46.6631
 21
34.9893
  0
LINE
  8
0
 10
-46.6631
 20
34.9893
 11
-46.1449
 21
35.2658
  0
LINE
  8
0
 10
-46.1449
 20
35.2658
 11
-45.5841
 21
35.4356
  0
LINE
  8
0
 10
-45.5841
 20
35.4356
 11
-45
 21
35.4938
  0
LINE
  8
0
 10
-45
 20
35.4938
 11
-44.4159
 21
35.4366
  0
LINE
  8
0
 10
-44.4159
 20
35.4366
 11
-43.8551
 21
35.2658
  0
LINE
  8
0
 10
-43.8551
 20
35.2658
 11
-43.3365
 21
34.9889
  0
LINE
  8
0
 10
-43.3365
 20
34.9889
 11
-42.8824
 21
34.6167
  0
LINE
  8
0
 10
-42.8824
 20
34.6167
 11
-42.5102
 21
34.1626
  0
LINE
  8
0
 10
-42.5102
 20
34.1626
 11
-42.2342
 21
33.6449
  0
LINE
  8
0
 10
-42.2342
 20
33.6449
 11
-42.0644
 21
33.0841
  0
LINE
  8
0
 10
-42.0644
 20
33.0841
 11
-42.0067
 21
32.4991
  0
LINE
  8
0
 10
-42.0067
 20
32.4991
 11
-42.0634
 21
31.9154
  0
LINE
  8
0
 10
-42.0634
 20
31.9154
 11
-42.2342
 21
31.3547
  0
LINE
  8
0
 10
-42.2342
 20
31.3547
 11
-42.5107
 21
30.8365
  0
LINE
  8
0
 10
-42.5107
 20
30.8365
 11
-42.8828
 21
30.3824
  0
LINE
  8
0
 10
-42.8828
 20
30.3824
 11
-43.3365
 21
30.0107
  0
LINE
  8
0
 10
-43.3365
 20
30.0107
 11
-43.8551
 21
29.7337
  0
LINE
  8
0
 10
-43.8551
 20
29.7337
 11
-44.4159
 21
29.5639
  0
LINE
  8
0
 10
-44.4159
 20
29.5639
 11
-45
 21
29.5058
  0
LINE
  8
0
 10
-45
 20
29.5058
 11
-45.5841
 21
29.563
  0
LINE
  8
0
 10
14.4159
 20
29.563
 11
13.8551
 21
29.7337
  0
LINE
  8
0
 10
13.8551
 20
29.7337
 11
13.3365
 21
30.0107
  0
LINE
  8
0
 10
13.3365
 20
30.0107
 11
12.8824
 21
30.3828
  0
LINE
  8
0
 10
12.8824
 20
30.3828
 11
12.6292
 21
30.6918
  0
LINE
  8
0
 10
12.6292
 20
30.6918
 11
9.01382
 21
32.5
  0
LINE
  8
0
 10
9.01382
 20
32.5
 11
12.6292
 21
34.3082
  0
LINE
  8
0
 10
12.6292
 20
34.3082
 11
12.8828
 21
34.6172
  0
LINE
  8
0
 10
12.8828
 20
34.6172
 11
13.3369
 21
34.9893
  0
LINE
  8
0
 10
13.3369
 20
34.9893
 11
13.8551
 21
35.2658
  0
LINE
  8
0
 10
13.8551
 20
35.2658
 11
14.4159
 21
35.4356
  0
LINE
  8
0
 10
14.4159
 20
35.4356
 11
15
 21
35.4938
  0
LINE
  8
0
 10
15
 20
35.4938
 11
15.5841
 21
35.4366
  0
LINE
  8
0
 10
15.5841
 20
35.4366
 11
16.1449
 21
35.2658
  0
LINE
  8
0
 10
16.1449
 20
35.2658
 11
16.6635
 21
34.9889
  0
LINE
  8
0
 10
16.6635
 20
34.9889
 11
17.1176
 21
34.6167
  0
LINE
  8
0
 10
17.1176
 20
34.6167
 11
17.4898
 21
34.1626
  0
LINE
  8
0
 10
17.4898
 20
34.1626
 11
17.7658
 21
33.6449
  0
LINE
  8
0
 10
17.7658
 20
33.6449
 11
17.9356
 21
33.0841
  0
LINE
  8
0
 10
17.9356
 20
33.0841
 11
17.9933
 21
32.4991
  0
LINE
  8
0
 10
17.9933
 20
32.4991
 11
17.9366
 21
31.9154
  0
LINE
  8
0
 10
17.9366
 20
31.9154
 11
17.7658
 21
31.3547
  0
LINE
  8
0
 10
17.7658
 20
31.3547
 11
17.4893
 21
30.8365
  0
LINE
  8
0
 10
17.4893
 20
30.8365
 11
17.1172
 21
30.3824
  0
LINE
  8
0
 10
17.1172
 20
30.3824
 11
16.6635
 21
30.0107
  0
LINE
  8
0
 10
16.6635
 20
30.0107
 11
16.1449
 21
29.7337
  0
LINE
  8
0
 10
16.1449
 20
29.7337
 11
15.5841
 21
29.5639
  0
LINE
  8
0
 10
15.5841
 20
29.5639
 11
15
 21
29.5058
  0
LINE
  8
0
 10
15
 20
29.5058
 11
14.4159
 21
29.563
  0
LINE
  8
0
 10
44.4159
 20
29.563
 11
43.8551
 21
29.7337
  0
LINE
  8
0
 10
43.8551
 20
29.7337
 11
43.3365
 21
30.0107
  0
LINE
  8
0
 10
43.3365
 20
30.0107
 11
42.8824
 21
30.3828
  0
LINE
  8
0
 10
42.8824
 20
30.3828
 11
42.6292
 21
30.6918
  0
LINE
  8
0
 10
42.6292
 20
30.6918
 11
39.0138
 21
32.5
  0
LINE
  8
0
 10
39.0138
 20
32.5
 11
42.6292
 21
34.3082
  0
LINE
  8
0
 10
42.6292
 20
34.3082
 11
42.8828
 21
34.6172
  0
LINE
  8
0
 10
42.8828
 20
34.6172
 11
43.3369
 21
34.9893
  0
LINE
  8
0
 10
43.3369
 20
34.9893
 11
43.8551
 21
35.2658
  0
LINE
  8
0
 10
43.8551
 20
35.2658
 11
44.4159
 21
35.4356
  0
LINE
  8
0
 10
44.4159
 20
35.4356
 11
45
 21
35.4938
  0
LINE
  8
0
 10
45
 20
35.4938
 11
45.5841
 21
35.4366
  0
LINE
  8
0
 10
45.5841
 20
35.4366
 11
46.1449
 21
35.2658
  0
LINE
  8
0
 10
46.1449
 20
35.2658
 11
46.6635
 21
34.9889
  0
LINE
  8
0
 10
46.6635
 20
34.9889
 11
47.1176
 21
34.6167
  0
LINE
  8
0
 10
47.1176
 20
34.6167
 11
47.4898
 21
34.1626
  0
LINE
  8
0
 10
47.4898
 20
34.1626
 11
47.7658
 21
33.6449
  0
LINE
  8
0
 10
47.7658
 20
33.6449
 11
47.9356
 21
33.0841
  0
LINE
  8
0
 10
47.9356
 20
33.0841
 11
47.9933
 21
32.4991
  0
LINE
  8
0
 10
47.9933
 20
32.4991
 11
47.9366
 21
31.9154
  0
LINE
  8
0
 10
47.9366
 20
31.9154
 11
47.7658
 21
31.3547
  0
LINE
  8
0
 10
47.7658
 20
31.3547
 11
47.4893
 21
30.8365
  0
LINE
  8
0
 10
47.4893
 20
30.8365
 11
47.1172
 21
30.3824
  0
LINE
  8
0
 10
47.1172
 20
30.3824
 11
46.6635
 21
30.0107
  0
LINE
  8
0
 10
46.6635
 20
30.0107
 11
46.1449
 21
29.7337
  0
LINE
  8
0
 10
46.1449
 20
29.7337
 11
45.5841
 21
29.5639
  0
LINE
  8
0
 10
45.5841
 20
29.5639
 11
45
 21
29.5058
  0
LINE
  8
0
 10
45
 20
29.5058
 11
44.4159
 21
29.563
  0
LINE
  8
0
 10
-8.08456
 20
22.0634
 11
-8.64532
 21
22.2342
  0
LINE
  8
0
 10
-8.64532
 20
22.2342
 11
-9.16351
 21
22.5107
  0
LINE
  8
0
 10
-9.16351
 20
22.5107
 11
-9.61761
 21
22.8828
  0
LINE
  8
0
 10
-9.61761
 20
22.8828
 11
-9.98978
 21
23.3369
  0
LINE
  8
0
 10
-9.98978
 20
23.3369
 11
-10.2663
 21
23.8551
  0
LINE
  8
0
 10
-10.2663
 20
23.8551
 11
-10.4361
 21
24.4159
  0
LINE
  8
0
 10
-10.4361
 20
24.4159
 11
-10.4942
 21
25
  0
LINE
  8
0
 10
-10.4942
 20
25
 11
-10.437
 21
25.5841
  0
LINE
  8
0
 10
-10.437
 20
25.5841
 11
-10.2663
 21
26.1449
  0
LINE
  8
0
 10
-10.2663
 20
26.1449
 11
-9.98978
 21
26.6631
  0
LINE
  8
0
 10
-9.98978
 20
26.6631
 11
-9.61761
 21
27.1172
  0
LINE
  8
0
 10
-9.61761
 20
27.1172
 11
-9.30817
 21
27.3708
  0
LINE
  8
0
 10
-9.30817
 20
27.3708
 11
-7.5
 21
30.9862
  0
LINE
  8
0
 10
-7.5
 20
30.9862
 11
-5.69183
 21
27.3708
  0
LINE
  8
0
 10
-5.69183
 20
27.3708
 11
-5.38239
 21
27.1167
  0
LINE
  8
0
 10
-5.38239
 20
27.1167
 11
-5.01022
 21
26.6626
  0
LINE
  8
0
 10
-5.01022
 20
26.6626
 11
-4.73419
 21
26.1449
  0
LINE
  8
0
 10
-4.73419
 20
26.1449
 11
-4.56436
 21
25.5841
  0
LINE
  8
0
 10
-4.56436
 20
25.5841
 11
-4.50623
 21
25
  0
LINE
  8
0
 10
-4.50623
 20
25
 11
-4.56345
 21
24.4159
  0
LINE
  8
0
 10
-4.56345
 20
24.4159
 11
-4.73419
 21
23.8551
  0
LINE
  8
0
 10
-4.73419
 20
23.8551
 11
-5.01114
 21
23.3365
  0
LINE
  8
0
 10
-5.01114
 20
23.3365
 11
-5.3833
 21
22.8824
  0
LINE
  8
0
 10
-5.3833
 20
22.8824
 11
-5.83694
 21
22.5107
  0
LINE
  8
0
 10
-5.83694
 20
22.5107
 11
-6.35513
 21
22.2342
  0
LINE
  8
0
 10
-6.35513
 20
22.2342
 11
-6.91589
 21
22.0644
  0
LINE
  8
0
 10
-6.91589
 20
22.0644
 11
-7.50046
 21
22.0067
  0
LINE
  8
0
 10
-7.50046
 20
22.0067
 11
-8.08456
 21
22.0634
  0
LINE
  8
0
 10
21.9154
 20
22.0634
 11
21.3547
 21
22.2342
  0
LINE
  8
0
 10
21.3547
 20
22.2342
 11
20.8365
 21
22.5107
  0
LINE
  8
0
 10
20.8365
 20
22.5107
 11
20.3824
 21
22.8828
  0
LINE
  8
0
 10
20.3824
 20
22.8828
 11
20.0102
 21
23.3369
  0
LINE
  8
0
 10
20.0102
 20
23.3369
 11
19.7337
 21
23.8551
  0
LINE
  8
0
 10
19.7337
 20
23.8551
 11
19.5639
 21
24.4159
  0
LINE
  8
0
 10
19.5639
 20
24.4159
 11
19.5058
 21
25
  0
LINE
  8
0
 10
19.5058
 20
25
 11
19.563
 21
25.5841
  0
LINE
  8
0
 10
19.563
 20
25.5841
 11
19.7337
 21
26.1449
  0
LINE
  8
0
 10
19.7337
 20
26.1449
 11
20.0102
 21
26.6631
  0
LINE
  8
0
 10
20.0102
 20
26.6631
 11
20.3824
 21
27.1172
  0
LINE
  8
0
 10
20.3824
 20
27.1172
 11
20.6918
 21
27.3708
  0
LINE
  8
0
 10
20.6918
 20
27.3708
 11
22.5
 21
30.9862
  0
LINE
  8
0
 10
22.5
 20
30.9862
 11
24.3082
 21
27.3708
  0
LINE
  8
0
 10
24.3082
 20
27.3708
 11
24.6176
 21
27.1167
  0
LINE
  8
0
 10
24.6176
 20
27.1167
 11
24.9898
 21
26.6626
  0
LINE
  8
0
 10
24.9898
 20
26.6626
 11
25.2658
 21
26.1449
  0
LINE
  8
0
 10
25.2658
 20
26.1449
 11
25.4356
 21
25.5841
  0
LINE
  8
0
 10
25.4356
 20
25.5841
 11
25.4938
 21
25
  0
LINE
  8
0
 10
25.4938
 20
25
 11
25.4366
 21
24.4159
  0
LINE
  8
0
 10
25.4366
 20
24.4159
 11
25.2658
 21
23.8551
  0
LINE
  8
0
 10
25.2658
 20
23.8551
 11
24.9889
 21
23.3365
  0
LINE
  8
0
 10
24.9889
 20
23.3365
 11
24.6167
 21
22.8824
  0
LINE
  8
0
 10
24.6167
 20
22.8824
 11
24.1631
 21
22.5107
  0
LINE
  8
0
 10
24.1631
 20
22.5107
 11
23.6449
 21
22.2342
  0
LINE
  8
0
 10
23.6449
 20
22.2342
 11
23.0841
 21
22.0644
  0
LINE
  8
0
 10
23.0841
 20
22.0644
 11
22.4995
 21
22.0067
  0
LINE
  8
0
 10
22.4995
 20
22.0067
 11
21.9154
 21
22.0634
  0
LINE
  8
0
 10
-38.0846
 20
22.0634
 11
-38.6453
 21
22.2342
  0
LINE
  8
0
 10
-38.6453
 20
22.2342
 11
-39.1635
 21
22.5107
  0
LINE
  8
0
 10
-39.1635
 20
22.5107
 11
-39.6176
 21
22.8828
  0
LINE
  8
0
 10
-39.6176
 20
22.8828
 11
-39.9898
 21
23.3369
  0
LINE
  8
0
 10
-39.9898
 20
23.3369
 11
-40.2663
 21
23.8551
  0
LINE
  8
0
 10
-40.2663
 20
23.8551
 11
-40.4361
 21
24.4159
  0
LINE
  8
0
 10
-40.4361
 20
24.4159
 11
-40.4942
 21
25
  0
LINE
  8
0
 10
-40.4942
 20
25
 11
-40.437
 21
25.5841
  0
LINE
  8
0
 10
-40.437
 20
25.5841
 11
-40.2663
 21
26.1449
  0
LINE
  8
0
 10
-40.2663
 20
26.1449
 11
-39.9898
 21
26.6631
  0
LINE
  8
0
 10
-39.9898
 20
26.6631
 11
-39.6176
 21
27.1172
  0
LINE
  8
0
 10
-39.6176
 20
27.1172
 11
-39.3082
 21
27.3708
  0
LINE
  8
0
 10
-39.3082
 20
27.3708
 11
-37.5
 21
30.9862
  0
LINE
  8
0
 10
-37.5
 20
30.9862
 11
-35.6918
 21
27.3708
  0
LINE
  8
0
 10
-35.6918
 20
27.3708
 11
-35.3824
 21
27.1167
  0
LINE
  8
0
 10
-35.3824
 20
27.1167
 11
-35.0102
 21
26.6626
  0
LINE
  8
0
 10
-35.0102
 20
26.6626
 11
-34.7342
 21
26.1449
  0
LINE
  8
0
 10
-34.7342
 20
26.1449
 11
-34.5644
 21
25.5841
  0
LINE
  8
0
 10
-34.5644
 20
25.5841
 11
-34.5062
 21
25
  0
LINE
  8
0
 10
-34.5062
 20
25
 11
-34.5634
 21
24.4159
  0
LINE
  8
0
 10
-34.5634
 20
24.4159
 11
-34.7342
 21
23.8551
  0
LINE
  8
0
 10
-34.7342
 20
23.8551
 11
-35.0111
 21
23.3365
  0
LINE
  8
0
 10
-35.0111
 20
23.3365
 11
-35.3833
 21
22.8824
  0
LINE
  8
0
 10
-35.3833
 20
22.8824
 11
-35.8369
 21
22.5107
  0
LINE
  8
0
 10
-35.8369
 20
22.5107
 11
-36.3551
 21
22.2342
  0
LINE
  8
0
 10
-36.3551
 20
22.2342
 11
-36.9159
 21
22.0644
  0
LINE
  8
0
 10
-36.9159
 20
22.0644
 11
-37.5005
 21
22.0067
  0
LINE
  8
0
 10
-37.5005
 20
22.0067
 11
-38.0846
 21
22.0634
  0
LINE
  8
0
 10
51.9154
 20
22.0634
 11
51.3547
 21
22.2342
  0
LINE
  8
0
 10
51.3547
 20
22.2342
 11
50.8365
 21
22.5107
  0
LINE
  8
0
 10
50.8365
 20
22.5107
 11
50.3824
 21
22.8828
  0
LINE
  8
0
 10
50.3824
 20
22.8828
 11
50.0102
 21
23.3369
  0
LINE
  8
0
 10
50.0102
 20
23.3369
 11
49.7337
 21
23.8551
  0
LINE
  8
0
 10
49.7337
 20
23.8551
 11
49.5639
 21
24.4159
  0
LINE
  8
0
 10
49.5639
 20
24.4159
 11
49.5058
 21
25
  0
LINE
  8
0
 10
49.5058
 20
25
 11
49.563
 21
25.5841
  0
LINE
  8
0
 10
49.563
 20
25.5841
 11
49.7337
 21
26.1449
  0
LINE
  8
0
 10
49.7337
 20
26.1449
 11
50.0102
 21
26.6631
  0
LINE
  8
0
 10
50.0102
 20
26.6631
 11
50.3824
 21
27.1172
  0
LINE
  8
0
 10
50.3824
 20
27.1172
 11
50.6918
 21
27.3708
  0
LINE
  8
0
 10
50.6918
 20
27.3708
 11
52.3875
 21
30.7613
  0
LINE
  8
0
 10
52.3875
 20
30.7613
 11
54.8536
 21
23.1714
  0
LINE
  8
0
 10
54.8536
 20
23.1714
 11
54.6167
 21
22.8824
  0
LINE
  8
0
 10
54.6167
 20
22.8824
 11
54.1631
 21
22.5107
  0
LINE
  8
0
 10
54.1631
 20
22.5107
 11
53.6449
 21
22.2342
  0
LINE
  8
0
 10
53.6449
 20
22.2342
 11
53.0841
 21
22.0644
  0
LINE
  8
0
 10
53.0841
 20
22.0644
 11
52.4995
 21
22.0067
  0
LINE
  8
0
 10
52.4995
 20
22.0067
 11
51.9154
 21
22.0634
  0
LINE
  8
0
 10
5.69183
 20
22.6292
 11
5.38239
 21
22.8833
  0
LINE
  8
0
 10
5.38239
 20
22.8833
 11
5.01022
 21
23.3374
  0
LINE
  8
0
 10
5.01022
 20
23.3374
 11
4.73419
 21
23.8551
  0
LINE
  8
0
 10
4.73419
 20
23.8551
 11
4.56436
 21
24.4159
  0
LINE
  8
0
 10
4.56436
 20
24.4159
 11
4.50623
 21
25
  0
LINE
  8
0
 10
4.50623
 20
25
 11
4.56345
 21
25.5841
  0
LINE
  8
0
 10
4.56345
 20
25.5841
 11
4.73419
 21
26.1449
  0
LINE
  8
0
 10
4.73419
 20
26.1449
 11
5.01068
 21
26.6631
  0
LINE
  8
0
 10
5.01068
 20
26.6631
 11
5.38284
 21
27.1172
  0
LINE
  8
0
 10
5.38284
 20
27.1172
 11
5.83694
 21
27.4893
  0
LINE
  8
0
 10
5.83694
 20
27.4893
 11
6.35513
 21
27.7658
  0
LINE
  8
0
 10
6.35513
 20
27.7658
 11
6.91589
 21
27.9356
  0
LINE
  8
0
 10
6.91589
 20
27.9356
 11
7.50046
 21
27.9933
  0
LINE
  8
0
 10
7.50046
 20
27.9933
 11
8.08456
 21
27.9366
  0
LINE
  8
0
 10
8.08456
 20
27.9366
 11
8.64532
 21
27.7658
  0
LINE
  8
0
 10
8.64532
 20
27.7658
 11
9.16351
 21
27.4893
  0
LINE
  8
0
 10
9.16351
 20
27.4893
 11
9.61761
 21
27.1172
  0
LINE
  8
0
 10
9.61761
 20
27.1172
 11
9.98978
 21
26.6631
  0
LINE
  8
0
 10
9.98978
 20
26.6631
 11
10.2663
 21
26.1449
  0
LINE
  8
0
 10
10.2663
 20
26.1449
 11
10.4361
 21
25.5841
  0
LINE
  8
0
 10
10.4361
 20
25.5841
 11
10.4942
 21
25
  0
LINE
  8
0
 10
10.4942
 20
25
 11
10.437
 21
24.4159
  0
LINE
  8
0
 10
10.437
 20
24.4159
 11
10.2663
 21
23.8551
  0
LINE
  8
0
 10
10.2663
 20
23.8551
 11
9.98932
 21
23.3365
  0
LINE
  8
0
 10
9.98932
 20
23.3365
 11
9.61716
 21
22.8824
  0
LINE
  8
0
 10
9.61716
 20
22.8824
 11
9.30817
 21
22.6292
  0
LINE
  8
0
 10
9.30817
 20
22.6292
 11
7.5
 21
19.0138
  0
LINE
  8
0
 10
7.5
 20
19.0138
 11
5.69183
 21
22.6292
  0
LINE
  8
0
 10
-24.3082
 20
22.6292
 11
-24.6176
 21
22.8833
  0
LINE
  8
0
 10
-24.6176
 20
22.8833
 11
-24.9898
 21
23.3374
  0
LINE
  8
0
 10
-24.9898
 20
23.3374
 11
-25.2658
 21
23.8551
  0
LINE
  8
0
 10
-25.2658
 20
23.8551
 11
-25.4356
 21
24.4159
  0
LINE
  8
0
 10
-25.4356
 20
24.4159
 11
-25.4938
 21
25
  0
LINE
  8
0
 10
-25.4938
 20
25
 11
-25.4366
 21
25.5841
  0
LINE
  8
0
 10
-25.4366
 20
25.5841
 11
-25.2658
 21
26.1449
  0
LINE
  8
0
 10
-25.2658
 20
26.1449
 11
-24.9893
 21
26.6631
  0
LINE
  8
0
 10
-24.9893
 20
26.6631
 11
-24.6172
 21
27.1172
  0
LINE
  8
0
 10
-24.6172
 20
27.1172
 11
-24.1631
 21
27.4893
  0
LINE
  8
0
 10
-24.1631
 20
27.4893
 11
-23.6449
 21
27.7658
  0
LINE
  8
0
 10
-23.6449
 20
27.7658
 11
-23.0841
 21
27.9356
  0
LINE
  8
0
 10
-23.0841
 20
27.9356
 11
-22.4995
 21
27.9933
  0
LINE
  8
0
 10
-22.4995
 20
27.9933
 11
-21.9154
 21
27.9366
  0
LINE
  8
0
 10
-21.9154
 20
27.9366
 11
-21.3547
 21
27.7658
  0
LINE
  8
0
 10
-21.3547
 20
27.7658
 11
-20.8365
 21
27.4893
  0
LINE
  8
0
 10
-20.8365
 20
27.4893
 11
-20.3824
 21
27.1172
  0
LINE
  8
0
 10
-20.3824
 20
27.1172
 11
-20.0102
 21
26.6631
  0
LINE
  8
0
 10
-20.0102
 20
26.6631
 11
-19.7337
 21
26.1449
  0
LINE
  8
0
 10
-19.7337
 20
26.1449
 11
-19.5639
 21
25.5841
  0
LINE
  8
0
 10
-19.5639
 20
25.5841
 11
-19.5058
 21
25
  0
LINE
  8
0
 10
-19.5058
 20
25
 11
-19.563
 21
24.4159
  0
LINE
  8
0
 10
-19.563
 20
24.4159
 11
-19.7337
 21
23.8551
  0
LINE
  8
0
 10
-19.7337
 20
23.8551
 11
-20.0107
 21
23.3365
  0
LINE
  8
0
 10
-20.0107
 20
23.3365
 11
-20.3828
 21
22.8824
  0
LINE
  8
0
 10
-20.3828
 20
22.8824
 11
-20.6918
 21
22.6292
  0
LINE
  8
0
 10
-20.6918
 20
22.6292
 11
-22.5
 21
19.0138
  0
LINE
  8
0
 10
-22.5
 20
19.0138
 11
-24.3082
 21
22.6292
  0
LINE
  8
0
 10
35.6918
 20
22.6292
 11
35.3824
 21
22.8833
  0
LINE
  8
0
 10
35.3824
 20
22.8833
 11
35.0102
 21
23.3374
  0
LINE
  8
0
 10
35.0102
 20
23.3374
 11
34.7342
 21
23.8551
  0
LINE
  8
0
 10
34.7342
 20
23.8551
 11
34.5644
 21
24.4159
  0
LINE
  8
0
 10
34.5644
 20
24.4159
 11
34.5062
 21
25
  0
LINE
  8
0
 10
34.5062
 20
25
 11
34.5634
 21
25.5841
  0
LINE
  8
0
 10
34.5634
 20
25.5841
 11
34.7342
 21
26.1449
  0
LINE
  8
0
 10
34.7342
 20
26.1449
 11
35.0107
 21
26.6631
  0
LINE
  8
0
 10
35.0107
 20
26.6631
 11
35.3828
 21
27.1172
  0
LINE
  8
0
 10
35.3828
 20
27.1172
 11
35.8369
 21
27.4893
  0
LINE
  8
0
 10
35.8369
 20
27.4893
 11
36.3551
 21
27.7658
  0
LINE
  8
0
 10
36.3551
 20
27.7658
 11
36.9159
 21
27.9356
  0
LINE
  8
0
 10
36.9159
 20
27.9356
 11
37.5005
 21
27.9933
  0
LINE
  8
0
 10
37.5005
 20
27.9933
 11
38.0846
 21
27.9366
  0
LINE
  8
0
 10
38.0846
 20
27.9366
 11
38.6453
 21
27.7658
  0
LINE
  8
0
 10
38.6453
 20
27.7658
 11
39.1635
 21
27.4893
  0
LINE
  8
0
 10
39.1635
 20
27.4893
 11
39.6176
 21
27.1172
  0
LINE
  8
0
 10
39.6176
 20
27.1172
 11
39.9898
 21
26.6631
  0
LINE
  8
0
 10
39.9898
 20
26.6631
 11
40.2663
 21
26.1449
  0
LINE
  8
0
 10
40.2663
 20
26.1449
 11
40.4361
 21
25.5841
  0
LINE
  8
0
 10
40.4361
 20
25.5841
 11
40.4942
 21
25
  0
LINE
  8
0
 10
40.4942
 20
25
 11
40.437
 21
24.4159
  0
LINE
  8
0
 10
40.437
 20
24.4159
 11
40.2663
 21
23.8551
  0
LINE
  8
0
 10
40.2663
 20
23.8551
 11
39.9893
 21
23.3365
  0
LINE
  8
0
 10
39.9893
 20
23.3365
 11
39.6172
 21
22.8824
  0
LINE
  8
0
 10
39.6172
 20
22.8824
 11
39.3082
 21
22.6292
  0
LINE
  8
0
 10
39.3082
 20
22.6292
 11
37.5
 21
19.0138
  0
LINE
  8
0
 10
37.5
 20
19.0138
 11
35.6918
 21
22.6292
  0
LINE
  8
0
 10
-54.3082
 20
22.6292
 11
-54.6176
 21
22.8833
  0
LINE
  8
0
 10
-54.6176
 20
22.8833
 11
-54.8536
 21
23.1713
  0
LINE
  8
0
 10
-54.8536
 20
23.1713
 11
-53.3298
 21
27.8612
  0
LINE
  8
0
 10
-53.3298
 20
27.8612
 11
-53.0841
 21
27.9356
  0
LINE
  8
0
 10
-53.0841
 20
27.9356
 11
-52.4995
 21
27.9933
  0
LINE
  8
0
 10
-52.4995
 20
27.9933
 11
-51.9154
 21
27.9366
  0
LINE
  8
0
 10
-51.9154
 20
27.9366
 11
-51.3547
 21
27.7658
  0
LINE
  8
0
 10
-51.3547
 20
27.7658
 11
-50.8365
 21
27.4893
  0
LINE
  8
0
 10
-50.8365
 20
27.4893
 11
-50.3824
 21
27.1172
  0
LINE
  8
0
 10
-50.3824
 20
27.1172
 11
-50.0102
 21
26.6631
  0
LINE
  8
0
 10
-50.0102
 20
26.6631
 11
-49.7337
 21
26.1449
  0
LINE
  8
0
 10
-49.7337
 20
26.1449
 11
-49.5639
 21
25.5841
  0
LINE
  8
0
 10
-49.5639
 20
25.5841
 11
-49.5058
 21
25
  0
LINE
  8
0
 10
-49.5058
 20
25
 11
-49.563
 21
24.4159
  0
LINE
  8
0
 10
-49.563
 20
24.4159
 11
-49.7337
 21
23.8551
  0
LINE
  8
0
 10
-49.7337
 20
23.8551
 11
-50.0107
 21
23.3365
  0
LINE
  8
0
 10
-50.0107
 20
23.3365
 11
-50.3828
 21
22.8824
  0
LINE
  8
0
 10
-50.3828
 20
22.8824
 11
-50.6918
 21
22.6292
  0
LINE
  8
0
 10
-50.6918
 20
22.6292
 11
-52.5
 21
19.0138
  0
LINE
  8
0
 10
-52.5
 20
19.0138
 11
-54.3082
 21
22.6292
  0
LINE
  8
0
 10
44.4159
 20
14.5634
 11
43.8551
 21
14.7342
  0
LINE
  8
0
 10
43.8551
 20
14.7342
 11
43.3365
 21
15.0111
  0
LINE
  8
0
 10
43.3365
 20
15.0111
 11
42.8824
 21
15.3833
  0
LINE
  8
0
 10
42.8824
 20
15.3833
 11
42.5102
 21
15.8374
  0
LINE
  8
0
 10
42.5102
 20
15.8374
 11
42.2342
 21
16.3551
  0
LINE
  8
0
 10
42.2342
 20
16.3551
 11
42.0644
 21
16.9159
  0
LINE
  8
0
 10
42.0644
 20
16.9159
 11
42.0067
 21
17.5009
  0
LINE
  8
0
 10
42.0067
 20
17.5009
 11
42.0634
 21
18.0846
  0
LINE
  8
0
 10
42.0634
 20
18.0846
 11
42.2342
 21
18.6453
  0
LINE
  8
0
 10
42.2342
 20
18.6453
 11
42.5102
 21
19.1631
  0
LINE
  8
0
 10
42.5102
 20
19.1631
 11
42.8824
 21
19.6172
  0
LINE
  8
0
 10
42.8824
 20
19.6172
 11
43.3365
 21
19.9893
  0
LINE
  8
0
 10
43.3365
 20
19.9893
 11
43.8551
 21
20.2663
  0
LINE
  8
0
 10
43.8551
 20
20.2663
 11
44.4159
 21
20.4361
  0
LINE
  8
0
 10
44.4159
 20
20.4361
 11
45
 21
20.4942
  0
LINE
  8
0
 10
45
 20
20.4942
 11
45.5841
 21
20.437
  0
LINE
  8
0
 10
45.5841
 20
20.437
 11
46.1449
 21
20.2663
  0
LINE
  8
0
 10
46.1449
 20
20.2663
 11
46.6635
 21
19.9893
  0
LINE
  8
0
 10
46.6635
 20
19.9893
 11
47.1176
 21
19.6172
  0
LINE
  8
0
 10
47.1176
 20
19.6172
 11
47.3708
 21
19.3082
  0
LINE
  8
0
 10
47.3708
 20
19.3082
 11
50.9862
 21
17.5
  0
LINE
  8
0
 10
50.9862
 20
17.5
 11
47.3708
 21
15.6918
  0
LINE
  8
0
 10
47.3708
 20
15.6918
 11
47.1167
 21
15.3824
  0
LINE
  8
0
 10
47.1167
 20
15.3824
 11
46.6631
 21
15.0107
  0
LINE
  8
0
 10
46.6631
 20
15.0107
 11
46.1449
 21
14.7342
  0
LINE
  8
0
 10
46.1449
 20
14.7342
 11
45.5841
 21
14.5644
  0
LINE
  8
0
 10
45.5841
 20
14.5644
 11
45
 21
14.5062
  0
LINE
  8
0
 10
45
 20
14.5062
 11
44.4159
 21
14.5634
  0
LINE
  8
0
 10
14.4159
 20
14.5634
 11
13.8551
 21
14.7342
  0
LINE
  8
0
 10
13.8551
 20
14.7342
 11
13.3365
 21
15.0111
  0
LINE
  8
0
 10
13.3365
 20
15.0111
 11
12.8824
 21
15.3833
  0
LINE
  8
0
 10
12.8824
 20
15.3833
 11
12.5102
 21
15.8374
  0
LINE
  8
0
 10
12.5102
 20
15.8374
 11
12.2342
 21
16.3551
  0
LINE
  8
0
 10
12.2342
 20
16.3551
 11
12.0644
 21
16.9159
  0
LINE
  8
0
 10
12.0644
 20
16.9159
 11
12.0067
 21
17.5009
  0
LINE
  8
0
 10
12.0067
 20
17.5009
 11
12.0634
 21
18.0846
  0
LINE
  8
0
 10
12.0634
 20
18.0846
 11
12.2342
 21
18.6453
  0
LINE
  8
0
 10
12.2342
 20
18.6453
 11
12.5102
 21
19.1631
  0
LINE
  8
0
 10
12.5102
 20
19.1631
 11
12.8824
 21
19.6172
  0
LINE
  8
0
 10
12.8824
 20
19.6172
 11
13.3365
 21
19.9893
  0
LINE
  8
0
 10
13.3365
 20
19.9893
 11
13.8551
 21
20.2663
  0
LINE
  8
0
 10
13.8551
 20
20.2663
 11
14.4159
 21
20.4361
  0
LINE
  8
0
 10
14.4159
 20
20.4361
 11
15
 21
20.4942
  0
LINE
  8
0
 10
15
 20
20.4942
 11
15.5841
 21
20.437
  0
LINE
  8
0
 10
15.5841
 20
20.437
 11
16.1449
 21
20.2663
  0
LINE
  8
0
 10
16.1449
 20
20.2663
 11
16.6635
 21
19.9893
  0
LINE
  8
0
 10
16.6635
 20
19.9893
 11
17.1176
 21
19.6172
  0
LINE
  8
0
 10
17.1176
 20
19.6172
 11
17.3708
 21
19.3082
  0
LINE
  8
0
 10
17.3708
 20
19.3082
 11
20.9862
 21
17.5
  0
LINE
  8
0
 10
20.9862
 20
17.5
 11
17.3708
 21
15.6918
  0
LINE
  8
0
 10
17.3708
 20
15.6918
 11
17.1167
 21
15.3824
  0
LINE
  8
0
 10
17.1167
 20
15.3824
 11
16.6631
 21
15.0107
  0
LINE
  8
0
 10
16.6631
 20
15.0107
 11
16.1449
 21
14.7342
  0
LINE
  8
0
 10
16.1449
 20
14.7342
 11
15.5841
 21
14.5644
  0
LINE
  8
0
 10
15.5841
 20
14.5644
 11
15
 21
14.5062
  0
LINE
  8
0
 10
15
 20
14.5062
 11
14.4159
 21
14.5634
  0
LINE
  8
0
 10
-45.5841
 20
14.5634
 11
-46.1449
 21
14.7342
  0
LINE
  8
0
 10
-46.1449
 20
14.7342
 11
-46.6635
 21
15.0111
  0
LINE
  8
0
 10
-46.6635
 20
15.0111
 11
-47.1176
 21
15.3833
  0
LINE
  8
0
 10
-47.1176
 20
15.3833
 11
-47.4898
 21
15.8374
  0
LINE
  8
0
 10
-47.4898
 20
15.8374
 11
-47.7658
 21
16.3551
  0
LINE
  8
0
 10
-47.7658
 20
16.3551
 11
-47.9356
 21
16.9159
  0
LINE
  8
0
 10
-47.9356
 20
16.9159
 11
-47.9933
 21
17.5009
  0
LINE
  8
0
 10
-47.9933
 20
17.5009
 11
-47.9366
 21
18.0846
  0
LINE
  8
0
 10
-47.9366
 20
18.0846
 11
-47.7658
 21
18.6453
  0
LINE
  8
0
 10
-47.7658
 20
18.6453
 11
-47.4898
 21
19.1631
  0
LINE
  8
0
 10
-47.4898
 20
19.1631
 11
-47.1176
 21
19.6172
  0
LINE
  8
0
 10
-47.1176
 20
19.6172
 11
-46.6635
 21
19.9893
  0
LINE
  8
0
 10
-46.6635
 20
19.9893
 11
-46.1449
 21
20.2663
  0
LINE
  8
0
 10
-46.1449
 20
20.2663
 11
-45.5841
 21
20.4361
  0
LINE
  8
0
 10
-45.5841
 20
20.4361
 11
-45
 21
20.4942
  0
LINE
  8
0
 10
-45
 20
20.4942
 11
-44.4159
 21
20.437
  0
LINE
  8
0
 10
-44.4159
 20
20.437
 11
-43.8551
 21
20.2663
  0
LINE
  8
0
 10
-43.8551
 20
20.2663
 11
-43.3365
 21
19.9893
  0
LINE
  8
0
 10
-43.3365
 20
19.9893
 11
-42.8824
 21
19.6172
  0
LINE
  8
0
 10
-42.8824
 20
19.6172
 11
-42.6292
 21
19.3082
  0
LINE
  8
0
 10
-42.6292
 20
19.3082
 11
-39.0138
 21
17.5
  0
LINE
  8
0
 10
-39.0138
 20
17.5
 11
-42.6292
 21
15.6918
  0
LINE
  8
0
 10
-42.6292
 20
15.6918
 11
-42.8833
 21
15.3824
  0
LINE
  8
0
 10
-42.8833
 20
15.3824
 11
-43.3369
 21
15.0107
  0
LINE
  8
0
 10
-43.3369
 20
15.0107
 11
-43.8551
 21
14.7342
  0
LINE
  8
0
 10
-43.8551
 20
14.7342
 11
-44.4159
 21
14.5644
  0
LINE
  8
0
 10
-44.4159
 20
14.5644
 11
-45
 21
14.5062
  0
LINE
  8
0
 10
-45
 20
14.5062
 11
-45.5841
 21
14.5634
  0
LINE
  8
0
 10
-15.5841
 20
14.5634
 11
-16.1449
 21
14.7342
  0
LINE
  8
0
 10
-16.1449
 20
14.7342
 11
-16.6635
 21
15.0111
  0
LINE
  8
0
 10
-16.6635
 20
15.0111
 11
-17.1176
 21
15.3833
  0
LINE
  8
0
 10
-17.1176
 20
15.3833
 11
-17.4898
 21
15.8374
  0
LINE
  8
0
 10
-17.4898
 20
15.8374
 11
-17.7658
 21
16.3551
  0
LINE
  8
0
 10
-17.7658
 20
16.3551
 11
-17.9356
 21
16.9159
  0
LINE
  8
0
 10
-17.9356
 20
16.9159
 11
-17.9933
 21
17.5009
  0
LINE
  8
0
 10
-17.9933
 20
17.5009
 11
-17.9366
 21
18.0846
  0
LINE
  8
0
 10
-17.9366
 20
18.0846
 11
-17.7658
 21
18.6453
  0
LINE
  8
0
 10
-17.7658
 20
18.6453
 11
-17.4898
 21
19.1631
  0
LINE
  8
0
 10
-17.4898
 20
19.1631
 11
-17.1176
 21
19.6172
  0
LINE
  8
0
 10
-17.1176
 20
19.6172
 11
-16.6635
 21
19.9893
  0
LINE
  8
0
 10
-16.6635
 20
19.9893
 11
-16.1449
 21
20.2663
  0
LINE
  8
0
 10
-16.1449
 20
20.2663
 11
-15.5841
 21
20.4361
  0
LINE
  8
0
 10
-15.5841
 20
20.4361
 11
-15
 21
20.4942
  0
LINE
  8
0
 10
-15
 20
20.4942
 11
-14.4159
 21
20.437
  0
LINE
  8
0
 10
-14.4159
 20
20.437
 11
-13.8551
 21
20.2663
  0
LINE
  8
0
 10
-13.8551
 20
20.2663
 11
-13.3365
 21
19.9893
  0
LINE
  8
0
 10
-13.3365
 20
19.9893
 11
-12.8824
 21
19.6172
  0
LINE
  8
0
 10
-12.8824
 20
19.6172
 11
-12.6292
 21
19.3082
  0
LINE
  8
0
 10
-12.6292
 20
19.3082
 11
-9.01382
 21
17.5
  0
LINE
  8
0
 10
-9.01382
 20
17.5
 11
-12.6292
 21
15.6918
  0
LINE
  8
0
 10
-12.6292
 20
15.6918
 11
-12.8833
 21
15.3824
  0
LINE
  8
0
 10
-12.8833
 20
15.3824
 11
-13.3369
 21
15.0107
  0
LINE
  8
0
 10
-13.3369
 20
15.0107
 11
-13.8551
 21
14.7342
  0
LINE
  8
0
 10
-13.8551
 20
14.7342
 11
-14.4159
 21
14.5644
  0
LINE
  8
0
 10
-14.4159
 20
14.5644
 11
-15
 21
14.5062
  0
LINE
  8
0
 10
-15
 20
14.5062
 11
-15.5841
 21
14.5634
  0
LINE
  8
0
 10
-30.5841
 20
14.563
 11
-31.1449
 21
14.7337
  0
LINE
  8
0
 10
-31.1449
 20
14.7337
 11
-31.6631
 21
15.0102
  0
LINE
  8
0
 10
-31.6631
 20
15.0102
 11
-32.1172
 21
15.3824
  0
LINE
  8
0
 10
-32.1172
 20
15.3824
 11
-32.4893
 21
15.8365
  0
LINE
  8
0
 10
-32.4893
 20
15.8365
 11
-32.7658
 21
16.3547
  0
LINE
  8
0
 10
-32.7658
 20
16.3547
 11
-32.9356
 21
16.9154
  0
LINE
  8
0
 10
-32.9356
 20
16.9154
 11
-32.9933
 21
17.5005
  0
LINE
  8
0
 10
-32.9933
 20
17.5005
 11
-32.9366
 21
18.0841
  0
LINE
  8
0
 10
-32.9366
 20
18.0841
 11
-32.7658
 21
18.6449
  0
LINE
  8
0
 10
-32.7658
 20
18.6449
 11
-32.4893
 21
19.1631
  0
LINE
  8
0
 10
-32.4893
 20
19.1631
 11
-32.1172
 21
19.6172
  0
LINE
  8
0
 10
-32.1172
 20
19.6172
 11
-31.6631
 21
19.9893
  0
LINE
  8
0
 10
-31.6631
 20
19.9893
 11
-31.1449
 21
20.2658
  0
LINE
  8
0
 10
-31.1449
 20
20.2658
 11
-30.5841
 21
20.4356
  0
LINE
  8
0
 10
-30.5841
 20
20.4356
 11
-30
 21
20.4938
  0
LINE
  8
0
 10
-30
 20
20.4938
 11
-29.4159
 21
20.4366
  0
LINE
  8
0
 10
-29.4159
 20
20.4366
 11
-28.8551
 21
20.2658
  0
LINE
  8
0
 10
-28.8551
 20
20.2658
 11
-28.3365
 21
19.9889
  0
LINE
  8
0
 10
-28.3365
 20
19.9889
 11
-27.8824
 21
19.6167
  0
LINE
  8
0
 10
-27.8824
 20
19.6167
 11
-27.6292
 21
19.3082
  0
LINE
  8
0
 10
-27.6292
 20
19.3082
 11
-24.0138
 21
17.5
  0
LINE
  8
0
 10
-24.0138
 20
17.5
 11
-27.6292
 21
15.6918
  0
LINE
  8
0
 10
-27.6292
 20
15.6918
 11
-27.8833
 21
15.3819
  0
LINE
  8
0
 10
-27.8833
 20
15.3819
 11
-28.3365
 21
15.0107
  0
LINE
  8
0
 10
-28.3365
 20
15.0107
 11
-28.8551
 21
14.7337
  0
LINE
  8
0
 10
-28.8551
 20
14.7337
 11
-29.4159
 21
14.5639
  0
LINE
  8
0
 10
-29.4159
 20
14.5639
 11
-30
 21
14.5058
  0
LINE
  8
0
 10
-30
 20
14.5058
 11
-30.5841
 21
14.563
  0
LINE
  8
0
 10
29.4159
 20
14.563
 11
28.8551
 21
14.7337
  0
LINE
  8
0
 10
28.8551
 20
14.7337
 11
28.3369
 21
15.0102
  0
LINE
  8
0
 10
28.3369
 20
15.0102
 11
27.8828
 21
15.3824
  0
LINE
  8
0
 10
27.8828
 20
15.3824
 11
27.5107
 21
15.8365
  0
LINE
  8
0
 10
27.5107
 20
15.8365
 11
27.2342
 21
16.3547
  0
LINE
  8
0
 10
27.2342
 20
16.3547
 11
27.0644
 21
16.9154
  0
LINE
  8
0
 10
27.0644
 20
16.9154
 11
27.0067
 21
17.5005
  0
LINE
  8
0
 10
27.0067
 20
17.5005
 11
27.0634
 21
18.0841
  0
LINE
  8
0
 10
27.0634
 20
18.0841
 11
27.2342
 21
18.6449
  0
LINE
  8
0
 10
27.2342
 20
18.6449
 11
27.5107
 21
19.1631
  0
LINE
  8
0
 10
27.5107
 20
19.1631
 11
27.8828
 21
19.6172
  0
LINE
  8
0
 10
27.8828
 20
19.6172
 11
28.3369
 21
19.9893
  0
LINE
  8
0
 10
28.3369
 20
19.9893
 11
28.8551
 21
20.2658
  0
LINE
  8
0
 10
28.8551
 20
20.2658
 11
29.4159
 21
20.4356
  0
LINE
  8
0
 10
29.4159
 20
20.4356
 11
30
 21
20.4938
  0
LINE
  8
0
 10
30
 20
20.4938
 11
30.5841
 21
20.4366
  0
LINE
  8
0
 10
30.5841
 20
20.4366
 11
31.1449
 21
20.2658
  0
LINE
  8
0
 10
31.1449
 20
20.2658
 11
31.6635
 21
19.9889
  0
LINE
  8
0
 10
31.6635
 20
19.9889
 11
32.1176
 21
19.6167
  0
LINE
  8
0
 10
32.1176
 20
19.6167
 11
32.3708
 21
19.3082
  0
LINE
  8
0
 10
32.3708
 20
19.3082
 11
35.9862
 21
17.5
  0
LINE
  8
0
 10
35.9862
 20
17.5
 11
32.3708
 21
15.6918
  0
LINE
  8
0
 10
32.3708
 20
15.6918
 11
32.1167
 21
15.3819
  0
LINE
  8
0
 10
32.1167
 20
15.3819
 11
31.6635
 21
15.0107
  0
LINE
  8
0
 10
31.6635
 20
15.0107
 11
31.1449
 21
14.7337
  0
LINE
  8
0
 10
31.1449
 20
14.7337
 11
30.5841
 21
14.5639
  0
LINE
  8
0
 10
30.5841
 20
14.5639
 11
30
 21
14.5058
  0
LINE
  8
0
 10
30
 20
14.5058
 11
29.4159
 21
14.563
  0
LINE
  8
0
 10
-0.584106
 20
14.563
 11
-1.14487
 21
14.7337
  0
LINE
  8
0
 10
-1.14487
 20
14.7337
 11
-1.66306
 21
15.0102
  0
LINE
  8
0
 10
-1.66306
 20
15.0102
 11
-2.11716
 21
15.3824
  0
LINE
  8
0
 10
-2.11716
 20
15.3824
 11
-2.48932
 21
15.8365
  0
LINE
  8
0
 10
-2.48932
 20
15.8365
 11
-2.76581
 21
16.3547
  0
LINE
  8
0
 10
-2.76581
 20
16.3547
 11
-2.93564
 21
16.9154
  0
LINE
  8
0
 10
-2.93564
 20
16.9154
 11
-2.99332
 21
17.5005
  0
LINE
  8
0
 10
-2.99332
 20
17.5005
 11
-2.93655
 21
18.0841
  0
LINE
  8
0
 10
-2.93655
 20
18.0841
 11
-2.76581
 21
18.6449
  0
LINE
  8
0
 10
-2.76581
 20
18.6449
 11
-2.48932
 21
19.1631
  0
LINE
  8
0
 10
-2.48932
 20
19.1631
 11
-2.11716
 21
19.6172
  0
LINE
  8
0
 10
-2.11716
 20
19.6172
 11
-1.66306
 21
19.9893
  0
LINE
  8
0
 10
-1.66306
 20
19.9893
 11
-1.14487
 21
20.2658
  0
LINE
  8
0
 10
-1.14487
 20
20.2658
 11
-0.584106
 21
20.4356
  0
LINE
  8
0
 10
-0.584106
 20
20.4356
 11
0
 21
20.4938
  0
LINE
  8
0
 10
0
 20
20.4938
 11
0.584106
 21
20.4366
  0
LINE
  8
0
 10
0.584106
 20
20.4366
 11
1.14487
 21
20.2658
  0
LINE
  8
0
 10
1.14487
 20
20.2658
 11
1.66351
 21
19.9889
  0
LINE
  8
0
 10
1.66351
 20
19.9889
 11
2.11761
 21
19.6167
  0
LINE
  8
0
 10
2.11761
 20
19.6167
 11
2.37076
 21
19.3082
  0
LINE
  8
0
 10
2.37076
 20
19.3082
 11
5.98618
 21
17.5
  0
LINE
  8
0
 10
5.98618
 20
17.5
 11
2.37076
 21
15.6918
  0
LINE
  8
0
 10
2.37076
 20
15.6918
 11
2.1167
 21
15.3819
  0
LINE
  8
0
 10
2.1167
 20
15.3819
 11
1.66351
 21
15.0107
  0
LINE
  8
0
 10
1.66351
 20
15.0107
 11
1.14487
 21
14.7337
  0
LINE
  8
0
 10
1.14487
 20
14.7337
 11
0.584106
 21
14.5639
  0
LINE
  8
0
 10
0.584106
 20
14.5639
 11
0
 21
14.5058
  0
LINE
  8
0
 10
0
 20
14.5058
 11
-0.584106
 21
14.563
  0
LINE
  8
0
 10
-56.3214
 20
18.6541
 11
-54.0138
 21
17.5
  0
LINE
  8
0
 10
-54.0138
 20
17.5
 11
-57.2169
 21
15.8981
  0
LINE
  8
0
 10
-57.2169
 20
15.8981
 11
-56.3214
 21
18.6541
  0
LINE
  8
0
 10
-39.7132
 20
12
 11
-39.6172
 21
12.1172
  0
LINE
  8
0
 10
-39.6172
 20
12.1172
 11
-39.3082
 21
12.3708
  0
LINE
  8
0
 10
-39.3082
 20
12.3708
 11
-37.5
 21
15.9862
  0
LINE
  8
0
 10
-37.5
 20
15.9862
 11
-35.6918
 21
12.3708
  0
LINE
  8
0
 10
-35.6918
 20
12.3708
 11
-35.3819
 21
12.1167
  0
LINE
  8
0
 10
-35.3819
 20
12.1167
 11
-35.2863
 21
12
  0
LINE
  8
0
 10
-35.2863
 20
12
 11
-39.7132
 21
12
  0
LINE
  8
0
 10
20.2868
 20
12
 11
20.3828
 21
12.1172
  0
LINE
  8
0
 10
20.3828
 20
12.1172
 11
20.6918
 21
12.3708
  0
LINE
  8
0
 10
20.6918
 20
12.3708
 11
22.5
 21
15.9862
  0
LINE
  8
0
 10
22.5
 20
15.9862
 11
24.3082
 21
12.3708
  0
LINE
  8
0
 10
24.3082
 20
12.3708
 11
24.6181
 21
12.1167
  0
LINE
  8
0
 10
24.6181
 20
12.1167
 11
24.7137
 21
12
  0
LINE
  8
0
 10
24.7137
 20
12
 11
20.2868
 21
12
  0
LINE
  8
0
 10
50.2868
 20
12
 11
50.3828
 21
12.1172
  0
LINE
  8
0
 10
50.3828
 20
12.1172
 11
50.6918
 21
12.3708
  0
LINE
  8
0
 10
50.6918
 20
12.3708
 11
52.5
 21
15.9862
  0
LINE
  8
0
 10
52.5
 20
15.9862
 11
54.3082
 21
12.3708
  0
LINE
  8
0
 10
54.3082
 20
12.3708
 11
54.6181
 21
12.1167
  0
LINE
  8
0
 10
54.6181
 20
12.1167
 11
54.7137
 21
12
  0
LINE
  8
0
 10
54.7137
 20
12
 11
50.2868
 21
12
  0
LINE
  8
0
 10
-9.71318
 20
12
 11
-9.61716
 21
12.1172
  0
LINE
  8
0
 10
-9.61716
 20
12.1172
 11
-9.30817
 21
12.3708
  0
LINE
  8
0
 10
-9.30817
 20
12.3708
 11
-7.5
 21
15.9862
  0
LINE
  8
0
 10
-7.5
 20
15.9862
 11
-5.69183
 21
12.3708
  0
LINE
  8
0
 10
-5.69183
 20
12.3708
 11
-5.38193
 21
12.1167
  0
LINE
  8
0
 10
-5.38193
 20
12.1167
 11
-5.2863
 21
12
  0
LINE
  8
0
 10
-5.2863
 20
12
 11
-9.71318
 21
12
  0
LINE
  8
0
 10
-24.7137
 20
12
 11
-24.6181
 21
12.1167
  0
LINE
  8
0
 10
-24.6181
 20
12.1167
 11
-24.164
 21
12.4889
  0
LINE
  8
0
 10
-24.164
 20
12.4889
 11
-23.6453
 21
12.7658
  0
LINE
  8
0
 10
-23.6453
 20
12.7658
 11
-23.0846
 21
12.9356
  0
LINE
  8
0
 10
-23.0846
 20
12.9356
 11
-22.5
 21
12.9933
  0
LINE
  8
0
 10
-22.5
 20
12.9933
 11
-21.9159
 21
12.9366
  0
LINE
  8
0
 10
-21.9159
 20
12.9366
 11
-21.3551
 21
12.7658
  0
LINE
  8
0
 10
-21.3551
 20
12.7658
 11
-20.8365
 21
12.4889
  0
LINE
  8
0
 10
-20.8365
 20
12.4889
 11
-20.3824
 21
12.1167
  0
LINE
  8
0
 10
-20.3824
 20
12.1167
 11
-20.2867
 21
12
  0
LINE
  8
0
 10
-20.2867
 20
12
 11
-24.7137
 21
12
  0
LINE
  8
0
 10
5.28629
 20
12
 11
5.38193
 21
12.1167
  0
LINE
  8
0
 10
5.38193
 20
12.1167
 11
5.83603
 21
12.4889
  0
LINE
  8
0
 10
5.83603
 20
12.4889
 11
6.35468
 21
12.7658
  0
LINE
  8
0
 10
6.35468
 20
12.7658
 11
6.91544
 21
12.9356
  0
LINE
  8
0
 10
6.91544
 20
12.9356
 11
7.5
 21
12.9933
  0
LINE
  8
0
 10
7.5
 20
12.9933
 11
8.08411
 21
12.9366
  0
LINE
  8
0
 10
8.08411
 20
12.9366
 11
8.64487
 21
12.7658
  0
LINE
  8
0
 10
8.64487
 20
12.7658
 11
9.16351
 21
12.4889
  0
LINE
  8
0
 10
9.16351
 20
12.4889
 11
9.61761
 21
12.1167
  0
LINE
  8
0
 10
9.61761
 20
12.1167
 11
9.71326
 21
12
  0
LINE
  8
0
 10
9.71326
 20
12
 11
5.28629
 21
12
  0
LINE
  8
0
 10
-54.7137
 20
12
 11
-54.6181
 21
12.1167
  0
LINE
  8
0
 10
-54.6181
 20
12.1167
 11
-54.164
 21
12.4889
  0
LINE
  8
0
 10
-54.164
 20
12.4889
 11
-53.6453
 21
12.7658
  0
LINE
  8
0
 10
-53.6453
 20
12.7658
 11
-53.0846
 21
12.9356
  0
LINE
  8
0
 10
-53.0846
 20
12.9356
 11
-52.5
 21
12.9933
  0
LINE
  8
0
 10
-52.5
 20
12.9933
 11
-51.9159
 21
12.9366
  0
LINE
  8
0
 10
-51.9159
 20
12.9366
 11
-51.3551
 21
12.7658
  0
LINE
  8
0
 10
-51.3551
 20
12.7658
 11
-50.8365
 21
12.4889
  0
LINE
  8
0
 10
-50.8365
 20
12.4889
 11
-50.3824
 21
12.1167
  0
LINE
  8
0
 10
-50.3824
 20
12.1167
 11
-50.2867
 21
12
  0
LINE
  8
0
 10
-50.2867
 20
12
 11
-54.7137
 21
12
  0
LINE
  8
0
 10
35.2863
 20
12
 11
35.3819
 21
12.1167
  0
LINE
  8
0
 10
35.3819
 20
12.1167
 11
35.836
 21
12.4889
  0
LINE
  8
0
 10
35.836
 20
12.4889
 11
36.3547
 21
12.7658
  0
LINE
  8
0
 10
36.3547
 20
12.7658
 11
36.9154
 21
12.9356
  0
LINE
  8
0
 10
36.9154
 20
12.9356
 11
37.5
 21
12.9933
  0
LINE
  8
0
 10
37.5
 20
12.9933
 11
38.0841
 21
12.9366
  0
LINE
  8
0
 10
38.0841
 20
12.9366
 11
38.6449
 21
12.7658
  0
LINE
  8
0
 10
38.6449
 20
12.7658
 11
39.1635
 21
12.4889
  0
LINE
  8
0
 10
39.1635
 20
12.4889
 11
39.6176
 21
12.1167
  0
LINE
  8
0
 10
39.6176
 20
12.1167
 11
39.7133
 21
12
  0
LINE
  8
0
 10
39.7133
 20
12
 11
35.2863
 21
12
  0
LINE
  8
0
 10
-10
 20
7
 11
-10
 21
11
  0
LINE
  8
0
 10
-10
 20
11
 11
10
 21
11
  0
LINE
  8
0
 10
10
 20
11
 11
10
 21
7
  0
LINE
  8
0
 10
10
 20
7
 11
-10
 21
7
  0
LINE
  8
0
 10
-68.6534
 20
2.70622
 11
-68.7785
 21
2.71805
  0
LINE
  8
0
 10
-68.7785
 20
2.71805
 11
-68.9026
 21
2.7377
  0
LINE
  8
0
 10
-68.9026
 20
2.7377
 11
-69.0252
 21
2.76511
  0
LINE
  8
0
 10
-69.0252
 20
2.76511
 11
-69.1459
 21
2.80016
  0
LINE
  8
0
 10
-69.1459
 20
2.80016
 11
-69.2641
 21
2.84273
  0
LINE
  8
0
 10
-69.2641
 20
2.84273
 11
-69.3794
 21
2.89262
  0
LINE
  8
0
 10
-69.3794
 20
2.89262
 11
-69.4914
 21
2.94966
  0
LINE
  8
0
 10
-69.4914
 20
2.94966
 11
-69.5995
 21
3.01363
  0
LINE
  8
0
 10
-69.5995
 20
3.01363
 11
-69.7034
 21
3.08424
  0
LINE
  8
0
 10
-69.7034
 20
3.08424
 11
-69.8027
 21
3.16125
  0
LINE
  8
0
 10
-69.8027
 20
3.16125
 11
-69.897
 21
3.24434
  0
LINE
  8
0
 10
-69.897
 20
3.24434
 11
-69.9858
 21
3.33318
  0
LINE
  8
0
 10
-69.9858
 20
3.33318
 11
-70.0689
 21
3.42743
  0
LINE
  8
0
 10
-70.0689
 20
3.42743
 11
-70.1459
 21
3.5267
  0
LINE
  8
0
 10
-70.1459
 20
3.5267
 11
-70.2165
 21
3.63062
  0
LINE
  8
0
 10
-70.2165
 20
3.63062
 11
-70.2805
 21
3.73877
  0
LINE
  8
0
 10
-70.2805
 20
3.73877
 11
-70.3375
 21
3.85072
  0
LINE
  8
0
 10
-70.3375
 20
3.85072
 11
-70.3874
 21
3.96602
  0
LINE
  8
0
 10
-70.3874
 20
3.96602
 11
-70.43
 21
4.08424
  0
LINE
  8
0
 10
-70.43
 20
4.08424
 11
-70.465
 21
4.2049
  0
LINE
  8
0
 10
-70.465
 20
4.2049
 11
-70.4924
 21
4.32751
  0
LINE
  8
0
 10
-70.4924
 20
4.32751
 11
-70.5121
 21
4.45161
  0
LINE
  8
0
 10
-70.5121
 20
4.45161
 11
-70.5239
 21
4.57669
  0
LINE
  8
0
 10
-70.5239
 20
4.57669
 11
-70.5279
 21
4.70227
  0
LINE
  8
0
 10
-70.5279
 20
4.70227
 11
-70.5239
 21
4.82785
  0
LINE
  8
0
 10
-70.5239
 20
4.82785
 11
-70.5121
 21
4.95294
  0
LINE
  8
0
 10
-70.5121
 20
4.95294
 11
-70.4924
 21
5.07704
  0
LINE
  8
0
 10
-70.4924
 20
5.07704
 11
-70.465
 21
5.19966
  0
LINE
  8
0
 10
-70.465
 20
5.19966
 11
-70.43
 21
5.32031
  0
LINE
  8
0
 10
-70.43
 20
5.32031
 11
-70.3874
 21
5.43852
  0
LINE
  8
0
 10
-70.3874
 20
5.43852
 11
-70.3375
 21
5.55383
  0
LINE
  8
0
 10
-70.3375
 20
5.55383
 11
-70.2805
 21
5.66579
  0
LINE
  8
0
 10
-70.2805
 20
5.66579
 11
-70.2165
 21
5.77393
  0
LINE
  8
0
 10
-70.2165
 20
5.77393
 11
-70.1459
 21
5.87784
  0
LINE
  8
0
 10
-70.1459
 20
5.87784
 11
-70.0689
 21
5.97713
  0
LINE
  8
0
 10
-70.0689
 20
5.97713
 11
-69.9858
 21
6.07137
  0
LINE
  8
0
 10
-69.9858
 20
6.07137
 11
-69.897
 21
6.16022
  0
LINE
  8
0
 10
-69.897
 20
6.16022
 11
-69.8027
 21
6.2433
  0
LINE
  8
0
 10
-69.8027
 20
6.2433
 11
-69.7034
 21
6.32031
  0
LINE
  8
0
 10
-69.7034
 20
6.32031
 11
-69.5995
 21
6.39093
  0
LINE
  8
0
 10
-69.5995
 20
6.39093
 11
-69.4914
 21
6.4549
  0
LINE
  8
0
 10
-69.4914
 20
6.4549
 11
-69.3794
 21
6.51193
  0
LINE
  8
0
 10
-69.3794
 20
6.51193
 11
-69.2641
 21
6.56183
  0
LINE
  8
0
 10
-69.2641
 20
6.56183
 11
-69.1459
 21
6.60439
  0
LINE
  8
0
 10
-69.1459
 20
6.60439
 11
-69.0252
 21
6.63943
  0
LINE
  8
0
 10
-69.0252
 20
6.63943
 11
-68.9026
 21
6.66685
  0
LINE
  8
0
 10
-68.9026
 20
6.66685
 11
-68.7785
 21
6.68651
  0
LINE
  8
0
 10
-68.7785
 20
6.68651
 11
-68.6534
 21
6.69833
  0
LINE
  8
0
 10
-68.6534
 20
6.69833
 11
-68.5279
 21
6.70227
  0
LINE
  8
0
 10
-68.5279
 20
6.70227
 11
-68.4023
 21
6.69833
  0
LINE
  8
0
 10
-68.4023
 20
6.69833
 11
-68.2772
 21
6.68651
  0
LINE
  8
0
 10
-68.2772
 20
6.68651
 11
-68.1531
 21
6.66685
  0
LINE
  8
0
 10
-68.1531
 20
6.66685
 11
-68.0305
 21
6.63943
  0
LINE
  8
0
 10
-68.0305
 20
6.63943
 11
-67.9098
 21
6.60439
  0
LINE
  8
0
 10
-67.9098
 20
6.60439
 11
-67.7916
 21
6.56183
  0
LINE
  8
0
 10
-67.7916
 20
6.56183
 11
-67.6763
 21
6.51193
  0
LINE
  8
0
 10
-67.6763
 20
6.51193
 11
-67.5643
 21
6.4549
  0
LINE
  8
0
 10
-67.5643
 20
6.4549
 11
-67.4562
 21
6.39093
  0
LINE
  8
0
 10
-67.4562
 20
6.39093
 11
-67.3523
 21
6.32031
  0
LINE
  8
0
 10
-67.3523
 20
6.32031
 11
-67.253
 21
6.2433
  0
LINE
  8
0
 10
-67.253
 20
6.2433
 11
-67.1588
 21
6.16022
  0
LINE
  8
0
 10
-67.1588
 20
6.16022
 11
-67.0699
 21
6.07137
  0
LINE
  8
0
 10
-67.0699
 20
6.07137
 11
-66.9868
 21
5.97713
  0
LINE
  8
0
 10
-66.9868
 20
5.97713
 11
-66.9098
 21
5.87784
  0
LINE
  8
0
 10
-66.9098
 20
5.87784
 11
-66.8392
 21
5.77393
  0
LINE
  8
0
 10
-66.8392
 20
5.77393
 11
-66.7752
 21
5.66579
  0
LINE
  8
0
 10
-66.7752
 20
5.66579
 11
-66.7182
 21
5.55383
  0
LINE
  8
0
 10
-66.7182
 20
5.55383
 11
-66.6683
 21
5.43852
  0
LINE
  8
0
 10
-66.6683
 20
5.43852
 11
-66.6257
 21
5.32031
  0
LINE
  8
0
 10
-66.6257
 20
5.32031
 11
-66.5907
 21
5.19966
  0
LINE
  8
0
 10
-66.5907
 20
5.19966
 11
-66.5633
 21
5.07704
  0
LINE
  8
0
 10
-66.5633
 20
5.07704
 11
-66.5436
 21
4.95294
  0
LINE
  8
0
 10
-66.5436
 20
4.95294
 11
-66.5318
 21
4.82785
  0
LINE
  8
0
 10
-66.5318
 20
4.82785
 11
-66.5279
 21
4.70227
  0
LINE
  8
0
 10
-66.5279
 20
4.70227
 11
-66.5318
 21
4.57669
  0
LINE
  8
0
 10
-66.5318
 20
4.57669
 11
-66.5436
 21
4.45161
  0
LINE
  8
0
 10
-66.5436
 20
4.45161
 11
-66.5633
 21
4.32751
  0
LINE
  8
0
 10
-66.5633
 20
4.32751
 11
-66.5907
 21
4.2049
  0
LINE
  8
0
 10
-66.5907
 20
4.2049
 11
-66.6257
 21
4.08424
  0
LINE
  8
0
 10
-66.6257
 20
4.08424
 11
-66.6683
 21
3.96602
  0
LINE
  8
0
 10
-66.6683
 20
3.96602
 11
-66.7182
 21
3.85072
  0
LINE
  8
0
 10
-66.7182
 20
3.85072
 11
-66.7752
 21
3.73877
  0
LINE
  8
0
 10
-66.7752
 20
3.73877
 11
-66.8392
 21
3.63062
  0
LINE
  8
0
 10
-66.8392
 20
3.63062
 11
-66.9098
 21
3.5267
  0
LINE
  8
0
 10
-66.9098
 20
3.5267
 11
-66.9868
 21
3.42743
  0
LINE
  8
0
 10
-66.9868
 20
3.42743
 11
-67.0699
 21
3.33318
  0
LINE
  8
0
 10
-67.0699
 20
3.33318
 11
-67.1588
 21
3.24434
  0
LINE
  8
0
 10
-67.1588
 20
3.24434
 11
-67.253
 21
3.16125
  0
LINE
  8
0
 10
-67.253
 20
3.16125
 11
-67.3523
 21
3.08424
  0
LINE
  8
0
 10
-67.3523
 20
3.08424
 11
-67.4562
 21
3.01363
  0
LINE
  8
0
 10
-67.4562
 20
3.01363
 11
-67.5643
 21
2.94966
  0
LINE
  8
0
 10
-67.5643
 20
2.94966
 11
-67.6763
 21
2.89262
  0
LINE
  8
0
 10
-67.6763
 20
2.89262
 11
-67.7916
 21
2.84273
  0
LINE
  8
0
 10
-67.7916
 20
2.84273
 11
-67.9098
 21
2.80016
  0
LINE
  8
0
 10
-67.9098
 20
2.80016
 11
-68.0305
 21
2.76511
  0
LINE
  8
0
 10
-68.0305
 20
2.76511
 11
-68.1531
 21
2.7377
  0
LINE
  8
0
 10
-68.1531
 20
2.7377
 11
-68.2772
 21
2.71805
  0
LINE
  8
0
 10
-68.2772
 20
2.71805
 11
-68.4023
 21
2.70622
  0
LINE
  8
0
 10
-68.4023
 20
2.70622
 11
-68.5279
 21
2.70227
  0
LINE
  8
0
 10
-68.5279
 20
2.70227
 11
-68.6534
 21
2.70622
  0
LINE
  8
0
 10
68.4023
 20
2.70622
 11
68.2772
 21
2.71805
  0
LINE
  8
0
 10
68.2772
 20
2.71805
 11
68.1531
 21
2.7377
  0
LINE
  8
0
 10
68.1531
 20
2.7377
 11
68.0305
 21
2.76511
  0
LINE
  8
0
 10
68.0305
 20
2.76511
 11
67.9098
 21
2.80016
  0
LINE
  8
0
 10
67.9098
 20
2.80016
 11
67.7916
 21
2.84273
  0
LINE
  8
0
 10
67.7916
 20
2.84273
 11
67.6763
 21
2.89262
  0
LINE
  8
0
 10
67.6763
 20
2.89262
 11
67.5643
 21
2.94966
  0
LINE
  8
0
 10
67.5643
 20
2.94966
 11
67.4562
 21
3.01363
  0
LINE
  8
0
 10
67.4562
 20
3.01363
 11
67.3523
 21
3.08424
  0
LINE
  8
0
 10
67.3523
 20
3.08424
 11
67.253
 21
3.16125
  0
LINE
  8
0
 10
67.253
 20
3.16125
 11
67.1588
 21
3.24434
  0
LINE
  8
0
 10
67.1588
 20
3.24434
 11
67.0699
 21
3.33318
  0
LINE
  8
0
 10
67.0699
 20
3.33318
 11
66.9868
 21
3.42743
  0
LINE
  8
0
 10
66.9868
 20
3.42743
 11
66.9098
 21
3.5267
  0
LINE
  8
0
 10
66.9098
 20
3.5267
 11
66.8392
 21
3.63062
  0
LINE
  8
0
 10
66.8392
 20
3.63062
 11
66.7752
 21
3.73877
  0
LINE
  8
0
 10
66.7752
 20
3.73877
 11
66.7182
 21
3.85072
  0
LINE
  8
0
 10
66.7182
 20
3.85072
 11
66.6683
 21
3.96602
  0
LINE
  8
0
 10
66.6683
 20
3.96602
 11
66.6257
 21
4.08424
  0
LINE
  8
0
 10
66.6257
 20
4.08424
 11
66.5907
 21
4.2049
  0
LINE
  8
0
 10
66.5907
 20
4.2049
 11
66.5633
 21
4.32751
  0
LINE
  8
0
 10
66.5633
 20
4.32751
 11
66.5436
 21
4.45161
  0
LINE
  8
0
 10
66.5436
 20
4.45161
 11
66.5318
 21
4.57669
  0
LINE
  8
0
 10
66.5318
 20
4.57669
 11
66.5279
 21
4.70227
  0
LINE
  8
0
 10
66.5279
 20
4.70227
 11
66.5318
 21
4.82785
  0
LINE
  8
0
 10
66.5318
 20
4.82785
 11
66.5436
 21
4.95294
  0
LINE
  8
0
 10
66.5436
 20
4.95294
 11
66.5633
 21
5.07704
  0
LINE
  8
0
 10
66.5633
 20
5.07704
 11
66.5907
 21
5.19966
  0
LINE
  8
0
 10
66.5907
 20
5.19966
 11
66.6257
 21
5.32031
  0
LINE
  8
0
 10
66.6257
 20
5.32031
 11
66.6683
 21
5.43852
  0
LINE
  8
0
 10
66.6683
 20
5.43852
 11
66.7182
 21
5.55383
  0
LINE
  8
0
 10
66.7182
 20
5.55383
 11
66.7752
 21
5.66579
  0
LINE
  8
0
 10
66.7752
 20
5.66579
 11
66.8392
 21
5.77393
  0
LINE
  8
0
 10
66.8392
 20
5.77393
 11
66.9098
 21
5.87784
  0
LINE
  8
0
 10
66.9098
 20
5.87784
 11
66.9868
 21
5.97713
  0
LINE
  8
0
 10
66.9868
 20
5.97713
 11
67.0699
 21
6.07137
  0
LINE
  8
0
 10
67.0699
 20
6.07137
 11
67.1588
 21
6.16022
  0
LINE
  8
0
 10
67.1588
 20
6.16022
 11
67.253
 21
6.2433
  0
LINE
  8
0
 10
67.253
 20
6.2433
 11
67.3523
 21
6.32031
  0
LINE
  8
0
 10
67.3523
 20
6.32031
 11
67.4562
 21
6.39093
  0
LINE
  8
0
 10
67.4562
 20
6.39093
 11
67.5643
 21
6.4549
  0
LINE
  8
0
 10
67.5643
 20
6.4549
 11
67.6763
 21
6.51193
  0
LINE
  8
0
 10
67.6763
 20
6.51193
 11
67.7916
 21
6.56183
  0
LINE
  8
0
 10
67.7916
 20
6.56183
 11
67.9098
 21
6.60439
  0
LINE
  8
0
 10
67.9098
 20
6.60439
 11
68.0305
 21
6.63943
  0
LINE
  8
0
 10
68.0305
 20
6.63943
 11
68.1531
 21
6.66685
  0
LINE
  8
0
 10
68.1531
 20
6.66685
 11
68.2772
 21
6.68651
  0
LINE
  8
0
 10
68.2772
 20
6.68651
 11
68.4023
 21
6.69833
  0
LINE
  8
0
 10
68.4023
 20
6.69833
 11
68.5279
 21
6.70227
  0
LINE
  8
0
 10
68.5279
 20
6.70227
 11
68.6534
 21
6.69833
  0
LINE
  8
0
 10
68.6534
 20
6.69833
 11
68.7785
 21
6.68651
  0
LINE
  8
0
 10
68.7785
 20
6.68651
 11
68.9026
 21
6.66685
  0
LINE
  8
0
 10
68.9026
 20
6.66685
 11
69.0252
 21
6.63943
  0
LINE
  8
0
 10
69.0252
 20
6.63943
 11
69.1459
 21
6.60439
  0
LINE
  8
0
 10
69.1459
 20
6.60439
 11
69.2641
 21
6.56183
  0
LINE
  8
0
 10
69.2641
 20
6.56183
 11
69.3794
 21
6.51193
  0
LINE
  8
0
 10
69.3794
 20
6.51193
 11
69.4914
 21
6.4549
  0
LINE
  8
0
 10
69.4914
 20
6.4549
 11
69.5995
 21
6.39093
  0
LINE
  8
0
 10
69.5995
 20
6.39093
 11
69.7034
 21
6.32031
  0
LINE
  8
0
 10
69.7034
 20
6.32031
 11
69.8027
 21
6.2433
  0
LINE
  8
0
 10
69.8027
 20
6.2433
 11
69.897
 21
6.16022
  0
LINE
  8
0
 10
69.897
 20
6.16022
 11
69.9858
 21
6.07137
  0
LINE
  8
0
 10
69.9858
 20
6.07137
 11
70.0689
 21
5.97713
  0
LINE
  8
0
 10
70.0689
 20
5.97713
 11
70.1459
 21
5.87784
  0
LINE
  8
0
 10
70.1459
 20
5.87784
 11
70.2165
 21
5.77393
  0
LINE
  8
0
 10
70.2165
 20
5.77393
 11
70.2805
 21
5.66579
  0
LINE
  8
0
 10
70.2805
 20
5.66579
 11
70.3375
 21
5.55383
  0
LINE
  8
0
 10
70.3375
 20
5.55383
 11
70.3874
 21
5.43852
  0
LINE
  8
0
 10
70.3874
 20
5.43852
 11
70.43
 21
5.32031
  0
LINE
  8
0
 10
70.43
 20
5.32031
 11
70.465
 21
5.19966
  0
LINE
  8
0
 10
70.465
 20
5.19966
 11
70.4924
 21
5.07704
  0
LINE
  8
0
 10
70.4924
 20
5.07704
 11
70.5121
 21
4.95294
  0
LINE
  8
0
 10
70.5121
 20
4.95294
 11
70.5239
 21
4.82785
  0
LINE
  8
0
 10
70.5239
 20
4.82785
 11
70.5279
 21
4.70227
  0
LINE
  8
0
 10
70.5279
 20
4.70227
 11
70.5239
 21
4.57669
  0
LINE
  8
0
 10
70.5239
 20
4.57669
 11
70.5121
 21
4.45161
  0
LINE
  8
0
 10
70.5121
 20
4.45161
 11
70.4924
 21
4.32751
  0
LINE
  8
0
 10
70.4924
 20
4.32751
 11
70.465
 21
4.2049
  0
LINE
  8
0
 10
70.465
 20
4.2049
 11
70.43
 21
4.08424
  0
LINE
  8
0
 10
70.43
 20
4.08424
 11
70.3874
 21
3.96602
  0
LINE
  8
0
 10
70.3874
 20
3.96602
 11
70.3375
 21
3.85072
  0
LINE
  8
0
 10
70.3375
 20
3.85072
 11
70.2805
 21
3.73877
  0
LINE
  8
0
 10
70.2805
 20
3.73877
 11
70.2165
 21
3.63062
  0
LINE
  8
0
 10
70.2165
 20
3.63062
 11
70.1459
 21
3.5267
  0
LINE
  8
0
 10
70.1459
 20
3.5267
 11
70.0689
 21
3.42743
  0
LINE
  8
0
 10
70.0689
 20
3.42743
 11
69.9858
 21
3.33318
  0
LINE
  8
0
 10
69.9858
 20
3.33318
 11
69.897
 21
3.24434
  0
LINE
  8
0
 10
69.897
 20
3.24434
 11
69.8027
 21
3.16125
  0
LINE
  8
0
 10
69.8027
 20
3.16125
 11
69.7034
 21
3.08424
  0
LINE
  8
0
 10
69.7034
 20
3.08424
 11
69.5995
 21
3.01363
  0
LINE
  8
0
 10
69.5995
 20
3.01363
 11
69.4914
 21
2.94966
  0
LINE
  8
0
 10
69.4914
 20
2.94966
 11
69.3794
 21
2.89262
  0
LINE
  8
0
 10
69.3794
 20
2.89262
 11
69.2641
 21
2.84273
  0
LINE
  8
0
 10
69.2641
 20
2.84273
 11
69.1459
 21
2.80016
  0
LINE
  8
0
 10
69.1459
 20
2.80016
 11
69.0252
 21
2.76511
  0
LINE
  8
0
 10
69.0252
 20
2.76511
 11
68.9026
 21
2.7377
  0
LINE
  8
0
 10
68.9026
 20
2.7377
 11
68.7785
 21
2.71805
  0
LINE
  8
0
 10
68.7785
 20
2.71805
 11
68.6534
 21
2.70622
  0
LINE
  8
0
 10
68.6534
 20
2.70622
 11
68.5279
 21
2.70227
  0
LINE
  8
0
 10
68.5279
 20
2.70227
 11
68.4023
 21
2.70622
  0
ENDSEC
  0
SECTION
  2
OBJECTS
  0
DICTIONARY
  0
ENDSEC
  0
EOF
