  0
SECTION
  2
BLOCKS
  0
ENDSEC
  0
SECTION
  2
ENTITIES
  0
LINE
  8
0
 10
0
 20
230.826
 11
-75
 21
0
  0
LINE
  8
0
 10
-75
 20
0
 11
75
 21
0
  0
LINE
  8
0
 10
75
 20
0
 11
0
 21
230.826
  0
LINE
  8
0
 10
-0.12558
 20
212.83
 11
-0.250656
 21
212.842
  0
LINE
  8
0
 10
-0.250656
 20
212.842
 11
-0.374756
 21
212.862
  0
LINE
  8
0
 10
-0.374756
 20
212.862
 11
-0.497375
 21
212.889
  0
LINE
  8
0
 10
-0.497375
 20
212.889
 11
-0.618027
 21
212.924
  0
LINE
  8
0
 10
-0.618027
 20
212.924
 11
-0.736237
 21
212.967
  0
LINE
  8
0
 10
-0.736237
 20
212.967
 11
-0.851547
 21
213.017
  0
LINE
  8
0
 10
-0.851547
 20
213.017
 11
-0.963501
 21
213.074
  0
LINE
  8
0
 10
-0.963501
 20
213.074
 11
-1.07164
 21
213.138
  0
LINE
  8
0
 10
-1.07164
 20
213.138
 11
-1.17557
 21
213.208
  0
LINE
  8
0
 10
-1.17557
 20
213.208
 11
-1.27484
 21
213.285
  0
LINE
  8
0
 10
-1.27484
 20
213.285
 11
-1.36908
 21
213.368
  0
LINE
  8
0
 10
-1.36908
 20
213.368
 11
-1.45793
 21
213.457
  0
LINE
  8
0
 10
-1.45793
 20
213.457
 11
-1.54102
 21
213.551
  0
LINE
  8
0
 10
-1.54102
 20
213.551
 11
-1.61803
 21
213.651
  0
LINE
  8
0
 10
-1.61803
 20
213.651
 11
-1.68864
 21
213.755
  0
LINE
  8
0
 10
-1.68864
 20
213.755
 11
-1.75261
 21
213.863
  0
LINE
  8
0
 10
-1.75261
 20
213.863
 11
-1.80965
 21
213.975
  0
LINE
  8
0
 10
-1.80965
 20
213.975
 11
-1.85954
 21
214.09
  0
LINE
  8
0
 10
-1.85954
 20
214.09
 11
-1.9021
 21
214.208
  0
LINE
  8
0
 10
-1.9021
 20
214.208
 11
-1.93716
 21
214.329
  0
LINE
  8
0
 10
-1.93716
 20
214.329
 11
-1.96457
 21
214.451
  0
LINE
  8
0
 10
-1.96457
 20
214.451
 11
-1.98422
 21
214.576
  0
LINE
  8
0
 10
-1.98422
 20
214.576
 11
-1.99605
 21
214.701
  0
LINE
  8
0
 10
-1.99605
 20
214.701
 11
-2
 21
214.826
  0
LINE
  8
0
 10
-2
 20
214.826
 11
-1.99605
 21
214.952
  0
LINE
  8
0
 10
-1.99605
 20
214.952
 11
-1.98422
 21
215.077
  0
LINE
  8
0
 10
-1.98422
 20
215.077
 11
-1.96457
 21
215.201
  0
LINE
  8
0
 10
-1.96457
 20
215.201
 11
-1.93716
 21
215.324
  0
LINE
  8
0
 10
-1.93716
 20
215.324
 11
-1.9021
 21
215.444
  0
LINE
  8
0
 10
-1.9021
 20
215.444
 11
-1.85954
 21
215.562
  0
LINE
  8
0
 10
-1.85954
 20
215.562
 11
-1.80965
 21
215.678
  0
LINE
  8
0
 10
-1.80965
 20
215.678
 11
-1.75261
 21
215.79
  0
LINE
  8
0
 10
-1.75261
 20
215.79
 11
-1.68864
 21
215.898
  0
LINE
  8
0
 10
-1.68864
 20
215.898
 11
-1.61803
 21
216.002
  0
LINE
  8
0
 10
-1.61803
 20
216.002
 11
-1.54102
 21
216.101
  0
LINE
  8
0
 10
-1.54102
 20
216.101
 11
-1.45793
 21
216.195
  0
LINE
  8
0
 10
-1.45793
 20
216.195
 11
-1.36908
 21
216.284
  0
LINE
  8
0
 10
-1.36908
 20
216.284
 11
-1.27484
 21
216.367
  0
LINE
  8
0
 10
-1.27484
 20
216.367
 11
-1.17557
 21
216.444
  0
LINE
  8
0
 10
-1.17557
 20
216.444
 11
-1.07164
 21
216.515
  0
LINE
  8
0
 10
-1.07164
 20
216.515
 11
-0.963501
 21
216.579
  0
LINE
  8
0
 10
-0.963501
 20
216.579
 11
-0.851547
 21
216.636
  0
LINE
  8
0
 10
-0.851547
 20
216.636
 11
-0.736237
 21
216.686
  0
LINE
  8
0
 10
-0.736237
 20
216.686
 11
-0.618027
 21
216.728
  0
LINE
  8
0
 10
-0.618027
 20
216.728
 11
-0.497375
 21
216.763
  0
LINE
  8
0
 10
-0.497375
 20
216.763
 11
-0.374756
 21
216.791
  0
LINE
  8
0
 10
-0.374756
 20
216.791
 11
-0.250656
 21
216.81
  0
LINE
  8
0
 10
-0.250656
 20
216.81
 11
-0.12558
 21
216.822
  0
LINE
  8
0
 10
-0.12558
 20
216.822
 11
0
 21
216.826
  0
LINE
  8
0
 10
0
 20
216.826
 11
0.12558
 21
216.822
  0
LINE
  8
0
 10
0.12558
 20
216.822
 11
0.250656
 21
216.81
  0
LINE
  8
0
 10
0.250656
 20
216.81
 11
0.374756
 21
216.791
  0
LINE
  8
0
 10
0.374756
 20
216.791
 11
0.497375
 21
216.763
  0
LINE
  8
0
 10
0.497375
 20
216.763
 11
0.618027
 21
216.728
  0
LINE
  8
0
 10
0.618027
 20
216.728
 11
0.736237
 21
216.686
  0
LINE
  8
0
 10
0.736237
 20
216.686
 11
0.851547
 21
216.636
  0
LINE
  8
0
 10
0.851547
 20
216.636
 11
0.963501
 21
216.579
  0
LINE
  8
0
 10
0.963501
 20
216.579
 11
1.07164
 21
216.515
  0
LINE
  8
0
 10
1.07164
 20
216.515
 11
1.17557
 21
216.444
  0
LINE
  8
0
 10
1.17557
 20
216.444
 11
1.27484
 21
216.367
  0
LINE
  8
0
 10
1.27484
 20
216.367
 11
1.36908
 21
216.284
  0
LINE
  8
0
 10
1.36908
 20
216.284
 11
1.45793
 21
216.195
  0
LINE
  8
0
 10
1.45793
 20
216.195
 11
1.54102
 21
216.101
  0
LINE
  8
0
 10
1.54102
 20
216.101
 11
1.61803
 21
216.002
  0
LINE
  8
0
 10
1.61803
 20
216.002
 11
1.68864
 21
215.898
  0
LINE
  8
0
 10
1.68864
 20
215.898
 11
1.75261
 21
215.79
  0
LINE
  8
0
 10
1.75261
 20
215.79
 11
1.80965
 21
215.678
  0
LINE
  8
0
 10
1.80965
 20
215.678
 11
1.85954
 21
215.562
  0
LINE
  8
0
 10
1.85954
 20
215.562
 11
1.9021
 21
215.444
  0
LINE
  8
0
 10
1.9021
 20
215.444
 11
1.93716
 21
215.324
  0
LINE
  8
0
 10
1.93716
 20
215.324
 11
1.96457
 21
215.201
  0
LINE
  8
0
 10
1.96457
 20
215.201
 11
1.98422
 21
215.077
  0
LINE
  8
0
 10
1.98422
 20
215.077
 11
1.99605
 21
214.952
  0
LINE
  8
0
 10
1.99605
 20
214.952
 11
2
 21
214.826
  0
LINE
  8
0
 10
2
 20
214.826
 11
1.99605
 21
214.701
  0
LINE
  8
0
 10
1.99605
 20
214.701
 11
1.98422
 21
214.576
  0
LINE
  8
0
 10
1.98422
 20
214.576
 11
1.96457
 21
214.451
  0
LINE
  8
0
 10
1.96457
 20
214.451
 11
1.93716
 21
214.329
  0
LINE
  8
0
 10
1.93716
 20
214.329
 11
1.9021
 21
214.208
  0
LINE
  8
0
 10
1.9021
 20
214.208
 11
1.85954
 21
214.09
  0
LINE
  8
0
 10
1.85954
 20
214.09
 11
1.80965
 21
213.975
  0
LINE
  8
0
 10
1.80965
 20
213.975
 11
1.75261
 21
213.863
  0
LINE
  8
0
 10
1.75261
 20
213.863
 11
1.68864
 21
213.755
  0
LINE
  8
0
 10
1.68864
 20
213.755
 11
1.61803
 21
213.651
  0
LINE
  8
0
 10
1.61803
 20
213.651
 11
1.54102
 21
213.551
  0
LINE
  8
0
 10
1.54102
 20
213.551
 11
1.45793
 21
213.457
  0
LINE
  8
0
 10
1.45793
 20
213.457
 11
1.36908
 21
213.368
  0
LINE
  8
0
 10
1.36908
 20
213.368
 11
1.27484
 21
213.285
  0
LINE
  8
0
 10
1.27484
 20
213.285
 11
1.17557
 21
213.208
  0
LINE
  8
0
 10
1.17557
 20
213.208
 11
1.07164
 21
213.138
  0
LINE
  8
0
 10
1.07164
 20
213.138
 11
0.963501
 21
213.074
  0
LINE
  8
0
 10
0.963501
 20
213.074
 11
0.851547
 21
213.017
  0
LINE
  8
0
 10
0.851547
 20
213.017
 11
0.736237
 21
212.967
  0
LINE
  8
0
 10
0.736237
 20
212.967
 11
0.618027
 21
212.924
  0
LINE
  8
0
 10
0.618027
 20
212.924
 11
0.497375
 21
212.889
  0
LINE
  8
0
 10
0.497375
 20
212.889
 11
0.374756
 21
212.862
  0
LINE
  8
0
 10
0.374756
 20
212.862
 11
0.250656
 21
212.842
  0
LINE
  8
0
 10
0.250656
 20
212.842
 11
0.12558
 21
212.83
  0
LINE
  8
0
 10
0.12558
 20
212.83
 11
0
 21
212.826
  0
LINE
  8
0
 10
0
 20
212.826
 11
-0.12558
 21
212.83
  0
LINE
  8
0
 10
-4.13062
 20
179.281
 11
-3.29393
 21
181.856
  0
LINE
  8
0
 10
-3.29393
 20
181.856
 11
-1.85577
 21
181.856
  0
LINE
  8
0
 10
-1.85577
 20
181.856
 11
-1.85577
 21
186.282
  0
LINE
  8
0
 10
-1.85577
 20
186.282
 11
-1.26523
 21
188.099
  0
LINE
  8
0
 10
-1.26523
 20
188.099
 11
5.56824
 21
174.431
  0
LINE
  8
0
 10
5.56824
 20
174.431
 11
-4.13062
 21
179.281
  0
LINE
  8
0
 10
-8.32327
 20
166.377
 11
-8.16772
 21
166.856
  0
LINE
  8
0
 10
-8.16772
 20
166.856
 11
-1.85577
 21
166.856
  0
LINE
  8
0
 10
-1.85577
 20
166.856
 11
-1.85577
 21
174.281
  0
LINE
  8
0
 10
-1.85577
 20
174.281
 11
5.56824
 21
159.431
  0
LINE
  8
0
 10
5.56824
 20
159.431
 11
-8.32327
 21
166.377
  0
LINE
  8
0
 10
6.15051
 20
168.356
 11
7.76773
 21
168.087
  0
LINE
  8
0
 10
7.76773
 20
168.087
 11
8.15346
 21
166.9
  0
LINE
  8
0
 10
8.15346
 20
166.9
 11
6.15051
 21
168.356
  0
LINE
  8
0
 10
-10.1066
 20
160.888
 11
-9.7435
 21
162.006
  0
LINE
  8
0
 10
-9.7435
 20
162.006
 11
-8.59177
 21
160.422
  0
LINE
  8
0
 10
-8.59177
 20
160.422
 11
-10.1066
 21
160.888
  0
LINE
  8
0
 10
-9.2807
 20
151.856
 11
-1.85577
 21
151.856
  0
LINE
  8
0
 10
-1.85577
 20
151.856
 11
-1.85577
 21
159.281
  0
LINE
  8
0
 10
-1.85577
 20
159.281
 11
5.56824
 21
144.431
  0
LINE
  8
0
 10
5.56824
 20
144.431
 11
-9.2807
 21
151.856
  0
LINE
  8
0
 10
6.26312
 20
153.64
 11
12.8925
 21
152.314
  0
LINE
  8
0
 10
12.8925
 20
152.314
 11
14.558
 21
147.189
  0
LINE
  8
0
 10
14.558
 20
147.189
 11
6.26312
 21
153.64
  0
LINE
  8
0
 10
-14.5253
 20
147.289
 11
-13.1143
 21
151.632
  0
LINE
  8
0
 10
-13.1143
 20
151.632
 11
-8.44757
 21
145.632
  0
LINE
  8
0
 10
-8.44757
 20
145.632
 11
-14.5253
 21
147.289
  0
LINE
  8
0
 10
6.44623
 20
139.051
 11
13.6491
 21
137.251
  0
LINE
  8
0
 10
13.6491
 20
137.251
 11
15.4485
 21
144.448
  0
LINE
  8
0
 10
15.4485
 20
144.448
 11
15.4573
 21
144.421
  0
LINE
  8
0
 10
15.4573
 20
144.421
 11
19.0512
 21
128.247
  0
LINE
  8
0
 10
19.0512
 20
128.247
 11
6.44623
 21
139.051
  0
LINE
  8
0
 10
-9.2807
 20
136.856
 11
-1.85577
 21
136.856
  0
LINE
  8
0
 10
-1.85577
 20
136.856
 11
-1.85577
 21
144.281
  0
LINE
  8
0
 10
-1.85577
 20
144.281
 11
5.56824
 21
129.431
  0
LINE
  8
0
 10
5.56824
 20
129.431
 11
-9.2807
 21
136.856
  0
LINE
  8
0
 10
-19.0545
 20
133.35
 11
-18.1528
 21
136.125
  0
LINE
  8
0
 10
-18.1528
 20
136.125
 11
-17.2508
 21
136.35
  0
LINE
  8
0
 10
-17.2508
 20
136.35
 11
-17.6111
 21
137.792
  0
LINE
  8
0
 10
-17.6111
 20
137.792
 11
-16.6496
 21
140.751
  0
LINE
  8
0
 10
-16.6496
 20
140.751
 11
-8.24707
 21
130.948
  0
LINE
  8
0
 10
-8.24707
 20
130.948
 11
-19.0545
 21
133.35
  0
LINE
  8
0
 10
7.52884
 20
110.81
 11
14.1696
 21
107.49
  0
LINE
  8
0
 10
14.1696
 20
107.49
 11
17.4422
 21
114.035
  0
LINE
  8
0
 10
17.4422
 20
114.035
 11
6.78223
 21
124.696
  0
LINE
  8
0
 10
6.78223
 20
124.696
 11
13.8258
 21
122.348
  0
LINE
  8
0
 10
13.8258
 20
122.348
 11
16.1737
 21
129.391
  0
LINE
  8
0
 10
16.1737
 20
129.391
 11
18.5216
 21
112.956
  0
LINE
  8
0
 10
18.5216
 20
112.956
 11
17.4902
 21
113.987
  0
LINE
  8
0
 10
17.4902
 20
113.987
 11
17.4902
 21
97.5288
  0
LINE
  8
0
 10
17.4902
 20
97.5288
 11
7.52884
 21
110.81
  0
LINE
  8
0
 10
-9.2807
 20
121.856
 11
-1.85577
 21
121.856
  0
LINE
  8
0
 10
-1.85577
 20
121.856
 11
-1.85577
 21
129.281
  0
LINE
  8
0
 10
-1.85577
 20
129.281
 11
5.56824
 21
114.431
  0
LINE
  8
0
 10
5.56824
 20
114.431
 11
-9.2807
 21
121.856
  0
LINE
  8
0
 10
-22.4368
 20
118.547
 11
-22.2775
 21
118.456
  0
LINE
  8
0
 10
-22.2775
 20
118.456
 11
-23.9624
 21
118.245
  0
LINE
  8
0
 10
-23.9624
 20
118.245
 11
-23.6409
 21
119.234
  0
LINE
  8
0
 10
-23.6409
 20
119.234
 11
-23.4659
 21
119.134
  0
LINE
  8
0
 10
-23.4659
 20
119.134
 11
-17.3479
 21
121.174
  0
LINE
  8
0
 10
-17.3479
 20
121.174
 11
-19.6957
 21
128.217
  0
LINE
  8
0
 10
-19.6957
 20
128.217
 11
-7.95593
 21
116.478
  0
LINE
  8
0
 10
-7.95593
 20
116.478
 11
-22.4368
 21
118.547
  0
LINE
  8
0
 10
-9.2807
 20
106.856
 11
-1.85577
 21
106.856
  0
LINE
  8
0
 10
-1.85577
 20
106.856
 11
-1.85577
 21
114.281
  0
LINE
  8
0
 10
-1.85577
 20
114.281
 11
5.56824
 21
99.4313
  0
LINE
  8
0
 10
5.56824
 20
99.4313
 11
-9.2807
 21
106.856
  0
LINE
  8
0
 10
-24.131
 20
102.509
 11
-17.4902
 21
105.83
  0
LINE
  8
0
 10
-17.4902
 20
105.83
 11
-20.8104
 21
112.471
  0
LINE
  8
0
 10
-20.8104
 20
112.471
 11
-7.52884
 21
102.509
  0
LINE
  8
0
 10
-7.52884
 20
102.509
 11
-24.131
 21
102.509
  0
LINE
  8
0
 10
-27.6658
 20
106.847
 11
-22.1246
 21
105
  0
LINE
  8
0
 10
-22.1246
 20
105
 11
-29.0118
 21
102.704
  0
LINE
  8
0
 10
-29.0118
 20
102.704
 11
-27.6658
 21
106.847
  0
LINE
  8
0
 10
27.8262
 20
106.353
 11
29.335
 21
101.71
  0
LINE
  8
0
 10
29.335
 20
101.71
 11
24.7499
 21
97.1246
  0
LINE
  8
0
 10
24.7499
 20
97.1246
 11
27.8262
 21
106.353
  0
LINE
  8
0
 10
-9.2807
 20
91.8558
 11
-1.85577
 21
91.8558
  0
LINE
  8
0
 10
-1.85577
 20
91.8558
 11
-1.85577
 21
99.2807
  0
LINE
  8
0
 10
-1.85577
 20
99.2807
 11
5.56824
 21
84.4313
  0
LINE
  8
0
 10
5.56824
 20
84.4313
 11
-9.2807
 21
91.8558
  0
LINE
  8
0
 10
15
 20
87.3747
 11
9.74991
 21
82.1246
  0
LINE
  8
0
 10
9.74991
 20
82.1246
 11
15
 21
97.8749
  0
LINE
  8
0
 10
15
 20
97.8749
 11
20.2496
 21
82.1246
  0
LINE
  8
0
 10
20.2496
 20
82.1246
 11
15
 21
87.3747
  0
LINE
  8
0
 10
29.1696
 20
87.5093
 11
22.5288
 21
84.1891
  0
LINE
  8
0
 10
22.5288
 20
84.1891
 11
31.2497
 21
95.8167
  0
LINE
  8
0
 10
31.2497
 20
95.8167
 11
32.4902
 21
91.9988
  0
LINE
  8
0
 10
32.4902
 20
91.9988
 11
32.4902
 21
80.8685
  0
LINE
  8
0
 10
32.4902
 20
80.8685
 11
29.1696
 21
87.5093
  0
LINE
  8
0
 10
-17.6248
 20
90
 11
-22.8749
 21
95.2496
  0
LINE
  8
0
 10
-22.8749
 20
95.2496
 11
-7.12463
 21
90
  0
LINE
  8
0
 10
-7.12463
 20
90
 11
-22.8749
 21
84.7499
  0
LINE
  8
0
 10
-22.8749
 20
84.7499
 11
-17.6248
 21
90
  0
LINE
  8
0
 10
-35.1158
 20
83.9181
 11
-32.4902
 21
89.1696
  0
LINE
  8
0
 10
-32.4902
 20
89.1696
 11
-33.281
 21
89.565
  0
LINE
  8
0
 10
-33.281
 20
89.565
 11
-32.3306
 21
92.4902
  0
LINE
  8
0
 10
-32.3306
 20
92.4902
 11
-22.5288
 21
92.4902
  0
LINE
  8
0
 10
-22.5288
 20
92.4902
 11
-35.4888
 21
82.77
  0
LINE
  8
0
 10
-35.4888
 20
82.77
 11
-35.1158
 21
83.9181
  0
LINE
  8
0
 10
-31.8558
 20
73.1442
 11
-38.6165
 21
73.1442
  0
LINE
  8
0
 10
-38.6165
 20
73.1442
 11
-38.4876
 21
73.5407
  0
LINE
  8
0
 10
-38.4876
 20
73.5407
 11
-24.4313
 21
80.5682
  0
LINE
  8
0
 10
-24.4313
 20
80.5682
 11
-31.8558
 21
65.7193
  0
LINE
  8
0
 10
-31.8558
 20
65.7193
 11
-31.8558
 21
73.1442
  0
LINE
  8
0
 10
-16.8558
 20
73.1442
 11
-24.2807
 21
73.1442
  0
LINE
  8
0
 10
-24.2807
 20
73.1442
 11
-9.4313
 21
80.5682
  0
LINE
  8
0
 10
-9.4313
 20
80.5682
 11
-16.8558
 21
65.7193
  0
LINE
  8
0
 10
-16.8558
 20
65.7193
 11
-16.8558
 21
73.1442
  0
LINE
  8
0
 10
28.1438
 20
73.1442
 11
20.7188
 21
73.1442
  0
LINE
  8
0
 10
20.7188
 20
73.1442
 11
35.5682
 21
80.5682
  0
LINE
  8
0
 10
35.5682
 20
80.5682
 11
28.1438
 21
65.7193
  0
LINE
  8
0
 10
28.1438
 20
65.7193
 11
28.1438
 21
73.1442
  0
LINE
  8
0
 10
13.1438
 20
73.1442
 11
5.71884
 21
73.1442
  0
LINE
  8
0
 10
5.71884
 20
73.1442
 11
20.5682
 21
80.5682
  0
LINE
  8
0
 10
20.5682
 20
80.5682
 11
13.1438
 21
65.7193
  0
LINE
  8
0
 10
13.1438
 20
65.7193
 11
13.1438
 21
73.1442
  0
LINE
  8
0
 10
-0.877533
 20
70.5867
 11
-1.72165
 21
70.8426
  0
LINE
  8
0
 10
-1.72165
 20
70.8426
 11
-2.49985
 21
71.2587
  0
LINE
  8
0
 10
-2.49985
 20
71.2587
 11
-3.18192
 21
71.8181
  0
LINE
  8
0
 10
-3.18192
 20
71.8181
 11
-3.7413
 21
72.5002
  0
LINE
  8
0
 10
-3.7413
 20
72.5002
 11
-4.15741
 21
73.2784
  0
LINE
  8
0
 10
-4.15741
 20
73.2784
 11
-4.4133
 21
74.1225
  0
LINE
  8
0
 10
-4.4133
 20
74.1225
 11
-4.49982
 21
75
  0
LINE
  8
0
 10
-4.49982
 20
75
 11
-4.4133
 21
75.8775
  0
LINE
  8
0
 10
-4.4133
 20
75.8775
 11
-4.15741
 21
76.7216
  0
LINE
  8
0
 10
-4.15741
 20
76.7216
 11
-3.7413
 21
77.4998
  0
LINE
  8
0
 10
-3.7413
 20
77.4998
 11
-3.18192
 21
78.1819
  0
LINE
  8
0
 10
-3.18192
 20
78.1819
 11
-2.49985
 21
78.7413
  0
LINE
  8
0
 10
-2.49985
 20
78.7413
 11
-1.72165
 21
79.1574
  0
LINE
  8
0
 10
-1.72165
 20
79.1574
 11
-0.877533
 21
79.4133
  0
LINE
  8
0
 10
-0.877533
 20
79.4133
 11
0
 21
79.4998
  0
LINE
  8
0
 10
0
 20
79.4998
 11
0.877533
 21
79.4133
  0
LINE
  8
0
 10
0.877533
 20
79.4133
 11
1.72165
 21
79.1574
  0
LINE
  8
0
 10
1.72165
 20
79.1574
 11
2.49985
 21
78.7413
  0
LINE
  8
0
 10
2.49985
 20
78.7413
 11
3.18192
 21
78.1819
  0
LINE
  8
0
 10
3.18192
 20
78.1819
 11
3.7413
 21
77.4998
  0
LINE
  8
0
 10
3.7413
 20
77.4998
 11
4.15741
 21
76.7216
  0
LINE
  8
0
 10
4.15741
 20
76.7216
 11
4.4133
 21
75.8775
  0
LINE
  8
0
 10
4.4133
 20
75.8775
 11
4.49982
 21
75
  0
LINE
  8
0
 10
4.49982
 20
75
 11
4.4133
 21
74.1225
  0
LINE
  8
0
 10
4.4133
 20
74.1225
 11
4.15741
 21
73.2784
  0
LINE
  8
0
 10
4.15741
 20
73.2784
 11
3.7413
 21
72.5002
  0
LINE
  8
0
 10
3.7413
 20
72.5002
 11
3.18192
 21
71.8181
  0
LINE
  8
0
 10
3.18192
 20
71.8181
 11
2.49985
 21
71.2587
  0
LINE
  8
0
 10
2.49985
 20
71.2587
 11
1.72165
 21
70.8426
  0
LINE
  8
0
 10
1.72165
 20
70.8426
 11
0.877533
 21
70.5867
  0
LINE
  8
0
 10
0.877533
 20
70.5867
 11
0
 21
70.5002
  0
LINE
  8
0
 10
0
 20
70.5002
 11
-0.877533
 21
70.5867
  0
LINE
  8
0
 10
35.7188
 20
73.1442
 11
38.2115
 21
74.3905
  0
LINE
  8
0
 10
38.2115
 20
74.3905
 11
38.6165
 21
73.1442
  0
LINE
  8
0
 10
38.6165
 20
73.1442
 11
35.7188
 21
73.1442
  0
LINE
  8
0
 10
-9.2807
 20
61.8562
 11
-1.85577
 21
61.8562
  0
LINE
  8
0
 10
-1.85577
 20
61.8562
 11
-1.85577
 21
69.2812
  0
LINE
  8
0
 10
-1.85577
 20
69.2812
 11
5.56824
 21
54.4318
  0
LINE
  8
0
 10
5.56824
 20
54.4318
 11
-9.2807
 21
61.8562
  0
LINE
  8
0
 10
-20.2496
 20
67.8754
 11
-15
 21
62.6253
  0
LINE
  8
0
 10
-15
 20
62.6253
 11
-9.74991
 21
67.8754
  0
LINE
  8
0
 10
-9.74991
 20
67.8754
 11
-15
 21
52.1251
  0
LINE
  8
0
 10
-15
 20
52.1251
 11
-20.2496
 21
67.8754
  0
LINE
  8
0
 10
-30.8299
 20
57.5098
 11
-37.4707
 21
54.1896
  0
LINE
  8
0
 10
-37.4707
 20
54.1896
 11
-27.5093
 21
67.4712
  0
LINE
  8
0
 10
-27.5093
 20
67.4712
 11
-27.5093
 21
50.869
  0
LINE
  8
0
 10
-27.5093
 20
50.869
 11
-30.8299
 21
57.5098
  0
LINE
  8
0
 10
12.3747
 20
60
 11
7.12463
 21
65.2501
  0
LINE
  8
0
 10
7.12463
 20
65.2501
 11
22.8749
 21
60
  0
LINE
  8
0
 10
22.8749
 20
60
 11
7.12463
 21
54.7504
  0
LINE
  8
0
 10
7.12463
 20
54.7504
 11
12.3747
 21
60
  0
LINE
  8
0
 10
42.6517
 20
58.8263
 11
35.6822
 21
61.1494
  0
LINE
  8
0
 10
35.6822
 20
61.1494
 11
24.1891
 21
52.5293
  0
LINE
  8
0
 10
24.1891
 20
52.5293
 11
27.5093
 21
59.1701
  0
LINE
  8
0
 10
27.5093
 20
59.1701
 11
20.8685
 21
62.4907
  0
LINE
  8
0
 10
20.8685
 20
62.4907
 11
37.4707
 21
62.4907
  0
LINE
  8
0
 10
37.4707
 20
62.4907
 11
35.7408
 21
61.1929
  0
LINE
  8
0
 10
35.7408
 20
61.1929
 11
42.1998
 21
62.1157
  0
LINE
  8
0
 10
42.1998
 20
62.1157
 11
44.2689
 21
55.7477
  0
LINE
  8
0
 10
44.2689
 20
55.7477
 11
40.3038
 21
51.7827
  0
LINE
  8
0
 10
40.3038
 20
51.7827
 11
42.6517
 21
58.8263
  0
LINE
  8
0
 10
-45.5145
 20
42.426
 11
-49.4498
 21
39.8027
  0
LINE
  8
0
 10
-49.4498
 20
39.8027
 11
-47.62
 21
45.4342
  0
LINE
  8
0
 10
-47.62
 20
45.4342
 11
-44.1344
 21
51.5341
  0
LINE
  8
0
 10
-44.1344
 20
51.5341
 11
-44.8958
 21
53.8184
  0
LINE
  8
0
 10
-44.8958
 20
53.8184
 11
-42.168
 21
62.2137
  0
LINE
  8
0
 10
-42.168
 20
62.2137
 11
-43.5466
 21
52.5632
  0
LINE
  8
0
 10
-43.5466
 20
52.5632
 11
-43.4555
 21
52.7225
  0
LINE
  8
0
 10
-43.4555
 20
52.7225
 11
-41.396
 21
36.2485
  0
LINE
  8
0
 10
-41.396
 20
36.2485
 11
-45.5145
 21
42.426
  0
LINE
  8
0
 10
-9.2807
 20
46.8562
 11
-1.85577
 21
46.8562
  0
LINE
  8
0
 10
-1.85577
 20
46.8562
 11
-1.85577
 21
54.2812
  0
LINE
  8
0
 10
-1.85577
 20
54.2812
 11
5.56824
 21
39.4318
  0
LINE
  8
0
 10
5.56824
 20
39.4318
 11
-9.2807
 21
46.8562
  0
LINE
  8
0
 10
-23.2173
 20
34.6962
 11
-16.1737
 21
32.3483
  0
LINE
  8
0
 10
-16.1737
 20
32.3483
 11
-13.8506
 21
39.3178
  0
LINE
  8
0
 10
-13.8506
 20
39.3178
 11
-22.4707
 21
50.8109
  0
LINE
  8
0
 10
-22.4707
 20
50.8109
 11
-15.8299
 21
47.4907
  0
LINE
  8
0
 10
-15.8299
 20
47.4907
 11
-12.5093
 21
54.1315
  0
LINE
  8
0
 10
-12.5093
 20
54.1315
 11
-12.5093
 21
37.5293
  0
LINE
  8
0
 10
-12.5093
 20
37.5293
 11
-13.8071
 21
39.2592
  0
LINE
  8
0
 10
-13.8071
 20
39.2592
 11
-11.478
 21
22.9564
  0
LINE
  8
0
 10
-11.478
 20
22.9564
 11
-23.2173
 21
34.6962
  0
LINE
  8
0
 10
-35.2496
 20
52.8754
 11
-30
 21
47.6253
  0
LINE
  8
0
 10
-30
 20
47.6253
 11
-24.7499
 21
52.8754
  0
LINE
  8
0
 10
-24.7499
 20
52.8754
 11
-30
 21
37.1251
  0
LINE
  8
0
 10
-30
 20
37.1251
 11
-35.2496
 21
52.8754
  0
LINE
  8
0
 10
5.86853
 20
42.5098
 11
12.5093
 21
45.8304
  0
LINE
  8
0
 10
12.5093
 20
45.8304
 11
9.18915
 21
52.4712
  0
LINE
  8
0
 10
9.18915
 20
52.4712
 11
22.4707
 21
42.5098
  0
LINE
  8
0
 10
22.4707
 20
42.5098
 11
5.86853
 21
42.5098
  0
LINE
  8
0
 10
27.3747
 20
45
 11
22.1246
 21
50.2501
  0
LINE
  8
0
 10
22.1246
 20
50.2501
 11
37.8749
 21
45
  0
LINE
  8
0
 10
37.8749
 20
45
 11
22.1246
 21
39.7504
  0
LINE
  8
0
 10
22.1246
 20
39.7504
 11
27.3747
 21
45
  0
LINE
  8
0
 10
42.4255
 20
44.4855
 11
36.248
 21
48.604
  0
LINE
  8
0
 10
36.248
 20
48.604
 11
47.0279
 21
47.2563
  0
LINE
  8
0
 10
47.0279
 20
47.2563
 11
48.1146
 21
43.9118
  0
LINE
  8
0
 10
48.1146
 20
43.9118
 11
38.3075
 21
38.308
  0
LINE
  8
0
 10
38.3075
 20
38.308
 11
42.4255
 21
44.4855
  0
LINE
  8
0
 10
-9.2807
 20
31.8562
 11
-1.85577
 21
31.8562
  0
LINE
  8
0
 10
-1.85577
 20
31.8562
 11
-1.85577
 21
39.2812
  0
LINE
  8
0
 10
-1.85577
 20
39.2812
 11
5.56824
 21
24.4318
  0
LINE
  8
0
 10
5.56824
 20
24.4318
 11
-9.2807
 21
31.8562
  0
LINE
  8
0
 10
-36.692
 20
36.6925
 11
-30.5145
 21
32.5745
  0
LINE
  8
0
 10
-30.5145
 20
32.5745
 11
-26.396
 21
38.752
  0
LINE
  8
0
 10
-26.396
 20
38.752
 11
-28.4555
 21
22.278
  0
LINE
  8
0
 10
-28.4555
 20
22.278
 11
-36.692
 21
36.6925
  0
LINE
  8
0
 10
21.4897
 20
26.5576
 11
5.60806
 21
28.8263
  0
LINE
  8
0
 10
5.60806
 20
28.8263
 11
12.6517
 21
31.1742
  0
LINE
  8
0
 10
12.6517
 20
31.1742
 11
10.3038
 21
38.2178
  0
LINE
  8
0
 10
10.3038
 20
38.2178
 11
21.7744
 21
26.7476
  0
LINE
  8
0
 10
21.7744
 20
26.7476
 11
27.4255
 21
30.515
  0
LINE
  8
0
 10
27.4255
 20
30.515
 11
23.3075
 21
36.6925
  0
LINE
  8
0
 10
23.3075
 20
36.6925
 11
37.722
 21
28.456
  0
LINE
  8
0
 10
37.722
 20
28.456
 11
22.028
 21
26.494
  0
LINE
  8
0
 10
22.028
 20
26.494
 11
22.0436
 21
26.4784
  0
LINE
  8
0
 10
22.0436
 20
26.4784
 11
21.9781
 21
26.4876
  0
LINE
  8
0
 10
21.9781
 20
26.4876
 11
21.248
 21
26.3965
  0
LINE
  8
0
 10
21.248
 20
26.3965
 11
21.4897
 21
26.5576
  0
LINE
  8
0
 10
-50.1617
 20
37.6116
 11
-50.1186
 21
37.7443
  0
LINE
  8
0
 10
-50.1186
 20
37.7443
 11
-45
 21
32.6253
  0
LINE
  8
0
 10
-45
 20
32.6253
 11
-39.7499
 21
37.8754
  0
LINE
  8
0
 10
-39.7499
 20
37.8754
 11
-45
 21
22.1251
  0
LINE
  8
0
 10
-45
 20
22.1251
 11
-50.1617
 21
37.6116
  0
LINE
  8
0
 10
42.3747
 20
30
 11
37.1246
 21
35.2501
  0
LINE
  8
0
 10
37.1246
 20
35.2501
 11
52.6057
 21
30.0897
  0
LINE
  8
0
 10
52.6057
 20
30.0897
 11
52.6583
 21
29.9278
  0
LINE
  8
0
 10
52.6583
 20
29.9278
 11
37.1246
 21
24.7504
  0
LINE
  8
0
 10
37.1246
 20
24.7504
 11
42.3747
 21
30
  0
LINE
  8
0
 10
54.1597
 20
25.3071
 11
54.4423
 21
24.4372
  0
LINE
  8
0
 10
54.4423
 20
24.4372
 11
52.9463
 21
23.6893
  0
LINE
  8
0
 10
52.9463
 20
23.6893
 11
54.1597
 21
25.3071
  0
LINE
  8
0
 10
-15.3263
 20
12
 11
-23.5533
 21
19.0517
  0
LINE
  8
0
 10
-23.5533
 20
19.0517
 11
-16.3504
 21
17.2513
  0
LINE
  8
0
 10
-16.3504
 20
17.2513
 11
-14.5496
 21
24.4542
  0
LINE
  8
0
 10
-14.5496
 20
24.4542
 11
-11.7822
 21
12
  0
LINE
  8
0
 10
-11.7822
 20
12
 11
-15.3263
 21
12
  0
LINE
  8
0
 10
0.431763
 20
12
 11
-9.2807
 21
16.8562
  0
LINE
  8
0
 10
-9.2807
 20
16.8562
 11
-1.85577
 21
16.8562
  0
LINE
  8
0
 10
-1.85577
 20
16.8562
 11
-1.85577
 21
24.2812
  0
LINE
  8
0
 10
-1.85577
 20
24.2812
 11
4.28424
 21
12
  0
LINE
  8
0
 10
4.28424
 20
12
 11
0.431763
 21
12
  0
LINE
  8
0
 10
-30.8624
 20
12
 11
-37.4707
 21
20.8109
  0
LINE
  8
0
 10
-37.4707
 20
20.8109
 11
-30.8299
 21
17.4907
  0
LINE
  8
0
 10
-30.8299
 20
17.4907
 11
-27.5093
 21
24.1315
  0
LINE
  8
0
 10
-27.5093
 20
24.1315
 11
-27.5093
 21
12
  0
LINE
  8
0
 10
-27.5093
 20
12
 11
-30.8624
 21
12
  0
LINE
  8
0
 10
17.0217
 20
12
 11
5.54581
 21
14.55
  0
LINE
  8
0
 10
5.54581
 20
14.55
 11
12.7487
 21
16.3509
  0
LINE
  8
0
 10
12.7487
 20
16.3509
 11
10.9483
 21
23.5538
  0
LINE
  8
0
 10
10.9483
 20
23.5538
 11
20.8514
 21
12
  0
LINE
  8
0
 10
20.8514
 20
12
 11
17.0217
 21
12
  0
LINE
  8
0
 10
-46.284
 20
12
 11
-51.3107
 21
22.0537
  0
LINE
  8
0
 10
-51.3107
 20
22.0537
 11
-45.3708
 21
17.5987
  0
LINE
  8
0
 10
-45.3708
 20
17.5987
 11
-40.9163
 21
23.5387
  0
LINE
  8
0
 10
-40.9163
 20
23.5387
 11
-43.0143
 21
12
  0
LINE
  8
0
 10
-43.0143
 20
12
 11
-46.284
 21
12
  0
LINE
  8
0
 10
-58.4834
 20
12
 11
-55.046
 21
22.5793
  0
LINE
  8
0
 10
-55.046
 20
22.5793
 11
-54.7499
 21
22.8754
  0
LINE
  8
0
 10
-54.7499
 20
22.8754
 11
-58.375
 21
12
  0
LINE
  8
0
 10
-58.375
 20
12
 11
-58.4834
 21
12
  0
LINE
  8
0
 10
20.8685
 20
12.5098
 11
27.5093
 21
15.8304
  0
LINE
  8
0
 10
27.5093
 20
15.8304
 11
24.1891
 21
22.4712
  0
LINE
  8
0
 10
24.1891
 20
22.4712
 11
37.4707
 21
12.5098
  0
LINE
  8
0
 10
37.4707
 20
12.5098
 11
20.8685
 21
12.5098
  0
LINE
  8
0
 10
37.9058
 20
12
 11
42.4013
 21
15.3712
  0
LINE
  8
0
 10
42.4013
 20
15.3712
 11
37.9463
 21
21.3112
  0
LINE
  8
0
 10
37.9463
 20
21.3112
 11
52.7957
 21
13.8867
  0
LINE
  8
0
 10
52.7957
 20
13.8867
 11
42.4191
 21
12
  0
LINE
  8
0
 10
42.4191
 20
12
 11
37.9058
 21
12
  0
LINE
  8
0
 10
54.3745
 20
12
 11
57.3747
 21
15
  0
LINE
  8
0
 10
57.3747
 20
15
 11
52.1246
 21
20.2501
  0
LINE
  8
0
 10
52.1246
 20
20.2501
 11
56.2496
 21
18.8751
  0
LINE
  8
0
 10
56.2496
 20
18.8751
 11
58.4834
 21
12
  0
LINE
  8
0
 10
58.4834
 20
12
 11
54.3745
 21
12
  0
LINE
  8
0
 10
-10
 20
7
 11
-10
 21
11
  0
LINE
  8
0
 10
-10
 20
11
 11
10
 21
11
  0
LINE
  8
0
 10
10
 20
11
 11
10
 21
7
  0
LINE
  8
0
 10
10
 20
7
 11
-10
 21
7
  0
LINE
  8
0
 10
-68.6534
 20
2.70622
 11
-68.7785
 21
2.71805
  0
LINE
  8
0
 10
-68.7785
 20
2.71805
 11
-68.9026
 21
2.7377
  0
LINE
  8
0
 10
-68.9026
 20
2.7377
 11
-69.0252
 21
2.76511
  0
LINE
  8
0
 10
-69.0252
 20
2.76511
 11
-69.1459
 21
2.80016
  0
LINE
  8
0
 10
-69.1459
 20
2.80016
 11
-69.2641
 21
2.84273
  0
LINE
  8
0
 10
-69.2641
 20
2.84273
 11
-69.3794
 21
2.89262
  0
LINE
  8
0
 10
-69.3794
 20
2.89262
 11
-69.4914
 21
2.94966
  0
LINE
  8
0
 10
-69.4914
 20
2.94966
 11
-69.5995
 21
3.01363
  0
LINE
  8
0
 10
-69.5995
 20
3.01363
 11
-69.7034
 21
3.08424
  0
LINE
  8
0
 10
-69.7034
 20
3.08424
 11
-69.8027
 21
3.16125
  0
LINE
  8
0
 10
-69.8027
 20
3.16125
 11
-69.897
 21
3.24434
  0
LINE
  8
0
 10
-69.897
 20
3.24434
 11
-69.9858
 21
3.33318
  0
LINE
  8
0
 10
-69.9858
 20
3.33318
 11
-70.0689
 21
3.42743
  0
LINE
  8
0
 10
-70.0689
 20
3.42743
 11
-70.1459
 21
3.5267
  0
LINE
  8
0
 10
-70.1459
 20
3.5267
 11
-70.2165
 21
3.63062
  0
LINE
  8
0
 10
-70.2165
 20
3.63062
 11
-70.2805
 21
3.73877
  0
LINE
  8
0
 10
-70.2805
 20
3.73877
 11
-70.3375
 21
3.85072
  0
LINE
  8
0
 10
-70.3375
 20
3.85072
 11
-70.3874
 21
3.96602
  0
LINE
  8
0
 10
-70.3874
 20
3.96602
 11
-70.43
 21
4.08424
  0
LINE
  8
0
 10
-70.43
 20
4.08424
 11
-70.465
 21
4.2049
  0
LINE
  8
0
 10
-70.465
 20
4.2049
 11
-70.4924
 21
4.32751
  0
LINE
  8
0
 10
-70.4924
 20
4.32751
 11
-70.5121
 21
4.45161
  0
LINE
  8
0
 10
-70.5121
 20
4.45161
 11
-70.5239
 21
4.57669
  0
LINE
  8
0
 10
-70.5239
 20
4.57669
 11
-70.5279
 21
4.70227
  0
LINE
  8
0
 10
-70.5279
 20
4.70227
 11
-70.5239
 21
4.82785
  0
LINE
  8
0
 10
-70.5239
 20
4.82785
 11
-70.5121
 21
4.95294
  0
LINE
  8
0
 10
-70.5121
 20
4.95294
 11
-70.4924
 21
5.07704
  0
LINE
  8
0
 10
-70.4924
 20
5.07704
 11
-70.465
 21
5.19966
  0
LINE
  8
0
 10
-70.465
 20
5.19966
 11
-70.43
 21
5.32031
  0
LINE
  8
0
 10
-70.43
 20
5.32031
 11
-70.3874
 21
5.43852
  0
LINE
  8
0
 10
-70.3874
 20
5.43852
 11
-70.3375
 21
5.55383
  0
LINE
  8
0
 10
-70.3375
 20
5.55383
 11
-70.2805
 21
5.66579
  0
LINE
  8
0
 10
-70.2805
 20
5.66579
 11
-70.2165
 21
5.77393
  0
LINE
  8
0
 10
-70.2165
 20
5.77393
 11
-70.1459
 21
5.87784
  0
LINE
  8
0
 10
-70.1459
 20
5.87784
 11
-70.0689
 21
5.97713
  0
LINE
  8
0
 10
-70.0689
 20
5.97713
 11
-69.9858
 21
6.07137
  0
LINE
  8
0
 10
-69.9858
 20
6.07137
 11
-69.897
 21
6.16022
  0
LINE
  8
0
 10
-69.897
 20
6.16022
 11
-69.8027
 21
6.2433
  0
LINE
  8
0
 10
-69.8027
 20
6.2433
 11
-69.7034
 21
6.32031
  0
LINE
  8
0
 10
-69.7034
 20
6.32031
 11
-69.5995
 21
6.39093
  0
LINE
  8
0
 10
-69.5995
 20
6.39093
 11
-69.4914
 21
6.4549
  0
LINE
  8
0
 10
-69.4914
 20
6.4549
 11
-69.3794
 21
6.51193
  0
LINE
  8
0
 10
-69.3794
 20
6.51193
 11
-69.2641
 21
6.56183
  0
LINE
  8
0
 10
-69.2641
 20
6.56183
 11
-69.1459
 21
6.60439
  0
LINE
  8
0
 10
-69.1459
 20
6.60439
 11
-69.0252
 21
6.63943
  0
LINE
  8
0
 10
-69.0252
 20
6.63943
 11
-68.9026
 21
6.66685
  0
LINE
  8
0
 10
-68.9026
 20
6.66685
 11
-68.7785
 21
6.68651
  0
LINE
  8
0
 10
-68.7785
 20
6.68651
 11
-68.6534
 21
6.69833
  0
LINE
  8
0
 10
-68.6534
 20
6.69833
 11
-68.5279
 21
6.70227
  0
LINE
  8
0
 10
-68.5279
 20
6.70227
 11
-68.4023
 21
6.69833
  0
LINE
  8
0
 10
-68.4023
 20
6.69833
 11
-68.2772
 21
6.68651
  0
LINE
  8
0
 10
-68.2772
 20
6.68651
 11
-68.1531
 21
6.66685
  0
LINE
  8
0
 10
-68.1531
 20
6.66685
 11
-68.0305
 21
6.63943
  0
LINE
  8
0
 10
-68.0305
 20
6.63943
 11
-67.9098
 21
6.60439
  0
LINE
  8
0
 10
-67.9098
 20
6.60439
 11
-67.7916
 21
6.56183
  0
LINE
  8
0
 10
-67.7916
 20
6.56183
 11
-67.6763
 21
6.51193
  0
LINE
  8
0
 10
-67.6763
 20
6.51193
 11
-67.5643
 21
6.4549
  0
LINE
  8
0
 10
-67.5643
 20
6.4549
 11
-67.4562
 21
6.39093
  0
LINE
  8
0
 10
-67.4562
 20
6.39093
 11
-67.3523
 21
6.32031
  0
LINE
  8
0
 10
-67.3523
 20
6.32031
 11
-67.253
 21
6.2433
  0
LINE
  8
0
 10
-67.253
 20
6.2433
 11
-67.1588
 21
6.16022
  0
LINE
  8
0
 10
-67.1588
 20
6.16022
 11
-67.0699
 21
6.07137
  0
LINE
  8
0
 10
-67.0699
 20
6.07137
 11
-66.9868
 21
5.97713
  0
LINE
  8
0
 10
-66.9868
 20
5.97713
 11
-66.9098
 21
5.87784
  0
LINE
  8
0
 10
-66.9098
 20
5.87784
 11
-66.8392
 21
5.77393
  0
LINE
  8
0
 10
-66.8392
 20
5.77393
 11
-66.7752
 21
5.66579
  0
LINE
  8
0
 10
-66.7752
 20
5.66579
 11
-66.7182
 21
5.55383
  0
LINE
  8
0
 10
-66.7182
 20
5.55383
 11
-66.6683
 21
5.43852
  0
LINE
  8
0
 10
-66.6683
 20
5.43852
 11
-66.6257
 21
5.32031
  0
LINE
  8
0
 10
-66.6257
 20
5.32031
 11
-66.5907
 21
5.19966
  0
LINE
  8
0
 10
-66.5907
 20
5.19966
 11
-66.5633
 21
5.07704
  0
LINE
  8
0
 10
-66.5633
 20
5.07704
 11
-66.5436
 21
4.95294
  0
LINE
  8
0
 10
-66.5436
 20
4.95294
 11
-66.5318
 21
4.82785
  0
LINE
  8
0
 10
-66.5318
 20
4.82785
 11
-66.5279
 21
4.70227
  0
LINE
  8
0
 10
-66.5279
 20
4.70227
 11
-66.5318
 21
4.57669
  0
LINE
  8
0
 10
-66.5318
 20
4.57669
 11
-66.5436
 21
4.45161
  0
LINE
  8
0
 10
-66.5436
 20
4.45161
 11
-66.5633
 21
4.32751
  0
LINE
  8
0
 10
-66.5633
 20
4.32751
 11
-66.5907
 21
4.2049
  0
LINE
  8
0
 10
-66.5907
 20
4.2049
 11
-66.6257
 21
4.08424
  0
LINE
  8
0
 10
-66.6257
 20
4.08424
 11
-66.6683
 21
3.96602
  0
LINE
  8
0
 10
-66.6683
 20
3.96602
 11
-66.7182
 21
3.85072
  0
LINE
  8
0
 10
-66.7182
 20
3.85072
 11
-66.7752
 21
3.73877
  0
LINE
  8
0
 10
-66.7752
 20
3.73877
 11
-66.8392
 21
3.63062
  0
LINE
  8
0
 10
-66.8392
 20
3.63062
 11
-66.9098
 21
3.5267
  0
LINE
  8
0
 10
-66.9098
 20
3.5267
 11
-66.9868
 21
3.42743
  0
LINE
  8
0
 10
-66.9868
 20
3.42743
 11
-67.0699
 21
3.33318
  0
LINE
  8
0
 10
-67.0699
 20
3.33318
 11
-67.1588
 21
3.24434
  0
LINE
  8
0
 10
-67.1588
 20
3.24434
 11
-67.253
 21
3.16125
  0
LINE
  8
0
 10
-67.253
 20
3.16125
 11
-67.3523
 21
3.08424
  0
LINE
  8
0
 10
-67.3523
 20
3.08424
 11
-67.4562
 21
3.01363
  0
LINE
  8
0
 10
-67.4562
 20
3.01363
 11
-67.5643
 21
2.94966
  0
LINE
  8
0
 10
-67.5643
 20
2.94966
 11
-67.6763
 21
2.89262
  0
LINE
  8
0
 10
-67.6763
 20
2.89262
 11
-67.7916
 21
2.84273
  0
LINE
  8
0
 10
-67.7916
 20
2.84273
 11
-67.9098
 21
2.80016
  0
LINE
  8
0
 10
-67.9098
 20
2.80016
 11
-68.0305
 21
2.76511
  0
LINE
  8
0
 10
-68.0305
 20
2.76511
 11
-68.1531
 21
2.7377
  0
LINE
  8
0
 10
-68.1531
 20
2.7377
 11
-68.2772
 21
2.71805
  0
LINE
  8
0
 10
-68.2772
 20
2.71805
 11
-68.4023
 21
2.70622
  0
LINE
  8
0
 10
-68.4023
 20
2.70622
 11
-68.5279
 21
2.70227
  0
LINE
  8
0
 10
-68.5279
 20
2.70227
 11
-68.6534
 21
2.70622
  0
LINE
  8
0
 10
68.4023
 20
2.70622
 11
68.2772
 21
2.71805
  0
LINE
  8
0
 10
68.2772
 20
2.71805
 11
68.1531
 21
2.7377
  0
LINE
  8
0
 10
68.1531
 20
2.7377
 11
68.0305
 21
2.76511
  0
LINE
  8
0
 10
68.0305
 20
2.76511
 11
67.9098
 21
2.80016
  0
LINE
  8
0
 10
67.9098
 20
2.80016
 11
67.7916
 21
2.84273
  0
LINE
  8
0
 10
67.7916
 20
2.84273
 11
67.6763
 21
2.89262
  0
LINE
  8
0
 10
67.6763
 20
2.89262
 11
67.5643
 21
2.94966
  0
LINE
  8
0
 10
67.5643
 20
2.94966
 11
67.4562
 21
3.01363
  0
LINE
  8
0
 10
67.4562
 20
3.01363
 11
67.3523
 21
3.08424
  0
LINE
  8
0
 10
67.3523
 20
3.08424
 11
67.253
 21
3.16125
  0
LINE
  8
0
 10
67.253
 20
3.16125
 11
67.1588
 21
3.24434
  0
LINE
  8
0
 10
67.1588
 20
3.24434
 11
67.0699
 21
3.33318
  0
LINE
  8
0
 10
67.0699
 20
3.33318
 11
66.9868
 21
3.42743
  0
LINE
  8
0
 10
66.9868
 20
3.42743
 11
66.9098
 21
3.5267
  0
LINE
  8
0
 10
66.9098
 20
3.5267
 11
66.8392
 21
3.63062
  0
LINE
  8
0
 10
66.8392
 20
3.63062
 11
66.7752
 21
3.73877
  0
LINE
  8
0
 10
66.7752
 20
3.73877
 11
66.7182
 21
3.85072
  0
LINE
  8
0
 10
66.7182
 20
3.85072
 11
66.6683
 21
3.96602
  0
LINE
  8
0
 10
66.6683
 20
3.96602
 11
66.6257
 21
4.08424
  0
LINE
  8
0
 10
66.6257
 20
4.08424
 11
66.5907
 21
4.2049
  0
LINE
  8
0
 10
66.5907
 20
4.2049
 11
66.5633
 21
4.32751
  0
LINE
  8
0
 10
66.5633
 20
4.32751
 11
66.5436
 21
4.45161
  0
LINE
  8
0
 10
66.5436
 20
4.45161
 11
66.5318
 21
4.57669
  0
LINE
  8
0
 10
66.5318
 20
4.57669
 11
66.5279
 21
4.70227
  0
LINE
  8
0
 10
66.5279
 20
4.70227
 11
66.5318
 21
4.82785
  0
LINE
  8
0
 10
66.5318
 20
4.82785
 11
66.5436
 21
4.95294
  0
LINE
  8
0
 10
66.5436
 20
4.95294
 11
66.5633
 21
5.07704
  0
LINE
  8
0
 10
66.5633
 20
5.07704
 11
66.5907
 21
5.19966
  0
LINE
  8
0
 10
66.5907
 20
5.19966
 11
66.6257
 21
5.32031
  0
LINE
  8
0
 10
66.6257
 20
5.32031
 11
66.6683
 21
5.43852
  0
LINE
  8
0
 10
66.6683
 20
5.43852
 11
66.7182
 21
5.55383
  0
LINE
  8
0
 10
66.7182
 20
5.55383
 11
66.7752
 21
5.66579
  0
LINE
  8
0
 10
66.7752
 20
5.66579
 11
66.8392
 21
5.77393
  0
LINE
  8
0
 10
66.8392
 20
5.77393
 11
66.9098
 21
5.87784
  0
LINE
  8
0
 10
66.9098
 20
5.87784
 11
66.9868
 21
5.97713
  0
LINE
  8
0
 10
66.9868
 20
5.97713
 11
67.0699
 21
6.07137
  0
LINE
  8
0
 10
67.0699
 20
6.07137
 11
67.1588
 21
6.16022
  0
LINE
  8
0
 10
67.1588
 20
6.16022
 11
67.253
 21
6.2433
  0
LINE
  8
0
 10
67.253
 20
6.2433
 11
67.3523
 21
6.32031
  0
LINE
  8
0
 10
67.3523
 20
6.32031
 11
67.4562
 21
6.39093
  0
LINE
  8
0
 10
67.4562
 20
6.39093
 11
67.5643
 21
6.4549
  0
LINE
  8
0
 10
67.5643
 20
6.4549
 11
67.6763
 21
6.51193
  0
LINE
  8
0
 10
67.6763
 20
6.51193
 11
67.7916
 21
6.56183
  0
LINE
  8
0
 10
67.7916
 20
6.56183
 11
67.9098
 21
6.60439
  0
LINE
  8
0
 10
67.9098
 20
6.60439
 11
68.0305
 21
6.63943
  0
LINE
  8
0
 10
68.0305
 20
6.63943
 11
68.1531
 21
6.66685
  0
LINE
  8
0
 10
68.1531
 20
6.66685
 11
68.2772
 21
6.68651
  0
LINE
  8
0
 10
68.2772
 20
6.68651
 11
68.4023
 21
6.69833
  0
LINE
  8
0
 10
68.4023
 20
6.69833
 11
68.5279
 21
6.70227
  0
LINE
  8
0
 10
68.5279
 20
6.70227
 11
68.6534
 21
6.69833
  0
LINE
  8
0
 10
68.6534
 20
6.69833
 11
68.7785
 21
6.68651
  0
LINE
  8
0
 10
68.7785
 20
6.68651
 11
68.9026
 21
6.66685
  0
LINE
  8
0
 10
68.9026
 20
6.66685
 11
69.0252
 21
6.63943
  0
LINE
  8
0
 10
69.0252
 20
6.63943
 11
69.1459
 21
6.60439
  0
LINE
  8
0
 10
69.1459
 20
6.60439
 11
69.2641
 21
6.56183
  0
LINE
  8
0
 10
69.2641
 20
6.56183
 11
69.3794
 21
6.51193
  0
LINE
  8
0
 10
69.3794
 20
6.51193
 11
69.4914
 21
6.4549
  0
LINE
  8
0
 10
69.4914
 20
6.4549
 11
69.5995
 21
6.39093
  0
LINE
  8
0
 10
69.5995
 20
6.39093
 11
69.7034
 21
6.32031
  0
LINE
  8
0
 10
69.7034
 20
6.32031
 11
69.8027
 21
6.2433
  0
LINE
  8
0
 10
69.8027
 20
6.2433
 11
69.897
 21
6.16022
  0
LINE
  8
0
 10
69.897
 20
6.16022
 11
69.9858
 21
6.07137
  0
LINE
  8
0
 10
69.9858
 20
6.07137
 11
70.0689
 21
5.97713
  0
LINE
  8
0
 10
70.0689
 20
5.97713
 11
70.1459
 21
5.87784
  0
LINE
  8
0
 10
70.1459
 20
5.87784
 11
70.2165
 21
5.77393
  0
LINE
  8
0
 10
70.2165
 20
5.77393
 11
70.2805
 21
5.66579
  0
LINE
  8
0
 10
70.2805
 20
5.66579
 11
70.3375
 21
5.55383
  0
LINE
  8
0
 10
70.3375
 20
5.55383
 11
70.3874
 21
5.43852
  0
LINE
  8
0
 10
70.3874
 20
5.43852
 11
70.43
 21
5.32031
  0
LINE
  8
0
 10
70.43
 20
5.32031
 11
70.465
 21
5.19966
  0
LINE
  8
0
 10
70.465
 20
5.19966
 11
70.4924
 21
5.07704
  0
LINE
  8
0
 10
70.4924
 20
5.07704
 11
70.5121
 21
4.95294
  0
LINE
  8
0
 10
70.5121
 20
4.95294
 11
70.5239
 21
4.82785
  0
LINE
  8
0
 10
70.5239
 20
4.82785
 11
70.5279
 21
4.70227
  0
LINE
  8
0
 10
70.5279
 20
4.70227
 11
70.5239
 21
4.57669
  0
LINE
  8
0
 10
70.5239
 20
4.57669
 11
70.5121
 21
4.45161
  0
LINE
  8
0
 10
70.5121
 20
4.45161
 11
70.4924
 21
4.32751
  0
LINE
  8
0
 10
70.4924
 20
4.32751
 11
70.465
 21
4.2049
  0
LINE
  8
0
 10
70.465
 20
4.2049
 11
70.43
 21
4.08424
  0
LINE
  8
0
 10
70.43
 20
4.08424
 11
70.3874
 21
3.96602
  0
LINE
  8
0
 10
70.3874
 20
3.96602
 11
70.3375
 21
3.85072
  0
LINE
  8
0
 10
70.3375
 20
3.85072
 11
70.2805
 21
3.73877
  0
LINE
  8
0
 10
70.2805
 20
3.73877
 11
70.2165
 21
3.63062
  0
LINE
  8
0
 10
70.2165
 20
3.63062
 11
70.1459
 21
3.5267
  0
LINE
  8
0
 10
70.1459
 20
3.5267
 11
70.0689
 21
3.42743
  0
LINE
  8
0
 10
70.0689
 20
3.42743
 11
69.9858
 21
3.33318
  0
LINE
  8
0
 10
69.9858
 20
3.33318
 11
69.897
 21
3.24434
  0
LINE
  8
0
 10
69.897
 20
3.24434
 11
69.8027
 21
3.16125
  0
LINE
  8
0
 10
69.8027
 20
3.16125
 11
69.7034
 21
3.08424
  0
LINE
  8
0
 10
69.7034
 20
3.08424
 11
69.5995
 21
3.01363
  0
LINE
  8
0
 10
69.5995
 20
3.01363
 11
69.4914
 21
2.94966
  0
LINE
  8
0
 10
69.4914
 20
2.94966
 11
69.3794
 21
2.89262
  0
LINE
  8
0
 10
69.3794
 20
2.89262
 11
69.2641
 21
2.84273
  0
LINE
  8
0
 10
69.2641
 20
2.84273
 11
69.1459
 21
2.80016
  0
LINE
  8
0
 10
69.1459
 20
2.80016
 11
69.0252
 21
2.76511
  0
LINE
  8
0
 10
69.0252
 20
2.76511
 11
68.9026
 21
2.7377
  0
LINE
  8
0
 10
68.9026
 20
2.7377
 11
68.7785
 21
2.71805
  0
LINE
  8
0
 10
68.7785
 20
2.71805
 11
68.6534
 21
2.70622
  0
LINE
  8
0
 10
68.6534
 20
2.70622
 11
68.5279
 21
2.70227
  0
LINE
  8
0
 10
68.5279
 20
2.70227
 11
68.4023
 21
2.70622
  0
ENDSEC
  0
SECTION
  2
OBJECTS
  0
DICTIONARY
  0
ENDSEC
  0
EOF
