  0
SECTION
  2
BLOCKS
  0
ENDSEC
  0
SECTION
  2
ENTITIES
  0
LINE
  8
0
 10
0
 20
230.826
 11
-75
 21
0
  0
LINE
  8
0
 10
-75
 20
0
 11
75
 21
0
  0
LINE
  8
0
 10
75
 20
0
 11
0
 21
230.826
  0
LINE
  8
0
 10
-0.12558
 20
212.83
 11
-0.250656
 21
212.842
  0
LINE
  8
0
 10
-0.250656
 20
212.842
 11
-0.374756
 21
212.862
  0
LINE
  8
0
 10
-0.374756
 20
212.862
 11
-0.497375
 21
212.889
  0
LINE
  8
0
 10
-0.497375
 20
212.889
 11
-0.618027
 21
212.924
  0
LINE
  8
0
 10
-0.618027
 20
212.924
 11
-0.736237
 21
212.967
  0
LINE
  8
0
 10
-0.736237
 20
212.967
 11
-0.851547
 21
213.017
  0
LINE
  8
0
 10
-0.851547
 20
213.017
 11
-0.963501
 21
213.074
  0
LINE
  8
0
 10
-0.963501
 20
213.074
 11
-1.07164
 21
213.138
  0
LINE
  8
0
 10
-1.07164
 20
213.138
 11
-1.17557
 21
213.208
  0
LINE
  8
0
 10
-1.17557
 20
213.208
 11
-1.27484
 21
213.285
  0
LINE
  8
0
 10
-1.27484
 20
213.285
 11
-1.36908
 21
213.368
  0
LINE
  8
0
 10
-1.36908
 20
213.368
 11
-1.45793
 21
213.457
  0
LINE
  8
0
 10
-1.45793
 20
213.457
 11
-1.54102
 21
213.551
  0
LINE
  8
0
 10
-1.54102
 20
213.551
 11
-1.61803
 21
213.651
  0
LINE
  8
0
 10
-1.61803
 20
213.651
 11
-1.68864
 21
213.755
  0
LINE
  8
0
 10
-1.68864
 20
213.755
 11
-1.75261
 21
213.863
  0
LINE
  8
0
 10
-1.75261
 20
213.863
 11
-1.80965
 21
213.975
  0
LINE
  8
0
 10
-1.80965
 20
213.975
 11
-1.85954
 21
214.09
  0
LINE
  8
0
 10
-1.85954
 20
214.09
 11
-1.9021
 21
214.208
  0
LINE
  8
0
 10
-1.9021
 20
214.208
 11
-1.93716
 21
214.329
  0
LINE
  8
0
 10
-1.93716
 20
214.329
 11
-1.96457
 21
214.451
  0
LINE
  8
0
 10
-1.96457
 20
214.451
 11
-1.98422
 21
214.576
  0
LINE
  8
0
 10
-1.98422
 20
214.576
 11
-1.99605
 21
214.701
  0
LINE
  8
0
 10
-1.99605
 20
214.701
 11
-2
 21
214.826
  0
LINE
  8
0
 10
-2
 20
214.826
 11
-1.99605
 21
214.952
  0
LINE
  8
0
 10
-1.99605
 20
214.952
 11
-1.98422
 21
215.077
  0
LINE
  8
0
 10
-1.98422
 20
215.077
 11
-1.96457
 21
215.201
  0
LINE
  8
0
 10
-1.96457
 20
215.201
 11
-1.93716
 21
215.324
  0
LINE
  8
0
 10
-1.93716
 20
215.324
 11
-1.9021
 21
215.444
  0
LINE
  8
0
 10
-1.9021
 20
215.444
 11
-1.85954
 21
215.562
  0
LINE
  8
0
 10
-1.85954
 20
215.562
 11
-1.80965
 21
215.678
  0
LINE
  8
0
 10
-1.80965
 20
215.678
 11
-1.75261
 21
215.79
  0
LINE
  8
0
 10
-1.75261
 20
215.79
 11
-1.68864
 21
215.898
  0
LINE
  8
0
 10
-1.68864
 20
215.898
 11
-1.61803
 21
216.002
  0
LINE
  8
0
 10
-1.61803
 20
216.002
 11
-1.54102
 21
216.101
  0
LINE
  8
0
 10
-1.54102
 20
216.101
 11
-1.45793
 21
216.195
  0
LINE
  8
0
 10
-1.45793
 20
216.195
 11
-1.36908
 21
216.284
  0
LINE
  8
0
 10
-1.36908
 20
216.284
 11
-1.27484
 21
216.367
  0
LINE
  8
0
 10
-1.27484
 20
216.367
 11
-1.17557
 21
216.444
  0
LINE
  8
0
 10
-1.17557
 20
216.444
 11
-1.07164
 21
216.515
  0
LINE
  8
0
 10
-1.07164
 20
216.515
 11
-0.963501
 21
216.579
  0
LINE
  8
0
 10
-0.963501
 20
216.579
 11
-0.851547
 21
216.636
  0
LINE
  8
0
 10
-0.851547
 20
216.636
 11
-0.736237
 21
216.686
  0
LINE
  8
0
 10
-0.736237
 20
216.686
 11
-0.618027
 21
216.728
  0
LINE
  8
0
 10
-0.618027
 20
216.728
 11
-0.497375
 21
216.763
  0
LINE
  8
0
 10
-0.497375
 20
216.763
 11
-0.374756
 21
216.791
  0
LINE
  8
0
 10
-0.374756
 20
216.791
 11
-0.250656
 21
216.81
  0
LINE
  8
0
 10
-0.250656
 20
216.81
 11
-0.12558
 21
216.822
  0
LINE
  8
0
 10
-0.12558
 20
216.822
 11
0
 21
216.826
  0
LINE
  8
0
 10
0
 20
216.826
 11
0.12558
 21
216.822
  0
LINE
  8
0
 10
0.12558
 20
216.822
 11
0.250656
 21
216.81
  0
LINE
  8
0
 10
0.250656
 20
216.81
 11
0.374756
 21
216.791
  0
LINE
  8
0
 10
0.374756
 20
216.791
 11
0.497375
 21
216.763
  0
LINE
  8
0
 10
0.497375
 20
216.763
 11
0.618027
 21
216.728
  0
LINE
  8
0
 10
0.618027
 20
216.728
 11
0.736237
 21
216.686
  0
LINE
  8
0
 10
0.736237
 20
216.686
 11
0.851547
 21
216.636
  0
LINE
  8
0
 10
0.851547
 20
216.636
 11
0.963501
 21
216.579
  0
LINE
  8
0
 10
0.963501
 20
216.579
 11
1.07164
 21
216.515
  0
LINE
  8
0
 10
1.07164
 20
216.515
 11
1.17557
 21
216.444
  0
LINE
  8
0
 10
1.17557
 20
216.444
 11
1.27484
 21
216.367
  0
LINE
  8
0
 10
1.27484
 20
216.367
 11
1.36908
 21
216.284
  0
LINE
  8
0
 10
1.36908
 20
216.284
 11
1.45793
 21
216.195
  0
LINE
  8
0
 10
1.45793
 20
216.195
 11
1.54102
 21
216.101
  0
LINE
  8
0
 10
1.54102
 20
216.101
 11
1.61803
 21
216.002
  0
LINE
  8
0
 10
1.61803
 20
216.002
 11
1.68864
 21
215.898
  0
LINE
  8
0
 10
1.68864
 20
215.898
 11
1.75261
 21
215.79
  0
LINE
  8
0
 10
1.75261
 20
215.79
 11
1.80965
 21
215.678
  0
LINE
  8
0
 10
1.80965
 20
215.678
 11
1.85954
 21
215.562
  0
LINE
  8
0
 10
1.85954
 20
215.562
 11
1.9021
 21
215.444
  0
LINE
  8
0
 10
1.9021
 20
215.444
 11
1.93716
 21
215.324
  0
LINE
  8
0
 10
1.93716
 20
215.324
 11
1.96457
 21
215.201
  0
LINE
  8
0
 10
1.96457
 20
215.201
 11
1.98422
 21
215.077
  0
LINE
  8
0
 10
1.98422
 20
215.077
 11
1.99605
 21
214.952
  0
LINE
  8
0
 10
1.99605
 20
214.952
 11
2
 21
214.826
  0
LINE
  8
0
 10
2
 20
214.826
 11
1.99605
 21
214.701
  0
LINE
  8
0
 10
1.99605
 20
214.701
 11
1.98422
 21
214.576
  0
LINE
  8
0
 10
1.98422
 20
214.576
 11
1.96457
 21
214.451
  0
LINE
  8
0
 10
1.96457
 20
214.451
 11
1.93716
 21
214.329
  0
LINE
  8
0
 10
1.93716
 20
214.329
 11
1.9021
 21
214.208
  0
LINE
  8
0
 10
1.9021
 20
214.208
 11
1.85954
 21
214.09
  0
LINE
  8
0
 10
1.85954
 20
214.09
 11
1.80965
 21
213.975
  0
LINE
  8
0
 10
1.80965
 20
213.975
 11
1.75261
 21
213.863
  0
LINE
  8
0
 10
1.75261
 20
213.863
 11
1.68864
 21
213.755
  0
LINE
  8
0
 10
1.68864
 20
213.755
 11
1.61803
 21
213.651
  0
LINE
  8
0
 10
1.61803
 20
213.651
 11
1.54102
 21
213.551
  0
LINE
  8
0
 10
1.54102
 20
213.551
 11
1.45793
 21
213.457
  0
LINE
  8
0
 10
1.45793
 20
213.457
 11
1.36908
 21
213.368
  0
LINE
  8
0
 10
1.36908
 20
213.368
 11
1.27484
 21
213.285
  0
LINE
  8
0
 10
1.27484
 20
213.285
 11
1.17557
 21
213.208
  0
LINE
  8
0
 10
1.17557
 20
213.208
 11
1.07164
 21
213.138
  0
LINE
  8
0
 10
1.07164
 20
213.138
 11
0.963501
 21
213.074
  0
LINE
  8
0
 10
0.963501
 20
213.074
 11
0.851547
 21
213.017
  0
LINE
  8
0
 10
0.851547
 20
213.017
 11
0.736237
 21
212.967
  0
LINE
  8
0
 10
0.736237
 20
212.967
 11
0.618027
 21
212.924
  0
LINE
  8
0
 10
0.618027
 20
212.924
 11
0.497375
 21
212.889
  0
LINE
  8
0
 10
0.497375
 20
212.889
 11
0.374756
 21
212.862
  0
LINE
  8
0
 10
0.374756
 20
212.862
 11
0.250656
 21
212.842
  0
LINE
  8
0
 10
0.250656
 20
212.842
 11
0.12558
 21
212.83
  0
LINE
  8
0
 10
0.12558
 20
212.83
 11
0
 21
212.826
  0
LINE
  8
0
 10
0
 20
212.826
 11
-0.12558
 21
212.83
  0
LINE
  8
0
 10
0
 20
191.993
 11
0.986694
 21
188.957
  0
LINE
  8
0
 10
0.986694
 20
188.957
 11
-1.46313
 21
187.49
  0
LINE
  8
0
 10
-1.46313
 20
187.49
 11
0
 21
191.993
  0
LINE
  8
0
 10
-3.39333
 20
181.55
 11
-2.8251
 21
183.299
  0
LINE
  8
0
 10
-2.8251
 20
183.299
 11
1.95992
 21
185.961
  0
LINE
  8
0
 10
1.95992
 20
185.961
 11
4.9239
 21
176.839
  0
LINE
  8
0
 10
4.9239
 20
176.839
 11
-3.39333
 21
181.55
  0
LINE
  8
0
 10
-5.98599
 20
173.57
 11
-4.29678
 21
178.769
  0
LINE
  8
0
 10
-4.29678
 20
178.769
 11
4.4165
 21
173.643
  0
LINE
  8
0
 10
4.4165
 20
173.643
 11
-5.89325
 21
167.691
  0
LINE
  8
0
 10
-5.89325
 20
167.691
 11
-5.98599
 21
173.57
  0
LINE
  8
0
 10
-4.32495
 20
164.974
 11
5.98389
 21
170.926
  0
LINE
  8
0
 10
5.98389
 20
170.926
 11
6.08414
 21
158.744
  0
LINE
  8
0
 10
6.08414
 20
158.744
 11
-4.32495
 21
164.974
  0
LINE
  8
0
 10
8.96225
 20
164.41
 11
10.4962
 21
159.69
  0
LINE
  8
0
 10
10.4962
 20
159.69
 11
8.91541
 21
158.743
  0
LINE
  8
0
 10
8.91541
 20
158.743
 11
8.96225
 21
164.41
  0
LINE
  8
0
 10
-5.93216
 20
162.192
 11
4.66965
 21
156.292
  0
LINE
  8
0
 10
4.66965
 20
156.292
 11
-5.93216
 21
150.287
  0
LINE
  8
0
 10
-5.93216
 20
150.287
 11
-5.93216
 21
162.192
  0
LINE
  8
0
 10
-12.8543
 20
152.432
 11
-9.81923
 21
161.773
  0
LINE
  8
0
 10
-9.81923
 20
161.773
 11
-9.0683
 21
162.191
  0
LINE
  8
0
 10
-9.0683
 20
162.191
 11
-9.0683
 21
150.288
  0
LINE
  8
0
 10
-9.0683
 20
150.288
 11
-12.8543
 21
152.432
  0
LINE
  8
0
 10
10.3308
 20
156.292
 11
11.4058
 21
156.89
  0
LINE
  8
0
 10
11.4058
 20
156.89
 11
11.8865
 21
155.411
  0
LINE
  8
0
 10
11.8865
 20
155.411
 11
10.3308
 21
156.292
  0
LINE
  8
0
 10
-4.4165
 20
147.662
 11
6.08459
 21
153.84
  0
LINE
  8
0
 10
6.08459
 20
153.84
 11
5.89325
 21
141.71
  0
LINE
  8
0
 10
5.89325
 20
141.71
 11
-4.4165
 21
147.662
  0
LINE
  8
0
 10
8.91541
 20
153.84
 11
13.2195
 21
151.308
  0
LINE
  8
0
 10
13.2195
 20
151.308
 11
15.1959
 21
145.225
  0
LINE
  8
0
 10
15.1959
 20
145.225
 11
9.10675
 21
141.71
  0
LINE
  8
0
 10
9.10675
 20
141.71
 11
8.91541
 21
153.84
  0
LINE
  8
0
 10
-13.791
 20
149.549
 11
-10.5835
 21
147.662
  0
LINE
  8
0
 10
-10.5835
 20
147.662
 11
-15.2863
 21
144.947
  0
LINE
  8
0
 10
-15.2863
 20
144.947
 11
-13.791
 21
149.549
  0
LINE
  8
0
 10
-17.5634
 20
137.939
 11
-16.7349
 21
140.489
  0
LINE
  8
0
 10
-16.7349
 20
140.489
 11
-9.01611
 21
144.946
  0
LINE
  8
0
 10
-9.01611
 20
144.946
 11
-8.91586
 21
132.763
  0
LINE
  8
0
 10
-8.91586
 20
132.763
 11
-17.5634
 21
137.939
  0
LINE
  8
0
 10
-5.98389
 20
144.946
 11
4.32587
 21
138.994
  0
LINE
  8
0
 10
4.32587
 20
138.994
 11
-6.08459
 21
132.763
  0
LINE
  8
0
 10
-6.08459
 20
132.763
 11
-5.98389
 21
144.946
  0
LINE
  8
0
 10
10.675
 20
138.993
 11
16.1868
 21
142.176
  0
LINE
  8
0
 10
16.1868
 20
142.176
 11
18.8011
 21
134.13
  0
LINE
  8
0
 10
18.8011
 20
134.13
 11
10.675
 21
138.993
  0
LINE
  8
0
 10
9.06784
 20
136.211
 11
19.6696
 21
130.311
  0
LINE
  8
0
 10
19.6696
 20
130.311
 11
9.06784
 21
124.306
  0
LINE
  8
0
 10
9.06784
 20
124.306
 11
9.06784
 21
136.211
  0
LINE
  8
0
 10
-4.66919
 20
130.311
 11
5.9317
 21
136.21
  0
LINE
  8
0
 10
5.9317
 20
136.21
 11
5.9317
 21
124.307
  0
LINE
  8
0
 10
5.9317
 20
124.307
 11
-4.66919
 21
130.311
  0
LINE
  8
0
 10
-20.9322
 20
127.571
 11
-18.5547
 21
134.888
  0
LINE
  8
0
 10
-18.5547
 20
134.888
 11
-10.3304
 21
130.311
  0
LINE
  8
0
 10
-10.3304
 20
130.311
 11
-20.9322
 21
124.306
  0
LINE
  8
0
 10
-20.9322
 20
124.306
 11
-20.9322
 21
127.571
  0
LINE
  8
0
 10
-19.4165
 20
121.681
 11
-8.91541
 21
127.859
  0
LINE
  8
0
 10
-8.91541
 20
127.859
 11
-9.10675
 21
115.729
  0
LINE
  8
0
 10
-9.10675
 20
115.729
 11
-19.4165
 21
121.681
  0
LINE
  8
0
 10
-6.08459
 20
127.859
 11
4.4165
 21
121.681
  0
LINE
  8
0
 10
4.4165
 20
121.681
 11
-5.89325
 21
115.729
  0
LINE
  8
0
 10
-5.89325
 20
115.729
 11
-6.08459
 21
127.859
  0
LINE
  8
0
 10
10.5835
 20
121.681
 11
20.8779
 21
127.738
  0
LINE
  8
0
 10
20.8779
 20
127.738
 11
21.0732
 21
127.137
  0
LINE
  8
0
 10
21.0732
 20
127.137
 11
20.8932
 21
115.729
  0
LINE
  8
0
 10
20.8932
 20
115.729
 11
10.5835
 21
121.681
  0
LINE
  8
0
 10
9.01611
 20
118.965
 11
19.3259
 21
113.013
  0
LINE
  8
0
 10
19.3259
 20
113.013
 11
8.91541
 21
106.782
  0
LINE
  8
0
 10
8.91541
 20
106.782
 11
9.01611
 21
118.965
  0
LINE
  8
0
 10
-20.9839
 20
118.965
 11
-10.6741
 21
113.013
  0
LINE
  8
0
 10
-10.6741
 20
113.013
 11
-21.0846
 21
106.782
  0
LINE
  8
0
 10
-21.0846
 20
106.782
 11
-20.9839
 21
118.965
  0
LINE
  8
0
 10
-4.32495
 20
113.012
 11
5.98389
 21
118.965
  0
LINE
  8
0
 10
5.98389
 20
118.965
 11
6.08414
 21
106.782
  0
LINE
  8
0
 10
6.08414
 20
106.782
 11
-4.32495
 21
113.012
  0
LINE
  8
0
 10
-27.0728
 20
108.672
 11
-24.009
 21
118.101
  0
LINE
  8
0
 10
-24.009
 20
118.101
 11
-23.9159
 21
106.782
  0
LINE
  8
0
 10
-23.9159
 20
106.782
 11
-27.0728
 21
108.672
  0
LINE
  8
0
 10
24.0724
 20
117.906
 11
24.6734
 21
116.056
  0
LINE
  8
0
 10
24.6734
 20
116.056
 11
24.1068
 21
115.729
  0
LINE
  8
0
 10
24.1068
 20
115.729
 11
24.0724
 21
117.906
  0
LINE
  8
0
 10
-5.93216
 20
110.23
 11
4.66965
 21
104.33
  0
LINE
  8
0
 10
4.66965
 20
104.33
 11
-5.93216
 21
98.3255
  0
LINE
  8
0
 10
-5.93216
 20
98.3255
 11
-5.93216
 21
110.23
  0
LINE
  8
0
 10
24.0678
 20
110.23
 11
27.1181
 21
108.533
  0
LINE
  8
0
 10
27.1181
 20
108.533
 11
29.445
 21
101.371
  0
LINE
  8
0
 10
29.445
 20
101.371
 11
24.0678
 21
98.3255
  0
LINE
  8
0
 10
24.0678
 20
98.3255
 11
24.0678
 21
110.23
  0
LINE
  8
0
 10
-19.6692
 20
104.33
 11
-9.0683
 21
110.229
  0
LINE
  8
0
 10
-9.0683
 20
110.229
 11
-9.0683
 21
98.326
  0
LINE
  8
0
 10
-9.0683
 20
98.326
 11
-19.6692
 21
104.33
  0
LINE
  8
0
 10
10.3308
 20
104.33
 11
20.9317
 21
110.229
  0
LINE
  8
0
 10
20.9317
 20
110.229
 11
20.9317
 21
98.326
  0
LINE
  8
0
 10
20.9317
 20
98.326
 11
10.3308
 21
104.33
  0
LINE
  8
0
 10
-28.0007
 20
105.816
 11
-25.3304
 21
104.33
  0
LINE
  8
0
 10
-25.3304
 20
104.33
 11
-29.1947
 21
102.141
  0
LINE
  8
0
 10
-29.1947
 20
102.141
 11
-28.0007
 21
105.816
  0
LINE
  8
0
 10
-21.0846
 20
101.879
 11
-10.5835
 21
95.7002
  0
LINE
  8
0
 10
-10.5835
 20
95.7002
 11
-20.8932
 21
89.7484
  0
LINE
  8
0
 10
-20.8932
 20
89.7484
 11
-21.0846
 21
101.879
  0
LINE
  8
0
 10
-4.4165
 20
95.7002
 11
6.08459
 21
101.879
  0
LINE
  8
0
 10
6.08459
 20
101.879
 11
5.89325
 21
89.7479
  0
LINE
  8
0
 10
5.89325
 20
89.7479
 11
-4.4165
 21
95.7002
  0
LINE
  8
0
 10
8.91541
 20
101.879
 11
19.4165
 21
95.7002
  0
LINE
  8
0
 10
19.4165
 20
95.7002
 11
9.10675
 21
89.7484
  0
LINE
  8
0
 10
9.10675
 20
89.7484
 11
8.91541
 21
101.879
  0
LINE
  8
0
 10
-31.7818
 20
94.1791
 11
-30.548
 21
97.9763
  0
LINE
  8
0
 10
-30.548
 20
97.9763
 11
-23.9154
 21
101.879
  0
LINE
  8
0
 10
-23.9154
 20
101.879
 11
-24.1068
 21
89.7479
  0
LINE
  8
0
 10
-24.1068
 20
89.7479
 11
-31.7818
 21
94.1791
  0
LINE
  8
0
 10
25.5835
 20
95.7002
 11
30.3721
 21
98.5177
  0
LINE
  8
0
 10
30.3721
 20
98.5177
 11
32.6047
 21
91.6466
  0
LINE
  8
0
 10
32.6047
 20
91.6466
 11
25.5835
 21
95.7002
  0
LINE
  8
0
 10
10.675
 20
87.0316
 11
20.9839
 21
92.9839
  0
LINE
  8
0
 10
20.9839
 20
92.9839
 11
21.0841
 21
80.8014
  0
LINE
  8
0
 10
21.0841
 20
80.8014
 11
10.675
 21
87.0316
  0
LINE
  8
0
 10
-19.325
 20
87.0316
 11
-9.01611
 21
92.9839
  0
LINE
  8
0
 10
-9.01611
 20
92.9839
 11
-8.91586
 21
80.8014
  0
LINE
  8
0
 10
-8.91586
 20
80.8014
 11
-19.325
 21
87.0316
  0
LINE
  8
0
 10
-5.98389
 20
92.9839
 11
4.32587
 21
87.032
  0
LINE
  8
0
 10
4.32587
 20
87.032
 11
-6.08459
 21
80.8009
  0
LINE
  8
0
 10
-6.08459
 20
80.8009
 11
-5.98389
 21
92.9839
  0
LINE
  8
0
 10
24.0161
 20
92.9839
 11
34.0528
 21
87.1896
  0
LINE
  8
0
 10
34.0528
 20
87.1896
 11
34.1402
 21
86.9209
  0
LINE
  8
0
 10
34.1402
 20
86.9209
 11
23.9154
 21
80.8009
  0
LINE
  8
0
 10
23.9154
 20
80.8009
 11
24.0161
 21
92.9839
  0
LINE
  8
0
 10
-36.0835
 20
80.94
 11
-32.7725
 21
91.1299
  0
LINE
  8
0
 10
-32.7725
 20
91.1299
 11
-25.6741
 21
87.032
  0
LINE
  8
0
 10
-25.6741
 20
87.032
 11
-36.0846
 21
80.8009
  0
LINE
  8
0
 10
-36.0846
 20
80.8009
 11
-36.0835
 21
80.94
  0
LINE
  8
0
 10
9.06784
 20
84.2493
 11
19.6696
 21
78.3492
  0
LINE
  8
0
 10
19.6696
 20
78.3492
 11
9.06784
 21
72.3447
  0
LINE
  8
0
 10
9.06784
 20
72.3447
 11
9.06784
 21
84.2493
  0
LINE
  8
0
 10
-20.9322
 20
84.2493
 11
-10.3304
 21
78.3492
  0
LINE
  8
0
 10
-10.3304
 20
78.3492
 11
-20.9322
 21
72.3447
  0
LINE
  8
0
 10
-20.9322
 20
72.3447
 11
-20.9322
 21
84.2493
  0
LINE
  8
0
 10
-34.6692
 20
78.3492
 11
-24.0683
 21
84.2484
  0
LINE
  8
0
 10
-24.0683
 20
84.2484
 11
-24.0683
 21
72.3451
  0
LINE
  8
0
 10
-24.0683
 20
72.3451
 11
-34.6692
 21
78.3492
  0
LINE
  8
0
 10
-4.66919
 20
78.3492
 11
5.9317
 21
84.2484
  0
LINE
  8
0
 10
5.9317
 20
84.2484
 11
5.9317
 21
72.3451
  0
LINE
  8
0
 10
5.9317
 20
72.3451
 11
-4.66919
 21
78.3492
  0
LINE
  8
0
 10
25.3308
 20
78.3492
 11
35.1499
 21
83.8133
  0
LINE
  8
0
 10
35.1499
 20
83.8133
 11
35.9317
 21
81.407
  0
LINE
  8
0
 10
35.9317
 20
81.407
 11
35.9317
 21
72.3451
  0
LINE
  8
0
 10
35.9317
 20
72.3451
 11
25.3308
 21
78.3492
  0
LINE
  8
0
 10
-19.4165
 20
69.7194
 11
-8.91541
 21
75.8978
  0
LINE
  8
0
 10
-8.91541
 20
75.8978
 11
-9.10675
 21
63.7671
  0
LINE
  8
0
 10
-9.10675
 20
63.7671
 11
-19.4165
 21
69.7194
  0
LINE
  8
0
 10
10.5835
 20
69.7194
 11
21.0846
 21
75.8978
  0
LINE
  8
0
 10
21.0846
 20
75.8978
 11
20.8932
 21
63.7671
  0
LINE
  8
0
 10
20.8932
 20
63.7671
 11
10.5835
 21
69.7194
  0
LINE
  8
0
 10
-6.08459
 20
75.8978
 11
4.4165
 21
69.7194
  0
LINE
  8
0
 10
4.4165
 20
69.7194
 11
-5.89325
 21
63.7675
  0
LINE
  8
0
 10
-5.89325
 20
63.7675
 11
-6.08459
 21
75.8978
  0
LINE
  8
0
 10
23.9154
 20
75.8978
 11
34.4165
 21
69.7194
  0
LINE
  8
0
 10
34.4165
 20
69.7194
 11
24.1068
 21
63.7675
  0
LINE
  8
0
 10
24.1068
 20
63.7675
 11
23.9154
 21
75.8978
  0
LINE
  8
0
 10
-36.0846
 20
75.8978
 11
-25.5835
 21
69.7194
  0
LINE
  8
0
 10
-25.5835
 20
69.7194
 11
-35.8932
 21
63.7675
  0
LINE
  8
0
 10
-35.8932
 20
63.7675
 11
-36.0846
 21
75.8978
  0
LINE
  8
0
 10
-41.2594
 20
65.0099
 11
-38.9763
 21
72.0367
  0
LINE
  8
0
 10
-38.9763
 20
72.0367
 11
-39.1068
 21
63.7671
  0
LINE
  8
0
 10
-39.1068
 20
63.7671
 11
-41.2594
 21
65.0099
  0
LINE
  8
0
 10
-34.325
 20
61.0507
 11
-24.0161
 21
67.003
  0
LINE
  8
0
 10
-24.0161
 20
67.003
 11
-23.9159
 21
54.8206
  0
LINE
  8
0
 10
-23.9159
 20
54.8206
 11
-34.325
 21
61.0507
  0
LINE
  8
0
 10
-20.9839
 20
67.003
 11
-10.6741
 21
61.0512
  0
LINE
  8
0
 10
-10.6741
 20
61.0512
 11
-21.0846
 21
54.8201
  0
LINE
  8
0
 10
-21.0846
 20
54.8201
 11
-20.9839
 21
67.003
  0
LINE
  8
0
 10
25.675
 20
61.0507
 11
35.9839
 21
67.003
  0
LINE
  8
0
 10
35.9839
 20
67.003
 11
36.0841
 21
54.8206
  0
LINE
  8
0
 10
36.0841
 20
54.8206
 11
25.675
 21
61.0507
  0
LINE
  8
0
 10
9.01611
 20
67.003
 11
19.3259
 21
61.0512
  0
LINE
  8
0
 10
19.3259
 20
61.0512
 11
8.91541
 21
54.8201
  0
LINE
  8
0
 10
8.91541
 20
54.8201
 11
9.01611
 21
67.003
  0
LINE
  8
0
 10
-4.32495
 20
61.0507
 11
5.98389
 21
67.003
  0
LINE
  8
0
 10
5.98389
 20
67.003
 11
6.08414
 21
54.8206
  0
LINE
  8
0
 10
6.08414
 20
54.8206
 11
-4.32495
 21
61.0507
  0
LINE
  8
0
 10
39.0161
 20
67.003
 11
40.9803
 21
65.8691
  0
LINE
  8
0
 10
40.9803
 20
65.8691
 11
43.6496
 21
57.6537
  0
LINE
  8
0
 10
43.6496
 20
57.6537
 11
38.9154
 21
54.8201
  0
LINE
  8
0
 10
38.9154
 20
54.8201
 11
39.0161
 21
67.003
  0
LINE
  8
0
 10
-42.2501
 20
61.961
 11
-40.6741
 21
61.0512
  0
LINE
  8
0
 10
-40.6741
 20
61.0512
 11
-42.9976
 21
59.6605
  0
LINE
  8
0
 10
-42.9976
 20
59.6605
 11
-42.2501
 21
61.961
  0
LINE
  8
0
 10
-5.93216
 20
58.2684
 11
4.66965
 21
52.3683
  0
LINE
  8
0
 10
4.66965
 20
52.3683
 11
-5.93216
 21
46.3638
  0
LINE
  8
0
 10
-5.93216
 20
46.3638
 11
-5.93216
 21
58.2684
  0
LINE
  8
0
 10
24.0678
 20
58.2684
 11
34.6696
 21
52.3683
  0
LINE
  8
0
 10
34.6696
 20
52.3683
 11
24.0678
 21
46.3638
  0
LINE
  8
0
 10
24.0678
 20
46.3638
 11
24.0678
 21
58.2684
  0
LINE
  8
0
 10
-35.9322
 20
58.2684
 11
-25.3304
 21
52.3683
  0
LINE
  8
0
 10
-25.3304
 20
52.3683
 11
-35.9322
 21
46.3638
  0
LINE
  8
0
 10
-35.9322
 20
46.3638
 11
-35.9322
 21
58.2684
  0
LINE
  8
0
 10
-46.0356
 20
50.3104
 11
-44.4174
 21
55.2909
  0
LINE
  8
0
 10
-44.4174
 20
55.2909
 11
-39.0683
 21
58.2675
  0
LINE
  8
0
 10
-39.0683
 20
58.2675
 11
-39.0683
 21
46.3643
  0
LINE
  8
0
 10
-39.0683
 20
46.3643
 11
-46.0356
 21
50.3104
  0
LINE
  8
0
 10
10.3308
 20
52.3683
 11
20.9317
 21
58.2675
  0
LINE
  8
0
 10
20.9317
 20
58.2675
 11
20.9317
 21
46.3643
  0
LINE
  8
0
 10
20.9317
 20
46.3643
 11
10.3308
 21
52.3683
  0
LINE
  8
0
 10
-19.6692
 20
52.3683
 11
-9.0683
 21
58.2675
  0
LINE
  8
0
 10
-9.0683
 20
58.2675
 11
-9.0683
 21
46.3643
  0
LINE
  8
0
 10
-9.0683
 20
46.3643
 11
-19.6692
 21
52.3683
  0
LINE
  8
0
 10
40.3308
 20
52.3683
 11
44.5958
 21
54.7417
  0
LINE
  8
0
 10
44.5958
 20
54.7417
 11
46.5027
 21
48.8727
  0
LINE
  8
0
 10
46.5027
 20
48.8727
 11
40.3308
 21
52.3683
  0
LINE
  8
0
 10
25.5835
 20
43.7386
 11
36.0846
 21
49.917
  0
LINE
  8
0
 10
36.0846
 20
49.917
 11
35.8932
 21
37.7863
  0
LINE
  8
0
 10
35.8932
 20
37.7863
 11
25.5835
 21
43.7386
  0
LINE
  8
0
 10
-34.4165
 20
43.7386
 11
-23.9154
 21
49.917
  0
LINE
  8
0
 10
-23.9154
 20
49.917
 11
-24.1068
 21
37.7863
  0
LINE
  8
0
 10
-24.1068
 20
37.7863
 11
-34.4165
 21
43.7386
  0
LINE
  8
0
 10
38.9154
 20
49.917
 11
47.8765
 21
44.6446
  0
LINE
  8
0
 10
47.8765
 20
44.6446
 11
48.3677
 21
43.1331
  0
LINE
  8
0
 10
48.3677
 20
43.1331
 11
39.1068
 21
37.7867
  0
LINE
  8
0
 10
39.1068
 20
37.7867
 11
38.9154
 21
49.917
  0
LINE
  8
0
 10
-4.4165
 20
43.7386
 11
6.08459
 21
49.917
  0
LINE
  8
0
 10
6.08459
 20
49.917
 11
5.89325
 21
37.7863
  0
LINE
  8
0
 10
5.89325
 20
37.7863
 11
-4.4165
 21
43.7386
  0
LINE
  8
0
 10
-21.0846
 20
49.917
 11
-10.5835
 21
43.7386
  0
LINE
  8
0
 10
-10.5835
 20
43.7386
 11
-20.8932
 21
37.7867
  0
LINE
  8
0
 10
-20.8932
 20
37.7867
 11
-21.0846
 21
49.917
  0
LINE
  8
0
 10
8.91541
 20
49.917
 11
19.4165
 21
43.7386
  0
LINE
  8
0
 10
19.4165
 20
43.7386
 11
9.10675
 21
37.7867
  0
LINE
  8
0
 10
9.10675
 20
37.7867
 11
8.91541
 21
49.917
  0
LINE
  8
0
 10
-46.9532
 20
47.4863
 11
-40.5835
 21
43.7386
  0
LINE
  8
0
 10
-40.5835
 20
43.7386
 11
-49.9228
 21
38.347
  0
LINE
  8
0
 10
-49.9228
 20
38.347
 11
-46.9532
 21
47.4863
  0
LINE
  8
0
 10
24.0161
 20
41.0222
 11
34.3259
 21
35.0703
  0
LINE
  8
0
 10
34.3259
 20
35.0703
 11
23.9154
 21
28.8393
  0
LINE
  8
0
 10
23.9154
 20
28.8393
 11
24.0161
 21
41.0222
  0
LINE
  8
0
 10
-49.325
 20
35.0699
 11
-39.0161
 21
41.0222
  0
LINE
  8
0
 10
-39.0161
 20
41.0222
 11
-38.9159
 21
28.8397
  0
LINE
  8
0
 10
-38.9159
 20
28.8397
 11
-49.325
 21
35.0699
  0
LINE
  8
0
 10
10.675
 20
35.0699
 11
20.9839
 21
41.0222
  0
LINE
  8
0
 10
20.9839
 20
41.0222
 11
21.0841
 21
28.8397
  0
LINE
  8
0
 10
21.0841
 20
28.8397
 11
10.675
 21
35.0699
  0
LINE
  8
0
 10
-5.98389
 20
41.0222
 11
4.32587
 21
35.0703
  0
LINE
  8
0
 10
4.32587
 20
35.0703
 11
-6.08459
 21
28.8393
  0
LINE
  8
0
 10
-6.08459
 20
28.8393
 11
-5.98389
 21
41.0222
  0
LINE
  8
0
 10
-35.9839
 20
41.0222
 11
-25.6741
 21
35.0703
  0
LINE
  8
0
 10
-25.6741
 20
35.0703
 11
-36.0846
 21
28.8393
  0
LINE
  8
0
 10
-36.0846
 20
28.8393
 11
-35.9839
 21
41.0222
  0
LINE
  8
0
 10
-19.325
 20
35.0699
 11
-9.01611
 21
41.0222
  0
LINE
  8
0
 10
-9.01611
 20
41.0222
 11
-8.91586
 21
28.8397
  0
LINE
  8
0
 10
-8.91586
 20
28.8397
 11
-19.325
 21
35.0699
  0
LINE
  8
0
 10
40.675
 20
35.0699
 11
49.3585
 21
40.0837
  0
LINE
  8
0
 10
49.3585
 20
40.0837
 11
51.034
 21
34.9268
  0
LINE
  8
0
 10
51.034
 20
34.9268
 11
51.0841
 21
28.8397
  0
LINE
  8
0
 10
51.0841
 20
28.8397
 11
40.675
 21
35.0699
  0
LINE
  8
0
 10
39.0678
 20
32.2876
 11
49.6696
 21
26.3875
  0
LINE
  8
0
 10
49.6696
 20
26.3875
 11
39.0678
 21
20.383
  0
LINE
  8
0
 10
39.0678
 20
20.383
 11
39.0678
 21
32.2876
  0
LINE
  8
0
 10
9.06784
 20
32.2876
 11
19.6696
 21
26.3875
  0
LINE
  8
0
 10
19.6696
 20
26.3875
 11
9.06784
 21
20.383
  0
LINE
  8
0
 10
9.06784
 20
20.383
 11
9.06784
 21
32.2876
  0
LINE
  8
0
 10
-20.9322
 20
32.2876
 11
-10.3304
 21
26.3875
  0
LINE
  8
0
 10
-10.3304
 20
26.3875
 11
-20.9322
 21
20.383
  0
LINE
  8
0
 10
-20.9322
 20
20.383
 11
-20.9322
 21
32.2876
  0
LINE
  8
0
 10
-50.9322
 20
32.2876
 11
-40.3304
 21
26.3875
  0
LINE
  8
0
 10
-40.3304
 20
26.3875
 11
-50.9322
 21
20.383
  0
LINE
  8
0
 10
-50.9322
 20
20.383
 11
-50.9322
 21
32.2876
  0
LINE
  8
0
 10
-34.6692
 20
26.3875
 11
-24.0683
 21
32.2867
  0
LINE
  8
0
 10
-24.0683
 20
32.2867
 11
-24.0683
 21
20.3835
  0
LINE
  8
0
 10
-24.0683
 20
20.3835
 11
-34.6692
 21
26.3875
  0
LINE
  8
0
 10
-4.66919
 20
26.3875
 11
5.9317
 21
32.2867
  0
LINE
  8
0
 10
5.9317
 20
32.2867
 11
5.9317
 21
20.3835
  0
LINE
  8
0
 10
5.9317
 20
20.3835
 11
-4.66919
 21
26.3875
  0
LINE
  8
0
 10
25.3308
 20
26.3875
 11
35.9317
 21
32.2867
  0
LINE
  8
0
 10
35.9317
 20
32.2867
 11
35.9317
 21
20.3835
  0
LINE
  8
0
 10
35.9317
 20
20.3835
 11
25.3308
 21
26.3875
  0
LINE
  8
0
 10
-55.4966
 20
21.1924
 11
-54.0683
 21
25.5883
  0
LINE
  8
0
 10
-54.0683
 20
25.5883
 11
-54.0683
 21
20.3835
  0
LINE
  8
0
 10
-54.0683
 20
20.3835
 11
-55.4966
 21
21.1924
  0
LINE
  8
0
 10
-9.44377
 20
12
 11
-19.4165
 21
17.7577
  0
LINE
  8
0
 10
-19.4165
 20
17.7577
 11
-8.91541
 21
23.9362
  0
LINE
  8
0
 10
-8.91541
 20
23.9362
 11
-9.10368
 21
12
  0
LINE
  8
0
 10
-9.10368
 20
12
 11
-9.44377
 21
12
  0
LINE
  8
0
 10
50.5562
 20
12
 11
40.5835
 21
17.7577
  0
LINE
  8
0
 10
40.5835
 20
17.7577
 11
51.0846
 21
23.9362
  0
LINE
  8
0
 10
51.0846
 20
23.9362
 11
50.8963
 21
12
  0
LINE
  8
0
 10
50.8963
 20
12
 11
50.5562
 21
12
  0
LINE
  8
0
 10
24.1037
 20
12
 11
23.9154
 21
23.9362
  0
LINE
  8
0
 10
23.9154
 20
23.9362
 11
34.4165
 21
17.7577
  0
LINE
  8
0
 10
34.4165
 20
17.7577
 11
24.443
 21
12
  0
LINE
  8
0
 10
24.443
 20
12
 11
24.1037
 21
12
  0
LINE
  8
0
 10
20.5562
 20
12
 11
10.5835
 21
17.7577
  0
LINE
  8
0
 10
10.5835
 20
17.7577
 11
21.0846
 21
23.9362
  0
LINE
  8
0
 10
21.0846
 20
23.9362
 11
20.8963
 21
12
  0
LINE
  8
0
 10
20.8963
 20
12
 11
20.5562
 21
12
  0
LINE
  8
0
 10
-35.8963
 20
12
 11
-36.0846
 21
23.9362
  0
LINE
  8
0
 10
-36.0846
 20
23.9362
 11
-25.5835
 21
17.7577
  0
LINE
  8
0
 10
-25.5835
 20
17.7577
 11
-35.557
 21
12
  0
LINE
  8
0
 10
-35.557
 20
12
 11
-35.8963
 21
12
  0
LINE
  8
0
 10
54.1037
 20
12
 11
53.9154
 21
23.9362
  0
LINE
  8
0
 10
53.9154
 20
23.9362
 11
54.7681
 21
23.4344
  0
LINE
  8
0
 10
54.7681
 20
23.4344
 11
57.8452
 21
13.9641
  0
LINE
  8
0
 10
57.8452
 20
13.9641
 11
54.443
 21
12
  0
LINE
  8
0
 10
54.443
 20
12
 11
54.1037
 21
12
  0
LINE
  8
0
 10
-39.4438
 20
12
 11
-49.4165
 21
17.7577
  0
LINE
  8
0
 10
-49.4165
 20
17.7577
 11
-38.9154
 21
23.9362
  0
LINE
  8
0
 10
-38.9154
 20
23.9362
 11
-39.1037
 21
12
  0
LINE
  8
0
 10
-39.1037
 20
12
 11
-39.4438
 21
12
  0
LINE
  8
0
 10
-5.89632
 20
12
 11
-6.08459
 21
23.9362
  0
LINE
  8
0
 10
-6.08459
 20
23.9362
 11
4.4165
 21
17.7577
  0
LINE
  8
0
 10
4.4165
 20
17.7577
 11
-5.55699
 21
12
  0
LINE
  8
0
 10
-5.55699
 20
12
 11
-5.89632
 21
12
  0
LINE
  8
0
 10
-56.4474
 20
18.266
 11
-55.5835
 21
17.7577
  0
LINE
  8
0
 10
-55.5835
 20
17.7577
 11
-56.8502
 21
17.0264
  0
LINE
  8
0
 10
-56.8502
 20
17.0264
 11
-56.4474
 21
18.266
  0
LINE
  8
0
 10
-29.2834
 20
12
 11
-24.0161
 21
15.0414
  0
LINE
  8
0
 10
-24.0161
 20
15.0414
 11
-23.9911
 21
12
  0
LINE
  8
0
 10
-23.9911
 20
12
 11
-29.2834
 21
12
  0
LINE
  8
0
 10
-58.4834
 20
12
 11
-58.2987
 21
12.5686
  0
LINE
  8
0
 10
-58.2987
 20
12.5686
 11
-54.0161
 21
15.0414
  0
LINE
  8
0
 10
-54.0161
 20
15.0414
 11
-53.9911
 21
12
  0
LINE
  8
0
 10
-53.9911
 20
12
 11
-58.4834
 21
12
  0
LINE
  8
0
 10
38.991
 20
12
 11
39.0161
 21
15.0414
  0
LINE
  8
0
 10
39.0161
 20
15.0414
 11
44.2843
 21
12
  0
LINE
  8
0
 10
44.2843
 20
12
 11
38.991
 21
12
  0
LINE
  8
0
 10
-51.009
 20
12
 11
-50.9839
 21
15.0414
  0
LINE
  8
0
 10
-50.9839
 20
15.0414
 11
-45.7157
 21
12
  0
LINE
  8
0
 10
-45.7157
 20
12
 11
-51.009
 21
12
  0
LINE
  8
0
 10
-21.009
 20
12
 11
-20.9839
 21
15.0414
  0
LINE
  8
0
 10
-20.9839
 20
15.0414
 11
-15.7157
 21
12
  0
LINE
  8
0
 10
-15.7157
 20
12
 11
-21.009
 21
12
  0
LINE
  8
0
 10
0.716553
 20
12
 11
5.98389
 21
15.0414
  0
LINE
  8
0
 10
5.98389
 20
15.0414
 11
6.00891
 21
12
  0
LINE
  8
0
 10
6.00891
 20
12
 11
0.716553
 21
12
  0
LINE
  8
0
 10
8.99097
 20
12
 11
9.01611
 21
15.0414
  0
LINE
  8
0
 10
9.01611
 20
15.0414
 11
14.2843
 21
12
  0
LINE
  8
0
 10
14.2843
 20
12
 11
8.99097
 21
12
  0
LINE
  8
0
 10
30.7166
 20
12
 11
35.9839
 21
15.0414
  0
LINE
  8
0
 10
35.9839
 20
15.0414
 11
36.0089
 21
12
  0
LINE
  8
0
 10
36.0089
 20
12
 11
30.7166
 21
12
  0
LINE
  8
0
 10
-10
 20
7
 11
-10
 21
11
  0
LINE
  8
0
 10
-10
 20
11
 11
10
 21
11
  0
LINE
  8
0
 10
10
 20
11
 11
10
 21
7
  0
LINE
  8
0
 10
10
 20
7
 11
-10
 21
7
  0
LINE
  8
0
 10
-68.6534
 20
2.70622
 11
-68.7785
 21
2.71805
  0
LINE
  8
0
 10
-68.7785
 20
2.71805
 11
-68.9026
 21
2.7377
  0
LINE
  8
0
 10
-68.9026
 20
2.7377
 11
-69.0252
 21
2.76511
  0
LINE
  8
0
 10
-69.0252
 20
2.76511
 11
-69.1459
 21
2.80016
  0
LINE
  8
0
 10
-69.1459
 20
2.80016
 11
-69.2641
 21
2.84273
  0
LINE
  8
0
 10
-69.2641
 20
2.84273
 11
-69.3794
 21
2.89262
  0
LINE
  8
0
 10
-69.3794
 20
2.89262
 11
-69.4914
 21
2.94966
  0
LINE
  8
0
 10
-69.4914
 20
2.94966
 11
-69.5995
 21
3.01363
  0
LINE
  8
0
 10
-69.5995
 20
3.01363
 11
-69.7034
 21
3.08424
  0
LINE
  8
0
 10
-69.7034
 20
3.08424
 11
-69.8027
 21
3.16125
  0
LINE
  8
0
 10
-69.8027
 20
3.16125
 11
-69.897
 21
3.24434
  0
LINE
  8
0
 10
-69.897
 20
3.24434
 11
-69.9858
 21
3.33318
  0
LINE
  8
0
 10
-69.9858
 20
3.33318
 11
-70.0689
 21
3.42743
  0
LINE
  8
0
 10
-70.0689
 20
3.42743
 11
-70.1459
 21
3.5267
  0
LINE
  8
0
 10
-70.1459
 20
3.5267
 11
-70.2165
 21
3.63062
  0
LINE
  8
0
 10
-70.2165
 20
3.63062
 11
-70.2805
 21
3.73877
  0
LINE
  8
0
 10
-70.2805
 20
3.73877
 11
-70.3375
 21
3.85072
  0
LINE
  8
0
 10
-70.3375
 20
3.85072
 11
-70.3874
 21
3.96602
  0
LINE
  8
0
 10
-70.3874
 20
3.96602
 11
-70.43
 21
4.08424
  0
LINE
  8
0
 10
-70.43
 20
4.08424
 11
-70.465
 21
4.2049
  0
LINE
  8
0
 10
-70.465
 20
4.2049
 11
-70.4924
 21
4.32751
  0
LINE
  8
0
 10
-70.4924
 20
4.32751
 11
-70.5121
 21
4.45161
  0
LINE
  8
0
 10
-70.5121
 20
4.45161
 11
-70.5239
 21
4.57669
  0
LINE
  8
0
 10
-70.5239
 20
4.57669
 11
-70.5279
 21
4.70227
  0
LINE
  8
0
 10
-70.5279
 20
4.70227
 11
-70.5239
 21
4.82785
  0
LINE
  8
0
 10
-70.5239
 20
4.82785
 11
-70.5121
 21
4.95294
  0
LINE
  8
0
 10
-70.5121
 20
4.95294
 11
-70.4924
 21
5.07704
  0
LINE
  8
0
 10
-70.4924
 20
5.07704
 11
-70.465
 21
5.19966
  0
LINE
  8
0
 10
-70.465
 20
5.19966
 11
-70.43
 21
5.32031
  0
LINE
  8
0
 10
-70.43
 20
5.32031
 11
-70.3874
 21
5.43852
  0
LINE
  8
0
 10
-70.3874
 20
5.43852
 11
-70.3375
 21
5.55383
  0
LINE
  8
0
 10
-70.3375
 20
5.55383
 11
-70.2805
 21
5.66579
  0
LINE
  8
0
 10
-70.2805
 20
5.66579
 11
-70.2165
 21
5.77393
  0
LINE
  8
0
 10
-70.2165
 20
5.77393
 11
-70.1459
 21
5.87784
  0
LINE
  8
0
 10
-70.1459
 20
5.87784
 11
-70.0689
 21
5.97713
  0
LINE
  8
0
 10
-70.0689
 20
5.97713
 11
-69.9858
 21
6.07137
  0
LINE
  8
0
 10
-69.9858
 20
6.07137
 11
-69.897
 21
6.16022
  0
LINE
  8
0
 10
-69.897
 20
6.16022
 11
-69.8027
 21
6.2433
  0
LINE
  8
0
 10
-69.8027
 20
6.2433
 11
-69.7034
 21
6.32031
  0
LINE
  8
0
 10
-69.7034
 20
6.32031
 11
-69.5995
 21
6.39093
  0
LINE
  8
0
 10
-69.5995
 20
6.39093
 11
-69.4914
 21
6.4549
  0
LINE
  8
0
 10
-69.4914
 20
6.4549
 11
-69.3794
 21
6.51193
  0
LINE
  8
0
 10
-69.3794
 20
6.51193
 11
-69.2641
 21
6.56183
  0
LINE
  8
0
 10
-69.2641
 20
6.56183
 11
-69.1459
 21
6.60439
  0
LINE
  8
0
 10
-69.1459
 20
6.60439
 11
-69.0252
 21
6.63943
  0
LINE
  8
0
 10
-69.0252
 20
6.63943
 11
-68.9026
 21
6.66685
  0
LINE
  8
0
 10
-68.9026
 20
6.66685
 11
-68.7785
 21
6.68651
  0
LINE
  8
0
 10
-68.7785
 20
6.68651
 11
-68.6534
 21
6.69833
  0
LINE
  8
0
 10
-68.6534
 20
6.69833
 11
-68.5279
 21
6.70227
  0
LINE
  8
0
 10
-68.5279
 20
6.70227
 11
-68.4023
 21
6.69833
  0
LINE
  8
0
 10
-68.4023
 20
6.69833
 11
-68.2772
 21
6.68651
  0
LINE
  8
0
 10
-68.2772
 20
6.68651
 11
-68.1531
 21
6.66685
  0
LINE
  8
0
 10
-68.1531
 20
6.66685
 11
-68.0305
 21
6.63943
  0
LINE
  8
0
 10
-68.0305
 20
6.63943
 11
-67.9098
 21
6.60439
  0
LINE
  8
0
 10
-67.9098
 20
6.60439
 11
-67.7916
 21
6.56183
  0
LINE
  8
0
 10
-67.7916
 20
6.56183
 11
-67.6763
 21
6.51193
  0
LINE
  8
0
 10
-67.6763
 20
6.51193
 11
-67.5643
 21
6.4549
  0
LINE
  8
0
 10
-67.5643
 20
6.4549
 11
-67.4562
 21
6.39093
  0
LINE
  8
0
 10
-67.4562
 20
6.39093
 11
-67.3523
 21
6.32031
  0
LINE
  8
0
 10
-67.3523
 20
6.32031
 11
-67.253
 21
6.2433
  0
LINE
  8
0
 10
-67.253
 20
6.2433
 11
-67.1588
 21
6.16022
  0
LINE
  8
0
 10
-67.1588
 20
6.16022
 11
-67.0699
 21
6.07137
  0
LINE
  8
0
 10
-67.0699
 20
6.07137
 11
-66.9868
 21
5.97713
  0
LINE
  8
0
 10
-66.9868
 20
5.97713
 11
-66.9098
 21
5.87784
  0
LINE
  8
0
 10
-66.9098
 20
5.87784
 11
-66.8392
 21
5.77393
  0
LINE
  8
0
 10
-66.8392
 20
5.77393
 11
-66.7752
 21
5.66579
  0
LINE
  8
0
 10
-66.7752
 20
5.66579
 11
-66.7182
 21
5.55383
  0
LINE
  8
0
 10
-66.7182
 20
5.55383
 11
-66.6683
 21
5.43852
  0
LINE
  8
0
 10
-66.6683
 20
5.43852
 11
-66.6257
 21
5.32031
  0
LINE
  8
0
 10
-66.6257
 20
5.32031
 11
-66.5907
 21
5.19966
  0
LINE
  8
0
 10
-66.5907
 20
5.19966
 11
-66.5633
 21
5.07704
  0
LINE
  8
0
 10
-66.5633
 20
5.07704
 11
-66.5436
 21
4.95294
  0
LINE
  8
0
 10
-66.5436
 20
4.95294
 11
-66.5318
 21
4.82785
  0
LINE
  8
0
 10
-66.5318
 20
4.82785
 11
-66.5279
 21
4.70227
  0
LINE
  8
0
 10
-66.5279
 20
4.70227
 11
-66.5318
 21
4.57669
  0
LINE
  8
0
 10
-66.5318
 20
4.57669
 11
-66.5436
 21
4.45161
  0
LINE
  8
0
 10
-66.5436
 20
4.45161
 11
-66.5633
 21
4.32751
  0
LINE
  8
0
 10
-66.5633
 20
4.32751
 11
-66.5907
 21
4.2049
  0
LINE
  8
0
 10
-66.5907
 20
4.2049
 11
-66.6257
 21
4.08424
  0
LINE
  8
0
 10
-66.6257
 20
4.08424
 11
-66.6683
 21
3.96602
  0
LINE
  8
0
 10
-66.6683
 20
3.96602
 11
-66.7182
 21
3.85072
  0
LINE
  8
0
 10
-66.7182
 20
3.85072
 11
-66.7752
 21
3.73877
  0
LINE
  8
0
 10
-66.7752
 20
3.73877
 11
-66.8392
 21
3.63062
  0
LINE
  8
0
 10
-66.8392
 20
3.63062
 11
-66.9098
 21
3.5267
  0
LINE
  8
0
 10
-66.9098
 20
3.5267
 11
-66.9868
 21
3.42743
  0
LINE
  8
0
 10
-66.9868
 20
3.42743
 11
-67.0699
 21
3.33318
  0
LINE
  8
0
 10
-67.0699
 20
3.33318
 11
-67.1588
 21
3.24434
  0
LINE
  8
0
 10
-67.1588
 20
3.24434
 11
-67.253
 21
3.16125
  0
LINE
  8
0
 10
-67.253
 20
3.16125
 11
-67.3523
 21
3.08424
  0
LINE
  8
0
 10
-67.3523
 20
3.08424
 11
-67.4562
 21
3.01363
  0
LINE
  8
0
 10
-67.4562
 20
3.01363
 11
-67.5643
 21
2.94966
  0
LINE
  8
0
 10
-67.5643
 20
2.94966
 11
-67.6763
 21
2.89262
  0
LINE
  8
0
 10
-67.6763
 20
2.89262
 11
-67.7916
 21
2.84273
  0
LINE
  8
0
 10
-67.7916
 20
2.84273
 11
-67.9098
 21
2.80016
  0
LINE
  8
0
 10
-67.9098
 20
2.80016
 11
-68.0305
 21
2.76511
  0
LINE
  8
0
 10
-68.0305
 20
2.76511
 11
-68.1531
 21
2.7377
  0
LINE
  8
0
 10
-68.1531
 20
2.7377
 11
-68.2772
 21
2.71805
  0
LINE
  8
0
 10
-68.2772
 20
2.71805
 11
-68.4023
 21
2.70622
  0
LINE
  8
0
 10
-68.4023
 20
2.70622
 11
-68.5279
 21
2.70227
  0
LINE
  8
0
 10
-68.5279
 20
2.70227
 11
-68.6534
 21
2.70622
  0
LINE
  8
0
 10
68.4023
 20
2.70622
 11
68.2772
 21
2.71805
  0
LINE
  8
0
 10
68.2772
 20
2.71805
 11
68.1531
 21
2.7377
  0
LINE
  8
0
 10
68.1531
 20
2.7377
 11
68.0305
 21
2.76511
  0
LINE
  8
0
 10
68.0305
 20
2.76511
 11
67.9098
 21
2.80016
  0
LINE
  8
0
 10
67.9098
 20
2.80016
 11
67.7916
 21
2.84273
  0
LINE
  8
0
 10
67.7916
 20
2.84273
 11
67.6763
 21
2.89262
  0
LINE
  8
0
 10
67.6763
 20
2.89262
 11
67.5643
 21
2.94966
  0
LINE
  8
0
 10
67.5643
 20
2.94966
 11
67.4562
 21
3.01363
  0
LINE
  8
0
 10
67.4562
 20
3.01363
 11
67.3523
 21
3.08424
  0
LINE
  8
0
 10
67.3523
 20
3.08424
 11
67.253
 21
3.16125
  0
LINE
  8
0
 10
67.253
 20
3.16125
 11
67.1588
 21
3.24434
  0
LINE
  8
0
 10
67.1588
 20
3.24434
 11
67.0699
 21
3.33318
  0
LINE
  8
0
 10
67.0699
 20
3.33318
 11
66.9868
 21
3.42743
  0
LINE
  8
0
 10
66.9868
 20
3.42743
 11
66.9098
 21
3.5267
  0
LINE
  8
0
 10
66.9098
 20
3.5267
 11
66.8392
 21
3.63062
  0
LINE
  8
0
 10
66.8392
 20
3.63062
 11
66.7752
 21
3.73877
  0
LINE
  8
0
 10
66.7752
 20
3.73877
 11
66.7182
 21
3.85072
  0
LINE
  8
0
 10
66.7182
 20
3.85072
 11
66.6683
 21
3.96602
  0
LINE
  8
0
 10
66.6683
 20
3.96602
 11
66.6257
 21
4.08424
  0
LINE
  8
0
 10
66.6257
 20
4.08424
 11
66.5907
 21
4.2049
  0
LINE
  8
0
 10
66.5907
 20
4.2049
 11
66.5633
 21
4.32751
  0
LINE
  8
0
 10
66.5633
 20
4.32751
 11
66.5436
 21
4.45161
  0
LINE
  8
0
 10
66.5436
 20
4.45161
 11
66.5318
 21
4.57669
  0
LINE
  8
0
 10
66.5318
 20
4.57669
 11
66.5279
 21
4.70227
  0
LINE
  8
0
 10
66.5279
 20
4.70227
 11
66.5318
 21
4.82785
  0
LINE
  8
0
 10
66.5318
 20
4.82785
 11
66.5436
 21
4.95294
  0
LINE
  8
0
 10
66.5436
 20
4.95294
 11
66.5633
 21
5.07704
  0
LINE
  8
0
 10
66.5633
 20
5.07704
 11
66.5907
 21
5.19966
  0
LINE
  8
0
 10
66.5907
 20
5.19966
 11
66.6257
 21
5.32031
  0
LINE
  8
0
 10
66.6257
 20
5.32031
 11
66.6683
 21
5.43852
  0
LINE
  8
0
 10
66.6683
 20
5.43852
 11
66.7182
 21
5.55383
  0
LINE
  8
0
 10
66.7182
 20
5.55383
 11
66.7752
 21
5.66579
  0
LINE
  8
0
 10
66.7752
 20
5.66579
 11
66.8392
 21
5.77393
  0
LINE
  8
0
 10
66.8392
 20
5.77393
 11
66.9098
 21
5.87784
  0
LINE
  8
0
 10
66.9098
 20
5.87784
 11
66.9868
 21
5.97713
  0
LINE
  8
0
 10
66.9868
 20
5.97713
 11
67.0699
 21
6.07137
  0
LINE
  8
0
 10
67.0699
 20
6.07137
 11
67.1588
 21
6.16022
  0
LINE
  8
0
 10
67.1588
 20
6.16022
 11
67.253
 21
6.2433
  0
LINE
  8
0
 10
67.253
 20
6.2433
 11
67.3523
 21
6.32031
  0
LINE
  8
0
 10
67.3523
 20
6.32031
 11
67.4562
 21
6.39093
  0
LINE
  8
0
 10
67.4562
 20
6.39093
 11
67.5643
 21
6.4549
  0
LINE
  8
0
 10
67.5643
 20
6.4549
 11
67.6763
 21
6.51193
  0
LINE
  8
0
 10
67.6763
 20
6.51193
 11
67.7916
 21
6.56183
  0
LINE
  8
0
 10
67.7916
 20
6.56183
 11
67.9098
 21
6.60439
  0
LINE
  8
0
 10
67.9098
 20
6.60439
 11
68.0305
 21
6.63943
  0
LINE
  8
0
 10
68.0305
 20
6.63943
 11
68.1531
 21
6.66685
  0
LINE
  8
0
 10
68.1531
 20
6.66685
 11
68.2772
 21
6.68651
  0
LINE
  8
0
 10
68.2772
 20
6.68651
 11
68.4023
 21
6.69833
  0
LINE
  8
0
 10
68.4023
 20
6.69833
 11
68.5279
 21
6.70227
  0
LINE
  8
0
 10
68.5279
 20
6.70227
 11
68.6534
 21
6.69833
  0
LINE
  8
0
 10
68.6534
 20
6.69833
 11
68.7785
 21
6.68651
  0
LINE
  8
0
 10
68.7785
 20
6.68651
 11
68.9026
 21
6.66685
  0
LINE
  8
0
 10
68.9026
 20
6.66685
 11
69.0252
 21
6.63943
  0
LINE
  8
0
 10
69.0252
 20
6.63943
 11
69.1459
 21
6.60439
  0
LINE
  8
0
 10
69.1459
 20
6.60439
 11
69.2641
 21
6.56183
  0
LINE
  8
0
 10
69.2641
 20
6.56183
 11
69.3794
 21
6.51193
  0
LINE
  8
0
 10
69.3794
 20
6.51193
 11
69.4914
 21
6.4549
  0
LINE
  8
0
 10
69.4914
 20
6.4549
 11
69.5995
 21
6.39093
  0
LINE
  8
0
 10
69.5995
 20
6.39093
 11
69.7034
 21
6.32031
  0
LINE
  8
0
 10
69.7034
 20
6.32031
 11
69.8027
 21
6.2433
  0
LINE
  8
0
 10
69.8027
 20
6.2433
 11
69.897
 21
6.16022
  0
LINE
  8
0
 10
69.897
 20
6.16022
 11
69.9858
 21
6.07137
  0
LINE
  8
0
 10
69.9858
 20
6.07137
 11
70.0689
 21
5.97713
  0
LINE
  8
0
 10
70.0689
 20
5.97713
 11
70.1459
 21
5.87784
  0
LINE
  8
0
 10
70.1459
 20
5.87784
 11
70.2165
 21
5.77393
  0
LINE
  8
0
 10
70.2165
 20
5.77393
 11
70.2805
 21
5.66579
  0
LINE
  8
0
 10
70.2805
 20
5.66579
 11
70.3375
 21
5.55383
  0
LINE
  8
0
 10
70.3375
 20
5.55383
 11
70.3874
 21
5.43852
  0
LINE
  8
0
 10
70.3874
 20
5.43852
 11
70.43
 21
5.32031
  0
LINE
  8
0
 10
70.43
 20
5.32031
 11
70.465
 21
5.19966
  0
LINE
  8
0
 10
70.465
 20
5.19966
 11
70.4924
 21
5.07704
  0
LINE
  8
0
 10
70.4924
 20
5.07704
 11
70.5121
 21
4.95294
  0
LINE
  8
0
 10
70.5121
 20
4.95294
 11
70.5239
 21
4.82785
  0
LINE
  8
0
 10
70.5239
 20
4.82785
 11
70.5279
 21
4.70227
  0
LINE
  8
0
 10
70.5279
 20
4.70227
 11
70.5239
 21
4.57669
  0
LINE
  8
0
 10
70.5239
 20
4.57669
 11
70.5121
 21
4.45161
  0
LINE
  8
0
 10
70.5121
 20
4.45161
 11
70.4924
 21
4.32751
  0
LINE
  8
0
 10
70.4924
 20
4.32751
 11
70.465
 21
4.2049
  0
LINE
  8
0
 10
70.465
 20
4.2049
 11
70.43
 21
4.08424
  0
LINE
  8
0
 10
70.43
 20
4.08424
 11
70.3874
 21
3.96602
  0
LINE
  8
0
 10
70.3874
 20
3.96602
 11
70.3375
 21
3.85072
  0
LINE
  8
0
 10
70.3375
 20
3.85072
 11
70.2805
 21
3.73877
  0
LINE
  8
0
 10
70.2805
 20
3.73877
 11
70.2165
 21
3.63062
  0
LINE
  8
0
 10
70.2165
 20
3.63062
 11
70.1459
 21
3.5267
  0
LINE
  8
0
 10
70.1459
 20
3.5267
 11
70.0689
 21
3.42743
  0
LINE
  8
0
 10
70.0689
 20
3.42743
 11
69.9858
 21
3.33318
  0
LINE
  8
0
 10
69.9858
 20
3.33318
 11
69.897
 21
3.24434
  0
LINE
  8
0
 10
69.897
 20
3.24434
 11
69.8027
 21
3.16125
  0
LINE
  8
0
 10
69.8027
 20
3.16125
 11
69.7034
 21
3.08424
  0
LINE
  8
0
 10
69.7034
 20
3.08424
 11
69.5995
 21
3.01363
  0
LINE
  8
0
 10
69.5995
 20
3.01363
 11
69.4914
 21
2.94966
  0
LINE
  8
0
 10
69.4914
 20
2.94966
 11
69.3794
 21
2.89262
  0
LINE
  8
0
 10
69.3794
 20
2.89262
 11
69.2641
 21
2.84273
  0
LINE
  8
0
 10
69.2641
 20
2.84273
 11
69.1459
 21
2.80016
  0
LINE
  8
0
 10
69.1459
 20
2.80016
 11
69.0252
 21
2.76511
  0
LINE
  8
0
 10
69.0252
 20
2.76511
 11
68.9026
 21
2.7377
  0
LINE
  8
0
 10
68.9026
 20
2.7377
 11
68.7785
 21
2.71805
  0
LINE
  8
0
 10
68.7785
 20
2.71805
 11
68.6534
 21
2.70622
  0
LINE
  8
0
 10
68.6534
 20
2.70622
 11
68.5279
 21
2.70227
  0
LINE
  8
0
 10
68.5279
 20
2.70227
 11
68.4023
 21
2.70622
  0
ENDSEC
  0
SECTION
  2
OBJECTS
  0
DICTIONARY
  0
ENDSEC
  0
EOF
