  0
SECTION
  2
BLOCKS
  0
ENDSEC
  0
SECTION
  2
ENTITIES
  0
LINE
  8
0
 10
0
 20
230.826
 11
-75
 21
0
  0
LINE
  8
0
 10
-75
 20
0
 11
75
 21
0
  0
LINE
  8
0
 10
75
 20
0
 11
0
 21
230.826
  0
LINE
  8
0
 10
-0.12558
 20
212.83
 11
-0.250656
 21
212.842
  0
LINE
  8
0
 10
-0.250656
 20
212.842
 11
-0.374756
 21
212.862
  0
LINE
  8
0
 10
-0.374756
 20
212.862
 11
-0.497375
 21
212.889
  0
LINE
  8
0
 10
-0.497375
 20
212.889
 11
-0.618027
 21
212.924
  0
LINE
  8
0
 10
-0.618027
 20
212.924
 11
-0.736237
 21
212.967
  0
LINE
  8
0
 10
-0.736237
 20
212.967
 11
-0.851547
 21
213.017
  0
LINE
  8
0
 10
-0.851547
 20
213.017
 11
-0.963501
 21
213.074
  0
LINE
  8
0
 10
-0.963501
 20
213.074
 11
-1.07164
 21
213.138
  0
LINE
  8
0
 10
-1.07164
 20
213.138
 11
-1.17557
 21
213.208
  0
LINE
  8
0
 10
-1.17557
 20
213.208
 11
-1.27484
 21
213.285
  0
LINE
  8
0
 10
-1.27484
 20
213.285
 11
-1.36908
 21
213.368
  0
LINE
  8
0
 10
-1.36908
 20
213.368
 11
-1.45793
 21
213.457
  0
LINE
  8
0
 10
-1.45793
 20
213.457
 11
-1.54102
 21
213.551
  0
LINE
  8
0
 10
-1.54102
 20
213.551
 11
-1.61803
 21
213.651
  0
LINE
  8
0
 10
-1.61803
 20
213.651
 11
-1.68864
 21
213.755
  0
LINE
  8
0
 10
-1.68864
 20
213.755
 11
-1.75261
 21
213.863
  0
LINE
  8
0
 10
-1.75261
 20
213.863
 11
-1.80965
 21
213.975
  0
LINE
  8
0
 10
-1.80965
 20
213.975
 11
-1.85954
 21
214.09
  0
LINE
  8
0
 10
-1.85954
 20
214.09
 11
-1.9021
 21
214.208
  0
LINE
  8
0
 10
-1.9021
 20
214.208
 11
-1.93716
 21
214.329
  0
LINE
  8
0
 10
-1.93716
 20
214.329
 11
-1.96457
 21
214.451
  0
LINE
  8
0
 10
-1.96457
 20
214.451
 11
-1.98422
 21
214.576
  0
LINE
  8
0
 10
-1.98422
 20
214.576
 11
-1.99605
 21
214.701
  0
LINE
  8
0
 10
-1.99605
 20
214.701
 11
-2
 21
214.826
  0
LINE
  8
0
 10
-2
 20
214.826
 11
-1.99605
 21
214.952
  0
LINE
  8
0
 10
-1.99605
 20
214.952
 11
-1.98422
 21
215.077
  0
LINE
  8
0
 10
-1.98422
 20
215.077
 11
-1.96457
 21
215.201
  0
LINE
  8
0
 10
-1.96457
 20
215.201
 11
-1.93716
 21
215.324
  0
LINE
  8
0
 10
-1.93716
 20
215.324
 11
-1.9021
 21
215.444
  0
LINE
  8
0
 10
-1.9021
 20
215.444
 11
-1.85954
 21
215.562
  0
LINE
  8
0
 10
-1.85954
 20
215.562
 11
-1.80965
 21
215.678
  0
LINE
  8
0
 10
-1.80965
 20
215.678
 11
-1.75261
 21
215.79
  0
LINE
  8
0
 10
-1.75261
 20
215.79
 11
-1.68864
 21
215.898
  0
LINE
  8
0
 10
-1.68864
 20
215.898
 11
-1.61803
 21
216.002
  0
LINE
  8
0
 10
-1.61803
 20
216.002
 11
-1.54102
 21
216.101
  0
LINE
  8
0
 10
-1.54102
 20
216.101
 11
-1.45793
 21
216.195
  0
LINE
  8
0
 10
-1.45793
 20
216.195
 11
-1.36908
 21
216.284
  0
LINE
  8
0
 10
-1.36908
 20
216.284
 11
-1.27484
 21
216.367
  0
LINE
  8
0
 10
-1.27484
 20
216.367
 11
-1.17557
 21
216.444
  0
LINE
  8
0
 10
-1.17557
 20
216.444
 11
-1.07164
 21
216.515
  0
LINE
  8
0
 10
-1.07164
 20
216.515
 11
-0.963501
 21
216.579
  0
LINE
  8
0
 10
-0.963501
 20
216.579
 11
-0.851547
 21
216.636
  0
LINE
  8
0
 10
-0.851547
 20
216.636
 11
-0.736237
 21
216.686
  0
LINE
  8
0
 10
-0.736237
 20
216.686
 11
-0.618027
 21
216.728
  0
LINE
  8
0
 10
-0.618027
 20
216.728
 11
-0.497375
 21
216.763
  0
LINE
  8
0
 10
-0.497375
 20
216.763
 11
-0.374756
 21
216.791
  0
LINE
  8
0
 10
-0.374756
 20
216.791
 11
-0.250656
 21
216.81
  0
LINE
  8
0
 10
-0.250656
 20
216.81
 11
-0.12558
 21
216.822
  0
LINE
  8
0
 10
-0.12558
 20
216.822
 11
0
 21
216.826
  0
LINE
  8
0
 10
0
 20
216.826
 11
0.12558
 21
216.822
  0
LINE
  8
0
 10
0.12558
 20
216.822
 11
0.250656
 21
216.81
  0
LINE
  8
0
 10
0.250656
 20
216.81
 11
0.374756
 21
216.791
  0
LINE
  8
0
 10
0.374756
 20
216.791
 11
0.497375
 21
216.763
  0
LINE
  8
0
 10
0.497375
 20
216.763
 11
0.618027
 21
216.728
  0
LINE
  8
0
 10
0.618027
 20
216.728
 11
0.736237
 21
216.686
  0
LINE
  8
0
 10
0.736237
 20
216.686
 11
0.851547
 21
216.636
  0
LINE
  8
0
 10
0.851547
 20
216.636
 11
0.963501
 21
216.579
  0
LINE
  8
0
 10
0.963501
 20
216.579
 11
1.07164
 21
216.515
  0
LINE
  8
0
 10
1.07164
 20
216.515
 11
1.17557
 21
216.444
  0
LINE
  8
0
 10
1.17557
 20
216.444
 11
1.27484
 21
216.367
  0
LINE
  8
0
 10
1.27484
 20
216.367
 11
1.36908
 21
216.284
  0
LINE
  8
0
 10
1.36908
 20
216.284
 11
1.45793
 21
216.195
  0
LINE
  8
0
 10
1.45793
 20
216.195
 11
1.54102
 21
216.101
  0
LINE
  8
0
 10
1.54102
 20
216.101
 11
1.61803
 21
216.002
  0
LINE
  8
0
 10
1.61803
 20
216.002
 11
1.68864
 21
215.898
  0
LINE
  8
0
 10
1.68864
 20
215.898
 11
1.75261
 21
215.79
  0
LINE
  8
0
 10
1.75261
 20
215.79
 11
1.80965
 21
215.678
  0
LINE
  8
0
 10
1.80965
 20
215.678
 11
1.85954
 21
215.562
  0
LINE
  8
0
 10
1.85954
 20
215.562
 11
1.9021
 21
215.444
  0
LINE
  8
0
 10
1.9021
 20
215.444
 11
1.93716
 21
215.324
  0
LINE
  8
0
 10
1.93716
 20
215.324
 11
1.96457
 21
215.201
  0
LINE
  8
0
 10
1.96457
 20
215.201
 11
1.98422
 21
215.077
  0
LINE
  8
0
 10
1.98422
 20
215.077
 11
1.99605
 21
214.952
  0
LINE
  8
0
 10
1.99605
 20
214.952
 11
2
 21
214.826
  0
LINE
  8
0
 10
2
 20
214.826
 11
1.99605
 21
214.701
  0
LINE
  8
0
 10
1.99605
 20
214.701
 11
1.98422
 21
214.576
  0
LINE
  8
0
 10
1.98422
 20
214.576
 11
1.96457
 21
214.451
  0
LINE
  8
0
 10
1.96457
 20
214.451
 11
1.93716
 21
214.329
  0
LINE
  8
0
 10
1.93716
 20
214.329
 11
1.9021
 21
214.208
  0
LINE
  8
0
 10
1.9021
 20
214.208
 11
1.85954
 21
214.09
  0
LINE
  8
0
 10
1.85954
 20
214.09
 11
1.80965
 21
213.975
  0
LINE
  8
0
 10
1.80965
 20
213.975
 11
1.75261
 21
213.863
  0
LINE
  8
0
 10
1.75261
 20
213.863
 11
1.68864
 21
213.755
  0
LINE
  8
0
 10
1.68864
 20
213.755
 11
1.61803
 21
213.651
  0
LINE
  8
0
 10
1.61803
 20
213.651
 11
1.54102
 21
213.551
  0
LINE
  8
0
 10
1.54102
 20
213.551
 11
1.45793
 21
213.457
  0
LINE
  8
0
 10
1.45793
 20
213.457
 11
1.36908
 21
213.368
  0
LINE
  8
0
 10
1.36908
 20
213.368
 11
1.27484
 21
213.285
  0
LINE
  8
0
 10
1.27484
 20
213.285
 11
1.17557
 21
213.208
  0
LINE
  8
0
 10
1.17557
 20
213.208
 11
1.07164
 21
213.138
  0
LINE
  8
0
 10
1.07164
 20
213.138
 11
0.963501
 21
213.074
  0
LINE
  8
0
 10
0.963501
 20
213.074
 11
0.851547
 21
213.017
  0
LINE
  8
0
 10
0.851547
 20
213.017
 11
0.736237
 21
212.967
  0
LINE
  8
0
 10
0.736237
 20
212.967
 11
0.618027
 21
212.924
  0
LINE
  8
0
 10
0.618027
 20
212.924
 11
0.497375
 21
212.889
  0
LINE
  8
0
 10
0.497375
 20
212.889
 11
0.374756
 21
212.862
  0
LINE
  8
0
 10
0.374756
 20
212.862
 11
0.250656
 21
212.842
  0
LINE
  8
0
 10
0.250656
 20
212.842
 11
0.12558
 21
212.83
  0
LINE
  8
0
 10
0.12558
 20
212.83
 11
0
 21
212.826
  0
LINE
  8
0
 10
0
 20
212.826
 11
-0.12558
 21
212.83
  0
LINE
  8
0
 10
-4.86273
 20
177.028
 11
0
 21
191.993
  0
LINE
  8
0
 10
0
 20
191.993
 11
4.86273
 21
177.028
  0
LINE
  8
0
 10
4.86273
 20
177.028
 11
-4.86273
 21
177.028
  0
LINE
  8
0
 10
-5.52826
 20
155.377
 11
-9.60388
 21
162.436
  0
LINE
  8
0
 10
-9.60388
 20
162.436
 11
-5.86461
 21
173.944
  0
LINE
  8
0
 10
-5.86461
 20
173.944
 11
-5.52826
 21
174.527
  0
LINE
  8
0
 10
-5.52826
 20
174.527
 11
5.52826
 21
174.527
  0
LINE
  8
0
 10
5.52826
 20
174.527
 11
5.86461
 21
173.944
  0
LINE
  8
0
 10
5.86461
 20
173.944
 11
9.60388
 21
162.436
  0
LINE
  8
0
 10
9.60388
 20
162.436
 11
5.52826
 21
155.377
  0
LINE
  8
0
 10
5.52826
 20
155.377
 11
-5.52826
 21
155.377
  0
LINE
  8
0
 10
-15.4148
 20
144.551
 11
-10.6436
 21
159.236
  0
LINE
  8
0
 10
-10.6436
 20
159.236
 11
-7.69348
 21
154.126
  0
LINE
  8
0
 10
-7.69348
 20
154.126
 11
-13.2217
 21
144.551
  0
LINE
  8
0
 10
-13.2217
 20
144.551
 11
-15.4148
 21
144.551
  0
LINE
  8
0
 10
13.2217
 20
144.551
 11
7.69348
 21
154.126
  0
LINE
  8
0
 10
7.69348
 20
154.126
 11
10.6436
 21
159.236
  0
LINE
  8
0
 10
10.6436
 20
159.236
 11
15.4148
 21
144.551
  0
LINE
  8
0
 10
15.4148
 20
144.551
 11
13.2217
 21
144.551
  0
LINE
  8
0
 10
-5.52826
 20
133.726
 11
-11.0565
 21
143.301
  0
LINE
  8
0
 10
-11.0565
 20
143.301
 11
-5.52826
 21
152.876
  0
LINE
  8
0
 10
-5.52826
 20
152.876
 11
5.52826
 21
152.876
  0
LINE
  8
0
 10
5.52826
 20
152.876
 11
11.0565
 21
143.301
  0
LINE
  8
0
 10
11.0565
 20
143.301
 11
5.52826
 21
133.726
  0
LINE
  8
0
 10
5.52826
 20
133.726
 11
-5.52826
 21
133.726
  0
LINE
  8
0
 10
13.2217
 20
122.901
 11
7.69348
 21
132.476
  0
LINE
  8
0
 10
7.69348
 20
132.476
 11
13.2217
 21
142.051
  0
LINE
  8
0
 10
13.2217
 20
142.051
 11
16.2274
 21
142.051
  0
LINE
  8
0
 10
16.2274
 20
142.051
 11
22.4496
 21
122.901
  0
LINE
  8
0
 10
22.4496
 20
122.901
 11
13.2217
 21
122.901
  0
LINE
  8
0
 10
-22.4496
 20
122.901
 11
-16.2274
 21
142.051
  0
LINE
  8
0
 10
-16.2274
 20
142.051
 11
-13.2217
 21
142.051
  0
LINE
  8
0
 10
-13.2217
 20
142.051
 11
-7.69348
 21
132.476
  0
LINE
  8
0
 10
-7.69348
 20
132.476
 11
-13.2217
 21
122.901
  0
LINE
  8
0
 10
-13.2217
 20
122.901
 11
-22.4496
 21
122.901
  0
LINE
  8
0
 10
-5.52826
 20
112.075
 11
-11.0565
 21
121.65
  0
LINE
  8
0
 10
-11.0565
 20
121.65
 11
-5.52826
 21
131.225
  0
LINE
  8
0
 10
-5.52826
 20
131.225
 11
5.52826
 21
131.225
  0
LINE
  8
0
 10
5.52826
 20
131.225
 11
11.0565
 21
121.65
  0
LINE
  8
0
 10
11.0565
 20
121.65
 11
5.52826
 21
112.075
  0
LINE
  8
0
 10
5.52826
 20
112.075
 11
-5.52826
 21
112.075
  0
LINE
  8
0
 10
13.2217
 20
101.25
 11
7.69348
 21
110.825
  0
LINE
  8
0
 10
7.69348
 20
110.825
 11
13.2217
 21
120.4
  0
LINE
  8
0
 10
13.2217
 20
120.4
 11
23.2622
 21
120.4
  0
LINE
  8
0
 10
23.2622
 20
120.4
 11
27.6096
 21
107.02
  0
LINE
  8
0
 10
27.6096
 20
107.02
 11
24.2783
 21
101.25
  0
LINE
  8
0
 10
24.2783
 20
101.25
 11
13.2217
 21
101.25
  0
LINE
  8
0
 10
-24.2783
 20
101.25
 11
-27.6096
 21
107.02
  0
LINE
  8
0
 10
-27.6096
 20
107.02
 11
-23.2622
 21
120.4
  0
LINE
  8
0
 10
-23.2622
 20
120.4
 11
-13.2217
 21
120.4
  0
LINE
  8
0
 10
-13.2217
 20
120.4
 11
-7.69348
 21
110.825
  0
LINE
  8
0
 10
-7.69348
 20
110.825
 11
-13.2217
 21
101.25
  0
LINE
  8
0
 10
-13.2217
 20
101.25
 11
-24.2783
 21
101.25
  0
LINE
  8
0
 10
-5.52826
 20
90.4251
 11
-11.0565
 21
100
  0
LINE
  8
0
 10
-11.0565
 20
100
 11
-5.52826
 21
109.575
  0
LINE
  8
0
 10
-5.52826
 20
109.575
 11
5.52826
 21
109.575
  0
LINE
  8
0
 10
5.52826
 20
109.575
 11
11.0565
 21
100
  0
LINE
  8
0
 10
11.0565
 20
100
 11
5.52826
 21
90.4251
  0
LINE
  8
0
 10
5.52826
 20
90.4251
 11
-5.52826
 21
90.4251
  0
LINE
  8
0
 10
-33.0016
 20
90.4251
 11
-28.6492
 21
103.82
  0
LINE
  8
0
 10
-28.6492
 20
103.82
 11
-26.4435
 21
100
  0
LINE
  8
0
 10
-26.4435
 20
100
 11
-31.9717
 21
90.4251
  0
LINE
  8
0
 10
-31.9717
 20
90.4251
 11
-33.0016
 21
90.4251
  0
LINE
  8
0
 10
31.9717
 20
90.4251
 11
26.4435
 21
100
  0
LINE
  8
0
 10
26.4435
 20
100
 11
28.6492
 21
103.82
  0
LINE
  8
0
 10
28.6492
 20
103.82
 11
33.0016
 21
90.4251
  0
LINE
  8
0
 10
33.0016
 20
90.4251
 11
31.9717
 21
90.4251
  0
LINE
  8
0
 10
13.2217
 20
79.6001
 11
7.69348
 21
89.175
  0
LINE
  8
0
 10
7.69348
 20
89.175
 11
13.2217
 21
98.7499
  0
LINE
  8
0
 10
13.2217
 20
98.7499
 11
24.2783
 21
98.7499
  0
LINE
  8
0
 10
24.2783
 20
98.7499
 11
29.8065
 21
89.175
  0
LINE
  8
0
 10
29.8065
 20
89.175
 11
24.2783
 21
79.6001
  0
LINE
  8
0
 10
24.2783
 20
79.6001
 11
13.2217
 21
79.6001
  0
LINE
  8
0
 10
-24.2783
 20
79.6001
 11
-29.8065
 21
89.175
  0
LINE
  8
0
 10
-29.8065
 20
89.175
 11
-24.2783
 21
98.7499
  0
LINE
  8
0
 10
-24.2783
 20
98.7499
 11
-13.2217
 21
98.7499
  0
LINE
  8
0
 10
-13.2217
 20
98.7499
 11
-7.69348
 21
89.175
  0
LINE
  8
0
 10
-7.69348
 20
89.175
 11
-13.2217
 21
79.6001
  0
LINE
  8
0
 10
-13.2217
 20
79.6001
 11
-24.2783
 21
79.6001
  0
LINE
  8
0
 10
31.9717
 20
68.7748
 11
26.4435
 21
78.3497
  0
LINE
  8
0
 10
26.4435
 20
78.3497
 11
31.9717
 21
87.9246
  0
LINE
  8
0
 10
31.9717
 20
87.9246
 11
33.814
 21
87.9246
  0
LINE
  8
0
 10
33.814
 20
87.9246
 11
40.0362
 21
68.7748
  0
LINE
  8
0
 10
40.0362
 20
68.7748
 11
31.9717
 21
68.7748
  0
LINE
  8
0
 10
-5.52826
 20
68.7748
 11
-11.0565
 21
78.3497
  0
LINE
  8
0
 10
-11.0565
 20
78.3497
 11
-5.52826
 21
87.9246
  0
LINE
  8
0
 10
-5.52826
 20
87.9246
 11
5.52826
 21
87.9246
  0
LINE
  8
0
 10
5.52826
 20
87.9246
 11
11.0565
 21
78.3497
  0
LINE
  8
0
 10
11.0565
 20
78.3497
 11
5.52826
 21
68.7748
  0
LINE
  8
0
 10
5.52826
 20
68.7748
 11
-5.52826
 21
68.7748
  0
LINE
  8
0
 10
-40.0362
 20
68.7748
 11
-33.814
 21
87.9246
  0
LINE
  8
0
 10
-33.814
 20
87.9246
 11
-31.9717
 21
87.9246
  0
LINE
  8
0
 10
-31.9717
 20
87.9246
 11
-26.4435
 21
78.3497
  0
LINE
  8
0
 10
-26.4435
 20
78.3497
 11
-31.9717
 21
68.7748
  0
LINE
  8
0
 10
-31.9717
 20
68.7748
 11
-40.0362
 21
68.7748
  0
LINE
  8
0
 10
13.2217
 20
57.9494
 11
7.69348
 21
67.5243
  0
LINE
  8
0
 10
7.69348
 20
67.5243
 11
13.2217
 21
77.0992
  0
LINE
  8
0
 10
13.2217
 20
77.0992
 11
24.2783
 21
77.0992
  0
LINE
  8
0
 10
24.2783
 20
77.0992
 11
29.8065
 21
67.5243
  0
LINE
  8
0
 10
29.8065
 20
67.5243
 11
24.2783
 21
57.9494
  0
LINE
  8
0
 10
24.2783
 20
57.9494
 11
13.2217
 21
57.9494
  0
LINE
  8
0
 10
-24.2783
 20
57.9494
 11
-29.8065
 21
67.5243
  0
LINE
  8
0
 10
-29.8065
 20
67.5243
 11
-24.2783
 21
77.0992
  0
LINE
  8
0
 10
-24.2783
 20
77.0992
 11
-13.2217
 21
77.0992
  0
LINE
  8
0
 10
-13.2217
 20
77.0992
 11
-7.69348
 21
67.5243
  0
LINE
  8
0
 10
-7.69348
 20
67.5243
 11
-13.2217
 21
57.9494
  0
LINE
  8
0
 10
-13.2217
 20
57.9494
 11
-24.2783
 21
57.9494
  0
LINE
  8
0
 10
-43.0283
 20
47.1241
 11
-45.6151
 21
51.6045
  0
LINE
  8
0
 10
-45.6151
 20
51.6045
 11
-40.8488
 21
66.2739
  0
LINE
  8
0
 10
-40.8488
 20
66.2739
 11
-31.9717
 21
66.2739
  0
LINE
  8
0
 10
-31.9717
 20
66.2739
 11
-26.4435
 21
56.699
  0
LINE
  8
0
 10
-26.4435
 20
56.699
 11
-31.9717
 21
47.1241
  0
LINE
  8
0
 10
-31.9717
 20
47.1241
 11
-43.0283
 21
47.1241
  0
LINE
  8
0
 10
-5.52826
 20
47.1241
 11
-11.0565
 21
56.699
  0
LINE
  8
0
 10
-11.0565
 20
56.699
 11
-5.52826
 21
66.2739
  0
LINE
  8
0
 10
-5.52826
 20
66.2739
 11
5.52826
 21
66.2739
  0
LINE
  8
0
 10
5.52826
 20
66.2739
 11
11.0565
 21
56.699
  0
LINE
  8
0
 10
11.0565
 20
56.699
 11
5.52826
 21
47.1241
  0
LINE
  8
0
 10
5.52826
 20
47.1241
 11
-5.52826
 21
47.1241
  0
LINE
  8
0
 10
31.9717
 20
47.1241
 11
26.4435
 21
56.699
  0
LINE
  8
0
 10
26.4435
 20
56.699
 11
31.9717
 21
66.2739
  0
LINE
  8
0
 10
31.9717
 20
66.2739
 11
40.8488
 21
66.2739
  0
LINE
  8
0
 10
40.8488
 20
66.2739
 11
45.6151
 21
51.6045
  0
LINE
  8
0
 10
45.6151
 20
51.6045
 11
43.0283
 21
47.1241
  0
LINE
  8
0
 10
43.0283
 20
47.1241
 11
31.9717
 21
47.1241
  0
LINE
  8
0
 10
13.2217
 20
36.2988
 11
7.69348
 21
45.8736
  0
LINE
  8
0
 10
7.69348
 20
45.8736
 11
13.2217
 21
55.4485
  0
LINE
  8
0
 10
13.2217
 20
55.4485
 11
24.2783
 21
55.4485
  0
LINE
  8
0
 10
24.2783
 20
55.4485
 11
29.8065
 21
45.8736
  0
LINE
  8
0
 10
29.8065
 20
45.8736
 11
24.2783
 21
36.2988
  0
LINE
  8
0
 10
24.2783
 20
36.2988
 11
13.2217
 21
36.2988
  0
LINE
  8
0
 10
-24.2783
 20
36.2988
 11
-29.8065
 21
45.8736
  0
LINE
  8
0
 10
-29.8065
 20
45.8736
 11
-24.2783
 21
55.4485
  0
LINE
  8
0
 10
-24.2783
 20
55.4485
 11
-13.2217
 21
55.4485
  0
LINE
  8
0
 10
-13.2217
 20
55.4485
 11
-7.69348
 21
45.8736
  0
LINE
  8
0
 10
-7.69348
 20
45.8736
 11
-13.2217
 21
36.2988
  0
LINE
  8
0
 10
-13.2217
 20
36.2988
 11
-24.2783
 21
36.2988
  0
LINE
  8
0
 10
45.1935
 20
45.8736
 11
46.6548
 21
48.4047
  0
LINE
  8
0
 10
46.6548
 20
48.4047
 11
50.4165
 21
36.8275
  0
LINE
  8
0
 10
50.4165
 20
36.8275
 11
45.1935
 21
45.8736
  0
LINE
  8
0
 10
-46.6548
 20
48.4047
 11
-45.1935
 21
45.8736
  0
LINE
  8
0
 10
-45.1935
 20
45.8736
 11
-50.4165
 21
36.8275
  0
LINE
  8
0
 10
-50.4165
 20
36.8275
 11
-46.6548
 21
48.4047
  0
LINE
  8
0
 10
-5.52826
 20
25.4734
 11
-11.0565
 21
35.0483
  0
LINE
  8
0
 10
-11.0565
 20
35.0483
 11
-5.52826
 21
44.6232
  0
LINE
  8
0
 10
-5.52826
 20
44.6232
 11
5.52826
 21
44.6232
  0
LINE
  8
0
 10
5.52826
 20
44.6232
 11
11.0565
 21
35.0483
  0
LINE
  8
0
 10
11.0565
 20
35.0483
 11
5.52826
 21
25.4734
  0
LINE
  8
0
 10
5.52826
 20
25.4734
 11
-5.52826
 21
25.4734
  0
LINE
  8
0
 10
31.9717
 20
25.4734
 11
26.4435
 21
35.0483
  0
LINE
  8
0
 10
26.4435
 20
35.0483
 11
31.9717
 21
44.6232
  0
LINE
  8
0
 10
31.9717
 20
44.6232
 11
43.0283
 21
44.6232
  0
LINE
  8
0
 10
43.0283
 20
44.6232
 11
48.5565
 21
35.0483
  0
LINE
  8
0
 10
48.5565
 20
35.0483
 11
43.0283
 21
25.4734
  0
LINE
  8
0
 10
43.0283
 20
25.4734
 11
31.9717
 21
25.4734
  0
LINE
  8
0
 10
-43.0283
 20
25.4734
 11
-48.5565
 21
35.0483
  0
LINE
  8
0
 10
-48.5565
 20
35.0483
 11
-43.0283
 21
44.6232
  0
LINE
  8
0
 10
-43.0283
 20
44.6232
 11
-31.9717
 21
44.6232
  0
LINE
  8
0
 10
-31.9717
 20
44.6232
 11
-26.4435
 21
35.0483
  0
LINE
  8
0
 10
-26.4435
 20
35.0483
 11
-31.9717
 21
25.4734
  0
LINE
  8
0
 10
-31.9717
 20
25.4734
 11
-43.0283
 21
25.4734
  0
LINE
  8
0
 10
-57.623
 20
14.6481
 11
-51.4009
 21
33.7978
  0
LINE
  8
0
 10
-51.4009
 20
33.7978
 11
-50.7217
 21
33.7978
  0
LINE
  8
0
 10
-50.7217
 20
33.7978
 11
-45.1935
 21
24.2229
  0
LINE
  8
0
 10
-45.1935
 20
24.2229
 11
-50.7217
 21
14.6481
  0
LINE
  8
0
 10
-50.7217
 20
14.6481
 11
-57.623
 21
14.6481
  0
LINE
  8
0
 10
-24.2783
 20
14.6481
 11
-29.8065
 21
24.2229
  0
LINE
  8
0
 10
-29.8065
 20
24.2229
 11
-24.2783
 21
33.7978
  0
LINE
  8
0
 10
-24.2783
 20
33.7978
 11
-13.2217
 21
33.7978
  0
LINE
  8
0
 10
-13.2217
 20
33.7978
 11
-7.69348
 21
24.2229
  0
LINE
  8
0
 10
-7.69348
 20
24.2229
 11
-13.2217
 21
14.6481
  0
LINE
  8
0
 10
-13.2217
 20
14.6481
 11
-24.2783
 21
14.6481
  0
LINE
  8
0
 10
13.2217
 20
14.6481
 11
7.69348
 21
24.2229
  0
LINE
  8
0
 10
7.69348
 20
24.2229
 11
13.2217
 21
33.7978
  0
LINE
  8
0
 10
13.2217
 20
33.7978
 11
24.2783
 21
33.7978
  0
LINE
  8
0
 10
24.2783
 20
33.7978
 11
29.8065
 21
24.2229
  0
LINE
  8
0
 10
29.8065
 20
24.2229
 11
24.2783
 21
14.6481
  0
LINE
  8
0
 10
24.2783
 20
14.6481
 11
13.2217
 21
14.6481
  0
LINE
  8
0
 10
50.7217
 20
14.6481
 11
45.1935
 21
24.2229
  0
LINE
  8
0
 10
45.1935
 20
24.2229
 11
50.7217
 21
33.7978
  0
LINE
  8
0
 10
50.7217
 20
33.7978
 11
51.4009
 21
33.7978
  0
LINE
  8
0
 10
51.4009
 20
33.7978
 11
57.623
 21
14.6481
  0
LINE
  8
0
 10
57.623
 20
14.6481
 11
50.7217
 21
14.6481
  0
LINE
  8
0
 10
-47.7496
 20
12
 11
-48.5565
 21
13.3976
  0
LINE
  8
0
 10
-48.5565
 20
13.3976
 11
-43.0283
 21
22.9725
  0
LINE
  8
0
 10
-43.0283
 20
22.9725
 11
-31.9717
 21
22.9725
  0
LINE
  8
0
 10
-31.9717
 20
22.9725
 11
-26.4435
 21
13.3976
  0
LINE
  8
0
 10
-26.4435
 20
13.3976
 11
-27.2504
 21
12
  0
LINE
  8
0
 10
-27.2504
 20
12
 11
-47.7496
 21
12
  0
LINE
  8
0
 10
27.2504
 20
12
 11
26.4435
 21
13.3976
  0
LINE
  8
0
 10
26.4435
 20
13.3976
 11
31.9717
 21
22.9725
  0
LINE
  8
0
 10
31.9717
 20
22.9725
 11
43.0283
 21
22.9725
  0
LINE
  8
0
 10
43.0283
 20
22.9725
 11
48.5565
 21
13.3976
  0
LINE
  8
0
 10
48.5565
 20
13.3976
 11
47.7496
 21
12
  0
LINE
  8
0
 10
47.7496
 20
12
 11
27.2504
 21
12
  0
LINE
  8
0
 10
-10.2496
 20
12
 11
-11.0565
 21
13.3976
  0
LINE
  8
0
 10
-11.0565
 20
13.3976
 11
-5.52826
 21
22.9725
  0
LINE
  8
0
 10
-5.52826
 20
22.9725
 11
5.52826
 21
22.9725
  0
LINE
  8
0
 10
5.52826
 20
22.9725
 11
11.0565
 21
13.3976
  0
LINE
  8
0
 10
11.0565
 20
13.3976
 11
10.2496
 21
12
  0
LINE
  8
0
 10
10.2496
 20
12
 11
-10.2496
 21
12
  0
LINE
  8
0
 10
-24.3632
 20
12
 11
-24.2783
 21
12.1471
  0
LINE
  8
0
 10
-24.2783
 20
12.1471
 11
-13.2217
 21
12.1471
  0
LINE
  8
0
 10
-13.2217
 20
12.1471
 11
-13.1368
 21
12
  0
LINE
  8
0
 10
-13.1368
 20
12
 11
-24.3632
 21
12
  0
LINE
  8
0
 10
13.1368
 20
12
 11
13.2217
 21
12.1471
  0
LINE
  8
0
 10
13.2217
 20
12.1471
 11
24.2783
 21
12.1471
  0
LINE
  8
0
 10
24.2783
 20
12.1471
 11
24.3632
 21
12
  0
LINE
  8
0
 10
24.3632
 20
12
 11
13.1368
 21
12
  0
LINE
  8
0
 10
50.6368
 20
12
 11
50.7217
 21
12.1471
  0
LINE
  8
0
 10
50.7217
 20
12.1471
 11
58.4356
 21
12.1471
  0
LINE
  8
0
 10
58.4356
 20
12.1471
 11
58.4834
 21
12
  0
LINE
  8
0
 10
58.4834
 20
12
 11
50.6368
 21
12
  0
LINE
  8
0
 10
-58.4834
 20
12
 11
-58.4356
 21
12.1471
  0
LINE
  8
0
 10
-58.4356
 20
12.1471
 11
-50.7217
 21
12.1471
  0
LINE
  8
0
 10
-50.7217
 20
12.1471
 11
-50.6368
 21
12
  0
LINE
  8
0
 10
-50.6368
 20
12
 11
-58.4834
 21
12
  0
LINE
  8
0
 10
-10
 20
7
 11
-10
 21
11
  0
LINE
  8
0
 10
-10
 20
11
 11
10
 21
11
  0
LINE
  8
0
 10
10
 20
11
 11
10
 21
7
  0
LINE
  8
0
 10
10
 20
7
 11
-10
 21
7
  0
LINE
  8
0
 10
-68.6534
 20
2.70622
 11
-68.7785
 21
2.71805
  0
LINE
  8
0
 10
-68.7785
 20
2.71805
 11
-68.9026
 21
2.7377
  0
LINE
  8
0
 10
-68.9026
 20
2.7377
 11
-69.0252
 21
2.76511
  0
LINE
  8
0
 10
-69.0252
 20
2.76511
 11
-69.1459
 21
2.80016
  0
LINE
  8
0
 10
-69.1459
 20
2.80016
 11
-69.2641
 21
2.84273
  0
LINE
  8
0
 10
-69.2641
 20
2.84273
 11
-69.3794
 21
2.89262
  0
LINE
  8
0
 10
-69.3794
 20
2.89262
 11
-69.4914
 21
2.94966
  0
LINE
  8
0
 10
-69.4914
 20
2.94966
 11
-69.5995
 21
3.01363
  0
LINE
  8
0
 10
-69.5995
 20
3.01363
 11
-69.7034
 21
3.08424
  0
LINE
  8
0
 10
-69.7034
 20
3.08424
 11
-69.8027
 21
3.16125
  0
LINE
  8
0
 10
-69.8027
 20
3.16125
 11
-69.897
 21
3.24434
  0
LINE
  8
0
 10
-69.897
 20
3.24434
 11
-69.9858
 21
3.33318
  0
LINE
  8
0
 10
-69.9858
 20
3.33318
 11
-70.0689
 21
3.42743
  0
LINE
  8
0
 10
-70.0689
 20
3.42743
 11
-70.1459
 21
3.5267
  0
LINE
  8
0
 10
-70.1459
 20
3.5267
 11
-70.2165
 21
3.63062
  0
LINE
  8
0
 10
-70.2165
 20
3.63062
 11
-70.2805
 21
3.73877
  0
LINE
  8
0
 10
-70.2805
 20
3.73877
 11
-70.3375
 21
3.85072
  0
LINE
  8
0
 10
-70.3375
 20
3.85072
 11
-70.3874
 21
3.96602
  0
LINE
  8
0
 10
-70.3874
 20
3.96602
 11
-70.43
 21
4.08424
  0
LINE
  8
0
 10
-70.43
 20
4.08424
 11
-70.465
 21
4.2049
  0
LINE
  8
0
 10
-70.465
 20
4.2049
 11
-70.4924
 21
4.32751
  0
LINE
  8
0
 10
-70.4924
 20
4.32751
 11
-70.5121
 21
4.45161
  0
LINE
  8
0
 10
-70.5121
 20
4.45161
 11
-70.5239
 21
4.57669
  0
LINE
  8
0
 10
-70.5239
 20
4.57669
 11
-70.5279
 21
4.70227
  0
LINE
  8
0
 10
-70.5279
 20
4.70227
 11
-70.5239
 21
4.82785
  0
LINE
  8
0
 10
-70.5239
 20
4.82785
 11
-70.5121
 21
4.95294
  0
LINE
  8
0
 10
-70.5121
 20
4.95294
 11
-70.4924
 21
5.07704
  0
LINE
  8
0
 10
-70.4924
 20
5.07704
 11
-70.465
 21
5.19966
  0
LINE
  8
0
 10
-70.465
 20
5.19966
 11
-70.43
 21
5.32031
  0
LINE
  8
0
 10
-70.43
 20
5.32031
 11
-70.3874
 21
5.43852
  0
LINE
  8
0
 10
-70.3874
 20
5.43852
 11
-70.3375
 21
5.55383
  0
LINE
  8
0
 10
-70.3375
 20
5.55383
 11
-70.2805
 21
5.66579
  0
LINE
  8
0
 10
-70.2805
 20
5.66579
 11
-70.2165
 21
5.77393
  0
LINE
  8
0
 10
-70.2165
 20
5.77393
 11
-70.1459
 21
5.87784
  0
LINE
  8
0
 10
-70.1459
 20
5.87784
 11
-70.0689
 21
5.97713
  0
LINE
  8
0
 10
-70.0689
 20
5.97713
 11
-69.9858
 21
6.07137
  0
LINE
  8
0
 10
-69.9858
 20
6.07137
 11
-69.897
 21
6.16022
  0
LINE
  8
0
 10
-69.897
 20
6.16022
 11
-69.8027
 21
6.2433
  0
LINE
  8
0
 10
-69.8027
 20
6.2433
 11
-69.7034
 21
6.32031
  0
LINE
  8
0
 10
-69.7034
 20
6.32031
 11
-69.5995
 21
6.39093
  0
LINE
  8
0
 10
-69.5995
 20
6.39093
 11
-69.4914
 21
6.4549
  0
LINE
  8
0
 10
-69.4914
 20
6.4549
 11
-69.3794
 21
6.51193
  0
LINE
  8
0
 10
-69.3794
 20
6.51193
 11
-69.2641
 21
6.56183
  0
LINE
  8
0
 10
-69.2641
 20
6.56183
 11
-69.1459
 21
6.60439
  0
LINE
  8
0
 10
-69.1459
 20
6.60439
 11
-69.0252
 21
6.63943
  0
LINE
  8
0
 10
-69.0252
 20
6.63943
 11
-68.9026
 21
6.66685
  0
LINE
  8
0
 10
-68.9026
 20
6.66685
 11
-68.7785
 21
6.68651
  0
LINE
  8
0
 10
-68.7785
 20
6.68651
 11
-68.6534
 21
6.69833
  0
LINE
  8
0
 10
-68.6534
 20
6.69833
 11
-68.5279
 21
6.70227
  0
LINE
  8
0
 10
-68.5279
 20
6.70227
 11
-68.4023
 21
6.69833
  0
LINE
  8
0
 10
-68.4023
 20
6.69833
 11
-68.2772
 21
6.68651
  0
LINE
  8
0
 10
-68.2772
 20
6.68651
 11
-68.1531
 21
6.66685
  0
LINE
  8
0
 10
-68.1531
 20
6.66685
 11
-68.0305
 21
6.63943
  0
LINE
  8
0
 10
-68.0305
 20
6.63943
 11
-67.9098
 21
6.60439
  0
LINE
  8
0
 10
-67.9098
 20
6.60439
 11
-67.7916
 21
6.56183
  0
LINE
  8
0
 10
-67.7916
 20
6.56183
 11
-67.6763
 21
6.51193
  0
LINE
  8
0
 10
-67.6763
 20
6.51193
 11
-67.5643
 21
6.4549
  0
LINE
  8
0
 10
-67.5643
 20
6.4549
 11
-67.4562
 21
6.39093
  0
LINE
  8
0
 10
-67.4562
 20
6.39093
 11
-67.3523
 21
6.32031
  0
LINE
  8
0
 10
-67.3523
 20
6.32031
 11
-67.253
 21
6.2433
  0
LINE
  8
0
 10
-67.253
 20
6.2433
 11
-67.1588
 21
6.16022
  0
LINE
  8
0
 10
-67.1588
 20
6.16022
 11
-67.0699
 21
6.07137
  0
LINE
  8
0
 10
-67.0699
 20
6.07137
 11
-66.9868
 21
5.97713
  0
LINE
  8
0
 10
-66.9868
 20
5.97713
 11
-66.9098
 21
5.87784
  0
LINE
  8
0
 10
-66.9098
 20
5.87784
 11
-66.8392
 21
5.77393
  0
LINE
  8
0
 10
-66.8392
 20
5.77393
 11
-66.7752
 21
5.66579
  0
LINE
  8
0
 10
-66.7752
 20
5.66579
 11
-66.7182
 21
5.55383
  0
LINE
  8
0
 10
-66.7182
 20
5.55383
 11
-66.6683
 21
5.43852
  0
LINE
  8
0
 10
-66.6683
 20
5.43852
 11
-66.6257
 21
5.32031
  0
LINE
  8
0
 10
-66.6257
 20
5.32031
 11
-66.5907
 21
5.19966
  0
LINE
  8
0
 10
-66.5907
 20
5.19966
 11
-66.5633
 21
5.07704
  0
LINE
  8
0
 10
-66.5633
 20
5.07704
 11
-66.5436
 21
4.95294
  0
LINE
  8
0
 10
-66.5436
 20
4.95294
 11
-66.5318
 21
4.82785
  0
LINE
  8
0
 10
-66.5318
 20
4.82785
 11
-66.5279
 21
4.70227
  0
LINE
  8
0
 10
-66.5279
 20
4.70227
 11
-66.5318
 21
4.57669
  0
LINE
  8
0
 10
-66.5318
 20
4.57669
 11
-66.5436
 21
4.45161
  0
LINE
  8
0
 10
-66.5436
 20
4.45161
 11
-66.5633
 21
4.32751
  0
LINE
  8
0
 10
-66.5633
 20
4.32751
 11
-66.5907
 21
4.2049
  0
LINE
  8
0
 10
-66.5907
 20
4.2049
 11
-66.6257
 21
4.08424
  0
LINE
  8
0
 10
-66.6257
 20
4.08424
 11
-66.6683
 21
3.96602
  0
LINE
  8
0
 10
-66.6683
 20
3.96602
 11
-66.7182
 21
3.85072
  0
LINE
  8
0
 10
-66.7182
 20
3.85072
 11
-66.7752
 21
3.73877
  0
LINE
  8
0
 10
-66.7752
 20
3.73877
 11
-66.8392
 21
3.63062
  0
LINE
  8
0
 10
-66.8392
 20
3.63062
 11
-66.9098
 21
3.5267
  0
LINE
  8
0
 10
-66.9098
 20
3.5267
 11
-66.9868
 21
3.42743
  0
LINE
  8
0
 10
-66.9868
 20
3.42743
 11
-67.0699
 21
3.33318
  0
LINE
  8
0
 10
-67.0699
 20
3.33318
 11
-67.1588
 21
3.24434
  0
LINE
  8
0
 10
-67.1588
 20
3.24434
 11
-67.253
 21
3.16125
  0
LINE
  8
0
 10
-67.253
 20
3.16125
 11
-67.3523
 21
3.08424
  0
LINE
  8
0
 10
-67.3523
 20
3.08424
 11
-67.4562
 21
3.01363
  0
LINE
  8
0
 10
-67.4562
 20
3.01363
 11
-67.5643
 21
2.94966
  0
LINE
  8
0
 10
-67.5643
 20
2.94966
 11
-67.6763
 21
2.89262
  0
LINE
  8
0
 10
-67.6763
 20
2.89262
 11
-67.7916
 21
2.84273
  0
LINE
  8
0
 10
-67.7916
 20
2.84273
 11
-67.9098
 21
2.80016
  0
LINE
  8
0
 10
-67.9098
 20
2.80016
 11
-68.0305
 21
2.76511
  0
LINE
  8
0
 10
-68.0305
 20
2.76511
 11
-68.1531
 21
2.7377
  0
LINE
  8
0
 10
-68.1531
 20
2.7377
 11
-68.2772
 21
2.71805
  0
LINE
  8
0
 10
-68.2772
 20
2.71805
 11
-68.4023
 21
2.70622
  0
LINE
  8
0
 10
-68.4023
 20
2.70622
 11
-68.5279
 21
2.70227
  0
LINE
  8
0
 10
-68.5279
 20
2.70227
 11
-68.6534
 21
2.70622
  0
LINE
  8
0
 10
68.4023
 20
2.70622
 11
68.2772
 21
2.71805
  0
LINE
  8
0
 10
68.2772
 20
2.71805
 11
68.1531
 21
2.7377
  0
LINE
  8
0
 10
68.1531
 20
2.7377
 11
68.0305
 21
2.76511
  0
LINE
  8
0
 10
68.0305
 20
2.76511
 11
67.9098
 21
2.80016
  0
LINE
  8
0
 10
67.9098
 20
2.80016
 11
67.7916
 21
2.84273
  0
LINE
  8
0
 10
67.7916
 20
2.84273
 11
67.6763
 21
2.89262
  0
LINE
  8
0
 10
67.6763
 20
2.89262
 11
67.5643
 21
2.94966
  0
LINE
  8
0
 10
67.5643
 20
2.94966
 11
67.4562
 21
3.01363
  0
LINE
  8
0
 10
67.4562
 20
3.01363
 11
67.3523
 21
3.08424
  0
LINE
  8
0
 10
67.3523
 20
3.08424
 11
67.253
 21
3.16125
  0
LINE
  8
0
 10
67.253
 20
3.16125
 11
67.1588
 21
3.24434
  0
LINE
  8
0
 10
67.1588
 20
3.24434
 11
67.0699
 21
3.33318
  0
LINE
  8
0
 10
67.0699
 20
3.33318
 11
66.9868
 21
3.42743
  0
LINE
  8
0
 10
66.9868
 20
3.42743
 11
66.9098
 21
3.5267
  0
LINE
  8
0
 10
66.9098
 20
3.5267
 11
66.8392
 21
3.63062
  0
LINE
  8
0
 10
66.8392
 20
3.63062
 11
66.7752
 21
3.73877
  0
LINE
  8
0
 10
66.7752
 20
3.73877
 11
66.7182
 21
3.85072
  0
LINE
  8
0
 10
66.7182
 20
3.85072
 11
66.6683
 21
3.96602
  0
LINE
  8
0
 10
66.6683
 20
3.96602
 11
66.6257
 21
4.08424
  0
LINE
  8
0
 10
66.6257
 20
4.08424
 11
66.5907
 21
4.2049
  0
LINE
  8
0
 10
66.5907
 20
4.2049
 11
66.5633
 21
4.32751
  0
LINE
  8
0
 10
66.5633
 20
4.32751
 11
66.5436
 21
4.45161
  0
LINE
  8
0
 10
66.5436
 20
4.45161
 11
66.5318
 21
4.57669
  0
LINE
  8
0
 10
66.5318
 20
4.57669
 11
66.5279
 21
4.70227
  0
LINE
  8
0
 10
66.5279
 20
4.70227
 11
66.5318
 21
4.82785
  0
LINE
  8
0
 10
66.5318
 20
4.82785
 11
66.5436
 21
4.95294
  0
LINE
  8
0
 10
66.5436
 20
4.95294
 11
66.5633
 21
5.07704
  0
LINE
  8
0
 10
66.5633
 20
5.07704
 11
66.5907
 21
5.19966
  0
LINE
  8
0
 10
66.5907
 20
5.19966
 11
66.6257
 21
5.32031
  0
LINE
  8
0
 10
66.6257
 20
5.32031
 11
66.6683
 21
5.43852
  0
LINE
  8
0
 10
66.6683
 20
5.43852
 11
66.7182
 21
5.55383
  0
LINE
  8
0
 10
66.7182
 20
5.55383
 11
66.7752
 21
5.66579
  0
LINE
  8
0
 10
66.7752
 20
5.66579
 11
66.8392
 21
5.77393
  0
LINE
  8
0
 10
66.8392
 20
5.77393
 11
66.9098
 21
5.87784
  0
LINE
  8
0
 10
66.9098
 20
5.87784
 11
66.9868
 21
5.97713
  0
LINE
  8
0
 10
66.9868
 20
5.97713
 11
67.0699
 21
6.07137
  0
LINE
  8
0
 10
67.0699
 20
6.07137
 11
67.1588
 21
6.16022
  0
LINE
  8
0
 10
67.1588
 20
6.16022
 11
67.253
 21
6.2433
  0
LINE
  8
0
 10
67.253
 20
6.2433
 11
67.3523
 21
6.32031
  0
LINE
  8
0
 10
67.3523
 20
6.32031
 11
67.4562
 21
6.39093
  0
LINE
  8
0
 10
67.4562
 20
6.39093
 11
67.5643
 21
6.4549
  0
LINE
  8
0
 10
67.5643
 20
6.4549
 11
67.6763
 21
6.51193
  0
LINE
  8
0
 10
67.6763
 20
6.51193
 11
67.7916
 21
6.56183
  0
LINE
  8
0
 10
67.7916
 20
6.56183
 11
67.9098
 21
6.60439
  0
LINE
  8
0
 10
67.9098
 20
6.60439
 11
68.0305
 21
6.63943
  0
LINE
  8
0
 10
68.0305
 20
6.63943
 11
68.1531
 21
6.66685
  0
LINE
  8
0
 10
68.1531
 20
6.66685
 11
68.2772
 21
6.68651
  0
LINE
  8
0
 10
68.2772
 20
6.68651
 11
68.4023
 21
6.69833
  0
LINE
  8
0
 10
68.4023
 20
6.69833
 11
68.5279
 21
6.70227
  0
LINE
  8
0
 10
68.5279
 20
6.70227
 11
68.6534
 21
6.69833
  0
LINE
  8
0
 10
68.6534
 20
6.69833
 11
68.7785
 21
6.68651
  0
LINE
  8
0
 10
68.7785
 20
6.68651
 11
68.9026
 21
6.66685
  0
LINE
  8
0
 10
68.9026
 20
6.66685
 11
69.0252
 21
6.63943
  0
LINE
  8
0
 10
69.0252
 20
6.63943
 11
69.1459
 21
6.60439
  0
LINE
  8
0
 10
69.1459
 20
6.60439
 11
69.2641
 21
6.56183
  0
LINE
  8
0
 10
69.2641
 20
6.56183
 11
69.3794
 21
6.51193
  0
LINE
  8
0
 10
69.3794
 20
6.51193
 11
69.4914
 21
6.4549
  0
LINE
  8
0
 10
69.4914
 20
6.4549
 11
69.5995
 21
6.39093
  0
LINE
  8
0
 10
69.5995
 20
6.39093
 11
69.7034
 21
6.32031
  0
LINE
  8
0
 10
69.7034
 20
6.32031
 11
69.8027
 21
6.2433
  0
LINE
  8
0
 10
69.8027
 20
6.2433
 11
69.897
 21
6.16022
  0
LINE
  8
0
 10
69.897
 20
6.16022
 11
69.9858
 21
6.07137
  0
LINE
  8
0
 10
69.9858
 20
6.07137
 11
70.0689
 21
5.97713
  0
LINE
  8
0
 10
70.0689
 20
5.97713
 11
70.1459
 21
5.87784
  0
LINE
  8
0
 10
70.1459
 20
5.87784
 11
70.2165
 21
5.77393
  0
LINE
  8
0
 10
70.2165
 20
5.77393
 11
70.2805
 21
5.66579
  0
LINE
  8
0
 10
70.2805
 20
5.66579
 11
70.3375
 21
5.55383
  0
LINE
  8
0
 10
70.3375
 20
5.55383
 11
70.3874
 21
5.43852
  0
LINE
  8
0
 10
70.3874
 20
5.43852
 11
70.43
 21
5.32031
  0
LINE
  8
0
 10
70.43
 20
5.32031
 11
70.465
 21
5.19966
  0
LINE
  8
0
 10
70.465
 20
5.19966
 11
70.4924
 21
5.07704
  0
LINE
  8
0
 10
70.4924
 20
5.07704
 11
70.5121
 21
4.95294
  0
LINE
  8
0
 10
70.5121
 20
4.95294
 11
70.5239
 21
4.82785
  0
LINE
  8
0
 10
70.5239
 20
4.82785
 11
70.5279
 21
4.70227
  0
LINE
  8
0
 10
70.5279
 20
4.70227
 11
70.5239
 21
4.57669
  0
LINE
  8
0
 10
70.5239
 20
4.57669
 11
70.5121
 21
4.45161
  0
LINE
  8
0
 10
70.5121
 20
4.45161
 11
70.4924
 21
4.32751
  0
LINE
  8
0
 10
70.4924
 20
4.32751
 11
70.465
 21
4.2049
  0
LINE
  8
0
 10
70.465
 20
4.2049
 11
70.43
 21
4.08424
  0
LINE
  8
0
 10
70.43
 20
4.08424
 11
70.3874
 21
3.96602
  0
LINE
  8
0
 10
70.3874
 20
3.96602
 11
70.3375
 21
3.85072
  0
LINE
  8
0
 10
70.3375
 20
3.85072
 11
70.2805
 21
3.73877
  0
LINE
  8
0
 10
70.2805
 20
3.73877
 11
70.2165
 21
3.63062
  0
LINE
  8
0
 10
70.2165
 20
3.63062
 11
70.1459
 21
3.5267
  0
LINE
  8
0
 10
70.1459
 20
3.5267
 11
70.0689
 21
3.42743
  0
LINE
  8
0
 10
70.0689
 20
3.42743
 11
69.9858
 21
3.33318
  0
LINE
  8
0
 10
69.9858
 20
3.33318
 11
69.897
 21
3.24434
  0
LINE
  8
0
 10
69.897
 20
3.24434
 11
69.8027
 21
3.16125
  0
LINE
  8
0
 10
69.8027
 20
3.16125
 11
69.7034
 21
3.08424
  0
LINE
  8
0
 10
69.7034
 20
3.08424
 11
69.5995
 21
3.01363
  0
LINE
  8
0
 10
69.5995
 20
3.01363
 11
69.4914
 21
2.94966
  0
LINE
  8
0
 10
69.4914
 20
2.94966
 11
69.3794
 21
2.89262
  0
LINE
  8
0
 10
69.3794
 20
2.89262
 11
69.2641
 21
2.84273
  0
LINE
  8
0
 10
69.2641
 20
2.84273
 11
69.1459
 21
2.80016
  0
LINE
  8
0
 10
69.1459
 20
2.80016
 11
69.0252
 21
2.76511
  0
LINE
  8
0
 10
69.0252
 20
2.76511
 11
68.9026
 21
2.7377
  0
LINE
  8
0
 10
68.9026
 20
2.7377
 11
68.7785
 21
2.71805
  0
LINE
  8
0
 10
68.7785
 20
2.71805
 11
68.6534
 21
2.70622
  0
LINE
  8
0
 10
68.6534
 20
2.70622
 11
68.5279
 21
2.70227
  0
LINE
  8
0
 10
68.5279
 20
2.70227
 11
68.4023
 21
2.70622
  0
ENDSEC
  0
SECTION
  2
OBJECTS
  0
DICTIONARY
  0
ENDSEC
  0
EOF
