  0
SECTION
  2
BLOCKS
  0
ENDSEC
  0
SECTION
  2
ENTITIES
  0
LINE
  8
0
 10
0
 20
230.826
 11
-75
 21
0
  0
LINE
  8
0
 10
-75
 20
0
 11
75
 21
0
  0
LINE
  8
0
 10
75
 20
0
 11
0
 21
230.826
  0
LINE
  8
0
 10
-0.12558
 20
212.83
 11
-0.250656
 21
212.842
  0
LINE
  8
0
 10
-0.250656
 20
212.842
 11
-0.374756
 21
212.862
  0
LINE
  8
0
 10
-0.374756
 20
212.862
 11
-0.497375
 21
212.889
  0
LINE
  8
0
 10
-0.497375
 20
212.889
 11
-0.618027
 21
212.924
  0
LINE
  8
0
 10
-0.618027
 20
212.924
 11
-0.736237
 21
212.967
  0
LINE
  8
0
 10
-0.736237
 20
212.967
 11
-0.851547
 21
213.017
  0
LINE
  8
0
 10
-0.851547
 20
213.017
 11
-0.963501
 21
213.074
  0
LINE
  8
0
 10
-0.963501
 20
213.074
 11
-1.07164
 21
213.138
  0
LINE
  8
0
 10
-1.07164
 20
213.138
 11
-1.17557
 21
213.208
  0
LINE
  8
0
 10
-1.17557
 20
213.208
 11
-1.27484
 21
213.285
  0
LINE
  8
0
 10
-1.27484
 20
213.285
 11
-1.36908
 21
213.368
  0
LINE
  8
0
 10
-1.36908
 20
213.368
 11
-1.45793
 21
213.457
  0
LINE
  8
0
 10
-1.45793
 20
213.457
 11
-1.54102
 21
213.551
  0
LINE
  8
0
 10
-1.54102
 20
213.551
 11
-1.61803
 21
213.651
  0
LINE
  8
0
 10
-1.61803
 20
213.651
 11
-1.68864
 21
213.755
  0
LINE
  8
0
 10
-1.68864
 20
213.755
 11
-1.75261
 21
213.863
  0
LINE
  8
0
 10
-1.75261
 20
213.863
 11
-1.80965
 21
213.975
  0
LINE
  8
0
 10
-1.80965
 20
213.975
 11
-1.85954
 21
214.09
  0
LINE
  8
0
 10
-1.85954
 20
214.09
 11
-1.9021
 21
214.208
  0
LINE
  8
0
 10
-1.9021
 20
214.208
 11
-1.93716
 21
214.329
  0
LINE
  8
0
 10
-1.93716
 20
214.329
 11
-1.96457
 21
214.451
  0
LINE
  8
0
 10
-1.96457
 20
214.451
 11
-1.98422
 21
214.576
  0
LINE
  8
0
 10
-1.98422
 20
214.576
 11
-1.99605
 21
214.701
  0
LINE
  8
0
 10
-1.99605
 20
214.701
 11
-2
 21
214.826
  0
LINE
  8
0
 10
-2
 20
214.826
 11
-1.99605
 21
214.952
  0
LINE
  8
0
 10
-1.99605
 20
214.952
 11
-1.98422
 21
215.077
  0
LINE
  8
0
 10
-1.98422
 20
215.077
 11
-1.96457
 21
215.201
  0
LINE
  8
0
 10
-1.96457
 20
215.201
 11
-1.93716
 21
215.324
  0
LINE
  8
0
 10
-1.93716
 20
215.324
 11
-1.9021
 21
215.444
  0
LINE
  8
0
 10
-1.9021
 20
215.444
 11
-1.85954
 21
215.562
  0
LINE
  8
0
 10
-1.85954
 20
215.562
 11
-1.80965
 21
215.678
  0
LINE
  8
0
 10
-1.80965
 20
215.678
 11
-1.75261
 21
215.79
  0
LINE
  8
0
 10
-1.75261
 20
215.79
 11
-1.68864
 21
215.898
  0
LINE
  8
0
 10
-1.68864
 20
215.898
 11
-1.61803
 21
216.002
  0
LINE
  8
0
 10
-1.61803
 20
216.002
 11
-1.54102
 21
216.101
  0
LINE
  8
0
 10
-1.54102
 20
216.101
 11
-1.45793
 21
216.195
  0
LINE
  8
0
 10
-1.45793
 20
216.195
 11
-1.36908
 21
216.284
  0
LINE
  8
0
 10
-1.36908
 20
216.284
 11
-1.27484
 21
216.367
  0
LINE
  8
0
 10
-1.27484
 20
216.367
 11
-1.17557
 21
216.444
  0
LINE
  8
0
 10
-1.17557
 20
216.444
 11
-1.07164
 21
216.515
  0
LINE
  8
0
 10
-1.07164
 20
216.515
 11
-0.963501
 21
216.579
  0
LINE
  8
0
 10
-0.963501
 20
216.579
 11
-0.851547
 21
216.636
  0
LINE
  8
0
 10
-0.851547
 20
216.636
 11
-0.736237
 21
216.686
  0
LINE
  8
0
 10
-0.736237
 20
216.686
 11
-0.618027
 21
216.728
  0
LINE
  8
0
 10
-0.618027
 20
216.728
 11
-0.497375
 21
216.763
  0
LINE
  8
0
 10
-0.497375
 20
216.763
 11
-0.374756
 21
216.791
  0
LINE
  8
0
 10
-0.374756
 20
216.791
 11
-0.250656
 21
216.81
  0
LINE
  8
0
 10
-0.250656
 20
216.81
 11
-0.12558
 21
216.822
  0
LINE
  8
0
 10
-0.12558
 20
216.822
 11
0
 21
216.826
  0
LINE
  8
0
 10
0
 20
216.826
 11
0.12558
 21
216.822
  0
LINE
  8
0
 10
0.12558
 20
216.822
 11
0.250656
 21
216.81
  0
LINE
  8
0
 10
0.250656
 20
216.81
 11
0.374756
 21
216.791
  0
LINE
  8
0
 10
0.374756
 20
216.791
 11
0.497375
 21
216.763
  0
LINE
  8
0
 10
0.497375
 20
216.763
 11
0.618027
 21
216.728
  0
LINE
  8
0
 10
0.618027
 20
216.728
 11
0.736237
 21
216.686
  0
LINE
  8
0
 10
0.736237
 20
216.686
 11
0.851547
 21
216.636
  0
LINE
  8
0
 10
0.851547
 20
216.636
 11
0.963501
 21
216.579
  0
LINE
  8
0
 10
0.963501
 20
216.579
 11
1.07164
 21
216.515
  0
LINE
  8
0
 10
1.07164
 20
216.515
 11
1.17557
 21
216.444
  0
LINE
  8
0
 10
1.17557
 20
216.444
 11
1.27484
 21
216.367
  0
LINE
  8
0
 10
1.27484
 20
216.367
 11
1.36908
 21
216.284
  0
LINE
  8
0
 10
1.36908
 20
216.284
 11
1.45793
 21
216.195
  0
LINE
  8
0
 10
1.45793
 20
216.195
 11
1.54102
 21
216.101
  0
LINE
  8
0
 10
1.54102
 20
216.101
 11
1.61803
 21
216.002
  0
LINE
  8
0
 10
1.61803
 20
216.002
 11
1.68864
 21
215.898
  0
LINE
  8
0
 10
1.68864
 20
215.898
 11
1.75261
 21
215.79
  0
LINE
  8
0
 10
1.75261
 20
215.79
 11
1.80965
 21
215.678
  0
LINE
  8
0
 10
1.80965
 20
215.678
 11
1.85954
 21
215.562
  0
LINE
  8
0
 10
1.85954
 20
215.562
 11
1.9021
 21
215.444
  0
LINE
  8
0
 10
1.9021
 20
215.444
 11
1.93716
 21
215.324
  0
LINE
  8
0
 10
1.93716
 20
215.324
 11
1.96457
 21
215.201
  0
LINE
  8
0
 10
1.96457
 20
215.201
 11
1.98422
 21
215.077
  0
LINE
  8
0
 10
1.98422
 20
215.077
 11
1.99605
 21
214.952
  0
LINE
  8
0
 10
1.99605
 20
214.952
 11
2
 21
214.826
  0
LINE
  8
0
 10
2
 20
214.826
 11
1.99605
 21
214.701
  0
LINE
  8
0
 10
1.99605
 20
214.701
 11
1.98422
 21
214.576
  0
LINE
  8
0
 10
1.98422
 20
214.576
 11
1.96457
 21
214.451
  0
LINE
  8
0
 10
1.96457
 20
214.451
 11
1.93716
 21
214.329
  0
LINE
  8
0
 10
1.93716
 20
214.329
 11
1.9021
 21
214.208
  0
LINE
  8
0
 10
1.9021
 20
214.208
 11
1.85954
 21
214.09
  0
LINE
  8
0
 10
1.85954
 20
214.09
 11
1.80965
 21
213.975
  0
LINE
  8
0
 10
1.80965
 20
213.975
 11
1.75261
 21
213.863
  0
LINE
  8
0
 10
1.75261
 20
213.863
 11
1.68864
 21
213.755
  0
LINE
  8
0
 10
1.68864
 20
213.755
 11
1.61803
 21
213.651
  0
LINE
  8
0
 10
1.61803
 20
213.651
 11
1.54102
 21
213.551
  0
LINE
  8
0
 10
1.54102
 20
213.551
 11
1.45793
 21
213.457
  0
LINE
  8
0
 10
1.45793
 20
213.457
 11
1.36908
 21
213.368
  0
LINE
  8
0
 10
1.36908
 20
213.368
 11
1.27484
 21
213.285
  0
LINE
  8
0
 10
1.27484
 20
213.285
 11
1.17557
 21
213.208
  0
LINE
  8
0
 10
1.17557
 20
213.208
 11
1.07164
 21
213.138
  0
LINE
  8
0
 10
1.07164
 20
213.138
 11
0.963501
 21
213.074
  0
LINE
  8
0
 10
0.963501
 20
213.074
 11
0.851547
 21
213.017
  0
LINE
  8
0
 10
0.851547
 20
213.017
 11
0.736237
 21
212.967
  0
LINE
  8
0
 10
0.736237
 20
212.967
 11
0.618027
 21
212.924
  0
LINE
  8
0
 10
0.618027
 20
212.924
 11
0.497375
 21
212.889
  0
LINE
  8
0
 10
0.497375
 20
212.889
 11
0.374756
 21
212.862
  0
LINE
  8
0
 10
0.374756
 20
212.862
 11
0.250656
 21
212.842
  0
LINE
  8
0
 10
0.250656
 20
212.842
 11
0.12558
 21
212.83
  0
LINE
  8
0
 10
0.12558
 20
212.83
 11
0
 21
212.826
  0
LINE
  8
0
 10
0
 20
212.826
 11
-0.12558
 21
212.83
  0
LINE
  8
0
 10
0.519714
 20
186.667
 11
0.519714
 21
190.394
  0
LINE
  8
0
 10
0.519714
 20
190.394
 11
2.31374
 21
184.873
  0
LINE
  8
0
 10
2.31374
 20
184.873
 11
0.519714
 21
186.667
  0
LINE
  8
0
 10
4.33307
 20
178.52
 11
0.519714
 21
178.52
  0
LINE
  8
0
 10
0.519714
 20
178.52
 11
0.519714
 21
182.333
  0
LINE
  8
0
 10
0.519714
 20
182.333
 11
3.13885
 21
182.333
  0
LINE
  8
0
 10
3.13885
 20
182.333
 11
5.42947
 21
175.283
  0
LINE
  8
0
 10
5.42947
 20
175.283
 11
4.33307
 21
174.187
  0
LINE
  8
0
 10
4.33307
 20
174.187
 11
4.33307
 21
178.52
  0
LINE
  8
0
 10
-4.33307
 20
165.52
 11
-7.55489
 21
168.742
  0
LINE
  8
0
 10
-7.55489
 20
168.742
 11
-4.33307
 21
178.658
  0
LINE
  8
0
 10
-4.33307
 20
178.658
 11
-4.33307
 21
177.48
  0
LINE
  8
0
 10
-4.33307
 20
177.48
 11
-0.519714
 21
177.48
  0
LINE
  8
0
 10
-0.519714
 20
177.48
 11
-0.519714
 21
173.667
  0
LINE
  8
0
 10
-0.519714
 20
173.667
 11
-4.85318
 21
173.667
  0
LINE
  8
0
 10
-4.85318
 20
173.667
 11
-0.519714
 21
169.333
  0
LINE
  8
0
 10
-0.519714
 20
169.333
 11
-0.519714
 21
165.52
  0
LINE
  8
0
 10
-0.519714
 20
165.52
 11
-4.33307
 21
165.52
  0
LINE
  8
0
 10
4.33307
 20
152.52
 11
0.519714
 21
152.52
  0
LINE
  8
0
 10
0.519714
 20
152.52
 11
0.519714
 21
156.333
  0
LINE
  8
0
 10
0.519714
 20
156.333
 11
4.85318
 21
156.333
  0
LINE
  8
0
 10
4.85318
 20
156.333
 11
0.519714
 21
160.667
  0
LINE
  8
0
 10
0.519714
 20
160.667
 11
0.519714
 21
164.48
  0
LINE
  8
0
 10
0.519714
 20
164.48
 11
4.33307
 21
164.48
  0
LINE
  8
0
 10
4.33307
 20
164.48
 11
8.66653
 21
160.146
  0
LINE
  8
0
 10
8.66653
 20
160.146
 11
8.66653
 21
164.48
  0
LINE
  8
0
 10
8.66653
 20
164.48
 11
8.9397
 21
164.48
  0
LINE
  8
0
 10
8.9397
 20
164.48
 11
12.4799
 21
153.584
  0
LINE
  8
0
 10
12.4799
 20
153.584
 11
12.4799
 21
152.52
  0
LINE
  8
0
 10
12.4799
 20
152.52
 11
8.66653
 21
152.52
  0
LINE
  8
0
 10
8.66653
 20
152.52
 11
4.33307
 21
148.187
  0
LINE
  8
0
 10
4.33307
 20
148.187
 11
4.33307
 21
152.52
  0
LINE
  8
0
 10
-10.1787
 20
160.667
 11
-9.18704
 21
160.667
  0
LINE
  8
0
 10
-9.18704
 20
160.667
 11
-10.6561
 21
159.197
  0
LINE
  8
0
 10
-10.6561
 20
159.197
 11
-10.1787
 21
160.667
  0
LINE
  8
0
 10
-12.4799
 20
139.52
 11
-12.4799
 21
143.333
  0
LINE
  8
0
 10
-12.4799
 20
143.333
 11
-15.8106
 21
143.333
  0
LINE
  8
0
 10
-15.8106
 20
143.333
 11
-15.3281
 21
144.818
  0
LINE
  8
0
 10
-15.3281
 20
144.818
 11
-12.4799
 21
147.667
  0
LINE
  8
0
 10
-12.4799
 20
147.667
 11
-12.4799
 21
151.48
  0
LINE
  8
0
 10
-12.4799
 20
151.48
 11
-8.66653
 21
151.48
  0
LINE
  8
0
 10
-8.66653
 20
151.48
 11
-4.33307
 21
155.813
  0
LINE
  8
0
 10
-4.33307
 20
155.813
 11
-4.33307
 21
151.48
  0
LINE
  8
0
 10
-4.33307
 20
151.48
 11
-0.519714
 21
151.48
  0
LINE
  8
0
 10
-0.519714
 20
151.48
 11
-0.519714
 21
147.667
  0
LINE
  8
0
 10
-0.519714
 20
147.667
 11
-4.85318
 21
147.667
  0
LINE
  8
0
 10
-4.85318
 20
147.667
 11
-0.519714
 21
143.333
  0
LINE
  8
0
 10
-0.519714
 20
143.333
 11
-0.519714
 21
139.52
  0
LINE
  8
0
 10
-0.519714
 20
139.52
 11
-4.33307
 21
139.52
  0
LINE
  8
0
 10
-4.33307
 20
139.52
 11
-8.66653
 21
143.854
  0
LINE
  8
0
 10
-8.66653
 20
143.854
 11
-8.66653
 21
139.52
  0
LINE
  8
0
 10
-8.66653
 20
139.52
 11
-12.4799
 21
139.52
  0
LINE
  8
0
 10
13.5201
 20
139.52
 11
13.5201
 21
143.333
  0
LINE
  8
0
 10
13.5201
 20
143.333
 11
9.18704
 21
143.333
  0
LINE
  8
0
 10
9.18704
 20
143.333
 11
13.5201
 21
147.667
  0
LINE
  8
0
 10
13.5201
 20
147.667
 11
13.5201
 21
150.383
  0
LINE
  8
0
 10
13.5201
 20
150.383
 11
17.0496
 21
139.52
  0
LINE
  8
0
 10
17.0496
 20
139.52
 11
13.5201
 21
139.52
  0
LINE
  8
0
 10
-21.6669
 20
125.309
 11
-18.4371
 21
135.25
  0
LINE
  8
0
 10
-18.4371
 20
135.25
 11
-17.3335
 21
134.146
  0
LINE
  8
0
 10
-17.3335
 20
134.146
 11
-17.3335
 21
138.48
  0
LINE
  8
0
 10
-17.3335
 20
138.48
 11
-13.5201
 21
138.48
  0
LINE
  8
0
 10
-13.5201
 20
138.48
 11
-13.5201
 21
134.667
  0
LINE
  8
0
 10
-13.5201
 20
134.667
 11
-9.18704
 21
134.667
  0
LINE
  8
0
 10
-9.18704
 20
134.667
 11
-13.5201
 21
130.333
  0
LINE
  8
0
 10
-13.5201
 20
130.333
 11
-13.5201
 21
126.52
  0
LINE
  8
0
 10
-13.5201
 20
126.52
 11
-17.3335
 21
126.52
  0
LINE
  8
0
 10
-17.3335
 20
126.52
 11
-21.6669
 21
122.187
  0
LINE
  8
0
 10
-21.6669
 20
122.187
 11
-21.6669
 21
125.309
  0
LINE
  8
0
 10
4.33307
 20
126.52
 11
0.519714
 21
126.52
  0
LINE
  8
0
 10
0.519714
 20
126.52
 11
0.519714
 21
130.333
  0
LINE
  8
0
 10
0.519714
 20
130.333
 11
4.85318
 21
130.333
  0
LINE
  8
0
 10
4.85318
 20
130.333
 11
0.519714
 21
134.667
  0
LINE
  8
0
 10
0.519714
 20
134.667
 11
0.519714
 21
138.48
  0
LINE
  8
0
 10
0.519714
 20
138.48
 11
4.33307
 21
138.48
  0
LINE
  8
0
 10
4.33307
 20
138.48
 11
8.66653
 21
134.146
  0
LINE
  8
0
 10
8.66653
 20
134.146
 11
8.66653
 21
138.48
  0
LINE
  8
0
 10
8.66653
 20
138.48
 11
12.4799
 21
138.48
  0
LINE
  8
0
 10
12.4799
 20
138.48
 11
12.4799
 21
134.667
  0
LINE
  8
0
 10
12.4799
 20
134.667
 11
16.813
 21
134.667
  0
LINE
  8
0
 10
16.813
 20
134.667
 11
12.4799
 21
130.333
  0
LINE
  8
0
 10
12.4799
 20
130.333
 11
12.4799
 21
126.52
  0
LINE
  8
0
 10
12.4799
 20
126.52
 11
8.66653
 21
126.52
  0
LINE
  8
0
 10
8.66653
 20
126.52
 11
4.33307
 21
122.187
  0
LINE
  8
0
 10
4.33307
 20
122.187
 11
4.33307
 21
126.52
  0
LINE
  8
0
 10
-12.4799
 20
113.52
 11
-12.4799
 21
117.333
  0
LINE
  8
0
 10
-12.4799
 20
117.333
 11
-16.813
 21
117.333
  0
LINE
  8
0
 10
-16.813
 20
117.333
 11
-12.4799
 21
121.667
  0
LINE
  8
0
 10
-12.4799
 20
121.667
 11
-12.4799
 21
125.48
  0
LINE
  8
0
 10
-12.4799
 20
125.48
 11
-8.66653
 21
125.48
  0
LINE
  8
0
 10
-8.66653
 20
125.48
 11
-4.33307
 21
129.813
  0
LINE
  8
0
 10
-4.33307
 20
129.813
 11
-4.33307
 21
125.48
  0
LINE
  8
0
 10
-4.33307
 20
125.48
 11
-0.519714
 21
125.48
  0
LINE
  8
0
 10
-0.519714
 20
125.48
 11
-0.519714
 21
121.667
  0
LINE
  8
0
 10
-0.519714
 20
121.667
 11
-4.85318
 21
121.667
  0
LINE
  8
0
 10
-4.85318
 20
121.667
 11
-0.519714
 21
117.333
  0
LINE
  8
0
 10
-0.519714
 20
117.333
 11
-0.519714
 21
113.52
  0
LINE
  8
0
 10
-0.519714
 20
113.52
 11
-4.33307
 21
113.52
  0
LINE
  8
0
 10
-4.33307
 20
113.52
 11
-8.66653
 21
117.854
  0
LINE
  8
0
 10
-8.66653
 20
117.854
 11
-8.66653
 21
113.52
  0
LINE
  8
0
 10
-8.66653
 20
113.52
 11
-12.4799
 21
113.52
  0
LINE
  8
0
 10
13.5201
 20
113.52
 11
13.5201
 21
117.333
  0
LINE
  8
0
 10
13.5201
 20
117.333
 11
9.18704
 21
117.333
  0
LINE
  8
0
 10
9.18704
 20
117.333
 11
13.5201
 21
121.667
  0
LINE
  8
0
 10
13.5201
 20
121.667
 11
13.5201
 21
125.48
  0
LINE
  8
0
 10
13.5201
 20
125.48
 11
17.3335
 21
125.48
  0
LINE
  8
0
 10
17.3335
 20
125.48
 11
20.5625
 21
128.709
  0
LINE
  8
0
 10
20.5625
 20
128.709
 11
22.8505
 21
121.667
  0
LINE
  8
0
 10
22.8505
 20
121.667
 11
21.1468
 21
121.667
  0
LINE
  8
0
 10
21.1468
 20
121.667
 11
23.6704
 21
119.143
  0
LINE
  8
0
 10
23.6704
 20
119.143
 11
25.4803
 21
113.573
  0
LINE
  8
0
 10
25.4803
 20
113.573
 11
25.4803
 21
113.52
  0
LINE
  8
0
 10
25.4803
 20
113.52
 11
21.6669
 21
113.52
  0
LINE
  8
0
 10
21.6669
 20
113.52
 11
17.3335
 21
117.854
  0
LINE
  8
0
 10
17.3335
 20
117.854
 11
17.3335
 21
113.52
  0
LINE
  8
0
 10
17.3335
 20
113.52
 11
13.5201
 21
113.52
  0
LINE
  8
0
 10
4.33307
 20
100.52
 11
0.519714
 21
100.52
  0
LINE
  8
0
 10
0.519714
 20
100.52
 11
0.519714
 21
104.333
  0
LINE
  8
0
 10
0.519714
 20
104.333
 11
4.85318
 21
104.333
  0
LINE
  8
0
 10
4.85318
 20
104.333
 11
0.519714
 21
108.667
  0
LINE
  8
0
 10
0.519714
 20
108.667
 11
0.519714
 21
112.48
  0
LINE
  8
0
 10
0.519714
 20
112.48
 11
4.33307
 21
112.48
  0
LINE
  8
0
 10
4.33307
 20
112.48
 11
8.66653
 21
108.146
  0
LINE
  8
0
 10
8.66653
 20
108.146
 11
8.66653
 21
112.48
  0
LINE
  8
0
 10
8.66653
 20
112.48
 11
12.4799
 21
112.48
  0
LINE
  8
0
 10
12.4799
 20
112.48
 11
12.4799
 21
108.667
  0
LINE
  8
0
 10
12.4799
 20
108.667
 11
16.813
 21
108.667
  0
LINE
  8
0
 10
16.813
 20
108.667
 11
12.4799
 21
104.333
  0
LINE
  8
0
 10
12.4799
 20
104.333
 11
12.4799
 21
100.52
  0
LINE
  8
0
 10
12.4799
 20
100.52
 11
8.66653
 21
100.52
  0
LINE
  8
0
 10
8.66653
 20
100.52
 11
4.33307
 21
96.187
  0
LINE
  8
0
 10
4.33307
 20
96.187
 11
4.33307
 21
100.52
  0
LINE
  8
0
 10
-21.6669
 20
100.52
 11
-25.4803
 21
100.52
  0
LINE
  8
0
 10
-25.4803
 20
100.52
 11
-25.4803
 21
104.333
  0
LINE
  8
0
 10
-25.4803
 20
104.333
 11
-21.1468
 21
104.333
  0
LINE
  8
0
 10
-21.1468
 20
104.333
 11
-25.4803
 21
108.667
  0
LINE
  8
0
 10
-25.4803
 20
108.667
 11
-25.4803
 21
112.48
  0
LINE
  8
0
 10
-25.4803
 20
112.48
 11
-21.6669
 21
112.48
  0
LINE
  8
0
 10
-21.6669
 20
112.48
 11
-17.3335
 21
108.146
  0
LINE
  8
0
 10
-17.3335
 20
108.146
 11
-17.3335
 21
112.48
  0
LINE
  8
0
 10
-17.3335
 20
112.48
 11
-13.5201
 21
112.48
  0
LINE
  8
0
 10
-13.5201
 20
112.48
 11
-13.5201
 21
108.667
  0
LINE
  8
0
 10
-13.5201
 20
108.667
 11
-9.18704
 21
108.667
  0
LINE
  8
0
 10
-9.18704
 20
108.667
 11
-13.5201
 21
104.333
  0
LINE
  8
0
 10
-13.5201
 20
104.333
 11
-13.5201
 21
100.52
  0
LINE
  8
0
 10
-13.5201
 20
100.52
 11
-17.3335
 21
100.52
  0
LINE
  8
0
 10
-17.3335
 20
100.52
 11
-21.6669
 21
96.187
  0
LINE
  8
0
 10
-21.6669
 20
96.187
 11
-21.6669
 21
100.52
  0
LINE
  8
0
 10
26.5197
 20
108.667
 11
26.5197
 21
110.374
  0
LINE
  8
0
 10
26.5197
 20
110.374
 11
27.3416
 21
107.845
  0
LINE
  8
0
 10
27.3416
 20
107.845
 11
26.5197
 21
108.667
  0
LINE
  8
0
 10
26.5197
 20
100.52
 11
26.5197
 21
104.333
  0
LINE
  8
0
 10
26.5197
 20
104.333
 11
28.4826
 21
104.333
  0
LINE
  8
0
 10
28.4826
 20
104.333
 11
29.7216
 21
100.52
  0
LINE
  8
0
 10
29.7216
 20
100.52
 11
26.5197
 21
100.52
  0
LINE
  8
0
 10
-12.4799
 20
87.5201
 11
-12.4799
 21
91.3335
  0
LINE
  8
0
 10
-12.4799
 20
91.3335
 11
-16.813
 21
91.3335
  0
LINE
  8
0
 10
-16.813
 20
91.3335
 11
-12.4799
 21
95.6669
  0
LINE
  8
0
 10
-12.4799
 20
95.6669
 11
-12.4799
 21
99.4803
  0
LINE
  8
0
 10
-12.4799
 20
99.4803
 11
-8.66653
 21
99.4803
  0
LINE
  8
0
 10
-8.66653
 20
99.4803
 11
-4.33307
 21
103.813
  0
LINE
  8
0
 10
-4.33307
 20
103.813
 11
-4.33307
 21
99.4803
  0
LINE
  8
0
 10
-4.33307
 20
99.4803
 11
-0.519714
 21
99.4803
  0
LINE
  8
0
 10
-0.519714
 20
99.4803
 11
-0.519714
 21
95.6669
  0
LINE
  8
0
 10
-0.519714
 20
95.6669
 11
-4.85318
 21
95.6669
  0
LINE
  8
0
 10
-4.85318
 20
95.6669
 11
-0.519714
 21
91.3335
  0
LINE
  8
0
 10
-0.519714
 20
91.3335
 11
-0.519714
 21
87.5201
  0
LINE
  8
0
 10
-0.519714
 20
87.5201
 11
-4.33307
 21
87.5201
  0
LINE
  8
0
 10
-4.33307
 20
87.5201
 11
-8.66653
 21
91.8536
  0
LINE
  8
0
 10
-8.66653
 20
91.8536
 11
-8.66653
 21
87.5201
  0
LINE
  8
0
 10
-8.66653
 20
87.5201
 11
-12.4799
 21
87.5201
  0
LINE
  8
0
 10
13.5201
 20
87.5201
 11
13.5201
 21
91.3335
  0
LINE
  8
0
 10
13.5201
 20
91.3335
 11
9.18704
 21
91.3335
  0
LINE
  8
0
 10
9.18704
 20
91.3335
 11
13.5201
 21
95.6669
  0
LINE
  8
0
 10
13.5201
 20
95.6669
 11
13.5201
 21
99.4803
  0
LINE
  8
0
 10
13.5201
 20
99.4803
 11
17.3335
 21
99.4803
  0
LINE
  8
0
 10
17.3335
 20
99.4803
 11
21.6669
 21
103.813
  0
LINE
  8
0
 10
21.6669
 20
103.813
 11
21.6669
 21
99.4803
  0
LINE
  8
0
 10
21.6669
 20
99.4803
 11
25.4803
 21
99.4803
  0
LINE
  8
0
 10
25.4803
 20
99.4803
 11
25.4803
 21
95.6669
  0
LINE
  8
0
 10
25.4803
 20
95.6669
 11
21.1468
 21
95.6669
  0
LINE
  8
0
 10
21.1468
 20
95.6669
 11
25.4803
 21
91.3335
  0
LINE
  8
0
 10
25.4803
 20
91.3335
 11
25.4803
 21
87.5201
  0
LINE
  8
0
 10
25.4803
 20
87.5201
 11
21.6669
 21
87.5201
  0
LINE
  8
0
 10
21.6669
 20
87.5201
 11
17.3335
 21
91.8536
  0
LINE
  8
0
 10
17.3335
 20
91.8536
 11
17.3335
 21
87.5201
  0
LINE
  8
0
 10
17.3335
 20
87.5201
 11
13.5201
 21
87.5201
  0
LINE
  8
0
 10
-30.3331
 20
87.5201
 11
-33.0596
 21
90.2466
  0
LINE
  8
0
 10
-33.0596
 20
90.2466
 11
-30.0593
 21
99.4803
  0
LINE
  8
0
 10
-30.0593
 20
99.4803
 11
-26.5197
 21
99.4803
  0
LINE
  8
0
 10
-26.5197
 20
99.4803
 11
-26.5197
 21
95.6669
  0
LINE
  8
0
 10
-26.5197
 20
95.6669
 11
-30.8532
 21
95.6669
  0
LINE
  8
0
 10
-30.8532
 20
95.6669
 11
-26.5197
 21
91.3335
  0
LINE
  8
0
 10
-26.5197
 20
91.3335
 11
-26.5197
 21
87.5201
  0
LINE
  8
0
 10
-26.5197
 20
87.5201
 11
-30.3331
 21
87.5201
  0
LINE
  8
0
 10
30.3331
 20
98.6379
 11
30.9341
 21
96.788
  0
LINE
  8
0
 10
30.9341
 20
96.788
 11
30.3331
 21
96.187
  0
LINE
  8
0
 10
30.3331
 20
96.187
 11
30.3331
 21
98.6379
  0
LINE
  8
0
 10
4.33307
 20
74.5197
 11
0.519714
 21
74.5197
  0
LINE
  8
0
 10
0.519714
 20
74.5197
 11
0.519714
 21
78.3331
  0
LINE
  8
0
 10
0.519714
 20
78.3331
 11
4.85318
 21
78.3331
  0
LINE
  8
0
 10
4.85318
 20
78.3331
 11
0.519714
 21
82.6665
  0
LINE
  8
0
 10
0.519714
 20
82.6665
 11
0.519714
 21
86.4799
  0
LINE
  8
0
 10
0.519714
 20
86.4799
 11
4.33307
 21
86.4799
  0
LINE
  8
0
 10
4.33307
 20
86.4799
 11
8.66653
 21
82.1464
  0
LINE
  8
0
 10
8.66653
 20
82.1464
 11
8.66653
 21
86.4799
  0
LINE
  8
0
 10
8.66653
 20
86.4799
 11
12.4799
 21
86.4799
  0
LINE
  8
0
 10
12.4799
 20
86.4799
 11
12.4799
 21
82.6665
  0
LINE
  8
0
 10
12.4799
 20
82.6665
 11
16.813
 21
82.6665
  0
LINE
  8
0
 10
16.813
 20
82.6665
 11
12.4799
 21
78.3331
  0
LINE
  8
0
 10
12.4799
 20
78.3331
 11
12.4799
 21
74.5197
  0
LINE
  8
0
 10
12.4799
 20
74.5197
 11
8.66653
 21
74.5197
  0
LINE
  8
0
 10
8.66653
 20
74.5197
 11
4.33307
 21
70.187
  0
LINE
  8
0
 10
4.33307
 20
70.187
 11
4.33307
 21
74.5197
  0
LINE
  8
0
 10
-21.6669
 20
74.5197
 11
-25.4803
 21
74.5197
  0
LINE
  8
0
 10
-25.4803
 20
74.5197
 11
-25.4803
 21
78.3331
  0
LINE
  8
0
 10
-25.4803
 20
78.3331
 11
-21.1468
 21
78.3331
  0
LINE
  8
0
 10
-21.1468
 20
78.3331
 11
-25.4803
 21
82.6665
  0
LINE
  8
0
 10
-25.4803
 20
82.6665
 11
-25.4803
 21
86.4799
  0
LINE
  8
0
 10
-25.4803
 20
86.4799
 11
-21.6669
 21
86.4799
  0
LINE
  8
0
 10
-21.6669
 20
86.4799
 11
-17.3335
 21
82.1464
  0
LINE
  8
0
 10
-17.3335
 20
82.1464
 11
-17.3335
 21
86.4799
  0
LINE
  8
0
 10
-17.3335
 20
86.4799
 11
-13.5201
 21
86.4799
  0
LINE
  8
0
 10
-13.5201
 20
86.4799
 11
-13.5201
 21
82.6665
  0
LINE
  8
0
 10
-13.5201
 20
82.6665
 11
-9.18704
 21
82.6665
  0
LINE
  8
0
 10
-9.18704
 20
82.6665
 11
-13.5201
 21
78.3331
  0
LINE
  8
0
 10
-13.5201
 20
78.3331
 11
-13.5201
 21
74.5197
  0
LINE
  8
0
 10
-13.5201
 20
74.5197
 11
-17.3335
 21
74.5197
  0
LINE
  8
0
 10
-17.3335
 20
74.5197
 11
-21.6669
 21
70.187
  0
LINE
  8
0
 10
-21.6669
 20
70.187
 11
-21.6669
 21
74.5197
  0
LINE
  8
0
 10
30.3331
 20
74.5197
 11
26.5197
 21
74.5197
  0
LINE
  8
0
 10
26.5197
 20
74.5197
 11
26.5197
 21
78.3331
  0
LINE
  8
0
 10
26.5197
 20
78.3331
 11
30.8532
 21
78.3331
  0
LINE
  8
0
 10
30.8532
 20
78.3331
 11
26.5197
 21
82.6665
  0
LINE
  8
0
 10
26.5197
 20
82.6665
 11
26.5197
 21
86.4799
  0
LINE
  8
0
 10
26.5197
 20
86.4799
 11
30.3331
 21
86.4799
  0
LINE
  8
0
 10
30.3331
 20
86.4799
 11
34.6665
 21
82.1464
  0
LINE
  8
0
 10
34.6665
 20
82.1464
 11
34.6665
 21
85.3008
  0
LINE
  8
0
 10
34.6665
 20
85.3008
 11
38.1695
 21
74.5197
  0
LINE
  8
0
 10
38.1695
 20
74.5197
 11
34.6665
 21
74.5197
  0
LINE
  8
0
 10
34.6665
 20
74.5197
 11
30.3331
 21
70.187
  0
LINE
  8
0
 10
30.3331
 20
70.187
 11
30.3331
 21
74.5197
  0
LINE
  8
0
 10
-35.5225
 20
82.6665
 11
-35.187
 21
82.6665
  0
LINE
  8
0
 10
-35.187
 20
82.6665
 11
-35.6839
 21
82.1696
  0
LINE
  8
0
 10
-35.6839
 20
82.1696
 11
-35.5225
 21
82.6665
  0
LINE
  8
0
 10
13.5201
 20
61.5201
 11
13.5201
 21
65.3335
  0
LINE
  8
0
 10
13.5201
 20
65.3335
 11
9.18704
 21
65.3335
  0
LINE
  8
0
 10
9.18704
 20
65.3335
 11
13.5201
 21
69.6669
  0
LINE
  8
0
 10
13.5201
 20
69.6669
 11
13.5201
 21
73.4803
  0
LINE
  8
0
 10
13.5201
 20
73.4803
 11
17.3335
 21
73.4803
  0
LINE
  8
0
 10
17.3335
 20
73.4803
 11
21.6669
 21
77.813
  0
LINE
  8
0
 10
21.6669
 20
77.813
 11
21.6669
 21
73.4803
  0
LINE
  8
0
 10
21.6669
 20
73.4803
 11
25.4803
 21
73.4803
  0
LINE
  8
0
 10
25.4803
 20
73.4803
 11
25.4803
 21
69.6669
  0
LINE
  8
0
 10
25.4803
 20
69.6669
 11
21.1468
 21
69.6669
  0
LINE
  8
0
 10
21.1468
 20
69.6669
 11
25.4803
 21
65.3335
  0
LINE
  8
0
 10
25.4803
 20
65.3335
 11
25.4803
 21
61.5201
  0
LINE
  8
0
 10
25.4803
 20
61.5201
 11
21.6669
 21
61.5201
  0
LINE
  8
0
 10
21.6669
 20
61.5201
 11
17.3335
 21
65.8536
  0
LINE
  8
0
 10
17.3335
 20
65.8536
 11
17.3335
 21
61.5201
  0
LINE
  8
0
 10
17.3335
 20
61.5201
 11
13.5201
 21
61.5201
  0
LINE
  8
0
 10
-38.4799
 20
61.5201
 11
-38.4799
 21
65.3335
  0
LINE
  8
0
 10
-38.4799
 20
65.3335
 11
-41.1543
 21
65.3335
  0
LINE
  8
0
 10
-41.1543
 20
65.3335
 11
-40.3559
 21
67.7907
  0
LINE
  8
0
 10
-40.3559
 20
67.7907
 11
-38.4799
 21
69.6669
  0
LINE
  8
0
 10
-38.4799
 20
69.6669
 11
-38.4799
 21
73.4803
  0
LINE
  8
0
 10
-38.4799
 20
73.4803
 11
-34.6665
 21
73.4803
  0
LINE
  8
0
 10
-34.6665
 20
73.4803
 11
-30.3331
 21
77.813
  0
LINE
  8
0
 10
-30.3331
 20
77.813
 11
-30.3331
 21
73.4803
  0
LINE
  8
0
 10
-30.3331
 20
73.4803
 11
-26.5197
 21
73.4803
  0
LINE
  8
0
 10
-26.5197
 20
73.4803
 11
-26.5197
 21
69.6669
  0
LINE
  8
0
 10
-26.5197
 20
69.6669
 11
-30.8532
 21
69.6669
  0
LINE
  8
0
 10
-30.8532
 20
69.6669
 11
-26.5197
 21
65.3335
  0
LINE
  8
0
 10
-26.5197
 20
65.3335
 11
-26.5197
 21
61.5201
  0
LINE
  8
0
 10
-26.5197
 20
61.5201
 11
-30.3331
 21
61.5201
  0
LINE
  8
0
 10
-30.3331
 20
61.5201
 11
-34.6665
 21
65.8536
  0
LINE
  8
0
 10
-34.6665
 20
65.8536
 11
-34.6665
 21
61.5201
  0
LINE
  8
0
 10
-34.6665
 20
61.5201
 11
-38.4799
 21
61.5201
  0
LINE
  8
0
 10
-12.4799
 20
61.5201
 11
-12.4799
 21
65.3335
  0
LINE
  8
0
 10
-12.4799
 20
65.3335
 11
-16.813
 21
65.3335
  0
LINE
  8
0
 10
-16.813
 20
65.3335
 11
-12.4799
 21
69.6669
  0
LINE
  8
0
 10
-12.4799
 20
69.6669
 11
-12.4799
 21
73.4803
  0
LINE
  8
0
 10
-12.4799
 20
73.4803
 11
-8.66653
 21
73.4803
  0
LINE
  8
0
 10
-8.66653
 20
73.4803
 11
-4.33307
 21
77.813
  0
LINE
  8
0
 10
-4.33307
 20
77.813
 11
-4.33307
 21
73.4803
  0
LINE
  8
0
 10
-4.33307
 20
73.4803
 11
-0.519714
 21
73.4803
  0
LINE
  8
0
 10
-0.519714
 20
73.4803
 11
-0.519714
 21
69.6669
  0
LINE
  8
0
 10
-0.519714
 20
69.6669
 11
-4.85318
 21
69.6669
  0
LINE
  8
0
 10
-4.85318
 20
69.6669
 11
-0.519714
 21
65.3335
  0
LINE
  8
0
 10
-0.519714
 20
65.3335
 11
-0.519714
 21
61.5201
  0
LINE
  8
0
 10
-0.519714
 20
61.5201
 11
-4.33307
 21
61.5201
  0
LINE
  8
0
 10
-4.33307
 20
61.5201
 11
-8.66653
 21
65.8536
  0
LINE
  8
0
 10
-8.66653
 20
65.8536
 11
-8.66653
 21
61.5201
  0
LINE
  8
0
 10
-8.66653
 20
61.5201
 11
-12.4799
 21
61.5201
  0
LINE
  8
0
 10
39.5201
 20
61.5201
 11
39.5201
 21
65.3335
  0
LINE
  8
0
 10
39.5201
 20
65.3335
 11
35.187
 21
65.3335
  0
LINE
  8
0
 10
35.187
 20
65.3335
 11
39.5201
 21
69.6669
  0
LINE
  8
0
 10
39.5201
 20
69.6669
 11
39.5201
 21
70.3631
  0
LINE
  8
0
 10
39.5201
 20
70.3631
 11
42.3934
 21
61.5201
  0
LINE
  8
0
 10
42.3934
 20
61.5201
 11
39.5201
 21
61.5201
  0
LINE
  8
0
 10
-21.6669
 20
48.5197
 11
-25.4803
 21
48.5197
  0
LINE
  8
0
 10
-25.4803
 20
48.5197
 11
-25.4803
 21
52.3331
  0
LINE
  8
0
 10
-25.4803
 20
52.3331
 11
-21.1468
 21
52.3331
  0
LINE
  8
0
 10
-21.1468
 20
52.3331
 11
-25.4803
 21
56.6665
  0
LINE
  8
0
 10
-25.4803
 20
56.6665
 11
-25.4803
 21
60.4799
  0
LINE
  8
0
 10
-25.4803
 20
60.4799
 11
-21.6669
 21
60.4799
  0
LINE
  8
0
 10
-21.6669
 20
60.4799
 11
-17.3335
 21
56.1464
  0
LINE
  8
0
 10
-17.3335
 20
56.1464
 11
-17.3335
 21
60.4799
  0
LINE
  8
0
 10
-17.3335
 20
60.4799
 11
-13.5201
 21
60.4799
  0
LINE
  8
0
 10
-13.5201
 20
60.4799
 11
-13.5201
 21
56.6665
  0
LINE
  8
0
 10
-13.5201
 20
56.6665
 11
-9.18704
 21
56.6665
  0
LINE
  8
0
 10
-9.18704
 20
56.6665
 11
-13.5201
 21
52.3331
  0
LINE
  8
0
 10
-13.5201
 20
52.3331
 11
-13.5201
 21
48.5197
  0
LINE
  8
0
 10
-13.5201
 20
48.5197
 11
-17.3335
 21
48.5197
  0
LINE
  8
0
 10
-17.3335
 20
48.5197
 11
-21.6669
 21
44.187
  0
LINE
  8
0
 10
-21.6669
 20
44.187
 11
-21.6669
 21
48.5197
  0
LINE
  8
0
 10
-47.6669
 20
45.2897
 11
-43.9417
 21
56.7547
  0
LINE
  8
0
 10
-43.9417
 20
56.7547
 11
-43.3335
 21
56.1464
  0
LINE
  8
0
 10
-43.3335
 20
56.1464
 11
-43.3335
 21
58.6268
  0
LINE
  8
0
 10
-43.3335
 20
58.6268
 11
-42.7313
 21
60.4799
  0
LINE
  8
0
 10
-42.7313
 20
60.4799
 11
-39.5201
 21
60.4799
  0
LINE
  8
0
 10
-39.5201
 20
60.4799
 11
-39.5201
 21
56.6665
  0
LINE
  8
0
 10
-39.5201
 20
56.6665
 11
-35.187
 21
56.6665
  0
LINE
  8
0
 10
-35.187
 20
56.6665
 11
-39.5201
 21
52.3331
  0
LINE
  8
0
 10
-39.5201
 20
52.3331
 11
-39.5201
 21
48.5197
  0
LINE
  8
0
 10
-39.5201
 20
48.5197
 11
-43.3335
 21
48.5197
  0
LINE
  8
0
 10
-43.3335
 20
48.5197
 11
-47.6669
 21
44.187
  0
LINE
  8
0
 10
-47.6669
 20
44.187
 11
-47.6669
 21
45.2897
  0
LINE
  8
0
 10
30.3331
 20
48.5197
 11
26.5197
 21
48.5197
  0
LINE
  8
0
 10
26.5197
 20
48.5197
 11
26.5197
 21
52.3331
  0
LINE
  8
0
 10
26.5197
 20
52.3331
 11
30.8532
 21
52.3331
  0
LINE
  8
0
 10
30.8532
 20
52.3331
 11
26.5197
 21
56.6665
  0
LINE
  8
0
 10
26.5197
 20
56.6665
 11
26.5197
 21
60.4799
  0
LINE
  8
0
 10
26.5197
 20
60.4799
 11
30.3331
 21
60.4799
  0
LINE
  8
0
 10
30.3331
 20
60.4799
 11
34.6665
 21
56.1464
  0
LINE
  8
0
 10
34.6665
 20
56.1464
 11
34.6665
 21
60.4799
  0
LINE
  8
0
 10
34.6665
 20
60.4799
 11
38.4799
 21
60.4799
  0
LINE
  8
0
 10
38.4799
 20
60.4799
 11
38.4799
 21
56.6665
  0
LINE
  8
0
 10
38.4799
 20
56.6665
 11
42.813
 21
56.6665
  0
LINE
  8
0
 10
42.813
 20
56.6665
 11
38.4799
 21
52.3331
  0
LINE
  8
0
 10
38.4799
 20
52.3331
 11
38.4799
 21
48.5197
  0
LINE
  8
0
 10
38.4799
 20
48.5197
 11
34.6665
 21
48.5197
  0
LINE
  8
0
 10
34.6665
 20
48.5197
 11
30.3331
 21
44.187
  0
LINE
  8
0
 10
30.3331
 20
44.187
 11
30.3331
 21
48.5197
  0
LINE
  8
0
 10
4.33307
 20
48.5197
 11
0.519714
 21
48.5197
  0
LINE
  8
0
 10
0.519714
 20
48.5197
 11
0.519714
 21
52.3331
  0
LINE
  8
0
 10
0.519714
 20
52.3331
 11
4.85318
 21
52.3331
  0
LINE
  8
0
 10
4.85318
 20
52.3331
 11
0.519714
 21
56.6665
  0
LINE
  8
0
 10
0.519714
 20
56.6665
 11
0.519714
 21
60.4799
  0
LINE
  8
0
 10
0.519714
 20
60.4799
 11
4.33307
 21
60.4799
  0
LINE
  8
0
 10
4.33307
 20
60.4799
 11
8.66653
 21
56.1464
  0
LINE
  8
0
 10
8.66653
 20
56.1464
 11
8.66653
 21
60.4799
  0
LINE
  8
0
 10
8.66653
 20
60.4799
 11
12.4799
 21
60.4799
  0
LINE
  8
0
 10
12.4799
 20
60.4799
 11
12.4799
 21
56.6665
  0
LINE
  8
0
 10
12.4799
 20
56.6665
 11
16.813
 21
56.6665
  0
LINE
  8
0
 10
16.813
 20
56.6665
 11
12.4799
 21
52.3331
  0
LINE
  8
0
 10
12.4799
 20
52.3331
 11
12.4799
 21
48.5197
  0
LINE
  8
0
 10
12.4799
 20
48.5197
 11
8.66653
 21
48.5197
  0
LINE
  8
0
 10
8.66653
 20
48.5197
 11
4.33307
 21
44.187
  0
LINE
  8
0
 10
4.33307
 20
44.187
 11
4.33307
 21
48.5197
  0
LINE
  8
0
 10
-38.4799
 20
35.5201
 11
-38.4799
 21
39.3335
  0
LINE
  8
0
 10
-38.4799
 20
39.3335
 11
-42.813
 21
39.3335
  0
LINE
  8
0
 10
-42.813
 20
39.3335
 11
-38.4799
 21
43.6669
  0
LINE
  8
0
 10
-38.4799
 20
43.6669
 11
-38.4799
 21
47.4803
  0
LINE
  8
0
 10
-38.4799
 20
47.4803
 11
-34.6665
 21
47.4803
  0
LINE
  8
0
 10
-34.6665
 20
47.4803
 11
-30.3331
 21
51.813
  0
LINE
  8
0
 10
-30.3331
 20
51.813
 11
-30.3331
 21
47.4803
  0
LINE
  8
0
 10
-30.3331
 20
47.4803
 11
-26.5197
 21
47.4803
  0
LINE
  8
0
 10
-26.5197
 20
47.4803
 11
-26.5197
 21
43.6669
  0
LINE
  8
0
 10
-26.5197
 20
43.6669
 11
-30.8532
 21
43.6669
  0
LINE
  8
0
 10
-30.8532
 20
43.6669
 11
-26.5197
 21
39.3335
  0
LINE
  8
0
 10
-26.5197
 20
39.3335
 11
-26.5197
 21
35.5201
  0
LINE
  8
0
 10
-26.5197
 20
35.5201
 11
-30.3331
 21
35.5201
  0
LINE
  8
0
 10
-30.3331
 20
35.5201
 11
-34.6665
 21
39.8536
  0
LINE
  8
0
 10
-34.6665
 20
39.8536
 11
-34.6665
 21
35.5201
  0
LINE
  8
0
 10
-34.6665
 20
35.5201
 11
-38.4799
 21
35.5201
  0
LINE
  8
0
 10
13.5201
 20
35.5201
 11
13.5201
 21
39.3335
  0
LINE
  8
0
 10
13.5201
 20
39.3335
 11
9.18704
 21
39.3335
  0
LINE
  8
0
 10
9.18704
 20
39.3335
 11
13.5201
 21
43.6669
  0
LINE
  8
0
 10
13.5201
 20
43.6669
 11
13.5201
 21
47.4803
  0
LINE
  8
0
 10
13.5201
 20
47.4803
 11
17.3335
 21
47.4803
  0
LINE
  8
0
 10
17.3335
 20
47.4803
 11
21.6669
 21
51.813
  0
LINE
  8
0
 10
21.6669
 20
51.813
 11
21.6669
 21
47.4803
  0
LINE
  8
0
 10
21.6669
 20
47.4803
 11
25.4803
 21
47.4803
  0
LINE
  8
0
 10
25.4803
 20
47.4803
 11
25.4803
 21
43.6669
  0
LINE
  8
0
 10
25.4803
 20
43.6669
 11
21.1468
 21
43.6669
  0
LINE
  8
0
 10
21.1468
 20
43.6669
 11
25.4803
 21
39.3335
  0
LINE
  8
0
 10
25.4803
 20
39.3335
 11
25.4803
 21
35.5201
  0
LINE
  8
0
 10
25.4803
 20
35.5201
 11
21.6669
 21
35.5201
  0
LINE
  8
0
 10
21.6669
 20
35.5201
 11
17.3335
 21
39.8536
  0
LINE
  8
0
 10
17.3335
 20
39.8536
 11
17.3335
 21
35.5201
  0
LINE
  8
0
 10
17.3335
 20
35.5201
 11
13.5201
 21
35.5201
  0
LINE
  8
0
 10
-12.4799
 20
35.5201
 11
-12.4799
 21
39.3335
  0
LINE
  8
0
 10
-12.4799
 20
39.3335
 11
-16.813
 21
39.3335
  0
LINE
  8
0
 10
-16.813
 20
39.3335
 11
-12.4799
 21
43.6669
  0
LINE
  8
0
 10
-12.4799
 20
43.6669
 11
-12.4799
 21
47.4803
  0
LINE
  8
0
 10
-12.4799
 20
47.4803
 11
-8.66653
 21
47.4803
  0
LINE
  8
0
 10
-8.66653
 20
47.4803
 11
-4.33307
 21
51.813
  0
LINE
  8
0
 10
-4.33307
 20
51.813
 11
-4.33307
 21
47.4803
  0
LINE
  8
0
 10
-4.33307
 20
47.4803
 11
-0.519714
 21
47.4803
  0
LINE
  8
0
 10
-0.519714
 20
47.4803
 11
-0.519714
 21
43.6669
  0
LINE
  8
0
 10
-0.519714
 20
43.6669
 11
-4.85318
 21
43.6669
  0
LINE
  8
0
 10
-4.85318
 20
43.6669
 11
-0.519714
 21
39.3335
  0
LINE
  8
0
 10
-0.519714
 20
39.3335
 11
-0.519714
 21
35.5201
  0
LINE
  8
0
 10
-0.519714
 20
35.5201
 11
-4.33307
 21
35.5201
  0
LINE
  8
0
 10
-4.33307
 20
35.5201
 11
-8.66653
 21
39.8536
  0
LINE
  8
0
 10
-8.66653
 20
39.8536
 11
-8.66653
 21
35.5201
  0
LINE
  8
0
 10
-8.66653
 20
35.5201
 11
-12.4799
 21
35.5201
  0
LINE
  8
0
 10
39.5201
 20
35.5201
 11
39.5201
 21
39.3335
  0
LINE
  8
0
 10
39.5201
 20
39.3335
 11
35.187
 21
39.3335
  0
LINE
  8
0
 10
35.187
 20
39.3335
 11
39.5201
 21
43.6669
  0
LINE
  8
0
 10
39.5201
 20
43.6669
 11
39.5201
 21
47.4803
  0
LINE
  8
0
 10
39.5201
 20
47.4803
 11
43.3335
 21
47.4803
  0
LINE
  8
0
 10
43.3335
 20
47.4803
 11
46.0671
 21
50.2134
  0
LINE
  8
0
 10
46.0671
 20
50.2134
 11
48.1942
 21
43.6669
  0
LINE
  8
0
 10
48.1942
 20
43.6669
 11
47.1468
 21
43.6669
  0
LINE
  8
0
 10
47.1468
 20
43.6669
 11
48.6983
 21
42.1154
  0
LINE
  8
0
 10
48.6983
 20
42.1154
 11
50.8413
 21
35.5201
  0
LINE
  8
0
 10
50.8413
 20
35.5201
 11
47.6669
 21
35.5201
  0
LINE
  8
0
 10
47.6669
 20
35.5201
 11
43.3335
 21
39.8536
  0
LINE
  8
0
 10
43.3335
 20
39.8536
 11
43.3335
 21
35.5201
  0
LINE
  8
0
 10
43.3335
 20
35.5201
 11
39.5201
 21
35.5201
  0
LINE
  8
0
 10
-21.6669
 20
22.5197
 11
-25.4803
 21
22.5197
  0
LINE
  8
0
 10
-25.4803
 20
22.5197
 11
-25.4803
 21
26.3331
  0
LINE
  8
0
 10
-25.4803
 20
26.3331
 11
-21.1468
 21
26.3331
  0
LINE
  8
0
 10
-21.1468
 20
26.3331
 11
-25.4803
 21
30.6665
  0
LINE
  8
0
 10
-25.4803
 20
30.6665
 11
-25.4803
 21
34.4799
  0
LINE
  8
0
 10
-25.4803
 20
34.4799
 11
-21.6669
 21
34.4799
  0
LINE
  8
0
 10
-21.6669
 20
34.4799
 11
-17.3335
 21
30.1464
  0
LINE
  8
0
 10
-17.3335
 20
30.1464
 11
-17.3335
 21
34.4799
  0
LINE
  8
0
 10
-17.3335
 20
34.4799
 11
-13.5201
 21
34.4799
  0
LINE
  8
0
 10
-13.5201
 20
34.4799
 11
-13.5201
 21
30.6665
  0
LINE
  8
0
 10
-13.5201
 20
30.6665
 11
-9.18704
 21
30.6665
  0
LINE
  8
0
 10
-9.18704
 20
30.6665
 11
-13.5201
 21
26.3331
  0
LINE
  8
0
 10
-13.5201
 20
26.3331
 11
-13.5201
 21
22.5197
  0
LINE
  8
0
 10
-13.5201
 20
22.5197
 11
-17.3335
 21
22.5197
  0
LINE
  8
0
 10
-17.3335
 20
22.5197
 11
-21.6669
 21
18.187
  0
LINE
  8
0
 10
-21.6669
 20
18.187
 11
-21.6669
 21
22.5197
  0
LINE
  8
0
 10
30.3331
 20
22.5197
 11
26.5197
 21
22.5197
  0
LINE
  8
0
 10
26.5197
 20
22.5197
 11
26.5197
 21
26.3331
  0
LINE
  8
0
 10
26.5197
 20
26.3331
 11
30.8532
 21
26.3331
  0
LINE
  8
0
 10
30.8532
 20
26.3331
 11
26.5197
 21
30.6665
  0
LINE
  8
0
 10
26.5197
 20
30.6665
 11
26.5197
 21
34.4799
  0
LINE
  8
0
 10
26.5197
 20
34.4799
 11
30.3331
 21
34.4799
  0
LINE
  8
0
 10
30.3331
 20
34.4799
 11
34.6665
 21
30.1464
  0
LINE
  8
0
 10
34.6665
 20
30.1464
 11
34.6665
 21
34.4799
  0
LINE
  8
0
 10
34.6665
 20
34.4799
 11
38.4799
 21
34.4799
  0
LINE
  8
0
 10
38.4799
 20
34.4799
 11
38.4799
 21
30.6665
  0
LINE
  8
0
 10
38.4799
 20
30.6665
 11
42.813
 21
30.6665
  0
LINE
  8
0
 10
42.813
 20
30.6665
 11
38.4799
 21
26.3331
  0
LINE
  8
0
 10
38.4799
 20
26.3331
 11
38.4799
 21
22.5197
  0
LINE
  8
0
 10
38.4799
 20
22.5197
 11
34.6665
 21
22.5197
  0
LINE
  8
0
 10
34.6665
 20
22.5197
 11
30.3331
 21
18.187
  0
LINE
  8
0
 10
30.3331
 20
18.187
 11
30.3331
 21
22.5197
  0
LINE
  8
0
 10
4.33307
 20
22.5197
 11
0.519714
 21
22.5197
  0
LINE
  8
0
 10
0.519714
 20
22.5197
 11
0.519714
 21
26.3331
  0
LINE
  8
0
 10
0.519714
 20
26.3331
 11
4.85318
 21
26.3331
  0
LINE
  8
0
 10
4.85318
 20
26.3331
 11
0.519714
 21
30.6665
  0
LINE
  8
0
 10
0.519714
 20
30.6665
 11
0.519714
 21
34.4799
  0
LINE
  8
0
 10
0.519714
 20
34.4799
 11
4.33307
 21
34.4799
  0
LINE
  8
0
 10
4.33307
 20
34.4799
 11
8.66653
 21
30.1464
  0
LINE
  8
0
 10
8.66653
 20
30.1464
 11
8.66653
 21
34.4799
  0
LINE
  8
0
 10
8.66653
 20
34.4799
 11
12.4799
 21
34.4799
  0
LINE
  8
0
 10
12.4799
 20
34.4799
 11
12.4799
 21
30.6665
  0
LINE
  8
0
 10
12.4799
 20
30.6665
 11
16.813
 21
30.6665
  0
LINE
  8
0
 10
16.813
 20
30.6665
 11
12.4799
 21
26.3331
  0
LINE
  8
0
 10
12.4799
 20
26.3331
 11
12.4799
 21
22.5197
  0
LINE
  8
0
 10
12.4799
 20
22.5197
 11
8.66653
 21
22.5197
  0
LINE
  8
0
 10
8.66653
 20
22.5197
 11
4.33307
 21
18.187
  0
LINE
  8
0
 10
4.33307
 20
18.187
 11
4.33307
 21
22.5197
  0
LINE
  8
0
 10
-47.6669
 20
22.5197
 11
-51.4803
 21
22.5197
  0
LINE
  8
0
 10
-51.4803
 20
22.5197
 11
-51.4803
 21
26.3331
  0
LINE
  8
0
 10
-51.4803
 20
26.3331
 11
-47.1468
 21
26.3331
  0
LINE
  8
0
 10
-47.1468
 20
26.3331
 11
-51.4803
 21
30.6665
  0
LINE
  8
0
 10
-51.4803
 20
30.6665
 11
-51.4803
 21
33.5534
  0
LINE
  8
0
 10
-51.4803
 20
33.5534
 11
-51.1793
 21
34.4799
  0
LINE
  8
0
 10
-51.1793
 20
34.4799
 11
-47.6669
 21
34.4799
  0
LINE
  8
0
 10
-47.6669
 20
34.4799
 11
-43.3335
 21
30.1464
  0
LINE
  8
0
 10
-43.3335
 20
30.1464
 11
-43.3335
 21
34.4799
  0
LINE
  8
0
 10
-43.3335
 20
34.4799
 11
-39.5201
 21
34.4799
  0
LINE
  8
0
 10
-39.5201
 20
34.4799
 11
-39.5201
 21
30.6665
  0
LINE
  8
0
 10
-39.5201
 20
30.6665
 11
-35.187
 21
30.6665
  0
LINE
  8
0
 10
-35.187
 20
30.6665
 11
-39.5201
 21
26.3331
  0
LINE
  8
0
 10
-39.5201
 20
26.3331
 11
-39.5201
 21
22.5197
  0
LINE
  8
0
 10
-39.5201
 20
22.5197
 11
-43.3335
 21
22.5197
  0
LINE
  8
0
 10
-43.3335
 20
22.5197
 11
-47.6669
 21
18.187
  0
LINE
  8
0
 10
-47.6669
 20
18.187
 11
-47.6669
 21
22.5197
  0
LINE
  8
0
 10
52.5197
 20
22.5197
 11
52.5197
 21
26.3331
  0
LINE
  8
0
 10
52.5197
 20
26.3331
 11
53.8263
 21
26.3331
  0
LINE
  8
0
 10
53.8263
 20
26.3331
 11
55.0654
 21
22.5197
  0
LINE
  8
0
 10
55.0654
 20
22.5197
 11
52.5197
 21
22.5197
  0
LINE
  8
0
 10
39.5201
 20
12
 11
39.5201
 21
13.3335
  0
LINE
  8
0
 10
39.5201
 20
13.3335
 11
35.187
 21
13.3335
  0
LINE
  8
0
 10
35.187
 20
13.3335
 11
39.5201
 21
17.6669
  0
LINE
  8
0
 10
39.5201
 20
17.6669
 11
39.5201
 21
21.4803
  0
LINE
  8
0
 10
39.5201
 20
21.4803
 11
43.3335
 21
21.4803
  0
LINE
  8
0
 10
43.3335
 20
21.4803
 11
47.6669
 21
25.813
  0
LINE
  8
0
 10
47.6669
 20
25.813
 11
47.6669
 21
21.4803
  0
LINE
  8
0
 10
47.6669
 20
21.4803
 11
51.4803
 21
21.4803
  0
LINE
  8
0
 10
51.4803
 20
21.4803
 11
51.4803
 21
17.6669
  0
LINE
  8
0
 10
51.4803
 20
17.6669
 11
47.1468
 21
17.6669
  0
LINE
  8
0
 10
47.1468
 20
17.6669
 11
51.4803
 21
13.3335
  0
LINE
  8
0
 10
51.4803
 20
13.3335
 11
51.4803
 21
12
  0
LINE
  8
0
 10
51.4803
 20
12
 11
45.187
 21
12
  0
LINE
  8
0
 10
45.187
 20
12
 11
43.3335
 21
13.8536
  0
LINE
  8
0
 10
43.3335
 20
13.8536
 11
43.3335
 21
12
  0
LINE
  8
0
 10
43.3335
 20
12
 11
39.5201
 21
12
  0
LINE
  8
0
 10
-12.4799
 20
12
 11
-12.4799
 21
13.3335
  0
LINE
  8
0
 10
-12.4799
 20
13.3335
 11
-16.813
 21
13.3335
  0
LINE
  8
0
 10
-16.813
 20
13.3335
 11
-12.4799
 21
17.6669
  0
LINE
  8
0
 10
-12.4799
 20
17.6669
 11
-12.4799
 21
21.4803
  0
LINE
  8
0
 10
-12.4799
 20
21.4803
 11
-8.66653
 21
21.4803
  0
LINE
  8
0
 10
-8.66653
 20
21.4803
 11
-4.33307
 21
25.813
  0
LINE
  8
0
 10
-4.33307
 20
25.813
 11
-4.33307
 21
21.4803
  0
LINE
  8
0
 10
-4.33307
 20
21.4803
 11
-0.519714
 21
21.4803
  0
LINE
  8
0
 10
-0.519714
 20
21.4803
 11
-0.519714
 21
17.6669
  0
LINE
  8
0
 10
-0.519714
 20
17.6669
 11
-4.85318
 21
17.6669
  0
LINE
  8
0
 10
-4.85318
 20
17.6669
 11
-0.519714
 21
13.3335
  0
LINE
  8
0
 10
-0.519714
 20
13.3335
 11
-0.519714
 21
12
  0
LINE
  8
0
 10
-0.519714
 20
12
 11
-6.81296
 21
12
  0
LINE
  8
0
 10
-6.81296
 20
12
 11
-8.66653
 21
13.8536
  0
LINE
  8
0
 10
-8.66653
 20
13.8536
 11
-8.66653
 21
12
  0
LINE
  8
0
 10
-8.66653
 20
12
 11
-12.4799
 21
12
  0
LINE
  8
0
 10
-38.4799
 20
12
 11
-38.4799
 21
13.3335
  0
LINE
  8
0
 10
-38.4799
 20
13.3335
 11
-42.813
 21
13.3335
  0
LINE
  8
0
 10
-42.813
 20
13.3335
 11
-38.4799
 21
17.6669
  0
LINE
  8
0
 10
-38.4799
 20
17.6669
 11
-38.4799
 21
21.4803
  0
LINE
  8
0
 10
-38.4799
 20
21.4803
 11
-34.6665
 21
21.4803
  0
LINE
  8
0
 10
-34.6665
 20
21.4803
 11
-30.3331
 21
25.813
  0
LINE
  8
0
 10
-30.3331
 20
25.813
 11
-30.3331
 21
21.4803
  0
LINE
  8
0
 10
-30.3331
 20
21.4803
 11
-26.5197
 21
21.4803
  0
LINE
  8
0
 10
-26.5197
 20
21.4803
 11
-26.5197
 21
17.6669
  0
LINE
  8
0
 10
-26.5197
 20
17.6669
 11
-30.8532
 21
17.6669
  0
LINE
  8
0
 10
-30.8532
 20
17.6669
 11
-26.5197
 21
13.3335
  0
LINE
  8
0
 10
-26.5197
 20
13.3335
 11
-26.5197
 21
12
  0
LINE
  8
0
 10
-26.5197
 20
12
 11
-32.813
 21
12
  0
LINE
  8
0
 10
-32.813
 20
12
 11
-34.6665
 21
13.8536
  0
LINE
  8
0
 10
-34.6665
 20
13.8536
 11
-34.6665
 21
12
  0
LINE
  8
0
 10
-34.6665
 20
12
 11
-38.4799
 21
12
  0
LINE
  8
0
 10
13.5201
 20
12
 11
13.5201
 21
13.3335
  0
LINE
  8
0
 10
13.5201
 20
13.3335
 11
9.18704
 21
13.3335
  0
LINE
  8
0
 10
9.18704
 20
13.3335
 11
13.5201
 21
17.6669
  0
LINE
  8
0
 10
13.5201
 20
17.6669
 11
13.5201
 21
21.4803
  0
LINE
  8
0
 10
13.5201
 20
21.4803
 11
17.3335
 21
21.4803
  0
LINE
  8
0
 10
17.3335
 20
21.4803
 11
21.6669
 21
25.813
  0
LINE
  8
0
 10
21.6669
 20
25.813
 11
21.6669
 21
21.4803
  0
LINE
  8
0
 10
21.6669
 20
21.4803
 11
25.4803
 21
21.4803
  0
LINE
  8
0
 10
25.4803
 20
21.4803
 11
25.4803
 21
17.6669
  0
LINE
  8
0
 10
25.4803
 20
17.6669
 11
21.1468
 21
17.6669
  0
LINE
  8
0
 10
21.1468
 20
17.6669
 11
25.4803
 21
13.3335
  0
LINE
  8
0
 10
25.4803
 20
13.3335
 11
25.4803
 21
12
  0
LINE
  8
0
 10
25.4803
 20
12
 11
19.187
 21
12
  0
LINE
  8
0
 10
19.187
 20
12
 11
17.3335
 21
13.8536
  0
LINE
  8
0
 10
17.3335
 20
13.8536
 11
17.3335
 21
12
  0
LINE
  8
0
 10
17.3335
 20
12
 11
13.5201
 21
12
  0
LINE
  8
0
 10
-56.6421
 20
17.6669
 11
-55.4031
 21
21.4803
  0
LINE
  8
0
 10
-55.4031
 20
21.4803
 11
-52.5197
 21
21.4803
  0
LINE
  8
0
 10
-52.5197
 20
21.4803
 11
-52.5197
 21
17.6669
  0
LINE
  8
0
 10
-52.5197
 20
17.6669
 11
-56.6421
 21
17.6669
  0
LINE
  8
0
 10
56.3331
 20
18.6181
 11
56.4388
 21
18.2927
  0
LINE
  8
0
 10
56.4388
 20
18.2927
 11
56.3331
 21
18.187
  0
LINE
  8
0
 10
56.3331
 20
18.187
 11
56.3331
 21
18.6181
  0
LINE
  8
0
 10
-58.4834
 20
12
 11
-56.6939
 21
17.5076
  0
LINE
  8
0
 10
-56.6939
 20
17.5076
 11
-52.5197
 21
13.3335
  0
LINE
  8
0
 10
-52.5197
 20
13.3335
 11
-52.5197
 21
12
  0
LINE
  8
0
 10
-52.5197
 20
12
 11
-58.4834
 21
12
  0
LINE
  8
0
 10
-10
 20
7
 11
-10
 21
11
  0
LINE
  8
0
 10
-10
 20
11
 11
10
 21
11
  0
LINE
  8
0
 10
10
 20
11
 11
10
 21
7
  0
LINE
  8
0
 10
10
 20
7
 11
-10
 21
7
  0
LINE
  8
0
 10
-68.6534
 20
2.70622
 11
-68.7785
 21
2.71805
  0
LINE
  8
0
 10
-68.7785
 20
2.71805
 11
-68.9026
 21
2.7377
  0
LINE
  8
0
 10
-68.9026
 20
2.7377
 11
-69.0252
 21
2.76511
  0
LINE
  8
0
 10
-69.0252
 20
2.76511
 11
-69.1459
 21
2.80016
  0
LINE
  8
0
 10
-69.1459
 20
2.80016
 11
-69.2641
 21
2.84273
  0
LINE
  8
0
 10
-69.2641
 20
2.84273
 11
-69.3794
 21
2.89262
  0
LINE
  8
0
 10
-69.3794
 20
2.89262
 11
-69.4914
 21
2.94966
  0
LINE
  8
0
 10
-69.4914
 20
2.94966
 11
-69.5995
 21
3.01363
  0
LINE
  8
0
 10
-69.5995
 20
3.01363
 11
-69.7034
 21
3.08424
  0
LINE
  8
0
 10
-69.7034
 20
3.08424
 11
-69.8027
 21
3.16125
  0
LINE
  8
0
 10
-69.8027
 20
3.16125
 11
-69.897
 21
3.24434
  0
LINE
  8
0
 10
-69.897
 20
3.24434
 11
-69.9858
 21
3.33318
  0
LINE
  8
0
 10
-69.9858
 20
3.33318
 11
-70.0689
 21
3.42743
  0
LINE
  8
0
 10
-70.0689
 20
3.42743
 11
-70.1459
 21
3.5267
  0
LINE
  8
0
 10
-70.1459
 20
3.5267
 11
-70.2165
 21
3.63062
  0
LINE
  8
0
 10
-70.2165
 20
3.63062
 11
-70.2805
 21
3.73877
  0
LINE
  8
0
 10
-70.2805
 20
3.73877
 11
-70.3375
 21
3.85072
  0
LINE
  8
0
 10
-70.3375
 20
3.85072
 11
-70.3874
 21
3.96602
  0
LINE
  8
0
 10
-70.3874
 20
3.96602
 11
-70.43
 21
4.08424
  0
LINE
  8
0
 10
-70.43
 20
4.08424
 11
-70.465
 21
4.2049
  0
LINE
  8
0
 10
-70.465
 20
4.2049
 11
-70.4924
 21
4.32751
  0
LINE
  8
0
 10
-70.4924
 20
4.32751
 11
-70.5121
 21
4.45161
  0
LINE
  8
0
 10
-70.5121
 20
4.45161
 11
-70.5239
 21
4.57669
  0
LINE
  8
0
 10
-70.5239
 20
4.57669
 11
-70.5279
 21
4.70227
  0
LINE
  8
0
 10
-70.5279
 20
4.70227
 11
-70.5239
 21
4.82785
  0
LINE
  8
0
 10
-70.5239
 20
4.82785
 11
-70.5121
 21
4.95294
  0
LINE
  8
0
 10
-70.5121
 20
4.95294
 11
-70.4924
 21
5.07704
  0
LINE
  8
0
 10
-70.4924
 20
5.07704
 11
-70.465
 21
5.19966
  0
LINE
  8
0
 10
-70.465
 20
5.19966
 11
-70.43
 21
5.32031
  0
LINE
  8
0
 10
-70.43
 20
5.32031
 11
-70.3874
 21
5.43852
  0
LINE
  8
0
 10
-70.3874
 20
5.43852
 11
-70.3375
 21
5.55383
  0
LINE
  8
0
 10
-70.3375
 20
5.55383
 11
-70.2805
 21
5.66579
  0
LINE
  8
0
 10
-70.2805
 20
5.66579
 11
-70.2165
 21
5.77393
  0
LINE
  8
0
 10
-70.2165
 20
5.77393
 11
-70.1459
 21
5.87784
  0
LINE
  8
0
 10
-70.1459
 20
5.87784
 11
-70.0689
 21
5.97713
  0
LINE
  8
0
 10
-70.0689
 20
5.97713
 11
-69.9858
 21
6.07137
  0
LINE
  8
0
 10
-69.9858
 20
6.07137
 11
-69.897
 21
6.16022
  0
LINE
  8
0
 10
-69.897
 20
6.16022
 11
-69.8027
 21
6.2433
  0
LINE
  8
0
 10
-69.8027
 20
6.2433
 11
-69.7034
 21
6.32031
  0
LINE
  8
0
 10
-69.7034
 20
6.32031
 11
-69.5995
 21
6.39093
  0
LINE
  8
0
 10
-69.5995
 20
6.39093
 11
-69.4914
 21
6.4549
  0
LINE
  8
0
 10
-69.4914
 20
6.4549
 11
-69.3794
 21
6.51193
  0
LINE
  8
0
 10
-69.3794
 20
6.51193
 11
-69.2641
 21
6.56183
  0
LINE
  8
0
 10
-69.2641
 20
6.56183
 11
-69.1459
 21
6.60439
  0
LINE
  8
0
 10
-69.1459
 20
6.60439
 11
-69.0252
 21
6.63943
  0
LINE
  8
0
 10
-69.0252
 20
6.63943
 11
-68.9026
 21
6.66685
  0
LINE
  8
0
 10
-68.9026
 20
6.66685
 11
-68.7785
 21
6.68651
  0
LINE
  8
0
 10
-68.7785
 20
6.68651
 11
-68.6534
 21
6.69833
  0
LINE
  8
0
 10
-68.6534
 20
6.69833
 11
-68.5279
 21
6.70227
  0
LINE
  8
0
 10
-68.5279
 20
6.70227
 11
-68.4023
 21
6.69833
  0
LINE
  8
0
 10
-68.4023
 20
6.69833
 11
-68.2772
 21
6.68651
  0
LINE
  8
0
 10
-68.2772
 20
6.68651
 11
-68.1531
 21
6.66685
  0
LINE
  8
0
 10
-68.1531
 20
6.66685
 11
-68.0305
 21
6.63943
  0
LINE
  8
0
 10
-68.0305
 20
6.63943
 11
-67.9098
 21
6.60439
  0
LINE
  8
0
 10
-67.9098
 20
6.60439
 11
-67.7916
 21
6.56183
  0
LINE
  8
0
 10
-67.7916
 20
6.56183
 11
-67.6763
 21
6.51193
  0
LINE
  8
0
 10
-67.6763
 20
6.51193
 11
-67.5643
 21
6.4549
  0
LINE
  8
0
 10
-67.5643
 20
6.4549
 11
-67.4562
 21
6.39093
  0
LINE
  8
0
 10
-67.4562
 20
6.39093
 11
-67.3523
 21
6.32031
  0
LINE
  8
0
 10
-67.3523
 20
6.32031
 11
-67.253
 21
6.2433
  0
LINE
  8
0
 10
-67.253
 20
6.2433
 11
-67.1588
 21
6.16022
  0
LINE
  8
0
 10
-67.1588
 20
6.16022
 11
-67.0699
 21
6.07137
  0
LINE
  8
0
 10
-67.0699
 20
6.07137
 11
-66.9868
 21
5.97713
  0
LINE
  8
0
 10
-66.9868
 20
5.97713
 11
-66.9098
 21
5.87784
  0
LINE
  8
0
 10
-66.9098
 20
5.87784
 11
-66.8392
 21
5.77393
  0
LINE
  8
0
 10
-66.8392
 20
5.77393
 11
-66.7752
 21
5.66579
  0
LINE
  8
0
 10
-66.7752
 20
5.66579
 11
-66.7182
 21
5.55383
  0
LINE
  8
0
 10
-66.7182
 20
5.55383
 11
-66.6683
 21
5.43852
  0
LINE
  8
0
 10
-66.6683
 20
5.43852
 11
-66.6257
 21
5.32031
  0
LINE
  8
0
 10
-66.6257
 20
5.32031
 11
-66.5907
 21
5.19966
  0
LINE
  8
0
 10
-66.5907
 20
5.19966
 11
-66.5633
 21
5.07704
  0
LINE
  8
0
 10
-66.5633
 20
5.07704
 11
-66.5436
 21
4.95294
  0
LINE
  8
0
 10
-66.5436
 20
4.95294
 11
-66.5318
 21
4.82785
  0
LINE
  8
0
 10
-66.5318
 20
4.82785
 11
-66.5279
 21
4.70227
  0
LINE
  8
0
 10
-66.5279
 20
4.70227
 11
-66.5318
 21
4.57669
  0
LINE
  8
0
 10
-66.5318
 20
4.57669
 11
-66.5436
 21
4.45161
  0
LINE
  8
0
 10
-66.5436
 20
4.45161
 11
-66.5633
 21
4.32751
  0
LINE
  8
0
 10
-66.5633
 20
4.32751
 11
-66.5907
 21
4.2049
  0
LINE
  8
0
 10
-66.5907
 20
4.2049
 11
-66.6257
 21
4.08424
  0
LINE
  8
0
 10
-66.6257
 20
4.08424
 11
-66.6683
 21
3.96602
  0
LINE
  8
0
 10
-66.6683
 20
3.96602
 11
-66.7182
 21
3.85072
  0
LINE
  8
0
 10
-66.7182
 20
3.85072
 11
-66.7752
 21
3.73877
  0
LINE
  8
0
 10
-66.7752
 20
3.73877
 11
-66.8392
 21
3.63062
  0
LINE
  8
0
 10
-66.8392
 20
3.63062
 11
-66.9098
 21
3.5267
  0
LINE
  8
0
 10
-66.9098
 20
3.5267
 11
-66.9868
 21
3.42743
  0
LINE
  8
0
 10
-66.9868
 20
3.42743
 11
-67.0699
 21
3.33318
  0
LINE
  8
0
 10
-67.0699
 20
3.33318
 11
-67.1588
 21
3.24434
  0
LINE
  8
0
 10
-67.1588
 20
3.24434
 11
-67.253
 21
3.16125
  0
LINE
  8
0
 10
-67.253
 20
3.16125
 11
-67.3523
 21
3.08424
  0
LINE
  8
0
 10
-67.3523
 20
3.08424
 11
-67.4562
 21
3.01363
  0
LINE
  8
0
 10
-67.4562
 20
3.01363
 11
-67.5643
 21
2.94966
  0
LINE
  8
0
 10
-67.5643
 20
2.94966
 11
-67.6763
 21
2.89262
  0
LINE
  8
0
 10
-67.6763
 20
2.89262
 11
-67.7916
 21
2.84273
  0
LINE
  8
0
 10
-67.7916
 20
2.84273
 11
-67.9098
 21
2.80016
  0
LINE
  8
0
 10
-67.9098
 20
2.80016
 11
-68.0305
 21
2.76511
  0
LINE
  8
0
 10
-68.0305
 20
2.76511
 11
-68.1531
 21
2.7377
  0
LINE
  8
0
 10
-68.1531
 20
2.7377
 11
-68.2772
 21
2.71805
  0
LINE
  8
0
 10
-68.2772
 20
2.71805
 11
-68.4023
 21
2.70622
  0
LINE
  8
0
 10
-68.4023
 20
2.70622
 11
-68.5279
 21
2.70227
  0
LINE
  8
0
 10
-68.5279
 20
2.70227
 11
-68.6534
 21
2.70622
  0
LINE
  8
0
 10
68.4023
 20
2.70622
 11
68.2772
 21
2.71805
  0
LINE
  8
0
 10
68.2772
 20
2.71805
 11
68.1531
 21
2.7377
  0
LINE
  8
0
 10
68.1531
 20
2.7377
 11
68.0305
 21
2.76511
  0
LINE
  8
0
 10
68.0305
 20
2.76511
 11
67.9098
 21
2.80016
  0
LINE
  8
0
 10
67.9098
 20
2.80016
 11
67.7916
 21
2.84273
  0
LINE
  8
0
 10
67.7916
 20
2.84273
 11
67.6763
 21
2.89262
  0
LINE
  8
0
 10
67.6763
 20
2.89262
 11
67.5643
 21
2.94966
  0
LINE
  8
0
 10
67.5643
 20
2.94966
 11
67.4562
 21
3.01363
  0
LINE
  8
0
 10
67.4562
 20
3.01363
 11
67.3523
 21
3.08424
  0
LINE
  8
0
 10
67.3523
 20
3.08424
 11
67.253
 21
3.16125
  0
LINE
  8
0
 10
67.253
 20
3.16125
 11
67.1588
 21
3.24434
  0
LINE
  8
0
 10
67.1588
 20
3.24434
 11
67.0699
 21
3.33318
  0
LINE
  8
0
 10
67.0699
 20
3.33318
 11
66.9868
 21
3.42743
  0
LINE
  8
0
 10
66.9868
 20
3.42743
 11
66.9098
 21
3.5267
  0
LINE
  8
0
 10
66.9098
 20
3.5267
 11
66.8392
 21
3.63062
  0
LINE
  8
0
 10
66.8392
 20
3.63062
 11
66.7752
 21
3.73877
  0
LINE
  8
0
 10
66.7752
 20
3.73877
 11
66.7182
 21
3.85072
  0
LINE
  8
0
 10
66.7182
 20
3.85072
 11
66.6683
 21
3.96602
  0
LINE
  8
0
 10
66.6683
 20
3.96602
 11
66.6257
 21
4.08424
  0
LINE
  8
0
 10
66.6257
 20
4.08424
 11
66.5907
 21
4.2049
  0
LINE
  8
0
 10
66.5907
 20
4.2049
 11
66.5633
 21
4.32751
  0
LINE
  8
0
 10
66.5633
 20
4.32751
 11
66.5436
 21
4.45161
  0
LINE
  8
0
 10
66.5436
 20
4.45161
 11
66.5318
 21
4.57669
  0
LINE
  8
0
 10
66.5318
 20
4.57669
 11
66.5279
 21
4.70227
  0
LINE
  8
0
 10
66.5279
 20
4.70227
 11
66.5318
 21
4.82785
  0
LINE
  8
0
 10
66.5318
 20
4.82785
 11
66.5436
 21
4.95294
  0
LINE
  8
0
 10
66.5436
 20
4.95294
 11
66.5633
 21
5.07704
  0
LINE
  8
0
 10
66.5633
 20
5.07704
 11
66.5907
 21
5.19966
  0
LINE
  8
0
 10
66.5907
 20
5.19966
 11
66.6257
 21
5.32031
  0
LINE
  8
0
 10
66.6257
 20
5.32031
 11
66.6683
 21
5.43852
  0
LINE
  8
0
 10
66.6683
 20
5.43852
 11
66.7182
 21
5.55383
  0
LINE
  8
0
 10
66.7182
 20
5.55383
 11
66.7752
 21
5.66579
  0
LINE
  8
0
 10
66.7752
 20
5.66579
 11
66.8392
 21
5.77393
  0
LINE
  8
0
 10
66.8392
 20
5.77393
 11
66.9098
 21
5.87784
  0
LINE
  8
0
 10
66.9098
 20
5.87784
 11
66.9868
 21
5.97713
  0
LINE
  8
0
 10
66.9868
 20
5.97713
 11
67.0699
 21
6.07137
  0
LINE
  8
0
 10
67.0699
 20
6.07137
 11
67.1588
 21
6.16022
  0
LINE
  8
0
 10
67.1588
 20
6.16022
 11
67.253
 21
6.2433
  0
LINE
  8
0
 10
67.253
 20
6.2433
 11
67.3523
 21
6.32031
  0
LINE
  8
0
 10
67.3523
 20
6.32031
 11
67.4562
 21
6.39093
  0
LINE
  8
0
 10
67.4562
 20
6.39093
 11
67.5643
 21
6.4549
  0
LINE
  8
0
 10
67.5643
 20
6.4549
 11
67.6763
 21
6.51193
  0
LINE
  8
0
 10
67.6763
 20
6.51193
 11
67.7916
 21
6.56183
  0
LINE
  8
0
 10
67.7916
 20
6.56183
 11
67.9098
 21
6.60439
  0
LINE
  8
0
 10
67.9098
 20
6.60439
 11
68.0305
 21
6.63943
  0
LINE
  8
0
 10
68.0305
 20
6.63943
 11
68.1531
 21
6.66685
  0
LINE
  8
0
 10
68.1531
 20
6.66685
 11
68.2772
 21
6.68651
  0
LINE
  8
0
 10
68.2772
 20
6.68651
 11
68.4023
 21
6.69833
  0
LINE
  8
0
 10
68.4023
 20
6.69833
 11
68.5279
 21
6.70227
  0
LINE
  8
0
 10
68.5279
 20
6.70227
 11
68.6534
 21
6.69833
  0
LINE
  8
0
 10
68.6534
 20
6.69833
 11
68.7785
 21
6.68651
  0
LINE
  8
0
 10
68.7785
 20
6.68651
 11
68.9026
 21
6.66685
  0
LINE
  8
0
 10
68.9026
 20
6.66685
 11
69.0252
 21
6.63943
  0
LINE
  8
0
 10
69.0252
 20
6.63943
 11
69.1459
 21
6.60439
  0
LINE
  8
0
 10
69.1459
 20
6.60439
 11
69.2641
 21
6.56183
  0
LINE
  8
0
 10
69.2641
 20
6.56183
 11
69.3794
 21
6.51193
  0
LINE
  8
0
 10
69.3794
 20
6.51193
 11
69.4914
 21
6.4549
  0
LINE
  8
0
 10
69.4914
 20
6.4549
 11
69.5995
 21
6.39093
  0
LINE
  8
0
 10
69.5995
 20
6.39093
 11
69.7034
 21
6.32031
  0
LINE
  8
0
 10
69.7034
 20
6.32031
 11
69.8027
 21
6.2433
  0
LINE
  8
0
 10
69.8027
 20
6.2433
 11
69.897
 21
6.16022
  0
LINE
  8
0
 10
69.897
 20
6.16022
 11
69.9858
 21
6.07137
  0
LINE
  8
0
 10
69.9858
 20
6.07137
 11
70.0689
 21
5.97713
  0
LINE
  8
0
 10
70.0689
 20
5.97713
 11
70.1459
 21
5.87784
  0
LINE
  8
0
 10
70.1459
 20
5.87784
 11
70.2165
 21
5.77393
  0
LINE
  8
0
 10
70.2165
 20
5.77393
 11
70.2805
 21
5.66579
  0
LINE
  8
0
 10
70.2805
 20
5.66579
 11
70.3375
 21
5.55383
  0
LINE
  8
0
 10
70.3375
 20
5.55383
 11
70.3874
 21
5.43852
  0
LINE
  8
0
 10
70.3874
 20
5.43852
 11
70.43
 21
5.32031
  0
LINE
  8
0
 10
70.43
 20
5.32031
 11
70.465
 21
5.19966
  0
LINE
  8
0
 10
70.465
 20
5.19966
 11
70.4924
 21
5.07704
  0
LINE
  8
0
 10
70.4924
 20
5.07704
 11
70.5121
 21
4.95294
  0
LINE
  8
0
 10
70.5121
 20
4.95294
 11
70.5239
 21
4.82785
  0
LINE
  8
0
 10
70.5239
 20
4.82785
 11
70.5279
 21
4.70227
  0
LINE
  8
0
 10
70.5279
 20
4.70227
 11
70.5239
 21
4.57669
  0
LINE
  8
0
 10
70.5239
 20
4.57669
 11
70.5121
 21
4.45161
  0
LINE
  8
0
 10
70.5121
 20
4.45161
 11
70.4924
 21
4.32751
  0
LINE
  8
0
 10
70.4924
 20
4.32751
 11
70.465
 21
4.2049
  0
LINE
  8
0
 10
70.465
 20
4.2049
 11
70.43
 21
4.08424
  0
LINE
  8
0
 10
70.43
 20
4.08424
 11
70.3874
 21
3.96602
  0
LINE
  8
0
 10
70.3874
 20
3.96602
 11
70.3375
 21
3.85072
  0
LINE
  8
0
 10
70.3375
 20
3.85072
 11
70.2805
 21
3.73877
  0
LINE
  8
0
 10
70.2805
 20
3.73877
 11
70.2165
 21
3.63062
  0
LINE
  8
0
 10
70.2165
 20
3.63062
 11
70.1459
 21
3.5267
  0
LINE
  8
0
 10
70.1459
 20
3.5267
 11
70.0689
 21
3.42743
  0
LINE
  8
0
 10
70.0689
 20
3.42743
 11
69.9858
 21
3.33318
  0
LINE
  8
0
 10
69.9858
 20
3.33318
 11
69.897
 21
3.24434
  0
LINE
  8
0
 10
69.897
 20
3.24434
 11
69.8027
 21
3.16125
  0
LINE
  8
0
 10
69.8027
 20
3.16125
 11
69.7034
 21
3.08424
  0
LINE
  8
0
 10
69.7034
 20
3.08424
 11
69.5995
 21
3.01363
  0
LINE
  8
0
 10
69.5995
 20
3.01363
 11
69.4914
 21
2.94966
  0
LINE
  8
0
 10
69.4914
 20
2.94966
 11
69.3794
 21
2.89262
  0
LINE
  8
0
 10
69.3794
 20
2.89262
 11
69.2641
 21
2.84273
  0
LINE
  8
0
 10
69.2641
 20
2.84273
 11
69.1459
 21
2.80016
  0
LINE
  8
0
 10
69.1459
 20
2.80016
 11
69.0252
 21
2.76511
  0
LINE
  8
0
 10
69.0252
 20
2.76511
 11
68.9026
 21
2.7377
  0
LINE
  8
0
 10
68.9026
 20
2.7377
 11
68.7785
 21
2.71805
  0
LINE
  8
0
 10
68.7785
 20
2.71805
 11
68.6534
 21
2.70622
  0
LINE
  8
0
 10
68.6534
 20
2.70622
 11
68.5279
 21
2.70227
  0
LINE
  8
0
 10
68.5279
 20
2.70227
 11
68.4023
 21
2.70622
  0
ENDSEC
  0
SECTION
  2
OBJECTS
  0
DICTIONARY
  0
ENDSEC
  0
EOF
