  0
SECTION
  2
BLOCKS
  0
ENDSEC
  0
SECTION
  2
ENTITIES
  0
LINE
  8
0
 10
0
 20
230.826
 11
-75
 21
0
  0
LINE
  8
0
 10
-75
 20
0
 11
75
 21
0
  0
LINE
  8
0
 10
75
 20
0
 11
0
 21
230.826
  0
LINE
  8
0
 10
-0.12558
 20
212.83
 11
-0.250656
 21
212.842
  0
LINE
  8
0
 10
-0.250656
 20
212.842
 11
-0.374756
 21
212.862
  0
LINE
  8
0
 10
-0.374756
 20
212.862
 11
-0.497375
 21
212.889
  0
LINE
  8
0
 10
-0.497375
 20
212.889
 11
-0.618027
 21
212.924
  0
LINE
  8
0
 10
-0.618027
 20
212.924
 11
-0.736237
 21
212.967
  0
LINE
  8
0
 10
-0.736237
 20
212.967
 11
-0.851547
 21
213.017
  0
LINE
  8
0
 10
-0.851547
 20
213.017
 11
-0.963501
 21
213.074
  0
LINE
  8
0
 10
-0.963501
 20
213.074
 11
-1.07164
 21
213.138
  0
LINE
  8
0
 10
-1.07164
 20
213.138
 11
-1.17557
 21
213.208
  0
LINE
  8
0
 10
-1.17557
 20
213.208
 11
-1.27484
 21
213.285
  0
LINE
  8
0
 10
-1.27484
 20
213.285
 11
-1.36908
 21
213.368
  0
LINE
  8
0
 10
-1.36908
 20
213.368
 11
-1.45793
 21
213.457
  0
LINE
  8
0
 10
-1.45793
 20
213.457
 11
-1.54102
 21
213.551
  0
LINE
  8
0
 10
-1.54102
 20
213.551
 11
-1.61803
 21
213.651
  0
LINE
  8
0
 10
-1.61803
 20
213.651
 11
-1.68864
 21
213.755
  0
LINE
  8
0
 10
-1.68864
 20
213.755
 11
-1.75261
 21
213.863
  0
LINE
  8
0
 10
-1.75261
 20
213.863
 11
-1.80965
 21
213.975
  0
LINE
  8
0
 10
-1.80965
 20
213.975
 11
-1.85954
 21
214.09
  0
LINE
  8
0
 10
-1.85954
 20
214.09
 11
-1.9021
 21
214.208
  0
LINE
  8
0
 10
-1.9021
 20
214.208
 11
-1.93716
 21
214.329
  0
LINE
  8
0
 10
-1.93716
 20
214.329
 11
-1.96457
 21
214.451
  0
LINE
  8
0
 10
-1.96457
 20
214.451
 11
-1.98422
 21
214.576
  0
LINE
  8
0
 10
-1.98422
 20
214.576
 11
-1.99605
 21
214.701
  0
LINE
  8
0
 10
-1.99605
 20
214.701
 11
-2
 21
214.826
  0
LINE
  8
0
 10
-2
 20
214.826
 11
-1.99605
 21
214.952
  0
LINE
  8
0
 10
-1.99605
 20
214.952
 11
-1.98422
 21
215.077
  0
LINE
  8
0
 10
-1.98422
 20
215.077
 11
-1.96457
 21
215.201
  0
LINE
  8
0
 10
-1.96457
 20
215.201
 11
-1.93716
 21
215.324
  0
LINE
  8
0
 10
-1.93716
 20
215.324
 11
-1.9021
 21
215.444
  0
LINE
  8
0
 10
-1.9021
 20
215.444
 11
-1.85954
 21
215.562
  0
LINE
  8
0
 10
-1.85954
 20
215.562
 11
-1.80965
 21
215.678
  0
LINE
  8
0
 10
-1.80965
 20
215.678
 11
-1.75261
 21
215.79
  0
LINE
  8
0
 10
-1.75261
 20
215.79
 11
-1.68864
 21
215.898
  0
LINE
  8
0
 10
-1.68864
 20
215.898
 11
-1.61803
 21
216.002
  0
LINE
  8
0
 10
-1.61803
 20
216.002
 11
-1.54102
 21
216.101
  0
LINE
  8
0
 10
-1.54102
 20
216.101
 11
-1.45793
 21
216.195
  0
LINE
  8
0
 10
-1.45793
 20
216.195
 11
-1.36908
 21
216.284
  0
LINE
  8
0
 10
-1.36908
 20
216.284
 11
-1.27484
 21
216.367
  0
LINE
  8
0
 10
-1.27484
 20
216.367
 11
-1.17557
 21
216.444
  0
LINE
  8
0
 10
-1.17557
 20
216.444
 11
-1.07164
 21
216.515
  0
LINE
  8
0
 10
-1.07164
 20
216.515
 11
-0.963501
 21
216.579
  0
LINE
  8
0
 10
-0.963501
 20
216.579
 11
-0.851547
 21
216.636
  0
LINE
  8
0
 10
-0.851547
 20
216.636
 11
-0.736237
 21
216.686
  0
LINE
  8
0
 10
-0.736237
 20
216.686
 11
-0.618027
 21
216.728
  0
LINE
  8
0
 10
-0.618027
 20
216.728
 11
-0.497375
 21
216.763
  0
LINE
  8
0
 10
-0.497375
 20
216.763
 11
-0.374756
 21
216.791
  0
LINE
  8
0
 10
-0.374756
 20
216.791
 11
-0.250656
 21
216.81
  0
LINE
  8
0
 10
-0.250656
 20
216.81
 11
-0.12558
 21
216.822
  0
LINE
  8
0
 10
-0.12558
 20
216.822
 11
0
 21
216.826
  0
LINE
  8
0
 10
0
 20
216.826
 11
0.12558
 21
216.822
  0
LINE
  8
0
 10
0.12558
 20
216.822
 11
0.250656
 21
216.81
  0
LINE
  8
0
 10
0.250656
 20
216.81
 11
0.374756
 21
216.791
  0
LINE
  8
0
 10
0.374756
 20
216.791
 11
0.497375
 21
216.763
  0
LINE
  8
0
 10
0.497375
 20
216.763
 11
0.618027
 21
216.728
  0
LINE
  8
0
 10
0.618027
 20
216.728
 11
0.736237
 21
216.686
  0
LINE
  8
0
 10
0.736237
 20
216.686
 11
0.851547
 21
216.636
  0
LINE
  8
0
 10
0.851547
 20
216.636
 11
0.963501
 21
216.579
  0
LINE
  8
0
 10
0.963501
 20
216.579
 11
1.07164
 21
216.515
  0
LINE
  8
0
 10
1.07164
 20
216.515
 11
1.17557
 21
216.444
  0
LINE
  8
0
 10
1.17557
 20
216.444
 11
1.27484
 21
216.367
  0
LINE
  8
0
 10
1.27484
 20
216.367
 11
1.36908
 21
216.284
  0
LINE
  8
0
 10
1.36908
 20
216.284
 11
1.45793
 21
216.195
  0
LINE
  8
0
 10
1.45793
 20
216.195
 11
1.54102
 21
216.101
  0
LINE
  8
0
 10
1.54102
 20
216.101
 11
1.61803
 21
216.002
  0
LINE
  8
0
 10
1.61803
 20
216.002
 11
1.68864
 21
215.898
  0
LINE
  8
0
 10
1.68864
 20
215.898
 11
1.75261
 21
215.79
  0
LINE
  8
0
 10
1.75261
 20
215.79
 11
1.80965
 21
215.678
  0
LINE
  8
0
 10
1.80965
 20
215.678
 11
1.85954
 21
215.562
  0
LINE
  8
0
 10
1.85954
 20
215.562
 11
1.9021
 21
215.444
  0
LINE
  8
0
 10
1.9021
 20
215.444
 11
1.93716
 21
215.324
  0
LINE
  8
0
 10
1.93716
 20
215.324
 11
1.96457
 21
215.201
  0
LINE
  8
0
 10
1.96457
 20
215.201
 11
1.98422
 21
215.077
  0
LINE
  8
0
 10
1.98422
 20
215.077
 11
1.99605
 21
214.952
  0
LINE
  8
0
 10
1.99605
 20
214.952
 11
2
 21
214.826
  0
LINE
  8
0
 10
2
 20
214.826
 11
1.99605
 21
214.701
  0
LINE
  8
0
 10
1.99605
 20
214.701
 11
1.98422
 21
214.576
  0
LINE
  8
0
 10
1.98422
 20
214.576
 11
1.96457
 21
214.451
  0
LINE
  8
0
 10
1.96457
 20
214.451
 11
1.93716
 21
214.329
  0
LINE
  8
0
 10
1.93716
 20
214.329
 11
1.9021
 21
214.208
  0
LINE
  8
0
 10
1.9021
 20
214.208
 11
1.85954
 21
214.09
  0
LINE
  8
0
 10
1.85954
 20
214.09
 11
1.80965
 21
213.975
  0
LINE
  8
0
 10
1.80965
 20
213.975
 11
1.75261
 21
213.863
  0
LINE
  8
0
 10
1.75261
 20
213.863
 11
1.68864
 21
213.755
  0
LINE
  8
0
 10
1.68864
 20
213.755
 11
1.61803
 21
213.651
  0
LINE
  8
0
 10
1.61803
 20
213.651
 11
1.54102
 21
213.551
  0
LINE
  8
0
 10
1.54102
 20
213.551
 11
1.45793
 21
213.457
  0
LINE
  8
0
 10
1.45793
 20
213.457
 11
1.36908
 21
213.368
  0
LINE
  8
0
 10
1.36908
 20
213.368
 11
1.27484
 21
213.285
  0
LINE
  8
0
 10
1.27484
 20
213.285
 11
1.17557
 21
213.208
  0
LINE
  8
0
 10
1.17557
 20
213.208
 11
1.07164
 21
213.138
  0
LINE
  8
0
 10
1.07164
 20
213.138
 11
0.963501
 21
213.074
  0
LINE
  8
0
 10
0.963501
 20
213.074
 11
0.851547
 21
213.017
  0
LINE
  8
0
 10
0.851547
 20
213.017
 11
0.736237
 21
212.967
  0
LINE
  8
0
 10
0.736237
 20
212.967
 11
0.618027
 21
212.924
  0
LINE
  8
0
 10
0.618027
 20
212.924
 11
0.497375
 21
212.889
  0
LINE
  8
0
 10
0.497375
 20
212.889
 11
0.374756
 21
212.862
  0
LINE
  8
0
 10
0.374756
 20
212.862
 11
0.250656
 21
212.842
  0
LINE
  8
0
 10
0.250656
 20
212.842
 11
0.12558
 21
212.83
  0
LINE
  8
0
 10
0.12558
 20
212.83
 11
0
 21
212.826
  0
LINE
  8
0
 10
0
 20
212.826
 11
-0.12558
 21
212.83
  0
LINE
  8
0
 10
-1.46001
 20
187.5
 11
0
 21
191.993
  0
LINE
  8
0
 10
0
 20
191.993
 11
0
 21
187.5
  0
LINE
  8
0
 10
0
 20
187.5
 11
-1.46001
 21
187.5
  0
LINE
  8
0
 10
2.49985
 20
172.5
 11
2.49985
 21
182.5
  0
LINE
  8
0
 10
2.49985
 20
182.5
 11
-3.08466
 21
182.5
  0
LINE
  8
0
 10
-3.08466
 20
182.5
 11
-2.27234
 21
185
  0
LINE
  8
0
 10
-2.27234
 20
185
 11
2.27234
 21
185
  0
LINE
  8
0
 10
2.27234
 20
185
 11
4.99992
 21
176.605
  0
LINE
  8
0
 10
4.99992
 20
176.605
 11
4.99992
 21
172.5
  0
LINE
  8
0
 10
4.99992
 20
172.5
 11
2.49985
 21
172.5
  0
LINE
  8
0
 10
-2.50008
 20
172.5
 11
-2.50008
 21
177.5
  0
LINE
  8
0
 10
-2.50008
 20
177.5
 11
-4.70923
 21
177.5
  0
LINE
  8
0
 10
-4.70923
 20
177.5
 11
-3.89691
 21
180
  0
LINE
  8
0
 10
-3.89691
 20
180
 11
0
 21
180
  0
LINE
  8
0
 10
0
 20
180
 11
0
 21
172.5
  0
LINE
  8
0
 10
0
 20
172.5
 11
-2.50008
 21
172.5
  0
LINE
  8
0
 10
-6.3338
 20
172.5
 11
-5.52156
 21
175
  0
LINE
  8
0
 10
-5.52156
 20
175
 11
-5.00015
 21
175
  0
LINE
  8
0
 10
-5.00015
 20
175
 11
-5.00015
 21
172.5
  0
LINE
  8
0
 10
-5.00015
 20
172.5
 11
-6.3338
 21
172.5
  0
LINE
  8
0
 10
2.49985
 20
157.5
 11
2.49985
 21
167.5
  0
LINE
  8
0
 10
2.49985
 20
167.5
 11
-7.5
 21
167.5
  0
LINE
  8
0
 10
-7.5
 20
167.5
 11
-7.5
 21
168.911
  0
LINE
  8
0
 10
-7.5
 20
168.911
 11
-7.14613
 21
170
  0
LINE
  8
0
 10
-7.14613
 20
170
 11
4.99992
 21
170
  0
LINE
  8
0
 10
4.99992
 20
170
 11
4.99992
 21
157.5
  0
LINE
  8
0
 10
4.99992
 20
157.5
 11
2.49985
 21
157.5
  0
LINE
  8
0
 10
7.5
 20
167.5
 11
7.5
 21
168.911
  0
LINE
  8
0
 10
7.5
 20
168.911
 11
7.95845
 21
167.5
  0
LINE
  8
0
 10
7.95845
 20
167.5
 11
7.5
 21
167.5
  0
LINE
  8
0
 10
-2.50008
 20
157.5
 11
-2.50008
 21
162.5
  0
LINE
  8
0
 10
-2.50008
 20
162.5
 11
-7.5
 21
162.5
  0
LINE
  8
0
 10
-7.5
 20
162.5
 11
-7.5
 21
165
  0
LINE
  8
0
 10
-7.5
 20
165
 11
0
 21
165
  0
LINE
  8
0
 10
0
 20
165
 11
0
 21
157.5
  0
LINE
  8
0
 10
0
 20
157.5
 11
-2.50008
 21
157.5
  0
LINE
  8
0
 10
7.5
 20
162.5
 11
7.5
 21
165
  0
LINE
  8
0
 10
7.5
 20
165
 11
8.77071
 21
165
  0
LINE
  8
0
 10
8.77071
 20
165
 11
9.58302
 21
162.5
  0
LINE
  8
0
 10
9.58302
 20
162.5
 11
7.5
 21
162.5
  0
LINE
  8
0
 10
-11.2076
 20
157.5
 11
-10.0001
 21
161.216
  0
LINE
  8
0
 10
-10.0001
 20
161.216
 11
-10.0001
 21
157.5
  0
LINE
  8
0
 10
-10.0001
 20
157.5
 11
-11.2076
 21
157.5
  0
LINE
  8
0
 10
-7.5
 20
157.5
 11
-7.5
 21
160
  0
LINE
  8
0
 10
-7.5
 20
160
 11
-5.00015
 21
160
  0
LINE
  8
0
 10
-5.00015
 20
160
 11
-5.00015
 21
157.5
  0
LINE
  8
0
 10
-5.00015
 20
157.5
 11
-7.5
 21
157.5
  0
LINE
  8
0
 10
7.5
 20
157.5
 11
7.5
 21
160
  0
LINE
  8
0
 10
7.5
 20
160
 11
9.99985
 21
160
  0
LINE
  8
0
 10
9.99985
 20
160
 11
9.99985
 21
157.5
  0
LINE
  8
0
 10
9.99985
 20
157.5
 11
7.5
 21
157.5
  0
LINE
  8
0
 10
7.5
 20
152.5
 11
7.5
 21
155
  0
LINE
  8
0
 10
7.5
 20
155
 11
12.0199
 21
155
  0
LINE
  8
0
 10
12.0199
 20
155
 11
12.8322
 21
152.5
  0
LINE
  8
0
 10
12.8322
 20
152.5
 11
7.5
 21
152.5
  0
LINE
  8
0
 10
-12.5002
 20
142.5
 11
-12.5002
 21
152.5
  0
LINE
  8
0
 10
-12.5002
 20
152.5
 11
-12.8322
 21
152.5
  0
LINE
  8
0
 10
-12.8322
 20
152.5
 11
-12.0199
 21
155
  0
LINE
  8
0
 10
-12.0199
 20
155
 11
-10.0001
 21
155
  0
LINE
  8
0
 10
-10.0001
 20
155
 11
-10.0001
 21
142.5
  0
LINE
  8
0
 10
-10.0001
 20
142.5
 11
-12.5002
 21
142.5
  0
LINE
  8
0
 10
2.49985
 20
142.5
 11
2.49985
 21
152.5
  0
LINE
  8
0
 10
2.49985
 20
152.5
 11
-7.5
 21
152.5
  0
LINE
  8
0
 10
-7.5
 20
152.5
 11
-7.5
 21
155
  0
LINE
  8
0
 10
-7.5
 20
155
 11
4.99992
 21
155
  0
LINE
  8
0
 10
4.99992
 20
155
 11
4.99992
 21
142.5
  0
LINE
  8
0
 10
4.99992
 20
142.5
 11
2.49985
 21
142.5
  0
LINE
  8
0
 10
-2.50008
 20
142.5
 11
-2.50008
 21
147.5
  0
LINE
  8
0
 10
-2.50008
 20
147.5
 11
-7.5
 21
147.5
  0
LINE
  8
0
 10
-7.5
 20
147.5
 11
-7.5
 21
150
  0
LINE
  8
0
 10
-7.5
 20
150
 11
0
 21
150
  0
LINE
  8
0
 10
0
 20
150
 11
0
 21
142.5
  0
LINE
  8
0
 10
0
 20
142.5
 11
-2.50008
 21
142.5
  0
LINE
  8
0
 10
12.4999
 20
142.5
 11
12.4999
 21
147.5
  0
LINE
  8
0
 10
12.4999
 20
147.5
 11
7.5
 21
147.5
  0
LINE
  8
0
 10
7.5
 20
147.5
 11
7.5
 21
150
  0
LINE
  8
0
 10
7.5
 20
150
 11
13.6445
 21
150
  0
LINE
  8
0
 10
13.6445
 20
150
 11
15
 21
145.828
  0
LINE
  8
0
 10
15
 20
145.828
 11
15
 21
142.5
  0
LINE
  8
0
 10
15
 20
142.5
 11
12.4999
 21
142.5
  0
LINE
  8
0
 10
-16.0814
 20
142.5
 11
-15
 21
145.828
  0
LINE
  8
0
 10
-15
 20
145.828
 11
-15
 21
142.5
  0
LINE
  8
0
 10
-15
 20
142.5
 11
-16.0814
 21
142.5
  0
LINE
  8
0
 10
-7.5
 20
142.5
 11
-7.5
 21
145
  0
LINE
  8
0
 10
-7.5
 20
145
 11
-5.00015
 21
145
  0
LINE
  8
0
 10
-5.00015
 20
145
 11
-5.00015
 21
142.5
  0
LINE
  8
0
 10
-5.00015
 20
142.5
 11
-7.5
 21
142.5
  0
LINE
  8
0
 10
7.5
 20
142.5
 11
7.5
 21
145
  0
LINE
  8
0
 10
7.5
 20
145
 11
9.99985
 21
145
  0
LINE
  8
0
 10
9.99985
 20
145
 11
9.99985
 21
142.5
  0
LINE
  8
0
 10
9.99985
 20
142.5
 11
7.5
 21
142.5
  0
LINE
  8
0
 10
-12.5002
 20
127.5
 11
-12.5002
 21
137.5
  0
LINE
  8
0
 10
-12.5002
 20
137.5
 11
-17.706
 21
137.5
  0
LINE
  8
0
 10
-17.706
 20
137.5
 11
-16.8937
 21
140
  0
LINE
  8
0
 10
-16.8937
 20
140
 11
-10.0001
 21
140
  0
LINE
  8
0
 10
-10.0001
 20
140
 11
-10.0001
 21
127.5
  0
LINE
  8
0
 10
-10.0001
 20
127.5
 11
-12.5002
 21
127.5
  0
LINE
  8
0
 10
2.49985
 20
127.5
 11
2.49985
 21
137.5
  0
LINE
  8
0
 10
2.49985
 20
137.5
 11
-7.5
 21
137.5
  0
LINE
  8
0
 10
-7.5
 20
137.5
 11
-7.5
 21
140
  0
LINE
  8
0
 10
-7.5
 20
140
 11
4.99992
 21
140
  0
LINE
  8
0
 10
4.99992
 20
140
 11
4.99992
 21
127.5
  0
LINE
  8
0
 10
4.99992
 20
127.5
 11
2.49985
 21
127.5
  0
LINE
  8
0
 10
17.4998
 20
127.5
 11
17.4998
 21
137.5
  0
LINE
  8
0
 10
17.4998
 20
137.5
 11
7.5
 21
137.5
  0
LINE
  8
0
 10
7.5
 20
137.5
 11
7.5
 21
140
  0
LINE
  8
0
 10
7.5
 20
140
 11
16.8937
 21
140
  0
LINE
  8
0
 10
16.8937
 20
140
 11
19.9999
 21
130.44
  0
LINE
  8
0
 10
19.9999
 20
130.44
 11
19.9999
 21
127.5
  0
LINE
  8
0
 10
19.9999
 20
127.5
 11
17.4998
 21
127.5
  0
LINE
  8
0
 10
12.4999
 20
127.5
 11
12.4999
 21
132.5
  0
LINE
  8
0
 10
12.4999
 20
132.5
 11
7.5
 21
132.5
  0
LINE
  8
0
 10
7.5
 20
132.5
 11
7.5
 21
135
  0
LINE
  8
0
 10
7.5
 20
135
 11
15
 21
135
  0
LINE
  8
0
 10
15
 20
135
 11
15
 21
127.5
  0
LINE
  8
0
 10
15
 20
127.5
 11
12.4999
 21
127.5
  0
LINE
  8
0
 10
-2.50008
 20
127.5
 11
-2.50008
 21
132.5
  0
LINE
  8
0
 10
-2.50008
 20
132.5
 11
-7.5
 21
132.5
  0
LINE
  8
0
 10
-7.5
 20
132.5
 11
-7.5
 21
135
  0
LINE
  8
0
 10
-7.5
 20
135
 11
0
 21
135
  0
LINE
  8
0
 10
0
 20
135
 11
0
 21
127.5
  0
LINE
  8
0
 10
0
 20
127.5
 11
-2.50008
 21
127.5
  0
LINE
  8
0
 10
-17.5001
 20
127.5
 11
-17.5001
 21
132.5
  0
LINE
  8
0
 10
-17.5001
 20
132.5
 11
-19.3306
 21
132.5
  0
LINE
  8
0
 10
-19.3306
 20
132.5
 11
-18.5183
 21
135
  0
LINE
  8
0
 10
-18.5183
 20
135
 11
-15
 21
135
  0
LINE
  8
0
 10
-15
 20
135
 11
-15
 21
127.5
  0
LINE
  8
0
 10
-15
 20
127.5
 11
-17.5001
 21
127.5
  0
LINE
  8
0
 10
-7.5
 20
127.5
 11
-7.5
 21
130
  0
LINE
  8
0
 10
-7.5
 20
130
 11
-5.00015
 21
130
  0
LINE
  8
0
 10
-5.00015
 20
130
 11
-5.00015
 21
127.5
  0
LINE
  8
0
 10
-5.00015
 20
127.5
 11
-7.5
 21
127.5
  0
LINE
  8
0
 10
7.5
 20
127.5
 11
7.5
 21
130
  0
LINE
  8
0
 10
7.5
 20
130
 11
9.99985
 21
130
  0
LINE
  8
0
 10
9.99985
 20
130
 11
9.99985
 21
127.5
  0
LINE
  8
0
 10
9.99985
 20
127.5
 11
7.5
 21
127.5
  0
LINE
  8
0
 10
-20.9552
 20
127.5
 11
-20.1429
 21
130
  0
LINE
  8
0
 10
-20.1429
 20
130
 11
-20.0002
 21
130
  0
LINE
  8
0
 10
-20.0002
 20
130
 11
-20.0002
 21
127.5
  0
LINE
  8
0
 10
-20.0002
 20
127.5
 11
-20.9552
 21
127.5
  0
LINE
  8
0
 10
17.4998
 20
112.5
 11
17.4998
 21
122.5
  0
LINE
  8
0
 10
17.4998
 20
122.5
 11
7.5
 21
122.5
  0
LINE
  8
0
 10
7.5
 20
122.5
 11
7.5
 21
125
  0
LINE
  8
0
 10
7.5
 20
125
 11
19.9999
 21
125
  0
LINE
  8
0
 10
19.9999
 20
125
 11
19.9999
 21
112.5
  0
LINE
  8
0
 10
19.9999
 20
112.5
 11
17.4998
 21
112.5
  0
LINE
  8
0
 10
2.49985
 20
112.5
 11
2.49985
 21
122.5
  0
LINE
  8
0
 10
2.49985
 20
122.5
 11
-7.5
 21
122.5
  0
LINE
  8
0
 10
-7.5
 20
122.5
 11
-7.5
 21
125
  0
LINE
  8
0
 10
-7.5
 20
125
 11
4.99992
 21
125
  0
LINE
  8
0
 10
4.99992
 20
125
 11
4.99992
 21
112.5
  0
LINE
  8
0
 10
4.99992
 20
112.5
 11
2.49985
 21
112.5
  0
LINE
  8
0
 10
-12.5002
 20
112.5
 11
-12.5002
 21
122.5
  0
LINE
  8
0
 10
-12.5002
 20
122.5
 11
-22.5
 21
122.5
  0
LINE
  8
0
 10
-22.5
 20
122.5
 11
-22.5
 21
122.746
  0
LINE
  8
0
 10
-22.5
 20
122.746
 11
-21.7675
 21
125
  0
LINE
  8
0
 10
-21.7675
 20
125
 11
-10.0001
 21
125
  0
LINE
  8
0
 10
-10.0001
 20
125
 11
-10.0001
 21
112.5
  0
LINE
  8
0
 10
-10.0001
 20
112.5
 11
-12.5002
 21
112.5
  0
LINE
  8
0
 10
22.5
 20
122.5
 11
22.5
 21
122.746
  0
LINE
  8
0
 10
22.5
 20
122.746
 11
22.5798
 21
122.5
  0
LINE
  8
0
 10
22.5798
 20
122.5
 11
22.5
 21
122.5
  0
LINE
  8
0
 10
-17.5001
 20
112.5
 11
-17.5001
 21
117.5
  0
LINE
  8
0
 10
-17.5001
 20
117.5
 11
-22.5
 21
117.5
  0
LINE
  8
0
 10
-22.5
 20
117.5
 11
-22.5
 21
120
  0
LINE
  8
0
 10
-22.5
 20
120
 11
-15
 21
120
  0
LINE
  8
0
 10
-15
 20
120
 11
-15
 21
112.5
  0
LINE
  8
0
 10
-15
 20
112.5
 11
-17.5001
 21
112.5
  0
LINE
  8
0
 10
22.5
 20
117.5
 11
22.5
 21
120
  0
LINE
  8
0
 10
22.5
 20
120
 11
23.3921
 21
120
  0
LINE
  8
0
 10
23.3921
 20
120
 11
24.2044
 21
117.5
  0
LINE
  8
0
 10
24.2044
 20
117.5
 11
22.5
 21
117.5
  0
LINE
  8
0
 10
12.4999
 20
112.5
 11
12.4999
 21
117.5
  0
LINE
  8
0
 10
12.4999
 20
117.5
 11
7.5
 21
117.5
  0
LINE
  8
0
 10
7.5
 20
117.5
 11
7.5
 21
120
  0
LINE
  8
0
 10
7.5
 20
120
 11
15
 21
120
  0
LINE
  8
0
 10
15
 20
120
 11
15
 21
112.5
  0
LINE
  8
0
 10
15
 20
112.5
 11
12.4999
 21
112.5
  0
LINE
  8
0
 10
-2.50008
 20
112.5
 11
-2.50008
 21
117.5
  0
LINE
  8
0
 10
-2.50008
 20
117.5
 11
-7.5
 21
117.5
  0
LINE
  8
0
 10
-7.5
 20
117.5
 11
-7.5
 21
120
  0
LINE
  8
0
 10
-7.5
 20
120
 11
0
 21
120
  0
LINE
  8
0
 10
0
 20
120
 11
0
 21
112.5
  0
LINE
  8
0
 10
0
 20
112.5
 11
-2.50008
 21
112.5
  0
LINE
  8
0
 10
-25.829
 20
112.5
 11
-25.0001
 21
115.051
  0
LINE
  8
0
 10
-25.0001
 20
115.051
 11
-25.0001
 21
112.5
  0
LINE
  8
0
 10
-25.0001
 20
112.5
 11
-25.829
 21
112.5
  0
LINE
  8
0
 10
7.5
 20
112.5
 11
7.5
 21
115
  0
LINE
  8
0
 10
7.5
 20
115
 11
9.99985
 21
115
  0
LINE
  8
0
 10
9.99985
 20
115
 11
9.99985
 21
112.5
  0
LINE
  8
0
 10
9.99985
 20
112.5
 11
7.5
 21
112.5
  0
LINE
  8
0
 10
-22.5
 20
112.5
 11
-22.5
 21
115
  0
LINE
  8
0
 10
-22.5
 20
115
 11
-20.0002
 21
115
  0
LINE
  8
0
 10
-20.0002
 20
115
 11
-20.0002
 21
112.5
  0
LINE
  8
0
 10
-20.0002
 20
112.5
 11
-22.5
 21
112.5
  0
LINE
  8
0
 10
-7.5
 20
112.5
 11
-7.5
 21
115
  0
LINE
  8
0
 10
-7.5
 20
115
 11
-5.00015
 21
115
  0
LINE
  8
0
 10
-5.00015
 20
115
 11
-5.00015
 21
112.5
  0
LINE
  8
0
 10
-5.00015
 20
112.5
 11
-7.5
 21
112.5
  0
LINE
  8
0
 10
22.5
 20
112.5
 11
22.5
 21
115
  0
LINE
  8
0
 10
22.5
 20
115
 11
24.9998
 21
115
  0
LINE
  8
0
 10
24.9998
 20
115
 11
24.9998
 21
112.5
  0
LINE
  8
0
 10
24.9998
 20
112.5
 11
22.5
 21
112.5
  0
LINE
  8
0
 10
2.49985
 20
97.5
 11
2.49985
 21
107.5
  0
LINE
  8
0
 10
2.49985
 20
107.5
 11
-7.5
 21
107.5
  0
LINE
  8
0
 10
-7.5
 20
107.5
 11
-7.5
 21
110
  0
LINE
  8
0
 10
-7.5
 20
110
 11
4.99992
 21
110
  0
LINE
  8
0
 10
4.99992
 20
110
 11
4.99992
 21
97.5
  0
LINE
  8
0
 10
4.99992
 20
97.5
 11
2.49985
 21
97.5
  0
LINE
  8
0
 10
-27.5002
 20
97.5
 11
-27.5002
 21
107.357
  0
LINE
  8
0
 10
-27.5002
 20
107.357
 11
-26.6413
 21
110
  0
LINE
  8
0
 10
-26.6413
 20
110
 11
-25.0001
 21
110
  0
LINE
  8
0
 10
-25.0001
 20
110
 11
-25.0001
 21
97.5
  0
LINE
  8
0
 10
-25.0001
 20
97.5
 11
-27.5002
 21
97.5
  0
LINE
  8
0
 10
17.4998
 20
97.5
 11
17.4998
 21
107.5
  0
LINE
  8
0
 10
17.4998
 20
107.5
 11
7.5
 21
107.5
  0
LINE
  8
0
 10
7.5
 20
107.5
 11
7.5
 21
110
  0
LINE
  8
0
 10
7.5
 20
110
 11
19.9999
 21
110
  0
LINE
  8
0
 10
19.9999
 20
110
 11
19.9999
 21
97.5
  0
LINE
  8
0
 10
19.9999
 20
97.5
 11
17.4998
 21
97.5
  0
LINE
  8
0
 10
22.5
 20
107.5
 11
22.5
 21
110
  0
LINE
  8
0
 10
22.5
 20
110
 11
26.6413
 21
110
  0
LINE
  8
0
 10
26.6413
 20
110
 11
27.4536
 21
107.5
  0
LINE
  8
0
 10
27.4536
 20
107.5
 11
22.5
 21
107.5
  0
LINE
  8
0
 10
-12.5002
 20
97.5
 11
-12.5002
 21
107.5
  0
LINE
  8
0
 10
-12.5002
 20
107.5
 11
-22.5
 21
107.5
  0
LINE
  8
0
 10
-22.5
 20
107.5
 11
-22.5
 21
110
  0
LINE
  8
0
 10
-22.5
 20
110
 11
-10.0001
 21
110
  0
LINE
  8
0
 10
-10.0001
 20
110
 11
-10.0001
 21
97.5
  0
LINE
  8
0
 10
-10.0001
 20
97.5
 11
-12.5002
 21
97.5
  0
LINE
  8
0
 10
-2.50008
 20
97.5
 11
-2.50008
 21
102.5
  0
LINE
  8
0
 10
-2.50008
 20
102.5
 11
-7.5
 21
102.5
  0
LINE
  8
0
 10
-7.5
 20
102.5
 11
-7.5
 21
105
  0
LINE
  8
0
 10
-7.5
 20
105
 11
0
 21
105
  0
LINE
  8
0
 10
0
 20
105
 11
0
 21
97.5
  0
LINE
  8
0
 10
0
 20
97.5
 11
-2.50008
 21
97.5
  0
LINE
  8
0
 10
-17.5001
 20
97.5
 11
-17.5001
 21
102.5
  0
LINE
  8
0
 10
-17.5001
 20
102.5
 11
-22.5
 21
102.5
  0
LINE
  8
0
 10
-22.5
 20
102.5
 11
-22.5
 21
105
  0
LINE
  8
0
 10
-22.5
 20
105
 11
-15
 21
105
  0
LINE
  8
0
 10
-15
 20
105
 11
-15
 21
97.5
  0
LINE
  8
0
 10
-15
 20
97.5
 11
-17.5001
 21
97.5
  0
LINE
  8
0
 10
12.4999
 20
97.5
 11
12.4999
 21
102.5
  0
LINE
  8
0
 10
12.4999
 20
102.5
 11
7.5
 21
102.5
  0
LINE
  8
0
 10
7.5
 20
102.5
 11
7.5
 21
105
  0
LINE
  8
0
 10
7.5
 20
105
 11
15
 21
105
  0
LINE
  8
0
 10
15
 20
105
 11
15
 21
97.5
  0
LINE
  8
0
 10
15
 20
97.5
 11
12.4999
 21
97.5
  0
LINE
  8
0
 10
27.4999
 20
97.5
 11
27.4999
 21
102.5
  0
LINE
  8
0
 10
27.4999
 20
102.5
 11
22.5
 21
102.5
  0
LINE
  8
0
 10
22.5
 20
102.5
 11
22.5
 21
105
  0
LINE
  8
0
 10
22.5
 20
105
 11
28.2659
 21
105
  0
LINE
  8
0
 10
28.2659
 20
105
 11
30
 21
99.6629
  0
LINE
  8
0
 10
30
 20
99.6629
 11
30
 21
97.5
  0
LINE
  8
0
 10
30
 20
97.5
 11
27.4999
 21
97.5
  0
LINE
  8
0
 10
22.5
 20
97.5
 11
22.5
 21
99.9998
  0
LINE
  8
0
 10
22.5
 20
99.9998
 11
24.9998
 21
99.9998
  0
LINE
  8
0
 10
24.9998
 20
99.9998
 11
24.9998
 21
97.5
  0
LINE
  8
0
 10
24.9998
 20
97.5
 11
22.5
 21
97.5
  0
LINE
  8
0
 10
7.5
 20
97.5
 11
7.5
 21
99.9998
  0
LINE
  8
0
 10
7.5
 20
99.9998
 11
9.99985
 21
99.9998
  0
LINE
  8
0
 10
9.99985
 20
99.9998
 11
9.99985
 21
97.5
  0
LINE
  8
0
 10
9.99985
 20
97.5
 11
7.5
 21
97.5
  0
LINE
  8
0
 10
-7.5
 20
97.5
 11
-7.5
 21
99.9998
  0
LINE
  8
0
 10
-7.5
 20
99.9998
 11
-5.00015
 21
99.9998
  0
LINE
  8
0
 10
-5.00015
 20
99.9998
 11
-5.00015
 21
97.5
  0
LINE
  8
0
 10
-5.00015
 20
97.5
 11
-7.5
 21
97.5
  0
LINE
  8
0
 10
-22.5
 20
97.5
 11
-22.5
 21
99.9998
  0
LINE
  8
0
 10
-22.5
 20
99.9998
 11
-20.0002
 21
99.9998
  0
LINE
  8
0
 10
-20.0002
 20
99.9998
 11
-20.0002
 21
97.5
  0
LINE
  8
0
 10
-20.0002
 20
97.5
 11
-22.5
 21
97.5
  0
LINE
  8
0
 10
-30.7028
 20
97.5
 11
-30
 21
99.6629
  0
LINE
  8
0
 10
-30
 20
99.6629
 11
-30
 21
97.5
  0
LINE
  8
0
 10
-30
 20
97.5
 11
-30.7028
 21
97.5
  0
LINE
  8
0
 10
22.5
 20
92.4998
 11
22.5
 21
94.9999
  0
LINE
  8
0
 10
22.5
 20
94.9999
 11
31.5151
 21
94.9999
  0
LINE
  8
0
 10
31.5151
 20
94.9999
 11
32.3274
 21
92.4998
  0
LINE
  8
0
 10
32.3274
 20
92.4998
 11
22.5
 21
92.4998
  0
LINE
  8
0
 10
-27.5002
 20
82.5
 11
-27.5002
 21
92.4998
  0
LINE
  8
0
 10
-27.5002
 20
92.4998
 11
-32.3274
 21
92.4998
  0
LINE
  8
0
 10
-32.3274
 20
92.4998
 11
-31.5151
 21
94.9999
  0
LINE
  8
0
 10
-31.5151
 20
94.9999
 11
-25.0001
 21
94.9999
  0
LINE
  8
0
 10
-25.0001
 20
94.9999
 11
-25.0001
 21
82.5
  0
LINE
  8
0
 10
-25.0001
 20
82.5
 11
-27.5002
 21
82.5
  0
LINE
  8
0
 10
-12.5002
 20
82.5
 11
-12.5002
 21
92.4998
  0
LINE
  8
0
 10
-12.5002
 20
92.4998
 11
-22.5
 21
92.4998
  0
LINE
  8
0
 10
-22.5
 20
92.4998
 11
-22.5
 21
94.9999
  0
LINE
  8
0
 10
-22.5
 20
94.9999
 11
-10.0001
 21
94.9999
  0
LINE
  8
0
 10
-10.0001
 20
94.9999
 11
-10.0001
 21
82.5
  0
LINE
  8
0
 10
-10.0001
 20
82.5
 11
-12.5002
 21
82.5
  0
LINE
  8
0
 10
2.49985
 20
82.5
 11
2.49985
 21
92.4998
  0
LINE
  8
0
 10
2.49985
 20
92.4998
 11
-7.5
 21
92.4998
  0
LINE
  8
0
 10
-7.5
 20
92.4998
 11
-7.5
 21
94.9999
  0
LINE
  8
0
 10
-7.5
 20
94.9999
 11
4.99992
 21
94.9999
  0
LINE
  8
0
 10
4.99992
 20
94.9999
 11
4.99992
 21
82.5
  0
LINE
  8
0
 10
4.99992
 20
82.5
 11
2.49985
 21
82.5
  0
LINE
  8
0
 10
17.4998
 20
82.5
 11
17.4998
 21
92.4998
  0
LINE
  8
0
 10
17.4998
 20
92.4998
 11
7.5
 21
92.4998
  0
LINE
  8
0
 10
7.5
 20
92.4998
 11
7.5
 21
94.9999
  0
LINE
  8
0
 10
7.5
 20
94.9999
 11
19.9999
 21
94.9999
  0
LINE
  8
0
 10
19.9999
 20
94.9999
 11
19.9999
 21
82.5
  0
LINE
  8
0
 10
19.9999
 20
82.5
 11
17.4998
 21
82.5
  0
LINE
  8
0
 10
32.4998
 20
82.5
 11
32.4998
 21
91.9692
  0
LINE
  8
0
 10
32.4998
 20
91.9692
 11
34.9999
 21
84.2747
  0
LINE
  8
0
 10
34.9999
 20
84.2747
 11
34.9999
 21
82.5
  0
LINE
  8
0
 10
34.9999
 20
82.5
 11
32.4998
 21
82.5
  0
LINE
  8
0
 10
-32.5001
 20
82.5
 11
-32.5001
 21
87.4999
  0
LINE
  8
0
 10
-32.5001
 20
87.4999
 11
-33.952
 21
87.4999
  0
LINE
  8
0
 10
-33.952
 20
87.4999
 11
-33.1397
 21
90
  0
LINE
  8
0
 10
-33.1397
 20
90
 11
-30
 21
90
  0
LINE
  8
0
 10
-30
 20
90
 11
-30
 21
82.5
  0
LINE
  8
0
 10
-30
 20
82.5
 11
-32.5001
 21
82.5
  0
LINE
  8
0
 10
-17.5001
 20
82.5
 11
-17.5001
 21
87.4999
  0
LINE
  8
0
 10
-17.5001
 20
87.4999
 11
-22.5
 21
87.4999
  0
LINE
  8
0
 10
-22.5
 20
87.4999
 11
-22.5
 21
90
  0
LINE
  8
0
 10
-22.5
 20
90
 11
-15
 21
90
  0
LINE
  8
0
 10
-15
 20
90
 11
-15
 21
82.5
  0
LINE
  8
0
 10
-15
 20
82.5
 11
-17.5001
 21
82.5
  0
LINE
  8
0
 10
-2.50008
 20
82.5
 11
-2.50008
 21
87.4999
  0
LINE
  8
0
 10
-2.50008
 20
87.4999
 11
-7.5
 21
87.4999
  0
LINE
  8
0
 10
-7.5
 20
87.4999
 11
-7.5
 21
90
  0
LINE
  8
0
 10
-7.5
 20
90
 11
0
 21
90
  0
LINE
  8
0
 10
0
 20
90
 11
0
 21
82.5
  0
LINE
  8
0
 10
0
 20
82.5
 11
-2.50008
 21
82.5
  0
LINE
  8
0
 10
27.4999
 20
82.5
 11
27.4999
 21
87.4999
  0
LINE
  8
0
 10
27.4999
 20
87.4999
 11
22.5
 21
87.4999
  0
LINE
  8
0
 10
22.5
 20
87.4999
 11
22.5
 21
90
  0
LINE
  8
0
 10
22.5
 20
90
 11
30
 21
90
  0
LINE
  8
0
 10
30
 20
90
 11
30
 21
82.5
  0
LINE
  8
0
 10
30
 20
82.5
 11
27.4999
 21
82.5
  0
LINE
  8
0
 10
12.4999
 20
82.5
 11
12.4999
 21
87.4999
  0
LINE
  8
0
 10
12.4999
 20
87.4999
 11
7.5
 21
87.4999
  0
LINE
  8
0
 10
7.5
 20
87.4999
 11
7.5
 21
90
  0
LINE
  8
0
 10
7.5
 20
90
 11
15
 21
90
  0
LINE
  8
0
 10
15
 20
90
 11
15
 21
82.5
  0
LINE
  8
0
 10
15
 20
82.5
 11
12.4999
 21
82.5
  0
LINE
  8
0
 10
-7.5
 20
82.5
 11
-7.5
 21
84.9998
  0
LINE
  8
0
 10
-7.5
 20
84.9998
 11
-5.00015
 21
84.9998
  0
LINE
  8
0
 10
-5.00015
 20
84.9998
 11
-5.00015
 21
82.5
  0
LINE
  8
0
 10
-5.00015
 20
82.5
 11
-7.5
 21
82.5
  0
LINE
  8
0
 10
22.5
 20
82.5
 11
22.5
 21
84.9998
  0
LINE
  8
0
 10
22.5
 20
84.9998
 11
24.9998
 21
84.9998
  0
LINE
  8
0
 10
24.9998
 20
84.9998
 11
24.9998
 21
82.5
  0
LINE
  8
0
 10
24.9998
 20
82.5
 11
22.5
 21
82.5
  0
LINE
  8
0
 10
7.5
 20
82.5
 11
7.5
 21
84.9998
  0
LINE
  8
0
 10
7.5
 20
84.9998
 11
9.99985
 21
84.9998
  0
LINE
  8
0
 10
9.99985
 20
84.9998
 11
9.99985
 21
82.5
  0
LINE
  8
0
 10
9.99985
 20
82.5
 11
7.5
 21
82.5
  0
LINE
  8
0
 10
-22.5
 20
82.5
 11
-22.5
 21
84.9998
  0
LINE
  8
0
 10
-22.5
 20
84.9998
 11
-20.0002
 21
84.9998
  0
LINE
  8
0
 10
-20.0002
 20
84.9998
 11
-20.0002
 21
82.5
  0
LINE
  8
0
 10
-20.0002
 20
82.5
 11
-22.5
 21
82.5
  0
LINE
  8
0
 10
-35.5766
 20
82.5
 11
-35.0002
 21
84.274
  0
LINE
  8
0
 10
-35.0002
 20
84.274
 11
-35.0002
 21
82.5
  0
LINE
  8
0
 10
-35.0002
 20
82.5
 11
-35.5766
 21
82.5
  0
LINE
  8
0
 10
-12.5002
 20
67.5
 11
-12.5002
 21
77.4998
  0
LINE
  8
0
 10
-12.5002
 20
77.4998
 11
-22.5
 21
77.4998
  0
LINE
  8
0
 10
-22.5
 20
77.4998
 11
-22.5
 21
79.9999
  0
LINE
  8
0
 10
-22.5
 20
79.9999
 11
-10.0001
 21
79.9999
  0
LINE
  8
0
 10
-10.0001
 20
79.9999
 11
-10.0001
 21
67.5
  0
LINE
  8
0
 10
-10.0001
 20
67.5
 11
-12.5002
 21
67.5
  0
LINE
  8
0
 10
-27.5002
 20
67.5
 11
-27.5002
 21
77.4998
  0
LINE
  8
0
 10
-27.5002
 20
77.4998
 11
-37.2012
 21
77.4998
  0
LINE
  8
0
 10
-37.2012
 20
77.4998
 11
-36.3889
 21
79.9999
  0
LINE
  8
0
 10
-36.3889
 20
79.9999
 11
-25.0001
 21
79.9999
  0
LINE
  8
0
 10
-25.0001
 20
79.9999
 11
-25.0001
 21
67.5
  0
LINE
  8
0
 10
-25.0001
 20
67.5
 11
-27.5002
 21
67.5
  0
LINE
  8
0
 10
32.4998
 20
67.5
 11
32.4998
 21
77.4998
  0
LINE
  8
0
 10
32.4998
 20
77.4998
 11
22.5
 21
77.4998
  0
LINE
  8
0
 10
22.5
 20
77.4998
 11
22.5
 21
79.9999
  0
LINE
  8
0
 10
22.5
 20
79.9999
 11
34.9999
 21
79.9999
  0
LINE
  8
0
 10
34.9999
 20
79.9999
 11
34.9999
 21
67.5
  0
LINE
  8
0
 10
34.9999
 20
67.5
 11
32.4998
 21
67.5
  0
LINE
  8
0
 10
2.49985
 20
67.5
 11
2.49985
 21
77.4998
  0
LINE
  8
0
 10
2.49985
 20
77.4998
 11
-7.5
 21
77.4998
  0
LINE
  8
0
 10
-7.5
 20
77.4998
 11
-7.5
 21
79.9999
  0
LINE
  8
0
 10
-7.5
 20
79.9999
 11
4.99992
 21
79.9999
  0
LINE
  8
0
 10
4.99992
 20
79.9999
 11
4.99992
 21
67.5
  0
LINE
  8
0
 10
4.99992
 20
67.5
 11
2.49985
 21
67.5
  0
LINE
  8
0
 10
17.4998
 20
67.5
 11
17.4998
 21
77.4998
  0
LINE
  8
0
 10
17.4998
 20
77.4998
 11
7.5
 21
77.4998
  0
LINE
  8
0
 10
7.5
 20
77.4998
 11
7.5
 21
79.9999
  0
LINE
  8
0
 10
7.5
 20
79.9999
 11
19.9999
 21
79.9999
  0
LINE
  8
0
 10
19.9999
 20
79.9999
 11
19.9999
 21
67.5
  0
LINE
  8
0
 10
19.9999
 20
67.5
 11
17.4998
 21
67.5
  0
LINE
  8
0
 10
12.4999
 20
67.5
 11
12.4999
 21
72.4999
  0
LINE
  8
0
 10
12.4999
 20
72.4999
 11
7.5
 21
72.4999
  0
LINE
  8
0
 10
7.5
 20
72.4999
 11
7.5
 21
75
  0
LINE
  8
0
 10
7.5
 20
75
 11
15
 21
75
  0
LINE
  8
0
 10
15
 20
75
 11
15
 21
67.5
  0
LINE
  8
0
 10
15
 20
67.5
 11
12.4999
 21
67.5
  0
LINE
  8
0
 10
27.4999
 20
67.5
 11
27.4999
 21
72.4999
  0
LINE
  8
0
 10
27.4999
 20
72.4999
 11
22.5
 21
72.4999
  0
LINE
  8
0
 10
22.5
 20
72.4999
 11
22.5
 21
75
  0
LINE
  8
0
 10
22.5
 20
75
 11
30
 21
75
  0
LINE
  8
0
 10
30
 20
75
 11
30
 21
67.5
  0
LINE
  8
0
 10
30
 20
67.5
 11
27.4999
 21
67.5
  0
LINE
  8
0
 10
37.5
 20
72.4999
 11
37.5
 21
75
  0
LINE
  8
0
 10
37.5
 20
75
 11
38.0135
 21
75
  0
LINE
  8
0
 10
38.0135
 20
75
 11
38.8258
 21
72.4999
  0
LINE
  8
0
 10
38.8258
 20
72.4999
 11
37.5
 21
72.4999
  0
LINE
  8
0
 10
-2.50008
 20
67.5
 11
-2.50008
 21
72.4999
  0
LINE
  8
0
 10
-2.50008
 20
72.4999
 11
-7.5
 21
72.4999
  0
LINE
  8
0
 10
-7.5
 20
72.4999
 11
-7.5
 21
75
  0
LINE
  8
0
 10
-7.5
 20
75
 11
0
 21
75
  0
LINE
  8
0
 10
0
 20
75
 11
0
 21
67.5
  0
LINE
  8
0
 10
0
 20
67.5
 11
-2.50008
 21
67.5
  0
LINE
  8
0
 10
-17.5001
 20
67.5
 11
-17.5001
 21
72.4999
  0
LINE
  8
0
 10
-17.5001
 20
72.4999
 11
-22.5
 21
72.4999
  0
LINE
  8
0
 10
-22.5
 20
72.4999
 11
-22.5
 21
75
  0
LINE
  8
0
 10
-22.5
 20
75
 11
-15
 21
75
  0
LINE
  8
0
 10
-15
 20
75
 11
-15
 21
67.5
  0
LINE
  8
0
 10
-15
 20
67.5
 11
-17.5001
 21
67.5
  0
LINE
  8
0
 10
-32.5001
 20
67.5
 11
-32.5001
 21
72.4999
  0
LINE
  8
0
 10
-32.5001
 20
72.4999
 11
-37.5
 21
72.4999
  0
LINE
  8
0
 10
-37.5
 20
72.4999
 11
-37.5
 21
75
  0
LINE
  8
0
 10
-37.5
 20
75
 11
-30
 21
75
  0
LINE
  8
0
 10
-30
 20
75
 11
-30
 21
67.5
  0
LINE
  8
0
 10
-30
 20
67.5
 11
-32.5001
 21
67.5
  0
LINE
  8
0
 10
-7.5
 20
67.5
 11
-7.5
 21
69.9998
  0
LINE
  8
0
 10
-7.5
 20
69.9998
 11
-5.00015
 21
69.9998
  0
LINE
  8
0
 10
-5.00015
 20
69.9998
 11
-5.00015
 21
67.5
  0
LINE
  8
0
 10
-5.00015
 20
67.5
 11
-7.5
 21
67.5
  0
LINE
  8
0
 10
-22.5
 20
67.5
 11
-22.5
 21
69.9998
  0
LINE
  8
0
 10
-22.5
 20
69.9998
 11
-20.0002
 21
69.9998
  0
LINE
  8
0
 10
-20.0002
 20
69.9998
 11
-20.0002
 21
67.5
  0
LINE
  8
0
 10
-20.0002
 20
67.5
 11
-22.5
 21
67.5
  0
LINE
  8
0
 10
22.5
 20
67.5
 11
22.5
 21
69.9998
  0
LINE
  8
0
 10
22.5
 20
69.9998
 11
24.9998
 21
69.9998
  0
LINE
  8
0
 10
24.9998
 20
69.9998
 11
24.9998
 21
67.5
  0
LINE
  8
0
 10
24.9998
 20
67.5
 11
22.5
 21
67.5
  0
LINE
  8
0
 10
7.5
 20
67.5
 11
7.5
 21
69.9998
  0
LINE
  8
0
 10
7.5
 20
69.9998
 11
9.99985
 21
69.9998
  0
LINE
  8
0
 10
9.99985
 20
69.9998
 11
9.99985
 21
67.5
  0
LINE
  8
0
 10
9.99985
 20
67.5
 11
7.5
 21
67.5
  0
LINE
  8
0
 10
-37.5
 20
67.5
 11
-37.5
 21
69.9998
  0
LINE
  8
0
 10
-37.5
 20
69.9998
 11
-35.0002
 21
69.9998
  0
LINE
  8
0
 10
-35.0002
 20
69.9998
 11
-35.0002
 21
67.5
  0
LINE
  8
0
 10
-35.0002
 20
67.5
 11
-37.5
 21
67.5
  0
LINE
  8
0
 10
37.5
 20
67.5
 11
37.5
 21
69.9998
  0
LINE
  8
0
 10
37.5
 20
69.9998
 11
39.6381
 21
69.9998
  0
LINE
  8
0
 10
39.6381
 20
69.9998
 11
39.9998
 21
68.8866
  0
LINE
  8
0
 10
39.9998
 20
68.8866
 11
39.9998
 21
67.5
  0
LINE
  8
0
 10
39.9998
 20
67.5
 11
37.5
 21
67.5
  0
LINE
  8
0
 10
-40.4504
 20
67.5
 11
-40.0001
 21
68.8859
  0
LINE
  8
0
 10
-40.0001
 20
68.8859
 11
-40.0001
 21
67.5
  0
LINE
  8
0
 10
-40.0001
 20
67.5
 11
-40.4504
 21
67.5
  0
LINE
  8
0
 10
37.5
 20
62.4998
 11
37.5
 21
64.9999
  0
LINE
  8
0
 10
37.5
 20
64.9999
 11
41.2627
 21
64.9999
  0
LINE
  8
0
 10
41.2627
 20
64.9999
 11
42.075
 21
62.4998
  0
LINE
  8
0
 10
42.075
 20
62.4998
 11
37.5
 21
62.4998
  0
LINE
  8
0
 10
-27.5002
 20
52.5
 11
-27.5002
 21
62.4998
  0
LINE
  8
0
 10
-27.5002
 20
62.4998
 11
-37.5
 21
62.4998
  0
LINE
  8
0
 10
-37.5
 20
62.4998
 11
-37.5
 21
64.9999
  0
LINE
  8
0
 10
-37.5
 20
64.9999
 11
-25.0001
 21
64.9999
  0
LINE
  8
0
 10
-25.0001
 20
64.9999
 11
-25.0001
 21
52.5
  0
LINE
  8
0
 10
-25.0001
 20
52.5
 11
-27.5002
 21
52.5
  0
LINE
  8
0
 10
32.4998
 20
52.5
 11
32.4998
 21
62.4998
  0
LINE
  8
0
 10
32.4998
 20
62.4998
 11
22.5
 21
62.4998
  0
LINE
  8
0
 10
22.5
 20
62.4998
 11
22.5
 21
64.9999
  0
LINE
  8
0
 10
22.5
 20
64.9999
 11
34.9999
 21
64.9999
  0
LINE
  8
0
 10
34.9999
 20
64.9999
 11
34.9999
 21
52.5
  0
LINE
  8
0
 10
34.9999
 20
52.5
 11
32.4998
 21
52.5
  0
LINE
  8
0
 10
-12.5002
 20
52.5
 11
-12.5002
 21
62.4998
  0
LINE
  8
0
 10
-12.5002
 20
62.4998
 11
-22.5
 21
62.4998
  0
LINE
  8
0
 10
-22.5
 20
62.4998
 11
-22.5
 21
64.9999
  0
LINE
  8
0
 10
-22.5
 20
64.9999
 11
-10.0001
 21
64.9999
  0
LINE
  8
0
 10
-10.0001
 20
64.9999
 11
-10.0001
 21
52.5
  0
LINE
  8
0
 10
-10.0001
 20
52.5
 11
-12.5002
 21
52.5
  0
LINE
  8
0
 10
2.49985
 20
52.5
 11
2.49985
 21
62.4998
  0
LINE
  8
0
 10
2.49985
 20
62.4998
 11
-7.5
 21
62.4998
  0
LINE
  8
0
 10
-7.5
 20
62.4998
 11
-7.5
 21
64.9999
  0
LINE
  8
0
 10
-7.5
 20
64.9999
 11
4.99992
 21
64.9999
  0
LINE
  8
0
 10
4.99992
 20
64.9999
 11
4.99992
 21
52.5
  0
LINE
  8
0
 10
4.99992
 20
52.5
 11
2.49985
 21
52.5
  0
LINE
  8
0
 10
17.4998
 20
52.5
 11
17.4998
 21
62.4998
  0
LINE
  8
0
 10
17.4998
 20
62.4998
 11
7.5
 21
62.4998
  0
LINE
  8
0
 10
7.5
 20
62.4998
 11
7.5
 21
64.9999
  0
LINE
  8
0
 10
7.5
 20
64.9999
 11
19.9999
 21
64.9999
  0
LINE
  8
0
 10
19.9999
 20
64.9999
 11
19.9999
 21
52.5
  0
LINE
  8
0
 10
19.9999
 20
52.5
 11
17.4998
 21
52.5
  0
LINE
  8
0
 10
-42.5002
 20
52.5
 11
-42.5002
 21
61.1914
  0
LINE
  8
0
 10
-42.5002
 20
61.1914
 11
-41.2627
 21
64.9999
  0
LINE
  8
0
 10
-41.2627
 20
64.9999
 11
-40.0001
 21
64.9999
  0
LINE
  8
0
 10
-40.0001
 20
64.9999
 11
-40.0001
 21
52.5
  0
LINE
  8
0
 10
-40.0001
 20
52.5
 11
-42.5002
 21
52.5
  0
LINE
  8
0
 10
27.4999
 20
52.5
 11
27.4999
 21
57.4999
  0
LINE
  8
0
 10
27.4999
 20
57.4999
 11
22.5
 21
57.4999
  0
LINE
  8
0
 10
22.5
 20
57.4999
 11
22.5
 21
60
  0
LINE
  8
0
 10
22.5
 20
60
 11
30
 21
60
  0
LINE
  8
0
 10
30
 20
60
 11
30
 21
52.5
  0
LINE
  8
0
 10
30
 20
52.5
 11
27.4999
 21
52.5
  0
LINE
  8
0
 10
42.4999
 20
52.5
 11
42.4999
 21
57.4999
  0
LINE
  8
0
 10
42.4999
 20
57.4999
 11
37.5
 21
57.4999
  0
LINE
  8
0
 10
37.5
 20
57.4999
 11
37.5
 21
60
  0
LINE
  8
0
 10
37.5
 20
60
 11
42.8873
 21
60
  0
LINE
  8
0
 10
42.8873
 20
60
 11
45
 21
53.4977
  0
LINE
  8
0
 10
45
 20
53.4977
 11
45
 21
52.5
  0
LINE
  8
0
 10
45
 20
52.5
 11
42.4999
 21
52.5
  0
LINE
  8
0
 10
12.4999
 20
52.5
 11
12.4999
 21
57.4999
  0
LINE
  8
0
 10
12.4999
 20
57.4999
 11
7.5
 21
57.4999
  0
LINE
  8
0
 10
7.5
 20
57.4999
 11
7.5
 21
60
  0
LINE
  8
0
 10
7.5
 20
60
 11
15
 21
60
  0
LINE
  8
0
 10
15
 20
60
 11
15
 21
52.5
  0
LINE
  8
0
 10
15
 20
52.5
 11
12.4999
 21
52.5
  0
LINE
  8
0
 10
-2.50008
 20
52.5
 11
-2.50008
 21
57.4999
  0
LINE
  8
0
 10
-2.50008
 20
57.4999
 11
-7.5
 21
57.4999
  0
LINE
  8
0
 10
-7.5
 20
57.4999
 11
-7.5
 21
60
  0
LINE
  8
0
 10
-7.5
 20
60
 11
0
 21
60
  0
LINE
  8
0
 10
0
 20
60
 11
0
 21
52.5
  0
LINE
  8
0
 10
0
 20
52.5
 11
-2.50008
 21
52.5
  0
LINE
  8
0
 10
-17.5001
 20
52.5
 11
-17.5001
 21
57.4999
  0
LINE
  8
0
 10
-17.5001
 20
57.4999
 11
-22.5
 21
57.4999
  0
LINE
  8
0
 10
-22.5
 20
57.4999
 11
-22.5
 21
60
  0
LINE
  8
0
 10
-22.5
 20
60
 11
-15
 21
60
  0
LINE
  8
0
 10
-15
 20
60
 11
-15
 21
52.5
  0
LINE
  8
0
 10
-15
 20
52.5
 11
-17.5001
 21
52.5
  0
LINE
  8
0
 10
-32.5001
 20
52.5
 11
-32.5001
 21
57.4999
  0
LINE
  8
0
 10
-32.5001
 20
57.4999
 11
-37.5
 21
57.4999
  0
LINE
  8
0
 10
-37.5
 20
57.4999
 11
-37.5
 21
60
  0
LINE
  8
0
 10
-37.5
 20
60
 11
-30
 21
60
  0
LINE
  8
0
 10
-30
 20
60
 11
-30
 21
52.5
  0
LINE
  8
0
 10
-30
 20
52.5
 11
-32.5001
 21
52.5
  0
LINE
  8
0
 10
-37.5
 20
52.5
 11
-37.5
 21
54.9998
  0
LINE
  8
0
 10
-37.5
 20
54.9998
 11
-35.0002
 21
54.9998
  0
LINE
  8
0
 10
-35.0002
 20
54.9998
 11
-35.0002
 21
52.5
  0
LINE
  8
0
 10
-35.0002
 20
52.5
 11
-37.5
 21
52.5
  0
LINE
  8
0
 10
-22.5
 20
52.5
 11
-22.5
 21
54.9998
  0
LINE
  8
0
 10
-22.5
 20
54.9998
 11
-20.0002
 21
54.9998
  0
LINE
  8
0
 10
-20.0002
 20
54.9998
 11
-20.0002
 21
52.5
  0
LINE
  8
0
 10
-20.0002
 20
52.5
 11
-22.5
 21
52.5
  0
LINE
  8
0
 10
-7.5
 20
52.5
 11
-7.5
 21
54.9998
  0
LINE
  8
0
 10
-7.5
 20
54.9998
 11
-5.00015
 21
54.9998
  0
LINE
  8
0
 10
-5.00015
 20
54.9998
 11
-5.00015
 21
52.5
  0
LINE
  8
0
 10
-5.00015
 20
52.5
 11
-7.5
 21
52.5
  0
LINE
  8
0
 10
7.5
 20
52.5
 11
7.5
 21
54.9998
  0
LINE
  8
0
 10
7.5
 20
54.9998
 11
9.99985
 21
54.9998
  0
LINE
  8
0
 10
9.99985
 20
54.9998
 11
9.99985
 21
52.5
  0
LINE
  8
0
 10
9.99985
 20
52.5
 11
7.5
 21
52.5
  0
LINE
  8
0
 10
22.5
 20
52.5
 11
22.5
 21
54.9998
  0
LINE
  8
0
 10
22.5
 20
54.9998
 11
24.9998
 21
54.9998
  0
LINE
  8
0
 10
24.9998
 20
54.9998
 11
24.9998
 21
52.5
  0
LINE
  8
0
 10
24.9998
 20
52.5
 11
22.5
 21
52.5
  0
LINE
  8
0
 10
37.5
 20
52.5
 11
37.5
 21
54.9998
  0
LINE
  8
0
 10
37.5
 20
54.9998
 11
39.9998
 21
54.9998
  0
LINE
  8
0
 10
39.9998
 20
54.9998
 11
39.9998
 21
52.5
  0
LINE
  8
0
 10
39.9998
 20
52.5
 11
37.5
 21
52.5
  0
LINE
  8
0
 10
-45.3242
 20
52.5
 11
-45
 21
53.4977
  0
LINE
  8
0
 10
-45
 20
53.4977
 11
-45
 21
52.5
  0
LINE
  8
0
 10
-45
 20
52.5
 11
-45.3242
 21
52.5
  0
LINE
  8
0
 10
37.5
 20
47.4998
 11
37.5
 21
49.9999
  0
LINE
  8
0
 10
37.5
 20
49.9999
 11
46.1365
 21
49.9999
  0
LINE
  8
0
 10
46.1365
 20
49.9999
 11
46.9488
 21
47.4998
  0
LINE
  8
0
 10
46.9488
 20
47.4998
 11
37.5
 21
47.4998
  0
LINE
  8
0
 10
-42.5002
 20
37.5
 11
-42.5002
 21
47.4998
  0
LINE
  8
0
 10
-42.5002
 20
47.4998
 11
-46.9488
 21
47.4998
  0
LINE
  8
0
 10
-46.9488
 20
47.4998
 11
-46.1365
 21
49.9999
  0
LINE
  8
0
 10
-46.1365
 20
49.9999
 11
-40.0001
 21
49.9999
  0
LINE
  8
0
 10
-40.0001
 20
49.9999
 11
-40.0001
 21
37.5
  0
LINE
  8
0
 10
-40.0001
 20
37.5
 11
-42.5002
 21
37.5
  0
LINE
  8
0
 10
-12.5002
 20
37.5
 11
-12.5002
 21
47.4998
  0
LINE
  8
0
 10
-12.5002
 20
47.4998
 11
-22.5
 21
47.4998
  0
LINE
  8
0
 10
-22.5
 20
47.4998
 11
-22.5
 21
49.9999
  0
LINE
  8
0
 10
-22.5
 20
49.9999
 11
-10.0001
 21
49.9999
  0
LINE
  8
0
 10
-10.0001
 20
49.9999
 11
-10.0001
 21
37.5
  0
LINE
  8
0
 10
-10.0001
 20
37.5
 11
-12.5002
 21
37.5
  0
LINE
  8
0
 10
17.4998
 20
37.5
 11
17.4998
 21
47.4998
  0
LINE
  8
0
 10
17.4998
 20
47.4998
 11
7.5
 21
47.4998
  0
LINE
  8
0
 10
7.5
 20
47.4998
 11
7.5
 21
49.9999
  0
LINE
  8
0
 10
7.5
 20
49.9999
 11
19.9999
 21
49.9999
  0
LINE
  8
0
 10
19.9999
 20
49.9999
 11
19.9999
 21
37.5
  0
LINE
  8
0
 10
19.9999
 20
37.5
 11
17.4998
 21
37.5
  0
LINE
  8
0
 10
32.4998
 20
37.5
 11
32.4998
 21
47.4998
  0
LINE
  8
0
 10
32.4998
 20
47.4998
 11
22.5
 21
47.4998
  0
LINE
  8
0
 10
22.5
 20
47.4998
 11
22.5
 21
49.9999
  0
LINE
  8
0
 10
22.5
 20
49.9999
 11
34.9999
 21
49.9999
  0
LINE
  8
0
 10
34.9999
 20
49.9999
 11
34.9999
 21
37.5
  0
LINE
  8
0
 10
34.9999
 20
37.5
 11
32.4998
 21
37.5
  0
LINE
  8
0
 10
-27.5002
 20
37.5
 11
-27.5002
 21
47.4998
  0
LINE
  8
0
 10
-27.5002
 20
47.4998
 11
-37.5
 21
47.4998
  0
LINE
  8
0
 10
-37.5
 20
47.4998
 11
-37.5
 21
49.9999
  0
LINE
  8
0
 10
-37.5
 20
49.9999
 11
-25.0001
 21
49.9999
  0
LINE
  8
0
 10
-25.0001
 20
49.9999
 11
-25.0001
 21
37.5
  0
LINE
  8
0
 10
-25.0001
 20
37.5
 11
-27.5002
 21
37.5
  0
LINE
  8
0
 10
2.49985
 20
37.5
 11
2.49985
 21
47.4998
  0
LINE
  8
0
 10
2.49985
 20
47.4998
 11
-7.5
 21
47.4998
  0
LINE
  8
0
 10
-7.5
 20
47.4998
 11
-7.5
 21
49.9999
  0
LINE
  8
0
 10
-7.5
 20
49.9999
 11
4.99992
 21
49.9999
  0
LINE
  8
0
 10
4.99992
 20
49.9999
 11
4.99992
 21
37.5
  0
LINE
  8
0
 10
4.99992
 20
37.5
 11
2.49985
 21
37.5
  0
LINE
  8
0
 10
47.4998
 20
37.5
 11
47.4998
 21
45.8039
  0
LINE
  8
0
 10
47.4998
 20
45.8039
 11
49.9999
 21
38.1095
  0
LINE
  8
0
 10
49.9999
 20
38.1095
 11
49.9999
 21
37.5
  0
LINE
  8
0
 10
49.9999
 20
37.5
 11
47.4998
 21
37.5
  0
LINE
  8
0
 10
42.4999
 20
37.5
 11
42.4999
 21
42.4999
  0
LINE
  8
0
 10
42.4999
 20
42.4999
 11
37.5
 21
42.4999
  0
LINE
  8
0
 10
37.5
 20
42.4999
 11
37.5
 21
45
  0
LINE
  8
0
 10
37.5
 20
45
 11
45
 21
45
  0
LINE
  8
0
 10
45
 20
45
 11
45
 21
37.5
  0
LINE
  8
0
 10
45
 20
37.5
 11
42.4999
 21
37.5
  0
LINE
  8
0
 10
-47.5001
 20
37.5
 11
-47.5001
 21
42.4999
  0
LINE
  8
0
 10
-47.5001
 20
42.4999
 11
-48.5734
 21
42.4999
  0
LINE
  8
0
 10
-48.5734
 20
42.4999
 11
-47.7611
 21
45
  0
LINE
  8
0
 10
-47.7611
 20
45
 11
-45
 21
45
  0
LINE
  8
0
 10
-45
 20
45
 11
-45
 21
37.5
  0
LINE
  8
0
 10
-45
 20
37.5
 11
-47.5001
 21
37.5
  0
LINE
  8
0
 10
27.4999
 20
37.5
 11
27.4999
 21
42.4999
  0
LINE
  8
0
 10
27.4999
 20
42.4999
 11
22.5
 21
42.4999
  0
LINE
  8
0
 10
22.5
 20
42.4999
 11
22.5
 21
45
  0
LINE
  8
0
 10
22.5
 20
45
 11
30
 21
45
  0
LINE
  8
0
 10
30
 20
45
 11
30
 21
37.5
  0
LINE
  8
0
 10
30
 20
37.5
 11
27.4999
 21
37.5
  0
LINE
  8
0
 10
12.4999
 20
37.5
 11
12.4999
 21
42.4999
  0
LINE
  8
0
 10
12.4999
 20
42.4999
 11
7.5
 21
42.4999
  0
LINE
  8
0
 10
7.5
 20
42.4999
 11
7.5
 21
45
  0
LINE
  8
0
 10
7.5
 20
45
 11
15
 21
45
  0
LINE
  8
0
 10
15
 20
45
 11
15
 21
37.5
  0
LINE
  8
0
 10
15
 20
37.5
 11
12.4999
 21
37.5
  0
LINE
  8
0
 10
-17.5001
 20
37.5
 11
-17.5001
 21
42.4999
  0
LINE
  8
0
 10
-17.5001
 20
42.4999
 11
-22.5
 21
42.4999
  0
LINE
  8
0
 10
-22.5
 20
42.4999
 11
-22.5
 21
45
  0
LINE
  8
0
 10
-22.5
 20
45
 11
-15
 21
45
  0
LINE
  8
0
 10
-15
 20
45
 11
-15
 21
37.5
  0
LINE
  8
0
 10
-15
 20
37.5
 11
-17.5001
 21
37.5
  0
LINE
  8
0
 10
-32.5001
 20
37.5
 11
-32.5001
 21
42.4999
  0
LINE
  8
0
 10
-32.5001
 20
42.4999
 11
-37.5
 21
42.4999
  0
LINE
  8
0
 10
-37.5
 20
42.4999
 11
-37.5
 21
45
  0
LINE
  8
0
 10
-37.5
 20
45
 11
-30
 21
45
  0
LINE
  8
0
 10
-30
 20
45
 11
-30
 21
37.5
  0
LINE
  8
0
 10
-30
 20
37.5
 11
-32.5001
 21
37.5
  0
LINE
  8
0
 10
-2.50008
 20
37.5
 11
-2.50008
 21
42.4999
  0
LINE
  8
0
 10
-2.50008
 20
42.4999
 11
-7.5
 21
42.4999
  0
LINE
  8
0
 10
-7.5
 20
42.4999
 11
-7.5
 21
45
  0
LINE
  8
0
 10
-7.5
 20
45
 11
0
 21
45
  0
LINE
  8
0
 10
0
 20
45
 11
0
 21
37.5
  0
LINE
  8
0
 10
0
 20
37.5
 11
-2.50008
 21
37.5
  0
LINE
  8
0
 10
-37.5
 20
37.5
 11
-37.5
 21
39.9998
  0
LINE
  8
0
 10
-37.5
 20
39.9998
 11
-35.0002
 21
39.9998
  0
LINE
  8
0
 10
-35.0002
 20
39.9998
 11
-35.0002
 21
37.5
  0
LINE
  8
0
 10
-35.0002
 20
37.5
 11
-37.5
 21
37.5
  0
LINE
  8
0
 10
-22.5
 20
37.5
 11
-22.5
 21
39.9998
  0
LINE
  8
0
 10
-22.5
 20
39.9998
 11
-20.0002
 21
39.9998
  0
LINE
  8
0
 10
-20.0002
 20
39.9998
 11
-20.0002
 21
37.5
  0
LINE
  8
0
 10
-20.0002
 20
37.5
 11
-22.5
 21
37.5
  0
LINE
  8
0
 10
-7.5
 20
37.5
 11
-7.5
 21
39.9998
  0
LINE
  8
0
 10
-7.5
 20
39.9998
 11
-5.00015
 21
39.9998
  0
LINE
  8
0
 10
-5.00015
 20
39.9998
 11
-5.00015
 21
37.5
  0
LINE
  8
0
 10
-5.00015
 20
37.5
 11
-7.5
 21
37.5
  0
LINE
  8
0
 10
7.5
 20
37.5
 11
7.5
 21
39.9998
  0
LINE
  8
0
 10
7.5
 20
39.9998
 11
9.99985
 21
39.9998
  0
LINE
  8
0
 10
9.99985
 20
39.9998
 11
9.99985
 21
37.5
  0
LINE
  8
0
 10
9.99985
 20
37.5
 11
7.5
 21
37.5
  0
LINE
  8
0
 10
37.5
 20
37.5
 11
37.5
 21
39.9998
  0
LINE
  8
0
 10
37.5
 20
39.9998
 11
39.9998
 21
39.9998
  0
LINE
  8
0
 10
39.9998
 20
39.9998
 11
39.9998
 21
37.5
  0
LINE
  8
0
 10
39.9998
 20
37.5
 11
37.5
 21
37.5
  0
LINE
  8
0
 10
22.5
 20
37.5
 11
22.5
 21
39.9998
  0
LINE
  8
0
 10
22.5
 20
39.9998
 11
24.9998
 21
39.9998
  0
LINE
  8
0
 10
24.9998
 20
39.9998
 11
24.9998
 21
37.5
  0
LINE
  8
0
 10
24.9998
 20
37.5
 11
22.5
 21
37.5
  0
LINE
  8
0
 10
-50.198
 20
37.5
 11
-50.0002
 21
38.1088
  0
LINE
  8
0
 10
-50.0002
 20
38.1088
 11
-50.0002
 21
37.5
  0
LINE
  8
0
 10
-50.0002
 20
37.5
 11
-50.198
 21
37.5
  0
LINE
  8
0
 10
2.49985
 20
22.5
 11
2.49985
 21
32.4998
  0
LINE
  8
0
 10
2.49985
 20
32.4998
 11
-7.5
 21
32.4998
  0
LINE
  8
0
 10
-7.5
 20
32.4998
 11
-7.5
 21
34.9999
  0
LINE
  8
0
 10
-7.5
 20
34.9999
 11
4.99992
 21
34.9999
  0
LINE
  8
0
 10
4.99992
 20
34.9999
 11
4.99992
 21
22.5
  0
LINE
  8
0
 10
4.99992
 20
22.5
 11
2.49985
 21
22.5
  0
LINE
  8
0
 10
-27.5002
 20
22.5
 11
-27.5002
 21
32.4998
  0
LINE
  8
0
 10
-27.5002
 20
32.4998
 11
-37.5
 21
32.4998
  0
LINE
  8
0
 10
-37.5
 20
32.4998
 11
-37.5
 21
34.9999
  0
LINE
  8
0
 10
-37.5
 20
34.9999
 11
-25.0001
 21
34.9999
  0
LINE
  8
0
 10
-25.0001
 20
34.9999
 11
-25.0001
 21
22.5
  0
LINE
  8
0
 10
-25.0001
 20
22.5
 11
-27.5002
 21
22.5
  0
LINE
  8
0
 10
-12.5002
 20
22.5
 11
-12.5002
 21
32.4998
  0
LINE
  8
0
 10
-12.5002
 20
32.4998
 11
-22.5
 21
32.4998
  0
LINE
  8
0
 10
-22.5
 20
32.4998
 11
-22.5
 21
34.9999
  0
LINE
  8
0
 10
-22.5
 20
34.9999
 11
-10.0001
 21
34.9999
  0
LINE
  8
0
 10
-10.0001
 20
34.9999
 11
-10.0001
 21
22.5
  0
LINE
  8
0
 10
-10.0001
 20
22.5
 11
-12.5002
 21
22.5
  0
LINE
  8
0
 10
-42.5002
 20
22.5
 11
-42.5002
 21
32.4998
  0
LINE
  8
0
 10
-42.5002
 20
32.4998
 11
-51.8226
 21
32.4998
  0
LINE
  8
0
 10
-51.8226
 20
32.4998
 11
-51.0103
 21
34.9999
  0
LINE
  8
0
 10
-51.0103
 20
34.9999
 11
-40.0001
 21
34.9999
  0
LINE
  8
0
 10
-40.0001
 20
34.9999
 11
-40.0001
 21
22.5
  0
LINE
  8
0
 10
-40.0001
 20
22.5
 11
-42.5002
 21
22.5
  0
LINE
  8
0
 10
32.4998
 20
22.5
 11
32.4998
 21
32.4998
  0
LINE
  8
0
 10
32.4998
 20
32.4998
 11
22.5
 21
32.4998
  0
LINE
  8
0
 10
22.5
 20
32.4998
 11
22.5
 21
34.9999
  0
LINE
  8
0
 10
22.5
 20
34.9999
 11
34.9999
 21
34.9999
  0
LINE
  8
0
 10
34.9999
 20
34.9999
 11
34.9999
 21
22.5
  0
LINE
  8
0
 10
34.9999
 20
22.5
 11
32.4998
 21
22.5
  0
LINE
  8
0
 10
47.4998
 20
22.5
 11
47.4998
 21
32.4998
  0
LINE
  8
0
 10
47.4998
 20
32.4998
 11
37.5
 21
32.4998
  0
LINE
  8
0
 10
37.5
 20
32.4998
 11
37.5
 21
34.9999
  0
LINE
  8
0
 10
37.5
 20
34.9999
 11
49.9999
 21
34.9999
  0
LINE
  8
0
 10
49.9999
 20
34.9999
 11
49.9999
 21
22.5
  0
LINE
  8
0
 10
49.9999
 20
22.5
 11
47.4998
 21
22.5
  0
LINE
  8
0
 10
17.4998
 20
22.5
 11
17.4998
 21
32.4998
  0
LINE
  8
0
 10
17.4998
 20
32.4998
 11
7.5
 21
32.4998
  0
LINE
  8
0
 10
7.5
 20
32.4998
 11
7.5
 21
34.9999
  0
LINE
  8
0
 10
7.5
 20
34.9999
 11
19.9999
 21
34.9999
  0
LINE
  8
0
 10
19.9999
 20
34.9999
 11
19.9999
 21
22.5
  0
LINE
  8
0
 10
19.9999
 20
22.5
 11
17.4998
 21
22.5
  0
LINE
  8
0
 10
-17.5001
 20
22.5
 11
-17.5001
 21
27.4999
  0
LINE
  8
0
 10
-17.5001
 20
27.4999
 11
-22.5
 21
27.4999
  0
LINE
  8
0
 10
-22.5
 20
27.4999
 11
-22.5
 21
30
  0
LINE
  8
0
 10
-22.5
 20
30
 11
-15
 21
30
  0
LINE
  8
0
 10
-15
 20
30
 11
-15
 21
22.5
  0
LINE
  8
0
 10
-15
 20
22.5
 11
-17.5001
 21
22.5
  0
LINE
  8
0
 10
27.4999
 20
22.5
 11
27.4999
 21
27.4999
  0
LINE
  8
0
 10
27.4999
 20
27.4999
 11
22.5
 21
27.4999
  0
LINE
  8
0
 10
22.5
 20
27.4999
 11
22.5
 21
30
  0
LINE
  8
0
 10
22.5
 20
30
 11
30
 21
30
  0
LINE
  8
0
 10
30
 20
30
 11
30
 21
22.5
  0
LINE
  8
0
 10
30
 20
22.5
 11
27.4999
 21
22.5
  0
LINE
  8
0
 10
-32.5001
 20
22.5
 11
-32.5001
 21
27.4999
  0
LINE
  8
0
 10
-32.5001
 20
27.4999
 11
-37.5
 21
27.4999
  0
LINE
  8
0
 10
-37.5
 20
27.4999
 11
-37.5
 21
30
  0
LINE
  8
0
 10
-37.5
 20
30
 11
-30
 21
30
  0
LINE
  8
0
 10
-30
 20
30
 11
-30
 21
22.5
  0
LINE
  8
0
 10
-30
 20
22.5
 11
-32.5001
 21
22.5
  0
LINE
  8
0
 10
-2.50008
 20
22.5
 11
-2.50008
 21
27.4999
  0
LINE
  8
0
 10
-2.50008
 20
27.4999
 11
-7.5
 21
27.4999
  0
LINE
  8
0
 10
-7.5
 20
27.4999
 11
-7.5
 21
30
  0
LINE
  8
0
 10
-7.5
 20
30
 11
0
 21
30
  0
LINE
  8
0
 10
0
 20
30
 11
0
 21
22.5
  0
LINE
  8
0
 10
0
 20
22.5
 11
-2.50008
 21
22.5
  0
LINE
  8
0
 10
-47.5001
 20
22.5
 11
-47.5001
 21
27.4999
  0
LINE
  8
0
 10
-47.5001
 20
27.4999
 11
-52.5
 21
27.4999
  0
LINE
  8
0
 10
-52.5
 20
27.4999
 11
-52.5
 21
30
  0
LINE
  8
0
 10
-52.5
 20
30
 11
-45
 21
30
  0
LINE
  8
0
 10
-45
 20
30
 11
-45
 21
22.5
  0
LINE
  8
0
 10
-45
 20
22.5
 11
-47.5001
 21
22.5
  0
LINE
  8
0
 10
12.4999
 20
22.5
 11
12.4999
 21
27.4999
  0
LINE
  8
0
 10
12.4999
 20
27.4999
 11
7.5
 21
27.4999
  0
LINE
  8
0
 10
7.5
 20
27.4999
 11
7.5
 21
30
  0
LINE
  8
0
 10
7.5
 20
30
 11
15
 21
30
  0
LINE
  8
0
 10
15
 20
30
 11
15
 21
22.5
  0
LINE
  8
0
 10
15
 20
22.5
 11
12.4999
 21
22.5
  0
LINE
  8
0
 10
42.4999
 20
22.5
 11
42.4999
 21
27.4999
  0
LINE
  8
0
 10
42.4999
 20
27.4999
 11
37.5
 21
27.4999
  0
LINE
  8
0
 10
37.5
 20
27.4999
 11
37.5
 21
30
  0
LINE
  8
0
 10
37.5
 20
30
 11
45
 21
30
  0
LINE
  8
0
 10
45
 20
30
 11
45
 21
22.5
  0
LINE
  8
0
 10
45
 20
22.5
 11
42.4999
 21
22.5
  0
LINE
  8
0
 10
52.5
 20
27.4999
 11
52.5
 21
30
  0
LINE
  8
0
 10
52.5
 20
30
 11
52.6349
 21
30
  0
LINE
  8
0
 10
52.6349
 20
30
 11
53.4472
 21
27.4999
  0
LINE
  8
0
 10
53.4472
 20
27.4999
 11
52.5
 21
27.4999
  0
LINE
  8
0
 10
7.5
 20
22.5
 11
7.5
 21
24.9998
  0
LINE
  8
0
 10
7.5
 20
24.9998
 11
9.99985
 21
24.9998
  0
LINE
  8
0
 10
9.99985
 20
24.9998
 11
9.99985
 21
22.5
  0
LINE
  8
0
 10
9.99985
 20
22.5
 11
7.5
 21
22.5
  0
LINE
  8
0
 10
-22.5
 20
22.5
 11
-22.5
 21
24.9998
  0
LINE
  8
0
 10
-22.5
 20
24.9998
 11
-20.0002
 21
24.9998
  0
LINE
  8
0
 10
-20.0002
 20
24.9998
 11
-20.0002
 21
22.5
  0
LINE
  8
0
 10
-20.0002
 20
22.5
 11
-22.5
 21
22.5
  0
LINE
  8
0
 10
-7.5
 20
22.5
 11
-7.5
 21
24.9998
  0
LINE
  8
0
 10
-7.5
 20
24.9998
 11
-5.00015
 21
24.9998
  0
LINE
  8
0
 10
-5.00015
 20
24.9998
 11
-5.00015
 21
22.5
  0
LINE
  8
0
 10
-5.00015
 20
22.5
 11
-7.5
 21
22.5
  0
LINE
  8
0
 10
-37.5
 20
22.5
 11
-37.5
 21
24.9998
  0
LINE
  8
0
 10
-37.5
 20
24.9998
 11
-35.0002
 21
24.9998
  0
LINE
  8
0
 10
-35.0002
 20
24.9998
 11
-35.0002
 21
22.5
  0
LINE
  8
0
 10
-35.0002
 20
22.5
 11
-37.5
 21
22.5
  0
LINE
  8
0
 10
-52.5
 20
22.5
 11
-52.5
 21
24.9998
  0
LINE
  8
0
 10
-52.5
 20
24.9998
 11
-50.0002
 21
24.9998
  0
LINE
  8
0
 10
-50.0002
 20
24.9998
 11
-50.0002
 21
22.5
  0
LINE
  8
0
 10
-50.0002
 20
22.5
 11
-52.5
 21
22.5
  0
LINE
  8
0
 10
52.5
 20
22.5
 11
52.5
 21
24.9998
  0
LINE
  8
0
 10
52.5
 20
24.9998
 11
54.2595
 21
24.9998
  0
LINE
  8
0
 10
54.2595
 20
24.9998
 11
54.9998
 21
22.7213
  0
LINE
  8
0
 10
54.9998
 20
22.7213
 11
54.9998
 21
22.5
  0
LINE
  8
0
 10
54.9998
 20
22.5
 11
52.5
 21
22.5
  0
LINE
  8
0
 10
37.5
 20
22.5
 11
37.5
 21
24.9998
  0
LINE
  8
0
 10
37.5
 20
24.9998
 11
39.9998
 21
24.9998
  0
LINE
  8
0
 10
39.9998
 20
24.9998
 11
39.9998
 21
22.5
  0
LINE
  8
0
 10
39.9998
 20
22.5
 11
37.5
 21
22.5
  0
LINE
  8
0
 10
22.5
 20
22.5
 11
22.5
 21
24.9998
  0
LINE
  8
0
 10
22.5
 20
24.9998
 11
24.9998
 21
24.9998
  0
LINE
  8
0
 10
24.9998
 20
24.9998
 11
24.9998
 21
22.5
  0
LINE
  8
0
 10
24.9998
 20
22.5
 11
22.5
 21
22.5
  0
LINE
  8
0
 10
-55.0718
 20
22.5
 11
-55.0001
 21
22.7206
  0
LINE
  8
0
 10
-55.0001
 20
22.7206
 11
-55.0001
 21
22.5
  0
LINE
  8
0
 10
-55.0001
 20
22.5
 11
-55.0718
 21
22.5
  0
LINE
  8
0
 10
-12.5002
 20
12
 11
-12.5002
 21
17.4998
  0
LINE
  8
0
 10
-12.5002
 20
17.4998
 11
-22.5
 21
17.4998
  0
LINE
  8
0
 10
-22.5
 20
17.4998
 11
-22.5
 21
19.9999
  0
LINE
  8
0
 10
-22.5
 20
19.9999
 11
-10.0001
 21
19.9999
  0
LINE
  8
0
 10
-10.0001
 20
19.9999
 11
-10.0001
 21
12
  0
LINE
  8
0
 10
-10.0001
 20
12
 11
-12.5002
 21
12
  0
LINE
  8
0
 10
2.49985
 20
12
 11
2.49985
 21
17.4998
  0
LINE
  8
0
 10
2.49985
 20
17.4998
 11
-7.5
 21
17.4998
  0
LINE
  8
0
 10
-7.5
 20
17.4998
 11
-7.5
 21
19.9999
  0
LINE
  8
0
 10
-7.5
 20
19.9999
 11
4.99992
 21
19.9999
  0
LINE
  8
0
 10
4.99992
 20
19.9999
 11
4.99992
 21
12
  0
LINE
  8
0
 10
4.99992
 20
12
 11
2.49985
 21
12
  0
LINE
  8
0
 10
17.4998
 20
12
 11
17.4998
 21
17.4998
  0
LINE
  8
0
 10
17.4998
 20
17.4998
 11
7.5
 21
17.4998
  0
LINE
  8
0
 10
7.5
 20
17.4998
 11
7.5
 21
19.9999
  0
LINE
  8
0
 10
7.5
 20
19.9999
 11
19.9999
 21
19.9999
  0
LINE
  8
0
 10
19.9999
 20
19.9999
 11
19.9999
 21
12
  0
LINE
  8
0
 10
19.9999
 20
12
 11
17.4998
 21
12
  0
LINE
  8
0
 10
52.5
 20
17.4998
 11
52.5
 21
19.9999
  0
LINE
  8
0
 10
52.5
 20
19.9999
 11
55.8841
 21
19.9999
  0
LINE
  8
0
 10
55.8841
 20
19.9999
 11
56.6964
 21
17.4998
  0
LINE
  8
0
 10
56.6964
 20
17.4998
 11
52.5
 21
17.4998
  0
LINE
  8
0
 10
47.4998
 20
12
 11
47.4998
 21
17.4998
  0
LINE
  8
0
 10
47.4998
 20
17.4998
 11
37.5
 21
17.4998
  0
LINE
  8
0
 10
37.5
 20
17.4998
 11
37.5
 21
19.9999
  0
LINE
  8
0
 10
37.5
 20
19.9999
 11
49.9999
 21
19.9999
  0
LINE
  8
0
 10
49.9999
 20
19.9999
 11
49.9999
 21
12
  0
LINE
  8
0
 10
49.9999
 20
12
 11
47.4998
 21
12
  0
LINE
  8
0
 10
-42.5002
 20
12
 11
-42.5002
 21
17.4998
  0
LINE
  8
0
 10
-42.5002
 20
17.4998
 11
-52.5
 21
17.4998
  0
LINE
  8
0
 10
-52.5
 20
17.4998
 11
-52.5
 21
19.9999
  0
LINE
  8
0
 10
-52.5
 20
19.9999
 11
-40.0001
 21
19.9999
  0
LINE
  8
0
 10
-40.0001
 20
19.9999
 11
-40.0001
 21
12
  0
LINE
  8
0
 10
-40.0001
 20
12
 11
-42.5002
 21
12
  0
LINE
  8
0
 10
-57.5002
 20
12
 11
-57.5002
 21
15.0262
  0
LINE
  8
0
 10
-57.5002
 20
15.0262
 11
-55.8841
 21
19.9999
  0
LINE
  8
0
 10
-55.8841
 20
19.9999
 11
-55.0001
 21
19.9999
  0
LINE
  8
0
 10
-55.0001
 20
19.9999
 11
-55.0001
 21
12
  0
LINE
  8
0
 10
-55.0001
 20
12
 11
-57.5002
 21
12
  0
LINE
  8
0
 10
32.4998
 20
12
 11
32.4998
 21
17.4998
  0
LINE
  8
0
 10
32.4998
 20
17.4998
 11
22.5
 21
17.4998
  0
LINE
  8
0
 10
22.5
 20
17.4998
 11
22.5
 21
19.9999
  0
LINE
  8
0
 10
22.5
 20
19.9999
 11
34.9999
 21
19.9999
  0
LINE
  8
0
 10
34.9999
 20
19.9999
 11
34.9999
 21
12
  0
LINE
  8
0
 10
34.9999
 20
12
 11
32.4998
 21
12
  0
LINE
  8
0
 10
-27.5002
 20
12
 11
-27.5002
 21
17.4998
  0
LINE
  8
0
 10
-27.5002
 20
17.4998
 11
-37.5
 21
17.4998
  0
LINE
  8
0
 10
-37.5
 20
17.4998
 11
-37.5
 21
19.9999
  0
LINE
  8
0
 10
-37.5
 20
19.9999
 11
-25.0001
 21
19.9999
  0
LINE
  8
0
 10
-25.0001
 20
19.9999
 11
-25.0001
 21
12
  0
LINE
  8
0
 10
-25.0001
 20
12
 11
-27.5002
 21
12
  0
LINE
  8
0
 10
-17.5001
 20
12
 11
-17.5001
 21
12.4999
  0
LINE
  8
0
 10
-17.5001
 20
12.4999
 11
-22.5
 21
12.4999
  0
LINE
  8
0
 10
-22.5
 20
12.4999
 11
-22.5
 21
15
  0
LINE
  8
0
 10
-22.5
 20
15
 11
-15
 21
15
  0
LINE
  8
0
 10
-15
 20
15
 11
-15
 21
12
  0
LINE
  8
0
 10
-15
 20
12
 11
-17.5001
 21
12
  0
LINE
  8
0
 10
27.4999
 20
12
 11
27.4999
 21
12.4999
  0
LINE
  8
0
 10
27.4999
 20
12.4999
 11
22.5
 21
12.4999
  0
LINE
  8
0
 10
22.5
 20
12.4999
 11
22.5
 21
15
  0
LINE
  8
0
 10
22.5
 20
15
 11
30
 21
15
  0
LINE
  8
0
 10
30
 20
15
 11
30
 21
12
  0
LINE
  8
0
 10
30
 20
12
 11
27.4999
 21
12
  0
LINE
  8
0
 10
12.4999
 20
12
 11
12.4999
 21
12.4999
  0
LINE
  8
0
 10
12.4999
 20
12.4999
 11
7.5
 21
12.4999
  0
LINE
  8
0
 10
7.5
 20
12.4999
 11
7.5
 21
15
  0
LINE
  8
0
 10
7.5
 20
15
 11
15
 21
15
  0
LINE
  8
0
 10
15
 20
15
 11
15
 21
12
  0
LINE
  8
0
 10
15
 20
12
 11
12.4999
 21
12
  0
LINE
  8
0
 10
42.4999
 20
12
 11
42.4999
 21
12.4999
  0
LINE
  8
0
 10
42.4999
 20
12.4999
 11
37.5
 21
12.4999
  0
LINE
  8
0
 10
37.5
 20
12.4999
 11
37.5
 21
15
  0
LINE
  8
0
 10
37.5
 20
15
 11
45
 21
15
  0
LINE
  8
0
 10
45
 20
15
 11
45
 21
12
  0
LINE
  8
0
 10
45
 20
12
 11
42.4999
 21
12
  0
LINE
  8
0
 10
57.4999
 20
12
 11
57.4999
 21
12.4999
  0
LINE
  8
0
 10
57.4999
 20
12.4999
 11
52.5
 21
12.4999
  0
LINE
  8
0
 10
52.5
 20
12.4999
 11
52.5
 21
15
  0
LINE
  8
0
 10
52.5
 20
15
 11
57.5087
 21
15
  0
LINE
  8
0
 10
57.5087
 20
15
 11
58.4834
 21
12
  0
LINE
  8
0
 10
58.4834
 20
12
 11
57.4999
 21
12
  0
LINE
  8
0
 10
-2.50008
 20
12
 11
-2.50008
 21
12.4999
  0
LINE
  8
0
 10
-2.50008
 20
12.4999
 11
-7.5
 21
12.4999
  0
LINE
  8
0
 10
-7.5
 20
12.4999
 11
-7.5
 21
15
  0
LINE
  8
0
 10
-7.5
 20
15
 11
0
 21
15
  0
LINE
  8
0
 10
0
 20
15
 11
0
 21
12
  0
LINE
  8
0
 10
0
 20
12
 11
-2.50008
 21
12
  0
LINE
  8
0
 10
-47.5001
 20
12
 11
-47.5001
 21
12.4999
  0
LINE
  8
0
 10
-47.5001
 20
12.4999
 11
-52.5
 21
12.4999
  0
LINE
  8
0
 10
-52.5
 20
12.4999
 11
-52.5
 21
15
  0
LINE
  8
0
 10
-52.5
 20
15
 11
-45
 21
15
  0
LINE
  8
0
 10
-45
 20
15
 11
-45
 21
12
  0
LINE
  8
0
 10
-45
 20
12
 11
-47.5001
 21
12
  0
LINE
  8
0
 10
-32.5001
 20
12
 11
-32.5001
 21
12.4999
  0
LINE
  8
0
 10
-32.5001
 20
12.4999
 11
-37.5
 21
12.4999
  0
LINE
  8
0
 10
-37.5
 20
12.4999
 11
-37.5
 21
15
  0
LINE
  8
0
 10
-37.5
 20
15
 11
-30
 21
15
  0
LINE
  8
0
 10
-30
 20
15
 11
-30
 21
12
  0
LINE
  8
0
 10
-30
 20
12
 11
-32.5001
 21
12
  0
LINE
  8
0
 10
-10
 20
7
 11
-10
 21
11
  0
LINE
  8
0
 10
-10
 20
11
 11
10
 21
11
  0
LINE
  8
0
 10
10
 20
11
 11
10
 21
7
  0
LINE
  8
0
 10
10
 20
7
 11
-10
 21
7
  0
LINE
  8
0
 10
-68.6534
 20
2.70622
 11
-68.7785
 21
2.71805
  0
LINE
  8
0
 10
-68.7785
 20
2.71805
 11
-68.9026
 21
2.7377
  0
LINE
  8
0
 10
-68.9026
 20
2.7377
 11
-69.0252
 21
2.76511
  0
LINE
  8
0
 10
-69.0252
 20
2.76511
 11
-69.1459
 21
2.80016
  0
LINE
  8
0
 10
-69.1459
 20
2.80016
 11
-69.2641
 21
2.84273
  0
LINE
  8
0
 10
-69.2641
 20
2.84273
 11
-69.3794
 21
2.89262
  0
LINE
  8
0
 10
-69.3794
 20
2.89262
 11
-69.4914
 21
2.94966
  0
LINE
  8
0
 10
-69.4914
 20
2.94966
 11
-69.5995
 21
3.01363
  0
LINE
  8
0
 10
-69.5995
 20
3.01363
 11
-69.7034
 21
3.08424
  0
LINE
  8
0
 10
-69.7034
 20
3.08424
 11
-69.8027
 21
3.16125
  0
LINE
  8
0
 10
-69.8027
 20
3.16125
 11
-69.897
 21
3.24434
  0
LINE
  8
0
 10
-69.897
 20
3.24434
 11
-69.9858
 21
3.33318
  0
LINE
  8
0
 10
-69.9858
 20
3.33318
 11
-70.0689
 21
3.42743
  0
LINE
  8
0
 10
-70.0689
 20
3.42743
 11
-70.1459
 21
3.5267
  0
LINE
  8
0
 10
-70.1459
 20
3.5267
 11
-70.2165
 21
3.63062
  0
LINE
  8
0
 10
-70.2165
 20
3.63062
 11
-70.2805
 21
3.73877
  0
LINE
  8
0
 10
-70.2805
 20
3.73877
 11
-70.3375
 21
3.85072
  0
LINE
  8
0
 10
-70.3375
 20
3.85072
 11
-70.3874
 21
3.96602
  0
LINE
  8
0
 10
-70.3874
 20
3.96602
 11
-70.43
 21
4.08424
  0
LINE
  8
0
 10
-70.43
 20
4.08424
 11
-70.465
 21
4.2049
  0
LINE
  8
0
 10
-70.465
 20
4.2049
 11
-70.4924
 21
4.32751
  0
LINE
  8
0
 10
-70.4924
 20
4.32751
 11
-70.5121
 21
4.45161
  0
LINE
  8
0
 10
-70.5121
 20
4.45161
 11
-70.5239
 21
4.57669
  0
LINE
  8
0
 10
-70.5239
 20
4.57669
 11
-70.5279
 21
4.70227
  0
LINE
  8
0
 10
-70.5279
 20
4.70227
 11
-70.5239
 21
4.82785
  0
LINE
  8
0
 10
-70.5239
 20
4.82785
 11
-70.5121
 21
4.95294
  0
LINE
  8
0
 10
-70.5121
 20
4.95294
 11
-70.4924
 21
5.07704
  0
LINE
  8
0
 10
-70.4924
 20
5.07704
 11
-70.465
 21
5.19966
  0
LINE
  8
0
 10
-70.465
 20
5.19966
 11
-70.43
 21
5.32031
  0
LINE
  8
0
 10
-70.43
 20
5.32031
 11
-70.3874
 21
5.43852
  0
LINE
  8
0
 10
-70.3874
 20
5.43852
 11
-70.3375
 21
5.55383
  0
LINE
  8
0
 10
-70.3375
 20
5.55383
 11
-70.2805
 21
5.66579
  0
LINE
  8
0
 10
-70.2805
 20
5.66579
 11
-70.2165
 21
5.77393
  0
LINE
  8
0
 10
-70.2165
 20
5.77393
 11
-70.1459
 21
5.87784
  0
LINE
  8
0
 10
-70.1459
 20
5.87784
 11
-70.0689
 21
5.97713
  0
LINE
  8
0
 10
-70.0689
 20
5.97713
 11
-69.9858
 21
6.07137
  0
LINE
  8
0
 10
-69.9858
 20
6.07137
 11
-69.897
 21
6.16022
  0
LINE
  8
0
 10
-69.897
 20
6.16022
 11
-69.8027
 21
6.2433
  0
LINE
  8
0
 10
-69.8027
 20
6.2433
 11
-69.7034
 21
6.32031
  0
LINE
  8
0
 10
-69.7034
 20
6.32031
 11
-69.5995
 21
6.39093
  0
LINE
  8
0
 10
-69.5995
 20
6.39093
 11
-69.4914
 21
6.4549
  0
LINE
  8
0
 10
-69.4914
 20
6.4549
 11
-69.3794
 21
6.51193
  0
LINE
  8
0
 10
-69.3794
 20
6.51193
 11
-69.2641
 21
6.56183
  0
LINE
  8
0
 10
-69.2641
 20
6.56183
 11
-69.1459
 21
6.60439
  0
LINE
  8
0
 10
-69.1459
 20
6.60439
 11
-69.0252
 21
6.63943
  0
LINE
  8
0
 10
-69.0252
 20
6.63943
 11
-68.9026
 21
6.66685
  0
LINE
  8
0
 10
-68.9026
 20
6.66685
 11
-68.7785
 21
6.68651
  0
LINE
  8
0
 10
-68.7785
 20
6.68651
 11
-68.6534
 21
6.69833
  0
LINE
  8
0
 10
-68.6534
 20
6.69833
 11
-68.5279
 21
6.70227
  0
LINE
  8
0
 10
-68.5279
 20
6.70227
 11
-68.4023
 21
6.69833
  0
LINE
  8
0
 10
-68.4023
 20
6.69833
 11
-68.2772
 21
6.68651
  0
LINE
  8
0
 10
-68.2772
 20
6.68651
 11
-68.1531
 21
6.66685
  0
LINE
  8
0
 10
-68.1531
 20
6.66685
 11
-68.0305
 21
6.63943
  0
LINE
  8
0
 10
-68.0305
 20
6.63943
 11
-67.9098
 21
6.60439
  0
LINE
  8
0
 10
-67.9098
 20
6.60439
 11
-67.7916
 21
6.56183
  0
LINE
  8
0
 10
-67.7916
 20
6.56183
 11
-67.6763
 21
6.51193
  0
LINE
  8
0
 10
-67.6763
 20
6.51193
 11
-67.5643
 21
6.4549
  0
LINE
  8
0
 10
-67.5643
 20
6.4549
 11
-67.4562
 21
6.39093
  0
LINE
  8
0
 10
-67.4562
 20
6.39093
 11
-67.3523
 21
6.32031
  0
LINE
  8
0
 10
-67.3523
 20
6.32031
 11
-67.253
 21
6.2433
  0
LINE
  8
0
 10
-67.253
 20
6.2433
 11
-67.1588
 21
6.16022
  0
LINE
  8
0
 10
-67.1588
 20
6.16022
 11
-67.0699
 21
6.07137
  0
LINE
  8
0
 10
-67.0699
 20
6.07137
 11
-66.9868
 21
5.97713
  0
LINE
  8
0
 10
-66.9868
 20
5.97713
 11
-66.9098
 21
5.87784
  0
LINE
  8
0
 10
-66.9098
 20
5.87784
 11
-66.8392
 21
5.77393
  0
LINE
  8
0
 10
-66.8392
 20
5.77393
 11
-66.7752
 21
5.66579
  0
LINE
  8
0
 10
-66.7752
 20
5.66579
 11
-66.7182
 21
5.55383
  0
LINE
  8
0
 10
-66.7182
 20
5.55383
 11
-66.6683
 21
5.43852
  0
LINE
  8
0
 10
-66.6683
 20
5.43852
 11
-66.6257
 21
5.32031
  0
LINE
  8
0
 10
-66.6257
 20
5.32031
 11
-66.5907
 21
5.19966
  0
LINE
  8
0
 10
-66.5907
 20
5.19966
 11
-66.5633
 21
5.07704
  0
LINE
  8
0
 10
-66.5633
 20
5.07704
 11
-66.5436
 21
4.95294
  0
LINE
  8
0
 10
-66.5436
 20
4.95294
 11
-66.5318
 21
4.82785
  0
LINE
  8
0
 10
-66.5318
 20
4.82785
 11
-66.5279
 21
4.70227
  0
LINE
  8
0
 10
-66.5279
 20
4.70227
 11
-66.5318
 21
4.57669
  0
LINE
  8
0
 10
-66.5318
 20
4.57669
 11
-66.5436
 21
4.45161
  0
LINE
  8
0
 10
-66.5436
 20
4.45161
 11
-66.5633
 21
4.32751
  0
LINE
  8
0
 10
-66.5633
 20
4.32751
 11
-66.5907
 21
4.2049
  0
LINE
  8
0
 10
-66.5907
 20
4.2049
 11
-66.6257
 21
4.08424
  0
LINE
  8
0
 10
-66.6257
 20
4.08424
 11
-66.6683
 21
3.96602
  0
LINE
  8
0
 10
-66.6683
 20
3.96602
 11
-66.7182
 21
3.85072
  0
LINE
  8
0
 10
-66.7182
 20
3.85072
 11
-66.7752
 21
3.73877
  0
LINE
  8
0
 10
-66.7752
 20
3.73877
 11
-66.8392
 21
3.63062
  0
LINE
  8
0
 10
-66.8392
 20
3.63062
 11
-66.9098
 21
3.5267
  0
LINE
  8
0
 10
-66.9098
 20
3.5267
 11
-66.9868
 21
3.42743
  0
LINE
  8
0
 10
-66.9868
 20
3.42743
 11
-67.0699
 21
3.33318
  0
LINE
  8
0
 10
-67.0699
 20
3.33318
 11
-67.1588
 21
3.24434
  0
LINE
  8
0
 10
-67.1588
 20
3.24434
 11
-67.253
 21
3.16125
  0
LINE
  8
0
 10
-67.253
 20
3.16125
 11
-67.3523
 21
3.08424
  0
LINE
  8
0
 10
-67.3523
 20
3.08424
 11
-67.4562
 21
3.01363
  0
LINE
  8
0
 10
-67.4562
 20
3.01363
 11
-67.5643
 21
2.94966
  0
LINE
  8
0
 10
-67.5643
 20
2.94966
 11
-67.6763
 21
2.89262
  0
LINE
  8
0
 10
-67.6763
 20
2.89262
 11
-67.7916
 21
2.84273
  0
LINE
  8
0
 10
-67.7916
 20
2.84273
 11
-67.9098
 21
2.80016
  0
LINE
  8
0
 10
-67.9098
 20
2.80016
 11
-68.0305
 21
2.76511
  0
LINE
  8
0
 10
-68.0305
 20
2.76511
 11
-68.1531
 21
2.7377
  0
LINE
  8
0
 10
-68.1531
 20
2.7377
 11
-68.2772
 21
2.71805
  0
LINE
  8
0
 10
-68.2772
 20
2.71805
 11
-68.4023
 21
2.70622
  0
LINE
  8
0
 10
-68.4023
 20
2.70622
 11
-68.5279
 21
2.70227
  0
LINE
  8
0
 10
-68.5279
 20
2.70227
 11
-68.6534
 21
2.70622
  0
LINE
  8
0
 10
68.4023
 20
2.70622
 11
68.2772
 21
2.71805
  0
LINE
  8
0
 10
68.2772
 20
2.71805
 11
68.1531
 21
2.7377
  0
LINE
  8
0
 10
68.1531
 20
2.7377
 11
68.0305
 21
2.76511
  0
LINE
  8
0
 10
68.0305
 20
2.76511
 11
67.9098
 21
2.80016
  0
LINE
  8
0
 10
67.9098
 20
2.80016
 11
67.7916
 21
2.84273
  0
LINE
  8
0
 10
67.7916
 20
2.84273
 11
67.6763
 21
2.89262
  0
LINE
  8
0
 10
67.6763
 20
2.89262
 11
67.5643
 21
2.94966
  0
LINE
  8
0
 10
67.5643
 20
2.94966
 11
67.4562
 21
3.01363
  0
LINE
  8
0
 10
67.4562
 20
3.01363
 11
67.3523
 21
3.08424
  0
LINE
  8
0
 10
67.3523
 20
3.08424
 11
67.253
 21
3.16125
  0
LINE
  8
0
 10
67.253
 20
3.16125
 11
67.1588
 21
3.24434
  0
LINE
  8
0
 10
67.1588
 20
3.24434
 11
67.0699
 21
3.33318
  0
LINE
  8
0
 10
67.0699
 20
3.33318
 11
66.9868
 21
3.42743
  0
LINE
  8
0
 10
66.9868
 20
3.42743
 11
66.9098
 21
3.5267
  0
LINE
  8
0
 10
66.9098
 20
3.5267
 11
66.8392
 21
3.63062
  0
LINE
  8
0
 10
66.8392
 20
3.63062
 11
66.7752
 21
3.73877
  0
LINE
  8
0
 10
66.7752
 20
3.73877
 11
66.7182
 21
3.85072
  0
LINE
  8
0
 10
66.7182
 20
3.85072
 11
66.6683
 21
3.96602
  0
LINE
  8
0
 10
66.6683
 20
3.96602
 11
66.6257
 21
4.08424
  0
LINE
  8
0
 10
66.6257
 20
4.08424
 11
66.5907
 21
4.2049
  0
LINE
  8
0
 10
66.5907
 20
4.2049
 11
66.5633
 21
4.32751
  0
LINE
  8
0
 10
66.5633
 20
4.32751
 11
66.5436
 21
4.45161
  0
LINE
  8
0
 10
66.5436
 20
4.45161
 11
66.5318
 21
4.57669
  0
LINE
  8
0
 10
66.5318
 20
4.57669
 11
66.5279
 21
4.70227
  0
LINE
  8
0
 10
66.5279
 20
4.70227
 11
66.5318
 21
4.82785
  0
LINE
  8
0
 10
66.5318
 20
4.82785
 11
66.5436
 21
4.95294
  0
LINE
  8
0
 10
66.5436
 20
4.95294
 11
66.5633
 21
5.07704
  0
LINE
  8
0
 10
66.5633
 20
5.07704
 11
66.5907
 21
5.19966
  0
LINE
  8
0
 10
66.5907
 20
5.19966
 11
66.6257
 21
5.32031
  0
LINE
  8
0
 10
66.6257
 20
5.32031
 11
66.6683
 21
5.43852
  0
LINE
  8
0
 10
66.6683
 20
5.43852
 11
66.7182
 21
5.55383
  0
LINE
  8
0
 10
66.7182
 20
5.55383
 11
66.7752
 21
5.66579
  0
LINE
  8
0
 10
66.7752
 20
5.66579
 11
66.8392
 21
5.77393
  0
LINE
  8
0
 10
66.8392
 20
5.77393
 11
66.9098
 21
5.87784
  0
LINE
  8
0
 10
66.9098
 20
5.87784
 11
66.9868
 21
5.97713
  0
LINE
  8
0
 10
66.9868
 20
5.97713
 11
67.0699
 21
6.07137
  0
LINE
  8
0
 10
67.0699
 20
6.07137
 11
67.1588
 21
6.16022
  0
LINE
  8
0
 10
67.1588
 20
6.16022
 11
67.253
 21
6.2433
  0
LINE
  8
0
 10
67.253
 20
6.2433
 11
67.3523
 21
6.32031
  0
LINE
  8
0
 10
67.3523
 20
6.32031
 11
67.4562
 21
6.39093
  0
LINE
  8
0
 10
67.4562
 20
6.39093
 11
67.5643
 21
6.4549
  0
LINE
  8
0
 10
67.5643
 20
6.4549
 11
67.6763
 21
6.51193
  0
LINE
  8
0
 10
67.6763
 20
6.51193
 11
67.7916
 21
6.56183
  0
LINE
  8
0
 10
67.7916
 20
6.56183
 11
67.9098
 21
6.60439
  0
LINE
  8
0
 10
67.9098
 20
6.60439
 11
68.0305
 21
6.63943
  0
LINE
  8
0
 10
68.0305
 20
6.63943
 11
68.1531
 21
6.66685
  0
LINE
  8
0
 10
68.1531
 20
6.66685
 11
68.2772
 21
6.68651
  0
LINE
  8
0
 10
68.2772
 20
6.68651
 11
68.4023
 21
6.69833
  0
LINE
  8
0
 10
68.4023
 20
6.69833
 11
68.5279
 21
6.70227
  0
LINE
  8
0
 10
68.5279
 20
6.70227
 11
68.6534
 21
6.69833
  0
LINE
  8
0
 10
68.6534
 20
6.69833
 11
68.7785
 21
6.68651
  0
LINE
  8
0
 10
68.7785
 20
6.68651
 11
68.9026
 21
6.66685
  0
LINE
  8
0
 10
68.9026
 20
6.66685
 11
69.0252
 21
6.63943
  0
LINE
  8
0
 10
69.0252
 20
6.63943
 11
69.1459
 21
6.60439
  0
LINE
  8
0
 10
69.1459
 20
6.60439
 11
69.2641
 21
6.56183
  0
LINE
  8
0
 10
69.2641
 20
6.56183
 11
69.3794
 21
6.51193
  0
LINE
  8
0
 10
69.3794
 20
6.51193
 11
69.4914
 21
6.4549
  0
LINE
  8
0
 10
69.4914
 20
6.4549
 11
69.5995
 21
6.39093
  0
LINE
  8
0
 10
69.5995
 20
6.39093
 11
69.7034
 21
6.32031
  0
LINE
  8
0
 10
69.7034
 20
6.32031
 11
69.8027
 21
6.2433
  0
LINE
  8
0
 10
69.8027
 20
6.2433
 11
69.897
 21
6.16022
  0
LINE
  8
0
 10
69.897
 20
6.16022
 11
69.9858
 21
6.07137
  0
LINE
  8
0
 10
69.9858
 20
6.07137
 11
70.0689
 21
5.97713
  0
LINE
  8
0
 10
70.0689
 20
5.97713
 11
70.1459
 21
5.87784
  0
LINE
  8
0
 10
70.1459
 20
5.87784
 11
70.2165
 21
5.77393
  0
LINE
  8
0
 10
70.2165
 20
5.77393
 11
70.2805
 21
5.66579
  0
LINE
  8
0
 10
70.2805
 20
5.66579
 11
70.3375
 21
5.55383
  0
LINE
  8
0
 10
70.3375
 20
5.55383
 11
70.3874
 21
5.43852
  0
LINE
  8
0
 10
70.3874
 20
5.43852
 11
70.43
 21
5.32031
  0
LINE
  8
0
 10
70.43
 20
5.32031
 11
70.465
 21
5.19966
  0
LINE
  8
0
 10
70.465
 20
5.19966
 11
70.4924
 21
5.07704
  0
LINE
  8
0
 10
70.4924
 20
5.07704
 11
70.5121
 21
4.95294
  0
LINE
  8
0
 10
70.5121
 20
4.95294
 11
70.5239
 21
4.82785
  0
LINE
  8
0
 10
70.5239
 20
4.82785
 11
70.5279
 21
4.70227
  0
LINE
  8
0
 10
70.5279
 20
4.70227
 11
70.5239
 21
4.57669
  0
LINE
  8
0
 10
70.5239
 20
4.57669
 11
70.5121
 21
4.45161
  0
LINE
  8
0
 10
70.5121
 20
4.45161
 11
70.4924
 21
4.32751
  0
LINE
  8
0
 10
70.4924
 20
4.32751
 11
70.465
 21
4.2049
  0
LINE
  8
0
 10
70.465
 20
4.2049
 11
70.43
 21
4.08424
  0
LINE
  8
0
 10
70.43
 20
4.08424
 11
70.3874
 21
3.96602
  0
LINE
  8
0
 10
70.3874
 20
3.96602
 11
70.3375
 21
3.85072
  0
LINE
  8
0
 10
70.3375
 20
3.85072
 11
70.2805
 21
3.73877
  0
LINE
  8
0
 10
70.2805
 20
3.73877
 11
70.2165
 21
3.63062
  0
LINE
  8
0
 10
70.2165
 20
3.63062
 11
70.1459
 21
3.5267
  0
LINE
  8
0
 10
70.1459
 20
3.5267
 11
70.0689
 21
3.42743
  0
LINE
  8
0
 10
70.0689
 20
3.42743
 11
69.9858
 21
3.33318
  0
LINE
  8
0
 10
69.9858
 20
3.33318
 11
69.897
 21
3.24434
  0
LINE
  8
0
 10
69.897
 20
3.24434
 11
69.8027
 21
3.16125
  0
LINE
  8
0
 10
69.8027
 20
3.16125
 11
69.7034
 21
3.08424
  0
LINE
  8
0
 10
69.7034
 20
3.08424
 11
69.5995
 21
3.01363
  0
LINE
  8
0
 10
69.5995
 20
3.01363
 11
69.4914
 21
2.94966
  0
LINE
  8
0
 10
69.4914
 20
2.94966
 11
69.3794
 21
2.89262
  0
LINE
  8
0
 10
69.3794
 20
2.89262
 11
69.2641
 21
2.84273
  0
LINE
  8
0
 10
69.2641
 20
2.84273
 11
69.1459
 21
2.80016
  0
LINE
  8
0
 10
69.1459
 20
2.80016
 11
69.0252
 21
2.76511
  0
LINE
  8
0
 10
69.0252
 20
2.76511
 11
68.9026
 21
2.7377
  0
LINE
  8
0
 10
68.9026
 20
2.7377
 11
68.7785
 21
2.71805
  0
LINE
  8
0
 10
68.7785
 20
2.71805
 11
68.6534
 21
2.70622
  0
LINE
  8
0
 10
68.6534
 20
2.70622
 11
68.5279
 21
2.70227
  0
LINE
  8
0
 10
68.5279
 20
2.70227
 11
68.4023
 21
2.70622
  0
ENDSEC
  0
SECTION
  2
OBJECTS
  0
DICTIONARY
  0
ENDSEC
  0
EOF
