  0
SECTION
  2
BLOCKS
  0
ENDSEC
  0
SECTION
  2
ENTITIES
  0
LINE
  8
0
 10
0
 20
230.826
 11
-75
 21
0
  0
LINE
  8
0
 10
-75
 20
0
 11
75
 21
0
  0
LINE
  8
0
 10
75
 20
0
 11
0
 21
230.826
  0
LINE
  8
0
 10
-0.12558
 20
212.83
 11
-0.250656
 21
212.842
  0
LINE
  8
0
 10
-0.250656
 20
212.842
 11
-0.374756
 21
212.862
  0
LINE
  8
0
 10
-0.374756
 20
212.862
 11
-0.497375
 21
212.889
  0
LINE
  8
0
 10
-0.497375
 20
212.889
 11
-0.618027
 21
212.924
  0
LINE
  8
0
 10
-0.618027
 20
212.924
 11
-0.736237
 21
212.967
  0
LINE
  8
0
 10
-0.736237
 20
212.967
 11
-0.851547
 21
213.017
  0
LINE
  8
0
 10
-0.851547
 20
213.017
 11
-0.963501
 21
213.074
  0
LINE
  8
0
 10
-0.963501
 20
213.074
 11
-1.07164
 21
213.138
  0
LINE
  8
0
 10
-1.07164
 20
213.138
 11
-1.17557
 21
213.208
  0
LINE
  8
0
 10
-1.17557
 20
213.208
 11
-1.27484
 21
213.285
  0
LINE
  8
0
 10
-1.27484
 20
213.285
 11
-1.36908
 21
213.368
  0
LINE
  8
0
 10
-1.36908
 20
213.368
 11
-1.45793
 21
213.457
  0
LINE
  8
0
 10
-1.45793
 20
213.457
 11
-1.54102
 21
213.551
  0
LINE
  8
0
 10
-1.54102
 20
213.551
 11
-1.61803
 21
213.651
  0
LINE
  8
0
 10
-1.61803
 20
213.651
 11
-1.68864
 21
213.755
  0
LINE
  8
0
 10
-1.68864
 20
213.755
 11
-1.75261
 21
213.863
  0
LINE
  8
0
 10
-1.75261
 20
213.863
 11
-1.80965
 21
213.975
  0
LINE
  8
0
 10
-1.80965
 20
213.975
 11
-1.85954
 21
214.09
  0
LINE
  8
0
 10
-1.85954
 20
214.09
 11
-1.9021
 21
214.208
  0
LINE
  8
0
 10
-1.9021
 20
214.208
 11
-1.93716
 21
214.329
  0
LINE
  8
0
 10
-1.93716
 20
214.329
 11
-1.96457
 21
214.451
  0
LINE
  8
0
 10
-1.96457
 20
214.451
 11
-1.98422
 21
214.576
  0
LINE
  8
0
 10
-1.98422
 20
214.576
 11
-1.99605
 21
214.701
  0
LINE
  8
0
 10
-1.99605
 20
214.701
 11
-2
 21
214.826
  0
LINE
  8
0
 10
-2
 20
214.826
 11
-1.99605
 21
214.952
  0
LINE
  8
0
 10
-1.99605
 20
214.952
 11
-1.98422
 21
215.077
  0
LINE
  8
0
 10
-1.98422
 20
215.077
 11
-1.96457
 21
215.201
  0
LINE
  8
0
 10
-1.96457
 20
215.201
 11
-1.93716
 21
215.324
  0
LINE
  8
0
 10
-1.93716
 20
215.324
 11
-1.9021
 21
215.444
  0
LINE
  8
0
 10
-1.9021
 20
215.444
 11
-1.85954
 21
215.562
  0
LINE
  8
0
 10
-1.85954
 20
215.562
 11
-1.80965
 21
215.678
  0
LINE
  8
0
 10
-1.80965
 20
215.678
 11
-1.75261
 21
215.79
  0
LINE
  8
0
 10
-1.75261
 20
215.79
 11
-1.68864
 21
215.898
  0
LINE
  8
0
 10
-1.68864
 20
215.898
 11
-1.61803
 21
216.002
  0
LINE
  8
0
 10
-1.61803
 20
216.002
 11
-1.54102
 21
216.101
  0
LINE
  8
0
 10
-1.54102
 20
216.101
 11
-1.45793
 21
216.195
  0
LINE
  8
0
 10
-1.45793
 20
216.195
 11
-1.36908
 21
216.284
  0
LINE
  8
0
 10
-1.36908
 20
216.284
 11
-1.27484
 21
216.367
  0
LINE
  8
0
 10
-1.27484
 20
216.367
 11
-1.17557
 21
216.444
  0
LINE
  8
0
 10
-1.17557
 20
216.444
 11
-1.07164
 21
216.515
  0
LINE
  8
0
 10
-1.07164
 20
216.515
 11
-0.963501
 21
216.579
  0
LINE
  8
0
 10
-0.963501
 20
216.579
 11
-0.851547
 21
216.636
  0
LINE
  8
0
 10
-0.851547
 20
216.636
 11
-0.736237
 21
216.686
  0
LINE
  8
0
 10
-0.736237
 20
216.686
 11
-0.618027
 21
216.728
  0
LINE
  8
0
 10
-0.618027
 20
216.728
 11
-0.497375
 21
216.763
  0
LINE
  8
0
 10
-0.497375
 20
216.763
 11
-0.374756
 21
216.791
  0
LINE
  8
0
 10
-0.374756
 20
216.791
 11
-0.250656
 21
216.81
  0
LINE
  8
0
 10
-0.250656
 20
216.81
 11
-0.12558
 21
216.822
  0
LINE
  8
0
 10
-0.12558
 20
216.822
 11
0
 21
216.826
  0
LINE
  8
0
 10
0
 20
216.826
 11
0.12558
 21
216.822
  0
LINE
  8
0
 10
0.12558
 20
216.822
 11
0.250656
 21
216.81
  0
LINE
  8
0
 10
0.250656
 20
216.81
 11
0.374756
 21
216.791
  0
LINE
  8
0
 10
0.374756
 20
216.791
 11
0.497375
 21
216.763
  0
LINE
  8
0
 10
0.497375
 20
216.763
 11
0.618027
 21
216.728
  0
LINE
  8
0
 10
0.618027
 20
216.728
 11
0.736237
 21
216.686
  0
LINE
  8
0
 10
0.736237
 20
216.686
 11
0.851547
 21
216.636
  0
LINE
  8
0
 10
0.851547
 20
216.636
 11
0.963501
 21
216.579
  0
LINE
  8
0
 10
0.963501
 20
216.579
 11
1.07164
 21
216.515
  0
LINE
  8
0
 10
1.07164
 20
216.515
 11
1.17557
 21
216.444
  0
LINE
  8
0
 10
1.17557
 20
216.444
 11
1.27484
 21
216.367
  0
LINE
  8
0
 10
1.27484
 20
216.367
 11
1.36908
 21
216.284
  0
LINE
  8
0
 10
1.36908
 20
216.284
 11
1.45793
 21
216.195
  0
LINE
  8
0
 10
1.45793
 20
216.195
 11
1.54102
 21
216.101
  0
LINE
  8
0
 10
1.54102
 20
216.101
 11
1.61803
 21
216.002
  0
LINE
  8
0
 10
1.61803
 20
216.002
 11
1.68864
 21
215.898
  0
LINE
  8
0
 10
1.68864
 20
215.898
 11
1.75261
 21
215.79
  0
LINE
  8
0
 10
1.75261
 20
215.79
 11
1.80965
 21
215.678
  0
LINE
  8
0
 10
1.80965
 20
215.678
 11
1.85954
 21
215.562
  0
LINE
  8
0
 10
1.85954
 20
215.562
 11
1.9021
 21
215.444
  0
LINE
  8
0
 10
1.9021
 20
215.444
 11
1.93716
 21
215.324
  0
LINE
  8
0
 10
1.93716
 20
215.324
 11
1.96457
 21
215.201
  0
LINE
  8
0
 10
1.96457
 20
215.201
 11
1.98422
 21
215.077
  0
LINE
  8
0
 10
1.98422
 20
215.077
 11
1.99605
 21
214.952
  0
LINE
  8
0
 10
1.99605
 20
214.952
 11
2
 21
214.826
  0
LINE
  8
0
 10
2
 20
214.826
 11
1.99605
 21
214.701
  0
LINE
  8
0
 10
1.99605
 20
214.701
 11
1.98422
 21
214.576
  0
LINE
  8
0
 10
1.98422
 20
214.576
 11
1.96457
 21
214.451
  0
LINE
  8
0
 10
1.96457
 20
214.451
 11
1.93716
 21
214.329
  0
LINE
  8
0
 10
1.93716
 20
214.329
 11
1.9021
 21
214.208
  0
LINE
  8
0
 10
1.9021
 20
214.208
 11
1.85954
 21
214.09
  0
LINE
  8
0
 10
1.85954
 20
214.09
 11
1.80965
 21
213.975
  0
LINE
  8
0
 10
1.80965
 20
213.975
 11
1.75261
 21
213.863
  0
LINE
  8
0
 10
1.75261
 20
213.863
 11
1.68864
 21
213.755
  0
LINE
  8
0
 10
1.68864
 20
213.755
 11
1.61803
 21
213.651
  0
LINE
  8
0
 10
1.61803
 20
213.651
 11
1.54102
 21
213.551
  0
LINE
  8
0
 10
1.54102
 20
213.551
 11
1.45793
 21
213.457
  0
LINE
  8
0
 10
1.45793
 20
213.457
 11
1.36908
 21
213.368
  0
LINE
  8
0
 10
1.36908
 20
213.368
 11
1.27484
 21
213.285
  0
LINE
  8
0
 10
1.27484
 20
213.285
 11
1.17557
 21
213.208
  0
LINE
  8
0
 10
1.17557
 20
213.208
 11
1.07164
 21
213.138
  0
LINE
  8
0
 10
1.07164
 20
213.138
 11
0.963501
 21
213.074
  0
LINE
  8
0
 10
0.963501
 20
213.074
 11
0.851547
 21
213.017
  0
LINE
  8
0
 10
0.851547
 20
213.017
 11
0.736237
 21
212.967
  0
LINE
  8
0
 10
0.736237
 20
212.967
 11
0.618027
 21
212.924
  0
LINE
  8
0
 10
0.618027
 20
212.924
 11
0.497375
 21
212.889
  0
LINE
  8
0
 10
0.497375
 20
212.889
 11
0.374756
 21
212.862
  0
LINE
  8
0
 10
0.374756
 20
212.862
 11
0.250656
 21
212.842
  0
LINE
  8
0
 10
0.250656
 20
212.842
 11
0.12558
 21
212.83
  0
LINE
  8
0
 10
0.12558
 20
212.83
 11
0
 21
212.826
  0
LINE
  8
0
 10
0
 20
212.826
 11
-0.12558
 21
212.83
  0
LINE
  8
0
 10
-2.75995
 20
182.24
 11
-3.08038
 21
182.513
  0
LINE
  8
0
 10
-3.08038
 20
182.513
 11
-0.521851
 21
190.387
  0
LINE
  8
0
 10
-0.521851
 20
190.387
 11
0
 21
191
  0
LINE
  8
0
 10
0
 20
191
 11
0.521851
 21
190.387
  0
LINE
  8
0
 10
0.521851
 20
190.387
 11
3.08038
 21
182.513
  0
LINE
  8
0
 10
3.08038
 20
182.513
 11
2.75995
 21
182.24
  0
LINE
  8
0
 10
2.75995
 20
182.24
 11
0
 21
179
  0
LINE
  8
0
 10
0
 20
179
 11
-2.75995
 21
182.24
  0
LINE
  8
0
 10
-3.05988
 20
169.94
 11
-5.57996
 21
173
  0
LINE
  8
0
 10
-5.57996
 20
173
 11
-3.05988
 21
176.06
  0
LINE
  8
0
 10
-3.05988
 20
176.06
 11
0
 21
178.58
  0
LINE
  8
0
 10
0
 20
178.58
 11
3.05988
 21
176.06
  0
LINE
  8
0
 10
3.05988
 20
176.06
 11
5.57996
 21
173
  0
LINE
  8
0
 10
5.57996
 20
173
 11
3.05988
 21
169.94
  0
LINE
  8
0
 10
3.05988
 20
169.94
 11
0
 21
167.42
  0
LINE
  8
0
 10
0
 20
167.42
 11
-3.05988
 21
169.94
  0
LINE
  8
0
 10
-3.35999
 20
157.64
 11
-5.15991
 21
161
  0
LINE
  8
0
 10
-5.15991
 20
161
 11
-3.35999
 21
164.36
  0
LINE
  8
0
 10
-3.35999
 20
164.36
 11
0
 21
166.16
  0
LINE
  8
0
 10
0
 20
166.16
 11
3.35999
 21
164.36
  0
LINE
  8
0
 10
3.35999
 20
164.36
 11
5.15991
 21
161
  0
LINE
  8
0
 10
5.15991
 20
161
 11
3.35999
 21
157.64
  0
LINE
  8
0
 10
3.35999
 20
157.64
 11
0
 21
155.84
  0
LINE
  8
0
 10
0
 20
155.84
 11
-3.35999
 21
157.64
  0
LINE
  8
0
 10
-8.93513
 20
164.494
 11
-8.65869
 21
164.341
  0
LINE
  8
0
 10
-8.65869
 20
164.341
 11
-6.8139
 21
161
  0
LINE
  8
0
 10
-6.8139
 20
161
 11
-8.65869
 21
157.659
  0
LINE
  8
0
 10
-8.65869
 20
157.659
 11
-11.702
 21
155.978
  0
LINE
  8
0
 10
-11.702
 20
155.978
 11
-8.93513
 21
164.494
  0
LINE
  8
0
 10
8.65869
 20
157.659
 11
6.8139
 21
161
  0
LINE
  8
0
 10
6.8139
 20
161
 11
8.65869
 21
164.341
  0
LINE
  8
0
 10
8.65869
 20
164.341
 11
8.93513
 21
164.494
  0
LINE
  8
0
 10
8.93513
 20
164.494
 11
11.702
 21
155.978
  0
LINE
  8
0
 10
11.702
 20
155.978
 11
8.65869
 21
157.659
  0
LINE
  8
0
 10
8.36133
 20
145.361
 11
7.23029
 21
149
  0
LINE
  8
0
 10
7.23029
 20
149
 11
8.36133
 21
152.639
  0
LINE
  8
0
 10
8.36133
 20
152.639
 11
12
 21
153.77
  0
LINE
  8
0
 10
12
 20
153.77
 11
12.4668
 21
153.625
  0
LINE
  8
0
 10
12.4668
 20
153.625
 11
15.1964
 21
145.224
  0
LINE
  8
0
 10
15.1964
 20
145.224
 11
12
 21
144.23
  0
LINE
  8
0
 10
12
 20
144.23
 11
8.36133
 21
145.361
  0
LINE
  8
0
 10
-15.1964
 20
145.224
 11
-12.4668
 21
153.625
  0
LINE
  8
0
 10
-12.4668
 20
153.625
 11
-12
 21
153.77
  0
LINE
  8
0
 10
-12
 20
153.77
 11
-8.36133
 21
152.639
  0
LINE
  8
0
 10
-8.36133
 20
152.639
 11
-7.23029
 21
149
  0
LINE
  8
0
 10
-7.23029
 20
149
 11
-8.36133
 21
145.361
  0
LINE
  8
0
 10
-8.36133
 20
145.361
 11
-12
 21
144.23
  0
LINE
  8
0
 10
-12
 20
144.23
 11
-15.1964
 21
145.224
  0
LINE
  8
0
 10
-3.65991
 20
145.34
 11
-4.73987
 21
149
  0
LINE
  8
0
 10
-4.73987
 20
149
 11
-3.65991
 21
152.66
  0
LINE
  8
0
 10
-3.65991
 20
152.66
 11
0
 21
153.74
  0
LINE
  8
0
 10
0
 20
153.74
 11
3.65991
 21
152.66
  0
LINE
  8
0
 10
3.65991
 20
152.66
 11
4.73987
 21
149
  0
LINE
  8
0
 10
4.73987
 20
149
 11
3.65991
 21
145.34
  0
LINE
  8
0
 10
3.65991
 20
145.34
 11
0
 21
144.26
  0
LINE
  8
0
 10
0
 20
144.26
 11
-3.65991
 21
145.34
  0
LINE
  8
0
 10
-15.9351
 20
133.065
 11
-16.3546
 21
137
  0
LINE
  8
0
 10
-16.3546
 20
137
 11
-15.9351
 21
140.935
  0
LINE
  8
0
 10
-15.9351
 20
140.935
 11
-12
 21
141.355
  0
LINE
  8
0
 10
-12
 20
141.355
 11
-8.06488
 21
140.935
  0
LINE
  8
0
 10
-8.06488
 20
140.935
 11
-7.64539
 21
137
  0
LINE
  8
0
 10
-7.64539
 20
137
 11
-8.06488
 21
133.065
  0
LINE
  8
0
 10
-8.06488
 20
133.065
 11
-12
 21
132.645
  0
LINE
  8
0
 10
-12
 20
132.645
 11
-15.9351
 21
133.065
  0
LINE
  8
0
 10
8.06488
 20
133.065
 11
7.64539
 21
137
  0
LINE
  8
0
 10
7.64539
 20
137
 11
8.06488
 21
140.935
  0
LINE
  8
0
 10
8.06488
 20
140.935
 11
12
 21
141.355
  0
LINE
  8
0
 10
12
 20
141.355
 11
15.9351
 21
140.935
  0
LINE
  8
0
 10
15.9351
 20
140.935
 11
16.3546
 21
137
  0
LINE
  8
0
 10
16.3546
 20
137
 11
15.9351
 21
133.065
  0
LINE
  8
0
 10
15.9351
 20
133.065
 11
12
 21
132.645
  0
LINE
  8
0
 10
12
 20
132.645
 11
8.06488
 21
133.065
  0
LINE
  8
0
 10
-3.95984
 20
133.04
 11
-4.31982
 21
137
  0
LINE
  8
0
 10
-4.31982
 20
137
 11
-3.95984
 21
140.96
  0
LINE
  8
0
 10
-3.95984
 20
140.96
 11
0
 21
141.32
  0
LINE
  8
0
 10
0
 20
141.32
 11
3.95984
 21
140.96
  0
LINE
  8
0
 10
3.95984
 20
140.96
 11
4.31982
 21
137
  0
LINE
  8
0
 10
4.31982
 20
137
 11
3.95984
 21
133.04
  0
LINE
  8
0
 10
3.95984
 20
133.04
 11
0
 21
132.68
  0
LINE
  8
0
 10
0
 20
132.68
 11
-3.95984
 21
133.04
  0
LINE
  8
0
 10
0
 20
121.1
 11
-4.25995
 21
120.74
  0
LINE
  8
0
 10
-4.25995
 20
120.74
 11
-3.89996
 21
125
  0
LINE
  8
0
 10
-3.89996
 20
125
 11
-4.25995
 21
129.26
  0
LINE
  8
0
 10
-4.25995
 20
129.26
 11
0
 21
128.9
  0
LINE
  8
0
 10
0
 20
128.9
 11
4.25995
 21
129.26
  0
LINE
  8
0
 10
4.25995
 20
129.26
 11
3.89996
 21
125
  0
LINE
  8
0
 10
3.89996
 20
125
 11
4.25995
 21
120.74
  0
LINE
  8
0
 10
4.25995
 20
120.74
 11
0
 21
121.1
  0
LINE
  8
0
 10
12
 20
121.058
 11
7.76971
 21
120.77
  0
LINE
  8
0
 10
7.76971
 20
120.77
 11
8.05847
 21
125
  0
LINE
  8
0
 10
8.05847
 20
125
 11
7.76971
 21
129.23
  0
LINE
  8
0
 10
7.76971
 20
129.23
 11
12
 21
128.942
  0
LINE
  8
0
 10
12
 20
128.942
 11
16.2303
 21
129.23
  0
LINE
  8
0
 10
16.2303
 20
129.23
 11
15.9415
 21
125
  0
LINE
  8
0
 10
15.9415
 20
125
 11
16.2303
 21
120.77
  0
LINE
  8
0
 10
16.2303
 20
120.77
 11
12
 21
121.058
  0
LINE
  8
0
 10
-12
 20
121.058
 11
-16.2303
 21
120.77
  0
LINE
  8
0
 10
-16.2303
 20
120.77
 11
-15.9415
 21
125
  0
LINE
  8
0
 10
-15.9415
 20
125
 11
-16.2303
 21
129.23
  0
LINE
  8
0
 10
-16.2303
 20
129.23
 11
-12
 21
128.942
  0
LINE
  8
0
 10
-12
 20
128.942
 11
-7.76971
 21
129.23
  0
LINE
  8
0
 10
-7.76971
 20
129.23
 11
-8.05847
 21
125
  0
LINE
  8
0
 10
-8.05847
 20
125
 11
-7.76971
 21
120.77
  0
LINE
  8
0
 10
-7.76971
 20
120.77
 11
-12
 21
121.058
  0
LINE
  8
0
 10
-23.0931
 20
120.92
 11
-20.4246
 21
129.133
  0
LINE
  8
0
 10
-20.4246
 20
129.133
 11
-19.8556
 21
129.144
  0
LINE
  8
0
 10
-19.8556
 20
129.144
 11
-19.9384
 21
125
  0
LINE
  8
0
 10
-19.9384
 20
125
 11
-19.8556
 21
120.856
  0
LINE
  8
0
 10
-19.8556
 20
120.856
 11
-23.0931
 21
120.92
  0
LINE
  8
0
 10
19.9384
 20
125
 11
19.8556
 21
129.144
  0
LINE
  8
0
 10
19.8556
 20
129.144
 11
20.4246
 21
129.133
  0
LINE
  8
0
 10
20.4246
 20
129.133
 11
23.0931
 21
120.92
  0
LINE
  8
0
 10
23.0931
 20
120.92
 11
19.8556
 21
120.856
  0
LINE
  8
0
 10
19.8556
 20
120.856
 11
19.9384
 21
125
  0
LINE
  8
0
 10
0
 20
109.52
 11
-4.55988
 21
108.44
  0
LINE
  8
0
 10
-4.55988
 20
108.44
 11
-3.47992
 21
113
  0
LINE
  8
0
 10
-3.47992
 20
113
 11
-4.55988
 21
117.56
  0
LINE
  8
0
 10
-4.55988
 20
117.56
 11
0
 21
116.48
  0
LINE
  8
0
 10
0
 20
116.48
 11
4.55988
 21
117.56
  0
LINE
  8
0
 10
4.55988
 20
117.56
 11
3.47992
 21
113
  0
LINE
  8
0
 10
3.47992
 20
113
 11
4.55988
 21
108.44
  0
LINE
  8
0
 10
4.55988
 20
108.44
 11
0
 21
109.52
  0
LINE
  8
0
 10
12
 20
109.468
 11
7.47711
 21
108.477
  0
LINE
  8
0
 10
7.47711
 20
108.477
 11
8.46844
 21
113
  0
LINE
  8
0
 10
8.46844
 20
113
 11
7.47711
 21
117.523
  0
LINE
  8
0
 10
7.47711
 20
117.523
 11
12
 21
116.532
  0
LINE
  8
0
 10
12
 20
116.532
 11
16.5229
 21
117.523
  0
LINE
  8
0
 10
16.5229
 20
117.523
 11
15.5316
 21
113
  0
LINE
  8
0
 10
15.5316
 20
113
 11
16.5229
 21
108.477
  0
LINE
  8
0
 10
16.5229
 20
108.477
 11
12
 21
109.468
  0
LINE
  8
0
 10
-12
 20
109.468
 11
-16.5229
 21
108.477
  0
LINE
  8
0
 10
-16.5229
 20
108.477
 11
-15.5316
 21
113
  0
LINE
  8
0
 10
-15.5316
 20
113
 11
-16.5229
 21
117.523
  0
LINE
  8
0
 10
-16.5229
 20
117.523
 11
-12
 21
116.532
  0
LINE
  8
0
 10
-12
 20
116.532
 11
-7.47711
 21
117.523
  0
LINE
  8
0
 10
-7.47711
 20
117.523
 11
-8.46844
 21
113
  0
LINE
  8
0
 10
-8.46844
 20
113
 11
-7.47711
 21
108.477
  0
LINE
  8
0
 10
-7.47711
 20
108.477
 11
-12
 21
109.468
  0
LINE
  8
0
 10
-24
 20
109.322
 11
-27.0264
 21
108.815
  0
LINE
  8
0
 10
-27.0264
 20
108.815
 11
-24.4471
 21
116.753
  0
LINE
  8
0
 10
-24.4471
 20
116.753
 11
-24
 21
116.678
  0
LINE
  8
0
 10
-24
 20
116.678
 11
-19.5817
 21
117.418
  0
LINE
  8
0
 10
-19.5817
 20
117.418
 11
-20.3218
 21
113
  0
LINE
  8
0
 10
-20.3218
 20
113
 11
-19.5817
 21
108.582
  0
LINE
  8
0
 10
-19.5817
 20
108.582
 11
-24
 21
109.322
  0
LINE
  8
0
 10
20.3218
 20
113
 11
19.5817
 21
117.418
  0
LINE
  8
0
 10
19.5817
 20
117.418
 11
24
 21
116.678
  0
LINE
  8
0
 10
24
 20
116.678
 11
24.4471
 21
116.753
  0
LINE
  8
0
 10
24.4471
 20
116.753
 11
27.0264
 21
108.815
  0
LINE
  8
0
 10
27.0264
 20
108.815
 11
24
 21
109.322
  0
LINE
  8
0
 10
24
 20
109.322
 11
19.5817
 21
108.582
  0
LINE
  8
0
 10
19.5817
 20
108.582
 11
20.3218
 21
113
  0
LINE
  8
0
 10
0
 20
97.9401
 11
-4.85999
 21
96.14
  0
LINE
  8
0
 10
-4.85999
 20
96.14
 11
-3.05988
 21
101
  0
LINE
  8
0
 10
-3.05988
 20
101
 11
-4.85999
 21
105.86
  0
LINE
  8
0
 10
-4.85999
 20
105.86
 11
0
 21
104.06
  0
LINE
  8
0
 10
0
 20
104.06
 11
4.85999
 21
105.86
  0
LINE
  8
0
 10
4.85999
 20
105.86
 11
3.05988
 21
101
  0
LINE
  8
0
 10
3.05988
 20
101
 11
4.85999
 21
96.14
  0
LINE
  8
0
 10
4.85999
 20
96.14
 11
0
 21
97.9401
  0
LINE
  8
0
 10
12
 20
97.872
 11
7.18872
 21
96.1887
  0
LINE
  8
0
 10
7.18872
 20
96.1887
 11
8.87201
 21
101
  0
LINE
  8
0
 10
8.87201
 20
101
 11
7.18872
 21
105.811
  0
LINE
  8
0
 10
7.18872
 20
105.811
 11
12
 21
104.128
  0
LINE
  8
0
 10
12
 20
104.128
 11
16.8113
 21
105.811
  0
LINE
  8
0
 10
16.8113
 20
105.811
 11
15.128
 21
101
  0
LINE
  8
0
 10
15.128
 20
101
 11
16.8113
 21
96.1887
  0
LINE
  8
0
 10
16.8113
 20
96.1887
 11
12
 21
97.872
  0
LINE
  8
0
 10
-12
 20
97.872
 11
-16.8113
 21
96.1887
  0
LINE
  8
0
 10
-16.8113
 20
96.1887
 11
-15.128
 21
101
  0
LINE
  8
0
 10
-15.128
 20
101
 11
-16.8113
 21
105.811
  0
LINE
  8
0
 10
-16.8113
 20
105.811
 11
-12
 21
104.128
  0
LINE
  8
0
 10
-12
 20
104.128
 11
-7.18872
 21
105.811
  0
LINE
  8
0
 10
-7.18872
 20
105.811
 11
-8.87201
 21
101
  0
LINE
  8
0
 10
-8.87201
 20
101
 11
-7.18872
 21
96.1887
  0
LINE
  8
0
 10
-7.18872
 20
96.1887
 11
-12
 21
97.872
  0
LINE
  8
0
 10
-24
 20
97.6858
 11
-28.6782
 21
96.3218
  0
LINE
  8
0
 10
-28.6782
 20
96.3218
 11
-27.3142
 21
101
  0
LINE
  8
0
 10
-27.3142
 20
101
 11
-28.379
 21
104.652
  0
LINE
  8
0
 10
-28.379
 20
104.652
 11
-28.1003
 21
105.51
  0
LINE
  8
0
 10
-28.1003
 20
105.51
 11
-24
 21
104.314
  0
LINE
  8
0
 10
-24
 20
104.314
 11
-19.3218
 21
105.678
  0
LINE
  8
0
 10
-19.3218
 20
105.678
 11
-20.6858
 21
101
  0
LINE
  8
0
 10
-20.6858
 20
101
 11
-19.3218
 21
96.3218
  0
LINE
  8
0
 10
-19.3218
 20
96.3218
 11
-24
 21
97.6858
  0
LINE
  8
0
 10
24
 20
97.6858
 11
19.3218
 21
96.3218
  0
LINE
  8
0
 10
19.3218
 20
96.3218
 11
20.6858
 21
101
  0
LINE
  8
0
 10
20.6858
 20
101
 11
19.3218
 21
105.678
  0
LINE
  8
0
 10
19.3218
 20
105.678
 11
24
 21
104.314
  0
LINE
  8
0
 10
24
 20
104.314
 11
28.1003
 21
105.51
  0
LINE
  8
0
 10
28.1003
 20
105.51
 11
28.379
 21
104.652
  0
LINE
  8
0
 10
28.379
 20
104.652
 11
27.3142
 21
101
  0
LINE
  8
0
 10
27.3142
 20
101
 11
28.6782
 21
96.3218
  0
LINE
  8
0
 10
28.6782
 20
96.3218
 11
24
 21
97.6858
  0
LINE
  8
0
 10
0
 20
86.3602
 11
-5.15991
 21
83.8401
  0
LINE
  8
0
 10
-5.15991
 20
83.8401
 11
-2.63983
 21
89
  0
LINE
  8
0
 10
-2.63983
 20
89
 11
-5.15991
 21
94.1599
  0
LINE
  8
0
 10
-5.15991
 20
94.1599
 11
0
 21
91.6398
  0
LINE
  8
0
 10
0
 20
91.6398
 11
5.15991
 21
94.1599
  0
LINE
  8
0
 10
5.15991
 20
94.1599
 11
2.63983
 21
89
  0
LINE
  8
0
 10
2.63983
 20
89
 11
5.15991
 21
83.8401
  0
LINE
  8
0
 10
5.15991
 20
83.8401
 11
0
 21
86.3602
  0
LINE
  8
0
 10
12
 20
86.2609
 11
6.91095
 21
83.9109
  0
LINE
  8
0
 10
6.91095
 20
83.9109
 11
9.26093
 21
89
  0
LINE
  8
0
 10
9.26093
 20
89
 11
6.91095
 21
94.0891
  0
LINE
  8
0
 10
6.91095
 20
94.0891
 11
12
 21
91.7391
  0
LINE
  8
0
 10
12
 20
91.7391
 11
17.0891
 21
94.0891
  0
LINE
  8
0
 10
17.0891
 20
94.0891
 11
14.7391
 21
89
  0
LINE
  8
0
 10
14.7391
 20
89
 11
17.0891
 21
83.9109
  0
LINE
  8
0
 10
17.0891
 20
83.9109
 11
12
 21
86.2609
  0
LINE
  8
0
 10
-12
 20
86.2609
 11
-17.0891
 21
83.9109
  0
LINE
  8
0
 10
-17.0891
 20
83.9109
 11
-14.7391
 21
89
  0
LINE
  8
0
 10
-14.7391
 20
89
 11
-17.0891
 21
94.0891
  0
LINE
  8
0
 10
-17.0891
 20
94.0891
 11
-12
 21
91.7391
  0
LINE
  8
0
 10
-12
 20
91.7391
 11
-6.91095
 21
94.0891
  0
LINE
  8
0
 10
-6.91095
 20
94.0891
 11
-9.26093
 21
89
  0
LINE
  8
0
 10
-9.26093
 20
89
 11
-6.91095
 21
83.9109
  0
LINE
  8
0
 10
-6.91095
 20
83.9109
 11
-12
 21
86.2609
  0
LINE
  8
0
 10
-24
 20
86.0121
 11
-28.9114
 21
84.0886
  0
LINE
  8
0
 10
-28.9114
 20
84.0886
 11
-26.9879
 21
89
  0
LINE
  8
0
 10
-26.9879
 20
89
 11
-28.9114
 21
93.9114
  0
LINE
  8
0
 10
-28.9114
 20
93.9114
 11
-24
 21
91.9879
  0
LINE
  8
0
 10
-24
 20
91.9879
 11
-19.0886
 21
93.9114
  0
LINE
  8
0
 10
-19.0886
 20
93.9114
 11
-21.0121
 21
89
  0
LINE
  8
0
 10
-21.0121
 20
89
 11
-19.0886
 21
84.0886
  0
LINE
  8
0
 10
-19.0886
 20
84.0886
 11
-24
 21
86.0121
  0
LINE
  8
0
 10
24
 20
86.0121
 11
19.0886
 21
84.0886
  0
LINE
  8
0
 10
19.0886
 20
84.0886
 11
21.0121
 21
89
  0
LINE
  8
0
 10
21.0121
 20
89
 11
19.0886
 21
93.9114
  0
LINE
  8
0
 10
19.0886
 20
93.9114
 11
24
 21
91.9879
  0
LINE
  8
0
 10
24
 20
91.9879
 11
28.9114
 21
93.9114
  0
LINE
  8
0
 10
28.9114
 20
93.9114
 11
26.9879
 21
89
  0
LINE
  8
0
 10
26.9879
 20
89
 11
28.9114
 21
84.0886
  0
LINE
  8
0
 10
28.9114
 20
84.0886
 11
24
 21
86.0121
  0
LINE
  8
0
 10
-34.6677
 20
85.2973
 11
-32.0097
 21
93.4776
  0
LINE
  8
0
 10
-32.0097
 20
93.4776
 11
-31.3218
 21
93.6782
  0
LINE
  8
0
 10
-31.3218
 20
93.6782
 11
-32.6858
 21
89
  0
LINE
  8
0
 10
-32.6858
 20
89
 11
-31.3218
 21
84.3218
  0
LINE
  8
0
 10
-31.3218
 20
84.3218
 11
-34.6677
 21
85.2973
  0
LINE
  8
0
 10
32.6858
 20
89
 11
31.3218
 21
93.6782
  0
LINE
  8
0
 10
31.3218
 20
93.6782
 11
32.0097
 21
93.4776
  0
LINE
  8
0
 10
32.0097
 20
93.4776
 11
34.6677
 21
85.2973
  0
LINE
  8
0
 10
34.6677
 20
85.2973
 11
31.3218
 21
84.3218
  0
LINE
  8
0
 10
31.3218
 20
84.3218
 11
32.6858
 21
89
  0
LINE
  8
0
 10
0
 20
74.78
 11
-5.45984
 21
71.5402
  0
LINE
  8
0
 10
-5.45984
 20
71.5402
 11
-2.21997
 21
77
  0
LINE
  8
0
 10
-2.21997
 20
77
 11
-5.45984
 21
82.4598
  0
LINE
  8
0
 10
-5.45984
 20
82.4598
 11
0
 21
79.22
  0
LINE
  8
0
 10
0
 20
79.22
 11
5.45984
 21
82.4598
  0
LINE
  8
0
 10
5.45984
 20
82.4598
 11
2.21997
 21
77
  0
LINE
  8
0
 10
2.21997
 20
77
 11
5.45984
 21
71.5402
  0
LINE
  8
0
 10
5.45984
 20
71.5402
 11
0
 21
74.78
  0
LINE
  8
0
 10
12
 20
74.6061
 11
6.66431
 21
71.6643
  0
LINE
  8
0
 10
6.66431
 20
71.6643
 11
9.60608
 21
77
  0
LINE
  8
0
 10
9.60608
 20
77
 11
6.66431
 21
82.3357
  0
LINE
  8
0
 10
6.66431
 20
82.3357
 11
12
 21
79.3939
  0
LINE
  8
0
 10
12
 20
79.3939
 11
17.3357
 21
82.3357
  0
LINE
  8
0
 10
17.3357
 20
82.3357
 11
14.3939
 21
77
  0
LINE
  8
0
 10
14.3939
 20
77
 11
17.3357
 21
71.6643
  0
LINE
  8
0
 10
17.3357
 20
71.6643
 11
12
 21
74.6061
  0
LINE
  8
0
 10
-12
 20
74.6061
 11
-17.3357
 21
71.6643
  0
LINE
  8
0
 10
-17.3357
 20
71.6643
 11
-14.3939
 21
77
  0
LINE
  8
0
 10
-14.3939
 20
77
 11
-17.3357
 21
82.3357
  0
LINE
  8
0
 10
-17.3357
 20
82.3357
 11
-12
 21
79.3939
  0
LINE
  8
0
 10
-12
 20
79.3939
 11
-6.66431
 21
82.3357
  0
LINE
  8
0
 10
-6.66431
 20
82.3357
 11
-9.60608
 21
77
  0
LINE
  8
0
 10
-9.60608
 20
77
 11
-6.66431
 21
71.6643
  0
LINE
  8
0
 10
-6.66431
 20
71.6643
 11
-12
 21
74.6061
  0
LINE
  8
0
 10
24
 20
74.2609
 11
18.9109
 21
71.9109
  0
LINE
  8
0
 10
18.9109
 20
71.9109
 11
21.2609
 21
77
  0
LINE
  8
0
 10
21.2609
 20
77
 11
18.9109
 21
82.0891
  0
LINE
  8
0
 10
18.9109
 20
82.0891
 11
24
 21
79.7391
  0
LINE
  8
0
 10
24
 20
79.7391
 11
29.0891
 21
82.0891
  0
LINE
  8
0
 10
29.0891
 20
82.0891
 11
26.7391
 21
77
  0
LINE
  8
0
 10
26.7391
 20
77
 11
29.0891
 21
71.9109
  0
LINE
  8
0
 10
29.0891
 20
71.9109
 11
24
 21
74.2609
  0
LINE
  8
0
 10
-24
 20
74.2609
 11
-29.0891
 21
71.9109
  0
LINE
  8
0
 10
-29.0891
 20
71.9109
 11
-26.7391
 21
77
  0
LINE
  8
0
 10
-26.7391
 20
77
 11
-29.0891
 21
82.0891
  0
LINE
  8
0
 10
-29.0891
 20
82.0891
 11
-24
 21
79.7391
  0
LINE
  8
0
 10
-24
 20
79.7391
 11
-18.9109
 21
82.0891
  0
LINE
  8
0
 10
-18.9109
 20
82.0891
 11
-21.2609
 21
77
  0
LINE
  8
0
 10
-21.2609
 20
77
 11
-18.9109
 21
71.9109
  0
LINE
  8
0
 10
-18.9109
 20
71.9109
 11
-24
 21
74.2609
  0
LINE
  8
0
 10
-36
 20
73.872
 11
-38.6852
 21
72.9325
  0
LINE
  8
0
 10
-38.6852
 20
72.9325
 11
-36.3118
 21
80.2371
  0
LINE
  8
0
 10
-36.3118
 20
80.2371
 11
-36
 21
80.128
  0
LINE
  8
0
 10
-36
 20
80.128
 11
-31.1887
 21
81.8113
  0
LINE
  8
0
 10
-31.1887
 20
81.8113
 11
-32.872
 21
77
  0
LINE
  8
0
 10
-32.872
 20
77
 11
-31.1887
 21
72.1887
  0
LINE
  8
0
 10
-31.1887
 20
72.1887
 11
-36
 21
73.872
  0
LINE
  8
0
 10
32.872
 20
77
 11
31.1887
 21
81.8113
  0
LINE
  8
0
 10
31.1887
 20
81.8113
 11
36
 21
80.128
  0
LINE
  8
0
 10
36
 20
80.128
 11
36.3118
 21
80.2371
  0
LINE
  8
0
 10
36.3118
 20
80.2371
 11
38.6852
 21
72.9325
  0
LINE
  8
0
 10
38.6852
 20
72.9325
 11
36
 21
73.872
  0
LINE
  8
0
 10
36
 20
73.872
 11
31.1887
 21
72.1887
  0
LINE
  8
0
 10
31.1887
 20
72.1887
 11
32.872
 21
77
  0
LINE
  8
0
 10
0
 20
63.2001
 11
-5.75995
 21
59.2401
  0
LINE
  8
0
 10
-5.75995
 20
59.2401
 11
-1.79993
 21
65
  0
LINE
  8
0
 10
-1.79993
 20
65
 11
-5.75995
 21
70.7599
  0
LINE
  8
0
 10
-5.75995
 20
70.7599
 11
0
 21
66.7999
  0
LINE
  8
0
 10
0
 20
66.7999
 11
5.75995
 21
70.7599
  0
LINE
  8
0
 10
5.75995
 20
70.7599
 11
1.79993
 21
65
  0
LINE
  8
0
 10
1.79993
 20
65
 11
5.75995
 21
59.2401
  0
LINE
  8
0
 10
5.75995
 20
59.2401
 11
0
 21
63.2001
  0
LINE
  8
0
 10
-12
 20
62.78
 11
-17.4598
 21
59.5402
  0
LINE
  8
0
 10
-17.4598
 20
59.5402
 11
-14.22
 21
65
  0
LINE
  8
0
 10
-14.22
 20
65
 11
-17.4598
 21
70.4598
  0
LINE
  8
0
 10
-17.4598
 20
70.4598
 11
-12
 21
67.22
  0
LINE
  8
0
 10
-12
 20
67.22
 11
-6.54016
 21
70.4598
  0
LINE
  8
0
 10
-6.54016
 20
70.4598
 11
-9.78003
 21
65
  0
LINE
  8
0
 10
-9.78003
 20
65
 11
-6.54016
 21
59.5402
  0
LINE
  8
0
 10
-6.54016
 20
59.5402
 11
-12
 21
62.78
  0
LINE
  8
0
 10
12
 20
62.78
 11
6.54016
 21
59.5402
  0
LINE
  8
0
 10
6.54016
 20
59.5402
 11
9.78003
 21
65
  0
LINE
  8
0
 10
9.78003
 20
65
 11
6.54016
 21
70.4598
  0
LINE
  8
0
 10
6.54016
 20
70.4598
 11
12
 21
67.22
  0
LINE
  8
0
 10
12
 20
67.22
 11
17.4598
 21
70.4598
  0
LINE
  8
0
 10
17.4598
 20
70.4598
 11
14.22
 21
65
  0
LINE
  8
0
 10
14.22
 20
65
 11
17.4598
 21
59.5402
  0
LINE
  8
0
 10
17.4598
 20
59.5402
 11
12
 21
62.78
  0
LINE
  8
0
 10
24
 20
62.3602
 11
18.8401
 21
59.8401
  0
LINE
  8
0
 10
18.8401
 20
59.8401
 11
21.3602
 21
65
  0
LINE
  8
0
 10
21.3602
 20
65
 11
18.8401
 21
70.1599
  0
LINE
  8
0
 10
18.8401
 20
70.1599
 11
24
 21
67.6398
  0
LINE
  8
0
 10
24
 20
67.6398
 11
29.1599
 21
70.1599
  0
LINE
  8
0
 10
29.1599
 20
70.1599
 11
26.6398
 21
65
  0
LINE
  8
0
 10
26.6398
 20
65
 11
29.1599
 21
59.8401
  0
LINE
  8
0
 10
29.1599
 20
59.8401
 11
24
 21
62.3602
  0
LINE
  8
0
 10
-24
 20
62.3602
 11
-29.1599
 21
59.8401
  0
LINE
  8
0
 10
-29.1599
 20
59.8401
 11
-26.6398
 21
65
  0
LINE
  8
0
 10
-26.6398
 20
65
 11
-29.1599
 21
70.1599
  0
LINE
  8
0
 10
-29.1599
 20
70.1599
 11
-24
 21
67.6398
  0
LINE
  8
0
 10
-24
 20
67.6398
 11
-18.8401
 21
70.1599
  0
LINE
  8
0
 10
-18.8401
 20
70.1599
 11
-21.3602
 21
65
  0
LINE
  8
0
 10
-21.3602
 20
65
 11
-18.8401
 21
59.8401
  0
LINE
  8
0
 10
-18.8401
 20
59.8401
 11
-24
 21
62.3602
  0
LINE
  8
0
 10
36
 20
61.9401
 11
31.14
 21
60.14
  0
LINE
  8
0
 10
31.14
 20
60.14
 11
32.9401
 21
65
  0
LINE
  8
0
 10
32.9401
 20
65
 11
31.14
 21
69.86
  0
LINE
  8
0
 10
31.14
 20
69.86
 11
36
 21
68.0599
  0
LINE
  8
0
 10
36
 20
68.0599
 11
39.8099
 21
69.4711
  0
LINE
  8
0
 10
39.8099
 20
69.4711
 11
40.2333
 21
68.1681
  0
LINE
  8
0
 10
40.2333
 20
68.1681
 11
39.0599
 21
65
  0
LINE
  8
0
 10
39.0599
 20
65
 11
40.86
 21
60.14
  0
LINE
  8
0
 10
40.86
 20
60.14
 11
36
 21
61.9401
  0
LINE
  8
0
 10
-36
 20
61.9401
 11
-40.86
 21
60.14
  0
LINE
  8
0
 10
-40.86
 20
60.14
 11
-39.0599
 21
65
  0
LINE
  8
0
 10
-39.0599
 20
65
 11
-40.2333
 21
68.1681
  0
LINE
  8
0
 10
-40.2333
 20
68.1681
 11
-39.8099
 21
69.4711
  0
LINE
  8
0
 10
-39.8099
 20
69.4711
 11
-36
 21
68.0599
  0
LINE
  8
0
 10
-36
 20
68.0599
 11
-31.14
 21
69.86
  0
LINE
  8
0
 10
-31.14
 20
69.86
 11
-32.9401
 21
65
  0
LINE
  8
0
 10
-32.9401
 20
65
 11
-31.14
 21
60.14
  0
LINE
  8
0
 10
-31.14
 20
60.14
 11
-36
 21
61.9401
  0
LINE
  8
0
 10
0
 20
50.78
 11
-5.45984
 21
47.5402
  0
LINE
  8
0
 10
-5.45984
 20
47.5402
 11
-2.21997
 21
53
  0
LINE
  8
0
 10
-2.21997
 20
53
 11
-5.45984
 21
58.4598
  0
LINE
  8
0
 10
-5.45984
 20
58.4598
 11
0
 21
55.22
  0
LINE
  8
0
 10
0
 20
55.22
 11
5.45984
 21
58.4598
  0
LINE
  8
0
 10
5.45984
 20
58.4598
 11
2.21997
 21
53
  0
LINE
  8
0
 10
2.21997
 20
53
 11
5.45984
 21
47.5402
  0
LINE
  8
0
 10
5.45984
 20
47.5402
 11
0
 21
50.78
  0
LINE
  8
0
 10
12
 20
50.6061
 11
6.66431
 21
47.6643
  0
LINE
  8
0
 10
6.66431
 20
47.6643
 11
9.60608
 21
53
  0
LINE
  8
0
 10
9.60608
 20
53
 11
6.66431
 21
58.3357
  0
LINE
  8
0
 10
6.66431
 20
58.3357
 11
12
 21
55.3939
  0
LINE
  8
0
 10
12
 20
55.3939
 11
17.3357
 21
58.3357
  0
LINE
  8
0
 10
17.3357
 20
58.3357
 11
14.3939
 21
53
  0
LINE
  8
0
 10
14.3939
 20
53
 11
17.3357
 21
47.6643
  0
LINE
  8
0
 10
17.3357
 20
47.6643
 11
12
 21
50.6061
  0
LINE
  8
0
 10
-12
 20
50.6061
 11
-17.3357
 21
47.6643
  0
LINE
  8
0
 10
-17.3357
 20
47.6643
 11
-14.3939
 21
53
  0
LINE
  8
0
 10
-14.3939
 20
53
 11
-17.3357
 21
58.3357
  0
LINE
  8
0
 10
-17.3357
 20
58.3357
 11
-12
 21
55.3939
  0
LINE
  8
0
 10
-12
 20
55.3939
 11
-6.66431
 21
58.3357
  0
LINE
  8
0
 10
-6.66431
 20
58.3357
 11
-9.60608
 21
53
  0
LINE
  8
0
 10
-9.60608
 20
53
 11
-6.66431
 21
47.6643
  0
LINE
  8
0
 10
-6.66431
 20
47.6643
 11
-12
 21
50.6061
  0
LINE
  8
0
 10
24
 20
50.2609
 11
18.9109
 21
47.9109
  0
LINE
  8
0
 10
18.9109
 20
47.9109
 11
21.2609
 21
53
  0
LINE
  8
0
 10
21.2609
 20
53
 11
18.9109
 21
58.0891
  0
LINE
  8
0
 10
18.9109
 20
58.0891
 11
24
 21
55.7391
  0
LINE
  8
0
 10
24
 20
55.7391
 11
29.0891
 21
58.0891
  0
LINE
  8
0
 10
29.0891
 20
58.0891
 11
26.7391
 21
53
  0
LINE
  8
0
 10
26.7391
 20
53
 11
29.0891
 21
47.9109
  0
LINE
  8
0
 10
29.0891
 20
47.9109
 11
24
 21
50.2609
  0
LINE
  8
0
 10
-24
 20
50.2609
 11
-29.0891
 21
47.9109
  0
LINE
  8
0
 10
-29.0891
 20
47.9109
 11
-26.7391
 21
53
  0
LINE
  8
0
 10
-26.7391
 20
53
 11
-29.0891
 21
58.0891
  0
LINE
  8
0
 10
-29.0891
 20
58.0891
 11
-24
 21
55.7391
  0
LINE
  8
0
 10
-24
 20
55.7391
 11
-18.9109
 21
58.0891
  0
LINE
  8
0
 10
-18.9109
 20
58.0891
 11
-21.2609
 21
53
  0
LINE
  8
0
 10
-21.2609
 20
53
 11
-18.9109
 21
47.9109
  0
LINE
  8
0
 10
-18.9109
 20
47.9109
 11
-24
 21
50.2609
  0
LINE
  8
0
 10
36
 20
49.872
 11
31.1887
 21
48.1887
  0
LINE
  8
0
 10
31.1887
 20
48.1887
 11
32.872
 21
53
  0
LINE
  8
0
 10
32.872
 20
53
 11
31.1887
 21
57.8113
  0
LINE
  8
0
 10
31.1887
 20
57.8113
 11
36
 21
56.128
  0
LINE
  8
0
 10
36
 20
56.128
 11
40.8113
 21
57.8113
  0
LINE
  8
0
 10
40.8113
 20
57.8113
 11
39.128
 21
53
  0
LINE
  8
0
 10
39.128
 20
53
 11
40.8113
 21
48.1887
  0
LINE
  8
0
 10
40.8113
 20
48.1887
 11
36
 21
49.872
  0
LINE
  8
0
 10
-36
 20
49.872
 11
-40.8113
 21
48.1887
  0
LINE
  8
0
 10
-40.8113
 20
48.1887
 11
-39.128
 21
53
  0
LINE
  8
0
 10
-39.128
 20
53
 11
-40.8113
 21
57.8113
  0
LINE
  8
0
 10
-40.8113
 20
57.8113
 11
-36
 21
56.128
  0
LINE
  8
0
 10
-36
 20
56.128
 11
-31.1887
 21
57.8113
  0
LINE
  8
0
 10
-31.1887
 20
57.8113
 11
-32.872
 21
53
  0
LINE
  8
0
 10
-32.872
 20
53
 11
-31.1887
 21
48.1887
  0
LINE
  8
0
 10
-31.1887
 20
48.1887
 11
-36
 21
49.872
  0
LINE
  8
0
 10
44.4684
 20
53
 11
43.4771
 21
57.5229
  0
LINE
  8
0
 10
43.4771
 20
57.5229
 11
43.7086
 21
57.4722
  0
LINE
  8
0
 10
43.7086
 20
57.4722
 11
46.4216
 21
49.1225
  0
LINE
  8
0
 10
46.4216
 20
49.1225
 11
43.4771
 21
48.4771
  0
LINE
  8
0
 10
43.4771
 20
48.4771
 11
44.4684
 21
53
  0
LINE
  8
0
 10
-46.4216
 20
49.1225
 11
-43.7086
 21
57.4722
  0
LINE
  8
0
 10
-43.7086
 20
57.4722
 11
-43.4771
 21
57.5229
  0
LINE
  8
0
 10
-43.4771
 20
57.5229
 11
-44.4684
 21
53
  0
LINE
  8
0
 10
-44.4684
 20
53
 11
-43.4771
 21
48.4771
  0
LINE
  8
0
 10
-43.4771
 20
48.4771
 11
-46.4216
 21
49.1225
  0
LINE
  8
0
 10
0
 20
38.3602
 11
-5.15991
 21
35.8401
  0
LINE
  8
0
 10
-5.15991
 20
35.8401
 11
-2.63983
 21
41
  0
LINE
  8
0
 10
-2.63983
 20
41
 11
-5.15991
 21
46.1599
  0
LINE
  8
0
 10
-5.15991
 20
46.1599
 11
0
 21
43.6398
  0
LINE
  8
0
 10
0
 20
43.6398
 11
5.15991
 21
46.1599
  0
LINE
  8
0
 10
5.15991
 20
46.1599
 11
2.63983
 21
41
  0
LINE
  8
0
 10
2.63983
 20
41
 11
5.15991
 21
35.8401
  0
LINE
  8
0
 10
5.15991
 20
35.8401
 11
0
 21
38.3602
  0
LINE
  8
0
 10
-12
 20
38.2609
 11
-17.0891
 21
35.9109
  0
LINE
  8
0
 10
-17.0891
 20
35.9109
 11
-14.7391
 21
41
  0
LINE
  8
0
 10
-14.7391
 20
41
 11
-17.0891
 21
46.0891
  0
LINE
  8
0
 10
-17.0891
 20
46.0891
 11
-12
 21
43.7391
  0
LINE
  8
0
 10
-12
 20
43.7391
 11
-6.91095
 21
46.0891
  0
LINE
  8
0
 10
-6.91095
 20
46.0891
 11
-9.26093
 21
41
  0
LINE
  8
0
 10
-9.26093
 20
41
 11
-6.91095
 21
35.9109
  0
LINE
  8
0
 10
-6.91095
 20
35.9109
 11
-12
 21
38.2609
  0
LINE
  8
0
 10
12
 20
38.2609
 11
6.91095
 21
35.9109
  0
LINE
  8
0
 10
6.91095
 20
35.9109
 11
9.26093
 21
41
  0
LINE
  8
0
 10
9.26093
 20
41
 11
6.91095
 21
46.0891
  0
LINE
  8
0
 10
6.91095
 20
46.0891
 11
12
 21
43.7391
  0
LINE
  8
0
 10
12
 20
43.7391
 11
17.0891
 21
46.0891
  0
LINE
  8
0
 10
17.0891
 20
46.0891
 11
14.7391
 21
41
  0
LINE
  8
0
 10
14.7391
 20
41
 11
17.0891
 21
35.9109
  0
LINE
  8
0
 10
17.0891
 20
35.9109
 11
12
 21
38.2609
  0
LINE
  8
0
 10
-24
 20
38.0121
 11
-28.9114
 21
36.0886
  0
LINE
  8
0
 10
-28.9114
 20
36.0886
 11
-26.9879
 21
41
  0
LINE
  8
0
 10
-26.9879
 20
41
 11
-28.9114
 21
45.9114
  0
LINE
  8
0
 10
-28.9114
 20
45.9114
 11
-24
 21
43.9879
  0
LINE
  8
0
 10
-24
 20
43.9879
 11
-19.0886
 21
45.9114
  0
LINE
  8
0
 10
-19.0886
 20
45.9114
 11
-21.0121
 21
41
  0
LINE
  8
0
 10
-21.0121
 20
41
 11
-19.0886
 21
36.0886
  0
LINE
  8
0
 10
-19.0886
 20
36.0886
 11
-24
 21
38.0121
  0
LINE
  8
0
 10
24
 20
38.0121
 11
19.0886
 21
36.0886
  0
LINE
  8
0
 10
19.0886
 20
36.0886
 11
21.0121
 21
41
  0
LINE
  8
0
 10
21.0121
 20
41
 11
19.0886
 21
45.9114
  0
LINE
  8
0
 10
19.0886
 20
45.9114
 11
24
 21
43.9879
  0
LINE
  8
0
 10
24
 20
43.9879
 11
28.9114
 21
45.9114
  0
LINE
  8
0
 10
28.9114
 20
45.9114
 11
26.9879
 21
41
  0
LINE
  8
0
 10
26.9879
 20
41
 11
28.9114
 21
36.0886
  0
LINE
  8
0
 10
28.9114
 20
36.0886
 11
24
 21
38.0121
  0
LINE
  8
0
 10
-36
 20
37.6858
 11
-40.6782
 21
36.3218
  0
LINE
  8
0
 10
-40.6782
 20
36.3218
 11
-39.3142
 21
41
  0
LINE
  8
0
 10
-39.3142
 20
41
 11
-40.6782
 21
45.6782
  0
LINE
  8
0
 10
-40.6782
 20
45.6782
 11
-36
 21
44.3142
  0
LINE
  8
0
 10
-36
 20
44.3142
 11
-31.3218
 21
45.6782
  0
LINE
  8
0
 10
-31.3218
 20
45.6782
 11
-32.6858
 21
41
  0
LINE
  8
0
 10
-32.6858
 20
41
 11
-31.3218
 21
36.3218
  0
LINE
  8
0
 10
-31.3218
 20
36.3218
 11
-36
 21
37.6858
  0
LINE
  8
0
 10
36
 20
37.6858
 11
31.3218
 21
36.3218
  0
LINE
  8
0
 10
31.3218
 20
36.3218
 11
32.6858
 21
41
  0
LINE
  8
0
 10
32.6858
 20
41
 11
31.3218
 21
45.6782
  0
LINE
  8
0
 10
31.3218
 20
45.6782
 11
36
 21
44.3142
  0
LINE
  8
0
 10
36
 20
44.3142
 11
40.6782
 21
45.6782
  0
LINE
  8
0
 10
40.6782
 20
45.6782
 11
39.3142
 21
41
  0
LINE
  8
0
 10
39.3142
 20
41
 11
40.6782
 21
36.3218
  0
LINE
  8
0
 10
40.6782
 20
36.3218
 11
36
 21
37.6858
  0
LINE
  8
0
 10
44.3218
 20
41
 11
43.5817
 21
45.4183
  0
LINE
  8
0
 10
43.5817
 20
45.4183
 11
47.8579
 21
44.702
  0
LINE
  8
0
 10
47.8579
 20
44.702
 11
50.3857
 21
36.9221
  0
LINE
  8
0
 10
50.3857
 20
36.9221
 11
48
 21
37.3218
  0
LINE
  8
0
 10
48
 20
37.3218
 11
43.5817
 21
36.5817
  0
LINE
  8
0
 10
43.5817
 20
36.5817
 11
44.3218
 21
41
  0
LINE
  8
0
 10
-48
 20
37.3218
 11
-50.3857
 21
36.9221
  0
LINE
  8
0
 10
-50.3857
 20
36.9221
 11
-47.8579
 21
44.702
  0
LINE
  8
0
 10
-47.8579
 20
44.702
 11
-43.5817
 21
45.4183
  0
LINE
  8
0
 10
-43.5817
 20
45.4183
 11
-44.3218
 21
41
  0
LINE
  8
0
 10
-44.3218
 20
41
 11
-43.5817
 21
36.5817
  0
LINE
  8
0
 10
-43.5817
 20
36.5817
 11
-48
 21
37.3218
  0
LINE
  8
0
 10
0
 20
25.9401
 11
-4.85999
 21
24.14
  0
LINE
  8
0
 10
-4.85999
 20
24.14
 11
-3.05988
 21
29
  0
LINE
  8
0
 10
-3.05988
 20
29
 11
-4.85999
 21
33.86
  0
LINE
  8
0
 10
-4.85999
 20
33.86
 11
0
 21
32.0599
  0
LINE
  8
0
 10
0
 20
32.0599
 11
4.85999
 21
33.86
  0
LINE
  8
0
 10
4.85999
 20
33.86
 11
3.05988
 21
29
  0
LINE
  8
0
 10
3.05988
 20
29
 11
4.85999
 21
24.14
  0
LINE
  8
0
 10
4.85999
 20
24.14
 11
0
 21
25.9401
  0
LINE
  8
0
 10
-12
 20
25.872
 11
-16.8113
 21
24.1887
  0
LINE
  8
0
 10
-16.8113
 20
24.1887
 11
-15.128
 21
29
  0
LINE
  8
0
 10
-15.128
 20
29
 11
-16.8113
 21
33.8113
  0
LINE
  8
0
 10
-16.8113
 20
33.8113
 11
-12
 21
32.128
  0
LINE
  8
0
 10
-12
 20
32.128
 11
-7.18872
 21
33.8113
  0
LINE
  8
0
 10
-7.18872
 20
33.8113
 11
-8.87201
 21
29
  0
LINE
  8
0
 10
-8.87201
 20
29
 11
-7.18872
 21
24.1887
  0
LINE
  8
0
 10
-7.18872
 20
24.1887
 11
-12
 21
25.872
  0
LINE
  8
0
 10
12
 20
25.872
 11
7.18872
 21
24.1887
  0
LINE
  8
0
 10
7.18872
 20
24.1887
 11
8.87201
 21
29
  0
LINE
  8
0
 10
8.87201
 20
29
 11
7.18872
 21
33.8113
  0
LINE
  8
0
 10
7.18872
 20
33.8113
 11
12
 21
32.128
  0
LINE
  8
0
 10
12
 20
32.128
 11
16.8113
 21
33.8113
  0
LINE
  8
0
 10
16.8113
 20
33.8113
 11
15.128
 21
29
  0
LINE
  8
0
 10
15.128
 20
29
 11
16.8113
 21
24.1887
  0
LINE
  8
0
 10
16.8113
 20
24.1887
 11
12
 21
25.872
  0
LINE
  8
0
 10
24
 20
25.6858
 11
19.3218
 21
24.3218
  0
LINE
  8
0
 10
19.3218
 20
24.3218
 11
20.6858
 21
29
  0
LINE
  8
0
 10
20.6858
 20
29
 11
19.3218
 21
33.6782
  0
LINE
  8
0
 10
19.3218
 20
33.6782
 11
24
 21
32.3142
  0
LINE
  8
0
 10
24
 20
32.3142
 11
28.6782
 21
33.6782
  0
LINE
  8
0
 10
28.6782
 20
33.6782
 11
27.3142
 21
29
  0
LINE
  8
0
 10
27.3142
 20
29
 11
28.6782
 21
24.3218
  0
LINE
  8
0
 10
28.6782
 20
24.3218
 11
24
 21
25.6858
  0
LINE
  8
0
 10
-24
 20
25.6858
 11
-28.6782
 21
24.3218
  0
LINE
  8
0
 10
-28.6782
 20
24.3218
 11
-27.3142
 21
29
  0
LINE
  8
0
 10
-27.3142
 20
29
 11
-28.6782
 21
33.6782
  0
LINE
  8
0
 10
-28.6782
 20
33.6782
 11
-24
 21
32.3142
  0
LINE
  8
0
 10
-24
 20
32.3142
 11
-19.3218
 21
33.6782
  0
LINE
  8
0
 10
-19.3218
 20
33.6782
 11
-20.6858
 21
29
  0
LINE
  8
0
 10
-20.6858
 20
29
 11
-19.3218
 21
24.3218
  0
LINE
  8
0
 10
-19.3218
 20
24.3218
 11
-24
 21
25.6858
  0
LINE
  8
0
 10
36
 20
25.4183
 11
31.5128
 21
24.5128
  0
LINE
  8
0
 10
31.5128
 20
24.5128
 11
32.4183
 21
29
  0
LINE
  8
0
 10
32.4183
 20
29
 11
31.5128
 21
33.4872
  0
LINE
  8
0
 10
31.5128
 20
33.4872
 11
36
 21
32.5817
  0
LINE
  8
0
 10
36
 20
32.5817
 11
40.4872
 21
33.4872
  0
LINE
  8
0
 10
40.4872
 20
33.4872
 11
39.5817
 21
29
  0
LINE
  8
0
 10
39.5817
 20
29
 11
40.4872
 21
24.5128
  0
LINE
  8
0
 10
40.4872
 20
24.5128
 11
36
 21
25.4183
  0
LINE
  8
0
 10
-36
 20
25.4183
 11
-40.4872
 21
24.5128
  0
LINE
  8
0
 10
-40.4872
 20
24.5128
 11
-39.5817
 21
29
  0
LINE
  8
0
 10
-39.5817
 20
29
 11
-40.4872
 21
33.4872
  0
LINE
  8
0
 10
-40.4872
 20
33.4872
 11
-36
 21
32.5817
  0
LINE
  8
0
 10
-36
 20
32.5817
 11
-31.5128
 21
33.4872
  0
LINE
  8
0
 10
-31.5128
 20
33.4872
 11
-32.4183
 21
29
  0
LINE
  8
0
 10
-32.4183
 20
29
 11
-31.5128
 21
24.5128
  0
LINE
  8
0
 10
-31.5128
 20
24.5128
 11
-36
 21
25.4183
  0
LINE
  8
0
 10
-48
 20
25.1
 11
-52.2599
 21
24.7401
  0
LINE
  8
0
 10
-52.2599
 20
24.7401
 11
-51.9
 21
29
  0
LINE
  8
0
 10
-51.9
 20
29
 11
-52.1187
 21
31.5885
  0
LINE
  8
0
 10
-52.1187
 20
31.5885
 11
-51.5939
 21
33.2037
  0
LINE
  8
0
 10
-51.5939
 20
33.2037
 11
-48
 21
32.9
  0
LINE
  8
0
 10
-48
 20
32.9
 11
-43.7401
 21
33.2599
  0
LINE
  8
0
 10
-43.7401
 20
33.2599
 11
-44.1
 21
29
  0
LINE
  8
0
 10
-44.1
 20
29
 11
-43.7401
 21
24.7401
  0
LINE
  8
0
 10
-43.7401
 20
24.7401
 11
-48
 21
25.1
  0
LINE
  8
0
 10
48
 20
25.1
 11
43.7401
 21
24.7401
  0
LINE
  8
0
 10
43.7401
 20
24.7401
 11
44.1
 21
29
  0
LINE
  8
0
 10
44.1
 20
29
 11
43.7401
 21
33.2599
  0
LINE
  8
0
 10
43.7401
 20
33.2599
 11
48
 21
32.9
  0
LINE
  8
0
 10
48
 20
32.9
 11
51.5939
 21
33.2037
  0
LINE
  8
0
 10
51.5939
 20
33.2037
 11
52.1187
 21
31.5885
  0
LINE
  8
0
 10
52.1187
 20
31.5885
 11
51.9
 21
29
  0
LINE
  8
0
 10
51.9
 20
29
 11
52.2599
 21
24.7401
  0
LINE
  8
0
 10
52.2599
 20
24.7401
 11
48
 21
25.1
  0
LINE
  8
0
 10
0
 20
13.5201
 11
-4.55988
 21
12.4401
  0
LINE
  8
0
 10
-4.55988
 20
12.4401
 11
-3.47992
 21
17
  0
LINE
  8
0
 10
-3.47992
 20
17
 11
-4.55988
 21
21.5599
  0
LINE
  8
0
 10
-4.55988
 20
21.5599
 11
0
 21
20.4799
  0
LINE
  8
0
 10
0
 20
20.4799
 11
4.55988
 21
21.5599
  0
LINE
  8
0
 10
4.55988
 20
21.5599
 11
3.47992
 21
17
  0
LINE
  8
0
 10
3.47992
 20
17
 11
4.55988
 21
12.4401
  0
LINE
  8
0
 10
4.55988
 20
12.4401
 11
0
 21
13.5201
  0
LINE
  8
0
 10
-12
 20
13.4684
 11
-16.5229
 21
12.4771
  0
LINE
  8
0
 10
-16.5229
 20
12.4771
 11
-15.5316
 21
17
  0
LINE
  8
0
 10
-15.5316
 20
17
 11
-16.5229
 21
21.5229
  0
LINE
  8
0
 10
-16.5229
 20
21.5229
 11
-12
 21
20.5316
  0
LINE
  8
0
 10
-12
 20
20.5316
 11
-7.47711
 21
21.5229
  0
LINE
  8
0
 10
-7.47711
 20
21.5229
 11
-8.46844
 21
17
  0
LINE
  8
0
 10
-8.46844
 20
17
 11
-7.47711
 21
12.4771
  0
LINE
  8
0
 10
-7.47711
 20
12.4771
 11
-12
 21
13.4684
  0
LINE
  8
0
 10
12
 20
13.4684
 11
7.47711
 21
12.4771
  0
LINE
  8
0
 10
7.47711
 20
12.4771
 11
8.46844
 21
17
  0
LINE
  8
0
 10
8.46844
 20
17
 11
7.47711
 21
21.5229
  0
LINE
  8
0
 10
7.47711
 20
21.5229
 11
12
 21
20.5316
  0
LINE
  8
0
 10
12
 20
20.5316
 11
16.5229
 21
21.5229
  0
LINE
  8
0
 10
16.5229
 20
21.5229
 11
15.5316
 21
17
  0
LINE
  8
0
 10
15.5316
 20
17
 11
16.5229
 21
12.4771
  0
LINE
  8
0
 10
16.5229
 20
12.4771
 11
12
 21
13.4684
  0
LINE
  8
0
 10
-24
 20
13.3218
 11
-28.4183
 21
12.5817
  0
LINE
  8
0
 10
-28.4183
 20
12.5817
 11
-27.6782
 21
17
  0
LINE
  8
0
 10
-27.6782
 20
17
 11
-28.4183
 21
21.4183
  0
LINE
  8
0
 10
-28.4183
 20
21.4183
 11
-24
 21
20.6782
  0
LINE
  8
0
 10
-24
 20
20.6782
 11
-19.5817
 21
21.4183
  0
LINE
  8
0
 10
-19.5817
 20
21.4183
 11
-20.3218
 21
17
  0
LINE
  8
0
 10
-20.3218
 20
17
 11
-19.5817
 21
12.5817
  0
LINE
  8
0
 10
-19.5817
 20
12.5817
 11
-24
 21
13.3218
  0
LINE
  8
0
 10
24
 20
13.3218
 11
19.5817
 21
12.5817
  0
LINE
  8
0
 10
19.5817
 20
12.5817
 11
20.3218
 21
17
  0
LINE
  8
0
 10
20.3218
 20
17
 11
19.5817
 21
21.4183
  0
LINE
  8
0
 10
19.5817
 20
21.4183
 11
24
 21
20.6782
  0
LINE
  8
0
 10
24
 20
20.6782
 11
28.4183
 21
21.4183
  0
LINE
  8
0
 10
28.4183
 20
21.4183
 11
27.6782
 21
17
  0
LINE
  8
0
 10
27.6782
 20
17
 11
28.4183
 21
12.5817
  0
LINE
  8
0
 10
28.4183
 20
12.5817
 11
24
 21
13.3218
  0
LINE
  8
0
 10
-36
 20
13.1
 11
-40.2599
 21
12.7401
  0
LINE
  8
0
 10
-40.2599
 20
12.7401
 11
-39.9
 21
17
  0
LINE
  8
0
 10
-39.9
 20
17
 11
-40.2599
 21
21.2599
  0
LINE
  8
0
 10
-40.2599
 20
21.2599
 11
-36
 21
20.9
  0
LINE
  8
0
 10
-36
 20
20.9
 11
-31.7401
 21
21.2599
  0
LINE
  8
0
 10
-31.7401
 20
21.2599
 11
-32.1
 21
17
  0
LINE
  8
0
 10
-32.1
 20
17
 11
-31.7401
 21
12.7401
  0
LINE
  8
0
 10
-31.7401
 20
12.7401
 11
-36
 21
13.1
  0
LINE
  8
0
 10
36
 20
13.1
 11
31.7401
 21
12.7401
  0
LINE
  8
0
 10
31.7401
 20
12.7401
 11
32.1
 21
17
  0
LINE
  8
0
 10
32.1
 20
17
 11
31.7401
 21
21.2599
  0
LINE
  8
0
 10
31.7401
 20
21.2599
 11
36
 21
20.9
  0
LINE
  8
0
 10
36
 20
20.9
 11
40.2599
 21
21.2599
  0
LINE
  8
0
 10
40.2599
 20
21.2599
 11
39.9
 21
17
  0
LINE
  8
0
 10
39.9
 20
17
 11
40.2599
 21
12.7401
  0
LINE
  8
0
 10
40.2599
 20
12.7401
 11
36
 21
13.1
  0
LINE
  8
0
 10
-52.0629
 20
12.9371
 11
-52.1757
 21
17
  0
LINE
  8
0
 10
-52.1757
 20
17
 11
-52.0629
 21
21.0629
  0
LINE
  8
0
 10
-52.0629
 20
21.0629
 11
-48
 21
21.1757
  0
LINE
  8
0
 10
-48
 20
21.1757
 11
-43.9371
 21
21.0629
  0
LINE
  8
0
 10
-43.9371
 20
21.0629
 11
-43.8243
 21
17
  0
LINE
  8
0
 10
-43.8243
 20
17
 11
-43.9371
 21
12.9371
  0
LINE
  8
0
 10
-43.9371
 20
12.9371
 11
-48
 21
12.8243
  0
LINE
  8
0
 10
-48
 20
12.8243
 11
-52.0629
 21
12.9371
  0
LINE
  8
0
 10
43.9371
 20
12.9371
 11
43.8243
 21
17
  0
LINE
  8
0
 10
43.8243
 20
17
 11
43.9371
 21
21.0629
  0
LINE
  8
0
 10
43.9371
 20
21.0629
 11
48
 21
21.1757
  0
LINE
  8
0
 10
48
 20
21.1757
 11
52.0629
 21
21.0629
  0
LINE
  8
0
 10
52.0629
 20
21.0629
 11
52.1757
 21
17
  0
LINE
  8
0
 10
52.1757
 20
17
 11
52.0629
 21
12.9371
  0
LINE
  8
0
 10
52.0629
 20
12.9371
 11
48
 21
12.8243
  0
LINE
  8
0
 10
48
 20
12.8243
 11
43.9371
 21
12.9371
  0
LINE
  8
0
 10
-55.9727
 20
19.7272
 11
-55.5108
 21
17
  0
LINE
  8
0
 10
-55.5108
 20
17
 11
-56.161
 21
13.161
  0
LINE
  8
0
 10
-56.161
 20
13.161
 11
-58.2195
 21
12.8124
  0
LINE
  8
0
 10
-58.2195
 20
12.8124
 11
-55.9727
 21
19.7272
  0
LINE
  8
0
 10
56.161
 20
13.161
 11
55.5108
 21
17
  0
LINE
  8
0
 10
55.5108
 20
17
 11
55.9727
 21
19.7272
  0
LINE
  8
0
 10
55.9727
 20
19.7272
 11
58.2195
 21
12.8124
  0
LINE
  8
0
 10
58.2195
 20
12.8124
 11
56.161
 21
13.161
  0
LINE
  8
0
 10
-10
 20
7
 11
-10
 21
11
  0
LINE
  8
0
 10
-10
 20
11
 11
10
 21
11
  0
LINE
  8
0
 10
10
 20
11
 11
10
 21
7
  0
LINE
  8
0
 10
10
 20
7
 11
-10
 21
7
  0
LINE
  8
0
 10
-68.6534
 20
2.70622
 11
-68.7785
 21
2.71805
  0
LINE
  8
0
 10
-68.7785
 20
2.71805
 11
-68.9026
 21
2.7377
  0
LINE
  8
0
 10
-68.9026
 20
2.7377
 11
-69.0252
 21
2.76511
  0
LINE
  8
0
 10
-69.0252
 20
2.76511
 11
-69.1459
 21
2.80016
  0
LINE
  8
0
 10
-69.1459
 20
2.80016
 11
-69.2641
 21
2.84273
  0
LINE
  8
0
 10
-69.2641
 20
2.84273
 11
-69.3794
 21
2.89262
  0
LINE
  8
0
 10
-69.3794
 20
2.89262
 11
-69.4914
 21
2.94966
  0
LINE
  8
0
 10
-69.4914
 20
2.94966
 11
-69.5995
 21
3.01363
  0
LINE
  8
0
 10
-69.5995
 20
3.01363
 11
-69.7034
 21
3.08424
  0
LINE
  8
0
 10
-69.7034
 20
3.08424
 11
-69.8027
 21
3.16125
  0
LINE
  8
0
 10
-69.8027
 20
3.16125
 11
-69.897
 21
3.24434
  0
LINE
  8
0
 10
-69.897
 20
3.24434
 11
-69.9858
 21
3.33318
  0
LINE
  8
0
 10
-69.9858
 20
3.33318
 11
-70.0689
 21
3.42743
  0
LINE
  8
0
 10
-70.0689
 20
3.42743
 11
-70.1459
 21
3.5267
  0
LINE
  8
0
 10
-70.1459
 20
3.5267
 11
-70.2165
 21
3.63062
  0
LINE
  8
0
 10
-70.2165
 20
3.63062
 11
-70.2805
 21
3.73877
  0
LINE
  8
0
 10
-70.2805
 20
3.73877
 11
-70.3375
 21
3.85072
  0
LINE
  8
0
 10
-70.3375
 20
3.85072
 11
-70.3874
 21
3.96602
  0
LINE
  8
0
 10
-70.3874
 20
3.96602
 11
-70.43
 21
4.08424
  0
LINE
  8
0
 10
-70.43
 20
4.08424
 11
-70.465
 21
4.2049
  0
LINE
  8
0
 10
-70.465
 20
4.2049
 11
-70.4924
 21
4.32751
  0
LINE
  8
0
 10
-70.4924
 20
4.32751
 11
-70.5121
 21
4.45161
  0
LINE
  8
0
 10
-70.5121
 20
4.45161
 11
-70.5239
 21
4.57669
  0
LINE
  8
0
 10
-70.5239
 20
4.57669
 11
-70.5279
 21
4.70227
  0
LINE
  8
0
 10
-70.5279
 20
4.70227
 11
-70.5239
 21
4.82785
  0
LINE
  8
0
 10
-70.5239
 20
4.82785
 11
-70.5121
 21
4.95294
  0
LINE
  8
0
 10
-70.5121
 20
4.95294
 11
-70.4924
 21
5.07704
  0
LINE
  8
0
 10
-70.4924
 20
5.07704
 11
-70.465
 21
5.19966
  0
LINE
  8
0
 10
-70.465
 20
5.19966
 11
-70.43
 21
5.32031
  0
LINE
  8
0
 10
-70.43
 20
5.32031
 11
-70.3874
 21
5.43852
  0
LINE
  8
0
 10
-70.3874
 20
5.43852
 11
-70.3375
 21
5.55383
  0
LINE
  8
0
 10
-70.3375
 20
5.55383
 11
-70.2805
 21
5.66579
  0
LINE
  8
0
 10
-70.2805
 20
5.66579
 11
-70.2165
 21
5.77393
  0
LINE
  8
0
 10
-70.2165
 20
5.77393
 11
-70.1459
 21
5.87784
  0
LINE
  8
0
 10
-70.1459
 20
5.87784
 11
-70.0689
 21
5.97713
  0
LINE
  8
0
 10
-70.0689
 20
5.97713
 11
-69.9858
 21
6.07137
  0
LINE
  8
0
 10
-69.9858
 20
6.07137
 11
-69.897
 21
6.16022
  0
LINE
  8
0
 10
-69.897
 20
6.16022
 11
-69.8027
 21
6.2433
  0
LINE
  8
0
 10
-69.8027
 20
6.2433
 11
-69.7034
 21
6.32031
  0
LINE
  8
0
 10
-69.7034
 20
6.32031
 11
-69.5995
 21
6.39093
  0
LINE
  8
0
 10
-69.5995
 20
6.39093
 11
-69.4914
 21
6.4549
  0
LINE
  8
0
 10
-69.4914
 20
6.4549
 11
-69.3794
 21
6.51193
  0
LINE
  8
0
 10
-69.3794
 20
6.51193
 11
-69.2641
 21
6.56183
  0
LINE
  8
0
 10
-69.2641
 20
6.56183
 11
-69.1459
 21
6.60439
  0
LINE
  8
0
 10
-69.1459
 20
6.60439
 11
-69.0252
 21
6.63943
  0
LINE
  8
0
 10
-69.0252
 20
6.63943
 11
-68.9026
 21
6.66685
  0
LINE
  8
0
 10
-68.9026
 20
6.66685
 11
-68.7785
 21
6.68651
  0
LINE
  8
0
 10
-68.7785
 20
6.68651
 11
-68.6534
 21
6.69833
  0
LINE
  8
0
 10
-68.6534
 20
6.69833
 11
-68.5279
 21
6.70227
  0
LINE
  8
0
 10
-68.5279
 20
6.70227
 11
-68.4023
 21
6.69833
  0
LINE
  8
0
 10
-68.4023
 20
6.69833
 11
-68.2772
 21
6.68651
  0
LINE
  8
0
 10
-68.2772
 20
6.68651
 11
-68.1531
 21
6.66685
  0
LINE
  8
0
 10
-68.1531
 20
6.66685
 11
-68.0305
 21
6.63943
  0
LINE
  8
0
 10
-68.0305
 20
6.63943
 11
-67.9098
 21
6.60439
  0
LINE
  8
0
 10
-67.9098
 20
6.60439
 11
-67.7916
 21
6.56183
  0
LINE
  8
0
 10
-67.7916
 20
6.56183
 11
-67.6763
 21
6.51193
  0
LINE
  8
0
 10
-67.6763
 20
6.51193
 11
-67.5643
 21
6.4549
  0
LINE
  8
0
 10
-67.5643
 20
6.4549
 11
-67.4562
 21
6.39093
  0
LINE
  8
0
 10
-67.4562
 20
6.39093
 11
-67.3523
 21
6.32031
  0
LINE
  8
0
 10
-67.3523
 20
6.32031
 11
-67.253
 21
6.2433
  0
LINE
  8
0
 10
-67.253
 20
6.2433
 11
-67.1588
 21
6.16022
  0
LINE
  8
0
 10
-67.1588
 20
6.16022
 11
-67.0699
 21
6.07137
  0
LINE
  8
0
 10
-67.0699
 20
6.07137
 11
-66.9868
 21
5.97713
  0
LINE
  8
0
 10
-66.9868
 20
5.97713
 11
-66.9098
 21
5.87784
  0
LINE
  8
0
 10
-66.9098
 20
5.87784
 11
-66.8392
 21
5.77393
  0
LINE
  8
0
 10
-66.8392
 20
5.77393
 11
-66.7752
 21
5.66579
  0
LINE
  8
0
 10
-66.7752
 20
5.66579
 11
-66.7182
 21
5.55383
  0
LINE
  8
0
 10
-66.7182
 20
5.55383
 11
-66.6683
 21
5.43852
  0
LINE
  8
0
 10
-66.6683
 20
5.43852
 11
-66.6257
 21
5.32031
  0
LINE
  8
0
 10
-66.6257
 20
5.32031
 11
-66.5907
 21
5.19966
  0
LINE
  8
0
 10
-66.5907
 20
5.19966
 11
-66.5633
 21
5.07704
  0
LINE
  8
0
 10
-66.5633
 20
5.07704
 11
-66.5436
 21
4.95294
  0
LINE
  8
0
 10
-66.5436
 20
4.95294
 11
-66.5318
 21
4.82785
  0
LINE
  8
0
 10
-66.5318
 20
4.82785
 11
-66.5279
 21
4.70227
  0
LINE
  8
0
 10
-66.5279
 20
4.70227
 11
-66.5318
 21
4.57669
  0
LINE
  8
0
 10
-66.5318
 20
4.57669
 11
-66.5436
 21
4.45161
  0
LINE
  8
0
 10
-66.5436
 20
4.45161
 11
-66.5633
 21
4.32751
  0
LINE
  8
0
 10
-66.5633
 20
4.32751
 11
-66.5907
 21
4.2049
  0
LINE
  8
0
 10
-66.5907
 20
4.2049
 11
-66.6257
 21
4.08424
  0
LINE
  8
0
 10
-66.6257
 20
4.08424
 11
-66.6683
 21
3.96602
  0
LINE
  8
0
 10
-66.6683
 20
3.96602
 11
-66.7182
 21
3.85072
  0
LINE
  8
0
 10
-66.7182
 20
3.85072
 11
-66.7752
 21
3.73877
  0
LINE
  8
0
 10
-66.7752
 20
3.73877
 11
-66.8392
 21
3.63062
  0
LINE
  8
0
 10
-66.8392
 20
3.63062
 11
-66.9098
 21
3.5267
  0
LINE
  8
0
 10
-66.9098
 20
3.5267
 11
-66.9868
 21
3.42743
  0
LINE
  8
0
 10
-66.9868
 20
3.42743
 11
-67.0699
 21
3.33318
  0
LINE
  8
0
 10
-67.0699
 20
3.33318
 11
-67.1588
 21
3.24434
  0
LINE
  8
0
 10
-67.1588
 20
3.24434
 11
-67.253
 21
3.16125
  0
LINE
  8
0
 10
-67.253
 20
3.16125
 11
-67.3523
 21
3.08424
  0
LINE
  8
0
 10
-67.3523
 20
3.08424
 11
-67.4562
 21
3.01363
  0
LINE
  8
0
 10
-67.4562
 20
3.01363
 11
-67.5643
 21
2.94966
  0
LINE
  8
0
 10
-67.5643
 20
2.94966
 11
-67.6763
 21
2.89262
  0
LINE
  8
0
 10
-67.6763
 20
2.89262
 11
-67.7916
 21
2.84273
  0
LINE
  8
0
 10
-67.7916
 20
2.84273
 11
-67.9098
 21
2.80016
  0
LINE
  8
0
 10
-67.9098
 20
2.80016
 11
-68.0305
 21
2.76511
  0
LINE
  8
0
 10
-68.0305
 20
2.76511
 11
-68.1531
 21
2.7377
  0
LINE
  8
0
 10
-68.1531
 20
2.7377
 11
-68.2772
 21
2.71805
  0
LINE
  8
0
 10
-68.2772
 20
2.71805
 11
-68.4023
 21
2.70622
  0
LINE
  8
0
 10
-68.4023
 20
2.70622
 11
-68.5279
 21
2.70227
  0
LINE
  8
0
 10
-68.5279
 20
2.70227
 11
-68.6534
 21
2.70622
  0
LINE
  8
0
 10
68.4023
 20
2.70622
 11
68.2772
 21
2.71805
  0
LINE
  8
0
 10
68.2772
 20
2.71805
 11
68.1531
 21
2.7377
  0
LINE
  8
0
 10
68.1531
 20
2.7377
 11
68.0305
 21
2.76511
  0
LINE
  8
0
 10
68.0305
 20
2.76511
 11
67.9098
 21
2.80016
  0
LINE
  8
0
 10
67.9098
 20
2.80016
 11
67.7916
 21
2.84273
  0
LINE
  8
0
 10
67.7916
 20
2.84273
 11
67.6763
 21
2.89262
  0
LINE
  8
0
 10
67.6763
 20
2.89262
 11
67.5643
 21
2.94966
  0
LINE
  8
0
 10
67.5643
 20
2.94966
 11
67.4562
 21
3.01363
  0
LINE
  8
0
 10
67.4562
 20
3.01363
 11
67.3523
 21
3.08424
  0
LINE
  8
0
 10
67.3523
 20
3.08424
 11
67.253
 21
3.16125
  0
LINE
  8
0
 10
67.253
 20
3.16125
 11
67.1588
 21
3.24434
  0
LINE
  8
0
 10
67.1588
 20
3.24434
 11
67.0699
 21
3.33318
  0
LINE
  8
0
 10
67.0699
 20
3.33318
 11
66.9868
 21
3.42743
  0
LINE
  8
0
 10
66.9868
 20
3.42743
 11
66.9098
 21
3.5267
  0
LINE
  8
0
 10
66.9098
 20
3.5267
 11
66.8392
 21
3.63062
  0
LINE
  8
0
 10
66.8392
 20
3.63062
 11
66.7752
 21
3.73877
  0
LINE
  8
0
 10
66.7752
 20
3.73877
 11
66.7182
 21
3.85072
  0
LINE
  8
0
 10
66.7182
 20
3.85072
 11
66.6683
 21
3.96602
  0
LINE
  8
0
 10
66.6683
 20
3.96602
 11
66.6257
 21
4.08424
  0
LINE
  8
0
 10
66.6257
 20
4.08424
 11
66.5907
 21
4.2049
  0
LINE
  8
0
 10
66.5907
 20
4.2049
 11
66.5633
 21
4.32751
  0
LINE
  8
0
 10
66.5633
 20
4.32751
 11
66.5436
 21
4.45161
  0
LINE
  8
0
 10
66.5436
 20
4.45161
 11
66.5318
 21
4.57669
  0
LINE
  8
0
 10
66.5318
 20
4.57669
 11
66.5279
 21
4.70227
  0
LINE
  8
0
 10
66.5279
 20
4.70227
 11
66.5318
 21
4.82785
  0
LINE
  8
0
 10
66.5318
 20
4.82785
 11
66.5436
 21
4.95294
  0
LINE
  8
0
 10
66.5436
 20
4.95294
 11
66.5633
 21
5.07704
  0
LINE
  8
0
 10
66.5633
 20
5.07704
 11
66.5907
 21
5.19966
  0
LINE
  8
0
 10
66.5907
 20
5.19966
 11
66.6257
 21
5.32031
  0
LINE
  8
0
 10
66.6257
 20
5.32031
 11
66.6683
 21
5.43852
  0
LINE
  8
0
 10
66.6683
 20
5.43852
 11
66.7182
 21
5.55383
  0
LINE
  8
0
 10
66.7182
 20
5.55383
 11
66.7752
 21
5.66579
  0
LINE
  8
0
 10
66.7752
 20
5.66579
 11
66.8392
 21
5.77393
  0
LINE
  8
0
 10
66.8392
 20
5.77393
 11
66.9098
 21
5.87784
  0
LINE
  8
0
 10
66.9098
 20
5.87784
 11
66.9868
 21
5.97713
  0
LINE
  8
0
 10
66.9868
 20
5.97713
 11
67.0699
 21
6.07137
  0
LINE
  8
0
 10
67.0699
 20
6.07137
 11
67.1588
 21
6.16022
  0
LINE
  8
0
 10
67.1588
 20
6.16022
 11
67.253
 21
6.2433
  0
LINE
  8
0
 10
67.253
 20
6.2433
 11
67.3523
 21
6.32031
  0
LINE
  8
0
 10
67.3523
 20
6.32031
 11
67.4562
 21
6.39093
  0
LINE
  8
0
 10
67.4562
 20
6.39093
 11
67.5643
 21
6.4549
  0
LINE
  8
0
 10
67.5643
 20
6.4549
 11
67.6763
 21
6.51193
  0
LINE
  8
0
 10
67.6763
 20
6.51193
 11
67.7916
 21
6.56183
  0
LINE
  8
0
 10
67.7916
 20
6.56183
 11
67.9098
 21
6.60439
  0
LINE
  8
0
 10
67.9098
 20
6.60439
 11
68.0305
 21
6.63943
  0
LINE
  8
0
 10
68.0305
 20
6.63943
 11
68.1531
 21
6.66685
  0
LINE
  8
0
 10
68.1531
 20
6.66685
 11
68.2772
 21
6.68651
  0
LINE
  8
0
 10
68.2772
 20
6.68651
 11
68.4023
 21
6.69833
  0
LINE
  8
0
 10
68.4023
 20
6.69833
 11
68.5279
 21
6.70227
  0
LINE
  8
0
 10
68.5279
 20
6.70227
 11
68.6534
 21
6.69833
  0
LINE
  8
0
 10
68.6534
 20
6.69833
 11
68.7785
 21
6.68651
  0
LINE
  8
0
 10
68.7785
 20
6.68651
 11
68.9026
 21
6.66685
  0
LINE
  8
0
 10
68.9026
 20
6.66685
 11
69.0252
 21
6.63943
  0
LINE
  8
0
 10
69.0252
 20
6.63943
 11
69.1459
 21
6.60439
  0
LINE
  8
0
 10
69.1459
 20
6.60439
 11
69.2641
 21
6.56183
  0
LINE
  8
0
 10
69.2641
 20
6.56183
 11
69.3794
 21
6.51193
  0
LINE
  8
0
 10
69.3794
 20
6.51193
 11
69.4914
 21
6.4549
  0
LINE
  8
0
 10
69.4914
 20
6.4549
 11
69.5995
 21
6.39093
  0
LINE
  8
0
 10
69.5995
 20
6.39093
 11
69.7034
 21
6.32031
  0
LINE
  8
0
 10
69.7034
 20
6.32031
 11
69.8027
 21
6.2433
  0
LINE
  8
0
 10
69.8027
 20
6.2433
 11
69.897
 21
6.16022
  0
LINE
  8
0
 10
69.897
 20
6.16022
 11
69.9858
 21
6.07137
  0
LINE
  8
0
 10
69.9858
 20
6.07137
 11
70.0689
 21
5.97713
  0
LINE
  8
0
 10
70.0689
 20
5.97713
 11
70.1459
 21
5.87784
  0
LINE
  8
0
 10
70.1459
 20
5.87784
 11
70.2165
 21
5.77393
  0
LINE
  8
0
 10
70.2165
 20
5.77393
 11
70.2805
 21
5.66579
  0
LINE
  8
0
 10
70.2805
 20
5.66579
 11
70.3375
 21
5.55383
  0
LINE
  8
0
 10
70.3375
 20
5.55383
 11
70.3874
 21
5.43852
  0
LINE
  8
0
 10
70.3874
 20
5.43852
 11
70.43
 21
5.32031
  0
LINE
  8
0
 10
70.43
 20
5.32031
 11
70.465
 21
5.19966
  0
LINE
  8
0
 10
70.465
 20
5.19966
 11
70.4924
 21
5.07704
  0
LINE
  8
0
 10
70.4924
 20
5.07704
 11
70.5121
 21
4.95294
  0
LINE
  8
0
 10
70.5121
 20
4.95294
 11
70.5239
 21
4.82785
  0
LINE
  8
0
 10
70.5239
 20
4.82785
 11
70.5279
 21
4.70227
  0
LINE
  8
0
 10
70.5279
 20
4.70227
 11
70.5239
 21
4.57669
  0
LINE
  8
0
 10
70.5239
 20
4.57669
 11
70.5121
 21
4.45161
  0
LINE
  8
0
 10
70.5121
 20
4.45161
 11
70.4924
 21
4.32751
  0
LINE
  8
0
 10
70.4924
 20
4.32751
 11
70.465
 21
4.2049
  0
LINE
  8
0
 10
70.465
 20
4.2049
 11
70.43
 21
4.08424
  0
LINE
  8
0
 10
70.43
 20
4.08424
 11
70.3874
 21
3.96602
  0
LINE
  8
0
 10
70.3874
 20
3.96602
 11
70.3375
 21
3.85072
  0
LINE
  8
0
 10
70.3375
 20
3.85072
 11
70.2805
 21
3.73877
  0
LINE
  8
0
 10
70.2805
 20
3.73877
 11
70.2165
 21
3.63062
  0
LINE
  8
0
 10
70.2165
 20
3.63062
 11
70.1459
 21
3.5267
  0
LINE
  8
0
 10
70.1459
 20
3.5267
 11
70.0689
 21
3.42743
  0
LINE
  8
0
 10
70.0689
 20
3.42743
 11
69.9858
 21
3.33318
  0
LINE
  8
0
 10
69.9858
 20
3.33318
 11
69.897
 21
3.24434
  0
LINE
  8
0
 10
69.897
 20
3.24434
 11
69.8027
 21
3.16125
  0
LINE
  8
0
 10
69.8027
 20
3.16125
 11
69.7034
 21
3.08424
  0
LINE
  8
0
 10
69.7034
 20
3.08424
 11
69.5995
 21
3.01363
  0
LINE
  8
0
 10
69.5995
 20
3.01363
 11
69.4914
 21
2.94966
  0
LINE
  8
0
 10
69.4914
 20
2.94966
 11
69.3794
 21
2.89262
  0
LINE
  8
0
 10
69.3794
 20
2.89262
 11
69.2641
 21
2.84273
  0
LINE
  8
0
 10
69.2641
 20
2.84273
 11
69.1459
 21
2.80016
  0
LINE
  8
0
 10
69.1459
 20
2.80016
 11
69.0252
 21
2.76511
  0
LINE
  8
0
 10
69.0252
 20
2.76511
 11
68.9026
 21
2.7377
  0
LINE
  8
0
 10
68.9026
 20
2.7377
 11
68.7785
 21
2.71805
  0
LINE
  8
0
 10
68.7785
 20
2.71805
 11
68.6534
 21
2.70622
  0
LINE
  8
0
 10
68.6534
 20
2.70622
 11
68.5279
 21
2.70227
  0
LINE
  8
0
 10
68.5279
 20
2.70227
 11
68.4023
 21
2.70622
  0
ENDSEC
  0
SECTION
  2
OBJECTS
  0
DICTIONARY
  0
ENDSEC
  0
EOF
