  0
SECTION
  2
BLOCKS
  0
ENDSEC
  0
SECTION
  2
ENTITIES
  0
LINE
  8
0
 10
0
 20
230.826
 11
-75
 21
0
  0
LINE
  8
0
 10
-75
 20
0
 11
75
 21
0
  0
LINE
  8
0
 10
75
 20
0
 11
0
 21
230.826
  0
LINE
  8
0
 10
-0.12558
 20
212.83
 11
-0.250656
 21
212.842
  0
LINE
  8
0
 10
-0.250656
 20
212.842
 11
-0.374756
 21
212.862
  0
LINE
  8
0
 10
-0.374756
 20
212.862
 11
-0.497375
 21
212.889
  0
LINE
  8
0
 10
-0.497375
 20
212.889
 11
-0.618027
 21
212.924
  0
LINE
  8
0
 10
-0.618027
 20
212.924
 11
-0.736237
 21
212.967
  0
LINE
  8
0
 10
-0.736237
 20
212.967
 11
-0.851547
 21
213.017
  0
LINE
  8
0
 10
-0.851547
 20
213.017
 11
-0.963501
 21
213.074
  0
LINE
  8
0
 10
-0.963501
 20
213.074
 11
-1.07164
 21
213.138
  0
LINE
  8
0
 10
-1.07164
 20
213.138
 11
-1.17557
 21
213.208
  0
LINE
  8
0
 10
-1.17557
 20
213.208
 11
-1.27484
 21
213.285
  0
LINE
  8
0
 10
-1.27484
 20
213.285
 11
-1.36908
 21
213.368
  0
LINE
  8
0
 10
-1.36908
 20
213.368
 11
-1.45793
 21
213.457
  0
LINE
  8
0
 10
-1.45793
 20
213.457
 11
-1.54102
 21
213.551
  0
LINE
  8
0
 10
-1.54102
 20
213.551
 11
-1.61803
 21
213.651
  0
LINE
  8
0
 10
-1.61803
 20
213.651
 11
-1.68864
 21
213.755
  0
LINE
  8
0
 10
-1.68864
 20
213.755
 11
-1.75261
 21
213.863
  0
LINE
  8
0
 10
-1.75261
 20
213.863
 11
-1.80965
 21
213.975
  0
LINE
  8
0
 10
-1.80965
 20
213.975
 11
-1.85954
 21
214.09
  0
LINE
  8
0
 10
-1.85954
 20
214.09
 11
-1.9021
 21
214.208
  0
LINE
  8
0
 10
-1.9021
 20
214.208
 11
-1.93716
 21
214.329
  0
LINE
  8
0
 10
-1.93716
 20
214.329
 11
-1.96457
 21
214.451
  0
LINE
  8
0
 10
-1.96457
 20
214.451
 11
-1.98422
 21
214.576
  0
LINE
  8
0
 10
-1.98422
 20
214.576
 11
-1.99605
 21
214.701
  0
LINE
  8
0
 10
-1.99605
 20
214.701
 11
-2
 21
214.826
  0
LINE
  8
0
 10
-2
 20
214.826
 11
-1.99605
 21
214.952
  0
LINE
  8
0
 10
-1.99605
 20
214.952
 11
-1.98422
 21
215.077
  0
LINE
  8
0
 10
-1.98422
 20
215.077
 11
-1.96457
 21
215.201
  0
LINE
  8
0
 10
-1.96457
 20
215.201
 11
-1.93716
 21
215.324
  0
LINE
  8
0
 10
-1.93716
 20
215.324
 11
-1.9021
 21
215.444
  0
LINE
  8
0
 10
-1.9021
 20
215.444
 11
-1.85954
 21
215.562
  0
LINE
  8
0
 10
-1.85954
 20
215.562
 11
-1.80965
 21
215.678
  0
LINE
  8
0
 10
-1.80965
 20
215.678
 11
-1.75261
 21
215.79
  0
LINE
  8
0
 10
-1.75261
 20
215.79
 11
-1.68864
 21
215.898
  0
LINE
  8
0
 10
-1.68864
 20
215.898
 11
-1.61803
 21
216.002
  0
LINE
  8
0
 10
-1.61803
 20
216.002
 11
-1.54102
 21
216.101
  0
LINE
  8
0
 10
-1.54102
 20
216.101
 11
-1.45793
 21
216.195
  0
LINE
  8
0
 10
-1.45793
 20
216.195
 11
-1.36908
 21
216.284
  0
LINE
  8
0
 10
-1.36908
 20
216.284
 11
-1.27484
 21
216.367
  0
LINE
  8
0
 10
-1.27484
 20
216.367
 11
-1.17557
 21
216.444
  0
LINE
  8
0
 10
-1.17557
 20
216.444
 11
-1.07164
 21
216.515
  0
LINE
  8
0
 10
-1.07164
 20
216.515
 11
-0.963501
 21
216.579
  0
LINE
  8
0
 10
-0.963501
 20
216.579
 11
-0.851547
 21
216.636
  0
LINE
  8
0
 10
-0.851547
 20
216.636
 11
-0.736237
 21
216.686
  0
LINE
  8
0
 10
-0.736237
 20
216.686
 11
-0.618027
 21
216.728
  0
LINE
  8
0
 10
-0.618027
 20
216.728
 11
-0.497375
 21
216.763
  0
LINE
  8
0
 10
-0.497375
 20
216.763
 11
-0.374756
 21
216.791
  0
LINE
  8
0
 10
-0.374756
 20
216.791
 11
-0.250656
 21
216.81
  0
LINE
  8
0
 10
-0.250656
 20
216.81
 11
-0.12558
 21
216.822
  0
LINE
  8
0
 10
-0.12558
 20
216.822
 11
0
 21
216.826
  0
LINE
  8
0
 10
0
 20
216.826
 11
0.12558
 21
216.822
  0
LINE
  8
0
 10
0.12558
 20
216.822
 11
0.250656
 21
216.81
  0
LINE
  8
0
 10
0.250656
 20
216.81
 11
0.374756
 21
216.791
  0
LINE
  8
0
 10
0.374756
 20
216.791
 11
0.497375
 21
216.763
  0
LINE
  8
0
 10
0.497375
 20
216.763
 11
0.618027
 21
216.728
  0
LINE
  8
0
 10
0.618027
 20
216.728
 11
0.736237
 21
216.686
  0
LINE
  8
0
 10
0.736237
 20
216.686
 11
0.851547
 21
216.636
  0
LINE
  8
0
 10
0.851547
 20
216.636
 11
0.963501
 21
216.579
  0
LINE
  8
0
 10
0.963501
 20
216.579
 11
1.07164
 21
216.515
  0
LINE
  8
0
 10
1.07164
 20
216.515
 11
1.17557
 21
216.444
  0
LINE
  8
0
 10
1.17557
 20
216.444
 11
1.27484
 21
216.367
  0
LINE
  8
0
 10
1.27484
 20
216.367
 11
1.36908
 21
216.284
  0
LINE
  8
0
 10
1.36908
 20
216.284
 11
1.45793
 21
216.195
  0
LINE
  8
0
 10
1.45793
 20
216.195
 11
1.54102
 21
216.101
  0
LINE
  8
0
 10
1.54102
 20
216.101
 11
1.61803
 21
216.002
  0
LINE
  8
0
 10
1.61803
 20
216.002
 11
1.68864
 21
215.898
  0
LINE
  8
0
 10
1.68864
 20
215.898
 11
1.75261
 21
215.79
  0
LINE
  8
0
 10
1.75261
 20
215.79
 11
1.80965
 21
215.678
  0
LINE
  8
0
 10
1.80965
 20
215.678
 11
1.85954
 21
215.562
  0
LINE
  8
0
 10
1.85954
 20
215.562
 11
1.9021
 21
215.444
  0
LINE
  8
0
 10
1.9021
 20
215.444
 11
1.93716
 21
215.324
  0
LINE
  8
0
 10
1.93716
 20
215.324
 11
1.96457
 21
215.201
  0
LINE
  8
0
 10
1.96457
 20
215.201
 11
1.98422
 21
215.077
  0
LINE
  8
0
 10
1.98422
 20
215.077
 11
1.99605
 21
214.952
  0
LINE
  8
0
 10
1.99605
 20
214.952
 11
2
 21
214.826
  0
LINE
  8
0
 10
2
 20
214.826
 11
1.99605
 21
214.701
  0
LINE
  8
0
 10
1.99605
 20
214.701
 11
1.98422
 21
214.576
  0
LINE
  8
0
 10
1.98422
 20
214.576
 11
1.96457
 21
214.451
  0
LINE
  8
0
 10
1.96457
 20
214.451
 11
1.93716
 21
214.329
  0
LINE
  8
0
 10
1.93716
 20
214.329
 11
1.9021
 21
214.208
  0
LINE
  8
0
 10
1.9021
 20
214.208
 11
1.85954
 21
214.09
  0
LINE
  8
0
 10
1.85954
 20
214.09
 11
1.80965
 21
213.975
  0
LINE
  8
0
 10
1.80965
 20
213.975
 11
1.75261
 21
213.863
  0
LINE
  8
0
 10
1.75261
 20
213.863
 11
1.68864
 21
213.755
  0
LINE
  8
0
 10
1.68864
 20
213.755
 11
1.61803
 21
213.651
  0
LINE
  8
0
 10
1.61803
 20
213.651
 11
1.54102
 21
213.551
  0
LINE
  8
0
 10
1.54102
 20
213.551
 11
1.45793
 21
213.457
  0
LINE
  8
0
 10
1.45793
 20
213.457
 11
1.36908
 21
213.368
  0
LINE
  8
0
 10
1.36908
 20
213.368
 11
1.27484
 21
213.285
  0
LINE
  8
0
 10
1.27484
 20
213.285
 11
1.17557
 21
213.208
  0
LINE
  8
0
 10
1.17557
 20
213.208
 11
1.07164
 21
213.138
  0
LINE
  8
0
 10
1.07164
 20
213.138
 11
0.963501
 21
213.074
  0
LINE
  8
0
 10
0.963501
 20
213.074
 11
0.851547
 21
213.017
  0
LINE
  8
0
 10
0.851547
 20
213.017
 11
0.736237
 21
212.967
  0
LINE
  8
0
 10
0.736237
 20
212.967
 11
0.618027
 21
212.924
  0
LINE
  8
0
 10
0.618027
 20
212.924
 11
0.497375
 21
212.889
  0
LINE
  8
0
 10
0.497375
 20
212.889
 11
0.374756
 21
212.862
  0
LINE
  8
0
 10
0.374756
 20
212.862
 11
0.250656
 21
212.842
  0
LINE
  8
0
 10
0.250656
 20
212.842
 11
0.12558
 21
212.83
  0
LINE
  8
0
 10
0.12558
 20
212.83
 11
0
 21
212.826
  0
LINE
  8
0
 10
0
 20
212.826
 11
-0.12558
 21
212.83
  0
LINE
  8
0
 10
-0.147614
 20
191.539
 11
0.15863
 21
191.505
  0
LINE
  8
0
 10
0.15863
 20
191.505
 11
0.517517
 21
190.401
  0
LINE
  8
0
 10
0.517517
 20
190.401
 11
-0.556122
 21
190.282
  0
LINE
  8
0
 10
-0.556122
 20
190.282
 11
-0.147614
 21
191.539
  0
LINE
  8
0
 10
-1.2291
 20
178.653
 11
-1.90201
 21
185.501
  0
LINE
  8
0
 10
-1.90201
 20
185.501
 11
-1.33896
 21
185.826
  0
LINE
  8
0
 10
-1.33896
 20
185.826
 11
1.79716
 21
186.462
  0
LINE
  8
0
 10
1.79716
 20
186.462
 11
4.338
 21
178.642
  0
LINE
  8
0
 10
4.338
 20
178.642
 11
1.23047
 21
177.234
  0
LINE
  8
0
 10
1.23047
 20
177.234
 11
-6.4151
 21
166.832
  0
LINE
  8
0
 10
-6.4151
 20
166.832
 11
-1.2291
 21
178.653
  0
LINE
  8
0
 10
-3.96756
 20
179.783
 11
-3.70193
 21
180.6
  0
LINE
  8
0
 10
-3.70193
 20
180.6
 11
-2.79144
 21
179.553
  0
LINE
  8
0
 10
-2.79144
 20
179.553
 11
-3.96756
 21
179.783
  0
LINE
  8
0
 10
6.00311
 20
172.528
 11
6.15875
 21
172.834
  0
LINE
  8
0
 10
6.15875
 20
172.834
 11
6.16791
 21
172.84
  0
LINE
  8
0
 10
6.16791
 20
172.84
 11
6.1615
 21
172.84
  0
LINE
  8
0
 10
6.1615
 20
172.84
 11
6.16425
 21
172.845
  0
LINE
  8
0
 10
6.16425
 20
172.845
 11
6.15601
 21
172.84
  0
LINE
  8
0
 10
6.15601
 20
172.84
 11
5.81223
 21
172.859
  0
LINE
  8
0
 10
5.81223
 20
172.859
 11
2.79144
 21
176.332
  0
LINE
  8
0
 10
2.79144
 20
176.332
 11
5.24403
 21
175.854
  0
LINE
  8
0
 10
5.24403
 20
175.854
 11
7.62288
 21
168.533
  0
LINE
  8
0
 10
7.62288
 20
168.533
 11
7.5
 21
168.175
  0
LINE
  8
0
 10
7.5
 20
168.175
 11
6.00311
 21
172.528
  0
LINE
  8
0
 10
1.34354
 20
159.85
 11
-3.16635
 21
164.952
  0
LINE
  8
0
 10
-3.16635
 20
164.952
 11
1.34308
 21
170.054
  0
LINE
  8
0
 10
1.34308
 20
170.054
 11
1.90521
 21
170.379
  0
LINE
  8
0
 10
1.90521
 20
170.379
 11
7.49908
 21
166.373
  0
LINE
  8
0
 10
7.49908
 20
166.373
 11
8.35556
 21
166.278
  0
LINE
  8
0
 10
8.35556
 20
166.278
 11
9.18683
 21
163.719
  0
LINE
  8
0
 10
9.18683
 20
163.719
 11
7.49908
 21
163.533
  0
LINE
  8
0
 10
7.49908
 20
163.533
 11
1.90521
 21
159.526
  0
LINE
  8
0
 10
1.90521
 20
159.526
 11
1.34354
 21
159.85
  0
LINE
  8
0
 10
-1.33896
 20
144.079
 11
-1.90109
 21
144.404
  0
LINE
  8
0
 10
-1.90109
 20
144.404
 11
-1.22864
 21
151.251
  0
LINE
  8
0
 10
-1.22864
 20
151.251
 11
-6.41373
 21
163.071
  0
LINE
  8
0
 10
-6.41373
 20
163.071
 11
1.22955
 21
152.671
  0
LINE
  8
0
 10
1.22955
 20
152.671
 11
7.49634
 21
149.83
  0
LINE
  8
0
 10
7.49634
 20
149.83
 11
7.49634
 21
149.179
  0
LINE
  8
0
 10
7.49634
 20
149.179
 11
5.33295
 21
142.724
  0
LINE
  8
0
 10
5.33295
 20
142.724
 11
-1.33896
 21
144.079
  0
LINE
  8
0
 10
7.69135
 20
154.453
 11
7.5032
 21
154.741
  0
LINE
  8
0
 10
7.5032
 20
154.741
 11
7.5032
 21
154.751
  0
LINE
  8
0
 10
7.5032
 20
154.751
 11
7.5
 21
154.746
  0
LINE
  8
0
 10
7.5
 20
154.746
 11
7.49634
 21
154.752
  0
LINE
  8
0
 10
7.49634
 20
154.752
 11
7.49634
 21
154.74
  0
LINE
  8
0
 10
7.49634
 20
154.74
 11
7.30865
 21
154.452
  0
LINE
  8
0
 10
7.30865
 20
154.452
 11
2.79099
 21
153.573
  0
LINE
  8
0
 10
2.79099
 20
153.573
 11
5.81177
 21
157.045
  0
LINE
  8
0
 10
5.81177
 20
157.045
 11
6.15601
 21
157.064
  0
LINE
  8
0
 10
6.15601
 20
157.064
 11
6.16425
 21
157.059
  0
LINE
  8
0
 10
6.16425
 20
157.059
 11
6.1615
 21
157.064
  0
LINE
  8
0
 10
6.1615
 20
157.064
 11
6.16745
 21
157.065
  0
LINE
  8
0
 10
6.16745
 20
157.065
 11
6.15875
 21
157.07
  0
LINE
  8
0
 10
6.15875
 20
157.07
 11
6.00311
 21
157.377
  0
LINE
  8
0
 10
6.00311
 20
157.377
 11
7.5
 21
161.729
  0
LINE
  8
0
 10
7.5
 20
161.729
 11
8.99643
 21
157.377
  0
LINE
  8
0
 10
8.99643
 20
157.377
 11
8.84079
 21
157.069
  0
LINE
  8
0
 10
8.84079
 20
157.069
 11
8.83255
 21
157.065
  0
LINE
  8
0
 10
8.83255
 20
157.065
 11
8.83804
 21
157.064
  0
LINE
  8
0
 10
8.83804
 20
157.064
 11
8.8353
 21
157.059
  0
LINE
  8
0
 10
8.8353
 20
157.059
 11
8.84445
 21
157.064
  0
LINE
  8
0
 10
8.84445
 20
157.064
 11
9.18777
 21
157.045
  0
LINE
  8
0
 10
9.18777
 20
157.045
 11
12.2086
 21
153.573
  0
LINE
  8
0
 10
12.2086
 20
153.573
 11
7.69135
 21
154.453
  0
LINE
  8
0
 10
-10.0297
 20
161.125
 11
-9.6666
 21
161.199
  0
LINE
  8
0
 10
-9.6666
 20
161.199
 11
-7.5032
 21
154.745
  0
LINE
  8
0
 10
-7.5032
 20
154.745
 11
-7.5032
 21
154.093
  0
LINE
  8
0
 10
-7.5032
 20
154.093
 11
-13.1454
 21
151.536
  0
LINE
  8
0
 10
-13.1454
 20
151.536
 11
-10.0297
 21
161.125
  0
LINE
  8
0
 10
13.1994
 20
151.37
 11
14.1549
 21
148.429
  0
LINE
  8
0
 10
14.1549
 20
148.429
 11
8.5849
 21
140.851
  0
LINE
  8
0
 10
8.5849
 20
140.851
 11
13.1994
 21
151.37
  0
LINE
  8
0
 10
-8.99689
 20
146.547
 11
-8.84125
 21
146.853
  0
LINE
  8
0
 10
-8.84125
 20
146.853
 11
-8.83209
 21
146.859
  0
LINE
  8
0
 10
-8.83209
 20
146.859
 11
-8.8385
 21
146.859
  0
LINE
  8
0
 10
-8.8385
 20
146.859
 11
-8.83575
 21
146.864
  0
LINE
  8
0
 10
-8.83575
 20
146.864
 11
-8.84399
 21
146.859
  0
LINE
  8
0
 10
-8.84399
 20
146.859
 11
-9.18777
 21
146.879
  0
LINE
  8
0
 10
-9.18777
 20
146.879
 11
-12.2086
 21
150.351
  0
LINE
  8
0
 10
-12.2086
 20
150.351
 11
-7.69089
 21
149.471
  0
LINE
  8
0
 10
-7.69089
 20
149.471
 11
-7.5032
 21
149.183
  0
LINE
  8
0
 10
-7.5032
 20
149.183
 11
-7.5032
 21
149.172
  0
LINE
  8
0
 10
-7.5032
 20
149.172
 11
-7.49954
 21
149.178
  0
LINE
  8
0
 10
-7.49954
 20
149.178
 11
-7.49634
 21
149.173
  0
LINE
  8
0
 10
-7.49634
 20
149.173
 11
-7.49634
 21
149.183
  0
LINE
  8
0
 10
-7.49634
 20
149.183
 11
-7.30865
 21
149.471
  0
LINE
  8
0
 10
-7.30865
 20
149.471
 11
-2.79099
 21
150.351
  0
LINE
  8
0
 10
-2.79099
 20
150.351
 11
-5.81177
 21
146.878
  0
LINE
  8
0
 10
-5.81177
 20
146.878
 11
-6.15463
 21
146.859
  0
LINE
  8
0
 10
-6.15463
 20
146.859
 11
-6.1647
 21
146.865
  0
LINE
  8
0
 10
-6.1647
 20
146.865
 11
-6.1615
 21
146.859
  0
LINE
  8
0
 10
-6.1615
 20
146.859
 11
-6.16699
 21
146.859
  0
LINE
  8
0
 10
-6.16699
 20
146.859
 11
-6.15921
 21
146.854
  0
LINE
  8
0
 10
-6.15921
 20
146.854
 11
-6.00357
 21
146.547
  0
LINE
  8
0
 10
-6.00357
 20
146.547
 11
-7.5
 21
142.194
  0
LINE
  8
0
 10
-7.5
 20
142.194
 11
-8.99689
 21
146.547
  0
LINE
  8
0
 10
-13.6565
 20
133.869
 11
-17.4802
 21
138.195
  0
LINE
  8
0
 10
-17.4802
 20
138.195
 11
-16.6825
 21
140.65
  0
LINE
  8
0
 10
-16.6825
 20
140.65
 11
-13.6569
 21
144.073
  0
LINE
  8
0
 10
-13.6569
 20
144.073
 11
-13.0948
 21
144.398
  0
LINE
  8
0
 10
-13.0948
 20
144.398
 11
-7.50092
 21
140.392
  0
LINE
  8
0
 10
-7.50092
 20
140.392
 11
5.32745
 21
138.971
  0
LINE
  8
0
 10
5.32745
 20
138.971
 11
-7.50092
 21
137.552
  0
LINE
  8
0
 10
-7.50092
 20
137.552
 11
-13.0948
 21
133.545
  0
LINE
  8
0
 10
-13.0948
 20
133.545
 11
-13.6565
 21
133.869
  0
LINE
  8
0
 10
16.3435
 20
133.869
 11
11.8336
 21
138.971
  0
LINE
  8
0
 10
11.8336
 20
138.971
 11
15.778
 21
143.434
  0
LINE
  8
0
 10
15.778
 20
143.434
 11
18.5973
 21
134.757
  0
LINE
  8
0
 10
18.5973
 20
134.757
 11
16.9052
 21
133.545
  0
LINE
  8
0
 10
16.9052
 20
133.545
 11
16.3435
 21
133.869
  0
LINE
  8
0
 10
13.661
 20
118.098
 11
13.0989
 21
118.423
  0
LINE
  8
0
 10
13.0989
 20
118.423
 11
13.7714
 21
125.27
  0
LINE
  8
0
 10
13.7714
 20
125.27
 11
8.58627
 21
137.09
  0
LINE
  8
0
 10
8.58627
 20
137.09
 11
16.2296
 21
126.69
  0
LINE
  8
0
 10
16.2296
 20
126.69
 11
22.0802
 21
124.038
  0
LINE
  8
0
 10
22.0802
 20
124.038
 11
22.4235
 21
122.981
  0
LINE
  8
0
 10
22.4235
 20
122.981
 11
20.3329
 21
116.744
  0
LINE
  8
0
 10
20.3329
 20
116.744
 11
13.661
 21
118.098
  0
LINE
  8
0
 10
-7.30865
 20
128.472
 11
-7.4968
 21
128.76
  0
LINE
  8
0
 10
-7.4968
 20
128.76
 11
-7.4968
 21
128.77
  0
LINE
  8
0
 10
-7.4968
 20
128.77
 11
-7.5
 21
128.765
  0
LINE
  8
0
 10
-7.5
 20
128.765
 11
-7.50366
 21
128.771
  0
LINE
  8
0
 10
-7.50366
 20
128.771
 11
-7.50366
 21
128.759
  0
LINE
  8
0
 10
-7.50366
 20
128.759
 11
-7.69135
 21
128.472
  0
LINE
  8
0
 10
-7.69135
 20
128.472
 11
-12.209
 21
127.592
  0
LINE
  8
0
 10
-12.209
 20
127.592
 11
-9.18823
 21
131.064
  0
LINE
  8
0
 10
-9.18823
 20
131.064
 11
-8.84399
 21
131.084
  0
LINE
  8
0
 10
-8.84399
 20
131.084
 11
-8.83575
 21
131.078
  0
LINE
  8
0
 10
-8.83575
 20
131.078
 11
-8.8385
 21
131.084
  0
LINE
  8
0
 10
-8.8385
 20
131.084
 11
-8.83255
 21
131.084
  0
LINE
  8
0
 10
-8.83255
 20
131.084
 11
-8.84125
 21
131.089
  0
LINE
  8
0
 10
-8.84125
 20
131.089
 11
-8.99689
 21
131.396
  0
LINE
  8
0
 10
-8.99689
 20
131.396
 11
-7.5
 21
135.749
  0
LINE
  8
0
 10
-7.5
 20
135.749
 11
-6.00357
 21
131.396
  0
LINE
  8
0
 10
-6.00357
 20
131.396
 11
-6.15921
 21
131.089
  0
LINE
  8
0
 10
-6.15921
 20
131.089
 11
-6.16745
 21
131.084
  0
LINE
  8
0
 10
-6.16745
 20
131.084
 11
-6.16196
 21
131.084
  0
LINE
  8
0
 10
-6.16196
 20
131.084
 11
-6.1647
 21
131.078
  0
LINE
  8
0
 10
-6.1647
 20
131.078
 11
-6.15555
 21
131.084
  0
LINE
  8
0
 10
-6.15555
 20
131.084
 11
-5.81223
 21
131.064
  0
LINE
  8
0
 10
-5.81223
 20
131.064
 11
-2.79144
 21
127.592
  0
LINE
  8
0
 10
-2.79144
 20
127.592
 11
-7.30865
 21
128.472
  0
LINE
  8
0
 10
-1.2291
 20
126.692
 11
-1.90201
 21
133.539
  0
LINE
  8
0
 10
-1.90201
 20
133.539
 11
-1.33896
 21
133.864
  0
LINE
  8
0
 10
-1.33896
 20
133.864
 11
5.3334
 21
135.218
  0
LINE
  8
0
 10
5.3334
 20
135.218
 11
7.4968
 21
128.764
  0
LINE
  8
0
 10
7.4968
 20
128.764
 11
7.4968
 21
128.113
  0
LINE
  8
0
 10
7.4968
 20
128.113
 11
1.23047
 21
125.272
  0
LINE
  8
0
 10
1.23047
 20
125.272
 11
-6.4151
 21
114.87
  0
LINE
  8
0
 10
-6.4151
 20
114.87
 11
-1.2291
 21
126.692
  0
LINE
  8
0
 10
-16.339
 20
118.098
 11
-16.9011
 21
118.423
  0
LINE
  8
0
 10
-16.9011
 20
118.423
 11
-16.2286
 21
125.27
  0
LINE
  8
0
 10
-16.2286
 20
125.27
 11
-19.3602
 21
132.409
  0
LINE
  8
0
 10
-19.3602
 20
132.409
 11
-18.9351
 21
133.717
  0
LINE
  8
0
 10
-18.9351
 20
133.717
 11
-13.7704
 21
126.69
  0
LINE
  8
0
 10
-13.7704
 20
126.69
 11
-7.50366
 21
123.849
  0
LINE
  8
0
 10
-7.50366
 20
123.849
 11
-7.50366
 21
123.198
  0
LINE
  8
0
 10
-7.50366
 20
123.198
 11
-9.66705
 21
116.744
  0
LINE
  8
0
 10
-9.66705
 20
116.744
 11
-16.339
 21
118.098
  0
LINE
  8
0
 10
20.0731
 20
130.215
 11
20.7389
 21
128.166
  0
LINE
  8
0
 10
20.7389
 20
128.166
 11
17.791
 21
127.592
  0
LINE
  8
0
 10
17.791
 20
127.592
 11
20.0731
 21
130.215
  0
LINE
  8
0
 10
-23.5913
 20
119.387
 11
-22.2548
 21
123.5
  0
LINE
  8
0
 10
-22.2548
 20
123.5
 11
-17.791
 21
124.37
  0
LINE
  8
0
 10
-17.791
 20
124.37
 11
-20.8118
 21
120.897
  0
LINE
  8
0
 10
-20.8118
 20
120.897
 11
-21.1546
 21
120.878
  0
LINE
  8
0
 10
-21.1546
 20
120.878
 11
-21.1647
 21
120.884
  0
LINE
  8
0
 10
-21.1647
 20
120.884
 11
-21.1615
 21
120.878
  0
LINE
  8
0
 10
-21.1615
 20
120.878
 11
-21.167
 21
120.878
  0
LINE
  8
0
 10
-21.167
 20
120.878
 11
-21.1592
 21
120.873
  0
LINE
  8
0
 10
-21.1592
 20
120.873
 11
-21.0036
 21
120.566
  0
LINE
  8
0
 10
-21.0036
 20
120.566
 11
-22.5
 21
116.214
  0
LINE
  8
0
 10
-22.5
 20
116.214
 11
-23.5913
 21
119.387
  0
LINE
  8
0
 10
6.00311
 20
120.566
 11
6.15875
 21
120.873
  0
LINE
  8
0
 10
6.15875
 20
120.873
 11
6.16791
 21
120.878
  0
LINE
  8
0
 10
6.16791
 20
120.878
 11
6.1615
 21
120.879
  0
LINE
  8
0
 10
6.1615
 20
120.879
 11
6.16425
 21
120.884
  0
LINE
  8
0
 10
6.16425
 20
120.884
 11
6.15601
 21
120.879
  0
LINE
  8
0
 10
6.15601
 20
120.879
 11
5.81223
 21
120.898
  0
LINE
  8
0
 10
5.81223
 20
120.898
 11
2.79144
 21
124.37
  0
LINE
  8
0
 10
2.79144
 20
124.37
 11
7.30911
 21
123.49
  0
LINE
  8
0
 10
7.30911
 20
123.49
 11
7.4968
 21
123.202
  0
LINE
  8
0
 10
7.4968
 20
123.202
 11
7.4968
 21
123.191
  0
LINE
  8
0
 10
7.4968
 20
123.191
 11
7.50046
 21
123.197
  0
LINE
  8
0
 10
7.50046
 20
123.197
 11
7.50366
 21
123.192
  0
LINE
  8
0
 10
7.50366
 20
123.192
 11
7.50366
 21
123.202
  0
LINE
  8
0
 10
7.50366
 20
123.202
 11
7.69135
 21
123.49
  0
LINE
  8
0
 10
7.69135
 20
123.49
 11
12.209
 21
124.37
  0
LINE
  8
0
 10
12.209
 20
124.37
 11
9.18823
 21
120.897
  0
LINE
  8
0
 10
9.18823
 20
120.897
 11
8.84537
 21
120.878
  0
LINE
  8
0
 10
8.84537
 20
120.878
 11
8.8353
 21
120.884
  0
LINE
  8
0
 10
8.8353
 20
120.884
 11
8.8385
 21
120.878
  0
LINE
  8
0
 10
8.8385
 20
120.878
 11
8.83301
 21
120.878
  0
LINE
  8
0
 10
8.83301
 20
120.878
 11
8.84079
 21
120.873
  0
LINE
  8
0
 10
8.84079
 20
120.873
 11
8.99643
 21
120.566
  0
LINE
  8
0
 10
8.99643
 20
120.566
 11
7.5
 21
116.214
  0
LINE
  8
0
 10
7.5
 20
116.214
 11
6.00311
 21
120.566
  0
LINE
  8
0
 10
1.34354
 20
107.888
 11
-3.16635
 21
112.99
  0
LINE
  8
0
 10
-3.16635
 20
112.99
 11
1.34308
 21
118.092
  0
LINE
  8
0
 10
1.34308
 20
118.092
 11
1.90521
 21
118.417
  0
LINE
  8
0
 10
1.90521
 20
118.417
 11
7.49908
 21
114.411
  0
LINE
  8
0
 10
7.49908
 20
114.411
 11
20.3275
 21
112.99
  0
LINE
  8
0
 10
20.3275
 20
112.99
 11
7.49908
 21
111.571
  0
LINE
  8
0
 10
7.49908
 20
111.571
 11
1.90521
 21
107.564
  0
LINE
  8
0
 10
1.90521
 20
107.564
 11
1.34354
 21
107.888
  0
LINE
  8
0
 10
24.4317
 20
116.8
 11
24.6071
 21
116.261
  0
LINE
  8
0
 10
24.6071
 20
116.261
 11
23.5849
 21
114.87
  0
LINE
  8
0
 10
23.5849
 20
114.87
 11
24.4317
 21
116.8
  0
LINE
  8
0
 10
-24.6971
 20
115.984
 11
-22.5009
 21
114.411
  0
LINE
  8
0
 10
-22.5009
 20
114.411
 11
-9.67255
 21
112.99
  0
LINE
  8
0
 10
-9.67255
 20
112.99
 11
-22.5009
 21
111.571
  0
LINE
  8
0
 10
-22.5009
 20
111.571
 11
-27.2319
 21
108.182
  0
LINE
  8
0
 10
-27.2319
 20
108.182
 11
-24.6971
 21
115.984
  0
LINE
  8
0
 10
28.661
 20
92.1173
 11
28.0989
 21
92.4419
  0
LINE
  8
0
 10
28.0989
 20
92.4419
 11
28.7714
 21
99.2896
  0
LINE
  8
0
 10
28.7714
 20
99.2896
 11
23.5863
 21
111.109
  0
LINE
  8
0
 10
23.5863
 20
111.109
 11
28.4164
 21
104.537
  0
LINE
  8
0
 10
28.4164
 20
104.537
 11
32.7194
 21
91.2934
  0
LINE
  8
0
 10
32.7194
 20
91.2934
 11
28.661
 21
92.1173
  0
LINE
  8
0
 10
-1.33896
 20
92.1173
 11
-1.90109
 21
92.4419
  0
LINE
  8
0
 10
-1.90109
 20
92.4419
 11
-1.22864
 21
99.2896
  0
LINE
  8
0
 10
-1.22864
 20
99.2896
 11
-6.41373
 21
111.109
  0
LINE
  8
0
 10
-6.41373
 20
111.109
 11
1.22955
 21
100.709
  0
LINE
  8
0
 10
1.22955
 20
100.709
 11
7.49634
 21
97.8682
  0
LINE
  8
0
 10
7.49634
 20
97.8682
 11
7.49634
 21
97.2173
  0
LINE
  8
0
 10
7.49634
 20
97.2173
 11
5.33295
 21
90.7628
  0
LINE
  8
0
 10
5.33295
 20
90.7628
 11
-1.33896
 21
92.1173
  0
LINE
  8
0
 10
-22.3087
 20
102.491
 11
-22.4968
 21
102.78
  0
LINE
  8
0
 10
-22.4968
 20
102.78
 11
-22.4968
 21
102.789
  0
LINE
  8
0
 10
-22.4968
 20
102.789
 11
-22.5
 21
102.784
  0
LINE
  8
0
 10
-22.5
 20
102.784
 11
-22.5037
 21
102.79
  0
LINE
  8
0
 10
-22.5037
 20
102.79
 11
-22.5037
 21
102.779
  0
LINE
  8
0
 10
-22.5037
 20
102.779
 11
-22.6913
 21
102.491
  0
LINE
  8
0
 10
-22.6913
 20
102.491
 11
-27.209
 21
101.611
  0
LINE
  8
0
 10
-27.209
 20
101.611
 11
-24.1882
 21
105.083
  0
LINE
  8
0
 10
-24.1882
 20
105.083
 11
-23.844
 21
105.103
  0
LINE
  8
0
 10
-23.844
 20
105.103
 11
-23.8358
 21
105.098
  0
LINE
  8
0
 10
-23.8358
 20
105.098
 11
-23.8385
 21
105.103
  0
LINE
  8
0
 10
-23.8385
 20
105.103
 11
-23.8326
 21
105.103
  0
LINE
  8
0
 10
-23.8326
 20
105.103
 11
-23.8412
 21
105.108
  0
LINE
  8
0
 10
-23.8412
 20
105.108
 11
-23.9969
 21
105.415
  0
LINE
  8
0
 10
-23.9969
 20
105.415
 11
-22.5
 21
109.768
  0
LINE
  8
0
 10
-22.5
 20
109.768
 11
-21.0036
 21
105.415
  0
LINE
  8
0
 10
-21.0036
 20
105.415
 11
-21.1592
 21
105.108
  0
LINE
  8
0
 10
-21.1592
 20
105.108
 11
-21.1674
 21
105.103
  0
LINE
  8
0
 10
-21.1674
 20
105.103
 11
-21.162
 21
105.103
  0
LINE
  8
0
 10
-21.162
 20
105.103
 11
-21.1647
 21
105.097
  0
LINE
  8
0
 10
-21.1647
 20
105.097
 11
-21.1555
 21
105.103
  0
LINE
  8
0
 10
-21.1555
 20
105.103
 11
-20.8122
 21
105.083
  0
LINE
  8
0
 10
-20.8122
 20
105.083
 11
-17.7914
 21
101.611
  0
LINE
  8
0
 10
-17.7914
 20
101.611
 11
-22.3087
 21
102.491
  0
LINE
  8
0
 10
7.69135
 20
102.491
 11
7.5032
 21
102.78
  0
LINE
  8
0
 10
7.5032
 20
102.78
 11
7.5032
 21
102.789
  0
LINE
  8
0
 10
7.5032
 20
102.789
 11
7.5
 21
102.784
  0
LINE
  8
0
 10
7.5
 20
102.784
 11
7.49634
 21
102.79
  0
LINE
  8
0
 10
7.49634
 20
102.79
 11
7.49634
 21
102.779
  0
LINE
  8
0
 10
7.49634
 20
102.779
 11
7.30865
 21
102.491
  0
LINE
  8
0
 10
7.30865
 20
102.491
 11
2.79099
 21
101.611
  0
LINE
  8
0
 10
2.79099
 20
101.611
 11
5.81177
 21
105.083
  0
LINE
  8
0
 10
5.81177
 20
105.083
 11
6.15601
 21
105.103
  0
LINE
  8
0
 10
6.15601
 20
105.103
 11
6.16425
 21
105.098
  0
LINE
  8
0
 10
6.16425
 20
105.098
 11
6.1615
 21
105.103
  0
LINE
  8
0
 10
6.1615
 20
105.103
 11
6.16745
 21
105.103
  0
LINE
  8
0
 10
6.16745
 20
105.103
 11
6.15875
 21
105.108
  0
LINE
  8
0
 10
6.15875
 20
105.108
 11
6.00311
 21
105.415
  0
LINE
  8
0
 10
6.00311
 20
105.415
 11
7.5
 21
109.768
  0
LINE
  8
0
 10
7.5
 20
109.768
 11
8.99643
 21
105.415
  0
LINE
  8
0
 10
8.99643
 20
105.415
 11
8.84079
 21
105.108
  0
LINE
  8
0
 10
8.84079
 20
105.108
 11
8.83255
 21
105.103
  0
LINE
  8
0
 10
8.83255
 20
105.103
 11
8.83804
 21
105.103
  0
LINE
  8
0
 10
8.83804
 20
105.103
 11
8.8353
 21
105.097
  0
LINE
  8
0
 10
8.8353
 20
105.097
 11
8.84445
 21
105.103
  0
LINE
  8
0
 10
8.84445
 20
105.103
 11
9.18777
 21
105.083
  0
LINE
  8
0
 10
9.18777
 20
105.083
 11
12.2086
 21
101.611
  0
LINE
  8
0
 10
12.2086
 20
101.611
 11
7.69135
 21
102.491
  0
LINE
  8
0
 10
-16.2291
 20
100.711
 11
-16.902
 21
107.559
  0
LINE
  8
0
 10
-16.902
 20
107.559
 11
-16.339
 21
107.884
  0
LINE
  8
0
 10
-16.339
 20
107.884
 11
-9.6666
 21
109.237
  0
LINE
  8
0
 10
-9.6666
 20
109.237
 11
-7.5032
 21
102.783
  0
LINE
  8
0
 10
-7.5032
 20
102.783
 11
-7.5032
 21
102.132
  0
LINE
  8
0
 10
-7.5032
 20
102.132
 11
-13.7695
 21
99.2914
  0
LINE
  8
0
 10
-13.7695
 20
99.2914
 11
-21.4151
 21
88.8892
  0
LINE
  8
0
 10
-21.4151
 20
88.8892
 11
-16.2291
 21
100.711
  0
LINE
  8
0
 10
13.7709
 20
100.711
 11
13.098
 21
107.559
  0
LINE
  8
0
 10
13.098
 20
107.559
 11
13.661
 21
107.884
  0
LINE
  8
0
 10
13.661
 20
107.884
 11
20.3334
 21
109.237
  0
LINE
  8
0
 10
20.3334
 20
109.237
 11
22.4968
 21
102.783
  0
LINE
  8
0
 10
22.4968
 20
102.783
 11
22.4968
 21
102.132
  0
LINE
  8
0
 10
22.4968
 20
102.132
 11
16.2305
 21
99.2914
  0
LINE
  8
0
 10
16.2305
 20
99.2914
 11
8.5849
 21
88.8892
  0
LINE
  8
0
 10
8.5849
 20
88.8892
 11
13.7709
 21
100.711
  0
LINE
  8
0
 10
-31.339
 20
92.1173
 11
-31.9011
 21
92.4419
  0
LINE
  8
0
 10
-31.9011
 20
92.4419
 11
-31.7083
 21
94.4054
  0
LINE
  8
0
 10
-31.7083
 20
94.4054
 11
-29.3874
 21
101.548
  0
LINE
  8
0
 10
-29.3874
 20
101.548
 11
-28.7704
 21
100.709
  0
LINE
  8
0
 10
-28.7704
 20
100.709
 11
-22.5037
 21
97.8682
  0
LINE
  8
0
 10
-22.5037
 20
97.8682
 11
-22.5037
 21
97.2173
  0
LINE
  8
0
 10
-22.5037
 20
97.2173
 11
-24.6671
 21
90.7628
  0
LINE
  8
0
 10
-24.6671
 20
90.7628
 11
-31.339
 21
92.1173
  0
LINE
  8
0
 10
-8.99689
 20
94.5851
 11
-8.84125
 21
94.8918
  0
LINE
  8
0
 10
-8.84125
 20
94.8918
 11
-8.83209
 21
94.8973
  0
LINE
  8
0
 10
-8.83209
 20
94.8973
 11
-8.8385
 21
94.8978
  0
LINE
  8
0
 10
-8.8385
 20
94.8978
 11
-8.83575
 21
94.9028
  0
LINE
  8
0
 10
-8.83575
 20
94.9028
 11
-8.84399
 21
94.8978
  0
LINE
  8
0
 10
-8.84399
 20
94.8978
 11
-9.18777
 21
94.917
  0
LINE
  8
0
 10
-9.18777
 20
94.917
 11
-12.2086
 21
98.3891
  0
LINE
  8
0
 10
-12.2086
 20
98.3891
 11
-7.69089
 21
97.5093
  0
LINE
  8
0
 10
-7.69089
 20
97.5093
 11
-7.5032
 21
97.2214
  0
LINE
  8
0
 10
-7.5032
 20
97.2214
 11
-7.5032
 21
97.2104
  0
LINE
  8
0
 10
-7.5032
 20
97.2104
 11
-7.49954
 21
97.2159
  0
LINE
  8
0
 10
-7.49954
 20
97.2159
 11
-7.49634
 21
97.2108
  0
LINE
  8
0
 10
-7.49634
 20
97.2108
 11
-7.49634
 21
97.2209
  0
LINE
  8
0
 10
-7.49634
 20
97.2209
 11
-7.30865
 21
97.5089
  0
LINE
  8
0
 10
-7.30865
 20
97.5089
 11
-2.79099
 21
98.3891
  0
LINE
  8
0
 10
-2.79099
 20
98.3891
 11
-5.81177
 21
94.9165
  0
LINE
  8
0
 10
-5.81177
 20
94.9165
 11
-6.15463
 21
94.8973
  0
LINE
  8
0
 10
-6.15463
 20
94.8973
 11
-6.1647
 21
94.9033
  0
LINE
  8
0
 10
-6.1647
 20
94.9033
 11
-6.1615
 21
94.8973
  0
LINE
  8
0
 10
-6.1615
 20
94.8973
 11
-6.16699
 21
94.8969
  0
LINE
  8
0
 10
-6.16699
 20
94.8969
 11
-6.15921
 21
94.8923
  0
LINE
  8
0
 10
-6.15921
 20
94.8923
 11
-6.00357
 21
94.5851
  0
LINE
  8
0
 10
-6.00357
 20
94.5851
 11
-7.5
 21
90.2327
  0
LINE
  8
0
 10
-7.5
 20
90.2327
 11
-8.99689
 21
94.5851
  0
LINE
  8
0
 10
21.0031
 20
94.5851
 11
21.1588
 21
94.8918
  0
LINE
  8
0
 10
21.1588
 20
94.8918
 11
21.1679
 21
94.8973
  0
LINE
  8
0
 10
21.1679
 20
94.8973
 11
21.1615
 21
94.8978
  0
LINE
  8
0
 10
21.1615
 20
94.8978
 11
21.1642
 21
94.9028
  0
LINE
  8
0
 10
21.1642
 20
94.9028
 11
21.156
 21
94.8978
  0
LINE
  8
0
 10
21.156
 20
94.8978
 11
20.8122
 21
94.917
  0
LINE
  8
0
 10
20.8122
 20
94.917
 11
17.7914
 21
98.3891
  0
LINE
  8
0
 10
17.7914
 20
98.3891
 11
22.3091
 21
97.5093
  0
LINE
  8
0
 10
22.3091
 20
97.5093
 11
22.4968
 21
97.2214
  0
LINE
  8
0
 10
22.4968
 20
97.2214
 11
22.4968
 21
97.2104
  0
LINE
  8
0
 10
22.4968
 20
97.2104
 11
22.5005
 21
97.2159
  0
LINE
  8
0
 10
22.5005
 20
97.2159
 11
22.5037
 21
97.2108
  0
LINE
  8
0
 10
22.5037
 20
97.2108
 11
22.5037
 21
97.2209
  0
LINE
  8
0
 10
22.5037
 20
97.2209
 11
22.6913
 21
97.5089
  0
LINE
  8
0
 10
22.6913
 20
97.5089
 11
27.209
 21
98.3891
  0
LINE
  8
0
 10
27.209
 20
98.3891
 11
24.1882
 21
94.9165
  0
LINE
  8
0
 10
24.1882
 20
94.9165
 11
23.8454
 21
94.8973
  0
LINE
  8
0
 10
23.8454
 20
94.8973
 11
23.8353
 21
94.9033
  0
LINE
  8
0
 10
23.8353
 20
94.9033
 11
23.8385
 21
94.8973
  0
LINE
  8
0
 10
23.8385
 20
94.8973
 11
23.833
 21
94.8969
  0
LINE
  8
0
 10
23.833
 20
94.8969
 11
23.8408
 21
94.8923
  0
LINE
  8
0
 10
23.8408
 20
94.8923
 11
23.9964
 21
94.5851
  0
LINE
  8
0
 10
23.9964
 20
94.5851
 11
22.5
 21
90.2327
  0
LINE
  8
0
 10
22.5
 20
90.2327
 11
21.0031
 21
94.5851
  0
LINE
  8
0
 10
16.3435
 20
81.9073
 11
11.8336
 21
87.0096
  0
LINE
  8
0
 10
11.8336
 20
87.0096
 11
16.3431
 21
92.1114
  0
LINE
  8
0
 10
16.3431
 20
92.1114
 11
16.9052
 21
92.4364
  0
LINE
  8
0
 10
16.9052
 20
92.4364
 11
22.4991
 21
88.43
  0
LINE
  8
0
 10
22.4991
 20
88.43
 11
34.0659
 21
87.1493
  0
LINE
  8
0
 10
34.0659
 20
87.1493
 11
34.1535
 21
86.8797
  0
LINE
  8
0
 10
34.1535
 20
86.8797
 11
22.4991
 21
85.5901
  0
LINE
  8
0
 10
22.4991
 20
85.5901
 11
16.9052
 21
81.5833
  0
LINE
  8
0
 10
16.9052
 20
81.5833
 11
16.3435
 21
81.9073
  0
LINE
  8
0
 10
-13.6565
 20
81.9073
 11
-18.1664
 21
87.0096
  0
LINE
  8
0
 10
-18.1664
 20
87.0096
 11
-13.6569
 21
92.1114
  0
LINE
  8
0
 10
-13.6569
 20
92.1114
 11
-13.0948
 21
92.4364
  0
LINE
  8
0
 10
-13.0948
 20
92.4364
 11
-7.50092
 21
88.43
  0
LINE
  8
0
 10
-7.50092
 20
88.43
 11
5.32745
 21
87.0096
  0
LINE
  8
0
 10
5.32745
 20
87.0096
 11
-7.50092
 21
85.5901
  0
LINE
  8
0
 10
-7.50092
 20
85.5901
 11
-13.0948
 21
81.5833
  0
LINE
  8
0
 10
-13.0948
 20
81.5833
 11
-13.6565
 21
81.9073
  0
LINE
  8
0
 10
-33.7835
 20
88.0184
 11
-24.6725
 21
87.0096
  0
LINE
  8
0
 10
-24.6725
 20
87.0096
 11
-34.4633
 21
85.9262
  0
LINE
  8
0
 10
-34.4633
 20
85.9262
 11
-33.7835
 21
88.0184
  0
LINE
  8
0
 10
-16.339
 20
66.1365
 11
-16.9011
 21
66.461
  0
LINE
  8
0
 10
-16.9011
 20
66.461
 11
-16.2286
 21
73.3087
  0
LINE
  8
0
 10
-16.2286
 20
73.3087
 11
-21.4137
 21
85.1282
  0
LINE
  8
0
 10
-21.4137
 20
85.1282
 11
-13.7704
 21
74.7282
  0
LINE
  8
0
 10
-13.7704
 20
74.7282
 11
-7.50366
 21
71.8874
  0
LINE
  8
0
 10
-7.50366
 20
71.8874
 11
-7.50366
 21
71.2364
  0
LINE
  8
0
 10
-7.50366
 20
71.2364
 11
-9.66705
 21
64.782
  0
LINE
  8
0
 10
-9.66705
 20
64.782
 11
-16.339
 21
66.1365
  0
LINE
  8
0
 10
13.661
 20
66.1365
 11
13.0989
 21
66.461
  0
LINE
  8
0
 10
13.0989
 20
66.461
 11
13.7714
 21
73.3087
  0
LINE
  8
0
 10
13.7714
 20
73.3087
 11
8.58627
 21
85.1282
  0
LINE
  8
0
 10
8.58627
 20
85.1282
 11
16.2296
 21
74.7282
  0
LINE
  8
0
 10
16.2296
 20
74.7282
 11
22.4963
 21
71.8874
  0
LINE
  8
0
 10
22.4963
 20
71.8874
 11
22.4963
 21
71.2364
  0
LINE
  8
0
 10
22.4963
 20
71.2364
 11
20.3329
 21
64.782
  0
LINE
  8
0
 10
20.3329
 20
64.782
 11
13.661
 21
66.1365
  0
LINE
  8
0
 10
22.6913
 20
76.5103
 11
22.5032
 21
76.7987
  0
LINE
  8
0
 10
22.5032
 20
76.7987
 11
22.5032
 21
76.8083
  0
LINE
  8
0
 10
22.5032
 20
76.8083
 11
22.5
 21
76.8033
  0
LINE
  8
0
 10
22.5
 20
76.8033
 11
22.4963
 21
76.8092
  0
LINE
  8
0
 10
22.4963
 20
76.8092
 11
22.4963
 21
76.7978
  0
LINE
  8
0
 10
22.4963
 20
76.7978
 11
22.3087
 21
76.5099
  0
LINE
  8
0
 10
22.3087
 20
76.5099
 11
17.791
 21
75.63
  0
LINE
  8
0
 10
17.791
 20
75.63
 11
20.8118
 21
79.1022
  0
LINE
  8
0
 10
20.8118
 20
79.1022
 11
21.156
 21
79.1219
  0
LINE
  8
0
 10
21.156
 20
79.1219
 11
21.1642
 21
79.1168
  0
LINE
  8
0
 10
21.1642
 20
79.1168
 11
21.1615
 21
79.1219
  0
LINE
  8
0
 10
21.1615
 20
79.1219
 11
21.1674
 21
79.1223
  0
LINE
  8
0
 10
21.1674
 20
79.1223
 11
21.1588
 21
79.1273
  0
LINE
  8
0
 10
21.1588
 20
79.1273
 11
21.0031
 21
79.4345
  0
LINE
  8
0
 10
21.0031
 20
79.4345
 11
22.5
 21
83.7869
  0
LINE
  8
0
 10
22.5
 20
83.7869
 11
23.9964
 21
79.4345
  0
LINE
  8
0
 10
23.9964
 20
79.4345
 11
23.8408
 21
79.1269
  0
LINE
  8
0
 10
23.8408
 20
79.1269
 11
23.8326
 21
79.1223
  0
LINE
  8
0
 10
23.8326
 20
79.1223
 11
23.838
 21
79.1219
  0
LINE
  8
0
 10
23.838
 20
79.1219
 11
23.8353
 21
79.1164
  0
LINE
  8
0
 10
23.8353
 20
79.1164
 11
23.8445
 21
79.1219
  0
LINE
  8
0
 10
23.8445
 20
79.1219
 11
24.1878
 21
79.1026
  0
LINE
  8
0
 10
24.1878
 20
79.1026
 11
27.2086
 21
75.63
  0
LINE
  8
0
 10
27.2086
 20
75.63
 11
22.6913
 21
76.5103
  0
LINE
  8
0
 10
-7.30865
 20
76.5103
 11
-7.4968
 21
76.7987
  0
LINE
  8
0
 10
-7.4968
 20
76.7987
 11
-7.4968
 21
76.8083
  0
LINE
  8
0
 10
-7.4968
 20
76.8083
 11
-7.5
 21
76.8033
  0
LINE
  8
0
 10
-7.5
 20
76.8033
 11
-7.50366
 21
76.8092
  0
LINE
  8
0
 10
-7.50366
 20
76.8092
 11
-7.50366
 21
76.7978
  0
LINE
  8
0
 10
-7.50366
 20
76.7978
 11
-7.69135
 21
76.5099
  0
LINE
  8
0
 10
-7.69135
 20
76.5099
 11
-12.209
 21
75.63
  0
LINE
  8
0
 10
-12.209
 20
75.63
 11
-9.18823
 21
79.1022
  0
LINE
  8
0
 10
-9.18823
 20
79.1022
 11
-8.84399
 21
79.1219
  0
LINE
  8
0
 10
-8.84399
 20
79.1219
 11
-8.83575
 21
79.1168
  0
LINE
  8
0
 10
-8.83575
 20
79.1168
 11
-8.8385
 21
79.1219
  0
LINE
  8
0
 10
-8.8385
 20
79.1219
 11
-8.83255
 21
79.1223
  0
LINE
  8
0
 10
-8.83255
 20
79.1223
 11
-8.84125
 21
79.1273
  0
LINE
  8
0
 10
-8.84125
 20
79.1273
 11
-8.99689
 21
79.4345
  0
LINE
  8
0
 10
-8.99689
 20
79.4345
 11
-7.5
 21
83.7869
  0
LINE
  8
0
 10
-7.5
 20
83.7869
 11
-6.00357
 21
79.4345
  0
LINE
  8
0
 10
-6.00357
 20
79.4345
 11
-6.15921
 21
79.1269
  0
LINE
  8
0
 10
-6.15921
 20
79.1269
 11
-6.16745
 21
79.1223
  0
LINE
  8
0
 10
-6.16745
 20
79.1223
 11
-6.16196
 21
79.1219
  0
LINE
  8
0
 10
-6.16196
 20
79.1219
 11
-6.1647
 21
79.1164
  0
LINE
  8
0
 10
-6.1647
 20
79.1164
 11
-6.15555
 21
79.1219
  0
LINE
  8
0
 10
-6.15555
 20
79.1219
 11
-5.81223
 21
79.1026
  0
LINE
  8
0
 10
-5.81223
 20
79.1026
 11
-2.79144
 21
75.63
  0
LINE
  8
0
 10
-2.79144
 20
75.63
 11
-7.30865
 21
76.5103
  0
LINE
  8
0
 10
-31.2291
 20
74.7301
 11
-31.902
 21
81.5778
  0
LINE
  8
0
 10
-31.902
 20
81.5778
 11
-31.339
 21
81.9028
  0
LINE
  8
0
 10
-31.339
 20
81.9028
 11
-24.6666
 21
83.2564
  0
LINE
  8
0
 10
-24.6666
 20
83.2564
 11
-22.5032
 21
76.8024
  0
LINE
  8
0
 10
-22.5032
 20
76.8024
 11
-22.5032
 21
76.151
  0
LINE
  8
0
 10
-22.5032
 20
76.151
 11
-28.7695
 21
73.3105
  0
LINE
  8
0
 10
-28.7695
 20
73.3105
 11
-36.4151
 21
62.9083
  0
LINE
  8
0
 10
-36.4151
 20
62.9083
 11
-31.2291
 21
74.7301
  0
LINE
  8
0
 10
-1.2291
 20
74.7301
 11
-1.90201
 21
81.5778
  0
LINE
  8
0
 10
-1.90201
 20
81.5778
 11
-1.33896
 21
81.9028
  0
LINE
  8
0
 10
-1.33896
 20
81.9028
 11
5.3334
 21
83.2564
  0
LINE
  8
0
 10
5.3334
 20
83.2564
 11
7.4968
 21
76.8024
  0
LINE
  8
0
 10
7.4968
 20
76.8024
 11
7.4968
 21
76.151
  0
LINE
  8
0
 10
7.4968
 20
76.151
 11
1.23047
 21
73.3105
  0
LINE
  8
0
 10
1.23047
 20
73.3105
 11
-6.4151
 21
62.9083
  0
LINE
  8
0
 10
-6.4151
 20
62.9083
 11
-1.2291
 21
74.7301
  0
LINE
  8
0
 10
28.7709
 20
74.7301
 11
28.098
 21
81.5778
  0
LINE
  8
0
 10
28.098
 20
81.5778
 11
28.661
 21
81.9028
  0
LINE
  8
0
 10
28.661
 20
81.9028
 11
35.331
 21
83.2559
  0
LINE
  8
0
 10
35.331
 20
83.2559
 11
37.4968
 21
76.5902
  0
LINE
  8
0
 10
37.4968
 20
76.5902
 11
37.4968
 21
76.151
  0
LINE
  8
0
 10
37.4968
 20
76.151
 11
31.2305
 21
73.3105
  0
LINE
  8
0
 10
31.2305
 20
73.3105
 11
23.5849
 21
62.9083
  0
LINE
  8
0
 10
23.5849
 20
62.9083
 11
28.7709
 21
74.7301
  0
LINE
  8
0
 10
-37.3087
 20
76.5103
 11
-37.4516
 21
76.7294
  0
LINE
  8
0
 10
-37.4516
 20
76.7294
 11
-36.2961
 21
80.2854
  0
LINE
  8
0
 10
-36.2961
 20
80.2854
 11
-36.0036
 21
79.4345
  0
LINE
  8
0
 10
-36.0036
 20
79.4345
 11
-36.1592
 21
79.1269
  0
LINE
  8
0
 10
-36.1592
 20
79.1269
 11
-36.1674
 21
79.1223
  0
LINE
  8
0
 10
-36.1674
 20
79.1223
 11
-36.162
 21
79.1219
  0
LINE
  8
0
 10
-36.162
 20
79.1219
 11
-36.1647
 21
79.1164
  0
LINE
  8
0
 10
-36.1647
 20
79.1164
 11
-36.1555
 21
79.1219
  0
LINE
  8
0
 10
-36.1555
 20
79.1219
 11
-35.8122
 21
79.1026
  0
LINE
  8
0
 10
-35.8122
 20
79.1026
 11
-32.7914
 21
75.63
  0
LINE
  8
0
 10
-32.7914
 20
75.63
 11
-37.3087
 21
76.5103
  0
LINE
  8
0
 10
-41.2304
 20
65.0993
 11
-38.8295
 21
72.4884
  0
LINE
  8
0
 10
-38.8295
 20
72.4884
 11
-37.5037
 21
71.8874
  0
LINE
  8
0
 10
-37.5037
 20
71.8874
 11
-37.5037
 21
71.2364
  0
LINE
  8
0
 10
-37.5037
 20
71.2364
 11
-39.6671
 21
64.782
  0
LINE
  8
0
 10
-39.6671
 20
64.782
 11
-41.2304
 21
65.0993
  0
LINE
  8
0
 10
6.00311
 20
68.6043
 11
6.15875
 21
68.911
  0
LINE
  8
0
 10
6.15875
 20
68.911
 11
6.16791
 21
68.9165
  0
LINE
  8
0
 10
6.16791
 20
68.9165
 11
6.1615
 21
68.9169
  0
LINE
  8
0
 10
6.1615
 20
68.9169
 11
6.16425
 21
68.922
  0
LINE
  8
0
 10
6.16425
 20
68.922
 11
6.15601
 21
68.9169
  0
LINE
  8
0
 10
6.15601
 20
68.9169
 11
5.81223
 21
68.9362
  0
LINE
  8
0
 10
5.81223
 20
68.9362
 11
2.79144
 21
72.4083
  0
LINE
  8
0
 10
2.79144
 20
72.4083
 11
7.30911
 21
71.5285
  0
LINE
  8
0
 10
7.30911
 20
71.5285
 11
7.4968
 21
71.2405
  0
LINE
  8
0
 10
7.4968
 20
71.2405
 11
7.4968
 21
71.2296
  0
LINE
  8
0
 10
7.4968
 20
71.2296
 11
7.50046
 21
71.235
  0
LINE
  8
0
 10
7.50046
 20
71.235
 11
7.50366
 21
71.23
  0
LINE
  8
0
 10
7.50366
 20
71.23
 11
7.50366
 21
71.2401
  0
LINE
  8
0
 10
7.50366
 20
71.2401
 11
7.69135
 21
71.528
  0
LINE
  8
0
 10
7.69135
 20
71.528
 11
12.209
 21
72.4083
  0
LINE
  8
0
 10
12.209
 20
72.4083
 11
9.18823
 21
68.9357
  0
LINE
  8
0
 10
9.18823
 20
68.9357
 11
8.84537
 21
68.9165
  0
LINE
  8
0
 10
8.84537
 20
68.9165
 11
8.8353
 21
68.9224
  0
LINE
  8
0
 10
8.8353
 20
68.9224
 11
8.8385
 21
68.9165
  0
LINE
  8
0
 10
8.8385
 20
68.9165
 11
8.83301
 21
68.916
  0
LINE
  8
0
 10
8.83301
 20
68.916
 11
8.84079
 21
68.9114
  0
LINE
  8
0
 10
8.84079
 20
68.9114
 11
8.99643
 21
68.6043
  0
LINE
  8
0
 10
8.99643
 20
68.6043
 11
7.5
 21
64.2519
  0
LINE
  8
0
 10
7.5
 20
64.2519
 11
6.00311
 21
68.6043
  0
LINE
  8
0
 10
36.0031
 20
68.6043
 11
36.1588
 21
68.911
  0
LINE
  8
0
 10
36.1588
 20
68.911
 11
36.1679
 21
68.9165
  0
LINE
  8
0
 10
36.1679
 20
68.9165
 11
36.1615
 21
68.9169
  0
LINE
  8
0
 10
36.1615
 20
68.9169
 11
36.1642
 21
68.922
  0
LINE
  8
0
 10
36.1642
 20
68.922
 11
36.156
 21
68.9169
  0
LINE
  8
0
 10
36.156
 20
68.9169
 11
35.8122
 21
68.9362
  0
LINE
  8
0
 10
35.8122
 20
68.9362
 11
32.7914
 21
72.4083
  0
LINE
  8
0
 10
32.7914
 20
72.4083
 11
37.3091
 21
71.5285
  0
LINE
  8
0
 10
37.3091
 20
71.5285
 11
37.4968
 21
71.2405
  0
LINE
  8
0
 10
37.4968
 20
71.2405
 11
37.4968
 21
71.2296
  0
LINE
  8
0
 10
37.4968
 20
71.2296
 11
37.5005
 21
71.235
  0
LINE
  8
0
 10
37.5005
 20
71.235
 11
37.5037
 21
71.23
  0
LINE
  8
0
 10
37.5037
 20
71.23
 11
37.5037
 21
71.2401
  0
LINE
  8
0
 10
37.5037
 20
71.2401
 11
37.6913
 21
71.528
  0
LINE
  8
0
 10
37.6913
 20
71.528
 11
39.0552
 21
71.7938
  0
LINE
  8
0
 10
39.0552
 20
71.7938
 11
39.7675
 21
69.6016
  0
LINE
  8
0
 10
39.7675
 20
69.6016
 11
39.1882
 21
68.9357
  0
LINE
  8
0
 10
39.1882
 20
68.9357
 11
38.8454
 21
68.9165
  0
LINE
  8
0
 10
38.8454
 20
68.9165
 11
38.8353
 21
68.9224
  0
LINE
  8
0
 10
38.8353
 20
68.9224
 11
38.8385
 21
68.9165
  0
LINE
  8
0
 10
38.8385
 20
68.9165
 11
38.833
 21
68.916
  0
LINE
  8
0
 10
38.833
 20
68.916
 11
38.8408
 21
68.9114
  0
LINE
  8
0
 10
38.8408
 20
68.9114
 11
38.9964
 21
68.6043
  0
LINE
  8
0
 10
38.9964
 20
68.6043
 11
37.5
 21
64.2519
  0
LINE
  8
0
 10
37.5
 20
64.2519
 11
36.0031
 21
68.6043
  0
LINE
  8
0
 10
-23.9969
 20
68.6043
 11
-23.8412
 21
68.911
  0
LINE
  8
0
 10
-23.8412
 20
68.911
 11
-23.8321
 21
68.9165
  0
LINE
  8
0
 10
-23.8321
 20
68.9165
 11
-23.8385
 21
68.9169
  0
LINE
  8
0
 10
-23.8385
 20
68.9169
 11
-23.8358
 21
68.922
  0
LINE
  8
0
 10
-23.8358
 20
68.922
 11
-23.844
 21
68.9169
  0
LINE
  8
0
 10
-23.844
 20
68.9169
 11
-24.1878
 21
68.9362
  0
LINE
  8
0
 10
-24.1878
 20
68.9362
 11
-27.2086
 21
72.4083
  0
LINE
  8
0
 10
-27.2086
 20
72.4083
 11
-22.6909
 21
71.5285
  0
LINE
  8
0
 10
-22.6909
 20
71.5285
 11
-22.5032
 21
71.2405
  0
LINE
  8
0
 10
-22.5032
 20
71.2405
 11
-22.5032
 21
71.2296
  0
LINE
  8
0
 10
-22.5032
 20
71.2296
 11
-22.4995
 21
71.235
  0
LINE
  8
0
 10
-22.4995
 20
71.235
 11
-22.4963
 21
71.23
  0
LINE
  8
0
 10
-22.4963
 20
71.23
 11
-22.4963
 21
71.2401
  0
LINE
  8
0
 10
-22.4963
 20
71.2401
 11
-22.3087
 21
71.528
  0
LINE
  8
0
 10
-22.3087
 20
71.528
 11
-17.791
 21
72.4083
  0
LINE
  8
0
 10
-17.791
 20
72.4083
 11
-20.8118
 21
68.9357
  0
LINE
  8
0
 10
-20.8118
 20
68.9357
 11
-21.1546
 21
68.9165
  0
LINE
  8
0
 10
-21.1546
 20
68.9165
 11
-21.1647
 21
68.9224
  0
LINE
  8
0
 10
-21.1647
 20
68.9224
 11
-21.1615
 21
68.9165
  0
LINE
  8
0
 10
-21.1615
 20
68.9165
 11
-21.167
 21
68.916
  0
LINE
  8
0
 10
-21.167
 20
68.916
 11
-21.1592
 21
68.9114
  0
LINE
  8
0
 10
-21.1592
 20
68.9114
 11
-21.0036
 21
68.6043
  0
LINE
  8
0
 10
-21.0036
 20
68.6043
 11
-22.5
 21
64.2519
  0
LINE
  8
0
 10
-22.5
 20
64.2519
 11
-23.9969
 21
68.6043
  0
LINE
  8
0
 10
31.3435
 20
55.9265
 11
26.8336
 21
61.0287
  0
LINE
  8
0
 10
26.8336
 20
61.0287
 11
31.3431
 21
66.1305
  0
LINE
  8
0
 10
31.3431
 20
66.1305
 11
31.9052
 21
66.4555
  0
LINE
  8
0
 10
31.9052
 20
66.4555
 11
37.4991
 21
62.4492
  0
LINE
  8
0
 10
37.4991
 20
62.4492
 11
42.2629
 21
61.9217
  0
LINE
  8
0
 10
42.2629
 20
61.9217
 11
42.8228
 21
60.1983
  0
LINE
  8
0
 10
42.8228
 20
60.1983
 11
37.4991
 21
59.6092
  0
LINE
  8
0
 10
37.4991
 20
59.6092
 11
31.9052
 21
55.6024
  0
LINE
  8
0
 10
31.9052
 20
55.6024
 11
31.3435
 21
55.9265
  0
LINE
  8
0
 10
-28.6565
 20
55.9265
 11
-33.1664
 21
61.0287
  0
LINE
  8
0
 10
-33.1664
 20
61.0287
 11
-28.6569
 21
66.1305
  0
LINE
  8
0
 10
-28.6569
 20
66.1305
 11
-28.0948
 21
66.4555
  0
LINE
  8
0
 10
-28.0948
 20
66.4555
 11
-22.5009
 21
62.4492
  0
LINE
  8
0
 10
-22.5009
 20
62.4492
 11
-9.67255
 21
61.0287
  0
LINE
  8
0
 10
-9.67255
 20
61.0287
 11
-22.5009
 21
59.6092
  0
LINE
  8
0
 10
-22.5009
 20
59.6092
 11
-28.0948
 21
55.6024
  0
LINE
  8
0
 10
-28.0948
 20
55.6024
 11
-28.6565
 21
55.9265
  0
LINE
  8
0
 10
1.34354
 20
55.9265
 11
-3.16635
 21
61.0287
  0
LINE
  8
0
 10
-3.16635
 20
61.0287
 11
1.34308
 21
66.1305
  0
LINE
  8
0
 10
1.34308
 20
66.1305
 11
1.90521
 21
66.4555
  0
LINE
  8
0
 10
1.90521
 20
66.4555
 11
7.49908
 21
62.4492
  0
LINE
  8
0
 10
7.49908
 20
62.4492
 11
20.3275
 21
61.0287
  0
LINE
  8
0
 10
20.3275
 20
61.0287
 11
7.49908
 21
59.6092
  0
LINE
  8
0
 10
7.49908
 20
59.6092
 11
1.90521
 21
55.6024
  0
LINE
  8
0
 10
1.90521
 20
55.6024
 11
1.34354
 21
55.9265
  0
LINE
  8
0
 10
-42.453
 20
61.3366
 11
-39.6725
 21
61.0287
  0
LINE
  8
0
 10
-39.6725
 20
61.0287
 11
-42.6604
 21
60.6981
  0
LINE
  8
0
 10
-42.6604
 20
60.6981
 11
-42.453
 21
61.3366
  0
LINE
  8
0
 10
-1.33896
 20
40.1556
 11
-1.90109
 21
40.4802
  0
LINE
  8
0
 10
-1.90109
 20
40.4802
 11
-1.22864
 21
47.3279
  0
LINE
  8
0
 10
-1.22864
 20
47.3279
 11
-6.41373
 21
59.1473
  0
LINE
  8
0
 10
-6.41373
 20
59.1473
 11
1.22955
 21
48.7474
  0
LINE
  8
0
 10
1.22955
 20
48.7474
 11
7.49634
 21
45.9065
  0
LINE
  8
0
 10
7.49634
 20
45.9065
 11
7.49634
 21
45.2556
  0
LINE
  8
0
 10
7.49634
 20
45.2556
 11
5.33295
 21
38.8011
  0
LINE
  8
0
 10
5.33295
 20
38.8011
 11
-1.33896
 21
40.1556
  0
LINE
  8
0
 10
28.661
 20
40.1556
 11
28.0989
 21
40.4802
  0
LINE
  8
0
 10
28.0989
 20
40.4802
 11
28.7714
 21
47.3279
  0
LINE
  8
0
 10
28.7714
 20
47.3279
 11
23.5863
 21
59.1473
  0
LINE
  8
0
 10
23.5863
 20
59.1473
 11
31.2296
 21
48.7474
  0
LINE
  8
0
 10
31.2296
 20
48.7474
 11
37.4963
 21
45.9065
  0
LINE
  8
0
 10
37.4963
 20
45.9065
 11
37.4963
 21
45.2556
  0
LINE
  8
0
 10
37.4963
 20
45.2556
 11
35.3329
 21
38.8011
  0
LINE
  8
0
 10
35.3329
 20
38.8011
 11
28.661
 21
40.1556
  0
LINE
  8
0
 10
-31.339
 20
40.1556
 11
-31.9011
 21
40.4802
  0
LINE
  8
0
 10
-31.9011
 20
40.4802
 11
-31.2286
 21
47.3279
  0
LINE
  8
0
 10
-31.2286
 20
47.3279
 11
-36.4137
 21
59.1473
  0
LINE
  8
0
 10
-36.4137
 20
59.1473
 11
-28.7704
 21
48.7474
  0
LINE
  8
0
 10
-28.7704
 20
48.7474
 11
-22.5037
 21
45.9065
  0
LINE
  8
0
 10
-22.5037
 20
45.9065
 11
-22.5037
 21
45.2556
  0
LINE
  8
0
 10
-22.5037
 20
45.2556
 11
-24.6671
 21
38.8011
  0
LINE
  8
0
 10
-24.6671
 20
38.8011
 11
-31.339
 21
40.1556
  0
LINE
  8
0
 10
37.6913
 20
50.5295
 11
37.5032
 21
50.8179
  0
LINE
  8
0
 10
37.5032
 20
50.8179
 11
37.5032
 21
50.8275
  0
LINE
  8
0
 10
37.5032
 20
50.8275
 11
37.5
 21
50.8224
  0
LINE
  8
0
 10
37.5
 20
50.8224
 11
37.4963
 21
50.8284
  0
LINE
  8
0
 10
37.4963
 20
50.8284
 11
37.4963
 21
50.817
  0
LINE
  8
0
 10
37.4963
 20
50.817
 11
37.3087
 21
50.529
  0
LINE
  8
0
 10
37.3087
 20
50.529
 11
32.791
 21
49.6492
  0
LINE
  8
0
 10
32.791
 20
49.6492
 11
35.8118
 21
53.1213
  0
LINE
  8
0
 10
35.8118
 20
53.1213
 11
36.156
 21
53.141
  0
LINE
  8
0
 10
36.156
 20
53.141
 11
36.1642
 21
53.136
  0
LINE
  8
0
 10
36.1642
 20
53.136
 11
36.1615
 21
53.141
  0
LINE
  8
0
 10
36.1615
 20
53.141
 11
36.1674
 21
53.1415
  0
LINE
  8
0
 10
36.1674
 20
53.1415
 11
36.1588
 21
53.1465
  0
LINE
  8
0
 10
36.1588
 20
53.1465
 11
36.0031
 21
53.4537
  0
LINE
  8
0
 10
36.0031
 20
53.4537
 11
37.5
 21
57.8061
  0
LINE
  8
0
 10
37.5
 20
57.8061
 11
38.9964
 21
53.4537
  0
LINE
  8
0
 10
38.9964
 20
53.4537
 11
38.8408
 21
53.1461
  0
LINE
  8
0
 10
38.8408
 20
53.1461
 11
38.8326
 21
53.1415
  0
LINE
  8
0
 10
38.8326
 20
53.1415
 11
38.838
 21
53.141
  0
LINE
  8
0
 10
38.838
 20
53.141
 11
38.8353
 21
53.1355
  0
LINE
  8
0
 10
38.8353
 20
53.1355
 11
38.8445
 21
53.141
  0
LINE
  8
0
 10
38.8445
 20
53.141
 11
39.1878
 21
53.1218
  0
LINE
  8
0
 10
39.1878
 20
53.1218
 11
42.2086
 21
49.6492
  0
LINE
  8
0
 10
42.2086
 20
49.6492
 11
37.6913
 21
50.5295
  0
LINE
  8
0
 10
7.69135
 20
50.5295
 11
7.5032
 21
50.8179
  0
LINE
  8
0
 10
7.5032
 20
50.8179
 11
7.5032
 21
50.8275
  0
LINE
  8
0
 10
7.5032
 20
50.8275
 11
7.5
 21
50.8224
  0
LINE
  8
0
 10
7.5
 20
50.8224
 11
7.49634
 21
50.8284
  0
LINE
  8
0
 10
7.49634
 20
50.8284
 11
7.49634
 21
50.817
  0
LINE
  8
0
 10
7.49634
 20
50.817
 11
7.30865
 21
50.529
  0
LINE
  8
0
 10
7.30865
 20
50.529
 11
2.79099
 21
49.6492
  0
LINE
  8
0
 10
2.79099
 20
49.6492
 11
5.81177
 21
53.1213
  0
LINE
  8
0
 10
5.81177
 20
53.1213
 11
6.15601
 21
53.141
  0
LINE
  8
0
 10
6.15601
 20
53.141
 11
6.16425
 21
53.136
  0
LINE
  8
0
 10
6.16425
 20
53.136
 11
6.1615
 21
53.141
  0
LINE
  8
0
 10
6.1615
 20
53.141
 11
6.16745
 21
53.1415
  0
LINE
  8
0
 10
6.16745
 20
53.1415
 11
6.15875
 21
53.1465
  0
LINE
  8
0
 10
6.15875
 20
53.1465
 11
6.00311
 21
53.4537
  0
LINE
  8
0
 10
6.00311
 20
53.4537
 11
7.5
 21
57.8061
  0
LINE
  8
0
 10
7.5
 20
57.8061
 11
8.99643
 21
53.4537
  0
LINE
  8
0
 10
8.99643
 20
53.4537
 11
8.84079
 21
53.1461
  0
LINE
  8
0
 10
8.84079
 20
53.1461
 11
8.83255
 21
53.1415
  0
LINE
  8
0
 10
8.83255
 20
53.1415
 11
8.83804
 21
53.141
  0
LINE
  8
0
 10
8.83804
 20
53.141
 11
8.8353
 21
53.1355
  0
LINE
  8
0
 10
8.8353
 20
53.1355
 11
8.84445
 21
53.141
  0
LINE
  8
0
 10
8.84445
 20
53.141
 11
9.18777
 21
53.1218
  0
LINE
  8
0
 10
9.18777
 20
53.1218
 11
12.2086
 21
49.6492
  0
LINE
  8
0
 10
12.2086
 20
49.6492
 11
7.69135
 21
50.5295
  0
LINE
  8
0
 10
-22.3087
 20
50.5295
 11
-22.4968
 21
50.8179
  0
LINE
  8
0
 10
-22.4968
 20
50.8179
 11
-22.4968
 21
50.8275
  0
LINE
  8
0
 10
-22.4968
 20
50.8275
 11
-22.5
 21
50.8224
  0
LINE
  8
0
 10
-22.5
 20
50.8224
 11
-22.5037
 21
50.8284
  0
LINE
  8
0
 10
-22.5037
 20
50.8284
 11
-22.5037
 21
50.817
  0
LINE
  8
0
 10
-22.5037
 20
50.817
 11
-22.6913
 21
50.529
  0
LINE
  8
0
 10
-22.6913
 20
50.529
 11
-27.209
 21
49.6492
  0
LINE
  8
0
 10
-27.209
 20
49.6492
 11
-24.1882
 21
53.1213
  0
LINE
  8
0
 10
-24.1882
 20
53.1213
 11
-23.844
 21
53.141
  0
LINE
  8
0
 10
-23.844
 20
53.141
 11
-23.8358
 21
53.136
  0
LINE
  8
0
 10
-23.8358
 20
53.136
 11
-23.8385
 21
53.141
  0
LINE
  8
0
 10
-23.8385
 20
53.141
 11
-23.8326
 21
53.1415
  0
LINE
  8
0
 10
-23.8326
 20
53.1415
 11
-23.8412
 21
53.1465
  0
LINE
  8
0
 10
-23.8412
 20
53.1465
 11
-23.9969
 21
53.4537
  0
LINE
  8
0
 10
-23.9969
 20
53.4537
 11
-22.5
 21
57.8061
  0
LINE
  8
0
 10
-22.5
 20
57.8061
 11
-21.0036
 21
53.4537
  0
LINE
  8
0
 10
-21.0036
 20
53.4537
 11
-21.1592
 21
53.1461
  0
LINE
  8
0
 10
-21.1592
 20
53.1461
 11
-21.1674
 21
53.1415
  0
LINE
  8
0
 10
-21.1674
 20
53.1415
 11
-21.162
 21
53.141
  0
LINE
  8
0
 10
-21.162
 20
53.141
 11
-21.1647
 21
53.1355
  0
LINE
  8
0
 10
-21.1647
 20
53.1355
 11
-21.1555
 21
53.141
  0
LINE
  8
0
 10
-21.1555
 20
53.141
 11
-20.8122
 21
53.1218
  0
LINE
  8
0
 10
-20.8122
 20
53.1218
 11
-17.7914
 21
49.6492
  0
LINE
  8
0
 10
-17.7914
 20
49.6492
 11
-22.3087
 21
50.5295
  0
LINE
  8
0
 10
-47.439
 20
45.9912
 11
-46.2291
 21
48.7492
  0
LINE
  8
0
 10
-46.2291
 20
48.7492
 11
-46.302
 21
49.4907
  0
LINE
  8
0
 10
-46.302
 20
49.4907
 11
-44.0622
 21
56.3838
  0
LINE
  8
0
 10
-44.0622
 20
56.3838
 11
-39.6666
 21
57.2755
  0
LINE
  8
0
 10
-39.6666
 20
57.2755
 11
-37.5032
 21
50.8215
  0
LINE
  8
0
 10
-37.5032
 20
50.8215
 11
-37.5032
 21
50.1701
  0
LINE
  8
0
 10
-37.5032
 20
50.1701
 11
-43.7695
 21
47.3297
  0
LINE
  8
0
 10
-43.7695
 20
47.3297
 11
-49.567
 21
39.442
  0
LINE
  8
0
 10
-49.567
 20
39.442
 11
-47.439
 21
45.9912
  0
LINE
  8
0
 10
13.7709
 20
48.7492
 11
13.098
 21
55.5969
  0
LINE
  8
0
 10
13.098
 20
55.5969
 11
13.661
 21
55.9219
  0
LINE
  8
0
 10
13.661
 20
55.9219
 11
20.3334
 21
57.2755
  0
LINE
  8
0
 10
20.3334
 20
57.2755
 11
22.4968
 21
50.8215
  0
LINE
  8
0
 10
22.4968
 20
50.8215
 11
22.4968
 21
50.1701
  0
LINE
  8
0
 10
22.4968
 20
50.1701
 11
16.2305
 21
47.3297
  0
LINE
  8
0
 10
16.2305
 20
47.3297
 11
8.5849
 21
36.9275
  0
LINE
  8
0
 10
8.5849
 20
36.9275
 11
13.7709
 21
48.7492
  0
LINE
  8
0
 10
-16.2291
 20
48.7492
 11
-16.902
 21
55.5969
  0
LINE
  8
0
 10
-16.902
 20
55.5969
 11
-16.339
 21
55.9219
  0
LINE
  8
0
 10
-16.339
 20
55.9219
 11
-9.6666
 21
57.2755
  0
LINE
  8
0
 10
-9.6666
 20
57.2755
 11
-7.5032
 21
50.8215
  0
LINE
  8
0
 10
-7.5032
 20
50.8215
 11
-7.5032
 21
50.1701
  0
LINE
  8
0
 10
-7.5032
 20
50.1701
 11
-13.7695
 21
47.3297
  0
LINE
  8
0
 10
-13.7695
 20
47.3297
 11
-21.4151
 21
36.9275
  0
LINE
  8
0
 10
-21.4151
 20
36.9275
 11
-16.2291
 21
48.7492
  0
LINE
  8
0
 10
43.7709
 20
48.7492
 11
43.098
 21
55.5969
  0
LINE
  8
0
 10
43.098
 20
55.5969
 11
43.661
 21
55.9219
  0
LINE
  8
0
 10
43.661
 20
55.9219
 11
44.1782
 21
56.0269
  0
LINE
  8
0
 10
44.1782
 20
56.0269
 11
46.9048
 21
47.6354
  0
LINE
  8
0
 10
46.9048
 20
47.6354
 11
46.2305
 21
47.3297
  0
LINE
  8
0
 10
46.2305
 20
47.3297
 11
38.5849
 21
36.9275
  0
LINE
  8
0
 10
38.5849
 20
36.9275
 11
43.7709
 21
48.7492
  0
LINE
  8
0
 10
21.0031
 20
42.6234
 11
21.1588
 21
42.9301
  0
LINE
  8
0
 10
21.1588
 20
42.9301
 11
21.1679
 21
42.9356
  0
LINE
  8
0
 10
21.1679
 20
42.9356
 11
21.1615
 21
42.9361
  0
LINE
  8
0
 10
21.1615
 20
42.9361
 11
21.1642
 21
42.9411
  0
LINE
  8
0
 10
21.1642
 20
42.9411
 11
21.156
 21
42.9361
  0
LINE
  8
0
 10
21.156
 20
42.9361
 11
20.8122
 21
42.9553
  0
LINE
  8
0
 10
20.8122
 20
42.9553
 11
17.7914
 21
46.4275
  0
LINE
  8
0
 10
17.7914
 20
46.4275
 11
22.3091
 21
45.5476
  0
LINE
  8
0
 10
22.3091
 20
45.5476
 11
22.4968
 21
45.2597
  0
LINE
  8
0
 10
22.4968
 20
45.2597
 11
22.4968
 21
45.2487
  0
LINE
  8
0
 10
22.4968
 20
45.2487
 11
22.5005
 21
45.2542
  0
LINE
  8
0
 10
22.5005
 20
45.2542
 11
22.5037
 21
45.2492
  0
LINE
  8
0
 10
22.5037
 20
45.2492
 11
22.5037
 21
45.2592
  0
LINE
  8
0
 10
22.5037
 20
45.2592
 11
22.6913
 21
45.5472
  0
LINE
  8
0
 10
22.6913
 20
45.5472
 11
27.209
 21
46.4275
  0
LINE
  8
0
 10
27.209
 20
46.4275
 11
24.1882
 21
42.9549
  0
LINE
  8
0
 10
24.1882
 20
42.9549
 11
23.8454
 21
42.9356
  0
LINE
  8
0
 10
23.8454
 20
42.9356
 11
23.8353
 21
42.9416
  0
LINE
  8
0
 10
23.8353
 20
42.9416
 11
23.8385
 21
42.9356
  0
LINE
  8
0
 10
23.8385
 20
42.9356
 11
23.833
 21
42.9352
  0
LINE
  8
0
 10
23.833
 20
42.9352
 11
23.8408
 21
42.9306
  0
LINE
  8
0
 10
23.8408
 20
42.9306
 11
23.9964
 21
42.6234
  0
LINE
  8
0
 10
23.9964
 20
42.6234
 11
22.5
 21
38.271
  0
LINE
  8
0
 10
22.5
 20
38.271
 11
21.0031
 21
42.6234
  0
LINE
  8
0
 10
-8.99689
 20
42.6234
 11
-8.84125
 21
42.9301
  0
LINE
  8
0
 10
-8.84125
 20
42.9301
 11
-8.83209
 21
42.9356
  0
LINE
  8
0
 10
-8.83209
 20
42.9356
 11
-8.8385
 21
42.9361
  0
LINE
  8
0
 10
-8.8385
 20
42.9361
 11
-8.83575
 21
42.9411
  0
LINE
  8
0
 10
-8.83575
 20
42.9411
 11
-8.84399
 21
42.9361
  0
LINE
  8
0
 10
-8.84399
 20
42.9361
 11
-9.18777
 21
42.9553
  0
LINE
  8
0
 10
-9.18777
 20
42.9553
 11
-12.2086
 21
46.4275
  0
LINE
  8
0
 10
-12.2086
 20
46.4275
 11
-7.69089
 21
45.5476
  0
LINE
  8
0
 10
-7.69089
 20
45.5476
 11
-7.5032
 21
45.2597
  0
LINE
  8
0
 10
-7.5032
 20
45.2597
 11
-7.5032
 21
45.2487
  0
LINE
  8
0
 10
-7.5032
 20
45.2487
 11
-7.49954
 21
45.2542
  0
LINE
  8
0
 10
-7.49954
 20
45.2542
 11
-7.49634
 21
45.2492
  0
LINE
  8
0
 10
-7.49634
 20
45.2492
 11
-7.49634
 21
45.2592
  0
LINE
  8
0
 10
-7.49634
 20
45.2592
 11
-7.30865
 21
45.5472
  0
LINE
  8
0
 10
-7.30865
 20
45.5472
 11
-2.79099
 21
46.4275
  0
LINE
  8
0
 10
-2.79099
 20
46.4275
 11
-5.81177
 21
42.9549
  0
LINE
  8
0
 10
-5.81177
 20
42.9549
 11
-6.15463
 21
42.9356
  0
LINE
  8
0
 10
-6.15463
 20
42.9356
 11
-6.1647
 21
42.9416
  0
LINE
  8
0
 10
-6.1647
 20
42.9416
 11
-6.1615
 21
42.9356
  0
LINE
  8
0
 10
-6.1615
 20
42.9356
 11
-6.16699
 21
42.9352
  0
LINE
  8
0
 10
-6.16699
 20
42.9352
 11
-6.15921
 21
42.9306
  0
LINE
  8
0
 10
-6.15921
 20
42.9306
 11
-6.00357
 21
42.6234
  0
LINE
  8
0
 10
-6.00357
 20
42.6234
 11
-7.5
 21
38.271
  0
LINE
  8
0
 10
-7.5
 20
38.271
 11
-8.99689
 21
42.6234
  0
LINE
  8
0
 10
-38.9969
 20
42.6234
 11
-38.8412
 21
42.9301
  0
LINE
  8
0
 10
-38.8412
 20
42.9301
 11
-38.8321
 21
42.9356
  0
LINE
  8
0
 10
-38.8321
 20
42.9356
 11
-38.8385
 21
42.9361
  0
LINE
  8
0
 10
-38.8385
 20
42.9361
 11
-38.8358
 21
42.9411
  0
LINE
  8
0
 10
-38.8358
 20
42.9411
 11
-38.844
 21
42.9361
  0
LINE
  8
0
 10
-38.844
 20
42.9361
 11
-39.1878
 21
42.9553
  0
LINE
  8
0
 10
-39.1878
 20
42.9553
 11
-42.2086
 21
46.4275
  0
LINE
  8
0
 10
-42.2086
 20
46.4275
 11
-37.6909
 21
45.5476
  0
LINE
  8
0
 10
-37.6909
 20
45.5476
 11
-37.5032
 21
45.2597
  0
LINE
  8
0
 10
-37.5032
 20
45.2597
 11
-37.5032
 21
45.2487
  0
LINE
  8
0
 10
-37.5032
 20
45.2487
 11
-37.4995
 21
45.2542
  0
LINE
  8
0
 10
-37.4995
 20
45.2542
 11
-37.4963
 21
45.2492
  0
LINE
  8
0
 10
-37.4963
 20
45.2492
 11
-37.4963
 21
45.2592
  0
LINE
  8
0
 10
-37.4963
 20
45.2592
 11
-37.3087
 21
45.5472
  0
LINE
  8
0
 10
-37.3087
 20
45.5472
 11
-32.791
 21
46.4275
  0
LINE
  8
0
 10
-32.791
 20
46.4275
 11
-35.8118
 21
42.9549
  0
LINE
  8
0
 10
-35.8118
 20
42.9549
 11
-36.1546
 21
42.9356
  0
LINE
  8
0
 10
-36.1546
 20
42.9356
 11
-36.1647
 21
42.9416
  0
LINE
  8
0
 10
-36.1647
 20
42.9416
 11
-36.1615
 21
42.9356
  0
LINE
  8
0
 10
-36.1615
 20
42.9356
 11
-36.167
 21
42.9352
  0
LINE
  8
0
 10
-36.167
 20
42.9352
 11
-36.1592
 21
42.9306
  0
LINE
  8
0
 10
-36.1592
 20
42.9306
 11
-36.0036
 21
42.6234
  0
LINE
  8
0
 10
-36.0036
 20
42.6234
 11
-37.5
 21
38.271
  0
LINE
  8
0
 10
-37.5
 20
38.271
 11
-38.9969
 21
42.6234
  0
LINE
  8
0
 10
46.3435
 20
29.9457
 11
41.8336
 21
35.0479
  0
LINE
  8
0
 10
41.8336
 20
35.0479
 11
46.3431
 21
40.1497
  0
LINE
  8
0
 10
46.3431
 20
40.1497
 11
46.9052
 21
40.4747
  0
LINE
  8
0
 10
46.9052
 20
40.4747
 11
49.9369
 21
38.3034
  0
LINE
  8
0
 10
49.9369
 20
38.3034
 11
51.6529
 21
33.0223
  0
LINE
  8
0
 10
51.6529
 20
33.0223
 11
46.9052
 21
29.6216
  0
LINE
  8
0
 10
46.9052
 20
29.6216
 11
46.3435
 21
29.9457
  0
LINE
  8
0
 10
16.3435
 20
29.9457
 11
11.8336
 21
35.0479
  0
LINE
  8
0
 10
11.8336
 20
35.0479
 11
16.3431
 21
40.1497
  0
LINE
  8
0
 10
16.3431
 20
40.1497
 11
16.9052
 21
40.4747
  0
LINE
  8
0
 10
16.9052
 20
40.4747
 11
22.4991
 21
36.4684
  0
LINE
  8
0
 10
22.4991
 20
36.4684
 11
35.3275
 21
35.0479
  0
LINE
  8
0
 10
35.3275
 20
35.0479
 11
22.4991
 21
33.6284
  0
LINE
  8
0
 10
22.4991
 20
33.6284
 11
16.9052
 21
29.6216
  0
LINE
  8
0
 10
16.9052
 20
29.6216
 11
16.3435
 21
29.9457
  0
LINE
  8
0
 10
-43.6565
 20
29.9457
 11
-48.1664
 21
35.0479
  0
LINE
  8
0
 10
-48.1664
 20
35.0479
 11
-43.6569
 21
40.1497
  0
LINE
  8
0
 10
-43.6569
 20
40.1497
 11
-43.0948
 21
40.4747
  0
LINE
  8
0
 10
-43.0948
 20
40.4747
 11
-37.5009
 21
36.4684
  0
LINE
  8
0
 10
-37.5009
 20
36.4684
 11
-24.6725
 21
35.0479
  0
LINE
  8
0
 10
-24.6725
 20
35.0479
 11
-37.5009
 21
33.6284
  0
LINE
  8
0
 10
-37.5009
 20
33.6284
 11
-43.0948
 21
29.6216
  0
LINE
  8
0
 10
-43.0948
 20
29.6216
 11
-43.6565
 21
29.9457
  0
LINE
  8
0
 10
-13.6565
 20
29.9457
 11
-18.1664
 21
35.0479
  0
LINE
  8
0
 10
-18.1664
 20
35.0479
 11
-13.6569
 21
40.1497
  0
LINE
  8
0
 10
-13.6569
 20
40.1497
 11
-13.0948
 21
40.4747
  0
LINE
  8
0
 10
-13.0948
 20
40.4747
 11
-7.50092
 21
36.4684
  0
LINE
  8
0
 10
-7.50092
 20
36.4684
 11
5.32745
 21
35.0479
  0
LINE
  8
0
 10
5.32745
 20
35.0479
 11
-7.50092
 21
33.6284
  0
LINE
  8
0
 10
-7.50092
 20
33.6284
 11
-13.0948
 21
29.6216
  0
LINE
  8
0
 10
-13.0948
 20
29.6216
 11
-13.6565
 21
29.9457
  0
LINE
  8
0
 10
43.661
 20
14.1748
 11
43.0989
 21
14.4994
  0
LINE
  8
0
 10
43.0989
 20
14.4994
 11
43.7714
 21
21.347
  0
LINE
  8
0
 10
43.7714
 20
21.347
 11
38.5863
 21
33.1665
  0
LINE
  8
0
 10
38.5863
 20
33.1665
 11
46.2296
 21
22.7666
  0
LINE
  8
0
 10
46.2296
 20
22.7666
 11
52.4963
 21
19.9257
  0
LINE
  8
0
 10
52.4963
 20
19.9257
 11
52.4963
 21
19.2747
  0
LINE
  8
0
 10
52.4963
 20
19.2747
 11
50.3329
 21
12.8203
  0
LINE
  8
0
 10
50.3329
 20
12.8203
 11
43.661
 21
14.1748
  0
LINE
  8
0
 10
-46.339
 20
14.1748
 11
-46.9011
 21
14.4994
  0
LINE
  8
0
 10
-46.9011
 20
14.4994
 11
-46.2286
 21
21.347
  0
LINE
  8
0
 10
-46.2286
 20
21.347
 11
-51.4137
 21
33.1665
  0
LINE
  8
0
 10
-51.4137
 20
33.1665
 11
-43.7704
 21
22.7666
  0
LINE
  8
0
 10
-43.7704
 20
22.7666
 11
-37.5037
 21
19.9257
  0
LINE
  8
0
 10
-37.5037
 20
19.9257
 11
-37.5037
 21
19.2747
  0
LINE
  8
0
 10
-37.5037
 20
19.2747
 11
-39.6671
 21
12.8203
  0
LINE
  8
0
 10
-39.6671
 20
12.8203
 11
-46.339
 21
14.1748
  0
LINE
  8
0
 10
-16.339
 20
14.1748
 11
-16.9011
 21
14.4994
  0
LINE
  8
0
 10
-16.9011
 20
14.4994
 11
-16.2286
 21
21.347
  0
LINE
  8
0
 10
-16.2286
 20
21.347
 11
-21.4137
 21
33.1665
  0
LINE
  8
0
 10
-21.4137
 20
33.1665
 11
-13.7704
 21
22.7666
  0
LINE
  8
0
 10
-13.7704
 20
22.7666
 11
-7.50366
 21
19.9257
  0
LINE
  8
0
 10
-7.50366
 20
19.9257
 11
-7.50366
 21
19.2747
  0
LINE
  8
0
 10
-7.50366
 20
19.2747
 11
-9.66705
 21
12.8203
  0
LINE
  8
0
 10
-9.66705
 20
12.8203
 11
-16.339
 21
14.1748
  0
LINE
  8
0
 10
13.661
 20
14.1748
 11
13.0989
 21
14.4994
  0
LINE
  8
0
 10
13.0989
 20
14.4994
 11
13.7714
 21
21.347
  0
LINE
  8
0
 10
13.7714
 20
21.347
 11
8.58627
 21
33.1665
  0
LINE
  8
0
 10
8.58627
 20
33.1665
 11
16.2296
 21
22.7666
  0
LINE
  8
0
 10
16.2296
 20
22.7666
 11
22.4963
 21
19.9257
  0
LINE
  8
0
 10
22.4963
 20
19.9257
 11
22.4963
 21
19.2747
  0
LINE
  8
0
 10
22.4963
 20
19.2747
 11
20.3329
 21
12.8203
  0
LINE
  8
0
 10
20.3329
 20
12.8203
 11
13.661
 21
14.1748
  0
LINE
  8
0
 10
22.6913
 20
24.5486
 11
22.5032
 21
24.837
  0
LINE
  8
0
 10
22.5032
 20
24.837
 11
22.5032
 21
24.8466
  0
LINE
  8
0
 10
22.5032
 20
24.8466
 11
22.5
 21
24.8416
  0
LINE
  8
0
 10
22.5
 20
24.8416
 11
22.4963
 21
24.8476
  0
LINE
  8
0
 10
22.4963
 20
24.8476
 11
22.4963
 21
24.8361
  0
LINE
  8
0
 10
22.4963
 20
24.8361
 11
22.3087
 21
24.5482
  0
LINE
  8
0
 10
22.3087
 20
24.5482
 11
17.791
 21
23.6684
  0
LINE
  8
0
 10
17.791
 20
23.6684
 11
20.8118
 21
27.1405
  0
LINE
  8
0
 10
20.8118
 20
27.1405
 11
21.156
 21
27.1602
  0
LINE
  8
0
 10
21.156
 20
27.1602
 11
21.1642
 21
27.1552
  0
LINE
  8
0
 10
21.1642
 20
27.1552
 11
21.1615
 21
27.1602
  0
LINE
  8
0
 10
21.1615
 20
27.1602
 11
21.1674
 21
27.1606
  0
LINE
  8
0
 10
21.1674
 20
27.1606
 11
21.1588
 21
27.1657
  0
LINE
  8
0
 10
21.1588
 20
27.1657
 11
21.0031
 21
27.4728
  0
LINE
  8
0
 10
21.0031
 20
27.4728
 11
22.5
 21
31.8253
  0
LINE
  8
0
 10
22.5
 20
31.8253
 11
23.9964
 21
27.4728
  0
LINE
  8
0
 10
23.9964
 20
27.4728
 11
23.8408
 21
27.1652
  0
LINE
  8
0
 10
23.8408
 20
27.1652
 11
23.8326
 21
27.1606
  0
LINE
  8
0
 10
23.8326
 20
27.1606
 11
23.838
 21
27.1602
  0
LINE
  8
0
 10
23.838
 20
27.1602
 11
23.8353
 21
27.1547
  0
LINE
  8
0
 10
23.8353
 20
27.1547
 11
23.8445
 21
27.1602
  0
LINE
  8
0
 10
23.8445
 20
27.1602
 11
24.1878
 21
27.141
  0
LINE
  8
0
 10
24.1878
 20
27.141
 11
27.2086
 21
23.6684
  0
LINE
  8
0
 10
27.2086
 20
23.6684
 11
22.6913
 21
24.5486
  0
LINE
  8
0
 10
-7.30865
 20
24.5486
 11
-7.4968
 21
24.837
  0
LINE
  8
0
 10
-7.4968
 20
24.837
 11
-7.4968
 21
24.8466
  0
LINE
  8
0
 10
-7.4968
 20
24.8466
 11
-7.5
 21
24.8416
  0
LINE
  8
0
 10
-7.5
 20
24.8416
 11
-7.50366
 21
24.8476
  0
LINE
  8
0
 10
-7.50366
 20
24.8476
 11
-7.50366
 21
24.8361
  0
LINE
  8
0
 10
-7.50366
 20
24.8361
 11
-7.69135
 21
24.5482
  0
LINE
  8
0
 10
-7.69135
 20
24.5482
 11
-12.209
 21
23.6684
  0
LINE
  8
0
 10
-12.209
 20
23.6684
 11
-9.18823
 21
27.1405
  0
LINE
  8
0
 10
-9.18823
 20
27.1405
 11
-8.84399
 21
27.1602
  0
LINE
  8
0
 10
-8.84399
 20
27.1602
 11
-8.83575
 21
27.1552
  0
LINE
  8
0
 10
-8.83575
 20
27.1552
 11
-8.8385
 21
27.1602
  0
LINE
  8
0
 10
-8.8385
 20
27.1602
 11
-8.83255
 21
27.1606
  0
LINE
  8
0
 10
-8.83255
 20
27.1606
 11
-8.84125
 21
27.1657
  0
LINE
  8
0
 10
-8.84125
 20
27.1657
 11
-8.99689
 21
27.4728
  0
LINE
  8
0
 10
-8.99689
 20
27.4728
 11
-7.5
 21
31.8253
  0
LINE
  8
0
 10
-7.5
 20
31.8253
 11
-6.00357
 21
27.4728
  0
LINE
  8
0
 10
-6.00357
 20
27.4728
 11
-6.15921
 21
27.1652
  0
LINE
  8
0
 10
-6.15921
 20
27.1652
 11
-6.16745
 21
27.1606
  0
LINE
  8
0
 10
-6.16745
 20
27.1606
 11
-6.16196
 21
27.1602
  0
LINE
  8
0
 10
-6.16196
 20
27.1602
 11
-6.1647
 21
27.1547
  0
LINE
  8
0
 10
-6.1647
 20
27.1547
 11
-6.15555
 21
27.1602
  0
LINE
  8
0
 10
-6.15555
 20
27.1602
 11
-5.81223
 21
27.141
  0
LINE
  8
0
 10
-5.81223
 20
27.141
 11
-2.79144
 21
23.6684
  0
LINE
  8
0
 10
-2.79144
 20
23.6684
 11
-7.30865
 21
24.5486
  0
LINE
  8
0
 10
-37.3087
 20
24.5486
 11
-37.4968
 21
24.837
  0
LINE
  8
0
 10
-37.4968
 20
24.837
 11
-37.4968
 21
24.8466
  0
LINE
  8
0
 10
-37.4968
 20
24.8466
 11
-37.5
 21
24.8416
  0
LINE
  8
0
 10
-37.5
 20
24.8416
 11
-37.5037
 21
24.8476
  0
LINE
  8
0
 10
-37.5037
 20
24.8476
 11
-37.5037
 21
24.8361
  0
LINE
  8
0
 10
-37.5037
 20
24.8361
 11
-37.6913
 21
24.5482
  0
LINE
  8
0
 10
-37.6913
 20
24.5482
 11
-42.209
 21
23.6684
  0
LINE
  8
0
 10
-42.209
 20
23.6684
 11
-39.1882
 21
27.1405
  0
LINE
  8
0
 10
-39.1882
 20
27.1405
 11
-38.844
 21
27.1602
  0
LINE
  8
0
 10
-38.844
 20
27.1602
 11
-38.8358
 21
27.1552
  0
LINE
  8
0
 10
-38.8358
 20
27.1552
 11
-38.8385
 21
27.1602
  0
LINE
  8
0
 10
-38.8385
 20
27.1602
 11
-38.8326
 21
27.1606
  0
LINE
  8
0
 10
-38.8326
 20
27.1606
 11
-38.8412
 21
27.1657
  0
LINE
  8
0
 10
-38.8412
 20
27.1657
 11
-38.9969
 21
27.4728
  0
LINE
  8
0
 10
-38.9969
 20
27.4728
 11
-37.5
 21
31.8253
  0
LINE
  8
0
 10
-37.5
 20
31.8253
 11
-36.0036
 21
27.4728
  0
LINE
  8
0
 10
-36.0036
 20
27.4728
 11
-36.1592
 21
27.1652
  0
LINE
  8
0
 10
-36.1592
 20
27.1652
 11
-36.1674
 21
27.1606
  0
LINE
  8
0
 10
-36.1674
 20
27.1606
 11
-36.162
 21
27.1602
  0
LINE
  8
0
 10
-36.162
 20
27.1602
 11
-36.1647
 21
27.1547
  0
LINE
  8
0
 10
-36.1647
 20
27.1547
 11
-36.1555
 21
27.1602
  0
LINE
  8
0
 10
-36.1555
 20
27.1602
 11
-35.8122
 21
27.141
  0
LINE
  8
0
 10
-35.8122
 20
27.141
 11
-32.7914
 21
23.6684
  0
LINE
  8
0
 10
-32.7914
 20
23.6684
 11
-37.3087
 21
24.5486
  0
LINE
  8
0
 10
24.047
 20
12
 11
28.7709
 21
22.7684
  0
LINE
  8
0
 10
28.7709
 20
22.7684
 11
28.098
 21
29.6161
  0
LINE
  8
0
 10
28.098
 20
29.6161
 11
28.661
 21
29.9411
  0
LINE
  8
0
 10
28.661
 20
29.9411
 11
35.3334
 21
31.2947
  0
LINE
  8
0
 10
35.3334
 20
31.2947
 11
37.4968
 21
24.8407
  0
LINE
  8
0
 10
37.4968
 20
24.8407
 11
37.4968
 21
24.1893
  0
LINE
  8
0
 10
37.4968
 20
24.1893
 11
31.2305
 21
21.3489
  0
LINE
  8
0
 10
31.2305
 20
21.3489
 11
24.3591
 21
12
  0
LINE
  8
0
 10
24.3591
 20
12
 11
24.047
 21
12
  0
LINE
  8
0
 10
-5.95302
 20
12
 11
-1.2291
 21
22.7684
  0
LINE
  8
0
 10
-1.2291
 20
22.7684
 11
-1.90201
 21
29.6161
  0
LINE
  8
0
 10
-1.90201
 20
29.6161
 11
-1.33896
 21
29.9411
  0
LINE
  8
0
 10
-1.33896
 20
29.9411
 11
5.3334
 21
31.2947
  0
LINE
  8
0
 10
5.3334
 20
31.2947
 11
7.4968
 21
24.8407
  0
LINE
  8
0
 10
7.4968
 20
24.8407
 11
7.4968
 21
24.1893
  0
LINE
  8
0
 10
7.4968
 20
24.1893
 11
1.23047
 21
21.3489
  0
LINE
  8
0
 10
1.23047
 20
21.3489
 11
-5.6409
 21
12
  0
LINE
  8
0
 10
-5.6409
 20
12
 11
-5.95302
 21
12
  0
LINE
  8
0
 10
-35.953
 20
12
 11
-31.2291
 21
22.7684
  0
LINE
  8
0
 10
-31.2291
 20
22.7684
 11
-31.902
 21
29.6161
  0
LINE
  8
0
 10
-31.902
 20
29.6161
 11
-31.339
 21
29.9411
  0
LINE
  8
0
 10
-31.339
 20
29.9411
 11
-24.6666
 21
31.2947
  0
LINE
  8
0
 10
-24.6666
 20
31.2947
 11
-22.5032
 21
24.8407
  0
LINE
  8
0
 10
-22.5032
 20
24.8407
 11
-22.5032
 21
24.1893
  0
LINE
  8
0
 10
-22.5032
 20
24.1893
 11
-28.7695
 21
21.3489
  0
LINE
  8
0
 10
-28.7695
 20
21.3489
 11
-35.6409
 21
12
  0
LINE
  8
0
 10
-35.6409
 20
12
 11
-35.953
 21
12
  0
LINE
  8
0
 10
50.8118
 20
27.1405
 11
51.156
 21
27.1602
  0
LINE
  8
0
 10
51.156
 20
27.1602
 11
51.1642
 21
27.1552
  0
LINE
  8
0
 10
51.1642
 20
27.1552
 11
51.1615
 21
27.1602
  0
LINE
  8
0
 10
51.1615
 20
27.1602
 11
51.1674
 21
27.1606
  0
LINE
  8
0
 10
51.1674
 20
27.1606
 11
51.1588
 21
27.1657
  0
LINE
  8
0
 10
51.1588
 20
27.1657
 11
51.0031
 21
27.4728
  0
LINE
  8
0
 10
51.0031
 20
27.4728
 11
52.2644
 21
31.1402
  0
LINE
  8
0
 10
52.2644
 20
31.1402
 11
54.522
 21
24.1919
  0
LINE
  8
0
 10
54.522
 20
24.1919
 11
52.6913
 21
24.5486
  0
LINE
  8
0
 10
52.6913
 20
24.5486
 11
52.5032
 21
24.837
  0
LINE
  8
0
 10
52.5032
 20
24.837
 11
52.5032
 21
24.8466
  0
LINE
  8
0
 10
52.5032
 20
24.8466
 11
52.5
 21
24.8416
  0
LINE
  8
0
 10
52.5
 20
24.8416
 11
52.4963
 21
24.8476
  0
LINE
  8
0
 10
52.4963
 20
24.8476
 11
52.4963
 21
24.8361
  0
LINE
  8
0
 10
52.4963
 20
24.8361
 11
52.3087
 21
24.5482
  0
LINE
  8
0
 10
52.3087
 20
24.5482
 11
47.791
 21
23.6684
  0
LINE
  8
0
 10
47.791
 20
23.6684
 11
50.8118
 21
27.1405
  0
LINE
  8
0
 10
-53.4213
 20
27.5796
 11
-52.5032
 21
24.8407
  0
LINE
  8
0
 10
-52.5032
 20
24.8407
 11
-52.5032
 21
24.1893
  0
LINE
  8
0
 10
-52.5032
 20
24.1893
 11
-54.8717
 21
23.1157
  0
LINE
  8
0
 10
-54.8717
 20
23.1157
 11
-53.4213
 21
27.5796
  0
LINE
  8
0
 10
-23.9969
 20
16.6426
 11
-23.8412
 21
16.9493
  0
LINE
  8
0
 10
-23.8412
 20
16.9493
 11
-23.8321
 21
16.9548
  0
LINE
  8
0
 10
-23.8321
 20
16.9548
 11
-23.8385
 21
16.9553
  0
LINE
  8
0
 10
-23.8385
 20
16.9553
 11
-23.8358
 21
16.9603
  0
LINE
  8
0
 10
-23.8358
 20
16.9603
 11
-23.844
 21
16.9553
  0
LINE
  8
0
 10
-23.844
 20
16.9553
 11
-24.1878
 21
16.9745
  0
LINE
  8
0
 10
-24.1878
 20
16.9745
 11
-27.2086
 21
20.4466
  0
LINE
  8
0
 10
-27.2086
 20
20.4466
 11
-22.6909
 21
19.5668
  0
LINE
  8
0
 10
-22.6909
 20
19.5668
 11
-22.5032
 21
19.2789
  0
LINE
  8
0
 10
-22.5032
 20
19.2789
 11
-22.5032
 21
19.2679
  0
LINE
  8
0
 10
-22.5032
 20
19.2679
 11
-22.4995
 21
19.2734
  0
LINE
  8
0
 10
-22.4995
 20
19.2734
 11
-22.4963
 21
19.2683
  0
LINE
  8
0
 10
-22.4963
 20
19.2683
 11
-22.4963
 21
19.2784
  0
LINE
  8
0
 10
-22.4963
 20
19.2784
 11
-22.3087
 21
19.5663
  0
LINE
  8
0
 10
-22.3087
 20
19.5663
 11
-17.791
 21
20.4466
  0
LINE
  8
0
 10
-17.791
 20
20.4466
 11
-20.8118
 21
16.974
  0
LINE
  8
0
 10
-20.8118
 20
16.974
 11
-21.1546
 21
16.9548
  0
LINE
  8
0
 10
-21.1546
 20
16.9548
 11
-21.1647
 21
16.9608
  0
LINE
  8
0
 10
-21.1647
 20
16.9608
 11
-21.1615
 21
16.9548
  0
LINE
  8
0
 10
-21.1615
 20
16.9548
 11
-21.167
 21
16.9543
  0
LINE
  8
0
 10
-21.167
 20
16.9543
 11
-21.1592
 21
16.9498
  0
LINE
  8
0
 10
-21.1592
 20
16.9498
 11
-21.0036
 21
16.6426
  0
LINE
  8
0
 10
-21.0036
 20
16.6426
 11
-22.5
 21
12.2902
  0
LINE
  8
0
 10
-22.5
 20
12.2902
 11
-23.9969
 21
16.6426
  0
LINE
  8
0
 10
-53.9969
 20
16.6426
 11
-53.8412
 21
16.9493
  0
LINE
  8
0
 10
-53.8412
 20
16.9493
 11
-53.8321
 21
16.9548
  0
LINE
  8
0
 10
-53.8321
 20
16.9548
 11
-53.8385
 21
16.9553
  0
LINE
  8
0
 10
-53.8385
 20
16.9553
 11
-53.8358
 21
16.9603
  0
LINE
  8
0
 10
-53.8358
 20
16.9603
 11
-53.844
 21
16.9553
  0
LINE
  8
0
 10
-53.844
 20
16.9553
 11
-54.1878
 21
16.9745
  0
LINE
  8
0
 10
-54.1878
 20
16.9745
 11
-56.1385
 21
19.2167
  0
LINE
  8
0
 10
-56.1385
 20
19.2167
 11
-55.8264
 21
20.1774
  0
LINE
  8
0
 10
-55.8264
 20
20.1774
 11
-52.6909
 21
19.5668
  0
LINE
  8
0
 10
-52.6909
 20
19.5668
 11
-52.5032
 21
19.2789
  0
LINE
  8
0
 10
-52.5032
 20
19.2789
 11
-52.5032
 21
19.2679
  0
LINE
  8
0
 10
-52.5032
 20
19.2679
 11
-52.4995
 21
19.2734
  0
LINE
  8
0
 10
-52.4995
 20
19.2734
 11
-52.4963
 21
19.2683
  0
LINE
  8
0
 10
-52.4963
 20
19.2683
 11
-52.4963
 21
19.2784
  0
LINE
  8
0
 10
-52.4963
 20
19.2784
 11
-52.3087
 21
19.5663
  0
LINE
  8
0
 10
-52.3087
 20
19.5663
 11
-47.791
 21
20.4466
  0
LINE
  8
0
 10
-47.791
 20
20.4466
 11
-50.8118
 21
16.974
  0
LINE
  8
0
 10
-50.8118
 20
16.974
 11
-51.1546
 21
16.9548
  0
LINE
  8
0
 10
-51.1546
 20
16.9548
 11
-51.1647
 21
16.9608
  0
LINE
  8
0
 10
-51.1647
 20
16.9608
 11
-51.1615
 21
16.9548
  0
LINE
  8
0
 10
-51.1615
 20
16.9548
 11
-51.167
 21
16.9543
  0
LINE
  8
0
 10
-51.167
 20
16.9543
 11
-51.1592
 21
16.9498
  0
LINE
  8
0
 10
-51.1592
 20
16.9498
 11
-51.0036
 21
16.6426
  0
LINE
  8
0
 10
-51.0036
 20
16.6426
 11
-52.5
 21
12.2902
  0
LINE
  8
0
 10
-52.5
 20
12.2902
 11
-53.9969
 21
16.6426
  0
LINE
  8
0
 10
6.00311
 20
16.6426
 11
6.15875
 21
16.9493
  0
LINE
  8
0
 10
6.15875
 20
16.9493
 11
6.16791
 21
16.9548
  0
LINE
  8
0
 10
6.16791
 20
16.9548
 11
6.1615
 21
16.9553
  0
LINE
  8
0
 10
6.1615
 20
16.9553
 11
6.16425
 21
16.9603
  0
LINE
  8
0
 10
6.16425
 20
16.9603
 11
6.15601
 21
16.9553
  0
LINE
  8
0
 10
6.15601
 20
16.9553
 11
5.81223
 21
16.9745
  0
LINE
  8
0
 10
5.81223
 20
16.9745
 11
2.79144
 21
20.4466
  0
LINE
  8
0
 10
2.79144
 20
20.4466
 11
7.30911
 21
19.5668
  0
LINE
  8
0
 10
7.30911
 20
19.5668
 11
7.4968
 21
19.2789
  0
LINE
  8
0
 10
7.4968
 20
19.2789
 11
7.4968
 21
19.2679
  0
LINE
  8
0
 10
7.4968
 20
19.2679
 11
7.50046
 21
19.2734
  0
LINE
  8
0
 10
7.50046
 20
19.2734
 11
7.50366
 21
19.2683
  0
LINE
  8
0
 10
7.50366
 20
19.2683
 11
7.50366
 21
19.2784
  0
LINE
  8
0
 10
7.50366
 20
19.2784
 11
7.69135
 21
19.5663
  0
LINE
  8
0
 10
7.69135
 20
19.5663
 11
12.209
 21
20.4466
  0
LINE
  8
0
 10
12.209
 20
20.4466
 11
9.18823
 21
16.974
  0
LINE
  8
0
 10
9.18823
 20
16.974
 11
8.84537
 21
16.9548
  0
LINE
  8
0
 10
8.84537
 20
16.9548
 11
8.8353
 21
16.9608
  0
LINE
  8
0
 10
8.8353
 20
16.9608
 11
8.8385
 21
16.9548
  0
LINE
  8
0
 10
8.8385
 20
16.9548
 11
8.83301
 21
16.9543
  0
LINE
  8
0
 10
8.83301
 20
16.9543
 11
8.84079
 21
16.9498
  0
LINE
  8
0
 10
8.84079
 20
16.9498
 11
8.99643
 21
16.6426
  0
LINE
  8
0
 10
8.99643
 20
16.6426
 11
7.5
 21
12.2902
  0
LINE
  8
0
 10
7.5
 20
12.2902
 11
6.00311
 21
16.6426
  0
LINE
  8
0
 10
36.0031
 20
16.6426
 11
36.1588
 21
16.9493
  0
LINE
  8
0
 10
36.1588
 20
16.9493
 11
36.1679
 21
16.9548
  0
LINE
  8
0
 10
36.1679
 20
16.9548
 11
36.1615
 21
16.9553
  0
LINE
  8
0
 10
36.1615
 20
16.9553
 11
36.1642
 21
16.9603
  0
LINE
  8
0
 10
36.1642
 20
16.9603
 11
36.156
 21
16.9553
  0
LINE
  8
0
 10
36.156
 20
16.9553
 11
35.8122
 21
16.9745
  0
LINE
  8
0
 10
35.8122
 20
16.9745
 11
32.7914
 21
20.4466
  0
LINE
  8
0
 10
32.7914
 20
20.4466
 11
37.3091
 21
19.5668
  0
LINE
  8
0
 10
37.3091
 20
19.5668
 11
37.4968
 21
19.2789
  0
LINE
  8
0
 10
37.4968
 20
19.2789
 11
37.4968
 21
19.2679
  0
LINE
  8
0
 10
37.4968
 20
19.2679
 11
37.5005
 21
19.2734
  0
LINE
  8
0
 10
37.5005
 20
19.2734
 11
37.5037
 21
19.2683
  0
LINE
  8
0
 10
37.5037
 20
19.2683
 11
37.5037
 21
19.2784
  0
LINE
  8
0
 10
37.5037
 20
19.2784
 11
37.6913
 21
19.5663
  0
LINE
  8
0
 10
37.6913
 20
19.5663
 11
42.209
 21
20.4466
  0
LINE
  8
0
 10
42.209
 20
20.4466
 11
39.1882
 21
16.974
  0
LINE
  8
0
 10
39.1882
 20
16.974
 11
38.8454
 21
16.9548
  0
LINE
  8
0
 10
38.8454
 20
16.9548
 11
38.8353
 21
16.9608
  0
LINE
  8
0
 10
38.8353
 20
16.9608
 11
38.8385
 21
16.9548
  0
LINE
  8
0
 10
38.8385
 20
16.9548
 11
38.833
 21
16.9543
  0
LINE
  8
0
 10
38.833
 20
16.9543
 11
38.8408
 21
16.9498
  0
LINE
  8
0
 10
38.8408
 20
16.9498
 11
38.9964
 21
16.6426
  0
LINE
  8
0
 10
38.9964
 20
16.6426
 11
37.5
 21
12.2902
  0
LINE
  8
0
 10
37.5
 20
12.2902
 11
36.0031
 21
16.6426
  0
LINE
  8
0
 10
54.047
 20
12
 11
56.5957
 21
17.8099
  0
LINE
  8
0
 10
56.5957
 20
17.8099
 11
57.2191
 21
15.8912
  0
LINE
  8
0
 10
57.2191
 20
15.8912
 11
54.3591
 21
12
  0
LINE
  8
0
 10
54.3591
 20
12
 11
54.047
 21
12
  0
LINE
  8
0
 10
-30.574
 20
12
 11
-28.6569
 21
14.1689
  0
LINE
  8
0
 10
-28.6569
 20
14.1689
 11
-28.0948
 21
14.4939
  0
LINE
  8
0
 10
-28.0948
 20
14.4939
 11
-24.6127
 21
12
  0
LINE
  8
0
 10
-24.6127
 20
12
 11
-30.574
 21
12
  0
LINE
  8
0
 10
29.426
 20
12
 11
31.3431
 21
14.1689
  0
LINE
  8
0
 10
31.3431
 20
14.1689
 11
31.9052
 21
14.4939
  0
LINE
  8
0
 10
31.9052
 20
14.4939
 11
35.3873
 21
12
  0
LINE
  8
0
 10
35.3873
 20
12
 11
29.426
 21
12
  0
LINE
  8
0
 10
-0.573959
 20
12
 11
1.34308
 21
14.1689
  0
LINE
  8
0
 10
1.34308
 20
14.1689
 11
1.90521
 21
14.4939
  0
LINE
  8
0
 10
1.90521
 20
14.4939
 11
5.38728
 21
12
  0
LINE
  8
0
 10
5.38728
 20
12
 11
-0.573959
 21
12
  0
LINE
  8
0
 10
-58.4834
 20
12
 11
-57.7527
 21
14.2489
  0
LINE
  8
0
 10
-57.7527
 20
14.2489
 11
-54.6127
 21
12
  0
LINE
  8
0
 10
-54.6127
 20
12
 11
-58.4834
 21
12
  0
LINE
  8
0
 10
-10
 20
7
 11
-10
 21
11
  0
LINE
  8
0
 10
-10
 20
11
 11
10
 21
11
  0
LINE
  8
0
 10
10
 20
11
 11
10
 21
7
  0
LINE
  8
0
 10
10
 20
7
 11
-10
 21
7
  0
LINE
  8
0
 10
-68.6534
 20
2.70622
 11
-68.7785
 21
2.71805
  0
LINE
  8
0
 10
-68.7785
 20
2.71805
 11
-68.9026
 21
2.7377
  0
LINE
  8
0
 10
-68.9026
 20
2.7377
 11
-69.0252
 21
2.76511
  0
LINE
  8
0
 10
-69.0252
 20
2.76511
 11
-69.1459
 21
2.80016
  0
LINE
  8
0
 10
-69.1459
 20
2.80016
 11
-69.2641
 21
2.84273
  0
LINE
  8
0
 10
-69.2641
 20
2.84273
 11
-69.3794
 21
2.89262
  0
LINE
  8
0
 10
-69.3794
 20
2.89262
 11
-69.4914
 21
2.94966
  0
LINE
  8
0
 10
-69.4914
 20
2.94966
 11
-69.5995
 21
3.01363
  0
LINE
  8
0
 10
-69.5995
 20
3.01363
 11
-69.7034
 21
3.08424
  0
LINE
  8
0
 10
-69.7034
 20
3.08424
 11
-69.8027
 21
3.16125
  0
LINE
  8
0
 10
-69.8027
 20
3.16125
 11
-69.897
 21
3.24434
  0
LINE
  8
0
 10
-69.897
 20
3.24434
 11
-69.9858
 21
3.33318
  0
LINE
  8
0
 10
-69.9858
 20
3.33318
 11
-70.0689
 21
3.42743
  0
LINE
  8
0
 10
-70.0689
 20
3.42743
 11
-70.1459
 21
3.5267
  0
LINE
  8
0
 10
-70.1459
 20
3.5267
 11
-70.2165
 21
3.63062
  0
LINE
  8
0
 10
-70.2165
 20
3.63062
 11
-70.2805
 21
3.73877
  0
LINE
  8
0
 10
-70.2805
 20
3.73877
 11
-70.3375
 21
3.85072
  0
LINE
  8
0
 10
-70.3375
 20
3.85072
 11
-70.3874
 21
3.96602
  0
LINE
  8
0
 10
-70.3874
 20
3.96602
 11
-70.43
 21
4.08424
  0
LINE
  8
0
 10
-70.43
 20
4.08424
 11
-70.465
 21
4.2049
  0
LINE
  8
0
 10
-70.465
 20
4.2049
 11
-70.4924
 21
4.32751
  0
LINE
  8
0
 10
-70.4924
 20
4.32751
 11
-70.5121
 21
4.45161
  0
LINE
  8
0
 10
-70.5121
 20
4.45161
 11
-70.5239
 21
4.57669
  0
LINE
  8
0
 10
-70.5239
 20
4.57669
 11
-70.5279
 21
4.70227
  0
LINE
  8
0
 10
-70.5279
 20
4.70227
 11
-70.5239
 21
4.82785
  0
LINE
  8
0
 10
-70.5239
 20
4.82785
 11
-70.5121
 21
4.95294
  0
LINE
  8
0
 10
-70.5121
 20
4.95294
 11
-70.4924
 21
5.07704
  0
LINE
  8
0
 10
-70.4924
 20
5.07704
 11
-70.465
 21
5.19966
  0
LINE
  8
0
 10
-70.465
 20
5.19966
 11
-70.43
 21
5.32031
  0
LINE
  8
0
 10
-70.43
 20
5.32031
 11
-70.3874
 21
5.43852
  0
LINE
  8
0
 10
-70.3874
 20
5.43852
 11
-70.3375
 21
5.55383
  0
LINE
  8
0
 10
-70.3375
 20
5.55383
 11
-70.2805
 21
5.66579
  0
LINE
  8
0
 10
-70.2805
 20
5.66579
 11
-70.2165
 21
5.77393
  0
LINE
  8
0
 10
-70.2165
 20
5.77393
 11
-70.1459
 21
5.87784
  0
LINE
  8
0
 10
-70.1459
 20
5.87784
 11
-70.0689
 21
5.97713
  0
LINE
  8
0
 10
-70.0689
 20
5.97713
 11
-69.9858
 21
6.07137
  0
LINE
  8
0
 10
-69.9858
 20
6.07137
 11
-69.897
 21
6.16022
  0
LINE
  8
0
 10
-69.897
 20
6.16022
 11
-69.8027
 21
6.2433
  0
LINE
  8
0
 10
-69.8027
 20
6.2433
 11
-69.7034
 21
6.32031
  0
LINE
  8
0
 10
-69.7034
 20
6.32031
 11
-69.5995
 21
6.39093
  0
LINE
  8
0
 10
-69.5995
 20
6.39093
 11
-69.4914
 21
6.4549
  0
LINE
  8
0
 10
-69.4914
 20
6.4549
 11
-69.3794
 21
6.51193
  0
LINE
  8
0
 10
-69.3794
 20
6.51193
 11
-69.2641
 21
6.56183
  0
LINE
  8
0
 10
-69.2641
 20
6.56183
 11
-69.1459
 21
6.60439
  0
LINE
  8
0
 10
-69.1459
 20
6.60439
 11
-69.0252
 21
6.63943
  0
LINE
  8
0
 10
-69.0252
 20
6.63943
 11
-68.9026
 21
6.66685
  0
LINE
  8
0
 10
-68.9026
 20
6.66685
 11
-68.7785
 21
6.68651
  0
LINE
  8
0
 10
-68.7785
 20
6.68651
 11
-68.6534
 21
6.69833
  0
LINE
  8
0
 10
-68.6534
 20
6.69833
 11
-68.5279
 21
6.70227
  0
LINE
  8
0
 10
-68.5279
 20
6.70227
 11
-68.4023
 21
6.69833
  0
LINE
  8
0
 10
-68.4023
 20
6.69833
 11
-68.2772
 21
6.68651
  0
LINE
  8
0
 10
-68.2772
 20
6.68651
 11
-68.1531
 21
6.66685
  0
LINE
  8
0
 10
-68.1531
 20
6.66685
 11
-68.0305
 21
6.63943
  0
LINE
  8
0
 10
-68.0305
 20
6.63943
 11
-67.9098
 21
6.60439
  0
LINE
  8
0
 10
-67.9098
 20
6.60439
 11
-67.7916
 21
6.56183
  0
LINE
  8
0
 10
-67.7916
 20
6.56183
 11
-67.6763
 21
6.51193
  0
LINE
  8
0
 10
-67.6763
 20
6.51193
 11
-67.5643
 21
6.4549
  0
LINE
  8
0
 10
-67.5643
 20
6.4549
 11
-67.4562
 21
6.39093
  0
LINE
  8
0
 10
-67.4562
 20
6.39093
 11
-67.3523
 21
6.32031
  0
LINE
  8
0
 10
-67.3523
 20
6.32031
 11
-67.253
 21
6.2433
  0
LINE
  8
0
 10
-67.253
 20
6.2433
 11
-67.1588
 21
6.16022
  0
LINE
  8
0
 10
-67.1588
 20
6.16022
 11
-67.0699
 21
6.07137
  0
LINE
  8
0
 10
-67.0699
 20
6.07137
 11
-66.9868
 21
5.97713
  0
LINE
  8
0
 10
-66.9868
 20
5.97713
 11
-66.9098
 21
5.87784
  0
LINE
  8
0
 10
-66.9098
 20
5.87784
 11
-66.8392
 21
5.77393
  0
LINE
  8
0
 10
-66.8392
 20
5.77393
 11
-66.7752
 21
5.66579
  0
LINE
  8
0
 10
-66.7752
 20
5.66579
 11
-66.7182
 21
5.55383
  0
LINE
  8
0
 10
-66.7182
 20
5.55383
 11
-66.6683
 21
5.43852
  0
LINE
  8
0
 10
-66.6683
 20
5.43852
 11
-66.6257
 21
5.32031
  0
LINE
  8
0
 10
-66.6257
 20
5.32031
 11
-66.5907
 21
5.19966
  0
LINE
  8
0
 10
-66.5907
 20
5.19966
 11
-66.5633
 21
5.07704
  0
LINE
  8
0
 10
-66.5633
 20
5.07704
 11
-66.5436
 21
4.95294
  0
LINE
  8
0
 10
-66.5436
 20
4.95294
 11
-66.5318
 21
4.82785
  0
LINE
  8
0
 10
-66.5318
 20
4.82785
 11
-66.5279
 21
4.70227
  0
LINE
  8
0
 10
-66.5279
 20
4.70227
 11
-66.5318
 21
4.57669
  0
LINE
  8
0
 10
-66.5318
 20
4.57669
 11
-66.5436
 21
4.45161
  0
LINE
  8
0
 10
-66.5436
 20
4.45161
 11
-66.5633
 21
4.32751
  0
LINE
  8
0
 10
-66.5633
 20
4.32751
 11
-66.5907
 21
4.2049
  0
LINE
  8
0
 10
-66.5907
 20
4.2049
 11
-66.6257
 21
4.08424
  0
LINE
  8
0
 10
-66.6257
 20
4.08424
 11
-66.6683
 21
3.96602
  0
LINE
  8
0
 10
-66.6683
 20
3.96602
 11
-66.7182
 21
3.85072
  0
LINE
  8
0
 10
-66.7182
 20
3.85072
 11
-66.7752
 21
3.73877
  0
LINE
  8
0
 10
-66.7752
 20
3.73877
 11
-66.8392
 21
3.63062
  0
LINE
  8
0
 10
-66.8392
 20
3.63062
 11
-66.9098
 21
3.5267
  0
LINE
  8
0
 10
-66.9098
 20
3.5267
 11
-66.9868
 21
3.42743
  0
LINE
  8
0
 10
-66.9868
 20
3.42743
 11
-67.0699
 21
3.33318
  0
LINE
  8
0
 10
-67.0699
 20
3.33318
 11
-67.1588
 21
3.24434
  0
LINE
  8
0
 10
-67.1588
 20
3.24434
 11
-67.253
 21
3.16125
  0
LINE
  8
0
 10
-67.253
 20
3.16125
 11
-67.3523
 21
3.08424
  0
LINE
  8
0
 10
-67.3523
 20
3.08424
 11
-67.4562
 21
3.01363
  0
LINE
  8
0
 10
-67.4562
 20
3.01363
 11
-67.5643
 21
2.94966
  0
LINE
  8
0
 10
-67.5643
 20
2.94966
 11
-67.6763
 21
2.89262
  0
LINE
  8
0
 10
-67.6763
 20
2.89262
 11
-67.7916
 21
2.84273
  0
LINE
  8
0
 10
-67.7916
 20
2.84273
 11
-67.9098
 21
2.80016
  0
LINE
  8
0
 10
-67.9098
 20
2.80016
 11
-68.0305
 21
2.76511
  0
LINE
  8
0
 10
-68.0305
 20
2.76511
 11
-68.1531
 21
2.7377
  0
LINE
  8
0
 10
-68.1531
 20
2.7377
 11
-68.2772
 21
2.71805
  0
LINE
  8
0
 10
-68.2772
 20
2.71805
 11
-68.4023
 21
2.70622
  0
LINE
  8
0
 10
-68.4023
 20
2.70622
 11
-68.5279
 21
2.70227
  0
LINE
  8
0
 10
-68.5279
 20
2.70227
 11
-68.6534
 21
2.70622
  0
LINE
  8
0
 10
68.4023
 20
2.70622
 11
68.2772
 21
2.71805
  0
LINE
  8
0
 10
68.2772
 20
2.71805
 11
68.1531
 21
2.7377
  0
LINE
  8
0
 10
68.1531
 20
2.7377
 11
68.0305
 21
2.76511
  0
LINE
  8
0
 10
68.0305
 20
2.76511
 11
67.9098
 21
2.80016
  0
LINE
  8
0
 10
67.9098
 20
2.80016
 11
67.7916
 21
2.84273
  0
LINE
  8
0
 10
67.7916
 20
2.84273
 11
67.6763
 21
2.89262
  0
LINE
  8
0
 10
67.6763
 20
2.89262
 11
67.5643
 21
2.94966
  0
LINE
  8
0
 10
67.5643
 20
2.94966
 11
67.4562
 21
3.01363
  0
LINE
  8
0
 10
67.4562
 20
3.01363
 11
67.3523
 21
3.08424
  0
LINE
  8
0
 10
67.3523
 20
3.08424
 11
67.253
 21
3.16125
  0
LINE
  8
0
 10
67.253
 20
3.16125
 11
67.1588
 21
3.24434
  0
LINE
  8
0
 10
67.1588
 20
3.24434
 11
67.0699
 21
3.33318
  0
LINE
  8
0
 10
67.0699
 20
3.33318
 11
66.9868
 21
3.42743
  0
LINE
  8
0
 10
66.9868
 20
3.42743
 11
66.9098
 21
3.5267
  0
LINE
  8
0
 10
66.9098
 20
3.5267
 11
66.8392
 21
3.63062
  0
LINE
  8
0
 10
66.8392
 20
3.63062
 11
66.7752
 21
3.73877
  0
LINE
  8
0
 10
66.7752
 20
3.73877
 11
66.7182
 21
3.85072
  0
LINE
  8
0
 10
66.7182
 20
3.85072
 11
66.6683
 21
3.96602
  0
LINE
  8
0
 10
66.6683
 20
3.96602
 11
66.6257
 21
4.08424
  0
LINE
  8
0
 10
66.6257
 20
4.08424
 11
66.5907
 21
4.2049
  0
LINE
  8
0
 10
66.5907
 20
4.2049
 11
66.5633
 21
4.32751
  0
LINE
  8
0
 10
66.5633
 20
4.32751
 11
66.5436
 21
4.45161
  0
LINE
  8
0
 10
66.5436
 20
4.45161
 11
66.5318
 21
4.57669
  0
LINE
  8
0
 10
66.5318
 20
4.57669
 11
66.5279
 21
4.70227
  0
LINE
  8
0
 10
66.5279
 20
4.70227
 11
66.5318
 21
4.82785
  0
LINE
  8
0
 10
66.5318
 20
4.82785
 11
66.5436
 21
4.95294
  0
LINE
  8
0
 10
66.5436
 20
4.95294
 11
66.5633
 21
5.07704
  0
LINE
  8
0
 10
66.5633
 20
5.07704
 11
66.5907
 21
5.19966
  0
LINE
  8
0
 10
66.5907
 20
5.19966
 11
66.6257
 21
5.32031
  0
LINE
  8
0
 10
66.6257
 20
5.32031
 11
66.6683
 21
5.43852
  0
LINE
  8
0
 10
66.6683
 20
5.43852
 11
66.7182
 21
5.55383
  0
LINE
  8
0
 10
66.7182
 20
5.55383
 11
66.7752
 21
5.66579
  0
LINE
  8
0
 10
66.7752
 20
5.66579
 11
66.8392
 21
5.77393
  0
LINE
  8
0
 10
66.8392
 20
5.77393
 11
66.9098
 21
5.87784
  0
LINE
  8
0
 10
66.9098
 20
5.87784
 11
66.9868
 21
5.97713
  0
LINE
  8
0
 10
66.9868
 20
5.97713
 11
67.0699
 21
6.07137
  0
LINE
  8
0
 10
67.0699
 20
6.07137
 11
67.1588
 21
6.16022
  0
LINE
  8
0
 10
67.1588
 20
6.16022
 11
67.253
 21
6.2433
  0
LINE
  8
0
 10
67.253
 20
6.2433
 11
67.3523
 21
6.32031
  0
LINE
  8
0
 10
67.3523
 20
6.32031
 11
67.4562
 21
6.39093
  0
LINE
  8
0
 10
67.4562
 20
6.39093
 11
67.5643
 21
6.4549
  0
LINE
  8
0
 10
67.5643
 20
6.4549
 11
67.6763
 21
6.51193
  0
LINE
  8
0
 10
67.6763
 20
6.51193
 11
67.7916
 21
6.56183
  0
LINE
  8
0
 10
67.7916
 20
6.56183
 11
67.9098
 21
6.60439
  0
LINE
  8
0
 10
67.9098
 20
6.60439
 11
68.0305
 21
6.63943
  0
LINE
  8
0
 10
68.0305
 20
6.63943
 11
68.1531
 21
6.66685
  0
LINE
  8
0
 10
68.1531
 20
6.66685
 11
68.2772
 21
6.68651
  0
LINE
  8
0
 10
68.2772
 20
6.68651
 11
68.4023
 21
6.69833
  0
LINE
  8
0
 10
68.4023
 20
6.69833
 11
68.5279
 21
6.70227
  0
LINE
  8
0
 10
68.5279
 20
6.70227
 11
68.6534
 21
6.69833
  0
LINE
  8
0
 10
68.6534
 20
6.69833
 11
68.7785
 21
6.68651
  0
LINE
  8
0
 10
68.7785
 20
6.68651
 11
68.9026
 21
6.66685
  0
LINE
  8
0
 10
68.9026
 20
6.66685
 11
69.0252
 21
6.63943
  0
LINE
  8
0
 10
69.0252
 20
6.63943
 11
69.1459
 21
6.60439
  0
LINE
  8
0
 10
69.1459
 20
6.60439
 11
69.2641
 21
6.56183
  0
LINE
  8
0
 10
69.2641
 20
6.56183
 11
69.3794
 21
6.51193
  0
LINE
  8
0
 10
69.3794
 20
6.51193
 11
69.4914
 21
6.4549
  0
LINE
  8
0
 10
69.4914
 20
6.4549
 11
69.5995
 21
6.39093
  0
LINE
  8
0
 10
69.5995
 20
6.39093
 11
69.7034
 21
6.32031
  0
LINE
  8
0
 10
69.7034
 20
6.32031
 11
69.8027
 21
6.2433
  0
LINE
  8
0
 10
69.8027
 20
6.2433
 11
69.897
 21
6.16022
  0
LINE
  8
0
 10
69.897
 20
6.16022
 11
69.9858
 21
6.07137
  0
LINE
  8
0
 10
69.9858
 20
6.07137
 11
70.0689
 21
5.97713
  0
LINE
  8
0
 10
70.0689
 20
5.97713
 11
70.1459
 21
5.87784
  0
LINE
  8
0
 10
70.1459
 20
5.87784
 11
70.2165
 21
5.77393
  0
LINE
  8
0
 10
70.2165
 20
5.77393
 11
70.2805
 21
5.66579
  0
LINE
  8
0
 10
70.2805
 20
5.66579
 11
70.3375
 21
5.55383
  0
LINE
  8
0
 10
70.3375
 20
5.55383
 11
70.3874
 21
5.43852
  0
LINE
  8
0
 10
70.3874
 20
5.43852
 11
70.43
 21
5.32031
  0
LINE
  8
0
 10
70.43
 20
5.32031
 11
70.465
 21
5.19966
  0
LINE
  8
0
 10
70.465
 20
5.19966
 11
70.4924
 21
5.07704
  0
LINE
  8
0
 10
70.4924
 20
5.07704
 11
70.5121
 21
4.95294
  0
LINE
  8
0
 10
70.5121
 20
4.95294
 11
70.5239
 21
4.82785
  0
LINE
  8
0
 10
70.5239
 20
4.82785
 11
70.5279
 21
4.70227
  0
LINE
  8
0
 10
70.5279
 20
4.70227
 11
70.5239
 21
4.57669
  0
LINE
  8
0
 10
70.5239
 20
4.57669
 11
70.5121
 21
4.45161
  0
LINE
  8
0
 10
70.5121
 20
4.45161
 11
70.4924
 21
4.32751
  0
LINE
  8
0
 10
70.4924
 20
4.32751
 11
70.465
 21
4.2049
  0
LINE
  8
0
 10
70.465
 20
4.2049
 11
70.43
 21
4.08424
  0
LINE
  8
0
 10
70.43
 20
4.08424
 11
70.3874
 21
3.96602
  0
LINE
  8
0
 10
70.3874
 20
3.96602
 11
70.3375
 21
3.85072
  0
LINE
  8
0
 10
70.3375
 20
3.85072
 11
70.2805
 21
3.73877
  0
LINE
  8
0
 10
70.2805
 20
3.73877
 11
70.2165
 21
3.63062
  0
LINE
  8
0
 10
70.2165
 20
3.63062
 11
70.1459
 21
3.5267
  0
LINE
  8
0
 10
70.1459
 20
3.5267
 11
70.0689
 21
3.42743
  0
LINE
  8
0
 10
70.0689
 20
3.42743
 11
69.9858
 21
3.33318
  0
LINE
  8
0
 10
69.9858
 20
3.33318
 11
69.897
 21
3.24434
  0
LINE
  8
0
 10
69.897
 20
3.24434
 11
69.8027
 21
3.16125
  0
LINE
  8
0
 10
69.8027
 20
3.16125
 11
69.7034
 21
3.08424
  0
LINE
  8
0
 10
69.7034
 20
3.08424
 11
69.5995
 21
3.01363
  0
LINE
  8
0
 10
69.5995
 20
3.01363
 11
69.4914
 21
2.94966
  0
LINE
  8
0
 10
69.4914
 20
2.94966
 11
69.3794
 21
2.89262
  0
LINE
  8
0
 10
69.3794
 20
2.89262
 11
69.2641
 21
2.84273
  0
LINE
  8
0
 10
69.2641
 20
2.84273
 11
69.1459
 21
2.80016
  0
LINE
  8
0
 10
69.1459
 20
2.80016
 11
69.0252
 21
2.76511
  0
LINE
  8
0
 10
69.0252
 20
2.76511
 11
68.9026
 21
2.7377
  0
LINE
  8
0
 10
68.9026
 20
2.7377
 11
68.7785
 21
2.71805
  0
LINE
  8
0
 10
68.7785
 20
2.71805
 11
68.6534
 21
2.70622
  0
LINE
  8
0
 10
68.6534
 20
2.70622
 11
68.5279
 21
2.70227
  0
LINE
  8
0
 10
68.5279
 20
2.70227
 11
68.4023
 21
2.70622
  0
ENDSEC
  0
SECTION
  2
OBJECTS
  0
DICTIONARY
  0
ENDSEC
  0
EOF
