  0
SECTION
  2
BLOCKS
  0
ENDSEC
  0
SECTION
  2
ENTITIES
  0
LINE
  8
0
 10
0
 20
230.826
 11
-75
 21
0
  0
LINE
  8
0
 10
-75
 20
0
 11
75
 21
0
  0
LINE
  8
0
 10
75
 20
0
 11
0
 21
230.826
  0
LINE
  8
0
 10
-0.12558
 20
212.83
 11
-0.250656
 21
212.842
  0
LINE
  8
0
 10
-0.250656
 20
212.842
 11
-0.374756
 21
212.862
  0
LINE
  8
0
 10
-0.374756
 20
212.862
 11
-0.497375
 21
212.889
  0
LINE
  8
0
 10
-0.497375
 20
212.889
 11
-0.618027
 21
212.924
  0
LINE
  8
0
 10
-0.618027
 20
212.924
 11
-0.736237
 21
212.967
  0
LINE
  8
0
 10
-0.736237
 20
212.967
 11
-0.851547
 21
213.017
  0
LINE
  8
0
 10
-0.851547
 20
213.017
 11
-0.963501
 21
213.074
  0
LINE
  8
0
 10
-0.963501
 20
213.074
 11
-1.07164
 21
213.138
  0
LINE
  8
0
 10
-1.07164
 20
213.138
 11
-1.17557
 21
213.208
  0
LINE
  8
0
 10
-1.17557
 20
213.208
 11
-1.27484
 21
213.285
  0
LINE
  8
0
 10
-1.27484
 20
213.285
 11
-1.36908
 21
213.368
  0
LINE
  8
0
 10
-1.36908
 20
213.368
 11
-1.45793
 21
213.457
  0
LINE
  8
0
 10
-1.45793
 20
213.457
 11
-1.54102
 21
213.551
  0
LINE
  8
0
 10
-1.54102
 20
213.551
 11
-1.61803
 21
213.651
  0
LINE
  8
0
 10
-1.61803
 20
213.651
 11
-1.68864
 21
213.755
  0
LINE
  8
0
 10
-1.68864
 20
213.755
 11
-1.75261
 21
213.863
  0
LINE
  8
0
 10
-1.75261
 20
213.863
 11
-1.80965
 21
213.975
  0
LINE
  8
0
 10
-1.80965
 20
213.975
 11
-1.85954
 21
214.09
  0
LINE
  8
0
 10
-1.85954
 20
214.09
 11
-1.9021
 21
214.208
  0
LINE
  8
0
 10
-1.9021
 20
214.208
 11
-1.93716
 21
214.329
  0
LINE
  8
0
 10
-1.93716
 20
214.329
 11
-1.96457
 21
214.451
  0
LINE
  8
0
 10
-1.96457
 20
214.451
 11
-1.98422
 21
214.576
  0
LINE
  8
0
 10
-1.98422
 20
214.576
 11
-1.99605
 21
214.701
  0
LINE
  8
0
 10
-1.99605
 20
214.701
 11
-2
 21
214.826
  0
LINE
  8
0
 10
-2
 20
214.826
 11
-1.99605
 21
214.952
  0
LINE
  8
0
 10
-1.99605
 20
214.952
 11
-1.98422
 21
215.077
  0
LINE
  8
0
 10
-1.98422
 20
215.077
 11
-1.96457
 21
215.201
  0
LINE
  8
0
 10
-1.96457
 20
215.201
 11
-1.93716
 21
215.324
  0
LINE
  8
0
 10
-1.93716
 20
215.324
 11
-1.9021
 21
215.444
  0
LINE
  8
0
 10
-1.9021
 20
215.444
 11
-1.85954
 21
215.562
  0
LINE
  8
0
 10
-1.85954
 20
215.562
 11
-1.80965
 21
215.678
  0
LINE
  8
0
 10
-1.80965
 20
215.678
 11
-1.75261
 21
215.79
  0
LINE
  8
0
 10
-1.75261
 20
215.79
 11
-1.68864
 21
215.898
  0
LINE
  8
0
 10
-1.68864
 20
215.898
 11
-1.61803
 21
216.002
  0
LINE
  8
0
 10
-1.61803
 20
216.002
 11
-1.54102
 21
216.101
  0
LINE
  8
0
 10
-1.54102
 20
216.101
 11
-1.45793
 21
216.195
  0
LINE
  8
0
 10
-1.45793
 20
216.195
 11
-1.36908
 21
216.284
  0
LINE
  8
0
 10
-1.36908
 20
216.284
 11
-1.27484
 21
216.367
  0
LINE
  8
0
 10
-1.27484
 20
216.367
 11
-1.17557
 21
216.444
  0
LINE
  8
0
 10
-1.17557
 20
216.444
 11
-1.07164
 21
216.515
  0
LINE
  8
0
 10
-1.07164
 20
216.515
 11
-0.963501
 21
216.579
  0
LINE
  8
0
 10
-0.963501
 20
216.579
 11
-0.851547
 21
216.636
  0
LINE
  8
0
 10
-0.851547
 20
216.636
 11
-0.736237
 21
216.686
  0
LINE
  8
0
 10
-0.736237
 20
216.686
 11
-0.618027
 21
216.728
  0
LINE
  8
0
 10
-0.618027
 20
216.728
 11
-0.497375
 21
216.763
  0
LINE
  8
0
 10
-0.497375
 20
216.763
 11
-0.374756
 21
216.791
  0
LINE
  8
0
 10
-0.374756
 20
216.791
 11
-0.250656
 21
216.81
  0
LINE
  8
0
 10
-0.250656
 20
216.81
 11
-0.12558
 21
216.822
  0
LINE
  8
0
 10
-0.12558
 20
216.822
 11
0
 21
216.826
  0
LINE
  8
0
 10
0
 20
216.826
 11
0.12558
 21
216.822
  0
LINE
  8
0
 10
0.12558
 20
216.822
 11
0.250656
 21
216.81
  0
LINE
  8
0
 10
0.250656
 20
216.81
 11
0.374756
 21
216.791
  0
LINE
  8
0
 10
0.374756
 20
216.791
 11
0.497375
 21
216.763
  0
LINE
  8
0
 10
0.497375
 20
216.763
 11
0.618027
 21
216.728
  0
LINE
  8
0
 10
0.618027
 20
216.728
 11
0.736237
 21
216.686
  0
LINE
  8
0
 10
0.736237
 20
216.686
 11
0.851547
 21
216.636
  0
LINE
  8
0
 10
0.851547
 20
216.636
 11
0.963501
 21
216.579
  0
LINE
  8
0
 10
0.963501
 20
216.579
 11
1.07164
 21
216.515
  0
LINE
  8
0
 10
1.07164
 20
216.515
 11
1.17557
 21
216.444
  0
LINE
  8
0
 10
1.17557
 20
216.444
 11
1.27484
 21
216.367
  0
LINE
  8
0
 10
1.27484
 20
216.367
 11
1.36908
 21
216.284
  0
LINE
  8
0
 10
1.36908
 20
216.284
 11
1.45793
 21
216.195
  0
LINE
  8
0
 10
1.45793
 20
216.195
 11
1.54102
 21
216.101
  0
LINE
  8
0
 10
1.54102
 20
216.101
 11
1.61803
 21
216.002
  0
LINE
  8
0
 10
1.61803
 20
216.002
 11
1.68864
 21
215.898
  0
LINE
  8
0
 10
1.68864
 20
215.898
 11
1.75261
 21
215.79
  0
LINE
  8
0
 10
1.75261
 20
215.79
 11
1.80965
 21
215.678
  0
LINE
  8
0
 10
1.80965
 20
215.678
 11
1.85954
 21
215.562
  0
LINE
  8
0
 10
1.85954
 20
215.562
 11
1.9021
 21
215.444
  0
LINE
  8
0
 10
1.9021
 20
215.444
 11
1.93716
 21
215.324
  0
LINE
  8
0
 10
1.93716
 20
215.324
 11
1.96457
 21
215.201
  0
LINE
  8
0
 10
1.96457
 20
215.201
 11
1.98422
 21
215.077
  0
LINE
  8
0
 10
1.98422
 20
215.077
 11
1.99605
 21
214.952
  0
LINE
  8
0
 10
1.99605
 20
214.952
 11
2
 21
214.826
  0
LINE
  8
0
 10
2
 20
214.826
 11
1.99605
 21
214.701
  0
LINE
  8
0
 10
1.99605
 20
214.701
 11
1.98422
 21
214.576
  0
LINE
  8
0
 10
1.98422
 20
214.576
 11
1.96457
 21
214.451
  0
LINE
  8
0
 10
1.96457
 20
214.451
 11
1.93716
 21
214.329
  0
LINE
  8
0
 10
1.93716
 20
214.329
 11
1.9021
 21
214.208
  0
LINE
  8
0
 10
1.9021
 20
214.208
 11
1.85954
 21
214.09
  0
LINE
  8
0
 10
1.85954
 20
214.09
 11
1.80965
 21
213.975
  0
LINE
  8
0
 10
1.80965
 20
213.975
 11
1.75261
 21
213.863
  0
LINE
  8
0
 10
1.75261
 20
213.863
 11
1.68864
 21
213.755
  0
LINE
  8
0
 10
1.68864
 20
213.755
 11
1.61803
 21
213.651
  0
LINE
  8
0
 10
1.61803
 20
213.651
 11
1.54102
 21
213.551
  0
LINE
  8
0
 10
1.54102
 20
213.551
 11
1.45793
 21
213.457
  0
LINE
  8
0
 10
1.45793
 20
213.457
 11
1.36908
 21
213.368
  0
LINE
  8
0
 10
1.36908
 20
213.368
 11
1.27484
 21
213.285
  0
LINE
  8
0
 10
1.27484
 20
213.285
 11
1.17557
 21
213.208
  0
LINE
  8
0
 10
1.17557
 20
213.208
 11
1.07164
 21
213.138
  0
LINE
  8
0
 10
1.07164
 20
213.138
 11
0.963501
 21
213.074
  0
LINE
  8
0
 10
0.963501
 20
213.074
 11
0.851547
 21
213.017
  0
LINE
  8
0
 10
0.851547
 20
213.017
 11
0.736237
 21
212.967
  0
LINE
  8
0
 10
0.736237
 20
212.967
 11
0.618027
 21
212.924
  0
LINE
  8
0
 10
0.618027
 20
212.924
 11
0.497375
 21
212.889
  0
LINE
  8
0
 10
0.497375
 20
212.889
 11
0.374756
 21
212.862
  0
LINE
  8
0
 10
0.374756
 20
212.862
 11
0.250656
 21
212.842
  0
LINE
  8
0
 10
0.250656
 20
212.842
 11
0.12558
 21
212.83
  0
LINE
  8
0
 10
0.12558
 20
212.83
 11
0
 21
212.826
  0
LINE
  8
0
 10
0
 20
212.826
 11
-0.12558
 21
212.83
  0
LINE
  8
0
 10
-0.215607
 20
177.49
 11
-0.531006
 21
180.411
  0
LINE
  8
0
 10
-0.531006
 20
180.411
 11
-0.943451
 21
183.084
  0
LINE
  8
0
 10
-0.943451
 20
183.084
 11
-1.45248
 21
185.509
  0
LINE
  8
0
 10
-1.45248
 20
185.509
 11
-1.75407
 21
186.595
  0
LINE
  8
0
 10
-1.75407
 20
186.595
 11
0
 21
191.993
  0
LINE
  8
0
 10
0
 20
191.993
 11
1.75403
 21
186.595
  0
LINE
  8
0
 10
1.75403
 20
186.595
 11
1.45248
 21
185.51
  0
LINE
  8
0
 10
1.45248
 20
185.51
 11
0.943909
 21
183.084
  0
LINE
  8
0
 10
0.943909
 20
183.084
 11
0.531464
 21
180.411
  0
LINE
  8
0
 10
0.531464
 20
180.411
 11
0.215607
 21
177.49
  0
LINE
  8
0
 10
0.215607
 20
177.49
 11
0
 21
174.368
  0
LINE
  8
0
 10
0
 20
174.368
 11
-0.215607
 21
177.49
  0
LINE
  8
0
 10
2.24487
 20
179.656
 11
2.99149
 21
182.619
  0
LINE
  8
0
 10
2.99149
 20
182.619
 11
3.0184
 21
182.704
  0
LINE
  8
0
 10
3.0184
 20
182.704
 11
3.92462
 21
179.915
  0
LINE
  8
0
 10
3.92462
 20
179.915
 11
3.70102
 21
179.37
  0
LINE
  8
0
 10
3.70102
 20
179.37
 11
1.59073
 21
176.391
  0
LINE
  8
0
 10
1.59073
 20
176.391
 11
2.24487
 21
179.656
  0
LINE
  8
0
 10
-3.70148
 20
179.371
 11
-3.92467
 21
179.915
  0
LINE
  8
0
 10
-3.92467
 20
179.915
 11
-3.01848
 21
182.704
  0
LINE
  8
0
 10
-3.01848
 20
182.704
 11
-2.99149
 21
182.618
  0
LINE
  8
0
 10
-2.99149
 20
182.618
 11
-2.24487
 21
179.656
  0
LINE
  8
0
 10
-2.24487
 20
179.656
 11
-1.59073
 21
176.391
  0
LINE
  8
0
 10
-1.59073
 20
176.391
 11
-3.70148
 21
179.371
  0
LINE
  8
0
 10
-5.83099
 20
173.088
 11
-6.11549
 21
173.172
  0
LINE
  8
0
 10
-6.11549
 20
173.172
 11
-5.54045
 21
174.942
  0
LINE
  8
0
 10
-5.54045
 20
174.942
 11
-4.83948
 21
174.402
  0
LINE
  8
0
 10
-4.83948
 20
174.402
 11
-3.75504
 21
173.721
  0
LINE
  8
0
 10
-3.75504
 20
173.721
 11
-2.65549
 21
173.181
  0
LINE
  8
0
 10
-2.65549
 20
173.181
 11
-4.28284
 21
172.977
  0
LINE
  8
0
 10
-4.28284
 20
172.977
 11
-5.83099
 21
173.088
  0
LINE
  8
0
 10
2.65549
 20
173.181
 11
3.75504
 21
173.721
  0
LINE
  8
0
 10
3.75504
 20
173.721
 11
4.83902
 21
174.401
  0
LINE
  8
0
 10
4.83902
 20
174.401
 11
5.54047
 21
174.942
  0
LINE
  8
0
 10
5.54047
 20
174.942
 11
6.11549
 21
173.172
  0
LINE
  8
0
 10
6.11549
 20
173.172
 11
5.83099
 21
173.088
  0
LINE
  8
0
 10
5.83099
 20
173.088
 11
4.28284
 21
172.977
  0
LINE
  8
0
 10
4.28284
 20
172.977
 11
2.65549
 21
173.181
  0
LINE
  8
0
 10
-6.95747
 20
170.581
 11
-5.83099
 21
170.911
  0
LINE
  8
0
 10
-5.83099
 20
170.911
 11
-4.28284
 21
171.023
  0
LINE
  8
0
 10
-4.28284
 20
171.023
 11
-2.65549
 21
170.819
  0
LINE
  8
0
 10
-2.65549
 20
170.819
 11
-3.75504
 21
170.278
  0
LINE
  8
0
 10
-3.75504
 20
170.278
 11
-4.83902
 21
169.598
  0
LINE
  8
0
 10
-4.83902
 20
169.598
 11
-5.89783
 21
168.783
  0
LINE
  8
0
 10
-5.89783
 20
168.783
 11
-6.93192
 21
167.832
  0
LINE
  8
0
 10
-6.93192
 20
167.832
 11
-7.94083
 21
166.747
  0
LINE
  8
0
 10
-7.94083
 20
166.747
 11
-8.38031
 21
166.202
  0
LINE
  8
0
 10
-8.38031
 20
166.202
 11
-6.95747
 21
170.581
  0
LINE
  8
0
 10
7.94083
 20
166.747
 11
6.93237
 21
167.832
  0
LINE
  8
0
 10
6.93237
 20
167.832
 11
5.89783
 21
168.783
  0
LINE
  8
0
 10
5.89783
 20
168.783
 11
4.83948
 21
169.598
  0
LINE
  8
0
 10
4.83948
 20
169.598
 11
3.75504
 21
170.278
  0
LINE
  8
0
 10
3.75504
 20
170.278
 11
2.65549
 21
170.819
  0
LINE
  8
0
 10
2.65549
 20
170.819
 11
4.28284
 21
171.023
  0
LINE
  8
0
 10
4.28284
 20
171.023
 11
5.83099
 21
170.911
  0
LINE
  8
0
 10
5.83099
 20
170.911
 11
6.95747
 21
170.581
  0
LINE
  8
0
 10
6.95747
 20
170.581
 11
8.38028
 21
166.202
  0
LINE
  8
0
 10
8.38028
 20
166.202
 11
7.94083
 21
166.747
  0
LINE
  8
0
 10
-0.215607
 20
129.49
 11
-0.531006
 21
132.411
  0
LINE
  8
0
 10
-0.531006
 20
132.411
 11
-0.943451
 21
135.083
  0
LINE
  8
0
 10
-0.943451
 20
135.083
 11
-1.45248
 21
137.509
  0
LINE
  8
0
 10
-1.45248
 20
137.509
 11
-2.05765
 21
139.688
  0
LINE
  8
0
 10
-2.05765
 20
139.688
 11
-2.7594
 21
141.618
  0
LINE
  8
0
 10
-2.7594
 20
141.618
 11
-3.55774
 21
143.301
  0
LINE
  8
0
 10
-3.55774
 20
143.301
 11
-4.45221
 21
144.737
  0
LINE
  8
0
 10
-4.45221
 20
144.737
 11
-5.44418
 21
145.925
  0
LINE
  8
0
 10
-5.44418
 20
145.925
 11
-6.53275
 21
146.865
  0
LINE
  8
0
 10
-6.53275
 20
146.865
 11
-7.71744
 21
147.558
  0
LINE
  8
0
 10
-7.71744
 20
147.558
 11
-8.99002
 21
148
  0
LINE
  8
0
 10
-8.99002
 20
148
 11
-7.71744
 21
148.441
  0
LINE
  8
0
 10
-7.71744
 20
148.441
 11
-6.53275
 21
149.135
  0
LINE
  8
0
 10
-6.53275
 20
149.135
 11
-5.44418
 21
150.075
  0
LINE
  8
0
 10
-5.44418
 20
150.075
 11
-4.45267
 21
151.263
  0
LINE
  8
0
 10
-4.45267
 20
151.263
 11
-3.55774
 21
152.698
  0
LINE
  8
0
 10
-3.55774
 20
152.698
 11
-2.7594
 21
154.381
  0
LINE
  8
0
 10
-2.7594
 20
154.381
 11
-2.05765
 21
156.312
  0
LINE
  8
0
 10
-2.05765
 20
156.312
 11
-1.45248
 21
158.49
  0
LINE
  8
0
 10
-1.45248
 20
158.49
 11
-0.943909
 21
160.916
  0
LINE
  8
0
 10
-0.943909
 20
160.916
 11
-0.531464
 21
163.589
  0
LINE
  8
0
 10
-0.531464
 20
163.589
 11
-0.215607
 21
166.509
  0
LINE
  8
0
 10
-0.215607
 20
166.509
 11
0
 21
169.631
  0
LINE
  8
0
 10
0
 20
169.631
 11
0.215607
 21
166.51
  0
LINE
  8
0
 10
0.215607
 20
166.51
 11
0.531006
 21
163.589
  0
LINE
  8
0
 10
0.531006
 20
163.589
 11
0.943451
 21
160.916
  0
LINE
  8
0
 10
0.943451
 20
160.916
 11
1.45248
 21
158.49
  0
LINE
  8
0
 10
1.45248
 20
158.49
 11
2.05765
 21
156.312
  0
LINE
  8
0
 10
2.05765
 20
156.312
 11
2.7594
 21
154.382
  0
LINE
  8
0
 10
2.7594
 20
154.382
 11
3.55774
 21
152.699
  0
LINE
  8
0
 10
3.55774
 20
152.699
 11
4.45221
 21
151.263
  0
LINE
  8
0
 10
4.45221
 20
151.263
 11
5.44418
 21
150.075
  0
LINE
  8
0
 10
5.44418
 20
150.075
 11
6.53275
 21
149.135
  0
LINE
  8
0
 10
6.53275
 20
149.135
 11
7.71744
 21
148.441
  0
LINE
  8
0
 10
7.71744
 20
148.441
 11
8.99002
 21
148
  0
LINE
  8
0
 10
8.99002
 20
148
 11
7.71744
 21
147.558
  0
LINE
  8
0
 10
7.71744
 20
147.558
 11
6.53275
 21
146.865
  0
LINE
  8
0
 10
6.53275
 20
146.865
 11
5.44418
 21
145.925
  0
LINE
  8
0
 10
5.44418
 20
145.925
 11
4.45267
 21
144.737
  0
LINE
  8
0
 10
4.45267
 20
144.737
 11
3.55774
 21
143.301
  0
LINE
  8
0
 10
3.55774
 20
143.301
 11
2.7594
 21
141.618
  0
LINE
  8
0
 10
2.7594
 20
141.618
 11
2.05765
 21
139.688
  0
LINE
  8
0
 10
2.05765
 20
139.688
 11
1.45248
 21
137.51
  0
LINE
  8
0
 10
1.45248
 20
137.51
 11
0.943909
 21
135.084
  0
LINE
  8
0
 10
0.943909
 20
135.084
 11
0.531464
 21
132.411
  0
LINE
  8
0
 10
0.531464
 20
132.411
 11
0.215607
 21
129.49
  0
LINE
  8
0
 10
0.215607
 20
129.49
 11
0
 21
126.368
  0
LINE
  8
0
 10
0
 20
126.368
 11
-0.215607
 21
129.49
  0
LINE
  8
0
 10
-13.9668
 20
149.008
 11
-13.6046
 21
150.123
  0
LINE
  8
0
 10
-13.6046
 20
150.123
 11
-13.1607
 21
150.401
  0
LINE
  8
0
 10
-13.1607
 20
150.401
 11
-12.1019
 21
151.217
  0
LINE
  8
0
 10
-12.1019
 20
151.217
 11
-11.0678
 21
152.167
  0
LINE
  8
0
 10
-11.0678
 20
152.167
 11
-10.0589
 21
153.253
  0
LINE
  8
0
 10
-10.0589
 20
153.253
 11
-9.07562
 21
154.473
  0
LINE
  8
0
 10
-9.07562
 20
154.473
 11
-8.11707
 21
155.828
  0
LINE
  8
0
 10
-8.11707
 20
155.828
 11
-7.18323
 21
157.319
  0
LINE
  8
0
 10
-7.18323
 20
157.319
 11
-6.27502
 21
158.944
  0
LINE
  8
0
 10
-6.27502
 20
158.944
 11
-5.392
 21
160.704
  0
LINE
  8
0
 10
-5.392
 20
160.704
 11
-4.53415
 21
162.6
  0
LINE
  8
0
 10
-4.53415
 20
162.6
 11
-3.70148
 21
164.629
  0
LINE
  8
0
 10
-3.70148
 20
164.629
 11
-1.59073
 21
167.609
  0
LINE
  8
0
 10
-1.59073
 20
167.609
 11
-2.24487
 21
164.343
  0
LINE
  8
0
 10
-2.24487
 20
164.343
 11
-2.99149
 21
161.381
  0
LINE
  8
0
 10
-2.99149
 20
161.381
 11
-3.82736
 21
158.736
  0
LINE
  8
0
 10
-3.82736
 20
158.736
 11
-4.75204
 21
156.407
  0
LINE
  8
0
 10
-4.75204
 20
156.407
 11
-5.76553
 21
154.395
  0
LINE
  8
0
 10
-5.76553
 20
154.395
 11
-6.86829
 21
152.701
  0
LINE
  8
0
 10
-6.86829
 20
152.701
 11
-8.05984
 21
151.322
  0
LINE
  8
0
 10
-8.05984
 20
151.322
 11
-9.34067
 21
150.262
  0
LINE
  8
0
 10
-9.34067
 20
150.262
 11
-10.7108
 21
149.516
  0
LINE
  8
0
 10
-10.7108
 20
149.516
 11
-12.1687
 21
149.088
  0
LINE
  8
0
 10
-12.1687
 20
149.088
 11
-13.7169
 21
148.977
  0
LINE
  8
0
 10
-13.7169
 20
148.977
 11
-13.9668
 21
149.008
  0
LINE
  8
0
 10
12.1687
 20
149.088
 11
10.7108
 21
149.516
  0
LINE
  8
0
 10
10.7108
 20
149.516
 11
9.34067
 21
150.262
  0
LINE
  8
0
 10
9.34067
 20
150.262
 11
8.05939
 21
151.323
  0
LINE
  8
0
 10
8.05939
 20
151.323
 11
6.86829
 21
152.701
  0
LINE
  8
0
 10
6.86829
 20
152.701
 11
5.76508
 21
154.396
  0
LINE
  8
0
 10
5.76508
 20
154.396
 11
4.75204
 21
156.408
  0
LINE
  8
0
 10
4.75204
 20
156.408
 11
3.82736
 21
158.737
  0
LINE
  8
0
 10
3.82736
 20
158.737
 11
2.99149
 21
161.382
  0
LINE
  8
0
 10
2.99149
 20
161.382
 11
2.24487
 21
164.344
  0
LINE
  8
0
 10
2.24487
 20
164.344
 11
1.59073
 21
167.609
  0
LINE
  8
0
 10
1.59073
 20
167.609
 11
3.70148
 21
164.629
  0
LINE
  8
0
 10
3.70148
 20
164.629
 11
4.53415
 21
162.6
  0
LINE
  8
0
 10
4.53415
 20
162.6
 11
5.392
 21
160.705
  0
LINE
  8
0
 10
5.392
 20
160.705
 11
6.27502
 21
158.945
  0
LINE
  8
0
 10
6.27502
 20
158.945
 11
7.18323
 21
157.319
  0
LINE
  8
0
 10
7.18323
 20
157.319
 11
8.11661
 21
155.829
  0
LINE
  8
0
 10
8.11661
 20
155.829
 11
9.07516
 21
154.473
  0
LINE
  8
0
 10
9.07516
 20
154.473
 11
10.0589
 21
153.253
  0
LINE
  8
0
 10
10.0589
 20
153.253
 11
11.0674
 21
152.168
  0
LINE
  8
0
 10
11.0674
 20
152.168
 11
12.1019
 21
151.217
  0
LINE
  8
0
 10
12.1019
 20
151.217
 11
13.1602
 21
150.402
  0
LINE
  8
0
 10
13.1602
 20
150.402
 11
13.6046
 21
150.123
  0
LINE
  8
0
 10
13.6046
 20
150.123
 11
13.9668
 21
149.008
  0
LINE
  8
0
 10
13.9668
 20
149.008
 11
13.7169
 21
148.977
  0
LINE
  8
0
 10
13.7169
 20
148.977
 11
12.1687
 21
149.088
  0
LINE
  8
0
 10
2.24487
 20
131.656
 11
2.99149
 21
134.618
  0
LINE
  8
0
 10
2.99149
 20
134.618
 11
3.82736
 21
137.263
  0
LINE
  8
0
 10
3.82736
 20
137.263
 11
4.75204
 21
139.592
  0
LINE
  8
0
 10
4.75204
 20
139.592
 11
5.76508
 21
141.603
  0
LINE
  8
0
 10
5.76508
 20
141.603
 11
6.86829
 21
143.298
  0
LINE
  8
0
 10
6.86829
 20
143.298
 11
8.05939
 21
144.677
  0
LINE
  8
0
 10
8.05939
 20
144.677
 11
9.34067
 21
145.738
  0
LINE
  8
0
 10
9.34067
 20
145.738
 11
10.7108
 21
146.483
  0
LINE
  8
0
 10
10.7108
 20
146.483
 11
12.1687
 21
146.911
  0
LINE
  8
0
 10
12.1687
 20
146.911
 11
13.7169
 21
147.023
  0
LINE
  8
0
 10
13.7169
 20
147.023
 11
14.6499
 21
146.906
  0
LINE
  8
0
 10
14.6499
 20
146.906
 11
14.7699
 21
146.536
  0
LINE
  8
0
 10
14.7699
 20
146.536
 11
14.2447
 21
146.278
  0
LINE
  8
0
 10
14.2447
 20
146.278
 11
13.1607
 21
145.598
  0
LINE
  8
0
 10
13.1607
 20
145.598
 11
12.1019
 21
144.783
  0
LINE
  8
0
 10
12.1019
 20
144.783
 11
11.0678
 21
143.832
  0
LINE
  8
0
 10
11.0678
 20
143.832
 11
10.0589
 21
142.747
  0
LINE
  8
0
 10
10.0589
 20
142.747
 11
9.07562
 21
141.526
  0
LINE
  8
0
 10
9.07562
 20
141.526
 11
8.11707
 21
140.171
  0
LINE
  8
0
 10
8.11707
 20
140.171
 11
7.18323
 21
138.681
  0
LINE
  8
0
 10
7.18323
 20
138.681
 11
6.27502
 21
137.055
  0
LINE
  8
0
 10
6.27502
 20
137.055
 11
5.392
 21
135.295
  0
LINE
  8
0
 10
5.392
 20
135.295
 11
4.53415
 21
133.4
  0
LINE
  8
0
 10
4.53415
 20
133.4
 11
3.70102
 21
131.37
  0
LINE
  8
0
 10
3.70102
 20
131.37
 11
1.59073
 21
128.391
  0
LINE
  8
0
 10
1.59073
 20
128.391
 11
2.24487
 21
131.656
  0
LINE
  8
0
 10
-3.70148
 20
131.371
 11
-4.53415
 21
133.399
  0
LINE
  8
0
 10
-4.53415
 20
133.399
 11
-5.392
 21
135.294
  0
LINE
  8
0
 10
-5.392
 20
135.294
 11
-6.27502
 21
137.055
  0
LINE
  8
0
 10
-6.27502
 20
137.055
 11
-7.18323
 21
138.681
  0
LINE
  8
0
 10
-7.18323
 20
138.681
 11
-8.11661
 21
140.171
  0
LINE
  8
0
 10
-8.11661
 20
140.171
 11
-9.07516
 21
141.526
  0
LINE
  8
0
 10
-9.07516
 20
141.526
 11
-10.0589
 21
142.747
  0
LINE
  8
0
 10
-10.0589
 20
142.747
 11
-11.0674
 21
143.832
  0
LINE
  8
0
 10
-11.0674
 20
143.832
 11
-12.1019
 21
144.783
  0
LINE
  8
0
 10
-12.1019
 20
144.783
 11
-13.1602
 21
145.598
  0
LINE
  8
0
 10
-13.1602
 20
145.598
 11
-14.2447
 21
146.278
  0
LINE
  8
0
 10
-14.2447
 20
146.278
 11
-14.7699
 21
146.536
  0
LINE
  8
0
 10
-14.7699
 20
146.536
 11
-14.6499
 21
146.906
  0
LINE
  8
0
 10
-14.6499
 20
146.906
 11
-13.7169
 21
147.023
  0
LINE
  8
0
 10
-13.7169
 20
147.023
 11
-12.1687
 21
146.911
  0
LINE
  8
0
 10
-12.1687
 20
146.911
 11
-10.7108
 21
146.483
  0
LINE
  8
0
 10
-10.7108
 20
146.483
 11
-9.34067
 21
145.738
  0
LINE
  8
0
 10
-9.34067
 20
145.738
 11
-8.05939
 21
144.677
  0
LINE
  8
0
 10
-8.05939
 20
144.677
 11
-6.86829
 21
143.298
  0
LINE
  8
0
 10
-6.86829
 20
143.298
 11
-5.76508
 21
141.603
  0
LINE
  8
0
 10
-5.76508
 20
141.603
 11
-4.75204
 21
139.592
  0
LINE
  8
0
 10
-4.75204
 20
139.592
 11
-3.82736
 21
137.263
  0
LINE
  8
0
 10
-3.82736
 20
137.263
 11
-2.99149
 21
134.618
  0
LINE
  8
0
 10
-2.99149
 20
134.618
 11
-2.24487
 21
131.656
  0
LINE
  8
0
 10
-2.24487
 20
131.656
 11
-1.59073
 21
128.391
  0
LINE
  8
0
 10
-1.59073
 20
128.391
 11
-3.70148
 21
131.371
  0
LINE
  8
0
 10
-5.83099
 20
125.088
 11
-7.28897
 21
125.516
  0
LINE
  8
0
 10
-7.28897
 20
125.516
 11
-8.65906
 21
126.261
  0
LINE
  8
0
 10
-8.65906
 20
126.261
 11
-9.94034
 21
127.323
  0
LINE
  8
0
 10
-9.94034
 20
127.323
 11
-11.1314
 21
128.701
  0
LINE
  8
0
 10
-11.1314
 20
128.701
 11
-12.2346
 21
130.396
  0
LINE
  8
0
 10
-12.2346
 20
130.396
 11
-13.2477
 21
132.408
  0
LINE
  8
0
 10
-13.2477
 20
132.408
 11
-14.1724
 21
134.736
  0
LINE
  8
0
 10
-14.1724
 20
134.736
 11
-15.0082
 21
137.381
  0
LINE
  8
0
 10
-15.0082
 20
137.381
 11
-15.7549
 21
140.344
  0
LINE
  8
0
 10
-15.7549
 20
140.344
 11
-16.1466
 21
142.299
  0
LINE
  8
0
 10
-16.1466
 20
142.299
 11
-15.9374
 21
142.943
  0
LINE
  8
0
 10
-15.9374
 20
142.943
 11
-14.2982
 21
140.629
  0
LINE
  8
0
 10
-14.2982
 20
140.629
 11
-13.4656
 21
138.6
  0
LINE
  8
0
 10
-13.4656
 20
138.6
 11
-12.6077
 21
136.705
  0
LINE
  8
0
 10
-12.6077
 20
136.705
 11
-11.7247
 21
134.945
  0
LINE
  8
0
 10
-11.7247
 20
134.945
 11
-10.8165
 21
133.319
  0
LINE
  8
0
 10
-10.8165
 20
133.319
 11
-9.88312
 21
131.829
  0
LINE
  8
0
 10
-9.88312
 20
131.829
 11
-8.92456
 21
130.473
  0
LINE
  8
0
 10
-8.92456
 20
130.473
 11
-7.94083
 21
129.252
  0
LINE
  8
0
 10
-7.94083
 20
129.252
 11
-6.93237
 21
128.168
  0
LINE
  8
0
 10
-6.93237
 20
128.168
 11
-5.89783
 21
127.217
  0
LINE
  8
0
 10
-5.89783
 20
127.217
 11
-4.83948
 21
126.402
  0
LINE
  8
0
 10
-4.83948
 20
126.402
 11
-3.75504
 21
125.721
  0
LINE
  8
0
 10
-3.75504
 20
125.721
 11
-2.65549
 21
125.181
  0
LINE
  8
0
 10
-2.65549
 20
125.181
 11
-4.28284
 21
124.977
  0
LINE
  8
0
 10
-4.28284
 20
124.977
 11
-5.83099
 21
125.088
  0
LINE
  8
0
 10
2.65549
 20
125.181
 11
3.75504
 21
125.721
  0
LINE
  8
0
 10
3.75504
 20
125.721
 11
4.83902
 21
126.401
  0
LINE
  8
0
 10
4.83902
 20
126.401
 11
5.89783
 21
127.217
  0
LINE
  8
0
 10
5.89783
 20
127.217
 11
6.93192
 21
128.167
  0
LINE
  8
0
 10
6.93192
 20
128.167
 11
7.94083
 21
129.252
  0
LINE
  8
0
 10
7.94083
 20
129.252
 11
8.9241
 21
130.473
  0
LINE
  8
0
 10
8.9241
 20
130.473
 11
9.88266
 21
131.828
  0
LINE
  8
0
 10
9.88266
 20
131.828
 11
10.8165
 21
133.319
  0
LINE
  8
0
 10
10.8165
 20
133.319
 11
11.7247
 21
134.944
  0
LINE
  8
0
 10
11.7247
 20
134.944
 11
12.6077
 21
136.704
  0
LINE
  8
0
 10
12.6077
 20
136.704
 11
13.4656
 21
138.6
  0
LINE
  8
0
 10
13.4656
 20
138.6
 11
14.2982
 21
140.629
  0
LINE
  8
0
 10
14.2982
 20
140.629
 11
15.9374
 21
142.943
  0
LINE
  8
0
 10
15.9374
 20
142.943
 11
16.1467
 21
142.299
  0
LINE
  8
0
 10
16.1467
 20
142.299
 11
15.7549
 21
140.343
  0
LINE
  8
0
 10
15.7549
 20
140.343
 11
15.0082
 21
137.381
  0
LINE
  8
0
 10
15.0082
 20
137.381
 11
14.1724
 21
134.736
  0
LINE
  8
0
 10
14.1724
 20
134.736
 11
13.2477
 21
132.407
  0
LINE
  8
0
 10
13.2477
 20
132.407
 11
12.2342
 21
130.395
  0
LINE
  8
0
 10
12.2342
 20
130.395
 11
11.1314
 21
128.701
  0
LINE
  8
0
 10
11.1314
 20
128.701
 11
9.93988
 21
127.322
  0
LINE
  8
0
 10
9.93988
 20
127.322
 11
8.65906
 21
126.261
  0
LINE
  8
0
 10
8.65906
 20
126.261
 11
7.28897
 21
125.516
  0
LINE
  8
0
 10
7.28897
 20
125.516
 11
5.83099
 21
125.088
  0
LINE
  8
0
 10
5.83099
 20
125.088
 11
4.28284
 21
124.977
  0
LINE
  8
0
 10
4.28284
 20
124.977
 11
2.65549
 21
125.181
  0
LINE
  8
0
 10
17.7841
 20
105.49
 11
17.4687
 21
108.41
  0
LINE
  8
0
 10
17.4687
 20
108.41
 11
17.0563
 21
111.083
  0
LINE
  8
0
 10
17.0563
 20
111.083
 11
16.5472
 21
113.509
  0
LINE
  8
0
 10
16.5472
 20
113.509
 11
15.9421
 21
115.688
  0
LINE
  8
0
 10
15.9421
 20
115.688
 11
15.2403
 21
117.617
  0
LINE
  8
0
 10
15.2403
 20
117.617
 11
14.442
 21
119.301
  0
LINE
  8
0
 10
14.442
 20
119.301
 11
13.5475
 21
120.737
  0
LINE
  8
0
 10
13.5475
 20
120.737
 11
12.5555
 21
121.925
  0
LINE
  8
0
 10
12.5555
 20
121.925
 11
11.467
 21
122.865
  0
LINE
  8
0
 10
11.467
 20
122.865
 11
10.2823
 21
123.558
  0
LINE
  8
0
 10
10.2823
 20
123.558
 11
9.0097
 21
124
  0
LINE
  8
0
 10
9.0097
 20
124
 11
10.2823
 21
124.441
  0
LINE
  8
0
 10
10.2823
 20
124.441
 11
11.467
 21
125.134
  0
LINE
  8
0
 10
11.467
 20
125.134
 11
12.5555
 21
126.075
  0
LINE
  8
0
 10
12.5555
 20
126.075
 11
13.5471
 21
127.263
  0
LINE
  8
0
 10
13.5471
 20
127.263
 11
14.442
 21
128.698
  0
LINE
  8
0
 10
14.442
 20
128.698
 11
15.2403
 21
130.381
  0
LINE
  8
0
 10
15.2403
 20
130.381
 11
15.9421
 21
132.312
  0
LINE
  8
0
 10
15.9421
 20
132.312
 11
16.5472
 21
134.49
  0
LINE
  8
0
 10
16.5472
 20
134.49
 11
17.0558
 21
136.915
  0
LINE
  8
0
 10
17.0558
 20
136.915
 11
17.3263
 21
138.669
  0
LINE
  8
0
 10
17.3263
 20
138.669
 11
22.9565
 21
121.341
  0
LINE
  8
0
 10
22.9565
 20
121.341
 11
22.4524
 21
120.737
  0
LINE
  8
0
 10
22.4524
 20
120.737
 11
21.5575
 21
119.301
  0
LINE
  8
0
 10
21.5575
 20
119.301
 11
20.7591
 21
117.618
  0
LINE
  8
0
 10
20.7591
 20
117.618
 11
20.0574
 21
115.688
  0
LINE
  8
0
 10
20.0574
 20
115.688
 11
19.4522
 21
113.51
  0
LINE
  8
0
 10
19.4522
 20
113.51
 11
18.9436
 21
111.084
  0
LINE
  8
0
 10
18.9436
 20
111.084
 11
18.5312
 21
108.41
  0
LINE
  8
0
 10
18.5312
 20
108.41
 11
18.2153
 21
105.49
  0
LINE
  8
0
 10
18.2153
 20
105.49
 11
17.9997
 21
102.368
  0
LINE
  8
0
 10
17.9997
 20
102.368
 11
17.7841
 21
105.49
  0
LINE
  8
0
 10
-18.2153
 20
105.49
 11
-18.5307
 21
108.41
  0
LINE
  8
0
 10
-18.5307
 20
108.41
 11
-18.9432
 21
111.083
  0
LINE
  8
0
 10
-18.9432
 20
111.083
 11
-19.4522
 21
113.509
  0
LINE
  8
0
 10
-19.4522
 20
113.509
 11
-20.0574
 21
115.688
  0
LINE
  8
0
 10
-20.0574
 20
115.688
 11
-20.7591
 21
117.617
  0
LINE
  8
0
 10
-20.7591
 20
117.617
 11
-21.5575
 21
119.301
  0
LINE
  8
0
 10
-21.5575
 20
119.301
 11
-22.4519
 21
120.737
  0
LINE
  8
0
 10
-22.4519
 20
120.737
 11
-22.9564
 21
121.341
  0
LINE
  8
0
 10
-22.9564
 20
121.341
 11
-17.3266
 21
138.668
  0
LINE
  8
0
 10
-17.3266
 20
138.668
 11
-17.0563
 21
136.916
  0
LINE
  8
0
 10
-17.0563
 20
136.916
 11
-16.5472
 21
134.49
  0
LINE
  8
0
 10
-16.5472
 20
134.49
 11
-15.9421
 21
132.312
  0
LINE
  8
0
 10
-15.9421
 20
132.312
 11
-15.2403
 21
130.382
  0
LINE
  8
0
 10
-15.2403
 20
130.382
 11
-14.442
 21
128.699
  0
LINE
  8
0
 10
-14.442
 20
128.699
 11
-13.5475
 21
127.263
  0
LINE
  8
0
 10
-13.5475
 20
127.263
 11
-12.5555
 21
126.075
  0
LINE
  8
0
 10
-12.5555
 20
126.075
 11
-11.467
 21
125.134
  0
LINE
  8
0
 10
-11.467
 20
125.134
 11
-10.2823
 21
124.441
  0
LINE
  8
0
 10
-10.2823
 20
124.441
 11
-9.0097
 21
124
  0
LINE
  8
0
 10
-9.0097
 20
124
 11
-10.2823
 21
123.558
  0
LINE
  8
0
 10
-10.2823
 20
123.558
 11
-11.467
 21
122.865
  0
LINE
  8
0
 10
-11.467
 20
122.865
 11
-12.5555
 21
121.925
  0
LINE
  8
0
 10
-12.5555
 20
121.925
 11
-13.5471
 21
120.737
  0
LINE
  8
0
 10
-13.5471
 20
120.737
 11
-14.442
 21
119.301
  0
LINE
  8
0
 10
-14.442
 20
119.301
 11
-15.2403
 21
117.618
  0
LINE
  8
0
 10
-15.2403
 20
117.618
 11
-15.9421
 21
115.688
  0
LINE
  8
0
 10
-15.9421
 20
115.688
 11
-16.5472
 21
113.51
  0
LINE
  8
0
 10
-16.5472
 20
113.51
 11
-17.0558
 21
111.084
  0
LINE
  8
0
 10
-17.0558
 20
111.084
 11
-17.4683
 21
108.41
  0
LINE
  8
0
 10
-17.4683
 20
108.41
 11
-17.7841
 21
105.49
  0
LINE
  8
0
 10
-17.7841
 20
105.49
 11
-17.9997
 21
102.368
  0
LINE
  8
0
 10
-17.9997
 20
102.368
 11
-18.2153
 21
105.49
  0
LINE
  8
0
 10
14.2982
 20
107.37
 11
13.4656
 21
109.399
  0
LINE
  8
0
 10
13.4656
 20
109.399
 11
12.6077
 21
111.294
  0
LINE
  8
0
 10
12.6077
 20
111.294
 11
11.7247
 21
113.055
  0
LINE
  8
0
 10
11.7247
 20
113.055
 11
10.8165
 21
114.68
  0
LINE
  8
0
 10
10.8165
 20
114.68
 11
9.88312
 21
116.171
  0
LINE
  8
0
 10
9.88312
 20
116.171
 11
8.92456
 21
117.526
  0
LINE
  8
0
 10
8.92456
 20
117.526
 11
7.94083
 21
118.747
  0
LINE
  8
0
 10
7.94083
 20
118.747
 11
6.93237
 21
119.832
  0
LINE
  8
0
 10
6.93237
 20
119.832
 11
5.89783
 21
120.782
  0
LINE
  8
0
 10
5.89783
 20
120.782
 11
4.83948
 21
121.598
  0
LINE
  8
0
 10
4.83948
 20
121.598
 11
3.75504
 21
122.278
  0
LINE
  8
0
 10
3.75504
 20
122.278
 11
2.65549
 21
122.819
  0
LINE
  8
0
 10
2.65549
 20
122.819
 11
4.28284
 21
123.023
  0
LINE
  8
0
 10
4.28284
 20
123.023
 11
5.83099
 21
122.911
  0
LINE
  8
0
 10
5.83099
 20
122.911
 11
7.28897
 21
122.483
  0
LINE
  8
0
 10
7.28897
 20
122.483
 11
8.65906
 21
121.738
  0
LINE
  8
0
 10
8.65906
 20
121.738
 11
9.94034
 21
120.677
  0
LINE
  8
0
 10
9.94034
 20
120.677
 11
11.1314
 21
119.298
  0
LINE
  8
0
 10
11.1314
 20
119.298
 11
12.2346
 21
117.603
  0
LINE
  8
0
 10
12.2346
 20
117.603
 11
13.2477
 21
115.591
  0
LINE
  8
0
 10
13.2477
 20
115.591
 11
14.1724
 21
113.263
  0
LINE
  8
0
 10
14.1724
 20
113.263
 11
15.0082
 21
110.618
  0
LINE
  8
0
 10
15.0082
 20
110.618
 11
15.7549
 21
107.656
  0
LINE
  8
0
 10
15.7549
 20
107.656
 11
16.409
 21
104.39
  0
LINE
  8
0
 10
16.409
 20
104.39
 11
14.2982
 21
107.37
  0
LINE
  8
0
 10
-15.7549
 20
107.656
 11
-15.0082
 21
110.618
  0
LINE
  8
0
 10
-15.0082
 20
110.618
 11
-14.1724
 21
113.263
  0
LINE
  8
0
 10
-14.1724
 20
113.263
 11
-13.2477
 21
115.592
  0
LINE
  8
0
 10
-13.2477
 20
115.592
 11
-12.2346
 21
117.603
  0
LINE
  8
0
 10
-12.2346
 20
117.603
 11
-11.1314
 21
119.298
  0
LINE
  8
0
 10
-11.1314
 20
119.298
 11
-9.94034
 21
120.677
  0
LINE
  8
0
 10
-9.94034
 20
120.677
 11
-8.65906
 21
121.738
  0
LINE
  8
0
 10
-8.65906
 20
121.738
 11
-7.28897
 21
122.483
  0
LINE
  8
0
 10
-7.28897
 20
122.483
 11
-5.83099
 21
122.911
  0
LINE
  8
0
 10
-5.83099
 20
122.911
 11
-4.28284
 21
123.023
  0
LINE
  8
0
 10
-4.28284
 20
123.023
 11
-2.65549
 21
122.819
  0
LINE
  8
0
 10
-2.65549
 20
122.819
 11
-3.75504
 21
122.278
  0
LINE
  8
0
 10
-3.75504
 20
122.278
 11
-4.83902
 21
121.598
  0
LINE
  8
0
 10
-4.83902
 20
121.598
 11
-5.89783
 21
120.782
  0
LINE
  8
0
 10
-5.89783
 20
120.782
 11
-6.93192
 21
119.832
  0
LINE
  8
0
 10
-6.93192
 20
119.832
 11
-7.94083
 21
118.747
  0
LINE
  8
0
 10
-7.94083
 20
118.747
 11
-8.9241
 21
117.526
  0
LINE
  8
0
 10
-8.9241
 20
117.526
 11
-9.88266
 21
116.171
  0
LINE
  8
0
 10
-9.88266
 20
116.171
 11
-10.8165
 21
114.68
  0
LINE
  8
0
 10
-10.8165
 20
114.68
 11
-11.7247
 21
113.055
  0
LINE
  8
0
 10
-11.7247
 20
113.055
 11
-12.6077
 21
111.295
  0
LINE
  8
0
 10
-12.6077
 20
111.295
 11
-13.4656
 21
109.4
  0
LINE
  8
0
 10
-13.4656
 20
109.4
 11
-14.2987
 21
107.37
  0
LINE
  8
0
 10
-14.2987
 20
107.37
 11
-16.409
 21
104.39
  0
LINE
  8
0
 10
-16.409
 20
104.39
 11
-15.7549
 21
107.656
  0
LINE
  8
0
 10
-0.215607
 20
81.4899
 11
-0.531006
 21
84.4109
  0
LINE
  8
0
 10
-0.531006
 20
84.4109
 11
-0.943451
 21
87.0837
  0
LINE
  8
0
 10
-0.943451
 20
87.0837
 11
-1.45248
 21
89.5094
  0
LINE
  8
0
 10
-1.45248
 20
89.5094
 11
-2.05765
 21
91.6879
  0
LINE
  8
0
 10
-2.05765
 20
91.6879
 11
-2.7594
 21
93.6179
  0
LINE
  8
0
 10
-2.7594
 20
93.6179
 11
-3.55774
 21
95.3011
  0
LINE
  8
0
 10
-3.55774
 20
95.3011
 11
-4.45221
 21
96.7371
  0
LINE
  8
0
 10
-4.45221
 20
96.7371
 11
-5.44418
 21
97.925
  0
LINE
  8
0
 10
-5.44418
 20
97.925
 11
-6.53275
 21
98.8652
  0
LINE
  8
0
 10
-6.53275
 20
98.8652
 11
-7.71744
 21
99.5583
  0
LINE
  8
0
 10
-7.71744
 20
99.5583
 11
-8.99002
 21
100
  0
LINE
  8
0
 10
-8.99002
 20
100
 11
-7.71744
 21
100.442
  0
LINE
  8
0
 10
-7.71744
 20
100.442
 11
-6.53275
 21
101.135
  0
LINE
  8
0
 10
-6.53275
 20
101.135
 11
-5.44418
 21
102.075
  0
LINE
  8
0
 10
-5.44418
 20
102.075
 11
-4.45267
 21
103.263
  0
LINE
  8
0
 10
-4.45267
 20
103.263
 11
-3.55774
 21
104.698
  0
LINE
  8
0
 10
-3.55774
 20
104.698
 11
-2.7594
 21
106.382
  0
LINE
  8
0
 10
-2.7594
 20
106.382
 11
-2.05765
 21
108.312
  0
LINE
  8
0
 10
-2.05765
 20
108.312
 11
-1.45248
 21
110.49
  0
LINE
  8
0
 10
-1.45248
 20
110.49
 11
-0.943909
 21
112.916
  0
LINE
  8
0
 10
-0.943909
 20
112.916
 11
-0.531464
 21
115.589
  0
LINE
  8
0
 10
-0.531464
 20
115.589
 11
-0.215607
 21
118.51
  0
LINE
  8
0
 10
-0.215607
 20
118.51
 11
0
 21
121.632
  0
LINE
  8
0
 10
0
 20
121.632
 11
0.215607
 21
118.51
  0
LINE
  8
0
 10
0.215607
 20
118.51
 11
0.531006
 21
115.589
  0
LINE
  8
0
 10
0.531006
 20
115.589
 11
0.943451
 21
112.916
  0
LINE
  8
0
 10
0.943451
 20
112.916
 11
1.45248
 21
110.491
  0
LINE
  8
0
 10
1.45248
 20
110.491
 11
2.05765
 21
108.312
  0
LINE
  8
0
 10
2.05765
 20
108.312
 11
2.7594
 21
106.382
  0
LINE
  8
0
 10
2.7594
 20
106.382
 11
3.55774
 21
104.699
  0
LINE
  8
0
 10
3.55774
 20
104.699
 11
4.45221
 21
103.263
  0
LINE
  8
0
 10
4.45221
 20
103.263
 11
5.44418
 21
102.075
  0
LINE
  8
0
 10
5.44418
 20
102.075
 11
6.53275
 21
101.135
  0
LINE
  8
0
 10
6.53275
 20
101.135
 11
7.71744
 21
100.442
  0
LINE
  8
0
 10
7.71744
 20
100.442
 11
8.99002
 21
100
  0
LINE
  8
0
 10
8.99002
 20
100
 11
7.71744
 21
99.5583
  0
LINE
  8
0
 10
7.71744
 20
99.5583
 11
6.53275
 21
98.8652
  0
LINE
  8
0
 10
6.53275
 20
98.8652
 11
5.44418
 21
97.925
  0
LINE
  8
0
 10
5.44418
 20
97.925
 11
4.45267
 21
96.7371
  0
LINE
  8
0
 10
4.45267
 20
96.7371
 11
3.55774
 21
95.3015
  0
LINE
  8
0
 10
3.55774
 20
95.3015
 11
2.7594
 21
93.6183
  0
LINE
  8
0
 10
2.7594
 20
93.6183
 11
2.05765
 21
91.6879
  0
LINE
  8
0
 10
2.05765
 20
91.6879
 11
1.45248
 21
89.5099
  0
LINE
  8
0
 10
1.45248
 20
89.5099
 11
0.943909
 21
87.0842
  0
LINE
  8
0
 10
0.943909
 20
87.0842
 11
0.531464
 21
84.4109
  0
LINE
  8
0
 10
0.531464
 20
84.4109
 11
0.215607
 21
81.4903
  0
LINE
  8
0
 10
0.215607
 20
81.4903
 11
0
 21
78.3684
  0
LINE
  8
0
 10
0
 20
78.3684
 11
-0.215607
 21
81.4899
  0
LINE
  8
0
 10
12.1687
 20
101.089
 11
10.7108
 21
101.517
  0
LINE
  8
0
 10
10.7108
 20
101.517
 11
9.34067
 21
102.262
  0
LINE
  8
0
 10
9.34067
 20
102.262
 11
8.05939
 21
103.323
  0
LINE
  8
0
 10
8.05939
 20
103.323
 11
6.86829
 21
104.701
  0
LINE
  8
0
 10
6.86829
 20
104.701
 11
5.76508
 21
106.396
  0
LINE
  8
0
 10
5.76508
 20
106.396
 11
4.75204
 21
108.408
  0
LINE
  8
0
 10
4.75204
 20
108.408
 11
3.82736
 21
110.737
  0
LINE
  8
0
 10
3.82736
 20
110.737
 11
2.99149
 21
113.382
  0
LINE
  8
0
 10
2.99149
 20
113.382
 11
2.24487
 21
116.344
  0
LINE
  8
0
 10
2.24487
 20
116.344
 11
1.59073
 21
119.609
  0
LINE
  8
0
 10
1.59073
 20
119.609
 11
3.70148
 21
116.629
  0
LINE
  8
0
 10
3.70148
 20
116.629
 11
4.53415
 21
114.6
  0
LINE
  8
0
 10
4.53415
 20
114.6
 11
5.392
 21
112.705
  0
LINE
  8
0
 10
5.392
 20
112.705
 11
6.27502
 21
110.945
  0
LINE
  8
0
 10
6.27502
 20
110.945
 11
7.18323
 21
109.319
  0
LINE
  8
0
 10
7.18323
 20
109.319
 11
8.11661
 21
107.829
  0
LINE
  8
0
 10
8.11661
 20
107.829
 11
9.07516
 21
106.474
  0
LINE
  8
0
 10
9.07516
 20
106.474
 11
10.0589
 21
105.253
  0
LINE
  8
0
 10
10.0589
 20
105.253
 11
11.0674
 21
104.168
  0
LINE
  8
0
 10
11.0674
 20
104.168
 11
12.1019
 21
103.217
  0
LINE
  8
0
 10
12.1019
 20
103.217
 11
13.1602
 21
102.402
  0
LINE
  8
0
 10
13.1602
 20
102.402
 11
14.2447
 21
101.722
  0
LINE
  8
0
 10
14.2447
 20
101.722
 11
15.3442
 21
101.181
  0
LINE
  8
0
 10
15.3442
 20
101.181
 11
13.7169
 21
100.977
  0
LINE
  8
0
 10
13.7169
 20
100.977
 11
12.1687
 21
101.089
  0
LINE
  8
0
 10
-15.3442
 20
101.181
 11
-14.2447
 21
101.722
  0
LINE
  8
0
 10
-14.2447
 20
101.722
 11
-13.1607
 21
102.401
  0
LINE
  8
0
 10
-13.1607
 20
102.401
 11
-12.1019
 21
103.217
  0
LINE
  8
0
 10
-12.1019
 20
103.217
 11
-11.0678
 21
104.167
  0
LINE
  8
0
 10
-11.0678
 20
104.167
 11
-10.0589
 21
105.253
  0
LINE
  8
0
 10
-10.0589
 20
105.253
 11
-9.07562
 21
106.473
  0
LINE
  8
0
 10
-9.07562
 20
106.473
 11
-8.11707
 21
107.829
  0
LINE
  8
0
 10
-8.11707
 20
107.829
 11
-7.18323
 21
109.319
  0
LINE
  8
0
 10
-7.18323
 20
109.319
 11
-6.27502
 21
110.945
  0
LINE
  8
0
 10
-6.27502
 20
110.945
 11
-5.392
 21
112.705
  0
LINE
  8
0
 10
-5.392
 20
112.705
 11
-4.53415
 21
114.6
  0
LINE
  8
0
 10
-4.53415
 20
114.6
 11
-3.70148
 21
116.629
  0
LINE
  8
0
 10
-3.70148
 20
116.629
 11
-1.59073
 21
119.609
  0
LINE
  8
0
 10
-1.59073
 20
119.609
 11
-2.24487
 21
116.344
  0
LINE
  8
0
 10
-2.24487
 20
116.344
 11
-2.99149
 21
113.381
  0
LINE
  8
0
 10
-2.99149
 20
113.381
 11
-3.82736
 21
110.736
  0
LINE
  8
0
 10
-3.82736
 20
110.736
 11
-4.75204
 21
108.408
  0
LINE
  8
0
 10
-4.75204
 20
108.408
 11
-5.76553
 21
106.395
  0
LINE
  8
0
 10
-5.76553
 20
106.395
 11
-6.86829
 21
104.701
  0
LINE
  8
0
 10
-6.86829
 20
104.701
 11
-8.05984
 21
103.322
  0
LINE
  8
0
 10
-8.05984
 20
103.322
 11
-9.34067
 21
102.262
  0
LINE
  8
0
 10
-9.34067
 20
102.262
 11
-10.7108
 21
101.517
  0
LINE
  8
0
 10
-10.7108
 20
101.517
 11
-12.1687
 21
101.089
  0
LINE
  8
0
 10
-12.1687
 20
101.089
 11
-13.7169
 21
100.977
  0
LINE
  8
0
 10
-13.7169
 20
100.977
 11
-15.3442
 21
101.181
  0
LINE
  8
0
 10
-21.7012
 20
107.37
 11
-22.5339
 21
109.399
  0
LINE
  8
0
 10
-22.5339
 20
109.399
 11
-23.3917
 21
111.294
  0
LINE
  8
0
 10
-23.3917
 20
111.294
 11
-24.2747
 21
113.055
  0
LINE
  8
0
 10
-24.2747
 20
113.055
 11
-25.1435
 21
114.61
  0
LINE
  8
0
 10
-25.1435
 20
114.61
 11
-24.0356
 21
118.019
  0
LINE
  8
0
 10
-24.0356
 20
118.019
 11
-23.7648
 21
117.603
  0
LINE
  8
0
 10
-23.7648
 20
117.603
 11
-22.7518
 21
115.591
  0
LINE
  8
0
 10
-22.7518
 20
115.591
 11
-21.8271
 21
113.263
  0
LINE
  8
0
 10
-21.8271
 20
113.263
 11
-20.9912
 21
110.618
  0
LINE
  8
0
 10
-20.9912
 20
110.618
 11
-20.2446
 21
107.656
  0
LINE
  8
0
 10
-20.2446
 20
107.656
 11
-19.5905
 21
104.39
  0
LINE
  8
0
 10
-19.5905
 20
104.39
 11
-21.7012
 21
107.37
  0
LINE
  8
0
 10
20.2446
 20
107.656
 11
20.9912
 21
110.618
  0
LINE
  8
0
 10
20.9912
 20
110.618
 11
21.8271
 21
113.263
  0
LINE
  8
0
 10
21.8271
 20
113.263
 11
22.7518
 21
115.592
  0
LINE
  8
0
 10
22.7518
 20
115.592
 11
23.7648
 21
117.603
  0
LINE
  8
0
 10
23.7648
 20
117.603
 11
24.0356
 21
118.019
  0
LINE
  8
0
 10
24.0356
 20
118.019
 11
25.1435
 21
114.61
  0
LINE
  8
0
 10
25.1435
 20
114.61
 11
24.2747
 21
113.055
  0
LINE
  8
0
 10
24.2747
 20
113.055
 11
23.3917
 21
111.295
  0
LINE
  8
0
 10
23.3917
 20
111.295
 11
22.5339
 21
109.4
  0
LINE
  8
0
 10
22.5339
 20
109.4
 11
21.7007
 21
107.37
  0
LINE
  8
0
 10
21.7007
 20
107.37
 11
19.5905
 21
104.39
  0
LINE
  8
0
 10
19.5905
 20
104.39
 11
20.2446
 21
107.656
  0
LINE
  8
0
 10
20.6557
 20
101.181
 11
21.7552
 21
101.722
  0
LINE
  8
0
 10
21.7552
 20
101.722
 11
22.8392
 21
102.401
  0
LINE
  8
0
 10
22.8392
 20
102.401
 11
23.898
 21
103.217
  0
LINE
  8
0
 10
23.898
 20
103.217
 11
24.9321
 21
104.167
  0
LINE
  8
0
 10
24.9321
 20
104.167
 11
25.941
 21
105.253
  0
LINE
  8
0
 10
25.941
 20
105.253
 11
26.9243
 21
106.473
  0
LINE
  8
0
 10
26.9243
 20
106.473
 11
27.5155
 21
107.309
  0
LINE
  8
0
 10
27.5155
 20
107.309
 11
28.573
 21
104.055
  0
LINE
  8
0
 10
28.573
 20
104.055
 11
27.9401
 21
103.322
  0
LINE
  8
0
 10
27.9401
 20
103.322
 11
26.6592
 21
102.262
  0
LINE
  8
0
 10
26.6592
 20
102.262
 11
25.2892
 21
101.517
  0
LINE
  8
0
 10
25.2892
 20
101.517
 11
23.8312
 21
101.089
  0
LINE
  8
0
 10
23.8312
 20
101.089
 11
22.283
 21
100.977
  0
LINE
  8
0
 10
22.283
 20
100.977
 11
20.6557
 21
101.181
  0
LINE
  8
0
 10
-23.8312
 20
101.089
 11
-25.2892
 21
101.517
  0
LINE
  8
0
 10
-25.2892
 20
101.517
 11
-26.6592
 21
102.262
  0
LINE
  8
0
 10
-26.6592
 20
102.262
 11
-27.9405
 21
103.323
  0
LINE
  8
0
 10
-27.9405
 20
103.323
 11
-28.573
 21
104.055
  0
LINE
  8
0
 10
-28.573
 20
104.055
 11
-27.5156
 21
107.309
  0
LINE
  8
0
 10
-27.5156
 20
107.309
 11
-26.9247
 21
106.474
  0
LINE
  8
0
 10
-26.9247
 20
106.474
 11
-25.941
 21
105.253
  0
LINE
  8
0
 10
-25.941
 20
105.253
 11
-24.9326
 21
104.168
  0
LINE
  8
0
 10
-24.9326
 20
104.168
 11
-23.898
 21
103.217
  0
LINE
  8
0
 10
-23.898
 20
103.217
 11
-22.8397
 21
102.402
  0
LINE
  8
0
 10
-22.8397
 20
102.402
 11
-21.7552
 21
101.722
  0
LINE
  8
0
 10
-21.7552
 20
101.722
 11
-20.6557
 21
101.181
  0
LINE
  8
0
 10
-20.6557
 20
101.181
 11
-22.283
 21
100.977
  0
LINE
  8
0
 10
-22.283
 20
100.977
 11
-23.8312
 21
101.089
  0
LINE
  8
0
 10
30.5557
 20
97.925
 11
29.4672
 21
98.8652
  0
LINE
  8
0
 10
29.4672
 20
98.8652
 11
28.2825
 21
99.5583
  0
LINE
  8
0
 10
28.2825
 20
99.5583
 11
27.0099
 21
100
  0
LINE
  8
0
 10
27.0099
 20
100
 11
28.2825
 21
100.442
  0
LINE
  8
0
 10
28.2825
 20
100.442
 11
29.4672
 21
101.135
  0
LINE
  8
0
 10
29.4672
 20
101.135
 11
29.5098
 21
101.172
  0
LINE
  8
0
 10
29.5098
 20
101.172
 11
30.5704
 21
97.9073
  0
LINE
  8
0
 10
30.5704
 20
97.9073
 11
30.5557
 21
97.925
  0
LINE
  8
0
 10
-29.5098
 20
101.172
 11
-29.4672
 21
101.135
  0
LINE
  8
0
 10
-29.4672
 20
101.135
 11
-28.2825
 21
100.442
  0
LINE
  8
0
 10
-28.2825
 20
100.442
 11
-27.0099
 21
100
  0
LINE
  8
0
 10
-27.0099
 20
100
 11
-28.2825
 21
99.5583
  0
LINE
  8
0
 10
-28.2825
 20
99.5583
 11
-29.4672
 21
98.8652
  0
LINE
  8
0
 10
-29.4672
 20
98.8652
 11
-30.5557
 21
97.925
  0
LINE
  8
0
 10
-30.5557
 20
97.925
 11
-30.5704
 21
97.9073
  0
LINE
  8
0
 10
-30.5704
 20
97.9073
 11
-29.5098
 21
101.172
  0
LINE
  8
0
 10
32.2984
 20
83.3708
 11
31.4658
 21
85.3996
  0
LINE
  8
0
 10
31.4658
 20
85.3996
 11
30.6079
 21
87.2948
  0
LINE
  8
0
 10
30.6079
 20
87.2948
 11
29.7249
 21
89.0549
  0
LINE
  8
0
 10
29.7249
 20
89.0549
 11
28.8167
 21
90.6808
  0
LINE
  8
0
 10
28.8167
 20
90.6808
 11
27.8833
 21
92.1709
  0
LINE
  8
0
 10
27.8833
 20
92.1709
 11
26.9247
 21
93.5263
  0
LINE
  8
0
 10
26.9247
 20
93.5263
 11
25.941
 21
94.7472
  0
LINE
  8
0
 10
25.941
 20
94.7472
 11
24.9326
 21
95.8321
  0
LINE
  8
0
 10
24.9326
 20
95.8321
 11
23.898
 21
96.7828
  0
LINE
  8
0
 10
23.898
 20
96.7828
 11
22.8397
 21
97.5981
  0
LINE
  8
0
 10
22.8397
 20
97.5981
 11
21.7552
 21
98.2784
  0
LINE
  8
0
 10
21.7552
 20
98.2784
 11
20.6557
 21
98.819
  0
LINE
  8
0
 10
20.6557
 20
98.819
 11
22.283
 21
99.0231
  0
LINE
  8
0
 10
22.283
 20
99.0231
 11
23.8312
 21
98.9114
  0
LINE
  8
0
 10
23.8312
 20
98.9114
 11
25.2892
 21
98.4834
  0
LINE
  8
0
 10
25.2892
 20
98.4834
 11
26.6592
 21
97.7382
  0
LINE
  8
0
 10
26.6592
 20
97.7382
 11
27.9405
 21
96.6771
  0
LINE
  8
0
 10
27.9405
 20
96.6771
 11
29.1316
 21
95.2988
  0
LINE
  8
0
 10
29.1316
 20
95.2988
 11
30.2348
 21
93.6037
  0
LINE
  8
0
 10
30.2348
 20
93.6037
 11
31.2479
 21
91.5918
  0
LINE
  8
0
 10
31.2479
 20
91.5918
 11
32.1725
 21
89.2632
  0
LINE
  8
0
 10
32.1725
 20
89.2632
 11
33.0084
 21
86.6182
  0
LINE
  8
0
 10
33.0084
 20
86.6182
 11
33.755
 21
83.656
  0
LINE
  8
0
 10
33.755
 20
83.656
 11
34.4092
 21
80.3908
  0
LINE
  8
0
 10
34.4092
 20
80.3908
 11
32.2984
 21
83.3708
  0
LINE
  8
0
 10
2.24487
 20
83.6565
 11
2.99149
 21
86.6187
  0
LINE
  8
0
 10
2.99149
 20
86.6187
 11
3.82736
 21
89.2636
  0
LINE
  8
0
 10
3.82736
 20
89.2636
 11
4.75204
 21
91.5923
  0
LINE
  8
0
 10
4.75204
 20
91.5923
 11
5.76508
 21
93.6037
  0
LINE
  8
0
 10
5.76508
 20
93.6037
 11
6.86829
 21
95.2988
  0
LINE
  8
0
 10
6.86829
 20
95.2988
 11
8.05939
 21
96.6771
  0
LINE
  8
0
 10
8.05939
 20
96.6771
 11
9.34067
 21
97.7382
  0
LINE
  8
0
 10
9.34067
 20
97.7382
 11
10.7108
 21
98.4834
  0
LINE
  8
0
 10
10.7108
 20
98.4834
 11
12.1687
 21
98.9114
  0
LINE
  8
0
 10
12.1687
 20
98.9114
 11
13.7169
 21
99.0231
  0
LINE
  8
0
 10
13.7169
 20
99.0231
 11
15.3442
 21
98.819
  0
LINE
  8
0
 10
15.3442
 20
98.819
 11
14.2447
 21
98.2784
  0
LINE
  8
0
 10
14.2447
 20
98.2784
 11
13.1607
 21
97.5986
  0
LINE
  8
0
 10
13.1607
 20
97.5986
 11
12.1019
 21
96.7828
  0
LINE
  8
0
 10
12.1019
 20
96.7828
 11
11.0678
 21
95.8325
  0
LINE
  8
0
 10
11.0678
 20
95.8325
 11
10.0589
 21
94.7472
  0
LINE
  8
0
 10
10.0589
 20
94.7472
 11
9.07562
 21
93.5268
  0
LINE
  8
0
 10
9.07562
 20
93.5268
 11
8.11707
 21
92.1713
  0
LINE
  8
0
 10
8.11707
 20
92.1713
 11
7.18323
 21
90.6808
  0
LINE
  8
0
 10
7.18323
 20
90.6808
 11
6.27502
 21
89.0553
  0
LINE
  8
0
 10
6.27502
 20
89.0553
 11
5.392
 21
87.2952
  0
LINE
  8
0
 10
5.392
 20
87.2952
 11
4.53415
 21
85.4001
  0
LINE
  8
0
 10
4.53415
 20
85.4001
 11
3.70102
 21
83.3699
  0
LINE
  8
0
 10
3.70102
 20
83.3699
 11
1.59073
 21
80.3908
  0
LINE
  8
0
 10
1.59073
 20
80.3908
 11
2.24487
 21
83.6565
  0
LINE
  8
0
 10
-3.70148
 20
83.3708
 11
-4.53415
 21
85.3996
  0
LINE
  8
0
 10
-4.53415
 20
85.3996
 11
-5.392
 21
87.2948
  0
LINE
  8
0
 10
-5.392
 20
87.2948
 11
-6.27502
 21
89.0549
  0
LINE
  8
0
 10
-6.27502
 20
89.0549
 11
-7.18323
 21
90.6808
  0
LINE
  8
0
 10
-7.18323
 20
90.6808
 11
-8.11661
 21
92.1709
  0
LINE
  8
0
 10
-8.11661
 20
92.1709
 11
-9.07516
 21
93.5263
  0
LINE
  8
0
 10
-9.07516
 20
93.5263
 11
-10.0589
 21
94.7472
  0
LINE
  8
0
 10
-10.0589
 20
94.7472
 11
-11.0674
 21
95.8321
  0
LINE
  8
0
 10
-11.0674
 20
95.8321
 11
-12.1019
 21
96.7828
  0
LINE
  8
0
 10
-12.1019
 20
96.7828
 11
-13.1602
 21
97.5981
  0
LINE
  8
0
 10
-13.1602
 20
97.5981
 11
-14.2447
 21
98.2784
  0
LINE
  8
0
 10
-14.2447
 20
98.2784
 11
-15.3442
 21
98.819
  0
LINE
  8
0
 10
-15.3442
 20
98.819
 11
-13.7169
 21
99.0231
  0
LINE
  8
0
 10
-13.7169
 20
99.0231
 11
-12.1687
 21
98.9114
  0
LINE
  8
0
 10
-12.1687
 20
98.9114
 11
-10.7108
 21
98.4834
  0
LINE
  8
0
 10
-10.7108
 20
98.4834
 11
-9.34067
 21
97.7382
  0
LINE
  8
0
 10
-9.34067
 20
97.7382
 11
-8.05939
 21
96.6771
  0
LINE
  8
0
 10
-8.05939
 20
96.6771
 11
-6.86829
 21
95.2988
  0
LINE
  8
0
 10
-6.86829
 20
95.2988
 11
-5.76508
 21
93.6037
  0
LINE
  8
0
 10
-5.76508
 20
93.6037
 11
-4.75204
 21
91.5918
  0
LINE
  8
0
 10
-4.75204
 20
91.5918
 11
-3.82736
 21
89.2632
  0
LINE
  8
0
 10
-3.82736
 20
89.2632
 11
-2.99149
 21
86.6182
  0
LINE
  8
0
 10
-2.99149
 20
86.6182
 11
-2.24487
 21
83.656
  0
LINE
  8
0
 10
-2.24487
 20
83.656
 11
-1.59073
 21
80.3908
  0
LINE
  8
0
 10
-1.59073
 20
80.3908
 11
-3.70148
 21
83.3708
  0
LINE
  8
0
 10
-33.755
 20
83.6565
 11
-33.0084
 21
86.6187
  0
LINE
  8
0
 10
-33.0084
 20
86.6187
 11
-32.1725
 21
89.2636
  0
LINE
  8
0
 10
-32.1725
 20
89.2636
 11
-31.2479
 21
91.5923
  0
LINE
  8
0
 10
-31.2479
 20
91.5923
 11
-30.2348
 21
93.6037
  0
LINE
  8
0
 10
-30.2348
 20
93.6037
 11
-29.1316
 21
95.2988
  0
LINE
  8
0
 10
-29.1316
 20
95.2988
 11
-27.9405
 21
96.6771
  0
LINE
  8
0
 10
-27.9405
 20
96.6771
 11
-26.6592
 21
97.7382
  0
LINE
  8
0
 10
-26.6592
 20
97.7382
 11
-25.2892
 21
98.4834
  0
LINE
  8
0
 10
-25.2892
 20
98.4834
 11
-23.8312
 21
98.9114
  0
LINE
  8
0
 10
-23.8312
 20
98.9114
 11
-22.283
 21
99.0231
  0
LINE
  8
0
 10
-22.283
 20
99.0231
 11
-20.6557
 21
98.819
  0
LINE
  8
0
 10
-20.6557
 20
98.819
 11
-21.7552
 21
98.2784
  0
LINE
  8
0
 10
-21.7552
 20
98.2784
 11
-22.8392
 21
97.5986
  0
LINE
  8
0
 10
-22.8392
 20
97.5986
 11
-23.898
 21
96.7828
  0
LINE
  8
0
 10
-23.898
 20
96.7828
 11
-24.9321
 21
95.8325
  0
LINE
  8
0
 10
-24.9321
 20
95.8325
 11
-25.941
 21
94.7472
  0
LINE
  8
0
 10
-25.941
 20
94.7472
 11
-26.9243
 21
93.5268
  0
LINE
  8
0
 10
-26.9243
 20
93.5268
 11
-27.8828
 21
92.1713
  0
LINE
  8
0
 10
-27.8828
 20
92.1713
 11
-28.8167
 21
90.6808
  0
LINE
  8
0
 10
-28.8167
 20
90.6808
 11
-29.7249
 21
89.0553
  0
LINE
  8
0
 10
-29.7249
 20
89.0553
 11
-30.6079
 21
87.2952
  0
LINE
  8
0
 10
-30.6079
 20
87.2952
 11
-31.4658
 21
85.4001
  0
LINE
  8
0
 10
-31.4658
 20
85.4001
 11
-32.2989
 21
83.3699
  0
LINE
  8
0
 10
-32.2989
 20
83.3699
 11
-34.4092
 21
80.3908
  0
LINE
  8
0
 10
-34.4092
 20
80.3908
 11
-33.755
 21
83.6565
  0
LINE
  8
0
 10
-18.2153
 20
57.4902
 11
-18.5307
 21
60.4112
  0
LINE
  8
0
 10
-18.5307
 20
60.4112
 11
-18.9432
 21
63.0841
  0
LINE
  8
0
 10
-18.9432
 20
63.0841
 11
-19.4522
 21
65.5098
  0
LINE
  8
0
 10
-19.4522
 20
65.5098
 11
-20.0574
 21
67.6883
  0
LINE
  8
0
 10
-20.0574
 20
67.6883
 11
-20.7591
 21
69.6182
  0
LINE
  8
0
 10
-20.7591
 20
69.6182
 11
-21.5575
 21
71.3014
  0
LINE
  8
0
 10
-21.5575
 20
71.3014
 11
-22.4519
 21
72.7374
  0
LINE
  8
0
 10
-22.4519
 20
72.7374
 11
-23.4439
 21
73.9253
  0
LINE
  8
0
 10
-23.4439
 20
73.9253
 11
-24.5325
 21
74.8656
  0
LINE
  8
0
 10
-24.5325
 20
74.8656
 11
-25.7172
 21
75.5586
  0
LINE
  8
0
 10
-25.7172
 20
75.5586
 11
-26.9897
 21
76.0004
  0
LINE
  8
0
 10
-26.9897
 20
76.0004
 11
-25.7172
 21
76.4421
  0
LINE
  8
0
 10
-25.7172
 20
76.4421
 11
-24.5325
 21
77.1352
  0
LINE
  8
0
 10
-24.5325
 20
77.1352
 11
-23.4439
 21
78.0754
  0
LINE
  8
0
 10
-23.4439
 20
78.0754
 11
-22.4524
 21
79.2633
  0
LINE
  8
0
 10
-22.4524
 20
79.2633
 11
-21.5575
 21
80.6989
  0
LINE
  8
0
 10
-21.5575
 20
80.6989
 11
-20.7591
 21
82.382
  0
LINE
  8
0
 10
-20.7591
 20
82.382
 11
-20.0574
 21
84.3124
  0
LINE
  8
0
 10
-20.0574
 20
84.3124
 11
-19.4522
 21
86.4905
  0
LINE
  8
0
 10
-19.4522
 20
86.4905
 11
-18.9436
 21
88.9162
  0
LINE
  8
0
 10
-18.9436
 20
88.9162
 11
-18.5312
 21
91.5895
  0
LINE
  8
0
 10
-18.5312
 20
91.5895
 11
-18.2153
 21
94.51
  0
LINE
  8
0
 10
-18.2153
 20
94.51
 11
-17.9997
 21
97.632
  0
LINE
  8
0
 10
-17.9997
 20
97.632
 11
-17.7841
 21
94.5105
  0
LINE
  8
0
 10
-17.7841
 20
94.5105
 11
-17.4687
 21
91.5895
  0
LINE
  8
0
 10
-17.4687
 20
91.5895
 11
-17.0563
 21
88.9166
  0
LINE
  8
0
 10
-17.0563
 20
88.9166
 11
-16.5472
 21
86.4909
  0
LINE
  8
0
 10
-16.5472
 20
86.4909
 11
-15.9421
 21
84.3124
  0
LINE
  8
0
 10
-15.9421
 20
84.3124
 11
-15.2403
 21
82.3825
  0
LINE
  8
0
 10
-15.2403
 20
82.3825
 11
-14.442
 21
80.6993
  0
LINE
  8
0
 10
-14.442
 20
80.6993
 11
-13.5475
 21
79.2633
  0
LINE
  8
0
 10
-13.5475
 20
79.2633
 11
-12.5555
 21
78.0754
  0
LINE
  8
0
 10
-12.5555
 20
78.0754
 11
-11.467
 21
77.1352
  0
LINE
  8
0
 10
-11.467
 20
77.1352
 11
-10.2823
 21
76.4421
  0
LINE
  8
0
 10
-10.2823
 20
76.4421
 11
-9.0097
 21
76.0004
  0
LINE
  8
0
 10
-9.0097
 20
76.0004
 11
-10.2823
 21
75.5586
  0
LINE
  8
0
 10
-10.2823
 20
75.5586
 11
-11.467
 21
74.8656
  0
LINE
  8
0
 10
-11.467
 20
74.8656
 11
-12.5555
 21
73.9253
  0
LINE
  8
0
 10
-12.5555
 20
73.9253
 11
-13.5471
 21
72.7374
  0
LINE
  8
0
 10
-13.5471
 20
72.7374
 11
-14.442
 21
71.3019
  0
LINE
  8
0
 10
-14.442
 20
71.3019
 11
-15.2403
 21
69.6187
  0
LINE
  8
0
 10
-15.2403
 20
69.6187
 11
-15.9421
 21
67.6883
  0
LINE
  8
0
 10
-15.9421
 20
67.6883
 11
-16.5472
 21
65.5103
  0
LINE
  8
0
 10
-16.5472
 20
65.5103
 11
-17.0558
 21
63.0846
  0
LINE
  8
0
 10
-17.0558
 20
63.0846
 11
-17.4683
 21
60.4112
  0
LINE
  8
0
 10
-17.4683
 20
60.4112
 11
-17.7841
 21
57.4907
  0
LINE
  8
0
 10
-17.7841
 20
57.4907
 11
-17.9997
 21
54.3687
  0
LINE
  8
0
 10
-17.9997
 20
54.3687
 11
-18.2153
 21
57.4902
  0
LINE
  8
0
 10
17.7841
 20
57.4902
 11
17.4687
 21
60.4112
  0
LINE
  8
0
 10
17.4687
 20
60.4112
 11
17.0563
 21
63.0841
  0
LINE
  8
0
 10
17.0563
 20
63.0841
 11
16.5472
 21
65.5098
  0
LINE
  8
0
 10
16.5472
 20
65.5098
 11
15.9421
 21
67.6883
  0
LINE
  8
0
 10
15.9421
 20
67.6883
 11
15.2403
 21
69.6182
  0
LINE
  8
0
 10
15.2403
 20
69.6182
 11
14.442
 21
71.3014
  0
LINE
  8
0
 10
14.442
 20
71.3014
 11
13.5475
 21
72.7374
  0
LINE
  8
0
 10
13.5475
 20
72.7374
 11
12.5555
 21
73.9253
  0
LINE
  8
0
 10
12.5555
 20
73.9253
 11
11.467
 21
74.8656
  0
LINE
  8
0
 10
11.467
 20
74.8656
 11
10.2823
 21
75.5586
  0
LINE
  8
0
 10
10.2823
 20
75.5586
 11
9.0097
 21
76.0004
  0
LINE
  8
0
 10
9.0097
 20
76.0004
 11
10.2823
 21
76.4421
  0
LINE
  8
0
 10
10.2823
 20
76.4421
 11
11.467
 21
77.1352
  0
LINE
  8
0
 10
11.467
 20
77.1352
 11
12.5555
 21
78.0754
  0
LINE
  8
0
 10
12.5555
 20
78.0754
 11
13.5471
 21
79.2633
  0
LINE
  8
0
 10
13.5471
 20
79.2633
 11
14.442
 21
80.6989
  0
LINE
  8
0
 10
14.442
 20
80.6989
 11
15.2403
 21
82.382
  0
LINE
  8
0
 10
15.2403
 20
82.382
 11
15.9421
 21
84.3124
  0
LINE
  8
0
 10
15.9421
 20
84.3124
 11
16.5472
 21
86.4905
  0
LINE
  8
0
 10
16.5472
 20
86.4905
 11
17.0558
 21
88.9162
  0
LINE
  8
0
 10
17.0558
 20
88.9162
 11
17.4683
 21
91.5895
  0
LINE
  8
0
 10
17.4683
 20
91.5895
 11
17.7841
 21
94.51
  0
LINE
  8
0
 10
17.7841
 20
94.51
 11
17.9997
 21
97.632
  0
LINE
  8
0
 10
17.9997
 20
97.632
 11
18.2153
 21
94.5105
  0
LINE
  8
0
 10
18.2153
 20
94.5105
 11
18.5307
 21
91.5895
  0
LINE
  8
0
 10
18.5307
 20
91.5895
 11
18.9432
 21
88.9166
  0
LINE
  8
0
 10
18.9432
 20
88.9166
 11
19.4522
 21
86.4909
  0
LINE
  8
0
 10
19.4522
 20
86.4909
 11
20.0574
 21
84.3124
  0
LINE
  8
0
 10
20.0574
 20
84.3124
 11
20.7591
 21
82.3825
  0
LINE
  8
0
 10
20.7591
 20
82.3825
 11
21.5575
 21
80.6993
  0
LINE
  8
0
 10
21.5575
 20
80.6993
 11
22.4519
 21
79.2633
  0
LINE
  8
0
 10
22.4519
 20
79.2633
 11
23.4439
 21
78.0754
  0
LINE
  8
0
 10
23.4439
 20
78.0754
 11
24.5325
 21
77.1352
  0
LINE
  8
0
 10
24.5325
 20
77.1352
 11
25.7172
 21
76.4421
  0
LINE
  8
0
 10
25.7172
 20
76.4421
 11
26.9897
 21
76.0004
  0
LINE
  8
0
 10
26.9897
 20
76.0004
 11
25.7172
 21
75.5586
  0
LINE
  8
0
 10
25.7172
 20
75.5586
 11
24.5325
 21
74.8656
  0
LINE
  8
0
 10
24.5325
 20
74.8656
 11
23.4439
 21
73.9253
  0
LINE
  8
0
 10
23.4439
 20
73.9253
 11
22.4524
 21
72.7374
  0
LINE
  8
0
 10
22.4524
 20
72.7374
 11
21.5575
 21
71.3019
  0
LINE
  8
0
 10
21.5575
 20
71.3019
 11
20.7591
 21
69.6187
  0
LINE
  8
0
 10
20.7591
 20
69.6187
 11
20.0574
 21
67.6883
  0
LINE
  8
0
 10
20.0574
 20
67.6883
 11
19.4522
 21
65.5103
  0
LINE
  8
0
 10
19.4522
 20
65.5103
 11
18.9436
 21
63.0846
  0
LINE
  8
0
 10
18.9436
 20
63.0846
 11
18.5312
 21
60.4112
  0
LINE
  8
0
 10
18.5312
 20
60.4112
 11
18.2153
 21
57.4907
  0
LINE
  8
0
 10
18.2153
 20
57.4907
 11
17.9997
 21
54.3687
  0
LINE
  8
0
 10
17.9997
 20
54.3687
 11
17.7841
 21
57.4902
  0
LINE
  8
0
 10
-5.83099
 20
77.0889
 11
-7.28897
 21
77.5169
  0
LINE
  8
0
 10
-7.28897
 20
77.5169
 11
-8.65906
 21
78.2622
  0
LINE
  8
0
 10
-8.65906
 20
78.2622
 11
-9.94034
 21
79.3233
  0
LINE
  8
0
 10
-9.94034
 20
79.3233
 11
-11.1314
 21
80.7016
  0
LINE
  8
0
 10
-11.1314
 20
80.7016
 11
-12.2346
 21
82.3967
  0
LINE
  8
0
 10
-12.2346
 20
82.3967
 11
-13.2477
 21
84.4086
  0
LINE
  8
0
 10
-13.2477
 20
84.4086
 11
-14.1724
 21
86.7372
  0
LINE
  8
0
 10
-14.1724
 20
86.7372
 11
-15.0082
 21
89.3822
  0
LINE
  8
0
 10
-15.0082
 20
89.3822
 11
-15.7549
 21
92.3444
  0
LINE
  8
0
 10
-15.7549
 20
92.3444
 11
-16.409
 21
95.6096
  0
LINE
  8
0
 10
-16.409
 20
95.6096
 11
-14.2982
 21
92.6295
  0
LINE
  8
0
 10
-14.2982
 20
92.6295
 11
-13.4656
 21
90.6007
  0
LINE
  8
0
 10
-13.4656
 20
90.6007
 11
-12.6077
 21
88.7056
  0
LINE
  8
0
 10
-12.6077
 20
88.7056
 11
-11.7247
 21
86.9455
  0
LINE
  8
0
 10
-11.7247
 20
86.9455
 11
-10.8165
 21
85.3195
  0
LINE
  8
0
 10
-10.8165
 20
85.3195
 11
-9.88312
 21
83.8295
  0
LINE
  8
0
 10
-9.88312
 20
83.8295
 11
-8.92456
 21
82.4741
  0
LINE
  8
0
 10
-8.92456
 20
82.4741
 11
-7.94083
 21
81.2532
  0
LINE
  8
0
 10
-7.94083
 20
81.2532
 11
-6.93237
 21
80.1683
  0
LINE
  8
0
 10
-6.93237
 20
80.1683
 11
-5.89783
 21
79.2175
  0
LINE
  8
0
 10
-5.89783
 20
79.2175
 11
-4.83948
 21
78.4023
  0
LINE
  8
0
 10
-4.83948
 20
78.4023
 11
-3.75504
 21
77.722
  0
LINE
  8
0
 10
-3.75504
 20
77.722
 11
-2.65549
 21
77.1814
  0
LINE
  8
0
 10
-2.65549
 20
77.1814
 11
-4.28284
 21
76.9772
  0
LINE
  8
0
 10
-4.28284
 20
76.9772
 11
-5.83099
 21
77.0889
  0
LINE
  8
0
 10
30.1685
 20
77.0889
 11
28.7105
 21
77.5169
  0
LINE
  8
0
 10
28.7105
 20
77.5169
 11
27.3404
 21
78.2622
  0
LINE
  8
0
 10
27.3404
 20
78.2622
 11
26.0591
 21
79.3233
  0
LINE
  8
0
 10
26.0591
 20
79.3233
 11
24.868
 21
80.7016
  0
LINE
  8
0
 10
24.868
 20
80.7016
 11
23.7648
 21
82.3967
  0
LINE
  8
0
 10
23.7648
 20
82.3967
 11
22.7518
 21
84.4086
  0
LINE
  8
0
 10
22.7518
 20
84.4086
 11
21.8271
 21
86.7372
  0
LINE
  8
0
 10
21.8271
 20
86.7372
 11
20.9912
 21
89.3822
  0
LINE
  8
0
 10
20.9912
 20
89.3822
 11
20.2446
 21
92.3444
  0
LINE
  8
0
 10
20.2446
 20
92.3444
 11
19.5905
 21
95.6096
  0
LINE
  8
0
 10
19.5905
 20
95.6096
 11
21.7012
 21
92.6295
  0
LINE
  8
0
 10
21.7012
 20
92.6295
 11
22.5339
 21
90.6007
  0
LINE
  8
0
 10
22.5339
 20
90.6007
 11
23.3917
 21
88.7056
  0
LINE
  8
0
 10
23.3917
 20
88.7056
 11
24.2747
 21
86.9455
  0
LINE
  8
0
 10
24.2747
 20
86.9455
 11
25.183
 21
85.3195
  0
LINE
  8
0
 10
25.183
 20
85.3195
 11
26.1163
 21
83.8295
  0
LINE
  8
0
 10
26.1163
 20
83.8295
 11
27.0749
 21
82.4741
  0
LINE
  8
0
 10
27.0749
 20
82.4741
 11
28.0586
 21
81.2532
  0
LINE
  8
0
 10
28.0586
 20
81.2532
 11
29.0671
 21
80.1683
  0
LINE
  8
0
 10
29.0671
 20
80.1683
 11
30.1016
 21
79.2175
  0
LINE
  8
0
 10
30.1016
 20
79.2175
 11
31.16
 21
78.4023
  0
LINE
  8
0
 10
31.16
 20
78.4023
 11
32.2444
 21
77.722
  0
LINE
  8
0
 10
32.2444
 20
77.722
 11
33.344
 21
77.1814
  0
LINE
  8
0
 10
33.344
 20
77.1814
 11
31.7166
 21
76.9772
  0
LINE
  8
0
 10
31.7166
 20
76.9772
 11
30.1685
 21
77.0889
  0
LINE
  8
0
 10
-33.344
 20
77.1814
 11
-32.2444
 21
77.722
  0
LINE
  8
0
 10
-32.2444
 20
77.722
 11
-31.1604
 21
78.4018
  0
LINE
  8
0
 10
-31.1604
 20
78.4018
 11
-30.1016
 21
79.2175
  0
LINE
  8
0
 10
-30.1016
 20
79.2175
 11
-29.0675
 21
80.1678
  0
LINE
  8
0
 10
-29.0675
 20
80.1678
 11
-28.0586
 21
81.2532
  0
LINE
  8
0
 10
-28.0586
 20
81.2532
 11
-27.0753
 21
82.4736
  0
LINE
  8
0
 10
-27.0753
 20
82.4736
 11
-26.1168
 21
83.829
  0
LINE
  8
0
 10
-26.1168
 20
83.829
 11
-25.183
 21
85.3195
  0
LINE
  8
0
 10
-25.183
 20
85.3195
 11
-24.2747
 21
86.945
  0
LINE
  8
0
 10
-24.2747
 20
86.945
 11
-23.3917
 21
88.7051
  0
LINE
  8
0
 10
-23.3917
 20
88.7051
 11
-22.5339
 21
90.6003
  0
LINE
  8
0
 10
-22.5339
 20
90.6003
 11
-21.7012
 21
92.6295
  0
LINE
  8
0
 10
-21.7012
 20
92.6295
 11
-19.5905
 21
95.6096
  0
LINE
  8
0
 10
-19.5905
 20
95.6096
 11
-20.2446
 21
92.3439
  0
LINE
  8
0
 10
-20.2446
 20
92.3439
 11
-20.9912
 21
89.3817
  0
LINE
  8
0
 10
-20.9912
 20
89.3817
 11
-21.8271
 21
86.7363
  0
LINE
  8
0
 10
-21.8271
 20
86.7363
 11
-22.7518
 21
84.4081
  0
LINE
  8
0
 10
-22.7518
 20
84.4081
 11
-23.7653
 21
82.3958
  0
LINE
  8
0
 10
-23.7653
 20
82.3958
 11
-24.868
 21
80.7016
  0
LINE
  8
0
 10
-24.868
 20
80.7016
 11
-26.0596
 21
79.3228
  0
LINE
  8
0
 10
-26.0596
 20
79.3228
 11
-27.3404
 21
78.2622
  0
LINE
  8
0
 10
-27.3404
 20
78.2622
 11
-28.7105
 21
77.5169
  0
LINE
  8
0
 10
-28.7105
 20
77.5169
 11
-30.1685
 21
77.0889
  0
LINE
  8
0
 10
-30.1685
 20
77.0889
 11
-31.7166
 21
76.9772
  0
LINE
  8
0
 10
-31.7166
 20
76.9772
 11
-33.344
 21
77.1814
  0
LINE
  8
0
 10
2.65549
 20
77.1814
 11
3.75504
 21
77.722
  0
LINE
  8
0
 10
3.75504
 20
77.722
 11
4.83902
 21
78.4018
  0
LINE
  8
0
 10
4.83902
 20
78.4018
 11
5.89783
 21
79.2175
  0
LINE
  8
0
 10
5.89783
 20
79.2175
 11
6.93192
 21
80.1678
  0
LINE
  8
0
 10
6.93192
 20
80.1678
 11
7.94083
 21
81.2532
  0
LINE
  8
0
 10
7.94083
 20
81.2532
 11
8.9241
 21
82.4736
  0
LINE
  8
0
 10
8.9241
 20
82.4736
 11
9.88266
 21
83.829
  0
LINE
  8
0
 10
9.88266
 20
83.829
 11
10.8165
 21
85.3195
  0
LINE
  8
0
 10
10.8165
 20
85.3195
 11
11.7247
 21
86.945
  0
LINE
  8
0
 10
11.7247
 20
86.945
 11
12.6077
 21
88.7051
  0
LINE
  8
0
 10
12.6077
 20
88.7051
 11
13.4656
 21
90.6003
  0
LINE
  8
0
 10
13.4656
 20
90.6003
 11
14.2982
 21
92.6295
  0
LINE
  8
0
 10
14.2982
 20
92.6295
 11
16.409
 21
95.6096
  0
LINE
  8
0
 10
16.409
 20
95.6096
 11
15.7549
 21
92.3439
  0
LINE
  8
0
 10
15.7549
 20
92.3439
 11
15.0082
 21
89.3817
  0
LINE
  8
0
 10
15.0082
 20
89.3817
 11
14.1724
 21
86.7363
  0
LINE
  8
0
 10
14.1724
 20
86.7363
 11
13.2477
 21
84.4081
  0
LINE
  8
0
 10
13.2477
 20
84.4081
 11
12.2342
 21
82.3958
  0
LINE
  8
0
 10
12.2342
 20
82.3958
 11
11.1314
 21
80.7016
  0
LINE
  8
0
 10
11.1314
 20
80.7016
 11
9.93988
 21
79.3228
  0
LINE
  8
0
 10
9.93988
 20
79.3228
 11
8.65906
 21
78.2622
  0
LINE
  8
0
 10
8.65906
 20
78.2622
 11
7.28897
 21
77.5169
  0
LINE
  8
0
 10
7.28897
 20
77.5169
 11
5.83099
 21
77.0889
  0
LINE
  8
0
 10
5.83099
 20
77.0889
 11
4.28284
 21
76.9772
  0
LINE
  8
0
 10
4.28284
 20
76.9772
 11
2.65549
 21
77.1814
  0
LINE
  8
0
 10
-36.161
 20
80.7012
 11
-35.7243
 21
82.0455
  0
LINE
  8
0
 10
-35.7243
 20
82.0455
 11
-35.7843
 21
81.4903
  0
LINE
  8
0
 10
-35.7843
 20
81.4903
 11
-35.9999
 21
78.3684
  0
LINE
  8
0
 10
-35.9999
 20
78.3684
 11
-36.161
 21
80.7012
  0
LINE
  8
0
 10
35.7843
 20
81.4899
 11
35.7243
 21
82.0453
  0
LINE
  8
0
 10
35.7243
 20
82.0453
 11
36.161
 21
80.7013
  0
LINE
  8
0
 10
36.161
 20
80.7013
 11
35.9999
 21
78.3684
  0
LINE
  8
0
 10
35.9999
 20
78.3684
 11
35.7843
 21
81.4899
  0
LINE
  8
0
 10
14.2982
 20
59.3712
 11
13.4656
 21
61.4
  0
LINE
  8
0
 10
13.4656
 20
61.4
 11
12.6077
 21
63.2951
  0
LINE
  8
0
 10
12.6077
 20
63.2951
 11
11.7247
 21
65.0552
  0
LINE
  8
0
 10
11.7247
 20
65.0552
 11
10.8165
 21
66.6812
  0
LINE
  8
0
 10
10.8165
 20
66.6812
 11
9.88312
 21
68.1712
  0
LINE
  8
0
 10
9.88312
 20
68.1712
 11
8.92456
 21
69.5267
  0
LINE
  8
0
 10
8.92456
 20
69.5267
 11
7.94083
 21
70.7475
  0
LINE
  8
0
 10
7.94083
 20
70.7475
 11
6.93237
 21
71.8324
  0
LINE
  8
0
 10
6.93237
 20
71.8324
 11
5.89783
 21
72.7832
  0
LINE
  8
0
 10
5.89783
 20
72.7832
 11
4.83948
 21
73.5985
  0
LINE
  8
0
 10
4.83948
 20
73.5985
 11
3.75504
 21
74.2787
  0
LINE
  8
0
 10
3.75504
 20
74.2787
 11
2.65549
 21
74.8193
  0
LINE
  8
0
 10
2.65549
 20
74.8193
 11
4.28284
 21
75.0235
  0
LINE
  8
0
 10
4.28284
 20
75.0235
 11
5.83099
 21
74.9118
  0
LINE
  8
0
 10
5.83099
 20
74.9118
 11
7.28897
 21
74.4838
  0
LINE
  8
0
 10
7.28897
 20
74.4838
 11
8.65906
 21
73.7386
  0
LINE
  8
0
 10
8.65906
 20
73.7386
 11
9.94034
 21
72.6775
  0
LINE
  8
0
 10
9.94034
 20
72.6775
 11
11.1314
 21
71.2991
  0
LINE
  8
0
 10
11.1314
 20
71.2991
 11
12.2346
 21
69.604
  0
LINE
  8
0
 10
12.2346
 20
69.604
 11
13.2477
 21
67.5922
  0
LINE
  8
0
 10
13.2477
 20
67.5922
 11
14.1724
 21
65.2635
  0
LINE
  8
0
 10
14.1724
 20
65.2635
 11
15.0082
 21
62.6186
  0
LINE
  8
0
 10
15.0082
 20
62.6186
 11
15.7549
 21
59.6564
  0
LINE
  8
0
 10
15.7549
 20
59.6564
 11
16.409
 21
56.3911
  0
LINE
  8
0
 10
16.409
 20
56.3911
 11
14.2982
 21
59.3712
  0
LINE
  8
0
 10
20.2446
 20
59.6568
 11
20.9912
 21
62.619
  0
LINE
  8
0
 10
20.9912
 20
62.619
 11
21.8271
 21
65.264
  0
LINE
  8
0
 10
21.8271
 20
65.264
 11
22.7518
 21
67.5926
  0
LINE
  8
0
 10
22.7518
 20
67.5926
 11
23.7648
 21
69.604
  0
LINE
  8
0
 10
23.7648
 20
69.604
 11
24.868
 21
71.2991
  0
LINE
  8
0
 10
24.868
 20
71.2991
 11
26.0591
 21
72.6775
  0
LINE
  8
0
 10
26.0591
 20
72.6775
 11
27.3404
 21
73.7386
  0
LINE
  8
0
 10
27.3404
 20
73.7386
 11
28.7105
 21
74.4838
  0
LINE
  8
0
 10
28.7105
 20
74.4838
 11
30.1685
 21
74.9118
  0
LINE
  8
0
 10
30.1685
 20
74.9118
 11
31.7166
 21
75.0235
  0
LINE
  8
0
 10
31.7166
 20
75.0235
 11
33.344
 21
74.8193
  0
LINE
  8
0
 10
33.344
 20
74.8193
 11
32.2444
 21
74.2787
  0
LINE
  8
0
 10
32.2444
 20
74.2787
 11
31.1604
 21
73.5989
  0
LINE
  8
0
 10
31.1604
 20
73.5989
 11
30.1016
 21
72.7832
  0
LINE
  8
0
 10
30.1016
 20
72.7832
 11
29.0675
 21
71.8329
  0
LINE
  8
0
 10
29.0675
 20
71.8329
 11
28.0586
 21
70.7475
  0
LINE
  8
0
 10
28.0586
 20
70.7475
 11
27.0753
 21
69.5271
  0
LINE
  8
0
 10
27.0753
 20
69.5271
 11
26.1168
 21
68.1717
  0
LINE
  8
0
 10
26.1168
 20
68.1717
 11
25.183
 21
66.6812
  0
LINE
  8
0
 10
25.183
 20
66.6812
 11
24.2747
 21
65.0557
  0
LINE
  8
0
 10
24.2747
 20
65.0557
 11
23.3917
 21
63.2956
  0
LINE
  8
0
 10
23.3917
 20
63.2956
 11
22.5339
 21
61.4005
  0
LINE
  8
0
 10
22.5339
 20
61.4005
 11
21.7007
 21
59.3703
  0
LINE
  8
0
 10
21.7007
 20
59.3703
 11
19.5905
 21
56.3911
  0
LINE
  8
0
 10
19.5905
 20
56.3911
 11
20.2446
 21
59.6568
  0
LINE
  8
0
 10
-15.7549
 20
59.6568
 11
-15.0082
 21
62.619
  0
LINE
  8
0
 10
-15.0082
 20
62.619
 11
-14.1724
 21
65.264
  0
LINE
  8
0
 10
-14.1724
 20
65.264
 11
-13.2477
 21
67.5926
  0
LINE
  8
0
 10
-13.2477
 20
67.5926
 11
-12.2346
 21
69.604
  0
LINE
  8
0
 10
-12.2346
 20
69.604
 11
-11.1314
 21
71.2991
  0
LINE
  8
0
 10
-11.1314
 20
71.2991
 11
-9.94034
 21
72.6775
  0
LINE
  8
0
 10
-9.94034
 20
72.6775
 11
-8.65906
 21
73.7386
  0
LINE
  8
0
 10
-8.65906
 20
73.7386
 11
-7.28897
 21
74.4838
  0
LINE
  8
0
 10
-7.28897
 20
74.4838
 11
-5.83099
 21
74.9118
  0
LINE
  8
0
 10
-5.83099
 20
74.9118
 11
-4.28284
 21
75.0235
  0
LINE
  8
0
 10
-4.28284
 20
75.0235
 11
-2.65549
 21
74.8193
  0
LINE
  8
0
 10
-2.65549
 20
74.8193
 11
-3.75504
 21
74.2787
  0
LINE
  8
0
 10
-3.75504
 20
74.2787
 11
-4.83902
 21
73.5989
  0
LINE
  8
0
 10
-4.83902
 20
73.5989
 11
-5.89783
 21
72.7832
  0
LINE
  8
0
 10
-5.89783
 20
72.7832
 11
-6.93192
 21
71.8329
  0
LINE
  8
0
 10
-6.93192
 20
71.8329
 11
-7.94083
 21
70.7475
  0
LINE
  8
0
 10
-7.94083
 20
70.7475
 11
-8.9241
 21
69.5271
  0
LINE
  8
0
 10
-8.9241
 20
69.5271
 11
-9.88266
 21
68.1717
  0
LINE
  8
0
 10
-9.88266
 20
68.1717
 11
-10.8165
 21
66.6812
  0
LINE
  8
0
 10
-10.8165
 20
66.6812
 11
-11.7247
 21
65.0557
  0
LINE
  8
0
 10
-11.7247
 20
65.0557
 11
-12.6077
 21
63.2956
  0
LINE
  8
0
 10
-12.6077
 20
63.2956
 11
-13.4656
 21
61.4005
  0
LINE
  8
0
 10
-13.4656
 20
61.4005
 11
-14.2987
 21
59.3703
  0
LINE
  8
0
 10
-14.2987
 20
59.3703
 11
-16.409
 21
56.3911
  0
LINE
  8
0
 10
-16.409
 20
56.3911
 11
-15.7549
 21
59.6568
  0
LINE
  8
0
 10
-21.7012
 20
59.3712
 11
-22.5339
 21
61.4
  0
LINE
  8
0
 10
-22.5339
 20
61.4
 11
-23.3917
 21
63.2951
  0
LINE
  8
0
 10
-23.3917
 20
63.2951
 11
-24.2747
 21
65.0552
  0
LINE
  8
0
 10
-24.2747
 20
65.0552
 11
-25.183
 21
66.6812
  0
LINE
  8
0
 10
-25.183
 20
66.6812
 11
-26.1163
 21
68.1712
  0
LINE
  8
0
 10
-26.1163
 20
68.1712
 11
-27.0749
 21
69.5267
  0
LINE
  8
0
 10
-27.0749
 20
69.5267
 11
-28.0586
 21
70.7475
  0
LINE
  8
0
 10
-28.0586
 20
70.7475
 11
-29.0671
 21
71.8324
  0
LINE
  8
0
 10
-29.0671
 20
71.8324
 11
-30.1016
 21
72.7832
  0
LINE
  8
0
 10
-30.1016
 20
72.7832
 11
-31.16
 21
73.5985
  0
LINE
  8
0
 10
-31.16
 20
73.5985
 11
-32.2444
 21
74.2787
  0
LINE
  8
0
 10
-32.2444
 20
74.2787
 11
-33.344
 21
74.8193
  0
LINE
  8
0
 10
-33.344
 20
74.8193
 11
-31.7166
 21
75.0235
  0
LINE
  8
0
 10
-31.7166
 20
75.0235
 11
-30.1685
 21
74.9118
  0
LINE
  8
0
 10
-30.1685
 20
74.9118
 11
-28.7105
 21
74.4838
  0
LINE
  8
0
 10
-28.7105
 20
74.4838
 11
-27.3404
 21
73.7386
  0
LINE
  8
0
 10
-27.3404
 20
73.7386
 11
-26.0591
 21
72.6775
  0
LINE
  8
0
 10
-26.0591
 20
72.6775
 11
-24.868
 21
71.2991
  0
LINE
  8
0
 10
-24.868
 20
71.2991
 11
-23.7648
 21
69.604
  0
LINE
  8
0
 10
-23.7648
 20
69.604
 11
-22.7518
 21
67.5922
  0
LINE
  8
0
 10
-22.7518
 20
67.5922
 11
-21.8271
 21
65.2635
  0
LINE
  8
0
 10
-21.8271
 20
65.2635
 11
-20.9912
 21
62.6186
  0
LINE
  8
0
 10
-20.9912
 20
62.6186
 11
-20.2446
 21
59.6564
  0
LINE
  8
0
 10
-20.2446
 20
59.6564
 11
-19.5905
 21
56.3911
  0
LINE
  8
0
 10
-19.5905
 20
56.3911
 11
-21.7012
 21
59.3712
  0
LINE
  8
0
 10
35.7843
 20
33.4901
 11
35.4689
 21
36.4111
  0
LINE
  8
0
 10
35.4689
 20
36.4111
 11
35.0565
 21
39.084
  0
LINE
  8
0
 10
35.0565
 20
39.084
 11
34.5474
 21
41.5097
  0
LINE
  8
0
 10
34.5474
 20
41.5097
 11
33.9423
 21
43.6882
  0
LINE
  8
0
 10
33.9423
 20
43.6882
 11
33.2405
 21
45.6181
  0
LINE
  8
0
 10
33.2405
 20
45.6181
 11
32.4422
 21
47.3013
  0
LINE
  8
0
 10
32.4422
 20
47.3013
 11
31.5477
 21
48.7373
  0
LINE
  8
0
 10
31.5477
 20
48.7373
 11
30.5557
 21
49.9252
  0
LINE
  8
0
 10
30.5557
 20
49.9252
 11
29.4672
 21
50.8655
  0
LINE
  8
0
 10
29.4672
 20
50.8655
 11
28.2825
 21
51.5585
  0
LINE
  8
0
 10
28.2825
 20
51.5585
 11
27.0099
 21
52.0003
  0
LINE
  8
0
 10
27.0099
 20
52.0003
 11
28.2825
 21
52.442
  0
LINE
  8
0
 10
28.2825
 20
52.442
 11
29.4672
 21
53.1351
  0
LINE
  8
0
 10
29.4672
 20
53.1351
 11
30.5557
 21
54.0753
  0
LINE
  8
0
 10
30.5557
 20
54.0753
 11
31.5472
 21
55.2632
  0
LINE
  8
0
 10
31.5472
 20
55.2632
 11
32.4422
 21
56.6988
  0
LINE
  8
0
 10
32.4422
 20
56.6988
 11
33.2405
 21
58.382
  0
LINE
  8
0
 10
33.2405
 20
58.382
 11
33.9423
 21
60.3123
  0
LINE
  8
0
 10
33.9423
 20
60.3123
 11
34.5474
 21
62.4904
  0
LINE
  8
0
 10
34.5474
 20
62.4904
 11
35.056
 21
64.9161
  0
LINE
  8
0
 10
35.056
 20
64.9161
 11
35.4684
 21
67.5894
  0
LINE
  8
0
 10
35.4684
 20
67.5894
 11
35.7843
 21
70.5099
  0
LINE
  8
0
 10
35.7843
 20
70.5099
 11
35.9999
 21
73.6319
  0
LINE
  8
0
 10
35.9999
 20
73.6319
 11
36.2155
 21
70.5104
  0
LINE
  8
0
 10
36.2155
 20
70.5104
 11
36.5309
 21
67.5894
  0
LINE
  8
0
 10
36.5309
 20
67.5894
 11
36.9434
 21
64.9165
  0
LINE
  8
0
 10
36.9434
 20
64.9165
 11
37.4524
 21
62.4908
  0
LINE
  8
0
 10
37.4524
 20
62.4908
 11
38.0576
 21
60.3123
  0
LINE
  8
0
 10
38.0576
 20
60.3123
 11
38.7593
 21
58.3824
  0
LINE
  8
0
 10
38.7593
 20
58.3824
 11
39.5576
 21
56.6992
  0
LINE
  8
0
 10
39.5576
 20
56.6992
 11
40.4521
 21
55.2632
  0
LINE
  8
0
 10
40.4521
 20
55.2632
 11
41.4441
 21
54.0753
  0
LINE
  8
0
 10
41.4441
 20
54.0753
 11
42.5327
 21
53.1351
  0
LINE
  8
0
 10
42.5327
 20
53.1351
 11
43.7173
 21
52.442
  0
LINE
  8
0
 10
43.7173
 20
52.442
 11
44.9899
 21
52.0003
  0
LINE
  8
0
 10
44.9899
 20
52.0003
 11
43.7173
 21
51.5585
  0
LINE
  8
0
 10
43.7173
 20
51.5585
 11
42.5327
 21
50.8655
  0
LINE
  8
0
 10
42.5327
 20
50.8655
 11
41.4441
 21
49.9252
  0
LINE
  8
0
 10
41.4441
 20
49.9252
 11
40.4526
 21
48.7373
  0
LINE
  8
0
 10
40.4526
 20
48.7373
 11
39.5576
 21
47.3018
  0
LINE
  8
0
 10
39.5576
 20
47.3018
 11
38.7593
 21
45.6186
  0
LINE
  8
0
 10
38.7593
 20
45.6186
 11
38.0576
 21
43.6882
  0
LINE
  8
0
 10
38.0576
 20
43.6882
 11
37.4524
 21
41.5102
  0
LINE
  8
0
 10
37.4524
 20
41.5102
 11
36.9438
 21
39.0845
  0
LINE
  8
0
 10
36.9438
 20
39.0845
 11
36.5314
 21
36.4111
  0
LINE
  8
0
 10
36.5314
 20
36.4111
 11
36.2155
 21
33.4906
  0
LINE
  8
0
 10
36.2155
 20
33.4906
 11
35.9999
 21
30.3687
  0
LINE
  8
0
 10
35.9999
 20
30.3687
 11
35.7843
 21
33.4901
  0
LINE
  8
0
 10
-0.215607
 20
33.4901
 11
-0.531006
 21
36.4111
  0
LINE
  8
0
 10
-0.531006
 20
36.4111
 11
-0.943451
 21
39.084
  0
LINE
  8
0
 10
-0.943451
 20
39.084
 11
-1.45248
 21
41.5097
  0
LINE
  8
0
 10
-1.45248
 20
41.5097
 11
-2.05765
 21
43.6882
  0
LINE
  8
0
 10
-2.05765
 20
43.6882
 11
-2.7594
 21
45.6181
  0
LINE
  8
0
 10
-2.7594
 20
45.6181
 11
-3.55774
 21
47.3013
  0
LINE
  8
0
 10
-3.55774
 20
47.3013
 11
-4.45221
 21
48.7373
  0
LINE
  8
0
 10
-4.45221
 20
48.7373
 11
-5.44418
 21
49.9252
  0
LINE
  8
0
 10
-5.44418
 20
49.9252
 11
-6.53275
 21
50.8655
  0
LINE
  8
0
 10
-6.53275
 20
50.8655
 11
-7.71744
 21
51.5585
  0
LINE
  8
0
 10
-7.71744
 20
51.5585
 11
-8.99002
 21
52.0003
  0
LINE
  8
0
 10
-8.99002
 20
52.0003
 11
-7.71744
 21
52.442
  0
LINE
  8
0
 10
-7.71744
 20
52.442
 11
-6.53275
 21
53.1351
  0
LINE
  8
0
 10
-6.53275
 20
53.1351
 11
-5.44418
 21
54.0753
  0
LINE
  8
0
 10
-5.44418
 20
54.0753
 11
-4.45267
 21
55.2632
  0
LINE
  8
0
 10
-4.45267
 20
55.2632
 11
-3.55774
 21
56.6988
  0
LINE
  8
0
 10
-3.55774
 20
56.6988
 11
-2.7594
 21
58.382
  0
LINE
  8
0
 10
-2.7594
 20
58.382
 11
-2.05765
 21
60.3123
  0
LINE
  8
0
 10
-2.05765
 20
60.3123
 11
-1.45248
 21
62.4904
  0
LINE
  8
0
 10
-1.45248
 20
62.4904
 11
-0.943909
 21
64.9161
  0
LINE
  8
0
 10
-0.943909
 20
64.9161
 11
-0.531464
 21
67.5894
  0
LINE
  8
0
 10
-0.531464
 20
67.5894
 11
-0.215607
 21
70.5099
  0
LINE
  8
0
 10
-0.215607
 20
70.5099
 11
0
 21
73.6319
  0
LINE
  8
0
 10
0
 20
73.6319
 11
0.215607
 21
70.5104
  0
LINE
  8
0
 10
0.215607
 20
70.5104
 11
0.531006
 21
67.5894
  0
LINE
  8
0
 10
0.531006
 20
67.5894
 11
0.943451
 21
64.9165
  0
LINE
  8
0
 10
0.943451
 20
64.9165
 11
1.45248
 21
62.4908
  0
LINE
  8
0
 10
1.45248
 20
62.4908
 11
2.05765
 21
60.3123
  0
LINE
  8
0
 10
2.05765
 20
60.3123
 11
2.7594
 21
58.3824
  0
LINE
  8
0
 10
2.7594
 20
58.3824
 11
3.55774
 21
56.6992
  0
LINE
  8
0
 10
3.55774
 20
56.6992
 11
4.45221
 21
55.2632
  0
LINE
  8
0
 10
4.45221
 20
55.2632
 11
5.44418
 21
54.0753
  0
LINE
  8
0
 10
5.44418
 20
54.0753
 11
6.53275
 21
53.1351
  0
LINE
  8
0
 10
6.53275
 20
53.1351
 11
7.71744
 21
52.442
  0
LINE
  8
0
 10
7.71744
 20
52.442
 11
8.99002
 21
52.0003
  0
LINE
  8
0
 10
8.99002
 20
52.0003
 11
7.71744
 21
51.5585
  0
LINE
  8
0
 10
7.71744
 20
51.5585
 11
6.53275
 21
50.8655
  0
LINE
  8
0
 10
6.53275
 20
50.8655
 11
5.44418
 21
49.9252
  0
LINE
  8
0
 10
5.44418
 20
49.9252
 11
4.45267
 21
48.7373
  0
LINE
  8
0
 10
4.45267
 20
48.7373
 11
3.55774
 21
47.3018
  0
LINE
  8
0
 10
3.55774
 20
47.3018
 11
2.7594
 21
45.6186
  0
LINE
  8
0
 10
2.7594
 20
45.6186
 11
2.05765
 21
43.6882
  0
LINE
  8
0
 10
2.05765
 20
43.6882
 11
1.45248
 21
41.5102
  0
LINE
  8
0
 10
1.45248
 20
41.5102
 11
0.943909
 21
39.0845
  0
LINE
  8
0
 10
0.943909
 20
39.0845
 11
0.531464
 21
36.4111
  0
LINE
  8
0
 10
0.531464
 20
36.4111
 11
0.215607
 21
33.4906
  0
LINE
  8
0
 10
0.215607
 20
33.4906
 11
0
 21
30.3687
  0
LINE
  8
0
 10
0
 20
30.3687
 11
-0.215607
 21
33.4901
  0
LINE
  8
0
 10
-36.2155
 20
33.4901
 11
-36.5309
 21
36.4111
  0
LINE
  8
0
 10
-36.5309
 20
36.4111
 11
-36.9434
 21
39.084
  0
LINE
  8
0
 10
-36.9434
 20
39.084
 11
-37.4524
 21
41.5097
  0
LINE
  8
0
 10
-37.4524
 20
41.5097
 11
-38.0576
 21
43.6882
  0
LINE
  8
0
 10
-38.0576
 20
43.6882
 11
-38.7593
 21
45.6181
  0
LINE
  8
0
 10
-38.7593
 20
45.6181
 11
-39.5576
 21
47.3013
  0
LINE
  8
0
 10
-39.5576
 20
47.3013
 11
-40.4521
 21
48.7373
  0
LINE
  8
0
 10
-40.4521
 20
48.7373
 11
-41.4441
 21
49.9252
  0
LINE
  8
0
 10
-41.4441
 20
49.9252
 11
-42.5327
 21
50.8655
  0
LINE
  8
0
 10
-42.5327
 20
50.8655
 11
-43.7173
 21
51.5585
  0
LINE
  8
0
 10
-43.7173
 20
51.5585
 11
-44.9899
 21
52.0003
  0
LINE
  8
0
 10
-44.9899
 20
52.0003
 11
-43.7173
 21
52.442
  0
LINE
  8
0
 10
-43.7173
 20
52.442
 11
-42.5327
 21
53.1351
  0
LINE
  8
0
 10
-42.5327
 20
53.1351
 11
-41.4441
 21
54.0753
  0
LINE
  8
0
 10
-41.4441
 20
54.0753
 11
-40.4526
 21
55.2632
  0
LINE
  8
0
 10
-40.4526
 20
55.2632
 11
-39.5576
 21
56.6988
  0
LINE
  8
0
 10
-39.5576
 20
56.6988
 11
-38.7593
 21
58.382
  0
LINE
  8
0
 10
-38.7593
 20
58.382
 11
-38.0576
 21
60.3123
  0
LINE
  8
0
 10
-38.0576
 20
60.3123
 11
-37.4524
 21
62.4904
  0
LINE
  8
0
 10
-37.4524
 20
62.4904
 11
-36.9438
 21
64.9161
  0
LINE
  8
0
 10
-36.9438
 20
64.9161
 11
-36.5314
 21
67.5894
  0
LINE
  8
0
 10
-36.5314
 20
67.5894
 11
-36.2155
 21
70.5099
  0
LINE
  8
0
 10
-36.2155
 20
70.5099
 11
-35.9999
 21
73.6319
  0
LINE
  8
0
 10
-35.9999
 20
73.6319
 11
-35.7843
 21
70.5104
  0
LINE
  8
0
 10
-35.7843
 20
70.5104
 11
-35.4689
 21
67.5894
  0
LINE
  8
0
 10
-35.4689
 20
67.5894
 11
-35.0565
 21
64.9165
  0
LINE
  8
0
 10
-35.0565
 20
64.9165
 11
-34.5474
 21
62.4908
  0
LINE
  8
0
 10
-34.5474
 20
62.4908
 11
-33.9423
 21
60.3123
  0
LINE
  8
0
 10
-33.9423
 20
60.3123
 11
-33.2405
 21
58.3824
  0
LINE
  8
0
 10
-33.2405
 20
58.3824
 11
-32.4422
 21
56.6992
  0
LINE
  8
0
 10
-32.4422
 20
56.6992
 11
-31.5477
 21
55.2632
  0
LINE
  8
0
 10
-31.5477
 20
55.2632
 11
-30.5557
 21
54.0753
  0
LINE
  8
0
 10
-30.5557
 20
54.0753
 11
-29.4672
 21
53.1351
  0
LINE
  8
0
 10
-29.4672
 20
53.1351
 11
-28.2825
 21
52.442
  0
LINE
  8
0
 10
-28.2825
 20
52.442
 11
-27.0099
 21
52.0003
  0
LINE
  8
0
 10
-27.0099
 20
52.0003
 11
-28.2825
 21
51.5585
  0
LINE
  8
0
 10
-28.2825
 20
51.5585
 11
-29.4672
 21
50.8655
  0
LINE
  8
0
 10
-29.4672
 20
50.8655
 11
-30.5557
 21
49.9252
  0
LINE
  8
0
 10
-30.5557
 20
49.9252
 11
-31.5472
 21
48.7373
  0
LINE
  8
0
 10
-31.5472
 20
48.7373
 11
-32.4422
 21
47.3018
  0
LINE
  8
0
 10
-32.4422
 20
47.3018
 11
-33.2405
 21
45.6186
  0
LINE
  8
0
 10
-33.2405
 20
45.6186
 11
-33.9423
 21
43.6882
  0
LINE
  8
0
 10
-33.9423
 20
43.6882
 11
-34.5474
 21
41.5102
  0
LINE
  8
0
 10
-34.5474
 20
41.5102
 11
-35.056
 21
39.0845
  0
LINE
  8
0
 10
-35.056
 20
39.0845
 11
-35.4684
 21
36.4111
  0
LINE
  8
0
 10
-35.4684
 20
36.4111
 11
-35.7843
 21
33.4906
  0
LINE
  8
0
 10
-35.7843
 20
33.4906
 11
-35.9999
 21
30.3687
  0
LINE
  8
0
 10
-35.9999
 20
30.3687
 11
-36.2155
 21
33.4901
  0
LINE
  8
0
 10
12.1687
 20
53.0888
 11
10.7108
 21
53.5168
  0
LINE
  8
0
 10
10.7108
 20
53.5168
 11
9.34067
 21
54.2621
  0
LINE
  8
0
 10
9.34067
 20
54.2621
 11
8.05939
 21
55.3232
  0
LINE
  8
0
 10
8.05939
 20
55.3232
 11
6.86829
 21
56.7015
  0
LINE
  8
0
 10
6.86829
 20
56.7015
 11
5.76508
 21
58.3966
  0
LINE
  8
0
 10
5.76508
 20
58.3966
 11
4.75204
 21
60.4085
  0
LINE
  8
0
 10
4.75204
 20
60.4085
 11
3.82736
 21
62.7371
  0
LINE
  8
0
 10
3.82736
 20
62.7371
 11
2.99149
 21
65.3821
  0
LINE
  8
0
 10
2.99149
 20
65.3821
 11
2.24487
 21
68.3443
  0
LINE
  8
0
 10
2.24487
 20
68.3443
 11
1.59073
 21
71.6095
  0
LINE
  8
0
 10
1.59073
 20
71.6095
 11
3.70148
 21
68.6295
  0
LINE
  8
0
 10
3.70148
 20
68.6295
 11
4.53415
 21
66.6006
  0
LINE
  8
0
 10
4.53415
 20
66.6006
 11
5.392
 21
64.7055
  0
LINE
  8
0
 10
5.392
 20
64.7055
 11
6.27502
 21
62.9454
  0
LINE
  8
0
 10
6.27502
 20
62.9454
 11
7.18323
 21
61.3194
  0
LINE
  8
0
 10
7.18323
 20
61.3194
 11
8.11661
 21
59.8294
  0
LINE
  8
0
 10
8.11661
 20
59.8294
 11
9.07516
 21
58.474
  0
LINE
  8
0
 10
9.07516
 20
58.474
 11
10.0589
 21
57.2531
  0
LINE
  8
0
 10
10.0589
 20
57.2531
 11
11.0674
 21
56.1682
  0
LINE
  8
0
 10
11.0674
 20
56.1682
 11
12.1019
 21
55.2174
  0
LINE
  8
0
 10
12.1019
 20
55.2174
 11
13.1602
 21
54.4022
  0
LINE
  8
0
 10
13.1602
 20
54.4022
 11
14.2447
 21
53.7219
  0
LINE
  8
0
 10
14.2447
 20
53.7219
 11
15.3442
 21
53.1813
  0
LINE
  8
0
 10
15.3442
 20
53.1813
 11
13.7169
 21
52.9771
  0
LINE
  8
0
 10
13.7169
 20
52.9771
 11
12.1687
 21
53.0888
  0
LINE
  8
0
 10
44.0593
 20
55.3232
 11
42.8682
 21
56.7015
  0
LINE
  8
0
 10
42.8682
 20
56.7015
 11
41.765
 21
58.3966
  0
LINE
  8
0
 10
41.765
 20
58.3966
 11
40.752
 21
60.4085
  0
LINE
  8
0
 10
40.752
 20
60.4085
 11
39.8273
 21
62.7371
  0
LINE
  8
0
 10
39.8273
 20
62.7371
 11
38.9914
 21
65.3821
  0
LINE
  8
0
 10
38.9914
 20
65.3821
 11
38.2448
 21
68.3443
  0
LINE
  8
0
 10
38.2448
 20
68.3443
 11
37.5906
 21
71.6095
  0
LINE
  8
0
 10
37.5906
 20
71.6095
 11
39.7014
 21
68.6295
  0
LINE
  8
0
 10
39.7014
 20
68.6295
 11
40.5341
 21
66.6006
  0
LINE
  8
0
 10
40.5341
 20
66.6006
 11
41.273
 21
64.9681
  0
LINE
  8
0
 10
41.273
 20
64.9681
 11
44.5348
 21
54.9294
  0
LINE
  8
0
 10
44.5348
 20
54.9294
 11
44.0593
 21
55.3232
  0
LINE
  8
0
 10
20.6557
 20
53.1813
 11
21.7552
 21
53.7219
  0
LINE
  8
0
 10
21.7552
 20
53.7219
 11
22.8392
 21
54.4017
  0
LINE
  8
0
 10
22.8392
 20
54.4017
 11
23.898
 21
55.2174
  0
LINE
  8
0
 10
23.898
 20
55.2174
 11
24.9321
 21
56.1678
  0
LINE
  8
0
 10
24.9321
 20
56.1678
 11
25.941
 21
57.2531
  0
LINE
  8
0
 10
25.941
 20
57.2531
 11
26.9243
 21
58.4735
  0
LINE
  8
0
 10
26.9243
 20
58.4735
 11
27.8828
 21
59.8289
  0
LINE
  8
0
 10
27.8828
 20
59.8289
 11
28.8167
 21
61.3194
  0
LINE
  8
0
 10
28.8167
 20
61.3194
 11
29.7249
 21
62.9449
  0
LINE
  8
0
 10
29.7249
 20
62.9449
 11
30.6079
 21
64.705
  0
LINE
  8
0
 10
30.6079
 20
64.705
 11
31.4658
 21
66.6002
  0
LINE
  8
0
 10
31.4658
 20
66.6002
 11
32.2984
 21
68.6295
  0
LINE
  8
0
 10
32.2984
 20
68.6295
 11
34.4092
 21
71.6095
  0
LINE
  8
0
 10
34.4092
 20
71.6095
 11
33.755
 21
68.3438
  0
LINE
  8
0
 10
33.755
 20
68.3438
 11
33.0084
 21
65.3816
  0
LINE
  8
0
 10
33.0084
 20
65.3816
 11
32.1725
 21
62.7362
  0
LINE
  8
0
 10
32.1725
 20
62.7362
 11
31.2479
 21
60.408
  0
LINE
  8
0
 10
31.2479
 20
60.408
 11
30.2344
 21
58.3957
  0
LINE
  8
0
 10
30.2344
 20
58.3957
 11
29.1316
 21
56.7015
  0
LINE
  8
0
 10
29.1316
 20
56.7015
 11
27.9401
 21
55.3227
  0
LINE
  8
0
 10
27.9401
 20
55.3227
 11
26.6592
 21
54.2621
  0
LINE
  8
0
 10
26.6592
 20
54.2621
 11
25.2892
 21
53.5168
  0
LINE
  8
0
 10
25.2892
 20
53.5168
 11
23.8312
 21
53.0888
  0
LINE
  8
0
 10
23.8312
 20
53.0888
 11
22.283
 21
52.9771
  0
LINE
  8
0
 10
22.283
 20
52.9771
 11
20.6557
 21
53.1813
  0
LINE
  8
0
 10
-23.8312
 20
53.0888
 11
-25.2892
 21
53.5168
  0
LINE
  8
0
 10
-25.2892
 20
53.5168
 11
-26.6592
 21
54.2621
  0
LINE
  8
0
 10
-26.6592
 20
54.2621
 11
-27.9405
 21
55.3232
  0
LINE
  8
0
 10
-27.9405
 20
55.3232
 11
-29.1316
 21
56.7015
  0
LINE
  8
0
 10
-29.1316
 20
56.7015
 11
-30.2348
 21
58.3966
  0
LINE
  8
0
 10
-30.2348
 20
58.3966
 11
-31.2479
 21
60.4085
  0
LINE
  8
0
 10
-31.2479
 20
60.4085
 11
-32.1725
 21
62.7371
  0
LINE
  8
0
 10
-32.1725
 20
62.7371
 11
-33.0084
 21
65.3821
  0
LINE
  8
0
 10
-33.0084
 20
65.3821
 11
-33.755
 21
68.3443
  0
LINE
  8
0
 10
-33.755
 20
68.3443
 11
-34.4092
 21
71.6095
  0
LINE
  8
0
 10
-34.4092
 20
71.6095
 11
-32.2984
 21
68.6295
  0
LINE
  8
0
 10
-32.2984
 20
68.6295
 11
-31.4658
 21
66.6006
  0
LINE
  8
0
 10
-31.4658
 20
66.6006
 11
-30.6079
 21
64.7055
  0
LINE
  8
0
 10
-30.6079
 20
64.7055
 11
-29.7249
 21
62.9454
  0
LINE
  8
0
 10
-29.7249
 20
62.9454
 11
-28.8167
 21
61.3194
  0
LINE
  8
0
 10
-28.8167
 20
61.3194
 11
-27.8833
 21
59.8294
  0
LINE
  8
0
 10
-27.8833
 20
59.8294
 11
-26.9247
 21
58.474
  0
LINE
  8
0
 10
-26.9247
 20
58.474
 11
-25.941
 21
57.2531
  0
LINE
  8
0
 10
-25.941
 20
57.2531
 11
-24.9326
 21
56.1682
  0
LINE
  8
0
 10
-24.9326
 20
56.1682
 11
-23.898
 21
55.2174
  0
LINE
  8
0
 10
-23.898
 20
55.2174
 11
-22.8397
 21
54.4022
  0
LINE
  8
0
 10
-22.8397
 20
54.4022
 11
-21.7552
 21
53.7219
  0
LINE
  8
0
 10
-21.7552
 20
53.7219
 11
-20.6557
 21
53.1813
  0
LINE
  8
0
 10
-20.6557
 20
53.1813
 11
-22.283
 21
52.9771
  0
LINE
  8
0
 10
-22.283
 20
52.9771
 11
-23.8312
 21
53.0888
  0
LINE
  8
0
 10
-41.2735
 20
64.9665
 11
-40.5341
 21
66.6002
  0
LINE
  8
0
 10
-40.5341
 20
66.6002
 11
-39.7014
 21
68.6295
  0
LINE
  8
0
 10
-39.7014
 20
68.6295
 11
-37.5906
 21
71.6095
  0
LINE
  8
0
 10
-37.5906
 20
71.6095
 11
-38.2448
 21
68.3438
  0
LINE
  8
0
 10
-38.2448
 20
68.3438
 11
-38.9914
 21
65.3816
  0
LINE
  8
0
 10
-38.9914
 20
65.3816
 11
-39.8273
 21
62.7362
  0
LINE
  8
0
 10
-39.8273
 20
62.7362
 11
-40.752
 21
60.408
  0
LINE
  8
0
 10
-40.752
 20
60.408
 11
-41.7654
 21
58.3957
  0
LINE
  8
0
 10
-41.7654
 20
58.3957
 11
-42.8682
 21
56.7015
  0
LINE
  8
0
 10
-42.8682
 20
56.7015
 11
-44.0598
 21
55.3227
  0
LINE
  8
0
 10
-44.0598
 20
55.3227
 11
-44.5348
 21
54.9293
  0
LINE
  8
0
 10
-44.5348
 20
54.9293
 11
-41.2735
 21
64.9665
  0
LINE
  8
0
 10
-15.3442
 20
53.1813
 11
-14.2447
 21
53.7219
  0
LINE
  8
0
 10
-14.2447
 20
53.7219
 11
-13.1607
 21
54.4017
  0
LINE
  8
0
 10
-13.1607
 20
54.4017
 11
-12.1019
 21
55.2174
  0
LINE
  8
0
 10
-12.1019
 20
55.2174
 11
-11.0678
 21
56.1678
  0
LINE
  8
0
 10
-11.0678
 20
56.1678
 11
-10.0589
 21
57.2531
  0
LINE
  8
0
 10
-10.0589
 20
57.2531
 11
-9.07562
 21
58.4735
  0
LINE
  8
0
 10
-9.07562
 20
58.4735
 11
-8.11707
 21
59.8289
  0
LINE
  8
0
 10
-8.11707
 20
59.8289
 11
-7.18323
 21
61.3194
  0
LINE
  8
0
 10
-7.18323
 20
61.3194
 11
-6.27502
 21
62.9449
  0
LINE
  8
0
 10
-6.27502
 20
62.9449
 11
-5.392
 21
64.705
  0
LINE
  8
0
 10
-5.392
 20
64.705
 11
-4.53415
 21
66.6002
  0
LINE
  8
0
 10
-4.53415
 20
66.6002
 11
-3.70148
 21
68.6295
  0
LINE
  8
0
 10
-3.70148
 20
68.6295
 11
-1.59073
 21
71.6095
  0
LINE
  8
0
 10
-1.59073
 20
71.6095
 11
-2.24487
 21
68.3438
  0
LINE
  8
0
 10
-2.24487
 20
68.3438
 11
-2.99149
 21
65.3816
  0
LINE
  8
0
 10
-2.99149
 20
65.3816
 11
-3.82736
 21
62.7362
  0
LINE
  8
0
 10
-3.82736
 20
62.7362
 11
-4.75204
 21
60.408
  0
LINE
  8
0
 10
-4.75204
 20
60.408
 11
-5.76553
 21
58.3957
  0
LINE
  8
0
 10
-5.76553
 20
58.3957
 11
-6.86829
 21
56.7015
  0
LINE
  8
0
 10
-6.86829
 20
56.7015
 11
-8.05984
 21
55.3227
  0
LINE
  8
0
 10
-8.05984
 20
55.3227
 11
-9.34067
 21
54.2621
  0
LINE
  8
0
 10
-9.34067
 20
54.2621
 11
-10.7108
 21
53.5168
  0
LINE
  8
0
 10
-10.7108
 20
53.5168
 11
-12.1687
 21
53.0888
  0
LINE
  8
0
 10
-12.1687
 20
53.0888
 11
-13.7169
 21
52.9771
  0
LINE
  8
0
 10
-13.7169
 20
52.9771
 11
-15.3442
 21
53.1813
  0
LINE
  8
0
 10
-33.755
 20
35.6567
 11
-33.0084
 21
38.6189
  0
LINE
  8
0
 10
-33.0084
 20
38.6189
 11
-32.1725
 21
41.2639
  0
LINE
  8
0
 10
-32.1725
 20
41.2639
 11
-31.2479
 21
43.5925
  0
LINE
  8
0
 10
-31.2479
 20
43.5925
 11
-30.2348
 21
45.6039
  0
LINE
  8
0
 10
-30.2348
 20
45.6039
 11
-29.1316
 21
47.299
  0
LINE
  8
0
 10
-29.1316
 20
47.299
 11
-27.9405
 21
48.6774
  0
LINE
  8
0
 10
-27.9405
 20
48.6774
 11
-26.6592
 21
49.7385
  0
LINE
  8
0
 10
-26.6592
 20
49.7385
 11
-25.2892
 21
50.4837
  0
LINE
  8
0
 10
-25.2892
 20
50.4837
 11
-23.8312
 21
50.9117
  0
LINE
  8
0
 10
-23.8312
 20
50.9117
 11
-22.283
 21
51.0234
  0
LINE
  8
0
 10
-22.283
 20
51.0234
 11
-20.6557
 21
50.8192
  0
LINE
  8
0
 10
-20.6557
 20
50.8192
 11
-21.7552
 21
50.2786
  0
LINE
  8
0
 10
-21.7552
 20
50.2786
 11
-22.8392
 21
49.5988
  0
LINE
  8
0
 10
-22.8392
 20
49.5988
 11
-23.898
 21
48.7831
  0
LINE
  8
0
 10
-23.898
 20
48.7831
 11
-24.9321
 21
47.8328
  0
LINE
  8
0
 10
-24.9321
 20
47.8328
 11
-25.941
 21
46.7474
  0
LINE
  8
0
 10
-25.941
 20
46.7474
 11
-26.9243
 21
45.527
  0
LINE
  8
0
 10
-26.9243
 20
45.527
 11
-27.8828
 21
44.1716
  0
LINE
  8
0
 10
-27.8828
 20
44.1716
 11
-28.8167
 21
42.6811
  0
LINE
  8
0
 10
-28.8167
 20
42.6811
 11
-29.7249
 21
41.0556
  0
LINE
  8
0
 10
-29.7249
 20
41.0556
 11
-30.6079
 21
39.2955
  0
LINE
  8
0
 10
-30.6079
 20
39.2955
 11
-31.4658
 21
37.4004
  0
LINE
  8
0
 10
-31.4658
 20
37.4004
 11
-32.2989
 21
35.3702
  0
LINE
  8
0
 10
-32.2989
 20
35.3702
 11
-34.4092
 21
32.3911
  0
LINE
  8
0
 10
-34.4092
 20
32.3911
 11
-33.755
 21
35.6567
  0
LINE
  8
0
 10
32.2984
 20
35.3711
 11
31.4658
 21
37.3999
  0
LINE
  8
0
 10
31.4658
 20
37.3999
 11
30.6079
 21
39.295
  0
LINE
  8
0
 10
30.6079
 20
39.295
 11
29.7249
 21
41.0551
  0
LINE
  8
0
 10
29.7249
 20
41.0551
 11
28.8167
 21
42.6811
  0
LINE
  8
0
 10
28.8167
 20
42.6811
 11
27.8833
 21
44.1711
  0
LINE
  8
0
 10
27.8833
 20
44.1711
 11
26.9247
 21
45.5266
  0
LINE
  8
0
 10
26.9247
 20
45.5266
 11
25.941
 21
46.7474
  0
LINE
  8
0
 10
25.941
 20
46.7474
 11
24.9326
 21
47.8323
  0
LINE
  8
0
 10
24.9326
 20
47.8323
 11
23.898
 21
48.7831
  0
LINE
  8
0
 10
23.898
 20
48.7831
 11
22.8397
 21
49.5984
  0
LINE
  8
0
 10
22.8397
 20
49.5984
 11
21.7552
 21
50.2786
  0
LINE
  8
0
 10
21.7552
 20
50.2786
 11
20.6557
 21
50.8192
  0
LINE
  8
0
 10
20.6557
 20
50.8192
 11
22.283
 21
51.0234
  0
LINE
  8
0
 10
22.283
 20
51.0234
 11
23.8312
 21
50.9117
  0
LINE
  8
0
 10
23.8312
 20
50.9117
 11
25.2892
 21
50.4837
  0
LINE
  8
0
 10
25.2892
 20
50.4837
 11
26.6592
 21
49.7385
  0
LINE
  8
0
 10
26.6592
 20
49.7385
 11
27.9405
 21
48.6774
  0
LINE
  8
0
 10
27.9405
 20
48.6774
 11
29.1316
 21
47.299
  0
LINE
  8
0
 10
29.1316
 20
47.299
 11
30.2348
 21
45.6039
  0
LINE
  8
0
 10
30.2348
 20
45.6039
 11
31.2479
 21
43.5921
  0
LINE
  8
0
 10
31.2479
 20
43.5921
 11
32.1725
 21
41.2634
  0
LINE
  8
0
 10
32.1725
 20
41.2634
 11
33.0084
 21
38.6185
  0
LINE
  8
0
 10
33.0084
 20
38.6185
 11
33.755
 21
35.6563
  0
LINE
  8
0
 10
33.755
 20
35.6563
 11
34.4092
 21
32.3911
  0
LINE
  8
0
 10
34.4092
 20
32.3911
 11
32.2984
 21
35.3711
  0
LINE
  8
0
 10
-3.70148
 20
35.3711
 11
-4.53415
 21
37.3999
  0
LINE
  8
0
 10
-4.53415
 20
37.3999
 11
-5.392
 21
39.295
  0
LINE
  8
0
 10
-5.392
 20
39.295
 11
-6.27502
 21
41.0551
  0
LINE
  8
0
 10
-6.27502
 20
41.0551
 11
-7.18323
 21
42.6811
  0
LINE
  8
0
 10
-7.18323
 20
42.6811
 11
-8.11661
 21
44.1711
  0
LINE
  8
0
 10
-8.11661
 20
44.1711
 11
-9.07516
 21
45.5266
  0
LINE
  8
0
 10
-9.07516
 20
45.5266
 11
-10.0589
 21
46.7474
  0
LINE
  8
0
 10
-10.0589
 20
46.7474
 11
-11.0674
 21
47.8323
  0
LINE
  8
0
 10
-11.0674
 20
47.8323
 11
-12.1019
 21
48.7831
  0
LINE
  8
0
 10
-12.1019
 20
48.7831
 11
-13.1602
 21
49.5984
  0
LINE
  8
0
 10
-13.1602
 20
49.5984
 11
-14.2447
 21
50.2786
  0
LINE
  8
0
 10
-14.2447
 20
50.2786
 11
-15.3442
 21
50.8192
  0
LINE
  8
0
 10
-15.3442
 20
50.8192
 11
-13.7169
 21
51.0234
  0
LINE
  8
0
 10
-13.7169
 20
51.0234
 11
-12.1687
 21
50.9117
  0
LINE
  8
0
 10
-12.1687
 20
50.9117
 11
-10.7108
 21
50.4837
  0
LINE
  8
0
 10
-10.7108
 20
50.4837
 11
-9.34067
 21
49.7385
  0
LINE
  8
0
 10
-9.34067
 20
49.7385
 11
-8.05939
 21
48.6774
  0
LINE
  8
0
 10
-8.05939
 20
48.6774
 11
-6.86829
 21
47.299
  0
LINE
  8
0
 10
-6.86829
 20
47.299
 11
-5.76508
 21
45.6039
  0
LINE
  8
0
 10
-5.76508
 20
45.6039
 11
-4.75204
 21
43.5921
  0
LINE
  8
0
 10
-4.75204
 20
43.5921
 11
-3.82736
 21
41.2634
  0
LINE
  8
0
 10
-3.82736
 20
41.2634
 11
-2.99149
 21
38.6185
  0
LINE
  8
0
 10
-2.99149
 20
38.6185
 11
-2.24487
 21
35.6563
  0
LINE
  8
0
 10
-2.24487
 20
35.6563
 11
-1.59073
 21
32.3911
  0
LINE
  8
0
 10
-1.59073
 20
32.3911
 11
-3.70148
 21
35.3711
  0
LINE
  8
0
 10
2.24487
 20
35.6567
 11
2.99149
 21
38.6189
  0
LINE
  8
0
 10
2.99149
 20
38.6189
 11
3.82736
 21
41.2639
  0
LINE
  8
0
 10
3.82736
 20
41.2639
 11
4.75204
 21
43.5925
  0
LINE
  8
0
 10
4.75204
 20
43.5925
 11
5.76508
 21
45.6039
  0
LINE
  8
0
 10
5.76508
 20
45.6039
 11
6.86829
 21
47.299
  0
LINE
  8
0
 10
6.86829
 20
47.299
 11
8.05939
 21
48.6774
  0
LINE
  8
0
 10
8.05939
 20
48.6774
 11
9.34067
 21
49.7385
  0
LINE
  8
0
 10
9.34067
 20
49.7385
 11
10.7108
 21
50.4837
  0
LINE
  8
0
 10
10.7108
 20
50.4837
 11
12.1687
 21
50.9117
  0
LINE
  8
0
 10
12.1687
 20
50.9117
 11
13.7169
 21
51.0234
  0
LINE
  8
0
 10
13.7169
 20
51.0234
 11
15.3442
 21
50.8192
  0
LINE
  8
0
 10
15.3442
 20
50.8192
 11
14.2447
 21
50.2786
  0
LINE
  8
0
 10
14.2447
 20
50.2786
 11
13.1607
 21
49.5988
  0
LINE
  8
0
 10
13.1607
 20
49.5988
 11
12.1019
 21
48.7831
  0
LINE
  8
0
 10
12.1019
 20
48.7831
 11
11.0678
 21
47.8328
  0
LINE
  8
0
 10
11.0678
 20
47.8328
 11
10.0589
 21
46.7474
  0
LINE
  8
0
 10
10.0589
 20
46.7474
 11
9.07562
 21
45.527
  0
LINE
  8
0
 10
9.07562
 20
45.527
 11
8.11707
 21
44.1716
  0
LINE
  8
0
 10
8.11707
 20
44.1716
 11
7.18323
 21
42.6811
  0
LINE
  8
0
 10
7.18323
 20
42.6811
 11
6.27502
 21
41.0556
  0
LINE
  8
0
 10
6.27502
 20
41.0556
 11
5.392
 21
39.2955
  0
LINE
  8
0
 10
5.392
 20
39.2955
 11
4.53415
 21
37.4004
  0
LINE
  8
0
 10
4.53415
 20
37.4004
 11
3.70102
 21
35.3702
  0
LINE
  8
0
 10
3.70102
 20
35.3702
 11
1.59073
 21
32.3911
  0
LINE
  8
0
 10
1.59073
 20
32.3911
 11
2.24487
 21
35.6567
  0
LINE
  8
0
 10
-39.7014
 20
35.3711
 11
-40.5341
 21
37.3999
  0
LINE
  8
0
 10
-40.5341
 20
37.3999
 11
-41.3919
 21
39.295
  0
LINE
  8
0
 10
-41.3919
 20
39.295
 11
-42.2749
 21
41.0551
  0
LINE
  8
0
 10
-42.2749
 20
41.0551
 11
-43.1831
 21
42.6811
  0
LINE
  8
0
 10
-43.1831
 20
42.6811
 11
-44.1165
 21
44.1711
  0
LINE
  8
0
 10
-44.1165
 20
44.1711
 11
-45.0751
 21
45.5266
  0
LINE
  8
0
 10
-45.0751
 20
45.5266
 11
-46.0588
 21
46.7474
  0
LINE
  8
0
 10
-46.0588
 20
46.7474
 11
-46.8994
 21
47.6518
  0
LINE
  8
0
 10
-46.8994
 20
47.6518
 11
-46.0891
 21
50.1456
  0
LINE
  8
0
 10
-46.0891
 20
50.1456
 11
-45.3406
 21
49.7385
  0
LINE
  8
0
 10
-45.3406
 20
49.7385
 11
-44.0593
 21
48.6774
  0
LINE
  8
0
 10
-44.0593
 20
48.6774
 11
-42.8682
 21
47.299
  0
LINE
  8
0
 10
-42.8682
 20
47.299
 11
-41.765
 21
45.6039
  0
LINE
  8
0
 10
-41.765
 20
45.6039
 11
-40.752
 21
43.5921
  0
LINE
  8
0
 10
-40.752
 20
43.5921
 11
-39.8273
 21
41.2634
  0
LINE
  8
0
 10
-39.8273
 20
41.2634
 11
-38.9914
 21
38.6185
  0
LINE
  8
0
 10
-38.9914
 20
38.6185
 11
-38.2448
 21
35.6563
  0
LINE
  8
0
 10
-38.2448
 20
35.6563
 11
-37.5906
 21
32.3911
  0
LINE
  8
0
 10
-37.5906
 20
32.3911
 11
-39.7014
 21
35.3711
  0
LINE
  8
0
 10
38.2448
 20
35.6567
 11
38.9914
 21
38.6189
  0
LINE
  8
0
 10
38.9914
 20
38.6189
 11
39.8273
 21
41.2639
  0
LINE
  8
0
 10
39.8273
 20
41.2639
 11
40.752
 21
43.5925
  0
LINE
  8
0
 10
40.752
 20
43.5925
 11
41.765
 21
45.6039
  0
LINE
  8
0
 10
41.765
 20
45.6039
 11
42.8682
 21
47.299
  0
LINE
  8
0
 10
42.8682
 20
47.299
 11
44.0593
 21
48.6774
  0
LINE
  8
0
 10
44.0593
 20
48.6774
 11
45.3406
 21
49.7385
  0
LINE
  8
0
 10
45.3406
 20
49.7385
 11
46.0891
 21
50.1456
  0
LINE
  8
0
 10
46.0891
 20
50.1456
 11
46.8994
 21
47.6518
  0
LINE
  8
0
 10
46.8994
 20
47.6518
 11
46.0588
 21
46.7474
  0
LINE
  8
0
 10
46.0588
 20
46.7474
 11
45.0755
 21
45.527
  0
LINE
  8
0
 10
45.0755
 20
45.527
 11
44.117
 21
44.1716
  0
LINE
  8
0
 10
44.117
 20
44.1716
 11
43.1831
 21
42.6811
  0
LINE
  8
0
 10
43.1831
 20
42.6811
 11
42.2749
 21
41.0556
  0
LINE
  8
0
 10
42.2749
 20
41.0556
 11
41.3919
 21
39.2955
  0
LINE
  8
0
 10
41.3919
 20
39.2955
 11
40.5341
 21
37.4004
  0
LINE
  8
0
 10
40.5341
 20
37.4004
 11
39.7009
 21
35.3702
  0
LINE
  8
0
 10
39.7009
 20
35.3702
 11
37.5906
 21
32.3911
  0
LINE
  8
0
 10
37.5906
 20
32.3911
 11
38.2448
 21
35.6567
  0
LINE
  8
0
 10
17.5131
 20
12
 11
17.4687
 21
12.411
  0
LINE
  8
0
 10
17.4687
 20
12.411
 11
17.0563
 21
15.0839
  0
LINE
  8
0
 10
17.0563
 20
15.0839
 11
16.5472
 21
17.5096
  0
LINE
  8
0
 10
16.5472
 20
17.5096
 11
15.9421
 21
19.6881
  0
LINE
  8
0
 10
15.9421
 20
19.6881
 11
15.2403
 21
21.618
  0
LINE
  8
0
 10
15.2403
 20
21.618
 11
14.442
 21
23.3012
  0
LINE
  8
0
 10
14.442
 20
23.3012
 11
13.5475
 21
24.7372
  0
LINE
  8
0
 10
13.5475
 20
24.7372
 11
12.5555
 21
25.9251
  0
LINE
  8
0
 10
12.5555
 20
25.9251
 11
11.467
 21
26.8654
  0
LINE
  8
0
 10
11.467
 20
26.8654
 11
10.2823
 21
27.5584
  0
LINE
  8
0
 10
10.2823
 20
27.5584
 11
9.0097
 21
28.0002
  0
LINE
  8
0
 10
9.0097
 20
28.0002
 11
10.2823
 21
28.4419
  0
LINE
  8
0
 10
10.2823
 20
28.4419
 11
11.467
 21
29.135
  0
LINE
  8
0
 10
11.467
 20
29.135
 11
12.5555
 21
30.0752
  0
LINE
  8
0
 10
12.5555
 20
30.0752
 11
13.5471
 21
31.2631
  0
LINE
  8
0
 10
13.5471
 20
31.2631
 11
14.442
 21
32.6987
  0
LINE
  8
0
 10
14.442
 20
32.6987
 11
15.2403
 21
34.3819
  0
LINE
  8
0
 10
15.2403
 20
34.3819
 11
15.9421
 21
36.3123
  0
LINE
  8
0
 10
15.9421
 20
36.3123
 11
16.5472
 21
38.4903
  0
LINE
  8
0
 10
16.5472
 20
38.4903
 11
17.0558
 21
40.916
  0
LINE
  8
0
 10
17.0558
 20
40.916
 11
17.4683
 21
43.5893
  0
LINE
  8
0
 10
17.4683
 20
43.5893
 11
17.7841
 21
46.5099
  0
LINE
  8
0
 10
17.7841
 20
46.5099
 11
17.9997
 21
49.6318
  0
LINE
  8
0
 10
17.9997
 20
49.6318
 11
18.2153
 21
46.5103
  0
LINE
  8
0
 10
18.2153
 20
46.5103
 11
18.5307
 21
43.5893
  0
LINE
  8
0
 10
18.5307
 20
43.5893
 11
18.9432
 21
40.9164
  0
LINE
  8
0
 10
18.9432
 20
40.9164
 11
19.4522
 21
38.4908
  0
LINE
  8
0
 10
19.4522
 20
38.4908
 11
20.0574
 21
36.3123
  0
LINE
  8
0
 10
20.0574
 20
36.3123
 11
20.7591
 21
34.3823
  0
LINE
  8
0
 10
20.7591
 20
34.3823
 11
21.5575
 21
32.6991
  0
LINE
  8
0
 10
21.5575
 20
32.6991
 11
22.4519
 21
31.2631
  0
LINE
  8
0
 10
22.4519
 20
31.2631
 11
23.4439
 21
30.0752
  0
LINE
  8
0
 10
23.4439
 20
30.0752
 11
24.5325
 21
29.135
  0
LINE
  8
0
 10
24.5325
 20
29.135
 11
25.7172
 21
28.4419
  0
LINE
  8
0
 10
25.7172
 20
28.4419
 11
26.9897
 21
28.0002
  0
LINE
  8
0
 10
26.9897
 20
28.0002
 11
25.7172
 21
27.5584
  0
LINE
  8
0
 10
25.7172
 20
27.5584
 11
24.5325
 21
26.8654
  0
LINE
  8
0
 10
24.5325
 20
26.8654
 11
23.4439
 21
25.9251
  0
LINE
  8
0
 10
23.4439
 20
25.9251
 11
22.4524
 21
24.7372
  0
LINE
  8
0
 10
22.4524
 20
24.7372
 11
21.5575
 21
23.3017
  0
LINE
  8
0
 10
21.5575
 20
23.3017
 11
20.7591
 21
21.6185
  0
LINE
  8
0
 10
20.7591
 20
21.6185
 11
20.0574
 21
19.6881
  0
LINE
  8
0
 10
20.0574
 20
19.6881
 11
19.4522
 21
17.5101
  0
LINE
  8
0
 10
19.4522
 20
17.5101
 11
18.9436
 21
15.0844
  0
LINE
  8
0
 10
18.9436
 20
15.0844
 11
18.5312
 21
12.411
  0
LINE
  8
0
 10
18.5312
 20
12.411
 11
18.4867
 21
12
  0
LINE
  8
0
 10
18.4867
 20
12
 11
17.5131
 21
12
  0
LINE
  8
0
 10
-18.4863
 20
12
 11
-18.5307
 21
12.411
  0
LINE
  8
0
 10
-18.5307
 20
12.411
 11
-18.9432
 21
15.0839
  0
LINE
  8
0
 10
-18.9432
 20
15.0839
 11
-19.4522
 21
17.5096
  0
LINE
  8
0
 10
-19.4522
 20
17.5096
 11
-20.0574
 21
19.6881
  0
LINE
  8
0
 10
-20.0574
 20
19.6881
 11
-20.7591
 21
21.618
  0
LINE
  8
0
 10
-20.7591
 20
21.618
 11
-21.5575
 21
23.3012
  0
LINE
  8
0
 10
-21.5575
 20
23.3012
 11
-22.4519
 21
24.7372
  0
LINE
  8
0
 10
-22.4519
 20
24.7372
 11
-23.4439
 21
25.9251
  0
LINE
  8
0
 10
-23.4439
 20
25.9251
 11
-24.5325
 21
26.8654
  0
LINE
  8
0
 10
-24.5325
 20
26.8654
 11
-25.7172
 21
27.5584
  0
LINE
  8
0
 10
-25.7172
 20
27.5584
 11
-26.9897
 21
28.0002
  0
LINE
  8
0
 10
-26.9897
 20
28.0002
 11
-25.7172
 21
28.4419
  0
LINE
  8
0
 10
-25.7172
 20
28.4419
 11
-24.5325
 21
29.135
  0
LINE
  8
0
 10
-24.5325
 20
29.135
 11
-23.4439
 21
30.0752
  0
LINE
  8
0
 10
-23.4439
 20
30.0752
 11
-22.4524
 21
31.2631
  0
LINE
  8
0
 10
-22.4524
 20
31.2631
 11
-21.5575
 21
32.6987
  0
LINE
  8
0
 10
-21.5575
 20
32.6987
 11
-20.7591
 21
34.3819
  0
LINE
  8
0
 10
-20.7591
 20
34.3819
 11
-20.0574
 21
36.3123
  0
LINE
  8
0
 10
-20.0574
 20
36.3123
 11
-19.4522
 21
38.4903
  0
LINE
  8
0
 10
-19.4522
 20
38.4903
 11
-18.9436
 21
40.916
  0
LINE
  8
0
 10
-18.9436
 20
40.916
 11
-18.5312
 21
43.5893
  0
LINE
  8
0
 10
-18.5312
 20
43.5893
 11
-18.2153
 21
46.5099
  0
LINE
  8
0
 10
-18.2153
 20
46.5099
 11
-17.9997
 21
49.6318
  0
LINE
  8
0
 10
-17.9997
 20
49.6318
 11
-17.7841
 21
46.5103
  0
LINE
  8
0
 10
-17.7841
 20
46.5103
 11
-17.4687
 21
43.5893
  0
LINE
  8
0
 10
-17.4687
 20
43.5893
 11
-17.0563
 21
40.9164
  0
LINE
  8
0
 10
-17.0563
 20
40.9164
 11
-16.5472
 21
38.4908
  0
LINE
  8
0
 10
-16.5472
 20
38.4908
 11
-15.9421
 21
36.3123
  0
LINE
  8
0
 10
-15.9421
 20
36.3123
 11
-15.2403
 21
34.3823
  0
LINE
  8
0
 10
-15.2403
 20
34.3823
 11
-14.442
 21
32.6991
  0
LINE
  8
0
 10
-14.442
 20
32.6991
 11
-13.5475
 21
31.2631
  0
LINE
  8
0
 10
-13.5475
 20
31.2631
 11
-12.5555
 21
30.0752
  0
LINE
  8
0
 10
-12.5555
 20
30.0752
 11
-11.467
 21
29.135
  0
LINE
  8
0
 10
-11.467
 20
29.135
 11
-10.2823
 21
28.4419
  0
LINE
  8
0
 10
-10.2823
 20
28.4419
 11
-9.0097
 21
28.0002
  0
LINE
  8
0
 10
-9.0097
 20
28.0002
 11
-10.2823
 21
27.5584
  0
LINE
  8
0
 10
-10.2823
 20
27.5584
 11
-11.467
 21
26.8654
  0
LINE
  8
0
 10
-11.467
 20
26.8654
 11
-12.5555
 21
25.9251
  0
LINE
  8
0
 10
-12.5555
 20
25.9251
 11
-13.5471
 21
24.7372
  0
LINE
  8
0
 10
-13.5471
 20
24.7372
 11
-14.442
 21
23.3017
  0
LINE
  8
0
 10
-14.442
 20
23.3017
 11
-15.2403
 21
21.6185
  0
LINE
  8
0
 10
-15.2403
 20
21.6185
 11
-15.9421
 21
19.6881
  0
LINE
  8
0
 10
-15.9421
 20
19.6881
 11
-16.5472
 21
17.5101
  0
LINE
  8
0
 10
-16.5472
 20
17.5101
 11
-17.0558
 21
15.0844
  0
LINE
  8
0
 10
-17.0558
 20
15.0844
 11
-17.4683
 21
12.411
  0
LINE
  8
0
 10
-17.4683
 20
12.411
 11
-17.5127
 21
12
  0
LINE
  8
0
 10
-17.5127
 20
12
 11
-18.4863
 21
12
  0
LINE
  8
0
 10
-5.83099
 20
29.0887
 11
-7.28897
 21
29.5168
  0
LINE
  8
0
 10
-7.28897
 20
29.5168
 11
-8.65906
 21
30.262
  0
LINE
  8
0
 10
-8.65906
 20
30.262
 11
-9.94034
 21
31.3231
  0
LINE
  8
0
 10
-9.94034
 20
31.3231
 11
-11.1314
 21
32.7014
  0
LINE
  8
0
 10
-11.1314
 20
32.7014
 11
-12.2346
 21
34.3965
  0
LINE
  8
0
 10
-12.2346
 20
34.3965
 11
-13.2477
 21
36.4084
  0
LINE
  8
0
 10
-13.2477
 20
36.4084
 11
-14.1724
 21
38.737
  0
LINE
  8
0
 10
-14.1724
 20
38.737
 11
-15.0082
 21
41.382
  0
LINE
  8
0
 10
-15.0082
 20
41.382
 11
-15.7549
 21
44.3442
  0
LINE
  8
0
 10
-15.7549
 20
44.3442
 11
-16.409
 21
47.6094
  0
LINE
  8
0
 10
-16.409
 20
47.6094
 11
-14.2982
 21
44.6294
  0
LINE
  8
0
 10
-14.2982
 20
44.6294
 11
-13.4656
 21
42.6006
  0
LINE
  8
0
 10
-13.4656
 20
42.6006
 11
-12.6077
 21
40.7054
  0
LINE
  8
0
 10
-12.6077
 20
40.7054
 11
-11.7247
 21
38.9453
  0
LINE
  8
0
 10
-11.7247
 20
38.9453
 11
-10.8165
 21
37.3193
  0
LINE
  8
0
 10
-10.8165
 20
37.3193
 11
-9.88312
 21
35.8293
  0
LINE
  8
0
 10
-9.88312
 20
35.8293
 11
-8.92456
 21
34.4739
  0
LINE
  8
0
 10
-8.92456
 20
34.4739
 11
-7.94083
 21
33.253
  0
LINE
  8
0
 10
-7.94083
 20
33.253
 11
-6.93237
 21
32.1681
  0
LINE
  8
0
 10
-6.93237
 20
32.1681
 11
-5.89783
 21
31.2173
  0
LINE
  8
0
 10
-5.89783
 20
31.2173
 11
-4.83948
 21
30.4021
  0
LINE
  8
0
 10
-4.83948
 20
30.4021
 11
-3.75504
 21
29.7218
  0
LINE
  8
0
 10
-3.75504
 20
29.7218
 11
-2.65549
 21
29.1812
  0
LINE
  8
0
 10
-2.65549
 20
29.1812
 11
-4.28284
 21
28.9771
  0
LINE
  8
0
 10
-4.28284
 20
28.9771
 11
-5.83099
 21
29.0887
  0
LINE
  8
0
 10
-33.344
 20
29.1812
 11
-32.2444
 21
29.7218
  0
LINE
  8
0
 10
-32.2444
 20
29.7218
 11
-31.1604
 21
30.4016
  0
LINE
  8
0
 10
-31.1604
 20
30.4016
 11
-30.1016
 21
31.2173
  0
LINE
  8
0
 10
-30.1016
 20
31.2173
 11
-29.0675
 21
32.1677
  0
LINE
  8
0
 10
-29.0675
 20
32.1677
 11
-28.0586
 21
33.253
  0
LINE
  8
0
 10
-28.0586
 20
33.253
 11
-27.0753
 21
34.4734
  0
LINE
  8
0
 10
-27.0753
 20
34.4734
 11
-26.1168
 21
35.8289
  0
LINE
  8
0
 10
-26.1168
 20
35.8289
 11
-25.183
 21
37.3193
  0
LINE
  8
0
 10
-25.183
 20
37.3193
 11
-24.2747
 21
38.9449
  0
LINE
  8
0
 10
-24.2747
 20
38.9449
 11
-23.3917
 21
40.705
  0
LINE
  8
0
 10
-23.3917
 20
40.705
 11
-22.5339
 21
42.6001
  0
LINE
  8
0
 10
-22.5339
 20
42.6001
 11
-21.7012
 21
44.6294
  0
LINE
  8
0
 10
-21.7012
 20
44.6294
 11
-19.5905
 21
47.6094
  0
LINE
  8
0
 10
-19.5905
 20
47.6094
 11
-20.2446
 21
44.3437
  0
LINE
  8
0
 10
-20.2446
 20
44.3437
 11
-20.9912
 21
41.3815
  0
LINE
  8
0
 10
-20.9912
 20
41.3815
 11
-21.8271
 21
38.7361
  0
LINE
  8
0
 10
-21.8271
 20
38.7361
 11
-22.7518
 21
36.4079
  0
LINE
  8
0
 10
-22.7518
 20
36.4079
 11
-23.7653
 21
34.3956
  0
LINE
  8
0
 10
-23.7653
 20
34.3956
 11
-24.868
 21
32.7014
  0
LINE
  8
0
 10
-24.868
 20
32.7014
 11
-26.0596
 21
31.3226
  0
LINE
  8
0
 10
-26.0596
 20
31.3226
 11
-27.3404
 21
30.262
  0
LINE
  8
0
 10
-27.3404
 20
30.262
 11
-28.7105
 21
29.5168
  0
LINE
  8
0
 10
-28.7105
 20
29.5168
 11
-30.1685
 21
29.0887
  0
LINE
  8
0
 10
-30.1685
 20
29.0887
 11
-31.7166
 21
28.9771
  0
LINE
  8
0
 10
-31.7166
 20
28.9771
 11
-33.344
 21
29.1812
  0
LINE
  8
0
 10
30.1685
 20
29.0887
 11
28.7105
 21
29.5168
  0
LINE
  8
0
 10
28.7105
 20
29.5168
 11
27.3404
 21
30.262
  0
LINE
  8
0
 10
27.3404
 20
30.262
 11
26.0591
 21
31.3231
  0
LINE
  8
0
 10
26.0591
 20
31.3231
 11
24.868
 21
32.7014
  0
LINE
  8
0
 10
24.868
 20
32.7014
 11
23.7648
 21
34.3965
  0
LINE
  8
0
 10
23.7648
 20
34.3965
 11
22.7518
 21
36.4084
  0
LINE
  8
0
 10
22.7518
 20
36.4084
 11
21.8271
 21
38.737
  0
LINE
  8
0
 10
21.8271
 20
38.737
 11
20.9912
 21
41.382
  0
LINE
  8
0
 10
20.9912
 20
41.382
 11
20.2446
 21
44.3442
  0
LINE
  8
0
 10
20.2446
 20
44.3442
 11
19.5905
 21
47.6094
  0
LINE
  8
0
 10
19.5905
 20
47.6094
 11
21.7012
 21
44.6294
  0
LINE
  8
0
 10
21.7012
 20
44.6294
 11
22.5339
 21
42.6006
  0
LINE
  8
0
 10
22.5339
 20
42.6006
 11
23.3917
 21
40.7054
  0
LINE
  8
0
 10
23.3917
 20
40.7054
 11
24.2747
 21
38.9453
  0
LINE
  8
0
 10
24.2747
 20
38.9453
 11
25.183
 21
37.3193
  0
LINE
  8
0
 10
25.183
 20
37.3193
 11
26.1163
 21
35.8293
  0
LINE
  8
0
 10
26.1163
 20
35.8293
 11
27.0749
 21
34.4739
  0
LINE
  8
0
 10
27.0749
 20
34.4739
 11
28.0586
 21
33.253
  0
LINE
  8
0
 10
28.0586
 20
33.253
 11
29.0671
 21
32.1681
  0
LINE
  8
0
 10
29.0671
 20
32.1681
 11
30.1016
 21
31.2173
  0
LINE
  8
0
 10
30.1016
 20
31.2173
 11
31.16
 21
30.4021
  0
LINE
  8
0
 10
31.16
 20
30.4021
 11
32.2444
 21
29.7218
  0
LINE
  8
0
 10
32.2444
 20
29.7218
 11
33.344
 21
29.1812
  0
LINE
  8
0
 10
33.344
 20
29.1812
 11
31.7166
 21
28.9771
  0
LINE
  8
0
 10
31.7166
 20
28.9771
 11
30.1685
 21
29.0887
  0
LINE
  8
0
 10
2.65549
 20
29.1812
 11
3.75504
 21
29.7218
  0
LINE
  8
0
 10
3.75504
 20
29.7218
 11
4.83902
 21
30.4016
  0
LINE
  8
0
 10
4.83902
 20
30.4016
 11
5.89783
 21
31.2173
  0
LINE
  8
0
 10
5.89783
 20
31.2173
 11
6.93192
 21
32.1677
  0
LINE
  8
0
 10
6.93192
 20
32.1677
 11
7.94083
 21
33.253
  0
LINE
  8
0
 10
7.94083
 20
33.253
 11
8.9241
 21
34.4734
  0
LINE
  8
0
 10
8.9241
 20
34.4734
 11
9.88266
 21
35.8289
  0
LINE
  8
0
 10
9.88266
 20
35.8289
 11
10.8165
 21
37.3193
  0
LINE
  8
0
 10
10.8165
 20
37.3193
 11
11.7247
 21
38.9449
  0
LINE
  8
0
 10
11.7247
 20
38.9449
 11
12.6077
 21
40.705
  0
LINE
  8
0
 10
12.6077
 20
40.705
 11
13.4656
 21
42.6001
  0
LINE
  8
0
 10
13.4656
 20
42.6001
 11
14.2982
 21
44.6294
  0
LINE
  8
0
 10
14.2982
 20
44.6294
 11
16.409
 21
47.6094
  0
LINE
  8
0
 10
16.409
 20
47.6094
 11
15.7549
 21
44.3437
  0
LINE
  8
0
 10
15.7549
 20
44.3437
 11
15.0082
 21
41.3815
  0
LINE
  8
0
 10
15.0082
 20
41.3815
 11
14.1724
 21
38.7361
  0
LINE
  8
0
 10
14.1724
 20
38.7361
 11
13.2477
 21
36.4079
  0
LINE
  8
0
 10
13.2477
 20
36.4079
 11
12.2342
 21
34.3956
  0
LINE
  8
0
 10
12.2342
 20
34.3956
 11
11.1314
 21
32.7014
  0
LINE
  8
0
 10
11.1314
 20
32.7014
 11
9.93988
 21
31.3226
  0
LINE
  8
0
 10
9.93988
 20
31.3226
 11
8.65906
 21
30.262
  0
LINE
  8
0
 10
8.65906
 20
30.262
 11
7.28897
 21
29.5168
  0
LINE
  8
0
 10
7.28897
 20
29.5168
 11
5.83099
 21
29.0887
  0
LINE
  8
0
 10
5.83099
 20
29.0887
 11
4.28284
 21
28.9771
  0
LINE
  8
0
 10
4.28284
 20
28.9771
 11
2.65549
 21
29.1812
  0
LINE
  8
0
 10
-41.8309
 20
29.0887
 11
-43.2889
 21
29.5168
  0
LINE
  8
0
 10
-43.2889
 20
29.5168
 11
-44.659
 21
30.262
  0
LINE
  8
0
 10
-44.659
 20
30.262
 11
-45.9402
 21
31.3231
  0
LINE
  8
0
 10
-45.9402
 20
31.3231
 11
-47.1313
 21
32.7014
  0
LINE
  8
0
 10
-47.1313
 20
32.7014
 11
-48.2346
 21
34.3965
  0
LINE
  8
0
 10
-48.2346
 20
34.3965
 11
-49.2476
 21
36.4084
  0
LINE
  8
0
 10
-49.2476
 20
36.4084
 11
-49.9653
 21
38.2159
  0
LINE
  8
0
 10
-49.9653
 20
38.2159
 11
-48.9271
 21
41.4112
  0
LINE
  8
0
 10
-48.9271
 20
41.4112
 11
-48.6076
 21
40.7054
  0
LINE
  8
0
 10
-48.6076
 20
40.7054
 11
-47.7246
 21
38.9453
  0
LINE
  8
0
 10
-47.7246
 20
38.9453
 11
-46.8164
 21
37.3193
  0
LINE
  8
0
 10
-46.8164
 20
37.3193
 11
-45.883
 21
35.8293
  0
LINE
  8
0
 10
-45.883
 20
35.8293
 11
-44.9245
 21
34.4739
  0
LINE
  8
0
 10
-44.9245
 20
34.4739
 11
-43.9407
 21
33.253
  0
LINE
  8
0
 10
-43.9407
 20
33.253
 11
-42.9323
 21
32.1681
  0
LINE
  8
0
 10
-42.9323
 20
32.1681
 11
-41.8977
 21
31.2173
  0
LINE
  8
0
 10
-41.8977
 20
31.2173
 11
-40.8394
 21
30.4021
  0
LINE
  8
0
 10
-40.8394
 20
30.4021
 11
-39.7549
 21
29.7218
  0
LINE
  8
0
 10
-39.7549
 20
29.7218
 11
-38.6554
 21
29.1812
  0
LINE
  8
0
 10
-38.6554
 20
29.1812
 11
-40.2827
 21
28.9771
  0
LINE
  8
0
 10
-40.2827
 20
28.9771
 11
-41.8309
 21
29.0887
  0
LINE
  8
0
 10
38.6554
 20
29.1812
 11
39.7549
 21
29.7218
  0
LINE
  8
0
 10
39.7549
 20
29.7218
 11
40.8389
 21
30.4016
  0
LINE
  8
0
 10
40.8389
 20
30.4016
 11
41.8977
 21
31.2173
  0
LINE
  8
0
 10
41.8977
 20
31.2173
 11
42.9318
 21
32.1677
  0
LINE
  8
0
 10
42.9318
 20
32.1677
 11
43.9407
 21
33.253
  0
LINE
  8
0
 10
43.9407
 20
33.253
 11
44.924
 21
34.4734
  0
LINE
  8
0
 10
44.924
 20
34.4734
 11
45.8826
 21
35.8289
  0
LINE
  8
0
 10
45.8826
 20
35.8289
 11
46.8164
 21
37.3193
  0
LINE
  8
0
 10
46.8164
 20
37.3193
 11
47.7246
 21
38.9449
  0
LINE
  8
0
 10
47.7246
 20
38.9449
 11
48.6076
 21
40.705
  0
LINE
  8
0
 10
48.6076
 20
40.705
 11
48.9272
 21
41.411
  0
LINE
  8
0
 10
48.9272
 20
41.411
 11
49.9655
 21
38.2155
  0
LINE
  8
0
 10
49.9655
 20
38.2155
 11
49.2476
 21
36.4079
  0
LINE
  8
0
 10
49.2476
 20
36.4079
 11
48.2341
 21
34.3956
  0
LINE
  8
0
 10
48.2341
 20
34.3956
 11
47.1313
 21
32.7014
  0
LINE
  8
0
 10
47.1313
 20
32.7014
 11
45.9398
 21
31.3226
  0
LINE
  8
0
 10
45.9398
 20
31.3226
 11
44.659
 21
30.262
  0
LINE
  8
0
 10
44.659
 20
30.262
 11
43.2889
 21
29.5168
  0
LINE
  8
0
 10
43.2889
 20
29.5168
 11
41.8309
 21
29.0887
  0
LINE
  8
0
 10
41.8309
 20
29.0887
 11
40.2827
 21
28.9771
  0
LINE
  8
0
 10
40.2827
 20
28.9771
 11
38.6554
 21
29.1812
  0
LINE
  8
0
 10
-54.4863
 20
12
 11
-54.5306
 21
12.411
  0
LINE
  8
0
 10
-54.5306
 20
12.411
 11
-54.9431
 21
15.0839
  0
LINE
  8
0
 10
-54.9431
 20
15.0839
 11
-55.4521
 21
17.5096
  0
LINE
  8
0
 10
-55.4521
 20
17.5096
 11
-56.0242
 21
19.5688
  0
LINE
  8
0
 10
-56.0242
 20
19.5688
 11
-51.2229
 21
34.3457
  0
LINE
  8
0
 10
-51.2229
 20
34.3457
 11
-50.4419
 21
32.6991
  0
LINE
  8
0
 10
-50.4419
 20
32.6991
 11
-49.5474
 21
31.2631
  0
LINE
  8
0
 10
-49.5474
 20
31.2631
 11
-48.5555
 21
30.0752
  0
LINE
  8
0
 10
-48.5555
 20
30.0752
 11
-47.4669
 21
29.135
  0
LINE
  8
0
 10
-47.4669
 20
29.135
 11
-46.2822
 21
28.4419
  0
LINE
  8
0
 10
-46.2822
 20
28.4419
 11
-45.0096
 21
28.0002
  0
LINE
  8
0
 10
-45.0096
 20
28.0002
 11
-46.2822
 21
27.5584
  0
LINE
  8
0
 10
-46.2822
 20
27.5584
 11
-47.4669
 21
26.8654
  0
LINE
  8
0
 10
-47.4669
 20
26.8654
 11
-48.5555
 21
25.9251
  0
LINE
  8
0
 10
-48.5555
 20
25.9251
 11
-49.547
 21
24.7372
  0
LINE
  8
0
 10
-49.547
 20
24.7372
 11
-50.4419
 21
23.3017
  0
LINE
  8
0
 10
-50.4419
 20
23.3017
 11
-51.2402
 21
21.6185
  0
LINE
  8
0
 10
-51.2402
 20
21.6185
 11
-51.942
 21
19.6881
  0
LINE
  8
0
 10
-51.942
 20
19.6881
 11
-52.5471
 21
17.5101
  0
LINE
  8
0
 10
-52.5471
 20
17.5101
 11
-53.0557
 21
15.0844
  0
LINE
  8
0
 10
-53.0557
 20
15.0844
 11
-53.4682
 21
12.411
  0
LINE
  8
0
 10
-53.4682
 20
12.411
 11
-53.5126
 21
12
  0
LINE
  8
0
 10
-53.5126
 20
12
 11
-54.4863
 21
12
  0
LINE
  8
0
 10
53.513
 20
12
 11
53.4686
 21
12.411
  0
LINE
  8
0
 10
53.4686
 20
12.411
 11
53.0562
 21
15.0839
  0
LINE
  8
0
 10
53.0562
 20
15.0839
 11
52.5471
 21
17.5096
  0
LINE
  8
0
 10
52.5471
 20
17.5096
 11
51.942
 21
19.6881
  0
LINE
  8
0
 10
51.942
 20
19.6881
 11
51.2402
 21
21.618
  0
LINE
  8
0
 10
51.2402
 20
21.618
 11
50.4419
 21
23.3012
  0
LINE
  8
0
 10
50.4419
 20
23.3012
 11
49.5474
 21
24.7372
  0
LINE
  8
0
 10
49.5474
 20
24.7372
 11
48.5555
 21
25.9251
  0
LINE
  8
0
 10
48.5555
 20
25.9251
 11
47.4669
 21
26.8654
  0
LINE
  8
0
 10
47.4669
 20
26.8654
 11
46.2822
 21
27.5584
  0
LINE
  8
0
 10
46.2822
 20
27.5584
 11
45.0096
 21
28.0002
  0
LINE
  8
0
 10
45.0096
 20
28.0002
 11
46.2822
 21
28.4419
  0
LINE
  8
0
 10
46.2822
 20
28.4419
 11
47.4669
 21
29.135
  0
LINE
  8
0
 10
47.4669
 20
29.135
 11
48.5555
 21
30.0752
  0
LINE
  8
0
 10
48.5555
 20
30.0752
 11
49.547
 21
31.2631
  0
LINE
  8
0
 10
49.547
 20
31.2631
 11
50.4419
 21
32.6987
  0
LINE
  8
0
 10
50.4419
 20
32.6987
 11
51.2229
 21
34.3454
  0
LINE
  8
0
 10
51.2229
 20
34.3454
 11
56.0241
 21
19.5688
  0
LINE
  8
0
 10
56.0241
 20
19.5688
 11
55.4521
 21
17.5101
  0
LINE
  8
0
 10
55.4521
 20
17.5101
 11
54.9435
 21
15.0844
  0
LINE
  8
0
 10
54.9435
 20
15.0844
 11
54.5311
 21
12.411
  0
LINE
  8
0
 10
54.5311
 20
12.411
 11
54.4866
 21
12
  0
LINE
  8
0
 10
54.4866
 20
12
 11
53.513
 21
12
  0
LINE
  8
0
 10
-15.6683
 20
12
 11
-15.0082
 21
14.6188
  0
LINE
  8
0
 10
-15.0082
 20
14.6188
 11
-14.1724
 21
17.2638
  0
LINE
  8
0
 10
-14.1724
 20
17.2638
 11
-13.2477
 21
19.5924
  0
LINE
  8
0
 10
-13.2477
 20
19.5924
 11
-12.2346
 21
21.6039
  0
LINE
  8
0
 10
-12.2346
 20
21.6039
 11
-11.1314
 21
23.299
  0
LINE
  8
0
 10
-11.1314
 20
23.299
 11
-9.94034
 21
24.6773
  0
LINE
  8
0
 10
-9.94034
 20
24.6773
 11
-8.65906
 21
25.7384
  0
LINE
  8
0
 10
-8.65906
 20
25.7384
 11
-7.28897
 21
26.4836
  0
LINE
  8
0
 10
-7.28897
 20
26.4836
 11
-5.83099
 21
26.9116
  0
LINE
  8
0
 10
-5.83099
 20
26.9116
 11
-4.28284
 21
27.0233
  0
LINE
  8
0
 10
-4.28284
 20
27.0233
 11
-2.65549
 21
26.8192
  0
LINE
  8
0
 10
-2.65549
 20
26.8192
 11
-3.75504
 21
26.2785
  0
LINE
  8
0
 10
-3.75504
 20
26.2785
 11
-4.83902
 21
25.5988
  0
LINE
  8
0
 10
-4.83902
 20
25.5988
 11
-5.89783
 21
24.783
  0
LINE
  8
0
 10
-5.89783
 20
24.783
 11
-6.93192
 21
23.8327
  0
LINE
  8
0
 10
-6.93192
 20
23.8327
 11
-7.94083
 21
22.7473
  0
LINE
  8
0
 10
-7.94083
 20
22.7473
 11
-8.9241
 21
21.5269
  0
LINE
  8
0
 10
-8.9241
 20
21.5269
 11
-9.88266
 21
20.1715
  0
LINE
  8
0
 10
-9.88266
 20
20.1715
 11
-10.8165
 21
18.681
  0
LINE
  8
0
 10
-10.8165
 20
18.681
 11
-11.7247
 21
17.0555
  0
LINE
  8
0
 10
-11.7247
 20
17.0555
 11
-12.6077
 21
15.2954
  0
LINE
  8
0
 10
-12.6077
 20
15.2954
 11
-13.4656
 21
13.4003
  0
LINE
  8
0
 10
-13.4656
 20
13.4003
 11
-14.0402
 21
12
  0
LINE
  8
0
 10
-14.0402
 20
12
 11
-15.6683
 21
12
  0
LINE
  8
0
 10
20.3311
 20
12
 11
20.9912
 21
14.6188
  0
LINE
  8
0
 10
20.9912
 20
14.6188
 11
21.8271
 21
17.2638
  0
LINE
  8
0
 10
21.8271
 20
17.2638
 11
22.7518
 21
19.5924
  0
LINE
  8
0
 10
22.7518
 20
19.5924
 11
23.7648
 21
21.6039
  0
LINE
  8
0
 10
23.7648
 20
21.6039
 11
24.868
 21
23.299
  0
LINE
  8
0
 10
24.868
 20
23.299
 11
26.0591
 21
24.6773
  0
LINE
  8
0
 10
26.0591
 20
24.6773
 11
27.3404
 21
25.7384
  0
LINE
  8
0
 10
27.3404
 20
25.7384
 11
28.7105
 21
26.4836
  0
LINE
  8
0
 10
28.7105
 20
26.4836
 11
30.1685
 21
26.9116
  0
LINE
  8
0
 10
30.1685
 20
26.9116
 11
31.7166
 21
27.0233
  0
LINE
  8
0
 10
31.7166
 20
27.0233
 11
33.344
 21
26.8192
  0
LINE
  8
0
 10
33.344
 20
26.8192
 11
32.2444
 21
26.2785
  0
LINE
  8
0
 10
32.2444
 20
26.2785
 11
31.1604
 21
25.5988
  0
LINE
  8
0
 10
31.1604
 20
25.5988
 11
30.1016
 21
24.783
  0
LINE
  8
0
 10
30.1016
 20
24.783
 11
29.0675
 21
23.8327
  0
LINE
  8
0
 10
29.0675
 20
23.8327
 11
28.0586
 21
22.7473
  0
LINE
  8
0
 10
28.0586
 20
22.7473
 11
27.0753
 21
21.5269
  0
LINE
  8
0
 10
27.0753
 20
21.5269
 11
26.1168
 21
20.1715
  0
LINE
  8
0
 10
26.1168
 20
20.1715
 11
25.183
 21
18.681
  0
LINE
  8
0
 10
25.183
 20
18.681
 11
24.2747
 21
17.0555
  0
LINE
  8
0
 10
24.2747
 20
17.0555
 11
23.3917
 21
15.2954
  0
LINE
  8
0
 10
23.3917
 20
15.2954
 11
22.5339
 21
13.4003
  0
LINE
  8
0
 10
22.5339
 20
13.4003
 11
21.9592
 21
12
  0
LINE
  8
0
 10
21.9592
 20
12
 11
20.3311
 21
12
  0
LINE
  8
0
 10
-21.9594
 20
12
 11
-22.5339
 21
13.3998
  0
LINE
  8
0
 10
-22.5339
 20
13.3998
 11
-23.3917
 21
15.295
  0
LINE
  8
0
 10
-23.3917
 20
15.295
 11
-24.2747
 21
17.0551
  0
LINE
  8
0
 10
-24.2747
 20
17.0551
 11
-25.183
 21
18.681
  0
LINE
  8
0
 10
-25.183
 20
18.681
 11
-26.1163
 21
20.1711
  0
LINE
  8
0
 10
-26.1163
 20
20.1711
 11
-27.0749
 21
21.5265
  0
LINE
  8
0
 10
-27.0749
 20
21.5265
 11
-28.0586
 21
22.7473
  0
LINE
  8
0
 10
-28.0586
 20
22.7473
 11
-29.0671
 21
23.8322
  0
LINE
  8
0
 10
-29.0671
 20
23.8322
 11
-30.1016
 21
24.783
  0
LINE
  8
0
 10
-30.1016
 20
24.783
 11
-31.16
 21
25.5983
  0
LINE
  8
0
 10
-31.16
 20
25.5983
 11
-32.2444
 21
26.2785
  0
LINE
  8
0
 10
-32.2444
 20
26.2785
 11
-33.344
 21
26.8192
  0
LINE
  8
0
 10
-33.344
 20
26.8192
 11
-31.7166
 21
27.0233
  0
LINE
  8
0
 10
-31.7166
 20
27.0233
 11
-30.1685
 21
26.9116
  0
LINE
  8
0
 10
-30.1685
 20
26.9116
 11
-28.7105
 21
26.4836
  0
LINE
  8
0
 10
-28.7105
 20
26.4836
 11
-27.3404
 21
25.7384
  0
LINE
  8
0
 10
-27.3404
 20
25.7384
 11
-26.0591
 21
24.6773
  0
LINE
  8
0
 10
-26.0591
 20
24.6773
 11
-24.868
 21
23.299
  0
LINE
  8
0
 10
-24.868
 20
23.299
 11
-23.7648
 21
21.6039
  0
LINE
  8
0
 10
-23.7648
 20
21.6039
 11
-22.7518
 21
19.592
  0
LINE
  8
0
 10
-22.7518
 20
19.592
 11
-21.8271
 21
17.2633
  0
LINE
  8
0
 10
-21.8271
 20
17.2633
 11
-20.9912
 21
14.6184
  0
LINE
  8
0
 10
-20.9912
 20
14.6184
 11
-20.3313
 21
12
  0
LINE
  8
0
 10
-20.3313
 20
12
 11
-21.9594
 21
12
  0
LINE
  8
0
 10
14.0401
 20
12
 11
13.4656
 21
13.3998
  0
LINE
  8
0
 10
13.4656
 20
13.3998
 11
12.6077
 21
15.295
  0
LINE
  8
0
 10
12.6077
 20
15.295
 11
11.7247
 21
17.0551
  0
LINE
  8
0
 10
11.7247
 20
17.0551
 11
10.8165
 21
18.681
  0
LINE
  8
0
 10
10.8165
 20
18.681
 11
9.88312
 21
20.1711
  0
LINE
  8
0
 10
9.88312
 20
20.1711
 11
8.92456
 21
21.5265
  0
LINE
  8
0
 10
8.92456
 20
21.5265
 11
7.94083
 21
22.7473
  0
LINE
  8
0
 10
7.94083
 20
22.7473
 11
6.93237
 21
23.8322
  0
LINE
  8
0
 10
6.93237
 20
23.8322
 11
5.89783
 21
24.783
  0
LINE
  8
0
 10
5.89783
 20
24.783
 11
4.83948
 21
25.5983
  0
LINE
  8
0
 10
4.83948
 20
25.5983
 11
3.75504
 21
26.2785
  0
LINE
  8
0
 10
3.75504
 20
26.2785
 11
2.65549
 21
26.8192
  0
LINE
  8
0
 10
2.65549
 20
26.8192
 11
4.28284
 21
27.0233
  0
LINE
  8
0
 10
4.28284
 20
27.0233
 11
5.83099
 21
26.9116
  0
LINE
  8
0
 10
5.83099
 20
26.9116
 11
7.28897
 21
26.4836
  0
LINE
  8
0
 10
7.28897
 20
26.4836
 11
8.65906
 21
25.7384
  0
LINE
  8
0
 10
8.65906
 20
25.7384
 11
9.94034
 21
24.6773
  0
LINE
  8
0
 10
9.94034
 20
24.6773
 11
11.1314
 21
23.299
  0
LINE
  8
0
 10
11.1314
 20
23.299
 11
12.2346
 21
21.6039
  0
LINE
  8
0
 10
12.2346
 20
21.6039
 11
13.2477
 21
19.592
  0
LINE
  8
0
 10
13.2477
 20
19.592
 11
14.1724
 21
17.2633
  0
LINE
  8
0
 10
14.1724
 20
17.2633
 11
15.0082
 21
14.6184
  0
LINE
  8
0
 10
15.0082
 20
14.6184
 11
15.6682
 21
12
  0
LINE
  8
0
 10
15.6682
 20
12
 11
14.0401
 21
12
  0
LINE
  8
0
 10
-51.6682
 20
12
 11
-51.0081
 21
14.6188
  0
LINE
  8
0
 10
-51.0081
 20
14.6188
 11
-50.1723
 21
17.2638
  0
LINE
  8
0
 10
-50.1723
 20
17.2638
 11
-49.2476
 21
19.5924
  0
LINE
  8
0
 10
-49.2476
 20
19.5924
 11
-48.2346
 21
21.6039
  0
LINE
  8
0
 10
-48.2346
 20
21.6039
 11
-47.1313
 21
23.299
  0
LINE
  8
0
 10
-47.1313
 20
23.299
 11
-45.9402
 21
24.6773
  0
LINE
  8
0
 10
-45.9402
 20
24.6773
 11
-44.659
 21
25.7384
  0
LINE
  8
0
 10
-44.659
 20
25.7384
 11
-43.2889
 21
26.4836
  0
LINE
  8
0
 10
-43.2889
 20
26.4836
 11
-41.8309
 21
26.9116
  0
LINE
  8
0
 10
-41.8309
 20
26.9116
 11
-40.2827
 21
27.0233
  0
LINE
  8
0
 10
-40.2827
 20
27.0233
 11
-38.6554
 21
26.8192
  0
LINE
  8
0
 10
-38.6554
 20
26.8192
 11
-39.7549
 21
26.2785
  0
LINE
  8
0
 10
-39.7549
 20
26.2785
 11
-40.8389
 21
25.5988
  0
LINE
  8
0
 10
-40.8389
 20
25.5988
 11
-41.8977
 21
24.783
  0
LINE
  8
0
 10
-41.8977
 20
24.783
 11
-42.9318
 21
23.8327
  0
LINE
  8
0
 10
-42.9318
 20
23.8327
 11
-43.9407
 21
22.7473
  0
LINE
  8
0
 10
-43.9407
 20
22.7473
 11
-44.924
 21
21.5269
  0
LINE
  8
0
 10
-44.924
 20
21.5269
 11
-45.8826
 21
20.1715
  0
LINE
  8
0
 10
-45.8826
 20
20.1715
 11
-46.8164
 21
18.681
  0
LINE
  8
0
 10
-46.8164
 20
18.681
 11
-47.7246
 21
17.0555
  0
LINE
  8
0
 10
-47.7246
 20
17.0555
 11
-48.6076
 21
15.2954
  0
LINE
  8
0
 10
-48.6076
 20
15.2954
 11
-49.4655
 21
13.4003
  0
LINE
  8
0
 10
-49.4655
 20
13.4003
 11
-50.0401
 21
12
  0
LINE
  8
0
 10
-50.0401
 20
12
 11
-51.6682
 21
12
  0
LINE
  8
0
 10
50.04
 20
12
 11
49.4655
 21
13.3998
  0
LINE
  8
0
 10
49.4655
 20
13.3998
 11
48.6076
 21
15.295
  0
LINE
  8
0
 10
48.6076
 20
15.295
 11
47.7246
 21
17.0551
  0
LINE
  8
0
 10
47.7246
 20
17.0551
 11
46.8164
 21
18.681
  0
LINE
  8
0
 10
46.8164
 20
18.681
 11
45.883
 21
20.1711
  0
LINE
  8
0
 10
45.883
 20
20.1711
 11
44.9245
 21
21.5265
  0
LINE
  8
0
 10
44.9245
 20
21.5265
 11
43.9407
 21
22.7473
  0
LINE
  8
0
 10
43.9407
 20
22.7473
 11
42.9323
 21
23.8322
  0
LINE
  8
0
 10
42.9323
 20
23.8322
 11
41.8977
 21
24.783
  0
LINE
  8
0
 10
41.8977
 20
24.783
 11
40.8394
 21
25.5983
  0
LINE
  8
0
 10
40.8394
 20
25.5983
 11
39.7549
 21
26.2785
  0
LINE
  8
0
 10
39.7549
 20
26.2785
 11
38.6554
 21
26.8192
  0
LINE
  8
0
 10
38.6554
 20
26.8192
 11
40.2827
 21
27.0233
  0
LINE
  8
0
 10
40.2827
 20
27.0233
 11
41.8309
 21
26.9116
  0
LINE
  8
0
 10
41.8309
 20
26.9116
 11
43.2889
 21
26.4836
  0
LINE
  8
0
 10
43.2889
 20
26.4836
 11
44.659
 21
25.7384
  0
LINE
  8
0
 10
44.659
 20
25.7384
 11
45.9402
 21
24.6773
  0
LINE
  8
0
 10
45.9402
 20
24.6773
 11
47.1313
 21
23.299
  0
LINE
  8
0
 10
47.1313
 20
23.299
 11
48.2346
 21
21.6039
  0
LINE
  8
0
 10
48.2346
 20
21.6039
 11
49.2476
 21
19.592
  0
LINE
  8
0
 10
49.2476
 20
19.592
 11
50.1723
 21
17.2633
  0
LINE
  8
0
 10
50.1723
 20
17.2633
 11
51.0081
 21
14.6184
  0
LINE
  8
0
 10
51.0081
 20
14.6184
 11
51.6681
 21
12
  0
LINE
  8
0
 10
51.6681
 20
12
 11
50.04
 21
12
  0
LINE
  8
0
 10
33.8288
 20
12
 11
33.9423
 21
12.3122
  0
LINE
  8
0
 10
33.9423
 20
12.3122
 11
34.5474
 21
14.4902
  0
LINE
  8
0
 10
34.5474
 20
14.4902
 11
35.056
 21
16.9159
  0
LINE
  8
0
 10
35.056
 20
16.9159
 11
35.4684
 21
19.5892
  0
LINE
  8
0
 10
35.4684
 20
19.5892
 11
35.7843
 21
22.5098
  0
LINE
  8
0
 10
35.7843
 20
22.5098
 11
35.9999
 21
25.6317
  0
LINE
  8
0
 10
35.9999
 20
25.6317
 11
36.2155
 21
22.5102
  0
LINE
  8
0
 10
36.2155
 20
22.5102
 11
36.5309
 21
19.5892
  0
LINE
  8
0
 10
36.5309
 20
19.5892
 11
36.9434
 21
16.9164
  0
LINE
  8
0
 10
36.9434
 20
16.9164
 11
37.4524
 21
14.4907
  0
LINE
  8
0
 10
37.4524
 20
14.4907
 11
38.0576
 21
12.3122
  0
LINE
  8
0
 10
38.0576
 20
12.3122
 11
38.1711
 21
12
  0
LINE
  8
0
 10
38.1711
 20
12
 11
33.8288
 21
12
  0
LINE
  8
0
 10
-2.17113
 20
12
 11
-2.05765
 21
12.3122
  0
LINE
  8
0
 10
-2.05765
 20
12.3122
 11
-1.45248
 21
14.4902
  0
LINE
  8
0
 10
-1.45248
 20
14.4902
 11
-0.943909
 21
16.9159
  0
LINE
  8
0
 10
-0.943909
 20
16.9159
 11
-0.531464
 21
19.5892
  0
LINE
  8
0
 10
-0.531464
 20
19.5892
 11
-0.215607
 21
22.5098
  0
LINE
  8
0
 10
-0.215607
 20
22.5098
 11
0
 21
25.6317
  0
LINE
  8
0
 10
0
 20
25.6317
 11
0.215607
 21
22.5102
  0
LINE
  8
0
 10
0.215607
 20
22.5102
 11
0.531006
 21
19.5892
  0
LINE
  8
0
 10
0.531006
 20
19.5892
 11
0.943451
 21
16.9164
  0
LINE
  8
0
 10
0.943451
 20
16.9164
 11
1.45248
 21
14.4907
  0
LINE
  8
0
 10
1.45248
 20
14.4907
 11
2.05765
 21
12.3122
  0
LINE
  8
0
 10
2.05765
 20
12.3122
 11
2.17116
 21
12
  0
LINE
  8
0
 10
2.17116
 20
12
 11
-2.17113
 21
12
  0
LINE
  8
0
 10
-38.171
 20
12
 11
-38.0576
 21
12.3122
  0
LINE
  8
0
 10
-38.0576
 20
12.3122
 11
-37.4524
 21
14.4902
  0
LINE
  8
0
 10
-37.4524
 20
14.4902
 11
-36.9438
 21
16.9159
  0
LINE
  8
0
 10
-36.9438
 20
16.9159
 11
-36.5314
 21
19.5892
  0
LINE
  8
0
 10
-36.5314
 20
19.5892
 11
-36.2155
 21
22.5098
  0
LINE
  8
0
 10
-36.2155
 20
22.5098
 11
-35.9999
 21
25.6317
  0
LINE
  8
0
 10
-35.9999
 20
25.6317
 11
-35.7843
 21
22.5102
  0
LINE
  8
0
 10
-35.7843
 20
22.5102
 11
-35.4689
 21
19.5892
  0
LINE
  8
0
 10
-35.4689
 20
19.5892
 11
-35.0565
 21
16.9164
  0
LINE
  8
0
 10
-35.0565
 20
16.9164
 11
-34.5474
 21
14.4907
  0
LINE
  8
0
 10
-34.5474
 20
14.4907
 11
-33.9423
 21
12.3122
  0
LINE
  8
0
 10
-33.9423
 20
12.3122
 11
-33.8288
 21
12
  0
LINE
  8
0
 10
-33.8288
 20
12
 11
-38.171
 21
12
  0
LINE
  8
0
 10
27.9901
 20
12
 11
28.8167
 21
13.3192
  0
LINE
  8
0
 10
28.8167
 20
13.3192
 11
29.7249
 21
14.9448
  0
LINE
  8
0
 10
29.7249
 20
14.9448
 11
30.6079
 21
16.7049
  0
LINE
  8
0
 10
30.6079
 20
16.7049
 11
31.4658
 21
18.6
  0
LINE
  8
0
 10
31.4658
 20
18.6
 11
32.2984
 21
20.6293
  0
LINE
  8
0
 10
32.2984
 20
20.6293
 11
34.4092
 21
23.6093
  0
LINE
  8
0
 10
34.4092
 20
23.6093
 11
33.755
 21
20.3436
  0
LINE
  8
0
 10
33.755
 20
20.3436
 11
33.0084
 21
17.3814
  0
LINE
  8
0
 10
33.0084
 20
17.3814
 11
32.1725
 21
14.736
  0
LINE
  8
0
 10
32.1725
 20
14.736
 11
31.2479
 21
12.4078
  0
LINE
  8
0
 10
31.2479
 20
12.4078
 11
31.0425
 21
12
  0
LINE
  8
0
 10
31.0425
 20
12
 11
27.9901
 21
12
  0
LINE
  8
0
 10
4.95763
 20
12
 11
4.75204
 21
12.4083
  0
LINE
  8
0
 10
4.75204
 20
12.4083
 11
3.82736
 21
14.7369
  0
LINE
  8
0
 10
3.82736
 20
14.7369
 11
2.99149
 21
17.3819
  0
LINE
  8
0
 10
2.99149
 20
17.3819
 11
2.24487
 21
20.3441
  0
LINE
  8
0
 10
2.24487
 20
20.3441
 11
1.59073
 21
23.6093
  0
LINE
  8
0
 10
1.59073
 20
23.6093
 11
3.70148
 21
20.6293
  0
LINE
  8
0
 10
3.70148
 20
20.6293
 11
4.53415
 21
18.6005
  0
LINE
  8
0
 10
4.53415
 20
18.6005
 11
5.392
 21
16.7053
  0
LINE
  8
0
 10
5.392
 20
16.7053
 11
6.27502
 21
14.9452
  0
LINE
  8
0
 10
6.27502
 20
14.9452
 11
7.18323
 21
13.3192
  0
LINE
  8
0
 10
7.18323
 20
13.3192
 11
8.00963
 21
12
  0
LINE
  8
0
 10
8.00963
 20
12
 11
4.95763
 21
12
  0
LINE
  8
0
 10
-8.00978
 20
12
 11
-7.18323
 21
13.3192
  0
LINE
  8
0
 10
-7.18323
 20
13.3192
 11
-6.27502
 21
14.9448
  0
LINE
  8
0
 10
-6.27502
 20
14.9448
 11
-5.392
 21
16.7049
  0
LINE
  8
0
 10
-5.392
 20
16.7049
 11
-4.53415
 21
18.6
  0
LINE
  8
0
 10
-4.53415
 20
18.6
 11
-3.70148
 21
20.6293
  0
LINE
  8
0
 10
-3.70148
 20
20.6293
 11
-1.59073
 21
23.6093
  0
LINE
  8
0
 10
-1.59073
 20
23.6093
 11
-2.24487
 21
20.3436
  0
LINE
  8
0
 10
-2.24487
 20
20.3436
 11
-2.99149
 21
17.3814
  0
LINE
  8
0
 10
-2.99149
 20
17.3814
 11
-3.82736
 21
14.736
  0
LINE
  8
0
 10
-3.82736
 20
14.736
 11
-4.75204
 21
12.4078
  0
LINE
  8
0
 10
-4.75204
 20
12.4078
 11
-4.95744
 21
12
  0
LINE
  8
0
 10
-4.95744
 20
12
 11
-8.00978
 21
12
  0
LINE
  8
0
 10
40.9575
 20
12
 11
40.752
 21
12.4083
  0
LINE
  8
0
 10
40.752
 20
12.4083
 11
39.8273
 21
14.7369
  0
LINE
  8
0
 10
39.8273
 20
14.7369
 11
38.9914
 21
17.3819
  0
LINE
  8
0
 10
38.9914
 20
17.3819
 11
38.2448
 21
20.3441
  0
LINE
  8
0
 10
38.2448
 20
20.3441
 11
37.5906
 21
23.6093
  0
LINE
  8
0
 10
37.5906
 20
23.6093
 11
39.7014
 21
20.6293
  0
LINE
  8
0
 10
39.7014
 20
20.6293
 11
40.5341
 21
18.6005
  0
LINE
  8
0
 10
40.5341
 20
18.6005
 11
41.3919
 21
16.7053
  0
LINE
  8
0
 10
41.3919
 20
16.7053
 11
42.2749
 21
14.9452
  0
LINE
  8
0
 10
42.2749
 20
14.9452
 11
43.1831
 21
13.3192
  0
LINE
  8
0
 10
43.1831
 20
13.3192
 11
44.0095
 21
12
  0
LINE
  8
0
 10
44.0095
 20
12
 11
40.9575
 21
12
  0
LINE
  8
0
 10
-31.0423
 20
12
 11
-31.2479
 21
12.4083
  0
LINE
  8
0
 10
-31.2479
 20
12.4083
 11
-32.1725
 21
14.7369
  0
LINE
  8
0
 10
-32.1725
 20
14.7369
 11
-33.0084
 21
17.3819
  0
LINE
  8
0
 10
-33.0084
 20
17.3819
 11
-33.755
 21
20.3441
  0
LINE
  8
0
 10
-33.755
 20
20.3441
 11
-34.4092
 21
23.6093
  0
LINE
  8
0
 10
-34.4092
 20
23.6093
 11
-32.2984
 21
20.6293
  0
LINE
  8
0
 10
-32.2984
 20
20.6293
 11
-31.4658
 21
18.6005
  0
LINE
  8
0
 10
-31.4658
 20
18.6005
 11
-30.6079
 21
16.7053
  0
LINE
  8
0
 10
-30.6079
 20
16.7053
 11
-29.7249
 21
14.9452
  0
LINE
  8
0
 10
-29.7249
 20
14.9452
 11
-28.8167
 21
13.3192
  0
LINE
  8
0
 10
-28.8167
 20
13.3192
 11
-27.9903
 21
12
  0
LINE
  8
0
 10
-27.9903
 20
12
 11
-31.0423
 21
12
  0
LINE
  8
0
 10
-44.0097
 20
12
 11
-43.1831
 21
13.3192
  0
LINE
  8
0
 10
-43.1831
 20
13.3192
 11
-42.2749
 21
14.9448
  0
LINE
  8
0
 10
-42.2749
 20
14.9448
 11
-41.3919
 21
16.7049
  0
LINE
  8
0
 10
-41.3919
 20
16.7049
 11
-40.5341
 21
18.6
  0
LINE
  8
0
 10
-40.5341
 20
18.6
 11
-39.7014
 21
20.6293
  0
LINE
  8
0
 10
-39.7014
 20
20.6293
 11
-37.5906
 21
23.6093
  0
LINE
  8
0
 10
-37.5906
 20
23.6093
 11
-38.2448
 21
20.3436
  0
LINE
  8
0
 10
-38.2448
 20
20.3436
 11
-38.9914
 21
17.3814
  0
LINE
  8
0
 10
-38.9914
 20
17.3814
 11
-39.8273
 21
14.736
  0
LINE
  8
0
 10
-39.8273
 20
14.736
 11
-40.752
 21
12.4078
  0
LINE
  8
0
 10
-40.752
 20
12.4078
 11
-40.9574
 21
12
  0
LINE
  8
0
 10
-40.9574
 20
12
 11
-44.0097
 21
12
  0
LINE
  8
0
 10
56.3311
 20
12
 11
56.9911
 21
14.6188
  0
LINE
  8
0
 10
56.9911
 20
14.6188
 11
57.3074
 21
15.6195
  0
LINE
  8
0
 10
57.3074
 20
15.6195
 11
58.2517
 21
12.713
  0
LINE
  8
0
 10
58.2517
 20
12.713
 11
57.9592
 21
12
  0
LINE
  8
0
 10
57.9592
 20
12
 11
56.3311
 21
12
  0
LINE
  8
0
 10
-57.9593
 20
12
 11
-58.2518
 21
12.7128
  0
LINE
  8
0
 10
-58.2518
 20
12.7128
 11
-57.3074
 21
15.6193
  0
LINE
  8
0
 10
-57.3074
 20
15.6193
 11
-56.9911
 21
14.6184
  0
LINE
  8
0
 10
-56.9911
 20
14.6184
 11
-56.3312
 21
12
  0
LINE
  8
0
 10
-56.3312
 20
12
 11
-57.9593
 21
12
  0
LINE
  8
0
 10
-10
 20
7
 11
-10
 21
11
  0
LINE
  8
0
 10
-10
 20
11
 11
10
 21
11
  0
LINE
  8
0
 10
10
 20
11
 11
10
 21
7
  0
LINE
  8
0
 10
10
 20
7
 11
-10
 21
7
  0
LINE
  8
0
 10
-68.6534
 20
2.70622
 11
-68.7785
 21
2.71805
  0
LINE
  8
0
 10
-68.7785
 20
2.71805
 11
-68.9026
 21
2.7377
  0
LINE
  8
0
 10
-68.9026
 20
2.7377
 11
-69.0252
 21
2.76511
  0
LINE
  8
0
 10
-69.0252
 20
2.76511
 11
-69.1459
 21
2.80016
  0
LINE
  8
0
 10
-69.1459
 20
2.80016
 11
-69.2641
 21
2.84273
  0
LINE
  8
0
 10
-69.2641
 20
2.84273
 11
-69.3794
 21
2.89262
  0
LINE
  8
0
 10
-69.3794
 20
2.89262
 11
-69.4914
 21
2.94966
  0
LINE
  8
0
 10
-69.4914
 20
2.94966
 11
-69.5995
 21
3.01363
  0
LINE
  8
0
 10
-69.5995
 20
3.01363
 11
-69.7034
 21
3.08424
  0
LINE
  8
0
 10
-69.7034
 20
3.08424
 11
-69.8027
 21
3.16125
  0
LINE
  8
0
 10
-69.8027
 20
3.16125
 11
-69.897
 21
3.24434
  0
LINE
  8
0
 10
-69.897
 20
3.24434
 11
-69.9858
 21
3.33318
  0
LINE
  8
0
 10
-69.9858
 20
3.33318
 11
-70.0689
 21
3.42743
  0
LINE
  8
0
 10
-70.0689
 20
3.42743
 11
-70.1459
 21
3.5267
  0
LINE
  8
0
 10
-70.1459
 20
3.5267
 11
-70.2165
 21
3.63062
  0
LINE
  8
0
 10
-70.2165
 20
3.63062
 11
-70.2805
 21
3.73877
  0
LINE
  8
0
 10
-70.2805
 20
3.73877
 11
-70.3375
 21
3.85072
  0
LINE
  8
0
 10
-70.3375
 20
3.85072
 11
-70.3874
 21
3.96602
  0
LINE
  8
0
 10
-70.3874
 20
3.96602
 11
-70.43
 21
4.08424
  0
LINE
  8
0
 10
-70.43
 20
4.08424
 11
-70.465
 21
4.2049
  0
LINE
  8
0
 10
-70.465
 20
4.2049
 11
-70.4924
 21
4.32751
  0
LINE
  8
0
 10
-70.4924
 20
4.32751
 11
-70.5121
 21
4.45161
  0
LINE
  8
0
 10
-70.5121
 20
4.45161
 11
-70.5239
 21
4.57669
  0
LINE
  8
0
 10
-70.5239
 20
4.57669
 11
-70.5279
 21
4.70227
  0
LINE
  8
0
 10
-70.5279
 20
4.70227
 11
-70.5239
 21
4.82785
  0
LINE
  8
0
 10
-70.5239
 20
4.82785
 11
-70.5121
 21
4.95294
  0
LINE
  8
0
 10
-70.5121
 20
4.95294
 11
-70.4924
 21
5.07704
  0
LINE
  8
0
 10
-70.4924
 20
5.07704
 11
-70.465
 21
5.19966
  0
LINE
  8
0
 10
-70.465
 20
5.19966
 11
-70.43
 21
5.32031
  0
LINE
  8
0
 10
-70.43
 20
5.32031
 11
-70.3874
 21
5.43852
  0
LINE
  8
0
 10
-70.3874
 20
5.43852
 11
-70.3375
 21
5.55383
  0
LINE
  8
0
 10
-70.3375
 20
5.55383
 11
-70.2805
 21
5.66579
  0
LINE
  8
0
 10
-70.2805
 20
5.66579
 11
-70.2165
 21
5.77393
  0
LINE
  8
0
 10
-70.2165
 20
5.77393
 11
-70.1459
 21
5.87784
  0
LINE
  8
0
 10
-70.1459
 20
5.87784
 11
-70.0689
 21
5.97713
  0
LINE
  8
0
 10
-70.0689
 20
5.97713
 11
-69.9858
 21
6.07137
  0
LINE
  8
0
 10
-69.9858
 20
6.07137
 11
-69.897
 21
6.16022
  0
LINE
  8
0
 10
-69.897
 20
6.16022
 11
-69.8027
 21
6.2433
  0
LINE
  8
0
 10
-69.8027
 20
6.2433
 11
-69.7034
 21
6.32031
  0
LINE
  8
0
 10
-69.7034
 20
6.32031
 11
-69.5995
 21
6.39093
  0
LINE
  8
0
 10
-69.5995
 20
6.39093
 11
-69.4914
 21
6.4549
  0
LINE
  8
0
 10
-69.4914
 20
6.4549
 11
-69.3794
 21
6.51193
  0
LINE
  8
0
 10
-69.3794
 20
6.51193
 11
-69.2641
 21
6.56183
  0
LINE
  8
0
 10
-69.2641
 20
6.56183
 11
-69.1459
 21
6.60439
  0
LINE
  8
0
 10
-69.1459
 20
6.60439
 11
-69.0252
 21
6.63943
  0
LINE
  8
0
 10
-69.0252
 20
6.63943
 11
-68.9026
 21
6.66685
  0
LINE
  8
0
 10
-68.9026
 20
6.66685
 11
-68.7785
 21
6.68651
  0
LINE
  8
0
 10
-68.7785
 20
6.68651
 11
-68.6534
 21
6.69833
  0
LINE
  8
0
 10
-68.6534
 20
6.69833
 11
-68.5279
 21
6.70227
  0
LINE
  8
0
 10
-68.5279
 20
6.70227
 11
-68.4023
 21
6.69833
  0
LINE
  8
0
 10
-68.4023
 20
6.69833
 11
-68.2772
 21
6.68651
  0
LINE
  8
0
 10
-68.2772
 20
6.68651
 11
-68.1531
 21
6.66685
  0
LINE
  8
0
 10
-68.1531
 20
6.66685
 11
-68.0305
 21
6.63943
  0
LINE
  8
0
 10
-68.0305
 20
6.63943
 11
-67.9098
 21
6.60439
  0
LINE
  8
0
 10
-67.9098
 20
6.60439
 11
-67.7916
 21
6.56183
  0
LINE
  8
0
 10
-67.7916
 20
6.56183
 11
-67.6763
 21
6.51193
  0
LINE
  8
0
 10
-67.6763
 20
6.51193
 11
-67.5643
 21
6.4549
  0
LINE
  8
0
 10
-67.5643
 20
6.4549
 11
-67.4562
 21
6.39093
  0
LINE
  8
0
 10
-67.4562
 20
6.39093
 11
-67.3523
 21
6.32031
  0
LINE
  8
0
 10
-67.3523
 20
6.32031
 11
-67.253
 21
6.2433
  0
LINE
  8
0
 10
-67.253
 20
6.2433
 11
-67.1588
 21
6.16022
  0
LINE
  8
0
 10
-67.1588
 20
6.16022
 11
-67.0699
 21
6.07137
  0
LINE
  8
0
 10
-67.0699
 20
6.07137
 11
-66.9868
 21
5.97713
  0
LINE
  8
0
 10
-66.9868
 20
5.97713
 11
-66.9098
 21
5.87784
  0
LINE
  8
0
 10
-66.9098
 20
5.87784
 11
-66.8392
 21
5.77393
  0
LINE
  8
0
 10
-66.8392
 20
5.77393
 11
-66.7752
 21
5.66579
  0
LINE
  8
0
 10
-66.7752
 20
5.66579
 11
-66.7182
 21
5.55383
  0
LINE
  8
0
 10
-66.7182
 20
5.55383
 11
-66.6683
 21
5.43852
  0
LINE
  8
0
 10
-66.6683
 20
5.43852
 11
-66.6257
 21
5.32031
  0
LINE
  8
0
 10
-66.6257
 20
5.32031
 11
-66.5907
 21
5.19966
  0
LINE
  8
0
 10
-66.5907
 20
5.19966
 11
-66.5633
 21
5.07704
  0
LINE
  8
0
 10
-66.5633
 20
5.07704
 11
-66.5436
 21
4.95294
  0
LINE
  8
0
 10
-66.5436
 20
4.95294
 11
-66.5318
 21
4.82785
  0
LINE
  8
0
 10
-66.5318
 20
4.82785
 11
-66.5279
 21
4.70227
  0
LINE
  8
0
 10
-66.5279
 20
4.70227
 11
-66.5318
 21
4.57669
  0
LINE
  8
0
 10
-66.5318
 20
4.57669
 11
-66.5436
 21
4.45161
  0
LINE
  8
0
 10
-66.5436
 20
4.45161
 11
-66.5633
 21
4.32751
  0
LINE
  8
0
 10
-66.5633
 20
4.32751
 11
-66.5907
 21
4.2049
  0
LINE
  8
0
 10
-66.5907
 20
4.2049
 11
-66.6257
 21
4.08424
  0
LINE
  8
0
 10
-66.6257
 20
4.08424
 11
-66.6683
 21
3.96602
  0
LINE
  8
0
 10
-66.6683
 20
3.96602
 11
-66.7182
 21
3.85072
  0
LINE
  8
0
 10
-66.7182
 20
3.85072
 11
-66.7752
 21
3.73877
  0
LINE
  8
0
 10
-66.7752
 20
3.73877
 11
-66.8392
 21
3.63062
  0
LINE
  8
0
 10
-66.8392
 20
3.63062
 11
-66.9098
 21
3.5267
  0
LINE
  8
0
 10
-66.9098
 20
3.5267
 11
-66.9868
 21
3.42743
  0
LINE
  8
0
 10
-66.9868
 20
3.42743
 11
-67.0699
 21
3.33318
  0
LINE
  8
0
 10
-67.0699
 20
3.33318
 11
-67.1588
 21
3.24434
  0
LINE
  8
0
 10
-67.1588
 20
3.24434
 11
-67.253
 21
3.16125
  0
LINE
  8
0
 10
-67.253
 20
3.16125
 11
-67.3523
 21
3.08424
  0
LINE
  8
0
 10
-67.3523
 20
3.08424
 11
-67.4562
 21
3.01363
  0
LINE
  8
0
 10
-67.4562
 20
3.01363
 11
-67.5643
 21
2.94966
  0
LINE
  8
0
 10
-67.5643
 20
2.94966
 11
-67.6763
 21
2.89262
  0
LINE
  8
0
 10
-67.6763
 20
2.89262
 11
-67.7916
 21
2.84273
  0
LINE
  8
0
 10
-67.7916
 20
2.84273
 11
-67.9098
 21
2.80016
  0
LINE
  8
0
 10
-67.9098
 20
2.80016
 11
-68.0305
 21
2.76511
  0
LINE
  8
0
 10
-68.0305
 20
2.76511
 11
-68.1531
 21
2.7377
  0
LINE
  8
0
 10
-68.1531
 20
2.7377
 11
-68.2772
 21
2.71805
  0
LINE
  8
0
 10
-68.2772
 20
2.71805
 11
-68.4023
 21
2.70622
  0
LINE
  8
0
 10
-68.4023
 20
2.70622
 11
-68.5279
 21
2.70227
  0
LINE
  8
0
 10
-68.5279
 20
2.70227
 11
-68.6534
 21
2.70622
  0
LINE
  8
0
 10
68.4023
 20
2.70622
 11
68.2772
 21
2.71805
  0
LINE
  8
0
 10
68.2772
 20
2.71805
 11
68.1531
 21
2.7377
  0
LINE
  8
0
 10
68.1531
 20
2.7377
 11
68.0305
 21
2.76511
  0
LINE
  8
0
 10
68.0305
 20
2.76511
 11
67.9098
 21
2.80016
  0
LINE
  8
0
 10
67.9098
 20
2.80016
 11
67.7916
 21
2.84273
  0
LINE
  8
0
 10
67.7916
 20
2.84273
 11
67.6763
 21
2.89262
  0
LINE
  8
0
 10
67.6763
 20
2.89262
 11
67.5643
 21
2.94966
  0
LINE
  8
0
 10
67.5643
 20
2.94966
 11
67.4562
 21
3.01363
  0
LINE
  8
0
 10
67.4562
 20
3.01363
 11
67.3523
 21
3.08424
  0
LINE
  8
0
 10
67.3523
 20
3.08424
 11
67.253
 21
3.16125
  0
LINE
  8
0
 10
67.253
 20
3.16125
 11
67.1588
 21
3.24434
  0
LINE
  8
0
 10
67.1588
 20
3.24434
 11
67.0699
 21
3.33318
  0
LINE
  8
0
 10
67.0699
 20
3.33318
 11
66.9868
 21
3.42743
  0
LINE
  8
0
 10
66.9868
 20
3.42743
 11
66.9098
 21
3.5267
  0
LINE
  8
0
 10
66.9098
 20
3.5267
 11
66.8392
 21
3.63062
  0
LINE
  8
0
 10
66.8392
 20
3.63062
 11
66.7752
 21
3.73877
  0
LINE
  8
0
 10
66.7752
 20
3.73877
 11
66.7182
 21
3.85072
  0
LINE
  8
0
 10
66.7182
 20
3.85072
 11
66.6683
 21
3.96602
  0
LINE
  8
0
 10
66.6683
 20
3.96602
 11
66.6257
 21
4.08424
  0
LINE
  8
0
 10
66.6257
 20
4.08424
 11
66.5907
 21
4.2049
  0
LINE
  8
0
 10
66.5907
 20
4.2049
 11
66.5633
 21
4.32751
  0
LINE
  8
0
 10
66.5633
 20
4.32751
 11
66.5436
 21
4.45161
  0
LINE
  8
0
 10
66.5436
 20
4.45161
 11
66.5318
 21
4.57669
  0
LINE
  8
0
 10
66.5318
 20
4.57669
 11
66.5279
 21
4.70227
  0
LINE
  8
0
 10
66.5279
 20
4.70227
 11
66.5318
 21
4.82785
  0
LINE
  8
0
 10
66.5318
 20
4.82785
 11
66.5436
 21
4.95294
  0
LINE
  8
0
 10
66.5436
 20
4.95294
 11
66.5633
 21
5.07704
  0
LINE
  8
0
 10
66.5633
 20
5.07704
 11
66.5907
 21
5.19966
  0
LINE
  8
0
 10
66.5907
 20
5.19966
 11
66.6257
 21
5.32031
  0
LINE
  8
0
 10
66.6257
 20
5.32031
 11
66.6683
 21
5.43852
  0
LINE
  8
0
 10
66.6683
 20
5.43852
 11
66.7182
 21
5.55383
  0
LINE
  8
0
 10
66.7182
 20
5.55383
 11
66.7752
 21
5.66579
  0
LINE
  8
0
 10
66.7752
 20
5.66579
 11
66.8392
 21
5.77393
  0
LINE
  8
0
 10
66.8392
 20
5.77393
 11
66.9098
 21
5.87784
  0
LINE
  8
0
 10
66.9098
 20
5.87784
 11
66.9868
 21
5.97713
  0
LINE
  8
0
 10
66.9868
 20
5.97713
 11
67.0699
 21
6.07137
  0
LINE
  8
0
 10
67.0699
 20
6.07137
 11
67.1588
 21
6.16022
  0
LINE
  8
0
 10
67.1588
 20
6.16022
 11
67.253
 21
6.2433
  0
LINE
  8
0
 10
67.253
 20
6.2433
 11
67.3523
 21
6.32031
  0
LINE
  8
0
 10
67.3523
 20
6.32031
 11
67.4562
 21
6.39093
  0
LINE
  8
0
 10
67.4562
 20
6.39093
 11
67.5643
 21
6.4549
  0
LINE
  8
0
 10
67.5643
 20
6.4549
 11
67.6763
 21
6.51193
  0
LINE
  8
0
 10
67.6763
 20
6.51193
 11
67.7916
 21
6.56183
  0
LINE
  8
0
 10
67.7916
 20
6.56183
 11
67.9098
 21
6.60439
  0
LINE
  8
0
 10
67.9098
 20
6.60439
 11
68.0305
 21
6.63943
  0
LINE
  8
0
 10
68.0305
 20
6.63943
 11
68.1531
 21
6.66685
  0
LINE
  8
0
 10
68.1531
 20
6.66685
 11
68.2772
 21
6.68651
  0
LINE
  8
0
 10
68.2772
 20
6.68651
 11
68.4023
 21
6.69833
  0
LINE
  8
0
 10
68.4023
 20
6.69833
 11
68.5279
 21
6.70227
  0
LINE
  8
0
 10
68.5279
 20
6.70227
 11
68.6534
 21
6.69833
  0
LINE
  8
0
 10
68.6534
 20
6.69833
 11
68.7785
 21
6.68651
  0
LINE
  8
0
 10
68.7785
 20
6.68651
 11
68.9026
 21
6.66685
  0
LINE
  8
0
 10
68.9026
 20
6.66685
 11
69.0252
 21
6.63943
  0
LINE
  8
0
 10
69.0252
 20
6.63943
 11
69.1459
 21
6.60439
  0
LINE
  8
0
 10
69.1459
 20
6.60439
 11
69.2641
 21
6.56183
  0
LINE
  8
0
 10
69.2641
 20
6.56183
 11
69.3794
 21
6.51193
  0
LINE
  8
0
 10
69.3794
 20
6.51193
 11
69.4914
 21
6.4549
  0
LINE
  8
0
 10
69.4914
 20
6.4549
 11
69.5995
 21
6.39093
  0
LINE
  8
0
 10
69.5995
 20
6.39093
 11
69.7034
 21
6.32031
  0
LINE
  8
0
 10
69.7034
 20
6.32031
 11
69.8027
 21
6.2433
  0
LINE
  8
0
 10
69.8027
 20
6.2433
 11
69.897
 21
6.16022
  0
LINE
  8
0
 10
69.897
 20
6.16022
 11
69.9858
 21
6.07137
  0
LINE
  8
0
 10
69.9858
 20
6.07137
 11
70.0689
 21
5.97713
  0
LINE
  8
0
 10
70.0689
 20
5.97713
 11
70.1459
 21
5.87784
  0
LINE
  8
0
 10
70.1459
 20
5.87784
 11
70.2165
 21
5.77393
  0
LINE
  8
0
 10
70.2165
 20
5.77393
 11
70.2805
 21
5.66579
  0
LINE
  8
0
 10
70.2805
 20
5.66579
 11
70.3375
 21
5.55383
  0
LINE
  8
0
 10
70.3375
 20
5.55383
 11
70.3874
 21
5.43852
  0
LINE
  8
0
 10
70.3874
 20
5.43852
 11
70.43
 21
5.32031
  0
LINE
  8
0
 10
70.43
 20
5.32031
 11
70.465
 21
5.19966
  0
LINE
  8
0
 10
70.465
 20
5.19966
 11
70.4924
 21
5.07704
  0
LINE
  8
0
 10
70.4924
 20
5.07704
 11
70.5121
 21
4.95294
  0
LINE
  8
0
 10
70.5121
 20
4.95294
 11
70.5239
 21
4.82785
  0
LINE
  8
0
 10
70.5239
 20
4.82785
 11
70.5279
 21
4.70227
  0
LINE
  8
0
 10
70.5279
 20
4.70227
 11
70.5239
 21
4.57669
  0
LINE
  8
0
 10
70.5239
 20
4.57669
 11
70.5121
 21
4.45161
  0
LINE
  8
0
 10
70.5121
 20
4.45161
 11
70.4924
 21
4.32751
  0
LINE
  8
0
 10
70.4924
 20
4.32751
 11
70.465
 21
4.2049
  0
LINE
  8
0
 10
70.465
 20
4.2049
 11
70.43
 21
4.08424
  0
LINE
  8
0
 10
70.43
 20
4.08424
 11
70.3874
 21
3.96602
  0
LINE
  8
0
 10
70.3874
 20
3.96602
 11
70.3375
 21
3.85072
  0
LINE
  8
0
 10
70.3375
 20
3.85072
 11
70.2805
 21
3.73877
  0
LINE
  8
0
 10
70.2805
 20
3.73877
 11
70.2165
 21
3.63062
  0
LINE
  8
0
 10
70.2165
 20
3.63062
 11
70.1459
 21
3.5267
  0
LINE
  8
0
 10
70.1459
 20
3.5267
 11
70.0689
 21
3.42743
  0
LINE
  8
0
 10
70.0689
 20
3.42743
 11
69.9858
 21
3.33318
  0
LINE
  8
0
 10
69.9858
 20
3.33318
 11
69.897
 21
3.24434
  0
LINE
  8
0
 10
69.897
 20
3.24434
 11
69.8027
 21
3.16125
  0
LINE
  8
0
 10
69.8027
 20
3.16125
 11
69.7034
 21
3.08424
  0
LINE
  8
0
 10
69.7034
 20
3.08424
 11
69.5995
 21
3.01363
  0
LINE
  8
0
 10
69.5995
 20
3.01363
 11
69.4914
 21
2.94966
  0
LINE
  8
0
 10
69.4914
 20
2.94966
 11
69.3794
 21
2.89262
  0
LINE
  8
0
 10
69.3794
 20
2.89262
 11
69.2641
 21
2.84273
  0
LINE
  8
0
 10
69.2641
 20
2.84273
 11
69.1459
 21
2.80016
  0
LINE
  8
0
 10
69.1459
 20
2.80016
 11
69.0252
 21
2.76511
  0
LINE
  8
0
 10
69.0252
 20
2.76511
 11
68.9026
 21
2.7377
  0
LINE
  8
0
 10
68.9026
 20
2.7377
 11
68.7785
 21
2.71805
  0
LINE
  8
0
 10
68.7785
 20
2.71805
 11
68.6534
 21
2.70622
  0
LINE
  8
0
 10
68.6534
 20
2.70622
 11
68.5279
 21
2.70227
  0
LINE
  8
0
 10
68.5279
 20
2.70227
 11
68.4023
 21
2.70622
  0
ENDSEC
  0
SECTION
  2
OBJECTS
  0
DICTIONARY
  0
ENDSEC
  0
EOF
