  0
SECTION
  2
BLOCKS
  0
ENDSEC
  0
SECTION
  2
ENTITIES
  0
LINE
  8
0
 10
0
 20
230.826
 11
-75
 21
0
  0
LINE
  8
0
 10
-75
 20
0
 11
75
 21
0
  0
LINE
  8
0
 10
75
 20
0
 11
0
 21
230.826
  0
LINE
  8
0
 10
-0.12558
 20
212.83
 11
-0.250656
 21
212.842
  0
LINE
  8
0
 10
-0.250656
 20
212.842
 11
-0.374756
 21
212.862
  0
LINE
  8
0
 10
-0.374756
 20
212.862
 11
-0.497375
 21
212.889
  0
LINE
  8
0
 10
-0.497375
 20
212.889
 11
-0.618027
 21
212.924
  0
LINE
  8
0
 10
-0.618027
 20
212.924
 11
-0.736237
 21
212.967
  0
LINE
  8
0
 10
-0.736237
 20
212.967
 11
-0.851547
 21
213.017
  0
LINE
  8
0
 10
-0.851547
 20
213.017
 11
-0.963501
 21
213.074
  0
LINE
  8
0
 10
-0.963501
 20
213.074
 11
-1.07164
 21
213.138
  0
LINE
  8
0
 10
-1.07164
 20
213.138
 11
-1.17557
 21
213.208
  0
LINE
  8
0
 10
-1.17557
 20
213.208
 11
-1.27484
 21
213.285
  0
LINE
  8
0
 10
-1.27484
 20
213.285
 11
-1.36908
 21
213.368
  0
LINE
  8
0
 10
-1.36908
 20
213.368
 11
-1.45793
 21
213.457
  0
LINE
  8
0
 10
-1.45793
 20
213.457
 11
-1.54102
 21
213.551
  0
LINE
  8
0
 10
-1.54102
 20
213.551
 11
-1.61803
 21
213.651
  0
LINE
  8
0
 10
-1.61803
 20
213.651
 11
-1.68864
 21
213.755
  0
LINE
  8
0
 10
-1.68864
 20
213.755
 11
-1.75261
 21
213.863
  0
LINE
  8
0
 10
-1.75261
 20
213.863
 11
-1.80965
 21
213.975
  0
LINE
  8
0
 10
-1.80965
 20
213.975
 11
-1.85954
 21
214.09
  0
LINE
  8
0
 10
-1.85954
 20
214.09
 11
-1.9021
 21
214.208
  0
LINE
  8
0
 10
-1.9021
 20
214.208
 11
-1.93716
 21
214.329
  0
LINE
  8
0
 10
-1.93716
 20
214.329
 11
-1.96457
 21
214.451
  0
LINE
  8
0
 10
-1.96457
 20
214.451
 11
-1.98422
 21
214.576
  0
LINE
  8
0
 10
-1.98422
 20
214.576
 11
-1.99605
 21
214.701
  0
LINE
  8
0
 10
-1.99605
 20
214.701
 11
-2
 21
214.826
  0
LINE
  8
0
 10
-2
 20
214.826
 11
-1.99605
 21
214.952
  0
LINE
  8
0
 10
-1.99605
 20
214.952
 11
-1.98422
 21
215.077
  0
LINE
  8
0
 10
-1.98422
 20
215.077
 11
-1.96457
 21
215.201
  0
LINE
  8
0
 10
-1.96457
 20
215.201
 11
-1.93716
 21
215.324
  0
LINE
  8
0
 10
-1.93716
 20
215.324
 11
-1.9021
 21
215.444
  0
LINE
  8
0
 10
-1.9021
 20
215.444
 11
-1.85954
 21
215.562
  0
LINE
  8
0
 10
-1.85954
 20
215.562
 11
-1.80965
 21
215.678
  0
LINE
  8
0
 10
-1.80965
 20
215.678
 11
-1.75261
 21
215.79
  0
LINE
  8
0
 10
-1.75261
 20
215.79
 11
-1.68864
 21
215.898
  0
LINE
  8
0
 10
-1.68864
 20
215.898
 11
-1.61803
 21
216.002
  0
LINE
  8
0
 10
-1.61803
 20
216.002
 11
-1.54102
 21
216.101
  0
LINE
  8
0
 10
-1.54102
 20
216.101
 11
-1.45793
 21
216.195
  0
LINE
  8
0
 10
-1.45793
 20
216.195
 11
-1.36908
 21
216.284
  0
LINE
  8
0
 10
-1.36908
 20
216.284
 11
-1.27484
 21
216.367
  0
LINE
  8
0
 10
-1.27484
 20
216.367
 11
-1.17557
 21
216.444
  0
LINE
  8
0
 10
-1.17557
 20
216.444
 11
-1.07164
 21
216.515
  0
LINE
  8
0
 10
-1.07164
 20
216.515
 11
-0.963501
 21
216.579
  0
LINE
  8
0
 10
-0.963501
 20
216.579
 11
-0.851547
 21
216.636
  0
LINE
  8
0
 10
-0.851547
 20
216.636
 11
-0.736237
 21
216.686
  0
LINE
  8
0
 10
-0.736237
 20
216.686
 11
-0.618027
 21
216.728
  0
LINE
  8
0
 10
-0.618027
 20
216.728
 11
-0.497375
 21
216.763
  0
LINE
  8
0
 10
-0.497375
 20
216.763
 11
-0.374756
 21
216.791
  0
LINE
  8
0
 10
-0.374756
 20
216.791
 11
-0.250656
 21
216.81
  0
LINE
  8
0
 10
-0.250656
 20
216.81
 11
-0.12558
 21
216.822
  0
LINE
  8
0
 10
-0.12558
 20
216.822
 11
0
 21
216.826
  0
LINE
  8
0
 10
0
 20
216.826
 11
0.12558
 21
216.822
  0
LINE
  8
0
 10
0.12558
 20
216.822
 11
0.250656
 21
216.81
  0
LINE
  8
0
 10
0.250656
 20
216.81
 11
0.374756
 21
216.791
  0
LINE
  8
0
 10
0.374756
 20
216.791
 11
0.497375
 21
216.763
  0
LINE
  8
0
 10
0.497375
 20
216.763
 11
0.618027
 21
216.728
  0
LINE
  8
0
 10
0.618027
 20
216.728
 11
0.736237
 21
216.686
  0
LINE
  8
0
 10
0.736237
 20
216.686
 11
0.851547
 21
216.636
  0
LINE
  8
0
 10
0.851547
 20
216.636
 11
0.963501
 21
216.579
  0
LINE
  8
0
 10
0.963501
 20
216.579
 11
1.07164
 21
216.515
  0
LINE
  8
0
 10
1.07164
 20
216.515
 11
1.17557
 21
216.444
  0
LINE
  8
0
 10
1.17557
 20
216.444
 11
1.27484
 21
216.367
  0
LINE
  8
0
 10
1.27484
 20
216.367
 11
1.36908
 21
216.284
  0
LINE
  8
0
 10
1.36908
 20
216.284
 11
1.45793
 21
216.195
  0
LINE
  8
0
 10
1.45793
 20
216.195
 11
1.54102
 21
216.101
  0
LINE
  8
0
 10
1.54102
 20
216.101
 11
1.61803
 21
216.002
  0
LINE
  8
0
 10
1.61803
 20
216.002
 11
1.68864
 21
215.898
  0
LINE
  8
0
 10
1.68864
 20
215.898
 11
1.75261
 21
215.79
  0
LINE
  8
0
 10
1.75261
 20
215.79
 11
1.80965
 21
215.678
  0
LINE
  8
0
 10
1.80965
 20
215.678
 11
1.85954
 21
215.562
  0
LINE
  8
0
 10
1.85954
 20
215.562
 11
1.9021
 21
215.444
  0
LINE
  8
0
 10
1.9021
 20
215.444
 11
1.93716
 21
215.324
  0
LINE
  8
0
 10
1.93716
 20
215.324
 11
1.96457
 21
215.201
  0
LINE
  8
0
 10
1.96457
 20
215.201
 11
1.98422
 21
215.077
  0
LINE
  8
0
 10
1.98422
 20
215.077
 11
1.99605
 21
214.952
  0
LINE
  8
0
 10
1.99605
 20
214.952
 11
2
 21
214.826
  0
LINE
  8
0
 10
2
 20
214.826
 11
1.99605
 21
214.701
  0
LINE
  8
0
 10
1.99605
 20
214.701
 11
1.98422
 21
214.576
  0
LINE
  8
0
 10
1.98422
 20
214.576
 11
1.96457
 21
214.451
  0
LINE
  8
0
 10
1.96457
 20
214.451
 11
1.93716
 21
214.329
  0
LINE
  8
0
 10
1.93716
 20
214.329
 11
1.9021
 21
214.208
  0
LINE
  8
0
 10
1.9021
 20
214.208
 11
1.85954
 21
214.09
  0
LINE
  8
0
 10
1.85954
 20
214.09
 11
1.80965
 21
213.975
  0
LINE
  8
0
 10
1.80965
 20
213.975
 11
1.75261
 21
213.863
  0
LINE
  8
0
 10
1.75261
 20
213.863
 11
1.68864
 21
213.755
  0
LINE
  8
0
 10
1.68864
 20
213.755
 11
1.61803
 21
213.651
  0
LINE
  8
0
 10
1.61803
 20
213.651
 11
1.54102
 21
213.551
  0
LINE
  8
0
 10
1.54102
 20
213.551
 11
1.45793
 21
213.457
  0
LINE
  8
0
 10
1.45793
 20
213.457
 11
1.36908
 21
213.368
  0
LINE
  8
0
 10
1.36908
 20
213.368
 11
1.27484
 21
213.285
  0
LINE
  8
0
 10
1.27484
 20
213.285
 11
1.17557
 21
213.208
  0
LINE
  8
0
 10
1.17557
 20
213.208
 11
1.07164
 21
213.138
  0
LINE
  8
0
 10
1.07164
 20
213.138
 11
0.963501
 21
213.074
  0
LINE
  8
0
 10
0.963501
 20
213.074
 11
0.851547
 21
213.017
  0
LINE
  8
0
 10
0.851547
 20
213.017
 11
0.736237
 21
212.967
  0
LINE
  8
0
 10
0.736237
 20
212.967
 11
0.618027
 21
212.924
  0
LINE
  8
0
 10
0.618027
 20
212.924
 11
0.497375
 21
212.889
  0
LINE
  8
0
 10
0.497375
 20
212.889
 11
0.374756
 21
212.862
  0
LINE
  8
0
 10
0.374756
 20
212.862
 11
0.250656
 21
212.842
  0
LINE
  8
0
 10
0.250656
 20
212.842
 11
0.12558
 21
212.83
  0
LINE
  8
0
 10
0.12558
 20
212.83
 11
0
 21
212.826
  0
LINE
  8
0
 10
0
 20
212.826
 11
-0.12558
 21
212.83
  0
LINE
  8
0
 10
-1.40596
 20
187.666
 11
0
 21
191.993
  0
LINE
  8
0
 10
0
 20
191.993
 11
1.40601
 21
187.666
  0
LINE
  8
0
 10
1.40601
 20
187.666
 11
0.000137329
 21
180.361
  0
LINE
  8
0
 10
0.000137329
 20
180.361
 11
-1.40596
 21
187.666
  0
LINE
  8
0
 10
2.63399
 20
183.887
 11
3.3976
 21
181.537
  0
LINE
  8
0
 10
3.3976
 20
181.537
 11
2.09489
 21
181.085
  0
LINE
  8
0
 10
2.09489
 20
181.085
 11
2.63399
 21
183.887
  0
LINE
  8
0
 10
-3.39758
 20
181.537
 11
-2.634
 21
183.887
  0
LINE
  8
0
 10
-2.634
 20
183.887
 11
-2.09488
 21
181.085
  0
LINE
  8
0
 10
-2.09488
 20
181.085
 11
-3.39758
 21
181.537
  0
LINE
  8
0
 10
-2.01596
 20
174.836
 11
-4.79327
 21
177.241
  0
LINE
  8
0
 10
-4.79327
 20
177.241
 11
-3.99101
 21
179.71
  0
LINE
  8
0
 10
-3.99101
 20
179.71
 11
-0.00012207
 21
178.328
  0
LINE
  8
0
 10
-0.00012207
 20
178.328
 11
3.991
 21
179.71
  0
LINE
  8
0
 10
3.991
 20
179.71
 11
4.79333
 21
177.241
  0
LINE
  8
0
 10
4.79333
 20
177.241
 11
2.01598
 21
174.836
  0
LINE
  8
0
 10
2.01598
 20
174.836
 11
0.000152588
 21
164.361
  0
LINE
  8
0
 10
0.000152588
 20
164.361
 11
-2.01596
 21
174.836
  0
LINE
  8
0
 10
-6.17497
 20
172.989
 11
-3.77592
 21
173.82
  0
LINE
  8
0
 10
-3.77592
 20
173.82
 11
-6.73862
 21
171.254
  0
LINE
  8
0
 10
-6.73862
 20
171.254
 11
-6.17497
 21
172.989
  0
LINE
  8
0
 10
3.7765
 20
173.82
 11
6.17497
 21
172.989
  0
LINE
  8
0
 10
6.17497
 20
172.989
 11
6.73849
 21
171.254
  0
LINE
  8
0
 10
6.73849
 20
171.254
 11
3.7765
 21
173.82
  0
LINE
  8
0
 10
3.35677
 20
171.643
 11
7.88705
 21
167.72
  0
LINE
  8
0
 10
7.88705
 20
167.72
 11
8.07033
 21
167.156
  0
LINE
  8
0
 10
8.07033
 20
167.156
 11
2.09491
 21
165.085
  0
LINE
  8
0
 10
2.09491
 20
165.085
 11
3.35677
 21
171.643
  0
LINE
  8
0
 10
-8.07033
 20
167.156
 11
-7.88696
 21
167.72
  0
LINE
  8
0
 10
-7.88696
 20
167.72
 11
-3.35681
 21
171.643
  0
LINE
  8
0
 10
-3.35681
 20
171.643
 11
-2.09486
 21
165.085
  0
LINE
  8
0
 10
-2.09486
 20
165.085
 11
-8.07033
 21
167.156
  0
LINE
  8
0
 10
-2.01595
 20
158.836
 11
-8.85034
 21
164.755
  0
LINE
  8
0
 10
-8.85034
 20
164.755
 11
-8.66376
 21
165.329
  0
LINE
  8
0
 10
-8.66376
 20
165.329
 11
-0.000106812
 21
162.328
  0
LINE
  8
0
 10
-0.000106812
 20
162.328
 11
8.66377
 21
165.329
  0
LINE
  8
0
 10
8.66377
 20
165.329
 11
8.85043
 21
164.755
  0
LINE
  8
0
 10
8.85043
 20
164.755
 11
2.01599
 21
158.836
  0
LINE
  8
0
 10
2.01599
 20
158.836
 11
0.000183105
 21
148.361
  0
LINE
  8
0
 10
0.000183105
 20
148.361
 11
-2.01595
 21
158.836
  0
LINE
  8
0
 10
-9.49448
 20
162.772
 11
-5.45177
 21
159.271
  0
LINE
  8
0
 10
-5.45177
 20
159.271
 11
-11.2892
 21
157.249
  0
LINE
  8
0
 10
-11.2892
 20
157.249
 11
-9.49448
 21
162.772
  0
LINE
  8
0
 10
5.4516
 20
159.271
 11
9.49449
 21
162.772
  0
LINE
  8
0
 10
9.49449
 20
162.772
 11
11.2891
 21
157.249
  0
LINE
  8
0
 10
11.2891
 20
157.249
 11
5.4516
 21
159.271
  0
LINE
  8
0
 10
-14.9426
 20
146.005
 11
-12.0331
 21
154.959
  0
LINE
  8
0
 10
-12.0331
 20
154.959
 11
-3.77591
 21
157.82
  0
LINE
  8
0
 10
-3.77591
 20
157.82
 11
-11.8404
 21
150.836
  0
LINE
  8
0
 10
-11.8404
 20
150.836
 11
-13.8562
 21
140.361
  0
LINE
  8
0
 10
-13.8562
 20
140.361
 11
-14.9426
 21
146.005
  0
LINE
  8
0
 10
11.8405
 20
150.836
 11
3.77652
 21
157.82
  0
LINE
  8
0
 10
3.77652
 20
157.82
 11
12.0331
 21
154.959
  0
LINE
  8
0
 10
12.0331
 20
154.959
 11
14.9427
 21
146.005
  0
LINE
  8
0
 10
14.9427
 20
146.005
 11
13.8566
 21
140.36
  0
LINE
  8
0
 10
13.8566
 20
140.36
 11
11.8405
 21
150.836
  0
LINE
  8
0
 10
3.35678
 20
155.643
 11
8.40465
 21
151.271
  0
LINE
  8
0
 10
8.40465
 20
151.271
 11
2.09492
 21
149.085
  0
LINE
  8
0
 10
2.09492
 20
149.085
 11
3.35678
 21
155.643
  0
LINE
  8
0
 10
-8.40479
 20
151.271
 11
-3.3568
 21
155.643
  0
LINE
  8
0
 10
-3.3568
 20
155.643
 11
-2.09483
 21
149.085
  0
LINE
  8
0
 10
-2.09483
 20
149.085
 11
-8.40479
 21
151.271
  0
LINE
  8
0
 10
-2.01593
 20
142.836
 11
-10.0799
 21
149.82
  0
LINE
  8
0
 10
-10.0799
 20
149.82
 11
-7.62939e-05
 21
146.328
  0
LINE
  8
0
 10
-7.62939e-05
 20
146.328
 11
10.0805
 21
149.82
  0
LINE
  8
0
 10
10.0805
 20
149.82
 11
2.01602
 21
142.836
  0
LINE
  8
0
 10
2.01602
 20
142.836
 11
0.000198364
 21
132.36
  0
LINE
  8
0
 10
0.000198364
 20
132.36
 11
-2.01593
 21
142.836
  0
LINE
  8
0
 10
-10.4996
 20
147.643
 11
-5.45175
 21
143.271
  0
LINE
  8
0
 10
-5.45175
 20
143.271
 11
-11.7615
 21
141.085
  0
LINE
  8
0
 10
-11.7615
 20
141.085
 11
-10.4996
 21
147.643
  0
LINE
  8
0
 10
5.45161
 20
143.271
 11
10.4996
 21
147.643
  0
LINE
  8
0
 10
10.4996
 20
147.643
 11
11.7616
 21
141.085
  0
LINE
  8
0
 10
11.7616
 20
141.085
 11
5.45161
 21
143.271
  0
LINE
  8
0
 10
-16.4814
 20
141.269
 11
-16.1706
 21
142.225
  0
LINE
  8
0
 10
-16.1706
 20
142.225
 11
-15.9512
 21
141.085
  0
LINE
  8
0
 10
-15.9512
 20
141.085
 11
-16.4814
 21
141.269
  0
LINE
  8
0
 10
16.1707
 20
142.225
 11
16.4814
 21
141.269
  0
LINE
  8
0
 10
16.4814
 20
141.269
 11
15.9514
 21
141.085
  0
LINE
  8
0
 10
15.9514
 20
141.085
 11
16.1707
 21
142.225
  0
LINE
  8
0
 10
-15.8723
 20
134.836
 11
-17.9788
 21
136.66
  0
LINE
  8
0
 10
-17.9788
 20
136.66
 11
-17.0748
 21
139.443
  0
LINE
  8
0
 10
-17.0748
 20
139.443
 11
-13.8565
 21
138.328
  0
LINE
  8
0
 10
-13.8565
 20
138.328
 11
-3.77589
 21
141.82
  0
LINE
  8
0
 10
-3.77589
 20
141.82
 11
-11.8404
 21
134.836
  0
LINE
  8
0
 10
-11.8404
 20
134.836
 11
-13.8562
 21
124.36
  0
LINE
  8
0
 10
-13.8562
 20
124.36
 11
-15.8723
 21
134.836
  0
LINE
  8
0
 10
11.8405
 20
134.836
 11
3.77655
 21
141.82
  0
LINE
  8
0
 10
3.77655
 20
141.82
 11
13.8563
 21
138.328
  0
LINE
  8
0
 10
13.8563
 20
138.328
 11
17.0748
 21
139.443
  0
LINE
  8
0
 10
17.0748
 20
139.443
 11
17.9789
 21
136.66
  0
LINE
  8
0
 10
17.9789
 20
136.66
 11
15.8724
 21
134.836
  0
LINE
  8
0
 10
15.8724
 20
134.836
 11
13.8566
 21
124.36
  0
LINE
  8
0
 10
13.8566
 20
124.36
 11
11.8405
 21
134.836
  0
LINE
  8
0
 10
3.35681
 20
139.643
 11
8.40466
 21
135.271
  0
LINE
  8
0
 10
8.40466
 20
135.271
 11
2.09496
 21
133.085
  0
LINE
  8
0
 10
2.09496
 20
133.085
 11
3.35681
 21
139.643
  0
LINE
  8
0
 10
-8.40477
 20
135.271
 11
-3.35678
 21
139.643
  0
LINE
  8
0
 10
-3.35678
 20
139.643
 11
-2.09482
 21
133.085
  0
LINE
  8
0
 10
-2.09482
 20
133.085
 11
-8.40477
 21
135.271
  0
LINE
  8
0
 10
-19.0628
 20
133.324
 11
-17.6323
 21
133.82
  0
LINE
  8
0
 10
-17.6323
 20
133.82
 11
-19.3988
 21
132.29
  0
LINE
  8
0
 10
-19.3988
 20
132.29
 11
-19.0628
 21
133.324
  0
LINE
  8
0
 10
-2.01591
 20
126.836
 11
-10.0798
 21
133.82
  0
LINE
  8
0
 10
-10.0798
 20
133.82
 11
-6.10352e-05
 21
130.328
  0
LINE
  8
0
 10
-6.10352e-05
 20
130.328
 11
10.0805
 21
133.82
  0
LINE
  8
0
 10
10.0805
 20
133.82
 11
2.01604
 21
126.836
  0
LINE
  8
0
 10
2.01604
 20
126.836
 11
0.000213623
 21
116.36
  0
LINE
  8
0
 10
0.000213623
 20
116.36
 11
-2.01591
 21
126.836
  0
LINE
  8
0
 10
17.633
 20
133.82
 11
19.0628
 21
133.324
  0
LINE
  8
0
 10
19.0628
 20
133.324
 11
19.3987
 21
132.29
  0
LINE
  8
0
 10
19.3987
 20
132.29
 11
17.633
 21
133.82
  0
LINE
  8
0
 10
-10.4996
 20
131.643
 11
-5.45172
 21
127.271
  0
LINE
  8
0
 10
-5.45172
 20
127.271
 11
-11.7614
 21
125.085
  0
LINE
  8
0
 10
-11.7614
 20
125.085
 11
-10.4996
 21
131.643
  0
LINE
  8
0
 10
17.2132
 20
131.643
 11
20.5473
 21
128.755
  0
LINE
  8
0
 10
20.5473
 20
128.755
 11
21.1541
 21
126.888
  0
LINE
  8
0
 10
21.1541
 20
126.888
 11
15.9514
 21
125.085
  0
LINE
  8
0
 10
15.9514
 20
125.085
 11
17.2132
 21
131.643
  0
LINE
  8
0
 10
-21.1541
 20
126.888
 11
-20.5472
 21
128.756
  0
LINE
  8
0
 10
-20.5472
 20
128.756
 11
-17.2132
 21
131.643
  0
LINE
  8
0
 10
-17.2132
 20
131.643
 11
-15.9512
 21
125.085
  0
LINE
  8
0
 10
-15.9512
 20
125.085
 11
-21.1541
 21
126.888
  0
LINE
  8
0
 10
5.45164
 20
127.271
 11
10.4996
 21
131.643
  0
LINE
  8
0
 10
10.4996
 20
131.643
 11
11.7616
 21
125.085
  0
LINE
  8
0
 10
11.7616
 20
125.085
 11
5.45164
 21
127.271
  0
LINE
  8
0
 10
-15.8723
 20
118.836
 11
-22.0359
 21
124.174
  0
LINE
  8
0
 10
-22.0359
 20
124.174
 11
-21.7475
 21
125.061
  0
LINE
  8
0
 10
-21.7475
 20
125.061
 11
-13.8565
 21
122.328
  0
LINE
  8
0
 10
-13.8565
 20
122.328
 11
-3.77586
 21
125.82
  0
LINE
  8
0
 10
-3.77586
 20
125.82
 11
-11.8404
 21
118.836
  0
LINE
  8
0
 10
-11.8404
 20
118.836
 11
-13.8562
 21
108.36
  0
LINE
  8
0
 10
-13.8562
 20
108.36
 11
-15.8723
 21
118.836
  0
LINE
  8
0
 10
11.8405
 20
118.836
 11
3.77657
 21
125.82
  0
LINE
  8
0
 10
3.77657
 20
125.82
 11
13.8564
 21
122.328
  0
LINE
  8
0
 10
13.8564
 20
122.328
 11
21.7476
 21
125.061
  0
LINE
  8
0
 10
21.7476
 20
125.061
 11
22.036
 21
124.174
  0
LINE
  8
0
 10
22.036
 20
124.174
 11
15.8725
 21
118.836
  0
LINE
  8
0
 10
15.8725
 20
118.836
 11
13.8566
 21
108.36
  0
LINE
  8
0
 10
13.8566
 20
108.36
 11
11.8405
 21
118.836
  0
LINE
  8
0
 10
3.35683
 20
123.643
 11
8.40468
 21
119.271
  0
LINE
  8
0
 10
8.40468
 20
119.271
 11
2.09497
 21
117.085
  0
LINE
  8
0
 10
2.09497
 20
117.085
 11
3.35683
 21
123.643
  0
LINE
  8
0
 10
-8.40475
 20
119.271
 11
-3.35675
 21
123.643
  0
LINE
  8
0
 10
-3.35675
 20
123.643
 11
-2.0948
 21
117.085
  0
LINE
  8
0
 10
-2.0948
 20
117.085
 11
-8.40475
 21
119.271
  0
LINE
  8
0
 10
-22.68
 20
122.191
 11
-19.3081
 21
119.271
  0
LINE
  8
0
 10
-19.3081
 20
119.271
 11
-24.1769
 21
117.584
  0
LINE
  8
0
 10
-24.1769
 20
117.584
 11
-22.68
 21
122.191
  0
LINE
  8
0
 10
19.3081
 20
119.271
 11
22.6801
 21
122.191
  0
LINE
  8
0
 10
22.6801
 20
122.191
 11
24.1769
 21
117.585
  0
LINE
  8
0
 10
24.1769
 20
117.585
 11
19.3081
 21
119.271
  0
LINE
  8
0
 10
25.6968
 20
110.836
 11
17.6329
 21
117.82
  0
LINE
  8
0
 10
17.6329
 20
117.82
 11
24.9208
 21
115.295
  0
LINE
  8
0
 10
24.9208
 20
115.295
 11
28.4793
 21
104.343
  0
LINE
  8
0
 10
28.4793
 20
104.343
 11
27.713
 21
100.361
  0
LINE
  8
0
 10
27.713
 20
100.361
 11
25.6968
 21
110.836
  0
LINE
  8
0
 10
-28.4792
 20
104.344
 11
-24.9209
 21
115.295
  0
LINE
  8
0
 10
-24.9209
 20
115.295
 11
-17.6323
 21
117.82
  0
LINE
  8
0
 10
-17.6323
 20
117.82
 11
-25.6968
 21
110.836
  0
LINE
  8
0
 10
-25.6968
 20
110.836
 11
-27.7126
 21
100.36
  0
LINE
  8
0
 10
-27.7126
 20
100.36
 11
-28.4792
 21
104.344
  0
LINE
  8
0
 10
-2.01588
 20
110.836
 11
-10.0798
 21
117.82
  0
LINE
  8
0
 10
-10.0798
 20
117.82
 11
-4.57764e-05
 21
114.328
  0
LINE
  8
0
 10
-4.57764e-05
 20
114.328
 11
10.0805
 21
117.82
  0
LINE
  8
0
 10
10.0805
 20
117.82
 11
2.01605
 21
110.836
  0
LINE
  8
0
 10
2.01605
 20
110.836
 11
0.000228882
 21
100.36
  0
LINE
  8
0
 10
0.000228882
 20
100.36
 11
-2.01588
 21
110.836
  0
LINE
  8
0
 10
-10.4996
 20
115.643
 11
-5.45171
 21
111.271
  0
LINE
  8
0
 10
-5.45171
 20
111.271
 11
-11.7614
 21
109.085
  0
LINE
  8
0
 10
-11.7614
 20
109.085
 11
-10.4996
 21
115.643
  0
LINE
  8
0
 10
17.2133
 20
115.643
 11
22.2608
 21
111.271
  0
LINE
  8
0
 10
22.2608
 20
111.271
 11
15.9513
 21
109.085
  0
LINE
  8
0
 10
15.9513
 20
109.085
 11
17.2133
 21
115.643
  0
LINE
  8
0
 10
-22.2612
 20
111.271
 11
-17.2132
 21
115.643
  0
LINE
  8
0
 10
-17.2132
 20
115.643
 11
-15.9512
 21
109.085
  0
LINE
  8
0
 10
-15.9512
 20
109.085
 11
-22.2612
 21
111.271
  0
LINE
  8
0
 10
5.45166
 20
111.271
 11
10.4994
 21
115.643
  0
LINE
  8
0
 10
10.4994
 20
115.643
 11
11.7612
 21
109.086
  0
LINE
  8
0
 10
11.7612
 20
109.086
 11
5.45166
 21
111.271
  0
LINE
  8
0
 10
11.8404
 20
102.836
 11
3.77646
 21
109.82
  0
LINE
  8
0
 10
3.77646
 20
109.82
 11
13.8562
 21
106.328
  0
LINE
  8
0
 10
13.8562
 20
106.328
 11
23.9368
 21
109.82
  0
LINE
  8
0
 10
23.9368
 20
109.82
 11
15.8724
 21
102.836
  0
LINE
  8
0
 10
15.8724
 20
102.836
 11
13.8565
 21
92.3606
  0
LINE
  8
0
 10
13.8565
 20
92.3606
 11
11.8404
 21
102.836
  0
LINE
  8
0
 10
-15.8723
 20
102.836
 11
-23.9362
 21
109.82
  0
LINE
  8
0
 10
-23.9362
 20
109.82
 11
-13.8564
 21
106.328
  0
LINE
  8
0
 10
-13.8564
 20
106.328
 11
-3.77585
 21
109.82
  0
LINE
  8
0
 10
-3.77585
 20
109.82
 11
-11.8403
 21
102.836
  0
LINE
  8
0
 10
-11.8403
 20
102.836
 11
-13.8562
 21
92.3604
  0
LINE
  8
0
 10
-13.8562
 20
92.3604
 11
-15.8723
 21
102.836
  0
LINE
  8
0
 10
19.308
 20
103.271
 11
24.356
 21
107.643
  0
LINE
  8
0
 10
24.356
 20
107.643
 11
25.6179
 21
101.085
  0
LINE
  8
0
 10
25.6179
 20
101.085
 11
19.308
 21
103.271
  0
LINE
  8
0
 10
-24.356
 20
107.643
 11
-19.3081
 21
103.271
  0
LINE
  8
0
 10
-19.3081
 20
103.271
 11
-25.6178
 21
101.085
  0
LINE
  8
0
 10
-25.6178
 20
101.085
 11
-24.356
 21
107.643
  0
LINE
  8
0
 10
3.35684
 20
107.643
 11
8.40437
 21
103.271
  0
LINE
  8
0
 10
8.40437
 20
103.271
 11
2.09486
 21
101.085
  0
LINE
  8
0
 10
2.09486
 20
101.085
 11
3.35684
 21
107.643
  0
LINE
  8
0
 10
-8.40472
 20
103.271
 11
-3.35695
 21
107.643
  0
LINE
  8
0
 10
-3.35695
 20
107.643
 11
-2.09523
 21
101.086
  0
LINE
  8
0
 10
-2.09523
 20
101.086
 11
-8.40472
 21
103.271
  0
LINE
  8
0
 10
-2.01599
 20
94.836
 11
-10.0799
 21
101.82
  0
LINE
  8
0
 10
-10.0799
 20
101.82
 11
-0.000152588
 21
98.3279
  0
LINE
  8
0
 10
-0.000152588
 20
98.3279
 11
10.0804
 21
101.82
  0
LINE
  8
0
 10
10.0804
 20
101.82
 11
2.01595
 21
94.8359
  0
LINE
  8
0
 10
2.01595
 20
94.8359
 11
0.000137329
 21
84.3606
  0
LINE
  8
0
 10
0.000137329
 20
84.3606
 11
-2.01599
 21
94.836
  0
LINE
  8
0
 10
25.6968
 20
94.836
 11
17.6329
 21
101.82
  0
LINE
  8
0
 10
17.6329
 20
101.82
 11
27.7127
 21
98.3279
  0
LINE
  8
0
 10
27.7127
 20
98.3279
 11
30.1585
 21
99.1751
  0
LINE
  8
0
 10
30.1585
 20
99.1751
 11
31.1644
 21
96.0792
  0
LINE
  8
0
 10
31.1644
 20
96.0792
 11
29.7288
 21
94.8358
  0
LINE
  8
0
 10
29.7288
 20
94.8358
 11
27.713
 21
84.3605
  0
LINE
  8
0
 10
27.713
 20
84.3605
 11
25.6968
 21
94.836
  0
LINE
  8
0
 10
-29.7287
 20
94.8359
 11
-31.1644
 21
96.0793
  0
LINE
  8
0
 10
-31.1644
 20
96.0793
 11
-30.1586
 21
99.175
  0
LINE
  8
0
 10
-30.1586
 20
99.175
 11
-27.7129
 21
98.3277
  0
LINE
  8
0
 10
-27.7129
 20
98.3277
 11
-17.6322
 21
101.82
  0
LINE
  8
0
 10
-17.6322
 20
101.82
 11
-25.6967
 21
94.8357
  0
LINE
  8
0
 10
-25.6967
 20
94.8357
 11
-27.7126
 21
84.3604
  0
LINE
  8
0
 10
-27.7126
 20
84.3604
 11
-29.7287
 21
94.8359
  0
LINE
  8
0
 10
17.2132
 20
99.643
 11
22.261
 21
95.2714
  0
LINE
  8
0
 10
22.261
 20
95.2714
 11
15.9513
 21
93.0854
  0
LINE
  8
0
 10
15.9513
 20
93.0854
 11
17.2132
 21
99.643
  0
LINE
  8
0
 10
5.45155
 20
95.2715
 11
10.4996
 21
99.6428
  0
LINE
  8
0
 10
10.4996
 20
99.6428
 11
11.7615
 21
93.0855
  0
LINE
  8
0
 10
11.7615
 20
93.0855
 11
5.45155
 21
95.2715
  0
LINE
  8
0
 10
-10.4995
 20
99.6428
 11
-5.45203
 21
95.2713
  0
LINE
  8
0
 10
-5.45203
 20
95.2713
 11
-11.7615
 21
93.0854
  0
LINE
  8
0
 10
-11.7615
 20
93.0854
 11
-10.4995
 21
99.6428
  0
LINE
  8
0
 10
-22.2611
 20
95.2713
 11
-17.2134
 21
99.6425
  0
LINE
  8
0
 10
-17.2134
 20
99.6425
 11
-15.9516
 21
93.0856
  0
LINE
  8
0
 10
-15.9516
 20
93.0856
 11
-22.2611
 21
95.2713
  0
LINE
  8
0
 10
-15.8724
 20
86.836
 11
-23.9363
 21
93.8198
  0
LINE
  8
0
 10
-23.9363
 20
93.8198
 11
-13.8566
 21
90.3279
  0
LINE
  8
0
 10
-13.8566
 20
90.3279
 11
-3.77596
 21
93.8199
  0
LINE
  8
0
 10
-3.77596
 20
93.8199
 11
-11.8404
 21
86.8359
  0
LINE
  8
0
 10
-11.8404
 20
86.8359
 11
-13.8563
 21
76.3606
  0
LINE
  8
0
 10
-13.8563
 20
76.3606
 11
-15.8724
 21
86.836
  0
LINE
  8
0
 10
11.8404
 20
86.836
 11
3.77647
 21
93.8198
  0
LINE
  8
0
 10
3.77647
 20
93.8198
 11
13.8563
 21
90.3279
  0
LINE
  8
0
 10
13.8563
 20
90.3279
 11
23.9369
 21
93.8199
  0
LINE
  8
0
 10
23.9369
 20
93.8199
 11
15.8724
 21
86.8358
  0
LINE
  8
0
 10
15.8724
 20
86.8358
 11
13.8566
 21
76.3605
  0
LINE
  8
0
 10
13.8566
 20
76.3605
 11
11.8404
 21
86.836
  0
LINE
  8
0
 10
-31.9506
 20
93.6597
 11
-31.4887
 21
93.8197
  0
LINE
  8
0
 10
-31.4887
 20
93.8197
 11
-32.0591
 21
93.3258
  0
LINE
  8
0
 10
-32.0591
 20
93.3258
 11
-31.9506
 21
93.6597
  0
LINE
  8
0
 10
31.4893
 20
93.8197
 11
31.9505
 21
93.66
  0
LINE
  8
0
 10
31.9505
 20
93.66
 11
32.0588
 21
93.3265
  0
LINE
  8
0
 10
32.0588
 20
93.3265
 11
31.4893
 21
93.8197
  0
LINE
  8
0
 10
3.35674
 20
91.643
 11
8.4046
 21
87.2714
  0
LINE
  8
0
 10
8.4046
 20
87.2714
 11
2.09489
 21
85.0854
  0
LINE
  8
0
 10
2.09489
 20
85.0854
 11
3.35674
 21
91.643
  0
LINE
  8
0
 10
31.0696
 20
91.6429
 11
33.2074
 21
89.7915
  0
LINE
  8
0
 10
33.2074
 20
89.7915
 11
34.2379
 21
86.6202
  0
LINE
  8
0
 10
34.2379
 20
86.6202
 11
29.8077
 21
85.0854
  0
LINE
  8
0
 10
29.8077
 20
85.0854
 11
31.0696
 21
91.6429
  0
LINE
  8
0
 10
-8.40483
 20
87.2715
 11
-3.35684
 21
91.6428
  0
LINE
  8
0
 10
-3.35684
 20
91.6428
 11
-2.09488
 21
85.0855
  0
LINE
  8
0
 10
-2.09488
 20
85.0855
 11
-8.40483
 21
87.2715
  0
LINE
  8
0
 10
19.308
 20
87.2714
 11
24.356
 21
91.6428
  0
LINE
  8
0
 10
24.356
 20
91.6428
 11
25.6179
 21
85.0854
  0
LINE
  8
0
 10
25.6179
 20
85.0854
 11
19.308
 21
87.2714
  0
LINE
  8
0
 10
-24.356
 20
91.6428
 11
-19.3084
 21
87.2713
  0
LINE
  8
0
 10
-19.3084
 20
87.2713
 11
-25.6179
 21
85.0854
  0
LINE
  8
0
 10
-25.6179
 20
85.0854
 11
-24.356
 21
91.6428
  0
LINE
  8
0
 10
-34.2379
 20
86.6201
 11
-33.2075
 21
89.7913
  0
LINE
  8
0
 10
-33.2075
 20
89.7913
 11
-31.0698
 21
91.6425
  0
LINE
  8
0
 10
-31.0698
 20
91.6425
 11
-29.808
 21
85.0856
  0
LINE
  8
0
 10
-29.808
 20
85.0856
 11
-34.2379
 21
86.6201
  0
LINE
  8
0
 10
-29.7288
 20
78.836
 11
-35.2215
 21
83.5929
  0
LINE
  8
0
 10
-35.2215
 20
83.5929
 11
-34.8313
 21
84.7939
  0
LINE
  8
0
 10
-34.8313
 20
84.7939
 11
-27.713
 21
82.3279
  0
LINE
  8
0
 10
-27.713
 20
82.3279
 11
-17.6324
 21
85.8199
  0
LINE
  8
0
 10
-17.6324
 20
85.8199
 11
-25.6969
 21
78.8359
  0
LINE
  8
0
 10
-25.6969
 20
78.8359
 11
-27.7127
 21
68.3606
  0
LINE
  8
0
 10
-27.7127
 20
68.3606
 11
-29.7288
 21
78.836
  0
LINE
  8
0
 10
-2.01598
 20
78.836
 11
-10.0799
 21
85.8198
  0
LINE
  8
0
 10
-10.0799
 20
85.8198
 11
-0.00012207
 21
82.3279
  0
LINE
  8
0
 10
-0.00012207
 20
82.3279
 11
10.0805
 21
85.8199
  0
LINE
  8
0
 10
10.0805
 20
85.8199
 11
2.01598
 21
78.8358
  0
LINE
  8
0
 10
2.01598
 20
78.8358
 11
0.000152588
 21
68.3605
  0
LINE
  8
0
 10
0.000152588
 20
68.3605
 11
-2.01598
 21
78.836
  0
LINE
  8
0
 10
25.6968
 20
78.836
 11
17.6329
 21
85.8197
  0
LINE
  8
0
 10
17.6329
 20
85.8197
 11
27.7127
 21
82.3278
  0
LINE
  8
0
 10
27.7127
 20
82.3278
 11
34.8313
 21
84.7938
  0
LINE
  8
0
 10
34.8313
 20
84.7938
 11
35.2215
 21
83.5927
  0
LINE
  8
0
 10
35.2215
 20
83.5927
 11
29.7288
 21
78.8358
  0
LINE
  8
0
 10
29.7288
 20
78.8358
 11
27.713
 21
68.3605
  0
LINE
  8
0
 10
27.713
 20
68.3605
 11
25.6968
 21
78.836
  0
LINE
  8
0
 10
-10.4996
 20
83.643
 11
-5.4518
 21
79.2714
  0
LINE
  8
0
 10
-5.4518
 20
79.2714
 11
-11.7615
 21
77.0854
  0
LINE
  8
0
 10
-11.7615
 20
77.0854
 11
-10.4996
 21
83.643
  0
LINE
  8
0
 10
17.2132
 20
83.6429
 11
22.261
 21
79.2714
  0
LINE
  8
0
 10
22.261
 20
79.2714
 11
15.9513
 21
77.0854
  0
LINE
  8
0
 10
15.9513
 20
77.0854
 11
17.2132
 21
83.6429
  0
LINE
  8
0
 10
-22.2612
 20
79.2715
 11
-17.2132
 21
83.6428
  0
LINE
  8
0
 10
-17.2132
 20
83.6428
 11
-15.9513
 21
77.0855
  0
LINE
  8
0
 10
-15.9513
 20
77.0855
 11
-22.2612
 21
79.2715
  0
LINE
  8
0
 10
5.45158
 20
79.2714
 11
10.4996
 21
83.6428
  0
LINE
  8
0
 10
10.4996
 20
83.6428
 11
11.7615
 21
77.0854
  0
LINE
  8
0
 10
11.7615
 20
77.0854
 11
5.45158
 21
79.2714
  0
LINE
  8
0
 10
33.1644
 20
79.2714
 11
35.8656
 21
81.6105
  0
LINE
  8
0
 10
35.8656
 20
81.6105
 11
37.0646
 21
77.9202
  0
LINE
  8
0
 10
37.0646
 20
77.9202
 11
33.1644
 21
79.2714
  0
LINE
  8
0
 10
-35.8656
 20
81.6104
 11
-33.1648
 21
79.2713
  0
LINE
  8
0
 10
-33.1648
 20
79.2713
 11
-37.0646
 21
77.9203
  0
LINE
  8
0
 10
-37.0646
 20
77.9203
 11
-35.8656
 21
81.6104
  0
LINE
  8
0
 10
-37.8085
 20
75.6307
 11
-31.4888
 21
77.8199
  0
LINE
  8
0
 10
-31.4888
 20
77.8199
 11
-39.2933
 21
71.061
  0
LINE
  8
0
 10
-39.2933
 20
71.061
 11
-37.8085
 21
75.6307
  0
LINE
  8
0
 10
-15.8724
 20
70.836
 11
-23.9363
 21
77.8198
  0
LINE
  8
0
 10
-23.9363
 20
77.8198
 11
-13.8565
 21
74.3279
  0
LINE
  8
0
 10
-13.8565
 20
74.3279
 11
-3.77592
 21
77.8199
  0
LINE
  8
0
 10
-3.77592
 20
77.8199
 11
-11.8404
 21
70.8358
  0
LINE
  8
0
 10
-11.8404
 20
70.8358
 11
-13.8562
 21
60.3605
  0
LINE
  8
0
 10
-13.8562
 20
60.3605
 11
-15.8724
 21
70.836
  0
LINE
  8
0
 10
11.8404
 20
70.836
 11
3.7765
 21
77.8197
  0
LINE
  8
0
 10
3.7765
 20
77.8197
 11
13.8563
 21
74.3278
  0
LINE
  8
0
 10
13.8563
 20
74.3278
 11
23.9369
 21
77.8199
  0
LINE
  8
0
 10
23.9369
 20
77.8199
 11
15.8724
 21
70.8358
  0
LINE
  8
0
 10
15.8724
 20
70.8358
 11
13.8566
 21
60.3605
  0
LINE
  8
0
 10
13.8566
 20
60.3605
 11
11.8404
 21
70.836
  0
LINE
  8
0
 10
31.4893
 20
77.8197
 11
37.8086
 21
75.6305
  0
LINE
  8
0
 10
37.8086
 20
75.6305
 11
39.2933
 21
71.0611
  0
LINE
  8
0
 10
39.2933
 20
71.0611
 11
31.4893
 21
77.8197
  0
LINE
  8
0
 10
-24.3561
 20
75.643
 11
-19.3082
 21
71.2714
  0
LINE
  8
0
 10
-19.3082
 20
71.2714
 11
-25.6179
 21
69.0854
  0
LINE
  8
0
 10
-25.6179
 20
69.0854
 11
-24.3561
 21
75.643
  0
LINE
  8
0
 10
3.35677
 20
75.6429
 11
8.40462
 21
71.2714
  0
LINE
  8
0
 10
8.40462
 20
71.2714
 11
2.09491
 21
69.0854
  0
LINE
  8
0
 10
2.09491
 20
69.0854
 11
3.35677
 21
75.6429
  0
LINE
  8
0
 10
31.0696
 20
75.6429
 11
36.1174
 21
71.2713
  0
LINE
  8
0
 10
36.1174
 20
71.2713
 11
29.8077
 21
69.0853
  0
LINE
  8
0
 10
29.8077
 20
69.0853
 11
31.0696
 21
75.6429
  0
LINE
  8
0
 10
-36.1176
 20
71.2715
 11
-31.0697
 21
75.6428
  0
LINE
  8
0
 10
-31.0697
 20
75.6428
 11
-29.8077
 21
69.0855
  0
LINE
  8
0
 10
-29.8077
 20
69.0855
 11
-36.1176
 21
71.2715
  0
LINE
  8
0
 10
-8.40482
 20
71.2714
 11
-3.35683
 21
75.6428
  0
LINE
  8
0
 10
-3.35683
 20
75.6428
 11
-2.09486
 21
69.0854
  0
LINE
  8
0
 10
-2.09486
 20
69.0854
 11
-8.40482
 21
71.2714
  0
LINE
  8
0
 10
19.308
 20
71.2714
 11
24.356
 21
75.6428
  0
LINE
  8
0
 10
24.356
 20
75.6428
 11
25.618
 21
69.0854
  0
LINE
  8
0
 10
25.618
 20
69.0854
 11
19.308
 21
71.2714
  0
LINE
  8
0
 10
-29.7288
 20
62.836
 11
-37.7927
 21
69.8198
  0
LINE
  8
0
 10
-37.7927
 20
69.8198
 11
-27.7129
 21
66.3279
  0
LINE
  8
0
 10
-27.7129
 20
66.3279
 11
-17.6323
 21
69.8199
  0
LINE
  8
0
 10
-17.6323
 20
69.8199
 11
-25.6968
 21
62.8358
  0
LINE
  8
0
 10
-25.6968
 20
62.8358
 11
-27.7126
 21
52.3605
  0
LINE
  8
0
 10
-27.7126
 20
52.3605
 11
-29.7288
 21
62.836
  0
LINE
  8
0
 10
-2.01595
 20
62.836
 11
-10.0799
 21
69.8197
  0
LINE
  8
0
 10
-10.0799
 20
69.8197
 11
-0.000106812
 21
66.3278
  0
LINE
  8
0
 10
-0.000106812
 20
66.3278
 11
10.0805
 21
69.8199
  0
LINE
  8
0
 10
10.0805
 20
69.8199
 11
2.01599
 21
62.8358
  0
LINE
  8
0
 10
2.01599
 20
62.8358
 11
0.000167847
 21
52.3605
  0
LINE
  8
0
 10
0.000167847
 20
52.3605
 11
-2.01595
 21
62.836
  0
LINE
  8
0
 10
25.6969
 20
62.8359
 11
17.6329
 21
69.8197
  0
LINE
  8
0
 10
17.6329
 20
69.8197
 11
27.7127
 21
66.3278
  0
LINE
  8
0
 10
27.7127
 20
66.3278
 11
37.7933
 21
69.8198
  0
LINE
  8
0
 10
37.7933
 20
69.8198
 11
29.7288
 21
62.8358
  0
LINE
  8
0
 10
29.7288
 20
62.8358
 11
27.713
 21
52.3605
  0
LINE
  8
0
 10
27.713
 20
52.3605
 11
25.6969
 21
62.8359
  0
LINE
  8
0
 10
-42.0159
 20
62.6819
 11
-39.8246
 21
69.4261
  0
LINE
  8
0
 10
-39.8246
 20
69.4261
 11
-41.5691
 21
60.3606
  0
LINE
  8
0
 10
-41.5691
 20
60.3606
 11
-42.0159
 21
62.6819
  0
LINE
  8
0
 10
39.8247
 20
69.4256
 11
42.016
 21
62.6814
  0
LINE
  8
0
 10
42.016
 20
62.6814
 11
41.5694
 21
60.3605
  0
LINE
  8
0
 10
41.5694
 20
60.3605
 11
39.8247
 21
69.4256
  0
LINE
  8
0
 10
-38.2125
 20
67.643
 11
-33.1646
 21
63.2714
  0
LINE
  8
0
 10
-33.1646
 20
63.2714
 11
-39.4743
 21
61.0854
  0
LINE
  8
0
 10
-39.4743
 20
61.0854
 11
-38.2125
 21
67.643
  0
LINE
  8
0
 10
-10.4996
 20
67.6429
 11
-5.45177
 21
63.2714
  0
LINE
  8
0
 10
-5.45177
 20
63.2714
 11
-11.7615
 21
61.0854
  0
LINE
  8
0
 10
-11.7615
 20
61.0854
 11
-10.4996
 21
67.6429
  0
LINE
  8
0
 10
17.2132
 20
67.6429
 11
22.261
 21
63.2713
  0
LINE
  8
0
 10
22.261
 20
63.2713
 11
15.9513
 21
61.0853
  0
LINE
  8
0
 10
15.9513
 20
61.0853
 11
17.2132
 21
67.6429
  0
LINE
  8
0
 10
-22.2612
 20
63.2714
 11
-17.2132
 21
67.6428
  0
LINE
  8
0
 10
-17.2132
 20
67.6428
 11
-15.9513
 21
61.0854
  0
LINE
  8
0
 10
-15.9513
 20
61.0854
 11
-22.2612
 21
63.2714
  0
LINE
  8
0
 10
5.4516
 20
63.2714
 11
10.4996
 21
67.6428
  0
LINE
  8
0
 10
10.4996
 20
67.6428
 11
11.7616
 21
61.0854
  0
LINE
  8
0
 10
11.7616
 20
61.0854
 11
5.4516
 21
63.2714
  0
LINE
  8
0
 10
33.1644
 20
63.2714
 11
38.2124
 21
67.6427
  0
LINE
  8
0
 10
38.2124
 20
67.6427
 11
39.4744
 21
61.0854
  0
LINE
  8
0
 10
39.4744
 20
61.0854
 11
33.1644
 21
63.2714
  0
LINE
  8
0
 10
-43.5852
 20
54.836
 11
-44.3499
 21
55.4983
  0
LINE
  8
0
 10
-44.3499
 20
55.4983
 11
-43.2423
 21
58.9074
  0
LINE
  8
0
 10
-43.2423
 20
58.9074
 11
-41.5694
 21
58.3279
  0
LINE
  8
0
 10
-41.5694
 20
58.3279
 11
-31.4887
 21
61.8199
  0
LINE
  8
0
 10
-31.4887
 20
61.8199
 11
-39.5532
 21
54.8358
  0
LINE
  8
0
 10
-39.5532
 20
54.8358
 11
-41.569
 21
44.3605
  0
LINE
  8
0
 10
-41.569
 20
44.3605
 11
-43.5852
 21
54.836
  0
LINE
  8
0
 10
-15.8724
 20
54.836
 11
-23.9363
 21
61.8197
  0
LINE
  8
0
 10
-23.9363
 20
61.8197
 11
-13.8565
 21
58.3278
  0
LINE
  8
0
 10
-13.8565
 20
58.3278
 11
-3.77591
 21
61.8199
  0
LINE
  8
0
 10
-3.77591
 20
61.8199
 11
-11.8404
 21
54.8358
  0
LINE
  8
0
 10
-11.8404
 20
54.8358
 11
-13.8562
 21
44.3605
  0
LINE
  8
0
 10
-13.8562
 20
44.3605
 11
-15.8724
 21
54.836
  0
LINE
  8
0
 10
11.8405
 20
54.8359
 11
3.77652
 21
61.8197
  0
LINE
  8
0
 10
3.77652
 20
61.8197
 11
13.8563
 21
58.3278
  0
LINE
  8
0
 10
13.8563
 20
58.3278
 11
23.9369
 21
61.8198
  0
LINE
  8
0
 10
23.9369
 20
61.8198
 11
15.8724
 21
54.8358
  0
LINE
  8
0
 10
15.8724
 20
54.8358
 11
13.8566
 21
44.3605
  0
LINE
  8
0
 10
13.8566
 20
44.3605
 11
11.8405
 21
54.8359
  0
LINE
  8
0
 10
39.5533
 20
54.8359
 11
31.4893
 21
61.8197
  0
LINE
  8
0
 10
31.4893
 20
61.8197
 11
41.5691
 21
58.3278
  0
LINE
  8
0
 10
41.5691
 20
58.3278
 11
43.2423
 21
58.9074
  0
LINE
  8
0
 10
43.2423
 20
58.9074
 11
44.35
 21
55.4981
  0
LINE
  8
0
 10
44.35
 20
55.4981
 11
43.5853
 21
54.8358
  0
LINE
  8
0
 10
43.5853
 20
54.8358
 11
41.5694
 21
44.3605
  0
LINE
  8
0
 10
41.5694
 20
44.3605
 11
39.5533
 21
54.8359
  0
LINE
  8
0
 10
-24.356
 20
59.6429
 11
-19.3082
 21
55.2714
  0
LINE
  8
0
 10
-19.3082
 20
55.2714
 11
-25.6179
 21
53.0854
  0
LINE
  8
0
 10
-25.6179
 20
53.0854
 11
-24.356
 21
59.6429
  0
LINE
  8
0
 10
3.35678
 20
59.6429
 11
8.40463
 21
55.2713
  0
LINE
  8
0
 10
8.40463
 20
55.2713
 11
2.09492
 21
53.0853
  0
LINE
  8
0
 10
2.09492
 20
53.0853
 11
3.35678
 21
59.6429
  0
LINE
  8
0
 10
31.0696
 20
59.6429
 11
36.1175
 21
55.2713
  0
LINE
  8
0
 10
36.1175
 20
55.2713
 11
29.8078
 21
53.0853
  0
LINE
  8
0
 10
29.8078
 20
53.0853
 11
31.0696
 21
59.6429
  0
LINE
  8
0
 10
-36.1176
 20
55.2714
 11
-31.0696
 21
59.6428
  0
LINE
  8
0
 10
-31.0696
 20
59.6428
 11
-29.8077
 21
53.0854
  0
LINE
  8
0
 10
-29.8077
 20
53.0854
 11
-36.1176
 21
55.2714
  0
LINE
  8
0
 10
-8.4048
 20
55.2714
 11
-3.3568
 21
59.6428
  0
LINE
  8
0
 10
-3.3568
 20
59.6428
 11
-2.09485
 21
53.0854
  0
LINE
  8
0
 10
-2.09485
 20
53.0854
 11
-8.4048
 21
55.2714
  0
LINE
  8
0
 10
19.308
 20
55.2714
 11
24.356
 21
59.6427
  0
LINE
  8
0
 10
24.356
 20
59.6427
 11
25.618
 21
53.0854
  0
LINE
  8
0
 10
25.618
 20
53.0854
 11
19.308
 21
55.2714
  0
LINE
  8
0
 10
-29.7288
 20
46.836
 11
-37.7927
 21
53.8197
  0
LINE
  8
0
 10
-37.7927
 20
53.8197
 11
-27.7129
 21
50.3278
  0
LINE
  8
0
 10
-27.7129
 20
50.3278
 11
-17.6323
 21
53.8199
  0
LINE
  8
0
 10
-17.6323
 20
53.8199
 11
-25.6968
 21
46.8358
  0
LINE
  8
0
 10
-25.6968
 20
46.8358
 11
-27.7126
 21
36.3605
  0
LINE
  8
0
 10
-27.7126
 20
36.3605
 11
-29.7288
 21
46.836
  0
LINE
  8
0
 10
-2.01593
 20
46.8359
 11
-10.0799
 21
53.8197
  0
LINE
  8
0
 10
-10.0799
 20
53.8197
 11
-9.15527e-05
 21
50.3278
  0
LINE
  8
0
 10
-9.15527e-05
 20
50.3278
 11
10.0805
 21
53.8198
  0
LINE
  8
0
 10
10.0805
 20
53.8198
 11
2.01601
 21
46.8358
  0
LINE
  8
0
 10
2.01601
 20
46.8358
 11
0.000198364
 21
36.3605
  0
LINE
  8
0
 10
0.000198364
 20
36.3605
 11
-2.01593
 21
46.8359
  0
LINE
  8
0
 10
25.6969
 20
46.8359
 11
17.6329
 21
53.8197
  0
LINE
  8
0
 10
17.6329
 20
53.8197
 11
27.7127
 21
50.3278
  0
LINE
  8
0
 10
27.7127
 20
50.3278
 11
37.7933
 21
53.8198
  0
LINE
  8
0
 10
37.7933
 20
53.8198
 11
29.7288
 21
46.8358
  0
LINE
  8
0
 10
29.7288
 20
46.8358
 11
27.713
 21
36.3605
  0
LINE
  8
0
 10
27.713
 20
36.3605
 11
25.6969
 21
46.8359
  0
LINE
  8
0
 10
-38.2124
 20
51.6429
 11
-33.1646
 21
47.2714
  0
LINE
  8
0
 10
-33.1646
 20
47.2714
 11
-39.4743
 21
45.0854
  0
LINE
  8
0
 10
-39.4743
 20
45.0854
 11
-38.2124
 21
51.6429
  0
LINE
  8
0
 10
-10.4996
 20
51.6429
 11
-5.45175
 21
47.2713
  0
LINE
  8
0
 10
-5.45175
 20
47.2713
 11
-11.7615
 21
45.0853
  0
LINE
  8
0
 10
-11.7615
 20
45.0853
 11
-10.4996
 21
51.6429
  0
LINE
  8
0
 10
17.2132
 20
51.6429
 11
22.2611
 21
47.2713
  0
LINE
  8
0
 10
22.2611
 20
47.2713
 11
15.9514
 21
45.0853
  0
LINE
  8
0
 10
15.9514
 20
45.0853
 11
17.2132
 21
51.6429
  0
LINE
  8
0
 10
44.926
 20
51.6428
 11
45.8676
 21
50.8274
  0
LINE
  8
0
 10
45.8676
 20
50.8274
 11
47.3216
 21
46.3524
  0
LINE
  8
0
 10
47.3216
 20
46.3524
 11
43.6642
 21
45.0853
  0
LINE
  8
0
 10
43.6642
 20
45.0853
 11
44.926
 21
51.6428
  0
LINE
  8
0
 10
-47.3216
 20
46.3525
 11
-45.8676
 21
50.8274
  0
LINE
  8
0
 10
-45.8676
 20
50.8274
 11
-44.926
 21
51.6428
  0
LINE
  8
0
 10
-44.926
 20
51.6428
 11
-43.6641
 21
45.0854
  0
LINE
  8
0
 10
-43.6641
 20
45.0854
 11
-47.3216
 21
46.3525
  0
LINE
  8
0
 10
-22.2612
 20
47.2714
 11
-17.2132
 21
51.6428
  0
LINE
  8
0
 10
-17.2132
 20
51.6428
 11
-15.9512
 21
45.0854
  0
LINE
  8
0
 10
-15.9512
 20
45.0854
 11
-22.2612
 21
47.2714
  0
LINE
  8
0
 10
5.45161
 20
47.2714
 11
10.4996
 21
51.6427
  0
LINE
  8
0
 10
10.4996
 20
51.6427
 11
11.7616
 21
45.0854
  0
LINE
  8
0
 10
11.7616
 20
45.0854
 11
5.45161
 21
47.2714
  0
LINE
  8
0
 10
33.1644
 20
47.2713
 11
38.2124
 21
51.6427
  0
LINE
  8
0
 10
38.2124
 20
51.6427
 11
39.4744
 21
45.0853
  0
LINE
  8
0
 10
39.4744
 20
45.0853
 11
33.1644
 21
47.2713
  0
LINE
  8
0
 10
-43.5852
 20
38.836
 11
-48.407
 21
43.0119
  0
LINE
  8
0
 10
-48.407
 20
43.0119
 11
-47.915
 21
44.5262
  0
LINE
  8
0
 10
-47.915
 20
44.5262
 11
-41.5693
 21
42.3278
  0
LINE
  8
0
 10
-41.5693
 20
42.3278
 11
-31.4887
 21
45.8199
  0
LINE
  8
0
 10
-31.4887
 20
45.8199
 11
-39.5532
 21
38.8358
  0
LINE
  8
0
 10
-39.5532
 20
38.8358
 11
-41.569
 21
28.3605
  0
LINE
  8
0
 10
-41.569
 20
28.3605
 11
-43.5852
 21
38.836
  0
LINE
  8
0
 10
-15.8723
 20
38.8359
 11
-23.9363
 21
45.8197
  0
LINE
  8
0
 10
-23.9363
 20
45.8197
 11
-13.8565
 21
42.3278
  0
LINE
  8
0
 10
-13.8565
 20
42.3278
 11
-3.77589
 21
45.8198
  0
LINE
  8
0
 10
-3.77589
 20
45.8198
 11
-11.8404
 21
38.8358
  0
LINE
  8
0
 10
-11.8404
 20
38.8358
 11
-13.8562
 21
28.3605
  0
LINE
  8
0
 10
-13.8562
 20
28.3605
 11
-15.8723
 21
38.8359
  0
LINE
  8
0
 10
11.8405
 20
38.8359
 11
3.77654
 21
45.8197
  0
LINE
  8
0
 10
3.77654
 20
45.8197
 11
13.8563
 21
42.3278
  0
LINE
  8
0
 10
13.8563
 20
42.3278
 11
23.9369
 21
45.8198
  0
LINE
  8
0
 10
23.9369
 20
45.8198
 11
15.8724
 21
38.8358
  0
LINE
  8
0
 10
15.8724
 20
38.8358
 11
13.8566
 21
28.3605
  0
LINE
  8
0
 10
13.8566
 20
28.3605
 11
11.8405
 21
38.8359
  0
LINE
  8
0
 10
39.5533
 20
38.8359
 11
31.4894
 21
45.8196
  0
LINE
  8
0
 10
31.4894
 20
45.8196
 11
41.5692
 21
42.3277
  0
LINE
  8
0
 10
41.5692
 20
42.3277
 11
47.9151
 21
44.526
  0
LINE
  8
0
 10
47.9151
 20
44.526
 11
48.4071
 21
43.0116
  0
LINE
  8
0
 10
48.4071
 20
43.0116
 11
43.5853
 21
38.8357
  0
LINE
  8
0
 10
43.5853
 20
38.8357
 11
41.5694
 21
28.3604
  0
LINE
  8
0
 10
41.5694
 20
28.3604
 11
39.5533
 21
38.8359
  0
LINE
  8
0
 10
-24.356
 20
43.6429
 11
-19.3082
 21
39.2713
  0
LINE
  8
0
 10
-19.3082
 20
39.2713
 11
-25.6179
 21
37.0853
  0
LINE
  8
0
 10
-25.6179
 20
37.0853
 11
-24.356
 21
43.6429
  0
LINE
  8
0
 10
3.3568
 20
43.6429
 11
8.40466
 21
39.2713
  0
LINE
  8
0
 10
8.40466
 20
39.2713
 11
2.09494
 21
37.0853
  0
LINE
  8
0
 10
2.09494
 20
37.0853
 11
3.3568
 21
43.6429
  0
LINE
  8
0
 10
31.0696
 20
43.6428
 11
36.1175
 21
39.2713
  0
LINE
  8
0
 10
36.1175
 20
39.2713
 11
29.8078
 21
37.0853
  0
LINE
  8
0
 10
29.8078
 20
37.0853
 11
31.0696
 21
43.6428
  0
LINE
  8
0
 10
-36.1176
 20
39.2714
 11
-31.0696
 21
43.6428
  0
LINE
  8
0
 10
-31.0696
 20
43.6428
 11
-29.8077
 21
37.0854
  0
LINE
  8
0
 10
-29.8077
 20
37.0854
 11
-36.1176
 21
39.2714
  0
LINE
  8
0
 10
-8.40477
 20
39.2714
 11
-3.35678
 21
43.6427
  0
LINE
  8
0
 10
-3.35678
 20
43.6427
 11
-2.09483
 21
37.0854
  0
LINE
  8
0
 10
-2.09483
 20
37.0854
 11
-8.40477
 21
39.2714
  0
LINE
  8
0
 10
19.308
 20
39.2713
 11
24.356
 21
43.6427
  0
LINE
  8
0
 10
24.356
 20
43.6427
 11
25.618
 21
37.0853
  0
LINE
  8
0
 10
25.618
 20
37.0853
 11
19.308
 21
39.2713
  0
LINE
  8
0
 10
-49.0511
 20
41.0295
 11
-47.021
 21
39.2714
  0
LINE
  8
0
 10
-47.021
 20
39.2714
 11
-49.9524
 21
38.2558
  0
LINE
  8
0
 10
-49.9524
 20
38.2558
 11
-49.0511
 21
41.0295
  0
LINE
  8
0
 10
47.0209
 20
39.2713
 11
49.0512
 21
41.0295
  0
LINE
  8
0
 10
49.0512
 20
41.0295
 11
49.9524
 21
38.2558
  0
LINE
  8
0
 10
49.9524
 20
38.2558
 11
47.0209
 21
39.2713
  0
LINE
  8
0
 10
-50.6963
 20
35.9661
 11
-45.3451
 21
37.8199
  0
LINE
  8
0
 10
-45.3451
 20
37.8199
 11
-51.9536
 21
32.0968
  0
LINE
  8
0
 10
-51.9536
 20
32.0968
 11
-50.6963
 21
35.9661
  0
LINE
  8
0
 10
-29.7287
 20
30.8359
 11
-37.7927
 21
37.8197
  0
LINE
  8
0
 10
-37.7927
 20
37.8197
 11
-27.7129
 21
34.3278
  0
LINE
  8
0
 10
-27.7129
 20
34.3278
 11
-17.6323
 21
37.8198
  0
LINE
  8
0
 10
-17.6323
 20
37.8198
 11
-25.6968
 21
30.8358
  0
LINE
  8
0
 10
-25.6968
 20
30.8358
 11
-27.7126
 21
20.3605
  0
LINE
  8
0
 10
-27.7126
 20
20.3605
 11
-29.7287
 21
30.8359
  0
LINE
  8
0
 10
45.3457
 20
37.8198
 11
50.6963
 21
35.9662
  0
LINE
  8
0
 10
50.6963
 20
35.9662
 11
51.9534
 21
32.0972
  0
LINE
  8
0
 10
51.9534
 20
32.0972
 11
45.3457
 21
37.8198
  0
LINE
  8
0
 10
-2.01591
 20
30.8359
 11
-10.0798
 21
37.8197
  0
LINE
  8
0
 10
-10.0798
 20
37.8197
 11
-7.62939e-05
 21
34.3278
  0
LINE
  8
0
 10
-7.62939e-05
 20
34.3278
 11
10.0805
 21
37.8198
  0
LINE
  8
0
 10
10.0805
 20
37.8198
 11
2.01602
 21
30.8358
  0
LINE
  8
0
 10
2.01602
 20
30.8358
 11
0.000213623
 21
20.3605
  0
LINE
  8
0
 10
0.000213623
 20
20.3605
 11
-2.01591
 21
30.8359
  0
LINE
  8
0
 10
25.6969
 20
30.8359
 11
17.633
 21
37.8196
  0
LINE
  8
0
 10
17.633
 20
37.8196
 11
27.7128
 21
34.3277
  0
LINE
  8
0
 10
27.7128
 20
34.3277
 11
37.7934
 21
37.8198
  0
LINE
  8
0
 10
37.7934
 20
37.8198
 11
29.7289
 21
30.8357
  0
LINE
  8
0
 10
29.7289
 20
30.8357
 11
27.713
 21
20.3604
  0
LINE
  8
0
 10
27.713
 20
20.3604
 11
25.6969
 21
30.8359
  0
LINE
  8
0
 10
-38.2124
 20
35.6429
 11
-33.1646
 21
31.2713
  0
LINE
  8
0
 10
-33.1646
 20
31.2713
 11
-39.4743
 21
29.0853
  0
LINE
  8
0
 10
-39.4743
 20
29.0853
 11
-38.2124
 21
35.6429
  0
LINE
  8
0
 10
-10.4996
 20
35.6429
 11
-5.45174
 21
31.2713
  0
LINE
  8
0
 10
-5.45174
 20
31.2713
 11
-11.7614
 21
29.0853
  0
LINE
  8
0
 10
-11.7614
 20
29.0853
 11
-10.4996
 21
35.6429
  0
LINE
  8
0
 10
17.2132
 20
35.6428
 11
22.2611
 21
31.2713
  0
LINE
  8
0
 10
22.2611
 20
31.2713
 11
15.9514
 21
29.0853
  0
LINE
  8
0
 10
15.9514
 20
29.0853
 11
17.2132
 21
35.6428
  0
LINE
  8
0
 10
44.9261
 20
35.6428
 11
49.9736
 21
31.2713
  0
LINE
  8
0
 10
49.9736
 20
31.2713
 11
43.6641
 21
29.0854
  0
LINE
  8
0
 10
43.6641
 20
29.0854
 11
44.9261
 21
35.6428
  0
LINE
  8
0
 10
-49.974
 20
31.2714
 11
-44.926
 21
35.6428
  0
LINE
  8
0
 10
-44.926
 20
35.6428
 11
-43.6641
 21
29.0854
  0
LINE
  8
0
 10
-43.6641
 20
29.0854
 11
-49.974
 21
31.2714
  0
LINE
  8
0
 10
-22.2612
 20
31.2714
 11
-17.2132
 21
35.6427
  0
LINE
  8
0
 10
-17.2132
 20
35.6427
 11
-15.9512
 21
29.0854
  0
LINE
  8
0
 10
-15.9512
 20
29.0854
 11
-22.2612
 21
31.2714
  0
LINE
  8
0
 10
5.45163
 20
31.2713
 11
10.4996
 21
35.6427
  0
LINE
  8
0
 10
10.4996
 20
35.6427
 11
11.7616
 21
29.0853
  0
LINE
  8
0
 10
11.7616
 20
29.0853
 11
5.45163
 21
31.2713
  0
LINE
  8
0
 10
33.1645
 20
31.2713
 11
38.2122
 21
35.6425
  0
LINE
  8
0
 10
38.2122
 20
35.6425
 11
39.474
 21
29.0856
  0
LINE
  8
0
 10
39.474
 20
29.0856
 11
33.1645
 21
31.2713
  0
LINE
  8
0
 10
39.5532
 20
22.8361
 11
31.4893
 21
29.8198
  0
LINE
  8
0
 10
31.4893
 20
29.8198
 11
41.569
 21
26.3279
  0
LINE
  8
0
 10
41.569
 20
26.3279
 11
51.6497
 21
29.8199
  0
LINE
  8
0
 10
51.6497
 20
29.8199
 11
43.5852
 21
22.8359
  0
LINE
  8
0
 10
43.5852
 20
22.8359
 11
41.5694
 21
12.3606
  0
LINE
  8
0
 10
41.5694
 20
12.3606
 11
39.5532
 21
22.8361
  0
LINE
  8
0
 10
-43.5852
 20
22.8359
 11
-51.6491
 21
29.8197
  0
LINE
  8
0
 10
-51.6491
 20
29.8197
 11
-41.5693
 21
26.3278
  0
LINE
  8
0
 10
-41.5693
 20
26.3278
 11
-31.4887
 21
29.8198
  0
LINE
  8
0
 10
-31.4887
 20
29.8198
 11
-39.5532
 21
22.8358
  0
LINE
  8
0
 10
-39.5532
 20
22.8358
 11
-41.569
 21
12.3605
  0
LINE
  8
0
 10
-41.569
 20
12.3605
 11
-43.5852
 21
22.8359
  0
LINE
  8
0
 10
-15.8723
 20
22.8359
 11
-23.9363
 21
29.8197
  0
LINE
  8
0
 10
-23.9363
 20
29.8197
 11
-13.8565
 21
26.3278
  0
LINE
  8
0
 10
-13.8565
 20
26.3278
 11
-3.77588
 21
29.8198
  0
LINE
  8
0
 10
-3.77588
 20
29.8198
 11
-11.8404
 21
22.8358
  0
LINE
  8
0
 10
-11.8404
 20
22.8358
 11
-13.8562
 21
12.3605
  0
LINE
  8
0
 10
-13.8562
 20
12.3605
 11
-15.8723
 21
22.8359
  0
LINE
  8
0
 10
11.8405
 20
22.8359
 11
3.77657
 21
29.8196
  0
LINE
  8
0
 10
3.77657
 20
29.8196
 11
13.8563
 21
26.3277
  0
LINE
  8
0
 10
13.8563
 20
26.3277
 11
23.937
 21
29.8198
  0
LINE
  8
0
 10
23.937
 20
29.8198
 11
15.8725
 21
22.8357
  0
LINE
  8
0
 10
15.8725
 20
22.8357
 11
13.8566
 21
12.3604
  0
LINE
  8
0
 10
13.8566
 20
12.3604
 11
11.8405
 21
22.8359
  0
LINE
  8
0
 10
-52.0688
 20
27.6429
 11
-47.021
 21
23.2713
  0
LINE
  8
0
 10
-47.021
 20
23.2713
 11
-53.3307
 21
21.0853
  0
LINE
  8
0
 10
-53.3307
 20
21.0853
 11
-52.0688
 21
27.6429
  0
LINE
  8
0
 10
-24.356
 20
27.6429
 11
-19.3081
 21
23.2713
  0
LINE
  8
0
 10
-19.3081
 20
23.2713
 11
-25.6179
 21
21.0853
  0
LINE
  8
0
 10
-25.6179
 20
21.0853
 11
-24.356
 21
27.6429
  0
LINE
  8
0
 10
3.35681
 20
27.6428
 11
8.40468
 21
23.2713
  0
LINE
  8
0
 10
8.40468
 20
23.2713
 11
2.09497
 21
21.0853
  0
LINE
  8
0
 10
2.09497
 20
21.0853
 11
3.35681
 21
27.6428
  0
LINE
  8
0
 10
31.0697
 20
27.6428
 11
36.1172
 21
23.2713
  0
LINE
  8
0
 10
36.1172
 20
23.2713
 11
29.8077
 21
21.0854
  0
LINE
  8
0
 10
29.8077
 20
21.0854
 11
31.0697
 21
27.6428
  0
LINE
  8
0
 10
47.0208
 20
23.2715
 11
52.0686
 21
27.6427
  0
LINE
  8
0
 10
52.0686
 20
27.6427
 11
53.3303
 21
21.0858
  0
LINE
  8
0
 10
53.3303
 20
21.0858
 11
47.0208
 21
23.2715
  0
LINE
  8
0
 10
-36.1176
 20
23.2714
 11
-31.0696
 21
27.6427
  0
LINE
  8
0
 10
-31.0696
 20
27.6427
 11
-29.8076
 21
21.0854
  0
LINE
  8
0
 10
-29.8076
 20
21.0854
 11
-36.1176
 21
23.2714
  0
LINE
  8
0
 10
-8.40475
 20
23.2713
 11
-3.35677
 21
27.6427
  0
LINE
  8
0
 10
-3.35677
 20
27.6427
 11
-2.0948
 21
21.0853
  0
LINE
  8
0
 10
-2.0948
 20
21.0853
 11
-8.40475
 21
23.2713
  0
LINE
  8
0
 10
19.3081
 20
23.2713
 11
24.3558
 21
27.6425
  0
LINE
  8
0
 10
24.3558
 20
27.6425
 11
25.6176
 21
21.0856
  0
LINE
  8
0
 10
25.6176
 20
21.0856
 11
19.3081
 21
23.2713
  0
LINE
  8
0
 10
-55.5525
 20
21.0205
 11
-54.9294
 21
22.938
  0
LINE
  8
0
 10
-54.9294
 20
22.938
 11
-55.4254
 21
20.3605
  0
LINE
  8
0
 10
-55.4254
 20
20.3605
 11
-55.5525
 21
21.0205
  0
LINE
  8
0
 10
54.9301
 20
22.9361
 11
55.5526
 21
21.02
  0
LINE
  8
0
 10
55.5526
 20
21.02
 11
55.4258
 21
20.3606
  0
LINE
  8
0
 10
55.4258
 20
20.3606
 11
54.9301
 21
22.9361
  0
LINE
  8
0
 10
53.9554
 20
12
 11
53.4095
 21
14.8362
  0
LINE
  8
0
 10
53.4095
 20
14.8362
 11
45.3456
 21
21.82
  0
LINE
  8
0
 10
45.3456
 20
21.82
 11
55.4254
 21
18.3281
  0
LINE
  8
0
 10
55.4254
 20
18.3281
 11
56.3259
 21
18.64
  0
LINE
  8
0
 10
56.3259
 20
18.64
 11
57.5355
 21
14.9175
  0
LINE
  8
0
 10
57.5355
 20
14.9175
 11
57.4415
 21
14.8361
  0
LINE
  8
0
 10
57.4415
 20
14.8361
 11
56.8957
 21
12
  0
LINE
  8
0
 10
56.8957
 20
12
 11
53.9554
 21
12
  0
LINE
  8
0
 10
26.2426
 20
12
 11
25.6968
 21
14.8361
  0
LINE
  8
0
 10
25.6968
 20
14.8361
 11
17.6329
 21
21.8198
  0
LINE
  8
0
 10
17.6329
 20
21.8198
 11
27.7126
 21
18.3279
  0
LINE
  8
0
 10
27.7126
 20
18.3279
 11
37.7932
 21
21.8199
  0
LINE
  8
0
 10
37.7932
 20
21.8199
 11
29.7288
 21
14.8359
  0
LINE
  8
0
 10
29.7288
 20
14.8359
 11
29.183
 21
12
  0
LINE
  8
0
 10
29.183
 20
12
 11
26.2426
 21
12
  0
LINE
  8
0
 10
-56.8957
 20
12
 11
-57.4416
 21
14.8359
  0
LINE
  8
0
 10
-57.4416
 20
14.8359
 11
-57.5355
 21
14.9173
  0
LINE
  8
0
 10
-57.5355
 20
14.9173
 11
-56.326
 21
18.6397
  0
LINE
  8
0
 10
-56.326
 20
18.6397
 11
-55.4257
 21
18.3278
  0
LINE
  8
0
 10
-55.4257
 20
18.3278
 11
-45.3451
 21
21.8198
  0
LINE
  8
0
 10
-45.3451
 20
21.8198
 11
-53.4096
 21
14.8358
  0
LINE
  8
0
 10
-53.4096
 20
14.8358
 11
-53.9553
 21
12
  0
LINE
  8
0
 10
-53.9553
 20
12
 11
-56.8957
 21
12
  0
LINE
  8
0
 10
-29.1829
 20
12
 11
-29.7287
 21
14.8359
  0
LINE
  8
0
 10
-29.7287
 20
14.8359
 11
-37.7927
 21
21.8197
  0
LINE
  8
0
 10
-37.7927
 20
21.8197
 11
-27.7129
 21
18.3278
  0
LINE
  8
0
 10
-27.7129
 20
18.3278
 11
-17.6323
 21
21.8198
  0
LINE
  8
0
 10
-17.6323
 20
21.8198
 11
-25.6968
 21
14.8358
  0
LINE
  8
0
 10
-25.6968
 20
14.8358
 11
-26.2425
 21
12
  0
LINE
  8
0
 10
-26.2425
 20
12
 11
-29.1829
 21
12
  0
LINE
  8
0
 10
-1.47011
 20
12
 11
-2.0159
 21
14.8359
  0
LINE
  8
0
 10
-2.0159
 20
14.8359
 11
-10.0798
 21
21.8196
  0
LINE
  8
0
 10
-10.0798
 20
21.8196
 11
-4.57764e-05
 21
18.3277
  0
LINE
  8
0
 10
-4.57764e-05
 20
18.3277
 11
10.0805
 21
21.8198
  0
LINE
  8
0
 10
10.0805
 20
21.8198
 11
2.01605
 21
14.8357
  0
LINE
  8
0
 10
2.01605
 20
14.8357
 11
1.47035
 21
12
  0
LINE
  8
0
 10
1.47035
 20
12
 11
-1.47011
 21
12
  0
LINE
  8
0
 10
44.9259
 20
19.643
 11
49.9735
 21
15.2715
  0
LINE
  8
0
 10
49.9735
 20
15.2715
 11
43.664
 21
13.0856
  0
LINE
  8
0
 10
43.664
 20
13.0856
 11
44.9259
 21
19.643
  0
LINE
  8
0
 10
-38.2124
 20
19.6429
 11
-33.1646
 21
15.2713
  0
LINE
  8
0
 10
-33.1646
 20
15.2713
 11
-39.4743
 21
13.0853
  0
LINE
  8
0
 10
-39.4743
 20
13.0853
 11
-38.2124
 21
19.6429
  0
LINE
  8
0
 10
-10.4996
 20
19.6428
 11
-5.45172
 21
15.2713
  0
LINE
  8
0
 10
-5.45172
 20
15.2713
 11
-11.7614
 21
13.0853
  0
LINE
  8
0
 10
-11.7614
 20
13.0853
 11
-10.4996
 21
19.6428
  0
LINE
  8
0
 10
17.2132
 20
19.6428
 11
22.2608
 21
15.2713
  0
LINE
  8
0
 10
22.2608
 20
15.2713
 11
15.9513
 21
13.0854
  0
LINE
  8
0
 10
15.9513
 20
13.0854
 11
17.2132
 21
19.6428
  0
LINE
  8
0
 10
-49.974
 20
15.2714
 11
-44.926
 21
19.6427
  0
LINE
  8
0
 10
-44.926
 20
19.6427
 11
-43.664
 21
13.0854
  0
LINE
  8
0
 10
-43.664
 20
13.0854
 11
-49.974
 21
15.2714
  0
LINE
  8
0
 10
33.1644
 20
15.2715
 11
38.2121
 21
19.6427
  0
LINE
  8
0
 10
38.2121
 20
19.6427
 11
39.4739
 21
13.0858
  0
LINE
  8
0
 10
39.4739
 20
13.0858
 11
33.1644
 21
15.2715
  0
LINE
  8
0
 10
-22.2612
 20
15.2713
 11
-17.2132
 21
19.6427
  0
LINE
  8
0
 10
-17.2132
 20
19.6427
 11
-15.9512
 21
13.0853
  0
LINE
  8
0
 10
-15.9512
 20
13.0853
 11
-22.2612
 21
15.2713
  0
LINE
  8
0
 10
5.45166
 20
15.2713
 11
10.4994
 21
19.6425
  0
LINE
  8
0
 10
10.4994
 20
19.6425
 11
11.7612
 21
13.0856
  0
LINE
  8
0
 10
11.7612
 20
13.0856
 11
5.45166
 21
15.2713
  0
LINE
  8
0
 10
46.3954
 20
12
 11
51.6496
 21
13.8201
  0
LINE
  8
0
 10
51.6496
 20
13.8201
 11
49.5479
 21
12
  0
LINE
  8
0
 10
49.5479
 20
12
 11
46.3954
 21
12
  0
LINE
  8
0
 10
33.5906
 20
12
 11
31.4892
 21
13.82
  0
LINE
  8
0
 10
31.4892
 20
13.82
 11
36.7428
 21
12
  0
LINE
  8
0
 10
36.7428
 20
12
 11
33.5906
 21
12
  0
LINE
  8
0
 10
18.6831
 20
12
 11
23.9368
 21
13.8199
  0
LINE
  8
0
 10
23.9368
 20
13.8199
 11
21.8353
 21
12
  0
LINE
  8
0
 10
21.8353
 20
12
 11
18.6831
 21
12
  0
LINE
  8
0
 10
5.87775
 20
12
 11
3.77646
 21
13.8198
  0
LINE
  8
0
 10
3.77646
 20
13.8198
 11
9.02956
 21
12
  0
LINE
  8
0
 10
9.02956
 20
12
 11
5.87775
 21
12
  0
LINE
  8
0
 10
-36.742
 20
12
 11
-31.4887
 21
13.8198
  0
LINE
  8
0
 10
-31.4887
 20
13.8198
 11
-33.59
 21
12
  0
LINE
  8
0
 10
-33.59
 20
12
 11
-36.742
 21
12
  0
LINE
  8
0
 10
-9.02904
 20
12
 11
-3.77585
 21
13.8198
  0
LINE
  8
0
 10
-3.77585
 20
13.8198
 11
-5.87714
 21
12
  0
LINE
  8
0
 10
-5.87714
 20
12
 11
-9.02904
 21
12
  0
LINE
  8
0
 10
-49.548
 20
12
 11
-51.6491
 21
13.8197
  0
LINE
  8
0
 10
-51.6491
 20
13.8197
 11
-46.3964
 21
12
  0
LINE
  8
0
 10
-46.3964
 20
12
 11
-49.548
 21
12
  0
LINE
  8
0
 10
-21.8352
 20
12
 11
-23.9362
 21
13.8196
  0
LINE
  8
0
 10
-23.9362
 20
13.8196
 11
-18.6837
 21
12
  0
LINE
  8
0
 10
-18.6837
 20
12
 11
-21.8352
 21
12
  0
LINE
  8
0
 10
-10
 20
7
 11
-10
 21
11
  0
LINE
  8
0
 10
-10
 20
11
 11
10
 21
11
  0
LINE
  8
0
 10
10
 20
11
 11
10
 21
7
  0
LINE
  8
0
 10
10
 20
7
 11
-10
 21
7
  0
LINE
  8
0
 10
-68.6534
 20
2.70622
 11
-68.7785
 21
2.71805
  0
LINE
  8
0
 10
-68.7785
 20
2.71805
 11
-68.9026
 21
2.7377
  0
LINE
  8
0
 10
-68.9026
 20
2.7377
 11
-69.0252
 21
2.76511
  0
LINE
  8
0
 10
-69.0252
 20
2.76511
 11
-69.1459
 21
2.80016
  0
LINE
  8
0
 10
-69.1459
 20
2.80016
 11
-69.2641
 21
2.84273
  0
LINE
  8
0
 10
-69.2641
 20
2.84273
 11
-69.3794
 21
2.89262
  0
LINE
  8
0
 10
-69.3794
 20
2.89262
 11
-69.4914
 21
2.94966
  0
LINE
  8
0
 10
-69.4914
 20
2.94966
 11
-69.5995
 21
3.01363
  0
LINE
  8
0
 10
-69.5995
 20
3.01363
 11
-69.7034
 21
3.08424
  0
LINE
  8
0
 10
-69.7034
 20
3.08424
 11
-69.8027
 21
3.16125
  0
LINE
  8
0
 10
-69.8027
 20
3.16125
 11
-69.897
 21
3.24434
  0
LINE
  8
0
 10
-69.897
 20
3.24434
 11
-69.9858
 21
3.33318
  0
LINE
  8
0
 10
-69.9858
 20
3.33318
 11
-70.0689
 21
3.42743
  0
LINE
  8
0
 10
-70.0689
 20
3.42743
 11
-70.1459
 21
3.5267
  0
LINE
  8
0
 10
-70.1459
 20
3.5267
 11
-70.2165
 21
3.63062
  0
LINE
  8
0
 10
-70.2165
 20
3.63062
 11
-70.2805
 21
3.73877
  0
LINE
  8
0
 10
-70.2805
 20
3.73877
 11
-70.3375
 21
3.85072
  0
LINE
  8
0
 10
-70.3375
 20
3.85072
 11
-70.3874
 21
3.96602
  0
LINE
  8
0
 10
-70.3874
 20
3.96602
 11
-70.43
 21
4.08424
  0
LINE
  8
0
 10
-70.43
 20
4.08424
 11
-70.465
 21
4.2049
  0
LINE
  8
0
 10
-70.465
 20
4.2049
 11
-70.4924
 21
4.32751
  0
LINE
  8
0
 10
-70.4924
 20
4.32751
 11
-70.5121
 21
4.45161
  0
LINE
  8
0
 10
-70.5121
 20
4.45161
 11
-70.5239
 21
4.57669
  0
LINE
  8
0
 10
-70.5239
 20
4.57669
 11
-70.5279
 21
4.70227
  0
LINE
  8
0
 10
-70.5279
 20
4.70227
 11
-70.5239
 21
4.82785
  0
LINE
  8
0
 10
-70.5239
 20
4.82785
 11
-70.5121
 21
4.95294
  0
LINE
  8
0
 10
-70.5121
 20
4.95294
 11
-70.4924
 21
5.07704
  0
LINE
  8
0
 10
-70.4924
 20
5.07704
 11
-70.465
 21
5.19966
  0
LINE
  8
0
 10
-70.465
 20
5.19966
 11
-70.43
 21
5.32031
  0
LINE
  8
0
 10
-70.43
 20
5.32031
 11
-70.3874
 21
5.43852
  0
LINE
  8
0
 10
-70.3874
 20
5.43852
 11
-70.3375
 21
5.55383
  0
LINE
  8
0
 10
-70.3375
 20
5.55383
 11
-70.2805
 21
5.66579
  0
LINE
  8
0
 10
-70.2805
 20
5.66579
 11
-70.2165
 21
5.77393
  0
LINE
  8
0
 10
-70.2165
 20
5.77393
 11
-70.1459
 21
5.87784
  0
LINE
  8
0
 10
-70.1459
 20
5.87784
 11
-70.0689
 21
5.97713
  0
LINE
  8
0
 10
-70.0689
 20
5.97713
 11
-69.9858
 21
6.07137
  0
LINE
  8
0
 10
-69.9858
 20
6.07137
 11
-69.897
 21
6.16022
  0
LINE
  8
0
 10
-69.897
 20
6.16022
 11
-69.8027
 21
6.2433
  0
LINE
  8
0
 10
-69.8027
 20
6.2433
 11
-69.7034
 21
6.32031
  0
LINE
  8
0
 10
-69.7034
 20
6.32031
 11
-69.5995
 21
6.39093
  0
LINE
  8
0
 10
-69.5995
 20
6.39093
 11
-69.4914
 21
6.4549
  0
LINE
  8
0
 10
-69.4914
 20
6.4549
 11
-69.3794
 21
6.51193
  0
LINE
  8
0
 10
-69.3794
 20
6.51193
 11
-69.2641
 21
6.56183
  0
LINE
  8
0
 10
-69.2641
 20
6.56183
 11
-69.1459
 21
6.60439
  0
LINE
  8
0
 10
-69.1459
 20
6.60439
 11
-69.0252
 21
6.63943
  0
LINE
  8
0
 10
-69.0252
 20
6.63943
 11
-68.9026
 21
6.66685
  0
LINE
  8
0
 10
-68.9026
 20
6.66685
 11
-68.7785
 21
6.68651
  0
LINE
  8
0
 10
-68.7785
 20
6.68651
 11
-68.6534
 21
6.69833
  0
LINE
  8
0
 10
-68.6534
 20
6.69833
 11
-68.5279
 21
6.70227
  0
LINE
  8
0
 10
-68.5279
 20
6.70227
 11
-68.4023
 21
6.69833
  0
LINE
  8
0
 10
-68.4023
 20
6.69833
 11
-68.2772
 21
6.68651
  0
LINE
  8
0
 10
-68.2772
 20
6.68651
 11
-68.1531
 21
6.66685
  0
LINE
  8
0
 10
-68.1531
 20
6.66685
 11
-68.0305
 21
6.63943
  0
LINE
  8
0
 10
-68.0305
 20
6.63943
 11
-67.9098
 21
6.60439
  0
LINE
  8
0
 10
-67.9098
 20
6.60439
 11
-67.7916
 21
6.56183
  0
LINE
  8
0
 10
-67.7916
 20
6.56183
 11
-67.6763
 21
6.51193
  0
LINE
  8
0
 10
-67.6763
 20
6.51193
 11
-67.5643
 21
6.4549
  0
LINE
  8
0
 10
-67.5643
 20
6.4549
 11
-67.4562
 21
6.39093
  0
LINE
  8
0
 10
-67.4562
 20
6.39093
 11
-67.3523
 21
6.32031
  0
LINE
  8
0
 10
-67.3523
 20
6.32031
 11
-67.253
 21
6.2433
  0
LINE
  8
0
 10
-67.253
 20
6.2433
 11
-67.1588
 21
6.16022
  0
LINE
  8
0
 10
-67.1588
 20
6.16022
 11
-67.0699
 21
6.07137
  0
LINE
  8
0
 10
-67.0699
 20
6.07137
 11
-66.9868
 21
5.97713
  0
LINE
  8
0
 10
-66.9868
 20
5.97713
 11
-66.9098
 21
5.87784
  0
LINE
  8
0
 10
-66.9098
 20
5.87784
 11
-66.8392
 21
5.77393
  0
LINE
  8
0
 10
-66.8392
 20
5.77393
 11
-66.7752
 21
5.66579
  0
LINE
  8
0
 10
-66.7752
 20
5.66579
 11
-66.7182
 21
5.55383
  0
LINE
  8
0
 10
-66.7182
 20
5.55383
 11
-66.6683
 21
5.43852
  0
LINE
  8
0
 10
-66.6683
 20
5.43852
 11
-66.6257
 21
5.32031
  0
LINE
  8
0
 10
-66.6257
 20
5.32031
 11
-66.5907
 21
5.19966
  0
LINE
  8
0
 10
-66.5907
 20
5.19966
 11
-66.5633
 21
5.07704
  0
LINE
  8
0
 10
-66.5633
 20
5.07704
 11
-66.5436
 21
4.95294
  0
LINE
  8
0
 10
-66.5436
 20
4.95294
 11
-66.5318
 21
4.82785
  0
LINE
  8
0
 10
-66.5318
 20
4.82785
 11
-66.5279
 21
4.70227
  0
LINE
  8
0
 10
-66.5279
 20
4.70227
 11
-66.5318
 21
4.57669
  0
LINE
  8
0
 10
-66.5318
 20
4.57669
 11
-66.5436
 21
4.45161
  0
LINE
  8
0
 10
-66.5436
 20
4.45161
 11
-66.5633
 21
4.32751
  0
LINE
  8
0
 10
-66.5633
 20
4.32751
 11
-66.5907
 21
4.2049
  0
LINE
  8
0
 10
-66.5907
 20
4.2049
 11
-66.6257
 21
4.08424
  0
LINE
  8
0
 10
-66.6257
 20
4.08424
 11
-66.6683
 21
3.96602
  0
LINE
  8
0
 10
-66.6683
 20
3.96602
 11
-66.7182
 21
3.85072
  0
LINE
  8
0
 10
-66.7182
 20
3.85072
 11
-66.7752
 21
3.73877
  0
LINE
  8
0
 10
-66.7752
 20
3.73877
 11
-66.8392
 21
3.63062
  0
LINE
  8
0
 10
-66.8392
 20
3.63062
 11
-66.9098
 21
3.5267
  0
LINE
  8
0
 10
-66.9098
 20
3.5267
 11
-66.9868
 21
3.42743
  0
LINE
  8
0
 10
-66.9868
 20
3.42743
 11
-67.0699
 21
3.33318
  0
LINE
  8
0
 10
-67.0699
 20
3.33318
 11
-67.1588
 21
3.24434
  0
LINE
  8
0
 10
-67.1588
 20
3.24434
 11
-67.253
 21
3.16125
  0
LINE
  8
0
 10
-67.253
 20
3.16125
 11
-67.3523
 21
3.08424
  0
LINE
  8
0
 10
-67.3523
 20
3.08424
 11
-67.4562
 21
3.01363
  0
LINE
  8
0
 10
-67.4562
 20
3.01363
 11
-67.5643
 21
2.94966
  0
LINE
  8
0
 10
-67.5643
 20
2.94966
 11
-67.6763
 21
2.89262
  0
LINE
  8
0
 10
-67.6763
 20
2.89262
 11
-67.7916
 21
2.84273
  0
LINE
  8
0
 10
-67.7916
 20
2.84273
 11
-67.9098
 21
2.80016
  0
LINE
  8
0
 10
-67.9098
 20
2.80016
 11
-68.0305
 21
2.76511
  0
LINE
  8
0
 10
-68.0305
 20
2.76511
 11
-68.1531
 21
2.7377
  0
LINE
  8
0
 10
-68.1531
 20
2.7377
 11
-68.2772
 21
2.71805
  0
LINE
  8
0
 10
-68.2772
 20
2.71805
 11
-68.4023
 21
2.70622
  0
LINE
  8
0
 10
-68.4023
 20
2.70622
 11
-68.5279
 21
2.70227
  0
LINE
  8
0
 10
-68.5279
 20
2.70227
 11
-68.6534
 21
2.70622
  0
LINE
  8
0
 10
68.4023
 20
2.70622
 11
68.2772
 21
2.71805
  0
LINE
  8
0
 10
68.2772
 20
2.71805
 11
68.1531
 21
2.7377
  0
LINE
  8
0
 10
68.1531
 20
2.7377
 11
68.0305
 21
2.76511
  0
LINE
  8
0
 10
68.0305
 20
2.76511
 11
67.9098
 21
2.80016
  0
LINE
  8
0
 10
67.9098
 20
2.80016
 11
67.7916
 21
2.84273
  0
LINE
  8
0
 10
67.7916
 20
2.84273
 11
67.6763
 21
2.89262
  0
LINE
  8
0
 10
67.6763
 20
2.89262
 11
67.5643
 21
2.94966
  0
LINE
  8
0
 10
67.5643
 20
2.94966
 11
67.4562
 21
3.01363
  0
LINE
  8
0
 10
67.4562
 20
3.01363
 11
67.3523
 21
3.08424
  0
LINE
  8
0
 10
67.3523
 20
3.08424
 11
67.253
 21
3.16125
  0
LINE
  8
0
 10
67.253
 20
3.16125
 11
67.1588
 21
3.24434
  0
LINE
  8
0
 10
67.1588
 20
3.24434
 11
67.0699
 21
3.33318
  0
LINE
  8
0
 10
67.0699
 20
3.33318
 11
66.9868
 21
3.42743
  0
LINE
  8
0
 10
66.9868
 20
3.42743
 11
66.9098
 21
3.5267
  0
LINE
  8
0
 10
66.9098
 20
3.5267
 11
66.8392
 21
3.63062
  0
LINE
  8
0
 10
66.8392
 20
3.63062
 11
66.7752
 21
3.73877
  0
LINE
  8
0
 10
66.7752
 20
3.73877
 11
66.7182
 21
3.85072
  0
LINE
  8
0
 10
66.7182
 20
3.85072
 11
66.6683
 21
3.96602
  0
LINE
  8
0
 10
66.6683
 20
3.96602
 11
66.6257
 21
4.08424
  0
LINE
  8
0
 10
66.6257
 20
4.08424
 11
66.5907
 21
4.2049
  0
LINE
  8
0
 10
66.5907
 20
4.2049
 11
66.5633
 21
4.32751
  0
LINE
  8
0
 10
66.5633
 20
4.32751
 11
66.5436
 21
4.45161
  0
LINE
  8
0
 10
66.5436
 20
4.45161
 11
66.5318
 21
4.57669
  0
LINE
  8
0
 10
66.5318
 20
4.57669
 11
66.5279
 21
4.70227
  0
LINE
  8
0
 10
66.5279
 20
4.70227
 11
66.5318
 21
4.82785
  0
LINE
  8
0
 10
66.5318
 20
4.82785
 11
66.5436
 21
4.95294
  0
LINE
  8
0
 10
66.5436
 20
4.95294
 11
66.5633
 21
5.07704
  0
LINE
  8
0
 10
66.5633
 20
5.07704
 11
66.5907
 21
5.19966
  0
LINE
  8
0
 10
66.5907
 20
5.19966
 11
66.6257
 21
5.32031
  0
LINE
  8
0
 10
66.6257
 20
5.32031
 11
66.6683
 21
5.43852
  0
LINE
  8
0
 10
66.6683
 20
5.43852
 11
66.7182
 21
5.55383
  0
LINE
  8
0
 10
66.7182
 20
5.55383
 11
66.7752
 21
5.66579
  0
LINE
  8
0
 10
66.7752
 20
5.66579
 11
66.8392
 21
5.77393
  0
LINE
  8
0
 10
66.8392
 20
5.77393
 11
66.9098
 21
5.87784
  0
LINE
  8
0
 10
66.9098
 20
5.87784
 11
66.9868
 21
5.97713
  0
LINE
  8
0
 10
66.9868
 20
5.97713
 11
67.0699
 21
6.07137
  0
LINE
  8
0
 10
67.0699
 20
6.07137
 11
67.1588
 21
6.16022
  0
LINE
  8
0
 10
67.1588
 20
6.16022
 11
67.253
 21
6.2433
  0
LINE
  8
0
 10
67.253
 20
6.2433
 11
67.3523
 21
6.32031
  0
LINE
  8
0
 10
67.3523
 20
6.32031
 11
67.4562
 21
6.39093
  0
LINE
  8
0
 10
67.4562
 20
6.39093
 11
67.5643
 21
6.4549
  0
LINE
  8
0
 10
67.5643
 20
6.4549
 11
67.6763
 21
6.51193
  0
LINE
  8
0
 10
67.6763
 20
6.51193
 11
67.7916
 21
6.56183
  0
LINE
  8
0
 10
67.7916
 20
6.56183
 11
67.9098
 21
6.60439
  0
LINE
  8
0
 10
67.9098
 20
6.60439
 11
68.0305
 21
6.63943
  0
LINE
  8
0
 10
68.0305
 20
6.63943
 11
68.1531
 21
6.66685
  0
LINE
  8
0
 10
68.1531
 20
6.66685
 11
68.2772
 21
6.68651
  0
LINE
  8
0
 10
68.2772
 20
6.68651
 11
68.4023
 21
6.69833
  0
LINE
  8
0
 10
68.4023
 20
6.69833
 11
68.5279
 21
6.70227
  0
LINE
  8
0
 10
68.5279
 20
6.70227
 11
68.6534
 21
6.69833
  0
LINE
  8
0
 10
68.6534
 20
6.69833
 11
68.7785
 21
6.68651
  0
LINE
  8
0
 10
68.7785
 20
6.68651
 11
68.9026
 21
6.66685
  0
LINE
  8
0
 10
68.9026
 20
6.66685
 11
69.0252
 21
6.63943
  0
LINE
  8
0
 10
69.0252
 20
6.63943
 11
69.1459
 21
6.60439
  0
LINE
  8
0
 10
69.1459
 20
6.60439
 11
69.2641
 21
6.56183
  0
LINE
  8
0
 10
69.2641
 20
6.56183
 11
69.3794
 21
6.51193
  0
LINE
  8
0
 10
69.3794
 20
6.51193
 11
69.4914
 21
6.4549
  0
LINE
  8
0
 10
69.4914
 20
6.4549
 11
69.5995
 21
6.39093
  0
LINE
  8
0
 10
69.5995
 20
6.39093
 11
69.7034
 21
6.32031
  0
LINE
  8
0
 10
69.7034
 20
6.32031
 11
69.8027
 21
6.2433
  0
LINE
  8
0
 10
69.8027
 20
6.2433
 11
69.897
 21
6.16022
  0
LINE
  8
0
 10
69.897
 20
6.16022
 11
69.9858
 21
6.07137
  0
LINE
  8
0
 10
69.9858
 20
6.07137
 11
70.0689
 21
5.97713
  0
LINE
  8
0
 10
70.0689
 20
5.97713
 11
70.1459
 21
5.87784
  0
LINE
  8
0
 10
70.1459
 20
5.87784
 11
70.2165
 21
5.77393
  0
LINE
  8
0
 10
70.2165
 20
5.77393
 11
70.2805
 21
5.66579
  0
LINE
  8
0
 10
70.2805
 20
5.66579
 11
70.3375
 21
5.55383
  0
LINE
  8
0
 10
70.3375
 20
5.55383
 11
70.3874
 21
5.43852
  0
LINE
  8
0
 10
70.3874
 20
5.43852
 11
70.43
 21
5.32031
  0
LINE
  8
0
 10
70.43
 20
5.32031
 11
70.465
 21
5.19966
  0
LINE
  8
0
 10
70.465
 20
5.19966
 11
70.4924
 21
5.07704
  0
LINE
  8
0
 10
70.4924
 20
5.07704
 11
70.5121
 21
4.95294
  0
LINE
  8
0
 10
70.5121
 20
4.95294
 11
70.5239
 21
4.82785
  0
LINE
  8
0
 10
70.5239
 20
4.82785
 11
70.5279
 21
4.70227
  0
LINE
  8
0
 10
70.5279
 20
4.70227
 11
70.5239
 21
4.57669
  0
LINE
  8
0
 10
70.5239
 20
4.57669
 11
70.5121
 21
4.45161
  0
LINE
  8
0
 10
70.5121
 20
4.45161
 11
70.4924
 21
4.32751
  0
LINE
  8
0
 10
70.4924
 20
4.32751
 11
70.465
 21
4.2049
  0
LINE
  8
0
 10
70.465
 20
4.2049
 11
70.43
 21
4.08424
  0
LINE
  8
0
 10
70.43
 20
4.08424
 11
70.3874
 21
3.96602
  0
LINE
  8
0
 10
70.3874
 20
3.96602
 11
70.3375
 21
3.85072
  0
LINE
  8
0
 10
70.3375
 20
3.85072
 11
70.2805
 21
3.73877
  0
LINE
  8
0
 10
70.2805
 20
3.73877
 11
70.2165
 21
3.63062
  0
LINE
  8
0
 10
70.2165
 20
3.63062
 11
70.1459
 21
3.5267
  0
LINE
  8
0
 10
70.1459
 20
3.5267
 11
70.0689
 21
3.42743
  0
LINE
  8
0
 10
70.0689
 20
3.42743
 11
69.9858
 21
3.33318
  0
LINE
  8
0
 10
69.9858
 20
3.33318
 11
69.897
 21
3.24434
  0
LINE
  8
0
 10
69.897
 20
3.24434
 11
69.8027
 21
3.16125
  0
LINE
  8
0
 10
69.8027
 20
3.16125
 11
69.7034
 21
3.08424
  0
LINE
  8
0
 10
69.7034
 20
3.08424
 11
69.5995
 21
3.01363
  0
LINE
  8
0
 10
69.5995
 20
3.01363
 11
69.4914
 21
2.94966
  0
LINE
  8
0
 10
69.4914
 20
2.94966
 11
69.3794
 21
2.89262
  0
LINE
  8
0
 10
69.3794
 20
2.89262
 11
69.2641
 21
2.84273
  0
LINE
  8
0
 10
69.2641
 20
2.84273
 11
69.1459
 21
2.80016
  0
LINE
  8
0
 10
69.1459
 20
2.80016
 11
69.0252
 21
2.76511
  0
LINE
  8
0
 10
69.0252
 20
2.76511
 11
68.9026
 21
2.7377
  0
LINE
  8
0
 10
68.9026
 20
2.7377
 11
68.7785
 21
2.71805
  0
LINE
  8
0
 10
68.7785
 20
2.71805
 11
68.6534
 21
2.70622
  0
LINE
  8
0
 10
68.6534
 20
2.70622
 11
68.5279
 21
2.70227
  0
LINE
  8
0
 10
68.5279
 20
2.70227
 11
68.4023
 21
2.70622
  0
ENDSEC
  0
SECTION
  2
OBJECTS
  0
DICTIONARY
  0
ENDSEC
  0
EOF
