  0
SECTION
  2
BLOCKS
  0
ENDSEC
  0
SECTION
  2
ENTITIES
  0
LINE
  8
0
 10
0
 20
230.826
 11
-75
 21
0
  0
LINE
  8
0
 10
-75
 20
0
 11
75
 21
0
  0
LINE
  8
0
 10
75
 20
0
 11
0
 21
230.826
  0
LINE
  8
0
 10
-0.12558
 20
212.83
 11
-0.250656
 21
212.842
  0
LINE
  8
0
 10
-0.250656
 20
212.842
 11
-0.374756
 21
212.862
  0
LINE
  8
0
 10
-0.374756
 20
212.862
 11
-0.497375
 21
212.889
  0
LINE
  8
0
 10
-0.497375
 20
212.889
 11
-0.618027
 21
212.924
  0
LINE
  8
0
 10
-0.618027
 20
212.924
 11
-0.736237
 21
212.967
  0
LINE
  8
0
 10
-0.736237
 20
212.967
 11
-0.851547
 21
213.017
  0
LINE
  8
0
 10
-0.851547
 20
213.017
 11
-0.963501
 21
213.074
  0
LINE
  8
0
 10
-0.963501
 20
213.074
 11
-1.07164
 21
213.138
  0
LINE
  8
0
 10
-1.07164
 20
213.138
 11
-1.17557
 21
213.208
  0
LINE
  8
0
 10
-1.17557
 20
213.208
 11
-1.27484
 21
213.285
  0
LINE
  8
0
 10
-1.27484
 20
213.285
 11
-1.36908
 21
213.368
  0
LINE
  8
0
 10
-1.36908
 20
213.368
 11
-1.45793
 21
213.457
  0
LINE
  8
0
 10
-1.45793
 20
213.457
 11
-1.54102
 21
213.551
  0
LINE
  8
0
 10
-1.54102
 20
213.551
 11
-1.61803
 21
213.651
  0
LINE
  8
0
 10
-1.61803
 20
213.651
 11
-1.68864
 21
213.755
  0
LINE
  8
0
 10
-1.68864
 20
213.755
 11
-1.75261
 21
213.863
  0
LINE
  8
0
 10
-1.75261
 20
213.863
 11
-1.80965
 21
213.975
  0
LINE
  8
0
 10
-1.80965
 20
213.975
 11
-1.85954
 21
214.09
  0
LINE
  8
0
 10
-1.85954
 20
214.09
 11
-1.9021
 21
214.208
  0
LINE
  8
0
 10
-1.9021
 20
214.208
 11
-1.93716
 21
214.329
  0
LINE
  8
0
 10
-1.93716
 20
214.329
 11
-1.96457
 21
214.451
  0
LINE
  8
0
 10
-1.96457
 20
214.451
 11
-1.98422
 21
214.576
  0
LINE
  8
0
 10
-1.98422
 20
214.576
 11
-1.99605
 21
214.701
  0
LINE
  8
0
 10
-1.99605
 20
214.701
 11
-2
 21
214.826
  0
LINE
  8
0
 10
-2
 20
214.826
 11
-1.99605
 21
214.952
  0
LINE
  8
0
 10
-1.99605
 20
214.952
 11
-1.98422
 21
215.077
  0
LINE
  8
0
 10
-1.98422
 20
215.077
 11
-1.96457
 21
215.201
  0
LINE
  8
0
 10
-1.96457
 20
215.201
 11
-1.93716
 21
215.324
  0
LINE
  8
0
 10
-1.93716
 20
215.324
 11
-1.9021
 21
215.444
  0
LINE
  8
0
 10
-1.9021
 20
215.444
 11
-1.85954
 21
215.562
  0
LINE
  8
0
 10
-1.85954
 20
215.562
 11
-1.80965
 21
215.678
  0
LINE
  8
0
 10
-1.80965
 20
215.678
 11
-1.75261
 21
215.79
  0
LINE
  8
0
 10
-1.75261
 20
215.79
 11
-1.68864
 21
215.898
  0
LINE
  8
0
 10
-1.68864
 20
215.898
 11
-1.61803
 21
216.002
  0
LINE
  8
0
 10
-1.61803
 20
216.002
 11
-1.54102
 21
216.101
  0
LINE
  8
0
 10
-1.54102
 20
216.101
 11
-1.45793
 21
216.195
  0
LINE
  8
0
 10
-1.45793
 20
216.195
 11
-1.36908
 21
216.284
  0
LINE
  8
0
 10
-1.36908
 20
216.284
 11
-1.27484
 21
216.367
  0
LINE
  8
0
 10
-1.27484
 20
216.367
 11
-1.17557
 21
216.444
  0
LINE
  8
0
 10
-1.17557
 20
216.444
 11
-1.07164
 21
216.515
  0
LINE
  8
0
 10
-1.07164
 20
216.515
 11
-0.963501
 21
216.579
  0
LINE
  8
0
 10
-0.963501
 20
216.579
 11
-0.851547
 21
216.636
  0
LINE
  8
0
 10
-0.851547
 20
216.636
 11
-0.736237
 21
216.686
  0
LINE
  8
0
 10
-0.736237
 20
216.686
 11
-0.618027
 21
216.728
  0
LINE
  8
0
 10
-0.618027
 20
216.728
 11
-0.497375
 21
216.763
  0
LINE
  8
0
 10
-0.497375
 20
216.763
 11
-0.374756
 21
216.791
  0
LINE
  8
0
 10
-0.374756
 20
216.791
 11
-0.250656
 21
216.81
  0
LINE
  8
0
 10
-0.250656
 20
216.81
 11
-0.12558
 21
216.822
  0
LINE
  8
0
 10
-0.12558
 20
216.822
 11
0
 21
216.826
  0
LINE
  8
0
 10
0
 20
216.826
 11
0.12558
 21
216.822
  0
LINE
  8
0
 10
0.12558
 20
216.822
 11
0.250656
 21
216.81
  0
LINE
  8
0
 10
0.250656
 20
216.81
 11
0.374756
 21
216.791
  0
LINE
  8
0
 10
0.374756
 20
216.791
 11
0.497375
 21
216.763
  0
LINE
  8
0
 10
0.497375
 20
216.763
 11
0.618027
 21
216.728
  0
LINE
  8
0
 10
0.618027
 20
216.728
 11
0.736237
 21
216.686
  0
LINE
  8
0
 10
0.736237
 20
216.686
 11
0.851547
 21
216.636
  0
LINE
  8
0
 10
0.851547
 20
216.636
 11
0.963501
 21
216.579
  0
LINE
  8
0
 10
0.963501
 20
216.579
 11
1.07164
 21
216.515
  0
LINE
  8
0
 10
1.07164
 20
216.515
 11
1.17557
 21
216.444
  0
LINE
  8
0
 10
1.17557
 20
216.444
 11
1.27484
 21
216.367
  0
LINE
  8
0
 10
1.27484
 20
216.367
 11
1.36908
 21
216.284
  0
LINE
  8
0
 10
1.36908
 20
216.284
 11
1.45793
 21
216.195
  0
LINE
  8
0
 10
1.45793
 20
216.195
 11
1.54102
 21
216.101
  0
LINE
  8
0
 10
1.54102
 20
216.101
 11
1.61803
 21
216.002
  0
LINE
  8
0
 10
1.61803
 20
216.002
 11
1.68864
 21
215.898
  0
LINE
  8
0
 10
1.68864
 20
215.898
 11
1.75261
 21
215.79
  0
LINE
  8
0
 10
1.75261
 20
215.79
 11
1.80965
 21
215.678
  0
LINE
  8
0
 10
1.80965
 20
215.678
 11
1.85954
 21
215.562
  0
LINE
  8
0
 10
1.85954
 20
215.562
 11
1.9021
 21
215.444
  0
LINE
  8
0
 10
1.9021
 20
215.444
 11
1.93716
 21
215.324
  0
LINE
  8
0
 10
1.93716
 20
215.324
 11
1.96457
 21
215.201
  0
LINE
  8
0
 10
1.96457
 20
215.201
 11
1.98422
 21
215.077
  0
LINE
  8
0
 10
1.98422
 20
215.077
 11
1.99605
 21
214.952
  0
LINE
  8
0
 10
1.99605
 20
214.952
 11
2
 21
214.826
  0
LINE
  8
0
 10
2
 20
214.826
 11
1.99605
 21
214.701
  0
LINE
  8
0
 10
1.99605
 20
214.701
 11
1.98422
 21
214.576
  0
LINE
  8
0
 10
1.98422
 20
214.576
 11
1.96457
 21
214.451
  0
LINE
  8
0
 10
1.96457
 20
214.451
 11
1.93716
 21
214.329
  0
LINE
  8
0
 10
1.93716
 20
214.329
 11
1.9021
 21
214.208
  0
LINE
  8
0
 10
1.9021
 20
214.208
 11
1.85954
 21
214.09
  0
LINE
  8
0
 10
1.85954
 20
214.09
 11
1.80965
 21
213.975
  0
LINE
  8
0
 10
1.80965
 20
213.975
 11
1.75261
 21
213.863
  0
LINE
  8
0
 10
1.75261
 20
213.863
 11
1.68864
 21
213.755
  0
LINE
  8
0
 10
1.68864
 20
213.755
 11
1.61803
 21
213.651
  0
LINE
  8
0
 10
1.61803
 20
213.651
 11
1.54102
 21
213.551
  0
LINE
  8
0
 10
1.54102
 20
213.551
 11
1.45793
 21
213.457
  0
LINE
  8
0
 10
1.45793
 20
213.457
 11
1.36908
 21
213.368
  0
LINE
  8
0
 10
1.36908
 20
213.368
 11
1.27484
 21
213.285
  0
LINE
  8
0
 10
1.27484
 20
213.285
 11
1.17557
 21
213.208
  0
LINE
  8
0
 10
1.17557
 20
213.208
 11
1.07164
 21
213.138
  0
LINE
  8
0
 10
1.07164
 20
213.138
 11
0.963501
 21
213.074
  0
LINE
  8
0
 10
0.963501
 20
213.074
 11
0.851547
 21
213.017
  0
LINE
  8
0
 10
0.851547
 20
213.017
 11
0.736237
 21
212.967
  0
LINE
  8
0
 10
0.736237
 20
212.967
 11
0.618027
 21
212.924
  0
LINE
  8
0
 10
0.618027
 20
212.924
 11
0.497375
 21
212.889
  0
LINE
  8
0
 10
0.497375
 20
212.889
 11
0.374756
 21
212.862
  0
LINE
  8
0
 10
0.374756
 20
212.862
 11
0.250656
 21
212.842
  0
LINE
  8
0
 10
0.250656
 20
212.842
 11
0.12558
 21
212.83
  0
LINE
  8
0
 10
0.12558
 20
212.83
 11
0
 21
212.826
  0
LINE
  8
0
 10
0
 20
212.826
 11
-0.12558
 21
212.83
  0
LINE
  8
0
 10
-2.44781
 20
184.46
 11
0
 21
191.993
  0
LINE
  8
0
 10
0
 20
191.993
 11
2.44781
 21
184.46
  0
LINE
  8
0
 10
2.44781
 20
184.46
 11
-2.44781
 21
184.46
  0
LINE
  8
0
 10
-2.86011
 20
177.14
 11
-2.86011
 21
182.86
  0
LINE
  8
0
 10
-2.86011
 20
182.86
 11
2.86011
 21
182.86
  0
LINE
  8
0
 10
2.86011
 20
182.86
 11
2.86011
 21
177.14
  0
LINE
  8
0
 10
2.86011
 20
177.14
 11
-2.86011
 21
177.14
  0
LINE
  8
0
 10
4.45984
 20
176.802
 11
4.45984
 21
178.267
  0
LINE
  8
0
 10
4.45984
 20
178.267
 11
5.04593
 21
176.464
  0
LINE
  8
0
 10
5.04593
 20
176.464
 11
4.45984
 21
176.802
  0
LINE
  8
0
 10
-4.45984
 20
178.267
 11
-4.45984
 21
176.802
  0
LINE
  8
0
 10
-4.45984
 20
176.802
 11
-5.04593
 21
176.464
  0
LINE
  8
0
 10
-5.04593
 20
176.464
 11
-4.45984
 21
178.267
  0
LINE
  8
0
 10
-3.19794
 20
164.46
 11
-6.39648
 21
170
  0
LINE
  8
0
 10
-6.39648
 20
170
 11
-3.19794
 21
175.54
  0
LINE
  8
0
 10
-3.19794
 20
175.54
 11
3.19794
 21
175.54
  0
LINE
  8
0
 10
3.19794
 20
175.54
 11
6.39648
 21
170
  0
LINE
  8
0
 10
6.39648
 20
170
 11
3.19794
 21
164.46
  0
LINE
  8
0
 10
3.19794
 20
164.46
 11
-3.19794
 21
164.46
  0
LINE
  8
0
 10
-8.07733
 20
167.134
 11
-7.54147
 21
168.783
  0
LINE
  8
0
 10
-7.54147
 20
168.783
 11
-5.84534
 21
165.845
  0
LINE
  8
0
 10
-5.84534
 20
165.845
 11
-8.07733
 21
167.134
  0
LINE
  8
0
 10
7.54152
 20
168.783
 11
8.07735
 21
167.134
  0
LINE
  8
0
 10
8.07735
 20
167.134
 11
5.84595
 21
165.846
  0
LINE
  8
0
 10
5.84595
 20
165.846
 11
7.54152
 21
168.783
  0
LINE
  8
0
 10
-12.0829
 20
154.806
 11
-8.58281
 21
165.578
  0
LINE
  8
0
 10
-8.58281
 20
165.578
 11
-4.45984
 21
163.198
  0
LINE
  8
0
 10
-4.45984
 20
163.198
 11
-4.45984
 21
156.802
  0
LINE
  8
0
 10
-4.45984
 20
156.802
 11
-10
 21
153.604
  0
LINE
  8
0
 10
-10
 20
153.604
 11
-12.0829
 21
154.806
  0
LINE
  8
0
 10
4.45984
 20
156.802
 11
4.45984
 21
163.198
  0
LINE
  8
0
 10
4.45984
 20
163.198
 11
8.58281
 21
165.578
  0
LINE
  8
0
 10
8.58281
 20
165.578
 11
12.0829
 21
154.806
  0
LINE
  8
0
 10
12.0829
 20
154.806
 11
10
 21
153.604
  0
LINE
  8
0
 10
10
 20
153.604
 11
4.45984
 21
156.802
  0
LINE
  8
0
 10
-2.86011
 20
157.14
 11
-2.86011
 21
162.86
  0
LINE
  8
0
 10
-2.86011
 20
162.86
 11
2.86011
 21
162.86
  0
LINE
  8
0
 10
2.86011
 20
162.86
 11
2.86011
 21
157.14
  0
LINE
  8
0
 10
2.86011
 20
157.14
 11
-2.86011
 21
157.14
  0
LINE
  8
0
 10
-3.19794
 20
144.46
 11
-6.39648
 21
150
  0
LINE
  8
0
 10
-6.39648
 20
150
 11
-3.19794
 21
155.54
  0
LINE
  8
0
 10
-3.19794
 20
155.54
 11
3.19794
 21
155.54
  0
LINE
  8
0
 10
3.19794
 20
155.54
 11
6.39648
 21
150
  0
LINE
  8
0
 10
6.39648
 20
150
 11
3.19794
 21
144.46
  0
LINE
  8
0
 10
3.19794
 20
144.46
 11
-3.19794
 21
144.46
  0
LINE
  8
0
 10
10
 20
148.244
 11
5.84595
 21
145.846
  0
LINE
  8
0
 10
5.84595
 20
145.846
 11
8.24402
 21
150
  0
LINE
  8
0
 10
8.24402
 20
150
 11
5.84534
 21
154.155
  0
LINE
  8
0
 10
5.84534
 20
154.155
 11
10
 21
151.756
  0
LINE
  8
0
 10
10
 20
151.756
 11
12.5884
 21
153.25
  0
LINE
  8
0
 10
12.5884
 20
153.25
 11
12.9644
 21
152.093
  0
LINE
  8
0
 10
12.9644
 20
152.093
 11
11.756
 21
150
  0
LINE
  8
0
 10
11.756
 20
150
 11
14.1547
 21
145.845
  0
LINE
  8
0
 10
14.1547
 20
145.845
 11
10
 21
148.244
  0
LINE
  8
0
 10
-10
 20
148.244
 11
-14.1541
 21
145.846
  0
LINE
  8
0
 10
-14.1541
 20
145.846
 11
-11.756
 21
150
  0
LINE
  8
0
 10
-11.756
 20
150
 11
-12.9644
 21
152.093
  0
LINE
  8
0
 10
-12.9644
 20
152.093
 11
-12.5884
 21
153.25
  0
LINE
  8
0
 10
-12.5884
 20
153.25
 11
-10
 21
151.756
  0
LINE
  8
0
 10
-10
 20
151.756
 11
-5.84534
 21
154.155
  0
LINE
  8
0
 10
-5.84534
 20
154.155
 11
-8.24402
 21
150
  0
LINE
  8
0
 10
-8.24402
 20
150
 11
-5.84534
 21
145.845
  0
LINE
  8
0
 10
-5.84534
 20
145.845
 11
-10
 21
148.244
  0
LINE
  8
0
 10
-13.6297
 20
150.045
 11
-13.6035
 21
150
  0
LINE
  8
0
 10
-13.6035
 20
150
 11
-13.6973
 21
149.838
  0
LINE
  8
0
 10
-13.6973
 20
149.838
 11
-13.6297
 21
150.045
  0
LINE
  8
0
 10
13.6035
 20
150
 11
13.6297
 21
150.045
  0
LINE
  8
0
 10
13.6297
 20
150.045
 11
13.6973
 21
149.838
  0
LINE
  8
0
 10
13.6973
 20
149.838
 11
13.6035
 21
150
  0
LINE
  8
0
 10
4.45984
 20
136.802
 11
4.45984
 21
143.198
  0
LINE
  8
0
 10
4.45984
 20
143.198
 11
10
 21
146.396
  0
LINE
  8
0
 10
10
 20
146.396
 11
15.5402
 21
143.198
  0
LINE
  8
0
 10
15.5402
 20
143.198
 11
15.5402
 21
136.802
  0
LINE
  8
0
 10
15.5402
 20
136.802
 11
10
 21
133.604
  0
LINE
  8
0
 10
10
 20
133.604
 11
4.45984
 21
136.802
  0
LINE
  8
0
 10
-15.5402
 20
136.802
 11
-15.5402
 21
143.198
  0
LINE
  8
0
 10
-15.5402
 20
143.198
 11
-10
 21
146.396
  0
LINE
  8
0
 10
-10
 20
146.396
 11
-4.45984
 21
143.198
  0
LINE
  8
0
 10
-4.45984
 20
143.198
 11
-4.45984
 21
136.802
  0
LINE
  8
0
 10
-4.45984
 20
136.802
 11
-10
 21
133.604
  0
LINE
  8
0
 10
-10
 20
133.604
 11
-15.5402
 21
136.802
  0
LINE
  8
0
 10
-2.86011
 20
137.14
 11
-2.86011
 21
142.86
  0
LINE
  8
0
 10
-2.86011
 20
142.86
 11
2.86011
 21
142.86
  0
LINE
  8
0
 10
2.86011
 20
142.86
 11
2.86011
 21
137.14
  0
LINE
  8
0
 10
2.86011
 20
137.14
 11
-2.86011
 21
137.14
  0
LINE
  8
0
 10
-17.823
 20
137.14
 11
-17.1399
 21
139.242
  0
LINE
  8
0
 10
-17.1399
 20
139.242
 11
-17.1399
 21
137.14
  0
LINE
  8
0
 10
-17.1399
 20
137.14
 11
-17.823
 21
137.14
  0
LINE
  8
0
 10
17.1399
 20
137.14
 11
17.1399
 21
139.242
  0
LINE
  8
0
 10
17.1399
 20
139.242
 11
17.823
 21
137.14
  0
LINE
  8
0
 10
17.823
 20
137.14
 11
17.1399
 21
137.14
  0
LINE
  8
0
 10
16.8021
 20
124.46
 11
13.6035
 21
130
  0
LINE
  8
0
 10
13.6035
 20
130
 11
16.8021
 21
135.54
  0
LINE
  8
0
 10
16.8021
 20
135.54
 11
18.3428
 21
135.54
  0
LINE
  8
0
 10
18.3428
 20
135.54
 11
21.943
 21
124.46
  0
LINE
  8
0
 10
21.943
 20
124.46
 11
16.8021
 21
124.46
  0
LINE
  8
0
 10
-3.19794
 20
124.46
 11
-6.39648
 21
130
  0
LINE
  8
0
 10
-6.39648
 20
130
 11
-3.19794
 21
135.54
  0
LINE
  8
0
 10
-3.19794
 20
135.54
 11
3.19794
 21
135.54
  0
LINE
  8
0
 10
3.19794
 20
135.54
 11
6.39648
 21
130
  0
LINE
  8
0
 10
6.39648
 20
130
 11
3.19794
 21
124.46
  0
LINE
  8
0
 10
3.19794
 20
124.46
 11
-3.19794
 21
124.46
  0
LINE
  8
0
 10
-21.943
 20
124.46
 11
-18.3428
 21
135.54
  0
LINE
  8
0
 10
-18.3428
 20
135.54
 11
-16.8021
 21
135.54
  0
LINE
  8
0
 10
-16.8021
 20
135.54
 11
-13.6035
 21
130
  0
LINE
  8
0
 10
-13.6035
 20
130
 11
-16.8021
 21
124.46
  0
LINE
  8
0
 10
-16.8021
 20
124.46
 11
-21.943
 21
124.46
  0
LINE
  8
0
 10
-10
 20
128.244
 11
-14.1541
 21
125.846
  0
LINE
  8
0
 10
-14.1541
 20
125.846
 11
-11.756
 21
130
  0
LINE
  8
0
 10
-11.756
 20
130
 11
-14.1547
 21
134.155
  0
LINE
  8
0
 10
-14.1547
 20
134.155
 11
-10
 21
131.756
  0
LINE
  8
0
 10
-10
 20
131.756
 11
-5.84534
 21
134.155
  0
LINE
  8
0
 10
-5.84534
 20
134.155
 11
-8.24402
 21
130
  0
LINE
  8
0
 10
-8.24402
 20
130
 11
-5.84534
 21
125.845
  0
LINE
  8
0
 10
-5.84534
 20
125.845
 11
-10
 21
128.244
  0
LINE
  8
0
 10
10
 20
128.244
 11
5.84595
 21
125.846
  0
LINE
  8
0
 10
5.84595
 20
125.846
 11
8.24402
 21
130
  0
LINE
  8
0
 10
8.24402
 20
130
 11
5.84534
 21
134.155
  0
LINE
  8
0
 10
5.84534
 20
134.155
 11
10
 21
131.756
  0
LINE
  8
0
 10
10
 20
131.756
 11
14.1547
 21
134.155
  0
LINE
  8
0
 10
14.1547
 20
134.155
 11
11.756
 21
130
  0
LINE
  8
0
 10
11.756
 20
130
 11
14.1547
 21
125.845
  0
LINE
  8
0
 10
14.1547
 20
125.845
 11
10
 21
128.244
  0
LINE
  8
0
 10
4.45984
 20
116.802
 11
4.45984
 21
123.198
  0
LINE
  8
0
 10
4.45984
 20
123.198
 11
10
 21
126.396
  0
LINE
  8
0
 10
10
 20
126.396
 11
15.5402
 21
123.198
  0
LINE
  8
0
 10
15.5402
 20
123.198
 11
15.5402
 21
116.802
  0
LINE
  8
0
 10
15.5402
 20
116.802
 11
10
 21
113.604
  0
LINE
  8
0
 10
10
 20
113.604
 11
4.45984
 21
116.802
  0
LINE
  8
0
 10
-15.5402
 20
116.802
 11
-15.5402
 21
123.198
  0
LINE
  8
0
 10
-15.5402
 20
123.198
 11
-10
 21
126.396
  0
LINE
  8
0
 10
-10
 20
126.396
 11
-4.45984
 21
123.198
  0
LINE
  8
0
 10
-4.45984
 20
123.198
 11
-4.45984
 21
116.802
  0
LINE
  8
0
 10
-4.45984
 20
116.802
 11
-10
 21
113.604
  0
LINE
  8
0
 10
-10
 20
113.604
 11
-15.5402
 21
116.802
  0
LINE
  8
0
 10
-22.8601
 20
117.14
 11
-22.8601
 21
121.637
  0
LINE
  8
0
 10
-22.8601
 20
121.637
 11
-22.4628
 21
122.86
  0
LINE
  8
0
 10
-22.4628
 20
122.86
 11
-17.1399
 21
122.86
  0
LINE
  8
0
 10
-17.1399
 20
122.86
 11
-17.1399
 21
117.14
  0
LINE
  8
0
 10
-17.1399
 20
117.14
 11
-22.8601
 21
117.14
  0
LINE
  8
0
 10
17.1399
 20
117.14
 11
17.1399
 21
122.86
  0
LINE
  8
0
 10
17.1399
 20
122.86
 11
22.4628
 21
122.86
  0
LINE
  8
0
 10
22.4628
 20
122.86
 11
22.8601
 21
121.637
  0
LINE
  8
0
 10
22.8601
 20
121.637
 11
22.8601
 21
117.14
  0
LINE
  8
0
 10
22.8601
 20
117.14
 11
17.1399
 21
117.14
  0
LINE
  8
0
 10
-2.86011
 20
117.14
 11
-2.86011
 21
122.86
  0
LINE
  8
0
 10
-2.86011
 20
122.86
 11
2.86011
 21
122.86
  0
LINE
  8
0
 10
2.86011
 20
122.86
 11
2.86011
 21
117.14
  0
LINE
  8
0
 10
2.86011
 20
117.14
 11
-2.86011
 21
117.14
  0
LINE
  8
0
 10
-23.1979
 20
104.46
 11
-26.3965
 21
110
  0
LINE
  8
0
 10
-26.3965
 20
110
 11
-23.1979
 21
115.54
  0
LINE
  8
0
 10
-23.1979
 20
115.54
 11
-16.8021
 21
115.54
  0
LINE
  8
0
 10
-16.8021
 20
115.54
 11
-13.6035
 21
110
  0
LINE
  8
0
 10
-13.6035
 20
110
 11
-16.8021
 21
104.46
  0
LINE
  8
0
 10
-16.8021
 20
104.46
 11
-23.1979
 21
104.46
  0
LINE
  8
0
 10
16.8021
 20
104.46
 11
13.6035
 21
110
  0
LINE
  8
0
 10
13.6035
 20
110
 11
16.8021
 21
115.54
  0
LINE
  8
0
 10
16.8021
 20
115.54
 11
23.1979
 21
115.54
  0
LINE
  8
0
 10
23.1979
 20
115.54
 11
26.3965
 21
110
  0
LINE
  8
0
 10
26.3965
 20
110
 11
23.1979
 21
104.46
  0
LINE
  8
0
 10
23.1979
 20
104.46
 11
16.8021
 21
104.46
  0
LINE
  8
0
 10
-3.19794
 20
104.46
 11
-6.39648
 21
110
  0
LINE
  8
0
 10
-6.39648
 20
110
 11
-3.19794
 21
115.54
  0
LINE
  8
0
 10
-3.19794
 20
115.54
 11
3.19794
 21
115.54
  0
LINE
  8
0
 10
3.19794
 20
115.54
 11
6.39648
 21
110
  0
LINE
  8
0
 10
6.39648
 20
110
 11
3.19794
 21
104.46
  0
LINE
  8
0
 10
3.19794
 20
104.46
 11
-3.19794
 21
104.46
  0
LINE
  8
0
 10
10
 20
108.244
 11
5.84595
 21
105.846
  0
LINE
  8
0
 10
5.84595
 20
105.846
 11
8.24402
 21
110
  0
LINE
  8
0
 10
8.24402
 20
110
 11
5.84534
 21
114.155
  0
LINE
  8
0
 10
5.84534
 20
114.155
 11
10
 21
111.756
  0
LINE
  8
0
 10
10
 20
111.756
 11
14.1547
 21
114.155
  0
LINE
  8
0
 10
14.1547
 20
114.155
 11
11.756
 21
110
  0
LINE
  8
0
 10
11.756
 20
110
 11
14.1547
 21
105.845
  0
LINE
  8
0
 10
14.1547
 20
105.845
 11
10
 21
108.244
  0
LINE
  8
0
 10
-10
 20
108.244
 11
-14.1541
 21
105.846
  0
LINE
  8
0
 10
-14.1541
 20
105.846
 11
-11.756
 21
110
  0
LINE
  8
0
 10
-11.756
 20
110
 11
-14.1547
 21
114.155
  0
LINE
  8
0
 10
-14.1547
 20
114.155
 11
-10
 21
111.756
  0
LINE
  8
0
 10
-10
 20
111.756
 11
-5.84534
 21
114.155
  0
LINE
  8
0
 10
-5.84534
 20
114.155
 11
-8.24402
 21
110
  0
LINE
  8
0
 10
-8.24402
 20
110
 11
-5.84534
 21
105.845
  0
LINE
  8
0
 10
-5.84534
 20
105.845
 11
-10
 21
108.244
  0
LINE
  8
0
 10
-27.6523
 20
106.889
 11
-27.2185
 21
108.224
  0
LINE
  8
0
 10
-27.2185
 20
108.224
 11
-25.8453
 21
105.845
  0
LINE
  8
0
 10
-25.8453
 20
105.845
 11
-27.6523
 21
106.889
  0
LINE
  8
0
 10
27.2185
 20
108.223
 11
27.6523
 21
106.889
  0
LINE
  8
0
 10
27.6523
 20
106.889
 11
25.8459
 21
105.846
  0
LINE
  8
0
 10
25.8459
 20
105.846
 11
27.2185
 21
108.223
  0
LINE
  8
0
 10
-15.5402
 20
96.8021
 11
-15.5402
 21
103.198
  0
LINE
  8
0
 10
-15.5402
 20
103.198
 11
-10
 21
106.396
  0
LINE
  8
0
 10
-10
 20
106.396
 11
-4.45984
 21
103.198
  0
LINE
  8
0
 10
-4.45984
 20
103.198
 11
-4.45984
 21
96.8021
  0
LINE
  8
0
 10
-4.45984
 20
96.8021
 11
-10
 21
93.6035
  0
LINE
  8
0
 10
-10
 20
93.6035
 11
-15.5402
 21
96.8021
  0
LINE
  8
0
 10
4.45984
 20
96.8021
 11
4.45984
 21
103.198
  0
LINE
  8
0
 10
4.45984
 20
103.198
 11
10
 21
106.396
  0
LINE
  8
0
 10
10
 20
106.396
 11
15.5402
 21
103.198
  0
LINE
  8
0
 10
15.5402
 20
103.198
 11
15.5402
 21
96.8021
  0
LINE
  8
0
 10
15.5402
 20
96.8021
 11
10
 21
93.6035
  0
LINE
  8
0
 10
10
 20
93.6035
 11
4.45984
 21
96.8021
  0
LINE
  8
0
 10
-31.6578
 20
94.5607
 11
-28.1577
 21
105.333
  0
LINE
  8
0
 10
-28.1577
 20
105.333
 11
-24.4598
 21
103.198
  0
LINE
  8
0
 10
-24.4598
 20
103.198
 11
-24.4598
 21
96.8021
  0
LINE
  8
0
 10
-24.4598
 20
96.8021
 11
-30
 21
93.6035
  0
LINE
  8
0
 10
-30
 20
93.6035
 11
-31.6578
 21
94.5607
  0
LINE
  8
0
 10
24.4598
 20
96.8021
 11
24.4598
 21
103.198
  0
LINE
  8
0
 10
24.4598
 20
103.198
 11
28.1577
 21
105.333
  0
LINE
  8
0
 10
28.1577
 20
105.333
 11
31.6578
 21
94.5607
  0
LINE
  8
0
 10
31.6578
 20
94.5607
 11
30
 21
93.6035
  0
LINE
  8
0
 10
30
 20
93.6035
 11
24.4598
 21
96.8021
  0
LINE
  8
0
 10
-22.8601
 20
97.1399
 11
-22.8601
 21
102.86
  0
LINE
  8
0
 10
-22.8601
 20
102.86
 11
-17.1399
 21
102.86
  0
LINE
  8
0
 10
-17.1399
 20
102.86
 11
-17.1399
 21
97.1399
  0
LINE
  8
0
 10
-17.1399
 20
97.1399
 11
-22.8601
 21
97.1399
  0
LINE
  8
0
 10
17.1399
 20
97.1399
 11
17.1399
 21
102.86
  0
LINE
  8
0
 10
17.1399
 20
102.86
 11
22.8601
 21
102.86
  0
LINE
  8
0
 10
22.8601
 20
102.86
 11
22.8601
 21
97.1399
  0
LINE
  8
0
 10
22.8601
 20
97.1399
 11
17.1399
 21
97.1399
  0
LINE
  8
0
 10
-2.86011
 20
97.1399
 11
-2.86011
 21
102.86
  0
LINE
  8
0
 10
-2.86011
 20
102.86
 11
2.86011
 21
102.86
  0
LINE
  8
0
 10
2.86011
 20
102.86
 11
2.86011
 21
97.1399
  0
LINE
  8
0
 10
2.86011
 20
97.1399
 11
-2.86011
 21
97.1399
  0
LINE
  8
0
 10
-23.1979
 20
84.4598
 11
-26.3965
 21
90
  0
LINE
  8
0
 10
-26.3965
 20
90
 11
-23.1979
 21
95.5402
  0
LINE
  8
0
 10
-23.1979
 20
95.5402
 11
-16.8021
 21
95.5402
  0
LINE
  8
0
 10
-16.8021
 20
95.5402
 11
-13.6035
 21
90
  0
LINE
  8
0
 10
-13.6035
 20
90
 11
-16.8021
 21
84.4598
  0
LINE
  8
0
 10
-16.8021
 20
84.4598
 11
-23.1979
 21
84.4598
  0
LINE
  8
0
 10
-3.19794
 20
84.4598
 11
-6.39648
 21
90
  0
LINE
  8
0
 10
-6.39648
 20
90
 11
-3.19794
 21
95.5402
  0
LINE
  8
0
 10
-3.19794
 20
95.5402
 11
3.19794
 21
95.5402
  0
LINE
  8
0
 10
3.19794
 20
95.5402
 11
6.39648
 21
90
  0
LINE
  8
0
 10
6.39648
 20
90
 11
3.19794
 21
84.4598
  0
LINE
  8
0
 10
3.19794
 20
84.4598
 11
-3.19794
 21
84.4598
  0
LINE
  8
0
 10
16.8021
 20
84.4598
 11
13.6035
 21
90
  0
LINE
  8
0
 10
13.6035
 20
90
 11
16.8021
 21
95.5402
  0
LINE
  8
0
 10
16.8021
 20
95.5402
 11
23.1979
 21
95.5402
  0
LINE
  8
0
 10
23.1979
 20
95.5402
 11
26.3965
 21
90
  0
LINE
  8
0
 10
26.3965
 20
90
 11
23.1979
 21
84.4598
  0
LINE
  8
0
 10
23.1979
 20
84.4598
 11
16.8021
 21
84.4598
  0
LINE
  8
0
 10
30
 20
88.244
 11
25.8459
 21
85.8456
  0
LINE
  8
0
 10
25.8459
 20
85.8456
 11
28.244
 21
90
  0
LINE
  8
0
 10
28.244
 20
90
 11
25.8453
 21
94.1547
  0
LINE
  8
0
 10
25.8453
 20
94.1547
 11
30
 21
91.756
  0
LINE
  8
0
 10
30
 20
91.756
 11
32.1633
 21
93.005
  0
LINE
  8
0
 10
32.1633
 20
93.005
 11
32.6414
 21
91.5336
  0
LINE
  8
0
 10
32.6414
 20
91.5336
 11
31.756
 21
90
  0
LINE
  8
0
 10
31.756
 20
90
 11
34.1547
 21
85.8453
  0
LINE
  8
0
 10
34.1547
 20
85.8453
 11
30
 21
88.244
  0
LINE
  8
0
 10
10
 20
88.244
 11
5.84595
 21
85.8456
  0
LINE
  8
0
 10
5.84595
 20
85.8456
 11
8.24402
 21
90
  0
LINE
  8
0
 10
8.24402
 20
90
 11
5.84534
 21
94.1547
  0
LINE
  8
0
 10
5.84534
 20
94.1547
 11
10
 21
91.756
  0
LINE
  8
0
 10
10
 20
91.756
 11
14.1547
 21
94.1547
  0
LINE
  8
0
 10
14.1547
 20
94.1547
 11
11.756
 21
90
  0
LINE
  8
0
 10
11.756
 20
90
 11
14.1547
 21
85.8453
  0
LINE
  8
0
 10
14.1547
 20
85.8453
 11
10
 21
88.244
  0
LINE
  8
0
 10
-30
 20
88.244
 11
-34.1547
 21
85.8453
  0
LINE
  8
0
 10
-34.1547
 20
85.8453
 11
-31.756
 21
90
  0
LINE
  8
0
 10
-31.756
 20
90
 11
-32.6414
 21
91.5336
  0
LINE
  8
0
 10
-32.6414
 20
91.5336
 11
-32.1633
 21
93.005
  0
LINE
  8
0
 10
-32.1633
 20
93.005
 11
-30
 21
91.756
  0
LINE
  8
0
 10
-30
 20
91.756
 11
-25.8453
 21
94.1547
  0
LINE
  8
0
 10
-25.8453
 20
94.1547
 11
-28.244
 21
90
  0
LINE
  8
0
 10
-28.244
 20
90
 11
-25.8453
 21
85.8453
  0
LINE
  8
0
 10
-25.8453
 20
85.8453
 11
-30
 21
88.244
  0
LINE
  8
0
 10
-10
 20
88.244
 11
-14.1541
 21
85.8456
  0
LINE
  8
0
 10
-14.1541
 20
85.8456
 11
-11.756
 21
90
  0
LINE
  8
0
 10
-11.756
 20
90
 11
-14.1547
 21
94.1547
  0
LINE
  8
0
 10
-14.1547
 20
94.1547
 11
-10
 21
91.756
  0
LINE
  8
0
 10
-10
 20
91.756
 11
-5.84534
 21
94.1547
  0
LINE
  8
0
 10
-5.84534
 20
94.1547
 11
-8.24402
 21
90
  0
LINE
  8
0
 10
-8.24402
 20
90
 11
-5.84534
 21
85.8453
  0
LINE
  8
0
 10
-5.84534
 20
85.8453
 11
-10
 21
88.244
  0
LINE
  8
0
 10
-15.5402
 20
76.8021
 11
-15.5402
 21
83.1979
  0
LINE
  8
0
 10
-15.5402
 20
83.1979
 11
-10
 21
86.3965
  0
LINE
  8
0
 10
-10
 20
86.3965
 11
-4.45984
 21
83.1979
  0
LINE
  8
0
 10
-4.45984
 20
83.1979
 11
-4.45984
 21
76.8021
  0
LINE
  8
0
 10
-4.45984
 20
76.8021
 11
-10
 21
73.6035
  0
LINE
  8
0
 10
-10
 20
73.6035
 11
-15.5402
 21
76.8021
  0
LINE
  8
0
 10
4.45984
 20
76.8021
 11
4.45984
 21
83.1979
  0
LINE
  8
0
 10
4.45984
 20
83.1979
 11
10
 21
86.3965
  0
LINE
  8
0
 10
10
 20
86.3965
 11
15.5402
 21
83.1979
  0
LINE
  8
0
 10
15.5402
 20
83.1979
 11
15.5402
 21
76.8021
  0
LINE
  8
0
 10
15.5402
 20
76.8021
 11
10
 21
73.6035
  0
LINE
  8
0
 10
10
 20
73.6035
 11
4.45984
 21
76.8021
  0
LINE
  8
0
 10
-35.5402
 20
76.8021
 11
-35.5402
 21
82.6121
  0
LINE
  8
0
 10
-35.5402
 20
82.6121
 11
-35.3058
 21
83.3332
  0
LINE
  8
0
 10
-35.3058
 20
83.3332
 11
-30
 21
86.3965
  0
LINE
  8
0
 10
-30
 20
86.3965
 11
-24.4598
 21
83.1979
  0
LINE
  8
0
 10
-24.4598
 20
83.1979
 11
-24.4598
 21
76.8021
  0
LINE
  8
0
 10
-24.4598
 20
76.8021
 11
-30
 21
73.6035
  0
LINE
  8
0
 10
-30
 20
73.6035
 11
-35.5402
 21
76.8021
  0
LINE
  8
0
 10
24.4598
 20
76.8021
 11
24.4598
 21
83.1979
  0
LINE
  8
0
 10
24.4598
 20
83.1979
 11
30
 21
86.3965
  0
LINE
  8
0
 10
30
 20
86.3965
 11
35.3058
 21
83.3332
  0
LINE
  8
0
 10
35.3058
 20
83.3332
 11
35.5402
 21
82.6121
  0
LINE
  8
0
 10
35.5402
 20
82.6121
 11
35.5402
 21
76.8021
  0
LINE
  8
0
 10
35.5402
 20
76.8021
 11
30
 21
73.6035
  0
LINE
  8
0
 10
30
 20
73.6035
 11
24.4598
 21
76.8021
  0
LINE
  8
0
 10
17.1399
 20
77.1399
 11
17.1399
 21
82.8601
  0
LINE
  8
0
 10
17.1399
 20
82.8601
 11
22.8601
 21
82.8601
  0
LINE
  8
0
 10
22.8601
 20
82.8601
 11
22.8601
 21
77.1399
  0
LINE
  8
0
 10
22.8601
 20
77.1399
 11
17.1399
 21
77.1399
  0
LINE
  8
0
 10
-2.86011
 20
77.1399
 11
-2.86011
 21
82.8601
  0
LINE
  8
0
 10
-2.86011
 20
82.8601
 11
2.86011
 21
82.8601
  0
LINE
  8
0
 10
2.86011
 20
82.8601
 11
2.86011
 21
77.1399
  0
LINE
  8
0
 10
2.86011
 20
77.1399
 11
-2.86011
 21
77.1399
  0
LINE
  8
0
 10
-22.8601
 20
77.1399
 11
-22.8601
 21
82.8601
  0
LINE
  8
0
 10
-22.8601
 20
82.8601
 11
-17.1399
 21
82.8601
  0
LINE
  8
0
 10
-17.1399
 20
82.8601
 11
-17.1399
 21
77.1399
  0
LINE
  8
0
 10
-17.1399
 20
77.1399
 11
-22.8601
 21
77.1399
  0
LINE
  8
0
 10
37.1399
 20
77.1399
 11
37.1399
 21
77.6886
  0
LINE
  8
0
 10
37.1399
 20
77.6886
 11
37.3182
 21
77.1399
  0
LINE
  8
0
 10
37.3182
 20
77.1399
 11
37.1399
 21
77.1399
  0
LINE
  8
0
 10
-37.3182
 20
77.1399
 11
-37.1399
 21
77.6886
  0
LINE
  8
0
 10
-37.1399
 20
77.6886
 11
-37.1399
 21
77.1399
  0
LINE
  8
0
 10
-37.1399
 20
77.1399
 11
-37.3182
 21
77.1399
  0
LINE
  8
0
 10
-41.4382
 20
64.4598
 11
-37.838
 21
75.5402
  0
LINE
  8
0
 10
-37.838
 20
75.5402
 11
-36.8021
 21
75.5402
  0
LINE
  8
0
 10
-36.8021
 20
75.5402
 11
-33.6035
 21
70
  0
LINE
  8
0
 10
-33.6035
 20
70
 11
-36.8021
 21
64.4598
  0
LINE
  8
0
 10
-36.8021
 20
64.4598
 11
-41.4382
 21
64.4598
  0
LINE
  8
0
 10
16.8021
 20
64.4598
 11
13.6035
 21
70
  0
LINE
  8
0
 10
13.6035
 20
70
 11
16.8021
 21
75.5402
  0
LINE
  8
0
 10
16.8021
 20
75.5402
 11
23.1979
 21
75.5402
  0
LINE
  8
0
 10
23.1979
 20
75.5402
 11
26.3965
 21
70
  0
LINE
  8
0
 10
26.3965
 20
70
 11
23.1979
 21
64.4598
  0
LINE
  8
0
 10
23.1979
 20
64.4598
 11
16.8021
 21
64.4598
  0
LINE
  8
0
 10
-23.1979
 20
64.4598
 11
-26.3965
 21
70
  0
LINE
  8
0
 10
-26.3965
 20
70
 11
-23.1979
 21
75.5402
  0
LINE
  8
0
 10
-23.1979
 20
75.5402
 11
-16.8021
 21
75.5402
  0
LINE
  8
0
 10
-16.8021
 20
75.5402
 11
-13.6035
 21
70
  0
LINE
  8
0
 10
-13.6035
 20
70
 11
-16.8021
 21
64.4598
  0
LINE
  8
0
 10
-16.8021
 20
64.4598
 11
-23.1979
 21
64.4598
  0
LINE
  8
0
 10
36.8021
 20
64.4598
 11
33.6035
 21
70
  0
LINE
  8
0
 10
33.6035
 20
70
 11
36.8021
 21
75.5402
  0
LINE
  8
0
 10
36.8021
 20
75.5402
 11
37.838
 21
75.5402
  0
LINE
  8
0
 10
37.838
 20
75.5402
 11
41.4382
 21
64.4598
  0
LINE
  8
0
 10
41.4382
 20
64.4598
 11
36.8021
 21
64.4598
  0
LINE
  8
0
 10
-3.19794
 20
64.4598
 11
-6.39648
 21
70
  0
LINE
  8
0
 10
-6.39648
 20
70
 11
-3.19794
 21
75.5402
  0
LINE
  8
0
 10
-3.19794
 20
75.5402
 11
3.19794
 21
75.5402
  0
LINE
  8
0
 10
3.19794
 20
75.5402
 11
6.39648
 21
70
  0
LINE
  8
0
 10
6.39648
 20
70
 11
3.19794
 21
64.4598
  0
LINE
  8
0
 10
3.19794
 20
64.4598
 11
-3.19794
 21
64.4598
  0
LINE
  8
0
 10
-10
 20
68.244
 11
-14.1541
 21
65.8456
  0
LINE
  8
0
 10
-14.1541
 20
65.8456
 11
-11.756
 21
70
  0
LINE
  8
0
 10
-11.756
 20
70
 11
-14.1547
 21
74.1547
  0
LINE
  8
0
 10
-14.1547
 20
74.1547
 11
-10
 21
71.756
  0
LINE
  8
0
 10
-10
 20
71.756
 11
-5.84534
 21
74.1547
  0
LINE
  8
0
 10
-5.84534
 20
74.1547
 11
-8.24402
 21
70
  0
LINE
  8
0
 10
-8.24402
 20
70
 11
-5.84534
 21
65.8453
  0
LINE
  8
0
 10
-5.84534
 20
65.8453
 11
-10
 21
68.244
  0
LINE
  8
0
 10
10
 20
68.244
 11
5.84595
 21
65.8456
  0
LINE
  8
0
 10
5.84595
 20
65.8456
 11
8.24402
 21
70
  0
LINE
  8
0
 10
8.24402
 20
70
 11
5.84534
 21
74.1547
  0
LINE
  8
0
 10
5.84534
 20
74.1547
 11
10
 21
71.756
  0
LINE
  8
0
 10
10
 20
71.756
 11
14.1547
 21
74.1547
  0
LINE
  8
0
 10
14.1547
 20
74.1547
 11
11.756
 21
70
  0
LINE
  8
0
 10
11.756
 20
70
 11
14.1547
 21
65.8453
  0
LINE
  8
0
 10
14.1547
 20
65.8453
 11
10
 21
68.244
  0
LINE
  8
0
 10
-30
 20
68.244
 11
-34.1547
 21
65.8453
  0
LINE
  8
0
 10
-34.1547
 20
65.8453
 11
-31.756
 21
70
  0
LINE
  8
0
 10
-31.756
 20
70
 11
-34.1547
 21
74.1547
  0
LINE
  8
0
 10
-34.1547
 20
74.1547
 11
-30
 21
71.756
  0
LINE
  8
0
 10
-30
 20
71.756
 11
-25.8453
 21
74.1547
  0
LINE
  8
0
 10
-25.8453
 20
74.1547
 11
-28.244
 21
70
  0
LINE
  8
0
 10
-28.244
 20
70
 11
-25.8453
 21
65.8453
  0
LINE
  8
0
 10
-25.8453
 20
65.8453
 11
-30
 21
68.244
  0
LINE
  8
0
 10
30
 20
68.244
 11
25.8459
 21
65.8456
  0
LINE
  8
0
 10
25.8459
 20
65.8456
 11
28.244
 21
70
  0
LINE
  8
0
 10
28.244
 20
70
 11
25.8453
 21
74.1547
  0
LINE
  8
0
 10
25.8453
 20
74.1547
 11
30
 21
71.756
  0
LINE
  8
0
 10
30
 20
71.756
 11
34.1547
 21
74.1547
  0
LINE
  8
0
 10
34.1547
 20
74.1547
 11
31.756
 21
70
  0
LINE
  8
0
 10
31.756
 20
70
 11
34.1547
 21
65.8453
  0
LINE
  8
0
 10
34.1547
 20
65.8453
 11
30
 21
68.244
  0
LINE
  8
0
 10
24.4598
 20
56.8021
 11
24.4598
 21
63.1979
  0
LINE
  8
0
 10
24.4598
 20
63.1979
 11
30
 21
66.3965
  0
LINE
  8
0
 10
30
 20
66.3965
 11
35.5402
 21
63.1979
  0
LINE
  8
0
 10
35.5402
 20
63.1979
 11
35.5402
 21
56.8021
  0
LINE
  8
0
 10
35.5402
 20
56.8021
 11
30
 21
53.6035
  0
LINE
  8
0
 10
30
 20
53.6035
 11
24.4598
 21
56.8021
  0
LINE
  8
0
 10
4.45984
 20
56.8021
 11
4.45984
 21
63.1979
  0
LINE
  8
0
 10
4.45984
 20
63.1979
 11
10
 21
66.3965
  0
LINE
  8
0
 10
10
 20
66.3965
 11
15.5402
 21
63.1979
  0
LINE
  8
0
 10
15.5402
 20
63.1979
 11
15.5402
 21
56.8021
  0
LINE
  8
0
 10
15.5402
 20
56.8021
 11
10
 21
53.6035
  0
LINE
  8
0
 10
10
 20
53.6035
 11
4.45984
 21
56.8021
  0
LINE
  8
0
 10
-15.5402
 20
56.8021
 11
-15.5402
 21
63.1979
  0
LINE
  8
0
 10
-15.5402
 20
63.1979
 11
-10
 21
66.3965
  0
LINE
  8
0
 10
-10
 20
66.3965
 11
-4.45984
 21
63.1979
  0
LINE
  8
0
 10
-4.45984
 20
63.1979
 11
-4.45984
 21
56.8021
  0
LINE
  8
0
 10
-4.45984
 20
56.8021
 11
-10
 21
53.6035
  0
LINE
  8
0
 10
-10
 20
53.6035
 11
-15.5402
 21
56.8021
  0
LINE
  8
0
 10
-35.5402
 20
56.8021
 11
-35.5402
 21
63.1979
  0
LINE
  8
0
 10
-35.5402
 20
63.1979
 11
-30
 21
66.3965
  0
LINE
  8
0
 10
-30
 20
66.3965
 11
-24.4598
 21
63.1979
  0
LINE
  8
0
 10
-24.4598
 20
63.1979
 11
-24.4598
 21
56.8021
  0
LINE
  8
0
 10
-24.4598
 20
56.8021
 11
-30
 21
53.6035
  0
LINE
  8
0
 10
-30
 20
53.6035
 11
-35.5402
 21
56.8021
  0
LINE
  8
0
 10
37.1399
 20
57.1399
 11
37.1399
 21
62.8601
  0
LINE
  8
0
 10
37.1399
 20
62.8601
 11
41.958
 21
62.8601
  0
LINE
  8
0
 10
41.958
 20
62.8601
 11
42.8601
 21
60.0836
  0
LINE
  8
0
 10
42.8601
 20
60.0836
 11
42.8601
 21
57.1399
  0
LINE
  8
0
 10
42.8601
 20
57.1399
 11
37.1399
 21
57.1399
  0
LINE
  8
0
 10
17.1399
 20
57.1399
 11
17.1399
 21
62.8601
  0
LINE
  8
0
 10
17.1399
 20
62.8601
 11
22.8601
 21
62.8601
  0
LINE
  8
0
 10
22.8601
 20
62.8601
 11
22.8601
 21
57.1399
  0
LINE
  8
0
 10
22.8601
 20
57.1399
 11
17.1399
 21
57.1399
  0
LINE
  8
0
 10
-22.8601
 20
57.1399
 11
-22.8601
 21
62.8601
  0
LINE
  8
0
 10
-22.8601
 20
62.8601
 11
-17.1399
 21
62.8601
  0
LINE
  8
0
 10
-17.1399
 20
62.8601
 11
-17.1399
 21
57.1399
  0
LINE
  8
0
 10
-17.1399
 20
57.1399
 11
-22.8601
 21
57.1399
  0
LINE
  8
0
 10
-2.86011
 20
57.1399
 11
-2.86011
 21
62.8601
  0
LINE
  8
0
 10
-2.86011
 20
62.8601
 11
2.86011
 21
62.8601
  0
LINE
  8
0
 10
2.86011
 20
62.8601
 11
2.86011
 21
57.1399
  0
LINE
  8
0
 10
2.86011
 20
57.1399
 11
-2.86011
 21
57.1399
  0
LINE
  8
0
 10
-42.8601
 20
57.1399
 11
-42.8601
 21
60.0836
  0
LINE
  8
0
 10
-42.8601
 20
60.0836
 11
-41.958
 21
62.8601
  0
LINE
  8
0
 10
-41.958
 20
62.8601
 11
-37.1399
 21
62.8601
  0
LINE
  8
0
 10
-37.1399
 20
62.8601
 11
-37.1399
 21
57.1399
  0
LINE
  8
0
 10
-37.1399
 20
57.1399
 11
-42.8601
 21
57.1399
  0
LINE
  8
0
 10
16.8021
 20
44.4598
 11
13.6035
 21
50
  0
LINE
  8
0
 10
13.6035
 20
50
 11
16.8021
 21
55.5402
  0
LINE
  8
0
 10
16.8021
 20
55.5402
 11
23.1979
 21
55.5402
  0
LINE
  8
0
 10
23.1979
 20
55.5402
 11
26.3965
 21
50
  0
LINE
  8
0
 10
26.3965
 20
50
 11
23.1979
 21
44.4598
  0
LINE
  8
0
 10
23.1979
 20
44.4598
 11
16.8021
 21
44.4598
  0
LINE
  8
0
 10
36.8021
 20
44.4598
 11
33.6035
 21
50
  0
LINE
  8
0
 10
33.6035
 20
50
 11
36.8021
 21
55.5402
  0
LINE
  8
0
 10
36.8021
 20
55.5402
 11
43.1979
 21
55.5402
  0
LINE
  8
0
 10
43.1979
 20
55.5402
 11
45.8018
 21
51.0301
  0
LINE
  8
0
 10
45.8018
 20
51.0301
 11
46.2301
 21
49.7118
  0
LINE
  8
0
 10
46.2301
 20
49.7118
 11
43.1979
 21
44.4598
  0
LINE
  8
0
 10
43.1979
 20
44.4598
 11
36.8021
 21
44.4598
  0
LINE
  8
0
 10
-43.1979
 20
44.4598
 11
-46.2301
 21
49.7118
  0
LINE
  8
0
 10
-46.2301
 20
49.7118
 11
-45.8018
 21
51.0301
  0
LINE
  8
0
 10
-45.8018
 20
51.0301
 11
-43.1979
 21
55.5402
  0
LINE
  8
0
 10
-43.1979
 20
55.5402
 11
-36.8021
 21
55.5402
  0
LINE
  8
0
 10
-36.8021
 20
55.5402
 11
-33.6035
 21
50
  0
LINE
  8
0
 10
-33.6035
 20
50
 11
-36.8021
 21
44.4598
  0
LINE
  8
0
 10
-36.8021
 20
44.4598
 11
-43.1979
 21
44.4598
  0
LINE
  8
0
 10
-3.19794
 20
44.4598
 11
-6.39648
 21
50
  0
LINE
  8
0
 10
-6.39648
 20
50
 11
-3.19794
 21
55.5402
  0
LINE
  8
0
 10
-3.19794
 20
55.5402
 11
3.19794
 21
55.5402
  0
LINE
  8
0
 10
3.19794
 20
55.5402
 11
6.39648
 21
50
  0
LINE
  8
0
 10
6.39648
 20
50
 11
3.19794
 21
44.4598
  0
LINE
  8
0
 10
3.19794
 20
44.4598
 11
-3.19794
 21
44.4598
  0
LINE
  8
0
 10
-23.1979
 20
44.4598
 11
-26.3965
 21
50
  0
LINE
  8
0
 10
-26.3965
 20
50
 11
-23.1979
 21
55.5402
  0
LINE
  8
0
 10
-23.1979
 20
55.5402
 11
-16.8021
 21
55.5402
  0
LINE
  8
0
 10
-16.8021
 20
55.5402
 11
-13.6035
 21
50
  0
LINE
  8
0
 10
-13.6035
 20
50
 11
-16.8021
 21
44.4598
  0
LINE
  8
0
 10
-16.8021
 20
44.4598
 11
-23.1979
 21
44.4598
  0
LINE
  8
0
 10
-10
 20
48.244
 11
-14.1541
 21
45.8456
  0
LINE
  8
0
 10
-14.1541
 20
45.8456
 11
-11.756
 21
50
  0
LINE
  8
0
 10
-11.756
 20
50
 11
-14.1547
 21
54.1547
  0
LINE
  8
0
 10
-14.1547
 20
54.1547
 11
-10
 21
51.756
  0
LINE
  8
0
 10
-10
 20
51.756
 11
-5.84534
 21
54.1547
  0
LINE
  8
0
 10
-5.84534
 20
54.1547
 11
-8.24402
 21
50
  0
LINE
  8
0
 10
-8.24402
 20
50
 11
-5.84534
 21
45.8453
  0
LINE
  8
0
 10
-5.84534
 20
45.8453
 11
-10
 21
48.244
  0
LINE
  8
0
 10
-30
 20
48.244
 11
-34.1547
 21
45.8453
  0
LINE
  8
0
 10
-34.1547
 20
45.8453
 11
-31.756
 21
50
  0
LINE
  8
0
 10
-31.756
 20
50
 11
-34.1547
 21
54.1547
  0
LINE
  8
0
 10
-34.1547
 20
54.1547
 11
-30
 21
51.756
  0
LINE
  8
0
 10
-30
 20
51.756
 11
-25.8453
 21
54.1547
  0
LINE
  8
0
 10
-25.8453
 20
54.1547
 11
-28.244
 21
50
  0
LINE
  8
0
 10
-28.244
 20
50
 11
-25.8453
 21
45.8453
  0
LINE
  8
0
 10
-25.8453
 20
45.8453
 11
-30
 21
48.244
  0
LINE
  8
0
 10
30
 20
48.244
 11
25.8459
 21
45.8456
  0
LINE
  8
0
 10
25.8459
 20
45.8456
 11
28.244
 21
50
  0
LINE
  8
0
 10
28.244
 20
50
 11
25.8453
 21
54.1547
  0
LINE
  8
0
 10
25.8453
 20
54.1547
 11
30
 21
51.756
  0
LINE
  8
0
 10
30
 20
51.756
 11
34.1547
 21
54.1547
  0
LINE
  8
0
 10
34.1547
 20
54.1547
 11
31.756
 21
50
  0
LINE
  8
0
 10
31.756
 20
50
 11
34.1547
 21
45.8453
  0
LINE
  8
0
 10
34.1547
 20
45.8453
 11
30
 21
48.244
  0
LINE
  8
0
 10
10
 20
48.244
 11
5.84595
 21
45.8456
  0
LINE
  8
0
 10
5.84595
 20
45.8456
 11
8.24402
 21
50
  0
LINE
  8
0
 10
8.24402
 20
50
 11
5.84534
 21
54.1547
  0
LINE
  8
0
 10
5.84534
 20
54.1547
 11
10
 21
51.756
  0
LINE
  8
0
 10
10
 20
51.756
 11
14.1547
 21
54.1547
  0
LINE
  8
0
 10
14.1547
 20
54.1547
 11
11.756
 21
50
  0
LINE
  8
0
 10
11.756
 20
50
 11
14.1547
 21
45.8453
  0
LINE
  8
0
 10
14.1547
 20
45.8453
 11
10
 21
48.244
  0
LINE
  8
0
 10
-47.2272
 20
46.6431
 11
-46.8954
 21
47.6642
  0
LINE
  8
0
 10
-46.8954
 20
47.6642
 11
-45.8453
 21
45.8453
  0
LINE
  8
0
 10
-45.8453
 20
45.8453
 11
-47.2272
 21
46.6431
  0
LINE
  8
0
 10
46.8954
 20
47.6642
 11
47.2272
 21
46.6431
  0
LINE
  8
0
 10
47.2272
 20
46.6431
 11
45.8453
 21
45.8453
  0
LINE
  8
0
 10
45.8453
 20
45.8453
 11
46.8954
 21
47.6642
  0
LINE
  8
0
 10
4.45984
 20
36.8021
 11
4.45984
 21
43.1979
  0
LINE
  8
0
 10
4.45984
 20
43.1979
 11
10
 21
46.3965
  0
LINE
  8
0
 10
10
 20
46.3965
 11
15.5402
 21
43.1979
  0
LINE
  8
0
 10
15.5402
 20
43.1979
 11
15.5402
 21
36.8021
  0
LINE
  8
0
 10
15.5402
 20
36.8021
 11
10
 21
33.6035
  0
LINE
  8
0
 10
10
 20
33.6035
 11
4.45984
 21
36.8021
  0
LINE
  8
0
 10
24.4598
 20
36.8021
 11
24.4598
 21
43.1979
  0
LINE
  8
0
 10
24.4598
 20
43.1979
 11
30
 21
46.3965
  0
LINE
  8
0
 10
30
 20
46.3965
 11
35.5402
 21
43.1979
  0
LINE
  8
0
 10
35.5402
 20
43.1979
 11
35.5402
 21
36.8021
  0
LINE
  8
0
 10
35.5402
 20
36.8021
 11
30
 21
33.6035
  0
LINE
  8
0
 10
30
 20
33.6035
 11
24.4598
 21
36.8021
  0
LINE
  8
0
 10
-15.5402
 20
36.8021
 11
-15.5402
 21
43.1979
  0
LINE
  8
0
 10
-15.5402
 20
43.1979
 11
-10
 21
46.3965
  0
LINE
  8
0
 10
-10
 20
46.3965
 11
-4.45984
 21
43.1979
  0
LINE
  8
0
 10
-4.45984
 20
43.1979
 11
-4.45984
 21
36.8021
  0
LINE
  8
0
 10
-4.45984
 20
36.8021
 11
-10
 21
33.6035
  0
LINE
  8
0
 10
-10
 20
33.6035
 11
-15.5402
 21
36.8021
  0
LINE
  8
0
 10
-35.5402
 20
36.8021
 11
-35.5402
 21
43.1979
  0
LINE
  8
0
 10
-35.5402
 20
43.1979
 11
-30
 21
46.3965
  0
LINE
  8
0
 10
-30
 20
46.3965
 11
-24.4598
 21
43.1979
  0
LINE
  8
0
 10
-24.4598
 20
43.1979
 11
-24.4598
 21
36.8021
  0
LINE
  8
0
 10
-24.4598
 20
36.8021
 11
-30
 21
33.6035
  0
LINE
  8
0
 10
-30
 20
33.6035
 11
-35.5402
 21
36.8021
  0
LINE
  8
0
 10
-51.2328
 20
34.3152
 11
-47.7327
 21
45.0874
  0
LINE
  8
0
 10
-47.7327
 20
45.0874
 11
-44.4598
 21
43.1979
  0
LINE
  8
0
 10
-44.4598
 20
43.1979
 11
-44.4598
 21
36.8021
  0
LINE
  8
0
 10
-44.4598
 20
36.8021
 11
-50
 21
33.6035
  0
LINE
  8
0
 10
-50
 20
33.6035
 11
-51.2328
 21
34.3152
  0
LINE
  8
0
 10
44.4598
 20
36.8021
 11
44.4598
 21
43.1979
  0
LINE
  8
0
 10
44.4598
 20
43.1979
 11
47.7327
 21
45.0874
  0
LINE
  8
0
 10
47.7327
 20
45.0874
 11
51.2328
 21
34.3152
  0
LINE
  8
0
 10
51.2328
 20
34.3152
 11
50
 21
33.6035
  0
LINE
  8
0
 10
50
 20
33.6035
 11
44.4598
 21
36.8021
  0
LINE
  8
0
 10
-42.8601
 20
37.1399
 11
-42.8601
 21
42.8601
  0
LINE
  8
0
 10
-42.8601
 20
42.8601
 11
-37.1399
 21
42.8601
  0
LINE
  8
0
 10
-37.1399
 20
42.8601
 11
-37.1399
 21
37.1399
  0
LINE
  8
0
 10
-37.1399
 20
37.1399
 11
-42.8601
 21
37.1399
  0
LINE
  8
0
 10
37.1399
 20
37.1399
 11
37.1399
 21
42.8601
  0
LINE
  8
0
 10
37.1399
 20
42.8601
 11
42.8601
 21
42.8601
  0
LINE
  8
0
 10
42.8601
 20
42.8601
 11
42.8601
 21
37.1399
  0
LINE
  8
0
 10
42.8601
 20
37.1399
 11
37.1399
 21
37.1399
  0
LINE
  8
0
 10
17.1399
 20
37.1399
 11
17.1399
 21
42.8601
  0
LINE
  8
0
 10
17.1399
 20
42.8601
 11
22.8601
 21
42.8601
  0
LINE
  8
0
 10
22.8601
 20
42.8601
 11
22.8601
 21
37.1399
  0
LINE
  8
0
 10
22.8601
 20
37.1399
 11
17.1399
 21
37.1399
  0
LINE
  8
0
 10
-22.8601
 20
37.1399
 11
-22.8601
 21
42.8601
  0
LINE
  8
0
 10
-22.8601
 20
42.8601
 11
-17.1399
 21
42.8601
  0
LINE
  8
0
 10
-17.1399
 20
42.8601
 11
-17.1399
 21
37.1399
  0
LINE
  8
0
 10
-17.1399
 20
37.1399
 11
-22.8601
 21
37.1399
  0
LINE
  8
0
 10
-2.86011
 20
37.1399
 11
-2.86011
 21
42.8601
  0
LINE
  8
0
 10
-2.86011
 20
42.8601
 11
2.86011
 21
42.8601
  0
LINE
  8
0
 10
2.86011
 20
42.8601
 11
2.86011
 21
37.1399
  0
LINE
  8
0
 10
2.86011
 20
37.1399
 11
-2.86011
 21
37.1399
  0
LINE
  8
0
 10
16.8021
 20
24.4598
 11
13.6035
 21
30
  0
LINE
  8
0
 10
13.6035
 20
30
 11
16.8021
 21
35.5402
  0
LINE
  8
0
 10
16.8021
 20
35.5402
 11
23.1979
 21
35.5402
  0
LINE
  8
0
 10
23.1979
 20
35.5402
 11
26.3965
 21
30
  0
LINE
  8
0
 10
26.3965
 20
30
 11
23.1979
 21
24.4598
  0
LINE
  8
0
 10
23.1979
 20
24.4598
 11
16.8021
 21
24.4598
  0
LINE
  8
0
 10
-3.19794
 20
24.4598
 11
-6.39648
 21
30
  0
LINE
  8
0
 10
-6.39648
 20
30
 11
-3.19794
 21
35.5402
  0
LINE
  8
0
 10
-3.19794
 20
35.5402
 11
3.19794
 21
35.5402
  0
LINE
  8
0
 10
3.19794
 20
35.5402
 11
6.39648
 21
30
  0
LINE
  8
0
 10
6.39648
 20
30
 11
3.19794
 21
24.4598
  0
LINE
  8
0
 10
3.19794
 20
24.4598
 11
-3.19794
 21
24.4598
  0
LINE
  8
0
 10
-43.1979
 20
24.4598
 11
-46.3965
 21
30
  0
LINE
  8
0
 10
-46.3965
 20
30
 11
-43.1979
 21
35.5402
  0
LINE
  8
0
 10
-43.1979
 20
35.5402
 11
-36.8021
 21
35.5402
  0
LINE
  8
0
 10
-36.8021
 20
35.5402
 11
-33.6035
 21
30
  0
LINE
  8
0
 10
-33.6035
 20
30
 11
-36.8021
 21
24.4598
  0
LINE
  8
0
 10
-36.8021
 20
24.4598
 11
-43.1979
 21
24.4598
  0
LINE
  8
0
 10
-23.1979
 20
24.4598
 11
-26.3965
 21
30
  0
LINE
  8
0
 10
-26.3965
 20
30
 11
-23.1979
 21
35.5402
  0
LINE
  8
0
 10
-23.1979
 20
35.5402
 11
-16.8021
 21
35.5402
  0
LINE
  8
0
 10
-16.8021
 20
35.5402
 11
-13.6035
 21
30
  0
LINE
  8
0
 10
-13.6035
 20
30
 11
-16.8021
 21
24.4598
  0
LINE
  8
0
 10
-16.8021
 20
24.4598
 11
-23.1979
 21
24.4598
  0
LINE
  8
0
 10
36.8021
 20
24.4598
 11
33.6035
 21
30
  0
LINE
  8
0
 10
33.6035
 20
30
 11
36.8021
 21
35.5402
  0
LINE
  8
0
 10
36.8021
 20
35.5402
 11
43.1979
 21
35.5402
  0
LINE
  8
0
 10
43.1979
 20
35.5402
 11
46.3965
 21
30
  0
LINE
  8
0
 10
46.3965
 20
30
 11
43.1979
 21
24.4598
  0
LINE
  8
0
 10
43.1979
 20
24.4598
 11
36.8021
 21
24.4598
  0
LINE
  8
0
 10
-10
 20
28.244
 11
-14.1541
 21
25.8456
  0
LINE
  8
0
 10
-14.1541
 20
25.8456
 11
-11.756
 21
30
  0
LINE
  8
0
 10
-11.756
 20
30
 11
-14.1547
 21
34.1547
  0
LINE
  8
0
 10
-14.1547
 20
34.1547
 11
-10
 21
31.756
  0
LINE
  8
0
 10
-10
 20
31.756
 11
-5.84534
 21
34.1547
  0
LINE
  8
0
 10
-5.84534
 20
34.1547
 11
-8.24402
 21
30
  0
LINE
  8
0
 10
-8.24402
 20
30
 11
-5.84534
 21
25.8453
  0
LINE
  8
0
 10
-5.84534
 20
25.8453
 11
-10
 21
28.244
  0
LINE
  8
0
 10
48.244
 20
30
 11
45.8453
 21
34.1547
  0
LINE
  8
0
 10
45.8453
 20
34.1547
 11
50
 21
31.756
  0
LINE
  8
0
 10
50
 20
31.756
 11
51.7382
 21
32.7595
  0
LINE
  8
0
 10
51.7382
 20
32.7595
 11
52.3184
 21
30.9741
  0
LINE
  8
0
 10
52.3184
 20
30.9741
 11
51.756
 21
30
  0
LINE
  8
0
 10
51.756
 20
30
 11
53.7661
 21
26.5183
  0
LINE
  8
0
 10
53.7661
 20
26.5183
 11
53.9456
 21
25.9661
  0
LINE
  8
0
 10
53.9456
 20
25.9661
 11
50
 21
28.244
  0
LINE
  8
0
 10
50
 20
28.244
 11
45.8453
 21
25.8453
  0
LINE
  8
0
 10
45.8453
 20
25.8453
 11
48.244
 21
30
  0
LINE
  8
0
 10
-50
 20
28.244
 11
-53.9456
 21
25.966
  0
LINE
  8
0
 10
-53.9456
 20
25.966
 11
-53.7666
 21
26.5168
  0
LINE
  8
0
 10
-53.7666
 20
26.5168
 11
-51.756
 21
30
  0
LINE
  8
0
 10
-51.756
 20
30
 11
-52.3184
 21
30.9741
  0
LINE
  8
0
 10
-52.3184
 20
30.9741
 11
-51.7382
 21
32.7595
  0
LINE
  8
0
 10
-51.7382
 20
32.7595
 11
-50
 21
31.756
  0
LINE
  8
0
 10
-50
 20
31.756
 11
-45.8453
 21
34.1547
  0
LINE
  8
0
 10
-45.8453
 20
34.1547
 11
-48.244
 21
30
  0
LINE
  8
0
 10
-48.244
 20
30
 11
-45.8453
 21
25.8453
  0
LINE
  8
0
 10
-45.8453
 20
25.8453
 11
-50
 21
28.244
  0
LINE
  8
0
 10
-30
 20
28.244
 11
-34.1547
 21
25.8453
  0
LINE
  8
0
 10
-34.1547
 20
25.8453
 11
-31.756
 21
30
  0
LINE
  8
0
 10
-31.756
 20
30
 11
-34.1547
 21
34.1547
  0
LINE
  8
0
 10
-34.1547
 20
34.1547
 11
-30
 21
31.756
  0
LINE
  8
0
 10
-30
 20
31.756
 11
-25.8453
 21
34.1547
  0
LINE
  8
0
 10
-25.8453
 20
34.1547
 11
-28.244
 21
30
  0
LINE
  8
0
 10
-28.244
 20
30
 11
-25.8453
 21
25.8453
  0
LINE
  8
0
 10
-25.8453
 20
25.8453
 11
-30
 21
28.244
  0
LINE
  8
0
 10
10
 20
28.244
 11
5.84595
 21
25.8456
  0
LINE
  8
0
 10
5.84595
 20
25.8456
 11
8.24402
 21
30
  0
LINE
  8
0
 10
8.24402
 20
30
 11
5.84534
 21
34.1547
  0
LINE
  8
0
 10
5.84534
 20
34.1547
 11
10
 21
31.756
  0
LINE
  8
0
 10
10
 20
31.756
 11
14.1547
 21
34.1547
  0
LINE
  8
0
 10
14.1547
 20
34.1547
 11
11.756
 21
30
  0
LINE
  8
0
 10
11.756
 20
30
 11
14.1547
 21
25.8453
  0
LINE
  8
0
 10
14.1547
 20
25.8453
 11
10
 21
28.244
  0
LINE
  8
0
 10
30
 20
28.244
 11
25.8459
 21
25.8456
  0
LINE
  8
0
 10
25.8459
 20
25.8456
 11
28.244
 21
30
  0
LINE
  8
0
 10
28.244
 20
30
 11
25.8453
 21
34.1547
  0
LINE
  8
0
 10
25.8453
 20
34.1547
 11
30
 21
31.756
  0
LINE
  8
0
 10
30
 20
31.756
 11
34.1547
 21
34.1547
  0
LINE
  8
0
 10
34.1547
 20
34.1547
 11
31.756
 21
30
  0
LINE
  8
0
 10
31.756
 20
30
 11
34.1547
 21
25.8453
  0
LINE
  8
0
 10
34.1547
 20
25.8453
 11
30
 21
28.244
  0
LINE
  8
0
 10
24.4598
 20
16.8021
 11
24.4598
 21
23.1979
  0
LINE
  8
0
 10
24.4598
 20
23.1979
 11
30
 21
26.3965
  0
LINE
  8
0
 10
30
 20
26.3965
 11
35.5402
 21
23.1979
  0
LINE
  8
0
 10
35.5402
 20
23.1979
 11
35.5402
 21
16.8021
  0
LINE
  8
0
 10
35.5402
 20
16.8021
 11
30
 21
13.6035
  0
LINE
  8
0
 10
30
 20
13.6035
 11
24.4598
 21
16.8021
  0
LINE
  8
0
 10
-55.5402
 20
16.8021
 11
-55.5402
 21
21.0584
  0
LINE
  8
0
 10
-55.5402
 20
21.0584
 11
-54.6845
 21
23.692
  0
LINE
  8
0
 10
-54.6845
 20
23.692
 11
-50
 21
26.3965
  0
LINE
  8
0
 10
-50
 20
26.3965
 11
-44.4598
 21
23.1979
  0
LINE
  8
0
 10
-44.4598
 20
23.1979
 11
-44.4598
 21
16.8021
  0
LINE
  8
0
 10
-44.4598
 20
16.8021
 11
-50
 21
13.6035
  0
LINE
  8
0
 10
-50
 20
13.6035
 11
-55.5402
 21
16.8021
  0
LINE
  8
0
 10
-15.5402
 20
16.8021
 11
-15.5402
 21
23.1979
  0
LINE
  8
0
 10
-15.5402
 20
23.1979
 11
-10
 21
26.3965
  0
LINE
  8
0
 10
-10
 20
26.3965
 11
-4.45984
 21
23.1979
  0
LINE
  8
0
 10
-4.45984
 20
23.1979
 11
-4.45984
 21
16.8021
  0
LINE
  8
0
 10
-4.45984
 20
16.8021
 11
-10
 21
13.6035
  0
LINE
  8
0
 10
-10
 20
13.6035
 11
-15.5402
 21
16.8021
  0
LINE
  8
0
 10
44.4598
 20
16.8021
 11
44.4598
 21
23.1979
  0
LINE
  8
0
 10
44.4598
 20
23.1979
 11
50
 21
26.3965
  0
LINE
  8
0
 10
50
 20
26.3965
 11
54.6845
 21
23.692
  0
LINE
  8
0
 10
54.6845
 20
23.692
 11
55.5402
 21
21.0584
  0
LINE
  8
0
 10
55.5402
 20
21.0584
 11
55.5402
 21
16.8021
  0
LINE
  8
0
 10
55.5402
 20
16.8021
 11
50
 21
13.6035
  0
LINE
  8
0
 10
50
 20
13.6035
 11
44.4598
 21
16.8021
  0
LINE
  8
0
 10
-35.5402
 20
16.8021
 11
-35.5402
 21
23.1979
  0
LINE
  8
0
 10
-35.5402
 20
23.1979
 11
-30
 21
26.3965
  0
LINE
  8
0
 10
-30
 20
26.3965
 11
-24.4598
 21
23.1979
  0
LINE
  8
0
 10
-24.4598
 20
23.1979
 11
-24.4598
 21
16.8021
  0
LINE
  8
0
 10
-24.4598
 20
16.8021
 11
-30
 21
13.6035
  0
LINE
  8
0
 10
-30
 20
13.6035
 11
-35.5402
 21
16.8021
  0
LINE
  8
0
 10
4.45984
 20
16.8021
 11
4.45984
 21
23.1979
  0
LINE
  8
0
 10
4.45984
 20
23.1979
 11
10
 21
26.3965
  0
LINE
  8
0
 10
10
 20
26.3965
 11
15.5402
 21
23.1979
  0
LINE
  8
0
 10
15.5402
 20
23.1979
 11
15.5402
 21
16.8021
  0
LINE
  8
0
 10
15.5402
 20
16.8021
 11
10
 21
13.6035
  0
LINE
  8
0
 10
10
 20
13.6035
 11
4.45984
 21
16.8021
  0
LINE
  8
0
 10
37.1399
 20
17.1399
 11
37.1399
 21
22.8601
  0
LINE
  8
0
 10
37.1399
 20
22.8601
 11
42.8601
 21
22.8601
  0
LINE
  8
0
 10
42.8601
 20
22.8601
 11
42.8601
 21
17.1399
  0
LINE
  8
0
 10
42.8601
 20
17.1399
 11
37.1399
 21
17.1399
  0
LINE
  8
0
 10
-42.8601
 20
17.1399
 11
-42.8601
 21
22.8601
  0
LINE
  8
0
 10
-42.8601
 20
22.8601
 11
-37.1399
 21
22.8601
  0
LINE
  8
0
 10
-37.1399
 20
22.8601
 11
-37.1399
 21
17.1399
  0
LINE
  8
0
 10
-37.1399
 20
17.1399
 11
-42.8601
 21
17.1399
  0
LINE
  8
0
 10
17.1399
 20
17.1399
 11
17.1399
 21
22.8601
  0
LINE
  8
0
 10
17.1399
 20
22.8601
 11
22.8601
 21
22.8601
  0
LINE
  8
0
 10
22.8601
 20
22.8601
 11
22.8601
 21
17.1399
  0
LINE
  8
0
 10
22.8601
 20
17.1399
 11
17.1399
 21
17.1399
  0
LINE
  8
0
 10
-2.86011
 20
17.1399
 11
-2.86011
 21
22.8601
  0
LINE
  8
0
 10
-2.86011
 20
22.8601
 11
2.86011
 21
22.8601
  0
LINE
  8
0
 10
2.86011
 20
22.8601
 11
2.86011
 21
17.1399
  0
LINE
  8
0
 10
2.86011
 20
17.1399
 11
-2.86011
 21
17.1399
  0
LINE
  8
0
 10
-22.8601
 20
17.1399
 11
-22.8601
 21
22.8601
  0
LINE
  8
0
 10
-22.8601
 20
22.8601
 11
-17.1399
 21
22.8601
  0
LINE
  8
0
 10
-17.1399
 20
22.8601
 11
-17.1399
 21
17.1399
  0
LINE
  8
0
 10
-17.1399
 20
17.1399
 11
-22.8601
 21
17.1399
  0
LINE
  8
0
 10
-5.24181
 20
12
 11
-3.19794
 21
15.5402
  0
LINE
  8
0
 10
-3.19794
 20
15.5402
 11
3.19794
 21
15.5402
  0
LINE
  8
0
 10
3.19794
 20
15.5402
 11
5.24181
 21
12
  0
LINE
  8
0
 10
5.24181
 20
12
 11
-5.24181
 21
12
  0
LINE
  8
0
 10
-58.4834
 20
12
 11
-57.3331
 21
15.5402
  0
LINE
  8
0
 10
-57.3331
 20
15.5402
 11
-56.8021
 21
15.5402
  0
LINE
  8
0
 10
-56.8021
 20
15.5402
 11
-54.7582
 21
12
  0
LINE
  8
0
 10
-54.7582
 20
12
 11
-58.4834
 21
12
  0
LINE
  8
0
 10
34.7582
 20
12
 11
36.8021
 21
15.5402
  0
LINE
  8
0
 10
36.8021
 20
15.5402
 11
43.1979
 21
15.5402
  0
LINE
  8
0
 10
43.1979
 20
15.5402
 11
45.2418
 21
12
  0
LINE
  8
0
 10
45.2418
 20
12
 11
34.7582
 21
12
  0
LINE
  8
0
 10
54.7582
 20
12
 11
56.8021
 21
15.5402
  0
LINE
  8
0
 10
56.8021
 20
15.5402
 11
57.3331
 21
15.5402
  0
LINE
  8
0
 10
57.3331
 20
15.5402
 11
58.4834
 21
12
  0
LINE
  8
0
 10
58.4834
 20
12
 11
54.7582
 21
12
  0
LINE
  8
0
 10
-45.2418
 20
12
 11
-43.1979
 21
15.5402
  0
LINE
  8
0
 10
-43.1979
 20
15.5402
 11
-36.8021
 21
15.5402
  0
LINE
  8
0
 10
-36.8021
 20
15.5402
 11
-34.7582
 21
12
  0
LINE
  8
0
 10
-34.7582
 20
12
 11
-45.2418
 21
12
  0
LINE
  8
0
 10
-25.2418
 20
12
 11
-23.1979
 21
15.5402
  0
LINE
  8
0
 10
-23.1979
 20
15.5402
 11
-16.8021
 21
15.5402
  0
LINE
  8
0
 10
-16.8021
 20
15.5402
 11
-14.7582
 21
12
  0
LINE
  8
0
 10
-14.7582
 20
12
 11
-25.2418
 21
12
  0
LINE
  8
0
 10
14.7582
 20
12
 11
16.8021
 21
15.5402
  0
LINE
  8
0
 10
16.8021
 20
15.5402
 11
23.1979
 21
15.5402
  0
LINE
  8
0
 10
23.1979
 20
15.5402
 11
25.2418
 21
12
  0
LINE
  8
0
 10
25.2418
 20
12
 11
14.7582
 21
12
  0
LINE
  8
0
 10
-32.9107
 20
12
 11
-34.1547
 21
14.1547
  0
LINE
  8
0
 10
-34.1547
 20
14.1547
 11
-30.4227
 21
12
  0
LINE
  8
0
 10
-30.4227
 20
12
 11
-32.9107
 21
12
  0
LINE
  8
0
 10
10.4227
 20
12
 11
14.1547
 21
14.1547
  0
LINE
  8
0
 10
14.1547
 20
14.1547
 11
12.9107
 21
12
  0
LINE
  8
0
 10
12.9107
 20
12
 11
10.4227
 21
12
  0
LINE
  8
0
 10
-52.9107
 20
12
 11
-54.1547
 21
14.1547
  0
LINE
  8
0
 10
-54.1547
 20
14.1547
 11
-50.4227
 21
12
  0
LINE
  8
0
 10
-50.4227
 20
12
 11
-52.9107
 21
12
  0
LINE
  8
0
 10
50.4227
 20
12
 11
54.1547
 21
14.1547
  0
LINE
  8
0
 10
54.1547
 20
14.1547
 11
52.9107
 21
12
  0
LINE
  8
0
 10
52.9107
 20
12
 11
50.4227
 21
12
  0
LINE
  8
0
 10
47.0893
 20
12
 11
45.8453
 21
14.1547
  0
LINE
  8
0
 10
45.8453
 20
14.1547
 11
49.5773
 21
12
  0
LINE
  8
0
 10
49.5773
 20
12
 11
47.0893
 21
12
  0
LINE
  8
0
 10
-49.5773
 20
12
 11
-45.8453
 21
14.1547
  0
LINE
  8
0
 10
-45.8453
 20
14.1547
 11
-47.0893
 21
12
  0
LINE
  8
0
 10
-47.0893
 20
12
 11
-49.5773
 21
12
  0
LINE
  8
0
 10
-29.5773
 20
12
 11
-25.8453
 21
14.1547
  0
LINE
  8
0
 10
-25.8453
 20
14.1547
 11
-27.0893
 21
12
  0
LINE
  8
0
 10
-27.0893
 20
12
 11
-29.5773
 21
12
  0
LINE
  8
0
 10
7.08932
 20
12
 11
5.84534
 21
14.1547
  0
LINE
  8
0
 10
5.84534
 20
14.1547
 11
9.57735
 21
12
  0
LINE
  8
0
 10
9.57735
 20
12
 11
7.08932
 21
12
  0
LINE
  8
0
 10
27.0893
 20
12
 11
25.8453
 21
14.1547
  0
LINE
  8
0
 10
25.8453
 20
14.1547
 11
29.5773
 21
12
  0
LINE
  8
0
 10
29.5773
 20
12
 11
27.0893
 21
12
  0
LINE
  8
0
 10
30.4227
 20
12
 11
34.1547
 21
14.1547
  0
LINE
  8
0
 10
34.1547
 20
14.1547
 11
32.9107
 21
12
  0
LINE
  8
0
 10
32.9107
 20
12
 11
30.4227
 21
12
  0
LINE
  8
0
 10
-12.9107
 20
12
 11
-14.1547
 21
14.1547
  0
LINE
  8
0
 10
-14.1547
 20
14.1547
 11
-10.4227
 21
12
  0
LINE
  8
0
 10
-10.4227
 20
12
 11
-12.9107
 21
12
  0
LINE
  8
0
 10
-9.57735
 20
12
 11
-5.84534
 21
14.1547
  0
LINE
  8
0
 10
-5.84534
 20
14.1547
 11
-7.08932
 21
12
  0
LINE
  8
0
 10
-7.08932
 20
12
 11
-9.57735
 21
12
  0
LINE
  8
0
 10
-10
 20
7
 11
-10
 21
11
  0
LINE
  8
0
 10
-10
 20
11
 11
10
 21
11
  0
LINE
  8
0
 10
10
 20
11
 11
10
 21
7
  0
LINE
  8
0
 10
10
 20
7
 11
-10
 21
7
  0
LINE
  8
0
 10
-68.6534
 20
2.70622
 11
-68.7785
 21
2.71805
  0
LINE
  8
0
 10
-68.7785
 20
2.71805
 11
-68.9026
 21
2.7377
  0
LINE
  8
0
 10
-68.9026
 20
2.7377
 11
-69.0252
 21
2.76511
  0
LINE
  8
0
 10
-69.0252
 20
2.76511
 11
-69.1459
 21
2.80016
  0
LINE
  8
0
 10
-69.1459
 20
2.80016
 11
-69.2641
 21
2.84273
  0
LINE
  8
0
 10
-69.2641
 20
2.84273
 11
-69.3794
 21
2.89262
  0
LINE
  8
0
 10
-69.3794
 20
2.89262
 11
-69.4914
 21
2.94966
  0
LINE
  8
0
 10
-69.4914
 20
2.94966
 11
-69.5995
 21
3.01363
  0
LINE
  8
0
 10
-69.5995
 20
3.01363
 11
-69.7034
 21
3.08424
  0
LINE
  8
0
 10
-69.7034
 20
3.08424
 11
-69.8027
 21
3.16125
  0
LINE
  8
0
 10
-69.8027
 20
3.16125
 11
-69.897
 21
3.24434
  0
LINE
  8
0
 10
-69.897
 20
3.24434
 11
-69.9858
 21
3.33318
  0
LINE
  8
0
 10
-69.9858
 20
3.33318
 11
-70.0689
 21
3.42743
  0
LINE
  8
0
 10
-70.0689
 20
3.42743
 11
-70.1459
 21
3.5267
  0
LINE
  8
0
 10
-70.1459
 20
3.5267
 11
-70.2165
 21
3.63062
  0
LINE
  8
0
 10
-70.2165
 20
3.63062
 11
-70.2805
 21
3.73877
  0
LINE
  8
0
 10
-70.2805
 20
3.73877
 11
-70.3375
 21
3.85072
  0
LINE
  8
0
 10
-70.3375
 20
3.85072
 11
-70.3874
 21
3.96602
  0
LINE
  8
0
 10
-70.3874
 20
3.96602
 11
-70.43
 21
4.08424
  0
LINE
  8
0
 10
-70.43
 20
4.08424
 11
-70.465
 21
4.2049
  0
LINE
  8
0
 10
-70.465
 20
4.2049
 11
-70.4924
 21
4.32751
  0
LINE
  8
0
 10
-70.4924
 20
4.32751
 11
-70.5121
 21
4.45161
  0
LINE
  8
0
 10
-70.5121
 20
4.45161
 11
-70.5239
 21
4.57669
  0
LINE
  8
0
 10
-70.5239
 20
4.57669
 11
-70.5279
 21
4.70227
  0
LINE
  8
0
 10
-70.5279
 20
4.70227
 11
-70.5239
 21
4.82785
  0
LINE
  8
0
 10
-70.5239
 20
4.82785
 11
-70.5121
 21
4.95294
  0
LINE
  8
0
 10
-70.5121
 20
4.95294
 11
-70.4924
 21
5.07704
  0
LINE
  8
0
 10
-70.4924
 20
5.07704
 11
-70.465
 21
5.19966
  0
LINE
  8
0
 10
-70.465
 20
5.19966
 11
-70.43
 21
5.32031
  0
LINE
  8
0
 10
-70.43
 20
5.32031
 11
-70.3874
 21
5.43852
  0
LINE
  8
0
 10
-70.3874
 20
5.43852
 11
-70.3375
 21
5.55383
  0
LINE
  8
0
 10
-70.3375
 20
5.55383
 11
-70.2805
 21
5.66579
  0
LINE
  8
0
 10
-70.2805
 20
5.66579
 11
-70.2165
 21
5.77393
  0
LINE
  8
0
 10
-70.2165
 20
5.77393
 11
-70.1459
 21
5.87784
  0
LINE
  8
0
 10
-70.1459
 20
5.87784
 11
-70.0689
 21
5.97713
  0
LINE
  8
0
 10
-70.0689
 20
5.97713
 11
-69.9858
 21
6.07137
  0
LINE
  8
0
 10
-69.9858
 20
6.07137
 11
-69.897
 21
6.16022
  0
LINE
  8
0
 10
-69.897
 20
6.16022
 11
-69.8027
 21
6.2433
  0
LINE
  8
0
 10
-69.8027
 20
6.2433
 11
-69.7034
 21
6.32031
  0
LINE
  8
0
 10
-69.7034
 20
6.32031
 11
-69.5995
 21
6.39093
  0
LINE
  8
0
 10
-69.5995
 20
6.39093
 11
-69.4914
 21
6.4549
  0
LINE
  8
0
 10
-69.4914
 20
6.4549
 11
-69.3794
 21
6.51193
  0
LINE
  8
0
 10
-69.3794
 20
6.51193
 11
-69.2641
 21
6.56183
  0
LINE
  8
0
 10
-69.2641
 20
6.56183
 11
-69.1459
 21
6.60439
  0
LINE
  8
0
 10
-69.1459
 20
6.60439
 11
-69.0252
 21
6.63943
  0
LINE
  8
0
 10
-69.0252
 20
6.63943
 11
-68.9026
 21
6.66685
  0
LINE
  8
0
 10
-68.9026
 20
6.66685
 11
-68.7785
 21
6.68651
  0
LINE
  8
0
 10
-68.7785
 20
6.68651
 11
-68.6534
 21
6.69833
  0
LINE
  8
0
 10
-68.6534
 20
6.69833
 11
-68.5279
 21
6.70227
  0
LINE
  8
0
 10
-68.5279
 20
6.70227
 11
-68.4023
 21
6.69833
  0
LINE
  8
0
 10
-68.4023
 20
6.69833
 11
-68.2772
 21
6.68651
  0
LINE
  8
0
 10
-68.2772
 20
6.68651
 11
-68.1531
 21
6.66685
  0
LINE
  8
0
 10
-68.1531
 20
6.66685
 11
-68.0305
 21
6.63943
  0
LINE
  8
0
 10
-68.0305
 20
6.63943
 11
-67.9098
 21
6.60439
  0
LINE
  8
0
 10
-67.9098
 20
6.60439
 11
-67.7916
 21
6.56183
  0
LINE
  8
0
 10
-67.7916
 20
6.56183
 11
-67.6763
 21
6.51193
  0
LINE
  8
0
 10
-67.6763
 20
6.51193
 11
-67.5643
 21
6.4549
  0
LINE
  8
0
 10
-67.5643
 20
6.4549
 11
-67.4562
 21
6.39093
  0
LINE
  8
0
 10
-67.4562
 20
6.39093
 11
-67.3523
 21
6.32031
  0
LINE
  8
0
 10
-67.3523
 20
6.32031
 11
-67.253
 21
6.2433
  0
LINE
  8
0
 10
-67.253
 20
6.2433
 11
-67.1588
 21
6.16022
  0
LINE
  8
0
 10
-67.1588
 20
6.16022
 11
-67.0699
 21
6.07137
  0
LINE
  8
0
 10
-67.0699
 20
6.07137
 11
-66.9868
 21
5.97713
  0
LINE
  8
0
 10
-66.9868
 20
5.97713
 11
-66.9098
 21
5.87784
  0
LINE
  8
0
 10
-66.9098
 20
5.87784
 11
-66.8392
 21
5.77393
  0
LINE
  8
0
 10
-66.8392
 20
5.77393
 11
-66.7752
 21
5.66579
  0
LINE
  8
0
 10
-66.7752
 20
5.66579
 11
-66.7182
 21
5.55383
  0
LINE
  8
0
 10
-66.7182
 20
5.55383
 11
-66.6683
 21
5.43852
  0
LINE
  8
0
 10
-66.6683
 20
5.43852
 11
-66.6257
 21
5.32031
  0
LINE
  8
0
 10
-66.6257
 20
5.32031
 11
-66.5907
 21
5.19966
  0
LINE
  8
0
 10
-66.5907
 20
5.19966
 11
-66.5633
 21
5.07704
  0
LINE
  8
0
 10
-66.5633
 20
5.07704
 11
-66.5436
 21
4.95294
  0
LINE
  8
0
 10
-66.5436
 20
4.95294
 11
-66.5318
 21
4.82785
  0
LINE
  8
0
 10
-66.5318
 20
4.82785
 11
-66.5279
 21
4.70227
  0
LINE
  8
0
 10
-66.5279
 20
4.70227
 11
-66.5318
 21
4.57669
  0
LINE
  8
0
 10
-66.5318
 20
4.57669
 11
-66.5436
 21
4.45161
  0
LINE
  8
0
 10
-66.5436
 20
4.45161
 11
-66.5633
 21
4.32751
  0
LINE
  8
0
 10
-66.5633
 20
4.32751
 11
-66.5907
 21
4.2049
  0
LINE
  8
0
 10
-66.5907
 20
4.2049
 11
-66.6257
 21
4.08424
  0
LINE
  8
0
 10
-66.6257
 20
4.08424
 11
-66.6683
 21
3.96602
  0
LINE
  8
0
 10
-66.6683
 20
3.96602
 11
-66.7182
 21
3.85072
  0
LINE
  8
0
 10
-66.7182
 20
3.85072
 11
-66.7752
 21
3.73877
  0
LINE
  8
0
 10
-66.7752
 20
3.73877
 11
-66.8392
 21
3.63062
  0
LINE
  8
0
 10
-66.8392
 20
3.63062
 11
-66.9098
 21
3.5267
  0
LINE
  8
0
 10
-66.9098
 20
3.5267
 11
-66.9868
 21
3.42743
  0
LINE
  8
0
 10
-66.9868
 20
3.42743
 11
-67.0699
 21
3.33318
  0
LINE
  8
0
 10
-67.0699
 20
3.33318
 11
-67.1588
 21
3.24434
  0
LINE
  8
0
 10
-67.1588
 20
3.24434
 11
-67.253
 21
3.16125
  0
LINE
  8
0
 10
-67.253
 20
3.16125
 11
-67.3523
 21
3.08424
  0
LINE
  8
0
 10
-67.3523
 20
3.08424
 11
-67.4562
 21
3.01363
  0
LINE
  8
0
 10
-67.4562
 20
3.01363
 11
-67.5643
 21
2.94966
  0
LINE
  8
0
 10
-67.5643
 20
2.94966
 11
-67.6763
 21
2.89262
  0
LINE
  8
0
 10
-67.6763
 20
2.89262
 11
-67.7916
 21
2.84273
  0
LINE
  8
0
 10
-67.7916
 20
2.84273
 11
-67.9098
 21
2.80016
  0
LINE
  8
0
 10
-67.9098
 20
2.80016
 11
-68.0305
 21
2.76511
  0
LINE
  8
0
 10
-68.0305
 20
2.76511
 11
-68.1531
 21
2.7377
  0
LINE
  8
0
 10
-68.1531
 20
2.7377
 11
-68.2772
 21
2.71805
  0
LINE
  8
0
 10
-68.2772
 20
2.71805
 11
-68.4023
 21
2.70622
  0
LINE
  8
0
 10
-68.4023
 20
2.70622
 11
-68.5279
 21
2.70227
  0
LINE
  8
0
 10
-68.5279
 20
2.70227
 11
-68.6534
 21
2.70622
  0
LINE
  8
0
 10
68.4023
 20
2.70622
 11
68.2772
 21
2.71805
  0
LINE
  8
0
 10
68.2772
 20
2.71805
 11
68.1531
 21
2.7377
  0
LINE
  8
0
 10
68.1531
 20
2.7377
 11
68.0305
 21
2.76511
  0
LINE
  8
0
 10
68.0305
 20
2.76511
 11
67.9098
 21
2.80016
  0
LINE
  8
0
 10
67.9098
 20
2.80016
 11
67.7916
 21
2.84273
  0
LINE
  8
0
 10
67.7916
 20
2.84273
 11
67.6763
 21
2.89262
  0
LINE
  8
0
 10
67.6763
 20
2.89262
 11
67.5643
 21
2.94966
  0
LINE
  8
0
 10
67.5643
 20
2.94966
 11
67.4562
 21
3.01363
  0
LINE
  8
0
 10
67.4562
 20
3.01363
 11
67.3523
 21
3.08424
  0
LINE
  8
0
 10
67.3523
 20
3.08424
 11
67.253
 21
3.16125
  0
LINE
  8
0
 10
67.253
 20
3.16125
 11
67.1588
 21
3.24434
  0
LINE
  8
0
 10
67.1588
 20
3.24434
 11
67.0699
 21
3.33318
  0
LINE
  8
0
 10
67.0699
 20
3.33318
 11
66.9868
 21
3.42743
  0
LINE
  8
0
 10
66.9868
 20
3.42743
 11
66.9098
 21
3.5267
  0
LINE
  8
0
 10
66.9098
 20
3.5267
 11
66.8392
 21
3.63062
  0
LINE
  8
0
 10
66.8392
 20
3.63062
 11
66.7752
 21
3.73877
  0
LINE
  8
0
 10
66.7752
 20
3.73877
 11
66.7182
 21
3.85072
  0
LINE
  8
0
 10
66.7182
 20
3.85072
 11
66.6683
 21
3.96602
  0
LINE
  8
0
 10
66.6683
 20
3.96602
 11
66.6257
 21
4.08424
  0
LINE
  8
0
 10
66.6257
 20
4.08424
 11
66.5907
 21
4.2049
  0
LINE
  8
0
 10
66.5907
 20
4.2049
 11
66.5633
 21
4.32751
  0
LINE
  8
0
 10
66.5633
 20
4.32751
 11
66.5436
 21
4.45161
  0
LINE
  8
0
 10
66.5436
 20
4.45161
 11
66.5318
 21
4.57669
  0
LINE
  8
0
 10
66.5318
 20
4.57669
 11
66.5279
 21
4.70227
  0
LINE
  8
0
 10
66.5279
 20
4.70227
 11
66.5318
 21
4.82785
  0
LINE
  8
0
 10
66.5318
 20
4.82785
 11
66.5436
 21
4.95294
  0
LINE
  8
0
 10
66.5436
 20
4.95294
 11
66.5633
 21
5.07704
  0
LINE
  8
0
 10
66.5633
 20
5.07704
 11
66.5907
 21
5.19966
  0
LINE
  8
0
 10
66.5907
 20
5.19966
 11
66.6257
 21
5.32031
  0
LINE
  8
0
 10
66.6257
 20
5.32031
 11
66.6683
 21
5.43852
  0
LINE
  8
0
 10
66.6683
 20
5.43852
 11
66.7182
 21
5.55383
  0
LINE
  8
0
 10
66.7182
 20
5.55383
 11
66.7752
 21
5.66579
  0
LINE
  8
0
 10
66.7752
 20
5.66579
 11
66.8392
 21
5.77393
  0
LINE
  8
0
 10
66.8392
 20
5.77393
 11
66.9098
 21
5.87784
  0
LINE
  8
0
 10
66.9098
 20
5.87784
 11
66.9868
 21
5.97713
  0
LINE
  8
0
 10
66.9868
 20
5.97713
 11
67.0699
 21
6.07137
  0
LINE
  8
0
 10
67.0699
 20
6.07137
 11
67.1588
 21
6.16022
  0
LINE
  8
0
 10
67.1588
 20
6.16022
 11
67.253
 21
6.2433
  0
LINE
  8
0
 10
67.253
 20
6.2433
 11
67.3523
 21
6.32031
  0
LINE
  8
0
 10
67.3523
 20
6.32031
 11
67.4562
 21
6.39093
  0
LINE
  8
0
 10
67.4562
 20
6.39093
 11
67.5643
 21
6.4549
  0
LINE
  8
0
 10
67.5643
 20
6.4549
 11
67.6763
 21
6.51193
  0
LINE
  8
0
 10
67.6763
 20
6.51193
 11
67.7916
 21
6.56183
  0
LINE
  8
0
 10
67.7916
 20
6.56183
 11
67.9098
 21
6.60439
  0
LINE
  8
0
 10
67.9098
 20
6.60439
 11
68.0305
 21
6.63943
  0
LINE
  8
0
 10
68.0305
 20
6.63943
 11
68.1531
 21
6.66685
  0
LINE
  8
0
 10
68.1531
 20
6.66685
 11
68.2772
 21
6.68651
  0
LINE
  8
0
 10
68.2772
 20
6.68651
 11
68.4023
 21
6.69833
  0
LINE
  8
0
 10
68.4023
 20
6.69833
 11
68.5279
 21
6.70227
  0
LINE
  8
0
 10
68.5279
 20
6.70227
 11
68.6534
 21
6.69833
  0
LINE
  8
0
 10
68.6534
 20
6.69833
 11
68.7785
 21
6.68651
  0
LINE
  8
0
 10
68.7785
 20
6.68651
 11
68.9026
 21
6.66685
  0
LINE
  8
0
 10
68.9026
 20
6.66685
 11
69.0252
 21
6.63943
  0
LINE
  8
0
 10
69.0252
 20
6.63943
 11
69.1459
 21
6.60439
  0
LINE
  8
0
 10
69.1459
 20
6.60439
 11
69.2641
 21
6.56183
  0
LINE
  8
0
 10
69.2641
 20
6.56183
 11
69.3794
 21
6.51193
  0
LINE
  8
0
 10
69.3794
 20
6.51193
 11
69.4914
 21
6.4549
  0
LINE
  8
0
 10
69.4914
 20
6.4549
 11
69.5995
 21
6.39093
  0
LINE
  8
0
 10
69.5995
 20
6.39093
 11
69.7034
 21
6.32031
  0
LINE
  8
0
 10
69.7034
 20
6.32031
 11
69.8027
 21
6.2433
  0
LINE
  8
0
 10
69.8027
 20
6.2433
 11
69.897
 21
6.16022
  0
LINE
  8
0
 10
69.897
 20
6.16022
 11
69.9858
 21
6.07137
  0
LINE
  8
0
 10
69.9858
 20
6.07137
 11
70.0689
 21
5.97713
  0
LINE
  8
0
 10
70.0689
 20
5.97713
 11
70.1459
 21
5.87784
  0
LINE
  8
0
 10
70.1459
 20
5.87784
 11
70.2165
 21
5.77393
  0
LINE
  8
0
 10
70.2165
 20
5.77393
 11
70.2805
 21
5.66579
  0
LINE
  8
0
 10
70.2805
 20
5.66579
 11
70.3375
 21
5.55383
  0
LINE
  8
0
 10
70.3375
 20
5.55383
 11
70.3874
 21
5.43852
  0
LINE
  8
0
 10
70.3874
 20
5.43852
 11
70.43
 21
5.32031
  0
LINE
  8
0
 10
70.43
 20
5.32031
 11
70.465
 21
5.19966
  0
LINE
  8
0
 10
70.465
 20
5.19966
 11
70.4924
 21
5.07704
  0
LINE
  8
0
 10
70.4924
 20
5.07704
 11
70.5121
 21
4.95294
  0
LINE
  8
0
 10
70.5121
 20
4.95294
 11
70.5239
 21
4.82785
  0
LINE
  8
0
 10
70.5239
 20
4.82785
 11
70.5279
 21
4.70227
  0
LINE
  8
0
 10
70.5279
 20
4.70227
 11
70.5239
 21
4.57669
  0
LINE
  8
0
 10
70.5239
 20
4.57669
 11
70.5121
 21
4.45161
  0
LINE
  8
0
 10
70.5121
 20
4.45161
 11
70.4924
 21
4.32751
  0
LINE
  8
0
 10
70.4924
 20
4.32751
 11
70.465
 21
4.2049
  0
LINE
  8
0
 10
70.465
 20
4.2049
 11
70.43
 21
4.08424
  0
LINE
  8
0
 10
70.43
 20
4.08424
 11
70.3874
 21
3.96602
  0
LINE
  8
0
 10
70.3874
 20
3.96602
 11
70.3375
 21
3.85072
  0
LINE
  8
0
 10
70.3375
 20
3.85072
 11
70.2805
 21
3.73877
  0
LINE
  8
0
 10
70.2805
 20
3.73877
 11
70.2165
 21
3.63062
  0
LINE
  8
0
 10
70.2165
 20
3.63062
 11
70.1459
 21
3.5267
  0
LINE
  8
0
 10
70.1459
 20
3.5267
 11
70.0689
 21
3.42743
  0
LINE
  8
0
 10
70.0689
 20
3.42743
 11
69.9858
 21
3.33318
  0
LINE
  8
0
 10
69.9858
 20
3.33318
 11
69.897
 21
3.24434
  0
LINE
  8
0
 10
69.897
 20
3.24434
 11
69.8027
 21
3.16125
  0
LINE
  8
0
 10
69.8027
 20
3.16125
 11
69.7034
 21
3.08424
  0
LINE
  8
0
 10
69.7034
 20
3.08424
 11
69.5995
 21
3.01363
  0
LINE
  8
0
 10
69.5995
 20
3.01363
 11
69.4914
 21
2.94966
  0
LINE
  8
0
 10
69.4914
 20
2.94966
 11
69.3794
 21
2.89262
  0
LINE
  8
0
 10
69.3794
 20
2.89262
 11
69.2641
 21
2.84273
  0
LINE
  8
0
 10
69.2641
 20
2.84273
 11
69.1459
 21
2.80016
  0
LINE
  8
0
 10
69.1459
 20
2.80016
 11
69.0252
 21
2.76511
  0
LINE
  8
0
 10
69.0252
 20
2.76511
 11
68.9026
 21
2.7377
  0
LINE
  8
0
 10
68.9026
 20
2.7377
 11
68.7785
 21
2.71805
  0
LINE
  8
0
 10
68.7785
 20
2.71805
 11
68.6534
 21
2.70622
  0
LINE
  8
0
 10
68.6534
 20
2.70622
 11
68.5279
 21
2.70227
  0
LINE
  8
0
 10
68.5279
 20
2.70227
 11
68.4023
 21
2.70622
  0
ENDSEC
  0
SECTION
  2
OBJECTS
  0
DICTIONARY
  0
ENDSEC
  0
EOF
