  0
SECTION
  2
BLOCKS
  0
ENDSEC
  0
SECTION
  2
ENTITIES
  0
LINE
  8
0
 10
0
 20
230.826
 11
-75
 21
0
  0
LINE
  8
0
 10
-75
 20
0
 11
75
 21
0
  0
LINE
  8
0
 10
75
 20
0
 11
0
 21
230.826
  0
LINE
  8
0
 10
-0.12558
 20
212.83
 11
-0.250656
 21
212.842
  0
LINE
  8
0
 10
-0.250656
 20
212.842
 11
-0.374756
 21
212.862
  0
LINE
  8
0
 10
-0.374756
 20
212.862
 11
-0.497375
 21
212.889
  0
LINE
  8
0
 10
-0.497375
 20
212.889
 11
-0.618027
 21
212.924
  0
LINE
  8
0
 10
-0.618027
 20
212.924
 11
-0.736237
 21
212.967
  0
LINE
  8
0
 10
-0.736237
 20
212.967
 11
-0.851547
 21
213.017
  0
LINE
  8
0
 10
-0.851547
 20
213.017
 11
-0.963501
 21
213.074
  0
LINE
  8
0
 10
-0.963501
 20
213.074
 11
-1.07164
 21
213.138
  0
LINE
  8
0
 10
-1.07164
 20
213.138
 11
-1.17557
 21
213.208
  0
LINE
  8
0
 10
-1.17557
 20
213.208
 11
-1.27484
 21
213.285
  0
LINE
  8
0
 10
-1.27484
 20
213.285
 11
-1.36908
 21
213.368
  0
LINE
  8
0
 10
-1.36908
 20
213.368
 11
-1.45793
 21
213.457
  0
LINE
  8
0
 10
-1.45793
 20
213.457
 11
-1.54102
 21
213.551
  0
LINE
  8
0
 10
-1.54102
 20
213.551
 11
-1.61803
 21
213.651
  0
LINE
  8
0
 10
-1.61803
 20
213.651
 11
-1.68864
 21
213.755
  0
LINE
  8
0
 10
-1.68864
 20
213.755
 11
-1.75261
 21
213.863
  0
LINE
  8
0
 10
-1.75261
 20
213.863
 11
-1.80965
 21
213.975
  0
LINE
  8
0
 10
-1.80965
 20
213.975
 11
-1.85954
 21
214.09
  0
LINE
  8
0
 10
-1.85954
 20
214.09
 11
-1.9021
 21
214.208
  0
LINE
  8
0
 10
-1.9021
 20
214.208
 11
-1.93716
 21
214.329
  0
LINE
  8
0
 10
-1.93716
 20
214.329
 11
-1.96457
 21
214.451
  0
LINE
  8
0
 10
-1.96457
 20
214.451
 11
-1.98422
 21
214.576
  0
LINE
  8
0
 10
-1.98422
 20
214.576
 11
-1.99605
 21
214.701
  0
LINE
  8
0
 10
-1.99605
 20
214.701
 11
-2
 21
214.826
  0
LINE
  8
0
 10
-2
 20
214.826
 11
-1.99605
 21
214.952
  0
LINE
  8
0
 10
-1.99605
 20
214.952
 11
-1.98422
 21
215.077
  0
LINE
  8
0
 10
-1.98422
 20
215.077
 11
-1.96457
 21
215.201
  0
LINE
  8
0
 10
-1.96457
 20
215.201
 11
-1.93716
 21
215.324
  0
LINE
  8
0
 10
-1.93716
 20
215.324
 11
-1.9021
 21
215.444
  0
LINE
  8
0
 10
-1.9021
 20
215.444
 11
-1.85954
 21
215.562
  0
LINE
  8
0
 10
-1.85954
 20
215.562
 11
-1.80965
 21
215.678
  0
LINE
  8
0
 10
-1.80965
 20
215.678
 11
-1.75261
 21
215.79
  0
LINE
  8
0
 10
-1.75261
 20
215.79
 11
-1.68864
 21
215.898
  0
LINE
  8
0
 10
-1.68864
 20
215.898
 11
-1.61803
 21
216.002
  0
LINE
  8
0
 10
-1.61803
 20
216.002
 11
-1.54102
 21
216.101
  0
LINE
  8
0
 10
-1.54102
 20
216.101
 11
-1.45793
 21
216.195
  0
LINE
  8
0
 10
-1.45793
 20
216.195
 11
-1.36908
 21
216.284
  0
LINE
  8
0
 10
-1.36908
 20
216.284
 11
-1.27484
 21
216.367
  0
LINE
  8
0
 10
-1.27484
 20
216.367
 11
-1.17557
 21
216.444
  0
LINE
  8
0
 10
-1.17557
 20
216.444
 11
-1.07164
 21
216.515
  0
LINE
  8
0
 10
-1.07164
 20
216.515
 11
-0.963501
 21
216.579
  0
LINE
  8
0
 10
-0.963501
 20
216.579
 11
-0.851547
 21
216.636
  0
LINE
  8
0
 10
-0.851547
 20
216.636
 11
-0.736237
 21
216.686
  0
LINE
  8
0
 10
-0.736237
 20
216.686
 11
-0.618027
 21
216.728
  0
LINE
  8
0
 10
-0.618027
 20
216.728
 11
-0.497375
 21
216.763
  0
LINE
  8
0
 10
-0.497375
 20
216.763
 11
-0.374756
 21
216.791
  0
LINE
  8
0
 10
-0.374756
 20
216.791
 11
-0.250656
 21
216.81
  0
LINE
  8
0
 10
-0.250656
 20
216.81
 11
-0.12558
 21
216.822
  0
LINE
  8
0
 10
-0.12558
 20
216.822
 11
0
 21
216.826
  0
LINE
  8
0
 10
0
 20
216.826
 11
0.12558
 21
216.822
  0
LINE
  8
0
 10
0.12558
 20
216.822
 11
0.250656
 21
216.81
  0
LINE
  8
0
 10
0.250656
 20
216.81
 11
0.374756
 21
216.791
  0
LINE
  8
0
 10
0.374756
 20
216.791
 11
0.497375
 21
216.763
  0
LINE
  8
0
 10
0.497375
 20
216.763
 11
0.618027
 21
216.728
  0
LINE
  8
0
 10
0.618027
 20
216.728
 11
0.736237
 21
216.686
  0
LINE
  8
0
 10
0.736237
 20
216.686
 11
0.851547
 21
216.636
  0
LINE
  8
0
 10
0.851547
 20
216.636
 11
0.963501
 21
216.579
  0
LINE
  8
0
 10
0.963501
 20
216.579
 11
1.07164
 21
216.515
  0
LINE
  8
0
 10
1.07164
 20
216.515
 11
1.17557
 21
216.444
  0
LINE
  8
0
 10
1.17557
 20
216.444
 11
1.27484
 21
216.367
  0
LINE
  8
0
 10
1.27484
 20
216.367
 11
1.36908
 21
216.284
  0
LINE
  8
0
 10
1.36908
 20
216.284
 11
1.45793
 21
216.195
  0
LINE
  8
0
 10
1.45793
 20
216.195
 11
1.54102
 21
216.101
  0
LINE
  8
0
 10
1.54102
 20
216.101
 11
1.61803
 21
216.002
  0
LINE
  8
0
 10
1.61803
 20
216.002
 11
1.68864
 21
215.898
  0
LINE
  8
0
 10
1.68864
 20
215.898
 11
1.75261
 21
215.79
  0
LINE
  8
0
 10
1.75261
 20
215.79
 11
1.80965
 21
215.678
  0
LINE
  8
0
 10
1.80965
 20
215.678
 11
1.85954
 21
215.562
  0
LINE
  8
0
 10
1.85954
 20
215.562
 11
1.9021
 21
215.444
  0
LINE
  8
0
 10
1.9021
 20
215.444
 11
1.93716
 21
215.324
  0
LINE
  8
0
 10
1.93716
 20
215.324
 11
1.96457
 21
215.201
  0
LINE
  8
0
 10
1.96457
 20
215.201
 11
1.98422
 21
215.077
  0
LINE
  8
0
 10
1.98422
 20
215.077
 11
1.99605
 21
214.952
  0
LINE
  8
0
 10
1.99605
 20
214.952
 11
2
 21
214.826
  0
LINE
  8
0
 10
2
 20
214.826
 11
1.99605
 21
214.701
  0
LINE
  8
0
 10
1.99605
 20
214.701
 11
1.98422
 21
214.576
  0
LINE
  8
0
 10
1.98422
 20
214.576
 11
1.96457
 21
214.451
  0
LINE
  8
0
 10
1.96457
 20
214.451
 11
1.93716
 21
214.329
  0
LINE
  8
0
 10
1.93716
 20
214.329
 11
1.9021
 21
214.208
  0
LINE
  8
0
 10
1.9021
 20
214.208
 11
1.85954
 21
214.09
  0
LINE
  8
0
 10
1.85954
 20
214.09
 11
1.80965
 21
213.975
  0
LINE
  8
0
 10
1.80965
 20
213.975
 11
1.75261
 21
213.863
  0
LINE
  8
0
 10
1.75261
 20
213.863
 11
1.68864
 21
213.755
  0
LINE
  8
0
 10
1.68864
 20
213.755
 11
1.61803
 21
213.651
  0
LINE
  8
0
 10
1.61803
 20
213.651
 11
1.54102
 21
213.551
  0
LINE
  8
0
 10
1.54102
 20
213.551
 11
1.45793
 21
213.457
  0
LINE
  8
0
 10
1.45793
 20
213.457
 11
1.36908
 21
213.368
  0
LINE
  8
0
 10
1.36908
 20
213.368
 11
1.27484
 21
213.285
  0
LINE
  8
0
 10
1.27484
 20
213.285
 11
1.17557
 21
213.208
  0
LINE
  8
0
 10
1.17557
 20
213.208
 11
1.07164
 21
213.138
  0
LINE
  8
0
 10
1.07164
 20
213.138
 11
0.963501
 21
213.074
  0
LINE
  8
0
 10
0.963501
 20
213.074
 11
0.851547
 21
213.017
  0
LINE
  8
0
 10
0.851547
 20
213.017
 11
0.736237
 21
212.967
  0
LINE
  8
0
 10
0.736237
 20
212.967
 11
0.618027
 21
212.924
  0
LINE
  8
0
 10
0.618027
 20
212.924
 11
0.497375
 21
212.889
  0
LINE
  8
0
 10
0.497375
 20
212.889
 11
0.374756
 21
212.862
  0
LINE
  8
0
 10
0.374756
 20
212.862
 11
0.250656
 21
212.842
  0
LINE
  8
0
 10
0.250656
 20
212.842
 11
0.12558
 21
212.83
  0
LINE
  8
0
 10
0.12558
 20
212.83
 11
0
 21
212.826
  0
LINE
  8
0
 10
0
 20
212.826
 11
-0.12558
 21
212.83
  0
LINE
  8
0
 10
-0.401031
 20
190.759
 11
-0.00320435
 21
191.984
  0
LINE
  8
0
 10
-0.00320435
 20
191.984
 11
-0.00320435
 21
190.012
  0
LINE
  8
0
 10
-0.00320435
 20
190.012
 11
-0.401031
 21
190.759
  0
LINE
  8
0
 10
0.0123596
 20
190.003
 11
0.553085
 21
190.291
  0
LINE
  8
0
 10
0.553085
 20
190.291
 11
0.646667
 21
190.003
  0
LINE
  8
0
 10
0.646667
 20
190.003
 11
0.0123596
 21
190.003
  0
LINE
  8
0
 10
-0.648758
 20
189.997
 11
-0.0123596
 21
189.997
  0
LINE
  8
0
 10
-0.0123596
 20
189.997
 11
-0.781952
 21
189.587
  0
LINE
  8
0
 10
-0.781952
 20
189.587
 11
-0.648758
 21
189.997
  0
LINE
  8
0
 10
0.00320435
 20
185.421
 11
0.00320435
 21
189.988
  0
LINE
  8
0
 10
0.00320435
 20
189.988
 11
0.495758
 21
189.063
  0
LINE
  8
0
 10
0.495758
 20
189.063
 11
0.96405
 21
188.275
  0
LINE
  8
0
 10
0.96405
 20
188.275
 11
1.40121
 21
187.635
  0
LINE
  8
0
 10
1.40121
 20
187.635
 11
1.42577
 21
187.605
  0
LINE
  8
0
 10
1.42577
 20
187.605
 11
3.05504
 21
182.591
  0
LINE
  8
0
 10
3.05504
 20
182.591
 11
2.78549
 21
182.567
  0
LINE
  8
0
 10
2.78549
 20
182.567
 11
1.56921
 21
182.543
  0
LINE
  8
0
 10
1.56921
 20
182.543
 11
0.00320435
 21
185.421
  0
LINE
  8
0
 10
-3.05511
 20
180.922
 11
-3.56595
 21
181.019
  0
LINE
  8
0
 10
-3.56595
 20
181.019
 11
-1.89763
 21
186.153
  0
LINE
  8
0
 10
-1.89763
 20
186.153
 11
-1.46713
 21
186.055
  0
LINE
  8
0
 10
-1.46713
 20
186.055
 11
-1.46713
 21
182.435
  0
LINE
  8
0
 10
-1.46713
 20
182.435
 11
-2.20551
 21
180.881
  0
LINE
  8
0
 10
-2.20551
 20
180.881
 11
-3.05511
 21
180.922
  0
LINE
  8
0
 10
-2.98096
 20
176.519
 11
-4.53586
 21
178.034
  0
LINE
  8
0
 10
-4.53586
 20
178.034
 11
-4.16002
 21
179.19
  0
LINE
  8
0
 10
-4.16002
 20
179.19
 11
-1.47171
 21
176.519
  0
LINE
  8
0
 10
-1.47171
 20
176.519
 11
-2.98096
 21
176.519
  0
LINE
  8
0
 10
4.17059
 20
179.158
 11
4.61188
 21
177.8
  0
LINE
  8
0
 10
4.61188
 20
177.8
 11
4.19357
 21
177.704
  0
LINE
  8
0
 10
4.19357
 20
177.704
 11
3.64288
 21
177.523
  0
LINE
  8
0
 10
3.64288
 20
177.523
 11
3.0217
 21
177.27
  0
LINE
  8
0
 10
3.0217
 20
177.27
 11
2.3291
 21
176.943
  0
LINE
  8
0
 10
2.3291
 20
176.943
 11
1.58386
 21
176.554
  0
LINE
  8
0
 10
1.58386
 20
176.554
 11
4.17059
 21
179.158
  0
LINE
  8
0
 10
1.47171
 20
173.481
 11
2.98096
 21
173.481
  0
LINE
  8
0
 10
2.98096
 20
173.481
 11
7.41966
 21
169.158
  0
LINE
  8
0
 10
7.41966
 20
169.158
 11
8.18109
 21
166.815
  0
LINE
  8
0
 10
8.18109
 20
166.815
 11
1.47171
 21
173.481
  0
LINE
  8
0
 10
-6.05315
 20
173.364
 11
-6.06583
 21
173.06
  0
LINE
  8
0
 10
-6.06583
 20
173.06
 11
-6.01089
 21
172.732
  0
LINE
  8
0
 10
-6.01089
 20
172.732
 11
-5.88501
 21
172.478
  0
LINE
  8
0
 10
-5.88501
 20
172.478
 11
-5.68863
 21
172.296
  0
LINE
  8
0
 10
-5.68863
 20
172.296
 11
-5.42084
 21
172.187
  0
LINE
  8
0
 10
-5.42084
 20
172.187
 11
-5.08209
 21
172.15
  0
LINE
  8
0
 10
-5.08209
 20
172.15
 11
-4.67285
 21
172.187
  0
LINE
  8
0
 10
-4.67285
 20
172.187
 11
-4.19357
 21
172.296
  0
LINE
  8
0
 10
-4.19357
 20
172.296
 11
-3.64288
 21
172.477
  0
LINE
  8
0
 10
-3.64288
 20
172.477
 11
-3.0217
 21
172.73
  0
LINE
  8
0
 10
-3.0217
 20
172.73
 11
-2.3291
 21
173.057
  0
LINE
  8
0
 10
-2.3291
 20
173.057
 11
-1.58386
 21
173.446
  0
LINE
  8
0
 10
-1.58386
 20
173.446
 11
-8.18538
 21
166.801
  0
LINE
  8
0
 10
-8.18538
 20
166.801
 11
-6.05315
 21
173.364
  0
LINE
  8
0
 10
0.0123596
 20
160.003
 11
0.937042
 21
160.496
  0
LINE
  8
0
 10
0.937042
 20
160.496
 11
1.72485
 21
160.964
  0
LINE
  8
0
 10
1.72485
 20
160.964
 11
2.36481
 21
161.401
  0
LINE
  8
0
 10
2.36481
 20
161.401
 11
2.85736
 21
161.807
  0
LINE
  8
0
 10
2.85736
 20
161.807
 11
3.2016
 21
162.183
  0
LINE
  8
0
 10
3.2016
 20
162.183
 11
3.39844
 21
162.528
  0
LINE
  8
0
 10
3.39844
 20
162.528
 11
3.4465
 21
162.842
  0
LINE
  8
0
 10
3.4465
 20
162.842
 11
3.34579
 21
163.126
  0
LINE
  8
0
 10
3.34579
 20
163.126
 11
3.09723
 21
163.378
  0
LINE
  8
0
 10
3.09723
 20
163.378
 11
2.70081
 21
163.598
  0
LINE
  8
0
 10
2.70081
 20
163.598
 11
2.15652
 21
163.788
  0
LINE
  8
0
 10
2.15652
 20
163.788
 11
1.46713
 21
163.945
  0
LINE
  8
0
 10
1.46713
 20
163.945
 11
1.46713
 21
167.565
  0
LINE
  8
0
 10
1.46713
 20
167.565
 11
2.20551
 21
169.119
  0
LINE
  8
0
 10
2.20551
 20
169.119
 11
3.05511
 21
169.078
  0
LINE
  8
0
 10
3.05511
 20
169.078
 11
3.83148
 21
168.931
  0
LINE
  8
0
 10
3.83148
 20
168.931
 11
4.5314
 21
168.676
  0
LINE
  8
0
 10
4.5314
 20
168.676
 11
5.15762
 21
168.315
  0
LINE
  8
0
 10
5.15762
 20
168.315
 11
5.70786
 21
167.847
  0
LINE
  8
0
 10
5.70786
 20
167.847
 11
6.18301
 21
167.271
  0
LINE
  8
0
 10
6.18301
 20
167.271
 11
6.5831
 21
166.588
  0
LINE
  8
0
 10
6.5831
 20
166.588
 11
6.90857
 21
165.798
  0
LINE
  8
0
 10
6.90857
 20
165.798
 11
7.15851
 21
164.901
  0
LINE
  8
0
 10
7.15851
 20
164.901
 11
7.33337
 21
163.897
  0
LINE
  8
0
 10
7.33337
 20
163.897
 11
7.43317
 21
162.785
  0
LINE
  8
0
 10
7.43317
 20
162.785
 11
7.45743
 21
161.569
  0
LINE
  8
0
 10
7.45743
 20
161.569
 11
4.57901
 21
160.003
  0
LINE
  8
0
 10
4.57901
 20
160.003
 11
0.0123596
 21
160.003
  0
LINE
  8
0
 10
-0.495758
 20
160.937
 11
-0.96405
 21
161.725
  0
LINE
  8
0
 10
-0.96405
 20
161.725
 11
-1.40121
 21
162.365
  0
LINE
  8
0
 10
-1.40121
 20
162.365
 11
-1.80725
 21
162.857
  0
LINE
  8
0
 10
-1.80725
 20
162.857
 11
-2.18262
 21
163.202
  0
LINE
  8
0
 10
-2.18262
 20
163.202
 11
-2.52777
 21
163.398
  0
LINE
  8
0
 10
-2.52777
 20
163.398
 11
-2.84225
 21
163.447
  0
LINE
  8
0
 10
-2.84225
 20
163.447
 11
-3.12607
 21
163.346
  0
LINE
  8
0
 10
-3.12607
 20
163.346
 11
-3.37784
 21
163.097
  0
LINE
  8
0
 10
-3.37784
 20
163.097
 11
-3.59848
 21
162.701
  0
LINE
  8
0
 10
-3.59848
 20
162.701
 11
-3.78754
 21
162.157
  0
LINE
  8
0
 10
-3.78754
 20
162.157
 11
-3.94547
 21
161.467
  0
LINE
  8
0
 10
-3.94547
 20
161.467
 11
-7.56409
 21
161.467
  0
LINE
  8
0
 10
-7.56409
 20
161.467
 11
-9.11911
 21
162.206
  0
LINE
  8
0
 10
-9.11911
 20
162.206
 11
-9.07837
 21
163.055
  0
LINE
  8
0
 10
-9.07837
 20
163.055
 11
-8.93097
 21
163.831
  0
LINE
  8
0
 10
-8.93097
 20
163.831
 11
-8.67645
 21
164.531
  0
LINE
  8
0
 10
-8.67645
 20
164.531
 11
-8.31528
 21
165.157
  0
LINE
  8
0
 10
-8.31528
 20
165.157
 11
-7.84698
 21
165.707
  0
LINE
  8
0
 10
-7.84698
 20
165.707
 11
-7.27112
 21
166.183
  0
LINE
  8
0
 10
-7.27112
 20
166.183
 11
-6.58813
 21
166.583
  0
LINE
  8
0
 10
-6.58813
 20
166.583
 11
-5.79803
 21
166.909
  0
LINE
  8
0
 10
-5.79803
 20
166.909
 11
-4.90128
 21
167.159
  0
LINE
  8
0
 10
-4.90128
 20
167.159
 11
-3.8974
 21
167.333
  0
LINE
  8
0
 10
-3.8974
 20
167.333
 11
-2.78549
 21
167.433
  0
LINE
  8
0
 10
-2.78549
 20
167.433
 11
-1.56921
 21
167.457
  0
LINE
  8
0
 10
-1.56921
 20
167.457
 11
-0.00320435
 21
164.579
  0
LINE
  8
0
 10
-0.00320435
 20
164.579
 11
-0.00320435
 21
160.012
  0
LINE
  8
0
 10
-0.00320435
 20
160.012
 11
-0.495758
 21
160.937
  0
LINE
  8
0
 10
-3.05511
 20
150.922
 11
-3.83148
 21
151.069
  0
LINE
  8
0
 10
-3.83148
 20
151.069
 11
-4.5314
 21
151.324
  0
LINE
  8
0
 10
-4.5314
 20
151.324
 11
-5.15762
 21
151.685
  0
LINE
  8
0
 10
-5.15762
 20
151.685
 11
-5.70786
 21
152.153
  0
LINE
  8
0
 10
-5.70786
 20
152.153
 11
-6.18301
 21
152.729
  0
LINE
  8
0
 10
-6.18301
 20
152.729
 11
-6.5831
 21
153.412
  0
LINE
  8
0
 10
-6.5831
 20
153.412
 11
-6.90857
 21
154.202
  0
LINE
  8
0
 10
-6.90857
 20
154.202
 11
-7.15851
 21
155.099
  0
LINE
  8
0
 10
-7.15851
 20
155.099
 11
-7.33337
 21
156.103
  0
LINE
  8
0
 10
-7.33337
 20
156.103
 11
-7.43317
 21
157.215
  0
LINE
  8
0
 10
-7.43317
 20
157.215
 11
-7.45743
 21
158.431
  0
LINE
  8
0
 10
-7.45743
 20
158.431
 11
-4.57901
 21
159.997
  0
LINE
  8
0
 10
-4.57901
 20
159.997
 11
-0.0123596
 21
159.997
  0
LINE
  8
0
 10
-0.0123596
 20
159.997
 11
-0.937042
 21
159.504
  0
LINE
  8
0
 10
-0.937042
 20
159.504
 11
-1.72485
 21
159.036
  0
LINE
  8
0
 10
-1.72485
 20
159.036
 11
-2.36481
 21
158.599
  0
LINE
  8
0
 10
-2.36481
 20
158.599
 11
-2.85736
 21
158.193
  0
LINE
  8
0
 10
-2.85736
 20
158.193
 11
-3.2016
 21
157.817
  0
LINE
  8
0
 10
-3.2016
 20
157.817
 11
-3.39844
 21
157.472
  0
LINE
  8
0
 10
-3.39844
 20
157.472
 11
-3.4465
 21
157.158
  0
LINE
  8
0
 10
-3.4465
 20
157.158
 11
-3.34579
 21
156.874
  0
LINE
  8
0
 10
-3.34579
 20
156.874
 11
-3.09723
 21
156.622
  0
LINE
  8
0
 10
-3.09723
 20
156.622
 11
-2.70081
 21
156.402
  0
LINE
  8
0
 10
-2.70081
 20
156.402
 11
-2.15652
 21
156.212
  0
LINE
  8
0
 10
-2.15652
 20
156.212
 11
-1.46713
 21
156.055
  0
LINE
  8
0
 10
-1.46713
 20
156.055
 11
-1.46713
 21
152.435
  0
LINE
  8
0
 10
-1.46713
 20
152.435
 11
-2.20551
 21
150.881
  0
LINE
  8
0
 10
-2.20551
 20
150.881
 11
-3.05511
 21
150.922
  0
LINE
  8
0
 10
0.00320435
 20
155.421
 11
0.00320435
 21
159.988
  0
LINE
  8
0
 10
0.00320435
 20
159.988
 11
0.495758
 21
159.063
  0
LINE
  8
0
 10
0.495758
 20
159.063
 11
0.96405
 21
158.275
  0
LINE
  8
0
 10
0.96405
 20
158.275
 11
1.40121
 21
157.635
  0
LINE
  8
0
 10
1.40121
 20
157.635
 11
1.80725
 21
157.143
  0
LINE
  8
0
 10
1.80725
 20
157.143
 11
2.18262
 21
156.798
  0
LINE
  8
0
 10
2.18262
 20
156.798
 11
2.52777
 21
156.602
  0
LINE
  8
0
 10
2.52777
 20
156.602
 11
2.84225
 21
156.553
  0
LINE
  8
0
 10
2.84225
 20
156.553
 11
3.12607
 21
156.654
  0
LINE
  8
0
 10
3.12607
 20
156.654
 11
3.37784
 21
156.903
  0
LINE
  8
0
 10
3.37784
 20
156.903
 11
3.59848
 21
157.299
  0
LINE
  8
0
 10
3.59848
 20
157.299
 11
3.78754
 21
157.843
  0
LINE
  8
0
 10
3.78754
 20
157.843
 11
3.94547
 21
158.533
  0
LINE
  8
0
 10
3.94547
 20
158.533
 11
7.56409
 21
158.533
  0
LINE
  8
0
 10
7.56409
 20
158.533
 11
9.11911
 21
157.794
  0
LINE
  8
0
 10
9.11911
 20
157.794
 11
9.07837
 21
156.945
  0
LINE
  8
0
 10
9.07837
 20
156.945
 11
8.93097
 21
156.169
  0
LINE
  8
0
 10
8.93097
 20
156.169
 11
8.67645
 21
155.469
  0
LINE
  8
0
 10
8.67645
 20
155.469
 11
8.31482
 21
154.842
  0
LINE
  8
0
 10
8.31482
 20
154.842
 11
7.84653
 21
154.292
  0
LINE
  8
0
 10
7.84653
 20
154.292
 11
7.27112
 21
153.817
  0
LINE
  8
0
 10
7.27112
 20
153.817
 11
6.58813
 21
153.417
  0
LINE
  8
0
 10
6.58813
 20
153.417
 11
5.79803
 21
153.091
  0
LINE
  8
0
 10
5.79803
 20
153.091
 11
4.90128
 21
152.841
  0
LINE
  8
0
 10
4.90128
 20
152.841
 11
3.8974
 21
152.667
  0
LINE
  8
0
 10
3.8974
 20
152.667
 11
2.78549
 21
152.567
  0
LINE
  8
0
 10
2.78549
 20
152.567
 11
1.56921
 21
152.543
  0
LINE
  8
0
 10
1.56921
 20
152.543
 11
0.00320435
 21
155.421
  0
LINE
  8
0
 10
6.06583
 20
146.94
 11
6.01089
 21
147.268
  0
LINE
  8
0
 10
6.01089
 20
147.268
 11
5.88501
 21
147.522
  0
LINE
  8
0
 10
5.88501
 20
147.522
 11
5.68863
 21
147.704
  0
LINE
  8
0
 10
5.68863
 20
147.704
 11
5.42084
 21
147.813
  0
LINE
  8
0
 10
5.42084
 20
147.813
 11
5.08209
 21
147.85
  0
LINE
  8
0
 10
5.08209
 20
147.85
 11
4.67285
 21
147.813
  0
LINE
  8
0
 10
4.67285
 20
147.813
 11
4.19357
 21
147.704
  0
LINE
  8
0
 10
4.19357
 20
147.704
 11
3.64288
 21
147.523
  0
LINE
  8
0
 10
3.64288
 20
147.523
 11
3.0217
 21
147.27
  0
LINE
  8
0
 10
3.0217
 20
147.27
 11
2.3291
 21
146.943
  0
LINE
  8
0
 10
2.3291
 20
146.943
 11
1.58386
 21
146.554
  0
LINE
  8
0
 10
1.58386
 20
146.554
 11
11.516
 21
156.551
  0
LINE
  8
0
 10
11.516
 20
156.551
 11
11.8934
 21
155.389
  0
LINE
  8
0
 10
11.8934
 20
155.389
 11
9.11819
 21
152.539
  0
LINE
  8
0
 10
9.11819
 20
152.539
 11
10.0804
 21
151.585
  0
LINE
  8
0
 10
10.0804
 20
151.585
 11
10.8192
 21
150.715
  0
LINE
  8
0
 10
10.8192
 20
150.715
 11
11.337
 21
149.929
  0
LINE
  8
0
 10
11.337
 20
149.929
 11
11.6331
 21
149.224
  0
LINE
  8
0
 10
11.6331
 20
149.224
 11
11.7087
 21
148.601
  0
LINE
  8
0
 10
11.7087
 20
148.601
 11
11.5636
 21
148.062
  0
LINE
  8
0
 10
11.5636
 20
148.062
 11
11.1974
 21
147.605
  0
LINE
  8
0
 10
11.1974
 20
147.605
 11
10.6091
 21
147.228
  0
LINE
  8
0
 10
10.6091
 20
147.228
 11
9.80026
 21
146.935
  0
LINE
  8
0
 10
9.80026
 20
146.935
 11
8.77029
 21
146.723
  0
LINE
  8
0
 10
8.77029
 20
146.723
 11
7.51831
 21
146.593
  0
LINE
  8
0
 10
7.51831
 20
146.593
 11
6.04935
 21
146.545
  0
LINE
  8
0
 10
6.04935
 20
146.545
 11
6.06583
 21
146.94
  0
LINE
  8
0
 10
-2.98096
 20
146.519
 11
-7.46063
 21
150.882
  0
LINE
  8
0
 10
-7.46063
 20
150.882
 11
-8.41507
 21
149.92
  0
LINE
  8
0
 10
-8.41507
 20
149.92
 11
-9.28482
 21
149.181
  0
LINE
  8
0
 10
-9.28482
 20
149.181
 11
-10.0713
 21
148.663
  0
LINE
  8
0
 10
-10.0713
 20
148.663
 11
-10.7758
 21
148.367
  0
LINE
  8
0
 10
-10.7758
 20
148.367
 11
-11.3988
 21
148.291
  0
LINE
  8
0
 10
-11.3988
 20
148.291
 11
-11.938
 21
148.437
  0
LINE
  8
0
 10
-11.938
 20
148.437
 11
-12.3953
 21
148.803
  0
LINE
  8
0
 10
-12.3953
 20
148.803
 11
-12.7721
 21
149.391
  0
LINE
  8
0
 10
-12.7721
 20
149.391
 11
-13.0655
 21
150.2
  0
LINE
  8
0
 10
-13.0655
 20
150.2
 11
-13.2648
 21
151.168
  0
LINE
  8
0
 10
-13.2648
 20
151.168
 11
-11.5288
 21
156.511
  0
LINE
  8
0
 10
-11.5288
 20
156.511
 11
-1.47171
 21
146.519
  0
LINE
  8
0
 10
-1.47171
 20
146.519
 11
-2.98096
 21
146.519
  0
LINE
  8
0
 10
1.47171
 20
143.481
 11
2.98096
 21
143.481
  0
LINE
  8
0
 10
2.98096
 20
143.481
 11
7.46063
 21
139.118
  0
LINE
  8
0
 10
7.46063
 20
139.118
 11
8.41507
 21
140.08
  0
LINE
  8
0
 10
8.41507
 20
140.08
 11
9.28482
 21
140.819
  0
LINE
  8
0
 10
9.28482
 20
140.819
 11
10.0713
 21
141.337
  0
LINE
  8
0
 10
10.0713
 20
141.337
 11
10.7758
 21
141.633
  0
LINE
  8
0
 10
10.7758
 20
141.633
 11
11.3988
 21
141.709
  0
LINE
  8
0
 10
11.3988
 20
141.709
 11
11.938
 21
141.563
  0
LINE
  8
0
 10
11.938
 20
141.563
 11
12.3953
 21
141.197
  0
LINE
  8
0
 10
12.3953
 20
141.197
 11
12.7721
 21
140.609
  0
LINE
  8
0
 10
12.7721
 20
140.609
 11
13.0655
 21
139.8
  0
LINE
  8
0
 10
13.0655
 20
139.8
 11
13.2774
 21
138.77
  0
LINE
  8
0
 10
13.2774
 20
138.77
 11
13.407
 21
137.518
  0
LINE
  8
0
 10
13.407
 20
137.518
 11
13.455
 21
136.049
  0
LINE
  8
0
 10
13.455
 20
136.049
 11
13.0595
 21
136.066
  0
LINE
  8
0
 10
13.0595
 20
136.066
 11
12.7322
 21
136.011
  0
LINE
  8
0
 10
12.7322
 20
136.011
 11
12.4777
 21
135.885
  0
LINE
  8
0
 10
12.4777
 20
135.885
 11
12.2955
 21
135.689
  0
LINE
  8
0
 10
12.2955
 20
135.689
 11
12.187
 21
135.421
  0
LINE
  8
0
 10
12.187
 20
135.421
 11
12.15
 21
135.082
  0
LINE
  8
0
 10
12.15
 20
135.082
 11
12.1866
 21
134.673
  0
LINE
  8
0
 10
12.1866
 20
134.673
 11
12.2955
 21
134.194
  0
LINE
  8
0
 10
12.2955
 20
134.194
 11
12.4768
 21
133.643
  0
LINE
  8
0
 10
12.4768
 20
133.643
 11
12.7304
 21
133.022
  0
LINE
  8
0
 10
12.7304
 20
133.022
 11
13.0568
 21
132.329
  0
LINE
  8
0
 10
13.0568
 20
132.329
 11
13.4459
 21
131.584
  0
LINE
  8
0
 10
13.4459
 20
131.584
 11
1.47171
 21
143.481
  0
LINE
  8
0
 10
-13.4807
 20
132.981
 11
-9.11819
 21
137.461
  0
LINE
  8
0
 10
-9.11819
 20
137.461
 11
-10.0804
 21
138.415
  0
LINE
  8
0
 10
-10.0804
 20
138.415
 11
-10.8192
 21
139.285
  0
LINE
  8
0
 10
-10.8192
 20
139.285
 11
-11.337
 21
140.071
  0
LINE
  8
0
 10
-11.337
 20
140.071
 11
-11.6331
 21
140.776
  0
LINE
  8
0
 10
-11.6331
 20
140.776
 11
-11.7087
 21
141.399
  0
LINE
  8
0
 10
-11.7087
 20
141.399
 11
-11.5636
 21
141.938
  0
LINE
  8
0
 10
-11.5636
 20
141.938
 11
-11.1974
 21
142.395
  0
LINE
  8
0
 10
-11.1974
 20
142.395
 11
-10.6091
 21
142.772
  0
LINE
  8
0
 10
-10.6091
 20
142.772
 11
-9.80026
 21
143.065
  0
LINE
  8
0
 10
-9.80026
 20
143.065
 11
-8.77029
 21
143.277
  0
LINE
  8
0
 10
-8.77029
 20
143.277
 11
-7.51831
 21
143.407
  0
LINE
  8
0
 10
-7.51831
 20
143.407
 11
-6.04935
 21
143.455
  0
LINE
  8
0
 10
-6.04935
 20
143.455
 11
-6.06583
 21
143.06
  0
LINE
  8
0
 10
-6.06583
 20
143.06
 11
-6.01089
 21
142.732
  0
LINE
  8
0
 10
-6.01089
 20
142.732
 11
-5.88501
 21
142.478
  0
LINE
  8
0
 10
-5.88501
 20
142.478
 11
-5.68863
 21
142.296
  0
LINE
  8
0
 10
-5.68863
 20
142.296
 11
-5.42084
 21
142.187
  0
LINE
  8
0
 10
-5.42084
 20
142.187
 11
-5.08209
 21
142.15
  0
LINE
  8
0
 10
-5.08209
 20
142.15
 11
-4.67285
 21
142.187
  0
LINE
  8
0
 10
-4.67285
 20
142.187
 11
-4.19357
 21
142.296
  0
LINE
  8
0
 10
-4.19357
 20
142.296
 11
-3.64288
 21
142.477
  0
LINE
  8
0
 10
-3.64288
 20
142.477
 11
-3.0217
 21
142.73
  0
LINE
  8
0
 10
-3.0217
 20
142.73
 11
-2.3291
 21
143.057
  0
LINE
  8
0
 10
-2.3291
 20
143.057
 11
-1.58386
 21
143.446
  0
LINE
  8
0
 10
-1.58386
 20
143.446
 11
-13.4807
 21
131.472
  0
LINE
  8
0
 10
-13.4807
 20
131.472
 11
-13.4807
 21
132.981
  0
LINE
  8
0
 10
-18.8781
 20
133.893
 11
-16.9472
 21
139.835
  0
LINE
  8
0
 10
-16.9472
 20
139.835
 11
-16.9345
 21
139.8
  0
LINE
  8
0
 10
-16.9345
 20
139.8
 11
-16.7226
 21
138.77
  0
LINE
  8
0
 10
-16.7226
 20
138.77
 11
-16.593
 21
137.518
  0
LINE
  8
0
 10
-16.593
 20
137.518
 11
-16.545
 21
136.049
  0
LINE
  8
0
 10
-16.545
 20
136.049
 11
-16.9405
 21
136.066
  0
LINE
  8
0
 10
-16.9405
 20
136.066
 11
-17.2678
 21
136.011
  0
LINE
  8
0
 10
-17.2678
 20
136.011
 11
-17.5223
 21
135.885
  0
LINE
  8
0
 10
-17.5223
 20
135.885
 11
-17.7045
 21
135.689
  0
LINE
  8
0
 10
-17.7045
 20
135.689
 11
-17.813
 21
135.421
  0
LINE
  8
0
 10
-17.813
 20
135.421
 11
-17.85
 21
135.082
  0
LINE
  8
0
 10
-17.85
 20
135.082
 11
-17.8134
 21
134.673
  0
LINE
  8
0
 10
-17.8134
 20
134.673
 11
-17.7045
 21
134.194
  0
LINE
  8
0
 10
-17.7045
 20
134.194
 11
-17.5232
 21
133.643
  0
LINE
  8
0
 10
-17.5232
 20
133.643
 11
-17.2696
 21
133.022
  0
LINE
  8
0
 10
-17.2696
 20
133.022
 11
-16.9432
 21
132.329
  0
LINE
  8
0
 10
-16.9432
 20
132.329
 11
-16.5541
 21
131.584
  0
LINE
  8
0
 10
-16.5541
 20
131.584
 11
-18.8781
 21
133.893
  0
LINE
  8
0
 10
0.0123596
 20
130.003
 11
0.937042
 21
130.496
  0
LINE
  8
0
 10
0.937042
 20
130.496
 11
1.72485
 21
130.964
  0
LINE
  8
0
 10
1.72485
 20
130.964
 11
2.36481
 21
131.401
  0
LINE
  8
0
 10
2.36481
 20
131.401
 11
2.85736
 21
131.807
  0
LINE
  8
0
 10
2.85736
 20
131.807
 11
3.2016
 21
132.183
  0
LINE
  8
0
 10
3.2016
 20
132.183
 11
3.39844
 21
132.528
  0
LINE
  8
0
 10
3.39844
 20
132.528
 11
3.4465
 21
132.842
  0
LINE
  8
0
 10
3.4465
 20
132.842
 11
3.34579
 21
133.126
  0
LINE
  8
0
 10
3.34579
 20
133.126
 11
3.09723
 21
133.378
  0
LINE
  8
0
 10
3.09723
 20
133.378
 11
2.70081
 21
133.598
  0
LINE
  8
0
 10
2.70081
 20
133.598
 11
2.15652
 21
133.788
  0
LINE
  8
0
 10
2.15652
 20
133.788
 11
1.46713
 21
133.945
  0
LINE
  8
0
 10
1.46713
 20
133.945
 11
1.46713
 21
137.565
  0
LINE
  8
0
 10
1.46713
 20
137.565
 11
2.20551
 21
139.119
  0
LINE
  8
0
 10
2.20551
 20
139.119
 11
3.05511
 21
139.078
  0
LINE
  8
0
 10
3.05511
 20
139.078
 11
3.83148
 21
138.931
  0
LINE
  8
0
 10
3.83148
 20
138.931
 11
4.5314
 21
138.676
  0
LINE
  8
0
 10
4.5314
 20
138.676
 11
5.15762
 21
138.315
  0
LINE
  8
0
 10
5.15762
 20
138.315
 11
5.70786
 21
137.847
  0
LINE
  8
0
 10
5.70786
 20
137.847
 11
6.18301
 21
137.271
  0
LINE
  8
0
 10
6.18301
 20
137.271
 11
6.5831
 21
136.588
  0
LINE
  8
0
 10
6.5831
 20
136.588
 11
6.90857
 21
135.798
  0
LINE
  8
0
 10
6.90857
 20
135.798
 11
7.15851
 21
134.901
  0
LINE
  8
0
 10
7.15851
 20
134.901
 11
7.33337
 21
133.897
  0
LINE
  8
0
 10
7.33337
 20
133.897
 11
7.43317
 21
132.785
  0
LINE
  8
0
 10
7.43317
 20
132.785
 11
7.45743
 21
131.569
  0
LINE
  8
0
 10
7.45743
 20
131.569
 11
4.57901
 21
130.003
  0
LINE
  8
0
 10
4.57901
 20
130.003
 11
0.0123596
 21
130.003
  0
LINE
  8
0
 10
-0.495758
 20
130.937
 11
-0.96405
 21
131.725
  0
LINE
  8
0
 10
-0.96405
 20
131.725
 11
-1.40121
 21
132.365
  0
LINE
  8
0
 10
-1.40121
 20
132.365
 11
-1.80725
 21
132.857
  0
LINE
  8
0
 10
-1.80725
 20
132.857
 11
-2.18262
 21
133.202
  0
LINE
  8
0
 10
-2.18262
 20
133.202
 11
-2.52777
 21
133.398
  0
LINE
  8
0
 10
-2.52777
 20
133.398
 11
-2.84225
 21
133.447
  0
LINE
  8
0
 10
-2.84225
 20
133.447
 11
-3.12607
 21
133.346
  0
LINE
  8
0
 10
-3.12607
 20
133.346
 11
-3.37784
 21
133.097
  0
LINE
  8
0
 10
-3.37784
 20
133.097
 11
-3.59848
 21
132.701
  0
LINE
  8
0
 10
-3.59848
 20
132.701
 11
-3.78754
 21
132.157
  0
LINE
  8
0
 10
-3.78754
 20
132.157
 11
-3.94547
 21
131.467
  0
LINE
  8
0
 10
-3.94547
 20
131.467
 11
-7.56409
 21
131.467
  0
LINE
  8
0
 10
-7.56409
 20
131.467
 11
-9.11911
 21
132.206
  0
LINE
  8
0
 10
-9.11911
 20
132.206
 11
-9.07837
 21
133.055
  0
LINE
  8
0
 10
-9.07837
 20
133.055
 11
-8.93097
 21
133.831
  0
LINE
  8
0
 10
-8.93097
 20
133.831
 11
-8.67645
 21
134.531
  0
LINE
  8
0
 10
-8.67645
 20
134.531
 11
-8.31528
 21
135.157
  0
LINE
  8
0
 10
-8.31528
 20
135.157
 11
-7.84698
 21
135.707
  0
LINE
  8
0
 10
-7.84698
 20
135.707
 11
-7.27112
 21
136.183
  0
LINE
  8
0
 10
-7.27112
 20
136.183
 11
-6.58813
 21
136.583
  0
LINE
  8
0
 10
-6.58813
 20
136.583
 11
-5.79803
 21
136.909
  0
LINE
  8
0
 10
-5.79803
 20
136.909
 11
-4.90128
 21
137.159
  0
LINE
  8
0
 10
-4.90128
 20
137.159
 11
-3.8974
 21
137.333
  0
LINE
  8
0
 10
-3.8974
 20
137.333
 11
-2.78549
 21
137.433
  0
LINE
  8
0
 10
-2.78549
 20
137.433
 11
-1.56921
 21
137.457
  0
LINE
  8
0
 10
-1.56921
 20
137.457
 11
-0.00320435
 21
134.579
  0
LINE
  8
0
 10
-0.00320435
 20
134.579
 11
-0.00320435
 21
130.012
  0
LINE
  8
0
 10
-0.00320435
 20
130.012
 11
-0.495758
 21
130.937
  0
LINE
  8
0
 10
16.5193
 20
132.981
 11
18.5101
 21
135.025
  0
LINE
  8
0
 10
18.5101
 20
135.025
 11
18.8896
 21
133.857
  0
LINE
  8
0
 10
18.8896
 20
133.857
 11
16.5193
 21
131.472
  0
LINE
  8
0
 10
16.5193
 20
131.472
 11
16.5193
 21
132.981
  0
LINE
  8
0
 10
-3.05511
 20
120.922
 11
-3.83148
 21
121.069
  0
LINE
  8
0
 10
-3.83148
 20
121.069
 11
-4.5314
 21
121.324
  0
LINE
  8
0
 10
-4.5314
 20
121.324
 11
-5.15762
 21
121.685
  0
LINE
  8
0
 10
-5.15762
 20
121.685
 11
-5.70786
 21
122.153
  0
LINE
  8
0
 10
-5.70786
 20
122.153
 11
-6.18301
 21
122.729
  0
LINE
  8
0
 10
-6.18301
 20
122.729
 11
-6.5831
 21
123.412
  0
LINE
  8
0
 10
-6.5831
 20
123.412
 11
-6.90857
 21
124.202
  0
LINE
  8
0
 10
-6.90857
 20
124.202
 11
-7.15851
 21
125.099
  0
LINE
  8
0
 10
-7.15851
 20
125.099
 11
-7.33337
 21
126.103
  0
LINE
  8
0
 10
-7.33337
 20
126.103
 11
-7.43317
 21
127.215
  0
LINE
  8
0
 10
-7.43317
 20
127.215
 11
-7.45743
 21
128.431
  0
LINE
  8
0
 10
-7.45743
 20
128.431
 11
-4.57901
 21
129.997
  0
LINE
  8
0
 10
-4.57901
 20
129.997
 11
-0.0123596
 21
129.997
  0
LINE
  8
0
 10
-0.0123596
 20
129.997
 11
-0.937042
 21
129.504
  0
LINE
  8
0
 10
-0.937042
 20
129.504
 11
-1.72485
 21
129.036
  0
LINE
  8
0
 10
-1.72485
 20
129.036
 11
-2.36481
 21
128.599
  0
LINE
  8
0
 10
-2.36481
 20
128.599
 11
-2.85736
 21
128.193
  0
LINE
  8
0
 10
-2.85736
 20
128.193
 11
-3.2016
 21
127.817
  0
LINE
  8
0
 10
-3.2016
 20
127.817
 11
-3.39844
 21
127.472
  0
LINE
  8
0
 10
-3.39844
 20
127.472
 11
-3.4465
 21
127.158
  0
LINE
  8
0
 10
-3.4465
 20
127.158
 11
-3.34579
 21
126.874
  0
LINE
  8
0
 10
-3.34579
 20
126.874
 11
-3.09723
 21
126.622
  0
LINE
  8
0
 10
-3.09723
 20
126.622
 11
-2.70081
 21
126.402
  0
LINE
  8
0
 10
-2.70081
 20
126.402
 11
-2.15652
 21
126.212
  0
LINE
  8
0
 10
-2.15652
 20
126.212
 11
-1.46713
 21
126.055
  0
LINE
  8
0
 10
-1.46713
 20
126.055
 11
-1.46713
 21
122.435
  0
LINE
  8
0
 10
-1.46713
 20
122.435
 11
-2.20551
 21
120.881
  0
LINE
  8
0
 10
-2.20551
 20
120.881
 11
-3.05511
 21
120.922
  0
LINE
  8
0
 10
0.00320435
 20
125.421
 11
0.00320435
 21
129.988
  0
LINE
  8
0
 10
0.00320435
 20
129.988
 11
0.495758
 21
129.063
  0
LINE
  8
0
 10
0.495758
 20
129.063
 11
0.96405
 21
128.275
  0
LINE
  8
0
 10
0.96405
 20
128.275
 11
1.40121
 21
127.635
  0
LINE
  8
0
 10
1.40121
 20
127.635
 11
1.80725
 21
127.143
  0
LINE
  8
0
 10
1.80725
 20
127.143
 11
2.18262
 21
126.798
  0
LINE
  8
0
 10
2.18262
 20
126.798
 11
2.52777
 21
126.602
  0
LINE
  8
0
 10
2.52777
 20
126.602
 11
2.84225
 21
126.553
  0
LINE
  8
0
 10
2.84225
 20
126.553
 11
3.12607
 21
126.654
  0
LINE
  8
0
 10
3.12607
 20
126.654
 11
3.37784
 21
126.903
  0
LINE
  8
0
 10
3.37784
 20
126.903
 11
3.59848
 21
127.299
  0
LINE
  8
0
 10
3.59848
 20
127.299
 11
3.78754
 21
127.843
  0
LINE
  8
0
 10
3.78754
 20
127.843
 11
3.94547
 21
128.533
  0
LINE
  8
0
 10
3.94547
 20
128.533
 11
7.56409
 21
128.533
  0
LINE
  8
0
 10
7.56409
 20
128.533
 11
9.11911
 21
127.794
  0
LINE
  8
0
 10
9.11911
 20
127.794
 11
9.07837
 21
126.945
  0
LINE
  8
0
 10
9.07837
 20
126.945
 11
8.93097
 21
126.169
  0
LINE
  8
0
 10
8.93097
 20
126.169
 11
8.67645
 21
125.469
  0
LINE
  8
0
 10
8.67645
 20
125.469
 11
8.31482
 21
124.842
  0
LINE
  8
0
 10
8.31482
 20
124.842
 11
7.84653
 21
124.292
  0
LINE
  8
0
 10
7.84653
 20
124.292
 11
7.27112
 21
123.817
  0
LINE
  8
0
 10
7.27112
 20
123.817
 11
6.58813
 21
123.417
  0
LINE
  8
0
 10
6.58813
 20
123.417
 11
5.79803
 21
123.091
  0
LINE
  8
0
 10
5.79803
 20
123.091
 11
4.90128
 21
122.841
  0
LINE
  8
0
 10
4.90128
 20
122.841
 11
3.8974
 21
122.667
  0
LINE
  8
0
 10
3.8974
 20
122.667
 11
2.78549
 21
122.567
  0
LINE
  8
0
 10
2.78549
 20
122.567
 11
1.56921
 21
122.543
  0
LINE
  8
0
 10
1.56921
 20
122.543
 11
0.00320435
 21
125.421
  0
LINE
  8
0
 10
-23.9342
 20
116.94
 11
-23.9891
 21
117.268
  0
LINE
  8
0
 10
-23.9891
 20
117.268
 11
-24.115
 21
117.522
  0
LINE
  8
0
 10
-24.115
 20
117.522
 11
-24.1781
 21
117.581
  0
LINE
  8
0
 10
-24.1781
 20
117.581
 11
-22.6143
 21
122.394
  0
LINE
  8
0
 10
-22.6143
 20
122.394
 11
-16.5193
 21
128.528
  0
LINE
  8
0
 10
-16.5193
 20
128.528
 11
-16.5193
 21
127.019
  0
LINE
  8
0
 10
-16.5193
 20
127.019
 11
-20.8818
 21
122.539
  0
LINE
  8
0
 10
-20.8818
 20
122.539
 11
-19.9196
 21
121.585
  0
LINE
  8
0
 10
-19.9196
 20
121.585
 11
-19.1808
 21
120.715
  0
LINE
  8
0
 10
-19.1808
 20
120.715
 11
-18.663
 21
119.929
  0
LINE
  8
0
 10
-18.663
 20
119.929
 11
-18.3669
 21
119.224
  0
LINE
  8
0
 10
-18.3669
 20
119.224
 11
-18.2913
 21
118.601
  0
LINE
  8
0
 10
-18.2913
 20
118.601
 11
-18.4364
 21
118.062
  0
LINE
  8
0
 10
-18.4364
 20
118.062
 11
-18.8026
 21
117.605
  0
LINE
  8
0
 10
-18.8026
 20
117.605
 11
-19.3909
 21
117.228
  0
LINE
  8
0
 10
-19.3909
 20
117.228
 11
-20.1997
 21
116.935
  0
LINE
  8
0
 10
-20.1997
 20
116.935
 11
-21.2297
 21
116.723
  0
LINE
  8
0
 10
-21.2297
 20
116.723
 11
-22.4817
 21
116.593
  0
LINE
  8
0
 10
-22.4817
 20
116.593
 11
-23.9507
 21
116.545
  0
LINE
  8
0
 10
-23.9507
 20
116.545
 11
-23.9342
 21
116.94
  0
LINE
  8
0
 10
6.06583
 20
116.94
 11
6.01089
 21
117.268
  0
LINE
  8
0
 10
6.01089
 20
117.268
 11
5.88501
 21
117.522
  0
LINE
  8
0
 10
5.88501
 20
117.522
 11
5.68863
 21
117.704
  0
LINE
  8
0
 10
5.68863
 20
117.704
 11
5.42084
 21
117.813
  0
LINE
  8
0
 10
5.42084
 20
117.813
 11
5.08209
 21
117.85
  0
LINE
  8
0
 10
5.08209
 20
117.85
 11
4.67285
 21
117.813
  0
LINE
  8
0
 10
4.67285
 20
117.813
 11
4.19357
 21
117.704
  0
LINE
  8
0
 10
4.19357
 20
117.704
 11
3.64288
 21
117.523
  0
LINE
  8
0
 10
3.64288
 20
117.523
 11
3.0217
 21
117.27
  0
LINE
  8
0
 10
3.0217
 20
117.27
 11
2.3291
 21
116.943
  0
LINE
  8
0
 10
2.3291
 20
116.943
 11
1.58386
 21
116.554
  0
LINE
  8
0
 10
1.58386
 20
116.554
 11
13.4807
 21
128.528
  0
LINE
  8
0
 10
13.4807
 20
128.528
 11
13.4807
 21
127.019
  0
LINE
  8
0
 10
13.4807
 20
127.019
 11
9.11819
 21
122.539
  0
LINE
  8
0
 10
9.11819
 20
122.539
 11
10.0804
 21
121.585
  0
LINE
  8
0
 10
10.0804
 20
121.585
 11
10.8192
 21
120.715
  0
LINE
  8
0
 10
10.8192
 20
120.715
 11
11.337
 21
119.929
  0
LINE
  8
0
 10
11.337
 20
119.929
 11
11.6331
 21
119.224
  0
LINE
  8
0
 10
11.6331
 20
119.224
 11
11.7087
 21
118.601
  0
LINE
  8
0
 10
11.7087
 20
118.601
 11
11.5636
 21
118.062
  0
LINE
  8
0
 10
11.5636
 20
118.062
 11
11.1974
 21
117.605
  0
LINE
  8
0
 10
11.1974
 20
117.605
 11
10.6091
 21
117.228
  0
LINE
  8
0
 10
10.6091
 20
117.228
 11
9.80026
 21
116.935
  0
LINE
  8
0
 10
9.80026
 20
116.935
 11
8.77029
 21
116.723
  0
LINE
  8
0
 10
8.77029
 20
116.723
 11
7.51831
 21
116.593
  0
LINE
  8
0
 10
7.51831
 20
116.593
 11
6.04935
 21
116.545
  0
LINE
  8
0
 10
6.04935
 20
116.545
 11
6.06583
 21
116.94
  0
LINE
  8
0
 10
-2.98096
 20
116.519
 11
-7.46063
 21
120.882
  0
LINE
  8
0
 10
-7.46063
 20
120.882
 11
-8.41507
 21
119.92
  0
LINE
  8
0
 10
-8.41507
 20
119.92
 11
-9.28482
 21
119.181
  0
LINE
  8
0
 10
-9.28482
 20
119.181
 11
-10.0713
 21
118.663
  0
LINE
  8
0
 10
-10.0713
 20
118.663
 11
-10.7758
 21
118.367
  0
LINE
  8
0
 10
-10.7758
 20
118.367
 11
-11.3988
 21
118.291
  0
LINE
  8
0
 10
-11.3988
 20
118.291
 11
-11.938
 21
118.437
  0
LINE
  8
0
 10
-11.938
 20
118.437
 11
-12.3953
 21
118.803
  0
LINE
  8
0
 10
-12.3953
 20
118.803
 11
-12.7721
 21
119.391
  0
LINE
  8
0
 10
-12.7721
 20
119.391
 11
-13.0655
 21
120.2
  0
LINE
  8
0
 10
-13.0655
 20
120.2
 11
-13.2774
 21
121.23
  0
LINE
  8
0
 10
-13.2774
 20
121.23
 11
-13.407
 21
122.482
  0
LINE
  8
0
 10
-13.407
 20
122.482
 11
-13.455
 21
123.951
  0
LINE
  8
0
 10
-13.455
 20
123.951
 11
-13.0595
 21
123.934
  0
LINE
  8
0
 10
-13.0595
 20
123.934
 11
-12.7322
 21
123.989
  0
LINE
  8
0
 10
-12.7322
 20
123.989
 11
-12.4777
 21
124.115
  0
LINE
  8
0
 10
-12.4777
 20
124.115
 11
-12.2955
 21
124.311
  0
LINE
  8
0
 10
-12.2955
 20
124.311
 11
-12.187
 21
124.579
  0
LINE
  8
0
 10
-12.187
 20
124.579
 11
-12.15
 21
124.918
  0
LINE
  8
0
 10
-12.15
 20
124.918
 11
-12.1866
 21
125.327
  0
LINE
  8
0
 10
-12.1866
 20
125.327
 11
-12.2955
 21
125.806
  0
LINE
  8
0
 10
-12.2955
 20
125.806
 11
-12.4768
 21
126.357
  0
LINE
  8
0
 10
-12.4768
 20
126.357
 11
-12.7304
 21
126.978
  0
LINE
  8
0
 10
-12.7304
 20
126.978
 11
-13.0568
 21
127.671
  0
LINE
  8
0
 10
-13.0568
 20
127.671
 11
-13.4459
 21
128.416
  0
LINE
  8
0
 10
-13.4459
 20
128.416
 11
-1.47171
 21
116.519
  0
LINE
  8
0
 10
-1.47171
 20
116.519
 11
-2.98096
 21
116.519
  0
LINE
  8
0
 10
18.062
 20
118.437
 11
17.6047
 21
118.803
  0
LINE
  8
0
 10
17.6047
 20
118.803
 11
17.2279
 21
119.391
  0
LINE
  8
0
 10
17.2279
 20
119.391
 11
16.9345
 21
120.2
  0
LINE
  8
0
 10
16.9345
 20
120.2
 11
16.7226
 21
121.23
  0
LINE
  8
0
 10
16.7226
 20
121.23
 11
16.593
 21
122.482
  0
LINE
  8
0
 10
16.593
 20
122.482
 11
16.545
 21
123.951
  0
LINE
  8
0
 10
16.545
 20
123.951
 11
16.9405
 21
123.934
  0
LINE
  8
0
 10
16.9405
 20
123.934
 11
17.2678
 21
123.989
  0
LINE
  8
0
 10
17.2678
 20
123.989
 11
17.5223
 21
124.115
  0
LINE
  8
0
 10
17.5223
 20
124.115
 11
17.7045
 21
124.311
  0
LINE
  8
0
 10
17.7045
 20
124.311
 11
17.813
 21
124.579
  0
LINE
  8
0
 10
17.813
 20
124.579
 11
17.85
 21
124.918
  0
LINE
  8
0
 10
17.85
 20
124.918
 11
17.8134
 21
125.327
  0
LINE
  8
0
 10
17.8134
 20
125.327
 11
17.7045
 21
125.806
  0
LINE
  8
0
 10
17.7045
 20
125.806
 11
17.5232
 21
126.357
  0
LINE
  8
0
 10
17.5232
 20
126.357
 11
17.2696
 21
126.978
  0
LINE
  8
0
 10
17.2696
 20
126.978
 11
16.9432
 21
127.671
  0
LINE
  8
0
 10
16.9432
 20
127.671
 11
16.5541
 21
128.416
  0
LINE
  8
0
 10
16.5541
 20
128.416
 11
22.6137
 21
122.396
  0
LINE
  8
0
 10
22.6137
 20
122.396
 11
23.3677
 21
120.075
  0
LINE
  8
0
 10
23.3677
 20
120.075
 11
22.5394
 21
120.882
  0
LINE
  8
0
 10
22.5394
 20
120.882
 11
21.5849
 21
119.92
  0
LINE
  8
0
 10
21.5849
 20
119.92
 11
20.7152
 21
119.181
  0
LINE
  8
0
 10
20.7152
 20
119.181
 11
19.9287
 21
118.663
  0
LINE
  8
0
 10
19.9287
 20
118.663
 11
19.2242
 21
118.367
  0
LINE
  8
0
 10
19.2242
 20
118.367
 11
18.6012
 21
118.291
  0
LINE
  8
0
 10
18.6012
 20
118.291
 11
18.062
 21
118.437
  0
LINE
  8
0
 10
-20.8846
 20
127.717
 11
-20.9216
 21
126.945
  0
LINE
  8
0
 10
-20.9216
 20
126.945
 11
-21.069
 21
126.169
  0
LINE
  8
0
 10
-21.069
 20
126.169
 11
-21.3235
 21
125.469
  0
LINE
  8
0
 10
-21.3235
 20
125.469
 11
-21.6852
 21
124.842
  0
LINE
  8
0
 10
-21.6852
 20
124.842
 11
-21.9012
 21
124.589
  0
LINE
  8
0
 10
-21.9012
 20
124.589
 11
-20.8846
 21
127.717
  0
LINE
  8
0
 10
1.47171
 20
113.481
 11
2.98096
 21
113.481
  0
LINE
  8
0
 10
2.98096
 20
113.481
 11
7.46063
 21
109.118
  0
LINE
  8
0
 10
7.46063
 20
109.118
 11
8.41507
 21
110.08
  0
LINE
  8
0
 10
8.41507
 20
110.08
 11
9.28482
 21
110.819
  0
LINE
  8
0
 10
9.28482
 20
110.819
 11
10.0713
 21
111.337
  0
LINE
  8
0
 10
10.0713
 20
111.337
 11
10.7758
 21
111.633
  0
LINE
  8
0
 10
10.7758
 20
111.633
 11
11.3988
 21
111.709
  0
LINE
  8
0
 10
11.3988
 20
111.709
 11
11.938
 21
111.563
  0
LINE
  8
0
 10
11.938
 20
111.563
 11
12.3953
 21
111.197
  0
LINE
  8
0
 10
12.3953
 20
111.197
 11
12.7721
 21
110.609
  0
LINE
  8
0
 10
12.7721
 20
110.609
 11
13.0655
 21
109.8
  0
LINE
  8
0
 10
13.0655
 20
109.8
 11
13.2774
 21
108.77
  0
LINE
  8
0
 10
13.2774
 20
108.77
 11
13.407
 21
107.518
  0
LINE
  8
0
 10
13.407
 20
107.518
 11
13.455
 21
106.049
  0
LINE
  8
0
 10
13.455
 20
106.049
 11
13.0595
 21
106.066
  0
LINE
  8
0
 10
13.0595
 20
106.066
 11
12.7322
 21
106.011
  0
LINE
  8
0
 10
12.7322
 20
106.011
 11
12.4777
 21
105.885
  0
LINE
  8
0
 10
12.4777
 20
105.885
 11
12.2955
 21
105.689
  0
LINE
  8
0
 10
12.2955
 20
105.689
 11
12.187
 21
105.421
  0
LINE
  8
0
 10
12.187
 20
105.421
 11
12.15
 21
105.082
  0
LINE
  8
0
 10
12.15
 20
105.082
 11
12.1866
 21
104.673
  0
LINE
  8
0
 10
12.1866
 20
104.673
 11
12.2955
 21
104.194
  0
LINE
  8
0
 10
12.2955
 20
104.194
 11
12.4768
 21
103.643
  0
LINE
  8
0
 10
12.4768
 20
103.643
 11
12.7304
 21
103.022
  0
LINE
  8
0
 10
12.7304
 20
103.022
 11
13.0568
 21
102.329
  0
LINE
  8
0
 10
13.0568
 20
102.329
 11
13.4459
 21
101.584
  0
LINE
  8
0
 10
13.4459
 20
101.584
 11
1.47171
 21
113.481
  0
LINE
  8
0
 10
16.5193
 20
102.981
 11
20.8818
 21
107.461
  0
LINE
  8
0
 10
20.8818
 20
107.461
 11
19.9196
 21
108.415
  0
LINE
  8
0
 10
19.9196
 20
108.415
 11
19.1808
 21
109.285
  0
LINE
  8
0
 10
19.1808
 20
109.285
 11
18.663
 21
110.071
  0
LINE
  8
0
 10
18.663
 20
110.071
 11
18.3669
 21
110.776
  0
LINE
  8
0
 10
18.3669
 20
110.776
 11
18.2913
 21
111.399
  0
LINE
  8
0
 10
18.2913
 20
111.399
 11
18.4364
 21
111.938
  0
LINE
  8
0
 10
18.4364
 20
111.938
 11
18.8026
 21
112.395
  0
LINE
  8
0
 10
18.8026
 20
112.395
 11
19.3909
 21
112.772
  0
LINE
  8
0
 10
19.3909
 20
112.772
 11
20.1997
 21
113.065
  0
LINE
  8
0
 10
20.1997
 20
113.065
 11
21.2297
 21
113.277
  0
LINE
  8
0
 10
21.2297
 20
113.277
 11
22.4817
 21
113.407
  0
LINE
  8
0
 10
22.4817
 20
113.407
 11
23.9507
 21
113.455
  0
LINE
  8
0
 10
23.9507
 20
113.455
 11
23.9342
 21
113.06
  0
LINE
  8
0
 10
23.9342
 20
113.06
 11
23.9891
 21
112.732
  0
LINE
  8
0
 10
23.9891
 20
112.732
 11
24.115
 21
112.478
  0
LINE
  8
0
 10
24.115
 20
112.478
 11
24.3114
 21
112.296
  0
LINE
  8
0
 10
24.3114
 20
112.296
 11
24.5792
 21
112.187
  0
LINE
  8
0
 10
24.5792
 20
112.187
 11
24.9179
 21
112.15
  0
LINE
  8
0
 10
24.9179
 20
112.15
 11
25.3271
 21
112.187
  0
LINE
  8
0
 10
25.3271
 20
112.187
 11
25.8064
 21
112.296
  0
LINE
  8
0
 10
25.8064
 20
112.296
 11
25.8868
 21
112.322
  0
LINE
  8
0
 10
25.8868
 20
112.322
 11
26.235
 21
111.251
  0
LINE
  8
0
 10
26.235
 20
111.251
 11
16.5193
 21
101.472
  0
LINE
  8
0
 10
16.5193
 20
101.472
 11
16.5193
 21
102.981
  0
LINE
  8
0
 10
-13.4807
 20
102.981
 11
-9.11819
 21
107.461
  0
LINE
  8
0
 10
-9.11819
 20
107.461
 11
-10.0804
 21
108.415
  0
LINE
  8
0
 10
-10.0804
 20
108.415
 11
-10.8192
 21
109.285
  0
LINE
  8
0
 10
-10.8192
 20
109.285
 11
-11.337
 21
110.071
  0
LINE
  8
0
 10
-11.337
 20
110.071
 11
-11.6331
 21
110.776
  0
LINE
  8
0
 10
-11.6331
 20
110.776
 11
-11.7087
 21
111.399
  0
LINE
  8
0
 10
-11.7087
 20
111.399
 11
-11.5636
 21
111.938
  0
LINE
  8
0
 10
-11.5636
 20
111.938
 11
-11.1974
 21
112.395
  0
LINE
  8
0
 10
-11.1974
 20
112.395
 11
-10.6091
 21
112.772
  0
LINE
  8
0
 10
-10.6091
 20
112.772
 11
-9.80026
 21
113.065
  0
LINE
  8
0
 10
-9.80026
 20
113.065
 11
-8.77029
 21
113.277
  0
LINE
  8
0
 10
-8.77029
 20
113.277
 11
-7.51831
 21
113.407
  0
LINE
  8
0
 10
-7.51831
 20
113.407
 11
-6.04935
 21
113.455
  0
LINE
  8
0
 10
-6.04935
 20
113.455
 11
-6.06583
 21
113.06
  0
LINE
  8
0
 10
-6.06583
 20
113.06
 11
-6.01089
 21
112.732
  0
LINE
  8
0
 10
-6.01089
 20
112.732
 11
-5.88501
 21
112.478
  0
LINE
  8
0
 10
-5.88501
 20
112.478
 11
-5.68863
 21
112.296
  0
LINE
  8
0
 10
-5.68863
 20
112.296
 11
-5.42084
 21
112.187
  0
LINE
  8
0
 10
-5.42084
 20
112.187
 11
-5.08209
 21
112.15
  0
LINE
  8
0
 10
-5.08209
 20
112.15
 11
-4.67285
 21
112.187
  0
LINE
  8
0
 10
-4.67285
 20
112.187
 11
-4.19357
 21
112.296
  0
LINE
  8
0
 10
-4.19357
 20
112.296
 11
-3.64288
 21
112.477
  0
LINE
  8
0
 10
-3.64288
 20
112.477
 11
-3.0217
 21
112.73
  0
LINE
  8
0
 10
-3.0217
 20
112.73
 11
-2.3291
 21
113.057
  0
LINE
  8
0
 10
-2.3291
 20
113.057
 11
-1.58386
 21
113.446
  0
LINE
  8
0
 10
-1.58386
 20
113.446
 11
-13.4807
 21
101.472
  0
LINE
  8
0
 10
-13.4807
 20
101.472
 11
-13.4807
 21
102.981
  0
LINE
  8
0
 10
-26.2468
 20
111.214
 11
-25.873
 21
112.365
  0
LINE
  8
0
 10
-25.873
 20
112.365
 11
-22.5394
 21
109.118
  0
LINE
  8
0
 10
-22.5394
 20
109.118
 11
-21.5849
 21
110.08
  0
LINE
  8
0
 10
-21.5849
 20
110.08
 11
-20.7152
 21
110.819
  0
LINE
  8
0
 10
-20.7152
 20
110.819
 11
-19.9287
 21
111.337
  0
LINE
  8
0
 10
-19.9287
 20
111.337
 11
-19.2242
 21
111.633
  0
LINE
  8
0
 10
-19.2242
 20
111.633
 11
-18.6012
 21
111.709
  0
LINE
  8
0
 10
-18.6012
 20
111.709
 11
-18.062
 21
111.563
  0
LINE
  8
0
 10
-18.062
 20
111.563
 11
-17.6047
 21
111.197
  0
LINE
  8
0
 10
-17.6047
 20
111.197
 11
-17.2279
 21
110.609
  0
LINE
  8
0
 10
-17.2279
 20
110.609
 11
-16.9345
 21
109.8
  0
LINE
  8
0
 10
-16.9345
 20
109.8
 11
-16.7226
 21
108.77
  0
LINE
  8
0
 10
-16.7226
 20
108.77
 11
-16.593
 21
107.518
  0
LINE
  8
0
 10
-16.593
 20
107.518
 11
-16.545
 21
106.049
  0
LINE
  8
0
 10
-16.545
 20
106.049
 11
-16.9405
 21
106.066
  0
LINE
  8
0
 10
-16.9405
 20
106.066
 11
-17.2678
 21
106.011
  0
LINE
  8
0
 10
-17.2678
 20
106.011
 11
-17.5223
 21
105.885
  0
LINE
  8
0
 10
-17.5223
 20
105.885
 11
-17.7045
 21
105.689
  0
LINE
  8
0
 10
-17.7045
 20
105.689
 11
-17.813
 21
105.421
  0
LINE
  8
0
 10
-17.813
 20
105.421
 11
-17.85
 21
105.082
  0
LINE
  8
0
 10
-17.85
 20
105.082
 11
-17.8134
 21
104.673
  0
LINE
  8
0
 10
-17.8134
 20
104.673
 11
-17.7045
 21
104.194
  0
LINE
  8
0
 10
-17.7045
 20
104.194
 11
-17.5232
 21
103.643
  0
LINE
  8
0
 10
-17.5232
 20
103.643
 11
-17.2696
 21
103.022
  0
LINE
  8
0
 10
-17.2696
 20
103.022
 11
-16.9432
 21
102.329
  0
LINE
  8
0
 10
-16.9432
 20
102.329
 11
-16.5541
 21
101.584
  0
LINE
  8
0
 10
-16.5541
 20
101.584
 11
-26.2468
 21
111.214
  0
LINE
  8
0
 10
0.0123596
 20
100.003
 11
0.937042
 21
100.496
  0
LINE
  8
0
 10
0.937042
 20
100.496
 11
1.72485
 21
100.964
  0
LINE
  8
0
 10
1.72485
 20
100.964
 11
2.36481
 21
101.401
  0
LINE
  8
0
 10
2.36481
 20
101.401
 11
2.85736
 21
101.807
  0
LINE
  8
0
 10
2.85736
 20
101.807
 11
3.2016
 21
102.183
  0
LINE
  8
0
 10
3.2016
 20
102.183
 11
3.39844
 21
102.528
  0
LINE
  8
0
 10
3.39844
 20
102.528
 11
3.4465
 21
102.842
  0
LINE
  8
0
 10
3.4465
 20
102.842
 11
3.34579
 21
103.126
  0
LINE
  8
0
 10
3.34579
 20
103.126
 11
3.09723
 21
103.378
  0
LINE
  8
0
 10
3.09723
 20
103.378
 11
2.70081
 21
103.598
  0
LINE
  8
0
 10
2.70081
 20
103.598
 11
2.15652
 21
103.788
  0
LINE
  8
0
 10
2.15652
 20
103.788
 11
1.46713
 21
103.945
  0
LINE
  8
0
 10
1.46713
 20
103.945
 11
1.46713
 21
107.565
  0
LINE
  8
0
 10
1.46713
 20
107.565
 11
2.20551
 21
109.119
  0
LINE
  8
0
 10
2.20551
 20
109.119
 11
3.05511
 21
109.078
  0
LINE
  8
0
 10
3.05511
 20
109.078
 11
3.83148
 21
108.931
  0
LINE
  8
0
 10
3.83148
 20
108.931
 11
4.5314
 21
108.676
  0
LINE
  8
0
 10
4.5314
 20
108.676
 11
5.15762
 21
108.315
  0
LINE
  8
0
 10
5.15762
 20
108.315
 11
5.70786
 21
107.847
  0
LINE
  8
0
 10
5.70786
 20
107.847
 11
6.18301
 21
107.271
  0
LINE
  8
0
 10
6.18301
 20
107.271
 11
6.5831
 21
106.588
  0
LINE
  8
0
 10
6.5831
 20
106.588
 11
6.90857
 21
105.798
  0
LINE
  8
0
 10
6.90857
 20
105.798
 11
7.15851
 21
104.901
  0
LINE
  8
0
 10
7.15851
 20
104.901
 11
7.33337
 21
103.897
  0
LINE
  8
0
 10
7.33337
 20
103.897
 11
7.43317
 21
102.785
  0
LINE
  8
0
 10
7.43317
 20
102.785
 11
7.45743
 21
101.569
  0
LINE
  8
0
 10
7.45743
 20
101.569
 11
4.57901
 21
100.003
  0
LINE
  8
0
 10
4.57901
 20
100.003
 11
0.0123596
 21
100.003
  0
LINE
  8
0
 10
-29.8894
 20
100.003
 11
-29.8689
 21
100.066
  0
LINE
  8
0
 10
-29.8689
 20
100.066
 11
-29.063
 21
100.496
  0
LINE
  8
0
 10
-29.063
 20
100.496
 11
-28.2751
 21
100.964
  0
LINE
  8
0
 10
-28.2751
 20
100.964
 11
-27.6352
 21
101.401
  0
LINE
  8
0
 10
-27.6352
 20
101.401
 11
-27.1426
 21
101.807
  0
LINE
  8
0
 10
-27.1426
 20
101.807
 11
-26.7984
 21
102.183
  0
LINE
  8
0
 10
-26.7984
 20
102.183
 11
-26.6016
 21
102.528
  0
LINE
  8
0
 10
-26.6016
 20
102.528
 11
-26.5535
 21
102.842
  0
LINE
  8
0
 10
-26.5535
 20
102.842
 11
-26.6542
 21
103.126
  0
LINE
  8
0
 10
-26.6542
 20
103.126
 11
-26.9028
 21
103.378
  0
LINE
  8
0
 10
-26.9028
 20
103.378
 11
-27.2992
 21
103.598
  0
LINE
  8
0
 10
-27.2992
 20
103.598
 11
-27.8435
 21
103.788
  0
LINE
  8
0
 10
-27.8435
 20
103.788
 11
-28.5329
 21
103.945
  0
LINE
  8
0
 10
-28.5329
 20
103.945
 11
-28.5329
 21
104.178
  0
LINE
  8
0
 10
-28.5329
 20
104.178
 11
-26.941
 21
109.078
  0
LINE
  8
0
 10
-26.941
 20
109.078
 11
-26.1685
 21
108.931
  0
LINE
  8
0
 10
-26.1685
 20
108.931
 11
-25.4686
 21
108.676
  0
LINE
  8
0
 10
-25.4686
 20
108.676
 11
-24.8424
 21
108.315
  0
LINE
  8
0
 10
-24.8424
 20
108.315
 11
-24.2921
 21
107.847
  0
LINE
  8
0
 10
-24.2921
 20
107.847
 11
-23.817
 21
107.271
  0
LINE
  8
0
 10
-23.817
 20
107.271
 11
-23.4169
 21
106.588
  0
LINE
  8
0
 10
-23.4169
 20
106.588
 11
-23.0914
 21
105.798
  0
LINE
  8
0
 10
-23.0914
 20
105.798
 11
-22.8415
 21
104.901
  0
LINE
  8
0
 10
-22.8415
 20
104.901
 11
-22.6666
 21
103.897
  0
LINE
  8
0
 10
-22.6666
 20
103.897
 11
-22.5668
 21
102.785
  0
LINE
  8
0
 10
-22.5668
 20
102.785
 11
-22.5426
 21
101.569
  0
LINE
  8
0
 10
-22.5426
 20
101.569
 11
-25.421
 21
100.003
  0
LINE
  8
0
 10
-25.421
 20
100.003
 11
-29.8894
 21
100.003
  0
LINE
  8
0
 10
-0.495758
 20
100.937
 11
-0.96405
 21
101.725
  0
LINE
  8
0
 10
-0.96405
 20
101.725
 11
-1.40121
 21
102.365
  0
LINE
  8
0
 10
-1.40121
 20
102.365
 11
-1.80725
 21
102.857
  0
LINE
  8
0
 10
-1.80725
 20
102.857
 11
-2.18262
 21
103.202
  0
LINE
  8
0
 10
-2.18262
 20
103.202
 11
-2.52777
 21
103.398
  0
LINE
  8
0
 10
-2.52777
 20
103.398
 11
-2.84225
 21
103.447
  0
LINE
  8
0
 10
-2.84225
 20
103.447
 11
-3.12607
 21
103.346
  0
LINE
  8
0
 10
-3.12607
 20
103.346
 11
-3.37784
 21
103.097
  0
LINE
  8
0
 10
-3.37784
 20
103.097
 11
-3.59848
 21
102.701
  0
LINE
  8
0
 10
-3.59848
 20
102.701
 11
-3.78754
 21
102.157
  0
LINE
  8
0
 10
-3.78754
 20
102.157
 11
-3.94547
 21
101.467
  0
LINE
  8
0
 10
-3.94547
 20
101.467
 11
-7.56409
 21
101.467
  0
LINE
  8
0
 10
-7.56409
 20
101.467
 11
-9.11911
 21
102.206
  0
LINE
  8
0
 10
-9.11911
 20
102.206
 11
-9.07837
 21
103.055
  0
LINE
  8
0
 10
-9.07837
 20
103.055
 11
-8.93097
 21
103.831
  0
LINE
  8
0
 10
-8.93097
 20
103.831
 11
-8.67645
 21
104.531
  0
LINE
  8
0
 10
-8.67645
 20
104.531
 11
-8.31528
 21
105.157
  0
LINE
  8
0
 10
-8.31528
 20
105.157
 11
-7.84698
 21
105.707
  0
LINE
  8
0
 10
-7.84698
 20
105.707
 11
-7.27112
 21
106.183
  0
LINE
  8
0
 10
-7.27112
 20
106.183
 11
-6.58813
 21
106.583
  0
LINE
  8
0
 10
-6.58813
 20
106.583
 11
-5.79803
 21
106.909
  0
LINE
  8
0
 10
-5.79803
 20
106.909
 11
-4.90128
 21
107.159
  0
LINE
  8
0
 10
-4.90128
 20
107.159
 11
-3.8974
 21
107.333
  0
LINE
  8
0
 10
-3.8974
 20
107.333
 11
-2.78549
 21
107.433
  0
LINE
  8
0
 10
-2.78549
 20
107.433
 11
-1.56921
 21
107.457
  0
LINE
  8
0
 10
-1.56921
 20
107.457
 11
-0.00320435
 21
104.579
  0
LINE
  8
0
 10
-0.00320435
 20
104.579
 11
-0.00320435
 21
100.012
  0
LINE
  8
0
 10
-0.00320435
 20
100.012
 11
-0.495758
 21
100.937
  0
LINE
  8
0
 10
29.5042
 20
100.937
 11
29.0359
 21
101.725
  0
LINE
  8
0
 10
29.0359
 20
101.725
 11
28.5988
 21
102.365
  0
LINE
  8
0
 10
28.5988
 20
102.365
 11
28.1927
 21
102.857
  0
LINE
  8
0
 10
28.1927
 20
102.857
 11
27.8174
 21
103.202
  0
LINE
  8
0
 10
27.8174
 20
103.202
 11
27.4722
 21
103.398
  0
LINE
  8
0
 10
27.4722
 20
103.398
 11
27.1577
 21
103.447
  0
LINE
  8
0
 10
27.1577
 20
103.447
 11
26.8739
 21
103.346
  0
LINE
  8
0
 10
26.8739
 20
103.346
 11
26.6222
 21
103.097
  0
LINE
  8
0
 10
26.6222
 20
103.097
 11
26.4015
 21
102.701
  0
LINE
  8
0
 10
26.4015
 20
102.701
 11
26.2125
 21
102.157
  0
LINE
  8
0
 10
26.2125
 20
102.157
 11
26.0545
 21
101.467
  0
LINE
  8
0
 10
26.0545
 20
101.467
 11
22.4359
 21
101.467
  0
LINE
  8
0
 10
22.4359
 20
101.467
 11
20.8809
 21
102.206
  0
LINE
  8
0
 10
20.8809
 20
102.206
 11
20.9216
 21
103.055
  0
LINE
  8
0
 10
20.9216
 20
103.055
 11
21.069
 21
103.831
  0
LINE
  8
0
 10
21.069
 20
103.831
 11
21.3235
 21
104.531
  0
LINE
  8
0
 10
21.3235
 20
104.531
 11
21.6847
 21
105.157
  0
LINE
  8
0
 10
21.6847
 20
105.157
 11
22.153
 21
105.707
  0
LINE
  8
0
 10
22.153
 20
105.707
 11
22.7289
 21
106.183
  0
LINE
  8
0
 10
22.7289
 20
106.183
 11
23.4119
 21
106.583
  0
LINE
  8
0
 10
23.4119
 20
106.583
 11
24.202
 21
106.909
  0
LINE
  8
0
 10
24.202
 20
106.909
 11
25.0987
 21
107.159
  0
LINE
  8
0
 10
25.0987
 20
107.159
 11
26.1026
 21
107.333
  0
LINE
  8
0
 10
26.1026
 20
107.333
 11
27.2145
 21
107.433
  0
LINE
  8
0
 10
27.2145
 20
107.433
 11
27.4736
 21
107.438
  0
LINE
  8
0
 10
27.4736
 20
107.438
 11
29.7139
 21
100.543
  0
LINE
  8
0
 10
29.7139
 20
100.543
 11
29.5042
 21
100.937
  0
LINE
  8
0
 10
-3.05511
 20
90.9216
 11
-3.83148
 21
91.069
  0
LINE
  8
0
 10
-3.83148
 20
91.069
 11
-4.5314
 21
91.3235
  0
LINE
  8
0
 10
-4.5314
 20
91.3235
 11
-5.15762
 21
91.6852
  0
LINE
  8
0
 10
-5.15762
 20
91.6852
 11
-5.70786
 21
92.1535
  0
LINE
  8
0
 10
-5.70786
 20
92.1535
 11
-6.18301
 21
92.7293
  0
LINE
  8
0
 10
-6.18301
 20
92.7293
 11
-6.5831
 21
93.4119
  0
LINE
  8
0
 10
-6.5831
 20
93.4119
 11
-6.90857
 21
94.202
  0
LINE
  8
0
 10
-6.90857
 20
94.202
 11
-7.15851
 21
95.0987
  0
LINE
  8
0
 10
-7.15851
 20
95.0987
 11
-7.33337
 21
96.1026
  0
LINE
  8
0
 10
-7.33337
 20
96.1026
 11
-7.43317
 21
97.2145
  0
LINE
  8
0
 10
-7.43317
 20
97.2145
 11
-7.45743
 21
98.4308
  0
LINE
  8
0
 10
-7.45743
 20
98.4308
 11
-4.57901
 21
99.9968
  0
LINE
  8
0
 10
-4.57901
 20
99.9968
 11
-0.0123596
 21
99.9968
  0
LINE
  8
0
 10
-0.0123596
 20
99.9968
 11
-0.937042
 21
99.5042
  0
LINE
  8
0
 10
-0.937042
 20
99.5042
 11
-1.72485
 21
99.0359
  0
LINE
  8
0
 10
-1.72485
 20
99.0359
 11
-2.36481
 21
98.5988
  0
LINE
  8
0
 10
-2.36481
 20
98.5988
 11
-2.85736
 21
98.1927
  0
LINE
  8
0
 10
-2.85736
 20
98.1927
 11
-3.2016
 21
97.8174
  0
LINE
  8
0
 10
-3.2016
 20
97.8174
 11
-3.39844
 21
97.4722
  0
LINE
  8
0
 10
-3.39844
 20
97.4722
 11
-3.4465
 21
97.1577
  0
LINE
  8
0
 10
-3.4465
 20
97.1577
 11
-3.34579
 21
96.8739
  0
LINE
  8
0
 10
-3.34579
 20
96.8739
 11
-3.09723
 21
96.6222
  0
LINE
  8
0
 10
-3.09723
 20
96.6222
 11
-2.70081
 21
96.4015
  0
LINE
  8
0
 10
-2.70081
 20
96.4015
 11
-2.15652
 21
96.2125
  0
LINE
  8
0
 10
-2.15652
 20
96.2125
 11
-1.46713
 21
96.0545
  0
LINE
  8
0
 10
-1.46713
 20
96.0545
 11
-1.46713
 21
92.4355
  0
LINE
  8
0
 10
-1.46713
 20
92.4355
 11
-2.20551
 21
90.8809
  0
LINE
  8
0
 10
-2.20551
 20
90.8809
 11
-3.05511
 21
90.9216
  0
LINE
  8
0
 10
26.9449
 20
90.9216
 11
26.1685
 21
91.069
  0
LINE
  8
0
 10
26.1685
 20
91.069
 11
25.4686
 21
91.3235
  0
LINE
  8
0
 10
25.4686
 20
91.3235
 11
24.8424
 21
91.6852
  0
LINE
  8
0
 10
24.8424
 20
91.6852
 11
24.2921
 21
92.1535
  0
LINE
  8
0
 10
24.2921
 20
92.1535
 11
23.817
 21
92.7293
  0
LINE
  8
0
 10
23.817
 20
92.7293
 11
23.4169
 21
93.4119
  0
LINE
  8
0
 10
23.4169
 20
93.4119
 11
23.0914
 21
94.202
  0
LINE
  8
0
 10
23.0914
 20
94.202
 11
22.8415
 21
95.0987
  0
LINE
  8
0
 10
22.8415
 20
95.0987
 11
22.6666
 21
96.1026
  0
LINE
  8
0
 10
22.6666
 20
96.1026
 11
22.5668
 21
97.2145
  0
LINE
  8
0
 10
22.5668
 20
97.2145
 11
22.5426
 21
98.4308
  0
LINE
  8
0
 10
22.5426
 20
98.4308
 11
25.421
 21
99.9968
  0
LINE
  8
0
 10
25.421
 20
99.9968
 11
29.8915
 21
99.9968
  0
LINE
  8
0
 10
29.8915
 20
99.9968
 11
29.9057
 21
99.9532
  0
LINE
  8
0
 10
29.9057
 20
99.9532
 11
29.063
 21
99.5042
  0
LINE
  8
0
 10
29.063
 20
99.5042
 11
28.2751
 21
99.0359
  0
LINE
  8
0
 10
28.2751
 20
99.0359
 11
27.6352
 21
98.5988
  0
LINE
  8
0
 10
27.6352
 20
98.5988
 11
27.1426
 21
98.1927
  0
LINE
  8
0
 10
27.1426
 20
98.1927
 11
26.7984
 21
97.8174
  0
LINE
  8
0
 10
26.7984
 20
97.8174
 11
26.6016
 21
97.4722
  0
LINE
  8
0
 10
26.6016
 20
97.4722
 11
26.5535
 21
97.1577
  0
LINE
  8
0
 10
26.5535
 20
97.1577
 11
26.6542
 21
96.8739
  0
LINE
  8
0
 10
26.6542
 20
96.8739
 11
26.9028
 21
96.6222
  0
LINE
  8
0
 10
26.9028
 20
96.6222
 11
27.2992
 21
96.4015
  0
LINE
  8
0
 10
27.2992
 20
96.4015
 11
27.8435
 21
96.2125
  0
LINE
  8
0
 10
27.8435
 20
96.2125
 11
28.5329
 21
96.0545
  0
LINE
  8
0
 10
28.5329
 20
96.0545
 11
28.5329
 21
92.4355
  0
LINE
  8
0
 10
28.5329
 20
92.4355
 11
27.7945
 21
90.8809
  0
LINE
  8
0
 10
27.7945
 20
90.8809
 11
26.9449
 21
90.9216
  0
LINE
  8
0
 10
0.00320435
 20
95.421
 11
0.00320435
 21
99.9876
  0
LINE
  8
0
 10
0.00320435
 20
99.9876
 11
0.495758
 21
99.063
  0
LINE
  8
0
 10
0.495758
 20
99.063
 11
0.96405
 21
98.2751
  0
LINE
  8
0
 10
0.96405
 20
98.2751
 11
1.40121
 21
97.6352
  0
LINE
  8
0
 10
1.40121
 20
97.6352
 11
1.80725
 21
97.1426
  0
LINE
  8
0
 10
1.80725
 20
97.1426
 11
2.18262
 21
96.7984
  0
LINE
  8
0
 10
2.18262
 20
96.7984
 11
2.52777
 21
96.6016
  0
LINE
  8
0
 10
2.52777
 20
96.6016
 11
2.84225
 21
96.5535
  0
LINE
  8
0
 10
2.84225
 20
96.5535
 11
3.12607
 21
96.6542
  0
LINE
  8
0
 10
3.12607
 20
96.6542
 11
3.37784
 21
96.9028
  0
LINE
  8
0
 10
3.37784
 20
96.9028
 11
3.59848
 21
97.2992
  0
LINE
  8
0
 10
3.59848
 20
97.2992
 11
3.78754
 21
97.8435
  0
LINE
  8
0
 10
3.78754
 20
97.8435
 11
3.94547
 21
98.5329
  0
LINE
  8
0
 10
3.94547
 20
98.5329
 11
7.56409
 21
98.5329
  0
LINE
  8
0
 10
7.56409
 20
98.5329
 11
9.11911
 21
97.7945
  0
LINE
  8
0
 10
9.11911
 20
97.7945
 11
9.07837
 21
96.9449
  0
LINE
  8
0
 10
9.07837
 20
96.9449
 11
8.93097
 21
96.1685
  0
LINE
  8
0
 10
8.93097
 20
96.1685
 11
8.67645
 21
95.4686
  0
LINE
  8
0
 10
8.67645
 20
95.4686
 11
8.31482
 21
94.8424
  0
LINE
  8
0
 10
8.31482
 20
94.8424
 11
7.84653
 21
94.2921
  0
LINE
  8
0
 10
7.84653
 20
94.2921
 11
7.27112
 21
93.8174
  0
LINE
  8
0
 10
7.27112
 20
93.8174
 11
6.58813
 21
93.4169
  0
LINE
  8
0
 10
6.58813
 20
93.4169
 11
5.79803
 21
93.0914
  0
LINE
  8
0
 10
5.79803
 20
93.0914
 11
4.90128
 21
92.8415
  0
LINE
  8
0
 10
4.90128
 20
92.8415
 11
3.8974
 21
92.6666
  0
LINE
  8
0
 10
3.8974
 20
92.6666
 11
2.78549
 21
92.5668
  0
LINE
  8
0
 10
2.78549
 20
92.5668
 11
1.56921
 21
92.5426
  0
LINE
  8
0
 10
1.56921
 20
92.5426
 11
0.00320435
 21
95.421
  0
LINE
  8
0
 10
-29.9968
 20
95.421
 11
-29.9968
 21
99.6728
  0
LINE
  8
0
 10
-29.9968
 20
99.6728
 11
-29.9333
 21
99.8684
  0
LINE
  8
0
 10
-29.9333
 20
99.8684
 11
-29.5042
 21
99.063
  0
LINE
  8
0
 10
-29.5042
 20
99.063
 11
-29.0359
 21
98.2751
  0
LINE
  8
0
 10
-29.0359
 20
98.2751
 11
-28.5988
 21
97.6352
  0
LINE
  8
0
 10
-28.5988
 20
97.6352
 11
-28.1927
 21
97.1426
  0
LINE
  8
0
 10
-28.1927
 20
97.1426
 11
-27.8174
 21
96.7984
  0
LINE
  8
0
 10
-27.8174
 20
96.7984
 11
-27.4722
 21
96.6016
  0
LINE
  8
0
 10
-27.4722
 20
96.6016
 11
-27.1577
 21
96.5535
  0
LINE
  8
0
 10
-27.1577
 20
96.5535
 11
-26.8739
 21
96.6542
  0
LINE
  8
0
 10
-26.8739
 20
96.6542
 11
-26.6222
 21
96.9028
  0
LINE
  8
0
 10
-26.6222
 20
96.9028
 11
-26.4015
 21
97.2992
  0
LINE
  8
0
 10
-26.4015
 20
97.2992
 11
-26.2125
 21
97.8435
  0
LINE
  8
0
 10
-26.2125
 20
97.8435
 11
-26.0545
 21
98.5329
  0
LINE
  8
0
 10
-26.0545
 20
98.5329
 11
-22.4359
 21
98.5329
  0
LINE
  8
0
 10
-22.4359
 20
98.5329
 11
-20.8809
 21
97.7945
  0
LINE
  8
0
 10
-20.8809
 20
97.7945
 11
-20.9216
 21
96.9449
  0
LINE
  8
0
 10
-20.9216
 20
96.9449
 11
-21.069
 21
96.1685
  0
LINE
  8
0
 10
-21.069
 20
96.1685
 11
-21.3235
 21
95.4686
  0
LINE
  8
0
 10
-21.3235
 20
95.4686
 11
-21.6852
 21
94.8424
  0
LINE
  8
0
 10
-21.6852
 20
94.8424
 11
-22.1535
 21
94.2921
  0
LINE
  8
0
 10
-22.1535
 20
94.2921
 11
-22.7289
 21
93.8174
  0
LINE
  8
0
 10
-22.7289
 20
93.8174
 11
-23.4119
 21
93.4169
  0
LINE
  8
0
 10
-23.4119
 20
93.4169
 11
-24.202
 21
93.0914
  0
LINE
  8
0
 10
-24.202
 20
93.0914
 11
-25.0987
 21
92.8415
  0
LINE
  8
0
 10
-25.0987
 20
92.8415
 11
-26.1026
 21
92.6666
  0
LINE
  8
0
 10
-26.1026
 20
92.6666
 11
-27.2145
 21
92.5668
  0
LINE
  8
0
 10
-27.2145
 20
92.5668
 11
-28.4308
 21
92.5426
  0
LINE
  8
0
 10
-28.4308
 20
92.5426
 11
-29.9968
 21
95.421
  0
LINE
  8
0
 10
30.0032
 20
95.421
 11
30.0032
 21
99.6531
  0
LINE
  8
0
 10
30.0032
 20
99.6531
 11
32.3088
 21
92.5573
  0
LINE
  8
0
 10
32.3088
 20
92.5573
 11
31.5692
 21
92.5426
  0
LINE
  8
0
 10
31.5692
 20
92.5426
 11
30.0032
 21
95.421
  0
LINE
  8
0
 10
6.06583
 20
86.9405
 11
6.01089
 21
87.2678
  0
LINE
  8
0
 10
6.01089
 20
87.2678
 11
5.88501
 21
87.5223
  0
LINE
  8
0
 10
5.88501
 20
87.5223
 11
5.68863
 21
87.7045
  0
LINE
  8
0
 10
5.68863
 20
87.7045
 11
5.42084
 21
87.813
  0
LINE
  8
0
 10
5.42084
 20
87.813
 11
5.08209
 21
87.85
  0
LINE
  8
0
 10
5.08209
 20
87.85
 11
4.67285
 21
87.8134
  0
LINE
  8
0
 10
4.67285
 20
87.8134
 11
4.19357
 21
87.7045
  0
LINE
  8
0
 10
4.19357
 20
87.7045
 11
3.64288
 21
87.5232
  0
LINE
  8
0
 10
3.64288
 20
87.5232
 11
3.0217
 21
87.2696
  0
LINE
  8
0
 10
3.0217
 20
87.2696
 11
2.3291
 21
86.9432
  0
LINE
  8
0
 10
2.3291
 20
86.9432
 11
1.58386
 21
86.5541
  0
LINE
  8
0
 10
1.58386
 20
86.5541
 11
13.4807
 21
98.5283
  0
LINE
  8
0
 10
13.4807
 20
98.5283
 11
13.4807
 21
97.019
  0
LINE
  8
0
 10
13.4807
 20
97.019
 11
9.11819
 21
92.5394
  0
LINE
  8
0
 10
9.11819
 20
92.5394
 11
10.0804
 21
91.5849
  0
LINE
  8
0
 10
10.0804
 20
91.5849
 11
10.8192
 21
90.7152
  0
LINE
  8
0
 10
10.8192
 20
90.7152
 11
11.337
 21
89.9287
  0
LINE
  8
0
 10
11.337
 20
89.9287
 11
11.6331
 21
89.2242
  0
LINE
  8
0
 10
11.6331
 20
89.2242
 11
11.7087
 21
88.6012
  0
LINE
  8
0
 10
11.7087
 20
88.6012
 11
11.5636
 21
88.0624
  0
LINE
  8
0
 10
11.5636
 20
88.0624
 11
11.1974
 21
87.6047
  0
LINE
  8
0
 10
11.1974
 20
87.6047
 11
10.6091
 21
87.2279
  0
LINE
  8
0
 10
10.6091
 20
87.2279
 11
9.80026
 21
86.9345
  0
LINE
  8
0
 10
9.80026
 20
86.9345
 11
8.77029
 21
86.7226
  0
LINE
  8
0
 10
8.77029
 20
86.7226
 11
7.51831
 21
86.593
  0
LINE
  8
0
 10
7.51831
 20
86.593
 11
6.04935
 21
86.545
  0
LINE
  8
0
 10
6.04935
 20
86.545
 11
6.06583
 21
86.9405
  0
LINE
  8
0
 10
-23.9342
 20
86.9405
 11
-23.9891
 21
87.2678
  0
LINE
  8
0
 10
-23.9891
 20
87.2678
 11
-24.115
 21
87.5223
  0
LINE
  8
0
 10
-24.115
 20
87.5223
 11
-24.3114
 21
87.7045
  0
LINE
  8
0
 10
-24.3114
 20
87.7045
 11
-24.5792
 21
87.813
  0
LINE
  8
0
 10
-24.5792
 20
87.813
 11
-24.9179
 21
87.85
  0
LINE
  8
0
 10
-24.9179
 20
87.85
 11
-25.3271
 21
87.8134
  0
LINE
  8
0
 10
-25.3271
 20
87.8134
 11
-25.8064
 21
87.7045
  0
LINE
  8
0
 10
-25.8064
 20
87.7045
 11
-26.3571
 21
87.5232
  0
LINE
  8
0
 10
-26.3571
 20
87.5232
 11
-26.9783
 21
87.2696
  0
LINE
  8
0
 10
-26.9783
 20
87.2696
 11
-27.6709
 21
86.9432
  0
LINE
  8
0
 10
-27.6709
 20
86.9432
 11
-28.4161
 21
86.5541
  0
LINE
  8
0
 10
-28.4161
 20
86.5541
 11
-16.5193
 21
98.5283
  0
LINE
  8
0
 10
-16.5193
 20
98.5283
 11
-16.5193
 21
97.019
  0
LINE
  8
0
 10
-16.5193
 20
97.019
 11
-20.8818
 21
92.5394
  0
LINE
  8
0
 10
-20.8818
 20
92.5394
 11
-19.9196
 21
91.5849
  0
LINE
  8
0
 10
-19.9196
 20
91.5849
 11
-19.1808
 21
90.7152
  0
LINE
  8
0
 10
-19.1808
 20
90.7152
 11
-18.663
 21
89.9287
  0
LINE
  8
0
 10
-18.663
 20
89.9287
 11
-18.3669
 21
89.2242
  0
LINE
  8
0
 10
-18.3669
 20
89.2242
 11
-18.2913
 21
88.6012
  0
LINE
  8
0
 10
-18.2913
 20
88.6012
 11
-18.4364
 21
88.0624
  0
LINE
  8
0
 10
-18.4364
 20
88.0624
 11
-18.8026
 21
87.6047
  0
LINE
  8
0
 10
-18.8026
 20
87.6047
 11
-19.3909
 21
87.2279
  0
LINE
  8
0
 10
-19.3909
 20
87.2279
 11
-20.1997
 21
86.9345
  0
LINE
  8
0
 10
-20.1997
 20
86.9345
 11
-21.2297
 21
86.7226
  0
LINE
  8
0
 10
-21.2297
 20
86.7226
 11
-22.4817
 21
86.593
  0
LINE
  8
0
 10
-22.4817
 20
86.593
 11
-23.9507
 21
86.545
  0
LINE
  8
0
 10
-23.9507
 20
86.545
 11
-23.9342
 21
86.9405
  0
LINE
  8
0
 10
-2.98096
 20
86.5193
 11
-7.46063
 21
90.8818
  0
LINE
  8
0
 10
-7.46063
 20
90.8818
 11
-8.41507
 21
89.9196
  0
LINE
  8
0
 10
-8.41507
 20
89.9196
 11
-9.28482
 21
89.1808
  0
LINE
  8
0
 10
-9.28482
 20
89.1808
 11
-10.0713
 21
88.663
  0
LINE
  8
0
 10
-10.0713
 20
88.663
 11
-10.7758
 21
88.3669
  0
LINE
  8
0
 10
-10.7758
 20
88.3669
 11
-11.3988
 21
88.2913
  0
LINE
  8
0
 10
-11.3988
 20
88.2913
 11
-11.938
 21
88.4369
  0
LINE
  8
0
 10
-11.938
 20
88.4369
 11
-12.3953
 21
88.8026
  0
LINE
  8
0
 10
-12.3953
 20
88.8026
 11
-12.7721
 21
89.3909
  0
LINE
  8
0
 10
-12.7721
 20
89.3909
 11
-13.0655
 21
90.1997
  0
LINE
  8
0
 10
-13.0655
 20
90.1997
 11
-13.2774
 21
91.2297
  0
LINE
  8
0
 10
-13.2774
 20
91.2297
 11
-13.407
 21
92.4817
  0
LINE
  8
0
 10
-13.407
 20
92.4817
 11
-13.455
 21
93.9507
  0
LINE
  8
0
 10
-13.455
 20
93.9507
 11
-13.0595
 21
93.9342
  0
LINE
  8
0
 10
-13.0595
 20
93.9342
 11
-12.7322
 21
93.9891
  0
LINE
  8
0
 10
-12.7322
 20
93.9891
 11
-12.4777
 21
94.115
  0
LINE
  8
0
 10
-12.4777
 20
94.115
 11
-12.2955
 21
94.3114
  0
LINE
  8
0
 10
-12.2955
 20
94.3114
 11
-12.187
 21
94.5792
  0
LINE
  8
0
 10
-12.187
 20
94.5792
 11
-12.15
 21
94.9179
  0
LINE
  8
0
 10
-12.15
 20
94.9179
 11
-12.1866
 21
95.3271
  0
LINE
  8
0
 10
-12.1866
 20
95.3271
 11
-12.2955
 21
95.8064
  0
LINE
  8
0
 10
-12.2955
 20
95.8064
 11
-12.4768
 21
96.3571
  0
LINE
  8
0
 10
-12.4768
 20
96.3571
 11
-12.7304
 21
96.9783
  0
LINE
  8
0
 10
-12.7304
 20
96.9783
 11
-13.0568
 21
97.6709
  0
LINE
  8
0
 10
-13.0568
 20
97.6709
 11
-13.4459
 21
98.4161
  0
LINE
  8
0
 10
-13.4459
 20
98.4161
 11
-1.47171
 21
86.5193
  0
LINE
  8
0
 10
-1.47171
 20
86.5193
 11
-2.98096
 21
86.5193
  0
LINE
  8
0
 10
27.019
 20
86.5193
 11
22.5394
 21
90.8818
  0
LINE
  8
0
 10
22.5394
 20
90.8818
 11
21.5849
 21
89.9196
  0
LINE
  8
0
 10
21.5849
 20
89.9196
 11
20.7152
 21
89.1808
  0
LINE
  8
0
 10
20.7152
 20
89.1808
 11
19.9287
 21
88.663
  0
LINE
  8
0
 10
19.9287
 20
88.663
 11
19.2242
 21
88.3669
  0
LINE
  8
0
 10
19.2242
 20
88.3669
 11
18.6012
 21
88.2913
  0
LINE
  8
0
 10
18.6012
 20
88.2913
 11
18.062
 21
88.4369
  0
LINE
  8
0
 10
18.062
 20
88.4369
 11
17.6047
 21
88.8026
  0
LINE
  8
0
 10
17.6047
 20
88.8026
 11
17.2279
 21
89.3909
  0
LINE
  8
0
 10
17.2279
 20
89.3909
 11
16.9345
 21
90.1997
  0
LINE
  8
0
 10
16.9345
 20
90.1997
 11
16.7226
 21
91.2297
  0
LINE
  8
0
 10
16.7226
 20
91.2297
 11
16.593
 21
92.4817
  0
LINE
  8
0
 10
16.593
 20
92.4817
 11
16.545
 21
93.9507
  0
LINE
  8
0
 10
16.545
 20
93.9507
 11
16.9405
 21
93.9342
  0
LINE
  8
0
 10
16.9405
 20
93.9342
 11
17.2678
 21
93.9891
  0
LINE
  8
0
 10
17.2678
 20
93.9891
 11
17.5223
 21
94.115
  0
LINE
  8
0
 10
17.5223
 20
94.115
 11
17.7045
 21
94.3114
  0
LINE
  8
0
 10
17.7045
 20
94.3114
 11
17.813
 21
94.5792
  0
LINE
  8
0
 10
17.813
 20
94.5792
 11
17.85
 21
94.9179
  0
LINE
  8
0
 10
17.85
 20
94.9179
 11
17.8134
 21
95.3271
  0
LINE
  8
0
 10
17.8134
 20
95.3271
 11
17.7045
 21
95.8064
  0
LINE
  8
0
 10
17.7045
 20
95.8064
 11
17.5232
 21
96.3571
  0
LINE
  8
0
 10
17.5232
 20
96.3571
 11
17.2696
 21
96.9783
  0
LINE
  8
0
 10
17.2696
 20
96.9783
 11
16.9432
 21
97.6709
  0
LINE
  8
0
 10
16.9432
 20
97.6709
 11
16.5541
 21
98.4161
  0
LINE
  8
0
 10
16.5541
 20
98.4161
 11
28.5283
 21
86.5193
  0
LINE
  8
0
 10
28.5283
 20
86.5193
 11
27.019
 21
86.5193
  0
LINE
  8
0
 10
-32.8435
 20
90.9115
 11
-31.4671
 21
95.1476
  0
LINE
  8
0
 10
-31.4671
 20
95.1476
 11
-31.4671
 21
92.4355
  0
LINE
  8
0
 10
-31.4671
 20
92.4355
 11
-32.2055
 21
90.8809
  0
LINE
  8
0
 10
-32.2055
 20
90.8809
 11
-32.8435
 21
90.9115
  0
LINE
  8
0
 10
-32.981
 20
86.5193
 11
-33.9606
 21
87.4734
  0
LINE
  8
0
 10
-33.9606
 20
87.4734
 11
-33.5876
 21
88.6215
  0
LINE
  8
0
 10
-33.5876
 20
88.6215
 11
-31.4717
 21
86.5193
  0
LINE
  8
0
 10
-31.4717
 20
86.5193
 11
-32.981
 21
86.5193
  0
LINE
  8
0
 10
33.6
 20
88.5833
 11
33.9153
 21
87.6129
  0
LINE
  8
0
 10
33.9153
 20
87.6129
 11
33.6429
 21
87.5232
  0
LINE
  8
0
 10
33.6429
 20
87.5232
 11
33.0217
 21
87.2696
  0
LINE
  8
0
 10
33.0217
 20
87.2696
 11
32.3291
 21
86.9432
  0
LINE
  8
0
 10
32.3291
 20
86.9432
 11
31.5839
 21
86.5541
  0
LINE
  8
0
 10
31.5839
 20
86.5541
 11
33.6
 21
88.5833
  0
LINE
  8
0
 10
31.4717
 20
83.4807
 11
32.981
 21
83.4807
  0
LINE
  8
0
 10
32.981
 20
83.4807
 11
36.3119
 21
80.2369
  0
LINE
  8
0
 10
36.3119
 20
80.2369
 11
37.0629
 21
77.9256
  0
LINE
  8
0
 10
37.0629
 20
77.9256
 11
31.4717
 21
83.4807
  0
LINE
  8
0
 10
-28.5283
 20
83.4807
 11
-27.019
 21
83.4807
  0
LINE
  8
0
 10
-27.019
 20
83.4807
 11
-22.5394
 21
79.1182
  0
LINE
  8
0
 10
-22.5394
 20
79.1182
 11
-21.5849
 21
80.0804
  0
LINE
  8
0
 10
-21.5849
 20
80.0804
 11
-20.7152
 21
80.8192
  0
LINE
  8
0
 10
-20.7152
 20
80.8192
 11
-19.9287
 21
81.337
  0
LINE
  8
0
 10
-19.9287
 20
81.337
 11
-19.2242
 21
81.6331
  0
LINE
  8
0
 10
-19.2242
 20
81.6331
 11
-18.6012
 21
81.7087
  0
LINE
  8
0
 10
-18.6012
 20
81.7087
 11
-18.062
 21
81.5631
  0
LINE
  8
0
 10
-18.062
 20
81.5631
 11
-17.6047
 21
81.1974
  0
LINE
  8
0
 10
-17.6047
 20
81.1974
 11
-17.2279
 21
80.6091
  0
LINE
  8
0
 10
-17.2279
 20
80.6091
 11
-16.9345
 21
79.8003
  0
LINE
  8
0
 10
-16.9345
 20
79.8003
 11
-16.7226
 21
78.7703
  0
LINE
  8
0
 10
-16.7226
 20
78.7703
 11
-16.593
 21
77.5183
  0
LINE
  8
0
 10
-16.593
 20
77.5183
 11
-16.545
 21
76.0493
  0
LINE
  8
0
 10
-16.545
 20
76.0493
 11
-16.9405
 21
76.0658
  0
LINE
  8
0
 10
-16.9405
 20
76.0658
 11
-17.2678
 21
76.0109
  0
LINE
  8
0
 10
-17.2678
 20
76.0109
 11
-17.5223
 21
75.885
  0
LINE
  8
0
 10
-17.5223
 20
75.885
 11
-17.7045
 21
75.6886
  0
LINE
  8
0
 10
-17.7045
 20
75.6886
 11
-17.813
 21
75.4208
  0
LINE
  8
0
 10
-17.813
 20
75.4208
 11
-17.85
 21
75.0821
  0
LINE
  8
0
 10
-17.85
 20
75.0821
 11
-17.8134
 21
74.6729
  0
LINE
  8
0
 10
-17.8134
 20
74.6729
 11
-17.7045
 21
74.1936
  0
LINE
  8
0
 10
-17.7045
 20
74.1936
 11
-17.5232
 21
73.6429
  0
LINE
  8
0
 10
-17.5232
 20
73.6429
 11
-17.2696
 21
73.0217
  0
LINE
  8
0
 10
-17.2696
 20
73.0217
 11
-16.9432
 21
72.3291
  0
LINE
  8
0
 10
-16.9432
 20
72.3291
 11
-16.5541
 21
71.5839
  0
LINE
  8
0
 10
-16.5541
 20
71.5839
 11
-28.5283
 21
83.4807
  0
LINE
  8
0
 10
1.47171
 20
83.4807
 11
2.98096
 21
83.4807
  0
LINE
  8
0
 10
2.98096
 20
83.4807
 11
7.46063
 21
79.1182
  0
LINE
  8
0
 10
7.46063
 20
79.1182
 11
8.41507
 21
80.0804
  0
LINE
  8
0
 10
8.41507
 20
80.0804
 11
9.28482
 21
80.8192
  0
LINE
  8
0
 10
9.28482
 20
80.8192
 11
10.0713
 21
81.337
  0
LINE
  8
0
 10
10.0713
 20
81.337
 11
10.7758
 21
81.6331
  0
LINE
  8
0
 10
10.7758
 20
81.6331
 11
11.3988
 21
81.7087
  0
LINE
  8
0
 10
11.3988
 20
81.7087
 11
11.938
 21
81.5631
  0
LINE
  8
0
 10
11.938
 20
81.5631
 11
12.3953
 21
81.1974
  0
LINE
  8
0
 10
12.3953
 20
81.1974
 11
12.7721
 21
80.6091
  0
LINE
  8
0
 10
12.7721
 20
80.6091
 11
13.0655
 21
79.8003
  0
LINE
  8
0
 10
13.0655
 20
79.8003
 11
13.2774
 21
78.7703
  0
LINE
  8
0
 10
13.2774
 20
78.7703
 11
13.407
 21
77.5183
  0
LINE
  8
0
 10
13.407
 20
77.5183
 11
13.455
 21
76.0493
  0
LINE
  8
0
 10
13.455
 20
76.0493
 11
13.0595
 21
76.0658
  0
LINE
  8
0
 10
13.0595
 20
76.0658
 11
12.7322
 21
76.0109
  0
LINE
  8
0
 10
12.7322
 20
76.0109
 11
12.4777
 21
75.885
  0
LINE
  8
0
 10
12.4777
 20
75.885
 11
12.2955
 21
75.6886
  0
LINE
  8
0
 10
12.2955
 20
75.6886
 11
12.187
 21
75.4208
  0
LINE
  8
0
 10
12.187
 20
75.4208
 11
12.15
 21
75.0821
  0
LINE
  8
0
 10
12.15
 20
75.0821
 11
12.1866
 21
74.6729
  0
LINE
  8
0
 10
12.1866
 20
74.6729
 11
12.2955
 21
74.1936
  0
LINE
  8
0
 10
12.2955
 20
74.1936
 11
12.4768
 21
73.6429
  0
LINE
  8
0
 10
12.4768
 20
73.6429
 11
12.7304
 21
73.0217
  0
LINE
  8
0
 10
12.7304
 20
73.0217
 11
13.0568
 21
72.3291
  0
LINE
  8
0
 10
13.0568
 20
72.3291
 11
13.4459
 21
71.5839
  0
LINE
  8
0
 10
13.4459
 20
71.5839
 11
1.47171
 21
83.4807
  0
LINE
  8
0
 10
-13.4807
 20
72.981
 11
-9.11819
 21
77.4606
  0
LINE
  8
0
 10
-9.11819
 20
77.4606
 11
-10.0804
 21
78.4151
  0
LINE
  8
0
 10
-10.0804
 20
78.4151
 11
-10.8192
 21
79.2848
  0
LINE
  8
0
 10
-10.8192
 20
79.2848
 11
-11.337
 21
80.0713
  0
LINE
  8
0
 10
-11.337
 20
80.0713
 11
-11.6331
 21
80.7758
  0
LINE
  8
0
 10
-11.6331
 20
80.7758
 11
-11.7087
 21
81.3988
  0
LINE
  8
0
 10
-11.7087
 20
81.3988
 11
-11.5636
 21
81.9376
  0
LINE
  8
0
 10
-11.5636
 20
81.9376
 11
-11.1974
 21
82.3953
  0
LINE
  8
0
 10
-11.1974
 20
82.3953
 11
-10.6091
 21
82.7721
  0
LINE
  8
0
 10
-10.6091
 20
82.7721
 11
-9.80026
 21
83.0655
  0
LINE
  8
0
 10
-9.80026
 20
83.0655
 11
-8.77029
 21
83.2774
  0
LINE
  8
0
 10
-8.77029
 20
83.2774
 11
-7.51831
 21
83.407
  0
LINE
  8
0
 10
-7.51831
 20
83.407
 11
-6.04935
 21
83.455
  0
LINE
  8
0
 10
-6.04935
 20
83.455
 11
-6.06583
 21
83.0595
  0
LINE
  8
0
 10
-6.06583
 20
83.0595
 11
-6.01089
 21
82.7322
  0
LINE
  8
0
 10
-6.01089
 20
82.7322
 11
-5.88501
 21
82.4777
  0
LINE
  8
0
 10
-5.88501
 20
82.4777
 11
-5.68863
 21
82.2955
  0
LINE
  8
0
 10
-5.68863
 20
82.2955
 11
-5.42084
 21
82.187
  0
LINE
  8
0
 10
-5.42084
 20
82.187
 11
-5.08209
 21
82.15
  0
LINE
  8
0
 10
-5.08209
 20
82.15
 11
-4.67285
 21
82.1866
  0
LINE
  8
0
 10
-4.67285
 20
82.1866
 11
-4.19357
 21
82.2955
  0
LINE
  8
0
 10
-4.19357
 20
82.2955
 11
-3.64288
 21
82.4768
  0
LINE
  8
0
 10
-3.64288
 20
82.4768
 11
-3.0217
 21
82.7304
  0
LINE
  8
0
 10
-3.0217
 20
82.7304
 11
-2.3291
 21
83.0568
  0
LINE
  8
0
 10
-2.3291
 20
83.0568
 11
-1.58386
 21
83.4459
  0
LINE
  8
0
 10
-1.58386
 20
83.4459
 11
-13.4807
 21
71.4717
  0
LINE
  8
0
 10
-13.4807
 20
71.4717
 11
-13.4807
 21
72.981
  0
LINE
  8
0
 10
16.5193
 20
72.981
 11
20.8818
 21
77.4606
  0
LINE
  8
0
 10
20.8818
 20
77.4606
 11
19.9196
 21
78.4151
  0
LINE
  8
0
 10
19.9196
 20
78.4151
 11
19.1808
 21
79.2848
  0
LINE
  8
0
 10
19.1808
 20
79.2848
 11
18.663
 21
80.0713
  0
LINE
  8
0
 10
18.663
 20
80.0713
 11
18.3669
 21
80.7758
  0
LINE
  8
0
 10
18.3669
 20
80.7758
 11
18.2913
 21
81.3988
  0
LINE
  8
0
 10
18.2913
 20
81.3988
 11
18.4364
 21
81.9376
  0
LINE
  8
0
 10
18.4364
 20
81.9376
 11
18.8026
 21
82.3953
  0
LINE
  8
0
 10
18.8026
 20
82.3953
 11
19.3909
 21
82.7721
  0
LINE
  8
0
 10
19.3909
 20
82.7721
 11
20.1997
 21
83.0655
  0
LINE
  8
0
 10
20.1997
 20
83.0655
 11
21.2297
 21
83.2774
  0
LINE
  8
0
 10
21.2297
 20
83.2774
 11
22.4817
 21
83.407
  0
LINE
  8
0
 10
22.4817
 20
83.407
 11
23.9507
 21
83.455
  0
LINE
  8
0
 10
23.9507
 20
83.455
 11
23.9342
 21
83.0595
  0
LINE
  8
0
 10
23.9342
 20
83.0595
 11
23.9891
 21
82.7322
  0
LINE
  8
0
 10
23.9891
 20
82.7322
 11
24.115
 21
82.4777
  0
LINE
  8
0
 10
24.115
 20
82.4777
 11
24.3114
 21
82.2955
  0
LINE
  8
0
 10
24.3114
 20
82.2955
 11
24.5792
 21
82.187
  0
LINE
  8
0
 10
24.5792
 20
82.187
 11
24.9179
 21
82.15
  0
LINE
  8
0
 10
24.9179
 20
82.15
 11
25.3271
 21
82.1866
  0
LINE
  8
0
 10
25.3271
 20
82.1866
 11
25.8064
 21
82.2955
  0
LINE
  8
0
 10
25.8064
 20
82.2955
 11
26.3571
 21
82.4768
  0
LINE
  8
0
 10
26.3571
 20
82.4768
 11
26.9783
 21
82.7304
  0
LINE
  8
0
 10
26.9783
 20
82.7304
 11
27.6709
 21
83.0568
  0
LINE
  8
0
 10
27.6709
 20
83.0568
 11
28.4161
 21
83.4459
  0
LINE
  8
0
 10
28.4161
 20
83.4459
 11
16.5193
 21
71.4717
  0
LINE
  8
0
 10
16.5193
 20
71.4717
 11
16.5193
 21
72.981
  0
LINE
  8
0
 10
-35.6483
 20
82.2792
 11
-35.4208
 21
82.187
  0
LINE
  8
0
 10
-35.4208
 20
82.187
 11
-35.0821
 21
82.15
  0
LINE
  8
0
 10
-35.0821
 20
82.15
 11
-34.6729
 21
82.1866
  0
LINE
  8
0
 10
-34.6729
 20
82.1866
 11
-34.1936
 21
82.2955
  0
LINE
  8
0
 10
-34.1936
 20
82.2955
 11
-33.6429
 21
82.4768
  0
LINE
  8
0
 10
-33.6429
 20
82.4768
 11
-33.0217
 21
82.7304
  0
LINE
  8
0
 10
-33.0217
 20
82.7304
 11
-32.3291
 21
83.0568
  0
LINE
  8
0
 10
-32.3291
 20
83.0568
 11
-31.5839
 21
83.4459
  0
LINE
  8
0
 10
-31.5839
 20
83.4459
 11
-37.0602
 21
77.934
  0
LINE
  8
0
 10
-37.0602
 20
77.934
 11
-35.6483
 21
82.2792
  0
LINE
  8
0
 10
-29.9876
 20
70.0032
 11
-29.063
 21
70.4958
  0
LINE
  8
0
 10
-29.063
 20
70.4958
 11
-28.2751
 21
70.9641
  0
LINE
  8
0
 10
-28.2751
 20
70.9641
 11
-27.6352
 21
71.4012
  0
LINE
  8
0
 10
-27.6352
 20
71.4012
 11
-27.1426
 21
71.8073
  0
LINE
  8
0
 10
-27.1426
 20
71.8073
 11
-26.7984
 21
72.1826
  0
LINE
  8
0
 10
-26.7984
 20
72.1826
 11
-26.6016
 21
72.5278
  0
LINE
  8
0
 10
-26.6016
 20
72.5278
 11
-26.5535
 21
72.8423
  0
LINE
  8
0
 10
-26.5535
 20
72.8423
 11
-26.6542
 21
73.1261
  0
LINE
  8
0
 10
-26.6542
 20
73.1261
 11
-26.9028
 21
73.3778
  0
LINE
  8
0
 10
-26.9028
 20
73.3778
 11
-27.2992
 21
73.5985
  0
LINE
  8
0
 10
-27.2992
 20
73.5985
 11
-27.8435
 21
73.7875
  0
LINE
  8
0
 10
-27.8435
 20
73.7875
 11
-28.5329
 21
73.9455
  0
LINE
  8
0
 10
-28.5329
 20
73.9455
 11
-28.5329
 21
77.5645
  0
LINE
  8
0
 10
-28.5329
 20
77.5645
 11
-27.7945
 21
79.1191
  0
LINE
  8
0
 10
-27.7945
 20
79.1191
 11
-26.9449
 21
79.0784
  0
LINE
  8
0
 10
-26.9449
 20
79.0784
 11
-26.1685
 21
78.931
  0
LINE
  8
0
 10
-26.1685
 20
78.931
 11
-25.4686
 21
78.6765
  0
LINE
  8
0
 10
-25.4686
 20
78.6765
 11
-24.8424
 21
78.3148
  0
LINE
  8
0
 10
-24.8424
 20
78.3148
 11
-24.2921
 21
77.8465
  0
LINE
  8
0
 10
-24.2921
 20
77.8465
 11
-23.817
 21
77.2707
  0
LINE
  8
0
 10
-23.817
 20
77.2707
 11
-23.4169
 21
76.5881
  0
LINE
  8
0
 10
-23.4169
 20
76.5881
 11
-23.0914
 21
75.798
  0
LINE
  8
0
 10
-23.0914
 20
75.798
 11
-22.8415
 21
74.9013
  0
LINE
  8
0
 10
-22.8415
 20
74.9013
 11
-22.6666
 21
73.8974
  0
LINE
  8
0
 10
-22.6666
 20
73.8974
 11
-22.5668
 21
72.7855
  0
LINE
  8
0
 10
-22.5668
 20
72.7855
 11
-22.5426
 21
71.5692
  0
LINE
  8
0
 10
-22.5426
 20
71.5692
 11
-25.421
 21
70.0032
  0
LINE
  8
0
 10
-25.421
 20
70.0032
 11
-29.9876
 21
70.0032
  0
LINE
  8
0
 10
30.0124
 20
70.0032
 11
30.937
 21
70.4958
  0
LINE
  8
0
 10
30.937
 20
70.4958
 11
31.7249
 21
70.9641
  0
LINE
  8
0
 10
31.7249
 20
70.9641
 11
32.3648
 21
71.4012
  0
LINE
  8
0
 10
32.3648
 20
71.4012
 11
32.8574
 21
71.8073
  0
LINE
  8
0
 10
32.8574
 20
71.8073
 11
33.2016
 21
72.1826
  0
LINE
  8
0
 10
33.2016
 20
72.1826
 11
33.3984
 21
72.5278
  0
LINE
  8
0
 10
33.3984
 20
72.5278
 11
33.4465
 21
72.8423
  0
LINE
  8
0
 10
33.4465
 20
72.8423
 11
33.3458
 21
73.1261
  0
LINE
  8
0
 10
33.3458
 20
73.1261
 11
33.0972
 21
73.3778
  0
LINE
  8
0
 10
33.0972
 20
73.3778
 11
32.7008
 21
73.5985
  0
LINE
  8
0
 10
32.7008
 20
73.5985
 11
32.1565
 21
73.7875
  0
LINE
  8
0
 10
32.1565
 20
73.7875
 11
31.4671
 21
73.9455
  0
LINE
  8
0
 10
31.4671
 20
73.9455
 11
31.4671
 21
77.5645
  0
LINE
  8
0
 10
31.4671
 20
77.5645
 11
32.2055
 21
79.1191
  0
LINE
  8
0
 10
32.2055
 20
79.1191
 11
33.0551
 21
79.0784
  0
LINE
  8
0
 10
33.0551
 20
79.0784
 11
33.8315
 21
78.931
  0
LINE
  8
0
 10
33.8315
 20
78.931
 11
34.5314
 21
78.6765
  0
LINE
  8
0
 10
34.5314
 20
78.6765
 11
35.1576
 21
78.3148
  0
LINE
  8
0
 10
35.1576
 20
78.3148
 11
35.7079
 21
77.8465
  0
LINE
  8
0
 10
35.7079
 20
77.8465
 11
36.183
 21
77.2707
  0
LINE
  8
0
 10
36.183
 20
77.2707
 11
36.5831
 21
76.5881
  0
LINE
  8
0
 10
36.5831
 20
76.5881
 11
36.9086
 21
75.798
  0
LINE
  8
0
 10
36.9086
 20
75.798
 11
37.1585
 21
74.9013
  0
LINE
  8
0
 10
37.1585
 20
74.9013
 11
37.3334
 21
73.8974
  0
LINE
  8
0
 10
37.3334
 20
73.8974
 11
37.4332
 21
72.7855
  0
LINE
  8
0
 10
37.4332
 20
72.7855
 11
37.4574
 21
71.5692
  0
LINE
  8
0
 10
37.4574
 20
71.5692
 11
34.579
 21
70.0032
  0
LINE
  8
0
 10
34.579
 20
70.0032
 11
30.0124
 21
70.0032
  0
LINE
  8
0
 10
0.0123596
 20
70.0032
 11
0.937042
 21
70.4958
  0
LINE
  8
0
 10
0.937042
 20
70.4958
 11
1.72485
 21
70.9641
  0
LINE
  8
0
 10
1.72485
 20
70.9641
 11
2.36481
 21
71.4012
  0
LINE
  8
0
 10
2.36481
 20
71.4012
 11
2.85736
 21
71.8073
  0
LINE
  8
0
 10
2.85736
 20
71.8073
 11
3.2016
 21
72.1826
  0
LINE
  8
0
 10
3.2016
 20
72.1826
 11
3.39844
 21
72.5278
  0
LINE
  8
0
 10
3.39844
 20
72.5278
 11
3.4465
 21
72.8423
  0
LINE
  8
0
 10
3.4465
 20
72.8423
 11
3.34579
 21
73.1261
  0
LINE
  8
0
 10
3.34579
 20
73.1261
 11
3.09723
 21
73.3778
  0
LINE
  8
0
 10
3.09723
 20
73.3778
 11
2.70081
 21
73.5985
  0
LINE
  8
0
 10
2.70081
 20
73.5985
 11
2.15652
 21
73.7875
  0
LINE
  8
0
 10
2.15652
 20
73.7875
 11
1.46713
 21
73.9455
  0
LINE
  8
0
 10
1.46713
 20
73.9455
 11
1.46713
 21
77.5645
  0
LINE
  8
0
 10
1.46713
 20
77.5645
 11
2.20551
 21
79.1191
  0
LINE
  8
0
 10
2.20551
 20
79.1191
 11
3.05511
 21
79.0784
  0
LINE
  8
0
 10
3.05511
 20
79.0784
 11
3.83148
 21
78.931
  0
LINE
  8
0
 10
3.83148
 20
78.931
 11
4.5314
 21
78.6765
  0
LINE
  8
0
 10
4.5314
 20
78.6765
 11
5.15762
 21
78.3148
  0
LINE
  8
0
 10
5.15762
 20
78.3148
 11
5.70786
 21
77.8465
  0
LINE
  8
0
 10
5.70786
 20
77.8465
 11
6.18301
 21
77.2707
  0
LINE
  8
0
 10
6.18301
 20
77.2707
 11
6.5831
 21
76.5881
  0
LINE
  8
0
 10
6.5831
 20
76.5881
 11
6.90857
 21
75.798
  0
LINE
  8
0
 10
6.90857
 20
75.798
 11
7.15851
 21
74.9013
  0
LINE
  8
0
 10
7.15851
 20
74.9013
 11
7.33337
 21
73.8974
  0
LINE
  8
0
 10
7.33337
 20
73.8974
 11
7.43317
 21
72.7855
  0
LINE
  8
0
 10
7.43317
 20
72.7855
 11
7.45743
 21
71.5692
  0
LINE
  8
0
 10
7.45743
 20
71.5692
 11
4.57901
 21
70.0032
  0
LINE
  8
0
 10
4.57901
 20
70.0032
 11
0.0123596
 21
70.0032
  0
LINE
  8
0
 10
29.5042
 20
70.937
 11
29.0359
 21
71.7249
  0
LINE
  8
0
 10
29.0359
 20
71.7249
 11
28.5988
 21
72.3648
  0
LINE
  8
0
 10
28.5988
 20
72.3648
 11
28.1927
 21
72.8574
  0
LINE
  8
0
 10
28.1927
 20
72.8574
 11
27.8174
 21
73.2016
  0
LINE
  8
0
 10
27.8174
 20
73.2016
 11
27.4722
 21
73.3984
  0
LINE
  8
0
 10
27.4722
 20
73.3984
 11
27.1577
 21
73.4465
  0
LINE
  8
0
 10
27.1577
 20
73.4465
 11
26.8739
 21
73.3458
  0
LINE
  8
0
 10
26.8739
 20
73.3458
 11
26.6222
 21
73.0972
  0
LINE
  8
0
 10
26.6222
 20
73.0972
 11
26.4015
 21
72.7008
  0
LINE
  8
0
 10
26.4015
 20
72.7008
 11
26.2125
 21
72.1565
  0
LINE
  8
0
 10
26.2125
 20
72.1565
 11
26.0545
 21
71.4671
  0
LINE
  8
0
 10
26.0545
 20
71.4671
 11
22.4359
 21
71.4671
  0
LINE
  8
0
 10
22.4359
 20
71.4671
 11
20.8809
 21
72.2055
  0
LINE
  8
0
 10
20.8809
 20
72.2055
 11
20.9216
 21
73.0551
  0
LINE
  8
0
 10
20.9216
 20
73.0551
 11
21.069
 21
73.8315
  0
LINE
  8
0
 10
21.069
 20
73.8315
 11
21.3235
 21
74.5314
  0
LINE
  8
0
 10
21.3235
 20
74.5314
 11
21.6847
 21
75.1572
  0
LINE
  8
0
 10
21.6847
 20
75.1572
 11
22.153
 21
75.7074
  0
LINE
  8
0
 10
22.153
 20
75.7074
 11
22.7289
 21
76.1826
  0
LINE
  8
0
 10
22.7289
 20
76.1826
 11
23.4119
 21
76.5831
  0
LINE
  8
0
 10
23.4119
 20
76.5831
 11
24.202
 21
76.9086
  0
LINE
  8
0
 10
24.202
 20
76.9086
 11
25.0987
 21
77.1585
  0
LINE
  8
0
 10
25.0987
 20
77.1585
 11
26.1026
 21
77.3334
  0
LINE
  8
0
 10
26.1026
 20
77.3334
 11
27.2145
 21
77.4332
  0
LINE
  8
0
 10
27.2145
 20
77.4332
 11
28.4308
 21
77.4574
  0
LINE
  8
0
 10
28.4308
 20
77.4574
 11
29.9968
 21
74.579
  0
LINE
  8
0
 10
29.9968
 20
74.579
 11
29.9968
 21
70.0124
  0
LINE
  8
0
 10
29.9968
 20
70.0124
 11
29.5042
 21
70.937
  0
LINE
  8
0
 10
-0.495758
 20
70.937
 11
-0.96405
 21
71.7249
  0
LINE
  8
0
 10
-0.96405
 20
71.7249
 11
-1.40121
 21
72.3648
  0
LINE
  8
0
 10
-1.40121
 20
72.3648
 11
-1.80725
 21
72.8574
  0
LINE
  8
0
 10
-1.80725
 20
72.8574
 11
-2.18262
 21
73.2016
  0
LINE
  8
0
 10
-2.18262
 20
73.2016
 11
-2.52777
 21
73.3984
  0
LINE
  8
0
 10
-2.52777
 20
73.3984
 11
-2.84225
 21
73.4465
  0
LINE
  8
0
 10
-2.84225
 20
73.4465
 11
-3.12607
 21
73.3458
  0
LINE
  8
0
 10
-3.12607
 20
73.3458
 11
-3.37784
 21
73.0972
  0
LINE
  8
0
 10
-3.37784
 20
73.0972
 11
-3.59848
 21
72.7008
  0
LINE
  8
0
 10
-3.59848
 20
72.7008
 11
-3.78754
 21
72.1565
  0
LINE
  8
0
 10
-3.78754
 20
72.1565
 11
-3.94547
 21
71.4671
  0
LINE
  8
0
 10
-3.94547
 20
71.4671
 11
-7.56409
 21
71.4671
  0
LINE
  8
0
 10
-7.56409
 20
71.4671
 11
-9.11911
 21
72.2055
  0
LINE
  8
0
 10
-9.11911
 20
72.2055
 11
-9.07837
 21
73.0551
  0
LINE
  8
0
 10
-9.07837
 20
73.0551
 11
-8.93097
 21
73.8315
  0
LINE
  8
0
 10
-8.93097
 20
73.8315
 11
-8.67645
 21
74.5314
  0
LINE
  8
0
 10
-8.67645
 20
74.5314
 11
-8.31528
 21
75.1572
  0
LINE
  8
0
 10
-8.31528
 20
75.1572
 11
-7.84698
 21
75.7074
  0
LINE
  8
0
 10
-7.84698
 20
75.7074
 11
-7.27112
 21
76.1826
  0
LINE
  8
0
 10
-7.27112
 20
76.1826
 11
-6.58813
 21
76.5831
  0
LINE
  8
0
 10
-6.58813
 20
76.5831
 11
-5.79803
 21
76.9086
  0
LINE
  8
0
 10
-5.79803
 20
76.9086
 11
-4.90128
 21
77.1585
  0
LINE
  8
0
 10
-4.90128
 20
77.1585
 11
-3.8974
 21
77.3334
  0
LINE
  8
0
 10
-3.8974
 20
77.3334
 11
-2.78549
 21
77.4332
  0
LINE
  8
0
 10
-2.78549
 20
77.4332
 11
-1.56921
 21
77.4574
  0
LINE
  8
0
 10
-1.56921
 20
77.4574
 11
-0.00320435
 21
74.579
  0
LINE
  8
0
 10
-0.00320435
 20
74.579
 11
-0.00320435
 21
70.0124
  0
LINE
  8
0
 10
-0.00320435
 20
70.0124
 11
-0.495758
 21
70.937
  0
LINE
  8
0
 10
-30.4958
 20
70.937
 11
-30.9641
 21
71.7249
  0
LINE
  8
0
 10
-30.9641
 20
71.7249
 11
-31.4012
 21
72.3648
  0
LINE
  8
0
 10
-31.4012
 20
72.3648
 11
-31.8073
 21
72.8574
  0
LINE
  8
0
 10
-31.8073
 20
72.8574
 11
-32.1826
 21
73.2016
  0
LINE
  8
0
 10
-32.1826
 20
73.2016
 11
-32.5278
 21
73.3984
  0
LINE
  8
0
 10
-32.5278
 20
73.3984
 11
-32.8423
 21
73.4465
  0
LINE
  8
0
 10
-32.8423
 20
73.4465
 11
-33.1261
 21
73.3458
  0
LINE
  8
0
 10
-33.1261
 20
73.3458
 11
-33.3778
 21
73.0972
  0
LINE
  8
0
 10
-33.3778
 20
73.0972
 11
-33.5985
 21
72.7008
  0
LINE
  8
0
 10
-33.5985
 20
72.7008
 11
-33.7875
 21
72.1565
  0
LINE
  8
0
 10
-33.7875
 20
72.1565
 11
-33.9455
 21
71.4671
  0
LINE
  8
0
 10
-33.9455
 20
71.4671
 11
-37.5641
 21
71.4671
  0
LINE
  8
0
 10
-37.5641
 20
71.4671
 11
-38.9479
 21
72.1242
  0
LINE
  8
0
 10
-38.9479
 20
72.1242
 11
-37.7604
 21
75.7788
  0
LINE
  8
0
 10
-37.7604
 20
75.7788
 11
-37.2711
 21
76.1826
  0
LINE
  8
0
 10
-37.2711
 20
76.1826
 11
-36.5881
 21
76.5831
  0
LINE
  8
0
 10
-36.5881
 20
76.5831
 11
-35.798
 21
76.9086
  0
LINE
  8
0
 10
-35.798
 20
76.9086
 11
-34.9013
 21
77.1585
  0
LINE
  8
0
 10
-34.9013
 20
77.1585
 11
-33.8974
 21
77.3334
  0
LINE
  8
0
 10
-33.8974
 20
77.3334
 11
-32.7855
 21
77.4332
  0
LINE
  8
0
 10
-32.7855
 20
77.4332
 11
-31.5692
 21
77.4574
  0
LINE
  8
0
 10
-31.5692
 20
77.4574
 11
-30.0032
 21
74.579
  0
LINE
  8
0
 10
-30.0032
 20
74.579
 11
-30.0032
 21
70.0124
  0
LINE
  8
0
 10
-30.0032
 20
70.0124
 11
-30.4958
 21
70.937
  0
LINE
  8
0
 10
26.9449
 20
60.9216
 11
26.1685
 21
61.069
  0
LINE
  8
0
 10
26.1685
 20
61.069
 11
25.4686
 21
61.3235
  0
LINE
  8
0
 10
25.4686
 20
61.3235
 11
24.8424
 21
61.6852
  0
LINE
  8
0
 10
24.8424
 20
61.6852
 11
24.2921
 21
62.1535
  0
LINE
  8
0
 10
24.2921
 20
62.1535
 11
23.817
 21
62.7293
  0
LINE
  8
0
 10
23.817
 20
62.7293
 11
23.4169
 21
63.4119
  0
LINE
  8
0
 10
23.4169
 20
63.4119
 11
23.0914
 21
64.202
  0
LINE
  8
0
 10
23.0914
 20
64.202
 11
22.8415
 21
65.0987
  0
LINE
  8
0
 10
22.8415
 20
65.0987
 11
22.6666
 21
66.1026
  0
LINE
  8
0
 10
22.6666
 20
66.1026
 11
22.5668
 21
67.2145
  0
LINE
  8
0
 10
22.5668
 20
67.2145
 11
22.5426
 21
68.4308
  0
LINE
  8
0
 10
22.5426
 20
68.4308
 11
25.421
 21
69.9968
  0
LINE
  8
0
 10
25.421
 20
69.9968
 11
29.9876
 21
69.9968
  0
LINE
  8
0
 10
29.9876
 20
69.9968
 11
29.063
 21
69.5042
  0
LINE
  8
0
 10
29.063
 20
69.5042
 11
28.2751
 21
69.0359
  0
LINE
  8
0
 10
28.2751
 20
69.0359
 11
27.6352
 21
68.5988
  0
LINE
  8
0
 10
27.6352
 20
68.5988
 11
27.1426
 21
68.1927
  0
LINE
  8
0
 10
27.1426
 20
68.1927
 11
26.7984
 21
67.8174
  0
LINE
  8
0
 10
26.7984
 20
67.8174
 11
26.6016
 21
67.4722
  0
LINE
  8
0
 10
26.6016
 20
67.4722
 11
26.5535
 21
67.1577
  0
LINE
  8
0
 10
26.5535
 20
67.1577
 11
26.6542
 21
66.8739
  0
LINE
  8
0
 10
26.6542
 20
66.8739
 11
26.9028
 21
66.6222
  0
LINE
  8
0
 10
26.9028
 20
66.6222
 11
27.2992
 21
66.4015
  0
LINE
  8
0
 10
27.2992
 20
66.4015
 11
27.8435
 21
66.2125
  0
LINE
  8
0
 10
27.8435
 20
66.2125
 11
28.5329
 21
66.0545
  0
LINE
  8
0
 10
28.5329
 20
66.0545
 11
28.5329
 21
62.4355
  0
LINE
  8
0
 10
28.5329
 20
62.4355
 11
27.7945
 21
60.8809
  0
LINE
  8
0
 10
27.7945
 20
60.8809
 11
26.9449
 21
60.9216
  0
LINE
  8
0
 10
-3.05511
 20
60.9216
 11
-3.83148
 21
61.069
  0
LINE
  8
0
 10
-3.83148
 20
61.069
 11
-4.5314
 21
61.3235
  0
LINE
  8
0
 10
-4.5314
 20
61.3235
 11
-5.15762
 21
61.6852
  0
LINE
  8
0
 10
-5.15762
 20
61.6852
 11
-5.70786
 21
62.1535
  0
LINE
  8
0
 10
-5.70786
 20
62.1535
 11
-6.18301
 21
62.7293
  0
LINE
  8
0
 10
-6.18301
 20
62.7293
 11
-6.5831
 21
63.4119
  0
LINE
  8
0
 10
-6.5831
 20
63.4119
 11
-6.90857
 21
64.202
  0
LINE
  8
0
 10
-6.90857
 20
64.202
 11
-7.15851
 21
65.0987
  0
LINE
  8
0
 10
-7.15851
 20
65.0987
 11
-7.33337
 21
66.1026
  0
LINE
  8
0
 10
-7.33337
 20
66.1026
 11
-7.43317
 21
67.2145
  0
LINE
  8
0
 10
-7.43317
 20
67.2145
 11
-7.45743
 21
68.4308
  0
LINE
  8
0
 10
-7.45743
 20
68.4308
 11
-4.57901
 21
69.9968
  0
LINE
  8
0
 10
-4.57901
 20
69.9968
 11
-0.0123596
 21
69.9968
  0
LINE
  8
0
 10
-0.0123596
 20
69.9968
 11
-0.937042
 21
69.5042
  0
LINE
  8
0
 10
-0.937042
 20
69.5042
 11
-1.72485
 21
69.0359
  0
LINE
  8
0
 10
-1.72485
 20
69.0359
 11
-2.36481
 21
68.5988
  0
LINE
  8
0
 10
-2.36481
 20
68.5988
 11
-2.85736
 21
68.1927
  0
LINE
  8
0
 10
-2.85736
 20
68.1927
 11
-3.2016
 21
67.8174
  0
LINE
  8
0
 10
-3.2016
 20
67.8174
 11
-3.39844
 21
67.4722
  0
LINE
  8
0
 10
-3.39844
 20
67.4722
 11
-3.4465
 21
67.1577
  0
LINE
  8
0
 10
-3.4465
 20
67.1577
 11
-3.34579
 21
66.8739
  0
LINE
  8
0
 10
-3.34579
 20
66.8739
 11
-3.09723
 21
66.6222
  0
LINE
  8
0
 10
-3.09723
 20
66.6222
 11
-2.70081
 21
66.4015
  0
LINE
  8
0
 10
-2.70081
 20
66.4015
 11
-2.15652
 21
66.2125
  0
LINE
  8
0
 10
-2.15652
 20
66.2125
 11
-1.46713
 21
66.0545
  0
LINE
  8
0
 10
-1.46713
 20
66.0545
 11
-1.46713
 21
62.4355
  0
LINE
  8
0
 10
-1.46713
 20
62.4355
 11
-2.20551
 21
60.8809
  0
LINE
  8
0
 10
-2.20551
 20
60.8809
 11
-3.05511
 21
60.9216
  0
LINE
  8
0
 10
-33.0551
 20
60.9216
 11
-33.8315
 21
61.069
  0
LINE
  8
0
 10
-33.8315
 20
61.069
 11
-34.5314
 21
61.3235
  0
LINE
  8
0
 10
-34.5314
 20
61.3235
 11
-35.1576
 21
61.6852
  0
LINE
  8
0
 10
-35.1576
 20
61.6852
 11
-35.7079
 21
62.1535
  0
LINE
  8
0
 10
-35.7079
 20
62.1535
 11
-36.183
 21
62.7293
  0
LINE
  8
0
 10
-36.183
 20
62.7293
 11
-36.5831
 21
63.4119
  0
LINE
  8
0
 10
-36.5831
 20
63.4119
 11
-36.9086
 21
64.202
  0
LINE
  8
0
 10
-36.9086
 20
64.202
 11
-37.1585
 21
65.0987
  0
LINE
  8
0
 10
-37.1585
 20
65.0987
 11
-37.3334
 21
66.1026
  0
LINE
  8
0
 10
-37.3334
 20
66.1026
 11
-37.4332
 21
67.2145
  0
LINE
  8
0
 10
-37.4332
 20
67.2145
 11
-37.4574
 21
68.4308
  0
LINE
  8
0
 10
-37.4574
 20
68.4308
 11
-34.579
 21
69.9968
  0
LINE
  8
0
 10
-34.579
 20
69.9968
 11
-30.0124
 21
69.9968
  0
LINE
  8
0
 10
-30.0124
 20
69.9968
 11
-30.937
 21
69.5042
  0
LINE
  8
0
 10
-30.937
 20
69.5042
 11
-31.7249
 21
69.0359
  0
LINE
  8
0
 10
-31.7249
 20
69.0359
 11
-32.3648
 21
68.5988
  0
LINE
  8
0
 10
-32.3648
 20
68.5988
 11
-32.8574
 21
68.1927
  0
LINE
  8
0
 10
-32.8574
 20
68.1927
 11
-33.2016
 21
67.8174
  0
LINE
  8
0
 10
-33.2016
 20
67.8174
 11
-33.3984
 21
67.4722
  0
LINE
  8
0
 10
-33.3984
 20
67.4722
 11
-33.4465
 21
67.1577
  0
LINE
  8
0
 10
-33.4465
 20
67.1577
 11
-33.3458
 21
66.8739
  0
LINE
  8
0
 10
-33.3458
 20
66.8739
 11
-33.0972
 21
66.6222
  0
LINE
  8
0
 10
-33.0972
 20
66.6222
 11
-32.7008
 21
66.4015
  0
LINE
  8
0
 10
-32.7008
 20
66.4015
 11
-32.1565
 21
66.2125
  0
LINE
  8
0
 10
-32.1565
 20
66.2125
 11
-31.4671
 21
66.0545
  0
LINE
  8
0
 10
-31.4671
 20
66.0545
 11
-31.4671
 21
62.4355
  0
LINE
  8
0
 10
-31.4671
 20
62.4355
 11
-32.2055
 21
60.8809
  0
LINE
  8
0
 10
-32.2055
 20
60.8809
 11
-33.0551
 21
60.9216
  0
LINE
  8
0
 10
-29.9968
 20
65.421
 11
-29.9968
 21
69.9876
  0
LINE
  8
0
 10
-29.9968
 20
69.9876
 11
-29.5042
 21
69.063
  0
LINE
  8
0
 10
-29.5042
 20
69.063
 11
-29.0359
 21
68.2751
  0
LINE
  8
0
 10
-29.0359
 20
68.2751
 11
-28.5988
 21
67.6352
  0
LINE
  8
0
 10
-28.5988
 20
67.6352
 11
-28.1927
 21
67.1426
  0
LINE
  8
0
 10
-28.1927
 20
67.1426
 11
-27.8174
 21
66.7984
  0
LINE
  8
0
 10
-27.8174
 20
66.7984
 11
-27.4722
 21
66.6016
  0
LINE
  8
0
 10
-27.4722
 20
66.6016
 11
-27.1577
 21
66.5535
  0
LINE
  8
0
 10
-27.1577
 20
66.5535
 11
-26.8739
 21
66.6542
  0
LINE
  8
0
 10
-26.8739
 20
66.6542
 11
-26.6222
 21
66.9028
  0
LINE
  8
0
 10
-26.6222
 20
66.9028
 11
-26.4015
 21
67.2992
  0
LINE
  8
0
 10
-26.4015
 20
67.2992
 11
-26.2125
 21
67.8435
  0
LINE
  8
0
 10
-26.2125
 20
67.8435
 11
-26.0545
 21
68.5329
  0
LINE
  8
0
 10
-26.0545
 20
68.5329
 11
-22.4359
 21
68.5329
  0
LINE
  8
0
 10
-22.4359
 20
68.5329
 11
-20.8809
 21
67.7945
  0
LINE
  8
0
 10
-20.8809
 20
67.7945
 11
-20.9216
 21
66.9449
  0
LINE
  8
0
 10
-20.9216
 20
66.9449
 11
-21.069
 21
66.1685
  0
LINE
  8
0
 10
-21.069
 20
66.1685
 11
-21.3235
 21
65.4686
  0
LINE
  8
0
 10
-21.3235
 20
65.4686
 11
-21.6852
 21
64.8424
  0
LINE
  8
0
 10
-21.6852
 20
64.8424
 11
-22.1535
 21
64.2921
  0
LINE
  8
0
 10
-22.1535
 20
64.2921
 11
-22.7289
 21
63.8174
  0
LINE
  8
0
 10
-22.7289
 20
63.8174
 11
-23.4119
 21
63.4169
  0
LINE
  8
0
 10
-23.4119
 20
63.4169
 11
-24.202
 21
63.0914
  0
LINE
  8
0
 10
-24.202
 20
63.0914
 11
-25.0987
 21
62.8415
  0
LINE
  8
0
 10
-25.0987
 20
62.8415
 11
-26.1026
 21
62.6666
  0
LINE
  8
0
 10
-26.1026
 20
62.6666
 11
-27.2145
 21
62.5668
  0
LINE
  8
0
 10
-27.2145
 20
62.5668
 11
-28.4308
 21
62.5426
  0
LINE
  8
0
 10
-28.4308
 20
62.5426
 11
-29.9968
 21
65.421
  0
LINE
  8
0
 10
30.0032
 20
65.421
 11
30.0032
 21
69.9876
  0
LINE
  8
0
 10
30.0032
 20
69.9876
 11
30.4958
 21
69.063
  0
LINE
  8
0
 10
30.4958
 20
69.063
 11
30.9641
 21
68.2751
  0
LINE
  8
0
 10
30.9641
 20
68.2751
 11
31.4012
 21
67.6352
  0
LINE
  8
0
 10
31.4012
 20
67.6352
 11
31.8073
 21
67.1426
  0
LINE
  8
0
 10
31.8073
 20
67.1426
 11
32.1826
 21
66.7984
  0
LINE
  8
0
 10
32.1826
 20
66.7984
 11
32.5278
 21
66.6016
  0
LINE
  8
0
 10
32.5278
 20
66.6016
 11
32.8423
 21
66.5535
  0
LINE
  8
0
 10
32.8423
 20
66.5535
 11
33.1261
 21
66.6542
  0
LINE
  8
0
 10
33.1261
 20
66.6542
 11
33.3778
 21
66.9028
  0
LINE
  8
0
 10
33.3778
 20
66.9028
 11
33.5985
 21
67.2992
  0
LINE
  8
0
 10
33.5985
 20
67.2992
 11
33.7875
 21
67.8435
  0
LINE
  8
0
 10
33.7875
 20
67.8435
 11
33.9455
 21
68.5329
  0
LINE
  8
0
 10
33.9455
 20
68.5329
 11
37.5641
 21
68.5329
  0
LINE
  8
0
 10
37.5641
 20
68.5329
 11
39.1191
 21
67.7945
  0
LINE
  8
0
 10
39.1191
 20
67.7945
 11
39.0784
 21
66.9449
  0
LINE
  8
0
 10
39.0784
 20
66.9449
 11
38.931
 21
66.1685
  0
LINE
  8
0
 10
38.931
 20
66.1685
 11
38.6765
 21
65.4686
  0
LINE
  8
0
 10
38.6765
 20
65.4686
 11
38.3148
 21
64.8424
  0
LINE
  8
0
 10
38.3148
 20
64.8424
 11
37.8465
 21
64.2921
  0
LINE
  8
0
 10
37.8465
 20
64.2921
 11
37.2711
 21
63.8174
  0
LINE
  8
0
 10
37.2711
 20
63.8174
 11
36.5881
 21
63.4169
  0
LINE
  8
0
 10
36.5881
 20
63.4169
 11
35.798
 21
63.0914
  0
LINE
  8
0
 10
35.798
 20
63.0914
 11
34.9013
 21
62.8415
  0
LINE
  8
0
 10
34.9013
 20
62.8415
 11
33.8974
 21
62.6666
  0
LINE
  8
0
 10
33.8974
 20
62.6666
 11
32.7855
 21
62.5668
  0
LINE
  8
0
 10
32.7855
 20
62.5668
 11
31.5692
 21
62.5426
  0
LINE
  8
0
 10
31.5692
 20
62.5426
 11
30.0032
 21
65.421
  0
LINE
  8
0
 10
0.00320435
 20
65.421
 11
0.00320435
 21
69.9876
  0
LINE
  8
0
 10
0.00320435
 20
69.9876
 11
0.495758
 21
69.063
  0
LINE
  8
0
 10
0.495758
 20
69.063
 11
0.96405
 21
68.2751
  0
LINE
  8
0
 10
0.96405
 20
68.2751
 11
1.40121
 21
67.6352
  0
LINE
  8
0
 10
1.40121
 20
67.6352
 11
1.80725
 21
67.1426
  0
LINE
  8
0
 10
1.80725
 20
67.1426
 11
2.18262
 21
66.7984
  0
LINE
  8
0
 10
2.18262
 20
66.7984
 11
2.52777
 21
66.6016
  0
LINE
  8
0
 10
2.52777
 20
66.6016
 11
2.84225
 21
66.5535
  0
LINE
  8
0
 10
2.84225
 20
66.5535
 11
3.12607
 21
66.6542
  0
LINE
  8
0
 10
3.12607
 20
66.6542
 11
3.37784
 21
66.9028
  0
LINE
  8
0
 10
3.37784
 20
66.9028
 11
3.59848
 21
67.2992
  0
LINE
  8
0
 10
3.59848
 20
67.2992
 11
3.78754
 21
67.8435
  0
LINE
  8
0
 10
3.78754
 20
67.8435
 11
3.94547
 21
68.5329
  0
LINE
  8
0
 10
3.94547
 20
68.5329
 11
7.56409
 21
68.5329
  0
LINE
  8
0
 10
7.56409
 20
68.5329
 11
9.11911
 21
67.7945
  0
LINE
  8
0
 10
9.11911
 20
67.7945
 11
9.07837
 21
66.9449
  0
LINE
  8
0
 10
9.07837
 20
66.9449
 11
8.93097
 21
66.1685
  0
LINE
  8
0
 10
8.93097
 20
66.1685
 11
8.67645
 21
65.4686
  0
LINE
  8
0
 10
8.67645
 20
65.4686
 11
8.31482
 21
64.8424
  0
LINE
  8
0
 10
8.31482
 20
64.8424
 11
7.84653
 21
64.2921
  0
LINE
  8
0
 10
7.84653
 20
64.2921
 11
7.27112
 21
63.8174
  0
LINE
  8
0
 10
7.27112
 20
63.8174
 11
6.58813
 21
63.4169
  0
LINE
  8
0
 10
6.58813
 20
63.4169
 11
5.79803
 21
63.0914
  0
LINE
  8
0
 10
5.79803
 20
63.0914
 11
4.90128
 21
62.8415
  0
LINE
  8
0
 10
4.90128
 20
62.8415
 11
3.8974
 21
62.6666
  0
LINE
  8
0
 10
3.8974
 20
62.6666
 11
2.78549
 21
62.5668
  0
LINE
  8
0
 10
2.78549
 20
62.5668
 11
1.56921
 21
62.5426
  0
LINE
  8
0
 10
1.56921
 20
62.5426
 11
0.00320435
 21
65.421
  0
LINE
  8
0
 10
6.06583
 20
56.9405
 11
6.01089
 21
57.2678
  0
LINE
  8
0
 10
6.01089
 20
57.2678
 11
5.88501
 21
57.5223
  0
LINE
  8
0
 10
5.88501
 20
57.5223
 11
5.68863
 21
57.7045
  0
LINE
  8
0
 10
5.68863
 20
57.7045
 11
5.42084
 21
57.813
  0
LINE
  8
0
 10
5.42084
 20
57.813
 11
5.08209
 21
57.85
  0
LINE
  8
0
 10
5.08209
 20
57.85
 11
4.67285
 21
57.8134
  0
LINE
  8
0
 10
4.67285
 20
57.8134
 11
4.19357
 21
57.7045
  0
LINE
  8
0
 10
4.19357
 20
57.7045
 11
3.64288
 21
57.5232
  0
LINE
  8
0
 10
3.64288
 20
57.5232
 11
3.0217
 21
57.2696
  0
LINE
  8
0
 10
3.0217
 20
57.2696
 11
2.3291
 21
56.9432
  0
LINE
  8
0
 10
2.3291
 20
56.9432
 11
1.58386
 21
56.5541
  0
LINE
  8
0
 10
1.58386
 20
56.5541
 11
13.4807
 21
68.5283
  0
LINE
  8
0
 10
13.4807
 20
68.5283
 11
13.4807
 21
67.019
  0
LINE
  8
0
 10
13.4807
 20
67.019
 11
9.11819
 21
62.5394
  0
LINE
  8
0
 10
9.11819
 20
62.5394
 11
10.0804
 21
61.5849
  0
LINE
  8
0
 10
10.0804
 20
61.5849
 11
10.8192
 21
60.7152
  0
LINE
  8
0
 10
10.8192
 20
60.7152
 11
11.337
 21
59.9287
  0
LINE
  8
0
 10
11.337
 20
59.9287
 11
11.6331
 21
59.2242
  0
LINE
  8
0
 10
11.6331
 20
59.2242
 11
11.7087
 21
58.6012
  0
LINE
  8
0
 10
11.7087
 20
58.6012
 11
11.5636
 21
58.0624
  0
LINE
  8
0
 10
11.5636
 20
58.0624
 11
11.1974
 21
57.6047
  0
LINE
  8
0
 10
11.1974
 20
57.6047
 11
10.6091
 21
57.2279
  0
LINE
  8
0
 10
10.6091
 20
57.2279
 11
9.80026
 21
56.9345
  0
LINE
  8
0
 10
9.80026
 20
56.9345
 11
8.77029
 21
56.7226
  0
LINE
  8
0
 10
8.77029
 20
56.7226
 11
7.51831
 21
56.593
  0
LINE
  8
0
 10
7.51831
 20
56.593
 11
6.04935
 21
56.545
  0
LINE
  8
0
 10
6.04935
 20
56.545
 11
6.06583
 21
56.9405
  0
LINE
  8
0
 10
-23.9342
 20
56.9405
 11
-23.9891
 21
57.2678
  0
LINE
  8
0
 10
-23.9891
 20
57.2678
 11
-24.115
 21
57.5223
  0
LINE
  8
0
 10
-24.115
 20
57.5223
 11
-24.3114
 21
57.7045
  0
LINE
  8
0
 10
-24.3114
 20
57.7045
 11
-24.5792
 21
57.813
  0
LINE
  8
0
 10
-24.5792
 20
57.813
 11
-24.9179
 21
57.85
  0
LINE
  8
0
 10
-24.9179
 20
57.85
 11
-25.3271
 21
57.8134
  0
LINE
  8
0
 10
-25.3271
 20
57.8134
 11
-25.8064
 21
57.7045
  0
LINE
  8
0
 10
-25.8064
 20
57.7045
 11
-26.3571
 21
57.5232
  0
LINE
  8
0
 10
-26.3571
 20
57.5232
 11
-26.9783
 21
57.2696
  0
LINE
  8
0
 10
-26.9783
 20
57.2696
 11
-27.6709
 21
56.9432
  0
LINE
  8
0
 10
-27.6709
 20
56.9432
 11
-28.4161
 21
56.5541
  0
LINE
  8
0
 10
-28.4161
 20
56.5541
 11
-16.5193
 21
68.5283
  0
LINE
  8
0
 10
-16.5193
 20
68.5283
 11
-16.5193
 21
67.019
  0
LINE
  8
0
 10
-16.5193
 20
67.019
 11
-20.8818
 21
62.5394
  0
LINE
  8
0
 10
-20.8818
 20
62.5394
 11
-19.9196
 21
61.5849
  0
LINE
  8
0
 10
-19.9196
 20
61.5849
 11
-19.1808
 21
60.7152
  0
LINE
  8
0
 10
-19.1808
 20
60.7152
 11
-18.663
 21
59.9287
  0
LINE
  8
0
 10
-18.663
 20
59.9287
 11
-18.3669
 21
59.2242
  0
LINE
  8
0
 10
-18.3669
 20
59.2242
 11
-18.2913
 21
58.6012
  0
LINE
  8
0
 10
-18.2913
 20
58.6012
 11
-18.4364
 21
58.0624
  0
LINE
  8
0
 10
-18.4364
 20
58.0624
 11
-18.8026
 21
57.6047
  0
LINE
  8
0
 10
-18.8026
 20
57.6047
 11
-19.3909
 21
57.2279
  0
LINE
  8
0
 10
-19.3909
 20
57.2279
 11
-20.1997
 21
56.9345
  0
LINE
  8
0
 10
-20.1997
 20
56.9345
 11
-21.2297
 21
56.7226
  0
LINE
  8
0
 10
-21.2297
 20
56.7226
 11
-22.4817
 21
56.593
  0
LINE
  8
0
 10
-22.4817
 20
56.593
 11
-23.9507
 21
56.545
  0
LINE
  8
0
 10
-23.9507
 20
56.545
 11
-23.9342
 21
56.9405
  0
LINE
  8
0
 10
27.019
 20
56.5193
 11
22.5394
 21
60.8818
  0
LINE
  8
0
 10
22.5394
 20
60.8818
 11
21.5849
 21
59.9196
  0
LINE
  8
0
 10
21.5849
 20
59.9196
 11
20.7152
 21
59.1808
  0
LINE
  8
0
 10
20.7152
 20
59.1808
 11
19.9287
 21
58.663
  0
LINE
  8
0
 10
19.9287
 20
58.663
 11
19.2242
 21
58.3669
  0
LINE
  8
0
 10
19.2242
 20
58.3669
 11
18.6012
 21
58.2913
  0
LINE
  8
0
 10
18.6012
 20
58.2913
 11
18.062
 21
58.4369
  0
LINE
  8
0
 10
18.062
 20
58.4369
 11
17.6047
 21
58.8026
  0
LINE
  8
0
 10
17.6047
 20
58.8026
 11
17.2279
 21
59.3909
  0
LINE
  8
0
 10
17.2279
 20
59.3909
 11
16.9345
 21
60.1997
  0
LINE
  8
0
 10
16.9345
 20
60.1997
 11
16.7226
 21
61.2297
  0
LINE
  8
0
 10
16.7226
 20
61.2297
 11
16.593
 21
62.4817
  0
LINE
  8
0
 10
16.593
 20
62.4817
 11
16.545
 21
63.9507
  0
LINE
  8
0
 10
16.545
 20
63.9507
 11
16.9405
 21
63.9342
  0
LINE
  8
0
 10
16.9405
 20
63.9342
 11
17.2678
 21
63.9891
  0
LINE
  8
0
 10
17.2678
 20
63.9891
 11
17.5223
 21
64.115
  0
LINE
  8
0
 10
17.5223
 20
64.115
 11
17.7045
 21
64.3114
  0
LINE
  8
0
 10
17.7045
 20
64.3114
 11
17.813
 21
64.5792
  0
LINE
  8
0
 10
17.813
 20
64.5792
 11
17.85
 21
64.9179
  0
LINE
  8
0
 10
17.85
 20
64.9179
 11
17.8134
 21
65.3271
  0
LINE
  8
0
 10
17.8134
 20
65.3271
 11
17.7045
 21
65.8064
  0
LINE
  8
0
 10
17.7045
 20
65.8064
 11
17.5232
 21
66.3571
  0
LINE
  8
0
 10
17.5232
 20
66.3571
 11
17.2696
 21
66.9783
  0
LINE
  8
0
 10
17.2696
 20
66.9783
 11
16.9432
 21
67.6709
  0
LINE
  8
0
 10
16.9432
 20
67.6709
 11
16.5541
 21
68.4161
  0
LINE
  8
0
 10
16.5541
 20
68.4161
 11
28.5283
 21
56.5193
  0
LINE
  8
0
 10
28.5283
 20
56.5193
 11
27.019
 21
56.5193
  0
LINE
  8
0
 10
-2.98096
 20
56.5193
 11
-7.46063
 21
60.8818
  0
LINE
  8
0
 10
-7.46063
 20
60.8818
 11
-8.41507
 21
59.9196
  0
LINE
  8
0
 10
-8.41507
 20
59.9196
 11
-9.28482
 21
59.1808
  0
LINE
  8
0
 10
-9.28482
 20
59.1808
 11
-10.0713
 21
58.663
  0
LINE
  8
0
 10
-10.0713
 20
58.663
 11
-10.7758
 21
58.3669
  0
LINE
  8
0
 10
-10.7758
 20
58.3669
 11
-11.3988
 21
58.2913
  0
LINE
  8
0
 10
-11.3988
 20
58.2913
 11
-11.938
 21
58.4369
  0
LINE
  8
0
 10
-11.938
 20
58.4369
 11
-12.3953
 21
58.8026
  0
LINE
  8
0
 10
-12.3953
 20
58.8026
 11
-12.7721
 21
59.3909
  0
LINE
  8
0
 10
-12.7721
 20
59.3909
 11
-13.0655
 21
60.1997
  0
LINE
  8
0
 10
-13.0655
 20
60.1997
 11
-13.2774
 21
61.2297
  0
LINE
  8
0
 10
-13.2774
 20
61.2297
 11
-13.407
 21
62.4817
  0
LINE
  8
0
 10
-13.407
 20
62.4817
 11
-13.455
 21
63.9507
  0
LINE
  8
0
 10
-13.455
 20
63.9507
 11
-13.0595
 21
63.9342
  0
LINE
  8
0
 10
-13.0595
 20
63.9342
 11
-12.7322
 21
63.9891
  0
LINE
  8
0
 10
-12.7322
 20
63.9891
 11
-12.4777
 21
64.115
  0
LINE
  8
0
 10
-12.4777
 20
64.115
 11
-12.2955
 21
64.3114
  0
LINE
  8
0
 10
-12.2955
 20
64.3114
 11
-12.187
 21
64.5792
  0
LINE
  8
0
 10
-12.187
 20
64.5792
 11
-12.15
 21
64.9179
  0
LINE
  8
0
 10
-12.15
 20
64.9179
 11
-12.1866
 21
65.3271
  0
LINE
  8
0
 10
-12.1866
 20
65.3271
 11
-12.2955
 21
65.8064
  0
LINE
  8
0
 10
-12.2955
 20
65.8064
 11
-12.4768
 21
66.3571
  0
LINE
  8
0
 10
-12.4768
 20
66.3571
 11
-12.7304
 21
66.9783
  0
LINE
  8
0
 10
-12.7304
 20
66.9783
 11
-13.0568
 21
67.6709
  0
LINE
  8
0
 10
-13.0568
 20
67.6709
 11
-13.4459
 21
68.4161
  0
LINE
  8
0
 10
-13.4459
 20
68.4161
 11
-1.47171
 21
56.5193
  0
LINE
  8
0
 10
-1.47171
 20
56.5193
 11
-2.98096
 21
56.5193
  0
LINE
  8
0
 10
36.0658
 20
56.9405
 11
36.0109
 21
57.2678
  0
LINE
  8
0
 10
36.0109
 20
57.2678
 11
35.885
 21
57.5223
  0
LINE
  8
0
 10
35.885
 20
57.5223
 11
35.6886
 21
57.7045
  0
LINE
  8
0
 10
35.6886
 20
57.7045
 11
35.4208
 21
57.813
  0
LINE
  8
0
 10
35.4208
 20
57.813
 11
35.0821
 21
57.85
  0
LINE
  8
0
 10
35.0821
 20
57.85
 11
34.6729
 21
57.8134
  0
LINE
  8
0
 10
34.6729
 20
57.8134
 11
34.1936
 21
57.7045
  0
LINE
  8
0
 10
34.1936
 20
57.7045
 11
33.6429
 21
57.5232
  0
LINE
  8
0
 10
33.6429
 20
57.5232
 11
33.0217
 21
57.2696
  0
LINE
  8
0
 10
33.0217
 20
57.2696
 11
32.3291
 21
56.9432
  0
LINE
  8
0
 10
32.3291
 20
56.9432
 11
31.5839
 21
56.5541
  0
LINE
  8
0
 10
31.5839
 20
56.5541
 11
40.9454
 21
65.9765
  0
LINE
  8
0
 10
40.9454
 20
65.9765
 11
41.3257
 21
64.8061
  0
LINE
  8
0
 10
41.3257
 20
64.8061
 11
39.1182
 21
62.5394
  0
LINE
  8
0
 10
39.1182
 20
62.5394
 11
40.0804
 21
61.5849
  0
LINE
  8
0
 10
40.0804
 20
61.5849
 11
40.8192
 21
60.7152
  0
LINE
  8
0
 10
40.8192
 20
60.7152
 11
41.337
 21
59.9287
  0
LINE
  8
0
 10
41.337
 20
59.9287
 11
41.6331
 21
59.2242
  0
LINE
  8
0
 10
41.6331
 20
59.2242
 11
41.7087
 21
58.6012
  0
LINE
  8
0
 10
41.7087
 20
58.6012
 11
41.5636
 21
58.0624
  0
LINE
  8
0
 10
41.5636
 20
58.0624
 11
41.1974
 21
57.6047
  0
LINE
  8
0
 10
41.1974
 20
57.6047
 11
40.6091
 21
57.2279
  0
LINE
  8
0
 10
40.6091
 20
57.2279
 11
39.8003
 21
56.9345
  0
LINE
  8
0
 10
39.8003
 20
56.9345
 11
38.7703
 21
56.7226
  0
LINE
  8
0
 10
38.7703
 20
56.7226
 11
37.5183
 21
56.593
  0
LINE
  8
0
 10
37.5183
 20
56.593
 11
36.0493
 21
56.545
  0
LINE
  8
0
 10
36.0493
 20
56.545
 11
36.0658
 21
56.9405
  0
LINE
  8
0
 10
-32.981
 20
56.5193
 11
-37.4606
 21
60.8818
  0
LINE
  8
0
 10
-37.4606
 20
60.8818
 11
-38.4151
 21
59.9196
  0
LINE
  8
0
 10
-38.4151
 20
59.9196
 11
-39.2848
 21
59.1808
  0
LINE
  8
0
 10
-39.2848
 20
59.1808
 11
-40.0713
 21
58.663
  0
LINE
  8
0
 10
-40.0713
 20
58.663
 11
-40.7758
 21
58.3669
  0
LINE
  8
0
 10
-40.7758
 20
58.3669
 11
-41.3988
 21
58.2913
  0
LINE
  8
0
 10
-41.3988
 20
58.2913
 11
-41.938
 21
58.4369
  0
LINE
  8
0
 10
-41.938
 20
58.4369
 11
-42.3953
 21
58.8026
  0
LINE
  8
0
 10
-42.3953
 20
58.8026
 11
-42.7721
 21
59.3909
  0
LINE
  8
0
 10
-42.7721
 20
59.3909
 11
-42.9372
 21
59.8462
  0
LINE
  8
0
 10
-42.9372
 20
59.8462
 11
-40.9564
 21
65.9427
  0
LINE
  8
0
 10
-40.9564
 20
65.9427
 11
-31.4717
 21
56.5193
  0
LINE
  8
0
 10
-31.4717
 20
56.5193
 11
-32.981
 21
56.5193
  0
LINE
  8
0
 10
-28.5283
 20
53.4807
 11
-27.019
 21
53.4807
  0
LINE
  8
0
 10
-27.019
 20
53.4807
 11
-22.5394
 21
49.1182
  0
LINE
  8
0
 10
-22.5394
 20
49.1182
 11
-21.5849
 21
50.0804
  0
LINE
  8
0
 10
-21.5849
 20
50.0804
 11
-20.7152
 21
50.8192
  0
LINE
  8
0
 10
-20.7152
 20
50.8192
 11
-19.9287
 21
51.337
  0
LINE
  8
0
 10
-19.9287
 20
51.337
 11
-19.2242
 21
51.6331
  0
LINE
  8
0
 10
-19.2242
 20
51.6331
 11
-18.6012
 21
51.7087
  0
LINE
  8
0
 10
-18.6012
 20
51.7087
 11
-18.062
 21
51.5631
  0
LINE
  8
0
 10
-18.062
 20
51.5631
 11
-17.6047
 21
51.1974
  0
LINE
  8
0
 10
-17.6047
 20
51.1974
 11
-17.2279
 21
50.6091
  0
LINE
  8
0
 10
-17.2279
 20
50.6091
 11
-16.9345
 21
49.8003
  0
LINE
  8
0
 10
-16.9345
 20
49.8003
 11
-16.7226
 21
48.7703
  0
LINE
  8
0
 10
-16.7226
 20
48.7703
 11
-16.593
 21
47.5183
  0
LINE
  8
0
 10
-16.593
 20
47.5183
 11
-16.545
 21
46.0493
  0
LINE
  8
0
 10
-16.545
 20
46.0493
 11
-16.9405
 21
46.0658
  0
LINE
  8
0
 10
-16.9405
 20
46.0658
 11
-17.2678
 21
46.0109
  0
LINE
  8
0
 10
-17.2678
 20
46.0109
 11
-17.5223
 21
45.885
  0
LINE
  8
0
 10
-17.5223
 20
45.885
 11
-17.7045
 21
45.6886
  0
LINE
  8
0
 10
-17.7045
 20
45.6886
 11
-17.813
 21
45.4208
  0
LINE
  8
0
 10
-17.813
 20
45.4208
 11
-17.85
 21
45.0821
  0
LINE
  8
0
 10
-17.85
 20
45.0821
 11
-17.8134
 21
44.6729
  0
LINE
  8
0
 10
-17.8134
 20
44.6729
 11
-17.7045
 21
44.1936
  0
LINE
  8
0
 10
-17.7045
 20
44.1936
 11
-17.5232
 21
43.6429
  0
LINE
  8
0
 10
-17.5232
 20
43.6429
 11
-17.2696
 21
43.0217
  0
LINE
  8
0
 10
-17.2696
 20
43.0217
 11
-16.9432
 21
42.3291
  0
LINE
  8
0
 10
-16.9432
 20
42.3291
 11
-16.5541
 21
41.5839
  0
LINE
  8
0
 10
-16.5541
 20
41.5839
 11
-28.5283
 21
53.4807
  0
LINE
  8
0
 10
1.47171
 20
53.4807
 11
2.98096
 21
53.4807
  0
LINE
  8
0
 10
2.98096
 20
53.4807
 11
7.46063
 21
49.1182
  0
LINE
  8
0
 10
7.46063
 20
49.1182
 11
8.41507
 21
50.0804
  0
LINE
  8
0
 10
8.41507
 20
50.0804
 11
9.28482
 21
50.8192
  0
LINE
  8
0
 10
9.28482
 20
50.8192
 11
10.0713
 21
51.337
  0
LINE
  8
0
 10
10.0713
 20
51.337
 11
10.7758
 21
51.6331
  0
LINE
  8
0
 10
10.7758
 20
51.6331
 11
11.3988
 21
51.7087
  0
LINE
  8
0
 10
11.3988
 20
51.7087
 11
11.938
 21
51.5631
  0
LINE
  8
0
 10
11.938
 20
51.5631
 11
12.3953
 21
51.1974
  0
LINE
  8
0
 10
12.3953
 20
51.1974
 11
12.7721
 21
50.6091
  0
LINE
  8
0
 10
12.7721
 20
50.6091
 11
13.0655
 21
49.8003
  0
LINE
  8
0
 10
13.0655
 20
49.8003
 11
13.2774
 21
48.7703
  0
LINE
  8
0
 10
13.2774
 20
48.7703
 11
13.407
 21
47.5183
  0
LINE
  8
0
 10
13.407
 20
47.5183
 11
13.455
 21
46.0493
  0
LINE
  8
0
 10
13.455
 20
46.0493
 11
13.0595
 21
46.0658
  0
LINE
  8
0
 10
13.0595
 20
46.0658
 11
12.7322
 21
46.0109
  0
LINE
  8
0
 10
12.7322
 20
46.0109
 11
12.4777
 21
45.885
  0
LINE
  8
0
 10
12.4777
 20
45.885
 11
12.2955
 21
45.6886
  0
LINE
  8
0
 10
12.2955
 20
45.6886
 11
12.187
 21
45.4208
  0
LINE
  8
0
 10
12.187
 20
45.4208
 11
12.15
 21
45.0821
  0
LINE
  8
0
 10
12.15
 20
45.0821
 11
12.1866
 21
44.6729
  0
LINE
  8
0
 10
12.1866
 20
44.6729
 11
12.2955
 21
44.1936
  0
LINE
  8
0
 10
12.2955
 20
44.1936
 11
12.4768
 21
43.6429
  0
LINE
  8
0
 10
12.4768
 20
43.6429
 11
12.7304
 21
43.0217
  0
LINE
  8
0
 10
12.7304
 20
43.0217
 11
13.0568
 21
42.3291
  0
LINE
  8
0
 10
13.0568
 20
42.3291
 11
13.4459
 21
41.5839
  0
LINE
  8
0
 10
13.4459
 20
41.5839
 11
1.47171
 21
53.4807
  0
LINE
  8
0
 10
31.4717
 20
53.4807
 11
32.981
 21
53.4807
  0
LINE
  8
0
 10
32.981
 20
53.4807
 11
37.4606
 21
49.1182
  0
LINE
  8
0
 10
37.4606
 20
49.1182
 11
38.4151
 21
50.0804
  0
LINE
  8
0
 10
38.4151
 20
50.0804
 11
39.2848
 21
50.8192
  0
LINE
  8
0
 10
39.2848
 20
50.8192
 11
40.0713
 21
51.337
  0
LINE
  8
0
 10
40.0713
 20
51.337
 11
40.7758
 21
51.6331
  0
LINE
  8
0
 10
40.7758
 20
51.6331
 11
41.3988
 21
51.7087
  0
LINE
  8
0
 10
41.3988
 20
51.7087
 11
41.938
 21
51.5631
  0
LINE
  8
0
 10
41.938
 20
51.5631
 11
42.3953
 21
51.1974
  0
LINE
  8
0
 10
42.3953
 20
51.1974
 11
42.7721
 21
50.6091
  0
LINE
  8
0
 10
42.7721
 20
50.6091
 11
43.0655
 21
49.8003
  0
LINE
  8
0
 10
43.0655
 20
49.8003
 11
43.2774
 21
48.7703
  0
LINE
  8
0
 10
43.2774
 20
48.7703
 11
43.407
 21
47.5183
  0
LINE
  8
0
 10
43.407
 20
47.5183
 11
43.455
 21
46.0493
  0
LINE
  8
0
 10
43.455
 20
46.0493
 11
43.0595
 21
46.0658
  0
LINE
  8
0
 10
43.0595
 20
46.0658
 11
42.7322
 21
46.0109
  0
LINE
  8
0
 10
42.7322
 20
46.0109
 11
42.4777
 21
45.885
  0
LINE
  8
0
 10
42.4777
 20
45.885
 11
42.2955
 21
45.6886
  0
LINE
  8
0
 10
42.2955
 20
45.6886
 11
42.187
 21
45.4208
  0
LINE
  8
0
 10
42.187
 20
45.4208
 11
42.15
 21
45.0821
  0
LINE
  8
0
 10
42.15
 20
45.0821
 11
42.1866
 21
44.6729
  0
LINE
  8
0
 10
42.1866
 20
44.6729
 11
42.2955
 21
44.1936
  0
LINE
  8
0
 10
42.2955
 20
44.1936
 11
42.4768
 21
43.6429
  0
LINE
  8
0
 10
42.4768
 20
43.6429
 11
42.7304
 21
43.0217
  0
LINE
  8
0
 10
42.7304
 20
43.0217
 11
43.0568
 21
42.3291
  0
LINE
  8
0
 10
43.0568
 20
42.3291
 11
43.4459
 21
41.5839
  0
LINE
  8
0
 10
43.4459
 20
41.5839
 11
31.4717
 21
53.4807
  0
LINE
  8
0
 10
-43.4807
 20
42.981
 11
-39.1182
 21
47.4606
  0
LINE
  8
0
 10
-39.1182
 20
47.4606
 11
-40.0804
 21
48.4151
  0
LINE
  8
0
 10
-40.0804
 20
48.4151
 11
-40.8192
 21
49.2848
  0
LINE
  8
0
 10
-40.8192
 20
49.2848
 11
-41.337
 21
50.0713
  0
LINE
  8
0
 10
-41.337
 20
50.0713
 11
-41.6331
 21
50.7758
  0
LINE
  8
0
 10
-41.6331
 20
50.7758
 11
-41.7087
 21
51.3988
  0
LINE
  8
0
 10
-41.7087
 20
51.3988
 11
-41.5636
 21
51.9376
  0
LINE
  8
0
 10
-41.5636
 20
51.9376
 11
-41.1974
 21
52.3953
  0
LINE
  8
0
 10
-41.1974
 20
52.3953
 11
-40.6091
 21
52.7721
  0
LINE
  8
0
 10
-40.6091
 20
52.7721
 11
-39.8003
 21
53.0655
  0
LINE
  8
0
 10
-39.8003
 20
53.0655
 11
-38.7703
 21
53.2774
  0
LINE
  8
0
 10
-38.7703
 20
53.2774
 11
-37.5183
 21
53.407
  0
LINE
  8
0
 10
-37.5183
 20
53.407
 11
-36.0493
 21
53.455
  0
LINE
  8
0
 10
-36.0493
 20
53.455
 11
-36.0658
 21
53.0595
  0
LINE
  8
0
 10
-36.0658
 20
53.0595
 11
-36.0109
 21
52.7322
  0
LINE
  8
0
 10
-36.0109
 20
52.7322
 11
-35.885
 21
52.4777
  0
LINE
  8
0
 10
-35.885
 20
52.4777
 11
-35.6886
 21
52.2955
  0
LINE
  8
0
 10
-35.6886
 20
52.2955
 11
-35.4208
 21
52.187
  0
LINE
  8
0
 10
-35.4208
 20
52.187
 11
-35.0821
 21
52.15
  0
LINE
  8
0
 10
-35.0821
 20
52.15
 11
-34.6729
 21
52.1866
  0
LINE
  8
0
 10
-34.6729
 20
52.1866
 11
-34.1936
 21
52.2955
  0
LINE
  8
0
 10
-34.1936
 20
52.2955
 11
-33.6429
 21
52.4768
  0
LINE
  8
0
 10
-33.6429
 20
52.4768
 11
-33.0217
 21
52.7304
  0
LINE
  8
0
 10
-33.0217
 20
52.7304
 11
-32.3291
 21
53.0568
  0
LINE
  8
0
 10
-32.3291
 20
53.0568
 11
-31.5839
 21
53.4459
  0
LINE
  8
0
 10
-31.5839
 20
53.4459
 11
-43.4807
 21
41.4717
  0
LINE
  8
0
 10
-43.4807
 20
41.4717
 11
-43.4807
 21
42.981
  0
LINE
  8
0
 10
-13.4807
 20
42.981
 11
-9.11819
 21
47.4606
  0
LINE
  8
0
 10
-9.11819
 20
47.4606
 11
-10.0804
 21
48.4151
  0
LINE
  8
0
 10
-10.0804
 20
48.4151
 11
-10.8192
 21
49.2848
  0
LINE
  8
0
 10
-10.8192
 20
49.2848
 11
-11.337
 21
50.0713
  0
LINE
  8
0
 10
-11.337
 20
50.0713
 11
-11.6331
 21
50.7758
  0
LINE
  8
0
 10
-11.6331
 20
50.7758
 11
-11.7087
 21
51.3988
  0
LINE
  8
0
 10
-11.7087
 20
51.3988
 11
-11.5636
 21
51.9376
  0
LINE
  8
0
 10
-11.5636
 20
51.9376
 11
-11.1974
 21
52.3953
  0
LINE
  8
0
 10
-11.1974
 20
52.3953
 11
-10.6091
 21
52.7721
  0
LINE
  8
0
 10
-10.6091
 20
52.7721
 11
-9.80026
 21
53.0655
  0
LINE
  8
0
 10
-9.80026
 20
53.0655
 11
-8.77029
 21
53.2774
  0
LINE
  8
0
 10
-8.77029
 20
53.2774
 11
-7.51831
 21
53.407
  0
LINE
  8
0
 10
-7.51831
 20
53.407
 11
-6.04935
 21
53.455
  0
LINE
  8
0
 10
-6.04935
 20
53.455
 11
-6.06583
 21
53.0595
  0
LINE
  8
0
 10
-6.06583
 20
53.0595
 11
-6.01089
 21
52.7322
  0
LINE
  8
0
 10
-6.01089
 20
52.7322
 11
-5.88501
 21
52.4777
  0
LINE
  8
0
 10
-5.88501
 20
52.4777
 11
-5.68863
 21
52.2955
  0
LINE
  8
0
 10
-5.68863
 20
52.2955
 11
-5.42084
 21
52.187
  0
LINE
  8
0
 10
-5.42084
 20
52.187
 11
-5.08209
 21
52.15
  0
LINE
  8
0
 10
-5.08209
 20
52.15
 11
-4.67285
 21
52.1866
  0
LINE
  8
0
 10
-4.67285
 20
52.1866
 11
-4.19357
 21
52.2955
  0
LINE
  8
0
 10
-4.19357
 20
52.2955
 11
-3.64288
 21
52.4768
  0
LINE
  8
0
 10
-3.64288
 20
52.4768
 11
-3.0217
 21
52.7304
  0
LINE
  8
0
 10
-3.0217
 20
52.7304
 11
-2.3291
 21
53.0568
  0
LINE
  8
0
 10
-2.3291
 20
53.0568
 11
-1.58386
 21
53.4459
  0
LINE
  8
0
 10
-1.58386
 20
53.4459
 11
-13.4807
 21
41.4717
  0
LINE
  8
0
 10
-13.4807
 20
41.4717
 11
-13.4807
 21
42.981
  0
LINE
  8
0
 10
16.5193
 20
42.981
 11
20.8818
 21
47.4606
  0
LINE
  8
0
 10
20.8818
 20
47.4606
 11
19.9196
 21
48.4151
  0
LINE
  8
0
 10
19.9196
 20
48.4151
 11
19.1808
 21
49.2848
  0
LINE
  8
0
 10
19.1808
 20
49.2848
 11
18.663
 21
50.0713
  0
LINE
  8
0
 10
18.663
 20
50.0713
 11
18.3669
 21
50.7758
  0
LINE
  8
0
 10
18.3669
 20
50.7758
 11
18.2913
 21
51.3988
  0
LINE
  8
0
 10
18.2913
 20
51.3988
 11
18.4364
 21
51.9376
  0
LINE
  8
0
 10
18.4364
 20
51.9376
 11
18.8026
 21
52.3953
  0
LINE
  8
0
 10
18.8026
 20
52.3953
 11
19.3909
 21
52.7721
  0
LINE
  8
0
 10
19.3909
 20
52.7721
 11
20.1997
 21
53.0655
  0
LINE
  8
0
 10
20.1997
 20
53.0655
 11
21.2297
 21
53.2774
  0
LINE
  8
0
 10
21.2297
 20
53.2774
 11
22.4817
 21
53.407
  0
LINE
  8
0
 10
22.4817
 20
53.407
 11
23.9507
 21
53.455
  0
LINE
  8
0
 10
23.9507
 20
53.455
 11
23.9342
 21
53.0595
  0
LINE
  8
0
 10
23.9342
 20
53.0595
 11
23.9891
 21
52.7322
  0
LINE
  8
0
 10
23.9891
 20
52.7322
 11
24.115
 21
52.4777
  0
LINE
  8
0
 10
24.115
 20
52.4777
 11
24.3114
 21
52.2955
  0
LINE
  8
0
 10
24.3114
 20
52.2955
 11
24.5792
 21
52.187
  0
LINE
  8
0
 10
24.5792
 20
52.187
 11
24.9179
 21
52.15
  0
LINE
  8
0
 10
24.9179
 20
52.15
 11
25.3271
 21
52.1866
  0
LINE
  8
0
 10
25.3271
 20
52.1866
 11
25.8064
 21
52.2955
  0
LINE
  8
0
 10
25.8064
 20
52.2955
 11
26.3571
 21
52.4768
  0
LINE
  8
0
 10
26.3571
 20
52.4768
 11
26.9783
 21
52.7304
  0
LINE
  8
0
 10
26.9783
 20
52.7304
 11
27.6709
 21
53.0568
  0
LINE
  8
0
 10
27.6709
 20
53.0568
 11
28.4161
 21
53.4459
  0
LINE
  8
0
 10
28.4161
 20
53.4459
 11
16.5193
 21
41.4717
  0
LINE
  8
0
 10
16.5193
 20
41.4717
 11
16.5193
 21
42.981
  0
LINE
  8
0
 10
-29.9876
 20
40.0032
 11
-29.063
 21
40.4958
  0
LINE
  8
0
 10
-29.063
 20
40.4958
 11
-28.2751
 21
40.9641
  0
LINE
  8
0
 10
-28.2751
 20
40.9641
 11
-27.6352
 21
41.4012
  0
LINE
  8
0
 10
-27.6352
 20
41.4012
 11
-27.1426
 21
41.8073
  0
LINE
  8
0
 10
-27.1426
 20
41.8073
 11
-26.7984
 21
42.1826
  0
LINE
  8
0
 10
-26.7984
 20
42.1826
 11
-26.6016
 21
42.5278
  0
LINE
  8
0
 10
-26.6016
 20
42.5278
 11
-26.5535
 21
42.8423
  0
LINE
  8
0
 10
-26.5535
 20
42.8423
 11
-26.6542
 21
43.1261
  0
LINE
  8
0
 10
-26.6542
 20
43.1261
 11
-26.9028
 21
43.3778
  0
LINE
  8
0
 10
-26.9028
 20
43.3778
 11
-27.2992
 21
43.5985
  0
LINE
  8
0
 10
-27.2992
 20
43.5985
 11
-27.8435
 21
43.7875
  0
LINE
  8
0
 10
-27.8435
 20
43.7875
 11
-28.5329
 21
43.9455
  0
LINE
  8
0
 10
-28.5329
 20
43.9455
 11
-28.5329
 21
47.5645
  0
LINE
  8
0
 10
-28.5329
 20
47.5645
 11
-27.7945
 21
49.1191
  0
LINE
  8
0
 10
-27.7945
 20
49.1191
 11
-26.9449
 21
49.0784
  0
LINE
  8
0
 10
-26.9449
 20
49.0784
 11
-26.1685
 21
48.931
  0
LINE
  8
0
 10
-26.1685
 20
48.931
 11
-25.4686
 21
48.6765
  0
LINE
  8
0
 10
-25.4686
 20
48.6765
 11
-24.8424
 21
48.3148
  0
LINE
  8
0
 10
-24.8424
 20
48.3148
 11
-24.2921
 21
47.8465
  0
LINE
  8
0
 10
-24.2921
 20
47.8465
 11
-23.817
 21
47.2707
  0
LINE
  8
0
 10
-23.817
 20
47.2707
 11
-23.4169
 21
46.5881
  0
LINE
  8
0
 10
-23.4169
 20
46.5881
 11
-23.0914
 21
45.798
  0
LINE
  8
0
 10
-23.0914
 20
45.798
 11
-22.8415
 21
44.9013
  0
LINE
  8
0
 10
-22.8415
 20
44.9013
 11
-22.6666
 21
43.8974
  0
LINE
  8
0
 10
-22.6666
 20
43.8974
 11
-22.5668
 21
42.7855
  0
LINE
  8
0
 10
-22.5668
 20
42.7855
 11
-22.5426
 21
41.5692
  0
LINE
  8
0
 10
-22.5426
 20
41.5692
 11
-25.421
 21
40.0032
  0
LINE
  8
0
 10
-25.421
 20
40.0032
 11
-29.9876
 21
40.0032
  0
LINE
  8
0
 10
0.0123596
 20
40.0032
 11
0.937042
 21
40.4958
  0
LINE
  8
0
 10
0.937042
 20
40.4958
 11
1.72485
 21
40.9641
  0
LINE
  8
0
 10
1.72485
 20
40.9641
 11
2.36481
 21
41.4012
  0
LINE
  8
0
 10
2.36481
 20
41.4012
 11
2.85736
 21
41.8073
  0
LINE
  8
0
 10
2.85736
 20
41.8073
 11
3.2016
 21
42.1826
  0
LINE
  8
0
 10
3.2016
 20
42.1826
 11
3.39844
 21
42.5278
  0
LINE
  8
0
 10
3.39844
 20
42.5278
 11
3.4465
 21
42.8423
  0
LINE
  8
0
 10
3.4465
 20
42.8423
 11
3.34579
 21
43.1261
  0
LINE
  8
0
 10
3.34579
 20
43.1261
 11
3.09723
 21
43.3778
  0
LINE
  8
0
 10
3.09723
 20
43.3778
 11
2.70081
 21
43.5985
  0
LINE
  8
0
 10
2.70081
 20
43.5985
 11
2.15652
 21
43.7875
  0
LINE
  8
0
 10
2.15652
 20
43.7875
 11
1.46713
 21
43.9455
  0
LINE
  8
0
 10
1.46713
 20
43.9455
 11
1.46713
 21
47.5645
  0
LINE
  8
0
 10
1.46713
 20
47.5645
 11
2.20551
 21
49.1191
  0
LINE
  8
0
 10
2.20551
 20
49.1191
 11
3.05511
 21
49.0784
  0
LINE
  8
0
 10
3.05511
 20
49.0784
 11
3.83148
 21
48.931
  0
LINE
  8
0
 10
3.83148
 20
48.931
 11
4.5314
 21
48.6765
  0
LINE
  8
0
 10
4.5314
 20
48.6765
 11
5.15762
 21
48.3148
  0
LINE
  8
0
 10
5.15762
 20
48.3148
 11
5.70786
 21
47.8465
  0
LINE
  8
0
 10
5.70786
 20
47.8465
 11
6.18301
 21
47.2707
  0
LINE
  8
0
 10
6.18301
 20
47.2707
 11
6.5831
 21
46.5881
  0
LINE
  8
0
 10
6.5831
 20
46.5881
 11
6.90857
 21
45.798
  0
LINE
  8
0
 10
6.90857
 20
45.798
 11
7.15851
 21
44.9013
  0
LINE
  8
0
 10
7.15851
 20
44.9013
 11
7.33337
 21
43.8974
  0
LINE
  8
0
 10
7.33337
 20
43.8974
 11
7.43317
 21
42.7855
  0
LINE
  8
0
 10
7.43317
 20
42.7855
 11
7.45743
 21
41.5692
  0
LINE
  8
0
 10
7.45743
 20
41.5692
 11
4.57901
 21
40.0032
  0
LINE
  8
0
 10
4.57901
 20
40.0032
 11
0.0123596
 21
40.0032
  0
LINE
  8
0
 10
30.0124
 20
40.0032
 11
30.937
 21
40.4958
  0
LINE
  8
0
 10
30.937
 20
40.4958
 11
31.7249
 21
40.9641
  0
LINE
  8
0
 10
31.7249
 20
40.9641
 11
32.3648
 21
41.4012
  0
LINE
  8
0
 10
32.3648
 20
41.4012
 11
32.8574
 21
41.8073
  0
LINE
  8
0
 10
32.8574
 20
41.8073
 11
33.2016
 21
42.1826
  0
LINE
  8
0
 10
33.2016
 20
42.1826
 11
33.3984
 21
42.5278
  0
LINE
  8
0
 10
33.3984
 20
42.5278
 11
33.4465
 21
42.8423
  0
LINE
  8
0
 10
33.4465
 20
42.8423
 11
33.3458
 21
43.1261
  0
LINE
  8
0
 10
33.3458
 20
43.1261
 11
33.0972
 21
43.3778
  0
LINE
  8
0
 10
33.0972
 20
43.3778
 11
32.7008
 21
43.5985
  0
LINE
  8
0
 10
32.7008
 20
43.5985
 11
32.1565
 21
43.7875
  0
LINE
  8
0
 10
32.1565
 20
43.7875
 11
31.4671
 21
43.9455
  0
LINE
  8
0
 10
31.4671
 20
43.9455
 11
31.4671
 21
47.5645
  0
LINE
  8
0
 10
31.4671
 20
47.5645
 11
32.2055
 21
49.1191
  0
LINE
  8
0
 10
32.2055
 20
49.1191
 11
33.0551
 21
49.0784
  0
LINE
  8
0
 10
33.0551
 20
49.0784
 11
33.8315
 21
48.931
  0
LINE
  8
0
 10
33.8315
 20
48.931
 11
34.5314
 21
48.6765
  0
LINE
  8
0
 10
34.5314
 20
48.6765
 11
35.1576
 21
48.3148
  0
LINE
  8
0
 10
35.1576
 20
48.3148
 11
35.7079
 21
47.8465
  0
LINE
  8
0
 10
35.7079
 20
47.8465
 11
36.183
 21
47.2707
  0
LINE
  8
0
 10
36.183
 20
47.2707
 11
36.5831
 21
46.5881
  0
LINE
  8
0
 10
36.5831
 20
46.5881
 11
36.9086
 21
45.798
  0
LINE
  8
0
 10
36.9086
 20
45.798
 11
37.1585
 21
44.9013
  0
LINE
  8
0
 10
37.1585
 20
44.9013
 11
37.3334
 21
43.8974
  0
LINE
  8
0
 10
37.3334
 20
43.8974
 11
37.4332
 21
42.7855
  0
LINE
  8
0
 10
37.4332
 20
42.7855
 11
37.4574
 21
41.5692
  0
LINE
  8
0
 10
37.4574
 20
41.5692
 11
34.579
 21
40.0032
  0
LINE
  8
0
 10
34.579
 20
40.0032
 11
30.0124
 21
40.0032
  0
LINE
  8
0
 10
-46.6775
 20
48.3348
 11
-46.593
 21
47.5183
  0
LINE
  8
0
 10
-46.593
 20
47.5183
 11
-46.545
 21
46.0493
  0
LINE
  8
0
 10
-46.545
 20
46.0493
 11
-46.9405
 21
46.0658
  0
LINE
  8
0
 10
-46.9405
 20
46.0658
 11
-47.2678
 21
46.0109
  0
LINE
  8
0
 10
-47.2678
 20
46.0109
 11
-47.4642
 21
45.9138
  0
LINE
  8
0
 10
-47.4642
 20
45.9138
 11
-46.6775
 21
48.3348
  0
LINE
  8
0
 10
-30.4958
 20
40.937
 11
-30.9641
 21
41.7249
  0
LINE
  8
0
 10
-30.9641
 20
41.7249
 11
-31.4012
 21
42.3648
  0
LINE
  8
0
 10
-31.4012
 20
42.3648
 11
-31.8073
 21
42.8574
  0
LINE
  8
0
 10
-31.8073
 20
42.8574
 11
-32.1826
 21
43.2016
  0
LINE
  8
0
 10
-32.1826
 20
43.2016
 11
-32.5278
 21
43.3984
  0
LINE
  8
0
 10
-32.5278
 20
43.3984
 11
-32.8423
 21
43.4465
  0
LINE
  8
0
 10
-32.8423
 20
43.4465
 11
-33.1261
 21
43.3458
  0
LINE
  8
0
 10
-33.1261
 20
43.3458
 11
-33.3778
 21
43.0972
  0
LINE
  8
0
 10
-33.3778
 20
43.0972
 11
-33.5985
 21
42.7008
  0
LINE
  8
0
 10
-33.5985
 20
42.7008
 11
-33.7875
 21
42.1565
  0
LINE
  8
0
 10
-33.7875
 20
42.1565
 11
-33.9455
 21
41.4671
  0
LINE
  8
0
 10
-33.9455
 20
41.4671
 11
-37.5641
 21
41.4671
  0
LINE
  8
0
 10
-37.5641
 20
41.4671
 11
-39.1191
 21
42.2055
  0
LINE
  8
0
 10
-39.1191
 20
42.2055
 11
-39.0784
 21
43.0551
  0
LINE
  8
0
 10
-39.0784
 20
43.0551
 11
-38.931
 21
43.8315
  0
LINE
  8
0
 10
-38.931
 20
43.8315
 11
-38.6765
 21
44.5314
  0
LINE
  8
0
 10
-38.6765
 20
44.5314
 11
-38.3153
 21
45.1572
  0
LINE
  8
0
 10
-38.3153
 20
45.1572
 11
-37.847
 21
45.7074
  0
LINE
  8
0
 10
-37.847
 20
45.7074
 11
-37.2711
 21
46.1826
  0
LINE
  8
0
 10
-37.2711
 20
46.1826
 11
-36.5881
 21
46.5831
  0
LINE
  8
0
 10
-36.5881
 20
46.5831
 11
-35.798
 21
46.9086
  0
LINE
  8
0
 10
-35.798
 20
46.9086
 11
-34.9013
 21
47.1585
  0
LINE
  8
0
 10
-34.9013
 20
47.1585
 11
-33.8974
 21
47.3334
  0
LINE
  8
0
 10
-33.8974
 20
47.3334
 11
-32.7855
 21
47.4332
  0
LINE
  8
0
 10
-32.7855
 20
47.4332
 11
-31.5692
 21
47.4574
  0
LINE
  8
0
 10
-31.5692
 20
47.4574
 11
-30.0032
 21
44.579
  0
LINE
  8
0
 10
-30.0032
 20
44.579
 11
-30.0032
 21
40.0124
  0
LINE
  8
0
 10
-30.0032
 20
40.0124
 11
-30.4958
 21
40.937
  0
LINE
  8
0
 10
29.5042
 20
40.937
 11
29.0359
 21
41.7249
  0
LINE
  8
0
 10
29.0359
 20
41.7249
 11
28.5988
 21
42.3648
  0
LINE
  8
0
 10
28.5988
 20
42.3648
 11
28.1927
 21
42.8574
  0
LINE
  8
0
 10
28.1927
 20
42.8574
 11
27.8174
 21
43.2016
  0
LINE
  8
0
 10
27.8174
 20
43.2016
 11
27.4722
 21
43.3984
  0
LINE
  8
0
 10
27.4722
 20
43.3984
 11
27.1577
 21
43.4465
  0
LINE
  8
0
 10
27.1577
 20
43.4465
 11
26.8739
 21
43.3458
  0
LINE
  8
0
 10
26.8739
 20
43.3458
 11
26.6222
 21
43.0972
  0
LINE
  8
0
 10
26.6222
 20
43.0972
 11
26.4015
 21
42.7008
  0
LINE
  8
0
 10
26.4015
 20
42.7008
 11
26.2125
 21
42.1565
  0
LINE
  8
0
 10
26.2125
 20
42.1565
 11
26.0545
 21
41.4671
  0
LINE
  8
0
 10
26.0545
 20
41.4671
 11
22.4359
 21
41.4671
  0
LINE
  8
0
 10
22.4359
 20
41.4671
 11
20.8809
 21
42.2055
  0
LINE
  8
0
 10
20.8809
 20
42.2055
 11
20.9216
 21
43.0551
  0
LINE
  8
0
 10
20.9216
 20
43.0551
 11
21.069
 21
43.8315
  0
LINE
  8
0
 10
21.069
 20
43.8315
 11
21.3235
 21
44.5314
  0
LINE
  8
0
 10
21.3235
 20
44.5314
 11
21.6847
 21
45.1572
  0
LINE
  8
0
 10
21.6847
 20
45.1572
 11
22.153
 21
45.7074
  0
LINE
  8
0
 10
22.153
 20
45.7074
 11
22.7289
 21
46.1826
  0
LINE
  8
0
 10
22.7289
 20
46.1826
 11
23.4119
 21
46.5831
  0
LINE
  8
0
 10
23.4119
 20
46.5831
 11
24.202
 21
46.9086
  0
LINE
  8
0
 10
24.202
 20
46.9086
 11
25.0987
 21
47.1585
  0
LINE
  8
0
 10
25.0987
 20
47.1585
 11
26.1026
 21
47.3334
  0
LINE
  8
0
 10
26.1026
 20
47.3334
 11
27.2145
 21
47.4332
  0
LINE
  8
0
 10
27.2145
 20
47.4332
 11
28.4308
 21
47.4574
  0
LINE
  8
0
 10
28.4308
 20
47.4574
 11
29.9968
 21
44.579
  0
LINE
  8
0
 10
29.9968
 20
44.579
 11
29.9968
 21
40.0124
  0
LINE
  8
0
 10
29.9968
 20
40.0124
 11
29.5042
 21
40.937
  0
LINE
  8
0
 10
-0.495758
 20
40.937
 11
-0.96405
 21
41.7249
  0
LINE
  8
0
 10
-0.96405
 20
41.7249
 11
-1.40121
 21
42.3648
  0
LINE
  8
0
 10
-1.40121
 20
42.3648
 11
-1.80725
 21
42.8574
  0
LINE
  8
0
 10
-1.80725
 20
42.8574
 11
-2.18262
 21
43.2016
  0
LINE
  8
0
 10
-2.18262
 20
43.2016
 11
-2.52777
 21
43.3984
  0
LINE
  8
0
 10
-2.52777
 20
43.3984
 11
-2.84225
 21
43.4465
  0
LINE
  8
0
 10
-2.84225
 20
43.4465
 11
-3.12607
 21
43.3458
  0
LINE
  8
0
 10
-3.12607
 20
43.3458
 11
-3.37784
 21
43.0972
  0
LINE
  8
0
 10
-3.37784
 20
43.0972
 11
-3.59848
 21
42.7008
  0
LINE
  8
0
 10
-3.59848
 20
42.7008
 11
-3.78754
 21
42.1565
  0
LINE
  8
0
 10
-3.78754
 20
42.1565
 11
-3.94547
 21
41.4671
  0
LINE
  8
0
 10
-3.94547
 20
41.4671
 11
-7.56409
 21
41.4671
  0
LINE
  8
0
 10
-7.56409
 20
41.4671
 11
-9.11911
 21
42.2055
  0
LINE
  8
0
 10
-9.11911
 20
42.2055
 11
-9.07837
 21
43.0551
  0
LINE
  8
0
 10
-9.07837
 20
43.0551
 11
-8.93097
 21
43.8315
  0
LINE
  8
0
 10
-8.93097
 20
43.8315
 11
-8.67645
 21
44.5314
  0
LINE
  8
0
 10
-8.67645
 20
44.5314
 11
-8.31528
 21
45.1572
  0
LINE
  8
0
 10
-8.31528
 20
45.1572
 11
-7.84698
 21
45.7074
  0
LINE
  8
0
 10
-7.84698
 20
45.7074
 11
-7.27112
 21
46.1826
  0
LINE
  8
0
 10
-7.27112
 20
46.1826
 11
-6.58813
 21
46.5831
  0
LINE
  8
0
 10
-6.58813
 20
46.5831
 11
-5.79803
 21
46.9086
  0
LINE
  8
0
 10
-5.79803
 20
46.9086
 11
-4.90128
 21
47.1585
  0
LINE
  8
0
 10
-4.90128
 20
47.1585
 11
-3.8974
 21
47.3334
  0
LINE
  8
0
 10
-3.8974
 20
47.3334
 11
-2.78549
 21
47.4332
  0
LINE
  8
0
 10
-2.78549
 20
47.4332
 11
-1.56921
 21
47.4574
  0
LINE
  8
0
 10
-1.56921
 20
47.4574
 11
-0.00320435
 21
44.579
  0
LINE
  8
0
 10
-0.00320435
 20
44.579
 11
-0.00320435
 21
40.0124
  0
LINE
  8
0
 10
-0.00320435
 20
40.0124
 11
-0.495758
 21
40.937
  0
LINE
  8
0
 10
-48.3056
 20
43.3241
 11
-47.8251
 21
44.803
  0
LINE
  8
0
 10
-47.8251
 20
44.803
 11
-47.8134
 21
44.6729
  0
LINE
  8
0
 10
-47.8134
 20
44.6729
 11
-47.7045
 21
44.1936
  0
LINE
  8
0
 10
-47.7045
 20
44.1936
 11
-47.5232
 21
43.6429
  0
LINE
  8
0
 10
-47.5232
 20
43.6429
 11
-47.2696
 21
43.0217
  0
LINE
  8
0
 10
-47.2696
 20
43.0217
 11
-46.9432
 21
42.3291
  0
LINE
  8
0
 10
-46.9432
 20
42.3291
 11
-46.5541
 21
41.5839
  0
LINE
  8
0
 10
-46.5541
 20
41.5839
 11
-48.3056
 21
43.3241
  0
LINE
  8
0
 10
46.5193
 20
42.981
 11
47.9423
 21
44.4422
  0
LINE
  8
0
 10
47.9423
 20
44.4422
 11
48.3189
 21
43.283
  0
LINE
  8
0
 10
48.3189
 20
43.283
 11
46.5193
 21
41.4717
  0
LINE
  8
0
 10
46.5193
 20
41.4717
 11
46.5193
 21
42.981
  0
LINE
  8
0
 10
26.9449
 20
30.9216
 11
26.1685
 21
31.069
  0
LINE
  8
0
 10
26.1685
 20
31.069
 11
25.4686
 21
31.3235
  0
LINE
  8
0
 10
25.4686
 20
31.3235
 11
24.8424
 21
31.6852
  0
LINE
  8
0
 10
24.8424
 20
31.6852
 11
24.2921
 21
32.1535
  0
LINE
  8
0
 10
24.2921
 20
32.1535
 11
23.817
 21
32.7293
  0
LINE
  8
0
 10
23.817
 20
32.7293
 11
23.4169
 21
33.4119
  0
LINE
  8
0
 10
23.4169
 20
33.4119
 11
23.0914
 21
34.202
  0
LINE
  8
0
 10
23.0914
 20
34.202
 11
22.8415
 21
35.0987
  0
LINE
  8
0
 10
22.8415
 20
35.0987
 11
22.6666
 21
36.1026
  0
LINE
  8
0
 10
22.6666
 20
36.1026
 11
22.5668
 21
37.2145
  0
LINE
  8
0
 10
22.5668
 20
37.2145
 11
22.5426
 21
38.4308
  0
LINE
  8
0
 10
22.5426
 20
38.4308
 11
25.421
 21
39.9968
  0
LINE
  8
0
 10
25.421
 20
39.9968
 11
29.9876
 21
39.9968
  0
LINE
  8
0
 10
29.9876
 20
39.9968
 11
29.063
 21
39.5042
  0
LINE
  8
0
 10
29.063
 20
39.5042
 11
28.2751
 21
39.0359
  0
LINE
  8
0
 10
28.2751
 20
39.0359
 11
27.6352
 21
38.5988
  0
LINE
  8
0
 10
27.6352
 20
38.5988
 11
27.1426
 21
38.1927
  0
LINE
  8
0
 10
27.1426
 20
38.1927
 11
26.7984
 21
37.8174
  0
LINE
  8
0
 10
26.7984
 20
37.8174
 11
26.6016
 21
37.4722
  0
LINE
  8
0
 10
26.6016
 20
37.4722
 11
26.5535
 21
37.1577
  0
LINE
  8
0
 10
26.5535
 20
37.1577
 11
26.6542
 21
36.8739
  0
LINE
  8
0
 10
26.6542
 20
36.8739
 11
26.9028
 21
36.6222
  0
LINE
  8
0
 10
26.9028
 20
36.6222
 11
27.2992
 21
36.4015
  0
LINE
  8
0
 10
27.2992
 20
36.4015
 11
27.8435
 21
36.2125
  0
LINE
  8
0
 10
27.8435
 20
36.2125
 11
28.5329
 21
36.0545
  0
LINE
  8
0
 10
28.5329
 20
36.0545
 11
28.5329
 21
32.4355
  0
LINE
  8
0
 10
28.5329
 20
32.4355
 11
27.7945
 21
30.8809
  0
LINE
  8
0
 10
27.7945
 20
30.8809
 11
26.9449
 21
30.9216
  0
LINE
  8
0
 10
-3.05511
 20
30.9216
 11
-3.83148
 21
31.069
  0
LINE
  8
0
 10
-3.83148
 20
31.069
 11
-4.5314
 21
31.3235
  0
LINE
  8
0
 10
-4.5314
 20
31.3235
 11
-5.15762
 21
31.6852
  0
LINE
  8
0
 10
-5.15762
 20
31.6852
 11
-5.70786
 21
32.1535
  0
LINE
  8
0
 10
-5.70786
 20
32.1535
 11
-6.18301
 21
32.7293
  0
LINE
  8
0
 10
-6.18301
 20
32.7293
 11
-6.5831
 21
33.4119
  0
LINE
  8
0
 10
-6.5831
 20
33.4119
 11
-6.90857
 21
34.202
  0
LINE
  8
0
 10
-6.90857
 20
34.202
 11
-7.15851
 21
35.0987
  0
LINE
  8
0
 10
-7.15851
 20
35.0987
 11
-7.33337
 21
36.1026
  0
LINE
  8
0
 10
-7.33337
 20
36.1026
 11
-7.43317
 21
37.2145
  0
LINE
  8
0
 10
-7.43317
 20
37.2145
 11
-7.45743
 21
38.4308
  0
LINE
  8
0
 10
-7.45743
 20
38.4308
 11
-4.57901
 21
39.9968
  0
LINE
  8
0
 10
-4.57901
 20
39.9968
 11
-0.0123596
 21
39.9968
  0
LINE
  8
0
 10
-0.0123596
 20
39.9968
 11
-0.937042
 21
39.5042
  0
LINE
  8
0
 10
-0.937042
 20
39.5042
 11
-1.72485
 21
39.0359
  0
LINE
  8
0
 10
-1.72485
 20
39.0359
 11
-2.36481
 21
38.5988
  0
LINE
  8
0
 10
-2.36481
 20
38.5988
 11
-2.85736
 21
38.1927
  0
LINE
  8
0
 10
-2.85736
 20
38.1927
 11
-3.2016
 21
37.8174
  0
LINE
  8
0
 10
-3.2016
 20
37.8174
 11
-3.39844
 21
37.4722
  0
LINE
  8
0
 10
-3.39844
 20
37.4722
 11
-3.4465
 21
37.1577
  0
LINE
  8
0
 10
-3.4465
 20
37.1577
 11
-3.34579
 21
36.8739
  0
LINE
  8
0
 10
-3.34579
 20
36.8739
 11
-3.09723
 21
36.6222
  0
LINE
  8
0
 10
-3.09723
 20
36.6222
 11
-2.70081
 21
36.4015
  0
LINE
  8
0
 10
-2.70081
 20
36.4015
 11
-2.15652
 21
36.2125
  0
LINE
  8
0
 10
-2.15652
 20
36.2125
 11
-1.46713
 21
36.0545
  0
LINE
  8
0
 10
-1.46713
 20
36.0545
 11
-1.46713
 21
32.4355
  0
LINE
  8
0
 10
-1.46713
 20
32.4355
 11
-2.20551
 21
30.8809
  0
LINE
  8
0
 10
-2.20551
 20
30.8809
 11
-3.05511
 21
30.9216
  0
LINE
  8
0
 10
-33.0551
 20
30.9216
 11
-33.8315
 21
31.069
  0
LINE
  8
0
 10
-33.8315
 20
31.069
 11
-34.5314
 21
31.3235
  0
LINE
  8
0
 10
-34.5314
 20
31.3235
 11
-35.1576
 21
31.6852
  0
LINE
  8
0
 10
-35.1576
 20
31.6852
 11
-35.7079
 21
32.1535
  0
LINE
  8
0
 10
-35.7079
 20
32.1535
 11
-36.183
 21
32.7293
  0
LINE
  8
0
 10
-36.183
 20
32.7293
 11
-36.5831
 21
33.4119
  0
LINE
  8
0
 10
-36.5831
 20
33.4119
 11
-36.9086
 21
34.202
  0
LINE
  8
0
 10
-36.9086
 20
34.202
 11
-37.1585
 21
35.0987
  0
LINE
  8
0
 10
-37.1585
 20
35.0987
 11
-37.3334
 21
36.1026
  0
LINE
  8
0
 10
-37.3334
 20
36.1026
 11
-37.4332
 21
37.2145
  0
LINE
  8
0
 10
-37.4332
 20
37.2145
 11
-37.4574
 21
38.4308
  0
LINE
  8
0
 10
-37.4574
 20
38.4308
 11
-34.579
 21
39.9968
  0
LINE
  8
0
 10
-34.579
 20
39.9968
 11
-30.0124
 21
39.9968
  0
LINE
  8
0
 10
-30.0124
 20
39.9968
 11
-30.937
 21
39.5042
  0
LINE
  8
0
 10
-30.937
 20
39.5042
 11
-31.7249
 21
39.0359
  0
LINE
  8
0
 10
-31.7249
 20
39.0359
 11
-32.3648
 21
38.5988
  0
LINE
  8
0
 10
-32.3648
 20
38.5988
 11
-32.8574
 21
38.1927
  0
LINE
  8
0
 10
-32.8574
 20
38.1927
 11
-33.2016
 21
37.8174
  0
LINE
  8
0
 10
-33.2016
 20
37.8174
 11
-33.3984
 21
37.4722
  0
LINE
  8
0
 10
-33.3984
 20
37.4722
 11
-33.4465
 21
37.1577
  0
LINE
  8
0
 10
-33.4465
 20
37.1577
 11
-33.3458
 21
36.8739
  0
LINE
  8
0
 10
-33.3458
 20
36.8739
 11
-33.0972
 21
36.6222
  0
LINE
  8
0
 10
-33.0972
 20
36.6222
 11
-32.7008
 21
36.4015
  0
LINE
  8
0
 10
-32.7008
 20
36.4015
 11
-32.1565
 21
36.2125
  0
LINE
  8
0
 10
-32.1565
 20
36.2125
 11
-31.4671
 21
36.0545
  0
LINE
  8
0
 10
-31.4671
 20
36.0545
 11
-31.4671
 21
32.4355
  0
LINE
  8
0
 10
-31.4671
 20
32.4355
 11
-32.2055
 21
30.8809
  0
LINE
  8
0
 10
-32.2055
 20
30.8809
 11
-33.0551
 21
30.9216
  0
LINE
  8
0
 10
30.0032
 20
35.421
 11
30.0032
 21
39.9876
  0
LINE
  8
0
 10
30.0032
 20
39.9876
 11
30.4958
 21
39.063
  0
LINE
  8
0
 10
30.4958
 20
39.063
 11
30.9641
 21
38.2751
  0
LINE
  8
0
 10
30.9641
 20
38.2751
 11
31.4012
 21
37.6352
  0
LINE
  8
0
 10
31.4012
 20
37.6352
 11
31.8073
 21
37.1426
  0
LINE
  8
0
 10
31.8073
 20
37.1426
 11
32.1826
 21
36.7984
  0
LINE
  8
0
 10
32.1826
 20
36.7984
 11
32.5278
 21
36.6016
  0
LINE
  8
0
 10
32.5278
 20
36.6016
 11
32.8423
 21
36.5535
  0
LINE
  8
0
 10
32.8423
 20
36.5535
 11
33.1261
 21
36.6542
  0
LINE
  8
0
 10
33.1261
 20
36.6542
 11
33.3778
 21
36.9028
  0
LINE
  8
0
 10
33.3778
 20
36.9028
 11
33.5985
 21
37.2992
  0
LINE
  8
0
 10
33.5985
 20
37.2992
 11
33.7875
 21
37.8435
  0
LINE
  8
0
 10
33.7875
 20
37.8435
 11
33.9455
 21
38.5329
  0
LINE
  8
0
 10
33.9455
 20
38.5329
 11
37.5641
 21
38.5329
  0
LINE
  8
0
 10
37.5641
 20
38.5329
 11
39.1191
 21
37.7945
  0
LINE
  8
0
 10
39.1191
 20
37.7945
 11
39.0784
 21
36.9449
  0
LINE
  8
0
 10
39.0784
 20
36.9449
 11
38.931
 21
36.1685
  0
LINE
  8
0
 10
38.931
 20
36.1685
 11
38.6765
 21
35.4686
  0
LINE
  8
0
 10
38.6765
 20
35.4686
 11
38.3148
 21
34.8424
  0
LINE
  8
0
 10
38.3148
 20
34.8424
 11
37.8465
 21
34.2921
  0
LINE
  8
0
 10
37.8465
 20
34.2921
 11
37.2711
 21
33.8174
  0
LINE
  8
0
 10
37.2711
 20
33.8174
 11
36.5881
 21
33.4169
  0
LINE
  8
0
 10
36.5881
 20
33.4169
 11
35.798
 21
33.0914
  0
LINE
  8
0
 10
35.798
 20
33.0914
 11
34.9013
 21
32.8415
  0
LINE
  8
0
 10
34.9013
 20
32.8415
 11
33.8974
 21
32.6666
  0
LINE
  8
0
 10
33.8974
 20
32.6666
 11
32.7855
 21
32.5668
  0
LINE
  8
0
 10
32.7855
 20
32.5668
 11
31.5692
 21
32.5426
  0
LINE
  8
0
 10
31.5692
 20
32.5426
 11
30.0032
 21
35.421
  0
LINE
  8
0
 10
-29.9968
 20
35.421
 11
-29.9968
 21
39.9876
  0
LINE
  8
0
 10
-29.9968
 20
39.9876
 11
-29.5042
 21
39.063
  0
LINE
  8
0
 10
-29.5042
 20
39.063
 11
-29.0359
 21
38.2751
  0
LINE
  8
0
 10
-29.0359
 20
38.2751
 11
-28.5988
 21
37.6352
  0
LINE
  8
0
 10
-28.5988
 20
37.6352
 11
-28.1927
 21
37.1426
  0
LINE
  8
0
 10
-28.1927
 20
37.1426
 11
-27.8174
 21
36.7984
  0
LINE
  8
0
 10
-27.8174
 20
36.7984
 11
-27.4722
 21
36.6016
  0
LINE
  8
0
 10
-27.4722
 20
36.6016
 11
-27.1577
 21
36.5535
  0
LINE
  8
0
 10
-27.1577
 20
36.5535
 11
-26.8739
 21
36.6542
  0
LINE
  8
0
 10
-26.8739
 20
36.6542
 11
-26.6222
 21
36.9028
  0
LINE
  8
0
 10
-26.6222
 20
36.9028
 11
-26.4015
 21
37.2992
  0
LINE
  8
0
 10
-26.4015
 20
37.2992
 11
-26.2125
 21
37.8435
  0
LINE
  8
0
 10
-26.2125
 20
37.8435
 11
-26.0545
 21
38.5329
  0
LINE
  8
0
 10
-26.0545
 20
38.5329
 11
-22.4359
 21
38.5329
  0
LINE
  8
0
 10
-22.4359
 20
38.5329
 11
-20.8809
 21
37.7945
  0
LINE
  8
0
 10
-20.8809
 20
37.7945
 11
-20.9216
 21
36.9449
  0
LINE
  8
0
 10
-20.9216
 20
36.9449
 11
-21.069
 21
36.1685
  0
LINE
  8
0
 10
-21.069
 20
36.1685
 11
-21.3235
 21
35.4686
  0
LINE
  8
0
 10
-21.3235
 20
35.4686
 11
-21.6852
 21
34.8424
  0
LINE
  8
0
 10
-21.6852
 20
34.8424
 11
-22.1535
 21
34.2921
  0
LINE
  8
0
 10
-22.1535
 20
34.2921
 11
-22.7289
 21
33.8174
  0
LINE
  8
0
 10
-22.7289
 20
33.8174
 11
-23.4119
 21
33.4169
  0
LINE
  8
0
 10
-23.4119
 20
33.4169
 11
-24.202
 21
33.0914
  0
LINE
  8
0
 10
-24.202
 20
33.0914
 11
-25.0987
 21
32.8415
  0
LINE
  8
0
 10
-25.0987
 20
32.8415
 11
-26.1026
 21
32.6666
  0
LINE
  8
0
 10
-26.1026
 20
32.6666
 11
-27.2145
 21
32.5668
  0
LINE
  8
0
 10
-27.2145
 20
32.5668
 11
-28.4308
 21
32.5426
  0
LINE
  8
0
 10
-28.4308
 20
32.5426
 11
-29.9968
 21
35.421
  0
LINE
  8
0
 10
0.00320435
 20
35.421
 11
0.00320435
 21
39.9876
  0
LINE
  8
0
 10
0.00320435
 20
39.9876
 11
0.495758
 21
39.063
  0
LINE
  8
0
 10
0.495758
 20
39.063
 11
0.96405
 21
38.2751
  0
LINE
  8
0
 10
0.96405
 20
38.2751
 11
1.40121
 21
37.6352
  0
LINE
  8
0
 10
1.40121
 20
37.6352
 11
1.80725
 21
37.1426
  0
LINE
  8
0
 10
1.80725
 20
37.1426
 11
2.18262
 21
36.7984
  0
LINE
  8
0
 10
2.18262
 20
36.7984
 11
2.52777
 21
36.6016
  0
LINE
  8
0
 10
2.52777
 20
36.6016
 11
2.84225
 21
36.5535
  0
LINE
  8
0
 10
2.84225
 20
36.5535
 11
3.12607
 21
36.6542
  0
LINE
  8
0
 10
3.12607
 20
36.6542
 11
3.37784
 21
36.9028
  0
LINE
  8
0
 10
3.37784
 20
36.9028
 11
3.59848
 21
37.2992
  0
LINE
  8
0
 10
3.59848
 20
37.2992
 11
3.78754
 21
37.8435
  0
LINE
  8
0
 10
3.78754
 20
37.8435
 11
3.94547
 21
38.5329
  0
LINE
  8
0
 10
3.94547
 20
38.5329
 11
7.56409
 21
38.5329
  0
LINE
  8
0
 10
7.56409
 20
38.5329
 11
9.11911
 21
37.7945
  0
LINE
  8
0
 10
9.11911
 20
37.7945
 11
9.07837
 21
36.9449
  0
LINE
  8
0
 10
9.07837
 20
36.9449
 11
8.93097
 21
36.1685
  0
LINE
  8
0
 10
8.93097
 20
36.1685
 11
8.67645
 21
35.4686
  0
LINE
  8
0
 10
8.67645
 20
35.4686
 11
8.31482
 21
34.8424
  0
LINE
  8
0
 10
8.31482
 20
34.8424
 11
7.84653
 21
34.2921
  0
LINE
  8
0
 10
7.84653
 20
34.2921
 11
7.27112
 21
33.8174
  0
LINE
  8
0
 10
7.27112
 20
33.8174
 11
6.58813
 21
33.4169
  0
LINE
  8
0
 10
6.58813
 20
33.4169
 11
5.79803
 21
33.0914
  0
LINE
  8
0
 10
5.79803
 20
33.0914
 11
4.90128
 21
32.8415
  0
LINE
  8
0
 10
4.90128
 20
32.8415
 11
3.8974
 21
32.6666
  0
LINE
  8
0
 10
3.8974
 20
32.6666
 11
2.78549
 21
32.5668
  0
LINE
  8
0
 10
2.78549
 20
32.5668
 11
1.56921
 21
32.5426
  0
LINE
  8
0
 10
1.56921
 20
32.5426
 11
0.00320435
 21
35.421
  0
LINE
  8
0
 10
6.06583
 20
26.9405
 11
6.01089
 21
27.2678
  0
LINE
  8
0
 10
6.01089
 20
27.2678
 11
5.88501
 21
27.5223
  0
LINE
  8
0
 10
5.88501
 20
27.5223
 11
5.68863
 21
27.7045
  0
LINE
  8
0
 10
5.68863
 20
27.7045
 11
5.42084
 21
27.813
  0
LINE
  8
0
 10
5.42084
 20
27.813
 11
5.08209
 21
27.85
  0
LINE
  8
0
 10
5.08209
 20
27.85
 11
4.67285
 21
27.8134
  0
LINE
  8
0
 10
4.67285
 20
27.8134
 11
4.19357
 21
27.7045
  0
LINE
  8
0
 10
4.19357
 20
27.7045
 11
3.64288
 21
27.5232
  0
LINE
  8
0
 10
3.64288
 20
27.5232
 11
3.0217
 21
27.2696
  0
LINE
  8
0
 10
3.0217
 20
27.2696
 11
2.3291
 21
26.9432
  0
LINE
  8
0
 10
2.3291
 20
26.9432
 11
1.58386
 21
26.5541
  0
LINE
  8
0
 10
1.58386
 20
26.5541
 11
13.4807
 21
38.5283
  0
LINE
  8
0
 10
13.4807
 20
38.5283
 11
13.4807
 21
37.019
  0
LINE
  8
0
 10
13.4807
 20
37.019
 11
9.11819
 21
32.5394
  0
LINE
  8
0
 10
9.11819
 20
32.5394
 11
10.0804
 21
31.5849
  0
LINE
  8
0
 10
10.0804
 20
31.5849
 11
10.8192
 21
30.7152
  0
LINE
  8
0
 10
10.8192
 20
30.7152
 11
11.337
 21
29.9287
  0
LINE
  8
0
 10
11.337
 20
29.9287
 11
11.6331
 21
29.2242
  0
LINE
  8
0
 10
11.6331
 20
29.2242
 11
11.7087
 21
28.6012
  0
LINE
  8
0
 10
11.7087
 20
28.6012
 11
11.5636
 21
28.0624
  0
LINE
  8
0
 10
11.5636
 20
28.0624
 11
11.1974
 21
27.6047
  0
LINE
  8
0
 10
11.1974
 20
27.6047
 11
10.6091
 21
27.2279
  0
LINE
  8
0
 10
10.6091
 20
27.2279
 11
9.80026
 21
26.9345
  0
LINE
  8
0
 10
9.80026
 20
26.9345
 11
8.77029
 21
26.7226
  0
LINE
  8
0
 10
8.77029
 20
26.7226
 11
7.51831
 21
26.593
  0
LINE
  8
0
 10
7.51831
 20
26.593
 11
6.04935
 21
26.545
  0
LINE
  8
0
 10
6.04935
 20
26.545
 11
6.06583
 21
26.9405
  0
LINE
  8
0
 10
-23.9342
 20
26.9405
 11
-23.9891
 21
27.2678
  0
LINE
  8
0
 10
-23.9891
 20
27.2678
 11
-24.115
 21
27.5223
  0
LINE
  8
0
 10
-24.115
 20
27.5223
 11
-24.3114
 21
27.7045
  0
LINE
  8
0
 10
-24.3114
 20
27.7045
 11
-24.5792
 21
27.813
  0
LINE
  8
0
 10
-24.5792
 20
27.813
 11
-24.9179
 21
27.85
  0
LINE
  8
0
 10
-24.9179
 20
27.85
 11
-25.3271
 21
27.8134
  0
LINE
  8
0
 10
-25.3271
 20
27.8134
 11
-25.8064
 21
27.7045
  0
LINE
  8
0
 10
-25.8064
 20
27.7045
 11
-26.3571
 21
27.5232
  0
LINE
  8
0
 10
-26.3571
 20
27.5232
 11
-26.9783
 21
27.2696
  0
LINE
  8
0
 10
-26.9783
 20
27.2696
 11
-27.6709
 21
26.9432
  0
LINE
  8
0
 10
-27.6709
 20
26.9432
 11
-28.4161
 21
26.5541
  0
LINE
  8
0
 10
-28.4161
 20
26.5541
 11
-16.5193
 21
38.5283
  0
LINE
  8
0
 10
-16.5193
 20
38.5283
 11
-16.5193
 21
37.019
  0
LINE
  8
0
 10
-16.5193
 20
37.019
 11
-20.8818
 21
32.5394
  0
LINE
  8
0
 10
-20.8818
 20
32.5394
 11
-19.9196
 21
31.5849
  0
LINE
  8
0
 10
-19.9196
 20
31.5849
 11
-19.1808
 21
30.7152
  0
LINE
  8
0
 10
-19.1808
 20
30.7152
 11
-18.663
 21
29.9287
  0
LINE
  8
0
 10
-18.663
 20
29.9287
 11
-18.3669
 21
29.2242
  0
LINE
  8
0
 10
-18.3669
 20
29.2242
 11
-18.2913
 21
28.6012
  0
LINE
  8
0
 10
-18.2913
 20
28.6012
 11
-18.4364
 21
28.0624
  0
LINE
  8
0
 10
-18.4364
 20
28.0624
 11
-18.8026
 21
27.6047
  0
LINE
  8
0
 10
-18.8026
 20
27.6047
 11
-19.3909
 21
27.2279
  0
LINE
  8
0
 10
-19.3909
 20
27.2279
 11
-20.1997
 21
26.9345
  0
LINE
  8
0
 10
-20.1997
 20
26.9345
 11
-21.2297
 21
26.7226
  0
LINE
  8
0
 10
-21.2297
 20
26.7226
 11
-22.4817
 21
26.593
  0
LINE
  8
0
 10
-22.4817
 20
26.593
 11
-23.9507
 21
26.545
  0
LINE
  8
0
 10
-23.9507
 20
26.545
 11
-23.9342
 21
26.9405
  0
LINE
  8
0
 10
-51.4892
 20
33.5261
 11
-46.5193
 21
38.5283
  0
LINE
  8
0
 10
-46.5193
 20
38.5283
 11
-46.5193
 21
37.019
  0
LINE
  8
0
 10
-46.5193
 20
37.019
 11
-50.8818
 21
32.5394
  0
LINE
  8
0
 10
-50.8818
 20
32.5394
 11
-49.9196
 21
31.5849
  0
LINE
  8
0
 10
-49.9196
 20
31.5849
 11
-49.1808
 21
30.7152
  0
LINE
  8
0
 10
-49.1808
 20
30.7152
 11
-48.663
 21
29.9287
  0
LINE
  8
0
 10
-48.663
 20
29.9287
 11
-48.3669
 21
29.2242
  0
LINE
  8
0
 10
-48.3669
 20
29.2242
 11
-48.2913
 21
28.6012
  0
LINE
  8
0
 10
-48.2913
 20
28.6012
 11
-48.4364
 21
28.0624
  0
LINE
  8
0
 10
-48.4364
 20
28.0624
 11
-48.8026
 21
27.6047
  0
LINE
  8
0
 10
-48.8026
 20
27.6047
 11
-49.3909
 21
27.2279
  0
LINE
  8
0
 10
-49.3909
 20
27.2279
 11
-50.1997
 21
26.9345
  0
LINE
  8
0
 10
-50.1997
 20
26.9345
 11
-51.2297
 21
26.7226
  0
LINE
  8
0
 10
-51.2297
 20
26.7226
 11
-52.4817
 21
26.593
  0
LINE
  8
0
 10
-52.4817
 20
26.593
 11
-53.7554
 21
26.5513
  0
LINE
  8
0
 10
-53.7554
 20
26.5513
 11
-51.4892
 21
33.5261
  0
LINE
  8
0
 10
36.0658
 20
26.9405
 11
36.0109
 21
27.2678
  0
LINE
  8
0
 10
36.0109
 20
27.2678
 11
35.885
 21
27.5223
  0
LINE
  8
0
 10
35.885
 20
27.5223
 11
35.6886
 21
27.7045
  0
LINE
  8
0
 10
35.6886
 20
27.7045
 11
35.4208
 21
27.813
  0
LINE
  8
0
 10
35.4208
 20
27.813
 11
35.0821
 21
27.85
  0
LINE
  8
0
 10
35.0821
 20
27.85
 11
34.6729
 21
27.8134
  0
LINE
  8
0
 10
34.6729
 20
27.8134
 11
34.1936
 21
27.7045
  0
LINE
  8
0
 10
34.1936
 20
27.7045
 11
33.6429
 21
27.5232
  0
LINE
  8
0
 10
33.6429
 20
27.5232
 11
33.0217
 21
27.2696
  0
LINE
  8
0
 10
33.0217
 20
27.2696
 11
32.3291
 21
26.9432
  0
LINE
  8
0
 10
32.3291
 20
26.9432
 11
31.5839
 21
26.5541
  0
LINE
  8
0
 10
31.5839
 20
26.5541
 11
43.4807
 21
38.5283
  0
LINE
  8
0
 10
43.4807
 20
38.5283
 11
43.4807
 21
37.019
  0
LINE
  8
0
 10
43.4807
 20
37.019
 11
39.1182
 21
32.5394
  0
LINE
  8
0
 10
39.1182
 20
32.5394
 11
40.0804
 21
31.5849
  0
LINE
  8
0
 10
40.0804
 20
31.5849
 11
40.8192
 21
30.7152
  0
LINE
  8
0
 10
40.8192
 20
30.7152
 11
41.337
 21
29.9287
  0
LINE
  8
0
 10
41.337
 20
29.9287
 11
41.6331
 21
29.2242
  0
LINE
  8
0
 10
41.6331
 20
29.2242
 11
41.7087
 21
28.6012
  0
LINE
  8
0
 10
41.7087
 20
28.6012
 11
41.5636
 21
28.0624
  0
LINE
  8
0
 10
41.5636
 20
28.0624
 11
41.1974
 21
27.6047
  0
LINE
  8
0
 10
41.1974
 20
27.6047
 11
40.6091
 21
27.2279
  0
LINE
  8
0
 10
40.6091
 20
27.2279
 11
39.8003
 21
26.9345
  0
LINE
  8
0
 10
39.8003
 20
26.9345
 11
38.7703
 21
26.7226
  0
LINE
  8
0
 10
38.7703
 20
26.7226
 11
37.5183
 21
26.593
  0
LINE
  8
0
 10
37.5183
 20
26.593
 11
36.0493
 21
26.545
  0
LINE
  8
0
 10
36.0493
 20
26.545
 11
36.0658
 21
26.9405
  0
LINE
  8
0
 10
48.062
 20
28.4369
 11
47.6047
 21
28.8026
  0
LINE
  8
0
 10
47.6047
 20
28.8026
 11
47.2279
 21
29.3909
  0
LINE
  8
0
 10
47.2279
 20
29.3909
 11
46.9345
 21
30.1997
  0
LINE
  8
0
 10
46.9345
 20
30.1997
 11
46.7226
 21
31.2297
  0
LINE
  8
0
 10
46.7226
 20
31.2297
 11
46.593
 21
32.4817
  0
LINE
  8
0
 10
46.593
 20
32.4817
 11
46.545
 21
33.9507
  0
LINE
  8
0
 10
46.545
 20
33.9507
 11
46.9405
 21
33.9342
  0
LINE
  8
0
 10
46.9405
 20
33.9342
 11
47.2678
 21
33.9891
  0
LINE
  8
0
 10
47.2678
 20
33.9891
 11
47.5223
 21
34.115
  0
LINE
  8
0
 10
47.5223
 20
34.115
 11
47.7045
 21
34.3114
  0
LINE
  8
0
 10
47.7045
 20
34.3114
 11
47.813
 21
34.5792
  0
LINE
  8
0
 10
47.813
 20
34.5792
 11
47.85
 21
34.9179
  0
LINE
  8
0
 10
47.85
 20
34.9179
 11
47.8134
 21
35.3271
  0
LINE
  8
0
 10
47.8134
 20
35.3271
 11
47.7045
 21
35.8064
  0
LINE
  8
0
 10
47.7045
 20
35.8064
 11
47.5232
 21
36.3571
  0
LINE
  8
0
 10
47.5232
 20
36.3571
 11
47.2696
 21
36.9783
  0
LINE
  8
0
 10
47.2696
 20
36.9783
 11
46.9432
 21
37.6709
  0
LINE
  8
0
 10
46.9432
 20
37.6709
 11
46.5541
 21
38.4161
  0
LINE
  8
0
 10
46.5541
 20
38.4161
 11
51.4955
 21
33.5067
  0
LINE
  8
0
 10
51.4955
 20
33.5067
 11
52.3955
 21
30.7367
  0
LINE
  8
0
 10
52.3955
 20
30.7367
 11
51.5849
 21
29.9196
  0
LINE
  8
0
 10
51.5849
 20
29.9196
 11
50.7152
 21
29.1808
  0
LINE
  8
0
 10
50.7152
 20
29.1808
 11
49.9287
 21
28.663
  0
LINE
  8
0
 10
49.9287
 20
28.663
 11
49.2242
 21
28.3669
  0
LINE
  8
0
 10
49.2242
 20
28.3669
 11
48.6012
 21
28.2913
  0
LINE
  8
0
 10
48.6012
 20
28.2913
 11
48.062
 21
28.4369
  0
LINE
  8
0
 10
-2.98096
 20
26.5193
 11
-7.46063
 21
30.8818
  0
LINE
  8
0
 10
-7.46063
 20
30.8818
 11
-8.41507
 21
29.9196
  0
LINE
  8
0
 10
-8.41507
 20
29.9196
 11
-9.28482
 21
29.1808
  0
LINE
  8
0
 10
-9.28482
 20
29.1808
 11
-10.0713
 21
28.663
  0
LINE
  8
0
 10
-10.0713
 20
28.663
 11
-10.7758
 21
28.3669
  0
LINE
  8
0
 10
-10.7758
 20
28.3669
 11
-11.3988
 21
28.2913
  0
LINE
  8
0
 10
-11.3988
 20
28.2913
 11
-11.938
 21
28.4369
  0
LINE
  8
0
 10
-11.938
 20
28.4369
 11
-12.3953
 21
28.8026
  0
LINE
  8
0
 10
-12.3953
 20
28.8026
 11
-12.7721
 21
29.3909
  0
LINE
  8
0
 10
-12.7721
 20
29.3909
 11
-13.0655
 21
30.1997
  0
LINE
  8
0
 10
-13.0655
 20
30.1997
 11
-13.2774
 21
31.2297
  0
LINE
  8
0
 10
-13.2774
 20
31.2297
 11
-13.407
 21
32.4817
  0
LINE
  8
0
 10
-13.407
 20
32.4817
 11
-13.455
 21
33.9507
  0
LINE
  8
0
 10
-13.455
 20
33.9507
 11
-13.0595
 21
33.9342
  0
LINE
  8
0
 10
-13.0595
 20
33.9342
 11
-12.7322
 21
33.9891
  0
LINE
  8
0
 10
-12.7322
 20
33.9891
 11
-12.4777
 21
34.115
  0
LINE
  8
0
 10
-12.4777
 20
34.115
 11
-12.2955
 21
34.3114
  0
LINE
  8
0
 10
-12.2955
 20
34.3114
 11
-12.187
 21
34.5792
  0
LINE
  8
0
 10
-12.187
 20
34.5792
 11
-12.15
 21
34.9179
  0
LINE
  8
0
 10
-12.15
 20
34.9179
 11
-12.1866
 21
35.3271
  0
LINE
  8
0
 10
-12.1866
 20
35.3271
 11
-12.2955
 21
35.8064
  0
LINE
  8
0
 10
-12.2955
 20
35.8064
 11
-12.4768
 21
36.3571
  0
LINE
  8
0
 10
-12.4768
 20
36.3571
 11
-12.7304
 21
36.9783
  0
LINE
  8
0
 10
-12.7304
 20
36.9783
 11
-13.0568
 21
37.6709
  0
LINE
  8
0
 10
-13.0568
 20
37.6709
 11
-13.4459
 21
38.4161
  0
LINE
  8
0
 10
-13.4459
 20
38.4161
 11
-1.47171
 21
26.5193
  0
LINE
  8
0
 10
-1.47171
 20
26.5193
 11
-2.98096
 21
26.5193
  0
LINE
  8
0
 10
27.019
 20
26.5193
 11
22.5394
 21
30.8818
  0
LINE
  8
0
 10
22.5394
 20
30.8818
 11
21.5849
 21
29.9196
  0
LINE
  8
0
 10
21.5849
 20
29.9196
 11
20.7152
 21
29.1808
  0
LINE
  8
0
 10
20.7152
 20
29.1808
 11
19.9287
 21
28.663
  0
LINE
  8
0
 10
19.9287
 20
28.663
 11
19.2242
 21
28.3669
  0
LINE
  8
0
 10
19.2242
 20
28.3669
 11
18.6012
 21
28.2913
  0
LINE
  8
0
 10
18.6012
 20
28.2913
 11
18.062
 21
28.4369
  0
LINE
  8
0
 10
18.062
 20
28.4369
 11
17.6047
 21
28.8026
  0
LINE
  8
0
 10
17.6047
 20
28.8026
 11
17.2279
 21
29.3909
  0
LINE
  8
0
 10
17.2279
 20
29.3909
 11
16.9345
 21
30.1997
  0
LINE
  8
0
 10
16.9345
 20
30.1997
 11
16.7226
 21
31.2297
  0
LINE
  8
0
 10
16.7226
 20
31.2297
 11
16.593
 21
32.4817
  0
LINE
  8
0
 10
16.593
 20
32.4817
 11
16.545
 21
33.9507
  0
LINE
  8
0
 10
16.545
 20
33.9507
 11
16.9405
 21
33.9342
  0
LINE
  8
0
 10
16.9405
 20
33.9342
 11
17.2678
 21
33.9891
  0
LINE
  8
0
 10
17.2678
 20
33.9891
 11
17.5223
 21
34.115
  0
LINE
  8
0
 10
17.5223
 20
34.115
 11
17.7045
 21
34.3114
  0
LINE
  8
0
 10
17.7045
 20
34.3114
 11
17.813
 21
34.5792
  0
LINE
  8
0
 10
17.813
 20
34.5792
 11
17.85
 21
34.9179
  0
LINE
  8
0
 10
17.85
 20
34.9179
 11
17.8134
 21
35.3271
  0
LINE
  8
0
 10
17.8134
 20
35.3271
 11
17.7045
 21
35.8064
  0
LINE
  8
0
 10
17.7045
 20
35.8064
 11
17.5232
 21
36.3571
  0
LINE
  8
0
 10
17.5232
 20
36.3571
 11
17.2696
 21
36.9783
  0
LINE
  8
0
 10
17.2696
 20
36.9783
 11
16.9432
 21
37.6709
  0
LINE
  8
0
 10
16.9432
 20
37.6709
 11
16.5541
 21
38.4161
  0
LINE
  8
0
 10
16.5541
 20
38.4161
 11
28.5283
 21
26.5193
  0
LINE
  8
0
 10
28.5283
 20
26.5193
 11
27.019
 21
26.5193
  0
LINE
  8
0
 10
-32.981
 20
26.5193
 11
-37.4606
 21
30.8818
  0
LINE
  8
0
 10
-37.4606
 20
30.8818
 11
-38.4151
 21
29.9196
  0
LINE
  8
0
 10
-38.4151
 20
29.9196
 11
-39.2848
 21
29.1808
  0
LINE
  8
0
 10
-39.2848
 20
29.1808
 11
-40.0713
 21
28.663
  0
LINE
  8
0
 10
-40.0713
 20
28.663
 11
-40.7758
 21
28.3669
  0
LINE
  8
0
 10
-40.7758
 20
28.3669
 11
-41.3988
 21
28.2913
  0
LINE
  8
0
 10
-41.3988
 20
28.2913
 11
-41.938
 21
28.4369
  0
LINE
  8
0
 10
-41.938
 20
28.4369
 11
-42.3953
 21
28.8026
  0
LINE
  8
0
 10
-42.3953
 20
28.8026
 11
-42.7721
 21
29.3909
  0
LINE
  8
0
 10
-42.7721
 20
29.3909
 11
-43.0655
 21
30.1997
  0
LINE
  8
0
 10
-43.0655
 20
30.1997
 11
-43.2774
 21
31.2297
  0
LINE
  8
0
 10
-43.2774
 20
31.2297
 11
-43.407
 21
32.4817
  0
LINE
  8
0
 10
-43.407
 20
32.4817
 11
-43.455
 21
33.9507
  0
LINE
  8
0
 10
-43.455
 20
33.9507
 11
-43.0595
 21
33.9342
  0
LINE
  8
0
 10
-43.0595
 20
33.9342
 11
-42.7322
 21
33.9891
  0
LINE
  8
0
 10
-42.7322
 20
33.9891
 11
-42.4777
 21
34.115
  0
LINE
  8
0
 10
-42.4777
 20
34.115
 11
-42.2955
 21
34.3114
  0
LINE
  8
0
 10
-42.2955
 20
34.3114
 11
-42.187
 21
34.5792
  0
LINE
  8
0
 10
-42.187
 20
34.5792
 11
-42.15
 21
34.9179
  0
LINE
  8
0
 10
-42.15
 20
34.9179
 11
-42.1866
 21
35.3271
  0
LINE
  8
0
 10
-42.1866
 20
35.3271
 11
-42.2955
 21
35.8064
  0
LINE
  8
0
 10
-42.2955
 20
35.8064
 11
-42.4768
 21
36.3571
  0
LINE
  8
0
 10
-42.4768
 20
36.3571
 11
-42.7304
 21
36.9783
  0
LINE
  8
0
 10
-42.7304
 20
36.9783
 11
-43.0568
 21
37.6709
  0
LINE
  8
0
 10
-43.0568
 20
37.6709
 11
-43.4459
 21
38.4161
  0
LINE
  8
0
 10
-43.4459
 20
38.4161
 11
-31.4717
 21
26.5193
  0
LINE
  8
0
 10
-31.4717
 20
26.5193
 11
-32.981
 21
26.5193
  0
LINE
  8
0
 10
-16.9729
 20
12
 11
-28.5283
 21
23.4807
  0
LINE
  8
0
 10
-28.5283
 20
23.4807
 11
-27.019
 21
23.4807
  0
LINE
  8
0
 10
-27.019
 20
23.4807
 11
-22.5394
 21
19.1182
  0
LINE
  8
0
 10
-22.5394
 20
19.1182
 11
-21.5849
 21
20.0804
  0
LINE
  8
0
 10
-21.5849
 20
20.0804
 11
-20.7152
 21
20.8192
  0
LINE
  8
0
 10
-20.7152
 20
20.8192
 11
-19.9287
 21
21.337
  0
LINE
  8
0
 10
-19.9287
 20
21.337
 11
-19.2242
 21
21.6331
  0
LINE
  8
0
 10
-19.2242
 20
21.6331
 11
-18.6012
 21
21.7087
  0
LINE
  8
0
 10
-18.6012
 20
21.7087
 11
-18.062
 21
21.5631
  0
LINE
  8
0
 10
-18.062
 20
21.5631
 11
-17.6047
 21
21.1974
  0
LINE
  8
0
 10
-17.6047
 20
21.1974
 11
-17.2279
 21
20.6091
  0
LINE
  8
0
 10
-17.2279
 20
20.6091
 11
-16.9345
 21
19.8003
  0
LINE
  8
0
 10
-16.9345
 20
19.8003
 11
-16.7226
 21
18.7703
  0
LINE
  8
0
 10
-16.7226
 20
18.7703
 11
-16.593
 21
17.5183
  0
LINE
  8
0
 10
-16.593
 20
17.5183
 11
-16.545
 21
16.0493
  0
LINE
  8
0
 10
-16.545
 20
16.0493
 11
-16.9405
 21
16.0658
  0
LINE
  8
0
 10
-16.9405
 20
16.0658
 11
-17.2678
 21
16.0109
  0
LINE
  8
0
 10
-17.2678
 20
16.0109
 11
-17.5223
 21
15.885
  0
LINE
  8
0
 10
-17.5223
 20
15.885
 11
-17.7045
 21
15.6886
  0
LINE
  8
0
 10
-17.7045
 20
15.6886
 11
-17.813
 21
15.4208
  0
LINE
  8
0
 10
-17.813
 20
15.4208
 11
-17.85
 21
15.0821
  0
LINE
  8
0
 10
-17.85
 20
15.0821
 11
-17.8134
 21
14.6729
  0
LINE
  8
0
 10
-17.8134
 20
14.6729
 11
-17.7045
 21
14.1936
  0
LINE
  8
0
 10
-17.7045
 20
14.1936
 11
-17.5232
 21
13.6429
  0
LINE
  8
0
 10
-17.5232
 20
13.6429
 11
-17.2696
 21
13.0217
  0
LINE
  8
0
 10
-17.2696
 20
13.0217
 11
-16.9432
 21
12.3291
  0
LINE
  8
0
 10
-16.9432
 20
12.3291
 11
-16.7714
 21
12
  0
LINE
  8
0
 10
-16.7714
 20
12
 11
-16.9729
 21
12
  0
LINE
  8
0
 10
43.0271
 20
12
 11
31.4717
 21
23.4807
  0
LINE
  8
0
 10
31.4717
 20
23.4807
 11
32.981
 21
23.4807
  0
LINE
  8
0
 10
32.981
 20
23.4807
 11
37.4606
 21
19.1182
  0
LINE
  8
0
 10
37.4606
 20
19.1182
 11
38.4151
 21
20.0804
  0
LINE
  8
0
 10
38.4151
 20
20.0804
 11
39.2848
 21
20.8192
  0
LINE
  8
0
 10
39.2848
 20
20.8192
 11
40.0713
 21
21.337
  0
LINE
  8
0
 10
40.0713
 20
21.337
 11
40.7758
 21
21.6331
  0
LINE
  8
0
 10
40.7758
 20
21.6331
 11
41.3988
 21
21.7087
  0
LINE
  8
0
 10
41.3988
 20
21.7087
 11
41.938
 21
21.5631
  0
LINE
  8
0
 10
41.938
 20
21.5631
 11
42.3953
 21
21.1974
  0
LINE
  8
0
 10
42.3953
 20
21.1974
 11
42.7721
 21
20.6091
  0
LINE
  8
0
 10
42.7721
 20
20.6091
 11
43.0655
 21
19.8003
  0
LINE
  8
0
 10
43.0655
 20
19.8003
 11
43.2774
 21
18.7703
  0
LINE
  8
0
 10
43.2774
 20
18.7703
 11
43.407
 21
17.5183
  0
LINE
  8
0
 10
43.407
 20
17.5183
 11
43.455
 21
16.0493
  0
LINE
  8
0
 10
43.455
 20
16.0493
 11
43.0595
 21
16.0658
  0
LINE
  8
0
 10
43.0595
 20
16.0658
 11
42.7322
 21
16.0109
  0
LINE
  8
0
 10
42.7322
 20
16.0109
 11
42.4777
 21
15.885
  0
LINE
  8
0
 10
42.4777
 20
15.885
 11
42.2955
 21
15.6886
  0
LINE
  8
0
 10
42.2955
 20
15.6886
 11
42.187
 21
15.4208
  0
LINE
  8
0
 10
42.187
 20
15.4208
 11
42.15
 21
15.0821
  0
LINE
  8
0
 10
42.15
 20
15.0821
 11
42.1866
 21
14.6729
  0
LINE
  8
0
 10
42.1866
 20
14.6729
 11
42.2955
 21
14.1936
  0
LINE
  8
0
 10
42.2955
 20
14.1936
 11
42.4768
 21
13.6429
  0
LINE
  8
0
 10
42.4768
 20
13.6429
 11
42.7304
 21
13.0217
  0
LINE
  8
0
 10
42.7304
 20
13.0217
 11
43.0568
 21
12.3291
  0
LINE
  8
0
 10
43.0568
 20
12.3291
 11
43.2286
 21
12
  0
LINE
  8
0
 10
43.2286
 20
12
 11
43.0271
 21
12
  0
LINE
  8
0
 10
13.0271
 20
12
 11
1.47171
 21
23.4807
  0
LINE
  8
0
 10
1.47171
 20
23.4807
 11
2.98096
 21
23.4807
  0
LINE
  8
0
 10
2.98096
 20
23.4807
 11
7.46063
 21
19.1182
  0
LINE
  8
0
 10
7.46063
 20
19.1182
 11
8.41507
 21
20.0804
  0
LINE
  8
0
 10
8.41507
 20
20.0804
 11
9.28482
 21
20.8192
  0
LINE
  8
0
 10
9.28482
 20
20.8192
 11
10.0713
 21
21.337
  0
LINE
  8
0
 10
10.0713
 20
21.337
 11
10.7758
 21
21.6331
  0
LINE
  8
0
 10
10.7758
 20
21.6331
 11
11.3988
 21
21.7087
  0
LINE
  8
0
 10
11.3988
 20
21.7087
 11
11.938
 21
21.5631
  0
LINE
  8
0
 10
11.938
 20
21.5631
 11
12.3953
 21
21.1974
  0
LINE
  8
0
 10
12.3953
 20
21.1974
 11
12.7721
 21
20.6091
  0
LINE
  8
0
 10
12.7721
 20
20.6091
 11
13.0655
 21
19.8003
  0
LINE
  8
0
 10
13.0655
 20
19.8003
 11
13.2774
 21
18.7703
  0
LINE
  8
0
 10
13.2774
 20
18.7703
 11
13.407
 21
17.5183
  0
LINE
  8
0
 10
13.407
 20
17.5183
 11
13.455
 21
16.0493
  0
LINE
  8
0
 10
13.455
 20
16.0493
 11
13.0595
 21
16.0658
  0
LINE
  8
0
 10
13.0595
 20
16.0658
 11
12.7322
 21
16.0109
  0
LINE
  8
0
 10
12.7322
 20
16.0109
 11
12.4777
 21
15.885
  0
LINE
  8
0
 10
12.4777
 20
15.885
 11
12.2955
 21
15.6886
  0
LINE
  8
0
 10
12.2955
 20
15.6886
 11
12.187
 21
15.4208
  0
LINE
  8
0
 10
12.187
 20
15.4208
 11
12.15
 21
15.0821
  0
LINE
  8
0
 10
12.15
 20
15.0821
 11
12.1866
 21
14.6729
  0
LINE
  8
0
 10
12.1866
 20
14.6729
 11
12.2955
 21
14.1936
  0
LINE
  8
0
 10
12.2955
 20
14.1936
 11
12.4768
 21
13.6429
  0
LINE
  8
0
 10
12.4768
 20
13.6429
 11
12.7304
 21
13.0217
  0
LINE
  8
0
 10
12.7304
 20
13.0217
 11
13.0568
 21
12.3291
  0
LINE
  8
0
 10
13.0568
 20
12.3291
 11
13.2286
 21
12
  0
LINE
  8
0
 10
13.2286
 20
12
 11
13.0271
 21
12
  0
LINE
  8
0
 10
-13.4807
 20
12
 11
-13.4807
 21
12.981
  0
LINE
  8
0
 10
-13.4807
 20
12.981
 11
-9.11819
 21
17.4606
  0
LINE
  8
0
 10
-9.11819
 20
17.4606
 11
-10.0804
 21
18.4151
  0
LINE
  8
0
 10
-10.0804
 20
18.4151
 11
-10.8192
 21
19.2848
  0
LINE
  8
0
 10
-10.8192
 20
19.2848
 11
-11.337
 21
20.0713
  0
LINE
  8
0
 10
-11.337
 20
20.0713
 11
-11.6331
 21
20.7758
  0
LINE
  8
0
 10
-11.6331
 20
20.7758
 11
-11.7087
 21
21.3988
  0
LINE
  8
0
 10
-11.7087
 20
21.3988
 11
-11.5636
 21
21.9376
  0
LINE
  8
0
 10
-11.5636
 20
21.9376
 11
-11.1974
 21
22.3953
  0
LINE
  8
0
 10
-11.1974
 20
22.3953
 11
-10.6091
 21
22.7721
  0
LINE
  8
0
 10
-10.6091
 20
22.7721
 11
-9.80026
 21
23.0655
  0
LINE
  8
0
 10
-9.80026
 20
23.0655
 11
-8.77029
 21
23.2774
  0
LINE
  8
0
 10
-8.77029
 20
23.2774
 11
-7.51831
 21
23.407
  0
LINE
  8
0
 10
-7.51831
 20
23.407
 11
-6.04935
 21
23.455
  0
LINE
  8
0
 10
-6.04935
 20
23.455
 11
-6.06583
 21
23.0595
  0
LINE
  8
0
 10
-6.06583
 20
23.0595
 11
-6.01089
 21
22.7322
  0
LINE
  8
0
 10
-6.01089
 20
22.7322
 11
-5.88501
 21
22.4777
  0
LINE
  8
0
 10
-5.88501
 20
22.4777
 11
-5.68863
 21
22.2955
  0
LINE
  8
0
 10
-5.68863
 20
22.2955
 11
-5.42084
 21
22.187
  0
LINE
  8
0
 10
-5.42084
 20
22.187
 11
-5.08209
 21
22.15
  0
LINE
  8
0
 10
-5.08209
 20
22.15
 11
-4.67285
 21
22.1866
  0
LINE
  8
0
 10
-4.67285
 20
22.1866
 11
-4.19357
 21
22.2955
  0
LINE
  8
0
 10
-4.19357
 20
22.2955
 11
-3.64288
 21
22.4768
  0
LINE
  8
0
 10
-3.64288
 20
22.4768
 11
-3.0217
 21
22.7304
  0
LINE
  8
0
 10
-3.0217
 20
22.7304
 11
-2.3291
 21
23.0568
  0
LINE
  8
0
 10
-2.3291
 20
23.0568
 11
-1.58386
 21
23.4459
  0
LINE
  8
0
 10
-1.58386
 20
23.4459
 11
-12.9558
 21
12
  0
LINE
  8
0
 10
-12.9558
 20
12
 11
-13.4807
 21
12
  0
LINE
  8
0
 10
-43.4807
 20
12
 11
-43.4807
 21
12.981
  0
LINE
  8
0
 10
-43.4807
 20
12.981
 11
-39.1182
 21
17.4606
  0
LINE
  8
0
 10
-39.1182
 20
17.4606
 11
-40.0804
 21
18.4151
  0
LINE
  8
0
 10
-40.0804
 20
18.4151
 11
-40.8192
 21
19.2848
  0
LINE
  8
0
 10
-40.8192
 20
19.2848
 11
-41.337
 21
20.0713
  0
LINE
  8
0
 10
-41.337
 20
20.0713
 11
-41.6331
 21
20.7758
  0
LINE
  8
0
 10
-41.6331
 20
20.7758
 11
-41.7087
 21
21.3988
  0
LINE
  8
0
 10
-41.7087
 20
21.3988
 11
-41.5636
 21
21.9376
  0
LINE
  8
0
 10
-41.5636
 20
21.9376
 11
-41.1974
 21
22.3953
  0
LINE
  8
0
 10
-41.1974
 20
22.3953
 11
-40.6091
 21
22.7721
  0
LINE
  8
0
 10
-40.6091
 20
22.7721
 11
-39.8003
 21
23.0655
  0
LINE
  8
0
 10
-39.8003
 20
23.0655
 11
-38.7703
 21
23.2774
  0
LINE
  8
0
 10
-38.7703
 20
23.2774
 11
-37.5183
 21
23.407
  0
LINE
  8
0
 10
-37.5183
 20
23.407
 11
-36.0493
 21
23.455
  0
LINE
  8
0
 10
-36.0493
 20
23.455
 11
-36.0658
 21
23.0595
  0
LINE
  8
0
 10
-36.0658
 20
23.0595
 11
-36.0109
 21
22.7322
  0
LINE
  8
0
 10
-36.0109
 20
22.7322
 11
-35.885
 21
22.4777
  0
LINE
  8
0
 10
-35.885
 20
22.4777
 11
-35.6886
 21
22.2955
  0
LINE
  8
0
 10
-35.6886
 20
22.2955
 11
-35.4208
 21
22.187
  0
LINE
  8
0
 10
-35.4208
 20
22.187
 11
-35.0821
 21
22.15
  0
LINE
  8
0
 10
-35.0821
 20
22.15
 11
-34.6729
 21
22.1866
  0
LINE
  8
0
 10
-34.6729
 20
22.1866
 11
-34.1936
 21
22.2955
  0
LINE
  8
0
 10
-34.1936
 20
22.2955
 11
-33.6429
 21
22.4768
  0
LINE
  8
0
 10
-33.6429
 20
22.4768
 11
-33.0217
 21
22.7304
  0
LINE
  8
0
 10
-33.0217
 20
22.7304
 11
-32.3291
 21
23.0568
  0
LINE
  8
0
 10
-32.3291
 20
23.0568
 11
-31.5839
 21
23.4459
  0
LINE
  8
0
 10
-31.5839
 20
23.4459
 11
-42.9558
 21
12
  0
LINE
  8
0
 10
-42.9558
 20
12
 11
-43.4807
 21
12
  0
LINE
  8
0
 10
16.5193
 20
12
 11
16.5193
 21
12.981
  0
LINE
  8
0
 10
16.5193
 20
12.981
 11
20.8818
 21
17.4606
  0
LINE
  8
0
 10
20.8818
 20
17.4606
 11
19.9196
 21
18.4151
  0
LINE
  8
0
 10
19.9196
 20
18.4151
 11
19.1808
 21
19.2848
  0
LINE
  8
0
 10
19.1808
 20
19.2848
 11
18.663
 21
20.0713
  0
LINE
  8
0
 10
18.663
 20
20.0713
 11
18.3669
 21
20.7758
  0
LINE
  8
0
 10
18.3669
 20
20.7758
 11
18.2913
 21
21.3988
  0
LINE
  8
0
 10
18.2913
 20
21.3988
 11
18.4364
 21
21.9376
  0
LINE
  8
0
 10
18.4364
 20
21.9376
 11
18.8026
 21
22.3953
  0
LINE
  8
0
 10
18.8026
 20
22.3953
 11
19.3909
 21
22.7721
  0
LINE
  8
0
 10
19.3909
 20
22.7721
 11
20.1997
 21
23.0655
  0
LINE
  8
0
 10
20.1997
 20
23.0655
 11
21.2297
 21
23.2774
  0
LINE
  8
0
 10
21.2297
 20
23.2774
 11
22.4817
 21
23.407
  0
LINE
  8
0
 10
22.4817
 20
23.407
 11
23.9507
 21
23.455
  0
LINE
  8
0
 10
23.9507
 20
23.455
 11
23.9342
 21
23.0595
  0
LINE
  8
0
 10
23.9342
 20
23.0595
 11
23.9891
 21
22.7322
  0
LINE
  8
0
 10
23.9891
 20
22.7322
 11
24.115
 21
22.4777
  0
LINE
  8
0
 10
24.115
 20
22.4777
 11
24.3114
 21
22.2955
  0
LINE
  8
0
 10
24.3114
 20
22.2955
 11
24.5792
 21
22.187
  0
LINE
  8
0
 10
24.5792
 20
22.187
 11
24.9179
 21
22.15
  0
LINE
  8
0
 10
24.9179
 20
22.15
 11
25.3271
 21
22.1866
  0
LINE
  8
0
 10
25.3271
 20
22.1866
 11
25.8064
 21
22.2955
  0
LINE
  8
0
 10
25.8064
 20
22.2955
 11
26.3571
 21
22.4768
  0
LINE
  8
0
 10
26.3571
 20
22.4768
 11
26.9783
 21
22.7304
  0
LINE
  8
0
 10
26.9783
 20
22.7304
 11
27.6709
 21
23.0568
  0
LINE
  8
0
 10
27.6709
 20
23.0568
 11
28.4161
 21
23.4459
  0
LINE
  8
0
 10
28.4161
 20
23.4459
 11
17.0442
 21
12
  0
LINE
  8
0
 10
17.0442
 20
12
 11
16.5193
 21
12
  0
LINE
  8
0
 10
46.5193
 20
12
 11
46.5193
 21
12.981
  0
LINE
  8
0
 10
46.5193
 20
12.981
 11
50.8818
 21
17.4606
  0
LINE
  8
0
 10
50.8818
 20
17.4606
 11
49.9196
 21
18.4151
  0
LINE
  8
0
 10
49.9196
 20
18.4151
 11
49.1808
 21
19.2848
  0
LINE
  8
0
 10
49.1808
 20
19.2848
 11
48.663
 21
20.0713
  0
LINE
  8
0
 10
48.663
 20
20.0713
 11
48.3669
 21
20.7758
  0
LINE
  8
0
 10
48.3669
 20
20.7758
 11
48.2913
 21
21.3988
  0
LINE
  8
0
 10
48.2913
 20
21.3988
 11
48.4364
 21
21.9376
  0
LINE
  8
0
 10
48.4364
 20
21.9376
 11
48.8026
 21
22.3953
  0
LINE
  8
0
 10
48.8026
 20
22.3953
 11
49.3909
 21
22.7721
  0
LINE
  8
0
 10
49.3909
 20
22.7721
 11
50.1997
 21
23.0655
  0
LINE
  8
0
 10
50.1997
 20
23.0655
 11
51.2297
 21
23.2774
  0
LINE
  8
0
 10
51.2297
 20
23.2774
 11
52.4817
 21
23.407
  0
LINE
  8
0
 10
52.4817
 20
23.407
 11
53.9507
 21
23.455
  0
LINE
  8
0
 10
53.9507
 20
23.455
 11
53.9342
 21
23.0595
  0
LINE
  8
0
 10
53.9342
 20
23.0595
 11
53.9891
 21
22.7322
  0
LINE
  8
0
 10
53.9891
 20
22.7322
 11
54.115
 21
22.4777
  0
LINE
  8
0
 10
54.115
 20
22.4777
 11
54.3114
 21
22.2955
  0
LINE
  8
0
 10
54.3114
 20
22.2955
 11
54.5792
 21
22.187
  0
LINE
  8
0
 10
54.5792
 20
22.187
 11
54.9179
 21
22.15
  0
LINE
  8
0
 10
54.9179
 20
22.15
 11
55.1779
 21
22.1732
  0
LINE
  8
0
 10
55.1779
 20
22.1732
 11
55.6643
 21
20.6762
  0
LINE
  8
0
 10
55.6643
 20
20.6762
 11
47.0442
 21
12
  0
LINE
  8
0
 10
47.0442
 20
12
 11
46.5193
 21
12
  0
LINE
  8
0
 10
-46.9729
 20
12
 11
-55.6744
 21
20.6452
  0
LINE
  8
0
 10
-55.6744
 20
20.6452
 11
-55.2978
 21
21.8044
  0
LINE
  8
0
 10
-55.2978
 20
21.8044
 11
-52.5394
 21
19.1182
  0
LINE
  8
0
 10
-52.5394
 20
19.1182
 11
-51.5849
 21
20.0804
  0
LINE
  8
0
 10
-51.5849
 20
20.0804
 11
-50.7152
 21
20.8192
  0
LINE
  8
0
 10
-50.7152
 20
20.8192
 11
-49.9287
 21
21.337
  0
LINE
  8
0
 10
-49.9287
 20
21.337
 11
-49.2242
 21
21.6331
  0
LINE
  8
0
 10
-49.2242
 20
21.6331
 11
-48.6012
 21
21.7087
  0
LINE
  8
0
 10
-48.6012
 20
21.7087
 11
-48.062
 21
21.5631
  0
LINE
  8
0
 10
-48.062
 20
21.5631
 11
-47.6047
 21
21.1974
  0
LINE
  8
0
 10
-47.6047
 20
21.1974
 11
-47.2279
 21
20.6091
  0
LINE
  8
0
 10
-47.2279
 20
20.6091
 11
-46.9345
 21
19.8003
  0
LINE
  8
0
 10
-46.9345
 20
19.8003
 11
-46.7226
 21
18.7703
  0
LINE
  8
0
 10
-46.7226
 20
18.7703
 11
-46.593
 21
17.5183
  0
LINE
  8
0
 10
-46.593
 20
17.5183
 11
-46.545
 21
16.0493
  0
LINE
  8
0
 10
-46.545
 20
16.0493
 11
-46.9405
 21
16.0658
  0
LINE
  8
0
 10
-46.9405
 20
16.0658
 11
-47.2678
 21
16.0109
  0
LINE
  8
0
 10
-47.2678
 20
16.0109
 11
-47.5223
 21
15.885
  0
LINE
  8
0
 10
-47.5223
 20
15.885
 11
-47.7045
 21
15.6886
  0
LINE
  8
0
 10
-47.7045
 20
15.6886
 11
-47.813
 21
15.4208
  0
LINE
  8
0
 10
-47.813
 20
15.4208
 11
-47.85
 21
15.0821
  0
LINE
  8
0
 10
-47.85
 20
15.0821
 11
-47.8134
 21
14.6729
  0
LINE
  8
0
 10
-47.8134
 20
14.6729
 11
-47.7045
 21
14.1936
  0
LINE
  8
0
 10
-47.7045
 20
14.1936
 11
-47.5232
 21
13.6429
  0
LINE
  8
0
 10
-47.5232
 20
13.6429
 11
-47.2696
 21
13.0217
  0
LINE
  8
0
 10
-47.2696
 20
13.0217
 11
-46.9432
 21
12.3291
  0
LINE
  8
0
 10
-46.9432
 20
12.3291
 11
-46.7714
 21
12
  0
LINE
  8
0
 10
-46.7714
 20
12
 11
-46.9729
 21
12
  0
LINE
  8
0
 10
33.0341
 20
12
 11
33.2016
 21
12.1826
  0
LINE
  8
0
 10
33.2016
 20
12.1826
 11
33.3984
 21
12.5278
  0
LINE
  8
0
 10
33.3984
 20
12.5278
 11
33.4465
 21
12.8423
  0
LINE
  8
0
 10
33.4465
 20
12.8423
 11
33.3458
 21
13.1261
  0
LINE
  8
0
 10
33.3458
 20
13.1261
 11
33.0972
 21
13.3778
  0
LINE
  8
0
 10
33.0972
 20
13.3778
 11
32.7008
 21
13.5985
  0
LINE
  8
0
 10
32.7008
 20
13.5985
 11
32.1565
 21
13.7875
  0
LINE
  8
0
 10
32.1565
 20
13.7875
 11
31.4671
 21
13.9455
  0
LINE
  8
0
 10
31.4671
 20
13.9455
 11
31.4671
 21
17.5645
  0
LINE
  8
0
 10
31.4671
 20
17.5645
 11
32.2055
 21
19.1191
  0
LINE
  8
0
 10
32.2055
 20
19.1191
 11
33.0551
 21
19.0784
  0
LINE
  8
0
 10
33.0551
 20
19.0784
 11
33.8315
 21
18.931
  0
LINE
  8
0
 10
33.8315
 20
18.931
 11
34.5314
 21
18.6765
  0
LINE
  8
0
 10
34.5314
 20
18.6765
 11
35.1576
 21
18.3148
  0
LINE
  8
0
 10
35.1576
 20
18.3148
 11
35.7079
 21
17.8465
  0
LINE
  8
0
 10
35.7079
 20
17.8465
 11
36.183
 21
17.2707
  0
LINE
  8
0
 10
36.183
 20
17.2707
 11
36.5831
 21
16.5881
  0
LINE
  8
0
 10
36.5831
 20
16.5881
 11
36.9086
 21
15.798
  0
LINE
  8
0
 10
36.9086
 20
15.798
 11
37.1585
 21
14.9013
  0
LINE
  8
0
 10
37.1585
 20
14.9013
 11
37.3334
 21
13.8974
  0
LINE
  8
0
 10
37.3334
 20
13.8974
 11
37.4332
 21
12.7855
  0
LINE
  8
0
 10
37.4332
 20
12.7855
 11
37.4488
 21
12
  0
LINE
  8
0
 10
37.4488
 20
12
 11
33.0341
 21
12
  0
LINE
  8
0
 10
-26.9659
 20
12
 11
-26.7984
 21
12.1826
  0
LINE
  8
0
 10
-26.7984
 20
12.1826
 11
-26.6016
 21
12.5278
  0
LINE
  8
0
 10
-26.6016
 20
12.5278
 11
-26.5535
 21
12.8423
  0
LINE
  8
0
 10
-26.5535
 20
12.8423
 11
-26.6542
 21
13.1261
  0
LINE
  8
0
 10
-26.6542
 20
13.1261
 11
-26.9028
 21
13.3778
  0
LINE
  8
0
 10
-26.9028
 20
13.3778
 11
-27.2992
 21
13.5985
  0
LINE
  8
0
 10
-27.2992
 20
13.5985
 11
-27.8435
 21
13.7875
  0
LINE
  8
0
 10
-27.8435
 20
13.7875
 11
-28.5329
 21
13.9455
  0
LINE
  8
0
 10
-28.5329
 20
13.9455
 11
-28.5329
 21
17.5645
  0
LINE
  8
0
 10
-28.5329
 20
17.5645
 11
-27.7945
 21
19.1191
  0
LINE
  8
0
 10
-27.7945
 20
19.1191
 11
-26.9449
 21
19.0784
  0
LINE
  8
0
 10
-26.9449
 20
19.0784
 11
-26.1685
 21
18.931
  0
LINE
  8
0
 10
-26.1685
 20
18.931
 11
-25.4686
 21
18.6765
  0
LINE
  8
0
 10
-25.4686
 20
18.6765
 11
-24.8424
 21
18.3148
  0
LINE
  8
0
 10
-24.8424
 20
18.3148
 11
-24.2921
 21
17.8465
  0
LINE
  8
0
 10
-24.2921
 20
17.8465
 11
-23.817
 21
17.2707
  0
LINE
  8
0
 10
-23.817
 20
17.2707
 11
-23.4169
 21
16.5881
  0
LINE
  8
0
 10
-23.4169
 20
16.5881
 11
-23.0914
 21
15.798
  0
LINE
  8
0
 10
-23.0914
 20
15.798
 11
-22.8415
 21
14.9013
  0
LINE
  8
0
 10
-22.8415
 20
14.9013
 11
-22.6666
 21
13.8974
  0
LINE
  8
0
 10
-22.6666
 20
13.8974
 11
-22.5668
 21
12.7855
  0
LINE
  8
0
 10
-22.5668
 20
12.7855
 11
-22.5512
 21
12
  0
LINE
  8
0
 10
-22.5512
 20
12
 11
-26.9659
 21
12
  0
LINE
  8
0
 10
3.03412
 20
12
 11
3.2016
 21
12.1826
  0
LINE
  8
0
 10
3.2016
 20
12.1826
 11
3.39844
 21
12.5278
  0
LINE
  8
0
 10
3.39844
 20
12.5278
 11
3.4465
 21
12.8423
  0
LINE
  8
0
 10
3.4465
 20
12.8423
 11
3.34579
 21
13.1261
  0
LINE
  8
0
 10
3.34579
 20
13.1261
 11
3.09723
 21
13.3778
  0
LINE
  8
0
 10
3.09723
 20
13.3778
 11
2.70081
 21
13.5985
  0
LINE
  8
0
 10
2.70081
 20
13.5985
 11
2.15652
 21
13.7875
  0
LINE
  8
0
 10
2.15652
 20
13.7875
 11
1.46713
 21
13.9455
  0
LINE
  8
0
 10
1.46713
 20
13.9455
 11
1.46713
 21
17.5645
  0
LINE
  8
0
 10
1.46713
 20
17.5645
 11
2.20551
 21
19.1191
  0
LINE
  8
0
 10
2.20551
 20
19.1191
 11
3.05511
 21
19.0784
  0
LINE
  8
0
 10
3.05511
 20
19.0784
 11
3.83148
 21
18.931
  0
LINE
  8
0
 10
3.83148
 20
18.931
 11
4.5314
 21
18.6765
  0
LINE
  8
0
 10
4.5314
 20
18.6765
 11
5.15762
 21
18.3148
  0
LINE
  8
0
 10
5.15762
 20
18.3148
 11
5.70786
 21
17.8465
  0
LINE
  8
0
 10
5.70786
 20
17.8465
 11
6.18301
 21
17.2707
  0
LINE
  8
0
 10
6.18301
 20
17.2707
 11
6.5831
 21
16.5881
  0
LINE
  8
0
 10
6.5831
 20
16.5881
 11
6.90857
 21
15.798
  0
LINE
  8
0
 10
6.90857
 20
15.798
 11
7.15851
 21
14.9013
  0
LINE
  8
0
 10
7.15851
 20
14.9013
 11
7.33337
 21
13.8974
  0
LINE
  8
0
 10
7.33337
 20
13.8974
 11
7.43317
 21
12.7855
  0
LINE
  8
0
 10
7.43317
 20
12.7855
 11
7.44884
 21
12
  0
LINE
  8
0
 10
7.44884
 20
12
 11
3.03412
 21
12
  0
LINE
  8
0
 10
-56.9659
 20
12
 11
-56.7984
 21
12.1826
  0
LINE
  8
0
 10
-56.7984
 20
12.1826
 11
-56.6016
 21
12.5278
  0
LINE
  8
0
 10
-56.6016
 20
12.5278
 11
-56.5535
 21
12.8423
  0
LINE
  8
0
 10
-56.5535
 20
12.8423
 11
-56.6542
 21
13.1261
  0
LINE
  8
0
 10
-56.6542
 20
13.1261
 11
-56.9028
 21
13.3778
  0
LINE
  8
0
 10
-56.9028
 20
13.3778
 11
-57.2992
 21
13.5985
  0
LINE
  8
0
 10
-57.2992
 20
13.5985
 11
-57.8435
 21
13.7875
  0
LINE
  8
0
 10
-57.8435
 20
13.7875
 11
-57.8985
 21
13.8001
  0
LINE
  8
0
 10
-57.8985
 20
13.8001
 11
-56.2278
 21
18.9422
  0
LINE
  8
0
 10
-56.2278
 20
18.9422
 11
-56.1685
 21
18.931
  0
LINE
  8
0
 10
-56.1685
 20
18.931
 11
-55.4686
 21
18.6765
  0
LINE
  8
0
 10
-55.4686
 20
18.6765
 11
-54.8424
 21
18.3148
  0
LINE
  8
0
 10
-54.8424
 20
18.3148
 11
-54.2921
 21
17.8465
  0
LINE
  8
0
 10
-54.2921
 20
17.8465
 11
-53.817
 21
17.2707
  0
LINE
  8
0
 10
-53.817
 20
17.2707
 11
-53.4169
 21
16.5881
  0
LINE
  8
0
 10
-53.4169
 20
16.5881
 11
-53.0914
 21
15.798
  0
LINE
  8
0
 10
-53.0914
 20
15.798
 11
-52.8415
 21
14.9013
  0
LINE
  8
0
 10
-52.8415
 20
14.9013
 11
-52.6666
 21
13.8974
  0
LINE
  8
0
 10
-52.6666
 20
13.8974
 11
-52.5668
 21
12.7855
  0
LINE
  8
0
 10
-52.5668
 20
12.7855
 11
-52.5512
 21
12
  0
LINE
  8
0
 10
-52.5512
 20
12
 11
-56.9659
 21
12
  0
LINE
  8
0
 10
21.3137
 20
12
 11
20.8809
 21
12.2055
  0
LINE
  8
0
 10
20.8809
 20
12.2055
 11
20.9216
 21
13.0551
  0
LINE
  8
0
 10
20.9216
 20
13.0551
 11
21.069
 21
13.8315
  0
LINE
  8
0
 10
21.069
 20
13.8315
 11
21.3235
 21
14.5314
  0
LINE
  8
0
 10
21.3235
 20
14.5314
 11
21.6847
 21
15.1572
  0
LINE
  8
0
 10
21.6847
 20
15.1572
 11
22.153
 21
15.7074
  0
LINE
  8
0
 10
22.153
 20
15.7074
 11
22.7289
 21
16.1826
  0
LINE
  8
0
 10
22.7289
 20
16.1826
 11
23.4119
 21
16.5831
  0
LINE
  8
0
 10
23.4119
 20
16.5831
 11
24.202
 21
16.9086
  0
LINE
  8
0
 10
24.202
 20
16.9086
 11
25.0987
 21
17.1585
  0
LINE
  8
0
 10
25.0987
 20
17.1585
 11
26.1026
 21
17.3334
  0
LINE
  8
0
 10
26.1026
 20
17.3334
 11
27.2145
 21
17.4332
  0
LINE
  8
0
 10
27.2145
 20
17.4332
 11
28.4308
 21
17.4574
  0
LINE
  8
0
 10
28.4308
 20
17.4574
 11
29.9968
 21
14.579
  0
LINE
  8
0
 10
29.9968
 20
14.579
 11
29.9968
 21
12
  0
LINE
  8
0
 10
29.9968
 20
12
 11
28.848
 21
12
  0
LINE
  8
0
 10
28.848
 20
12
 11
28.5988
 21
12.3648
  0
LINE
  8
0
 10
28.5988
 20
12.3648
 11
28.1927
 21
12.8574
  0
LINE
  8
0
 10
28.1927
 20
12.8574
 11
27.8174
 21
13.2016
  0
LINE
  8
0
 10
27.8174
 20
13.2016
 11
27.4722
 21
13.3984
  0
LINE
  8
0
 10
27.4722
 20
13.3984
 11
27.1577
 21
13.4465
  0
LINE
  8
0
 10
27.1577
 20
13.4465
 11
26.8739
 21
13.3458
  0
LINE
  8
0
 10
26.8739
 20
13.3458
 11
26.6222
 21
13.0972
  0
LINE
  8
0
 10
26.6222
 20
13.0972
 11
26.4015
 21
12.7008
  0
LINE
  8
0
 10
26.4015
 20
12.7008
 11
26.2125
 21
12.1565
  0
LINE
  8
0
 10
26.2125
 20
12.1565
 11
26.1766
 21
12
  0
LINE
  8
0
 10
26.1766
 20
12
 11
21.3137
 21
12
  0
LINE
  8
0
 10
-38.6863
 20
12
 11
-39.1191
 21
12.2055
  0
LINE
  8
0
 10
-39.1191
 20
12.2055
 11
-39.0784
 21
13.0551
  0
LINE
  8
0
 10
-39.0784
 20
13.0551
 11
-38.931
 21
13.8315
  0
LINE
  8
0
 10
-38.931
 20
13.8315
 11
-38.6765
 21
14.5314
  0
LINE
  8
0
 10
-38.6765
 20
14.5314
 11
-38.3153
 21
15.1572
  0
LINE
  8
0
 10
-38.3153
 20
15.1572
 11
-37.847
 21
15.7074
  0
LINE
  8
0
 10
-37.847
 20
15.7074
 11
-37.2711
 21
16.1826
  0
LINE
  8
0
 10
-37.2711
 20
16.1826
 11
-36.5881
 21
16.5831
  0
LINE
  8
0
 10
-36.5881
 20
16.5831
 11
-35.798
 21
16.9086
  0
LINE
  8
0
 10
-35.798
 20
16.9086
 11
-34.9013
 21
17.1585
  0
LINE
  8
0
 10
-34.9013
 20
17.1585
 11
-33.8974
 21
17.3334
  0
LINE
  8
0
 10
-33.8974
 20
17.3334
 11
-32.7855
 21
17.4332
  0
LINE
  8
0
 10
-32.7855
 20
17.4332
 11
-31.5692
 21
17.4574
  0
LINE
  8
0
 10
-31.5692
 20
17.4574
 11
-30.0032
 21
14.579
  0
LINE
  8
0
 10
-30.0032
 20
14.579
 11
-30.0032
 21
12
  0
LINE
  8
0
 10
-30.0032
 20
12
 11
-31.152
 21
12
  0
LINE
  8
0
 10
-31.152
 20
12
 11
-31.4012
 21
12.3648
  0
LINE
  8
0
 10
-31.4012
 20
12.3648
 11
-31.8073
 21
12.8574
  0
LINE
  8
0
 10
-31.8073
 20
12.8574
 11
-32.1826
 21
13.2016
  0
LINE
  8
0
 10
-32.1826
 20
13.2016
 11
-32.5278
 21
13.3984
  0
LINE
  8
0
 10
-32.5278
 20
13.3984
 11
-32.8423
 21
13.4465
  0
LINE
  8
0
 10
-32.8423
 20
13.4465
 11
-33.1261
 21
13.3458
  0
LINE
  8
0
 10
-33.1261
 20
13.3458
 11
-33.3778
 21
13.0972
  0
LINE
  8
0
 10
-33.3778
 20
13.0972
 11
-33.5985
 21
12.7008
  0
LINE
  8
0
 10
-33.5985
 20
12.7008
 11
-33.7875
 21
12.1565
  0
LINE
  8
0
 10
-33.7875
 20
12.1565
 11
-33.8234
 21
12
  0
LINE
  8
0
 10
-33.8234
 20
12
 11
-38.6863
 21
12
  0
LINE
  8
0
 10
-8.68631
 20
12
 11
-9.11911
 21
12.2055
  0
LINE
  8
0
 10
-9.11911
 20
12.2055
 11
-9.07837
 21
13.0551
  0
LINE
  8
0
 10
-9.07837
 20
13.0551
 11
-8.93097
 21
13.8315
  0
LINE
  8
0
 10
-8.93097
 20
13.8315
 11
-8.67645
 21
14.5314
  0
LINE
  8
0
 10
-8.67645
 20
14.5314
 11
-8.31528
 21
15.1572
  0
LINE
  8
0
 10
-8.31528
 20
15.1572
 11
-7.84698
 21
15.7074
  0
LINE
  8
0
 10
-7.84698
 20
15.7074
 11
-7.27112
 21
16.1826
  0
LINE
  8
0
 10
-7.27112
 20
16.1826
 11
-6.58813
 21
16.5831
  0
LINE
  8
0
 10
-6.58813
 20
16.5831
 11
-5.79803
 21
16.9086
  0
LINE
  8
0
 10
-5.79803
 20
16.9086
 11
-4.90128
 21
17.1585
  0
LINE
  8
0
 10
-4.90128
 20
17.1585
 11
-3.8974
 21
17.3334
  0
LINE
  8
0
 10
-3.8974
 20
17.3334
 11
-2.78549
 21
17.4332
  0
LINE
  8
0
 10
-2.78549
 20
17.4332
 11
-1.56921
 21
17.4574
  0
LINE
  8
0
 10
-1.56921
 20
17.4574
 11
-0.00320435
 21
14.579
  0
LINE
  8
0
 10
-0.00320435
 20
14.579
 11
-0.00320435
 21
12
  0
LINE
  8
0
 10
-0.00320435
 20
12
 11
-1.15201
 21
12
  0
LINE
  8
0
 10
-1.15201
 20
12
 11
-1.40121
 21
12.3648
  0
LINE
  8
0
 10
-1.40121
 20
12.3648
 11
-1.80725
 21
12.8574
  0
LINE
  8
0
 10
-1.80725
 20
12.8574
 11
-2.18262
 21
13.2016
  0
LINE
  8
0
 10
-2.18262
 20
13.2016
 11
-2.52777
 21
13.3984
  0
LINE
  8
0
 10
-2.52777
 20
13.3984
 11
-2.84225
 21
13.4465
  0
LINE
  8
0
 10
-2.84225
 20
13.4465
 11
-3.12607
 21
13.3458
  0
LINE
  8
0
 10
-3.12607
 20
13.3458
 11
-3.37784
 21
13.0972
  0
LINE
  8
0
 10
-3.37784
 20
13.0972
 11
-3.59848
 21
12.7008
  0
LINE
  8
0
 10
-3.59848
 20
12.7008
 11
-3.78754
 21
12.1565
  0
LINE
  8
0
 10
-3.78754
 20
12.1565
 11
-3.82339
 21
12
  0
LINE
  8
0
 10
-3.82339
 20
12
 11
-8.68631
 21
12
  0
LINE
  8
0
 10
51.3137
 20
12
 11
50.8809
 21
12.2055
  0
LINE
  8
0
 10
50.8809
 20
12.2055
 11
50.9216
 21
13.0551
  0
LINE
  8
0
 10
50.9216
 20
13.0551
 11
51.069
 21
13.8315
  0
LINE
  8
0
 10
51.069
 20
13.8315
 11
51.3235
 21
14.5314
  0
LINE
  8
0
 10
51.3235
 20
14.5314
 11
51.6847
 21
15.1572
  0
LINE
  8
0
 10
51.6847
 20
15.1572
 11
52.153
 21
15.7074
  0
LINE
  8
0
 10
52.153
 20
15.7074
 11
52.7289
 21
16.1826
  0
LINE
  8
0
 10
52.7289
 20
16.1826
 11
53.4119
 21
16.5831
  0
LINE
  8
0
 10
53.4119
 20
16.5831
 11
54.202
 21
16.9086
  0
LINE
  8
0
 10
54.202
 20
16.9086
 11
55.0987
 21
17.1585
  0
LINE
  8
0
 10
55.0987
 20
17.1585
 11
56.1026
 21
17.3334
  0
LINE
  8
0
 10
56.1026
 20
17.3334
 11
56.7321
 21
17.3899
  0
LINE
  8
0
 10
56.7321
 20
17.3899
 11
58.2127
 21
12.8331
  0
LINE
  8
0
 10
58.2127
 20
12.8331
 11
58.1927
 21
12.8574
  0
LINE
  8
0
 10
58.1927
 20
12.8574
 11
57.8174
 21
13.2016
  0
LINE
  8
0
 10
57.8174
 20
13.2016
 11
57.4722
 21
13.3984
  0
LINE
  8
0
 10
57.4722
 20
13.3984
 11
57.1577
 21
13.4465
  0
LINE
  8
0
 10
57.1577
 20
13.4465
 11
56.8739
 21
13.3458
  0
LINE
  8
0
 10
56.8739
 20
13.3458
 11
56.6222
 21
13.0972
  0
LINE
  8
0
 10
56.6222
 20
13.0972
 11
56.4015
 21
12.7008
  0
LINE
  8
0
 10
56.4015
 20
12.7008
 11
56.2125
 21
12.1565
  0
LINE
  8
0
 10
56.2125
 20
12.1565
 11
56.1766
 21
12
  0
LINE
  8
0
 10
56.1766
 20
12
 11
51.3137
 21
12
  0
LINE
  8
0
 10
-10
 20
7
 11
-10
 21
11
  0
LINE
  8
0
 10
-10
 20
11
 11
10
 21
11
  0
LINE
  8
0
 10
10
 20
11
 11
10
 21
7
  0
LINE
  8
0
 10
10
 20
7
 11
-10
 21
7
  0
LINE
  8
0
 10
-68.6534
 20
2.70622
 11
-68.7785
 21
2.71805
  0
LINE
  8
0
 10
-68.7785
 20
2.71805
 11
-68.9026
 21
2.7377
  0
LINE
  8
0
 10
-68.9026
 20
2.7377
 11
-69.0252
 21
2.76511
  0
LINE
  8
0
 10
-69.0252
 20
2.76511
 11
-69.1459
 21
2.80016
  0
LINE
  8
0
 10
-69.1459
 20
2.80016
 11
-69.2641
 21
2.84273
  0
LINE
  8
0
 10
-69.2641
 20
2.84273
 11
-69.3794
 21
2.89262
  0
LINE
  8
0
 10
-69.3794
 20
2.89262
 11
-69.4914
 21
2.94966
  0
LINE
  8
0
 10
-69.4914
 20
2.94966
 11
-69.5995
 21
3.01363
  0
LINE
  8
0
 10
-69.5995
 20
3.01363
 11
-69.7034
 21
3.08424
  0
LINE
  8
0
 10
-69.7034
 20
3.08424
 11
-69.8027
 21
3.16125
  0
LINE
  8
0
 10
-69.8027
 20
3.16125
 11
-69.897
 21
3.24434
  0
LINE
  8
0
 10
-69.897
 20
3.24434
 11
-69.9858
 21
3.33318
  0
LINE
  8
0
 10
-69.9858
 20
3.33318
 11
-70.0689
 21
3.42743
  0
LINE
  8
0
 10
-70.0689
 20
3.42743
 11
-70.1459
 21
3.5267
  0
LINE
  8
0
 10
-70.1459
 20
3.5267
 11
-70.2165
 21
3.63062
  0
LINE
  8
0
 10
-70.2165
 20
3.63062
 11
-70.2805
 21
3.73877
  0
LINE
  8
0
 10
-70.2805
 20
3.73877
 11
-70.3375
 21
3.85072
  0
LINE
  8
0
 10
-70.3375
 20
3.85072
 11
-70.3874
 21
3.96602
  0
LINE
  8
0
 10
-70.3874
 20
3.96602
 11
-70.43
 21
4.08424
  0
LINE
  8
0
 10
-70.43
 20
4.08424
 11
-70.465
 21
4.2049
  0
LINE
  8
0
 10
-70.465
 20
4.2049
 11
-70.4924
 21
4.32751
  0
LINE
  8
0
 10
-70.4924
 20
4.32751
 11
-70.5121
 21
4.45161
  0
LINE
  8
0
 10
-70.5121
 20
4.45161
 11
-70.5239
 21
4.57669
  0
LINE
  8
0
 10
-70.5239
 20
4.57669
 11
-70.5279
 21
4.70227
  0
LINE
  8
0
 10
-70.5279
 20
4.70227
 11
-70.5239
 21
4.82785
  0
LINE
  8
0
 10
-70.5239
 20
4.82785
 11
-70.5121
 21
4.95294
  0
LINE
  8
0
 10
-70.5121
 20
4.95294
 11
-70.4924
 21
5.07704
  0
LINE
  8
0
 10
-70.4924
 20
5.07704
 11
-70.465
 21
5.19966
  0
LINE
  8
0
 10
-70.465
 20
5.19966
 11
-70.43
 21
5.32031
  0
LINE
  8
0
 10
-70.43
 20
5.32031
 11
-70.3874
 21
5.43852
  0
LINE
  8
0
 10
-70.3874
 20
5.43852
 11
-70.3375
 21
5.55383
  0
LINE
  8
0
 10
-70.3375
 20
5.55383
 11
-70.2805
 21
5.66579
  0
LINE
  8
0
 10
-70.2805
 20
5.66579
 11
-70.2165
 21
5.77393
  0
LINE
  8
0
 10
-70.2165
 20
5.77393
 11
-70.1459
 21
5.87784
  0
LINE
  8
0
 10
-70.1459
 20
5.87784
 11
-70.0689
 21
5.97713
  0
LINE
  8
0
 10
-70.0689
 20
5.97713
 11
-69.9858
 21
6.07137
  0
LINE
  8
0
 10
-69.9858
 20
6.07137
 11
-69.897
 21
6.16022
  0
LINE
  8
0
 10
-69.897
 20
6.16022
 11
-69.8027
 21
6.2433
  0
LINE
  8
0
 10
-69.8027
 20
6.2433
 11
-69.7034
 21
6.32031
  0
LINE
  8
0
 10
-69.7034
 20
6.32031
 11
-69.5995
 21
6.39093
  0
LINE
  8
0
 10
-69.5995
 20
6.39093
 11
-69.4914
 21
6.4549
  0
LINE
  8
0
 10
-69.4914
 20
6.4549
 11
-69.3794
 21
6.51193
  0
LINE
  8
0
 10
-69.3794
 20
6.51193
 11
-69.2641
 21
6.56183
  0
LINE
  8
0
 10
-69.2641
 20
6.56183
 11
-69.1459
 21
6.60439
  0
LINE
  8
0
 10
-69.1459
 20
6.60439
 11
-69.0252
 21
6.63943
  0
LINE
  8
0
 10
-69.0252
 20
6.63943
 11
-68.9026
 21
6.66685
  0
LINE
  8
0
 10
-68.9026
 20
6.66685
 11
-68.7785
 21
6.68651
  0
LINE
  8
0
 10
-68.7785
 20
6.68651
 11
-68.6534
 21
6.69833
  0
LINE
  8
0
 10
-68.6534
 20
6.69833
 11
-68.5279
 21
6.70227
  0
LINE
  8
0
 10
-68.5279
 20
6.70227
 11
-68.4023
 21
6.69833
  0
LINE
  8
0
 10
-68.4023
 20
6.69833
 11
-68.2772
 21
6.68651
  0
LINE
  8
0
 10
-68.2772
 20
6.68651
 11
-68.1531
 21
6.66685
  0
LINE
  8
0
 10
-68.1531
 20
6.66685
 11
-68.0305
 21
6.63943
  0
LINE
  8
0
 10
-68.0305
 20
6.63943
 11
-67.9098
 21
6.60439
  0
LINE
  8
0
 10
-67.9098
 20
6.60439
 11
-67.7916
 21
6.56183
  0
LINE
  8
0
 10
-67.7916
 20
6.56183
 11
-67.6763
 21
6.51193
  0
LINE
  8
0
 10
-67.6763
 20
6.51193
 11
-67.5643
 21
6.4549
  0
LINE
  8
0
 10
-67.5643
 20
6.4549
 11
-67.4562
 21
6.39093
  0
LINE
  8
0
 10
-67.4562
 20
6.39093
 11
-67.3523
 21
6.32031
  0
LINE
  8
0
 10
-67.3523
 20
6.32031
 11
-67.253
 21
6.2433
  0
LINE
  8
0
 10
-67.253
 20
6.2433
 11
-67.1588
 21
6.16022
  0
LINE
  8
0
 10
-67.1588
 20
6.16022
 11
-67.0699
 21
6.07137
  0
LINE
  8
0
 10
-67.0699
 20
6.07137
 11
-66.9868
 21
5.97713
  0
LINE
  8
0
 10
-66.9868
 20
5.97713
 11
-66.9098
 21
5.87784
  0
LINE
  8
0
 10
-66.9098
 20
5.87784
 11
-66.8392
 21
5.77393
  0
LINE
  8
0
 10
-66.8392
 20
5.77393
 11
-66.7752
 21
5.66579
  0
LINE
  8
0
 10
-66.7752
 20
5.66579
 11
-66.7182
 21
5.55383
  0
LINE
  8
0
 10
-66.7182
 20
5.55383
 11
-66.6683
 21
5.43852
  0
LINE
  8
0
 10
-66.6683
 20
5.43852
 11
-66.6257
 21
5.32031
  0
LINE
  8
0
 10
-66.6257
 20
5.32031
 11
-66.5907
 21
5.19966
  0
LINE
  8
0
 10
-66.5907
 20
5.19966
 11
-66.5633
 21
5.07704
  0
LINE
  8
0
 10
-66.5633
 20
5.07704
 11
-66.5436
 21
4.95294
  0
LINE
  8
0
 10
-66.5436
 20
4.95294
 11
-66.5318
 21
4.82785
  0
LINE
  8
0
 10
-66.5318
 20
4.82785
 11
-66.5279
 21
4.70227
  0
LINE
  8
0
 10
-66.5279
 20
4.70227
 11
-66.5318
 21
4.57669
  0
LINE
  8
0
 10
-66.5318
 20
4.57669
 11
-66.5436
 21
4.45161
  0
LINE
  8
0
 10
-66.5436
 20
4.45161
 11
-66.5633
 21
4.32751
  0
LINE
  8
0
 10
-66.5633
 20
4.32751
 11
-66.5907
 21
4.2049
  0
LINE
  8
0
 10
-66.5907
 20
4.2049
 11
-66.6257
 21
4.08424
  0
LINE
  8
0
 10
-66.6257
 20
4.08424
 11
-66.6683
 21
3.96602
  0
LINE
  8
0
 10
-66.6683
 20
3.96602
 11
-66.7182
 21
3.85072
  0
LINE
  8
0
 10
-66.7182
 20
3.85072
 11
-66.7752
 21
3.73877
  0
LINE
  8
0
 10
-66.7752
 20
3.73877
 11
-66.8392
 21
3.63062
  0
LINE
  8
0
 10
-66.8392
 20
3.63062
 11
-66.9098
 21
3.5267
  0
LINE
  8
0
 10
-66.9098
 20
3.5267
 11
-66.9868
 21
3.42743
  0
LINE
  8
0
 10
-66.9868
 20
3.42743
 11
-67.0699
 21
3.33318
  0
LINE
  8
0
 10
-67.0699
 20
3.33318
 11
-67.1588
 21
3.24434
  0
LINE
  8
0
 10
-67.1588
 20
3.24434
 11
-67.253
 21
3.16125
  0
LINE
  8
0
 10
-67.253
 20
3.16125
 11
-67.3523
 21
3.08424
  0
LINE
  8
0
 10
-67.3523
 20
3.08424
 11
-67.4562
 21
3.01363
  0
LINE
  8
0
 10
-67.4562
 20
3.01363
 11
-67.5643
 21
2.94966
  0
LINE
  8
0
 10
-67.5643
 20
2.94966
 11
-67.6763
 21
2.89262
  0
LINE
  8
0
 10
-67.6763
 20
2.89262
 11
-67.7916
 21
2.84273
  0
LINE
  8
0
 10
-67.7916
 20
2.84273
 11
-67.9098
 21
2.80016
  0
LINE
  8
0
 10
-67.9098
 20
2.80016
 11
-68.0305
 21
2.76511
  0
LINE
  8
0
 10
-68.0305
 20
2.76511
 11
-68.1531
 21
2.7377
  0
LINE
  8
0
 10
-68.1531
 20
2.7377
 11
-68.2772
 21
2.71805
  0
LINE
  8
0
 10
-68.2772
 20
2.71805
 11
-68.4023
 21
2.70622
  0
LINE
  8
0
 10
-68.4023
 20
2.70622
 11
-68.5279
 21
2.70227
  0
LINE
  8
0
 10
-68.5279
 20
2.70227
 11
-68.6534
 21
2.70622
  0
LINE
  8
0
 10
68.4023
 20
2.70622
 11
68.2772
 21
2.71805
  0
LINE
  8
0
 10
68.2772
 20
2.71805
 11
68.1531
 21
2.7377
  0
LINE
  8
0
 10
68.1531
 20
2.7377
 11
68.0305
 21
2.76511
  0
LINE
  8
0
 10
68.0305
 20
2.76511
 11
67.9098
 21
2.80016
  0
LINE
  8
0
 10
67.9098
 20
2.80016
 11
67.7916
 21
2.84273
  0
LINE
  8
0
 10
67.7916
 20
2.84273
 11
67.6763
 21
2.89262
  0
LINE
  8
0
 10
67.6763
 20
2.89262
 11
67.5643
 21
2.94966
  0
LINE
  8
0
 10
67.5643
 20
2.94966
 11
67.4562
 21
3.01363
  0
LINE
  8
0
 10
67.4562
 20
3.01363
 11
67.3523
 21
3.08424
  0
LINE
  8
0
 10
67.3523
 20
3.08424
 11
67.253
 21
3.16125
  0
LINE
  8
0
 10
67.253
 20
3.16125
 11
67.1588
 21
3.24434
  0
LINE
  8
0
 10
67.1588
 20
3.24434
 11
67.0699
 21
3.33318
  0
LINE
  8
0
 10
67.0699
 20
3.33318
 11
66.9868
 21
3.42743
  0
LINE
  8
0
 10
66.9868
 20
3.42743
 11
66.9098
 21
3.5267
  0
LINE
  8
0
 10
66.9098
 20
3.5267
 11
66.8392
 21
3.63062
  0
LINE
  8
0
 10
66.8392
 20
3.63062
 11
66.7752
 21
3.73877
  0
LINE
  8
0
 10
66.7752
 20
3.73877
 11
66.7182
 21
3.85072
  0
LINE
  8
0
 10
66.7182
 20
3.85072
 11
66.6683
 21
3.96602
  0
LINE
  8
0
 10
66.6683
 20
3.96602
 11
66.6257
 21
4.08424
  0
LINE
  8
0
 10
66.6257
 20
4.08424
 11
66.5907
 21
4.2049
  0
LINE
  8
0
 10
66.5907
 20
4.2049
 11
66.5633
 21
4.32751
  0
LINE
  8
0
 10
66.5633
 20
4.32751
 11
66.5436
 21
4.45161
  0
LINE
  8
0
 10
66.5436
 20
4.45161
 11
66.5318
 21
4.57669
  0
LINE
  8
0
 10
66.5318
 20
4.57669
 11
66.5279
 21
4.70227
  0
LINE
  8
0
 10
66.5279
 20
4.70227
 11
66.5318
 21
4.82785
  0
LINE
  8
0
 10
66.5318
 20
4.82785
 11
66.5436
 21
4.95294
  0
LINE
  8
0
 10
66.5436
 20
4.95294
 11
66.5633
 21
5.07704
  0
LINE
  8
0
 10
66.5633
 20
5.07704
 11
66.5907
 21
5.19966
  0
LINE
  8
0
 10
66.5907
 20
5.19966
 11
66.6257
 21
5.32031
  0
LINE
  8
0
 10
66.6257
 20
5.32031
 11
66.6683
 21
5.43852
  0
LINE
  8
0
 10
66.6683
 20
5.43852
 11
66.7182
 21
5.55383
  0
LINE
  8
0
 10
66.7182
 20
5.55383
 11
66.7752
 21
5.66579
  0
LINE
  8
0
 10
66.7752
 20
5.66579
 11
66.8392
 21
5.77393
  0
LINE
  8
0
 10
66.8392
 20
5.77393
 11
66.9098
 21
5.87784
  0
LINE
  8
0
 10
66.9098
 20
5.87784
 11
66.9868
 21
5.97713
  0
LINE
  8
0
 10
66.9868
 20
5.97713
 11
67.0699
 21
6.07137
  0
LINE
  8
0
 10
67.0699
 20
6.07137
 11
67.1588
 21
6.16022
  0
LINE
  8
0
 10
67.1588
 20
6.16022
 11
67.253
 21
6.2433
  0
LINE
  8
0
 10
67.253
 20
6.2433
 11
67.3523
 21
6.32031
  0
LINE
  8
0
 10
67.3523
 20
6.32031
 11
67.4562
 21
6.39093
  0
LINE
  8
0
 10
67.4562
 20
6.39093
 11
67.5643
 21
6.4549
  0
LINE
  8
0
 10
67.5643
 20
6.4549
 11
67.6763
 21
6.51193
  0
LINE
  8
0
 10
67.6763
 20
6.51193
 11
67.7916
 21
6.56183
  0
LINE
  8
0
 10
67.7916
 20
6.56183
 11
67.9098
 21
6.60439
  0
LINE
  8
0
 10
67.9098
 20
6.60439
 11
68.0305
 21
6.63943
  0
LINE
  8
0
 10
68.0305
 20
6.63943
 11
68.1531
 21
6.66685
  0
LINE
  8
0
 10
68.1531
 20
6.66685
 11
68.2772
 21
6.68651
  0
LINE
  8
0
 10
68.2772
 20
6.68651
 11
68.4023
 21
6.69833
  0
LINE
  8
0
 10
68.4023
 20
6.69833
 11
68.5279
 21
6.70227
  0
LINE
  8
0
 10
68.5279
 20
6.70227
 11
68.6534
 21
6.69833
  0
LINE
  8
0
 10
68.6534
 20
6.69833
 11
68.7785
 21
6.68651
  0
LINE
  8
0
 10
68.7785
 20
6.68651
 11
68.9026
 21
6.66685
  0
LINE
  8
0
 10
68.9026
 20
6.66685
 11
69.0252
 21
6.63943
  0
LINE
  8
0
 10
69.0252
 20
6.63943
 11
69.1459
 21
6.60439
  0
LINE
  8
0
 10
69.1459
 20
6.60439
 11
69.2641
 21
6.56183
  0
LINE
  8
0
 10
69.2641
 20
6.56183
 11
69.3794
 21
6.51193
  0
LINE
  8
0
 10
69.3794
 20
6.51193
 11
69.4914
 21
6.4549
  0
LINE
  8
0
 10
69.4914
 20
6.4549
 11
69.5995
 21
6.39093
  0
LINE
  8
0
 10
69.5995
 20
6.39093
 11
69.7034
 21
6.32031
  0
LINE
  8
0
 10
69.7034
 20
6.32031
 11
69.8027
 21
6.2433
  0
LINE
  8
0
 10
69.8027
 20
6.2433
 11
69.897
 21
6.16022
  0
LINE
  8
0
 10
69.897
 20
6.16022
 11
69.9858
 21
6.07137
  0
LINE
  8
0
 10
69.9858
 20
6.07137
 11
70.0689
 21
5.97713
  0
LINE
  8
0
 10
70.0689
 20
5.97713
 11
70.1459
 21
5.87784
  0
LINE
  8
0
 10
70.1459
 20
5.87784
 11
70.2165
 21
5.77393
  0
LINE
  8
0
 10
70.2165
 20
5.77393
 11
70.2805
 21
5.66579
  0
LINE
  8
0
 10
70.2805
 20
5.66579
 11
70.3375
 21
5.55383
  0
LINE
  8
0
 10
70.3375
 20
5.55383
 11
70.3874
 21
5.43852
  0
LINE
  8
0
 10
70.3874
 20
5.43852
 11
70.43
 21
5.32031
  0
LINE
  8
0
 10
70.43
 20
5.32031
 11
70.465
 21
5.19966
  0
LINE
  8
0
 10
70.465
 20
5.19966
 11
70.4924
 21
5.07704
  0
LINE
  8
0
 10
70.4924
 20
5.07704
 11
70.5121
 21
4.95294
  0
LINE
  8
0
 10
70.5121
 20
4.95294
 11
70.5239
 21
4.82785
  0
LINE
  8
0
 10
70.5239
 20
4.82785
 11
70.5279
 21
4.70227
  0
LINE
  8
0
 10
70.5279
 20
4.70227
 11
70.5239
 21
4.57669
  0
LINE
  8
0
 10
70.5239
 20
4.57669
 11
70.5121
 21
4.45161
  0
LINE
  8
0
 10
70.5121
 20
4.45161
 11
70.4924
 21
4.32751
  0
LINE
  8
0
 10
70.4924
 20
4.32751
 11
70.465
 21
4.2049
  0
LINE
  8
0
 10
70.465
 20
4.2049
 11
70.43
 21
4.08424
  0
LINE
  8
0
 10
70.43
 20
4.08424
 11
70.3874
 21
3.96602
  0
LINE
  8
0
 10
70.3874
 20
3.96602
 11
70.3375
 21
3.85072
  0
LINE
  8
0
 10
70.3375
 20
3.85072
 11
70.2805
 21
3.73877
  0
LINE
  8
0
 10
70.2805
 20
3.73877
 11
70.2165
 21
3.63062
  0
LINE
  8
0
 10
70.2165
 20
3.63062
 11
70.1459
 21
3.5267
  0
LINE
  8
0
 10
70.1459
 20
3.5267
 11
70.0689
 21
3.42743
  0
LINE
  8
0
 10
70.0689
 20
3.42743
 11
69.9858
 21
3.33318
  0
LINE
  8
0
 10
69.9858
 20
3.33318
 11
69.897
 21
3.24434
  0
LINE
  8
0
 10
69.897
 20
3.24434
 11
69.8027
 21
3.16125
  0
LINE
  8
0
 10
69.8027
 20
3.16125
 11
69.7034
 21
3.08424
  0
LINE
  8
0
 10
69.7034
 20
3.08424
 11
69.5995
 21
3.01363
  0
LINE
  8
0
 10
69.5995
 20
3.01363
 11
69.4914
 21
2.94966
  0
LINE
  8
0
 10
69.4914
 20
2.94966
 11
69.3794
 21
2.89262
  0
LINE
  8
0
 10
69.3794
 20
2.89262
 11
69.2641
 21
2.84273
  0
LINE
  8
0
 10
69.2641
 20
2.84273
 11
69.1459
 21
2.80016
  0
LINE
  8
0
 10
69.1459
 20
2.80016
 11
69.0252
 21
2.76511
  0
LINE
  8
0
 10
69.0252
 20
2.76511
 11
68.9026
 21
2.7377
  0
LINE
  8
0
 10
68.9026
 20
2.7377
 11
68.7785
 21
2.71805
  0
LINE
  8
0
 10
68.7785
 20
2.71805
 11
68.6534
 21
2.70622
  0
LINE
  8
0
 10
68.6534
 20
2.70622
 11
68.5279
 21
2.70227
  0
LINE
  8
0
 10
68.5279
 20
2.70227
 11
68.4023
 21
2.70622
  0
ENDSEC
  0
SECTION
  2
OBJECTS
  0
DICTIONARY
  0
ENDSEC
  0
EOF
