  0
SECTION
  2
BLOCKS
  0
ENDSEC
  0
SECTION
  2
ENTITIES
  0
LINE
  8
0
 10
0
 20
230.826
 11
-75
 21
0
  0
LINE
  8
0
 10
-75
 20
0
 11
75
 21
0
  0
LINE
  8
0
 10
75
 20
0
 11
0
 21
230.826
  0
LINE
  8
0
 10
-0.12558
 20
212.83
 11
-0.250656
 21
212.842
  0
LINE
  8
0
 10
-0.250656
 20
212.842
 11
-0.374756
 21
212.862
  0
LINE
  8
0
 10
-0.374756
 20
212.862
 11
-0.497375
 21
212.889
  0
LINE
  8
0
 10
-0.497375
 20
212.889
 11
-0.618027
 21
212.924
  0
LINE
  8
0
 10
-0.618027
 20
212.924
 11
-0.736237
 21
212.967
  0
LINE
  8
0
 10
-0.736237
 20
212.967
 11
-0.851547
 21
213.017
  0
LINE
  8
0
 10
-0.851547
 20
213.017
 11
-0.963501
 21
213.074
  0
LINE
  8
0
 10
-0.963501
 20
213.074
 11
-1.07164
 21
213.138
  0
LINE
  8
0
 10
-1.07164
 20
213.138
 11
-1.17557
 21
213.208
  0
LINE
  8
0
 10
-1.17557
 20
213.208
 11
-1.27484
 21
213.285
  0
LINE
  8
0
 10
-1.27484
 20
213.285
 11
-1.36908
 21
213.368
  0
LINE
  8
0
 10
-1.36908
 20
213.368
 11
-1.45793
 21
213.457
  0
LINE
  8
0
 10
-1.45793
 20
213.457
 11
-1.54102
 21
213.551
  0
LINE
  8
0
 10
-1.54102
 20
213.551
 11
-1.61803
 21
213.651
  0
LINE
  8
0
 10
-1.61803
 20
213.651
 11
-1.68864
 21
213.755
  0
LINE
  8
0
 10
-1.68864
 20
213.755
 11
-1.75261
 21
213.863
  0
LINE
  8
0
 10
-1.75261
 20
213.863
 11
-1.80965
 21
213.975
  0
LINE
  8
0
 10
-1.80965
 20
213.975
 11
-1.85954
 21
214.09
  0
LINE
  8
0
 10
-1.85954
 20
214.09
 11
-1.9021
 21
214.208
  0
LINE
  8
0
 10
-1.9021
 20
214.208
 11
-1.93716
 21
214.329
  0
LINE
  8
0
 10
-1.93716
 20
214.329
 11
-1.96457
 21
214.451
  0
LINE
  8
0
 10
-1.96457
 20
214.451
 11
-1.98422
 21
214.576
  0
LINE
  8
0
 10
-1.98422
 20
214.576
 11
-1.99605
 21
214.701
  0
LINE
  8
0
 10
-1.99605
 20
214.701
 11
-2
 21
214.826
  0
LINE
  8
0
 10
-2
 20
214.826
 11
-1.99605
 21
214.952
  0
LINE
  8
0
 10
-1.99605
 20
214.952
 11
-1.98422
 21
215.077
  0
LINE
  8
0
 10
-1.98422
 20
215.077
 11
-1.96457
 21
215.201
  0
LINE
  8
0
 10
-1.96457
 20
215.201
 11
-1.93716
 21
215.324
  0
LINE
  8
0
 10
-1.93716
 20
215.324
 11
-1.9021
 21
215.444
  0
LINE
  8
0
 10
-1.9021
 20
215.444
 11
-1.85954
 21
215.562
  0
LINE
  8
0
 10
-1.85954
 20
215.562
 11
-1.80965
 21
215.678
  0
LINE
  8
0
 10
-1.80965
 20
215.678
 11
-1.75261
 21
215.79
  0
LINE
  8
0
 10
-1.75261
 20
215.79
 11
-1.68864
 21
215.898
  0
LINE
  8
0
 10
-1.68864
 20
215.898
 11
-1.61803
 21
216.002
  0
LINE
  8
0
 10
-1.61803
 20
216.002
 11
-1.54102
 21
216.101
  0
LINE
  8
0
 10
-1.54102
 20
216.101
 11
-1.45793
 21
216.195
  0
LINE
  8
0
 10
-1.45793
 20
216.195
 11
-1.36908
 21
216.284
  0
LINE
  8
0
 10
-1.36908
 20
216.284
 11
-1.27484
 21
216.367
  0
LINE
  8
0
 10
-1.27484
 20
216.367
 11
-1.17557
 21
216.444
  0
LINE
  8
0
 10
-1.17557
 20
216.444
 11
-1.07164
 21
216.515
  0
LINE
  8
0
 10
-1.07164
 20
216.515
 11
-0.963501
 21
216.579
  0
LINE
  8
0
 10
-0.963501
 20
216.579
 11
-0.851547
 21
216.636
  0
LINE
  8
0
 10
-0.851547
 20
216.636
 11
-0.736237
 21
216.686
  0
LINE
  8
0
 10
-0.736237
 20
216.686
 11
-0.618027
 21
216.728
  0
LINE
  8
0
 10
-0.618027
 20
216.728
 11
-0.497375
 21
216.763
  0
LINE
  8
0
 10
-0.497375
 20
216.763
 11
-0.374756
 21
216.791
  0
LINE
  8
0
 10
-0.374756
 20
216.791
 11
-0.250656
 21
216.81
  0
LINE
  8
0
 10
-0.250656
 20
216.81
 11
-0.12558
 21
216.822
  0
LINE
  8
0
 10
-0.12558
 20
216.822
 11
0
 21
216.826
  0
LINE
  8
0
 10
0
 20
216.826
 11
0.12558
 21
216.822
  0
LINE
  8
0
 10
0.12558
 20
216.822
 11
0.250656
 21
216.81
  0
LINE
  8
0
 10
0.250656
 20
216.81
 11
0.374756
 21
216.791
  0
LINE
  8
0
 10
0.374756
 20
216.791
 11
0.497375
 21
216.763
  0
LINE
  8
0
 10
0.497375
 20
216.763
 11
0.618027
 21
216.728
  0
LINE
  8
0
 10
0.618027
 20
216.728
 11
0.736237
 21
216.686
  0
LINE
  8
0
 10
0.736237
 20
216.686
 11
0.851547
 21
216.636
  0
LINE
  8
0
 10
0.851547
 20
216.636
 11
0.963501
 21
216.579
  0
LINE
  8
0
 10
0.963501
 20
216.579
 11
1.07164
 21
216.515
  0
LINE
  8
0
 10
1.07164
 20
216.515
 11
1.17557
 21
216.444
  0
LINE
  8
0
 10
1.17557
 20
216.444
 11
1.27484
 21
216.367
  0
LINE
  8
0
 10
1.27484
 20
216.367
 11
1.36908
 21
216.284
  0
LINE
  8
0
 10
1.36908
 20
216.284
 11
1.45793
 21
216.195
  0
LINE
  8
0
 10
1.45793
 20
216.195
 11
1.54102
 21
216.101
  0
LINE
  8
0
 10
1.54102
 20
216.101
 11
1.61803
 21
216.002
  0
LINE
  8
0
 10
1.61803
 20
216.002
 11
1.68864
 21
215.898
  0
LINE
  8
0
 10
1.68864
 20
215.898
 11
1.75261
 21
215.79
  0
LINE
  8
0
 10
1.75261
 20
215.79
 11
1.80965
 21
215.678
  0
LINE
  8
0
 10
1.80965
 20
215.678
 11
1.85954
 21
215.562
  0
LINE
  8
0
 10
1.85954
 20
215.562
 11
1.9021
 21
215.444
  0
LINE
  8
0
 10
1.9021
 20
215.444
 11
1.93716
 21
215.324
  0
LINE
  8
0
 10
1.93716
 20
215.324
 11
1.96457
 21
215.201
  0
LINE
  8
0
 10
1.96457
 20
215.201
 11
1.98422
 21
215.077
  0
LINE
  8
0
 10
1.98422
 20
215.077
 11
1.99605
 21
214.952
  0
LINE
  8
0
 10
1.99605
 20
214.952
 11
2
 21
214.826
  0
LINE
  8
0
 10
2
 20
214.826
 11
1.99605
 21
214.701
  0
LINE
  8
0
 10
1.99605
 20
214.701
 11
1.98422
 21
214.576
  0
LINE
  8
0
 10
1.98422
 20
214.576
 11
1.96457
 21
214.451
  0
LINE
  8
0
 10
1.96457
 20
214.451
 11
1.93716
 21
214.329
  0
LINE
  8
0
 10
1.93716
 20
214.329
 11
1.9021
 21
214.208
  0
LINE
  8
0
 10
1.9021
 20
214.208
 11
1.85954
 21
214.09
  0
LINE
  8
0
 10
1.85954
 20
214.09
 11
1.80965
 21
213.975
  0
LINE
  8
0
 10
1.80965
 20
213.975
 11
1.75261
 21
213.863
  0
LINE
  8
0
 10
1.75261
 20
213.863
 11
1.68864
 21
213.755
  0
LINE
  8
0
 10
1.68864
 20
213.755
 11
1.61803
 21
213.651
  0
LINE
  8
0
 10
1.61803
 20
213.651
 11
1.54102
 21
213.551
  0
LINE
  8
0
 10
1.54102
 20
213.551
 11
1.45793
 21
213.457
  0
LINE
  8
0
 10
1.45793
 20
213.457
 11
1.36908
 21
213.368
  0
LINE
  8
0
 10
1.36908
 20
213.368
 11
1.27484
 21
213.285
  0
LINE
  8
0
 10
1.27484
 20
213.285
 11
1.17557
 21
213.208
  0
LINE
  8
0
 10
1.17557
 20
213.208
 11
1.07164
 21
213.138
  0
LINE
  8
0
 10
1.07164
 20
213.138
 11
0.963501
 21
213.074
  0
LINE
  8
0
 10
0.963501
 20
213.074
 11
0.851547
 21
213.017
  0
LINE
  8
0
 10
0.851547
 20
213.017
 11
0.736237
 21
212.967
  0
LINE
  8
0
 10
0.736237
 20
212.967
 11
0.618027
 21
212.924
  0
LINE
  8
0
 10
0.618027
 20
212.924
 11
0.497375
 21
212.889
  0
LINE
  8
0
 10
0.497375
 20
212.889
 11
0.374756
 21
212.862
  0
LINE
  8
0
 10
0.374756
 20
212.862
 11
0.250656
 21
212.842
  0
LINE
  8
0
 10
0.250656
 20
212.842
 11
0.12558
 21
212.83
  0
LINE
  8
0
 10
0.12558
 20
212.83
 11
0
 21
212.826
  0
LINE
  8
0
 10
0
 20
212.826
 11
-0.12558
 21
212.83
  0
LINE
  8
0
 10
-1.4447
 20
187.259
 11
-1.51596
 21
187.328
  0
LINE
  8
0
 10
-1.51596
 20
187.328
 11
-0.986603
 21
188.957
  0
LINE
  8
0
 10
-0.986603
 20
188.957
 11
-0.505371
 21
188.877
  0
LINE
  8
0
 10
-0.505371
 20
188.877
 11
-0.330048
 21
188.974
  0
LINE
  8
0
 10
-0.330048
 20
188.974
 11
-0.248108
 21
189.193
  0
LINE
  8
0
 10
-0.248108
 20
189.193
 11
-0.325928
 21
189.484
  0
LINE
  8
0
 10
-0.325928
 20
189.484
 11
-0.738205
 21
189.721
  0
LINE
  8
0
 10
-0.738205
 20
189.721
 11
-0.212814
 21
191.338
  0
LINE
  8
0
 10
-0.212814
 20
191.338
 11
0.311096
 21
191.036
  0
LINE
  8
0
 10
0.311096
 20
191.036
 11
1.17235
 21
188.385
  0
LINE
  8
0
 10
1.17235
 20
188.385
 11
0.769501
 21
187.688
  0
LINE
  8
0
 10
0.769501
 20
187.688
 11
-0.180359
 21
187.182
  0
LINE
  8
0
 10
-0.180359
 20
187.182
 11
-1.4447
 21
187.259
  0
LINE
  8
0
 10
-6.33316
 20
171.343
 11
-6.57408
 21
171.761
  0
LINE
  8
0
 10
-6.57408
 20
171.761
 11
-5.61697
 21
174.706
  0
LINE
  8
0
 10
-5.61697
 20
174.706
 11
-5.37872
 21
174.774
  0
LINE
  8
0
 10
-5.37872
 20
174.774
 11
-4.70581
 21
173.608
  0
LINE
  8
0
 10
-4.70581
 20
173.608
 11
-5.27847
 21
172.913
  0
LINE
  8
0
 10
-5.27847
 20
172.913
 11
-5.28168
 21
172.713
  0
LINE
  8
0
 10
-5.28168
 20
172.713
 11
-5.1329
 21
172.533
  0
LINE
  8
0
 10
-5.1329
 20
172.533
 11
-4.84177
 21
172.455
  0
LINE
  8
0
 10
-4.84177
 20
172.455
 11
-2.65915
 21
173.715
  0
LINE
  8
0
 10
-2.65915
 20
173.715
 11
-3.31558
 21
174.711
  0
LINE
  8
0
 10
-3.31558
 20
174.711
 11
-3.17734
 21
175.86
  0
LINE
  8
0
 10
-3.17734
 20
175.86
 11
-2.91046
 21
176.216
  0
LINE
  8
0
 10
-2.91046
 20
176.216
 11
-4.01047
 21
175.58
  0
LINE
  8
0
 10
-4.01047
 20
175.58
 11
-4.85672
 21
177.046
  0
LINE
  8
0
 10
-4.85672
 20
177.046
 11
-3.82057
 21
180.235
  0
LINE
  8
0
 10
-3.82057
 20
180.235
 11
3.04327
 21
182.627
  0
LINE
  8
0
 10
3.04327
 20
182.627
 11
3.53731
 21
181.107
  0
LINE
  8
0
 10
3.53731
 20
181.107
 11
-3.69827
 21
178.506
  0
LINE
  8
0
 10
-3.69827
 20
178.506
 11
-2.66006
 21
176.55
  0
LINE
  8
0
 10
-2.66006
 20
176.55
 11
-2.6532
 21
176.559
  0
LINE
  8
0
 10
-2.6532
 20
176.559
 11
-0.797882
 21
177.634
  0
LINE
  8
0
 10
-0.797882
 20
177.634
 11
0.0411987
 21
176.18
  0
LINE
  8
0
 10
0.0411987
 20
176.18
 11
-1.33484
 21
175.298
  0
LINE
  8
0
 10
-1.33484
 20
175.298
 11
-1.44699
 21
174.995
  0
LINE
  8
0
 10
-1.44699
 20
174.995
 11
-1.30005
 21
174.74
  0
LINE
  8
0
 10
-1.30005
 20
174.74
 11
-0.984192
 21
174.685
  0
LINE
  8
0
 10
-0.984192
 20
174.685
 11
3.13385
 21
177.157
  0
LINE
  8
0
 10
3.13385
 20
177.157
 11
3.16727
 21
177.504
  0
LINE
  8
0
 10
3.16727
 20
177.504
 11
2.72873
 21
177.645
  0
LINE
  8
0
 10
2.72873
 20
177.645
 11
1.21445
 21
176.857
  0
LINE
  8
0
 10
1.21445
 20
176.857
 11
0.374451
 21
178.31
  0
LINE
  8
0
 10
0.374451
 20
178.31
 11
2.36664
 21
179.348
  0
LINE
  8
0
 10
2.36664
 20
179.348
 11
3.14621
 21
179.395
  0
LINE
  8
0
 10
3.14621
 20
179.395
 11
4.19724
 21
178.946
  0
LINE
  8
0
 10
4.19724
 20
178.946
 11
4.3214
 21
178.694
  0
LINE
  8
0
 10
4.3214
 20
178.694
 11
4.84468
 21
177.083
  0
LINE
  8
0
 10
4.84468
 20
177.083
 11
4.75662
 21
176.573
  0
LINE
  8
0
 10
4.75662
 20
176.573
 11
4.13269
 21
175.715
  0
LINE
  8
0
 10
4.13269
 20
175.715
 11
-4.08829
 21
170.969
  0
LINE
  8
0
 10
-4.08829
 20
170.969
 11
-5.24048
 21
170.803
  0
LINE
  8
0
 10
-5.24048
 20
170.803
 11
-6.33316
 21
171.343
  0
LINE
  8
0
 10
5.09903
 20
166.3
 11
4.66919
 21
166.949
  0
LINE
  8
0
 10
4.66919
 20
166.949
 11
4.53232
 21
168.086
  0
LINE
  8
0
 10
4.53232
 20
168.086
 11
5.4364
 21
169.436
  0
LINE
  8
0
 10
5.4364
 20
169.436
 11
6.30753
 21
169.756
  0
LINE
  8
0
 10
6.30753
 20
169.756
 11
7.25813
 21
169.655
  0
LINE
  8
0
 10
7.25813
 20
169.655
 11
8.03258
 21
167.272
  0
LINE
  8
0
 10
8.03258
 20
167.272
 11
6.61377
 21
168.059
  0
LINE
  8
0
 10
6.61377
 20
168.059
 11
6.29608
 21
167.915
  0
LINE
  8
0
 10
6.29608
 20
167.915
 11
6.39313
 21
167.464
  0
LINE
  8
0
 10
6.39313
 20
167.464
 11
7.83325
 21
166.546
  0
LINE
  8
0
 10
7.83325
 20
166.546
 11
6.99417
 21
165.094
  0
LINE
  8
0
 10
6.99417
 20
165.094
 11
5.09903
 21
166.3
  0
LINE
  8
0
 10
7.82593
 20
160.151
 11
-1.01303
 21
167.776
  0
LINE
  8
0
 10
-1.01303
 20
167.776
 11
-0.219727
 21
169.15
  0
LINE
  8
0
 10
-0.219727
 20
169.15
 11
8.86093
 21
161.467
  0
LINE
  8
0
 10
8.86093
 20
161.467
 11
9.55731
 21
162.579
  0
LINE
  8
0
 10
9.55731
 20
162.579
 11
10.2583
 21
160.422
  0
LINE
  8
0
 10
10.2583
 20
160.422
 11
9.53293
 21
159.165
  0
LINE
  8
0
 10
9.53293
 20
159.165
 11
7.82593
 21
160.151
  0
LINE
  8
0
 10
8.16696
 20
164.415
 11
8.67487
 21
165.295
  0
LINE
  8
0
 10
8.67487
 20
165.295
 11
9.14323
 21
163.853
  0
LINE
  8
0
 10
9.14323
 20
163.853
 11
8.16696
 21
164.415
  0
LINE
  8
0
 10
0.224304
 20
143.177
 11
2.33734
 21
154.883
  0
LINE
  8
0
 10
2.33734
 20
154.883
 11
0.123596
 21
154.962
  0
LINE
  8
0
 10
0.123596
 20
154.962
 11
0.128174
 21
154.951
  0
LINE
  8
0
 10
0.128174
 20
154.951
 11
0.131378
 21
152.808
  0
LINE
  8
0
 10
0.131378
 20
152.808
 11
-1.5477
 21
152.808
  0
LINE
  8
0
 10
-1.5477
 20
152.808
 11
-1.62277
 21
154.44
  0
LINE
  8
0
 10
-1.62277
 20
154.44
 11
-1.82968
 21
154.689
  0
LINE
  8
0
 10
-1.82968
 20
154.689
 11
-2.12402
 21
154.689
  0
LINE
  8
0
 10
-2.12402
 20
154.689
 11
-2.3291
 21
154.443
  0
LINE
  8
0
 10
-2.3291
 20
154.443
 11
-2.24716
 21
149.641
  0
LINE
  8
0
 10
-2.24716
 20
149.641
 11
-1.96426
 21
149.438
  0
LINE
  8
0
 10
-1.96426
 20
149.438
 11
-1.62277
 21
149.747
  0
LINE
  8
0
 10
-1.62277
 20
149.747
 11
-1.5477
 21
151.453
  0
LINE
  8
0
 10
-1.5477
 20
151.453
 11
0.131378
 21
151.453
  0
LINE
  8
0
 10
0.131378
 20
151.453
 11
0.0338745
 21
149.208
  0
LINE
  8
0
 10
0.0338745
 20
149.208
 11
-0.314941
 21
148.511
  0
LINE
  8
0
 10
-0.314941
 20
148.511
 11
-1.2291
 21
147.825
  0
LINE
  8
0
 10
-1.2291
 20
147.825
 11
-2.85095
 21
147.933
  0
LINE
  8
0
 10
-2.85095
 20
147.933
 11
-3.56461
 21
148.528
  0
LINE
  8
0
 10
-3.56461
 20
148.528
 11
-3.9949
 21
149.496
  0
LINE
  8
0
 10
-3.9949
 20
149.496
 11
-3.9949
 21
158.989
  0
LINE
  8
0
 10
-3.9949
 20
158.989
 11
-3.56232
 21
160.07
  0
LINE
  8
0
 10
-3.56232
 20
160.07
 11
-2.54883
 21
160.746
  0
LINE
  8
0
 10
-2.54883
 20
160.746
 11
-1.32431
 21
160.746
  0
LINE
  8
0
 10
-1.32431
 20
160.746
 11
-0.411072
 21
160.175
  0
LINE
  8
0
 10
-0.411072
 20
160.175
 11
0.154724
 21
159.042
  0
LINE
  8
0
 10
0.154724
 20
159.042
 11
-0.0544739
 21
158.204
  0
LINE
  8
0
 10
-0.0544739
 20
158.204
 11
-1.40121
 21
158.204
  0
LINE
  8
0
 10
-1.40121
 20
158.204
 11
-1.71707
 21
159.047
  0
LINE
  8
0
 10
-1.71707
 20
159.047
 11
-1.88828
 21
159.15
  0
LINE
  8
0
 10
-1.88828
 20
159.15
 11
-2.11899
 21
159.111
  0
LINE
  8
0
 10
-2.11899
 20
159.111
 11
-2.33185
 21
158.899
  0
LINE
  8
0
 10
-2.33185
 20
158.899
 11
-2.33185
 21
156.379
  0
LINE
  8
0
 10
-2.33185
 20
156.379
 11
-1.13983
 21
156.449
  0
LINE
  8
0
 10
-1.13983
 20
156.449
 11
-0.216064
 21
155.756
  0
LINE
  8
0
 10
-0.216064
 20
155.756
 11
-0.0402832
 21
155.345
  0
LINE
  8
0
 10
-0.0402832
 20
155.345
 11
-0.0402832
 21
156.616
  0
LINE
  8
0
 10
-0.0402832
 20
156.616
 11
3.9949
 21
156.616
  0
LINE
  8
0
 10
3.9949
 20
156.616
 11
3.99536
 21
154.644
  0
LINE
  8
0
 10
3.99536
 20
154.644
 11
1.81091
 21
143.177
  0
LINE
  8
0
 10
1.81091
 20
143.177
 11
0.224304
 21
143.177
  0
LINE
  8
0
 10
-11.4247
 20
156.832
 11
-8.29742
 21
157.922
  0
LINE
  8
0
 10
-8.29742
 20
157.922
 11
-7.50504
 21
156.548
  0
LINE
  8
0
 10
-7.50504
 20
156.548
 11
-12.0473
 21
154.916
  0
LINE
  8
0
 10
-12.0473
 20
154.916
 11
-11.4247
 21
156.832
  0
LINE
  8
0
 10
8.66684
 20
145.363
 11
8.05481
 21
146.422
  0
LINE
  8
0
 10
8.05481
 20
146.422
 11
8.09235
 21
147.499
  0
LINE
  8
0
 10
8.09235
 20
147.499
 11
8.79044
 21
148.556
  0
LINE
  8
0
 10
8.79044
 20
148.556
 11
9.62128
 21
148.793
  0
LINE
  8
0
 10
9.62128
 20
148.793
 11
10.2942
 21
147.627
  0
LINE
  8
0
 10
10.2942
 20
147.627
 11
9.72153
 21
146.932
  0
LINE
  8
0
 10
9.72153
 20
146.932
 11
9.71832
 21
146.733
  0
LINE
  8
0
 10
9.71832
 20
146.733
 11
9.8671
 21
146.552
  0
LINE
  8
0
 10
9.8671
 20
146.552
 11
10.1582
 21
146.474
  0
LINE
  8
0
 10
10.1582
 20
146.474
 11
12.3409
 21
147.734
  0
LINE
  8
0
 10
12.3409
 20
147.734
 11
11.6844
 21
148.73
  0
LINE
  8
0
 10
11.6844
 20
148.73
 11
11.8227
 21
149.879
  0
LINE
  8
0
 10
11.8227
 20
149.879
 11
12.0895
 21
150.235
  0
LINE
  8
0
 10
12.0895
 20
150.235
 11
10.9895
 21
149.6
  0
LINE
  8
0
 10
10.9895
 20
149.6
 11
8.97171
 21
153.094
  0
LINE
  8
0
 10
8.97171
 20
153.094
 11
10.6792
 21
154.08
  0
LINE
  8
0
 10
10.6792
 20
154.08
 11
12.1521
 21
154.593
  0
LINE
  8
0
 10
12.1521
 20
154.593
 11
12.6648
 21
153.015
  0
LINE
  8
0
 10
12.6648
 20
153.015
 11
11.3017
 21
152.525
  0
LINE
  8
0
 10
11.3017
 20
152.525
 11
12.3399
 21
150.569
  0
LINE
  8
0
 10
12.3399
 20
150.569
 11
12.3468
 21
150.578
  0
LINE
  8
0
 10
12.3468
 20
150.578
 11
13.2809
 21
151.119
  0
LINE
  8
0
 10
13.2809
 20
151.119
 11
13.8316
 21
149.424
  0
LINE
  8
0
 10
13.8316
 20
149.424
 11
13.6652
 21
149.318
  0
LINE
  8
0
 10
13.6652
 20
149.318
 11
13.553
 21
149.014
  0
LINE
  8
0
 10
13.553
 20
149.014
 11
13.7
 21
148.759
  0
LINE
  8
0
 10
13.7
 20
148.759
 11
14.0158
 21
148.704
  0
LINE
  8
0
 10
14.0158
 20
148.704
 11
14.0574
 21
148.729
  0
LINE
  8
0
 10
14.0574
 20
148.729
 11
14.584
 21
147.109
  0
LINE
  8
0
 10
14.584
 20
147.109
 11
10.9117
 21
144.989
  0
LINE
  8
0
 10
10.9117
 20
144.989
 11
9.75952
 21
144.822
  0
LINE
  8
0
 10
9.75952
 20
144.822
 11
8.66684
 21
145.363
  0
LINE
  8
0
 10
-13.6006
 20
150.135
 11
-11.8661
 21
151.176
  0
LINE
  8
0
 10
-11.8661
 20
151.176
 11
-11.8327
 21
151.523
  0
LINE
  8
0
 10
-11.8327
 20
151.523
 11
-12.2713
 21
151.664
  0
LINE
  8
0
 10
-12.2713
 20
151.664
 11
-13.2733
 21
151.143
  0
LINE
  8
0
 10
-13.2733
 20
151.143
 11
-12.5488
 21
153.372
  0
LINE
  8
0
 10
-12.5488
 20
153.372
 11
-11.8538
 21
153.414
  0
LINE
  8
0
 10
-11.8538
 20
153.414
 11
-10.8028
 21
152.965
  0
LINE
  8
0
 10
-10.8028
 20
152.965
 11
-10.0854
 21
151.507
  0
LINE
  8
0
 10
-10.0854
 20
151.507
 11
-10.2434
 21
150.592
  0
LINE
  8
0
 10
-10.2434
 20
150.592
 11
-10.8673
 21
149.735
  0
LINE
  8
0
 10
-10.8673
 20
149.735
 11
-14.3919
 21
147.7
  0
LINE
  8
0
 10
-14.3919
 20
147.7
 11
-13.6006
 21
150.135
  0
LINE
  8
0
 10
-7.17407
 20
134.17
 11
-16.013
 21
141.796
  0
LINE
  8
0
 10
-16.013
 20
141.796
 11
-15.2197
 21
143.169
  0
LINE
  8
0
 10
-15.2197
 20
143.169
 11
-6.13907
 21
135.486
  0
LINE
  8
0
 10
-6.13907
 20
135.486
 11
-4.96307
 21
137.364
  0
LINE
  8
0
 10
-4.96307
 20
137.364
 11
-4.97589
 21
137.366
  0
LINE
  8
0
 10
-4.97589
 20
137.366
 11
-6.83304
 21
138.434
  0
LINE
  8
0
 10
-6.83304
 20
138.434
 11
-5.9935
 21
139.889
  0
LINE
  8
0
 10
-5.9935
 20
139.889
 11
-4.54285
 21
139.137
  0
LINE
  8
0
 10
-4.54285
 20
139.137
 11
-4.22333
 21
139.192
  0
LINE
  8
0
 10
-4.22333
 20
139.192
 11
-4.07593
 21
139.447
  0
LINE
  8
0
 10
-4.07593
 20
139.447
 11
-4.18671
 21
139.748
  0
LINE
  8
0
 10
-4.18671
 20
139.748
 11
-8.38623
 21
142.078
  0
LINE
  8
0
 10
-8.38623
 20
142.078
 11
-8.70392
 21
141.934
  0
LINE
  8
0
 10
-8.70392
 20
141.934
 11
-8.60687
 21
141.483
  0
LINE
  8
0
 10
-8.60687
 20
141.483
 11
-7.16675
 21
140.566
  0
LINE
  8
0
 10
-7.16675
 20
140.566
 11
-8.00583
 21
139.113
  0
LINE
  8
0
 10
-8.00583
 20
139.113
 11
-9.90097
 21
140.319
  0
LINE
  8
0
 10
-9.90097
 20
140.319
 11
-10.3308
 21
140.968
  0
LINE
  8
0
 10
-10.3308
 20
140.968
 11
-10.4677
 21
142.105
  0
LINE
  8
0
 10
-10.4677
 20
142.105
 11
-9.5636
 21
143.455
  0
LINE
  8
0
 10
-9.5636
 20
143.455
 11
-8.69247
 21
143.775
  0
LINE
  8
0
 10
-8.69247
 20
143.775
 11
-7.63733
 21
143.663
  0
LINE
  8
0
 10
-7.63733
 20
143.663
 11
0.583191
 21
138.917
  0
LINE
  8
0
 10
0.583191
 20
138.917
 11
1.3028
 21
138.002
  0
LINE
  8
0
 10
1.3028
 20
138.002
 11
1.38153
 21
136.786
  0
LINE
  8
0
 10
1.38153
 20
136.786
 11
0.769501
 21
135.726
  0
LINE
  8
0
 10
0.769501
 20
135.726
 11
-0.180359
 21
135.221
  0
LINE
  8
0
 10
-0.180359
 20
135.221
 11
-1.4447
 21
135.297
  0
LINE
  8
0
 10
-1.4447
 20
135.297
 11
-2.06589
 21
135.898
  0
LINE
  8
0
 10
-2.06589
 20
135.898
 11
-1.39343
 21
137.063
  0
LINE
  8
0
 10
-1.39343
 20
137.063
 11
-0.505371
 21
136.915
  0
LINE
  8
0
 10
-0.505371
 20
136.915
 11
-0.330048
 21
137.012
  0
LINE
  8
0
 10
-0.330048
 20
137.012
 11
-0.248108
 21
137.232
  0
LINE
  8
0
 10
-0.248108
 20
137.232
 11
-0.325928
 21
137.522
  0
LINE
  8
0
 10
-0.325928
 20
137.522
 11
-2.50946
 21
138.782
  0
LINE
  8
0
 10
-2.50946
 20
138.782
 11
-3.04413
 21
137.715
  0
LINE
  8
0
 10
-3.04413
 20
137.715
 11
-4.10568
 21
137.262
  0
LINE
  8
0
 10
-4.10568
 20
137.262
 11
-4.54971
 21
137.314
  0
LINE
  8
0
 10
-4.54971
 20
137.314
 11
-3.44925
 21
136.679
  0
LINE
  8
0
 10
-3.44925
 20
136.679
 11
-5.46707
 21
133.185
  0
LINE
  8
0
 10
-5.46707
 20
133.185
 11
-7.17407
 21
134.17
  0
LINE
  8
0
 10
13.987
 20
141.796
 11
14.7803
 21
143.169
  0
LINE
  8
0
 10
14.7803
 20
143.169
 11
16.2749
 21
141.904
  0
LINE
  8
0
 10
16.2749
 20
141.904
 11
17.2151
 21
139.011
  0
LINE
  8
0
 10
17.2151
 20
139.011
 11
13.987
 21
141.796
  0
LINE
  8
0
 10
15.2243
 20
117.196
 11
17.3373
 21
128.902
  0
LINE
  8
0
 10
17.3373
 20
128.902
 11
15.1236
 21
128.981
  0
LINE
  8
0
 10
15.1236
 20
128.981
 11
15.1282
 21
128.97
  0
LINE
  8
0
 10
15.1282
 20
128.97
 11
15.1314
 21
126.827
  0
LINE
  8
0
 10
15.1314
 20
126.827
 11
13.4523
 21
126.827
  0
LINE
  8
0
 10
13.4523
 20
126.827
 11
13.3772
 21
128.459
  0
LINE
  8
0
 10
13.3772
 20
128.459
 11
13.1703
 21
128.708
  0
LINE
  8
0
 10
13.1703
 20
128.708
 11
12.876
 21
128.708
  0
LINE
  8
0
 10
12.876
 20
128.708
 11
12.6709
 21
128.462
  0
LINE
  8
0
 10
12.6709
 20
128.462
 11
12.7528
 21
123.66
  0
LINE
  8
0
 10
12.7528
 20
123.66
 11
13.0357
 21
123.458
  0
LINE
  8
0
 10
13.0357
 20
123.458
 11
13.3772
 21
123.766
  0
LINE
  8
0
 10
13.3772
 20
123.766
 11
13.4523
 21
125.472
  0
LINE
  8
0
 10
13.4523
 20
125.472
 11
15.1314
 21
125.472
  0
LINE
  8
0
 10
15.1314
 20
125.472
 11
15.0339
 21
123.227
  0
LINE
  8
0
 10
15.0339
 20
123.227
 11
14.6851
 21
122.53
  0
LINE
  8
0
 10
14.6851
 20
122.53
 11
13.7709
 21
121.844
  0
LINE
  8
0
 10
13.7709
 20
121.844
 11
12.149
 21
121.952
  0
LINE
  8
0
 10
12.149
 20
121.952
 11
11.4354
 21
122.547
  0
LINE
  8
0
 10
11.4354
 20
122.547
 11
11.0051
 21
123.515
  0
LINE
  8
0
 10
11.0051
 20
123.515
 11
11.0051
 21
133.008
  0
LINE
  8
0
 10
11.0051
 20
133.008
 11
11.4377
 21
134.09
  0
LINE
  8
0
 10
11.4377
 20
134.09
 11
12.4512
 21
134.765
  0
LINE
  8
0
 10
12.4512
 20
134.765
 11
13.6757
 21
134.765
  0
LINE
  8
0
 10
13.6757
 20
134.765
 11
14.5889
 21
134.194
  0
LINE
  8
0
 10
14.5889
 20
134.194
 11
15.1547
 21
133.062
  0
LINE
  8
0
 10
15.1547
 20
133.062
 11
14.9455
 21
132.223
  0
LINE
  8
0
 10
14.9455
 20
132.223
 11
13.5988
 21
132.223
  0
LINE
  8
0
 10
13.5988
 20
132.223
 11
13.2829
 21
133.067
  0
LINE
  8
0
 10
13.2829
 20
133.067
 11
13.1117
 21
133.17
  0
LINE
  8
0
 10
13.1117
 20
133.17
 11
12.881
 21
133.131
  0
LINE
  8
0
 10
12.881
 20
133.131
 11
12.6682
 21
132.918
  0
LINE
  8
0
 10
12.6682
 20
132.918
 11
12.6682
 21
130.398
  0
LINE
  8
0
 10
12.6682
 20
130.398
 11
13.8602
 21
130.468
  0
LINE
  8
0
 10
13.8602
 20
130.468
 11
14.7839
 21
129.775
  0
LINE
  8
0
 10
14.7839
 20
129.775
 11
14.9597
 21
129.365
  0
LINE
  8
0
 10
14.9597
 20
129.365
 11
14.9597
 21
130.635
  0
LINE
  8
0
 10
14.9597
 20
130.635
 11
18.9949
 21
130.635
  0
LINE
  8
0
 10
18.9949
 20
130.635
 11
18.9954
 21
128.663
  0
LINE
  8
0
 10
18.9954
 20
128.663
 11
16.8109
 21
117.196
  0
LINE
  8
0
 10
16.8109
 20
117.196
 11
15.2243
 21
117.196
  0
LINE
  8
0
 10
-14.7757
 20
117.196
 11
-12.6627
 21
128.902
  0
LINE
  8
0
 10
-12.6627
 20
128.902
 11
-14.8764
 21
128.981
  0
LINE
  8
0
 10
-14.8764
 20
128.981
 11
-14.8718
 21
128.97
  0
LINE
  8
0
 10
-14.8718
 20
128.97
 11
-14.8686
 21
126.827
  0
LINE
  8
0
 10
-14.8686
 20
126.827
 11
-16.5477
 21
126.827
  0
LINE
  8
0
 10
-16.5477
 20
126.827
 11
-16.6228
 21
128.459
  0
LINE
  8
0
 10
-16.6228
 20
128.459
 11
-16.8297
 21
128.708
  0
LINE
  8
0
 10
-16.8297
 20
128.708
 11
-17.124
 21
128.708
  0
LINE
  8
0
 10
-17.124
 20
128.708
 11
-17.3291
 21
128.462
  0
LINE
  8
0
 10
-17.3291
 20
128.462
 11
-17.2472
 21
123.66
  0
LINE
  8
0
 10
-17.2472
 20
123.66
 11
-16.9643
 21
123.458
  0
LINE
  8
0
 10
-16.9643
 20
123.458
 11
-16.6228
 21
123.766
  0
LINE
  8
0
 10
-16.6228
 20
123.766
 11
-16.5477
 21
125.472
  0
LINE
  8
0
 10
-16.5477
 20
125.472
 11
-14.8686
 21
125.472
  0
LINE
  8
0
 10
-14.8686
 20
125.472
 11
-14.9661
 21
123.227
  0
LINE
  8
0
 10
-14.9661
 20
123.227
 11
-15.3149
 21
122.53
  0
LINE
  8
0
 10
-15.3149
 20
122.53
 11
-16.2291
 21
121.844
  0
LINE
  8
0
 10
-16.2291
 20
121.844
 11
-17.851
 21
121.952
  0
LINE
  8
0
 10
-17.851
 20
121.952
 11
-18.5646
 21
122.547
  0
LINE
  8
0
 10
-18.5646
 20
122.547
 11
-18.9949
 21
123.515
  0
LINE
  8
0
 10
-18.9949
 20
123.515
 11
-18.9949
 21
133.008
  0
LINE
  8
0
 10
-18.9949
 20
133.008
 11
-18.5623
 21
134.09
  0
LINE
  8
0
 10
-18.5623
 20
134.09
 11
-17.5488
 21
134.765
  0
LINE
  8
0
 10
-17.5488
 20
134.765
 11
-16.3243
 21
134.765
  0
LINE
  8
0
 10
-16.3243
 20
134.765
 11
-15.4111
 21
134.194
  0
LINE
  8
0
 10
-15.4111
 20
134.194
 11
-14.8453
 21
133.062
  0
LINE
  8
0
 10
-14.8453
 20
133.062
 11
-15.0545
 21
132.223
  0
LINE
  8
0
 10
-15.0545
 20
132.223
 11
-16.4012
 21
132.223
  0
LINE
  8
0
 10
-16.4012
 20
132.223
 11
-16.7171
 21
133.067
  0
LINE
  8
0
 10
-16.7171
 20
133.067
 11
-16.8883
 21
133.17
  0
LINE
  8
0
 10
-16.8883
 20
133.17
 11
-17.119
 21
133.131
  0
LINE
  8
0
 10
-17.119
 20
133.131
 11
-17.3318
 21
132.918
  0
LINE
  8
0
 10
-17.3318
 20
132.918
 11
-17.3318
 21
130.398
  0
LINE
  8
0
 10
-17.3318
 20
130.398
 11
-16.1398
 21
130.468
  0
LINE
  8
0
 10
-16.1398
 20
130.468
 11
-15.2161
 21
129.775
  0
LINE
  8
0
 10
-15.2161
 20
129.775
 11
-15.0403
 21
129.365
  0
LINE
  8
0
 10
-15.0403
 20
129.365
 11
-15.0403
 21
130.635
  0
LINE
  8
0
 10
-15.0403
 20
130.635
 11
-11.0051
 21
130.635
  0
LINE
  8
0
 10
-11.0051
 20
130.635
 11
-11.0046
 21
128.663
  0
LINE
  8
0
 10
-11.0046
 20
128.663
 11
-13.1891
 21
117.196
  0
LINE
  8
0
 10
-13.1891
 20
117.196
 11
-14.7757
 21
117.196
  0
LINE
  8
0
 10
-6.33316
 20
119.382
 11
-6.94519
 21
120.441
  0
LINE
  8
0
 10
-6.94519
 20
120.441
 11
-6.90765
 21
121.519
  0
LINE
  8
0
 10
-6.90765
 20
121.519
 11
-6.20956
 21
122.575
  0
LINE
  8
0
 10
-6.20956
 20
122.575
 11
-5.37872
 21
122.813
  0
LINE
  8
0
 10
-5.37872
 20
122.813
 11
-4.70581
 21
121.646
  0
LINE
  8
0
 10
-4.70581
 20
121.646
 11
-5.27847
 21
120.951
  0
LINE
  8
0
 10
-5.27847
 20
120.951
 11
-5.28168
 21
120.752
  0
LINE
  8
0
 10
-5.28168
 20
120.752
 11
-5.1329
 21
120.571
  0
LINE
  8
0
 10
-5.1329
 20
120.571
 11
-4.84177
 21
120.493
  0
LINE
  8
0
 10
-4.84177
 20
120.493
 11
-2.65915
 21
121.753
  0
LINE
  8
0
 10
-2.65915
 20
121.753
 11
-3.31558
 21
122.749
  0
LINE
  8
0
 10
-3.31558
 20
122.749
 11
-3.17734
 21
123.898
  0
LINE
  8
0
 10
-3.17734
 20
123.898
 11
-2.91046
 21
124.254
  0
LINE
  8
0
 10
-2.91046
 20
124.254
 11
-4.01047
 21
123.619
  0
LINE
  8
0
 10
-4.01047
 20
123.619
 11
-6.02829
 21
127.113
  0
LINE
  8
0
 10
-6.02829
 20
127.113
 11
-4.32083
 21
128.099
  0
LINE
  8
0
 10
-4.32083
 20
128.099
 11
6.70258
 21
131.941
  0
LINE
  8
0
 10
6.70258
 20
131.941
 11
7.49496
 21
130.568
  0
LINE
  8
0
 10
7.49496
 20
130.568
 11
-3.69827
 21
126.544
  0
LINE
  8
0
 10
-3.69827
 20
126.544
 11
-2.66006
 21
124.588
  0
LINE
  8
0
 10
-2.66006
 20
124.588
 11
-2.6532
 21
124.597
  0
LINE
  8
0
 10
-2.6532
 20
124.597
 11
-0.797882
 21
125.672
  0
LINE
  8
0
 10
-0.797882
 20
125.672
 11
0.0411987
 21
124.218
  0
LINE
  8
0
 10
0.0411987
 20
124.218
 11
-1.33484
 21
123.337
  0
LINE
  8
0
 10
-1.33484
 20
123.337
 11
-1.44699
 21
123.033
  0
LINE
  8
0
 10
-1.44699
 20
123.033
 11
-1.30005
 21
122.778
  0
LINE
  8
0
 10
-1.30005
 20
122.778
 11
-0.984192
 21
122.723
  0
LINE
  8
0
 10
-0.984192
 20
122.723
 11
3.13385
 21
125.195
  0
LINE
  8
0
 10
3.13385
 20
125.195
 11
3.16727
 21
125.542
  0
LINE
  8
0
 10
3.16727
 20
125.542
 11
2.72873
 21
125.683
  0
LINE
  8
0
 10
2.72873
 20
125.683
 11
1.21445
 21
124.895
  0
LINE
  8
0
 10
1.21445
 20
124.895
 11
0.374451
 21
126.348
  0
LINE
  8
0
 10
0.374451
 20
126.348
 11
2.36664
 21
127.386
  0
LINE
  8
0
 10
2.36664
 20
127.386
 11
3.14621
 21
127.433
  0
LINE
  8
0
 10
3.14621
 20
127.433
 11
4.19724
 21
126.984
  0
LINE
  8
0
 10
4.19724
 20
126.984
 11
4.91455
 21
125.526
  0
LINE
  8
0
 10
4.91455
 20
125.526
 11
4.75662
 21
124.611
  0
LINE
  8
0
 10
4.75662
 20
124.611
 11
4.13269
 21
123.754
  0
LINE
  8
0
 10
4.13269
 20
123.754
 11
-4.08829
 21
119.008
  0
LINE
  8
0
 10
-4.08829
 20
119.008
 11
-5.24048
 21
118.842
  0
LINE
  8
0
 10
-5.24048
 20
118.842
 11
-6.33316
 21
119.382
  0
LINE
  8
0
 10
23.0548
 20
120.441
 11
23.0736
 21
120.98
  0
LINE
  8
0
 10
23.0736
 20
120.98
 11
23.498
 21
119.674
  0
LINE
  8
0
 10
23.498
 20
119.674
 11
23.0548
 21
120.441
  0
LINE
  8
0
 10
-22.1741
 20
108.189
 11
-26.1227
 21
111.596
  0
LINE
  8
0
 10
-26.1227
 20
111.596
 11
-25.5809
 21
113.263
  0
LINE
  8
0
 10
-25.5809
 20
113.263
 11
-21.1391
 21
109.505
  0
LINE
  8
0
 10
-21.1391
 20
109.505
 11
-19.9631
 21
111.383
  0
LINE
  8
0
 10
-19.9631
 20
111.383
 11
-19.9759
 21
111.385
  0
LINE
  8
0
 10
-19.9759
 20
111.385
 11
-21.833
 21
112.453
  0
LINE
  8
0
 10
-21.833
 20
112.453
 11
-20.9935
 21
113.908
  0
LINE
  8
0
 10
-20.9935
 20
113.908
 11
-19.5428
 21
113.156
  0
LINE
  8
0
 10
-19.5428
 20
113.156
 11
-19.2233
 21
113.212
  0
LINE
  8
0
 10
-19.2233
 20
113.212
 11
-19.0759
 21
113.466
  0
LINE
  8
0
 10
-19.0759
 20
113.466
 11
-19.1867
 21
113.767
  0
LINE
  8
0
 10
-19.1867
 20
113.767
 11
-23.3862
 21
116.097
  0
LINE
  8
0
 10
-23.3862
 20
116.097
 11
-23.7039
 21
115.953
  0
LINE
  8
0
 10
-23.7039
 20
115.953
 11
-23.6069
 21
115.503
  0
LINE
  8
0
 10
-23.6069
 20
115.503
 11
-22.1667
 21
114.585
  0
LINE
  8
0
 10
-22.1667
 20
114.585
 11
-23.0058
 21
113.132
  0
LINE
  8
0
 10
-23.0058
 20
113.132
 11
-24.901
 21
114.338
  0
LINE
  8
0
 10
-24.901
 20
114.338
 11
-25.1228
 21
114.673
  0
LINE
  8
0
 10
-25.1228
 20
114.673
 11
-24.1652
 21
117.621
  0
LINE
  8
0
 10
-24.1652
 20
117.621
 11
-23.6925
 21
117.794
  0
LINE
  8
0
 10
-23.6925
 20
117.794
 11
-22.6373
 21
117.682
  0
LINE
  8
0
 10
-22.6373
 20
117.682
 11
-14.4168
 21
112.936
  0
LINE
  8
0
 10
-14.4168
 20
112.936
 11
-13.6972
 21
112.021
  0
LINE
  8
0
 10
-13.6972
 20
112.021
 11
-13.6185
 21
110.805
  0
LINE
  8
0
 10
-13.6185
 20
110.805
 11
-14.2305
 21
109.745
  0
LINE
  8
0
 10
-14.2305
 20
109.745
 11
-15.1804
 21
109.24
  0
LINE
  8
0
 10
-15.1804
 20
109.24
 11
-16.4447
 21
109.316
  0
LINE
  8
0
 10
-16.4447
 20
109.316
 11
-17.0659
 21
109.917
  0
LINE
  8
0
 10
-17.0659
 20
109.917
 11
-16.3934
 21
111.082
  0
LINE
  8
0
 10
-16.3934
 20
111.082
 11
-15.5054
 21
110.934
  0
LINE
  8
0
 10
-15.5054
 20
110.934
 11
-15.33
 21
111.031
  0
LINE
  8
0
 10
-15.33
 20
111.031
 11
-15.2481
 21
111.251
  0
LINE
  8
0
 10
-15.2481
 20
111.251
 11
-15.3259
 21
111.541
  0
LINE
  8
0
 10
-15.3259
 20
111.541
 11
-17.5095
 21
112.801
  0
LINE
  8
0
 10
-17.5095
 20
112.801
 11
-18.0441
 21
111.734
  0
LINE
  8
0
 10
-18.0441
 20
111.734
 11
-19.1057
 21
111.281
  0
LINE
  8
0
 10
-19.1057
 20
111.281
 11
-19.5497
 21
111.333
  0
LINE
  8
0
 10
-19.5497
 20
111.333
 11
-18.4492
 21
110.698
  0
LINE
  8
0
 10
-18.4492
 20
110.698
 11
-20.4671
 21
107.204
  0
LINE
  8
0
 10
-20.4671
 20
107.204
 11
-22.1741
 21
108.189
  0
LINE
  8
0
 10
7.82593
 20
108.189
 11
-1.01303
 21
115.815
  0
LINE
  8
0
 10
-1.01303
 20
115.815
 11
-0.219727
 21
117.188
  0
LINE
  8
0
 10
-0.219727
 20
117.188
 11
8.86093
 21
109.505
  0
LINE
  8
0
 10
8.86093
 20
109.505
 11
10.0369
 21
111.383
  0
LINE
  8
0
 10
10.0369
 20
111.383
 11
10.0241
 21
111.385
  0
LINE
  8
0
 10
10.0241
 20
111.385
 11
8.16696
 21
112.453
  0
LINE
  8
0
 10
8.16696
 20
112.453
 11
9.0065
 21
113.908
  0
LINE
  8
0
 10
9.0065
 20
113.908
 11
10.4572
 21
113.156
  0
LINE
  8
0
 10
10.4572
 20
113.156
 11
10.7767
 21
113.212
  0
LINE
  8
0
 10
10.7767
 20
113.212
 11
10.9241
 21
113.466
  0
LINE
  8
0
 10
10.9241
 20
113.466
 11
10.8133
 21
113.767
  0
LINE
  8
0
 10
10.8133
 20
113.767
 11
6.61377
 21
116.097
  0
LINE
  8
0
 10
6.61377
 20
116.097
 11
6.29608
 21
115.953
  0
LINE
  8
0
 10
6.29608
 20
115.953
 11
6.39313
 21
115.503
  0
LINE
  8
0
 10
6.39313
 20
115.503
 11
7.83325
 21
114.585
  0
LINE
  8
0
 10
7.83325
 20
114.585
 11
6.99417
 21
113.132
  0
LINE
  8
0
 10
6.99417
 20
113.132
 11
5.09903
 21
114.338
  0
LINE
  8
0
 10
5.09903
 20
114.338
 11
4.66919
 21
114.988
  0
LINE
  8
0
 10
4.66919
 20
114.988
 11
4.53232
 21
116.124
  0
LINE
  8
0
 10
4.53232
 20
116.124
 11
5.4364
 21
117.474
  0
LINE
  8
0
 10
5.4364
 20
117.474
 11
6.30753
 21
117.794
  0
LINE
  8
0
 10
6.30753
 20
117.794
 11
7.36267
 21
117.682
  0
LINE
  8
0
 10
7.36267
 20
117.682
 11
15.5832
 21
112.936
  0
LINE
  8
0
 10
15.5832
 20
112.936
 11
16.3028
 21
112.021
  0
LINE
  8
0
 10
16.3028
 20
112.021
 11
16.3815
 21
110.805
  0
LINE
  8
0
 10
16.3815
 20
110.805
 11
15.7695
 21
109.745
  0
LINE
  8
0
 10
15.7695
 20
109.745
 11
14.8196
 21
109.24
  0
LINE
  8
0
 10
14.8196
 20
109.24
 11
13.5553
 21
109.316
  0
LINE
  8
0
 10
13.5553
 20
109.316
 11
12.9341
 21
109.917
  0
LINE
  8
0
 10
12.9341
 20
109.917
 11
13.6066
 21
111.082
  0
LINE
  8
0
 10
13.6066
 20
111.082
 11
14.4946
 21
110.934
  0
LINE
  8
0
 10
14.4946
 20
110.934
 11
14.67
 21
111.031
  0
LINE
  8
0
 10
14.67
 20
111.031
 11
14.7519
 21
111.251
  0
LINE
  8
0
 10
14.7519
 20
111.251
 11
14.6741
 21
111.541
  0
LINE
  8
0
 10
14.6741
 20
111.541
 11
12.4905
 21
112.801
  0
LINE
  8
0
 10
12.4905
 20
112.801
 11
11.9559
 21
111.734
  0
LINE
  8
0
 10
11.9559
 20
111.734
 11
10.8943
 21
111.281
  0
LINE
  8
0
 10
10.8943
 20
111.281
 11
10.4503
 21
111.333
  0
LINE
  8
0
 10
10.4503
 20
111.333
 11
11.5508
 21
110.698
  0
LINE
  8
0
 10
11.5508
 20
110.698
 11
9.53293
 21
107.204
  0
LINE
  8
0
 10
9.53293
 20
107.204
 11
7.82593
 21
108.189
  0
LINE
  8
0
 10
0.224304
 20
91.2155
 11
2.33734
 21
102.921
  0
LINE
  8
0
 10
2.33734
 20
102.921
 11
0.123596
 21
103
  0
LINE
  8
0
 10
0.123596
 20
103
 11
0.128174
 21
102.99
  0
LINE
  8
0
 10
0.128174
 20
102.99
 11
0.131378
 21
100.846
  0
LINE
  8
0
 10
0.131378
 20
100.846
 11
-1.5477
 21
100.846
  0
LINE
  8
0
 10
-1.5477
 20
100.846
 11
-1.62277
 21
102.478
  0
LINE
  8
0
 10
-1.62277
 20
102.478
 11
-1.82968
 21
102.727
  0
LINE
  8
0
 10
-1.82968
 20
102.727
 11
-2.12402
 21
102.727
  0
LINE
  8
0
 10
-2.12402
 20
102.727
 11
-2.3291
 21
102.481
  0
LINE
  8
0
 10
-2.3291
 20
102.481
 11
-2.24716
 21
97.6791
  0
LINE
  8
0
 10
-2.24716
 20
97.6791
 11
-1.96426
 21
97.4768
  0
LINE
  8
0
 10
-1.96426
 20
97.4768
 11
-1.62277
 21
97.7853
  0
LINE
  8
0
 10
-1.62277
 20
97.7853
 11
-1.5477
 21
99.4914
  0
LINE
  8
0
 10
-1.5477
 20
99.4914
 11
0.131378
 21
99.4914
  0
LINE
  8
0
 10
0.131378
 20
99.4914
 11
0.0338745
 21
97.2466
  0
LINE
  8
0
 10
0.0338745
 20
97.2466
 11
-0.314941
 21
96.5489
  0
LINE
  8
0
 10
-0.314941
 20
96.5489
 11
-1.2291
 21
95.8632
  0
LINE
  8
0
 10
-1.2291
 20
95.8632
 11
-2.85095
 21
95.9712
  0
LINE
  8
0
 10
-2.85095
 20
95.9712
 11
-3.56461
 21
96.5659
  0
LINE
  8
0
 10
-3.56461
 20
96.5659
 11
-3.9949
 21
97.534
  0
LINE
  8
0
 10
-3.9949
 20
97.534
 11
-3.9949
 21
107.027
  0
LINE
  8
0
 10
-3.9949
 20
107.027
 11
-3.56232
 21
108.109
  0
LINE
  8
0
 10
-3.56232
 20
108.109
 11
-2.54883
 21
108.784
  0
LINE
  8
0
 10
-2.54883
 20
108.784
 11
-1.32431
 21
108.784
  0
LINE
  8
0
 10
-1.32431
 20
108.784
 11
-0.411072
 21
108.214
  0
LINE
  8
0
 10
-0.411072
 20
108.214
 11
0.154724
 21
107.081
  0
LINE
  8
0
 10
0.154724
 20
107.081
 11
-0.0544739
 21
106.243
  0
LINE
  8
0
 10
-0.0544739
 20
106.243
 11
-1.40121
 21
106.243
  0
LINE
  8
0
 10
-1.40121
 20
106.243
 11
-1.71707
 21
107.086
  0
LINE
  8
0
 10
-1.71707
 20
107.086
 11
-1.88828
 21
107.189
  0
LINE
  8
0
 10
-1.88828
 20
107.189
 11
-2.11899
 21
107.15
  0
LINE
  8
0
 10
-2.11899
 20
107.15
 11
-2.33185
 21
106.937
  0
LINE
  8
0
 10
-2.33185
 20
106.937
 11
-2.33185
 21
104.417
  0
LINE
  8
0
 10
-2.33185
 20
104.417
 11
-1.13983
 21
104.487
  0
LINE
  8
0
 10
-1.13983
 20
104.487
 11
-0.216064
 21
103.794
  0
LINE
  8
0
 10
-0.216064
 20
103.794
 11
-0.0402832
 21
103.384
  0
LINE
  8
0
 10
-0.0402832
 20
103.384
 11
-0.0402832
 21
104.654
  0
LINE
  8
0
 10
-0.0402832
 20
104.654
 11
3.9949
 21
104.654
  0
LINE
  8
0
 10
3.9949
 20
104.654
 11
3.99536
 21
102.682
  0
LINE
  8
0
 10
3.99536
 20
102.682
 11
1.81091
 21
91.2155
  0
LINE
  8
0
 10
1.81091
 20
91.2155
 11
0.224304
 21
91.2155
  0
LINE
  8
0
 10
27.149
 20
95.9712
 11
26.4354
 21
96.5659
  0
LINE
  8
0
 10
26.4354
 20
96.5659
 11
26.0051
 21
97.534
  0
LINE
  8
0
 10
26.0051
 20
97.534
 11
26.0051
 21
107.027
  0
LINE
  8
0
 10
26.0051
 20
107.027
 11
26.4377
 21
108.109
  0
LINE
  8
0
 10
26.4377
 20
108.109
 11
27.1101
 21
108.557
  0
LINE
  8
0
 10
27.1101
 20
108.557
 11
27.6682
 21
106.84
  0
LINE
  8
0
 10
27.6682
 20
106.84
 11
27.6682
 21
104.417
  0
LINE
  8
0
 10
27.6682
 20
104.417
 11
28.4406
 21
104.462
  0
LINE
  8
0
 10
28.4406
 20
104.462
 11
29.6156
 21
100.846
  0
LINE
  8
0
 10
29.6156
 20
100.846
 11
28.4523
 21
100.846
  0
LINE
  8
0
 10
28.4523
 20
100.846
 11
28.3772
 21
102.478
  0
LINE
  8
0
 10
28.3772
 20
102.478
 11
28.1703
 21
102.727
  0
LINE
  8
0
 10
28.1703
 20
102.727
 11
27.876
 21
102.727
  0
LINE
  8
0
 10
27.876
 20
102.727
 11
27.6709
 21
102.481
  0
LINE
  8
0
 10
27.6709
 20
102.481
 11
27.7528
 21
97.6791
  0
LINE
  8
0
 10
27.7528
 20
97.6791
 11
28.0357
 21
97.4768
  0
LINE
  8
0
 10
28.0357
 20
97.4768
 11
28.3772
 21
97.7853
  0
LINE
  8
0
 10
28.3772
 20
97.7853
 11
28.4523
 21
99.4914
  0
LINE
  8
0
 10
28.4523
 20
99.4914
 11
30.0557
 21
99.4914
  0
LINE
  8
0
 10
30.0557
 20
99.4914
 11
30.1225
 21
99.2861
  0
LINE
  8
0
 10
30.1225
 20
99.2861
 11
30.0339
 21
97.2466
  0
LINE
  8
0
 10
30.0339
 20
97.2466
 11
29.6851
 21
96.5489
  0
LINE
  8
0
 10
29.6851
 20
96.5489
 11
28.7709
 21
95.8632
  0
LINE
  8
0
 10
28.7709
 20
95.8632
 11
27.149
 21
95.9712
  0
LINE
  8
0
 10
-21.3332
 20
93.4009
 11
-21.9452
 21
94.4606
  0
LINE
  8
0
 10
-21.9452
 20
94.4606
 11
-21.9077
 21
95.5377
  0
LINE
  8
0
 10
-21.9077
 20
95.5377
 11
-21.2096
 21
96.5942
  0
LINE
  8
0
 10
-21.2096
 20
96.5942
 11
-20.3787
 21
96.8318
  0
LINE
  8
0
 10
-20.3787
 20
96.8318
 11
-19.7058
 21
95.6654
  0
LINE
  8
0
 10
-19.7058
 20
95.6654
 11
-20.2785
 21
94.9701
  0
LINE
  8
0
 10
-20.2785
 20
94.9701
 11
-20.2817
 21
94.771
  0
LINE
  8
0
 10
-20.2817
 20
94.771
 11
-20.1329
 21
94.5901
  0
LINE
  8
0
 10
-20.1329
 20
94.5901
 11
-19.8418
 21
94.5123
  0
LINE
  8
0
 10
-19.8418
 20
94.5123
 11
-17.6591
 21
95.7726
  0
LINE
  8
0
 10
-17.6591
 20
95.7726
 11
-18.3156
 21
96.7686
  0
LINE
  8
0
 10
-18.3156
 20
96.7686
 11
-18.1773
 21
97.9172
  0
LINE
  8
0
 10
-18.1773
 20
97.9172
 11
-17.9105
 21
98.2733
  0
LINE
  8
0
 10
-17.9105
 20
98.2733
 11
-19.0105
 21
97.6379
  0
LINE
  8
0
 10
-19.0105
 20
97.6379
 11
-21.0283
 21
101.133
  0
LINE
  8
0
 10
-21.0283
 20
101.133
 11
-19.3208
 21
102.118
  0
LINE
  8
0
 10
-19.3208
 20
102.118
 11
-8.29742
 21
105.96
  0
LINE
  8
0
 10
-8.29742
 20
105.96
 11
-7.50504
 21
104.587
  0
LINE
  8
0
 10
-7.50504
 20
104.587
 11
-18.6983
 21
100.564
  0
LINE
  8
0
 10
-18.6983
 20
100.564
 11
-17.6601
 21
98.607
  0
LINE
  8
0
 10
-17.6601
 20
98.607
 11
-17.6532
 21
98.6162
  0
LINE
  8
0
 10
-17.6532
 20
98.6162
 11
-15.7979
 21
99.691
  0
LINE
  8
0
 10
-15.7979
 20
99.691
 11
-14.9588
 21
98.2372
  0
LINE
  8
0
 10
-14.9588
 20
98.2372
 11
-16.3348
 21
97.356
  0
LINE
  8
0
 10
-16.3348
 20
97.356
 11
-16.447
 21
97.052
  0
LINE
  8
0
 10
-16.447
 20
97.052
 11
-16.3
 21
96.797
  0
LINE
  8
0
 10
-16.3
 20
96.797
 11
-15.9842
 21
96.7426
  0
LINE
  8
0
 10
-15.9842
 20
96.7426
 11
-11.8661
 21
99.2145
  0
LINE
  8
0
 10
-11.8661
 20
99.2145
 11
-11.8327
 21
99.5615
  0
LINE
  8
0
 10
-11.8327
 20
99.5615
 11
-12.2713
 21
99.7025
  0
LINE
  8
0
 10
-12.2713
 20
99.7025
 11
-13.7856
 21
98.9142
  0
LINE
  8
0
 10
-13.7856
 20
98.9142
 11
-14.6255
 21
100.368
  0
LINE
  8
0
 10
-14.6255
 20
100.368
 11
-12.6334
 21
101.405
  0
LINE
  8
0
 10
-12.6334
 20
101.405
 11
-11.8538
 21
101.452
  0
LINE
  8
0
 10
-11.8538
 20
101.452
 11
-10.8028
 21
101.003
  0
LINE
  8
0
 10
-10.8028
 20
101.003
 11
-10.0854
 21
99.5454
  0
LINE
  8
0
 10
-10.0854
 20
99.5454
 11
-10.2434
 21
98.6304
  0
LINE
  8
0
 10
-10.2434
 20
98.6304
 11
-10.8673
 21
97.773
  0
LINE
  8
0
 10
-10.8673
 20
97.773
 11
-19.0883
 21
93.0269
  0
LINE
  8
0
 10
-19.0883
 20
93.0269
 11
-20.2405
 21
92.8607
  0
LINE
  8
0
 10
-20.2405
 20
92.8607
 11
-21.3332
 21
93.4009
  0
LINE
  8
0
 10
8.66684
 20
93.4009
 11
8.05481
 21
94.4606
  0
LINE
  8
0
 10
8.05481
 20
94.4606
 11
8.09235
 21
95.5377
  0
LINE
  8
0
 10
8.09235
 20
95.5377
 11
8.79044
 21
96.5942
  0
LINE
  8
0
 10
8.79044
 20
96.5942
 11
9.62128
 21
96.8318
  0
LINE
  8
0
 10
9.62128
 20
96.8318
 11
10.2942
 21
95.6654
  0
LINE
  8
0
 10
10.2942
 20
95.6654
 11
9.72153
 21
94.9701
  0
LINE
  8
0
 10
9.72153
 20
94.9701
 11
9.71832
 21
94.771
  0
LINE
  8
0
 10
9.71832
 20
94.771
 11
9.8671
 21
94.5901
  0
LINE
  8
0
 10
9.8671
 20
94.5901
 11
10.1582
 21
94.5123
  0
LINE
  8
0
 10
10.1582
 20
94.5123
 11
12.3409
 21
95.7726
  0
LINE
  8
0
 10
12.3409
 20
95.7726
 11
11.6844
 21
96.7686
  0
LINE
  8
0
 10
11.6844
 20
96.7686
 11
11.8227
 21
97.9172
  0
LINE
  8
0
 10
11.8227
 20
97.9172
 11
12.0895
 21
98.2733
  0
LINE
  8
0
 10
12.0895
 20
98.2733
 11
10.9895
 21
97.6379
  0
LINE
  8
0
 10
10.9895
 20
97.6379
 11
8.97171
 21
101.133
  0
LINE
  8
0
 10
8.97171
 20
101.133
 11
10.6792
 21
102.118
  0
LINE
  8
0
 10
10.6792
 20
102.118
 11
21.7026
 21
105.96
  0
LINE
  8
0
 10
21.7026
 20
105.96
 11
22.495
 21
104.587
  0
LINE
  8
0
 10
22.495
 20
104.587
 11
11.3017
 21
100.564
  0
LINE
  8
0
 10
11.3017
 20
100.564
 11
12.3399
 21
98.607
  0
LINE
  8
0
 10
12.3399
 20
98.607
 11
12.3468
 21
98.6162
  0
LINE
  8
0
 10
12.3468
 20
98.6162
 11
14.2021
 21
99.691
  0
LINE
  8
0
 10
14.2021
 20
99.691
 11
15.0412
 21
98.2372
  0
LINE
  8
0
 10
15.0412
 20
98.2372
 11
13.6652
 21
97.356
  0
LINE
  8
0
 10
13.6652
 20
97.356
 11
13.553
 21
97.052
  0
LINE
  8
0
 10
13.553
 20
97.052
 11
13.7
 21
96.797
  0
LINE
  8
0
 10
13.7
 20
96.797
 11
14.0158
 21
96.7426
  0
LINE
  8
0
 10
14.0158
 20
96.7426
 11
18.1339
 21
99.2145
  0
LINE
  8
0
 10
18.1339
 20
99.2145
 11
18.1673
 21
99.5615
  0
LINE
  8
0
 10
18.1673
 20
99.5615
 11
17.7287
 21
99.7025
  0
LINE
  8
0
 10
17.7287
 20
99.7025
 11
16.2144
 21
98.9142
  0
LINE
  8
0
 10
16.2144
 20
98.9142
 11
15.3745
 21
100.368
  0
LINE
  8
0
 10
15.3745
 20
100.368
 11
17.3666
 21
101.405
  0
LINE
  8
0
 10
17.3666
 20
101.405
 11
18.1462
 21
101.452
  0
LINE
  8
0
 10
18.1462
 20
101.452
 11
19.1972
 21
101.003
  0
LINE
  8
0
 10
19.1972
 20
101.003
 11
19.9146
 21
99.5454
  0
LINE
  8
0
 10
19.9146
 20
99.5454
 11
19.7566
 21
98.6304
  0
LINE
  8
0
 10
19.7566
 20
98.6304
 11
19.1327
 21
97.773
  0
LINE
  8
0
 10
19.1327
 20
97.773
 11
10.9117
 21
93.0269
  0
LINE
  8
0
 10
10.9117
 20
93.0269
 11
9.75952
 21
92.8607
  0
LINE
  8
0
 10
9.75952
 20
92.8607
 11
8.66684
 21
93.4009
  0
LINE
  8
0
 10
-29.7757
 20
91.2155
 11
-27.6627
 21
102.921
  0
LINE
  8
0
 10
-27.6627
 20
102.921
 11
-28.9267
 21
102.966
  0
LINE
  8
0
 10
-28.9267
 20
102.966
 11
-28.3783
 21
104.654
  0
LINE
  8
0
 10
-28.3783
 20
104.654
 11
-26.0051
 21
104.654
  0
LINE
  8
0
 10
-26.0051
 20
104.654
 11
-26.0046
 21
102.682
  0
LINE
  8
0
 10
-26.0046
 20
102.682
 11
-28.1891
 21
91.2155
  0
LINE
  8
0
 10
-28.1891
 20
91.2155
 11
-29.7757
 21
91.2155
  0
LINE
  8
0
 10
-31.2345
 20
95.8636
 11
-30.0557
 21
99.4914
  0
LINE
  8
0
 10
-30.0557
 20
99.4914
 11
-29.8686
 21
99.4914
  0
LINE
  8
0
 10
-29.8686
 20
99.4914
 11
-29.9661
 21
97.2466
  0
LINE
  8
0
 10
-29.9661
 20
97.2466
 11
-30.3149
 21
96.5489
  0
LINE
  8
0
 10
-30.3149
 20
96.5489
 11
-31.2291
 21
95.8632
  0
LINE
  8
0
 10
-31.2291
 20
95.8632
 11
-31.2345
 21
95.8636
  0
LINE
  8
0
 10
30.2243
 20
91.2155
 11
31.1245
 21
96.2021
  0
LINE
  8
0
 10
31.1245
 20
96.2021
 11
32.1561
 21
93.0273
  0
LINE
  8
0
 10
32.1561
 20
93.0273
 11
31.8109
 21
91.2155
  0
LINE
  8
0
 10
31.8109
 20
91.2155
 11
30.2243
 21
91.2155
  0
LINE
  8
0
 10
-7.17407
 20
82.2086
 11
-16.013
 21
89.834
  0
LINE
  8
0
 10
-16.013
 20
89.834
 11
-15.2197
 21
91.2073
  0
LINE
  8
0
 10
-15.2197
 20
91.2073
 11
-6.13907
 21
83.5246
  0
LINE
  8
0
 10
-6.13907
 20
83.5246
 11
-4.96307
 21
85.4024
  0
LINE
  8
0
 10
-4.96307
 20
85.4024
 11
-4.97589
 21
85.4042
  0
LINE
  8
0
 10
-4.97589
 20
85.4042
 11
-6.83304
 21
86.4726
  0
LINE
  8
0
 10
-6.83304
 20
86.4726
 11
-5.9935
 21
87.9269
  0
LINE
  8
0
 10
-5.9935
 20
87.9269
 11
-4.54285
 21
87.1753
  0
LINE
  8
0
 10
-4.54285
 20
87.1753
 11
-4.22333
 21
87.2307
  0
LINE
  8
0
 10
-4.22333
 20
87.2307
 11
-4.07593
 21
87.4857
  0
LINE
  8
0
 10
-4.07593
 20
87.4857
 11
-4.18671
 21
87.7864
  0
LINE
  8
0
 10
-4.18671
 20
87.7864
 11
-8.38623
 21
90.1164
  0
LINE
  8
0
 10
-8.38623
 20
90.1164
 11
-8.70392
 21
89.9722
  0
LINE
  8
0
 10
-8.70392
 20
89.9722
 11
-8.60687
 21
89.5218
  0
LINE
  8
0
 10
-8.60687
 20
89.5218
 11
-7.16675
 21
88.604
  0
LINE
  8
0
 10
-7.16675
 20
88.604
 11
-8.00583
 21
87.151
  0
LINE
  8
0
 10
-8.00583
 20
87.151
 11
-9.90097
 21
88.3572
  0
LINE
  8
0
 10
-9.90097
 20
88.3572
 11
-10.3308
 21
89.0068
  0
LINE
  8
0
 10
-10.3308
 20
89.0068
 11
-10.4677
 21
90.1434
  0
LINE
  8
0
 10
-10.4677
 20
90.1434
 11
-9.5636
 21
91.4934
  0
LINE
  8
0
 10
-9.5636
 20
91.4934
 11
-8.69247
 21
91.8134
  0
LINE
  8
0
 10
-8.69247
 20
91.8134
 11
-7.63733
 21
91.7017
  0
LINE
  8
0
 10
-7.63733
 20
91.7017
 11
0.583191
 21
86.9556
  0
LINE
  8
0
 10
0.583191
 20
86.9556
 11
1.3028
 21
86.04
  0
LINE
  8
0
 10
1.3028
 20
86.04
 11
1.38153
 21
84.8242
  0
LINE
  8
0
 10
1.38153
 20
84.8242
 11
0.769501
 21
83.7645
  0
LINE
  8
0
 10
0.769501
 20
83.7645
 11
-0.180359
 21
83.2591
  0
LINE
  8
0
 10
-0.180359
 20
83.2591
 11
-1.4447
 21
83.3356
  0
LINE
  8
0
 10
-1.4447
 20
83.3356
 11
-2.06589
 21
83.9362
  0
LINE
  8
0
 10
-2.06589
 20
83.9362
 11
-1.39343
 21
85.1016
  0
LINE
  8
0
 10
-1.39343
 20
85.1016
 11
-0.505371
 21
84.9533
  0
LINE
  8
0
 10
-0.505371
 20
84.9533
 11
-0.330048
 21
85.0504
  0
LINE
  8
0
 10
-0.330048
 20
85.0504
 11
-0.248108
 21
85.2701
  0
LINE
  8
0
 10
-0.248108
 20
85.2701
 11
-0.325928
 21
85.5603
  0
LINE
  8
0
 10
-0.325928
 20
85.5603
 11
-2.50946
 21
86.8201
  0
LINE
  8
0
 10
-2.50946
 20
86.8201
 11
-3.04413
 21
85.7535
  0
LINE
  8
0
 10
-3.04413
 20
85.7535
 11
-4.10568
 21
85.2998
  0
LINE
  8
0
 10
-4.10568
 20
85.2998
 11
-4.54971
 21
85.3525
  0
LINE
  8
0
 10
-4.54971
 20
85.3525
 11
-3.44925
 21
84.7176
  0
LINE
  8
0
 10
-3.44925
 20
84.7176
 11
-5.46707
 21
81.223
  0
LINE
  8
0
 10
-5.46707
 20
81.223
 11
-7.17407
 21
82.2086
  0
LINE
  8
0
 10
22.8259
 20
82.2086
 11
13.987
 21
89.834
  0
LINE
  8
0
 10
13.987
 20
89.834
 11
14.7803
 21
91.2073
  0
LINE
  8
0
 10
14.7803
 20
91.2073
 11
23.8609
 21
83.5246
  0
LINE
  8
0
 10
23.8609
 20
83.5246
 11
25.0369
 21
85.4024
  0
LINE
  8
0
 10
25.0369
 20
85.4024
 11
25.0241
 21
85.4042
  0
LINE
  8
0
 10
25.0241
 20
85.4042
 11
23.167
 21
86.4726
  0
LINE
  8
0
 10
23.167
 20
86.4726
 11
24.0065
 21
87.9269
  0
LINE
  8
0
 10
24.0065
 20
87.9269
 11
25.4572
 21
87.1753
  0
LINE
  8
0
 10
25.4572
 20
87.1753
 11
25.7767
 21
87.2307
  0
LINE
  8
0
 10
25.7767
 20
87.2307
 11
25.9241
 21
87.4857
  0
LINE
  8
0
 10
25.9241
 20
87.4857
 11
25.8133
 21
87.7864
  0
LINE
  8
0
 10
25.8133
 20
87.7864
 11
21.6138
 21
90.1164
  0
LINE
  8
0
 10
21.6138
 20
90.1164
 11
21.2961
 21
89.9722
  0
LINE
  8
0
 10
21.2961
 20
89.9722
 11
21.3931
 21
89.5218
  0
LINE
  8
0
 10
21.3931
 20
89.5218
 11
22.8333
 21
88.604
  0
LINE
  8
0
 10
22.8333
 20
88.604
 11
21.9942
 21
87.151
  0
LINE
  8
0
 10
21.9942
 20
87.151
 11
20.099
 21
88.3572
  0
LINE
  8
0
 10
20.099
 20
88.3572
 11
19.6692
 21
89.0068
  0
LINE
  8
0
 10
19.6692
 20
89.0068
 11
19.5323
 21
90.1434
  0
LINE
  8
0
 10
19.5323
 20
90.1434
 11
20.4364
 21
91.4934
  0
LINE
  8
0
 10
20.4364
 20
91.4934
 11
21.3075
 21
91.8134
  0
LINE
  8
0
 10
21.3075
 20
91.8134
 11
22.3627
 21
91.7017
  0
LINE
  8
0
 10
22.3627
 20
91.7017
 11
30.5832
 21
86.9556
  0
LINE
  8
0
 10
30.5832
 20
86.9556
 11
31.3028
 21
86.04
  0
LINE
  8
0
 10
31.3028
 20
86.04
 11
31.3815
 21
84.8242
  0
LINE
  8
0
 10
31.3815
 20
84.8242
 11
30.7695
 21
83.7645
  0
LINE
  8
0
 10
30.7695
 20
83.7645
 11
29.8196
 21
83.2591
  0
LINE
  8
0
 10
29.8196
 20
83.2591
 11
28.5553
 21
83.3356
  0
LINE
  8
0
 10
28.5553
 20
83.3356
 11
27.9341
 21
83.9362
  0
LINE
  8
0
 10
27.9341
 20
83.9362
 11
28.6066
 21
85.1016
  0
LINE
  8
0
 10
28.6066
 20
85.1016
 11
29.4946
 21
84.9533
  0
LINE
  8
0
 10
29.4946
 20
84.9533
 11
29.67
 21
85.0504
  0
LINE
  8
0
 10
29.67
 20
85.0504
 11
29.7519
 21
85.2701
  0
LINE
  8
0
 10
29.7519
 20
85.2701
 11
29.6741
 21
85.5603
  0
LINE
  8
0
 10
29.6741
 20
85.5603
 11
27.4905
 21
86.8201
  0
LINE
  8
0
 10
27.4905
 20
86.8201
 11
26.9559
 21
85.7535
  0
LINE
  8
0
 10
26.9559
 20
85.7535
 11
25.8943
 21
85.2998
  0
LINE
  8
0
 10
25.8943
 20
85.2998
 11
25.4503
 21
85.3525
  0
LINE
  8
0
 10
25.4503
 20
85.3525
 11
26.5508
 21
84.7176
  0
LINE
  8
0
 10
26.5508
 20
84.7176
 11
24.5329
 21
81.223
  0
LINE
  8
0
 10
24.5329
 20
81.223
 11
22.8259
 21
82.2086
  0
LINE
  8
0
 10
-35.9087
 20
81.478
 11
-33.3846
 21
89.2463
  0
LINE
  8
0
 10
-33.3846
 20
89.2463
 11
-29.4168
 21
86.9556
  0
LINE
  8
0
 10
-29.4168
 20
86.9556
 11
-28.6972
 21
86.04
  0
LINE
  8
0
 10
-28.6972
 20
86.04
 11
-28.6185
 21
84.8242
  0
LINE
  8
0
 10
-28.6185
 20
84.8242
 11
-29.2305
 21
83.7645
  0
LINE
  8
0
 10
-29.2305
 20
83.7645
 11
-30.1804
 21
83.2591
  0
LINE
  8
0
 10
-30.1804
 20
83.2591
 11
-31.4447
 21
83.3356
  0
LINE
  8
0
 10
-31.4447
 20
83.3356
 11
-32.0659
 21
83.9362
  0
LINE
  8
0
 10
-32.0659
 20
83.9362
 11
-31.3934
 21
85.1016
  0
LINE
  8
0
 10
-31.3934
 20
85.1016
 11
-30.5054
 21
84.9533
  0
LINE
  8
0
 10
-30.5054
 20
84.9533
 11
-30.33
 21
85.0504
  0
LINE
  8
0
 10
-30.33
 20
85.0504
 11
-30.2481
 21
85.2701
  0
LINE
  8
0
 10
-30.2481
 20
85.2701
 11
-30.3259
 21
85.5603
  0
LINE
  8
0
 10
-30.3259
 20
85.5603
 11
-32.5095
 21
86.8201
  0
LINE
  8
0
 10
-32.5095
 20
86.8201
 11
-33.0441
 21
85.7535
  0
LINE
  8
0
 10
-33.0441
 20
85.7535
 11
-34.1057
 21
85.2998
  0
LINE
  8
0
 10
-34.1057
 20
85.2998
 11
-34.5497
 21
85.3525
  0
LINE
  8
0
 10
-34.5497
 20
85.3525
 11
-33.4492
 21
84.7176
  0
LINE
  8
0
 10
-33.4492
 20
84.7176
 11
-35.4671
 21
81.223
  0
LINE
  8
0
 10
-35.4671
 20
81.223
 11
-35.9087
 21
81.478
  0
LINE
  8
0
 10
-14.7757
 20
65.2347
 11
-12.6627
 21
76.9402
  0
LINE
  8
0
 10
-12.6627
 20
76.9402
 11
-14.8764
 21
77.0193
  0
LINE
  8
0
 10
-14.8764
 20
77.0193
 11
-14.8718
 21
77.0088
  0
LINE
  8
0
 10
-14.8718
 20
77.0088
 11
-14.8686
 21
74.8651
  0
LINE
  8
0
 10
-14.8686
 20
74.8651
 11
-16.5477
 21
74.8651
  0
LINE
  8
0
 10
-16.5477
 20
74.8651
 11
-16.6228
 21
76.497
  0
LINE
  8
0
 10
-16.6228
 20
76.497
 11
-16.8297
 21
76.7465
  0
LINE
  8
0
 10
-16.8297
 20
76.7465
 11
-17.124
 21
76.7465
  0
LINE
  8
0
 10
-17.124
 20
76.7465
 11
-17.3291
 21
76.5002
  0
LINE
  8
0
 10
-17.3291
 20
76.5002
 11
-17.2472
 21
71.6983
  0
LINE
  8
0
 10
-17.2472
 20
71.6983
 11
-16.9643
 21
71.496
  0
LINE
  8
0
 10
-16.9643
 20
71.496
 11
-16.6228
 21
71.8045
  0
LINE
  8
0
 10
-16.6228
 20
71.8045
 11
-16.5477
 21
73.5106
  0
LINE
  8
0
 10
-16.5477
 20
73.5106
 11
-14.8686
 21
73.5106
  0
LINE
  8
0
 10
-14.8686
 20
73.5106
 11
-14.9661
 21
71.2657
  0
LINE
  8
0
 10
-14.9661
 20
71.2657
 11
-15.3149
 21
70.5681
  0
LINE
  8
0
 10
-15.3149
 20
70.5681
 11
-16.2291
 21
69.8824
  0
LINE
  8
0
 10
-16.2291
 20
69.8824
 11
-17.851
 21
69.9904
  0
LINE
  8
0
 10
-17.851
 20
69.9904
 11
-18.5646
 21
70.585
  0
LINE
  8
0
 10
-18.5646
 20
70.585
 11
-18.9949
 21
71.5532
  0
LINE
  8
0
 10
-18.9949
 20
71.5532
 11
-18.9949
 21
81.0463
  0
LINE
  8
0
 10
-18.9949
 20
81.0463
 11
-18.5623
 21
82.128
  0
LINE
  8
0
 10
-18.5623
 20
82.128
 11
-17.5488
 21
82.8036
  0
LINE
  8
0
 10
-17.5488
 20
82.8036
 11
-16.3243
 21
82.8036
  0
LINE
  8
0
 10
-16.3243
 20
82.8036
 11
-15.4111
 21
82.2328
  0
LINE
  8
0
 10
-15.4111
 20
82.2328
 11
-14.8453
 21
81.0999
  0
LINE
  8
0
 10
-14.8453
 20
81.0999
 11
-15.0545
 21
80.2617
  0
LINE
  8
0
 10
-15.0545
 20
80.2617
 11
-16.4012
 21
80.2617
  0
LINE
  8
0
 10
-16.4012
 20
80.2617
 11
-16.7171
 21
81.1049
  0
LINE
  8
0
 10
-16.7171
 20
81.1049
 11
-16.8883
 21
81.2079
  0
LINE
  8
0
 10
-16.8883
 20
81.2079
 11
-17.119
 21
81.169
  0
LINE
  8
0
 10
-17.119
 20
81.169
 11
-17.3318
 21
80.9566
  0
LINE
  8
0
 10
-17.3318
 20
80.9566
 11
-17.3318
 21
78.4361
  0
LINE
  8
0
 10
-17.3318
 20
78.4361
 11
-16.1398
 21
78.5062
  0
LINE
  8
0
 10
-16.1398
 20
78.5062
 11
-15.2161
 21
77.8131
  0
LINE
  8
0
 10
-15.2161
 20
77.8131
 11
-15.0403
 21
77.403
  0
LINE
  8
0
 10
-15.0403
 20
77.403
 11
-15.0403
 21
78.6732
  0
LINE
  8
0
 10
-15.0403
 20
78.6732
 11
-11.0051
 21
78.6732
  0
LINE
  8
0
 10
-11.0051
 20
78.6732
 11
-11.0046
 21
76.7017
  0
LINE
  8
0
 10
-11.0046
 20
76.7017
 11
-13.1891
 21
65.2347
  0
LINE
  8
0
 10
-13.1891
 20
65.2347
 11
-14.7757
 21
65.2347
  0
LINE
  8
0
 10
15.2243
 20
65.2347
 11
17.3373
 21
76.9402
  0
LINE
  8
0
 10
17.3373
 20
76.9402
 11
15.1236
 21
77.0193
  0
LINE
  8
0
 10
15.1236
 20
77.0193
 11
15.1282
 21
77.0088
  0
LINE
  8
0
 10
15.1282
 20
77.0088
 11
15.1314
 21
74.8651
  0
LINE
  8
0
 10
15.1314
 20
74.8651
 11
13.4523
 21
74.8651
  0
LINE
  8
0
 10
13.4523
 20
74.8651
 11
13.3772
 21
76.497
  0
LINE
  8
0
 10
13.3772
 20
76.497
 11
13.1703
 21
76.7465
  0
LINE
  8
0
 10
13.1703
 20
76.7465
 11
12.876
 21
76.7465
  0
LINE
  8
0
 10
12.876
 20
76.7465
 11
12.6709
 21
76.5002
  0
LINE
  8
0
 10
12.6709
 20
76.5002
 11
12.7528
 21
71.6983
  0
LINE
  8
0
 10
12.7528
 20
71.6983
 11
13.0357
 21
71.496
  0
LINE
  8
0
 10
13.0357
 20
71.496
 11
13.3772
 21
71.8045
  0
LINE
  8
0
 10
13.3772
 20
71.8045
 11
13.4523
 21
73.5106
  0
LINE
  8
0
 10
13.4523
 20
73.5106
 11
15.1314
 21
73.5106
  0
LINE
  8
0
 10
15.1314
 20
73.5106
 11
15.0339
 21
71.2657
  0
LINE
  8
0
 10
15.0339
 20
71.2657
 11
14.6851
 21
70.5681
  0
LINE
  8
0
 10
14.6851
 20
70.5681
 11
13.7709
 21
69.8824
  0
LINE
  8
0
 10
13.7709
 20
69.8824
 11
12.149
 21
69.9904
  0
LINE
  8
0
 10
12.149
 20
69.9904
 11
11.4354
 21
70.585
  0
LINE
  8
0
 10
11.4354
 20
70.585
 11
11.0051
 21
71.5532
  0
LINE
  8
0
 10
11.0051
 20
71.5532
 11
11.0051
 21
81.0463
  0
LINE
  8
0
 10
11.0051
 20
81.0463
 11
11.4377
 21
82.128
  0
LINE
  8
0
 10
11.4377
 20
82.128
 11
12.4512
 21
82.8036
  0
LINE
  8
0
 10
12.4512
 20
82.8036
 11
13.6757
 21
82.8036
  0
LINE
  8
0
 10
13.6757
 20
82.8036
 11
14.5889
 21
82.2328
  0
LINE
  8
0
 10
14.5889
 20
82.2328
 11
15.1547
 21
81.0999
  0
LINE
  8
0
 10
15.1547
 20
81.0999
 11
14.9455
 21
80.2617
  0
LINE
  8
0
 10
14.9455
 20
80.2617
 11
13.5988
 21
80.2617
  0
LINE
  8
0
 10
13.5988
 20
80.2617
 11
13.2829
 21
81.1049
  0
LINE
  8
0
 10
13.2829
 20
81.1049
 11
13.1117
 21
81.2079
  0
LINE
  8
0
 10
13.1117
 20
81.2079
 11
12.881
 21
81.169
  0
LINE
  8
0
 10
12.881
 20
81.169
 11
12.6682
 21
80.9566
  0
LINE
  8
0
 10
12.6682
 20
80.9566
 11
12.6682
 21
78.4361
  0
LINE
  8
0
 10
12.6682
 20
78.4361
 11
13.8602
 21
78.5062
  0
LINE
  8
0
 10
13.8602
 20
78.5062
 11
14.7839
 21
77.8131
  0
LINE
  8
0
 10
14.7839
 20
77.8131
 11
14.9597
 21
77.403
  0
LINE
  8
0
 10
14.9597
 20
77.403
 11
14.9597
 21
78.6732
  0
LINE
  8
0
 10
14.9597
 20
78.6732
 11
18.9949
 21
78.6732
  0
LINE
  8
0
 10
18.9949
 20
78.6732
 11
18.9954
 21
76.7017
  0
LINE
  8
0
 10
18.9954
 20
76.7017
 11
16.8109
 21
65.2347
  0
LINE
  8
0
 10
16.8109
 20
65.2347
 11
15.2243
 21
65.2347
  0
LINE
  8
0
 10
-36.3332
 20
67.42
 11
-36.9452
 21
68.4798
  0
LINE
  8
0
 10
-36.9452
 20
68.4798
 11
-36.9077
 21
69.5569
  0
LINE
  8
0
 10
-36.9077
 20
69.5569
 11
-36.2096
 21
70.6134
  0
LINE
  8
0
 10
-36.2096
 20
70.6134
 11
-35.3787
 21
70.851
  0
LINE
  8
0
 10
-35.3787
 20
70.851
 11
-34.7058
 21
69.6846
  0
LINE
  8
0
 10
-34.7058
 20
69.6846
 11
-35.2785
 21
68.9893
  0
LINE
  8
0
 10
-35.2785
 20
68.9893
 11
-35.2817
 21
68.7901
  0
LINE
  8
0
 10
-35.2817
 20
68.7901
 11
-35.1329
 21
68.6093
  0
LINE
  8
0
 10
-35.1329
 20
68.6093
 11
-34.8418
 21
68.5315
  0
LINE
  8
0
 10
-34.8418
 20
68.5315
 11
-32.6591
 21
69.7917
  0
LINE
  8
0
 10
-32.6591
 20
69.7917
 11
-33.3156
 21
70.7878
  0
LINE
  8
0
 10
-33.3156
 20
70.7878
 11
-33.1773
 21
71.9363
  0
LINE
  8
0
 10
-33.1773
 20
71.9363
 11
-32.9105
 21
72.2925
  0
LINE
  8
0
 10
-32.9105
 20
72.2925
 11
-34.0105
 21
71.6571
  0
LINE
  8
0
 10
-34.0105
 20
71.6571
 11
-36.0283
 21
75.1517
  0
LINE
  8
0
 10
-36.0283
 20
75.1517
 11
-34.3208
 21
76.1372
  0
LINE
  8
0
 10
-34.3208
 20
76.1372
 11
-23.2974
 21
79.9792
  0
LINE
  8
0
 10
-23.2974
 20
79.9792
 11
-22.505
 21
78.606
  0
LINE
  8
0
 10
-22.505
 20
78.606
 11
-33.6983
 21
74.5827
  0
LINE
  8
0
 10
-33.6983
 20
74.5827
 11
-32.6601
 21
72.6262
  0
LINE
  8
0
 10
-32.6601
 20
72.6262
 11
-32.6532
 21
72.6353
  0
LINE
  8
0
 10
-32.6532
 20
72.6353
 11
-30.7979
 21
73.7102
  0
LINE
  8
0
 10
-30.7979
 20
73.7102
 11
-29.9588
 21
72.2563
  0
LINE
  8
0
 10
-29.9588
 20
72.2563
 11
-31.3348
 21
71.3751
  0
LINE
  8
0
 10
-31.3348
 20
71.3751
 11
-31.447
 21
71.0712
  0
LINE
  8
0
 10
-31.447
 20
71.0712
 11
-31.3
 21
70.8162
  0
LINE
  8
0
 10
-31.3
 20
70.8162
 11
-30.9842
 21
70.7617
  0
LINE
  8
0
 10
-30.9842
 20
70.7617
 11
-26.8661
 21
73.2336
  0
LINE
  8
0
 10
-26.8661
 20
73.2336
 11
-26.8327
 21
73.5806
  0
LINE
  8
0
 10
-26.8327
 20
73.5806
 11
-27.2713
 21
73.7216
  0
LINE
  8
0
 10
-27.2713
 20
73.7216
 11
-28.7856
 21
72.9333
  0
LINE
  8
0
 10
-28.7856
 20
72.9333
 11
-29.6255
 21
74.3867
  0
LINE
  8
0
 10
-29.6255
 20
74.3867
 11
-27.6334
 21
75.4245
  0
LINE
  8
0
 10
-27.6334
 20
75.4245
 11
-26.8538
 21
75.4716
  0
LINE
  8
0
 10
-26.8538
 20
75.4716
 11
-25.8028
 21
75.0226
  0
LINE
  8
0
 10
-25.8028
 20
75.0226
 11
-25.0854
 21
73.5646
  0
LINE
  8
0
 10
-25.0854
 20
73.5646
 11
-25.2434
 21
72.6495
  0
LINE
  8
0
 10
-25.2434
 20
72.6495
 11
-25.8673
 21
71.7921
  0
LINE
  8
0
 10
-25.8673
 20
71.7921
 11
-34.0883
 21
67.0461
  0
LINE
  8
0
 10
-34.0883
 20
67.0461
 11
-35.2405
 21
66.8799
  0
LINE
  8
0
 10
-35.2405
 20
66.8799
 11
-36.3332
 21
67.42
  0
LINE
  8
0
 10
-6.33316
 20
67.42
 11
-6.94519
 21
68.4798
  0
LINE
  8
0
 10
-6.94519
 20
68.4798
 11
-6.90765
 21
69.5569
  0
LINE
  8
0
 10
-6.90765
 20
69.5569
 11
-6.20956
 21
70.6134
  0
LINE
  8
0
 10
-6.20956
 20
70.6134
 11
-5.37872
 21
70.851
  0
LINE
  8
0
 10
-5.37872
 20
70.851
 11
-4.70581
 21
69.6846
  0
LINE
  8
0
 10
-4.70581
 20
69.6846
 11
-5.27847
 21
68.9893
  0
LINE
  8
0
 10
-5.27847
 20
68.9893
 11
-5.28168
 21
68.7901
  0
LINE
  8
0
 10
-5.28168
 20
68.7901
 11
-5.1329
 21
68.6093
  0
LINE
  8
0
 10
-5.1329
 20
68.6093
 11
-4.84177
 21
68.5315
  0
LINE
  8
0
 10
-4.84177
 20
68.5315
 11
-2.65915
 21
69.7917
  0
LINE
  8
0
 10
-2.65915
 20
69.7917
 11
-3.31558
 21
70.7878
  0
LINE
  8
0
 10
-3.31558
 20
70.7878
 11
-3.17734
 21
71.9363
  0
LINE
  8
0
 10
-3.17734
 20
71.9363
 11
-2.91046
 21
72.2925
  0
LINE
  8
0
 10
-2.91046
 20
72.2925
 11
-4.01047
 21
71.6571
  0
LINE
  8
0
 10
-4.01047
 20
71.6571
 11
-6.02829
 21
75.1517
  0
LINE
  8
0
 10
-6.02829
 20
75.1517
 11
-4.32083
 21
76.1372
  0
LINE
  8
0
 10
-4.32083
 20
76.1372
 11
6.70258
 21
79.9792
  0
LINE
  8
0
 10
6.70258
 20
79.9792
 11
7.49496
 21
78.606
  0
LINE
  8
0
 10
7.49496
 20
78.606
 11
-3.69827
 21
74.5827
  0
LINE
  8
0
 10
-3.69827
 20
74.5827
 11
-2.66006
 21
72.6262
  0
LINE
  8
0
 10
-2.66006
 20
72.6262
 11
-2.6532
 21
72.6353
  0
LINE
  8
0
 10
-2.6532
 20
72.6353
 11
-0.797882
 21
73.7102
  0
LINE
  8
0
 10
-0.797882
 20
73.7102
 11
0.0411987
 21
72.2563
  0
LINE
  8
0
 10
0.0411987
 20
72.2563
 11
-1.33484
 21
71.3751
  0
LINE
  8
0
 10
-1.33484
 20
71.3751
 11
-1.44699
 21
71.0712
  0
LINE
  8
0
 10
-1.44699
 20
71.0712
 11
-1.30005
 21
70.8162
  0
LINE
  8
0
 10
-1.30005
 20
70.8162
 11
-0.984192
 21
70.7617
  0
LINE
  8
0
 10
-0.984192
 20
70.7617
 11
3.13385
 21
73.2336
  0
LINE
  8
0
 10
3.13385
 20
73.2336
 11
3.16727
 21
73.5806
  0
LINE
  8
0
 10
3.16727
 20
73.5806
 11
2.72873
 21
73.7216
  0
LINE
  8
0
 10
2.72873
 20
73.7216
 11
1.21445
 21
72.9333
  0
LINE
  8
0
 10
1.21445
 20
72.9333
 11
0.374451
 21
74.3867
  0
LINE
  8
0
 10
0.374451
 20
74.3867
 11
2.36664
 21
75.4245
  0
LINE
  8
0
 10
2.36664
 20
75.4245
 11
3.14621
 21
75.4716
  0
LINE
  8
0
 10
3.14621
 20
75.4716
 11
4.19724
 21
75.0226
  0
LINE
  8
0
 10
4.19724
 20
75.0226
 11
4.91455
 21
73.5646
  0
LINE
  8
0
 10
4.91455
 20
73.5646
 11
4.75662
 21
72.6495
  0
LINE
  8
0
 10
4.75662
 20
72.6495
 11
4.13269
 21
71.7921
  0
LINE
  8
0
 10
4.13269
 20
71.7921
 11
-4.08829
 21
67.0461
  0
LINE
  8
0
 10
-4.08829
 20
67.0461
 11
-5.24048
 21
66.8799
  0
LINE
  8
0
 10
-5.24048
 20
66.8799
 11
-6.33316
 21
67.42
  0
LINE
  8
0
 10
23.6668
 20
67.42
 11
23.0548
 21
68.4798
  0
LINE
  8
0
 10
23.0548
 20
68.4798
 11
23.0923
 21
69.5569
  0
LINE
  8
0
 10
23.0923
 20
69.5569
 11
23.7904
 21
70.6134
  0
LINE
  8
0
 10
23.7904
 20
70.6134
 11
24.6213
 21
70.851
  0
LINE
  8
0
 10
24.6213
 20
70.851
 11
25.2942
 21
69.6846
  0
LINE
  8
0
 10
25.2942
 20
69.6846
 11
24.7215
 21
68.9893
  0
LINE
  8
0
 10
24.7215
 20
68.9893
 11
24.7183
 21
68.7901
  0
LINE
  8
0
 10
24.7183
 20
68.7901
 11
24.8671
 21
68.6093
  0
LINE
  8
0
 10
24.8671
 20
68.6093
 11
25.1582
 21
68.5315
  0
LINE
  8
0
 10
25.1582
 20
68.5315
 11
27.3409
 21
69.7917
  0
LINE
  8
0
 10
27.3409
 20
69.7917
 11
26.6844
 21
70.7878
  0
LINE
  8
0
 10
26.6844
 20
70.7878
 11
26.8227
 21
71.9363
  0
LINE
  8
0
 10
26.8227
 20
71.9363
 11
27.0895
 21
72.2925
  0
LINE
  8
0
 10
27.0895
 20
72.2925
 11
25.9895
 21
71.6571
  0
LINE
  8
0
 10
25.9895
 20
71.6571
 11
23.9717
 21
75.1517
  0
LINE
  8
0
 10
23.9717
 20
75.1517
 11
25.6792
 21
76.1372
  0
LINE
  8
0
 10
25.6792
 20
76.1372
 11
36.4268
 21
79.8831
  0
LINE
  8
0
 10
36.4268
 20
79.8831
 11
36.9101
 21
78.3958
  0
LINE
  8
0
 10
36.9101
 20
78.3958
 11
26.3017
 21
74.5827
  0
LINE
  8
0
 10
26.3017
 20
74.5827
 11
27.3399
 21
72.6262
  0
LINE
  8
0
 10
27.3399
 20
72.6262
 11
27.3468
 21
72.6353
  0
LINE
  8
0
 10
27.3468
 20
72.6353
 11
29.2021
 21
73.7102
  0
LINE
  8
0
 10
29.2021
 20
73.7102
 11
30.0412
 21
72.2563
  0
LINE
  8
0
 10
30.0412
 20
72.2563
 11
28.6652
 21
71.3751
  0
LINE
  8
0
 10
28.6652
 20
71.3751
 11
28.553
 21
71.0712
  0
LINE
  8
0
 10
28.553
 20
71.0712
 11
28.7
 21
70.8162
  0
LINE
  8
0
 10
28.7
 20
70.8162
 11
29.0158
 21
70.7617
  0
LINE
  8
0
 10
29.0158
 20
70.7617
 11
33.1339
 21
73.2336
  0
LINE
  8
0
 10
33.1339
 20
73.2336
 11
33.1673
 21
73.5806
  0
LINE
  8
0
 10
33.1673
 20
73.5806
 11
32.7287
 21
73.7216
  0
LINE
  8
0
 10
32.7287
 20
73.7216
 11
31.2144
 21
72.9333
  0
LINE
  8
0
 10
31.2144
 20
72.9333
 11
30.3745
 21
74.3867
  0
LINE
  8
0
 10
30.3745
 20
74.3867
 11
32.3666
 21
75.4245
  0
LINE
  8
0
 10
32.3666
 20
75.4245
 11
33.1462
 21
75.4716
  0
LINE
  8
0
 10
33.1462
 20
75.4716
 11
34.1972
 21
75.0226
  0
LINE
  8
0
 10
34.1972
 20
75.0226
 11
34.9146
 21
73.5646
  0
LINE
  8
0
 10
34.9146
 20
73.5646
 11
34.7566
 21
72.6495
  0
LINE
  8
0
 10
34.7566
 20
72.6495
 11
34.1327
 21
71.7921
  0
LINE
  8
0
 10
34.1327
 20
71.7921
 11
25.9117
 21
67.0461
  0
LINE
  8
0
 10
25.9117
 20
67.0461
 11
24.7595
 21
66.8799
  0
LINE
  8
0
 10
24.7595
 20
66.8799
 11
23.6668
 21
67.42
  0
LINE
  8
0
 10
37.8259
 20
56.2277
 11
28.987
 21
63.8531
  0
LINE
  8
0
 10
28.987
 20
63.8531
 11
29.7803
 21
65.2264
  0
LINE
  8
0
 10
29.7803
 20
65.2264
 11
38.8609
 21
57.5438
  0
LINE
  8
0
 10
38.8609
 20
57.5438
 11
40.0369
 21
59.4215
  0
LINE
  8
0
 10
40.0369
 20
59.4215
 11
40.0241
 21
59.4234
  0
LINE
  8
0
 10
40.0241
 20
59.4234
 11
38.167
 21
60.4918
  0
LINE
  8
0
 10
38.167
 20
60.4918
 11
39.0065
 21
61.9461
  0
LINE
  8
0
 10
39.0065
 20
61.9461
 11
40.4572
 21
61.1945
  0
LINE
  8
0
 10
40.4572
 20
61.1945
 11
40.7767
 21
61.2498
  0
LINE
  8
0
 10
40.7767
 20
61.2498
 11
40.9241
 21
61.5048
  0
LINE
  8
0
 10
40.9241
 20
61.5048
 11
40.8133
 21
61.8056
  0
LINE
  8
0
 10
40.8133
 20
61.8056
 11
36.6138
 21
64.1356
  0
LINE
  8
0
 10
36.6138
 20
64.1356
 11
36.2961
 21
63.9914
  0
LINE
  8
0
 10
36.2961
 20
63.9914
 11
36.3931
 21
63.541
  0
LINE
  8
0
 10
36.3931
 20
63.541
 11
37.8333
 21
62.6231
  0
LINE
  8
0
 10
37.8333
 20
62.6231
 11
36.9942
 21
61.1702
  0
LINE
  8
0
 10
36.9942
 20
61.1702
 11
35.099
 21
62.3764
  0
LINE
  8
0
 10
35.099
 20
62.3764
 11
34.6692
 21
63.026
  0
LINE
  8
0
 10
34.6692
 20
63.026
 11
34.5323
 21
64.1626
  0
LINE
  8
0
 10
34.5323
 20
64.1626
 11
35.4364
 21
65.5125
  0
LINE
  8
0
 10
35.4364
 20
65.5125
 11
36.3075
 21
65.8325
  0
LINE
  8
0
 10
36.3075
 20
65.8325
 11
37.3627
 21
65.7208
  0
LINE
  8
0
 10
37.3627
 20
65.7208
 11
41.8749
 21
63.1157
  0
LINE
  8
0
 10
41.8749
 20
63.1157
 11
42.6432
 21
60.7512
  0
LINE
  8
0
 10
42.6432
 20
60.7512
 11
42.4905
 21
60.8392
  0
LINE
  8
0
 10
42.4905
 20
60.8392
 11
41.9559
 21
59.7726
  0
LINE
  8
0
 10
41.9559
 20
59.7726
 11
40.8943
 21
59.319
  0
LINE
  8
0
 10
40.8943
 20
59.319
 11
40.4503
 21
59.3716
  0
LINE
  8
0
 10
40.4503
 20
59.3716
 11
41.5508
 21
58.7367
  0
LINE
  8
0
 10
41.5508
 20
58.7367
 11
39.5329
 21
55.2422
  0
LINE
  8
0
 10
39.5329
 20
55.2422
 11
37.8259
 21
56.2277
  0
LINE
  8
0
 10
7.82593
 20
56.2277
 11
-1.01303
 21
63.8531
  0
LINE
  8
0
 10
-1.01303
 20
63.8531
 11
-0.219727
 21
65.2264
  0
LINE
  8
0
 10
-0.219727
 20
65.2264
 11
8.86093
 21
57.5438
  0
LINE
  8
0
 10
8.86093
 20
57.5438
 11
10.0369
 21
59.4215
  0
LINE
  8
0
 10
10.0369
 20
59.4215
 11
10.0241
 21
59.4234
  0
LINE
  8
0
 10
10.0241
 20
59.4234
 11
8.16696
 21
60.4918
  0
LINE
  8
0
 10
8.16696
 20
60.4918
 11
9.0065
 21
61.9461
  0
LINE
  8
0
 10
9.0065
 20
61.9461
 11
10.4572
 21
61.1945
  0
LINE
  8
0
 10
10.4572
 20
61.1945
 11
10.7767
 21
61.2498
  0
LINE
  8
0
 10
10.7767
 20
61.2498
 11
10.9241
 21
61.5048
  0
LINE
  8
0
 10
10.9241
 20
61.5048
 11
10.8133
 21
61.8056
  0
LINE
  8
0
 10
10.8133
 20
61.8056
 11
6.61377
 21
64.1356
  0
LINE
  8
0
 10
6.61377
 20
64.1356
 11
6.29608
 21
63.9914
  0
LINE
  8
0
 10
6.29608
 20
63.9914
 11
6.39313
 21
63.541
  0
LINE
  8
0
 10
6.39313
 20
63.541
 11
7.83325
 21
62.6231
  0
LINE
  8
0
 10
7.83325
 20
62.6231
 11
6.99417
 21
61.1702
  0
LINE
  8
0
 10
6.99417
 20
61.1702
 11
5.09903
 21
62.3764
  0
LINE
  8
0
 10
5.09903
 20
62.3764
 11
4.66919
 21
63.026
  0
LINE
  8
0
 10
4.66919
 20
63.026
 11
4.53232
 21
64.1626
  0
LINE
  8
0
 10
4.53232
 20
64.1626
 11
5.4364
 21
65.5125
  0
LINE
  8
0
 10
5.4364
 20
65.5125
 11
6.30753
 21
65.8325
  0
LINE
  8
0
 10
6.30753
 20
65.8325
 11
7.36267
 21
65.7208
  0
LINE
  8
0
 10
7.36267
 20
65.7208
 11
15.5832
 21
60.9747
  0
LINE
  8
0
 10
15.5832
 20
60.9747
 11
16.3028
 21
60.0592
  0
LINE
  8
0
 10
16.3028
 20
60.0592
 11
16.3815
 21
58.8434
  0
LINE
  8
0
 10
16.3815
 20
58.8434
 11
15.7695
 21
57.7837
  0
LINE
  8
0
 10
15.7695
 20
57.7837
 11
14.8196
 21
57.2783
  0
LINE
  8
0
 10
14.8196
 20
57.2783
 11
13.5553
 21
57.3547
  0
LINE
  8
0
 10
13.5553
 20
57.3547
 11
12.9341
 21
57.9553
  0
LINE
  8
0
 10
12.9341
 20
57.9553
 11
13.6066
 21
59.1208
  0
LINE
  8
0
 10
13.6066
 20
59.1208
 11
14.4946
 21
58.9725
  0
LINE
  8
0
 10
14.4946
 20
58.9725
 11
14.67
 21
59.0695
  0
LINE
  8
0
 10
14.67
 20
59.0695
 11
14.7519
 21
59.2892
  0
LINE
  8
0
 10
14.7519
 20
59.2892
 11
14.6741
 21
59.5795
  0
LINE
  8
0
 10
14.6741
 20
59.5795
 11
12.4905
 21
60.8392
  0
LINE
  8
0
 10
12.4905
 20
60.8392
 11
11.9559
 21
59.7726
  0
LINE
  8
0
 10
11.9559
 20
59.7726
 11
10.8943
 21
59.319
  0
LINE
  8
0
 10
10.8943
 20
59.319
 11
10.4503
 21
59.3716
  0
LINE
  8
0
 10
10.4503
 20
59.3716
 11
11.5508
 21
58.7367
  0
LINE
  8
0
 10
11.5508
 20
58.7367
 11
9.53293
 21
55.2422
  0
LINE
  8
0
 10
9.53293
 20
55.2422
 11
7.82593
 21
56.2277
  0
LINE
  8
0
 10
-22.1741
 20
56.2277
 11
-31.013
 21
63.8531
  0
LINE
  8
0
 10
-31.013
 20
63.8531
 11
-30.2197
 21
65.2264
  0
LINE
  8
0
 10
-30.2197
 20
65.2264
 11
-21.1391
 21
57.5438
  0
LINE
  8
0
 10
-21.1391
 20
57.5438
 11
-19.9631
 21
59.4215
  0
LINE
  8
0
 10
-19.9631
 20
59.4215
 11
-19.9759
 21
59.4234
  0
LINE
  8
0
 10
-19.9759
 20
59.4234
 11
-21.833
 21
60.4918
  0
LINE
  8
0
 10
-21.833
 20
60.4918
 11
-20.9935
 21
61.9461
  0
LINE
  8
0
 10
-20.9935
 20
61.9461
 11
-19.5428
 21
61.1945
  0
LINE
  8
0
 10
-19.5428
 20
61.1945
 11
-19.2233
 21
61.2498
  0
LINE
  8
0
 10
-19.2233
 20
61.2498
 11
-19.0759
 21
61.5048
  0
LINE
  8
0
 10
-19.0759
 20
61.5048
 11
-19.1867
 21
61.8056
  0
LINE
  8
0
 10
-19.1867
 20
61.8056
 11
-23.3862
 21
64.1356
  0
LINE
  8
0
 10
-23.3862
 20
64.1356
 11
-23.7039
 21
63.9914
  0
LINE
  8
0
 10
-23.7039
 20
63.9914
 11
-23.6069
 21
63.541
  0
LINE
  8
0
 10
-23.6069
 20
63.541
 11
-22.1667
 21
62.6231
  0
LINE
  8
0
 10
-22.1667
 20
62.6231
 11
-23.0058
 21
61.1702
  0
LINE
  8
0
 10
-23.0058
 20
61.1702
 11
-24.901
 21
62.3764
  0
LINE
  8
0
 10
-24.901
 20
62.3764
 11
-25.3308
 21
63.026
  0
LINE
  8
0
 10
-25.3308
 20
63.026
 11
-25.4677
 21
64.1626
  0
LINE
  8
0
 10
-25.4677
 20
64.1626
 11
-24.5636
 21
65.5125
  0
LINE
  8
0
 10
-24.5636
 20
65.5125
 11
-23.6925
 21
65.8325
  0
LINE
  8
0
 10
-23.6925
 20
65.8325
 11
-22.6373
 21
65.7208
  0
LINE
  8
0
 10
-22.6373
 20
65.7208
 11
-14.4168
 21
60.9747
  0
LINE
  8
0
 10
-14.4168
 20
60.9747
 11
-13.6972
 21
60.0592
  0
LINE
  8
0
 10
-13.6972
 20
60.0592
 11
-13.6185
 21
58.8434
  0
LINE
  8
0
 10
-13.6185
 20
58.8434
 11
-14.2305
 21
57.7837
  0
LINE
  8
0
 10
-14.2305
 20
57.7837
 11
-15.1804
 21
57.2783
  0
LINE
  8
0
 10
-15.1804
 20
57.2783
 11
-16.4447
 21
57.3547
  0
LINE
  8
0
 10
-16.4447
 20
57.3547
 11
-17.0659
 21
57.9553
  0
LINE
  8
0
 10
-17.0659
 20
57.9553
 11
-16.3934
 21
59.1208
  0
LINE
  8
0
 10
-16.3934
 20
59.1208
 11
-15.5054
 21
58.9725
  0
LINE
  8
0
 10
-15.5054
 20
58.9725
 11
-15.33
 21
59.0695
  0
LINE
  8
0
 10
-15.33
 20
59.0695
 11
-15.2481
 21
59.2892
  0
LINE
  8
0
 10
-15.2481
 20
59.2892
 11
-15.3259
 21
59.5795
  0
LINE
  8
0
 10
-15.3259
 20
59.5795
 11
-17.5095
 21
60.8392
  0
LINE
  8
0
 10
-17.5095
 20
60.8392
 11
-18.0441
 21
59.7726
  0
LINE
  8
0
 10
-18.0441
 20
59.7726
 11
-19.1057
 21
59.319
  0
LINE
  8
0
 10
-19.1057
 20
59.319
 11
-19.5497
 21
59.3716
  0
LINE
  8
0
 10
-19.5497
 20
59.3716
 11
-18.4492
 21
58.7367
  0
LINE
  8
0
 10
-18.4492
 20
58.7367
 11
-20.4671
 21
55.2422
  0
LINE
  8
0
 10
-20.4671
 20
55.2422
 11
-22.1741
 21
56.2277
  0
LINE
  8
0
 10
43.5553
 20
57.3547
 11
42.9341
 21
57.9553
  0
LINE
  8
0
 10
42.9341
 20
57.9553
 11
43.3292
 21
58.64
  0
LINE
  8
0
 10
43.3292
 20
58.64
 11
43.7506
 21
57.3429
  0
LINE
  8
0
 10
43.7506
 20
57.3429
 11
43.5553
 21
57.3547
  0
LINE
  8
0
 10
-29.7757
 20
39.2538
 11
-27.6627
 21
50.9593
  0
LINE
  8
0
 10
-27.6627
 20
50.9593
 11
-29.8764
 21
51.0385
  0
LINE
  8
0
 10
-29.8764
 20
51.0385
 11
-29.8718
 21
51.028
  0
LINE
  8
0
 10
-29.8718
 20
51.028
 11
-29.8686
 21
48.8843
  0
LINE
  8
0
 10
-29.8686
 20
48.8843
 11
-31.5477
 21
48.8843
  0
LINE
  8
0
 10
-31.5477
 20
48.8843
 11
-31.6228
 21
50.5162
  0
LINE
  8
0
 10
-31.6228
 20
50.5162
 11
-31.8297
 21
50.7657
  0
LINE
  8
0
 10
-31.8297
 20
50.7657
 11
-32.124
 21
50.7657
  0
LINE
  8
0
 10
-32.124
 20
50.7657
 11
-32.3291
 21
50.5194
  0
LINE
  8
0
 10
-32.3291
 20
50.5194
 11
-32.2472
 21
45.7175
  0
LINE
  8
0
 10
-32.2472
 20
45.7175
 11
-31.9643
 21
45.5151
  0
LINE
  8
0
 10
-31.9643
 20
45.5151
 11
-31.6228
 21
45.8237
  0
LINE
  8
0
 10
-31.6228
 20
45.8237
 11
-31.5477
 21
47.5298
  0
LINE
  8
0
 10
-31.5477
 20
47.5298
 11
-29.8686
 21
47.5298
  0
LINE
  8
0
 10
-29.8686
 20
47.5298
 11
-29.9661
 21
45.2849
  0
LINE
  8
0
 10
-29.9661
 20
45.2849
 11
-30.3149
 21
44.5872
  0
LINE
  8
0
 10
-30.3149
 20
44.5872
 11
-31.2291
 21
43.9015
  0
LINE
  8
0
 10
-31.2291
 20
43.9015
 11
-32.851
 21
44.0096
  0
LINE
  8
0
 10
-32.851
 20
44.0096
 11
-33.5646
 21
44.6042
  0
LINE
  8
0
 10
-33.5646
 20
44.6042
 11
-33.9949
 21
45.5724
  0
LINE
  8
0
 10
-33.9949
 20
45.5724
 11
-33.9949
 21
55.0655
  0
LINE
  8
0
 10
-33.9949
 20
55.0655
 11
-33.5623
 21
56.1472
  0
LINE
  8
0
 10
-33.5623
 20
56.1472
 11
-32.5488
 21
56.8228
  0
LINE
  8
0
 10
-32.5488
 20
56.8228
 11
-31.3243
 21
56.8228
  0
LINE
  8
0
 10
-31.3243
 20
56.8228
 11
-30.4111
 21
56.252
  0
LINE
  8
0
 10
-30.4111
 20
56.252
 11
-29.8453
 21
55.119
  0
LINE
  8
0
 10
-29.8453
 20
55.119
 11
-30.0545
 21
54.2809
  0
LINE
  8
0
 10
-30.0545
 20
54.2809
 11
-31.4012
 21
54.2809
  0
LINE
  8
0
 10
-31.4012
 20
54.2809
 11
-31.7171
 21
55.1241
  0
LINE
  8
0
 10
-31.7171
 20
55.1241
 11
-31.8883
 21
55.2271
  0
LINE
  8
0
 10
-31.8883
 20
55.2271
 11
-32.119
 21
55.1881
  0
LINE
  8
0
 10
-32.119
 20
55.1881
 11
-32.3318
 21
54.9757
  0
LINE
  8
0
 10
-32.3318
 20
54.9757
 11
-32.3318
 21
52.4553
  0
LINE
  8
0
 10
-32.3318
 20
52.4553
 11
-31.1398
 21
52.5253
  0
LINE
  8
0
 10
-31.1398
 20
52.5253
 11
-30.2161
 21
51.8323
  0
LINE
  8
0
 10
-30.2161
 20
51.8323
 11
-30.0403
 21
51.4221
  0
LINE
  8
0
 10
-30.0403
 20
51.4221
 11
-30.0403
 21
52.6924
  0
LINE
  8
0
 10
-30.0403
 20
52.6924
 11
-26.0051
 21
52.6924
  0
LINE
  8
0
 10
-26.0051
 20
52.6924
 11
-26.0046
 21
50.7208
  0
LINE
  8
0
 10
-26.0046
 20
50.7208
 11
-28.1891
 21
39.2538
  0
LINE
  8
0
 10
-28.1891
 20
39.2538
 11
-29.7757
 21
39.2538
  0
LINE
  8
0
 10
30.2243
 20
39.2538
 11
32.3373
 21
50.9593
  0
LINE
  8
0
 10
32.3373
 20
50.9593
 11
30.1236
 21
51.0385
  0
LINE
  8
0
 10
30.1236
 20
51.0385
 11
30.1282
 21
51.028
  0
LINE
  8
0
 10
30.1282
 20
51.028
 11
30.1314
 21
48.8843
  0
LINE
  8
0
 10
30.1314
 20
48.8843
 11
28.4523
 21
48.8843
  0
LINE
  8
0
 10
28.4523
 20
48.8843
 11
28.3772
 21
50.5162
  0
LINE
  8
0
 10
28.3772
 20
50.5162
 11
28.1703
 21
50.7657
  0
LINE
  8
0
 10
28.1703
 20
50.7657
 11
27.876
 21
50.7657
  0
LINE
  8
0
 10
27.876
 20
50.7657
 11
27.6709
 21
50.5194
  0
LINE
  8
0
 10
27.6709
 20
50.5194
 11
27.7528
 21
45.7175
  0
LINE
  8
0
 10
27.7528
 20
45.7175
 11
28.0357
 21
45.5151
  0
LINE
  8
0
 10
28.0357
 20
45.5151
 11
28.3772
 21
45.8237
  0
LINE
  8
0
 10
28.3772
 20
45.8237
 11
28.4523
 21
47.5298
  0
LINE
  8
0
 10
28.4523
 20
47.5298
 11
30.1314
 21
47.5298
  0
LINE
  8
0
 10
30.1314
 20
47.5298
 11
30.0339
 21
45.2849
  0
LINE
  8
0
 10
30.0339
 20
45.2849
 11
29.6851
 21
44.5872
  0
LINE
  8
0
 10
29.6851
 20
44.5872
 11
28.7709
 21
43.9015
  0
LINE
  8
0
 10
28.7709
 20
43.9015
 11
27.149
 21
44.0096
  0
LINE
  8
0
 10
27.149
 20
44.0096
 11
26.4354
 21
44.6042
  0
LINE
  8
0
 10
26.4354
 20
44.6042
 11
26.0051
 21
45.5724
  0
LINE
  8
0
 10
26.0051
 20
45.5724
 11
26.0051
 21
55.0655
  0
LINE
  8
0
 10
26.0051
 20
55.0655
 11
26.4377
 21
56.1472
  0
LINE
  8
0
 10
26.4377
 20
56.1472
 11
27.4512
 21
56.8228
  0
LINE
  8
0
 10
27.4512
 20
56.8228
 11
28.6757
 21
56.8228
  0
LINE
  8
0
 10
28.6757
 20
56.8228
 11
29.5889
 21
56.252
  0
LINE
  8
0
 10
29.5889
 20
56.252
 11
30.1547
 21
55.119
  0
LINE
  8
0
 10
30.1547
 20
55.119
 11
29.9455
 21
54.2809
  0
LINE
  8
0
 10
29.9455
 20
54.2809
 11
28.5988
 21
54.2809
  0
LINE
  8
0
 10
28.5988
 20
54.2809
 11
28.2829
 21
55.1241
  0
LINE
  8
0
 10
28.2829
 20
55.1241
 11
28.1117
 21
55.2271
  0
LINE
  8
0
 10
28.1117
 20
55.2271
 11
27.881
 21
55.1881
  0
LINE
  8
0
 10
27.881
 20
55.1881
 11
27.6682
 21
54.9757
  0
LINE
  8
0
 10
27.6682
 20
54.9757
 11
27.6682
 21
52.4553
  0
LINE
  8
0
 10
27.6682
 20
52.4553
 11
28.8602
 21
52.5253
  0
LINE
  8
0
 10
28.8602
 20
52.5253
 11
29.7839
 21
51.8323
  0
LINE
  8
0
 10
29.7839
 20
51.8323
 11
29.9597
 21
51.4221
  0
LINE
  8
0
 10
29.9597
 20
51.4221
 11
29.9597
 21
52.6924
  0
LINE
  8
0
 10
29.9597
 20
52.6924
 11
33.9949
 21
52.6924
  0
LINE
  8
0
 10
33.9949
 20
52.6924
 11
33.9954
 21
50.7208
  0
LINE
  8
0
 10
33.9954
 20
50.7208
 11
31.8109
 21
39.2538
  0
LINE
  8
0
 10
31.8109
 20
39.2538
 11
30.2243
 21
39.2538
  0
LINE
  8
0
 10
0.224304
 20
39.2538
 11
2.33734
 21
50.9593
  0
LINE
  8
0
 10
2.33734
 20
50.9593
 11
0.123596
 21
51.0385
  0
LINE
  8
0
 10
0.123596
 20
51.0385
 11
0.128174
 21
51.028
  0
LINE
  8
0
 10
0.128174
 20
51.028
 11
0.131378
 21
48.8843
  0
LINE
  8
0
 10
0.131378
 20
48.8843
 11
-1.5477
 21
48.8843
  0
LINE
  8
0
 10
-1.5477
 20
48.8843
 11
-1.62277
 21
50.5162
  0
LINE
  8
0
 10
-1.62277
 20
50.5162
 11
-1.82968
 21
50.7657
  0
LINE
  8
0
 10
-1.82968
 20
50.7657
 11
-2.12402
 21
50.7657
  0
LINE
  8
0
 10
-2.12402
 20
50.7657
 11
-2.3291
 21
50.5194
  0
LINE
  8
0
 10
-2.3291
 20
50.5194
 11
-2.24716
 21
45.7175
  0
LINE
  8
0
 10
-2.24716
 20
45.7175
 11
-1.96426
 21
45.5151
  0
LINE
  8
0
 10
-1.96426
 20
45.5151
 11
-1.62277
 21
45.8237
  0
LINE
  8
0
 10
-1.62277
 20
45.8237
 11
-1.5477
 21
47.5298
  0
LINE
  8
0
 10
-1.5477
 20
47.5298
 11
0.131378
 21
47.5298
  0
LINE
  8
0
 10
0.131378
 20
47.5298
 11
0.0338745
 21
45.2849
  0
LINE
  8
0
 10
0.0338745
 20
45.2849
 11
-0.314941
 21
44.5872
  0
LINE
  8
0
 10
-0.314941
 20
44.5872
 11
-1.2291
 21
43.9015
  0
LINE
  8
0
 10
-1.2291
 20
43.9015
 11
-2.85095
 21
44.0096
  0
LINE
  8
0
 10
-2.85095
 20
44.0096
 11
-3.56461
 21
44.6042
  0
LINE
  8
0
 10
-3.56461
 20
44.6042
 11
-3.9949
 21
45.5724
  0
LINE
  8
0
 10
-3.9949
 20
45.5724
 11
-3.9949
 21
55.0655
  0
LINE
  8
0
 10
-3.9949
 20
55.0655
 11
-3.56232
 21
56.1472
  0
LINE
  8
0
 10
-3.56232
 20
56.1472
 11
-2.54883
 21
56.8228
  0
LINE
  8
0
 10
-2.54883
 20
56.8228
 11
-1.32431
 21
56.8228
  0
LINE
  8
0
 10
-1.32431
 20
56.8228
 11
-0.411072
 21
56.252
  0
LINE
  8
0
 10
-0.411072
 20
56.252
 11
0.154724
 21
55.119
  0
LINE
  8
0
 10
0.154724
 20
55.119
 11
-0.0544739
 21
54.2809
  0
LINE
  8
0
 10
-0.0544739
 20
54.2809
 11
-1.40121
 21
54.2809
  0
LINE
  8
0
 10
-1.40121
 20
54.2809
 11
-1.71707
 21
55.1241
  0
LINE
  8
0
 10
-1.71707
 20
55.1241
 11
-1.88828
 21
55.2271
  0
LINE
  8
0
 10
-1.88828
 20
55.2271
 11
-2.11899
 21
55.1881
  0
LINE
  8
0
 10
-2.11899
 20
55.1881
 11
-2.33185
 21
54.9757
  0
LINE
  8
0
 10
-2.33185
 20
54.9757
 11
-2.33185
 21
52.4553
  0
LINE
  8
0
 10
-2.33185
 20
52.4553
 11
-1.13983
 21
52.5253
  0
LINE
  8
0
 10
-1.13983
 20
52.5253
 11
-0.216064
 21
51.8323
  0
LINE
  8
0
 10
-0.216064
 20
51.8323
 11
-0.0402832
 21
51.4221
  0
LINE
  8
0
 10
-0.0402832
 20
51.4221
 11
-0.0402832
 21
52.6924
  0
LINE
  8
0
 10
-0.0402832
 20
52.6924
 11
3.9949
 21
52.6924
  0
LINE
  8
0
 10
3.9949
 20
52.6924
 11
3.99536
 21
50.7208
  0
LINE
  8
0
 10
3.99536
 20
50.7208
 11
1.81091
 21
39.2538
  0
LINE
  8
0
 10
1.81091
 20
39.2538
 11
0.224304
 21
39.2538
  0
LINE
  8
0
 10
8.66684
 20
41.4392
 11
8.05481
 21
42.4989
  0
LINE
  8
0
 10
8.05481
 20
42.4989
 11
8.09235
 21
43.576
  0
LINE
  8
0
 10
8.09235
 20
43.576
 11
8.79044
 21
44.6326
  0
LINE
  8
0
 10
8.79044
 20
44.6326
 11
9.62128
 21
44.8701
  0
LINE
  8
0
 10
9.62128
 20
44.8701
 11
10.2942
 21
43.7038
  0
LINE
  8
0
 10
10.2942
 20
43.7038
 11
9.72153
 21
43.0084
  0
LINE
  8
0
 10
9.72153
 20
43.0084
 11
9.71832
 21
42.8093
  0
LINE
  8
0
 10
9.71832
 20
42.8093
 11
9.8671
 21
42.6285
  0
LINE
  8
0
 10
9.8671
 20
42.6285
 11
10.1582
 21
42.5507
  0
LINE
  8
0
 10
10.1582
 20
42.5507
 11
12.3409
 21
43.8109
  0
LINE
  8
0
 10
12.3409
 20
43.8109
 11
11.6844
 21
44.807
  0
LINE
  8
0
 10
11.6844
 20
44.807
 11
11.8227
 21
45.9555
  0
LINE
  8
0
 10
11.8227
 20
45.9555
 11
12.0895
 21
46.3116
  0
LINE
  8
0
 10
12.0895
 20
46.3116
 11
10.9895
 21
45.6763
  0
LINE
  8
0
 10
10.9895
 20
45.6763
 11
8.97171
 21
49.1708
  0
LINE
  8
0
 10
8.97171
 20
49.1708
 11
10.6792
 21
50.1564
  0
LINE
  8
0
 10
10.6792
 20
50.1564
 11
21.7026
 21
53.9984
  0
LINE
  8
0
 10
21.7026
 20
53.9984
 11
22.495
 21
52.6251
  0
LINE
  8
0
 10
22.495
 20
52.6251
 11
11.3017
 21
48.6018
  0
LINE
  8
0
 10
11.3017
 20
48.6018
 11
12.3399
 21
46.6454
  0
LINE
  8
0
 10
12.3399
 20
46.6454
 11
12.3468
 21
46.6545
  0
LINE
  8
0
 10
12.3468
 20
46.6545
 11
14.2021
 21
47.7293
  0
LINE
  8
0
 10
14.2021
 20
47.7293
 11
15.0412
 21
46.2755
  0
LINE
  8
0
 10
15.0412
 20
46.2755
 11
13.6652
 21
45.3943
  0
LINE
  8
0
 10
13.6652
 20
45.3943
 11
13.553
 21
45.0903
  0
LINE
  8
0
 10
13.553
 20
45.0903
 11
13.7
 21
44.8354
  0
LINE
  8
0
 10
13.7
 20
44.8354
 11
14.0158
 21
44.7809
  0
LINE
  8
0
 10
14.0158
 20
44.7809
 11
18.1339
 21
47.2528
  0
LINE
  8
0
 10
18.1339
 20
47.2528
 11
18.1673
 21
47.5998
  0
LINE
  8
0
 10
18.1673
 20
47.5998
 11
17.7287
 21
47.7408
  0
LINE
  8
0
 10
17.7287
 20
47.7408
 11
16.2144
 21
46.9525
  0
LINE
  8
0
 10
16.2144
 20
46.9525
 11
15.3745
 21
48.4059
  0
LINE
  8
0
 10
15.3745
 20
48.4059
 11
17.3666
 21
49.4437
  0
LINE
  8
0
 10
17.3666
 20
49.4437
 11
18.1462
 21
49.4908
  0
LINE
  8
0
 10
18.1462
 20
49.4908
 11
19.1972
 21
49.0417
  0
LINE
  8
0
 10
19.1972
 20
49.0417
 11
19.9146
 21
47.5838
  0
LINE
  8
0
 10
19.9146
 20
47.5838
 11
19.7566
 21
46.6687
  0
LINE
  8
0
 10
19.7566
 20
46.6687
 11
19.1327
 21
45.8113
  0
LINE
  8
0
 10
19.1327
 20
45.8113
 11
10.9117
 21
41.0652
  0
LINE
  8
0
 10
10.9117
 20
41.0652
 11
9.75952
 21
40.899
  0
LINE
  8
0
 10
9.75952
 20
40.899
 11
8.66684
 21
41.4392
  0
LINE
  8
0
 10
-45.6725
 20
51.428
 11
-38.2974
 21
53.9984
  0
LINE
  8
0
 10
-38.2974
 20
53.9984
 11
-37.505
 21
52.6251
  0
LINE
  8
0
 10
-37.505
 20
52.6251
 11
-46.3121
 21
49.4595
  0
LINE
  8
0
 10
-46.3121
 20
49.4595
 11
-45.6725
 21
51.428
  0
LINE
  8
0
 10
-21.3332
 20
41.4392
 11
-21.9452
 21
42.4989
  0
LINE
  8
0
 10
-21.9452
 20
42.4989
 11
-21.9077
 21
43.576
  0
LINE
  8
0
 10
-21.9077
 20
43.576
 11
-21.2096
 21
44.6326
  0
LINE
  8
0
 10
-21.2096
 20
44.6326
 11
-20.3787
 21
44.8701
  0
LINE
  8
0
 10
-20.3787
 20
44.8701
 11
-19.7058
 21
43.7038
  0
LINE
  8
0
 10
-19.7058
 20
43.7038
 11
-20.2785
 21
43.0084
  0
LINE
  8
0
 10
-20.2785
 20
43.0084
 11
-20.2817
 21
42.8093
  0
LINE
  8
0
 10
-20.2817
 20
42.8093
 11
-20.1329
 21
42.6285
  0
LINE
  8
0
 10
-20.1329
 20
42.6285
 11
-19.8418
 21
42.5507
  0
LINE
  8
0
 10
-19.8418
 20
42.5507
 11
-17.6591
 21
43.8109
  0
LINE
  8
0
 10
-17.6591
 20
43.8109
 11
-18.3156
 21
44.807
  0
LINE
  8
0
 10
-18.3156
 20
44.807
 11
-18.1773
 21
45.9555
  0
LINE
  8
0
 10
-18.1773
 20
45.9555
 11
-17.9105
 21
46.3116
  0
LINE
  8
0
 10
-17.9105
 20
46.3116
 11
-19.0105
 21
45.6763
  0
LINE
  8
0
 10
-19.0105
 20
45.6763
 11
-21.0283
 21
49.1708
  0
LINE
  8
0
 10
-21.0283
 20
49.1708
 11
-19.3208
 21
50.1564
  0
LINE
  8
0
 10
-19.3208
 20
50.1564
 11
-8.29742
 21
53.9984
  0
LINE
  8
0
 10
-8.29742
 20
53.9984
 11
-7.50504
 21
52.6251
  0
LINE
  8
0
 10
-7.50504
 20
52.6251
 11
-18.6983
 21
48.6018
  0
LINE
  8
0
 10
-18.6983
 20
48.6018
 11
-17.6601
 21
46.6454
  0
LINE
  8
0
 10
-17.6601
 20
46.6454
 11
-17.6532
 21
46.6545
  0
LINE
  8
0
 10
-17.6532
 20
46.6545
 11
-15.7979
 21
47.7293
  0
LINE
  8
0
 10
-15.7979
 20
47.7293
 11
-14.9588
 21
46.2755
  0
LINE
  8
0
 10
-14.9588
 20
46.2755
 11
-16.3348
 21
45.3943
  0
LINE
  8
0
 10
-16.3348
 20
45.3943
 11
-16.447
 21
45.0903
  0
LINE
  8
0
 10
-16.447
 20
45.0903
 11
-16.3
 21
44.8354
  0
LINE
  8
0
 10
-16.3
 20
44.8354
 11
-15.9842
 21
44.7809
  0
LINE
  8
0
 10
-15.9842
 20
44.7809
 11
-11.8661
 21
47.2528
  0
LINE
  8
0
 10
-11.8661
 20
47.2528
 11
-11.8327
 21
47.5998
  0
LINE
  8
0
 10
-11.8327
 20
47.5998
 11
-12.2713
 21
47.7408
  0
LINE
  8
0
 10
-12.2713
 20
47.7408
 11
-13.7856
 21
46.9525
  0
LINE
  8
0
 10
-13.7856
 20
46.9525
 11
-14.6255
 21
48.4059
  0
LINE
  8
0
 10
-14.6255
 20
48.4059
 11
-12.6334
 21
49.4437
  0
LINE
  8
0
 10
-12.6334
 20
49.4437
 11
-11.8538
 21
49.4908
  0
LINE
  8
0
 10
-11.8538
 20
49.4908
 11
-10.8028
 21
49.0417
  0
LINE
  8
0
 10
-10.8028
 20
49.0417
 11
-10.0854
 21
47.5838
  0
LINE
  8
0
 10
-10.0854
 20
47.5838
 11
-10.2434
 21
46.6687
  0
LINE
  8
0
 10
-10.2434
 20
46.6687
 11
-10.8673
 21
45.8113
  0
LINE
  8
0
 10
-10.8673
 20
45.8113
 11
-19.0883
 21
41.0652
  0
LINE
  8
0
 10
-19.0883
 20
41.0652
 11
-20.2405
 21
40.899
  0
LINE
  8
0
 10
-20.2405
 20
40.899
 11
-21.3332
 21
41.4392
  0
LINE
  8
0
 10
38.6668
 20
41.4392
 11
38.0548
 21
42.4989
  0
LINE
  8
0
 10
38.0548
 20
42.4989
 11
38.0923
 21
43.576
  0
LINE
  8
0
 10
38.0923
 20
43.576
 11
38.7904
 21
44.6326
  0
LINE
  8
0
 10
38.7904
 20
44.6326
 11
39.6213
 21
44.8701
  0
LINE
  8
0
 10
39.6213
 20
44.8701
 11
40.2942
 21
43.7038
  0
LINE
  8
0
 10
40.2942
 20
43.7038
 11
39.7215
 21
43.0084
  0
LINE
  8
0
 10
39.7215
 20
43.0084
 11
39.7183
 21
42.8093
  0
LINE
  8
0
 10
39.7183
 20
42.8093
 11
39.8671
 21
42.6285
  0
LINE
  8
0
 10
39.8671
 20
42.6285
 11
40.1582
 21
42.5507
  0
LINE
  8
0
 10
40.1582
 20
42.5507
 11
42.3409
 21
43.8109
  0
LINE
  8
0
 10
42.3409
 20
43.8109
 11
41.6844
 21
44.807
  0
LINE
  8
0
 10
41.6844
 20
44.807
 11
41.8227
 21
45.9555
  0
LINE
  8
0
 10
41.8227
 20
45.9555
 11
42.0895
 21
46.3116
  0
LINE
  8
0
 10
42.0895
 20
46.3116
 11
40.9895
 21
45.6763
  0
LINE
  8
0
 10
40.9895
 20
45.6763
 11
38.9717
 21
49.1708
  0
LINE
  8
0
 10
38.9717
 20
49.1708
 11
40.6792
 21
50.1564
  0
LINE
  8
0
 10
40.6792
 20
50.1564
 11
45.5357
 21
51.849
  0
LINE
  8
0
 10
45.5357
 20
51.849
 11
46.0377
 21
50.3041
  0
LINE
  8
0
 10
46.0377
 20
50.3041
 11
41.3017
 21
48.6018
  0
LINE
  8
0
 10
41.3017
 20
48.6018
 11
42.3399
 21
46.6454
  0
LINE
  8
0
 10
42.3399
 20
46.6454
 11
42.3468
 21
46.6545
  0
LINE
  8
0
 10
42.3468
 20
46.6545
 11
44.2021
 21
47.7293
  0
LINE
  8
0
 10
44.2021
 20
47.7293
 11
45.0412
 21
46.2755
  0
LINE
  8
0
 10
45.0412
 20
46.2755
 11
43.6652
 21
45.3943
  0
LINE
  8
0
 10
43.6652
 20
45.3943
 11
43.553
 21
45.0903
  0
LINE
  8
0
 10
43.553
 20
45.0903
 11
43.7
 21
44.8354
  0
LINE
  8
0
 10
43.7
 20
44.8354
 11
44.0158
 21
44.7809
  0
LINE
  8
0
 10
44.0158
 20
44.7809
 11
47.2094
 21
46.6979
  0
LINE
  8
0
 10
47.2094
 20
46.6979
 11
47.7557
 21
45.0164
  0
LINE
  8
0
 10
47.7557
 20
45.0164
 11
40.9117
 21
41.0652
  0
LINE
  8
0
 10
40.9117
 20
41.0652
 11
39.7595
 21
40.899
  0
LINE
  8
0
 10
39.7595
 20
40.899
 11
38.6668
 21
41.4392
  0
LINE
  8
0
 10
-48.2602
 20
43.4639
 11
-47.6591
 21
43.8109
  0
LINE
  8
0
 10
-47.6591
 20
43.8109
 11
-47.9862
 21
44.3071
  0
LINE
  8
0
 10
-47.9862
 20
44.3071
 11
-47.1238
 21
46.9612
  0
LINE
  8
0
 10
-47.1238
 20
46.9612
 11
-45.7979
 21
47.7293
  0
LINE
  8
0
 10
-45.7979
 20
47.7293
 11
-44.9588
 21
46.2755
  0
LINE
  8
0
 10
-44.9588
 20
46.2755
 11
-46.3348
 21
45.3943
  0
LINE
  8
0
 10
-46.3348
 20
45.3943
 11
-46.447
 21
45.0903
  0
LINE
  8
0
 10
-46.447
 20
45.0903
 11
-46.3
 21
44.8354
  0
LINE
  8
0
 10
-46.3
 20
44.8354
 11
-45.9842
 21
44.7809
  0
LINE
  8
0
 10
-45.9842
 20
44.7809
 11
-41.8661
 21
47.2528
  0
LINE
  8
0
 10
-41.8661
 20
47.2528
 11
-41.8327
 21
47.5998
  0
LINE
  8
0
 10
-41.8327
 20
47.5998
 11
-42.2713
 21
47.7408
  0
LINE
  8
0
 10
-42.2713
 20
47.7408
 11
-43.7856
 21
46.9525
  0
LINE
  8
0
 10
-43.7856
 20
46.9525
 11
-44.6255
 21
48.4059
  0
LINE
  8
0
 10
-44.6255
 20
48.4059
 11
-42.6334
 21
49.4437
  0
LINE
  8
0
 10
-42.6334
 20
49.4437
 11
-41.8538
 21
49.4908
  0
LINE
  8
0
 10
-41.8538
 20
49.4908
 11
-40.8028
 21
49.0417
  0
LINE
  8
0
 10
-40.8028
 20
49.0417
 11
-40.0854
 21
47.5838
  0
LINE
  8
0
 10
-40.0854
 20
47.5838
 11
-40.2434
 21
46.6687
  0
LINE
  8
0
 10
-40.2434
 20
46.6687
 11
-40.8673
 21
45.8113
  0
LINE
  8
0
 10
-40.8673
 20
45.8113
 11
-49.0283
 21
41.0999
  0
LINE
  8
0
 10
-49.0283
 20
41.0999
 11
-48.2602
 21
43.4639
  0
LINE
  8
0
 10
45.3745
 20
48.4059
 11
46.4691
 21
48.9762
  0
LINE
  8
0
 10
46.4691
 20
48.9762
 11
46.9947
 21
47.3587
  0
LINE
  8
0
 10
46.9947
 20
47.3587
 11
46.2144
 21
46.9525
  0
LINE
  8
0
 10
46.2144
 20
46.9525
 11
45.3745
 21
48.4059
  0
LINE
  8
0
 10
-37.1741
 20
30.2469
 11
-46.013
 21
37.8723
  0
LINE
  8
0
 10
-46.013
 20
37.8723
 11
-45.2197
 21
39.2456
  0
LINE
  8
0
 10
-45.2197
 20
39.2456
 11
-36.1391
 21
31.563
  0
LINE
  8
0
 10
-36.1391
 20
31.563
 11
-34.9631
 21
33.4407
  0
LINE
  8
0
 10
-34.9631
 20
33.4407
 11
-34.9759
 21
33.4425
  0
LINE
  8
0
 10
-34.9759
 20
33.4425
 11
-36.833
 21
34.511
  0
LINE
  8
0
 10
-36.833
 20
34.511
 11
-35.9935
 21
35.9653
  0
LINE
  8
0
 10
-35.9935
 20
35.9653
 11
-34.5428
 21
35.2136
  0
LINE
  8
0
 10
-34.5428
 20
35.2136
 11
-34.2233
 21
35.269
  0
LINE
  8
0
 10
-34.2233
 20
35.269
 11
-34.0759
 21
35.524
  0
LINE
  8
0
 10
-34.0759
 20
35.524
 11
-34.1867
 21
35.8247
  0
LINE
  8
0
 10
-34.1867
 20
35.8247
 11
-38.3862
 21
38.1548
  0
LINE
  8
0
 10
-38.3862
 20
38.1548
 11
-38.7039
 21
38.0106
  0
LINE
  8
0
 10
-38.7039
 20
38.0106
 11
-38.6069
 21
37.5601
  0
LINE
  8
0
 10
-38.6069
 20
37.5601
 11
-37.1667
 21
36.6423
  0
LINE
  8
0
 10
-37.1667
 20
36.6423
 11
-38.0058
 21
35.1894
  0
LINE
  8
0
 10
-38.0058
 20
35.1894
 11
-39.901
 21
36.3956
  0
LINE
  8
0
 10
-39.901
 20
36.3956
 11
-40.3308
 21
37.0451
  0
LINE
  8
0
 10
-40.3308
 20
37.0451
 11
-40.4677
 21
38.1818
  0
LINE
  8
0
 10
-40.4677
 20
38.1818
 11
-39.5636
 21
39.5317
  0
LINE
  8
0
 10
-39.5636
 20
39.5317
 11
-38.6925
 21
39.8517
  0
LINE
  8
0
 10
-38.6925
 20
39.8517
 11
-37.6373
 21
39.74
  0
LINE
  8
0
 10
-37.6373
 20
39.74
 11
-29.4168
 21
34.9939
  0
LINE
  8
0
 10
-29.4168
 20
34.9939
 11
-28.6972
 21
34.0784
  0
LINE
  8
0
 10
-28.6972
 20
34.0784
 11
-28.6185
 21
32.8625
  0
LINE
  8
0
 10
-28.6185
 20
32.8625
 11
-29.2305
 21
31.8028
  0
LINE
  8
0
 10
-29.2305
 20
31.8028
 11
-30.1804
 21
31.2975
  0
LINE
  8
0
 10
-30.1804
 20
31.2975
 11
-31.4447
 21
31.3739
  0
LINE
  8
0
 10
-31.4447
 20
31.3739
 11
-32.0659
 21
31.9745
  0
LINE
  8
0
 10
-32.0659
 20
31.9745
 11
-31.3934
 21
33.14
  0
LINE
  8
0
 10
-31.3934
 20
33.14
 11
-30.5054
 21
32.9916
  0
LINE
  8
0
 10
-30.5054
 20
32.9916
 11
-30.33
 21
33.0887
  0
LINE
  8
0
 10
-30.33
 20
33.0887
 11
-30.2481
 21
33.3084
  0
LINE
  8
0
 10
-30.2481
 20
33.3084
 11
-30.3259
 21
33.5986
  0
LINE
  8
0
 10
-30.3259
 20
33.5986
 11
-32.5095
 21
34.8584
  0
LINE
  8
0
 10
-32.5095
 20
34.8584
 11
-33.0441
 21
33.7918
  0
LINE
  8
0
 10
-33.0441
 20
33.7918
 11
-34.1057
 21
33.3382
  0
LINE
  8
0
 10
-34.1057
 20
33.3382
 11
-34.5497
 21
33.3908
  0
LINE
  8
0
 10
-34.5497
 20
33.3908
 11
-33.4492
 21
32.7559
  0
LINE
  8
0
 10
-33.4492
 20
32.7559
 11
-35.4671
 21
29.2613
  0
LINE
  8
0
 10
-35.4671
 20
29.2613
 11
-37.1741
 21
30.2469
  0
LINE
  8
0
 10
22.8259
 20
30.2469
 11
13.987
 21
37.8723
  0
LINE
  8
0
 10
13.987
 20
37.8723
 11
14.7803
 21
39.2456
  0
LINE
  8
0
 10
14.7803
 20
39.2456
 11
23.8609
 21
31.563
  0
LINE
  8
0
 10
23.8609
 20
31.563
 11
25.0369
 21
33.4407
  0
LINE
  8
0
 10
25.0369
 20
33.4407
 11
25.0241
 21
33.4425
  0
LINE
  8
0
 10
25.0241
 20
33.4425
 11
23.167
 21
34.511
  0
LINE
  8
0
 10
23.167
 20
34.511
 11
24.0065
 21
35.9653
  0
LINE
  8
0
 10
24.0065
 20
35.9653
 11
25.4572
 21
35.2136
  0
LINE
  8
0
 10
25.4572
 20
35.2136
 11
25.7767
 21
35.269
  0
LINE
  8
0
 10
25.7767
 20
35.269
 11
25.9241
 21
35.524
  0
LINE
  8
0
 10
25.9241
 20
35.524
 11
25.8133
 21
35.8247
  0
LINE
  8
0
 10
25.8133
 20
35.8247
 11
21.6138
 21
38.1548
  0
LINE
  8
0
 10
21.6138
 20
38.1548
 11
21.2961
 21
38.0106
  0
LINE
  8
0
 10
21.2961
 20
38.0106
 11
21.3931
 21
37.5601
  0
LINE
  8
0
 10
21.3931
 20
37.5601
 11
22.8333
 21
36.6423
  0
LINE
  8
0
 10
22.8333
 20
36.6423
 11
21.9942
 21
35.1894
  0
LINE
  8
0
 10
21.9942
 20
35.1894
 11
20.099
 21
36.3956
  0
LINE
  8
0
 10
20.099
 20
36.3956
 11
19.6692
 21
37.0451
  0
LINE
  8
0
 10
19.6692
 20
37.0451
 11
19.5323
 21
38.1818
  0
LINE
  8
0
 10
19.5323
 20
38.1818
 11
20.4364
 21
39.5317
  0
LINE
  8
0
 10
20.4364
 20
39.5317
 11
21.3075
 21
39.8517
  0
LINE
  8
0
 10
21.3075
 20
39.8517
 11
22.3627
 21
39.74
  0
LINE
  8
0
 10
22.3627
 20
39.74
 11
30.5832
 21
34.9939
  0
LINE
  8
0
 10
30.5832
 20
34.9939
 11
31.3028
 21
34.0784
  0
LINE
  8
0
 10
31.3028
 20
34.0784
 11
31.3815
 21
32.8625
  0
LINE
  8
0
 10
31.3815
 20
32.8625
 11
30.7695
 21
31.8028
  0
LINE
  8
0
 10
30.7695
 20
31.8028
 11
29.8196
 21
31.2975
  0
LINE
  8
0
 10
29.8196
 20
31.2975
 11
28.5553
 21
31.3739
  0
LINE
  8
0
 10
28.5553
 20
31.3739
 11
27.9341
 21
31.9745
  0
LINE
  8
0
 10
27.9341
 20
31.9745
 11
28.6066
 21
33.14
  0
LINE
  8
0
 10
28.6066
 20
33.14
 11
29.4946
 21
32.9916
  0
LINE
  8
0
 10
29.4946
 20
32.9916
 11
29.67
 21
33.0887
  0
LINE
  8
0
 10
29.67
 20
33.0887
 11
29.7519
 21
33.3084
  0
LINE
  8
0
 10
29.7519
 20
33.3084
 11
29.6741
 21
33.5986
  0
LINE
  8
0
 10
29.6741
 20
33.5986
 11
27.4905
 21
34.8584
  0
LINE
  8
0
 10
27.4905
 20
34.8584
 11
26.9559
 21
33.7918
  0
LINE
  8
0
 10
26.9559
 20
33.7918
 11
25.8943
 21
33.3382
  0
LINE
  8
0
 10
25.8943
 20
33.3382
 11
25.4503
 21
33.3908
  0
LINE
  8
0
 10
25.4503
 20
33.3908
 11
26.5508
 21
32.7559
  0
LINE
  8
0
 10
26.5508
 20
32.7559
 11
24.5329
 21
29.2613
  0
LINE
  8
0
 10
24.5329
 20
29.2613
 11
22.8259
 21
30.2469
  0
LINE
  8
0
 10
-7.17407
 20
30.2469
 11
-16.013
 21
37.8723
  0
LINE
  8
0
 10
-16.013
 20
37.8723
 11
-15.2197
 21
39.2456
  0
LINE
  8
0
 10
-15.2197
 20
39.2456
 11
-6.13907
 21
31.563
  0
LINE
  8
0
 10
-6.13907
 20
31.563
 11
-4.96307
 21
33.4407
  0
LINE
  8
0
 10
-4.96307
 20
33.4407
 11
-4.97589
 21
33.4425
  0
LINE
  8
0
 10
-4.97589
 20
33.4425
 11
-6.83304
 21
34.511
  0
LINE
  8
0
 10
-6.83304
 20
34.511
 11
-5.9935
 21
35.9653
  0
LINE
  8
0
 10
-5.9935
 20
35.9653
 11
-4.54285
 21
35.2136
  0
LINE
  8
0
 10
-4.54285
 20
35.2136
 11
-4.22333
 21
35.269
  0
LINE
  8
0
 10
-4.22333
 20
35.269
 11
-4.07593
 21
35.524
  0
LINE
  8
0
 10
-4.07593
 20
35.524
 11
-4.18671
 21
35.8247
  0
LINE
  8
0
 10
-4.18671
 20
35.8247
 11
-8.38623
 21
38.1548
  0
LINE
  8
0
 10
-8.38623
 20
38.1548
 11
-8.70392
 21
38.0106
  0
LINE
  8
0
 10
-8.70392
 20
38.0106
 11
-8.60687
 21
37.5601
  0
LINE
  8
0
 10
-8.60687
 20
37.5601
 11
-7.16675
 21
36.6423
  0
LINE
  8
0
 10
-7.16675
 20
36.6423
 11
-8.00583
 21
35.1894
  0
LINE
  8
0
 10
-8.00583
 20
35.1894
 11
-9.90097
 21
36.3956
  0
LINE
  8
0
 10
-9.90097
 20
36.3956
 11
-10.3308
 21
37.0451
  0
LINE
  8
0
 10
-10.3308
 20
37.0451
 11
-10.4677
 21
38.1818
  0
LINE
  8
0
 10
-10.4677
 20
38.1818
 11
-9.5636
 21
39.5317
  0
LINE
  8
0
 10
-9.5636
 20
39.5317
 11
-8.69247
 21
39.8517
  0
LINE
  8
0
 10
-8.69247
 20
39.8517
 11
-7.63733
 21
39.74
  0
LINE
  8
0
 10
-7.63733
 20
39.74
 11
0.583191
 21
34.9939
  0
LINE
  8
0
 10
0.583191
 20
34.9939
 11
1.3028
 21
34.0784
  0
LINE
  8
0
 10
1.3028
 20
34.0784
 11
1.38153
 21
32.8625
  0
LINE
  8
0
 10
1.38153
 20
32.8625
 11
0.769501
 21
31.8028
  0
LINE
  8
0
 10
0.769501
 20
31.8028
 11
-0.180359
 21
31.2975
  0
LINE
  8
0
 10
-0.180359
 20
31.2975
 11
-1.4447
 21
31.3739
  0
LINE
  8
0
 10
-1.4447
 20
31.3739
 11
-2.06589
 21
31.9745
  0
LINE
  8
0
 10
-2.06589
 20
31.9745
 11
-1.39343
 21
33.14
  0
LINE
  8
0
 10
-1.39343
 20
33.14
 11
-0.505371
 21
32.9916
  0
LINE
  8
0
 10
-0.505371
 20
32.9916
 11
-0.330048
 21
33.0887
  0
LINE
  8
0
 10
-0.330048
 20
33.0887
 11
-0.248108
 21
33.3084
  0
LINE
  8
0
 10
-0.248108
 20
33.3084
 11
-0.325928
 21
33.5986
  0
LINE
  8
0
 10
-0.325928
 20
33.5986
 11
-2.50946
 21
34.8584
  0
LINE
  8
0
 10
-2.50946
 20
34.8584
 11
-3.04413
 21
33.7918
  0
LINE
  8
0
 10
-3.04413
 20
33.7918
 11
-4.10568
 21
33.3382
  0
LINE
  8
0
 10
-4.10568
 20
33.3382
 11
-4.54971
 21
33.3908
  0
LINE
  8
0
 10
-4.54971
 20
33.3908
 11
-3.44925
 21
32.7559
  0
LINE
  8
0
 10
-3.44925
 20
32.7559
 11
-5.46707
 21
29.2613
  0
LINE
  8
0
 10
-5.46707
 20
29.2613
 11
-7.17407
 21
30.2469
  0
LINE
  8
0
 10
43.987
 20
37.8723
 11
44.7803
 21
39.2456
  0
LINE
  8
0
 10
44.7803
 20
39.2456
 11
51.4697
 21
33.5861
  0
LINE
  8
0
 10
51.4697
 20
33.5861
 11
52.449
 21
30.5721
  0
LINE
  8
0
 10
52.449
 20
30.5721
 11
43.987
 21
37.8723
  0
LINE
  8
0
 10
50.099
 20
36.3956
 11
49.6692
 21
37.0451
  0
LINE
  8
0
 10
49.6692
 20
37.0451
 11
49.5323
 21
38.1818
  0
LINE
  8
0
 10
49.5323
 20
38.1818
 11
49.8314
 21
38.6283
  0
LINE
  8
0
 10
49.8314
 20
38.6283
 11
50.6762
 21
36.0282
  0
LINE
  8
0
 10
50.6762
 20
36.0282
 11
50.099
 21
36.3956
  0
LINE
  8
0
 10
-14.7757
 20
13.273
 11
-12.6627
 21
24.9785
  0
LINE
  8
0
 10
-12.6627
 20
24.9785
 11
-14.8764
 21
25.0577
  0
LINE
  8
0
 10
-14.8764
 20
25.0577
 11
-14.8718
 21
25.0471
  0
LINE
  8
0
 10
-14.8718
 20
25.0471
 11
-14.8686
 21
22.9034
  0
LINE
  8
0
 10
-14.8686
 20
22.9034
 11
-16.5477
 21
22.9034
  0
LINE
  8
0
 10
-16.5477
 20
22.9034
 11
-16.6228
 21
24.5354
  0
LINE
  8
0
 10
-16.6228
 20
24.5354
 11
-16.8297
 21
24.7849
  0
LINE
  8
0
 10
-16.8297
 20
24.7849
 11
-17.124
 21
24.7849
  0
LINE
  8
0
 10
-17.124
 20
24.7849
 11
-17.3291
 21
24.5386
  0
LINE
  8
0
 10
-17.3291
 20
24.5386
 11
-17.2472
 21
19.7366
  0
LINE
  8
0
 10
-17.2472
 20
19.7366
 11
-16.9643
 21
19.5343
  0
LINE
  8
0
 10
-16.9643
 20
19.5343
 11
-16.6228
 21
19.8428
  0
LINE
  8
0
 10
-16.6228
 20
19.8428
 11
-16.5477
 21
21.5489
  0
LINE
  8
0
 10
-16.5477
 20
21.5489
 11
-14.8686
 21
21.5489
  0
LINE
  8
0
 10
-14.8686
 20
21.5489
 11
-14.9661
 21
19.304
  0
LINE
  8
0
 10
-14.9661
 20
19.304
 11
-15.3149
 21
18.6064
  0
LINE
  8
0
 10
-15.3149
 20
18.6064
 11
-16.2291
 21
17.9207
  0
LINE
  8
0
 10
-16.2291
 20
17.9207
 11
-17.851
 21
18.0287
  0
LINE
  8
0
 10
-17.851
 20
18.0287
 11
-18.5646
 21
18.6234
  0
LINE
  8
0
 10
-18.5646
 20
18.6234
 11
-18.9949
 21
19.5915
  0
LINE
  8
0
 10
-18.9949
 20
19.5915
 11
-18.9949
 21
29.0846
  0
LINE
  8
0
 10
-18.9949
 20
29.0846
 11
-18.5623
 21
30.1663
  0
LINE
  8
0
 10
-18.5623
 20
30.1663
 11
-17.5488
 21
30.842
  0
LINE
  8
0
 10
-17.5488
 20
30.842
 11
-16.3243
 21
30.842
  0
LINE
  8
0
 10
-16.3243
 20
30.842
 11
-15.4111
 21
30.2711
  0
LINE
  8
0
 10
-15.4111
 20
30.2711
 11
-14.8453
 21
29.1382
  0
LINE
  8
0
 10
-14.8453
 20
29.1382
 11
-15.0545
 21
28.3
  0
LINE
  8
0
 10
-15.0545
 20
28.3
 11
-16.4012
 21
28.3
  0
LINE
  8
0
 10
-16.4012
 20
28.3
 11
-16.7171
 21
29.1432
  0
LINE
  8
0
 10
-16.7171
 20
29.1432
 11
-16.8883
 21
29.2462
  0
LINE
  8
0
 10
-16.8883
 20
29.2462
 11
-17.119
 21
29.2073
  0
LINE
  8
0
 10
-17.119
 20
29.2073
 11
-17.3318
 21
28.9949
  0
LINE
  8
0
 10
-17.3318
 20
28.9949
 11
-17.3318
 21
26.4745
  0
LINE
  8
0
 10
-17.3318
 20
26.4745
 11
-16.1398
 21
26.5445
  0
LINE
  8
0
 10
-16.1398
 20
26.5445
 11
-15.2161
 21
25.8514
  0
LINE
  8
0
 10
-15.2161
 20
25.8514
 11
-15.0403
 21
25.4413
  0
LINE
  8
0
 10
-15.0403
 20
25.4413
 11
-15.0403
 21
26.7116
  0
LINE
  8
0
 10
-15.0403
 20
26.7116
 11
-11.0051
 21
26.7116
  0
LINE
  8
0
 10
-11.0051
 20
26.7116
 11
-11.0046
 21
24.74
  0
LINE
  8
0
 10
-11.0046
 20
24.74
 11
-13.1891
 21
13.273
  0
LINE
  8
0
 10
-13.1891
 20
13.273
 11
-14.7757
 21
13.273
  0
LINE
  8
0
 10
-44.7757
 20
13.273
 11
-42.6627
 21
24.9785
  0
LINE
  8
0
 10
-42.6627
 20
24.9785
 11
-44.8764
 21
25.0577
  0
LINE
  8
0
 10
-44.8764
 20
25.0577
 11
-44.8718
 21
25.0471
  0
LINE
  8
0
 10
-44.8718
 20
25.0471
 11
-44.8686
 21
22.9034
  0
LINE
  8
0
 10
-44.8686
 20
22.9034
 11
-46.5477
 21
22.9034
  0
LINE
  8
0
 10
-46.5477
 20
22.9034
 11
-46.6228
 21
24.5354
  0
LINE
  8
0
 10
-46.6228
 20
24.5354
 11
-46.8297
 21
24.7849
  0
LINE
  8
0
 10
-46.8297
 20
24.7849
 11
-47.124
 21
24.7849
  0
LINE
  8
0
 10
-47.124
 20
24.7849
 11
-47.3291
 21
24.5386
  0
LINE
  8
0
 10
-47.3291
 20
24.5386
 11
-47.2472
 21
19.7366
  0
LINE
  8
0
 10
-47.2472
 20
19.7366
 11
-46.9643
 21
19.5343
  0
LINE
  8
0
 10
-46.9643
 20
19.5343
 11
-46.6228
 21
19.8428
  0
LINE
  8
0
 10
-46.6228
 20
19.8428
 11
-46.5477
 21
21.5489
  0
LINE
  8
0
 10
-46.5477
 20
21.5489
 11
-44.8686
 21
21.5489
  0
LINE
  8
0
 10
-44.8686
 20
21.5489
 11
-44.9661
 21
19.304
  0
LINE
  8
0
 10
-44.9661
 20
19.304
 11
-45.3149
 21
18.6064
  0
LINE
  8
0
 10
-45.3149
 20
18.6064
 11
-46.2291
 21
17.9207
  0
LINE
  8
0
 10
-46.2291
 20
17.9207
 11
-47.851
 21
18.0287
  0
LINE
  8
0
 10
-47.851
 20
18.0287
 11
-48.5646
 21
18.6234
  0
LINE
  8
0
 10
-48.5646
 20
18.6234
 11
-48.9949
 21
19.5915
  0
LINE
  8
0
 10
-48.9949
 20
19.5915
 11
-48.9949
 21
29.0846
  0
LINE
  8
0
 10
-48.9949
 20
29.0846
 11
-48.5623
 21
30.1663
  0
LINE
  8
0
 10
-48.5623
 20
30.1663
 11
-47.5488
 21
30.842
  0
LINE
  8
0
 10
-47.5488
 20
30.842
 11
-46.3243
 21
30.842
  0
LINE
  8
0
 10
-46.3243
 20
30.842
 11
-45.4111
 21
30.2711
  0
LINE
  8
0
 10
-45.4111
 20
30.2711
 11
-44.8453
 21
29.1382
  0
LINE
  8
0
 10
-44.8453
 20
29.1382
 11
-45.0545
 21
28.3
  0
LINE
  8
0
 10
-45.0545
 20
28.3
 11
-46.4012
 21
28.3
  0
LINE
  8
0
 10
-46.4012
 20
28.3
 11
-46.7171
 21
29.1432
  0
LINE
  8
0
 10
-46.7171
 20
29.1432
 11
-46.8883
 21
29.2462
  0
LINE
  8
0
 10
-46.8883
 20
29.2462
 11
-47.119
 21
29.2073
  0
LINE
  8
0
 10
-47.119
 20
29.2073
 11
-47.3318
 21
28.9949
  0
LINE
  8
0
 10
-47.3318
 20
28.9949
 11
-47.3318
 21
26.4745
  0
LINE
  8
0
 10
-47.3318
 20
26.4745
 11
-46.1398
 21
26.5445
  0
LINE
  8
0
 10
-46.1398
 20
26.5445
 11
-45.2161
 21
25.8514
  0
LINE
  8
0
 10
-45.2161
 20
25.8514
 11
-45.0403
 21
25.4413
  0
LINE
  8
0
 10
-45.0403
 20
25.4413
 11
-45.0403
 21
26.7116
  0
LINE
  8
0
 10
-45.0403
 20
26.7116
 11
-41.0051
 21
26.7116
  0
LINE
  8
0
 10
-41.0051
 20
26.7116
 11
-41.0046
 21
24.74
  0
LINE
  8
0
 10
-41.0046
 20
24.74
 11
-43.1891
 21
13.273
  0
LINE
  8
0
 10
-43.1891
 20
13.273
 11
-44.7757
 21
13.273
  0
LINE
  8
0
 10
15.2243
 20
13.273
 11
17.3373
 21
24.9785
  0
LINE
  8
0
 10
17.3373
 20
24.9785
 11
15.1236
 21
25.0577
  0
LINE
  8
0
 10
15.1236
 20
25.0577
 11
15.1282
 21
25.0471
  0
LINE
  8
0
 10
15.1282
 20
25.0471
 11
15.1314
 21
22.9034
  0
LINE
  8
0
 10
15.1314
 20
22.9034
 11
13.4523
 21
22.9034
  0
LINE
  8
0
 10
13.4523
 20
22.9034
 11
13.3772
 21
24.5354
  0
LINE
  8
0
 10
13.3772
 20
24.5354
 11
13.1703
 21
24.7849
  0
LINE
  8
0
 10
13.1703
 20
24.7849
 11
12.876
 21
24.7849
  0
LINE
  8
0
 10
12.876
 20
24.7849
 11
12.6709
 21
24.5386
  0
LINE
  8
0
 10
12.6709
 20
24.5386
 11
12.7528
 21
19.7366
  0
LINE
  8
0
 10
12.7528
 20
19.7366
 11
13.0357
 21
19.5343
  0
LINE
  8
0
 10
13.0357
 20
19.5343
 11
13.3772
 21
19.8428
  0
LINE
  8
0
 10
13.3772
 20
19.8428
 11
13.4523
 21
21.5489
  0
LINE
  8
0
 10
13.4523
 20
21.5489
 11
15.1314
 21
21.5489
  0
LINE
  8
0
 10
15.1314
 20
21.5489
 11
15.0339
 21
19.304
  0
LINE
  8
0
 10
15.0339
 20
19.304
 11
14.6851
 21
18.6064
  0
LINE
  8
0
 10
14.6851
 20
18.6064
 11
13.7709
 21
17.9207
  0
LINE
  8
0
 10
13.7709
 20
17.9207
 11
12.149
 21
18.0287
  0
LINE
  8
0
 10
12.149
 20
18.0287
 11
11.4354
 21
18.6234
  0
LINE
  8
0
 10
11.4354
 20
18.6234
 11
11.0051
 21
19.5915
  0
LINE
  8
0
 10
11.0051
 20
19.5915
 11
11.0051
 21
29.0846
  0
LINE
  8
0
 10
11.0051
 20
29.0846
 11
11.4377
 21
30.1663
  0
LINE
  8
0
 10
11.4377
 20
30.1663
 11
12.4512
 21
30.842
  0
LINE
  8
0
 10
12.4512
 20
30.842
 11
13.6757
 21
30.842
  0
LINE
  8
0
 10
13.6757
 20
30.842
 11
14.5889
 21
30.2711
  0
LINE
  8
0
 10
14.5889
 20
30.2711
 11
15.1547
 21
29.1382
  0
LINE
  8
0
 10
15.1547
 20
29.1382
 11
14.9455
 21
28.3
  0
LINE
  8
0
 10
14.9455
 20
28.3
 11
13.5988
 21
28.3
  0
LINE
  8
0
 10
13.5988
 20
28.3
 11
13.2829
 21
29.1432
  0
LINE
  8
0
 10
13.2829
 20
29.1432
 11
13.1117
 21
29.2462
  0
LINE
  8
0
 10
13.1117
 20
29.2462
 11
12.881
 21
29.2073
  0
LINE
  8
0
 10
12.881
 20
29.2073
 11
12.6682
 21
28.9949
  0
LINE
  8
0
 10
12.6682
 20
28.9949
 11
12.6682
 21
26.4745
  0
LINE
  8
0
 10
12.6682
 20
26.4745
 11
13.8602
 21
26.5445
  0
LINE
  8
0
 10
13.8602
 20
26.5445
 11
14.7839
 21
25.8514
  0
LINE
  8
0
 10
14.7839
 20
25.8514
 11
14.9597
 21
25.4413
  0
LINE
  8
0
 10
14.9597
 20
25.4413
 11
14.9597
 21
26.7116
  0
LINE
  8
0
 10
14.9597
 20
26.7116
 11
18.9949
 21
26.7116
  0
LINE
  8
0
 10
18.9949
 20
26.7116
 11
18.9954
 21
24.74
  0
LINE
  8
0
 10
18.9954
 20
24.74
 11
16.8109
 21
13.273
  0
LINE
  8
0
 10
16.8109
 20
13.273
 11
15.2243
 21
13.273
  0
LINE
  8
0
 10
45.2243
 20
13.273
 11
47.3373
 21
24.9785
  0
LINE
  8
0
 10
47.3373
 20
24.9785
 11
45.1236
 21
25.0577
  0
LINE
  8
0
 10
45.1236
 20
25.0577
 11
45.1282
 21
25.0471
  0
LINE
  8
0
 10
45.1282
 20
25.0471
 11
45.1314
 21
22.9034
  0
LINE
  8
0
 10
45.1314
 20
22.9034
 11
43.4523
 21
22.9034
  0
LINE
  8
0
 10
43.4523
 20
22.9034
 11
43.3772
 21
24.5354
  0
LINE
  8
0
 10
43.3772
 20
24.5354
 11
43.1703
 21
24.7849
  0
LINE
  8
0
 10
43.1703
 20
24.7849
 11
42.876
 21
24.7849
  0
LINE
  8
0
 10
42.876
 20
24.7849
 11
42.6709
 21
24.5386
  0
LINE
  8
0
 10
42.6709
 20
24.5386
 11
42.7528
 21
19.7366
  0
LINE
  8
0
 10
42.7528
 20
19.7366
 11
43.0357
 21
19.5343
  0
LINE
  8
0
 10
43.0357
 20
19.5343
 11
43.3772
 21
19.8428
  0
LINE
  8
0
 10
43.3772
 20
19.8428
 11
43.4523
 21
21.5489
  0
LINE
  8
0
 10
43.4523
 20
21.5489
 11
45.1314
 21
21.5489
  0
LINE
  8
0
 10
45.1314
 20
21.5489
 11
45.0339
 21
19.304
  0
LINE
  8
0
 10
45.0339
 20
19.304
 11
44.6851
 21
18.6064
  0
LINE
  8
0
 10
44.6851
 20
18.6064
 11
43.7709
 21
17.9207
  0
LINE
  8
0
 10
43.7709
 20
17.9207
 11
42.149
 21
18.0287
  0
LINE
  8
0
 10
42.149
 20
18.0287
 11
41.4354
 21
18.6234
  0
LINE
  8
0
 10
41.4354
 20
18.6234
 11
41.0051
 21
19.5915
  0
LINE
  8
0
 10
41.0051
 20
19.5915
 11
41.0051
 21
29.0846
  0
LINE
  8
0
 10
41.0051
 20
29.0846
 11
41.4377
 21
30.1663
  0
LINE
  8
0
 10
41.4377
 20
30.1663
 11
42.4512
 21
30.842
  0
LINE
  8
0
 10
42.4512
 20
30.842
 11
43.6757
 21
30.842
  0
LINE
  8
0
 10
43.6757
 20
30.842
 11
44.5889
 21
30.2711
  0
LINE
  8
0
 10
44.5889
 20
30.2711
 11
45.1547
 21
29.1382
  0
LINE
  8
0
 10
45.1547
 20
29.1382
 11
44.9455
 21
28.3
  0
LINE
  8
0
 10
44.9455
 20
28.3
 11
43.5988
 21
28.3
  0
LINE
  8
0
 10
43.5988
 20
28.3
 11
43.2829
 21
29.1432
  0
LINE
  8
0
 10
43.2829
 20
29.1432
 11
43.1117
 21
29.2462
  0
LINE
  8
0
 10
43.1117
 20
29.2462
 11
42.881
 21
29.2073
  0
LINE
  8
0
 10
42.881
 20
29.2073
 11
42.6682
 21
28.9949
  0
LINE
  8
0
 10
42.6682
 20
28.9949
 11
42.6682
 21
26.4745
  0
LINE
  8
0
 10
42.6682
 20
26.4745
 11
43.8602
 21
26.5445
  0
LINE
  8
0
 10
43.8602
 20
26.5445
 11
44.7839
 21
25.8514
  0
LINE
  8
0
 10
44.7839
 20
25.8514
 11
44.9597
 21
25.4413
  0
LINE
  8
0
 10
44.9597
 20
25.4413
 11
44.9597
 21
26.7116
  0
LINE
  8
0
 10
44.9597
 20
26.7116
 11
48.9949
 21
26.7116
  0
LINE
  8
0
 10
48.9949
 20
26.7116
 11
48.9954
 21
24.74
  0
LINE
  8
0
 10
48.9954
 20
24.74
 11
46.8109
 21
13.273
  0
LINE
  8
0
 10
46.8109
 20
13.273
 11
45.2243
 21
13.273
  0
LINE
  8
0
 10
23.6668
 20
15.4584
 11
23.0548
 21
16.5181
  0
LINE
  8
0
 10
23.0548
 20
16.5181
 11
23.0923
 21
17.5952
  0
LINE
  8
0
 10
23.0923
 20
17.5952
 11
23.7904
 21
18.6517
  0
LINE
  8
0
 10
23.7904
 20
18.6517
 11
24.6213
 21
18.8893
  0
LINE
  8
0
 10
24.6213
 20
18.8893
 11
25.2942
 21
17.7229
  0
LINE
  8
0
 10
25.2942
 20
17.7229
 11
24.7215
 21
17.0276
  0
LINE
  8
0
 10
24.7215
 20
17.0276
 11
24.7183
 21
16.8285
  0
LINE
  8
0
 10
24.7183
 20
16.8285
 11
24.8671
 21
16.6476
  0
LINE
  8
0
 10
24.8671
 20
16.6476
 11
25.1582
 21
16.5698
  0
LINE
  8
0
 10
25.1582
 20
16.5698
 11
27.3409
 21
17.83
  0
LINE
  8
0
 10
27.3409
 20
17.83
 11
26.6844
 21
18.8261
  0
LINE
  8
0
 10
26.6844
 20
18.8261
 11
26.8227
 21
19.9747
  0
LINE
  8
0
 10
26.8227
 20
19.9747
 11
27.0895
 21
20.3308
  0
LINE
  8
0
 10
27.0895
 20
20.3308
 11
25.9895
 21
19.6954
  0
LINE
  8
0
 10
25.9895
 20
19.6954
 11
23.9717
 21
23.19
  0
LINE
  8
0
 10
23.9717
 20
23.19
 11
25.6792
 21
24.1756
  0
LINE
  8
0
 10
25.6792
 20
24.1756
 11
36.7026
 21
28.0176
  0
LINE
  8
0
 10
36.7026
 20
28.0176
 11
37.495
 21
26.6443
  0
LINE
  8
0
 10
37.495
 20
26.6443
 11
26.3017
 21
22.621
  0
LINE
  8
0
 10
26.3017
 20
22.621
 11
27.3399
 21
20.6645
  0
LINE
  8
0
 10
27.3399
 20
20.6645
 11
27.3468
 21
20.6737
  0
LINE
  8
0
 10
27.3468
 20
20.6737
 11
29.2021
 21
21.7485
  0
LINE
  8
0
 10
29.2021
 20
21.7485
 11
30.0412
 21
20.2946
  0
LINE
  8
0
 10
30.0412
 20
20.2946
 11
28.6652
 21
19.4135
  0
LINE
  8
0
 10
28.6652
 20
19.4135
 11
28.553
 21
19.1095
  0
LINE
  8
0
 10
28.553
 20
19.1095
 11
28.7
 21
18.8545
  0
LINE
  8
0
 10
28.7
 20
18.8545
 11
29.0158
 21
18.8
  0
LINE
  8
0
 10
29.0158
 20
18.8
 11
33.1339
 21
21.272
  0
LINE
  8
0
 10
33.1339
 20
21.272
 11
33.1673
 21
21.619
  0
LINE
  8
0
 10
33.1673
 20
21.619
 11
32.7287
 21
21.7599
  0
LINE
  8
0
 10
32.7287
 20
21.7599
 11
31.2144
 21
20.9717
  0
LINE
  8
0
 10
31.2144
 20
20.9717
 11
30.3745
 21
22.4251
  0
LINE
  8
0
 10
30.3745
 20
22.4251
 11
32.3666
 21
23.4628
  0
LINE
  8
0
 10
32.3666
 20
23.4628
 11
33.1462
 21
23.51
  0
LINE
  8
0
 10
33.1462
 20
23.51
 11
34.1972
 21
23.0609
  0
LINE
  8
0
 10
34.1972
 20
23.0609
 11
34.9146
 21
21.6029
  0
LINE
  8
0
 10
34.9146
 20
21.6029
 11
34.7566
 21
20.6879
  0
LINE
  8
0
 10
34.7566
 20
20.6879
 11
34.1327
 21
19.8305
  0
LINE
  8
0
 10
34.1327
 20
19.8305
 11
25.9117
 21
15.0844
  0
LINE
  8
0
 10
25.9117
 20
15.0844
 11
24.7595
 21
14.9182
  0
LINE
  8
0
 10
24.7595
 20
14.9182
 11
23.6668
 21
15.4584
  0
LINE
  8
0
 10
-6.33316
 20
15.4584
 11
-6.94519
 21
16.5181
  0
LINE
  8
0
 10
-6.94519
 20
16.5181
 11
-6.90765
 21
17.5952
  0
LINE
  8
0
 10
-6.90765
 20
17.5952
 11
-6.20956
 21
18.6517
  0
LINE
  8
0
 10
-6.20956
 20
18.6517
 11
-5.37872
 21
18.8893
  0
LINE
  8
0
 10
-5.37872
 20
18.8893
 11
-4.70581
 21
17.7229
  0
LINE
  8
0
 10
-4.70581
 20
17.7229
 11
-5.27847
 21
17.0276
  0
LINE
  8
0
 10
-5.27847
 20
17.0276
 11
-5.28168
 21
16.8285
  0
LINE
  8
0
 10
-5.28168
 20
16.8285
 11
-5.1329
 21
16.6476
  0
LINE
  8
0
 10
-5.1329
 20
16.6476
 11
-4.84177
 21
16.5698
  0
LINE
  8
0
 10
-4.84177
 20
16.5698
 11
-2.65915
 21
17.83
  0
LINE
  8
0
 10
-2.65915
 20
17.83
 11
-3.31558
 21
18.8261
  0
LINE
  8
0
 10
-3.31558
 20
18.8261
 11
-3.17734
 21
19.9747
  0
LINE
  8
0
 10
-3.17734
 20
19.9747
 11
-2.91046
 21
20.3308
  0
LINE
  8
0
 10
-2.91046
 20
20.3308
 11
-4.01047
 21
19.6954
  0
LINE
  8
0
 10
-4.01047
 20
19.6954
 11
-6.02829
 21
23.19
  0
LINE
  8
0
 10
-6.02829
 20
23.19
 11
-4.32083
 21
24.1756
  0
LINE
  8
0
 10
-4.32083
 20
24.1756
 11
6.70258
 21
28.0176
  0
LINE
  8
0
 10
6.70258
 20
28.0176
 11
7.49496
 21
26.6443
  0
LINE
  8
0
 10
7.49496
 20
26.6443
 11
-3.69827
 21
22.621
  0
LINE
  8
0
 10
-3.69827
 20
22.621
 11
-2.66006
 21
20.6645
  0
LINE
  8
0
 10
-2.66006
 20
20.6645
 11
-2.6532
 21
20.6737
  0
LINE
  8
0
 10
-2.6532
 20
20.6737
 11
-0.797882
 21
21.7485
  0
LINE
  8
0
 10
-0.797882
 20
21.7485
 11
0.0411987
 21
20.2946
  0
LINE
  8
0
 10
0.0411987
 20
20.2946
 11
-1.33484
 21
19.4135
  0
LINE
  8
0
 10
-1.33484
 20
19.4135
 11
-1.44699
 21
19.1095
  0
LINE
  8
0
 10
-1.44699
 20
19.1095
 11
-1.30005
 21
18.8545
  0
LINE
  8
0
 10
-1.30005
 20
18.8545
 11
-0.984192
 21
18.8
  0
LINE
  8
0
 10
-0.984192
 20
18.8
 11
3.13385
 21
21.272
  0
LINE
  8
0
 10
3.13385
 20
21.272
 11
3.16727
 21
21.619
  0
LINE
  8
0
 10
3.16727
 20
21.619
 11
2.72873
 21
21.7599
  0
LINE
  8
0
 10
2.72873
 20
21.7599
 11
1.21445
 21
20.9717
  0
LINE
  8
0
 10
1.21445
 20
20.9717
 11
0.374451
 21
22.4251
  0
LINE
  8
0
 10
0.374451
 20
22.4251
 11
2.36664
 21
23.4628
  0
LINE
  8
0
 10
2.36664
 20
23.4628
 11
3.14621
 21
23.51
  0
LINE
  8
0
 10
3.14621
 20
23.51
 11
4.19724
 21
23.0609
  0
LINE
  8
0
 10
4.19724
 20
23.0609
 11
4.91455
 21
21.6029
  0
LINE
  8
0
 10
4.91455
 20
21.6029
 11
4.75662
 21
20.6879
  0
LINE
  8
0
 10
4.75662
 20
20.6879
 11
4.13269
 21
19.8305
  0
LINE
  8
0
 10
4.13269
 20
19.8305
 11
-4.08829
 21
15.0844
  0
LINE
  8
0
 10
-4.08829
 20
15.0844
 11
-5.24048
 21
14.9182
  0
LINE
  8
0
 10
-5.24048
 20
14.9182
 11
-6.33316
 21
15.4584
  0
LINE
  8
0
 10
-36.3332
 20
15.4584
 11
-36.9452
 21
16.5181
  0
LINE
  8
0
 10
-36.9452
 20
16.5181
 11
-36.9077
 21
17.5952
  0
LINE
  8
0
 10
-36.9077
 20
17.5952
 11
-36.2096
 21
18.6517
  0
LINE
  8
0
 10
-36.2096
 20
18.6517
 11
-35.3787
 21
18.8893
  0
LINE
  8
0
 10
-35.3787
 20
18.8893
 11
-34.7058
 21
17.7229
  0
LINE
  8
0
 10
-34.7058
 20
17.7229
 11
-35.2785
 21
17.0276
  0
LINE
  8
0
 10
-35.2785
 20
17.0276
 11
-35.2817
 21
16.8285
  0
LINE
  8
0
 10
-35.2817
 20
16.8285
 11
-35.1329
 21
16.6476
  0
LINE
  8
0
 10
-35.1329
 20
16.6476
 11
-34.8418
 21
16.5698
  0
LINE
  8
0
 10
-34.8418
 20
16.5698
 11
-32.6591
 21
17.83
  0
LINE
  8
0
 10
-32.6591
 20
17.83
 11
-33.3156
 21
18.8261
  0
LINE
  8
0
 10
-33.3156
 20
18.8261
 11
-33.1773
 21
19.9747
  0
LINE
  8
0
 10
-33.1773
 20
19.9747
 11
-32.9105
 21
20.3308
  0
LINE
  8
0
 10
-32.9105
 20
20.3308
 11
-34.0105
 21
19.6954
  0
LINE
  8
0
 10
-34.0105
 20
19.6954
 11
-36.0283
 21
23.19
  0
LINE
  8
0
 10
-36.0283
 20
23.19
 11
-34.3208
 21
24.1756
  0
LINE
  8
0
 10
-34.3208
 20
24.1756
 11
-23.2974
 21
28.0176
  0
LINE
  8
0
 10
-23.2974
 20
28.0176
 11
-22.505
 21
26.6443
  0
LINE
  8
0
 10
-22.505
 20
26.6443
 11
-33.6983
 21
22.621
  0
LINE
  8
0
 10
-33.6983
 20
22.621
 11
-32.6601
 21
20.6645
  0
LINE
  8
0
 10
-32.6601
 20
20.6645
 11
-32.6532
 21
20.6737
  0
LINE
  8
0
 10
-32.6532
 20
20.6737
 11
-30.7979
 21
21.7485
  0
LINE
  8
0
 10
-30.7979
 20
21.7485
 11
-29.9588
 21
20.2946
  0
LINE
  8
0
 10
-29.9588
 20
20.2946
 11
-31.3348
 21
19.4135
  0
LINE
  8
0
 10
-31.3348
 20
19.4135
 11
-31.447
 21
19.1095
  0
LINE
  8
0
 10
-31.447
 20
19.1095
 11
-31.3
 21
18.8545
  0
LINE
  8
0
 10
-31.3
 20
18.8545
 11
-30.9842
 21
18.8
  0
LINE
  8
0
 10
-30.9842
 20
18.8
 11
-26.8661
 21
21.272
  0
LINE
  8
0
 10
-26.8661
 20
21.272
 11
-26.8327
 21
21.619
  0
LINE
  8
0
 10
-26.8327
 20
21.619
 11
-27.2713
 21
21.7599
  0
LINE
  8
0
 10
-27.2713
 20
21.7599
 11
-28.7856
 21
20.9717
  0
LINE
  8
0
 10
-28.7856
 20
20.9717
 11
-29.6255
 21
22.4251
  0
LINE
  8
0
 10
-29.6255
 20
22.4251
 11
-27.6334
 21
23.4628
  0
LINE
  8
0
 10
-27.6334
 20
23.4628
 11
-26.8538
 21
23.51
  0
LINE
  8
0
 10
-26.8538
 20
23.51
 11
-25.8028
 21
23.0609
  0
LINE
  8
0
 10
-25.8028
 20
23.0609
 11
-25.0854
 21
21.6029
  0
LINE
  8
0
 10
-25.0854
 20
21.6029
 11
-25.2434
 21
20.6879
  0
LINE
  8
0
 10
-25.2434
 20
20.6879
 11
-25.8673
 21
19.8305
  0
LINE
  8
0
 10
-25.8673
 20
19.8305
 11
-34.0883
 21
15.0844
  0
LINE
  8
0
 10
-34.0883
 20
15.0844
 11
-35.2405
 21
14.9182
  0
LINE
  8
0
 10
-35.2405
 20
14.9182
 11
-36.3332
 21
15.4584
  0
LINE
  8
0
 10
-53.2856
 20
27.9971
 11
-52.505
 21
26.6443
  0
LINE
  8
0
 10
-52.505
 20
26.6443
 11
-53.8865
 21
26.1477
  0
LINE
  8
0
 10
-53.8865
 20
26.1477
 11
-53.2856
 21
27.9971
  0
LINE
  8
0
 10
53.9717
 20
23.19
 11
54.7092
 21
23.6157
  0
LINE
  8
0
 10
54.7092
 20
23.6157
 11
55.9746
 21
19.7212
  0
LINE
  8
0
 10
55.9746
 20
19.7212
 11
53.9717
 21
23.19
  0
LINE
  8
0
 10
-55.2527
 20
21.943
 11
-55.0854
 21
21.6029
  0
LINE
  8
0
 10
-55.0854
 20
21.6029
 11
-55.2434
 21
20.6879
  0
LINE
  8
0
 10
-55.2434
 20
20.6879
 11
-55.8673
 21
19.8305
  0
LINE
  8
0
 10
-55.8673
 20
19.8305
 11
-55.9557
 21
19.7794
  0
LINE
  8
0
 10
-55.9557
 20
19.7794
 11
-55.2527
 21
21.943
  0
LINE
  8
0
 10
53.6668
 20
15.4584
 11
53.0548
 21
16.5181
  0
LINE
  8
0
 10
53.0548
 20
16.5181
 11
53.0923
 21
17.5952
  0
LINE
  8
0
 10
53.0923
 20
17.5952
 11
53.7904
 21
18.6517
  0
LINE
  8
0
 10
53.7904
 20
18.6517
 11
54.6213
 21
18.8893
  0
LINE
  8
0
 10
54.6213
 20
18.8893
 11
55.2942
 21
17.7229
  0
LINE
  8
0
 10
55.2942
 20
17.7229
 11
54.7215
 21
17.0276
  0
LINE
  8
0
 10
54.7215
 20
17.0276
 11
54.7183
 21
16.8285
  0
LINE
  8
0
 10
54.7183
 20
16.8285
 11
54.8671
 21
16.6476
  0
LINE
  8
0
 10
54.8671
 20
16.6476
 11
55.1582
 21
16.5698
  0
LINE
  8
0
 10
55.1582
 20
16.5698
 11
56.7079
 21
17.4646
  0
LINE
  8
0
 10
56.7079
 20
17.4646
 11
57.2333
 21
15.8474
  0
LINE
  8
0
 10
57.2333
 20
15.8474
 11
55.9117
 21
15.0844
  0
LINE
  8
0
 10
55.9117
 20
15.0844
 11
54.7595
 21
14.9182
  0
LINE
  8
0
 10
54.7595
 20
14.9182
 11
53.6668
 21
15.4584
  0
LINE
  8
0
 10
4.55652
 20
12
 11
4.53232
 21
12.2009
  0
LINE
  8
0
 10
4.53232
 20
12.2009
 11
5.4364
 21
13.5509
  0
LINE
  8
0
 10
5.4364
 20
13.5509
 11
6.30753
 21
13.8708
  0
LINE
  8
0
 10
6.30753
 20
13.8708
 11
7.36267
 21
13.7592
  0
LINE
  8
0
 10
7.36267
 20
13.7592
 11
10.4096
 21
12
  0
LINE
  8
0
 10
10.4096
 20
12
 11
6.92723
 21
12
  0
LINE
  8
0
 10
6.92723
 20
12
 11
6.61377
 21
12.1739
  0
LINE
  8
0
 10
6.61377
 20
12.1739
 11
6.29608
 21
12.0297
  0
LINE
  8
0
 10
6.29608
 20
12.0297
 11
6.30249
 21
12
  0
LINE
  8
0
 10
6.30249
 20
12
 11
4.55652
 21
12
  0
LINE
  8
0
 10
-25.4435
 20
12
 11
-25.4677
 21
12.2009
  0
LINE
  8
0
 10
-25.4677
 20
12.2009
 11
-24.5636
 21
13.5509
  0
LINE
  8
0
 10
-24.5636
 20
13.5509
 11
-23.6925
 21
13.8708
  0
LINE
  8
0
 10
-23.6925
 20
13.8708
 11
-22.6373
 21
13.7592
  0
LINE
  8
0
 10
-22.6373
 20
13.7592
 11
-19.5904
 21
12
  0
LINE
  8
0
 10
-19.5904
 20
12
 11
-23.0728
 21
12
  0
LINE
  8
0
 10
-23.0728
 20
12
 11
-23.3862
 21
12.1739
  0
LINE
  8
0
 10
-23.3862
 20
12.1739
 11
-23.7039
 21
12.0297
  0
LINE
  8
0
 10
-23.7039
 20
12.0297
 11
-23.6975
 21
12
  0
LINE
  8
0
 10
-23.6975
 20
12
 11
-25.4435
 21
12
  0
LINE
  8
0
 10
34.5565
 20
12
 11
34.5323
 21
12.2009
  0
LINE
  8
0
 10
34.5323
 20
12.2009
 11
35.4364
 21
13.5509
  0
LINE
  8
0
 10
35.4364
 20
13.5509
 11
36.3075
 21
13.8708
  0
LINE
  8
0
 10
36.3075
 20
13.8708
 11
37.3627
 21
13.7592
  0
LINE
  8
0
 10
37.3627
 20
13.7592
 11
40.4096
 21
12
  0
LINE
  8
0
 10
40.4096
 20
12
 11
36.9272
 21
12
  0
LINE
  8
0
 10
36.9272
 20
12
 11
36.6138
 21
12.1739
  0
LINE
  8
0
 10
36.6138
 20
12.1739
 11
36.2961
 21
12.0297
  0
LINE
  8
0
 10
36.2961
 20
12.0297
 11
36.3025
 21
12
  0
LINE
  8
0
 10
36.3025
 20
12
 11
34.5565
 21
12
  0
LINE
  8
0
 10
-55.4435
 20
12
 11
-55.4677
 21
12.2009
  0
LINE
  8
0
 10
-55.4677
 20
12.2009
 11
-54.5636
 21
13.5509
  0
LINE
  8
0
 10
-54.5636
 20
13.5509
 11
-53.6925
 21
13.8708
  0
LINE
  8
0
 10
-53.6925
 20
13.8708
 11
-52.6373
 21
13.7592
  0
LINE
  8
0
 10
-52.6373
 20
13.7592
 11
-49.5904
 21
12
  0
LINE
  8
0
 10
-49.5904
 20
12
 11
-53.0728
 21
12
  0
LINE
  8
0
 10
-53.0728
 20
12
 11
-53.3862
 21
12.1739
  0
LINE
  8
0
 10
-53.3862
 20
12.1739
 11
-53.7039
 21
12.0297
  0
LINE
  8
0
 10
-53.7039
 20
12.0297
 11
-53.6975
 21
12
  0
LINE
  8
0
 10
-53.6975
 20
12
 11
-55.4435
 21
12
  0
LINE
  8
0
 10
-0.950348
 20
12
 11
-0.219727
 21
13.2648
  0
LINE
  8
0
 10
-0.219727
 20
13.2648
 11
1.27519
 21
12
  0
LINE
  8
0
 10
1.27519
 20
12
 11
-0.950348
 21
12
  0
LINE
  8
0
 10
-30.9503
 20
12
 11
-30.2197
 21
13.2648
  0
LINE
  8
0
 10
-30.2197
 20
13.2648
 11
-28.7248
 21
12
  0
LINE
  8
0
 10
-28.7248
 20
12
 11
-30.9503
 21
12
  0
LINE
  8
0
 10
29.0497
 20
12
 11
29.7803
 21
13.2648
  0
LINE
  8
0
 10
29.7803
 20
13.2648
 11
31.2752
 21
12
  0
LINE
  8
0
 10
31.2752
 20
12
 11
29.0497
 21
12
  0
LINE
  8
0
 10
-10
 20
7
 11
-10
 21
11
  0
LINE
  8
0
 10
-10
 20
11
 11
10
 21
11
  0
LINE
  8
0
 10
10
 20
11
 11
10
 21
7
  0
LINE
  8
0
 10
10
 20
7
 11
-10
 21
7
  0
LINE
  8
0
 10
-68.6534
 20
2.70622
 11
-68.7785
 21
2.71805
  0
LINE
  8
0
 10
-68.7785
 20
2.71805
 11
-68.9026
 21
2.7377
  0
LINE
  8
0
 10
-68.9026
 20
2.7377
 11
-69.0252
 21
2.76511
  0
LINE
  8
0
 10
-69.0252
 20
2.76511
 11
-69.1459
 21
2.80016
  0
LINE
  8
0
 10
-69.1459
 20
2.80016
 11
-69.2641
 21
2.84273
  0
LINE
  8
0
 10
-69.2641
 20
2.84273
 11
-69.3794
 21
2.89262
  0
LINE
  8
0
 10
-69.3794
 20
2.89262
 11
-69.4914
 21
2.94966
  0
LINE
  8
0
 10
-69.4914
 20
2.94966
 11
-69.5995
 21
3.01363
  0
LINE
  8
0
 10
-69.5995
 20
3.01363
 11
-69.7034
 21
3.08424
  0
LINE
  8
0
 10
-69.7034
 20
3.08424
 11
-69.8027
 21
3.16125
  0
LINE
  8
0
 10
-69.8027
 20
3.16125
 11
-69.897
 21
3.24434
  0
LINE
  8
0
 10
-69.897
 20
3.24434
 11
-69.9858
 21
3.33318
  0
LINE
  8
0
 10
-69.9858
 20
3.33318
 11
-70.0689
 21
3.42743
  0
LINE
  8
0
 10
-70.0689
 20
3.42743
 11
-70.1459
 21
3.5267
  0
LINE
  8
0
 10
-70.1459
 20
3.5267
 11
-70.2165
 21
3.63062
  0
LINE
  8
0
 10
-70.2165
 20
3.63062
 11
-70.2805
 21
3.73877
  0
LINE
  8
0
 10
-70.2805
 20
3.73877
 11
-70.3375
 21
3.85072
  0
LINE
  8
0
 10
-70.3375
 20
3.85072
 11
-70.3874
 21
3.96602
  0
LINE
  8
0
 10
-70.3874
 20
3.96602
 11
-70.43
 21
4.08424
  0
LINE
  8
0
 10
-70.43
 20
4.08424
 11
-70.465
 21
4.2049
  0
LINE
  8
0
 10
-70.465
 20
4.2049
 11
-70.4924
 21
4.32751
  0
LINE
  8
0
 10
-70.4924
 20
4.32751
 11
-70.5121
 21
4.45161
  0
LINE
  8
0
 10
-70.5121
 20
4.45161
 11
-70.5239
 21
4.57669
  0
LINE
  8
0
 10
-70.5239
 20
4.57669
 11
-70.5279
 21
4.70227
  0
LINE
  8
0
 10
-70.5279
 20
4.70227
 11
-70.5239
 21
4.82785
  0
LINE
  8
0
 10
-70.5239
 20
4.82785
 11
-70.5121
 21
4.95294
  0
LINE
  8
0
 10
-70.5121
 20
4.95294
 11
-70.4924
 21
5.07704
  0
LINE
  8
0
 10
-70.4924
 20
5.07704
 11
-70.465
 21
5.19966
  0
LINE
  8
0
 10
-70.465
 20
5.19966
 11
-70.43
 21
5.32031
  0
LINE
  8
0
 10
-70.43
 20
5.32031
 11
-70.3874
 21
5.43852
  0
LINE
  8
0
 10
-70.3874
 20
5.43852
 11
-70.3375
 21
5.55383
  0
LINE
  8
0
 10
-70.3375
 20
5.55383
 11
-70.2805
 21
5.66579
  0
LINE
  8
0
 10
-70.2805
 20
5.66579
 11
-70.2165
 21
5.77393
  0
LINE
  8
0
 10
-70.2165
 20
5.77393
 11
-70.1459
 21
5.87784
  0
LINE
  8
0
 10
-70.1459
 20
5.87784
 11
-70.0689
 21
5.97713
  0
LINE
  8
0
 10
-70.0689
 20
5.97713
 11
-69.9858
 21
6.07137
  0
LINE
  8
0
 10
-69.9858
 20
6.07137
 11
-69.897
 21
6.16022
  0
LINE
  8
0
 10
-69.897
 20
6.16022
 11
-69.8027
 21
6.2433
  0
LINE
  8
0
 10
-69.8027
 20
6.2433
 11
-69.7034
 21
6.32031
  0
LINE
  8
0
 10
-69.7034
 20
6.32031
 11
-69.5995
 21
6.39093
  0
LINE
  8
0
 10
-69.5995
 20
6.39093
 11
-69.4914
 21
6.4549
  0
LINE
  8
0
 10
-69.4914
 20
6.4549
 11
-69.3794
 21
6.51193
  0
LINE
  8
0
 10
-69.3794
 20
6.51193
 11
-69.2641
 21
6.56183
  0
LINE
  8
0
 10
-69.2641
 20
6.56183
 11
-69.1459
 21
6.60439
  0
LINE
  8
0
 10
-69.1459
 20
6.60439
 11
-69.0252
 21
6.63943
  0
LINE
  8
0
 10
-69.0252
 20
6.63943
 11
-68.9026
 21
6.66685
  0
LINE
  8
0
 10
-68.9026
 20
6.66685
 11
-68.7785
 21
6.68651
  0
LINE
  8
0
 10
-68.7785
 20
6.68651
 11
-68.6534
 21
6.69833
  0
LINE
  8
0
 10
-68.6534
 20
6.69833
 11
-68.5279
 21
6.70227
  0
LINE
  8
0
 10
-68.5279
 20
6.70227
 11
-68.4023
 21
6.69833
  0
LINE
  8
0
 10
-68.4023
 20
6.69833
 11
-68.2772
 21
6.68651
  0
LINE
  8
0
 10
-68.2772
 20
6.68651
 11
-68.1531
 21
6.66685
  0
LINE
  8
0
 10
-68.1531
 20
6.66685
 11
-68.0305
 21
6.63943
  0
LINE
  8
0
 10
-68.0305
 20
6.63943
 11
-67.9098
 21
6.60439
  0
LINE
  8
0
 10
-67.9098
 20
6.60439
 11
-67.7916
 21
6.56183
  0
LINE
  8
0
 10
-67.7916
 20
6.56183
 11
-67.6763
 21
6.51193
  0
LINE
  8
0
 10
-67.6763
 20
6.51193
 11
-67.5643
 21
6.4549
  0
LINE
  8
0
 10
-67.5643
 20
6.4549
 11
-67.4562
 21
6.39093
  0
LINE
  8
0
 10
-67.4562
 20
6.39093
 11
-67.3523
 21
6.32031
  0
LINE
  8
0
 10
-67.3523
 20
6.32031
 11
-67.253
 21
6.2433
  0
LINE
  8
0
 10
-67.253
 20
6.2433
 11
-67.1588
 21
6.16022
  0
LINE
  8
0
 10
-67.1588
 20
6.16022
 11
-67.0699
 21
6.07137
  0
LINE
  8
0
 10
-67.0699
 20
6.07137
 11
-66.9868
 21
5.97713
  0
LINE
  8
0
 10
-66.9868
 20
5.97713
 11
-66.9098
 21
5.87784
  0
LINE
  8
0
 10
-66.9098
 20
5.87784
 11
-66.8392
 21
5.77393
  0
LINE
  8
0
 10
-66.8392
 20
5.77393
 11
-66.7752
 21
5.66579
  0
LINE
  8
0
 10
-66.7752
 20
5.66579
 11
-66.7182
 21
5.55383
  0
LINE
  8
0
 10
-66.7182
 20
5.55383
 11
-66.6683
 21
5.43852
  0
LINE
  8
0
 10
-66.6683
 20
5.43852
 11
-66.6257
 21
5.32031
  0
LINE
  8
0
 10
-66.6257
 20
5.32031
 11
-66.5907
 21
5.19966
  0
LINE
  8
0
 10
-66.5907
 20
5.19966
 11
-66.5633
 21
5.07704
  0
LINE
  8
0
 10
-66.5633
 20
5.07704
 11
-66.5436
 21
4.95294
  0
LINE
  8
0
 10
-66.5436
 20
4.95294
 11
-66.5318
 21
4.82785
  0
LINE
  8
0
 10
-66.5318
 20
4.82785
 11
-66.5279
 21
4.70227
  0
LINE
  8
0
 10
-66.5279
 20
4.70227
 11
-66.5318
 21
4.57669
  0
LINE
  8
0
 10
-66.5318
 20
4.57669
 11
-66.5436
 21
4.45161
  0
LINE
  8
0
 10
-66.5436
 20
4.45161
 11
-66.5633
 21
4.32751
  0
LINE
  8
0
 10
-66.5633
 20
4.32751
 11
-66.5907
 21
4.2049
  0
LINE
  8
0
 10
-66.5907
 20
4.2049
 11
-66.6257
 21
4.08424
  0
LINE
  8
0
 10
-66.6257
 20
4.08424
 11
-66.6683
 21
3.96602
  0
LINE
  8
0
 10
-66.6683
 20
3.96602
 11
-66.7182
 21
3.85072
  0
LINE
  8
0
 10
-66.7182
 20
3.85072
 11
-66.7752
 21
3.73877
  0
LINE
  8
0
 10
-66.7752
 20
3.73877
 11
-66.8392
 21
3.63062
  0
LINE
  8
0
 10
-66.8392
 20
3.63062
 11
-66.9098
 21
3.5267
  0
LINE
  8
0
 10
-66.9098
 20
3.5267
 11
-66.9868
 21
3.42743
  0
LINE
  8
0
 10
-66.9868
 20
3.42743
 11
-67.0699
 21
3.33318
  0
LINE
  8
0
 10
-67.0699
 20
3.33318
 11
-67.1588
 21
3.24434
  0
LINE
  8
0
 10
-67.1588
 20
3.24434
 11
-67.253
 21
3.16125
  0
LINE
  8
0
 10
-67.253
 20
3.16125
 11
-67.3523
 21
3.08424
  0
LINE
  8
0
 10
-67.3523
 20
3.08424
 11
-67.4562
 21
3.01363
  0
LINE
  8
0
 10
-67.4562
 20
3.01363
 11
-67.5643
 21
2.94966
  0
LINE
  8
0
 10
-67.5643
 20
2.94966
 11
-67.6763
 21
2.89262
  0
LINE
  8
0
 10
-67.6763
 20
2.89262
 11
-67.7916
 21
2.84273
  0
LINE
  8
0
 10
-67.7916
 20
2.84273
 11
-67.9098
 21
2.80016
  0
LINE
  8
0
 10
-67.9098
 20
2.80016
 11
-68.0305
 21
2.76511
  0
LINE
  8
0
 10
-68.0305
 20
2.76511
 11
-68.1531
 21
2.7377
  0
LINE
  8
0
 10
-68.1531
 20
2.7377
 11
-68.2772
 21
2.71805
  0
LINE
  8
0
 10
-68.2772
 20
2.71805
 11
-68.4023
 21
2.70622
  0
LINE
  8
0
 10
-68.4023
 20
2.70622
 11
-68.5279
 21
2.70227
  0
LINE
  8
0
 10
-68.5279
 20
2.70227
 11
-68.6534
 21
2.70622
  0
LINE
  8
0
 10
68.4023
 20
2.70622
 11
68.2772
 21
2.71805
  0
LINE
  8
0
 10
68.2772
 20
2.71805
 11
68.1531
 21
2.7377
  0
LINE
  8
0
 10
68.1531
 20
2.7377
 11
68.0305
 21
2.76511
  0
LINE
  8
0
 10
68.0305
 20
2.76511
 11
67.9098
 21
2.80016
  0
LINE
  8
0
 10
67.9098
 20
2.80016
 11
67.7916
 21
2.84273
  0
LINE
  8
0
 10
67.7916
 20
2.84273
 11
67.6763
 21
2.89262
  0
LINE
  8
0
 10
67.6763
 20
2.89262
 11
67.5643
 21
2.94966
  0
LINE
  8
0
 10
67.5643
 20
2.94966
 11
67.4562
 21
3.01363
  0
LINE
  8
0
 10
67.4562
 20
3.01363
 11
67.3523
 21
3.08424
  0
LINE
  8
0
 10
67.3523
 20
3.08424
 11
67.253
 21
3.16125
  0
LINE
  8
0
 10
67.253
 20
3.16125
 11
67.1588
 21
3.24434
  0
LINE
  8
0
 10
67.1588
 20
3.24434
 11
67.0699
 21
3.33318
  0
LINE
  8
0
 10
67.0699
 20
3.33318
 11
66.9868
 21
3.42743
  0
LINE
  8
0
 10
66.9868
 20
3.42743
 11
66.9098
 21
3.5267
  0
LINE
  8
0
 10
66.9098
 20
3.5267
 11
66.8392
 21
3.63062
  0
LINE
  8
0
 10
66.8392
 20
3.63062
 11
66.7752
 21
3.73877
  0
LINE
  8
0
 10
66.7752
 20
3.73877
 11
66.7182
 21
3.85072
  0
LINE
  8
0
 10
66.7182
 20
3.85072
 11
66.6683
 21
3.96602
  0
LINE
  8
0
 10
66.6683
 20
3.96602
 11
66.6257
 21
4.08424
  0
LINE
  8
0
 10
66.6257
 20
4.08424
 11
66.5907
 21
4.2049
  0
LINE
  8
0
 10
66.5907
 20
4.2049
 11
66.5633
 21
4.32751
  0
LINE
  8
0
 10
66.5633
 20
4.32751
 11
66.5436
 21
4.45161
  0
LINE
  8
0
 10
66.5436
 20
4.45161
 11
66.5318
 21
4.57669
  0
LINE
  8
0
 10
66.5318
 20
4.57669
 11
66.5279
 21
4.70227
  0
LINE
  8
0
 10
66.5279
 20
4.70227
 11
66.5318
 21
4.82785
  0
LINE
  8
0
 10
66.5318
 20
4.82785
 11
66.5436
 21
4.95294
  0
LINE
  8
0
 10
66.5436
 20
4.95294
 11
66.5633
 21
5.07704
  0
LINE
  8
0
 10
66.5633
 20
5.07704
 11
66.5907
 21
5.19966
  0
LINE
  8
0
 10
66.5907
 20
5.19966
 11
66.6257
 21
5.32031
  0
LINE
  8
0
 10
66.6257
 20
5.32031
 11
66.6683
 21
5.43852
  0
LINE
  8
0
 10
66.6683
 20
5.43852
 11
66.7182
 21
5.55383
  0
LINE
  8
0
 10
66.7182
 20
5.55383
 11
66.7752
 21
5.66579
  0
LINE
  8
0
 10
66.7752
 20
5.66579
 11
66.8392
 21
5.77393
  0
LINE
  8
0
 10
66.8392
 20
5.77393
 11
66.9098
 21
5.87784
  0
LINE
  8
0
 10
66.9098
 20
5.87784
 11
66.9868
 21
5.97713
  0
LINE
  8
0
 10
66.9868
 20
5.97713
 11
67.0699
 21
6.07137
  0
LINE
  8
0
 10
67.0699
 20
6.07137
 11
67.1588
 21
6.16022
  0
LINE
  8
0
 10
67.1588
 20
6.16022
 11
67.253
 21
6.2433
  0
LINE
  8
0
 10
67.253
 20
6.2433
 11
67.3523
 21
6.32031
  0
LINE
  8
0
 10
67.3523
 20
6.32031
 11
67.4562
 21
6.39093
  0
LINE
  8
0
 10
67.4562
 20
6.39093
 11
67.5643
 21
6.4549
  0
LINE
  8
0
 10
67.5643
 20
6.4549
 11
67.6763
 21
6.51193
  0
LINE
  8
0
 10
67.6763
 20
6.51193
 11
67.7916
 21
6.56183
  0
LINE
  8
0
 10
67.7916
 20
6.56183
 11
67.9098
 21
6.60439
  0
LINE
  8
0
 10
67.9098
 20
6.60439
 11
68.0305
 21
6.63943
  0
LINE
  8
0
 10
68.0305
 20
6.63943
 11
68.1531
 21
6.66685
  0
LINE
  8
0
 10
68.1531
 20
6.66685
 11
68.2772
 21
6.68651
  0
LINE
  8
0
 10
68.2772
 20
6.68651
 11
68.4023
 21
6.69833
  0
LINE
  8
0
 10
68.4023
 20
6.69833
 11
68.5279
 21
6.70227
  0
LINE
  8
0
 10
68.5279
 20
6.70227
 11
68.6534
 21
6.69833
  0
LINE
  8
0
 10
68.6534
 20
6.69833
 11
68.7785
 21
6.68651
  0
LINE
  8
0
 10
68.7785
 20
6.68651
 11
68.9026
 21
6.66685
  0
LINE
  8
0
 10
68.9026
 20
6.66685
 11
69.0252
 21
6.63943
  0
LINE
  8
0
 10
69.0252
 20
6.63943
 11
69.1459
 21
6.60439
  0
LINE
  8
0
 10
69.1459
 20
6.60439
 11
69.2641
 21
6.56183
  0
LINE
  8
0
 10
69.2641
 20
6.56183
 11
69.3794
 21
6.51193
  0
LINE
  8
0
 10
69.3794
 20
6.51193
 11
69.4914
 21
6.4549
  0
LINE
  8
0
 10
69.4914
 20
6.4549
 11
69.5995
 21
6.39093
  0
LINE
  8
0
 10
69.5995
 20
6.39093
 11
69.7034
 21
6.32031
  0
LINE
  8
0
 10
69.7034
 20
6.32031
 11
69.8027
 21
6.2433
  0
LINE
  8
0
 10
69.8027
 20
6.2433
 11
69.897
 21
6.16022
  0
LINE
  8
0
 10
69.897
 20
6.16022
 11
69.9858
 21
6.07137
  0
LINE
  8
0
 10
69.9858
 20
6.07137
 11
70.0689
 21
5.97713
  0
LINE
  8
0
 10
70.0689
 20
5.97713
 11
70.1459
 21
5.87784
  0
LINE
  8
0
 10
70.1459
 20
5.87784
 11
70.2165
 21
5.77393
  0
LINE
  8
0
 10
70.2165
 20
5.77393
 11
70.2805
 21
5.66579
  0
LINE
  8
0
 10
70.2805
 20
5.66579
 11
70.3375
 21
5.55383
  0
LINE
  8
0
 10
70.3375
 20
5.55383
 11
70.3874
 21
5.43852
  0
LINE
  8
0
 10
70.3874
 20
5.43852
 11
70.43
 21
5.32031
  0
LINE
  8
0
 10
70.43
 20
5.32031
 11
70.465
 21
5.19966
  0
LINE
  8
0
 10
70.465
 20
5.19966
 11
70.4924
 21
5.07704
  0
LINE
  8
0
 10
70.4924
 20
5.07704
 11
70.5121
 21
4.95294
  0
LINE
  8
0
 10
70.5121
 20
4.95294
 11
70.5239
 21
4.82785
  0
LINE
  8
0
 10
70.5239
 20
4.82785
 11
70.5279
 21
4.70227
  0
LINE
  8
0
 10
70.5279
 20
4.70227
 11
70.5239
 21
4.57669
  0
LINE
  8
0
 10
70.5239
 20
4.57669
 11
70.5121
 21
4.45161
  0
LINE
  8
0
 10
70.5121
 20
4.45161
 11
70.4924
 21
4.32751
  0
LINE
  8
0
 10
70.4924
 20
4.32751
 11
70.465
 21
4.2049
  0
LINE
  8
0
 10
70.465
 20
4.2049
 11
70.43
 21
4.08424
  0
LINE
  8
0
 10
70.43
 20
4.08424
 11
70.3874
 21
3.96602
  0
LINE
  8
0
 10
70.3874
 20
3.96602
 11
70.3375
 21
3.85072
  0
LINE
  8
0
 10
70.3375
 20
3.85072
 11
70.2805
 21
3.73877
  0
LINE
  8
0
 10
70.2805
 20
3.73877
 11
70.2165
 21
3.63062
  0
LINE
  8
0
 10
70.2165
 20
3.63062
 11
70.1459
 21
3.5267
  0
LINE
  8
0
 10
70.1459
 20
3.5267
 11
70.0689
 21
3.42743
  0
LINE
  8
0
 10
70.0689
 20
3.42743
 11
69.9858
 21
3.33318
  0
LINE
  8
0
 10
69.9858
 20
3.33318
 11
69.897
 21
3.24434
  0
LINE
  8
0
 10
69.897
 20
3.24434
 11
69.8027
 21
3.16125
  0
LINE
  8
0
 10
69.8027
 20
3.16125
 11
69.7034
 21
3.08424
  0
LINE
  8
0
 10
69.7034
 20
3.08424
 11
69.5995
 21
3.01363
  0
LINE
  8
0
 10
69.5995
 20
3.01363
 11
69.4914
 21
2.94966
  0
LINE
  8
0
 10
69.4914
 20
2.94966
 11
69.3794
 21
2.89262
  0
LINE
  8
0
 10
69.3794
 20
2.89262
 11
69.2641
 21
2.84273
  0
LINE
  8
0
 10
69.2641
 20
2.84273
 11
69.1459
 21
2.80016
  0
LINE
  8
0
 10
69.1459
 20
2.80016
 11
69.0252
 21
2.76511
  0
LINE
  8
0
 10
69.0252
 20
2.76511
 11
68.9026
 21
2.7377
  0
LINE
  8
0
 10
68.9026
 20
2.7377
 11
68.7785
 21
2.71805
  0
LINE
  8
0
 10
68.7785
 20
2.71805
 11
68.6534
 21
2.70622
  0
LINE
  8
0
 10
68.6534
 20
2.70622
 11
68.5279
 21
2.70227
  0
LINE
  8
0
 10
68.5279
 20
2.70227
 11
68.4023
 21
2.70622
  0
ENDSEC
  0
SECTION
  2
OBJECTS
  0
DICTIONARY
  0
ENDSEC
  0
EOF
