  0
SECTION
  2
BLOCKS
  0
ENDSEC
  0
SECTION
  2
ENTITIES
  0
LINE
  8
0
 10
0
 20
230.826
 11
-75
 21
0
  0
LINE
  8
0
 10
-75
 20
0
 11
75
 21
0
  0
LINE
  8
0
 10
75
 20
0
 11
0
 21
230.826
  0
LINE
  8
0
 10
-0.12558
 20
212.83
 11
-0.250656
 21
212.842
  0
LINE
  8
0
 10
-0.250656
 20
212.842
 11
-0.374756
 21
212.862
  0
LINE
  8
0
 10
-0.374756
 20
212.862
 11
-0.497375
 21
212.889
  0
LINE
  8
0
 10
-0.497375
 20
212.889
 11
-0.618027
 21
212.924
  0
LINE
  8
0
 10
-0.618027
 20
212.924
 11
-0.736237
 21
212.967
  0
LINE
  8
0
 10
-0.736237
 20
212.967
 11
-0.851547
 21
213.017
  0
LINE
  8
0
 10
-0.851547
 20
213.017
 11
-0.963501
 21
213.074
  0
LINE
  8
0
 10
-0.963501
 20
213.074
 11
-1.07164
 21
213.138
  0
LINE
  8
0
 10
-1.07164
 20
213.138
 11
-1.17557
 21
213.208
  0
LINE
  8
0
 10
-1.17557
 20
213.208
 11
-1.27484
 21
213.285
  0
LINE
  8
0
 10
-1.27484
 20
213.285
 11
-1.36908
 21
213.368
  0
LINE
  8
0
 10
-1.36908
 20
213.368
 11
-1.45793
 21
213.457
  0
LINE
  8
0
 10
-1.45793
 20
213.457
 11
-1.54102
 21
213.551
  0
LINE
  8
0
 10
-1.54102
 20
213.551
 11
-1.61803
 21
213.651
  0
LINE
  8
0
 10
-1.61803
 20
213.651
 11
-1.68864
 21
213.755
  0
LINE
  8
0
 10
-1.68864
 20
213.755
 11
-1.75261
 21
213.863
  0
LINE
  8
0
 10
-1.75261
 20
213.863
 11
-1.80965
 21
213.975
  0
LINE
  8
0
 10
-1.80965
 20
213.975
 11
-1.85954
 21
214.09
  0
LINE
  8
0
 10
-1.85954
 20
214.09
 11
-1.9021
 21
214.208
  0
LINE
  8
0
 10
-1.9021
 20
214.208
 11
-1.93716
 21
214.329
  0
LINE
  8
0
 10
-1.93716
 20
214.329
 11
-1.96457
 21
214.451
  0
LINE
  8
0
 10
-1.96457
 20
214.451
 11
-1.98422
 21
214.576
  0
LINE
  8
0
 10
-1.98422
 20
214.576
 11
-1.99605
 21
214.701
  0
LINE
  8
0
 10
-1.99605
 20
214.701
 11
-2
 21
214.826
  0
LINE
  8
0
 10
-2
 20
214.826
 11
-1.99605
 21
214.952
  0
LINE
  8
0
 10
-1.99605
 20
214.952
 11
-1.98422
 21
215.077
  0
LINE
  8
0
 10
-1.98422
 20
215.077
 11
-1.96457
 21
215.201
  0
LINE
  8
0
 10
-1.96457
 20
215.201
 11
-1.93716
 21
215.324
  0
LINE
  8
0
 10
-1.93716
 20
215.324
 11
-1.9021
 21
215.444
  0
LINE
  8
0
 10
-1.9021
 20
215.444
 11
-1.85954
 21
215.562
  0
LINE
  8
0
 10
-1.85954
 20
215.562
 11
-1.80965
 21
215.678
  0
LINE
  8
0
 10
-1.80965
 20
215.678
 11
-1.75261
 21
215.79
  0
LINE
  8
0
 10
-1.75261
 20
215.79
 11
-1.68864
 21
215.898
  0
LINE
  8
0
 10
-1.68864
 20
215.898
 11
-1.61803
 21
216.002
  0
LINE
  8
0
 10
-1.61803
 20
216.002
 11
-1.54102
 21
216.101
  0
LINE
  8
0
 10
-1.54102
 20
216.101
 11
-1.45793
 21
216.195
  0
LINE
  8
0
 10
-1.45793
 20
216.195
 11
-1.36908
 21
216.284
  0
LINE
  8
0
 10
-1.36908
 20
216.284
 11
-1.27484
 21
216.367
  0
LINE
  8
0
 10
-1.27484
 20
216.367
 11
-1.17557
 21
216.444
  0
LINE
  8
0
 10
-1.17557
 20
216.444
 11
-1.07164
 21
216.515
  0
LINE
  8
0
 10
-1.07164
 20
216.515
 11
-0.963501
 21
216.579
  0
LINE
  8
0
 10
-0.963501
 20
216.579
 11
-0.851547
 21
216.636
  0
LINE
  8
0
 10
-0.851547
 20
216.636
 11
-0.736237
 21
216.686
  0
LINE
  8
0
 10
-0.736237
 20
216.686
 11
-0.618027
 21
216.728
  0
LINE
  8
0
 10
-0.618027
 20
216.728
 11
-0.497375
 21
216.763
  0
LINE
  8
0
 10
-0.497375
 20
216.763
 11
-0.374756
 21
216.791
  0
LINE
  8
0
 10
-0.374756
 20
216.791
 11
-0.250656
 21
216.81
  0
LINE
  8
0
 10
-0.250656
 20
216.81
 11
-0.12558
 21
216.822
  0
LINE
  8
0
 10
-0.12558
 20
216.822
 11
0
 21
216.826
  0
LINE
  8
0
 10
0
 20
216.826
 11
0.12558
 21
216.822
  0
LINE
  8
0
 10
0.12558
 20
216.822
 11
0.250656
 21
216.81
  0
LINE
  8
0
 10
0.250656
 20
216.81
 11
0.374756
 21
216.791
  0
LINE
  8
0
 10
0.374756
 20
216.791
 11
0.497375
 21
216.763
  0
LINE
  8
0
 10
0.497375
 20
216.763
 11
0.618027
 21
216.728
  0
LINE
  8
0
 10
0.618027
 20
216.728
 11
0.736237
 21
216.686
  0
LINE
  8
0
 10
0.736237
 20
216.686
 11
0.851547
 21
216.636
  0
LINE
  8
0
 10
0.851547
 20
216.636
 11
0.963501
 21
216.579
  0
LINE
  8
0
 10
0.963501
 20
216.579
 11
1.07164
 21
216.515
  0
LINE
  8
0
 10
1.07164
 20
216.515
 11
1.17557
 21
216.444
  0
LINE
  8
0
 10
1.17557
 20
216.444
 11
1.27484
 21
216.367
  0
LINE
  8
0
 10
1.27484
 20
216.367
 11
1.36908
 21
216.284
  0
LINE
  8
0
 10
1.36908
 20
216.284
 11
1.45793
 21
216.195
  0
LINE
  8
0
 10
1.45793
 20
216.195
 11
1.54102
 21
216.101
  0
LINE
  8
0
 10
1.54102
 20
216.101
 11
1.61803
 21
216.002
  0
LINE
  8
0
 10
1.61803
 20
216.002
 11
1.68864
 21
215.898
  0
LINE
  8
0
 10
1.68864
 20
215.898
 11
1.75261
 21
215.79
  0
LINE
  8
0
 10
1.75261
 20
215.79
 11
1.80965
 21
215.678
  0
LINE
  8
0
 10
1.80965
 20
215.678
 11
1.85954
 21
215.562
  0
LINE
  8
0
 10
1.85954
 20
215.562
 11
1.9021
 21
215.444
  0
LINE
  8
0
 10
1.9021
 20
215.444
 11
1.93716
 21
215.324
  0
LINE
  8
0
 10
1.93716
 20
215.324
 11
1.96457
 21
215.201
  0
LINE
  8
0
 10
1.96457
 20
215.201
 11
1.98422
 21
215.077
  0
LINE
  8
0
 10
1.98422
 20
215.077
 11
1.99605
 21
214.952
  0
LINE
  8
0
 10
1.99605
 20
214.952
 11
2
 21
214.826
  0
LINE
  8
0
 10
2
 20
214.826
 11
1.99605
 21
214.701
  0
LINE
  8
0
 10
1.99605
 20
214.701
 11
1.98422
 21
214.576
  0
LINE
  8
0
 10
1.98422
 20
214.576
 11
1.96457
 21
214.451
  0
LINE
  8
0
 10
1.96457
 20
214.451
 11
1.93716
 21
214.329
  0
LINE
  8
0
 10
1.93716
 20
214.329
 11
1.9021
 21
214.208
  0
LINE
  8
0
 10
1.9021
 20
214.208
 11
1.85954
 21
214.09
  0
LINE
  8
0
 10
1.85954
 20
214.09
 11
1.80965
 21
213.975
  0
LINE
  8
0
 10
1.80965
 20
213.975
 11
1.75261
 21
213.863
  0
LINE
  8
0
 10
1.75261
 20
213.863
 11
1.68864
 21
213.755
  0
LINE
  8
0
 10
1.68864
 20
213.755
 11
1.61803
 21
213.651
  0
LINE
  8
0
 10
1.61803
 20
213.651
 11
1.54102
 21
213.551
  0
LINE
  8
0
 10
1.54102
 20
213.551
 11
1.45793
 21
213.457
  0
LINE
  8
0
 10
1.45793
 20
213.457
 11
1.36908
 21
213.368
  0
LINE
  8
0
 10
1.36908
 20
213.368
 11
1.27484
 21
213.285
  0
LINE
  8
0
 10
1.27484
 20
213.285
 11
1.17557
 21
213.208
  0
LINE
  8
0
 10
1.17557
 20
213.208
 11
1.07164
 21
213.138
  0
LINE
  8
0
 10
1.07164
 20
213.138
 11
0.963501
 21
213.074
  0
LINE
  8
0
 10
0.963501
 20
213.074
 11
0.851547
 21
213.017
  0
LINE
  8
0
 10
0.851547
 20
213.017
 11
0.736237
 21
212.967
  0
LINE
  8
0
 10
0.736237
 20
212.967
 11
0.618027
 21
212.924
  0
LINE
  8
0
 10
0.618027
 20
212.924
 11
0.497375
 21
212.889
  0
LINE
  8
0
 10
0.497375
 20
212.889
 11
0.374756
 21
212.862
  0
LINE
  8
0
 10
0.374756
 20
212.862
 11
0.250656
 21
212.842
  0
LINE
  8
0
 10
0.250656
 20
212.842
 11
0.12558
 21
212.83
  0
LINE
  8
0
 10
0.12558
 20
212.83
 11
0
 21
212.826
  0
LINE
  8
0
 10
0
 20
212.826
 11
-0.12558
 21
212.83
  0
LINE
  8
0
 10
-0.677582
 20
189.908
 11
0
 21
191.993
  0
LINE
  8
0
 10
0
 20
191.993
 11
0.677582
 21
189.908
  0
LINE
  8
0
 10
0.677582
 20
189.908
 11
0
 21
189.23
  0
LINE
  8
0
 10
0
 20
189.23
 11
-0.677582
 21
189.908
  0
LINE
  8
0
 10
-5.78741
 20
174.182
 11
0
 21
179.969
  0
LINE
  8
0
 10
0
 20
179.969
 11
5.78741
 21
174.182
  0
LINE
  8
0
 10
5.78741
 20
174.182
 11
5.83888
 21
174.023
  0
LINE
  8
0
 10
5.83888
 20
174.023
 11
3.53531
 21
171.72
  0
LINE
  8
0
 10
3.53531
 20
171.72
 11
0
 21
175.255
  0
LINE
  8
0
 10
0
 20
175.255
 11
-8.05609
 21
167.199
  0
LINE
  8
0
 10
-8.05609
 20
167.199
 11
-5.78741
 21
174.182
  0
LINE
  8
0
 10
-5.89233
 20
166.923
 11
-3.53531
 21
169.279
  0
LINE
  8
0
 10
-3.53531
 20
169.279
 11
0
 21
165.744
  0
LINE
  8
0
 10
0
 20
165.744
 11
6.43733
 21
172.181
  0
LINE
  8
0
 10
6.43733
 20
172.181
 11
7.59329
 21
168.624
  0
LINE
  8
0
 10
7.59329
 20
168.624
 11
0
 21
161.03
  0
LINE
  8
0
 10
0
 20
161.03
 11
-5.89233
 21
166.923
  0
LINE
  8
0
 10
-12.7544
 20
152.74
 11
-12.6342
 21
153.109
  0
LINE
  8
0
 10
-12.6342
 20
153.109
 11
-9.34387
 21
156.4
  0
LINE
  8
0
 10
-9.34387
 20
156.4
 11
-11.0204
 21
158.076
  0
LINE
  8
0
 10
-11.0204
 20
158.076
 11
-9.86444
 21
161.634
  0
LINE
  8
0
 10
-9.86444
 20
161.634
 11
-4.63028
 21
156.4
  0
LINE
  8
0
 10
-4.63028
 20
156.4
 11
-10.5226
 21
150.507
  0
LINE
  8
0
 10
-10.5226
 20
150.507
 11
-12.7544
 21
152.74
  0
LINE
  8
0
 10
4.63028
 20
156.4
 11
9.86444
 21
161.634
  0
LINE
  8
0
 10
9.86444
 20
161.634
 11
11.0204
 21
158.076
  0
LINE
  8
0
 10
11.0204
 20
158.076
 11
9.34387
 21
156.4
  0
LINE
  8
0
 10
9.34387
 20
156.4
 11
12.6342
 21
153.109
  0
LINE
  8
0
 10
12.6342
 20
153.109
 11
14.9029
 21
146.127
  0
LINE
  8
0
 10
14.9029
 20
146.127
 11
4.63028
 21
156.4
  0
LINE
  8
0
 10
-12.963
 20
138.806
 11
0
 21
151.769
  0
LINE
  8
0
 10
0
 20
151.769
 11
5.89233
 21
145.877
  0
LINE
  8
0
 10
5.89233
 20
145.877
 11
3.53531
 21
143.52
  0
LINE
  8
0
 10
3.53531
 20
143.52
 11
0
 21
147.055
  0
LINE
  8
0
 10
0
 20
147.055
 11
-10.6059
 21
136.449
  0
LINE
  8
0
 10
-10.6059
 20
136.449
 11
-12.963
 21
138.806
  0
LINE
  8
0
 10
-14.509
 20
147.339
 11
-13.353
 21
150.897
  0
LINE
  8
0
 10
-13.353
 20
150.897
 11
-8.24982
 21
145.794
  0
LINE
  8
0
 10
-8.24982
 20
145.794
 11
-10.6064
 21
143.437
  0
LINE
  8
0
 10
-10.6064
 20
143.437
 11
-14.509
 21
147.339
  0
LINE
  8
0
 10
-5.89233
 20
138.723
 11
-3.53531
 21
141.079
  0
LINE
  8
0
 10
-3.53531
 20
141.079
 11
0
 21
137.544
  0
LINE
  8
0
 10
0
 20
137.544
 11
10.6059
 21
148.15
  0
LINE
  8
0
 10
10.6059
 20
148.15
 11
12.963
 21
145.793
  0
LINE
  8
0
 10
12.963
 20
145.793
 11
0
 21
132.83
  0
LINE
  8
0
 10
0
 20
132.83
 11
-5.89233
 21
138.723
  0
LINE
  8
0
 10
15.3204
 20
124.664
 11
18.8557
 21
128.2
  0
LINE
  8
0
 10
18.8557
 20
128.2
 11
8.24982
 21
138.806
  0
LINE
  8
0
 10
8.24982
 20
138.806
 11
10.6064
 21
141.163
  0
LINE
  8
0
 10
10.6064
 20
141.163
 11
19.3603
 21
132.409
  0
LINE
  8
0
 10
19.3603
 20
132.409
 11
21.4247
 21
126.055
  0
LINE
  8
0
 10
21.4247
 20
126.055
 11
17.677
 21
122.307
  0
LINE
  8
0
 10
17.677
 20
122.307
 11
15.3204
 21
124.664
  0
LINE
  8
0
 10
-12.8792
 20
124.664
 11
-9.34387
 21
128.2
  0
LINE
  8
0
 10
-9.34387
 20
128.2
 11
-17.9361
 21
136.792
  0
LINE
  8
0
 10
-17.9361
 20
136.792
 11
-16.7801
 21
140.349
  0
LINE
  8
0
 10
-16.7801
 20
140.349
 11
-4.63028
 21
128.2
  0
LINE
  8
0
 10
-4.63028
 20
128.2
 11
-10.5226
 21
122.307
  0
LINE
  8
0
 10
-10.5226
 20
122.307
 11
-12.8792
 21
124.664
  0
LINE
  8
0
 10
15.2367
 20
138.806
 11
16.7801
 21
140.349
  0
LINE
  8
0
 10
16.7801
 20
140.349
 11
17.9361
 21
136.792
  0
LINE
  8
0
 10
17.9361
 20
136.792
 11
17.5937
 21
136.449
  0
LINE
  8
0
 10
17.5937
 20
136.449
 11
15.2367
 21
138.806
  0
LINE
  8
0
 10
-21.4247
 20
126.055
 11
-19.3603
 21
132.409
  0
LINE
  8
0
 10
-19.3603
 20
132.409
 11
-17.677
 21
134.092
  0
LINE
  8
0
 10
-17.677
 20
134.092
 11
-15.3204
 21
131.735
  0
LINE
  8
0
 10
-15.3204
 20
131.735
 11
-18.8557
 21
128.2
  0
LINE
  8
0
 10
-18.8557
 20
128.2
 11
-8.24982
 21
117.594
  0
LINE
  8
0
 10
-8.24982
 20
117.594
 11
-10.6064
 21
115.237
  0
LINE
  8
0
 10
-10.6064
 20
115.237
 11
-21.4247
 21
126.055
  0
LINE
  8
0
 10
4.63028
 20
128.2
 11
10.5226
 21
134.092
  0
LINE
  8
0
 10
10.5226
 20
134.092
 11
12.8792
 21
131.735
  0
LINE
  8
0
 10
12.8792
 20
131.735
 11
9.34387
 21
128.2
  0
LINE
  8
0
 10
9.34387
 20
128.2
 11
19.9498
 21
117.594
  0
LINE
  8
0
 10
19.9498
 20
117.594
 11
17.5932
 21
115.237
  0
LINE
  8
0
 10
17.5932
 20
115.237
 11
4.63028
 21
128.2
  0
LINE
  8
0
 10
-12.963
 20
110.606
 11
0
 21
123.569
  0
LINE
  8
0
 10
0
 20
123.569
 11
5.89233
 21
117.677
  0
LINE
  8
0
 10
5.89233
 20
117.677
 11
3.53531
 21
115.32
  0
LINE
  8
0
 10
3.53531
 20
115.32
 11
0
 21
118.856
  0
LINE
  8
0
 10
0
 20
118.856
 11
-10.6059
 21
108.25
  0
LINE
  8
0
 10
-10.6059
 20
108.25
 11
-12.963
 21
110.606
  0
LINE
  8
0
 10
-5.89233
 20
110.523
 11
-3.53531
 21
112.879
  0
LINE
  8
0
 10
-3.53531
 20
112.879
 11
0
 21
109.344
  0
LINE
  8
0
 10
0
 20
109.344
 11
10.6059
 21
119.95
  0
LINE
  8
0
 10
10.6059
 20
119.95
 11
12.963
 21
117.593
  0
LINE
  8
0
 10
12.963
 20
117.593
 11
0
 21
104.63
  0
LINE
  8
0
 10
0
 20
104.63
 11
-5.89233
 21
110.523
  0
LINE
  8
0
 10
-28.3403
 20
104.771
 11
-26.207
 21
111.336
  0
LINE
  8
0
 10
-26.207
 20
111.336
 11
-17.5937
 21
119.95
  0
LINE
  8
0
 10
-17.5937
 20
119.95
 11
-15.2367
 21
117.593
  0
LINE
  8
0
 10
-15.2367
 20
117.593
 11
-28.1996
 21
104.63
  0
LINE
  8
0
 10
-28.1996
 20
104.63
 11
-28.3403
 21
104.771
  0
LINE
  8
0
 10
-24.8517
 20
115.508
 11
-23.6957
 21
119.065
  0
LINE
  8
0
 10
-23.6957
 20
119.065
 11
-22.3073
 21
117.677
  0
LINE
  8
0
 10
-22.3073
 20
117.677
 11
-24.6643
 21
115.32
  0
LINE
  8
0
 10
-24.6643
 20
115.32
 11
-24.8517
 21
115.508
  0
LINE
  8
0
 10
15.2367
 20
110.606
 11
23.6957
 21
119.065
  0
LINE
  8
0
 10
23.6957
 20
119.065
 11
24.8517
 21
115.508
  0
LINE
  8
0
 10
24.8517
 20
115.508
 11
17.5937
 21
108.25
  0
LINE
  8
0
 10
17.5937
 20
108.25
 11
15.2367
 21
110.606
  0
LINE
  8
0
 10
-12.8792
 20
96.4647
 11
-9.34387
 21
100
  0
LINE
  8
0
 10
-9.34387
 20
100
 11
-19.9498
 21
110.606
  0
LINE
  8
0
 10
-19.9498
 20
110.606
 11
-17.5932
 21
112.963
  0
LINE
  8
0
 10
-17.5932
 20
112.963
 11
-4.63028
 21
100
  0
LINE
  8
0
 10
-4.63028
 20
100
 11
-10.5226
 21
94.1077
  0
LINE
  8
0
 10
-10.5226
 20
94.1077
 11
-12.8792
 21
96.4647
  0
LINE
  8
0
 10
15.3204
 20
96.4647
 11
18.8557
 21
100
  0
LINE
  8
0
 10
18.8557
 20
100
 11
8.24982
 21
110.606
  0
LINE
  8
0
 10
8.24982
 20
110.606
 11
10.6064
 21
112.963
  0
LINE
  8
0
 10
10.6064
 20
112.963
 11
23.5693
 21
100
  0
LINE
  8
0
 10
23.5693
 20
100
 11
17.677
 21
94.1077
  0
LINE
  8
0
 10
17.677
 20
94.1077
 11
15.3204
 21
96.4647
  0
LINE
  8
0
 10
22.3073
 20
110.523
 11
24.6643
 21
112.879
  0
LINE
  8
0
 10
24.6643
 20
112.879
 11
26.207
 21
111.336
  0
LINE
  8
0
 10
26.207
 20
111.336
 11
28.3403
 21
104.771
  0
LINE
  8
0
 10
28.3403
 20
104.771
 11
28.1996
 21
104.63
  0
LINE
  8
0
 10
28.1996
 20
104.63
 11
22.3073
 21
110.523
  0
LINE
  8
0
 10
-23.5693
 20
100
 11
-17.677
 21
105.892
  0
LINE
  8
0
 10
-17.677
 20
105.892
 11
-15.3204
 21
103.535
  0
LINE
  8
0
 10
-15.3204
 20
103.535
 11
-18.8557
 21
100
  0
LINE
  8
0
 10
-18.8557
 20
100
 11
-8.24982
 21
89.3941
  0
LINE
  8
0
 10
-8.24982
 20
89.3941
 11
-10.6064
 21
87.037
  0
LINE
  8
0
 10
-10.6064
 20
87.037
 11
-23.5693
 21
100
  0
LINE
  8
0
 10
4.63028
 20
100
 11
10.5226
 21
105.892
  0
LINE
  8
0
 10
10.5226
 20
105.892
 11
12.8792
 21
103.535
  0
LINE
  8
0
 10
12.8792
 20
103.535
 11
9.34387
 21
100
  0
LINE
  8
0
 10
9.34387
 20
100
 11
19.9498
 21
89.3941
  0
LINE
  8
0
 10
19.9498
 20
89.3941
 11
17.5932
 21
87.037
  0
LINE
  8
0
 10
17.5932
 20
87.037
 11
4.63028
 21
100
  0
LINE
  8
0
 10
-32.9329
 20
90.6365
 11
-28.1996
 21
95.3697
  0
LINE
  8
0
 10
-28.1996
 20
95.3697
 11
-22.3073
 21
89.4774
  0
LINE
  8
0
 10
-22.3073
 20
89.4774
 11
-24.6643
 21
87.1208
  0
LINE
  8
0
 10
-24.6643
 20
87.1208
 11
-28.1996
 21
90.6561
  0
LINE
  8
0
 10
-28.1996
 20
90.6561
 11
-35.2016
 21
83.6542
  0
LINE
  8
0
 10
-35.2016
 20
83.6542
 11
-32.9329
 21
90.6365
  0
LINE
  8
0
 10
15.2367
 20
82.4068
 11
28.1996
 21
95.3697
  0
LINE
  8
0
 10
28.1996
 20
95.3697
 11
32.9329
 21
90.6365
  0
LINE
  8
0
 10
32.9329
 20
90.6365
 11
33.5013
 21
88.8869
  0
LINE
  8
0
 10
33.5013
 20
88.8869
 11
31.7349
 21
87.1208
  0
LINE
  8
0
 10
31.7349
 20
87.1208
 11
28.1996
 21
90.6561
  0
LINE
  8
0
 10
28.1996
 20
90.6561
 11
17.5937
 21
80.0502
  0
LINE
  8
0
 10
17.5937
 20
80.0502
 11
15.2367
 21
82.4068
  0
LINE
  8
0
 10
-12.963
 20
82.4068
 11
0
 21
95.3697
  0
LINE
  8
0
 10
0
 20
95.3697
 11
5.89233
 21
89.4774
  0
LINE
  8
0
 10
5.89233
 20
89.4774
 11
3.53531
 21
87.1208
  0
LINE
  8
0
 10
3.53531
 20
87.1208
 11
0
 21
90.6561
  0
LINE
  8
0
 10
0
 20
90.6561
 11
-10.6059
 21
80.0502
  0
LINE
  8
0
 10
-10.6059
 20
80.0502
 11
-12.963
 21
82.4068
  0
LINE
  8
0
 10
-5.89233
 20
82.323
 11
-3.53531
 21
84.6796
  0
LINE
  8
0
 10
-3.53531
 20
84.6796
 11
0
 21
81.1443
  0
LINE
  8
0
 10
0
 20
81.1443
 11
10.6059
 21
91.7502
  0
LINE
  8
0
 10
10.6059
 20
91.7502
 11
12.963
 21
89.3936
  0
LINE
  8
0
 10
12.963
 20
89.3936
 11
0
 21
76.4307
  0
LINE
  8
0
 10
0
 20
76.4307
 11
-5.89233
 21
82.323
  0
LINE
  8
0
 10
-34.0919
 20
82.323
 11
-31.7349
 21
84.6796
  0
LINE
  8
0
 10
-31.7349
 20
84.6796
 11
-28.1996
 21
81.1443
  0
LINE
  8
0
 10
-28.1996
 20
81.1443
 11
-17.5937
 21
91.7502
  0
LINE
  8
0
 10
-17.5937
 20
91.7502
 11
-15.2367
 21
89.3936
  0
LINE
  8
0
 10
-15.2367
 20
89.3936
 11
-28.1996
 21
76.4307
  0
LINE
  8
0
 10
-28.1996
 20
76.4307
 11
-34.0919
 21
82.323
  0
LINE
  8
0
 10
22.3073
 20
82.323
 11
24.6643
 21
84.6796
  0
LINE
  8
0
 10
24.6643
 20
84.6796
 11
28.1996
 21
81.1443
  0
LINE
  8
0
 10
28.1996
 20
81.1443
 11
34.0999
 21
87.0446
  0
LINE
  8
0
 10
34.0999
 20
87.0446
 11
35.2559
 21
83.487
  0
LINE
  8
0
 10
35.2559
 20
83.487
 11
28.1996
 21
76.4307
  0
LINE
  8
0
 10
28.1996
 20
76.4307
 11
22.3073
 21
82.323
  0
LINE
  8
0
 10
15.3204
 20
68.2651
 11
18.8557
 21
71.8004
  0
LINE
  8
0
 10
18.8557
 20
71.8004
 11
8.24982
 21
82.4063
  0
LINE
  8
0
 10
8.24982
 20
82.4063
 11
10.6064
 21
84.7633
  0
LINE
  8
0
 10
10.6064
 20
84.7633
 11
23.5693
 21
71.8004
  0
LINE
  8
0
 10
23.5693
 20
71.8004
 11
17.677
 21
65.9081
  0
LINE
  8
0
 10
17.677
 20
65.9081
 11
15.3204
 21
68.2651
  0
LINE
  8
0
 10
-12.8792
 20
68.2651
 11
-9.34387
 21
71.8004
  0
LINE
  8
0
 10
-9.34387
 20
71.8004
 11
-19.9498
 21
82.4063
  0
LINE
  8
0
 10
-19.9498
 20
82.4063
 11
-17.5932
 21
84.7633
  0
LINE
  8
0
 10
-17.5932
 20
84.7633
 11
-4.63028
 21
71.8004
  0
LINE
  8
0
 10
-4.63028
 20
71.8004
 11
-10.5226
 21
65.9081
  0
LINE
  8
0
 10
-10.5226
 20
65.9081
 11
-12.8792
 21
68.2651
  0
LINE
  8
0
 10
4.63028
 20
71.8004
 11
10.5226
 21
77.6927
  0
LINE
  8
0
 10
10.5226
 20
77.6927
 11
12.8792
 21
75.3357
  0
LINE
  8
0
 10
12.8792
 20
75.3357
 11
9.34387
 21
71.8004
  0
LINE
  8
0
 10
9.34387
 20
71.8004
 11
19.9498
 21
61.1945
  0
LINE
  8
0
 10
19.9498
 20
61.1945
 11
17.5932
 21
58.8374
  0
LINE
  8
0
 10
17.5932
 20
58.8374
 11
4.63028
 21
71.8004
  0
LINE
  8
0
 10
-23.5693
 20
71.8004
 11
-17.677
 21
77.6927
  0
LINE
  8
0
 10
-17.677
 20
77.6927
 11
-15.3204
 21
75.3357
  0
LINE
  8
0
 10
-15.3204
 20
75.3357
 11
-18.8557
 21
71.8004
  0
LINE
  8
0
 10
-18.8557
 20
71.8004
 11
-8.24982
 21
61.1945
  0
LINE
  8
0
 10
-8.24982
 20
61.1945
 11
-10.6064
 21
58.8374
  0
LINE
  8
0
 10
-10.6064
 20
58.8374
 11
-23.5693
 21
71.8004
  0
LINE
  8
0
 10
-40.417
 20
67.6027
 11
-39.7794
 21
69.5649
  0
LINE
  8
0
 10
-39.7794
 20
69.5649
 11
-37.5439
 21
71.8004
  0
LINE
  8
0
 10
-37.5439
 20
71.8004
 11
-38.683
 21
72.9394
  0
LINE
  8
0
 10
-38.683
 20
72.9394
 11
-37.527
 21
76.4971
  0
LINE
  8
0
 10
-37.527
 20
76.4971
 11
-32.8304
 21
71.8004
  0
LINE
  8
0
 10
-32.8304
 20
71.8004
 11
-38.7227
 21
65.9081
  0
LINE
  8
0
 10
-38.7227
 20
65.9081
 11
-40.417
 21
67.6027
  0
LINE
  8
0
 10
32.8304
 20
71.8004
 11
37.527
 21
76.4971
  0
LINE
  8
0
 10
37.527
 20
76.4971
 11
38.683
 21
72.9394
  0
LINE
  8
0
 10
38.683
 20
72.9394
 11
37.5439
 21
71.8004
  0
LINE
  8
0
 10
37.5439
 20
71.8004
 11
39.7794
 21
69.5649
  0
LINE
  8
0
 10
39.7794
 20
69.5649
 11
42.0481
 21
62.5826
  0
LINE
  8
0
 10
42.0481
 20
62.5826
 11
32.8304
 21
71.8004
  0
LINE
  8
0
 10
-12.963
 20
54.2067
 11
0
 21
67.1696
  0
LINE
  8
0
 10
0
 20
67.1696
 11
5.89233
 21
61.2773
  0
LINE
  8
0
 10
5.89233
 20
61.2773
 11
3.53531
 21
58.9207
  0
LINE
  8
0
 10
3.53531
 20
58.9207
 11
0
 21
62.4561
  0
LINE
  8
0
 10
0
 20
62.4561
 11
-10.6059
 21
51.8501
  0
LINE
  8
0
 10
-10.6059
 20
51.8501
 11
-12.963
 21
54.2067
  0
LINE
  8
0
 10
-41.1626
 20
54.2067
 11
-28.1996
 21
67.1696
  0
LINE
  8
0
 10
-28.1996
 20
67.1696
 11
-22.3073
 21
61.2773
  0
LINE
  8
0
 10
-22.3073
 20
61.2773
 11
-24.6643
 21
58.9207
  0
LINE
  8
0
 10
-24.6643
 20
58.9207
 11
-28.1996
 21
62.4561
  0
LINE
  8
0
 10
-28.1996
 20
62.4561
 11
-38.8055
 21
51.8501
  0
LINE
  8
0
 10
-38.8055
 20
51.8501
 11
-41.1626
 21
54.2067
  0
LINE
  8
0
 10
15.2367
 20
54.2067
 11
28.1996
 21
67.1696
  0
LINE
  8
0
 10
28.1996
 20
67.1696
 11
34.0919
 21
61.2773
  0
LINE
  8
0
 10
34.0919
 20
61.2773
 11
31.7349
 21
58.9207
  0
LINE
  8
0
 10
31.7349
 20
58.9207
 11
28.1996
 21
62.4561
  0
LINE
  8
0
 10
28.1996
 20
62.4561
 11
17.5937
 21
51.8501
  0
LINE
  8
0
 10
17.5937
 20
51.8501
 11
15.2367
 21
54.2067
  0
LINE
  8
0
 10
-42.1715
 20
62.2029
 11
-41.0155
 21
65.7606
  0
LINE
  8
0
 10
-41.0155
 20
65.7606
 11
-36.4494
 21
61.1945
  0
LINE
  8
0
 10
-36.4494
 20
61.1945
 11
-38.806
 21
58.8374
  0
LINE
  8
0
 10
-38.806
 20
58.8374
 11
-42.1715
 21
62.2029
  0
LINE
  8
0
 10
22.3073
 20
54.1234
 11
24.6643
 21
56.4799
  0
LINE
  8
0
 10
24.6643
 20
56.4799
 11
28.1996
 21
52.9446
  0
LINE
  8
0
 10
28.1996
 20
52.9446
 11
38.8055
 21
63.5506
  0
LINE
  8
0
 10
38.8055
 20
63.5506
 11
41.1626
 21
61.194
  0
LINE
  8
0
 10
41.1626
 20
61.194
 11
28.1996
 21
48.231
  0
LINE
  8
0
 10
28.1996
 20
48.231
 11
22.3073
 21
54.1234
  0
LINE
  8
0
 10
-34.0919
 20
54.1234
 11
-31.7349
 21
56.4799
  0
LINE
  8
0
 10
-31.7349
 20
56.4799
 11
-28.1996
 21
52.9446
  0
LINE
  8
0
 10
-28.1996
 20
52.9446
 11
-17.5937
 21
63.5506
  0
LINE
  8
0
 10
-17.5937
 20
63.5506
 11
-15.2367
 21
61.194
  0
LINE
  8
0
 10
-15.2367
 20
61.194
 11
-28.1996
 21
48.231
  0
LINE
  8
0
 10
-28.1996
 20
48.231
 11
-34.0919
 21
54.1234
  0
LINE
  8
0
 10
-5.89233
 20
54.1234
 11
-3.53531
 21
56.4799
  0
LINE
  8
0
 10
-3.53531
 20
56.4799
 11
0
 21
52.9446
  0
LINE
  8
0
 10
0
 20
52.9446
 11
10.6059
 21
63.5506
  0
LINE
  8
0
 10
10.6059
 20
63.5506
 11
12.963
 21
61.194
  0
LINE
  8
0
 10
12.963
 20
61.194
 11
0
 21
48.231
  0
LINE
  8
0
 10
0
 20
48.231
 11
-5.89233
 21
54.1234
  0
LINE
  8
0
 10
43.5201
 20
40.065
 11
47.0554
 21
43.6003
  0
LINE
  8
0
 10
47.0554
 20
43.6003
 11
36.4494
 21
54.2062
  0
LINE
  8
0
 10
36.4494
 20
54.2062
 11
38.806
 21
56.5633
  0
LINE
  8
0
 10
38.806
 20
56.5633
 11
46.5057
 21
48.8635
  0
LINE
  8
0
 10
46.5057
 20
48.8635
 11
49.0872
 21
40.9186
  0
LINE
  8
0
 10
49.0872
 20
40.9186
 11
45.8766
 21
37.708
  0
LINE
  8
0
 10
45.8766
 20
37.708
 11
43.5201
 21
40.065
  0
LINE
  8
0
 10
-12.8792
 20
40.065
 11
-9.34387
 21
43.6003
  0
LINE
  8
0
 10
-9.34387
 20
43.6003
 11
-19.9498
 21
54.2062
  0
LINE
  8
0
 10
-19.9498
 20
54.2062
 11
-17.5932
 21
56.5633
  0
LINE
  8
0
 10
-17.5932
 20
56.5633
 11
-4.63028
 21
43.6003
  0
LINE
  8
0
 10
-4.63028
 20
43.6003
 11
-10.5226
 21
37.708
  0
LINE
  8
0
 10
-10.5226
 20
37.708
 11
-12.8792
 21
40.065
  0
LINE
  8
0
 10
15.3204
 20
40.065
 11
18.8557
 21
43.6003
  0
LINE
  8
0
 10
18.8557
 20
43.6003
 11
8.24982
 21
54.2062
  0
LINE
  8
0
 10
8.24982
 20
54.2062
 11
10.6064
 21
56.5633
  0
LINE
  8
0
 10
10.6064
 20
56.5633
 11
23.5693
 21
43.6003
  0
LINE
  8
0
 10
23.5693
 20
43.6003
 11
17.677
 21
37.708
  0
LINE
  8
0
 10
17.677
 20
37.708
 11
15.3204
 21
40.065
  0
LINE
  8
0
 10
43.4367
 20
54.2067
 11
44.4427
 21
55.2127
  0
LINE
  8
0
 10
44.4427
 20
55.2127
 11
45.411
 21
52.2328
  0
LINE
  8
0
 10
45.411
 20
52.2328
 11
43.4367
 21
54.2067
  0
LINE
  8
0
 10
-41.0793
 20
40.065
 11
-37.5439
 21
43.6003
  0
LINE
  8
0
 10
-37.5439
 20
43.6003
 11
-45.5987
 21
51.6551
  0
LINE
  8
0
 10
-45.5987
 20
51.6551
 11
-44.4427
 21
55.2127
  0
LINE
  8
0
 10
-44.4427
 20
55.2127
 11
-32.8304
 21
43.6003
  0
LINE
  8
0
 10
-32.8304
 20
43.6003
 11
-38.7227
 21
37.708
  0
LINE
  8
0
 10
-38.7227
 20
37.708
 11
-41.0793
 21
40.065
  0
LINE
  8
0
 10
4.63028
 20
43.6003
 11
10.5226
 21
49.4926
  0
LINE
  8
0
 10
10.5226
 20
49.4926
 11
12.8792
 21
47.1356
  0
LINE
  8
0
 10
12.8792
 20
47.1356
 11
9.34387
 21
43.6003
  0
LINE
  8
0
 10
9.34387
 20
43.6003
 11
19.9498
 21
32.9944
  0
LINE
  8
0
 10
19.9498
 20
32.9944
 11
17.5932
 21
30.6374
  0
LINE
  8
0
 10
17.5932
 20
30.6374
 11
4.63028
 21
43.6003
  0
LINE
  8
0
 10
-23.5693
 20
43.6003
 11
-17.677
 21
49.4926
  0
LINE
  8
0
 10
-17.677
 20
49.4926
 11
-15.3204
 21
47.1356
  0
LINE
  8
0
 10
-15.3204
 20
47.1356
 11
-18.8557
 21
43.6003
  0
LINE
  8
0
 10
-18.8557
 20
43.6003
 11
-8.24982
 21
32.9944
  0
LINE
  8
0
 10
-8.24982
 20
32.9944
 11
-10.6064
 21
30.6374
  0
LINE
  8
0
 10
-10.6064
 20
30.6374
 11
-23.5693
 21
43.6003
  0
LINE
  8
0
 10
-49.0872
 20
40.9186
 11
-46.5057
 21
48.8635
  0
LINE
  8
0
 10
-46.5057
 20
48.8635
 11
-45.8766
 21
49.4926
  0
LINE
  8
0
 10
-45.8766
 20
49.4926
 11
-43.5201
 21
47.1356
  0
LINE
  8
0
 10
-43.5201
 20
47.1356
 11
-47.0554
 21
43.6003
  0
LINE
  8
0
 10
-47.0554
 20
43.6003
 11
-36.4494
 21
32.9944
  0
LINE
  8
0
 10
-36.4494
 20
32.9944
 11
-38.806
 21
30.6374
  0
LINE
  8
0
 10
-38.806
 20
30.6374
 11
-49.0872
 21
40.9186
  0
LINE
  8
0
 10
32.8304
 20
43.6003
 11
38.7227
 21
49.4926
  0
LINE
  8
0
 10
38.7227
 20
49.4926
 11
41.0793
 21
47.1356
  0
LINE
  8
0
 10
41.0793
 20
47.1356
 11
37.5439
 21
43.6003
  0
LINE
  8
0
 10
37.5439
 20
43.6003
 11
48.1499
 21
32.9944
  0
LINE
  8
0
 10
48.1499
 20
32.9944
 11
45.7933
 21
30.6374
  0
LINE
  8
0
 10
45.7933
 20
30.6374
 11
32.8304
 21
43.6003
  0
LINE
  8
0
 10
-12.963
 20
26.0066
 11
0
 21
38.9696
  0
LINE
  8
0
 10
0
 20
38.9696
 11
5.89233
 21
33.0772
  0
LINE
  8
0
 10
5.89233
 20
33.0772
 11
3.53531
 21
30.7207
  0
LINE
  8
0
 10
3.53531
 20
30.7207
 11
0
 21
34.256
  0
LINE
  8
0
 10
0
 20
34.256
 11
-10.6059
 21
23.6501
  0
LINE
  8
0
 10
-10.6059
 20
23.6501
 11
-12.963
 21
26.0066
  0
LINE
  8
0
 10
15.2367
 20
26.0066
 11
28.1996
 21
38.9696
  0
LINE
  8
0
 10
28.1996
 20
38.9696
 11
34.0919
 21
33.0772
  0
LINE
  8
0
 10
34.0919
 20
33.0772
 11
31.7349
 21
30.7207
  0
LINE
  8
0
 10
31.7349
 20
30.7207
 11
28.1996
 21
34.256
  0
LINE
  8
0
 10
28.1996
 20
34.256
 11
17.5937
 21
23.6501
  0
LINE
  8
0
 10
17.5937
 20
23.6501
 11
15.2367
 21
26.0066
  0
LINE
  8
0
 10
-41.1626
 20
26.0066
 11
-28.1996
 21
38.9696
  0
LINE
  8
0
 10
-28.1996
 20
38.9696
 11
-22.3073
 21
33.0772
  0
LINE
  8
0
 10
-22.3073
 20
33.0772
 11
-24.6643
 21
30.7207
  0
LINE
  8
0
 10
-24.6643
 20
30.7207
 11
-28.1996
 21
34.256
  0
LINE
  8
0
 10
-28.1996
 20
34.256
 11
-38.8055
 21
23.6501
  0
LINE
  8
0
 10
-38.8055
 20
23.6501
 11
-41.1626
 21
26.0066
  0
LINE
  8
0
 10
-5.89233
 20
25.9233
 11
-3.53531
 21
28.2799
  0
LINE
  8
0
 10
-3.53531
 20
28.2799
 11
0
 21
24.7446
  0
LINE
  8
0
 10
0
 20
24.7446
 11
10.6059
 21
35.3505
  0
LINE
  8
0
 10
10.6059
 20
35.3505
 11
12.963
 21
32.9939
  0
LINE
  8
0
 10
12.963
 20
32.9939
 11
0
 21
20.031
  0
LINE
  8
0
 10
0
 20
20.031
 11
-5.89233
 21
25.9233
  0
LINE
  8
0
 10
-34.0919
 20
25.9233
 11
-31.7349
 21
28.2799
  0
LINE
  8
0
 10
-31.7349
 20
28.2799
 11
-28.1996
 21
24.7446
  0
LINE
  8
0
 10
-28.1996
 20
24.7446
 11
-17.5937
 21
35.3505
  0
LINE
  8
0
 10
-17.5937
 20
35.3505
 11
-15.2367
 21
32.9939
  0
LINE
  8
0
 10
-15.2367
 20
32.9939
 11
-28.1996
 21
20.031
  0
LINE
  8
0
 10
-28.1996
 20
20.031
 11
-34.0919
 21
25.9233
  0
LINE
  8
0
 10
-53.3523
 20
27.792
 11
-45.7938
 21
35.3505
  0
LINE
  8
0
 10
-45.7938
 20
35.3505
 11
-43.4367
 21
32.9939
  0
LINE
  8
0
 10
-43.4367
 20
32.9939
 11
-55.621
 21
20.8097
  0
LINE
  8
0
 10
-55.621
 20
20.8097
 11
-53.3523
 21
27.792
  0
LINE
  8
0
 10
22.3073
 20
25.9233
 11
24.6643
 21
28.2799
  0
LINE
  8
0
 10
24.6643
 20
28.2799
 11
28.1996
 21
24.7446
  0
LINE
  8
0
 10
28.1996
 20
24.7446
 11
38.8055
 21
35.3505
  0
LINE
  8
0
 10
38.8055
 20
35.3505
 11
41.1626
 21
32.9939
  0
LINE
  8
0
 10
41.1626
 20
32.9939
 11
28.1996
 21
20.031
  0
LINE
  8
0
 10
28.1996
 20
20.031
 11
22.3073
 21
25.9233
  0
LINE
  8
0
 10
-51.3585
 20
33.9283
 11
-50.5074
 21
33.0772
  0
LINE
  8
0
 10
-50.5074
 20
33.0772
 11
-52.1776
 21
31.4073
  0
LINE
  8
0
 10
-52.1776
 20
31.4073
 11
-51.3585
 21
33.9283
  0
LINE
  8
0
 10
43.4367
 20
26.0066
 11
51.3585
 21
33.9283
  0
LINE
  8
0
 10
51.3585
 20
33.9283
 11
52.5144
 21
30.3707
  0
LINE
  8
0
 10
52.5144
 20
30.3707
 11
45.7938
 21
23.6501
  0
LINE
  8
0
 10
45.7938
 20
23.6501
 11
43.4367
 21
26.0066
  0
LINE
  8
0
 10
-40.9442
 20
12
 11
-37.5439
 21
15.4002
  0
LINE
  8
0
 10
-37.5439
 20
15.4002
 11
-48.1499
 21
26.0062
  0
LINE
  8
0
 10
-48.1499
 20
26.0062
 11
-45.7933
 21
28.3632
  0
LINE
  8
0
 10
-45.7933
 20
28.3632
 11
-32.8304
 21
15.4002
  0
LINE
  8
0
 10
-32.8304
 20
15.4002
 11
-36.2306
 21
12
  0
LINE
  8
0
 10
-36.2306
 20
12
 11
-40.9442
 21
12
  0
LINE
  8
0
 10
15.4555
 20
12
 11
18.8557
 21
15.4002
  0
LINE
  8
0
 10
18.8557
 20
15.4002
 11
8.24982
 21
26.0062
  0
LINE
  8
0
 10
8.24982
 20
26.0062
 11
10.6064
 21
28.3632
  0
LINE
  8
0
 10
10.6064
 20
28.3632
 11
23.5693
 21
15.4002
  0
LINE
  8
0
 10
23.5693
 20
15.4002
 11
20.1691
 21
12
  0
LINE
  8
0
 10
20.1691
 20
12
 11
15.4555
 21
12
  0
LINE
  8
0
 10
43.6551
 20
12
 11
47.0554
 21
15.4002
  0
LINE
  8
0
 10
47.0554
 20
15.4002
 11
36.4494
 21
26.0062
  0
LINE
  8
0
 10
36.4494
 20
26.0062
 11
38.806
 21
28.3632
  0
LINE
  8
0
 10
38.806
 20
28.3632
 11
51.769
 21
15.4002
  0
LINE
  8
0
 10
51.769
 20
15.4002
 11
48.3687
 21
12
  0
LINE
  8
0
 10
48.3687
 20
12
 11
43.6551
 21
12
  0
LINE
  8
0
 10
-12.7441
 20
12
 11
-9.34387
 21
15.4002
  0
LINE
  8
0
 10
-9.34387
 20
15.4002
 11
-19.9498
 21
26.0062
  0
LINE
  8
0
 10
-19.9498
 20
26.0062
 11
-17.5932
 21
28.3632
  0
LINE
  8
0
 10
-17.5932
 20
28.3632
 11
-4.63028
 21
15.4002
  0
LINE
  8
0
 10
-4.63028
 20
15.4002
 11
-8.03052
 21
12
  0
LINE
  8
0
 10
-8.03052
 20
12
 11
-12.7441
 21
12
  0
LINE
  8
0
 10
50.5074
 20
25.9233
 11
52.8644
 21
28.2799
  0
LINE
  8
0
 10
52.8644
 20
28.2799
 11
53.3523
 21
27.792
  0
LINE
  8
0
 10
53.3523
 20
27.792
 11
55.621
 21
20.8097
  0
LINE
  8
0
 10
55.621
 20
20.8097
 11
50.5074
 21
25.9233
  0
LINE
  8
0
 10
-48.3687
 20
12
 11
-51.769
 21
15.4002
  0
LINE
  8
0
 10
-51.769
 20
15.4002
 11
-45.8766
 21
21.2926
  0
LINE
  8
0
 10
-45.8766
 20
21.2926
 11
-43.5201
 21
18.9355
  0
LINE
  8
0
 10
-43.5201
 20
18.9355
 11
-47.0554
 21
15.4002
  0
LINE
  8
0
 10
-47.0554
 20
15.4002
 11
-43.6551
 21
12
  0
LINE
  8
0
 10
-43.6551
 20
12
 11
-48.3687
 21
12
  0
LINE
  8
0
 10
-20.1691
 20
12
 11
-23.5693
 21
15.4002
  0
LINE
  8
0
 10
-23.5693
 20
15.4002
 11
-17.677
 21
21.2926
  0
LINE
  8
0
 10
-17.677
 20
21.2926
 11
-15.3204
 21
18.9355
  0
LINE
  8
0
 10
-15.3204
 20
18.9355
 11
-18.8557
 21
15.4002
  0
LINE
  8
0
 10
-18.8557
 20
15.4002
 11
-15.4555
 21
12
  0
LINE
  8
0
 10
-15.4555
 20
12
 11
-20.1691
 21
12
  0
LINE
  8
0
 10
8.03052
 20
12
 11
4.63028
 21
15.4002
  0
LINE
  8
0
 10
4.63028
 20
15.4002
 11
10.5226
 21
21.2926
  0
LINE
  8
0
 10
10.5226
 20
21.2926
 11
12.8792
 21
18.9355
  0
LINE
  8
0
 10
12.8792
 20
18.9355
 11
9.34387
 21
15.4002
  0
LINE
  8
0
 10
9.34387
 20
15.4002
 11
12.7441
 21
12
  0
LINE
  8
0
 10
12.7441
 20
12
 11
8.03052
 21
12
  0
LINE
  8
0
 10
36.2306
 20
12
 11
32.8304
 21
15.4002
  0
LINE
  8
0
 10
32.8304
 20
15.4002
 11
38.7227
 21
21.2926
  0
LINE
  8
0
 10
38.7227
 20
21.2926
 11
41.0793
 21
18.9355
  0
LINE
  8
0
 10
41.0793
 20
18.9355
 11
37.5439
 21
15.4002
  0
LINE
  8
0
 10
37.5439
 20
15.4002
 11
40.9442
 21
12
  0
LINE
  8
0
 10
40.9442
 20
12
 11
36.2306
 21
12
  0
LINE
  8
0
 10
-10
 20
7
 11
-10
 21
11
  0
LINE
  8
0
 10
-10
 20
11
 11
10
 21
11
  0
LINE
  8
0
 10
10
 20
11
 11
10
 21
7
  0
LINE
  8
0
 10
10
 20
7
 11
-10
 21
7
  0
LINE
  8
0
 10
-68.6534
 20
2.70622
 11
-68.7785
 21
2.71805
  0
LINE
  8
0
 10
-68.7785
 20
2.71805
 11
-68.9026
 21
2.7377
  0
LINE
  8
0
 10
-68.9026
 20
2.7377
 11
-69.0252
 21
2.76511
  0
LINE
  8
0
 10
-69.0252
 20
2.76511
 11
-69.1459
 21
2.80016
  0
LINE
  8
0
 10
-69.1459
 20
2.80016
 11
-69.2641
 21
2.84273
  0
LINE
  8
0
 10
-69.2641
 20
2.84273
 11
-69.3794
 21
2.89262
  0
LINE
  8
0
 10
-69.3794
 20
2.89262
 11
-69.4914
 21
2.94966
  0
LINE
  8
0
 10
-69.4914
 20
2.94966
 11
-69.5995
 21
3.01363
  0
LINE
  8
0
 10
-69.5995
 20
3.01363
 11
-69.7034
 21
3.08424
  0
LINE
  8
0
 10
-69.7034
 20
3.08424
 11
-69.8027
 21
3.16125
  0
LINE
  8
0
 10
-69.8027
 20
3.16125
 11
-69.897
 21
3.24434
  0
LINE
  8
0
 10
-69.897
 20
3.24434
 11
-69.9858
 21
3.33318
  0
LINE
  8
0
 10
-69.9858
 20
3.33318
 11
-70.0689
 21
3.42743
  0
LINE
  8
0
 10
-70.0689
 20
3.42743
 11
-70.1459
 21
3.5267
  0
LINE
  8
0
 10
-70.1459
 20
3.5267
 11
-70.2165
 21
3.63062
  0
LINE
  8
0
 10
-70.2165
 20
3.63062
 11
-70.2805
 21
3.73877
  0
LINE
  8
0
 10
-70.2805
 20
3.73877
 11
-70.3375
 21
3.85072
  0
LINE
  8
0
 10
-70.3375
 20
3.85072
 11
-70.3874
 21
3.96602
  0
LINE
  8
0
 10
-70.3874
 20
3.96602
 11
-70.43
 21
4.08424
  0
LINE
  8
0
 10
-70.43
 20
4.08424
 11
-70.465
 21
4.2049
  0
LINE
  8
0
 10
-70.465
 20
4.2049
 11
-70.4924
 21
4.32751
  0
LINE
  8
0
 10
-70.4924
 20
4.32751
 11
-70.5121
 21
4.45161
  0
LINE
  8
0
 10
-70.5121
 20
4.45161
 11
-70.5239
 21
4.57669
  0
LINE
  8
0
 10
-70.5239
 20
4.57669
 11
-70.5279
 21
4.70227
  0
LINE
  8
0
 10
-70.5279
 20
4.70227
 11
-70.5239
 21
4.82785
  0
LINE
  8
0
 10
-70.5239
 20
4.82785
 11
-70.5121
 21
4.95294
  0
LINE
  8
0
 10
-70.5121
 20
4.95294
 11
-70.4924
 21
5.07704
  0
LINE
  8
0
 10
-70.4924
 20
5.07704
 11
-70.465
 21
5.19966
  0
LINE
  8
0
 10
-70.465
 20
5.19966
 11
-70.43
 21
5.32031
  0
LINE
  8
0
 10
-70.43
 20
5.32031
 11
-70.3874
 21
5.43852
  0
LINE
  8
0
 10
-70.3874
 20
5.43852
 11
-70.3375
 21
5.55383
  0
LINE
  8
0
 10
-70.3375
 20
5.55383
 11
-70.2805
 21
5.66579
  0
LINE
  8
0
 10
-70.2805
 20
5.66579
 11
-70.2165
 21
5.77393
  0
LINE
  8
0
 10
-70.2165
 20
5.77393
 11
-70.1459
 21
5.87784
  0
LINE
  8
0
 10
-70.1459
 20
5.87784
 11
-70.0689
 21
5.97713
  0
LINE
  8
0
 10
-70.0689
 20
5.97713
 11
-69.9858
 21
6.07137
  0
LINE
  8
0
 10
-69.9858
 20
6.07137
 11
-69.897
 21
6.16022
  0
LINE
  8
0
 10
-69.897
 20
6.16022
 11
-69.8027
 21
6.2433
  0
LINE
  8
0
 10
-69.8027
 20
6.2433
 11
-69.7034
 21
6.32031
  0
LINE
  8
0
 10
-69.7034
 20
6.32031
 11
-69.5995
 21
6.39093
  0
LINE
  8
0
 10
-69.5995
 20
6.39093
 11
-69.4914
 21
6.4549
  0
LINE
  8
0
 10
-69.4914
 20
6.4549
 11
-69.3794
 21
6.51193
  0
LINE
  8
0
 10
-69.3794
 20
6.51193
 11
-69.2641
 21
6.56183
  0
LINE
  8
0
 10
-69.2641
 20
6.56183
 11
-69.1459
 21
6.60439
  0
LINE
  8
0
 10
-69.1459
 20
6.60439
 11
-69.0252
 21
6.63943
  0
LINE
  8
0
 10
-69.0252
 20
6.63943
 11
-68.9026
 21
6.66685
  0
LINE
  8
0
 10
-68.9026
 20
6.66685
 11
-68.7785
 21
6.68651
  0
LINE
  8
0
 10
-68.7785
 20
6.68651
 11
-68.6534
 21
6.69833
  0
LINE
  8
0
 10
-68.6534
 20
6.69833
 11
-68.5279
 21
6.70227
  0
LINE
  8
0
 10
-68.5279
 20
6.70227
 11
-68.4023
 21
6.69833
  0
LINE
  8
0
 10
-68.4023
 20
6.69833
 11
-68.2772
 21
6.68651
  0
LINE
  8
0
 10
-68.2772
 20
6.68651
 11
-68.1531
 21
6.66685
  0
LINE
  8
0
 10
-68.1531
 20
6.66685
 11
-68.0305
 21
6.63943
  0
LINE
  8
0
 10
-68.0305
 20
6.63943
 11
-67.9098
 21
6.60439
  0
LINE
  8
0
 10
-67.9098
 20
6.60439
 11
-67.7916
 21
6.56183
  0
LINE
  8
0
 10
-67.7916
 20
6.56183
 11
-67.6763
 21
6.51193
  0
LINE
  8
0
 10
-67.6763
 20
6.51193
 11
-67.5643
 21
6.4549
  0
LINE
  8
0
 10
-67.5643
 20
6.4549
 11
-67.4562
 21
6.39093
  0
LINE
  8
0
 10
-67.4562
 20
6.39093
 11
-67.3523
 21
6.32031
  0
LINE
  8
0
 10
-67.3523
 20
6.32031
 11
-67.253
 21
6.2433
  0
LINE
  8
0
 10
-67.253
 20
6.2433
 11
-67.1588
 21
6.16022
  0
LINE
  8
0
 10
-67.1588
 20
6.16022
 11
-67.0699
 21
6.07137
  0
LINE
  8
0
 10
-67.0699
 20
6.07137
 11
-66.9868
 21
5.97713
  0
LINE
  8
0
 10
-66.9868
 20
5.97713
 11
-66.9098
 21
5.87784
  0
LINE
  8
0
 10
-66.9098
 20
5.87784
 11
-66.8392
 21
5.77393
  0
LINE
  8
0
 10
-66.8392
 20
5.77393
 11
-66.7752
 21
5.66579
  0
LINE
  8
0
 10
-66.7752
 20
5.66579
 11
-66.7182
 21
5.55383
  0
LINE
  8
0
 10
-66.7182
 20
5.55383
 11
-66.6683
 21
5.43852
  0
LINE
  8
0
 10
-66.6683
 20
5.43852
 11
-66.6257
 21
5.32031
  0
LINE
  8
0
 10
-66.6257
 20
5.32031
 11
-66.5907
 21
5.19966
  0
LINE
  8
0
 10
-66.5907
 20
5.19966
 11
-66.5633
 21
5.07704
  0
LINE
  8
0
 10
-66.5633
 20
5.07704
 11
-66.5436
 21
4.95294
  0
LINE
  8
0
 10
-66.5436
 20
4.95294
 11
-66.5318
 21
4.82785
  0
LINE
  8
0
 10
-66.5318
 20
4.82785
 11
-66.5279
 21
4.70227
  0
LINE
  8
0
 10
-66.5279
 20
4.70227
 11
-66.5318
 21
4.57669
  0
LINE
  8
0
 10
-66.5318
 20
4.57669
 11
-66.5436
 21
4.45161
  0
LINE
  8
0
 10
-66.5436
 20
4.45161
 11
-66.5633
 21
4.32751
  0
LINE
  8
0
 10
-66.5633
 20
4.32751
 11
-66.5907
 21
4.2049
  0
LINE
  8
0
 10
-66.5907
 20
4.2049
 11
-66.6257
 21
4.08424
  0
LINE
  8
0
 10
-66.6257
 20
4.08424
 11
-66.6683
 21
3.96602
  0
LINE
  8
0
 10
-66.6683
 20
3.96602
 11
-66.7182
 21
3.85072
  0
LINE
  8
0
 10
-66.7182
 20
3.85072
 11
-66.7752
 21
3.73877
  0
LINE
  8
0
 10
-66.7752
 20
3.73877
 11
-66.8392
 21
3.63062
  0
LINE
  8
0
 10
-66.8392
 20
3.63062
 11
-66.9098
 21
3.5267
  0
LINE
  8
0
 10
-66.9098
 20
3.5267
 11
-66.9868
 21
3.42743
  0
LINE
  8
0
 10
-66.9868
 20
3.42743
 11
-67.0699
 21
3.33318
  0
LINE
  8
0
 10
-67.0699
 20
3.33318
 11
-67.1588
 21
3.24434
  0
LINE
  8
0
 10
-67.1588
 20
3.24434
 11
-67.253
 21
3.16125
  0
LINE
  8
0
 10
-67.253
 20
3.16125
 11
-67.3523
 21
3.08424
  0
LINE
  8
0
 10
-67.3523
 20
3.08424
 11
-67.4562
 21
3.01363
  0
LINE
  8
0
 10
-67.4562
 20
3.01363
 11
-67.5643
 21
2.94966
  0
LINE
  8
0
 10
-67.5643
 20
2.94966
 11
-67.6763
 21
2.89262
  0
LINE
  8
0
 10
-67.6763
 20
2.89262
 11
-67.7916
 21
2.84273
  0
LINE
  8
0
 10
-67.7916
 20
2.84273
 11
-67.9098
 21
2.80016
  0
LINE
  8
0
 10
-67.9098
 20
2.80016
 11
-68.0305
 21
2.76511
  0
LINE
  8
0
 10
-68.0305
 20
2.76511
 11
-68.1531
 21
2.7377
  0
LINE
  8
0
 10
-68.1531
 20
2.7377
 11
-68.2772
 21
2.71805
  0
LINE
  8
0
 10
-68.2772
 20
2.71805
 11
-68.4023
 21
2.70622
  0
LINE
  8
0
 10
-68.4023
 20
2.70622
 11
-68.5279
 21
2.70227
  0
LINE
  8
0
 10
-68.5279
 20
2.70227
 11
-68.6534
 21
2.70622
  0
LINE
  8
0
 10
68.4023
 20
2.70622
 11
68.2772
 21
2.71805
  0
LINE
  8
0
 10
68.2772
 20
2.71805
 11
68.1531
 21
2.7377
  0
LINE
  8
0
 10
68.1531
 20
2.7377
 11
68.0305
 21
2.76511
  0
LINE
  8
0
 10
68.0305
 20
2.76511
 11
67.9098
 21
2.80016
  0
LINE
  8
0
 10
67.9098
 20
2.80016
 11
67.7916
 21
2.84273
  0
LINE
  8
0
 10
67.7916
 20
2.84273
 11
67.6763
 21
2.89262
  0
LINE
  8
0
 10
67.6763
 20
2.89262
 11
67.5643
 21
2.94966
  0
LINE
  8
0
 10
67.5643
 20
2.94966
 11
67.4562
 21
3.01363
  0
LINE
  8
0
 10
67.4562
 20
3.01363
 11
67.3523
 21
3.08424
  0
LINE
  8
0
 10
67.3523
 20
3.08424
 11
67.253
 21
3.16125
  0
LINE
  8
0
 10
67.253
 20
3.16125
 11
67.1588
 21
3.24434
  0
LINE
  8
0
 10
67.1588
 20
3.24434
 11
67.0699
 21
3.33318
  0
LINE
  8
0
 10
67.0699
 20
3.33318
 11
66.9868
 21
3.42743
  0
LINE
  8
0
 10
66.9868
 20
3.42743
 11
66.9098
 21
3.5267
  0
LINE
  8
0
 10
66.9098
 20
3.5267
 11
66.8392
 21
3.63062
  0
LINE
  8
0
 10
66.8392
 20
3.63062
 11
66.7752
 21
3.73877
  0
LINE
  8
0
 10
66.7752
 20
3.73877
 11
66.7182
 21
3.85072
  0
LINE
  8
0
 10
66.7182
 20
3.85072
 11
66.6683
 21
3.96602
  0
LINE
  8
0
 10
66.6683
 20
3.96602
 11
66.6257
 21
4.08424
  0
LINE
  8
0
 10
66.6257
 20
4.08424
 11
66.5907
 21
4.2049
  0
LINE
  8
0
 10
66.5907
 20
4.2049
 11
66.5633
 21
4.32751
  0
LINE
  8
0
 10
66.5633
 20
4.32751
 11
66.5436
 21
4.45161
  0
LINE
  8
0
 10
66.5436
 20
4.45161
 11
66.5318
 21
4.57669
  0
LINE
  8
0
 10
66.5318
 20
4.57669
 11
66.5279
 21
4.70227
  0
LINE
  8
0
 10
66.5279
 20
4.70227
 11
66.5318
 21
4.82785
  0
LINE
  8
0
 10
66.5318
 20
4.82785
 11
66.5436
 21
4.95294
  0
LINE
  8
0
 10
66.5436
 20
4.95294
 11
66.5633
 21
5.07704
  0
LINE
  8
0
 10
66.5633
 20
5.07704
 11
66.5907
 21
5.19966
  0
LINE
  8
0
 10
66.5907
 20
5.19966
 11
66.6257
 21
5.32031
  0
LINE
  8
0
 10
66.6257
 20
5.32031
 11
66.6683
 21
5.43852
  0
LINE
  8
0
 10
66.6683
 20
5.43852
 11
66.7182
 21
5.55383
  0
LINE
  8
0
 10
66.7182
 20
5.55383
 11
66.7752
 21
5.66579
  0
LINE
  8
0
 10
66.7752
 20
5.66579
 11
66.8392
 21
5.77393
  0
LINE
  8
0
 10
66.8392
 20
5.77393
 11
66.9098
 21
5.87784
  0
LINE
  8
0
 10
66.9098
 20
5.87784
 11
66.9868
 21
5.97713
  0
LINE
  8
0
 10
66.9868
 20
5.97713
 11
67.0699
 21
6.07137
  0
LINE
  8
0
 10
67.0699
 20
6.07137
 11
67.1588
 21
6.16022
  0
LINE
  8
0
 10
67.1588
 20
6.16022
 11
67.253
 21
6.2433
  0
LINE
  8
0
 10
67.253
 20
6.2433
 11
67.3523
 21
6.32031
  0
LINE
  8
0
 10
67.3523
 20
6.32031
 11
67.4562
 21
6.39093
  0
LINE
  8
0
 10
67.4562
 20
6.39093
 11
67.5643
 21
6.4549
  0
LINE
  8
0
 10
67.5643
 20
6.4549
 11
67.6763
 21
6.51193
  0
LINE
  8
0
 10
67.6763
 20
6.51193
 11
67.7916
 21
6.56183
  0
LINE
  8
0
 10
67.7916
 20
6.56183
 11
67.9098
 21
6.60439
  0
LINE
  8
0
 10
67.9098
 20
6.60439
 11
68.0305
 21
6.63943
  0
LINE
  8
0
 10
68.0305
 20
6.63943
 11
68.1531
 21
6.66685
  0
LINE
  8
0
 10
68.1531
 20
6.66685
 11
68.2772
 21
6.68651
  0
LINE
  8
0
 10
68.2772
 20
6.68651
 11
68.4023
 21
6.69833
  0
LINE
  8
0
 10
68.4023
 20
6.69833
 11
68.5279
 21
6.70227
  0
LINE
  8
0
 10
68.5279
 20
6.70227
 11
68.6534
 21
6.69833
  0
LINE
  8
0
 10
68.6534
 20
6.69833
 11
68.7785
 21
6.68651
  0
LINE
  8
0
 10
68.7785
 20
6.68651
 11
68.9026
 21
6.66685
  0
LINE
  8
0
 10
68.9026
 20
6.66685
 11
69.0252
 21
6.63943
  0
LINE
  8
0
 10
69.0252
 20
6.63943
 11
69.1459
 21
6.60439
  0
LINE
  8
0
 10
69.1459
 20
6.60439
 11
69.2641
 21
6.56183
  0
LINE
  8
0
 10
69.2641
 20
6.56183
 11
69.3794
 21
6.51193
  0
LINE
  8
0
 10
69.3794
 20
6.51193
 11
69.4914
 21
6.4549
  0
LINE
  8
0
 10
69.4914
 20
6.4549
 11
69.5995
 21
6.39093
  0
LINE
  8
0
 10
69.5995
 20
6.39093
 11
69.7034
 21
6.32031
  0
LINE
  8
0
 10
69.7034
 20
6.32031
 11
69.8027
 21
6.2433
  0
LINE
  8
0
 10
69.8027
 20
6.2433
 11
69.897
 21
6.16022
  0
LINE
  8
0
 10
69.897
 20
6.16022
 11
69.9858
 21
6.07137
  0
LINE
  8
0
 10
69.9858
 20
6.07137
 11
70.0689
 21
5.97713
  0
LINE
  8
0
 10
70.0689
 20
5.97713
 11
70.1459
 21
5.87784
  0
LINE
  8
0
 10
70.1459
 20
5.87784
 11
70.2165
 21
5.77393
  0
LINE
  8
0
 10
70.2165
 20
5.77393
 11
70.2805
 21
5.66579
  0
LINE
  8
0
 10
70.2805
 20
5.66579
 11
70.3375
 21
5.55383
  0
LINE
  8
0
 10
70.3375
 20
5.55383
 11
70.3874
 21
5.43852
  0
LINE
  8
0
 10
70.3874
 20
5.43852
 11
70.43
 21
5.32031
  0
LINE
  8
0
 10
70.43
 20
5.32031
 11
70.465
 21
5.19966
  0
LINE
  8
0
 10
70.465
 20
5.19966
 11
70.4924
 21
5.07704
  0
LINE
  8
0
 10
70.4924
 20
5.07704
 11
70.5121
 21
4.95294
  0
LINE
  8
0
 10
70.5121
 20
4.95294
 11
70.5239
 21
4.82785
  0
LINE
  8
0
 10
70.5239
 20
4.82785
 11
70.5279
 21
4.70227
  0
LINE
  8
0
 10
70.5279
 20
4.70227
 11
70.5239
 21
4.57669
  0
LINE
  8
0
 10
70.5239
 20
4.57669
 11
70.5121
 21
4.45161
  0
LINE
  8
0
 10
70.5121
 20
4.45161
 11
70.4924
 21
4.32751
  0
LINE
  8
0
 10
70.4924
 20
4.32751
 11
70.465
 21
4.2049
  0
LINE
  8
0
 10
70.465
 20
4.2049
 11
70.43
 21
4.08424
  0
LINE
  8
0
 10
70.43
 20
4.08424
 11
70.3874
 21
3.96602
  0
LINE
  8
0
 10
70.3874
 20
3.96602
 11
70.3375
 21
3.85072
  0
LINE
  8
0
 10
70.3375
 20
3.85072
 11
70.2805
 21
3.73877
  0
LINE
  8
0
 10
70.2805
 20
3.73877
 11
70.2165
 21
3.63062
  0
LINE
  8
0
 10
70.2165
 20
3.63062
 11
70.1459
 21
3.5267
  0
LINE
  8
0
 10
70.1459
 20
3.5267
 11
70.0689
 21
3.42743
  0
LINE
  8
0
 10
70.0689
 20
3.42743
 11
69.9858
 21
3.33318
  0
LINE
  8
0
 10
69.9858
 20
3.33318
 11
69.897
 21
3.24434
  0
LINE
  8
0
 10
69.897
 20
3.24434
 11
69.8027
 21
3.16125
  0
LINE
  8
0
 10
69.8027
 20
3.16125
 11
69.7034
 21
3.08424
  0
LINE
  8
0
 10
69.7034
 20
3.08424
 11
69.5995
 21
3.01363
  0
LINE
  8
0
 10
69.5995
 20
3.01363
 11
69.4914
 21
2.94966
  0
LINE
  8
0
 10
69.4914
 20
2.94966
 11
69.3794
 21
2.89262
  0
LINE
  8
0
 10
69.3794
 20
2.89262
 11
69.2641
 21
2.84273
  0
LINE
  8
0
 10
69.2641
 20
2.84273
 11
69.1459
 21
2.80016
  0
LINE
  8
0
 10
69.1459
 20
2.80016
 11
69.0252
 21
2.76511
  0
LINE
  8
0
 10
69.0252
 20
2.76511
 11
68.9026
 21
2.7377
  0
LINE
  8
0
 10
68.9026
 20
2.7377
 11
68.7785
 21
2.71805
  0
LINE
  8
0
 10
68.7785
 20
2.71805
 11
68.6534
 21
2.70622
  0
LINE
  8
0
 10
68.6534
 20
2.70622
 11
68.5279
 21
2.70227
  0
LINE
  8
0
 10
68.5279
 20
2.70227
 11
68.4023
 21
2.70622
  0
ENDSEC
  0
SECTION
  2
OBJECTS
  0
DICTIONARY
  0
ENDSEC
  0
EOF
