  0
SECTION
  2
BLOCKS
  0
ENDSEC
  0
SECTION
  2
ENTITIES
  0
LINE
  8
0
 10
0
 20
230.826
 11
-75
 21
0
  0
LINE
  8
0
 10
-75
 20
0
 11
75
 21
0
  0
LINE
  8
0
 10
75
 20
0
 11
0
 21
230.826
  0
LINE
  8
0
 10
-0.12558
 20
212.83
 11
-0.250656
 21
212.842
  0
LINE
  8
0
 10
-0.250656
 20
212.842
 11
-0.374756
 21
212.862
  0
LINE
  8
0
 10
-0.374756
 20
212.862
 11
-0.497375
 21
212.889
  0
LINE
  8
0
 10
-0.497375
 20
212.889
 11
-0.618027
 21
212.924
  0
LINE
  8
0
 10
-0.618027
 20
212.924
 11
-0.736237
 21
212.967
  0
LINE
  8
0
 10
-0.736237
 20
212.967
 11
-0.851547
 21
213.017
  0
LINE
  8
0
 10
-0.851547
 20
213.017
 11
-0.963501
 21
213.074
  0
LINE
  8
0
 10
-0.963501
 20
213.074
 11
-1.07164
 21
213.138
  0
LINE
  8
0
 10
-1.07164
 20
213.138
 11
-1.17557
 21
213.208
  0
LINE
  8
0
 10
-1.17557
 20
213.208
 11
-1.27484
 21
213.285
  0
LINE
  8
0
 10
-1.27484
 20
213.285
 11
-1.36908
 21
213.368
  0
LINE
  8
0
 10
-1.36908
 20
213.368
 11
-1.45793
 21
213.457
  0
LINE
  8
0
 10
-1.45793
 20
213.457
 11
-1.54102
 21
213.551
  0
LINE
  8
0
 10
-1.54102
 20
213.551
 11
-1.61803
 21
213.651
  0
LINE
  8
0
 10
-1.61803
 20
213.651
 11
-1.68864
 21
213.755
  0
LINE
  8
0
 10
-1.68864
 20
213.755
 11
-1.75261
 21
213.863
  0
LINE
  8
0
 10
-1.75261
 20
213.863
 11
-1.80965
 21
213.975
  0
LINE
  8
0
 10
-1.80965
 20
213.975
 11
-1.85954
 21
214.09
  0
LINE
  8
0
 10
-1.85954
 20
214.09
 11
-1.9021
 21
214.208
  0
LINE
  8
0
 10
-1.9021
 20
214.208
 11
-1.93716
 21
214.329
  0
LINE
  8
0
 10
-1.93716
 20
214.329
 11
-1.96457
 21
214.451
  0
LINE
  8
0
 10
-1.96457
 20
214.451
 11
-1.98422
 21
214.576
  0
LINE
  8
0
 10
-1.98422
 20
214.576
 11
-1.99605
 21
214.701
  0
LINE
  8
0
 10
-1.99605
 20
214.701
 11
-2
 21
214.826
  0
LINE
  8
0
 10
-2
 20
214.826
 11
-1.99605
 21
214.952
  0
LINE
  8
0
 10
-1.99605
 20
214.952
 11
-1.98422
 21
215.077
  0
LINE
  8
0
 10
-1.98422
 20
215.077
 11
-1.96457
 21
215.201
  0
LINE
  8
0
 10
-1.96457
 20
215.201
 11
-1.93716
 21
215.324
  0
LINE
  8
0
 10
-1.93716
 20
215.324
 11
-1.9021
 21
215.444
  0
LINE
  8
0
 10
-1.9021
 20
215.444
 11
-1.85954
 21
215.562
  0
LINE
  8
0
 10
-1.85954
 20
215.562
 11
-1.80965
 21
215.678
  0
LINE
  8
0
 10
-1.80965
 20
215.678
 11
-1.75261
 21
215.79
  0
LINE
  8
0
 10
-1.75261
 20
215.79
 11
-1.68864
 21
215.898
  0
LINE
  8
0
 10
-1.68864
 20
215.898
 11
-1.61803
 21
216.002
  0
LINE
  8
0
 10
-1.61803
 20
216.002
 11
-1.54102
 21
216.101
  0
LINE
  8
0
 10
-1.54102
 20
216.101
 11
-1.45793
 21
216.195
  0
LINE
  8
0
 10
-1.45793
 20
216.195
 11
-1.36908
 21
216.284
  0
LINE
  8
0
 10
-1.36908
 20
216.284
 11
-1.27484
 21
216.367
  0
LINE
  8
0
 10
-1.27484
 20
216.367
 11
-1.17557
 21
216.444
  0
LINE
  8
0
 10
-1.17557
 20
216.444
 11
-1.07164
 21
216.515
  0
LINE
  8
0
 10
-1.07164
 20
216.515
 11
-0.963501
 21
216.579
  0
LINE
  8
0
 10
-0.963501
 20
216.579
 11
-0.851547
 21
216.636
  0
LINE
  8
0
 10
-0.851547
 20
216.636
 11
-0.736237
 21
216.686
  0
LINE
  8
0
 10
-0.736237
 20
216.686
 11
-0.618027
 21
216.728
  0
LINE
  8
0
 10
-0.618027
 20
216.728
 11
-0.497375
 21
216.763
  0
LINE
  8
0
 10
-0.497375
 20
216.763
 11
-0.374756
 21
216.791
  0
LINE
  8
0
 10
-0.374756
 20
216.791
 11
-0.250656
 21
216.81
  0
LINE
  8
0
 10
-0.250656
 20
216.81
 11
-0.12558
 21
216.822
  0
LINE
  8
0
 10
-0.12558
 20
216.822
 11
0
 21
216.826
  0
LINE
  8
0
 10
0
 20
216.826
 11
0.12558
 21
216.822
  0
LINE
  8
0
 10
0.12558
 20
216.822
 11
0.250656
 21
216.81
  0
LINE
  8
0
 10
0.250656
 20
216.81
 11
0.374756
 21
216.791
  0
LINE
  8
0
 10
0.374756
 20
216.791
 11
0.497375
 21
216.763
  0
LINE
  8
0
 10
0.497375
 20
216.763
 11
0.618027
 21
216.728
  0
LINE
  8
0
 10
0.618027
 20
216.728
 11
0.736237
 21
216.686
  0
LINE
  8
0
 10
0.736237
 20
216.686
 11
0.851547
 21
216.636
  0
LINE
  8
0
 10
0.851547
 20
216.636
 11
0.963501
 21
216.579
  0
LINE
  8
0
 10
0.963501
 20
216.579
 11
1.07164
 21
216.515
  0
LINE
  8
0
 10
1.07164
 20
216.515
 11
1.17557
 21
216.444
  0
LINE
  8
0
 10
1.17557
 20
216.444
 11
1.27484
 21
216.367
  0
LINE
  8
0
 10
1.27484
 20
216.367
 11
1.36908
 21
216.284
  0
LINE
  8
0
 10
1.36908
 20
216.284
 11
1.45793
 21
216.195
  0
LINE
  8
0
 10
1.45793
 20
216.195
 11
1.54102
 21
216.101
  0
LINE
  8
0
 10
1.54102
 20
216.101
 11
1.61803
 21
216.002
  0
LINE
  8
0
 10
1.61803
 20
216.002
 11
1.68864
 21
215.898
  0
LINE
  8
0
 10
1.68864
 20
215.898
 11
1.75261
 21
215.79
  0
LINE
  8
0
 10
1.75261
 20
215.79
 11
1.80965
 21
215.678
  0
LINE
  8
0
 10
1.80965
 20
215.678
 11
1.85954
 21
215.562
  0
LINE
  8
0
 10
1.85954
 20
215.562
 11
1.9021
 21
215.444
  0
LINE
  8
0
 10
1.9021
 20
215.444
 11
1.93716
 21
215.324
  0
LINE
  8
0
 10
1.93716
 20
215.324
 11
1.96457
 21
215.201
  0
LINE
  8
0
 10
1.96457
 20
215.201
 11
1.98422
 21
215.077
  0
LINE
  8
0
 10
1.98422
 20
215.077
 11
1.99605
 21
214.952
  0
LINE
  8
0
 10
1.99605
 20
214.952
 11
2
 21
214.826
  0
LINE
  8
0
 10
2
 20
214.826
 11
1.99605
 21
214.701
  0
LINE
  8
0
 10
1.99605
 20
214.701
 11
1.98422
 21
214.576
  0
LINE
  8
0
 10
1.98422
 20
214.576
 11
1.96457
 21
214.451
  0
LINE
  8
0
 10
1.96457
 20
214.451
 11
1.93716
 21
214.329
  0
LINE
  8
0
 10
1.93716
 20
214.329
 11
1.9021
 21
214.208
  0
LINE
  8
0
 10
1.9021
 20
214.208
 11
1.85954
 21
214.09
  0
LINE
  8
0
 10
1.85954
 20
214.09
 11
1.80965
 21
213.975
  0
LINE
  8
0
 10
1.80965
 20
213.975
 11
1.75261
 21
213.863
  0
LINE
  8
0
 10
1.75261
 20
213.863
 11
1.68864
 21
213.755
  0
LINE
  8
0
 10
1.68864
 20
213.755
 11
1.61803
 21
213.651
  0
LINE
  8
0
 10
1.61803
 20
213.651
 11
1.54102
 21
213.551
  0
LINE
  8
0
 10
1.54102
 20
213.551
 11
1.45793
 21
213.457
  0
LINE
  8
0
 10
1.45793
 20
213.457
 11
1.36908
 21
213.368
  0
LINE
  8
0
 10
1.36908
 20
213.368
 11
1.27484
 21
213.285
  0
LINE
  8
0
 10
1.27484
 20
213.285
 11
1.17557
 21
213.208
  0
LINE
  8
0
 10
1.17557
 20
213.208
 11
1.07164
 21
213.138
  0
LINE
  8
0
 10
1.07164
 20
213.138
 11
0.963501
 21
213.074
  0
LINE
  8
0
 10
0.963501
 20
213.074
 11
0.851547
 21
213.017
  0
LINE
  8
0
 10
0.851547
 20
213.017
 11
0.736237
 21
212.967
  0
LINE
  8
0
 10
0.736237
 20
212.967
 11
0.618027
 21
212.924
  0
LINE
  8
0
 10
0.618027
 20
212.924
 11
0.497375
 21
212.889
  0
LINE
  8
0
 10
0.497375
 20
212.889
 11
0.374756
 21
212.862
  0
LINE
  8
0
 10
0.374756
 20
212.862
 11
0.250656
 21
212.842
  0
LINE
  8
0
 10
0.250656
 20
212.842
 11
0.12558
 21
212.83
  0
LINE
  8
0
 10
0.12558
 20
212.83
 11
0
 21
212.826
  0
LINE
  8
0
 10
0
 20
212.826
 11
-0.12558
 21
212.83
  0
LINE
  8
0
 10
-0.00367737
 20
191.982
 11
0
 21
191.993
  0
LINE
  8
0
 10
0
 20
191.993
 11
0.00367737
 21
191.982
  0
LINE
  8
0
 10
0.00367737
 20
191.982
 11
-0.00367737
 21
191.982
  0
LINE
  8
0
 10
-1.17642
 20
188.373
 11
-0.685486
 21
189.884
  0
LINE
  8
0
 10
-0.685486
 20
189.884
 11
0.685486
 21
189.884
  0
LINE
  8
0
 10
0.685486
 20
189.884
 11
1.70724
 21
186.739
  0
LINE
  8
0
 10
1.70724
 20
186.739
 11
-1.17642
 21
188.373
  0
LINE
  8
0
 10
-2.48532
 20
184.344
 11
-1.77441
 21
186.532
  0
LINE
  8
0
 10
-1.77441
 20
186.532
 11
2.61302
 21
183.951
  0
LINE
  8
0
 10
2.61302
 20
183.951
 11
3.49164
 21
181.247
  0
LINE
  8
0
 10
3.49164
 20
181.247
 11
0.349731
 21
179.433
  0
LINE
  8
0
 10
0.349731
 20
179.433
 11
-2.48532
 21
184.344
  0
LINE
  8
0
 10
-3.35754
 20
181.66
 11
-1.46622
 21
178.384
  0
LINE
  8
0
 10
-1.46622
 20
178.384
 11
-5.10414
 21
176.285
  0
LINE
  8
0
 10
-5.10414
 20
176.285
 11
-3.35754
 21
181.66
  0
LINE
  8
0
 10
1.46622
 20
177.501
 11
4.19687
 21
179.077
  0
LINE
  8
0
 10
4.19687
 20
179.077
 11
6.55402
 21
171.822
  0
LINE
  8
0
 10
6.55402
 20
171.822
 11
6.5799
 21
168.644
  0
LINE
  8
0
 10
6.5799
 20
168.644
 11
1.46622
 21
177.501
  0
LINE
  8
0
 10
-5.36819
 20
173.554
 11
-0.349731
 21
176.452
  0
LINE
  8
0
 10
-0.349731
 20
176.452
 11
4.76349
 21
167.594
  0
LINE
  8
0
 10
4.76349
 20
167.594
 11
-5.36819
 21
173.554
  0
LINE
  8
0
 10
-6.38351
 20
166.001
 11
-6.38351
 21
171.795
  0
LINE
  8
0
 10
-6.38351
 20
171.795
 11
3.84338
 21
166.001
  0
LINE
  8
0
 10
3.84338
 20
166.001
 11
-6.38351
 21
166.001
  0
LINE
  8
0
 10
-3.84338
 20
163.903
 11
6.38351
 21
163.903
  0
LINE
  8
0
 10
6.38351
 20
163.903
 11
6.38351
 21
158.109
  0
LINE
  8
0
 10
6.38351
 20
158.109
 11
-3.84338
 21
163.903
  0
LINE
  8
0
 10
8.61649
 20
163.903
 11
9.12718
 21
163.903
  0
LINE
  8
0
 10
9.12718
 20
163.903
 11
10.6377
 21
159.254
  0
LINE
  8
0
 10
10.6377
 20
159.254
 11
8.61649
 21
158.109
  0
LINE
  8
0
 10
8.61649
 20
158.109
 11
8.61649
 21
163.903
  0
LINE
  8
0
 10
-4.76349
 20
162.31
 11
5.36819
 21
156.35
  0
LINE
  8
0
 10
5.36819
 20
156.35
 11
0.349731
 21
153.453
  0
LINE
  8
0
 10
0.349731
 20
153.453
 11
-4.76349
 21
162.31
  0
LINE
  8
0
 10
-6.5799
 20
161.26
 11
-1.46622
 21
152.403
  0
LINE
  8
0
 10
-1.46622
 20
152.403
 11
-6.48422
 21
149.507
  0
LINE
  8
0
 10
-6.48422
 20
149.507
 11
-6.5799
 21
161.26
  0
LINE
  8
0
 10
-12.9693
 20
152.078
 11
-12.0016
 21
155.056
  0
LINE
  8
0
 10
-12.0016
 20
155.056
 11
-8.41965
 21
161.26
  0
LINE
  8
0
 10
-8.41965
 20
161.26
 11
-8.51532
 21
149.507
  0
LINE
  8
0
 10
-8.51532
 20
149.507
 11
-12.9693
 21
152.078
  0
LINE
  8
0
 10
9.63135
 20
156.35
 11
11.2684
 21
157.313
  0
LINE
  8
0
 10
11.2684
 20
157.313
 11
12.0316
 21
154.964
  0
LINE
  8
0
 10
12.0316
 20
154.964
 11
9.63135
 21
156.35
  0
LINE
  8
0
 10
1.46622
 20
151.52
 11
6.48422
 21
154.416
  0
LINE
  8
0
 10
6.48422
 20
154.416
 11
6.5799
 21
142.663
  0
LINE
  8
0
 10
6.5799
 20
142.663
 11
1.46622
 21
151.52
  0
LINE
  8
0
 10
8.51532
 20
154.416
 11
13.0623
 21
151.792
  0
LINE
  8
0
 10
13.0623
 20
151.792
 11
13.2885
 21
151.096
  0
LINE
  8
0
 10
13.2885
 20
151.096
 11
8.41965
 21
142.663
  0
LINE
  8
0
 10
8.41965
 20
142.663
 11
8.51532
 21
154.416
  0
LINE
  8
0
 10
-5.36819
 20
147.574
 11
-0.349731
 21
150.471
  0
LINE
  8
0
 10
-0.349731
 20
150.471
 11
4.76349
 21
141.613
  0
LINE
  8
0
 10
4.76349
 20
141.613
 11
-5.36819
 21
147.574
  0
LINE
  8
0
 10
-13.6745
 20
149.908
 11
-9.63135
 21
147.574
  0
LINE
  8
0
 10
-9.63135
 20
147.574
 11
-15.5675
 21
144.082
  0
LINE
  8
0
 10
-15.5675
 20
144.082
 11
-13.6745
 21
149.908
  0
LINE
  8
0
 10
14.1609
 20
148.411
 11
15.3854
 21
144.642
  0
LINE
  8
0
 10
15.3854
 20
144.642
 11
10.2365
 21
141.613
  0
LINE
  8
0
 10
10.2365
 20
141.613
 11
14.1609
 21
148.411
  0
LINE
  8
0
 10
-16.8871
 20
140.02
 11
-16.4457
 21
141.379
  0
LINE
  8
0
 10
-16.4457
 20
141.379
 11
-8.61649
 21
145.814
  0
LINE
  8
0
 10
-8.61649
 20
145.814
 11
-8.61649
 21
140.02
  0
LINE
  8
0
 10
-8.61649
 20
140.02
 11
-16.8871
 21
140.02
  0
LINE
  8
0
 10
-6.38351
 20
140.02
 11
-6.38351
 21
145.814
  0
LINE
  8
0
 10
-6.38351
 20
145.814
 11
3.84338
 21
140.02
  0
LINE
  8
0
 10
3.84338
 20
140.02
 11
-6.38351
 21
140.02
  0
LINE
  8
0
 10
11.1566
 20
140.02
 11
15.9962
 21
142.762
  0
LINE
  8
0
 10
15.9962
 20
142.762
 11
16.8871
 21
140.02
  0
LINE
  8
0
 10
16.8871
 20
140.02
 11
11.1566
 21
140.02
  0
LINE
  8
0
 10
-3.84338
 20
137.922
 11
6.38351
 21
137.922
  0
LINE
  8
0
 10
6.38351
 20
137.922
 11
6.38351
 21
132.128
  0
LINE
  8
0
 10
6.38351
 20
132.128
 11
-3.84338
 21
137.922
  0
LINE
  8
0
 10
8.61649
 20
137.922
 11
17.5689
 21
137.922
  0
LINE
  8
0
 10
17.5689
 20
137.922
 11
17.767
 21
137.312
  0
LINE
  8
0
 10
17.767
 20
137.312
 11
8.61649
 21
132.128
  0
LINE
  8
0
 10
8.61649
 20
132.128
 11
8.61649
 21
137.922
  0
LINE
  8
0
 10
-17.5689
 20
137.922
 11
-11.1566
 21
137.922
  0
LINE
  8
0
 10
-11.1566
 20
137.922
 11
-19.0155
 21
133.47
  0
LINE
  8
0
 10
-19.0155
 20
133.47
 11
-17.5689
 21
137.922
  0
LINE
  8
0
 10
-4.76349
 20
136.329
 11
5.36819
 21
130.369
  0
LINE
  8
0
 10
5.36819
 20
130.369
 11
0.349731
 21
127.472
  0
LINE
  8
0
 10
0.349731
 20
127.472
 11
-4.76349
 21
136.329
  0
LINE
  8
0
 10
-20.0776
 20
130.201
 11
-19.9413
 21
130.62
  0
LINE
  8
0
 10
-19.9413
 20
130.62
 11
-10.2365
 21
136.329
  0
LINE
  8
0
 10
-10.2365
 20
136.329
 11
-15.3502
 21
127.472
  0
LINE
  8
0
 10
-15.3502
 20
127.472
 11
-20.0776
 21
130.201
  0
LINE
  8
0
 10
9.63135
 20
130.369
 11
18.3556
 21
135.501
  0
LINE
  8
0
 10
18.3556
 20
135.501
 11
18.6904
 21
134.47
  0
LINE
  8
0
 10
18.6904
 20
134.47
 11
14.6498
 21
127.472
  0
LINE
  8
0
 10
14.6498
 20
127.472
 11
9.63135
 21
130.369
  0
LINE
  8
0
 10
-13.5333
 20
126.423
 11
-8.41965
 21
135.279
  0
LINE
  8
0
 10
-8.41965
 20
135.279
 11
-8.51532
 21
123.526
  0
LINE
  8
0
 10
-8.51532
 20
123.526
 11
-13.5333
 21
126.423
  0
LINE
  8
0
 10
-6.5799
 20
135.279
 11
-1.46622
 21
126.423
  0
LINE
  8
0
 10
-1.46622
 20
126.423
 11
-6.48422
 21
123.526
  0
LINE
  8
0
 10
-6.48422
 20
123.526
 11
-6.5799
 21
135.279
  0
LINE
  8
0
 10
16.4667
 20
126.423
 11
19.5629
 21
131.785
  0
LINE
  8
0
 10
19.5629
 20
131.785
 11
21.5033
 21
125.813
  0
LINE
  8
0
 10
21.5033
 20
125.813
 11
21.4847
 21
123.526
  0
LINE
  8
0
 10
21.4847
 20
123.526
 11
16.4667
 21
126.423
  0
LINE
  8
0
 10
1.46622
 20
125.539
 11
6.48422
 21
128.435
  0
LINE
  8
0
 10
6.48422
 20
128.435
 11
6.5799
 21
116.682
  0
LINE
  8
0
 10
6.5799
 20
116.682
 11
1.46622
 21
125.539
  0
LINE
  8
0
 10
8.51532
 20
128.435
 11
13.5333
 21
125.539
  0
LINE
  8
0
 10
13.5333
 20
125.539
 11
8.41965
 21
116.682
  0
LINE
  8
0
 10
8.41965
 20
116.682
 11
8.51532
 21
128.435
  0
LINE
  8
0
 10
-21.5061
 20
125.804
 11
-20.7829
 21
128.03
  0
LINE
  8
0
 10
-20.7829
 20
128.03
 11
-16.4667
 21
125.539
  0
LINE
  8
0
 10
-16.4667
 20
125.539
 11
-21.5804
 21
116.682
  0
LINE
  8
0
 10
-21.5804
 20
116.682
 11
-21.5061
 21
125.804
  0
LINE
  8
0
 10
15.3502
 20
124.49
 11
20.3687
 21
121.593
  0
LINE
  8
0
 10
20.3687
 20
121.593
 11
10.2365
 21
115.633
  0
LINE
  8
0
 10
10.2365
 20
115.633
 11
15.3502
 21
124.49
  0
LINE
  8
0
 10
-5.36819
 20
121.593
 11
-0.349731
 21
124.49
  0
LINE
  8
0
 10
-0.349731
 20
124.49
 11
4.76349
 21
115.633
  0
LINE
  8
0
 10
4.76349
 20
115.633
 11
-5.36819
 21
121.593
  0
LINE
  8
0
 10
-14.6498
 20
124.49
 11
-9.63135
 21
121.593
  0
LINE
  8
0
 10
-9.63135
 20
121.593
 11
-19.7635
 21
115.633
  0
LINE
  8
0
 10
-19.7635
 20
115.633
 11
-14.6498
 21
124.49
  0
LINE
  8
0
 10
-24.092
 20
117.846
 11
-23.4458
 21
119.835
  0
LINE
  8
0
 10
-23.4458
 20
119.835
 11
-23.4201
 21
116.682
  0
LINE
  8
0
 10
-23.4201
 20
116.682
 11
-24.092
 21
117.846
  0
LINE
  8
0
 10
11.1566
 20
114.04
 11
21.3835
 21
119.834
  0
LINE
  8
0
 10
21.3835
 20
119.834
 11
21.3835
 21
114.04
  0
LINE
  8
0
 10
21.3835
 20
114.04
 11
11.1566
 21
114.04
  0
LINE
  8
0
 10
-6.38351
 20
114.04
 11
-6.38351
 21
119.834
  0
LINE
  8
0
 10
-6.38351
 20
119.834
 11
3.84338
 21
114.04
  0
LINE
  8
0
 10
3.84338
 20
114.04
 11
-6.38351
 21
114.04
  0
LINE
  8
0
 10
-18.8434
 20
114.04
 11
-8.61649
 21
119.834
  0
LINE
  8
0
 10
-8.61649
 20
119.834
 11
-8.61649
 21
114.04
  0
LINE
  8
0
 10
-8.61649
 20
114.04
 11
-18.8434
 21
114.04
  0
LINE
  8
0
 10
23.6165
 20
114.04
 11
23.6165
 21
119.309
  0
LINE
  8
0
 10
23.6165
 20
119.309
 11
25.3287
 21
114.04
  0
LINE
  8
0
 10
25.3287
 20
114.04
 11
23.6165
 21
114.04
  0
LINE
  8
0
 10
-21.3835
 20
111.941
 11
-11.1566
 21
111.941
  0
LINE
  8
0
 10
-11.1566
 20
111.941
 11
-21.3835
 21
106.147
  0
LINE
  8
0
 10
-21.3835
 20
106.147
 11
-21.3835
 21
111.941
  0
LINE
  8
0
 10
-3.84338
 20
111.941
 11
6.38351
 21
111.941
  0
LINE
  8
0
 10
6.38351
 20
111.941
 11
6.38351
 21
106.147
  0
LINE
  8
0
 10
6.38351
 20
106.147
 11
-3.84338
 21
111.941
  0
LINE
  8
0
 10
8.61649
 20
111.941
 11
18.8434
 21
111.941
  0
LINE
  8
0
 10
18.8434
 20
111.941
 11
8.61649
 21
106.147
  0
LINE
  8
0
 10
8.61649
 20
106.147
 11
8.61649
 21
111.941
  0
LINE
  8
0
 10
-27.2283
 20
108.194
 11
-26.0105
 21
111.941
  0
LINE
  8
0
 10
-26.0105
 20
111.941
 11
-23.6165
 21
111.941
  0
LINE
  8
0
 10
-23.6165
 20
111.941
 11
-23.6165
 21
106.147
  0
LINE
  8
0
 10
-23.6165
 20
106.147
 11
-27.2283
 21
108.194
  0
LINE
  8
0
 10
9.63135
 20
104.388
 11
19.7635
 21
110.348
  0
LINE
  8
0
 10
19.7635
 20
110.348
 11
14.6498
 21
101.491
  0
LINE
  8
0
 10
14.6498
 20
101.491
 11
9.63135
 21
104.388
  0
LINE
  8
0
 10
-4.76349
 20
110.348
 11
5.36819
 21
104.388
  0
LINE
  8
0
 10
5.36819
 20
104.388
 11
0.349731
 21
101.491
  0
LINE
  8
0
 10
0.349731
 20
101.491
 11
-4.76349
 21
110.348
  0
LINE
  8
0
 10
-20.3687
 20
104.388
 11
-10.2365
 21
110.348
  0
LINE
  8
0
 10
-10.2365
 20
110.348
 11
-15.3502
 21
101.491
  0
LINE
  8
0
 10
-15.3502
 20
101.491
 11
-20.3687
 21
104.388
  0
LINE
  8
0
 10
25.2365
 20
110.348
 11
26.8334
 21
109.409
  0
LINE
  8
0
 10
26.8334
 20
109.409
 11
28.1911
 21
105.23
  0
LINE
  8
0
 10
28.1911
 20
105.23
 11
25.2365
 21
110.348
  0
LINE
  8
0
 10
23.4201
 20
109.299
 11
28.5338
 21
100.442
  0
LINE
  8
0
 10
28.5338
 20
100.442
 11
23.5158
 21
97.5455
  0
LINE
  8
0
 10
23.5158
 20
97.5455
 11
23.4201
 21
109.299
  0
LINE
  8
0
 10
16.4667
 20
100.442
 11
21.5804
 21
109.299
  0
LINE
  8
0
 10
21.5804
 20
109.299
 11
21.4847
 21
97.5455
  0
LINE
  8
0
 10
21.4847
 20
97.5455
 11
16.4667
 21
100.442
  0
LINE
  8
0
 10
-13.5333
 20
100.442
 11
-8.41965
 21
109.299
  0
LINE
  8
0
 10
-8.41965
 20
109.299
 11
-8.51532
 21
97.5455
  0
LINE
  8
0
 10
-8.51532
 20
97.5455
 11
-13.5333
 21
100.442
  0
LINE
  8
0
 10
-6.5799
 20
109.299
 11
-1.46622
 21
100.442
  0
LINE
  8
0
 10
-1.46622
 20
100.442
 11
-6.48422
 21
97.5455
  0
LINE
  8
0
 10
-6.48422
 20
97.5455
 11
-6.5799
 21
109.299
  0
LINE
  8
0
 10
-27.8496
 20
106.281
 11
-24.6318
 21
104.388
  0
LINE
  8
0
 10
-24.6318
 20
104.388
 11
-29.3497
 21
101.664
  0
LINE
  8
0
 10
-29.3497
 20
101.664
 11
-27.8496
 21
106.281
  0
LINE
  8
0
 10
1.46622
 20
99.5583
 11
6.48422
 21
102.455
  0
LINE
  8
0
 10
6.48422
 20
102.455
 11
6.5799
 21
90.7014
  0
LINE
  8
0
 10
6.5799
 20
90.7014
 11
1.46622
 21
99.5583
  0
LINE
  8
0
 10
-21.4847
 20
102.455
 11
-16.4667
 21
99.5583
  0
LINE
  8
0
 10
-16.4667
 20
99.5583
 11
-21.5804
 21
90.7014
  0
LINE
  8
0
 10
-21.5804
 20
90.7014
 11
-21.4847
 21
102.455
  0
LINE
  8
0
 10
-28.5338
 20
99.5583
 11
-23.5158
 21
102.455
  0
LINE
  8
0
 10
-23.5158
 20
102.455
 11
-23.4201
 21
90.7014
  0
LINE
  8
0
 10
-23.4201
 20
90.7014
 11
-28.5338
 21
99.5583
  0
LINE
  8
0
 10
8.51532
 20
102.455
 11
13.5333
 21
99.5583
  0
LINE
  8
0
 10
13.5333
 20
99.5583
 11
8.41965
 21
90.7014
  0
LINE
  8
0
 10
8.41965
 20
90.7014
 11
8.51532
 21
102.455
  0
LINE
  8
0
 10
15.3502
 20
98.5091
 11
20.3687
 21
95.6119
  0
LINE
  8
0
 10
20.3687
 20
95.6119
 11
10.2365
 21
89.6518
  0
LINE
  8
0
 10
10.2365
 20
89.6518
 11
15.3502
 21
98.5091
  0
LINE
  8
0
 10
24.6318
 20
95.6119
 11
29.6503
 21
98.5091
  0
LINE
  8
0
 10
29.6503
 20
98.5091
 11
31.3079
 21
95.6377
  0
LINE
  8
0
 10
31.3079
 20
95.6377
 11
32.8958
 21
90.7505
  0
LINE
  8
0
 10
32.8958
 20
90.7505
 11
24.6318
 21
95.6119
  0
LINE
  8
0
 10
-5.36819
 20
95.6119
 11
-0.349731
 21
98.5091
  0
LINE
  8
0
 10
-0.349731
 20
98.5091
 11
4.76349
 21
89.6518
  0
LINE
  8
0
 10
4.76349
 20
89.6518
 11
-5.36819
 21
95.6119
  0
LINE
  8
0
 10
-31.9665
 20
93.6108
 11
-30.3807
 21
98.4912
  0
LINE
  8
0
 10
-30.3807
 20
98.4912
 11
-30.3497
 21
98.5091
  0
LINE
  8
0
 10
-30.3497
 20
98.5091
 11
-25.2365
 21
89.6518
  0
LINE
  8
0
 10
-25.2365
 20
89.6518
 11
-31.9665
 21
93.6108
  0
LINE
  8
0
 10
-14.6498
 20
98.5091
 11
-9.63135
 21
95.6119
  0
LINE
  8
0
 10
-9.63135
 20
95.6119
 11
-19.7635
 21
89.6518
  0
LINE
  8
0
 10
-19.7635
 20
89.6518
 11
-14.6498
 21
98.5091
  0
LINE
  8
0
 10
23.6165
 20
88.0588
 11
23.6165
 21
93.8527
  0
LINE
  8
0
 10
23.6165
 20
93.8527
 11
33.754
 21
88.1094
  0
LINE
  8
0
 10
33.754
 20
88.1094
 11
33.7704
 21
88.0588
  0
LINE
  8
0
 10
33.7704
 20
88.0588
 11
23.6165
 21
88.0588
  0
LINE
  8
0
 10
-18.8434
 20
88.0588
 11
-8.61649
 21
93.8527
  0
LINE
  8
0
 10
-8.61649
 20
93.8527
 11
-8.61649
 21
88.0588
  0
LINE
  8
0
 10
-8.61649
 20
88.0588
 11
-18.8434
 21
88.0588
  0
LINE
  8
0
 10
-6.38351
 20
88.0588
 11
-6.38351
 21
93.8527
  0
LINE
  8
0
 10
-6.38351
 20
93.8527
 11
3.84338
 21
88.0588
  0
LINE
  8
0
 10
3.84338
 20
88.0588
 11
-6.38351
 21
88.0588
  0
LINE
  8
0
 10
11.1566
 20
88.0588
 11
21.3835
 21
93.8527
  0
LINE
  8
0
 10
21.3835
 20
93.8527
 11
21.3835
 21
88.0588
  0
LINE
  8
0
 10
21.3835
 20
88.0588
 11
11.1566
 21
88.0588
  0
LINE
  8
0
 10
-33.7704
 20
88.0588
 11
-32.5868
 21
91.7017
  0
LINE
  8
0
 10
-32.5868
 20
91.7017
 11
-26.1566
 21
88.0588
  0
LINE
  8
0
 10
-26.1566
 20
88.0588
 11
-33.7704
 21
88.0588
  0
LINE
  8
0
 10
-3.84338
 20
85.9604
 11
6.38351
 21
85.9604
  0
LINE
  8
0
 10
6.38351
 20
85.9604
 11
6.38351
 21
80.1665
  0
LINE
  8
0
 10
6.38351
 20
80.1665
 11
-3.84338
 21
85.9604
  0
LINE
  8
0
 10
8.61649
 20
85.9604
 11
18.8434
 21
85.9604
  0
LINE
  8
0
 10
18.8434
 20
85.9604
 11
8.61649
 21
80.1665
  0
LINE
  8
0
 10
8.61649
 20
80.1665
 11
8.61649
 21
85.9604
  0
LINE
  8
0
 10
26.1566
 20
85.9604
 11
34.4522
 21
85.9604
  0
LINE
  8
0
 10
34.4522
 20
85.9604
 11
36.3238
 21
80.2003
  0
LINE
  8
0
 10
36.3238
 20
80.2003
 11
26.1566
 21
85.9604
  0
LINE
  8
0
 10
-33.8434
 20
85.9604
 11
-23.6165
 21
85.9604
  0
LINE
  8
0
 10
-23.6165
 20
85.9604
 11
-23.6165
 21
80.1665
  0
LINE
  8
0
 10
-23.6165
 20
80.1665
 11
-33.8434
 21
85.9604
  0
LINE
  8
0
 10
-21.3835
 20
85.9604
 11
-11.1566
 21
85.9604
  0
LINE
  8
0
 10
-11.1566
 20
85.9604
 11
-21.3835
 21
80.1665
  0
LINE
  8
0
 10
-21.3835
 20
80.1665
 11
-21.3835
 21
85.9604
  0
LINE
  8
0
 10
25.2365
 20
84.3674
 11
35.3682
 21
78.4073
  0
LINE
  8
0
 10
35.3682
 20
78.4073
 11
30.3497
 21
75.5101
  0
LINE
  8
0
 10
30.3497
 20
75.5101
 11
25.2365
 21
84.3674
  0
LINE
  8
0
 10
9.63135
 20
78.4073
 11
19.7635
 21
84.3674
  0
LINE
  8
0
 10
19.7635
 20
84.3674
 11
14.6498
 21
75.5101
  0
LINE
  8
0
 10
14.6498
 20
75.5101
 11
9.63135
 21
78.4073
  0
LINE
  8
0
 10
-20.3687
 20
78.4073
 11
-10.2365
 21
84.3674
  0
LINE
  8
0
 10
-10.2365
 20
84.3674
 11
-15.3502
 21
75.5101
  0
LINE
  8
0
 10
-15.3502
 20
75.5101
 11
-20.3687
 21
78.4073
  0
LINE
  8
0
 10
-4.76349
 20
84.3674
 11
5.36819
 21
78.4073
  0
LINE
  8
0
 10
5.36819
 20
78.4073
 11
0.349731
 21
75.5101
  0
LINE
  8
0
 10
0.349731
 20
75.5101
 11
-4.76349
 21
84.3674
  0
LINE
  8
0
 10
-34.7635
 20
84.3674
 11
-24.6318
 21
78.4073
  0
LINE
  8
0
 10
-24.6318
 20
78.4073
 11
-29.6503
 21
75.5101
  0
LINE
  8
0
 10
-29.6503
 20
75.5101
 11
-34.7635
 21
84.3674
  0
LINE
  8
0
 10
-6.5799
 20
83.3177
 11
-1.46622
 21
74.4609
  0
LINE
  8
0
 10
-1.46622
 20
74.4609
 11
-6.48422
 21
71.5646
  0
LINE
  8
0
 10
-6.48422
 20
71.5646
 11
-6.5799
 21
83.3177
  0
LINE
  8
0
 10
-13.5333
 20
74.4609
 11
-8.41965
 21
83.3177
  0
LINE
  8
0
 10
-8.41965
 20
83.3177
 11
-8.51532
 21
71.5646
  0
LINE
  8
0
 10
-8.51532
 20
71.5646
 11
-13.5333
 21
74.4609
  0
LINE
  8
0
 10
16.4667
 20
74.4609
 11
21.5804
 21
83.3177
  0
LINE
  8
0
 10
21.5804
 20
83.3177
 11
21.4847
 21
71.5646
  0
LINE
  8
0
 10
21.4847
 20
71.5646
 11
16.4667
 21
74.4609
  0
LINE
  8
0
 10
23.4201
 20
83.3177
 11
28.5338
 21
74.4609
  0
LINE
  8
0
 10
28.5338
 20
74.4609
 11
23.5158
 21
71.5646
  0
LINE
  8
0
 10
23.5158
 20
71.5646
 11
23.4201
 21
83.3177
  0
LINE
  8
0
 10
-36.5489
 20
79.5076
 11
-35.7679
 21
81.9113
  0
LINE
  8
0
 10
-35.7679
 20
81.9113
 11
-31.4662
 21
74.4609
  0
LINE
  8
0
 10
-31.4662
 20
74.4609
 11
-36.4842
 21
71.5646
  0
LINE
  8
0
 10
-36.4842
 20
71.5646
 11
-36.5489
 21
79.5076
  0
LINE
  8
0
 10
31.4662
 20
73.5774
 11
36.4842
 21
76.4737
  0
LINE
  8
0
 10
36.4842
 20
76.4737
 11
36.5799
 21
64.7206
  0
LINE
  8
0
 10
36.5799
 20
64.7206
 11
31.4662
 21
73.5774
  0
LINE
  8
0
 10
-28.5338
 20
73.5774
 11
-23.5158
 21
76.4737
  0
LINE
  8
0
 10
-23.5158
 20
76.4737
 11
-23.4201
 21
64.7206
  0
LINE
  8
0
 10
-23.4201
 20
64.7206
 11
-28.5338
 21
73.5774
  0
LINE
  8
0
 10
-21.4847
 20
76.4737
 11
-16.4667
 21
73.5774
  0
LINE
  8
0
 10
-16.4667
 20
73.5774
 11
-21.5804
 21
64.7206
  0
LINE
  8
0
 10
-21.5804
 20
64.7206
 11
-21.4847
 21
76.4737
  0
LINE
  8
0
 10
8.51532
 20
76.4737
 11
13.5333
 21
73.5774
  0
LINE
  8
0
 10
13.5333
 20
73.5774
 11
8.41965
 21
64.7206
  0
LINE
  8
0
 10
8.41965
 20
64.7206
 11
8.51532
 21
76.4737
  0
LINE
  8
0
 10
1.46622
 20
73.5774
 11
6.48422
 21
76.4737
  0
LINE
  8
0
 10
6.48422
 20
76.4737
 11
6.5799
 21
64.7206
  0
LINE
  8
0
 10
6.5799
 20
64.7206
 11
1.46622
 21
73.5774
  0
LINE
  8
0
 10
38.4913
 20
73.5293
 11
40.297
 21
67.9721
  0
LINE
  8
0
 10
40.297
 20
67.9721
 11
38.4196
 21
64.7206
  0
LINE
  8
0
 10
38.4196
 20
64.7206
 11
38.4913
 21
73.5293
  0
LINE
  8
0
 10
-39.0327
 20
71.8632
 11
-38.4995
 21
73.5041
  0
LINE
  8
0
 10
-38.4995
 20
73.5041
 11
-38.5153
 21
71.5646
  0
LINE
  8
0
 10
-38.5153
 20
71.5646
 11
-39.0327
 21
71.8632
  0
LINE
  8
0
 10
-35.3682
 20
69.631
 11
-30.3497
 21
72.5282
  0
LINE
  8
0
 10
-30.3497
 20
72.5282
 11
-25.2365
 21
63.671
  0
LINE
  8
0
 10
-25.2365
 20
63.671
 11
-35.3682
 21
69.631
  0
LINE
  8
0
 10
24.6318
 20
69.631
 11
29.6503
 21
72.5282
  0
LINE
  8
0
 10
29.6503
 20
72.5282
 11
34.7635
 21
63.671
  0
LINE
  8
0
 10
34.7635
 20
63.671
 11
24.6318
 21
69.631
  0
LINE
  8
0
 10
15.3502
 20
72.5282
 11
20.3687
 21
69.631
  0
LINE
  8
0
 10
20.3687
 20
69.631
 11
10.2365
 21
63.671
  0
LINE
  8
0
 10
10.2365
 20
63.671
 11
15.3502
 21
72.5282
  0
LINE
  8
0
 10
-5.36819
 20
69.631
 11
-0.349731
 21
72.5282
  0
LINE
  8
0
 10
-0.349731
 20
72.5282
 11
4.76349
 21
63.671
  0
LINE
  8
0
 10
4.76349
 20
63.671
 11
-5.36819
 21
69.631
  0
LINE
  8
0
 10
-14.6498
 20
72.5282
 11
-9.63135
 21
69.631
  0
LINE
  8
0
 10
-9.63135
 20
69.631
 11
-19.7635
 21
63.671
  0
LINE
  8
0
 10
-19.7635
 20
63.671
 11
-14.6498
 21
72.5282
  0
LINE
  8
0
 10
-39.738
 20
69.6926
 11
-39.6313
 21
69.631
  0
LINE
  8
0
 10
-39.6313
 20
69.631
 11
-39.7879
 21
69.539
  0
LINE
  8
0
 10
-39.7879
 20
69.539
 11
-39.738
 21
69.6926
  0
LINE
  8
0
 10
-6.38351
 20
62.0779
 11
-6.38351
 21
67.8719
  0
LINE
  8
0
 10
-6.38351
 20
67.8719
 11
3.84338
 21
62.0779
  0
LINE
  8
0
 10
3.84338
 20
62.0779
 11
-6.38351
 21
62.0779
  0
LINE
  8
0
 10
11.1566
 20
62.0779
 11
21.3835
 21
67.8719
  0
LINE
  8
0
 10
21.3835
 20
67.8719
 11
21.3835
 21
62.0779
  0
LINE
  8
0
 10
21.3835
 20
62.0779
 11
11.1566
 21
62.0779
  0
LINE
  8
0
 10
-42.2121
 20
62.0779
 11
-40.716
 21
66.6824
  0
LINE
  8
0
 10
-40.716
 20
66.6824
 11
-38.6165
 21
67.8719
  0
LINE
  8
0
 10
-38.6165
 20
67.8719
 11
-38.6165
 21
62.0779
  0
LINE
  8
0
 10
-38.6165
 20
62.0779
 11
-42.2121
 21
62.0779
  0
LINE
  8
0
 10
23.6165
 20
62.0779
 11
23.6165
 21
67.8719
  0
LINE
  8
0
 10
23.6165
 20
67.8719
 11
33.8434
 21
62.0779
  0
LINE
  8
0
 10
33.8434
 20
62.0779
 11
23.6165
 21
62.0779
  0
LINE
  8
0
 10
-18.8434
 20
62.0779
 11
-8.61649
 21
67.8719
  0
LINE
  8
0
 10
-8.61649
 20
67.8719
 11
-8.61649
 21
62.0779
  0
LINE
  8
0
 10
-8.61649
 20
62.0779
 11
-18.8434
 21
62.0779
  0
LINE
  8
0
 10
-36.3835
 20
62.0779
 11
-36.3835
 21
67.8719
  0
LINE
  8
0
 10
-36.3835
 20
67.8719
 11
-26.1566
 21
62.0779
  0
LINE
  8
0
 10
-26.1566
 20
62.0779
 11
-36.3835
 21
62.0779
  0
LINE
  8
0
 10
41.1694
 20
65.2869
 11
41.4606
 21
64.391
  0
LINE
  8
0
 10
41.4606
 20
64.391
 11
40.2365
 21
63.671
  0
LINE
  8
0
 10
40.2365
 20
63.671
 11
41.1694
 21
65.2869
  0
LINE
  8
0
 10
41.1566
 20
62.0779
 11
42.048
 21
62.5829
  0
LINE
  8
0
 10
42.048
 20
62.5829
 11
42.2121
 21
62.0779
  0
LINE
  8
0
 10
42.2121
 20
62.0779
 11
41.1566
 21
62.0779
  0
LINE
  8
0
 10
8.61649
 20
59.9796
 11
18.8434
 21
59.9796
  0
LINE
  8
0
 10
18.8434
 20
59.9796
 11
8.61649
 21
54.1856
  0
LINE
  8
0
 10
8.61649
 20
54.1856
 11
8.61649
 21
59.9796
  0
LINE
  8
0
 10
-3.84338
 20
59.9796
 11
6.38351
 21
59.9796
  0
LINE
  8
0
 10
6.38351
 20
59.9796
 11
6.38351
 21
54.1856
  0
LINE
  8
0
 10
6.38351
 20
54.1856
 11
-3.84338
 21
59.9796
  0
LINE
  8
0
 10
-21.3835
 20
59.9796
 11
-11.1566
 21
59.9796
  0
LINE
  8
0
 10
-11.1566
 20
59.9796
 11
-21.3835
 21
54.1856
  0
LINE
  8
0
 10
-21.3835
 20
54.1856
 11
-21.3835
 21
59.9796
  0
LINE
  8
0
 10
-33.8434
 20
59.9796
 11
-23.6165
 21
59.9796
  0
LINE
  8
0
 10
-23.6165
 20
59.9796
 11
-23.6165
 21
54.1856
  0
LINE
  8
0
 10
-23.6165
 20
54.1856
 11
-33.8434
 21
59.9796
  0
LINE
  8
0
 10
26.1566
 20
59.9796
 11
36.3835
 21
59.9796
  0
LINE
  8
0
 10
36.3835
 20
59.9796
 11
36.3835
 21
54.1856
  0
LINE
  8
0
 10
36.3835
 20
54.1856
 11
26.1566
 21
59.9796
  0
LINE
  8
0
 10
38.6165
 20
59.9796
 11
42.8939
 21
59.9796
  0
LINE
  8
0
 10
42.8939
 20
59.9796
 11
43.8188
 21
57.1329
  0
LINE
  8
0
 10
43.8188
 20
57.1329
 11
38.6165
 21
54.1856
  0
LINE
  8
0
 10
38.6165
 20
54.1856
 11
38.6165
 21
59.9796
  0
LINE
  8
0
 10
-42.8939
 20
59.9796
 11
-41.1566
 21
59.9796
  0
LINE
  8
0
 10
-41.1566
 20
59.9796
 11
-43.2859
 21
58.7733
  0
LINE
  8
0
 10
-43.2859
 20
58.7733
 11
-42.8939
 21
59.9796
  0
LINE
  8
0
 10
-46.1411
 20
49.9858
 11
-44.1617
 21
56.0776
  0
LINE
  8
0
 10
-44.1617
 20
56.0776
 11
-40.2365
 21
58.3865
  0
LINE
  8
0
 10
-40.2365
 20
58.3865
 11
-45.3502
 21
49.5293
  0
LINE
  8
0
 10
-45.3502
 20
49.5293
 11
-46.1411
 21
49.9858
  0
LINE
  8
0
 10
9.63135
 20
52.4265
 11
19.7635
 21
58.3865
  0
LINE
  8
0
 10
19.7635
 20
58.3865
 11
14.6498
 21
49.5293
  0
LINE
  8
0
 10
14.6498
 20
49.5293
 11
9.63135
 21
52.4265
  0
LINE
  8
0
 10
-4.76349
 20
58.3865
 11
5.36819
 21
52.4265
  0
LINE
  8
0
 10
5.36819
 20
52.4265
 11
0.349731
 21
49.5293
  0
LINE
  8
0
 10
0.349731
 20
49.5293
 11
-4.76349
 21
58.3865
  0
LINE
  8
0
 10
25.2365
 20
58.3865
 11
35.3682
 21
52.4265
  0
LINE
  8
0
 10
35.3682
 20
52.4265
 11
30.3497
 21
49.5293
  0
LINE
  8
0
 10
30.3497
 20
49.5293
 11
25.2365
 21
58.3865
  0
LINE
  8
0
 10
-20.3687
 20
52.4265
 11
-10.2365
 21
58.3865
  0
LINE
  8
0
 10
-10.2365
 20
58.3865
 11
-15.3502
 21
49.5293
  0
LINE
  8
0
 10
-15.3502
 20
49.5293
 11
-20.3687
 21
52.4265
  0
LINE
  8
0
 10
-34.7635
 20
58.3865
 11
-24.6318
 21
52.4265
  0
LINE
  8
0
 10
-24.6318
 20
52.4265
 11
-29.6503
 21
49.5293
  0
LINE
  8
0
 10
-29.6503
 20
49.5293
 11
-34.7635
 21
58.3865
  0
LINE
  8
0
 10
-43.5333
 20
48.4801
 11
-38.4196
 21
57.3369
  0
LINE
  8
0
 10
-38.4196
 20
57.3369
 11
-38.5153
 21
45.5838
  0
LINE
  8
0
 10
-38.5153
 20
45.5838
 11
-43.5333
 21
48.4801
  0
LINE
  8
0
 10
-6.5799
 20
57.3369
 11
-1.46622
 21
48.4801
  0
LINE
  8
0
 10
-1.46622
 20
48.4801
 11
-6.48422
 21
45.5838
  0
LINE
  8
0
 10
-6.48422
 20
45.5838
 11
-6.5799
 21
57.3369
  0
LINE
  8
0
 10
23.4201
 20
57.3369
 11
28.5338
 21
48.4801
  0
LINE
  8
0
 10
28.5338
 20
48.4801
 11
23.5158
 21
45.5838
  0
LINE
  8
0
 10
23.5158
 20
45.5838
 11
23.4201
 21
57.3369
  0
LINE
  8
0
 10
16.4667
 20
48.4801
 11
21.5804
 21
57.3369
  0
LINE
  8
0
 10
21.5804
 20
57.3369
 11
21.4847
 21
45.5838
  0
LINE
  8
0
 10
21.4847
 20
45.5838
 11
16.4667
 21
48.4801
  0
LINE
  8
0
 10
-36.5799
 20
57.3369
 11
-31.4662
 21
48.4801
  0
LINE
  8
0
 10
-31.4662
 20
48.4801
 11
-36.4842
 21
45.5838
  0
LINE
  8
0
 10
-36.4842
 20
45.5838
 11
-36.5799
 21
57.3369
  0
LINE
  8
0
 10
-13.5333
 20
48.4801
 11
-8.41965
 21
57.3369
  0
LINE
  8
0
 10
-8.41965
 20
57.3369
 11
-8.51532
 21
45.5838
  0
LINE
  8
0
 10
-8.51532
 20
45.5838
 11
-13.5333
 21
48.4801
  0
LINE
  8
0
 10
39.6313
 20
52.4265
 11
44.4308
 21
55.2496
  0
LINE
  8
0
 10
44.4308
 20
55.2496
 11
45.699
 21
51.3465
  0
LINE
  8
0
 10
45.699
 20
51.3465
 11
44.6498
 21
49.5293
  0
LINE
  8
0
 10
44.6498
 20
49.5293
 11
39.6313
 21
52.4265
  0
LINE
  8
0
 10
8.51532
 20
50.4929
 11
13.5333
 21
47.5966
  0
LINE
  8
0
 10
13.5333
 20
47.5966
 11
8.41965
 21
38.7398
  0
LINE
  8
0
 10
8.41965
 20
38.7398
 11
8.51532
 21
50.4929
  0
LINE
  8
0
 10
38.5153
 20
50.4929
 11
43.5333
 21
47.5966
  0
LINE
  8
0
 10
43.5333
 20
47.5966
 11
38.4196
 21
38.7398
  0
LINE
  8
0
 10
38.4196
 20
38.7398
 11
38.5153
 21
50.4929
  0
LINE
  8
0
 10
31.4662
 20
47.5966
 11
36.4842
 21
50.4929
  0
LINE
  8
0
 10
36.4842
 20
50.4929
 11
36.5799
 21
38.7398
  0
LINE
  8
0
 10
36.5799
 20
38.7398
 11
31.4662
 21
47.5966
  0
LINE
  8
0
 10
-28.5338
 20
47.5966
 11
-23.5158
 21
50.4929
  0
LINE
  8
0
 10
-23.5158
 20
50.4929
 11
-23.4201
 21
38.7398
  0
LINE
  8
0
 10
-23.4201
 20
38.7398
 11
-28.5338
 21
47.5966
  0
LINE
  8
0
 10
-21.4847
 20
50.4929
 11
-16.4667
 21
47.5966
  0
LINE
  8
0
 10
-16.4667
 20
47.5966
 11
-21.5804
 21
38.7398
  0
LINE
  8
0
 10
-21.5804
 20
38.7398
 11
-21.4847
 21
50.4929
  0
LINE
  8
0
 10
1.46622
 20
47.5966
 11
6.48422
 21
50.4929
  0
LINE
  8
0
 10
6.48422
 20
50.4929
 11
6.5799
 21
38.7398
  0
LINE
  8
0
 10
6.5799
 20
38.7398
 11
1.46622
 21
47.5966
  0
LINE
  8
0
 10
46.4667
 20
48.4801
 11
46.5714
 21
48.6614
  0
LINE
  8
0
 10
46.5714
 20
48.6614
 11
46.6681
 21
48.3638
  0
LINE
  8
0
 10
46.6681
 20
48.3638
 11
46.4667
 21
48.4801
  0
LINE
  8
0
 10
-46.8462
 20
47.8156
 11
-46.4667
 21
47.5966
  0
LINE
  8
0
 10
-46.4667
 20
47.5966
 11
-47.4975
 21
45.8113
  0
LINE
  8
0
 10
-47.4975
 20
45.8113
 11
-46.8462
 21
47.8156
  0
LINE
  8
0
 10
24.6318
 20
43.6502
 11
29.6503
 21
46.5474
  0
LINE
  8
0
 10
29.6503
 20
46.5474
 11
34.7635
 21
37.6901
  0
LINE
  8
0
 10
34.7635
 20
37.6901
 11
24.6318
 21
43.6502
  0
LINE
  8
0
 10
15.3502
 20
46.5474
 11
20.3687
 21
43.6502
  0
LINE
  8
0
 10
20.3687
 20
43.6502
 11
10.2365
 21
37.6901
  0
LINE
  8
0
 10
10.2365
 20
37.6901
 11
15.3502
 21
46.5474
  0
LINE
  8
0
 10
-14.6498
 20
46.5474
 11
-9.63135
 21
43.6502
  0
LINE
  8
0
 10
-9.63135
 20
43.6502
 11
-19.7635
 21
37.6901
  0
LINE
  8
0
 10
-19.7635
 20
37.6901
 11
-14.6498
 21
46.5474
  0
LINE
  8
0
 10
-5.36819
 20
43.6502
 11
-0.349731
 21
46.5474
  0
LINE
  8
0
 10
-0.349731
 20
46.5474
 11
4.76349
 21
37.6901
  0
LINE
  8
0
 10
4.76349
 20
37.6901
 11
-5.36819
 21
43.6502
  0
LINE
  8
0
 10
-35.3682
 20
43.6502
 11
-30.3497
 21
46.5474
  0
LINE
  8
0
 10
-30.3497
 20
46.5474
 11
-25.2365
 21
37.6901
  0
LINE
  8
0
 10
-25.2365
 20
37.6901
 11
-35.3682
 21
43.6502
  0
LINE
  8
0
 10
45.3502
 20
46.5474
 11
47.6988
 21
45.1915
  0
LINE
  8
0
 10
47.6988
 20
45.1915
 11
48.5477
 21
42.579
  0
LINE
  8
0
 10
48.5477
 20
42.579
 11
40.2365
 21
37.6901
  0
LINE
  8
0
 10
40.2365
 20
37.6901
 11
45.3502
 21
46.5474
  0
LINE
  8
0
 10
-44.6498
 20
46.5474
 11
-39.6313
 21
43.6502
  0
LINE
  8
0
 10
-39.6313
 20
43.6502
 11
-49.7635
 21
37.6901
  0
LINE
  8
0
 10
-49.7635
 20
37.6901
 11
-44.6498
 21
46.5474
  0
LINE
  8
0
 10
23.6165
 20
36.0971
 11
23.6165
 21
41.891
  0
LINE
  8
0
 10
23.6165
 20
41.891
 11
33.8434
 21
36.0971
  0
LINE
  8
0
 10
33.8434
 20
36.0971
 11
23.6165
 21
36.0971
  0
LINE
  8
0
 10
-18.8434
 20
36.0971
 11
-8.61649
 21
41.891
  0
LINE
  8
0
 10
-8.61649
 20
41.891
 11
-8.61649
 21
36.0971
  0
LINE
  8
0
 10
-8.61649
 20
36.0971
 11
-18.8434
 21
36.0971
  0
LINE
  8
0
 10
-6.38351
 20
36.0971
 11
-6.38351
 21
41.891
  0
LINE
  8
0
 10
-6.38351
 20
41.891
 11
3.84338
 21
36.0971
  0
LINE
  8
0
 10
3.84338
 20
36.0971
 11
-6.38351
 21
36.0971
  0
LINE
  8
0
 10
-36.3835
 20
36.0971
 11
-36.3835
 21
41.891
  0
LINE
  8
0
 10
-36.3835
 20
41.891
 11
-26.1566
 21
36.0971
  0
LINE
  8
0
 10
-26.1566
 20
36.0971
 11
-36.3835
 21
36.0971
  0
LINE
  8
0
 10
-48.8434
 20
36.0971
 11
-38.6165
 21
41.891
  0
LINE
  8
0
 10
-38.6165
 20
41.891
 11
-38.6165
 21
36.0971
  0
LINE
  8
0
 10
-38.6165
 20
36.0971
 11
-48.8434
 21
36.0971
  0
LINE
  8
0
 10
11.1566
 20
36.0971
 11
21.3835
 21
41.891
  0
LINE
  8
0
 10
21.3835
 20
41.891
 11
21.3835
 21
36.0971
  0
LINE
  8
0
 10
21.3835
 20
36.0971
 11
11.1566
 21
36.0971
  0
LINE
  8
0
 10
41.1566
 20
36.0971
 11
49.1773
 21
40.6411
  0
LINE
  8
0
 10
49.1773
 20
40.6411
 11
50.6538
 21
36.0971
  0
LINE
  8
0
 10
50.6538
 20
36.0971
 11
41.1566
 21
36.0971
  0
LINE
  8
0
 10
-21.3835
 20
33.9987
 11
-11.1566
 21
33.9987
  0
LINE
  8
0
 10
-11.1566
 20
33.9987
 11
-21.3835
 21
28.2048
  0
LINE
  8
0
 10
-21.3835
 20
28.2048
 11
-21.3835
 21
33.9987
  0
LINE
  8
0
 10
-51.3835
 20
33.8512
 11
-51.3356
 21
33.9987
  0
LINE
  8
0
 10
-51.3356
 20
33.9987
 11
-41.1566
 21
33.9987
  0
LINE
  8
0
 10
-41.1566
 20
33.9987
 11
-51.3835
 21
28.2048
  0
LINE
  8
0
 10
-51.3835
 20
28.2048
 11
-51.3835
 21
33.8512
  0
LINE
  8
0
 10
-33.8434
 20
33.9987
 11
-23.6165
 21
33.9987
  0
LINE
  8
0
 10
-23.6165
 20
33.9987
 11
-23.6165
 21
28.2048
  0
LINE
  8
0
 10
-23.6165
 20
28.2048
 11
-33.8434
 21
33.9987
  0
LINE
  8
0
 10
26.1566
 20
33.9987
 11
36.3835
 21
33.9987
  0
LINE
  8
0
 10
36.3835
 20
33.9987
 11
36.3835
 21
28.2048
  0
LINE
  8
0
 10
36.3835
 20
28.2048
 11
26.1566
 21
33.9987
  0
LINE
  8
0
 10
38.6165
 20
33.9987
 11
48.8434
 21
33.9987
  0
LINE
  8
0
 10
48.8434
 20
33.9987
 11
38.6165
 21
28.2048
  0
LINE
  8
0
 10
38.6165
 20
28.2048
 11
38.6165
 21
33.9987
  0
LINE
  8
0
 10
8.61649
 20
33.9987
 11
18.8434
 21
33.9987
  0
LINE
  8
0
 10
18.8434
 20
33.9987
 11
8.61649
 21
28.2048
  0
LINE
  8
0
 10
8.61649
 20
28.2048
 11
8.61649
 21
33.9987
  0
LINE
  8
0
 10
-3.84338
 20
33.9987
 11
6.38351
 21
33.9987
  0
LINE
  8
0
 10
6.38351
 20
33.9987
 11
6.38351
 21
28.2048
  0
LINE
  8
0
 10
6.38351
 20
28.2048
 11
-3.84338
 21
33.9987
  0
LINE
  8
0
 10
25.2365
 20
32.4057
 11
35.3682
 21
26.4456
  0
LINE
  8
0
 10
35.3682
 20
26.4456
 11
30.3497
 21
23.5484
  0
LINE
  8
0
 10
30.3497
 20
23.5484
 11
25.2365
 21
32.4057
  0
LINE
  8
0
 10
9.63135
 20
26.4456
 11
19.7635
 21
32.4057
  0
LINE
  8
0
 10
19.7635
 20
32.4057
 11
14.6498
 21
23.5484
  0
LINE
  8
0
 10
14.6498
 20
23.5484
 11
9.63135
 21
26.4456
  0
LINE
  8
0
 10
-4.76349
 20
32.4057
 11
5.36819
 21
26.4456
  0
LINE
  8
0
 10
5.36819
 20
26.4456
 11
0.349731
 21
23.5484
  0
LINE
  8
0
 10
0.349731
 20
23.5484
 11
-4.76349
 21
32.4057
  0
LINE
  8
0
 10
39.6313
 20
26.4456
 11
49.7635
 21
32.4057
  0
LINE
  8
0
 10
49.7635
 20
32.4057
 11
44.6498
 21
23.5484
  0
LINE
  8
0
 10
44.6498
 20
23.5484
 11
39.6313
 21
26.4456
  0
LINE
  8
0
 10
-50.3687
 20
26.4456
 11
-40.2365
 21
32.4057
  0
LINE
  8
0
 10
-40.2365
 20
32.4057
 11
-45.3502
 21
23.5484
  0
LINE
  8
0
 10
-45.3502
 20
23.5484
 11
-50.3687
 21
26.4456
  0
LINE
  8
0
 10
-20.3687
 20
26.4456
 11
-10.2365
 21
32.4057
  0
LINE
  8
0
 10
-10.2365
 20
32.4057
 11
-15.3502
 21
23.5484
  0
LINE
  8
0
 10
-15.3502
 20
23.5484
 11
-20.3687
 21
26.4456
  0
LINE
  8
0
 10
-34.7635
 20
32.4057
 11
-24.6318
 21
26.4456
  0
LINE
  8
0
 10
-24.6318
 20
26.4456
 11
-29.6503
 21
23.5484
  0
LINE
  8
0
 10
-29.6503
 20
23.5484
 11
-34.7635
 21
32.4057
  0
LINE
  8
0
 10
23.4201
 20
31.356
 11
28.5338
 21
22.4992
  0
LINE
  8
0
 10
28.5338
 20
22.4992
 11
23.5158
 21
19.603
  0
LINE
  8
0
 10
23.5158
 20
19.603
 11
23.4201
 21
31.356
  0
LINE
  8
0
 10
46.4667
 20
22.4992
 11
51.5804
 21
31.356
  0
LINE
  8
0
 10
51.5804
 20
31.356
 11
51.4847
 21
19.603
  0
LINE
  8
0
 10
51.4847
 20
19.603
 11
46.4667
 21
22.4992
  0
LINE
  8
0
 10
-43.5333
 20
22.4992
 11
-38.4196
 21
31.356
  0
LINE
  8
0
 10
-38.4196
 20
31.356
 11
-38.5153
 21
19.603
  0
LINE
  8
0
 10
-38.5153
 20
19.603
 11
-43.5333
 21
22.4992
  0
LINE
  8
0
 10
-36.5799
 20
31.356
 11
-31.4662
 21
22.4992
  0
LINE
  8
0
 10
-31.4662
 20
22.4992
 11
-36.4842
 21
19.603
  0
LINE
  8
0
 10
-36.4842
 20
19.603
 11
-36.5799
 21
31.356
  0
LINE
  8
0
 10
16.4667
 20
22.4992
 11
21.5804
 21
31.356
  0
LINE
  8
0
 10
21.5804
 20
31.356
 11
21.4847
 21
19.603
  0
LINE
  8
0
 10
21.4847
 20
19.603
 11
16.4667
 21
22.4992
  0
LINE
  8
0
 10
-6.5799
 20
31.356
 11
-1.46622
 21
22.4992
  0
LINE
  8
0
 10
-1.46622
 20
22.4992
 11
-6.48422
 21
19.603
  0
LINE
  8
0
 10
-6.48422
 20
19.603
 11
-6.5799
 21
31.356
  0
LINE
  8
0
 10
-13.5333
 20
22.4992
 11
-8.41965
 21
31.356
  0
LINE
  8
0
 10
-8.41965
 20
31.356
 11
-8.51532
 21
19.603
  0
LINE
  8
0
 10
-8.51532
 20
19.603
 11
-13.5333
 21
22.4992
  0
LINE
  8
0
 10
53.4516
 20
27.4863
 11
55.6187
 21
20.8167
  0
LINE
  8
0
 10
55.6187
 20
20.8167
 11
53.5158
 21
19.603
  0
LINE
  8
0
 10
53.5158
 20
19.603
 11
53.4516
 21
27.4863
  0
LINE
  8
0
 10
-28.5338
 20
21.6158
 11
-23.5158
 21
24.512
  0
LINE
  8
0
 10
-23.5158
 20
24.512
 11
-23.4201
 21
12.7589
  0
LINE
  8
0
 10
-23.4201
 20
12.7589
 11
-28.5338
 21
21.6158
  0
LINE
  8
0
 10
-21.4847
 20
24.512
 11
-16.4667
 21
21.6158
  0
LINE
  8
0
 10
-16.4667
 20
21.6158
 11
-21.5804
 21
12.7589
  0
LINE
  8
0
 10
-21.5804
 20
12.7589
 11
-21.4847
 21
24.512
  0
LINE
  8
0
 10
31.4662
 20
21.6158
 11
36.4842
 21
24.512
  0
LINE
  8
0
 10
36.4842
 20
24.512
 11
36.5799
 21
12.7589
  0
LINE
  8
0
 10
36.5799
 20
12.7589
 11
31.4662
 21
21.6158
  0
LINE
  8
0
 10
1.46622
 20
21.6158
 11
6.48422
 21
24.512
  0
LINE
  8
0
 10
6.48422
 20
24.512
 11
6.5799
 21
12.7589
  0
LINE
  8
0
 10
6.5799
 20
12.7589
 11
1.46622
 21
21.6158
  0
LINE
  8
0
 10
8.51532
 20
24.512
 11
13.5333
 21
21.6158
  0
LINE
  8
0
 10
13.5333
 20
21.6158
 11
8.41965
 21
12.7589
  0
LINE
  8
0
 10
8.41965
 20
12.7589
 11
8.51532
 21
24.512
  0
LINE
  8
0
 10
-51.4847
 20
24.512
 11
-46.4667
 21
21.6158
  0
LINE
  8
0
 10
-46.4667
 20
21.6158
 11
-51.5804
 21
12.7589
  0
LINE
  8
0
 10
-51.5804
 20
12.7589
 11
-51.4847
 21
24.512
  0
LINE
  8
0
 10
-56.5023
 20
18.0972
 11
-54.6263
 21
23.8711
  0
LINE
  8
0
 10
-54.6263
 20
23.8711
 11
-53.5158
 21
24.512
  0
LINE
  8
0
 10
-53.5158
 20
24.512
 11
-53.4201
 21
12.7589
  0
LINE
  8
0
 10
-53.4201
 20
12.7589
 11
-56.5023
 21
18.0972
  0
LINE
  8
0
 10
38.5153
 20
24.512
 11
43.5333
 21
21.6158
  0
LINE
  8
0
 10
43.5333
 20
21.6158
 11
38.4196
 21
12.7589
  0
LINE
  8
0
 10
38.4196
 20
12.7589
 11
38.5153
 21
24.512
  0
LINE
  8
0
 10
10.4044
 20
12
 11
15.3502
 21
20.5666
  0
LINE
  8
0
 10
15.3502
 20
20.5666
 11
20.3687
 21
17.6694
  0
LINE
  8
0
 10
20.3687
 20
17.6694
 11
10.7307
 21
12
  0
LINE
  8
0
 10
10.7307
 20
12
 11
10.4044
 21
12
  0
LINE
  8
0
 10
-19.5956
 20
12
 11
-14.6498
 21
20.5666
  0
LINE
  8
0
 10
-14.6498
 20
20.5666
 11
-9.63135
 21
17.6694
  0
LINE
  8
0
 10
-9.63135
 20
17.6694
 11
-19.2693
 21
12
  0
LINE
  8
0
 10
-19.2693
 20
12
 11
-19.5956
 21
12
  0
LINE
  8
0
 10
34.2693
 20
12
 11
24.6318
 21
17.6694
  0
LINE
  8
0
 10
24.6318
 20
17.6694
 11
29.6503
 21
20.5666
  0
LINE
  8
0
 10
29.6503
 20
20.5666
 11
34.5957
 21
12
  0
LINE
  8
0
 10
34.5957
 20
12
 11
34.2693
 21
12
  0
LINE
  8
0
 10
4.2693
 20
12
 11
-5.36819
 21
17.6694
  0
LINE
  8
0
 10
-5.36819
 20
17.6694
 11
-0.349731
 21
20.5666
  0
LINE
  8
0
 10
-0.349731
 20
20.5666
 11
4.59566
 21
12
  0
LINE
  8
0
 10
4.59566
 20
12
 11
4.2693
 21
12
  0
LINE
  8
0
 10
40.4044
 20
12
 11
45.3502
 21
20.5666
  0
LINE
  8
0
 10
45.3502
 20
20.5666
 11
50.3687
 21
17.6694
  0
LINE
  8
0
 10
50.3687
 20
17.6694
 11
40.7307
 21
12
  0
LINE
  8
0
 10
40.7307
 20
12
 11
40.4044
 21
12
  0
LINE
  8
0
 10
-49.5956
 20
12
 11
-44.6498
 21
20.5666
  0
LINE
  8
0
 10
-44.6498
 20
20.5666
 11
-39.6313
 21
17.6694
  0
LINE
  8
0
 10
-39.6313
 20
17.6694
 11
-49.2693
 21
12
  0
LINE
  8
0
 10
-49.2693
 20
12
 11
-49.5956
 21
12
  0
LINE
  8
0
 10
-25.7307
 20
12
 11
-35.3682
 21
17.6694
  0
LINE
  8
0
 10
-35.3682
 20
17.6694
 11
-30.3497
 21
20.5666
  0
LINE
  8
0
 10
-30.3497
 20
20.5666
 11
-25.4043
 21
12
  0
LINE
  8
0
 10
-25.4043
 20
12
 11
-25.7307
 21
12
  0
LINE
  8
0
 10
54.6318
 20
17.6694
 11
56.3239
 21
18.6462
  0
LINE
  8
0
 10
56.3239
 20
18.6462
 11
57.1162
 21
16.2079
  0
LINE
  8
0
 10
57.1162
 20
16.2079
 11
54.6318
 21
17.6694
  0
LINE
  8
0
 10
14.4816
 20
12
 11
21.3835
 21
15.9102
  0
LINE
  8
0
 10
21.3835
 20
15.9102
 11
21.3835
 21
12
  0
LINE
  8
0
 10
21.3835
 20
12
 11
14.4816
 21
12
  0
LINE
  8
0
 10
-45.5184
 20
12
 11
-38.6165
 21
15.9102
  0
LINE
  8
0
 10
-38.6165
 20
15.9102
 11
-38.6165
 21
12
  0
LINE
  8
0
 10
-38.6165
 20
12
 11
-45.5184
 21
12
  0
LINE
  8
0
 10
23.6165
 20
12
 11
23.6165
 21
15.9102
  0
LINE
  8
0
 10
23.6165
 20
15.9102
 11
30.5184
 21
12
  0
LINE
  8
0
 10
30.5184
 20
12
 11
23.6165
 21
12
  0
LINE
  8
0
 10
-15.5184
 20
12
 11
-8.61649
 21
15.9102
  0
LINE
  8
0
 10
-8.61649
 20
15.9102
 11
-8.61649
 21
12
  0
LINE
  8
0
 10
-8.61649
 20
12
 11
-15.5184
 21
12
  0
LINE
  8
0
 10
-6.38351
 20
12
 11
-6.38351
 21
15.9102
  0
LINE
  8
0
 10
-6.38351
 20
15.9102
 11
0.518402
 21
12
  0
LINE
  8
0
 10
0.518402
 20
12
 11
-6.38351
 21
12
  0
LINE
  8
0
 10
53.6165
 20
12
 11
53.6165
 21
15.9102
  0
LINE
  8
0
 10
53.6165
 20
15.9102
 11
58.0243
 21
13.413
  0
LINE
  8
0
 10
58.0243
 20
13.413
 11
58.4834
 21
12
  0
LINE
  8
0
 10
58.4834
 20
12
 11
53.6165
 21
12
  0
LINE
  8
0
 10
44.4816
 20
12
 11
51.3835
 21
15.9102
  0
LINE
  8
0
 10
51.3835
 20
15.9102
 11
51.3835
 21
12
  0
LINE
  8
0
 10
51.3835
 20
12
 11
44.4816
 21
12
  0
LINE
  8
0
 10
-36.3835
 20
12
 11
-36.3835
 21
15.9102
  0
LINE
  8
0
 10
-36.3835
 20
15.9102
 11
-29.4816
 21
12
  0
LINE
  8
0
 10
-29.4816
 20
12
 11
-36.3835
 21
12
  0
LINE
  8
0
 10
-55.7307
 20
12
 11
-58.0417
 21
13.3595
  0
LINE
  8
0
 10
-58.0417
 20
13.3595
 11
-57.3745
 21
15.4128
  0
LINE
  8
0
 10
-57.3745
 20
15.4128
 11
-55.4043
 21
12
  0
LINE
  8
0
 10
-55.4043
 20
12
 11
-55.7307
 21
12
  0
LINE
  8
0
 10
-10
 20
7
 11
-10
 21
11
  0
LINE
  8
0
 10
-10
 20
11
 11
10
 21
11
  0
LINE
  8
0
 10
10
 20
11
 11
10
 21
7
  0
LINE
  8
0
 10
10
 20
7
 11
-10
 21
7
  0
LINE
  8
0
 10
-68.6534
 20
2.70622
 11
-68.7785
 21
2.71805
  0
LINE
  8
0
 10
-68.7785
 20
2.71805
 11
-68.9026
 21
2.7377
  0
LINE
  8
0
 10
-68.9026
 20
2.7377
 11
-69.0252
 21
2.76511
  0
LINE
  8
0
 10
-69.0252
 20
2.76511
 11
-69.1459
 21
2.80016
  0
LINE
  8
0
 10
-69.1459
 20
2.80016
 11
-69.2641
 21
2.84273
  0
LINE
  8
0
 10
-69.2641
 20
2.84273
 11
-69.3794
 21
2.89262
  0
LINE
  8
0
 10
-69.3794
 20
2.89262
 11
-69.4914
 21
2.94966
  0
LINE
  8
0
 10
-69.4914
 20
2.94966
 11
-69.5995
 21
3.01363
  0
LINE
  8
0
 10
-69.5995
 20
3.01363
 11
-69.7034
 21
3.08424
  0
LINE
  8
0
 10
-69.7034
 20
3.08424
 11
-69.8027
 21
3.16125
  0
LINE
  8
0
 10
-69.8027
 20
3.16125
 11
-69.897
 21
3.24434
  0
LINE
  8
0
 10
-69.897
 20
3.24434
 11
-69.9858
 21
3.33318
  0
LINE
  8
0
 10
-69.9858
 20
3.33318
 11
-70.0689
 21
3.42743
  0
LINE
  8
0
 10
-70.0689
 20
3.42743
 11
-70.1459
 21
3.5267
  0
LINE
  8
0
 10
-70.1459
 20
3.5267
 11
-70.2165
 21
3.63062
  0
LINE
  8
0
 10
-70.2165
 20
3.63062
 11
-70.2805
 21
3.73877
  0
LINE
  8
0
 10
-70.2805
 20
3.73877
 11
-70.3375
 21
3.85072
  0
LINE
  8
0
 10
-70.3375
 20
3.85072
 11
-70.3874
 21
3.96602
  0
LINE
  8
0
 10
-70.3874
 20
3.96602
 11
-70.43
 21
4.08424
  0
LINE
  8
0
 10
-70.43
 20
4.08424
 11
-70.465
 21
4.2049
  0
LINE
  8
0
 10
-70.465
 20
4.2049
 11
-70.4924
 21
4.32751
  0
LINE
  8
0
 10
-70.4924
 20
4.32751
 11
-70.5121
 21
4.45161
  0
LINE
  8
0
 10
-70.5121
 20
4.45161
 11
-70.5239
 21
4.57669
  0
LINE
  8
0
 10
-70.5239
 20
4.57669
 11
-70.5279
 21
4.70227
  0
LINE
  8
0
 10
-70.5279
 20
4.70227
 11
-70.5239
 21
4.82785
  0
LINE
  8
0
 10
-70.5239
 20
4.82785
 11
-70.5121
 21
4.95294
  0
LINE
  8
0
 10
-70.5121
 20
4.95294
 11
-70.4924
 21
5.07704
  0
LINE
  8
0
 10
-70.4924
 20
5.07704
 11
-70.465
 21
5.19966
  0
LINE
  8
0
 10
-70.465
 20
5.19966
 11
-70.43
 21
5.32031
  0
LINE
  8
0
 10
-70.43
 20
5.32031
 11
-70.3874
 21
5.43852
  0
LINE
  8
0
 10
-70.3874
 20
5.43852
 11
-70.3375
 21
5.55383
  0
LINE
  8
0
 10
-70.3375
 20
5.55383
 11
-70.2805
 21
5.66579
  0
LINE
  8
0
 10
-70.2805
 20
5.66579
 11
-70.2165
 21
5.77393
  0
LINE
  8
0
 10
-70.2165
 20
5.77393
 11
-70.1459
 21
5.87784
  0
LINE
  8
0
 10
-70.1459
 20
5.87784
 11
-70.0689
 21
5.97713
  0
LINE
  8
0
 10
-70.0689
 20
5.97713
 11
-69.9858
 21
6.07137
  0
LINE
  8
0
 10
-69.9858
 20
6.07137
 11
-69.897
 21
6.16022
  0
LINE
  8
0
 10
-69.897
 20
6.16022
 11
-69.8027
 21
6.2433
  0
LINE
  8
0
 10
-69.8027
 20
6.2433
 11
-69.7034
 21
6.32031
  0
LINE
  8
0
 10
-69.7034
 20
6.32031
 11
-69.5995
 21
6.39093
  0
LINE
  8
0
 10
-69.5995
 20
6.39093
 11
-69.4914
 21
6.4549
  0
LINE
  8
0
 10
-69.4914
 20
6.4549
 11
-69.3794
 21
6.51193
  0
LINE
  8
0
 10
-69.3794
 20
6.51193
 11
-69.2641
 21
6.56183
  0
LINE
  8
0
 10
-69.2641
 20
6.56183
 11
-69.1459
 21
6.60439
  0
LINE
  8
0
 10
-69.1459
 20
6.60439
 11
-69.0252
 21
6.63943
  0
LINE
  8
0
 10
-69.0252
 20
6.63943
 11
-68.9026
 21
6.66685
  0
LINE
  8
0
 10
-68.9026
 20
6.66685
 11
-68.7785
 21
6.68651
  0
LINE
  8
0
 10
-68.7785
 20
6.68651
 11
-68.6534
 21
6.69833
  0
LINE
  8
0
 10
-68.6534
 20
6.69833
 11
-68.5279
 21
6.70227
  0
LINE
  8
0
 10
-68.5279
 20
6.70227
 11
-68.4023
 21
6.69833
  0
LINE
  8
0
 10
-68.4023
 20
6.69833
 11
-68.2772
 21
6.68651
  0
LINE
  8
0
 10
-68.2772
 20
6.68651
 11
-68.1531
 21
6.66685
  0
LINE
  8
0
 10
-68.1531
 20
6.66685
 11
-68.0305
 21
6.63943
  0
LINE
  8
0
 10
-68.0305
 20
6.63943
 11
-67.9098
 21
6.60439
  0
LINE
  8
0
 10
-67.9098
 20
6.60439
 11
-67.7916
 21
6.56183
  0
LINE
  8
0
 10
-67.7916
 20
6.56183
 11
-67.6763
 21
6.51193
  0
LINE
  8
0
 10
-67.6763
 20
6.51193
 11
-67.5643
 21
6.4549
  0
LINE
  8
0
 10
-67.5643
 20
6.4549
 11
-67.4562
 21
6.39093
  0
LINE
  8
0
 10
-67.4562
 20
6.39093
 11
-67.3523
 21
6.32031
  0
LINE
  8
0
 10
-67.3523
 20
6.32031
 11
-67.253
 21
6.2433
  0
LINE
  8
0
 10
-67.253
 20
6.2433
 11
-67.1588
 21
6.16022
  0
LINE
  8
0
 10
-67.1588
 20
6.16022
 11
-67.0699
 21
6.07137
  0
LINE
  8
0
 10
-67.0699
 20
6.07137
 11
-66.9868
 21
5.97713
  0
LINE
  8
0
 10
-66.9868
 20
5.97713
 11
-66.9098
 21
5.87784
  0
LINE
  8
0
 10
-66.9098
 20
5.87784
 11
-66.8392
 21
5.77393
  0
LINE
  8
0
 10
-66.8392
 20
5.77393
 11
-66.7752
 21
5.66579
  0
LINE
  8
0
 10
-66.7752
 20
5.66579
 11
-66.7182
 21
5.55383
  0
LINE
  8
0
 10
-66.7182
 20
5.55383
 11
-66.6683
 21
5.43852
  0
LINE
  8
0
 10
-66.6683
 20
5.43852
 11
-66.6257
 21
5.32031
  0
LINE
  8
0
 10
-66.6257
 20
5.32031
 11
-66.5907
 21
5.19966
  0
LINE
  8
0
 10
-66.5907
 20
5.19966
 11
-66.5633
 21
5.07704
  0
LINE
  8
0
 10
-66.5633
 20
5.07704
 11
-66.5436
 21
4.95294
  0
LINE
  8
0
 10
-66.5436
 20
4.95294
 11
-66.5318
 21
4.82785
  0
LINE
  8
0
 10
-66.5318
 20
4.82785
 11
-66.5279
 21
4.70227
  0
LINE
  8
0
 10
-66.5279
 20
4.70227
 11
-66.5318
 21
4.57669
  0
LINE
  8
0
 10
-66.5318
 20
4.57669
 11
-66.5436
 21
4.45161
  0
LINE
  8
0
 10
-66.5436
 20
4.45161
 11
-66.5633
 21
4.32751
  0
LINE
  8
0
 10
-66.5633
 20
4.32751
 11
-66.5907
 21
4.2049
  0
LINE
  8
0
 10
-66.5907
 20
4.2049
 11
-66.6257
 21
4.08424
  0
LINE
  8
0
 10
-66.6257
 20
4.08424
 11
-66.6683
 21
3.96602
  0
LINE
  8
0
 10
-66.6683
 20
3.96602
 11
-66.7182
 21
3.85072
  0
LINE
  8
0
 10
-66.7182
 20
3.85072
 11
-66.7752
 21
3.73877
  0
LINE
  8
0
 10
-66.7752
 20
3.73877
 11
-66.8392
 21
3.63062
  0
LINE
  8
0
 10
-66.8392
 20
3.63062
 11
-66.9098
 21
3.5267
  0
LINE
  8
0
 10
-66.9098
 20
3.5267
 11
-66.9868
 21
3.42743
  0
LINE
  8
0
 10
-66.9868
 20
3.42743
 11
-67.0699
 21
3.33318
  0
LINE
  8
0
 10
-67.0699
 20
3.33318
 11
-67.1588
 21
3.24434
  0
LINE
  8
0
 10
-67.1588
 20
3.24434
 11
-67.253
 21
3.16125
  0
LINE
  8
0
 10
-67.253
 20
3.16125
 11
-67.3523
 21
3.08424
  0
LINE
  8
0
 10
-67.3523
 20
3.08424
 11
-67.4562
 21
3.01363
  0
LINE
  8
0
 10
-67.4562
 20
3.01363
 11
-67.5643
 21
2.94966
  0
LINE
  8
0
 10
-67.5643
 20
2.94966
 11
-67.6763
 21
2.89262
  0
LINE
  8
0
 10
-67.6763
 20
2.89262
 11
-67.7916
 21
2.84273
  0
LINE
  8
0
 10
-67.7916
 20
2.84273
 11
-67.9098
 21
2.80016
  0
LINE
  8
0
 10
-67.9098
 20
2.80016
 11
-68.0305
 21
2.76511
  0
LINE
  8
0
 10
-68.0305
 20
2.76511
 11
-68.1531
 21
2.7377
  0
LINE
  8
0
 10
-68.1531
 20
2.7377
 11
-68.2772
 21
2.71805
  0
LINE
  8
0
 10
-68.2772
 20
2.71805
 11
-68.4023
 21
2.70622
  0
LINE
  8
0
 10
-68.4023
 20
2.70622
 11
-68.5279
 21
2.70227
  0
LINE
  8
0
 10
-68.5279
 20
2.70227
 11
-68.6534
 21
2.70622
  0
LINE
  8
0
 10
68.4023
 20
2.70622
 11
68.2772
 21
2.71805
  0
LINE
  8
0
 10
68.2772
 20
2.71805
 11
68.1531
 21
2.7377
  0
LINE
  8
0
 10
68.1531
 20
2.7377
 11
68.0305
 21
2.76511
  0
LINE
  8
0
 10
68.0305
 20
2.76511
 11
67.9098
 21
2.80016
  0
LINE
  8
0
 10
67.9098
 20
2.80016
 11
67.7916
 21
2.84273
  0
LINE
  8
0
 10
67.7916
 20
2.84273
 11
67.6763
 21
2.89262
  0
LINE
  8
0
 10
67.6763
 20
2.89262
 11
67.5643
 21
2.94966
  0
LINE
  8
0
 10
67.5643
 20
2.94966
 11
67.4562
 21
3.01363
  0
LINE
  8
0
 10
67.4562
 20
3.01363
 11
67.3523
 21
3.08424
  0
LINE
  8
0
 10
67.3523
 20
3.08424
 11
67.253
 21
3.16125
  0
LINE
  8
0
 10
67.253
 20
3.16125
 11
67.1588
 21
3.24434
  0
LINE
  8
0
 10
67.1588
 20
3.24434
 11
67.0699
 21
3.33318
  0
LINE
  8
0
 10
67.0699
 20
3.33318
 11
66.9868
 21
3.42743
  0
LINE
  8
0
 10
66.9868
 20
3.42743
 11
66.9098
 21
3.5267
  0
LINE
  8
0
 10
66.9098
 20
3.5267
 11
66.8392
 21
3.63062
  0
LINE
  8
0
 10
66.8392
 20
3.63062
 11
66.7752
 21
3.73877
  0
LINE
  8
0
 10
66.7752
 20
3.73877
 11
66.7182
 21
3.85072
  0
LINE
  8
0
 10
66.7182
 20
3.85072
 11
66.6683
 21
3.96602
  0
LINE
  8
0
 10
66.6683
 20
3.96602
 11
66.6257
 21
4.08424
  0
LINE
  8
0
 10
66.6257
 20
4.08424
 11
66.5907
 21
4.2049
  0
LINE
  8
0
 10
66.5907
 20
4.2049
 11
66.5633
 21
4.32751
  0
LINE
  8
0
 10
66.5633
 20
4.32751
 11
66.5436
 21
4.45161
  0
LINE
  8
0
 10
66.5436
 20
4.45161
 11
66.5318
 21
4.57669
  0
LINE
  8
0
 10
66.5318
 20
4.57669
 11
66.5279
 21
4.70227
  0
LINE
  8
0
 10
66.5279
 20
4.70227
 11
66.5318
 21
4.82785
  0
LINE
  8
0
 10
66.5318
 20
4.82785
 11
66.5436
 21
4.95294
  0
LINE
  8
0
 10
66.5436
 20
4.95294
 11
66.5633
 21
5.07704
  0
LINE
  8
0
 10
66.5633
 20
5.07704
 11
66.5907
 21
5.19966
  0
LINE
  8
0
 10
66.5907
 20
5.19966
 11
66.6257
 21
5.32031
  0
LINE
  8
0
 10
66.6257
 20
5.32031
 11
66.6683
 21
5.43852
  0
LINE
  8
0
 10
66.6683
 20
5.43852
 11
66.7182
 21
5.55383
  0
LINE
  8
0
 10
66.7182
 20
5.55383
 11
66.7752
 21
5.66579
  0
LINE
  8
0
 10
66.7752
 20
5.66579
 11
66.8392
 21
5.77393
  0
LINE
  8
0
 10
66.8392
 20
5.77393
 11
66.9098
 21
5.87784
  0
LINE
  8
0
 10
66.9098
 20
5.87784
 11
66.9868
 21
5.97713
  0
LINE
  8
0
 10
66.9868
 20
5.97713
 11
67.0699
 21
6.07137
  0
LINE
  8
0
 10
67.0699
 20
6.07137
 11
67.1588
 21
6.16022
  0
LINE
  8
0
 10
67.1588
 20
6.16022
 11
67.253
 21
6.2433
  0
LINE
  8
0
 10
67.253
 20
6.2433
 11
67.3523
 21
6.32031
  0
LINE
  8
0
 10
67.3523
 20
6.32031
 11
67.4562
 21
6.39093
  0
LINE
  8
0
 10
67.4562
 20
6.39093
 11
67.5643
 21
6.4549
  0
LINE
  8
0
 10
67.5643
 20
6.4549
 11
67.6763
 21
6.51193
  0
LINE
  8
0
 10
67.6763
 20
6.51193
 11
67.7916
 21
6.56183
  0
LINE
  8
0
 10
67.7916
 20
6.56183
 11
67.9098
 21
6.60439
  0
LINE
  8
0
 10
67.9098
 20
6.60439
 11
68.0305
 21
6.63943
  0
LINE
  8
0
 10
68.0305
 20
6.63943
 11
68.1531
 21
6.66685
  0
LINE
  8
0
 10
68.1531
 20
6.66685
 11
68.2772
 21
6.68651
  0
LINE
  8
0
 10
68.2772
 20
6.68651
 11
68.4023
 21
6.69833
  0
LINE
  8
0
 10
68.4023
 20
6.69833
 11
68.5279
 21
6.70227
  0
LINE
  8
0
 10
68.5279
 20
6.70227
 11
68.6534
 21
6.69833
  0
LINE
  8
0
 10
68.6534
 20
6.69833
 11
68.7785
 21
6.68651
  0
LINE
  8
0
 10
68.7785
 20
6.68651
 11
68.9026
 21
6.66685
  0
LINE
  8
0
 10
68.9026
 20
6.66685
 11
69.0252
 21
6.63943
  0
LINE
  8
0
 10
69.0252
 20
6.63943
 11
69.1459
 21
6.60439
  0
LINE
  8
0
 10
69.1459
 20
6.60439
 11
69.2641
 21
6.56183
  0
LINE
  8
0
 10
69.2641
 20
6.56183
 11
69.3794
 21
6.51193
  0
LINE
  8
0
 10
69.3794
 20
6.51193
 11
69.4914
 21
6.4549
  0
LINE
  8
0
 10
69.4914
 20
6.4549
 11
69.5995
 21
6.39093
  0
LINE
  8
0
 10
69.5995
 20
6.39093
 11
69.7034
 21
6.32031
  0
LINE
  8
0
 10
69.7034
 20
6.32031
 11
69.8027
 21
6.2433
  0
LINE
  8
0
 10
69.8027
 20
6.2433
 11
69.897
 21
6.16022
  0
LINE
  8
0
 10
69.897
 20
6.16022
 11
69.9858
 21
6.07137
  0
LINE
  8
0
 10
69.9858
 20
6.07137
 11
70.0689
 21
5.97713
  0
LINE
  8
0
 10
70.0689
 20
5.97713
 11
70.1459
 21
5.87784
  0
LINE
  8
0
 10
70.1459
 20
5.87784
 11
70.2165
 21
5.77393
  0
LINE
  8
0
 10
70.2165
 20
5.77393
 11
70.2805
 21
5.66579
  0
LINE
  8
0
 10
70.2805
 20
5.66579
 11
70.3375
 21
5.55383
  0
LINE
  8
0
 10
70.3375
 20
5.55383
 11
70.3874
 21
5.43852
  0
LINE
  8
0
 10
70.3874
 20
5.43852
 11
70.43
 21
5.32031
  0
LINE
  8
0
 10
70.43
 20
5.32031
 11
70.465
 21
5.19966
  0
LINE
  8
0
 10
70.465
 20
5.19966
 11
70.4924
 21
5.07704
  0
LINE
  8
0
 10
70.4924
 20
5.07704
 11
70.5121
 21
4.95294
  0
LINE
  8
0
 10
70.5121
 20
4.95294
 11
70.5239
 21
4.82785
  0
LINE
  8
0
 10
70.5239
 20
4.82785
 11
70.5279
 21
4.70227
  0
LINE
  8
0
 10
70.5279
 20
4.70227
 11
70.5239
 21
4.57669
  0
LINE
  8
0
 10
70.5239
 20
4.57669
 11
70.5121
 21
4.45161
  0
LINE
  8
0
 10
70.5121
 20
4.45161
 11
70.4924
 21
4.32751
  0
LINE
  8
0
 10
70.4924
 20
4.32751
 11
70.465
 21
4.2049
  0
LINE
  8
0
 10
70.465
 20
4.2049
 11
70.43
 21
4.08424
  0
LINE
  8
0
 10
70.43
 20
4.08424
 11
70.3874
 21
3.96602
  0
LINE
  8
0
 10
70.3874
 20
3.96602
 11
70.3375
 21
3.85072
  0
LINE
  8
0
 10
70.3375
 20
3.85072
 11
70.2805
 21
3.73877
  0
LINE
  8
0
 10
70.2805
 20
3.73877
 11
70.2165
 21
3.63062
  0
LINE
  8
0
 10
70.2165
 20
3.63062
 11
70.1459
 21
3.5267
  0
LINE
  8
0
 10
70.1459
 20
3.5267
 11
70.0689
 21
3.42743
  0
LINE
  8
0
 10
70.0689
 20
3.42743
 11
69.9858
 21
3.33318
  0
LINE
  8
0
 10
69.9858
 20
3.33318
 11
69.897
 21
3.24434
  0
LINE
  8
0
 10
69.897
 20
3.24434
 11
69.8027
 21
3.16125
  0
LINE
  8
0
 10
69.8027
 20
3.16125
 11
69.7034
 21
3.08424
  0
LINE
  8
0
 10
69.7034
 20
3.08424
 11
69.5995
 21
3.01363
  0
LINE
  8
0
 10
69.5995
 20
3.01363
 11
69.4914
 21
2.94966
  0
LINE
  8
0
 10
69.4914
 20
2.94966
 11
69.3794
 21
2.89262
  0
LINE
  8
0
 10
69.3794
 20
2.89262
 11
69.2641
 21
2.84273
  0
LINE
  8
0
 10
69.2641
 20
2.84273
 11
69.1459
 21
2.80016
  0
LINE
  8
0
 10
69.1459
 20
2.80016
 11
69.0252
 21
2.76511
  0
LINE
  8
0
 10
69.0252
 20
2.76511
 11
68.9026
 21
2.7377
  0
LINE
  8
0
 10
68.9026
 20
2.7377
 11
68.7785
 21
2.71805
  0
LINE
  8
0
 10
68.7785
 20
2.71805
 11
68.6534
 21
2.70622
  0
LINE
  8
0
 10
68.6534
 20
2.70622
 11
68.5279
 21
2.70227
  0
LINE
  8
0
 10
68.5279
 20
2.70227
 11
68.4023
 21
2.70622
  0
ENDSEC
  0
SECTION
  2
OBJECTS
  0
DICTIONARY
  0
ENDSEC
  0
EOF
