  0
SECTION
  2
BLOCKS
  0
ENDSEC
  0
SECTION
  2
ENTITIES
  0
LINE
  8
0
 10
0
 20
230.826
 11
-75
 21
0
  0
LINE
  8
0
 10
-75
 20
0
 11
75
 21
0
  0
LINE
  8
0
 10
75
 20
0
 11
0
 21
230.826
  0
LINE
  8
0
 10
-0.12558
 20
212.83
 11
-0.250656
 21
212.842
  0
LINE
  8
0
 10
-0.250656
 20
212.842
 11
-0.374756
 21
212.862
  0
LINE
  8
0
 10
-0.374756
 20
212.862
 11
-0.497375
 21
212.889
  0
LINE
  8
0
 10
-0.497375
 20
212.889
 11
-0.618027
 21
212.924
  0
LINE
  8
0
 10
-0.618027
 20
212.924
 11
-0.736237
 21
212.967
  0
LINE
  8
0
 10
-0.736237
 20
212.967
 11
-0.851547
 21
213.017
  0
LINE
  8
0
 10
-0.851547
 20
213.017
 11
-0.963501
 21
213.074
  0
LINE
  8
0
 10
-0.963501
 20
213.074
 11
-1.07164
 21
213.138
  0
LINE
  8
0
 10
-1.07164
 20
213.138
 11
-1.17557
 21
213.208
  0
LINE
  8
0
 10
-1.17557
 20
213.208
 11
-1.27484
 21
213.285
  0
LINE
  8
0
 10
-1.27484
 20
213.285
 11
-1.36908
 21
213.368
  0
LINE
  8
0
 10
-1.36908
 20
213.368
 11
-1.45793
 21
213.457
  0
LINE
  8
0
 10
-1.45793
 20
213.457
 11
-1.54102
 21
213.551
  0
LINE
  8
0
 10
-1.54102
 20
213.551
 11
-1.61803
 21
213.651
  0
LINE
  8
0
 10
-1.61803
 20
213.651
 11
-1.68864
 21
213.755
  0
LINE
  8
0
 10
-1.68864
 20
213.755
 11
-1.75261
 21
213.863
  0
LINE
  8
0
 10
-1.75261
 20
213.863
 11
-1.80965
 21
213.975
  0
LINE
  8
0
 10
-1.80965
 20
213.975
 11
-1.85954
 21
214.09
  0
LINE
  8
0
 10
-1.85954
 20
214.09
 11
-1.9021
 21
214.208
  0
LINE
  8
0
 10
-1.9021
 20
214.208
 11
-1.93716
 21
214.329
  0
LINE
  8
0
 10
-1.93716
 20
214.329
 11
-1.96457
 21
214.451
  0
LINE
  8
0
 10
-1.96457
 20
214.451
 11
-1.98422
 21
214.576
  0
LINE
  8
0
 10
-1.98422
 20
214.576
 11
-1.99605
 21
214.701
  0
LINE
  8
0
 10
-1.99605
 20
214.701
 11
-2
 21
214.826
  0
LINE
  8
0
 10
-2
 20
214.826
 11
-1.99605
 21
214.952
  0
LINE
  8
0
 10
-1.99605
 20
214.952
 11
-1.98422
 21
215.077
  0
LINE
  8
0
 10
-1.98422
 20
215.077
 11
-1.96457
 21
215.201
  0
LINE
  8
0
 10
-1.96457
 20
215.201
 11
-1.93716
 21
215.324
  0
LINE
  8
0
 10
-1.93716
 20
215.324
 11
-1.9021
 21
215.444
  0
LINE
  8
0
 10
-1.9021
 20
215.444
 11
-1.85954
 21
215.562
  0
LINE
  8
0
 10
-1.85954
 20
215.562
 11
-1.80965
 21
215.678
  0
LINE
  8
0
 10
-1.80965
 20
215.678
 11
-1.75261
 21
215.79
  0
LINE
  8
0
 10
-1.75261
 20
215.79
 11
-1.68864
 21
215.898
  0
LINE
  8
0
 10
-1.68864
 20
215.898
 11
-1.61803
 21
216.002
  0
LINE
  8
0
 10
-1.61803
 20
216.002
 11
-1.54102
 21
216.101
  0
LINE
  8
0
 10
-1.54102
 20
216.101
 11
-1.45793
 21
216.195
  0
LINE
  8
0
 10
-1.45793
 20
216.195
 11
-1.36908
 21
216.284
  0
LINE
  8
0
 10
-1.36908
 20
216.284
 11
-1.27484
 21
216.367
  0
LINE
  8
0
 10
-1.27484
 20
216.367
 11
-1.17557
 21
216.444
  0
LINE
  8
0
 10
-1.17557
 20
216.444
 11
-1.07164
 21
216.515
  0
LINE
  8
0
 10
-1.07164
 20
216.515
 11
-0.963501
 21
216.579
  0
LINE
  8
0
 10
-0.963501
 20
216.579
 11
-0.851547
 21
216.636
  0
LINE
  8
0
 10
-0.851547
 20
216.636
 11
-0.736237
 21
216.686
  0
LINE
  8
0
 10
-0.736237
 20
216.686
 11
-0.618027
 21
216.728
  0
LINE
  8
0
 10
-0.618027
 20
216.728
 11
-0.497375
 21
216.763
  0
LINE
  8
0
 10
-0.497375
 20
216.763
 11
-0.374756
 21
216.791
  0
LINE
  8
0
 10
-0.374756
 20
216.791
 11
-0.250656
 21
216.81
  0
LINE
  8
0
 10
-0.250656
 20
216.81
 11
-0.12558
 21
216.822
  0
LINE
  8
0
 10
-0.12558
 20
216.822
 11
0
 21
216.826
  0
LINE
  8
0
 10
0
 20
216.826
 11
0.12558
 21
216.822
  0
LINE
  8
0
 10
0.12558
 20
216.822
 11
0.250656
 21
216.81
  0
LINE
  8
0
 10
0.250656
 20
216.81
 11
0.374756
 21
216.791
  0
LINE
  8
0
 10
0.374756
 20
216.791
 11
0.497375
 21
216.763
  0
LINE
  8
0
 10
0.497375
 20
216.763
 11
0.618027
 21
216.728
  0
LINE
  8
0
 10
0.618027
 20
216.728
 11
0.736237
 21
216.686
  0
LINE
  8
0
 10
0.736237
 20
216.686
 11
0.851547
 21
216.636
  0
LINE
  8
0
 10
0.851547
 20
216.636
 11
0.963501
 21
216.579
  0
LINE
  8
0
 10
0.963501
 20
216.579
 11
1.07164
 21
216.515
  0
LINE
  8
0
 10
1.07164
 20
216.515
 11
1.17557
 21
216.444
  0
LINE
  8
0
 10
1.17557
 20
216.444
 11
1.27484
 21
216.367
  0
LINE
  8
0
 10
1.27484
 20
216.367
 11
1.36908
 21
216.284
  0
LINE
  8
0
 10
1.36908
 20
216.284
 11
1.45793
 21
216.195
  0
LINE
  8
0
 10
1.45793
 20
216.195
 11
1.54102
 21
216.101
  0
LINE
  8
0
 10
1.54102
 20
216.101
 11
1.61803
 21
216.002
  0
LINE
  8
0
 10
1.61803
 20
216.002
 11
1.68864
 21
215.898
  0
LINE
  8
0
 10
1.68864
 20
215.898
 11
1.75261
 21
215.79
  0
LINE
  8
0
 10
1.75261
 20
215.79
 11
1.80965
 21
215.678
  0
LINE
  8
0
 10
1.80965
 20
215.678
 11
1.85954
 21
215.562
  0
LINE
  8
0
 10
1.85954
 20
215.562
 11
1.9021
 21
215.444
  0
LINE
  8
0
 10
1.9021
 20
215.444
 11
1.93716
 21
215.324
  0
LINE
  8
0
 10
1.93716
 20
215.324
 11
1.96457
 21
215.201
  0
LINE
  8
0
 10
1.96457
 20
215.201
 11
1.98422
 21
215.077
  0
LINE
  8
0
 10
1.98422
 20
215.077
 11
1.99605
 21
214.952
  0
LINE
  8
0
 10
1.99605
 20
214.952
 11
2
 21
214.826
  0
LINE
  8
0
 10
2
 20
214.826
 11
1.99605
 21
214.701
  0
LINE
  8
0
 10
1.99605
 20
214.701
 11
1.98422
 21
214.576
  0
LINE
  8
0
 10
1.98422
 20
214.576
 11
1.96457
 21
214.451
  0
LINE
  8
0
 10
1.96457
 20
214.451
 11
1.93716
 21
214.329
  0
LINE
  8
0
 10
1.93716
 20
214.329
 11
1.9021
 21
214.208
  0
LINE
  8
0
 10
1.9021
 20
214.208
 11
1.85954
 21
214.09
  0
LINE
  8
0
 10
1.85954
 20
214.09
 11
1.80965
 21
213.975
  0
LINE
  8
0
 10
1.80965
 20
213.975
 11
1.75261
 21
213.863
  0
LINE
  8
0
 10
1.75261
 20
213.863
 11
1.68864
 21
213.755
  0
LINE
  8
0
 10
1.68864
 20
213.755
 11
1.61803
 21
213.651
  0
LINE
  8
0
 10
1.61803
 20
213.651
 11
1.54102
 21
213.551
  0
LINE
  8
0
 10
1.54102
 20
213.551
 11
1.45793
 21
213.457
  0
LINE
  8
0
 10
1.45793
 20
213.457
 11
1.36908
 21
213.368
  0
LINE
  8
0
 10
1.36908
 20
213.368
 11
1.27484
 21
213.285
  0
LINE
  8
0
 10
1.27484
 20
213.285
 11
1.17557
 21
213.208
  0
LINE
  8
0
 10
1.17557
 20
213.208
 11
1.07164
 21
213.138
  0
LINE
  8
0
 10
1.07164
 20
213.138
 11
0.963501
 21
213.074
  0
LINE
  8
0
 10
0.963501
 20
213.074
 11
0.851547
 21
213.017
  0
LINE
  8
0
 10
0.851547
 20
213.017
 11
0.736237
 21
212.967
  0
LINE
  8
0
 10
0.736237
 20
212.967
 11
0.618027
 21
212.924
  0
LINE
  8
0
 10
0.618027
 20
212.924
 11
0.497375
 21
212.889
  0
LINE
  8
0
 10
0.497375
 20
212.889
 11
0.374756
 21
212.862
  0
LINE
  8
0
 10
0.374756
 20
212.862
 11
0.250656
 21
212.842
  0
LINE
  8
0
 10
0.250656
 20
212.842
 11
0.12558
 21
212.83
  0
LINE
  8
0
 10
0.12558
 20
212.83
 11
0
 21
212.826
  0
LINE
  8
0
 10
0
 20
212.826
 11
-0.12558
 21
212.83
  0
LINE
  8
0
 10
-2.65173
 20
183.832
 11
-0.329834
 21
190.978
  0
LINE
  8
0
 10
-0.329834
 20
190.978
 11
0
 21
191.169
  0
LINE
  8
0
 10
0
 20
191.169
 11
0.329834
 21
190.978
  0
LINE
  8
0
 10
0.329834
 20
190.978
 11
2.65173
 21
183.832
  0
LINE
  8
0
 10
2.65173
 20
183.832
 11
-2.65173
 21
183.832
  0
LINE
  8
0
 10
-4.77786
 20
177.289
 11
-3.29034
 21
181.867
  0
LINE
  8
0
 10
-3.29034
 20
181.867
 11
3.29034
 21
181.867
  0
LINE
  8
0
 10
3.29034
 20
181.867
 11
4.77786
 21
177.289
  0
LINE
  8
0
 10
4.77786
 20
177.289
 11
0
 21
174.53
  0
LINE
  8
0
 10
0
 20
174.53
 11
-4.77786
 21
177.289
  0
LINE
  8
0
 10
-7.38916
 20
169.252
 11
-5.39865
 21
175.378
  0
LINE
  8
0
 10
-5.39865
 20
175.378
 11
-0.982452
 21
172.828
  0
LINE
  8
0
 10
-0.982452
 20
172.828
 11
-0.981949
 21
158.154
  0
LINE
  8
0
 10
-0.981949
 20
158.154
 11
-7.38916
 21
169.252
  0
LINE
  8
0
 10
0.982452
 20
172.828
 11
5.39865
 21
175.378
  0
LINE
  8
0
 10
5.39865
 20
175.378
 11
7.38916
 21
169.252
  0
LINE
  8
0
 10
7.38916
 20
169.252
 11
0.981949
 21
158.154
  0
LINE
  8
0
 10
0.981949
 20
158.154
 11
0.982452
 21
172.828
  0
LINE
  8
0
 10
8.20682
 20
166.735
 11
9.95123
 21
161.367
  0
LINE
  8
0
 10
9.95123
 20
161.367
 11
2.68501
 21
157.171
  0
LINE
  8
0
 10
2.68501
 20
157.171
 11
8.20682
 21
166.735
  0
LINE
  8
0
 10
-9.95123
 20
161.367
 11
-8.20682
 21
166.735
  0
LINE
  8
0
 10
-8.20682
 20
166.735
 11
-2.68501
 21
157.171
  0
LINE
  8
0
 10
-2.68501
 20
157.171
 11
-9.95123
 21
161.367
  0
LINE
  8
0
 10
3.66698
 20
155.47
 11
10.572
 21
159.456
  0
LINE
  8
0
 10
10.572
 20
159.456
 11
11.8672
 21
155.47
  0
LINE
  8
0
 10
11.8672
 20
155.47
 11
3.66698
 21
155.47
  0
LINE
  8
0
 10
-11.8672
 20
155.47
 11
-10.572
 21
159.456
  0
LINE
  8
0
 10
-10.572
 20
159.456
 11
-3.66698
 21
155.47
  0
LINE
  8
0
 10
-3.66698
 20
155.47
 11
-11.8672
 21
155.47
  0
LINE
  8
0
 10
3.66698
 20
153.504
 11
12.5058
 21
153.504
  0
LINE
  8
0
 10
12.5058
 20
153.504
 11
14.5466
 21
147.223
  0
LINE
  8
0
 10
14.5466
 20
147.223
 11
3.66698
 21
153.504
  0
LINE
  8
0
 10
-12.5058
 20
153.504
 11
-3.66698
 21
153.504
  0
LINE
  8
0
 10
-3.66698
 20
153.504
 11
-14.5466
 21
147.223
  0
LINE
  8
0
 10
-14.5466
 20
147.223
 11
-12.5058
 21
153.504
  0
LINE
  8
0
 10
2.68501
 20
151.803
 11
15.3925
 21
144.466
  0
LINE
  8
0
 10
15.3925
 20
144.466
 11
15.393
 21
129.792
  0
LINE
  8
0
 10
15.393
 20
129.792
 11
2.68501
 21
151.803
  0
LINE
  8
0
 10
-15.3925
 20
144.466
 11
-2.68501
 21
151.803
  0
LINE
  8
0
 10
-2.68501
 20
151.803
 11
-15.393
 21
129.792
  0
LINE
  8
0
 10
-15.393
 20
129.792
 11
-15.3925
 21
144.466
  0
LINE
  8
0
 10
-0.981949
 20
150.82
 11
-0.982452
 21
136.146
  0
LINE
  8
0
 10
-0.982452
 20
136.146
 11
-13.69
 21
128.809
  0
LINE
  8
0
 10
-13.69
 20
128.809
 11
-0.981949
 21
150.82
  0
LINE
  8
0
 10
0.982452
 20
136.146
 11
0.981949
 21
150.82
  0
LINE
  8
0
 10
0.981949
 20
150.82
 11
13.69
 21
128.809
  0
LINE
  8
0
 10
13.69
 20
128.809
 11
0.982452
 21
136.146
  0
LINE
  8
0
 10
-19.1829
 20
132.955
 11
-17.3573
 21
138.573
  0
LINE
  8
0
 10
-17.3573
 20
138.573
 11
-17.3569
 21
129.792
  0
LINE
  8
0
 10
-17.3569
 20
129.792
 11
-19.1829
 21
132.955
  0
LINE
  8
0
 10
17.3573
 20
138.573
 11
19.1829
 21
132.955
  0
LINE
  8
0
 10
19.1829
 20
132.955
 11
17.3569
 21
129.792
  0
LINE
  8
0
 10
17.3569
 20
129.792
 11
17.3573
 21
138.573
  0
LINE
  8
0
 10
-12.708
 20
127.107
 11
0
 21
134.444
  0
LINE
  8
0
 10
0
 20
134.444
 11
12.708
 21
127.107
  0
LINE
  8
0
 10
12.708
 20
127.107
 11
-12.708
 21
127.107
  0
LINE
  8
0
 10
20.0005
 20
130.438
 11
20.2977
 21
129.524
  0
LINE
  8
0
 10
20.2977
 20
129.524
 11
19.06
 21
128.809
  0
LINE
  8
0
 10
19.06
 20
128.809
 11
20.0005
 21
130.438
  0
LINE
  8
0
 10
-20.2977
 20
129.524
 11
-20.0005
 21
130.438
  0
LINE
  8
0
 10
-20.0005
 20
130.438
 11
-19.06
 21
128.809
  0
LINE
  8
0
 10
-19.06
 20
128.809
 11
-20.2977
 21
129.524
  0
LINE
  8
0
 10
-21.0827
 20
127.107
 11
-20.9184
 21
127.613
  0
LINE
  8
0
 10
-20.9184
 20
127.613
 11
-20.042
 21
127.107
  0
LINE
  8
0
 10
-20.042
 20
127.107
 11
-21.0827
 21
127.107
  0
LINE
  8
0
 10
20.042
 20
127.107
 11
20.9184
 21
127.613
  0
LINE
  8
0
 10
20.9184
 20
127.613
 11
21.0827
 21
127.107
  0
LINE
  8
0
 10
21.0827
 20
127.107
 11
20.042
 21
127.107
  0
LINE
  8
0
 10
-12.708
 20
125.142
 11
12.708
 21
125.142
  0
LINE
  8
0
 10
12.708
 20
125.142
 11
0
 21
117.806
  0
LINE
  8
0
 10
0
 20
117.806
 11
-12.708
 21
125.142
  0
LINE
  8
0
 10
20.042
 20
125.142
 11
21.7213
 21
125.142
  0
LINE
  8
0
 10
21.7213
 20
125.142
 11
22.1091
 21
123.949
  0
LINE
  8
0
 10
22.1091
 20
123.949
 11
20.042
 21
125.142
  0
LINE
  8
0
 10
-21.7213
 20
125.142
 11
-20.042
 21
125.142
  0
LINE
  8
0
 10
-20.042
 20
125.142
 11
-22.1091
 21
123.949
  0
LINE
  8
0
 10
-22.1091
 20
123.949
 11
-21.7213
 21
125.142
  0
LINE
  8
0
 10
-13.69
 20
123.44
 11
-0.982452
 21
116.103
  0
LINE
  8
0
 10
-0.982452
 20
116.103
 11
-0.981949
 21
101.43
  0
LINE
  8
0
 10
-0.981949
 20
101.43
 11
-13.69
 21
123.44
  0
LINE
  8
0
 10
-23.0164
 20
121.156
 11
-19.06
 21
123.44
  0
LINE
  8
0
 10
-19.06
 20
123.44
 11
-26.4112
 21
110.708
  0
LINE
  8
0
 10
-26.4112
 20
110.708
 11
-23.0164
 21
121.156
  0
LINE
  8
0
 10
19.06
 20
123.44
 11
23.0164
 21
121.156
  0
LINE
  8
0
 10
23.0164
 20
121.156
 11
26.4112
 21
110.708
  0
LINE
  8
0
 10
26.4112
 20
110.708
 11
19.06
 21
123.44
  0
LINE
  8
0
 10
0.982452
 20
116.103
 11
13.69
 21
123.44
  0
LINE
  8
0
 10
13.69
 20
123.44
 11
0.981949
 21
101.43
  0
LINE
  8
0
 10
0.981949
 20
101.43
 11
0.982452
 21
116.103
  0
LINE
  8
0
 10
17.3575
 20
107.784
 11
17.3569
 21
122.458
  0
LINE
  8
0
 10
17.3569
 20
122.458
 11
29.3336
 21
101.714
  0
LINE
  8
0
 10
29.3336
 20
101.714
 11
29.6714
 21
100.674
  0
LINE
  8
0
 10
29.6714
 20
100.674
 11
17.3575
 21
107.784
  0
LINE
  8
0
 10
-15.3925
 20
107.784
 11
-15.393
 21
122.458
  0
LINE
  8
0
 10
-15.393
 20
122.458
 11
-2.68501
 21
100.447
  0
LINE
  8
0
 10
-2.68501
 20
100.447
 11
-15.3925
 21
107.784
  0
LINE
  8
0
 10
-29.3336
 20
101.714
 11
-17.3569
 21
122.458
  0
LINE
  8
0
 10
-17.3569
 20
122.458
 11
-17.3575
 21
107.784
  0
LINE
  8
0
 10
-17.3575
 20
107.784
 11
-29.6714
 21
100.674
  0
LINE
  8
0
 10
-29.6714
 20
100.674
 11
-29.3336
 21
101.714
  0
LINE
  8
0
 10
15.393
 20
122.458
 11
15.3925
 21
107.784
  0
LINE
  8
0
 10
15.3925
 20
107.784
 11
2.68501
 21
100.447
  0
LINE
  8
0
 10
2.68501
 20
100.447
 11
15.393
 21
122.458
  0
LINE
  8
0
 10
-29.083
 20
98.7455
 11
-16.375
 21
106.082
  0
LINE
  8
0
 10
-16.375
 20
106.082
 11
-3.66698
 21
98.7455
  0
LINE
  8
0
 10
-3.66698
 20
98.7455
 11
-29.083
 21
98.7455
  0
LINE
  8
0
 10
3.66698
 20
98.7455
 11
16.375
 21
106.082
  0
LINE
  8
0
 10
16.375
 20
106.082
 11
29.083
 21
98.7455
  0
LINE
  8
0
 10
29.083
 20
98.7455
 11
3.66698
 21
98.7455
  0
LINE
  8
0
 10
3.66698
 20
96.7801
 11
29.083
 21
96.7801
  0
LINE
  8
0
 10
29.083
 20
96.7801
 11
16.375
 21
89.4436
  0
LINE
  8
0
 10
16.375
 20
89.4436
 11
3.66698
 21
96.7801
  0
LINE
  8
0
 10
-29.083
 20
96.7801
 11
-3.66698
 21
96.7801
  0
LINE
  8
0
 10
-3.66698
 20
96.7801
 11
-16.375
 21
89.4436
  0
LINE
  8
0
 10
-16.375
 20
89.4436
 11
-29.083
 21
96.7801
  0
LINE
  8
0
 10
-15.3925
 20
87.7416
 11
-2.68501
 21
95.0785
  0
LINE
  8
0
 10
-2.68501
 20
95.0785
 11
-15.393
 21
73.0676
  0
LINE
  8
0
 10
-15.393
 20
73.0676
 11
-15.3925
 21
87.7416
  0
LINE
  8
0
 10
17.3575
 20
87.7416
 11
30.065
 21
95.0785
  0
LINE
  8
0
 10
30.065
 20
95.0785
 11
17.3569
 21
73.0676
  0
LINE
  8
0
 10
17.3569
 20
73.0676
 11
17.3575
 21
87.7416
  0
LINE
  8
0
 10
2.68501
 20
95.0785
 11
15.3925
 21
87.7416
  0
LINE
  8
0
 10
15.3925
 20
87.7416
 11
15.393
 21
73.0676
  0
LINE
  8
0
 10
15.393
 20
73.0676
 11
2.68501
 21
95.0785
  0
LINE
  8
0
 10
-30.065
 20
95.0785
 11
-17.3575
 21
87.7416
  0
LINE
  8
0
 10
-17.3575
 20
87.7416
 11
-17.3569
 21
73.0676
  0
LINE
  8
0
 10
-17.3569
 20
73.0676
 11
-30.065
 21
95.0785
  0
LINE
  8
0
 10
31.768
 20
94.0961
 11
31.7675
 21
79.4221
  0
LINE
  8
0
 10
31.7675
 20
79.4221
 11
19.06
 21
72.0852
  0
LINE
  8
0
 10
19.06
 20
72.0852
 11
31.768
 21
94.0961
  0
LINE
  8
0
 10
-0.981949
 20
94.0961
 11
-0.982452
 21
79.4221
  0
LINE
  8
0
 10
-0.982452
 20
79.4221
 11
-13.69
 21
72.0852
  0
LINE
  8
0
 10
-13.69
 20
72.0852
 11
-0.981949
 21
94.0961
  0
LINE
  8
0
 10
0.982452
 20
79.4221
 11
0.981949
 21
94.0961
  0
LINE
  8
0
 10
0.981949
 20
94.0961
 11
13.69
 21
72.0852
  0
LINE
  8
0
 10
13.69
 20
72.0852
 11
0.982452
 21
79.4221
  0
LINE
  8
0
 10
-31.7675
 20
79.4221
 11
-31.768
 21
94.0961
  0
LINE
  8
0
 10
-31.768
 20
94.0961
 11
-19.06
 21
72.0852
  0
LINE
  8
0
 10
-19.06
 20
72.0852
 11
-31.7675
 21
79.4221
  0
LINE
  8
0
 10
-33.7321
 20
88.1766
 11
-33.7325
 21
79.4221
  0
LINE
  8
0
 10
-33.7325
 20
79.4221
 11
-37.2334
 21
77.4008
  0
LINE
  8
0
 10
-37.2334
 20
77.4008
 11
-33.7321
 21
88.1766
  0
LINE
  8
0
 10
33.7325
 20
79.4221
 11
33.7321
 21
88.1766
  0
LINE
  8
0
 10
33.7321
 20
88.1766
 11
37.2334
 21
77.4008
  0
LINE
  8
0
 10
37.2334
 20
77.4008
 11
33.7325
 21
79.4221
  0
LINE
  8
0
 10
20.042
 20
70.3836
 11
32.75
 21
77.7201
  0
LINE
  8
0
 10
32.75
 20
77.7201
 11
38.1409
 21
74.6079
  0
LINE
  8
0
 10
38.1409
 20
74.6079
 11
39.5134
 21
70.3836
  0
LINE
  8
0
 10
39.5134
 20
70.3836
 11
20.042
 21
70.3836
  0
LINE
  8
0
 10
-39.5134
 20
70.3836
 11
-38.1409
 21
74.6079
  0
LINE
  8
0
 10
-38.1409
 20
74.6079
 11
-32.75
 21
77.7201
  0
LINE
  8
0
 10
-32.75
 20
77.7201
 11
-20.042
 21
70.3836
  0
LINE
  8
0
 10
-20.042
 20
70.3836
 11
-39.5134
 21
70.3836
  0
LINE
  8
0
 10
-12.708
 20
70.3836
 11
0
 21
77.7201
  0
LINE
  8
0
 10
0
 20
77.7201
 11
12.708
 21
70.3836
  0
LINE
  8
0
 10
12.708
 20
70.3836
 11
-12.708
 21
70.3836
  0
LINE
  8
0
 10
20.042
 20
68.4177
 11
40.1522
 21
68.4177
  0
LINE
  8
0
 10
40.1522
 20
68.4177
 11
40.9902
 21
65.8384
  0
LINE
  8
0
 10
40.9902
 20
65.8384
 11
32.75
 21
61.0812
  0
LINE
  8
0
 10
32.75
 20
61.0812
 11
20.042
 21
68.4177
  0
LINE
  8
0
 10
-12.708
 20
68.4177
 11
12.708
 21
68.4177
  0
LINE
  8
0
 10
12.708
 20
68.4177
 11
0
 21
61.0812
  0
LINE
  8
0
 10
0
 20
61.0812
 11
-12.708
 21
68.4177
  0
LINE
  8
0
 10
-40.9902
 20
65.8384
 11
-40.1522
 21
68.4177
  0
LINE
  8
0
 10
-40.1522
 20
68.4177
 11
-20.042
 21
68.4177
  0
LINE
  8
0
 10
-20.042
 20
68.4177
 11
-32.75
 21
61.0812
  0
LINE
  8
0
 10
-32.75
 20
61.0812
 11
-40.9902
 21
65.8384
  0
LINE
  8
0
 10
19.06
 20
66.7161
 11
31.7675
 21
59.3792
  0
LINE
  8
0
 10
31.7675
 20
59.3792
 11
31.768
 21
44.7052
  0
LINE
  8
0
 10
31.768
 20
44.7052
 11
19.06
 21
66.7161
  0
LINE
  8
0
 10
-13.69
 20
66.7161
 11
-0.982452
 21
59.3792
  0
LINE
  8
0
 10
-0.982452
 20
59.3792
 11
-0.981949
 21
44.7052
  0
LINE
  8
0
 10
-0.981949
 20
44.7052
 11
-13.69
 21
66.7161
  0
LINE
  8
0
 10
0.982452
 20
59.3792
 11
13.69
 21
66.7161
  0
LINE
  8
0
 10
13.69
 20
66.7161
 11
0.981949
 21
44.7052
  0
LINE
  8
0
 10
0.981949
 20
44.7052
 11
0.982452
 21
59.3792
  0
LINE
  8
0
 10
-31.7675
 20
59.3792
 11
-19.06
 21
66.7161
  0
LINE
  8
0
 10
-19.06
 20
66.7161
 11
-31.768
 21
44.7052
  0
LINE
  8
0
 10
-31.768
 20
44.7052
 11
-31.7675
 21
59.3792
  0
LINE
  8
0
 10
-15.3925
 20
51.0597
 11
-15.393
 21
65.7337
  0
LINE
  8
0
 10
-15.393
 20
65.7337
 11
-2.68501
 21
43.7228
  0
LINE
  8
0
 10
-2.68501
 20
43.7228
 11
-15.3925
 21
51.0597
  0
LINE
  8
0
 10
15.393
 20
65.7337
 11
15.3925
 21
51.0597
  0
LINE
  8
0
 10
15.3925
 20
51.0597
 11
2.68501
 21
43.7228
  0
LINE
  8
0
 10
2.68501
 20
43.7228
 11
15.393
 21
65.7337
  0
LINE
  8
0
 10
-17.3569
 20
65.7337
 11
-17.3575
 21
51.0597
  0
LINE
  8
0
 10
-17.3575
 20
51.0597
 11
-30.065
 21
43.7228
  0
LINE
  8
0
 10
-30.065
 20
43.7228
 11
-17.3569
 21
65.7337
  0
LINE
  8
0
 10
17.3575
 20
51.0597
 11
17.3569
 21
65.7337
  0
LINE
  8
0
 10
17.3569
 20
65.7337
 11
30.065
 21
43.7228
  0
LINE
  8
0
 10
30.065
 20
43.7228
 11
17.3575
 21
51.0597
  0
LINE
  8
0
 10
-42.7703
 20
60.36
 11
-41.611
 21
63.928
  0
LINE
  8
0
 10
-41.611
 20
63.928
 11
-33.7325
 21
59.3792
  0
LINE
  8
0
 10
-33.7325
 20
59.3792
 11
-33.7319
 21
44.7052
  0
LINE
  8
0
 10
-33.7319
 20
44.7052
 11
-42.7703
 21
60.36
  0
LINE
  8
0
 10
33.7325
 20
59.3792
 11
41.611
 21
63.928
  0
LINE
  8
0
 10
41.611
 20
63.928
 11
42.7703
 21
60.36
  0
LINE
  8
0
 10
42.7703
 20
60.36
 11
33.7319
 21
44.7052
  0
LINE
  8
0
 10
33.7319
 20
44.7052
 11
33.7325
 21
59.3792
  0
LINE
  8
0
 10
-46.1634
 20
49.9171
 11
-43.5878
 21
57.8439
  0
LINE
  8
0
 10
-43.5878
 20
57.8439
 11
-35.435
 21
43.7228
  0
LINE
  8
0
 10
-35.435
 20
43.7228
 11
-46.1634
 21
49.9171
  0
LINE
  8
0
 10
43.5878
 20
57.8439
 11
46.1634
 21
49.9171
  0
LINE
  8
0
 10
46.1634
 20
49.9171
 11
35.435
 21
43.7228
  0
LINE
  8
0
 10
35.435
 20
43.7228
 11
43.5878
 21
57.8439
  0
LINE
  8
0
 10
3.66698
 20
42.0212
 11
16.375
 21
49.3577
  0
LINE
  8
0
 10
16.375
 20
49.3577
 11
29.083
 21
42.0212
  0
LINE
  8
0
 10
29.083
 20
42.0212
 11
3.66698
 21
42.0212
  0
LINE
  8
0
 10
-29.083
 20
42.0212
 11
-16.375
 21
49.3577
  0
LINE
  8
0
 10
-16.375
 20
49.3577
 11
-3.66698
 21
42.0212
  0
LINE
  8
0
 10
-3.66698
 20
42.0212
 11
-29.083
 21
42.0212
  0
LINE
  8
0
 10
-48.7289
 20
42.0212
 11
-46.7843
 21
48.0063
  0
LINE
  8
0
 10
-46.7843
 20
48.0063
 11
-36.417
 21
42.0212
  0
LINE
  8
0
 10
-36.417
 20
42.0212
 11
-48.7289
 21
42.0212
  0
LINE
  8
0
 10
36.417
 20
42.0212
 11
46.7843
 21
48.0063
  0
LINE
  8
0
 10
46.7843
 20
48.0063
 11
48.7289
 21
42.0212
  0
LINE
  8
0
 10
48.7289
 20
42.0212
 11
36.417
 21
42.0212
  0
LINE
  8
0
 10
3.66698
 20
40.0558
 11
29.083
 21
40.0558
  0
LINE
  8
0
 10
29.083
 20
40.0558
 11
16.375
 21
32.7193
  0
LINE
  8
0
 10
16.375
 20
32.7193
 11
3.66698
 21
40.0558
  0
LINE
  8
0
 10
-29.083
 20
40.0558
 11
-3.66698
 21
40.0558
  0
LINE
  8
0
 10
-3.66698
 20
40.0558
 11
-16.375
 21
32.7193
  0
LINE
  8
0
 10
-16.375
 20
32.7193
 11
-29.083
 21
40.0558
  0
LINE
  8
0
 10
36.417
 20
40.0558
 11
49.3675
 21
40.0558
  0
LINE
  8
0
 10
49.3675
 20
40.0558
 11
51.3365
 21
33.996
  0
LINE
  8
0
 10
51.3365
 20
33.996
 11
49.125
 21
32.7193
  0
LINE
  8
0
 10
49.125
 20
32.7193
 11
36.417
 21
40.0558
  0
LINE
  8
0
 10
-51.3365
 20
33.996
 11
-49.3675
 21
40.0558
  0
LINE
  8
0
 10
-49.3675
 20
40.0558
 11
-36.417
 21
40.0558
  0
LINE
  8
0
 10
-36.417
 20
40.0558
 11
-49.125
 21
32.7193
  0
LINE
  8
0
 10
-49.125
 20
32.7193
 11
-51.3365
 21
33.996
  0
LINE
  8
0
 10
-48.1425
 20
31.0173
 11
-35.435
 21
38.3542
  0
LINE
  8
0
 10
-35.435
 20
38.3542
 11
-48.143
 21
16.3433
  0
LINE
  8
0
 10
-48.143
 20
16.3433
 11
-48.1425
 21
31.0173
  0
LINE
  8
0
 10
35.435
 20
38.3542
 11
48.1425
 21
31.0173
  0
LINE
  8
0
 10
48.1425
 20
31.0173
 11
48.143
 21
16.3433
  0
LINE
  8
0
 10
48.143
 20
16.3433
 11
35.435
 21
38.3542
  0
LINE
  8
0
 10
17.3575
 20
31.0173
 11
30.065
 21
38.3542
  0
LINE
  8
0
 10
30.065
 20
38.3542
 11
17.3569
 21
16.3433
  0
LINE
  8
0
 10
17.3569
 20
16.3433
 11
17.3575
 21
31.0173
  0
LINE
  8
0
 10
-15.3925
 20
31.0173
 11
-2.68501
 21
38.3542
  0
LINE
  8
0
 10
-2.68501
 20
38.3542
 11
-15.393
 21
16.3433
  0
LINE
  8
0
 10
-15.393
 20
16.3433
 11
-15.3925
 21
31.0173
  0
LINE
  8
0
 10
2.68501
 20
38.3542
 11
15.3925
 21
31.0173
  0
LINE
  8
0
 10
15.3925
 20
31.0173
 11
15.393
 21
16.3433
  0
LINE
  8
0
 10
15.393
 20
16.3433
 11
2.68501
 21
38.3542
  0
LINE
  8
0
 10
-30.065
 20
38.3542
 11
-17.3575
 21
31.0173
  0
LINE
  8
0
 10
-17.3575
 20
31.0173
 11
-17.3569
 21
16.3433
  0
LINE
  8
0
 10
-17.3569
 20
16.3433
 11
-30.065
 21
38.3542
  0
LINE
  8
0
 10
31.768
 20
37.3713
 11
31.7675
 21
22.6973
  0
LINE
  8
0
 10
31.7675
 20
22.6973
 11
19.06
 21
15.3604
  0
LINE
  8
0
 10
19.06
 20
15.3604
 11
31.768
 21
37.3713
  0
LINE
  8
0
 10
33.7325
 20
22.6973
 11
33.7319
 21
37.3713
  0
LINE
  8
0
 10
33.7319
 20
37.3713
 11
46.44
 21
15.3604
  0
LINE
  8
0
 10
46.44
 20
15.3604
 11
33.7325
 21
22.6973
  0
LINE
  8
0
 10
-0.981949
 20
37.3713
 11
-0.982452
 21
22.6973
  0
LINE
  8
0
 10
-0.982452
 20
22.6973
 11
-13.69
 21
15.3604
  0
LINE
  8
0
 10
-13.69
 20
15.3604
 11
-0.981949
 21
37.3713
  0
LINE
  8
0
 10
0.982452
 20
22.6973
 11
0.981949
 21
37.3713
  0
LINE
  8
0
 10
0.981949
 20
37.3713
 11
13.69
 21
15.3604
  0
LINE
  8
0
 10
13.69
 20
15.3604
 11
0.982452
 21
22.6973
  0
LINE
  8
0
 10
-33.7319
 20
37.3713
 11
-33.7325
 21
22.6973
  0
LINE
  8
0
 10
-33.7325
 20
22.6973
 11
-46.44
 21
15.3604
  0
LINE
  8
0
 10
-46.44
 20
15.3604
 11
-33.7319
 21
37.3713
  0
LINE
  8
0
 10
-31.7675
 20
22.6973
 11
-31.768
 21
37.3713
  0
LINE
  8
0
 10
-31.768
 20
37.3713
 11
-19.06
 21
15.3604
  0
LINE
  8
0
 10
-19.06
 20
15.3604
 11
-31.7675
 21
22.6973
  0
LINE
  8
0
 10
-54.5639
 20
24.063
 11
-51.9573
 21
32.0853
  0
LINE
  8
0
 10
-51.9573
 20
32.0853
 11
-50.1075
 21
31.0173
  0
LINE
  8
0
 10
-50.1075
 20
31.0173
 11
-50.1069
 21
16.3433
  0
LINE
  8
0
 10
-50.1069
 20
16.3433
 11
-54.5639
 21
24.063
  0
LINE
  8
0
 10
50.1075
 20
31.0173
 11
51.9573
 21
32.0853
  0
LINE
  8
0
 10
51.9573
 20
32.0853
 11
54.5639
 21
24.063
  0
LINE
  8
0
 10
54.5639
 20
24.063
 11
50.1069
 21
16.3433
  0
LINE
  8
0
 10
50.1069
 20
16.3433
 11
50.1075
 21
31.0173
  0
LINE
  8
0
 10
-56.5099
 20
18.0739
 11
-55.3816
 21
21.5465
  0
LINE
  8
0
 10
-55.3816
 20
21.5465
 11
-51.81
 21
15.3604
  0
LINE
  8
0
 10
-51.81
 20
15.3604
 11
-56.5099
 21
18.0739
  0
LINE
  8
0
 10
55.3816
 20
21.5465
 11
56.5099
 21
18.0739
  0
LINE
  8
0
 10
56.5099
 20
18.0739
 11
51.81
 21
15.3604
  0
LINE
  8
0
 10
51.81
 20
15.3604
 11
55.3816
 21
21.5465
  0
LINE
  8
0
 10
20.042
 20
13.6588
 11
32.75
 21
20.9953
  0
LINE
  8
0
 10
32.75
 20
20.9953
 11
45.458
 21
13.6588
  0
LINE
  8
0
 10
45.458
 20
13.6588
 11
20.042
 21
13.6588
  0
LINE
  8
0
 10
-12.708
 20
13.6588
 11
0
 21
20.9953
  0
LINE
  8
0
 10
0
 20
20.9953
 11
12.708
 21
13.6588
  0
LINE
  8
0
 10
12.708
 20
13.6588
 11
-12.708
 21
13.6588
  0
LINE
  8
0
 10
-45.458
 20
13.6588
 11
-32.75
 21
20.9953
  0
LINE
  8
0
 10
-32.75
 20
20.9953
 11
-20.042
 21
13.6588
  0
LINE
  8
0
 10
-20.042
 20
13.6588
 11
-45.458
 21
13.6588
  0
LINE
  8
0
 10
-57.9444
 20
13.6588
 11
-57.1306
 21
16.1635
  0
LINE
  8
0
 10
-57.1306
 20
16.1635
 11
-52.792
 21
13.6588
  0
LINE
  8
0
 10
-52.792
 20
13.6588
 11
-57.9444
 21
13.6588
  0
LINE
  8
0
 10
52.792
 20
13.6588
 11
57.1306
 21
16.1635
  0
LINE
  8
0
 10
57.1306
 20
16.1635
 11
57.9444
 21
13.6588
  0
LINE
  8
0
 10
57.9444
 20
13.6588
 11
52.792
 21
13.6588
  0
LINE
  8
0
 10
-10
 20
7
 11
-10
 21
11
  0
LINE
  8
0
 10
-10
 20
11
 11
10
 21
11
  0
LINE
  8
0
 10
10
 20
11
 11
10
 21
7
  0
LINE
  8
0
 10
10
 20
7
 11
-10
 21
7
  0
LINE
  8
0
 10
-68.6534
 20
2.70622
 11
-68.7785
 21
2.71805
  0
LINE
  8
0
 10
-68.7785
 20
2.71805
 11
-68.9026
 21
2.7377
  0
LINE
  8
0
 10
-68.9026
 20
2.7377
 11
-69.0252
 21
2.76511
  0
LINE
  8
0
 10
-69.0252
 20
2.76511
 11
-69.1459
 21
2.80016
  0
LINE
  8
0
 10
-69.1459
 20
2.80016
 11
-69.2641
 21
2.84273
  0
LINE
  8
0
 10
-69.2641
 20
2.84273
 11
-69.3794
 21
2.89262
  0
LINE
  8
0
 10
-69.3794
 20
2.89262
 11
-69.4914
 21
2.94966
  0
LINE
  8
0
 10
-69.4914
 20
2.94966
 11
-69.5995
 21
3.01363
  0
LINE
  8
0
 10
-69.5995
 20
3.01363
 11
-69.7034
 21
3.08424
  0
LINE
  8
0
 10
-69.7034
 20
3.08424
 11
-69.8027
 21
3.16125
  0
LINE
  8
0
 10
-69.8027
 20
3.16125
 11
-69.897
 21
3.24434
  0
LINE
  8
0
 10
-69.897
 20
3.24434
 11
-69.9858
 21
3.33318
  0
LINE
  8
0
 10
-69.9858
 20
3.33318
 11
-70.0689
 21
3.42743
  0
LINE
  8
0
 10
-70.0689
 20
3.42743
 11
-70.1459
 21
3.5267
  0
LINE
  8
0
 10
-70.1459
 20
3.5267
 11
-70.2165
 21
3.63062
  0
LINE
  8
0
 10
-70.2165
 20
3.63062
 11
-70.2805
 21
3.73877
  0
LINE
  8
0
 10
-70.2805
 20
3.73877
 11
-70.3375
 21
3.85072
  0
LINE
  8
0
 10
-70.3375
 20
3.85072
 11
-70.3874
 21
3.96602
  0
LINE
  8
0
 10
-70.3874
 20
3.96602
 11
-70.43
 21
4.08424
  0
LINE
  8
0
 10
-70.43
 20
4.08424
 11
-70.465
 21
4.2049
  0
LINE
  8
0
 10
-70.465
 20
4.2049
 11
-70.4924
 21
4.32751
  0
LINE
  8
0
 10
-70.4924
 20
4.32751
 11
-70.5121
 21
4.45161
  0
LINE
  8
0
 10
-70.5121
 20
4.45161
 11
-70.5239
 21
4.57669
  0
LINE
  8
0
 10
-70.5239
 20
4.57669
 11
-70.5279
 21
4.70227
  0
LINE
  8
0
 10
-70.5279
 20
4.70227
 11
-70.5239
 21
4.82785
  0
LINE
  8
0
 10
-70.5239
 20
4.82785
 11
-70.5121
 21
4.95294
  0
LINE
  8
0
 10
-70.5121
 20
4.95294
 11
-70.4924
 21
5.07704
  0
LINE
  8
0
 10
-70.4924
 20
5.07704
 11
-70.465
 21
5.19966
  0
LINE
  8
0
 10
-70.465
 20
5.19966
 11
-70.43
 21
5.32031
  0
LINE
  8
0
 10
-70.43
 20
5.32031
 11
-70.3874
 21
5.43852
  0
LINE
  8
0
 10
-70.3874
 20
5.43852
 11
-70.3375
 21
5.55383
  0
LINE
  8
0
 10
-70.3375
 20
5.55383
 11
-70.2805
 21
5.66579
  0
LINE
  8
0
 10
-70.2805
 20
5.66579
 11
-70.2165
 21
5.77393
  0
LINE
  8
0
 10
-70.2165
 20
5.77393
 11
-70.1459
 21
5.87784
  0
LINE
  8
0
 10
-70.1459
 20
5.87784
 11
-70.0689
 21
5.97713
  0
LINE
  8
0
 10
-70.0689
 20
5.97713
 11
-69.9858
 21
6.07137
  0
LINE
  8
0
 10
-69.9858
 20
6.07137
 11
-69.897
 21
6.16022
  0
LINE
  8
0
 10
-69.897
 20
6.16022
 11
-69.8027
 21
6.2433
  0
LINE
  8
0
 10
-69.8027
 20
6.2433
 11
-69.7034
 21
6.32031
  0
LINE
  8
0
 10
-69.7034
 20
6.32031
 11
-69.5995
 21
6.39093
  0
LINE
  8
0
 10
-69.5995
 20
6.39093
 11
-69.4914
 21
6.4549
  0
LINE
  8
0
 10
-69.4914
 20
6.4549
 11
-69.3794
 21
6.51193
  0
LINE
  8
0
 10
-69.3794
 20
6.51193
 11
-69.2641
 21
6.56183
  0
LINE
  8
0
 10
-69.2641
 20
6.56183
 11
-69.1459
 21
6.60439
  0
LINE
  8
0
 10
-69.1459
 20
6.60439
 11
-69.0252
 21
6.63943
  0
LINE
  8
0
 10
-69.0252
 20
6.63943
 11
-68.9026
 21
6.66685
  0
LINE
  8
0
 10
-68.9026
 20
6.66685
 11
-68.7785
 21
6.68651
  0
LINE
  8
0
 10
-68.7785
 20
6.68651
 11
-68.6534
 21
6.69833
  0
LINE
  8
0
 10
-68.6534
 20
6.69833
 11
-68.5279
 21
6.70227
  0
LINE
  8
0
 10
-68.5279
 20
6.70227
 11
-68.4023
 21
6.69833
  0
LINE
  8
0
 10
-68.4023
 20
6.69833
 11
-68.2772
 21
6.68651
  0
LINE
  8
0
 10
-68.2772
 20
6.68651
 11
-68.1531
 21
6.66685
  0
LINE
  8
0
 10
-68.1531
 20
6.66685
 11
-68.0305
 21
6.63943
  0
LINE
  8
0
 10
-68.0305
 20
6.63943
 11
-67.9098
 21
6.60439
  0
LINE
  8
0
 10
-67.9098
 20
6.60439
 11
-67.7916
 21
6.56183
  0
LINE
  8
0
 10
-67.7916
 20
6.56183
 11
-67.6763
 21
6.51193
  0
LINE
  8
0
 10
-67.6763
 20
6.51193
 11
-67.5643
 21
6.4549
  0
LINE
  8
0
 10
-67.5643
 20
6.4549
 11
-67.4562
 21
6.39093
  0
LINE
  8
0
 10
-67.4562
 20
6.39093
 11
-67.3523
 21
6.32031
  0
LINE
  8
0
 10
-67.3523
 20
6.32031
 11
-67.253
 21
6.2433
  0
LINE
  8
0
 10
-67.253
 20
6.2433
 11
-67.1588
 21
6.16022
  0
LINE
  8
0
 10
-67.1588
 20
6.16022
 11
-67.0699
 21
6.07137
  0
LINE
  8
0
 10
-67.0699
 20
6.07137
 11
-66.9868
 21
5.97713
  0
LINE
  8
0
 10
-66.9868
 20
5.97713
 11
-66.9098
 21
5.87784
  0
LINE
  8
0
 10
-66.9098
 20
5.87784
 11
-66.8392
 21
5.77393
  0
LINE
  8
0
 10
-66.8392
 20
5.77393
 11
-66.7752
 21
5.66579
  0
LINE
  8
0
 10
-66.7752
 20
5.66579
 11
-66.7182
 21
5.55383
  0
LINE
  8
0
 10
-66.7182
 20
5.55383
 11
-66.6683
 21
5.43852
  0
LINE
  8
0
 10
-66.6683
 20
5.43852
 11
-66.6257
 21
5.32031
  0
LINE
  8
0
 10
-66.6257
 20
5.32031
 11
-66.5907
 21
5.19966
  0
LINE
  8
0
 10
-66.5907
 20
5.19966
 11
-66.5633
 21
5.07704
  0
LINE
  8
0
 10
-66.5633
 20
5.07704
 11
-66.5436
 21
4.95294
  0
LINE
  8
0
 10
-66.5436
 20
4.95294
 11
-66.5318
 21
4.82785
  0
LINE
  8
0
 10
-66.5318
 20
4.82785
 11
-66.5279
 21
4.70227
  0
LINE
  8
0
 10
-66.5279
 20
4.70227
 11
-66.5318
 21
4.57669
  0
LINE
  8
0
 10
-66.5318
 20
4.57669
 11
-66.5436
 21
4.45161
  0
LINE
  8
0
 10
-66.5436
 20
4.45161
 11
-66.5633
 21
4.32751
  0
LINE
  8
0
 10
-66.5633
 20
4.32751
 11
-66.5907
 21
4.2049
  0
LINE
  8
0
 10
-66.5907
 20
4.2049
 11
-66.6257
 21
4.08424
  0
LINE
  8
0
 10
-66.6257
 20
4.08424
 11
-66.6683
 21
3.96602
  0
LINE
  8
0
 10
-66.6683
 20
3.96602
 11
-66.7182
 21
3.85072
  0
LINE
  8
0
 10
-66.7182
 20
3.85072
 11
-66.7752
 21
3.73877
  0
LINE
  8
0
 10
-66.7752
 20
3.73877
 11
-66.8392
 21
3.63062
  0
LINE
  8
0
 10
-66.8392
 20
3.63062
 11
-66.9098
 21
3.5267
  0
LINE
  8
0
 10
-66.9098
 20
3.5267
 11
-66.9868
 21
3.42743
  0
LINE
  8
0
 10
-66.9868
 20
3.42743
 11
-67.0699
 21
3.33318
  0
LINE
  8
0
 10
-67.0699
 20
3.33318
 11
-67.1588
 21
3.24434
  0
LINE
  8
0
 10
-67.1588
 20
3.24434
 11
-67.253
 21
3.16125
  0
LINE
  8
0
 10
-67.253
 20
3.16125
 11
-67.3523
 21
3.08424
  0
LINE
  8
0
 10
-67.3523
 20
3.08424
 11
-67.4562
 21
3.01363
  0
LINE
  8
0
 10
-67.4562
 20
3.01363
 11
-67.5643
 21
2.94966
  0
LINE
  8
0
 10
-67.5643
 20
2.94966
 11
-67.6763
 21
2.89262
  0
LINE
  8
0
 10
-67.6763
 20
2.89262
 11
-67.7916
 21
2.84273
  0
LINE
  8
0
 10
-67.7916
 20
2.84273
 11
-67.9098
 21
2.80016
  0
LINE
  8
0
 10
-67.9098
 20
2.80016
 11
-68.0305
 21
2.76511
  0
LINE
  8
0
 10
-68.0305
 20
2.76511
 11
-68.1531
 21
2.7377
  0
LINE
  8
0
 10
-68.1531
 20
2.7377
 11
-68.2772
 21
2.71805
  0
LINE
  8
0
 10
-68.2772
 20
2.71805
 11
-68.4023
 21
2.70622
  0
LINE
  8
0
 10
-68.4023
 20
2.70622
 11
-68.5279
 21
2.70227
  0
LINE
  8
0
 10
-68.5279
 20
2.70227
 11
-68.6534
 21
2.70622
  0
LINE
  8
0
 10
68.4023
 20
2.70622
 11
68.2772
 21
2.71805
  0
LINE
  8
0
 10
68.2772
 20
2.71805
 11
68.1531
 21
2.7377
  0
LINE
  8
0
 10
68.1531
 20
2.7377
 11
68.0305
 21
2.76511
  0
LINE
  8
0
 10
68.0305
 20
2.76511
 11
67.9098
 21
2.80016
  0
LINE
  8
0
 10
67.9098
 20
2.80016
 11
67.7916
 21
2.84273
  0
LINE
  8
0
 10
67.7916
 20
2.84273
 11
67.6763
 21
2.89262
  0
LINE
  8
0
 10
67.6763
 20
2.89262
 11
67.5643
 21
2.94966
  0
LINE
  8
0
 10
67.5643
 20
2.94966
 11
67.4562
 21
3.01363
  0
LINE
  8
0
 10
67.4562
 20
3.01363
 11
67.3523
 21
3.08424
  0
LINE
  8
0
 10
67.3523
 20
3.08424
 11
67.253
 21
3.16125
  0
LINE
  8
0
 10
67.253
 20
3.16125
 11
67.1588
 21
3.24434
  0
LINE
  8
0
 10
67.1588
 20
3.24434
 11
67.0699
 21
3.33318
  0
LINE
  8
0
 10
67.0699
 20
3.33318
 11
66.9868
 21
3.42743
  0
LINE
  8
0
 10
66.9868
 20
3.42743
 11
66.9098
 21
3.5267
  0
LINE
  8
0
 10
66.9098
 20
3.5267
 11
66.8392
 21
3.63062
  0
LINE
  8
0
 10
66.8392
 20
3.63062
 11
66.7752
 21
3.73877
  0
LINE
  8
0
 10
66.7752
 20
3.73877
 11
66.7182
 21
3.85072
  0
LINE
  8
0
 10
66.7182
 20
3.85072
 11
66.6683
 21
3.96602
  0
LINE
  8
0
 10
66.6683
 20
3.96602
 11
66.6257
 21
4.08424
  0
LINE
  8
0
 10
66.6257
 20
4.08424
 11
66.5907
 21
4.2049
  0
LINE
  8
0
 10
66.5907
 20
4.2049
 11
66.5633
 21
4.32751
  0
LINE
  8
0
 10
66.5633
 20
4.32751
 11
66.5436
 21
4.45161
  0
LINE
  8
0
 10
66.5436
 20
4.45161
 11
66.5318
 21
4.57669
  0
LINE
  8
0
 10
66.5318
 20
4.57669
 11
66.5279
 21
4.70227
  0
LINE
  8
0
 10
66.5279
 20
4.70227
 11
66.5318
 21
4.82785
  0
LINE
  8
0
 10
66.5318
 20
4.82785
 11
66.5436
 21
4.95294
  0
LINE
  8
0
 10
66.5436
 20
4.95294
 11
66.5633
 21
5.07704
  0
LINE
  8
0
 10
66.5633
 20
5.07704
 11
66.5907
 21
5.19966
  0
LINE
  8
0
 10
66.5907
 20
5.19966
 11
66.6257
 21
5.32031
  0
LINE
  8
0
 10
66.6257
 20
5.32031
 11
66.6683
 21
5.43852
  0
LINE
  8
0
 10
66.6683
 20
5.43852
 11
66.7182
 21
5.55383
  0
LINE
  8
0
 10
66.7182
 20
5.55383
 11
66.7752
 21
5.66579
  0
LINE
  8
0
 10
66.7752
 20
5.66579
 11
66.8392
 21
5.77393
  0
LINE
  8
0
 10
66.8392
 20
5.77393
 11
66.9098
 21
5.87784
  0
LINE
  8
0
 10
66.9098
 20
5.87784
 11
66.9868
 21
5.97713
  0
LINE
  8
0
 10
66.9868
 20
5.97713
 11
67.0699
 21
6.07137
  0
LINE
  8
0
 10
67.0699
 20
6.07137
 11
67.1588
 21
6.16022
  0
LINE
  8
0
 10
67.1588
 20
6.16022
 11
67.253
 21
6.2433
  0
LINE
  8
0
 10
67.253
 20
6.2433
 11
67.3523
 21
6.32031
  0
LINE
  8
0
 10
67.3523
 20
6.32031
 11
67.4562
 21
6.39093
  0
LINE
  8
0
 10
67.4562
 20
6.39093
 11
67.5643
 21
6.4549
  0
LINE
  8
0
 10
67.5643
 20
6.4549
 11
67.6763
 21
6.51193
  0
LINE
  8
0
 10
67.6763
 20
6.51193
 11
67.7916
 21
6.56183
  0
LINE
  8
0
 10
67.7916
 20
6.56183
 11
67.9098
 21
6.60439
  0
LINE
  8
0
 10
67.9098
 20
6.60439
 11
68.0305
 21
6.63943
  0
LINE
  8
0
 10
68.0305
 20
6.63943
 11
68.1531
 21
6.66685
  0
LINE
  8
0
 10
68.1531
 20
6.66685
 11
68.2772
 21
6.68651
  0
LINE
  8
0
 10
68.2772
 20
6.68651
 11
68.4023
 21
6.69833
  0
LINE
  8
0
 10
68.4023
 20
6.69833
 11
68.5279
 21
6.70227
  0
LINE
  8
0
 10
68.5279
 20
6.70227
 11
68.6534
 21
6.69833
  0
LINE
  8
0
 10
68.6534
 20
6.69833
 11
68.7785
 21
6.68651
  0
LINE
  8
0
 10
68.7785
 20
6.68651
 11
68.9026
 21
6.66685
  0
LINE
  8
0
 10
68.9026
 20
6.66685
 11
69.0252
 21
6.63943
  0
LINE
  8
0
 10
69.0252
 20
6.63943
 11
69.1459
 21
6.60439
  0
LINE
  8
0
 10
69.1459
 20
6.60439
 11
69.2641
 21
6.56183
  0
LINE
  8
0
 10
69.2641
 20
6.56183
 11
69.3794
 21
6.51193
  0
LINE
  8
0
 10
69.3794
 20
6.51193
 11
69.4914
 21
6.4549
  0
LINE
  8
0
 10
69.4914
 20
6.4549
 11
69.5995
 21
6.39093
  0
LINE
  8
0
 10
69.5995
 20
6.39093
 11
69.7034
 21
6.32031
  0
LINE
  8
0
 10
69.7034
 20
6.32031
 11
69.8027
 21
6.2433
  0
LINE
  8
0
 10
69.8027
 20
6.2433
 11
69.897
 21
6.16022
  0
LINE
  8
0
 10
69.897
 20
6.16022
 11
69.9858
 21
6.07137
  0
LINE
  8
0
 10
69.9858
 20
6.07137
 11
70.0689
 21
5.97713
  0
LINE
  8
0
 10
70.0689
 20
5.97713
 11
70.1459
 21
5.87784
  0
LINE
  8
0
 10
70.1459
 20
5.87784
 11
70.2165
 21
5.77393
  0
LINE
  8
0
 10
70.2165
 20
5.77393
 11
70.2805
 21
5.66579
  0
LINE
  8
0
 10
70.2805
 20
5.66579
 11
70.3375
 21
5.55383
  0
LINE
  8
0
 10
70.3375
 20
5.55383
 11
70.3874
 21
5.43852
  0
LINE
  8
0
 10
70.3874
 20
5.43852
 11
70.43
 21
5.32031
  0
LINE
  8
0
 10
70.43
 20
5.32031
 11
70.465
 21
5.19966
  0
LINE
  8
0
 10
70.465
 20
5.19966
 11
70.4924
 21
5.07704
  0
LINE
  8
0
 10
70.4924
 20
5.07704
 11
70.5121
 21
4.95294
  0
LINE
  8
0
 10
70.5121
 20
4.95294
 11
70.5239
 21
4.82785
  0
LINE
  8
0
 10
70.5239
 20
4.82785
 11
70.5279
 21
4.70227
  0
LINE
  8
0
 10
70.5279
 20
4.70227
 11
70.5239
 21
4.57669
  0
LINE
  8
0
 10
70.5239
 20
4.57669
 11
70.5121
 21
4.45161
  0
LINE
  8
0
 10
70.5121
 20
4.45161
 11
70.4924
 21
4.32751
  0
LINE
  8
0
 10
70.4924
 20
4.32751
 11
70.465
 21
4.2049
  0
LINE
  8
0
 10
70.465
 20
4.2049
 11
70.43
 21
4.08424
  0
LINE
  8
0
 10
70.43
 20
4.08424
 11
70.3874
 21
3.96602
  0
LINE
  8
0
 10
70.3874
 20
3.96602
 11
70.3375
 21
3.85072
  0
LINE
  8
0
 10
70.3375
 20
3.85072
 11
70.2805
 21
3.73877
  0
LINE
  8
0
 10
70.2805
 20
3.73877
 11
70.2165
 21
3.63062
  0
LINE
  8
0
 10
70.2165
 20
3.63062
 11
70.1459
 21
3.5267
  0
LINE
  8
0
 10
70.1459
 20
3.5267
 11
70.0689
 21
3.42743
  0
LINE
  8
0
 10
70.0689
 20
3.42743
 11
69.9858
 21
3.33318
  0
LINE
  8
0
 10
69.9858
 20
3.33318
 11
69.897
 21
3.24434
  0
LINE
  8
0
 10
69.897
 20
3.24434
 11
69.8027
 21
3.16125
  0
LINE
  8
0
 10
69.8027
 20
3.16125
 11
69.7034
 21
3.08424
  0
LINE
  8
0
 10
69.7034
 20
3.08424
 11
69.5995
 21
3.01363
  0
LINE
  8
0
 10
69.5995
 20
3.01363
 11
69.4914
 21
2.94966
  0
LINE
  8
0
 10
69.4914
 20
2.94966
 11
69.3794
 21
2.89262
  0
LINE
  8
0
 10
69.3794
 20
2.89262
 11
69.2641
 21
2.84273
  0
LINE
  8
0
 10
69.2641
 20
2.84273
 11
69.1459
 21
2.80016
  0
LINE
  8
0
 10
69.1459
 20
2.80016
 11
69.0252
 21
2.76511
  0
LINE
  8
0
 10
69.0252
 20
2.76511
 11
68.9026
 21
2.7377
  0
LINE
  8
0
 10
68.9026
 20
2.7377
 11
68.7785
 21
2.71805
  0
LINE
  8
0
 10
68.7785
 20
2.71805
 11
68.6534
 21
2.70622
  0
LINE
  8
0
 10
68.6534
 20
2.70622
 11
68.5279
 21
2.70227
  0
LINE
  8
0
 10
68.5279
 20
2.70227
 11
68.4023
 21
2.70622
  0
ENDSEC
  0
SECTION
  2
OBJECTS
  0
DICTIONARY
  0
ENDSEC
  0
EOF
