  0
SECTION
  2
BLOCKS
  0
ENDSEC
  0
SECTION
  2
ENTITIES
  0
LINE
  8
0
 10
1.13559
 20
-0.722992
 11
0.920944
 21
-0.0790558
  0
LINE
  8
0
 10
0.920944
 20
-0.0790558
 11
0.683777
 21
0
  0
LINE
  8
0
 10
0.683777
 20
0
 11
75
 21
0
  0
LINE
  8
0
 10
75
 20
0
 11
0
 21
230.826
  0
LINE
  8
0
 10
0
 20
230.826
 11
-75
 21
0
  0
LINE
  8
0
 10
-75
 20
0
 11
-0.683777
 21
0
  0
LINE
  8
0
 10
-0.683777
 20
0
 11
-0.277008
 21
-0.13559
  0
LINE
  8
0
 10
-0.277008
 20
-0.13559
 11
-0.141418
 21
0
  0
LINE
  8
0
 10
-0.141418
 20
0
 11
0.141418
 21
0
  0
LINE
  8
0
 10
0.141418
 20
0
 11
0.36441
 21
-0.222992
  0
LINE
  8
0
 10
0.36441
 20
-0.222992
 11
0.158112
 21
-0.841888
  0
LINE
  8
0
 10
0.158112
 20
-0.841888
 11
0.777008
 21
-0.63559
  0
LINE
  8
0
 10
0.777008
 20
-0.63559
 11
1
 21
-0.858582
  0
LINE
  8
0
 10
1
 20
-0.858582
 11
1.13559
 21
-0.722992
  0
LINE
  8
0
 10
-0.12558
 20
212.83
 11
-0.250656
 21
212.842
  0
LINE
  8
0
 10
-0.250656
 20
212.842
 11
-0.374756
 21
212.862
  0
LINE
  8
0
 10
-0.374756
 20
212.862
 11
-0.497375
 21
212.889
  0
LINE
  8
0
 10
-0.497375
 20
212.889
 11
-0.618027
 21
212.924
  0
LINE
  8
0
 10
-0.618027
 20
212.924
 11
-0.736237
 21
212.967
  0
LINE
  8
0
 10
-0.736237
 20
212.967
 11
-0.851547
 21
213.017
  0
LINE
  8
0
 10
-0.851547
 20
213.017
 11
-0.963501
 21
213.074
  0
LINE
  8
0
 10
-0.963501
 20
213.074
 11
-1.07164
 21
213.138
  0
LINE
  8
0
 10
-1.07164
 20
213.138
 11
-1.17557
 21
213.208
  0
LINE
  8
0
 10
-1.17557
 20
213.208
 11
-1.27484
 21
213.285
  0
LINE
  8
0
 10
-1.27484
 20
213.285
 11
-1.36908
 21
213.368
  0
LINE
  8
0
 10
-1.36908
 20
213.368
 11
-1.45793
 21
213.457
  0
LINE
  8
0
 10
-1.45793
 20
213.457
 11
-1.54102
 21
213.551
  0
LINE
  8
0
 10
-1.54102
 20
213.551
 11
-1.61803
 21
213.651
  0
LINE
  8
0
 10
-1.61803
 20
213.651
 11
-1.68864
 21
213.755
  0
LINE
  8
0
 10
-1.68864
 20
213.755
 11
-1.75261
 21
213.863
  0
LINE
  8
0
 10
-1.75261
 20
213.863
 11
-1.80965
 21
213.975
  0
LINE
  8
0
 10
-1.80965
 20
213.975
 11
-1.85954
 21
214.09
  0
LINE
  8
0
 10
-1.85954
 20
214.09
 11
-1.9021
 21
214.208
  0
LINE
  8
0
 10
-1.9021
 20
214.208
 11
-1.93716
 21
214.329
  0
LINE
  8
0
 10
-1.93716
 20
214.329
 11
-1.96457
 21
214.451
  0
LINE
  8
0
 10
-1.96457
 20
214.451
 11
-1.98422
 21
214.576
  0
LINE
  8
0
 10
-1.98422
 20
214.576
 11
-1.99605
 21
214.701
  0
LINE
  8
0
 10
-1.99605
 20
214.701
 11
-2
 21
214.826
  0
LINE
  8
0
 10
-2
 20
214.826
 11
-1.99605
 21
214.952
  0
LINE
  8
0
 10
-1.99605
 20
214.952
 11
-1.98422
 21
215.077
  0
LINE
  8
0
 10
-1.98422
 20
215.077
 11
-1.96457
 21
215.201
  0
LINE
  8
0
 10
-1.96457
 20
215.201
 11
-1.93716
 21
215.324
  0
LINE
  8
0
 10
-1.93716
 20
215.324
 11
-1.9021
 21
215.444
  0
LINE
  8
0
 10
-1.9021
 20
215.444
 11
-1.85954
 21
215.562
  0
LINE
  8
0
 10
-1.85954
 20
215.562
 11
-1.80965
 21
215.678
  0
LINE
  8
0
 10
-1.80965
 20
215.678
 11
-1.75261
 21
215.79
  0
LINE
  8
0
 10
-1.75261
 20
215.79
 11
-1.68864
 21
215.898
  0
LINE
  8
0
 10
-1.68864
 20
215.898
 11
-1.61803
 21
216.002
  0
LINE
  8
0
 10
-1.61803
 20
216.002
 11
-1.54102
 21
216.101
  0
LINE
  8
0
 10
-1.54102
 20
216.101
 11
-1.45793
 21
216.195
  0
LINE
  8
0
 10
-1.45793
 20
216.195
 11
-1.36908
 21
216.284
  0
LINE
  8
0
 10
-1.36908
 20
216.284
 11
-1.27484
 21
216.367
  0
LINE
  8
0
 10
-1.27484
 20
216.367
 11
-1.17557
 21
216.444
  0
LINE
  8
0
 10
-1.17557
 20
216.444
 11
-1.07164
 21
216.515
  0
LINE
  8
0
 10
-1.07164
 20
216.515
 11
-0.963501
 21
216.579
  0
LINE
  8
0
 10
-0.963501
 20
216.579
 11
-0.851547
 21
216.636
  0
LINE
  8
0
 10
-0.851547
 20
216.636
 11
-0.736237
 21
216.686
  0
LINE
  8
0
 10
-0.736237
 20
216.686
 11
-0.618027
 21
216.728
  0
LINE
  8
0
 10
-0.618027
 20
216.728
 11
-0.497375
 21
216.763
  0
LINE
  8
0
 10
-0.497375
 20
216.763
 11
-0.374756
 21
216.791
  0
LINE
  8
0
 10
-0.374756
 20
216.791
 11
-0.250656
 21
216.81
  0
LINE
  8
0
 10
-0.250656
 20
216.81
 11
-0.12558
 21
216.822
  0
LINE
  8
0
 10
-0.12558
 20
216.822
 11
0
 21
216.826
  0
LINE
  8
0
 10
0
 20
216.826
 11
0.12558
 21
216.822
  0
LINE
  8
0
 10
0.12558
 20
216.822
 11
0.250656
 21
216.81
  0
LINE
  8
0
 10
0.250656
 20
216.81
 11
0.374756
 21
216.791
  0
LINE
  8
0
 10
0.374756
 20
216.791
 11
0.497375
 21
216.763
  0
LINE
  8
0
 10
0.497375
 20
216.763
 11
0.618027
 21
216.728
  0
LINE
  8
0
 10
0.618027
 20
216.728
 11
0.736237
 21
216.686
  0
LINE
  8
0
 10
0.736237
 20
216.686
 11
0.851547
 21
216.636
  0
LINE
  8
0
 10
0.851547
 20
216.636
 11
0.963501
 21
216.579
  0
LINE
  8
0
 10
0.963501
 20
216.579
 11
1.07164
 21
216.515
  0
LINE
  8
0
 10
1.07164
 20
216.515
 11
1.17557
 21
216.444
  0
LINE
  8
0
 10
1.17557
 20
216.444
 11
1.27484
 21
216.367
  0
LINE
  8
0
 10
1.27484
 20
216.367
 11
1.36908
 21
216.284
  0
LINE
  8
0
 10
1.36908
 20
216.284
 11
1.45793
 21
216.195
  0
LINE
  8
0
 10
1.45793
 20
216.195
 11
1.54102
 21
216.101
  0
LINE
  8
0
 10
1.54102
 20
216.101
 11
1.61803
 21
216.002
  0
LINE
  8
0
 10
1.61803
 20
216.002
 11
1.68864
 21
215.898
  0
LINE
  8
0
 10
1.68864
 20
215.898
 11
1.75261
 21
215.79
  0
LINE
  8
0
 10
1.75261
 20
215.79
 11
1.80965
 21
215.678
  0
LINE
  8
0
 10
1.80965
 20
215.678
 11
1.85954
 21
215.562
  0
LINE
  8
0
 10
1.85954
 20
215.562
 11
1.9021
 21
215.444
  0
LINE
  8
0
 10
1.9021
 20
215.444
 11
1.93716
 21
215.324
  0
LINE
  8
0
 10
1.93716
 20
215.324
 11
1.96457
 21
215.201
  0
LINE
  8
0
 10
1.96457
 20
215.201
 11
1.98422
 21
215.077
  0
LINE
  8
0
 10
1.98422
 20
215.077
 11
1.99605
 21
214.952
  0
LINE
  8
0
 10
1.99605
 20
214.952
 11
2
 21
214.826
  0
LINE
  8
0
 10
2
 20
214.826
 11
1.99605
 21
214.701
  0
LINE
  8
0
 10
1.99605
 20
214.701
 11
1.98422
 21
214.576
  0
LINE
  8
0
 10
1.98422
 20
214.576
 11
1.96457
 21
214.451
  0
LINE
  8
0
 10
1.96457
 20
214.451
 11
1.93716
 21
214.329
  0
LINE
  8
0
 10
1.93716
 20
214.329
 11
1.9021
 21
214.208
  0
LINE
  8
0
 10
1.9021
 20
214.208
 11
1.85954
 21
214.09
  0
LINE
  8
0
 10
1.85954
 20
214.09
 11
1.80965
 21
213.975
  0
LINE
  8
0
 10
1.80965
 20
213.975
 11
1.75261
 21
213.863
  0
LINE
  8
0
 10
1.75261
 20
213.863
 11
1.68864
 21
213.755
  0
LINE
  8
0
 10
1.68864
 20
213.755
 11
1.61803
 21
213.651
  0
LINE
  8
0
 10
1.61803
 20
213.651
 11
1.54102
 21
213.551
  0
LINE
  8
0
 10
1.54102
 20
213.551
 11
1.45793
 21
213.457
  0
LINE
  8
0
 10
1.45793
 20
213.457
 11
1.36908
 21
213.368
  0
LINE
  8
0
 10
1.36908
 20
213.368
 11
1.27484
 21
213.285
  0
LINE
  8
0
 10
1.27484
 20
213.285
 11
1.17557
 21
213.208
  0
LINE
  8
0
 10
1.17557
 20
213.208
 11
1.07164
 21
213.138
  0
LINE
  8
0
 10
1.07164
 20
213.138
 11
0.963501
 21
213.074
  0
LINE
  8
0
 10
0.963501
 20
213.074
 11
0.851547
 21
213.017
  0
LINE
  8
0
 10
0.851547
 20
213.017
 11
0.736237
 21
212.967
  0
LINE
  8
0
 10
0.736237
 20
212.967
 11
0.618027
 21
212.924
  0
LINE
  8
0
 10
0.618027
 20
212.924
 11
0.497375
 21
212.889
  0
LINE
  8
0
 10
0.497375
 20
212.889
 11
0.374756
 21
212.862
  0
LINE
  8
0
 10
0.374756
 20
212.862
 11
0.250656
 21
212.842
  0
LINE
  8
0
 10
0.250656
 20
212.842
 11
0.12558
 21
212.83
  0
LINE
  8
0
 10
0.12558
 20
212.83
 11
0
 21
212.826
  0
LINE
  8
0
 10
0
 20
212.826
 11
-0.12558
 21
212.83
  0
LINE
  8
0
 10
-1.3559
 20
182.77
 11
0.790558
 21
189.209
  0
LINE
  8
0
 10
0.790558
 20
189.209
 11
0.893433
 21
189.244
  0
LINE
  8
0
 10
0.893433
 20
189.244
 11
2.77153
 21
183.464
  0
LINE
  8
0
 10
2.77153
 20
183.464
 11
2.22992
 21
183.644
  0
LINE
  8
0
 10
2.22992
 20
183.644
 11
0
 21
181.414
  0
LINE
  8
0
 10
0
 20
181.414
 11
-1.3559
 21
182.77
  0
LINE
  8
0
 10
-4.1843
 20
179.116
 11
-3.28806
 21
181.874
  0
LINE
  8
0
 10
-3.28806
 20
181.874
 11
-1.41418
 21
180
  0
LINE
  8
0
 10
-1.41418
 20
180
 11
-2.77008
 21
178.644
  0
LINE
  8
0
 10
-2.77008
 20
178.644
 11
-4.1843
 21
179.116
  0
LINE
  8
0
 10
3.6441
 20
177.77
 11
1.41418
 21
180
  0
LINE
  8
0
 10
1.41418
 20
180
 11
2.77008
 21
181.356
  0
LINE
  8
0
 10
2.77008
 20
181.356
 11
3.5397
 21
181.099
  0
LINE
  8
0
 10
3.5397
 20
181.099
 11
6.13875
 21
173.1
  0
LINE
  8
0
 10
6.13875
 20
173.1
 11
1.58112
 21
171.581
  0
LINE
  8
0
 10
1.58112
 20
171.581
 11
3.6441
 21
177.77
  0
LINE
  8
0
 10
-7.49918
 20
168.913
 11
-6.45317
 21
172.133
  0
LINE
  8
0
 10
-6.45317
 20
172.133
 11
-6.3559
 21
172.23
  0
LINE
  8
0
 10
-6.3559
 20
172.23
 11
-6.38914
 21
172.33
  0
LINE
  8
0
 10
-6.38914
 20
172.33
 11
-4.80234
 21
177.213
  0
LINE
  8
0
 10
-4.80234
 20
177.213
 11
-2.22992
 21
176.356
  0
LINE
  8
0
 10
-2.22992
 20
176.356
 11
0
 21
178.586
  0
LINE
  8
0
 10
0
 20
178.586
 11
1.3559
 21
177.23
  0
LINE
  8
0
 10
1.3559
 20
177.23
 11
-0.790558
 21
170.791
  0
LINE
  8
0
 10
-0.790558
 20
170.791
 11
-7.22992
 21
168.644
  0
LINE
  8
0
 10
-7.22992
 20
168.644
 11
-7.49918
 21
168.913
  0
LINE
  8
0
 10
-1.3559
 20
162.77
 11
0.790558
 21
169.209
  0
LINE
  8
0
 10
0.790558
 20
169.209
 11
6.75679
 21
171.198
  0
LINE
  8
0
 10
6.75679
 20
171.198
 11
7.49918
 21
168.913
  0
LINE
  8
0
 10
7.49918
 20
168.913
 11
6.3559
 21
167.77
  0
LINE
  8
0
 10
6.3559
 20
167.77
 11
8.41888
 21
161.581
  0
LINE
  8
0
 10
8.41888
 20
161.581
 11
2.22992
 21
163.644
  0
LINE
  8
0
 10
2.22992
 20
163.644
 11
0
 21
161.414
  0
LINE
  8
0
 10
0
 20
161.414
 11
-1.3559
 21
162.77
  0
LINE
  8
0
 10
-9.20944
 20
160.791
 11
-9.67987
 21
162.202
  0
LINE
  8
0
 10
-9.67987
 20
162.202
 11
-8.19279
 21
166.779
  0
LINE
  8
0
 10
-8.19279
 20
166.779
 11
-7.77008
 21
166.356
  0
LINE
  8
0
 10
-7.77008
 20
166.356
 11
-1.58112
 21
168.419
  0
LINE
  8
0
 10
-1.58112
 20
168.419
 11
-3.6441
 21
162.23
  0
LINE
  8
0
 10
-3.6441
 20
162.23
 11
-1.41418
 21
160
  0
LINE
  8
0
 10
-1.41418
 20
160
 11
-2.77008
 21
158.644
  0
LINE
  8
0
 10
-2.77008
 20
158.644
 11
-9.20944
 21
160.791
  0
LINE
  8
0
 10
7.77008
 20
153.644
 11
1.58112
 21
151.581
  0
LINE
  8
0
 10
1.58112
 20
151.581
 11
3.6441
 21
157.77
  0
LINE
  8
0
 10
3.6441
 20
157.77
 11
1.41418
 21
160
  0
LINE
  8
0
 10
1.41418
 20
160
 11
2.77008
 21
161.356
  0
LINE
  8
0
 10
2.77008
 20
161.356
 11
9.20944
 21
159.209
  0
LINE
  8
0
 10
9.20944
 20
159.209
 11
11.3559
 21
152.77
  0
LINE
  8
0
 10
11.3559
 20
152.77
 11
10
 21
151.414
  0
LINE
  8
0
 10
10
 20
151.414
 11
7.77008
 21
153.644
  0
LINE
  8
0
 10
-12.2299
 20
153.644
 11
-12.4885
 21
153.558
  0
LINE
  8
0
 10
-12.4885
 20
153.558
 11
-10.7205
 21
158.999
  0
LINE
  8
0
 10
-10.7205
 20
158.999
 11
-8.6441
 21
152.77
  0
LINE
  8
0
 10
-8.6441
 20
152.77
 11
-10
 21
151.414
  0
LINE
  8
0
 10
-10
 20
151.414
 11
-12.2299
 21
153.644
  0
LINE
  8
0
 10
-8.58582
 20
150
 11
-6.3559
 21
152.23
  0
LINE
  8
0
 10
-6.3559
 20
152.23
 11
-8.41888
 21
158.419
  0
LINE
  8
0
 10
-8.41888
 20
158.419
 11
-2.22992
 21
156.356
  0
LINE
  8
0
 10
-2.22992
 20
156.356
 11
0
 21
158.586
  0
LINE
  8
0
 10
0
 20
158.586
 11
1.3559
 21
157.23
  0
LINE
  8
0
 10
1.3559
 20
157.23
 11
-0.790558
 21
150.791
  0
LINE
  8
0
 10
-0.790558
 20
150.791
 11
-7.22992
 21
148.644
  0
LINE
  8
0
 10
-7.22992
 20
148.644
 11
-8.58582
 21
150
  0
LINE
  8
0
 10
11.4142
 20
150
 11
13.0975
 21
151.683
  0
LINE
  8
0
 10
13.0975
 20
151.683
 11
13.9566
 21
149.04
  0
LINE
  8
0
 10
13.9566
 20
149.04
 11
12.7701
 21
148.644
  0
LINE
  8
0
 10
12.7701
 20
148.644
 11
11.4142
 21
150
  0
LINE
  8
0
 10
-1.3559
 20
142.77
 11
0.790558
 21
149.209
  0
LINE
  8
0
 10
0.790558
 20
149.209
 11
7.22992
 21
151.356
  0
LINE
  8
0
 10
7.22992
 20
151.356
 11
8.58582
 21
150
  0
LINE
  8
0
 10
8.58582
 20
150
 11
6.3559
 21
147.77
  0
LINE
  8
0
 10
6.3559
 20
147.77
 11
8.41888
 21
141.581
  0
LINE
  8
0
 10
8.41888
 20
141.581
 11
2.22992
 21
143.644
  0
LINE
  8
0
 10
2.22992
 20
143.644
 11
0
 21
141.414
  0
LINE
  8
0
 10
0
 20
141.414
 11
-1.3559
 21
142.77
  0
LINE
  8
0
 10
-15.911
 20
143.024
 11
-13.2566
 21
151.194
  0
LINE
  8
0
 10
-13.2566
 20
151.194
 11
-12.7701
 21
151.356
  0
LINE
  8
0
 10
-12.7701
 20
151.356
 11
-11.4142
 21
150
  0
LINE
  8
0
 10
-11.4142
 20
150
 11
-13.6441
 21
147.77
  0
LINE
  8
0
 10
-13.6441
 20
147.77
 11
-11.5811
 21
141.581
  0
LINE
  8
0
 10
-11.5811
 20
141.581
 11
-15.911
 21
143.024
  0
LINE
  8
0
 10
-9.20944
 20
140.791
 11
-11.3559
 21
147.23
  0
LINE
  8
0
 10
-11.3559
 20
147.23
 11
-10
 21
148.586
  0
LINE
  8
0
 10
-10
 20
148.586
 11
-7.77008
 21
146.356
  0
LINE
  8
0
 10
-7.77008
 20
146.356
 11
-1.58112
 21
148.419
  0
LINE
  8
0
 10
-1.58112
 20
148.419
 11
-3.6441
 21
142.23
  0
LINE
  8
0
 10
-3.6441
 20
142.23
 11
-1.41418
 21
140
  0
LINE
  8
0
 10
-1.41418
 20
140
 11
-2.77008
 21
138.644
  0
LINE
  8
0
 10
-2.77008
 20
138.644
 11
-9.20944
 21
140.791
  0
LINE
  8
0
 10
10.7906
 20
140.791
 11
8.6441
 21
147.23
  0
LINE
  8
0
 10
8.6441
 20
147.23
 11
10
 21
148.586
  0
LINE
  8
0
 10
10
 20
148.586
 11
12.2299
 21
146.356
  0
LINE
  8
0
 10
12.2299
 20
146.356
 11
14.5746
 21
147.137
  0
LINE
  8
0
 10
14.5746
 20
147.137
 11
17.3087
 21
138.723
  0
LINE
  8
0
 10
17.3087
 20
138.723
 11
17.2299
 21
138.644
  0
LINE
  8
0
 10
17.2299
 20
138.644
 11
10.7906
 21
140.791
  0
LINE
  8
0
 10
7.77008
 20
133.644
 11
1.58112
 21
131.581
  0
LINE
  8
0
 10
1.58112
 20
131.581
 11
3.6441
 21
137.77
  0
LINE
  8
0
 10
3.6441
 20
137.77
 11
1.41418
 21
140
  0
LINE
  8
0
 10
1.41418
 20
140
 11
2.77008
 21
141.356
  0
LINE
  8
0
 10
2.77008
 20
141.356
 11
9.20944
 21
139.209
  0
LINE
  8
0
 10
9.20944
 20
139.209
 11
11.3559
 21
132.77
  0
LINE
  8
0
 10
11.3559
 20
132.77
 11
10
 21
131.414
  0
LINE
  8
0
 10
10
 20
131.414
 11
7.77008
 21
133.644
  0
LINE
  8
0
 10
-12.2299
 20
133.644
 11
-18.4189
 21
131.581
  0
LINE
  8
0
 10
-18.4189
 20
131.581
 11
-16.3559
 21
137.77
  0
LINE
  8
0
 10
-16.3559
 20
137.77
 11
-17.3087
 21
138.723
  0
LINE
  8
0
 10
-17.3087
 20
138.723
 11
-16.5291
 21
141.122
  0
LINE
  8
0
 10
-16.5291
 20
141.122
 11
-10.7906
 21
139.209
  0
LINE
  8
0
 10
-10.7906
 20
139.209
 11
-8.6441
 21
132.77
  0
LINE
  8
0
 10
-8.6441
 20
132.77
 11
-10
 21
131.414
  0
LINE
  8
0
 10
-10
 20
131.414
 11
-12.2299
 21
133.644
  0
LINE
  8
0
 10
-8.58582
 20
130
 11
-6.3559
 21
132.23
  0
LINE
  8
0
 10
-6.3559
 20
132.23
 11
-8.41888
 21
138.419
  0
LINE
  8
0
 10
-8.41888
 20
138.419
 11
-2.22992
 21
136.356
  0
LINE
  8
0
 10
-2.22992
 20
136.356
 11
0
 21
138.586
  0
LINE
  8
0
 10
0
 20
138.586
 11
1.3559
 21
137.23
  0
LINE
  8
0
 10
1.3559
 20
137.23
 11
-0.790558
 21
130.791
  0
LINE
  8
0
 10
-0.790558
 20
130.791
 11
-7.22992
 21
128.644
  0
LINE
  8
0
 10
-7.22992
 20
128.644
 11
-8.58582
 21
130
  0
LINE
  8
0
 10
11.4142
 20
130
 11
13.6441
 21
132.23
  0
LINE
  8
0
 10
13.6441
 20
132.23
 11
11.5811
 21
138.419
  0
LINE
  8
0
 10
11.5811
 20
138.419
 11
17.7701
 21
136.356
  0
LINE
  8
0
 10
17.7701
 20
136.356
 11
18.0023
 21
136.588
  0
LINE
  8
0
 10
18.0023
 20
136.588
 11
19.5521
 21
131.818
  0
LINE
  8
0
 10
19.5521
 20
131.818
 11
19.2094
 21
130.791
  0
LINE
  8
0
 10
19.2094
 20
130.791
 11
12.7701
 21
128.644
  0
LINE
  8
0
 10
12.7701
 20
128.644
 11
11.4142
 21
130
  0
LINE
  8
0
 10
-1.3559
 20
122.77
 11
0.790558
 21
129.209
  0
LINE
  8
0
 10
0.790558
 20
129.209
 11
7.22992
 21
131.356
  0
LINE
  8
0
 10
7.22992
 20
131.356
 11
8.58582
 21
130
  0
LINE
  8
0
 10
8.58582
 20
130
 11
6.3559
 21
127.77
  0
LINE
  8
0
 10
6.3559
 20
127.77
 11
8.41888
 21
121.581
  0
LINE
  8
0
 10
8.41888
 20
121.581
 11
2.22992
 21
123.644
  0
LINE
  8
0
 10
2.22992
 20
123.644
 11
0
 21
121.414
  0
LINE
  8
0
 10
0
 20
121.414
 11
-1.3559
 21
122.77
  0
LINE
  8
0
 10
-21.3559
 20
122.77
 11
-19.2094
 21
129.209
  0
LINE
  8
0
 10
-19.2094
 20
129.209
 11
-12.7701
 21
131.356
  0
LINE
  8
0
 10
-12.7701
 20
131.356
 11
-11.4142
 21
130
  0
LINE
  8
0
 10
-11.4142
 20
130
 11
-13.6441
 21
127.77
  0
LINE
  8
0
 10
-13.6441
 20
127.77
 11
-11.5811
 21
121.581
  0
LINE
  8
0
 10
-11.5811
 20
121.581
 11
-17.7701
 21
123.644
  0
LINE
  8
0
 10
-17.7701
 20
123.644
 11
-20
 21
121.414
  0
LINE
  8
0
 10
-20
 20
121.414
 11
-21.3559
 21
122.77
  0
LINE
  8
0
 10
18.6441
 20
122.77
 11
20.5927
 21
128.616
  0
LINE
  8
0
 10
20.5927
 20
128.616
 11
22.2134
 21
123.628
  0
LINE
  8
0
 10
22.2134
 20
123.628
 11
20
 21
121.414
  0
LINE
  8
0
 10
20
 20
121.414
 11
18.6441
 21
122.77
  0
LINE
  8
0
 10
10.7906
 20
120.791
 11
8.6441
 21
127.23
  0
LINE
  8
0
 10
8.6441
 20
127.23
 11
10
 21
128.586
  0
LINE
  8
0
 10
10
 20
128.586
 11
12.2299
 21
126.356
  0
LINE
  8
0
 10
12.2299
 20
126.356
 11
18.4189
 21
128.419
  0
LINE
  8
0
 10
18.4189
 20
128.419
 11
16.3559
 21
122.23
  0
LINE
  8
0
 10
16.3559
 20
122.23
 11
18.5858
 21
120
  0
LINE
  8
0
 10
18.5858
 20
120
 11
17.2299
 21
118.644
  0
LINE
  8
0
 10
17.2299
 20
118.644
 11
10.7906
 21
120.791
  0
LINE
  8
0
 10
-9.20944
 20
120.791
 11
-11.3559
 21
127.23
  0
LINE
  8
0
 10
-11.3559
 20
127.23
 11
-10
 21
128.586
  0
LINE
  8
0
 10
-10
 20
128.586
 11
-7.77008
 21
126.356
  0
LINE
  8
0
 10
-7.77008
 20
126.356
 11
-1.58112
 21
128.419
  0
LINE
  8
0
 10
-1.58112
 20
128.419
 11
-3.6441
 21
122.23
  0
LINE
  8
0
 10
-3.6441
 20
122.23
 11
-1.41418
 21
120
  0
LINE
  8
0
 10
-1.41418
 20
120
 11
-2.77008
 21
118.644
  0
LINE
  8
0
 10
-2.77008
 20
118.644
 11
-9.20944
 21
120.791
  0
LINE
  8
0
 10
-23.7288
 20
118.964
 11
-22.907
 21
121.493
  0
LINE
  8
0
 10
-22.907
 20
121.493
 11
-21.4142
 21
120
  0
LINE
  8
0
 10
-21.4142
 20
120
 11
-22.7701
 21
118.644
  0
LINE
  8
0
 10
-22.7701
 20
118.644
 11
-23.7288
 21
118.964
  0
LINE
  8
0
 10
-12.2299
 20
113.644
 11
-18.4189
 21
111.581
  0
LINE
  8
0
 10
-18.4189
 20
111.581
 11
-16.3559
 21
117.77
  0
LINE
  8
0
 10
-16.3559
 20
117.77
 11
-18.5858
 21
120
  0
LINE
  8
0
 10
-18.5858
 20
120
 11
-17.2299
 21
121.356
  0
LINE
  8
0
 10
-17.2299
 20
121.356
 11
-10.7906
 21
119.209
  0
LINE
  8
0
 10
-10.7906
 20
119.209
 11
-8.6441
 21
112.77
  0
LINE
  8
0
 10
-8.6441
 20
112.77
 11
-10
 21
111.414
  0
LINE
  8
0
 10
-10
 20
111.414
 11
-12.2299
 21
113.644
  0
LINE
  8
0
 10
7.77008
 20
113.644
 11
1.58112
 21
111.581
  0
LINE
  8
0
 10
1.58112
 20
111.581
 11
3.6441
 21
117.77
  0
LINE
  8
0
 10
3.6441
 20
117.77
 11
1.41418
 21
120
  0
LINE
  8
0
 10
1.41418
 20
120
 11
2.77008
 21
121.356
  0
LINE
  8
0
 10
2.77008
 20
121.356
 11
9.20944
 21
119.209
  0
LINE
  8
0
 10
9.20944
 20
119.209
 11
11.3559
 21
112.77
  0
LINE
  8
0
 10
11.3559
 20
112.77
 11
10
 21
111.414
  0
LINE
  8
0
 10
10
 20
111.414
 11
7.77008
 21
113.644
  0
LINE
  8
0
 10
23.6441
 20
117.77
 11
21.4142
 21
120
  0
LINE
  8
0
 10
21.4142
 20
120
 11
22.7701
 21
121.356
  0
LINE
  8
0
 10
22.7701
 20
121.356
 11
22.9736
 21
121.288
  0
LINE
  8
0
 10
22.9736
 20
121.288
 11
25.6833
 21
112.949
  0
LINE
  8
0
 10
25.6833
 20
112.949
 11
21.5811
 21
111.581
  0
LINE
  8
0
 10
21.5811
 20
111.581
 11
23.6441
 21
117.77
  0
LINE
  8
0
 10
11.4142
 20
110
 11
13.6441
 21
112.23
  0
LINE
  8
0
 10
13.6441
 20
112.23
 11
11.5811
 21
118.419
  0
LINE
  8
0
 10
11.5811
 20
118.419
 11
17.7701
 21
116.356
  0
LINE
  8
0
 10
17.7701
 20
116.356
 11
20
 21
118.586
  0
LINE
  8
0
 10
20
 20
118.586
 11
21.3559
 21
117.23
  0
LINE
  8
0
 10
21.3559
 20
117.23
 11
19.2094
 21
110.791
  0
LINE
  8
0
 10
19.2094
 20
110.791
 11
12.7701
 21
108.644
  0
LINE
  8
0
 10
12.7701
 20
108.644
 11
11.4142
 21
110
  0
LINE
  8
0
 10
-8.58582
 20
110
 11
-6.3559
 21
112.23
  0
LINE
  8
0
 10
-6.3559
 20
112.23
 11
-8.41888
 21
118.419
  0
LINE
  8
0
 10
-8.41888
 20
118.419
 11
-2.22992
 21
116.356
  0
LINE
  8
0
 10
-2.22992
 20
116.356
 11
0
 21
118.586
  0
LINE
  8
0
 10
0
 20
118.586
 11
1.3559
 21
117.23
  0
LINE
  8
0
 10
1.3559
 20
117.23
 11
-0.790558
 21
110.791
  0
LINE
  8
0
 10
-0.790558
 20
110.791
 11
-7.22992
 21
108.644
  0
LINE
  8
0
 10
-7.22992
 20
108.644
 11
-8.58582
 21
110
  0
LINE
  8
0
 10
-24.3468
 20
117.062
 11
-22.2299
 21
116.356
  0
LINE
  8
0
 10
-22.2299
 20
116.356
 11
-20
 21
118.586
  0
LINE
  8
0
 10
-20
 20
118.586
 11
-18.6441
 21
117.23
  0
LINE
  8
0
 10
-18.6441
 20
117.23
 11
-20.7906
 21
110.791
  0
LINE
  8
0
 10
-20.7906
 20
110.791
 11
-27.0639
 21
108.699
  0
LINE
  8
0
 10
-27.0639
 20
108.699
 11
-24.3468
 21
117.062
  0
LINE
  8
0
 10
-1.3559
 20
102.77
 11
0.790558
 21
109.209
  0
LINE
  8
0
 10
0.790558
 20
109.209
 11
7.22992
 21
111.356
  0
LINE
  8
0
 10
7.22992
 20
111.356
 11
8.58582
 21
110
  0
LINE
  8
0
 10
8.58582
 20
110
 11
6.3559
 21
107.77
  0
LINE
  8
0
 10
6.3559
 20
107.77
 11
8.41888
 21
101.581
  0
LINE
  8
0
 10
8.41888
 20
101.581
 11
2.22992
 21
103.644
  0
LINE
  8
0
 10
2.22992
 20
103.644
 11
0
 21
101.414
  0
LINE
  8
0
 10
0
 20
101.414
 11
-1.3559
 21
102.77
  0
LINE
  8
0
 10
-21.3559
 20
102.77
 11
-19.2094
 21
109.209
  0
LINE
  8
0
 10
-19.2094
 20
109.209
 11
-12.7701
 21
111.356
  0
LINE
  8
0
 10
-12.7701
 20
111.356
 11
-11.4142
 21
110
  0
LINE
  8
0
 10
-11.4142
 20
110
 11
-13.6441
 21
107.77
  0
LINE
  8
0
 10
-13.6441
 20
107.77
 11
-11.5811
 21
101.581
  0
LINE
  8
0
 10
-11.5811
 20
101.581
 11
-17.7701
 21
103.644
  0
LINE
  8
0
 10
-17.7701
 20
103.644
 11
-20
 21
101.414
  0
LINE
  8
0
 10
-20
 20
101.414
 11
-21.3559
 21
102.77
  0
LINE
  8
0
 10
18.6441
 20
102.77
 11
20.7906
 21
109.209
  0
LINE
  8
0
 10
20.7906
 20
109.209
 11
26.3013
 21
111.046
  0
LINE
  8
0
 10
26.3013
 20
111.046
 11
27.1182
 21
108.532
  0
LINE
  8
0
 10
27.1182
 20
108.532
 11
26.3559
 21
107.77
  0
LINE
  8
0
 10
26.3559
 20
107.77
 11
28.4189
 21
101.581
  0
LINE
  8
0
 10
28.4189
 20
101.581
 11
22.2299
 21
103.644
  0
LINE
  8
0
 10
22.2299
 20
103.644
 11
20
 21
101.414
  0
LINE
  8
0
 10
20
 20
101.414
 11
18.6441
 21
102.77
  0
LINE
  8
0
 10
10.7906
 20
100.791
 11
8.6441
 21
107.23
  0
LINE
  8
0
 10
8.6441
 20
107.23
 11
10
 21
108.586
  0
LINE
  8
0
 10
10
 20
108.586
 11
12.2299
 21
106.356
  0
LINE
  8
0
 10
12.2299
 20
106.356
 11
18.4189
 21
108.419
  0
LINE
  8
0
 10
18.4189
 20
108.419
 11
16.3559
 21
102.23
  0
LINE
  8
0
 10
16.3559
 20
102.23
 11
18.5858
 21
100
  0
LINE
  8
0
 10
18.5858
 20
100
 11
17.2299
 21
98.6441
  0
LINE
  8
0
 10
17.2299
 20
98.6441
 11
10.7906
 21
100.791
  0
LINE
  8
0
 10
-9.20944
 20
100.791
 11
-11.3559
 21
107.23
  0
LINE
  8
0
 10
-11.3559
 20
107.23
 11
-10
 21
108.586
  0
LINE
  8
0
 10
-10
 20
108.586
 11
-7.77008
 21
106.356
  0
LINE
  8
0
 10
-7.77008
 20
106.356
 11
-1.58112
 21
108.419
  0
LINE
  8
0
 10
-1.58112
 20
108.419
 11
-3.6441
 21
102.23
  0
LINE
  8
0
 10
-3.6441
 20
102.23
 11
-1.41418
 21
100
  0
LINE
  8
0
 10
-1.41418
 20
100
 11
-2.77008
 21
98.6441
  0
LINE
  8
0
 10
-2.77008
 20
98.6441
 11
-9.20944
 21
100.791
  0
LINE
  8
0
 10
-29.2094
 20
100.791
 11
-29.4242
 21
101.435
  0
LINE
  8
0
 10
-29.4242
 20
101.435
 11
-27.8118
 21
106.398
  0
LINE
  8
0
 10
-27.8118
 20
106.398
 11
-27.7701
 21
106.356
  0
LINE
  8
0
 10
-27.7701
 20
106.356
 11
-21.5811
 21
108.419
  0
LINE
  8
0
 10
-21.5811
 20
108.419
 11
-23.6441
 21
102.23
  0
LINE
  8
0
 10
-23.6441
 20
102.23
 11
-21.4142
 21
100
  0
LINE
  8
0
 10
-21.4142
 20
100
 11
-22.7701
 21
98.6441
  0
LINE
  8
0
 10
-22.7701
 20
98.6441
 11
-29.2094
 21
100.791
  0
LINE
  8
0
 10
27.7701
 20
93.6441
 11
21.5811
 21
91.5811
  0
LINE
  8
0
 10
21.5811
 20
91.5811
 11
23.6441
 21
97.7701
  0
LINE
  8
0
 10
23.6441
 20
97.7701
 11
21.4142
 21
100
  0
LINE
  8
0
 10
21.4142
 20
100
 11
22.7701
 21
101.356
  0
LINE
  8
0
 10
22.7701
 20
101.356
 11
29.2094
 21
99.2094
  0
LINE
  8
0
 10
29.2094
 20
99.2094
 11
31.3559
 21
92.7701
  0
LINE
  8
0
 10
31.3559
 20
92.7701
 11
30
 21
91.4142
  0
LINE
  8
0
 10
30
 20
91.4142
 11
27.7701
 21
93.6441
  0
LINE
  8
0
 10
-12.2299
 20
93.6441
 11
-18.4189
 21
91.5811
  0
LINE
  8
0
 10
-18.4189
 20
91.5811
 11
-16.3559
 21
97.7701
  0
LINE
  8
0
 10
-16.3559
 20
97.7701
 11
-18.5858
 21
100
  0
LINE
  8
0
 10
-18.5858
 20
100
 11
-17.2299
 21
101.356
  0
LINE
  8
0
 10
-17.2299
 20
101.356
 11
-10.7906
 21
99.2094
  0
LINE
  8
0
 10
-10.7906
 20
99.2094
 11
-8.6441
 21
92.7701
  0
LINE
  8
0
 10
-8.6441
 20
92.7701
 11
-10
 21
91.4142
  0
LINE
  8
0
 10
-10
 20
91.4142
 11
-12.2299
 21
93.6441
  0
LINE
  8
0
 10
7.77008
 20
93.6441
 11
1.58112
 21
91.5811
  0
LINE
  8
0
 10
1.58112
 20
91.5811
 11
3.6441
 21
97.7701
  0
LINE
  8
0
 10
3.6441
 20
97.7701
 11
1.41418
 21
100
  0
LINE
  8
0
 10
1.41418
 20
100
 11
2.77008
 21
101.356
  0
LINE
  8
0
 10
2.77008
 20
101.356
 11
9.20944
 21
99.2094
  0
LINE
  8
0
 10
9.20944
 20
99.2094
 11
11.3559
 21
92.7701
  0
LINE
  8
0
 10
11.3559
 20
92.7701
 11
10
 21
91.4142
  0
LINE
  8
0
 10
10
 20
91.4142
 11
7.77008
 21
93.6441
  0
LINE
  8
0
 10
11.4142
 20
90
 11
13.6441
 21
92.2299
  0
LINE
  8
0
 10
13.6441
 20
92.2299
 11
11.5811
 21
98.4189
  0
LINE
  8
0
 10
11.5811
 20
98.4189
 11
17.7701
 21
96.3559
  0
LINE
  8
0
 10
17.7701
 20
96.3559
 11
20
 21
98.5858
  0
LINE
  8
0
 10
20
 20
98.5858
 11
21.3559
 21
97.2299
  0
LINE
  8
0
 10
21.3559
 20
97.2299
 11
19.2094
 21
90.7906
  0
LINE
  8
0
 10
19.2094
 20
90.7906
 11
12.7701
 21
88.6441
  0
LINE
  8
0
 10
12.7701
 20
88.6441
 11
11.4142
 21
90
  0
LINE
  8
0
 10
-8.58582
 20
90
 11
-6.3559
 21
92.2299
  0
LINE
  8
0
 10
-6.3559
 20
92.2299
 11
-8.41888
 21
98.4189
  0
LINE
  8
0
 10
-8.41888
 20
98.4189
 11
-2.22992
 21
96.3559
  0
LINE
  8
0
 10
-2.22992
 20
96.3559
 11
0
 21
98.5858
  0
LINE
  8
0
 10
0
 20
98.5858
 11
1.3559
 21
97.2299
  0
LINE
  8
0
 10
1.3559
 20
97.2299
 11
-0.790558
 21
90.7906
  0
LINE
  8
0
 10
-0.790558
 20
90.7906
 11
-7.22992
 21
88.6441
  0
LINE
  8
0
 10
-7.22992
 20
88.6441
 11
-8.58582
 21
90
  0
LINE
  8
0
 10
-28.5858
 20
90
 11
-26.3559
 21
92.2299
  0
LINE
  8
0
 10
-26.3559
 20
92.2299
 11
-28.4189
 21
98.4189
  0
LINE
  8
0
 10
-28.4189
 20
98.4189
 11
-22.2299
 21
96.3559
  0
LINE
  8
0
 10
-22.2299
 20
96.3559
 11
-20
 21
98.5858
  0
LINE
  8
0
 10
-20
 20
98.5858
 11
-18.6441
 21
97.2299
  0
LINE
  8
0
 10
-18.6441
 20
97.2299
 11
-20.7906
 21
90.7906
  0
LINE
  8
0
 10
-20.7906
 20
90.7906
 11
-27.2299
 21
88.6441
  0
LINE
  8
0
 10
-27.2299
 20
88.6441
 11
-28.5858
 21
90
  0
LINE
  8
0
 10
-32.0229
 20
93.4371
 11
-30.4648
 21
98.2323
  0
LINE
  8
0
 10
-30.4648
 20
98.2323
 11
-28.6441
 21
92.7701
  0
LINE
  8
0
 10
-28.6441
 20
92.7701
 11
-30
 21
91.4142
  0
LINE
  8
0
 10
-30
 20
91.4142
 11
-32.0229
 21
93.4371
  0
LINE
  8
0
 10
-21.3559
 20
82.7701
 11
-19.2094
 21
89.2094
  0
LINE
  8
0
 10
-19.2094
 20
89.2094
 11
-12.7701
 21
91.3559
  0
LINE
  8
0
 10
-12.7701
 20
91.3559
 11
-11.4142
 21
90
  0
LINE
  8
0
 10
-11.4142
 20
90
 11
-13.6441
 21
87.7701
  0
LINE
  8
0
 10
-13.6441
 20
87.7701
 11
-11.5811
 21
81.5811
  0
LINE
  8
0
 10
-11.5811
 20
81.5811
 11
-17.7701
 21
83.6441
  0
LINE
  8
0
 10
-17.7701
 20
83.6441
 11
-20
 21
81.4142
  0
LINE
  8
0
 10
-20
 20
81.4142
 11
-21.3559
 21
82.7701
  0
LINE
  8
0
 10
-1.3559
 20
82.7701
 11
0.790558
 21
89.2094
  0
LINE
  8
0
 10
0.790558
 20
89.2094
 11
7.22992
 21
91.3559
  0
LINE
  8
0
 10
7.22992
 20
91.3559
 11
8.58582
 21
90
  0
LINE
  8
0
 10
8.58582
 20
90
 11
6.3559
 21
87.7701
  0
LINE
  8
0
 10
6.3559
 20
87.7701
 11
8.41888
 21
81.5811
  0
LINE
  8
0
 10
8.41888
 20
81.5811
 11
2.22992
 21
83.6441
  0
LINE
  8
0
 10
2.22992
 20
83.6441
 11
0
 21
81.4142
  0
LINE
  8
0
 10
0
 20
81.4142
 11
-1.3559
 21
82.7701
  0
LINE
  8
0
 10
18.6441
 20
82.7701
 11
20.7906
 21
89.2094
  0
LINE
  8
0
 10
20.7906
 20
89.2094
 11
27.2299
 21
91.3559
  0
LINE
  8
0
 10
27.2299
 20
91.3559
 11
28.5858
 21
90
  0
LINE
  8
0
 10
28.5858
 20
90
 11
26.3559
 21
87.7701
  0
LINE
  8
0
 10
26.3559
 20
87.7701
 11
28.4189
 21
81.5811
  0
LINE
  8
0
 10
28.4189
 20
81.5811
 11
22.2299
 21
83.6441
  0
LINE
  8
0
 10
22.2299
 20
83.6441
 11
20
 21
81.4142
  0
LINE
  8
0
 10
20
 20
81.4142
 11
18.6441
 21
82.7701
  0
LINE
  8
0
 10
31.4142
 20
90
 11
32.7165
 21
91.3023
  0
LINE
  8
0
 10
32.7165
 20
91.3023
 11
33.5011
 21
88.8878
  0
LINE
  8
0
 10
33.5011
 20
88.8878
 11
32.7701
 21
88.6441
  0
LINE
  8
0
 10
32.7701
 20
88.6441
 11
31.4142
 21
90
  0
LINE
  8
0
 10
-35.4555
 20
82.8726
 11
-32.7165
 21
91.3023
  0
LINE
  8
0
 10
-32.7165
 20
91.3023
 11
-31.4142
 21
90
  0
LINE
  8
0
 10
-31.4142
 20
90
 11
-33.6441
 21
87.7701
  0
LINE
  8
0
 10
-33.6441
 20
87.7701
 11
-31.5811
 21
81.5811
  0
LINE
  8
0
 10
-31.5811
 20
81.5811
 11
-35.4555
 21
82.8726
  0
LINE
  8
0
 10
-9.20944
 20
80.7906
 11
-11.3559
 21
87.2299
  0
LINE
  8
0
 10
-11.3559
 20
87.2299
 11
-10
 21
88.5858
  0
LINE
  8
0
 10
-10
 20
88.5858
 11
-7.77008
 21
86.3559
  0
LINE
  8
0
 10
-7.77008
 20
86.3559
 11
-1.58112
 21
88.4189
  0
LINE
  8
0
 10
-1.58112
 20
88.4189
 11
-3.6441
 21
82.2299
  0
LINE
  8
0
 10
-3.6441
 20
82.2299
 11
-1.41418
 21
80
  0
LINE
  8
0
 10
-1.41418
 20
80
 11
-2.77008
 21
78.6441
  0
LINE
  8
0
 10
-2.77008
 20
78.6441
 11
-9.20944
 21
80.7906
  0
LINE
  8
0
 10
-29.2094
 20
80.7906
 11
-31.3559
 21
87.2299
  0
LINE
  8
0
 10
-31.3559
 20
87.2299
 11
-30
 21
88.5858
  0
LINE
  8
0
 10
-30
 20
88.5858
 11
-27.7701
 21
86.3559
  0
LINE
  8
0
 10
-27.7701
 20
86.3559
 11
-21.5811
 21
88.4189
  0
LINE
  8
0
 10
-21.5811
 20
88.4189
 11
-23.6441
 21
82.2299
  0
LINE
  8
0
 10
-23.6441
 20
82.2299
 11
-21.4142
 21
80
  0
LINE
  8
0
 10
-21.4142
 20
80
 11
-22.7701
 21
78.6441
  0
LINE
  8
0
 10
-22.7701
 20
78.6441
 11
-29.2094
 21
80.7906
  0
LINE
  8
0
 10
10.7906
 20
80.7906
 11
8.6441
 21
87.2299
  0
LINE
  8
0
 10
8.6441
 20
87.2299
 11
10
 21
88.5858
  0
LINE
  8
0
 10
10
 20
88.5858
 11
12.2299
 21
86.3559
  0
LINE
  8
0
 10
12.2299
 20
86.3559
 11
18.4189
 21
88.4189
  0
LINE
  8
0
 10
18.4189
 20
88.4189
 11
16.3559
 21
82.2299
  0
LINE
  8
0
 10
16.3559
 20
82.2299
 11
18.5858
 21
80
  0
LINE
  8
0
 10
18.5858
 20
80
 11
17.2299
 21
78.6441
  0
LINE
  8
0
 10
17.2299
 20
78.6441
 11
10.7906
 21
80.7906
  0
LINE
  8
0
 10
30.7906
 20
80.7906
 11
28.6441
 21
87.2299
  0
LINE
  8
0
 10
28.6441
 20
87.2299
 11
30
 21
88.5858
  0
LINE
  8
0
 10
30
 20
88.5858
 11
32.2299
 21
86.3559
  0
LINE
  8
0
 10
32.2299
 20
86.3559
 11
34.1191
 21
86.9856
  0
LINE
  8
0
 10
34.1191
 20
86.9856
 11
36.7808
 21
78.7938
  0
LINE
  8
0
 10
36.7808
 20
78.7938
 11
30.7906
 21
80.7906
  0
LINE
  8
0
 10
27.7701
 20
73.6441
 11
21.5811
 21
71.5811
  0
LINE
  8
0
 10
21.5811
 20
71.5811
 11
23.6441
 21
77.7701
  0
LINE
  8
0
 10
23.6441
 20
77.7701
 11
21.4142
 21
80
  0
LINE
  8
0
 10
21.4142
 20
80
 11
22.7701
 21
81.3559
  0
LINE
  8
0
 10
22.7701
 20
81.3559
 11
29.2094
 21
79.2094
  0
LINE
  8
0
 10
29.2094
 20
79.2094
 11
31.3559
 21
72.7701
  0
LINE
  8
0
 10
31.3559
 20
72.7701
 11
30
 21
71.4142
  0
LINE
  8
0
 10
30
 20
71.4142
 11
27.7701
 21
73.6441
  0
LINE
  8
0
 10
7.77008
 20
73.6441
 11
1.58112
 21
71.5811
  0
LINE
  8
0
 10
1.58112
 20
71.5811
 11
3.6441
 21
77.7701
  0
LINE
  8
0
 10
3.6441
 20
77.7701
 11
1.41418
 21
80
  0
LINE
  8
0
 10
1.41418
 20
80
 11
2.77008
 21
81.3559
  0
LINE
  8
0
 10
2.77008
 20
81.3559
 11
9.20944
 21
79.2094
  0
LINE
  8
0
 10
9.20944
 20
79.2094
 11
11.3559
 21
72.7701
  0
LINE
  8
0
 10
11.3559
 20
72.7701
 11
10
 21
71.4142
  0
LINE
  8
0
 10
10
 20
71.4142
 11
7.77008
 21
73.6441
  0
LINE
  8
0
 10
-12.2299
 20
73.6441
 11
-18.4189
 21
71.5811
  0
LINE
  8
0
 10
-18.4189
 20
71.5811
 11
-16.3559
 21
77.7701
  0
LINE
  8
0
 10
-16.3559
 20
77.7701
 11
-18.5858
 21
80
  0
LINE
  8
0
 10
-18.5858
 20
80
 11
-17.2299
 21
81.3559
  0
LINE
  8
0
 10
-17.2299
 20
81.3559
 11
-10.7906
 21
79.2094
  0
LINE
  8
0
 10
-10.7906
 20
79.2094
 11
-8.6441
 21
72.7701
  0
LINE
  8
0
 10
-8.6441
 20
72.7701
 11
-10
 21
71.4142
  0
LINE
  8
0
 10
-10
 20
71.4142
 11
-12.2299
 21
73.6441
  0
LINE
  8
0
 10
-32.2299
 20
73.6441
 11
-38.4189
 21
71.5811
  0
LINE
  8
0
 10
-38.4189
 20
71.5811
 11
-36.3559
 21
77.7701
  0
LINE
  8
0
 10
-36.3559
 20
77.7701
 11
-36.9276
 21
78.3418
  0
LINE
  8
0
 10
-36.9276
 20
78.3418
 11
-36.0736
 21
80.9704
  0
LINE
  8
0
 10
-36.0736
 20
80.9704
 11
-30.7906
 21
79.2094
  0
LINE
  8
0
 10
-30.7906
 20
79.2094
 11
-28.6441
 21
72.7701
  0
LINE
  8
0
 10
-28.6441
 20
72.7701
 11
-30
 21
71.4142
  0
LINE
  8
0
 10
-30
 20
71.4142
 11
-32.2299
 21
73.6441
  0
LINE
  8
0
 10
11.4142
 20
70
 11
13.6441
 21
72.2299
  0
LINE
  8
0
 10
13.6441
 20
72.2299
 11
11.5811
 21
78.4189
  0
LINE
  8
0
 10
11.5811
 20
78.4189
 11
17.7701
 21
76.3559
  0
LINE
  8
0
 10
17.7701
 20
76.3559
 11
20
 21
78.5858
  0
LINE
  8
0
 10
20
 20
78.5858
 11
21.3559
 21
77.2299
  0
LINE
  8
0
 10
21.3559
 20
77.2299
 11
19.2094
 21
70.7906
  0
LINE
  8
0
 10
19.2094
 20
70.7906
 11
12.7701
 21
68.6441
  0
LINE
  8
0
 10
12.7701
 20
68.6441
 11
11.4142
 21
70
  0
LINE
  8
0
 10
-8.58582
 20
70
 11
-6.3559
 21
72.2299
  0
LINE
  8
0
 10
-6.3559
 20
72.2299
 11
-8.41888
 21
78.4189
  0
LINE
  8
0
 10
-8.41888
 20
78.4189
 11
-2.22992
 21
76.3559
  0
LINE
  8
0
 10
-2.22992
 20
76.3559
 11
0
 21
78.5858
  0
LINE
  8
0
 10
0
 20
78.5858
 11
1.3559
 21
77.2299
  0
LINE
  8
0
 10
1.3559
 20
77.2299
 11
-0.790558
 21
70.7906
  0
LINE
  8
0
 10
-0.790558
 20
70.7906
 11
-7.22992
 21
68.6441
  0
LINE
  8
0
 10
-7.22992
 20
68.6441
 11
-8.58582
 21
70
  0
LINE
  8
0
 10
-28.5858
 20
70
 11
-26.3559
 21
72.2299
  0
LINE
  8
0
 10
-26.3559
 20
72.2299
 11
-28.4189
 21
78.4189
  0
LINE
  8
0
 10
-28.4189
 20
78.4189
 11
-22.2299
 21
76.3559
  0
LINE
  8
0
 10
-22.2299
 20
76.3559
 11
-20
 21
78.5858
  0
LINE
  8
0
 10
-20
 20
78.5858
 11
-18.6441
 21
77.2299
  0
LINE
  8
0
 10
-18.6441
 20
77.2299
 11
-20.7906
 21
70.7906
  0
LINE
  8
0
 10
-20.7906
 20
70.7906
 11
-27.2299
 21
68.6441
  0
LINE
  8
0
 10
-27.2299
 20
68.6441
 11
-28.5858
 21
70
  0
LINE
  8
0
 10
31.4142
 20
70
 11
33.6441
 21
72.2299
  0
LINE
  8
0
 10
33.6441
 20
72.2299
 11
31.5811
 21
78.4189
  0
LINE
  8
0
 10
31.5811
 20
78.4189
 11
37.549
 21
76.4296
  0
LINE
  8
0
 10
37.549
 20
76.4296
 11
39.2964
 21
71.0515
  0
LINE
  8
0
 10
39.2964
 20
71.0515
 11
39.2094
 21
70.7906
  0
LINE
  8
0
 10
39.2094
 20
70.7906
 11
32.7701
 21
68.6441
  0
LINE
  8
0
 10
32.7701
 20
68.6441
 11
31.4142
 21
70
  0
LINE
  8
0
 10
-21.3559
 20
62.7701
 11
-19.2094
 21
69.2094
  0
LINE
  8
0
 10
-19.2094
 20
69.2094
 11
-12.7701
 21
71.3559
  0
LINE
  8
0
 10
-12.7701
 20
71.3559
 11
-11.4142
 21
70
  0
LINE
  8
0
 10
-11.4142
 20
70
 11
-13.6441
 21
67.7701
  0
LINE
  8
0
 10
-13.6441
 20
67.7701
 11
-11.5811
 21
61.5811
  0
LINE
  8
0
 10
-11.5811
 20
61.5811
 11
-17.7701
 21
63.6441
  0
LINE
  8
0
 10
-17.7701
 20
63.6441
 11
-20
 21
61.4142
  0
LINE
  8
0
 10
-20
 20
61.4142
 11
-21.3559
 21
62.7701
  0
LINE
  8
0
 10
-41.3559
 20
62.7701
 11
-39.2094
 21
69.2094
  0
LINE
  8
0
 10
-39.2094
 20
69.2094
 11
-32.7701
 21
71.3559
  0
LINE
  8
0
 10
-32.7701
 20
71.3559
 11
-31.4142
 21
70
  0
LINE
  8
0
 10
-31.4142
 20
70
 11
-33.6441
 21
67.7701
  0
LINE
  8
0
 10
-33.6441
 20
67.7701
 11
-31.5811
 21
61.5811
  0
LINE
  8
0
 10
-31.5811
 20
61.5811
 11
-37.7701
 21
63.6441
  0
LINE
  8
0
 10
-37.7701
 20
63.6441
 11
-40
 21
61.4142
  0
LINE
  8
0
 10
-40
 20
61.4142
 11
-41.3559
 21
62.7701
  0
LINE
  8
0
 10
-1.3559
 20
62.7701
 11
0.790558
 21
69.2094
  0
LINE
  8
0
 10
0.790558
 20
69.2094
 11
7.22992
 21
71.3559
  0
LINE
  8
0
 10
7.22992
 20
71.3559
 11
8.58582
 21
70
  0
LINE
  8
0
 10
8.58582
 20
70
 11
6.3559
 21
67.7701
  0
LINE
  8
0
 10
6.3559
 20
67.7701
 11
8.41888
 21
61.5811
  0
LINE
  8
0
 10
8.41888
 20
61.5811
 11
2.22992
 21
63.6441
  0
LINE
  8
0
 10
2.22992
 20
63.6441
 11
0
 21
61.4142
  0
LINE
  8
0
 10
0
 20
61.4142
 11
-1.3559
 21
62.7701
  0
LINE
  8
0
 10
18.6441
 20
62.7701
 11
20.7906
 21
69.2094
  0
LINE
  8
0
 10
20.7906
 20
69.2094
 11
27.2299
 21
71.3559
  0
LINE
  8
0
 10
27.2299
 20
71.3559
 11
28.5858
 21
70
  0
LINE
  8
0
 10
28.5858
 20
70
 11
26.3559
 21
67.7701
  0
LINE
  8
0
 10
26.3559
 20
67.7701
 11
28.4189
 21
61.5811
  0
LINE
  8
0
 10
28.4189
 20
61.5811
 11
22.2299
 21
63.6441
  0
LINE
  8
0
 10
22.2299
 20
63.6441
 11
20
 21
61.4142
  0
LINE
  8
0
 10
20
 20
61.4142
 11
18.6441
 21
62.7701
  0
LINE
  8
0
 10
10.7906
 20
60.7906
 11
8.6441
 21
67.2299
  0
LINE
  8
0
 10
8.6441
 20
67.2299
 11
10
 21
68.5858
  0
LINE
  8
0
 10
10
 20
68.5858
 11
12.2299
 21
66.3559
  0
LINE
  8
0
 10
12.2299
 20
66.3559
 11
18.4189
 21
68.4189
  0
LINE
  8
0
 10
18.4189
 20
68.4189
 11
16.3559
 21
62.2299
  0
LINE
  8
0
 10
16.3559
 20
62.2299
 11
18.5858
 21
60
  0
LINE
  8
0
 10
18.5858
 20
60
 11
17.2299
 21
58.6441
  0
LINE
  8
0
 10
17.2299
 20
58.6441
 11
10.7906
 21
60.7906
  0
LINE
  8
0
 10
-29.2094
 20
60.7906
 11
-31.3559
 21
67.2299
  0
LINE
  8
0
 10
-31.3559
 20
67.2299
 11
-30
 21
68.5858
  0
LINE
  8
0
 10
-30
 20
68.5858
 11
-27.7701
 21
66.3559
  0
LINE
  8
0
 10
-27.7701
 20
66.3559
 11
-21.5811
 21
68.4189
  0
LINE
  8
0
 10
-21.5811
 20
68.4189
 11
-23.6441
 21
62.2299
  0
LINE
  8
0
 10
-23.6441
 20
62.2299
 11
-21.4142
 21
60
  0
LINE
  8
0
 10
-21.4142
 20
60
 11
-22.7701
 21
58.6441
  0
LINE
  8
0
 10
-22.7701
 20
58.6441
 11
-29.2094
 21
60.7906
  0
LINE
  8
0
 10
30.7906
 20
60.7906
 11
28.6441
 21
67.2299
  0
LINE
  8
0
 10
28.6441
 20
67.2299
 11
30
 21
68.5858
  0
LINE
  8
0
 10
30
 20
68.5858
 11
32.2299
 21
66.3559
  0
LINE
  8
0
 10
32.2299
 20
66.3559
 11
38.4189
 21
68.4189
  0
LINE
  8
0
 10
38.4189
 20
68.4189
 11
36.3559
 21
62.2299
  0
LINE
  8
0
 10
36.3559
 20
62.2299
 11
38.5858
 21
60
  0
LINE
  8
0
 10
38.5858
 20
60
 11
37.2299
 21
58.6441
  0
LINE
  8
0
 10
37.2299
 20
58.6441
 11
30.7906
 21
60.7906
  0
LINE
  8
0
 10
-9.20944
 20
60.7906
 11
-11.3559
 21
67.2299
  0
LINE
  8
0
 10
-11.3559
 20
67.2299
 11
-10
 21
68.5858
  0
LINE
  8
0
 10
-10
 20
68.5858
 11
-7.77008
 21
66.3559
  0
LINE
  8
0
 10
-7.77008
 20
66.3559
 11
-1.58112
 21
68.4189
  0
LINE
  8
0
 10
-1.58112
 20
68.4189
 11
-3.6441
 21
62.2299
  0
LINE
  8
0
 10
-3.6441
 20
62.2299
 11
-1.41418
 21
60
  0
LINE
  8
0
 10
-1.41418
 20
60
 11
-2.77008
 21
58.6441
  0
LINE
  8
0
 10
-2.77008
 20
58.6441
 11
-9.20944
 21
60.7906
  0
LINE
  8
0
 10
38.6441
 20
62.7701
 11
40.337
 21
67.8488
  0
LINE
  8
0
 10
40.337
 20
67.8488
 11
41.8324
 21
63.2466
  0
LINE
  8
0
 10
41.8324
 20
63.2466
 11
40
 21
61.4142
  0
LINE
  8
0
 10
40
 20
61.4142
 11
38.6441
 21
62.7701
  0
LINE
  8
0
 10
27.7701
 20
53.6441
 11
21.5811
 21
51.5811
  0
LINE
  8
0
 10
21.5811
 20
51.5811
 11
23.6441
 21
57.7701
  0
LINE
  8
0
 10
23.6441
 20
57.7701
 11
21.4142
 21
60
  0
LINE
  8
0
 10
21.4142
 20
60
 11
22.7701
 21
61.3559
  0
LINE
  8
0
 10
22.7701
 20
61.3559
 11
29.2094
 21
59.2094
  0
LINE
  8
0
 10
29.2094
 20
59.2094
 11
31.3559
 21
52.7701
  0
LINE
  8
0
 10
31.3559
 20
52.7701
 11
30
 21
51.4142
  0
LINE
  8
0
 10
30
 20
51.4142
 11
27.7701
 21
53.6441
  0
LINE
  8
0
 10
7.77008
 20
53.6441
 11
1.58112
 21
51.5811
  0
LINE
  8
0
 10
1.58112
 20
51.5811
 11
3.6441
 21
57.7701
  0
LINE
  8
0
 10
3.6441
 20
57.7701
 11
1.41418
 21
60
  0
LINE
  8
0
 10
1.41418
 20
60
 11
2.77008
 21
61.3559
  0
LINE
  8
0
 10
2.77008
 20
61.3559
 11
9.20944
 21
59.2094
  0
LINE
  8
0
 10
9.20944
 20
59.2094
 11
11.3559
 21
52.7701
  0
LINE
  8
0
 10
11.3559
 20
52.7701
 11
10
 21
51.4142
  0
LINE
  8
0
 10
10
 20
51.4142
 11
7.77008
 21
53.6441
  0
LINE
  8
0
 10
-12.2299
 20
53.6441
 11
-18.4189
 21
51.5811
  0
LINE
  8
0
 10
-18.4189
 20
51.5811
 11
-16.3559
 21
57.7701
  0
LINE
  8
0
 10
-16.3559
 20
57.7701
 11
-18.5858
 21
60
  0
LINE
  8
0
 10
-18.5858
 20
60
 11
-17.2299
 21
61.3559
  0
LINE
  8
0
 10
-17.2299
 20
61.3559
 11
-10.7906
 21
59.2094
  0
LINE
  8
0
 10
-10.7906
 20
59.2094
 11
-8.6441
 21
52.7701
  0
LINE
  8
0
 10
-8.6441
 20
52.7701
 11
-10
 21
51.4142
  0
LINE
  8
0
 10
-10
 20
51.4142
 11
-12.2299
 21
53.6441
  0
LINE
  8
0
 10
-32.2299
 20
53.6441
 11
-38.4189
 21
51.5811
  0
LINE
  8
0
 10
-38.4189
 20
51.5811
 11
-36.3559
 21
57.7701
  0
LINE
  8
0
 10
-36.3559
 20
57.7701
 11
-38.5858
 21
60
  0
LINE
  8
0
 10
-38.5858
 20
60
 11
-37.2299
 21
61.3559
  0
LINE
  8
0
 10
-37.2299
 20
61.3559
 11
-30.7906
 21
59.2094
  0
LINE
  8
0
 10
-30.7906
 20
59.2094
 11
-28.6441
 21
52.7701
  0
LINE
  8
0
 10
-28.6441
 20
52.7701
 11
-30
 21
51.4142
  0
LINE
  8
0
 10
-30
 20
51.4142
 11
-32.2299
 21
53.6441
  0
LINE
  8
0
 10
41.4142
 20
60
 11
42.526
 21
61.1118
  0
LINE
  8
0
 10
42.526
 20
61.1118
 11
43.5963
 21
57.8179
  0
LINE
  8
0
 10
43.5963
 20
57.8179
 11
41.4142
 21
60
  0
LINE
  8
0
 10
-43.2733
 20
58.8118
 11
-42.526
 21
61.1118
  0
LINE
  8
0
 10
-42.526
 20
61.1118
 11
-41.4142
 21
60
  0
LINE
  8
0
 10
-41.4142
 20
60
 11
-42.7701
 21
58.6441
  0
LINE
  8
0
 10
-42.7701
 20
58.6441
 11
-43.2733
 21
58.8118
  0
LINE
  8
0
 10
-8.58582
 20
50
 11
-6.3559
 21
52.2299
  0
LINE
  8
0
 10
-6.3559
 20
52.2299
 11
-8.41888
 21
58.4189
  0
LINE
  8
0
 10
-8.41888
 20
58.4189
 11
-2.22992
 21
56.3559
  0
LINE
  8
0
 10
-2.22992
 20
56.3559
 11
0
 21
58.5858
  0
LINE
  8
0
 10
0
 20
58.5858
 11
1.3559
 21
57.2299
  0
LINE
  8
0
 10
1.3559
 20
57.2299
 11
-0.790558
 21
50.7906
  0
LINE
  8
0
 10
-0.790558
 20
50.7906
 11
-7.22992
 21
48.6441
  0
LINE
  8
0
 10
-7.22992
 20
48.6441
 11
-8.58582
 21
50
  0
LINE
  8
0
 10
-28.5858
 20
50
 11
-26.3559
 21
52.2299
  0
LINE
  8
0
 10
-26.3559
 20
52.2299
 11
-28.4189
 21
58.4189
  0
LINE
  8
0
 10
-28.4189
 20
58.4189
 11
-22.2299
 21
56.3559
  0
LINE
  8
0
 10
-22.2299
 20
56.3559
 11
-20
 21
58.5858
  0
LINE
  8
0
 10
-20
 20
58.5858
 11
-18.6441
 21
57.2299
  0
LINE
  8
0
 10
-18.6441
 20
57.2299
 11
-20.7906
 21
50.7906
  0
LINE
  8
0
 10
-20.7906
 20
50.7906
 11
-27.2299
 21
48.6441
  0
LINE
  8
0
 10
-27.2299
 20
48.6441
 11
-28.5858
 21
50
  0
LINE
  8
0
 10
31.4142
 20
50
 11
33.6441
 21
52.2299
  0
LINE
  8
0
 10
33.6441
 20
52.2299
 11
31.5811
 21
58.4189
  0
LINE
  8
0
 10
31.5811
 20
58.4189
 11
37.7701
 21
56.3559
  0
LINE
  8
0
 10
37.7701
 20
56.3559
 11
40
 21
58.5858
  0
LINE
  8
0
 10
40
 20
58.5858
 11
41.3559
 21
57.2299
  0
LINE
  8
0
 10
41.3559
 20
57.2299
 11
39.2094
 21
50.7906
  0
LINE
  8
0
 10
39.2094
 20
50.7906
 11
32.7701
 21
48.6441
  0
LINE
  8
0
 10
32.7701
 20
48.6441
 11
31.4142
 21
50
  0
LINE
  8
0
 10
11.4142
 20
50
 11
13.6441
 21
52.2299
  0
LINE
  8
0
 10
13.6441
 20
52.2299
 11
11.5811
 21
58.4189
  0
LINE
  8
0
 10
11.5811
 20
58.4189
 11
17.7701
 21
56.3559
  0
LINE
  8
0
 10
17.7701
 20
56.3559
 11
20
 21
58.5858
  0
LINE
  8
0
 10
20
 20
58.5858
 11
21.3559
 21
57.2299
  0
LINE
  8
0
 10
21.3559
 20
57.2299
 11
19.2094
 21
50.7906
  0
LINE
  8
0
 10
19.2094
 20
50.7906
 11
12.7701
 21
48.6441
  0
LINE
  8
0
 10
12.7701
 20
48.6441
 11
11.4142
 21
50
  0
LINE
  8
0
 10
-43.8914
 20
56.9097
 11
-42.2299
 21
56.3559
  0
LINE
  8
0
 10
-42.2299
 20
56.3559
 11
-40
 21
58.5858
  0
LINE
  8
0
 10
-40
 20
58.5858
 11
-38.6441
 21
57.2299
  0
LINE
  8
0
 10
-38.6441
 20
57.2299
 11
-40.7906
 21
50.7906
  0
LINE
  8
0
 10
-40.7906
 20
50.7906
 11
-46.4977
 21
48.8882
  0
LINE
  8
0
 10
-46.4977
 20
48.8882
 11
-43.8914
 21
56.9097
  0
LINE
  8
0
 10
43.6277
 20
57.721
 11
45.2278
 21
52.7967
  0
LINE
  8
0
 10
45.2278
 20
52.7967
 11
41.5811
 21
51.5811
  0
LINE
  8
0
 10
41.5811
 20
51.5811
 11
43.6277
 21
57.721
  0
LINE
  8
0
 10
-41.3559
 20
42.7701
 11
-39.2094
 21
49.2094
  0
LINE
  8
0
 10
-39.2094
 20
49.2094
 11
-32.7701
 21
51.3559
  0
LINE
  8
0
 10
-32.7701
 20
51.3559
 11
-31.4142
 21
50
  0
LINE
  8
0
 10
-31.4142
 20
50
 11
-33.6441
 21
47.7701
  0
LINE
  8
0
 10
-33.6441
 20
47.7701
 11
-31.5811
 21
41.5811
  0
LINE
  8
0
 10
-31.5811
 20
41.5811
 11
-37.7701
 21
43.6441
  0
LINE
  8
0
 10
-37.7701
 20
43.6441
 11
-40
 21
41.4142
  0
LINE
  8
0
 10
-40
 20
41.4142
 11
-41.3559
 21
42.7701
  0
LINE
  8
0
 10
-1.3559
 20
42.7701
 11
0.790558
 21
49.2094
  0
LINE
  8
0
 10
0.790558
 20
49.2094
 11
7.22992
 21
51.3559
  0
LINE
  8
0
 10
7.22992
 20
51.3559
 11
8.58582
 21
50
  0
LINE
  8
0
 10
8.58582
 20
50
 11
6.3559
 21
47.7701
  0
LINE
  8
0
 10
6.3559
 20
47.7701
 11
8.41888
 21
41.5811
  0
LINE
  8
0
 10
8.41888
 20
41.5811
 11
2.22992
 21
43.6441
  0
LINE
  8
0
 10
2.22992
 20
43.6441
 11
0
 21
41.4142
  0
LINE
  8
0
 10
0
 20
41.4142
 11
-1.3559
 21
42.7701
  0
LINE
  8
0
 10
18.6441
 20
42.7701
 11
20.7906
 21
49.2094
  0
LINE
  8
0
 10
20.7906
 20
49.2094
 11
27.2299
 21
51.3559
  0
LINE
  8
0
 10
27.2299
 20
51.3559
 11
28.5858
 21
50
  0
LINE
  8
0
 10
28.5858
 20
50
 11
26.3559
 21
47.7701
  0
LINE
  8
0
 10
26.3559
 20
47.7701
 11
28.4189
 21
41.5811
  0
LINE
  8
0
 10
28.4189
 20
41.5811
 11
22.2299
 21
43.6441
  0
LINE
  8
0
 10
22.2299
 20
43.6441
 11
20
 21
41.4142
  0
LINE
  8
0
 10
20
 20
41.4142
 11
18.6441
 21
42.7701
  0
LINE
  8
0
 10
-21.3559
 20
42.7701
 11
-19.2094
 21
49.2094
  0
LINE
  8
0
 10
-19.2094
 20
49.2094
 11
-12.7701
 21
51.3559
  0
LINE
  8
0
 10
-12.7701
 20
51.3559
 11
-11.4142
 21
50
  0
LINE
  8
0
 10
-11.4142
 20
50
 11
-13.6441
 21
47.7701
  0
LINE
  8
0
 10
-13.6441
 20
47.7701
 11
-11.5811
 21
41.5811
  0
LINE
  8
0
 10
-11.5811
 20
41.5811
 11
-17.7701
 21
43.6441
  0
LINE
  8
0
 10
-17.7701
 20
43.6441
 11
-20
 21
41.4142
  0
LINE
  8
0
 10
-20
 20
41.4142
 11
-21.3559
 21
42.7701
  0
LINE
  8
0
 10
38.6441
 20
42.7701
 11
40.7906
 21
49.2094
  0
LINE
  8
0
 10
40.7906
 20
49.2094
 11
45.8458
 21
50.8945
  0
LINE
  8
0
 10
45.8458
 20
50.8945
 11
46.7371
 21
48.1513
  0
LINE
  8
0
 10
46.7371
 20
48.1513
 11
46.3559
 21
47.7701
  0
LINE
  8
0
 10
46.3559
 20
47.7701
 11
48.4189
 21
41.5811
  0
LINE
  8
0
 10
48.4189
 20
41.5811
 11
42.2299
 21
43.6441
  0
LINE
  8
0
 10
42.2299
 20
43.6441
 11
40
 21
41.4142
  0
LINE
  8
0
 10
40
 20
41.4142
 11
38.6441
 21
42.7701
  0
LINE
  8
0
 10
-9.20944
 20
40.7906
 11
-11.3559
 21
47.2299
  0
LINE
  8
0
 10
-11.3559
 20
47.2299
 11
-10
 21
48.5858
  0
LINE
  8
0
 10
-10
 20
48.5858
 11
-7.77008
 21
46.3559
  0
LINE
  8
0
 10
-7.77008
 20
46.3559
 11
-1.58112
 21
48.4189
  0
LINE
  8
0
 10
-1.58112
 20
48.4189
 11
-3.6441
 21
42.2299
  0
LINE
  8
0
 10
-3.6441
 20
42.2299
 11
-1.41418
 21
40
  0
LINE
  8
0
 10
-1.41418
 20
40
 11
-2.77008
 21
38.6441
  0
LINE
  8
0
 10
-2.77008
 20
38.6441
 11
-9.20944
 21
40.7906
  0
LINE
  8
0
 10
10.7906
 20
40.7906
 11
8.6441
 21
47.2299
  0
LINE
  8
0
 10
8.6441
 20
47.2299
 11
10
 21
48.5858
  0
LINE
  8
0
 10
10
 20
48.5858
 11
12.2299
 21
46.3559
  0
LINE
  8
0
 10
12.2299
 20
46.3559
 11
18.4189
 21
48.4189
  0
LINE
  8
0
 10
18.4189
 20
48.4189
 11
16.3559
 21
42.2299
  0
LINE
  8
0
 10
16.3559
 20
42.2299
 11
18.5858
 21
40
  0
LINE
  8
0
 10
18.5858
 20
40
 11
17.2299
 21
38.6441
  0
LINE
  8
0
 10
17.2299
 20
38.6441
 11
10.7906
 21
40.7906
  0
LINE
  8
0
 10
30.7906
 20
40.7906
 11
28.6441
 21
47.2299
  0
LINE
  8
0
 10
28.6441
 20
47.2299
 11
30
 21
48.5858
  0
LINE
  8
0
 10
30
 20
48.5858
 11
32.2299
 21
46.3559
  0
LINE
  8
0
 10
32.2299
 20
46.3559
 11
38.4189
 21
48.4189
  0
LINE
  8
0
 10
38.4189
 20
48.4189
 11
36.3559
 21
42.2299
  0
LINE
  8
0
 10
36.3559
 20
42.2299
 11
38.5858
 21
40
  0
LINE
  8
0
 10
38.5858
 20
40
 11
37.2299
 21
38.6441
  0
LINE
  8
0
 10
37.2299
 20
38.6441
 11
30.7906
 21
40.7906
  0
LINE
  8
0
 10
-29.2094
 20
40.7906
 11
-31.3559
 21
47.2299
  0
LINE
  8
0
 10
-31.3559
 20
47.2299
 11
-30
 21
48.5858
  0
LINE
  8
0
 10
-30
 20
48.5858
 11
-27.7701
 21
46.3559
  0
LINE
  8
0
 10
-27.7701
 20
46.3559
 11
-21.5811
 21
48.4189
  0
LINE
  8
0
 10
-21.5811
 20
48.4189
 11
-23.6441
 21
42.2299
  0
LINE
  8
0
 10
-23.6441
 20
42.2299
 11
-21.4142
 21
40
  0
LINE
  8
0
 10
-21.4142
 20
40
 11
-22.7701
 21
38.6441
  0
LINE
  8
0
 10
-22.7701
 20
38.6441
 11
-29.2094
 21
40.7906
  0
LINE
  8
0
 10
-49.1367
 20
40.7663
 11
-47.2659
 21
46.524
  0
LINE
  8
0
 10
-47.2659
 20
46.524
 11
-41.5811
 21
48.4189
  0
LINE
  8
0
 10
-41.5811
 20
48.4189
 11
-43.6441
 21
42.2299
  0
LINE
  8
0
 10
-43.6441
 20
42.2299
 11
-41.4142
 21
40
  0
LINE
  8
0
 10
-41.4142
 20
40
 11
-42.7701
 21
38.6441
  0
LINE
  8
0
 10
-42.7701
 20
38.6441
 11
-49.1367
 21
40.7663
  0
LINE
  8
0
 10
-12.2299
 20
33.6441
 11
-18.4189
 21
31.5811
  0
LINE
  8
0
 10
-18.4189
 20
31.5811
 11
-16.3559
 21
37.7701
  0
LINE
  8
0
 10
-16.3559
 20
37.7701
 11
-18.5858
 21
40
  0
LINE
  8
0
 10
-18.5858
 20
40
 11
-17.2299
 21
41.3559
  0
LINE
  8
0
 10
-17.2299
 20
41.3559
 11
-10.7906
 21
39.2094
  0
LINE
  8
0
 10
-10.7906
 20
39.2094
 11
-8.6441
 21
32.7701
  0
LINE
  8
0
 10
-8.6441
 20
32.7701
 11
-10
 21
31.4142
  0
LINE
  8
0
 10
-10
 20
31.4142
 11
-12.2299
 21
33.6441
  0
LINE
  8
0
 10
7.77008
 20
33.6441
 11
1.58112
 21
31.5811
  0
LINE
  8
0
 10
1.58112
 20
31.5811
 11
3.6441
 21
37.7701
  0
LINE
  8
0
 10
3.6441
 20
37.7701
 11
1.41418
 21
40
  0
LINE
  8
0
 10
1.41418
 20
40
 11
2.77008
 21
41.3559
  0
LINE
  8
0
 10
2.77008
 20
41.3559
 11
9.20944
 21
39.2094
  0
LINE
  8
0
 10
9.20944
 20
39.2094
 11
11.3559
 21
32.7701
  0
LINE
  8
0
 10
11.3559
 20
32.7701
 11
10
 21
31.4142
  0
LINE
  8
0
 10
10
 20
31.4142
 11
7.77008
 21
33.6441
  0
LINE
  8
0
 10
47.7701
 20
33.6441
 11
41.5811
 21
31.5811
  0
LINE
  8
0
 10
41.5811
 20
31.5811
 11
43.6441
 21
37.7701
  0
LINE
  8
0
 10
43.6441
 20
37.7701
 11
41.4142
 21
40
  0
LINE
  8
0
 10
41.4142
 20
40
 11
42.7701
 21
41.3559
  0
LINE
  8
0
 10
42.7701
 20
41.3559
 11
49.2094
 21
39.2094
  0
LINE
  8
0
 10
49.2094
 20
39.2094
 11
51.3559
 21
32.7701
  0
LINE
  8
0
 10
51.3559
 20
32.7701
 11
50
 21
31.4142
  0
LINE
  8
0
 10
50
 20
31.4142
 11
47.7701
 21
33.6441
  0
LINE
  8
0
 10
-32.2299
 20
33.6441
 11
-38.4189
 21
31.5811
  0
LINE
  8
0
 10
-38.4189
 20
31.5811
 11
-36.3559
 21
37.7701
  0
LINE
  8
0
 10
-36.3559
 20
37.7701
 11
-38.5858
 21
40
  0
LINE
  8
0
 10
-38.5858
 20
40
 11
-37.2299
 21
41.3559
  0
LINE
  8
0
 10
-37.2299
 20
41.3559
 11
-30.7906
 21
39.2094
  0
LINE
  8
0
 10
-30.7906
 20
39.2094
 11
-28.6441
 21
32.7701
  0
LINE
  8
0
 10
-28.6441
 20
32.7701
 11
-30
 21
31.4142
  0
LINE
  8
0
 10
-30
 20
31.4142
 11
-32.2299
 21
33.6441
  0
LINE
  8
0
 10
27.7701
 20
33.6441
 11
21.5811
 21
31.5811
  0
LINE
  8
0
 10
21.5811
 20
31.5811
 11
23.6441
 21
37.7701
  0
LINE
  8
0
 10
23.6441
 20
37.7701
 11
21.4142
 21
40
  0
LINE
  8
0
 10
21.4142
 20
40
 11
22.7701
 21
41.3559
  0
LINE
  8
0
 10
22.7701
 20
41.3559
 11
29.2094
 21
39.2094
  0
LINE
  8
0
 10
29.2094
 20
39.2094
 11
31.3559
 21
32.7701
  0
LINE
  8
0
 10
31.3559
 20
32.7701
 11
30
 21
31.4142
  0
LINE
  8
0
 10
30
 20
31.4142
 11
27.7701
 21
33.6441
  0
LINE
  8
0
 10
-8.58582
 20
30
 11
-6.3559
 21
32.2299
  0
LINE
  8
0
 10
-6.3559
 20
32.2299
 11
-8.41888
 21
38.4189
  0
LINE
  8
0
 10
-8.41888
 20
38.4189
 11
-2.22992
 21
36.3559
  0
LINE
  8
0
 10
-2.22992
 20
36.3559
 11
0
 21
38.5858
  0
LINE
  8
0
 10
0
 20
38.5858
 11
1.3559
 21
37.2299
  0
LINE
  8
0
 10
1.3559
 20
37.2299
 11
-0.790558
 21
30.7906
  0
LINE
  8
0
 10
-0.790558
 20
30.7906
 11
-7.22992
 21
28.6441
  0
LINE
  8
0
 10
-7.22992
 20
28.6441
 11
-8.58582
 21
30
  0
LINE
  8
0
 10
-48.5858
 20
30
 11
-46.3559
 21
32.2299
  0
LINE
  8
0
 10
-46.3559
 20
32.2299
 11
-48.4189
 21
38.4189
  0
LINE
  8
0
 10
-48.4189
 20
38.4189
 11
-42.2299
 21
36.3559
  0
LINE
  8
0
 10
-42.2299
 20
36.3559
 11
-40
 21
38.5858
  0
LINE
  8
0
 10
-40
 20
38.5858
 11
-38.6441
 21
37.2299
  0
LINE
  8
0
 10
-38.6441
 20
37.2299
 11
-40.7906
 21
30.7906
  0
LINE
  8
0
 10
-40.7906
 20
30.7906
 11
-47.2299
 21
28.6441
  0
LINE
  8
0
 10
-47.2299
 20
28.6441
 11
-48.5858
 21
30
  0
LINE
  8
0
 10
11.4142
 20
30
 11
13.6441
 21
32.2299
  0
LINE
  8
0
 10
13.6441
 20
32.2299
 11
11.5811
 21
38.4189
  0
LINE
  8
0
 10
11.5811
 20
38.4189
 11
17.7701
 21
36.3559
  0
LINE
  8
0
 10
17.7701
 20
36.3559
 11
20
 21
38.5858
  0
LINE
  8
0
 10
20
 20
38.5858
 11
21.3559
 21
37.2299
  0
LINE
  8
0
 10
21.3559
 20
37.2299
 11
19.2094
 21
30.7906
  0
LINE
  8
0
 10
19.2094
 20
30.7906
 11
12.7701
 21
28.6441
  0
LINE
  8
0
 10
12.7701
 20
28.6441
 11
11.4142
 21
30
  0
LINE
  8
0
 10
31.4142
 20
30
 11
33.6441
 21
32.2299
  0
LINE
  8
0
 10
33.6441
 20
32.2299
 11
31.5811
 21
38.4189
  0
LINE
  8
0
 10
31.5811
 20
38.4189
 11
37.7701
 21
36.3559
  0
LINE
  8
0
 10
37.7701
 20
36.3559
 11
40
 21
38.5858
  0
LINE
  8
0
 10
40
 20
38.5858
 11
41.3559
 21
37.2299
  0
LINE
  8
0
 10
41.3559
 20
37.2299
 11
39.2094
 21
30.7906
  0
LINE
  8
0
 10
39.2094
 20
30.7906
 11
32.7701
 21
28.6441
  0
LINE
  8
0
 10
32.7701
 20
28.6441
 11
31.4142
 21
30
  0
LINE
  8
0
 10
-28.5858
 20
30
 11
-26.3559
 21
32.2299
  0
LINE
  8
0
 10
-26.3559
 20
32.2299
 11
-28.4189
 21
38.4189
  0
LINE
  8
0
 10
-28.4189
 20
38.4189
 11
-22.2299
 21
36.3559
  0
LINE
  8
0
 10
-22.2299
 20
36.3559
 11
-20
 21
38.5858
  0
LINE
  8
0
 10
-20
 20
38.5858
 11
-18.6441
 21
37.2299
  0
LINE
  8
0
 10
-18.6441
 20
37.2299
 11
-20.7906
 21
30.7906
  0
LINE
  8
0
 10
-20.7906
 20
30.7906
 11
-27.2299
 21
28.6441
  0
LINE
  8
0
 10
-27.2299
 20
28.6441
 11
-28.5858
 21
30
  0
LINE
  8
0
 10
-51.6419
 20
33.0561
 11
-50.2092
 21
37.4654
  0
LINE
  8
0
 10
-50.2092
 20
37.4654
 11
-48.6441
 21
32.7701
  0
LINE
  8
0
 10
-48.6441
 20
32.7701
 11
-50
 21
31.4142
  0
LINE
  8
0
 10
-50
 20
31.4142
 11
-51.6419
 21
33.0561
  0
LINE
  8
0
 10
-1.3559
 20
22.7701
 11
0.790558
 21
29.2094
  0
LINE
  8
0
 10
0.790558
 20
29.2094
 11
7.22992
 21
31.3559
  0
LINE
  8
0
 10
7.22992
 20
31.3559
 11
8.58582
 21
30
  0
LINE
  8
0
 10
8.58582
 20
30
 11
6.3559
 21
27.7701
  0
LINE
  8
0
 10
6.3559
 20
27.7701
 11
8.41888
 21
21.5811
  0
LINE
  8
0
 10
8.41888
 20
21.5811
 11
2.22992
 21
23.6441
  0
LINE
  8
0
 10
2.22992
 20
23.6441
 11
0
 21
21.4142
  0
LINE
  8
0
 10
0
 20
21.4142
 11
-1.3559
 21
22.7701
  0
LINE
  8
0
 10
-41.3559
 20
22.7701
 11
-39.2094
 21
29.2094
  0
LINE
  8
0
 10
-39.2094
 20
29.2094
 11
-32.7701
 21
31.3559
  0
LINE
  8
0
 10
-32.7701
 20
31.3559
 11
-31.4142
 21
30
  0
LINE
  8
0
 10
-31.4142
 20
30
 11
-33.6441
 21
27.7701
  0
LINE
  8
0
 10
-33.6441
 20
27.7701
 11
-31.5811
 21
21.5811
  0
LINE
  8
0
 10
-31.5811
 20
21.5811
 11
-37.7701
 21
23.6441
  0
LINE
  8
0
 10
-37.7701
 20
23.6441
 11
-40
 21
21.4142
  0
LINE
  8
0
 10
-40
 20
21.4142
 11
-41.3559
 21
22.7701
  0
LINE
  8
0
 10
38.6441
 20
22.7701
 11
40.7906
 21
29.2094
  0
LINE
  8
0
 10
40.7906
 20
29.2094
 11
47.2299
 21
31.3559
  0
LINE
  8
0
 10
47.2299
 20
31.3559
 11
48.5858
 21
30
  0
LINE
  8
0
 10
48.5858
 20
30
 11
46.3559
 21
27.7701
  0
LINE
  8
0
 10
46.3559
 20
27.7701
 11
48.4189
 21
21.5811
  0
LINE
  8
0
 10
48.4189
 20
21.5811
 11
42.2299
 21
23.6441
  0
LINE
  8
0
 10
42.2299
 20
23.6441
 11
40
 21
21.4142
  0
LINE
  8
0
 10
40
 20
21.4142
 11
38.6441
 21
22.7701
  0
LINE
  8
0
 10
-21.3559
 20
22.7701
 11
-19.2094
 21
29.2094
  0
LINE
  8
0
 10
-19.2094
 20
29.2094
 11
-12.7701
 21
31.3559
  0
LINE
  8
0
 10
-12.7701
 20
31.3559
 11
-11.4142
 21
30
  0
LINE
  8
0
 10
-11.4142
 20
30
 11
-13.6441
 21
27.7701
  0
LINE
  8
0
 10
-13.6441
 20
27.7701
 11
-11.5811
 21
21.5811
  0
LINE
  8
0
 10
-11.5811
 20
21.5811
 11
-17.7701
 21
23.6441
  0
LINE
  8
0
 10
-17.7701
 20
23.6441
 11
-20
 21
21.4142
  0
LINE
  8
0
 10
-20
 20
21.4142
 11
-21.3559
 21
22.7701
  0
LINE
  8
0
 10
18.6441
 20
22.7701
 11
20.7906
 21
29.2094
  0
LINE
  8
0
 10
20.7906
 20
29.2094
 11
27.2299
 21
31.3559
  0
LINE
  8
0
 10
27.2299
 20
31.3559
 11
28.5858
 21
30
  0
LINE
  8
0
 10
28.5858
 20
30
 11
26.3559
 21
27.7701
  0
LINE
  8
0
 10
26.3559
 20
27.7701
 11
28.4189
 21
21.5811
  0
LINE
  8
0
 10
28.4189
 20
21.5811
 11
22.2299
 21
23.6441
  0
LINE
  8
0
 10
22.2299
 20
23.6441
 11
20
 21
21.4142
  0
LINE
  8
0
 10
20
 20
21.4142
 11
18.6441
 21
22.7701
  0
LINE
  8
0
 10
51.4142
 20
30
 11
52.3355
 21
30.9213
  0
LINE
  8
0
 10
52.3355
 20
30.9213
 11
53.0456
 21
28.7359
  0
LINE
  8
0
 10
53.0456
 20
28.7359
 11
52.7701
 21
28.6441
  0
LINE
  8
0
 10
52.7701
 20
28.6441
 11
51.4142
 21
30
  0
LINE
  8
0
 10
-52.3355
 20
30.9213
 11
-51.4142
 21
30
  0
LINE
  8
0
 10
-51.4142
 20
30
 11
-53.2224
 21
28.1918
  0
LINE
  8
0
 10
-53.2224
 20
28.1918
 11
-52.3355
 21
30.9213
  0
LINE
  8
0
 10
-29.2094
 20
20.7906
 11
-31.3559
 21
27.2299
  0
LINE
  8
0
 10
-31.3559
 20
27.2299
 11
-30
 21
28.5858
  0
LINE
  8
0
 10
-30
 20
28.5858
 11
-27.7701
 21
26.3559
  0
LINE
  8
0
 10
-27.7701
 20
26.3559
 11
-21.5811
 21
28.4189
  0
LINE
  8
0
 10
-21.5811
 20
28.4189
 11
-23.6441
 21
22.2299
  0
LINE
  8
0
 10
-23.6441
 20
22.2299
 11
-21.4142
 21
20
  0
LINE
  8
0
 10
-21.4142
 20
20
 11
-22.7701
 21
18.6441
  0
LINE
  8
0
 10
-22.7701
 20
18.6441
 11
-29.2094
 21
20.7906
  0
LINE
  8
0
 10
30.7906
 20
20.7906
 11
28.6441
 21
27.2299
  0
LINE
  8
0
 10
28.6441
 20
27.2299
 11
30
 21
28.5858
  0
LINE
  8
0
 10
30
 20
28.5858
 11
32.2299
 21
26.3559
  0
LINE
  8
0
 10
32.2299
 20
26.3559
 11
38.4189
 21
28.4189
  0
LINE
  8
0
 10
38.4189
 20
28.4189
 11
36.3559
 21
22.2299
  0
LINE
  8
0
 10
36.3559
 20
22.2299
 11
38.5858
 21
20
  0
LINE
  8
0
 10
38.5858
 20
20
 11
37.2299
 21
18.6441
  0
LINE
  8
0
 10
37.2299
 20
18.6441
 11
30.7906
 21
20.7906
  0
LINE
  8
0
 10
-9.20944
 20
20.7906
 11
-11.3559
 21
27.2299
  0
LINE
  8
0
 10
-11.3559
 20
27.2299
 11
-10
 21
28.5858
  0
LINE
  8
0
 10
-10
 20
28.5858
 11
-7.77008
 21
26.3559
  0
LINE
  8
0
 10
-7.77008
 20
26.3559
 11
-1.58112
 21
28.4189
  0
LINE
  8
0
 10
-1.58112
 20
28.4189
 11
-3.6441
 21
22.2299
  0
LINE
  8
0
 10
-3.6441
 20
22.2299
 11
-1.41418
 21
20
  0
LINE
  8
0
 10
-1.41418
 20
20
 11
-2.77008
 21
18.6441
  0
LINE
  8
0
 10
-2.77008
 20
18.6441
 11
-9.20944
 21
20.7906
  0
LINE
  8
0
 10
10.7906
 20
20.7906
 11
8.6441
 21
27.2299
  0
LINE
  8
0
 10
8.6441
 20
27.2299
 11
10
 21
28.5858
  0
LINE
  8
0
 10
10
 20
28.5858
 11
12.2299
 21
26.3559
  0
LINE
  8
0
 10
12.2299
 20
26.3559
 11
18.4189
 21
28.4189
  0
LINE
  8
0
 10
18.4189
 20
28.4189
 11
16.3559
 21
22.2299
  0
LINE
  8
0
 10
16.3559
 20
22.2299
 11
18.5858
 21
20
  0
LINE
  8
0
 10
18.5858
 20
20
 11
17.2299
 21
18.6441
  0
LINE
  8
0
 10
17.2299
 20
18.6441
 11
10.7906
 21
20.7906
  0
LINE
  8
0
 10
50.7906
 20
20.7906
 11
48.6441
 21
27.2299
  0
LINE
  8
0
 10
48.6441
 20
27.2299
 11
50
 21
28.5858
  0
LINE
  8
0
 10
50
 20
28.5858
 11
52.2299
 21
26.3559
  0
LINE
  8
0
 10
52.2299
 20
26.3559
 11
53.6636
 21
26.8338
  0
LINE
  8
0
 10
53.6636
 20
26.8338
 11
56.2147
 21
18.9825
  0
LINE
  8
0
 10
56.2147
 20
18.9825
 11
50.7906
 21
20.7906
  0
LINE
  8
0
 10
-49.2094
 20
20.7906
 11
-51.3559
 21
27.2299
  0
LINE
  8
0
 10
-51.3559
 20
27.2299
 11
-50
 21
28.5858
  0
LINE
  8
0
 10
-50
 20
28.5858
 11
-47.7701
 21
26.3559
  0
LINE
  8
0
 10
-47.7701
 20
26.3559
 11
-41.5811
 21
28.4189
  0
LINE
  8
0
 10
-41.5811
 20
28.4189
 11
-43.6441
 21
22.2299
  0
LINE
  8
0
 10
-43.6441
 20
22.2299
 11
-41.4142
 21
20
  0
LINE
  8
0
 10
-41.4142
 20
20
 11
-42.7701
 21
18.6441
  0
LINE
  8
0
 10
-42.7701
 20
18.6441
 11
-49.2094
 21
20.7906
  0
LINE
  8
0
 10
-55
 20
22.7207
 11
-53.4999
 21
27.3376
  0
LINE
  8
0
 10
-53.4999
 20
27.3376
 11
-51.5811
 21
21.5811
  0
LINE
  8
0
 10
-51.5811
 20
21.5811
 11
-55
 21
22.7207
  0
LINE
  8
0
 10
41.7207
 20
12
 11
43.6441
 21
17.7701
  0
LINE
  8
0
 10
43.6441
 20
17.7701
 11
41.4142
 21
20
  0
LINE
  8
0
 10
41.4142
 20
20
 11
42.7701
 21
21.3559
  0
LINE
  8
0
 10
42.7701
 20
21.3559
 11
49.2094
 21
19.2094
  0
LINE
  8
0
 10
49.2094
 20
19.2094
 11
51.3559
 21
12.7701
  0
LINE
  8
0
 10
51.3559
 20
12.7701
 11
50.5858
 21
12
  0
LINE
  8
0
 10
50.5858
 20
12
 11
49.4142
 21
12
  0
LINE
  8
0
 10
49.4142
 20
12
 11
47.7701
 21
13.6441
  0
LINE
  8
0
 10
47.7701
 20
13.6441
 11
42.8378
 21
12
  0
LINE
  8
0
 10
42.8378
 20
12
 11
41.7207
 21
12
  0
LINE
  8
0
 10
1.72075
 20
12
 11
3.6441
 21
17.7701
  0
LINE
  8
0
 10
3.6441
 20
17.7701
 11
1.41418
 21
20
  0
LINE
  8
0
 10
1.41418
 20
20
 11
2.77008
 21
21.3559
  0
LINE
  8
0
 10
2.77008
 20
21.3559
 11
9.20944
 21
19.2094
  0
LINE
  8
0
 10
9.20944
 20
19.2094
 11
11.3559
 21
12.7701
  0
LINE
  8
0
 10
11.3559
 20
12.7701
 11
10.5858
 21
12
  0
LINE
  8
0
 10
10.5858
 20
12
 11
9.41418
 21
12
  0
LINE
  8
0
 10
9.41418
 20
12
 11
7.77008
 21
13.6441
  0
LINE
  8
0
 10
7.77008
 20
13.6441
 11
2.83777
 21
12
  0
LINE
  8
0
 10
2.83777
 20
12
 11
1.72075
 21
12
  0
LINE
  8
0
 10
21.7207
 20
12
 11
23.6441
 21
17.7701
  0
LINE
  8
0
 10
23.6441
 20
17.7701
 11
21.4142
 21
20
  0
LINE
  8
0
 10
21.4142
 20
20
 11
22.7701
 21
21.3559
  0
LINE
  8
0
 10
22.7701
 20
21.3559
 11
29.2094
 21
19.2094
  0
LINE
  8
0
 10
29.2094
 20
19.2094
 11
31.3559
 21
12.7701
  0
LINE
  8
0
 10
31.3559
 20
12.7701
 11
30.5858
 21
12
  0
LINE
  8
0
 10
30.5858
 20
12
 11
29.4142
 21
12
  0
LINE
  8
0
 10
29.4142
 20
12
 11
27.7701
 21
13.6441
  0
LINE
  8
0
 10
27.7701
 20
13.6441
 11
22.8378
 21
12
  0
LINE
  8
0
 10
22.8378
 20
12
 11
21.7207
 21
12
  0
LINE
  8
0
 10
-18.2793
 20
12
 11
-16.3559
 21
17.7701
  0
LINE
  8
0
 10
-16.3559
 20
17.7701
 11
-18.5858
 21
20
  0
LINE
  8
0
 10
-18.5858
 20
20
 11
-17.2299
 21
21.3559
  0
LINE
  8
0
 10
-17.2299
 20
21.3559
 11
-10.7906
 21
19.2094
  0
LINE
  8
0
 10
-10.7906
 20
19.2094
 11
-8.6441
 21
12.7701
  0
LINE
  8
0
 10
-8.6441
 20
12.7701
 11
-9.41418
 21
12
  0
LINE
  8
0
 10
-9.41418
 20
12
 11
-10.5858
 21
12
  0
LINE
  8
0
 10
-10.5858
 20
12
 11
-12.2299
 21
13.6441
  0
LINE
  8
0
 10
-12.2299
 20
13.6441
 11
-17.1622
 21
12
  0
LINE
  8
0
 10
-17.1622
 20
12
 11
-18.2793
 21
12
  0
LINE
  8
0
 10
-38.2793
 20
12
 11
-36.3559
 21
17.7701
  0
LINE
  8
0
 10
-36.3559
 20
17.7701
 11
-38.5858
 21
20
  0
LINE
  8
0
 10
-38.5858
 20
20
 11
-37.2299
 21
21.3559
  0
LINE
  8
0
 10
-37.2299
 20
21.3559
 11
-30.7906
 21
19.2094
  0
LINE
  8
0
 10
-30.7906
 20
19.2094
 11
-28.6441
 21
12.7701
  0
LINE
  8
0
 10
-28.6441
 20
12.7701
 11
-29.4142
 21
12
  0
LINE
  8
0
 10
-29.4142
 20
12
 11
-30.5858
 21
12
  0
LINE
  8
0
 10
-30.5858
 20
12
 11
-32.2299
 21
13.6441
  0
LINE
  8
0
 10
-32.2299
 20
13.6441
 11
-37.1622
 21
12
  0
LINE
  8
0
 10
-37.1622
 20
12
 11
-38.2793
 21
12
  0
LINE
  8
0
 10
-58.2793
 20
12
 11
-56.3559
 21
17.7701
  0
LINE
  8
0
 10
-56.3559
 20
17.7701
 11
-56.5466
 21
17.9608
  0
LINE
  8
0
 10
-56.5466
 20
17.9608
 11
-55.6181
 21
20.8186
  0
LINE
  8
0
 10
-55.6181
 20
20.8186
 11
-50.7906
 21
19.2094
  0
LINE
  8
0
 10
-50.7906
 20
19.2094
 11
-48.6441
 21
12.7701
  0
LINE
  8
0
 10
-48.6441
 20
12.7701
 11
-49.4142
 21
12
  0
LINE
  8
0
 10
-49.4142
 20
12
 11
-50.5858
 21
12
  0
LINE
  8
0
 10
-50.5858
 20
12
 11
-52.2299
 21
13.6441
  0
LINE
  8
0
 10
-52.2299
 20
13.6441
 11
-57.1622
 21
12
  0
LINE
  8
0
 10
-57.1622
 20
12
 11
-58.2793
 21
12
  0
LINE
  8
0
 10
-26.5858
 20
12
 11
-26.3559
 21
12.2299
  0
LINE
  8
0
 10
-26.3559
 20
12.2299
 11
-28.4189
 21
18.4189
  0
LINE
  8
0
 10
-28.4189
 20
18.4189
 11
-22.2299
 21
16.3559
  0
LINE
  8
0
 10
-22.2299
 20
16.3559
 11
-20
 21
18.5858
  0
LINE
  8
0
 10
-20
 20
18.5858
 11
-18.6441
 21
17.2299
  0
LINE
  8
0
 10
-18.6441
 20
17.2299
 11
-20.3874
 21
12
  0
LINE
  8
0
 10
-20.3874
 20
12
 11
-26.5858
 21
12
  0
LINE
  8
0
 10
-6.58582
 20
12
 11
-6.3559
 21
12.2299
  0
LINE
  8
0
 10
-6.3559
 20
12.2299
 11
-8.41888
 21
18.4189
  0
LINE
  8
0
 10
-8.41888
 20
18.4189
 11
-2.22992
 21
16.3559
  0
LINE
  8
0
 10
-2.22992
 20
16.3559
 11
0
 21
18.5858
  0
LINE
  8
0
 10
0
 20
18.5858
 11
1.3559
 21
17.2299
  0
LINE
  8
0
 10
1.3559
 20
17.2299
 11
-0.387405
 21
12
  0
LINE
  8
0
 10
-0.387405
 20
12
 11
-6.58582
 21
12
  0
LINE
  8
0
 10
33.4142
 20
12
 11
33.6441
 21
12.2299
  0
LINE
  8
0
 10
33.6441
 20
12.2299
 11
31.5811
 21
18.4189
  0
LINE
  8
0
 10
31.5811
 20
18.4189
 11
37.7701
 21
16.3559
  0
LINE
  8
0
 10
37.7701
 20
16.3559
 11
40
 21
18.5858
  0
LINE
  8
0
 10
40
 20
18.5858
 11
41.3559
 21
17.2299
  0
LINE
  8
0
 10
41.3559
 20
17.2299
 11
39.6126
 21
12
  0
LINE
  8
0
 10
39.6126
 20
12
 11
33.4142
 21
12
  0
LINE
  8
0
 10
-46.5858
 20
12
 11
-46.3559
 21
12.2299
  0
LINE
  8
0
 10
-46.3559
 20
12.2299
 11
-48.4189
 21
18.4189
  0
LINE
  8
0
 10
-48.4189
 20
18.4189
 11
-42.2299
 21
16.3559
  0
LINE
  8
0
 10
-42.2299
 20
16.3559
 11
-40
 21
18.5858
  0
LINE
  8
0
 10
-40
 20
18.5858
 11
-38.6441
 21
17.2299
  0
LINE
  8
0
 10
-38.6441
 20
17.2299
 11
-40.3874
 21
12
  0
LINE
  8
0
 10
-40.3874
 20
12
 11
-46.5858
 21
12
  0
LINE
  8
0
 10
13.4142
 20
12
 11
13.6441
 21
12.2299
  0
LINE
  8
0
 10
13.6441
 20
12.2299
 11
11.5811
 21
18.4189
  0
LINE
  8
0
 10
11.5811
 20
18.4189
 11
17.7701
 21
16.3559
  0
LINE
  8
0
 10
17.7701
 20
16.3559
 11
20
 21
18.5858
  0
LINE
  8
0
 10
20
 20
18.5858
 11
21.3559
 21
17.2299
  0
LINE
  8
0
 10
21.3559
 20
17.2299
 11
19.6126
 21
12
  0
LINE
  8
0
 10
19.6126
 20
12
 11
13.4142
 21
12
  0
LINE
  8
0
 10
53.4142
 20
12
 11
53.6441
 21
12.2299
  0
LINE
  8
0
 10
53.6441
 20
12.2299
 11
51.5811
 21
18.4189
  0
LINE
  8
0
 10
51.5811
 20
18.4189
 11
56.9828
 21
16.6183
  0
LINE
  8
0
 10
56.9828
 20
16.6183
 11
58.4834
 21
12
  0
LINE
  8
0
 10
58.4834
 20
12
 11
53.4142
 21
12
  0
LINE
  8
0
 10
-10
 20
7
 11
-10
 21
11
  0
LINE
  8
0
 10
-10
 20
11
 11
10
 21
11
  0
LINE
  8
0
 10
10
 20
11
 11
10
 21
7
  0
LINE
  8
0
 10
10
 20
7
 11
-10
 21
7
  0
LINE
  8
0
 10
-68.6534
 20
2.70622
 11
-68.7785
 21
2.71805
  0
LINE
  8
0
 10
-68.7785
 20
2.71805
 11
-68.9026
 21
2.7377
  0
LINE
  8
0
 10
-68.9026
 20
2.7377
 11
-69.0252
 21
2.76511
  0
LINE
  8
0
 10
-69.0252
 20
2.76511
 11
-69.1459
 21
2.80016
  0
LINE
  8
0
 10
-69.1459
 20
2.80016
 11
-69.2641
 21
2.84273
  0
LINE
  8
0
 10
-69.2641
 20
2.84273
 11
-69.3794
 21
2.89262
  0
LINE
  8
0
 10
-69.3794
 20
2.89262
 11
-69.4914
 21
2.94966
  0
LINE
  8
0
 10
-69.4914
 20
2.94966
 11
-69.5995
 21
3.01363
  0
LINE
  8
0
 10
-69.5995
 20
3.01363
 11
-69.7034
 21
3.08424
  0
LINE
  8
0
 10
-69.7034
 20
3.08424
 11
-69.8027
 21
3.16125
  0
LINE
  8
0
 10
-69.8027
 20
3.16125
 11
-69.897
 21
3.24434
  0
LINE
  8
0
 10
-69.897
 20
3.24434
 11
-69.9858
 21
3.33318
  0
LINE
  8
0
 10
-69.9858
 20
3.33318
 11
-70.0689
 21
3.42743
  0
LINE
  8
0
 10
-70.0689
 20
3.42743
 11
-70.1459
 21
3.5267
  0
LINE
  8
0
 10
-70.1459
 20
3.5267
 11
-70.2165
 21
3.63062
  0
LINE
  8
0
 10
-70.2165
 20
3.63062
 11
-70.2805
 21
3.73877
  0
LINE
  8
0
 10
-70.2805
 20
3.73877
 11
-70.3375
 21
3.85072
  0
LINE
  8
0
 10
-70.3375
 20
3.85072
 11
-70.3874
 21
3.96602
  0
LINE
  8
0
 10
-70.3874
 20
3.96602
 11
-70.43
 21
4.08424
  0
LINE
  8
0
 10
-70.43
 20
4.08424
 11
-70.465
 21
4.2049
  0
LINE
  8
0
 10
-70.465
 20
4.2049
 11
-70.4924
 21
4.32751
  0
LINE
  8
0
 10
-70.4924
 20
4.32751
 11
-70.5121
 21
4.45161
  0
LINE
  8
0
 10
-70.5121
 20
4.45161
 11
-70.5239
 21
4.57669
  0
LINE
  8
0
 10
-70.5239
 20
4.57669
 11
-70.5279
 21
4.70227
  0
LINE
  8
0
 10
-70.5279
 20
4.70227
 11
-70.5239
 21
4.82785
  0
LINE
  8
0
 10
-70.5239
 20
4.82785
 11
-70.5121
 21
4.95294
  0
LINE
  8
0
 10
-70.5121
 20
4.95294
 11
-70.4924
 21
5.07704
  0
LINE
  8
0
 10
-70.4924
 20
5.07704
 11
-70.465
 21
5.19966
  0
LINE
  8
0
 10
-70.465
 20
5.19966
 11
-70.43
 21
5.32031
  0
LINE
  8
0
 10
-70.43
 20
5.32031
 11
-70.3874
 21
5.43852
  0
LINE
  8
0
 10
-70.3874
 20
5.43852
 11
-70.3375
 21
5.55383
  0
LINE
  8
0
 10
-70.3375
 20
5.55383
 11
-70.2805
 21
5.66579
  0
LINE
  8
0
 10
-70.2805
 20
5.66579
 11
-70.2165
 21
5.77393
  0
LINE
  8
0
 10
-70.2165
 20
5.77393
 11
-70.1459
 21
5.87784
  0
LINE
  8
0
 10
-70.1459
 20
5.87784
 11
-70.0689
 21
5.97713
  0
LINE
  8
0
 10
-70.0689
 20
5.97713
 11
-69.9858
 21
6.07137
  0
LINE
  8
0
 10
-69.9858
 20
6.07137
 11
-69.897
 21
6.16022
  0
LINE
  8
0
 10
-69.897
 20
6.16022
 11
-69.8027
 21
6.2433
  0
LINE
  8
0
 10
-69.8027
 20
6.2433
 11
-69.7034
 21
6.32031
  0
LINE
  8
0
 10
-69.7034
 20
6.32031
 11
-69.5995
 21
6.39093
  0
LINE
  8
0
 10
-69.5995
 20
6.39093
 11
-69.4914
 21
6.4549
  0
LINE
  8
0
 10
-69.4914
 20
6.4549
 11
-69.3794
 21
6.51193
  0
LINE
  8
0
 10
-69.3794
 20
6.51193
 11
-69.2641
 21
6.56183
  0
LINE
  8
0
 10
-69.2641
 20
6.56183
 11
-69.1459
 21
6.60439
  0
LINE
  8
0
 10
-69.1459
 20
6.60439
 11
-69.0252
 21
6.63943
  0
LINE
  8
0
 10
-69.0252
 20
6.63943
 11
-68.9026
 21
6.66685
  0
LINE
  8
0
 10
-68.9026
 20
6.66685
 11
-68.7785
 21
6.68651
  0
LINE
  8
0
 10
-68.7785
 20
6.68651
 11
-68.6534
 21
6.69833
  0
LINE
  8
0
 10
-68.6534
 20
6.69833
 11
-68.5279
 21
6.70227
  0
LINE
  8
0
 10
-68.5279
 20
6.70227
 11
-68.4023
 21
6.69833
  0
LINE
  8
0
 10
-68.4023
 20
6.69833
 11
-68.2772
 21
6.68651
  0
LINE
  8
0
 10
-68.2772
 20
6.68651
 11
-68.1531
 21
6.66685
  0
LINE
  8
0
 10
-68.1531
 20
6.66685
 11
-68.0305
 21
6.63943
  0
LINE
  8
0
 10
-68.0305
 20
6.63943
 11
-67.9098
 21
6.60439
  0
LINE
  8
0
 10
-67.9098
 20
6.60439
 11
-67.7916
 21
6.56183
  0
LINE
  8
0
 10
-67.7916
 20
6.56183
 11
-67.6763
 21
6.51193
  0
LINE
  8
0
 10
-67.6763
 20
6.51193
 11
-67.5643
 21
6.4549
  0
LINE
  8
0
 10
-67.5643
 20
6.4549
 11
-67.4562
 21
6.39093
  0
LINE
  8
0
 10
-67.4562
 20
6.39093
 11
-67.3523
 21
6.32031
  0
LINE
  8
0
 10
-67.3523
 20
6.32031
 11
-67.253
 21
6.2433
  0
LINE
  8
0
 10
-67.253
 20
6.2433
 11
-67.1588
 21
6.16022
  0
LINE
  8
0
 10
-67.1588
 20
6.16022
 11
-67.0699
 21
6.07137
  0
LINE
  8
0
 10
-67.0699
 20
6.07137
 11
-66.9868
 21
5.97713
  0
LINE
  8
0
 10
-66.9868
 20
5.97713
 11
-66.9098
 21
5.87784
  0
LINE
  8
0
 10
-66.9098
 20
5.87784
 11
-66.8392
 21
5.77393
  0
LINE
  8
0
 10
-66.8392
 20
5.77393
 11
-66.7752
 21
5.66579
  0
LINE
  8
0
 10
-66.7752
 20
5.66579
 11
-66.7182
 21
5.55383
  0
LINE
  8
0
 10
-66.7182
 20
5.55383
 11
-66.6683
 21
5.43852
  0
LINE
  8
0
 10
-66.6683
 20
5.43852
 11
-66.6257
 21
5.32031
  0
LINE
  8
0
 10
-66.6257
 20
5.32031
 11
-66.5907
 21
5.19966
  0
LINE
  8
0
 10
-66.5907
 20
5.19966
 11
-66.5633
 21
5.07704
  0
LINE
  8
0
 10
-66.5633
 20
5.07704
 11
-66.5436
 21
4.95294
  0
LINE
  8
0
 10
-66.5436
 20
4.95294
 11
-66.5318
 21
4.82785
  0
LINE
  8
0
 10
-66.5318
 20
4.82785
 11
-66.5279
 21
4.70227
  0
LINE
  8
0
 10
-66.5279
 20
4.70227
 11
-66.5318
 21
4.57669
  0
LINE
  8
0
 10
-66.5318
 20
4.57669
 11
-66.5436
 21
4.45161
  0
LINE
  8
0
 10
-66.5436
 20
4.45161
 11
-66.5633
 21
4.32751
  0
LINE
  8
0
 10
-66.5633
 20
4.32751
 11
-66.5907
 21
4.2049
  0
LINE
  8
0
 10
-66.5907
 20
4.2049
 11
-66.6257
 21
4.08424
  0
LINE
  8
0
 10
-66.6257
 20
4.08424
 11
-66.6683
 21
3.96602
  0
LINE
  8
0
 10
-66.6683
 20
3.96602
 11
-66.7182
 21
3.85072
  0
LINE
  8
0
 10
-66.7182
 20
3.85072
 11
-66.7752
 21
3.73877
  0
LINE
  8
0
 10
-66.7752
 20
3.73877
 11
-66.8392
 21
3.63062
  0
LINE
  8
0
 10
-66.8392
 20
3.63062
 11
-66.9098
 21
3.5267
  0
LINE
  8
0
 10
-66.9098
 20
3.5267
 11
-66.9868
 21
3.42743
  0
LINE
  8
0
 10
-66.9868
 20
3.42743
 11
-67.0699
 21
3.33318
  0
LINE
  8
0
 10
-67.0699
 20
3.33318
 11
-67.1588
 21
3.24434
  0
LINE
  8
0
 10
-67.1588
 20
3.24434
 11
-67.253
 21
3.16125
  0
LINE
  8
0
 10
-67.253
 20
3.16125
 11
-67.3523
 21
3.08424
  0
LINE
  8
0
 10
-67.3523
 20
3.08424
 11
-67.4562
 21
3.01363
  0
LINE
  8
0
 10
-67.4562
 20
3.01363
 11
-67.5643
 21
2.94966
  0
LINE
  8
0
 10
-67.5643
 20
2.94966
 11
-67.6763
 21
2.89262
  0
LINE
  8
0
 10
-67.6763
 20
2.89262
 11
-67.7916
 21
2.84273
  0
LINE
  8
0
 10
-67.7916
 20
2.84273
 11
-67.9098
 21
2.80016
  0
LINE
  8
0
 10
-67.9098
 20
2.80016
 11
-68.0305
 21
2.76511
  0
LINE
  8
0
 10
-68.0305
 20
2.76511
 11
-68.1531
 21
2.7377
  0
LINE
  8
0
 10
-68.1531
 20
2.7377
 11
-68.2772
 21
2.71805
  0
LINE
  8
0
 10
-68.2772
 20
2.71805
 11
-68.4023
 21
2.70622
  0
LINE
  8
0
 10
-68.4023
 20
2.70622
 11
-68.5279
 21
2.70227
  0
LINE
  8
0
 10
-68.5279
 20
2.70227
 11
-68.6534
 21
2.70622
  0
LINE
  8
0
 10
68.4023
 20
2.70622
 11
68.2772
 21
2.71805
  0
LINE
  8
0
 10
68.2772
 20
2.71805
 11
68.1531
 21
2.7377
  0
LINE
  8
0
 10
68.1531
 20
2.7377
 11
68.0305
 21
2.76511
  0
LINE
  8
0
 10
68.0305
 20
2.76511
 11
67.9098
 21
2.80016
  0
LINE
  8
0
 10
67.9098
 20
2.80016
 11
67.7916
 21
2.84273
  0
LINE
  8
0
 10
67.7916
 20
2.84273
 11
67.6763
 21
2.89262
  0
LINE
  8
0
 10
67.6763
 20
2.89262
 11
67.5643
 21
2.94966
  0
LINE
  8
0
 10
67.5643
 20
2.94966
 11
67.4562
 21
3.01363
  0
LINE
  8
0
 10
67.4562
 20
3.01363
 11
67.3523
 21
3.08424
  0
LINE
  8
0
 10
67.3523
 20
3.08424
 11
67.253
 21
3.16125
  0
LINE
  8
0
 10
67.253
 20
3.16125
 11
67.1588
 21
3.24434
  0
LINE
  8
0
 10
67.1588
 20
3.24434
 11
67.0699
 21
3.33318
  0
LINE
  8
0
 10
67.0699
 20
3.33318
 11
66.9868
 21
3.42743
  0
LINE
  8
0
 10
66.9868
 20
3.42743
 11
66.9098
 21
3.5267
  0
LINE
  8
0
 10
66.9098
 20
3.5267
 11
66.8392
 21
3.63062
  0
LINE
  8
0
 10
66.8392
 20
3.63062
 11
66.7752
 21
3.73877
  0
LINE
  8
0
 10
66.7752
 20
3.73877
 11
66.7182
 21
3.85072
  0
LINE
  8
0
 10
66.7182
 20
3.85072
 11
66.6683
 21
3.96602
  0
LINE
  8
0
 10
66.6683
 20
3.96602
 11
66.6257
 21
4.08424
  0
LINE
  8
0
 10
66.6257
 20
4.08424
 11
66.5907
 21
4.2049
  0
LINE
  8
0
 10
66.5907
 20
4.2049
 11
66.5633
 21
4.32751
  0
LINE
  8
0
 10
66.5633
 20
4.32751
 11
66.5436
 21
4.45161
  0
LINE
  8
0
 10
66.5436
 20
4.45161
 11
66.5318
 21
4.57669
  0
LINE
  8
0
 10
66.5318
 20
4.57669
 11
66.5279
 21
4.70227
  0
LINE
  8
0
 10
66.5279
 20
4.70227
 11
66.5318
 21
4.82785
  0
LINE
  8
0
 10
66.5318
 20
4.82785
 11
66.5436
 21
4.95294
  0
LINE
  8
0
 10
66.5436
 20
4.95294
 11
66.5633
 21
5.07704
  0
LINE
  8
0
 10
66.5633
 20
5.07704
 11
66.5907
 21
5.19966
  0
LINE
  8
0
 10
66.5907
 20
5.19966
 11
66.6257
 21
5.32031
  0
LINE
  8
0
 10
66.6257
 20
5.32031
 11
66.6683
 21
5.43852
  0
LINE
  8
0
 10
66.6683
 20
5.43852
 11
66.7182
 21
5.55383
  0
LINE
  8
0
 10
66.7182
 20
5.55383
 11
66.7752
 21
5.66579
  0
LINE
  8
0
 10
66.7752
 20
5.66579
 11
66.8392
 21
5.77393
  0
LINE
  8
0
 10
66.8392
 20
5.77393
 11
66.9098
 21
5.87784
  0
LINE
  8
0
 10
66.9098
 20
5.87784
 11
66.9868
 21
5.97713
  0
LINE
  8
0
 10
66.9868
 20
5.97713
 11
67.0699
 21
6.07137
  0
LINE
  8
0
 10
67.0699
 20
6.07137
 11
67.1588
 21
6.16022
  0
LINE
  8
0
 10
67.1588
 20
6.16022
 11
67.253
 21
6.2433
  0
LINE
  8
0
 10
67.253
 20
6.2433
 11
67.3523
 21
6.32031
  0
LINE
  8
0
 10
67.3523
 20
6.32031
 11
67.4562
 21
6.39093
  0
LINE
  8
0
 10
67.4562
 20
6.39093
 11
67.5643
 21
6.4549
  0
LINE
  8
0
 10
67.5643
 20
6.4549
 11
67.6763
 21
6.51193
  0
LINE
  8
0
 10
67.6763
 20
6.51193
 11
67.7916
 21
6.56183
  0
LINE
  8
0
 10
67.7916
 20
6.56183
 11
67.9098
 21
6.60439
  0
LINE
  8
0
 10
67.9098
 20
6.60439
 11
68.0305
 21
6.63943
  0
LINE
  8
0
 10
68.0305
 20
6.63943
 11
68.1531
 21
6.66685
  0
LINE
  8
0
 10
68.1531
 20
6.66685
 11
68.2772
 21
6.68651
  0
LINE
  8
0
 10
68.2772
 20
6.68651
 11
68.4023
 21
6.69833
  0
LINE
  8
0
 10
68.4023
 20
6.69833
 11
68.5279
 21
6.70227
  0
LINE
  8
0
 10
68.5279
 20
6.70227
 11
68.6534
 21
6.69833
  0
LINE
  8
0
 10
68.6534
 20
6.69833
 11
68.7785
 21
6.68651
  0
LINE
  8
0
 10
68.7785
 20
6.68651
 11
68.9026
 21
6.66685
  0
LINE
  8
0
 10
68.9026
 20
6.66685
 11
69.0252
 21
6.63943
  0
LINE
  8
0
 10
69.0252
 20
6.63943
 11
69.1459
 21
6.60439
  0
LINE
  8
0
 10
69.1459
 20
6.60439
 11
69.2641
 21
6.56183
  0
LINE
  8
0
 10
69.2641
 20
6.56183
 11
69.3794
 21
6.51193
  0
LINE
  8
0
 10
69.3794
 20
6.51193
 11
69.4914
 21
6.4549
  0
LINE
  8
0
 10
69.4914
 20
6.4549
 11
69.5995
 21
6.39093
  0
LINE
  8
0
 10
69.5995
 20
6.39093
 11
69.7034
 21
6.32031
  0
LINE
  8
0
 10
69.7034
 20
6.32031
 11
69.8027
 21
6.2433
  0
LINE
  8
0
 10
69.8027
 20
6.2433
 11
69.897
 21
6.16022
  0
LINE
  8
0
 10
69.897
 20
6.16022
 11
69.9858
 21
6.07137
  0
LINE
  8
0
 10
69.9858
 20
6.07137
 11
70.0689
 21
5.97713
  0
LINE
  8
0
 10
70.0689
 20
5.97713
 11
70.1459
 21
5.87784
  0
LINE
  8
0
 10
70.1459
 20
5.87784
 11
70.2165
 21
5.77393
  0
LINE
  8
0
 10
70.2165
 20
5.77393
 11
70.2805
 21
5.66579
  0
LINE
  8
0
 10
70.2805
 20
5.66579
 11
70.3375
 21
5.55383
  0
LINE
  8
0
 10
70.3375
 20
5.55383
 11
70.3874
 21
5.43852
  0
LINE
  8
0
 10
70.3874
 20
5.43852
 11
70.43
 21
5.32031
  0
LINE
  8
0
 10
70.43
 20
5.32031
 11
70.465
 21
5.19966
  0
LINE
  8
0
 10
70.465
 20
5.19966
 11
70.4924
 21
5.07704
  0
LINE
  8
0
 10
70.4924
 20
5.07704
 11
70.5121
 21
4.95294
  0
LINE
  8
0
 10
70.5121
 20
4.95294
 11
70.5239
 21
4.82785
  0
LINE
  8
0
 10
70.5239
 20
4.82785
 11
70.5279
 21
4.70227
  0
LINE
  8
0
 10
70.5279
 20
4.70227
 11
70.5239
 21
4.57669
  0
LINE
  8
0
 10
70.5239
 20
4.57669
 11
70.5121
 21
4.45161
  0
LINE
  8
0
 10
70.5121
 20
4.45161
 11
70.4924
 21
4.32751
  0
LINE
  8
0
 10
70.4924
 20
4.32751
 11
70.465
 21
4.2049
  0
LINE
  8
0
 10
70.465
 20
4.2049
 11
70.43
 21
4.08424
  0
LINE
  8
0
 10
70.43
 20
4.08424
 11
70.3874
 21
3.96602
  0
LINE
  8
0
 10
70.3874
 20
3.96602
 11
70.3375
 21
3.85072
  0
LINE
  8
0
 10
70.3375
 20
3.85072
 11
70.2805
 21
3.73877
  0
LINE
  8
0
 10
70.2805
 20
3.73877
 11
70.2165
 21
3.63062
  0
LINE
  8
0
 10
70.2165
 20
3.63062
 11
70.1459
 21
3.5267
  0
LINE
  8
0
 10
70.1459
 20
3.5267
 11
70.0689
 21
3.42743
  0
LINE
  8
0
 10
70.0689
 20
3.42743
 11
69.9858
 21
3.33318
  0
LINE
  8
0
 10
69.9858
 20
3.33318
 11
69.897
 21
3.24434
  0
LINE
  8
0
 10
69.897
 20
3.24434
 11
69.8027
 21
3.16125
  0
LINE
  8
0
 10
69.8027
 20
3.16125
 11
69.7034
 21
3.08424
  0
LINE
  8
0
 10
69.7034
 20
3.08424
 11
69.5995
 21
3.01363
  0
LINE
  8
0
 10
69.5995
 20
3.01363
 11
69.4914
 21
2.94966
  0
LINE
  8
0
 10
69.4914
 20
2.94966
 11
69.3794
 21
2.89262
  0
LINE
  8
0
 10
69.3794
 20
2.89262
 11
69.2641
 21
2.84273
  0
LINE
  8
0
 10
69.2641
 20
2.84273
 11
69.1459
 21
2.80016
  0
LINE
  8
0
 10
69.1459
 20
2.80016
 11
69.0252
 21
2.76511
  0
LINE
  8
0
 10
69.0252
 20
2.76511
 11
68.9026
 21
2.7377
  0
LINE
  8
0
 10
68.9026
 20
2.7377
 11
68.7785
 21
2.71805
  0
LINE
  8
0
 10
68.7785
 20
2.71805
 11
68.6534
 21
2.70622
  0
LINE
  8
0
 10
68.6534
 20
2.70622
 11
68.5279
 21
2.70227
  0
LINE
  8
0
 10
68.5279
 20
2.70227
 11
68.4023
 21
2.70622
  0
LINE
  8
0
 10
-0.0790558
 20
-0.920944
 11
0.13559
 21
-0.277008
  0
LINE
  8
0
 10
0.13559
 20
-0.277008
 11
0
 21
-0.141418
  0
LINE
  8
0
 10
0
 20
-0.141418
 11
-0.222992
 21
-0.36441
  0
LINE
  8
0
 10
-0.222992
 20
-0.36441
 11
-0.841888
 21
-0.158112
  0
LINE
  8
0
 10
-0.841888
 20
-0.158112
 11
-0.63559
 21
-0.777008
  0
LINE
  8
0
 10
-0.63559
 20
-0.777008
 11
-0.858582
 21
-1
  0
LINE
  8
0
 10
-0.858582
 20
-1
 11
-0.722992
 21
-1.13559
  0
LINE
  8
0
 10
-0.722992
 20
-1.13559
 11
-0.0790558
 21
-0.920944
  0
ENDSEC
  0
SECTION
  2
OBJECTS
  0
DICTIONARY
  0
ENDSEC
  0
EOF
