  0
SECTION
  2
BLOCKS
  0
ENDSEC
  0
SECTION
  2
ENTITIES
  0
LINE
  8
0
 10
0
 20
230.826
 11
-75
 21
0
  0
LINE
  8
0
 10
-75
 20
0
 11
75
 21
0
  0
LINE
  8
0
 10
75
 20
0
 11
0
 21
230.826
  0
LINE
  8
0
 10
-0.12558
 20
212.83
 11
-0.250656
 21
212.842
  0
LINE
  8
0
 10
-0.250656
 20
212.842
 11
-0.374756
 21
212.862
  0
LINE
  8
0
 10
-0.374756
 20
212.862
 11
-0.497375
 21
212.889
  0
LINE
  8
0
 10
-0.497375
 20
212.889
 11
-0.618027
 21
212.924
  0
LINE
  8
0
 10
-0.618027
 20
212.924
 11
-0.736237
 21
212.967
  0
LINE
  8
0
 10
-0.736237
 20
212.967
 11
-0.851547
 21
213.017
  0
LINE
  8
0
 10
-0.851547
 20
213.017
 11
-0.963501
 21
213.074
  0
LINE
  8
0
 10
-0.963501
 20
213.074
 11
-1.07164
 21
213.138
  0
LINE
  8
0
 10
-1.07164
 20
213.138
 11
-1.17557
 21
213.208
  0
LINE
  8
0
 10
-1.17557
 20
213.208
 11
-1.27484
 21
213.285
  0
LINE
  8
0
 10
-1.27484
 20
213.285
 11
-1.36908
 21
213.368
  0
LINE
  8
0
 10
-1.36908
 20
213.368
 11
-1.45793
 21
213.457
  0
LINE
  8
0
 10
-1.45793
 20
213.457
 11
-1.54102
 21
213.551
  0
LINE
  8
0
 10
-1.54102
 20
213.551
 11
-1.61803
 21
213.651
  0
LINE
  8
0
 10
-1.61803
 20
213.651
 11
-1.68864
 21
213.755
  0
LINE
  8
0
 10
-1.68864
 20
213.755
 11
-1.75261
 21
213.863
  0
LINE
  8
0
 10
-1.75261
 20
213.863
 11
-1.80965
 21
213.975
  0
LINE
  8
0
 10
-1.80965
 20
213.975
 11
-1.85954
 21
214.09
  0
LINE
  8
0
 10
-1.85954
 20
214.09
 11
-1.9021
 21
214.208
  0
LINE
  8
0
 10
-1.9021
 20
214.208
 11
-1.93716
 21
214.329
  0
LINE
  8
0
 10
-1.93716
 20
214.329
 11
-1.96457
 21
214.451
  0
LINE
  8
0
 10
-1.96457
 20
214.451
 11
-1.98422
 21
214.576
  0
LINE
  8
0
 10
-1.98422
 20
214.576
 11
-1.99605
 21
214.701
  0
LINE
  8
0
 10
-1.99605
 20
214.701
 11
-2
 21
214.826
  0
LINE
  8
0
 10
-2
 20
214.826
 11
-1.99605
 21
214.952
  0
LINE
  8
0
 10
-1.99605
 20
214.952
 11
-1.98422
 21
215.077
  0
LINE
  8
0
 10
-1.98422
 20
215.077
 11
-1.96457
 21
215.201
  0
LINE
  8
0
 10
-1.96457
 20
215.201
 11
-1.93716
 21
215.324
  0
LINE
  8
0
 10
-1.93716
 20
215.324
 11
-1.9021
 21
215.444
  0
LINE
  8
0
 10
-1.9021
 20
215.444
 11
-1.85954
 21
215.562
  0
LINE
  8
0
 10
-1.85954
 20
215.562
 11
-1.80965
 21
215.678
  0
LINE
  8
0
 10
-1.80965
 20
215.678
 11
-1.75261
 21
215.79
  0
LINE
  8
0
 10
-1.75261
 20
215.79
 11
-1.68864
 21
215.898
  0
LINE
  8
0
 10
-1.68864
 20
215.898
 11
-1.61803
 21
216.002
  0
LINE
  8
0
 10
-1.61803
 20
216.002
 11
-1.54102
 21
216.101
  0
LINE
  8
0
 10
-1.54102
 20
216.101
 11
-1.45793
 21
216.195
  0
LINE
  8
0
 10
-1.45793
 20
216.195
 11
-1.36908
 21
216.284
  0
LINE
  8
0
 10
-1.36908
 20
216.284
 11
-1.27484
 21
216.367
  0
LINE
  8
0
 10
-1.27484
 20
216.367
 11
-1.17557
 21
216.444
  0
LINE
  8
0
 10
-1.17557
 20
216.444
 11
-1.07164
 21
216.515
  0
LINE
  8
0
 10
-1.07164
 20
216.515
 11
-0.963501
 21
216.579
  0
LINE
  8
0
 10
-0.963501
 20
216.579
 11
-0.851547
 21
216.636
  0
LINE
  8
0
 10
-0.851547
 20
216.636
 11
-0.736237
 21
216.686
  0
LINE
  8
0
 10
-0.736237
 20
216.686
 11
-0.618027
 21
216.728
  0
LINE
  8
0
 10
-0.618027
 20
216.728
 11
-0.497375
 21
216.763
  0
LINE
  8
0
 10
-0.497375
 20
216.763
 11
-0.374756
 21
216.791
  0
LINE
  8
0
 10
-0.374756
 20
216.791
 11
-0.250656
 21
216.81
  0
LINE
  8
0
 10
-0.250656
 20
216.81
 11
-0.12558
 21
216.822
  0
LINE
  8
0
 10
-0.12558
 20
216.822
 11
0
 21
216.826
  0
LINE
  8
0
 10
0
 20
216.826
 11
0.12558
 21
216.822
  0
LINE
  8
0
 10
0.12558
 20
216.822
 11
0.250656
 21
216.81
  0
LINE
  8
0
 10
0.250656
 20
216.81
 11
0.374756
 21
216.791
  0
LINE
  8
0
 10
0.374756
 20
216.791
 11
0.497375
 21
216.763
  0
LINE
  8
0
 10
0.497375
 20
216.763
 11
0.618027
 21
216.728
  0
LINE
  8
0
 10
0.618027
 20
216.728
 11
0.736237
 21
216.686
  0
LINE
  8
0
 10
0.736237
 20
216.686
 11
0.851547
 21
216.636
  0
LINE
  8
0
 10
0.851547
 20
216.636
 11
0.963501
 21
216.579
  0
LINE
  8
0
 10
0.963501
 20
216.579
 11
1.07164
 21
216.515
  0
LINE
  8
0
 10
1.07164
 20
216.515
 11
1.17557
 21
216.444
  0
LINE
  8
0
 10
1.17557
 20
216.444
 11
1.27484
 21
216.367
  0
LINE
  8
0
 10
1.27484
 20
216.367
 11
1.36908
 21
216.284
  0
LINE
  8
0
 10
1.36908
 20
216.284
 11
1.45793
 21
216.195
  0
LINE
  8
0
 10
1.45793
 20
216.195
 11
1.54102
 21
216.101
  0
LINE
  8
0
 10
1.54102
 20
216.101
 11
1.61803
 21
216.002
  0
LINE
  8
0
 10
1.61803
 20
216.002
 11
1.68864
 21
215.898
  0
LINE
  8
0
 10
1.68864
 20
215.898
 11
1.75261
 21
215.79
  0
LINE
  8
0
 10
1.75261
 20
215.79
 11
1.80965
 21
215.678
  0
LINE
  8
0
 10
1.80965
 20
215.678
 11
1.85954
 21
215.562
  0
LINE
  8
0
 10
1.85954
 20
215.562
 11
1.9021
 21
215.444
  0
LINE
  8
0
 10
1.9021
 20
215.444
 11
1.93716
 21
215.324
  0
LINE
  8
0
 10
1.93716
 20
215.324
 11
1.96457
 21
215.201
  0
LINE
  8
0
 10
1.96457
 20
215.201
 11
1.98422
 21
215.077
  0
LINE
  8
0
 10
1.98422
 20
215.077
 11
1.99605
 21
214.952
  0
LINE
  8
0
 10
1.99605
 20
214.952
 11
2
 21
214.826
  0
LINE
  8
0
 10
2
 20
214.826
 11
1.99605
 21
214.701
  0
LINE
  8
0
 10
1.99605
 20
214.701
 11
1.98422
 21
214.576
  0
LINE
  8
0
 10
1.98422
 20
214.576
 11
1.96457
 21
214.451
  0
LINE
  8
0
 10
1.96457
 20
214.451
 11
1.93716
 21
214.329
  0
LINE
  8
0
 10
1.93716
 20
214.329
 11
1.9021
 21
214.208
  0
LINE
  8
0
 10
1.9021
 20
214.208
 11
1.85954
 21
214.09
  0
LINE
  8
0
 10
1.85954
 20
214.09
 11
1.80965
 21
213.975
  0
LINE
  8
0
 10
1.80965
 20
213.975
 11
1.75261
 21
213.863
  0
LINE
  8
0
 10
1.75261
 20
213.863
 11
1.68864
 21
213.755
  0
LINE
  8
0
 10
1.68864
 20
213.755
 11
1.61803
 21
213.651
  0
LINE
  8
0
 10
1.61803
 20
213.651
 11
1.54102
 21
213.551
  0
LINE
  8
0
 10
1.54102
 20
213.551
 11
1.45793
 21
213.457
  0
LINE
  8
0
 10
1.45793
 20
213.457
 11
1.36908
 21
213.368
  0
LINE
  8
0
 10
1.36908
 20
213.368
 11
1.27484
 21
213.285
  0
LINE
  8
0
 10
1.27484
 20
213.285
 11
1.17557
 21
213.208
  0
LINE
  8
0
 10
1.17557
 20
213.208
 11
1.07164
 21
213.138
  0
LINE
  8
0
 10
1.07164
 20
213.138
 11
0.963501
 21
213.074
  0
LINE
  8
0
 10
0.963501
 20
213.074
 11
0.851547
 21
213.017
  0
LINE
  8
0
 10
0.851547
 20
213.017
 11
0.736237
 21
212.967
  0
LINE
  8
0
 10
0.736237
 20
212.967
 11
0.618027
 21
212.924
  0
LINE
  8
0
 10
0.618027
 20
212.924
 11
0.497375
 21
212.889
  0
LINE
  8
0
 10
0.497375
 20
212.889
 11
0.374756
 21
212.862
  0
LINE
  8
0
 10
0.374756
 20
212.862
 11
0.250656
 21
212.842
  0
LINE
  8
0
 10
0.250656
 20
212.842
 11
0.12558
 21
212.83
  0
LINE
  8
0
 10
0.12558
 20
212.83
 11
0
 21
212.826
  0
LINE
  8
0
 10
0
 20
212.826
 11
-0.12558
 21
212.83
  0
LINE
  8
0
 10
-1.73135
 20
186.665
 11
0
 21
191.993
  0
LINE
  8
0
 10
0
 20
191.993
 11
1.73155
 21
186.664
  0
LINE
  8
0
 10
1.73155
 20
186.664
 11
0
 21
183.666
  0
LINE
  8
0
 10
0
 20
183.666
 11
-1.73135
 21
186.665
  0
LINE
  8
0
 10
-4.40544
 20
178.435
 11
-2.47998
 21
184.361
  0
LINE
  8
0
 10
-2.47998
 20
184.361
 11
-1.03958
 21
181.865
  0
LINE
  8
0
 10
-1.03958
 20
181.865
 11
-3.01941
 21
178.435
  0
LINE
  8
0
 10
-3.01941
 20
178.435
 11
-4.40544
 21
178.435
  0
LINE
  8
0
 10
3.01941
 20
178.435
 11
1.03958
 21
181.865
  0
LINE
  8
0
 10
1.03958
 20
181.865
 11
2.48001
 21
184.361
  0
LINE
  8
0
 10
2.48001
 20
184.361
 11
4.40544
 21
178.435
  0
LINE
  8
0
 10
4.40544
 20
178.435
 11
3.01941
 21
178.435
  0
LINE
  8
0
 10
-1.97983
 20
169.775
 11
-5.94086
 21
169.775
  0
LINE
  8
0
 10
-5.94086
 20
169.775
 11
-3.96057
 21
173.205
  0
LINE
  8
0
 10
-3.96057
 20
173.205
 11
-5.33247
 21
175.582
  0
LINE
  8
0
 10
-5.33247
 20
175.582
 11
-4.99031
 21
176.635
  0
LINE
  8
0
 10
-4.99031
 20
176.635
 11
-1.98074
 21
176.635
  0
LINE
  8
0
 10
-1.98074
 20
176.635
 11
0
 21
180.065
  0
LINE
  8
0
 10
0
 20
180.065
 11
1.97983
 21
176.635
  0
LINE
  8
0
 10
1.97983
 20
176.635
 11
4.99026
 21
176.635
  0
LINE
  8
0
 10
4.99026
 20
176.635
 11
5.3326
 21
175.581
  0
LINE
  8
0
 10
5.3326
 20
175.581
 11
3.96057
 21
173.205
  0
LINE
  8
0
 10
3.96057
 20
173.205
 11
5.9404
 21
169.775
  0
LINE
  8
0
 10
5.9404
 20
169.775
 11
1.98074
 21
169.775
  0
LINE
  8
0
 10
1.98074
 20
169.775
 11
0
 21
166.345
  0
LINE
  8
0
 10
0
 20
166.345
 11
-1.97983
 21
169.775
  0
LINE
  8
0
 10
6.03973
 20
173.205
 11
6.08133
 21
173.277
  0
LINE
  8
0
 10
6.08133
 20
173.277
 11
6.18848
 21
172.947
  0
LINE
  8
0
 10
6.18848
 20
172.947
 11
6.03973
 21
173.205
  0
LINE
  8
0
 10
-6.08133
 20
173.277
 11
-6.03973
 21
173.205
  0
LINE
  8
0
 10
-6.03973
 20
173.205
 11
-6.18849
 21
172.947
  0
LINE
  8
0
 10
-6.18849
 20
172.947
 11
-6.08133
 21
173.277
  0
LINE
  8
0
 10
3.01941
 20
161.115
 11
1.03958
 21
164.545
  0
LINE
  8
0
 10
1.03958
 20
164.545
 11
3.01941
 21
167.975
  0
LINE
  8
0
 10
3.01941
 20
167.975
 11
6.97998
 21
167.975
  0
LINE
  8
0
 10
6.97998
 20
167.975
 11
8.86517
 21
164.709
  0
LINE
  8
0
 10
8.86517
 20
164.709
 11
8.93367
 21
164.498
  0
LINE
  8
0
 10
8.93367
 20
164.498
 11
6.98044
 21
161.115
  0
LINE
  8
0
 10
6.98044
 20
161.115
 11
3.01941
 21
161.115
  0
LINE
  8
0
 10
-6.98044
 20
161.115
 11
-8.93367
 21
164.498
  0
LINE
  8
0
 10
-8.93367
 20
164.498
 11
-8.86516
 21
164.709
  0
LINE
  8
0
 10
-8.86516
 20
164.709
 11
-6.98044
 21
167.975
  0
LINE
  8
0
 10
-6.98044
 20
167.975
 11
-3.01941
 21
167.975
  0
LINE
  8
0
 10
-3.01941
 20
167.975
 11
-1.03958
 21
164.545
  0
LINE
  8
0
 10
-1.03958
 20
164.545
 11
-3.01941
 21
161.115
  0
LINE
  8
0
 10
-3.01941
 20
161.115
 11
-6.98044
 21
161.115
  0
LINE
  8
0
 10
-1.97983
 20
152.455
 11
-5.94086
 21
152.455
  0
LINE
  8
0
 10
-5.94086
 20
152.455
 11
-3.96057
 21
155.885
  0
LINE
  8
0
 10
-3.96057
 20
155.885
 11
-5.9404
 21
159.315
  0
LINE
  8
0
 10
-5.9404
 20
159.315
 11
-1.98074
 21
159.314
  0
LINE
  8
0
 10
-1.98074
 20
159.314
 11
0
 21
162.744
  0
LINE
  8
0
 10
0
 20
162.744
 11
1.97983
 21
159.315
  0
LINE
  8
0
 10
1.97983
 20
159.315
 11
5.94086
 21
159.315
  0
LINE
  8
0
 10
5.94086
 20
159.315
 11
3.96057
 21
155.885
  0
LINE
  8
0
 10
3.96057
 20
155.885
 11
5.9404
 21
152.455
  0
LINE
  8
0
 10
5.9404
 20
152.455
 11
1.98074
 21
152.455
  0
LINE
  8
0
 10
1.98074
 20
152.455
 11
0
 21
149.025
  0
LINE
  8
0
 10
0
 20
149.025
 11
-1.97983
 21
152.455
  0
LINE
  8
0
 10
9.05914
 20
161.115
 11
9.6824
 21
162.194
  0
LINE
  8
0
 10
9.6824
 20
162.194
 11
10.0332
 21
161.115
  0
LINE
  8
0
 10
10.0332
 20
161.115
 11
9.05914
 21
161.115
  0
LINE
  8
0
 10
-10.0331
 20
161.115
 11
-9.68253
 21
162.194
  0
LINE
  8
0
 10
-9.68253
 20
162.194
 11
-9.0596
 21
161.115
  0
LINE
  8
0
 10
-9.0596
 20
161.115
 11
-10.0331
 21
161.115
  0
LINE
  8
0
 10
8.02002
 20
152.454
 11
6.03973
 21
155.885
  0
LINE
  8
0
 10
6.03973
 20
155.885
 11
8.01956
 21
159.315
  0
LINE
  8
0
 10
8.01956
 20
159.315
 11
10.618
 21
159.315
  0
LINE
  8
0
 10
10.618
 20
159.315
 11
12.535
 21
153.415
  0
LINE
  8
0
 10
12.535
 20
153.415
 11
11.9806
 21
152.454
  0
LINE
  8
0
 10
11.9806
 20
152.454
 11
8.02002
 21
152.454
  0
LINE
  8
0
 10
-12.535
 20
153.415
 11
-10.618
 21
159.315
  0
LINE
  8
0
 10
-10.618
 20
159.315
 11
-8.01956
 21
159.315
  0
LINE
  8
0
 10
-8.01956
 20
159.315
 11
-6.03973
 21
155.885
  0
LINE
  8
0
 10
-6.03973
 20
155.885
 11
-8.01956
 21
152.455
  0
LINE
  8
0
 10
-8.01956
 20
152.455
 11
-11.9806
 21
152.454
  0
LINE
  8
0
 10
-11.9806
 20
152.454
 11
-12.535
 21
153.415
  0
LINE
  8
0
 10
13.0202
 20
143.794
 11
9.05914
 21
143.794
  0
LINE
  8
0
 10
9.05914
 20
143.794
 11
11.0394
 21
147.224
  0
LINE
  8
0
 10
11.0394
 20
147.224
 11
9.0596
 21
150.654
  0
LINE
  8
0
 10
9.0596
 20
150.654
 11
13.0193
 21
150.654
  0
LINE
  8
0
 10
13.0193
 20
150.654
 11
13.2834
 21
151.111
  0
LINE
  8
0
 10
13.2834
 20
151.111
 11
16.136
 21
142.332
  0
LINE
  8
0
 10
16.136
 20
142.332
 11
15
 21
140.365
  0
LINE
  8
0
 10
15
 20
140.365
 11
13.0202
 21
143.794
  0
LINE
  8
0
 10
-16.1359
 20
142.332
 11
-13.2837
 21
151.111
  0
LINE
  8
0
 10
-13.2837
 20
151.111
 11
-13.0202
 21
150.654
  0
LINE
  8
0
 10
-13.0202
 20
150.654
 11
-9.05914
 21
150.654
  0
LINE
  8
0
 10
-9.05914
 20
150.654
 11
-11.0394
 21
147.224
  0
LINE
  8
0
 10
-11.0394
 20
147.224
 11
-9.0596
 21
143.794
  0
LINE
  8
0
 10
-9.0596
 20
143.794
 11
-13.0193
 21
143.795
  0
LINE
  8
0
 10
-13.0193
 20
143.795
 11
-15
 21
140.365
  0
LINE
  8
0
 10
-15
 20
140.365
 11
-16.1359
 21
142.332
  0
LINE
  8
0
 10
3.01941
 20
143.794
 11
1.03958
 21
147.224
  0
LINE
  8
0
 10
1.03958
 20
147.224
 11
3.01941
 21
150.655
  0
LINE
  8
0
 10
3.01941
 20
150.655
 11
6.97998
 21
150.655
  0
LINE
  8
0
 10
6.97998
 20
150.655
 11
8.96027
 21
147.224
  0
LINE
  8
0
 10
8.96027
 20
147.224
 11
6.97998
 21
143.794
  0
LINE
  8
0
 10
6.97998
 20
143.794
 11
3.01941
 21
143.794
  0
LINE
  8
0
 10
-6.97998
 20
143.794
 11
-8.96027
 21
147.224
  0
LINE
  8
0
 10
-8.96027
 20
147.224
 11
-6.98044
 21
150.654
  0
LINE
  8
0
 10
-6.98044
 20
150.654
 11
-3.01941
 21
150.655
  0
LINE
  8
0
 10
-3.01941
 20
150.655
 11
-1.03958
 21
147.225
  0
LINE
  8
0
 10
-1.03958
 20
147.225
 11
-3.01941
 21
143.794
  0
LINE
  8
0
 10
-3.01941
 20
143.794
 11
-6.97998
 21
143.794
  0
LINE
  8
0
 10
-1.97983
 20
135.134
 11
-5.94086
 21
135.134
  0
LINE
  8
0
 10
-5.94086
 20
135.134
 11
-3.96057
 21
138.564
  0
LINE
  8
0
 10
-3.96057
 20
138.564
 11
-5.9404
 21
141.994
  0
LINE
  8
0
 10
-5.9404
 20
141.994
 11
-1.98074
 21
141.993
  0
LINE
  8
0
 10
-1.98074
 20
141.993
 11
0
 21
145.423
  0
LINE
  8
0
 10
0
 20
145.423
 11
1.97983
 21
141.994
  0
LINE
  8
0
 10
1.97983
 20
141.994
 11
5.94086
 21
141.994
  0
LINE
  8
0
 10
5.94086
 20
141.994
 11
3.96057
 21
138.564
  0
LINE
  8
0
 10
3.96057
 20
138.564
 11
5.9404
 21
135.134
  0
LINE
  8
0
 10
5.9404
 20
135.134
 11
1.98074
 21
135.134
  0
LINE
  8
0
 10
1.98074
 20
135.134
 11
0
 21
131.704
  0
LINE
  8
0
 10
0
 20
131.704
 11
-1.97983
 21
135.134
  0
LINE
  8
0
 10
8.01956
 20
135.134
 11
6.03973
 21
138.564
  0
LINE
  8
0
 10
6.03973
 20
138.564
 11
8.01956
 21
141.994
  0
LINE
  8
0
 10
8.01956
 20
141.994
 11
11.9806
 21
141.994
  0
LINE
  8
0
 10
11.9806
 20
141.994
 11
13.9604
 21
138.564
  0
LINE
  8
0
 10
13.9604
 20
138.564
 11
11.9806
 21
135.134
  0
LINE
  8
0
 10
11.9806
 20
135.134
 11
8.01956
 21
135.134
  0
LINE
  8
0
 10
-11.9806
 20
135.134
 11
-13.9604
 21
138.564
  0
LINE
  8
0
 10
-13.9604
 20
138.564
 11
-11.9806
 21
141.994
  0
LINE
  8
0
 10
-11.9806
 20
141.994
 11
-8.02002
 21
141.994
  0
LINE
  8
0
 10
-8.02002
 20
141.994
 11
-6.03973
 21
138.564
  0
LINE
  8
0
 10
-6.03973
 20
138.564
 11
-8.01956
 21
135.134
  0
LINE
  8
0
 10
-8.01956
 20
135.134
 11
-11.9806
 21
135.134
  0
LINE
  8
0
 10
-18.4749
 20
135.134
 11
-16.8846
 21
140.028
  0
LINE
  8
0
 10
-16.8846
 20
140.028
 11
-16.0396
 21
138.564
  0
LINE
  8
0
 10
-16.0396
 20
138.564
 11
-18.0194
 21
135.134
  0
LINE
  8
0
 10
-18.0194
 20
135.134
 11
-18.4749
 21
135.134
  0
LINE
  8
0
 10
18.0194
 20
135.134
 11
16.0396
 21
138.564
  0
LINE
  8
0
 10
16.0396
 20
138.564
 11
16.8846
 21
140.028
  0
LINE
  8
0
 10
16.8846
 20
140.028
 11
18.4749
 21
135.134
  0
LINE
  8
0
 10
18.4749
 20
135.134
 11
18.0194
 21
135.134
  0
LINE
  8
0
 10
-16.9798
 20
126.474
 11
-20.9409
 21
126.474
  0
LINE
  8
0
 10
-20.9409
 20
126.474
 11
-18.9606
 21
129.904
  0
LINE
  8
0
 10
-18.9606
 20
129.904
 11
-19.7371
 21
131.249
  0
LINE
  8
0
 10
-19.7371
 20
131.249
 11
-19.0598
 21
133.334
  0
LINE
  8
0
 10
-19.0598
 20
133.334
 11
-16.9807
 21
133.333
  0
LINE
  8
0
 10
-16.9807
 20
133.333
 11
-15
 21
136.763
  0
LINE
  8
0
 10
-15
 20
136.763
 11
-13.0202
 21
133.334
  0
LINE
  8
0
 10
-13.0202
 20
133.334
 11
-9.05914
 21
133.334
  0
LINE
  8
0
 10
-9.05914
 20
133.334
 11
-11.0394
 21
129.904
  0
LINE
  8
0
 10
-11.0394
 20
129.904
 11
-9.0596
 21
126.474
  0
LINE
  8
0
 10
-9.0596
 20
126.474
 11
-13.0193
 21
126.474
  0
LINE
  8
0
 10
-13.0193
 20
126.474
 11
-15
 21
123.044
  0
LINE
  8
0
 10
-15
 20
123.044
 11
-16.9798
 21
126.474
  0
LINE
  8
0
 10
13.0202
 20
126.474
 11
9.05914
 21
126.474
  0
LINE
  8
0
 10
9.05914
 20
126.474
 11
11.0394
 21
129.904
  0
LINE
  8
0
 10
11.0394
 20
129.904
 11
9.0596
 21
133.334
  0
LINE
  8
0
 10
9.0596
 20
133.334
 11
13.0193
 21
133.333
  0
LINE
  8
0
 10
13.0193
 20
133.333
 11
15
 21
136.763
  0
LINE
  8
0
 10
15
 20
136.763
 11
16.9798
 21
133.334
  0
LINE
  8
0
 10
16.9798
 20
133.334
 11
19.0597
 21
133.334
  0
LINE
  8
0
 10
19.0597
 20
133.334
 11
19.7371
 21
131.249
  0
LINE
  8
0
 10
19.7371
 20
131.249
 11
18.9606
 21
129.904
  0
LINE
  8
0
 10
18.9606
 20
129.904
 11
20.9404
 21
126.474
  0
LINE
  8
0
 10
20.9404
 20
126.474
 11
16.9807
 21
126.474
  0
LINE
  8
0
 10
16.9807
 20
126.474
 11
15
 21
123.044
  0
LINE
  8
0
 10
15
 20
123.044
 11
13.0202
 21
126.474
  0
LINE
  8
0
 10
-6.97998
 20
126.473
 11
-8.96027
 21
129.904
  0
LINE
  8
0
 10
-8.96027
 20
129.904
 11
-6.98044
 21
133.334
  0
LINE
  8
0
 10
-6.98044
 20
133.334
 11
-3.01941
 21
133.334
  0
LINE
  8
0
 10
-3.01941
 20
133.334
 11
-1.03958
 21
129.904
  0
LINE
  8
0
 10
-1.03958
 20
129.904
 11
-3.01941
 21
126.473
  0
LINE
  8
0
 10
-3.01941
 20
126.473
 11
-6.97998
 21
126.473
  0
LINE
  8
0
 10
1.03958
 20
129.903
 11
3.01941
 21
133.334
  0
LINE
  8
0
 10
3.01941
 20
133.334
 11
6.98044
 21
133.334
  0
LINE
  8
0
 10
6.98044
 20
133.334
 11
8.96027
 21
129.904
  0
LINE
  8
0
 10
8.96027
 20
129.904
 11
6.98044
 21
126.474
  0
LINE
  8
0
 10
6.98044
 20
126.474
 11
3.01941
 21
126.473
  0
LINE
  8
0
 10
3.01941
 20
126.473
 11
1.03958
 21
129.903
  0
LINE
  8
0
 10
-1.97983
 20
117.813
 11
-5.94086
 21
117.813
  0
LINE
  8
0
 10
-5.94086
 20
117.813
 11
-3.96057
 21
121.243
  0
LINE
  8
0
 10
-3.96057
 20
121.243
 11
-5.9404
 21
124.673
  0
LINE
  8
0
 10
-5.9404
 20
124.673
 11
-1.98074
 21
124.673
  0
LINE
  8
0
 10
-1.98074
 20
124.673
 11
0
 21
128.103
  0
LINE
  8
0
 10
0
 20
128.103
 11
1.97983
 21
124.673
  0
LINE
  8
0
 10
1.97983
 20
124.673
 11
5.94086
 21
124.673
  0
LINE
  8
0
 10
5.94086
 20
124.673
 11
3.96057
 21
121.243
  0
LINE
  8
0
 10
3.96057
 20
121.243
 11
5.9404
 21
117.813
  0
LINE
  8
0
 10
5.9404
 20
117.813
 11
1.98074
 21
117.814
  0
LINE
  8
0
 10
1.98074
 20
117.814
 11
0
 21
114.384
  0
LINE
  8
0
 10
0
 20
114.384
 11
-1.97983
 21
117.813
  0
LINE
  8
0
 10
-11.9806
 20
117.813
 11
-13.9604
 21
121.243
  0
LINE
  8
0
 10
-13.9604
 20
121.243
 11
-11.9806
 21
124.674
  0
LINE
  8
0
 10
-11.9806
 20
124.674
 11
-8.02002
 21
124.674
  0
LINE
  8
0
 10
-8.02002
 20
124.674
 11
-6.03973
 21
121.243
  0
LINE
  8
0
 10
-6.03973
 20
121.243
 11
-8.02002
 21
117.813
  0
LINE
  8
0
 10
-8.02002
 20
117.813
 11
-11.9806
 21
117.813
  0
LINE
  8
0
 10
8.02002
 20
117.813
 11
6.03973
 21
121.243
  0
LINE
  8
0
 10
6.03973
 20
121.243
 11
8.01956
 21
124.673
  0
LINE
  8
0
 10
8.01956
 20
124.673
 11
11.9806
 21
124.674
  0
LINE
  8
0
 10
11.9806
 20
124.674
 11
13.9604
 21
121.244
  0
LINE
  8
0
 10
13.9604
 20
121.244
 11
11.9806
 21
117.813
  0
LINE
  8
0
 10
11.9806
 20
117.813
 11
8.02002
 21
117.813
  0
LINE
  8
0
 10
18.0194
 20
117.813
 11
16.0396
 21
121.243
  0
LINE
  8
0
 10
16.0396
 20
121.243
 11
18.0194
 21
124.674
  0
LINE
  8
0
 10
18.0194
 20
124.674
 11
21.8735
 21
124.674
  0
LINE
  8
0
 10
21.8735
 20
124.674
 11
23.3382
 21
120.166
  0
LINE
  8
0
 10
23.3382
 20
120.166
 11
21.98
 21
117.813
  0
LINE
  8
0
 10
21.98
 20
117.813
 11
18.0194
 21
117.813
  0
LINE
  8
0
 10
-21.98
 20
117.813
 11
-23.3382
 21
120.166
  0
LINE
  8
0
 10
-23.3382
 20
120.166
 11
-21.8736
 21
124.673
  0
LINE
  8
0
 10
-21.8736
 20
124.673
 11
-18.0194
 21
124.674
  0
LINE
  8
0
 10
-18.0194
 20
124.674
 11
-16.0396
 21
121.244
  0
LINE
  8
0
 10
-16.0396
 20
121.244
 11
-18.0194
 21
117.813
  0
LINE
  8
0
 10
-18.0194
 20
117.813
 11
-21.98
 21
117.813
  0
LINE
  8
0
 10
13.0202
 20
109.153
 11
9.05914
 21
109.153
  0
LINE
  8
0
 10
9.05914
 20
109.153
 11
11.0394
 21
112.583
  0
LINE
  8
0
 10
11.0394
 20
112.583
 11
9.0596
 21
116.013
  0
LINE
  8
0
 10
9.0596
 20
116.013
 11
13.0193
 21
116.012
  0
LINE
  8
0
 10
13.0193
 20
116.012
 11
15
 21
119.442
  0
LINE
  8
0
 10
15
 20
119.442
 11
16.9798
 21
116.013
  0
LINE
  8
0
 10
16.9798
 20
116.013
 11
20.9409
 21
116.013
  0
LINE
  8
0
 10
20.9409
 20
116.013
 11
18.9606
 21
112.583
  0
LINE
  8
0
 10
18.9606
 20
112.583
 11
20.9404
 21
109.153
  0
LINE
  8
0
 10
20.9404
 20
109.153
 11
16.9807
 21
109.153
  0
LINE
  8
0
 10
16.9807
 20
109.153
 11
15
 21
105.723
  0
LINE
  8
0
 10
15
 20
105.723
 11
13.0202
 21
109.153
  0
LINE
  8
0
 10
-16.9798
 20
109.153
 11
-20.9409
 21
109.153
  0
LINE
  8
0
 10
-20.9409
 20
109.153
 11
-18.9606
 21
112.583
  0
LINE
  8
0
 10
-18.9606
 20
112.583
 11
-20.9404
 21
116.013
  0
LINE
  8
0
 10
-20.9404
 20
116.013
 11
-16.9807
 21
116.012
  0
LINE
  8
0
 10
-16.9807
 20
116.012
 11
-15
 21
119.442
  0
LINE
  8
0
 10
-15
 20
119.442
 11
-13.0202
 21
116.013
  0
LINE
  8
0
 10
-13.0202
 20
116.013
 11
-9.05914
 21
116.013
  0
LINE
  8
0
 10
-9.05914
 20
116.013
 11
-11.0394
 21
112.583
  0
LINE
  8
0
 10
-11.0394
 20
112.583
 11
-9.0596
 21
109.153
  0
LINE
  8
0
 10
-9.0596
 20
109.153
 11
-13.0193
 21
109.153
  0
LINE
  8
0
 10
-13.0193
 20
109.153
 11
-15
 21
105.723
  0
LINE
  8
0
 10
-15
 20
105.723
 11
-16.9798
 21
109.153
  0
LINE
  8
0
 10
24.0591
 20
117.813
 11
24.087
 21
117.861
  0
LINE
  8
0
 10
24.087
 20
117.861
 11
24.1026
 21
117.813
  0
LINE
  8
0
 10
24.1026
 20
117.813
 11
24.0591
 21
117.813
  0
LINE
  8
0
 10
-24.1026
 20
117.813
 11
-24.0871
 21
117.861
  0
LINE
  8
0
 10
-24.0871
 20
117.861
 11
-24.0596
 21
117.813
  0
LINE
  8
0
 10
-24.0596
 20
117.813
 11
-24.1026
 21
117.813
  0
LINE
  8
0
 10
-26.9165
 20
109.153
 11
-24.6874
 21
116.013
  0
LINE
  8
0
 10
-24.6874
 20
116.013
 11
-23.02
 21
116.013
  0
LINE
  8
0
 10
-23.02
 20
116.013
 11
-21.0397
 21
112.583
  0
LINE
  8
0
 10
-21.0397
 20
112.583
 11
-23.0196
 21
109.153
  0
LINE
  8
0
 10
-23.0196
 20
109.153
 11
-26.9165
 21
109.153
  0
LINE
  8
0
 10
3.01941
 20
109.153
 11
1.03958
 21
112.583
  0
LINE
  8
0
 10
1.03958
 20
112.583
 11
3.01941
 21
116.013
  0
LINE
  8
0
 10
3.01941
 20
116.013
 11
6.97998
 21
116.013
  0
LINE
  8
0
 10
6.97998
 20
116.013
 11
8.96027
 21
112.583
  0
LINE
  8
0
 10
8.96027
 20
112.583
 11
6.98044
 21
109.153
  0
LINE
  8
0
 10
6.98044
 20
109.153
 11
3.01941
 21
109.153
  0
LINE
  8
0
 10
-6.98044
 20
109.153
 11
-8.96027
 21
112.583
  0
LINE
  8
0
 10
-8.96027
 20
112.583
 11
-6.98044
 21
116.013
  0
LINE
  8
0
 10
-6.98044
 20
116.013
 11
-3.01941
 21
116.013
  0
LINE
  8
0
 10
-3.01941
 20
116.013
 11
-1.03958
 21
112.583
  0
LINE
  8
0
 10
-1.03958
 20
112.583
 11
-3.01941
 21
109.153
  0
LINE
  8
0
 10
-3.01941
 20
109.153
 11
-6.98044
 21
109.153
  0
LINE
  8
0
 10
23.0196
 20
109.153
 11
21.0397
 21
112.583
  0
LINE
  8
0
 10
21.0397
 20
112.583
 11
23.0196
 21
116.013
  0
LINE
  8
0
 10
23.0196
 20
116.013
 11
24.6875
 21
116.013
  0
LINE
  8
0
 10
24.6875
 20
116.013
 11
26.9165
 21
109.153
  0
LINE
  8
0
 10
26.9165
 20
109.153
 11
23.0196
 21
109.153
  0
LINE
  8
0
 10
-1.97983
 20
100.493
 11
-5.94086
 21
100.493
  0
LINE
  8
0
 10
-5.94086
 20
100.493
 11
-3.96057
 21
103.923
  0
LINE
  8
0
 10
-3.96057
 20
103.923
 11
-5.9404
 21
107.353
  0
LINE
  8
0
 10
-5.9404
 20
107.353
 11
-1.98074
 21
107.352
  0
LINE
  8
0
 10
-1.98074
 20
107.352
 11
0
 21
110.782
  0
LINE
  8
0
 10
0
 20
110.782
 11
1.97983
 21
107.353
  0
LINE
  8
0
 10
1.97983
 20
107.353
 11
5.94086
 21
107.353
  0
LINE
  8
0
 10
5.94086
 20
107.353
 11
3.96057
 21
103.923
  0
LINE
  8
0
 10
3.96057
 20
103.923
 11
5.9404
 21
100.493
  0
LINE
  8
0
 10
5.9404
 20
100.493
 11
1.98074
 21
100.493
  0
LINE
  8
0
 10
1.98074
 20
100.493
 11
0
 21
97.0633
  0
LINE
  8
0
 10
0
 20
97.0633
 11
-1.97983
 21
100.493
  0
LINE
  8
0
 10
-21.98
 20
100.492
 11
-23.9603
 21
103.923
  0
LINE
  8
0
 10
-23.9603
 20
103.923
 11
-21.9804
 21
107.353
  0
LINE
  8
0
 10
-21.9804
 20
107.353
 11
-18.0194
 21
107.353
  0
LINE
  8
0
 10
-18.0194
 20
107.353
 11
-16.0396
 21
103.923
  0
LINE
  8
0
 10
-16.0396
 20
103.923
 11
-18.0194
 21
100.492
  0
LINE
  8
0
 10
-18.0194
 20
100.492
 11
-21.98
 21
100.492
  0
LINE
  8
0
 10
-13.9604
 20
103.922
 11
-11.9806
 21
107.353
  0
LINE
  8
0
 10
-11.9806
 20
107.353
 11
-8.01956
 21
107.353
  0
LINE
  8
0
 10
-8.01956
 20
107.353
 11
-6.03973
 21
103.923
  0
LINE
  8
0
 10
-6.03973
 20
103.923
 11
-8.01956
 21
100.493
  0
LINE
  8
0
 10
-8.01956
 20
100.493
 11
-11.9806
 21
100.492
  0
LINE
  8
0
 10
-11.9806
 20
100.492
 11
-13.9604
 21
103.922
  0
LINE
  8
0
 10
28.0202
 20
100.493
 11
24.0591
 21
100.493
  0
LINE
  8
0
 10
24.0591
 20
100.493
 11
26.0394
 21
103.923
  0
LINE
  8
0
 10
26.0394
 20
103.923
 11
24.0596
 21
107.353
  0
LINE
  8
0
 10
24.0596
 20
107.353
 11
27.5015
 21
107.353
  0
LINE
  8
0
 10
27.5015
 20
107.353
 11
30.5405
 21
97.9993
  0
LINE
  8
0
 10
30.5405
 20
97.9993
 11
30
 21
97.0633
  0
LINE
  8
0
 10
30
 20
97.0633
 11
28.0202
 21
100.493
  0
LINE
  8
0
 10
8.02002
 20
100.492
 11
6.03973
 21
103.923
  0
LINE
  8
0
 10
6.03973
 20
103.923
 11
8.01956
 21
107.353
  0
LINE
  8
0
 10
8.01956
 20
107.353
 11
11.9806
 21
107.353
  0
LINE
  8
0
 10
11.9806
 20
107.353
 11
13.9604
 21
103.923
  0
LINE
  8
0
 10
13.9604
 20
103.923
 11
11.9806
 21
100.492
  0
LINE
  8
0
 10
11.9806
 20
100.492
 11
8.02002
 21
100.492
  0
LINE
  8
0
 10
16.0396
 20
103.922
 11
18.0194
 21
107.353
  0
LINE
  8
0
 10
18.0194
 20
107.353
 11
21.9804
 21
107.353
  0
LINE
  8
0
 10
21.9804
 20
107.353
 11
23.9603
 21
103.923
  0
LINE
  8
0
 10
23.9603
 20
103.923
 11
21.9804
 21
100.493
  0
LINE
  8
0
 10
21.9804
 20
100.493
 11
18.0194
 21
100.492
  0
LINE
  8
0
 10
18.0194
 20
100.492
 11
16.0396
 21
103.922
  0
LINE
  8
0
 10
-30.5405
 20
97.9995
 11
-27.5014
 21
107.353
  0
LINE
  8
0
 10
-27.5014
 20
107.353
 11
-24.0591
 21
107.353
  0
LINE
  8
0
 10
-24.0591
 20
107.353
 11
-26.0394
 21
103.923
  0
LINE
  8
0
 10
-26.0394
 20
103.923
 11
-24.0596
 21
100.493
  0
LINE
  8
0
 10
-24.0596
 20
100.493
 11
-28.0193
 21
100.493
  0
LINE
  8
0
 10
-28.0193
 20
100.493
 11
-30
 21
97.0633
  0
LINE
  8
0
 10
-30
 20
97.0633
 11
-30.5405
 21
97.9995
  0
LINE
  8
0
 10
-16.9798
 20
91.8324
 11
-20.9409
 21
91.8324
  0
LINE
  8
0
 10
-20.9409
 20
91.8324
 11
-18.9606
 21
95.2625
  0
LINE
  8
0
 10
-18.9606
 20
95.2625
 11
-20.9404
 21
98.6925
  0
LINE
  8
0
 10
-20.9404
 20
98.6925
 11
-16.9807
 21
98.692
  0
LINE
  8
0
 10
-16.9807
 20
98.692
 11
-15
 21
102.122
  0
LINE
  8
0
 10
-15
 20
102.122
 11
-13.0202
 21
98.6925
  0
LINE
  8
0
 10
-13.0202
 20
98.6925
 11
-9.05914
 21
98.6925
  0
LINE
  8
0
 10
-9.05914
 20
98.6925
 11
-11.0394
 21
95.2625
  0
LINE
  8
0
 10
-11.0394
 20
95.2625
 11
-9.0596
 21
91.8324
  0
LINE
  8
0
 10
-9.0596
 20
91.8324
 11
-13.0193
 21
91.8329
  0
LINE
  8
0
 10
-13.0193
 20
91.8329
 11
-15
 21
88.4029
  0
LINE
  8
0
 10
-15
 20
88.4029
 11
-16.9798
 21
91.8324
  0
LINE
  8
0
 10
13.0202
 20
91.8324
 11
9.05914
 21
91.8324
  0
LINE
  8
0
 10
9.05914
 20
91.8324
 11
11.0394
 21
95.2625
  0
LINE
  8
0
 10
11.0394
 20
95.2625
 11
9.0596
 21
98.6925
  0
LINE
  8
0
 10
9.0596
 20
98.6925
 11
13.0193
 21
98.692
  0
LINE
  8
0
 10
13.0193
 20
98.692
 11
15
 21
102.122
  0
LINE
  8
0
 10
15
 20
102.122
 11
16.9798
 21
98.6925
  0
LINE
  8
0
 10
16.9798
 20
98.6925
 11
20.9409
 21
98.6925
  0
LINE
  8
0
 10
20.9409
 20
98.6925
 11
18.9606
 21
95.2625
  0
LINE
  8
0
 10
18.9606
 20
95.2625
 11
20.9404
 21
91.8324
  0
LINE
  8
0
 10
20.9404
 20
91.8324
 11
16.9807
 21
91.8329
  0
LINE
  8
0
 10
16.9807
 20
91.8329
 11
15
 21
88.4029
  0
LINE
  8
0
 10
15
 20
88.4029
 11
13.0202
 21
91.8324
  0
LINE
  8
0
 10
-6.98044
 20
91.8324
 11
-8.96027
 21
95.2625
  0
LINE
  8
0
 10
-8.96027
 20
95.2625
 11
-6.98044
 21
98.6925
  0
LINE
  8
0
 10
-6.98044
 20
98.6925
 11
-3.01941
 21
98.6929
  0
LINE
  8
0
 10
-3.01941
 20
98.6929
 11
-1.03958
 21
95.2629
  0
LINE
  8
0
 10
-1.03958
 20
95.2629
 11
-3.01941
 21
91.8324
  0
LINE
  8
0
 10
-3.01941
 20
91.8324
 11
-6.98044
 21
91.8324
  0
LINE
  8
0
 10
3.01941
 20
91.8324
 11
1.03958
 21
95.2625
  0
LINE
  8
0
 10
1.03958
 20
95.2625
 11
3.01941
 21
98.6929
  0
LINE
  8
0
 10
3.01941
 20
98.6929
 11
6.97998
 21
98.6929
  0
LINE
  8
0
 10
6.97998
 20
98.6929
 11
8.96027
 21
95.2625
  0
LINE
  8
0
 10
8.96027
 20
95.2625
 11
6.98044
 21
91.8324
  0
LINE
  8
0
 10
6.98044
 20
91.8324
 11
3.01941
 21
91.8324
  0
LINE
  8
0
 10
-26.9806
 20
91.8324
 11
-28.9604
 21
95.2625
  0
LINE
  8
0
 10
-28.9604
 20
95.2625
 11
-26.9806
 21
98.6929
  0
LINE
  8
0
 10
-26.9806
 20
98.6929
 11
-23.02
 21
98.6929
  0
LINE
  8
0
 10
-23.02
 20
98.6929
 11
-21.0397
 21
95.2625
  0
LINE
  8
0
 10
-21.0397
 20
95.2625
 11
-23.0196
 21
91.8324
  0
LINE
  8
0
 10
-23.0196
 20
91.8324
 11
-26.9806
 21
91.8324
  0
LINE
  8
0
 10
23.0196
 20
91.8324
 11
21.0397
 21
95.2625
  0
LINE
  8
0
 10
21.0397
 20
95.2625
 11
23.0196
 21
98.6925
  0
LINE
  8
0
 10
23.0196
 20
98.6925
 11
26.9806
 21
98.6929
  0
LINE
  8
0
 10
26.9806
 20
98.6929
 11
28.9604
 21
95.2629
  0
LINE
  8
0
 10
28.9604
 20
95.2629
 11
26.9806
 21
91.8324
  0
LINE
  8
0
 10
26.9806
 20
91.8324
 11
23.0196
 21
91.8324
  0
LINE
  8
0
 10
-31.2892
 20
95.6953
 11
-31.0396
 21
95.2629
  0
LINE
  8
0
 10
-31.0396
 20
95.2629
 11
-31.9322
 21
93.7163
  0
LINE
  8
0
 10
-31.9322
 20
93.7163
 11
-31.2892
 21
95.6953
  0
LINE
  8
0
 10
31.0396
 20
95.2625
 11
31.2892
 21
95.6951
  0
LINE
  8
0
 10
31.2892
 20
95.6951
 11
31.9324
 21
93.7157
  0
LINE
  8
0
 10
31.9324
 20
93.7157
 11
31.0396
 21
95.2625
  0
LINE
  8
0
 10
-31.9798
 20
83.1725
 11
-35.3581
 21
83.1725
  0
LINE
  8
0
 10
-35.3581
 20
83.1725
 11
-34.6079
 21
85.4812
  0
LINE
  8
0
 10
-34.6079
 20
85.4812
 11
-33.9606
 21
86.6025
  0
LINE
  8
0
 10
-33.9606
 20
86.6025
 11
-34.1417
 21
86.9162
  0
LINE
  8
0
 10
-34.1417
 20
86.9162
 11
-33.1292
 21
90.0322
  0
LINE
  8
0
 10
-33.1292
 20
90.0322
 11
-31.9807
 21
90.032
  0
LINE
  8
0
 10
-31.9807
 20
90.032
 11
-30
 21
93.4621
  0
LINE
  8
0
 10
-30
 20
93.4621
 11
-28.0202
 21
90.0325
  0
LINE
  8
0
 10
-28.0202
 20
90.0325
 11
-24.0591
 21
90.0325
  0
LINE
  8
0
 10
-24.0591
 20
90.0325
 11
-26.0394
 21
86.6025
  0
LINE
  8
0
 10
-26.0394
 20
86.6025
 11
-24.0596
 21
83.1725
  0
LINE
  8
0
 10
-24.0596
 20
83.1725
 11
-28.0193
 21
83.1729
  0
LINE
  8
0
 10
-28.0193
 20
83.1729
 11
-30
 21
79.7429
  0
LINE
  8
0
 10
-30
 20
79.7429
 11
-31.9798
 21
83.1725
  0
LINE
  8
0
 10
-1.97983
 20
83.1725
 11
-5.94086
 21
83.1725
  0
LINE
  8
0
 10
-5.94086
 20
83.1725
 11
-3.96057
 21
86.6025
  0
LINE
  8
0
 10
-3.96057
 20
86.6025
 11
-5.9404
 21
90.0325
  0
LINE
  8
0
 10
-5.9404
 20
90.0325
 11
-1.98074
 21
90.032
  0
LINE
  8
0
 10
-1.98074
 20
90.032
 11
0
 21
93.4621
  0
LINE
  8
0
 10
0
 20
93.4621
 11
1.97983
 21
90.0325
  0
LINE
  8
0
 10
1.97983
 20
90.0325
 11
5.94086
 21
90.0325
  0
LINE
  8
0
 10
5.94086
 20
90.0325
 11
3.96057
 21
86.6025
  0
LINE
  8
0
 10
3.96057
 20
86.6025
 11
5.9404
 21
83.1725
  0
LINE
  8
0
 10
5.9404
 20
83.1725
 11
1.98074
 21
83.1729
  0
LINE
  8
0
 10
1.98074
 20
83.1729
 11
0
 21
79.7429
  0
LINE
  8
0
 10
0
 20
79.7429
 11
-1.97983
 21
83.1725
  0
LINE
  8
0
 10
28.0202
 20
83.1725
 11
24.0591
 21
83.1725
  0
LINE
  8
0
 10
24.0591
 20
83.1725
 11
26.0394
 21
86.6025
  0
LINE
  8
0
 10
26.0394
 20
86.6025
 11
24.0596
 21
90.0325
  0
LINE
  8
0
 10
24.0596
 20
90.0325
 11
28.0193
 21
90.032
  0
LINE
  8
0
 10
28.0193
 20
90.032
 11
30
 21
93.4621
  0
LINE
  8
0
 10
30
 20
93.4621
 11
31.9798
 21
90.0325
  0
LINE
  8
0
 10
31.9798
 20
90.0325
 11
33.1291
 21
90.0325
  0
LINE
  8
0
 10
33.1291
 20
90.0325
 11
34.1417
 21
86.9162
  0
LINE
  8
0
 10
34.1417
 20
86.9162
 11
33.9606
 21
86.6025
  0
LINE
  8
0
 10
33.9606
 20
86.6025
 11
34.6081
 21
85.4806
  0
LINE
  8
0
 10
34.6081
 20
85.4806
 11
35.3581
 21
83.1725
  0
LINE
  8
0
 10
35.3581
 20
83.1725
 11
31.9807
 21
83.1729
  0
LINE
  8
0
 10
31.9807
 20
83.1729
 11
30
 21
79.7429
  0
LINE
  8
0
 10
30
 20
79.7429
 11
28.0202
 21
83.1725
  0
LINE
  8
0
 10
-21.98
 20
83.172
 11
-23.9603
 21
86.6025
  0
LINE
  8
0
 10
-23.9603
 20
86.6025
 11
-21.9804
 21
90.0325
  0
LINE
  8
0
 10
-21.9804
 20
90.0325
 11
-18.0194
 21
90.0325
  0
LINE
  8
0
 10
-18.0194
 20
90.0325
 11
-16.0396
 21
86.6025
  0
LINE
  8
0
 10
-16.0396
 20
86.6025
 11
-18.0194
 21
83.172
  0
LINE
  8
0
 10
-18.0194
 20
83.172
 11
-21.98
 21
83.172
  0
LINE
  8
0
 10
8.02002
 20
83.172
 11
6.03973
 21
86.6025
  0
LINE
  8
0
 10
6.03973
 20
86.6025
 11
8.01956
 21
90.0325
  0
LINE
  8
0
 10
8.01956
 20
90.0325
 11
11.9806
 21
90.0325
  0
LINE
  8
0
 10
11.9806
 20
90.0325
 11
13.9604
 21
86.6025
  0
LINE
  8
0
 10
13.9604
 20
86.6025
 11
11.9806
 21
83.172
  0
LINE
  8
0
 10
11.9806
 20
83.172
 11
8.02002
 21
83.172
  0
LINE
  8
0
 10
16.0396
 20
86.602
 11
18.0194
 21
90.0325
  0
LINE
  8
0
 10
18.0194
 20
90.0325
 11
21.9804
 21
90.0325
  0
LINE
  8
0
 10
21.9804
 20
90.0325
 11
23.9603
 21
86.6025
  0
LINE
  8
0
 10
23.9603
 20
86.6025
 11
21.9804
 21
83.1725
  0
LINE
  8
0
 10
21.9804
 20
83.1725
 11
18.0194
 21
83.172
  0
LINE
  8
0
 10
18.0194
 20
83.172
 11
16.0396
 21
86.602
  0
LINE
  8
0
 10
-13.9604
 20
86.602
 11
-11.9806
 21
90.0325
  0
LINE
  8
0
 10
-11.9806
 20
90.0325
 11
-8.01956
 21
90.0325
  0
LINE
  8
0
 10
-8.01956
 20
90.0325
 11
-6.03973
 21
86.6025
  0
LINE
  8
0
 10
-6.03973
 20
86.6025
 11
-8.01956
 21
83.1725
  0
LINE
  8
0
 10
-8.01956
 20
83.1725
 11
-11.9806
 21
83.172
  0
LINE
  8
0
 10
-11.9806
 20
83.172
 11
-13.9604
 21
86.602
  0
LINE
  8
0
 10
13.0202
 20
74.512
 11
9.05914
 21
74.512
  0
LINE
  8
0
 10
9.05914
 20
74.512
 11
11.0394
 21
77.942
  0
LINE
  8
0
 10
11.0394
 20
77.942
 11
9.0596
 21
81.3721
  0
LINE
  8
0
 10
9.0596
 20
81.3721
 11
13.0193
 21
81.3716
  0
LINE
  8
0
 10
13.0193
 20
81.3716
 11
15
 21
84.8016
  0
LINE
  8
0
 10
15
 20
84.8016
 11
16.9798
 21
81.3721
  0
LINE
  8
0
 10
16.9798
 20
81.3721
 11
20.9409
 21
81.3721
  0
LINE
  8
0
 10
20.9409
 20
81.3721
 11
18.9606
 21
77.942
  0
LINE
  8
0
 10
18.9606
 20
77.942
 11
20.9404
 21
74.512
  0
LINE
  8
0
 10
20.9404
 20
74.512
 11
16.9807
 21
74.5125
  0
LINE
  8
0
 10
16.9807
 20
74.5125
 11
15
 21
71.0825
  0
LINE
  8
0
 10
15
 20
71.0825
 11
13.0202
 21
74.512
  0
LINE
  8
0
 10
-16.9798
 20
74.512
 11
-20.9409
 21
74.512
  0
LINE
  8
0
 10
-20.9409
 20
74.512
 11
-18.9606
 21
77.942
  0
LINE
  8
0
 10
-18.9606
 20
77.942
 11
-20.9404
 21
81.3721
  0
LINE
  8
0
 10
-20.9404
 20
81.3721
 11
-16.9807
 21
81.3716
  0
LINE
  8
0
 10
-16.9807
 20
81.3716
 11
-15
 21
84.8016
  0
LINE
  8
0
 10
-15
 20
84.8016
 11
-13.0202
 21
81.3721
  0
LINE
  8
0
 10
-13.0202
 20
81.3721
 11
-9.05914
 21
81.3721
  0
LINE
  8
0
 10
-9.05914
 20
81.3721
 11
-11.0394
 21
77.942
  0
LINE
  8
0
 10
-11.0394
 20
77.942
 11
-9.0596
 21
74.512
  0
LINE
  8
0
 10
-9.0596
 20
74.512
 11
-13.0193
 21
74.5125
  0
LINE
  8
0
 10
-13.0193
 20
74.5125
 11
-15
 21
71.0825
  0
LINE
  8
0
 10
-15
 20
71.0825
 11
-16.9798
 21
74.512
  0
LINE
  8
0
 10
-36.98
 20
74.5116
 11
-37.7428
 21
75.833
  0
LINE
  8
0
 10
-37.7428
 20
75.833
 11
-35.943
 21
81.3722
  0
LINE
  8
0
 10
-35.943
 20
81.3722
 11
-33.0194
 21
81.3725
  0
LINE
  8
0
 10
-33.0194
 20
81.3725
 11
-31.0396
 21
77.9425
  0
LINE
  8
0
 10
-31.0396
 20
77.9425
 11
-33.0194
 21
74.5116
  0
LINE
  8
0
 10
-33.0194
 20
74.5116
 11
-36.98
 21
74.5116
  0
LINE
  8
0
 10
23.02
 20
74.5116
 11
21.0397
 21
77.942
  0
LINE
  8
0
 10
21.0397
 20
77.942
 11
23.0196
 21
81.3721
  0
LINE
  8
0
 10
23.0196
 20
81.3721
 11
26.9806
 21
81.3725
  0
LINE
  8
0
 10
26.9806
 20
81.3725
 11
28.9604
 21
77.9425
  0
LINE
  8
0
 10
28.9604
 20
77.9425
 11
26.9806
 21
74.5116
  0
LINE
  8
0
 10
26.9806
 20
74.5116
 11
23.02
 21
74.5116
  0
LINE
  8
0
 10
-26.9806
 20
74.5116
 11
-28.9604
 21
77.9416
  0
LINE
  8
0
 10
-28.9604
 20
77.9416
 11
-26.9806
 21
81.3725
  0
LINE
  8
0
 10
-26.9806
 20
81.3725
 11
-23.02
 21
81.3725
  0
LINE
  8
0
 10
-23.02
 20
81.3725
 11
-21.0397
 21
77.942
  0
LINE
  8
0
 10
-21.0397
 20
77.942
 11
-23.02
 21
74.5116
  0
LINE
  8
0
 10
-23.02
 20
74.5116
 11
-26.9806
 21
74.5116
  0
LINE
  8
0
 10
3.01941
 20
74.5116
 11
1.03958
 21
77.9416
  0
LINE
  8
0
 10
1.03958
 20
77.9416
 11
3.01941
 21
81.3725
  0
LINE
  8
0
 10
3.01941
 20
81.3725
 11
6.97998
 21
81.3725
  0
LINE
  8
0
 10
6.97998
 20
81.3725
 11
8.96027
 21
77.942
  0
LINE
  8
0
 10
8.96027
 20
77.942
 11
6.97998
 21
74.5116
  0
LINE
  8
0
 10
6.97998
 20
74.5116
 11
3.01941
 21
74.5116
  0
LINE
  8
0
 10
-6.97998
 20
74.5116
 11
-8.96027
 21
77.942
  0
LINE
  8
0
 10
-8.96027
 20
77.942
 11
-6.98044
 21
81.3721
  0
LINE
  8
0
 10
-6.98044
 20
81.3721
 11
-3.01941
 21
81.3725
  0
LINE
  8
0
 10
-3.01941
 20
81.3725
 11
-1.03958
 21
77.9425
  0
LINE
  8
0
 10
-1.03958
 20
77.9425
 11
-3.01941
 21
74.5116
  0
LINE
  8
0
 10
-3.01941
 20
74.5116
 11
-6.97998
 21
74.5116
  0
LINE
  8
0
 10
33.0194
 20
74.5116
 11
31.0396
 21
77.9416
  0
LINE
  8
0
 10
31.0396
 20
77.9416
 11
33.0194
 21
81.3725
  0
LINE
  8
0
 10
33.0194
 20
81.3725
 11
35.9429
 21
81.3725
  0
LINE
  8
0
 10
35.9429
 20
81.3725
 11
37.7428
 21
75.833
  0
LINE
  8
0
 10
37.7428
 20
75.833
 11
36.98
 21
74.5116
  0
LINE
  8
0
 10
36.98
 20
74.5116
 11
33.0194
 21
74.5116
  0
LINE
  8
0
 10
28.0202
 20
65.8516
 11
24.0591
 21
65.8516
  0
LINE
  8
0
 10
24.0591
 20
65.8516
 11
26.0394
 21
69.2816
  0
LINE
  8
0
 10
26.0394
 20
69.2816
 11
24.0596
 21
72.7116
  0
LINE
  8
0
 10
24.0596
 20
72.7116
 11
28.0193
 21
72.7112
  0
LINE
  8
0
 10
28.0193
 20
72.7112
 11
30
 21
76.1412
  0
LINE
  8
0
 10
30
 20
76.1412
 11
31.9798
 21
72.7116
  0
LINE
  8
0
 10
31.9798
 20
72.7116
 11
35.9409
 21
72.7116
  0
LINE
  8
0
 10
35.9409
 20
72.7116
 11
33.9606
 21
69.2816
  0
LINE
  8
0
 10
33.9606
 20
69.2816
 11
35.9404
 21
65.8516
  0
LINE
  8
0
 10
35.9404
 20
65.8516
 11
31.9807
 21
65.8521
  0
LINE
  8
0
 10
31.9807
 20
65.8521
 11
30
 21
62.422
  0
LINE
  8
0
 10
30
 20
62.422
 11
28.0202
 21
65.8516
  0
LINE
  8
0
 10
-31.9798
 20
65.8516
 11
-35.9409
 21
65.8516
  0
LINE
  8
0
 10
-35.9409
 20
65.8516
 11
-33.9606
 21
69.2816
  0
LINE
  8
0
 10
-33.9606
 20
69.2816
 11
-35.9404
 21
72.7116
  0
LINE
  8
0
 10
-35.9404
 20
72.7116
 11
-31.9807
 21
72.7112
  0
LINE
  8
0
 10
-31.9807
 20
72.7112
 11
-30
 21
76.1412
  0
LINE
  8
0
 10
-30
 20
76.1412
 11
-28.0202
 21
72.7116
  0
LINE
  8
0
 10
-28.0202
 20
72.7116
 11
-24.0591
 21
72.7116
  0
LINE
  8
0
 10
-24.0591
 20
72.7116
 11
-26.0394
 21
69.2816
  0
LINE
  8
0
 10
-26.0394
 20
69.2816
 11
-24.0596
 21
65.8516
  0
LINE
  8
0
 10
-24.0596
 20
65.8516
 11
-28.0193
 21
65.8521
  0
LINE
  8
0
 10
-28.0193
 20
65.8521
 11
-30
 21
62.422
  0
LINE
  8
0
 10
-30
 20
62.422
 11
-31.9798
 21
65.8516
  0
LINE
  8
0
 10
-1.97983
 20
65.8516
 11
-5.94086
 21
65.8516
  0
LINE
  8
0
 10
-5.94086
 20
65.8516
 11
-3.96057
 21
69.2816
  0
LINE
  8
0
 10
-3.96057
 20
69.2816
 11
-5.9404
 21
72.7116
  0
LINE
  8
0
 10
-5.9404
 20
72.7116
 11
-1.98074
 21
72.7112
  0
LINE
  8
0
 10
-1.98074
 20
72.7112
 11
0
 21
76.1412
  0
LINE
  8
0
 10
0
 20
76.1412
 11
1.97983
 21
72.7116
  0
LINE
  8
0
 10
1.97983
 20
72.7116
 11
5.94086
 21
72.7116
  0
LINE
  8
0
 10
5.94086
 20
72.7116
 11
3.96057
 21
69.2816
  0
LINE
  8
0
 10
3.96057
 20
69.2816
 11
5.9404
 21
65.8516
  0
LINE
  8
0
 10
5.9404
 20
65.8516
 11
1.98074
 21
65.8521
  0
LINE
  8
0
 10
1.98074
 20
65.8521
 11
0
 21
62.422
  0
LINE
  8
0
 10
0
 20
62.422
 11
-1.97983
 21
65.8516
  0
LINE
  8
0
 10
-40.986
 20
65.8516
 11
-38.7569
 21
72.7121
  0
LINE
  8
0
 10
-38.7569
 20
72.7121
 11
-38.02
 21
72.7121
  0
LINE
  8
0
 10
-38.02
 20
72.7121
 11
-36.0397
 21
69.2816
  0
LINE
  8
0
 10
-36.0397
 20
69.2816
 11
-38.0196
 21
65.8516
  0
LINE
  8
0
 10
-38.0196
 20
65.8516
 11
-40.986
 21
65.8516
  0
LINE
  8
0
 10
-21.9804
 20
65.8516
 11
-23.9603
 21
69.2816
  0
LINE
  8
0
 10
-23.9603
 20
69.2816
 11
-21.9804
 21
72.7116
  0
LINE
  8
0
 10
-21.9804
 20
72.7116
 11
-18.0194
 21
72.7121
  0
LINE
  8
0
 10
-18.0194
 20
72.7121
 11
-16.0396
 21
69.2821
  0
LINE
  8
0
 10
-16.0396
 20
69.2821
 11
-18.0194
 21
65.8516
  0
LINE
  8
0
 10
-18.0194
 20
65.8516
 11
-21.9804
 21
65.8516
  0
LINE
  8
0
 10
-11.9806
 20
65.8516
 11
-13.9604
 21
69.2816
  0
LINE
  8
0
 10
-13.9604
 20
69.2816
 11
-11.9806
 21
72.7121
  0
LINE
  8
0
 10
-11.9806
 20
72.7121
 11
-8.02002
 21
72.7121
  0
LINE
  8
0
 10
-8.02002
 20
72.7121
 11
-6.03973
 21
69.2816
  0
LINE
  8
0
 10
-6.03973
 20
69.2816
 11
-8.01956
 21
65.8516
  0
LINE
  8
0
 10
-8.01956
 20
65.8516
 11
-11.9806
 21
65.8516
  0
LINE
  8
0
 10
8.01956
 20
65.8516
 11
6.03973
 21
69.2816
  0
LINE
  8
0
 10
6.03973
 20
69.2816
 11
8.01956
 21
72.7116
  0
LINE
  8
0
 10
8.01956
 20
72.7116
 11
11.9806
 21
72.7121
  0
LINE
  8
0
 10
11.9806
 20
72.7121
 11
13.9604
 21
69.2821
  0
LINE
  8
0
 10
13.9604
 20
69.2821
 11
11.9806
 21
65.8516
  0
LINE
  8
0
 10
11.9806
 20
65.8516
 11
8.01956
 21
65.8516
  0
LINE
  8
0
 10
18.0194
 20
65.8516
 11
16.0396
 21
69.2816
  0
LINE
  8
0
 10
16.0396
 20
69.2816
 11
18.0194
 21
72.7121
  0
LINE
  8
0
 10
18.0194
 20
72.7121
 11
21.98
 21
72.7121
  0
LINE
  8
0
 10
21.98
 20
72.7121
 11
23.9603
 21
69.2816
  0
LINE
  8
0
 10
23.9603
 20
69.2816
 11
21.9804
 21
65.8516
  0
LINE
  8
0
 10
21.9804
 20
65.8516
 11
18.0194
 21
65.8516
  0
LINE
  8
0
 10
38.0196
 20
65.8516
 11
36.0397
 21
69.2816
  0
LINE
  8
0
 10
36.0397
 20
69.2816
 11
38.0196
 21
72.7116
  0
LINE
  8
0
 10
38.0196
 20
72.7116
 11
38.757
 21
72.7117
  0
LINE
  8
0
 10
38.757
 20
72.7117
 11
40.986
 21
65.8516
  0
LINE
  8
0
 10
40.986
 20
65.8516
 11
38.0196
 21
65.8516
  0
LINE
  8
0
 10
-16.9798
 20
57.1916
 11
-20.9409
 21
57.1916
  0
LINE
  8
0
 10
-20.9409
 20
57.1916
 11
-18.9606
 21
60.6216
  0
LINE
  8
0
 10
-18.9606
 20
60.6216
 11
-20.9404
 21
64.0517
  0
LINE
  8
0
 10
-20.9404
 20
64.0517
 11
-16.9807
 21
64.0512
  0
LINE
  8
0
 10
-16.9807
 20
64.0512
 11
-15
 21
67.4812
  0
LINE
  8
0
 10
-15
 20
67.4812
 11
-13.0202
 21
64.0517
  0
LINE
  8
0
 10
-13.0202
 20
64.0517
 11
-9.05914
 21
64.0517
  0
LINE
  8
0
 10
-9.05914
 20
64.0517
 11
-11.0394
 21
60.6216
  0
LINE
  8
0
 10
-11.0394
 20
60.6216
 11
-9.0596
 21
57.1916
  0
LINE
  8
0
 10
-9.0596
 20
57.1916
 11
-13.0193
 21
57.1921
  0
LINE
  8
0
 10
-13.0193
 20
57.1921
 11
-15
 21
53.7621
  0
LINE
  8
0
 10
-15
 20
53.7621
 11
-16.9798
 21
57.1916
  0
LINE
  8
0
 10
13.0202
 20
57.1916
 11
9.05914
 21
57.1916
  0
LINE
  8
0
 10
9.05914
 20
57.1916
 11
11.0394
 21
60.6216
  0
LINE
  8
0
 10
11.0394
 20
60.6216
 11
9.0596
 21
64.0517
  0
LINE
  8
0
 10
9.0596
 20
64.0517
 11
13.0193
 21
64.0512
  0
LINE
  8
0
 10
13.0193
 20
64.0512
 11
15
 21
67.4812
  0
LINE
  8
0
 10
15
 20
67.4812
 11
16.9798
 21
64.0517
  0
LINE
  8
0
 10
16.9798
 20
64.0517
 11
20.9409
 21
64.0517
  0
LINE
  8
0
 10
20.9409
 20
64.0517
 11
18.9606
 21
60.6216
  0
LINE
  8
0
 10
18.9606
 20
60.6216
 11
20.9404
 21
57.1916
  0
LINE
  8
0
 10
20.9404
 20
57.1916
 11
16.9807
 21
57.1921
  0
LINE
  8
0
 10
16.9807
 20
57.1921
 11
15
 21
53.7621
  0
LINE
  8
0
 10
15
 20
53.7621
 11
13.0202
 21
57.1916
  0
LINE
  8
0
 10
43.0202
 20
57.1916
 11
39.0591
 21
57.1916
  0
LINE
  8
0
 10
39.0591
 20
57.1916
 11
41.0394
 21
60.6216
  0
LINE
  8
0
 10
41.0394
 20
60.6216
 11
39.0596
 21
64.0517
  0
LINE
  8
0
 10
39.0596
 20
64.0517
 11
41.5709
 21
64.0514
  0
LINE
  8
0
 10
41.5709
 20
64.0514
 11
44.8035
 21
54.1024
  0
LINE
  8
0
 10
44.8035
 20
54.1024
 11
43.0202
 21
57.1916
  0
LINE
  8
0
 10
23.02
 20
57.1912
 11
21.0397
 21
60.6216
  0
LINE
  8
0
 10
21.0397
 20
60.6216
 11
23.0196
 21
64.0517
  0
LINE
  8
0
 10
23.0196
 20
64.0517
 11
26.9806
 21
64.0517
  0
LINE
  8
0
 10
26.9806
 20
64.0517
 11
28.9604
 21
60.6216
  0
LINE
  8
0
 10
28.9604
 20
60.6216
 11
26.9806
 21
57.1912
  0
LINE
  8
0
 10
26.9806
 20
57.1912
 11
23.02
 21
57.1912
  0
LINE
  8
0
 10
-36.98
 20
57.1912
 11
-38.9603
 21
60.6216
  0
LINE
  8
0
 10
-38.9603
 20
60.6216
 11
-36.9804
 21
64.0517
  0
LINE
  8
0
 10
-36.9804
 20
64.0517
 11
-33.0194
 21
64.0517
  0
LINE
  8
0
 10
-33.0194
 20
64.0517
 11
-31.0396
 21
60.6216
  0
LINE
  8
0
 10
-31.0396
 20
60.6216
 11
-33.0194
 21
57.1912
  0
LINE
  8
0
 10
-33.0194
 20
57.1912
 11
-36.98
 21
57.1912
  0
LINE
  8
0
 10
-28.9604
 20
60.6212
 11
-26.9806
 21
64.0517
  0
LINE
  8
0
 10
-26.9806
 20
64.0517
 11
-23.0196
 21
64.0517
  0
LINE
  8
0
 10
-23.0196
 20
64.0517
 11
-21.0397
 21
60.6216
  0
LINE
  8
0
 10
-21.0397
 20
60.6216
 11
-23.0196
 21
57.1916
  0
LINE
  8
0
 10
-23.0196
 20
57.1916
 11
-26.9806
 21
57.1912
  0
LINE
  8
0
 10
-26.9806
 20
57.1912
 11
-28.9604
 21
60.6212
  0
LINE
  8
0
 10
-6.97998
 20
57.1912
 11
-8.96027
 21
60.6216
  0
LINE
  8
0
 10
-8.96027
 20
60.6216
 11
-6.98044
 21
64.0517
  0
LINE
  8
0
 10
-6.98044
 20
64.0517
 11
-3.01941
 21
64.0517
  0
LINE
  8
0
 10
-3.01941
 20
64.0517
 11
-1.03958
 21
60.6216
  0
LINE
  8
0
 10
-1.03958
 20
60.6216
 11
-3.01941
 21
57.1912
  0
LINE
  8
0
 10
-3.01941
 20
57.1912
 11
-6.97998
 21
57.1912
  0
LINE
  8
0
 10
31.0396
 20
60.6212
 11
33.0194
 21
64.0517
  0
LINE
  8
0
 10
33.0194
 20
64.0517
 11
36.9804
 21
64.0517
  0
LINE
  8
0
 10
36.9804
 20
64.0517
 11
38.9603
 21
60.6216
  0
LINE
  8
0
 10
38.9603
 20
60.6216
 11
36.9804
 21
57.1916
  0
LINE
  8
0
 10
36.9804
 20
57.1916
 11
33.0194
 21
57.1912
  0
LINE
  8
0
 10
33.0194
 20
57.1912
 11
31.0396
 21
60.6212
  0
LINE
  8
0
 10
1.03958
 20
60.6212
 11
3.01941
 21
64.0517
  0
LINE
  8
0
 10
3.01941
 20
64.0517
 11
6.98044
 21
64.0517
  0
LINE
  8
0
 10
6.98044
 20
64.0517
 11
8.96027
 21
60.6216
  0
LINE
  8
0
 10
8.96027
 20
60.6216
 11
6.98044
 21
57.1916
  0
LINE
  8
0
 10
6.98044
 20
57.1916
 11
3.01941
 21
57.1912
  0
LINE
  8
0
 10
3.01941
 20
57.1912
 11
1.03958
 21
60.6212
  0
LINE
  8
0
 10
-41.5708
 20
64.0517
 11
-39.0591
 21
64.0517
  0
LINE
  8
0
 10
-39.0591
 20
64.0517
 11
-41.0394
 21
60.6216
  0
LINE
  8
0
 10
-41.0394
 20
60.6216
 11
-39.0596
 21
57.1916
  0
LINE
  8
0
 10
-39.0596
 20
57.1916
 11
-43.0193
 21
57.1921
  0
LINE
  8
0
 10
-43.0193
 20
57.1921
 11
-44.8036
 21
54.1022
  0
LINE
  8
0
 10
-44.8036
 20
54.1022
 11
-41.5708
 21
64.0517
  0
LINE
  8
0
 10
-1.97983
 20
48.5312
 11
-5.94086
 21
48.5312
  0
LINE
  8
0
 10
-5.94086
 20
48.5312
 11
-3.96057
 21
51.9612
  0
LINE
  8
0
 10
-3.96057
 20
51.9612
 11
-5.9404
 21
55.3912
  0
LINE
  8
0
 10
-5.9404
 20
55.3912
 11
-1.98074
 21
55.3908
  0
LINE
  8
0
 10
-1.98074
 20
55.3908
 11
0
 21
58.8208
  0
LINE
  8
0
 10
0
 20
58.8208
 11
1.97983
 21
55.3912
  0
LINE
  8
0
 10
1.97983
 20
55.3912
 11
5.94086
 21
55.3912
  0
LINE
  8
0
 10
5.94086
 20
55.3912
 11
3.96057
 21
51.9612
  0
LINE
  8
0
 10
3.96057
 20
51.9612
 11
5.9404
 21
48.5312
  0
LINE
  8
0
 10
5.9404
 20
48.5312
 11
1.98074
 21
48.5316
  0
LINE
  8
0
 10
1.98074
 20
48.5316
 11
0
 21
45.1016
  0
LINE
  8
0
 10
0
 20
45.1016
 11
-1.97983
 21
48.5312
  0
LINE
  8
0
 10
28.0202
 20
48.5312
 11
24.0591
 21
48.5312
  0
LINE
  8
0
 10
24.0591
 20
48.5312
 11
26.0394
 21
51.9612
  0
LINE
  8
0
 10
26.0394
 20
51.9612
 11
24.0596
 21
55.3912
  0
LINE
  8
0
 10
24.0596
 20
55.3912
 11
28.0193
 21
55.3908
  0
LINE
  8
0
 10
28.0193
 20
55.3908
 11
30
 21
58.8208
  0
LINE
  8
0
 10
30
 20
58.8208
 11
31.9798
 21
55.3912
  0
LINE
  8
0
 10
31.9798
 20
55.3912
 11
35.9409
 21
55.3912
  0
LINE
  8
0
 10
35.9409
 20
55.3912
 11
33.9606
 21
51.9612
  0
LINE
  8
0
 10
33.9606
 20
51.9612
 11
35.9404
 21
48.5312
  0
LINE
  8
0
 10
35.9404
 20
48.5312
 11
31.9807
 21
48.5316
  0
LINE
  8
0
 10
31.9807
 20
48.5316
 11
30
 21
45.1016
  0
LINE
  8
0
 10
30
 20
45.1016
 11
28.0202
 21
48.5312
  0
LINE
  8
0
 10
-31.9798
 20
48.5312
 11
-35.9409
 21
48.5312
  0
LINE
  8
0
 10
-35.9409
 20
48.5312
 11
-33.9606
 21
51.9612
  0
LINE
  8
0
 10
-33.9606
 20
51.9612
 11
-35.9404
 21
55.3912
  0
LINE
  8
0
 10
-35.9404
 20
55.3912
 11
-31.9807
 21
55.3908
  0
LINE
  8
0
 10
-31.9807
 20
55.3908
 11
-30
 21
58.8208
  0
LINE
  8
0
 10
-30
 20
58.8208
 11
-28.0202
 21
55.3912
  0
LINE
  8
0
 10
-28.0202
 20
55.3912
 11
-24.0591
 21
55.3912
  0
LINE
  8
0
 10
-24.0591
 20
55.3912
 11
-26.0394
 21
51.9612
  0
LINE
  8
0
 10
-26.0394
 20
51.9612
 11
-24.0596
 21
48.5312
  0
LINE
  8
0
 10
-24.0596
 20
48.5312
 11
-28.0193
 21
48.5316
  0
LINE
  8
0
 10
-28.0193
 20
48.5316
 11
-30
 21
45.1016
  0
LINE
  8
0
 10
-30
 20
45.1016
 11
-31.9798
 21
48.5312
  0
LINE
  8
0
 10
-41.9806
 20
48.5312
 11
-43.9604
 21
51.9612
  0
LINE
  8
0
 10
-43.9604
 20
51.9612
 11
-41.9806
 21
55.3917
  0
LINE
  8
0
 10
-41.9806
 20
55.3917
 11
-38.02
 21
55.3917
  0
LINE
  8
0
 10
-38.02
 20
55.3917
 11
-36.0397
 21
51.9612
  0
LINE
  8
0
 10
-36.0397
 20
51.9612
 11
-38.0196
 21
48.5312
  0
LINE
  8
0
 10
-38.0196
 20
48.5312
 11
-41.9806
 21
48.5312
  0
LINE
  8
0
 10
38.0196
 20
48.5312
 11
36.0397
 21
51.9612
  0
LINE
  8
0
 10
36.0397
 20
51.9612
 11
38.0196
 21
55.3912
  0
LINE
  8
0
 10
38.0196
 20
55.3912
 11
41.9806
 21
55.3917
  0
LINE
  8
0
 10
41.9806
 20
55.3917
 11
43.9604
 21
51.9617
  0
LINE
  8
0
 10
43.9604
 20
51.9617
 11
41.9806
 21
48.5312
  0
LINE
  8
0
 10
41.9806
 20
48.5312
 11
38.0196
 21
48.5312
  0
LINE
  8
0
 10
-21.9804
 20
48.5312
 11
-23.9603
 21
51.9612
  0
LINE
  8
0
 10
-23.9603
 20
51.9612
 11
-21.9804
 21
55.3912
  0
LINE
  8
0
 10
-21.9804
 20
55.3912
 11
-18.0194
 21
55.3917
  0
LINE
  8
0
 10
-18.0194
 20
55.3917
 11
-16.0396
 21
51.9617
  0
LINE
  8
0
 10
-16.0396
 20
51.9617
 11
-18.0194
 21
48.5312
  0
LINE
  8
0
 10
-18.0194
 20
48.5312
 11
-21.9804
 21
48.5312
  0
LINE
  8
0
 10
-11.9806
 20
48.5312
 11
-13.9604
 21
51.9612
  0
LINE
  8
0
 10
-13.9604
 20
51.9612
 11
-11.9806
 21
55.3917
  0
LINE
  8
0
 10
-11.9806
 20
55.3917
 11
-8.02002
 21
55.3917
  0
LINE
  8
0
 10
-8.02002
 20
55.3917
 11
-6.03973
 21
51.9612
  0
LINE
  8
0
 10
-6.03973
 20
51.9612
 11
-8.01956
 21
48.5312
  0
LINE
  8
0
 10
-8.01956
 20
48.5312
 11
-11.9806
 21
48.5312
  0
LINE
  8
0
 10
18.0194
 20
48.5312
 11
16.0396
 21
51.9612
  0
LINE
  8
0
 10
16.0396
 20
51.9612
 11
18.0194
 21
55.3917
  0
LINE
  8
0
 10
18.0194
 20
55.3917
 11
21.98
 21
55.3917
  0
LINE
  8
0
 10
21.98
 20
55.3917
 11
23.9603
 21
51.9612
  0
LINE
  8
0
 10
23.9603
 20
51.9612
 11
21.9804
 21
48.5312
  0
LINE
  8
0
 10
21.9804
 20
48.5312
 11
18.0194
 21
48.5312
  0
LINE
  8
0
 10
8.01956
 20
48.5312
 11
6.03973
 21
51.9612
  0
LINE
  8
0
 10
6.03973
 20
51.9612
 11
8.01956
 21
55.3912
  0
LINE
  8
0
 10
8.01956
 20
55.3912
 11
11.9806
 21
55.3917
  0
LINE
  8
0
 10
11.9806
 20
55.3917
 11
13.9604
 21
51.9617
  0
LINE
  8
0
 10
13.9604
 20
51.9617
 11
11.9806
 21
48.5312
  0
LINE
  8
0
 10
11.9806
 20
48.5312
 11
8.01956
 21
48.5312
  0
LINE
  8
0
 10
-46.9798
 20
39.8712
 11
-49.4275
 21
39.8712
  0
LINE
  8
0
 10
-49.4275
 20
39.8712
 11
-47.1987
 21
46.7308
  0
LINE
  8
0
 10
-47.1987
 20
46.7308
 11
-46.9807
 21
46.7308
  0
LINE
  8
0
 10
-46.9807
 20
46.7308
 11
-45
 21
50.1608
  0
LINE
  8
0
 10
-45
 20
50.1608
 11
-43.0202
 21
46.7313
  0
LINE
  8
0
 10
-43.0202
 20
46.7313
 11
-39.0591
 21
46.7313
  0
LINE
  8
0
 10
-39.0591
 20
46.7313
 11
-41.0394
 21
43.3012
  0
LINE
  8
0
 10
-41.0394
 20
43.3012
 11
-39.0596
 21
39.8712
  0
LINE
  8
0
 10
-39.0596
 20
39.8712
 11
-43.0193
 21
39.8717
  0
LINE
  8
0
 10
-43.0193
 20
39.8717
 11
-45
 21
36.4417
  0
LINE
  8
0
 10
-45
 20
36.4417
 11
-46.9798
 21
39.8712
  0
LINE
  8
0
 10
43.0202
 20
39.8712
 11
39.0591
 21
39.8712
  0
LINE
  8
0
 10
39.0591
 20
39.8712
 11
41.0394
 21
43.3012
  0
LINE
  8
0
 10
41.0394
 20
43.3012
 11
39.0596
 21
46.7313
  0
LINE
  8
0
 10
39.0596
 20
46.7313
 11
43.0193
 21
46.7308
  0
LINE
  8
0
 10
43.0193
 20
46.7308
 11
45
 21
50.1608
  0
LINE
  8
0
 10
45
 20
50.1608
 11
46.9798
 21
46.7313
  0
LINE
  8
0
 10
46.9798
 20
46.7313
 11
47.1985
 21
46.7313
  0
LINE
  8
0
 10
47.1985
 20
46.7313
 11
49.4274
 21
39.8714
  0
LINE
  8
0
 10
49.4274
 20
39.8714
 11
46.9807
 21
39.8717
  0
LINE
  8
0
 10
46.9807
 20
39.8717
 11
45
 21
36.4417
  0
LINE
  8
0
 10
45
 20
36.4417
 11
43.0202
 21
39.8712
  0
LINE
  8
0
 10
13.0202
 20
39.8712
 11
9.05914
 21
39.8712
  0
LINE
  8
0
 10
9.05914
 20
39.8712
 11
11.0394
 21
43.3012
  0
LINE
  8
0
 10
11.0394
 20
43.3012
 11
9.0596
 21
46.7313
  0
LINE
  8
0
 10
9.0596
 20
46.7313
 11
13.0193
 21
46.7308
  0
LINE
  8
0
 10
13.0193
 20
46.7308
 11
15
 21
50.1608
  0
LINE
  8
0
 10
15
 20
50.1608
 11
16.9798
 21
46.7313
  0
LINE
  8
0
 10
16.9798
 20
46.7313
 11
20.9409
 21
46.7313
  0
LINE
  8
0
 10
20.9409
 20
46.7313
 11
18.9606
 21
43.3012
  0
LINE
  8
0
 10
18.9606
 20
43.3012
 11
20.9404
 21
39.8712
  0
LINE
  8
0
 10
20.9404
 20
39.8712
 11
16.9807
 21
39.8717
  0
LINE
  8
0
 10
16.9807
 20
39.8717
 11
15
 21
36.4417
  0
LINE
  8
0
 10
15
 20
36.4417
 11
13.0202
 21
39.8712
  0
LINE
  8
0
 10
-16.9798
 20
39.8712
 11
-20.9409
 21
39.8712
  0
LINE
  8
0
 10
-20.9409
 20
39.8712
 11
-18.9606
 21
43.3012
  0
LINE
  8
0
 10
-18.9606
 20
43.3012
 11
-20.9404
 21
46.7313
  0
LINE
  8
0
 10
-20.9404
 20
46.7313
 11
-16.9807
 21
46.7308
  0
LINE
  8
0
 10
-16.9807
 20
46.7308
 11
-15
 21
50.1608
  0
LINE
  8
0
 10
-15
 20
50.1608
 11
-13.0202
 21
46.7313
  0
LINE
  8
0
 10
-13.0202
 20
46.7313
 11
-9.05914
 21
46.7313
  0
LINE
  8
0
 10
-9.05914
 20
46.7313
 11
-11.0394
 21
43.3012
  0
LINE
  8
0
 10
-11.0394
 20
43.3012
 11
-9.0596
 21
39.8712
  0
LINE
  8
0
 10
-9.0596
 20
39.8712
 11
-13.0193
 21
39.8717
  0
LINE
  8
0
 10
-13.0193
 20
39.8717
 11
-15
 21
36.4417
  0
LINE
  8
0
 10
-15
 20
36.4417
 11
-16.9798
 21
39.8712
  0
LINE
  8
0
 10
-28.9604
 20
43.3008
 11
-26.9806
 21
46.7313
  0
LINE
  8
0
 10
-26.9806
 20
46.7313
 11
-23.0196
 21
46.7313
  0
LINE
  8
0
 10
-23.0196
 20
46.7313
 11
-21.0397
 21
43.3012
  0
LINE
  8
0
 10
-21.0397
 20
43.3012
 11
-23.0196
 21
39.8712
  0
LINE
  8
0
 10
-23.0196
 20
39.8712
 11
-26.9806
 21
39.8708
  0
LINE
  8
0
 10
-26.9806
 20
39.8708
 11
-28.9604
 21
43.3008
  0
LINE
  8
0
 10
-6.97998
 20
39.8708
 11
-8.96027
 21
43.3012
  0
LINE
  8
0
 10
-8.96027
 20
43.3012
 11
-6.98044
 21
46.7313
  0
LINE
  8
0
 10
-6.98044
 20
46.7313
 11
-3.01941
 21
46.7313
  0
LINE
  8
0
 10
-3.01941
 20
46.7313
 11
-1.03958
 21
43.3012
  0
LINE
  8
0
 10
-1.03958
 20
43.3012
 11
-3.01941
 21
39.8708
  0
LINE
  8
0
 10
-3.01941
 20
39.8708
 11
-6.97998
 21
39.8708
  0
LINE
  8
0
 10
1.03958
 20
43.3008
 11
3.01941
 21
46.7313
  0
LINE
  8
0
 10
3.01941
 20
46.7313
 11
6.98044
 21
46.7313
  0
LINE
  8
0
 10
6.98044
 20
46.7313
 11
8.96027
 21
43.3012
  0
LINE
  8
0
 10
8.96027
 20
43.3012
 11
6.98044
 21
39.8712
  0
LINE
  8
0
 10
6.98044
 20
39.8712
 11
3.01941
 21
39.8708
  0
LINE
  8
0
 10
3.01941
 20
39.8708
 11
1.03958
 21
43.3008
  0
LINE
  8
0
 10
31.0396
 20
43.3008
 11
33.0194
 21
46.7313
  0
LINE
  8
0
 10
33.0194
 20
46.7313
 11
36.9804
 21
46.7313
  0
LINE
  8
0
 10
36.9804
 20
46.7313
 11
38.9603
 21
43.3012
  0
LINE
  8
0
 10
38.9603
 20
43.3012
 11
36.9804
 21
39.8712
  0
LINE
  8
0
 10
36.9804
 20
39.8712
 11
33.0194
 21
39.8708
  0
LINE
  8
0
 10
33.0194
 20
39.8708
 11
31.0396
 21
43.3008
  0
LINE
  8
0
 10
-36.98
 20
39.8708
 11
-38.9603
 21
43.3012
  0
LINE
  8
0
 10
-38.9603
 20
43.3012
 11
-36.9804
 21
46.7313
  0
LINE
  8
0
 10
-36.9804
 20
46.7313
 11
-33.0194
 21
46.7313
  0
LINE
  8
0
 10
-33.0194
 20
46.7313
 11
-31.0396
 21
43.3012
  0
LINE
  8
0
 10
-31.0396
 20
43.3012
 11
-33.0194
 21
39.8708
  0
LINE
  8
0
 10
-33.0194
 20
39.8708
 11
-36.98
 21
39.8708
  0
LINE
  8
0
 10
23.02
 20
39.8708
 11
21.0397
 21
43.3012
  0
LINE
  8
0
 10
21.0397
 20
43.3012
 11
23.0196
 21
46.7313
  0
LINE
  8
0
 10
23.0196
 20
46.7313
 11
26.9806
 21
46.7313
  0
LINE
  8
0
 10
26.9806
 20
46.7313
 11
28.9604
 21
43.3012
  0
LINE
  8
0
 10
28.9604
 20
43.3012
 11
26.9806
 21
39.8708
  0
LINE
  8
0
 10
26.9806
 20
39.8708
 11
23.02
 21
39.8708
  0
LINE
  8
0
 10
-31.9798
 20
31.2108
 11
-35.9409
 21
31.2108
  0
LINE
  8
0
 10
-35.9409
 20
31.2108
 11
-33.9606
 21
34.6408
  0
LINE
  8
0
 10
-33.9606
 20
34.6408
 11
-35.9404
 21
38.0708
  0
LINE
  8
0
 10
-35.9404
 20
38.0708
 11
-31.9807
 21
38.0704
  0
LINE
  8
0
 10
-31.9807
 20
38.0704
 11
-30
 21
41.5004
  0
LINE
  8
0
 10
-30
 20
41.5004
 11
-28.0202
 21
38.0708
  0
LINE
  8
0
 10
-28.0202
 20
38.0708
 11
-24.0591
 21
38.0708
  0
LINE
  8
0
 10
-24.0591
 20
38.0708
 11
-26.0394
 21
34.6408
  0
LINE
  8
0
 10
-26.0394
 20
34.6408
 11
-24.0596
 21
31.2108
  0
LINE
  8
0
 10
-24.0596
 20
31.2108
 11
-28.0193
 21
31.2112
  0
LINE
  8
0
 10
-28.0193
 20
31.2112
 11
-30
 21
27.7812
  0
LINE
  8
0
 10
-30
 20
27.7812
 11
-31.9798
 21
31.2108
  0
LINE
  8
0
 10
28.0202
 20
31.2108
 11
24.0591
 21
31.2108
  0
LINE
  8
0
 10
24.0591
 20
31.2108
 11
26.0394
 21
34.6408
  0
LINE
  8
0
 10
26.0394
 20
34.6408
 11
24.0596
 21
38.0708
  0
LINE
  8
0
 10
24.0596
 20
38.0708
 11
28.0193
 21
38.0704
  0
LINE
  8
0
 10
28.0193
 20
38.0704
 11
30
 21
41.5004
  0
LINE
  8
0
 10
30
 20
41.5004
 11
31.9798
 21
38.0708
  0
LINE
  8
0
 10
31.9798
 20
38.0708
 11
35.9409
 21
38.0708
  0
LINE
  8
0
 10
35.9409
 20
38.0708
 11
33.9606
 21
34.6408
  0
LINE
  8
0
 10
33.9606
 20
34.6408
 11
35.9404
 21
31.2108
  0
LINE
  8
0
 10
35.9404
 20
31.2108
 11
31.9807
 21
31.2112
  0
LINE
  8
0
 10
31.9807
 20
31.2112
 11
30
 21
27.7812
  0
LINE
  8
0
 10
30
 20
27.7812
 11
28.0202
 21
31.2108
  0
LINE
  8
0
 10
-1.97983
 20
31.2108
 11
-5.94086
 21
31.2108
  0
LINE
  8
0
 10
-5.94086
 20
31.2108
 11
-3.96057
 21
34.6408
  0
LINE
  8
0
 10
-3.96057
 20
34.6408
 11
-5.9404
 21
38.0708
  0
LINE
  8
0
 10
-5.9404
 20
38.0708
 11
-1.98074
 21
38.0704
  0
LINE
  8
0
 10
-1.98074
 20
38.0704
 11
0
 21
41.5004
  0
LINE
  8
0
 10
0
 20
41.5004
 11
1.97983
 21
38.0708
  0
LINE
  8
0
 10
1.97983
 20
38.0708
 11
5.94086
 21
38.0708
  0
LINE
  8
0
 10
5.94086
 20
38.0708
 11
3.96057
 21
34.6408
  0
LINE
  8
0
 10
3.96057
 20
34.6408
 11
5.9404
 21
31.2108
  0
LINE
  8
0
 10
5.9404
 20
31.2108
 11
1.98074
 21
31.2112
  0
LINE
  8
0
 10
1.98074
 20
31.2112
 11
0
 21
27.7812
  0
LINE
  8
0
 10
0
 20
27.7812
 11
-1.97983
 21
31.2108
  0
LINE
  8
0
 10
-51.98
 20
31.2103
 11
-52.1474
 21
31.5003
  0
LINE
  8
0
 10
-52.1474
 20
31.5003
 11
-50.0124
 21
38.0711
  0
LINE
  8
0
 10
-50.0124
 20
38.0711
 11
-48.0194
 21
38.0713
  0
LINE
  8
0
 10
-48.0194
 20
38.0713
 11
-46.0396
 21
34.6413
  0
LINE
  8
0
 10
-46.0396
 20
34.6413
 11
-48.0194
 21
31.2103
  0
LINE
  8
0
 10
-48.0194
 20
31.2103
 11
-51.98
 21
31.2103
  0
LINE
  8
0
 10
38.02
 20
31.2103
 11
36.0397
 21
34.6408
  0
LINE
  8
0
 10
36.0397
 20
34.6408
 11
38.0196
 21
38.0708
  0
LINE
  8
0
 10
38.0196
 20
38.0708
 11
41.9806
 21
38.0713
  0
LINE
  8
0
 10
41.9806
 20
38.0713
 11
43.9604
 21
34.6413
  0
LINE
  8
0
 10
43.9604
 20
34.6413
 11
41.9806
 21
31.2103
  0
LINE
  8
0
 10
41.9806
 20
31.2103
 11
38.02
 21
31.2103
  0
LINE
  8
0
 10
-41.9806
 20
31.2103
 11
-43.9604
 21
34.6404
  0
LINE
  8
0
 10
-43.9604
 20
34.6404
 11
-41.9806
 21
38.0713
  0
LINE
  8
0
 10
-41.9806
 20
38.0713
 11
-38.02
 21
38.0713
  0
LINE
  8
0
 10
-38.02
 20
38.0713
 11
-36.0397
 21
34.6408
  0
LINE
  8
0
 10
-36.0397
 20
34.6408
 11
-38.02
 21
31.2103
  0
LINE
  8
0
 10
-38.02
 20
31.2103
 11
-41.9806
 21
31.2103
  0
LINE
  8
0
 10
8.02002
 20
31.2103
 11
6.03973
 21
34.6408
  0
LINE
  8
0
 10
6.03973
 20
34.6408
 11
8.01956
 21
38.0708
  0
LINE
  8
0
 10
8.01956
 20
38.0708
 11
11.9806
 21
38.0713
  0
LINE
  8
0
 10
11.9806
 20
38.0713
 11
13.9604
 21
34.6413
  0
LINE
  8
0
 10
13.9604
 20
34.6413
 11
11.9806
 21
31.2103
  0
LINE
  8
0
 10
11.9806
 20
31.2103
 11
8.02002
 21
31.2103
  0
LINE
  8
0
 10
48.0194
 20
31.2103
 11
46.0396
 21
34.6404
  0
LINE
  8
0
 10
46.0396
 20
34.6404
 11
48.0194
 21
38.0713
  0
LINE
  8
0
 10
48.0194
 20
38.0713
 11
50.0123
 21
38.0713
  0
LINE
  8
0
 10
50.0123
 20
38.0713
 11
52.1474
 21
31.5003
  0
LINE
  8
0
 10
52.1474
 20
31.5003
 11
51.98
 21
31.2103
  0
LINE
  8
0
 10
51.98
 20
31.2103
 11
48.0194
 21
31.2103
  0
LINE
  8
0
 10
-11.9806
 20
31.2103
 11
-13.9604
 21
34.6404
  0
LINE
  8
0
 10
-13.9604
 20
34.6404
 11
-11.9806
 21
38.0713
  0
LINE
  8
0
 10
-11.9806
 20
38.0713
 11
-8.02002
 21
38.0713
  0
LINE
  8
0
 10
-8.02002
 20
38.0713
 11
-6.03973
 21
34.6408
  0
LINE
  8
0
 10
-6.03973
 20
34.6408
 11
-8.02002
 21
31.2103
  0
LINE
  8
0
 10
-8.02002
 20
31.2103
 11
-11.9806
 21
31.2103
  0
LINE
  8
0
 10
18.0194
 20
31.2103
 11
16.0396
 21
34.6404
  0
LINE
  8
0
 10
16.0396
 20
34.6404
 11
18.0194
 21
38.0713
  0
LINE
  8
0
 10
18.0194
 20
38.0713
 11
21.98
 21
38.0713
  0
LINE
  8
0
 10
21.98
 20
38.0713
 11
23.9603
 21
34.6408
  0
LINE
  8
0
 10
23.9603
 20
34.6408
 11
21.98
 21
31.2103
  0
LINE
  8
0
 10
21.98
 20
31.2103
 11
18.0194
 21
31.2103
  0
LINE
  8
0
 10
-21.98
 20
31.2103
 11
-23.9603
 21
34.6408
  0
LINE
  8
0
 10
-23.9603
 20
34.6408
 11
-21.9804
 21
38.0708
  0
LINE
  8
0
 10
-21.9804
 20
38.0708
 11
-18.0194
 21
38.0713
  0
LINE
  8
0
 10
-18.0194
 20
38.0713
 11
-16.0396
 21
34.6413
  0
LINE
  8
0
 10
-16.0396
 20
34.6413
 11
-18.0194
 21
31.2103
  0
LINE
  8
0
 10
-18.0194
 20
31.2103
 11
-21.98
 21
31.2103
  0
LINE
  8
0
 10
43.0202
 20
22.5504
 11
39.0591
 21
22.5504
  0
LINE
  8
0
 10
39.0591
 20
22.5504
 11
41.0394
 21
25.9804
  0
LINE
  8
0
 10
41.0394
 20
25.9804
 11
39.0596
 21
29.4104
  0
LINE
  8
0
 10
39.0596
 20
29.4104
 11
43.0193
 21
29.4099
  0
LINE
  8
0
 10
43.0193
 20
29.4099
 11
45
 21
32.84
  0
LINE
  8
0
 10
45
 20
32.84
 11
46.9798
 21
29.4104
  0
LINE
  8
0
 10
46.9798
 20
29.4104
 11
50.9409
 21
29.4104
  0
LINE
  8
0
 10
50.9409
 20
29.4104
 11
48.9606
 21
25.9804
  0
LINE
  8
0
 10
48.9606
 20
25.9804
 11
50.9404
 21
22.5504
  0
LINE
  8
0
 10
50.9404
 20
22.5504
 11
46.9807
 21
22.5508
  0
LINE
  8
0
 10
46.9807
 20
22.5508
 11
45
 21
19.1208
  0
LINE
  8
0
 10
45
 20
19.1208
 11
43.0202
 21
22.5504
  0
LINE
  8
0
 10
-46.9798
 20
22.5504
 11
-50.9409
 21
22.5504
  0
LINE
  8
0
 10
-50.9409
 20
22.5504
 11
-48.9606
 21
25.9804
  0
LINE
  8
0
 10
-48.9606
 20
25.9804
 11
-50.9404
 21
29.4104
  0
LINE
  8
0
 10
-50.9404
 20
29.4104
 11
-46.9807
 21
29.4099
  0
LINE
  8
0
 10
-46.9807
 20
29.4099
 11
-45
 21
32.84
  0
LINE
  8
0
 10
-45
 20
32.84
 11
-43.0202
 21
29.4104
  0
LINE
  8
0
 10
-43.0202
 20
29.4104
 11
-39.0591
 21
29.4104
  0
LINE
  8
0
 10
-39.0591
 20
29.4104
 11
-41.0394
 21
25.9804
  0
LINE
  8
0
 10
-41.0394
 20
25.9804
 11
-39.0596
 21
22.5504
  0
LINE
  8
0
 10
-39.0596
 20
22.5504
 11
-43.0193
 21
22.5508
  0
LINE
  8
0
 10
-43.0193
 20
22.5508
 11
-45
 21
19.1208
  0
LINE
  8
0
 10
-45
 20
19.1208
 11
-46.9798
 21
22.5504
  0
LINE
  8
0
 10
-16.9798
 20
22.5504
 11
-20.9409
 21
22.5504
  0
LINE
  8
0
 10
-20.9409
 20
22.5504
 11
-18.9606
 21
25.9804
  0
LINE
  8
0
 10
-18.9606
 20
25.9804
 11
-20.9404
 21
29.4104
  0
LINE
  8
0
 10
-20.9404
 20
29.4104
 11
-16.9807
 21
29.4099
  0
LINE
  8
0
 10
-16.9807
 20
29.4099
 11
-15
 21
32.84
  0
LINE
  8
0
 10
-15
 20
32.84
 11
-13.0202
 21
29.4104
  0
LINE
  8
0
 10
-13.0202
 20
29.4104
 11
-9.05914
 21
29.4104
  0
LINE
  8
0
 10
-9.05914
 20
29.4104
 11
-11.0394
 21
25.9804
  0
LINE
  8
0
 10
-11.0394
 20
25.9804
 11
-9.0596
 21
22.5504
  0
LINE
  8
0
 10
-9.0596
 20
22.5504
 11
-13.0193
 21
22.5508
  0
LINE
  8
0
 10
-13.0193
 20
22.5508
 11
-15
 21
19.1208
  0
LINE
  8
0
 10
-15
 20
19.1208
 11
-16.9798
 21
22.5504
  0
LINE
  8
0
 10
13.0202
 20
22.5504
 11
9.05914
 21
22.5504
  0
LINE
  8
0
 10
9.05914
 20
22.5504
 11
11.0394
 21
25.9804
  0
LINE
  8
0
 10
11.0394
 20
25.9804
 11
9.0596
 21
29.4104
  0
LINE
  8
0
 10
9.0596
 20
29.4104
 11
13.0193
 21
29.4099
  0
LINE
  8
0
 10
13.0193
 20
29.4099
 11
15
 21
32.84
  0
LINE
  8
0
 10
15
 20
32.84
 11
16.9798
 21
29.4104
  0
LINE
  8
0
 10
16.9798
 20
29.4104
 11
20.9409
 21
29.4104
  0
LINE
  8
0
 10
20.9409
 20
29.4104
 11
18.9606
 21
25.9804
  0
LINE
  8
0
 10
18.9606
 20
25.9804
 11
20.9404
 21
22.5504
  0
LINE
  8
0
 10
20.9404
 20
22.5504
 11
16.9807
 21
22.5508
  0
LINE
  8
0
 10
16.9807
 20
22.5508
 11
15
 21
19.1208
  0
LINE
  8
0
 10
15
 20
19.1208
 11
13.0202
 21
22.5504
  0
LINE
  8
0
 10
33.0194
 20
22.5504
 11
31.0396
 21
25.9804
  0
LINE
  8
0
 10
31.0396
 20
25.9804
 11
33.0194
 21
29.4109
  0
LINE
  8
0
 10
33.0194
 20
29.4109
 11
36.98
 21
29.4109
  0
LINE
  8
0
 10
36.98
 20
29.4109
 11
38.9603
 21
25.9804
  0
LINE
  8
0
 10
38.9603
 20
25.9804
 11
36.9804
 21
22.5504
  0
LINE
  8
0
 10
36.9804
 20
22.5504
 11
33.0194
 21
22.5504
  0
LINE
  8
0
 10
23.0196
 20
22.5504
 11
21.0397
 21
25.9804
  0
LINE
  8
0
 10
21.0397
 20
25.9804
 11
23.0196
 21
29.4104
  0
LINE
  8
0
 10
23.0196
 20
29.4104
 11
26.9806
 21
29.4109
  0
LINE
  8
0
 10
26.9806
 20
29.4109
 11
28.9604
 21
25.9808
  0
LINE
  8
0
 10
28.9604
 20
25.9808
 11
26.9806
 21
22.5504
  0
LINE
  8
0
 10
26.9806
 20
22.5504
 11
23.0196
 21
22.5504
  0
LINE
  8
0
 10
-36.9804
 20
22.5504
 11
-38.9603
 21
25.9804
  0
LINE
  8
0
 10
-38.9603
 20
25.9804
 11
-36.9804
 21
29.4104
  0
LINE
  8
0
 10
-36.9804
 20
29.4104
 11
-33.0194
 21
29.4109
  0
LINE
  8
0
 10
-33.0194
 20
29.4109
 11
-31.0396
 21
25.9808
  0
LINE
  8
0
 10
-31.0396
 20
25.9808
 11
-33.0194
 21
22.5504
  0
LINE
  8
0
 10
-33.0194
 20
22.5504
 11
-36.9804
 21
22.5504
  0
LINE
  8
0
 10
-26.9806
 20
22.5504
 11
-28.9604
 21
25.9804
  0
LINE
  8
0
 10
-28.9604
 20
25.9804
 11
-26.9806
 21
29.4109
  0
LINE
  8
0
 10
-26.9806
 20
29.4109
 11
-23.02
 21
29.4109
  0
LINE
  8
0
 10
-23.02
 20
29.4109
 11
-21.0397
 21
25.9804
  0
LINE
  8
0
 10
-21.0397
 20
25.9804
 11
-23.0196
 21
22.5504
  0
LINE
  8
0
 10
-23.0196
 20
22.5504
 11
-26.9806
 21
22.5504
  0
LINE
  8
0
 10
3.01941
 20
22.5504
 11
1.03958
 21
25.9804
  0
LINE
  8
0
 10
1.03958
 20
25.9804
 11
3.01941
 21
29.4109
  0
LINE
  8
0
 10
3.01941
 20
29.4109
 11
6.97998
 21
29.4109
  0
LINE
  8
0
 10
6.97998
 20
29.4109
 11
8.96027
 21
25.9804
  0
LINE
  8
0
 10
8.96027
 20
25.9804
 11
6.98044
 21
22.5504
  0
LINE
  8
0
 10
6.98044
 20
22.5504
 11
3.01941
 21
22.5504
  0
LINE
  8
0
 10
-6.98044
 20
22.5504
 11
-8.96027
 21
25.9804
  0
LINE
  8
0
 10
-8.96027
 20
25.9804
 11
-6.98044
 21
29.4104
  0
LINE
  8
0
 10
-6.98044
 20
29.4104
 11
-3.01941
 21
29.4109
  0
LINE
  8
0
 10
-3.01941
 20
29.4109
 11
-1.03958
 21
25.9808
  0
LINE
  8
0
 10
-1.03958
 20
25.9808
 11
-3.01941
 21
22.5504
  0
LINE
  8
0
 10
-3.01941
 20
22.5504
 11
-6.98044
 21
22.5504
  0
LINE
  8
0
 10
53.0196
 20
22.5504
 11
51.0397
 21
25.9804
  0
LINE
  8
0
 10
51.0397
 20
25.9804
 11
52.896
 21
29.1963
  0
LINE
  8
0
 10
52.896
 20
29.1963
 11
55.0554
 21
22.5504
  0
LINE
  8
0
 10
55.0554
 20
22.5504
 11
53.0196
 21
22.5504
  0
LINE
  8
0
 10
-55.0554
 20
22.5504
 11
-52.8961
 21
29.1961
  0
LINE
  8
0
 10
-52.8961
 20
29.1961
 11
-51.0397
 21
25.9804
  0
LINE
  8
0
 10
-51.0397
 20
25.9804
 11
-53.0196
 21
22.5504
  0
LINE
  8
0
 10
-53.0196
 20
22.5504
 11
-55.0554
 21
22.5504
  0
LINE
  8
0
 10
29.1115
 20
12
 11
28.0202
 21
13.8904
  0
LINE
  8
0
 10
28.0202
 20
13.8904
 11
24.0591
 21
13.8904
  0
LINE
  8
0
 10
24.0591
 20
13.8904
 11
26.0394
 21
17.3204
  0
LINE
  8
0
 10
26.0394
 20
17.3204
 11
24.0596
 21
20.7504
  0
LINE
  8
0
 10
24.0596
 20
20.7504
 11
28.0193
 21
20.75
  0
LINE
  8
0
 10
28.0193
 20
20.75
 11
30
 21
24.18
  0
LINE
  8
0
 10
30
 20
24.18
 11
31.9798
 21
20.7504
  0
LINE
  8
0
 10
31.9798
 20
20.7504
 11
35.9409
 21
20.7504
  0
LINE
  8
0
 10
35.9409
 20
20.7504
 11
33.9606
 21
17.3204
  0
LINE
  8
0
 10
33.9606
 20
17.3204
 11
35.9404
 21
13.8904
  0
LINE
  8
0
 10
35.9404
 20
13.8904
 11
31.9807
 21
13.8908
  0
LINE
  8
0
 10
31.9807
 20
13.8908
 11
30.8888
 21
12
  0
LINE
  8
0
 10
30.8888
 20
12
 11
29.1115
 21
12
  0
LINE
  8
0
 10
-0.88855
 20
12
 11
-1.97983
 21
13.8904
  0
LINE
  8
0
 10
-1.97983
 20
13.8904
 11
-5.94086
 21
13.8904
  0
LINE
  8
0
 10
-5.94086
 20
13.8904
 11
-3.96057
 21
17.3204
  0
LINE
  8
0
 10
-3.96057
 20
17.3204
 11
-5.9404
 21
20.7504
  0
LINE
  8
0
 10
-5.9404
 20
20.7504
 11
-1.98074
 21
20.75
  0
LINE
  8
0
 10
-1.98074
 20
20.75
 11
0
 21
24.18
  0
LINE
  8
0
 10
0
 20
24.18
 11
1.97983
 21
20.7504
  0
LINE
  8
0
 10
1.97983
 20
20.7504
 11
5.94086
 21
20.7504
  0
LINE
  8
0
 10
5.94086
 20
20.7504
 11
3.96057
 21
17.3204
  0
LINE
  8
0
 10
3.96057
 20
17.3204
 11
5.9404
 21
13.8904
  0
LINE
  8
0
 10
5.9404
 20
13.8904
 11
1.98074
 21
13.8908
  0
LINE
  8
0
 10
1.98074
 20
13.8908
 11
0.88884
 21
12
  0
LINE
  8
0
 10
0.88884
 20
12
 11
-0.88855
 21
12
  0
LINE
  8
0
 10
-30.8885
 20
12
 11
-31.9798
 21
13.8904
  0
LINE
  8
0
 10
-31.9798
 20
13.8904
 11
-35.9409
 21
13.8904
  0
LINE
  8
0
 10
-35.9409
 20
13.8904
 11
-33.9606
 21
17.3204
  0
LINE
  8
0
 10
-33.9606
 20
17.3204
 11
-35.9404
 21
20.7504
  0
LINE
  8
0
 10
-35.9404
 20
20.7504
 11
-31.9807
 21
20.75
  0
LINE
  8
0
 10
-31.9807
 20
20.75
 11
-30
 21
24.18
  0
LINE
  8
0
 10
-30
 20
24.18
 11
-28.0202
 21
20.7504
  0
LINE
  8
0
 10
-28.0202
 20
20.7504
 11
-24.0591
 21
20.7504
  0
LINE
  8
0
 10
-24.0591
 20
20.7504
 11
-26.0394
 21
17.3204
  0
LINE
  8
0
 10
-26.0394
 20
17.3204
 11
-24.0596
 21
13.8904
  0
LINE
  8
0
 10
-24.0596
 20
13.8904
 11
-28.0193
 21
13.8908
  0
LINE
  8
0
 10
-28.0193
 20
13.8908
 11
-29.1112
 21
12
  0
LINE
  8
0
 10
-29.1112
 20
12
 11
-30.8885
 21
12
  0
LINE
  8
0
 10
54.0591
 20
13.8904
 11
56.0394
 21
17.3204
  0
LINE
  8
0
 10
56.0394
 20
17.3204
 11
54.0596
 21
20.7504
  0
LINE
  8
0
 10
54.0596
 20
20.7504
 11
55.6403
 21
20.7502
  0
LINE
  8
0
 10
55.6403
 20
20.7502
 11
57.8692
 21
13.8904
  0
LINE
  8
0
 10
57.8692
 20
13.8904
 11
54.0591
 21
13.8904
  0
LINE
  8
0
 10
8.02002
 20
13.8899
 11
6.03973
 21
17.3204
  0
LINE
  8
0
 10
6.03973
 20
17.3204
 11
8.01956
 21
20.7504
  0
LINE
  8
0
 10
8.01956
 20
20.7504
 11
11.9806
 21
20.7504
  0
LINE
  8
0
 10
11.9806
 20
20.7504
 11
13.9604
 21
17.3204
  0
LINE
  8
0
 10
13.9604
 20
17.3204
 11
11.9806
 21
13.8899
  0
LINE
  8
0
 10
11.9806
 20
13.8899
 11
8.02002
 21
13.8899
  0
LINE
  8
0
 10
16.0396
 20
17.3199
 11
18.0194
 21
20.7504
  0
LINE
  8
0
 10
18.0194
 20
20.7504
 11
21.9804
 21
20.7504
  0
LINE
  8
0
 10
21.9804
 20
20.7504
 11
23.9603
 21
17.3204
  0
LINE
  8
0
 10
23.9603
 20
17.3204
 11
21.9804
 21
13.8904
  0
LINE
  8
0
 10
21.9804
 20
13.8904
 11
18.0194
 21
13.8899
  0
LINE
  8
0
 10
18.0194
 20
13.8899
 11
16.0396
 21
17.3199
  0
LINE
  8
0
 10
-13.9604
 20
17.3199
 11
-11.9806
 21
20.7504
  0
LINE
  8
0
 10
-11.9806
 20
20.7504
 11
-8.01956
 21
20.7504
  0
LINE
  8
0
 10
-8.01956
 20
20.7504
 11
-6.03973
 21
17.3204
  0
LINE
  8
0
 10
-6.03973
 20
17.3204
 11
-8.01956
 21
13.8904
  0
LINE
  8
0
 10
-8.01956
 20
13.8904
 11
-11.9806
 21
13.8899
  0
LINE
  8
0
 10
-11.9806
 20
13.8899
 11
-13.9604
 21
17.3199
  0
LINE
  8
0
 10
-21.98
 20
13.8899
 11
-23.9603
 21
17.3204
  0
LINE
  8
0
 10
-23.9603
 20
17.3204
 11
-21.9804
 21
20.7504
  0
LINE
  8
0
 10
-21.9804
 20
20.7504
 11
-18.0194
 21
20.7504
  0
LINE
  8
0
 10
-18.0194
 20
20.7504
 11
-16.0396
 21
17.3204
  0
LINE
  8
0
 10
-16.0396
 20
17.3204
 11
-18.0194
 21
13.8899
  0
LINE
  8
0
 10
-18.0194
 20
13.8899
 11
-21.98
 21
13.8899
  0
LINE
  8
0
 10
38.02
 20
13.8899
 11
36.0397
 21
17.3204
  0
LINE
  8
0
 10
36.0397
 20
17.3204
 11
38.0196
 21
20.7504
  0
LINE
  8
0
 10
38.0196
 20
20.7504
 11
41.9806
 21
20.7504
  0
LINE
  8
0
 10
41.9806
 20
20.7504
 11
43.9604
 21
17.3204
  0
LINE
  8
0
 10
43.9604
 20
17.3204
 11
41.9806
 21
13.8899
  0
LINE
  8
0
 10
41.9806
 20
13.8899
 11
38.02
 21
13.8899
  0
LINE
  8
0
 10
-51.98
 20
13.8899
 11
-53.9603
 21
17.3204
  0
LINE
  8
0
 10
-53.9603
 20
17.3204
 11
-51.9804
 21
20.7504
  0
LINE
  8
0
 10
-51.9804
 20
20.7504
 11
-48.0194
 21
20.7504
  0
LINE
  8
0
 10
-48.0194
 20
20.7504
 11
-46.0396
 21
17.3204
  0
LINE
  8
0
 10
-46.0396
 20
17.3204
 11
-48.0194
 21
13.8899
  0
LINE
  8
0
 10
-48.0194
 20
13.8899
 11
-51.98
 21
13.8899
  0
LINE
  8
0
 10
46.0396
 20
17.3199
 11
48.0194
 21
20.7504
  0
LINE
  8
0
 10
48.0194
 20
20.7504
 11
51.9804
 21
20.7504
  0
LINE
  8
0
 10
51.9804
 20
20.7504
 11
53.9603
 21
17.3204
  0
LINE
  8
0
 10
53.9603
 20
17.3204
 11
51.9804
 21
13.8904
  0
LINE
  8
0
 10
51.9804
 20
13.8904
 11
48.0194
 21
13.8899
  0
LINE
  8
0
 10
48.0194
 20
13.8899
 11
46.0396
 21
17.3199
  0
LINE
  8
0
 10
-57.869
 20
13.8908
 11
-55.6402
 21
20.7504
  0
LINE
  8
0
 10
-55.6402
 20
20.7504
 11
-54.0591
 21
20.7504
  0
LINE
  8
0
 10
-54.0591
 20
20.7504
 11
-56.0394
 21
17.3204
  0
LINE
  8
0
 10
-56.0394
 20
17.3204
 11
-54.0596
 21
13.8904
  0
LINE
  8
0
 10
-54.0596
 20
13.8904
 11
-57.869
 21
13.8908
  0
LINE
  8
0
 10
-43.9604
 20
17.3199
 11
-41.9806
 21
20.7504
  0
LINE
  8
0
 10
-41.9806
 20
20.7504
 11
-38.0196
 21
20.7504
  0
LINE
  8
0
 10
-38.0196
 20
20.7504
 11
-36.0397
 21
17.3204
  0
LINE
  8
0
 10
-36.0397
 20
17.3204
 11
-38.0196
 21
13.8904
  0
LINE
  8
0
 10
-38.0196
 20
13.8904
 11
-41.9806
 21
13.8899
  0
LINE
  8
0
 10
-41.9806
 20
13.8899
 11
-43.9604
 21
17.3199
  0
LINE
  8
0
 10
39.1115
 20
12
 11
39.0596
 21
12.09
  0
LINE
  8
0
 10
39.0596
 20
12.09
 11
43.0193
 21
12.0895
  0
LINE
  8
0
 10
43.0193
 20
12.0895
 11
45
 21
15.5196
  0
LINE
  8
0
 10
45
 20
15.5196
 11
46.9798
 21
12.09
  0
LINE
  8
0
 10
46.9798
 20
12.09
 11
50.9409
 21
12.09
  0
LINE
  8
0
 10
50.9409
 20
12.09
 11
50.8889
 21
12
  0
LINE
  8
0
 10
50.8889
 20
12
 11
39.1115
 21
12
  0
LINE
  8
0
 10
-50.8885
 20
12
 11
-50.9404
 21
12.09
  0
LINE
  8
0
 10
-50.9404
 20
12.09
 11
-46.9807
 21
12.0895
  0
LINE
  8
0
 10
-46.9807
 20
12.0895
 11
-45
 21
15.5196
  0
LINE
  8
0
 10
-45
 20
15.5196
 11
-43.0202
 21
12.09
  0
LINE
  8
0
 10
-43.0202
 20
12.09
 11
-39.0591
 21
12.09
  0
LINE
  8
0
 10
-39.0591
 20
12.09
 11
-39.1111
 21
12
  0
LINE
  8
0
 10
-39.1111
 20
12
 11
-50.8885
 21
12
  0
LINE
  8
0
 10
9.11154
 20
12
 11
9.0596
 21
12.09
  0
LINE
  8
0
 10
9.0596
 20
12.09
 11
13.0193
 21
12.0895
  0
LINE
  8
0
 10
13.0193
 20
12.0895
 11
15
 21
15.5196
  0
LINE
  8
0
 10
15
 20
15.5196
 11
16.9798
 21
12.09
  0
LINE
  8
0
 10
16.9798
 20
12.09
 11
20.9409
 21
12.09
  0
LINE
  8
0
 10
20.9409
 20
12.09
 11
20.8889
 21
12
  0
LINE
  8
0
 10
20.8889
 20
12
 11
9.11154
 21
12
  0
LINE
  8
0
 10
-20.8885
 20
12
 11
-20.9404
 21
12.09
  0
LINE
  8
0
 10
-20.9404
 20
12.09
 11
-16.9807
 21
12.0895
  0
LINE
  8
0
 10
-16.9807
 20
12.0895
 11
-15
 21
15.5196
  0
LINE
  8
0
 10
-15
 20
15.5196
 11
-13.0202
 21
12.09
  0
LINE
  8
0
 10
-13.0202
 20
12.09
 11
-9.05914
 21
12.09
  0
LINE
  8
0
 10
-9.05914
 20
12.09
 11
-9.1111
 21
12
  0
LINE
  8
0
 10
-9.1111
 20
12
 11
-20.8885
 21
12
  0
LINE
  8
0
 10
22.9676
 20
12
 11
23.0196
 21
12.09
  0
LINE
  8
0
 10
23.0196
 20
12.09
 11
26.9806
 21
12.0905
  0
LINE
  8
0
 10
26.9806
 20
12.0905
 11
27.0328
 21
12
  0
LINE
  8
0
 10
27.0328
 20
12
 11
22.9676
 21
12
  0
LINE
  8
0
 10
2.96721
 20
12
 11
3.01941
 21
12.0905
  0
LINE
  8
0
 10
3.01941
 20
12.0905
 11
6.97998
 21
12.0905
  0
LINE
  8
0
 10
6.97998
 20
12.0905
 11
7.0322
 21
12
  0
LINE
  8
0
 10
7.0322
 20
12
 11
2.96721
 21
12
  0
LINE
  8
0
 10
-37.0324
 20
12
 11
-36.9804
 21
12.09
  0
LINE
  8
0
 10
-36.9804
 20
12.09
 11
-33.0194
 21
12.0905
  0
LINE
  8
0
 10
-33.0194
 20
12.0905
 11
-32.9672
 21
12
  0
LINE
  8
0
 10
-32.9672
 20
12
 11
-37.0324
 21
12
  0
LINE
  8
0
 10
-27.0328
 20
12
 11
-26.9806
 21
12.0905
  0
LINE
  8
0
 10
-26.9806
 20
12.0905
 11
-23.02
 21
12.0905
  0
LINE
  8
0
 10
-23.02
 20
12.0905
 11
-22.9678
 21
12
  0
LINE
  8
0
 10
-22.9678
 20
12
 11
-27.0328
 21
12
  0
LINE
  8
0
 10
32.9672
 20
12
 11
33.0194
 21
12.0905
  0
LINE
  8
0
 10
33.0194
 20
12.0905
 11
36.98
 21
12.0905
  0
LINE
  8
0
 10
36.98
 20
12.0905
 11
37.0322
 21
12
  0
LINE
  8
0
 10
37.0322
 20
12
 11
32.9672
 21
12
  0
LINE
  8
0
 10
52.9676
 20
12
 11
53.0196
 21
12.09
  0
LINE
  8
0
 10
53.0196
 20
12.09
 11
56.9806
 21
12.0905
  0
LINE
  8
0
 10
56.9806
 20
12.0905
 11
57.0328
 21
12
  0
LINE
  8
0
 10
57.0328
 20
12
 11
52.9676
 21
12
  0
LINE
  8
0
 10
-57.0328
 20
12
 11
-56.9806
 21
12.0905
  0
LINE
  8
0
 10
-56.9806
 20
12.0905
 11
-53.02
 21
12.0905
  0
LINE
  8
0
 10
-53.02
 20
12.0905
 11
-52.9678
 21
12
  0
LINE
  8
0
 10
-52.9678
 20
12
 11
-57.0328
 21
12
  0
LINE
  8
0
 10
-7.03238
 20
12
 11
-6.98044
 21
12.09
  0
LINE
  8
0
 10
-6.98044
 20
12.09
 11
-3.01941
 21
12.0905
  0
LINE
  8
0
 10
-3.01941
 20
12.0905
 11
-2.96719
 21
12
  0
LINE
  8
0
 10
-2.96719
 20
12
 11
-7.03238
 21
12
  0
LINE
  8
0
 10
-10
 20
7
 11
-10
 21
11
  0
LINE
  8
0
 10
-10
 20
11
 11
10
 21
11
  0
LINE
  8
0
 10
10
 20
11
 11
10
 21
7
  0
LINE
  8
0
 10
10
 20
7
 11
-10
 21
7
  0
LINE
  8
0
 10
-68.6534
 20
2.70622
 11
-68.7785
 21
2.71805
  0
LINE
  8
0
 10
-68.7785
 20
2.71805
 11
-68.9026
 21
2.7377
  0
LINE
  8
0
 10
-68.9026
 20
2.7377
 11
-69.0252
 21
2.76511
  0
LINE
  8
0
 10
-69.0252
 20
2.76511
 11
-69.1459
 21
2.80016
  0
LINE
  8
0
 10
-69.1459
 20
2.80016
 11
-69.2641
 21
2.84273
  0
LINE
  8
0
 10
-69.2641
 20
2.84273
 11
-69.3794
 21
2.89262
  0
LINE
  8
0
 10
-69.3794
 20
2.89262
 11
-69.4914
 21
2.94966
  0
LINE
  8
0
 10
-69.4914
 20
2.94966
 11
-69.5995
 21
3.01363
  0
LINE
  8
0
 10
-69.5995
 20
3.01363
 11
-69.7034
 21
3.08424
  0
LINE
  8
0
 10
-69.7034
 20
3.08424
 11
-69.8027
 21
3.16125
  0
LINE
  8
0
 10
-69.8027
 20
3.16125
 11
-69.897
 21
3.24434
  0
LINE
  8
0
 10
-69.897
 20
3.24434
 11
-69.9858
 21
3.33318
  0
LINE
  8
0
 10
-69.9858
 20
3.33318
 11
-70.0689
 21
3.42743
  0
LINE
  8
0
 10
-70.0689
 20
3.42743
 11
-70.1459
 21
3.5267
  0
LINE
  8
0
 10
-70.1459
 20
3.5267
 11
-70.2165
 21
3.63062
  0
LINE
  8
0
 10
-70.2165
 20
3.63062
 11
-70.2805
 21
3.73877
  0
LINE
  8
0
 10
-70.2805
 20
3.73877
 11
-70.3375
 21
3.85072
  0
LINE
  8
0
 10
-70.3375
 20
3.85072
 11
-70.3874
 21
3.96602
  0
LINE
  8
0
 10
-70.3874
 20
3.96602
 11
-70.43
 21
4.08424
  0
LINE
  8
0
 10
-70.43
 20
4.08424
 11
-70.465
 21
4.2049
  0
LINE
  8
0
 10
-70.465
 20
4.2049
 11
-70.4924
 21
4.32751
  0
LINE
  8
0
 10
-70.4924
 20
4.32751
 11
-70.5121
 21
4.45161
  0
LINE
  8
0
 10
-70.5121
 20
4.45161
 11
-70.5239
 21
4.57669
  0
LINE
  8
0
 10
-70.5239
 20
4.57669
 11
-70.5279
 21
4.70227
  0
LINE
  8
0
 10
-70.5279
 20
4.70227
 11
-70.5239
 21
4.82785
  0
LINE
  8
0
 10
-70.5239
 20
4.82785
 11
-70.5121
 21
4.95294
  0
LINE
  8
0
 10
-70.5121
 20
4.95294
 11
-70.4924
 21
5.07704
  0
LINE
  8
0
 10
-70.4924
 20
5.07704
 11
-70.465
 21
5.19966
  0
LINE
  8
0
 10
-70.465
 20
5.19966
 11
-70.43
 21
5.32031
  0
LINE
  8
0
 10
-70.43
 20
5.32031
 11
-70.3874
 21
5.43852
  0
LINE
  8
0
 10
-70.3874
 20
5.43852
 11
-70.3375
 21
5.55383
  0
LINE
  8
0
 10
-70.3375
 20
5.55383
 11
-70.2805
 21
5.66579
  0
LINE
  8
0
 10
-70.2805
 20
5.66579
 11
-70.2165
 21
5.77393
  0
LINE
  8
0
 10
-70.2165
 20
5.77393
 11
-70.1459
 21
5.87784
  0
LINE
  8
0
 10
-70.1459
 20
5.87784
 11
-70.0689
 21
5.97713
  0
LINE
  8
0
 10
-70.0689
 20
5.97713
 11
-69.9858
 21
6.07137
  0
LINE
  8
0
 10
-69.9858
 20
6.07137
 11
-69.897
 21
6.16022
  0
LINE
  8
0
 10
-69.897
 20
6.16022
 11
-69.8027
 21
6.2433
  0
LINE
  8
0
 10
-69.8027
 20
6.2433
 11
-69.7034
 21
6.32031
  0
LINE
  8
0
 10
-69.7034
 20
6.32031
 11
-69.5995
 21
6.39093
  0
LINE
  8
0
 10
-69.5995
 20
6.39093
 11
-69.4914
 21
6.4549
  0
LINE
  8
0
 10
-69.4914
 20
6.4549
 11
-69.3794
 21
6.51193
  0
LINE
  8
0
 10
-69.3794
 20
6.51193
 11
-69.2641
 21
6.56183
  0
LINE
  8
0
 10
-69.2641
 20
6.56183
 11
-69.1459
 21
6.60439
  0
LINE
  8
0
 10
-69.1459
 20
6.60439
 11
-69.0252
 21
6.63943
  0
LINE
  8
0
 10
-69.0252
 20
6.63943
 11
-68.9026
 21
6.66685
  0
LINE
  8
0
 10
-68.9026
 20
6.66685
 11
-68.7785
 21
6.68651
  0
LINE
  8
0
 10
-68.7785
 20
6.68651
 11
-68.6534
 21
6.69833
  0
LINE
  8
0
 10
-68.6534
 20
6.69833
 11
-68.5279
 21
6.70227
  0
LINE
  8
0
 10
-68.5279
 20
6.70227
 11
-68.4023
 21
6.69833
  0
LINE
  8
0
 10
-68.4023
 20
6.69833
 11
-68.2772
 21
6.68651
  0
LINE
  8
0
 10
-68.2772
 20
6.68651
 11
-68.1531
 21
6.66685
  0
LINE
  8
0
 10
-68.1531
 20
6.66685
 11
-68.0305
 21
6.63943
  0
LINE
  8
0
 10
-68.0305
 20
6.63943
 11
-67.9098
 21
6.60439
  0
LINE
  8
0
 10
-67.9098
 20
6.60439
 11
-67.7916
 21
6.56183
  0
LINE
  8
0
 10
-67.7916
 20
6.56183
 11
-67.6763
 21
6.51193
  0
LINE
  8
0
 10
-67.6763
 20
6.51193
 11
-67.5643
 21
6.4549
  0
LINE
  8
0
 10
-67.5643
 20
6.4549
 11
-67.4562
 21
6.39093
  0
LINE
  8
0
 10
-67.4562
 20
6.39093
 11
-67.3523
 21
6.32031
  0
LINE
  8
0
 10
-67.3523
 20
6.32031
 11
-67.253
 21
6.2433
  0
LINE
  8
0
 10
-67.253
 20
6.2433
 11
-67.1588
 21
6.16022
  0
LINE
  8
0
 10
-67.1588
 20
6.16022
 11
-67.0699
 21
6.07137
  0
LINE
  8
0
 10
-67.0699
 20
6.07137
 11
-66.9868
 21
5.97713
  0
LINE
  8
0
 10
-66.9868
 20
5.97713
 11
-66.9098
 21
5.87784
  0
LINE
  8
0
 10
-66.9098
 20
5.87784
 11
-66.8392
 21
5.77393
  0
LINE
  8
0
 10
-66.8392
 20
5.77393
 11
-66.7752
 21
5.66579
  0
LINE
  8
0
 10
-66.7752
 20
5.66579
 11
-66.7182
 21
5.55383
  0
LINE
  8
0
 10
-66.7182
 20
5.55383
 11
-66.6683
 21
5.43852
  0
LINE
  8
0
 10
-66.6683
 20
5.43852
 11
-66.6257
 21
5.32031
  0
LINE
  8
0
 10
-66.6257
 20
5.32031
 11
-66.5907
 21
5.19966
  0
LINE
  8
0
 10
-66.5907
 20
5.19966
 11
-66.5633
 21
5.07704
  0
LINE
  8
0
 10
-66.5633
 20
5.07704
 11
-66.5436
 21
4.95294
  0
LINE
  8
0
 10
-66.5436
 20
4.95294
 11
-66.5318
 21
4.82785
  0
LINE
  8
0
 10
-66.5318
 20
4.82785
 11
-66.5279
 21
4.70227
  0
LINE
  8
0
 10
-66.5279
 20
4.70227
 11
-66.5318
 21
4.57669
  0
LINE
  8
0
 10
-66.5318
 20
4.57669
 11
-66.5436
 21
4.45161
  0
LINE
  8
0
 10
-66.5436
 20
4.45161
 11
-66.5633
 21
4.32751
  0
LINE
  8
0
 10
-66.5633
 20
4.32751
 11
-66.5907
 21
4.2049
  0
LINE
  8
0
 10
-66.5907
 20
4.2049
 11
-66.6257
 21
4.08424
  0
LINE
  8
0
 10
-66.6257
 20
4.08424
 11
-66.6683
 21
3.96602
  0
LINE
  8
0
 10
-66.6683
 20
3.96602
 11
-66.7182
 21
3.85072
  0
LINE
  8
0
 10
-66.7182
 20
3.85072
 11
-66.7752
 21
3.73877
  0
LINE
  8
0
 10
-66.7752
 20
3.73877
 11
-66.8392
 21
3.63062
  0
LINE
  8
0
 10
-66.8392
 20
3.63062
 11
-66.9098
 21
3.5267
  0
LINE
  8
0
 10
-66.9098
 20
3.5267
 11
-66.9868
 21
3.42743
  0
LINE
  8
0
 10
-66.9868
 20
3.42743
 11
-67.0699
 21
3.33318
  0
LINE
  8
0
 10
-67.0699
 20
3.33318
 11
-67.1588
 21
3.24434
  0
LINE
  8
0
 10
-67.1588
 20
3.24434
 11
-67.253
 21
3.16125
  0
LINE
  8
0
 10
-67.253
 20
3.16125
 11
-67.3523
 21
3.08424
  0
LINE
  8
0
 10
-67.3523
 20
3.08424
 11
-67.4562
 21
3.01363
  0
LINE
  8
0
 10
-67.4562
 20
3.01363
 11
-67.5643
 21
2.94966
  0
LINE
  8
0
 10
-67.5643
 20
2.94966
 11
-67.6763
 21
2.89262
  0
LINE
  8
0
 10
-67.6763
 20
2.89262
 11
-67.7916
 21
2.84273
  0
LINE
  8
0
 10
-67.7916
 20
2.84273
 11
-67.9098
 21
2.80016
  0
LINE
  8
0
 10
-67.9098
 20
2.80016
 11
-68.0305
 21
2.76511
  0
LINE
  8
0
 10
-68.0305
 20
2.76511
 11
-68.1531
 21
2.7377
  0
LINE
  8
0
 10
-68.1531
 20
2.7377
 11
-68.2772
 21
2.71805
  0
LINE
  8
0
 10
-68.2772
 20
2.71805
 11
-68.4023
 21
2.70622
  0
LINE
  8
0
 10
-68.4023
 20
2.70622
 11
-68.5279
 21
2.70227
  0
LINE
  8
0
 10
-68.5279
 20
2.70227
 11
-68.6534
 21
2.70622
  0
LINE
  8
0
 10
68.4023
 20
2.70622
 11
68.2772
 21
2.71805
  0
LINE
  8
0
 10
68.2772
 20
2.71805
 11
68.1531
 21
2.7377
  0
LINE
  8
0
 10
68.1531
 20
2.7377
 11
68.0305
 21
2.76511
  0
LINE
  8
0
 10
68.0305
 20
2.76511
 11
67.9098
 21
2.80016
  0
LINE
  8
0
 10
67.9098
 20
2.80016
 11
67.7916
 21
2.84273
  0
LINE
  8
0
 10
67.7916
 20
2.84273
 11
67.6763
 21
2.89262
  0
LINE
  8
0
 10
67.6763
 20
2.89262
 11
67.5643
 21
2.94966
  0
LINE
  8
0
 10
67.5643
 20
2.94966
 11
67.4562
 21
3.01363
  0
LINE
  8
0
 10
67.4562
 20
3.01363
 11
67.3523
 21
3.08424
  0
LINE
  8
0
 10
67.3523
 20
3.08424
 11
67.253
 21
3.16125
  0
LINE
  8
0
 10
67.253
 20
3.16125
 11
67.1588
 21
3.24434
  0
LINE
  8
0
 10
67.1588
 20
3.24434
 11
67.0699
 21
3.33318
  0
LINE
  8
0
 10
67.0699
 20
3.33318
 11
66.9868
 21
3.42743
  0
LINE
  8
0
 10
66.9868
 20
3.42743
 11
66.9098
 21
3.5267
  0
LINE
  8
0
 10
66.9098
 20
3.5267
 11
66.8392
 21
3.63062
  0
LINE
  8
0
 10
66.8392
 20
3.63062
 11
66.7752
 21
3.73877
  0
LINE
  8
0
 10
66.7752
 20
3.73877
 11
66.7182
 21
3.85072
  0
LINE
  8
0
 10
66.7182
 20
3.85072
 11
66.6683
 21
3.96602
  0
LINE
  8
0
 10
66.6683
 20
3.96602
 11
66.6257
 21
4.08424
  0
LINE
  8
0
 10
66.6257
 20
4.08424
 11
66.5907
 21
4.2049
  0
LINE
  8
0
 10
66.5907
 20
4.2049
 11
66.5633
 21
4.32751
  0
LINE
  8
0
 10
66.5633
 20
4.32751
 11
66.5436
 21
4.45161
  0
LINE
  8
0
 10
66.5436
 20
4.45161
 11
66.5318
 21
4.57669
  0
LINE
  8
0
 10
66.5318
 20
4.57669
 11
66.5279
 21
4.70227
  0
LINE
  8
0
 10
66.5279
 20
4.70227
 11
66.5318
 21
4.82785
  0
LINE
  8
0
 10
66.5318
 20
4.82785
 11
66.5436
 21
4.95294
  0
LINE
  8
0
 10
66.5436
 20
4.95294
 11
66.5633
 21
5.07704
  0
LINE
  8
0
 10
66.5633
 20
5.07704
 11
66.5907
 21
5.19966
  0
LINE
  8
0
 10
66.5907
 20
5.19966
 11
66.6257
 21
5.32031
  0
LINE
  8
0
 10
66.6257
 20
5.32031
 11
66.6683
 21
5.43852
  0
LINE
  8
0
 10
66.6683
 20
5.43852
 11
66.7182
 21
5.55383
  0
LINE
  8
0
 10
66.7182
 20
5.55383
 11
66.7752
 21
5.66579
  0
LINE
  8
0
 10
66.7752
 20
5.66579
 11
66.8392
 21
5.77393
  0
LINE
  8
0
 10
66.8392
 20
5.77393
 11
66.9098
 21
5.87784
  0
LINE
  8
0
 10
66.9098
 20
5.87784
 11
66.9868
 21
5.97713
  0
LINE
  8
0
 10
66.9868
 20
5.97713
 11
67.0699
 21
6.07137
  0
LINE
  8
0
 10
67.0699
 20
6.07137
 11
67.1588
 21
6.16022
  0
LINE
  8
0
 10
67.1588
 20
6.16022
 11
67.253
 21
6.2433
  0
LINE
  8
0
 10
67.253
 20
6.2433
 11
67.3523
 21
6.32031
  0
LINE
  8
0
 10
67.3523
 20
6.32031
 11
67.4562
 21
6.39093
  0
LINE
  8
0
 10
67.4562
 20
6.39093
 11
67.5643
 21
6.4549
  0
LINE
  8
0
 10
67.5643
 20
6.4549
 11
67.6763
 21
6.51193
  0
LINE
  8
0
 10
67.6763
 20
6.51193
 11
67.7916
 21
6.56183
  0
LINE
  8
0
 10
67.7916
 20
6.56183
 11
67.9098
 21
6.60439
  0
LINE
  8
0
 10
67.9098
 20
6.60439
 11
68.0305
 21
6.63943
  0
LINE
  8
0
 10
68.0305
 20
6.63943
 11
68.1531
 21
6.66685
  0
LINE
  8
0
 10
68.1531
 20
6.66685
 11
68.2772
 21
6.68651
  0
LINE
  8
0
 10
68.2772
 20
6.68651
 11
68.4023
 21
6.69833
  0
LINE
  8
0
 10
68.4023
 20
6.69833
 11
68.5279
 21
6.70227
  0
LINE
  8
0
 10
68.5279
 20
6.70227
 11
68.6534
 21
6.69833
  0
LINE
  8
0
 10
68.6534
 20
6.69833
 11
68.7785
 21
6.68651
  0
LINE
  8
0
 10
68.7785
 20
6.68651
 11
68.9026
 21
6.66685
  0
LINE
  8
0
 10
68.9026
 20
6.66685
 11
69.0252
 21
6.63943
  0
LINE
  8
0
 10
69.0252
 20
6.63943
 11
69.1459
 21
6.60439
  0
LINE
  8
0
 10
69.1459
 20
6.60439
 11
69.2641
 21
6.56183
  0
LINE
  8
0
 10
69.2641
 20
6.56183
 11
69.3794
 21
6.51193
  0
LINE
  8
0
 10
69.3794
 20
6.51193
 11
69.4914
 21
6.4549
  0
LINE
  8
0
 10
69.4914
 20
6.4549
 11
69.5995
 21
6.39093
  0
LINE
  8
0
 10
69.5995
 20
6.39093
 11
69.7034
 21
6.32031
  0
LINE
  8
0
 10
69.7034
 20
6.32031
 11
69.8027
 21
6.2433
  0
LINE
  8
0
 10
69.8027
 20
6.2433
 11
69.897
 21
6.16022
  0
LINE
  8
0
 10
69.897
 20
6.16022
 11
69.9858
 21
6.07137
  0
LINE
  8
0
 10
69.9858
 20
6.07137
 11
70.0689
 21
5.97713
  0
LINE
  8
0
 10
70.0689
 20
5.97713
 11
70.1459
 21
5.87784
  0
LINE
  8
0
 10
70.1459
 20
5.87784
 11
70.2165
 21
5.77393
  0
LINE
  8
0
 10
70.2165
 20
5.77393
 11
70.2805
 21
5.66579
  0
LINE
  8
0
 10
70.2805
 20
5.66579
 11
70.3375
 21
5.55383
  0
LINE
  8
0
 10
70.3375
 20
5.55383
 11
70.3874
 21
5.43852
  0
LINE
  8
0
 10
70.3874
 20
5.43852
 11
70.43
 21
5.32031
  0
LINE
  8
0
 10
70.43
 20
5.32031
 11
70.465
 21
5.19966
  0
LINE
  8
0
 10
70.465
 20
5.19966
 11
70.4924
 21
5.07704
  0
LINE
  8
0
 10
70.4924
 20
5.07704
 11
70.5121
 21
4.95294
  0
LINE
  8
0
 10
70.5121
 20
4.95294
 11
70.5239
 21
4.82785
  0
LINE
  8
0
 10
70.5239
 20
4.82785
 11
70.5279
 21
4.70227
  0
LINE
  8
0
 10
70.5279
 20
4.70227
 11
70.5239
 21
4.57669
  0
LINE
  8
0
 10
70.5239
 20
4.57669
 11
70.5121
 21
4.45161
  0
LINE
  8
0
 10
70.5121
 20
4.45161
 11
70.4924
 21
4.32751
  0
LINE
  8
0
 10
70.4924
 20
4.32751
 11
70.465
 21
4.2049
  0
LINE
  8
0
 10
70.465
 20
4.2049
 11
70.43
 21
4.08424
  0
LINE
  8
0
 10
70.43
 20
4.08424
 11
70.3874
 21
3.96602
  0
LINE
  8
0
 10
70.3874
 20
3.96602
 11
70.3375
 21
3.85072
  0
LINE
  8
0
 10
70.3375
 20
3.85072
 11
70.2805
 21
3.73877
  0
LINE
  8
0
 10
70.2805
 20
3.73877
 11
70.2165
 21
3.63062
  0
LINE
  8
0
 10
70.2165
 20
3.63062
 11
70.1459
 21
3.5267
  0
LINE
  8
0
 10
70.1459
 20
3.5267
 11
70.0689
 21
3.42743
  0
LINE
  8
0
 10
70.0689
 20
3.42743
 11
69.9858
 21
3.33318
  0
LINE
  8
0
 10
69.9858
 20
3.33318
 11
69.897
 21
3.24434
  0
LINE
  8
0
 10
69.897
 20
3.24434
 11
69.8027
 21
3.16125
  0
LINE
  8
0
 10
69.8027
 20
3.16125
 11
69.7034
 21
3.08424
  0
LINE
  8
0
 10
69.7034
 20
3.08424
 11
69.5995
 21
3.01363
  0
LINE
  8
0
 10
69.5995
 20
3.01363
 11
69.4914
 21
2.94966
  0
LINE
  8
0
 10
69.4914
 20
2.94966
 11
69.3794
 21
2.89262
  0
LINE
  8
0
 10
69.3794
 20
2.89262
 11
69.2641
 21
2.84273
  0
LINE
  8
0
 10
69.2641
 20
2.84273
 11
69.1459
 21
2.80016
  0
LINE
  8
0
 10
69.1459
 20
2.80016
 11
69.0252
 21
2.76511
  0
LINE
  8
0
 10
69.0252
 20
2.76511
 11
68.9026
 21
2.7377
  0
LINE
  8
0
 10
68.9026
 20
2.7377
 11
68.7785
 21
2.71805
  0
LINE
  8
0
 10
68.7785
 20
2.71805
 11
68.6534
 21
2.70622
  0
LINE
  8
0
 10
68.6534
 20
2.70622
 11
68.5279
 21
2.70227
  0
LINE
  8
0
 10
68.5279
 20
2.70227
 11
68.4023
 21
2.70622
  0
ENDSEC
  0
SECTION
  2
OBJECTS
  0
DICTIONARY
  0
ENDSEC
  0
EOF
