  0
SECTION
  2
BLOCKS
  0
ENDSEC
  0
SECTION
  2
ENTITIES
  0
LINE
  8
0
 10
0
 20
230.826
 11
-75
 21
0
  0
LINE
  8
0
 10
-75
 20
0
 11
75
 21
0
  0
LINE
  8
0
 10
75
 20
0
 11
0
 21
230.826
  0
LINE
  8
0
 10
-0.12558
 20
212.83
 11
-0.250656
 21
212.842
  0
LINE
  8
0
 10
-0.250656
 20
212.842
 11
-0.374756
 21
212.862
  0
LINE
  8
0
 10
-0.374756
 20
212.862
 11
-0.497375
 21
212.889
  0
LINE
  8
0
 10
-0.497375
 20
212.889
 11
-0.618027
 21
212.924
  0
LINE
  8
0
 10
-0.618027
 20
212.924
 11
-0.736237
 21
212.967
  0
LINE
  8
0
 10
-0.736237
 20
212.967
 11
-0.851547
 21
213.017
  0
LINE
  8
0
 10
-0.851547
 20
213.017
 11
-0.963501
 21
213.074
  0
LINE
  8
0
 10
-0.963501
 20
213.074
 11
-1.07164
 21
213.138
  0
LINE
  8
0
 10
-1.07164
 20
213.138
 11
-1.17557
 21
213.208
  0
LINE
  8
0
 10
-1.17557
 20
213.208
 11
-1.27484
 21
213.285
  0
LINE
  8
0
 10
-1.27484
 20
213.285
 11
-1.36908
 21
213.368
  0
LINE
  8
0
 10
-1.36908
 20
213.368
 11
-1.45793
 21
213.457
  0
LINE
  8
0
 10
-1.45793
 20
213.457
 11
-1.54102
 21
213.551
  0
LINE
  8
0
 10
-1.54102
 20
213.551
 11
-1.61803
 21
213.651
  0
LINE
  8
0
 10
-1.61803
 20
213.651
 11
-1.68864
 21
213.755
  0
LINE
  8
0
 10
-1.68864
 20
213.755
 11
-1.75261
 21
213.863
  0
LINE
  8
0
 10
-1.75261
 20
213.863
 11
-1.80965
 21
213.975
  0
LINE
  8
0
 10
-1.80965
 20
213.975
 11
-1.85954
 21
214.09
  0
LINE
  8
0
 10
-1.85954
 20
214.09
 11
-1.9021
 21
214.208
  0
LINE
  8
0
 10
-1.9021
 20
214.208
 11
-1.93716
 21
214.329
  0
LINE
  8
0
 10
-1.93716
 20
214.329
 11
-1.96457
 21
214.451
  0
LINE
  8
0
 10
-1.96457
 20
214.451
 11
-1.98422
 21
214.576
  0
LINE
  8
0
 10
-1.98422
 20
214.576
 11
-1.99605
 21
214.701
  0
LINE
  8
0
 10
-1.99605
 20
214.701
 11
-2
 21
214.826
  0
LINE
  8
0
 10
-2
 20
214.826
 11
-1.99605
 21
214.952
  0
LINE
  8
0
 10
-1.99605
 20
214.952
 11
-1.98422
 21
215.077
  0
LINE
  8
0
 10
-1.98422
 20
215.077
 11
-1.96457
 21
215.201
  0
LINE
  8
0
 10
-1.96457
 20
215.201
 11
-1.93716
 21
215.324
  0
LINE
  8
0
 10
-1.93716
 20
215.324
 11
-1.9021
 21
215.444
  0
LINE
  8
0
 10
-1.9021
 20
215.444
 11
-1.85954
 21
215.562
  0
LINE
  8
0
 10
-1.85954
 20
215.562
 11
-1.80965
 21
215.678
  0
LINE
  8
0
 10
-1.80965
 20
215.678
 11
-1.75261
 21
215.79
  0
LINE
  8
0
 10
-1.75261
 20
215.79
 11
-1.68864
 21
215.898
  0
LINE
  8
0
 10
-1.68864
 20
215.898
 11
-1.61803
 21
216.002
  0
LINE
  8
0
 10
-1.61803
 20
216.002
 11
-1.54102
 21
216.101
  0
LINE
  8
0
 10
-1.54102
 20
216.101
 11
-1.45793
 21
216.195
  0
LINE
  8
0
 10
-1.45793
 20
216.195
 11
-1.36908
 21
216.284
  0
LINE
  8
0
 10
-1.36908
 20
216.284
 11
-1.27484
 21
216.367
  0
LINE
  8
0
 10
-1.27484
 20
216.367
 11
-1.17557
 21
216.444
  0
LINE
  8
0
 10
-1.17557
 20
216.444
 11
-1.07164
 21
216.515
  0
LINE
  8
0
 10
-1.07164
 20
216.515
 11
-0.963501
 21
216.579
  0
LINE
  8
0
 10
-0.963501
 20
216.579
 11
-0.851547
 21
216.636
  0
LINE
  8
0
 10
-0.851547
 20
216.636
 11
-0.736237
 21
216.686
  0
LINE
  8
0
 10
-0.736237
 20
216.686
 11
-0.618027
 21
216.728
  0
LINE
  8
0
 10
-0.618027
 20
216.728
 11
-0.497375
 21
216.763
  0
LINE
  8
0
 10
-0.497375
 20
216.763
 11
-0.374756
 21
216.791
  0
LINE
  8
0
 10
-0.374756
 20
216.791
 11
-0.250656
 21
216.81
  0
LINE
  8
0
 10
-0.250656
 20
216.81
 11
-0.12558
 21
216.822
  0
LINE
  8
0
 10
-0.12558
 20
216.822
 11
0
 21
216.826
  0
LINE
  8
0
 10
0
 20
216.826
 11
0.12558
 21
216.822
  0
LINE
  8
0
 10
0.12558
 20
216.822
 11
0.250656
 21
216.81
  0
LINE
  8
0
 10
0.250656
 20
216.81
 11
0.374756
 21
216.791
  0
LINE
  8
0
 10
0.374756
 20
216.791
 11
0.497375
 21
216.763
  0
LINE
  8
0
 10
0.497375
 20
216.763
 11
0.618027
 21
216.728
  0
LINE
  8
0
 10
0.618027
 20
216.728
 11
0.736237
 21
216.686
  0
LINE
  8
0
 10
0.736237
 20
216.686
 11
0.851547
 21
216.636
  0
LINE
  8
0
 10
0.851547
 20
216.636
 11
0.963501
 21
216.579
  0
LINE
  8
0
 10
0.963501
 20
216.579
 11
1.07164
 21
216.515
  0
LINE
  8
0
 10
1.07164
 20
216.515
 11
1.17557
 21
216.444
  0
LINE
  8
0
 10
1.17557
 20
216.444
 11
1.27484
 21
216.367
  0
LINE
  8
0
 10
1.27484
 20
216.367
 11
1.36908
 21
216.284
  0
LINE
  8
0
 10
1.36908
 20
216.284
 11
1.45793
 21
216.195
  0
LINE
  8
0
 10
1.45793
 20
216.195
 11
1.54102
 21
216.101
  0
LINE
  8
0
 10
1.54102
 20
216.101
 11
1.61803
 21
216.002
  0
LINE
  8
0
 10
1.61803
 20
216.002
 11
1.68864
 21
215.898
  0
LINE
  8
0
 10
1.68864
 20
215.898
 11
1.75261
 21
215.79
  0
LINE
  8
0
 10
1.75261
 20
215.79
 11
1.80965
 21
215.678
  0
LINE
  8
0
 10
1.80965
 20
215.678
 11
1.85954
 21
215.562
  0
LINE
  8
0
 10
1.85954
 20
215.562
 11
1.9021
 21
215.444
  0
LINE
  8
0
 10
1.9021
 20
215.444
 11
1.93716
 21
215.324
  0
LINE
  8
0
 10
1.93716
 20
215.324
 11
1.96457
 21
215.201
  0
LINE
  8
0
 10
1.96457
 20
215.201
 11
1.98422
 21
215.077
  0
LINE
  8
0
 10
1.98422
 20
215.077
 11
1.99605
 21
214.952
  0
LINE
  8
0
 10
1.99605
 20
214.952
 11
2
 21
214.826
  0
LINE
  8
0
 10
2
 20
214.826
 11
1.99605
 21
214.701
  0
LINE
  8
0
 10
1.99605
 20
214.701
 11
1.98422
 21
214.576
  0
LINE
  8
0
 10
1.98422
 20
214.576
 11
1.96457
 21
214.451
  0
LINE
  8
0
 10
1.96457
 20
214.451
 11
1.93716
 21
214.329
  0
LINE
  8
0
 10
1.93716
 20
214.329
 11
1.9021
 21
214.208
  0
LINE
  8
0
 10
1.9021
 20
214.208
 11
1.85954
 21
214.09
  0
LINE
  8
0
 10
1.85954
 20
214.09
 11
1.80965
 21
213.975
  0
LINE
  8
0
 10
1.80965
 20
213.975
 11
1.75261
 21
213.863
  0
LINE
  8
0
 10
1.75261
 20
213.863
 11
1.68864
 21
213.755
  0
LINE
  8
0
 10
1.68864
 20
213.755
 11
1.61803
 21
213.651
  0
LINE
  8
0
 10
1.61803
 20
213.651
 11
1.54102
 21
213.551
  0
LINE
  8
0
 10
1.54102
 20
213.551
 11
1.45793
 21
213.457
  0
LINE
  8
0
 10
1.45793
 20
213.457
 11
1.36908
 21
213.368
  0
LINE
  8
0
 10
1.36908
 20
213.368
 11
1.27484
 21
213.285
  0
LINE
  8
0
 10
1.27484
 20
213.285
 11
1.17557
 21
213.208
  0
LINE
  8
0
 10
1.17557
 20
213.208
 11
1.07164
 21
213.138
  0
LINE
  8
0
 10
1.07164
 20
213.138
 11
0.963501
 21
213.074
  0
LINE
  8
0
 10
0.963501
 20
213.074
 11
0.851547
 21
213.017
  0
LINE
  8
0
 10
0.851547
 20
213.017
 11
0.736237
 21
212.967
  0
LINE
  8
0
 10
0.736237
 20
212.967
 11
0.618027
 21
212.924
  0
LINE
  8
0
 10
0.618027
 20
212.924
 11
0.497375
 21
212.889
  0
LINE
  8
0
 10
0.497375
 20
212.889
 11
0.374756
 21
212.862
  0
LINE
  8
0
 10
0.374756
 20
212.862
 11
0.250656
 21
212.842
  0
LINE
  8
0
 10
0.250656
 20
212.842
 11
0.12558
 21
212.83
  0
LINE
  8
0
 10
0.12558
 20
212.83
 11
0
 21
212.826
  0
LINE
  8
0
 10
0
 20
212.826
 11
-0.12558
 21
212.83
  0
LINE
  8
0
 10
-2.51604
 20
184.25
 11
-1.69983
 21
186.762
  0
LINE
  8
0
 10
-1.69983
 20
186.762
 11
-1.69983
 21
184.25
  0
LINE
  8
0
 10
-1.69983
 20
184.25
 11
-2.51604
 21
184.25
  0
LINE
  8
0
 10
1.69983
 20
184.25
 11
1.69983
 21
186.762
  0
LINE
  8
0
 10
1.69983
 20
186.762
 11
2.51604
 21
184.25
  0
LINE
  8
0
 10
2.51604
 20
184.25
 11
1.69983
 21
184.25
  0
LINE
  8
0
 10
-4.17307
 20
179.15
 11
-3.62085
 21
180.85
  0
LINE
  8
0
 10
-3.62085
 20
180.85
 11
3.62085
 21
180.85
  0
LINE
  8
0
 10
3.62085
 20
180.85
 11
4.17307
 21
179.15
  0
LINE
  8
0
 10
4.17307
 20
179.15
 11
-4.17307
 21
179.15
  0
LINE
  8
0
 10
1.69983
 20
171.5
 11
1.69983
 21
175.75
  0
LINE
  8
0
 10
1.69983
 20
175.75
 11
3.39966
 21
175.75
  0
LINE
  8
0
 10
3.39966
 20
175.75
 11
3.39966
 21
173.2
  0
LINE
  8
0
 10
3.39966
 20
173.2
 11
6.10634
 21
173.2
  0
LINE
  8
0
 10
6.10634
 20
173.2
 11
6.65875
 21
171.5
  0
LINE
  8
0
 10
6.65875
 20
171.5
 11
1.69983
 21
171.5
  0
LINE
  8
0
 10
-6.65875
 20
171.5
 11
-6.10634
 21
173.2
  0
LINE
  8
0
 10
-6.10634
 20
173.2
 11
-3.39966
 21
173.2
  0
LINE
  8
0
 10
-3.39966
 20
173.2
 11
-3.39966
 21
175.75
  0
LINE
  8
0
 10
-3.39966
 20
175.75
 11
-1.69983
 21
175.75
  0
LINE
  8
0
 10
-1.69983
 20
175.75
 11
-1.69983
 21
171.5
  0
LINE
  8
0
 10
-1.69983
 20
171.5
 11
-6.65875
 21
171.5
  0
LINE
  8
0
 10
-8.49976
 20
151.5
 11
-8.49976
 21
158.3
  0
LINE
  8
0
 10
-8.49976
 20
158.3
 11
-4.24988
 21
158.3
  0
LINE
  8
0
 10
-4.24988
 20
158.3
 11
-4.24988
 21
156.6
  0
LINE
  8
0
 10
-4.24988
 20
156.6
 11
-6.79962
 21
156.6
  0
LINE
  8
0
 10
-6.79962
 20
156.6
 11
-6.79962
 21
153.2
  0
LINE
  8
0
 10
-6.79962
 20
153.2
 11
-0.849609
 21
153.2
  0
LINE
  8
0
 10
-0.849609
 20
153.2
 11
-0.849609
 21
166.8
  0
LINE
  8
0
 10
-0.849609
 20
166.8
 11
-6.79962
 21
166.8
  0
LINE
  8
0
 10
-6.79962
 20
166.8
 11
-6.79962
 21
163.4
  0
LINE
  8
0
 10
-6.79962
 20
163.4
 11
-4.24988
 21
163.4
  0
LINE
  8
0
 10
-4.24988
 20
163.4
 11
-4.24988
 21
161.7
  0
LINE
  8
0
 10
-4.24988
 20
161.7
 11
-8.49976
 21
161.7
  0
LINE
  8
0
 10
-8.49976
 20
161.7
 11
-8.49976
 21
165.834
  0
LINE
  8
0
 10
-8.49976
 20
165.834
 11
-7.63356
 21
168.5
  0
LINE
  8
0
 10
-7.63356
 20
168.5
 11
7.63356
 21
168.5
  0
LINE
  8
0
 10
7.63356
 20
168.5
 11
8.49976
 21
165.834
  0
LINE
  8
0
 10
8.49976
 20
165.834
 11
8.49976
 21
161.7
  0
LINE
  8
0
 10
8.49976
 20
161.7
 11
4.24988
 21
161.7
  0
LINE
  8
0
 10
4.24988
 20
161.7
 11
4.24988
 21
163.4
  0
LINE
  8
0
 10
4.24988
 20
163.4
 11
6.79962
 21
163.4
  0
LINE
  8
0
 10
6.79962
 20
163.4
 11
6.79962
 21
166.8
  0
LINE
  8
0
 10
6.79962
 20
166.8
 11
0.849609
 21
166.8
  0
LINE
  8
0
 10
0.849609
 20
166.8
 11
0.849609
 21
153.2
  0
LINE
  8
0
 10
0.849609
 20
153.2
 11
6.79962
 21
153.2
  0
LINE
  8
0
 10
6.79962
 20
153.2
 11
6.79962
 21
156.6
  0
LINE
  8
0
 10
6.79962
 20
156.6
 11
4.24988
 21
156.6
  0
LINE
  8
0
 10
4.24988
 20
156.6
 11
4.24988
 21
158.3
  0
LINE
  8
0
 10
4.24988
 20
158.3
 11
8.49976
 21
158.3
  0
LINE
  8
0
 10
8.49976
 20
158.3
 11
8.49976
 21
151.5
  0
LINE
  8
0
 10
8.49976
 20
151.5
 11
-8.49976
 21
151.5
  0
LINE
  8
0
 10
-13.1571
 20
151.5
 11
-11.4999
 21
156.6
  0
LINE
  8
0
 10
-11.4999
 20
156.6
 11
-11.4999
 21
151.5
  0
LINE
  8
0
 10
-11.4999
 20
151.5
 11
-13.1571
 21
151.5
  0
LINE
  8
0
 10
11.4999
 20
151.5
 11
11.4999
 21
156.6
  0
LINE
  8
0
 10
11.4999
 20
156.6
 11
13.1571
 21
151.5
  0
LINE
  8
0
 10
13.1571
 20
151.5
 11
11.4999
 21
151.5
  0
LINE
  8
0
 10
-8.49976
 20
131.5
 11
-8.49976
 21
148.5
  0
LINE
  8
0
 10
-8.49976
 20
148.5
 11
-1.69983
 21
148.5
  0
LINE
  8
0
 10
-1.69983
 20
148.5
 11
-1.69983
 21
144.25
  0
LINE
  8
0
 10
-1.69983
 20
144.25
 11
-3.39966
 21
144.25
  0
LINE
  8
0
 10
-3.39966
 20
144.25
 11
-3.39966
 21
146.8
  0
LINE
  8
0
 10
-3.39966
 20
146.8
 11
-6.79962
 21
146.8
  0
LINE
  8
0
 10
-6.79962
 20
146.8
 11
-6.79962
 21
140.85
  0
LINE
  8
0
 10
-6.79962
 20
140.85
 11
6.79962
 21
140.85
  0
LINE
  8
0
 10
6.79962
 20
140.85
 11
6.79962
 21
146.8
  0
LINE
  8
0
 10
6.79962
 20
146.8
 11
3.39966
 21
146.8
  0
LINE
  8
0
 10
3.39966
 20
146.8
 11
3.39966
 21
144.25
  0
LINE
  8
0
 10
3.39966
 20
144.25
 11
1.69983
 21
144.25
  0
LINE
  8
0
 10
1.69983
 20
144.25
 11
1.69983
 21
148.5
  0
LINE
  8
0
 10
1.69983
 20
148.5
 11
8.49976
 21
148.5
  0
LINE
  8
0
 10
8.49976
 20
148.5
 11
8.49976
 21
131.5
  0
LINE
  8
0
 10
8.49976
 20
131.5
 11
1.69983
 21
131.5
  0
LINE
  8
0
 10
1.69983
 20
131.5
 11
1.69983
 21
135.75
  0
LINE
  8
0
 10
1.69983
 20
135.75
 11
3.39966
 21
135.75
  0
LINE
  8
0
 10
3.39966
 20
135.75
 11
3.39966
 21
133.2
  0
LINE
  8
0
 10
3.39966
 20
133.2
 11
6.79962
 21
133.2
  0
LINE
  8
0
 10
6.79962
 20
133.2
 11
6.79962
 21
139.15
  0
LINE
  8
0
 10
6.79962
 20
139.15
 11
-6.79962
 21
139.15
  0
LINE
  8
0
 10
-6.79962
 20
139.15
 11
-6.79962
 21
133.2
  0
LINE
  8
0
 10
-6.79962
 20
133.2
 11
-3.39966
 21
133.2
  0
LINE
  8
0
 10
-3.39966
 20
133.2
 11
-3.39966
 21
135.75
  0
LINE
  8
0
 10
-3.39966
 20
135.75
 11
-1.69983
 21
135.75
  0
LINE
  8
0
 10
-1.69983
 20
135.75
 11
-1.69983
 21
131.5
  0
LINE
  8
0
 10
-1.69983
 20
131.5
 11
-8.49976
 21
131.5
  0
LINE
  8
0
 10
-15.7498
 20
141.7
 11
-15.7498
 21
143.4
  0
LINE
  8
0
 10
-15.7498
 20
143.4
 11
-13.2001
 21
143.4
  0
LINE
  8
0
 10
-13.2001
 20
143.4
 11
-13.2001
 21
146.8
  0
LINE
  8
0
 10
-13.2001
 20
146.8
 11
-14.6844
 21
146.8
  0
LINE
  8
0
 10
-14.6844
 20
146.8
 11
-14.132
 21
148.5
  0
LINE
  8
0
 10
-14.132
 20
148.5
 11
-11.4999
 21
148.5
  0
LINE
  8
0
 10
-11.4999
 20
148.5
 11
-11.4999
 21
141.7
  0
LINE
  8
0
 10
-11.4999
 20
141.7
 11
-15.7498
 21
141.7
  0
LINE
  8
0
 10
11.4999
 20
141.7
 11
11.4999
 21
148.5
  0
LINE
  8
0
 10
11.4999
 20
148.5
 11
14.132
 21
148.5
  0
LINE
  8
0
 10
14.132
 20
148.5
 11
14.6844
 21
146.8
  0
LINE
  8
0
 10
14.6844
 20
146.8
 11
13.2001
 21
146.8
  0
LINE
  8
0
 10
13.2001
 20
146.8
 11
13.2001
 21
143.4
  0
LINE
  8
0
 10
13.2001
 20
143.4
 11
15.7498
 21
143.4
  0
LINE
  8
0
 10
15.7498
 20
143.4
 11
15.7498
 21
141.7
  0
LINE
  8
0
 10
15.7498
 20
141.7
 11
11.4999
 21
141.7
  0
LINE
  8
0
 10
-19.6555
 20
131.5
 11
-19.1031
 21
133.2
  0
LINE
  8
0
 10
-19.1031
 20
133.2
 11
-13.2001
 21
133.2
  0
LINE
  8
0
 10
-13.2001
 20
133.2
 11
-13.2001
 21
136.6
  0
LINE
  8
0
 10
-13.2001
 20
136.6
 11
-15.7498
 21
136.6
  0
LINE
  8
0
 10
-15.7498
 20
136.6
 11
-15.7498
 21
138.3
  0
LINE
  8
0
 10
-15.7498
 20
138.3
 11
-11.4999
 21
138.3
  0
LINE
  8
0
 10
-11.4999
 20
138.3
 11
-11.4999
 21
131.5
  0
LINE
  8
0
 10
-11.4999
 20
131.5
 11
-19.6555
 21
131.5
  0
LINE
  8
0
 10
11.4999
 20
131.5
 11
11.4999
 21
138.3
  0
LINE
  8
0
 10
11.4999
 20
138.3
 11
15.7498
 21
138.3
  0
LINE
  8
0
 10
15.7498
 20
138.3
 11
15.7498
 21
136.6
  0
LINE
  8
0
 10
15.7498
 20
136.6
 11
13.2001
 21
136.6
  0
LINE
  8
0
 10
13.2001
 20
136.6
 11
13.2001
 21
133.2
  0
LINE
  8
0
 10
13.2001
 20
133.2
 11
19.1031
 21
133.2
  0
LINE
  8
0
 10
19.1031
 20
133.2
 11
19.6555
 21
131.5
  0
LINE
  8
0
 10
19.6555
 20
131.5
 11
11.4999
 21
131.5
  0
LINE
  8
0
 10
-18.2999
 20
111.5
 11
-18.2999
 21
115.75
  0
LINE
  8
0
 10
-18.2999
 20
115.75
 11
-16.6
 21
115.75
  0
LINE
  8
0
 10
-16.6
 20
115.75
 11
-16.6
 21
113.2
  0
LINE
  8
0
 10
-16.6
 20
113.2
 11
-13.2001
 21
113.2
  0
LINE
  8
0
 10
-13.2001
 20
113.2
 11
-13.2001
 21
119.15
  0
LINE
  8
0
 10
-13.2001
 20
119.15
 11
-23.6682
 21
119.15
  0
LINE
  8
0
 10
-23.6682
 20
119.15
 11
-23.116
 21
120.85
  0
LINE
  8
0
 10
-23.116
 20
120.85
 11
-13.2001
 21
120.85
  0
LINE
  8
0
 10
-13.2001
 20
120.85
 11
-13.2001
 21
126.8
  0
LINE
  8
0
 10
-13.2001
 20
126.8
 11
-16.6
 21
126.8
  0
LINE
  8
0
 10
-16.6
 20
126.8
 11
-16.6
 21
124.25
  0
LINE
  8
0
 10
-16.6
 20
124.25
 11
-18.2999
 21
124.25
  0
LINE
  8
0
 10
-18.2999
 20
124.25
 11
-18.2999
 21
128.5
  0
LINE
  8
0
 10
-18.2999
 20
128.5
 11
-11.4999
 21
128.5
  0
LINE
  8
0
 10
-11.4999
 20
128.5
 11
-11.4999
 21
111.5
  0
LINE
  8
0
 10
-11.4999
 20
111.5
 11
-18.2999
 21
111.5
  0
LINE
  8
0
 10
-8.49976
 20
111.5
 11
-8.49976
 21
118.3
  0
LINE
  8
0
 10
-8.49976
 20
118.3
 11
-4.24988
 21
118.3
  0
LINE
  8
0
 10
-4.24988
 20
118.3
 11
-4.24988
 21
116.6
  0
LINE
  8
0
 10
-4.24988
 20
116.6
 11
-6.79962
 21
116.6
  0
LINE
  8
0
 10
-6.79962
 20
116.6
 11
-6.79962
 21
113.2
  0
LINE
  8
0
 10
-6.79962
 20
113.2
 11
-0.849609
 21
113.2
  0
LINE
  8
0
 10
-0.849609
 20
113.2
 11
-0.849609
 21
126.8
  0
LINE
  8
0
 10
-0.849609
 20
126.8
 11
-6.79962
 21
126.8
  0
LINE
  8
0
 10
-6.79962
 20
126.8
 11
-6.79962
 21
123.4
  0
LINE
  8
0
 10
-6.79962
 20
123.4
 11
-4.24988
 21
123.4
  0
LINE
  8
0
 10
-4.24988
 20
123.4
 11
-4.24988
 21
121.7
  0
LINE
  8
0
 10
-4.24988
 20
121.7
 11
-8.49976
 21
121.7
  0
LINE
  8
0
 10
-8.49976
 20
121.7
 11
-8.49976
 21
128.5
  0
LINE
  8
0
 10
-8.49976
 20
128.5
 11
8.49976
 21
128.5
  0
LINE
  8
0
 10
8.49976
 20
128.5
 11
8.49976
 21
121.7
  0
LINE
  8
0
 10
8.49976
 20
121.7
 11
4.24988
 21
121.7
  0
LINE
  8
0
 10
4.24988
 20
121.7
 11
4.24988
 21
123.4
  0
LINE
  8
0
 10
4.24988
 20
123.4
 11
6.79962
 21
123.4
  0
LINE
  8
0
 10
6.79962
 20
123.4
 11
6.79962
 21
126.8
  0
LINE
  8
0
 10
6.79962
 20
126.8
 11
0.849609
 21
126.8
  0
LINE
  8
0
 10
0.849609
 20
126.8
 11
0.849609
 21
113.2
  0
LINE
  8
0
 10
0.849609
 20
113.2
 11
6.79962
 21
113.2
  0
LINE
  8
0
 10
6.79962
 20
113.2
 11
6.79962
 21
116.6
  0
LINE
  8
0
 10
6.79962
 20
116.6
 11
4.24988
 21
116.6
  0
LINE
  8
0
 10
4.24988
 20
116.6
 11
4.24988
 21
118.3
  0
LINE
  8
0
 10
4.24988
 20
118.3
 11
8.49976
 21
118.3
  0
LINE
  8
0
 10
8.49976
 20
118.3
 11
8.49976
 21
111.5
  0
LINE
  8
0
 10
8.49976
 20
111.5
 11
-8.49976
 21
111.5
  0
LINE
  8
0
 10
11.4999
 20
111.5
 11
11.4999
 21
128.5
  0
LINE
  8
0
 10
11.4999
 20
128.5
 11
18.2999
 21
128.5
  0
LINE
  8
0
 10
18.2999
 20
128.5
 11
18.2999
 21
124.25
  0
LINE
  8
0
 10
18.2999
 20
124.25
 11
16.6
 21
124.25
  0
LINE
  8
0
 10
16.6
 20
124.25
 11
16.6
 21
126.8
  0
LINE
  8
0
 10
16.6
 20
126.8
 11
13.2001
 21
126.8
  0
LINE
  8
0
 10
13.2001
 20
126.8
 11
13.2001
 21
120.85
  0
LINE
  8
0
 10
13.2001
 20
120.85
 11
23.116
 21
120.85
  0
LINE
  8
0
 10
23.116
 20
120.85
 11
23.6682
 21
119.15
  0
LINE
  8
0
 10
23.6682
 20
119.15
 11
13.2001
 21
119.15
  0
LINE
  8
0
 10
13.2001
 20
119.15
 11
13.2001
 21
113.2
  0
LINE
  8
0
 10
13.2001
 20
113.2
 11
16.6
 21
113.2
  0
LINE
  8
0
 10
16.6
 20
113.2
 11
16.6
 21
115.75
  0
LINE
  8
0
 10
16.6
 20
115.75
 11
18.2999
 21
115.75
  0
LINE
  8
0
 10
18.2999
 20
115.75
 11
18.2999
 21
111.5
  0
LINE
  8
0
 10
18.2999
 20
111.5
 11
11.4999
 21
111.5
  0
LINE
  8
0
 10
21.6998
 20
124.25
 11
21.6998
 21
125.208
  0
LINE
  8
0
 10
21.6998
 20
125.208
 11
22.0112
 21
124.25
  0
LINE
  8
0
 10
22.0112
 20
124.25
 11
21.6998
 21
124.25
  0
LINE
  8
0
 10
-22.0112
 20
124.25
 11
-21.6998
 21
125.208
  0
LINE
  8
0
 10
-21.6998
 20
125.208
 11
-21.6998
 21
124.25
  0
LINE
  8
0
 10
-21.6998
 20
124.25
 11
-22.0112
 21
124.25
  0
LINE
  8
0
 10
-26.1539
 20
111.5
 11
-25.6015
 21
113.2
  0
LINE
  8
0
 10
-25.6015
 20
113.2
 11
-23.3997
 21
113.2
  0
LINE
  8
0
 10
-23.3997
 20
113.2
 11
-23.3997
 21
115.75
  0
LINE
  8
0
 10
-23.3997
 20
115.75
 11
-21.6998
 21
115.75
  0
LINE
  8
0
 10
-21.6998
 20
115.75
 11
-21.6998
 21
111.5
  0
LINE
  8
0
 10
-21.6998
 20
111.5
 11
-26.1539
 21
111.5
  0
LINE
  8
0
 10
21.6998
 20
111.5
 11
21.6998
 21
115.75
  0
LINE
  8
0
 10
21.6998
 20
115.75
 11
23.3997
 21
115.75
  0
LINE
  8
0
 10
23.3997
 20
115.75
 11
23.3997
 21
113.2
  0
LINE
  8
0
 10
23.3997
 20
113.2
 11
25.6015
 21
113.2
  0
LINE
  8
0
 10
25.6015
 20
113.2
 11
26.1539
 21
111.5
  0
LINE
  8
0
 10
26.1539
 20
111.5
 11
21.6998
 21
111.5
  0
LINE
  8
0
 10
-8.49976
 20
91.4999
 11
-8.49976
 21
108.5
  0
LINE
  8
0
 10
-8.49976
 20
108.5
 11
-1.69983
 21
108.5
  0
LINE
  8
0
 10
-1.69983
 20
108.5
 11
-1.69983
 21
104.25
  0
LINE
  8
0
 10
-1.69983
 20
104.25
 11
-3.39966
 21
104.25
  0
LINE
  8
0
 10
-3.39966
 20
104.25
 11
-3.39966
 21
106.8
  0
LINE
  8
0
 10
-3.39966
 20
106.8
 11
-6.79962
 21
106.8
  0
LINE
  8
0
 10
-6.79962
 20
106.8
 11
-6.79962
 21
100.85
  0
LINE
  8
0
 10
-6.79962
 20
100.85
 11
6.79962
 21
100.85
  0
LINE
  8
0
 10
6.79962
 20
100.85
 11
6.79962
 21
106.8
  0
LINE
  8
0
 10
6.79962
 20
106.8
 11
3.39966
 21
106.8
  0
LINE
  8
0
 10
3.39966
 20
106.8
 11
3.39966
 21
104.25
  0
LINE
  8
0
 10
3.39966
 20
104.25
 11
1.69983
 21
104.25
  0
LINE
  8
0
 10
1.69983
 20
104.25
 11
1.69983
 21
108.5
  0
LINE
  8
0
 10
1.69983
 20
108.5
 11
8.49976
 21
108.5
  0
LINE
  8
0
 10
8.49976
 20
108.5
 11
8.49976
 21
91.4999
  0
LINE
  8
0
 10
8.49976
 20
91.4999
 11
1.69983
 21
91.4999
  0
LINE
  8
0
 10
1.69983
 20
91.4999
 11
1.69983
 21
95.7498
  0
LINE
  8
0
 10
1.69983
 20
95.7498
 11
3.39966
 21
95.7498
  0
LINE
  8
0
 10
3.39966
 20
95.7498
 11
3.39966
 21
93.2001
  0
LINE
  8
0
 10
3.39966
 20
93.2001
 11
6.79962
 21
93.2001
  0
LINE
  8
0
 10
6.79962
 20
93.2001
 11
6.79962
 21
99.1501
  0
LINE
  8
0
 10
6.79962
 20
99.1501
 11
-6.79962
 21
99.1501
  0
LINE
  8
0
 10
-6.79962
 20
99.1501
 11
-6.79962
 21
93.2001
  0
LINE
  8
0
 10
-6.79962
 20
93.2001
 11
-3.39966
 21
93.2001
  0
LINE
  8
0
 10
-3.39966
 20
93.2001
 11
-3.39966
 21
95.7498
  0
LINE
  8
0
 10
-3.39966
 20
95.7498
 11
-1.69983
 21
95.7498
  0
LINE
  8
0
 10
-1.69983
 20
95.7498
 11
-1.69983
 21
91.4999
  0
LINE
  8
0
 10
-1.69983
 20
91.4999
 11
-8.49976
 21
91.4999
  0
LINE
  8
0
 10
11.4999
 20
91.4999
 11
11.4999
 21
98.2999
  0
LINE
  8
0
 10
11.4999
 20
98.2999
 11
15.7498
 21
98.2999
  0
LINE
  8
0
 10
15.7498
 20
98.2999
 11
15.7498
 21
96.6
  0
LINE
  8
0
 10
15.7498
 20
96.6
 11
13.2001
 21
96.6
  0
LINE
  8
0
 10
13.2001
 20
96.6
 11
13.2001
 21
93.2001
  0
LINE
  8
0
 10
13.2001
 20
93.2001
 11
19.1501
 21
93.2001
  0
LINE
  8
0
 10
19.1501
 20
93.2001
 11
19.1501
 21
106.8
  0
LINE
  8
0
 10
19.1501
 20
106.8
 11
13.2001
 21
106.8
  0
LINE
  8
0
 10
13.2001
 20
106.8
 11
13.2001
 21
103.4
  0
LINE
  8
0
 10
13.2001
 20
103.4
 11
15.7498
 21
103.4
  0
LINE
  8
0
 10
15.7498
 20
103.4
 11
15.7498
 21
101.7
  0
LINE
  8
0
 10
15.7498
 20
101.7
 11
11.4999
 21
101.7
  0
LINE
  8
0
 10
11.4999
 20
101.7
 11
11.4999
 21
108.5
  0
LINE
  8
0
 10
11.4999
 20
108.5
 11
27.1287
 21
108.5
  0
LINE
  8
0
 10
27.1287
 20
108.5
 11
28.4998
 21
104.28
  0
LINE
  8
0
 10
28.4998
 20
104.28
 11
28.4998
 21
101.7
  0
LINE
  8
0
 10
28.4998
 20
101.7
 11
24.2499
 21
101.7
  0
LINE
  8
0
 10
24.2499
 20
101.7
 11
24.2499
 21
103.4
  0
LINE
  8
0
 10
24.2499
 20
103.4
 11
26.7996
 21
103.4
  0
LINE
  8
0
 10
26.7996
 20
103.4
 11
26.7996
 21
106.8
  0
LINE
  8
0
 10
26.7996
 20
106.8
 11
20.8496
 21
106.8
  0
LINE
  8
0
 10
20.8496
 20
106.8
 11
20.8496
 21
93.2001
  0
LINE
  8
0
 10
20.8496
 20
93.2001
 11
26.7996
 21
93.2001
  0
LINE
  8
0
 10
26.7996
 20
93.2001
 11
26.7996
 21
96.6
  0
LINE
  8
0
 10
26.7996
 20
96.6
 11
24.2499
 21
96.6
  0
LINE
  8
0
 10
24.2499
 20
96.6
 11
24.2499
 21
98.2999
  0
LINE
  8
0
 10
24.2499
 20
98.2999
 11
28.4998
 21
98.2999
  0
LINE
  8
0
 10
28.4998
 20
98.2999
 11
28.4998
 21
91.4999
  0
LINE
  8
0
 10
28.4998
 20
91.4999
 11
11.4999
 21
91.4999
  0
LINE
  8
0
 10
-28.4998
 20
91.4999
 11
-28.4998
 21
98.2999
  0
LINE
  8
0
 10
-28.4998
 20
98.2999
 11
-24.2499
 21
98.2999
  0
LINE
  8
0
 10
-24.2499
 20
98.2999
 11
-24.2499
 21
96.6
  0
LINE
  8
0
 10
-24.2499
 20
96.6
 11
-26.7996
 21
96.6
  0
LINE
  8
0
 10
-26.7996
 20
96.6
 11
-26.7996
 21
93.2001
  0
LINE
  8
0
 10
-26.7996
 20
93.2001
 11
-20.8496
 21
93.2001
  0
LINE
  8
0
 10
-20.8496
 20
93.2001
 11
-20.8496
 21
106.8
  0
LINE
  8
0
 10
-20.8496
 20
106.8
 11
-26.7996
 21
106.8
  0
LINE
  8
0
 10
-26.7996
 20
106.8
 11
-26.7996
 21
103.4
  0
LINE
  8
0
 10
-26.7996
 20
103.4
 11
-24.2499
 21
103.4
  0
LINE
  8
0
 10
-24.2499
 20
103.4
 11
-24.2499
 21
101.7
  0
LINE
  8
0
 10
-24.2499
 20
101.7
 11
-28.4998
 21
101.7
  0
LINE
  8
0
 10
-28.4998
 20
101.7
 11
-28.4998
 21
104.28
  0
LINE
  8
0
 10
-28.4998
 20
104.28
 11
-27.1287
 21
108.5
  0
LINE
  8
0
 10
-27.1287
 20
108.5
 11
-11.4999
 21
108.5
  0
LINE
  8
0
 10
-11.4999
 20
108.5
 11
-11.4999
 21
101.7
  0
LINE
  8
0
 10
-11.4999
 20
101.7
 11
-15.7498
 21
101.7
  0
LINE
  8
0
 10
-15.7498
 20
101.7
 11
-15.7498
 21
103.4
  0
LINE
  8
0
 10
-15.7498
 20
103.4
 11
-13.2001
 21
103.4
  0
LINE
  8
0
 10
-13.2001
 20
103.4
 11
-13.2001
 21
106.8
  0
LINE
  8
0
 10
-13.2001
 20
106.8
 11
-19.1501
 21
106.8
  0
LINE
  8
0
 10
-19.1501
 20
106.8
 11
-19.1501
 21
93.2001
  0
LINE
  8
0
 10
-19.1501
 20
93.2001
 11
-13.2001
 21
93.2001
  0
LINE
  8
0
 10
-13.2001
 20
93.2001
 11
-13.2001
 21
96.6
  0
LINE
  8
0
 10
-13.2001
 20
96.6
 11
-15.7498
 21
96.6
  0
LINE
  8
0
 10
-15.7498
 20
96.6
 11
-15.7498
 21
98.2999
  0
LINE
  8
0
 10
-15.7498
 20
98.2999
 11
-11.4999
 21
98.2999
  0
LINE
  8
0
 10
-11.4999
 20
98.2999
 11
-11.4999
 21
91.4999
  0
LINE
  8
0
 10
-11.4999
 20
91.4999
 11
-28.4998
 21
91.4999
  0
LINE
  8
0
 10
-32.6523
 20
91.4999
 11
-31.4999
 21
95.0466
  0
LINE
  8
0
 10
-31.4999
 20
95.0466
 11
-31.4999
 21
91.4999
  0
LINE
  8
0
 10
-31.4999
 20
91.4999
 11
-32.6523
 21
91.4999
  0
LINE
  8
0
 10
31.4999
 20
91.4999
 11
31.4999
 21
95.0466
  0
LINE
  8
0
 10
31.4999
 20
95.0466
 11
32.6523
 21
91.4999
  0
LINE
  8
0
 10
32.6523
 20
91.4999
 11
31.4999
 21
91.4999
  0
LINE
  8
0
 10
-35.7498
 20
81.6998
 11
-35.7498
 21
81.9668
  0
LINE
  8
0
 10
-35.7498
 20
81.9668
 11
-35.2843
 21
83.3997
  0
LINE
  8
0
 10
-35.2843
 20
83.3997
 11
-33.2001
 21
83.3997
  0
LINE
  8
0
 10
-33.2001
 20
83.3997
 11
-33.2001
 21
86.7996
  0
LINE
  8
0
 10
-33.2001
 20
86.7996
 11
-34.1796
 21
86.7996
  0
LINE
  8
0
 10
-34.1796
 20
86.7996
 11
-33.6271
 21
88.4998
  0
LINE
  8
0
 10
-33.6271
 20
88.4998
 11
-31.4999
 21
88.4998
  0
LINE
  8
0
 10
-31.4999
 20
88.4998
 11
-31.4999
 21
81.6998
  0
LINE
  8
0
 10
-31.4999
 20
81.6998
 11
-35.7498
 21
81.6998
  0
LINE
  8
0
 10
31.4999
 20
81.6998
 11
31.4999
 21
88.4998
  0
LINE
  8
0
 10
31.4999
 20
88.4998
 11
33.6271
 21
88.4998
  0
LINE
  8
0
 10
33.6271
 20
88.4998
 11
34.1796
 21
86.7996
  0
LINE
  8
0
 10
34.1796
 20
86.7996
 11
33.2001
 21
86.7996
  0
LINE
  8
0
 10
33.2001
 20
86.7996
 11
33.2001
 21
83.3997
  0
LINE
  8
0
 10
33.2001
 20
83.3997
 11
35.2843
 21
83.3997
  0
LINE
  8
0
 10
35.2843
 20
83.3997
 11
35.7498
 21
81.9668
  0
LINE
  8
0
 10
35.7498
 20
81.9668
 11
35.7498
 21
81.6998
  0
LINE
  8
0
 10
35.7498
 20
81.6998
 11
31.4999
 21
81.6998
  0
LINE
  8
0
 10
11.4999
 20
71.4999
 11
11.4999
 21
88.4998
  0
LINE
  8
0
 10
11.4999
 20
88.4998
 11
18.2999
 21
88.4998
  0
LINE
  8
0
 10
18.2999
 20
88.4998
 11
18.2999
 21
84.2499
  0
LINE
  8
0
 10
18.2999
 20
84.2499
 11
16.6
 21
84.2499
  0
LINE
  8
0
 10
16.6
 20
84.2499
 11
16.6
 21
86.7996
  0
LINE
  8
0
 10
16.6
 20
86.7996
 11
13.2001
 21
86.7996
  0
LINE
  8
0
 10
13.2001
 20
86.7996
 11
13.2001
 21
80.8496
  0
LINE
  8
0
 10
13.2001
 20
80.8496
 11
26.7996
 21
80.8496
  0
LINE
  8
0
 10
26.7996
 20
80.8496
 11
26.7996
 21
86.7996
  0
LINE
  8
0
 10
26.7996
 20
86.7996
 11
23.3997
 21
86.7996
  0
LINE
  8
0
 10
23.3997
 20
86.7996
 11
23.3997
 21
84.2499
  0
LINE
  8
0
 10
23.3997
 20
84.2499
 11
21.6998
 21
84.2499
  0
LINE
  8
0
 10
21.6998
 20
84.2499
 11
21.6998
 21
88.4998
  0
LINE
  8
0
 10
21.6998
 20
88.4998
 11
28.4998
 21
88.4998
  0
LINE
  8
0
 10
28.4998
 20
88.4998
 11
28.4998
 21
71.4999
  0
LINE
  8
0
 10
28.4998
 20
71.4999
 11
21.6998
 21
71.4999
  0
LINE
  8
0
 10
21.6998
 20
71.4999
 11
21.6998
 21
75.7498
  0
LINE
  8
0
 10
21.6998
 20
75.7498
 11
23.3997
 21
75.7498
  0
LINE
  8
0
 10
23.3997
 20
75.7498
 11
23.3997
 21
73.2001
  0
LINE
  8
0
 10
23.3997
 20
73.2001
 11
26.7996
 21
73.2001
  0
LINE
  8
0
 10
26.7996
 20
73.2001
 11
26.7996
 21
79.1501
  0
LINE
  8
0
 10
26.7996
 20
79.1501
 11
13.2001
 21
79.1501
  0
LINE
  8
0
 10
13.2001
 20
79.1501
 11
13.2001
 21
73.2001
  0
LINE
  8
0
 10
13.2001
 20
73.2001
 11
16.6
 21
73.2001
  0
LINE
  8
0
 10
16.6
 20
73.2001
 11
16.6
 21
75.7498
  0
LINE
  8
0
 10
16.6
 20
75.7498
 11
18.2999
 21
75.7498
  0
LINE
  8
0
 10
18.2999
 20
75.7498
 11
18.2999
 21
71.4999
  0
LINE
  8
0
 10
18.2999
 20
71.4999
 11
11.4999
 21
71.4999
  0
LINE
  8
0
 10
-8.49976
 20
71.4999
 11
-8.49976
 21
78.2999
  0
LINE
  8
0
 10
-8.49976
 20
78.2999
 11
-4.24988
 21
78.2999
  0
LINE
  8
0
 10
-4.24988
 20
78.2999
 11
-4.24988
 21
76.6
  0
LINE
  8
0
 10
-4.24988
 20
76.6
 11
-6.79962
 21
76.6
  0
LINE
  8
0
 10
-6.79962
 20
76.6
 11
-6.79962
 21
73.2001
  0
LINE
  8
0
 10
-6.79962
 20
73.2001
 11
-0.849609
 21
73.2001
  0
LINE
  8
0
 10
-0.849609
 20
73.2001
 11
-0.849609
 21
86.7996
  0
LINE
  8
0
 10
-0.849609
 20
86.7996
 11
-6.79962
 21
86.7996
  0
LINE
  8
0
 10
-6.79962
 20
86.7996
 11
-6.79962
 21
83.3997
  0
LINE
  8
0
 10
-6.79962
 20
83.3997
 11
-4.24988
 21
83.3997
  0
LINE
  8
0
 10
-4.24988
 20
83.3997
 11
-4.24988
 21
81.6998
  0
LINE
  8
0
 10
-4.24988
 20
81.6998
 11
-8.49976
 21
81.6998
  0
LINE
  8
0
 10
-8.49976
 20
81.6998
 11
-8.49976
 21
88.4998
  0
LINE
  8
0
 10
-8.49976
 20
88.4998
 11
8.49976
 21
88.4998
  0
LINE
  8
0
 10
8.49976
 20
88.4998
 11
8.49976
 21
81.6998
  0
LINE
  8
0
 10
8.49976
 20
81.6998
 11
4.24988
 21
81.6998
  0
LINE
  8
0
 10
4.24988
 20
81.6998
 11
4.24988
 21
83.3997
  0
LINE
  8
0
 10
4.24988
 20
83.3997
 11
6.79962
 21
83.3997
  0
LINE
  8
0
 10
6.79962
 20
83.3997
 11
6.79962
 21
86.7996
  0
LINE
  8
0
 10
6.79962
 20
86.7996
 11
0.849609
 21
86.7996
  0
LINE
  8
0
 10
0.849609
 20
86.7996
 11
0.849609
 21
73.2001
  0
LINE
  8
0
 10
0.849609
 20
73.2001
 11
6.79962
 21
73.2001
  0
LINE
  8
0
 10
6.79962
 20
73.2001
 11
6.79962
 21
76.6
  0
LINE
  8
0
 10
6.79962
 20
76.6
 11
4.24988
 21
76.6
  0
LINE
  8
0
 10
4.24988
 20
76.6
 11
4.24988
 21
78.2999
  0
LINE
  8
0
 10
4.24988
 20
78.2999
 11
8.49976
 21
78.2999
  0
LINE
  8
0
 10
8.49976
 20
78.2999
 11
8.49976
 21
71.4999
  0
LINE
  8
0
 10
8.49976
 20
71.4999
 11
-8.49976
 21
71.4999
  0
LINE
  8
0
 10
-28.4998
 20
71.4999
 11
-28.4998
 21
88.4998
  0
LINE
  8
0
 10
-28.4998
 20
88.4998
 11
-21.6998
 21
88.4998
  0
LINE
  8
0
 10
-21.6998
 20
88.4998
 11
-21.6998
 21
84.2499
  0
LINE
  8
0
 10
-21.6998
 20
84.2499
 11
-23.3997
 21
84.2499
  0
LINE
  8
0
 10
-23.3997
 20
84.2499
 11
-23.3997
 21
86.7996
  0
LINE
  8
0
 10
-23.3997
 20
86.7996
 11
-26.7996
 21
86.7996
  0
LINE
  8
0
 10
-26.7996
 20
86.7996
 11
-26.7996
 21
80.8496
  0
LINE
  8
0
 10
-26.7996
 20
80.8496
 11
-13.2001
 21
80.8496
  0
LINE
  8
0
 10
-13.2001
 20
80.8496
 11
-13.2001
 21
86.7996
  0
LINE
  8
0
 10
-13.2001
 20
86.7996
 11
-16.6
 21
86.7996
  0
LINE
  8
0
 10
-16.6
 20
86.7996
 11
-16.6
 21
84.2499
  0
LINE
  8
0
 10
-16.6
 20
84.2499
 11
-18.2999
 21
84.2499
  0
LINE
  8
0
 10
-18.2999
 20
84.2499
 11
-18.2999
 21
88.4998
  0
LINE
  8
0
 10
-18.2999
 20
88.4998
 11
-11.4999
 21
88.4998
  0
LINE
  8
0
 10
-11.4999
 20
88.4998
 11
-11.4999
 21
71.4999
  0
LINE
  8
0
 10
-11.4999
 20
71.4999
 11
-18.2999
 21
71.4999
  0
LINE
  8
0
 10
-18.2999
 20
71.4999
 11
-18.2999
 21
75.7498
  0
LINE
  8
0
 10
-18.2999
 20
75.7498
 11
-16.6
 21
75.7498
  0
LINE
  8
0
 10
-16.6
 20
75.7498
 11
-16.6
 21
73.2001
  0
LINE
  8
0
 10
-16.6
 20
73.2001
 11
-13.2001
 21
73.2001
  0
LINE
  8
0
 10
-13.2001
 20
73.2001
 11
-13.2001
 21
79.1501
  0
LINE
  8
0
 10
-13.2001
 20
79.1501
 11
-26.7996
 21
79.1501
  0
LINE
  8
0
 10
-26.7996
 20
79.1501
 11
-26.7996
 21
73.2001
  0
LINE
  8
0
 10
-26.7996
 20
73.2001
 11
-23.3997
 21
73.2001
  0
LINE
  8
0
 10
-23.3997
 20
73.2001
 11
-23.3997
 21
75.7498
  0
LINE
  8
0
 10
-23.3997
 20
75.7498
 11
-21.6998
 21
75.7498
  0
LINE
  8
0
 10
-21.6998
 20
75.7498
 11
-21.6998
 21
71.4999
  0
LINE
  8
0
 10
-21.6998
 20
71.4999
 11
-28.4998
 21
71.4999
  0
LINE
  8
0
 10
-39.1507
 20
71.4999
 11
-38.5983
 21
73.2001
  0
LINE
  8
0
 10
-38.5983
 20
73.2001
 11
-33.2001
 21
73.2001
  0
LINE
  8
0
 10
-33.2001
 20
73.2001
 11
-33.2001
 21
76.6
  0
LINE
  8
0
 10
-33.2001
 20
76.6
 11
-35.7498
 21
76.6
  0
LINE
  8
0
 10
-35.7498
 20
76.6
 11
-35.7498
 21
78.2999
  0
LINE
  8
0
 10
-35.7498
 20
78.2999
 11
-31.4999
 21
78.2999
  0
LINE
  8
0
 10
-31.4999
 20
78.2999
 11
-31.4999
 21
71.4999
  0
LINE
  8
0
 10
-31.4999
 20
71.4999
 11
-39.1507
 21
71.4999
  0
LINE
  8
0
 10
31.4999
 20
71.4999
 11
31.4999
 21
78.2999
  0
LINE
  8
0
 10
31.4999
 20
78.2999
 11
35.7498
 21
78.2999
  0
LINE
  8
0
 10
35.7498
 20
78.2999
 11
35.7498
 21
76.6
  0
LINE
  8
0
 10
35.7498
 20
76.6
 11
33.2001
 21
76.6
  0
LINE
  8
0
 10
33.2001
 20
76.6
 11
33.2001
 21
73.2001
  0
LINE
  8
0
 10
33.2001
 20
73.2001
 11
38.5983
 21
73.2001
  0
LINE
  8
0
 10
38.5983
 20
73.2001
 11
39.1507
 21
71.4999
  0
LINE
  8
0
 10
39.1507
 20
71.4999
 11
31.4999
 21
71.4999
  0
LINE
  8
0
 10
-28.4998
 20
51.4999
 11
-28.4998
 21
58.2999
  0
LINE
  8
0
 10
-28.4998
 20
58.2999
 11
-24.2499
 21
58.2999
  0
LINE
  8
0
 10
-24.2499
 20
58.2999
 11
-24.2499
 21
56.6
  0
LINE
  8
0
 10
-24.2499
 20
56.6
 11
-26.7996
 21
56.6
  0
LINE
  8
0
 10
-26.7996
 20
56.6
 11
-26.7996
 21
53.2001
  0
LINE
  8
0
 10
-26.7996
 20
53.2001
 11
-20.8496
 21
53.2001
  0
LINE
  8
0
 10
-20.8496
 20
53.2001
 11
-20.8496
 21
66.7996
  0
LINE
  8
0
 10
-20.8496
 20
66.7996
 11
-26.7996
 21
66.7996
  0
LINE
  8
0
 10
-26.7996
 20
66.7996
 11
-26.7996
 21
63.3997
  0
LINE
  8
0
 10
-26.7996
 20
63.3997
 11
-24.2499
 21
63.3997
  0
LINE
  8
0
 10
-24.2499
 20
63.3997
 11
-24.2499
 21
61.6998
  0
LINE
  8
0
 10
-24.2499
 20
61.6998
 11
-28.4998
 21
61.6998
  0
LINE
  8
0
 10
-28.4998
 20
61.6998
 11
-28.4998
 21
68.4998
  0
LINE
  8
0
 10
-28.4998
 20
68.4998
 11
-11.4999
 21
68.4998
  0
LINE
  8
0
 10
-11.4999
 20
68.4998
 11
-11.4999
 21
61.6998
  0
LINE
  8
0
 10
-11.4999
 20
61.6998
 11
-15.7498
 21
61.6998
  0
LINE
  8
0
 10
-15.7498
 20
61.6998
 11
-15.7498
 21
63.3997
  0
LINE
  8
0
 10
-15.7498
 20
63.3997
 11
-13.2001
 21
63.3997
  0
LINE
  8
0
 10
-13.2001
 20
63.3997
 11
-13.2001
 21
66.7996
  0
LINE
  8
0
 10
-13.2001
 20
66.7996
 11
-19.1501
 21
66.7996
  0
LINE
  8
0
 10
-19.1501
 20
66.7996
 11
-19.1501
 21
53.2001
  0
LINE
  8
0
 10
-19.1501
 20
53.2001
 11
-13.2001
 21
53.2001
  0
LINE
  8
0
 10
-13.2001
 20
53.2001
 11
-13.2001
 21
56.6
  0
LINE
  8
0
 10
-13.2001
 20
56.6
 11
-15.7498
 21
56.6
  0
LINE
  8
0
 10
-15.7498
 20
56.6
 11
-15.7498
 21
58.2999
  0
LINE
  8
0
 10
-15.7498
 20
58.2999
 11
-11.4999
 21
58.2999
  0
LINE
  8
0
 10
-11.4999
 20
58.2999
 11
-11.4999
 21
51.4999
  0
LINE
  8
0
 10
-11.4999
 20
51.4999
 11
-28.4998
 21
51.4999
  0
LINE
  8
0
 10
-38.2999
 20
51.4999
 11
-38.2999
 21
55.7498
  0
LINE
  8
0
 10
-38.2999
 20
55.7498
 11
-36.6
 21
55.7498
  0
LINE
  8
0
 10
-36.6
 20
55.7498
 11
-36.6
 21
53.2001
  0
LINE
  8
0
 10
-36.6
 20
53.2001
 11
-33.2001
 21
53.2001
  0
LINE
  8
0
 10
-33.2001
 20
53.2001
 11
-33.2001
 21
59.1501
  0
LINE
  8
0
 10
-33.2001
 20
59.1501
 11
-43.1634
 21
59.1501
  0
LINE
  8
0
 10
-43.1634
 20
59.1501
 11
-42.6112
 21
60.8496
  0
LINE
  8
0
 10
-42.6112
 20
60.8496
 11
-33.2001
 21
60.8496
  0
LINE
  8
0
 10
-33.2001
 20
60.8496
 11
-33.2001
 21
66.7996
  0
LINE
  8
0
 10
-33.2001
 20
66.7996
 11
-36.6
 21
66.7996
  0
LINE
  8
0
 10
-36.6
 20
66.7996
 11
-36.6
 21
64.2499
  0
LINE
  8
0
 10
-36.6
 20
64.2499
 11
-38.2999
 21
64.2499
  0
LINE
  8
0
 10
-38.2999
 20
64.2499
 11
-38.2999
 21
68.4998
  0
LINE
  8
0
 10
-38.2999
 20
68.4998
 11
-31.4999
 21
68.4998
  0
LINE
  8
0
 10
-31.4999
 20
68.4998
 11
-31.4999
 21
51.4999
  0
LINE
  8
0
 10
-31.4999
 20
51.4999
 11
-38.2999
 21
51.4999
  0
LINE
  8
0
 10
11.4999
 20
51.4999
 11
11.4999
 21
58.2999
  0
LINE
  8
0
 10
11.4999
 20
58.2999
 11
15.7498
 21
58.2999
  0
LINE
  8
0
 10
15.7498
 20
58.2999
 11
15.7498
 21
56.6
  0
LINE
  8
0
 10
15.7498
 20
56.6
 11
13.2001
 21
56.6
  0
LINE
  8
0
 10
13.2001
 20
56.6
 11
13.2001
 21
53.2001
  0
LINE
  8
0
 10
13.2001
 20
53.2001
 11
19.1501
 21
53.2001
  0
LINE
  8
0
 10
19.1501
 20
53.2001
 11
19.1501
 21
66.7996
  0
LINE
  8
0
 10
19.1501
 20
66.7996
 11
13.2001
 21
66.7996
  0
LINE
  8
0
 10
13.2001
 20
66.7996
 11
13.2001
 21
63.3997
  0
LINE
  8
0
 10
13.2001
 20
63.3997
 11
15.7498
 21
63.3997
  0
LINE
  8
0
 10
15.7498
 20
63.3997
 11
15.7498
 21
61.6998
  0
LINE
  8
0
 10
15.7498
 20
61.6998
 11
11.4999
 21
61.6998
  0
LINE
  8
0
 10
11.4999
 20
61.6998
 11
11.4999
 21
68.4998
  0
LINE
  8
0
 10
11.4999
 20
68.4998
 11
28.4998
 21
68.4998
  0
LINE
  8
0
 10
28.4998
 20
68.4998
 11
28.4998
 21
61.6998
  0
LINE
  8
0
 10
28.4998
 20
61.6998
 11
24.2499
 21
61.6998
  0
LINE
  8
0
 10
24.2499
 20
61.6998
 11
24.2499
 21
63.3997
  0
LINE
  8
0
 10
24.2499
 20
63.3997
 11
26.7996
 21
63.3997
  0
LINE
  8
0
 10
26.7996
 20
63.3997
 11
26.7996
 21
66.7996
  0
LINE
  8
0
 10
26.7996
 20
66.7996
 11
20.8496
 21
66.7996
  0
LINE
  8
0
 10
20.8496
 20
66.7996
 11
20.8496
 21
53.2001
  0
LINE
  8
0
 10
20.8496
 20
53.2001
 11
26.7996
 21
53.2001
  0
LINE
  8
0
 10
26.7996
 20
53.2001
 11
26.7996
 21
56.6
  0
LINE
  8
0
 10
26.7996
 20
56.6
 11
24.2499
 21
56.6
  0
LINE
  8
0
 10
24.2499
 20
56.6
 11
24.2499
 21
58.2999
  0
LINE
  8
0
 10
24.2499
 20
58.2999
 11
28.4998
 21
58.2999
  0
LINE
  8
0
 10
28.4998
 20
58.2999
 11
28.4998
 21
51.4999
  0
LINE
  8
0
 10
28.4998
 20
51.4999
 11
11.4999
 21
51.4999
  0
LINE
  8
0
 10
31.4999
 20
51.4999
 11
31.4999
 21
68.4998
  0
LINE
  8
0
 10
31.4999
 20
68.4998
 11
38.2999
 21
68.4998
  0
LINE
  8
0
 10
38.2999
 20
68.4998
 11
38.2999
 21
64.2499
  0
LINE
  8
0
 10
38.2999
 20
64.2499
 11
36.6
 21
64.2499
  0
LINE
  8
0
 10
36.6
 20
64.2499
 11
36.6
 21
66.7996
  0
LINE
  8
0
 10
36.6
 20
66.7996
 11
33.2001
 21
66.7996
  0
LINE
  8
0
 10
33.2001
 20
66.7996
 11
33.2001
 21
60.8496
  0
LINE
  8
0
 10
33.2001
 20
60.8496
 11
42.6112
 21
60.8496
  0
LINE
  8
0
 10
42.6112
 20
60.8496
 11
43.1634
 21
59.1501
  0
LINE
  8
0
 10
43.1634
 20
59.1501
 11
33.2001
 21
59.1501
  0
LINE
  8
0
 10
33.2001
 20
59.1501
 11
33.2001
 21
53.2001
  0
LINE
  8
0
 10
33.2001
 20
53.2001
 11
36.6
 21
53.2001
  0
LINE
  8
0
 10
36.6
 20
53.2001
 11
36.6
 21
55.7498
  0
LINE
  8
0
 10
36.6
 20
55.7498
 11
38.2999
 21
55.7498
  0
LINE
  8
0
 10
38.2999
 20
55.7498
 11
38.2999
 21
51.4999
  0
LINE
  8
0
 10
38.2999
 20
51.4999
 11
31.4999
 21
51.4999
  0
LINE
  8
0
 10
-8.49976
 20
51.4999
 11
-8.49976
 21
68.4998
  0
LINE
  8
0
 10
-8.49976
 20
68.4998
 11
-1.69983
 21
68.4998
  0
LINE
  8
0
 10
-1.69983
 20
68.4998
 11
-1.69983
 21
64.2499
  0
LINE
  8
0
 10
-1.69983
 20
64.2499
 11
-3.39966
 21
64.2499
  0
LINE
  8
0
 10
-3.39966
 20
64.2499
 11
-3.39966
 21
66.7996
  0
LINE
  8
0
 10
-3.39966
 20
66.7996
 11
-6.79962
 21
66.7996
  0
LINE
  8
0
 10
-6.79962
 20
66.7996
 11
-6.79962
 21
60.8496
  0
LINE
  8
0
 10
-6.79962
 20
60.8496
 11
6.79962
 21
60.8496
  0
LINE
  8
0
 10
6.79962
 20
60.8496
 11
6.79962
 21
66.7996
  0
LINE
  8
0
 10
6.79962
 20
66.7996
 11
3.39966
 21
66.7996
  0
LINE
  8
0
 10
3.39966
 20
66.7996
 11
3.39966
 21
64.2499
  0
LINE
  8
0
 10
3.39966
 20
64.2499
 11
1.69983
 21
64.2499
  0
LINE
  8
0
 10
1.69983
 20
64.2499
 11
1.69983
 21
68.4998
  0
LINE
  8
0
 10
1.69983
 20
68.4998
 11
8.49976
 21
68.4998
  0
LINE
  8
0
 10
8.49976
 20
68.4998
 11
8.49976
 21
51.4999
  0
LINE
  8
0
 10
8.49976
 20
51.4999
 11
1.69983
 21
51.4999
  0
LINE
  8
0
 10
1.69983
 20
51.4999
 11
1.69983
 21
55.7498
  0
LINE
  8
0
 10
1.69983
 20
55.7498
 11
3.39966
 21
55.7498
  0
LINE
  8
0
 10
3.39966
 20
55.7498
 11
3.39966
 21
53.2001
  0
LINE
  8
0
 10
3.39966
 20
53.2001
 11
6.79962
 21
53.2001
  0
LINE
  8
0
 10
6.79962
 20
53.2001
 11
6.79962
 21
59.1501
  0
LINE
  8
0
 10
6.79962
 20
59.1501
 11
-6.79962
 21
59.1501
  0
LINE
  8
0
 10
-6.79962
 20
59.1501
 11
-6.79962
 21
53.2001
  0
LINE
  8
0
 10
-6.79962
 20
53.2001
 11
-3.39966
 21
53.2001
  0
LINE
  8
0
 10
-3.39966
 20
53.2001
 11
-3.39966
 21
55.7498
  0
LINE
  8
0
 10
-3.39966
 20
55.7498
 11
-1.69983
 21
55.7498
  0
LINE
  8
0
 10
-1.69983
 20
55.7498
 11
-1.69983
 21
51.4999
  0
LINE
  8
0
 10
-1.69983
 20
51.4999
 11
-8.49976
 21
51.4999
  0
LINE
  8
0
 10
-45.6491
 20
51.4999
 11
-45.0967
 21
53.2001
  0
LINE
  8
0
 10
-45.0967
 20
53.2001
 11
-43.3997
 21
53.2001
  0
LINE
  8
0
 10
-43.3997
 20
53.2001
 11
-43.3997
 21
55.7498
  0
LINE
  8
0
 10
-43.3997
 20
55.7498
 11
-41.6998
 21
55.7498
  0
LINE
  8
0
 10
-41.6998
 20
55.7498
 11
-41.6998
 21
51.4999
  0
LINE
  8
0
 10
-41.6998
 20
51.4999
 11
-45.6491
 21
51.4999
  0
LINE
  8
0
 10
41.6998
 20
51.4999
 11
41.6998
 21
55.7498
  0
LINE
  8
0
 10
41.6998
 20
55.7498
 11
43.3997
 21
55.7498
  0
LINE
  8
0
 10
43.3997
 20
55.7498
 11
43.3997
 21
53.2001
  0
LINE
  8
0
 10
43.3997
 20
53.2001
 11
45.0967
 21
53.2001
  0
LINE
  8
0
 10
45.0967
 20
53.2001
 11
45.6491
 21
51.4999
  0
LINE
  8
0
 10
45.6491
 20
51.4999
 11
41.6998
 21
51.4999
  0
LINE
  8
0
 10
-8.49976
 20
31.4999
 11
-8.49976
 21
38.2999
  0
LINE
  8
0
 10
-8.49976
 20
38.2999
 11
-4.24988
 21
38.2999
  0
LINE
  8
0
 10
-4.24988
 20
38.2999
 11
-4.24988
 21
36.6
  0
LINE
  8
0
 10
-4.24988
 20
36.6
 11
-6.79962
 21
36.6
  0
LINE
  8
0
 10
-6.79962
 20
36.6
 11
-6.79962
 21
33.2001
  0
LINE
  8
0
 10
-6.79962
 20
33.2001
 11
-0.849609
 21
33.2001
  0
LINE
  8
0
 10
-0.849609
 20
33.2001
 11
-0.849609
 21
46.7996
  0
LINE
  8
0
 10
-0.849609
 20
46.7996
 11
-6.79962
 21
46.7996
  0
LINE
  8
0
 10
-6.79962
 20
46.7996
 11
-6.79962
 21
43.3997
  0
LINE
  8
0
 10
-6.79962
 20
43.3997
 11
-4.24988
 21
43.3997
  0
LINE
  8
0
 10
-4.24988
 20
43.3997
 11
-4.24988
 21
41.6998
  0
LINE
  8
0
 10
-4.24988
 20
41.6998
 11
-8.49976
 21
41.6998
  0
LINE
  8
0
 10
-8.49976
 20
41.6998
 11
-8.49976
 21
48.4998
  0
LINE
  8
0
 10
-8.49976
 20
48.4998
 11
8.49976
 21
48.4998
  0
LINE
  8
0
 10
8.49976
 20
48.4998
 11
8.49976
 21
41.6998
  0
LINE
  8
0
 10
8.49976
 20
41.6998
 11
4.24988
 21
41.6998
  0
LINE
  8
0
 10
4.24988
 20
41.6998
 11
4.24988
 21
43.3997
  0
LINE
  8
0
 10
4.24988
 20
43.3997
 11
6.79962
 21
43.3997
  0
LINE
  8
0
 10
6.79962
 20
43.3997
 11
6.79962
 21
46.7996
  0
LINE
  8
0
 10
6.79962
 20
46.7996
 11
0.849609
 21
46.7996
  0
LINE
  8
0
 10
0.849609
 20
46.7996
 11
0.849609
 21
33.2001
  0
LINE
  8
0
 10
0.849609
 20
33.2001
 11
6.79962
 21
33.2001
  0
LINE
  8
0
 10
6.79962
 20
33.2001
 11
6.79962
 21
36.6
  0
LINE
  8
0
 10
6.79962
 20
36.6
 11
4.24988
 21
36.6
  0
LINE
  8
0
 10
4.24988
 20
36.6
 11
4.24988
 21
38.2999
  0
LINE
  8
0
 10
4.24988
 20
38.2999
 11
8.49976
 21
38.2999
  0
LINE
  8
0
 10
8.49976
 20
38.2999
 11
8.49976
 21
31.4999
  0
LINE
  8
0
 10
8.49976
 20
31.4999
 11
-8.49976
 21
31.4999
  0
LINE
  8
0
 10
-48.4998
 20
31.4999
 11
-48.4998
 21
38.2999
  0
LINE
  8
0
 10
-48.4998
 20
38.2999
 11
-44.2499
 21
38.2999
  0
LINE
  8
0
 10
-44.2499
 20
38.2999
 11
-44.2499
 21
36.6
  0
LINE
  8
0
 10
-44.2499
 20
36.6
 11
-46.7996
 21
36.6
  0
LINE
  8
0
 10
-46.7996
 20
36.6
 11
-46.7996
 21
33.2001
  0
LINE
  8
0
 10
-46.7996
 20
33.2001
 11
-40.8496
 21
33.2001
  0
LINE
  8
0
 10
-40.8496
 20
33.2001
 11
-40.8496
 21
46.7996
  0
LINE
  8
0
 10
-40.8496
 20
46.7996
 11
-46.7996
 21
46.7996
  0
LINE
  8
0
 10
-46.7996
 20
46.7996
 11
-46.7996
 21
43.3997
  0
LINE
  8
0
 10
-46.7996
 20
43.3997
 11
-44.2499
 21
43.3997
  0
LINE
  8
0
 10
-44.2499
 20
43.3997
 11
-44.2499
 21
41.6998
  0
LINE
  8
0
 10
-44.2499
 20
41.6998
 11
-48.4998
 21
41.6998
  0
LINE
  8
0
 10
-48.4998
 20
41.6998
 11
-48.4998
 21
42.7265
  0
LINE
  8
0
 10
-48.4998
 20
42.7265
 11
-46.6239
 21
48.4998
  0
LINE
  8
0
 10
-46.6239
 20
48.4998
 11
-31.4999
 21
48.4998
  0
LINE
  8
0
 10
-31.4999
 20
48.4998
 11
-31.4999
 21
41.6998
  0
LINE
  8
0
 10
-31.4999
 20
41.6998
 11
-35.7498
 21
41.6998
  0
LINE
  8
0
 10
-35.7498
 20
41.6998
 11
-35.7498
 21
43.3997
  0
LINE
  8
0
 10
-35.7498
 20
43.3997
 11
-33.2001
 21
43.3997
  0
LINE
  8
0
 10
-33.2001
 20
43.3997
 11
-33.2001
 21
46.7996
  0
LINE
  8
0
 10
-33.2001
 20
46.7996
 11
-39.1501
 21
46.7996
  0
LINE
  8
0
 10
-39.1501
 20
46.7996
 11
-39.1501
 21
33.2001
  0
LINE
  8
0
 10
-39.1501
 20
33.2001
 11
-33.2001
 21
33.2001
  0
LINE
  8
0
 10
-33.2001
 20
33.2001
 11
-33.2001
 21
36.6
  0
LINE
  8
0
 10
-33.2001
 20
36.6
 11
-35.7498
 21
36.6
  0
LINE
  8
0
 10
-35.7498
 20
36.6
 11
-35.7498
 21
38.2999
  0
LINE
  8
0
 10
-35.7498
 20
38.2999
 11
-31.4999
 21
38.2999
  0
LINE
  8
0
 10
-31.4999
 20
38.2999
 11
-31.4999
 21
31.4999
  0
LINE
  8
0
 10
-31.4999
 20
31.4999
 11
-48.4998
 21
31.4999
  0
LINE
  8
0
 10
31.4999
 20
31.4999
 11
31.4999
 21
38.2999
  0
LINE
  8
0
 10
31.4999
 20
38.2999
 11
35.7498
 21
38.2999
  0
LINE
  8
0
 10
35.7498
 20
38.2999
 11
35.7498
 21
36.6
  0
LINE
  8
0
 10
35.7498
 20
36.6
 11
33.2001
 21
36.6
  0
LINE
  8
0
 10
33.2001
 20
36.6
 11
33.2001
 21
33.2001
  0
LINE
  8
0
 10
33.2001
 20
33.2001
 11
39.1501
 21
33.2001
  0
LINE
  8
0
 10
39.1501
 20
33.2001
 11
39.1501
 21
46.7996
  0
LINE
  8
0
 10
39.1501
 20
46.7996
 11
33.2001
 21
46.7996
  0
LINE
  8
0
 10
33.2001
 20
46.7996
 11
33.2001
 21
43.3997
  0
LINE
  8
0
 10
33.2001
 20
43.3997
 11
35.7498
 21
43.3997
  0
LINE
  8
0
 10
35.7498
 20
43.3997
 11
35.7498
 21
41.6998
  0
LINE
  8
0
 10
35.7498
 20
41.6998
 11
31.4999
 21
41.6998
  0
LINE
  8
0
 10
31.4999
 20
41.6998
 11
31.4999
 21
48.4998
  0
LINE
  8
0
 10
31.4999
 20
48.4998
 11
46.6239
 21
48.4998
  0
LINE
  8
0
 10
46.6239
 20
48.4998
 11
48.4998
 21
42.7265
  0
LINE
  8
0
 10
48.4998
 20
42.7265
 11
48.4998
 21
41.6998
  0
LINE
  8
0
 10
48.4998
 20
41.6998
 11
44.2499
 21
41.6998
  0
LINE
  8
0
 10
44.2499
 20
41.6998
 11
44.2499
 21
43.3997
  0
LINE
  8
0
 10
44.2499
 20
43.3997
 11
46.7996
 21
43.3997
  0
LINE
  8
0
 10
46.7996
 20
43.3997
 11
46.7996
 21
46.7996
  0
LINE
  8
0
 10
46.7996
 20
46.7996
 11
40.8496
 21
46.7996
  0
LINE
  8
0
 10
40.8496
 20
46.7996
 11
40.8496
 21
33.2001
  0
LINE
  8
0
 10
40.8496
 20
33.2001
 11
46.7996
 21
33.2001
  0
LINE
  8
0
 10
46.7996
 20
33.2001
 11
46.7996
 21
36.6
  0
LINE
  8
0
 10
46.7996
 20
36.6
 11
44.2499
 21
36.6
  0
LINE
  8
0
 10
44.2499
 20
36.6
 11
44.2499
 21
38.2999
  0
LINE
  8
0
 10
44.2499
 20
38.2999
 11
48.4998
 21
38.2999
  0
LINE
  8
0
 10
48.4998
 20
38.2999
 11
48.4998
 21
31.4999
  0
LINE
  8
0
 10
48.4998
 20
31.4999
 11
31.4999
 21
31.4999
  0
LINE
  8
0
 10
11.4999
 20
31.4999
 11
11.4999
 21
48.4998
  0
LINE
  8
0
 10
11.4999
 20
48.4998
 11
18.2999
 21
48.4998
  0
LINE
  8
0
 10
18.2999
 20
48.4998
 11
18.2999
 21
44.2499
  0
LINE
  8
0
 10
18.2999
 20
44.2499
 11
16.6
 21
44.2499
  0
LINE
  8
0
 10
16.6
 20
44.2499
 11
16.6
 21
46.7996
  0
LINE
  8
0
 10
16.6
 20
46.7996
 11
13.2001
 21
46.7996
  0
LINE
  8
0
 10
13.2001
 20
46.7996
 11
13.2001
 21
40.8496
  0
LINE
  8
0
 10
13.2001
 20
40.8496
 11
26.7996
 21
40.8496
  0
LINE
  8
0
 10
26.7996
 20
40.8496
 11
26.7996
 21
46.7996
  0
LINE
  8
0
 10
26.7996
 20
46.7996
 11
23.3997
 21
46.7996
  0
LINE
  8
0
 10
23.3997
 20
46.7996
 11
23.3997
 21
44.2499
  0
LINE
  8
0
 10
23.3997
 20
44.2499
 11
21.6998
 21
44.2499
  0
LINE
  8
0
 10
21.6998
 20
44.2499
 11
21.6998
 21
48.4998
  0
LINE
  8
0
 10
21.6998
 20
48.4998
 11
28.4998
 21
48.4998
  0
LINE
  8
0
 10
28.4998
 20
48.4998
 11
28.4998
 21
31.4999
  0
LINE
  8
0
 10
28.4998
 20
31.4999
 11
21.6998
 21
31.4999
  0
LINE
  8
0
 10
21.6998
 20
31.4999
 11
21.6998
 21
35.7498
  0
LINE
  8
0
 10
21.6998
 20
35.7498
 11
23.3997
 21
35.7498
  0
LINE
  8
0
 10
23.3997
 20
35.7498
 11
23.3997
 21
33.2001
  0
LINE
  8
0
 10
23.3997
 20
33.2001
 11
26.7996
 21
33.2001
  0
LINE
  8
0
 10
26.7996
 20
33.2001
 11
26.7996
 21
39.1501
  0
LINE
  8
0
 10
26.7996
 20
39.1501
 11
13.2001
 21
39.1501
  0
LINE
  8
0
 10
13.2001
 20
39.1501
 11
13.2001
 21
33.2001
  0
LINE
  8
0
 10
13.2001
 20
33.2001
 11
16.6
 21
33.2001
  0
LINE
  8
0
 10
16.6
 20
33.2001
 11
16.6
 21
35.7498
  0
LINE
  8
0
 10
16.6
 20
35.7498
 11
18.2999
 21
35.7498
  0
LINE
  8
0
 10
18.2999
 20
35.7498
 11
18.2999
 21
31.4999
  0
LINE
  8
0
 10
18.2999
 20
31.4999
 11
11.4999
 21
31.4999
  0
LINE
  8
0
 10
-28.4998
 20
31.4999
 11
-28.4998
 21
48.4998
  0
LINE
  8
0
 10
-28.4998
 20
48.4998
 11
-21.6998
 21
48.4998
  0
LINE
  8
0
 10
-21.6998
 20
48.4998
 11
-21.6998
 21
44.2499
  0
LINE
  8
0
 10
-21.6998
 20
44.2499
 11
-23.3997
 21
44.2499
  0
LINE
  8
0
 10
-23.3997
 20
44.2499
 11
-23.3997
 21
46.7996
  0
LINE
  8
0
 10
-23.3997
 20
46.7996
 11
-26.7996
 21
46.7996
  0
LINE
  8
0
 10
-26.7996
 20
46.7996
 11
-26.7996
 21
40.8496
  0
LINE
  8
0
 10
-26.7996
 20
40.8496
 11
-13.2001
 21
40.8496
  0
LINE
  8
0
 10
-13.2001
 20
40.8496
 11
-13.2001
 21
46.7996
  0
LINE
  8
0
 10
-13.2001
 20
46.7996
 11
-16.6
 21
46.7996
  0
LINE
  8
0
 10
-16.6
 20
46.7996
 11
-16.6
 21
44.2499
  0
LINE
  8
0
 10
-16.6
 20
44.2499
 11
-18.2999
 21
44.2499
  0
LINE
  8
0
 10
-18.2999
 20
44.2499
 11
-18.2999
 21
48.4998
  0
LINE
  8
0
 10
-18.2999
 20
48.4998
 11
-11.4999
 21
48.4998
  0
LINE
  8
0
 10
-11.4999
 20
48.4998
 11
-11.4999
 21
31.4999
  0
LINE
  8
0
 10
-11.4999
 20
31.4999
 11
-18.2999
 21
31.4999
  0
LINE
  8
0
 10
-18.2999
 20
31.4999
 11
-18.2999
 21
35.7498
  0
LINE
  8
0
 10
-18.2999
 20
35.7498
 11
-16.6
 21
35.7498
  0
LINE
  8
0
 10
-16.6
 20
35.7498
 11
-16.6
 21
33.2001
  0
LINE
  8
0
 10
-16.6
 20
33.2001
 11
-13.2001
 21
33.2001
  0
LINE
  8
0
 10
-13.2001
 20
33.2001
 11
-13.2001
 21
39.1501
  0
LINE
  8
0
 10
-13.2001
 20
39.1501
 11
-26.7996
 21
39.1501
  0
LINE
  8
0
 10
-26.7996
 20
39.1501
 11
-26.7996
 21
33.2001
  0
LINE
  8
0
 10
-26.7996
 20
33.2001
 11
-23.3997
 21
33.2001
  0
LINE
  8
0
 10
-23.3997
 20
33.2001
 11
-23.3997
 21
35.7498
  0
LINE
  8
0
 10
-23.3997
 20
35.7498
 11
-21.6998
 21
35.7498
  0
LINE
  8
0
 10
-21.6998
 20
35.7498
 11
-21.6998
 21
31.4999
  0
LINE
  8
0
 10
-21.6998
 20
31.4999
 11
-28.4998
 21
31.4999
  0
LINE
  8
0
 10
-52.1475
 20
31.4999
 11
-51.4999
 21
33.4929
  0
LINE
  8
0
 10
-51.4999
 20
33.4929
 11
-51.4999
 21
31.4999
  0
LINE
  8
0
 10
-51.4999
 20
31.4999
 11
-52.1475
 21
31.4999
  0
LINE
  8
0
 10
51.4999
 20
31.4999
 11
51.4999
 21
33.4929
  0
LINE
  8
0
 10
51.4999
 20
33.4929
 11
52.1475
 21
31.4999
  0
LINE
  8
0
 10
52.1475
 20
31.4999
 11
51.4999
 21
31.4999
  0
LINE
  8
0
 10
51.4999
 20
21.6998
 11
51.4999
 21
28.4998
  0
LINE
  8
0
 10
51.4999
 20
28.4998
 11
53.1223
 21
28.4998
  0
LINE
  8
0
 10
53.1223
 20
28.4998
 11
53.6747
 21
26.7996
  0
LINE
  8
0
 10
53.6747
 20
26.7996
 11
53.2001
 21
26.7996
  0
LINE
  8
0
 10
53.2001
 20
26.7996
 11
53.2001
 21
23.3997
  0
LINE
  8
0
 10
53.2001
 20
23.3997
 11
54.7794
 21
23.3997
  0
LINE
  8
0
 10
54.7794
 20
23.3997
 11
55.3317
 21
21.6998
  0
LINE
  8
0
 10
55.3317
 20
21.6998
 11
51.4999
 21
21.6998
  0
LINE
  8
0
 10
-28.4998
 20
12
 11
-28.4998
 21
18.2999
  0
LINE
  8
0
 10
-28.4998
 20
18.2999
 11
-24.2499
 21
18.2999
  0
LINE
  8
0
 10
-24.2499
 20
18.2999
 11
-24.2499
 21
16.6
  0
LINE
  8
0
 10
-24.2499
 20
16.6
 11
-26.7996
 21
16.6
  0
LINE
  8
0
 10
-26.7996
 20
16.6
 11
-26.7996
 21
13.2001
  0
LINE
  8
0
 10
-26.7996
 20
13.2001
 11
-20.8496
 21
13.2001
  0
LINE
  8
0
 10
-20.8496
 20
13.2001
 11
-20.8496
 21
26.7996
  0
LINE
  8
0
 10
-20.8496
 20
26.7996
 11
-26.7996
 21
26.7996
  0
LINE
  8
0
 10
-26.7996
 20
26.7996
 11
-26.7996
 21
23.3997
  0
LINE
  8
0
 10
-26.7996
 20
23.3997
 11
-24.2499
 21
23.3997
  0
LINE
  8
0
 10
-24.2499
 20
23.3997
 11
-24.2499
 21
21.6998
  0
LINE
  8
0
 10
-24.2499
 20
21.6998
 11
-28.4998
 21
21.6998
  0
LINE
  8
0
 10
-28.4998
 20
21.6998
 11
-28.4998
 21
28.4998
  0
LINE
  8
0
 10
-28.4998
 20
28.4998
 11
-11.4999
 21
28.4998
  0
LINE
  8
0
 10
-11.4999
 20
28.4998
 11
-11.4999
 21
21.6998
  0
LINE
  8
0
 10
-11.4999
 20
21.6998
 11
-15.7498
 21
21.6998
  0
LINE
  8
0
 10
-15.7498
 20
21.6998
 11
-15.7498
 21
23.3997
  0
LINE
  8
0
 10
-15.7498
 20
23.3997
 11
-13.2001
 21
23.3997
  0
LINE
  8
0
 10
-13.2001
 20
23.3997
 11
-13.2001
 21
26.7996
  0
LINE
  8
0
 10
-13.2001
 20
26.7996
 11
-19.1501
 21
26.7996
  0
LINE
  8
0
 10
-19.1501
 20
26.7996
 11
-19.1501
 21
13.2001
  0
LINE
  8
0
 10
-19.1501
 20
13.2001
 11
-13.2001
 21
13.2001
  0
LINE
  8
0
 10
-13.2001
 20
13.2001
 11
-13.2001
 21
16.6
  0
LINE
  8
0
 10
-13.2001
 20
16.6
 11
-15.7498
 21
16.6
  0
LINE
  8
0
 10
-15.7498
 20
16.6
 11
-15.7498
 21
18.2999
  0
LINE
  8
0
 10
-15.7498
 20
18.2999
 11
-11.4999
 21
18.2999
  0
LINE
  8
0
 10
-11.4999
 20
18.2999
 11
-11.4999
 21
12
  0
LINE
  8
0
 10
-11.4999
 20
12
 11
-28.4998
 21
12
  0
LINE
  8
0
 10
-8.49976
 20
12
 11
-8.49976
 21
28.4998
  0
LINE
  8
0
 10
-8.49976
 20
28.4998
 11
-1.69983
 21
28.4998
  0
LINE
  8
0
 10
-1.69983
 20
28.4998
 11
-1.69983
 21
24.2499
  0
LINE
  8
0
 10
-1.69983
 20
24.2499
 11
-3.39966
 21
24.2499
  0
LINE
  8
0
 10
-3.39966
 20
24.2499
 11
-3.39966
 21
26.7996
  0
LINE
  8
0
 10
-3.39966
 20
26.7996
 11
-6.79962
 21
26.7996
  0
LINE
  8
0
 10
-6.79962
 20
26.7996
 11
-6.79962
 21
20.8496
  0
LINE
  8
0
 10
-6.79962
 20
20.8496
 11
6.79962
 21
20.8496
  0
LINE
  8
0
 10
6.79962
 20
20.8496
 11
6.79962
 21
26.7996
  0
LINE
  8
0
 10
6.79962
 20
26.7996
 11
3.39966
 21
26.7996
  0
LINE
  8
0
 10
3.39966
 20
26.7996
 11
3.39966
 21
24.2499
  0
LINE
  8
0
 10
3.39966
 20
24.2499
 11
1.69983
 21
24.2499
  0
LINE
  8
0
 10
1.69983
 20
24.2499
 11
1.69983
 21
28.4998
  0
LINE
  8
0
 10
1.69983
 20
28.4998
 11
8.49976
 21
28.4998
  0
LINE
  8
0
 10
8.49976
 20
28.4998
 11
8.49976
 21
12
  0
LINE
  8
0
 10
8.49976
 20
12
 11
1.69983
 21
12
  0
LINE
  8
0
 10
1.69983
 20
12
 11
1.69983
 21
15.7498
  0
LINE
  8
0
 10
1.69983
 20
15.7498
 11
3.39966
 21
15.7498
  0
LINE
  8
0
 10
3.39966
 20
15.7498
 11
3.39966
 21
13.2001
  0
LINE
  8
0
 10
3.39966
 20
13.2001
 11
6.79962
 21
13.2001
  0
LINE
  8
0
 10
6.79962
 20
13.2001
 11
6.79962
 21
19.1501
  0
LINE
  8
0
 10
6.79962
 20
19.1501
 11
-6.79962
 21
19.1501
  0
LINE
  8
0
 10
-6.79962
 20
19.1501
 11
-6.79962
 21
13.2001
  0
LINE
  8
0
 10
-6.79962
 20
13.2001
 11
-3.39966
 21
13.2001
  0
LINE
  8
0
 10
-3.39966
 20
13.2001
 11
-3.39966
 21
15.7498
  0
LINE
  8
0
 10
-3.39966
 20
15.7498
 11
-1.69983
 21
15.7498
  0
LINE
  8
0
 10
-1.69983
 20
15.7498
 11
-1.69983
 21
12
  0
LINE
  8
0
 10
-1.69983
 20
12
 11
-8.49976
 21
12
  0
LINE
  8
0
 10
-48.4998
 20
12
 11
-48.4998
 21
18.2999
  0
LINE
  8
0
 10
-48.4998
 20
18.2999
 11
-44.2499
 21
18.2999
  0
LINE
  8
0
 10
-44.2499
 20
18.2999
 11
-44.2499
 21
16.6
  0
LINE
  8
0
 10
-44.2499
 20
16.6
 11
-46.7996
 21
16.6
  0
LINE
  8
0
 10
-46.7996
 20
16.6
 11
-46.7996
 21
13.2001
  0
LINE
  8
0
 10
-46.7996
 20
13.2001
 11
-40.8496
 21
13.2001
  0
LINE
  8
0
 10
-40.8496
 20
13.2001
 11
-40.8496
 21
26.7996
  0
LINE
  8
0
 10
-40.8496
 20
26.7996
 11
-46.7996
 21
26.7996
  0
LINE
  8
0
 10
-46.7996
 20
26.7996
 11
-46.7996
 21
23.3997
  0
LINE
  8
0
 10
-46.7996
 20
23.3997
 11
-44.2499
 21
23.3997
  0
LINE
  8
0
 10
-44.2499
 20
23.3997
 11
-44.2499
 21
21.6998
  0
LINE
  8
0
 10
-44.2499
 20
21.6998
 11
-48.4998
 21
21.6998
  0
LINE
  8
0
 10
-48.4998
 20
21.6998
 11
-48.4998
 21
28.4998
  0
LINE
  8
0
 10
-48.4998
 20
28.4998
 11
-31.4999
 21
28.4998
  0
LINE
  8
0
 10
-31.4999
 20
28.4998
 11
-31.4999
 21
21.6998
  0
LINE
  8
0
 10
-31.4999
 20
21.6998
 11
-35.7498
 21
21.6998
  0
LINE
  8
0
 10
-35.7498
 20
21.6998
 11
-35.7498
 21
23.3997
  0
LINE
  8
0
 10
-35.7498
 20
23.3997
 11
-33.2001
 21
23.3997
  0
LINE
  8
0
 10
-33.2001
 20
23.3997
 11
-33.2001
 21
26.7996
  0
LINE
  8
0
 10
-33.2001
 20
26.7996
 11
-39.1501
 21
26.7996
  0
LINE
  8
0
 10
-39.1501
 20
26.7996
 11
-39.1501
 21
13.2001
  0
LINE
  8
0
 10
-39.1501
 20
13.2001
 11
-33.2001
 21
13.2001
  0
LINE
  8
0
 10
-33.2001
 20
13.2001
 11
-33.2001
 21
16.6
  0
LINE
  8
0
 10
-33.2001
 20
16.6
 11
-35.7498
 21
16.6
  0
LINE
  8
0
 10
-35.7498
 20
16.6
 11
-35.7498
 21
18.2999
  0
LINE
  8
0
 10
-35.7498
 20
18.2999
 11
-31.4999
 21
18.2999
  0
LINE
  8
0
 10
-31.4999
 20
18.2999
 11
-31.4999
 21
12
  0
LINE
  8
0
 10
-31.4999
 20
12
 11
-48.4998
 21
12
  0
LINE
  8
0
 10
11.4999
 20
12
 11
11.4999
 21
18.2999
  0
LINE
  8
0
 10
11.4999
 20
18.2999
 11
15.7498
 21
18.2999
  0
LINE
  8
0
 10
15.7498
 20
18.2999
 11
15.7498
 21
16.6
  0
LINE
  8
0
 10
15.7498
 20
16.6
 11
13.2001
 21
16.6
  0
LINE
  8
0
 10
13.2001
 20
16.6
 11
13.2001
 21
13.2001
  0
LINE
  8
0
 10
13.2001
 20
13.2001
 11
19.1501
 21
13.2001
  0
LINE
  8
0
 10
19.1501
 20
13.2001
 11
19.1501
 21
26.7996
  0
LINE
  8
0
 10
19.1501
 20
26.7996
 11
13.2001
 21
26.7996
  0
LINE
  8
0
 10
13.2001
 20
26.7996
 11
13.2001
 21
23.3997
  0
LINE
  8
0
 10
13.2001
 20
23.3997
 11
15.7498
 21
23.3997
  0
LINE
  8
0
 10
15.7498
 20
23.3997
 11
15.7498
 21
21.6998
  0
LINE
  8
0
 10
15.7498
 20
21.6998
 11
11.4999
 21
21.6998
  0
LINE
  8
0
 10
11.4999
 20
21.6998
 11
11.4999
 21
28.4998
  0
LINE
  8
0
 10
11.4999
 20
28.4998
 11
28.4998
 21
28.4998
  0
LINE
  8
0
 10
28.4998
 20
28.4998
 11
28.4998
 21
21.6998
  0
LINE
  8
0
 10
28.4998
 20
21.6998
 11
24.2499
 21
21.6998
  0
LINE
  8
0
 10
24.2499
 20
21.6998
 11
24.2499
 21
23.3997
  0
LINE
  8
0
 10
24.2499
 20
23.3997
 11
26.7996
 21
23.3997
  0
LINE
  8
0
 10
26.7996
 20
23.3997
 11
26.7996
 21
26.7996
  0
LINE
  8
0
 10
26.7996
 20
26.7996
 11
20.8496
 21
26.7996
  0
LINE
  8
0
 10
20.8496
 20
26.7996
 11
20.8496
 21
13.2001
  0
LINE
  8
0
 10
20.8496
 20
13.2001
 11
26.7996
 21
13.2001
  0
LINE
  8
0
 10
26.7996
 20
13.2001
 11
26.7996
 21
16.6
  0
LINE
  8
0
 10
26.7996
 20
16.6
 11
24.2499
 21
16.6
  0
LINE
  8
0
 10
24.2499
 20
16.6
 11
24.2499
 21
18.2999
  0
LINE
  8
0
 10
24.2499
 20
18.2999
 11
28.4998
 21
18.2999
  0
LINE
  8
0
 10
28.4998
 20
18.2999
 11
28.4998
 21
12
  0
LINE
  8
0
 10
28.4998
 20
12
 11
11.4999
 21
12
  0
LINE
  8
0
 10
31.4999
 20
12
 11
31.4999
 21
28.4998
  0
LINE
  8
0
 10
31.4999
 20
28.4998
 11
38.2999
 21
28.4998
  0
LINE
  8
0
 10
38.2999
 20
28.4998
 11
38.2999
 21
24.2499
  0
LINE
  8
0
 10
38.2999
 20
24.2499
 11
36.6
 21
24.2499
  0
LINE
  8
0
 10
36.6
 20
24.2499
 11
36.6
 21
26.7996
  0
LINE
  8
0
 10
36.6
 20
26.7996
 11
33.2001
 21
26.7996
  0
LINE
  8
0
 10
33.2001
 20
26.7996
 11
33.2001
 21
20.8496
  0
LINE
  8
0
 10
33.2001
 20
20.8496
 11
46.7996
 21
20.8496
  0
LINE
  8
0
 10
46.7996
 20
20.8496
 11
46.7996
 21
26.7996
  0
LINE
  8
0
 10
46.7996
 20
26.7996
 11
43.3997
 21
26.7996
  0
LINE
  8
0
 10
43.3997
 20
26.7996
 11
43.3997
 21
24.2499
  0
LINE
  8
0
 10
43.3997
 20
24.2499
 11
41.6998
 21
24.2499
  0
LINE
  8
0
 10
41.6998
 20
24.2499
 11
41.6998
 21
28.4998
  0
LINE
  8
0
 10
41.6998
 20
28.4998
 11
48.4998
 21
28.4998
  0
LINE
  8
0
 10
48.4998
 20
28.4998
 11
48.4998
 21
12
  0
LINE
  8
0
 10
48.4998
 20
12
 11
41.6998
 21
12
  0
LINE
  8
0
 10
41.6998
 20
12
 11
41.6998
 21
15.7498
  0
LINE
  8
0
 10
41.6998
 20
15.7498
 11
43.3997
 21
15.7498
  0
LINE
  8
0
 10
43.3997
 20
15.7498
 11
43.3997
 21
13.2001
  0
LINE
  8
0
 10
43.3997
 20
13.2001
 11
46.7996
 21
13.2001
  0
LINE
  8
0
 10
46.7996
 20
13.2001
 11
46.7996
 21
19.1501
  0
LINE
  8
0
 10
46.7996
 20
19.1501
 11
33.2001
 21
19.1501
  0
LINE
  8
0
 10
33.2001
 20
19.1501
 11
33.2001
 21
13.2001
  0
LINE
  8
0
 10
33.2001
 20
13.2001
 11
36.6
 21
13.2001
  0
LINE
  8
0
 10
36.6
 20
13.2001
 11
36.6
 21
15.7498
  0
LINE
  8
0
 10
36.6
 20
15.7498
 11
38.2999
 21
15.7498
  0
LINE
  8
0
 10
38.2999
 20
15.7498
 11
38.2999
 21
12
  0
LINE
  8
0
 10
38.2999
 20
12
 11
31.4999
 21
12
  0
LINE
  8
0
 10
-55.3317
 20
21.6998
 11
-54.7794
 21
23.3997
  0
LINE
  8
0
 10
-54.7794
 20
23.3997
 11
-53.2001
 21
23.3997
  0
LINE
  8
0
 10
-53.2001
 20
23.3997
 11
-53.2001
 21
26.7996
  0
LINE
  8
0
 10
-53.2001
 20
26.7996
 11
-53.6747
 21
26.7996
  0
LINE
  8
0
 10
-53.6747
 20
26.7996
 11
-53.1223
 21
28.4998
  0
LINE
  8
0
 10
-53.1223
 20
28.4998
 11
-51.4999
 21
28.4998
  0
LINE
  8
0
 10
-51.4999
 20
28.4998
 11
-51.4999
 21
21.6998
  0
LINE
  8
0
 10
-51.4999
 20
21.6998
 11
-55.3317
 21
21.6998
  0
LINE
  8
0
 10
-58.4834
 20
12
 11
-58.0935
 21
13.2001
  0
LINE
  8
0
 10
-58.0935
 20
13.2001
 11
-53.2001
 21
13.2001
  0
LINE
  8
0
 10
-53.2001
 20
13.2001
 11
-53.2001
 21
16.6
  0
LINE
  8
0
 10
-53.2001
 20
16.6
 11
-55.7498
 21
16.6
  0
LINE
  8
0
 10
-55.7498
 20
16.6
 11
-55.7498
 21
18.2999
  0
LINE
  8
0
 10
-55.7498
 20
18.2999
 11
-51.4999
 21
18.2999
  0
LINE
  8
0
 10
-51.4999
 20
18.2999
 11
-51.4999
 21
12
  0
LINE
  8
0
 10
-51.4999
 20
12
 11
-58.4834
 21
12
  0
LINE
  8
0
 10
51.4999
 20
12
 11
51.4999
 21
18.2999
  0
LINE
  8
0
 10
51.4999
 20
18.2999
 11
55.7498
 21
18.2999
  0
LINE
  8
0
 10
55.7498
 20
18.2999
 11
55.7498
 21
16.6
  0
LINE
  8
0
 10
55.7498
 20
16.6
 11
53.2001
 21
16.6
  0
LINE
  8
0
 10
53.2001
 20
16.6
 11
53.2001
 21
13.2001
  0
LINE
  8
0
 10
53.2001
 20
13.2001
 11
58.0935
 21
13.2001
  0
LINE
  8
0
 10
58.0935
 20
13.2001
 11
58.4834
 21
12
  0
LINE
  8
0
 10
58.4834
 20
12
 11
51.4999
 21
12
  0
LINE
  8
0
 10
-10
 20
7
 11
-10
 21
11
  0
LINE
  8
0
 10
-10
 20
11
 11
10
 21
11
  0
LINE
  8
0
 10
10
 20
11
 11
10
 21
7
  0
LINE
  8
0
 10
10
 20
7
 11
-10
 21
7
  0
LINE
  8
0
 10
-68.6534
 20
2.70622
 11
-68.7785
 21
2.71805
  0
LINE
  8
0
 10
-68.7785
 20
2.71805
 11
-68.9026
 21
2.7377
  0
LINE
  8
0
 10
-68.9026
 20
2.7377
 11
-69.0252
 21
2.76511
  0
LINE
  8
0
 10
-69.0252
 20
2.76511
 11
-69.1459
 21
2.80016
  0
LINE
  8
0
 10
-69.1459
 20
2.80016
 11
-69.2641
 21
2.84273
  0
LINE
  8
0
 10
-69.2641
 20
2.84273
 11
-69.3794
 21
2.89262
  0
LINE
  8
0
 10
-69.3794
 20
2.89262
 11
-69.4914
 21
2.94966
  0
LINE
  8
0
 10
-69.4914
 20
2.94966
 11
-69.5995
 21
3.01363
  0
LINE
  8
0
 10
-69.5995
 20
3.01363
 11
-69.7034
 21
3.08424
  0
LINE
  8
0
 10
-69.7034
 20
3.08424
 11
-69.8027
 21
3.16125
  0
LINE
  8
0
 10
-69.8027
 20
3.16125
 11
-69.897
 21
3.24434
  0
LINE
  8
0
 10
-69.897
 20
3.24434
 11
-69.9858
 21
3.33318
  0
LINE
  8
0
 10
-69.9858
 20
3.33318
 11
-70.0689
 21
3.42743
  0
LINE
  8
0
 10
-70.0689
 20
3.42743
 11
-70.1459
 21
3.5267
  0
LINE
  8
0
 10
-70.1459
 20
3.5267
 11
-70.2165
 21
3.63062
  0
LINE
  8
0
 10
-70.2165
 20
3.63062
 11
-70.2805
 21
3.73877
  0
LINE
  8
0
 10
-70.2805
 20
3.73877
 11
-70.3375
 21
3.85072
  0
LINE
  8
0
 10
-70.3375
 20
3.85072
 11
-70.3874
 21
3.96602
  0
LINE
  8
0
 10
-70.3874
 20
3.96602
 11
-70.43
 21
4.08424
  0
LINE
  8
0
 10
-70.43
 20
4.08424
 11
-70.465
 21
4.2049
  0
LINE
  8
0
 10
-70.465
 20
4.2049
 11
-70.4924
 21
4.32751
  0
LINE
  8
0
 10
-70.4924
 20
4.32751
 11
-70.5121
 21
4.45161
  0
LINE
  8
0
 10
-70.5121
 20
4.45161
 11
-70.5239
 21
4.57669
  0
LINE
  8
0
 10
-70.5239
 20
4.57669
 11
-70.5279
 21
4.70227
  0
LINE
  8
0
 10
-70.5279
 20
4.70227
 11
-70.5239
 21
4.82785
  0
LINE
  8
0
 10
-70.5239
 20
4.82785
 11
-70.5121
 21
4.95294
  0
LINE
  8
0
 10
-70.5121
 20
4.95294
 11
-70.4924
 21
5.07704
  0
LINE
  8
0
 10
-70.4924
 20
5.07704
 11
-70.465
 21
5.19966
  0
LINE
  8
0
 10
-70.465
 20
5.19966
 11
-70.43
 21
5.32031
  0
LINE
  8
0
 10
-70.43
 20
5.32031
 11
-70.3874
 21
5.43852
  0
LINE
  8
0
 10
-70.3874
 20
5.43852
 11
-70.3375
 21
5.55383
  0
LINE
  8
0
 10
-70.3375
 20
5.55383
 11
-70.2805
 21
5.66579
  0
LINE
  8
0
 10
-70.2805
 20
5.66579
 11
-70.2165
 21
5.77393
  0
LINE
  8
0
 10
-70.2165
 20
5.77393
 11
-70.1459
 21
5.87784
  0
LINE
  8
0
 10
-70.1459
 20
5.87784
 11
-70.0689
 21
5.97713
  0
LINE
  8
0
 10
-70.0689
 20
5.97713
 11
-69.9858
 21
6.07137
  0
LINE
  8
0
 10
-69.9858
 20
6.07137
 11
-69.897
 21
6.16022
  0
LINE
  8
0
 10
-69.897
 20
6.16022
 11
-69.8027
 21
6.2433
  0
LINE
  8
0
 10
-69.8027
 20
6.2433
 11
-69.7034
 21
6.32031
  0
LINE
  8
0
 10
-69.7034
 20
6.32031
 11
-69.5995
 21
6.39093
  0
LINE
  8
0
 10
-69.5995
 20
6.39093
 11
-69.4914
 21
6.4549
  0
LINE
  8
0
 10
-69.4914
 20
6.4549
 11
-69.3794
 21
6.51193
  0
LINE
  8
0
 10
-69.3794
 20
6.51193
 11
-69.2641
 21
6.56183
  0
LINE
  8
0
 10
-69.2641
 20
6.56183
 11
-69.1459
 21
6.60439
  0
LINE
  8
0
 10
-69.1459
 20
6.60439
 11
-69.0252
 21
6.63943
  0
LINE
  8
0
 10
-69.0252
 20
6.63943
 11
-68.9026
 21
6.66685
  0
LINE
  8
0
 10
-68.9026
 20
6.66685
 11
-68.7785
 21
6.68651
  0
LINE
  8
0
 10
-68.7785
 20
6.68651
 11
-68.6534
 21
6.69833
  0
LINE
  8
0
 10
-68.6534
 20
6.69833
 11
-68.5279
 21
6.70227
  0
LINE
  8
0
 10
-68.5279
 20
6.70227
 11
-68.4023
 21
6.69833
  0
LINE
  8
0
 10
-68.4023
 20
6.69833
 11
-68.2772
 21
6.68651
  0
LINE
  8
0
 10
-68.2772
 20
6.68651
 11
-68.1531
 21
6.66685
  0
LINE
  8
0
 10
-68.1531
 20
6.66685
 11
-68.0305
 21
6.63943
  0
LINE
  8
0
 10
-68.0305
 20
6.63943
 11
-67.9098
 21
6.60439
  0
LINE
  8
0
 10
-67.9098
 20
6.60439
 11
-67.7916
 21
6.56183
  0
LINE
  8
0
 10
-67.7916
 20
6.56183
 11
-67.6763
 21
6.51193
  0
LINE
  8
0
 10
-67.6763
 20
6.51193
 11
-67.5643
 21
6.4549
  0
LINE
  8
0
 10
-67.5643
 20
6.4549
 11
-67.4562
 21
6.39093
  0
LINE
  8
0
 10
-67.4562
 20
6.39093
 11
-67.3523
 21
6.32031
  0
LINE
  8
0
 10
-67.3523
 20
6.32031
 11
-67.253
 21
6.2433
  0
LINE
  8
0
 10
-67.253
 20
6.2433
 11
-67.1588
 21
6.16022
  0
LINE
  8
0
 10
-67.1588
 20
6.16022
 11
-67.0699
 21
6.07137
  0
LINE
  8
0
 10
-67.0699
 20
6.07137
 11
-66.9868
 21
5.97713
  0
LINE
  8
0
 10
-66.9868
 20
5.97713
 11
-66.9098
 21
5.87784
  0
LINE
  8
0
 10
-66.9098
 20
5.87784
 11
-66.8392
 21
5.77393
  0
LINE
  8
0
 10
-66.8392
 20
5.77393
 11
-66.7752
 21
5.66579
  0
LINE
  8
0
 10
-66.7752
 20
5.66579
 11
-66.7182
 21
5.55383
  0
LINE
  8
0
 10
-66.7182
 20
5.55383
 11
-66.6683
 21
5.43852
  0
LINE
  8
0
 10
-66.6683
 20
5.43852
 11
-66.6257
 21
5.32031
  0
LINE
  8
0
 10
-66.6257
 20
5.32031
 11
-66.5907
 21
5.19966
  0
LINE
  8
0
 10
-66.5907
 20
5.19966
 11
-66.5633
 21
5.07704
  0
LINE
  8
0
 10
-66.5633
 20
5.07704
 11
-66.5436
 21
4.95294
  0
LINE
  8
0
 10
-66.5436
 20
4.95294
 11
-66.5318
 21
4.82785
  0
LINE
  8
0
 10
-66.5318
 20
4.82785
 11
-66.5279
 21
4.70227
  0
LINE
  8
0
 10
-66.5279
 20
4.70227
 11
-66.5318
 21
4.57669
  0
LINE
  8
0
 10
-66.5318
 20
4.57669
 11
-66.5436
 21
4.45161
  0
LINE
  8
0
 10
-66.5436
 20
4.45161
 11
-66.5633
 21
4.32751
  0
LINE
  8
0
 10
-66.5633
 20
4.32751
 11
-66.5907
 21
4.2049
  0
LINE
  8
0
 10
-66.5907
 20
4.2049
 11
-66.6257
 21
4.08424
  0
LINE
  8
0
 10
-66.6257
 20
4.08424
 11
-66.6683
 21
3.96602
  0
LINE
  8
0
 10
-66.6683
 20
3.96602
 11
-66.7182
 21
3.85072
  0
LINE
  8
0
 10
-66.7182
 20
3.85072
 11
-66.7752
 21
3.73877
  0
LINE
  8
0
 10
-66.7752
 20
3.73877
 11
-66.8392
 21
3.63062
  0
LINE
  8
0
 10
-66.8392
 20
3.63062
 11
-66.9098
 21
3.5267
  0
LINE
  8
0
 10
-66.9098
 20
3.5267
 11
-66.9868
 21
3.42743
  0
LINE
  8
0
 10
-66.9868
 20
3.42743
 11
-67.0699
 21
3.33318
  0
LINE
  8
0
 10
-67.0699
 20
3.33318
 11
-67.1588
 21
3.24434
  0
LINE
  8
0
 10
-67.1588
 20
3.24434
 11
-67.253
 21
3.16125
  0
LINE
  8
0
 10
-67.253
 20
3.16125
 11
-67.3523
 21
3.08424
  0
LINE
  8
0
 10
-67.3523
 20
3.08424
 11
-67.4562
 21
3.01363
  0
LINE
  8
0
 10
-67.4562
 20
3.01363
 11
-67.5643
 21
2.94966
  0
LINE
  8
0
 10
-67.5643
 20
2.94966
 11
-67.6763
 21
2.89262
  0
LINE
  8
0
 10
-67.6763
 20
2.89262
 11
-67.7916
 21
2.84273
  0
LINE
  8
0
 10
-67.7916
 20
2.84273
 11
-67.9098
 21
2.80016
  0
LINE
  8
0
 10
-67.9098
 20
2.80016
 11
-68.0305
 21
2.76511
  0
LINE
  8
0
 10
-68.0305
 20
2.76511
 11
-68.1531
 21
2.7377
  0
LINE
  8
0
 10
-68.1531
 20
2.7377
 11
-68.2772
 21
2.71805
  0
LINE
  8
0
 10
-68.2772
 20
2.71805
 11
-68.4023
 21
2.70622
  0
LINE
  8
0
 10
-68.4023
 20
2.70622
 11
-68.5279
 21
2.70227
  0
LINE
  8
0
 10
-68.5279
 20
2.70227
 11
-68.6534
 21
2.70622
  0
LINE
  8
0
 10
68.4023
 20
2.70622
 11
68.2772
 21
2.71805
  0
LINE
  8
0
 10
68.2772
 20
2.71805
 11
68.1531
 21
2.7377
  0
LINE
  8
0
 10
68.1531
 20
2.7377
 11
68.0305
 21
2.76511
  0
LINE
  8
0
 10
68.0305
 20
2.76511
 11
67.9098
 21
2.80016
  0
LINE
  8
0
 10
67.9098
 20
2.80016
 11
67.7916
 21
2.84273
  0
LINE
  8
0
 10
67.7916
 20
2.84273
 11
67.6763
 21
2.89262
  0
LINE
  8
0
 10
67.6763
 20
2.89262
 11
67.5643
 21
2.94966
  0
LINE
  8
0
 10
67.5643
 20
2.94966
 11
67.4562
 21
3.01363
  0
LINE
  8
0
 10
67.4562
 20
3.01363
 11
67.3523
 21
3.08424
  0
LINE
  8
0
 10
67.3523
 20
3.08424
 11
67.253
 21
3.16125
  0
LINE
  8
0
 10
67.253
 20
3.16125
 11
67.1588
 21
3.24434
  0
LINE
  8
0
 10
67.1588
 20
3.24434
 11
67.0699
 21
3.33318
  0
LINE
  8
0
 10
67.0699
 20
3.33318
 11
66.9868
 21
3.42743
  0
LINE
  8
0
 10
66.9868
 20
3.42743
 11
66.9098
 21
3.5267
  0
LINE
  8
0
 10
66.9098
 20
3.5267
 11
66.8392
 21
3.63062
  0
LINE
  8
0
 10
66.8392
 20
3.63062
 11
66.7752
 21
3.73877
  0
LINE
  8
0
 10
66.7752
 20
3.73877
 11
66.7182
 21
3.85072
  0
LINE
  8
0
 10
66.7182
 20
3.85072
 11
66.6683
 21
3.96602
  0
LINE
  8
0
 10
66.6683
 20
3.96602
 11
66.6257
 21
4.08424
  0
LINE
  8
0
 10
66.6257
 20
4.08424
 11
66.5907
 21
4.2049
  0
LINE
  8
0
 10
66.5907
 20
4.2049
 11
66.5633
 21
4.32751
  0
LINE
  8
0
 10
66.5633
 20
4.32751
 11
66.5436
 21
4.45161
  0
LINE
  8
0
 10
66.5436
 20
4.45161
 11
66.5318
 21
4.57669
  0
LINE
  8
0
 10
66.5318
 20
4.57669
 11
66.5279
 21
4.70227
  0
LINE
  8
0
 10
66.5279
 20
4.70227
 11
66.5318
 21
4.82785
  0
LINE
  8
0
 10
66.5318
 20
4.82785
 11
66.5436
 21
4.95294
  0
LINE
  8
0
 10
66.5436
 20
4.95294
 11
66.5633
 21
5.07704
  0
LINE
  8
0
 10
66.5633
 20
5.07704
 11
66.5907
 21
5.19966
  0
LINE
  8
0
 10
66.5907
 20
5.19966
 11
66.6257
 21
5.32031
  0
LINE
  8
0
 10
66.6257
 20
5.32031
 11
66.6683
 21
5.43852
  0
LINE
  8
0
 10
66.6683
 20
5.43852
 11
66.7182
 21
5.55383
  0
LINE
  8
0
 10
66.7182
 20
5.55383
 11
66.7752
 21
5.66579
  0
LINE
  8
0
 10
66.7752
 20
5.66579
 11
66.8392
 21
5.77393
  0
LINE
  8
0
 10
66.8392
 20
5.77393
 11
66.9098
 21
5.87784
  0
LINE
  8
0
 10
66.9098
 20
5.87784
 11
66.9868
 21
5.97713
  0
LINE
  8
0
 10
66.9868
 20
5.97713
 11
67.0699
 21
6.07137
  0
LINE
  8
0
 10
67.0699
 20
6.07137
 11
67.1588
 21
6.16022
  0
LINE
  8
0
 10
67.1588
 20
6.16022
 11
67.253
 21
6.2433
  0
LINE
  8
0
 10
67.253
 20
6.2433
 11
67.3523
 21
6.32031
  0
LINE
  8
0
 10
67.3523
 20
6.32031
 11
67.4562
 21
6.39093
  0
LINE
  8
0
 10
67.4562
 20
6.39093
 11
67.5643
 21
6.4549
  0
LINE
  8
0
 10
67.5643
 20
6.4549
 11
67.6763
 21
6.51193
  0
LINE
  8
0
 10
67.6763
 20
6.51193
 11
67.7916
 21
6.56183
  0
LINE
  8
0
 10
67.7916
 20
6.56183
 11
67.9098
 21
6.60439
  0
LINE
  8
0
 10
67.9098
 20
6.60439
 11
68.0305
 21
6.63943
  0
LINE
  8
0
 10
68.0305
 20
6.63943
 11
68.1531
 21
6.66685
  0
LINE
  8
0
 10
68.1531
 20
6.66685
 11
68.2772
 21
6.68651
  0
LINE
  8
0
 10
68.2772
 20
6.68651
 11
68.4023
 21
6.69833
  0
LINE
  8
0
 10
68.4023
 20
6.69833
 11
68.5279
 21
6.70227
  0
LINE
  8
0
 10
68.5279
 20
6.70227
 11
68.6534
 21
6.69833
  0
LINE
  8
0
 10
68.6534
 20
6.69833
 11
68.7785
 21
6.68651
  0
LINE
  8
0
 10
68.7785
 20
6.68651
 11
68.9026
 21
6.66685
  0
LINE
  8
0
 10
68.9026
 20
6.66685
 11
69.0252
 21
6.63943
  0
LINE
  8
0
 10
69.0252
 20
6.63943
 11
69.1459
 21
6.60439
  0
LINE
  8
0
 10
69.1459
 20
6.60439
 11
69.2641
 21
6.56183
  0
LINE
  8
0
 10
69.2641
 20
6.56183
 11
69.3794
 21
6.51193
  0
LINE
  8
0
 10
69.3794
 20
6.51193
 11
69.4914
 21
6.4549
  0
LINE
  8
0
 10
69.4914
 20
6.4549
 11
69.5995
 21
6.39093
  0
LINE
  8
0
 10
69.5995
 20
6.39093
 11
69.7034
 21
6.32031
  0
LINE
  8
0
 10
69.7034
 20
6.32031
 11
69.8027
 21
6.2433
  0
LINE
  8
0
 10
69.8027
 20
6.2433
 11
69.897
 21
6.16022
  0
LINE
  8
0
 10
69.897
 20
6.16022
 11
69.9858
 21
6.07137
  0
LINE
  8
0
 10
69.9858
 20
6.07137
 11
70.0689
 21
5.97713
  0
LINE
  8
0
 10
70.0689
 20
5.97713
 11
70.1459
 21
5.87784
  0
LINE
  8
0
 10
70.1459
 20
5.87784
 11
70.2165
 21
5.77393
  0
LINE
  8
0
 10
70.2165
 20
5.77393
 11
70.2805
 21
5.66579
  0
LINE
  8
0
 10
70.2805
 20
5.66579
 11
70.3375
 21
5.55383
  0
LINE
  8
0
 10
70.3375
 20
5.55383
 11
70.3874
 21
5.43852
  0
LINE
  8
0
 10
70.3874
 20
5.43852
 11
70.43
 21
5.32031
  0
LINE
  8
0
 10
70.43
 20
5.32031
 11
70.465
 21
5.19966
  0
LINE
  8
0
 10
70.465
 20
5.19966
 11
70.4924
 21
5.07704
  0
LINE
  8
0
 10
70.4924
 20
5.07704
 11
70.5121
 21
4.95294
  0
LINE
  8
0
 10
70.5121
 20
4.95294
 11
70.5239
 21
4.82785
  0
LINE
  8
0
 10
70.5239
 20
4.82785
 11
70.5279
 21
4.70227
  0
LINE
  8
0
 10
70.5279
 20
4.70227
 11
70.5239
 21
4.57669
  0
LINE
  8
0
 10
70.5239
 20
4.57669
 11
70.5121
 21
4.45161
  0
LINE
  8
0
 10
70.5121
 20
4.45161
 11
70.4924
 21
4.32751
  0
LINE
  8
0
 10
70.4924
 20
4.32751
 11
70.465
 21
4.2049
  0
LINE
  8
0
 10
70.465
 20
4.2049
 11
70.43
 21
4.08424
  0
LINE
  8
0
 10
70.43
 20
4.08424
 11
70.3874
 21
3.96602
  0
LINE
  8
0
 10
70.3874
 20
3.96602
 11
70.3375
 21
3.85072
  0
LINE
  8
0
 10
70.3375
 20
3.85072
 11
70.2805
 21
3.73877
  0
LINE
  8
0
 10
70.2805
 20
3.73877
 11
70.2165
 21
3.63062
  0
LINE
  8
0
 10
70.2165
 20
3.63062
 11
70.1459
 21
3.5267
  0
LINE
  8
0
 10
70.1459
 20
3.5267
 11
70.0689
 21
3.42743
  0
LINE
  8
0
 10
70.0689
 20
3.42743
 11
69.9858
 21
3.33318
  0
LINE
  8
0
 10
69.9858
 20
3.33318
 11
69.897
 21
3.24434
  0
LINE
  8
0
 10
69.897
 20
3.24434
 11
69.8027
 21
3.16125
  0
LINE
  8
0
 10
69.8027
 20
3.16125
 11
69.7034
 21
3.08424
  0
LINE
  8
0
 10
69.7034
 20
3.08424
 11
69.5995
 21
3.01363
  0
LINE
  8
0
 10
69.5995
 20
3.01363
 11
69.4914
 21
2.94966
  0
LINE
  8
0
 10
69.4914
 20
2.94966
 11
69.3794
 21
2.89262
  0
LINE
  8
0
 10
69.3794
 20
2.89262
 11
69.2641
 21
2.84273
  0
LINE
  8
0
 10
69.2641
 20
2.84273
 11
69.1459
 21
2.80016
  0
LINE
  8
0
 10
69.1459
 20
2.80016
 11
69.0252
 21
2.76511
  0
LINE
  8
0
 10
69.0252
 20
2.76511
 11
68.9026
 21
2.7377
  0
LINE
  8
0
 10
68.9026
 20
2.7377
 11
68.7785
 21
2.71805
  0
LINE
  8
0
 10
68.7785
 20
2.71805
 11
68.6534
 21
2.70622
  0
LINE
  8
0
 10
68.6534
 20
2.70622
 11
68.5279
 21
2.70227
  0
LINE
  8
0
 10
68.5279
 20
2.70227
 11
68.4023
 21
2.70622
  0
ENDSEC
  0
SECTION
  2
OBJECTS
  0
DICTIONARY
  0
ENDSEC
  0
EOF
