  0
SECTION
  2
BLOCKS
  0
ENDSEC
  0
SECTION
  2
ENTITIES
  0
LINE
  8
0
 10
0
 20
230.826
 11
-75
 21
0
  0
LINE
  8
0
 10
-75
 20
0
 11
75
 21
0
  0
LINE
  8
0
 10
75
 20
0
 11
0
 21
230.826
  0
LINE
  8
0
 10
-0.12558
 20
212.83
 11
-0.250656
 21
212.842
  0
LINE
  8
0
 10
-0.250656
 20
212.842
 11
-0.374756
 21
212.862
  0
LINE
  8
0
 10
-0.374756
 20
212.862
 11
-0.497375
 21
212.889
  0
LINE
  8
0
 10
-0.497375
 20
212.889
 11
-0.618027
 21
212.924
  0
LINE
  8
0
 10
-0.618027
 20
212.924
 11
-0.736237
 21
212.967
  0
LINE
  8
0
 10
-0.736237
 20
212.967
 11
-0.851547
 21
213.017
  0
LINE
  8
0
 10
-0.851547
 20
213.017
 11
-0.963501
 21
213.074
  0
LINE
  8
0
 10
-0.963501
 20
213.074
 11
-1.07164
 21
213.138
  0
LINE
  8
0
 10
-1.07164
 20
213.138
 11
-1.17557
 21
213.208
  0
LINE
  8
0
 10
-1.17557
 20
213.208
 11
-1.27484
 21
213.285
  0
LINE
  8
0
 10
-1.27484
 20
213.285
 11
-1.36908
 21
213.368
  0
LINE
  8
0
 10
-1.36908
 20
213.368
 11
-1.45793
 21
213.457
  0
LINE
  8
0
 10
-1.45793
 20
213.457
 11
-1.54102
 21
213.551
  0
LINE
  8
0
 10
-1.54102
 20
213.551
 11
-1.61803
 21
213.651
  0
LINE
  8
0
 10
-1.61803
 20
213.651
 11
-1.68864
 21
213.755
  0
LINE
  8
0
 10
-1.68864
 20
213.755
 11
-1.75261
 21
213.863
  0
LINE
  8
0
 10
-1.75261
 20
213.863
 11
-1.80965
 21
213.975
  0
LINE
  8
0
 10
-1.80965
 20
213.975
 11
-1.85954
 21
214.09
  0
LINE
  8
0
 10
-1.85954
 20
214.09
 11
-1.9021
 21
214.208
  0
LINE
  8
0
 10
-1.9021
 20
214.208
 11
-1.93716
 21
214.329
  0
LINE
  8
0
 10
-1.93716
 20
214.329
 11
-1.96457
 21
214.451
  0
LINE
  8
0
 10
-1.96457
 20
214.451
 11
-1.98422
 21
214.576
  0
LINE
  8
0
 10
-1.98422
 20
214.576
 11
-1.99605
 21
214.701
  0
LINE
  8
0
 10
-1.99605
 20
214.701
 11
-2
 21
214.826
  0
LINE
  8
0
 10
-2
 20
214.826
 11
-1.99605
 21
214.952
  0
LINE
  8
0
 10
-1.99605
 20
214.952
 11
-1.98422
 21
215.077
  0
LINE
  8
0
 10
-1.98422
 20
215.077
 11
-1.96457
 21
215.201
  0
LINE
  8
0
 10
-1.96457
 20
215.201
 11
-1.93716
 21
215.324
  0
LINE
  8
0
 10
-1.93716
 20
215.324
 11
-1.9021
 21
215.444
  0
LINE
  8
0
 10
-1.9021
 20
215.444
 11
-1.85954
 21
215.562
  0
LINE
  8
0
 10
-1.85954
 20
215.562
 11
-1.80965
 21
215.678
  0
LINE
  8
0
 10
-1.80965
 20
215.678
 11
-1.75261
 21
215.79
  0
LINE
  8
0
 10
-1.75261
 20
215.79
 11
-1.68864
 21
215.898
  0
LINE
  8
0
 10
-1.68864
 20
215.898
 11
-1.61803
 21
216.002
  0
LINE
  8
0
 10
-1.61803
 20
216.002
 11
-1.54102
 21
216.101
  0
LINE
  8
0
 10
-1.54102
 20
216.101
 11
-1.45793
 21
216.195
  0
LINE
  8
0
 10
-1.45793
 20
216.195
 11
-1.36908
 21
216.284
  0
LINE
  8
0
 10
-1.36908
 20
216.284
 11
-1.27484
 21
216.367
  0
LINE
  8
0
 10
-1.27484
 20
216.367
 11
-1.17557
 21
216.444
  0
LINE
  8
0
 10
-1.17557
 20
216.444
 11
-1.07164
 21
216.515
  0
LINE
  8
0
 10
-1.07164
 20
216.515
 11
-0.963501
 21
216.579
  0
LINE
  8
0
 10
-0.963501
 20
216.579
 11
-0.851547
 21
216.636
  0
LINE
  8
0
 10
-0.851547
 20
216.636
 11
-0.736237
 21
216.686
  0
LINE
  8
0
 10
-0.736237
 20
216.686
 11
-0.618027
 21
216.728
  0
LINE
  8
0
 10
-0.618027
 20
216.728
 11
-0.497375
 21
216.763
  0
LINE
  8
0
 10
-0.497375
 20
216.763
 11
-0.374756
 21
216.791
  0
LINE
  8
0
 10
-0.374756
 20
216.791
 11
-0.250656
 21
216.81
  0
LINE
  8
0
 10
-0.250656
 20
216.81
 11
-0.12558
 21
216.822
  0
LINE
  8
0
 10
-0.12558
 20
216.822
 11
0
 21
216.826
  0
LINE
  8
0
 10
0
 20
216.826
 11
0.12558
 21
216.822
  0
LINE
  8
0
 10
0.12558
 20
216.822
 11
0.250656
 21
216.81
  0
LINE
  8
0
 10
0.250656
 20
216.81
 11
0.374756
 21
216.791
  0
LINE
  8
0
 10
0.374756
 20
216.791
 11
0.497375
 21
216.763
  0
LINE
  8
0
 10
0.497375
 20
216.763
 11
0.618027
 21
216.728
  0
LINE
  8
0
 10
0.618027
 20
216.728
 11
0.736237
 21
216.686
  0
LINE
  8
0
 10
0.736237
 20
216.686
 11
0.851547
 21
216.636
  0
LINE
  8
0
 10
0.851547
 20
216.636
 11
0.963501
 21
216.579
  0
LINE
  8
0
 10
0.963501
 20
216.579
 11
1.07164
 21
216.515
  0
LINE
  8
0
 10
1.07164
 20
216.515
 11
1.17557
 21
216.444
  0
LINE
  8
0
 10
1.17557
 20
216.444
 11
1.27484
 21
216.367
  0
LINE
  8
0
 10
1.27484
 20
216.367
 11
1.36908
 21
216.284
  0
LINE
  8
0
 10
1.36908
 20
216.284
 11
1.45793
 21
216.195
  0
LINE
  8
0
 10
1.45793
 20
216.195
 11
1.54102
 21
216.101
  0
LINE
  8
0
 10
1.54102
 20
216.101
 11
1.61803
 21
216.002
  0
LINE
  8
0
 10
1.61803
 20
216.002
 11
1.68864
 21
215.898
  0
LINE
  8
0
 10
1.68864
 20
215.898
 11
1.75261
 21
215.79
  0
LINE
  8
0
 10
1.75261
 20
215.79
 11
1.80965
 21
215.678
  0
LINE
  8
0
 10
1.80965
 20
215.678
 11
1.85954
 21
215.562
  0
LINE
  8
0
 10
1.85954
 20
215.562
 11
1.9021
 21
215.444
  0
LINE
  8
0
 10
1.9021
 20
215.444
 11
1.93716
 21
215.324
  0
LINE
  8
0
 10
1.93716
 20
215.324
 11
1.96457
 21
215.201
  0
LINE
  8
0
 10
1.96457
 20
215.201
 11
1.98422
 21
215.077
  0
LINE
  8
0
 10
1.98422
 20
215.077
 11
1.99605
 21
214.952
  0
LINE
  8
0
 10
1.99605
 20
214.952
 11
2
 21
214.826
  0
LINE
  8
0
 10
2
 20
214.826
 11
1.99605
 21
214.701
  0
LINE
  8
0
 10
1.99605
 20
214.701
 11
1.98422
 21
214.576
  0
LINE
  8
0
 10
1.98422
 20
214.576
 11
1.96457
 21
214.451
  0
LINE
  8
0
 10
1.96457
 20
214.451
 11
1.93716
 21
214.329
  0
LINE
  8
0
 10
1.93716
 20
214.329
 11
1.9021
 21
214.208
  0
LINE
  8
0
 10
1.9021
 20
214.208
 11
1.85954
 21
214.09
  0
LINE
  8
0
 10
1.85954
 20
214.09
 11
1.80965
 21
213.975
  0
LINE
  8
0
 10
1.80965
 20
213.975
 11
1.75261
 21
213.863
  0
LINE
  8
0
 10
1.75261
 20
213.863
 11
1.68864
 21
213.755
  0
LINE
  8
0
 10
1.68864
 20
213.755
 11
1.61803
 21
213.651
  0
LINE
  8
0
 10
1.61803
 20
213.651
 11
1.54102
 21
213.551
  0
LINE
  8
0
 10
1.54102
 20
213.551
 11
1.45793
 21
213.457
  0
LINE
  8
0
 10
1.45793
 20
213.457
 11
1.36908
 21
213.368
  0
LINE
  8
0
 10
1.36908
 20
213.368
 11
1.27484
 21
213.285
  0
LINE
  8
0
 10
1.27484
 20
213.285
 11
1.17557
 21
213.208
  0
LINE
  8
0
 10
1.17557
 20
213.208
 11
1.07164
 21
213.138
  0
LINE
  8
0
 10
1.07164
 20
213.138
 11
0.963501
 21
213.074
  0
LINE
  8
0
 10
0.963501
 20
213.074
 11
0.851547
 21
213.017
  0
LINE
  8
0
 10
0.851547
 20
213.017
 11
0.736237
 21
212.967
  0
LINE
  8
0
 10
0.736237
 20
212.967
 11
0.618027
 21
212.924
  0
LINE
  8
0
 10
0.618027
 20
212.924
 11
0.497375
 21
212.889
  0
LINE
  8
0
 10
0.497375
 20
212.889
 11
0.374756
 21
212.862
  0
LINE
  8
0
 10
0.374756
 20
212.862
 11
0.250656
 21
212.842
  0
LINE
  8
0
 10
0.250656
 20
212.842
 11
0.12558
 21
212.83
  0
LINE
  8
0
 10
0.12558
 20
212.83
 11
0
 21
212.826
  0
LINE
  8
0
 10
0
 20
212.826
 11
-0.12558
 21
212.83
  0
LINE
  8
0
 10
-0.900055
 20
189.223
 11
-0.900055
 21
187.385
  0
LINE
  8
0
 10
-0.900055
 20
187.385
 11
-1.6353
 21
186.961
  0
LINE
  8
0
 10
-1.6353
 20
186.961
 11
-0.900055
 21
189.223
  0
LINE
  8
0
 10
0.900055
 20
187.385
 11
0.900055
 21
189.223
  0
LINE
  8
0
 10
0.900055
 20
189.223
 11
1.6353
 21
186.961
  0
LINE
  8
0
 10
1.6353
 20
186.961
 11
0.900055
 21
187.385
  0
LINE
  8
0
 10
-3.14056
 20
174.105
 11
-4.85017
 21
177.066
  0
LINE
  8
0
 10
-4.85017
 20
177.066
 11
-2.46669
 21
184.402
  0
LINE
  8
0
 10
-2.46669
 20
184.402
 11
0
 21
185.826
  0
LINE
  8
0
 10
0
 20
185.826
 11
2.46669
 21
184.402
  0
LINE
  8
0
 10
2.46669
 20
184.402
 11
4.85017
 21
177.066
  0
LINE
  8
0
 10
4.85017
 20
177.066
 11
3.14056
 21
174.105
  0
LINE
  8
0
 10
3.14056
 20
174.105
 11
-3.14056
 21
174.105
  0
LINE
  8
0
 10
-5.59865
 20
174.763
 11
-4.6994
 21
173.205
  0
LINE
  8
0
 10
-4.6994
 20
173.205
 11
-7.91354
 21
167.638
  0
LINE
  8
0
 10
-7.91354
 20
167.638
 11
-5.59865
 21
174.763
  0
LINE
  8
0
 10
4.6994
 20
173.205
 11
5.59865
 21
174.763
  0
LINE
  8
0
 10
5.59865
 20
174.763
 11
7.91354
 21
167.638
  0
LINE
  8
0
 10
7.91354
 20
167.638
 11
4.6994
 21
173.205
  0
LINE
  8
0
 10
-7.43073
 20
164.874
 11
-3.14056
 21
172.305
  0
LINE
  8
0
 10
-3.14056
 20
172.305
 11
3.14056
 21
172.305
  0
LINE
  8
0
 10
3.14056
 20
172.305
 11
7.43073
 21
164.874
  0
LINE
  8
0
 10
7.43073
 20
164.874
 11
0
 21
160.584
  0
LINE
  8
0
 10
0
 20
160.584
 11
-7.43073
 21
164.874
  0
LINE
  8
0
 10
-12.0525
 20
154.9
 11
-10.5887
 21
159.405
  0
LINE
  8
0
 10
-10.5887
 20
159.405
 11
-8.33093
 21
163.315
  0
LINE
  8
0
 10
-8.33093
 20
163.315
 11
-0.900055
 21
159.025
  0
LINE
  8
0
 10
-0.900055
 20
159.025
 11
-0.900055
 21
152.744
  0
LINE
  8
0
 10
-0.900055
 20
152.744
 11
-8.33093
 21
148.454
  0
LINE
  8
0
 10
-8.33093
 20
148.454
 11
-12.0525
 21
154.9
  0
LINE
  8
0
 10
0.900055
 20
152.744
 11
0.900055
 21
159.025
  0
LINE
  8
0
 10
0.900055
 20
159.025
 11
8.33093
 21
163.315
  0
LINE
  8
0
 10
8.33093
 20
163.315
 11
10.5887
 21
159.405
  0
LINE
  8
0
 10
10.5887
 20
159.405
 11
12.0525
 21
154.9
  0
LINE
  8
0
 10
12.0525
 20
154.9
 11
8.33093
 21
148.454
  0
LINE
  8
0
 10
8.33093
 20
148.454
 11
0.900055
 21
152.744
  0
LINE
  8
0
 10
-12.8009
 20
152.596
 11
-9.88977
 21
147.554
  0
LINE
  8
0
 10
-9.88977
 20
147.554
 11
-15.4898
 21
144.321
  0
LINE
  8
0
 10
-15.4898
 20
144.321
 11
-12.8009
 21
152.596
  0
LINE
  8
0
 10
9.88977
 20
147.554
 11
12.8009
 21
152.596
  0
LINE
  8
0
 10
12.8009
 20
152.596
 11
15.4898
 21
144.321
  0
LINE
  8
0
 10
15.4898
 20
144.321
 11
9.88977
 21
147.554
  0
LINE
  8
0
 10
-3.14056
 20
139.464
 11
-7.43073
 21
146.895
  0
LINE
  8
0
 10
-7.43073
 20
146.895
 11
0
 21
151.185
  0
LINE
  8
0
 10
0
 20
151.185
 11
7.43073
 21
146.895
  0
LINE
  8
0
 10
7.43073
 20
146.895
 11
3.14056
 21
139.464
  0
LINE
  8
0
 10
3.14056
 20
139.464
 11
-3.14056
 21
139.464
  0
LINE
  8
0
 10
4.6994
 20
138.564
 11
8.98956
 21
145.995
  0
LINE
  8
0
 10
8.98956
 20
145.995
 11
16.3212
 21
141.762
  0
LINE
  8
0
 10
16.3212
 20
141.762
 11
16.4204
 21
141.457
  0
LINE
  8
0
 10
16.4204
 20
141.457
 11
16.4204
 21
135.423
  0
LINE
  8
0
 10
16.4204
 20
135.423
 11
8.98956
 21
131.133
  0
LINE
  8
0
 10
8.98956
 20
131.133
 11
4.6994
 21
138.564
  0
LINE
  8
0
 10
-16.4204
 20
135.423
 11
-16.4204
 21
141.457
  0
LINE
  8
0
 10
-16.4204
 20
141.457
 11
-16.3212
 21
141.762
  0
LINE
  8
0
 10
-16.3212
 20
141.762
 11
-8.98956
 21
145.995
  0
LINE
  8
0
 10
-8.98956
 20
145.995
 11
-4.6994
 21
138.564
  0
LINE
  8
0
 10
-4.6994
 20
138.564
 11
-8.98956
 21
131.133
  0
LINE
  8
0
 10
-8.98956
 20
131.133
 11
-16.4204
 21
135.423
  0
LINE
  8
0
 10
-7.43073
 20
130.233
 11
-3.14056
 21
137.664
  0
LINE
  8
0
 10
-3.14056
 20
137.664
 11
3.14056
 21
137.664
  0
LINE
  8
0
 10
3.14056
 20
137.664
 11
7.43073
 21
130.233
  0
LINE
  8
0
 10
7.43073
 20
130.233
 11
0
 21
125.943
  0
LINE
  8
0
 10
0
 20
125.943
 11
-7.43073
 21
130.233
  0
LINE
  8
0
 10
18.2206
 20
135.423
 11
18.2206
 21
135.916
  0
LINE
  8
0
 10
18.2206
 20
135.916
 11
18.4177
 21
135.31
  0
LINE
  8
0
 10
18.4177
 20
135.31
 11
18.2206
 21
135.423
  0
LINE
  8
0
 10
-18.2206
 20
135.916
 11
-18.2206
 21
135.423
  0
LINE
  8
0
 10
-18.2206
 20
135.423
 11
-18.4177
 21
135.31
  0
LINE
  8
0
 10
-18.4177
 20
135.31
 11
-18.2206
 21
135.916
  0
LINE
  8
0
 10
14.1799
 20
122.144
 11
9.88977
 21
129.574
  0
LINE
  8
0
 10
9.88977
 20
129.574
 11
17.3205
 21
133.864
  0
LINE
  8
0
 10
17.3205
 20
133.864
 11
19.2491
 21
132.751
  0
LINE
  8
0
 10
19.2491
 20
132.751
 11
21.8909
 21
124.62
  0
LINE
  8
0
 10
21.8909
 20
124.62
 11
20.4611
 21
122.144
  0
LINE
  8
0
 10
20.4611
 20
122.144
 11
14.1799
 21
122.144
  0
LINE
  8
0
 10
-20.4611
 20
122.144
 11
-21.8909
 21
124.62
  0
LINE
  8
0
 10
-21.8909
 20
124.62
 11
-19.2491
 21
132.751
  0
LINE
  8
0
 10
-19.2491
 20
132.751
 11
-17.3205
 21
133.864
  0
LINE
  8
0
 10
-17.3205
 20
133.864
 11
-9.88977
 21
129.574
  0
LINE
  8
0
 10
-9.88977
 20
129.574
 11
-14.1799
 21
122.144
  0
LINE
  8
0
 10
-14.1799
 20
122.144
 11
-20.4611
 21
122.144
  0
LINE
  8
0
 10
-12.6211
 20
121.244
 11
-8.33093
 21
128.674
  0
LINE
  8
0
 10
-8.33093
 20
128.674
 11
-0.900055
 21
124.384
  0
LINE
  8
0
 10
-0.900055
 20
124.384
 11
-0.900055
 21
118.103
  0
LINE
  8
0
 10
-0.900055
 20
118.103
 11
-8.33093
 21
113.813
  0
LINE
  8
0
 10
-8.33093
 20
113.813
 11
-12.6211
 21
121.244
  0
LINE
  8
0
 10
0.900055
 20
118.103
 11
0.900055
 21
124.384
  0
LINE
  8
0
 10
0.900055
 20
124.384
 11
8.33093
 21
128.674
  0
LINE
  8
0
 10
8.33093
 20
128.674
 11
12.6211
 21
121.244
  0
LINE
  8
0
 10
12.6211
 20
121.244
 11
8.33093
 21
113.813
  0
LINE
  8
0
 10
8.33093
 20
113.813
 11
0.900055
 21
118.103
  0
LINE
  8
0
 10
-22.6394
 20
122.317
 11
-22.0199
 21
121.244
  0
LINE
  8
0
 10
-22.0199
 20
121.244
 11
-24.2342
 21
117.408
  0
LINE
  8
0
 10
-24.2342
 20
117.408
 11
-22.6394
 21
122.317
  0
LINE
  8
0
 10
22.0199
 20
121.244
 11
22.6394
 21
122.317
  0
LINE
  8
0
 10
22.6394
 20
122.317
 11
24.2342
 21
117.408
  0
LINE
  8
0
 10
24.2342
 20
117.408
 11
22.0199
 21
121.244
  0
LINE
  8
0
 10
-24.7512
 20
112.913
 11
-20.4611
 21
120.344
  0
LINE
  8
0
 10
-20.4611
 20
120.344
 11
-14.1799
 21
120.344
  0
LINE
  8
0
 10
-14.1799
 20
120.344
 11
-9.88977
 21
112.913
  0
LINE
  8
0
 10
-9.88977
 20
112.913
 11
-17.3205
 21
108.623
  0
LINE
  8
0
 10
-17.3205
 20
108.623
 11
-24.7512
 21
112.913
  0
LINE
  8
0
 10
9.88977
 20
112.913
 11
14.1799
 21
120.344
  0
LINE
  8
0
 10
14.1799
 20
120.344
 11
20.4611
 21
120.344
  0
LINE
  8
0
 10
20.4611
 20
120.344
 11
24.7512
 21
112.913
  0
LINE
  8
0
 10
24.7512
 20
112.913
 11
17.3205
 21
108.623
  0
LINE
  8
0
 10
17.3205
 20
108.623
 11
9.88977
 21
112.913
  0
LINE
  8
0
 10
-3.14056
 20
104.823
 11
-7.43073
 21
112.254
  0
LINE
  8
0
 10
-7.43073
 20
112.254
 11
0
 21
116.544
  0
LINE
  8
0
 10
0
 20
116.544
 11
7.43073
 21
112.254
  0
LINE
  8
0
 10
7.43073
 20
112.254
 11
3.14056
 21
104.823
  0
LINE
  8
0
 10
3.14056
 20
104.823
 11
-3.14056
 21
104.823
  0
LINE
  8
0
 10
-29.0932
 20
102.454
 11
-26.9093
 21
109.175
  0
LINE
  8
0
 10
-26.9093
 20
109.175
 11
-25.6514
 21
111.354
  0
LINE
  8
0
 10
-25.6514
 20
111.354
 11
-18.2206
 21
107.064
  0
LINE
  8
0
 10
-18.2206
 20
107.064
 11
-18.2206
 21
100.782
  0
LINE
  8
0
 10
-18.2206
 20
100.782
 11
-25.6514
 21
96.4923
  0
LINE
  8
0
 10
-25.6514
 20
96.4923
 11
-29.0932
 21
102.454
  0
LINE
  8
0
 10
-16.4204
 20
100.782
 11
-16.4204
 21
107.064
  0
LINE
  8
0
 10
-16.4204
 20
107.064
 11
-8.98956
 21
111.354
  0
LINE
  8
0
 10
-8.98956
 20
111.354
 11
-4.6994
 21
103.923
  0
LINE
  8
0
 10
-4.6994
 20
103.923
 11
-8.98956
 21
96.4923
  0
LINE
  8
0
 10
-8.98956
 20
96.4923
 11
-16.4204
 21
100.782
  0
LINE
  8
0
 10
18.2206
 20
100.782
 11
18.2206
 21
107.064
  0
LINE
  8
0
 10
18.2206
 20
107.064
 11
25.6514
 21
111.354
  0
LINE
  8
0
 10
25.6514
 20
111.354
 11
26.9093
 21
109.175
  0
LINE
  8
0
 10
26.9093
 20
109.175
 11
29.0932
 21
102.454
  0
LINE
  8
0
 10
29.0932
 20
102.454
 11
25.6514
 21
96.4923
  0
LINE
  8
0
 10
25.6514
 20
96.4923
 11
18.2206
 21
100.782
  0
LINE
  8
0
 10
4.6994
 20
103.923
 11
8.98956
 21
111.354
  0
LINE
  8
0
 10
8.98956
 20
111.354
 11
16.4204
 21
107.064
  0
LINE
  8
0
 10
16.4204
 20
107.064
 11
16.4204
 21
100.782
  0
LINE
  8
0
 10
16.4204
 20
100.782
 11
8.98956
 21
96.4923
  0
LINE
  8
0
 10
8.98956
 20
96.4923
 11
4.6994
 21
103.923
  0
LINE
  8
0
 10
-7.43073
 20
95.5923
 11
-3.14056
 21
103.023
  0
LINE
  8
0
 10
-3.14056
 20
103.023
 11
3.14056
 21
103.023
  0
LINE
  8
0
 10
3.14056
 20
103.023
 11
7.43073
 21
95.5923
  0
LINE
  8
0
 10
7.43073
 20
95.5923
 11
0
 21
91.3022
  0
LINE
  8
0
 10
0
 20
91.3022
 11
-7.43073
 21
95.5923
  0
LINE
  8
0
 10
-29.8417
 20
100.15
 11
-27.2103
 21
95.5923
  0
LINE
  8
0
 10
-27.2103
 20
95.5923
 11
-32.2722
 21
92.6698
  0
LINE
  8
0
 10
-32.2722
 20
92.6698
 11
-29.8417
 21
100.15
  0
LINE
  8
0
 10
27.2103
 20
95.5923
 11
29.8417
 21
100.15
  0
LINE
  8
0
 10
29.8417
 20
100.15
 11
32.2722
 21
92.6698
  0
LINE
  8
0
 10
32.2722
 20
92.6698
 11
27.2103
 21
95.5923
  0
LINE
  8
0
 10
-20.4611
 20
87.5025
 11
-24.7512
 21
94.9332
  0
LINE
  8
0
 10
-24.7512
 20
94.9332
 11
-17.3205
 21
99.2234
  0
LINE
  8
0
 10
-17.3205
 20
99.2234
 11
-9.88977
 21
94.9332
  0
LINE
  8
0
 10
-9.88977
 20
94.9332
 11
-14.1799
 21
87.5025
  0
LINE
  8
0
 10
-14.1799
 20
87.5025
 11
-20.4611
 21
87.5025
  0
LINE
  8
0
 10
14.1799
 20
87.5025
 11
9.88977
 21
94.9332
  0
LINE
  8
0
 10
9.88977
 20
94.9332
 11
17.3205
 21
99.2234
  0
LINE
  8
0
 10
17.3205
 20
99.2234
 11
24.7512
 21
94.9332
  0
LINE
  8
0
 10
24.7512
 20
94.9332
 11
20.4611
 21
87.5025
  0
LINE
  8
0
 10
20.4611
 20
87.5025
 11
14.1799
 21
87.5025
  0
LINE
  8
0
 10
22.0199
 20
86.6025
 11
26.3101
 21
94.0333
  0
LINE
  8
0
 10
26.3101
 20
94.0333
 11
33.1036
 21
90.1111
  0
LINE
  8
0
 10
33.1036
 20
90.1111
 11
33.7409
 21
88.1495
  0
LINE
  8
0
 10
33.7409
 20
88.1495
 11
33.7409
 21
83.462
  0
LINE
  8
0
 10
33.7409
 20
83.462
 11
26.3101
 21
79.1718
  0
LINE
  8
0
 10
26.3101
 20
79.1718
 11
22.0199
 21
86.6025
  0
LINE
  8
0
 10
0.900055
 20
83.462
 11
0.900055
 21
89.7431
  0
LINE
  8
0
 10
0.900055
 20
89.7431
 11
8.33093
 21
94.0333
  0
LINE
  8
0
 10
8.33093
 20
94.0333
 11
12.6211
 21
86.6025
  0
LINE
  8
0
 10
12.6211
 20
86.6025
 11
8.33093
 21
79.1718
  0
LINE
  8
0
 10
8.33093
 20
79.1718
 11
0.900055
 21
83.462
  0
LINE
  8
0
 10
-12.6211
 20
86.6025
 11
-8.33093
 21
94.0333
  0
LINE
  8
0
 10
-8.33093
 20
94.0333
 11
-0.900055
 21
89.7431
  0
LINE
  8
0
 10
-0.900055
 20
89.7431
 11
-0.900055
 21
83.462
  0
LINE
  8
0
 10
-0.900055
 20
83.462
 11
-8.33093
 21
79.1718
  0
LINE
  8
0
 10
-8.33093
 20
79.1718
 11
-12.6211
 21
86.6025
  0
LINE
  8
0
 10
-33.7409
 20
83.462
 11
-33.7409
 21
88.1495
  0
LINE
  8
0
 10
-33.7409
 20
88.1495
 11
-33.1036
 21
90.1111
  0
LINE
  8
0
 10
-33.1036
 20
90.1111
 11
-26.3101
 21
94.0333
  0
LINE
  8
0
 10
-26.3101
 20
94.0333
 11
-22.0199
 21
86.6025
  0
LINE
  8
0
 10
-22.0199
 20
86.6025
 11
-26.3101
 21
79.1718
  0
LINE
  8
0
 10
-26.3101
 20
79.1718
 11
-33.7409
 21
83.462
  0
LINE
  8
0
 10
9.88977
 20
78.2719
 11
14.1799
 21
85.7026
  0
LINE
  8
0
 10
14.1799
 20
85.7026
 11
20.4611
 21
85.7026
  0
LINE
  8
0
 10
20.4611
 20
85.7026
 11
24.7512
 21
78.2719
  0
LINE
  8
0
 10
24.7512
 20
78.2719
 11
17.3205
 21
73.9817
  0
LINE
  8
0
 10
17.3205
 20
73.9817
 11
9.88977
 21
78.2719
  0
LINE
  8
0
 10
-24.7512
 20
78.2719
 11
-20.4611
 21
85.7026
  0
LINE
  8
0
 10
-20.4611
 20
85.7026
 11
-14.1799
 21
85.7026
  0
LINE
  8
0
 10
-14.1799
 20
85.7026
 11
-9.88977
 21
78.2719
  0
LINE
  8
0
 10
-9.88977
 20
78.2719
 11
-17.3205
 21
73.9817
  0
LINE
  8
0
 10
-17.3205
 20
73.9817
 11
-24.7512
 21
78.2719
  0
LINE
  8
0
 10
-3.14056
 20
70.182
 11
-7.43073
 21
77.6127
  0
LINE
  8
0
 10
-7.43073
 20
77.6127
 11
0
 21
81.9029
  0
LINE
  8
0
 10
0
 20
81.9029
 11
7.43073
 21
77.6127
  0
LINE
  8
0
 10
7.43073
 20
77.6127
 11
3.14056
 21
70.182
  0
LINE
  8
0
 10
3.14056
 20
70.182
 11
-3.14056
 21
70.182
  0
LINE
  8
0
 10
-37.7816
 20
70.182
 11
-38.9317
 21
72.174
  0
LINE
  8
0
 10
-38.9317
 20
72.174
 11
-36.0314
 21
81.1001
  0
LINE
  8
0
 10
-36.0314
 20
81.1001
 11
-34.641
 21
81.9029
  0
LINE
  8
0
 10
-34.641
 20
81.9029
 11
-27.2103
 21
77.6127
  0
LINE
  8
0
 10
-27.2103
 20
77.6127
 11
-31.5004
 21
70.182
  0
LINE
  8
0
 10
-31.5004
 20
70.182
 11
-37.7816
 21
70.182
  0
LINE
  8
0
 10
31.5004
 20
70.182
 11
27.2103
 21
77.6127
  0
LINE
  8
0
 10
27.2103
 20
77.6127
 11
34.641
 21
81.9029
  0
LINE
  8
0
 10
34.641
 20
81.9029
 11
36.0314
 21
81.1001
  0
LINE
  8
0
 10
36.0314
 20
81.1001
 11
38.9317
 21
72.174
  0
LINE
  8
0
 10
38.9317
 20
72.174
 11
37.7816
 21
70.182
  0
LINE
  8
0
 10
37.7816
 20
70.182
 11
31.5004
 21
70.182
  0
LINE
  8
0
 10
-16.4204
 20
66.1415
 11
-16.4204
 21
72.4226
  0
LINE
  8
0
 10
-16.4204
 20
72.4226
 11
-8.98956
 21
76.7128
  0
LINE
  8
0
 10
-8.98956
 20
76.7128
 11
-4.6994
 21
69.282
  0
LINE
  8
0
 10
-4.6994
 20
69.282
 11
-8.98956
 21
61.8513
  0
LINE
  8
0
 10
-8.98956
 20
61.8513
 11
-16.4204
 21
66.1415
  0
LINE
  8
0
 10
-29.9416
 20
69.282
 11
-25.6514
 21
76.7128
  0
LINE
  8
0
 10
-25.6514
 20
76.7128
 11
-18.2206
 21
72.4226
  0
LINE
  8
0
 10
-18.2206
 20
72.4226
 11
-18.2206
 21
66.1415
  0
LINE
  8
0
 10
-18.2206
 20
66.1415
 11
-25.6514
 21
61.8513
  0
LINE
  8
0
 10
-25.6514
 20
61.8513
 11
-29.9416
 21
69.282
  0
LINE
  8
0
 10
4.6994
 20
69.282
 11
8.98956
 21
76.7128
  0
LINE
  8
0
 10
8.98956
 20
76.7128
 11
16.4204
 21
72.4226
  0
LINE
  8
0
 10
16.4204
 20
72.4226
 11
16.4204
 21
66.1415
  0
LINE
  8
0
 10
16.4204
 20
66.1415
 11
8.98956
 21
61.8513
  0
LINE
  8
0
 10
8.98956
 20
61.8513
 11
4.6994
 21
69.282
  0
LINE
  8
0
 10
18.2206
 20
66.1415
 11
18.2206
 21
72.4226
  0
LINE
  8
0
 10
18.2206
 20
72.4226
 11
25.6514
 21
76.7128
  0
LINE
  8
0
 10
25.6514
 20
76.7128
 11
29.9416
 21
69.282
  0
LINE
  8
0
 10
29.9416
 20
69.282
 11
25.6514
 21
61.8513
  0
LINE
  8
0
 10
25.6514
 20
61.8513
 11
18.2206
 21
66.1415
  0
LINE
  8
0
 10
-39.6802
 20
69.8705
 11
-39.3404
 21
69.282
  0
LINE
  8
0
 10
-39.3404
 20
69.282
 11
-40.5548
 21
67.1787
  0
LINE
  8
0
 10
-40.5548
 20
67.1787
 11
-39.6802
 21
69.8705
  0
LINE
  8
0
 10
39.3404
 20
69.282
 11
39.6802
 21
69.8705
  0
LINE
  8
0
 10
39.6802
 20
69.8705
 11
40.5548
 21
67.1787
  0
LINE
  8
0
 10
40.5548
 20
67.1787
 11
39.3404
 21
69.282
  0
LINE
  8
0
 10
-7.43073
 20
60.9513
 11
-3.14056
 21
68.3821
  0
LINE
  8
0
 10
-3.14056
 20
68.3821
 11
3.14056
 21
68.3821
  0
LINE
  8
0
 10
3.14056
 20
68.3821
 11
7.43073
 21
60.9513
  0
LINE
  8
0
 10
7.43073
 20
60.9513
 11
0
 21
56.6612
  0
LINE
  8
0
 10
0
 20
56.6612
 11
-7.43073
 21
60.9513
  0
LINE
  8
0
 10
-42.0717
 20
60.9513
 11
-37.7816
 21
68.3821
  0
LINE
  8
0
 10
-37.7816
 20
68.3821
 11
-31.5004
 21
68.3821
  0
LINE
  8
0
 10
-31.5004
 20
68.3821
 11
-27.2103
 21
60.9513
  0
LINE
  8
0
 10
-27.2103
 20
60.9513
 11
-34.641
 21
56.6612
  0
LINE
  8
0
 10
-34.641
 20
56.6612
 11
-42.0717
 21
60.9513
  0
LINE
  8
0
 10
27.2103
 20
60.9513
 11
31.5004
 21
68.3821
  0
LINE
  8
0
 10
31.5004
 20
68.3821
 11
37.7816
 21
68.3821
  0
LINE
  8
0
 10
37.7816
 20
68.3821
 11
42.0717
 21
60.9513
  0
LINE
  8
0
 10
42.0717
 20
60.9513
 11
34.641
 21
56.6612
  0
LINE
  8
0
 10
34.641
 20
56.6612
 11
27.2103
 21
60.9513
  0
LINE
  8
0
 10
14.1799
 20
52.8615
 11
9.88977
 21
60.2922
  0
LINE
  8
0
 10
9.88977
 20
60.2922
 11
17.3205
 21
64.5824
  0
LINE
  8
0
 10
17.3205
 20
64.5824
 11
24.7512
 21
60.2922
  0
LINE
  8
0
 10
24.7512
 20
60.2922
 11
20.4611
 21
52.8615
  0
LINE
  8
0
 10
20.4611
 20
52.8615
 11
14.1799
 21
52.8615
  0
LINE
  8
0
 10
-20.4611
 20
52.8615
 11
-24.7512
 21
60.2922
  0
LINE
  8
0
 10
-24.7512
 20
60.2922
 11
-17.3205
 21
64.5824
  0
LINE
  8
0
 10
-17.3205
 20
64.5824
 11
-9.88977
 21
60.2922
  0
LINE
  8
0
 10
-9.88977
 20
60.2922
 11
-14.1799
 21
52.8615
  0
LINE
  8
0
 10
-14.1799
 20
52.8615
 11
-20.4611
 21
52.8615
  0
LINE
  8
0
 10
0.900055
 20
48.821
 11
0.900055
 21
55.1021
  0
LINE
  8
0
 10
0.900055
 20
55.1021
 11
8.33093
 21
59.3922
  0
LINE
  8
0
 10
8.33093
 20
59.3922
 11
12.6211
 21
51.9615
  0
LINE
  8
0
 10
12.6211
 20
51.9615
 11
8.33093
 21
44.5308
  0
LINE
  8
0
 10
8.33093
 20
44.5308
 11
0.900055
 21
48.821
  0
LINE
  8
0
 10
35.5411
 20
48.821
 11
35.5411
 21
55.1021
  0
LINE
  8
0
 10
35.5411
 20
55.1021
 11
42.972
 21
59.3922
  0
LINE
  8
0
 10
42.972
 20
59.3922
 11
43.2299
 21
58.9454
  0
LINE
  8
0
 10
43.2299
 20
58.9454
 11
46.134
 21
50.0076
  0
LINE
  8
0
 10
46.134
 20
50.0076
 11
42.972
 21
44.5308
  0
LINE
  8
0
 10
42.972
 20
44.5308
 11
35.5411
 21
48.821
  0
LINE
  8
0
 10
-33.7409
 20
48.821
 11
-33.7409
 21
55.1021
  0
LINE
  8
0
 10
-33.7409
 20
55.1021
 11
-26.3101
 21
59.3922
  0
LINE
  8
0
 10
-26.3101
 20
59.3922
 11
-22.0199
 21
51.9615
  0
LINE
  8
0
 10
-22.0199
 20
51.9615
 11
-26.3101
 21
44.5308
  0
LINE
  8
0
 10
-26.3101
 20
44.5308
 11
-33.7409
 21
48.821
  0
LINE
  8
0
 10
-46.134
 20
50.0076
 11
-43.2299
 21
58.9454
  0
LINE
  8
0
 10
-43.2299
 20
58.9454
 11
-42.972
 21
59.3922
  0
LINE
  8
0
 10
-42.972
 20
59.3922
 11
-35.5411
 21
55.1021
  0
LINE
  8
0
 10
-35.5411
 20
55.1021
 11
-35.5411
 21
48.821
  0
LINE
  8
0
 10
-35.5411
 20
48.821
 11
-42.972
 21
44.5308
  0
LINE
  8
0
 10
-42.972
 20
44.5308
 11
-46.134
 21
50.0076
  0
LINE
  8
0
 10
22.0199
 20
51.9615
 11
26.3101
 21
59.3922
  0
LINE
  8
0
 10
26.3101
 20
59.3922
 11
33.7409
 21
55.1021
  0
LINE
  8
0
 10
33.7409
 20
55.1021
 11
33.7409
 21
48.821
  0
LINE
  8
0
 10
33.7409
 20
48.821
 11
26.3101
 21
44.5308
  0
LINE
  8
0
 10
26.3101
 20
44.5308
 11
22.0199
 21
51.9615
  0
LINE
  8
0
 10
-12.6211
 20
51.9615
 11
-8.33093
 21
59.3922
  0
LINE
  8
0
 10
-8.33093
 20
59.3922
 11
-0.900055
 21
55.1021
  0
LINE
  8
0
 10
-0.900055
 20
55.1021
 11
-0.900055
 21
48.821
  0
LINE
  8
0
 10
-0.900055
 20
48.821
 11
-8.33093
 21
44.5308
  0
LINE
  8
0
 10
-8.33093
 20
44.5308
 11
-12.6211
 21
51.9615
  0
LINE
  8
0
 10
9.88977
 20
43.6308
 11
14.1799
 21
51.0616
  0
LINE
  8
0
 10
14.1799
 20
51.0616
 11
20.4611
 21
51.0616
  0
LINE
  8
0
 10
20.4611
 20
51.0616
 11
24.7512
 21
43.6308
  0
LINE
  8
0
 10
24.7512
 20
43.6308
 11
17.3205
 21
39.3407
  0
LINE
  8
0
 10
17.3205
 20
39.3407
 11
9.88977
 21
43.6308
  0
LINE
  8
0
 10
-24.7512
 20
43.6308
 11
-20.4611
 21
51.0616
  0
LINE
  8
0
 10
-20.4611
 20
51.0616
 11
-14.1799
 21
51.0616
  0
LINE
  8
0
 10
-14.1799
 20
51.0616
 11
-9.88977
 21
43.6308
  0
LINE
  8
0
 10
-9.88977
 20
43.6308
 11
-17.3205
 21
39.3407
  0
LINE
  8
0
 10
-17.3205
 20
39.3407
 11
-24.7512
 21
43.6308
  0
LINE
  8
0
 10
-46.8825
 20
47.704
 11
-44.5308
 21
43.6308
  0
LINE
  8
0
 10
-44.5308
 20
43.6308
 11
-49.0546
 21
41.019
  0
LINE
  8
0
 10
-49.0546
 20
41.019
 11
-46.8825
 21
47.704
  0
LINE
  8
0
 10
44.5308
 20
43.6308
 11
46.8825
 21
47.704
  0
LINE
  8
0
 10
46.8825
 20
47.704
 11
49.0546
 21
41.019
  0
LINE
  8
0
 10
49.0546
 20
41.019
 11
44.5308
 21
43.6308
  0
LINE
  8
0
 10
-37.7816
 20
35.541
 11
-42.0717
 21
42.9717
  0
LINE
  8
0
 10
-42.0717
 20
42.9717
 11
-34.641
 21
47.2619
  0
LINE
  8
0
 10
-34.641
 20
47.2619
 11
-27.2103
 21
42.9717
  0
LINE
  8
0
 10
-27.2103
 20
42.9717
 11
-31.5004
 21
35.541
  0
LINE
  8
0
 10
-31.5004
 20
35.541
 11
-37.7816
 21
35.541
  0
LINE
  8
0
 10
31.5004
 20
35.541
 11
27.2103
 21
42.9717
  0
LINE
  8
0
 10
27.2103
 20
42.9717
 11
34.641
 21
47.2619
  0
LINE
  8
0
 10
34.641
 20
47.2619
 11
42.0717
 21
42.9717
  0
LINE
  8
0
 10
42.0717
 20
42.9717
 11
37.7816
 21
35.541
  0
LINE
  8
0
 10
37.7816
 20
35.541
 11
31.5004
 21
35.541
  0
LINE
  8
0
 10
-3.14056
 20
35.541
 11
-7.43073
 21
42.9717
  0
LINE
  8
0
 10
-7.43073
 20
42.9717
 11
0
 21
47.2619
  0
LINE
  8
0
 10
0
 20
47.2619
 11
7.43073
 21
42.9717
  0
LINE
  8
0
 10
7.43073
 20
42.9717
 11
3.14056
 21
35.541
  0
LINE
  8
0
 10
3.14056
 20
35.541
 11
-3.14056
 21
35.541
  0
LINE
  8
0
 10
-16.4204
 20
31.5004
 11
-16.4204
 21
37.7816
  0
LINE
  8
0
 10
-16.4204
 20
37.7816
 11
-8.98956
 21
42.0717
  0
LINE
  8
0
 10
-8.98956
 20
42.0717
 11
-4.6994
 21
34.641
  0
LINE
  8
0
 10
-4.6994
 20
34.641
 11
-8.98956
 21
27.2103
  0
LINE
  8
0
 10
-8.98956
 20
27.2103
 11
-16.4204
 21
31.5004
  0
LINE
  8
0
 10
4.6994
 20
34.641
 11
8.98956
 21
42.0717
  0
LINE
  8
0
 10
8.98956
 20
42.0717
 11
16.4204
 21
37.7816
  0
LINE
  8
0
 10
16.4204
 20
37.7816
 11
16.4204
 21
31.5004
  0
LINE
  8
0
 10
16.4204
 20
31.5004
 11
8.98956
 21
27.2103
  0
LINE
  8
0
 10
8.98956
 20
27.2103
 11
4.6994
 21
34.641
  0
LINE
  8
0
 10
18.2206
 20
31.5004
 11
18.2206
 21
37.7816
  0
LINE
  8
0
 10
18.2206
 20
37.7816
 11
25.6514
 21
42.0717
  0
LINE
  8
0
 10
25.6514
 20
42.0717
 11
29.9416
 21
34.641
  0
LINE
  8
0
 10
29.9416
 20
34.641
 11
25.6514
 21
27.2103
  0
LINE
  8
0
 10
25.6514
 20
27.2103
 11
18.2206
 21
31.5004
  0
LINE
  8
0
 10
39.3404
 20
34.641
 11
43.6306
 21
42.0717
  0
LINE
  8
0
 10
43.6306
 20
42.0717
 11
49.886
 21
38.4602
  0
LINE
  8
0
 10
49.886
 20
38.4602
 11
51.0614
 21
34.8425
  0
LINE
  8
0
 10
51.0614
 20
34.8425
 11
51.0614
 21
31.5004
  0
LINE
  8
0
 10
51.0614
 20
31.5004
 11
43.6306
 21
27.2103
  0
LINE
  8
0
 10
43.6306
 20
27.2103
 11
39.3404
 21
34.641
  0
LINE
  8
0
 10
-29.9416
 20
34.641
 11
-25.6514
 21
42.0717
  0
LINE
  8
0
 10
-25.6514
 20
42.0717
 11
-18.2206
 21
37.7816
  0
LINE
  8
0
 10
-18.2206
 20
37.7816
 11
-18.2206
 21
31.5004
  0
LINE
  8
0
 10
-18.2206
 20
31.5004
 11
-25.6514
 21
27.2103
  0
LINE
  8
0
 10
-25.6514
 20
27.2103
 11
-29.9416
 21
34.641
  0
LINE
  8
0
 10
-51.0614
 20
31.5004
 11
-51.0614
 21
34.8425
  0
LINE
  8
0
 10
-51.0614
 20
34.8425
 11
-49.886
 21
38.4602
  0
LINE
  8
0
 10
-49.886
 20
38.4602
 11
-43.6306
 21
42.0717
  0
LINE
  8
0
 10
-43.6306
 20
42.0717
 11
-39.3404
 21
34.641
  0
LINE
  8
0
 10
-39.3404
 20
34.641
 11
-43.6306
 21
27.2103
  0
LINE
  8
0
 10
-43.6306
 20
27.2103
 11
-51.0614
 21
31.5004
  0
LINE
  8
0
 10
-7.43073
 20
26.3103
 11
-3.14056
 21
33.741
  0
LINE
  8
0
 10
-3.14056
 20
33.741
 11
3.14056
 21
33.741
  0
LINE
  8
0
 10
3.14056
 20
33.741
 11
7.43073
 21
26.3103
  0
LINE
  8
0
 10
7.43073
 20
26.3103
 11
0
 21
22.0202
  0
LINE
  8
0
 10
0
 20
22.0202
 11
-7.43073
 21
26.3103
  0
LINE
  8
0
 10
27.2103
 20
26.3103
 11
31.5004
 21
33.741
  0
LINE
  8
0
 10
31.5004
 20
33.741
 11
37.7816
 21
33.741
  0
LINE
  8
0
 10
37.7816
 20
33.741
 11
42.0717
 21
26.3103
  0
LINE
  8
0
 10
42.0717
 20
26.3103
 11
34.641
 21
22.0202
  0
LINE
  8
0
 10
34.641
 20
22.0202
 11
27.2103
 21
26.3103
  0
LINE
  8
0
 10
-42.0717
 20
26.3103
 11
-37.7816
 21
33.741
  0
LINE
  8
0
 10
-37.7816
 20
33.741
 11
-31.5004
 21
33.741
  0
LINE
  8
0
 10
-31.5004
 20
33.741
 11
-27.2103
 21
26.3103
  0
LINE
  8
0
 10
-27.2103
 20
26.3103
 11
-34.641
 21
22.0202
  0
LINE
  8
0
 10
-34.641
 20
22.0202
 11
-42.0717
 21
26.3103
  0
LINE
  8
0
 10
14.1799
 20
18.2205
 11
9.88977
 21
25.6512
  0
LINE
  8
0
 10
9.88977
 20
25.6512
 11
17.3205
 21
29.9413
  0
LINE
  8
0
 10
17.3205
 20
29.9413
 11
24.7512
 21
25.6512
  0
LINE
  8
0
 10
24.7512
 20
25.6512
 11
20.4611
 21
18.2205
  0
LINE
  8
0
 10
20.4611
 20
18.2205
 11
14.1799
 21
18.2205
  0
LINE
  8
0
 10
-20.4611
 20
18.2205
 11
-24.7512
 21
25.6512
  0
LINE
  8
0
 10
-24.7512
 20
25.6512
 11
-17.3205
 21
29.9413
  0
LINE
  8
0
 10
-17.3205
 20
29.9413
 11
-9.88977
 21
25.6512
  0
LINE
  8
0
 10
-9.88977
 20
25.6512
 11
-14.1799
 21
18.2205
  0
LINE
  8
0
 10
-14.1799
 20
18.2205
 11
-20.4611
 21
18.2205
  0
LINE
  8
0
 10
48.821
 20
18.2205
 11
44.5308
 21
25.6512
  0
LINE
  8
0
 10
44.5308
 20
25.6512
 11
51.9615
 21
29.9413
  0
LINE
  8
0
 10
51.9615
 20
29.9413
 11
52.8138
 21
29.4493
  0
LINE
  8
0
 10
52.8138
 20
29.4493
 11
55.9724
 21
19.728
  0
LINE
  8
0
 10
55.9724
 20
19.728
 11
55.1021
 21
18.2205
  0
LINE
  8
0
 10
55.1021
 20
18.2205
 11
48.821
 21
18.2205
  0
LINE
  8
0
 10
-55.1021
 20
18.2205
 11
-55.9724
 21
19.728
  0
LINE
  8
0
 10
-55.9724
 20
19.728
 11
-52.8138
 21
29.4493
  0
LINE
  8
0
 10
-52.8138
 20
29.4493
 11
-51.9615
 21
29.9413
  0
LINE
  8
0
 10
-51.9615
 20
29.9413
 11
-44.5308
 21
25.6512
  0
LINE
  8
0
 10
-44.5308
 20
25.6512
 11
-48.821
 21
18.2205
  0
LINE
  8
0
 10
-48.821
 20
18.2205
 11
-55.1021
 21
18.2205
  0
LINE
  8
0
 10
4.67586
 20
12
 11
0.900055
 21
14.1799
  0
LINE
  8
0
 10
0.900055
 20
14.1799
 11
0.900055
 21
20.4611
  0
LINE
  8
0
 10
0.900055
 20
20.4611
 11
8.33093
 21
24.7512
  0
LINE
  8
0
 10
8.33093
 20
24.7512
 11
12.6211
 21
17.3205
  0
LINE
  8
0
 10
12.6211
 20
17.3205
 11
9.54929
 21
12
  0
LINE
  8
0
 10
9.54929
 20
12
 11
4.67586
 21
12
  0
LINE
  8
0
 10
25.0917
 20
12
 11
22.0199
 21
17.3205
  0
LINE
  8
0
 10
22.0199
 20
17.3205
 11
26.3101
 21
24.7512
  0
LINE
  8
0
 10
26.3101
 20
24.7512
 11
33.7409
 21
20.4611
  0
LINE
  8
0
 10
33.7409
 20
20.4611
 11
33.7409
 21
14.1799
  0
LINE
  8
0
 10
33.7409
 20
14.1799
 11
29.9651
 21
12
  0
LINE
  8
0
 10
29.9651
 20
12
 11
25.0917
 21
12
  0
LINE
  8
0
 10
-44.1903
 20
12
 11
-47.2621
 21
17.3205
  0
LINE
  8
0
 10
-47.2621
 20
17.3205
 11
-42.972
 21
24.7512
  0
LINE
  8
0
 10
-42.972
 20
24.7512
 11
-35.5411
 21
20.4611
  0
LINE
  8
0
 10
-35.5411
 20
20.4611
 11
-35.5411
 21
14.1799
  0
LINE
  8
0
 10
-35.5411
 20
14.1799
 11
-39.3169
 21
12
  0
LINE
  8
0
 10
-39.3169
 20
12
 11
-44.1903
 21
12
  0
LINE
  8
0
 10
-9.54929
 20
12
 11
-12.6211
 21
17.3205
  0
LINE
  8
0
 10
-12.6211
 20
17.3205
 11
-8.33093
 21
24.7512
  0
LINE
  8
0
 10
-8.33093
 20
24.7512
 11
-0.900055
 21
20.4611
  0
LINE
  8
0
 10
-0.900055
 20
20.4611
 11
-0.900055
 21
14.1799
  0
LINE
  8
0
 10
-0.900055
 20
14.1799
 11
-4.67586
 21
12
  0
LINE
  8
0
 10
-4.67586
 20
12
 11
-9.54929
 21
12
  0
LINE
  8
0
 10
-29.9651
 20
12
 11
-33.7409
 21
14.1799
  0
LINE
  8
0
 10
-33.7409
 20
14.1799
 11
-33.7409
 21
20.4611
  0
LINE
  8
0
 10
-33.7409
 20
20.4611
 11
-26.3101
 21
24.7512
  0
LINE
  8
0
 10
-26.3101
 20
24.7512
 11
-22.0199
 21
17.3205
  0
LINE
  8
0
 10
-22.0199
 20
17.3205
 11
-25.0917
 21
12
  0
LINE
  8
0
 10
-25.0917
 20
12
 11
-29.9651
 21
12
  0
LINE
  8
0
 10
39.3169
 20
12
 11
35.5411
 21
14.1799
  0
LINE
  8
0
 10
35.5411
 20
14.1799
 11
35.5411
 21
20.4611
  0
LINE
  8
0
 10
35.5411
 20
20.4611
 11
42.972
 21
24.7512
  0
LINE
  8
0
 10
42.972
 20
24.7512
 11
47.2621
 21
17.3205
  0
LINE
  8
0
 10
47.2621
 20
17.3205
 11
44.1903
 21
12
  0
LINE
  8
0
 10
44.1903
 20
12
 11
39.3169
 21
12
  0
LINE
  8
0
 10
56.6609
 20
17.3205
 11
56.7209
 21
17.4244
  0
LINE
  8
0
 10
56.7209
 20
17.4244
 11
56.8754
 21
16.9491
  0
LINE
  8
0
 10
56.8754
 20
16.9491
 11
56.6609
 21
17.3205
  0
LINE
  8
0
 10
-56.7209
 20
17.4244
 11
-56.6609
 21
17.3205
  0
LINE
  8
0
 10
-56.6609
 20
17.3205
 11
-56.8754
 21
16.9491
  0
LINE
  8
0
 10
-56.8754
 20
16.9491
 11
-56.7209
 21
17.4244
  0
LINE
  8
0
 10
-23.0133
 20
12
 11
-20.4611
 21
16.4205
  0
LINE
  8
0
 10
-20.4611
 20
16.4205
 11
-14.1799
 21
16.4205
  0
LINE
  8
0
 10
-14.1799
 20
16.4205
 11
-11.6277
 21
12
  0
LINE
  8
0
 10
-11.6277
 20
12
 11
-23.0133
 21
12
  0
LINE
  8
0
 10
-57.6543
 20
12
 11
-55.1021
 21
16.4205
  0
LINE
  8
0
 10
-55.1021
 20
16.4205
 11
-48.821
 21
16.4205
  0
LINE
  8
0
 10
-48.821
 20
16.4205
 11
-46.2687
 21
12
  0
LINE
  8
0
 10
-46.2687
 20
12
 11
-57.6543
 21
12
  0
LINE
  8
0
 10
46.2687
 20
12
 11
48.821
 21
16.4205
  0
LINE
  8
0
 10
48.821
 20
16.4205
 11
55.1021
 21
16.4205
  0
LINE
  8
0
 10
55.1021
 20
16.4205
 11
57.6543
 21
12
  0
LINE
  8
0
 10
57.6543
 20
12
 11
46.2687
 21
12
  0
LINE
  8
0
 10
11.6277
 20
12
 11
14.1799
 21
16.4205
  0
LINE
  8
0
 10
14.1799
 20
16.4205
 11
20.4611
 21
16.4205
  0
LINE
  8
0
 10
20.4611
 20
16.4205
 11
23.0133
 21
12
  0
LINE
  8
0
 10
23.0133
 20
12
 11
11.6277
 21
12
  0
LINE
  8
0
 10
-1.07533
 20
12
 11
0
 21
12.6208
  0
LINE
  8
0
 10
0
 20
12.6208
 11
1.07533
 21
12
  0
LINE
  8
0
 10
1.07533
 20
12
 11
-1.07533
 21
12
  0
LINE
  8
0
 10
33.5657
 20
12
 11
34.641
 21
12.6208
  0
LINE
  8
0
 10
34.641
 20
12.6208
 11
35.7163
 21
12
  0
LINE
  8
0
 10
35.7163
 20
12
 11
33.5657
 21
12
  0
LINE
  8
0
 10
-35.7163
 20
12
 11
-34.641
 21
12.6208
  0
LINE
  8
0
 10
-34.641
 20
12.6208
 11
-33.5657
 21
12
  0
LINE
  8
0
 10
-33.5657
 20
12
 11
-35.7163
 21
12
  0
LINE
  8
0
 10
-10
 20
7
 11
-10
 21
11
  0
LINE
  8
0
 10
-10
 20
11
 11
10
 21
11
  0
LINE
  8
0
 10
10
 20
11
 11
10
 21
7
  0
LINE
  8
0
 10
10
 20
7
 11
-10
 21
7
  0
LINE
  8
0
 10
-68.6534
 20
2.70622
 11
-68.7785
 21
2.71805
  0
LINE
  8
0
 10
-68.7785
 20
2.71805
 11
-68.9026
 21
2.7377
  0
LINE
  8
0
 10
-68.9026
 20
2.7377
 11
-69.0252
 21
2.76511
  0
LINE
  8
0
 10
-69.0252
 20
2.76511
 11
-69.1459
 21
2.80016
  0
LINE
  8
0
 10
-69.1459
 20
2.80016
 11
-69.2641
 21
2.84273
  0
LINE
  8
0
 10
-69.2641
 20
2.84273
 11
-69.3794
 21
2.89262
  0
LINE
  8
0
 10
-69.3794
 20
2.89262
 11
-69.4914
 21
2.94966
  0
LINE
  8
0
 10
-69.4914
 20
2.94966
 11
-69.5995
 21
3.01363
  0
LINE
  8
0
 10
-69.5995
 20
3.01363
 11
-69.7034
 21
3.08424
  0
LINE
  8
0
 10
-69.7034
 20
3.08424
 11
-69.8027
 21
3.16125
  0
LINE
  8
0
 10
-69.8027
 20
3.16125
 11
-69.897
 21
3.24434
  0
LINE
  8
0
 10
-69.897
 20
3.24434
 11
-69.9858
 21
3.33318
  0
LINE
  8
0
 10
-69.9858
 20
3.33318
 11
-70.0689
 21
3.42743
  0
LINE
  8
0
 10
-70.0689
 20
3.42743
 11
-70.1459
 21
3.5267
  0
LINE
  8
0
 10
-70.1459
 20
3.5267
 11
-70.2165
 21
3.63062
  0
LINE
  8
0
 10
-70.2165
 20
3.63062
 11
-70.2805
 21
3.73877
  0
LINE
  8
0
 10
-70.2805
 20
3.73877
 11
-70.3375
 21
3.85072
  0
LINE
  8
0
 10
-70.3375
 20
3.85072
 11
-70.3874
 21
3.96602
  0
LINE
  8
0
 10
-70.3874
 20
3.96602
 11
-70.43
 21
4.08424
  0
LINE
  8
0
 10
-70.43
 20
4.08424
 11
-70.465
 21
4.2049
  0
LINE
  8
0
 10
-70.465
 20
4.2049
 11
-70.4924
 21
4.32751
  0
LINE
  8
0
 10
-70.4924
 20
4.32751
 11
-70.5121
 21
4.45161
  0
LINE
  8
0
 10
-70.5121
 20
4.45161
 11
-70.5239
 21
4.57669
  0
LINE
  8
0
 10
-70.5239
 20
4.57669
 11
-70.5279
 21
4.70227
  0
LINE
  8
0
 10
-70.5279
 20
4.70227
 11
-70.5239
 21
4.82785
  0
LINE
  8
0
 10
-70.5239
 20
4.82785
 11
-70.5121
 21
4.95294
  0
LINE
  8
0
 10
-70.5121
 20
4.95294
 11
-70.4924
 21
5.07704
  0
LINE
  8
0
 10
-70.4924
 20
5.07704
 11
-70.465
 21
5.19966
  0
LINE
  8
0
 10
-70.465
 20
5.19966
 11
-70.43
 21
5.32031
  0
LINE
  8
0
 10
-70.43
 20
5.32031
 11
-70.3874
 21
5.43852
  0
LINE
  8
0
 10
-70.3874
 20
5.43852
 11
-70.3375
 21
5.55383
  0
LINE
  8
0
 10
-70.3375
 20
5.55383
 11
-70.2805
 21
5.66579
  0
LINE
  8
0
 10
-70.2805
 20
5.66579
 11
-70.2165
 21
5.77393
  0
LINE
  8
0
 10
-70.2165
 20
5.77393
 11
-70.1459
 21
5.87784
  0
LINE
  8
0
 10
-70.1459
 20
5.87784
 11
-70.0689
 21
5.97713
  0
LINE
  8
0
 10
-70.0689
 20
5.97713
 11
-69.9858
 21
6.07137
  0
LINE
  8
0
 10
-69.9858
 20
6.07137
 11
-69.897
 21
6.16022
  0
LINE
  8
0
 10
-69.897
 20
6.16022
 11
-69.8027
 21
6.2433
  0
LINE
  8
0
 10
-69.8027
 20
6.2433
 11
-69.7034
 21
6.32031
  0
LINE
  8
0
 10
-69.7034
 20
6.32031
 11
-69.5995
 21
6.39093
  0
LINE
  8
0
 10
-69.5995
 20
6.39093
 11
-69.4914
 21
6.4549
  0
LINE
  8
0
 10
-69.4914
 20
6.4549
 11
-69.3794
 21
6.51193
  0
LINE
  8
0
 10
-69.3794
 20
6.51193
 11
-69.2641
 21
6.56183
  0
LINE
  8
0
 10
-69.2641
 20
6.56183
 11
-69.1459
 21
6.60439
  0
LINE
  8
0
 10
-69.1459
 20
6.60439
 11
-69.0252
 21
6.63943
  0
LINE
  8
0
 10
-69.0252
 20
6.63943
 11
-68.9026
 21
6.66685
  0
LINE
  8
0
 10
-68.9026
 20
6.66685
 11
-68.7785
 21
6.68651
  0
LINE
  8
0
 10
-68.7785
 20
6.68651
 11
-68.6534
 21
6.69833
  0
LINE
  8
0
 10
-68.6534
 20
6.69833
 11
-68.5279
 21
6.70227
  0
LINE
  8
0
 10
-68.5279
 20
6.70227
 11
-68.4023
 21
6.69833
  0
LINE
  8
0
 10
-68.4023
 20
6.69833
 11
-68.2772
 21
6.68651
  0
LINE
  8
0
 10
-68.2772
 20
6.68651
 11
-68.1531
 21
6.66685
  0
LINE
  8
0
 10
-68.1531
 20
6.66685
 11
-68.0305
 21
6.63943
  0
LINE
  8
0
 10
-68.0305
 20
6.63943
 11
-67.9098
 21
6.60439
  0
LINE
  8
0
 10
-67.9098
 20
6.60439
 11
-67.7916
 21
6.56183
  0
LINE
  8
0
 10
-67.7916
 20
6.56183
 11
-67.6763
 21
6.51193
  0
LINE
  8
0
 10
-67.6763
 20
6.51193
 11
-67.5643
 21
6.4549
  0
LINE
  8
0
 10
-67.5643
 20
6.4549
 11
-67.4562
 21
6.39093
  0
LINE
  8
0
 10
-67.4562
 20
6.39093
 11
-67.3523
 21
6.32031
  0
LINE
  8
0
 10
-67.3523
 20
6.32031
 11
-67.253
 21
6.2433
  0
LINE
  8
0
 10
-67.253
 20
6.2433
 11
-67.1588
 21
6.16022
  0
LINE
  8
0
 10
-67.1588
 20
6.16022
 11
-67.0699
 21
6.07137
  0
LINE
  8
0
 10
-67.0699
 20
6.07137
 11
-66.9868
 21
5.97713
  0
LINE
  8
0
 10
-66.9868
 20
5.97713
 11
-66.9098
 21
5.87784
  0
LINE
  8
0
 10
-66.9098
 20
5.87784
 11
-66.8392
 21
5.77393
  0
LINE
  8
0
 10
-66.8392
 20
5.77393
 11
-66.7752
 21
5.66579
  0
LINE
  8
0
 10
-66.7752
 20
5.66579
 11
-66.7182
 21
5.55383
  0
LINE
  8
0
 10
-66.7182
 20
5.55383
 11
-66.6683
 21
5.43852
  0
LINE
  8
0
 10
-66.6683
 20
5.43852
 11
-66.6257
 21
5.32031
  0
LINE
  8
0
 10
-66.6257
 20
5.32031
 11
-66.5907
 21
5.19966
  0
LINE
  8
0
 10
-66.5907
 20
5.19966
 11
-66.5633
 21
5.07704
  0
LINE
  8
0
 10
-66.5633
 20
5.07704
 11
-66.5436
 21
4.95294
  0
LINE
  8
0
 10
-66.5436
 20
4.95294
 11
-66.5318
 21
4.82785
  0
LINE
  8
0
 10
-66.5318
 20
4.82785
 11
-66.5279
 21
4.70227
  0
LINE
  8
0
 10
-66.5279
 20
4.70227
 11
-66.5318
 21
4.57669
  0
LINE
  8
0
 10
-66.5318
 20
4.57669
 11
-66.5436
 21
4.45161
  0
LINE
  8
0
 10
-66.5436
 20
4.45161
 11
-66.5633
 21
4.32751
  0
LINE
  8
0
 10
-66.5633
 20
4.32751
 11
-66.5907
 21
4.2049
  0
LINE
  8
0
 10
-66.5907
 20
4.2049
 11
-66.6257
 21
4.08424
  0
LINE
  8
0
 10
-66.6257
 20
4.08424
 11
-66.6683
 21
3.96602
  0
LINE
  8
0
 10
-66.6683
 20
3.96602
 11
-66.7182
 21
3.85072
  0
LINE
  8
0
 10
-66.7182
 20
3.85072
 11
-66.7752
 21
3.73877
  0
LINE
  8
0
 10
-66.7752
 20
3.73877
 11
-66.8392
 21
3.63062
  0
LINE
  8
0
 10
-66.8392
 20
3.63062
 11
-66.9098
 21
3.5267
  0
LINE
  8
0
 10
-66.9098
 20
3.5267
 11
-66.9868
 21
3.42743
  0
LINE
  8
0
 10
-66.9868
 20
3.42743
 11
-67.0699
 21
3.33318
  0
LINE
  8
0
 10
-67.0699
 20
3.33318
 11
-67.1588
 21
3.24434
  0
LINE
  8
0
 10
-67.1588
 20
3.24434
 11
-67.253
 21
3.16125
  0
LINE
  8
0
 10
-67.253
 20
3.16125
 11
-67.3523
 21
3.08424
  0
LINE
  8
0
 10
-67.3523
 20
3.08424
 11
-67.4562
 21
3.01363
  0
LINE
  8
0
 10
-67.4562
 20
3.01363
 11
-67.5643
 21
2.94966
  0
LINE
  8
0
 10
-67.5643
 20
2.94966
 11
-67.6763
 21
2.89262
  0
LINE
  8
0
 10
-67.6763
 20
2.89262
 11
-67.7916
 21
2.84273
  0
LINE
  8
0
 10
-67.7916
 20
2.84273
 11
-67.9098
 21
2.80016
  0
LINE
  8
0
 10
-67.9098
 20
2.80016
 11
-68.0305
 21
2.76511
  0
LINE
  8
0
 10
-68.0305
 20
2.76511
 11
-68.1531
 21
2.7377
  0
LINE
  8
0
 10
-68.1531
 20
2.7377
 11
-68.2772
 21
2.71805
  0
LINE
  8
0
 10
-68.2772
 20
2.71805
 11
-68.4023
 21
2.70622
  0
LINE
  8
0
 10
-68.4023
 20
2.70622
 11
-68.5279
 21
2.70227
  0
LINE
  8
0
 10
-68.5279
 20
2.70227
 11
-68.6534
 21
2.70622
  0
LINE
  8
0
 10
68.4023
 20
2.70622
 11
68.2772
 21
2.71805
  0
LINE
  8
0
 10
68.2772
 20
2.71805
 11
68.1531
 21
2.7377
  0
LINE
  8
0
 10
68.1531
 20
2.7377
 11
68.0305
 21
2.76511
  0
LINE
  8
0
 10
68.0305
 20
2.76511
 11
67.9098
 21
2.80016
  0
LINE
  8
0
 10
67.9098
 20
2.80016
 11
67.7916
 21
2.84273
  0
LINE
  8
0
 10
67.7916
 20
2.84273
 11
67.6763
 21
2.89262
  0
LINE
  8
0
 10
67.6763
 20
2.89262
 11
67.5643
 21
2.94966
  0
LINE
  8
0
 10
67.5643
 20
2.94966
 11
67.4562
 21
3.01363
  0
LINE
  8
0
 10
67.4562
 20
3.01363
 11
67.3523
 21
3.08424
  0
LINE
  8
0
 10
67.3523
 20
3.08424
 11
67.253
 21
3.16125
  0
LINE
  8
0
 10
67.253
 20
3.16125
 11
67.1588
 21
3.24434
  0
LINE
  8
0
 10
67.1588
 20
3.24434
 11
67.0699
 21
3.33318
  0
LINE
  8
0
 10
67.0699
 20
3.33318
 11
66.9868
 21
3.42743
  0
LINE
  8
0
 10
66.9868
 20
3.42743
 11
66.9098
 21
3.5267
  0
LINE
  8
0
 10
66.9098
 20
3.5267
 11
66.8392
 21
3.63062
  0
LINE
  8
0
 10
66.8392
 20
3.63062
 11
66.7752
 21
3.73877
  0
LINE
  8
0
 10
66.7752
 20
3.73877
 11
66.7182
 21
3.85072
  0
LINE
  8
0
 10
66.7182
 20
3.85072
 11
66.6683
 21
3.96602
  0
LINE
  8
0
 10
66.6683
 20
3.96602
 11
66.6257
 21
4.08424
  0
LINE
  8
0
 10
66.6257
 20
4.08424
 11
66.5907
 21
4.2049
  0
LINE
  8
0
 10
66.5907
 20
4.2049
 11
66.5633
 21
4.32751
  0
LINE
  8
0
 10
66.5633
 20
4.32751
 11
66.5436
 21
4.45161
  0
LINE
  8
0
 10
66.5436
 20
4.45161
 11
66.5318
 21
4.57669
  0
LINE
  8
0
 10
66.5318
 20
4.57669
 11
66.5279
 21
4.70227
  0
LINE
  8
0
 10
66.5279
 20
4.70227
 11
66.5318
 21
4.82785
  0
LINE
  8
0
 10
66.5318
 20
4.82785
 11
66.5436
 21
4.95294
  0
LINE
  8
0
 10
66.5436
 20
4.95294
 11
66.5633
 21
5.07704
  0
LINE
  8
0
 10
66.5633
 20
5.07704
 11
66.5907
 21
5.19966
  0
LINE
  8
0
 10
66.5907
 20
5.19966
 11
66.6257
 21
5.32031
  0
LINE
  8
0
 10
66.6257
 20
5.32031
 11
66.6683
 21
5.43852
  0
LINE
  8
0
 10
66.6683
 20
5.43852
 11
66.7182
 21
5.55383
  0
LINE
  8
0
 10
66.7182
 20
5.55383
 11
66.7752
 21
5.66579
  0
LINE
  8
0
 10
66.7752
 20
5.66579
 11
66.8392
 21
5.77393
  0
LINE
  8
0
 10
66.8392
 20
5.77393
 11
66.9098
 21
5.87784
  0
LINE
  8
0
 10
66.9098
 20
5.87784
 11
66.9868
 21
5.97713
  0
LINE
  8
0
 10
66.9868
 20
5.97713
 11
67.0699
 21
6.07137
  0
LINE
  8
0
 10
67.0699
 20
6.07137
 11
67.1588
 21
6.16022
  0
LINE
  8
0
 10
67.1588
 20
6.16022
 11
67.253
 21
6.2433
  0
LINE
  8
0
 10
67.253
 20
6.2433
 11
67.3523
 21
6.32031
  0
LINE
  8
0
 10
67.3523
 20
6.32031
 11
67.4562
 21
6.39093
  0
LINE
  8
0
 10
67.4562
 20
6.39093
 11
67.5643
 21
6.4549
  0
LINE
  8
0
 10
67.5643
 20
6.4549
 11
67.6763
 21
6.51193
  0
LINE
  8
0
 10
67.6763
 20
6.51193
 11
67.7916
 21
6.56183
  0
LINE
  8
0
 10
67.7916
 20
6.56183
 11
67.9098
 21
6.60439
  0
LINE
  8
0
 10
67.9098
 20
6.60439
 11
68.0305
 21
6.63943
  0
LINE
  8
0
 10
68.0305
 20
6.63943
 11
68.1531
 21
6.66685
  0
LINE
  8
0
 10
68.1531
 20
6.66685
 11
68.2772
 21
6.68651
  0
LINE
  8
0
 10
68.2772
 20
6.68651
 11
68.4023
 21
6.69833
  0
LINE
  8
0
 10
68.4023
 20
6.69833
 11
68.5279
 21
6.70227
  0
LINE
  8
0
 10
68.5279
 20
6.70227
 11
68.6534
 21
6.69833
  0
LINE
  8
0
 10
68.6534
 20
6.69833
 11
68.7785
 21
6.68651
  0
LINE
  8
0
 10
68.7785
 20
6.68651
 11
68.9026
 21
6.66685
  0
LINE
  8
0
 10
68.9026
 20
6.66685
 11
69.0252
 21
6.63943
  0
LINE
  8
0
 10
69.0252
 20
6.63943
 11
69.1459
 21
6.60439
  0
LINE
  8
0
 10
69.1459
 20
6.60439
 11
69.2641
 21
6.56183
  0
LINE
  8
0
 10
69.2641
 20
6.56183
 11
69.3794
 21
6.51193
  0
LINE
  8
0
 10
69.3794
 20
6.51193
 11
69.4914
 21
6.4549
  0
LINE
  8
0
 10
69.4914
 20
6.4549
 11
69.5995
 21
6.39093
  0
LINE
  8
0
 10
69.5995
 20
6.39093
 11
69.7034
 21
6.32031
  0
LINE
  8
0
 10
69.7034
 20
6.32031
 11
69.8027
 21
6.2433
  0
LINE
  8
0
 10
69.8027
 20
6.2433
 11
69.897
 21
6.16022
  0
LINE
  8
0
 10
69.897
 20
6.16022
 11
69.9858
 21
6.07137
  0
LINE
  8
0
 10
69.9858
 20
6.07137
 11
70.0689
 21
5.97713
  0
LINE
  8
0
 10
70.0689
 20
5.97713
 11
70.1459
 21
5.87784
  0
LINE
  8
0
 10
70.1459
 20
5.87784
 11
70.2165
 21
5.77393
  0
LINE
  8
0
 10
70.2165
 20
5.77393
 11
70.2805
 21
5.66579
  0
LINE
  8
0
 10
70.2805
 20
5.66579
 11
70.3375
 21
5.55383
  0
LINE
  8
0
 10
70.3375
 20
5.55383
 11
70.3874
 21
5.43852
  0
LINE
  8
0
 10
70.3874
 20
5.43852
 11
70.43
 21
5.32031
  0
LINE
  8
0
 10
70.43
 20
5.32031
 11
70.465
 21
5.19966
  0
LINE
  8
0
 10
70.465
 20
5.19966
 11
70.4924
 21
5.07704
  0
LINE
  8
0
 10
70.4924
 20
5.07704
 11
70.5121
 21
4.95294
  0
LINE
  8
0
 10
70.5121
 20
4.95294
 11
70.5239
 21
4.82785
  0
LINE
  8
0
 10
70.5239
 20
4.82785
 11
70.5279
 21
4.70227
  0
LINE
  8
0
 10
70.5279
 20
4.70227
 11
70.5239
 21
4.57669
  0
LINE
  8
0
 10
70.5239
 20
4.57669
 11
70.5121
 21
4.45161
  0
LINE
  8
0
 10
70.5121
 20
4.45161
 11
70.4924
 21
4.32751
  0
LINE
  8
0
 10
70.4924
 20
4.32751
 11
70.465
 21
4.2049
  0
LINE
  8
0
 10
70.465
 20
4.2049
 11
70.43
 21
4.08424
  0
LINE
  8
0
 10
70.43
 20
4.08424
 11
70.3874
 21
3.96602
  0
LINE
  8
0
 10
70.3874
 20
3.96602
 11
70.3375
 21
3.85072
  0
LINE
  8
0
 10
70.3375
 20
3.85072
 11
70.2805
 21
3.73877
  0
LINE
  8
0
 10
70.2805
 20
3.73877
 11
70.2165
 21
3.63062
  0
LINE
  8
0
 10
70.2165
 20
3.63062
 11
70.1459
 21
3.5267
  0
LINE
  8
0
 10
70.1459
 20
3.5267
 11
70.0689
 21
3.42743
  0
LINE
  8
0
 10
70.0689
 20
3.42743
 11
69.9858
 21
3.33318
  0
LINE
  8
0
 10
69.9858
 20
3.33318
 11
69.897
 21
3.24434
  0
LINE
  8
0
 10
69.897
 20
3.24434
 11
69.8027
 21
3.16125
  0
LINE
  8
0
 10
69.8027
 20
3.16125
 11
69.7034
 21
3.08424
  0
LINE
  8
0
 10
69.7034
 20
3.08424
 11
69.5995
 21
3.01363
  0
LINE
  8
0
 10
69.5995
 20
3.01363
 11
69.4914
 21
2.94966
  0
LINE
  8
0
 10
69.4914
 20
2.94966
 11
69.3794
 21
2.89262
  0
LINE
  8
0
 10
69.3794
 20
2.89262
 11
69.2641
 21
2.84273
  0
LINE
  8
0
 10
69.2641
 20
2.84273
 11
69.1459
 21
2.80016
  0
LINE
  8
0
 10
69.1459
 20
2.80016
 11
69.0252
 21
2.76511
  0
LINE
  8
0
 10
69.0252
 20
2.76511
 11
68.9026
 21
2.7377
  0
LINE
  8
0
 10
68.9026
 20
2.7377
 11
68.7785
 21
2.71805
  0
LINE
  8
0
 10
68.7785
 20
2.71805
 11
68.6534
 21
2.70622
  0
LINE
  8
0
 10
68.6534
 20
2.70622
 11
68.5279
 21
2.70227
  0
LINE
  8
0
 10
68.5279
 20
2.70227
 11
68.4023
 21
2.70622
  0
ENDSEC
  0
SECTION
  2
OBJECTS
  0
DICTIONARY
  0
ENDSEC
  0
EOF
