  0
SECTION
  2
BLOCKS
  0
ENDSEC
  0
SECTION
  2
ENTITIES
  0
LINE
  8
0
 10
0
 20
230.826
 11
-75
 21
0
  0
LINE
  8
0
 10
-75
 20
0
 11
75
 21
0
  0
LINE
  8
0
 10
75
 20
0
 11
0
 21
230.826
  0
LINE
  8
0
 10
-0.12558
 20
212.83
 11
-0.250656
 21
212.842
  0
LINE
  8
0
 10
-0.250656
 20
212.842
 11
-0.374756
 21
212.862
  0
LINE
  8
0
 10
-0.374756
 20
212.862
 11
-0.497375
 21
212.889
  0
LINE
  8
0
 10
-0.497375
 20
212.889
 11
-0.618027
 21
212.924
  0
LINE
  8
0
 10
-0.618027
 20
212.924
 11
-0.736237
 21
212.967
  0
LINE
  8
0
 10
-0.736237
 20
212.967
 11
-0.851547
 21
213.017
  0
LINE
  8
0
 10
-0.851547
 20
213.017
 11
-0.963501
 21
213.074
  0
LINE
  8
0
 10
-0.963501
 20
213.074
 11
-1.07164
 21
213.138
  0
LINE
  8
0
 10
-1.07164
 20
213.138
 11
-1.17557
 21
213.208
  0
LINE
  8
0
 10
-1.17557
 20
213.208
 11
-1.27484
 21
213.285
  0
LINE
  8
0
 10
-1.27484
 20
213.285
 11
-1.36908
 21
213.368
  0
LINE
  8
0
 10
-1.36908
 20
213.368
 11
-1.45793
 21
213.457
  0
LINE
  8
0
 10
-1.45793
 20
213.457
 11
-1.54102
 21
213.551
  0
LINE
  8
0
 10
-1.54102
 20
213.551
 11
-1.61803
 21
213.651
  0
LINE
  8
0
 10
-1.61803
 20
213.651
 11
-1.68864
 21
213.755
  0
LINE
  8
0
 10
-1.68864
 20
213.755
 11
-1.75261
 21
213.863
  0
LINE
  8
0
 10
-1.75261
 20
213.863
 11
-1.80965
 21
213.975
  0
LINE
  8
0
 10
-1.80965
 20
213.975
 11
-1.85954
 21
214.09
  0
LINE
  8
0
 10
-1.85954
 20
214.09
 11
-1.9021
 21
214.208
  0
LINE
  8
0
 10
-1.9021
 20
214.208
 11
-1.93716
 21
214.329
  0
LINE
  8
0
 10
-1.93716
 20
214.329
 11
-1.96457
 21
214.451
  0
LINE
  8
0
 10
-1.96457
 20
214.451
 11
-1.98422
 21
214.576
  0
LINE
  8
0
 10
-1.98422
 20
214.576
 11
-1.99605
 21
214.701
  0
LINE
  8
0
 10
-1.99605
 20
214.701
 11
-2
 21
214.826
  0
LINE
  8
0
 10
-2
 20
214.826
 11
-1.99605
 21
214.952
  0
LINE
  8
0
 10
-1.99605
 20
214.952
 11
-1.98422
 21
215.077
  0
LINE
  8
0
 10
-1.98422
 20
215.077
 11
-1.96457
 21
215.201
  0
LINE
  8
0
 10
-1.96457
 20
215.201
 11
-1.93716
 21
215.324
  0
LINE
  8
0
 10
-1.93716
 20
215.324
 11
-1.9021
 21
215.444
  0
LINE
  8
0
 10
-1.9021
 20
215.444
 11
-1.85954
 21
215.562
  0
LINE
  8
0
 10
-1.85954
 20
215.562
 11
-1.80965
 21
215.678
  0
LINE
  8
0
 10
-1.80965
 20
215.678
 11
-1.75261
 21
215.79
  0
LINE
  8
0
 10
-1.75261
 20
215.79
 11
-1.68864
 21
215.898
  0
LINE
  8
0
 10
-1.68864
 20
215.898
 11
-1.61803
 21
216.002
  0
LINE
  8
0
 10
-1.61803
 20
216.002
 11
-1.54102
 21
216.101
  0
LINE
  8
0
 10
-1.54102
 20
216.101
 11
-1.45793
 21
216.195
  0
LINE
  8
0
 10
-1.45793
 20
216.195
 11
-1.36908
 21
216.284
  0
LINE
  8
0
 10
-1.36908
 20
216.284
 11
-1.27484
 21
216.367
  0
LINE
  8
0
 10
-1.27484
 20
216.367
 11
-1.17557
 21
216.444
  0
LINE
  8
0
 10
-1.17557
 20
216.444
 11
-1.07164
 21
216.515
  0
LINE
  8
0
 10
-1.07164
 20
216.515
 11
-0.963501
 21
216.579
  0
LINE
  8
0
 10
-0.963501
 20
216.579
 11
-0.851547
 21
216.636
  0
LINE
  8
0
 10
-0.851547
 20
216.636
 11
-0.736237
 21
216.686
  0
LINE
  8
0
 10
-0.736237
 20
216.686
 11
-0.618027
 21
216.728
  0
LINE
  8
0
 10
-0.618027
 20
216.728
 11
-0.497375
 21
216.763
  0
LINE
  8
0
 10
-0.497375
 20
216.763
 11
-0.374756
 21
216.791
  0
LINE
  8
0
 10
-0.374756
 20
216.791
 11
-0.250656
 21
216.81
  0
LINE
  8
0
 10
-0.250656
 20
216.81
 11
-0.12558
 21
216.822
  0
LINE
  8
0
 10
-0.12558
 20
216.822
 11
0
 21
216.826
  0
LINE
  8
0
 10
0
 20
216.826
 11
0.12558
 21
216.822
  0
LINE
  8
0
 10
0.12558
 20
216.822
 11
0.250656
 21
216.81
  0
LINE
  8
0
 10
0.250656
 20
216.81
 11
0.374756
 21
216.791
  0
LINE
  8
0
 10
0.374756
 20
216.791
 11
0.497375
 21
216.763
  0
LINE
  8
0
 10
0.497375
 20
216.763
 11
0.618027
 21
216.728
  0
LINE
  8
0
 10
0.618027
 20
216.728
 11
0.736237
 21
216.686
  0
LINE
  8
0
 10
0.736237
 20
216.686
 11
0.851547
 21
216.636
  0
LINE
  8
0
 10
0.851547
 20
216.636
 11
0.963501
 21
216.579
  0
LINE
  8
0
 10
0.963501
 20
216.579
 11
1.07164
 21
216.515
  0
LINE
  8
0
 10
1.07164
 20
216.515
 11
1.17557
 21
216.444
  0
LINE
  8
0
 10
1.17557
 20
216.444
 11
1.27484
 21
216.367
  0
LINE
  8
0
 10
1.27484
 20
216.367
 11
1.36908
 21
216.284
  0
LINE
  8
0
 10
1.36908
 20
216.284
 11
1.45793
 21
216.195
  0
LINE
  8
0
 10
1.45793
 20
216.195
 11
1.54102
 21
216.101
  0
LINE
  8
0
 10
1.54102
 20
216.101
 11
1.61803
 21
216.002
  0
LINE
  8
0
 10
1.61803
 20
216.002
 11
1.68864
 21
215.898
  0
LINE
  8
0
 10
1.68864
 20
215.898
 11
1.75261
 21
215.79
  0
LINE
  8
0
 10
1.75261
 20
215.79
 11
1.80965
 21
215.678
  0
LINE
  8
0
 10
1.80965
 20
215.678
 11
1.85954
 21
215.562
  0
LINE
  8
0
 10
1.85954
 20
215.562
 11
1.9021
 21
215.444
  0
LINE
  8
0
 10
1.9021
 20
215.444
 11
1.93716
 21
215.324
  0
LINE
  8
0
 10
1.93716
 20
215.324
 11
1.96457
 21
215.201
  0
LINE
  8
0
 10
1.96457
 20
215.201
 11
1.98422
 21
215.077
  0
LINE
  8
0
 10
1.98422
 20
215.077
 11
1.99605
 21
214.952
  0
LINE
  8
0
 10
1.99605
 20
214.952
 11
2
 21
214.826
  0
LINE
  8
0
 10
2
 20
214.826
 11
1.99605
 21
214.701
  0
LINE
  8
0
 10
1.99605
 20
214.701
 11
1.98422
 21
214.576
  0
LINE
  8
0
 10
1.98422
 20
214.576
 11
1.96457
 21
214.451
  0
LINE
  8
0
 10
1.96457
 20
214.451
 11
1.93716
 21
214.329
  0
LINE
  8
0
 10
1.93716
 20
214.329
 11
1.9021
 21
214.208
  0
LINE
  8
0
 10
1.9021
 20
214.208
 11
1.85954
 21
214.09
  0
LINE
  8
0
 10
1.85954
 20
214.09
 11
1.80965
 21
213.975
  0
LINE
  8
0
 10
1.80965
 20
213.975
 11
1.75261
 21
213.863
  0
LINE
  8
0
 10
1.75261
 20
213.863
 11
1.68864
 21
213.755
  0
LINE
  8
0
 10
1.68864
 20
213.755
 11
1.61803
 21
213.651
  0
LINE
  8
0
 10
1.61803
 20
213.651
 11
1.54102
 21
213.551
  0
LINE
  8
0
 10
1.54102
 20
213.551
 11
1.45793
 21
213.457
  0
LINE
  8
0
 10
1.45793
 20
213.457
 11
1.36908
 21
213.368
  0
LINE
  8
0
 10
1.36908
 20
213.368
 11
1.27484
 21
213.285
  0
LINE
  8
0
 10
1.27484
 20
213.285
 11
1.17557
 21
213.208
  0
LINE
  8
0
 10
1.17557
 20
213.208
 11
1.07164
 21
213.138
  0
LINE
  8
0
 10
1.07164
 20
213.138
 11
0.963501
 21
213.074
  0
LINE
  8
0
 10
0.963501
 20
213.074
 11
0.851547
 21
213.017
  0
LINE
  8
0
 10
0.851547
 20
213.017
 11
0.736237
 21
212.967
  0
LINE
  8
0
 10
0.736237
 20
212.967
 11
0.618027
 21
212.924
  0
LINE
  8
0
 10
0.618027
 20
212.924
 11
0.497375
 21
212.889
  0
LINE
  8
0
 10
0.497375
 20
212.889
 11
0.374756
 21
212.862
  0
LINE
  8
0
 10
0.374756
 20
212.862
 11
0.250656
 21
212.842
  0
LINE
  8
0
 10
0.250656
 20
212.842
 11
0.12558
 21
212.83
  0
LINE
  8
0
 10
0.12558
 20
212.83
 11
0
 21
212.826
  0
LINE
  8
0
 10
0
 20
212.826
 11
-0.12558
 21
212.83
  0
LINE
  8
0
 10
-0.455185
 20
190.593
 11
0.477402
 21
189.839
  0
LINE
  8
0
 10
0.477402
 20
189.839
 11
-1.04688
 21
188.608
  0
LINE
  8
0
 10
-1.04688
 20
188.608
 11
-1.11984
 21
188.547
  0
LINE
  8
0
 10
-1.11984
 20
188.547
 11
-0.455185
 21
190.593
  0
LINE
  8
0
 10
2.73967
 20
182.437
 11
0.775345
 21
184.141
  0
LINE
  8
0
 10
0.775345
 20
184.141
 11
-0.46727
 21
185.181
  0
LINE
  8
0
 10
-0.46727
 20
185.181
 11
0.841095
 21
186.277
  0
LINE
  8
0
 10
0.841095
 20
186.277
 11
1.64616
 21
186.927
  0
LINE
  8
0
 10
1.64616
 20
186.927
 11
3.0392
 21
182.64
  0
LINE
  8
0
 10
3.0392
 20
182.64
 11
2.76718
 21
182.412
  0
LINE
  8
0
 10
2.76718
 20
182.412
 11
2.73967
 21
182.437
  0
LINE
  8
0
 10
-3.85272
 20
178.625
 11
-4.23859
 21
178.948
  0
LINE
  8
0
 10
-4.23859
 20
178.948
 11
-2.8893
 21
183.101
  0
LINE
  8
0
 10
-2.8893
 20
183.101
 11
-2.77452
 21
183.201
  0
LINE
  8
0
 10
-2.77452
 20
183.201
 11
-1.15302
 21
181.842
  0
LINE
  8
0
 10
-1.15302
 20
181.842
 11
0.457718
 21
180.445
  0
LINE
  8
0
 10
0.457718
 20
180.445
 11
-0.377853
 21
179.72
  0
LINE
  8
0
 10
-0.377853
 20
179.72
 11
-2.26482
 21
178.024
  0
LINE
  8
0
 10
-2.26482
 20
178.024
 11
-2.69669
 21
177.621
  0
LINE
  8
0
 10
-2.69669
 20
177.621
 11
-3.85272
 21
178.625
  0
LINE
  8
0
 10
1.66644
 20
173.662
 11
-0.144058
 21
175.348
  0
LINE
  8
0
 10
-0.144058
 20
175.348
 11
-0.445312
 21
175.619
  0
LINE
  8
0
 10
-0.445312
 20
175.619
 11
-0.257431
 21
175.794
  0
LINE
  8
0
 10
-0.257431
 20
175.794
 11
1.59032
 21
177.456
  0
LINE
  8
0
 10
1.59032
 20
177.456
 11
2.71066
 21
178.428
  0
LINE
  8
0
 10
2.71066
 20
178.428
 11
4.53084
 21
176.734
  0
LINE
  8
0
 10
4.53084
 20
176.734
 11
5.15308
 21
176.134
  0
LINE
  8
0
 10
5.15308
 20
176.134
 11
5.44373
 21
175.239
  0
LINE
  8
0
 10
5.44373
 20
175.239
 11
4.34576
 21
174.286
  0
LINE
  8
0
 10
4.34576
 20
174.286
 11
2.62492
 21
172.738
  0
LINE
  8
0
 10
2.62492
 20
172.738
 11
1.66644
 21
173.662
  0
LINE
  8
0
 10
-5.24237
 20
175.859
 11
-4.89059
 21
175.554
  0
LINE
  8
0
 10
-4.89059
 20
175.554
 11
-5.54735
 21
174.92
  0
LINE
  8
0
 10
-5.54735
 20
174.92
 11
-5.24237
 21
175.859
  0
LINE
  8
0
 10
-3.24394
 20
168.396
 11
-4.96179
 21
169.998
  0
LINE
  8
0
 10
-4.96179
 20
169.998
 11
-5.63689
 21
170.605
  0
LINE
  8
0
 10
-5.63689
 20
170.605
 11
-5.62129
 21
170.621
  0
LINE
  8
0
 10
-5.62129
 20
170.621
 11
-3.86377
 21
172.376
  0
LINE
  8
0
 10
-3.86377
 20
172.376
 11
-2.63911
 21
173.557
  0
LINE
  8
0
 10
-2.63911
 20
173.557
 11
-2.15144
 21
173.119
  0
LINE
  8
0
 10
-2.15144
 20
173.119
 11
-0.379562
 21
171.468
  0
LINE
  8
0
 10
-0.379562
 20
171.468
 11
0.432022
 21
170.685
  0
LINE
  8
0
 10
0.432022
 20
170.685
 11
-0.946213
 21
169.355
  0
LINE
  8
0
 10
-0.946213
 20
169.355
 11
-2.5634
 21
167.739
  0
LINE
  8
0
 10
-2.5634
 20
167.739
 11
-3.24394
 21
168.396
  0
LINE
  8
0
 10
6.91606
 20
168.419
 11
5.19702
 21
170.197
  0
LINE
  8
0
 10
5.19702
 20
170.197
 11
4.76544
 21
170.628
  0
LINE
  8
0
 10
4.76544
 20
170.628
 11
6.31395
 21
172.022
  0
LINE
  8
0
 10
6.31395
 20
172.022
 11
6.45065
 21
172.14
  0
LINE
  8
0
 10
6.45065
 20
172.14
 11
7.87006
 21
167.772
  0
LINE
  8
0
 10
7.87006
 20
167.772
 11
7.68011
 21
167.601
  0
LINE
  8
0
 10
7.68011
 20
167.601
 11
6.91606
 21
168.419
  0
LINE
  8
0
 10
1.7368
 20
163.418
 11
0.10585
 21
165.106
  0
LINE
  8
0
 10
0.10585
 20
165.106
 11
-0.424347
 21
165.636
  0
LINE
  8
0
 10
-0.424347
 20
165.636
 11
1.13777
 21
167.197
  0
LINE
  8
0
 10
1.13777
 20
167.197
 11
2.57068
 21
168.58
  0
LINE
  8
0
 10
2.57068
 20
168.58
 11
3.0757
 21
168.076
  0
LINE
  8
0
 10
3.0757
 20
168.076
 11
4.75804
 21
166.335
  0
LINE
  8
0
 10
4.75804
 20
166.335
 11
5.48486
 21
165.557
  0
LINE
  8
0
 10
5.48486
 20
165.557
 11
4.05533
 21
164.176
  0
LINE
  8
0
 10
4.05533
 20
164.176
 11
2.48987
 21
162.61
  0
LINE
  8
0
 10
2.48987
 20
162.61
 11
1.7368
 21
163.418
  0
LINE
  8
0
 10
-8.15434
 20
163.131
 11
-9.09343
 21
164.007
  0
LINE
  8
0
 10
-9.09343
 20
164.007
 11
-7.66711
 21
168.397
  0
LINE
  8
0
 10
-7.66711
 20
168.397
 11
-6.96919
 21
167.768
  0
LINE
  8
0
 10
-6.96919
 20
167.768
 11
-5.28995
 21
166.202
  0
LINE
  8
0
 10
-5.28995
 20
166.202
 11
-4.64384
 21
165.578
  0
LINE
  8
0
 10
-4.64384
 20
165.578
 11
-5.97069
 21
164.157
  0
LINE
  8
0
 10
-5.97069
 20
164.157
 11
-7.48137
 21
162.48
  0
LINE
  8
0
 10
-7.48137
 20
162.48
 11
-8.15434
 21
163.131
  0
LINE
  8
0
 10
-3.44244
 20
158.416
 11
-4.98532
 21
160.015
  0
LINE
  8
0
 10
-4.98532
 20
160.015
 11
-5.34268
 21
160.372
  0
LINE
  8
0
 10
-5.34268
 20
160.372
 11
-3.77663
 21
162.111
  0
LINE
  8
0
 10
-3.77663
 20
162.111
 11
-2.50482
 21
163.474
  0
LINE
  8
0
 10
-2.50482
 20
163.474
 11
-2.01547
 21
162.985
  0
LINE
  8
0
 10
-2.01547
 20
162.985
 11
-0.421204
 21
161.334
  0
LINE
  8
0
 10
-0.421204
 20
161.334
 11
0.410156
 21
160.442
  0
LINE
  8
0
 10
0.410156
 20
160.442
 11
-0.704941
 21
159.246
  0
LINE
  8
0
 10
-0.704941
 20
159.246
 11
-2.23306
 21
157.549
  0
LINE
  8
0
 10
-2.23306
 20
157.549
 11
-2.42671
 21
157.326
  0
LINE
  8
0
 10
-2.42671
 20
157.326
 11
-3.44244
 21
158.416
  0
LINE
  8
0
 10
6.44806
 20
158.187
 11
4.90839
 21
159.958
  0
LINE
  8
0
 10
4.90839
 20
159.958
 11
4.51659
 21
160.393
  0
LINE
  8
0
 10
4.51659
 20
160.393
 11
4.56105
 21
160.439
  0
LINE
  8
0
 10
4.56105
 20
160.439
 11
6.13931
 21
162.018
  0
LINE
  8
0
 10
6.13931
 20
162.018
 11
7.51125
 21
163.343
  0
LINE
  8
0
 10
7.51125
 20
163.343
 11
8.02959
 21
162.768
  0
LINE
  8
0
 10
8.02959
 20
162.768
 11
9.61783
 21
160.943
  0
LINE
  8
0
 10
9.61783
 20
160.943
 11
10.2686
 21
160.168
  0
LINE
  8
0
 10
10.2686
 20
160.168
 11
9.05687
 21
158.997
  0
LINE
  8
0
 10
9.05687
 20
158.997
 11
7.5309
 21
157.469
  0
LINE
  8
0
 10
7.5309
 20
157.469
 11
7.27432
 21
157.203
  0
LINE
  8
0
 10
7.27432
 20
157.203
 11
6.44806
 21
158.187
  0
LINE
  8
0
 10
-10.1171
 20
160.856
 11
-9.4494
 21
160.211
  0
LINE
  8
0
 10
-9.4494
 20
160.211
 11
-10.7141
 21
158.705
  0
LINE
  8
0
 10
-10.7141
 20
158.705
 11
-10.8845
 21
158.495
  0
LINE
  8
0
 10
-10.8845
 20
158.495
 11
-10.1171
 21
160.856
  0
LINE
  8
0
 10
1.01414
 20
153.464
 11
-0.397369
 21
155.088
  0
LINE
  8
0
 10
-0.397369
 20
155.088
 11
-0.00363159
 21
155.542
  0
LINE
  8
0
 10
-0.00363159
 20
155.542
 11
1.48912
 21
157.2
  0
LINE
  8
0
 10
1.48912
 20
157.2
 11
2.43791
 21
158.218
  0
LINE
  8
0
 10
2.43791
 20
158.218
 11
2.67896
 21
157.951
  0
LINE
  8
0
 10
2.67896
 20
157.951
 11
4.18393
 21
156.219
  0
LINE
  8
0
 10
4.18393
 20
156.219
 11
5.19394
 21
155.016
  0
LINE
  8
0
 10
5.19394
 20
155.016
 11
4.56081
 21
154.336
  0
LINE
  8
0
 10
4.56081
 20
154.336
 11
3.11758
 21
152.731
  0
LINE
  8
0
 10
3.11758
 20
152.731
 11
2.36005
 21
151.859
  0
LINE
  8
0
 10
2.36005
 20
151.859
 11
1.01414
 21
153.464
  0
LINE
  8
0
 10
-7.19368
 20
151.881
 11
-8.62169
 21
153.415
  0
LINE
  8
0
 10
-8.62169
 20
153.415
 11
-9.98811
 21
154.832
  0
LINE
  8
0
 10
-9.98811
 20
154.832
 11
-9.89915
 21
154.946
  0
LINE
  8
0
 10
-9.89915
 20
154.946
 11
-8.41599
 21
156.776
  0
LINE
  8
0
 10
-8.41599
 20
156.776
 11
-7.30855
 21
158.095
  0
LINE
  8
0
 10
-7.30855
 20
158.095
 11
-7.10663
 21
157.893
  0
LINE
  8
0
 10
-7.10663
 20
157.893
 11
-5.60046
 21
156.332
  0
LINE
  8
0
 10
-5.60046
 20
156.332
 11
-4.39333
 21
155.036
  0
LINE
  8
0
 10
-4.39333
 20
155.036
 11
-5.19861
 21
154.077
  0
LINE
  8
0
 10
-5.19861
 20
154.077
 11
-6.63515
 21
152.303
  0
LINE
  8
0
 10
-6.63515
 20
152.303
 11
-7.07115
 21
151.744
  0
LINE
  8
0
 10
-7.07115
 20
151.744
 11
-7.19368
 21
151.881
  0
LINE
  8
0
 10
10.8771
 20
152.72
 11
9.43286
 21
154.568
  0
LINE
  8
0
 10
9.43286
 20
154.568
 11
9.18976
 21
154.868
  0
LINE
  8
0
 10
9.18976
 20
154.868
 11
9.65222
 21
155.348
  0
LINE
  8
0
 10
9.65222
 20
155.348
 11
11.1409
 21
156.839
  0
LINE
  8
0
 10
11.1409
 20
156.839
 11
11.3551
 21
157.046
  0
LINE
  8
0
 10
11.3551
 20
157.046
 11
12.8105
 21
152.567
  0
LINE
  8
0
 10
12.8105
 20
152.567
 11
12.6221
 21
152.378
  0
LINE
  8
0
 10
12.6221
 20
152.378
 11
11.7879
 21
151.512
  0
LINE
  8
0
 10
11.7879
 20
151.512
 11
10.8771
 21
152.72
  0
LINE
  8
0
 10
-3.07468
 20
147.135
 11
-4.41977
 21
148.74
  0
LINE
  8
0
 10
-4.41977
 20
148.74
 11
-5.04691
 21
149.463
  0
LINE
  8
0
 10
-5.04691
 20
149.463
 11
-4.30371
 21
150.415
  0
LINE
  8
0
 10
-4.30371
 20
150.415
 11
-2.90047
 21
152.148
  0
LINE
  8
0
 10
-2.90047
 20
152.148
 11
-2.36803
 21
152.783
  0
LINE
  8
0
 10
-2.36803
 20
152.783
 11
-1.24998
 21
151.496
  0
LINE
  8
0
 10
-1.24998
 20
151.496
 11
0.142715
 21
149.834
  0
LINE
  8
0
 10
0.142715
 20
149.834
 11
0.387024
 21
149.532
  0
LINE
  8
0
 10
0.387024
 20
149.532
 11
0.31691
 21
149.449
  0
LINE
  8
0
 10
0.31691
 20
149.449
 11
-1.03969
 21
147.771
  0
LINE
  8
0
 10
-1.03969
 20
147.771
 11
-2.29214
 21
146.167
  0
LINE
  8
0
 10
-2.29214
 20
146.167
 11
-3.07468
 21
147.135
  0
LINE
  8
0
 10
6.53851
 20
146.515
 11
5.20345
 21
148.288
  0
LINE
  8
0
 10
5.20345
 20
148.288
 11
4.26997
 21
149.483
  0
LINE
  8
0
 10
4.26997
 20
149.483
 11
5.34702
 21
150.724
  0
LINE
  8
0
 10
5.34702
 20
150.724
 11
6.75487
 21
152.29
  0
LINE
  8
0
 10
6.75487
 20
152.29
 11
7.10905
 21
152.67
  0
LINE
  8
0
 10
7.10905
 20
152.67
 11
8.51309
 21
150.873
  0
LINE
  8
0
 10
8.51309
 20
150.873
 11
9.70555
 21
149.291
  0
LINE
  8
0
 10
9.70555
 20
149.291
 11
8.46823
 21
147.914
  0
LINE
  8
0
 10
8.46823
 20
147.914
 11
7.13672
 21
146.378
  0
LINE
  8
0
 10
7.13672
 20
146.378
 11
6.86938
 21
146.059
  0
LINE
  8
0
 10
6.86938
 20
146.059
 11
6.53851
 21
146.515
  0
LINE
  8
0
 10
-12.4594
 20
146.97
 11
-13.8009
 21
148.413
  0
LINE
  8
0
 10
-13.8009
 20
148.413
 11
-14.0695
 21
148.692
  0
LINE
  8
0
 10
-14.0695
 20
148.692
 11
-13.6428
 21
150.005
  0
LINE
  8
0
 10
-13.6428
 20
150.005
 11
-12.7679
 21
151.209
  0
LINE
  8
0
 10
-12.7679
 20
151.209
 11
-11.8437
 21
152.435
  0
LINE
  8
0
 10
-11.8437
 20
152.435
 11
-10.7797
 21
151.331
  0
LINE
  8
0
 10
-10.7797
 20
151.331
 11
-9.38774
 21
149.835
  0
LINE
  8
0
 10
-9.38774
 20
149.835
 11
-8.92912
 21
149.324
  0
LINE
  8
0
 10
-8.92912
 20
149.324
 11
-9.4136
 21
148.681
  0
LINE
  8
0
 10
-9.4136
 20
148.681
 11
-10.7547
 21
146.835
  0
LINE
  8
0
 10
-10.7547
 20
146.835
 11
-11.4485
 21
145.844
  0
LINE
  8
0
 10
-11.4485
 20
145.844
 11
-12.4594
 21
146.97
  0
LINE
  8
0
 10
13.6672
 20
148.951
 11
13.5894
 21
149.058
  0
LINE
  8
0
 10
13.5894
 20
149.058
 11
13.8594
 21
149.339
  0
LINE
  8
0
 10
13.8594
 20
149.339
 11
14.2604
 21
148.104
  0
LINE
  8
0
 10
14.2604
 20
148.104
 11
13.6672
 21
148.951
  0
LINE
  8
0
 10
2.0173
 20
140.487
 11
0.78833
 21
142.182
  0
LINE
  8
0
 10
0.78833
 20
142.182
 11
-0.375366
 21
143.729
  0
LINE
  8
0
 10
-0.375366
 20
143.729
 11
-0.00256348
 21
144.224
  0
LINE
  8
0
 10
-0.00256348
 20
144.224
 11
1.29175
 21
145.883
  0
LINE
  8
0
 10
1.29175
 20
145.883
 11
2.30046
 21
147.131
  0
LINE
  8
0
 10
2.30046
 20
147.131
 11
2.8394
 21
146.441
  0
LINE
  8
0
 10
2.8394
 20
146.441
 11
4.14261
 21
144.709
  0
LINE
  8
0
 10
4.14261
 20
144.709
 11
4.89975
 21
143.666
  0
LINE
  8
0
 10
4.89975
 20
143.666
 11
4.55576
 21
143.24
  0
LINE
  8
0
 10
4.55576
 20
143.24
 11
3.30708
 21
141.638
  0
LINE
  8
0
 10
3.30708
 20
141.638
 11
2.22174
 21
140.195
  0
LINE
  8
0
 10
2.22174
 20
140.195
 11
2.0173
 21
140.487
  0
LINE
  8
0
 10
-7.35349
 20
140.975
 11
-8.59019
 21
142.506
  0
LINE
  8
0
 10
-8.59019
 20
142.506
 11
-9.42488
 21
143.504
  0
LINE
  8
0
 10
-9.42488
 20
143.504
 11
-8.32764
 21
145.072
  0
LINE
  8
0
 10
-8.32764
 20
145.072
 11
-7.01768
 21
146.876
  0
LINE
  8
0
 10
-7.01768
 20
146.876
 11
-6.9044
 21
147.026
  0
LINE
  8
0
 10
-6.9044
 20
147.026
 11
-6.6839
 21
146.772
  0
LINE
  8
0
 10
-6.6839
 20
146.772
 11
-5.3728
 21
145.206
  0
LINE
  8
0
 10
-5.3728
 20
145.206
 11
-4.14424
 21
143.686
  0
LINE
  8
0
 10
-4.14424
 20
143.686
 11
-4.92978
 21
142.603
  0
LINE
  8
0
 10
-4.92978
 20
142.603
 11
-6.16527
 21
140.837
  0
LINE
  8
0
 10
-6.16527
 20
140.837
 11
-6.66644
 21
140.093
  0
LINE
  8
0
 10
-6.66644
 20
140.093
 11
-7.35349
 21
140.975
  0
LINE
  8
0
 10
10.3541
 20
141.062
 11
9.11421
 21
142.902
  0
LINE
  8
0
 10
9.11421
 20
142.902
 11
8.66985
 21
143.537
  0
LINE
  8
0
 10
8.66985
 20
143.537
 11
9.40085
 21
144.41
  0
LINE
  8
0
 10
9.40085
 20
144.41
 11
10.6977
 21
145.906
  0
LINE
  8
0
 10
10.6977
 20
145.906
 11
11.5067
 21
146.807
  0
LINE
  8
0
 10
11.5067
 20
146.807
 11
12.5547
 21
145.311
  0
LINE
  8
0
 10
12.5547
 20
145.311
 11
13.836
 21
143.411
  0
LINE
  8
0
 10
13.836
 20
143.411
 11
13.9475
 21
143.239
  0
LINE
  8
0
 10
13.9475
 20
143.239
 11
13.8189
 21
143.096
  0
LINE
  8
0
 10
13.8189
 20
143.096
 11
12.5706
 21
141.655
  0
LINE
  8
0
 10
12.5706
 20
141.655
 11
11.348
 21
140.192
  0
LINE
  8
0
 10
11.348
 20
140.192
 11
11.11
 21
139.897
  0
LINE
  8
0
 10
11.11
 20
139.897
 11
10.3541
 21
141.062
  0
LINE
  8
0
 10
-16.4942
 20
140.687
 11
-16.6236
 21
140.831
  0
LINE
  8
0
 10
-16.6236
 20
140.831
 11
-15.1278
 21
145.435
  0
LINE
  8
0
 10
-15.1278
 20
145.435
 11
-14.6535
 21
144.924
  0
LINE
  8
0
 10
-14.6535
 20
144.924
 11
-13.373
 21
143.497
  0
LINE
  8
0
 10
-13.373
 20
143.497
 11
-13.1936
 21
143.29
  0
LINE
  8
0
 10
-13.1936
 20
143.29
 11
-13.3386
 21
143.075
  0
LINE
  8
0
 10
-13.3386
 20
143.075
 11
-14.5807
 21
141.163
  0
LINE
  8
0
 10
-14.5807
 20
141.163
 11
-15.5555
 21
139.602
  0
LINE
  8
0
 10
-15.5555
 20
139.602
 11
-16.4942
 21
140.687
  0
LINE
  8
0
 10
-2.68158
 20
134.642
 11
-3.80762
 21
136.255
  0
LINE
  8
0
 10
-3.80762
 20
136.255
 11
-4.75421
 21
137.562
  0
LINE
  8
0
 10
-4.75421
 20
137.562
 11
-3.70781
 21
139.116
  0
LINE
  8
0
 10
-3.70781
 20
139.116
 11
-2.50272
 21
140.84
  0
LINE
  8
0
 10
-2.50272
 20
140.84
 11
-2.23434
 21
141.21
  0
LINE
  8
0
 10
-2.23434
 20
141.21
 11
-1.60757
 21
140.376
  0
LINE
  8
0
 10
-1.60757
 20
140.376
 11
-0.409744
 21
138.724
  0
LINE
  8
0
 10
-0.409744
 20
138.724
 11
0.365921
 21
137.614
  0
LINE
  8
0
 10
0.365921
 20
137.614
 11
-0.26738
 21
136.707
  0
LINE
  8
0
 10
-0.26738
 20
136.707
 11
-1.40048
 21
135.023
  0
LINE
  8
0
 10
-1.40048
 20
135.023
 11
-2.15475
 21
133.859
  0
LINE
  8
0
 10
-2.15475
 20
133.859
 11
-2.68158
 21
134.642
  0
LINE
  8
0
 10
5.52304
 20
135.28
 11
4.38501
 21
137.036
  0
LINE
  8
0
 10
4.38501
 20
137.036
 11
4.02249
 21
137.574
  0
LINE
  8
0
 10
4.02249
 20
137.574
 11
4.48267
 21
138.21
  0
LINE
  8
0
 10
4.48267
 20
138.21
 11
5.67111
 21
139.791
  0
LINE
  8
0
 10
5.67111
 20
139.791
 11
6.70166
 21
141.114
  0
LINE
  8
0
 10
6.70166
 20
141.114
 11
7.86697
 21
139.385
  0
LINE
  8
0
 10
7.86697
 20
139.385
 11
9.04546
 21
137.568
  0
LINE
  8
0
 10
9.04546
 20
137.568
 11
9.14218
 21
137.413
  0
LINE
  8
0
 10
9.14218
 20
137.413
 11
8.98076
 21
137.206
  0
LINE
  8
0
 10
8.98076
 20
137.206
 11
7.83693
 21
135.682
  0
LINE
  8
0
 10
7.83693
 20
135.682
 11
6.72008
 21
134.139
  0
LINE
  8
0
 10
6.72008
 20
134.139
 11
6.46393
 21
133.772
  0
LINE
  8
0
 10
6.46393
 20
133.772
 11
5.52304
 21
135.28
  0
LINE
  8
0
 10
-11.8176
 20
134.989
 11
-12.9489
 21
136.444
  0
LINE
  8
0
 10
-12.9489
 20
136.444
 11
-13.5299
 21
137.164
  0
LINE
  8
0
 10
-13.5299
 20
137.164
 11
-13.2449
 21
137.639
  0
LINE
  8
0
 10
-13.2449
 20
137.639
 11
-12.0647
 21
139.529
  0
LINE
  8
0
 10
-12.0647
 20
139.529
 11
-11.1671
 21
140.911
  0
LINE
  8
0
 10
-11.1671
 20
140.911
 11
-10.8883
 21
140.578
  0
LINE
  8
0
 10
-10.8883
 20
140.578
 11
-9.68492
 21
139.087
  0
LINE
  8
0
 10
-9.68492
 20
139.087
 11
-8.50795
 21
137.575
  0
LINE
  8
0
 10
-8.50795
 20
137.575
 11
-8.41017
 21
137.445
  0
LINE
  8
0
 10
-8.41017
 20
137.445
 11
-8.54227
 21
137.241
  0
LINE
  8
0
 10
-8.54227
 20
137.241
 11
-9.68304
 21
135.413
  0
LINE
  8
0
 10
-9.68304
 20
135.413
 11
-10.773
 21
133.597
  0
LINE
  8
0
 10
-10.773
 20
133.597
 11
-11.8176
 21
134.989
  0
LINE
  8
0
 10
14.9852
 20
133.5
 11
13.8774
 21
135.42
  0
LINE
  8
0
 10
13.8774
 20
135.42
 11
12.7999
 21
137.215
  0
LINE
  8
0
 10
12.7999
 20
137.215
 11
13.6461
 21
138.264
  0
LINE
  8
0
 10
13.6461
 20
138.264
 11
14.8348
 21
139.687
  0
LINE
  8
0
 10
14.8348
 20
139.687
 11
15.6337
 21
140.609
  0
LINE
  8
0
 10
15.6337
 20
140.609
 11
16.2978
 21
139.547
  0
LINE
  8
0
 10
16.2978
 20
139.547
 11
17.4775
 21
137.583
  0
LINE
  8
0
 10
17.4775
 20
137.583
 11
17.9155
 21
136.825
  0
LINE
  8
0
 10
17.9155
 20
136.825
 11
16.8635
 21
135.564
  0
LINE
  8
0
 10
16.8635
 20
135.564
 11
15.7467
 21
134.178
  0
LINE
  8
0
 10
15.7467
 20
134.178
 11
15.0827
 21
133.324
  0
LINE
  8
0
 10
15.0827
 20
133.324
 11
14.9852
 21
133.5
  0
LINE
  8
0
 10
-17.7053
 20
137.502
 11
-17.5517
 21
137.325
  0
LINE
  8
0
 10
-17.5517
 20
137.325
 11
-17.1865
 21
136.887
  0
LINE
  8
0
 10
-17.1865
 20
136.887
 11
-18.1029
 21
135.3
  0
LINE
  8
0
 10
-18.1029
 20
135.3
 11
-18.8712
 21
133.914
  0
LINE
  8
0
 10
-18.8712
 20
133.914
 11
-17.7053
 21
137.502
  0
LINE
  8
0
 10
1.53418
 20
128.004
 11
0.524124
 21
129.69
  0
LINE
  8
0
 10
0.524124
 20
129.69
 11
-0.353394
 21
131.099
  0
LINE
  8
0
 10
-0.353394
 20
131.099
 11
0.0121765
 21
131.686
  0
LINE
  8
0
 10
0.0121765
 20
131.686
 11
1.08662
 21
133.345
  0
LINE
  8
0
 10
1.08662
 20
133.345
 11
2.16411
 21
134.948
  0
LINE
  8
0
 10
2.16411
 20
134.948
 11
3.00703
 21
133.647
  0
LINE
  8
0
 10
3.00703
 20
133.647
 11
4.08594
 21
131.916
  0
LINE
  8
0
 10
4.08594
 20
131.916
 11
4.60463
 21
131.05
  0
LINE
  8
0
 10
4.60463
 20
131.05
 11
4.56859
 21
130.997
  0
LINE
  8
0
 10
4.56859
 20
130.997
 11
3.53459
 21
129.398
  0
LINE
  8
0
 10
3.53459
 20
129.398
 11
2.52884
 21
127.782
  0
LINE
  8
0
 10
2.52884
 20
127.782
 11
2.08664
 21
127.043
  0
LINE
  8
0
 10
2.08664
 20
127.043
 11
1.53418
 21
128.004
  0
LINE
  8
0
 10
-6.5538
 20
127.438
 11
-7.55313
 21
128.984
  0
LINE
  8
0
 10
-7.55313
 20
128.984
 11
-8.57947
 21
130.512
  0
LINE
  8
0
 10
-8.57947
 20
130.512
 11
-8.85864
 21
130.913
  0
LINE
  8
0
 10
-8.85864
 20
130.913
 11
-8.22008
 21
132.021
  0
LINE
  8
0
 10
-8.22008
 20
132.021
 11
-7.1389
 21
133.823
  0
LINE
  8
0
 10
-7.1389
 20
133.823
 11
-6.49644
 21
134.853
  0
LINE
  8
0
 10
-6.49644
 20
134.853
 11
-6.23466
 21
134.492
  0
LINE
  8
0
 10
-6.23466
 20
134.492
 11
-5.13902
 21
132.921
  0
LINE
  8
0
 10
-5.13902
 20
132.921
 11
-4.07117
 21
131.332
  0
LINE
  8
0
 10
-4.07117
 20
131.332
 11
-3.89731
 21
131.064
  0
LINE
  8
0
 10
-3.89731
 20
131.064
 11
-4.61998
 21
129.858
  0
LINE
  8
0
 10
-4.61998
 20
129.858
 11
-5.63214
 21
128.1
  0
LINE
  8
0
 10
-5.63214
 20
128.1
 11
-6.25974
 21
126.965
  0
LINE
  8
0
 10
-6.25974
 20
126.965
 11
-6.5538
 21
127.438
  0
LINE
  8
0
 10
9.76195
 20
128.07
 11
8.74983
 21
129.9
  0
LINE
  8
0
 10
8.74983
 20
129.9
 11
8.14859
 21
130.943
  0
LINE
  8
0
 10
8.14859
 20
130.943
 11
9.14713
 21
132.376
  0
LINE
  8
0
 10
9.14713
 20
132.376
 11
10.2328
 21
133.877
  0
LINE
  8
0
 10
10.2328
 20
133.877
 11
10.8285
 21
134.67
  0
LINE
  8
0
 10
10.8285
 20
134.67
 11
11.3059
 21
133.875
  0
LINE
  8
0
 10
11.3059
 20
133.875
 11
12.3871
 21
132
  0
LINE
  8
0
 10
12.3871
 20
132
 11
13.1117
 21
130.691
  0
LINE
  8
0
 10
13.1117
 20
130.691
 11
12.545
 21
129.907
  0
LINE
  8
0
 10
12.545
 20
129.907
 11
11.5284
 21
128.447
  0
LINE
  8
0
 10
11.5284
 20
128.447
 11
10.5377
 21
126.971
  0
LINE
  8
0
 10
10.5377
 20
126.971
 11
10.4322
 21
126.807
  0
LINE
  8
0
 10
10.4322
 20
126.807
 11
9.76195
 21
128.07
  0
LINE
  8
0
 10
-15.4575
 20
127.791
 11
-16.4622
 21
129.182
  0
LINE
  8
0
 10
-16.4622
 20
129.182
 11
-17.3632
 21
130.386
  0
LINE
  8
0
 10
-17.3632
 20
130.386
 11
-16.584
 21
131.852
  0
LINE
  8
0
 10
-16.584
 20
131.852
 11
-15.5048
 21
133.8
  0
LINE
  8
0
 10
-15.5048
 20
133.8
 11
-15.1589
 21
134.399
  0
LINE
  8
0
 10
-15.1589
 20
134.399
 11
-14.1816
 21
133.142
  0
LINE
  8
0
 10
-14.1816
 20
133.142
 11
-13.1079
 21
131.71
  0
LINE
  8
0
 10
-13.1079
 20
131.71
 11
-12.4023
 21
130.734
  0
LINE
  8
0
 10
-12.4023
 20
130.734
 11
-12.9106
 21
129.816
  0
LINE
  8
0
 10
-12.9106
 20
129.816
 11
-13.9204
 21
127.914
  0
LINE
  8
0
 10
-13.9204
 20
127.914
 11
-14.6058
 21
126.567
  0
LINE
  8
0
 10
-14.6058
 20
126.567
 11
-15.4575
 21
127.791
  0
LINE
  8
0
 10
18.1044
 20
127.63
 11
17.099
 21
129.604
  0
LINE
  8
0
 10
17.099
 20
129.604
 11
16.6547
 21
130.44
  0
LINE
  8
0
 10
16.6547
 20
130.44
 11
17.0185
 21
130.926
  0
LINE
  8
0
 10
17.0185
 20
130.926
 11
18.0781
 21
132.29
  0
LINE
  8
0
 10
18.0781
 20
132.29
 11
19.019
 21
133.459
  0
LINE
  8
0
 10
19.019
 20
133.459
 11
20.5777
 21
128.662
  0
LINE
  8
0
 10
20.5777
 20
128.662
 11
20.3281
 21
128.34
  0
LINE
  8
0
 10
20.3281
 20
128.34
 11
19.3373
 21
127.016
  0
LINE
  8
0
 10
19.3373
 20
127.016
 11
18.7799
 21
126.243
  0
LINE
  8
0
 10
18.7799
 20
126.243
 11
18.1044
 21
127.63
  0
LINE
  8
0
 10
-2.83258
 20
121.089
 11
-3.72093
 21
122.7
  0
LINE
  8
0
 10
-3.72093
 20
122.7
 11
-4.45898
 21
123.985
  0
LINE
  8
0
 10
-4.45898
 20
123.985
 11
-3.98946
 21
124.871
  0
LINE
  8
0
 10
-3.98946
 20
124.871
 11
-3.03407
 21
126.6
  0
LINE
  8
0
 10
-3.03407
 20
126.6
 11
-2.09828
 21
128.226
  0
LINE
  8
0
 10
-2.09828
 20
128.226
 11
-2.02002
 21
128.1
  0
LINE
  8
0
 10
-2.02002
 20
128.1
 11
-1.03732
 21
126.458
  0
LINE
  8
0
 10
-1.03732
 20
126.458
 11
-0.0836182
 21
124.8
  0
LINE
  8
0
 10
-0.0836182
 20
124.8
 11
0.342636
 21
124.028
  0
LINE
  8
0
 10
0.342636
 20
124.028
 11
-0.316055
 21
122.835
  0
LINE
  8
0
 10
-0.316055
 20
122.835
 11
-1.20596
 21
121.154
  0
LINE
  8
0
 10
-1.20596
 20
121.154
 11
-2.01892
 21
119.551
  0
LINE
  8
0
 10
-2.01892
 20
119.551
 11
-2.83258
 21
121.089
  0
LINE
  8
0
 10
5.27386
 20
121.092
 11
4.38457
 21
122.844
  0
LINE
  8
0
 10
4.38457
 20
122.844
 11
3.77382
 21
123.996
  0
LINE
  8
0
 10
3.77382
 20
123.996
 11
4.12312
 21
124.604
  0
LINE
  8
0
 10
4.12312
 20
124.604
 11
5.07298
 21
126.193
  0
LINE
  8
0
 10
5.07298
 20
126.193
 11
6.05061
 21
127.764
  0
LINE
  8
0
 10
6.05061
 20
127.764
 11
6.29454
 21
128.142
  0
LINE
  8
0
 10
6.29454
 20
128.142
 11
7.13808
 21
126.616
  0
LINE
  8
0
 10
7.13808
 20
126.616
 11
8.09296
 21
124.815
  0
LINE
  8
0
 10
8.09296
 20
124.815
 11
8.575
 21
123.867
  0
LINE
  8
0
 10
8.575
 20
123.867
 11
7.72324
 21
122.441
  0
LINE
  8
0
 10
7.72324
 20
122.441
 11
6.83862
 21
120.9
  0
LINE
  8
0
 10
6.83862
 20
120.9
 11
6.05675
 21
119.481
  0
LINE
  8
0
 10
6.05675
 20
119.481
 11
5.27386
 21
121.092
  0
LINE
  8
0
 10
-10.809
 20
120.587
 11
-11.6878
 21
122.059
  0
LINE
  8
0
 10
-11.6878
 20
122.059
 11
-12.5922
 21
123.516
  0
LINE
  8
0
 10
-12.5922
 20
123.516
 11
-12.6921
 21
123.671
  0
LINE
  8
0
 10
-12.6921
 20
123.671
 11
-12.2237
 21
124.633
  0
LINE
  8
0
 10
-12.2237
 20
124.633
 11
-11.2716
 21
126.506
  0
LINE
  8
0
 10
-11.2716
 20
126.506
 11
-10.4906
 21
127.977
  0
LINE
  8
0
 10
-10.4906
 20
127.977
 11
-10.0402
 21
127.306
  0
LINE
  8
0
 10
-10.0402
 20
127.306
 11
-9.06982
 21
125.804
  0
LINE
  8
0
 10
-9.06982
 20
125.804
 11
-8.12596
 21
124.285
  0
LINE
  8
0
 10
-8.12596
 20
124.285
 11
-7.89015
 21
123.89
  0
LINE
  8
0
 10
-7.89015
 20
123.89
 11
-8.48149
 21
122.726
  0
LINE
  8
0
 10
-8.48149
 20
122.726
 11
-9.36795
 21
120.904
  0
LINE
  8
0
 10
-9.36795
 20
120.904
 11
-10.0945
 21
119.341
  0
LINE
  8
0
 10
-10.0945
 20
119.341
 11
-10.809
 21
120.587
  0
LINE
  8
0
 10
13.485
 20
120.587
 11
12.6036
 21
122.482
  0
LINE
  8
0
 10
12.6036
 20
122.482
 11
12.0061
 21
123.709
  0
LINE
  8
0
 10
12.0061
 20
123.709
 11
12.089
 21
123.843
  0
LINE
  8
0
 10
12.089
 20
123.843
 11
13.0248
 21
125.293
  0
LINE
  8
0
 10
13.0248
 20
125.293
 11
13.9859
 21
126.727
  0
LINE
  8
0
 10
13.9859
 20
126.727
 11
14.6859
 21
127.733
  0
LINE
  8
0
 10
14.6859
 20
127.733
 11
15.4313
 21
126.268
  0
LINE
  8
0
 10
15.4313
 20
126.268
 11
16.3786
 21
124.323
  0
LINE
  8
0
 10
16.3786
 20
124.323
 11
16.8098
 21
123.397
  0
LINE
  8
0
 10
16.8098
 20
123.397
 11
16.5067
 21
122.944
  0
LINE
  8
0
 10
16.5067
 20
122.944
 11
15.6115
 21
121.556
  0
LINE
  8
0
 10
15.6115
 20
121.556
 11
14.7407
 21
120.152
  0
LINE
  8
0
 10
14.7407
 20
120.152
 11
14.1321
 21
119.131
  0
LINE
  8
0
 10
14.1321
 20
119.131
 11
13.485
 21
120.587
  0
LINE
  8
0
 10
-18.6307
 20
119.595
 11
-19.4913
 21
120.931
  0
LINE
  8
0
 10
-19.4913
 20
120.931
 11
-20.3753
 21
122.253
  0
LINE
  8
0
 10
-20.3753
 20
122.253
 11
-20.9267
 21
123.047
  0
LINE
  8
0
 10
-20.9267
 20
123.047
 11
-20.5542
 21
123.884
  0
LINE
  8
0
 10
-20.5542
 20
123.884
 11
-19.6142
 21
125.901
  0
LINE
  8
0
 10
-19.6142
 20
125.901
 11
-18.8803
 21
127.407
  0
LINE
  8
0
 10
-18.8803
 20
127.407
 11
-18.8581
 21
127.377
  0
LINE
  8
0
 10
-18.8581
 20
127.377
 11
-17.8845
 21
126.028
  0
LINE
  8
0
 10
-17.8845
 20
126.028
 11
-16.9348
 21
124.662
  0
LINE
  8
0
 10
-16.9348
 20
124.662
 11
-16.1233
 21
123.45
  0
LINE
  8
0
 10
-16.1233
 20
123.45
 11
-16.7477
 21
122.109
  0
LINE
  8
0
 10
-16.7477
 20
122.109
 11
-17.6219
 21
120.142
  0
LINE
  8
0
 10
-17.6219
 20
120.142
 11
-18.1695
 21
118.85
  0
LINE
  8
0
 10
-18.1695
 20
118.85
 11
-18.6307
 21
119.595
  0
LINE
  8
0
 10
21.7752
 20
119.568
 11
20.9106
 21
121.607
  0
LINE
  8
0
 10
20.9106
 20
121.607
 11
20.2412
 21
123.112
  0
LINE
  8
0
 10
20.2412
 20
123.112
 11
20.797
 21
123.912
  0
LINE
  8
0
 10
20.797
 20
123.912
 11
21.7097
 21
125.178
  0
LINE
  8
0
 10
21.7097
 20
125.178
 11
23.3289
 21
120.195
  0
LINE
  8
0
 10
23.3289
 20
120.195
 11
23.3242
 21
120.188
  0
LINE
  8
0
 10
23.3242
 20
120.188
 11
22.4758
 21
118.918
  0
LINE
  8
0
 10
22.4758
 20
118.918
 11
22.2066
 21
118.5
  0
LINE
  8
0
 10
22.2066
 20
118.5
 11
21.7752
 21
119.568
  0
LINE
  8
0
 10
1.89233
 20
111.128
 11
1.17805
 21
112.821
  0
LINE
  8
0
 10
1.17805
 20
112.821
 11
0.434204
 21
114.502
  0
LINE
  8
0
 10
0.434204
 20
114.502
 11
-0.330627
 21
116.151
  0
LINE
  8
0
 10
-0.330627
 20
116.151
 11
-0.200256
 21
116.432
  0
LINE
  8
0
 10
-0.200256
 20
116.432
 11
0.606781
 21
118.096
  0
LINE
  8
0
 10
0.606781
 20
118.096
 11
1.44289
 21
119.745
  0
LINE
  8
0
 10
1.44289
 20
119.745
 11
2.03008
 21
120.855
  0
LINE
  8
0
 10
2.03008
 20
120.855
 11
2.60085
 21
119.73
  0
LINE
  8
0
 10
2.60085
 20
119.73
 11
3.43591
 21
118.01
  0
LINE
  8
0
 10
3.43591
 20
118.01
 11
4.24069
 21
116.277
  0
LINE
  8
0
 10
4.24069
 20
116.277
 11
4.31273
 21
116.114
  0
LINE
  8
0
 10
4.31273
 20
116.114
 11
3.57468
 21
114.591
  0
LINE
  8
0
 10
3.57468
 20
114.591
 11
2.82851
 21
112.98
  0
LINE
  8
0
 10
2.82851
 20
112.98
 11
2.1107
 21
111.357
  0
LINE
  8
0
 10
2.1107
 20
111.357
 11
1.95186
 21
110.98
  0
LINE
  8
0
 10
1.95186
 20
110.98
 11
1.89233
 21
111.128
  0
LINE
  8
0
 10
-6.09122
 20
111.459
 11
-6.81033
 21
113.013
  0
LINE
  8
0
 10
-6.81033
 20
113.013
 11
-7.55663
 21
114.555
  0
LINE
  8
0
 10
-7.55663
 20
114.555
 11
-8.29477
 21
116.014
  0
LINE
  8
0
 10
-8.29477
 20
116.014
 11
-7.5034
 21
117.798
  0
LINE
  8
0
 10
-7.5034
 20
117.798
 11
-6.67157
 21
119.589
  0
LINE
  8
0
 10
-6.67157
 20
119.589
 11
-6.09019
 21
120.785
  0
LINE
  8
0
 10
-6.09019
 20
120.785
 11
-5.45644
 21
119.635
  0
LINE
  8
0
 10
-5.45644
 20
119.635
 11
-4.62149
 21
118.055
  0
LINE
  8
0
 10
-4.62149
 20
118.055
 11
-3.81441
 21
116.461
  0
LINE
  8
0
 10
-3.81441
 20
116.461
 11
-3.65048
 21
116.123
  0
LINE
  8
0
 10
-3.65048
 20
116.123
 11
-3.69691
 21
116.023
  0
LINE
  8
0
 10
-3.69691
 20
116.023
 11
-4.46683
 21
114.285
  0
LINE
  8
0
 10
-4.46683
 20
114.285
 11
-5.20615
 21
112.535
  0
LINE
  8
0
 10
-5.20615
 20
112.535
 11
-5.85429
 21
110.922
  0
LINE
  8
0
 10
-5.85429
 20
110.922
 11
-6.09122
 21
111.459
  0
LINE
  8
0
 10
9.25255
 20
112.121
 11
8.51997
 21
113.942
  0
LINE
  8
0
 10
8.51997
 20
113.942
 11
7.75558
 21
115.75
  0
LINE
  8
0
 10
7.75558
 20
115.75
 11
7.63098
 21
116.031
  0
LINE
  8
0
 10
7.63098
 20
116.031
 11
7.80011
 21
116.365
  0
LINE
  8
0
 10
7.80011
 20
116.365
 11
8.60507
 21
117.889
  0
LINE
  8
0
 10
8.60507
 20
117.889
 11
9.43669
 21
119.4
  0
LINE
  8
0
 10
9.43669
 20
119.4
 11
10.1502
 21
120.644
  0
LINE
  8
0
 10
10.1502
 20
120.644
 11
10.7661
 21
119.32
  0
LINE
  8
0
 10
10.7661
 20
119.32
 11
11.5925
 21
117.458
  0
LINE
  8
0
 10
11.5925
 20
117.458
 11
12.2746
 21
115.846
  0
LINE
  8
0
 10
12.2746
 20
115.846
 11
11.5085
 21
114.393
  0
LINE
  8
0
 10
11.5085
 20
114.393
 11
10.7643
 21
112.92
  0
LINE
  8
0
 10
10.7643
 20
112.92
 11
10.046
 21
111.435
  0
LINE
  8
0
 10
10.046
 20
111.435
 11
9.75517
 21
110.806
  0
LINE
  8
0
 10
9.75517
 20
110.806
 11
9.25255
 21
112.121
  0
LINE
  8
0
 10
-13.9719
 20
111.286
 11
-14.6871
 21
112.703
  0
LINE
  8
0
 10
-14.6871
 20
112.703
 11
-15.4271
 21
114.108
  0
LINE
  8
0
 10
-15.4271
 20
114.108
 11
-16.1917
 21
115.5
  0
LINE
  8
0
 10
-16.1917
 20
115.5
 11
-16.2554
 21
115.611
  0
LINE
  8
0
 10
-16.2554
 20
115.611
 11
-15.6999
 21
116.989
  0
LINE
  8
0
 10
-15.6999
 20
116.989
 11
-14.8812
 21
118.922
  0
LINE
  8
0
 10
-14.8812
 20
118.922
 11
-14.2101
 21
120.433
  0
LINE
  8
0
 10
-14.2101
 20
120.433
 11
-13.3805
 21
119.042
  0
LINE
  8
0
 10
-13.3805
 20
119.042
 11
-12.5544
 21
117.6
  0
LINE
  8
0
 10
-12.5544
 20
117.6
 11
-11.7537
 21
116.144
  0
LINE
  8
0
 10
-11.7537
 20
116.144
 11
-11.6113
 21
115.874
  0
LINE
  8
0
 10
-11.6113
 20
115.874
 11
-11.8338
 21
115.348
  0
LINE
  8
0
 10
-11.8338
 20
115.348
 11
-12.5904
 21
113.469
  0
LINE
  8
0
 10
-12.5904
 20
113.469
 11
-13.314
 21
111.578
  0
LINE
  8
0
 10
-13.314
 20
111.578
 11
-13.6566
 21
110.633
  0
LINE
  8
0
 10
-13.6566
 20
110.633
 11
-13.9719
 21
111.286
  0
LINE
  8
0
 10
17.3872
 20
110.906
 11
16.6749
 21
112.868
  0
LINE
  8
0
 10
16.6749
 20
112.868
 11
15.9283
 21
114.818
  0
LINE
  8
0
 10
15.9283
 20
114.818
 11
15.5915
 21
115.653
  0
LINE
  8
0
 10
15.5915
 20
115.653
 11
15.6721
 21
115.8
  0
LINE
  8
0
 10
15.6721
 20
115.8
 11
16.4663
 21
117.188
  0
LINE
  8
0
 10
16.4663
 20
117.188
 11
17.2849
 21
118.562
  0
LINE
  8
0
 10
17.2849
 20
118.562
 11
18.1275
 21
119.922
  0
LINE
  8
0
 10
18.1275
 20
119.922
 11
18.272
 21
120.146
  0
LINE
  8
0
 10
18.272
 20
120.146
 11
19.0137
 21
118.396
  0
LINE
  8
0
 10
19.0137
 20
118.396
 11
19.8224
 21
116.391
  0
LINE
  8
0
 10
19.8224
 20
116.391
 11
20.2366
 21
115.311
  0
LINE
  8
0
 10
20.2366
 20
115.311
 11
20.0664
 21
115.025
  0
LINE
  8
0
 10
20.0664
 20
115.025
 11
19.3094
 21
113.7
  0
LINE
  8
0
 10
19.3094
 20
113.7
 11
18.5757
 21
112.363
  0
LINE
  8
0
 10
18.5757
 20
112.363
 11
17.8657
 21
111.013
  0
LINE
  8
0
 10
17.8657
 20
111.013
 11
17.5592
 21
110.405
  0
LINE
  8
0
 10
17.5592
 20
110.405
 11
17.3872
 21
110.906
  0
LINE
  8
0
 10
-21.7244
 20
110.617
 11
-22.4271
 21
111.9
  0
LINE
  8
0
 10
-22.4271
 20
111.9
 11
-23.1522
 21
113.17
  0
LINE
  8
0
 10
-23.1522
 20
113.17
 11
-23.8997
 21
114.428
  0
LINE
  8
0
 10
-23.8997
 20
114.428
 11
-24.2184
 21
114.944
  0
LINE
  8
0
 10
-24.2184
 20
114.944
 11
-23.9568
 21
115.663
  0
LINE
  8
0
 10
-23.9568
 20
115.663
 11
-23.1603
 21
117.74
  0
LINE
  8
0
 10
-23.1603
 20
117.74
 11
-22.3342
 21
119.786
  0
LINE
  8
0
 10
-22.3342
 20
119.786
 11
-21.9784
 21
119.254
  0
LINE
  8
0
 10
-21.9784
 20
119.254
 11
-21.1467
 21
117.961
  0
LINE
  8
0
 10
-21.1467
 20
117.961
 11
-20.3379
 21
116.654
  0
LINE
  8
0
 10
-20.3379
 20
116.654
 11
-19.5723
 21
115.368
  0
LINE
  8
0
 10
-19.5723
 20
115.368
 11
-20.0358
 21
114.158
  0
LINE
  8
0
 10
-20.0358
 20
114.158
 11
-20.7701
 21
112.137
  0
LINE
  8
0
 10
-20.7701
 20
112.137
 11
-21.4632
 21
110.12
  0
LINE
  8
0
 10
-21.4632
 20
110.12
 11
-21.7244
 21
110.617
  0
LINE
  8
0
 10
24.8728
 20
111.276
 11
24.153
 21
113.368
  0
LINE
  8
0
 10
24.153
 20
113.368
 11
23.5552
 21
115.012
  0
LINE
  8
0
 10
23.5552
 20
115.012
 11
24.1659
 21
116
  0
LINE
  8
0
 10
24.1659
 20
116
 11
24.5151
 21
116.544
  0
LINE
  8
0
 10
24.5151
 20
116.544
 11
26.2225
 21
111.289
  0
LINE
  8
0
 10
26.2225
 20
111.289
 11
25.5448
 21
110.1
  0
LINE
  8
0
 10
25.5448
 20
110.1
 11
25.3625
 21
109.767
  0
LINE
  8
0
 10
25.3625
 20
109.767
 11
24.8728
 21
111.276
  0
LINE
  8
0
 10
-2.35809
 20
101.899
 11
-2.91013
 21
103.518
  0
LINE
  8
0
 10
-2.91013
 20
103.518
 11
-3.49045
 21
105.127
  0
LINE
  8
0
 10
-3.49045
 20
105.127
 11
-4.09891
 21
106.726
  0
LINE
  8
0
 10
-4.09891
 20
106.726
 11
-4.16463
 21
106.89
  0
LINE
  8
0
 10
-4.16463
 20
106.89
 11
-3.79147
 21
107.922
  0
LINE
  8
0
 10
-3.79147
 20
107.922
 11
-3.13313
 21
109.648
  0
LINE
  8
0
 10
-3.13313
 20
109.648
 11
-2.44464
 21
111.363
  0
LINE
  8
0
 10
-2.44464
 20
111.363
 11
-1.96249
 21
112.505
  0
LINE
  8
0
 10
-1.96249
 20
112.505
 11
-1.56258
 21
111.601
  0
LINE
  8
0
 10
-1.56258
 20
111.601
 11
-0.869186
 21
109.956
  0
LINE
  8
0
 10
-0.869186
 20
109.956
 11
-0.204727
 21
108.3
  0
LINE
  8
0
 10
-0.204727
 20
108.3
 11
0.321014
 21
106.92
  0
LINE
  8
0
 10
0.321014
 20
106.92
 11
0.129562
 21
106.417
  0
LINE
  8
0
 10
0.129562
 20
106.417
 11
-0.472763
 21
104.749
  0
LINE
  8
0
 10
-0.472763
 20
104.749
 11
-1.04578
 21
103.071
  0
LINE
  8
0
 10
-1.04578
 20
103.071
 11
-1.58929
 21
101.384
  0
LINE
  8
0
 10
-1.58929
 20
101.384
 11
-1.88177
 21
100.418
  0
LINE
  8
0
 10
-1.88177
 20
100.418
 11
-2.35809
 21
101.899
  0
LINE
  8
0
 10
5.54587
 20
100.74
 11
5.01309
 21
102.496
  0
LINE
  8
0
 10
5.01309
 20
102.496
 11
4.44963
 21
104.243
  0
LINE
  8
0
 10
4.44963
 20
104.243
 11
3.85565
 21
105.981
  0
LINE
  8
0
 10
3.85565
 20
105.981
 11
3.52318
 21
106.9
  0
LINE
  8
0
 10
3.52318
 20
106.9
 11
3.54259
 21
106.951
  0
LINE
  8
0
 10
3.54259
 20
106.951
 11
4.183
 21
108.55
  0
LINE
  8
0
 10
4.183
 20
108.55
 11
4.85135
 21
110.137
  0
LINE
  8
0
 10
4.85135
 20
110.137
 11
5.54742
 21
111.712
  0
LINE
  8
0
 10
5.54742
 20
111.712
 11
5.88776
 21
112.448
  0
LINE
  8
0
 10
5.88776
 20
112.448
 11
6.47099
 21
110.997
  0
LINE
  8
0
 10
6.47099
 20
110.997
 11
7.15236
 21
109.213
  0
LINE
  8
0
 10
7.15236
 20
109.213
 11
7.80237
 21
107.417
  0
LINE
  8
0
 10
7.80237
 20
107.417
 11
8.00998
 21
106.811
  0
LINE
  8
0
 10
8.00998
 20
106.811
 11
7.43677
 21
105.378
  0
LINE
  8
0
 10
7.43677
 20
105.378
 11
6.85135
 21
103.837
  0
LINE
  8
0
 10
6.85135
 20
103.837
 11
6.29303
 21
102.287
  0
LINE
  8
0
 10
6.29303
 20
102.287
 11
5.76196
 21
100.727
  0
LINE
  8
0
 10
5.76196
 20
100.727
 11
5.64929
 21
100.376
  0
LINE
  8
0
 10
5.64929
 20
100.376
 11
5.54587
 21
100.74
  0
LINE
  8
0
 10
-9.67592
 20
101.055
 11
-10.2122
 21
102.547
  0
LINE
  8
0
 10
-10.2122
 20
102.547
 11
-10.7746
 21
104.029
  0
LINE
  8
0
 10
-10.7746
 20
104.029
 11
-11.3629
 21
105.502
  0
LINE
  8
0
 10
-11.3629
 20
105.502
 11
-11.8578
 21
106.68
  0
LINE
  8
0
 10
-11.8578
 20
106.68
 11
-11.8247
 21
106.783
  0
LINE
  8
0
 10
-11.8247
 20
106.783
 11
-11.1853
 21
108.648
  0
LINE
  8
0
 10
-11.1853
 20
108.648
 11
-10.5132
 21
110.503
  0
LINE
  8
0
 10
-10.5132
 20
110.503
 11
-9.81375
 21
112.333
  0
LINE
  8
0
 10
-9.81375
 20
112.333
 11
-9.50671
 21
111.698
  0
LINE
  8
0
 10
-9.50671
 20
111.698
 11
-8.81013
 21
110.191
  0
LINE
  8
0
 10
-8.81013
 20
110.191
 11
-8.14011
 21
108.673
  0
LINE
  8
0
 10
-8.14011
 20
108.673
 11
-7.49681
 21
107.143
  0
LINE
  8
0
 10
-7.49681
 20
107.143
 11
-7.37033
 21
106.827
  0
LINE
  8
0
 10
-7.37033
 20
106.827
 11
-7.8535
 21
105.415
  0
LINE
  8
0
 10
-7.8535
 20
105.415
 11
-8.4369
 21
103.609
  0
LINE
  8
0
 10
-8.4369
 20
103.609
 11
-8.98857
 21
101.792
  0
LINE
  8
0
 10
-8.98857
 20
101.792
 11
-9.41611
 21
100.291
  0
LINE
  8
0
 10
-9.41611
 20
100.291
 11
-9.67592
 21
101.055
  0
LINE
  8
0
 10
12.9689
 20
100.96
 11
12.4313
 21
102.845
  0
LINE
  8
0
 10
12.4313
 20
102.845
 11
11.8607
 21
104.721
  0
LINE
  8
0
 10
11.8607
 20
104.721
 11
11.2574
 21
106.587
  0
LINE
  8
0
 10
11.2574
 20
106.587
 11
11.2173
 21
106.704
  0
LINE
  8
0
 10
11.2173
 20
106.704
 11
11.4289
 21
107.208
  0
LINE
  8
0
 10
11.4289
 20
107.208
 11
12.0728
 21
108.67
  0
LINE
  8
0
 10
12.0728
 20
108.67
 11
12.7424
 21
110.12
  0
LINE
  8
0
 10
12.7424
 20
110.12
 11
13.4373
 21
111.558
  0
LINE
  8
0
 10
13.4373
 20
111.558
 11
13.7368
 21
112.152
  0
LINE
  8
0
 10
13.7368
 20
112.152
 11
13.8741
 21
111.793
  0
LINE
  8
0
 10
13.8741
 20
111.793
 11
14.5681
 21
109.88
  0
LINE
  8
0
 10
14.5681
 20
109.88
 11
15.2285
 21
107.955
  0
LINE
  8
0
 10
15.2285
 20
107.955
 11
15.7021
 21
106.492
  0
LINE
  8
0
 10
15.7021
 20
106.492
 11
15.2658
 21
105.5
  0
LINE
  8
0
 10
15.2658
 20
105.5
 11
14.6768
 21
104.095
  0
LINE
  8
0
 10
14.6768
 20
104.095
 11
14.1125
 21
102.681
  0
LINE
  8
0
 10
14.1125
 20
102.681
 11
13.5731
 21
101.257
  0
LINE
  8
0
 10
13.5731
 20
101.257
 11
13.1808
 21
100.164
  0
LINE
  8
0
 10
13.1808
 20
100.164
 11
12.9689
 21
100.96
  0
LINE
  8
0
 10
-17.4503
 20
101.332
 11
-17.9906
 21
102.689
  0
LINE
  8
0
 10
-17.9906
 20
102.689
 11
-18.5545
 21
104.036
  0
LINE
  8
0
 10
-18.5545
 20
104.036
 11
-19.142
 21
105.373
  0
LINE
  8
0
 10
-19.142
 20
105.373
 11
-19.5469
 21
106.253
  0
LINE
  8
0
 10
-19.5469
 20
106.253
 11
-19.2789
 21
107.131
  0
LINE
  8
0
 10
-19.2789
 20
107.131
 11
-18.6324
 21
109.127
  0
LINE
  8
0
 10
-18.6324
 20
109.127
 11
-17.951
 21
111.111
  0
LINE
  8
0
 10
-17.951
 20
111.111
 11
-17.6604
 21
111.911
  0
LINE
  8
0
 10
-17.6604
 20
111.911
 11
-17.3359
 21
111.295
  0
LINE
  8
0
 10
-17.3359
 20
111.295
 11
-16.6449
 21
109.924
  0
LINE
  8
0
 10
-16.6449
 20
109.924
 11
-15.978
 21
108.542
  0
LINE
  8
0
 10
-15.978
 20
108.542
 11
-15.3356
 21
107.148
  0
LINE
  8
0
 10
-15.3356
 20
107.148
 11
-15.061
 21
106.524
  0
LINE
  8
0
 10
-15.061
 20
106.524
 11
-15.2845
 21
105.834
  0
LINE
  8
0
 10
-15.2845
 20
105.834
 11
-15.874
 21
103.898
  0
LINE
  8
0
 10
-15.874
 20
103.898
 11
-16.4294
 21
101.952
  0
LINE
  8
0
 10
-16.4294
 20
101.952
 11
-16.9486
 21
100.005
  0
LINE
  8
0
 10
-16.9486
 20
100.005
 11
-17.4503
 21
101.332
  0
LINE
  8
0
 10
20.4281
 20
100.929
 11
19.89
 21
102.944
  0
LINE
  8
0
 10
19.89
 20
102.944
 11
19.3167
 21
104.95
  0
LINE
  8
0
 10
19.3167
 20
104.95
 11
18.9064
 21
106.296
  0
LINE
  8
0
 10
18.9064
 20
106.296
 11
19.2137
 21
106.963
  0
LINE
  8
0
 10
19.2137
 20
106.963
 11
19.8525
 21
108.29
  0
LINE
  8
0
 10
19.8525
 20
108.29
 11
20.5145
 21
109.605
  0
LINE
  8
0
 10
20.5145
 20
109.605
 11
21.1996
 21
110.908
  0
LINE
  8
0
 10
21.1996
 20
110.908
 11
21.585
 21
111.612
  0
LINE
  8
0
 10
21.585
 20
111.612
 11
22.0363
 21
110.299
  0
LINE
  8
0
 10
22.0363
 20
110.299
 11
22.7027
 21
108.244
  0
LINE
  8
0
 10
22.7027
 20
108.244
 11
23.3331
 21
106.178
  0
LINE
  8
0
 10
23.3331
 20
106.178
 11
23.394
 21
105.965
  0
LINE
  8
0
 10
23.394
 20
105.965
 11
22.9886
 21
105.122
  0
LINE
  8
0
 10
22.9886
 20
105.122
 11
22.4048
 21
103.852
  0
LINE
  8
0
 10
22.4048
 20
103.852
 11
21.8433
 21
102.571
  0
LINE
  8
0
 10
21.8433
 20
102.571
 11
21.3044
 21
101.282
  0
LINE
  8
0
 10
21.3044
 20
101.282
 11
20.7882
 21
99.9835
  0
LINE
  8
0
 10
20.7882
 20
99.9835
 11
20.7127
 21
99.7834
  0
LINE
  8
0
 10
20.7127
 20
99.7834
 11
20.4281
 21
100.929
  0
LINE
  8
0
 10
-24.6182
 20
99.8753
 11
-25.132
 21
101.107
  0
LINE
  8
0
 10
-25.132
 20
101.107
 11
-25.6675
 21
102.33
  0
LINE
  8
0
 10
-25.6675
 20
102.33
 11
-26.2243
 21
103.544
  0
LINE
  8
0
 10
-26.2243
 20
103.544
 11
-26.8024
 21
104.748
  0
LINE
  8
0
 10
-26.8024
 20
104.748
 11
-27.2381
 21
105.617
  0
LINE
  8
0
 10
-27.2381
 20
105.617
 11
-26.7758
 21
107.231
  0
LINE
  8
0
 10
-26.7758
 20
107.231
 11
-26.1266
 21
109.356
  0
LINE
  8
0
 10
-26.1266
 20
109.356
 11
-25.5111
 21
111.252
  0
LINE
  8
0
 10
-25.5111
 20
111.252
 11
-25.0252
 21
110.4
  0
LINE
  8
0
 10
-25.0252
 20
110.4
 11
-24.3482
 21
109.163
  0
LINE
  8
0
 10
-24.3482
 20
109.163
 11
-23.6932
 21
107.915
  0
LINE
  8
0
 10
-23.6932
 20
107.915
 11
-23.0601
 21
106.655
  0
LINE
  8
0
 10
-23.0601
 20
106.655
 11
-22.7543
 21
106.019
  0
LINE
  8
0
 10
-22.7543
 20
106.019
 11
-22.7594
 21
106.003
  0
LINE
  8
0
 10
-22.7594
 20
106.003
 11
-23.3505
 21
103.936
  0
LINE
  8
0
 10
-23.3505
 20
103.936
 11
-23.9055
 21
101.861
  0
LINE
  8
0
 10
-23.9055
 20
101.861
 11
-24.424
 21
99.7757
  0
LINE
  8
0
 10
-24.424
 20
99.7757
 11
-24.4808
 21
99.529
  0
LINE
  8
0
 10
-24.4808
 20
99.529
 11
-24.6182
 21
99.8753
  0
LINE
  8
0
 10
27.9171
 20
100.647
 11
27.3828
 21
102.792
  0
LINE
  8
0
 10
27.3828
 20
102.792
 11
26.8111
 21
104.929
  0
LINE
  8
0
 10
26.8111
 20
104.929
 11
26.5969
 21
105.677
  0
LINE
  8
0
 10
26.5969
 20
105.677
 11
26.8718
 21
106.224
  0
LINE
  8
0
 10
26.8718
 20
106.224
 11
27.4867
 21
107.398
  0
LINE
  8
0
 10
27.4867
 20
107.398
 11
29.3381
 21
101.7
  0
LINE
  8
0
 10
29.3381
 20
101.7
 11
28.9302
 21
100.809
  0
LINE
  8
0
 10
28.9302
 20
100.809
 11
28.4208
 21
99.643
  0
LINE
  8
0
 10
28.4208
 20
99.643
 11
28.2455
 21
99.2218
  0
LINE
  8
0
 10
28.2455
 20
99.2218
 11
27.9171
 21
100.647
  0
LINE
  8
0
 10
1.80859
 20
83.6056
 11
1.57616
 21
85.2962
  0
LINE
  8
0
 10
1.57616
 20
85.2962
 11
1.31419
 21
86.9828
  0
LINE
  8
0
 10
1.31419
 20
86.9828
 11
1.02277
 21
88.6649
  0
LINE
  8
0
 10
1.02277
 20
88.6649
 11
0.70195
 21
90.3421
  0
LINE
  8
0
 10
0.70195
 20
90.3421
 11
0.351852
 21
92.0137
  0
LINE
  8
0
 10
0.351852
 20
92.0137
 11
-0.0274658
 21
93.6793
  0
LINE
  8
0
 10
-0.0274658
 20
93.6793
 11
-0.308914
 21
94.8227
  0
LINE
  8
0
 10
-0.308914
 20
94.8227
 11
-0.143692
 21
95.4937
  0
LINE
  8
0
 10
-0.143692
 20
95.4937
 11
0.296509
 21
97.1558
  0
LINE
  8
0
 10
0.296509
 20
97.1558
 11
0.765732
 21
98.8103
  0
LINE
  8
0
 10
0.765732
 20
98.8103
 11
1.26387
 21
100.457
  0
LINE
  8
0
 10
1.26387
 20
100.457
 11
1.79079
 21
102.094
  0
LINE
  8
0
 10
1.79079
 20
102.094
 11
1.89359
 21
102.396
  0
LINE
  8
0
 10
1.89359
 20
102.396
 11
2.15993
 21
101.569
  0
LINE
  8
0
 10
2.15993
 20
101.569
 11
2.67696
 21
99.8628
  0
LINE
  8
0
 10
2.67696
 20
99.8628
 11
3.16403
 21
98.1481
  0
LINE
  8
0
 10
3.16403
 20
98.1481
 11
3.62102
 21
96.4254
  0
LINE
  8
0
 10
3.62102
 20
96.4254
 11
4.01965
 21
94.8094
  0
LINE
  8
0
 10
4.01965
 20
94.8094
 11
3.91321
 21
94.4066
  0
LINE
  8
0
 10
3.91321
 20
94.4066
 11
3.52052
 21
92.8084
  0
LINE
  8
0
 10
3.52052
 20
92.8084
 11
3.15588
 21
91.2039
  0
LINE
  8
0
 10
3.15588
 20
91.2039
 11
2.81938
 21
89.5936
  0
LINE
  8
0
 10
2.81938
 20
89.5936
 11
2.51109
 21
87.978
  0
LINE
  8
0
 10
2.51109
 20
87.978
 11
2.23112
 21
86.3577
  0
LINE
  8
0
 10
2.23112
 20
86.3577
 11
1.97952
 21
84.733
  0
LINE
  8
0
 10
1.97952
 20
84.733
 11
1.81625
 21
83.5416
  0
LINE
  8
0
 10
1.81625
 20
83.5416
 11
1.80859
 21
83.6056
  0
LINE
  8
0
 10
-5.5352
 20
84.1698
 11
-5.77643
 21
85.7325
  0
LINE
  8
0
 10
-5.77643
 20
85.7325
 11
-6.04495
 21
87.2911
  0
LINE
  8
0
 10
-6.04495
 20
87.2911
 11
-6.34071
 21
88.8451
  0
LINE
  8
0
 10
-6.34071
 20
88.8451
 11
-6.66362
 21
90.3941
  0
LINE
  8
0
 10
-6.66362
 20
90.3941
 11
-7.0136
 21
91.9375
  0
LINE
  8
0
 10
-7.0136
 20
91.9375
 11
-7.39053
 21
93.4749
  0
LINE
  8
0
 10
-7.39053
 20
93.4749
 11
-7.7272
 21
94.7513
  0
LINE
  8
0
 10
-7.7272
 20
94.7513
 11
-7.54085
 21
95.5663
  0
LINE
  8
0
 10
-7.54085
 20
95.5663
 11
-7.09836
 21
97.3572
  0
LINE
  8
0
 10
-7.09836
 20
97.3572
 11
-6.62457
 21
99.1404
  0
LINE
  8
0
 10
-6.62457
 20
99.1404
 11
-6.11966
 21
100.915
  0
LINE
  8
0
 10
-6.11966
 20
100.915
 11
-5.68271
 21
102.355
  0
LINE
  8
0
 10
-5.68271
 20
102.355
 11
-5.19466
 21
100.922
  0
LINE
  8
0
 10
-5.19466
 20
100.922
 11
-4.68768
 21
99.3443
  0
LINE
  8
0
 10
-4.68768
 20
99.3443
 11
-4.20844
 21
97.7578
  0
LINE
  8
0
 10
-4.20844
 20
97.7578
 11
-3.75705
 21
96.1635
  0
LINE
  8
0
 10
-3.75705
 20
96.1635
 11
-3.40044
 21
94.8145
  0
LINE
  8
0
 10
-3.40044
 20
94.8145
 11
-3.46561
 21
94.5502
  0
LINE
  8
0
 10
-3.46561
 20
94.5502
 11
-3.85957
 21
92.8235
  0
LINE
  8
0
 10
-3.85957
 20
92.8235
 11
-4.22328
 21
91.0906
  0
LINE
  8
0
 10
-4.22328
 20
91.0906
 11
-4.55663
 21
89.3518
  0
LINE
  8
0
 10
-4.55663
 20
89.3518
 11
-4.8595
 21
87.6079
  0
LINE
  8
0
 10
-4.8595
 20
87.6079
 11
-5.13184
 21
85.8593
  0
LINE
  8
0
 10
-5.13184
 20
85.8593
 11
-5.37357
 21
84.1066
  0
LINE
  8
0
 10
-5.37357
 20
84.1066
 11
-5.44519
 21
83.5106
  0
LINE
  8
0
 10
-5.44519
 20
83.5106
 11
-5.5352
 21
84.1698
  0
LINE
  8
0
 10
8.93852
 20
84.6076
 11
8.68752
 21
86.4225
  0
LINE
  8
0
 10
8.68752
 20
86.4225
 11
8.4048
 21
88.233
  0
LINE
  8
0
 10
8.4048
 20
88.233
 11
8.09048
 21
90.0388
  0
LINE
  8
0
 10
8.09048
 20
90.0388
 11
7.74461
 21
91.839
  0
LINE
  8
0
 10
7.74461
 20
91.839
 11
7.36731
 21
93.6333
  0
LINE
  8
0
 10
7.36731
 20
93.6333
 11
7.10947
 21
94.7614
  0
LINE
  8
0
 10
7.10947
 20
94.7614
 11
7.21759
 21
95.1712
  0
LINE
  8
0
 10
7.21759
 20
95.1712
 11
7.65114
 21
96.7052
  0
LINE
  8
0
 10
7.65114
 20
96.7052
 11
8.11148
 21
98.2318
  0
LINE
  8
0
 10
8.11148
 20
98.2318
 11
8.59853
 21
99.7504
  0
LINE
  8
0
 10
8.59853
 20
99.7504
 11
9.11211
 21
101.261
  0
LINE
  8
0
 10
9.11211
 20
101.261
 11
9.47266
 21
102.263
  0
LINE
  8
0
 10
9.47266
 20
102.263
 11
9.56235
 21
101.968
  0
LINE
  8
0
 10
9.56235
 20
101.968
 11
10.0851
 21
100.133
  0
LINE
  8
0
 10
10.0851
 20
100.133
 11
10.5757
 21
98.2889
  0
LINE
  8
0
 10
10.5757
 20
98.2889
 11
11.0339
 21
96.4372
  0
LINE
  8
0
 10
11.0339
 20
96.4372
 11
11.4392
 21
94.6673
  0
LINE
  8
0
 10
11.4392
 20
94.6673
 11
11.2549
 21
94.0135
  0
LINE
  8
0
 10
11.2549
 20
94.0135
 11
10.8679
 21
92.5431
  0
LINE
  8
0
 10
10.8679
 20
92.5431
 11
10.5067
 21
91.0665
  0
LINE
  8
0
 10
10.5067
 20
91.0665
 11
10.1714
 21
89.5842
  0
LINE
  8
0
 10
10.1714
 20
89.5842
 11
9.86205
 21
88.0966
  0
LINE
  8
0
 10
9.86205
 20
88.0966
 11
9.57881
 21
86.6042
  0
LINE
  8
0
 10
9.57881
 20
86.6042
 11
9.32173
 21
85.1074
  0
LINE
  8
0
 10
9.32173
 20
85.1074
 11
9.09088
 21
83.6067
  0
LINE
  8
0
 10
9.09088
 20
83.6067
 11
9.07408
 21
83.4832
  0
LINE
  8
0
 10
9.07408
 20
83.4832
 11
8.93852
 21
84.6076
  0
LINE
  8
0
 10
-12.867
 20
84.4823
 11
-13.1127
 21
85.9173
  0
LINE
  8
0
 10
-13.1127
 20
85.9173
 11
-13.3834
 21
87.3481
  0
LINE
  8
0
 10
-13.3834
 20
87.3481
 11
-13.6791
 21
88.7744
  0
LINE
  8
0
 10
-13.6791
 20
88.7744
 11
-13.9997
 21
90.1956
  0
LINE
  8
0
 10
-13.9997
 20
90.1956
 11
-14.3452
 21
91.6114
  0
LINE
  8
0
 10
-14.3452
 20
91.6114
 11
-14.7154
 21
93.0212
  0
LINE
  8
0
 10
-14.7154
 20
93.0212
 11
-15.1103
 21
94.4247
  0
LINE
  8
0
 10
-15.1103
 20
94.4247
 11
-15.1458
 21
94.5428
  0
LINE
  8
0
 10
-15.1458
 20
94.5428
 11
-14.9674
 21
95.388
  0
LINE
  8
0
 10
-14.9674
 20
95.388
 11
-14.527
 21
97.3081
  0
LINE
  8
0
 10
-14.527
 20
97.3081
 11
-14.053
 21
99.2207
  0
LINE
  8
0
 10
-14.053
 20
99.2207
 11
-13.5457
 21
101.125
  0
LINE
  8
0
 10
-13.5457
 20
101.125
 11
-13.2605
 21
102.125
  0
LINE
  8
0
 10
-13.2605
 20
102.125
 11
-13.013
 21
101.472
  0
LINE
  8
0
 10
-13.013
 20
101.472
 11
-12.495
 21
100.029
  0
LINE
  8
0
 10
-12.495
 20
100.029
 11
-12.0024
 21
98.5784
  0
LINE
  8
0
 10
-12.0024
 20
98.5784
 11
-11.5353
 21
97.1193
  0
LINE
  8
0
 10
-11.5353
 20
97.1193
 11
-11.0938
 21
95.6527
  0
LINE
  8
0
 10
-11.0938
 20
95.6527
 11
-10.8202
 21
94.6826
  0
LINE
  8
0
 10
-10.8202
 20
94.6826
 11
-10.875
 21
94.4432
  0
LINE
  8
0
 10
-10.875
 20
94.4432
 11
-11.2659
 21
92.5875
  0
LINE
  8
0
 10
-11.2659
 20
92.5875
 11
-11.6243
 21
90.7257
  0
LINE
  8
0
 10
-11.6243
 20
90.7257
 11
-11.9501
 21
88.8582
  0
LINE
  8
0
 10
-11.9501
 20
88.8582
 11
-12.2432
 21
86.9856
  0
LINE
  8
0
 10
-12.2432
 20
86.9856
 11
-12.5035
 21
85.1086
  0
LINE
  8
0
 10
-12.5035
 20
85.1086
 11
-12.7062
 21
83.4326
  0
LINE
  8
0
 10
-12.7062
 20
83.4326
 11
-12.867
 21
84.4823
  0
LINE
  8
0
 10
16.3041
 20
83.6664
 11
16.0685
 21
85.6096
  0
LINE
  8
0
 10
16.0685
 20
85.6096
 11
15.7989
 21
87.5488
  0
LINE
  8
0
 10
15.7989
 20
87.5488
 11
15.4954
 21
89.4833
  0
LINE
  8
0
 10
15.4954
 20
89.4833
 11
15.1582
 21
91.4126
  0
LINE
  8
0
 10
15.1582
 20
91.4126
 11
14.7873
 21
93.336
  0
LINE
  8
0
 10
14.7873
 20
93.336
 11
14.5274
 21
94.5677
  0
LINE
  8
0
 10
14.5274
 20
94.5677
 11
14.5365
 21
94.6001
  0
LINE
  8
0
 10
14.5365
 20
94.6001
 11
14.9591
 21
96.0069
  0
LINE
  8
0
 10
14.9591
 20
96.0069
 11
15.4062
 21
97.4063
  0
LINE
  8
0
 10
15.4062
 20
97.4063
 11
15.8779
 21
98.7981
  0
LINE
  8
0
 10
15.8779
 20
98.7981
 11
16.3739
 21
100.182
  0
LINE
  8
0
 10
16.3739
 20
100.182
 11
16.894
 21
101.557
  0
LINE
  8
0
 10
16.894
 20
101.557
 11
17.0508
 21
101.95
  0
LINE
  8
0
 10
17.0508
 20
101.95
 11
17.5303
 21
100.152
  0
LINE
  8
0
 10
17.5303
 20
100.152
 11
18.02
 21
98.1791
  0
LINE
  8
0
 10
18.02
 20
98.1791
 11
18.4751
 21
96.1978
  0
LINE
  8
0
 10
18.4751
 20
96.1978
 11
18.8576
 21
94.3887
  0
LINE
  8
0
 10
18.8576
 20
94.3887
 11
18.553
 21
93.3722
  0
LINE
  8
0
 10
18.553
 20
93.3722
 11
18.176
 21
92.0289
  0
LINE
  8
0
 10
18.176
 20
92.0289
 11
17.8225
 21
90.6796
  0
LINE
  8
0
 10
17.8225
 20
90.6796
 11
17.4928
 21
89.3247
  0
LINE
  8
0
 10
17.4928
 20
89.3247
 11
17.1868
 21
87.9646
  0
LINE
  8
0
 10
17.1868
 20
87.9646
 11
16.9047
 21
86.5997
  0
LINE
  8
0
 10
16.9047
 20
86.5997
 11
16.6465
 21
85.2304
  0
LINE
  8
0
 10
16.6465
 20
85.2304
 11
16.4124
 21
83.8571
  0
LINE
  8
0
 10
16.4124
 20
83.8571
 11
16.3361
 21
83.3576
  0
LINE
  8
0
 10
16.3361
 20
83.3576
 11
16.3041
 21
83.6664
  0
LINE
  8
0
 10
-20.1804
 20
84.5435
 11
-20.426
 21
85.8512
  0
LINE
  8
0
 10
-20.426
 20
85.8512
 11
-20.6945
 21
87.1548
  0
LINE
  8
0
 10
-20.6945
 20
87.1548
 11
-20.9859
 21
88.4538
  0
LINE
  8
0
 10
-20.9859
 20
88.4538
 11
-21.2999
 21
89.7479
  0
LINE
  8
0
 10
-21.2999
 20
89.7479
 11
-21.6365
 21
91.0366
  0
LINE
  8
0
 10
-21.6365
 20
91.0366
 11
-21.9957
 21
92.3196
  0
LINE
  8
0
 10
-21.9957
 20
92.3196
 11
-22.3773
 21
93.5965
  0
LINE
  8
0
 10
-22.3773
 20
93.5965
 11
-22.5656
 21
94.1887
  0
LINE
  8
0
 10
-22.5656
 20
94.1887
 11
-22.4168
 21
94.9577
  0
LINE
  8
0
 10
-22.4168
 20
94.9577
 11
-21.9829
 21
97.0076
  0
LINE
  8
0
 10
-21.9829
 20
97.0076
 11
-21.5131
 21
99.05
  0
LINE
  8
0
 10
-21.5131
 20
99.05
 11
-21.0077
 21
101.084
  0
LINE
  8
0
 10
-21.0077
 20
101.084
 11
-20.8376
 21
101.721
  0
LINE
  8
0
 10
-20.8376
 20
101.721
 11
-20.7521
 21
101.516
  0
LINE
  8
0
 10
-20.7521
 20
101.516
 11
-20.2319
 21
100.208
  0
LINE
  8
0
 10
-20.2319
 20
100.208
 11
-19.7348
 21
98.8916
  0
LINE
  8
0
 10
-19.7348
 20
98.8916
 11
-19.2608
 21
97.5668
  0
LINE
  8
0
 10
-19.2608
 20
97.5668
 11
-18.8101
 21
96.2343
  0
LINE
  8
0
 10
-18.8101
 20
96.2343
 11
-18.3829
 21
94.8944
  0
LINE
  8
0
 10
-18.3829
 20
94.8944
 11
-18.2389
 21
94.4141
  0
LINE
  8
0
 10
-18.2389
 20
94.4141
 11
-18.3086
 21
94.0845
  0
LINE
  8
0
 10
-18.3086
 20
94.0845
 11
-18.692
 21
92.0995
  0
LINE
  8
0
 10
-18.692
 20
92.0995
 11
-19.0407
 21
90.1084
  0
LINE
  8
0
 10
-19.0407
 20
90.1084
 11
-19.3546
 21
88.112
  0
LINE
  8
0
 10
-19.3546
 20
88.112
 11
-19.6334
 21
86.1107
  0
LINE
  8
0
 10
-19.6334
 20
86.1107
 11
-19.8773
 21
84.1051
  0
LINE
  8
0
 10
-19.8773
 20
84.1051
 11
-19.9641
 21
83.2698
  0
LINE
  8
0
 10
-19.9641
 20
83.2698
 11
-20.1804
 21
84.5435
  0
LINE
  8
0
 10
23.4505
 20
84.5439
 11
23.1984
 21
86.6117
  0
LINE
  8
0
 10
23.1984
 20
86.6117
 11
22.9102
 21
88.6751
  0
LINE
  8
0
 10
22.9102
 20
88.6751
 11
22.586
 21
90.7336
  0
LINE
  8
0
 10
22.586
 20
90.7336
 11
22.2259
 21
92.7864
  0
LINE
  8
0
 10
22.2259
 20
92.7864
 11
21.9476
 21
94.2248
  0
LINE
  8
0
 10
21.9476
 20
94.2248
 11
22.214
 21
95.0622
  0
LINE
  8
0
 10
22.214
 20
95.0622
 11
22.6437
 21
96.3355
  0
LINE
  8
0
 10
22.6437
 20
96.3355
 11
23.0956
 21
97.6015
  0
LINE
  8
0
 10
23.0956
 20
97.6015
 11
23.5698
 21
98.8597
  0
LINE
  8
0
 10
23.5698
 20
98.8597
 11
24.0659
 21
100.11
  0
LINE
  8
0
 10
24.0659
 20
100.11
 11
24.5839
 21
101.351
  0
LINE
  8
0
 10
24.5839
 20
101.351
 11
24.6263
 21
101.448
  0
LINE
  8
0
 10
24.6263
 20
101.448
 11
25.0062
 21
99.9209
  0
LINE
  8
0
 10
25.0062
 20
99.9209
 11
25.4906
 21
97.8174
  0
LINE
  8
0
 10
25.4906
 20
97.8174
 11
25.9382
 21
95.7062
  0
LINE
  8
0
 10
25.9382
 20
95.7062
 11
26.2758
 21
93.9642
  0
LINE
  8
0
 10
26.2758
 20
93.9642
 11
26.1852
 21
93.6948
  0
LINE
  8
0
 10
26.1852
 20
93.6948
 11
25.8011
 21
92.4841
  0
LINE
  8
0
 10
25.8011
 20
92.4841
 11
25.4384
 21
91.2671
  0
LINE
  8
0
 10
25.4384
 20
91.2671
 11
25.0971
 21
90.0443
  0
LINE
  8
0
 10
25.0971
 20
90.0443
 11
24.7772
 21
88.8161
  0
LINE
  8
0
 10
24.7772
 20
88.8161
 11
24.4789
 21
87.5829
  0
LINE
  8
0
 10
24.4789
 20
87.5829
 11
24.2023
 21
86.3449
  0
LINE
  8
0
 10
24.2023
 20
86.3449
 11
23.9474
 21
85.1027
  0
LINE
  8
0
 10
23.9474
 20
85.1027
 11
23.7142
 21
83.8565
  0
LINE
  8
0
 10
23.7142
 20
83.8565
 11
23.5954
 21
83.1534
  0
LINE
  8
0
 10
23.5954
 20
83.1534
 11
23.4505
 21
84.5439
  0
LINE
  8
0
 10
-27.2481
 20
83.1696
 11
-27.4687
 21
84.3542
  0
LINE
  8
0
 10
-27.4687
 20
84.3542
 11
-27.71
 21
85.5351
  0
LINE
  8
0
 10
-27.71
 20
85.5351
 11
-27.972
 21
86.712
  0
LINE
  8
0
 10
-27.972
 20
86.712
 11
-28.2545
 21
87.8844
  0
LINE
  8
0
 10
-28.2545
 20
87.8844
 11
-28.5576
 21
89.052
  0
LINE
  8
0
 10
-28.5576
 20
89.052
 11
-28.8811
 21
90.2146
  0
LINE
  8
0
 10
-28.8811
 20
90.2146
 11
-29.2249
 21
91.3716
  0
LINE
  8
0
 10
-29.2249
 20
91.3716
 11
-29.589
 21
92.5228
  0
LINE
  8
0
 10
-29.589
 20
92.5228
 11
-29.9733
 21
93.6678
  0
LINE
  8
0
 10
-29.9733
 20
93.6678
 11
-29.9841
 21
93.6982
  0
LINE
  8
0
 10
-29.9841
 20
93.6982
 11
-29.8826
 21
94.2747
  0
LINE
  8
0
 10
-29.8826
 20
94.2747
 11
-29.4595
 21
96.4547
  0
LINE
  8
0
 10
-29.4595
 20
96.4547
 11
-28.9983
 21
98.6273
  0
LINE
  8
0
 10
-28.9983
 20
98.6273
 11
-28.4992
 21
100.792
  0
LINE
  8
0
 10
-28.4992
 20
100.792
 11
-28.4158
 21
101.127
  0
LINE
  8
0
 10
-28.4158
 20
101.127
 11
-28.3864
 21
101.062
  0
LINE
  8
0
 10
-28.3864
 20
101.062
 11
-27.8727
 21
99.887
  0
LINE
  8
0
 10
-27.8727
 20
99.887
 11
-27.3797
 21
98.7031
  0
LINE
  8
0
 10
-27.3797
 20
98.7031
 11
-26.9076
 21
97.5111
  0
LINE
  8
0
 10
-26.9076
 20
97.5111
 11
-26.4565
 21
96.3114
  0
LINE
  8
0
 10
-26.4565
 20
96.3114
 11
-26.0266
 21
95.1043
  0
LINE
  8
0
 10
-26.0266
 20
95.1043
 11
-25.6567
 21
94.0054
  0
LINE
  8
0
 10
-25.6567
 20
94.0054
 11
-25.7598
 21
93.4733
  0
LINE
  8
0
 10
-25.7598
 20
93.4733
 11
-26.1313
 21
91.3587
  0
LINE
  8
0
 10
-26.1313
 20
91.3587
 11
-26.4659
 21
89.2383
  0
LINE
  8
0
 10
-26.4659
 20
89.2383
 11
-26.7634
 21
87.1127
  0
LINE
  8
0
 10
-26.7634
 20
87.1127
 11
-27.0236
 21
84.9826
  0
LINE
  8
0
 10
-27.0236
 20
84.9826
 11
-27.2265
 21
83.0413
  0
LINE
  8
0
 10
-27.2265
 20
83.0413
 11
-27.2481
 21
83.1696
  0
LINE
  8
0
 10
30.8269
 20
83.2249
 11
30.5968
 21
85.4213
  0
LINE
  8
0
 10
30.5968
 20
85.4213
 11
30.3283
 21
87.6137
  0
LINE
  8
0
 10
30.3283
 20
87.6137
 11
30.0216
 21
89.8015
  0
LINE
  8
0
 10
30.0216
 20
89.8015
 11
29.6767
 21
91.9839
  0
LINE
  8
0
 10
29.6767
 20
91.9839
 11
29.3666
 21
93.7454
  0
LINE
  8
0
 10
29.3666
 20
93.7454
 11
29.4095
 21
93.873
  0
LINE
  8
0
 10
29.4095
 20
93.873
 11
29.8174
 21
95.0212
  0
LINE
  8
0
 10
29.8174
 20
95.0212
 11
30.2455
 21
96.1625
  0
LINE
  8
0
 10
30.2455
 20
96.1625
 11
30.6935
 21
97.2965
  0
LINE
  8
0
 10
30.6935
 20
97.2965
 11
30.7358
 21
97.3983
  0
LINE
  8
0
 10
30.7358
 20
97.3983
 11
32.849
 21
90.8945
  0
LINE
  8
0
 10
32.849
 20
90.8945
 11
32.6487
 21
90.2591
  0
LINE
  8
0
 10
32.6487
 20
90.2591
 11
32.3238
 21
89.162
  0
LINE
  8
0
 10
32.3238
 20
89.162
 11
32.0181
 21
88.0598
  0
LINE
  8
0
 10
32.0181
 20
88.0598
 11
31.7319
 21
86.9526
  0
LINE
  8
0
 10
31.7319
 20
86.9526
 11
31.465
 21
85.841
  0
LINE
  8
0
 10
31.465
 20
85.841
 11
31.2177
 21
84.7253
  0
LINE
  8
0
 10
31.2177
 20
84.7253
 11
30.99
 21
83.6057
  0
LINE
  8
0
 10
30.99
 20
83.6057
 11
30.8565
 21
82.8851
  0
LINE
  8
0
 10
30.8565
 20
82.8851
 11
30.8269
 21
83.2249
  0
LINE
  8
0
 10
-2.08588
 20
56.3555
 11
-2.32907
 21
58.0495
  0
LINE
  8
0
 10
-2.32907
 20
58.0495
 11
-2.54269
 21
59.7478
  0
LINE
  8
0
 10
-2.54269
 20
59.7478
 11
-2.7267
 21
61.45
  0
LINE
  8
0
 10
-2.7267
 20
61.45
 11
-2.88098
 21
63.1555
  0
LINE
  8
0
 10
-2.88098
 20
63.1555
 11
-3.00549
 21
64.8638
  0
LINE
  8
0
 10
-3.00549
 20
64.8638
 11
-3.10019
 21
66.5743
  0
LINE
  8
0
 10
-3.10019
 20
66.5743
 11
-3.16504
 21
68.2865
  0
LINE
  8
0
 10
-3.16504
 20
68.2865
 11
-3.2
 21
70
  0
LINE
  8
0
 10
-3.2
 20
70
 11
-3.20503
 21
71.7142
  0
LINE
  8
0
 10
-3.20503
 20
71.7142
 11
-3.18015
 21
73.4285
  0
LINE
  8
0
 10
-3.18015
 20
73.4285
 11
-3.12534
 21
75.1425
  0
LINE
  8
0
 10
-3.12534
 20
75.1425
 11
-3.04059
 21
76.8557
  0
LINE
  8
0
 10
-3.04059
 20
76.8557
 11
-2.92593
 21
78.5674
  0
LINE
  8
0
 10
-2.92593
 20
78.5674
 11
-2.78139
 21
80.2772
  0
LINE
  8
0
 10
-2.78139
 20
80.2772
 11
-2.60698
 21
81.9846
  0
LINE
  8
0
 10
-2.60698
 20
81.9846
 11
-2.40276
 21
83.6891
  0
LINE
  8
0
 10
-2.40276
 20
83.6891
 11
-2.16878
 21
85.39
  0
LINE
  8
0
 10
-2.16878
 20
85.39
 11
-1.90508
 21
87.087
  0
LINE
  8
0
 10
-1.90508
 20
87.087
 11
-1.82658
 21
87.5398
  0
LINE
  8
0
 10
-1.82658
 20
87.5398
 11
-1.64023
 21
86.4618
  0
LINE
  8
0
 10
-1.64023
 20
86.4618
 11
-1.3869
 21
84.8269
  0
LINE
  8
0
 10
-1.3869
 20
84.8269
 11
-1.1622
 21
83.188
  0
LINE
  8
0
 10
-1.1622
 20
83.188
 11
-0.966187
 21
81.5459
  0
LINE
  8
0
 10
-0.966187
 20
81.5459
 11
-0.798889
 21
79.9009
  0
LINE
  8
0
 10
-0.798889
 20
79.9009
 11
-0.66037
 21
78.2536
  0
LINE
  8
0
 10
-0.66037
 20
78.2536
 11
-0.550644
 21
76.6045
  0
LINE
  8
0
 10
-0.550644
 20
76.6045
 11
-0.469742
 21
74.9541
  0
LINE
  8
0
 10
-0.469742
 20
74.9541
 11
-0.417664
 21
73.3029
  0
LINE
  8
0
 10
-0.417664
 20
73.3029
 11
-0.394424
 21
71.6513
  0
LINE
  8
0
 10
-0.394424
 20
71.6513
 11
-0.400009
 21
70
  0
LINE
  8
0
 10
-0.400009
 20
70
 11
-0.434418
 21
68.3494
  0
LINE
  8
0
 10
-0.434418
 20
68.3494
 11
-0.497604
 21
66.6999
  0
LINE
  8
0
 10
-0.497604
 20
66.6999
 11
-0.589569
 21
65.0522
  0
LINE
  8
0
 10
-0.589569
 20
65.0522
 11
-0.710251
 21
63.4066
  0
LINE
  8
0
 10
-0.710251
 20
63.4066
 11
-0.859604
 21
61.7638
  0
LINE
  8
0
 10
-0.859604
 20
61.7638
 11
-1.03758
 21
60.1242
  0
LINE
  8
0
 10
-1.03758
 20
60.1242
 11
-1.24409
 21
58.4882
  0
LINE
  8
0
 10
-1.24409
 20
58.4882
 11
-1.4791
 21
56.8565
  0
LINE
  8
0
 10
-1.4791
 20
56.8565
 11
-1.74248
 21
55.2295
  0
LINE
  8
0
 10
-1.74248
 20
55.2295
 11
-1.82765
 21
54.7558
  0
LINE
  8
0
 10
-1.82765
 20
54.7558
 11
-2.08588
 21
56.3555
  0
LINE
  8
0
 10
5.29816
 20
55.7926
 11
5.04405
 21
57.3575
  0
LINE
  8
0
 10
5.04405
 20
57.3575
 11
4.81726
 21
58.927
  0
LINE
  8
0
 10
4.81726
 20
58.927
 11
4.61786
 21
60.5005
  0
LINE
  8
0
 10
4.61786
 20
60.5005
 11
4.44591
 21
62.0775
  0
LINE
  8
0
 10
4.44591
 20
62.0775
 11
4.30148
 21
63.6577
  0
LINE
  8
0
 10
4.30148
 20
63.6577
 11
4.18463
 21
65.2406
  0
LINE
  8
0
 10
4.18463
 20
65.2406
 11
4.09541
 21
66.8255
  0
LINE
  8
0
 10
4.09541
 20
66.8255
 11
4.03386
 21
68.4122
  0
LINE
  8
0
 10
4.03386
 20
68.4122
 11
4
 21
70
  0
LINE
  8
0
 10
4
 20
70
 11
3.99387
 21
71.5885
  0
LINE
  8
0
 10
3.99387
 20
71.5885
 11
4.01547
 21
73.1772
  0
LINE
  8
0
 10
4.01547
 20
73.1772
 11
4.0648
 21
74.7657
  0
LINE
  8
0
 10
4.0648
 20
74.7657
 11
4.14188
 21
76.3534
  0
LINE
  8
0
 10
4.14188
 20
76.3534
 11
4.24667
 21
77.9399
  0
LINE
  8
0
 10
4.24667
 20
77.9399
 11
4.37917
 21
79.5246
  0
LINE
  8
0
 10
4.37917
 20
79.5246
 11
4.53935
 21
81.1072
  0
LINE
  8
0
 10
4.53935
 20
81.1072
 11
4.72717
 21
82.687
  0
LINE
  8
0
 10
4.72717
 20
82.687
 11
4.94258
 21
84.2637
  0
LINE
  8
0
 10
4.94258
 20
84.2637
 11
5.18555
 21
85.8367
  0
LINE
  8
0
 10
5.18555
 20
85.8367
 11
5.45598
 21
87.4056
  0
LINE
  8
0
 10
5.45598
 20
87.4056
 11
5.47917
 21
87.5274
  0
LINE
  8
0
 10
5.47917
 20
87.5274
 11
5.72446
 21
85.9532
  0
LINE
  8
0
 10
5.72446
 20
85.9532
 11
5.96773
 21
84.1901
  0
LINE
  8
0
 10
5.96773
 20
84.1901
 11
6.18015
 21
82.4234
  0
LINE
  8
0
 10
6.18015
 20
82.4234
 11
6.36166
 21
80.6535
  0
LINE
  8
0
 10
6.36166
 20
80.6535
 11
6.51224
 21
78.8812
  0
LINE
  8
0
 10
6.51224
 20
78.8812
 11
6.63182
 21
77.1068
  0
LINE
  8
0
 10
6.63182
 20
77.1068
 11
6.7204
 21
75.3309
  0
LINE
  8
0
 10
6.7204
 20
75.3309
 11
6.77795
 21
73.5542
  0
LINE
  8
0
 10
6.77795
 20
73.5542
 11
6.80449
 21
71.777
  0
LINE
  8
0
 10
6.80449
 20
71.777
 11
6.79999
 21
70
  0
LINE
  8
0
 10
6.79999
 20
70
 11
6.7645
 21
68.2237
  0
LINE
  8
0
 10
6.7645
 20
68.2237
 11
6.698
 21
66.4486
  0
LINE
  8
0
 10
6.698
 20
66.4486
 11
6.60056
 21
64.6754
  0
LINE
  8
0
 10
6.60056
 20
64.6754
 11
6.47221
 21
62.9044
  0
LINE
  8
0
 10
6.47221
 20
62.9044
 11
6.31299
 21
61.1363
  0
LINE
  8
0
 10
6.31299
 20
61.1363
 11
6.12299
 21
59.3716
  0
LINE
  8
0
 10
6.12299
 20
59.3716
 11
5.90224
 21
57.6108
  0
LINE
  8
0
 10
5.90224
 20
57.6108
 11
5.65083
 21
55.8544
  0
LINE
  8
0
 10
5.65083
 20
55.8544
 11
5.47923
 21
54.7886
  0
LINE
  8
0
 10
5.47923
 20
54.7886
 11
5.29816
 21
55.7926
  0
LINE
  8
0
 10
-9.21581
 20
55.3534
 11
-9.4754
 21
57.172
  0
LINE
  8
0
 10
-9.4754
 20
57.172
 11
-9.70326
 21
58.9953
  0
LINE
  8
0
 10
-9.70326
 20
58.9953
 11
-9.89929
 21
60.8225
  0
LINE
  8
0
 10
-9.89929
 20
60.8225
 11
-10.0634
 21
62.6533
  0
LINE
  8
0
 10
-10.0634
 20
62.6533
 11
-10.1956
 21
64.4869
  0
LINE
  8
0
 10
-10.1956
 20
64.4869
 11
-10.2958
 21
66.323
  0
LINE
  8
0
 10
-10.2958
 20
66.323
 11
-10.3639
 21
68.1609
  0
LINE
  8
0
 10
-10.3639
 20
68.1609
 11
-10.4
 21
70
  0
LINE
  8
0
 10
-10.4
 20
70
 11
-10.4039
 21
71.8398
  0
LINE
  8
0
 10
-10.4039
 20
71.8398
 11
-10.3758
 21
73.6798
  0
LINE
  8
0
 10
-10.3758
 20
73.6798
 11
-10.3155
 21
75.5193
  0
LINE
  8
0
 10
-10.3155
 20
75.5193
 11
-10.2231
 21
77.3579
  0
LINE
  8
0
 10
-10.2231
 20
77.3579
 11
-10.0985
 21
79.1949
  0
LINE
  8
0
 10
-10.0985
 20
79.1949
 11
-9.94194
 21
81.0298
  0
LINE
  8
0
 10
-9.94194
 20
81.0298
 11
-9.75331
 21
82.8621
  0
LINE
  8
0
 10
-9.75331
 20
82.8621
 11
-9.53268
 21
84.6911
  0
LINE
  8
0
 10
-9.53268
 20
84.6911
 11
-9.28012
 21
86.5163
  0
LINE
  8
0
 10
-9.28012
 20
86.5163
 11
-9.13176
 21
87.4662
  0
LINE
  8
0
 10
-9.13176
 20
87.4662
 11
-8.98984
 21
86.7187
  0
LINE
  8
0
 10
-8.98984
 20
86.7187
 11
-8.73085
 21
85.2116
  0
LINE
  8
0
 10
-8.73085
 20
85.2116
 11
-8.49826
 21
83.7005
  0
LINE
  8
0
 10
-8.49826
 20
83.7005
 11
-8.29213
 21
82.186
  0
LINE
  8
0
 10
-8.29213
 20
82.186
 11
-8.11252
 21
80.6684
  0
LINE
  8
0
 10
-8.11252
 20
80.6684
 11
-7.95946
 21
79.1483
  0
LINE
  8
0
 10
-7.95946
 20
79.1483
 11
-7.83298
 21
77.6261
  0
LINE
  8
0
 10
-7.83298
 20
77.6261
 11
-7.73311
 21
76.1023
  0
LINE
  8
0
 10
-7.73311
 20
76.1023
 11
-7.65987
 21
74.5773
  0
LINE
  8
0
 10
-7.65987
 20
74.5773
 11
-7.61328
 21
73.0516
  0
LINE
  8
0
 10
-7.61328
 20
73.0516
 11
-7.59332
 21
71.5257
  0
LINE
  8
0
 10
-7.59332
 20
71.5257
 11
-7.60001
 21
70
  0
LINE
  8
0
 10
-7.60001
 20
70
 11
-7.63332
 21
68.475
  0
LINE
  8
0
 10
-7.63332
 20
68.475
 11
-7.69322
 21
66.9512
  0
LINE
  8
0
 10
-7.69322
 20
66.9512
 11
-7.77971
 21
65.429
  0
LINE
  8
0
 10
-7.77971
 20
65.429
 11
-7.89272
 21
63.9089
  0
LINE
  8
0
 10
-7.89272
 20
63.9089
 11
-8.03221
 21
62.3913
  0
LINE
  8
0
 10
-8.03221
 20
62.3913
 11
-8.19814
 21
60.8768
  0
LINE
  8
0
 10
-8.19814
 20
60.8768
 11
-8.39043
 21
59.3657
  0
LINE
  8
0
 10
-8.39043
 20
59.3657
 11
-8.60902
 21
57.8586
  0
LINE
  8
0
 10
-8.60902
 20
57.8586
 11
-8.85384
 21
56.3558
  0
LINE
  8
0
 10
-8.85384
 20
56.3558
 11
-9.12477
 21
54.8579
  0
LINE
  8
0
 10
-9.12477
 20
54.8579
 11
-9.1311
 21
54.826
  0
LINE
  8
0
 10
-9.1311
 20
54.826
 11
-9.21581
 21
55.3534
  0
LINE
  8
0
 10
-34.5114
 20
82.8573
 11
-34.7255
 21
83.9155
  0
LINE
  8
0
 10
-34.7255
 20
83.9155
 11
-34.8837
 21
84.6326
  0
LINE
  8
0
 10
-34.8837
 20
84.6326
 11
-33.9789
 21
87.4172
  0
LINE
  8
0
 10
-33.9789
 20
87.4172
 11
-34.17
 21
85.8601
  0
LINE
  8
0
 10
-34.17
 20
85.8601
 11
-34.4072
 21
83.6012
  0
LINE
  8
0
 10
-34.4072
 20
83.6012
 11
-34.4848
 21
82.7132
  0
LINE
  8
0
 10
-34.4848
 20
82.7132
 11
-34.5114
 21
82.8573
  0
LINE
  8
0
 10
12.6701
 20
55.483
 11
12.4095
 21
56.919
  0
LINE
  8
0
 10
12.4095
 20
56.919
 11
12.174
 21
58.3596
  0
LINE
  8
0
 10
12.174
 20
58.3596
 11
11.9636
 21
59.8044
  0
LINE
  8
0
 10
11.9636
 20
59.8044
 11
11.7784
 21
61.2531
  0
LINE
  8
0
 10
11.7784
 20
61.2531
 11
11.6185
 21
62.7051
  0
LINE
  8
0
 10
11.6185
 20
62.7051
 11
11.4839
 21
64.16
  0
LINE
  8
0
 10
11.4839
 20
64.16
 11
11.3748
 21
65.6174
  0
LINE
  8
0
 10
11.3748
 20
65.6174
 11
11.291
 21
67.0768
  0
LINE
  8
0
 10
11.291
 20
67.0768
 11
11.2328
 21
68.5378
  0
LINE
  8
0
 10
11.2328
 20
68.5378
 11
11.2
 21
70
  0
LINE
  8
0
 10
11.2
 20
70
 11
11.1928
 21
71.4629
  0
LINE
  8
0
 10
11.1928
 20
71.4629
 11
11.2111
 21
72.926
  0
LINE
  8
0
 10
11.2111
 20
72.926
 11
11.2549
 21
74.3889
  0
LINE
  8
0
 10
11.2549
 20
74.3889
 11
11.3243
 21
75.8512
  0
LINE
  8
0
 10
11.3243
 20
75.8512
 11
11.4193
 21
77.3124
  0
LINE
  8
0
 10
11.4193
 20
77.3124
 11
11.5397
 21
78.772
  0
LINE
  8
0
 10
11.5397
 20
78.772
 11
11.6857
 21
80.2297
  0
LINE
  8
0
 10
11.6857
 20
80.2297
 11
11.8571
 21
81.685
  0
LINE
  8
0
 10
11.8571
 20
81.685
 11
12.0539
 21
83.1374
  0
LINE
  8
0
 10
12.0539
 20
83.1374
 11
12.2762
 21
84.5864
  0
LINE
  8
0
 10
12.2762
 20
84.5864
 11
12.5237
 21
86.0318
  0
LINE
  8
0
 10
12.5237
 20
86.0318
 11
12.7843
 21
87.4085
  0
LINE
  8
0
 10
12.7843
 20
87.4085
 11
12.8358
 21
87.0795
  0
LINE
  8
0
 10
12.8358
 20
87.0795
 11
13.0977
 21
85.1921
  0
LINE
  8
0
 10
13.0977
 20
85.1921
 11
13.3265
 21
83.3008
  0
LINE
  8
0
 10
13.3265
 20
83.3008
 11
13.5222
 21
81.4061
  0
LINE
  8
0
 10
13.5222
 20
81.4061
 11
13.6848
 21
79.5087
  0
LINE
  8
0
 10
13.6848
 20
79.5087
 11
13.8143
 21
77.609
  0
LINE
  8
0
 10
13.8143
 20
77.609
 11
13.9105
 21
75.7077
  0
LINE
  8
0
 10
13.9105
 20
75.7077
 11
13.9736
 21
73.8054
  0
LINE
  8
0
 10
13.9736
 20
73.8054
 11
14.0034
 21
71.9026
  0
LINE
  8
0
 10
14.0034
 20
71.9026
 11
14
 21
70
  0
LINE
  8
0
 10
14
 20
70
 11
13.9634
 21
68.098
  0
LINE
  8
0
 10
13.9634
 20
68.098
 11
13.8936
 21
66.1974
  0
LINE
  8
0
 10
13.8936
 20
66.1974
 11
13.7907
 21
64.2985
  0
LINE
  8
0
 10
13.7907
 20
64.2985
 11
13.6547
 21
62.4021
  0
LINE
  8
0
 10
13.6547
 20
62.4021
 11
13.4856
 21
60.5087
  0
LINE
  8
0
 10
13.4856
 20
60.5087
 11
13.2835
 21
58.6189
  0
LINE
  8
0
 10
13.2835
 20
58.6189
 11
13.0486
 21
56.7333
  0
LINE
  8
0
 10
13.0486
 20
56.7333
 11
12.7871
 21
54.8967
  0
LINE
  8
0
 10
12.7871
 20
54.8967
 11
12.6701
 21
55.483
  0
LINE
  8
0
 10
-16.6217
 20
56.2946
 11
-16.8638
 21
58.2426
  0
LINE
  8
0
 10
-16.8638
 20
58.2426
 11
-17.0719
 21
60.195
  0
LINE
  8
0
 10
-17.0719
 20
60.195
 11
-17.2459
 21
62.151
  0
LINE
  8
0
 10
-17.2459
 20
62.151
 11
-17.3858
 21
64.1101
  0
LINE
  8
0
 10
-17.3858
 20
64.1101
 11
-17.4914
 21
66.0717
  0
LINE
  8
0
 10
-17.4914
 20
66.0717
 11
-17.5629
 21
68.0352
  0
LINE
  8
0
 10
-17.5629
 20
68.0352
 11
-17.6
 21
70
  0
LINE
  8
0
 10
-17.6
 20
70
 11
-17.6028
 21
71.9655
  0
LINE
  8
0
 10
-17.6028
 20
71.9655
 11
-17.5714
 21
73.9311
  0
LINE
  8
0
 10
-17.5714
 20
73.9311
 11
-17.5056
 21
75.8962
  0
LINE
  8
0
 10
-17.5056
 20
75.8962
 11
-17.4055
 21
77.8602
  0
LINE
  8
0
 10
-17.4055
 20
77.8602
 11
-17.2711
 21
79.8224
  0
LINE
  8
0
 10
-17.2711
 20
79.8224
 11
-17.1025
 21
81.7824
  0
LINE
  8
0
 10
-17.1025
 20
81.7824
 11
-16.8996
 21
83.7395
  0
LINE
  8
0
 10
-16.8996
 20
83.7395
 11
-16.6626
 21
85.6931
  0
LINE
  8
0
 10
-16.6626
 20
85.6931
 11
-16.4382
 21
87.3066
  0
LINE
  8
0
 10
-16.4382
 20
87.3066
 11
-16.3178
 21
86.7244
  0
LINE
  8
0
 10
-16.3178
 20
86.7244
 11
-16.0576
 21
85.3448
  0
LINE
  8
0
 10
-16.0576
 20
85.3448
 11
-15.8215
 21
83.9613
  0
LINE
  8
0
 10
-15.8215
 20
83.9613
 11
-15.6096
 21
82.5742
  0
LINE
  8
0
 10
-15.6096
 20
82.5742
 11
-15.4221
 21
81.1839
  0
LINE
  8
0
 10
-15.4221
 20
81.1839
 11
-15.2589
 21
79.791
  0
LINE
  8
0
 10
-15.2589
 20
79.791
 11
-15.12
 21
78.3957
  0
LINE
  8
0
 10
-15.12
 20
78.3957
 11
-15.0056
 21
76.9986
  0
LINE
  8
0
 10
-15.0056
 20
76.9986
 11
-14.9156
 21
75.6
  0
LINE
  8
0
 10
-14.9156
 20
75.6
 11
-14.85
 21
74.2005
  0
LINE
  8
0
 10
-14.85
 20
74.2005
 11
-14.8089
 21
72.8003
  0
LINE
  8
0
 10
-14.8089
 20
72.8003
 11
-14.7922
 21
71.4
  0
LINE
  8
0
 10
-14.7922
 20
71.4
 11
-14.8
 21
70
  0
LINE
  8
0
 10
-14.8
 20
70
 11
-14.8322
 21
68.6007
  0
LINE
  8
0
 10
-14.8322
 20
68.6007
 11
-14.8888
 21
67.2025
  0
LINE
  8
0
 10
-14.8888
 20
67.2025
 11
-14.9698
 21
65.8058
  0
LINE
  8
0
 10
-14.9698
 20
65.8058
 11
-15.0752
 21
64.4111
  0
LINE
  8
0
 10
-15.0752
 20
64.4111
 11
-15.2048
 21
63.0188
  0
LINE
  8
0
 10
-15.2048
 20
63.0188
 11
-15.3587
 21
61.6294
  0
LINE
  8
0
 10
-15.3587
 20
61.6294
 11
-15.5368
 21
60.2431
  0
LINE
  8
0
 10
-15.5368
 20
60.2431
 11
-15.739
 21
58.8606
  0
LINE
  8
0
 10
-15.739
 20
58.8606
 11
-15.9652
 21
57.4821
  0
LINE
  8
0
 10
-15.9652
 20
57.4821
 11
-16.2154
 21
56.1082
  0
LINE
  8
0
 10
-16.2154
 20
56.1082
 11
-16.4376
 21
54.9982
  0
LINE
  8
0
 10
-16.4376
 20
54.9982
 11
-16.6217
 21
56.2946
  0
LINE
  8
0
 10
20.0233
 20
55.426
 11
19.7607
 21
56.7333
  0
LINE
  8
0
 10
19.7607
 20
56.7333
 11
19.5209
 21
58.0453
  0
LINE
  8
0
 10
19.5209
 20
58.0453
 11
19.3039
 21
59.3616
  0
LINE
  8
0
 10
19.3039
 20
59.3616
 11
19.1099
 21
60.6819
  0
LINE
  8
0
 10
19.1099
 20
60.6819
 11
18.939
 21
62.0057
  0
LINE
  8
0
 10
18.939
 20
62.0057
 11
18.7911
 21
63.3326
  0
LINE
  8
0
 10
18.7911
 20
63.3326
 11
18.6664
 21
64.6622
  0
LINE
  8
0
 10
18.6664
 20
64.6622
 11
18.5649
 21
65.9942
  0
LINE
  8
0
 10
18.5649
 20
65.9942
 11
18.4866
 21
67.3281
  0
LINE
  8
0
 10
18.4866
 20
67.3281
 11
18.4317
 21
68.6635
  0
LINE
  8
0
 10
18.4317
 20
68.6635
 11
18.4
 21
70
  0
LINE
  8
0
 10
18.4
 20
70
 11
18.3917
 21
71.3372
  0
LINE
  8
0
 10
18.3917
 20
71.3372
 11
18.4067
 21
72.6747
  0
LINE
  8
0
 10
18.4067
 20
72.6747
 11
18.4451
 21
74.0121
  0
LINE
  8
0
 10
18.4451
 20
74.0121
 11
18.5068
 21
75.3489
  0
LINE
  8
0
 10
18.5068
 20
75.3489
 11
18.5919
 21
76.6848
  0
LINE
  8
0
 10
18.5919
 20
76.6848
 11
18.7003
 21
78.0194
  0
LINE
  8
0
 10
18.7003
 20
78.0194
 11
18.832
 21
79.3522
  0
LINE
  8
0
 10
18.832
 20
79.3522
 11
18.987
 21
80.6829
  0
LINE
  8
0
 10
18.987
 20
80.6829
 11
19.1653
 21
82.011
  0
LINE
  8
0
 10
19.1653
 20
82.011
 11
19.3668
 21
83.3362
  0
LINE
  8
0
 10
19.3668
 20
83.3362
 11
19.5914
 21
84.6579
  0
LINE
  8
0
 10
19.5914
 20
84.6579
 11
19.8391
 21
85.9759
  0
LINE
  8
0
 10
19.8391
 20
85.9759
 11
20.089
 21
87.1883
  0
LINE
  8
0
 10
20.089
 20
87.1883
 11
20.2276
 21
86.1942
  0
LINE
  8
0
 10
20.2276
 20
86.1942
 11
20.4728
 21
84.1783
  0
LINE
  8
0
 10
20.4728
 20
84.1783
 11
20.6828
 21
82.1587
  0
LINE
  8
0
 10
20.6828
 20
82.1587
 11
20.8574
 21
80.1362
  0
LINE
  8
0
 10
20.8574
 20
80.1362
 11
20.9967
 21
78.1113
  0
LINE
  8
0
 10
20.9967
 20
78.1113
 11
21.1007
 21
76.0846
  0
LINE
  8
0
 10
21.1007
 20
76.0846
 11
21.1692
 21
74.0567
  0
LINE
  8
0
 10
21.1692
 20
74.0567
 11
21.2023
 21
72.0283
  0
LINE
  8
0
 10
21.2023
 20
72.0283
 11
21.2
 21
70
  0
LINE
  8
0
 10
21.2
 20
70
 11
21.1623
 21
67.9724
  0
LINE
  8
0
 10
21.1623
 20
67.9724
 11
21.0892
 21
65.9461
  0
LINE
  8
0
 10
21.0892
 20
65.9461
 11
20.9808
 21
63.9217
  0
LINE
  8
0
 10
20.9808
 20
63.9217
 11
20.8371
 21
61.8999
  0
LINE
  8
0
 10
20.8371
 20
61.8999
 11
20.6582
 21
59.8812
  0
LINE
  8
0
 10
20.6582
 20
59.8812
 11
20.4441
 21
57.8663
  0
LINE
  8
0
 10
20.4441
 20
57.8663
 11
20.1949
 21
55.8559
  0
LINE
  8
0
 10
20.1949
 20
55.8559
 11
20.0905
 21
55.1193
  0
LINE
  8
0
 10
20.0905
 20
55.1193
 11
20.0233
 21
55.426
  0
LINE
  8
0
 10
-23.7681
 20
55.4171
 11
-24.0244
 21
57.49
  0
LINE
  8
0
 10
-24.0244
 20
57.49
 11
-24.2445
 21
59.5675
  0
LINE
  8
0
 10
-24.2445
 20
59.5675
 11
-24.4284
 21
61.6488
  0
LINE
  8
0
 10
-24.4284
 20
61.6488
 11
-24.5759
 21
63.7333
  0
LINE
  8
0
 10
-24.5759
 20
63.7333
 11
-24.687
 21
65.8204
  0
LINE
  8
0
 10
-24.687
 20
65.8204
 11
-24.7617
 21
67.9096
  0
LINE
  8
0
 10
-24.7617
 20
67.9096
 11
-24.8
 21
70
  0
LINE
  8
0
 10
-24.8
 20
70
 11
-24.8017
 21
72.0911
  0
LINE
  8
0
 10
-24.8017
 20
72.0911
 11
-24.767
 21
74.1823
  0
LINE
  8
0
 10
-24.767
 20
74.1823
 11
-24.6957
 21
76.273
  0
LINE
  8
0
 10
-24.6957
 20
76.273
 11
-24.588
 21
78.3624
  0
LINE
  8
0
 10
-24.588
 20
78.3624
 11
-24.4437
 21
80.45
  0
LINE
  8
0
 10
-24.4437
 20
80.45
 11
-24.2631
 21
82.535
  0
LINE
  8
0
 10
-24.2631
 20
82.535
 11
-24.046
 21
84.617
  0
LINE
  8
0
 10
-24.046
 20
84.617
 11
-23.7926
 21
86.6952
  0
LINE
  8
0
 10
-23.7926
 20
86.6952
 11
-23.7438
 21
87.0441
  0
LINE
  8
0
 10
-23.7438
 20
87.0441
 11
-23.6177
 21
86.4799
  0
LINE
  8
0
 10
-23.6177
 20
86.4799
 11
-23.3605
 21
85.2274
  0
LINE
  8
0
 10
-23.3605
 20
85.2274
 11
-23.1253
 21
83.971
  0
LINE
  8
0
 10
-23.1253
 20
83.971
 11
-22.9121
 21
82.711
  0
LINE
  8
0
 10
-22.9121
 20
82.711
 11
-22.721
 21
81.4479
  0
LINE
  8
0
 10
-22.721
 20
81.4479
 11
-22.552
 21
80.1819
  0
LINE
  8
0
 10
-22.552
 20
80.1819
 11
-22.4052
 21
78.9135
  0
LINE
  8
0
 10
-22.4052
 20
78.9135
 11
-22.2806
 21
77.6431
  0
LINE
  8
0
 10
-22.2806
 20
77.6431
 11
-22.1782
 21
76.3711
  0
LINE
  8
0
 10
-22.1782
 20
76.3711
 11
-22.098
 21
75.0978
  0
LINE
  8
0
 10
-22.098
 20
75.0978
 11
-22.0401
 21
73.8237
  0
LINE
  8
0
 10
-22.0401
 20
73.8237
 11
-22.0045
 21
72.5491
  0
LINE
  8
0
 10
-22.0045
 20
72.5491
 11
-21.9911
 21
71.2744
  0
LINE
  8
0
 10
-21.9911
 20
71.2744
 11
-22
 21
70
  0
LINE
  8
0
 10
-22
 20
70
 11
-22.0311
 21
68.7263
  0
LINE
  8
0
 10
-22.0311
 20
68.7263
 11
-22.0845
 21
67.4537
  0
LINE
  8
0
 10
-22.0845
 20
67.4537
 11
-22.16
 21
66.1826
  0
LINE
  8
0
 10
-22.16
 20
66.1826
 11
-22.2576
 21
64.9134
  0
LINE
  8
0
 10
-22.2576
 20
64.9134
 11
-22.3774
 21
63.6463
  0
LINE
  8
0
 10
-22.3774
 20
63.6463
 11
-22.5193
 21
62.382
  0
LINE
  8
0
 10
-22.5193
 20
62.382
 11
-22.6831
 21
61.1206
  0
LINE
  8
0
 10
-22.6831
 20
61.1206
 11
-22.8689
 21
59.8626
  0
LINE
  8
0
 10
-22.8689
 20
59.8626
 11
-23.0765
 21
58.6084
  0
LINE
  8
0
 10
-23.0765
 20
58.6084
 11
-23.306
 21
57.3584
  0
LINE
  8
0
 10
-23.306
 20
57.3584
 11
-23.5572
 21
56.1129
  0
LINE
  8
0
 10
-23.5572
 20
56.1129
 11
-23.7454
 21
55.2569
  0
LINE
  8
0
 10
-23.7454
 20
55.2569
 11
-23.7681
 21
55.4171
  0
LINE
  8
0
 10
27.3513
 20
55.6208
 11
27.091
 21
56.7998
  0
LINE
  8
0
 10
27.091
 20
56.7998
 11
26.8513
 21
57.9836
  0
LINE
  8
0
 10
26.8513
 20
57.9836
 11
26.6322
 21
59.1716
  0
LINE
  8
0
 10
26.6322
 20
59.1716
 11
26.4339
 21
60.3637
  0
LINE
  8
0
 10
26.4339
 20
60.3637
 11
26.2563
 21
61.5593
  0
LINE
  8
0
 10
26.2563
 20
61.5593
 11
26.0995
 21
62.7583
  0
LINE
  8
0
 10
26.0995
 20
62.7583
 11
25.9637
 21
63.9601
  0
LINE
  8
0
 10
25.9637
 20
63.9601
 11
25.8489
 21
65.1645
  0
LINE
  8
0
 10
25.8489
 20
65.1645
 11
25.755
 21
66.371
  0
LINE
  8
0
 10
25.755
 20
66.371
 11
25.6823
 21
67.5794
  0
LINE
  8
0
 10
25.6823
 20
67.5794
 11
25.6306
 21
68.7892
  0
LINE
  8
0
 10
25.6306
 20
68.7892
 11
25.6
 21
70
  0
LINE
  8
0
 10
25.6
 20
70
 11
25.5906
 21
71.2115
  0
LINE
  8
0
 10
25.5906
 20
71.2115
 11
25.6023
 21
72.4234
  0
LINE
  8
0
 10
25.6023
 20
72.4234
 11
25.6352
 21
73.6353
  0
LINE
  8
0
 10
25.6352
 20
73.6353
 11
25.6893
 21
74.8467
  0
LINE
  8
0
 10
25.6893
 20
74.8467
 11
25.7645
 21
76.0573
  0
LINE
  8
0
 10
25.7645
 20
76.0573
 11
25.8608
 21
77.2668
  0
LINE
  8
0
 10
25.8608
 20
77.2668
 11
25.9783
 21
78.4748
  0
LINE
  8
0
 10
25.9783
 20
78.4748
 11
26.117
 21
79.6809
  0
LINE
  8
0
 10
26.117
 20
79.6809
 11
26.2767
 21
80.8847
  0
LINE
  8
0
 10
26.2767
 20
80.8847
 11
26.4574
 21
82.0859
  0
LINE
  8
0
 10
26.4574
 20
82.0859
 11
26.6591
 21
83.2841
  0
LINE
  8
0
 10
26.6591
 20
83.2841
 11
26.8818
 21
84.479
  0
LINE
  8
0
 10
26.8818
 20
84.479
 11
27.1254
 21
85.6701
  0
LINE
  8
0
 10
27.1254
 20
85.6701
 11
27.3898
 21
86.8571
  0
LINE
  8
0
 10
27.3898
 20
86.8571
 11
27.3959
 21
86.8823
  0
LINE
  8
0
 10
27.3959
 20
86.8823
 11
27.6191
 21
85.0557
  0
LINE
  8
0
 10
27.6191
 20
85.0557
 11
27.8433
 21
82.9113
  0
LINE
  8
0
 10
27.8433
 20
82.9113
 11
28.03
 21
80.7637
  0
LINE
  8
0
 10
28.03
 20
80.7637
 11
28.1792
 21
78.6135
  0
LINE
  8
0
 10
28.1792
 20
78.6135
 11
28.2908
 21
76.4614
  0
LINE
  8
0
 10
28.2908
 20
76.4614
 11
28.3648
 21
74.308
  0
LINE
  8
0
 10
28.3648
 20
74.308
 11
28.4012
 21
72.154
  0
LINE
  8
0
 10
28.4012
 20
72.154
 11
28.4
 21
70
  0
LINE
  8
0
 10
28.4
 20
70
 11
28.3612
 21
67.8467
  0
LINE
  8
0
 10
28.3612
 20
67.8467
 11
28.2849
 21
65.6948
  0
LINE
  8
0
 10
28.2849
 20
65.6948
 11
28.171
 21
63.5449
  0
LINE
  8
0
 10
28.171
 20
63.5449
 11
28.0196
 21
61.3976
  0
LINE
  8
0
 10
28.0196
 20
61.3976
 11
27.8308
 21
59.2537
  0
LINE
  8
0
 10
27.8308
 20
59.2537
 11
27.6046
 21
57.1137
  0
LINE
  8
0
 10
27.6046
 20
57.1137
 11
27.3969
 21
55.43
  0
LINE
  8
0
 10
27.3969
 20
55.43
 11
27.3513
 21
55.6208
  0
LINE
  8
0
 10
-31.1849
 20
56.7374
 11
-31.4171
 21
58.9399
  0
LINE
  8
0
 10
-31.4171
 20
58.9399
 11
-31.6108
 21
61.1465
  0
LINE
  8
0
 10
-31.6108
 20
61.1465
 11
-31.766
 21
63.3565
  0
LINE
  8
0
 10
-31.766
 20
63.3565
 11
-31.8826
 21
65.5692
  0
LINE
  8
0
 10
-31.8826
 20
65.5692
 11
-31.9606
 21
67.7839
  0
LINE
  8
0
 10
-31.9606
 20
67.7839
 11
-32
 21
70
  0
LINE
  8
0
 10
-32
 20
70
 11
-32.0006
 21
72.2168
  0
LINE
  8
0
 10
-32.0006
 20
72.2168
 11
-31.9626
 21
74.4336
  0
LINE
  8
0
 10
-31.9626
 20
74.4336
 11
-31.8859
 21
76.6498
  0
LINE
  8
0
 10
-31.8859
 20
76.6498
 11
-31.7704
 21
78.8646
  0
LINE
  8
0
 10
-31.7704
 20
78.8646
 11
-31.6163
 21
81.0775
  0
LINE
  8
0
 10
-31.6163
 20
81.0775
 11
-31.4236
 21
83.2876
  0
LINE
  8
0
 10
-31.4236
 20
83.2876
 11
-31.1923
 21
85.4945
  0
LINE
  8
0
 10
-31.1923
 20
85.4945
 11
-31.0479
 21
86.6733
  0
LINE
  8
0
 10
-31.0479
 20
86.6733
 11
-30.8829
 21
85.9862
  0
LINE
  8
0
 10
-30.8829
 20
85.9862
 11
-30.6331
 21
84.8603
  0
LINE
  8
0
 10
-30.6331
 20
84.8603
 11
-30.4031
 21
83.7305
  0
LINE
  8
0
 10
-30.4031
 20
83.7305
 11
-30.193
 21
82.5972
  0
LINE
  8
0
 10
-30.193
 20
82.5972
 11
-30.0027
 21
81.4608
  0
LINE
  8
0
 10
-30.0027
 20
81.4608
 11
-29.8323
 21
80.3215
  0
LINE
  8
0
 10
-29.8323
 20
80.3215
 11
-29.6819
 21
79.1799
  0
LINE
  8
0
 10
-29.6819
 20
79.1799
 11
-29.5515
 21
78.0361
  0
LINE
  8
0
 10
-29.5515
 20
78.0361
 11
-29.4411
 21
76.8905
  0
LINE
  8
0
 10
-29.4411
 20
76.8905
 11
-29.3508
 21
75.7436
  0
LINE
  8
0
 10
-29.3508
 20
75.7436
 11
-29.2805
 21
74.5956
  0
LINE
  8
0
 10
-29.2805
 20
74.5956
 11
-29.2303
 21
73.4468
  0
LINE
  8
0
 10
-29.2303
 20
73.4468
 11
-29.2001
 21
72.2978
  0
LINE
  8
0
 10
-29.2001
 20
72.2978
 11
-29.19
 21
71.1487
  0
LINE
  8
0
 10
-29.19
 20
71.1487
 11
-29.2
 21
70
  0
LINE
  8
0
 10
-29.2
 20
70
 11
-29.23
 21
68.852
  0
LINE
  8
0
 10
-29.23
 20
68.852
 11
-29.2801
 21
67.705
  0
LINE
  8
0
 10
-29.2801
 20
67.705
 11
-29.3501
 21
66.5594
  0
LINE
  8
0
 10
-29.3501
 20
66.5594
 11
-29.4401
 21
65.4156
  0
LINE
  8
0
 10
-29.4401
 20
65.4156
 11
-29.55
 21
64.2739
  0
LINE
  8
0
 10
-29.55
 20
64.2739
 11
-29.6798
 21
63.1346
  0
LINE
  8
0
 10
-29.6798
 20
63.1346
 11
-29.8294
 21
61.9981
  0
LINE
  8
0
 10
-29.8294
 20
61.9981
 11
-29.9988
 21
60.8647
  0
LINE
  8
0
 10
-29.9988
 20
60.8647
 11
-30.1879
 21
59.7348
  0
LINE
  8
0
 10
-30.1879
 20
59.7348
 11
-30.3966
 21
58.6087
  0
LINE
  8
0
 10
-30.3966
 20
58.6087
 11
-30.6249
 21
57.4868
  0
LINE
  8
0
 10
-30.6249
 20
57.4868
 11
-30.8727
 21
56.3693
  0
LINE
  8
0
 10
-30.8727
 20
56.3693
 11
-31.0491
 21
55.6343
  0
LINE
  8
0
 10
-31.0491
 20
55.6343
 11
-31.1849
 21
56.7374
  0
LINE
  8
0
 10
34.6475
 20
56.0665
 11
34.394
 21
57.1178
  0
LINE
  8
0
 10
34.394
 20
57.1178
 11
34.1588
 21
58.1737
  0
LINE
  8
0
 10
34.1588
 20
58.1737
 11
33.9419
 21
59.2338
  0
LINE
  8
0
 10
33.9419
 20
59.2338
 11
33.7436
 21
60.2979
  0
LINE
  8
0
 10
33.7436
 20
60.2979
 11
33.5638
 21
61.3657
  0
LINE
  8
0
 10
33.5638
 20
61.3657
 11
33.4026
 21
62.4368
  0
LINE
  8
0
 10
33.4026
 20
62.4368
 11
33.2601
 21
63.5109
  0
LINE
  8
0
 10
33.2601
 20
63.5109
 11
33.1363
 21
64.5876
  0
LINE
  8
0
 10
33.1363
 20
64.5876
 11
33.0313
 21
65.6667
  0
LINE
  8
0
 10
33.0313
 20
65.6667
 11
32.9452
 21
66.7478
  0
LINE
  8
0
 10
32.9452
 20
66.7478
 11
32.8779
 21
67.8307
  0
LINE
  8
0
 10
32.8779
 20
67.8307
 11
32.8295
 21
68.9148
  0
LINE
  8
0
 10
32.8295
 20
68.9148
 11
32.8
 21
70
  0
LINE
  8
0
 10
32.8
 20
70
 11
32.7895
 21
71.0859
  0
LINE
  8
0
 10
32.7895
 20
71.0859
 11
32.7979
 21
72.1721
  0
LINE
  8
0
 10
32.7979
 20
72.1721
 11
32.8253
 21
73.2584
  0
LINE
  8
0
 10
32.8253
 20
73.2584
 11
32.8717
 21
74.3444
  0
LINE
  8
0
 10
32.8717
 20
74.3444
 11
32.9371
 21
75.4298
  0
LINE
  8
0
 10
32.9371
 20
75.4298
 11
33.0214
 21
76.5142
  0
LINE
  8
0
 10
33.0214
 20
76.5142
 11
33.1247
 21
77.5973
  0
LINE
  8
0
 10
33.1247
 20
77.5973
 11
33.2469
 21
78.6788
  0
LINE
  8
0
 10
33.2469
 20
78.6788
 11
33.388
 21
79.7584
  0
LINE
  8
0
 10
33.388
 20
79.7584
 11
33.548
 21
80.8356
  0
LINE
  8
0
 10
33.548
 20
80.8356
 11
33.7268
 21
81.9103
  0
LINE
  8
0
 10
33.7268
 20
81.9103
 11
33.9245
 21
82.982
  0
LINE
  8
0
 10
33.9245
 20
82.982
 11
34.1409
 21
84.0504
  0
LINE
  8
0
 10
34.1409
 20
84.0504
 11
34.3759
 21
85.1153
  0
LINE
  8
0
 10
34.3759
 20
85.1153
 11
34.5247
 21
85.7374
  0
LINE
  8
0
 10
34.5247
 20
85.7374
 11
34.9109
 21
84.5486
  0
LINE
  8
0
 10
34.9109
 20
84.5486
 11
35.0039
 21
83.664
  0
LINE
  8
0
 10
35.0039
 20
83.664
 11
35.2026
 21
81.3913
  0
LINE
  8
0
 10
35.2026
 20
81.3913
 11
35.3617
 21
79.1158
  0
LINE
  8
0
 10
35.3617
 20
79.1158
 11
35.4809
 21
76.8382
  0
LINE
  8
0
 10
35.4809
 20
76.8382
 11
35.5604
 21
74.5593
  0
LINE
  8
0
 10
35.5604
 20
74.5593
 11
35.6001
 21
72.2796
  0
LINE
  8
0
 10
35.6001
 20
72.2796
 11
35.6
 21
70
  0
LINE
  8
0
 10
35.6
 20
70
 11
35.5601
 21
67.7211
  0
LINE
  8
0
 10
35.5601
 20
67.7211
 11
35.4805
 21
65.4435
  0
LINE
  8
0
 10
35.4805
 20
65.4435
 11
35.3611
 21
63.1681
  0
LINE
  8
0
 10
35.3611
 20
63.1681
 11
35.2021
 21
60.8954
  0
LINE
  8
0
 10
35.2021
 20
60.8954
 11
35.0034
 21
58.6262
  0
LINE
  8
0
 10
35.0034
 20
58.6262
 11
34.7652
 21
56.3611
  0
LINE
  8
0
 10
34.7652
 20
56.3611
 11
34.7029
 21
55.8535
  0
LINE
  8
0
 10
34.7029
 20
55.8535
 11
34.6475
 21
56.0665
  0
LINE
  8
0
 10
-38.5897
 20
58.3124
 11
-38.7933
 21
60.6443
  0
LINE
  8
0
 10
-38.7933
 20
60.6443
 11
-38.9562
 21
62.9797
  0
LINE
  8
0
 10
-38.9562
 20
62.9797
 11
-39.0783
 21
65.3179
  0
LINE
  8
0
 10
-39.0783
 20
65.3179
 11
-39.1596
 21
67.6582
  0
LINE
  8
0
 10
-39.1596
 20
67.6582
 11
-39.2
 21
70
  0
LINE
  8
0
 10
-39.2
 20
70
 11
-39.1997
 21
71.349
  0
LINE
  8
0
 10
-39.1997
 20
71.349
 11
-36.8601
 21
78.5498
  0
LINE
  8
0
 10
-36.8601
 20
78.5498
 11
-36.8119
 21
78.1778
  0
LINE
  8
0
 10
-36.8119
 20
78.1778
 11
-36.6978
 21
77.1586
  0
LINE
  8
0
 10
-36.6978
 20
77.1586
 11
-36.6017
 21
76.1379
  0
LINE
  8
0
 10
-36.6017
 20
76.1379
 11
-36.5234
 21
75.116
  0
LINE
  8
0
 10
-36.5234
 20
75.116
 11
-36.463
 21
74.0933
  0
LINE
  8
0
 10
-36.463
 20
74.0933
 11
-36.4204
 21
73.07
  0
LINE
  8
0
 10
-36.4204
 20
73.07
 11
-36.3957
 21
72.0465
  0
LINE
  8
0
 10
-36.3957
 20
72.0465
 11
-36.3889
 21
71.0231
  0
LINE
  8
0
 10
-36.3889
 20
71.0231
 11
-36.4
 21
70
  0
LINE
  8
0
 10
-36.4
 20
70
 11
-36.4289
 21
68.9776
  0
LINE
  8
0
 10
-36.4289
 20
68.9776
 11
-36.4757
 21
67.9563
  0
LINE
  8
0
 10
-36.4757
 20
67.9563
 11
-36.5402
 21
66.9363
  0
LINE
  8
0
 10
-36.5402
 20
66.9363
 11
-36.6226
 21
65.9179
  0
LINE
  8
0
 10
-36.6226
 20
65.9179
 11
-36.7226
 21
64.9014
  0
LINE
  8
0
 10
-36.7226
 20
64.9014
 11
-36.8404
 21
63.8872
  0
LINE
  8
0
 10
-36.8404
 20
63.8872
 11
-36.9758
 21
62.8755
  0
LINE
  8
0
 10
-36.9758
 20
62.8755
 11
-37.1287
 21
61.8667
  0
LINE
  8
0
 10
-37.1287
 20
61.8667
 11
-37.2993
 21
60.8611
  0
LINE
  8
0
 10
-37.2993
 20
60.8611
 11
-37.4872
 21
59.8589
  0
LINE
  8
0
 10
-37.4872
 20
59.8589
 11
-37.6926
 21
58.8606
  0
LINE
  8
0
 10
-37.6926
 20
58.8606
 11
-37.9153
 21
57.8663
  0
LINE
  8
0
 10
-37.9153
 20
57.8663
 11
-38.1553
 21
56.8764
  0
LINE
  8
0
 10
-38.1553
 20
56.8764
 11
-38.3577
 21
56.1008
  0
LINE
  8
0
 10
-38.3577
 20
56.1008
 11
-38.5897
 21
58.3124
  0
LINE
  8
0
 10
41.9054
 20
56.762
 11
41.663
 21
57.6862
  0
LINE
  8
0
 10
41.663
 20
57.6862
 11
41.4366
 21
58.6148
  0
LINE
  8
0
 10
41.4366
 20
58.6148
 11
41.2265
 21
59.5475
  0
LINE
  8
0
 10
41.2265
 20
59.5475
 11
41.0325
 21
60.4841
  0
LINE
  8
0
 10
41.0325
 20
60.4841
 11
40.8549
 21
61.4243
  0
LINE
  8
0
 10
40.8549
 20
61.4243
 11
40.6937
 21
62.3678
  0
LINE
  8
0
 10
40.6937
 20
62.3678
 11
40.5489
 21
63.3143
  0
LINE
  8
0
 10
40.5489
 20
63.3143
 11
40.4206
 21
64.2635
  0
LINE
  8
0
 10
40.4206
 20
64.2635
 11
40.3089
 21
65.2152
  0
LINE
  8
0
 10
40.3089
 20
65.2152
 11
40.2138
 21
66.169
  0
LINE
  8
0
 10
40.2138
 20
66.169
 11
40.1353
 21
67.1247
  0
LINE
  8
0
 10
40.1353
 20
67.1247
 11
40.0735
 21
68.0819
  0
LINE
  8
0
 10
40.0735
 20
68.0819
 11
40.0417
 21
68.7578
  0
LINE
  8
0
 10
40.0417
 20
68.7578
 11
42.4506
 21
61.3439
  0
LINE
  8
0
 10
42.4506
 20
61.3439
 11
42.3845
 21
60.3931
  0
LINE
  8
0
 10
42.3845
 20
60.3931
 11
42.176
 21
57.9987
  0
LINE
  8
0
 10
42.176
 20
57.9987
 11
42.0082
 21
56.3963
  0
LINE
  8
0
 10
42.0082
 20
56.3963
 11
41.9054
 21
56.762
  0
LINE
  8
0
 10
-43.5861
 20
43.0616
 11
-44.0548
 21
45.4809
  0
LINE
  8
0
 10
-44.0548
 20
45.4809
 11
-44.4813
 21
47.9083
  0
LINE
  8
0
 10
-44.4813
 20
47.9083
 11
-44.83
 21
50.1186
  0
LINE
  8
0
 10
-44.83
 20
50.1186
 11
-44.6053
 21
50.6553
  0
LINE
  8
0
 10
-44.6053
 20
50.6553
 11
-44.2566
 21
51.5309
  0
LINE
  8
0
 10
-44.2566
 20
51.5309
 11
-43.9231
 21
52.4128
  0
LINE
  8
0
 10
-43.9231
 20
52.4128
 11
-43.6049
 21
53.3007
  0
LINE
  8
0
 10
-43.6049
 20
53.3007
 11
-43.3022
 21
54.1944
  0
LINE
  8
0
 10
-43.3022
 20
54.1944
 11
-43.015
 21
55.0935
  0
LINE
  8
0
 10
-43.015
 20
55.0935
 11
-42.7434
 21
55.9979
  0
LINE
  8
0
 10
-42.7434
 20
55.9979
 11
-42.4876
 21
56.9072
  0
LINE
  8
0
 10
-42.4876
 20
56.9072
 11
-42.2476
 21
57.8212
  0
LINE
  8
0
 10
-42.2476
 20
57.8212
 11
-42.0235
 21
58.7395
  0
LINE
  8
0
 10
-42.0235
 20
58.7395
 11
-41.8154
 21
59.662
  0
LINE
  8
0
 10
-41.8154
 20
59.662
 11
-41.7473
 21
59.9908
  0
LINE
  8
0
 10
-41.7473
 20
59.9908
 11
-41.5783
 21
58.0509
  0
LINE
  8
0
 10
-41.5783
 20
58.0509
 11
-41.3291
 21
55.6712
  0
LINE
  8
0
 10
-41.3291
 20
55.6712
 11
-41.0384
 21
53.2966
  0
LINE
  8
0
 10
-41.0384
 20
53.2966
 11
-40.7063
 21
50.9277
  0
LINE
  8
0
 10
-40.7063
 20
50.9277
 11
-40.4992
 21
49.6169
  0
LINE
  8
0
 10
-40.4992
 20
49.6169
 11
-40.6843
 21
49.1502
  0
LINE
  8
0
 10
-40.6843
 20
49.1502
 11
-41.075
 21
48.2129
  0
LINE
  8
0
 10
-41.075
 20
48.2129
 11
-41.4819
 21
47.2829
  0
LINE
  8
0
 10
-41.4819
 20
47.2829
 11
-41.9047
 21
46.3605
  0
LINE
  8
0
 10
-41.9047
 20
46.3605
 11
-42.3435
 21
45.4459
  0
LINE
  8
0
 10
-42.3435
 20
45.4459
 11
-42.798
 21
44.5394
  0
LINE
  8
0
 10
-42.798
 20
44.5394
 11
-43.2682
 21
43.6413
  0
LINE
  8
0
 10
-43.2682
 20
43.6413
 11
-43.5857
 21
43.0596
  0
LINE
  8
0
 10
-43.5857
 20
43.0596
 11
-43.5861
 21
43.0616
  0
LINE
  8
0
 10
39.5624
 20
42.9613
 11
39.0808
 21
43.9245
  0
LINE
  8
0
 10
39.0808
 20
43.9245
 11
38.616
 21
44.8962
  0
LINE
  8
0
 10
38.616
 20
44.8962
 11
38.168
 21
45.8763
  0
LINE
  8
0
 10
38.168
 20
45.8763
 11
37.7371
 21
46.8643
  0
LINE
  8
0
 10
37.7371
 20
46.8643
 11
37.3234
 21
47.86
  0
LINE
  8
0
 10
37.3234
 20
47.86
 11
36.927
 21
48.8632
  0
LINE
  8
0
 10
36.927
 20
48.8632
 11
36.7922
 21
49.2224
  0
LINE
  8
0
 10
36.7922
 20
49.2224
 11
37.1414
 21
51.4287
  0
LINE
  8
0
 10
37.1414
 20
51.4287
 11
37.4652
 21
53.7353
  0
LINE
  8
0
 10
37.4652
 20
53.7353
 11
37.7488
 21
56.0475
  0
LINE
  8
0
 10
37.7488
 20
56.0475
 11
37.992
 21
58.3647
  0
LINE
  8
0
 10
37.992
 20
58.3647
 11
38.1157
 21
59.7808
  0
LINE
  8
0
 10
38.1157
 20
59.7808
 11
38.2816
 21
58.9751
  0
LINE
  8
0
 10
38.2816
 20
58.9751
 11
38.5022
 21
57.991
  0
LINE
  8
0
 10
38.5022
 20
57.991
 11
38.7399
 21
57.0113
  0
LINE
  8
0
 10
38.7399
 20
57.0113
 11
38.9945
 21
56.0363
  0
LINE
  8
0
 10
38.9945
 20
56.0363
 11
39.2661
 21
55.0661
  0
LINE
  8
0
 10
39.2661
 20
55.0661
 11
39.5544
 21
54.1012
  0
LINE
  8
0
 10
39.5544
 20
54.1012
 11
39.8595
 21
53.1419
  0
LINE
  8
0
 10
39.8595
 20
53.1419
 11
40.1811
 21
52.1883
  0
LINE
  8
0
 10
40.1811
 20
52.1883
 11
40.5192
 21
51.2408
  0
LINE
  8
0
 10
40.5192
 20
51.2408
 11
40.8737
 21
50.2997
  0
LINE
  8
0
 10
40.8737
 20
50.2997
 11
41.1174
 21
49.6854
  0
LINE
  8
0
 10
41.1174
 20
49.6854
 11
40.9257
 21
48.4715
  0
LINE
  8
0
 10
40.9257
 20
48.4715
 11
40.5095
 21
46.106
  0
LINE
  8
0
 10
40.5095
 20
46.106
 11
40.0523
 21
43.7485
  0
LINE
  8
0
 10
40.0523
 20
43.7485
 11
39.792
 21
42.5215
  0
LINE
  8
0
 10
39.792
 20
42.5215
 11
39.5624
 21
42.9613
  0
LINE
  8
0
 10
-36.0326
 20
42.1482
 11
-36.5184
 21
44.4354
  0
LINE
  8
0
 10
-36.5184
 20
44.4354
 11
-36.9642
 21
46.7312
  0
LINE
  8
0
 10
-36.9642
 20
46.7312
 11
-37.37
 21
49.0347
  0
LINE
  8
0
 10
-37.37
 20
49.0347
 11
-37.4096
 21
49.2849
  0
LINE
  8
0
 10
-37.4096
 20
49.2849
 11
-37.1154
 21
50.0687
  0
LINE
  8
0
 10
-37.1154
 20
50.0687
 11
-36.7573
 21
51.0758
  0
LINE
  8
0
 10
-36.7573
 20
51.0758
 11
-36.4168
 21
52.0893
  0
LINE
  8
0
 10
-36.4168
 20
52.0893
 11
-36.0939
 21
53.1089
  0
LINE
  8
0
 10
-36.0939
 20
53.1089
 11
-35.7888
 21
54.1344
  0
LINE
  8
0
 10
-35.7888
 20
54.1344
 11
-35.5015
 21
55.1654
  0
LINE
  8
0
 10
-35.5015
 20
55.1654
 11
-35.2321
 21
56.2015
  0
LINE
  8
0
 10
-35.2321
 20
56.2015
 11
-34.9809
 21
57.2426
  0
LINE
  8
0
 10
-34.9809
 20
57.2426
 11
-34.7477
 21
58.2881
  0
LINE
  8
0
 10
-34.7477
 20
58.2881
 11
-34.5328
 21
59.338
  0
LINE
  8
0
 10
-34.5328
 20
59.338
 11
-34.4856
 21
59.591
  0
LINE
  8
0
 10
-34.4856
 20
59.591
 11
-34.4057
 21
58.6785
  0
LINE
  8
0
 10
-34.4057
 20
58.6785
 11
-34.1685
 21
56.4238
  0
LINE
  8
0
 10
-34.1685
 20
56.4238
 11
-33.892
 21
54.1741
  0
LINE
  8
0
 10
-33.892
 20
54.1741
 11
-33.5764
 21
51.9298
  0
LINE
  8
0
 10
-33.5764
 20
51.9298
 11
-33.2217
 21
49.6917
  0
LINE
  8
0
 10
-33.2217
 20
49.6917
 11
-33.0793
 21
48.8846
  0
LINE
  8
0
 10
-33.0793
 20
48.8846
 11
-33.1442
 21
48.7013
  0
LINE
  8
0
 10
-33.1442
 20
48.7013
 11
-33.5441
 21
47.6319
  0
LINE
  8
0
 10
-33.5441
 20
47.6319
 11
-33.9625
 21
46.5699
  0
LINE
  8
0
 10
-33.9625
 20
46.5699
 11
-34.3993
 21
45.5157
  0
LINE
  8
0
 10
-34.3993
 20
45.5157
 11
-34.8542
 21
44.4696
  0
LINE
  8
0
 10
-34.8542
 20
44.4696
 11
-35.3272
 21
43.432
  0
LINE
  8
0
 10
-35.3272
 20
43.432
 11
-35.8181
 21
42.403
  0
LINE
  8
0
 10
-35.8181
 20
42.403
 11
-36.005
 21
42.0283
  0
LINE
  8
0
 10
-36.005
 20
42.0283
 11
-36.0326
 21
42.1482
  0
LINE
  8
0
 10
32.0385
 20
41.9677
 11
31.5404
 21
43.063
  0
LINE
  8
0
 10
31.5404
 20
43.063
 11
31.0614
 21
44.1671
  0
LINE
  8
0
 10
31.0614
 20
44.1671
 11
30.6016
 21
45.2798
  0
LINE
  8
0
 10
30.6016
 20
45.2798
 11
30.1612
 21
46.4006
  0
LINE
  8
0
 10
30.1612
 20
46.4006
 11
29.7403
 21
47.5293
  0
LINE
  8
0
 10
29.7403
 20
47.5293
 11
29.3698
 21
48.5784
  0
LINE
  8
0
 10
29.3698
 20
48.5784
 11
29.666
 21
50.2549
  0
LINE
  8
0
 10
29.666
 20
50.2549
 11
30.0114
 21
52.4308
  0
LINE
  8
0
 10
30.0114
 20
52.4308
 11
30.3189
 21
54.6128
  0
LINE
  8
0
 10
30.3189
 20
54.6128
 11
30.5882
 21
56.8002
  0
LINE
  8
0
 10
30.5882
 20
56.8002
 11
30.8194
 21
58.9922
  0
LINE
  8
0
 10
30.8194
 20
58.9922
 11
30.8568
 21
59.4177
  0
LINE
  8
0
 10
30.8568
 20
59.4177
 11
30.9875
 21
58.7129
  0
LINE
  8
0
 10
30.9875
 20
58.7129
 11
31.2139
 21
57.6012
  0
LINE
  8
0
 10
31.2139
 20
57.6012
 11
31.4595
 21
56.4941
  0
LINE
  8
0
 10
31.4595
 20
56.4941
 11
31.7244
 21
55.3917
  0
LINE
  8
0
 10
31.7244
 20
55.3917
 11
32.0084
 21
54.2944
  0
LINE
  8
0
 10
32.0084
 20
54.2944
 11
32.3114
 21
53.2027
  0
LINE
  8
0
 10
32.3114
 20
53.2027
 11
32.6333
 21
52.1167
  0
LINE
  8
0
 10
32.6333
 20
52.1167
 11
32.9741
 21
51.0368
  0
LINE
  8
0
 10
32.9741
 20
51.0368
 11
33.3335
 21
49.9633
  0
LINE
  8
0
 10
33.3335
 20
49.9633
 11
33.6976
 21
48.936
  0
LINE
  8
0
 10
33.6976
 20
48.936
 11
33.4189
 21
47.3563
  0
LINE
  8
0
 10
33.4189
 20
47.3563
 11
32.9845
 21
45.1223
  0
LINE
  8
0
 10
32.9845
 20
45.1223
 11
32.5113
 21
42.8966
  0
LINE
  8
0
 10
32.5113
 20
42.8966
 11
32.2124
 21
41.6023
  0
LINE
  8
0
 10
32.2124
 20
41.6023
 11
32.0385
 21
41.9677
  0
LINE
  8
0
 10
-28.4917
 20
41.4897
 11
-28.99
 21
43.6451
  0
LINE
  8
0
 10
-28.99
 20
43.6451
 11
-29.4507
 21
45.8092
  0
LINE
  8
0
 10
-29.4507
 20
45.8092
 11
-29.8736
 21
47.9814
  0
LINE
  8
0
 10
-29.8736
 20
47.9814
 11
-29.988
 21
48.6292
  0
LINE
  8
0
 10
-29.988
 20
48.6292
 11
-29.9097
 21
48.8509
  0
LINE
  8
0
 10
-29.9097
 20
48.8509
 11
-29.5314
 21
49.9842
  0
LINE
  8
0
 10
-29.5314
 20
49.9842
 11
-29.1728
 21
51.1244
  0
LINE
  8
0
 10
-29.1728
 20
51.1244
 11
-28.8341
 21
52.2709
  0
LINE
  8
0
 10
-28.8341
 20
52.2709
 11
-28.5154
 21
53.4235
  0
LINE
  8
0
 10
-28.5154
 20
53.4235
 11
-28.2167
 21
54.5819
  0
LINE
  8
0
 10
-28.2167
 20
54.5819
 11
-27.9382
 21
55.7456
  0
LINE
  8
0
 10
-27.9382
 20
55.7456
 11
-27.68
 21
56.9143
  0
LINE
  8
0
 10
-27.68
 20
56.9143
 11
-27.4422
 21
58.0877
  0
LINE
  8
0
 10
-27.4422
 20
58.0877
 11
-27.2274
 21
59.2518
  0
LINE
  8
0
 10
-27.2274
 20
59.2518
 11
-27.0079
 21
57.1765
  0
LINE
  8
0
 10
-27.0079
 20
57.1765
 11
-26.7457
 21
55.0515
  0
LINE
  8
0
 10
-26.7457
 20
55.0515
 11
-26.4465
 21
52.9318
  0
LINE
  8
0
 10
-26.4465
 20
52.9318
 11
-26.1103
 21
50.818
  0
LINE
  8
0
 10
-26.1103
 20
50.818
 11
-25.7374
 21
48.7107
  0
LINE
  8
0
 10
-25.7374
 20
48.7107
 11
-25.6608
 21
48.3178
  0
LINE
  8
0
 10
-25.6608
 20
48.3178
 11
-25.9153
 21
47.553
  0
LINE
  8
0
 10
-25.9153
 20
47.553
 11
-26.3364
 21
46.3573
  0
LINE
  8
0
 10
-26.3364
 20
46.3573
 11
-26.7783
 21
45.1693
  0
LINE
  8
0
 10
-26.7783
 20
45.1693
 11
-27.2407
 21
43.9897
  0
LINE
  8
0
 10
-27.2407
 20
43.9897
 11
-27.7235
 21
42.8186
  0
LINE
  8
0
 10
-27.7235
 20
42.8186
 11
-28.2266
 21
41.6564
  0
LINE
  8
0
 10
-28.2266
 20
41.6564
 11
-28.4244
 21
41.2204
  0
LINE
  8
0
 10
-28.4244
 20
41.2204
 11
-28.4917
 21
41.4897
  0
LINE
  8
0
 10
24.3857
 20
41.47
 11
23.8799
 21
42.6995
  0
LINE
  8
0
 10
23.8799
 20
42.6995
 11
23.3954
 21
43.9381
  0
LINE
  8
0
 10
23.3954
 20
43.9381
 11
22.9326
 21
45.1852
  0
LINE
  8
0
 10
22.9326
 20
45.1852
 11
22.4915
 21
46.4406
  0
LINE
  8
0
 10
22.4915
 20
46.4406
 11
22.0722
 21
47.7037
  0
LINE
  8
0
 10
22.0722
 20
47.7037
 11
21.9498
 21
48.0953
  0
LINE
  8
0
 10
21.9498
 20
48.0953
 11
22.1921
 21
49.3359
  0
LINE
  8
0
 10
22.1921
 20
49.3359
 11
22.5547
 21
51.3812
  0
LINE
  8
0
 10
22.5547
 20
51.3812
 11
22.8815
 21
53.4328
  0
LINE
  8
0
 10
22.8815
 20
53.4328
 11
23.1725
 21
55.4902
  0
LINE
  8
0
 10
23.1725
 20
55.4902
 11
23.4277
 21
57.5528
  0
LINE
  8
0
 10
23.4277
 20
57.5528
 11
23.5962
 21
59.1426
  0
LINE
  8
0
 10
23.5962
 20
59.1426
 11
23.6692
 21
58.7023
  0
LINE
  8
0
 10
23.6692
 20
58.7023
 11
23.8969
 21
57.4626
  0
LINE
  8
0
 10
23.8969
 20
57.4626
 11
24.1462
 21
56.2274
  0
LINE
  8
0
 10
24.1462
 20
56.2274
 11
24.4169
 21
54.9971
  0
LINE
  8
0
 10
24.4169
 20
54.9971
 11
24.709
 21
53.772
  0
LINE
  8
0
 10
24.709
 20
53.772
 11
25.0223
 21
52.5526
  0
LINE
  8
0
 10
25.0223
 20
52.5526
 11
25.3568
 21
51.3392
  0
LINE
  8
0
 10
25.3568
 20
51.3392
 11
25.7123
 21
50.1321
  0
LINE
  8
0
 10
25.7123
 20
50.1321
 11
26.0887
 21
48.9317
  0
LINE
  8
0
 10
26.0887
 20
48.9317
 11
26.2798
 21
48.3576
  0
LINE
  8
0
 10
26.2798
 20
48.3576
 11
25.9168
 21
46.4962
  0
LINE
  8
0
 10
25.9168
 20
46.4962
 11
25.4687
 21
44.3936
  0
LINE
  8
0
 10
25.4687
 20
44.3936
 11
24.9839
 21
42.2995
  0
LINE
  8
0
 10
24.9839
 20
42.2995
 11
24.6333
 21
40.8967
  0
LINE
  8
0
 10
24.6333
 20
40.8967
 11
24.3857
 21
41.47
  0
LINE
  8
0
 10
-20.9697
 20
41.0855
 11
-21.4762
 21
43.1094
  0
LINE
  8
0
 10
-21.4762
 20
43.1094
 11
-21.9473
 21
45.1421
  0
LINE
  8
0
 10
-21.9473
 20
45.1421
 11
-22.383
 21
47.1831
  0
LINE
  8
0
 10
-22.383
 20
47.1831
 11
-22.5677
 21
48.1293
  0
LINE
  8
0
 10
-22.5677
 20
48.1293
 11
-22.2517
 21
49.1398
  0
LINE
  8
0
 10
-22.2517
 20
49.1398
 11
-21.8794
 21
50.4074
  0
LINE
  8
0
 10
-21.8794
 20
50.4074
 11
-21.5292
 21
51.6817
  0
LINE
  8
0
 10
-21.5292
 20
51.6817
 11
-21.2012
 21
52.9622
  0
LINE
  8
0
 10
-21.2012
 20
52.9622
 11
-20.8955
 21
54.2486
  0
LINE
  8
0
 10
-20.8955
 20
54.2486
 11
-20.6123
 21
55.5405
  0
LINE
  8
0
 10
-20.6123
 20
55.5405
 11
-20.3516
 21
56.8375
  0
LINE
  8
0
 10
-20.3516
 20
56.8375
 11
-20.1135
 21
58.1391
  0
LINE
  8
0
 10
-20.1135
 20
58.1391
 11
-19.9653
 21
59.0378
  0
LINE
  8
0
 10
-19.9653
 20
59.0378
 11
-19.8474
 21
57.9291
  0
LINE
  8
0
 10
-19.8474
 20
57.9291
 11
-19.5994
 21
55.929
  0
LINE
  8
0
 10
-19.5994
 20
55.929
 11
-19.3165
 21
53.9339
  0
LINE
  8
0
 10
-19.3165
 20
53.9339
 11
-18.999
 21
51.9443
  0
LINE
  8
0
 10
-18.999
 20
51.9443
 11
-18.6468
 21
49.961
  0
LINE
  8
0
 10
-18.6468
 20
49.961
 11
-18.2601
 21
47.9845
  0
LINE
  8
0
 10
-18.2601
 20
47.9845
 11
-18.2412
 21
47.8961
  0
LINE
  8
0
 10
-18.2412
 20
47.8961
 11
-18.6295
 21
46.6512
  0
LINE
  8
0
 10
-18.6295
 20
46.6512
 11
-19.0677
 21
45.3281
  0
LINE
  8
0
 10
-19.0677
 20
45.3281
 11
-19.5287
 21
44.0132
  0
LINE
  8
0
 10
-19.5287
 20
44.0132
 11
-20.0125
 21
42.7068
  0
LINE
  8
0
 10
-20.0125
 20
42.7068
 11
-20.519
 21
41.4094
  0
LINE
  8
0
 10
-20.519
 20
41.4094
 11
-20.844
 21
40.6178
  0
LINE
  8
0
 10
-20.844
 20
40.6178
 11
-20.9697
 21
41.0855
  0
LINE
  8
0
 10
16.6296
 20
41.4755
 11
16.1248
 21
42.8411
  0
LINE
  8
0
 10
16.1248
 20
42.8411
 11
15.6438
 21
44.2156
  0
LINE
  8
0
 10
15.6438
 20
44.2156
 11
15.1868
 21
45.5987
  0
LINE
  8
0
 10
15.1868
 20
45.5987
 11
14.7539
 21
46.9898
  0
LINE
  8
0
 10
14.7539
 20
46.9898
 11
14.5302
 21
47.7556
  0
LINE
  8
0
 10
14.5302
 20
47.7556
 11
14.7263
 21
48.6714
  0
LINE
  8
0
 10
14.7263
 20
48.6714
 11
15.1015
 21
50.5861
  0
LINE
  8
0
 10
15.1015
 20
50.5861
 11
15.4433
 21
52.5075
  0
LINE
  8
0
 10
15.4433
 20
52.5075
 11
15.7516
 21
54.4349
  0
LINE
  8
0
 10
15.7516
 20
54.4349
 11
16.0262
 21
56.3677
  0
LINE
  8
0
 10
16.0262
 20
56.3677
 11
16.2671
 21
58.3054
  0
LINE
  8
0
 10
16.2671
 20
58.3054
 11
16.3344
 21
58.9363
  0
LINE
  8
0
 10
16.3344
 20
58.9363
 11
16.5578
 21
57.576
  0
LINE
  8
0
 10
16.5578
 20
57.576
 11
16.8063
 21
56.2123
  0
LINE
  8
0
 10
16.8063
 20
56.2123
 11
17.0784
 21
54.8536
  0
LINE
  8
0
 10
17.0784
 20
54.8536
 11
17.3742
 21
53.5001
  0
LINE
  8
0
 10
17.3742
 20
53.5001
 11
17.6935
 21
52.1524
  0
LINE
  8
0
 10
17.6935
 20
52.1524
 11
18.0361
 21
50.8108
  0
LINE
  8
0
 10
18.0361
 20
50.8108
 11
18.4021
 21
49.4757
  0
LINE
  8
0
 10
18.4021
 20
49.4757
 11
18.7912
 21
48.1475
  0
LINE
  8
0
 10
18.7912
 20
48.1475
 11
18.8602
 21
47.9264
  0
LINE
  8
0
 10
18.8602
 20
47.9264
 11
18.8491
 21
47.87
  0
LINE
  8
0
 10
18.8491
 20
47.87
 11
18.426
 21
45.8906
  0
LINE
  8
0
 10
18.426
 20
45.8906
 11
17.9685
 21
43.9192
  0
LINE
  8
0
 10
17.9685
 20
43.9192
 11
17.4767
 21
41.9564
  0
LINE
  8
0
 10
17.4767
 20
41.9564
 11
17.054
 21
40.3863
  0
LINE
  8
0
 10
17.054
 20
40.3863
 11
16.6296
 21
41.4755
  0
LINE
  8
0
 10
-13.4735
 20
40.9346
 11
-13.9836
 21
42.8273
  0
LINE
  8
0
 10
-13.9836
 20
42.8273
 11
-14.4607
 21
44.729
  0
LINE
  8
0
 10
-14.4607
 20
44.729
 11
-14.9047
 21
46.6391
  0
LINE
  8
0
 10
-14.9047
 20
46.6391
 11
-15.1485
 21
47.7782
  0
LINE
  8
0
 10
-15.1485
 20
47.7782
 11
-14.9248
 21
48.5439
  0
LINE
  8
0
 10
-14.9248
 20
48.5439
 11
-14.5431
 21
49.9398
  0
LINE
  8
0
 10
-14.5431
 20
49.9398
 11
-14.1858
 21
51.3426
  0
LINE
  8
0
 10
-14.1858
 20
51.3426
 11
-13.8529
 21
52.7516
  0
LINE
  8
0
 10
-13.8529
 20
52.7516
 11
-13.5446
 21
54.1667
  0
LINE
  8
0
 10
-13.5446
 20
54.1667
 11
-13.261
 21
55.5872
  0
LINE
  8
0
 10
-13.261
 20
55.5872
 11
-13.0021
 21
57.0128
  0
LINE
  8
0
 10
-13.0021
 20
57.0128
 11
-12.7681
 21
58.4431
  0
LINE
  8
0
 10
-12.7681
 20
58.4431
 11
-12.7065
 21
58.8659
  0
LINE
  8
0
 10
-12.7065
 20
58.8659
 11
-12.6868
 21
58.6817
  0
LINE
  8
0
 10
-12.6868
 20
58.6817
 11
-12.453
 21
56.8064
  0
LINE
  8
0
 10
-12.453
 20
56.8064
 11
-12.1866
 21
54.9359
  0
LINE
  8
0
 10
-12.1866
 20
54.9359
 11
-11.8876
 21
53.0707
  0
LINE
  8
0
 10
-11.8876
 20
53.0707
 11
-11.5562
 21
51.2113
  0
LINE
  8
0
 10
-11.5562
 20
51.2113
 11
-11.1924
 21
49.3583
  0
LINE
  8
0
 10
-11.1924
 20
49.3583
 11
-10.8212
 21
47.6279
  0
LINE
  8
0
 10
-10.8212
 20
47.6279
 11
-10.8679
 21
47.4569
  0
LINE
  8
0
 10
-10.8679
 20
47.4569
 11
-11.2933
 21
45.9975
  0
LINE
  8
0
 10
-11.2933
 20
45.9975
 11
-11.7441
 21
44.5461
  0
LINE
  8
0
 10
-11.7441
 20
44.5461
 11
-12.22
 21
43.1032
  0
LINE
  8
0
 10
-12.22
 20
43.1032
 11
-12.721
 21
41.6691
  0
LINE
  8
0
 10
-12.721
 20
41.6691
 11
-13.2467
 21
40.2443
  0
LINE
  8
0
 10
-13.2467
 20
40.2443
 11
-13.2626
 21
40.2034
  0
LINE
  8
0
 10
-13.2626
 20
40.2034
 11
-13.4735
 21
40.9346
  0
LINE
  8
0
 10
9.31711
 20
40.497
 11
8.79625
 21
41.9907
  0
LINE
  8
0
 10
8.79625
 20
41.9907
 11
8.30142
 21
43.4936
  0
LINE
  8
0
 10
8.30142
 20
43.4936
 11
7.83279
 21
45.0052
  0
LINE
  8
0
 10
7.83279
 20
45.0052
 11
7.39053
 21
46.5251
  0
LINE
  8
0
 10
7.39053
 20
46.5251
 11
7.1104
 21
47.5545
  0
LINE
  8
0
 10
7.1104
 20
47.5545
 11
7.2751
 21
48.2608
  0
LINE
  8
0
 10
7.2751
 20
48.2608
 11
7.65857
 21
50.0452
  0
LINE
  8
0
 10
7.65857
 20
50.0452
 11
8.01088
 21
51.8364
  0
LINE
  8
0
 10
8.01088
 20
51.8364
 11
8.33194
 21
53.6338
  0
LINE
  8
0
 10
8.33194
 20
53.6338
 11
8.62164
 21
55.4369
  0
LINE
  8
0
 10
8.62164
 20
55.4369
 11
8.87987
 21
57.2452
  0
LINE
  8
0
 10
8.87987
 20
57.2452
 11
9.07631
 21
58.8163
  0
LINE
  8
0
 10
9.07631
 20
58.8163
 11
9.20319
 21
57.942
  0
LINE
  8
0
 10
9.20319
 20
57.942
 11
9.44644
 21
56.4497
  0
LINE
  8
0
 10
9.44644
 20
56.4497
 11
9.71565
 21
54.9621
  0
LINE
  8
0
 10
9.71565
 20
54.9621
 11
10.0107
 21
53.4798
  0
LINE
  8
0
 10
10.0107
 20
53.4798
 11
10.3316
 21
52.0032
  0
LINE
  8
0
 10
10.3316
 20
52.0032
 11
10.678
 21
50.5327
  0
LINE
  8
0
 10
10.678
 20
50.5327
 11
11.05
 21
49.0689
  0
LINE
  8
0
 10
11.05
 20
49.0689
 11
11.4385
 21
47.6448
  0
LINE
  8
0
 10
11.4385
 20
47.6448
 11
11.3833
 21
47.3875
  0
LINE
  8
0
 10
11.3833
 20
47.3875
 11
10.953
 21
45.5388
  0
LINE
  8
0
 10
10.953
 20
45.5388
 11
10.4905
 21
43.6983
  0
LINE
  8
0
 10
10.4905
 20
43.6983
 11
9.99612
 21
41.8664
  0
LINE
  8
0
 10
9.99612
 20
41.8664
 11
9.47615
 21
40.0654
  0
LINE
  8
0
 10
9.47615
 20
40.0654
 11
9.31711
 21
40.497
  0
LINE
  8
0
 10
-6.00937
 20
41.036
 11
-6.5188
 21
42.7981
  0
LINE
  8
0
 10
-6.5188
 20
42.7981
 11
-6.99748
 21
44.5692
  0
LINE
  8
0
 10
-6.99748
 20
44.5692
 11
-7.44527
 21
46.3486
  0
LINE
  8
0
 10
-7.44527
 20
46.3486
 11
-7.72906
 21
47.5658
  0
LINE
  8
0
 10
-7.72906
 20
47.5658
 11
-7.55696
 21
48.198
  0
LINE
  8
0
 10
-7.55696
 20
48.198
 11
-7.17029
 21
49.7229
  0
LINE
  8
0
 10
-7.17029
 20
49.7229
 11
-6.81023
 21
51.2547
  0
LINE
  8
0
 10
-6.81023
 20
51.2547
 11
-6.47687
 21
52.7928
  0
LINE
  8
0
 10
-6.47687
 20
52.7928
 11
-6.17035
 21
54.3369
  0
LINE
  8
0
 10
-6.17035
 20
54.3369
 11
-5.89076
 21
55.8865
  0
LINE
  8
0
 10
-5.89076
 20
55.8865
 11
-5.63821
 21
57.441
  0
LINE
  8
0
 10
-5.63821
 20
57.441
 11
-5.44438
 21
58.7816
  0
LINE
  8
0
 10
-5.44438
 20
58.7816
 11
-5.3067
 21
57.6839
  0
LINE
  8
0
 10
-5.3067
 20
57.6839
 11
-5.05667
 21
55.938
  0
LINE
  8
0
 10
-5.05667
 20
55.938
 11
-4.77628
 21
54.197
  0
LINE
  8
0
 10
-4.77628
 20
54.197
 11
-4.46558
 21
52.4615
  0
LINE
  8
0
 10
-4.46558
 20
52.4615
 11
-4.12471
 21
50.7321
  0
LINE
  8
0
 10
-4.12471
 20
50.7321
 11
-3.75377
 21
49.0092
  0
LINE
  8
0
 10
-3.75377
 20
49.0092
 11
-3.40121
 21
47.5002
  0
LINE
  8
0
 10
-3.40121
 20
47.5002
 11
-3.48172
 21
47.1819
  0
LINE
  8
0
 10
-3.48172
 20
47.1819
 11
-3.91321
 21
45.5934
  0
LINE
  8
0
 10
-3.91321
 20
45.5934
 11
-4.37225
 21
44.0129
  0
LINE
  8
0
 10
-4.37225
 20
44.0129
 11
-4.85872
 21
42.4411
  0
LINE
  8
0
 10
-4.85872
 20
42.4411
 11
-5.37244
 21
40.8783
  0
LINE
  8
0
 10
-5.37244
 20
40.8783
 11
-5.68456
 21
39.9818
  0
LINE
  8
0
 10
-5.68456
 20
39.9818
 11
-6.00937
 21
41.036
  0
LINE
  8
0
 10
1.41603
 20
41.3885
 11
0.911713
 21
43.0206
  0
LINE
  8
0
 10
0.911713
 20
43.0206
 11
0.435867
 21
44.6616
  0
LINE
  8
0
 10
0.435867
 20
44.6616
 11
-0.0113525
 21
46.311
  0
LINE
  8
0
 10
-0.0113525
 20
46.311
 11
-0.309372
 21
47.4914
  0
LINE
  8
0
 10
-0.309372
 20
47.4914
 11
-0.154831
 21
48.1033
  0
LINE
  8
0
 10
-0.154831
 20
48.1033
 11
0.232437
 21
49.7577
  0
LINE
  8
0
 10
0.232437
 20
49.7577
 11
0.590851
 21
51.419
  0
LINE
  8
0
 10
0.590851
 20
51.419
 11
0.920273
 21
53.0867
  0
LINE
  8
0
 10
0.920273
 20
53.0867
 11
1.2206
 21
54.7602
  0
LINE
  8
0
 10
1.2206
 20
54.7602
 11
1.49171
 21
56.439
  0
LINE
  8
0
 10
1.49171
 20
56.439
 11
1.73354
 21
58.1226
  0
LINE
  8
0
 10
1.73354
 20
58.1226
 11
1.81415
 21
58.7631
  0
LINE
  8
0
 10
1.81415
 20
58.7631
 11
1.83963
 21
58.5614
  0
LINE
  8
0
 10
1.83963
 20
58.5614
 11
2.07326
 21
56.94
  0
LINE
  8
0
 10
2.07326
 20
56.94
 11
2.33508
 21
55.3233
  0
LINE
  8
0
 10
2.33508
 20
55.3233
 11
2.62505
 21
53.7118
  0
LINE
  8
0
 10
2.62505
 20
53.7118
 11
2.94301
 21
52.1059
  0
LINE
  8
0
 10
2.94301
 20
52.1059
 11
3.28889
 21
50.5062
  0
LINE
  8
0
 10
3.28889
 20
50.5062
 11
3.66255
 21
48.9131
  0
LINE
  8
0
 10
3.66255
 20
48.9131
 11
4.01866
 21
47.5058
  0
LINE
  8
0
 10
4.01866
 20
47.5058
 11
3.93753
 21
47.1585
  0
LINE
  8
0
 10
3.93753
 20
47.1585
 11
3.50441
 21
45.4401
  0
LINE
  8
0
 10
3.50441
 20
45.4401
 11
3.04146
 21
43.7299
  0
LINE
  8
0
 10
3.04146
 20
43.7299
 11
2.54883
 21
42.0283
  0
LINE
  8
0
 10
2.54883
 20
42.0283
 11
2.02667
 21
40.336
  0
LINE
  8
0
 10
2.02667
 20
40.336
 11
1.89418
 21
39.9317
  0
LINE
  8
0
 10
1.89418
 20
39.9317
 11
1.41603
 21
41.3885
  0
LINE
  8
0
 10
46.9323
 20
44.442
 11
46.4758
 21
45.2757
  0
LINE
  8
0
 10
46.4758
 20
45.2757
 11
46.0337
 21
46.1176
  0
LINE
  8
0
 10
46.0337
 20
46.1176
 11
45.6062
 21
46.9673
  0
LINE
  8
0
 10
45.6062
 20
46.9673
 11
45.1935
 21
47.8247
  0
LINE
  8
0
 10
45.1935
 20
47.8247
 11
44.7957
 21
48.6895
  0
LINE
  8
0
 10
44.7957
 20
48.6895
 11
44.4129
 21
49.5615
  0
LINE
  8
0
 10
44.4129
 20
49.5615
 11
44.2109
 21
50.0441
  0
LINE
  8
0
 10
44.2109
 20
50.0441
 11
44.2713
 21
50.4267
  0
LINE
  8
0
 10
44.2713
 20
50.4267
 11
44.6115
 21
52.8579
  0
LINE
  8
0
 10
44.6115
 20
52.8579
 11
44.7745
 21
54.1917
  0
LINE
  8
0
 10
44.7745
 20
54.1917
 11
47.673
 21
45.271
  0
LINE
  8
0
 10
47.673
 20
45.271
 11
47.6002
 21
44.8558
  0
LINE
  8
0
 10
47.6002
 20
44.8558
 11
47.3712
 21
43.6727
  0
LINE
  8
0
 10
47.3712
 20
43.6727
 11
46.9323
 21
44.442
  0
LINE
  8
0
 10
-49.538
 20
36.6308
 11
-49.9284
 21
38.3295
  0
LINE
  8
0
 10
-49.9284
 20
38.3295
 11
-48.3429
 21
43.2093
  0
LINE
  8
0
 10
-48.3429
 20
43.2093
 11
-47.928
 21
43.9075
  0
LINE
  8
0
 10
-47.928
 20
43.9075
 11
-47.4621
 21
44.7237
  0
LINE
  8
0
 10
-47.4621
 20
44.7237
 11
-47.0877
 21
45.4069
  0
LINE
  8
0
 10
-47.0877
 20
45.4069
 11
-47.0093
 21
44.9599
  0
LINE
  8
0
 10
-47.0093
 20
44.9599
 11
-46.531
 21
42.4892
  0
LINE
  8
0
 10
-46.531
 20
42.4892
 11
-46.0098
 21
40.0275
  0
LINE
  8
0
 10
-46.0098
 20
40.0275
 11
-45.8413
 21
39.2951
  0
LINE
  8
0
 10
-45.8413
 20
39.2951
 11
-45.8471
 21
39.2859
  0
LINE
  8
0
 10
-45.8471
 20
39.2859
 11
-46.4074
 21
38.4436
  0
LINE
  8
0
 10
-46.4074
 20
38.4436
 11
-46.9821
 21
37.6116
  0
LINE
  8
0
 10
-46.9821
 20
37.6116
 11
-47.5711
 21
36.7899
  0
LINE
  8
0
 10
-47.5711
 20
36.7899
 11
-48.1741
 21
35.979
  0
LINE
  8
0
 10
-48.1741
 20
35.979
 11
-48.791
 21
35.179
  0
LINE
  8
0
 10
-48.791
 20
35.179
 11
-49.086
 21
34.8099
  0
LINE
  8
0
 10
-49.086
 20
34.8099
 11
-49.538
 21
36.6308
  0
LINE
  8
0
 10
44.6222
 20
34.7251
 11
43.9976
 21
35.5985
  0
LINE
  8
0
 10
43.9976
 20
35.5985
 11
43.3882
 21
36.4829
  0
LINE
  8
0
 10
43.3882
 20
36.4829
 11
42.7942
 21
37.3782
  0
LINE
  8
0
 10
42.7942
 20
37.3782
 11
42.2157
 21
38.284
  0
LINE
  8
0
 10
42.2157
 20
38.284
 11
41.9967
 21
38.6404
  0
LINE
  8
0
 10
41.9967
 20
38.6404
 11
42.4884
 21
40.7759
  0
LINE
  8
0
 10
42.4884
 20
40.7759
 11
42.9971
 21
43.1761
  0
LINE
  8
0
 10
42.9971
 20
43.1761
 11
43.3193
 21
44.8384
  0
LINE
  8
0
 10
43.3193
 20
44.8384
 11
43.3373
 21
44.8024
  0
LINE
  8
0
 10
43.3373
 20
44.8024
 11
43.8028
 21
43.9137
  0
LINE
  8
0
 10
43.8028
 20
43.9137
 11
44.2835
 21
43.0336
  0
LINE
  8
0
 10
44.2835
 20
43.0336
 11
44.7793
 21
42.1622
  0
LINE
  8
0
 10
44.7793
 20
42.1622
 11
45.2901
 21
41.3
  0
LINE
  8
0
 10
45.2901
 20
41.3
 11
45.8158
 21
40.4471
  0
LINE
  8
0
 10
45.8158
 20
40.4471
 11
46.356
 21
39.6038
  0
LINE
  8
0
 10
46.356
 20
39.6038
 11
46.4837
 21
39.4119
  0
LINE
  8
0
 10
46.4837
 20
39.4119
 11
46.0303
 21
37.4406
  0
LINE
  8
0
 10
46.0303
 20
37.4406
 11
45.4212
 21
34.9891
  0
LINE
  8
0
 10
45.4212
 20
34.9891
 11
45.1578
 21
34.0029
  0
LINE
  8
0
 10
45.1578
 20
34.0029
 11
44.6222
 21
34.7251
  0
LINE
  8
0
 10
-41.2921
 20
33.4806
 11
-41.9281
 21
35.86
  0
LINE
  8
0
 10
-41.9281
 20
35.86
 11
-42.5226
 21
38.2504
  0
LINE
  8
0
 10
-42.5226
 20
38.2504
 11
-42.6365
 21
38.7451
  0
LINE
  8
0
 10
-42.6365
 20
38.7451
 11
-42.1725
 21
39.5
  0
LINE
  8
0
 10
-42.1725
 20
39.5
 11
-41.6307
 21
40.4169
  0
LINE
  8
0
 10
-41.6307
 20
40.4169
 11
-41.1049
 21
41.3435
  0
LINE
  8
0
 10
-41.1049
 20
41.3435
 11
-40.5952
 21
42.2793
  0
LINE
  8
0
 10
-40.5952
 20
42.2793
 11
-40.1017
 21
43.2243
  0
LINE
  8
0
 10
-40.1017
 20
43.2243
 11
-39.6246
 21
44.178
  0
LINE
  8
0
 10
-39.6246
 20
44.178
 11
-39.5533
 21
44.327
  0
LINE
  8
0
 10
-39.5533
 20
44.327
 11
-39.4633
 21
43.863
  0
LINE
  8
0
 10
-39.4633
 20
43.863
 11
-38.9671
 21
41.5244
  0
LINE
  8
0
 10
-38.9671
 20
41.5244
 11
-38.4302
 21
39.1952
  0
LINE
  8
0
 10
-38.4302
 20
39.1952
 11
-38.1472
 21
38.0584
  0
LINE
  8
0
 10
-38.1472
 20
38.0584
 11
-38.5352
 21
37.4
  0
LINE
  8
0
 10
-38.5352
 20
37.4
 11
-39.1298
 21
36.4298
  0
LINE
  8
0
 10
-39.1298
 20
36.4298
 11
-39.7412
 21
35.4705
  0
LINE
  8
0
 10
-39.7412
 20
35.4705
 11
-40.369
 21
34.5222
  0
LINE
  8
0
 10
-40.369
 20
34.5222
 11
-41.0131
 21
33.5854
  0
LINE
  8
0
 10
-41.0131
 20
33.5854
 11
-41.2337
 21
33.2762
  0
LINE
  8
0
 10
-41.2337
 20
33.2762
 11
-41.2921
 21
33.4806
  0
LINE
  8
0
 10
36.6882
 20
33.5628
 11
36.044
 21
34.5757
  0
LINE
  8
0
 10
36.044
 20
34.5757
 11
35.4175
 21
35.6
  0
LINE
  8
0
 10
35.4175
 20
35.6
 11
34.8087
 21
36.6354
  0
LINE
  8
0
 10
34.8087
 20
36.6354
 11
34.3023
 21
37.5322
  0
LINE
  8
0
 10
34.3023
 20
37.5322
 11
34.3598
 21
37.747
  0
LINE
  8
0
 10
34.3598
 20
37.747
 11
34.9225
 21
40.005
  0
LINE
  8
0
 10
34.9225
 20
40.005
 11
35.4458
 21
42.2729
  0
LINE
  8
0
 10
35.4458
 20
42.2729
 11
35.7856
 21
43.8728
  0
LINE
  8
0
 10
35.7856
 20
43.8728
 11
35.8754
 21
43.676
  0
LINE
  8
0
 10
35.8754
 20
43.676
 11
36.3619
 21
42.6566
  0
LINE
  8
0
 10
36.3619
 20
42.6566
 11
36.866
 21
41.6462
  0
LINE
  8
0
 10
36.866
 20
41.6462
 11
37.3875
 21
40.645
  0
LINE
  8
0
 10
37.3875
 20
40.645
 11
37.9263
 21
39.6534
  0
LINE
  8
0
 10
37.9263
 20
39.6534
 11
38.4821
 21
38.6716
  0
LINE
  8
0
 10
38.4821
 20
38.6716
 11
38.7887
 21
38.1515
  0
LINE
  8
0
 10
38.7887
 20
38.1515
 11
38.4351
 21
36.7309
  0
LINE
  8
0
 10
38.4351
 20
36.7309
 11
37.8148
 21
34.4124
  0
LINE
  8
0
 10
37.8148
 20
34.4124
 11
37.3045
 21
32.6301
  0
LINE
  8
0
 10
37.3045
 20
32.6301
 11
36.6882
 21
33.5628
  0
LINE
  8
0
 10
-33.6937
 20
33.0977
 11
-34.3375
 21
35.3441
  0
LINE
  8
0
 10
-34.3375
 20
35.3441
 11
-34.942
 21
37.6018
  0
LINE
  8
0
 10
-34.942
 20
37.6018
 11
-34.945
 21
37.6139
  0
LINE
  8
0
 10
-34.945
 20
37.6139
 11
-34.7477
 21
37.9633
  0
LINE
  8
0
 10
-34.7477
 20
37.9633
 11
-34.1799
 21
39.0106
  0
LINE
  8
0
 10
-34.1799
 20
39.0106
 11
-33.6304
 21
40.068
  0
LINE
  8
0
 10
-33.6304
 20
40.068
 11
-33.0992
 21
41.1352
  0
LINE
  8
0
 10
-33.0992
 20
41.1352
 11
-32.5866
 21
42.2118
  0
LINE
  8
0
 10
-32.5866
 20
42.2118
 11
-32.0927
 21
43.2974
  0
LINE
  8
0
 10
-32.0927
 20
43.2974
 11
-32.0192
 21
43.4669
  0
LINE
  8
0
 10
-32.0192
 20
43.4669
 11
-31.9244
 21
43.0214
  0
LINE
  8
0
 10
-31.9244
 20
43.0214
 11
-31.4148
 21
40.8149
  0
LINE
  8
0
 10
-31.4148
 20
40.8149
 11
-30.8668
 21
38.6179
  0
LINE
  8
0
 10
-30.8668
 20
38.6179
 11
-30.4532
 21
37.0751
  0
LINE
  8
0
 10
-30.4532
 20
37.0751
 11
-31.0393
 21
35.9915
  0
LINE
  8
0
 10
-31.0393
 20
35.9915
 11
-31.66
 21
34.8901
  0
LINE
  8
0
 10
-31.66
 20
34.8901
 11
-32.2998
 21
33.8
  0
LINE
  8
0
 10
-32.2998
 20
33.8
 11
-32.9582
 21
32.7216
  0
LINE
  8
0
 10
-32.9582
 20
32.7216
 11
-33.3772
 21
32.0616
  0
LINE
  8
0
 10
-33.3772
 20
32.0616
 11
-33.6937
 21
33.0977
  0
LINE
  8
0
 10
29.1821
 20
32
 11
28.5114
 21
33.1448
  0
LINE
  8
0
 10
28.5114
 20
33.1448
 11
27.8607
 21
34.3014
  0
LINE
  8
0
 10
27.8607
 20
34.3014
 11
27.2301
 21
35.4695
  0
LINE
  8
0
 10
27.2301
 20
35.4695
 11
26.6198
 21
36.6487
  0
LINE
  8
0
 10
26.6198
 20
36.6487
 11
26.6061
 21
36.6763
  0
LINE
  8
0
 10
26.6061
 20
36.6763
 11
26.8032
 21
37.3629
  0
LINE
  8
0
 10
26.8032
 20
37.3629
 11
27.3737
 21
39.4888
  0
LINE
  8
0
 10
27.3737
 20
39.4888
 11
27.907
 21
41.6247
  0
LINE
  8
0
 10
27.907
 20
41.6247
 11
28.2512
 21
43.1129
  0
LINE
  8
0
 10
28.2512
 20
43.1129
 11
28.2799
 21
43.0433
  0
LINE
  8
0
 10
28.2799
 20
43.0433
 11
28.7789
 21
41.8908
  0
LINE
  8
0
 10
28.7789
 20
41.8908
 11
29.2978
 21
40.7475
  0
LINE
  8
0
 10
29.2978
 20
40.7475
 11
29.8365
 21
39.6138
  0
LINE
  8
0
 10
29.8365
 20
39.6138
 11
30.3947
 21
38.4899
  0
LINE
  8
0
 10
30.3947
 20
38.4899
 11
30.9723
 21
37.3763
  0
LINE
  8
0
 10
30.9723
 20
37.3763
 11
31.0945
 21
37.1503
  0
LINE
  8
0
 10
31.0945
 20
37.1503
 11
30.8601
 21
36.2759
  0
LINE
  8
0
 10
30.8601
 20
36.2759
 11
30.2332
 21
34.09
  0
LINE
  8
0
 10
30.2332
 20
34.09
 11
29.5683
 21
31.9157
  0
LINE
  8
0
 10
29.5683
 20
31.9157
 11
29.4518
 21
31.5574
  0
LINE
  8
0
 10
29.4518
 20
31.5574
 11
29.1821
 21
32
  0
LINE
  8
0
 10
-26.1255
 20
32.9682
 11
-26.7726
 21
35.0823
  0
LINE
  8
0
 10
-26.7726
 20
35.0823
 11
-27.2483
 21
36.7393
  0
LINE
  8
0
 10
-27.2483
 20
36.7393
 11
-27.159
 21
36.9118
  0
LINE
  8
0
 10
-27.159
 20
36.9118
 11
-26.5738
 21
38.0923
  0
LINE
  8
0
 10
-26.5738
 20
38.0923
 11
-26.009
 21
39.2832
  0
LINE
  8
0
 10
-26.009
 20
39.2832
 11
-25.4651
 21
40.4842
  0
LINE
  8
0
 10
-25.4651
 20
40.4842
 11
-24.942
 21
41.6947
  0
LINE
  8
0
 10
-24.942
 20
41.6947
 11
-24.4851
 21
42.805
  0
LINE
  8
0
 10
-24.4851
 20
42.805
 11
-24.3993
 21
42.4345
  0
LINE
  8
0
 10
-24.3993
 20
42.4345
 11
-23.8806
 21
40.3597
  0
LINE
  8
0
 10
-23.8806
 20
40.3597
 11
-23.3259
 21
38.2947
  0
LINE
  8
0
 10
-23.3259
 20
38.2947
 11
-22.7612
 21
36.3301
  0
LINE
  8
0
 10
-22.7612
 20
36.3301
 11
-22.7673
 21
36.3173
  0
LINE
  8
0
 10
-22.7673
 20
36.3173
 11
-23.3841
 21
35.0706
  0
LINE
  8
0
 10
-23.3841
 20
35.0706
 11
-24.0224
 21
33.8351
  0
LINE
  8
0
 10
-24.0224
 20
33.8351
 11
-24.6821
 21
32.6113
  0
LINE
  8
0
 10
-24.6821
 20
32.6113
 11
-25.3628
 21
31.3995
  0
LINE
  8
0
 10
-25.3628
 20
31.3995
 11
-25.5251
 21
31.1221
  0
LINE
  8
0
 10
-25.5251
 20
31.1221
 11
-26.1255
 21
32.9682
  0
LINE
  8
0
 10
21.5034
 20
30.9212
 11
20.8148
 21
32.2008
  0
LINE
  8
0
 10
20.8148
 20
32.2008
 11
20.1484
 21
33.4925
  0
LINE
  8
0
 10
20.1484
 20
33.4925
 11
19.5046
 21
34.7959
  0
LINE
  8
0
 10
19.5046
 20
34.7959
 11
18.9121
 21
36.0499
  0
LINE
  8
0
 10
18.9121
 20
36.0499
 11
19.2748
 21
37.2322
  0
LINE
  8
0
 10
19.2748
 20
37.2322
 11
19.8486
 21
39.2264
  0
LINE
  8
0
 10
19.8486
 20
39.2264
 11
20.3876
 21
41.2307
  0
LINE
  8
0
 10
20.3876
 20
41.2307
 11
20.7178
 21
42.5499
  0
LINE
  8
0
 10
20.7178
 20
42.5499
 11
21.0791
 21
41.6244
  0
LINE
  8
0
 10
21.0791
 20
41.6244
 11
21.6041
 21
40.3461
  0
LINE
  8
0
 10
21.6041
 20
40.3461
 11
22.1513
 21
39.0775
  0
LINE
  8
0
 10
22.1513
 20
39.0775
 11
22.7203
 21
37.819
  0
LINE
  8
0
 10
22.7203
 20
37.819
 11
23.3111
 21
36.5709
  0
LINE
  8
0
 10
23.3111
 20
36.5709
 11
23.4019
 21
36.3873
  0
LINE
  8
0
 10
23.4019
 20
36.3873
 11
23.3121
 21
36.0746
  0
LINE
  8
0
 10
23.3121
 20
36.0746
 11
22.6829
 21
34.0208
  0
LINE
  8
0
 10
22.6829
 20
34.0208
 11
22.018
 21
31.9786
  0
LINE
  8
0
 10
22.018
 20
31.9786
 11
21.5962
 21
30.7559
  0
LINE
  8
0
 10
21.5962
 20
30.7559
 11
21.5034
 21
30.9212
  0
LINE
  8
0
 10
-17.9138
 20
31.1207
 11
-18.5942
 21
33.091
  0
LINE
  8
0
 10
-18.5942
 20
33.091
 11
-19.2402
 21
35.0733
  0
LINE
  8
0
 10
-19.2402
 20
35.0733
 11
-19.5538
 21
36.096
  0
LINE
  8
0
 10
-19.5538
 20
36.096
 11
-19.4315
 21
36.3548
  0
LINE
  8
0
 10
-19.4315
 20
36.3548
 11
-18.8374
 21
37.6709
  0
LINE
  8
0
 10
-18.8374
 20
37.6709
 11
-18.2663
 21
38.9976
  0
LINE
  8
0
 10
-18.2663
 20
38.9976
 11
-17.7182
 21
40.3343
  0
LINE
  8
0
 10
-17.7182
 20
40.3343
 11
-17.1935
 21
41.6807
  0
LINE
  8
0
 10
-17.1935
 20
41.6807
 11
-16.9524
 21
42.3326
  0
LINE
  8
0
 10
-16.9524
 20
42.3326
 11
-16.8945
 21
42.1016
  0
LINE
  8
0
 10
-16.8945
 20
42.1016
 11
-16.3712
 21
40.1582
  0
LINE
  8
0
 10
-16.3712
 20
40.1582
 11
-15.8142
 21
38.2245
  0
LINE
  8
0
 10
-15.8142
 20
38.2245
 11
-15.2237
 21
36.3012
  0
LINE
  8
0
 10
-15.2237
 20
36.3012
 11
-15.0663
 21
35.819
  0
LINE
  8
0
 10
-15.0663
 20
35.819
 11
-15.5946
 21
34.6465
  0
LINE
  8
0
 10
-15.5946
 20
34.6465
 11
-16.2419
 21
33.2745
  0
LINE
  8
0
 10
-16.2419
 20
33.2745
 11
-16.9128
 21
31.9143
  0
LINE
  8
0
 10
-16.9128
 20
31.9143
 11
-17.6072
 21
30.5664
  0
LINE
  8
0
 10
-17.6072
 20
30.5664
 11
-17.6693
 21
30.4507
  0
LINE
  8
0
 10
-17.6693
 20
30.4507
 11
-17.9138
 21
31.1207
  0
LINE
  8
0
 10
13.6771
 20
30.3362
 11
12.9792
 21
31.7531
  0
LINE
  8
0
 10
12.9792
 20
31.7531
 11
12.3059
 21
33.1822
  0
LINE
  8
0
 10
12.3059
 20
33.1822
 11
11.6575
 21
34.6232
  0
LINE
  8
0
 10
11.6575
 20
34.6232
 11
11.2212
 21
35.6399
  0
LINE
  8
0
 10
11.2212
 20
35.6399
 11
11.781
 21
37.3538
  0
LINE
  8
0
 10
11.781
 20
37.3538
 11
12.3537
 21
39.2168
  0
LINE
  8
0
 10
12.3537
 20
39.2168
 11
12.8939
 21
41.0899
  0
LINE
  8
0
 10
12.8939
 20
41.0899
 11
13.1835
 21
42.1642
  0
LINE
  8
0
 10
13.1835
 20
42.1642
 11
13.2883
 21
41.8644
  0
LINE
  8
0
 10
13.2883
 20
41.8644
 11
13.8106
 21
40.4495
  0
LINE
  8
0
 10
13.8106
 20
40.4495
 11
14.3573
 21
39.0442
  0
LINE
  8
0
 10
14.3573
 20
39.0442
 11
14.9284
 21
37.649
  0
LINE
  8
0
 10
14.9284
 20
37.649
 11
15.5236
 21
36.2643
  0
LINE
  8
0
 10
15.5236
 20
36.2643
 11
15.7087
 21
35.8537
  0
LINE
  8
0
 10
15.7087
 20
35.8537
 11
15.1704
 21
34.2035
  0
LINE
  8
0
 10
15.1704
 20
34.2035
 11
14.5099
 21
32.2927
  0
LINE
  8
0
 10
14.5099
 20
32.2927
 11
13.8164
 21
30.3941
  0
LINE
  8
0
 10
13.8164
 20
30.3941
 11
13.744
 21
30.2062
  0
LINE
  8
0
 10
13.744
 20
30.2062
 11
13.6771
 21
30.3362
  0
LINE
  8
0
 10
-10.4335
 20
31.6254
 11
-11.1061
 21
33.4648
  0
LINE
  8
0
 10
-11.1061
 20
33.4648
 11
-11.7466
 21
35.3159
  0
LINE
  8
0
 10
-11.7466
 20
35.3159
 11
-11.8617
 21
35.6686
  0
LINE
  8
0
 10
-11.8617
 20
35.6686
 11
-11.5905
 21
36.3004
  0
LINE
  8
0
 10
-11.5905
 20
36.3004
 11
-10.9964
 21
37.7541
  0
LINE
  8
0
 10
-10.9964
 20
37.7541
 11
-10.4277
 21
39.2182
  0
LINE
  8
0
 10
-10.4277
 20
39.2182
 11
-9.88443
 21
40.6924
  0
LINE
  8
0
 10
-9.88443
 20
40.6924
 11
-9.4184
 21
42.0284
  0
LINE
  8
0
 10
-9.4184
 20
42.0284
 11
-9.41658
 21
42.0217
  0
LINE
  8
0
 10
-9.41658
 20
42.0217
 11
-8.89316
 21
40.2091
  0
LINE
  8
0
 10
-8.89316
 20
40.2091
 11
-8.33829
 21
38.4063
  0
LINE
  8
0
 10
-8.33829
 20
38.4063
 11
-7.75214
 21
36.6138
  0
LINE
  8
0
 10
-7.75214
 20
36.6138
 11
-7.37303
 21
35.5195
  0
LINE
  8
0
 10
-7.37303
 20
35.5195
 11
-7.69638
 21
34.7271
  0
LINE
  8
0
 10
-7.69638
 20
34.7271
 11
-8.34367
 21
33.2166
  0
LINE
  8
0
 10
-8.34367
 20
33.2166
 11
-9.01711
 21
31.718
  0
LINE
  8
0
 10
-9.01711
 20
31.718
 11
-9.71645
 21
30.2316
  0
LINE
  8
0
 10
-9.71645
 20
30.2316
 11
-9.81718
 21
30.0269
  0
LINE
  8
0
 10
-9.81718
 20
30.0269
 11
-10.4335
 21
31.6254
  0
LINE
  8
0
 10
5.72835
 20
30.2537
 11
5.02986
 21
31.81
  0
LINE
  8
0
 10
5.02986
 20
31.81
 11
4.35852
 21
33.3785
  0
LINE
  8
0
 10
4.35852
 20
33.3785
 11
3.71451
 21
34.9588
  0
LINE
  8
0
 10
3.71451
 20
34.9588
 11
3.52614
 21
35.4451
  0
LINE
  8
0
 10
3.52614
 20
35.4451
 11
3.73105
 21
36.0042
  0
LINE
  8
0
 10
3.73105
 20
36.0042
 11
4.32834
 21
37.7263
  0
LINE
  8
0
 10
4.32834
 20
37.7263
 11
4.89558
 21
39.4589
  0
LINE
  8
0
 10
4.89558
 20
39.4589
 11
5.43262
 21
41.2014
  0
LINE
  8
0
 10
5.43262
 20
41.2014
 11
5.65028
 21
41.9541
  0
LINE
  8
0
 10
5.65028
 20
41.9541
 11
5.94307
 21
41.0637
  0
LINE
  8
0
 10
5.94307
 20
41.0637
 11
6.48056
 21
39.5203
  0
LINE
  8
0
 10
6.48056
 20
39.5203
 11
7.04478
 21
37.9869
  0
LINE
  8
0
 10
7.04478
 20
37.9869
 11
7.63554
 21
36.4639
  0
LINE
  8
0
 10
7.63554
 20
36.4639
 11
8.01395
 21
35.5368
  0
LINE
  8
0
 10
8.01395
 20
35.5368
 11
7.70222
 21
34.6368
  0
LINE
  8
0
 10
7.70222
 20
34.6368
 11
7.05061
 21
32.8566
  0
LINE
  8
0
 10
7.05061
 20
32.8566
 11
6.36815
 21
31.0884
  0
LINE
  8
0
 10
6.36815
 20
31.0884
 11
5.88969
 21
29.9104
  0
LINE
  8
0
 10
5.88969
 20
29.9104
 11
5.72835
 21
30.2537
  0
LINE
  8
0
 10
-2.31721
 20
30.6813
 11
-3.00726
 21
32.3785
  0
LINE
  8
0
 10
-3.00726
 20
32.3785
 11
-3.66772
 21
34.0879
  0
LINE
  8
0
 10
-3.66772
 20
34.0879
 11
-4.16725
 21
35.4511
  0
LINE
  8
0
 10
-4.16725
 20
35.4511
 11
-3.66188
 21
36.7556
  0
LINE
  8
0
 10
-3.66188
 20
36.7556
 11
-3.07669
 21
38.3483
  0
LINE
  8
0
 10
-3.07669
 20
38.3483
 11
-2.51927
 21
39.9512
  0
LINE
  8
0
 10
-2.51927
 20
39.9512
 11
-1.98981
 21
41.5639
  0
LINE
  8
0
 10
-1.98981
 20
41.5639
 11
-1.88368
 21
41.9073
  0
LINE
  8
0
 10
-1.88368
 20
41.9073
 11
-1.4529
 21
40.5114
  0
LINE
  8
0
 10
-1.4529
 20
40.5114
 11
-0.904526
 21
38.8387
  0
LINE
  8
0
 10
-0.904526
 20
38.8387
 11
-0.327179
 21
37.1762
  0
LINE
  8
0
 10
-0.327179
 20
37.1762
 11
0.278992
 21
35.5244
  0
LINE
  8
0
 10
0.278992
 20
35.5244
 11
0.320633
 21
35.4168
  0
LINE
  8
0
 10
0.320633
 20
35.4168
 11
0.284821
 21
35.3192
  0
LINE
  8
0
 10
0.284821
 20
35.3192
 11
-0.353622
 21
33.6687
  0
LINE
  8
0
 10
-0.353622
 20
33.6687
 11
-1.02065
 21
32.0299
  0
LINE
  8
0
 10
-1.02065
 20
32.0299
 11
-1.71605
 21
30.4033
  0
LINE
  8
0
 10
-1.71605
 20
30.4033
 11
-1.96313
 21
29.8522
  0
LINE
  8
0
 10
-1.96313
 20
29.8522
 11
-2.31721
 21
30.6813
  0
LINE
  8
0
 10
50.1388
 20
28.1662
 11
49.4006
 21
28.9422
  0
LINE
  8
0
 10
49.4006
 20
28.9422
 11
48.6759
 21
29.7311
  0
LINE
  8
0
 10
48.6759
 20
29.7311
 11
47.9649
 21
30.5329
  0
LINE
  8
0
 10
47.9649
 20
30.5329
 11
47.4762
 21
31.1037
  0
LINE
  8
0
 10
47.4762
 20
31.1037
 11
47.6672
 21
31.7724
  0
LINE
  8
0
 10
47.6672
 20
31.7724
 11
48.3321
 21
34.2633
  0
LINE
  8
0
 10
48.3321
 20
34.2633
 11
48.8003
 21
36.1491
  0
LINE
  8
0
 10
48.8003
 20
36.1491
 11
49.2701
 21
35.5401
  0
LINE
  8
0
 10
49.2701
 20
35.5401
 11
49.8943
 21
34.7596
  0
LINE
  8
0
 10
49.8943
 20
34.7596
 11
50.5317
 21
33.9903
  0
LINE
  8
0
 10
50.5317
 20
33.9903
 11
51.1823
 21
33.2326
  0
LINE
  8
0
 10
51.1823
 20
33.2326
 11
51.8161
 21
32.5199
  0
LINE
  8
0
 10
51.8161
 20
32.5199
 11
52.0343
 21
31.8484
  0
LINE
  8
0
 10
52.0343
 20
31.8484
 11
51.7241
 21
30.6854
  0
LINE
  8
0
 10
51.7241
 20
30.6854
 11
50.9964
 21
28.1362
  0
LINE
  8
0
 10
50.9964
 20
28.1362
 11
50.8009
 21
27.4941
  0
LINE
  8
0
 10
50.8009
 20
27.4941
 11
50.1388
 21
28.1662
  0
LINE
  8
0
 10
-46.7817
 20
26.653
 11
-47.5359
 21
29.1285
  0
LINE
  8
0
 10
-47.5359
 20
29.1285
 11
-48.1416
 21
31.2488
  0
LINE
  8
0
 10
-48.1416
 20
31.2488
 11
-47.734
 21
31.7247
  0
LINE
  8
0
 10
-47.734
 20
31.7247
 11
-47.0574
 21
32.5432
  0
LINE
  8
0
 10
-47.0574
 20
32.5432
 11
-46.3951
 21
33.3736
  0
LINE
  8
0
 10
-46.3951
 20
33.3736
 11
-45.7471
 21
34.2156
  0
LINE
  8
0
 10
-45.7471
 20
34.2156
 11
-45.1136
 21
35.0692
  0
LINE
  8
0
 10
-45.1136
 20
35.0692
 11
-44.8978
 21
35.3709
  0
LINE
  8
0
 10
-44.8978
 20
35.3709
 11
-44.839
 21
35.1342
  0
LINE
  8
0
 10
-44.839
 20
35.1342
 11
-44.1899
 21
32.7042
  0
LINE
  8
0
 10
-44.1899
 20
32.7042
 11
-43.4986
 21
30.2862
  0
LINE
  8
0
 10
-43.4986
 20
30.2862
 11
-43.4951
 21
30.2749
  0
LINE
  8
0
 10
-43.4951
 20
30.2749
 11
-43.7478
 21
29.9574
  0
LINE
  8
0
 10
-43.7478
 20
29.9574
 11
-44.47
 21
29.0816
  0
LINE
  8
0
 10
-44.47
 20
29.0816
 11
-45.2071
 21
28.2188
  0
LINE
  8
0
 10
-45.2071
 20
28.2188
 11
-45.959
 21
27.3693
  0
LINE
  8
0
 10
-45.959
 20
27.3693
 11
-46.7253
 21
26.5333
  0
LINE
  8
0
 10
-46.7253
 20
26.5333
 11
-46.7385
 21
26.5194
  0
LINE
  8
0
 10
-46.7385
 20
26.5194
 11
-46.7817
 21
26.653
  0
LINE
  8
0
 10
42.4494
 20
25.9048
 11
41.6723
 21
26.816
  0
LINE
  8
0
 10
41.6723
 20
26.816
 11
40.9109
 21
27.741
  0
LINE
  8
0
 10
40.9109
 20
27.741
 11
40.1657
 21
28.6794
  0
LINE
  8
0
 10
40.1657
 20
28.6794
 11
39.5073
 21
29.5388
  0
LINE
  8
0
 10
39.5073
 20
29.5388
 11
40.038
 21
31.2785
  0
LINE
  8
0
 10
40.038
 20
31.2785
 11
40.7126
 21
33.6359
  0
LINE
  8
0
 10
40.7126
 20
33.6359
 11
40.9908
 21
34.6766
  0
LINE
  8
0
 10
40.9908
 20
34.6766
 11
41.5105
 21
33.9209
  0
LINE
  8
0
 10
41.5105
 20
33.9209
 11
42.1647
 21
33.0043
  0
LINE
  8
0
 10
42.1647
 20
33.0043
 11
42.8346
 21
32.0996
  0
LINE
  8
0
 10
42.8346
 20
32.0996
 11
43.52
 21
31.207
  0
LINE
  8
0
 10
43.52
 20
31.207
 11
44.157
 21
30.4066
  0
LINE
  8
0
 10
44.157
 20
30.4066
 11
44.0753
 21
30.1208
  0
LINE
  8
0
 10
44.0753
 20
30.1208
 11
43.339
 21
27.7055
  0
LINE
  8
0
 10
43.339
 20
27.7055
 11
42.6734
 21
25.6512
  0
LINE
  8
0
 10
42.6734
 20
25.6512
 11
42.4494
 21
25.9048
  0
LINE
  8
0
 10
-39.137
 20
26.4162
 11
-39.8963
 21
28.7581
  0
LINE
  8
0
 10
-39.8963
 20
28.7581
 11
-40.1711
 21
29.6587
  0
LINE
  8
0
 10
-40.1711
 20
29.6587
 11
-39.9221
 21
29.9836
  0
LINE
  8
0
 10
-39.9221
 20
29.9836
 11
-39.2158
 21
30.9395
  0
LINE
  8
0
 10
-39.2158
 20
30.9395
 11
-38.526
 21
31.9078
  0
LINE
  8
0
 10
-38.526
 20
31.9078
 11
-37.853
 21
32.8883
  0
LINE
  8
0
 10
-37.853
 20
32.8883
 11
-37.1971
 21
33.8807
  0
LINE
  8
0
 10
-37.1971
 20
33.8807
 11
-37.0877
 21
34.0526
  0
LINE
  8
0
 10
-37.0877
 20
34.0526
 11
-36.5775
 21
32.2708
  0
LINE
  8
0
 10
-36.5775
 20
32.2708
 11
-35.8799
 21
29.986
  0
LINE
  8
0
 10
-35.8799
 20
29.986
 11
-35.5228
 21
28.8857
  0
LINE
  8
0
 10
-35.5228
 20
28.8857
 11
-35.7753
 21
28.5304
  0
LINE
  8
0
 10
-35.7753
 20
28.5304
 11
-36.5243
 21
27.5149
  0
LINE
  8
0
 10
-36.5243
 20
27.5149
 11
-37.2906
 21
26.5128
  0
LINE
  8
0
 10
-37.2906
 20
26.5128
 11
-38.0741
 21
25.5246
  0
LINE
  8
0
 10
-38.0741
 20
25.5246
 11
-38.6075
 21
24.8755
  0
LINE
  8
0
 10
-38.6075
 20
24.8755
 11
-39.137
 21
26.4162
  0
LINE
  8
0
 10
34.4155
 20
24.3463
 11
33.6118
 21
25.3989
  0
LINE
  8
0
 10
33.6118
 20
25.3989
 11
32.8264
 21
26.4656
  0
LINE
  8
0
 10
32.8264
 20
26.4656
 11
32.0595
 21
27.5461
  0
LINE
  8
0
 10
32.0595
 20
27.5461
 11
31.5397
 21
28.3062
  0
LINE
  8
0
 10
31.5397
 20
28.3062
 11
31.7188
 21
28.8266
  0
LINE
  8
0
 10
31.7188
 20
28.8266
 11
32.4372
 21
31.0386
  0
LINE
  8
0
 10
32.4372
 20
31.0386
 11
33.117
 21
33.2631
  0
LINE
  8
0
 10
33.117
 20
33.2631
 11
33.1852
 21
33.5011
  0
LINE
  8
0
 10
33.1852
 20
33.5011
 11
33.4725
 21
33.0306
  0
LINE
  8
0
 10
33.4725
 20
33.0306
 11
34.1441
 21
31.973
  0
LINE
  8
0
 10
34.1441
 20
31.973
 11
34.8338
 21
30.9276
  0
LINE
  8
0
 10
34.8338
 20
30.9276
 11
35.5414
 21
29.8947
  0
LINE
  8
0
 10
35.5414
 20
29.8947
 11
36.1865
 21
28.9874
  0
LINE
  8
0
 10
36.1865
 20
28.9874
 11
35.7132
 21
27.5287
  0
LINE
  8
0
 10
35.7132
 20
27.5287
 11
34.9332
 21
25.2604
  0
LINE
  8
0
 10
34.9332
 20
25.2604
 11
34.5425
 21
24.1859
  0
LINE
  8
0
 10
34.5425
 20
24.1859
 11
34.4155
 21
24.3463
  0
LINE
  8
0
 10
-30.7309
 20
24.2377
 11
-31.5293
 21
26.4325
  0
LINE
  8
0
 10
-31.5293
 20
26.4325
 11
-32.205
 21
28.396
  0
LINE
  8
0
 10
-32.205
 20
28.396
 11
-31.8146
 21
28.9669
  0
LINE
  8
0
 10
-31.8146
 20
28.9669
 11
-31.0911
 21
30.0653
  0
LINE
  8
0
 10
-31.0911
 20
30.0653
 11
-30.3867
 21
31.1764
  0
LINE
  8
0
 10
-30.3867
 20
31.1764
 11
-29.7017
 21
32.3
  0
LINE
  8
0
 10
-29.7017
 20
32.3
 11
-29.279
 21
33.0213
  0
LINE
  8
0
 10
-29.279
 20
33.0213
 11
-28.9945
 21
32.0911
  0
LINE
  8
0
 10
-28.9945
 20
32.0911
 11
-28.295
 21
29.939
  0
LINE
  8
0
 10
-28.295
 20
29.939
 11
-27.5581
 21
27.7999
  0
LINE
  8
0
 10
-27.5581
 20
27.7999
 11
-27.5572
 21
27.7973
  0
LINE
  8
0
 10
-27.5572
 20
27.7973
 11
-28.2921
 21
26.6794
  0
LINE
  8
0
 10
-28.2921
 20
26.6794
 11
-29.0749
 21
25.533
  0
LINE
  8
0
 10
-29.0749
 20
25.533
 11
-29.8774
 21
24.4007
  0
LINE
  8
0
 10
-29.8774
 20
24.4007
 11
-30.4793
 21
23.5821
  0
LINE
  8
0
 10
-30.4793
 20
23.5821
 11
-30.7309
 21
24.2377
  0
LINE
  8
0
 10
-51.6933
 20
32.8979
 11
-51.4593
 21
32.0208
  0
LINE
  8
0
 10
-51.4593
 20
32.0208
 11
-52.076
 21
31.351
  0
LINE
  8
0
 10
-52.076
 20
31.351
 11
-52.2579
 21
31.1602
  0
LINE
  8
0
 10
-52.2579
 20
31.1602
 11
-51.6933
 21
32.8979
  0
LINE
  8
0
 10
26.0904
 20
23.5199
 11
25.2729
 21
24.7187
  0
LINE
  8
0
 10
25.2729
 20
24.7187
 11
24.4763
 21
25.9319
  0
LINE
  8
0
 10
24.4763
 20
25.9319
 11
23.7008
 21
27.1591
  0
LINE
  8
0
 10
23.7008
 20
27.1591
 11
23.5713
 21
27.3722
  0
LINE
  8
0
 10
23.5713
 20
27.3722
 11
24.1542
 21
28.9719
  0
LINE
  8
0
 10
24.1542
 20
28.9719
 11
24.8712
 21
31.0515
  0
LINE
  8
0
 10
24.8712
 20
31.0515
 11
25.3755
 21
32.6017
  0
LINE
  8
0
 10
25.3755
 20
32.6017
 11
25.8876
 21
31.6904
  0
LINE
  8
0
 10
25.8876
 20
31.6904
 11
26.584
 21
30.5
  0
LINE
  8
0
 10
26.584
 20
30.5
 11
27.3009
 21
29.3223
  0
LINE
  8
0
 10
27.3009
 20
29.3223
 11
28.0381
 21
28.1576
  0
LINE
  8
0
 10
28.0381
 20
28.1576
 11
28.2204
 21
27.8804
  0
LINE
  8
0
 10
28.2204
 20
27.8804
 11
28.1254
 21
27.6045
  0
LINE
  8
0
 10
28.1254
 20
27.6045
 11
27.348
 21
25.469
  0
LINE
  8
0
 10
27.348
 20
25.469
 11
26.5335
 21
23.3477
  0
LINE
  8
0
 10
26.5335
 20
23.3477
 11
26.4167
 21
23.0588
  0
LINE
  8
0
 10
26.4167
 20
23.0588
 11
26.0904
 21
23.5199
  0
LINE
  8
0
 10
-23.1726
 20
24.6378
 11
-23.9651
 21
26.7003
  0
LINE
  8
0
 10
-23.9651
 20
26.7003
 11
-24.234
 21
27.4383
  0
LINE
  8
0
 10
-24.234
 20
27.4383
 11
-24.2151
 21
27.4682
  0
LINE
  8
0
 10
-24.2151
 20
27.4682
 11
-23.4663
 21
28.7
  0
LINE
  8
0
 10
-23.4663
 20
28.7
 11
-22.7389
 21
29.945
  0
LINE
  8
0
 10
-22.7389
 20
29.945
 11
-22.0332
 21
31.2029
  0
LINE
  8
0
 10
-22.0332
 20
31.2029
 11
-21.4732
 21
32.2433
  0
LINE
  8
0
 10
-21.4732
 20
32.2433
 11
-21.4474
 21
32.164
  0
LINE
  8
0
 10
-21.4474
 20
32.164
 11
-20.7504
 21
30.144
  0
LINE
  8
0
 10
-20.7504
 20
30.144
 11
-20.0184
 21
28.1367
  0
LINE
  8
0
 10
-20.0184
 20
28.1367
 11
-19.5869
 21
27.015
  0
LINE
  8
0
 10
-19.5869
 20
27.015
 11
-19.829
 21
26.6
  0
LINE
  8
0
 10
-19.829
 20
26.6
 11
-20.615
 21
25.305
  0
LINE
  8
0
 10
-20.615
 20
25.305
 11
-21.4234
 21
24.0242
  0
LINE
  8
0
 10
-21.4234
 20
24.0242
 11
-22.2537
 21
22.758
  0
LINE
  8
0
 10
-22.2537
 20
22.758
 11
-22.3533
 21
22.6118
  0
LINE
  8
0
 10
-22.3533
 20
22.6118
 11
-23.1726
 21
24.6378
  0
LINE
  8
0
 10
17.5292
 20
23.4509
 11
16.7113
 21
24.8
  0
LINE
  8
0
 10
16.7113
 20
24.8
 11
15.9169
 21
26.1635
  0
LINE
  8
0
 10
15.9169
 20
26.1635
 11
15.6034
 21
26.7239
  0
LINE
  8
0
 10
15.6034
 20
26.7239
 11
15.8907
 21
27.4331
  0
LINE
  8
0
 10
15.8907
 20
27.4331
 11
16.6355
 21
29.368
  0
LINE
  8
0
 10
16.6355
 20
29.368
 11
17.3465
 21
31.316
  0
LINE
  8
0
 10
17.3465
 20
31.316
 11
17.567
 21
31.9543
  0
LINE
  8
0
 10
17.567
 20
31.9543
 11
18.1418
 21
30.8388
  0
LINE
  8
0
 10
18.1418
 20
30.8388
 11
18.8546
 21
29.5128
  0
LINE
  8
0
 10
18.8546
 20
29.5128
 11
19.5903
 21
28.1997
  0
LINE
  8
0
 10
19.5903
 20
28.1997
 11
20.2503
 21
27.0685
  0
LINE
  8
0
 10
20.2503
 20
27.0685
 11
19.8117
 21
25.9279
  0
LINE
  8
0
 10
19.8117
 20
25.9279
 11
19.0065
 21
23.9384
  0
LINE
  8
0
 10
19.0065
 20
23.9384
 11
18.2877
 21
22.2477
  0
LINE
  8
0
 10
18.2877
 20
22.2477
 11
17.5292
 21
23.4509
  0
LINE
  8
0
 10
-14.853
 20
23.3701
 11
-15.6687
 21
25.287
  0
LINE
  8
0
 10
-15.6687
 20
25.287
 11
-16.2675
 21
26.7656
  0
LINE
  8
0
 10
-16.2675
 20
26.7656
 11
-15.676
 21
27.8227
  0
LINE
  8
0
 10
-15.676
 20
27.8227
 11
-14.9342
 21
29.2044
  0
LINE
  8
0
 10
-14.9342
 20
29.2044
 11
-14.2164
 21
30.5992
  0
LINE
  8
0
 10
-14.2164
 20
30.5992
 11
-13.6629
 21
31.7225
  0
LINE
  8
0
 10
-13.6629
 20
31.7225
 11
-13.2526
 21
30.5993
  0
LINE
  8
0
 10
-13.2526
 20
30.5993
 11
-12.5298
 21
28.7232
  0
LINE
  8
0
 10
-12.5298
 20
28.7232
 11
-11.7745
 21
26.8603
  0
LINE
  8
0
 10
-11.7745
 20
26.8603
 11
-11.6204
 21
26.4985
  0
LINE
  8
0
 10
-11.6204
 20
26.4985
 11
-11.9676
 21
25.8509
  0
LINE
  8
0
 10
-11.9676
 20
25.8509
 11
-12.7683
 21
24.4182
  0
LINE
  8
0
 10
-12.7683
 20
24.4182
 11
-13.5936
 21
23
  0
LINE
  8
0
 10
-13.5936
 20
23
 11
-14.2236
 21
21.9597
  0
LINE
  8
0
 10
-14.2236
 20
21.9597
 11
-14.853
 21
23.3701
  0
LINE
  8
0
 10
9.61963
 20
22.6729
 11
8.789
 21
24.1608
  0
LINE
  8
0
 10
8.789
 20
24.1608
 11
7.98431
 21
25.6633
  0
LINE
  8
0
 10
7.98431
 20
25.6633
 11
7.63768
 21
26.3386
  0
LINE
  8
0
 10
7.63768
 20
26.3386
 11
7.67311
 21
26.4179
  0
LINE
  8
0
 10
7.67311
 20
26.4179
 11
8.43663
 21
28.2089
  0
LINE
  8
0
 10
8.43663
 20
28.2089
 11
9.1689
 21
30.0133
  0
LINE
  8
0
 10
9.1689
 20
30.0133
 11
9.76042
 21
31.5472
  0
LINE
  8
0
 10
9.76042
 20
31.5472
 11
10.2602
 21
30.4852
  0
LINE
  8
0
 10
10.2602
 20
30.4852
 11
10.9807
 21
29.0211
  0
LINE
  8
0
 10
10.9807
 20
29.0211
 11
11.7265
 21
27.5701
  0
LINE
  8
0
 10
11.7265
 20
27.5701
 11
12.2852
 21
26.5284
  0
LINE
  8
0
 10
12.2852
 20
26.5284
 11
11.5392
 21
24.7768
  0
LINE
  8
0
 10
11.5392
 20
24.7768
 11
10.7155
 21
22.9324
  0
LINE
  8
0
 10
10.7155
 20
22.9324
 11
10.1596
 21
21.7441
  0
LINE
  8
0
 10
10.1596
 20
21.7441
 11
9.61963
 21
22.6729
  0
LINE
  8
0
 10
-6.59709
 20
22.6245
 11
-7.42671
 21
24.3967
  0
LINE
  8
0
 10
-7.42671
 20
24.3967
 11
-8.2254
 21
26.1834
  0
LINE
  8
0
 10
-8.2254
 20
26.1834
 11
-8.30086
 21
26.3604
  0
LINE
  8
0
 10
-8.30086
 20
26.3604
 11
-7.74509
 21
27.4429
  0
LINE
  8
0
 10
-7.74509
 20
27.4429
 11
-6.99753
 21
28.9638
  0
LINE
  8
0
 10
-6.99753
 20
28.9638
 11
-6.27647
 21
30.4977
  0
LINE
  8
0
 10
-6.27647
 20
30.4977
 11
-5.85738
 21
31.4313
  0
LINE
  8
0
 10
-5.85738
 20
31.4313
 11
-5.80801
 21
31.3034
  0
LINE
  8
0
 10
-5.80801
 20
31.3034
 11
-5.09875
 21
29.5575
  0
LINE
  8
0
 10
-5.09875
 20
29.5575
 11
-4.35928
 21
27.8245
  0
LINE
  8
0
 10
-4.35928
 20
27.8245
 11
-3.65337
 21
26.247
  0
LINE
  8
0
 10
-3.65337
 20
26.247
 11
-3.97015
 21
25.6018
  0
LINE
  8
0
 10
-3.97015
 20
25.6018
 11
-4.77669
 21
24.0289
  0
LINE
  8
0
 10
-4.77669
 20
24.0289
 11
-5.6104
 21
22.4707
  0
LINE
  8
0
 10
-5.6104
 20
22.4707
 11
-6.09573
 21
21.6005
  0
LINE
  8
0
 10
-6.09573
 20
21.6005
 11
-6.59709
 21
22.6245
  0
LINE
  8
0
 10
1.56906
 20
22.3946
 11
0.734482
 21
24.0236
  0
LINE
  8
0
 10
0.734482
 20
24.0236
 11
-0.0716858
 21
25.6674
  0
LINE
  8
0
 10
-0.0716858
 20
25.6674
 11
-0.331345
 21
26.221
  0
LINE
  8
0
 10
-0.331345
 20
26.221
 11
0.301056
 21
27.5692
  0
LINE
  8
0
 10
0.301056
 20
27.5692
 11
1.04547
 21
29.2311
  0
LINE
  8
0
 10
1.04547
 20
29.2311
 11
1.76089
 21
30.9061
  0
LINE
  8
0
 10
1.76089
 20
30.9061
 11
1.95232
 21
31.3768
  0
LINE
  8
0
 10
1.95232
 20
31.3768
 11
2.26834
 21
30.6378
  0
LINE
  8
0
 10
2.26834
 20
30.6378
 11
2.98772
 21
29.0335
  0
LINE
  8
0
 10
2.98772
 20
29.0335
 11
3.73482
 21
27.4424
  0
LINE
  8
0
 10
3.73482
 20
27.4424
 11
4.31596
 21
26.2588
  0
LINE
  8
0
 10
4.31596
 20
26.2588
 11
4.13794
 21
25.8609
  0
LINE
  8
0
 10
4.13794
 20
25.8609
 11
3.33438
 21
24.1459
  0
LINE
  8
0
 10
3.33438
 20
24.1459
 11
2.50117
 21
22.4455
  0
LINE
  8
0
 10
2.50117
 20
22.4455
 11
2.03191
 21
21.5287
  0
LINE
  8
0
 10
2.03191
 20
21.5287
 11
1.56906
 21
22.3946
  0
LINE
  8
0
 10
-52.8322
 20
21.9664
 11
-53.6671
 21
24.5479
  0
LINE
  8
0
 10
-53.6671
 20
24.5479
 11
-53.9203
 21
25.38
  0
LINE
  8
0
 10
-53.9203
 20
25.38
 11
-53.63
 21
25.6361
  0
LINE
  8
0
 10
-53.63
 20
25.6361
 11
-52.8481
 21
26.3505
  0
LINE
  8
0
 10
-52.8481
 20
26.3505
 11
-52.0786
 21
27.0786
  0
LINE
  8
0
 10
-52.0786
 20
27.0786
 11
-51.3217
 21
27.8204
  0
LINE
  8
0
 10
-51.3217
 20
27.8204
 11
-50.5776
 21
28.5754
  0
LINE
  8
0
 10
-50.5776
 20
28.5754
 11
-50.5163
 21
28.6399
  0
LINE
  8
0
 10
-50.5163
 20
28.6399
 11
-50.4197
 21
28.3016
  0
LINE
  8
0
 10
-50.4197
 20
28.3016
 11
-49.6507
 21
25.7759
  0
LINE
  8
0
 10
-49.6507
 20
25.7759
 11
-49.1105
 21
24.1071
  0
LINE
  8
0
 10
-49.1105
 20
24.1071
 11
-49.9306
 21
23.3292
  0
LINE
  8
0
 10
-49.9306
 20
23.3292
 11
-50.7656
 21
22.5644
  0
LINE
  8
0
 10
-50.7656
 20
22.5644
 11
-51.6136
 21
21.8145
  0
LINE
  8
0
 10
-51.6136
 20
21.8145
 11
-52.4743
 21
21.0797
  0
LINE
  8
0
 10
-52.4743
 20
21.0797
 11
-52.5164
 21
21.045
  0
LINE
  8
0
 10
-52.5164
 20
21.045
 11
-52.8322
 21
21.9664
  0
LINE
  8
0
 10
48.3104
 20
19.9315
 11
47.4298
 21
20.7396
  0
LINE
  8
0
 10
47.4298
 20
20.7396
 11
46.5632
 21
21.5632
  0
LINE
  8
0
 10
46.5632
 20
21.5632
 11
45.7108
 21
22.402
  0
LINE
  8
0
 10
45.7108
 20
22.402
 11
44.9888
 21
23.1379
  0
LINE
  8
0
 10
44.9888
 20
23.1379
 11
45.414
 21
24.3767
  0
LINE
  8
0
 10
45.414
 20
24.3767
 11
46.2079
 21
26.8284
  0
LINE
  8
0
 10
46.2079
 20
26.8284
 11
46.4725
 21
27.6967
  0
LINE
  8
0
 10
46.4725
 20
27.6967
 11
47.1712
 21
26.9348
  0
LINE
  8
0
 10
47.1712
 20
26.9348
 11
47.9447
 21
26.1202
  0
LINE
  8
0
 10
47.9447
 20
26.1202
 11
48.7321
 21
25.3196
  0
LINE
  8
0
 10
48.7321
 20
25.3196
 11
49.533
 21
24.533
  0
LINE
  8
0
 10
49.533
 20
24.533
 11
49.7978
 21
24.282
  0
LINE
  8
0
 10
49.7978
 20
24.282
 11
49.4084
 21
23.0789
  0
LINE
  8
0
 10
49.4084
 20
23.0789
 11
48.5486
 21
20.5723
  0
LINE
  8
0
 10
48.5486
 20
20.5723
 11
48.3148
 21
19.9276
  0
LINE
  8
0
 10
48.3148
 20
19.9276
 11
48.3104
 21
19.9315
  0
LINE
  8
0
 10
-44.2624
 20
19.3126
 11
-45.1448
 21
21.7443
  0
LINE
  8
0
 10
-45.1448
 20
21.7443
 11
-45.6765
 21
23.2935
  0
LINE
  8
0
 10
-45.6765
 20
23.2935
 11
-45.3118
 21
23.665
  0
LINE
  8
0
 10
-45.3118
 20
23.665
 11
-44.4959
 21
24.5259
  0
LINE
  8
0
 10
-44.4959
 20
24.5259
 11
-43.6949
 21
25.4011
  0
LINE
  8
0
 10
-43.6949
 20
25.4011
 11
-42.909
 21
26.2905
  0
LINE
  8
0
 10
-42.909
 20
26.2905
 11
-42.4313
 21
26.8504
  0
LINE
  8
0
 10
-42.4313
 20
26.8504
 11
-41.9902
 21
25.4892
  0
LINE
  8
0
 10
-41.9902
 20
25.4892
 11
-41.1736
 21
23.1117
  0
LINE
  8
0
 10
-41.1736
 20
23.1117
 11
-40.868
 21
22.2702
  0
LINE
  8
0
 10
-40.868
 20
22.2702
 11
-41.3747
 21
21.7155
  0
LINE
  8
0
 10
-41.3747
 20
21.7155
 11
-42.2402
 21
20.8006
  0
LINE
  8
0
 10
-42.2402
 20
20.8006
 11
-43.1212
 21
19.9012
  0
LINE
  8
0
 10
-43.1212
 20
19.9012
 11
-44.0176
 21
19.0176
  0
LINE
  8
0
 10
-44.0176
 20
19.0176
 11
-44.1143
 21
18.9256
  0
LINE
  8
0
 10
-44.1143
 20
18.9256
 11
-44.2624
 21
19.3126
  0
LINE
  8
0
 10
54.0224
 20
24.4898
 11
53.234
 21
25.1856
  0
LINE
  8
0
 10
53.234
 20
25.1856
 11
53.7007
 21
26.7195
  0
LINE
  8
0
 10
53.7007
 20
26.7195
 11
54.5794
 21
24.0154
  0
LINE
  8
0
 10
54.5794
 20
24.0154
 11
54.0224
 21
24.4898
  0
LINE
  8
0
 10
39.6073
 20
18.3455
 11
38.6994
 21
19.3067
  0
LINE
  8
0
 10
38.6994
 20
19.3067
 11
37.8081
 21
20.2839
  0
LINE
  8
0
 10
37.8081
 20
20.2839
 11
36.9338
 21
21.2767
  0
LINE
  8
0
 10
36.9338
 20
21.2767
 11
36.7473
 21
21.4962
  0
LINE
  8
0
 10
36.7473
 20
21.4962
 11
36.9328
 21
21.9804
  0
LINE
  8
0
 10
36.9328
 20
21.9804
 11
37.7697
 21
24.2837
  0
LINE
  8
0
 10
37.7697
 20
24.2837
 11
38.3908
 21
26.0909
  0
LINE
  8
0
 10
38.3908
 20
26.0909
 11
38.5469
 21
25.894
  0
LINE
  8
0
 10
38.5469
 20
25.894
 11
39.3408
 21
24.9281
  0
LINE
  8
0
 10
39.3408
 20
24.9281
 11
40.1512
 21
23.9764
  0
LINE
  8
0
 10
40.1512
 20
23.9764
 11
40.9779
 21
23.0393
  0
LINE
  8
0
 10
40.9779
 20
23.0393
 11
41.5559
 21
22.4067
  0
LINE
  8
0
 10
41.5559
 20
22.4067
 11
40.8795
 21
20.5439
  0
LINE
  8
0
 10
40.8795
 20
20.5439
 11
39.9771
 21
18.1872
  0
LINE
  8
0
 10
39.9771
 20
18.1872
 11
39.9143
 21
18.0316
  0
LINE
  8
0
 10
39.9143
 20
18.0316
 11
39.6073
 21
18.3455
  0
LINE
  8
0
 10
-36.6162
 20
19.4773
 11
-37.4353
 21
21.6149
  0
LINE
  8
0
 10
-37.4353
 20
21.6149
 11
-37.3935
 21
21.6624
  0
LINE
  8
0
 10
-37.3935
 20
21.6624
 11
-36.5431
 21
22.6625
  0
LINE
  8
0
 10
-36.5431
 20
22.6625
 11
-35.7101
 21
23.6776
  0
LINE
  8
0
 10
-35.7101
 20
23.6776
 11
-34.8947
 21
24.7074
  0
LINE
  8
0
 10
-34.8947
 20
24.7074
 11
-34.3521
 21
25.4179
  0
LINE
  8
0
 10
-34.3521
 20
25.4179
 11
-33.5499
 21
23.2117
  0
LINE
  8
0
 10
-33.5499
 20
23.2117
 11
-32.6951
 21
20.9824
  0
LINE
  8
0
 10
-32.6951
 20
20.9824
 11
-32.6275
 21
20.8148
  0
LINE
  8
0
 10
-32.6275
 20
20.8148
 11
-33.2791
 21
20.0194
  0
LINE
  8
0
 10
-33.2791
 20
20.0194
 11
-34.1761
 21
18.9627
  0
LINE
  8
0
 10
-34.1761
 20
18.9627
 11
-35.0912
 21
17.922
  0
LINE
  8
0
 10
-35.0912
 20
17.922
 11
-35.7133
 21
17.2389
  0
LINE
  8
0
 10
-35.7133
 20
17.2389
 11
-36.6162
 21
19.4773
  0
LINE
  8
0
 10
31.4183
 20
16.6486
 11
30.4814
 21
17.7538
  0
LINE
  8
0
 10
30.4814
 20
17.7538
 11
29.5636
 21
18.8755
  0
LINE
  8
0
 10
29.5636
 20
18.8755
 11
28.6653
 21
20.0132
  0
LINE
  8
0
 10
28.6653
 20
20.0132
 11
28.5061
 21
20.2223
  0
LINE
  8
0
 10
28.5061
 20
20.2223
 11
29.3342
 21
22.2726
  0
LINE
  8
0
 10
29.3342
 20
22.2726
 11
30.1671
 21
24.4429
  0
LINE
  8
0
 10
30.1671
 20
24.4429
 11
30.3081
 21
24.8306
  0
LINE
  8
0
 10
30.3081
 20
24.8306
 11
30.3689
 21
24.7448
  0
LINE
  8
0
 10
30.3689
 20
24.7448
 11
31.1848
 21
23.6355
  0
LINE
  8
0
 10
31.1848
 20
23.6355
 11
32.0196
 21
22.5409
  0
LINE
  8
0
 10
32.0196
 20
22.5409
 11
32.8732
 21
21.4613
  0
LINE
  8
0
 10
32.8732
 20
21.4613
 11
33.3147
 21
20.9225
  0
LINE
  8
0
 10
33.3147
 20
20.9225
 11
33.2553
 21
20.7674
  0
LINE
  8
0
 10
33.2553
 20
20.7674
 11
32.358
 21
18.5441
  0
LINE
  8
0
 10
32.358
 20
18.5441
 11
31.51
 21
16.5442
  0
LINE
  8
0
 10
31.51
 20
16.5442
 11
31.4183
 21
16.6486
  0
LINE
  8
0
 10
-28.1083
 20
17.7436
 11
-29.0201
 21
19.8926
  0
LINE
  8
0
 10
-29.0201
 20
19.8926
 11
-29.1909
 21
20.3156
  0
LINE
  8
0
 10
-29.1909
 20
20.3156
 11
-29.1445
 21
20.3743
  0
LINE
  8
0
 10
-29.1445
 20
20.3743
 11
-28.2723
 21
21.5195
  0
LINE
  8
0
 10
-28.2723
 20
21.5195
 11
-27.42
 21
22.6799
  0
LINE
  8
0
 10
-27.42
 20
22.6799
 11
-26.5878
 21
23.8554
  0
LINE
  8
0
 10
-26.5878
 20
23.8554
 11
-26.2666
 21
24.3264
  0
LINE
  8
0
 10
-26.2666
 20
24.3264
 11
-25.9733
 21
23.5627
  0
LINE
  8
0
 10
-25.9733
 20
23.5627
 11
-25.1259
 21
21.466
  0
LINE
  8
0
 10
-25.1259
 20
21.466
 11
-24.3842
 21
19.7192
  0
LINE
  8
0
 10
-24.3842
 20
19.7192
 11
-24.8744
 21
19.0508
  0
LINE
  8
0
 10
-24.8744
 20
19.0508
 11
-25.7903
 21
17.8467
  0
LINE
  8
0
 10
-25.7903
 20
17.8467
 11
-26.7268
 21
16.6591
  0
LINE
  8
0
 10
-26.7268
 20
16.6591
 11
-27.3087
 21
15.947
  0
LINE
  8
0
 10
-27.3087
 20
15.947
 11
-28.1083
 21
17.7436
  0
LINE
  8
0
 10
22.9152
 20
15.6802
 11
21.962
 21
16.9348
  0
LINE
  8
0
 10
21.962
 20
16.9348
 11
21.0306
 21
18.2061
  0
LINE
  8
0
 10
21.0306
 20
18.2061
 11
20.2616
 21
19.2951
  0
LINE
  8
0
 10
20.2616
 20
19.2951
 11
20.9284
 21
20.7913
  0
LINE
  8
0
 10
20.9284
 20
20.7913
 11
21.7881
 21
22.8146
  0
LINE
  8
0
 10
21.7881
 20
22.8146
 11
22.2252
 21
23.8954
  0
LINE
  8
0
 10
22.2252
 20
23.8954
 11
22.7569
 21
23.0848
  0
LINE
  8
0
 10
22.7569
 20
23.0848
 11
23.6033
 21
21.8423
  0
LINE
  8
0
 10
23.6033
 20
21.8423
 11
24.471
 21
20.6151
  0
LINE
  8
0
 10
24.471
 20
20.6151
 11
25.0698
 21
19.7988
  0
LINE
  8
0
 10
25.0698
 20
19.7988
 11
24.7945
 21
19.1503
  0
LINE
  8
0
 10
24.7945
 20
19.1503
 11
23.8705
 21
17.0754
  0
LINE
  8
0
 10
23.8705
 20
17.0754
 11
23.1065
 21
15.4373
  0
LINE
  8
0
 10
23.1065
 20
15.4373
 11
22.9152
 21
15.6802
  0
LINE
  8
0
 10
-19.6479
 20
16.5388
 11
-20.5818
 21
18.5397
  0
LINE
  8
0
 10
-20.5818
 20
18.5397
 11
-20.9484
 21
19.3625
  0
LINE
  8
0
 10
-20.9484
 20
19.3625
 11
-20.6188
 21
19.8292
  0
LINE
  8
0
 10
-20.6188
 20
19.8292
 11
-19.7377
 21
21.1241
  0
LINE
  8
0
 10
-19.7377
 20
21.1241
 11
-18.8792
 21
22.4344
  0
LINE
  8
0
 10
-18.8792
 20
22.4344
 11
-18.184
 21
23.5371
  0
LINE
  8
0
 10
-18.184
 20
23.5371
 11
-17.6146
 21
22.198
  0
LINE
  8
0
 10
-17.6146
 20
22.198
 11
-16.7449
 21
20.248
  0
LINE
  8
0
 10
-16.7449
 20
20.248
 11
-16.1396
 21
18.9522
  0
LINE
  8
0
 10
-16.1396
 20
18.9522
 11
-16.2153
 21
18.8366
  0
LINE
  8
0
 10
-16.2153
 20
18.8366
 11
-17.1368
 21
17.4806
  0
LINE
  8
0
 10
-17.1368
 20
17.4806
 11
-18.0816
 21
16.1412
  0
LINE
  8
0
 10
-18.0816
 20
16.1412
 11
-18.9048
 21
15.0164
  0
LINE
  8
0
 10
-18.9048
 20
15.0164
 11
-19.6479
 21
16.5388
  0
LINE
  8
0
 10
14.1523
 20
15.4675
 11
13.1961
 21
16.8759
  0
LINE
  8
0
 10
13.1961
 20
16.8759
 11
12.2644
 21
18.3011
  0
LINE
  8
0
 10
12.2644
 20
18.3011
 11
12.0193
 21
18.6908
  0
LINE
  8
0
 10
12.0193
 20
18.6908
 11
12.5787
 21
19.8352
  0
LINE
  8
0
 10
12.5787
 20
19.8352
 11
13.4561
 21
21.7122
  0
LINE
  8
0
 10
13.4561
 20
21.7122
 11
14.1429
 21
23.251
  0
LINE
  8
0
 10
14.1429
 20
23.251
 11
14.9577
 21
21.9057
  0
LINE
  8
0
 10
14.9577
 20
21.9057
 11
15.8262
 21
20.5267
  0
LINE
  8
0
 10
15.8262
 20
20.5267
 11
16.7185
 21
19.1634
  0
LINE
  8
0
 10
16.7185
 20
19.1634
 11
16.8263
 21
19.0047
  0
LINE
  8
0
 10
16.8263
 20
19.0047
 11
16.3852
 21
18.0602
  0
LINE
  8
0
 10
16.3852
 20
18.0602
 11
15.4438
 21
16.133
  0
LINE
  8
0
 10
15.4438
 20
16.133
 11
14.7044
 21
14.684
  0
LINE
  8
0
 10
14.7044
 20
14.684
 11
14.1523
 21
15.4675
  0
LINE
  8
0
 10
-11.2614
 20
15.8571
 11
-12.2081
 21
17.7111
  0
LINE
  8
0
 10
-12.2081
 20
17.7111
 11
-12.705
 21
18.7275
  0
LINE
  8
0
 10
-12.705
 20
18.7275
 11
-11.8719
 21
20.0516
  0
LINE
  8
0
 10
-11.8719
 20
20.0516
 11
-10.9955
 21
21.5
  0
LINE
  8
0
 10
-10.9955
 20
21.5
 11
-10.1444
 21
22.9638
  0
LINE
  8
0
 10
-10.1444
 20
22.9638
 11
-10.1028
 21
23.0384
  0
LINE
  8
0
 10
-10.1028
 20
23.0384
 11
-9.31602
 21
21.3566
  0
LINE
  8
0
 10
-9.31602
 20
21.3566
 11
-8.43321
 21
19.5523
  0
LINE
  8
0
 10
-8.43321
 20
19.5523
 11
-7.89853
 21
18.5061
  0
LINE
  8
0
 10
-7.89853
 20
18.5061
 11
-8.27182
 21
17.8885
  0
LINE
  8
0
 10
-8.27182
 20
17.8885
 11
-9.21146
 21
16.3934
  0
LINE
  8
0
 10
-9.21146
 20
16.3934
 11
-10.1769
 21
14.9152
  0
LINE
  8
0
 10
-10.1769
 20
14.9152
 11
-10.5032
 21
14.4341
  0
LINE
  8
0
 10
-10.5032
 20
14.4341
 11
-11.2614
 21
15.8571
  0
LINE
  8
0
 10
6.15849
 20
14.4857
 11
5.18602
 21
16.0343
  0
LINE
  8
0
 10
5.18602
 20
16.0343
 11
4.24054
 21
17.6
  0
LINE
  8
0
 10
4.24054
 20
17.6
 11
3.77762
 21
18.3978
  0
LINE
  8
0
 10
3.77762
 20
18.3978
 11
4.31158
 21
19.3982
  0
LINE
  8
0
 10
4.31158
 20
19.3982
 11
5.19756
 21
21.1304
  0
LINE
  8
0
 10
5.19756
 20
21.1304
 11
6.05331
 21
22.8781
  0
LINE
  8
0
 10
6.05331
 20
22.8781
 11
6.06247
 21
22.8976
  0
LINE
  8
0
 10
6.06247
 20
22.8976
 11
6.14017
 21
22.7524
  0
LINE
  8
0
 10
6.14017
 20
22.7524
 11
6.99577
 21
21.2185
  0
LINE
  8
0
 10
6.99577
 20
21.2185
 11
7.87785
 21
19.7
  0
LINE
  8
0
 10
7.87785
 20
19.7
 11
8.58478
 21
18.5305
  0
LINE
  8
0
 10
8.58478
 20
18.5305
 11
8.0538
 21
17.4915
  0
LINE
  8
0
 10
8.0538
 20
17.4915
 11
7.10405
 21
15.7103
  0
LINE
  8
0
 10
7.10405
 20
15.7103
 11
6.3015
 21
14.2665
  0
LINE
  8
0
 10
6.3015
 20
14.2665
 11
6.15849
 21
14.4857
  0
LINE
  8
0
 10
-2.9749
 20
15.6916
 11
-3.92545
 21
17.4004
  0
LINE
  8
0
 10
-3.92545
 20
17.4004
 11
-4.46417
 21
18.41
  0
LINE
  8
0
 10
-4.46417
 20
18.41
 11
-3.84714
 21
19.4731
  0
LINE
  8
0
 10
-3.84714
 20
19.4731
 11
-2.96155
 21
21.0623
  0
LINE
  8
0
 10
-2.96155
 20
21.0623
 11
-2.10367
 21
22.667
  0
LINE
  8
0
 10
-2.10367
 20
22.667
 11
-2.0208
 21
22.8287
  0
LINE
  8
0
 10
-2.0208
 20
22.8287
 11
-1.9619
 21
22.7085
  0
LINE
  8
0
 10
-1.9619
 20
22.7085
 11
-1.10396
 21
21.0326
  0
LINE
  8
0
 10
-1.10396
 20
21.0326
 11
-0.217056
 21
19.3722
  0
LINE
  8
0
 10
-0.217056
 20
19.3722
 11
0.343338
 21
18.3657
  0
LINE
  8
0
 10
0.343338
 20
18.3657
 11
-0.173737
 21
17.437
  0
LINE
  8
0
 10
-0.173737
 20
17.437
 11
-1.12285
 21
15.8
  0
LINE
  8
0
 10
-1.12285
 20
15.8
 11
-2.09972
 21
14.181
  0
LINE
  8
0
 10
-2.09972
 20
14.181
 11
-2.9749
 21
15.6916
  0
LINE
  8
0
 10
53.872
 20
15.4212
 11
52.9134
 21
16.1316
  0
LINE
  8
0
 10
52.9134
 20
16.1316
 11
51.9671
 21
16.8588
  0
LINE
  8
0
 10
51.9671
 20
16.8588
 11
51.0333
 21
17.6026
  0
LINE
  8
0
 10
51.0333
 20
17.6026
 11
50.7481
 21
17.838
  0
LINE
  8
0
 10
50.7481
 20
17.838
 11
51.3852
 21
19.5956
  0
LINE
  8
0
 10
51.3852
 20
19.5956
 11
52.2346
 21
22.073
  0
LINE
  8
0
 10
52.2346
 20
22.073
 11
52.8679
 21
21.5326
  0
LINE
  8
0
 10
52.8679
 20
21.5326
 11
53.733
 21
20.82
  0
LINE
  8
0
 10
53.733
 20
20.82
 11
54.6102
 21
20.1228
  0
LINE
  8
0
 10
54.6102
 20
20.1228
 11
55.4992
 21
19.4412
  0
LINE
  8
0
 10
55.4992
 20
19.4412
 11
55.7168
 21
19.2803
  0
LINE
  8
0
 10
55.7168
 20
19.2803
 11
55.3564
 21
18.2282
  0
LINE
  8
0
 10
55.3564
 20
18.2282
 11
54.4111
 21
15.6188
  0
LINE
  8
0
 10
54.4111
 20
15.6188
 11
54.2362
 21
15.1611
  0
LINE
  8
0
 10
54.2362
 20
15.1611
 11
53.872
 21
15.4212
  0
LINE
  8
0
 10
-50.0597
 20
14.3168
 11
-51.0282
 21
16.8501
  0
LINE
  8
0
 10
-51.0282
 20
16.8501
 11
-51.4567
 21
18.0322
  0
LINE
  8
0
 10
-51.4567
 20
18.0322
 11
-51.419
 21
18.0622
  0
LINE
  8
0
 10
-51.419
 20
18.0622
 11
-50.5061
 21
18.8156
  0
LINE
  8
0
 10
-50.5061
 20
18.8156
 11
-49.6062
 21
19.5851
  0
LINE
  8
0
 10
-49.6062
 20
19.5851
 11
-48.7196
 21
20.3703
  0
LINE
  8
0
 10
-48.7196
 20
20.3703
 11
-48.0544
 21
20.9806
  0
LINE
  8
0
 10
-48.0544
 20
20.9806
 11
-47.9813
 21
20.7676
  0
LINE
  8
0
 10
-47.9813
 20
20.7676
 11
-47.0815
 21
18.2866
  0
LINE
  8
0
 10
-47.0815
 20
18.2866
 11
-46.4886
 21
16.7366
  0
LINE
  8
0
 10
-46.4886
 20
16.7366
 11
-46.7958
 21
16.4639
  0
LINE
  8
0
 10
-46.7958
 20
16.4639
 11
-47.7506
 21
15.6458
  0
LINE
  8
0
 10
-47.7506
 20
15.6458
 11
-48.7193
 21
14.8448
  0
LINE
  8
0
 10
-48.7193
 20
14.8448
 11
-49.7015
 21
14.061
  0
LINE
  8
0
 10
-49.7015
 20
14.061
 11
-49.8964
 21
13.911
  0
LINE
  8
0
 10
-49.8964
 20
13.911
 11
-50.0597
 21
14.3168
  0
LINE
  8
0
 10
-55.614
 20
20.8311
 11
-55.0078
 21
19.062
  0
LINE
  8
0
 10
-55.0078
 20
19.062
 11
-55.1298
 21
18.9684
  0
LINE
  8
0
 10
-55.1298
 20
18.9684
 11
-56.0385
 21
18.2963
  0
LINE
  8
0
 10
-56.0385
 20
18.2963
 11
-56.5579
 21
17.926
  0
LINE
  8
0
 10
-56.5579
 20
17.926
 11
-55.614
 21
20.8311
  0
LINE
  8
0
 10
45.3888
 20
12.9289
 11
44.387
 21
13.7885
  0
LINE
  8
0
 10
44.387
 20
13.7885
 11
43.4
 21
14.6658
  0
LINE
  8
0
 10
43.4
 20
14.6658
 11
42.4283
 21
15.5604
  0
LINE
  8
0
 10
42.4283
 20
15.5604
 11
42.2291
 21
15.7503
  0
LINE
  8
0
 10
42.2291
 20
15.7503
 11
42.7778
 21
17.1121
  0
LINE
  8
0
 10
42.7778
 20
17.1121
 11
43.6986
 21
19.5178
  0
LINE
  8
0
 10
43.6986
 20
19.5178
 11
43.8741
 21
20.0014
  0
LINE
  8
0
 10
43.8741
 20
20.0014
 11
44.4419
 21
19.4419
  0
LINE
  8
0
 10
44.4419
 20
19.4419
 11
45.3458
 21
18.5816
  0
LINE
  8
0
 10
45.3458
 20
18.5816
 11
46.2644
 21
17.7375
  0
LINE
  8
0
 10
46.2644
 20
17.7375
 11
47.1972
 21
16.9098
  0
LINE
  8
0
 10
47.1972
 20
16.9098
 11
46.6988
 21
15.6069
  0
LINE
  8
0
 10
46.6988
 20
15.6069
 11
45.7094
 21
13.1497
  0
LINE
  8
0
 10
45.7094
 20
13.1497
 11
45.557
 21
12.7896
  0
LINE
  8
0
 10
45.557
 20
12.7896
 11
45.3888
 21
12.9289
  0
LINE
  8
0
 10
-41.3116
 20
12
 11
-41.3636
 21
12.1171
  0
LINE
  8
0
 10
-41.3636
 20
12.1171
 11
-42.3716
 21
14.4983
  0
LINE
  8
0
 10
-42.3716
 20
14.4983
 11
-42.9386
 21
15.9059
  0
LINE
  8
0
 10
-42.9386
 20
15.9059
 11
-42.8451
 21
15.992
  0
LINE
  8
0
 10
-42.8451
 20
15.992
 11
-41.8963
 21
16.8963
  0
LINE
  8
0
 10
-41.8963
 20
16.8963
 11
-40.9632
 21
17.8173
  0
LINE
  8
0
 10
-40.9632
 20
17.8173
 11
-40.0461
 21
18.7547
  0
LINE
  8
0
 10
-40.0461
 20
18.7547
 11
-39.6944
 21
19.1269
  0
LINE
  8
0
 10
-39.6944
 20
19.1269
 11
-39.4169
 21
18.4022
  0
LINE
  8
0
 10
-39.4169
 20
18.4022
 11
-38.4774
 21
16.0716
  0
LINE
  8
0
 10
-38.4774
 20
16.0716
 11
-37.9695
 21
14.8725
  0
LINE
  8
0
 10
-37.9695
 20
14.8725
 11
-38.9264
 21
13.9264
  0
LINE
  8
0
 10
-38.9264
 20
13.9264
 11
-39.9275
 21
12.9707
  0
LINE
  8
0
 10
-39.9275
 20
12.9707
 11
-40.9448
 21
12.0329
  0
LINE
  8
0
 10
-40.9448
 20
12.0329
 11
-40.9818
 21
12
  0
LINE
  8
0
 10
-40.9818
 20
12
 11
-41.3116
 21
12
  0
LINE
  8
0
 10
35.7554
 20
12
 11
35.3524
 21
12.3989
  0
LINE
  8
0
 10
35.3524
 20
12.3989
 11
34.3415
 21
13.4351
  0
LINE
  8
0
 10
34.3415
 20
13.4351
 11
33.7118
 21
14.1035
  0
LINE
  8
0
 10
33.7118
 20
14.1035
 11
34.1836
 21
15.1648
  0
LINE
  8
0
 10
34.1836
 20
15.1648
 11
35.1395
 21
17.4202
  0
LINE
  8
0
 10
35.1395
 20
17.4202
 11
35.5143
 21
18.3494
  0
LINE
  8
0
 10
35.5143
 20
18.3494
 11
35.544
 21
18.3157
  0
LINE
  8
0
 10
35.544
 20
18.3157
 11
36.4699
 21
17.2993
  0
LINE
  8
0
 10
36.4699
 20
17.2993
 11
37.4132
 21
16.2995
  0
LINE
  8
0
 10
37.4132
 20
16.2995
 11
38.3736
 21
15.3165
  0
LINE
  8
0
 10
38.3736
 20
15.3165
 11
38.6806
 21
15.0131
  0
LINE
  8
0
 10
38.6806
 20
15.0131
 11
38.0498
 21
13.5237
  0
LINE
  8
0
 10
38.0498
 20
13.5237
 11
37.3728
 21
12
  0
LINE
  8
0
 10
37.3728
 20
12
 11
35.7554
 21
12
  0
LINE
  8
0
 10
-33.419
 20
12
 11
-33.7368
 21
12.6827
  0
LINE
  8
0
 10
-33.7368
 20
12.6827
 11
-34.4221
 21
14.2244
  0
LINE
  8
0
 10
-34.4221
 20
14.2244
 11
-33.7946
 21
14.8904
  0
LINE
  8
0
 10
-33.7946
 20
14.8904
 11
-32.827
 21
15.9539
  0
LINE
  8
0
 10
-32.827
 20
15.9539
 11
-31.8779
 21
17.0343
  0
LINE
  8
0
 10
-31.8779
 20
17.0343
 11
-31.3368
 21
17.6725
  0
LINE
  8
0
 10
-31.3368
 20
17.6725
 11
-30.8698
 21
16.5714
  0
LINE
  8
0
 10
-30.8698
 20
16.5714
 11
-29.8999
 21
14.391
  0
LINE
  8
0
 10
-29.8999
 20
14.391
 11
-29.4529
 21
13.4314
  0
LINE
  8
0
 10
-29.4529
 20
13.4314
 11
-29.6573
 21
13.1984
  0
LINE
  8
0
 10
-29.6573
 20
13.1984
 11
-30.6734
 21
12.0801
  0
LINE
  8
0
 10
-30.6734
 20
12.0801
 11
-30.7487
 21
12
  0
LINE
  8
0
 10
-30.7487
 20
12
 11
-33.419
 21
12
  0
LINE
  8
0
 10
25.9208
 20
12
 11
25.9028
 21
12.0206
  0
LINE
  8
0
 10
25.9028
 20
12.0206
 11
25.1947
 21
12.8577
  0
LINE
  8
0
 10
25.1947
 20
12.8577
 11
25.6296
 21
13.7495
  0
LINE
  8
0
 10
25.6296
 20
13.7495
 11
26.6112
 21
15.8552
  0
LINE
  8
0
 10
26.6112
 20
15.8552
 11
27.1573
 21
17.0821
  0
LINE
  8
0
 10
27.1573
 20
17.0821
 11
27.1996
 21
17.0285
  0
LINE
  8
0
 10
27.1996
 20
17.0285
 11
28.1499
 21
15.8659
  0
LINE
  8
0
 10
28.1499
 20
15.8659
 11
29.1202
 21
14.7203
  0
LINE
  8
0
 10
29.1202
 20
14.7203
 11
30.1101
 21
13.5921
  0
LINE
  8
0
 10
30.1101
 20
13.5921
 11
30.1626
 21
13.5342
  0
LINE
  8
0
 10
30.1626
 20
13.5342
 11
29.4479
 21
12
  0
LINE
  8
0
 10
29.4479
 20
12
 11
25.9208
 21
12
  0
LINE
  8
0
 10
-25.444
 20
12
 11
-25.9054
 21
12.9464
  0
LINE
  8
0
 10
-25.9054
 20
12.9464
 11
-25.3522
 21
13.6003
  0
LINE
  8
0
 10
-25.3522
 20
13.6003
 11
-24.3627
 21
14.8121
  0
LINE
  8
0
 10
-24.3627
 20
14.8121
 11
-23.3943
 21
16.0413
  0
LINE
  8
0
 10
-23.3943
 20
16.0413
 11
-22.9803
 21
16.5861
  0
LINE
  8
0
 10
-22.9803
 20
16.5861
 11
-22.3669
 21
15.271
  0
LINE
  8
0
 10
-22.3669
 20
15.271
 11
-21.3758
 21
13.2397
  0
LINE
  8
0
 10
-21.3758
 20
13.2397
 11
-20.9355
 21
12.3758
  0
LINE
  8
0
 10
-20.9355
 20
12.3758
 11
-21.0531
 21
12.2263
  0
LINE
  8
0
 10
-21.0531
 20
12.2263
 11
-21.2377
 21
12
  0
LINE
  8
0
 10
-21.2377
 20
12
 11
-25.444
 21
12
  0
LINE
  8
0
 10
16.684
 20
12
 11
17.1421
 21
12.8608
  0
LINE
  8
0
 10
17.1421
 20
12.8608
 11
18.1402
 21
14.8178
  0
LINE
  8
0
 10
18.1402
 20
14.8178
 11
18.8018
 21
16.173
  0
LINE
  8
0
 10
18.8018
 20
16.173
 11
19.5349
 21
15.1714
  0
LINE
  8
0
 10
19.5349
 20
15.1714
 11
20.5193
 21
13.8747
  0
LINE
  8
0
 10
20.5193
 20
13.8747
 11
21.5259
 21
12.5957
  0
LINE
  8
0
 10
21.5259
 20
12.5957
 11
21.646
 21
12.4485
  0
LINE
  8
0
 10
21.646
 20
12.4485
 11
21.4174
 21
12
  0
LINE
  8
0
 10
21.4174
 20
12
 11
16.684
 21
12
  0
LINE
  8
0
 10
-56.8821
 20
12
 11
-57.516
 21
13.6597
  0
LINE
  8
0
 10
-57.516
 20
13.6597
 11
-57.1538
 21
13.8907
  0
LINE
  8
0
 10
-57.1538
 20
13.8907
 11
-56.1689
 21
14.5434
  0
LINE
  8
0
 10
-56.1689
 20
14.5434
 11
-55.1952
 21
15.2134
  0
LINE
  8
0
 10
-55.1952
 20
15.2134
 11
-54.2331
 21
15.9004
  0
LINE
  8
0
 10
-54.2331
 20
15.9004
 11
-53.9508
 21
16.1096
  0
LINE
  8
0
 10
-53.9508
 20
16.1096
 11
-53.8473
 21
15.824
  0
LINE
  8
0
 10
-53.8473
 20
15.824
 11
-52.8605
 21
13.2417
  0
LINE
  8
0
 10
-52.8605
 20
13.2417
 11
-52.385
 21
12.0599
  0
LINE
  8
0
 10
-52.385
 20
12.0599
 11
-52.4687
 21
12
  0
LINE
  8
0
 10
-52.4687
 20
12
 11
-56.8821
 21
12
  0
LINE
  8
0
 10
-17.3636
 20
12
 11
-17.388
 21
12.0459
  0
LINE
  8
0
 10
-17.388
 20
12.0459
 11
-16.6224
 21
13.0554
  0
LINE
  8
0
 10
-16.6224
 20
13.0554
 11
-15.6242
 21
14.4205
  0
LINE
  8
0
 10
-15.6242
 20
14.4205
 11
-14.6497
 21
15.803
  0
LINE
  8
0
 10
-14.6497
 20
15.803
 11
-14.6224
 21
15.8432
  0
LINE
  8
0
 10
-14.6224
 20
15.8432
 11
-13.9344
 21
14.4951
  0
LINE
  8
0
 10
-13.9344
 20
14.4951
 11
-12.9315
 21
12.6118
  0
LINE
  8
0
 10
-12.9315
 20
12.6118
 11
-12.5919
 21
12
  0
LINE
  8
0
 10
-12.5919
 20
12
 11
-17.3636
 21
12
  0
LINE
  8
0
 10
8.46277
 20
12
 11
8.74738
 21
12.4919
  0
LINE
  8
0
 10
8.74738
 20
12.4919
 11
9.7529
 21
14.3019
  0
LINE
  8
0
 10
9.7529
 20
14.3019
 11
10.4454
 21
15.6013
  0
LINE
  8
0
 10
10.4454
 20
15.6013
 11
10.6801
 21
15.242
  0
LINE
  8
0
 10
10.6801
 20
15.242
 11
11.6651
 21
13.7899
  0
LINE
  8
0
 10
11.6651
 20
13.7899
 11
12.6752
 21
12.3556
  0
LINE
  8
0
 10
12.6752
 20
12.3556
 11
12.935
 21
12
  0
LINE
  8
0
 10
12.935
 20
12
 11
8.46277
 21
12
  0
LINE
  8
0
 10
-8.52936
 20
12
 11
-7.66086
 21
13.2813
  0
LINE
  8
0
 10
-7.66086
 20
13.2813
 11
-6.66731
 21
14.8036
  0
LINE
  8
0
 10
-6.66731
 20
14.8036
 11
-6.26752
 21
15.4402
  0
LINE
  8
0
 10
-6.26752
 20
15.4402
 11
-5.59875
 21
14.2372
  0
LINE
  8
0
 10
-5.59875
 20
14.2372
 11
-4.59291
 21
12.5
  0
LINE
  8
0
 10
-4.59291
 20
12.5
 11
-4.29164
 21
12
  0
LINE
  8
0
 10
-4.29164
 20
12
 11
-8.52936
 21
12
  0
LINE
  8
0
 10
0.0730743
 20
12
 11
0.471283
 21
12.6351
  0
LINE
  8
0
 10
0.471283
 20
12.6351
 11
1.47522
 21
14.3
  0
LINE
  8
0
 10
1.47522
 20
14.3
 11
2.08923
 21
15.3597
  0
LINE
  8
0
 10
2.08923
 20
15.3597
 11
2.61452
 21
14.4892
  0
LINE
  8
0
 10
2.61452
 20
14.4892
 11
3.61435
 21
12.8959
  0
LINE
  8
0
 10
3.61435
 20
12.8959
 11
4.19859
 21
12
  0
LINE
  8
0
 10
4.19859
 20
12
 11
0.0730743
 21
12
  0
LINE
  8
0
 10
57.823
 20
12.7523
 11
56.8183
 21
13.3933
  0
LINE
  8
0
 10
56.8183
 20
13.3933
 11
56.7814
 21
13.4178
  0
LINE
  8
0
 10
56.7814
 20
13.4178
 11
57.2302
 21
14.5927
  0
LINE
  8
0
 10
57.2302
 20
14.5927
 11
57.4467
 21
15.1907
  0
LINE
  8
0
 10
57.4467
 20
15.1907
 11
58.3426
 21
12.4335
  0
LINE
  8
0
 10
58.3426
 20
12.4335
 11
57.823
 21
12.7523
  0
LINE
  8
0
 10
48.48
 20
12
 11
48.491
 21
12.0259
  0
LINE
  8
0
 10
48.491
 20
12.0259
 11
49.4996
 21
14.5318
  0
LINE
  8
0
 10
49.4996
 20
14.5318
 11
49.6337
 21
14.8826
  0
LINE
  8
0
 10
49.6337
 20
14.8826
 11
50.0791
 21
14.5273
  0
LINE
  8
0
 10
50.0791
 20
14.5273
 11
51.0664
 21
13.7676
  0
LINE
  8
0
 10
51.0664
 20
13.7676
 11
52.0665
 21
13.0253
  0
LINE
  8
0
 10
52.0665
 20
13.0253
 11
53.0792
 21
12.3009
  0
LINE
  8
0
 10
53.0792
 20
12.3009
 11
53.1179
 21
12.2742
  0
LINE
  8
0
 10
53.1179
 20
12.2742
 11
53.0076
 21
12
  0
LINE
  8
0
 10
53.0076
 20
12
 11
48.48
 21
12
  0
LINE
  8
0
 10
-47.4751
 20
12
 11
-46.7909
 21
12.5467
  0
LINE
  8
0
 10
-46.7909
 20
12.5467
 11
-45.7825
 21
13.3817
  0
LINE
  8
0
 10
-45.7825
 20
13.3817
 11
-45.3169
 21
13.7811
  0
LINE
  8
0
 10
-45.3169
 20
13.7811
 11
-45.1531
 21
13.3745
  0
LINE
  8
0
 10
-45.1531
 20
13.3745
 11
-44.5715
 21
12
  0
LINE
  8
0
 10
-44.5715
 20
12
 11
-47.4751
 21
12
  0
LINE
  8
0
 10
40.6552
 20
12
 11
40.8113
 21
12.3515
  0
LINE
  8
0
 10
40.8113
 20
12.3515
 11
41.0002
 21
12.7978
  0
LINE
  8
0
 10
41.0002
 20
12.7978
 11
41.354
 21
12.4717
  0
LINE
  8
0
 10
41.354
 20
12.4717
 11
41.8841
 21
12
  0
LINE
  8
0
 10
41.8841
 20
12
 11
40.6552
 21
12
  0
LINE
  8
0
 10
-10
 20
7
 11
-10
 21
11
  0
LINE
  8
0
 10
-10
 20
11
 11
10
 21
11
  0
LINE
  8
0
 10
10
 20
11
 11
10
 21
7
  0
LINE
  8
0
 10
10
 20
7
 11
-10
 21
7
  0
LINE
  8
0
 10
-68.6534
 20
2.70622
 11
-68.7785
 21
2.71805
  0
LINE
  8
0
 10
-68.7785
 20
2.71805
 11
-68.9026
 21
2.7377
  0
LINE
  8
0
 10
-68.9026
 20
2.7377
 11
-69.0252
 21
2.76511
  0
LINE
  8
0
 10
-69.0252
 20
2.76511
 11
-69.1459
 21
2.80016
  0
LINE
  8
0
 10
-69.1459
 20
2.80016
 11
-69.2641
 21
2.84273
  0
LINE
  8
0
 10
-69.2641
 20
2.84273
 11
-69.3794
 21
2.89262
  0
LINE
  8
0
 10
-69.3794
 20
2.89262
 11
-69.4914
 21
2.94966
  0
LINE
  8
0
 10
-69.4914
 20
2.94966
 11
-69.5995
 21
3.01363
  0
LINE
  8
0
 10
-69.5995
 20
3.01363
 11
-69.7034
 21
3.08424
  0
LINE
  8
0
 10
-69.7034
 20
3.08424
 11
-69.8027
 21
3.16125
  0
LINE
  8
0
 10
-69.8027
 20
3.16125
 11
-69.897
 21
3.24434
  0
LINE
  8
0
 10
-69.897
 20
3.24434
 11
-69.9858
 21
3.33318
  0
LINE
  8
0
 10
-69.9858
 20
3.33318
 11
-70.0689
 21
3.42743
  0
LINE
  8
0
 10
-70.0689
 20
3.42743
 11
-70.1459
 21
3.5267
  0
LINE
  8
0
 10
-70.1459
 20
3.5267
 11
-70.2165
 21
3.63062
  0
LINE
  8
0
 10
-70.2165
 20
3.63062
 11
-70.2805
 21
3.73877
  0
LINE
  8
0
 10
-70.2805
 20
3.73877
 11
-70.3375
 21
3.85072
  0
LINE
  8
0
 10
-70.3375
 20
3.85072
 11
-70.3874
 21
3.96602
  0
LINE
  8
0
 10
-70.3874
 20
3.96602
 11
-70.43
 21
4.08424
  0
LINE
  8
0
 10
-70.43
 20
4.08424
 11
-70.465
 21
4.2049
  0
LINE
  8
0
 10
-70.465
 20
4.2049
 11
-70.4924
 21
4.32751
  0
LINE
  8
0
 10
-70.4924
 20
4.32751
 11
-70.5121
 21
4.45161
  0
LINE
  8
0
 10
-70.5121
 20
4.45161
 11
-70.5239
 21
4.57669
  0
LINE
  8
0
 10
-70.5239
 20
4.57669
 11
-70.5279
 21
4.70227
  0
LINE
  8
0
 10
-70.5279
 20
4.70227
 11
-70.5239
 21
4.82785
  0
LINE
  8
0
 10
-70.5239
 20
4.82785
 11
-70.5121
 21
4.95294
  0
LINE
  8
0
 10
-70.5121
 20
4.95294
 11
-70.4924
 21
5.07704
  0
LINE
  8
0
 10
-70.4924
 20
5.07704
 11
-70.465
 21
5.19966
  0
LINE
  8
0
 10
-70.465
 20
5.19966
 11
-70.43
 21
5.32031
  0
LINE
  8
0
 10
-70.43
 20
5.32031
 11
-70.3874
 21
5.43852
  0
LINE
  8
0
 10
-70.3874
 20
5.43852
 11
-70.3375
 21
5.55383
  0
LINE
  8
0
 10
-70.3375
 20
5.55383
 11
-70.2805
 21
5.66579
  0
LINE
  8
0
 10
-70.2805
 20
5.66579
 11
-70.2165
 21
5.77393
  0
LINE
  8
0
 10
-70.2165
 20
5.77393
 11
-70.1459
 21
5.87784
  0
LINE
  8
0
 10
-70.1459
 20
5.87784
 11
-70.0689
 21
5.97713
  0
LINE
  8
0
 10
-70.0689
 20
5.97713
 11
-69.9858
 21
6.07137
  0
LINE
  8
0
 10
-69.9858
 20
6.07137
 11
-69.897
 21
6.16022
  0
LINE
  8
0
 10
-69.897
 20
6.16022
 11
-69.8027
 21
6.2433
  0
LINE
  8
0
 10
-69.8027
 20
6.2433
 11
-69.7034
 21
6.32031
  0
LINE
  8
0
 10
-69.7034
 20
6.32031
 11
-69.5995
 21
6.39093
  0
LINE
  8
0
 10
-69.5995
 20
6.39093
 11
-69.4914
 21
6.4549
  0
LINE
  8
0
 10
-69.4914
 20
6.4549
 11
-69.3794
 21
6.51193
  0
LINE
  8
0
 10
-69.3794
 20
6.51193
 11
-69.2641
 21
6.56183
  0
LINE
  8
0
 10
-69.2641
 20
6.56183
 11
-69.1459
 21
6.60439
  0
LINE
  8
0
 10
-69.1459
 20
6.60439
 11
-69.0252
 21
6.63943
  0
LINE
  8
0
 10
-69.0252
 20
6.63943
 11
-68.9026
 21
6.66685
  0
LINE
  8
0
 10
-68.9026
 20
6.66685
 11
-68.7785
 21
6.68651
  0
LINE
  8
0
 10
-68.7785
 20
6.68651
 11
-68.6534
 21
6.69833
  0
LINE
  8
0
 10
-68.6534
 20
6.69833
 11
-68.5279
 21
6.70227
  0
LINE
  8
0
 10
-68.5279
 20
6.70227
 11
-68.4023
 21
6.69833
  0
LINE
  8
0
 10
-68.4023
 20
6.69833
 11
-68.2772
 21
6.68651
  0
LINE
  8
0
 10
-68.2772
 20
6.68651
 11
-68.1531
 21
6.66685
  0
LINE
  8
0
 10
-68.1531
 20
6.66685
 11
-68.0305
 21
6.63943
  0
LINE
  8
0
 10
-68.0305
 20
6.63943
 11
-67.9098
 21
6.60439
  0
LINE
  8
0
 10
-67.9098
 20
6.60439
 11
-67.7916
 21
6.56183
  0
LINE
  8
0
 10
-67.7916
 20
6.56183
 11
-67.6763
 21
6.51193
  0
LINE
  8
0
 10
-67.6763
 20
6.51193
 11
-67.5643
 21
6.4549
  0
LINE
  8
0
 10
-67.5643
 20
6.4549
 11
-67.4562
 21
6.39093
  0
LINE
  8
0
 10
-67.4562
 20
6.39093
 11
-67.3523
 21
6.32031
  0
LINE
  8
0
 10
-67.3523
 20
6.32031
 11
-67.253
 21
6.2433
  0
LINE
  8
0
 10
-67.253
 20
6.2433
 11
-67.1588
 21
6.16022
  0
LINE
  8
0
 10
-67.1588
 20
6.16022
 11
-67.0699
 21
6.07137
  0
LINE
  8
0
 10
-67.0699
 20
6.07137
 11
-66.9868
 21
5.97713
  0
LINE
  8
0
 10
-66.9868
 20
5.97713
 11
-66.9098
 21
5.87784
  0
LINE
  8
0
 10
-66.9098
 20
5.87784
 11
-66.8392
 21
5.77393
  0
LINE
  8
0
 10
-66.8392
 20
5.77393
 11
-66.7752
 21
5.66579
  0
LINE
  8
0
 10
-66.7752
 20
5.66579
 11
-66.7182
 21
5.55383
  0
LINE
  8
0
 10
-66.7182
 20
5.55383
 11
-66.6683
 21
5.43852
  0
LINE
  8
0
 10
-66.6683
 20
5.43852
 11
-66.6257
 21
5.32031
  0
LINE
  8
0
 10
-66.6257
 20
5.32031
 11
-66.5907
 21
5.19966
  0
LINE
  8
0
 10
-66.5907
 20
5.19966
 11
-66.5633
 21
5.07704
  0
LINE
  8
0
 10
-66.5633
 20
5.07704
 11
-66.5436
 21
4.95294
  0
LINE
  8
0
 10
-66.5436
 20
4.95294
 11
-66.5318
 21
4.82785
  0
LINE
  8
0
 10
-66.5318
 20
4.82785
 11
-66.5279
 21
4.70227
  0
LINE
  8
0
 10
-66.5279
 20
4.70227
 11
-66.5318
 21
4.57669
  0
LINE
  8
0
 10
-66.5318
 20
4.57669
 11
-66.5436
 21
4.45161
  0
LINE
  8
0
 10
-66.5436
 20
4.45161
 11
-66.5633
 21
4.32751
  0
LINE
  8
0
 10
-66.5633
 20
4.32751
 11
-66.5907
 21
4.2049
  0
LINE
  8
0
 10
-66.5907
 20
4.2049
 11
-66.6257
 21
4.08424
  0
LINE
  8
0
 10
-66.6257
 20
4.08424
 11
-66.6683
 21
3.96602
  0
LINE
  8
0
 10
-66.6683
 20
3.96602
 11
-66.7182
 21
3.85072
  0
LINE
  8
0
 10
-66.7182
 20
3.85072
 11
-66.7752
 21
3.73877
  0
LINE
  8
0
 10
-66.7752
 20
3.73877
 11
-66.8392
 21
3.63062
  0
LINE
  8
0
 10
-66.8392
 20
3.63062
 11
-66.9098
 21
3.5267
  0
LINE
  8
0
 10
-66.9098
 20
3.5267
 11
-66.9868
 21
3.42743
  0
LINE
  8
0
 10
-66.9868
 20
3.42743
 11
-67.0699
 21
3.33318
  0
LINE
  8
0
 10
-67.0699
 20
3.33318
 11
-67.1588
 21
3.24434
  0
LINE
  8
0
 10
-67.1588
 20
3.24434
 11
-67.253
 21
3.16125
  0
LINE
  8
0
 10
-67.253
 20
3.16125
 11
-67.3523
 21
3.08424
  0
LINE
  8
0
 10
-67.3523
 20
3.08424
 11
-67.4562
 21
3.01363
  0
LINE
  8
0
 10
-67.4562
 20
3.01363
 11
-67.5643
 21
2.94966
  0
LINE
  8
0
 10
-67.5643
 20
2.94966
 11
-67.6763
 21
2.89262
  0
LINE
  8
0
 10
-67.6763
 20
2.89262
 11
-67.7916
 21
2.84273
  0
LINE
  8
0
 10
-67.7916
 20
2.84273
 11
-67.9098
 21
2.80016
  0
LINE
  8
0
 10
-67.9098
 20
2.80016
 11
-68.0305
 21
2.76511
  0
LINE
  8
0
 10
-68.0305
 20
2.76511
 11
-68.1531
 21
2.7377
  0
LINE
  8
0
 10
-68.1531
 20
2.7377
 11
-68.2772
 21
2.71805
  0
LINE
  8
0
 10
-68.2772
 20
2.71805
 11
-68.4023
 21
2.70622
  0
LINE
  8
0
 10
-68.4023
 20
2.70622
 11
-68.5279
 21
2.70227
  0
LINE
  8
0
 10
-68.5279
 20
2.70227
 11
-68.6534
 21
2.70622
  0
LINE
  8
0
 10
68.4023
 20
2.70622
 11
68.2772
 21
2.71805
  0
LINE
  8
0
 10
68.2772
 20
2.71805
 11
68.1531
 21
2.7377
  0
LINE
  8
0
 10
68.1531
 20
2.7377
 11
68.0305
 21
2.76511
  0
LINE
  8
0
 10
68.0305
 20
2.76511
 11
67.9098
 21
2.80016
  0
LINE
  8
0
 10
67.9098
 20
2.80016
 11
67.7916
 21
2.84273
  0
LINE
  8
0
 10
67.7916
 20
2.84273
 11
67.6763
 21
2.89262
  0
LINE
  8
0
 10
67.6763
 20
2.89262
 11
67.5643
 21
2.94966
  0
LINE
  8
0
 10
67.5643
 20
2.94966
 11
67.4562
 21
3.01363
  0
LINE
  8
0
 10
67.4562
 20
3.01363
 11
67.3523
 21
3.08424
  0
LINE
  8
0
 10
67.3523
 20
3.08424
 11
67.253
 21
3.16125
  0
LINE
  8
0
 10
67.253
 20
3.16125
 11
67.1588
 21
3.24434
  0
LINE
  8
0
 10
67.1588
 20
3.24434
 11
67.0699
 21
3.33318
  0
LINE
  8
0
 10
67.0699
 20
3.33318
 11
66.9868
 21
3.42743
  0
LINE
  8
0
 10
66.9868
 20
3.42743
 11
66.9098
 21
3.5267
  0
LINE
  8
0
 10
66.9098
 20
3.5267
 11
66.8392
 21
3.63062
  0
LINE
  8
0
 10
66.8392
 20
3.63062
 11
66.7752
 21
3.73877
  0
LINE
  8
0
 10
66.7752
 20
3.73877
 11
66.7182
 21
3.85072
  0
LINE
  8
0
 10
66.7182
 20
3.85072
 11
66.6683
 21
3.96602
  0
LINE
  8
0
 10
66.6683
 20
3.96602
 11
66.6257
 21
4.08424
  0
LINE
  8
0
 10
66.6257
 20
4.08424
 11
66.5907
 21
4.2049
  0
LINE
  8
0
 10
66.5907
 20
4.2049
 11
66.5633
 21
4.32751
  0
LINE
  8
0
 10
66.5633
 20
4.32751
 11
66.5436
 21
4.45161
  0
LINE
  8
0
 10
66.5436
 20
4.45161
 11
66.5318
 21
4.57669
  0
LINE
  8
0
 10
66.5318
 20
4.57669
 11
66.5279
 21
4.70227
  0
LINE
  8
0
 10
66.5279
 20
4.70227
 11
66.5318
 21
4.82785
  0
LINE
  8
0
 10
66.5318
 20
4.82785
 11
66.5436
 21
4.95294
  0
LINE
  8
0
 10
66.5436
 20
4.95294
 11
66.5633
 21
5.07704
  0
LINE
  8
0
 10
66.5633
 20
5.07704
 11
66.5907
 21
5.19966
  0
LINE
  8
0
 10
66.5907
 20
5.19966
 11
66.6257
 21
5.32031
  0
LINE
  8
0
 10
66.6257
 20
5.32031
 11
66.6683
 21
5.43852
  0
LINE
  8
0
 10
66.6683
 20
5.43852
 11
66.7182
 21
5.55383
  0
LINE
  8
0
 10
66.7182
 20
5.55383
 11
66.7752
 21
5.66579
  0
LINE
  8
0
 10
66.7752
 20
5.66579
 11
66.8392
 21
5.77393
  0
LINE
  8
0
 10
66.8392
 20
5.77393
 11
66.9098
 21
5.87784
  0
LINE
  8
0
 10
66.9098
 20
5.87784
 11
66.9868
 21
5.97713
  0
LINE
  8
0
 10
66.9868
 20
5.97713
 11
67.0699
 21
6.07137
  0
LINE
  8
0
 10
67.0699
 20
6.07137
 11
67.1588
 21
6.16022
  0
LINE
  8
0
 10
67.1588
 20
6.16022
 11
67.253
 21
6.2433
  0
LINE
  8
0
 10
67.253
 20
6.2433
 11
67.3523
 21
6.32031
  0
LINE
  8
0
 10
67.3523
 20
6.32031
 11
67.4562
 21
6.39093
  0
LINE
  8
0
 10
67.4562
 20
6.39093
 11
67.5643
 21
6.4549
  0
LINE
  8
0
 10
67.5643
 20
6.4549
 11
67.6763
 21
6.51193
  0
LINE
  8
0
 10
67.6763
 20
6.51193
 11
67.7916
 21
6.56183
  0
LINE
  8
0
 10
67.7916
 20
6.56183
 11
67.9098
 21
6.60439
  0
LINE
  8
0
 10
67.9098
 20
6.60439
 11
68.0305
 21
6.63943
  0
LINE
  8
0
 10
68.0305
 20
6.63943
 11
68.1531
 21
6.66685
  0
LINE
  8
0
 10
68.1531
 20
6.66685
 11
68.2772
 21
6.68651
  0
LINE
  8
0
 10
68.2772
 20
6.68651
 11
68.4023
 21
6.69833
  0
LINE
  8
0
 10
68.4023
 20
6.69833
 11
68.5279
 21
6.70227
  0
LINE
  8
0
 10
68.5279
 20
6.70227
 11
68.6534
 21
6.69833
  0
LINE
  8
0
 10
68.6534
 20
6.69833
 11
68.7785
 21
6.68651
  0
LINE
  8
0
 10
68.7785
 20
6.68651
 11
68.9026
 21
6.66685
  0
LINE
  8
0
 10
68.9026
 20
6.66685
 11
69.0252
 21
6.63943
  0
LINE
  8
0
 10
69.0252
 20
6.63943
 11
69.1459
 21
6.60439
  0
LINE
  8
0
 10
69.1459
 20
6.60439
 11
69.2641
 21
6.56183
  0
LINE
  8
0
 10
69.2641
 20
6.56183
 11
69.3794
 21
6.51193
  0
LINE
  8
0
 10
69.3794
 20
6.51193
 11
69.4914
 21
6.4549
  0
LINE
  8
0
 10
69.4914
 20
6.4549
 11
69.5995
 21
6.39093
  0
LINE
  8
0
 10
69.5995
 20
6.39093
 11
69.7034
 21
6.32031
  0
LINE
  8
0
 10
69.7034
 20
6.32031
 11
69.8027
 21
6.2433
  0
LINE
  8
0
 10
69.8027
 20
6.2433
 11
69.897
 21
6.16022
  0
LINE
  8
0
 10
69.897
 20
6.16022
 11
69.9858
 21
6.07137
  0
LINE
  8
0
 10
69.9858
 20
6.07137
 11
70.0689
 21
5.97713
  0
LINE
  8
0
 10
70.0689
 20
5.97713
 11
70.1459
 21
5.87784
  0
LINE
  8
0
 10
70.1459
 20
5.87784
 11
70.2165
 21
5.77393
  0
LINE
  8
0
 10
70.2165
 20
5.77393
 11
70.2805
 21
5.66579
  0
LINE
  8
0
 10
70.2805
 20
5.66579
 11
70.3375
 21
5.55383
  0
LINE
  8
0
 10
70.3375
 20
5.55383
 11
70.3874
 21
5.43852
  0
LINE
  8
0
 10
70.3874
 20
5.43852
 11
70.43
 21
5.32031
  0
LINE
  8
0
 10
70.43
 20
5.32031
 11
70.465
 21
5.19966
  0
LINE
  8
0
 10
70.465
 20
5.19966
 11
70.4924
 21
5.07704
  0
LINE
  8
0
 10
70.4924
 20
5.07704
 11
70.5121
 21
4.95294
  0
LINE
  8
0
 10
70.5121
 20
4.95294
 11
70.5239
 21
4.82785
  0
LINE
  8
0
 10
70.5239
 20
4.82785
 11
70.5279
 21
4.70227
  0
LINE
  8
0
 10
70.5279
 20
4.70227
 11
70.5239
 21
4.57669
  0
LINE
  8
0
 10
70.5239
 20
4.57669
 11
70.5121
 21
4.45161
  0
LINE
  8
0
 10
70.5121
 20
4.45161
 11
70.4924
 21
4.32751
  0
LINE
  8
0
 10
70.4924
 20
4.32751
 11
70.465
 21
4.2049
  0
LINE
  8
0
 10
70.465
 20
4.2049
 11
70.43
 21
4.08424
  0
LINE
  8
0
 10
70.43
 20
4.08424
 11
70.3874
 21
3.96602
  0
LINE
  8
0
 10
70.3874
 20
3.96602
 11
70.3375
 21
3.85072
  0
LINE
  8
0
 10
70.3375
 20
3.85072
 11
70.2805
 21
3.73877
  0
LINE
  8
0
 10
70.2805
 20
3.73877
 11
70.2165
 21
3.63062
  0
LINE
  8
0
 10
70.2165
 20
3.63062
 11
70.1459
 21
3.5267
  0
LINE
  8
0
 10
70.1459
 20
3.5267
 11
70.0689
 21
3.42743
  0
LINE
  8
0
 10
70.0689
 20
3.42743
 11
69.9858
 21
3.33318
  0
LINE
  8
0
 10
69.9858
 20
3.33318
 11
69.897
 21
3.24434
  0
LINE
  8
0
 10
69.897
 20
3.24434
 11
69.8027
 21
3.16125
  0
LINE
  8
0
 10
69.8027
 20
3.16125
 11
69.7034
 21
3.08424
  0
LINE
  8
0
 10
69.7034
 20
3.08424
 11
69.5995
 21
3.01363
  0
LINE
  8
0
 10
69.5995
 20
3.01363
 11
69.4914
 21
2.94966
  0
LINE
  8
0
 10
69.4914
 20
2.94966
 11
69.3794
 21
2.89262
  0
LINE
  8
0
 10
69.3794
 20
2.89262
 11
69.2641
 21
2.84273
  0
LINE
  8
0
 10
69.2641
 20
2.84273
 11
69.1459
 21
2.80016
  0
LINE
  8
0
 10
69.1459
 20
2.80016
 11
69.0252
 21
2.76511
  0
LINE
  8
0
 10
69.0252
 20
2.76511
 11
68.9026
 21
2.7377
  0
LINE
  8
0
 10
68.9026
 20
2.7377
 11
68.7785
 21
2.71805
  0
LINE
  8
0
 10
68.7785
 20
2.71805
 11
68.6534
 21
2.70622
  0
LINE
  8
0
 10
68.6534
 20
2.70622
 11
68.5279
 21
2.70227
  0
LINE
  8
0
 10
68.5279
 20
2.70227
 11
68.4023
 21
2.70622
  0
ENDSEC
  0
SECTION
  2
OBJECTS
  0
DICTIONARY
  0
ENDSEC
  0
EOF
