  0
SECTION
  2
BLOCKS
  0
ENDSEC
  0
SECTION
  2
ENTITIES
  0
LINE
  8
0
 10
0
 20
230.826
 11
-75
 21
0
  0
LINE
  8
0
 10
-75
 20
0
 11
75
 21
0
  0
LINE
  8
0
 10
75
 20
0
 11
0
 21
230.826
  0
LINE
  8
0
 10
-0.12558
 20
212.83
 11
-0.250656
 21
212.842
  0
LINE
  8
0
 10
-0.250656
 20
212.842
 11
-0.374756
 21
212.862
  0
LINE
  8
0
 10
-0.374756
 20
212.862
 11
-0.497375
 21
212.889
  0
LINE
  8
0
 10
-0.497375
 20
212.889
 11
-0.618027
 21
212.924
  0
LINE
  8
0
 10
-0.618027
 20
212.924
 11
-0.736237
 21
212.967
  0
LINE
  8
0
 10
-0.736237
 20
212.967
 11
-0.851547
 21
213.017
  0
LINE
  8
0
 10
-0.851547
 20
213.017
 11
-0.963501
 21
213.074
  0
LINE
  8
0
 10
-0.963501
 20
213.074
 11
-1.07164
 21
213.138
  0
LINE
  8
0
 10
-1.07164
 20
213.138
 11
-1.17557
 21
213.208
  0
LINE
  8
0
 10
-1.17557
 20
213.208
 11
-1.27484
 21
213.285
  0
LINE
  8
0
 10
-1.27484
 20
213.285
 11
-1.36908
 21
213.368
  0
LINE
  8
0
 10
-1.36908
 20
213.368
 11
-1.45793
 21
213.457
  0
LINE
  8
0
 10
-1.45793
 20
213.457
 11
-1.54102
 21
213.551
  0
LINE
  8
0
 10
-1.54102
 20
213.551
 11
-1.61803
 21
213.651
  0
LINE
  8
0
 10
-1.61803
 20
213.651
 11
-1.68864
 21
213.755
  0
LINE
  8
0
 10
-1.68864
 20
213.755
 11
-1.75261
 21
213.863
  0
LINE
  8
0
 10
-1.75261
 20
213.863
 11
-1.80965
 21
213.975
  0
LINE
  8
0
 10
-1.80965
 20
213.975
 11
-1.85954
 21
214.09
  0
LINE
  8
0
 10
-1.85954
 20
214.09
 11
-1.9021
 21
214.208
  0
LINE
  8
0
 10
-1.9021
 20
214.208
 11
-1.93716
 21
214.329
  0
LINE
  8
0
 10
-1.93716
 20
214.329
 11
-1.96457
 21
214.451
  0
LINE
  8
0
 10
-1.96457
 20
214.451
 11
-1.98422
 21
214.576
  0
LINE
  8
0
 10
-1.98422
 20
214.576
 11
-1.99605
 21
214.701
  0
LINE
  8
0
 10
-1.99605
 20
214.701
 11
-2
 21
214.826
  0
LINE
  8
0
 10
-2
 20
214.826
 11
-1.99605
 21
214.952
  0
LINE
  8
0
 10
-1.99605
 20
214.952
 11
-1.98422
 21
215.077
  0
LINE
  8
0
 10
-1.98422
 20
215.077
 11
-1.96457
 21
215.201
  0
LINE
  8
0
 10
-1.96457
 20
215.201
 11
-1.93716
 21
215.324
  0
LINE
  8
0
 10
-1.93716
 20
215.324
 11
-1.9021
 21
215.444
  0
LINE
  8
0
 10
-1.9021
 20
215.444
 11
-1.85954
 21
215.562
  0
LINE
  8
0
 10
-1.85954
 20
215.562
 11
-1.80965
 21
215.678
  0
LINE
  8
0
 10
-1.80965
 20
215.678
 11
-1.75261
 21
215.79
  0
LINE
  8
0
 10
-1.75261
 20
215.79
 11
-1.68864
 21
215.898
  0
LINE
  8
0
 10
-1.68864
 20
215.898
 11
-1.61803
 21
216.002
  0
LINE
  8
0
 10
-1.61803
 20
216.002
 11
-1.54102
 21
216.101
  0
LINE
  8
0
 10
-1.54102
 20
216.101
 11
-1.45793
 21
216.195
  0
LINE
  8
0
 10
-1.45793
 20
216.195
 11
-1.36908
 21
216.284
  0
LINE
  8
0
 10
-1.36908
 20
216.284
 11
-1.27484
 21
216.367
  0
LINE
  8
0
 10
-1.27484
 20
216.367
 11
-1.17557
 21
216.444
  0
LINE
  8
0
 10
-1.17557
 20
216.444
 11
-1.07164
 21
216.515
  0
LINE
  8
0
 10
-1.07164
 20
216.515
 11
-0.963501
 21
216.579
  0
LINE
  8
0
 10
-0.963501
 20
216.579
 11
-0.851547
 21
216.636
  0
LINE
  8
0
 10
-0.851547
 20
216.636
 11
-0.736237
 21
216.686
  0
LINE
  8
0
 10
-0.736237
 20
216.686
 11
-0.618027
 21
216.728
  0
LINE
  8
0
 10
-0.618027
 20
216.728
 11
-0.497375
 21
216.763
  0
LINE
  8
0
 10
-0.497375
 20
216.763
 11
-0.374756
 21
216.791
  0
LINE
  8
0
 10
-0.374756
 20
216.791
 11
-0.250656
 21
216.81
  0
LINE
  8
0
 10
-0.250656
 20
216.81
 11
-0.12558
 21
216.822
  0
LINE
  8
0
 10
-0.12558
 20
216.822
 11
0
 21
216.826
  0
LINE
  8
0
 10
0
 20
216.826
 11
0.12558
 21
216.822
  0
LINE
  8
0
 10
0.12558
 20
216.822
 11
0.250656
 21
216.81
  0
LINE
  8
0
 10
0.250656
 20
216.81
 11
0.374756
 21
216.791
  0
LINE
  8
0
 10
0.374756
 20
216.791
 11
0.497375
 21
216.763
  0
LINE
  8
0
 10
0.497375
 20
216.763
 11
0.618027
 21
216.728
  0
LINE
  8
0
 10
0.618027
 20
216.728
 11
0.736237
 21
216.686
  0
LINE
  8
0
 10
0.736237
 20
216.686
 11
0.851547
 21
216.636
  0
LINE
  8
0
 10
0.851547
 20
216.636
 11
0.963501
 21
216.579
  0
LINE
  8
0
 10
0.963501
 20
216.579
 11
1.07164
 21
216.515
  0
LINE
  8
0
 10
1.07164
 20
216.515
 11
1.17557
 21
216.444
  0
LINE
  8
0
 10
1.17557
 20
216.444
 11
1.27484
 21
216.367
  0
LINE
  8
0
 10
1.27484
 20
216.367
 11
1.36908
 21
216.284
  0
LINE
  8
0
 10
1.36908
 20
216.284
 11
1.45793
 21
216.195
  0
LINE
  8
0
 10
1.45793
 20
216.195
 11
1.54102
 21
216.101
  0
LINE
  8
0
 10
1.54102
 20
216.101
 11
1.61803
 21
216.002
  0
LINE
  8
0
 10
1.61803
 20
216.002
 11
1.68864
 21
215.898
  0
LINE
  8
0
 10
1.68864
 20
215.898
 11
1.75261
 21
215.79
  0
LINE
  8
0
 10
1.75261
 20
215.79
 11
1.80965
 21
215.678
  0
LINE
  8
0
 10
1.80965
 20
215.678
 11
1.85954
 21
215.562
  0
LINE
  8
0
 10
1.85954
 20
215.562
 11
1.9021
 21
215.444
  0
LINE
  8
0
 10
1.9021
 20
215.444
 11
1.93716
 21
215.324
  0
LINE
  8
0
 10
1.93716
 20
215.324
 11
1.96457
 21
215.201
  0
LINE
  8
0
 10
1.96457
 20
215.201
 11
1.98422
 21
215.077
  0
LINE
  8
0
 10
1.98422
 20
215.077
 11
1.99605
 21
214.952
  0
LINE
  8
0
 10
1.99605
 20
214.952
 11
2
 21
214.826
  0
LINE
  8
0
 10
2
 20
214.826
 11
1.99605
 21
214.701
  0
LINE
  8
0
 10
1.99605
 20
214.701
 11
1.98422
 21
214.576
  0
LINE
  8
0
 10
1.98422
 20
214.576
 11
1.96457
 21
214.451
  0
LINE
  8
0
 10
1.96457
 20
214.451
 11
1.93716
 21
214.329
  0
LINE
  8
0
 10
1.93716
 20
214.329
 11
1.9021
 21
214.208
  0
LINE
  8
0
 10
1.9021
 20
214.208
 11
1.85954
 21
214.09
  0
LINE
  8
0
 10
1.85954
 20
214.09
 11
1.80965
 21
213.975
  0
LINE
  8
0
 10
1.80965
 20
213.975
 11
1.75261
 21
213.863
  0
LINE
  8
0
 10
1.75261
 20
213.863
 11
1.68864
 21
213.755
  0
LINE
  8
0
 10
1.68864
 20
213.755
 11
1.61803
 21
213.651
  0
LINE
  8
0
 10
1.61803
 20
213.651
 11
1.54102
 21
213.551
  0
LINE
  8
0
 10
1.54102
 20
213.551
 11
1.45793
 21
213.457
  0
LINE
  8
0
 10
1.45793
 20
213.457
 11
1.36908
 21
213.368
  0
LINE
  8
0
 10
1.36908
 20
213.368
 11
1.27484
 21
213.285
  0
LINE
  8
0
 10
1.27484
 20
213.285
 11
1.17557
 21
213.208
  0
LINE
  8
0
 10
1.17557
 20
213.208
 11
1.07164
 21
213.138
  0
LINE
  8
0
 10
1.07164
 20
213.138
 11
0.963501
 21
213.074
  0
LINE
  8
0
 10
0.963501
 20
213.074
 11
0.851547
 21
213.017
  0
LINE
  8
0
 10
0.851547
 20
213.017
 11
0.736237
 21
212.967
  0
LINE
  8
0
 10
0.736237
 20
212.967
 11
0.618027
 21
212.924
  0
LINE
  8
0
 10
0.618027
 20
212.924
 11
0.497375
 21
212.889
  0
LINE
  8
0
 10
0.497375
 20
212.889
 11
0.374756
 21
212.862
  0
LINE
  8
0
 10
0.374756
 20
212.862
 11
0.250656
 21
212.842
  0
LINE
  8
0
 10
0.250656
 20
212.842
 11
0.12558
 21
212.83
  0
LINE
  8
0
 10
0.12558
 20
212.83
 11
0
 21
212.826
  0
LINE
  8
0
 10
0
 20
212.826
 11
-0.12558
 21
212.83
  0
LINE
  8
0
 10
0
 20
191.993
 11
0
 21
185.26
  0
LINE
  8
0
 10
0
 20
185.26
 11
-3.66023
 21
180.728
  0
LINE
  8
0
 10
-3.66023
 20
180.728
 11
0
 21
191.993
  0
LINE
  8
0
 10
0.033371
 20
164.219
 11
0
 21
164.218
  0
LINE
  8
0
 10
0
 20
164.218
 11
0
 21
183.958
  0
LINE
  8
0
 10
0
 20
183.958
 11
4.34546
 21
178.62
  0
LINE
  8
0
 10
4.34546
 20
178.62
 11
4.40982
 21
178.421
  0
LINE
  8
0
 10
4.40982
 20
178.421
 11
4.40982
 21
164.261
  0
LINE
  8
0
 10
4.40982
 20
164.261
 11
4.343
 21
164.26
  0
LINE
  8
0
 10
4.343
 20
164.26
 11
4.40982
 21
164.26
  0
LINE
  8
0
 10
4.40982
 20
164.26
 11
4.40982
 21
158.8
  0
LINE
  8
0
 10
4.40982
 20
158.8
 11
0.033371
 21
164.219
  0
LINE
  8
0
 10
-6.08954
 20
159.849
 11
-6.08954
 21
173.252
  0
LINE
  8
0
 10
-6.08954
 20
173.252
 11
-4.40982
 21
178.421
  0
LINE
  8
0
 10
-4.40982
 20
178.421
 11
-4.40982
 21
159.849
  0
LINE
  8
0
 10
-4.40982
 20
159.849
 11
-6.08954
 21
159.849
  0
LINE
  8
0
 10
6.08954
 20
164.26
 11
6.15637
 21
164.26
  0
LINE
  8
0
 10
6.15637
 20
164.26
 11
6.08954
 21
164.261
  0
LINE
  8
0
 10
6.08954
 20
164.261
 11
6.08954
 21
173.252
  0
LINE
  8
0
 10
6.08954
 20
173.252
 11
9.43826
 21
162.945
  0
LINE
  8
0
 10
9.43826
 20
162.945
 11
6.08954
 21
158.8
  0
LINE
  8
0
 10
6.08954
 20
158.8
 11
6.08954
 21
164.26
  0
LINE
  8
0
 10
-4.40982
 20
157.54
 11
0
 21
163
  0
LINE
  8
0
 10
0
 20
163
 11
0
 21
143.26
  0
LINE
  8
0
 10
0
 20
143.26
 11
-4.40982
 21
137.8
  0
LINE
  8
0
 10
-4.40982
 20
137.8
 11
-4.40982
 21
157.54
  0
LINE
  8
0
 10
-10.5
 20
143.26
 11
-10.5
 21
159.678
  0
LINE
  8
0
 10
-10.5
 20
159.678
 11
-9.73019
 21
162.047
  0
LINE
  8
0
 10
-9.73019
 20
162.047
 11
-6.08954
 21
157.54
  0
LINE
  8
0
 10
-6.08954
 20
157.54
 11
-6.08954
 21
137.8
  0
LINE
  8
0
 10
-6.08954
 20
137.8
 11
-10.5
 21
143.26
  0
LINE
  8
0
 10
10.5
 20
143.26
 11
10.5
 21
159.678
  0
LINE
  8
0
 10
10.5
 20
159.678
 11
14.9105
 21
146.104
  0
LINE
  8
0
 10
14.9105
 20
146.104
 11
14.9105
 21
137.8
  0
LINE
  8
0
 10
14.9105
 20
137.8
 11
10.5
 21
143.26
  0
LINE
  8
0
 10
4.40982
 20
138.85
 11
4.40982
 21
157.75
  0
LINE
  8
0
 10
4.40982
 20
157.75
 11
6.08954
 21
157.75
  0
LINE
  8
0
 10
6.08954
 20
157.75
 11
6.08954
 21
138.85
  0
LINE
  8
0
 10
6.08954
 20
138.85
 11
4.40982
 21
138.85
  0
LINE
  8
0
 10
-16.5902
 20
138.85
 11
-16.5902
 21
140.934
  0
LINE
  8
0
 10
-16.5902
 20
140.934
 11
-14.9105
 21
146.104
  0
LINE
  8
0
 10
-14.9105
 20
146.104
 11
-14.9105
 21
138.85
  0
LINE
  8
0
 10
-14.9105
 20
138.85
 11
-16.5902
 21
138.85
  0
LINE
  8
0
 10
-14.9105
 20
122.26
 11
-14.8436
 21
122.26
  0
LINE
  8
0
 10
-14.8436
 20
122.26
 11
-14.9105
 21
122.261
  0
LINE
  8
0
 10
-14.9105
 20
122.261
 11
-14.9105
 21
136.54
  0
LINE
  8
0
 10
-14.9105
 20
136.54
 11
-10.5
 21
141.958
  0
LINE
  8
0
 10
-10.5
 20
141.958
 11
-10.5
 21
122.218
  0
LINE
  8
0
 10
-10.5
 20
122.218
 11
-10.5334
 21
122.219
  0
LINE
  8
0
 10
-10.5334
 20
122.219
 11
-14.9105
 21
116.8
  0
LINE
  8
0
 10
-14.9105
 20
116.8
 11
-14.9105
 21
122.26
  0
LINE
  8
0
 10
0.033371
 20
122.219
 11
0
 21
122.218
  0
LINE
  8
0
 10
0
 20
122.218
 11
0
 21
141.958
  0
LINE
  8
0
 10
0
 20
141.958
 11
4.40982
 21
136.54
  0
LINE
  8
0
 10
4.40982
 20
136.54
 11
4.40982
 21
122.261
  0
LINE
  8
0
 10
4.40982
 20
122.261
 11
4.343
 21
122.26
  0
LINE
  8
0
 10
4.343
 20
122.26
 11
4.40982
 21
122.26
  0
LINE
  8
0
 10
4.40982
 20
122.26
 11
4.40982
 21
116.8
  0
LINE
  8
0
 10
4.40982
 20
116.8
 11
0.033371
 21
122.219
  0
LINE
  8
0
 10
6.08954
 20
122.26
 11
6.15637
 21
122.26
  0
LINE
  8
0
 10
6.15637
 20
122.26
 11
6.08954
 21
122.261
  0
LINE
  8
0
 10
6.08954
 20
122.261
 11
6.08954
 21
136.54
  0
LINE
  8
0
 10
6.08954
 20
136.54
 11
10.5
 21
141.958
  0
LINE
  8
0
 10
10.5
 20
141.958
 11
10.5
 21
122.218
  0
LINE
  8
0
 10
10.5
 20
122.218
 11
10.4666
 21
122.219
  0
LINE
  8
0
 10
10.4666
 20
122.219
 11
6.08954
 21
116.8
  0
LINE
  8
0
 10
6.08954
 20
116.8
 11
6.08954
 21
122.26
  0
LINE
  8
0
 10
16.5902
 20
140.934
 11
17.3163
 21
138.699
  0
LINE
  8
0
 10
17.3163
 20
138.699
 11
16.5902
 21
137.8
  0
LINE
  8
0
 10
16.5902
 20
137.8
 11
16.5902
 21
140.934
  0
LINE
  8
0
 10
-20.9666
 20
122.219
 11
-21
 21
122.218
  0
LINE
  8
0
 10
-21
 20
122.218
 11
-21
 21
127.362
  0
LINE
  8
0
 10
-21
 20
127.362
 11
-17.6105
 21
137.794
  0
LINE
  8
0
 10
-17.6105
 20
137.794
 11
-16.5902
 21
136.54
  0
LINE
  8
0
 10
-16.5902
 20
136.54
 11
-16.5902
 21
122.261
  0
LINE
  8
0
 10
-16.5902
 20
122.261
 11
-16.657
 21
122.26
  0
LINE
  8
0
 10
-16.657
 20
122.26
 11
-16.5902
 21
122.26
  0
LINE
  8
0
 10
-16.5902
 20
122.26
 11
-16.5902
 21
116.8
  0
LINE
  8
0
 10
-16.5902
 20
116.8
 11
-20.9666
 21
122.219
  0
LINE
  8
0
 10
14.9105
 20
117.849
 11
14.9105
 21
136.75
  0
LINE
  8
0
 10
14.9105
 20
136.75
 11
16.5902
 21
136.75
  0
LINE
  8
0
 10
16.5902
 20
136.75
 11
16.5902
 21
117.849
  0
LINE
  8
0
 10
16.5902
 20
117.849
 11
14.9105
 21
117.849
  0
LINE
  8
0
 10
-6.08954
 20
117.849
 11
-6.08954
 21
136.75
  0
LINE
  8
0
 10
-6.08954
 20
136.75
 11
-4.40982
 21
136.75
  0
LINE
  8
0
 10
-4.40982
 20
136.75
 11
-4.40982
 21
117.849
  0
LINE
  8
0
 10
-4.40982
 20
117.849
 11
-6.08954
 21
117.849
  0
LINE
  8
0
 10
21.0334
 20
122.219
 11
21
 21
122.218
  0
LINE
  8
0
 10
21
 20
122.218
 11
21
 21
127.362
  0
LINE
  8
0
 10
21
 20
127.362
 11
23.7737
 21
118.826
  0
LINE
  8
0
 10
23.7737
 20
118.826
 11
21.0334
 21
122.219
  0
LINE
  8
0
 10
-25.4098
 20
113.79
 11
-24.4586
 21
116.718
  0
LINE
  8
0
 10
-24.4586
 20
116.718
 11
-21
 21
121
  0
LINE
  8
0
 10
-21
 20
121
 11
-21
 21
101.26
  0
LINE
  8
0
 10
-21
 20
101.26
 11
-25.4098
 21
95.8004
  0
LINE
  8
0
 10
-25.4098
 20
95.8004
 11
-25.4098
 21
113.79
  0
LINE
  8
0
 10
16.5902
 20
115.54
 11
21
 21
121
  0
LINE
  8
0
 10
21
 20
121
 11
21
 21
101.26
  0
LINE
  8
0
 10
21
 20
101.26
 11
16.5902
 21
95.8004
  0
LINE
  8
0
 10
16.5902
 20
95.8004
 11
16.5902
 21
115.54
  0
LINE
  8
0
 10
-10.5
 20
101.26
 11
-10.5
 21
121
  0
LINE
  8
0
 10
-10.5
 20
121
 11
-6.08954
 21
115.54
  0
LINE
  8
0
 10
-6.08954
 20
115.54
 11
-6.08954
 21
95.8004
  0
LINE
  8
0
 10
-6.08954
 20
95.8004
 11
-10.5
 21
101.26
  0
LINE
  8
0
 10
-4.40982
 20
115.54
 11
0
 21
121
  0
LINE
  8
0
 10
0
 20
121
 11
0
 21
101.26
  0
LINE
  8
0
 10
0
 20
101.26
 11
-4.40982
 21
95.8004
  0
LINE
  8
0
 10
-4.40982
 20
95.8004
 11
-4.40982
 21
115.54
  0
LINE
  8
0
 10
10.5
 20
101.26
 11
10.5
 21
121
  0
LINE
  8
0
 10
10.5
 20
121
 11
14.9105
 21
115.54
  0
LINE
  8
0
 10
14.9105
 20
115.54
 11
14.9105
 21
95.8004
  0
LINE
  8
0
 10
14.9105
 20
95.8004
 11
10.5
 21
101.26
  0
LINE
  8
0
 10
4.40982
 20
96.8501
 11
4.40982
 21
115.75
  0
LINE
  8
0
 10
4.40982
 20
115.75
 11
6.08954
 21
115.75
  0
LINE
  8
0
 10
6.08954
 20
115.75
 11
6.08954
 21
96.8501
  0
LINE
  8
0
 10
6.08954
 20
96.8501
 11
4.40982
 21
96.8501
  0
LINE
  8
0
 10
-16.5902
 20
96.8501
 11
-16.5902
 21
115.75
  0
LINE
  8
0
 10
-16.5902
 20
115.75
 11
-14.9105
 21
115.75
  0
LINE
  8
0
 10
-14.9105
 20
115.75
 11
-14.9105
 21
96.8501
  0
LINE
  8
0
 10
-14.9105
 20
96.8501
 11
-16.5902
 21
96.8501
  0
LINE
  8
0
 10
25.4098
 20
96.8501
 11
25.4098
 21
113.79
  0
LINE
  8
0
 10
25.4098
 20
113.79
 11
27.0895
 21
108.62
  0
LINE
  8
0
 10
27.0895
 20
108.62
 11
27.0895
 21
96.8501
  0
LINE
  8
0
 10
27.0895
 20
96.8501
 11
25.4098
 21
96.8501
  0
LINE
  8
0
 10
-30.0602
 20
99.4777
 11
-27.0895
 21
108.62
  0
LINE
  8
0
 10
-27.0895
 20
108.62
 11
-27.0895
 21
95.8004
  0
LINE
  8
0
 10
-27.0895
 20
95.8004
 11
-30.0602
 21
99.4777
  0
LINE
  8
0
 10
0.033371
 20
80.2186
 11
0
 21
80.2183
  0
LINE
  8
0
 10
0
 20
80.2183
 11
0
 21
99.9583
  0
LINE
  8
0
 10
0
 20
99.9583
 11
4.40982
 21
94.5404
  0
LINE
  8
0
 10
4.40982
 20
94.5404
 11
4.40982
 21
80.2606
  0
LINE
  8
0
 10
4.40982
 20
80.2606
 11
4.343
 21
80.2599
  0
LINE
  8
0
 10
4.343
 20
80.2599
 11
4.40982
 21
80.2599
  0
LINE
  8
0
 10
4.40982
 20
80.2599
 11
4.40982
 21
74.7997
  0
LINE
  8
0
 10
4.40982
 20
74.7997
 11
0.033371
 21
80.2186
  0
LINE
  8
0
 10
6.08954
 20
80.2599
 11
6.15637
 21
80.2599
  0
LINE
  8
0
 10
6.15637
 20
80.2599
 11
6.08954
 21
80.2606
  0
LINE
  8
0
 10
6.08954
 20
80.2606
 11
6.08954
 21
94.5404
  0
LINE
  8
0
 10
6.08954
 20
94.5404
 11
10.5
 21
99.9583
  0
LINE
  8
0
 10
10.5
 20
99.9583
 11
10.5
 21
80.2183
  0
LINE
  8
0
 10
10.5
 20
80.2183
 11
10.4666
 21
80.2186
  0
LINE
  8
0
 10
10.4666
 20
80.2186
 11
6.08954
 21
74.7997
  0
LINE
  8
0
 10
6.08954
 20
74.7997
 11
6.08954
 21
80.2599
  0
LINE
  8
0
 10
-20.9666
 20
80.2186
 11
-21
 21
80.2183
  0
LINE
  8
0
 10
-21
 20
80.2183
 11
-21
 21
99.9583
  0
LINE
  8
0
 10
-21
 20
99.9583
 11
-16.5902
 21
94.5404
  0
LINE
  8
0
 10
-16.5902
 20
94.5404
 11
-16.5902
 21
80.2606
  0
LINE
  8
0
 10
-16.5902
 20
80.2606
 11
-16.657
 21
80.2599
  0
LINE
  8
0
 10
-16.657
 20
80.2599
 11
-16.5902
 21
80.2599
  0
LINE
  8
0
 10
-16.5902
 20
80.2599
 11
-16.5902
 21
74.7997
  0
LINE
  8
0
 10
-16.5902
 20
74.7997
 11
-20.9666
 21
80.2186
  0
LINE
  8
0
 10
21.0334
 20
80.2186
 11
21
 21
80.2183
  0
LINE
  8
0
 10
21
 20
80.2183
 11
21
 21
99.9583
  0
LINE
  8
0
 10
21
 20
99.9583
 11
25.4098
 21
94.5404
  0
LINE
  8
0
 10
25.4098
 20
94.5404
 11
25.4098
 21
80.2606
  0
LINE
  8
0
 10
25.4098
 20
80.2606
 11
25.343
 21
80.2599
  0
LINE
  8
0
 10
25.343
 20
80.2599
 11
25.4098
 21
80.2599
  0
LINE
  8
0
 10
25.4098
 20
80.2599
 11
25.4098
 21
74.7997
  0
LINE
  8
0
 10
25.4098
 20
74.7997
 11
21.0334
 21
80.2186
  0
LINE
  8
0
 10
-14.9105
 20
80.2599
 11
-14.8436
 21
80.2599
  0
LINE
  8
0
 10
-14.8436
 20
80.2599
 11
-14.9105
 21
80.2606
  0
LINE
  8
0
 10
-14.9105
 20
80.2606
 11
-14.9105
 21
94.5404
  0
LINE
  8
0
 10
-14.9105
 20
94.5404
 11
-10.5
 21
99.9583
  0
LINE
  8
0
 10
-10.5
 20
99.9583
 11
-10.5
 21
80.2183
  0
LINE
  8
0
 10
-10.5
 20
80.2183
 11
-10.5334
 21
80.2186
  0
LINE
  8
0
 10
-10.5334
 20
80.2186
 11
-14.9105
 21
74.7997
  0
LINE
  8
0
 10
-14.9105
 20
74.7997
 11
-14.9105
 21
80.2599
  0
LINE
  8
0
 10
27.0895
 20
80.2599
 11
27.1564
 21
80.2599
  0
LINE
  8
0
 10
27.1564
 20
80.2599
 11
27.0895
 21
80.2606
  0
LINE
  8
0
 10
27.0895
 20
80.2606
 11
27.0895
 21
94.5404
  0
LINE
  8
0
 10
27.0895
 20
94.5404
 11
30.3593
 21
98.5571
  0
LINE
  8
0
 10
30.3593
 20
98.5571
 11
31.5
 21
95.0464
  0
LINE
  8
0
 10
31.5
 20
95.0464
 11
31.5
 21
80.2183
  0
LINE
  8
0
 10
31.5
 20
80.2183
 11
31.4666
 21
80.2186
  0
LINE
  8
0
 10
31.4666
 20
80.2186
 11
27.0895
 21
74.7997
  0
LINE
  8
0
 10
27.0895
 20
74.7997
 11
27.0895
 21
80.2599
  0
LINE
  8
0
 10
-35.9105
 20
80.2599
 11
-35.8436
 21
80.2599
  0
LINE
  8
0
 10
-35.8436
 20
80.2599
 11
-35.9105
 21
80.2606
  0
LINE
  8
0
 10
-35.9105
 20
80.2606
 11
-35.9105
 21
81.4724
  0
LINE
  8
0
 10
-35.9105
 20
81.4724
 11
-31.5
 21
95.0464
  0
LINE
  8
0
 10
-31.5
 20
95.0464
 11
-31.5
 21
80.2183
  0
LINE
  8
0
 10
-31.5
 20
80.2183
 11
-31.5334
 21
80.2186
  0
LINE
  8
0
 10
-31.5334
 20
80.2186
 11
-35.9105
 21
74.7997
  0
LINE
  8
0
 10
-35.9105
 20
74.7997
 11
-35.9105
 21
80.2599
  0
LINE
  8
0
 10
-6.08954
 20
75.8495
 11
-6.08954
 21
94.75
  0
LINE
  8
0
 10
-6.08954
 20
94.75
 11
-4.40982
 21
94.75
  0
LINE
  8
0
 10
-4.40982
 20
94.75
 11
-4.40982
 21
75.8495
  0
LINE
  8
0
 10
-4.40982
 20
75.8495
 11
-6.08954
 21
75.8495
  0
LINE
  8
0
 10
14.9105
 20
75.8495
 11
14.9105
 21
94.75
  0
LINE
  8
0
 10
14.9105
 20
94.75
 11
16.5902
 21
94.75
  0
LINE
  8
0
 10
16.5902
 20
94.75
 11
16.5902
 21
75.8495
  0
LINE
  8
0
 10
16.5902
 20
75.8495
 11
14.9105
 21
75.8495
  0
LINE
  8
0
 10
-27.0895
 20
75.8495
 11
-27.0895
 21
94.75
  0
LINE
  8
0
 10
-27.0895
 20
94.75
 11
-25.4098
 21
94.75
  0
LINE
  8
0
 10
-25.4098
 20
94.75
 11
-25.4098
 21
75.8495
  0
LINE
  8
0
 10
-25.4098
 20
75.8495
 11
-27.0895
 21
75.8495
  0
LINE
  8
0
 10
35.9105
 20
75.8495
 11
35.9105
 21
81.4724
  0
LINE
  8
0
 10
35.9105
 20
81.4724
 11
37.5902
 21
76.3028
  0
LINE
  8
0
 10
37.5902
 20
76.3028
 11
37.5902
 21
75.8495
  0
LINE
  8
0
 10
37.5902
 20
75.8495
 11
35.9105
 21
75.8495
  0
LINE
  8
0
 10
-10.5
 20
59.2599
 11
-10.5
 21
79
  0
LINE
  8
0
 10
-10.5
 20
79
 11
-6.08954
 21
73.5398
  0
LINE
  8
0
 10
-6.08954
 20
73.5398
 11
-6.08954
 21
53.8004
  0
LINE
  8
0
 10
-6.08954
 20
53.8004
 11
-10.5
 21
59.2599
  0
LINE
  8
0
 10
-31.5
 20
59.2599
 11
-31.5
 21
79
  0
LINE
  8
0
 10
-31.5
 20
79
 11
-27.0895
 21
73.5398
  0
LINE
  8
0
 10
-27.0895
 20
73.5398
 11
-27.0895
 21
53.8004
  0
LINE
  8
0
 10
-27.0895
 20
53.8004
 11
-31.5
 21
59.2599
  0
LINE
  8
0
 10
-25.4098
 20
73.5398
 11
-21
 21
79
  0
LINE
  8
0
 10
-21
 20
79
 11
-21
 21
59.2599
  0
LINE
  8
0
 10
-21
 20
59.2599
 11
-25.4098
 21
53.8004
  0
LINE
  8
0
 10
-25.4098
 20
53.8004
 11
-25.4098
 21
73.5398
  0
LINE
  8
0
 10
-4.40982
 20
73.5398
 11
0
 21
79
  0
LINE
  8
0
 10
0
 20
79
 11
0
 21
59.2599
  0
LINE
  8
0
 10
0
 20
59.2599
 11
-4.40982
 21
53.8004
  0
LINE
  8
0
 10
-4.40982
 20
53.8004
 11
-4.40982
 21
73.5398
  0
LINE
  8
0
 10
31.5
 20
59.2599
 11
31.5
 21
79
  0
LINE
  8
0
 10
31.5
 20
79
 11
35.9105
 21
73.5398
  0
LINE
  8
0
 10
35.9105
 20
73.5398
 11
35.9105
 21
53.8004
  0
LINE
  8
0
 10
35.9105
 20
53.8004
 11
31.5
 21
59.2599
  0
LINE
  8
0
 10
10.5
 20
59.2599
 11
10.5
 21
79
  0
LINE
  8
0
 10
10.5
 20
79
 11
14.9105
 21
73.5398
  0
LINE
  8
0
 10
14.9105
 20
73.5398
 11
14.9105
 21
53.8004
  0
LINE
  8
0
 10
14.9105
 20
53.8004
 11
10.5
 21
59.2599
  0
LINE
  8
0
 10
16.5902
 20
73.5398
 11
21
 21
79
  0
LINE
  8
0
 10
21
 20
79
 11
21
 21
59.2599
  0
LINE
  8
0
 10
21
 20
59.2599
 11
16.5902
 21
53.8004
  0
LINE
  8
0
 10
16.5902
 20
53.8004
 11
16.5902
 21
73.5398
  0
LINE
  8
0
 10
-37.9384
 20
75.2309
 11
-37.5902
 21
76.3028
  0
LINE
  8
0
 10
-37.5902
 20
76.3028
 11
-37.5902
 21
74.7997
  0
LINE
  8
0
 10
-37.5902
 20
74.7997
 11
-37.9384
 21
75.2309
  0
LINE
  8
0
 10
37.5902
 20
73.5398
 11
38.2304
 21
74.3325
  0
LINE
  8
0
 10
38.2304
 20
74.3325
 11
42
 21
62.7307
  0
LINE
  8
0
 10
42
 20
62.7307
 11
42
 21
59.2599
  0
LINE
  8
0
 10
42
 20
59.2599
 11
37.5902
 21
53.8004
  0
LINE
  8
0
 10
37.5902
 20
53.8004
 11
37.5902
 21
73.5398
  0
LINE
  8
0
 10
4.40982
 20
54.8501
 11
4.40982
 21
73.75
  0
LINE
  8
0
 10
4.40982
 20
73.75
 11
6.08954
 21
73.75
  0
LINE
  8
0
 10
6.08954
 20
73.75
 11
6.08954
 21
54.8501
  0
LINE
  8
0
 10
6.08954
 20
54.8501
 11
4.40982
 21
54.8501
  0
LINE
  8
0
 10
-16.5902
 20
54.8501
 11
-16.5902
 21
73.75
  0
LINE
  8
0
 10
-16.5902
 20
73.75
 11
-14.9105
 21
73.75
  0
LINE
  8
0
 10
-14.9105
 20
73.75
 11
-14.9105
 21
54.8501
  0
LINE
  8
0
 10
-14.9105
 20
54.8501
 11
-16.5902
 21
54.8501
  0
LINE
  8
0
 10
25.4098
 20
54.8501
 11
25.4098
 21
73.75
  0
LINE
  8
0
 10
25.4098
 20
73.75
 11
27.0895
 21
73.75
  0
LINE
  8
0
 10
27.0895
 20
73.75
 11
27.0895
 21
54.8501
  0
LINE
  8
0
 10
27.0895
 20
54.8501
 11
25.4098
 21
54.8501
  0
LINE
  8
0
 10
-37.5902
 20
54.8501
 11
-37.5902
 21
73.75
  0
LINE
  8
0
 10
-37.5902
 20
73.75
 11
-35.9105
 21
73.75
  0
LINE
  8
0
 10
-35.9105
 20
73.75
 11
-35.9105
 21
54.8501
  0
LINE
  8
0
 10
-35.9105
 20
54.8501
 11
-37.5902
 21
54.8501
  0
LINE
  8
0
 10
-42
 20
62.7307
 11
-42
 21
59.2599
  0
LINE
  8
0
 10
-42
 20
59.2599
 11
-43.8867
 21
56.9242
  0
LINE
  8
0
 10
-43.8867
 20
56.9242
 11
-42
 21
62.7307
  0
LINE
  8
0
 10
6.08954
 20
38.2599
 11
6.15637
 21
38.2599
  0
LINE
  8
0
 10
6.15637
 20
38.2599
 11
6.08954
 21
38.2606
  0
LINE
  8
0
 10
6.08954
 20
38.2606
 11
6.08954
 21
52.5404
  0
LINE
  8
0
 10
6.08954
 20
52.5404
 11
10.5
 21
57.9583
  0
LINE
  8
0
 10
10.5
 20
57.9583
 11
10.5
 21
38.2183
  0
LINE
  8
0
 10
10.5
 20
38.2183
 11
10.4666
 21
38.2186
  0
LINE
  8
0
 10
10.4666
 20
38.2186
 11
6.08954
 21
32.7997
  0
LINE
  8
0
 10
6.08954
 20
32.7997
 11
6.08954
 21
38.2599
  0
LINE
  8
0
 10
-14.9105
 20
38.2599
 11
-14.8436
 21
38.2599
  0
LINE
  8
0
 10
-14.8436
 20
38.2599
 11
-14.9105
 21
38.2606
  0
LINE
  8
0
 10
-14.9105
 20
38.2606
 11
-14.9105
 21
52.5404
  0
LINE
  8
0
 10
-14.9105
 20
52.5404
 11
-10.5
 21
57.9583
  0
LINE
  8
0
 10
-10.5
 20
57.9583
 11
-10.5
 21
38.2183
  0
LINE
  8
0
 10
-10.5
 20
38.2183
 11
-10.5334
 21
38.2186
  0
LINE
  8
0
 10
-10.5334
 20
38.2186
 11
-14.9105
 21
32.7997
  0
LINE
  8
0
 10
-14.9105
 20
32.7997
 11
-14.9105
 21
38.2599
  0
LINE
  8
0
 10
21.0334
 20
38.2186
 11
21
 21
38.2183
  0
LINE
  8
0
 10
21
 20
38.2183
 11
21
 21
57.9583
  0
LINE
  8
0
 10
21
 20
57.9583
 11
25.4098
 21
52.5404
  0
LINE
  8
0
 10
25.4098
 20
52.5404
 11
25.4098
 21
38.2606
  0
LINE
  8
0
 10
25.4098
 20
38.2606
 11
25.343
 21
38.2599
  0
LINE
  8
0
 10
25.343
 20
38.2599
 11
25.4098
 21
38.2599
  0
LINE
  8
0
 10
25.4098
 20
38.2599
 11
25.4098
 21
32.7997
  0
LINE
  8
0
 10
25.4098
 20
32.7997
 11
21.0334
 21
38.2186
  0
LINE
  8
0
 10
0.033371
 20
38.2186
 11
0
 21
38.2183
  0
LINE
  8
0
 10
0
 20
38.2183
 11
0
 21
57.9583
  0
LINE
  8
0
 10
0
 20
57.9583
 11
4.40982
 21
52.5404
  0
LINE
  8
0
 10
4.40982
 20
52.5404
 11
4.40982
 21
38.2606
  0
LINE
  8
0
 10
4.40982
 20
38.2606
 11
4.343
 21
38.2599
  0
LINE
  8
0
 10
4.343
 20
38.2599
 11
4.40982
 21
38.2599
  0
LINE
  8
0
 10
4.40982
 20
38.2599
 11
4.40982
 21
32.7997
  0
LINE
  8
0
 10
4.40982
 20
32.7997
 11
0.033371
 21
38.2186
  0
LINE
  8
0
 10
-35.9105
 20
38.2599
 11
-35.8436
 21
38.2599
  0
LINE
  8
0
 10
-35.8436
 20
38.2599
 11
-35.9105
 21
38.2606
  0
LINE
  8
0
 10
-35.9105
 20
38.2606
 11
-35.9105
 21
52.5404
  0
LINE
  8
0
 10
-35.9105
 20
52.5404
 11
-31.5
 21
57.9583
  0
LINE
  8
0
 10
-31.5
 20
57.9583
 11
-31.5
 21
38.2183
  0
LINE
  8
0
 10
-31.5
 20
38.2183
 11
-31.5334
 21
38.2186
  0
LINE
  8
0
 10
-31.5334
 20
38.2186
 11
-35.9105
 21
32.7997
  0
LINE
  8
0
 10
-35.9105
 20
32.7997
 11
-35.9105
 21
38.2599
  0
LINE
  8
0
 10
-41.9666
 20
38.2186
 11
-42
 21
38.2183
  0
LINE
  8
0
 10
-42
 20
38.2183
 11
-42
 21
57.9583
  0
LINE
  8
0
 10
-42
 20
57.9583
 11
-37.5902
 21
52.5404
  0
LINE
  8
0
 10
-37.5902
 20
52.5404
 11
-37.5902
 21
38.2606
  0
LINE
  8
0
 10
-37.5902
 20
38.2606
 11
-37.657
 21
38.2599
  0
LINE
  8
0
 10
-37.657
 20
38.2599
 11
-37.5902
 21
38.2599
  0
LINE
  8
0
 10
-37.5902
 20
38.2599
 11
-37.5902
 21
32.7997
  0
LINE
  8
0
 10
-37.5902
 20
32.7997
 11
-41.9666
 21
38.2186
  0
LINE
  8
0
 10
27.0895
 20
38.2599
 11
27.1564
 21
38.2599
  0
LINE
  8
0
 10
27.1564
 20
38.2599
 11
27.0895
 21
38.2606
  0
LINE
  8
0
 10
27.0895
 20
38.2606
 11
27.0895
 21
52.5404
  0
LINE
  8
0
 10
27.0895
 20
52.5404
 11
31.5
 21
57.9583
  0
LINE
  8
0
 10
31.5
 20
57.9583
 11
31.5
 21
38.2183
  0
LINE
  8
0
 10
31.5
 20
38.2183
 11
31.4666
 21
38.2186
  0
LINE
  8
0
 10
31.4666
 20
38.2186
 11
27.0895
 21
32.7997
  0
LINE
  8
0
 10
27.0895
 20
32.7997
 11
27.0895
 21
38.2599
  0
LINE
  8
0
 10
-20.9666
 20
38.2186
 11
-21
 21
38.2183
  0
LINE
  8
0
 10
-21
 20
38.2183
 11
-21
 21
57.9583
  0
LINE
  8
0
 10
-21
 20
57.9583
 11
-16.5902
 21
52.5404
  0
LINE
  8
0
 10
-16.5902
 20
52.5404
 11
-16.5902
 21
38.2606
  0
LINE
  8
0
 10
-16.5902
 20
38.2606
 11
-16.657
 21
38.2599
  0
LINE
  8
0
 10
-16.657
 20
38.2599
 11
-16.5902
 21
38.2599
  0
LINE
  8
0
 10
-16.5902
 20
38.2599
 11
-16.5902
 21
32.7997
  0
LINE
  8
0
 10
-16.5902
 20
32.7997
 11
-20.9666
 21
38.2186
  0
LINE
  8
0
 10
42.0334
 20
38.2186
 11
42
 21
38.2183
  0
LINE
  8
0
 10
42
 20
38.2183
 11
42
 21
57.9583
  0
LINE
  8
0
 10
42
 20
57.9583
 11
44.5809
 21
54.7874
  0
LINE
  8
0
 10
44.5809
 20
54.7874
 11
46.4098
 21
49.1587
  0
LINE
  8
0
 10
46.4098
 20
49.1587
 11
46.4098
 21
38.2606
  0
LINE
  8
0
 10
46.4098
 20
38.2606
 11
46.343
 21
38.2599
  0
LINE
  8
0
 10
46.343
 20
38.2599
 11
46.4098
 21
38.2599
  0
LINE
  8
0
 10
46.4098
 20
38.2599
 11
46.4098
 21
32.7997
  0
LINE
  8
0
 10
46.4098
 20
32.7997
 11
42.0334
 21
38.2186
  0
LINE
  8
0
 10
35.9105
 20
33.8495
 11
35.9105
 21
52.75
  0
LINE
  8
0
 10
35.9105
 20
52.75
 11
37.5902
 21
52.75
  0
LINE
  8
0
 10
37.5902
 20
52.75
 11
37.5902
 21
33.8495
  0
LINE
  8
0
 10
37.5902
 20
33.8495
 11
35.9105
 21
33.8495
  0
LINE
  8
0
 10
14.9105
 20
33.8495
 11
14.9105
 21
52.75
  0
LINE
  8
0
 10
14.9105
 20
52.75
 11
16.5902
 21
52.75
  0
LINE
  8
0
 10
16.5902
 20
52.75
 11
16.5902
 21
33.8495
  0
LINE
  8
0
 10
16.5902
 20
33.8495
 11
14.9105
 21
33.8495
  0
LINE
  8
0
 10
-27.0895
 20
33.8495
 11
-27.0895
 21
52.75
  0
LINE
  8
0
 10
-27.0895
 20
52.75
 11
-25.4098
 21
52.75
  0
LINE
  8
0
 10
-25.4098
 20
52.75
 11
-25.4098
 21
33.8495
  0
LINE
  8
0
 10
-25.4098
 20
33.8495
 11
-27.0895
 21
33.8495
  0
LINE
  8
0
 10
-6.08954
 20
33.8495
 11
-6.08954
 21
52.75
  0
LINE
  8
0
 10
-6.08954
 20
52.75
 11
-4.40982
 21
52.75
  0
LINE
  8
0
 10
-4.40982
 20
52.75
 11
-4.40982
 21
33.8495
  0
LINE
  8
0
 10
-4.40982
 20
33.8495
 11
-6.08954
 21
33.8495
  0
LINE
  8
0
 10
-48.0895
 20
33.8495
 11
-48.0895
 21
43.9891
  0
LINE
  8
0
 10
-48.0895
 20
43.9891
 11
-46.4098
 21
49.1587
  0
LINE
  8
0
 10
-46.4098
 20
49.1587
 11
-46.4098
 21
33.8495
  0
LINE
  8
0
 10
-46.4098
 20
33.8495
 11
-48.0895
 21
33.8495
  0
LINE
  8
0
 10
48.0895
 20
38.2599
 11
48.1564
 21
38.2599
  0
LINE
  8
0
 10
48.1564
 20
38.2599
 11
48.0895
 21
38.2606
  0
LINE
  8
0
 10
48.0895
 20
38.2606
 11
48.0895
 21
43.9891
  0
LINE
  8
0
 10
48.0895
 20
43.9891
 11
50.6823
 21
36.0095
  0
LINE
  8
0
 10
50.6823
 20
36.0095
 11
48.0895
 21
32.7997
  0
LINE
  8
0
 10
48.0895
 20
32.7997
 11
48.0895
 21
38.2599
  0
LINE
  8
0
 10
16.5902
 20
12
 11
16.5902
 21
31.5398
  0
LINE
  8
0
 10
16.5902
 20
31.5398
 11
21
 21
37
  0
LINE
  8
0
 10
21
 20
37
 11
21
 21
17.2599
  0
LINE
  8
0
 10
21
 20
17.2599
 11
16.7514
 21
12
  0
LINE
  8
0
 10
16.7514
 20
12
 11
16.5902
 21
12
  0
LINE
  8
0
 10
-25.4098
 20
12
 11
-25.4098
 21
31.5398
  0
LINE
  8
0
 10
-25.4098
 20
31.5398
 11
-21
 21
37
  0
LINE
  8
0
 10
-21
 20
37
 11
-21
 21
17.2599
  0
LINE
  8
0
 10
-21
 20
17.2599
 11
-25.2486
 21
12
  0
LINE
  8
0
 10
-25.2486
 20
12
 11
-25.4098
 21
12
  0
LINE
  8
0
 10
-27.2508
 20
12
 11
-31.5
 21
17.2599
  0
LINE
  8
0
 10
-31.5
 20
17.2599
 11
-31.5
 21
37
  0
LINE
  8
0
 10
-31.5
 20
37
 11
-27.0895
 21
31.5398
  0
LINE
  8
0
 10
-27.0895
 20
31.5398
 11
-27.0895
 21
12
  0
LINE
  8
0
 10
-27.0895
 20
12
 11
-27.2508
 21
12
  0
LINE
  8
0
 10
-46.4098
 20
12
 11
-46.4098
 21
31.5398
  0
LINE
  8
0
 10
-46.4098
 20
31.5398
 11
-42
 21
37
  0
LINE
  8
0
 10
-42
 20
37
 11
-42
 21
17.2599
  0
LINE
  8
0
 10
-42
 20
17.2599
 11
-46.2486
 21
12
  0
LINE
  8
0
 10
-46.2486
 20
12
 11
-46.4098
 21
12
  0
LINE
  8
0
 10
-6.25079
 20
12
 11
-10.5
 21
17.2599
  0
LINE
  8
0
 10
-10.5
 20
17.2599
 11
-10.5
 21
37
  0
LINE
  8
0
 10
-10.5
 20
37
 11
-6.08954
 21
31.5398
  0
LINE
  8
0
 10
-6.08954
 20
31.5398
 11
-6.08954
 21
12
  0
LINE
  8
0
 10
-6.08954
 20
12
 11
-6.25079
 21
12
  0
LINE
  8
0
 10
14.7492
 20
12
 11
10.5
 21
17.2599
  0
LINE
  8
0
 10
10.5
 20
17.2599
 11
10.5
 21
37
  0
LINE
  8
0
 10
10.5
 20
37
 11
14.9105
 21
31.5398
  0
LINE
  8
0
 10
14.9105
 20
31.5398
 11
14.9105
 21
12
  0
LINE
  8
0
 10
14.9105
 20
12
 11
14.7492
 21
12
  0
LINE
  8
0
 10
37.5902
 20
12
 11
37.5902
 21
31.5398
  0
LINE
  8
0
 10
37.5902
 20
31.5398
 11
42
 21
37
  0
LINE
  8
0
 10
42
 20
37
 11
42
 21
17.2599
  0
LINE
  8
0
 10
42
 20
17.2599
 11
37.7514
 21
12
  0
LINE
  8
0
 10
37.7514
 20
12
 11
37.5902
 21
12
  0
LINE
  8
0
 10
-4.40982
 20
12
 11
-4.40982
 21
31.5398
  0
LINE
  8
0
 10
-4.40982
 20
31.5398
 11
0
 21
37
  0
LINE
  8
0
 10
0
 20
37
 11
0
 21
17.2599
  0
LINE
  8
0
 10
0
 20
17.2599
 11
-4.24858
 21
12
  0
LINE
  8
0
 10
-4.24858
 20
12
 11
-4.40982
 21
12
  0
LINE
  8
0
 10
35.7492
 20
12
 11
31.5
 21
17.2599
  0
LINE
  8
0
 10
31.5
 20
17.2599
 11
31.5
 21
37
  0
LINE
  8
0
 10
31.5
 20
37
 11
35.9105
 21
31.5398
  0
LINE
  8
0
 10
35.9105
 20
31.5398
 11
35.9105
 21
12
  0
LINE
  8
0
 10
35.9105
 20
12
 11
35.7492
 21
12
  0
LINE
  8
0
 10
-48.2508
 20
12
 11
-52.5
 21
17.2599
  0
LINE
  8
0
 10
-52.5
 20
17.2599
 11
-52.5
 21
30.4151
  0
LINE
  8
0
 10
-52.5
 20
30.4151
 11
-50.9742
 21
35.111
  0
LINE
  8
0
 10
-50.9742
 20
35.111
 11
-48.0895
 21
31.5398
  0
LINE
  8
0
 10
-48.0895
 20
31.5398
 11
-48.0895
 21
12
  0
LINE
  8
0
 10
-48.0895
 20
12
 11
-48.2508
 21
12
  0
LINE
  8
0
 10
4.40982
 20
12.8501
 11
4.40982
 21
31.75
  0
LINE
  8
0
 10
4.40982
 20
31.75
 11
6.08954
 21
31.75
  0
LINE
  8
0
 10
6.08954
 20
31.75
 11
6.08954
 21
12.8501
  0
LINE
  8
0
 10
6.08954
 20
12.8501
 11
4.40982
 21
12.8501
  0
LINE
  8
0
 10
-16.5902
 20
12.8501
 11
-16.5902
 21
31.75
  0
LINE
  8
0
 10
-16.5902
 20
31.75
 11
-14.9105
 21
31.75
  0
LINE
  8
0
 10
-14.9105
 20
31.75
 11
-14.9105
 21
12.8501
  0
LINE
  8
0
 10
-14.9105
 20
12.8501
 11
-16.5902
 21
12.8501
  0
LINE
  8
0
 10
25.4098
 20
12.8501
 11
25.4098
 21
31.75
  0
LINE
  8
0
 10
25.4098
 20
31.75
 11
27.0895
 21
31.75
  0
LINE
  8
0
 10
27.0895
 20
31.75
 11
27.0895
 21
12.8501
  0
LINE
  8
0
 10
27.0895
 20
12.8501
 11
25.4098
 21
12.8501
  0
LINE
  8
0
 10
46.4098
 20
12.8501
 11
46.4098
 21
31.75
  0
LINE
  8
0
 10
46.4098
 20
31.75
 11
48.0895
 21
31.75
  0
LINE
  8
0
 10
48.0895
 20
31.75
 11
48.0895
 21
12.8501
  0
LINE
  8
0
 10
48.0895
 20
12.8501
 11
46.4098
 21
12.8501
  0
LINE
  8
0
 10
-37.5902
 20
12.8501
 11
-37.5902
 21
31.75
  0
LINE
  8
0
 10
-37.5902
 20
31.75
 11
-35.9105
 21
31.75
  0
LINE
  8
0
 10
-35.9105
 20
31.75
 11
-35.9105
 21
12.8501
  0
LINE
  8
0
 10
-35.9105
 20
12.8501
 11
-37.5902
 21
12.8501
  0
LINE
  8
0
 10
56.7492
 20
12
 11
52.5
 21
17.2599
  0
LINE
  8
0
 10
52.5
 20
17.2599
 11
52.5
 21
30.4151
  0
LINE
  8
0
 10
52.5
 20
30.4151
 11
56.9105
 21
16.841
  0
LINE
  8
0
 10
56.9105
 20
16.841
 11
56.9105
 21
12
  0
LINE
  8
0
 10
56.9105
 20
12
 11
56.7492
 21
12
  0
LINE
  8
0
 10
-58.2072
 20
12.8501
 11
-56.9105
 21
16.841
  0
LINE
  8
0
 10
-56.9105
 20
16.841
 11
-56.9105
 21
12.8501
  0
LINE
  8
0
 10
-56.9105
 20
12.8501
 11
-58.2072
 21
12.8501
  0
LINE
  8
0
 10
-21
 20
12
 11
-21
 21
15.9583
  0
LINE
  8
0
 10
-21
 20
15.9583
 11
-17.7782
 21
12
  0
LINE
  8
0
 10
-17.7782
 20
12
 11
-21
 21
12
  0
LINE
  8
0
 10
49.2777
 20
12
 11
52.5
 21
15.9583
  0
LINE
  8
0
 10
52.5
 20
15.9583
 11
52.5
 21
12
  0
LINE
  8
0
 10
52.5
 20
12
 11
49.2777
 21
12
  0
LINE
  8
0
 10
21
 20
12
 11
21
 21
15.9583
  0
LINE
  8
0
 10
21
 20
15.9583
 11
24.2218
 21
12
  0
LINE
  8
0
 10
24.2218
 20
12
 11
21
 21
12
  0
LINE
  8
0
 10
-13.7223
 20
12
 11
-10.5
 21
15.9583
  0
LINE
  8
0
 10
-10.5
 20
15.9583
 11
-10.5
 21
12
  0
LINE
  8
0
 10
-10.5
 20
12
 11
-13.7223
 21
12
  0
LINE
  8
0
 10
0
 20
12
 11
0
 21
15.9583
  0
LINE
  8
0
 10
0
 20
15.9583
 11
3.22183
 21
12
  0
LINE
  8
0
 10
3.22183
 20
12
 11
0
 21
12
  0
LINE
  8
0
 10
7.27769
 20
12
 11
10.5
 21
15.9583
  0
LINE
  8
0
 10
10.5
 20
15.9583
 11
10.5
 21
12
  0
LINE
  8
0
 10
10.5
 20
12
 11
7.27769
 21
12
  0
LINE
  8
0
 10
-55.7223
 20
12
 11
-52.5
 21
15.9583
  0
LINE
  8
0
 10
-52.5
 20
15.9583
 11
-52.5
 21
12
  0
LINE
  8
0
 10
-52.5
 20
12
 11
-55.7223
 21
12
  0
LINE
  8
0
 10
-34.7223
 20
12
 11
-31.5
 21
15.9583
  0
LINE
  8
0
 10
-31.5
 20
15.9583
 11
-31.5
 21
12
  0
LINE
  8
0
 10
-31.5
 20
12
 11
-34.7223
 21
12
  0
LINE
  8
0
 10
-42
 20
12
 11
-42
 21
15.9583
  0
LINE
  8
0
 10
-42
 20
15.9583
 11
-38.7782
 21
12
  0
LINE
  8
0
 10
-38.7782
 20
12
 11
-42
 21
12
  0
LINE
  8
0
 10
28.2777
 20
12
 11
31.5
 21
15.9583
  0
LINE
  8
0
 10
31.5
 20
15.9583
 11
31.5
 21
12
  0
LINE
  8
0
 10
31.5
 20
12
 11
28.2777
 21
12
  0
LINE
  8
0
 10
42
 20
12
 11
42
 21
15.9583
  0
LINE
  8
0
 10
42
 20
15.9583
 11
45.2218
 21
12
  0
LINE
  8
0
 10
45.2218
 20
12
 11
42
 21
12
  0
LINE
  8
0
 10
-10
 20
7
 11
-10
 21
11
  0
LINE
  8
0
 10
-10
 20
11
 11
10
 21
11
  0
LINE
  8
0
 10
10
 20
11
 11
10
 21
7
  0
LINE
  8
0
 10
10
 20
7
 11
-10
 21
7
  0
LINE
  8
0
 10
-68.6534
 20
2.70622
 11
-68.7785
 21
2.71805
  0
LINE
  8
0
 10
-68.7785
 20
2.71805
 11
-68.9026
 21
2.7377
  0
LINE
  8
0
 10
-68.9026
 20
2.7377
 11
-69.0252
 21
2.76511
  0
LINE
  8
0
 10
-69.0252
 20
2.76511
 11
-69.1459
 21
2.80016
  0
LINE
  8
0
 10
-69.1459
 20
2.80016
 11
-69.2641
 21
2.84273
  0
LINE
  8
0
 10
-69.2641
 20
2.84273
 11
-69.3794
 21
2.89262
  0
LINE
  8
0
 10
-69.3794
 20
2.89262
 11
-69.4914
 21
2.94966
  0
LINE
  8
0
 10
-69.4914
 20
2.94966
 11
-69.5995
 21
3.01363
  0
LINE
  8
0
 10
-69.5995
 20
3.01363
 11
-69.7034
 21
3.08424
  0
LINE
  8
0
 10
-69.7034
 20
3.08424
 11
-69.8027
 21
3.16125
  0
LINE
  8
0
 10
-69.8027
 20
3.16125
 11
-69.897
 21
3.24434
  0
LINE
  8
0
 10
-69.897
 20
3.24434
 11
-69.9858
 21
3.33318
  0
LINE
  8
0
 10
-69.9858
 20
3.33318
 11
-70.0689
 21
3.42743
  0
LINE
  8
0
 10
-70.0689
 20
3.42743
 11
-70.1459
 21
3.5267
  0
LINE
  8
0
 10
-70.1459
 20
3.5267
 11
-70.2165
 21
3.63062
  0
LINE
  8
0
 10
-70.2165
 20
3.63062
 11
-70.2805
 21
3.73877
  0
LINE
  8
0
 10
-70.2805
 20
3.73877
 11
-70.3375
 21
3.85072
  0
LINE
  8
0
 10
-70.3375
 20
3.85072
 11
-70.3874
 21
3.96602
  0
LINE
  8
0
 10
-70.3874
 20
3.96602
 11
-70.43
 21
4.08424
  0
LINE
  8
0
 10
-70.43
 20
4.08424
 11
-70.465
 21
4.2049
  0
LINE
  8
0
 10
-70.465
 20
4.2049
 11
-70.4924
 21
4.32751
  0
LINE
  8
0
 10
-70.4924
 20
4.32751
 11
-70.5121
 21
4.45161
  0
LINE
  8
0
 10
-70.5121
 20
4.45161
 11
-70.5239
 21
4.57669
  0
LINE
  8
0
 10
-70.5239
 20
4.57669
 11
-70.5279
 21
4.70227
  0
LINE
  8
0
 10
-70.5279
 20
4.70227
 11
-70.5239
 21
4.82785
  0
LINE
  8
0
 10
-70.5239
 20
4.82785
 11
-70.5121
 21
4.95294
  0
LINE
  8
0
 10
-70.5121
 20
4.95294
 11
-70.4924
 21
5.07704
  0
LINE
  8
0
 10
-70.4924
 20
5.07704
 11
-70.465
 21
5.19966
  0
LINE
  8
0
 10
-70.465
 20
5.19966
 11
-70.43
 21
5.32031
  0
LINE
  8
0
 10
-70.43
 20
5.32031
 11
-70.3874
 21
5.43852
  0
LINE
  8
0
 10
-70.3874
 20
5.43852
 11
-70.3375
 21
5.55383
  0
LINE
  8
0
 10
-70.3375
 20
5.55383
 11
-70.2805
 21
5.66579
  0
LINE
  8
0
 10
-70.2805
 20
5.66579
 11
-70.2165
 21
5.77393
  0
LINE
  8
0
 10
-70.2165
 20
5.77393
 11
-70.1459
 21
5.87784
  0
LINE
  8
0
 10
-70.1459
 20
5.87784
 11
-70.0689
 21
5.97713
  0
LINE
  8
0
 10
-70.0689
 20
5.97713
 11
-69.9858
 21
6.07137
  0
LINE
  8
0
 10
-69.9858
 20
6.07137
 11
-69.897
 21
6.16022
  0
LINE
  8
0
 10
-69.897
 20
6.16022
 11
-69.8027
 21
6.2433
  0
LINE
  8
0
 10
-69.8027
 20
6.2433
 11
-69.7034
 21
6.32031
  0
LINE
  8
0
 10
-69.7034
 20
6.32031
 11
-69.5995
 21
6.39093
  0
LINE
  8
0
 10
-69.5995
 20
6.39093
 11
-69.4914
 21
6.4549
  0
LINE
  8
0
 10
-69.4914
 20
6.4549
 11
-69.3794
 21
6.51193
  0
LINE
  8
0
 10
-69.3794
 20
6.51193
 11
-69.2641
 21
6.56183
  0
LINE
  8
0
 10
-69.2641
 20
6.56183
 11
-69.1459
 21
6.60439
  0
LINE
  8
0
 10
-69.1459
 20
6.60439
 11
-69.0252
 21
6.63943
  0
LINE
  8
0
 10
-69.0252
 20
6.63943
 11
-68.9026
 21
6.66685
  0
LINE
  8
0
 10
-68.9026
 20
6.66685
 11
-68.7785
 21
6.68651
  0
LINE
  8
0
 10
-68.7785
 20
6.68651
 11
-68.6534
 21
6.69833
  0
LINE
  8
0
 10
-68.6534
 20
6.69833
 11
-68.5279
 21
6.70227
  0
LINE
  8
0
 10
-68.5279
 20
6.70227
 11
-68.4023
 21
6.69833
  0
LINE
  8
0
 10
-68.4023
 20
6.69833
 11
-68.2772
 21
6.68651
  0
LINE
  8
0
 10
-68.2772
 20
6.68651
 11
-68.1531
 21
6.66685
  0
LINE
  8
0
 10
-68.1531
 20
6.66685
 11
-68.0305
 21
6.63943
  0
LINE
  8
0
 10
-68.0305
 20
6.63943
 11
-67.9098
 21
6.60439
  0
LINE
  8
0
 10
-67.9098
 20
6.60439
 11
-67.7916
 21
6.56183
  0
LINE
  8
0
 10
-67.7916
 20
6.56183
 11
-67.6763
 21
6.51193
  0
LINE
  8
0
 10
-67.6763
 20
6.51193
 11
-67.5643
 21
6.4549
  0
LINE
  8
0
 10
-67.5643
 20
6.4549
 11
-67.4562
 21
6.39093
  0
LINE
  8
0
 10
-67.4562
 20
6.39093
 11
-67.3523
 21
6.32031
  0
LINE
  8
0
 10
-67.3523
 20
6.32031
 11
-67.253
 21
6.2433
  0
LINE
  8
0
 10
-67.253
 20
6.2433
 11
-67.1588
 21
6.16022
  0
LINE
  8
0
 10
-67.1588
 20
6.16022
 11
-67.0699
 21
6.07137
  0
LINE
  8
0
 10
-67.0699
 20
6.07137
 11
-66.9868
 21
5.97713
  0
LINE
  8
0
 10
-66.9868
 20
5.97713
 11
-66.9098
 21
5.87784
  0
LINE
  8
0
 10
-66.9098
 20
5.87784
 11
-66.8392
 21
5.77393
  0
LINE
  8
0
 10
-66.8392
 20
5.77393
 11
-66.7752
 21
5.66579
  0
LINE
  8
0
 10
-66.7752
 20
5.66579
 11
-66.7182
 21
5.55383
  0
LINE
  8
0
 10
-66.7182
 20
5.55383
 11
-66.6683
 21
5.43852
  0
LINE
  8
0
 10
-66.6683
 20
5.43852
 11
-66.6257
 21
5.32031
  0
LINE
  8
0
 10
-66.6257
 20
5.32031
 11
-66.5907
 21
5.19966
  0
LINE
  8
0
 10
-66.5907
 20
5.19966
 11
-66.5633
 21
5.07704
  0
LINE
  8
0
 10
-66.5633
 20
5.07704
 11
-66.5436
 21
4.95294
  0
LINE
  8
0
 10
-66.5436
 20
4.95294
 11
-66.5318
 21
4.82785
  0
LINE
  8
0
 10
-66.5318
 20
4.82785
 11
-66.5279
 21
4.70227
  0
LINE
  8
0
 10
-66.5279
 20
4.70227
 11
-66.5318
 21
4.57669
  0
LINE
  8
0
 10
-66.5318
 20
4.57669
 11
-66.5436
 21
4.45161
  0
LINE
  8
0
 10
-66.5436
 20
4.45161
 11
-66.5633
 21
4.32751
  0
LINE
  8
0
 10
-66.5633
 20
4.32751
 11
-66.5907
 21
4.2049
  0
LINE
  8
0
 10
-66.5907
 20
4.2049
 11
-66.6257
 21
4.08424
  0
LINE
  8
0
 10
-66.6257
 20
4.08424
 11
-66.6683
 21
3.96602
  0
LINE
  8
0
 10
-66.6683
 20
3.96602
 11
-66.7182
 21
3.85072
  0
LINE
  8
0
 10
-66.7182
 20
3.85072
 11
-66.7752
 21
3.73877
  0
LINE
  8
0
 10
-66.7752
 20
3.73877
 11
-66.8392
 21
3.63062
  0
LINE
  8
0
 10
-66.8392
 20
3.63062
 11
-66.9098
 21
3.5267
  0
LINE
  8
0
 10
-66.9098
 20
3.5267
 11
-66.9868
 21
3.42743
  0
LINE
  8
0
 10
-66.9868
 20
3.42743
 11
-67.0699
 21
3.33318
  0
LINE
  8
0
 10
-67.0699
 20
3.33318
 11
-67.1588
 21
3.24434
  0
LINE
  8
0
 10
-67.1588
 20
3.24434
 11
-67.253
 21
3.16125
  0
LINE
  8
0
 10
-67.253
 20
3.16125
 11
-67.3523
 21
3.08424
  0
LINE
  8
0
 10
-67.3523
 20
3.08424
 11
-67.4562
 21
3.01363
  0
LINE
  8
0
 10
-67.4562
 20
3.01363
 11
-67.5643
 21
2.94966
  0
LINE
  8
0
 10
-67.5643
 20
2.94966
 11
-67.6763
 21
2.89262
  0
LINE
  8
0
 10
-67.6763
 20
2.89262
 11
-67.7916
 21
2.84273
  0
LINE
  8
0
 10
-67.7916
 20
2.84273
 11
-67.9098
 21
2.80016
  0
LINE
  8
0
 10
-67.9098
 20
2.80016
 11
-68.0305
 21
2.76511
  0
LINE
  8
0
 10
-68.0305
 20
2.76511
 11
-68.1531
 21
2.7377
  0
LINE
  8
0
 10
-68.1531
 20
2.7377
 11
-68.2772
 21
2.71805
  0
LINE
  8
0
 10
-68.2772
 20
2.71805
 11
-68.4023
 21
2.70622
  0
LINE
  8
0
 10
-68.4023
 20
2.70622
 11
-68.5279
 21
2.70227
  0
LINE
  8
0
 10
-68.5279
 20
2.70227
 11
-68.6534
 21
2.70622
  0
LINE
  8
0
 10
68.4023
 20
2.70622
 11
68.2772
 21
2.71805
  0
LINE
  8
0
 10
68.2772
 20
2.71805
 11
68.1531
 21
2.7377
  0
LINE
  8
0
 10
68.1531
 20
2.7377
 11
68.0305
 21
2.76511
  0
LINE
  8
0
 10
68.0305
 20
2.76511
 11
67.9098
 21
2.80016
  0
LINE
  8
0
 10
67.9098
 20
2.80016
 11
67.7916
 21
2.84273
  0
LINE
  8
0
 10
67.7916
 20
2.84273
 11
67.6763
 21
2.89262
  0
LINE
  8
0
 10
67.6763
 20
2.89262
 11
67.5643
 21
2.94966
  0
LINE
  8
0
 10
67.5643
 20
2.94966
 11
67.4562
 21
3.01363
  0
LINE
  8
0
 10
67.4562
 20
3.01363
 11
67.3523
 21
3.08424
  0
LINE
  8
0
 10
67.3523
 20
3.08424
 11
67.253
 21
3.16125
  0
LINE
  8
0
 10
67.253
 20
3.16125
 11
67.1588
 21
3.24434
  0
LINE
  8
0
 10
67.1588
 20
3.24434
 11
67.0699
 21
3.33318
  0
LINE
  8
0
 10
67.0699
 20
3.33318
 11
66.9868
 21
3.42743
  0
LINE
  8
0
 10
66.9868
 20
3.42743
 11
66.9098
 21
3.5267
  0
LINE
  8
0
 10
66.9098
 20
3.5267
 11
66.8392
 21
3.63062
  0
LINE
  8
0
 10
66.8392
 20
3.63062
 11
66.7752
 21
3.73877
  0
LINE
  8
0
 10
66.7752
 20
3.73877
 11
66.7182
 21
3.85072
  0
LINE
  8
0
 10
66.7182
 20
3.85072
 11
66.6683
 21
3.96602
  0
LINE
  8
0
 10
66.6683
 20
3.96602
 11
66.6257
 21
4.08424
  0
LINE
  8
0
 10
66.6257
 20
4.08424
 11
66.5907
 21
4.2049
  0
LINE
  8
0
 10
66.5907
 20
4.2049
 11
66.5633
 21
4.32751
  0
LINE
  8
0
 10
66.5633
 20
4.32751
 11
66.5436
 21
4.45161
  0
LINE
  8
0
 10
66.5436
 20
4.45161
 11
66.5318
 21
4.57669
  0
LINE
  8
0
 10
66.5318
 20
4.57669
 11
66.5279
 21
4.70227
  0
LINE
  8
0
 10
66.5279
 20
4.70227
 11
66.5318
 21
4.82785
  0
LINE
  8
0
 10
66.5318
 20
4.82785
 11
66.5436
 21
4.95294
  0
LINE
  8
0
 10
66.5436
 20
4.95294
 11
66.5633
 21
5.07704
  0
LINE
  8
0
 10
66.5633
 20
5.07704
 11
66.5907
 21
5.19966
  0
LINE
  8
0
 10
66.5907
 20
5.19966
 11
66.6257
 21
5.32031
  0
LINE
  8
0
 10
66.6257
 20
5.32031
 11
66.6683
 21
5.43852
  0
LINE
  8
0
 10
66.6683
 20
5.43852
 11
66.7182
 21
5.55383
  0
LINE
  8
0
 10
66.7182
 20
5.55383
 11
66.7752
 21
5.66579
  0
LINE
  8
0
 10
66.7752
 20
5.66579
 11
66.8392
 21
5.77393
  0
LINE
  8
0
 10
66.8392
 20
5.77393
 11
66.9098
 21
5.87784
  0
LINE
  8
0
 10
66.9098
 20
5.87784
 11
66.9868
 21
5.97713
  0
LINE
  8
0
 10
66.9868
 20
5.97713
 11
67.0699
 21
6.07137
  0
LINE
  8
0
 10
67.0699
 20
6.07137
 11
67.1588
 21
6.16022
  0
LINE
  8
0
 10
67.1588
 20
6.16022
 11
67.253
 21
6.2433
  0
LINE
  8
0
 10
67.253
 20
6.2433
 11
67.3523
 21
6.32031
  0
LINE
  8
0
 10
67.3523
 20
6.32031
 11
67.4562
 21
6.39093
  0
LINE
  8
0
 10
67.4562
 20
6.39093
 11
67.5643
 21
6.4549
  0
LINE
  8
0
 10
67.5643
 20
6.4549
 11
67.6763
 21
6.51193
  0
LINE
  8
0
 10
67.6763
 20
6.51193
 11
67.7916
 21
6.56183
  0
LINE
  8
0
 10
67.7916
 20
6.56183
 11
67.9098
 21
6.60439
  0
LINE
  8
0
 10
67.9098
 20
6.60439
 11
68.0305
 21
6.63943
  0
LINE
  8
0
 10
68.0305
 20
6.63943
 11
68.1531
 21
6.66685
  0
LINE
  8
0
 10
68.1531
 20
6.66685
 11
68.2772
 21
6.68651
  0
LINE
  8
0
 10
68.2772
 20
6.68651
 11
68.4023
 21
6.69833
  0
LINE
  8
0
 10
68.4023
 20
6.69833
 11
68.5279
 21
6.70227
  0
LINE
  8
0
 10
68.5279
 20
6.70227
 11
68.6534
 21
6.69833
  0
LINE
  8
0
 10
68.6534
 20
6.69833
 11
68.7785
 21
6.68651
  0
LINE
  8
0
 10
68.7785
 20
6.68651
 11
68.9026
 21
6.66685
  0
LINE
  8
0
 10
68.9026
 20
6.66685
 11
69.0252
 21
6.63943
  0
LINE
  8
0
 10
69.0252
 20
6.63943
 11
69.1459
 21
6.60439
  0
LINE
  8
0
 10
69.1459
 20
6.60439
 11
69.2641
 21
6.56183
  0
LINE
  8
0
 10
69.2641
 20
6.56183
 11
69.3794
 21
6.51193
  0
LINE
  8
0
 10
69.3794
 20
6.51193
 11
69.4914
 21
6.4549
  0
LINE
  8
0
 10
69.4914
 20
6.4549
 11
69.5995
 21
6.39093
  0
LINE
  8
0
 10
69.5995
 20
6.39093
 11
69.7034
 21
6.32031
  0
LINE
  8
0
 10
69.7034
 20
6.32031
 11
69.8027
 21
6.2433
  0
LINE
  8
0
 10
69.8027
 20
6.2433
 11
69.897
 21
6.16022
  0
LINE
  8
0
 10
69.897
 20
6.16022
 11
69.9858
 21
6.07137
  0
LINE
  8
0
 10
69.9858
 20
6.07137
 11
70.0689
 21
5.97713
  0
LINE
  8
0
 10
70.0689
 20
5.97713
 11
70.1459
 21
5.87784
  0
LINE
  8
0
 10
70.1459
 20
5.87784
 11
70.2165
 21
5.77393
  0
LINE
  8
0
 10
70.2165
 20
5.77393
 11
70.2805
 21
5.66579
  0
LINE
  8
0
 10
70.2805
 20
5.66579
 11
70.3375
 21
5.55383
  0
LINE
  8
0
 10
70.3375
 20
5.55383
 11
70.3874
 21
5.43852
  0
LINE
  8
0
 10
70.3874
 20
5.43852
 11
70.43
 21
5.32031
  0
LINE
  8
0
 10
70.43
 20
5.32031
 11
70.465
 21
5.19966
  0
LINE
  8
0
 10
70.465
 20
5.19966
 11
70.4924
 21
5.07704
  0
LINE
  8
0
 10
70.4924
 20
5.07704
 11
70.5121
 21
4.95294
  0
LINE
  8
0
 10
70.5121
 20
4.95294
 11
70.5239
 21
4.82785
  0
LINE
  8
0
 10
70.5239
 20
4.82785
 11
70.5279
 21
4.70227
  0
LINE
  8
0
 10
70.5279
 20
4.70227
 11
70.5239
 21
4.57669
  0
LINE
  8
0
 10
70.5239
 20
4.57669
 11
70.5121
 21
4.45161
  0
LINE
  8
0
 10
70.5121
 20
4.45161
 11
70.4924
 21
4.32751
  0
LINE
  8
0
 10
70.4924
 20
4.32751
 11
70.465
 21
4.2049
  0
LINE
  8
0
 10
70.465
 20
4.2049
 11
70.43
 21
4.08424
  0
LINE
  8
0
 10
70.43
 20
4.08424
 11
70.3874
 21
3.96602
  0
LINE
  8
0
 10
70.3874
 20
3.96602
 11
70.3375
 21
3.85072
  0
LINE
  8
0
 10
70.3375
 20
3.85072
 11
70.2805
 21
3.73877
  0
LINE
  8
0
 10
70.2805
 20
3.73877
 11
70.2165
 21
3.63062
  0
LINE
  8
0
 10
70.2165
 20
3.63062
 11
70.1459
 21
3.5267
  0
LINE
  8
0
 10
70.1459
 20
3.5267
 11
70.0689
 21
3.42743
  0
LINE
  8
0
 10
70.0689
 20
3.42743
 11
69.9858
 21
3.33318
  0
LINE
  8
0
 10
69.9858
 20
3.33318
 11
69.897
 21
3.24434
  0
LINE
  8
0
 10
69.897
 20
3.24434
 11
69.8027
 21
3.16125
  0
LINE
  8
0
 10
69.8027
 20
3.16125
 11
69.7034
 21
3.08424
  0
LINE
  8
0
 10
69.7034
 20
3.08424
 11
69.5995
 21
3.01363
  0
LINE
  8
0
 10
69.5995
 20
3.01363
 11
69.4914
 21
2.94966
  0
LINE
  8
0
 10
69.4914
 20
2.94966
 11
69.3794
 21
2.89262
  0
LINE
  8
0
 10
69.3794
 20
2.89262
 11
69.2641
 21
2.84273
  0
LINE
  8
0
 10
69.2641
 20
2.84273
 11
69.1459
 21
2.80016
  0
LINE
  8
0
 10
69.1459
 20
2.80016
 11
69.0252
 21
2.76511
  0
LINE
  8
0
 10
69.0252
 20
2.76511
 11
68.9026
 21
2.7377
  0
LINE
  8
0
 10
68.9026
 20
2.7377
 11
68.7785
 21
2.71805
  0
LINE
  8
0
 10
68.7785
 20
2.71805
 11
68.6534
 21
2.70622
  0
LINE
  8
0
 10
68.6534
 20
2.70622
 11
68.5279
 21
2.70227
  0
LINE
  8
0
 10
68.5279
 20
2.70227
 11
68.4023
 21
2.70622
  0
ENDSEC
  0
SECTION
  2
OBJECTS
  0
DICTIONARY
  0
ENDSEC
  0
EOF
