  0
SECTION
  2
BLOCKS
  0
ENDSEC
  0
SECTION
  2
ENTITIES
  0
LINE
  8
0
 10
0
 20
230.826
 11
-75
 21
0
  0
LINE
  8
0
 10
-75
 20
0
 11
75
 21
0
  0
LINE
  8
0
 10
75
 20
0
 11
0
 21
230.826
  0
LINE
  8
0
 10
-0.12558
 20
212.83
 11
-0.250656
 21
212.842
  0
LINE
  8
0
 10
-0.250656
 20
212.842
 11
-0.374756
 21
212.862
  0
LINE
  8
0
 10
-0.374756
 20
212.862
 11
-0.497375
 21
212.889
  0
LINE
  8
0
 10
-0.497375
 20
212.889
 11
-0.618027
 21
212.924
  0
LINE
  8
0
 10
-0.618027
 20
212.924
 11
-0.736237
 21
212.967
  0
LINE
  8
0
 10
-0.736237
 20
212.967
 11
-0.851547
 21
213.017
  0
LINE
  8
0
 10
-0.851547
 20
213.017
 11
-0.963501
 21
213.074
  0
LINE
  8
0
 10
-0.963501
 20
213.074
 11
-1.07164
 21
213.138
  0
LINE
  8
0
 10
-1.07164
 20
213.138
 11
-1.17557
 21
213.208
  0
LINE
  8
0
 10
-1.17557
 20
213.208
 11
-1.27484
 21
213.285
  0
LINE
  8
0
 10
-1.27484
 20
213.285
 11
-1.36908
 21
213.368
  0
LINE
  8
0
 10
-1.36908
 20
213.368
 11
-1.45793
 21
213.457
  0
LINE
  8
0
 10
-1.45793
 20
213.457
 11
-1.54102
 21
213.551
  0
LINE
  8
0
 10
-1.54102
 20
213.551
 11
-1.61803
 21
213.651
  0
LINE
  8
0
 10
-1.61803
 20
213.651
 11
-1.68864
 21
213.755
  0
LINE
  8
0
 10
-1.68864
 20
213.755
 11
-1.75261
 21
213.863
  0
LINE
  8
0
 10
-1.75261
 20
213.863
 11
-1.80965
 21
213.975
  0
LINE
  8
0
 10
-1.80965
 20
213.975
 11
-1.85954
 21
214.09
  0
LINE
  8
0
 10
-1.85954
 20
214.09
 11
-1.9021
 21
214.208
  0
LINE
  8
0
 10
-1.9021
 20
214.208
 11
-1.93716
 21
214.329
  0
LINE
  8
0
 10
-1.93716
 20
214.329
 11
-1.96457
 21
214.451
  0
LINE
  8
0
 10
-1.96457
 20
214.451
 11
-1.98422
 21
214.576
  0
LINE
  8
0
 10
-1.98422
 20
214.576
 11
-1.99605
 21
214.701
  0
LINE
  8
0
 10
-1.99605
 20
214.701
 11
-2
 21
214.826
  0
LINE
  8
0
 10
-2
 20
214.826
 11
-1.99605
 21
214.952
  0
LINE
  8
0
 10
-1.99605
 20
214.952
 11
-1.98422
 21
215.077
  0
LINE
  8
0
 10
-1.98422
 20
215.077
 11
-1.96457
 21
215.201
  0
LINE
  8
0
 10
-1.96457
 20
215.201
 11
-1.93716
 21
215.324
  0
LINE
  8
0
 10
-1.93716
 20
215.324
 11
-1.9021
 21
215.444
  0
LINE
  8
0
 10
-1.9021
 20
215.444
 11
-1.85954
 21
215.562
  0
LINE
  8
0
 10
-1.85954
 20
215.562
 11
-1.80965
 21
215.678
  0
LINE
  8
0
 10
-1.80965
 20
215.678
 11
-1.75261
 21
215.79
  0
LINE
  8
0
 10
-1.75261
 20
215.79
 11
-1.68864
 21
215.898
  0
LINE
  8
0
 10
-1.68864
 20
215.898
 11
-1.61803
 21
216.002
  0
LINE
  8
0
 10
-1.61803
 20
216.002
 11
-1.54102
 21
216.101
  0
LINE
  8
0
 10
-1.54102
 20
216.101
 11
-1.45793
 21
216.195
  0
LINE
  8
0
 10
-1.45793
 20
216.195
 11
-1.36908
 21
216.284
  0
LINE
  8
0
 10
-1.36908
 20
216.284
 11
-1.27484
 21
216.367
  0
LINE
  8
0
 10
-1.27484
 20
216.367
 11
-1.17557
 21
216.444
  0
LINE
  8
0
 10
-1.17557
 20
216.444
 11
-1.07164
 21
216.515
  0
LINE
  8
0
 10
-1.07164
 20
216.515
 11
-0.963501
 21
216.579
  0
LINE
  8
0
 10
-0.963501
 20
216.579
 11
-0.851547
 21
216.636
  0
LINE
  8
0
 10
-0.851547
 20
216.636
 11
-0.736237
 21
216.686
  0
LINE
  8
0
 10
-0.736237
 20
216.686
 11
-0.618027
 21
216.728
  0
LINE
  8
0
 10
-0.618027
 20
216.728
 11
-0.497375
 21
216.763
  0
LINE
  8
0
 10
-0.497375
 20
216.763
 11
-0.374756
 21
216.791
  0
LINE
  8
0
 10
-0.374756
 20
216.791
 11
-0.250656
 21
216.81
  0
LINE
  8
0
 10
-0.250656
 20
216.81
 11
-0.12558
 21
216.822
  0
LINE
  8
0
 10
-0.12558
 20
216.822
 11
0
 21
216.826
  0
LINE
  8
0
 10
0
 20
216.826
 11
0.12558
 21
216.822
  0
LINE
  8
0
 10
0.12558
 20
216.822
 11
0.250656
 21
216.81
  0
LINE
  8
0
 10
0.250656
 20
216.81
 11
0.374756
 21
216.791
  0
LINE
  8
0
 10
0.374756
 20
216.791
 11
0.497375
 21
216.763
  0
LINE
  8
0
 10
0.497375
 20
216.763
 11
0.618027
 21
216.728
  0
LINE
  8
0
 10
0.618027
 20
216.728
 11
0.736237
 21
216.686
  0
LINE
  8
0
 10
0.736237
 20
216.686
 11
0.851547
 21
216.636
  0
LINE
  8
0
 10
0.851547
 20
216.636
 11
0.963501
 21
216.579
  0
LINE
  8
0
 10
0.963501
 20
216.579
 11
1.07164
 21
216.515
  0
LINE
  8
0
 10
1.07164
 20
216.515
 11
1.17557
 21
216.444
  0
LINE
  8
0
 10
1.17557
 20
216.444
 11
1.27484
 21
216.367
  0
LINE
  8
0
 10
1.27484
 20
216.367
 11
1.36908
 21
216.284
  0
LINE
  8
0
 10
1.36908
 20
216.284
 11
1.45793
 21
216.195
  0
LINE
  8
0
 10
1.45793
 20
216.195
 11
1.54102
 21
216.101
  0
LINE
  8
0
 10
1.54102
 20
216.101
 11
1.61803
 21
216.002
  0
LINE
  8
0
 10
1.61803
 20
216.002
 11
1.68864
 21
215.898
  0
LINE
  8
0
 10
1.68864
 20
215.898
 11
1.75261
 21
215.79
  0
LINE
  8
0
 10
1.75261
 20
215.79
 11
1.80965
 21
215.678
  0
LINE
  8
0
 10
1.80965
 20
215.678
 11
1.85954
 21
215.562
  0
LINE
  8
0
 10
1.85954
 20
215.562
 11
1.9021
 21
215.444
  0
LINE
  8
0
 10
1.9021
 20
215.444
 11
1.93716
 21
215.324
  0
LINE
  8
0
 10
1.93716
 20
215.324
 11
1.96457
 21
215.201
  0
LINE
  8
0
 10
1.96457
 20
215.201
 11
1.98422
 21
215.077
  0
LINE
  8
0
 10
1.98422
 20
215.077
 11
1.99605
 21
214.952
  0
LINE
  8
0
 10
1.99605
 20
214.952
 11
2
 21
214.826
  0
LINE
  8
0
 10
2
 20
214.826
 11
1.99605
 21
214.701
  0
LINE
  8
0
 10
1.99605
 20
214.701
 11
1.98422
 21
214.576
  0
LINE
  8
0
 10
1.98422
 20
214.576
 11
1.96457
 21
214.451
  0
LINE
  8
0
 10
1.96457
 20
214.451
 11
1.93716
 21
214.329
  0
LINE
  8
0
 10
1.93716
 20
214.329
 11
1.9021
 21
214.208
  0
LINE
  8
0
 10
1.9021
 20
214.208
 11
1.85954
 21
214.09
  0
LINE
  8
0
 10
1.85954
 20
214.09
 11
1.80965
 21
213.975
  0
LINE
  8
0
 10
1.80965
 20
213.975
 11
1.75261
 21
213.863
  0
LINE
  8
0
 10
1.75261
 20
213.863
 11
1.68864
 21
213.755
  0
LINE
  8
0
 10
1.68864
 20
213.755
 11
1.61803
 21
213.651
  0
LINE
  8
0
 10
1.61803
 20
213.651
 11
1.54102
 21
213.551
  0
LINE
  8
0
 10
1.54102
 20
213.551
 11
1.45793
 21
213.457
  0
LINE
  8
0
 10
1.45793
 20
213.457
 11
1.36908
 21
213.368
  0
LINE
  8
0
 10
1.36908
 20
213.368
 11
1.27484
 21
213.285
  0
LINE
  8
0
 10
1.27484
 20
213.285
 11
1.17557
 21
213.208
  0
LINE
  8
0
 10
1.17557
 20
213.208
 11
1.07164
 21
213.138
  0
LINE
  8
0
 10
1.07164
 20
213.138
 11
0.963501
 21
213.074
  0
LINE
  8
0
 10
0.963501
 20
213.074
 11
0.851547
 21
213.017
  0
LINE
  8
0
 10
0.851547
 20
213.017
 11
0.736237
 21
212.967
  0
LINE
  8
0
 10
0.736237
 20
212.967
 11
0.618027
 21
212.924
  0
LINE
  8
0
 10
0.618027
 20
212.924
 11
0.497375
 21
212.889
  0
LINE
  8
0
 10
0.497375
 20
212.889
 11
0.374756
 21
212.862
  0
LINE
  8
0
 10
0.374756
 20
212.862
 11
0.250656
 21
212.842
  0
LINE
  8
0
 10
0.250656
 20
212.842
 11
0.12558
 21
212.83
  0
LINE
  8
0
 10
0.12558
 20
212.83
 11
0
 21
212.826
  0
LINE
  8
0
 10
0
 20
212.826
 11
-0.12558
 21
212.83
  0
LINE
  8
0
 10
-2.7326
 20
183.583
 11
-0.729019
 21
189.75
  0
LINE
  8
0
 10
-0.729019
 20
189.75
 11
0.729019
 21
189.75
  0
LINE
  8
0
 10
0.729019
 20
189.75
 11
2.58331
 21
184.043
  0
LINE
  8
0
 10
2.58331
 20
184.043
 11
2.58331
 21
183.583
  0
LINE
  8
0
 10
2.58331
 20
183.583
 11
-2.7326
 21
183.583
  0
LINE
  8
0
 10
-4.73637
 20
177.416
 11
-3.58337
 21
180.965
  0
LINE
  8
0
 10
-3.58337
 20
180.965
 11
-3.58337
 21
177.416
  0
LINE
  8
0
 10
-3.58337
 20
177.416
 11
-4.73637
 21
177.416
  0
LINE
  8
0
 10
-3.08289
 20
157.416
 11
-3.08289
 21
163.583
  0
LINE
  8
0
 10
-3.08289
 20
163.583
 11
-9.23099
 21
163.583
  0
LINE
  8
0
 10
-9.23099
 20
163.583
 11
-7.22742
 21
169.75
  0
LINE
  8
0
 10
-7.22742
 20
169.75
 11
-3.08289
 21
169.75
  0
LINE
  8
0
 10
-3.08289
 20
169.75
 11
-3.08289
 21
175.916
  0
LINE
  8
0
 10
-3.08289
 20
175.916
 11
3.08289
 21
175.916
  0
LINE
  8
0
 10
3.08289
 20
175.916
 11
3.08289
 21
169.75
  0
LINE
  8
0
 10
3.08289
 20
169.75
 11
7.22742
 21
169.75
  0
LINE
  8
0
 10
7.22742
 20
169.75
 11
9.23099
 21
163.583
  0
LINE
  8
0
 10
9.23099
 20
163.583
 11
3.08289
 21
163.583
  0
LINE
  8
0
 10
3.08289
 20
163.583
 11
3.08289
 21
157.416
  0
LINE
  8
0
 10
3.08289
 20
157.416
 11
-3.08289
 21
157.416
  0
LINE
  8
0
 10
-11.3971
 20
156.917
 11
-10.7498
 21
158.909
  0
LINE
  8
0
 10
-10.7498
 20
158.909
 11
-10.7498
 21
156.917
  0
LINE
  8
0
 10
-10.7498
 20
156.917
 11
-11.3971
 21
156.917
  0
LINE
  8
0
 10
3.58337
 20
137.416
 11
3.58337
 21
143.583
  0
LINE
  8
0
 10
3.58337
 20
143.583
 11
-2.58331
 21
143.583
  0
LINE
  8
0
 10
-2.58331
 20
143.583
 11
-2.58331
 21
149.75
  0
LINE
  8
0
 10
-2.58331
 20
149.75
 11
3.58337
 21
149.75
  0
LINE
  8
0
 10
3.58337
 20
149.75
 11
3.58337
 21
155.916
  0
LINE
  8
0
 10
3.58337
 20
155.916
 11
9.74976
 21
155.916
  0
LINE
  8
0
 10
9.74976
 20
155.916
 11
9.74976
 21
149.75
  0
LINE
  8
0
 10
9.74976
 20
149.75
 11
13.7258
 21
149.75
  0
LINE
  8
0
 10
13.7258
 20
149.75
 11
15.7294
 21
143.583
  0
LINE
  8
0
 10
15.7294
 20
143.583
 11
9.74976
 21
143.583
  0
LINE
  8
0
 10
9.74976
 20
143.583
 11
9.74976
 21
137.416
  0
LINE
  8
0
 10
9.74976
 20
137.416
 11
3.58337
 21
137.416
  0
LINE
  8
0
 10
-16.4163
 20
130.75
 11
-16.4163
 21
136.917
  0
LINE
  8
0
 10
-16.4163
 20
136.917
 11
-17.8955
 21
136.917
  0
LINE
  8
0
 10
-17.8955
 20
136.917
 11
-13.8882
 21
149.25
  0
LINE
  8
0
 10
-13.8882
 20
149.25
 11
-10.2499
 21
149.25
  0
LINE
  8
0
 10
-10.2499
 20
149.25
 11
-10.2499
 21
143.083
  0
LINE
  8
0
 10
-10.2499
 20
143.083
 11
-4.08325
 21
143.083
  0
LINE
  8
0
 10
-4.08325
 20
143.083
 11
-4.08325
 21
136.917
  0
LINE
  8
0
 10
-4.08325
 20
136.917
 11
-10.2499
 21
136.917
  0
LINE
  8
0
 10
-10.2499
 20
136.917
 11
-10.2499
 21
130.75
  0
LINE
  8
0
 10
-10.2499
 20
130.75
 11
-16.4163
 21
130.75
  0
LINE
  8
0
 10
10.2499
 20
117.416
 11
10.2499
 21
123.583
  0
LINE
  8
0
 10
10.2499
 20
123.583
 11
4.08325
 21
123.583
  0
LINE
  8
0
 10
4.08325
 20
123.583
 11
4.08325
 21
129.75
  0
LINE
  8
0
 10
4.08325
 20
129.75
 11
10.2499
 21
129.75
  0
LINE
  8
0
 10
10.2499
 20
129.75
 11
10.2499
 21
135.916
  0
LINE
  8
0
 10
10.2499
 20
135.916
 11
16.4163
 21
135.916
  0
LINE
  8
0
 10
16.4163
 20
135.916
 11
16.4163
 21
129.75
  0
LINE
  8
0
 10
16.4163
 20
129.75
 11
20.2242
 21
129.75
  0
LINE
  8
0
 10
20.2242
 20
129.75
 11
22.2278
 21
123.583
  0
LINE
  8
0
 10
22.2278
 20
123.583
 11
16.4163
 21
123.583
  0
LINE
  8
0
 10
16.4163
 20
123.583
 11
16.4163
 21
117.416
  0
LINE
  8
0
 10
16.4163
 20
117.416
 11
10.2499
 21
117.416
  0
LINE
  8
0
 10
-9.74976
 20
110.75
 11
-9.74976
 21
116.917
  0
LINE
  8
0
 10
-9.74976
 20
116.917
 11
-15.9164
 21
116.917
  0
LINE
  8
0
 10
-15.9164
 20
116.917
 11
-15.9164
 21
123.083
  0
LINE
  8
0
 10
-15.9164
 20
123.083
 11
-9.74976
 21
123.083
  0
LINE
  8
0
 10
-9.74976
 20
123.083
 11
-9.74976
 21
129.25
  0
LINE
  8
0
 10
-9.74976
 20
129.25
 11
-3.58337
 21
129.25
  0
LINE
  8
0
 10
-3.58337
 20
129.25
 11
-3.58337
 21
123.083
  0
LINE
  8
0
 10
-3.58337
 20
123.083
 11
2.58331
 21
123.083
  0
LINE
  8
0
 10
2.58331
 20
123.083
 11
2.58331
 21
116.917
  0
LINE
  8
0
 10
2.58331
 20
116.917
 11
-3.58337
 21
116.917
  0
LINE
  8
0
 10
-3.58337
 20
116.917
 11
-3.58337
 21
110.75
  0
LINE
  8
0
 10
-3.58337
 20
110.75
 11
-9.74976
 21
110.75
  0
LINE
  8
0
 10
-28.5638
 20
104.083
 11
-23.5834
 21
119.411
  0
LINE
  8
0
 10
-23.5834
 20
119.411
 11
-23.5834
 21
116.416
  0
LINE
  8
0
 10
-23.5834
 20
116.416
 11
-17.4164
 21
116.416
  0
LINE
  8
0
 10
-17.4164
 20
116.416
 11
-17.4164
 21
110.25
  0
LINE
  8
0
 10
-17.4164
 20
110.25
 11
-23.5834
 21
110.25
  0
LINE
  8
0
 10
-23.5834
 20
110.25
 11
-23.5834
 21
104.083
  0
LINE
  8
0
 10
-23.5834
 20
104.083
 11
-28.5638
 21
104.083
  0
LINE
  8
0
 10
16.9168
 20
97.4167
 11
16.9168
 21
103.583
  0
LINE
  8
0
 10
16.9168
 20
103.583
 11
10.7498
 21
103.583
  0
LINE
  8
0
 10
10.7498
 20
103.583
 11
10.7498
 21
109.75
  0
LINE
  8
0
 10
10.7498
 20
109.75
 11
16.9168
 21
109.75
  0
LINE
  8
0
 10
16.9168
 20
109.75
 11
16.9168
 21
115.916
  0
LINE
  8
0
 10
16.9168
 20
115.916
 11
23.0829
 21
115.916
  0
LINE
  8
0
 10
23.0829
 20
115.916
 11
23.0829
 21
109.75
  0
LINE
  8
0
 10
23.0829
 20
109.75
 11
26.7226
 21
109.75
  0
LINE
  8
0
 10
26.7226
 20
109.75
 11
28.7262
 21
103.583
  0
LINE
  8
0
 10
28.7262
 20
103.583
 11
23.0829
 21
103.583
  0
LINE
  8
0
 10
23.0829
 20
103.583
 11
23.0829
 21
97.4167
  0
LINE
  8
0
 10
23.0829
 20
97.4167
 11
16.9168
 21
97.4167
  0
LINE
  8
0
 10
-3.08289
 20
90.7501
 11
-3.08289
 21
96.9171
  0
LINE
  8
0
 10
-3.08289
 20
96.9171
 11
-9.24988
 21
96.9171
  0
LINE
  8
0
 10
-9.24988
 20
96.9171
 11
-9.24988
 21
103.083
  0
LINE
  8
0
 10
-9.24988
 20
103.083
 11
-3.08289
 21
103.083
  0
LINE
  8
0
 10
-3.08289
 20
103.083
 11
-3.08289
 21
109.25
  0
LINE
  8
0
 10
-3.08289
 20
109.25
 11
3.08289
 21
109.25
  0
LINE
  8
0
 10
3.08289
 20
109.25
 11
3.08289
 21
103.083
  0
LINE
  8
0
 10
3.08289
 20
103.083
 11
9.24988
 21
103.083
  0
LINE
  8
0
 10
9.24988
 20
103.083
 11
9.24988
 21
96.9171
  0
LINE
  8
0
 10
9.24988
 20
96.9171
 11
3.08289
 21
96.9171
  0
LINE
  8
0
 10
3.08289
 20
96.9171
 11
3.08289
 21
90.7501
  0
LINE
  8
0
 10
3.08289
 20
90.7501
 11
-3.08289
 21
90.7501
  0
LINE
  8
0
 10
-23.0829
 20
84.0836
 11
-23.0829
 21
90.2502
  0
LINE
  8
0
 10
-23.0829
 20
90.2502
 11
-29.2499
 21
90.2502
  0
LINE
  8
0
 10
-29.2499
 20
90.2502
 11
-29.2499
 21
96.4166
  0
LINE
  8
0
 10
-29.2499
 20
96.4166
 11
-23.0829
 21
96.4166
  0
LINE
  8
0
 10
-23.0829
 20
96.4166
 11
-23.0829
 21
102.583
  0
LINE
  8
0
 10
-23.0829
 20
102.583
 11
-16.9168
 21
102.583
  0
LINE
  8
0
 10
-16.9168
 20
102.583
 11
-16.9168
 21
96.4166
  0
LINE
  8
0
 10
-16.9168
 20
96.4166
 11
-10.7498
 21
96.4166
  0
LINE
  8
0
 10
-10.7498
 20
96.4166
 11
-10.7498
 21
90.2502
  0
LINE
  8
0
 10
-10.7498
 20
90.2502
 11
-16.9168
 21
90.2502
  0
LINE
  8
0
 10
-16.9168
 20
90.2502
 11
-16.9168
 21
84.0836
  0
LINE
  8
0
 10
-16.9168
 20
84.0836
 11
-23.0829
 21
84.0836
  0
LINE
  8
0
 10
23.5834
 20
77.4167
 11
23.5834
 21
83.5837
  0
LINE
  8
0
 10
23.5834
 20
83.5837
 11
17.4164
 21
83.5837
  0
LINE
  8
0
 10
17.4164
 20
83.5837
 11
17.4164
 21
89.7501
  0
LINE
  8
0
 10
17.4164
 20
89.7501
 11
23.5834
 21
89.7501
  0
LINE
  8
0
 10
23.5834
 20
89.7501
 11
23.5834
 21
95.9167
  0
LINE
  8
0
 10
23.5834
 20
95.9167
 11
29.7498
 21
95.9167
  0
LINE
  8
0
 10
29.7498
 20
95.9167
 11
29.7498
 21
89.7501
  0
LINE
  8
0
 10
29.7498
 20
89.7501
 11
33.2209
 21
89.7501
  0
LINE
  8
0
 10
33.2209
 20
89.7501
 11
35.2245
 21
83.5837
  0
LINE
  8
0
 10
35.2245
 20
83.5837
 11
29.7498
 21
83.5837
  0
LINE
  8
0
 10
29.7498
 20
83.5837
 11
29.7498
 21
77.4167
  0
LINE
  8
0
 10
29.7498
 20
77.4167
 11
23.5834
 21
77.4167
  0
LINE
  8
0
 10
-35.2245
 20
83.5837
 11
-33.2209
 21
89.7501
  0
LINE
  8
0
 10
-33.2209
 20
89.7501
 11
-30.7498
 21
89.7501
  0
LINE
  8
0
 10
-30.7498
 20
89.7501
 11
-30.7498
 21
83.5837
  0
LINE
  8
0
 10
-30.7498
 20
83.5837
 11
-35.2245
 21
83.5837
  0
LINE
  8
0
 10
3.58337
 20
70.7501
 11
3.58337
 21
76.9171
  0
LINE
  8
0
 10
3.58337
 20
76.9171
 11
-2.58331
 21
76.9171
  0
LINE
  8
0
 10
-2.58331
 20
76.9171
 11
-2.58331
 21
83.0832
  0
LINE
  8
0
 10
-2.58331
 20
83.0832
 11
3.58337
 21
83.0832
  0
LINE
  8
0
 10
3.58337
 20
83.0832
 11
3.58337
 21
89.2502
  0
LINE
  8
0
 10
3.58337
 20
89.2502
 11
9.74976
 21
89.2502
  0
LINE
  8
0
 10
9.74976
 20
89.2502
 11
9.74976
 21
83.0832
  0
LINE
  8
0
 10
9.74976
 20
83.0832
 11
15.9164
 21
83.0832
  0
LINE
  8
0
 10
15.9164
 20
83.0832
 11
15.9164
 21
76.9171
  0
LINE
  8
0
 10
15.9164
 20
76.9171
 11
9.74976
 21
76.9171
  0
LINE
  8
0
 10
9.74976
 20
76.9171
 11
9.74976
 21
70.7501
  0
LINE
  8
0
 10
9.74976
 20
70.7501
 11
3.58337
 21
70.7501
  0
LINE
  8
0
 10
-16.4163
 20
64.0836
 11
-16.4163
 21
70.2502
  0
LINE
  8
0
 10
-16.4163
 20
70.2502
 11
-22.5833
 21
70.2502
  0
LINE
  8
0
 10
-22.5833
 20
70.2502
 11
-22.5833
 21
76.4166
  0
LINE
  8
0
 10
-22.5833
 20
76.4166
 11
-16.4163
 21
76.4166
  0
LINE
  8
0
 10
-16.4163
 20
76.4166
 11
-16.4163
 21
82.5836
  0
LINE
  8
0
 10
-16.4163
 20
82.5836
 11
-10.2499
 21
82.5836
  0
LINE
  8
0
 10
-10.2499
 20
82.5836
 11
-10.2499
 21
76.4166
  0
LINE
  8
0
 10
-10.2499
 20
76.4166
 11
-4.08325
 21
76.4166
  0
LINE
  8
0
 10
-4.08325
 20
76.4166
 11
-4.08325
 21
70.2502
  0
LINE
  8
0
 10
-4.08325
 20
70.2502
 11
-10.2499
 21
70.2502
  0
LINE
  8
0
 10
-10.2499
 20
70.2502
 11
-10.2499
 21
64.0836
  0
LINE
  8
0
 10
-10.2499
 20
64.0836
 11
-16.4163
 21
64.0836
  0
LINE
  8
0
 10
-37.2282
 20
77.4167
 11
-36.9168
 21
78.3752
  0
LINE
  8
0
 10
-36.9168
 20
78.3752
 11
-36.9168
 21
77.4167
  0
LINE
  8
0
 10
-36.9168
 20
77.4167
 11
-37.2282
 21
77.4167
  0
LINE
  8
0
 10
-36.4163
 20
57.4167
 11
-36.4163
 21
63.5837
  0
LINE
  8
0
 10
-36.4163
 20
63.5837
 11
-41.7229
 21
63.5837
  0
LINE
  8
0
 10
-41.7229
 20
63.5837
 11
-39.7193
 21
69.7501
  0
LINE
  8
0
 10
-39.7193
 20
69.7501
 11
-36.4163
 21
69.7501
  0
LINE
  8
0
 10
-36.4163
 20
69.7501
 11
-36.4163
 21
75.9167
  0
LINE
  8
0
 10
-36.4163
 20
75.9167
 11
-30.2499
 21
75.9167
  0
LINE
  8
0
 10
-30.2499
 20
75.9167
 11
-30.2499
 21
69.7501
  0
LINE
  8
0
 10
-30.2499
 20
69.7501
 11
-24.0833
 21
69.7501
  0
LINE
  8
0
 10
-24.0833
 20
69.7501
 11
-24.0833
 21
63.5837
  0
LINE
  8
0
 10
-24.0833
 20
63.5837
 11
-30.2499
 21
63.5837
  0
LINE
  8
0
 10
-30.2499
 20
63.5837
 11
-30.2499
 21
57.4167
  0
LINE
  8
0
 10
-30.2499
 20
57.4167
 11
-36.4163
 21
57.4167
  0
LINE
  8
0
 10
30.2499
 20
57.4167
 11
30.2499
 21
63.5837
  0
LINE
  8
0
 10
30.2499
 20
63.5837
 11
24.0833
 21
63.5837
  0
LINE
  8
0
 10
24.0833
 20
63.5837
 11
24.0833
 21
69.7501
  0
LINE
  8
0
 10
24.0833
 20
69.7501
 11
30.2499
 21
69.7501
  0
LINE
  8
0
 10
30.2499
 20
69.7501
 11
30.2499
 21
75.9167
  0
LINE
  8
0
 10
30.2499
 20
75.9167
 11
36.4163
 21
75.9167
  0
LINE
  8
0
 10
36.4163
 20
75.9167
 11
36.4163
 21
69.7501
  0
LINE
  8
0
 10
36.4163
 20
69.7501
 11
39.7193
 21
69.7501
  0
LINE
  8
0
 10
39.7193
 20
69.7501
 11
41.7229
 21
63.5837
  0
LINE
  8
0
 10
41.7229
 20
63.5837
 11
36.4163
 21
63.5837
  0
LINE
  8
0
 10
36.4163
 20
63.5837
 11
36.4163
 21
57.4167
  0
LINE
  8
0
 10
36.4163
 20
57.4167
 11
30.2499
 21
57.4167
  0
LINE
  8
0
 10
10.2499
 20
50.7501
 11
10.2499
 21
56.9171
  0
LINE
  8
0
 10
10.2499
 20
56.9171
 11
4.08325
 21
56.9171
  0
LINE
  8
0
 10
4.08325
 20
56.9171
 11
4.08325
 21
63.0832
  0
LINE
  8
0
 10
4.08325
 20
63.0832
 11
10.2499
 21
63.0832
  0
LINE
  8
0
 10
10.2499
 20
63.0832
 11
10.2499
 21
69.2502
  0
LINE
  8
0
 10
10.2499
 20
69.2502
 11
16.4163
 21
69.2502
  0
LINE
  8
0
 10
16.4163
 20
69.2502
 11
16.4163
 21
63.0832
  0
LINE
  8
0
 10
16.4163
 20
63.0832
 11
22.5833
 21
63.0832
  0
LINE
  8
0
 10
22.5833
 20
63.0832
 11
22.5833
 21
56.9171
  0
LINE
  8
0
 10
22.5833
 20
56.9171
 11
16.4163
 21
56.9171
  0
LINE
  8
0
 10
16.4163
 20
56.9171
 11
16.4163
 21
50.7501
  0
LINE
  8
0
 10
16.4163
 20
50.7501
 11
10.2499
 21
50.7501
  0
LINE
  8
0
 10
-9.74976
 20
44.0836
 11
-9.74976
 21
50.2502
  0
LINE
  8
0
 10
-9.74976
 20
50.2502
 11
-15.9164
 21
50.2502
  0
LINE
  8
0
 10
-15.9164
 20
50.2502
 11
-15.9164
 21
56.4166
  0
LINE
  8
0
 10
-15.9164
 20
56.4166
 11
-9.74976
 21
56.4166
  0
LINE
  8
0
 10
-9.74976
 20
56.4166
 11
-9.74976
 21
62.5836
  0
LINE
  8
0
 10
-9.74976
 20
62.5836
 11
-3.58337
 21
62.5836
  0
LINE
  8
0
 10
-3.58337
 20
62.5836
 11
-3.58337
 21
56.4166
  0
LINE
  8
0
 10
-3.58337
 20
56.4166
 11
2.58331
 21
56.4166
  0
LINE
  8
0
 10
2.58331
 20
56.4166
 11
2.58331
 21
50.2502
  0
LINE
  8
0
 10
2.58331
 20
50.2502
 11
-3.58337
 21
50.2502
  0
LINE
  8
0
 10
-3.58337
 20
50.2502
 11
-3.58337
 21
44.0836
  0
LINE
  8
0
 10
-3.58337
 20
44.0836
 11
-9.74976
 21
44.0836
  0
LINE
  8
0
 10
-29.7498
 20
37.4167
 11
-29.7498
 21
43.5837
  0
LINE
  8
0
 10
-29.7498
 20
43.5837
 11
-35.9164
 21
43.5837
  0
LINE
  8
0
 10
-35.9164
 20
43.5837
 11
-35.9164
 21
49.7501
  0
LINE
  8
0
 10
-35.9164
 20
49.7501
 11
-29.7498
 21
49.7501
  0
LINE
  8
0
 10
-29.7498
 20
49.7501
 11
-29.7498
 21
55.9167
  0
LINE
  8
0
 10
-29.7498
 20
55.9167
 11
-23.5834
 21
55.9167
  0
LINE
  8
0
 10
-23.5834
 20
55.9167
 11
-23.5834
 21
49.7501
  0
LINE
  8
0
 10
-23.5834
 20
49.7501
 11
-17.4164
 21
49.7501
  0
LINE
  8
0
 10
-17.4164
 20
49.7501
 11
-17.4164
 21
43.5837
  0
LINE
  8
0
 10
-17.4164
 20
43.5837
 11
-23.5834
 21
43.5837
  0
LINE
  8
0
 10
-23.5834
 20
43.5837
 11
-23.5834
 21
37.4167
  0
LINE
  8
0
 10
-23.5834
 20
37.4167
 11
-29.7498
 21
37.4167
  0
LINE
  8
0
 10
36.9168
 20
37.4167
 11
36.9168
 21
43.5837
  0
LINE
  8
0
 10
36.9168
 20
43.5837
 11
30.7498
 21
43.5837
  0
LINE
  8
0
 10
30.7498
 20
43.5837
 11
30.7498
 21
49.7501
  0
LINE
  8
0
 10
30.7498
 20
49.7501
 11
36.9168
 21
49.7501
  0
LINE
  8
0
 10
36.9168
 20
49.7501
 11
36.9168
 21
55.9167
  0
LINE
  8
0
 10
36.9168
 20
55.9167
 11
43.0829
 21
55.9167
  0
LINE
  8
0
 10
43.0829
 20
55.9167
 11
43.0829
 21
49.7501
  0
LINE
  8
0
 10
43.0829
 20
49.7501
 11
46.2177
 21
49.7501
  0
LINE
  8
0
 10
46.2177
 20
49.7501
 11
48.2213
 21
43.5837
  0
LINE
  8
0
 10
48.2213
 20
43.5837
 11
43.0829
 21
43.5837
  0
LINE
  8
0
 10
43.0829
 20
43.5837
 11
43.0829
 21
37.4167
  0
LINE
  8
0
 10
43.0829
 20
37.4167
 11
36.9168
 21
37.4167
  0
LINE
  8
0
 10
16.9168
 20
30.7501
 11
16.9168
 21
36.9171
  0
LINE
  8
0
 10
16.9168
 20
36.9171
 11
10.7498
 21
36.9171
  0
LINE
  8
0
 10
10.7498
 20
36.9171
 11
10.7498
 21
43.0832
  0
LINE
  8
0
 10
10.7498
 20
43.0832
 11
16.9168
 21
43.0832
  0
LINE
  8
0
 10
16.9168
 20
43.0832
 11
16.9168
 21
49.2502
  0
LINE
  8
0
 10
16.9168
 20
49.2502
 11
23.0829
 21
49.2502
  0
LINE
  8
0
 10
23.0829
 20
49.2502
 11
23.0829
 21
43.0832
  0
LINE
  8
0
 10
23.0829
 20
43.0832
 11
29.2499
 21
43.0832
  0
LINE
  8
0
 10
29.2499
 20
43.0832
 11
29.2499
 21
36.9171
  0
LINE
  8
0
 10
29.2499
 20
36.9171
 11
23.0829
 21
36.9171
  0
LINE
  8
0
 10
23.0829
 20
36.9171
 11
23.0829
 21
30.7501
  0
LINE
  8
0
 10
23.0829
 20
30.7501
 11
16.9168
 21
30.7501
  0
LINE
  8
0
 10
-49.7498
 20
30.7501
 11
-49.7498
 21
36.9171
  0
LINE
  8
0
 10
-49.7498
 20
36.9171
 11
-50.3874
 21
36.9171
  0
LINE
  8
0
 10
-50.3874
 20
36.9171
 11
-46.3801
 21
49.2502
  0
LINE
  8
0
 10
-46.3801
 20
49.2502
 11
-43.5834
 21
49.2502
  0
LINE
  8
0
 10
-43.5834
 20
49.2502
 11
-43.5834
 21
43.0832
  0
LINE
  8
0
 10
-43.5834
 20
43.0832
 11
-37.4164
 21
43.0832
  0
LINE
  8
0
 10
-37.4164
 20
43.0832
 11
-37.4164
 21
36.9171
  0
LINE
  8
0
 10
-37.4164
 20
36.9171
 11
-43.5834
 21
36.9171
  0
LINE
  8
0
 10
-43.5834
 20
36.9171
 11
-43.5834
 21
30.7501
  0
LINE
  8
0
 10
-43.5834
 20
30.7501
 11
-49.7498
 21
30.7501
  0
LINE
  8
0
 10
-3.08289
 20
24.0836
 11
-3.08289
 21
30.2502
  0
LINE
  8
0
 10
-3.08289
 20
30.2502
 11
-9.24988
 21
30.2502
  0
LINE
  8
0
 10
-9.24988
 20
30.2502
 11
-9.24988
 21
36.4166
  0
LINE
  8
0
 10
-9.24988
 20
36.4166
 11
-3.08289
 21
36.4166
  0
LINE
  8
0
 10
-3.08289
 20
36.4166
 11
-3.08289
 21
42.5836
  0
LINE
  8
0
 10
-3.08289
 20
42.5836
 11
3.08289
 21
42.5836
  0
LINE
  8
0
 10
3.08289
 20
42.5836
 11
3.08289
 21
36.4166
  0
LINE
  8
0
 10
3.08289
 20
36.4166
 11
9.24988
 21
36.4166
  0
LINE
  8
0
 10
9.24988
 20
36.4166
 11
9.24988
 21
30.2502
  0
LINE
  8
0
 10
9.24988
 20
30.2502
 11
3.08289
 21
30.2502
  0
LINE
  8
0
 10
3.08289
 20
30.2502
 11
3.08289
 21
24.0836
  0
LINE
  8
0
 10
3.08289
 20
24.0836
 11
-3.08289
 21
24.0836
  0
LINE
  8
0
 10
43.5834
 20
17.4167
 11
43.5834
 21
23.5837
  0
LINE
  8
0
 10
43.5834
 20
23.5837
 11
37.4164
 21
23.5837
  0
LINE
  8
0
 10
37.4164
 20
23.5837
 11
37.4164
 21
29.7501
  0
LINE
  8
0
 10
37.4164
 20
29.7501
 11
43.5834
 21
29.7501
  0
LINE
  8
0
 10
43.5834
 20
29.7501
 11
43.5834
 21
35.9167
  0
LINE
  8
0
 10
43.5834
 20
35.9167
 11
49.7498
 21
35.9167
  0
LINE
  8
0
 10
49.7498
 20
35.9167
 11
49.7498
 21
29.7501
  0
LINE
  8
0
 10
49.7498
 20
29.7501
 11
52.7161
 21
29.7501
  0
LINE
  8
0
 10
52.7161
 20
29.7501
 11
54.7197
 21
23.5837
  0
LINE
  8
0
 10
54.7197
 20
23.5837
 11
49.7498
 21
23.5837
  0
LINE
  8
0
 10
49.7498
 20
23.5837
 11
49.7498
 21
17.4167
  0
LINE
  8
0
 10
49.7498
 20
17.4167
 11
43.5834
 21
17.4167
  0
LINE
  8
0
 10
-23.0829
 20
17.4167
 11
-23.0829
 21
23.5837
  0
LINE
  8
0
 10
-23.0829
 20
23.5837
 11
-29.2499
 21
23.5837
  0
LINE
  8
0
 10
-29.2499
 20
23.5837
 11
-29.2499
 21
29.7501
  0
LINE
  8
0
 10
-29.2499
 20
29.7501
 11
-23.0829
 21
29.7501
  0
LINE
  8
0
 10
-23.0829
 20
29.7501
 11
-23.0829
 21
35.9167
  0
LINE
  8
0
 10
-23.0829
 20
35.9167
 11
-16.9168
 21
35.9167
  0
LINE
  8
0
 10
-16.9168
 20
35.9167
 11
-16.9168
 21
29.7501
  0
LINE
  8
0
 10
-16.9168
 20
29.7501
 11
-10.7498
 21
29.7501
  0
LINE
  8
0
 10
-10.7498
 20
29.7501
 11
-10.7498
 21
23.5837
  0
LINE
  8
0
 10
-10.7498
 20
23.5837
 11
-16.9168
 21
23.5837
  0
LINE
  8
0
 10
-16.9168
 20
23.5837
 11
-16.9168
 21
17.4167
  0
LINE
  8
0
 10
-16.9168
 20
17.4167
 11
-23.0829
 21
17.4167
  0
LINE
  8
0
 10
-43.0829
 20
12
 11
-43.0829
 21
16.9171
  0
LINE
  8
0
 10
-43.0829
 20
16.9171
 11
-49.2499
 21
16.9171
  0
LINE
  8
0
 10
-49.2499
 20
16.9171
 11
-49.2499
 21
23.0832
  0
LINE
  8
0
 10
-49.2499
 20
23.0832
 11
-43.0829
 21
23.0832
  0
LINE
  8
0
 10
-43.0829
 20
23.0832
 11
-43.0829
 21
29.2502
  0
LINE
  8
0
 10
-43.0829
 20
29.2502
 11
-36.9168
 21
29.2502
  0
LINE
  8
0
 10
-36.9168
 20
29.2502
 11
-36.9168
 21
23.0832
  0
LINE
  8
0
 10
-36.9168
 20
23.0832
 11
-30.7498
 21
23.0832
  0
LINE
  8
0
 10
-30.7498
 20
23.0832
 11
-30.7498
 21
16.9171
  0
LINE
  8
0
 10
-30.7498
 20
16.9171
 11
-36.9168
 21
16.9171
  0
LINE
  8
0
 10
-36.9168
 20
16.9171
 11
-36.9168
 21
12
  0
LINE
  8
0
 10
-36.9168
 20
12
 11
-43.0829
 21
12
  0
LINE
  8
0
 10
23.5834
 20
12
 11
23.5834
 21
16.9171
  0
LINE
  8
0
 10
23.5834
 20
16.9171
 11
17.4164
 21
16.9171
  0
LINE
  8
0
 10
17.4164
 20
16.9171
 11
17.4164
 21
23.0832
  0
LINE
  8
0
 10
17.4164
 20
23.0832
 11
23.5834
 21
23.0832
  0
LINE
  8
0
 10
23.5834
 20
23.0832
 11
23.5834
 21
29.2502
  0
LINE
  8
0
 10
23.5834
 20
29.2502
 11
29.7498
 21
29.2502
  0
LINE
  8
0
 10
29.7498
 20
29.2502
 11
29.7498
 21
23.0832
  0
LINE
  8
0
 10
29.7498
 20
23.0832
 11
35.9164
 21
23.0832
  0
LINE
  8
0
 10
35.9164
 20
23.0832
 11
35.9164
 21
16.9171
  0
LINE
  8
0
 10
35.9164
 20
16.9171
 11
29.7498
 21
16.9171
  0
LINE
  8
0
 10
29.7498
 20
16.9171
 11
29.7498
 21
12
  0
LINE
  8
0
 10
29.7498
 20
12
 11
23.5834
 21
12
  0
LINE
  8
0
 10
-2.58331
 20
12
 11
-2.58331
 21
16.4166
  0
LINE
  8
0
 10
-2.58331
 20
16.4166
 11
3.58337
 21
16.4166
  0
LINE
  8
0
 10
3.58337
 20
16.4166
 11
3.58337
 21
22.5836
  0
LINE
  8
0
 10
3.58337
 20
22.5836
 11
9.74976
 21
22.5836
  0
LINE
  8
0
 10
9.74976
 20
22.5836
 11
9.74976
 21
16.4166
  0
LINE
  8
0
 10
9.74976
 20
16.4166
 11
15.9164
 21
16.4166
  0
LINE
  8
0
 10
15.9164
 20
16.4166
 11
15.9164
 21
12
  0
LINE
  8
0
 10
15.9164
 20
12
 11
-2.58331
 21
12
  0
LINE
  8
0
 10
-58.4834
 20
12
 11
-56.9168
 21
16.8215
  0
LINE
  8
0
 10
-56.9168
 20
16.8215
 11
-56.9168
 21
16.4166
  0
LINE
  8
0
 10
-56.9168
 20
16.4166
 11
-50.7498
 21
16.4166
  0
LINE
  8
0
 10
-50.7498
 20
16.4166
 11
-50.7498
 21
12
  0
LINE
  8
0
 10
-50.7498
 20
12
 11
-58.4834
 21
12
  0
LINE
  8
0
 10
-16.4163
 20
12
 11
-16.4163
 21
15.9167
  0
LINE
  8
0
 10
-16.4163
 20
15.9167
 11
-10.2499
 21
15.9167
  0
LINE
  8
0
 10
-10.2499
 20
15.9167
 11
-10.2499
 21
12
  0
LINE
  8
0
 10
-10.2499
 20
12
 11
-16.4163
 21
12
  0
LINE
  8
0
 10
50.2499
 20
12
 11
50.2499
 21
15.9167
  0
LINE
  8
0
 10
50.2499
 20
15.9167
 11
56.4163
 21
15.9167
  0
LINE
  8
0
 10
56.4163
 20
15.9167
 11
56.4163
 21
12
  0
LINE
  8
0
 10
56.4163
 20
12
 11
50.2499
 21
12
  0
LINE
  8
0
 10
-10
 20
7
 11
-10
 21
11
  0
LINE
  8
0
 10
-10
 20
11
 11
10
 21
11
  0
LINE
  8
0
 10
10
 20
11
 11
10
 21
7
  0
LINE
  8
0
 10
10
 20
7
 11
-10
 21
7
  0
LINE
  8
0
 10
-68.6534
 20
2.70622
 11
-68.7785
 21
2.71805
  0
LINE
  8
0
 10
-68.7785
 20
2.71805
 11
-68.9026
 21
2.7377
  0
LINE
  8
0
 10
-68.9026
 20
2.7377
 11
-69.0252
 21
2.76511
  0
LINE
  8
0
 10
-69.0252
 20
2.76511
 11
-69.1459
 21
2.80016
  0
LINE
  8
0
 10
-69.1459
 20
2.80016
 11
-69.2641
 21
2.84273
  0
LINE
  8
0
 10
-69.2641
 20
2.84273
 11
-69.3794
 21
2.89262
  0
LINE
  8
0
 10
-69.3794
 20
2.89262
 11
-69.4914
 21
2.94966
  0
LINE
  8
0
 10
-69.4914
 20
2.94966
 11
-69.5995
 21
3.01363
  0
LINE
  8
0
 10
-69.5995
 20
3.01363
 11
-69.7034
 21
3.08424
  0
LINE
  8
0
 10
-69.7034
 20
3.08424
 11
-69.8027
 21
3.16125
  0
LINE
  8
0
 10
-69.8027
 20
3.16125
 11
-69.897
 21
3.24434
  0
LINE
  8
0
 10
-69.897
 20
3.24434
 11
-69.9858
 21
3.33318
  0
LINE
  8
0
 10
-69.9858
 20
3.33318
 11
-70.0689
 21
3.42743
  0
LINE
  8
0
 10
-70.0689
 20
3.42743
 11
-70.1459
 21
3.5267
  0
LINE
  8
0
 10
-70.1459
 20
3.5267
 11
-70.2165
 21
3.63062
  0
LINE
  8
0
 10
-70.2165
 20
3.63062
 11
-70.2805
 21
3.73877
  0
LINE
  8
0
 10
-70.2805
 20
3.73877
 11
-70.3375
 21
3.85072
  0
LINE
  8
0
 10
-70.3375
 20
3.85072
 11
-70.3874
 21
3.96602
  0
LINE
  8
0
 10
-70.3874
 20
3.96602
 11
-70.43
 21
4.08424
  0
LINE
  8
0
 10
-70.43
 20
4.08424
 11
-70.465
 21
4.2049
  0
LINE
  8
0
 10
-70.465
 20
4.2049
 11
-70.4924
 21
4.32751
  0
LINE
  8
0
 10
-70.4924
 20
4.32751
 11
-70.5121
 21
4.45161
  0
LINE
  8
0
 10
-70.5121
 20
4.45161
 11
-70.5239
 21
4.57669
  0
LINE
  8
0
 10
-70.5239
 20
4.57669
 11
-70.5279
 21
4.70227
  0
LINE
  8
0
 10
-70.5279
 20
4.70227
 11
-70.5239
 21
4.82785
  0
LINE
  8
0
 10
-70.5239
 20
4.82785
 11
-70.5121
 21
4.95294
  0
LINE
  8
0
 10
-70.5121
 20
4.95294
 11
-70.4924
 21
5.07704
  0
LINE
  8
0
 10
-70.4924
 20
5.07704
 11
-70.465
 21
5.19966
  0
LINE
  8
0
 10
-70.465
 20
5.19966
 11
-70.43
 21
5.32031
  0
LINE
  8
0
 10
-70.43
 20
5.32031
 11
-70.3874
 21
5.43852
  0
LINE
  8
0
 10
-70.3874
 20
5.43852
 11
-70.3375
 21
5.55383
  0
LINE
  8
0
 10
-70.3375
 20
5.55383
 11
-70.2805
 21
5.66579
  0
LINE
  8
0
 10
-70.2805
 20
5.66579
 11
-70.2165
 21
5.77393
  0
LINE
  8
0
 10
-70.2165
 20
5.77393
 11
-70.1459
 21
5.87784
  0
LINE
  8
0
 10
-70.1459
 20
5.87784
 11
-70.0689
 21
5.97713
  0
LINE
  8
0
 10
-70.0689
 20
5.97713
 11
-69.9858
 21
6.07137
  0
LINE
  8
0
 10
-69.9858
 20
6.07137
 11
-69.897
 21
6.16022
  0
LINE
  8
0
 10
-69.897
 20
6.16022
 11
-69.8027
 21
6.2433
  0
LINE
  8
0
 10
-69.8027
 20
6.2433
 11
-69.7034
 21
6.32031
  0
LINE
  8
0
 10
-69.7034
 20
6.32031
 11
-69.5995
 21
6.39093
  0
LINE
  8
0
 10
-69.5995
 20
6.39093
 11
-69.4914
 21
6.4549
  0
LINE
  8
0
 10
-69.4914
 20
6.4549
 11
-69.3794
 21
6.51193
  0
LINE
  8
0
 10
-69.3794
 20
6.51193
 11
-69.2641
 21
6.56183
  0
LINE
  8
0
 10
-69.2641
 20
6.56183
 11
-69.1459
 21
6.60439
  0
LINE
  8
0
 10
-69.1459
 20
6.60439
 11
-69.0252
 21
6.63943
  0
LINE
  8
0
 10
-69.0252
 20
6.63943
 11
-68.9026
 21
6.66685
  0
LINE
  8
0
 10
-68.9026
 20
6.66685
 11
-68.7785
 21
6.68651
  0
LINE
  8
0
 10
-68.7785
 20
6.68651
 11
-68.6534
 21
6.69833
  0
LINE
  8
0
 10
-68.6534
 20
6.69833
 11
-68.5279
 21
6.70227
  0
LINE
  8
0
 10
-68.5279
 20
6.70227
 11
-68.4023
 21
6.69833
  0
LINE
  8
0
 10
-68.4023
 20
6.69833
 11
-68.2772
 21
6.68651
  0
LINE
  8
0
 10
-68.2772
 20
6.68651
 11
-68.1531
 21
6.66685
  0
LINE
  8
0
 10
-68.1531
 20
6.66685
 11
-68.0305
 21
6.63943
  0
LINE
  8
0
 10
-68.0305
 20
6.63943
 11
-67.9098
 21
6.60439
  0
LINE
  8
0
 10
-67.9098
 20
6.60439
 11
-67.7916
 21
6.56183
  0
LINE
  8
0
 10
-67.7916
 20
6.56183
 11
-67.6763
 21
6.51193
  0
LINE
  8
0
 10
-67.6763
 20
6.51193
 11
-67.5643
 21
6.4549
  0
LINE
  8
0
 10
-67.5643
 20
6.4549
 11
-67.4562
 21
6.39093
  0
LINE
  8
0
 10
-67.4562
 20
6.39093
 11
-67.3523
 21
6.32031
  0
LINE
  8
0
 10
-67.3523
 20
6.32031
 11
-67.253
 21
6.2433
  0
LINE
  8
0
 10
-67.253
 20
6.2433
 11
-67.1588
 21
6.16022
  0
LINE
  8
0
 10
-67.1588
 20
6.16022
 11
-67.0699
 21
6.07137
  0
LINE
  8
0
 10
-67.0699
 20
6.07137
 11
-66.9868
 21
5.97713
  0
LINE
  8
0
 10
-66.9868
 20
5.97713
 11
-66.9098
 21
5.87784
  0
LINE
  8
0
 10
-66.9098
 20
5.87784
 11
-66.8392
 21
5.77393
  0
LINE
  8
0
 10
-66.8392
 20
5.77393
 11
-66.7752
 21
5.66579
  0
LINE
  8
0
 10
-66.7752
 20
5.66579
 11
-66.7182
 21
5.55383
  0
LINE
  8
0
 10
-66.7182
 20
5.55383
 11
-66.6683
 21
5.43852
  0
LINE
  8
0
 10
-66.6683
 20
5.43852
 11
-66.6257
 21
5.32031
  0
LINE
  8
0
 10
-66.6257
 20
5.32031
 11
-66.5907
 21
5.19966
  0
LINE
  8
0
 10
-66.5907
 20
5.19966
 11
-66.5633
 21
5.07704
  0
LINE
  8
0
 10
-66.5633
 20
5.07704
 11
-66.5436
 21
4.95294
  0
LINE
  8
0
 10
-66.5436
 20
4.95294
 11
-66.5318
 21
4.82785
  0
LINE
  8
0
 10
-66.5318
 20
4.82785
 11
-66.5279
 21
4.70227
  0
LINE
  8
0
 10
-66.5279
 20
4.70227
 11
-66.5318
 21
4.57669
  0
LINE
  8
0
 10
-66.5318
 20
4.57669
 11
-66.5436
 21
4.45161
  0
LINE
  8
0
 10
-66.5436
 20
4.45161
 11
-66.5633
 21
4.32751
  0
LINE
  8
0
 10
-66.5633
 20
4.32751
 11
-66.5907
 21
4.2049
  0
LINE
  8
0
 10
-66.5907
 20
4.2049
 11
-66.6257
 21
4.08424
  0
LINE
  8
0
 10
-66.6257
 20
4.08424
 11
-66.6683
 21
3.96602
  0
LINE
  8
0
 10
-66.6683
 20
3.96602
 11
-66.7182
 21
3.85072
  0
LINE
  8
0
 10
-66.7182
 20
3.85072
 11
-66.7752
 21
3.73877
  0
LINE
  8
0
 10
-66.7752
 20
3.73877
 11
-66.8392
 21
3.63062
  0
LINE
  8
0
 10
-66.8392
 20
3.63062
 11
-66.9098
 21
3.5267
  0
LINE
  8
0
 10
-66.9098
 20
3.5267
 11
-66.9868
 21
3.42743
  0
LINE
  8
0
 10
-66.9868
 20
3.42743
 11
-67.0699
 21
3.33318
  0
LINE
  8
0
 10
-67.0699
 20
3.33318
 11
-67.1588
 21
3.24434
  0
LINE
  8
0
 10
-67.1588
 20
3.24434
 11
-67.253
 21
3.16125
  0
LINE
  8
0
 10
-67.253
 20
3.16125
 11
-67.3523
 21
3.08424
  0
LINE
  8
0
 10
-67.3523
 20
3.08424
 11
-67.4562
 21
3.01363
  0
LINE
  8
0
 10
-67.4562
 20
3.01363
 11
-67.5643
 21
2.94966
  0
LINE
  8
0
 10
-67.5643
 20
2.94966
 11
-67.6763
 21
2.89262
  0
LINE
  8
0
 10
-67.6763
 20
2.89262
 11
-67.7916
 21
2.84273
  0
LINE
  8
0
 10
-67.7916
 20
2.84273
 11
-67.9098
 21
2.80016
  0
LINE
  8
0
 10
-67.9098
 20
2.80016
 11
-68.0305
 21
2.76511
  0
LINE
  8
0
 10
-68.0305
 20
2.76511
 11
-68.1531
 21
2.7377
  0
LINE
  8
0
 10
-68.1531
 20
2.7377
 11
-68.2772
 21
2.71805
  0
LINE
  8
0
 10
-68.2772
 20
2.71805
 11
-68.4023
 21
2.70622
  0
LINE
  8
0
 10
-68.4023
 20
2.70622
 11
-68.5279
 21
2.70227
  0
LINE
  8
0
 10
-68.5279
 20
2.70227
 11
-68.6534
 21
2.70622
  0
LINE
  8
0
 10
68.4023
 20
2.70622
 11
68.2772
 21
2.71805
  0
LINE
  8
0
 10
68.2772
 20
2.71805
 11
68.1531
 21
2.7377
  0
LINE
  8
0
 10
68.1531
 20
2.7377
 11
68.0305
 21
2.76511
  0
LINE
  8
0
 10
68.0305
 20
2.76511
 11
67.9098
 21
2.80016
  0
LINE
  8
0
 10
67.9098
 20
2.80016
 11
67.7916
 21
2.84273
  0
LINE
  8
0
 10
67.7916
 20
2.84273
 11
67.6763
 21
2.89262
  0
LINE
  8
0
 10
67.6763
 20
2.89262
 11
67.5643
 21
2.94966
  0
LINE
  8
0
 10
67.5643
 20
2.94966
 11
67.4562
 21
3.01363
  0
LINE
  8
0
 10
67.4562
 20
3.01363
 11
67.3523
 21
3.08424
  0
LINE
  8
0
 10
67.3523
 20
3.08424
 11
67.253
 21
3.16125
  0
LINE
  8
0
 10
67.253
 20
3.16125
 11
67.1588
 21
3.24434
  0
LINE
  8
0
 10
67.1588
 20
3.24434
 11
67.0699
 21
3.33318
  0
LINE
  8
0
 10
67.0699
 20
3.33318
 11
66.9868
 21
3.42743
  0
LINE
  8
0
 10
66.9868
 20
3.42743
 11
66.9098
 21
3.5267
  0
LINE
  8
0
 10
66.9098
 20
3.5267
 11
66.8392
 21
3.63062
  0
LINE
  8
0
 10
66.8392
 20
3.63062
 11
66.7752
 21
3.73877
  0
LINE
  8
0
 10
66.7752
 20
3.73877
 11
66.7182
 21
3.85072
  0
LINE
  8
0
 10
66.7182
 20
3.85072
 11
66.6683
 21
3.96602
  0
LINE
  8
0
 10
66.6683
 20
3.96602
 11
66.6257
 21
4.08424
  0
LINE
  8
0
 10
66.6257
 20
4.08424
 11
66.5907
 21
4.2049
  0
LINE
  8
0
 10
66.5907
 20
4.2049
 11
66.5633
 21
4.32751
  0
LINE
  8
0
 10
66.5633
 20
4.32751
 11
66.5436
 21
4.45161
  0
LINE
  8
0
 10
66.5436
 20
4.45161
 11
66.5318
 21
4.57669
  0
LINE
  8
0
 10
66.5318
 20
4.57669
 11
66.5279
 21
4.70227
  0
LINE
  8
0
 10
66.5279
 20
4.70227
 11
66.5318
 21
4.82785
  0
LINE
  8
0
 10
66.5318
 20
4.82785
 11
66.5436
 21
4.95294
  0
LINE
  8
0
 10
66.5436
 20
4.95294
 11
66.5633
 21
5.07704
  0
LINE
  8
0
 10
66.5633
 20
5.07704
 11
66.5907
 21
5.19966
  0
LINE
  8
0
 10
66.5907
 20
5.19966
 11
66.6257
 21
5.32031
  0
LINE
  8
0
 10
66.6257
 20
5.32031
 11
66.6683
 21
5.43852
  0
LINE
  8
0
 10
66.6683
 20
5.43852
 11
66.7182
 21
5.55383
  0
LINE
  8
0
 10
66.7182
 20
5.55383
 11
66.7752
 21
5.66579
  0
LINE
  8
0
 10
66.7752
 20
5.66579
 11
66.8392
 21
5.77393
  0
LINE
  8
0
 10
66.8392
 20
5.77393
 11
66.9098
 21
5.87784
  0
LINE
  8
0
 10
66.9098
 20
5.87784
 11
66.9868
 21
5.97713
  0
LINE
  8
0
 10
66.9868
 20
5.97713
 11
67.0699
 21
6.07137
  0
LINE
  8
0
 10
67.0699
 20
6.07137
 11
67.1588
 21
6.16022
  0
LINE
  8
0
 10
67.1588
 20
6.16022
 11
67.253
 21
6.2433
  0
LINE
  8
0
 10
67.253
 20
6.2433
 11
67.3523
 21
6.32031
  0
LINE
  8
0
 10
67.3523
 20
6.32031
 11
67.4562
 21
6.39093
  0
LINE
  8
0
 10
67.4562
 20
6.39093
 11
67.5643
 21
6.4549
  0
LINE
  8
0
 10
67.5643
 20
6.4549
 11
67.6763
 21
6.51193
  0
LINE
  8
0
 10
67.6763
 20
6.51193
 11
67.7916
 21
6.56183
  0
LINE
  8
0
 10
67.7916
 20
6.56183
 11
67.9098
 21
6.60439
  0
LINE
  8
0
 10
67.9098
 20
6.60439
 11
68.0305
 21
6.63943
  0
LINE
  8
0
 10
68.0305
 20
6.63943
 11
68.1531
 21
6.66685
  0
LINE
  8
0
 10
68.1531
 20
6.66685
 11
68.2772
 21
6.68651
  0
LINE
  8
0
 10
68.2772
 20
6.68651
 11
68.4023
 21
6.69833
  0
LINE
  8
0
 10
68.4023
 20
6.69833
 11
68.5279
 21
6.70227
  0
LINE
  8
0
 10
68.5279
 20
6.70227
 11
68.6534
 21
6.69833
  0
LINE
  8
0
 10
68.6534
 20
6.69833
 11
68.7785
 21
6.68651
  0
LINE
  8
0
 10
68.7785
 20
6.68651
 11
68.9026
 21
6.66685
  0
LINE
  8
0
 10
68.9026
 20
6.66685
 11
69.0252
 21
6.63943
  0
LINE
  8
0
 10
69.0252
 20
6.63943
 11
69.1459
 21
6.60439
  0
LINE
  8
0
 10
69.1459
 20
6.60439
 11
69.2641
 21
6.56183
  0
LINE
  8
0
 10
69.2641
 20
6.56183
 11
69.3794
 21
6.51193
  0
LINE
  8
0
 10
69.3794
 20
6.51193
 11
69.4914
 21
6.4549
  0
LINE
  8
0
 10
69.4914
 20
6.4549
 11
69.5995
 21
6.39093
  0
LINE
  8
0
 10
69.5995
 20
6.39093
 11
69.7034
 21
6.32031
  0
LINE
  8
0
 10
69.7034
 20
6.32031
 11
69.8027
 21
6.2433
  0
LINE
  8
0
 10
69.8027
 20
6.2433
 11
69.897
 21
6.16022
  0
LINE
  8
0
 10
69.897
 20
6.16022
 11
69.9858
 21
6.07137
  0
LINE
  8
0
 10
69.9858
 20
6.07137
 11
70.0689
 21
5.97713
  0
LINE
  8
0
 10
70.0689
 20
5.97713
 11
70.1459
 21
5.87784
  0
LINE
  8
0
 10
70.1459
 20
5.87784
 11
70.2165
 21
5.77393
  0
LINE
  8
0
 10
70.2165
 20
5.77393
 11
70.2805
 21
5.66579
  0
LINE
  8
0
 10
70.2805
 20
5.66579
 11
70.3375
 21
5.55383
  0
LINE
  8
0
 10
70.3375
 20
5.55383
 11
70.3874
 21
5.43852
  0
LINE
  8
0
 10
70.3874
 20
5.43852
 11
70.43
 21
5.32031
  0
LINE
  8
0
 10
70.43
 20
5.32031
 11
70.465
 21
5.19966
  0
LINE
  8
0
 10
70.465
 20
5.19966
 11
70.4924
 21
5.07704
  0
LINE
  8
0
 10
70.4924
 20
5.07704
 11
70.5121
 21
4.95294
  0
LINE
  8
0
 10
70.5121
 20
4.95294
 11
70.5239
 21
4.82785
  0
LINE
  8
0
 10
70.5239
 20
4.82785
 11
70.5279
 21
4.70227
  0
LINE
  8
0
 10
70.5279
 20
4.70227
 11
70.5239
 21
4.57669
  0
LINE
  8
0
 10
70.5239
 20
4.57669
 11
70.5121
 21
4.45161
  0
LINE
  8
0
 10
70.5121
 20
4.45161
 11
70.4924
 21
4.32751
  0
LINE
  8
0
 10
70.4924
 20
4.32751
 11
70.465
 21
4.2049
  0
LINE
  8
0
 10
70.465
 20
4.2049
 11
70.43
 21
4.08424
  0
LINE
  8
0
 10
70.43
 20
4.08424
 11
70.3874
 21
3.96602
  0
LINE
  8
0
 10
70.3874
 20
3.96602
 11
70.3375
 21
3.85072
  0
LINE
  8
0
 10
70.3375
 20
3.85072
 11
70.2805
 21
3.73877
  0
LINE
  8
0
 10
70.2805
 20
3.73877
 11
70.2165
 21
3.63062
  0
LINE
  8
0
 10
70.2165
 20
3.63062
 11
70.1459
 21
3.5267
  0
LINE
  8
0
 10
70.1459
 20
3.5267
 11
70.0689
 21
3.42743
  0
LINE
  8
0
 10
70.0689
 20
3.42743
 11
69.9858
 21
3.33318
  0
LINE
  8
0
 10
69.9858
 20
3.33318
 11
69.897
 21
3.24434
  0
LINE
  8
0
 10
69.897
 20
3.24434
 11
69.8027
 21
3.16125
  0
LINE
  8
0
 10
69.8027
 20
3.16125
 11
69.7034
 21
3.08424
  0
LINE
  8
0
 10
69.7034
 20
3.08424
 11
69.5995
 21
3.01363
  0
LINE
  8
0
 10
69.5995
 20
3.01363
 11
69.4914
 21
2.94966
  0
LINE
  8
0
 10
69.4914
 20
2.94966
 11
69.3794
 21
2.89262
  0
LINE
  8
0
 10
69.3794
 20
2.89262
 11
69.2641
 21
2.84273
  0
LINE
  8
0
 10
69.2641
 20
2.84273
 11
69.1459
 21
2.80016
  0
LINE
  8
0
 10
69.1459
 20
2.80016
 11
69.0252
 21
2.76511
  0
LINE
  8
0
 10
69.0252
 20
2.76511
 11
68.9026
 21
2.7377
  0
LINE
  8
0
 10
68.9026
 20
2.7377
 11
68.7785
 21
2.71805
  0
LINE
  8
0
 10
68.7785
 20
2.71805
 11
68.6534
 21
2.70622
  0
LINE
  8
0
 10
68.6534
 20
2.70622
 11
68.5279
 21
2.70227
  0
LINE
  8
0
 10
68.5279
 20
2.70227
 11
68.4023
 21
2.70622
  0
ENDSEC
  0
SECTION
  2
OBJECTS
  0
DICTIONARY
  0
ENDSEC
  0
EOF
