  0
SECTION
  2
BLOCKS
  0
ENDSEC
  0
SECTION
  2
ENTITIES
  0
LINE
  8
0
 10
0
 20
230.826
 11
-75
 21
0
  0
LINE
  8
0
 10
-75
 20
0
 11
75
 21
0
  0
LINE
  8
0
 10
75
 20
0
 11
0
 21
230.826
  0
LINE
  8
0
 10
-0.12558
 20
212.83
 11
-0.250656
 21
212.842
  0
LINE
  8
0
 10
-0.250656
 20
212.842
 11
-0.374756
 21
212.862
  0
LINE
  8
0
 10
-0.374756
 20
212.862
 11
-0.497375
 21
212.889
  0
LINE
  8
0
 10
-0.497375
 20
212.889
 11
-0.618027
 21
212.924
  0
LINE
  8
0
 10
-0.618027
 20
212.924
 11
-0.736237
 21
212.967
  0
LINE
  8
0
 10
-0.736237
 20
212.967
 11
-0.851547
 21
213.017
  0
LINE
  8
0
 10
-0.851547
 20
213.017
 11
-0.963501
 21
213.074
  0
LINE
  8
0
 10
-0.963501
 20
213.074
 11
-1.07164
 21
213.138
  0
LINE
  8
0
 10
-1.07164
 20
213.138
 11
-1.17557
 21
213.208
  0
LINE
  8
0
 10
-1.17557
 20
213.208
 11
-1.27484
 21
213.285
  0
LINE
  8
0
 10
-1.27484
 20
213.285
 11
-1.36908
 21
213.368
  0
LINE
  8
0
 10
-1.36908
 20
213.368
 11
-1.45793
 21
213.457
  0
LINE
  8
0
 10
-1.45793
 20
213.457
 11
-1.54102
 21
213.551
  0
LINE
  8
0
 10
-1.54102
 20
213.551
 11
-1.61803
 21
213.651
  0
LINE
  8
0
 10
-1.61803
 20
213.651
 11
-1.68864
 21
213.755
  0
LINE
  8
0
 10
-1.68864
 20
213.755
 11
-1.75261
 21
213.863
  0
LINE
  8
0
 10
-1.75261
 20
213.863
 11
-1.80965
 21
213.975
  0
LINE
  8
0
 10
-1.80965
 20
213.975
 11
-1.85954
 21
214.09
  0
LINE
  8
0
 10
-1.85954
 20
214.09
 11
-1.9021
 21
214.208
  0
LINE
  8
0
 10
-1.9021
 20
214.208
 11
-1.93716
 21
214.329
  0
LINE
  8
0
 10
-1.93716
 20
214.329
 11
-1.96457
 21
214.451
  0
LINE
  8
0
 10
-1.96457
 20
214.451
 11
-1.98422
 21
214.576
  0
LINE
  8
0
 10
-1.98422
 20
214.576
 11
-1.99605
 21
214.701
  0
LINE
  8
0
 10
-1.99605
 20
214.701
 11
-2
 21
214.826
  0
LINE
  8
0
 10
-2
 20
214.826
 11
-1.99605
 21
214.952
  0
LINE
  8
0
 10
-1.99605
 20
214.952
 11
-1.98422
 21
215.077
  0
LINE
  8
0
 10
-1.98422
 20
215.077
 11
-1.96457
 21
215.201
  0
LINE
  8
0
 10
-1.96457
 20
215.201
 11
-1.93716
 21
215.324
  0
LINE
  8
0
 10
-1.93716
 20
215.324
 11
-1.9021
 21
215.444
  0
LINE
  8
0
 10
-1.9021
 20
215.444
 11
-1.85954
 21
215.562
  0
LINE
  8
0
 10
-1.85954
 20
215.562
 11
-1.80965
 21
215.678
  0
LINE
  8
0
 10
-1.80965
 20
215.678
 11
-1.75261
 21
215.79
  0
LINE
  8
0
 10
-1.75261
 20
215.79
 11
-1.68864
 21
215.898
  0
LINE
  8
0
 10
-1.68864
 20
215.898
 11
-1.61803
 21
216.002
  0
LINE
  8
0
 10
-1.61803
 20
216.002
 11
-1.54102
 21
216.101
  0
LINE
  8
0
 10
-1.54102
 20
216.101
 11
-1.45793
 21
216.195
  0
LINE
  8
0
 10
-1.45793
 20
216.195
 11
-1.36908
 21
216.284
  0
LINE
  8
0
 10
-1.36908
 20
216.284
 11
-1.27484
 21
216.367
  0
LINE
  8
0
 10
-1.27484
 20
216.367
 11
-1.17557
 21
216.444
  0
LINE
  8
0
 10
-1.17557
 20
216.444
 11
-1.07164
 21
216.515
  0
LINE
  8
0
 10
-1.07164
 20
216.515
 11
-0.963501
 21
216.579
  0
LINE
  8
0
 10
-0.963501
 20
216.579
 11
-0.851547
 21
216.636
  0
LINE
  8
0
 10
-0.851547
 20
216.636
 11
-0.736237
 21
216.686
  0
LINE
  8
0
 10
-0.736237
 20
216.686
 11
-0.618027
 21
216.728
  0
LINE
  8
0
 10
-0.618027
 20
216.728
 11
-0.497375
 21
216.763
  0
LINE
  8
0
 10
-0.497375
 20
216.763
 11
-0.374756
 21
216.791
  0
LINE
  8
0
 10
-0.374756
 20
216.791
 11
-0.250656
 21
216.81
  0
LINE
  8
0
 10
-0.250656
 20
216.81
 11
-0.12558
 21
216.822
  0
LINE
  8
0
 10
-0.12558
 20
216.822
 11
0
 21
216.826
  0
LINE
  8
0
 10
0
 20
216.826
 11
0.12558
 21
216.822
  0
LINE
  8
0
 10
0.12558
 20
216.822
 11
0.250656
 21
216.81
  0
LINE
  8
0
 10
0.250656
 20
216.81
 11
0.374756
 21
216.791
  0
LINE
  8
0
 10
0.374756
 20
216.791
 11
0.497375
 21
216.763
  0
LINE
  8
0
 10
0.497375
 20
216.763
 11
0.618027
 21
216.728
  0
LINE
  8
0
 10
0.618027
 20
216.728
 11
0.736237
 21
216.686
  0
LINE
  8
0
 10
0.736237
 20
216.686
 11
0.851547
 21
216.636
  0
LINE
  8
0
 10
0.851547
 20
216.636
 11
0.963501
 21
216.579
  0
LINE
  8
0
 10
0.963501
 20
216.579
 11
1.07164
 21
216.515
  0
LINE
  8
0
 10
1.07164
 20
216.515
 11
1.17557
 21
216.444
  0
LINE
  8
0
 10
1.17557
 20
216.444
 11
1.27484
 21
216.367
  0
LINE
  8
0
 10
1.27484
 20
216.367
 11
1.36908
 21
216.284
  0
LINE
  8
0
 10
1.36908
 20
216.284
 11
1.45793
 21
216.195
  0
LINE
  8
0
 10
1.45793
 20
216.195
 11
1.54102
 21
216.101
  0
LINE
  8
0
 10
1.54102
 20
216.101
 11
1.61803
 21
216.002
  0
LINE
  8
0
 10
1.61803
 20
216.002
 11
1.68864
 21
215.898
  0
LINE
  8
0
 10
1.68864
 20
215.898
 11
1.75261
 21
215.79
  0
LINE
  8
0
 10
1.75261
 20
215.79
 11
1.80965
 21
215.678
  0
LINE
  8
0
 10
1.80965
 20
215.678
 11
1.85954
 21
215.562
  0
LINE
  8
0
 10
1.85954
 20
215.562
 11
1.9021
 21
215.444
  0
LINE
  8
0
 10
1.9021
 20
215.444
 11
1.93716
 21
215.324
  0
LINE
  8
0
 10
1.93716
 20
215.324
 11
1.96457
 21
215.201
  0
LINE
  8
0
 10
1.96457
 20
215.201
 11
1.98422
 21
215.077
  0
LINE
  8
0
 10
1.98422
 20
215.077
 11
1.99605
 21
214.952
  0
LINE
  8
0
 10
1.99605
 20
214.952
 11
2
 21
214.826
  0
LINE
  8
0
 10
2
 20
214.826
 11
1.99605
 21
214.701
  0
LINE
  8
0
 10
1.99605
 20
214.701
 11
1.98422
 21
214.576
  0
LINE
  8
0
 10
1.98422
 20
214.576
 11
1.96457
 21
214.451
  0
LINE
  8
0
 10
1.96457
 20
214.451
 11
1.93716
 21
214.329
  0
LINE
  8
0
 10
1.93716
 20
214.329
 11
1.9021
 21
214.208
  0
LINE
  8
0
 10
1.9021
 20
214.208
 11
1.85954
 21
214.09
  0
LINE
  8
0
 10
1.85954
 20
214.09
 11
1.80965
 21
213.975
  0
LINE
  8
0
 10
1.80965
 20
213.975
 11
1.75261
 21
213.863
  0
LINE
  8
0
 10
1.75261
 20
213.863
 11
1.68864
 21
213.755
  0
LINE
  8
0
 10
1.68864
 20
213.755
 11
1.61803
 21
213.651
  0
LINE
  8
0
 10
1.61803
 20
213.651
 11
1.54102
 21
213.551
  0
LINE
  8
0
 10
1.54102
 20
213.551
 11
1.45793
 21
213.457
  0
LINE
  8
0
 10
1.45793
 20
213.457
 11
1.36908
 21
213.368
  0
LINE
  8
0
 10
1.36908
 20
213.368
 11
1.27484
 21
213.285
  0
LINE
  8
0
 10
1.27484
 20
213.285
 11
1.17557
 21
213.208
  0
LINE
  8
0
 10
1.17557
 20
213.208
 11
1.07164
 21
213.138
  0
LINE
  8
0
 10
1.07164
 20
213.138
 11
0.963501
 21
213.074
  0
LINE
  8
0
 10
0.963501
 20
213.074
 11
0.851547
 21
213.017
  0
LINE
  8
0
 10
0.851547
 20
213.017
 11
0.736237
 21
212.967
  0
LINE
  8
0
 10
0.736237
 20
212.967
 11
0.618027
 21
212.924
  0
LINE
  8
0
 10
0.618027
 20
212.924
 11
0.497375
 21
212.889
  0
LINE
  8
0
 10
0.497375
 20
212.889
 11
0.374756
 21
212.862
  0
LINE
  8
0
 10
0.374756
 20
212.862
 11
0.250656
 21
212.842
  0
LINE
  8
0
 10
0.250656
 20
212.842
 11
0.12558
 21
212.83
  0
LINE
  8
0
 10
0.12558
 20
212.83
 11
0
 21
212.826
  0
LINE
  8
0
 10
0
 20
212.826
 11
-0.12558
 21
212.83
  0
LINE
  8
0
 10
-4.49982
 20
170.5
 11
-4.49982
 21
178.144
  0
LINE
  8
0
 10
-4.49982
 20
178.144
 11
-4.05943
 21
179.5
  0
LINE
  8
0
 10
-4.05943
 20
179.5
 11
4.05943
 21
179.5
  0
LINE
  8
0
 10
4.05943
 20
179.5
 11
4.49982
 21
178.144
  0
LINE
  8
0
 10
4.49982
 20
178.144
 11
4.49982
 21
170.5
  0
LINE
  8
0
 10
4.49982
 20
170.5
 11
-4.49982
 21
170.5
  0
LINE
  8
0
 10
-8.60818
 20
165.5
 11
-5.68402
 21
174.5
  0
LINE
  8
0
 10
-5.68402
 20
174.5
 11
-5.50018
 21
174.5
  0
LINE
  8
0
 10
-5.50018
 20
174.5
 11
-5.50018
 21
165.5
  0
LINE
  8
0
 10
-5.50018
 20
165.5
 11
-8.60818
 21
165.5
  0
LINE
  8
0
 10
0.500183
 20
160.5
 11
0.500183
 21
169.5
  0
LINE
  8
0
 10
0.500183
 20
169.5
 11
7.30862
 21
169.5
  0
LINE
  8
0
 10
7.30862
 20
169.5
 11
9.49982
 21
162.756
  0
LINE
  8
0
 10
9.49982
 20
162.756
 11
9.49982
 21
160.5
  0
LINE
  8
0
 10
9.49982
 20
160.5
 11
0.500183
 21
160.5
  0
LINE
  8
0
 10
-9.49982
 20
155.5
 11
-9.49982
 21
162.756
  0
LINE
  8
0
 10
-9.49982
 20
162.756
 11
-8.93323
 21
164.5
  0
LINE
  8
0
 10
-8.93323
 20
164.5
 11
-0.500183
 21
164.5
  0
LINE
  8
0
 10
-0.500183
 20
164.5
 11
-0.500183
 21
155.5
  0
LINE
  8
0
 10
-0.500183
 20
155.5
 11
-9.49982
 21
155.5
  0
LINE
  8
0
 10
5.50018
 20
150.5
 11
5.50018
 21
159.5
  0
LINE
  8
0
 10
5.50018
 20
159.5
 11
10.5578
 21
159.5
  0
LINE
  8
0
 10
10.5578
 20
159.5
 11
13.482
 21
150.5
  0
LINE
  8
0
 10
13.482
 20
150.5
 11
5.50018
 21
150.5
  0
LINE
  8
0
 10
-13.482
 20
150.5
 11
-10.5578
 21
159.5
  0
LINE
  8
0
 10
-10.5578
 20
159.5
 11
-10.5002
 21
159.5
  0
LINE
  8
0
 10
-10.5002
 20
159.5
 11
-10.5002
 21
150.5
  0
LINE
  8
0
 10
-10.5002
 20
150.5
 11
-13.482
 21
150.5
  0
LINE
  8
0
 10
-4.49982
 20
145.5
 11
-4.49982
 21
154.5
  0
LINE
  8
0
 10
-4.49982
 20
154.5
 11
4.49982
 21
154.5
  0
LINE
  8
0
 10
4.49982
 20
154.5
 11
4.49982
 21
145.5
  0
LINE
  8
0
 10
4.49982
 20
145.5
 11
-4.49982
 21
145.5
  0
LINE
  8
0
 10
10.5002
 20
140.5
 11
10.5002
 21
149.5
  0
LINE
  8
0
 10
10.5002
 20
149.5
 11
13.807
 21
149.5
  0
LINE
  8
0
 10
13.807
 20
149.5
 11
16.7312
 21
140.5
  0
LINE
  8
0
 10
16.7312
 20
140.5
 11
10.5002
 21
140.5
  0
LINE
  8
0
 10
-14.4998
 20
140.5
 11
-14.4998
 21
147.368
  0
LINE
  8
0
 10
-14.4998
 20
147.368
 11
-13.807
 21
149.5
  0
LINE
  8
0
 10
-13.807
 20
149.5
 11
-5.50018
 21
149.5
  0
LINE
  8
0
 10
-5.50018
 20
149.5
 11
-5.50018
 21
140.5
  0
LINE
  8
0
 10
-5.50018
 20
140.5
 11
-14.4998
 21
140.5
  0
LINE
  8
0
 10
0.500183
 20
135.5
 11
0.500183
 21
144.5
  0
LINE
  8
0
 10
0.500183
 20
144.5
 11
9.49982
 21
144.5
  0
LINE
  8
0
 10
9.49982
 20
144.5
 11
9.49982
 21
135.5
  0
LINE
  8
0
 10
9.49982
 20
135.5
 11
0.500183
 21
135.5
  0
LINE
  8
0
 10
-18.3558
 20
135.5
 11
-15.5002
 21
144.289
  0
LINE
  8
0
 10
-15.5002
 20
144.289
 11
-15.5002
 21
135.5
  0
LINE
  8
0
 10
-15.5002
 20
135.5
 11
-18.3558
 21
135.5
  0
LINE
  8
0
 10
15.5002
 20
130.5
 11
15.5002
 21
139.5
  0
LINE
  8
0
 10
15.5002
 20
139.5
 11
17.0562
 21
139.5
  0
LINE
  8
0
 10
17.0562
 20
139.5
 11
19.9804
 21
130.5
  0
LINE
  8
0
 10
19.9804
 20
130.5
 11
15.5002
 21
130.5
  0
LINE
  8
0
 10
-9.49982
 20
130.5
 11
-9.49982
 21
139.5
  0
LINE
  8
0
 10
-9.49982
 20
139.5
 11
-0.500183
 21
139.5
  0
LINE
  8
0
 10
-0.500183
 20
139.5
 11
-0.500183
 21
130.5
  0
LINE
  8
0
 10
-0.500183
 20
130.5
 11
-9.49982
 21
130.5
  0
LINE
  8
0
 10
5.50018
 20
125.5
 11
5.50018
 21
134.5
  0
LINE
  8
0
 10
5.50018
 20
134.5
 11
14.4998
 21
134.5
  0
LINE
  8
0
 10
14.4998
 20
134.5
 11
14.4998
 21
125.5
  0
LINE
  8
0
 10
14.4998
 20
125.5
 11
5.50018
 21
125.5
  0
LINE
  8
0
 10
-19.4998
 20
125.5
 11
-19.4998
 21
131.979
  0
LINE
  8
0
 10
-19.4998
 20
131.979
 11
-18.6808
 21
134.5
  0
LINE
  8
0
 10
-18.6808
 20
134.5
 11
-10.5002
 21
134.5
  0
LINE
  8
0
 10
-10.5002
 20
134.5
 11
-10.5002
 21
125.5
  0
LINE
  8
0
 10
-10.5002
 20
125.5
 11
-19.4998
 21
125.5
  0
LINE
  8
0
 10
-4.49982
 20
120.5
 11
-4.49982
 21
129.5
  0
LINE
  8
0
 10
-4.49982
 20
129.5
 11
4.49982
 21
129.5
  0
LINE
  8
0
 10
4.49982
 20
129.5
 11
4.49982
 21
120.5
  0
LINE
  8
0
 10
4.49982
 20
120.5
 11
-4.49982
 21
120.5
  0
LINE
  8
0
 10
20.5002
 20
120.5
 11
20.5002
 21
128.9
  0
LINE
  8
0
 10
20.5002
 20
128.9
 11
23.2296
 21
120.5
  0
LINE
  8
0
 10
23.2296
 20
120.5
 11
20.5002
 21
120.5
  0
LINE
  8
0
 10
-23.2296
 20
120.5
 11
-20.5002
 21
128.9
  0
LINE
  8
0
 10
-20.5002
 20
128.9
 11
-20.5002
 21
120.5
  0
LINE
  8
0
 10
-20.5002
 20
120.5
 11
-23.2296
 21
120.5
  0
LINE
  8
0
 10
10.5002
 20
115.5
 11
10.5002
 21
124.5
  0
LINE
  8
0
 10
10.5002
 20
124.5
 11
19.4998
 21
124.5
  0
LINE
  8
0
 10
19.4998
 20
124.5
 11
19.4998
 21
115.5
  0
LINE
  8
0
 10
19.4998
 20
115.5
 11
10.5002
 21
115.5
  0
LINE
  8
0
 10
-14.4998
 20
115.5
 11
-14.4998
 21
124.5
  0
LINE
  8
0
 10
-14.4998
 20
124.5
 11
-5.50018
 21
124.5
  0
LINE
  8
0
 10
-5.50018
 20
124.5
 11
-5.50018
 21
115.5
  0
LINE
  8
0
 10
-5.50018
 20
115.5
 11
-14.4998
 21
115.5
  0
LINE
  8
0
 10
0.500183
 20
110.5
 11
0.500183
 21
119.5
  0
LINE
  8
0
 10
0.500183
 20
119.5
 11
9.49982
 21
119.5
  0
LINE
  8
0
 10
9.49982
 20
119.5
 11
9.49982
 21
110.5
  0
LINE
  8
0
 10
9.49982
 20
110.5
 11
0.500183
 21
110.5
  0
LINE
  8
0
 10
-24.4998
 20
110.5
 11
-24.4998
 21
116.591
  0
LINE
  8
0
 10
-24.4998
 20
116.591
 11
-23.5546
 21
119.5
  0
LINE
  8
0
 10
-23.5546
 20
119.5
 11
-15.5002
 21
119.5
  0
LINE
  8
0
 10
-15.5002
 20
119.5
 11
-15.5002
 21
110.5
  0
LINE
  8
0
 10
-15.5002
 20
110.5
 11
-24.4998
 21
110.5
  0
LINE
  8
0
 10
15.5002
 20
105.5
 11
15.5002
 21
114.5
  0
LINE
  8
0
 10
15.5002
 20
114.5
 11
24.4998
 21
114.5
  0
LINE
  8
0
 10
24.4998
 20
114.5
 11
24.4998
 21
105.5
  0
LINE
  8
0
 10
24.4998
 20
105.5
 11
15.5002
 21
105.5
  0
LINE
  8
0
 10
-9.49982
 20
105.5
 11
-9.49982
 21
114.5
  0
LINE
  8
0
 10
-9.49982
 20
114.5
 11
-0.500183
 21
114.5
  0
LINE
  8
0
 10
-0.500183
 20
114.5
 11
-0.500183
 21
105.5
  0
LINE
  8
0
 10
-0.500183
 20
105.5
 11
-9.49982
 21
105.5
  0
LINE
  8
0
 10
-28.1034
 20
105.5
 11
-25.5002
 21
113.512
  0
LINE
  8
0
 10
-25.5002
 20
113.512
 11
-25.5002
 21
105.5
  0
LINE
  8
0
 10
-25.5002
 20
105.5
 11
-28.1034
 21
105.5
  0
LINE
  8
0
 10
25.5002
 20
110.5
 11
25.5002
 21
113.512
  0
LINE
  8
0
 10
25.5002
 20
113.512
 11
26.4788
 21
110.5
  0
LINE
  8
0
 10
26.4788
 20
110.5
 11
25.5002
 21
110.5
  0
LINE
  8
0
 10
5.50018
 20
100.5
 11
5.50018
 21
109.5
  0
LINE
  8
0
 10
5.50018
 20
109.5
 11
14.4998
 21
109.5
  0
LINE
  8
0
 10
14.4998
 20
109.5
 11
14.4998
 21
100.5
  0
LINE
  8
0
 10
14.4998
 20
100.5
 11
5.50018
 21
100.5
  0
LINE
  8
0
 10
-19.4998
 20
100.5
 11
-19.4998
 21
109.5
  0
LINE
  8
0
 10
-19.4998
 20
109.5
 11
-10.5002
 21
109.5
  0
LINE
  8
0
 10
-10.5002
 20
109.5
 11
-10.5002
 21
100.5
  0
LINE
  8
0
 10
-10.5002
 20
100.5
 11
-19.4998
 21
100.5
  0
LINE
  8
0
 10
-4.49982
 20
95.5002
 11
-4.49982
 21
104.5
  0
LINE
  8
0
 10
-4.49982
 20
104.5
 11
4.49982
 21
104.5
  0
LINE
  8
0
 10
4.49982
 20
104.5
 11
4.49982
 21
95.5002
  0
LINE
  8
0
 10
4.49982
 20
95.5002
 11
-4.49982
 21
95.5002
  0
LINE
  8
0
 10
-29.4998
 20
95.5002
 11
-29.4998
 21
101.202
  0
LINE
  8
0
 10
-29.4998
 20
101.202
 11
-28.4284
 21
104.5
  0
LINE
  8
0
 10
-28.4284
 20
104.5
 11
-20.5002
 21
104.5
  0
LINE
  8
0
 10
-20.5002
 20
104.5
 11
-20.5002
 21
95.5002
  0
LINE
  8
0
 10
-20.5002
 20
95.5002
 11
-29.4998
 21
95.5002
  0
LINE
  8
0
 10
20.5002
 20
95.5002
 11
20.5002
 21
104.5
  0
LINE
  8
0
 10
20.5002
 20
104.5
 11
28.4284
 21
104.5
  0
LINE
  8
0
 10
28.4284
 20
104.5
 11
29.4998
 21
101.202
  0
LINE
  8
0
 10
29.4998
 20
101.202
 11
29.4998
 21
95.5002
  0
LINE
  8
0
 10
29.4998
 20
95.5002
 11
20.5002
 21
95.5002
  0
LINE
  8
0
 10
10.5002
 20
90.5002
 11
10.5002
 21
99.4998
  0
LINE
  8
0
 10
10.5002
 20
99.4998
 11
19.4998
 21
99.4998
  0
LINE
  8
0
 10
19.4998
 20
99.4998
 11
19.4998
 21
90.5002
  0
LINE
  8
0
 10
19.4998
 20
90.5002
 11
10.5002
 21
90.5002
  0
LINE
  8
0
 10
-14.4998
 20
90.5002
 11
-14.4998
 21
99.4998
  0
LINE
  8
0
 10
-14.4998
 20
99.4998
 11
-5.50018
 21
99.4998
  0
LINE
  8
0
 10
-5.50018
 20
99.4998
 11
-5.50018
 21
90.5002
  0
LINE
  8
0
 10
-5.50018
 20
90.5002
 11
-14.4998
 21
90.5002
  0
LINE
  8
0
 10
-32.9772
 20
90.5002
 11
-30.5002
 21
98.1235
  0
LINE
  8
0
 10
-30.5002
 20
98.1235
 11
-30.5002
 21
90.5002
  0
LINE
  8
0
 10
-30.5002
 20
90.5002
 11
-32.9772
 21
90.5002
  0
LINE
  8
0
 10
-24.4998
 20
85.5002
 11
-24.4998
 21
94.4998
  0
LINE
  8
0
 10
-24.4998
 20
94.4998
 11
-15.5002
 21
94.4998
  0
LINE
  8
0
 10
-15.5002
 20
94.4998
 11
-15.5002
 21
85.5002
  0
LINE
  8
0
 10
-15.5002
 20
85.5002
 11
-24.4998
 21
85.5002
  0
LINE
  8
0
 10
0.500183
 20
85.5002
 11
0.500183
 21
94.4998
  0
LINE
  8
0
 10
0.500183
 20
94.4998
 11
9.49982
 21
94.4998
  0
LINE
  8
0
 10
9.49982
 20
94.4998
 11
9.49982
 21
85.5002
  0
LINE
  8
0
 10
9.49982
 20
85.5002
 11
0.500183
 21
85.5002
  0
LINE
  8
0
 10
25.5002
 20
85.5002
 11
25.5002
 21
94.4998
  0
LINE
  8
0
 10
25.5002
 20
94.4998
 11
31.6776
 21
94.4998
  0
LINE
  8
0
 10
31.6776
 20
94.4998
 11
34.4998
 21
85.8139
  0
LINE
  8
0
 10
34.4998
 20
85.8139
 11
34.4998
 21
85.5002
  0
LINE
  8
0
 10
34.4998
 20
85.5002
 11
25.5002
 21
85.5002
  0
LINE
  8
0
 10
-9.49982
 20
80.5002
 11
-9.49982
 21
89.4998
  0
LINE
  8
0
 10
-9.49982
 20
89.4998
 11
-0.500183
 21
89.4998
  0
LINE
  8
0
 10
-0.500183
 20
89.4998
 11
-0.500183
 21
80.5002
  0
LINE
  8
0
 10
-0.500183
 20
80.5002
 11
-9.49982
 21
80.5002
  0
LINE
  8
0
 10
15.5002
 20
80.5002
 11
15.5002
 21
89.4998
  0
LINE
  8
0
 10
15.5002
 20
89.4998
 11
24.4998
 21
89.4998
  0
LINE
  8
0
 10
24.4998
 20
89.4998
 11
24.4998
 21
80.5002
  0
LINE
  8
0
 10
24.4998
 20
80.5002
 11
15.5002
 21
80.5002
  0
LINE
  8
0
 10
-34.4998
 20
80.5002
 11
-34.4998
 21
85.8139
  0
LINE
  8
0
 10
-34.4998
 20
85.8139
 11
-33.3022
 21
89.4998
  0
LINE
  8
0
 10
-33.3022
 20
89.4998
 11
-25.5002
 21
89.4998
  0
LINE
  8
0
 10
-25.5002
 20
89.4998
 11
-25.5002
 21
80.5002
  0
LINE
  8
0
 10
-25.5002
 20
80.5002
 11
-34.4998
 21
80.5002
  0
LINE
  8
0
 10
-19.4998
 20
75.5002
 11
-19.4998
 21
84.4998
  0
LINE
  8
0
 10
-19.4998
 20
84.4998
 11
-10.5002
 21
84.4998
  0
LINE
  8
0
 10
-10.5002
 20
84.4998
 11
-10.5002
 21
75.5002
  0
LINE
  8
0
 10
-10.5002
 20
75.5002
 11
-19.4998
 21
75.5002
  0
LINE
  8
0
 10
30.5002
 20
75.5002
 11
30.5002
 21
84.4998
  0
LINE
  8
0
 10
30.5002
 20
84.4998
 11
34.9268
 21
84.4998
  0
LINE
  8
0
 10
34.9268
 20
84.4998
 11
37.851
 21
75.5002
  0
LINE
  8
0
 10
37.851
 20
75.5002
 11
30.5002
 21
75.5002
  0
LINE
  8
0
 10
5.50018
 20
75.5002
 11
5.50018
 21
84.4998
  0
LINE
  8
0
 10
5.50018
 20
84.4998
 11
14.4998
 21
84.4998
  0
LINE
  8
0
 10
14.4998
 20
84.4998
 11
14.4998
 21
75.5002
  0
LINE
  8
0
 10
14.4998
 20
75.5002
 11
5.50018
 21
75.5002
  0
LINE
  8
0
 10
-37.851
 20
75.5002
 11
-35.5002
 21
82.7351
  0
LINE
  8
0
 10
-35.5002
 20
82.7351
 11
-35.5002
 21
75.5002
  0
LINE
  8
0
 10
-35.5002
 20
75.5002
 11
-37.851
 21
75.5002
  0
LINE
  8
0
 10
20.5002
 20
70.5002
 11
20.5002
 21
79.4998
  0
LINE
  8
0
 10
20.5002
 20
79.4998
 11
29.4998
 21
79.4998
  0
LINE
  8
0
 10
29.4998
 20
79.4998
 11
29.4998
 21
70.5002
  0
LINE
  8
0
 10
29.4998
 20
70.5002
 11
20.5002
 21
70.5002
  0
LINE
  8
0
 10
-4.49982
 20
70.5002
 11
-4.49982
 21
79.4998
  0
LINE
  8
0
 10
-4.49982
 20
79.4998
 11
4.49982
 21
79.4998
  0
LINE
  8
0
 10
4.49982
 20
79.4998
 11
4.49982
 21
70.5002
  0
LINE
  8
0
 10
4.49982
 20
70.5002
 11
-4.49982
 21
70.5002
  0
LINE
  8
0
 10
-29.4998
 20
70.5002
 11
-29.4998
 21
79.4998
  0
LINE
  8
0
 10
-29.4998
 20
79.4998
 11
-20.5002
 21
79.4998
  0
LINE
  8
0
 10
-20.5002
 20
79.4998
 11
-20.5002
 21
70.5002
  0
LINE
  8
0
 10
-20.5002
 20
70.5002
 11
-29.4998
 21
70.5002
  0
LINE
  8
0
 10
-14.4998
 20
65.5002
 11
-14.4998
 21
74.4998
  0
LINE
  8
0
 10
-14.4998
 20
74.4998
 11
-5.50018
 21
74.4998
  0
LINE
  8
0
 10
-5.50018
 20
74.4998
 11
-5.50018
 21
65.5002
  0
LINE
  8
0
 10
-5.50018
 20
65.5002
 11
-14.4998
 21
65.5002
  0
LINE
  8
0
 10
35.5002
 20
65.5002
 11
35.5002
 21
74.4998
  0
LINE
  8
0
 10
35.5002
 20
74.4998
 11
38.176
 21
74.4998
  0
LINE
  8
0
 10
38.176
 20
74.4998
 11
41.1002
 21
65.5002
  0
LINE
  8
0
 10
41.1002
 20
65.5002
 11
35.5002
 21
65.5002
  0
LINE
  8
0
 10
10.5002
 20
65.5002
 11
10.5002
 21
74.4998
  0
LINE
  8
0
 10
10.5002
 20
74.4998
 11
19.4998
 21
74.4998
  0
LINE
  8
0
 10
19.4998
 20
74.4998
 11
19.4998
 21
65.5002
  0
LINE
  8
0
 10
19.4998
 20
65.5002
 11
10.5002
 21
65.5002
  0
LINE
  8
0
 10
-39.4998
 20
65.5002
 11
-39.4998
 21
70.4255
  0
LINE
  8
0
 10
-39.4998
 20
70.4255
 11
-38.176
 21
74.4998
  0
LINE
  8
0
 10
-38.176
 20
74.4998
 11
-30.5002
 21
74.4998
  0
LINE
  8
0
 10
-30.5002
 20
74.4998
 11
-30.5002
 21
65.5002
  0
LINE
  8
0
 10
-30.5002
 20
65.5002
 11
-39.4998
 21
65.5002
  0
LINE
  8
0
 10
0.500183
 20
60.5002
 11
0.500183
 21
69.4998
  0
LINE
  8
0
 10
0.500183
 20
69.4998
 11
9.49982
 21
69.4998
  0
LINE
  8
0
 10
9.49982
 20
69.4998
 11
9.49982
 21
60.5002
  0
LINE
  8
0
 10
9.49982
 20
60.5002
 11
0.500183
 21
60.5002
  0
LINE
  8
0
 10
-24.4998
 20
60.5002
 11
-24.4998
 21
69.4998
  0
LINE
  8
0
 10
-24.4998
 20
69.4998
 11
-15.5002
 21
69.4998
  0
LINE
  8
0
 10
-15.5002
 20
69.4998
 11
-15.5002
 21
60.5002
  0
LINE
  8
0
 10
-15.5002
 20
60.5002
 11
-24.4998
 21
60.5002
  0
LINE
  8
0
 10
25.5002
 20
60.5002
 11
25.5002
 21
69.4998
  0
LINE
  8
0
 10
25.5002
 20
69.4998
 11
34.4998
 21
69.4998
  0
LINE
  8
0
 10
34.4998
 20
69.4998
 11
34.4998
 21
60.5002
  0
LINE
  8
0
 10
34.4998
 20
60.5002
 11
25.5002
 21
60.5002
  0
LINE
  8
0
 10
-42.7247
 20
60.5002
 11
-40.5002
 21
67.3467
  0
LINE
  8
0
 10
-40.5002
 20
67.3467
 11
-40.5002
 21
60.5002
  0
LINE
  8
0
 10
-40.5002
 20
60.5002
 11
-42.7247
 21
60.5002
  0
LINE
  8
0
 10
-9.49982
 20
55.5002
 11
-9.49982
 21
64.4998
  0
LINE
  8
0
 10
-9.49982
 20
64.4998
 11
-0.500183
 21
64.4998
  0
LINE
  8
0
 10
-0.500183
 20
64.4998
 11
-0.500183
 21
55.5002
  0
LINE
  8
0
 10
-0.500183
 20
55.5002
 11
-9.49982
 21
55.5002
  0
LINE
  8
0
 10
15.5002
 20
55.5002
 11
15.5002
 21
64.4998
  0
LINE
  8
0
 10
15.5002
 20
64.4998
 11
24.4998
 21
64.4998
  0
LINE
  8
0
 10
24.4998
 20
64.4998
 11
24.4998
 21
55.5002
  0
LINE
  8
0
 10
24.4998
 20
55.5002
 11
15.5002
 21
55.5002
  0
LINE
  8
0
 10
-34.4998
 20
55.5002
 11
-34.4998
 21
64.4998
  0
LINE
  8
0
 10
-34.4998
 20
64.4998
 11
-25.5002
 21
64.4998
  0
LINE
  8
0
 10
-25.5002
 20
64.4998
 11
-25.5002
 21
55.5002
  0
LINE
  8
0
 10
-25.5002
 20
55.5002
 11
-34.4998
 21
55.5002
  0
LINE
  8
0
 10
40.5002
 20
55.5002
 11
40.5002
 21
64.4998
  0
LINE
  8
0
 10
40.5002
 20
64.4998
 11
41.4252
 21
64.4998
  0
LINE
  8
0
 10
41.4252
 20
64.4998
 11
44.3493
 21
55.5002
  0
LINE
  8
0
 10
44.3493
 20
55.5002
 11
40.5002
 21
55.5002
  0
LINE
  8
0
 10
30.5002
 20
50.5002
 11
30.5002
 21
59.4998
  0
LINE
  8
0
 10
30.5002
 20
59.4998
 11
39.4998
 21
59.4998
  0
LINE
  8
0
 10
39.4998
 20
59.4998
 11
39.4998
 21
50.5002
  0
LINE
  8
0
 10
39.4998
 20
50.5002
 11
30.5002
 21
50.5002
  0
LINE
  8
0
 10
5.50018
 20
50.5002
 11
5.50018
 21
59.4998
  0
LINE
  8
0
 10
5.50018
 20
59.4998
 11
14.4998
 21
59.4998
  0
LINE
  8
0
 10
14.4998
 20
59.4998
 11
14.4998
 21
50.5002
  0
LINE
  8
0
 10
14.4998
 20
50.5002
 11
5.50018
 21
50.5002
  0
LINE
  8
0
 10
-19.4998
 20
50.5002
 11
-19.4998
 21
59.4998
  0
LINE
  8
0
 10
-19.4998
 20
59.4998
 11
-10.5002
 21
59.4998
  0
LINE
  8
0
 10
-10.5002
 20
59.4998
 11
-10.5002
 21
50.5002
  0
LINE
  8
0
 10
-10.5002
 20
50.5002
 11
-19.4998
 21
50.5002
  0
LINE
  8
0
 10
-44.4998
 20
50.5002
 11
-44.4998
 21
55.0371
  0
LINE
  8
0
 10
-44.4998
 20
55.0371
 11
-43.0498
 21
59.4998
  0
LINE
  8
0
 10
-43.0498
 20
59.4998
 11
-35.5002
 21
59.4998
  0
LINE
  8
0
 10
-35.5002
 20
59.4998
 11
-35.5002
 21
50.5002
  0
LINE
  8
0
 10
-35.5002
 20
50.5002
 11
-44.4998
 21
50.5002
  0
LINE
  8
0
 10
20.5002
 20
45.5002
 11
20.5002
 21
54.4998
  0
LINE
  8
0
 10
20.5002
 20
54.4998
 11
29.4998
 21
54.4998
  0
LINE
  8
0
 10
29.4998
 20
54.4998
 11
29.4998
 21
45.5002
  0
LINE
  8
0
 10
29.4998
 20
45.5002
 11
20.5002
 21
45.5002
  0
LINE
  8
0
 10
-4.49982
 20
45.5002
 11
-4.49982
 21
54.4998
  0
LINE
  8
0
 10
-4.49982
 20
54.4998
 11
4.49982
 21
54.4998
  0
LINE
  8
0
 10
4.49982
 20
54.4998
 11
4.49982
 21
45.5002
  0
LINE
  8
0
 10
4.49982
 20
45.5002
 11
-4.49982
 21
45.5002
  0
LINE
  8
0
 10
-29.4998
 20
45.5002
 11
-29.4998
 21
54.4998
  0
LINE
  8
0
 10
-29.4998
 20
54.4998
 11
-20.5002
 21
54.4998
  0
LINE
  8
0
 10
-20.5002
 20
54.4998
 11
-20.5002
 21
45.5002
  0
LINE
  8
0
 10
-20.5002
 20
45.5002
 11
-29.4998
 21
45.5002
  0
LINE
  8
0
 10
-47.5985
 20
45.5002
 11
-45.5002
 21
51.9583
  0
LINE
  8
0
 10
-45.5002
 20
51.9583
 11
-45.5002
 21
45.5002
  0
LINE
  8
0
 10
-45.5002
 20
45.5002
 11
-47.5985
 21
45.5002
  0
LINE
  8
0
 10
45.5002
 20
45.5002
 11
45.5002
 21
51.9583
  0
LINE
  8
0
 10
45.5002
 20
51.9583
 11
47.5985
 21
45.5002
  0
LINE
  8
0
 10
47.5985
 20
45.5002
 11
45.5002
 21
45.5002
  0
LINE
  8
0
 10
-39.4998
 20
40.5002
 11
-39.4998
 21
49.4998
  0
LINE
  8
0
 10
-39.4998
 20
49.4998
 11
-30.5002
 21
49.4998
  0
LINE
  8
0
 10
-30.5002
 20
49.4998
 11
-30.5002
 21
40.5002
  0
LINE
  8
0
 10
-30.5002
 20
40.5002
 11
-39.4998
 21
40.5002
  0
LINE
  8
0
 10
10.5002
 20
40.5002
 11
10.5002
 21
49.4998
  0
LINE
  8
0
 10
10.5002
 20
49.4998
 11
19.4998
 21
49.4998
  0
LINE
  8
0
 10
19.4998
 20
49.4998
 11
19.4998
 21
40.5002
  0
LINE
  8
0
 10
19.4998
 20
40.5002
 11
10.5002
 21
40.5002
  0
LINE
  8
0
 10
-14.4998
 20
40.5002
 11
-14.4998
 21
49.4998
  0
LINE
  8
0
 10
-14.4998
 20
49.4998
 11
-5.50018
 21
49.4998
  0
LINE
  8
0
 10
-5.50018
 20
49.4998
 11
-5.50018
 21
40.5002
  0
LINE
  8
0
 10
-5.50018
 20
40.5002
 11
-14.4998
 21
40.5002
  0
LINE
  8
0
 10
35.5002
 20
40.5002
 11
35.5002
 21
49.4998
  0
LINE
  8
0
 10
35.5002
 20
49.4998
 11
44.4998
 21
49.4998
  0
LINE
  8
0
 10
44.4998
 20
49.4998
 11
44.4998
 21
40.5002
  0
LINE
  8
0
 10
44.4998
 20
40.5002
 11
35.5002
 21
40.5002
  0
LINE
  8
0
 10
0.500183
 20
35.5002
 11
0.500183
 21
44.4998
  0
LINE
  8
0
 10
0.500183
 20
44.4998
 11
9.49982
 21
44.4998
  0
LINE
  8
0
 10
9.49982
 20
44.4998
 11
9.49982
 21
35.5002
  0
LINE
  8
0
 10
9.49982
 20
35.5002
 11
0.500183
 21
35.5002
  0
LINE
  8
0
 10
-24.4998
 20
35.5002
 11
-24.4998
 21
44.4998
  0
LINE
  8
0
 10
-24.4998
 20
44.4998
 11
-15.5002
 21
44.4998
  0
LINE
  8
0
 10
-15.5002
 20
44.4998
 11
-15.5002
 21
35.5002
  0
LINE
  8
0
 10
-15.5002
 20
35.5002
 11
-24.4998
 21
35.5002
  0
LINE
  8
0
 10
25.5002
 20
35.5002
 11
25.5002
 21
44.4998
  0
LINE
  8
0
 10
25.5002
 20
44.4998
 11
34.4998
 21
44.4998
  0
LINE
  8
0
 10
34.4998
 20
44.4998
 11
34.4998
 21
35.5002
  0
LINE
  8
0
 10
34.4998
 20
35.5002
 11
25.5002
 21
35.5002
  0
LINE
  8
0
 10
-49.4998
 20
35.5002
 11
-49.4998
 21
39.6487
  0
LINE
  8
0
 10
-49.4998
 20
39.6487
 11
-47.9236
 21
44.4998
  0
LINE
  8
0
 10
-47.9236
 20
44.4998
 11
-40.5002
 21
44.4998
  0
LINE
  8
0
 10
-40.5002
 20
44.4998
 11
-40.5002
 21
35.5002
  0
LINE
  8
0
 10
-40.5002
 20
35.5002
 11
-49.4998
 21
35.5002
  0
LINE
  8
0
 10
-9.49982
 20
30.5002
 11
-9.49982
 21
39.4998
  0
LINE
  8
0
 10
-9.49982
 20
39.4998
 11
-0.500183
 21
39.4998
  0
LINE
  8
0
 10
-0.500183
 20
39.4998
 11
-0.500183
 21
30.5002
  0
LINE
  8
0
 10
-0.500183
 20
30.5002
 11
-9.49982
 21
30.5002
  0
LINE
  8
0
 10
-34.4998
 20
30.5002
 11
-34.4998
 21
39.4998
  0
LINE
  8
0
 10
-34.4998
 20
39.4998
 11
-25.5002
 21
39.4998
  0
LINE
  8
0
 10
-25.5002
 20
39.4998
 11
-25.5002
 21
30.5002
  0
LINE
  8
0
 10
-25.5002
 20
30.5002
 11
-34.4998
 21
30.5002
  0
LINE
  8
0
 10
15.5002
 20
30.5002
 11
15.5002
 21
39.4998
  0
LINE
  8
0
 10
15.5002
 20
39.4998
 11
24.4998
 21
39.4998
  0
LINE
  8
0
 10
24.4998
 20
39.4998
 11
24.4998
 21
30.5002
  0
LINE
  8
0
 10
24.4998
 20
30.5002
 11
15.5002
 21
30.5002
  0
LINE
  8
0
 10
40.5002
 20
30.5002
 11
40.5002
 21
39.4998
  0
LINE
  8
0
 10
40.5002
 20
39.4998
 11
49.4998
 21
39.4998
  0
LINE
  8
0
 10
49.4998
 20
39.4998
 11
49.4998
 21
30.5002
  0
LINE
  8
0
 10
49.4998
 20
30.5002
 11
40.5002
 21
30.5002
  0
LINE
  8
0
 10
-52.4723
 20
30.5002
 11
-50.5002
 21
36.5699
  0
LINE
  8
0
 10
-50.5002
 20
36.5699
 11
-50.5002
 21
30.5002
  0
LINE
  8
0
 10
-50.5002
 20
30.5002
 11
-52.4723
 21
30.5002
  0
LINE
  8
0
 10
50.5002
 20
35.5002
 11
50.5002
 21
36.5699
  0
LINE
  8
0
 10
50.5002
 20
36.5699
 11
50.8477
 21
35.5002
  0
LINE
  8
0
 10
50.8477
 20
35.5002
 11
50.5002
 21
35.5002
  0
LINE
  8
0
 10
-19.4998
 20
25.5002
 11
-19.4998
 21
34.4998
  0
LINE
  8
0
 10
-19.4998
 20
34.4998
 11
-10.5002
 21
34.4998
  0
LINE
  8
0
 10
-10.5002
 20
34.4998
 11
-10.5002
 21
25.5002
  0
LINE
  8
0
 10
-10.5002
 20
25.5002
 11
-19.4998
 21
25.5002
  0
LINE
  8
0
 10
-44.4998
 20
25.5002
 11
-44.4998
 21
34.4998
  0
LINE
  8
0
 10
-44.4998
 20
34.4998
 11
-35.5002
 21
34.4998
  0
LINE
  8
0
 10
-35.5002
 20
34.4998
 11
-35.5002
 21
25.5002
  0
LINE
  8
0
 10
-35.5002
 20
25.5002
 11
-44.4998
 21
25.5002
  0
LINE
  8
0
 10
30.5002
 20
25.5002
 11
30.5002
 21
34.4998
  0
LINE
  8
0
 10
30.5002
 20
34.4998
 11
39.4998
 21
34.4998
  0
LINE
  8
0
 10
39.4998
 20
34.4998
 11
39.4998
 21
25.5002
  0
LINE
  8
0
 10
39.4998
 20
25.5002
 11
30.5002
 21
25.5002
  0
LINE
  8
0
 10
5.50018
 20
25.5002
 11
5.50018
 21
34.4998
  0
LINE
  8
0
 10
5.50018
 20
34.4998
 11
14.4998
 21
34.4998
  0
LINE
  8
0
 10
14.4998
 20
34.4998
 11
14.4998
 21
25.5002
  0
LINE
  8
0
 10
14.4998
 20
25.5002
 11
5.50018
 21
25.5002
  0
LINE
  8
0
 10
-4.49982
 20
20.5002
 11
-4.49982
 21
29.4998
  0
LINE
  8
0
 10
-4.49982
 20
29.4998
 11
4.49982
 21
29.4998
  0
LINE
  8
0
 10
4.49982
 20
29.4998
 11
4.49982
 21
20.5002
  0
LINE
  8
0
 10
4.49982
 20
20.5002
 11
-4.49982
 21
20.5002
  0
LINE
  8
0
 10
-29.4998
 20
20.5002
 11
-29.4998
 21
29.4998
  0
LINE
  8
0
 10
-29.4998
 20
29.4998
 11
-20.5002
 21
29.4998
  0
LINE
  8
0
 10
-20.5002
 20
29.4998
 11
-20.5002
 21
20.5002
  0
LINE
  8
0
 10
-20.5002
 20
20.5002
 11
-29.4998
 21
20.5002
  0
LINE
  8
0
 10
20.5002
 20
20.5002
 11
20.5002
 21
29.4998
  0
LINE
  8
0
 10
20.5002
 20
29.4998
 11
29.4998
 21
29.4998
  0
LINE
  8
0
 10
29.4998
 20
29.4998
 11
29.4998
 21
20.5002
  0
LINE
  8
0
 10
29.4998
 20
20.5002
 11
20.5002
 21
20.5002
  0
LINE
  8
0
 10
45.5002
 20
20.5002
 11
45.5002
 21
29.4998
  0
LINE
  8
0
 10
45.5002
 20
29.4998
 11
52.7974
 21
29.4998
  0
LINE
  8
0
 10
52.7974
 20
29.4998
 11
54.4998
 21
24.2603
  0
LINE
  8
0
 10
54.4998
 20
24.2603
 11
54.4998
 21
20.5002
  0
LINE
  8
0
 10
54.4998
 20
20.5002
 11
45.5002
 21
20.5002
  0
LINE
  8
0
 10
-54.4998
 20
20.5002
 11
-54.4998
 21
24.2603
  0
LINE
  8
0
 10
-54.4998
 20
24.2603
 11
-52.7974
 21
29.4998
  0
LINE
  8
0
 10
-52.7974
 20
29.4998
 11
-45.5002
 21
29.4998
  0
LINE
  8
0
 10
-45.5002
 20
29.4998
 11
-45.5002
 21
20.5002
  0
LINE
  8
0
 10
-45.5002
 20
20.5002
 11
-54.4998
 21
20.5002
  0
LINE
  8
0
 10
10.5002
 20
15.5002
 11
10.5002
 21
24.4998
  0
LINE
  8
0
 10
10.5002
 20
24.4998
 11
19.4998
 21
24.4998
  0
LINE
  8
0
 10
19.4998
 20
24.4998
 11
19.4998
 21
15.5002
  0
LINE
  8
0
 10
19.4998
 20
15.5002
 11
10.5002
 21
15.5002
  0
LINE
  8
0
 10
-14.4998
 20
15.5002
 11
-14.4998
 21
24.4998
  0
LINE
  8
0
 10
-14.4998
 20
24.4998
 11
-5.50018
 21
24.4998
  0
LINE
  8
0
 10
-5.50018
 20
24.4998
 11
-5.50018
 21
15.5002
  0
LINE
  8
0
 10
-5.50018
 20
15.5002
 11
-14.4998
 21
15.5002
  0
LINE
  8
0
 10
35.5002
 20
15.5002
 11
35.5002
 21
24.4998
  0
LINE
  8
0
 10
35.5002
 20
24.4998
 11
44.4998
 21
24.4998
  0
LINE
  8
0
 10
44.4998
 20
24.4998
 11
44.4998
 21
15.5002
  0
LINE
  8
0
 10
44.4998
 20
15.5002
 11
35.5002
 21
15.5002
  0
LINE
  8
0
 10
-39.4998
 20
15.5002
 11
-39.4998
 21
24.4998
  0
LINE
  8
0
 10
-39.4998
 20
24.4998
 11
-30.5002
 21
24.4998
  0
LINE
  8
0
 10
-30.5002
 20
24.4998
 11
-30.5002
 21
15.5002
  0
LINE
  8
0
 10
-30.5002
 20
15.5002
 11
-39.4998
 21
15.5002
  0
LINE
  8
0
 10
-57.3461
 20
15.5002
 11
-55.5002
 21
21.1814
  0
LINE
  8
0
 10
-55.5002
 20
21.1814
 11
-55.5002
 21
15.5002
  0
LINE
  8
0
 10
-55.5002
 20
15.5002
 11
-57.3461
 21
15.5002
  0
LINE
  8
0
 10
50.5002
 20
12
 11
50.5002
 21
19.4998
  0
LINE
  8
0
 10
50.5002
 20
19.4998
 11
56.0466
 21
19.4998
  0
LINE
  8
0
 10
56.0466
 20
19.4998
 11
58.4834
 21
12
  0
LINE
  8
0
 10
58.4834
 20
12
 11
50.5002
 21
12
  0
LINE
  8
0
 10
0.500183
 20
12
 11
0.500183
 21
19.4998
  0
LINE
  8
0
 10
0.500183
 20
19.4998
 11
9.49982
 21
19.4998
  0
LINE
  8
0
 10
9.49982
 20
19.4998
 11
9.49982
 21
12
  0
LINE
  8
0
 10
9.49982
 20
12
 11
0.500183
 21
12
  0
LINE
  8
0
 10
-49.4998
 20
12
 11
-49.4998
 21
19.4998
  0
LINE
  8
0
 10
-49.4998
 20
19.4998
 11
-40.5002
 21
19.4998
  0
LINE
  8
0
 10
-40.5002
 20
19.4998
 11
-40.5002
 21
12
  0
LINE
  8
0
 10
-40.5002
 20
12
 11
-49.4998
 21
12
  0
LINE
  8
0
 10
25.5002
 20
12
 11
25.5002
 21
19.4998
  0
LINE
  8
0
 10
25.5002
 20
19.4998
 11
34.4998
 21
19.4998
  0
LINE
  8
0
 10
34.4998
 20
19.4998
 11
34.4998
 21
12
  0
LINE
  8
0
 10
34.4998
 20
12
 11
25.5002
 21
12
  0
LINE
  8
0
 10
-24.4998
 20
12
 11
-24.4998
 21
19.4998
  0
LINE
  8
0
 10
-24.4998
 20
19.4998
 11
-15.5002
 21
19.4998
  0
LINE
  8
0
 10
-15.5002
 20
19.4998
 11
-15.5002
 21
12
  0
LINE
  8
0
 10
-15.5002
 20
12
 11
-24.4998
 21
12
  0
LINE
  8
0
 10
40.5002
 20
12
 11
40.5002
 21
14.4998
  0
LINE
  8
0
 10
40.5002
 20
14.4998
 11
49.4998
 21
14.4998
  0
LINE
  8
0
 10
49.4998
 20
14.4998
 11
49.4998
 21
12
  0
LINE
  8
0
 10
49.4998
 20
12
 11
40.5002
 21
12
  0
LINE
  8
0
 10
-9.49982
 20
12
 11
-9.49982
 21
14.4998
  0
LINE
  8
0
 10
-9.49982
 20
14.4998
 11
-0.500183
 21
14.4998
  0
LINE
  8
0
 10
-0.500183
 20
14.4998
 11
-0.500183
 21
12
  0
LINE
  8
0
 10
-0.500183
 20
12
 11
-9.49982
 21
12
  0
LINE
  8
0
 10
15.5002
 20
12
 11
15.5002
 21
14.4998
  0
LINE
  8
0
 10
15.5002
 20
14.4998
 11
24.4998
 21
14.4998
  0
LINE
  8
0
 10
24.4998
 20
14.4998
 11
24.4998
 21
12
  0
LINE
  8
0
 10
24.4998
 20
12
 11
15.5002
 21
12
  0
LINE
  8
0
 10
-34.4998
 20
12
 11
-34.4998
 21
14.4998
  0
LINE
  8
0
 10
-34.4998
 20
14.4998
 11
-25.5002
 21
14.4998
  0
LINE
  8
0
 10
-25.5002
 20
14.4998
 11
-25.5002
 21
12
  0
LINE
  8
0
 10
-25.5002
 20
12
 11
-34.4998
 21
12
  0
LINE
  8
0
 10
-58.4834
 20
12
 11
-57.6712
 21
14.4998
  0
LINE
  8
0
 10
-57.6712
 20
14.4998
 11
-50.5002
 21
14.4998
  0
LINE
  8
0
 10
-50.5002
 20
14.4998
 11
-50.5002
 21
12
  0
LINE
  8
0
 10
-50.5002
 20
12
 11
-58.4834
 21
12
  0
LINE
  8
0
 10
-10
 20
7
 11
-10
 21
11
  0
LINE
  8
0
 10
-10
 20
11
 11
10
 21
11
  0
LINE
  8
0
 10
10
 20
11
 11
10
 21
7
  0
LINE
  8
0
 10
10
 20
7
 11
-10
 21
7
  0
LINE
  8
0
 10
-68.6534
 20
2.70622
 11
-68.7785
 21
2.71805
  0
LINE
  8
0
 10
-68.7785
 20
2.71805
 11
-68.9026
 21
2.7377
  0
LINE
  8
0
 10
-68.9026
 20
2.7377
 11
-69.0252
 21
2.76511
  0
LINE
  8
0
 10
-69.0252
 20
2.76511
 11
-69.1459
 21
2.80016
  0
LINE
  8
0
 10
-69.1459
 20
2.80016
 11
-69.2641
 21
2.84273
  0
LINE
  8
0
 10
-69.2641
 20
2.84273
 11
-69.3794
 21
2.89262
  0
LINE
  8
0
 10
-69.3794
 20
2.89262
 11
-69.4914
 21
2.94966
  0
LINE
  8
0
 10
-69.4914
 20
2.94966
 11
-69.5995
 21
3.01363
  0
LINE
  8
0
 10
-69.5995
 20
3.01363
 11
-69.7034
 21
3.08424
  0
LINE
  8
0
 10
-69.7034
 20
3.08424
 11
-69.8027
 21
3.16125
  0
LINE
  8
0
 10
-69.8027
 20
3.16125
 11
-69.897
 21
3.24434
  0
LINE
  8
0
 10
-69.897
 20
3.24434
 11
-69.9858
 21
3.33318
  0
LINE
  8
0
 10
-69.9858
 20
3.33318
 11
-70.0689
 21
3.42743
  0
LINE
  8
0
 10
-70.0689
 20
3.42743
 11
-70.1459
 21
3.5267
  0
LINE
  8
0
 10
-70.1459
 20
3.5267
 11
-70.2165
 21
3.63062
  0
LINE
  8
0
 10
-70.2165
 20
3.63062
 11
-70.2805
 21
3.73877
  0
LINE
  8
0
 10
-70.2805
 20
3.73877
 11
-70.3375
 21
3.85072
  0
LINE
  8
0
 10
-70.3375
 20
3.85072
 11
-70.3874
 21
3.96602
  0
LINE
  8
0
 10
-70.3874
 20
3.96602
 11
-70.43
 21
4.08424
  0
LINE
  8
0
 10
-70.43
 20
4.08424
 11
-70.465
 21
4.2049
  0
LINE
  8
0
 10
-70.465
 20
4.2049
 11
-70.4924
 21
4.32751
  0
LINE
  8
0
 10
-70.4924
 20
4.32751
 11
-70.5121
 21
4.45161
  0
LINE
  8
0
 10
-70.5121
 20
4.45161
 11
-70.5239
 21
4.57669
  0
LINE
  8
0
 10
-70.5239
 20
4.57669
 11
-70.5279
 21
4.70227
  0
LINE
  8
0
 10
-70.5279
 20
4.70227
 11
-70.5239
 21
4.82785
  0
LINE
  8
0
 10
-70.5239
 20
4.82785
 11
-70.5121
 21
4.95294
  0
LINE
  8
0
 10
-70.5121
 20
4.95294
 11
-70.4924
 21
5.07704
  0
LINE
  8
0
 10
-70.4924
 20
5.07704
 11
-70.465
 21
5.19966
  0
LINE
  8
0
 10
-70.465
 20
5.19966
 11
-70.43
 21
5.32031
  0
LINE
  8
0
 10
-70.43
 20
5.32031
 11
-70.3874
 21
5.43852
  0
LINE
  8
0
 10
-70.3874
 20
5.43852
 11
-70.3375
 21
5.55383
  0
LINE
  8
0
 10
-70.3375
 20
5.55383
 11
-70.2805
 21
5.66579
  0
LINE
  8
0
 10
-70.2805
 20
5.66579
 11
-70.2165
 21
5.77393
  0
LINE
  8
0
 10
-70.2165
 20
5.77393
 11
-70.1459
 21
5.87784
  0
LINE
  8
0
 10
-70.1459
 20
5.87784
 11
-70.0689
 21
5.97713
  0
LINE
  8
0
 10
-70.0689
 20
5.97713
 11
-69.9858
 21
6.07137
  0
LINE
  8
0
 10
-69.9858
 20
6.07137
 11
-69.897
 21
6.16022
  0
LINE
  8
0
 10
-69.897
 20
6.16022
 11
-69.8027
 21
6.2433
  0
LINE
  8
0
 10
-69.8027
 20
6.2433
 11
-69.7034
 21
6.32031
  0
LINE
  8
0
 10
-69.7034
 20
6.32031
 11
-69.5995
 21
6.39093
  0
LINE
  8
0
 10
-69.5995
 20
6.39093
 11
-69.4914
 21
6.4549
  0
LINE
  8
0
 10
-69.4914
 20
6.4549
 11
-69.3794
 21
6.51193
  0
LINE
  8
0
 10
-69.3794
 20
6.51193
 11
-69.2641
 21
6.56183
  0
LINE
  8
0
 10
-69.2641
 20
6.56183
 11
-69.1459
 21
6.60439
  0
LINE
  8
0
 10
-69.1459
 20
6.60439
 11
-69.0252
 21
6.63943
  0
LINE
  8
0
 10
-69.0252
 20
6.63943
 11
-68.9026
 21
6.66685
  0
LINE
  8
0
 10
-68.9026
 20
6.66685
 11
-68.7785
 21
6.68651
  0
LINE
  8
0
 10
-68.7785
 20
6.68651
 11
-68.6534
 21
6.69833
  0
LINE
  8
0
 10
-68.6534
 20
6.69833
 11
-68.5279
 21
6.70227
  0
LINE
  8
0
 10
-68.5279
 20
6.70227
 11
-68.4023
 21
6.69833
  0
LINE
  8
0
 10
-68.4023
 20
6.69833
 11
-68.2772
 21
6.68651
  0
LINE
  8
0
 10
-68.2772
 20
6.68651
 11
-68.1531
 21
6.66685
  0
LINE
  8
0
 10
-68.1531
 20
6.66685
 11
-68.0305
 21
6.63943
  0
LINE
  8
0
 10
-68.0305
 20
6.63943
 11
-67.9098
 21
6.60439
  0
LINE
  8
0
 10
-67.9098
 20
6.60439
 11
-67.7916
 21
6.56183
  0
LINE
  8
0
 10
-67.7916
 20
6.56183
 11
-67.6763
 21
6.51193
  0
LINE
  8
0
 10
-67.6763
 20
6.51193
 11
-67.5643
 21
6.4549
  0
LINE
  8
0
 10
-67.5643
 20
6.4549
 11
-67.4562
 21
6.39093
  0
LINE
  8
0
 10
-67.4562
 20
6.39093
 11
-67.3523
 21
6.32031
  0
LINE
  8
0
 10
-67.3523
 20
6.32031
 11
-67.253
 21
6.2433
  0
LINE
  8
0
 10
-67.253
 20
6.2433
 11
-67.1588
 21
6.16022
  0
LINE
  8
0
 10
-67.1588
 20
6.16022
 11
-67.0699
 21
6.07137
  0
LINE
  8
0
 10
-67.0699
 20
6.07137
 11
-66.9868
 21
5.97713
  0
LINE
  8
0
 10
-66.9868
 20
5.97713
 11
-66.9098
 21
5.87784
  0
LINE
  8
0
 10
-66.9098
 20
5.87784
 11
-66.8392
 21
5.77393
  0
LINE
  8
0
 10
-66.8392
 20
5.77393
 11
-66.7752
 21
5.66579
  0
LINE
  8
0
 10
-66.7752
 20
5.66579
 11
-66.7182
 21
5.55383
  0
LINE
  8
0
 10
-66.7182
 20
5.55383
 11
-66.6683
 21
5.43852
  0
LINE
  8
0
 10
-66.6683
 20
5.43852
 11
-66.6257
 21
5.32031
  0
LINE
  8
0
 10
-66.6257
 20
5.32031
 11
-66.5907
 21
5.19966
  0
LINE
  8
0
 10
-66.5907
 20
5.19966
 11
-66.5633
 21
5.07704
  0
LINE
  8
0
 10
-66.5633
 20
5.07704
 11
-66.5436
 21
4.95294
  0
LINE
  8
0
 10
-66.5436
 20
4.95294
 11
-66.5318
 21
4.82785
  0
LINE
  8
0
 10
-66.5318
 20
4.82785
 11
-66.5279
 21
4.70227
  0
LINE
  8
0
 10
-66.5279
 20
4.70227
 11
-66.5318
 21
4.57669
  0
LINE
  8
0
 10
-66.5318
 20
4.57669
 11
-66.5436
 21
4.45161
  0
LINE
  8
0
 10
-66.5436
 20
4.45161
 11
-66.5633
 21
4.32751
  0
LINE
  8
0
 10
-66.5633
 20
4.32751
 11
-66.5907
 21
4.2049
  0
LINE
  8
0
 10
-66.5907
 20
4.2049
 11
-66.6257
 21
4.08424
  0
LINE
  8
0
 10
-66.6257
 20
4.08424
 11
-66.6683
 21
3.96602
  0
LINE
  8
0
 10
-66.6683
 20
3.96602
 11
-66.7182
 21
3.85072
  0
LINE
  8
0
 10
-66.7182
 20
3.85072
 11
-66.7752
 21
3.73877
  0
LINE
  8
0
 10
-66.7752
 20
3.73877
 11
-66.8392
 21
3.63062
  0
LINE
  8
0
 10
-66.8392
 20
3.63062
 11
-66.9098
 21
3.5267
  0
LINE
  8
0
 10
-66.9098
 20
3.5267
 11
-66.9868
 21
3.42743
  0
LINE
  8
0
 10
-66.9868
 20
3.42743
 11
-67.0699
 21
3.33318
  0
LINE
  8
0
 10
-67.0699
 20
3.33318
 11
-67.1588
 21
3.24434
  0
LINE
  8
0
 10
-67.1588
 20
3.24434
 11
-67.253
 21
3.16125
  0
LINE
  8
0
 10
-67.253
 20
3.16125
 11
-67.3523
 21
3.08424
  0
LINE
  8
0
 10
-67.3523
 20
3.08424
 11
-67.4562
 21
3.01363
  0
LINE
  8
0
 10
-67.4562
 20
3.01363
 11
-67.5643
 21
2.94966
  0
LINE
  8
0
 10
-67.5643
 20
2.94966
 11
-67.6763
 21
2.89262
  0
LINE
  8
0
 10
-67.6763
 20
2.89262
 11
-67.7916
 21
2.84273
  0
LINE
  8
0
 10
-67.7916
 20
2.84273
 11
-67.9098
 21
2.80016
  0
LINE
  8
0
 10
-67.9098
 20
2.80016
 11
-68.0305
 21
2.76511
  0
LINE
  8
0
 10
-68.0305
 20
2.76511
 11
-68.1531
 21
2.7377
  0
LINE
  8
0
 10
-68.1531
 20
2.7377
 11
-68.2772
 21
2.71805
  0
LINE
  8
0
 10
-68.2772
 20
2.71805
 11
-68.4023
 21
2.70622
  0
LINE
  8
0
 10
-68.4023
 20
2.70622
 11
-68.5279
 21
2.70227
  0
LINE
  8
0
 10
-68.5279
 20
2.70227
 11
-68.6534
 21
2.70622
  0
LINE
  8
0
 10
68.4023
 20
2.70622
 11
68.2772
 21
2.71805
  0
LINE
  8
0
 10
68.2772
 20
2.71805
 11
68.1531
 21
2.7377
  0
LINE
  8
0
 10
68.1531
 20
2.7377
 11
68.0305
 21
2.76511
  0
LINE
  8
0
 10
68.0305
 20
2.76511
 11
67.9098
 21
2.80016
  0
LINE
  8
0
 10
67.9098
 20
2.80016
 11
67.7916
 21
2.84273
  0
LINE
  8
0
 10
67.7916
 20
2.84273
 11
67.6763
 21
2.89262
  0
LINE
  8
0
 10
67.6763
 20
2.89262
 11
67.5643
 21
2.94966
  0
LINE
  8
0
 10
67.5643
 20
2.94966
 11
67.4562
 21
3.01363
  0
LINE
  8
0
 10
67.4562
 20
3.01363
 11
67.3523
 21
3.08424
  0
LINE
  8
0
 10
67.3523
 20
3.08424
 11
67.253
 21
3.16125
  0
LINE
  8
0
 10
67.253
 20
3.16125
 11
67.1588
 21
3.24434
  0
LINE
  8
0
 10
67.1588
 20
3.24434
 11
67.0699
 21
3.33318
  0
LINE
  8
0
 10
67.0699
 20
3.33318
 11
66.9868
 21
3.42743
  0
LINE
  8
0
 10
66.9868
 20
3.42743
 11
66.9098
 21
3.5267
  0
LINE
  8
0
 10
66.9098
 20
3.5267
 11
66.8392
 21
3.63062
  0
LINE
  8
0
 10
66.8392
 20
3.63062
 11
66.7752
 21
3.73877
  0
LINE
  8
0
 10
66.7752
 20
3.73877
 11
66.7182
 21
3.85072
  0
LINE
  8
0
 10
66.7182
 20
3.85072
 11
66.6683
 21
3.96602
  0
LINE
  8
0
 10
66.6683
 20
3.96602
 11
66.6257
 21
4.08424
  0
LINE
  8
0
 10
66.6257
 20
4.08424
 11
66.5907
 21
4.2049
  0
LINE
  8
0
 10
66.5907
 20
4.2049
 11
66.5633
 21
4.32751
  0
LINE
  8
0
 10
66.5633
 20
4.32751
 11
66.5436
 21
4.45161
  0
LINE
  8
0
 10
66.5436
 20
4.45161
 11
66.5318
 21
4.57669
  0
LINE
  8
0
 10
66.5318
 20
4.57669
 11
66.5279
 21
4.70227
  0
LINE
  8
0
 10
66.5279
 20
4.70227
 11
66.5318
 21
4.82785
  0
LINE
  8
0
 10
66.5318
 20
4.82785
 11
66.5436
 21
4.95294
  0
LINE
  8
0
 10
66.5436
 20
4.95294
 11
66.5633
 21
5.07704
  0
LINE
  8
0
 10
66.5633
 20
5.07704
 11
66.5907
 21
5.19966
  0
LINE
  8
0
 10
66.5907
 20
5.19966
 11
66.6257
 21
5.32031
  0
LINE
  8
0
 10
66.6257
 20
5.32031
 11
66.6683
 21
5.43852
  0
LINE
  8
0
 10
66.6683
 20
5.43852
 11
66.7182
 21
5.55383
  0
LINE
  8
0
 10
66.7182
 20
5.55383
 11
66.7752
 21
5.66579
  0
LINE
  8
0
 10
66.7752
 20
5.66579
 11
66.8392
 21
5.77393
  0
LINE
  8
0
 10
66.8392
 20
5.77393
 11
66.9098
 21
5.87784
  0
LINE
  8
0
 10
66.9098
 20
5.87784
 11
66.9868
 21
5.97713
  0
LINE
  8
0
 10
66.9868
 20
5.97713
 11
67.0699
 21
6.07137
  0
LINE
  8
0
 10
67.0699
 20
6.07137
 11
67.1588
 21
6.16022
  0
LINE
  8
0
 10
67.1588
 20
6.16022
 11
67.253
 21
6.2433
  0
LINE
  8
0
 10
67.253
 20
6.2433
 11
67.3523
 21
6.32031
  0
LINE
  8
0
 10
67.3523
 20
6.32031
 11
67.4562
 21
6.39093
  0
LINE
  8
0
 10
67.4562
 20
6.39093
 11
67.5643
 21
6.4549
  0
LINE
  8
0
 10
67.5643
 20
6.4549
 11
67.6763
 21
6.51193
  0
LINE
  8
0
 10
67.6763
 20
6.51193
 11
67.7916
 21
6.56183
  0
LINE
  8
0
 10
67.7916
 20
6.56183
 11
67.9098
 21
6.60439
  0
LINE
  8
0
 10
67.9098
 20
6.60439
 11
68.0305
 21
6.63943
  0
LINE
  8
0
 10
68.0305
 20
6.63943
 11
68.1531
 21
6.66685
  0
LINE
  8
0
 10
68.1531
 20
6.66685
 11
68.2772
 21
6.68651
  0
LINE
  8
0
 10
68.2772
 20
6.68651
 11
68.4023
 21
6.69833
  0
LINE
  8
0
 10
68.4023
 20
6.69833
 11
68.5279
 21
6.70227
  0
LINE
  8
0
 10
68.5279
 20
6.70227
 11
68.6534
 21
6.69833
  0
LINE
  8
0
 10
68.6534
 20
6.69833
 11
68.7785
 21
6.68651
  0
LINE
  8
0
 10
68.7785
 20
6.68651
 11
68.9026
 21
6.66685
  0
LINE
  8
0
 10
68.9026
 20
6.66685
 11
69.0252
 21
6.63943
  0
LINE
  8
0
 10
69.0252
 20
6.63943
 11
69.1459
 21
6.60439
  0
LINE
  8
0
 10
69.1459
 20
6.60439
 11
69.2641
 21
6.56183
  0
LINE
  8
0
 10
69.2641
 20
6.56183
 11
69.3794
 21
6.51193
  0
LINE
  8
0
 10
69.3794
 20
6.51193
 11
69.4914
 21
6.4549
  0
LINE
  8
0
 10
69.4914
 20
6.4549
 11
69.5995
 21
6.39093
  0
LINE
  8
0
 10
69.5995
 20
6.39093
 11
69.7034
 21
6.32031
  0
LINE
  8
0
 10
69.7034
 20
6.32031
 11
69.8027
 21
6.2433
  0
LINE
  8
0
 10
69.8027
 20
6.2433
 11
69.897
 21
6.16022
  0
LINE
  8
0
 10
69.897
 20
6.16022
 11
69.9858
 21
6.07137
  0
LINE
  8
0
 10
69.9858
 20
6.07137
 11
70.0689
 21
5.97713
  0
LINE
  8
0
 10
70.0689
 20
5.97713
 11
70.1459
 21
5.87784
  0
LINE
  8
0
 10
70.1459
 20
5.87784
 11
70.2165
 21
5.77393
  0
LINE
  8
0
 10
70.2165
 20
5.77393
 11
70.2805
 21
5.66579
  0
LINE
  8
0
 10
70.2805
 20
5.66579
 11
70.3375
 21
5.55383
  0
LINE
  8
0
 10
70.3375
 20
5.55383
 11
70.3874
 21
5.43852
  0
LINE
  8
0
 10
70.3874
 20
5.43852
 11
70.43
 21
5.32031
  0
LINE
  8
0
 10
70.43
 20
5.32031
 11
70.465
 21
5.19966
  0
LINE
  8
0
 10
70.465
 20
5.19966
 11
70.4924
 21
5.07704
  0
LINE
  8
0
 10
70.4924
 20
5.07704
 11
70.5121
 21
4.95294
  0
LINE
  8
0
 10
70.5121
 20
4.95294
 11
70.5239
 21
4.82785
  0
LINE
  8
0
 10
70.5239
 20
4.82785
 11
70.5279
 21
4.70227
  0
LINE
  8
0
 10
70.5279
 20
4.70227
 11
70.5239
 21
4.57669
  0
LINE
  8
0
 10
70.5239
 20
4.57669
 11
70.5121
 21
4.45161
  0
LINE
  8
0
 10
70.5121
 20
4.45161
 11
70.4924
 21
4.32751
  0
LINE
  8
0
 10
70.4924
 20
4.32751
 11
70.465
 21
4.2049
  0
LINE
  8
0
 10
70.465
 20
4.2049
 11
70.43
 21
4.08424
  0
LINE
  8
0
 10
70.43
 20
4.08424
 11
70.3874
 21
3.96602
  0
LINE
  8
0
 10
70.3874
 20
3.96602
 11
70.3375
 21
3.85072
  0
LINE
  8
0
 10
70.3375
 20
3.85072
 11
70.2805
 21
3.73877
  0
LINE
  8
0
 10
70.2805
 20
3.73877
 11
70.2165
 21
3.63062
  0
LINE
  8
0
 10
70.2165
 20
3.63062
 11
70.1459
 21
3.5267
  0
LINE
  8
0
 10
70.1459
 20
3.5267
 11
70.0689
 21
3.42743
  0
LINE
  8
0
 10
70.0689
 20
3.42743
 11
69.9858
 21
3.33318
  0
LINE
  8
0
 10
69.9858
 20
3.33318
 11
69.897
 21
3.24434
  0
LINE
  8
0
 10
69.897
 20
3.24434
 11
69.8027
 21
3.16125
  0
LINE
  8
0
 10
69.8027
 20
3.16125
 11
69.7034
 21
3.08424
  0
LINE
  8
0
 10
69.7034
 20
3.08424
 11
69.5995
 21
3.01363
  0
LINE
  8
0
 10
69.5995
 20
3.01363
 11
69.4914
 21
2.94966
  0
LINE
  8
0
 10
69.4914
 20
2.94966
 11
69.3794
 21
2.89262
  0
LINE
  8
0
 10
69.3794
 20
2.89262
 11
69.2641
 21
2.84273
  0
LINE
  8
0
 10
69.2641
 20
2.84273
 11
69.1459
 21
2.80016
  0
LINE
  8
0
 10
69.1459
 20
2.80016
 11
69.0252
 21
2.76511
  0
LINE
  8
0
 10
69.0252
 20
2.76511
 11
68.9026
 21
2.7377
  0
LINE
  8
0
 10
68.9026
 20
2.7377
 11
68.7785
 21
2.71805
  0
LINE
  8
0
 10
68.7785
 20
2.71805
 11
68.6534
 21
2.70622
  0
LINE
  8
0
 10
68.6534
 20
2.70622
 11
68.5279
 21
2.70227
  0
LINE
  8
0
 10
68.5279
 20
2.70227
 11
68.4023
 21
2.70622
  0
ENDSEC
  0
SECTION
  2
OBJECTS
  0
DICTIONARY
  0
ENDSEC
  0
EOF
