  0
SECTION
  2
BLOCKS
  0
ENDSEC
  0
SECTION
  2
ENTITIES
  0
LINE
  8
0
 10
0
 20
230.826
 11
-75
 21
0
  0
LINE
  8
0
 10
-75
 20
0
 11
75
 21
0
  0
LINE
  8
0
 10
75
 20
0
 11
0
 21
230.826
  0
LINE
  8
0
 10
-0.12558
 20
212.83
 11
-0.250656
 21
212.842
  0
LINE
  8
0
 10
-0.250656
 20
212.842
 11
-0.374756
 21
212.862
  0
LINE
  8
0
 10
-0.374756
 20
212.862
 11
-0.497375
 21
212.889
  0
LINE
  8
0
 10
-0.497375
 20
212.889
 11
-0.618027
 21
212.924
  0
LINE
  8
0
 10
-0.618027
 20
212.924
 11
-0.736237
 21
212.967
  0
LINE
  8
0
 10
-0.736237
 20
212.967
 11
-0.851547
 21
213.017
  0
LINE
  8
0
 10
-0.851547
 20
213.017
 11
-0.963501
 21
213.074
  0
LINE
  8
0
 10
-0.963501
 20
213.074
 11
-1.07164
 21
213.138
  0
LINE
  8
0
 10
-1.07164
 20
213.138
 11
-1.17557
 21
213.208
  0
LINE
  8
0
 10
-1.17557
 20
213.208
 11
-1.27484
 21
213.285
  0
LINE
  8
0
 10
-1.27484
 20
213.285
 11
-1.36908
 21
213.368
  0
LINE
  8
0
 10
-1.36908
 20
213.368
 11
-1.45793
 21
213.457
  0
LINE
  8
0
 10
-1.45793
 20
213.457
 11
-1.54102
 21
213.551
  0
LINE
  8
0
 10
-1.54102
 20
213.551
 11
-1.61803
 21
213.651
  0
LINE
  8
0
 10
-1.61803
 20
213.651
 11
-1.68864
 21
213.755
  0
LINE
  8
0
 10
-1.68864
 20
213.755
 11
-1.75261
 21
213.863
  0
LINE
  8
0
 10
-1.75261
 20
213.863
 11
-1.80965
 21
213.975
  0
LINE
  8
0
 10
-1.80965
 20
213.975
 11
-1.85954
 21
214.09
  0
LINE
  8
0
 10
-1.85954
 20
214.09
 11
-1.9021
 21
214.208
  0
LINE
  8
0
 10
-1.9021
 20
214.208
 11
-1.93716
 21
214.329
  0
LINE
  8
0
 10
-1.93716
 20
214.329
 11
-1.96457
 21
214.451
  0
LINE
  8
0
 10
-1.96457
 20
214.451
 11
-1.98422
 21
214.576
  0
LINE
  8
0
 10
-1.98422
 20
214.576
 11
-1.99605
 21
214.701
  0
LINE
  8
0
 10
-1.99605
 20
214.701
 11
-2
 21
214.826
  0
LINE
  8
0
 10
-2
 20
214.826
 11
-1.99605
 21
214.952
  0
LINE
  8
0
 10
-1.99605
 20
214.952
 11
-1.98422
 21
215.077
  0
LINE
  8
0
 10
-1.98422
 20
215.077
 11
-1.96457
 21
215.201
  0
LINE
  8
0
 10
-1.96457
 20
215.201
 11
-1.93716
 21
215.324
  0
LINE
  8
0
 10
-1.93716
 20
215.324
 11
-1.9021
 21
215.444
  0
LINE
  8
0
 10
-1.9021
 20
215.444
 11
-1.85954
 21
215.562
  0
LINE
  8
0
 10
-1.85954
 20
215.562
 11
-1.80965
 21
215.678
  0
LINE
  8
0
 10
-1.80965
 20
215.678
 11
-1.75261
 21
215.79
  0
LINE
  8
0
 10
-1.75261
 20
215.79
 11
-1.68864
 21
215.898
  0
LINE
  8
0
 10
-1.68864
 20
215.898
 11
-1.61803
 21
216.002
  0
LINE
  8
0
 10
-1.61803
 20
216.002
 11
-1.54102
 21
216.101
  0
LINE
  8
0
 10
-1.54102
 20
216.101
 11
-1.45793
 21
216.195
  0
LINE
  8
0
 10
-1.45793
 20
216.195
 11
-1.36908
 21
216.284
  0
LINE
  8
0
 10
-1.36908
 20
216.284
 11
-1.27484
 21
216.367
  0
LINE
  8
0
 10
-1.27484
 20
216.367
 11
-1.17557
 21
216.444
  0
LINE
  8
0
 10
-1.17557
 20
216.444
 11
-1.07164
 21
216.515
  0
LINE
  8
0
 10
-1.07164
 20
216.515
 11
-0.963501
 21
216.579
  0
LINE
  8
0
 10
-0.963501
 20
216.579
 11
-0.851547
 21
216.636
  0
LINE
  8
0
 10
-0.851547
 20
216.636
 11
-0.736237
 21
216.686
  0
LINE
  8
0
 10
-0.736237
 20
216.686
 11
-0.618027
 21
216.728
  0
LINE
  8
0
 10
-0.618027
 20
216.728
 11
-0.497375
 21
216.763
  0
LINE
  8
0
 10
-0.497375
 20
216.763
 11
-0.374756
 21
216.791
  0
LINE
  8
0
 10
-0.374756
 20
216.791
 11
-0.250656
 21
216.81
  0
LINE
  8
0
 10
-0.250656
 20
216.81
 11
-0.12558
 21
216.822
  0
LINE
  8
0
 10
-0.12558
 20
216.822
 11
0
 21
216.826
  0
LINE
  8
0
 10
0
 20
216.826
 11
0.12558
 21
216.822
  0
LINE
  8
0
 10
0.12558
 20
216.822
 11
0.250656
 21
216.81
  0
LINE
  8
0
 10
0.250656
 20
216.81
 11
0.374756
 21
216.791
  0
LINE
  8
0
 10
0.374756
 20
216.791
 11
0.497375
 21
216.763
  0
LINE
  8
0
 10
0.497375
 20
216.763
 11
0.618027
 21
216.728
  0
LINE
  8
0
 10
0.618027
 20
216.728
 11
0.736237
 21
216.686
  0
LINE
  8
0
 10
0.736237
 20
216.686
 11
0.851547
 21
216.636
  0
LINE
  8
0
 10
0.851547
 20
216.636
 11
0.963501
 21
216.579
  0
LINE
  8
0
 10
0.963501
 20
216.579
 11
1.07164
 21
216.515
  0
LINE
  8
0
 10
1.07164
 20
216.515
 11
1.17557
 21
216.444
  0
LINE
  8
0
 10
1.17557
 20
216.444
 11
1.27484
 21
216.367
  0
LINE
  8
0
 10
1.27484
 20
216.367
 11
1.36908
 21
216.284
  0
LINE
  8
0
 10
1.36908
 20
216.284
 11
1.45793
 21
216.195
  0
LINE
  8
0
 10
1.45793
 20
216.195
 11
1.54102
 21
216.101
  0
LINE
  8
0
 10
1.54102
 20
216.101
 11
1.61803
 21
216.002
  0
LINE
  8
0
 10
1.61803
 20
216.002
 11
1.68864
 21
215.898
  0
LINE
  8
0
 10
1.68864
 20
215.898
 11
1.75261
 21
215.79
  0
LINE
  8
0
 10
1.75261
 20
215.79
 11
1.80965
 21
215.678
  0
LINE
  8
0
 10
1.80965
 20
215.678
 11
1.85954
 21
215.562
  0
LINE
  8
0
 10
1.85954
 20
215.562
 11
1.9021
 21
215.444
  0
LINE
  8
0
 10
1.9021
 20
215.444
 11
1.93716
 21
215.324
  0
LINE
  8
0
 10
1.93716
 20
215.324
 11
1.96457
 21
215.201
  0
LINE
  8
0
 10
1.96457
 20
215.201
 11
1.98422
 21
215.077
  0
LINE
  8
0
 10
1.98422
 20
215.077
 11
1.99605
 21
214.952
  0
LINE
  8
0
 10
1.99605
 20
214.952
 11
2
 21
214.826
  0
LINE
  8
0
 10
2
 20
214.826
 11
1.99605
 21
214.701
  0
LINE
  8
0
 10
1.99605
 20
214.701
 11
1.98422
 21
214.576
  0
LINE
  8
0
 10
1.98422
 20
214.576
 11
1.96457
 21
214.451
  0
LINE
  8
0
 10
1.96457
 20
214.451
 11
1.93716
 21
214.329
  0
LINE
  8
0
 10
1.93716
 20
214.329
 11
1.9021
 21
214.208
  0
LINE
  8
0
 10
1.9021
 20
214.208
 11
1.85954
 21
214.09
  0
LINE
  8
0
 10
1.85954
 20
214.09
 11
1.80965
 21
213.975
  0
LINE
  8
0
 10
1.80965
 20
213.975
 11
1.75261
 21
213.863
  0
LINE
  8
0
 10
1.75261
 20
213.863
 11
1.68864
 21
213.755
  0
LINE
  8
0
 10
1.68864
 20
213.755
 11
1.61803
 21
213.651
  0
LINE
  8
0
 10
1.61803
 20
213.651
 11
1.54102
 21
213.551
  0
LINE
  8
0
 10
1.54102
 20
213.551
 11
1.45793
 21
213.457
  0
LINE
  8
0
 10
1.45793
 20
213.457
 11
1.36908
 21
213.368
  0
LINE
  8
0
 10
1.36908
 20
213.368
 11
1.27484
 21
213.285
  0
LINE
  8
0
 10
1.27484
 20
213.285
 11
1.17557
 21
213.208
  0
LINE
  8
0
 10
1.17557
 20
213.208
 11
1.07164
 21
213.138
  0
LINE
  8
0
 10
1.07164
 20
213.138
 11
0.963501
 21
213.074
  0
LINE
  8
0
 10
0.963501
 20
213.074
 11
0.851547
 21
213.017
  0
LINE
  8
0
 10
0.851547
 20
213.017
 11
0.736237
 21
212.967
  0
LINE
  8
0
 10
0.736237
 20
212.967
 11
0.618027
 21
212.924
  0
LINE
  8
0
 10
0.618027
 20
212.924
 11
0.497375
 21
212.889
  0
LINE
  8
0
 10
0.497375
 20
212.889
 11
0.374756
 21
212.862
  0
LINE
  8
0
 10
0.374756
 20
212.862
 11
0.250656
 21
212.842
  0
LINE
  8
0
 10
0.250656
 20
212.842
 11
0.12558
 21
212.83
  0
LINE
  8
0
 10
0.12558
 20
212.83
 11
0
 21
212.826
  0
LINE
  8
0
 10
0
 20
212.826
 11
-0.12558
 21
212.83
  0
LINE
  8
0
 10
0
 20
191.993
 11
0
 21
190
  0
LINE
  8
0
 10
0
 20
190
 11
-0.959473
 21
189.04
  0
LINE
  8
0
 10
-0.959473
 20
189.04
 11
0
 21
191.993
  0
LINE
  8
0
 10
-9.74553
 20
162
 11
-8.17903
 21
166.821
  0
LINE
  8
0
 10
-8.17903
 20
166.821
 11
-5
 21
170
  0
LINE
  8
0
 10
-5
 20
170
 11
-7.1461
 21
170
  0
LINE
  8
0
 10
-7.1461
 20
170
 11
-3.36598
 21
181.634
  0
LINE
  8
0
 10
-3.36598
 20
181.634
 11
0
 21
185
  0
LINE
  8
0
 10
0
 20
185
 11
0
 21
180
  0
LINE
  8
0
 10
0
 20
180
 11
3.89691
 21
180
  0
LINE
  8
0
 10
3.89691
 20
180
 11
4.16743
 21
179.167
  0
LINE
  8
0
 10
4.16743
 20
179.167
 11
0
 21
175
  0
LINE
  8
0
 10
0
 20
175
 11
0
 21
170
  0
LINE
  8
0
 10
0
 20
170
 11
-7.99988
 21
162
  0
LINE
  8
0
 10
-7.99988
 20
162
 11
-9.74553
 21
162
  0
LINE
  8
0
 10
1.99982
 20
170
 11
1.99982
 21
172
  0
LINE
  8
0
 10
1.99982
 20
172
 11
5.39357
 21
175.394
  0
LINE
  8
0
 10
5.39357
 20
175.394
 11
6.6198
 21
171.62
  0
LINE
  8
0
 10
6.6198
 20
171.62
 11
5
 21
170
  0
LINE
  8
0
 10
5
 20
170
 11
1.99982
 21
170
  0
LINE
  8
0
 10
-10
 20
142
 11
-10
 21
145
  0
LINE
  8
0
 10
-10
 20
145
 11
-5
 21
150
  0
LINE
  8
0
 10
-5
 20
150
 11
-10
 21
150
  0
LINE
  8
0
 10
-10
 20
150
 11
-10
 21
155
  0
LINE
  8
0
 10
-10
 20
155
 11
-12.9921
 21
152.008
  0
LINE
  8
0
 10
-12.9921
 20
152.008
 11
-10.5856
 21
159.414
  0
LINE
  8
0
 10
-10.5856
 20
159.414
 11
-10
 21
160
  0
LINE
  8
0
 10
-10
 20
160
 11
-5
 21
160
  0
LINE
  8
0
 10
-5
 20
160
 11
0
 21
165
  0
LINE
  8
0
 10
0
 20
165
 11
0
 21
160
  0
LINE
  8
0
 10
0
 20
160
 11
5
 21
160
  0
LINE
  8
0
 10
5
 20
160
 11
0
 21
155
  0
LINE
  8
0
 10
0
 20
155
 11
0
 21
150
  0
LINE
  8
0
 10
0
 20
150
 11
-7.99988
 21
142
  0
LINE
  8
0
 10
-7.99988
 20
142
 11
-10
 21
142
  0
LINE
  8
0
 10
1.99982
 20
150
 11
1.99982
 21
152
  0
LINE
  8
0
 10
1.99982
 20
152
 11
10
 21
160
  0
LINE
  8
0
 10
10
 20
160
 11
10.3953
 21
160
  0
LINE
  8
0
 10
10.3953
 20
160
 11
13.6445
 21
150
  0
LINE
  8
0
 10
13.6445
 20
150
 11
10
 21
150
  0
LINE
  8
0
 10
10
 20
150
 11
10
 21
155
  0
LINE
  8
0
 10
10
 20
155
 11
5
 21
150
  0
LINE
  8
0
 10
5
 20
150
 11
1.99982
 21
150
  0
LINE
  8
0
 10
10
 20
142
 11
10
 21
145
  0
LINE
  8
0
 10
10
 20
145
 11
13.9769
 21
148.977
  0
LINE
  8
0
 10
13.9769
 20
148.977
 11
15.2032
 21
145.203
  0
LINE
  8
0
 10
15.2032
 20
145.203
 11
12.0001
 21
142
  0
LINE
  8
0
 10
12.0001
 20
142
 11
10
 21
142
  0
LINE
  8
0
 10
-10
 20
122
 11
-10
 21
125
  0
LINE
  8
0
 10
-10
 20
125
 11
-5
 21
130
  0
LINE
  8
0
 10
-5
 20
130
 11
-10
 21
130
  0
LINE
  8
0
 10
-10
 20
130
 11
-10
 21
135
  0
LINE
  8
0
 10
-10
 20
135
 11
-15
 21
130
  0
LINE
  8
0
 10
-15
 20
130
 11
-18.0002
 21
130
  0
LINE
  8
0
 10
-18.0002
 20
130
 11
-18.0002
 21
132
  0
LINE
  8
0
 10
-18.0002
 20
132
 11
-10
 21
140
  0
LINE
  8
0
 10
-10
 20
140
 11
-5
 21
140
  0
LINE
  8
0
 10
-5
 20
140
 11
0
 21
145
  0
LINE
  8
0
 10
0
 20
145
 11
0
 21
140
  0
LINE
  8
0
 10
0
 20
140
 11
5
 21
140
  0
LINE
  8
0
 10
5
 20
140
 11
0
 21
135
  0
LINE
  8
0
 10
0
 20
135
 11
0
 21
130
  0
LINE
  8
0
 10
0
 20
130
 11
-7.99988
 21
122
  0
LINE
  8
0
 10
-7.99988
 20
122
 11
-10
 21
122
  0
LINE
  8
0
 10
10
 20
122
 11
10
 21
125
  0
LINE
  8
0
 10
10
 20
125
 11
15
 21
130
  0
LINE
  8
0
 10
15
 20
130
 11
10
 21
130
  0
LINE
  8
0
 10
10
 20
130
 11
10
 21
135
  0
LINE
  8
0
 10
10
 20
135
 11
5
 21
130
  0
LINE
  8
0
 10
5
 20
130
 11
1.99982
 21
130
  0
LINE
  8
0
 10
1.99982
 20
130
 11
1.99982
 21
132
  0
LINE
  8
0
 10
1.99982
 20
132
 11
10
 21
140
  0
LINE
  8
0
 10
10
 20
140
 11
15
 21
140
  0
LINE
  8
0
 10
15
 20
140
 11
16.4293
 21
141.429
  0
LINE
  8
0
 10
16.4293
 20
141.429
 11
20
 21
130.44
  0
LINE
  8
0
 10
20
 20
130.44
 11
20
 21
130
  0
LINE
  8
0
 10
20
 20
130
 11
12.0001
 21
122
  0
LINE
  8
0
 10
12.0001
 20
122
 11
10
 21
122
  0
LINE
  8
0
 10
-16.8937
 20
140
 11
-15
 21
140
  0
LINE
  8
0
 10
-15
 20
140
 11
-17.8051
 21
137.195
  0
LINE
  8
0
 10
-17.8051
 20
137.195
 11
-16.8937
 21
140
  0
LINE
  8
0
 10
-20
 20
130.44
 11
-20
 21
130
  0
LINE
  8
0
 10
-20
 20
130
 11
-20.2117
 21
129.788
  0
LINE
  8
0
 10
-20.2117
 20
129.788
 11
-20
 21
130.44
  0
LINE
  8
0
 10
10
 20
102
 11
10
 21
105
  0
LINE
  8
0
 10
10
 20
105
 11
15
 21
110
  0
LINE
  8
0
 10
15
 20
110
 11
10
 21
110
  0
LINE
  8
0
 10
10
 20
110
 11
10
 21
115
  0
LINE
  8
0
 10
10
 20
115
 11
5
 21
110
  0
LINE
  8
0
 10
5
 20
110
 11
1.99982
 21
110
  0
LINE
  8
0
 10
1.99982
 20
110
 11
1.99982
 21
112
  0
LINE
  8
0
 10
1.99982
 20
112
 11
10
 21
120
  0
LINE
  8
0
 10
10
 20
120
 11
15
 21
120
  0
LINE
  8
0
 10
15
 20
120
 11
20
 21
125
  0
LINE
  8
0
 10
20
 20
125
 11
20
 21
120
  0
LINE
  8
0
 10
20
 20
120
 11
23.3921
 21
120
  0
LINE
  8
0
 10
23.3921
 20
120
 11
23.7864
 21
118.786
  0
LINE
  8
0
 10
23.7864
 20
118.786
 11
20
 21
115
  0
LINE
  8
0
 10
20
 20
115
 11
20
 21
110
  0
LINE
  8
0
 10
20
 20
110
 11
12.0001
 21
102
  0
LINE
  8
0
 10
12.0001
 20
102
 11
10
 21
102
  0
LINE
  8
0
 10
-10
 20
102
 11
-10
 21
105
  0
LINE
  8
0
 10
-10
 20
105
 11
-5
 21
110
  0
LINE
  8
0
 10
-5
 20
110
 11
-10
 21
110
  0
LINE
  8
0
 10
-10
 20
110
 11
-10
 21
115
  0
LINE
  8
0
 10
-10
 20
115
 11
-15
 21
110
  0
LINE
  8
0
 10
-15
 20
110
 11
-18.0002
 21
110
  0
LINE
  8
0
 10
-18.0002
 20
110
 11
-18.0002
 21
112
  0
LINE
  8
0
 10
-18.0002
 20
112
 11
-10
 21
120
  0
LINE
  8
0
 10
-10
 20
120
 11
-5
 21
120
  0
LINE
  8
0
 10
-5
 20
120
 11
0
 21
125
  0
LINE
  8
0
 10
0
 20
125
 11
0
 21
120
  0
LINE
  8
0
 10
0
 20
120
 11
5
 21
120
  0
LINE
  8
0
 10
5
 20
120
 11
0
 21
115
  0
LINE
  8
0
 10
0
 20
115
 11
0
 21
110
  0
LINE
  8
0
 10
0
 20
110
 11
-7.99988
 21
102
  0
LINE
  8
0
 10
-7.99988
 20
102
 11
-10
 21
102
  0
LINE
  8
0
 10
-29.2407
 20
102
 11
-27.4312
 21
107.569
  0
LINE
  8
0
 10
-27.4312
 20
107.569
 11
-25
 21
110
  0
LINE
  8
0
 10
-25
 20
110
 11
-26.6413
 21
110
  0
LINE
  8
0
 10
-26.6413
 20
110
 11
-22.6182
 21
122.382
  0
LINE
  8
0
 10
-22.6182
 20
122.382
 11
-20
 21
125
  0
LINE
  8
0
 10
-20
 20
125
 11
-20
 21
120
  0
LINE
  8
0
 10
-20
 20
120
 11
-15
 21
120
  0
LINE
  8
0
 10
-15
 20
120
 11
-20
 21
115
  0
LINE
  8
0
 10
-20
 20
115
 11
-20
 21
110
  0
LINE
  8
0
 10
-20
 20
110
 11
-27.9999
 21
102
  0
LINE
  8
0
 10
-27.9999
 20
102
 11
-29.2407
 21
102
  0
LINE
  8
0
 10
21.9998
 20
110
 11
21.9998
 21
112
  0
LINE
  8
0
 10
21.9998
 20
112
 11
25.0125
 21
115.013
  0
LINE
  8
0
 10
25.0125
 20
115.013
 11
26.2388
 21
111.239
  0
LINE
  8
0
 10
26.2388
 20
111.239
 11
25
 21
110
  0
LINE
  8
0
 10
25
 20
110
 11
21.9998
 21
110
  0
LINE
  8
0
 10
-30
 20
81.9998
 11
-30
 21
85
  0
LINE
  8
0
 10
-30
 20
85
 11
-25
 21
90
  0
LINE
  8
0
 10
-25
 20
90
 11
-30
 21
90
  0
LINE
  8
0
 10
-30
 20
90
 11
-30
 21
95
  0
LINE
  8
0
 10
-30
 20
95
 11
-32.2443
 21
92.7557
  0
LINE
  8
0
 10
-32.2443
 20
92.7557
 11
-29.8905
 21
100
  0
LINE
  8
0
 10
-29.8905
 20
100
 11
-25
 21
100
  0
LINE
  8
0
 10
-25
 20
100
 11
-20
 21
105
  0
LINE
  8
0
 10
-20
 20
105
 11
-20
 21
100
  0
LINE
  8
0
 10
-20
 20
100
 11
-15
 21
100
  0
LINE
  8
0
 10
-15
 20
100
 11
-20
 21
95
  0
LINE
  8
0
 10
-20
 20
95
 11
-20
 21
90
  0
LINE
  8
0
 10
-20
 20
90
 11
-27.9999
 21
81.9998
  0
LINE
  8
0
 10
-27.9999
 20
81.9998
 11
-30
 21
81.9998
  0
LINE
  8
0
 10
10
 20
81.9998
 11
10
 21
85
  0
LINE
  8
0
 10
10
 20
85
 11
15
 21
90
  0
LINE
  8
0
 10
15
 20
90
 11
10
 21
90
  0
LINE
  8
0
 10
10
 20
90
 11
10
 21
95
  0
LINE
  8
0
 10
10
 20
95
 11
5
 21
90
  0
LINE
  8
0
 10
5
 20
90
 11
1.99982
 21
90
  0
LINE
  8
0
 10
1.99982
 20
90
 11
1.99982
 21
92.0001
  0
LINE
  8
0
 10
1.99982
 20
92.0001
 11
10
 21
100
  0
LINE
  8
0
 10
10
 20
100
 11
15
 21
100
  0
LINE
  8
0
 10
15
 20
100
 11
20
 21
105
  0
LINE
  8
0
 10
20
 20
105
 11
20
 21
100
  0
LINE
  8
0
 10
20
 20
100
 11
25
 21
100
  0
LINE
  8
0
 10
25
 20
100
 11
20
 21
95
  0
LINE
  8
0
 10
20
 20
95
 11
20
 21
90
  0
LINE
  8
0
 10
20
 20
90
 11
12.0001
 21
81.9998
  0
LINE
  8
0
 10
12.0001
 20
81.9998
 11
10
 21
81.9998
  0
LINE
  8
0
 10
-10
 20
81.9998
 11
-10
 21
85
  0
LINE
  8
0
 10
-10
 20
85
 11
-5
 21
90
  0
LINE
  8
0
 10
-5
 20
90
 11
-10
 21
90
  0
LINE
  8
0
 10
-10
 20
90
 11
-10
 21
95
  0
LINE
  8
0
 10
-10
 20
95
 11
-15
 21
90
  0
LINE
  8
0
 10
-15
 20
90
 11
-18.0002
 21
90
  0
LINE
  8
0
 10
-18.0002
 20
90
 11
-18.0002
 21
92.0001
  0
LINE
  8
0
 10
-18.0002
 20
92.0001
 11
-10
 21
100
  0
LINE
  8
0
 10
-10
 20
100
 11
-5
 21
100
  0
LINE
  8
0
 10
-5
 20
100
 11
0
 21
105
  0
LINE
  8
0
 10
0
 20
105
 11
0
 21
100
  0
LINE
  8
0
 10
0
 20
100
 11
5
 21
100
  0
LINE
  8
0
 10
5
 20
100
 11
0
 21
95
  0
LINE
  8
0
 10
0
 20
95
 11
0
 21
90
  0
LINE
  8
0
 10
0
 20
90
 11
-7.99988
 21
81.9998
  0
LINE
  8
0
 10
-7.99988
 20
81.9998
 11
-10
 21
81.9998
  0
LINE
  8
0
 10
21.9998
 20
90
 11
21.9998
 21
92.0001
  0
LINE
  8
0
 10
21.9998
 20
92.0001
 11
29.9173
 21
99.9173
  0
LINE
  8
0
 10
29.9173
 20
99.9173
 11
33.1397
 21
90
  0
LINE
  8
0
 10
33.1397
 20
90
 11
30
 21
90
  0
LINE
  8
0
 10
30
 20
90
 11
30
 21
95
  0
LINE
  8
0
 10
30
 20
95
 11
25
 21
90
  0
LINE
  8
0
 10
25
 20
90
 11
21.9998
 21
90
  0
LINE
  8
0
 10
30
 20
81.9998
 11
30
 21
85
  0
LINE
  8
0
 10
30
 20
85
 11
33.5959
 21
88.5959
  0
LINE
  8
0
 10
33.5959
 20
88.5959
 11
34.8221
 21
84.8219
  0
LINE
  8
0
 10
34.8221
 20
84.8219
 11
32.0001
 21
81.9998
  0
LINE
  8
0
 10
32.0001
 20
81.9998
 11
30
 21
81.9998
  0
LINE
  8
0
 10
-10
 20
61.9998
 11
-10
 21
65
  0
LINE
  8
0
 10
-10
 20
65
 11
-5
 21
70
  0
LINE
  8
0
 10
-5
 20
70
 11
-10
 21
70
  0
LINE
  8
0
 10
-10
 20
70
 11
-10
 21
75
  0
LINE
  8
0
 10
-10
 20
75
 11
-15
 21
70
  0
LINE
  8
0
 10
-15
 20
70
 11
-18.0002
 21
70
  0
LINE
  8
0
 10
-18.0002
 20
70
 11
-18.0002
 21
72.0001
  0
LINE
  8
0
 10
-18.0002
 20
72.0001
 11
-10
 21
80
  0
LINE
  8
0
 10
-10
 20
80
 11
-5
 21
80
  0
LINE
  8
0
 10
-5
 20
80
 11
0
 21
85
  0
LINE
  8
0
 10
0
 20
85
 11
0
 21
80
  0
LINE
  8
0
 10
0
 20
80
 11
5
 21
80
  0
LINE
  8
0
 10
5
 20
80
 11
0
 21
75
  0
LINE
  8
0
 10
0
 20
75
 11
0
 21
70
  0
LINE
  8
0
 10
0
 20
70
 11
-7.99988
 21
61.9998
  0
LINE
  8
0
 10
-7.99988
 20
61.9998
 11
-10
 21
61.9998
  0
LINE
  8
0
 10
-30
 20
61.9998
 11
-30
 21
65
  0
LINE
  8
0
 10
-30
 20
65
 11
-25
 21
70
  0
LINE
  8
0
 10
-25
 20
70
 11
-30
 21
70
  0
LINE
  8
0
 10
-30
 20
70
 11
-30
 21
75
  0
LINE
  8
0
 10
-30
 20
75
 11
-35
 21
70
  0
LINE
  8
0
 10
-35
 20
70
 11
-38.0002
 21
70
  0
LINE
  8
0
 10
-38.0002
 20
70
 11
-38.0002
 21
72.0001
  0
LINE
  8
0
 10
-38.0002
 20
72.0001
 11
-30
 21
80
  0
LINE
  8
0
 10
-30
 20
80
 11
-25
 21
80
  0
LINE
  8
0
 10
-25
 20
80
 11
-20
 21
85
  0
LINE
  8
0
 10
-20
 20
85
 11
-20
 21
80
  0
LINE
  8
0
 10
-20
 20
80
 11
-15
 21
80
  0
LINE
  8
0
 10
-15
 20
80
 11
-20
 21
75
  0
LINE
  8
0
 10
-20
 20
75
 11
-20
 21
70
  0
LINE
  8
0
 10
-20
 20
70
 11
-27.9999
 21
61.9998
  0
LINE
  8
0
 10
-27.9999
 20
61.9998
 11
-30
 21
61.9998
  0
LINE
  8
0
 10
10
 20
61.9998
 11
10
 21
65
  0
LINE
  8
0
 10
10
 20
65
 11
15
 21
70
  0
LINE
  8
0
 10
15
 20
70
 11
10
 21
70
  0
LINE
  8
0
 10
10
 20
70
 11
10
 21
75
  0
LINE
  8
0
 10
10
 20
75
 11
5
 21
70
  0
LINE
  8
0
 10
5
 20
70
 11
1.99982
 21
70
  0
LINE
  8
0
 10
1.99982
 20
70
 11
1.99982
 21
72.0001
  0
LINE
  8
0
 10
1.99982
 20
72.0001
 11
10
 21
80
  0
LINE
  8
0
 10
10
 20
80
 11
15
 21
80
  0
LINE
  8
0
 10
15
 20
80
 11
20
 21
85
  0
LINE
  8
0
 10
20
 20
85
 11
20
 21
80
  0
LINE
  8
0
 10
20
 20
80
 11
25
 21
80
  0
LINE
  8
0
 10
25
 20
80
 11
20
 21
75
  0
LINE
  8
0
 10
20
 20
75
 11
20
 21
70
  0
LINE
  8
0
 10
20
 20
70
 11
12.0001
 21
61.9998
  0
LINE
  8
0
 10
12.0001
 20
61.9998
 11
10
 21
61.9998
  0
LINE
  8
0
 10
30
 20
61.9998
 11
30
 21
65
  0
LINE
  8
0
 10
30
 20
65
 11
35
 21
70
  0
LINE
  8
0
 10
35
 20
70
 11
30
 21
70
  0
LINE
  8
0
 10
30
 20
70
 11
30
 21
75
  0
LINE
  8
0
 10
30
 20
75
 11
25
 21
70
  0
LINE
  8
0
 10
25
 20
70
 11
21.9998
 21
70
  0
LINE
  8
0
 10
21.9998
 20
70
 11
21.9998
 21
72.0001
  0
LINE
  8
0
 10
21.9998
 20
72.0001
 11
30
 21
80
  0
LINE
  8
0
 10
30
 20
80
 11
35
 21
80
  0
LINE
  8
0
 10
35
 20
80
 11
36.0483
 21
81.0483
  0
LINE
  8
0
 10
36.0483
 20
81.0483
 11
39.7268
 21
69.7268
  0
LINE
  8
0
 10
39.7268
 20
69.7268
 11
32.0001
 21
61.9998
  0
LINE
  8
0
 10
32.0001
 20
61.9998
 11
30
 21
61.9998
  0
LINE
  8
0
 10
-36.3889
 20
80
 11
-35
 21
80
  0
LINE
  8
0
 10
-35
 20
80
 11
-37.0573
 21
77.9427
  0
LINE
  8
0
 10
-37.0573
 20
77.9427
 11
-36.3889
 21
80
  0
LINE
  8
0
 10
-10
 20
41.9998
 11
-10
 21
45
  0
LINE
  8
0
 10
-10
 20
45
 11
-5
 21
50
  0
LINE
  8
0
 10
-5
 20
50
 11
-10
 21
50
  0
LINE
  8
0
 10
-10
 20
50
 11
-10
 21
55
  0
LINE
  8
0
 10
-10
 20
55
 11
-15
 21
50
  0
LINE
  8
0
 10
-15
 20
50
 11
-18.0002
 21
50
  0
LINE
  8
0
 10
-18.0002
 20
50
 11
-18.0002
 21
52.0001
  0
LINE
  8
0
 10
-18.0002
 20
52.0001
 11
-10
 21
60
  0
LINE
  8
0
 10
-10
 20
60
 11
-5
 21
60
  0
LINE
  8
0
 10
-5
 20
60
 11
0
 21
65
  0
LINE
  8
0
 10
0
 20
65
 11
0
 21
60
  0
LINE
  8
0
 10
0
 20
60
 11
5
 21
60
  0
LINE
  8
0
 10
5
 20
60
 11
0
 21
55
  0
LINE
  8
0
 10
0
 20
55
 11
0
 21
50
  0
LINE
  8
0
 10
0
 20
50
 11
-7.99988
 21
41.9998
  0
LINE
  8
0
 10
-7.99988
 20
41.9998
 11
-10
 21
41.9998
  0
LINE
  8
0
 10
10
 20
41.9998
 11
10
 21
45
  0
LINE
  8
0
 10
10
 20
45
 11
15
 21
50
  0
LINE
  8
0
 10
15
 20
50
 11
10
 21
50
  0
LINE
  8
0
 10
10
 20
50
 11
10
 21
55
  0
LINE
  8
0
 10
10
 20
55
 11
5
 21
50
  0
LINE
  8
0
 10
5
 20
50
 11
1.99982
 21
50
  0
LINE
  8
0
 10
1.99982
 20
50
 11
1.99982
 21
52.0001
  0
LINE
  8
0
 10
1.99982
 20
52.0001
 11
10
 21
60
  0
LINE
  8
0
 10
10
 20
60
 11
15
 21
60
  0
LINE
  8
0
 10
15
 20
60
 11
20
 21
65
  0
LINE
  8
0
 10
20
 20
65
 11
20
 21
60
  0
LINE
  8
0
 10
20
 20
60
 11
25
 21
60
  0
LINE
  8
0
 10
25
 20
60
 11
20
 21
55
  0
LINE
  8
0
 10
20
 20
55
 11
20
 21
50
  0
LINE
  8
0
 10
20
 20
50
 11
12.0001
 21
41.9998
  0
LINE
  8
0
 10
12.0001
 20
41.9998
 11
10
 21
41.9998
  0
LINE
  8
0
 10
-48.7359
 20
41.9998
 11
-46.6835
 21
48.3165
  0
LINE
  8
0
 10
-46.6835
 20
48.3165
 11
-45
 21
50
  0
LINE
  8
0
 10
-45
 20
50
 11
-46.1365
 21
50
  0
LINE
  8
0
 10
-46.1365
 20
50
 11
-41.8704
 21
63.1296
  0
LINE
  8
0
 10
-41.8704
 20
63.1296
 11
-40
 21
65
  0
LINE
  8
0
 10
-40
 20
65
 11
-40
 21
60
  0
LINE
  8
0
 10
-40
 20
60
 11
-35
 21
60
  0
LINE
  8
0
 10
-35
 20
60
 11
-40
 21
55
  0
LINE
  8
0
 10
-40
 20
55
 11
-40
 21
50
  0
LINE
  8
0
 10
-40
 20
50
 11
-47.9999
 21
41.9998
  0
LINE
  8
0
 10
-47.9999
 20
41.9998
 11
-48.7359
 21
41.9998
  0
LINE
  8
0
 10
30
 20
41.9998
 11
30
 21
45
  0
LINE
  8
0
 10
30
 20
45
 11
35
 21
50
  0
LINE
  8
0
 10
35
 20
50
 11
30
 21
50
  0
LINE
  8
0
 10
30
 20
50
 11
30
 21
55
  0
LINE
  8
0
 10
30
 20
55
 11
25
 21
50
  0
LINE
  8
0
 10
25
 20
50
 11
21.9998
 21
50
  0
LINE
  8
0
 10
21.9998
 20
50
 11
21.9998
 21
52.0001
  0
LINE
  8
0
 10
21.9998
 20
52.0001
 11
30
 21
60
  0
LINE
  8
0
 10
30
 20
60
 11
35
 21
60
  0
LINE
  8
0
 10
35
 20
60
 11
40
 21
65
  0
LINE
  8
0
 10
40
 20
65
 11
40
 21
60
  0
LINE
  8
0
 10
40
 20
60
 11
42.8873
 21
60
  0
LINE
  8
0
 10
42.8873
 20
60
 11
43.4054
 21
58.4054
  0
LINE
  8
0
 10
43.4054
 20
58.4054
 11
40
 21
55
  0
LINE
  8
0
 10
40
 20
55
 11
40
 21
50
  0
LINE
  8
0
 10
40
 20
50
 11
32.0001
 21
41.9998
  0
LINE
  8
0
 10
32.0001
 20
41.9998
 11
30
 21
41.9998
  0
LINE
  8
0
 10
-30
 20
41.9998
 11
-30
 21
45
  0
LINE
  8
0
 10
-30
 20
45
 11
-25
 21
50
  0
LINE
  8
0
 10
-25
 20
50
 11
-30
 21
50
  0
LINE
  8
0
 10
-30
 20
50
 11
-30
 21
55
  0
LINE
  8
0
 10
-30
 20
55
 11
-35
 21
50
  0
LINE
  8
0
 10
-35
 20
50
 11
-38.0002
 21
50
  0
LINE
  8
0
 10
-38.0002
 20
50
 11
-38.0002
 21
52.0001
  0
LINE
  8
0
 10
-38.0002
 20
52.0001
 11
-30
 21
60
  0
LINE
  8
0
 10
-30
 20
60
 11
-25
 21
60
  0
LINE
  8
0
 10
-25
 20
60
 11
-20
 21
65
  0
LINE
  8
0
 10
-20
 20
65
 11
-20
 21
60
  0
LINE
  8
0
 10
-20
 20
60
 11
-15
 21
60
  0
LINE
  8
0
 10
-15
 20
60
 11
-20
 21
55
  0
LINE
  8
0
 10
-20
 20
55
 11
-20
 21
50
  0
LINE
  8
0
 10
-20
 20
50
 11
-27.9999
 21
41.9998
  0
LINE
  8
0
 10
-27.9999
 20
41.9998
 11
-30
 21
41.9998
  0
LINE
  8
0
 10
41.9998
 20
50
 11
41.9998
 21
52.0001
  0
LINE
  8
0
 10
41.9998
 20
52.0001
 11
44.6315
 21
54.6317
  0
LINE
  8
0
 10
44.6315
 20
54.6317
 11
45.8578
 21
50.8578
  0
LINE
  8
0
 10
45.8578
 20
50.8578
 11
45
 21
50
  0
LINE
  8
0
 10
45
 20
50
 11
41.9998
 21
50
  0
LINE
  8
0
 10
30
 20
21.9998
 11
30
 21
25
  0
LINE
  8
0
 10
30
 20
25
 11
35
 21
30
  0
LINE
  8
0
 10
35
 20
30
 11
30
 21
30
  0
LINE
  8
0
 10
30
 20
30
 11
30
 21
35
  0
LINE
  8
0
 10
30
 20
35
 11
25
 21
30
  0
LINE
  8
0
 10
25
 20
30
 11
21.9998
 21
30
  0
LINE
  8
0
 10
21.9998
 20
30
 11
21.9998
 21
32.0001
  0
LINE
  8
0
 10
21.9998
 20
32.0001
 11
30
 21
40
  0
LINE
  8
0
 10
30
 20
40
 11
35
 21
40
  0
LINE
  8
0
 10
35
 20
40
 11
40
 21
45
  0
LINE
  8
0
 10
40
 20
45
 11
40
 21
40
  0
LINE
  8
0
 10
40
 20
40
 11
45
 21
40
  0
LINE
  8
0
 10
45
 20
40
 11
40
 21
35
  0
LINE
  8
0
 10
40
 20
35
 11
40
 21
30
  0
LINE
  8
0
 10
40
 20
30
 11
32.0001
 21
21.9998
  0
LINE
  8
0
 10
32.0001
 20
21.9998
 11
30
 21
21.9998
  0
LINE
  8
0
 10
-50
 20
21.9998
 11
-50
 21
25
  0
LINE
  8
0
 10
-50
 20
25
 11
-45
 21
30
  0
LINE
  8
0
 10
-45
 20
30
 11
-50
 21
30
  0
LINE
  8
0
 10
-50
 20
30
 11
-50
 21
35
  0
LINE
  8
0
 10
-50
 20
35
 11
-51.4965
 21
33.5035
  0
LINE
  8
0
 10
-51.4965
 20
33.5035
 11
-49.3857
 21
40
  0
LINE
  8
0
 10
-49.3857
 20
40
 11
-45
 21
40
  0
LINE
  8
0
 10
-45
 20
40
 11
-40
 21
45
  0
LINE
  8
0
 10
-40
 20
45
 11
-40
 21
40
  0
LINE
  8
0
 10
-40
 20
40
 11
-35
 21
40
  0
LINE
  8
0
 10
-35
 20
40
 11
-40
 21
35
  0
LINE
  8
0
 10
-40
 20
35
 11
-40
 21
30
  0
LINE
  8
0
 10
-40
 20
30
 11
-47.9999
 21
21.9998
  0
LINE
  8
0
 10
-47.9999
 20
21.9998
 11
-50
 21
21.9998
  0
LINE
  8
0
 10
-30
 20
21.9998
 11
-30
 21
25
  0
LINE
  8
0
 10
-30
 20
25
 11
-25
 21
30
  0
LINE
  8
0
 10
-25
 20
30
 11
-30
 21
30
  0
LINE
  8
0
 10
-30
 20
30
 11
-30
 21
35
  0
LINE
  8
0
 10
-30
 20
35
 11
-35
 21
30
  0
LINE
  8
0
 10
-35
 20
30
 11
-38.0002
 21
30
  0
LINE
  8
0
 10
-38.0002
 20
30
 11
-38.0002
 21
32.0001
  0
LINE
  8
0
 10
-38.0002
 20
32.0001
 11
-30
 21
40
  0
LINE
  8
0
 10
-30
 20
40
 11
-25
 21
40
  0
LINE
  8
0
 10
-25
 20
40
 11
-20
 21
45
  0
LINE
  8
0
 10
-20
 20
45
 11
-20
 21
40
  0
LINE
  8
0
 10
-20
 20
40
 11
-15
 21
40
  0
LINE
  8
0
 10
-15
 20
40
 11
-20
 21
35
  0
LINE
  8
0
 10
-20
 20
35
 11
-20
 21
30
  0
LINE
  8
0
 10
-20
 20
30
 11
-27.9999
 21
21.9998
  0
LINE
  8
0
 10
-27.9999
 20
21.9998
 11
-30
 21
21.9998
  0
LINE
  8
0
 10
10
 20
21.9998
 11
10
 21
25
  0
LINE
  8
0
 10
10
 20
25
 11
15
 21
30
  0
LINE
  8
0
 10
15
 20
30
 11
10
 21
30
  0
LINE
  8
0
 10
10
 20
30
 11
10
 21
35
  0
LINE
  8
0
 10
10
 20
35
 11
5
 21
30
  0
LINE
  8
0
 10
5
 20
30
 11
1.99982
 21
30
  0
LINE
  8
0
 10
1.99982
 20
30
 11
1.99982
 21
32.0001
  0
LINE
  8
0
 10
1.99982
 20
32.0001
 11
10
 21
40
  0
LINE
  8
0
 10
10
 20
40
 11
15
 21
40
  0
LINE
  8
0
 10
15
 20
40
 11
20
 21
45
  0
LINE
  8
0
 10
20
 20
45
 11
20
 21
40
  0
LINE
  8
0
 10
20
 20
40
 11
25
 21
40
  0
LINE
  8
0
 10
25
 20
40
 11
20
 21
35
  0
LINE
  8
0
 10
20
 20
35
 11
20
 21
30
  0
LINE
  8
0
 10
20
 20
30
 11
12.0001
 21
21.9998
  0
LINE
  8
0
 10
12.0001
 20
21.9998
 11
10
 21
21.9998
  0
LINE
  8
0
 10
-10
 20
21.9998
 11
-10
 21
25
  0
LINE
  8
0
 10
-10
 20
25
 11
-5
 21
30
  0
LINE
  8
0
 10
-5
 20
30
 11
-10
 21
30
  0
LINE
  8
0
 10
-10
 20
30
 11
-10
 21
35
  0
LINE
  8
0
 10
-10
 20
35
 11
-15
 21
30
  0
LINE
  8
0
 10
-15
 20
30
 11
-18.0002
 21
30
  0
LINE
  8
0
 10
-18.0002
 20
30
 11
-18.0002
 21
32.0001
  0
LINE
  8
0
 10
-18.0002
 20
32.0001
 11
-10
 21
40
  0
LINE
  8
0
 10
-10
 20
40
 11
-5
 21
40
  0
LINE
  8
0
 10
-5
 20
40
 11
0
 21
45
  0
LINE
  8
0
 10
0
 20
45
 11
0
 21
40
  0
LINE
  8
0
 10
0
 20
40
 11
5
 21
40
  0
LINE
  8
0
 10
5
 20
40
 11
0
 21
35
  0
LINE
  8
0
 10
0
 20
35
 11
0
 21
30
  0
LINE
  8
0
 10
0
 20
30
 11
-7.99988
 21
21.9998
  0
LINE
  8
0
 10
-7.99988
 20
21.9998
 11
-10
 21
21.9998
  0
LINE
  8
0
 10
41.9998
 20
30
 11
41.9998
 21
32.0001
  0
LINE
  8
0
 10
41.9998
 20
32.0001
 11
49.5363
 21
39.5363
  0
LINE
  8
0
 10
49.5363
 20
39.5363
 11
52.6349
 21
30
  0
LINE
  8
0
 10
52.6349
 20
30
 11
50
 21
30
  0
LINE
  8
0
 10
50
 20
30
 11
50
 21
35
  0
LINE
  8
0
 10
50
 20
35
 11
45
 21
30
  0
LINE
  8
0
 10
45
 20
30
 11
41.9998
 21
30
  0
LINE
  8
0
 10
50
 20
21.9998
 11
50
 21
25
  0
LINE
  8
0
 10
50
 20
25
 11
53.2149
 21
28.2149
  0
LINE
  8
0
 10
53.2149
 20
28.2149
 11
54.4411
 21
24.4409
  0
LINE
  8
0
 10
54.4411
 20
24.4409
 11
52.0001
 21
21.9998
  0
LINE
  8
0
 10
52.0001
 20
21.9998
 11
50
 21
21.9998
  0
LINE
  8
0
 10
1.99982
 20
12
 11
1.99982
 21
12.0001
  0
LINE
  8
0
 10
1.99982
 20
12.0001
 11
10
 21
20
  0
LINE
  8
0
 10
10
 20
20
 11
15
 21
20
  0
LINE
  8
0
 10
15
 20
20
 11
20
 21
25
  0
LINE
  8
0
 10
20
 20
25
 11
20
 21
20
  0
LINE
  8
0
 10
20
 20
20
 11
25
 21
20
  0
LINE
  8
0
 10
25
 20
20
 11
20
 21
15
  0
LINE
  8
0
 10
20
 20
15
 11
20
 21
12
  0
LINE
  8
0
 10
20
 20
12
 11
10
 21
12
  0
LINE
  8
0
 10
10
 20
12
 11
10
 21
15
  0
LINE
  8
0
 10
10
 20
15
 11
7
 21
12
  0
LINE
  8
0
 10
7
 20
12
 11
1.99982
 21
12
  0
LINE
  8
0
 10
-58.0002
 20
12
 11
-58.0002
 21
12.0001
  0
LINE
  8
0
 10
-58.0002
 20
12.0001
 11
-50
 21
20
  0
LINE
  8
0
 10
-50
 20
20
 11
-45
 21
20
  0
LINE
  8
0
 10
-45
 20
20
 11
-40
 21
25
  0
LINE
  8
0
 10
-40
 20
25
 11
-40
 21
20
  0
LINE
  8
0
 10
-40
 20
20
 11
-35
 21
20
  0
LINE
  8
0
 10
-35
 20
20
 11
-40
 21
15
  0
LINE
  8
0
 10
-40
 20
15
 11
-40
 21
12
  0
LINE
  8
0
 10
-40
 20
12
 11
-50
 21
12
  0
LINE
  8
0
 10
-50
 20
12
 11
-50
 21
15
  0
LINE
  8
0
 10
-50
 20
15
 11
-53
 21
12
  0
LINE
  8
0
 10
-53
 20
12
 11
-58.0002
 21
12
  0
LINE
  8
0
 10
-38.0002
 20
12
 11
-38.0002
 21
12.0001
  0
LINE
  8
0
 10
-38.0002
 20
12.0001
 11
-30
 21
20
  0
LINE
  8
0
 10
-30
 20
20
 11
-25
 21
20
  0
LINE
  8
0
 10
-25
 20
20
 11
-20
 21
25
  0
LINE
  8
0
 10
-20
 20
25
 11
-20
 21
20
  0
LINE
  8
0
 10
-20
 20
20
 11
-15
 21
20
  0
LINE
  8
0
 10
-15
 20
20
 11
-20
 21
15
  0
LINE
  8
0
 10
-20
 20
15
 11
-20
 21
12
  0
LINE
  8
0
 10
-20
 20
12
 11
-30
 21
12
  0
LINE
  8
0
 10
-30
 20
12
 11
-30
 21
15
  0
LINE
  8
0
 10
-30
 20
15
 11
-33
 21
12
  0
LINE
  8
0
 10
-33
 20
12
 11
-38.0002
 21
12
  0
LINE
  8
0
 10
-18.0002
 20
12
 11
-18.0002
 21
12.0001
  0
LINE
  8
0
 10
-18.0002
 20
12.0001
 11
-10
 21
20
  0
LINE
  8
0
 10
-10
 20
20
 11
-5
 21
20
  0
LINE
  8
0
 10
-5
 20
20
 11
0
 21
25
  0
LINE
  8
0
 10
0
 20
25
 11
0
 21
20
  0
LINE
  8
0
 10
0
 20
20
 11
5
 21
20
  0
LINE
  8
0
 10
5
 20
20
 11
0
 21
15
  0
LINE
  8
0
 10
0
 20
15
 11
0
 21
12
  0
LINE
  8
0
 10
0
 20
12
 11
-10
 21
12
  0
LINE
  8
0
 10
-10
 20
12
 11
-10
 21
15
  0
LINE
  8
0
 10
-10
 20
15
 11
-13
 21
12
  0
LINE
  8
0
 10
-13
 20
12
 11
-18.0002
 21
12
  0
LINE
  8
0
 10
21.9998
 20
12
 11
21.9998
 21
12.0001
  0
LINE
  8
0
 10
21.9998
 20
12.0001
 11
30
 21
20
  0
LINE
  8
0
 10
30
 20
20
 11
35
 21
20
  0
LINE
  8
0
 10
35
 20
20
 11
40
 21
25
  0
LINE
  8
0
 10
40
 20
25
 11
40
 21
20
  0
LINE
  8
0
 10
40
 20
20
 11
45
 21
20
  0
LINE
  8
0
 10
45
 20
20
 11
40
 21
15
  0
LINE
  8
0
 10
40
 20
15
 11
40
 21
12
  0
LINE
  8
0
 10
40
 20
12
 11
30
 21
12
  0
LINE
  8
0
 10
30
 20
12
 11
30
 21
15
  0
LINE
  8
0
 10
30
 20
15
 11
27
 21
12
  0
LINE
  8
0
 10
27
 20
12
 11
21.9998
 21
12
  0
LINE
  8
0
 10
41.9998
 20
12
 11
41.9998
 21
12.0001
  0
LINE
  8
0
 10
41.9998
 20
12.0001
 11
50
 21
20
  0
LINE
  8
0
 10
50
 20
20
 11
55
 21
20
  0
LINE
  8
0
 10
55
 20
20
 11
55.6673
 21
20.6673
  0
LINE
  8
0
 10
55.6673
 20
20.6673
 11
58.4834
 21
12
  0
LINE
  8
0
 10
58.4834
 20
12
 11
50
 21
12
  0
LINE
  8
0
 10
50
 20
12
 11
50
 21
15
  0
LINE
  8
0
 10
50
 20
15
 11
47
 21
12
  0
LINE
  8
0
 10
47
 20
12
 11
41.9998
 21
12
  0
LINE
  8
0
 10
-55.8841
 20
20
 11
-55
 21
20
  0
LINE
  8
0
 10
-55
 20
20
 11
-56.3096
 21
18.6904
  0
LINE
  8
0
 10
-56.3096
 20
18.6904
 11
-55.8841
 21
20
  0
LINE
  8
0
 10
-10
 20
7
 11
-10
 21
11
  0
LINE
  8
0
 10
-10
 20
11
 11
10
 21
11
  0
LINE
  8
0
 10
10
 20
11
 11
10
 21
7
  0
LINE
  8
0
 10
10
 20
7
 11
-10
 21
7
  0
LINE
  8
0
 10
-68.6534
 20
2.70622
 11
-68.7785
 21
2.71805
  0
LINE
  8
0
 10
-68.7785
 20
2.71805
 11
-68.9026
 21
2.7377
  0
LINE
  8
0
 10
-68.9026
 20
2.7377
 11
-69.0252
 21
2.76511
  0
LINE
  8
0
 10
-69.0252
 20
2.76511
 11
-69.1459
 21
2.80016
  0
LINE
  8
0
 10
-69.1459
 20
2.80016
 11
-69.2641
 21
2.84273
  0
LINE
  8
0
 10
-69.2641
 20
2.84273
 11
-69.3794
 21
2.89262
  0
LINE
  8
0
 10
-69.3794
 20
2.89262
 11
-69.4914
 21
2.94966
  0
LINE
  8
0
 10
-69.4914
 20
2.94966
 11
-69.5995
 21
3.01363
  0
LINE
  8
0
 10
-69.5995
 20
3.01363
 11
-69.7034
 21
3.08424
  0
LINE
  8
0
 10
-69.7034
 20
3.08424
 11
-69.8027
 21
3.16125
  0
LINE
  8
0
 10
-69.8027
 20
3.16125
 11
-69.897
 21
3.24434
  0
LINE
  8
0
 10
-69.897
 20
3.24434
 11
-69.9858
 21
3.33318
  0
LINE
  8
0
 10
-69.9858
 20
3.33318
 11
-70.0689
 21
3.42743
  0
LINE
  8
0
 10
-70.0689
 20
3.42743
 11
-70.1459
 21
3.5267
  0
LINE
  8
0
 10
-70.1459
 20
3.5267
 11
-70.2165
 21
3.63062
  0
LINE
  8
0
 10
-70.2165
 20
3.63062
 11
-70.2805
 21
3.73877
  0
LINE
  8
0
 10
-70.2805
 20
3.73877
 11
-70.3375
 21
3.85072
  0
LINE
  8
0
 10
-70.3375
 20
3.85072
 11
-70.3874
 21
3.96602
  0
LINE
  8
0
 10
-70.3874
 20
3.96602
 11
-70.43
 21
4.08424
  0
LINE
  8
0
 10
-70.43
 20
4.08424
 11
-70.465
 21
4.2049
  0
LINE
  8
0
 10
-70.465
 20
4.2049
 11
-70.4924
 21
4.32751
  0
LINE
  8
0
 10
-70.4924
 20
4.32751
 11
-70.5121
 21
4.45161
  0
LINE
  8
0
 10
-70.5121
 20
4.45161
 11
-70.5239
 21
4.57669
  0
LINE
  8
0
 10
-70.5239
 20
4.57669
 11
-70.5279
 21
4.70227
  0
LINE
  8
0
 10
-70.5279
 20
4.70227
 11
-70.5239
 21
4.82785
  0
LINE
  8
0
 10
-70.5239
 20
4.82785
 11
-70.5121
 21
4.95294
  0
LINE
  8
0
 10
-70.5121
 20
4.95294
 11
-70.4924
 21
5.07704
  0
LINE
  8
0
 10
-70.4924
 20
5.07704
 11
-70.465
 21
5.19966
  0
LINE
  8
0
 10
-70.465
 20
5.19966
 11
-70.43
 21
5.32031
  0
LINE
  8
0
 10
-70.43
 20
5.32031
 11
-70.3874
 21
5.43852
  0
LINE
  8
0
 10
-70.3874
 20
5.43852
 11
-70.3375
 21
5.55383
  0
LINE
  8
0
 10
-70.3375
 20
5.55383
 11
-70.2805
 21
5.66579
  0
LINE
  8
0
 10
-70.2805
 20
5.66579
 11
-70.2165
 21
5.77393
  0
LINE
  8
0
 10
-70.2165
 20
5.77393
 11
-70.1459
 21
5.87784
  0
LINE
  8
0
 10
-70.1459
 20
5.87784
 11
-70.0689
 21
5.97713
  0
LINE
  8
0
 10
-70.0689
 20
5.97713
 11
-69.9858
 21
6.07137
  0
LINE
  8
0
 10
-69.9858
 20
6.07137
 11
-69.897
 21
6.16022
  0
LINE
  8
0
 10
-69.897
 20
6.16022
 11
-69.8027
 21
6.2433
  0
LINE
  8
0
 10
-69.8027
 20
6.2433
 11
-69.7034
 21
6.32031
  0
LINE
  8
0
 10
-69.7034
 20
6.32031
 11
-69.5995
 21
6.39093
  0
LINE
  8
0
 10
-69.5995
 20
6.39093
 11
-69.4914
 21
6.4549
  0
LINE
  8
0
 10
-69.4914
 20
6.4549
 11
-69.3794
 21
6.51193
  0
LINE
  8
0
 10
-69.3794
 20
6.51193
 11
-69.2641
 21
6.56183
  0
LINE
  8
0
 10
-69.2641
 20
6.56183
 11
-69.1459
 21
6.60439
  0
LINE
  8
0
 10
-69.1459
 20
6.60439
 11
-69.0252
 21
6.63943
  0
LINE
  8
0
 10
-69.0252
 20
6.63943
 11
-68.9026
 21
6.66685
  0
LINE
  8
0
 10
-68.9026
 20
6.66685
 11
-68.7785
 21
6.68651
  0
LINE
  8
0
 10
-68.7785
 20
6.68651
 11
-68.6534
 21
6.69833
  0
LINE
  8
0
 10
-68.6534
 20
6.69833
 11
-68.5279
 21
6.70227
  0
LINE
  8
0
 10
-68.5279
 20
6.70227
 11
-68.4023
 21
6.69833
  0
LINE
  8
0
 10
-68.4023
 20
6.69833
 11
-68.2772
 21
6.68651
  0
LINE
  8
0
 10
-68.2772
 20
6.68651
 11
-68.1531
 21
6.66685
  0
LINE
  8
0
 10
-68.1531
 20
6.66685
 11
-68.0305
 21
6.63943
  0
LINE
  8
0
 10
-68.0305
 20
6.63943
 11
-67.9098
 21
6.60439
  0
LINE
  8
0
 10
-67.9098
 20
6.60439
 11
-67.7916
 21
6.56183
  0
LINE
  8
0
 10
-67.7916
 20
6.56183
 11
-67.6763
 21
6.51193
  0
LINE
  8
0
 10
-67.6763
 20
6.51193
 11
-67.5643
 21
6.4549
  0
LINE
  8
0
 10
-67.5643
 20
6.4549
 11
-67.4562
 21
6.39093
  0
LINE
  8
0
 10
-67.4562
 20
6.39093
 11
-67.3523
 21
6.32031
  0
LINE
  8
0
 10
-67.3523
 20
6.32031
 11
-67.253
 21
6.2433
  0
LINE
  8
0
 10
-67.253
 20
6.2433
 11
-67.1588
 21
6.16022
  0
LINE
  8
0
 10
-67.1588
 20
6.16022
 11
-67.0699
 21
6.07137
  0
LINE
  8
0
 10
-67.0699
 20
6.07137
 11
-66.9868
 21
5.97713
  0
LINE
  8
0
 10
-66.9868
 20
5.97713
 11
-66.9098
 21
5.87784
  0
LINE
  8
0
 10
-66.9098
 20
5.87784
 11
-66.8392
 21
5.77393
  0
LINE
  8
0
 10
-66.8392
 20
5.77393
 11
-66.7752
 21
5.66579
  0
LINE
  8
0
 10
-66.7752
 20
5.66579
 11
-66.7182
 21
5.55383
  0
LINE
  8
0
 10
-66.7182
 20
5.55383
 11
-66.6683
 21
5.43852
  0
LINE
  8
0
 10
-66.6683
 20
5.43852
 11
-66.6257
 21
5.32031
  0
LINE
  8
0
 10
-66.6257
 20
5.32031
 11
-66.5907
 21
5.19966
  0
LINE
  8
0
 10
-66.5907
 20
5.19966
 11
-66.5633
 21
5.07704
  0
LINE
  8
0
 10
-66.5633
 20
5.07704
 11
-66.5436
 21
4.95294
  0
LINE
  8
0
 10
-66.5436
 20
4.95294
 11
-66.5318
 21
4.82785
  0
LINE
  8
0
 10
-66.5318
 20
4.82785
 11
-66.5279
 21
4.70227
  0
LINE
  8
0
 10
-66.5279
 20
4.70227
 11
-66.5318
 21
4.57669
  0
LINE
  8
0
 10
-66.5318
 20
4.57669
 11
-66.5436
 21
4.45161
  0
LINE
  8
0
 10
-66.5436
 20
4.45161
 11
-66.5633
 21
4.32751
  0
LINE
  8
0
 10
-66.5633
 20
4.32751
 11
-66.5907
 21
4.2049
  0
LINE
  8
0
 10
-66.5907
 20
4.2049
 11
-66.6257
 21
4.08424
  0
LINE
  8
0
 10
-66.6257
 20
4.08424
 11
-66.6683
 21
3.96602
  0
LINE
  8
0
 10
-66.6683
 20
3.96602
 11
-66.7182
 21
3.85072
  0
LINE
  8
0
 10
-66.7182
 20
3.85072
 11
-66.7752
 21
3.73877
  0
LINE
  8
0
 10
-66.7752
 20
3.73877
 11
-66.8392
 21
3.63062
  0
LINE
  8
0
 10
-66.8392
 20
3.63062
 11
-66.9098
 21
3.5267
  0
LINE
  8
0
 10
-66.9098
 20
3.5267
 11
-66.9868
 21
3.42743
  0
LINE
  8
0
 10
-66.9868
 20
3.42743
 11
-67.0699
 21
3.33318
  0
LINE
  8
0
 10
-67.0699
 20
3.33318
 11
-67.1588
 21
3.24434
  0
LINE
  8
0
 10
-67.1588
 20
3.24434
 11
-67.253
 21
3.16125
  0
LINE
  8
0
 10
-67.253
 20
3.16125
 11
-67.3523
 21
3.08424
  0
LINE
  8
0
 10
-67.3523
 20
3.08424
 11
-67.4562
 21
3.01363
  0
LINE
  8
0
 10
-67.4562
 20
3.01363
 11
-67.5643
 21
2.94966
  0
LINE
  8
0
 10
-67.5643
 20
2.94966
 11
-67.6763
 21
2.89262
  0
LINE
  8
0
 10
-67.6763
 20
2.89262
 11
-67.7916
 21
2.84273
  0
LINE
  8
0
 10
-67.7916
 20
2.84273
 11
-67.9098
 21
2.80016
  0
LINE
  8
0
 10
-67.9098
 20
2.80016
 11
-68.0305
 21
2.76511
  0
LINE
  8
0
 10
-68.0305
 20
2.76511
 11
-68.1531
 21
2.7377
  0
LINE
  8
0
 10
-68.1531
 20
2.7377
 11
-68.2772
 21
2.71805
  0
LINE
  8
0
 10
-68.2772
 20
2.71805
 11
-68.4023
 21
2.70622
  0
LINE
  8
0
 10
-68.4023
 20
2.70622
 11
-68.5279
 21
2.70227
  0
LINE
  8
0
 10
-68.5279
 20
2.70227
 11
-68.6534
 21
2.70622
  0
LINE
  8
0
 10
68.4023
 20
2.70622
 11
68.2772
 21
2.71805
  0
LINE
  8
0
 10
68.2772
 20
2.71805
 11
68.1531
 21
2.7377
  0
LINE
  8
0
 10
68.1531
 20
2.7377
 11
68.0305
 21
2.76511
  0
LINE
  8
0
 10
68.0305
 20
2.76511
 11
67.9098
 21
2.80016
  0
LINE
  8
0
 10
67.9098
 20
2.80016
 11
67.7916
 21
2.84273
  0
LINE
  8
0
 10
67.7916
 20
2.84273
 11
67.6763
 21
2.89262
  0
LINE
  8
0
 10
67.6763
 20
2.89262
 11
67.5643
 21
2.94966
  0
LINE
  8
0
 10
67.5643
 20
2.94966
 11
67.4562
 21
3.01363
  0
LINE
  8
0
 10
67.4562
 20
3.01363
 11
67.3523
 21
3.08424
  0
LINE
  8
0
 10
67.3523
 20
3.08424
 11
67.253
 21
3.16125
  0
LINE
  8
0
 10
67.253
 20
3.16125
 11
67.1588
 21
3.24434
  0
LINE
  8
0
 10
67.1588
 20
3.24434
 11
67.0699
 21
3.33318
  0
LINE
  8
0
 10
67.0699
 20
3.33318
 11
66.9868
 21
3.42743
  0
LINE
  8
0
 10
66.9868
 20
3.42743
 11
66.9098
 21
3.5267
  0
LINE
  8
0
 10
66.9098
 20
3.5267
 11
66.8392
 21
3.63062
  0
LINE
  8
0
 10
66.8392
 20
3.63062
 11
66.7752
 21
3.73877
  0
LINE
  8
0
 10
66.7752
 20
3.73877
 11
66.7182
 21
3.85072
  0
LINE
  8
0
 10
66.7182
 20
3.85072
 11
66.6683
 21
3.96602
  0
LINE
  8
0
 10
66.6683
 20
3.96602
 11
66.6257
 21
4.08424
  0
LINE
  8
0
 10
66.6257
 20
4.08424
 11
66.5907
 21
4.2049
  0
LINE
  8
0
 10
66.5907
 20
4.2049
 11
66.5633
 21
4.32751
  0
LINE
  8
0
 10
66.5633
 20
4.32751
 11
66.5436
 21
4.45161
  0
LINE
  8
0
 10
66.5436
 20
4.45161
 11
66.5318
 21
4.57669
  0
LINE
  8
0
 10
66.5318
 20
4.57669
 11
66.5279
 21
4.70227
  0
LINE
  8
0
 10
66.5279
 20
4.70227
 11
66.5318
 21
4.82785
  0
LINE
  8
0
 10
66.5318
 20
4.82785
 11
66.5436
 21
4.95294
  0
LINE
  8
0
 10
66.5436
 20
4.95294
 11
66.5633
 21
5.07704
  0
LINE
  8
0
 10
66.5633
 20
5.07704
 11
66.5907
 21
5.19966
  0
LINE
  8
0
 10
66.5907
 20
5.19966
 11
66.6257
 21
5.32031
  0
LINE
  8
0
 10
66.6257
 20
5.32031
 11
66.6683
 21
5.43852
  0
LINE
  8
0
 10
66.6683
 20
5.43852
 11
66.7182
 21
5.55383
  0
LINE
  8
0
 10
66.7182
 20
5.55383
 11
66.7752
 21
5.66579
  0
LINE
  8
0
 10
66.7752
 20
5.66579
 11
66.8392
 21
5.77393
  0
LINE
  8
0
 10
66.8392
 20
5.77393
 11
66.9098
 21
5.87784
  0
LINE
  8
0
 10
66.9098
 20
5.87784
 11
66.9868
 21
5.97713
  0
LINE
  8
0
 10
66.9868
 20
5.97713
 11
67.0699
 21
6.07137
  0
LINE
  8
0
 10
67.0699
 20
6.07137
 11
67.1588
 21
6.16022
  0
LINE
  8
0
 10
67.1588
 20
6.16022
 11
67.253
 21
6.2433
  0
LINE
  8
0
 10
67.253
 20
6.2433
 11
67.3523
 21
6.32031
  0
LINE
  8
0
 10
67.3523
 20
6.32031
 11
67.4562
 21
6.39093
  0
LINE
  8
0
 10
67.4562
 20
6.39093
 11
67.5643
 21
6.4549
  0
LINE
  8
0
 10
67.5643
 20
6.4549
 11
67.6763
 21
6.51193
  0
LINE
  8
0
 10
67.6763
 20
6.51193
 11
67.7916
 21
6.56183
  0
LINE
  8
0
 10
67.7916
 20
6.56183
 11
67.9098
 21
6.60439
  0
LINE
  8
0
 10
67.9098
 20
6.60439
 11
68.0305
 21
6.63943
  0
LINE
  8
0
 10
68.0305
 20
6.63943
 11
68.1531
 21
6.66685
  0
LINE
  8
0
 10
68.1531
 20
6.66685
 11
68.2772
 21
6.68651
  0
LINE
  8
0
 10
68.2772
 20
6.68651
 11
68.4023
 21
6.69833
  0
LINE
  8
0
 10
68.4023
 20
6.69833
 11
68.5279
 21
6.70227
  0
LINE
  8
0
 10
68.5279
 20
6.70227
 11
68.6534
 21
6.69833
  0
LINE
  8
0
 10
68.6534
 20
6.69833
 11
68.7785
 21
6.68651
  0
LINE
  8
0
 10
68.7785
 20
6.68651
 11
68.9026
 21
6.66685
  0
LINE
  8
0
 10
68.9026
 20
6.66685
 11
69.0252
 21
6.63943
  0
LINE
  8
0
 10
69.0252
 20
6.63943
 11
69.1459
 21
6.60439
  0
LINE
  8
0
 10
69.1459
 20
6.60439
 11
69.2641
 21
6.56183
  0
LINE
  8
0
 10
69.2641
 20
6.56183
 11
69.3794
 21
6.51193
  0
LINE
  8
0
 10
69.3794
 20
6.51193
 11
69.4914
 21
6.4549
  0
LINE
  8
0
 10
69.4914
 20
6.4549
 11
69.5995
 21
6.39093
  0
LINE
  8
0
 10
69.5995
 20
6.39093
 11
69.7034
 21
6.32031
  0
LINE
  8
0
 10
69.7034
 20
6.32031
 11
69.8027
 21
6.2433
  0
LINE
  8
0
 10
69.8027
 20
6.2433
 11
69.897
 21
6.16022
  0
LINE
  8
0
 10
69.897
 20
6.16022
 11
69.9858
 21
6.07137
  0
LINE
  8
0
 10
69.9858
 20
6.07137
 11
70.0689
 21
5.97713
  0
LINE
  8
0
 10
70.0689
 20
5.97713
 11
70.1459
 21
5.87784
  0
LINE
  8
0
 10
70.1459
 20
5.87784
 11
70.2165
 21
5.77393
  0
LINE
  8
0
 10
70.2165
 20
5.77393
 11
70.2805
 21
5.66579
  0
LINE
  8
0
 10
70.2805
 20
5.66579
 11
70.3375
 21
5.55383
  0
LINE
  8
0
 10
70.3375
 20
5.55383
 11
70.3874
 21
5.43852
  0
LINE
  8
0
 10
70.3874
 20
5.43852
 11
70.43
 21
5.32031
  0
LINE
  8
0
 10
70.43
 20
5.32031
 11
70.465
 21
5.19966
  0
LINE
  8
0
 10
70.465
 20
5.19966
 11
70.4924
 21
5.07704
  0
LINE
  8
0
 10
70.4924
 20
5.07704
 11
70.5121
 21
4.95294
  0
LINE
  8
0
 10
70.5121
 20
4.95294
 11
70.5239
 21
4.82785
  0
LINE
  8
0
 10
70.5239
 20
4.82785
 11
70.5279
 21
4.70227
  0
LINE
  8
0
 10
70.5279
 20
4.70227
 11
70.5239
 21
4.57669
  0
LINE
  8
0
 10
70.5239
 20
4.57669
 11
70.5121
 21
4.45161
  0
LINE
  8
0
 10
70.5121
 20
4.45161
 11
70.4924
 21
4.32751
  0
LINE
  8
0
 10
70.4924
 20
4.32751
 11
70.465
 21
4.2049
  0
LINE
  8
0
 10
70.465
 20
4.2049
 11
70.43
 21
4.08424
  0
LINE
  8
0
 10
70.43
 20
4.08424
 11
70.3874
 21
3.96602
  0
LINE
  8
0
 10
70.3874
 20
3.96602
 11
70.3375
 21
3.85072
  0
LINE
  8
0
 10
70.3375
 20
3.85072
 11
70.2805
 21
3.73877
  0
LINE
  8
0
 10
70.2805
 20
3.73877
 11
70.2165
 21
3.63062
  0
LINE
  8
0
 10
70.2165
 20
3.63062
 11
70.1459
 21
3.5267
  0
LINE
  8
0
 10
70.1459
 20
3.5267
 11
70.0689
 21
3.42743
  0
LINE
  8
0
 10
70.0689
 20
3.42743
 11
69.9858
 21
3.33318
  0
LINE
  8
0
 10
69.9858
 20
3.33318
 11
69.897
 21
3.24434
  0
LINE
  8
0
 10
69.897
 20
3.24434
 11
69.8027
 21
3.16125
  0
LINE
  8
0
 10
69.8027
 20
3.16125
 11
69.7034
 21
3.08424
  0
LINE
  8
0
 10
69.7034
 20
3.08424
 11
69.5995
 21
3.01363
  0
LINE
  8
0
 10
69.5995
 20
3.01363
 11
69.4914
 21
2.94966
  0
LINE
  8
0
 10
69.4914
 20
2.94966
 11
69.3794
 21
2.89262
  0
LINE
  8
0
 10
69.3794
 20
2.89262
 11
69.2641
 21
2.84273
  0
LINE
  8
0
 10
69.2641
 20
2.84273
 11
69.1459
 21
2.80016
  0
LINE
  8
0
 10
69.1459
 20
2.80016
 11
69.0252
 21
2.76511
  0
LINE
  8
0
 10
69.0252
 20
2.76511
 11
68.9026
 21
2.7377
  0
LINE
  8
0
 10
68.9026
 20
2.7377
 11
68.7785
 21
2.71805
  0
LINE
  8
0
 10
68.7785
 20
2.71805
 11
68.6534
 21
2.70622
  0
LINE
  8
0
 10
68.6534
 20
2.70622
 11
68.5279
 21
2.70227
  0
LINE
  8
0
 10
68.5279
 20
2.70227
 11
68.4023
 21
2.70622
  0
ENDSEC
  0
SECTION
  2
OBJECTS
  0
DICTIONARY
  0
ENDSEC
  0
EOF
