  0
SECTION
  2
BLOCKS
  0
ENDSEC
  0
SECTION
  2
ENTITIES
  0
LINE
  8
0
 10
0
 20
230.826
 11
-75
 21
0
  0
LINE
  8
0
 10
-75
 20
0
 11
75
 21
0
  0
LINE
  8
0
 10
75
 20
0
 11
0
 21
230.826
  0
LINE
  8
0
 10
-0.12558
 20
212.83
 11
-0.250656
 21
212.842
  0
LINE
  8
0
 10
-0.250656
 20
212.842
 11
-0.374756
 21
212.862
  0
LINE
  8
0
 10
-0.374756
 20
212.862
 11
-0.497375
 21
212.889
  0
LINE
  8
0
 10
-0.497375
 20
212.889
 11
-0.618027
 21
212.924
  0
LINE
  8
0
 10
-0.618027
 20
212.924
 11
-0.736237
 21
212.967
  0
LINE
  8
0
 10
-0.736237
 20
212.967
 11
-0.851547
 21
213.017
  0
LINE
  8
0
 10
-0.851547
 20
213.017
 11
-0.963501
 21
213.074
  0
LINE
  8
0
 10
-0.963501
 20
213.074
 11
-1.07164
 21
213.138
  0
LINE
  8
0
 10
-1.07164
 20
213.138
 11
-1.17557
 21
213.208
  0
LINE
  8
0
 10
-1.17557
 20
213.208
 11
-1.27484
 21
213.285
  0
LINE
  8
0
 10
-1.27484
 20
213.285
 11
-1.36908
 21
213.368
  0
LINE
  8
0
 10
-1.36908
 20
213.368
 11
-1.45793
 21
213.457
  0
LINE
  8
0
 10
-1.45793
 20
213.457
 11
-1.54102
 21
213.551
  0
LINE
  8
0
 10
-1.54102
 20
213.551
 11
-1.61803
 21
213.651
  0
LINE
  8
0
 10
-1.61803
 20
213.651
 11
-1.68864
 21
213.755
  0
LINE
  8
0
 10
-1.68864
 20
213.755
 11
-1.75261
 21
213.863
  0
LINE
  8
0
 10
-1.75261
 20
213.863
 11
-1.80965
 21
213.975
  0
LINE
  8
0
 10
-1.80965
 20
213.975
 11
-1.85954
 21
214.09
  0
LINE
  8
0
 10
-1.85954
 20
214.09
 11
-1.9021
 21
214.208
  0
LINE
  8
0
 10
-1.9021
 20
214.208
 11
-1.93716
 21
214.329
  0
LINE
  8
0
 10
-1.93716
 20
214.329
 11
-1.96457
 21
214.451
  0
LINE
  8
0
 10
-1.96457
 20
214.451
 11
-1.98422
 21
214.576
  0
LINE
  8
0
 10
-1.98422
 20
214.576
 11
-1.99605
 21
214.701
  0
LINE
  8
0
 10
-1.99605
 20
214.701
 11
-2
 21
214.826
  0
LINE
  8
0
 10
-2
 20
214.826
 11
-1.99605
 21
214.952
  0
LINE
  8
0
 10
-1.99605
 20
214.952
 11
-1.98422
 21
215.077
  0
LINE
  8
0
 10
-1.98422
 20
215.077
 11
-1.96457
 21
215.201
  0
LINE
  8
0
 10
-1.96457
 20
215.201
 11
-1.93716
 21
215.324
  0
LINE
  8
0
 10
-1.93716
 20
215.324
 11
-1.9021
 21
215.444
  0
LINE
  8
0
 10
-1.9021
 20
215.444
 11
-1.85954
 21
215.562
  0
LINE
  8
0
 10
-1.85954
 20
215.562
 11
-1.80965
 21
215.678
  0
LINE
  8
0
 10
-1.80965
 20
215.678
 11
-1.75261
 21
215.79
  0
LINE
  8
0
 10
-1.75261
 20
215.79
 11
-1.68864
 21
215.898
  0
LINE
  8
0
 10
-1.68864
 20
215.898
 11
-1.61803
 21
216.002
  0
LINE
  8
0
 10
-1.61803
 20
216.002
 11
-1.54102
 21
216.101
  0
LINE
  8
0
 10
-1.54102
 20
216.101
 11
-1.45793
 21
216.195
  0
LINE
  8
0
 10
-1.45793
 20
216.195
 11
-1.36908
 21
216.284
  0
LINE
  8
0
 10
-1.36908
 20
216.284
 11
-1.27484
 21
216.367
  0
LINE
  8
0
 10
-1.27484
 20
216.367
 11
-1.17557
 21
216.444
  0
LINE
  8
0
 10
-1.17557
 20
216.444
 11
-1.07164
 21
216.515
  0
LINE
  8
0
 10
-1.07164
 20
216.515
 11
-0.963501
 21
216.579
  0
LINE
  8
0
 10
-0.963501
 20
216.579
 11
-0.851547
 21
216.636
  0
LINE
  8
0
 10
-0.851547
 20
216.636
 11
-0.736237
 21
216.686
  0
LINE
  8
0
 10
-0.736237
 20
216.686
 11
-0.618027
 21
216.728
  0
LINE
  8
0
 10
-0.618027
 20
216.728
 11
-0.497375
 21
216.763
  0
LINE
  8
0
 10
-0.497375
 20
216.763
 11
-0.374756
 21
216.791
  0
LINE
  8
0
 10
-0.374756
 20
216.791
 11
-0.250656
 21
216.81
  0
LINE
  8
0
 10
-0.250656
 20
216.81
 11
-0.12558
 21
216.822
  0
LINE
  8
0
 10
-0.12558
 20
216.822
 11
0
 21
216.826
  0
LINE
  8
0
 10
0
 20
216.826
 11
0.12558
 21
216.822
  0
LINE
  8
0
 10
0.12558
 20
216.822
 11
0.250656
 21
216.81
  0
LINE
  8
0
 10
0.250656
 20
216.81
 11
0.374756
 21
216.791
  0
LINE
  8
0
 10
0.374756
 20
216.791
 11
0.497375
 21
216.763
  0
LINE
  8
0
 10
0.497375
 20
216.763
 11
0.618027
 21
216.728
  0
LINE
  8
0
 10
0.618027
 20
216.728
 11
0.736237
 21
216.686
  0
LINE
  8
0
 10
0.736237
 20
216.686
 11
0.851547
 21
216.636
  0
LINE
  8
0
 10
0.851547
 20
216.636
 11
0.963501
 21
216.579
  0
LINE
  8
0
 10
0.963501
 20
216.579
 11
1.07164
 21
216.515
  0
LINE
  8
0
 10
1.07164
 20
216.515
 11
1.17557
 21
216.444
  0
LINE
  8
0
 10
1.17557
 20
216.444
 11
1.27484
 21
216.367
  0
LINE
  8
0
 10
1.27484
 20
216.367
 11
1.36908
 21
216.284
  0
LINE
  8
0
 10
1.36908
 20
216.284
 11
1.45793
 21
216.195
  0
LINE
  8
0
 10
1.45793
 20
216.195
 11
1.54102
 21
216.101
  0
LINE
  8
0
 10
1.54102
 20
216.101
 11
1.61803
 21
216.002
  0
LINE
  8
0
 10
1.61803
 20
216.002
 11
1.68864
 21
215.898
  0
LINE
  8
0
 10
1.68864
 20
215.898
 11
1.75261
 21
215.79
  0
LINE
  8
0
 10
1.75261
 20
215.79
 11
1.80965
 21
215.678
  0
LINE
  8
0
 10
1.80965
 20
215.678
 11
1.85954
 21
215.562
  0
LINE
  8
0
 10
1.85954
 20
215.562
 11
1.9021
 21
215.444
  0
LINE
  8
0
 10
1.9021
 20
215.444
 11
1.93716
 21
215.324
  0
LINE
  8
0
 10
1.93716
 20
215.324
 11
1.96457
 21
215.201
  0
LINE
  8
0
 10
1.96457
 20
215.201
 11
1.98422
 21
215.077
  0
LINE
  8
0
 10
1.98422
 20
215.077
 11
1.99605
 21
214.952
  0
LINE
  8
0
 10
1.99605
 20
214.952
 11
2
 21
214.826
  0
LINE
  8
0
 10
2
 20
214.826
 11
1.99605
 21
214.701
  0
LINE
  8
0
 10
1.99605
 20
214.701
 11
1.98422
 21
214.576
  0
LINE
  8
0
 10
1.98422
 20
214.576
 11
1.96457
 21
214.451
  0
LINE
  8
0
 10
1.96457
 20
214.451
 11
1.93716
 21
214.329
  0
LINE
  8
0
 10
1.93716
 20
214.329
 11
1.9021
 21
214.208
  0
LINE
  8
0
 10
1.9021
 20
214.208
 11
1.85954
 21
214.09
  0
LINE
  8
0
 10
1.85954
 20
214.09
 11
1.80965
 21
213.975
  0
LINE
  8
0
 10
1.80965
 20
213.975
 11
1.75261
 21
213.863
  0
LINE
  8
0
 10
1.75261
 20
213.863
 11
1.68864
 21
213.755
  0
LINE
  8
0
 10
1.68864
 20
213.755
 11
1.61803
 21
213.651
  0
LINE
  8
0
 10
1.61803
 20
213.651
 11
1.54102
 21
213.551
  0
LINE
  8
0
 10
1.54102
 20
213.551
 11
1.45793
 21
213.457
  0
LINE
  8
0
 10
1.45793
 20
213.457
 11
1.36908
 21
213.368
  0
LINE
  8
0
 10
1.36908
 20
213.368
 11
1.27484
 21
213.285
  0
LINE
  8
0
 10
1.27484
 20
213.285
 11
1.17557
 21
213.208
  0
LINE
  8
0
 10
1.17557
 20
213.208
 11
1.07164
 21
213.138
  0
LINE
  8
0
 10
1.07164
 20
213.138
 11
0.963501
 21
213.074
  0
LINE
  8
0
 10
0.963501
 20
213.074
 11
0.851547
 21
213.017
  0
LINE
  8
0
 10
0.851547
 20
213.017
 11
0.736237
 21
212.967
  0
LINE
  8
0
 10
0.736237
 20
212.967
 11
0.618027
 21
212.924
  0
LINE
  8
0
 10
0.618027
 20
212.924
 11
0.497375
 21
212.889
  0
LINE
  8
0
 10
0.497375
 20
212.889
 11
0.374756
 21
212.862
  0
LINE
  8
0
 10
0.374756
 20
212.862
 11
0.250656
 21
212.842
  0
LINE
  8
0
 10
0.250656
 20
212.842
 11
0.12558
 21
212.83
  0
LINE
  8
0
 10
0.12558
 20
212.83
 11
0
 21
212.826
  0
LINE
  8
0
 10
0
 20
212.826
 11
-0.12558
 21
212.83
  0
LINE
  8
0
 10
-1.05396
 20
188.75
 11
-0.504974
 21
190.439
  0
LINE
  8
0
 10
-0.504974
 20
190.439
 11
-0.0644684
 21
188.75
  0
LINE
  8
0
 10
-0.0644684
 20
188.75
 11
-1.05396
 21
188.75
  0
LINE
  8
0
 10
-2.6908
 20
183.712
 11
-1.86618
 21
186.25
  0
LINE
  8
0
 10
-1.86618
 20
186.25
 11
1.86618
 21
186.25
  0
LINE
  8
0
 10
1.86618
 20
186.25
 11
6.2614
 21
172.723
  0
LINE
  8
0
 10
6.2614
 20
172.723
 11
4.19044
 21
172.596
  0
LINE
  8
0
 10
4.19044
 20
172.596
 11
-2.6908
 21
183.712
  0
LINE
  8
0
 10
-3.46526
 20
181.328
 11
2.02293
 21
172.462
  0
LINE
  8
0
 10
2.02293
 20
172.462
 11
-6.51649
 21
171.938
  0
LINE
  8
0
 10
-6.51649
 20
171.938
 11
-3.46526
 21
181.328
  0
LINE
  8
0
 10
5.53207
 20
170.428
 11
6.97815
 21
170.517
  0
LINE
  8
0
 10
6.97815
 20
170.517
 11
8.63657
 21
165.413
  0
LINE
  8
0
 10
8.63657
 20
165.413
 11
5.53207
 21
170.428
  0
LINE
  8
0
 10
-9.17696
 20
163.75
 11
-7.26244
 21
169.642
  0
LINE
  8
0
 10
-7.26244
 20
169.642
 11
3.36456
 21
170.295
  0
LINE
  8
0
 10
3.36456
 20
170.295
 11
7.41615
 21
163.75
  0
LINE
  8
0
 10
7.41615
 20
163.75
 11
-9.17696
 21
163.75
  0
LINE
  8
0
 10
-0.957108
 20
161.25
 11
9.98918
 21
161.25
  0
LINE
  8
0
 10
9.98918
 20
161.25
 11
11.2499
 21
157.37
  0
LINE
  8
0
 10
11.2499
 20
157.37
 11
11.2499
 21
150.121
  0
LINE
  8
0
 10
11.2499
 20
150.121
 11
0.460052
 21
149.193
  0
LINE
  8
0
 10
0.460052
 20
149.193
 11
-0.957108
 21
161.25
  0
LINE
  8
0
 10
-11.2499
 20
157.37
 11
-9.98918
 21
161.25
  0
LINE
  8
0
 10
-9.98918
 20
161.25
 11
-3.20663
 21
161.25
  0
LINE
  8
0
 10
-3.20663
 20
161.25
 11
-1.76697
 21
149.002
  0
LINE
  8
0
 10
-1.76697
 20
149.002
 11
-11.2499
 21
148.186
  0
LINE
  8
0
 10
-11.2499
 20
148.186
 11
-11.2499
 21
157.37
  0
LINE
  8
0
 10
-14.0689
 20
148.694
 11
-13.7497
 21
149.676
  0
LINE
  8
0
 10
-13.7497
 20
149.676
 11
-13.7497
 21
148.665
  0
LINE
  8
0
 10
-13.7497
 20
148.665
 11
-14.0689
 21
148.694
  0
LINE
  8
0
 10
13.7497
 20
149.676
 11
15.3558
 21
144.733
  0
LINE
  8
0
 10
15.3558
 20
144.733
 11
13.7497
 21
144.337
  0
LINE
  8
0
 10
13.7497
 20
144.337
 11
13.7497
 21
149.676
  0
LINE
  8
0
 10
1.68724
 20
138.75
 11
0.721359
 21
146.966
  0
LINE
  8
0
 10
0.721359
 20
146.966
 11
11.2499
 21
147.871
  0
LINE
  8
0
 10
11.2499
 20
147.871
 11
11.2499
 21
138.75
  0
LINE
  8
0
 10
11.2499
 20
138.75
 11
1.68724
 21
138.75
  0
LINE
  8
0
 10
-11.2499
 20
138.75
 11
-11.2499
 21
145.937
  0
LINE
  8
0
 10
-11.2499
 20
145.937
 11
-1.50528
 21
146.774
  0
LINE
  8
0
 10
-1.50528
 20
146.774
 11
-0.561905
 21
138.75
  0
LINE
  8
0
 10
-0.561905
 20
138.75
 11
-11.2499
 21
138.75
  0
LINE
  8
0
 10
-17.2999
 20
138.75
 11
-14.7789
 21
146.509
  0
LINE
  8
0
 10
-14.7789
 20
146.509
 11
-13.7497
 21
146.415
  0
LINE
  8
0
 10
-13.7497
 20
146.415
 11
-13.7497
 21
138.75
  0
LINE
  8
0
 10
-13.7497
 20
138.75
 11
-17.2999
 21
138.75
  0
LINE
  8
0
 10
13.7497
 20
138.75
 11
13.7497
 21
142.087
  0
LINE
  8
0
 10
13.7497
 20
142.087
 11
16.0326
 21
142.65
  0
LINE
  8
0
 10
16.0326
 20
142.65
 11
17.2999
 21
138.75
  0
LINE
  8
0
 10
17.2999
 20
138.75
 11
13.7497
 21
138.75
  0
LINE
  8
0
 10
-3.22037
 20
128.69
 11
-4.26292
 21
136.25
  0
LINE
  8
0
 10
-4.26292
 20
136.25
 11
11.2499
 21
136.25
  0
LINE
  8
0
 10
11.2499
 20
136.25
 11
11.2499
 21
119.814
  0
LINE
  8
0
 10
11.2499
 20
119.814
 11
-3.22037
 21
128.69
  0
LINE
  8
0
 10
-18.1122
 20
136.25
 11
-13.7497
 21
136.25
  0
LINE
  8
0
 10
-13.7497
 20
136.25
 11
-13.7497
 21
130.557
  0
LINE
  8
0
 10
-13.7497
 20
130.557
 11
-20.859
 21
127.796
  0
LINE
  8
0
 10
-20.859
 20
127.796
 11
-18.1122
 21
136.25
  0
LINE
  8
0
 10
13.7497
 20
126.778
 11
13.7497
 21
136.25
  0
LINE
  8
0
 10
13.7497
 20
136.25
 11
17.4339
 21
136.25
  0
LINE
  8
0
 10
17.4339
 20
136.25
 11
16.3879
 21
126.507
  0
LINE
  8
0
 10
16.3879
 20
126.507
 11
13.7497
 21
126.778
  0
LINE
  8
0
 10
-11.2499
 20
133.615
 11
-11.2499
 21
136.25
  0
LINE
  8
0
 10
-11.2499
 20
136.25
 11
-6.51283
 21
136.25
  0
LINE
  8
0
 10
-6.51283
 20
136.25
 11
-5.67856
 21
130.198
  0
LINE
  8
0
 10
-5.67856
 20
130.198
 11
-11.2499
 21
133.615
  0
LINE
  8
0
 10
18.6138
 20
126.277
 11
19.2939
 21
132.613
  0
LINE
  8
0
 10
19.2939
 20
132.613
 11
21.4473
 21
125.985
  0
LINE
  8
0
 10
21.4473
 20
125.985
 11
18.6138
 21
126.277
  0
LINE
  8
0
 10
-11.2499
 20
113.75
 11
-11.2499
 21
131.365
  0
LINE
  8
0
 10
-11.2499
 20
131.365
 11
-5.33943
 21
127.74
  0
LINE
  8
0
 10
-5.33943
 20
127.74
 11
-3.41072
 21
113.75
  0
LINE
  8
0
 10
-3.41072
 20
113.75
 11
-11.2499
 21
113.75
  0
LINE
  8
0
 10
-24.0147
 20
113.75
 11
-23.4722
 21
119.754
  0
LINE
  8
0
 10
-23.4722
 20
119.754
 11
-21.6956
 21
125.221
  0
LINE
  8
0
 10
-21.6956
 20
125.221
 11
-13.7497
 21
128.307
  0
LINE
  8
0
 10
-13.7497
 20
128.307
 11
-13.7497
 21
113.75
  0
LINE
  8
0
 10
-13.7497
 20
113.75
 11
-24.0147
 21
113.75
  0
LINE
  8
0
 10
-1.16081
 20
113.75
 11
-2.88162
 21
126.233
  0
LINE
  8
0
 10
-2.88162
 20
126.233
 11
11.2499
 21
117.564
  0
LINE
  8
0
 10
11.2499
 20
117.564
 11
11.2499
 21
113.75
  0
LINE
  8
0
 10
11.2499
 20
113.75
 11
-1.16081
 21
113.75
  0
LINE
  8
0
 10
13.7497
 20
113.75
 11
13.7497
 21
124.529
  0
LINE
  8
0
 10
13.7497
 20
124.529
 11
16.1491
 21
124.282
  0
LINE
  8
0
 10
16.1491
 20
124.282
 11
15.0185
 21
113.75
  0
LINE
  8
0
 10
15.0185
 20
113.75
 11
13.7497
 21
113.75
  0
LINE
  8
0
 10
17.2684
 20
113.75
 11
18.3746
 21
124.052
  0
LINE
  8
0
 10
18.3746
 20
124.052
 11
22.2036
 21
123.658
  0
LINE
  8
0
 10
22.2036
 20
123.658
 11
25.4229
 21
113.75
  0
LINE
  8
0
 10
25.4229
 20
113.75
 11
17.2684
 21
113.75
  0
LINE
  8
0
 10
13.7497
 20
111.25
 11
26.2352
 21
111.25
  0
LINE
  8
0
 10
26.2352
 20
111.25
 11
28.9691
 21
102.836
  0
LINE
  8
0
 10
28.9691
 20
102.836
 11
13.7497
 21
95.8858
  0
LINE
  8
0
 10
13.7497
 20
95.8858
 11
13.7497
 21
111.25
  0
LINE
  8
0
 10
-27.2936
 20
107.993
 11
-26.2352
 21
111.25
  0
LINE
  8
0
 10
-26.2352
 20
111.25
 11
-17.6243
 21
111.25
  0
LINE
  8
0
 10
-17.6243
 20
111.25
 11
-19.9848
 21
106.831
  0
LINE
  8
0
 10
-19.9848
 20
106.831
 11
-27.2936
 21
107.993
  0
LINE
  8
0
 10
4.36287
 20
98.5683
 11
7.30362
 21
111.25
  0
LINE
  8
0
 10
7.30362
 20
111.25
 11
11.2499
 21
111.25
  0
LINE
  8
0
 10
11.2499
 20
111.25
 11
11.2499
 21
94.0575
  0
LINE
  8
0
 10
11.2499
 20
94.0575
 11
4.36287
 21
98.5683
  0
LINE
  8
0
 10
-17.9108
 20
106.502
 11
-15.3744
 21
111.25
  0
LINE
  8
0
 10
-15.3744
 20
111.25
 11
-13.7497
 21
111.25
  0
LINE
  8
0
 10
-13.7497
 20
111.25
 11
-13.7497
 21
105.841
  0
LINE
  8
0
 10
-13.7497
 20
105.841
 11
-17.9108
 21
106.502
  0
LINE
  8
0
 10
-11.2499
 20
108.793
 11
-11.2499
 21
111.25
  0
LINE
  8
0
 10
-11.2499
 20
111.25
 11
5.05371
 21
111.25
  0
LINE
  8
0
 10
5.05371
 20
111.25
 11
2.40974
 21
99.8474
  0
LINE
  8
0
 10
2.40974
 20
99.8474
 11
-11.2499
 21
108.793
  0
LINE
  8
0
 10
-11.2499
 20
88.7501
 11
-11.2499
 21
106.543
  0
LINE
  8
0
 10
-11.2499
 20
106.543
 11
1.95694
 21
97.8939
  0
LINE
  8
0
 10
1.95694
 20
97.8939
 11
-0.163269
 21
88.7501
  0
LINE
  8
0
 10
-0.163269
 20
88.7501
 11
-11.2499
 21
88.7501
  0
LINE
  8
0
 10
-33.5458
 20
88.7501
 11
-27.9887
 21
105.853
  0
LINE
  8
0
 10
-27.9887
 20
105.853
 11
-21.093
 21
104.757
  0
LINE
  8
0
 10
-21.093
 20
104.757
 11
-29.6448
 21
88.7501
  0
LINE
  8
0
 10
-29.6448
 20
88.7501
 11
-33.5458
 21
88.7501
  0
LINE
  8
0
 10
-27.3945
 20
88.7501
 11
-19.0189
 21
104.428
  0
LINE
  8
0
 10
-19.0189
 20
104.428
 11
-13.7497
 21
103.591
  0
LINE
  8
0
 10
-13.7497
 20
103.591
 11
-13.7497
 21
88.7501
  0
LINE
  8
0
 10
-13.7497
 20
88.7501
 11
-27.3945
 21
88.7501
  0
LINE
  8
0
 10
13.7497
 20
88.7501
 11
13.7497
 21
93.6359
  0
LINE
  8
0
 10
13.7497
 20
93.6359
 11
29.6058
 21
100.876
  0
LINE
  8
0
 10
29.6058
 20
100.876
 11
31.6686
 21
94.5275
  0
LINE
  8
0
 10
31.6686
 20
94.5275
 11
31.2561
 21
88.7501
  0
LINE
  8
0
 10
31.2561
 20
88.7501
 11
13.7497
 21
88.7501
  0
LINE
  8
0
 10
2.08626
 20
88.7501
 11
3.91006
 21
96.6148
  0
LINE
  8
0
 10
3.91006
 20
96.6148
 11
11.2499
 21
91.8076
  0
LINE
  8
0
 10
11.2499
 20
91.8076
 11
11.2499
 21
88.7501
  0
LINE
  8
0
 10
11.2499
 20
88.7501
 11
2.08626
 21
88.7501
  0
LINE
  8
0
 10
33.5064
 20
88.7501
 11
33.5135
 21
88.8495
  0
LINE
  8
0
 10
33.5135
 20
88.8495
 11
33.5458
 21
88.7501
  0
LINE
  8
0
 10
33.5458
 20
88.7501
 11
33.5064
 21
88.7501
  0
LINE
  8
0
 10
-2.4601
 20
80.9231
 11
-6.14662
 21
86.2503
  0
LINE
  8
0
 10
-6.14662
 20
86.2503
 11
11.2499
 21
86.2503
  0
LINE
  8
0
 10
11.2499
 20
86.2503
 11
11.2499
 21
80.8205
  0
LINE
  8
0
 10
11.2499
 20
80.8205
 11
-2.4601
 21
80.9231
  0
LINE
  8
0
 10
-36.2499
 20
80.4277
 11
-34.358
 21
86.2503
  0
LINE
  8
0
 10
-34.358
 20
86.2503
 11
-33.8509
 21
86.2503
  0
LINE
  8
0
 10
-33.8509
 20
86.2503
 11
-30.505
 21
78.8128
  0
LINE
  8
0
 10
-30.505
 20
78.8128
 11
-36.2499
 21
77.4082
  0
LINE
  8
0
 10
-36.2499
 20
77.4082
 11
-36.2499
 21
80.4277
  0
LINE
  8
0
 10
22.6681
 20
86.2503
 11
34.358
 21
86.2503
  0
LINE
  8
0
 10
34.358
 20
86.2503
 11
36.2499
 21
80.4277
  0
LINE
  8
0
 10
36.2499
 20
80.4277
 11
36.2499
 21
77.7729
  0
LINE
  8
0
 10
36.2499
 20
77.7729
 11
20.829
 21
77.1606
  0
LINE
  8
0
 10
20.829
 20
77.1606
 11
22.6681
 21
86.2503
  0
LINE
  8
0
 10
-31.601
 20
86.2503
 11
-13.7497
 21
86.2503
  0
LINE
  8
0
 10
-13.7497
 20
86.2503
 11
-13.7497
 21
82.909
  0
LINE
  8
0
 10
-13.7497
 20
82.909
 11
-28.4779
 21
79.3083
  0
LINE
  8
0
 10
-28.4779
 20
79.3083
 11
-31.601
 21
86.2503
  0
LINE
  8
0
 10
13.7497
 20
86.2503
 11
20.4178
 21
86.2503
  0
LINE
  8
0
 10
20.4178
 20
86.2503
 11
18.5608
 21
77.0706
  0
LINE
  8
0
 10
18.5608
 20
77.0706
 11
13.7497
 21
76.8799
  0
LINE
  8
0
 10
13.7497
 20
76.8799
 11
13.7497
 21
86.2503
  0
LINE
  8
0
 10
-11.2499
 20
80.9891
 11
-11.2499
 21
86.2503
  0
LINE
  8
0
 10
-11.2499
 20
86.2503
 11
-8.39653
 21
86.2503
  0
LINE
  8
0
 10
-8.39653
 20
86.2503
 11
-4.72145
 21
80.9402
  0
LINE
  8
0
 10
-4.72145
 20
80.9402
 11
-11.2499
 21
80.9891
  0
LINE
  8
0
 10
-21.4787
 20
63.7501
 11
-27.5658
 21
77.2812
  0
LINE
  8
0
 10
-27.5658
 20
77.2812
 11
-13.7497
 21
80.6587
  0
LINE
  8
0
 10
-13.7497
 20
80.6587
 11
-13.7497
 21
63.7501
  0
LINE
  8
0
 10
-13.7497
 20
63.7501
 11
-21.4787
 21
63.7501
  0
LINE
  8
0
 10
-11.2499
 20
63.7501
 11
-11.2499
 21
78.7388
  0
LINE
  8
0
 10
-11.2499
 20
78.7388
 11
-3.15628
 21
78.6785
  0
LINE
  8
0
 10
-3.15628
 20
78.6785
 11
7.1743
 21
63.7501
  0
LINE
  8
0
 10
7.1743
 20
63.7501
 11
-11.2499
 21
63.7501
  0
LINE
  8
0
 10
9.42421
 20
63.7501
 11
-0.894928
 21
78.6613
  0
LINE
  8
0
 10
-0.894928
 20
78.6613
 11
11.2499
 21
78.5706
  0
LINE
  8
0
 10
11.2499
 20
78.5706
 11
11.2499
 21
63.7501
  0
LINE
  8
0
 10
11.2499
 20
63.7501
 11
9.42421
 21
63.7501
  0
LINE
  8
0
 10
-36.2499
 20
63.7501
 11
-36.2499
 21
75.1579
  0
LINE
  8
0
 10
-36.2499
 20
75.1579
 11
-29.5933
 21
76.7853
  0
LINE
  8
0
 10
-29.5933
 20
76.7853
 11
-23.7289
 21
63.7501
  0
LINE
  8
0
 10
-23.7289
 20
63.7501
 11
-36.2499
 21
63.7501
  0
LINE
  8
0
 10
18.1164
 20
63.7501
 11
20.3705
 21
74.8928
  0
LINE
  8
0
 10
20.3705
 20
74.8928
 11
36.2499
 21
75.5226
  0
LINE
  8
0
 10
36.2499
 20
75.5226
 11
36.2499
 21
63.7501
  0
LINE
  8
0
 10
36.2499
 20
63.7501
 11
18.1164
 21
63.7501
  0
LINE
  8
0
 10
13.7497
 20
63.7501
 11
13.7497
 21
74.63
  0
LINE
  8
0
 10
13.7497
 20
74.63
 11
18.1023
 21
74.8028
  0
LINE
  8
0
 10
18.1023
 20
74.8028
 11
15.8661
 21
63.7501
  0
LINE
  8
0
 10
15.8661
 20
63.7501
 11
13.7497
 21
63.7501
  0
LINE
  8
0
 10
-41.6688
 20
63.7501
 11
-38.7497
 21
72.7341
  0
LINE
  8
0
 10
-38.7497
 20
72.7341
 11
-38.7497
 21
63.7501
  0
LINE
  8
0
 10
-38.7497
 20
63.7501
 11
-41.6688
 21
63.7501
  0
LINE
  8
0
 10
38.7497
 20
72.7341
 11
38.786
 21
72.6224
  0
LINE
  8
0
 10
38.786
 20
72.6224
 11
38.7497
 21
72.607
  0
LINE
  8
0
 10
38.7497
 20
72.607
 11
38.7497
 21
72.7341
  0
LINE
  8
0
 10
38.7497
 20
63.7501
 11
38.7497
 21
70.3571
  0
LINE
  8
0
 10
38.7497
 20
70.3571
 11
39.4289
 21
70.6437
  0
LINE
  8
0
 10
39.4289
 20
70.6437
 11
41.6688
 21
63.7501
  0
LINE
  8
0
 10
41.6688
 20
63.7501
 11
38.7497
 21
63.7501
  0
LINE
  8
0
 10
-18.5169
 20
61.2503
 11
-13.7497
 21
61.2503
  0
LINE
  8
0
 10
-13.7497
 20
61.2503
 11
-13.7497
 21
58.0444
  0
LINE
  8
0
 10
-13.7497
 20
58.0444
 11
-21.0178
 21
56.506
  0
LINE
  8
0
 10
-21.0178
 20
56.506
 11
-18.5169
 21
61.2503
  0
LINE
  8
0
 10
24.6014
 20
61.2503
 11
36.2499
 21
61.2503
  0
LINE
  8
0
 10
36.2499
 20
61.2503
 11
36.2499
 21
59.5188
  0
LINE
  8
0
 10
36.2499
 20
59.5188
 11
26.8242
 21
53.2234
  0
LINE
  8
0
 10
26.8242
 20
53.2234
 11
24.6014
 21
61.2503
  0
LINE
  8
0
 10
13.7497
 20
61.2503
 11
22.3511
 21
61.2503
  0
LINE
  8
0
 10
22.3511
 20
61.2503
 11
24.9252
 21
51.955
  0
LINE
  8
0
 10
24.9252
 20
51.955
 11
13.7497
 21
44.4912
  0
LINE
  8
0
 10
13.7497
 20
44.4912
 11
13.7497
 21
61.2503
  0
LINE
  8
0
 10
-36.2499
 20
61.2503
 11
-20.7668
 21
61.2503
  0
LINE
  8
0
 10
-20.7668
 20
61.2503
 11
-23.5508
 21
55.97
  0
LINE
  8
0
 10
-23.5508
 20
55.97
 11
-36.2499
 21
53.2822
  0
LINE
  8
0
 10
-36.2499
 20
53.2822
 11
-36.2499
 21
61.2503
  0
LINE
  8
0
 10
38.7497
 20
57.1293
 11
38.7497
 21
61.2503
  0
LINE
  8
0
 10
38.7497
 20
61.2503
 11
40.6242
 21
61.2503
  0
LINE
  8
0
 10
40.6242
 20
61.2503
 11
42.3504
 21
56.4552
  0
LINE
  8
0
 10
42.3504
 20
56.4552
 11
38.7497
 21
57.1293
  0
LINE
  8
0
 10
3.44582
 20
49.5739
 11
2.70729
 21
61.2503
  0
LINE
  8
0
 10
2.70729
 20
61.2503
 11
11.2499
 21
61.2503
  0
LINE
  8
0
 10
11.2499
 20
61.2503
 11
11.2499
 21
45.7088
  0
LINE
  8
0
 10
11.2499
 20
45.7088
 11
3.44582
 21
49.5739
  0
LINE
  8
0
 10
-11.2499
 20
56.8516
 11
-11.2499
 21
61.2503
  0
LINE
  8
0
 10
-11.2499
 20
61.2503
 11
0.457001
 21
61.2503
  0
LINE
  8
0
 10
0.457001
 20
61.2503
 11
1.12305
 21
50.724
  0
LINE
  8
0
 10
1.12305
 20
50.724
 11
-11.2499
 21
56.8516
  0
LINE
  8
0
 10
-46.037
 20
50.3062
 11
-42.481
 21
61.2503
  0
LINE
  8
0
 10
-42.481
 20
61.2503
 11
-38.7497
 21
61.2503
  0
LINE
  8
0
 10
-38.7497
 20
61.2503
 11
-38.7497
 21
48.716
  0
LINE
  8
0
 10
-38.7497
 20
48.716
 11
-46.037
 21
50.3062
  0
LINE
  8
0
 10
30.8323
 20
38.7501
 11
27.3499
 21
51.3248
  0
LINE
  8
0
 10
27.3499
 20
51.3248
 11
36.2499
 21
57.2689
  0
LINE
  8
0
 10
36.2499
 20
57.2689
 11
36.2499
 21
38.7501
  0
LINE
  8
0
 10
36.2499
 20
38.7501
 11
30.8323
 21
38.7501
  0
LINE
  8
0
 10
-30.3799
 20
38.7501
 11
-22.3534
 21
53.9734
  0
LINE
  8
0
 10
-22.3534
 20
53.9734
 11
-13.7497
 21
55.7945
  0
LINE
  8
0
 10
-13.7497
 20
55.7945
 11
-13.7497
 21
38.7501
  0
LINE
  8
0
 10
-13.7497
 20
38.7501
 11
-30.3799
 21
38.7501
  0
LINE
  8
0
 10
38.7497
 20
38.7501
 11
38.7497
 21
54.879
  0
LINE
  8
0
 10
38.7497
 20
54.879
 11
43.2186
 21
54.0424
  0
LINE
  8
0
 10
43.2186
 20
54.0424
 11
48.7228
 21
38.7501
  0
LINE
  8
0
 10
48.7228
 20
38.7501
 11
38.7497
 21
38.7501
  0
LINE
  8
0
 10
-11.2499
 20
38.7501
 11
-11.2499
 21
54.6013
  0
LINE
  8
0
 10
-11.2499
 20
54.6013
 11
1.27029
 21
48.4009
  0
LINE
  8
0
 10
1.27029
 20
48.4009
 11
1.88065
 21
38.7501
  0
LINE
  8
0
 10
1.88065
 20
38.7501
 11
-11.2499
 21
38.7501
  0
LINE
  8
0
 10
-36.2499
 20
38.7501
 11
-36.2499
 21
51.0319
  0
LINE
  8
0
 10
-36.2499
 20
51.0319
 11
-24.8863
 21
53.437
  0
LINE
  8
0
 10
-24.8863
 20
53.437
 11
-32.6294
 21
38.7501
  0
LINE
  8
0
 10
-32.6294
 20
38.7501
 11
-36.2499
 21
38.7501
  0
LINE
  8
0
 10
13.7497
 20
38.7501
 11
13.7497
 21
42.2413
  0
LINE
  8
0
 10
13.7497
 20
42.2413
 11
25.4509
 21
50.0565
  0
LINE
  8
0
 10
25.4509
 20
50.0565
 11
28.582
 21
38.7501
  0
LINE
  8
0
 10
28.582
 20
38.7501
 11
13.7497
 21
38.7501
  0
LINE
  8
0
 10
-49.7918
 20
38.7501
 11
-46.7197
 21
48.2051
  0
LINE
  8
0
 10
-46.7197
 20
48.2051
 11
-38.7497
 21
46.4657
  0
LINE
  8
0
 10
-38.7497
 20
46.4657
 11
-38.7497
 21
38.7501
  0
LINE
  8
0
 10
-38.7497
 20
38.7501
 11
-49.7918
 21
38.7501
  0
LINE
  8
0
 10
4.13017
 20
38.7501
 11
3.59268
 21
47.2507
  0
LINE
  8
0
 10
3.59268
 20
47.2507
 11
11.2499
 21
43.4589
  0
LINE
  8
0
 10
11.2499
 20
43.4589
 11
11.2499
 21
38.7501
  0
LINE
  8
0
 10
11.2499
 20
38.7501
 11
4.13017
 21
38.7501
  0
LINE
  8
0
 10
-11.2499
 20
33.1436
 11
-11.2499
 21
36.2503
  0
LINE
  8
0
 10
-11.2499
 20
36.2503
 11
6.66389
 21
36.2503
  0
LINE
  8
0
 10
6.66389
 20
36.2503
 11
5.04684
 21
32.1651
  0
LINE
  8
0
 10
5.04684
 20
32.1651
 11
-11.2499
 21
33.1436
  0
LINE
  8
0
 10
-50.604
 20
36.2503
 11
-38.7497
 21
36.2503
  0
LINE
  8
0
 10
-38.7497
 20
36.2503
 11
-38.7497
 21
26.8677
  0
LINE
  8
0
 10
-38.7497
 20
26.8677
 11
-53.8221
 21
26.3461
  0
LINE
  8
0
 10
-53.8221
 20
26.3461
 11
-50.604
 21
36.2503
  0
LINE
  8
0
 10
-15.4152
 20
19.7266
 11
-14.9342
 21
36.2503
  0
LINE
  8
0
 10
-14.9342
 20
36.2503
 11
-13.7497
 21
36.2503
  0
LINE
  8
0
 10
-13.7497
 20
36.2503
 11
-13.7497
 21
19.0483
  0
LINE
  8
0
 10
-13.7497
 20
19.0483
 11
-15.4152
 21
19.7266
  0
LINE
  8
0
 10
13.7497
 20
36.2503
 11
21.6053
 21
36.2503
  0
LINE
  8
0
 10
21.6053
 20
36.2503
 11
25.1919
 21
28.4554
  0
LINE
  8
0
 10
25.1919
 20
28.4554
 11
13.7497
 21
27.3758
  0
LINE
  8
0
 10
13.7497
 20
27.3758
 11
13.7497
 21
36.2503
  0
LINE
  8
0
 10
-36.2499
 20
28.2066
 11
-36.2499
 21
36.2503
  0
LINE
  8
0
 10
-36.2499
 20
36.2503
 11
-17.1844
 21
36.2503
  0
LINE
  8
0
 10
-17.1844
 20
36.2503
 11
-17.6392
 21
20.6314
  0
LINE
  8
0
 10
-17.6392
 20
20.6314
 11
-36.2499
 21
28.2066
  0
LINE
  8
0
 10
49.5033
 20
26.6788
 11
49.387
 21
36.2503
  0
LINE
  8
0
 10
49.387
 20
36.2503
 11
50.604
 21
36.2503
  0
LINE
  8
0
 10
50.604
 20
36.2503
 11
54.8025
 21
23.3286
  0
LINE
  8
0
 10
54.8025
 20
23.3286
 11
49.5033
 21
26.6788
  0
LINE
  8
0
 10
38.7497
 20
33.4774
 11
38.7497
 21
36.2503
  0
LINE
  8
0
 10
38.7497
 20
36.2503
 11
47.1371
 21
36.2503
  0
LINE
  8
0
 10
47.1371
 20
36.2503
 11
47.2363
 21
28.112
  0
LINE
  8
0
 10
47.2363
 20
28.112
 11
38.7497
 21
33.4774
  0
LINE
  8
0
 10
23.8556
 20
36.2503
 11
36.2499
 21
36.2503
  0
LINE
  8
0
 10
36.2499
 20
36.2503
 11
36.2499
 21
29.4987
  0
LINE
  8
0
 10
36.2499
 20
29.4987
 11
27.3483
 21
28.6591
  0
LINE
  8
0
 10
27.3483
 20
28.6591
 11
23.8556
 21
36.2503
  0
LINE
  8
0
 10
7.24449
 20
32.0332
 11
8.9138
 21
36.2503
  0
LINE
  8
0
 10
8.9138
 20
36.2503
 11
11.2499
 21
36.2503
  0
LINE
  8
0
 10
11.2499
 20
36.2503
 11
11.2499
 21
31.7924
  0
LINE
  8
0
 10
11.2499
 20
31.7924
 11
7.24449
 21
32.0332
  0
LINE
  8
0
 10
38.7497
 20
13.7501
 11
38.7497
 21
31.2279
  0
LINE
  8
0
 10
38.7497
 20
31.2279
 11
47.2637
 21
25.845
  0
LINE
  8
0
 10
47.2637
 20
25.845
 11
47.411
 21
13.7501
  0
LINE
  8
0
 10
47.411
 20
13.7501
 11
38.7497
 21
13.7501
  0
LINE
  8
0
 10
-11.2499
 20
13.7501
 11
-11.2499
 21
30.8937
  0
LINE
  8
0
 10
-11.2499
 20
30.8937
 11
4.17709
 21
29.9671
  0
LINE
  8
0
 10
4.17709
 20
29.9671
 11
-2.24113
 21
13.7501
  0
LINE
  8
0
 10
-2.24113
 20
13.7501
 11
-11.2499
 21
13.7501
  0
LINE
  8
0
 10
0.00839233
 20
13.7501
 11
6.37474
 21
29.8351
  0
LINE
  8
0
 10
6.37474
 20
29.8351
 11
11.2499
 21
29.5422
  0
LINE
  8
0
 10
11.2499
 20
29.5422
 11
11.2499
 21
13.7501
  0
LINE
  8
0
 10
11.2499
 20
13.7501
 11
0.00839233
 21
13.7501
  0
LINE
  8
0
 10
34.2075
 20
13.7501
 11
28.3405
 21
26.5022
  0
LINE
  8
0
 10
28.3405
 20
26.5022
 11
36.2499
 21
27.2488
  0
LINE
  8
0
 10
36.2499
 20
27.2488
 11
36.2499
 21
13.7501
  0
LINE
  8
0
 10
36.2499
 20
13.7501
 11
34.2075
 21
13.7501
  0
LINE
  8
0
 10
13.7497
 20
13.7501
 11
13.7497
 21
25.1259
  0
LINE
  8
0
 10
13.7497
 20
25.1259
 11
26.1841
 21
26.2989
  0
LINE
  8
0
 10
26.1841
 20
26.2989
 11
31.9576
 21
13.7501
  0
LINE
  8
0
 10
31.9576
 20
13.7501
 11
13.7497
 21
13.7501
  0
LINE
  8
0
 10
-36.2499
 20
13.7501
 11
-36.2499
 21
25.9571
  0
LINE
  8
0
 10
-36.2499
 20
25.9571
 11
-17.704
 21
18.4078
  0
LINE
  8
0
 10
-17.704
 20
18.4078
 11
-17.8394
 21
13.7501
  0
LINE
  8
0
 10
-17.8394
 20
13.7501
 11
-36.2499
 21
13.7501
  0
LINE
  8
0
 10
-56.6982
 20
13.7501
 11
-56.681
 21
17.5473
  0
LINE
  8
0
 10
-56.681
 20
17.5473
 11
-54.5614
 21
24.0706
  0
LINE
  8
0
 10
-54.5614
 20
24.0706
 11
-38.7497
 21
24.6181
  0
LINE
  8
0
 10
-38.7497
 20
24.6181
 11
-38.7497
 21
13.7501
  0
LINE
  8
0
 10
-38.7497
 20
13.7501
 11
-56.6982
 21
13.7501
  0
LINE
  8
0
 10
49.6609
 20
13.7501
 11
49.5312
 21
24.4114
  0
LINE
  8
0
 10
49.5312
 20
24.4114
 11
55.7226
 21
20.497
  0
LINE
  8
0
 10
55.7226
 20
20.497
 11
57.9148
 21
13.7501
  0
LINE
  8
0
 10
57.9148
 20
13.7501
 11
49.6609
 21
13.7501
  0
LINE
  8
0
 10
-15.5895
 20
13.7501
 11
-15.48
 21
17.5022
  0
LINE
  8
0
 10
-15.48
 20
17.5022
 11
-13.7497
 21
16.798
  0
LINE
  8
0
 10
-13.7497
 20
16.798
 11
-13.7497
 21
13.7501
  0
LINE
  8
0
 10
-13.7497
 20
13.7501
 11
-15.5895
 21
13.7501
  0
LINE
  8
0
 10
-10
 20
7
 11
-10
 21
11
  0
LINE
  8
0
 10
-10
 20
11
 11
10
 21
11
  0
LINE
  8
0
 10
10
 20
11
 11
10
 21
7
  0
LINE
  8
0
 10
10
 20
7
 11
-10
 21
7
  0
LINE
  8
0
 10
-68.6534
 20
2.70622
 11
-68.7785
 21
2.71805
  0
LINE
  8
0
 10
-68.7785
 20
2.71805
 11
-68.9026
 21
2.7377
  0
LINE
  8
0
 10
-68.9026
 20
2.7377
 11
-69.0252
 21
2.76511
  0
LINE
  8
0
 10
-69.0252
 20
2.76511
 11
-69.1459
 21
2.80016
  0
LINE
  8
0
 10
-69.1459
 20
2.80016
 11
-69.2641
 21
2.84273
  0
LINE
  8
0
 10
-69.2641
 20
2.84273
 11
-69.3794
 21
2.89262
  0
LINE
  8
0
 10
-69.3794
 20
2.89262
 11
-69.4914
 21
2.94966
  0
LINE
  8
0
 10
-69.4914
 20
2.94966
 11
-69.5995
 21
3.01363
  0
LINE
  8
0
 10
-69.5995
 20
3.01363
 11
-69.7034
 21
3.08424
  0
LINE
  8
0
 10
-69.7034
 20
3.08424
 11
-69.8027
 21
3.16125
  0
LINE
  8
0
 10
-69.8027
 20
3.16125
 11
-69.897
 21
3.24434
  0
LINE
  8
0
 10
-69.897
 20
3.24434
 11
-69.9858
 21
3.33318
  0
LINE
  8
0
 10
-69.9858
 20
3.33318
 11
-70.0689
 21
3.42743
  0
LINE
  8
0
 10
-70.0689
 20
3.42743
 11
-70.1459
 21
3.5267
  0
LINE
  8
0
 10
-70.1459
 20
3.5267
 11
-70.2165
 21
3.63062
  0
LINE
  8
0
 10
-70.2165
 20
3.63062
 11
-70.2805
 21
3.73877
  0
LINE
  8
0
 10
-70.2805
 20
3.73877
 11
-70.3375
 21
3.85072
  0
LINE
  8
0
 10
-70.3375
 20
3.85072
 11
-70.3874
 21
3.96602
  0
LINE
  8
0
 10
-70.3874
 20
3.96602
 11
-70.43
 21
4.08424
  0
LINE
  8
0
 10
-70.43
 20
4.08424
 11
-70.465
 21
4.2049
  0
LINE
  8
0
 10
-70.465
 20
4.2049
 11
-70.4924
 21
4.32751
  0
LINE
  8
0
 10
-70.4924
 20
4.32751
 11
-70.5121
 21
4.45161
  0
LINE
  8
0
 10
-70.5121
 20
4.45161
 11
-70.5239
 21
4.57669
  0
LINE
  8
0
 10
-70.5239
 20
4.57669
 11
-70.5279
 21
4.70227
  0
LINE
  8
0
 10
-70.5279
 20
4.70227
 11
-70.5239
 21
4.82785
  0
LINE
  8
0
 10
-70.5239
 20
4.82785
 11
-70.5121
 21
4.95294
  0
LINE
  8
0
 10
-70.5121
 20
4.95294
 11
-70.4924
 21
5.07704
  0
LINE
  8
0
 10
-70.4924
 20
5.07704
 11
-70.465
 21
5.19966
  0
LINE
  8
0
 10
-70.465
 20
5.19966
 11
-70.43
 21
5.32031
  0
LINE
  8
0
 10
-70.43
 20
5.32031
 11
-70.3874
 21
5.43852
  0
LINE
  8
0
 10
-70.3874
 20
5.43852
 11
-70.3375
 21
5.55383
  0
LINE
  8
0
 10
-70.3375
 20
5.55383
 11
-70.2805
 21
5.66579
  0
LINE
  8
0
 10
-70.2805
 20
5.66579
 11
-70.2165
 21
5.77393
  0
LINE
  8
0
 10
-70.2165
 20
5.77393
 11
-70.1459
 21
5.87784
  0
LINE
  8
0
 10
-70.1459
 20
5.87784
 11
-70.0689
 21
5.97713
  0
LINE
  8
0
 10
-70.0689
 20
5.97713
 11
-69.9858
 21
6.07137
  0
LINE
  8
0
 10
-69.9858
 20
6.07137
 11
-69.897
 21
6.16022
  0
LINE
  8
0
 10
-69.897
 20
6.16022
 11
-69.8027
 21
6.2433
  0
LINE
  8
0
 10
-69.8027
 20
6.2433
 11
-69.7034
 21
6.32031
  0
LINE
  8
0
 10
-69.7034
 20
6.32031
 11
-69.5995
 21
6.39093
  0
LINE
  8
0
 10
-69.5995
 20
6.39093
 11
-69.4914
 21
6.4549
  0
LINE
  8
0
 10
-69.4914
 20
6.4549
 11
-69.3794
 21
6.51193
  0
LINE
  8
0
 10
-69.3794
 20
6.51193
 11
-69.2641
 21
6.56183
  0
LINE
  8
0
 10
-69.2641
 20
6.56183
 11
-69.1459
 21
6.60439
  0
LINE
  8
0
 10
-69.1459
 20
6.60439
 11
-69.0252
 21
6.63943
  0
LINE
  8
0
 10
-69.0252
 20
6.63943
 11
-68.9026
 21
6.66685
  0
LINE
  8
0
 10
-68.9026
 20
6.66685
 11
-68.7785
 21
6.68651
  0
LINE
  8
0
 10
-68.7785
 20
6.68651
 11
-68.6534
 21
6.69833
  0
LINE
  8
0
 10
-68.6534
 20
6.69833
 11
-68.5279
 21
6.70227
  0
LINE
  8
0
 10
-68.5279
 20
6.70227
 11
-68.4023
 21
6.69833
  0
LINE
  8
0
 10
-68.4023
 20
6.69833
 11
-68.2772
 21
6.68651
  0
LINE
  8
0
 10
-68.2772
 20
6.68651
 11
-68.1531
 21
6.66685
  0
LINE
  8
0
 10
-68.1531
 20
6.66685
 11
-68.0305
 21
6.63943
  0
LINE
  8
0
 10
-68.0305
 20
6.63943
 11
-67.9098
 21
6.60439
  0
LINE
  8
0
 10
-67.9098
 20
6.60439
 11
-67.7916
 21
6.56183
  0
LINE
  8
0
 10
-67.7916
 20
6.56183
 11
-67.6763
 21
6.51193
  0
LINE
  8
0
 10
-67.6763
 20
6.51193
 11
-67.5643
 21
6.4549
  0
LINE
  8
0
 10
-67.5643
 20
6.4549
 11
-67.4562
 21
6.39093
  0
LINE
  8
0
 10
-67.4562
 20
6.39093
 11
-67.3523
 21
6.32031
  0
LINE
  8
0
 10
-67.3523
 20
6.32031
 11
-67.253
 21
6.2433
  0
LINE
  8
0
 10
-67.253
 20
6.2433
 11
-67.1588
 21
6.16022
  0
LINE
  8
0
 10
-67.1588
 20
6.16022
 11
-67.0699
 21
6.07137
  0
LINE
  8
0
 10
-67.0699
 20
6.07137
 11
-66.9868
 21
5.97713
  0
LINE
  8
0
 10
-66.9868
 20
5.97713
 11
-66.9098
 21
5.87784
  0
LINE
  8
0
 10
-66.9098
 20
5.87784
 11
-66.8392
 21
5.77393
  0
LINE
  8
0
 10
-66.8392
 20
5.77393
 11
-66.7752
 21
5.66579
  0
LINE
  8
0
 10
-66.7752
 20
5.66579
 11
-66.7182
 21
5.55383
  0
LINE
  8
0
 10
-66.7182
 20
5.55383
 11
-66.6683
 21
5.43852
  0
LINE
  8
0
 10
-66.6683
 20
5.43852
 11
-66.6257
 21
5.32031
  0
LINE
  8
0
 10
-66.6257
 20
5.32031
 11
-66.5907
 21
5.19966
  0
LINE
  8
0
 10
-66.5907
 20
5.19966
 11
-66.5633
 21
5.07704
  0
LINE
  8
0
 10
-66.5633
 20
5.07704
 11
-66.5436
 21
4.95294
  0
LINE
  8
0
 10
-66.5436
 20
4.95294
 11
-66.5318
 21
4.82785
  0
LINE
  8
0
 10
-66.5318
 20
4.82785
 11
-66.5279
 21
4.70227
  0
LINE
  8
0
 10
-66.5279
 20
4.70227
 11
-66.5318
 21
4.57669
  0
LINE
  8
0
 10
-66.5318
 20
4.57669
 11
-66.5436
 21
4.45161
  0
LINE
  8
0
 10
-66.5436
 20
4.45161
 11
-66.5633
 21
4.32751
  0
LINE
  8
0
 10
-66.5633
 20
4.32751
 11
-66.5907
 21
4.2049
  0
LINE
  8
0
 10
-66.5907
 20
4.2049
 11
-66.6257
 21
4.08424
  0
LINE
  8
0
 10
-66.6257
 20
4.08424
 11
-66.6683
 21
3.96602
  0
LINE
  8
0
 10
-66.6683
 20
3.96602
 11
-66.7182
 21
3.85072
  0
LINE
  8
0
 10
-66.7182
 20
3.85072
 11
-66.7752
 21
3.73877
  0
LINE
  8
0
 10
-66.7752
 20
3.73877
 11
-66.8392
 21
3.63062
  0
LINE
  8
0
 10
-66.8392
 20
3.63062
 11
-66.9098
 21
3.5267
  0
LINE
  8
0
 10
-66.9098
 20
3.5267
 11
-66.9868
 21
3.42743
  0
LINE
  8
0
 10
-66.9868
 20
3.42743
 11
-67.0699
 21
3.33318
  0
LINE
  8
0
 10
-67.0699
 20
3.33318
 11
-67.1588
 21
3.24434
  0
LINE
  8
0
 10
-67.1588
 20
3.24434
 11
-67.253
 21
3.16125
  0
LINE
  8
0
 10
-67.253
 20
3.16125
 11
-67.3523
 21
3.08424
  0
LINE
  8
0
 10
-67.3523
 20
3.08424
 11
-67.4562
 21
3.01363
  0
LINE
  8
0
 10
-67.4562
 20
3.01363
 11
-67.5643
 21
2.94966
  0
LINE
  8
0
 10
-67.5643
 20
2.94966
 11
-67.6763
 21
2.89262
  0
LINE
  8
0
 10
-67.6763
 20
2.89262
 11
-67.7916
 21
2.84273
  0
LINE
  8
0
 10
-67.7916
 20
2.84273
 11
-67.9098
 21
2.80016
  0
LINE
  8
0
 10
-67.9098
 20
2.80016
 11
-68.0305
 21
2.76511
  0
LINE
  8
0
 10
-68.0305
 20
2.76511
 11
-68.1531
 21
2.7377
  0
LINE
  8
0
 10
-68.1531
 20
2.7377
 11
-68.2772
 21
2.71805
  0
LINE
  8
0
 10
-68.2772
 20
2.71805
 11
-68.4023
 21
2.70622
  0
LINE
  8
0
 10
-68.4023
 20
2.70622
 11
-68.5279
 21
2.70227
  0
LINE
  8
0
 10
-68.5279
 20
2.70227
 11
-68.6534
 21
2.70622
  0
LINE
  8
0
 10
68.4023
 20
2.70622
 11
68.2772
 21
2.71805
  0
LINE
  8
0
 10
68.2772
 20
2.71805
 11
68.1531
 21
2.7377
  0
LINE
  8
0
 10
68.1531
 20
2.7377
 11
68.0305
 21
2.76511
  0
LINE
  8
0
 10
68.0305
 20
2.76511
 11
67.9098
 21
2.80016
  0
LINE
  8
0
 10
67.9098
 20
2.80016
 11
67.7916
 21
2.84273
  0
LINE
  8
0
 10
67.7916
 20
2.84273
 11
67.6763
 21
2.89262
  0
LINE
  8
0
 10
67.6763
 20
2.89262
 11
67.5643
 21
2.94966
  0
LINE
  8
0
 10
67.5643
 20
2.94966
 11
67.4562
 21
3.01363
  0
LINE
  8
0
 10
67.4562
 20
3.01363
 11
67.3523
 21
3.08424
  0
LINE
  8
0
 10
67.3523
 20
3.08424
 11
67.253
 21
3.16125
  0
LINE
  8
0
 10
67.253
 20
3.16125
 11
67.1588
 21
3.24434
  0
LINE
  8
0
 10
67.1588
 20
3.24434
 11
67.0699
 21
3.33318
  0
LINE
  8
0
 10
67.0699
 20
3.33318
 11
66.9868
 21
3.42743
  0
LINE
  8
0
 10
66.9868
 20
3.42743
 11
66.9098
 21
3.5267
  0
LINE
  8
0
 10
66.9098
 20
3.5267
 11
66.8392
 21
3.63062
  0
LINE
  8
0
 10
66.8392
 20
3.63062
 11
66.7752
 21
3.73877
  0
LINE
  8
0
 10
66.7752
 20
3.73877
 11
66.7182
 21
3.85072
  0
LINE
  8
0
 10
66.7182
 20
3.85072
 11
66.6683
 21
3.96602
  0
LINE
  8
0
 10
66.6683
 20
3.96602
 11
66.6257
 21
4.08424
  0
LINE
  8
0
 10
66.6257
 20
4.08424
 11
66.5907
 21
4.2049
  0
LINE
  8
0
 10
66.5907
 20
4.2049
 11
66.5633
 21
4.32751
  0
LINE
  8
0
 10
66.5633
 20
4.32751
 11
66.5436
 21
4.45161
  0
LINE
  8
0
 10
66.5436
 20
4.45161
 11
66.5318
 21
4.57669
  0
LINE
  8
0
 10
66.5318
 20
4.57669
 11
66.5279
 21
4.70227
  0
LINE
  8
0
 10
66.5279
 20
4.70227
 11
66.5318
 21
4.82785
  0
LINE
  8
0
 10
66.5318
 20
4.82785
 11
66.5436
 21
4.95294
  0
LINE
  8
0
 10
66.5436
 20
4.95294
 11
66.5633
 21
5.07704
  0
LINE
  8
0
 10
66.5633
 20
5.07704
 11
66.5907
 21
5.19966
  0
LINE
  8
0
 10
66.5907
 20
5.19966
 11
66.6257
 21
5.32031
  0
LINE
  8
0
 10
66.6257
 20
5.32031
 11
66.6683
 21
5.43852
  0
LINE
  8
0
 10
66.6683
 20
5.43852
 11
66.7182
 21
5.55383
  0
LINE
  8
0
 10
66.7182
 20
5.55383
 11
66.7752
 21
5.66579
  0
LINE
  8
0
 10
66.7752
 20
5.66579
 11
66.8392
 21
5.77393
  0
LINE
  8
0
 10
66.8392
 20
5.77393
 11
66.9098
 21
5.87784
  0
LINE
  8
0
 10
66.9098
 20
5.87784
 11
66.9868
 21
5.97713
  0
LINE
  8
0
 10
66.9868
 20
5.97713
 11
67.0699
 21
6.07137
  0
LINE
  8
0
 10
67.0699
 20
6.07137
 11
67.1588
 21
6.16022
  0
LINE
  8
0
 10
67.1588
 20
6.16022
 11
67.253
 21
6.2433
  0
LINE
  8
0
 10
67.253
 20
6.2433
 11
67.3523
 21
6.32031
  0
LINE
  8
0
 10
67.3523
 20
6.32031
 11
67.4562
 21
6.39093
  0
LINE
  8
0
 10
67.4562
 20
6.39093
 11
67.5643
 21
6.4549
  0
LINE
  8
0
 10
67.5643
 20
6.4549
 11
67.6763
 21
6.51193
  0
LINE
  8
0
 10
67.6763
 20
6.51193
 11
67.7916
 21
6.56183
  0
LINE
  8
0
 10
67.7916
 20
6.56183
 11
67.9098
 21
6.60439
  0
LINE
  8
0
 10
67.9098
 20
6.60439
 11
68.0305
 21
6.63943
  0
LINE
  8
0
 10
68.0305
 20
6.63943
 11
68.1531
 21
6.66685
  0
LINE
  8
0
 10
68.1531
 20
6.66685
 11
68.2772
 21
6.68651
  0
LINE
  8
0
 10
68.2772
 20
6.68651
 11
68.4023
 21
6.69833
  0
LINE
  8
0
 10
68.4023
 20
6.69833
 11
68.5279
 21
6.70227
  0
LINE
  8
0
 10
68.5279
 20
6.70227
 11
68.6534
 21
6.69833
  0
LINE
  8
0
 10
68.6534
 20
6.69833
 11
68.7785
 21
6.68651
  0
LINE
  8
0
 10
68.7785
 20
6.68651
 11
68.9026
 21
6.66685
  0
LINE
  8
0
 10
68.9026
 20
6.66685
 11
69.0252
 21
6.63943
  0
LINE
  8
0
 10
69.0252
 20
6.63943
 11
69.1459
 21
6.60439
  0
LINE
  8
0
 10
69.1459
 20
6.60439
 11
69.2641
 21
6.56183
  0
LINE
  8
0
 10
69.2641
 20
6.56183
 11
69.3794
 21
6.51193
  0
LINE
  8
0
 10
69.3794
 20
6.51193
 11
69.4914
 21
6.4549
  0
LINE
  8
0
 10
69.4914
 20
6.4549
 11
69.5995
 21
6.39093
  0
LINE
  8
0
 10
69.5995
 20
6.39093
 11
69.7034
 21
6.32031
  0
LINE
  8
0
 10
69.7034
 20
6.32031
 11
69.8027
 21
6.2433
  0
LINE
  8
0
 10
69.8027
 20
6.2433
 11
69.897
 21
6.16022
  0
LINE
  8
0
 10
69.897
 20
6.16022
 11
69.9858
 21
6.07137
  0
LINE
  8
0
 10
69.9858
 20
6.07137
 11
70.0689
 21
5.97713
  0
LINE
  8
0
 10
70.0689
 20
5.97713
 11
70.1459
 21
5.87784
  0
LINE
  8
0
 10
70.1459
 20
5.87784
 11
70.2165
 21
5.77393
  0
LINE
  8
0
 10
70.2165
 20
5.77393
 11
70.2805
 21
5.66579
  0
LINE
  8
0
 10
70.2805
 20
5.66579
 11
70.3375
 21
5.55383
  0
LINE
  8
0
 10
70.3375
 20
5.55383
 11
70.3874
 21
5.43852
  0
LINE
  8
0
 10
70.3874
 20
5.43852
 11
70.43
 21
5.32031
  0
LINE
  8
0
 10
70.43
 20
5.32031
 11
70.465
 21
5.19966
  0
LINE
  8
0
 10
70.465
 20
5.19966
 11
70.4924
 21
5.07704
  0
LINE
  8
0
 10
70.4924
 20
5.07704
 11
70.5121
 21
4.95294
  0
LINE
  8
0
 10
70.5121
 20
4.95294
 11
70.5239
 21
4.82785
  0
LINE
  8
0
 10
70.5239
 20
4.82785
 11
70.5279
 21
4.70227
  0
LINE
  8
0
 10
70.5279
 20
4.70227
 11
70.5239
 21
4.57669
  0
LINE
  8
0
 10
70.5239
 20
4.57669
 11
70.5121
 21
4.45161
  0
LINE
  8
0
 10
70.5121
 20
4.45161
 11
70.4924
 21
4.32751
  0
LINE
  8
0
 10
70.4924
 20
4.32751
 11
70.465
 21
4.2049
  0
LINE
  8
0
 10
70.465
 20
4.2049
 11
70.43
 21
4.08424
  0
LINE
  8
0
 10
70.43
 20
4.08424
 11
70.3874
 21
3.96602
  0
LINE
  8
0
 10
70.3874
 20
3.96602
 11
70.3375
 21
3.85072
  0
LINE
  8
0
 10
70.3375
 20
3.85072
 11
70.2805
 21
3.73877
  0
LINE
  8
0
 10
70.2805
 20
3.73877
 11
70.2165
 21
3.63062
  0
LINE
  8
0
 10
70.2165
 20
3.63062
 11
70.1459
 21
3.5267
  0
LINE
  8
0
 10
70.1459
 20
3.5267
 11
70.0689
 21
3.42743
  0
LINE
  8
0
 10
70.0689
 20
3.42743
 11
69.9858
 21
3.33318
  0
LINE
  8
0
 10
69.9858
 20
3.33318
 11
69.897
 21
3.24434
  0
LINE
  8
0
 10
69.897
 20
3.24434
 11
69.8027
 21
3.16125
  0
LINE
  8
0
 10
69.8027
 20
3.16125
 11
69.7034
 21
3.08424
  0
LINE
  8
0
 10
69.7034
 20
3.08424
 11
69.5995
 21
3.01363
  0
LINE
  8
0
 10
69.5995
 20
3.01363
 11
69.4914
 21
2.94966
  0
LINE
  8
0
 10
69.4914
 20
2.94966
 11
69.3794
 21
2.89262
  0
LINE
  8
0
 10
69.3794
 20
2.89262
 11
69.2641
 21
2.84273
  0
LINE
  8
0
 10
69.2641
 20
2.84273
 11
69.1459
 21
2.80016
  0
LINE
  8
0
 10
69.1459
 20
2.80016
 11
69.0252
 21
2.76511
  0
LINE
  8
0
 10
69.0252
 20
2.76511
 11
68.9026
 21
2.7377
  0
LINE
  8
0
 10
68.9026
 20
2.7377
 11
68.7785
 21
2.71805
  0
LINE
  8
0
 10
68.7785
 20
2.71805
 11
68.6534
 21
2.70622
  0
LINE
  8
0
 10
68.6534
 20
2.70622
 11
68.5279
 21
2.70227
  0
LINE
  8
0
 10
68.5279
 20
2.70227
 11
68.4023
 21
2.70622
  0
ENDSEC
  0
SECTION
  2
OBJECTS
  0
DICTIONARY
  0
ENDSEC
  0
EOF
