  0
SECTION
  2
BLOCKS
  0
ENDSEC
  0
SECTION
  2
ENTITIES
  0
LINE
  8
0
 10
0
 20
230.826
 11
-75
 21
0
  0
LINE
  8
0
 10
-75
 20
0
 11
75
 21
0
  0
LINE
  8
0
 10
75
 20
0
 11
0
 21
230.826
  0
LINE
  8
0
 10
-0.12558
 20
212.83
 11
-0.250656
 21
212.842
  0
LINE
  8
0
 10
-0.250656
 20
212.842
 11
-0.374756
 21
212.862
  0
LINE
  8
0
 10
-0.374756
 20
212.862
 11
-0.497375
 21
212.889
  0
LINE
  8
0
 10
-0.497375
 20
212.889
 11
-0.618027
 21
212.924
  0
LINE
  8
0
 10
-0.618027
 20
212.924
 11
-0.736237
 21
212.967
  0
LINE
  8
0
 10
-0.736237
 20
212.967
 11
-0.851547
 21
213.017
  0
LINE
  8
0
 10
-0.851547
 20
213.017
 11
-0.963501
 21
213.074
  0
LINE
  8
0
 10
-0.963501
 20
213.074
 11
-1.07164
 21
213.138
  0
LINE
  8
0
 10
-1.07164
 20
213.138
 11
-1.17557
 21
213.208
  0
LINE
  8
0
 10
-1.17557
 20
213.208
 11
-1.27484
 21
213.285
  0
LINE
  8
0
 10
-1.27484
 20
213.285
 11
-1.36908
 21
213.368
  0
LINE
  8
0
 10
-1.36908
 20
213.368
 11
-1.45793
 21
213.457
  0
LINE
  8
0
 10
-1.45793
 20
213.457
 11
-1.54102
 21
213.551
  0
LINE
  8
0
 10
-1.54102
 20
213.551
 11
-1.61803
 21
213.651
  0
LINE
  8
0
 10
-1.61803
 20
213.651
 11
-1.68864
 21
213.755
  0
LINE
  8
0
 10
-1.68864
 20
213.755
 11
-1.75261
 21
213.863
  0
LINE
  8
0
 10
-1.75261
 20
213.863
 11
-1.80965
 21
213.975
  0
LINE
  8
0
 10
-1.80965
 20
213.975
 11
-1.85954
 21
214.09
  0
LINE
  8
0
 10
-1.85954
 20
214.09
 11
-1.9021
 21
214.208
  0
LINE
  8
0
 10
-1.9021
 20
214.208
 11
-1.93716
 21
214.329
  0
LINE
  8
0
 10
-1.93716
 20
214.329
 11
-1.96457
 21
214.451
  0
LINE
  8
0
 10
-1.96457
 20
214.451
 11
-1.98422
 21
214.576
  0
LINE
  8
0
 10
-1.98422
 20
214.576
 11
-1.99605
 21
214.701
  0
LINE
  8
0
 10
-1.99605
 20
214.701
 11
-2
 21
214.826
  0
LINE
  8
0
 10
-2
 20
214.826
 11
-1.99605
 21
214.952
  0
LINE
  8
0
 10
-1.99605
 20
214.952
 11
-1.98422
 21
215.077
  0
LINE
  8
0
 10
-1.98422
 20
215.077
 11
-1.96457
 21
215.201
  0
LINE
  8
0
 10
-1.96457
 20
215.201
 11
-1.93716
 21
215.324
  0
LINE
  8
0
 10
-1.93716
 20
215.324
 11
-1.9021
 21
215.444
  0
LINE
  8
0
 10
-1.9021
 20
215.444
 11
-1.85954
 21
215.562
  0
LINE
  8
0
 10
-1.85954
 20
215.562
 11
-1.80965
 21
215.678
  0
LINE
  8
0
 10
-1.80965
 20
215.678
 11
-1.75261
 21
215.79
  0
LINE
  8
0
 10
-1.75261
 20
215.79
 11
-1.68864
 21
215.898
  0
LINE
  8
0
 10
-1.68864
 20
215.898
 11
-1.61803
 21
216.002
  0
LINE
  8
0
 10
-1.61803
 20
216.002
 11
-1.54102
 21
216.101
  0
LINE
  8
0
 10
-1.54102
 20
216.101
 11
-1.45793
 21
216.195
  0
LINE
  8
0
 10
-1.45793
 20
216.195
 11
-1.36908
 21
216.284
  0
LINE
  8
0
 10
-1.36908
 20
216.284
 11
-1.27484
 21
216.367
  0
LINE
  8
0
 10
-1.27484
 20
216.367
 11
-1.17557
 21
216.444
  0
LINE
  8
0
 10
-1.17557
 20
216.444
 11
-1.07164
 21
216.515
  0
LINE
  8
0
 10
-1.07164
 20
216.515
 11
-0.963501
 21
216.579
  0
LINE
  8
0
 10
-0.963501
 20
216.579
 11
-0.851547
 21
216.636
  0
LINE
  8
0
 10
-0.851547
 20
216.636
 11
-0.736237
 21
216.686
  0
LINE
  8
0
 10
-0.736237
 20
216.686
 11
-0.618027
 21
216.728
  0
LINE
  8
0
 10
-0.618027
 20
216.728
 11
-0.497375
 21
216.763
  0
LINE
  8
0
 10
-0.497375
 20
216.763
 11
-0.374756
 21
216.791
  0
LINE
  8
0
 10
-0.374756
 20
216.791
 11
-0.250656
 21
216.81
  0
LINE
  8
0
 10
-0.250656
 20
216.81
 11
-0.12558
 21
216.822
  0
LINE
  8
0
 10
-0.12558
 20
216.822
 11
0
 21
216.826
  0
LINE
  8
0
 10
0
 20
216.826
 11
0.12558
 21
216.822
  0
LINE
  8
0
 10
0.12558
 20
216.822
 11
0.250656
 21
216.81
  0
LINE
  8
0
 10
0.250656
 20
216.81
 11
0.374756
 21
216.791
  0
LINE
  8
0
 10
0.374756
 20
216.791
 11
0.497375
 21
216.763
  0
LINE
  8
0
 10
0.497375
 20
216.763
 11
0.618027
 21
216.728
  0
LINE
  8
0
 10
0.618027
 20
216.728
 11
0.736237
 21
216.686
  0
LINE
  8
0
 10
0.736237
 20
216.686
 11
0.851547
 21
216.636
  0
LINE
  8
0
 10
0.851547
 20
216.636
 11
0.963501
 21
216.579
  0
LINE
  8
0
 10
0.963501
 20
216.579
 11
1.07164
 21
216.515
  0
LINE
  8
0
 10
1.07164
 20
216.515
 11
1.17557
 21
216.444
  0
LINE
  8
0
 10
1.17557
 20
216.444
 11
1.27484
 21
216.367
  0
LINE
  8
0
 10
1.27484
 20
216.367
 11
1.36908
 21
216.284
  0
LINE
  8
0
 10
1.36908
 20
216.284
 11
1.45793
 21
216.195
  0
LINE
  8
0
 10
1.45793
 20
216.195
 11
1.54102
 21
216.101
  0
LINE
  8
0
 10
1.54102
 20
216.101
 11
1.61803
 21
216.002
  0
LINE
  8
0
 10
1.61803
 20
216.002
 11
1.68864
 21
215.898
  0
LINE
  8
0
 10
1.68864
 20
215.898
 11
1.75261
 21
215.79
  0
LINE
  8
0
 10
1.75261
 20
215.79
 11
1.80965
 21
215.678
  0
LINE
  8
0
 10
1.80965
 20
215.678
 11
1.85954
 21
215.562
  0
LINE
  8
0
 10
1.85954
 20
215.562
 11
1.9021
 21
215.444
  0
LINE
  8
0
 10
1.9021
 20
215.444
 11
1.93716
 21
215.324
  0
LINE
  8
0
 10
1.93716
 20
215.324
 11
1.96457
 21
215.201
  0
LINE
  8
0
 10
1.96457
 20
215.201
 11
1.98422
 21
215.077
  0
LINE
  8
0
 10
1.98422
 20
215.077
 11
1.99605
 21
214.952
  0
LINE
  8
0
 10
1.99605
 20
214.952
 11
2
 21
214.826
  0
LINE
  8
0
 10
2
 20
214.826
 11
1.99605
 21
214.701
  0
LINE
  8
0
 10
1.99605
 20
214.701
 11
1.98422
 21
214.576
  0
LINE
  8
0
 10
1.98422
 20
214.576
 11
1.96457
 21
214.451
  0
LINE
  8
0
 10
1.96457
 20
214.451
 11
1.93716
 21
214.329
  0
LINE
  8
0
 10
1.93716
 20
214.329
 11
1.9021
 21
214.208
  0
LINE
  8
0
 10
1.9021
 20
214.208
 11
1.85954
 21
214.09
  0
LINE
  8
0
 10
1.85954
 20
214.09
 11
1.80965
 21
213.975
  0
LINE
  8
0
 10
1.80965
 20
213.975
 11
1.75261
 21
213.863
  0
LINE
  8
0
 10
1.75261
 20
213.863
 11
1.68864
 21
213.755
  0
LINE
  8
0
 10
1.68864
 20
213.755
 11
1.61803
 21
213.651
  0
LINE
  8
0
 10
1.61803
 20
213.651
 11
1.54102
 21
213.551
  0
LINE
  8
0
 10
1.54102
 20
213.551
 11
1.45793
 21
213.457
  0
LINE
  8
0
 10
1.45793
 20
213.457
 11
1.36908
 21
213.368
  0
LINE
  8
0
 10
1.36908
 20
213.368
 11
1.27484
 21
213.285
  0
LINE
  8
0
 10
1.27484
 20
213.285
 11
1.17557
 21
213.208
  0
LINE
  8
0
 10
1.17557
 20
213.208
 11
1.07164
 21
213.138
  0
LINE
  8
0
 10
1.07164
 20
213.138
 11
0.963501
 21
213.074
  0
LINE
  8
0
 10
0.963501
 20
213.074
 11
0.851547
 21
213.017
  0
LINE
  8
0
 10
0.851547
 20
213.017
 11
0.736237
 21
212.967
  0
LINE
  8
0
 10
0.736237
 20
212.967
 11
0.618027
 21
212.924
  0
LINE
  8
0
 10
0.618027
 20
212.924
 11
0.497375
 21
212.889
  0
LINE
  8
0
 10
0.497375
 20
212.889
 11
0.374756
 21
212.862
  0
LINE
  8
0
 10
0.374756
 20
212.862
 11
0.250656
 21
212.842
  0
LINE
  8
0
 10
0.250656
 20
212.842
 11
0.12558
 21
212.83
  0
LINE
  8
0
 10
0.12558
 20
212.83
 11
0
 21
212.826
  0
LINE
  8
0
 10
0
 20
212.826
 11
-0.12558
 21
212.83
  0
LINE
  8
0
 10
-2.00775
 20
180.124
 11
-2.49161
 21
180.536
  0
LINE
  8
0
 10
-2.49161
 20
180.536
 11
-2.95258
 21
180.788
  0
LINE
  8
0
 10
-2.95258
 20
180.788
 11
-3.38928
 21
180.88
  0
LINE
  8
0
 10
-3.38928
 20
180.88
 11
-3.62314
 21
180.843
  0
LINE
  8
0
 10
-3.62314
 20
180.843
 11
-1.51587
 21
187.328
  0
LINE
  8
0
 10
-1.51587
 20
187.328
 11
-1.50604
 21
187.335
  0
LINE
  8
0
 10
-1.50604
 20
187.335
 11
-1.50604
 21
179.561
  0
LINE
  8
0
 10
-1.50604
 20
179.561
 11
-2.00775
 21
180.124
  0
LINE
  8
0
 10
1.50604
 20
185.439
 11
2.00775
 21
184.876
  0
LINE
  8
0
 10
2.00775
 20
184.876
 11
2.42911
 21
184.517
  0
LINE
  8
0
 10
2.42911
 20
184.517
 11
4.04431
 21
179.546
  0
LINE
  8
0
 10
4.04431
 20
179.546
 11
1.50604
 21
177.665
  0
LINE
  8
0
 10
1.50604
 20
177.665
 11
1.50604
 21
185.439
  0
LINE
  8
0
 10
3.57559
 20
176.649
 11
4.71452
 21
177.484
  0
LINE
  8
0
 10
4.71452
 20
177.484
 11
4.98561
 21
176.649
  0
LINE
  8
0
 10
4.98561
 20
176.649
 11
3.57559
 21
176.649
  0
LINE
  8
0
 10
-6.01685
 20
166.009
 11
-6.01685
 21
173.476
  0
LINE
  8
0
 10
-6.01685
 20
173.476
 11
-5.94043
 21
173.711
  0
LINE
  8
0
 10
-5.94043
 20
173.711
 11
-5.77744
 21
172.927
  0
LINE
  8
0
 10
-5.77744
 20
172.927
 11
-5.50781
 21
171.907
  0
LINE
  8
0
 10
-5.50781
 20
171.907
 11
-5.21484
 21
171.045
  0
LINE
  8
0
 10
-5.21484
 20
171.045
 11
-4.89761
 21
170.342
  0
LINE
  8
0
 10
-4.89761
 20
170.342
 11
-4.55704
 21
169.798
  0
LINE
  8
0
 10
-4.55704
 20
169.798
 11
-4.19128
 21
169.413
  0
LINE
  8
0
 10
-4.19128
 20
169.413
 11
-3.80219
 21
169.186
  0
LINE
  8
0
 10
-3.80219
 20
169.186
 11
-3.38928
 21
169.12
  0
LINE
  8
0
 10
-3.38928
 20
169.12
 11
-2.95258
 21
169.212
  0
LINE
  8
0
 10
-2.95258
 20
169.212
 11
-2.49161
 21
169.464
  0
LINE
  8
0
 10
-2.49161
 20
169.464
 11
-2.00821
 21
169.875
  0
LINE
  8
0
 10
-2.00821
 20
169.875
 11
-1.50604
 21
170.439
  0
LINE
  8
0
 10
-1.50604
 20
170.439
 11
-1.50604
 21
162.665
  0
LINE
  8
0
 10
-1.50604
 20
162.665
 11
-6.01685
 21
166.009
  0
LINE
  8
0
 10
3.57559
 20
173.351
 11
6.0574
 21
173.351
  0
LINE
  8
0
 10
6.0574
 20
173.351
 11
6.83267
 21
170.965
  0
LINE
  8
0
 10
6.83267
 20
170.965
 11
3.57559
 21
173.351
  0
LINE
  8
0
 10
5.77744
 20
162.073
 11
5.50781
 21
163.093
  0
LINE
  8
0
 10
5.50781
 20
163.093
 11
5.21484
 21
163.955
  0
LINE
  8
0
 10
5.21484
 20
163.955
 11
4.89761
 21
164.658
  0
LINE
  8
0
 10
4.89761
 20
164.658
 11
4.55704
 21
165.202
  0
LINE
  8
0
 10
4.55704
 20
165.202
 11
4.19128
 21
165.587
  0
LINE
  8
0
 10
4.19128
 20
165.587
 11
3.80219
 21
165.814
  0
LINE
  8
0
 10
3.80219
 20
165.814
 11
3.38928
 21
165.88
  0
LINE
  8
0
 10
3.38928
 20
165.88
 11
2.95258
 21
165.788
  0
LINE
  8
0
 10
2.95258
 20
165.788
 11
2.49161
 21
165.536
  0
LINE
  8
0
 10
2.49161
 20
165.536
 11
2.00821
 21
165.125
  0
LINE
  8
0
 10
2.00821
 20
165.125
 11
1.50604
 21
164.561
  0
LINE
  8
0
 10
1.50604
 20
164.561
 11
1.50604
 21
172.335
  0
LINE
  8
0
 10
1.50604
 20
172.335
 11
6.01685
 21
168.991
  0
LINE
  8
0
 10
6.01685
 20
168.991
 11
6.01685
 21
160.922
  0
LINE
  8
0
 10
6.01685
 20
160.922
 11
5.77744
 21
162.073
  0
LINE
  8
0
 10
-9.85941
 20
161.649
 11
-8.92519
 21
164.525
  0
LINE
  8
0
 10
-8.92519
 20
164.525
 11
-7.50046
 21
164.525
  0
LINE
  8
0
 10
-7.50046
 20
164.525
 11
-3.57559
 21
161.649
  0
LINE
  8
0
 10
-3.57559
 20
161.649
 11
-9.85941
 21
161.649
  0
LINE
  8
0
 10
1.50604
 20
155.439
 11
2.00775
 21
154.876
  0
LINE
  8
0
 10
2.00775
 20
154.876
 11
2.49161
 21
154.464
  0
LINE
  8
0
 10
2.49161
 20
154.464
 11
2.95258
 21
154.212
  0
LINE
  8
0
 10
2.95258
 20
154.212
 11
3.38928
 21
154.12
  0
LINE
  8
0
 10
3.38928
 20
154.12
 11
3.80219
 21
154.186
  0
LINE
  8
0
 10
3.80219
 20
154.186
 11
4.19128
 21
154.413
  0
LINE
  8
0
 10
4.19128
 20
154.413
 11
4.55658
 21
154.798
  0
LINE
  8
0
 10
4.55658
 20
154.798
 11
4.89761
 21
155.342
  0
LINE
  8
0
 10
4.89761
 20
155.342
 11
5.21484
 21
156.044
  0
LINE
  8
0
 10
5.21484
 20
156.044
 11
5.50781
 21
156.906
  0
LINE
  8
0
 10
5.50781
 20
156.906
 11
5.77744
 21
157.927
  0
LINE
  8
0
 10
5.77744
 20
157.927
 11
6.01685
 21
159.078
  0
LINE
  8
0
 10
6.01685
 20
159.078
 11
6.01685
 21
151.009
  0
LINE
  8
0
 10
6.01685
 20
151.009
 11
1.50604
 21
147.665
  0
LINE
  8
0
 10
1.50604
 20
147.665
 11
1.50604
 21
155.439
  0
LINE
  8
0
 10
-11.7764
 20
147.601
 11
-12.4667
 21
147.813
  0
LINE
  8
0
 10
-12.4667
 20
147.813
 11
-13.2349
 21
148.21
  0
LINE
  8
0
 10
-13.2349
 20
148.21
 11
-14.0448
 21
148.768
  0
LINE
  8
0
 10
-14.0448
 20
148.768
 11
-13.216
 21
151.319
  0
LINE
  8
0
 10
-13.216
 20
151.319
 11
-12.014
 21
152.511
  0
LINE
  8
0
 10
-12.014
 20
152.511
 11
-12.014
 21
155.018
  0
LINE
  8
0
 10
-12.014
 20
155.018
 11
-10.9312
 21
158.351
  0
LINE
  8
0
 10
-10.9312
 20
158.351
 11
-3.57559
 21
158.351
  0
LINE
  8
0
 10
-3.57559
 20
158.351
 11
-7.50046
 21
155.475
  0
LINE
  8
0
 10
-7.50046
 20
155.475
 11
-10.4645
 21
155.475
  0
LINE
  8
0
 10
-10.4645
 20
155.475
 11
-8.9827
 21
152.512
  0
LINE
  8
0
 10
-8.9827
 20
152.512
 11
-9.06647
 21
151.255
  0
LINE
  8
0
 10
-9.06647
 20
151.255
 11
-9.22577
 21
150.181
  0
LINE
  8
0
 10
-9.22577
 20
150.181
 11
-9.46106
 21
149.291
  0
LINE
  8
0
 10
-9.46106
 20
149.291
 11
-9.77234
 21
148.585
  0
LINE
  8
0
 10
-9.77234
 20
148.585
 11
-10.1596
 21
148.063
  0
LINE
  8
0
 10
-10.1596
 20
148.063
 11
-10.6224
 21
147.726
  0
LINE
  8
0
 10
-10.6224
 20
147.726
 11
-11.1607
 21
147.571
  0
LINE
  8
0
 10
-11.1607
 20
147.571
 11
-11.7764
 21
147.601
  0
LINE
  8
0
 10
3.57559
 20
146.649
 11
7.50046
 21
149.525
  0
LINE
  8
0
 10
7.50046
 20
149.525
 11
10.4645
 21
149.525
  0
LINE
  8
0
 10
10.4645
 20
149.525
 11
8.9827
 21
152.488
  0
LINE
  8
0
 10
8.9827
 20
152.488
 11
9.06647
 21
153.745
  0
LINE
  8
0
 10
9.06647
 20
153.745
 11
9.22577
 21
154.819
  0
LINE
  8
0
 10
9.22577
 20
154.819
 11
9.46106
 21
155.708
  0
LINE
  8
0
 10
9.46106
 20
155.708
 11
9.77234
 21
156.415
  0
LINE
  8
0
 10
9.77234
 20
156.415
 11
10.1591
 21
156.936
  0
LINE
  8
0
 10
10.1591
 20
156.936
 11
10.6224
 21
157.274
  0
LINE
  8
0
 10
10.6224
 20
157.274
 11
11.1607
 21
157.429
  0
LINE
  8
0
 10
11.1607
 20
157.429
 11
11.2319
 21
157.425
  0
LINE
  8
0
 10
11.2319
 20
157.425
 11
12.6355
 21
153.105
  0
LINE
  8
0
 10
12.6355
 20
153.105
 11
12.014
 21
152.489
  0
LINE
  8
0
 10
12.014
 20
152.489
 11
12.014
 21
146.649
  0
LINE
  8
0
 10
12.014
 20
146.649
 11
3.57559
 21
146.649
  0
LINE
  8
0
 10
-6.01685
 20
153.991
 11
-1.50604
 21
157.335
  0
LINE
  8
0
 10
-1.50604
 20
157.335
 11
-1.50604
 21
149.561
  0
LINE
  8
0
 10
-1.50604
 20
149.561
 11
-2.00775
 21
150.124
  0
LINE
  8
0
 10
-2.00775
 20
150.124
 11
-2.49161
 21
150.536
  0
LINE
  8
0
 10
-2.49161
 20
150.536
 11
-2.95258
 21
150.788
  0
LINE
  8
0
 10
-2.95258
 20
150.788
 11
-3.38928
 21
150.88
  0
LINE
  8
0
 10
-3.38928
 20
150.88
 11
-3.80219
 21
150.814
  0
LINE
  8
0
 10
-3.80219
 20
150.814
 11
-4.19128
 21
150.587
  0
LINE
  8
0
 10
-4.19128
 20
150.587
 11
-4.55658
 21
150.202
  0
LINE
  8
0
 10
-4.55658
 20
150.202
 11
-4.89761
 21
149.658
  0
LINE
  8
0
 10
-4.89761
 20
149.658
 11
-5.21484
 21
148.956
  0
LINE
  8
0
 10
-5.21484
 20
148.956
 11
-5.50781
 21
148.094
  0
LINE
  8
0
 10
-5.50781
 20
148.094
 11
-5.77744
 21
147.073
  0
LINE
  8
0
 10
-5.77744
 20
147.073
 11
-6.01685
 21
145.922
  0
LINE
  8
0
 10
-6.01685
 20
145.922
 11
-6.01685
 21
153.991
  0
LINE
  8
0
 10
-6.01685
 20
136.009
 11
-6.01685
 21
144.078
  0
LINE
  8
0
 10
-6.01685
 20
144.078
 11
-5.77744
 21
142.927
  0
LINE
  8
0
 10
-5.77744
 20
142.927
 11
-5.50781
 21
141.907
  0
LINE
  8
0
 10
-5.50781
 20
141.907
 11
-5.21484
 21
141.045
  0
LINE
  8
0
 10
-5.21484
 20
141.045
 11
-4.89761
 21
140.342
  0
LINE
  8
0
 10
-4.89761
 20
140.342
 11
-4.55704
 21
139.798
  0
LINE
  8
0
 10
-4.55704
 20
139.798
 11
-4.19128
 21
139.413
  0
LINE
  8
0
 10
-4.19128
 20
139.413
 11
-3.80219
 21
139.186
  0
LINE
  8
0
 10
-3.80219
 20
139.186
 11
-3.38928
 21
139.12
  0
LINE
  8
0
 10
-3.38928
 20
139.12
 11
-2.95258
 21
139.212
  0
LINE
  8
0
 10
-2.95258
 20
139.212
 11
-2.49161
 21
139.464
  0
LINE
  8
0
 10
-2.49161
 20
139.464
 11
-2.00821
 21
139.875
  0
LINE
  8
0
 10
-2.00821
 20
139.875
 11
-1.50604
 21
140.439
  0
LINE
  8
0
 10
-1.50604
 20
140.439
 11
-1.50604
 21
132.665
  0
LINE
  8
0
 10
-1.50604
 20
132.665
 11
-6.01685
 21
136.009
  0
LINE
  8
0
 10
10.6224
 20
132.726
 11
10.1591
 21
133.064
  0
LINE
  8
0
 10
10.1591
 20
133.064
 11
9.77234
 21
133.585
  0
LINE
  8
0
 10
9.77234
 20
133.585
 11
9.46106
 21
134.292
  0
LINE
  8
0
 10
9.46106
 20
134.292
 11
9.22531
 21
135.181
  0
LINE
  8
0
 10
9.22531
 20
135.181
 11
9.06647
 21
136.255
  0
LINE
  8
0
 10
9.06647
 20
136.255
 11
8.9827
 21
137.512
  0
LINE
  8
0
 10
8.9827
 20
137.512
 11
10.4645
 21
140.475
  0
LINE
  8
0
 10
10.4645
 20
140.475
 11
7.50046
 21
140.475
  0
LINE
  8
0
 10
7.50046
 20
140.475
 11
3.57559
 21
143.351
  0
LINE
  8
0
 10
3.57559
 20
143.351
 11
12.014
 21
143.351
  0
LINE
  8
0
 10
12.014
 20
143.351
 11
12.014
 21
137.511
  0
LINE
  8
0
 10
12.014
 20
137.511
 11
14.9954
 21
134.553
  0
LINE
  8
0
 10
14.9954
 20
134.553
 11
14.0781
 21
133.791
  0
LINE
  8
0
 10
14.0781
 20
133.791
 11
13.2349
 21
133.21
  0
LINE
  8
0
 10
13.2349
 20
133.21
 11
12.4667
 21
132.813
  0
LINE
  8
0
 10
12.4667
 20
132.813
 11
11.7764
 21
132.601
  0
LINE
  8
0
 10
11.7764
 20
132.601
 11
11.1607
 21
132.571
  0
LINE
  8
0
 10
11.1607
 20
132.571
 11
10.6224
 21
132.726
  0
LINE
  8
0
 10
-12.014
 20
131.649
 11
-12.014
 21
137.489
  0
LINE
  8
0
 10
-12.014
 20
137.489
 11
-14.9954
 21
140.447
  0
LINE
  8
0
 10
-14.9954
 20
140.447
 11
-14.0781
 21
141.209
  0
LINE
  8
0
 10
-14.0781
 20
141.209
 11
-13.2349
 21
141.79
  0
LINE
  8
0
 10
-13.2349
 20
141.79
 11
-12.4667
 21
142.187
  0
LINE
  8
0
 10
-12.4667
 20
142.187
 11
-11.7764
 21
142.399
  0
LINE
  8
0
 10
-11.7764
 20
142.399
 11
-11.1607
 21
142.429
  0
LINE
  8
0
 10
-11.1607
 20
142.429
 11
-10.6224
 21
142.274
  0
LINE
  8
0
 10
-10.6224
 20
142.274
 11
-10.1591
 21
141.936
  0
LINE
  8
0
 10
-10.1591
 20
141.936
 11
-9.77234
 21
141.415
  0
LINE
  8
0
 10
-9.77234
 20
141.415
 11
-9.46106
 21
140.708
  0
LINE
  8
0
 10
-9.46106
 20
140.708
 11
-9.22531
 21
139.819
  0
LINE
  8
0
 10
-9.22531
 20
139.819
 11
-9.06647
 21
138.745
  0
LINE
  8
0
 10
-9.06647
 20
138.745
 11
-8.9827
 21
137.488
  0
LINE
  8
0
 10
-8.9827
 20
137.488
 11
-10.4645
 21
134.525
  0
LINE
  8
0
 10
-10.4645
 20
134.525
 11
-7.50046
 21
134.525
  0
LINE
  8
0
 10
-7.50046
 20
134.525
 11
-3.57559
 21
131.649
  0
LINE
  8
0
 10
-3.57559
 20
131.649
 11
-12.014
 21
131.649
  0
LINE
  8
0
 10
5.77744
 20
132.073
 11
5.50781
 21
133.093
  0
LINE
  8
0
 10
5.50781
 20
133.093
 11
5.21484
 21
133.955
  0
LINE
  8
0
 10
5.21484
 20
133.955
 11
4.89761
 21
134.658
  0
LINE
  8
0
 10
4.89761
 20
134.658
 11
4.55704
 21
135.202
  0
LINE
  8
0
 10
4.55704
 20
135.202
 11
4.19128
 21
135.587
  0
LINE
  8
0
 10
4.19128
 20
135.587
 11
3.80219
 21
135.814
  0
LINE
  8
0
 10
3.80219
 20
135.814
 11
3.38928
 21
135.88
  0
LINE
  8
0
 10
3.38928
 20
135.88
 11
2.95258
 21
135.788
  0
LINE
  8
0
 10
2.95258
 20
135.788
 11
2.49161
 21
135.536
  0
LINE
  8
0
 10
2.49161
 20
135.536
 11
2.00821
 21
135.125
  0
LINE
  8
0
 10
2.00821
 20
135.125
 11
1.50604
 21
134.561
  0
LINE
  8
0
 10
1.50604
 20
134.561
 11
1.50604
 21
142.335
  0
LINE
  8
0
 10
1.50604
 20
142.335
 11
6.01685
 21
138.991
  0
LINE
  8
0
 10
6.01685
 20
138.991
 11
6.01685
 21
130.922
  0
LINE
  8
0
 10
6.01685
 20
130.922
 11
5.77744
 21
132.073
  0
LINE
  8
0
 10
15.0046
 20
140.447
 11
15.9219
 21
141.209
  0
LINE
  8
0
 10
15.9219
 20
141.209
 11
16.395
 21
141.535
  0
LINE
  8
0
 10
16.395
 20
141.535
 11
17.5783
 21
137.893
  0
LINE
  8
0
 10
17.5783
 20
137.893
 11
15.0046
 21
140.447
  0
LINE
  8
0
 10
-19.2676
 20
132.694
 11
-17.7714
 21
137.299
  0
LINE
  8
0
 10
-17.7714
 20
137.299
 11
-15.0046
 21
134.553
  0
LINE
  8
0
 10
-15.0046
 20
134.553
 11
-15.9219
 21
133.791
  0
LINE
  8
0
 10
-15.9219
 20
133.791
 11
-16.7651
 21
133.21
  0
LINE
  8
0
 10
-16.7651
 20
133.21
 11
-17.5333
 21
132.813
  0
LINE
  8
0
 10
-17.5333
 20
132.813
 11
-18.2236
 21
132.601
  0
LINE
  8
0
 10
-18.2236
 20
132.601
 11
-18.8393
 21
132.571
  0
LINE
  8
0
 10
-18.8393
 20
132.571
 11
-19.2676
 21
132.694
  0
LINE
  8
0
 10
17.986
 20
131.649
 11
17.986
 21
136.638
  0
LINE
  8
0
 10
17.986
 20
136.638
 11
19.607
 21
131.649
  0
LINE
  8
0
 10
19.607
 20
131.649
 11
17.986
 21
131.649
  0
LINE
  8
0
 10
1.50604
 20
125.439
 11
2.00775
 21
124.876
  0
LINE
  8
0
 10
2.00775
 20
124.876
 11
2.49161
 21
124.464
  0
LINE
  8
0
 10
2.49161
 20
124.464
 11
2.95258
 21
124.212
  0
LINE
  8
0
 10
2.95258
 20
124.212
 11
3.38928
 21
124.12
  0
LINE
  8
0
 10
3.38928
 20
124.12
 11
3.80219
 21
124.186
  0
LINE
  8
0
 10
3.80219
 20
124.186
 11
4.19128
 21
124.413
  0
LINE
  8
0
 10
4.19128
 20
124.413
 11
4.55658
 21
124.798
  0
LINE
  8
0
 10
4.55658
 20
124.798
 11
4.89761
 21
125.342
  0
LINE
  8
0
 10
4.89761
 20
125.342
 11
5.21484
 21
126.044
  0
LINE
  8
0
 10
5.21484
 20
126.044
 11
5.50781
 21
126.906
  0
LINE
  8
0
 10
5.50781
 20
126.906
 11
5.77744
 21
127.927
  0
LINE
  8
0
 10
5.77744
 20
127.927
 11
6.01685
 21
129.078
  0
LINE
  8
0
 10
6.01685
 20
129.078
 11
6.01685
 21
121.009
  0
LINE
  8
0
 10
6.01685
 20
121.009
 11
1.50604
 21
117.665
  0
LINE
  8
0
 10
1.50604
 20
117.665
 11
1.50604
 21
125.439
  0
LINE
  8
0
 10
-11.7764
 20
117.601
 11
-12.4667
 21
117.813
  0
LINE
  8
0
 10
-12.4667
 20
117.813
 11
-13.2349
 21
118.21
  0
LINE
  8
0
 10
-13.2349
 20
118.21
 11
-14.0785
 21
118.791
  0
LINE
  8
0
 10
-14.0785
 20
118.791
 11
-14.9954
 21
119.553
  0
LINE
  8
0
 10
-14.9954
 20
119.553
 11
-12.014
 21
122.511
  0
LINE
  8
0
 10
-12.014
 20
122.511
 11
-12.014
 21
128.351
  0
LINE
  8
0
 10
-12.014
 20
128.351
 11
-3.57559
 21
128.351
  0
LINE
  8
0
 10
-3.57559
 20
128.351
 11
-7.50046
 21
125.475
  0
LINE
  8
0
 10
-7.50046
 20
125.475
 11
-10.4645
 21
125.475
  0
LINE
  8
0
 10
-10.4645
 20
125.475
 11
-8.9827
 21
122.512
  0
LINE
  8
0
 10
-8.9827
 20
122.512
 11
-9.06647
 21
121.255
  0
LINE
  8
0
 10
-9.06647
 20
121.255
 11
-9.22577
 21
120.181
  0
LINE
  8
0
 10
-9.22577
 20
120.181
 11
-9.46106
 21
119.291
  0
LINE
  8
0
 10
-9.46106
 20
119.291
 11
-9.77234
 21
118.585
  0
LINE
  8
0
 10
-9.77234
 20
118.585
 11
-10.1596
 21
118.063
  0
LINE
  8
0
 10
-10.1596
 20
118.063
 11
-10.6224
 21
117.726
  0
LINE
  8
0
 10
-10.6224
 20
117.726
 11
-11.1607
 21
117.571
  0
LINE
  8
0
 10
-11.1607
 20
117.571
 11
-11.7764
 21
117.601
  0
LINE
  8
0
 10
18.2236
 20
117.601
 11
17.5333
 21
117.813
  0
LINE
  8
0
 10
17.5333
 20
117.813
 11
16.7651
 21
118.21
  0
LINE
  8
0
 10
16.7651
 20
118.21
 11
15.9215
 21
118.791
  0
LINE
  8
0
 10
15.9215
 20
118.791
 11
15.0046
 21
119.553
  0
LINE
  8
0
 10
15.0046
 20
119.553
 11
17.986
 21
122.511
  0
LINE
  8
0
 10
17.986
 20
122.511
 11
17.986
 21
128.351
  0
LINE
  8
0
 10
17.986
 20
128.351
 11
20.6788
 21
128.351
  0
LINE
  8
0
 10
20.6788
 20
128.351
 11
21.613
 21
125.475
  0
LINE
  8
0
 10
21.613
 20
125.475
 11
19.5355
 21
125.475
  0
LINE
  8
0
 10
19.5355
 20
125.475
 11
21.0173
 21
122.512
  0
LINE
  8
0
 10
21.0173
 20
122.512
 11
20.9335
 21
121.255
  0
LINE
  8
0
 10
20.9335
 20
121.255
 11
20.7742
 21
120.181
  0
LINE
  8
0
 10
20.7742
 20
120.181
 11
20.5389
 21
119.291
  0
LINE
  8
0
 10
20.5389
 20
119.291
 11
20.2277
 21
118.585
  0
LINE
  8
0
 10
20.2277
 20
118.585
 11
19.8404
 21
118.063
  0
LINE
  8
0
 10
19.8404
 20
118.063
 11
19.3776
 21
117.726
  0
LINE
  8
0
 10
19.3776
 20
117.726
 11
18.8393
 21
117.571
  0
LINE
  8
0
 10
18.8393
 20
117.571
 11
18.2236
 21
117.601
  0
LINE
  8
0
 10
3.57559
 20
116.649
 11
7.50046
 21
119.525
  0
LINE
  8
0
 10
7.50046
 20
119.525
 11
10.4645
 21
119.525
  0
LINE
  8
0
 10
10.4645
 20
119.525
 11
8.9827
 21
122.488
  0
LINE
  8
0
 10
8.9827
 20
122.488
 11
9.06647
 21
123.745
  0
LINE
  8
0
 10
9.06647
 20
123.745
 11
9.22577
 21
124.819
  0
LINE
  8
0
 10
9.22577
 20
124.819
 11
9.46106
 21
125.708
  0
LINE
  8
0
 10
9.46106
 20
125.708
 11
9.77234
 21
126.415
  0
LINE
  8
0
 10
9.77234
 20
126.415
 11
10.1591
 21
126.936
  0
LINE
  8
0
 10
10.1591
 20
126.936
 11
10.6224
 21
127.274
  0
LINE
  8
0
 10
10.6224
 20
127.274
 11
11.1607
 21
127.429
  0
LINE
  8
0
 10
11.1607
 20
127.429
 11
11.7764
 21
127.399
  0
LINE
  8
0
 10
11.7764
 20
127.399
 11
12.4667
 21
127.187
  0
LINE
  8
0
 10
12.4667
 20
127.187
 11
13.2349
 21
126.79
  0
LINE
  8
0
 10
13.2349
 20
126.79
 11
14.0785
 21
126.209
  0
LINE
  8
0
 10
14.0785
 20
126.209
 11
14.9954
 21
125.447
  0
LINE
  8
0
 10
14.9954
 20
125.447
 11
12.014
 21
122.489
  0
LINE
  8
0
 10
12.014
 20
122.489
 11
12.014
 21
116.649
  0
LINE
  8
0
 10
12.014
 20
116.649
 11
3.57559
 21
116.649
  0
LINE
  8
0
 10
-24.4808
 20
116.649
 11
-23.8736
 21
118.518
  0
LINE
  8
0
 10
-23.8736
 20
118.518
 11
-22.4995
 21
119.525
  0
LINE
  8
0
 10
-22.4995
 20
119.525
 11
-19.5355
 21
119.525
  0
LINE
  8
0
 10
-19.5355
 20
119.525
 11
-21.0173
 21
122.488
  0
LINE
  8
0
 10
-21.0173
 20
122.488
 11
-20.9335
 21
123.745
  0
LINE
  8
0
 10
-20.9335
 20
123.745
 11
-20.7742
 21
124.819
  0
LINE
  8
0
 10
-20.7742
 20
124.819
 11
-20.5389
 21
125.708
  0
LINE
  8
0
 10
-20.5389
 20
125.708
 11
-20.2277
 21
126.415
  0
LINE
  8
0
 10
-20.2277
 20
126.415
 11
-19.8409
 21
126.936
  0
LINE
  8
0
 10
-19.8409
 20
126.936
 11
-19.3776
 21
127.274
  0
LINE
  8
0
 10
-19.3776
 20
127.274
 11
-18.8393
 21
127.429
  0
LINE
  8
0
 10
-18.8393
 20
127.429
 11
-18.2236
 21
127.399
  0
LINE
  8
0
 10
-18.2236
 20
127.399
 11
-17.5333
 21
127.187
  0
LINE
  8
0
 10
-17.5333
 20
127.187
 11
-16.7651
 21
126.79
  0
LINE
  8
0
 10
-16.7651
 20
126.79
 11
-15.9215
 21
126.209
  0
LINE
  8
0
 10
-15.9215
 20
126.209
 11
-15.0046
 21
125.447
  0
LINE
  8
0
 10
-15.0046
 20
125.447
 11
-17.986
 21
122.489
  0
LINE
  8
0
 10
-17.986
 20
122.489
 11
-17.986
 21
116.649
  0
LINE
  8
0
 10
-17.986
 20
116.649
 11
-24.4808
 21
116.649
  0
LINE
  8
0
 10
-6.01685
 20
123.991
 11
-1.50604
 21
127.335
  0
LINE
  8
0
 10
-1.50604
 20
127.335
 11
-1.50604
 21
119.561
  0
LINE
  8
0
 10
-1.50604
 20
119.561
 11
-2.00775
 21
120.124
  0
LINE
  8
0
 10
-2.00775
 20
120.124
 11
-2.49161
 21
120.536
  0
LINE
  8
0
 10
-2.49161
 20
120.536
 11
-2.95258
 21
120.788
  0
LINE
  8
0
 10
-2.95258
 20
120.788
 11
-3.38928
 21
120.88
  0
LINE
  8
0
 10
-3.38928
 20
120.88
 11
-3.80219
 21
120.814
  0
LINE
  8
0
 10
-3.80219
 20
120.814
 11
-4.19128
 21
120.587
  0
LINE
  8
0
 10
-4.19128
 20
120.587
 11
-4.55658
 21
120.202
  0
LINE
  8
0
 10
-4.55658
 20
120.202
 11
-4.89761
 21
119.658
  0
LINE
  8
0
 10
-4.89761
 20
119.658
 11
-5.21484
 21
118.956
  0
LINE
  8
0
 10
-5.21484
 20
118.956
 11
-5.50781
 21
118.094
  0
LINE
  8
0
 10
-5.50781
 20
118.094
 11
-5.77744
 21
117.073
  0
LINE
  8
0
 10
-5.77744
 20
117.073
 11
-6.01685
 21
115.922
  0
LINE
  8
0
 10
-6.01685
 20
115.922
 11
-6.01685
 21
123.991
  0
LINE
  8
0
 10
23.9832
 20
118.181
 11
24.2766
 21
117.278
  0
LINE
  8
0
 10
24.2766
 20
117.278
 11
24.2226
 21
117.073
  0
LINE
  8
0
 10
24.2226
 20
117.073
 11
23.9832
 21
115.922
  0
LINE
  8
0
 10
23.9832
 20
115.922
 11
23.9832
 21
118.181
  0
LINE
  8
0
 10
-6.01685
 20
106.009
 11
-6.01685
 21
114.078
  0
LINE
  8
0
 10
-6.01685
 20
114.078
 11
-5.77744
 21
112.927
  0
LINE
  8
0
 10
-5.77744
 20
112.927
 11
-5.50781
 21
111.907
  0
LINE
  8
0
 10
-5.50781
 20
111.907
 11
-5.21484
 21
111.045
  0
LINE
  8
0
 10
-5.21484
 20
111.045
 11
-4.89761
 21
110.342
  0
LINE
  8
0
 10
-4.89761
 20
110.342
 11
-4.55704
 21
109.798
  0
LINE
  8
0
 10
-4.55704
 20
109.798
 11
-4.19128
 21
109.413
  0
LINE
  8
0
 10
-4.19128
 20
109.413
 11
-3.80219
 21
109.186
  0
LINE
  8
0
 10
-3.80219
 20
109.186
 11
-3.38928
 21
109.12
  0
LINE
  8
0
 10
-3.38928
 20
109.12
 11
-2.95258
 21
109.212
  0
LINE
  8
0
 10
-2.95258
 20
109.212
 11
-2.49161
 21
109.464
  0
LINE
  8
0
 10
-2.49161
 20
109.464
 11
-2.00821
 21
109.875
  0
LINE
  8
0
 10
-2.00821
 20
109.875
 11
-1.50604
 21
110.439
  0
LINE
  8
0
 10
-1.50604
 20
110.439
 11
-1.50604
 21
102.665
  0
LINE
  8
0
 10
-1.50604
 20
102.665
 11
-6.01685
 21
106.009
  0
LINE
  8
0
 10
23.9832
 20
106.009
 11
23.9832
 21
114.078
  0
LINE
  8
0
 10
23.9832
 20
114.078
 11
24.2226
 21
112.927
  0
LINE
  8
0
 10
24.2226
 20
112.927
 11
24.4922
 21
111.907
  0
LINE
  8
0
 10
24.4922
 20
111.907
 11
24.7852
 21
111.045
  0
LINE
  8
0
 10
24.7852
 20
111.045
 11
25.1024
 21
110.342
  0
LINE
  8
0
 10
25.1024
 20
110.342
 11
25.443
 21
109.798
  0
LINE
  8
0
 10
25.443
 20
109.798
 11
25.8087
 21
109.413
  0
LINE
  8
0
 10
25.8087
 20
109.413
 11
26.1978
 21
109.186
  0
LINE
  8
0
 10
26.1978
 20
109.186
 11
26.6107
 21
109.12
  0
LINE
  8
0
 10
26.6107
 20
109.12
 11
26.9069
 21
109.183
  0
LINE
  8
0
 10
26.9069
 20
109.183
 11
28.494
 21
104.298
  0
LINE
  8
0
 10
28.494
 20
104.298
 11
28.494
 21
102.665
  0
LINE
  8
0
 10
28.494
 20
102.665
 11
23.9832
 21
106.009
  0
LINE
  8
0
 10
10.6224
 20
102.726
 11
10.1591
 21
103.064
  0
LINE
  8
0
 10
10.1591
 20
103.064
 11
9.77234
 21
103.585
  0
LINE
  8
0
 10
9.77234
 20
103.585
 11
9.46106
 21
104.292
  0
LINE
  8
0
 10
9.46106
 20
104.292
 11
9.22531
 21
105.181
  0
LINE
  8
0
 10
9.22531
 20
105.181
 11
9.06647
 21
106.255
  0
LINE
  8
0
 10
9.06647
 20
106.255
 11
8.9827
 21
107.512
  0
LINE
  8
0
 10
8.9827
 20
107.512
 11
10.4645
 21
110.475
  0
LINE
  8
0
 10
10.4645
 20
110.475
 11
7.50046
 21
110.475
  0
LINE
  8
0
 10
7.50046
 20
110.475
 11
3.57559
 21
113.351
  0
LINE
  8
0
 10
3.57559
 20
113.351
 11
12.014
 21
113.351
  0
LINE
  8
0
 10
12.014
 20
113.351
 11
12.014
 21
107.511
  0
LINE
  8
0
 10
12.014
 20
107.511
 11
14.9954
 21
104.553
  0
LINE
  8
0
 10
14.9954
 20
104.553
 11
14.0781
 21
103.791
  0
LINE
  8
0
 10
14.0781
 20
103.791
 11
13.2349
 21
103.21
  0
LINE
  8
0
 10
13.2349
 20
103.21
 11
12.4667
 21
102.813
  0
LINE
  8
0
 10
12.4667
 20
102.813
 11
11.7764
 21
102.601
  0
LINE
  8
0
 10
11.7764
 20
102.601
 11
11.1607
 21
102.571
  0
LINE
  8
0
 10
11.1607
 20
102.571
 11
10.6224
 21
102.726
  0
LINE
  8
0
 10
-19.3776
 20
102.726
 11
-19.8409
 21
103.064
  0
LINE
  8
0
 10
-19.8409
 20
103.064
 11
-20.2277
 21
103.585
  0
LINE
  8
0
 10
-20.2277
 20
103.585
 11
-20.5389
 21
104.292
  0
LINE
  8
0
 10
-20.5389
 20
104.292
 11
-20.7747
 21
105.181
  0
LINE
  8
0
 10
-20.7747
 20
105.181
 11
-20.9335
 21
106.255
  0
LINE
  8
0
 10
-20.9335
 20
106.255
 11
-21.0173
 21
107.512
  0
LINE
  8
0
 10
-21.0173
 20
107.512
 11
-19.5355
 21
110.475
  0
LINE
  8
0
 10
-19.5355
 20
110.475
 11
-22.4995
 21
110.475
  0
LINE
  8
0
 10
-22.4995
 20
110.475
 11
-25.7202
 21
112.835
  0
LINE
  8
0
 10
-25.7202
 20
112.835
 11
-25.5526
 21
113.351
  0
LINE
  8
0
 10
-25.5526
 20
113.351
 11
-17.986
 21
113.351
  0
LINE
  8
0
 10
-17.986
 20
113.351
 11
-17.986
 21
107.511
  0
LINE
  8
0
 10
-17.986
 20
107.511
 11
-15.0046
 21
104.553
  0
LINE
  8
0
 10
-15.0046
 20
104.553
 11
-15.9219
 21
103.791
  0
LINE
  8
0
 10
-15.9219
 20
103.791
 11
-16.7651
 21
103.21
  0
LINE
  8
0
 10
-16.7651
 20
103.21
 11
-17.5333
 21
102.813
  0
LINE
  8
0
 10
-17.5333
 20
102.813
 11
-18.2236
 21
102.601
  0
LINE
  8
0
 10
-18.2236
 20
102.601
 11
-18.8393
 21
102.571
  0
LINE
  8
0
 10
-18.8393
 20
102.571
 11
-19.3776
 21
102.726
  0
LINE
  8
0
 10
-12.014
 20
101.649
 11
-12.014
 21
107.489
  0
LINE
  8
0
 10
-12.014
 20
107.489
 11
-14.9954
 21
110.447
  0
LINE
  8
0
 10
-14.9954
 20
110.447
 11
-14.0781
 21
111.209
  0
LINE
  8
0
 10
-14.0781
 20
111.209
 11
-13.2349
 21
111.79
  0
LINE
  8
0
 10
-13.2349
 20
111.79
 11
-12.4667
 21
112.187
  0
LINE
  8
0
 10
-12.4667
 20
112.187
 11
-11.7764
 21
112.399
  0
LINE
  8
0
 10
-11.7764
 20
112.399
 11
-11.1607
 21
112.429
  0
LINE
  8
0
 10
-11.1607
 20
112.429
 11
-10.6224
 21
112.274
  0
LINE
  8
0
 10
-10.6224
 20
112.274
 11
-10.1591
 21
111.936
  0
LINE
  8
0
 10
-10.1591
 20
111.936
 11
-9.77234
 21
111.415
  0
LINE
  8
0
 10
-9.77234
 20
111.415
 11
-9.46106
 21
110.708
  0
LINE
  8
0
 10
-9.46106
 20
110.708
 11
-9.22531
 21
109.819
  0
LINE
  8
0
 10
-9.22531
 20
109.819
 11
-9.06647
 21
108.745
  0
LINE
  8
0
 10
-9.06647
 20
108.745
 11
-8.9827
 21
107.488
  0
LINE
  8
0
 10
-8.9827
 20
107.488
 11
-10.4645
 21
104.525
  0
LINE
  8
0
 10
-10.4645
 20
104.525
 11
-7.50046
 21
104.525
  0
LINE
  8
0
 10
-7.50046
 20
104.525
 11
-3.57559
 21
101.649
  0
LINE
  8
0
 10
-3.57559
 20
101.649
 11
-12.014
 21
101.649
  0
LINE
  8
0
 10
17.986
 20
101.649
 11
17.986
 21
107.489
  0
LINE
  8
0
 10
17.986
 20
107.489
 11
15.0046
 21
110.447
  0
LINE
  8
0
 10
15.0046
 20
110.447
 11
15.9219
 21
111.209
  0
LINE
  8
0
 10
15.9219
 20
111.209
 11
16.7651
 21
111.79
  0
LINE
  8
0
 10
16.7651
 20
111.79
 11
17.5333
 21
112.187
  0
LINE
  8
0
 10
17.5333
 20
112.187
 11
18.2236
 21
112.399
  0
LINE
  8
0
 10
18.2236
 20
112.399
 11
18.8393
 21
112.429
  0
LINE
  8
0
 10
18.8393
 20
112.429
 11
19.3776
 21
112.274
  0
LINE
  8
0
 10
19.3776
 20
112.274
 11
19.8409
 21
111.936
  0
LINE
  8
0
 10
19.8409
 20
111.936
 11
20.2277
 21
111.415
  0
LINE
  8
0
 10
20.2277
 20
111.415
 11
20.5389
 21
110.708
  0
LINE
  8
0
 10
20.5389
 20
110.708
 11
20.7747
 21
109.819
  0
LINE
  8
0
 10
20.7747
 20
109.819
 11
20.9335
 21
108.745
  0
LINE
  8
0
 10
20.9335
 20
108.745
 11
21.0173
 21
107.488
  0
LINE
  8
0
 10
21.0173
 20
107.488
 11
19.5355
 21
104.525
  0
LINE
  8
0
 10
19.5355
 20
104.525
 11
22.4995
 21
104.525
  0
LINE
  8
0
 10
22.4995
 20
104.525
 11
26.4244
 21
101.649
  0
LINE
  8
0
 10
26.4244
 20
101.649
 11
17.986
 21
101.649
  0
LINE
  8
0
 10
5.77744
 20
102.073
 11
5.50781
 21
103.093
  0
LINE
  8
0
 10
5.50781
 20
103.093
 11
5.21484
 21
103.955
  0
LINE
  8
0
 10
5.21484
 20
103.955
 11
4.89761
 21
104.658
  0
LINE
  8
0
 10
4.89761
 20
104.658
 11
4.55704
 21
105.202
  0
LINE
  8
0
 10
4.55704
 20
105.202
 11
4.19128
 21
105.587
  0
LINE
  8
0
 10
4.19128
 20
105.587
 11
3.80219
 21
105.814
  0
LINE
  8
0
 10
3.80219
 20
105.814
 11
3.38928
 21
105.88
  0
LINE
  8
0
 10
3.38928
 20
105.88
 11
2.95258
 21
105.788
  0
LINE
  8
0
 10
2.95258
 20
105.788
 11
2.49161
 21
105.536
  0
LINE
  8
0
 10
2.49161
 20
105.536
 11
2.00821
 21
105.125
  0
LINE
  8
0
 10
2.00821
 20
105.125
 11
1.50604
 21
104.561
  0
LINE
  8
0
 10
1.50604
 20
104.561
 11
1.50604
 21
112.335
  0
LINE
  8
0
 10
1.50604
 20
112.335
 11
6.01685
 21
108.991
  0
LINE
  8
0
 10
6.01685
 20
108.991
 11
6.01685
 21
100.922
  0
LINE
  8
0
 10
6.01685
 20
100.922
 11
5.77744
 21
102.073
  0
LINE
  8
0
 10
-24.2226
 20
102.073
 11
-24.4922
 21
103.093
  0
LINE
  8
0
 10
-24.4922
 20
103.093
 11
-24.7852
 21
103.955
  0
LINE
  8
0
 10
-24.7852
 20
103.955
 11
-25.1024
 21
104.658
  0
LINE
  8
0
 10
-25.1024
 20
104.658
 11
-25.443
 21
105.202
  0
LINE
  8
0
 10
-25.443
 20
105.202
 11
-25.8087
 21
105.587
  0
LINE
  8
0
 10
-25.8087
 20
105.587
 11
-26.1978
 21
105.814
  0
LINE
  8
0
 10
-26.1978
 20
105.814
 11
-26.6107
 21
105.88
  0
LINE
  8
0
 10
-26.6107
 20
105.88
 11
-27.0474
 21
105.788
  0
LINE
  8
0
 10
-27.0474
 20
105.788
 11
-27.5084
 21
105.536
  0
LINE
  8
0
 10
-27.5084
 20
105.536
 11
-27.9918
 21
105.125
  0
LINE
  8
0
 10
-27.9918
 20
105.125
 11
-28.3594
 21
104.712
  0
LINE
  8
0
 10
-28.3594
 20
104.712
 11
-26.3894
 21
110.775
  0
LINE
  8
0
 10
-26.3894
 20
110.775
 11
-23.9832
 21
108.991
  0
LINE
  8
0
 10
-23.9832
 20
108.991
 11
-23.9832
 21
100.922
  0
LINE
  8
0
 10
-23.9832
 20
100.922
 11
-24.2226
 21
102.073
  0
LINE
  8
0
 10
-28.494
 20
95.4388
 11
-27.9922
 21
94.8758
  0
LINE
  8
0
 10
-27.9922
 20
94.8758
 11
-27.5084
 21
94.4643
  0
LINE
  8
0
 10
-27.5084
 20
94.4643
 11
-27.0474
 21
94.2125
  0
LINE
  8
0
 10
-27.0474
 20
94.2125
 11
-26.6107
 21
94.1196
  0
LINE
  8
0
 10
-26.6107
 20
94.1196
 11
-26.1978
 21
94.1864
  0
LINE
  8
0
 10
-26.1978
 20
94.1864
 11
-25.8087
 21
94.4125
  0
LINE
  8
0
 10
-25.8087
 20
94.4125
 11
-25.4434
 21
94.7975
  0
LINE
  8
0
 10
-25.4434
 20
94.7975
 11
-25.1024
 21
95.3418
  0
LINE
  8
0
 10
-25.1024
 20
95.3418
 11
-24.7852
 21
96.0445
  0
LINE
  8
0
 10
-24.7852
 20
96.0445
 11
-24.4922
 21
96.9064
  0
LINE
  8
0
 10
-24.4922
 20
96.9064
 11
-24.2226
 21
97.9268
  0
LINE
  8
0
 10
-24.2226
 20
97.9268
 11
-23.9832
 21
99.0776
  0
LINE
  8
0
 10
-23.9832
 20
99.0776
 11
-23.9832
 21
91.0086
  0
LINE
  8
0
 10
-23.9832
 20
91.0086
 11
-28.494
 21
87.6646
  0
LINE
  8
0
 10
-28.494
 20
87.6646
 11
-28.494
 21
95.4388
  0
LINE
  8
0
 10
1.50604
 20
95.4388
 11
2.00775
 21
94.8758
  0
LINE
  8
0
 10
2.00775
 20
94.8758
 11
2.49161
 21
94.4643
  0
LINE
  8
0
 10
2.49161
 20
94.4643
 11
2.95258
 21
94.2125
  0
LINE
  8
0
 10
2.95258
 20
94.2125
 11
3.38928
 21
94.1196
  0
LINE
  8
0
 10
3.38928
 20
94.1196
 11
3.80219
 21
94.1864
  0
LINE
  8
0
 10
3.80219
 20
94.1864
 11
4.19128
 21
94.4125
  0
LINE
  8
0
 10
4.19128
 20
94.4125
 11
4.55658
 21
94.7975
  0
LINE
  8
0
 10
4.55658
 20
94.7975
 11
4.89761
 21
95.3418
  0
LINE
  8
0
 10
4.89761
 20
95.3418
 11
5.21484
 21
96.0445
  0
LINE
  8
0
 10
5.21484
 20
96.0445
 11
5.50781
 21
96.9064
  0
LINE
  8
0
 10
5.50781
 20
96.9064
 11
5.77744
 21
97.9268
  0
LINE
  8
0
 10
5.77744
 20
97.9268
 11
6.01685
 21
99.0776
  0
LINE
  8
0
 10
6.01685
 20
99.0776
 11
6.01685
 21
91.0086
  0
LINE
  8
0
 10
6.01685
 20
91.0086
 11
1.50604
 21
87.6646
  0
LINE
  8
0
 10
1.50604
 20
87.6646
 11
1.50604
 21
95.4388
  0
LINE
  8
0
 10
-11.7764
 20
87.6006
 11
-12.4667
 21
87.8134
  0
LINE
  8
0
 10
-12.4667
 20
87.8134
 11
-13.2349
 21
88.2103
  0
LINE
  8
0
 10
-13.2349
 20
88.2103
 11
-14.0785
 21
88.7912
  0
LINE
  8
0
 10
-14.0785
 20
88.7912
 11
-14.9954
 21
89.5534
  0
LINE
  8
0
 10
-14.9954
 20
89.5534
 11
-12.014
 21
92.5114
  0
LINE
  8
0
 10
-12.014
 20
92.5114
 11
-12.014
 21
98.3507
  0
LINE
  8
0
 10
-12.014
 20
98.3507
 11
-3.57559
 21
98.3507
  0
LINE
  8
0
 10
-3.57559
 20
98.3507
 11
-7.50046
 21
95.4755
  0
LINE
  8
0
 10
-7.50046
 20
95.4755
 11
-10.4645
 21
95.4755
  0
LINE
  8
0
 10
-10.4645
 20
95.4755
 11
-8.9827
 21
92.5124
  0
LINE
  8
0
 10
-8.9827
 20
92.5124
 11
-9.06647
 21
91.2549
  0
LINE
  8
0
 10
-9.06647
 20
91.2549
 11
-9.22577
 21
90.1805
  0
LINE
  8
0
 10
-9.22577
 20
90.1805
 11
-9.46106
 21
89.2911
  0
LINE
  8
0
 10
-9.46106
 20
89.2911
 11
-9.77234
 21
88.5852
  0
LINE
  8
0
 10
-9.77234
 20
88.5852
 11
-10.1596
 21
88.0634
  0
LINE
  8
0
 10
-10.1596
 20
88.0634
 11
-10.6224
 21
87.7255
  0
LINE
  8
0
 10
-10.6224
 20
87.7255
 11
-11.1607
 21
87.5713
  0
LINE
  8
0
 10
-11.1607
 20
87.5713
 11
-11.7764
 21
87.6006
  0
LINE
  8
0
 10
18.2236
 20
87.6006
 11
17.5333
 21
87.8134
  0
LINE
  8
0
 10
17.5333
 20
87.8134
 11
16.7651
 21
88.2103
  0
LINE
  8
0
 10
16.7651
 20
88.2103
 11
15.9215
 21
88.7912
  0
LINE
  8
0
 10
15.9215
 20
88.7912
 11
15.0046
 21
89.5534
  0
LINE
  8
0
 10
15.0046
 20
89.5534
 11
17.986
 21
92.5114
  0
LINE
  8
0
 10
17.986
 20
92.5114
 11
17.986
 21
98.3507
  0
LINE
  8
0
 10
17.986
 20
98.3507
 11
26.4244
 21
98.3507
  0
LINE
  8
0
 10
26.4244
 20
98.3507
 11
22.4995
 21
95.4755
  0
LINE
  8
0
 10
22.4995
 20
95.4755
 11
19.5355
 21
95.4755
  0
LINE
  8
0
 10
19.5355
 20
95.4755
 11
21.0173
 21
92.5124
  0
LINE
  8
0
 10
21.0173
 20
92.5124
 11
20.9335
 21
91.2549
  0
LINE
  8
0
 10
20.9335
 20
91.2549
 11
20.7742
 21
90.1805
  0
LINE
  8
0
 10
20.7742
 20
90.1805
 11
20.5389
 21
89.2911
  0
LINE
  8
0
 10
20.5389
 20
89.2911
 11
20.2277
 21
88.5852
  0
LINE
  8
0
 10
20.2277
 20
88.5852
 11
19.8404
 21
88.0634
  0
LINE
  8
0
 10
19.8404
 20
88.0634
 11
19.3776
 21
87.7255
  0
LINE
  8
0
 10
19.3776
 20
87.7255
 11
18.8393
 21
87.5713
  0
LINE
  8
0
 10
18.8393
 20
87.5713
 11
18.2236
 21
87.6006
  0
LINE
  8
0
 10
-26.4244
 20
86.6493
 11
-22.4995
 21
89.5245
  0
LINE
  8
0
 10
-22.4995
 20
89.5245
 11
-19.5355
 21
89.5245
  0
LINE
  8
0
 10
-19.5355
 20
89.5245
 11
-21.0173
 21
92.4876
  0
LINE
  8
0
 10
-21.0173
 20
92.4876
 11
-20.9335
 21
93.7451
  0
LINE
  8
0
 10
-20.9335
 20
93.7451
 11
-20.7742
 21
94.8195
  0
LINE
  8
0
 10
-20.7742
 20
94.8195
 11
-20.5389
 21
95.7085
  0
LINE
  8
0
 10
-20.5389
 20
95.7085
 11
-20.2277
 21
96.4148
  0
LINE
  8
0
 10
-20.2277
 20
96.4148
 11
-19.8409
 21
96.9362
  0
LINE
  8
0
 10
-19.8409
 20
96.9362
 11
-19.3776
 21
97.2745
  0
LINE
  8
0
 10
-19.3776
 20
97.2745
 11
-18.8393
 21
97.4287
  0
LINE
  8
0
 10
-18.8393
 20
97.4287
 11
-18.2236
 21
97.3994
  0
LINE
  8
0
 10
-18.2236
 20
97.3994
 11
-17.5333
 21
97.1866
  0
LINE
  8
0
 10
-17.5333
 20
97.1866
 11
-16.7651
 21
96.7897
  0
LINE
  8
0
 10
-16.7651
 20
96.7897
 11
-15.9215
 21
96.2088
  0
LINE
  8
0
 10
-15.9215
 20
96.2088
 11
-15.0046
 21
95.4466
  0
LINE
  8
0
 10
-15.0046
 20
95.4466
 11
-17.986
 21
92.4886
  0
LINE
  8
0
 10
-17.986
 20
92.4886
 11
-17.986
 21
86.6493
  0
LINE
  8
0
 10
-17.986
 20
86.6493
 11
-26.4244
 21
86.6493
  0
LINE
  8
0
 10
3.57559
 20
86.6493
 11
7.50046
 21
89.5245
  0
LINE
  8
0
 10
7.50046
 20
89.5245
 11
10.4645
 21
89.5245
  0
LINE
  8
0
 10
10.4645
 20
89.5245
 11
8.9827
 21
92.4876
  0
LINE
  8
0
 10
8.9827
 20
92.4876
 11
9.06647
 21
93.7451
  0
LINE
  8
0
 10
9.06647
 20
93.7451
 11
9.22577
 21
94.8195
  0
LINE
  8
0
 10
9.22577
 20
94.8195
 11
9.46106
 21
95.7085
  0
LINE
  8
0
 10
9.46106
 20
95.7085
 11
9.77234
 21
96.4148
  0
LINE
  8
0
 10
9.77234
 20
96.4148
 11
10.1591
 21
96.9362
  0
LINE
  8
0
 10
10.1591
 20
96.9362
 11
10.6224
 21
97.2745
  0
LINE
  8
0
 10
10.6224
 20
97.2745
 11
11.1607
 21
97.4287
  0
LINE
  8
0
 10
11.1607
 20
97.4287
 11
11.7764
 21
97.3994
  0
LINE
  8
0
 10
11.7764
 20
97.3994
 11
12.4667
 21
97.1866
  0
LINE
  8
0
 10
12.4667
 20
97.1866
 11
13.2349
 21
96.7897
  0
LINE
  8
0
 10
13.2349
 20
96.7897
 11
14.0785
 21
96.2088
  0
LINE
  8
0
 10
14.0785
 20
96.2088
 11
14.9954
 21
95.4466
  0
LINE
  8
0
 10
14.9954
 20
95.4466
 11
12.014
 21
92.4886
  0
LINE
  8
0
 10
12.014
 20
92.4886
 11
12.014
 21
86.6493
  0
LINE
  8
0
 10
12.014
 20
86.6493
 11
3.57559
 21
86.6493
  0
LINE
  8
0
 10
23.9832
 20
93.9914
 11
28.494
 21
97.3354
  0
LINE
  8
0
 10
28.494
 20
97.3354
 11
28.494
 21
89.5612
  0
LINE
  8
0
 10
28.494
 20
89.5612
 11
27.9922
 21
90.1242
  0
LINE
  8
0
 10
27.9922
 20
90.1242
 11
27.5084
 21
90.5357
  0
LINE
  8
0
 10
27.5084
 20
90.5357
 11
27.0474
 21
90.7875
  0
LINE
  8
0
 10
27.0474
 20
90.7875
 11
26.6107
 21
90.8804
  0
LINE
  8
0
 10
26.6107
 20
90.8804
 11
26.1978
 21
90.8136
  0
LINE
  8
0
 10
26.1978
 20
90.8136
 11
25.8087
 21
90.5875
  0
LINE
  8
0
 10
25.8087
 20
90.5875
 11
25.4434
 21
90.2025
  0
LINE
  8
0
 10
25.4434
 20
90.2025
 11
25.1024
 21
89.6582
  0
LINE
  8
0
 10
25.1024
 20
89.6582
 11
24.7852
 21
88.9555
  0
LINE
  8
0
 10
24.7852
 20
88.9555
 11
24.4922
 21
88.0936
  0
LINE
  8
0
 10
24.4922
 20
88.0936
 11
24.2226
 21
87.0732
  0
LINE
  8
0
 10
24.2226
 20
87.0732
 11
23.9832
 21
85.9224
  0
LINE
  8
0
 10
23.9832
 20
85.9224
 11
23.9832
 21
93.9914
  0
LINE
  8
0
 10
-6.01685
 20
93.9914
 11
-1.50604
 21
97.3354
  0
LINE
  8
0
 10
-1.50604
 20
97.3354
 11
-1.50604
 21
89.5612
  0
LINE
  8
0
 10
-1.50604
 20
89.5612
 11
-2.00775
 21
90.1242
  0
LINE
  8
0
 10
-2.00775
 20
90.1242
 11
-2.49161
 21
90.5357
  0
LINE
  8
0
 10
-2.49161
 20
90.5357
 11
-2.95258
 21
90.7875
  0
LINE
  8
0
 10
-2.95258
 20
90.7875
 11
-3.38928
 21
90.8804
  0
LINE
  8
0
 10
-3.38928
 20
90.8804
 11
-3.80219
 21
90.8136
  0
LINE
  8
0
 10
-3.80219
 20
90.8136
 11
-4.19128
 21
90.5875
  0
LINE
  8
0
 10
-4.19128
 20
90.5875
 11
-4.55658
 21
90.2025
  0
LINE
  8
0
 10
-4.55658
 20
90.2025
 11
-4.89761
 21
89.6582
  0
LINE
  8
0
 10
-4.89761
 20
89.6582
 11
-5.21484
 21
88.9555
  0
LINE
  8
0
 10
-5.21484
 20
88.9555
 11
-5.50781
 21
88.0936
  0
LINE
  8
0
 10
-5.50781
 20
88.0936
 11
-5.77744
 21
87.0732
  0
LINE
  8
0
 10
-5.77744
 20
87.0732
 11
-6.01685
 21
85.9224
  0
LINE
  8
0
 10
-6.01685
 20
85.9224
 11
-6.01685
 21
93.9914
  0
LINE
  8
0
 10
-32.0078
 20
90.1242
 11
-32.4916
 21
90.5357
  0
LINE
  8
0
 10
-32.4916
 20
90.5357
 11
-32.8942
 21
90.7556
  0
LINE
  8
0
 10
-32.8942
 20
90.7556
 11
-31.506
 21
95.0278
  0
LINE
  8
0
 10
-31.506
 20
95.0278
 11
-31.506
 21
89.5612
  0
LINE
  8
0
 10
-31.506
 20
89.5612
 11
-32.0078
 21
90.1242
  0
LINE
  8
0
 10
31.506
 20
95.0278
 11
33.4341
 21
89.0939
  0
LINE
  8
0
 10
33.4341
 20
89.0939
 11
31.506
 21
87.6646
  0
LINE
  8
0
 10
31.506
 20
87.6646
 11
31.506
 21
95.0278
  0
LINE
  8
0
 10
33.5756
 20
86.6493
 11
34.1029
 21
87.0356
  0
LINE
  8
0
 10
34.1029
 20
87.0356
 11
34.2284
 21
86.6493
  0
LINE
  8
0
 10
34.2284
 20
86.6493
 11
33.5756
 21
86.6493
  0
LINE
  8
0
 10
-6.01685
 20
76.0086
 11
-6.01685
 21
84.0781
  0
LINE
  8
0
 10
-6.01685
 20
84.0781
 11
-5.77744
 21
82.9272
  0
LINE
  8
0
 10
-5.77744
 20
82.9272
 11
-5.50781
 21
81.9069
  0
LINE
  8
0
 10
-5.50781
 20
81.9069
 11
-5.21484
 21
81.0449
  0
LINE
  8
0
 10
-5.21484
 20
81.0449
 11
-4.89761
 21
80.3418
  0
LINE
  8
0
 10
-4.89761
 20
80.3418
 11
-4.55704
 21
79.7975
  0
LINE
  8
0
 10
-4.55704
 20
79.7975
 11
-4.19128
 21
79.4125
  0
LINE
  8
0
 10
-4.19128
 20
79.4125
 11
-3.80219
 21
79.1864
  0
LINE
  8
0
 10
-3.80219
 20
79.1864
 11
-3.38928
 21
79.1196
  0
LINE
  8
0
 10
-3.38928
 20
79.1196
 11
-2.95258
 21
79.2125
  0
LINE
  8
0
 10
-2.95258
 20
79.2125
 11
-2.49161
 21
79.4643
  0
LINE
  8
0
 10
-2.49161
 20
79.4643
 11
-2.00821
 21
79.8753
  0
LINE
  8
0
 10
-2.00821
 20
79.8753
 11
-1.50604
 21
80.4388
  0
LINE
  8
0
 10
-1.50604
 20
80.4388
 11
-1.50604
 21
72.6646
  0
LINE
  8
0
 10
-1.50604
 20
72.6646
 11
-6.01685
 21
76.0086
  0
LINE
  8
0
 10
23.9832
 20
76.0086
 11
23.9832
 21
84.0781
  0
LINE
  8
0
 10
23.9832
 20
84.0781
 11
24.2226
 21
82.9272
  0
LINE
  8
0
 10
24.2226
 20
82.9272
 11
24.4922
 21
81.9069
  0
LINE
  8
0
 10
24.4922
 20
81.9069
 11
24.7852
 21
81.0449
  0
LINE
  8
0
 10
24.7852
 20
81.0449
 11
25.1024
 21
80.3418
  0
LINE
  8
0
 10
25.1024
 20
80.3418
 11
25.443
 21
79.7975
  0
LINE
  8
0
 10
25.443
 20
79.7975
 11
25.8087
 21
79.4125
  0
LINE
  8
0
 10
25.8087
 20
79.4125
 11
26.1978
 21
79.1864
  0
LINE
  8
0
 10
26.1978
 20
79.1864
 11
26.6107
 21
79.1196
  0
LINE
  8
0
 10
26.6107
 20
79.1196
 11
27.0474
 21
79.2125
  0
LINE
  8
0
 10
27.0474
 20
79.2125
 11
27.5084
 21
79.4643
  0
LINE
  8
0
 10
27.5084
 20
79.4643
 11
27.9918
 21
79.8753
  0
LINE
  8
0
 10
27.9918
 20
79.8753
 11
28.494
 21
80.4388
  0
LINE
  8
0
 10
28.494
 20
80.4388
 11
28.494
 21
72.6646
  0
LINE
  8
0
 10
28.494
 20
72.6646
 11
23.9832
 21
76.0086
  0
LINE
  8
0
 10
10.6224
 20
72.7255
 11
10.1591
 21
73.0638
  0
LINE
  8
0
 10
10.1591
 20
73.0638
 11
9.77234
 21
73.5852
  0
LINE
  8
0
 10
9.77234
 20
73.5852
 11
9.46106
 21
74.2915
  0
LINE
  8
0
 10
9.46106
 20
74.2915
 11
9.22531
 21
75.1814
  0
LINE
  8
0
 10
9.22531
 20
75.1814
 11
9.06647
 21
76.2549
  0
LINE
  8
0
 10
9.06647
 20
76.2549
 11
8.9827
 21
77.5124
  0
LINE
  8
0
 10
8.9827
 20
77.5124
 11
10.4645
 21
80.4755
  0
LINE
  8
0
 10
10.4645
 20
80.4755
 11
7.50046
 21
80.4755
  0
LINE
  8
0
 10
7.50046
 20
80.4755
 11
3.57559
 21
83.3507
  0
LINE
  8
0
 10
3.57559
 20
83.3507
 11
12.014
 21
83.3507
  0
LINE
  8
0
 10
12.014
 20
83.3507
 11
12.014
 21
77.5114
  0
LINE
  8
0
 10
12.014
 20
77.5114
 11
14.9954
 21
74.5534
  0
LINE
  8
0
 10
14.9954
 20
74.5534
 11
14.0781
 21
73.7907
  0
LINE
  8
0
 10
14.0781
 20
73.7907
 11
13.2349
 21
73.2103
  0
LINE
  8
0
 10
13.2349
 20
73.2103
 11
12.4667
 21
72.8134
  0
LINE
  8
0
 10
12.4667
 20
72.8134
 11
11.7764
 21
72.6006
  0
LINE
  8
0
 10
11.7764
 20
72.6006
 11
11.1607
 21
72.5713
  0
LINE
  8
0
 10
11.1607
 20
72.5713
 11
10.6224
 21
72.7255
  0
LINE
  8
0
 10
-19.3776
 20
72.7255
 11
-19.8409
 21
73.0638
  0
LINE
  8
0
 10
-19.8409
 20
73.0638
 11
-20.2277
 21
73.5852
  0
LINE
  8
0
 10
-20.2277
 20
73.5852
 11
-20.5389
 21
74.2915
  0
LINE
  8
0
 10
-20.5389
 20
74.2915
 11
-20.7747
 21
75.1814
  0
LINE
  8
0
 10
-20.7747
 20
75.1814
 11
-20.9335
 21
76.2549
  0
LINE
  8
0
 10
-20.9335
 20
76.2549
 11
-21.0173
 21
77.5124
  0
LINE
  8
0
 10
-21.0173
 20
77.5124
 11
-19.5355
 21
80.4755
  0
LINE
  8
0
 10
-19.5355
 20
80.4755
 11
-22.4995
 21
80.4755
  0
LINE
  8
0
 10
-22.4995
 20
80.4755
 11
-26.4244
 21
83.3507
  0
LINE
  8
0
 10
-26.4244
 20
83.3507
 11
-17.986
 21
83.3507
  0
LINE
  8
0
 10
-17.986
 20
83.3507
 11
-17.986
 21
77.5114
  0
LINE
  8
0
 10
-17.986
 20
77.5114
 11
-15.0046
 21
74.5534
  0
LINE
  8
0
 10
-15.0046
 20
74.5534
 11
-15.9219
 21
73.7907
  0
LINE
  8
0
 10
-15.9219
 20
73.7907
 11
-16.7651
 21
73.2103
  0
LINE
  8
0
 10
-16.7651
 20
73.2103
 11
-17.5333
 21
72.8134
  0
LINE
  8
0
 10
-17.5333
 20
72.8134
 11
-18.2236
 21
72.6006
  0
LINE
  8
0
 10
-18.2236
 20
72.6006
 11
-18.8393
 21
72.5713
  0
LINE
  8
0
 10
-18.8393
 20
72.5713
 11
-19.3776
 21
72.7255
  0
LINE
  8
0
 10
33.5756
 20
83.3507
 11
35.3002
 21
83.3507
  0
LINE
  8
0
 10
35.3002
 20
83.3507
 11
35.8389
 21
81.6927
  0
LINE
  8
0
 10
35.8389
 20
81.6927
 11
33.5756
 21
83.3507
  0
LINE
  8
0
 10
-12.014
 20
71.6493
 11
-12.014
 21
77.4886
  0
LINE
  8
0
 10
-12.014
 20
77.4886
 11
-14.9954
 21
80.4466
  0
LINE
  8
0
 10
-14.9954
 20
80.4466
 11
-14.0781
 21
81.2093
  0
LINE
  8
0
 10
-14.0781
 20
81.2093
 11
-13.2349
 21
81.7897
  0
LINE
  8
0
 10
-13.2349
 20
81.7897
 11
-12.4667
 21
82.1866
  0
LINE
  8
0
 10
-12.4667
 20
82.1866
 11
-11.7764
 21
82.3994
  0
LINE
  8
0
 10
-11.7764
 20
82.3994
 11
-11.1607
 21
82.4287
  0
LINE
  8
0
 10
-11.1607
 20
82.4287
 11
-10.6224
 21
82.2745
  0
LINE
  8
0
 10
-10.6224
 20
82.2745
 11
-10.1591
 21
81.9362
  0
LINE
  8
0
 10
-10.1591
 20
81.9362
 11
-9.77234
 21
81.4148
  0
LINE
  8
0
 10
-9.77234
 20
81.4148
 11
-9.46106
 21
80.7085
  0
LINE
  8
0
 10
-9.46106
 20
80.7085
 11
-9.22531
 21
79.8186
  0
LINE
  8
0
 10
-9.22531
 20
79.8186
 11
-9.06647
 21
78.7451
  0
LINE
  8
0
 10
-9.06647
 20
78.7451
 11
-8.9827
 21
77.4876
  0
LINE
  8
0
 10
-8.9827
 20
77.4876
 11
-10.4645
 21
74.5245
  0
LINE
  8
0
 10
-10.4645
 20
74.5245
 11
-7.50046
 21
74.5245
  0
LINE
  8
0
 10
-7.50046
 20
74.5245
 11
-3.57559
 21
71.6493
  0
LINE
  8
0
 10
-3.57559
 20
71.6493
 11
-12.014
 21
71.6493
  0
LINE
  8
0
 10
17.986
 20
71.6493
 11
17.986
 21
77.4886
  0
LINE
  8
0
 10
17.986
 20
77.4886
 11
15.0046
 21
80.4466
  0
LINE
  8
0
 10
15.0046
 20
80.4466
 11
15.9219
 21
81.2093
  0
LINE
  8
0
 10
15.9219
 20
81.2093
 11
16.7651
 21
81.7897
  0
LINE
  8
0
 10
16.7651
 20
81.7897
 11
17.5333
 21
82.1866
  0
LINE
  8
0
 10
17.5333
 20
82.1866
 11
18.2236
 21
82.3994
  0
LINE
  8
0
 10
18.2236
 20
82.3994
 11
18.8393
 21
82.4287
  0
LINE
  8
0
 10
18.8393
 20
82.4287
 11
19.3776
 21
82.2745
  0
LINE
  8
0
 10
19.3776
 20
82.2745
 11
19.8409
 21
81.9362
  0
LINE
  8
0
 10
19.8409
 20
81.9362
 11
20.2277
 21
81.4148
  0
LINE
  8
0
 10
20.2277
 20
81.4148
 11
20.5389
 21
80.7085
  0
LINE
  8
0
 10
20.5389
 20
80.7085
 11
20.7747
 21
79.8186
  0
LINE
  8
0
 10
20.7747
 20
79.8186
 11
20.9335
 21
78.7451
  0
LINE
  8
0
 10
20.9335
 20
78.7451
 11
21.0173
 21
77.4876
  0
LINE
  8
0
 10
21.0173
 20
77.4876
 11
19.5355
 21
74.5245
  0
LINE
  8
0
 10
19.5355
 20
74.5245
 11
22.4995
 21
74.5245
  0
LINE
  8
0
 10
22.4995
 20
74.5245
 11
26.4244
 21
71.6493
  0
LINE
  8
0
 10
26.4244
 20
71.6493
 11
17.986
 21
71.6493
  0
LINE
  8
0
 10
-36.0168
 20
76.0086
 11
-36.0168
 21
81.145
  0
LINE
  8
0
 10
-36.0168
 20
81.145
 11
-35.6251
 21
82.3507
  0
LINE
  8
0
 10
-35.6251
 20
82.3507
 11
-35.5078
 21
81.9069
  0
LINE
  8
0
 10
-35.5078
 20
81.9069
 11
-35.2148
 21
81.0449
  0
LINE
  8
0
 10
-35.2148
 20
81.0449
 11
-34.8976
 21
80.3418
  0
LINE
  8
0
 10
-34.8976
 20
80.3418
 11
-34.557
 21
79.7975
  0
LINE
  8
0
 10
-34.557
 20
79.7975
 11
-34.1913
 21
79.4125
  0
LINE
  8
0
 10
-34.1913
 20
79.4125
 11
-33.8022
 21
79.1864
  0
LINE
  8
0
 10
-33.8022
 20
79.1864
 11
-33.3893
 21
79.1196
  0
LINE
  8
0
 10
-33.3893
 20
79.1196
 11
-32.9526
 21
79.2125
  0
LINE
  8
0
 10
-32.9526
 20
79.2125
 11
-32.4916
 21
79.4643
  0
LINE
  8
0
 10
-32.4916
 20
79.4643
 11
-32.0082
 21
79.8753
  0
LINE
  8
0
 10
-32.0082
 20
79.8753
 11
-31.506
 21
80.4388
  0
LINE
  8
0
 10
-31.506
 20
80.4388
 11
-31.506
 21
72.6646
  0
LINE
  8
0
 10
-31.506
 20
72.6646
 11
-36.0168
 21
76.0086
  0
LINE
  8
0
 10
-24.2226
 20
72.0728
 11
-24.4922
 21
73.0931
  0
LINE
  8
0
 10
-24.4922
 20
73.0931
 11
-24.7852
 21
73.9551
  0
LINE
  8
0
 10
-24.7852
 20
73.9551
 11
-25.1024
 21
74.6582
  0
LINE
  8
0
 10
-25.1024
 20
74.6582
 11
-25.443
 21
75.2025
  0
LINE
  8
0
 10
-25.443
 20
75.2025
 11
-25.8087
 21
75.5875
  0
LINE
  8
0
 10
-25.8087
 20
75.5875
 11
-26.1978
 21
75.8136
  0
LINE
  8
0
 10
-26.1978
 20
75.8136
 11
-26.6107
 21
75.8804
  0
LINE
  8
0
 10
-26.6107
 20
75.8804
 11
-27.0474
 21
75.7875
  0
LINE
  8
0
 10
-27.0474
 20
75.7875
 11
-27.5084
 21
75.5357
  0
LINE
  8
0
 10
-27.5084
 20
75.5357
 11
-27.9918
 21
75.1247
  0
LINE
  8
0
 10
-27.9918
 20
75.1247
 11
-28.494
 21
74.5612
  0
LINE
  8
0
 10
-28.494
 20
74.5612
 11
-28.494
 21
82.3354
  0
LINE
  8
0
 10
-28.494
 20
82.3354
 11
-23.9832
 21
78.9914
  0
LINE
  8
0
 10
-23.9832
 20
78.9914
 11
-23.9832
 21
70.9219
  0
LINE
  8
0
 10
-23.9832
 20
70.9219
 11
-24.2226
 21
72.0728
  0
LINE
  8
0
 10
35.7774
 20
72.0728
 11
35.5078
 21
73.0931
  0
LINE
  8
0
 10
35.5078
 20
73.0931
 11
35.2148
 21
73.9551
  0
LINE
  8
0
 10
35.2148
 20
73.9551
 11
34.8976
 21
74.6582
  0
LINE
  8
0
 10
34.8976
 20
74.6582
 11
34.557
 21
75.2025
  0
LINE
  8
0
 10
34.557
 20
75.2025
 11
34.1913
 21
75.5875
  0
LINE
  8
0
 10
34.1913
 20
75.5875
 11
33.8022
 21
75.8136
  0
LINE
  8
0
 10
33.8022
 20
75.8136
 11
33.3893
 21
75.8804
  0
LINE
  8
0
 10
33.3893
 20
75.8804
 11
32.9526
 21
75.7875
  0
LINE
  8
0
 10
32.9526
 20
75.7875
 11
32.4916
 21
75.5357
  0
LINE
  8
0
 10
32.4916
 20
75.5357
 11
32.0082
 21
75.1247
  0
LINE
  8
0
 10
32.0082
 20
75.1247
 11
31.506
 21
74.5612
  0
LINE
  8
0
 10
31.506
 20
74.5612
 11
31.506
 21
82.3354
  0
LINE
  8
0
 10
31.506
 20
82.3354
 11
36.0168
 21
78.9914
  0
LINE
  8
0
 10
36.0168
 20
78.9914
 11
36.0168
 21
70.9219
  0
LINE
  8
0
 10
36.0168
 20
70.9219
 11
35.7774
 21
72.0728
  0
LINE
  8
0
 10
5.77744
 20
72.0728
 11
5.50781
 21
73.0931
  0
LINE
  8
0
 10
5.50781
 20
73.0931
 11
5.21484
 21
73.9551
  0
LINE
  8
0
 10
5.21484
 20
73.9551
 11
4.89761
 21
74.6582
  0
LINE
  8
0
 10
4.89761
 20
74.6582
 11
4.55704
 21
75.2025
  0
LINE
  8
0
 10
4.55704
 20
75.2025
 11
4.19128
 21
75.5875
  0
LINE
  8
0
 10
4.19128
 20
75.5875
 11
3.80219
 21
75.8136
  0
LINE
  8
0
 10
3.80219
 20
75.8136
 11
3.38928
 21
75.8804
  0
LINE
  8
0
 10
3.38928
 20
75.8804
 11
2.95258
 21
75.7875
  0
LINE
  8
0
 10
2.95258
 20
75.7875
 11
2.49161
 21
75.5357
  0
LINE
  8
0
 10
2.49161
 20
75.5357
 11
2.00821
 21
75.1247
  0
LINE
  8
0
 10
2.00821
 20
75.1247
 11
1.50604
 21
74.5612
  0
LINE
  8
0
 10
1.50604
 20
74.5612
 11
1.50604
 21
82.3354
  0
LINE
  8
0
 10
1.50604
 20
82.3354
 11
6.01685
 21
78.9914
  0
LINE
  8
0
 10
6.01685
 20
78.9914
 11
6.01685
 21
70.9219
  0
LINE
  8
0
 10
6.01685
 20
70.9219
 11
5.77744
 21
72.0728
  0
LINE
  8
0
 10
-39.1022
 20
71.6493
 11
-38.168
 21
74.5245
  0
LINE
  8
0
 10
-38.168
 20
74.5245
 11
-37.5005
 21
74.5245
  0
LINE
  8
0
 10
-37.5005
 20
74.5245
 11
-33.5756
 21
71.6493
  0
LINE
  8
0
 10
-33.5756
 20
71.6493
 11
-39.1022
 21
71.6493
  0
LINE
  8
0
 10
-28.494
 20
65.4388
 11
-27.9922
 21
64.8758
  0
LINE
  8
0
 10
-27.9922
 20
64.8758
 11
-27.5084
 21
64.4643
  0
LINE
  8
0
 10
-27.5084
 20
64.4643
 11
-27.0474
 21
64.2125
  0
LINE
  8
0
 10
-27.0474
 20
64.2125
 11
-26.6107
 21
64.1196
  0
LINE
  8
0
 10
-26.6107
 20
64.1196
 11
-26.1978
 21
64.1864
  0
LINE
  8
0
 10
-26.1978
 20
64.1864
 11
-25.8087
 21
64.4125
  0
LINE
  8
0
 10
-25.8087
 20
64.4125
 11
-25.4434
 21
64.7975
  0
LINE
  8
0
 10
-25.4434
 20
64.7975
 11
-25.1024
 21
65.3418
  0
LINE
  8
0
 10
-25.1024
 20
65.3418
 11
-24.7852
 21
66.0445
  0
LINE
  8
0
 10
-24.7852
 20
66.0445
 11
-24.4922
 21
66.9064
  0
LINE
  8
0
 10
-24.4922
 20
66.9064
 11
-24.2226
 21
67.9268
  0
LINE
  8
0
 10
-24.2226
 20
67.9268
 11
-23.9832
 21
69.0776
  0
LINE
  8
0
 10
-23.9832
 20
69.0776
 11
-23.9832
 21
61.0086
  0
LINE
  8
0
 10
-23.9832
 20
61.0086
 11
-28.494
 21
57.6646
  0
LINE
  8
0
 10
-28.494
 20
57.6646
 11
-28.494
 21
65.4388
  0
LINE
  8
0
 10
31.506
 20
65.4388
 11
32.0078
 21
64.8758
  0
LINE
  8
0
 10
32.0078
 20
64.8758
 11
32.4916
 21
64.4643
  0
LINE
  8
0
 10
32.4916
 20
64.4643
 11
32.9526
 21
64.2125
  0
LINE
  8
0
 10
32.9526
 20
64.2125
 11
33.3893
 21
64.1196
  0
LINE
  8
0
 10
33.3893
 20
64.1196
 11
33.8022
 21
64.1864
  0
LINE
  8
0
 10
33.8022
 20
64.1864
 11
34.1913
 21
64.4125
  0
LINE
  8
0
 10
34.1913
 20
64.4125
 11
34.5566
 21
64.7975
  0
LINE
  8
0
 10
34.5566
 20
64.7975
 11
34.8976
 21
65.3418
  0
LINE
  8
0
 10
34.8976
 20
65.3418
 11
35.2148
 21
66.0445
  0
LINE
  8
0
 10
35.2148
 20
66.0445
 11
35.5078
 21
66.9064
  0
LINE
  8
0
 10
35.5078
 20
66.9064
 11
35.7774
 21
67.9268
  0
LINE
  8
0
 10
35.7774
 20
67.9268
 11
36.0168
 21
69.0776
  0
LINE
  8
0
 10
36.0168
 20
69.0776
 11
36.0168
 21
61.0086
  0
LINE
  8
0
 10
36.0168
 20
61.0086
 11
31.506
 21
57.6646
  0
LINE
  8
0
 10
31.506
 20
57.6646
 11
31.506
 21
65.4388
  0
LINE
  8
0
 10
1.50604
 20
65.4388
 11
2.00775
 21
64.8758
  0
LINE
  8
0
 10
2.00775
 20
64.8758
 11
2.49161
 21
64.4643
  0
LINE
  8
0
 10
2.49161
 20
64.4643
 11
2.95258
 21
64.2125
  0
LINE
  8
0
 10
2.95258
 20
64.2125
 11
3.38928
 21
64.1196
  0
LINE
  8
0
 10
3.38928
 20
64.1196
 11
3.80219
 21
64.1864
  0
LINE
  8
0
 10
3.80219
 20
64.1864
 11
4.19128
 21
64.4125
  0
LINE
  8
0
 10
4.19128
 20
64.4125
 11
4.55658
 21
64.7975
  0
LINE
  8
0
 10
4.55658
 20
64.7975
 11
4.89761
 21
65.3418
  0
LINE
  8
0
 10
4.89761
 20
65.3418
 11
5.21484
 21
66.0445
  0
LINE
  8
0
 10
5.21484
 20
66.0445
 11
5.50781
 21
66.9064
  0
LINE
  8
0
 10
5.50781
 20
66.9064
 11
5.77744
 21
67.9268
  0
LINE
  8
0
 10
5.77744
 20
67.9268
 11
6.01685
 21
69.0776
  0
LINE
  8
0
 10
6.01685
 20
69.0776
 11
6.01685
 21
61.0086
  0
LINE
  8
0
 10
6.01685
 20
61.0086
 11
1.50604
 21
57.6646
  0
LINE
  8
0
 10
1.50604
 20
57.6646
 11
1.50604
 21
65.4388
  0
LINE
  8
0
 10
18.2236
 20
57.6006
 11
17.5333
 21
57.8134
  0
LINE
  8
0
 10
17.5333
 20
57.8134
 11
16.7651
 21
58.2103
  0
LINE
  8
0
 10
16.7651
 20
58.2103
 11
15.9215
 21
58.7912
  0
LINE
  8
0
 10
15.9215
 20
58.7912
 11
15.0046
 21
59.5534
  0
LINE
  8
0
 10
15.0046
 20
59.5534
 11
17.986
 21
62.5114
  0
LINE
  8
0
 10
17.986
 20
62.5114
 11
17.986
 21
68.3507
  0
LINE
  8
0
 10
17.986
 20
68.3507
 11
26.4244
 21
68.3507
  0
LINE
  8
0
 10
26.4244
 20
68.3507
 11
22.4995
 21
65.4755
  0
LINE
  8
0
 10
22.4995
 20
65.4755
 11
19.5355
 21
65.4755
  0
LINE
  8
0
 10
19.5355
 20
65.4755
 11
21.0173
 21
62.5124
  0
LINE
  8
0
 10
21.0173
 20
62.5124
 11
20.9335
 21
61.2549
  0
LINE
  8
0
 10
20.9335
 20
61.2549
 11
20.7742
 21
60.1805
  0
LINE
  8
0
 10
20.7742
 20
60.1805
 11
20.5389
 21
59.2911
  0
LINE
  8
0
 10
20.5389
 20
59.2911
 11
20.2277
 21
58.5852
  0
LINE
  8
0
 10
20.2277
 20
58.5852
 11
19.8404
 21
58.0634
  0
LINE
  8
0
 10
19.8404
 20
58.0634
 11
19.3776
 21
57.7255
  0
LINE
  8
0
 10
19.3776
 20
57.7255
 11
18.8393
 21
57.5713
  0
LINE
  8
0
 10
18.8393
 20
57.5713
 11
18.2236
 21
57.6006
  0
LINE
  8
0
 10
-11.7764
 20
57.6006
 11
-12.4667
 21
57.8134
  0
LINE
  8
0
 10
-12.4667
 20
57.8134
 11
-13.2349
 21
58.2103
  0
LINE
  8
0
 10
-13.2349
 20
58.2103
 11
-14.0785
 21
58.7912
  0
LINE
  8
0
 10
-14.0785
 20
58.7912
 11
-14.9954
 21
59.5534
  0
LINE
  8
0
 10
-14.9954
 20
59.5534
 11
-12.014
 21
62.5114
  0
LINE
  8
0
 10
-12.014
 20
62.5114
 11
-12.014
 21
68.3507
  0
LINE
  8
0
 10
-12.014
 20
68.3507
 11
-3.57559
 21
68.3507
  0
LINE
  8
0
 10
-3.57559
 20
68.3507
 11
-7.50046
 21
65.4755
  0
LINE
  8
0
 10
-7.50046
 20
65.4755
 11
-10.4645
 21
65.4755
  0
LINE
  8
0
 10
-10.4645
 20
65.4755
 11
-8.9827
 21
62.5124
  0
LINE
  8
0
 10
-8.9827
 20
62.5124
 11
-9.06647
 21
61.2549
  0
LINE
  8
0
 10
-9.06647
 20
61.2549
 11
-9.22577
 21
60.1805
  0
LINE
  8
0
 10
-9.22577
 20
60.1805
 11
-9.46106
 21
59.2911
  0
LINE
  8
0
 10
-9.46106
 20
59.2911
 11
-9.77234
 21
58.5852
  0
LINE
  8
0
 10
-9.77234
 20
58.5852
 11
-10.1596
 21
58.0634
  0
LINE
  8
0
 10
-10.1596
 20
58.0634
 11
-10.6224
 21
57.7255
  0
LINE
  8
0
 10
-10.6224
 20
57.7255
 11
-11.1607
 21
57.5713
  0
LINE
  8
0
 10
-11.1607
 20
57.5713
 11
-11.7764
 21
57.6006
  0
LINE
  8
0
 10
-41.7764
 20
57.6006
 11
-42.4667
 21
57.8134
  0
LINE
  8
0
 10
-42.4667
 20
57.8134
 11
-43.2349
 21
58.2103
  0
LINE
  8
0
 10
-43.2349
 20
58.2103
 11
-43.426
 21
58.3419
  0
LINE
  8
0
 10
-43.426
 20
58.3419
 11
-42.0985
 21
62.4276
  0
LINE
  8
0
 10
-42.0985
 20
62.4276
 11
-42.014
 21
62.5114
  0
LINE
  8
0
 10
-42.014
 20
62.5114
 11
-42.014
 21
62.6876
  0
LINE
  8
0
 10
-42.014
 20
62.6876
 11
-40.174
 21
68.3507
  0
LINE
  8
0
 10
-40.174
 20
68.3507
 11
-33.5756
 21
68.3507
  0
LINE
  8
0
 10
-33.5756
 20
68.3507
 11
-37.5005
 21
65.4755
  0
LINE
  8
0
 10
-37.5005
 20
65.4755
 11
-40.4645
 21
65.4755
  0
LINE
  8
0
 10
-40.4645
 20
65.4755
 11
-38.9827
 21
62.5124
  0
LINE
  8
0
 10
-38.9827
 20
62.5124
 11
-39.0665
 21
61.2549
  0
LINE
  8
0
 10
-39.0665
 20
61.2549
 11
-39.2258
 21
60.1805
  0
LINE
  8
0
 10
-39.2258
 20
60.1805
 11
-39.4611
 21
59.2911
  0
LINE
  8
0
 10
-39.4611
 20
59.2911
 11
-39.7723
 21
58.5852
  0
LINE
  8
0
 10
-39.7723
 20
58.5852
 11
-40.1596
 21
58.0634
  0
LINE
  8
0
 10
-40.1596
 20
58.0634
 11
-40.6224
 21
57.7255
  0
LINE
  8
0
 10
-40.6224
 20
57.7255
 11
-41.1607
 21
57.5713
  0
LINE
  8
0
 10
-41.1607
 20
57.5713
 11
-41.7764
 21
57.6006
  0
LINE
  8
0
 10
-26.4244
 20
56.6493
 11
-22.4995
 21
59.5245
  0
LINE
  8
0
 10
-22.4995
 20
59.5245
 11
-19.5355
 21
59.5245
  0
LINE
  8
0
 10
-19.5355
 20
59.5245
 11
-21.0173
 21
62.4876
  0
LINE
  8
0
 10
-21.0173
 20
62.4876
 11
-20.9335
 21
63.7451
  0
LINE
  8
0
 10
-20.9335
 20
63.7451
 11
-20.7742
 21
64.8195
  0
LINE
  8
0
 10
-20.7742
 20
64.8195
 11
-20.5389
 21
65.7085
  0
LINE
  8
0
 10
-20.5389
 20
65.7085
 11
-20.2277
 21
66.4148
  0
LINE
  8
0
 10
-20.2277
 20
66.4148
 11
-19.8409
 21
66.9362
  0
LINE
  8
0
 10
-19.8409
 20
66.9362
 11
-19.3776
 21
67.2745
  0
LINE
  8
0
 10
-19.3776
 20
67.2745
 11
-18.8393
 21
67.4287
  0
LINE
  8
0
 10
-18.8393
 20
67.4287
 11
-18.2236
 21
67.3994
  0
LINE
  8
0
 10
-18.2236
 20
67.3994
 11
-17.5333
 21
67.1866
  0
LINE
  8
0
 10
-17.5333
 20
67.1866
 11
-16.7651
 21
66.7897
  0
LINE
  8
0
 10
-16.7651
 20
66.7897
 11
-15.9215
 21
66.2088
  0
LINE
  8
0
 10
-15.9215
 20
66.2088
 11
-15.0046
 21
65.4466
  0
LINE
  8
0
 10
-15.0046
 20
65.4466
 11
-17.986
 21
62.4886
  0
LINE
  8
0
 10
-17.986
 20
62.4886
 11
-17.986
 21
56.6493
  0
LINE
  8
0
 10
-17.986
 20
56.6493
 11
-26.4244
 21
56.6493
  0
LINE
  8
0
 10
3.57559
 20
56.6493
 11
7.50046
 21
59.5245
  0
LINE
  8
0
 10
7.50046
 20
59.5245
 11
10.4645
 21
59.5245
  0
LINE
  8
0
 10
10.4645
 20
59.5245
 11
8.9827
 21
62.4876
  0
LINE
  8
0
 10
8.9827
 20
62.4876
 11
9.06647
 21
63.7451
  0
LINE
  8
0
 10
9.06647
 20
63.7451
 11
9.22577
 21
64.8195
  0
LINE
  8
0
 10
9.22577
 20
64.8195
 11
9.46106
 21
65.7085
  0
LINE
  8
0
 10
9.46106
 20
65.7085
 11
9.77234
 21
66.4148
  0
LINE
  8
0
 10
9.77234
 20
66.4148
 11
10.1591
 21
66.9362
  0
LINE
  8
0
 10
10.1591
 20
66.9362
 11
10.6224
 21
67.2745
  0
LINE
  8
0
 10
10.6224
 20
67.2745
 11
11.1607
 21
67.4287
  0
LINE
  8
0
 10
11.1607
 20
67.4287
 11
11.7764
 21
67.3994
  0
LINE
  8
0
 10
11.7764
 20
67.3994
 11
12.4667
 21
67.1866
  0
LINE
  8
0
 10
12.4667
 20
67.1866
 11
13.2349
 21
66.7897
  0
LINE
  8
0
 10
13.2349
 20
66.7897
 11
14.0785
 21
66.2088
  0
LINE
  8
0
 10
14.0785
 20
66.2088
 11
14.9954
 21
65.4466
  0
LINE
  8
0
 10
14.9954
 20
65.4466
 11
12.014
 21
62.4886
  0
LINE
  8
0
 10
12.014
 20
62.4886
 11
12.014
 21
56.6493
  0
LINE
  8
0
 10
12.014
 20
56.6493
 11
3.57559
 21
56.6493
  0
LINE
  8
0
 10
-6.01685
 20
63.9914
 11
-1.50604
 21
67.3354
  0
LINE
  8
0
 10
-1.50604
 20
67.3354
 11
-1.50604
 21
59.5612
  0
LINE
  8
0
 10
-1.50604
 20
59.5612
 11
-2.00775
 21
60.1242
  0
LINE
  8
0
 10
-2.00775
 20
60.1242
 11
-2.49161
 21
60.5357
  0
LINE
  8
0
 10
-2.49161
 20
60.5357
 11
-2.95258
 21
60.7875
  0
LINE
  8
0
 10
-2.95258
 20
60.7875
 11
-3.38928
 21
60.8804
  0
LINE
  8
0
 10
-3.38928
 20
60.8804
 11
-3.80219
 21
60.8136
  0
LINE
  8
0
 10
-3.80219
 20
60.8136
 11
-4.19128
 21
60.5875
  0
LINE
  8
0
 10
-4.19128
 20
60.5875
 11
-4.55658
 21
60.2025
  0
LINE
  8
0
 10
-4.55658
 20
60.2025
 11
-4.89761
 21
59.6582
  0
LINE
  8
0
 10
-4.89761
 20
59.6582
 11
-5.21484
 21
58.9555
  0
LINE
  8
0
 10
-5.21484
 20
58.9555
 11
-5.50781
 21
58.0936
  0
LINE
  8
0
 10
-5.50781
 20
58.0936
 11
-5.77744
 21
57.0732
  0
LINE
  8
0
 10
-5.77744
 20
57.0732
 11
-6.01685
 21
55.9224
  0
LINE
  8
0
 10
-6.01685
 20
55.9224
 11
-6.01685
 21
63.9914
  0
LINE
  8
0
 10
-36.0168
 20
63.9914
 11
-31.506
 21
67.3354
  0
LINE
  8
0
 10
-31.506
 20
67.3354
 11
-31.506
 21
59.5612
  0
LINE
  8
0
 10
-31.506
 20
59.5612
 11
-32.0078
 21
60.1242
  0
LINE
  8
0
 10
-32.0078
 20
60.1242
 11
-32.4916
 21
60.5357
  0
LINE
  8
0
 10
-32.4916
 20
60.5357
 11
-32.9526
 21
60.7875
  0
LINE
  8
0
 10
-32.9526
 20
60.7875
 11
-33.3893
 21
60.8804
  0
LINE
  8
0
 10
-33.3893
 20
60.8804
 11
-33.8022
 21
60.8136
  0
LINE
  8
0
 10
-33.8022
 20
60.8136
 11
-34.1913
 21
60.5875
  0
LINE
  8
0
 10
-34.1913
 20
60.5875
 11
-34.5566
 21
60.2025
  0
LINE
  8
0
 10
-34.5566
 20
60.2025
 11
-34.8976
 21
59.6582
  0
LINE
  8
0
 10
-34.8976
 20
59.6582
 11
-35.2148
 21
58.9555
  0
LINE
  8
0
 10
-35.2148
 20
58.9555
 11
-35.5078
 21
58.0936
  0
LINE
  8
0
 10
-35.5078
 20
58.0936
 11
-35.7774
 21
57.0732
  0
LINE
  8
0
 10
-35.7774
 20
57.0732
 11
-36.0168
 21
55.9224
  0
LINE
  8
0
 10
-36.0168
 20
55.9224
 11
-36.0168
 21
63.9914
  0
LINE
  8
0
 10
23.9832
 20
63.9914
 11
28.494
 21
67.3354
  0
LINE
  8
0
 10
28.494
 20
67.3354
 11
28.494
 21
59.5612
  0
LINE
  8
0
 10
28.494
 20
59.5612
 11
27.9922
 21
60.1242
  0
LINE
  8
0
 10
27.9922
 20
60.1242
 11
27.5084
 21
60.5357
  0
LINE
  8
0
 10
27.5084
 20
60.5357
 11
27.0474
 21
60.7875
  0
LINE
  8
0
 10
27.0474
 20
60.7875
 11
26.6107
 21
60.8804
  0
LINE
  8
0
 10
26.6107
 20
60.8804
 11
26.1978
 21
60.8136
  0
LINE
  8
0
 10
26.1978
 20
60.8136
 11
25.8087
 21
60.5875
  0
LINE
  8
0
 10
25.8087
 20
60.5875
 11
25.4434
 21
60.2025
  0
LINE
  8
0
 10
25.4434
 20
60.2025
 11
25.1024
 21
59.6582
  0
LINE
  8
0
 10
25.1024
 20
59.6582
 11
24.7852
 21
58.9555
  0
LINE
  8
0
 10
24.7852
 20
58.9555
 11
24.4922
 21
58.0936
  0
LINE
  8
0
 10
24.4922
 20
58.0936
 11
24.2226
 21
57.0732
  0
LINE
  8
0
 10
24.2226
 20
57.0732
 11
23.9832
 21
55.9224
  0
LINE
  8
0
 10
23.9832
 20
55.9224
 11
23.9832
 21
63.9914
  0
LINE
  8
0
 10
33.5756
 20
56.6493
 11
37.5005
 21
59.5245
  0
LINE
  8
0
 10
37.5005
 20
59.5245
 11
40.4645
 21
59.5245
  0
LINE
  8
0
 10
40.4645
 20
59.5245
 11
38.9827
 21
62.4876
  0
LINE
  8
0
 10
38.9827
 20
62.4876
 11
39.0665
 21
63.7451
  0
LINE
  8
0
 10
39.0665
 20
63.7451
 11
39.2258
 21
64.8195
  0
LINE
  8
0
 10
39.2258
 20
64.8195
 11
39.4611
 21
65.7085
  0
LINE
  8
0
 10
39.4611
 20
65.7085
 11
39.7723
 21
66.4148
  0
LINE
  8
0
 10
39.7723
 20
66.4148
 11
40.1591
 21
66.9362
  0
LINE
  8
0
 10
40.1591
 20
66.9362
 11
40.5426
 21
67.2162
  0
LINE
  8
0
 10
40.5426
 20
67.2162
 11
42.0629
 21
62.5371
  0
LINE
  8
0
 10
42.0629
 20
62.5371
 11
42.014
 21
62.4886
  0
LINE
  8
0
 10
42.014
 20
62.4886
 11
42.014
 21
56.6493
  0
LINE
  8
0
 10
42.014
 20
56.6493
 11
33.5756
 21
56.6493
  0
LINE
  8
0
 10
-36.0168
 20
46.0086
 11
-36.0168
 21
54.0781
  0
LINE
  8
0
 10
-36.0168
 20
54.0781
 11
-35.7774
 21
52.9272
  0
LINE
  8
0
 10
-35.7774
 20
52.9272
 11
-35.5078
 21
51.9069
  0
LINE
  8
0
 10
-35.5078
 20
51.9069
 11
-35.2148
 21
51.0449
  0
LINE
  8
0
 10
-35.2148
 20
51.0449
 11
-34.8976
 21
50.3418
  0
LINE
  8
0
 10
-34.8976
 20
50.3418
 11
-34.557
 21
49.7975
  0
LINE
  8
0
 10
-34.557
 20
49.7975
 11
-34.1913
 21
49.4125
  0
LINE
  8
0
 10
-34.1913
 20
49.4125
 11
-33.8022
 21
49.1864
  0
LINE
  8
0
 10
-33.8022
 20
49.1864
 11
-33.3893
 21
49.1196
  0
LINE
  8
0
 10
-33.3893
 20
49.1196
 11
-32.9526
 21
49.2125
  0
LINE
  8
0
 10
-32.9526
 20
49.2125
 11
-32.4916
 21
49.4643
  0
LINE
  8
0
 10
-32.4916
 20
49.4643
 11
-32.0082
 21
49.8753
  0
LINE
  8
0
 10
-32.0082
 20
49.8753
 11
-31.506
 21
50.4388
  0
LINE
  8
0
 10
-31.506
 20
50.4388
 11
-31.506
 21
42.6646
  0
LINE
  8
0
 10
-31.506
 20
42.6646
 11
-36.0168
 21
46.0086
  0
LINE
  8
0
 10
23.9832
 20
46.0086
 11
23.9832
 21
54.0781
  0
LINE
  8
0
 10
23.9832
 20
54.0781
 11
24.2226
 21
52.9272
  0
LINE
  8
0
 10
24.2226
 20
52.9272
 11
24.4922
 21
51.9069
  0
LINE
  8
0
 10
24.4922
 20
51.9069
 11
24.7852
 21
51.0449
  0
LINE
  8
0
 10
24.7852
 20
51.0449
 11
25.1024
 21
50.3418
  0
LINE
  8
0
 10
25.1024
 20
50.3418
 11
25.443
 21
49.7975
  0
LINE
  8
0
 10
25.443
 20
49.7975
 11
25.8087
 21
49.4125
  0
LINE
  8
0
 10
25.8087
 20
49.4125
 11
26.1978
 21
49.1864
  0
LINE
  8
0
 10
26.1978
 20
49.1864
 11
26.6107
 21
49.1196
  0
LINE
  8
0
 10
26.6107
 20
49.1196
 11
27.0474
 21
49.2125
  0
LINE
  8
0
 10
27.0474
 20
49.2125
 11
27.5084
 21
49.4643
  0
LINE
  8
0
 10
27.5084
 20
49.4643
 11
27.9918
 21
49.8753
  0
LINE
  8
0
 10
27.9918
 20
49.8753
 11
28.494
 21
50.4388
  0
LINE
  8
0
 10
28.494
 20
50.4388
 11
28.494
 21
42.6646
  0
LINE
  8
0
 10
28.494
 20
42.6646
 11
23.9832
 21
46.0086
  0
LINE
  8
0
 10
-6.01685
 20
46.0086
 11
-6.01685
 21
54.0781
  0
LINE
  8
0
 10
-6.01685
 20
54.0781
 11
-5.77744
 21
52.9272
  0
LINE
  8
0
 10
-5.77744
 20
52.9272
 11
-5.50781
 21
51.9069
  0
LINE
  8
0
 10
-5.50781
 20
51.9069
 11
-5.21484
 21
51.0449
  0
LINE
  8
0
 10
-5.21484
 20
51.0449
 11
-4.89761
 21
50.3418
  0
LINE
  8
0
 10
-4.89761
 20
50.3418
 11
-4.55704
 21
49.7975
  0
LINE
  8
0
 10
-4.55704
 20
49.7975
 11
-4.19128
 21
49.4125
  0
LINE
  8
0
 10
-4.19128
 20
49.4125
 11
-3.80219
 21
49.1864
  0
LINE
  8
0
 10
-3.80219
 20
49.1864
 11
-3.38928
 21
49.1196
  0
LINE
  8
0
 10
-3.38928
 20
49.1196
 11
-2.95258
 21
49.2125
  0
LINE
  8
0
 10
-2.95258
 20
49.2125
 11
-2.49161
 21
49.4643
  0
LINE
  8
0
 10
-2.49161
 20
49.4643
 11
-2.00821
 21
49.8753
  0
LINE
  8
0
 10
-2.00821
 20
49.8753
 11
-1.50604
 21
50.4388
  0
LINE
  8
0
 10
-1.50604
 20
50.4388
 11
-1.50604
 21
42.6646
  0
LINE
  8
0
 10
-1.50604
 20
42.6646
 11
-6.01685
 21
46.0086
  0
LINE
  8
0
 10
-19.3776
 20
42.7255
 11
-19.8409
 21
43.0638
  0
LINE
  8
0
 10
-19.8409
 20
43.0638
 11
-20.2277
 21
43.5852
  0
LINE
  8
0
 10
-20.2277
 20
43.5852
 11
-20.5389
 21
44.2915
  0
LINE
  8
0
 10
-20.5389
 20
44.2915
 11
-20.7747
 21
45.1814
  0
LINE
  8
0
 10
-20.7747
 20
45.1814
 11
-20.9335
 21
46.2549
  0
LINE
  8
0
 10
-20.9335
 20
46.2549
 11
-21.0173
 21
47.5124
  0
LINE
  8
0
 10
-21.0173
 20
47.5124
 11
-19.5355
 21
50.4755
  0
LINE
  8
0
 10
-19.5355
 20
50.4755
 11
-22.4995
 21
50.4755
  0
LINE
  8
0
 10
-22.4995
 20
50.4755
 11
-26.4244
 21
53.3507
  0
LINE
  8
0
 10
-26.4244
 20
53.3507
 11
-17.986
 21
53.3507
  0
LINE
  8
0
 10
-17.986
 20
53.3507
 11
-17.986
 21
47.5114
  0
LINE
  8
0
 10
-17.986
 20
47.5114
 11
-15.0046
 21
44.5534
  0
LINE
  8
0
 10
-15.0046
 20
44.5534
 11
-15.9219
 21
43.7907
  0
LINE
  8
0
 10
-15.9219
 20
43.7907
 11
-16.7651
 21
43.2103
  0
LINE
  8
0
 10
-16.7651
 20
43.2103
 11
-17.5333
 21
42.8134
  0
LINE
  8
0
 10
-17.5333
 20
42.8134
 11
-18.2236
 21
42.6006
  0
LINE
  8
0
 10
-18.2236
 20
42.6006
 11
-18.8393
 21
42.5713
  0
LINE
  8
0
 10
-18.8393
 20
42.5713
 11
-19.3776
 21
42.7255
  0
LINE
  8
0
 10
10.6224
 20
42.7255
 11
10.1591
 21
43.0638
  0
LINE
  8
0
 10
10.1591
 20
43.0638
 11
9.77234
 21
43.5852
  0
LINE
  8
0
 10
9.77234
 20
43.5852
 11
9.46106
 21
44.2915
  0
LINE
  8
0
 10
9.46106
 20
44.2915
 11
9.22531
 21
45.1814
  0
LINE
  8
0
 10
9.22531
 20
45.1814
 11
9.06647
 21
46.2549
  0
LINE
  8
0
 10
9.06647
 20
46.2549
 11
8.9827
 21
47.5124
  0
LINE
  8
0
 10
8.9827
 20
47.5124
 11
10.4645
 21
50.4755
  0
LINE
  8
0
 10
10.4645
 20
50.4755
 11
7.50046
 21
50.4755
  0
LINE
  8
0
 10
7.50046
 20
50.4755
 11
3.57559
 21
53.3507
  0
LINE
  8
0
 10
3.57559
 20
53.3507
 11
12.014
 21
53.3507
  0
LINE
  8
0
 10
12.014
 20
53.3507
 11
12.014
 21
47.5114
  0
LINE
  8
0
 10
12.014
 20
47.5114
 11
14.9954
 21
44.5534
  0
LINE
  8
0
 10
14.9954
 20
44.5534
 11
14.0781
 21
43.7907
  0
LINE
  8
0
 10
14.0781
 20
43.7907
 11
13.2349
 21
43.2103
  0
LINE
  8
0
 10
13.2349
 20
43.2103
 11
12.4667
 21
42.8134
  0
LINE
  8
0
 10
12.4667
 20
42.8134
 11
11.7764
 21
42.6006
  0
LINE
  8
0
 10
11.7764
 20
42.6006
 11
11.1607
 21
42.5713
  0
LINE
  8
0
 10
11.1607
 20
42.5713
 11
10.6224
 21
42.7255
  0
LINE
  8
0
 10
40.6224
 20
42.7255
 11
40.1591
 21
43.0638
  0
LINE
  8
0
 10
40.1591
 20
43.0638
 11
39.7723
 21
43.5852
  0
LINE
  8
0
 10
39.7723
 20
43.5852
 11
39.4611
 21
44.2915
  0
LINE
  8
0
 10
39.4611
 20
44.2915
 11
39.2253
 21
45.1814
  0
LINE
  8
0
 10
39.2253
 20
45.1814
 11
39.0665
 21
46.2549
  0
LINE
  8
0
 10
39.0665
 20
46.2549
 11
38.9827
 21
47.5124
  0
LINE
  8
0
 10
38.9827
 20
47.5124
 11
40.4645
 21
50.4755
  0
LINE
  8
0
 10
40.4645
 20
50.4755
 11
37.5005
 21
50.4755
  0
LINE
  8
0
 10
37.5005
 20
50.4755
 11
33.5756
 21
53.3507
  0
LINE
  8
0
 10
33.5756
 20
53.3507
 11
42.014
 21
53.3507
  0
LINE
  8
0
 10
42.014
 20
53.3507
 11
42.014
 21
47.5114
  0
LINE
  8
0
 10
42.014
 20
47.5114
 11
44.9954
 21
44.5534
  0
LINE
  8
0
 10
44.9954
 20
44.5534
 11
44.0781
 21
43.7907
  0
LINE
  8
0
 10
44.0781
 20
43.7907
 11
43.2349
 21
43.2103
  0
LINE
  8
0
 10
43.2349
 20
43.2103
 11
42.4667
 21
42.8134
  0
LINE
  8
0
 10
42.4667
 20
42.8134
 11
41.7764
 21
42.6006
  0
LINE
  8
0
 10
41.7764
 20
42.6006
 11
41.1607
 21
42.5713
  0
LINE
  8
0
 10
41.1607
 20
42.5713
 11
40.6224
 21
42.7255
  0
LINE
  8
0
 10
-42.014
 20
41.6493
 11
-42.014
 21
47.4886
  0
LINE
  8
0
 10
-42.014
 20
47.4886
 11
-44.9954
 21
50.4466
  0
LINE
  8
0
 10
-44.9954
 20
50.4466
 11
-44.0781
 21
51.2093
  0
LINE
  8
0
 10
-44.0781
 20
51.2093
 11
-43.2349
 21
51.7897
  0
LINE
  8
0
 10
-43.2349
 20
51.7897
 11
-42.4667
 21
52.1866
  0
LINE
  8
0
 10
-42.4667
 20
52.1866
 11
-41.7764
 21
52.3994
  0
LINE
  8
0
 10
-41.7764
 20
52.3994
 11
-41.1607
 21
52.4287
  0
LINE
  8
0
 10
-41.1607
 20
52.4287
 11
-40.6224
 21
52.2745
  0
LINE
  8
0
 10
-40.6224
 20
52.2745
 11
-40.1591
 21
51.9362
  0
LINE
  8
0
 10
-40.1591
 20
51.9362
 11
-39.7723
 21
51.4148
  0
LINE
  8
0
 10
-39.7723
 20
51.4148
 11
-39.4611
 21
50.7085
  0
LINE
  8
0
 10
-39.4611
 20
50.7085
 11
-39.2253
 21
49.8186
  0
LINE
  8
0
 10
-39.2253
 20
49.8186
 11
-39.0665
 21
48.7451
  0
LINE
  8
0
 10
-39.0665
 20
48.7451
 11
-38.9827
 21
47.4876
  0
LINE
  8
0
 10
-38.9827
 20
47.4876
 11
-40.4645
 21
44.5245
  0
LINE
  8
0
 10
-40.4645
 20
44.5245
 11
-37.5005
 21
44.5245
  0
LINE
  8
0
 10
-37.5005
 20
44.5245
 11
-33.5756
 21
41.6493
  0
LINE
  8
0
 10
-33.5756
 20
41.6493
 11
-42.014
 21
41.6493
  0
LINE
  8
0
 10
-12.014
 20
41.6493
 11
-12.014
 21
47.4886
  0
LINE
  8
0
 10
-12.014
 20
47.4886
 11
-14.9954
 21
50.4466
  0
LINE
  8
0
 10
-14.9954
 20
50.4466
 11
-14.0781
 21
51.2093
  0
LINE
  8
0
 10
-14.0781
 20
51.2093
 11
-13.2349
 21
51.7897
  0
LINE
  8
0
 10
-13.2349
 20
51.7897
 11
-12.4667
 21
52.1866
  0
LINE
  8
0
 10
-12.4667
 20
52.1866
 11
-11.7764
 21
52.3994
  0
LINE
  8
0
 10
-11.7764
 20
52.3994
 11
-11.1607
 21
52.4287
  0
LINE
  8
0
 10
-11.1607
 20
52.4287
 11
-10.6224
 21
52.2745
  0
LINE
  8
0
 10
-10.6224
 20
52.2745
 11
-10.1591
 21
51.9362
  0
LINE
  8
0
 10
-10.1591
 20
51.9362
 11
-9.77234
 21
51.4148
  0
LINE
  8
0
 10
-9.77234
 20
51.4148
 11
-9.46106
 21
50.7085
  0
LINE
  8
0
 10
-9.46106
 20
50.7085
 11
-9.22531
 21
49.8186
  0
LINE
  8
0
 10
-9.22531
 20
49.8186
 11
-9.06647
 21
48.7451
  0
LINE
  8
0
 10
-9.06647
 20
48.7451
 11
-8.9827
 21
47.4876
  0
LINE
  8
0
 10
-8.9827
 20
47.4876
 11
-10.4645
 21
44.5245
  0
LINE
  8
0
 10
-10.4645
 20
44.5245
 11
-7.50046
 21
44.5245
  0
LINE
  8
0
 10
-7.50046
 20
44.5245
 11
-3.57559
 21
41.6493
  0
LINE
  8
0
 10
-3.57559
 20
41.6493
 11
-12.014
 21
41.6493
  0
LINE
  8
0
 10
17.986
 20
41.6493
 11
17.986
 21
47.4886
  0
LINE
  8
0
 10
17.986
 20
47.4886
 11
15.0046
 21
50.4466
  0
LINE
  8
0
 10
15.0046
 20
50.4466
 11
15.9219
 21
51.2093
  0
LINE
  8
0
 10
15.9219
 20
51.2093
 11
16.7651
 21
51.7897
  0
LINE
  8
0
 10
16.7651
 20
51.7897
 11
17.5333
 21
52.1866
  0
LINE
  8
0
 10
17.5333
 20
52.1866
 11
18.2236
 21
52.3994
  0
LINE
  8
0
 10
18.2236
 20
52.3994
 11
18.8393
 21
52.4287
  0
LINE
  8
0
 10
18.8393
 20
52.4287
 11
19.3776
 21
52.2745
  0
LINE
  8
0
 10
19.3776
 20
52.2745
 11
19.8409
 21
51.9362
  0
LINE
  8
0
 10
19.8409
 20
51.9362
 11
20.2277
 21
51.4148
  0
LINE
  8
0
 10
20.2277
 20
51.4148
 11
20.5389
 21
50.7085
  0
LINE
  8
0
 10
20.5389
 20
50.7085
 11
20.7747
 21
49.8186
  0
LINE
  8
0
 10
20.7747
 20
49.8186
 11
20.9335
 21
48.7451
  0
LINE
  8
0
 10
20.9335
 20
48.7451
 11
21.0173
 21
47.4876
  0
LINE
  8
0
 10
21.0173
 20
47.4876
 11
19.5355
 21
44.5245
  0
LINE
  8
0
 10
19.5355
 20
44.5245
 11
22.4995
 21
44.5245
  0
LINE
  8
0
 10
22.4995
 20
44.5245
 11
26.4244
 21
41.6493
  0
LINE
  8
0
 10
26.4244
 20
41.6493
 11
17.986
 21
41.6493
  0
LINE
  8
0
 10
5.77744
 20
42.0728
 11
5.50781
 21
43.0931
  0
LINE
  8
0
 10
5.50781
 20
43.0931
 11
5.21484
 21
43.9551
  0
LINE
  8
0
 10
5.21484
 20
43.9551
 11
4.89761
 21
44.6582
  0
LINE
  8
0
 10
4.89761
 20
44.6582
 11
4.55704
 21
45.2025
  0
LINE
  8
0
 10
4.55704
 20
45.2025
 11
4.19128
 21
45.5875
  0
LINE
  8
0
 10
4.19128
 20
45.5875
 11
3.80219
 21
45.8136
  0
LINE
  8
0
 10
3.80219
 20
45.8136
 11
3.38928
 21
45.8804
  0
LINE
  8
0
 10
3.38928
 20
45.8804
 11
2.95258
 21
45.7875
  0
LINE
  8
0
 10
2.95258
 20
45.7875
 11
2.49161
 21
45.5357
  0
LINE
  8
0
 10
2.49161
 20
45.5357
 11
2.00821
 21
45.1247
  0
LINE
  8
0
 10
2.00821
 20
45.1247
 11
1.50604
 21
44.5612
  0
LINE
  8
0
 10
1.50604
 20
44.5612
 11
1.50604
 21
52.3354
  0
LINE
  8
0
 10
1.50604
 20
52.3354
 11
6.01685
 21
48.9914
  0
LINE
  8
0
 10
6.01685
 20
48.9914
 11
6.01685
 21
40.9219
  0
LINE
  8
0
 10
6.01685
 20
40.9219
 11
5.77744
 21
42.0728
  0
LINE
  8
0
 10
35.7774
 20
42.0728
 11
35.5078
 21
43.0931
  0
LINE
  8
0
 10
35.5078
 20
43.0931
 11
35.2148
 21
43.9551
  0
LINE
  8
0
 10
35.2148
 20
43.9551
 11
34.8976
 21
44.6582
  0
LINE
  8
0
 10
34.8976
 20
44.6582
 11
34.557
 21
45.2025
  0
LINE
  8
0
 10
34.557
 20
45.2025
 11
34.1913
 21
45.5875
  0
LINE
  8
0
 10
34.1913
 20
45.5875
 11
33.8022
 21
45.8136
  0
LINE
  8
0
 10
33.8022
 20
45.8136
 11
33.3893
 21
45.8804
  0
LINE
  8
0
 10
33.3893
 20
45.8804
 11
32.9526
 21
45.7875
  0
LINE
  8
0
 10
32.9526
 20
45.7875
 11
32.4916
 21
45.5357
  0
LINE
  8
0
 10
32.4916
 20
45.5357
 11
32.0082
 21
45.1247
  0
LINE
  8
0
 10
32.0082
 20
45.1247
 11
31.506
 21
44.5612
  0
LINE
  8
0
 10
31.506
 20
44.5612
 11
31.506
 21
52.3354
  0
LINE
  8
0
 10
31.506
 20
52.3354
 11
36.0168
 21
48.9914
  0
LINE
  8
0
 10
36.0168
 20
48.9914
 11
36.0168
 21
40.9219
  0
LINE
  8
0
 10
36.0168
 20
40.9219
 11
35.7774
 21
42.0728
  0
LINE
  8
0
 10
-24.2226
 20
42.0728
 11
-24.4922
 21
43.0931
  0
LINE
  8
0
 10
-24.4922
 20
43.0931
 11
-24.7852
 21
43.9551
  0
LINE
  8
0
 10
-24.7852
 20
43.9551
 11
-25.1024
 21
44.6582
  0
LINE
  8
0
 10
-25.1024
 20
44.6582
 11
-25.443
 21
45.2025
  0
LINE
  8
0
 10
-25.443
 20
45.2025
 11
-25.8087
 21
45.5875
  0
LINE
  8
0
 10
-25.8087
 20
45.5875
 11
-26.1978
 21
45.8136
  0
LINE
  8
0
 10
-26.1978
 20
45.8136
 11
-26.6107
 21
45.8804
  0
LINE
  8
0
 10
-26.6107
 20
45.8804
 11
-27.0474
 21
45.7875
  0
LINE
  8
0
 10
-27.0474
 20
45.7875
 11
-27.5084
 21
45.5357
  0
LINE
  8
0
 10
-27.5084
 20
45.5357
 11
-27.9918
 21
45.1247
  0
LINE
  8
0
 10
-27.9918
 20
45.1247
 11
-28.494
 21
44.5612
  0
LINE
  8
0
 10
-28.494
 20
44.5612
 11
-28.494
 21
52.3354
  0
LINE
  8
0
 10
-28.494
 20
52.3354
 11
-23.9832
 21
48.9914
  0
LINE
  8
0
 10
-23.9832
 20
48.9914
 11
-23.9832
 21
40.9219
  0
LINE
  8
0
 10
-23.9832
 20
40.9219
 11
-24.2226
 21
42.0728
  0
LINE
  8
0
 10
45.0046
 20
50.4466
 11
45.7815
 21
51.0925
  0
LINE
  8
0
 10
45.7815
 20
51.0925
 11
46.4608
 21
49.0018
  0
LINE
  8
0
 10
46.4608
 20
49.0018
 11
45.0046
 21
50.4466
  0
LINE
  8
0
 10
-47.1988
 20
46.7304
 11
-45.0046
 21
44.5534
  0
LINE
  8
0
 10
-45.0046
 20
44.5534
 11
-45.9219
 21
43.7907
  0
LINE
  8
0
 10
-45.9219
 20
43.7907
 11
-46.7651
 21
43.2103
  0
LINE
  8
0
 10
-46.7651
 20
43.2103
 11
-47.5333
 21
42.8134
  0
LINE
  8
0
 10
-47.5333
 20
42.8134
 11
-48.2236
 21
42.6006
  0
LINE
  8
0
 10
-48.2236
 20
42.6006
 11
-48.5457
 21
42.5852
  0
LINE
  8
0
 10
-48.5457
 20
42.5852
 11
-47.1988
 21
46.7304
  0
LINE
  8
0
 10
47.986
 20
41.6493
 11
47.986
 21
44.3077
  0
LINE
  8
0
 10
47.986
 20
44.3077
 11
48.8498
 21
41.6493
  0
LINE
  8
0
 10
48.8498
 20
41.6493
 11
47.986
 21
41.6493
  0
LINE
  8
0
 10
1.50604
 20
35.4388
 11
2.00775
 21
34.8758
  0
LINE
  8
0
 10
2.00775
 20
34.8758
 11
2.49161
 21
34.4643
  0
LINE
  8
0
 10
2.49161
 20
34.4643
 11
2.95258
 21
34.2125
  0
LINE
  8
0
 10
2.95258
 20
34.2125
 11
3.38928
 21
34.1196
  0
LINE
  8
0
 10
3.38928
 20
34.1196
 11
3.80219
 21
34.1864
  0
LINE
  8
0
 10
3.80219
 20
34.1864
 11
4.19128
 21
34.4125
  0
LINE
  8
0
 10
4.19128
 20
34.4125
 11
4.55658
 21
34.7975
  0
LINE
  8
0
 10
4.55658
 20
34.7975
 11
4.89761
 21
35.3418
  0
LINE
  8
0
 10
4.89761
 20
35.3418
 11
5.21484
 21
36.0445
  0
LINE
  8
0
 10
5.21484
 20
36.0445
 11
5.50781
 21
36.9064
  0
LINE
  8
0
 10
5.50781
 20
36.9064
 11
5.77744
 21
37.9268
  0
LINE
  8
0
 10
5.77744
 20
37.9268
 11
6.01685
 21
39.0776
  0
LINE
  8
0
 10
6.01685
 20
39.0776
 11
6.01685
 21
31.0086
  0
LINE
  8
0
 10
6.01685
 20
31.0086
 11
1.50604
 21
27.6646
  0
LINE
  8
0
 10
1.50604
 20
27.6646
 11
1.50604
 21
35.4388
  0
LINE
  8
0
 10
31.506
 20
35.4388
 11
32.0078
 21
34.8758
  0
LINE
  8
0
 10
32.0078
 20
34.8758
 11
32.4916
 21
34.4643
  0
LINE
  8
0
 10
32.4916
 20
34.4643
 11
32.9526
 21
34.2125
  0
LINE
  8
0
 10
32.9526
 20
34.2125
 11
33.3893
 21
34.1196
  0
LINE
  8
0
 10
33.3893
 20
34.1196
 11
33.8022
 21
34.1864
  0
LINE
  8
0
 10
33.8022
 20
34.1864
 11
34.1913
 21
34.4125
  0
LINE
  8
0
 10
34.1913
 20
34.4125
 11
34.5566
 21
34.7975
  0
LINE
  8
0
 10
34.5566
 20
34.7975
 11
34.8976
 21
35.3418
  0
LINE
  8
0
 10
34.8976
 20
35.3418
 11
35.2148
 21
36.0445
  0
LINE
  8
0
 10
35.2148
 20
36.0445
 11
35.5078
 21
36.9064
  0
LINE
  8
0
 10
35.5078
 20
36.9064
 11
35.7774
 21
37.9268
  0
LINE
  8
0
 10
35.7774
 20
37.9268
 11
36.0168
 21
39.0776
  0
LINE
  8
0
 10
36.0168
 20
39.0776
 11
36.0168
 21
31.0086
  0
LINE
  8
0
 10
36.0168
 20
31.0086
 11
31.506
 21
27.6646
  0
LINE
  8
0
 10
31.506
 20
27.6646
 11
31.506
 21
35.4388
  0
LINE
  8
0
 10
-28.494
 20
35.4388
 11
-27.9922
 21
34.8758
  0
LINE
  8
0
 10
-27.9922
 20
34.8758
 11
-27.5084
 21
34.4643
  0
LINE
  8
0
 10
-27.5084
 20
34.4643
 11
-27.0474
 21
34.2125
  0
LINE
  8
0
 10
-27.0474
 20
34.2125
 11
-26.6107
 21
34.1196
  0
LINE
  8
0
 10
-26.6107
 20
34.1196
 11
-26.1978
 21
34.1864
  0
LINE
  8
0
 10
-26.1978
 20
34.1864
 11
-25.8087
 21
34.4125
  0
LINE
  8
0
 10
-25.8087
 20
34.4125
 11
-25.4434
 21
34.7975
  0
LINE
  8
0
 10
-25.4434
 20
34.7975
 11
-25.1024
 21
35.3418
  0
LINE
  8
0
 10
-25.1024
 20
35.3418
 11
-24.7852
 21
36.0445
  0
LINE
  8
0
 10
-24.7852
 20
36.0445
 11
-24.4922
 21
36.9064
  0
LINE
  8
0
 10
-24.4922
 20
36.9064
 11
-24.2226
 21
37.9268
  0
LINE
  8
0
 10
-24.2226
 20
37.9268
 11
-23.9832
 21
39.0776
  0
LINE
  8
0
 10
-23.9832
 20
39.0776
 11
-23.9832
 21
31.0086
  0
LINE
  8
0
 10
-23.9832
 20
31.0086
 11
-28.494
 21
27.6646
  0
LINE
  8
0
 10
-28.494
 20
27.6646
 11
-28.494
 21
35.4388
  0
LINE
  8
0
 10
-41.7764
 20
27.6006
 11
-42.4667
 21
27.8134
  0
LINE
  8
0
 10
-42.4667
 20
27.8134
 11
-43.2349
 21
28.2103
  0
LINE
  8
0
 10
-43.2349
 20
28.2103
 11
-44.0785
 21
28.7912
  0
LINE
  8
0
 10
-44.0785
 20
28.7912
 11
-44.9954
 21
29.5534
  0
LINE
  8
0
 10
-44.9954
 20
29.5534
 11
-42.014
 21
32.5114
  0
LINE
  8
0
 10
-42.014
 20
32.5114
 11
-42.014
 21
38.3507
  0
LINE
  8
0
 10
-42.014
 20
38.3507
 11
-33.5756
 21
38.3507
  0
LINE
  8
0
 10
-33.5756
 20
38.3507
 11
-37.5005
 21
35.4755
  0
LINE
  8
0
 10
-37.5005
 20
35.4755
 11
-40.4645
 21
35.4755
  0
LINE
  8
0
 10
-40.4645
 20
35.4755
 11
-38.9827
 21
32.5124
  0
LINE
  8
0
 10
-38.9827
 20
32.5124
 11
-39.0665
 21
31.2549
  0
LINE
  8
0
 10
-39.0665
 20
31.2549
 11
-39.2258
 21
30.1805
  0
LINE
  8
0
 10
-39.2258
 20
30.1805
 11
-39.4611
 21
29.2911
  0
LINE
  8
0
 10
-39.4611
 20
29.2911
 11
-39.7723
 21
28.5852
  0
LINE
  8
0
 10
-39.7723
 20
28.5852
 11
-40.1596
 21
28.0634
  0
LINE
  8
0
 10
-40.1596
 20
28.0634
 11
-40.6224
 21
27.7255
  0
LINE
  8
0
 10
-40.6224
 20
27.7255
 11
-41.1607
 21
27.5713
  0
LINE
  8
0
 10
-41.1607
 20
27.5713
 11
-41.7764
 21
27.6006
  0
LINE
  8
0
 10
-11.7764
 20
27.6006
 11
-12.4667
 21
27.8134
  0
LINE
  8
0
 10
-12.4667
 20
27.8134
 11
-13.2349
 21
28.2103
  0
LINE
  8
0
 10
-13.2349
 20
28.2103
 11
-14.0785
 21
28.7912
  0
LINE
  8
0
 10
-14.0785
 20
28.7912
 11
-14.9954
 21
29.5534
  0
LINE
  8
0
 10
-14.9954
 20
29.5534
 11
-12.014
 21
32.5114
  0
LINE
  8
0
 10
-12.014
 20
32.5114
 11
-12.014
 21
38.3507
  0
LINE
  8
0
 10
-12.014
 20
38.3507
 11
-3.57559
 21
38.3507
  0
LINE
  8
0
 10
-3.57559
 20
38.3507
 11
-7.50046
 21
35.4755
  0
LINE
  8
0
 10
-7.50046
 20
35.4755
 11
-10.4645
 21
35.4755
  0
LINE
  8
0
 10
-10.4645
 20
35.4755
 11
-8.9827
 21
32.5124
  0
LINE
  8
0
 10
-8.9827
 20
32.5124
 11
-9.06647
 21
31.2549
  0
LINE
  8
0
 10
-9.06647
 20
31.2549
 11
-9.22577
 21
30.1805
  0
LINE
  8
0
 10
-9.22577
 20
30.1805
 11
-9.46106
 21
29.2911
  0
LINE
  8
0
 10
-9.46106
 20
29.2911
 11
-9.77234
 21
28.5852
  0
LINE
  8
0
 10
-9.77234
 20
28.5852
 11
-10.1596
 21
28.0634
  0
LINE
  8
0
 10
-10.1596
 20
28.0634
 11
-10.6224
 21
27.7255
  0
LINE
  8
0
 10
-10.6224
 20
27.7255
 11
-11.1607
 21
27.5713
  0
LINE
  8
0
 10
-11.1607
 20
27.5713
 11
-11.7764
 21
27.6006
  0
LINE
  8
0
 10
18.2236
 20
27.6006
 11
17.5333
 21
27.8134
  0
LINE
  8
0
 10
17.5333
 20
27.8134
 11
16.7651
 21
28.2103
  0
LINE
  8
0
 10
16.7651
 20
28.2103
 11
15.9215
 21
28.7912
  0
LINE
  8
0
 10
15.9215
 20
28.7912
 11
15.0046
 21
29.5534
  0
LINE
  8
0
 10
15.0046
 20
29.5534
 11
17.986
 21
32.5114
  0
LINE
  8
0
 10
17.986
 20
32.5114
 11
17.986
 21
38.3507
  0
LINE
  8
0
 10
17.986
 20
38.3507
 11
26.4244
 21
38.3507
  0
LINE
  8
0
 10
26.4244
 20
38.3507
 11
22.4995
 21
35.4755
  0
LINE
  8
0
 10
22.4995
 20
35.4755
 11
19.5355
 21
35.4755
  0
LINE
  8
0
 10
19.5355
 20
35.4755
 11
21.0173
 21
32.5124
  0
LINE
  8
0
 10
21.0173
 20
32.5124
 11
20.9335
 21
31.2549
  0
LINE
  8
0
 10
20.9335
 20
31.2549
 11
20.7742
 21
30.1805
  0
LINE
  8
0
 10
20.7742
 20
30.1805
 11
20.5389
 21
29.2911
  0
LINE
  8
0
 10
20.5389
 20
29.2911
 11
20.2277
 21
28.5852
  0
LINE
  8
0
 10
20.2277
 20
28.5852
 11
19.8404
 21
28.0634
  0
LINE
  8
0
 10
19.8404
 20
28.0634
 11
19.3776
 21
27.7255
  0
LINE
  8
0
 10
19.3776
 20
27.7255
 11
18.8393
 21
27.5713
  0
LINE
  8
0
 10
18.8393
 20
27.5713
 11
18.2236
 21
27.6006
  0
LINE
  8
0
 10
48.2236
 20
27.6006
 11
47.5333
 21
27.8134
  0
LINE
  8
0
 10
47.5333
 20
27.8134
 11
46.7651
 21
28.2103
  0
LINE
  8
0
 10
46.7651
 20
28.2103
 11
45.9215
 21
28.7912
  0
LINE
  8
0
 10
45.9215
 20
28.7912
 11
45.0046
 21
29.5534
  0
LINE
  8
0
 10
45.0046
 20
29.5534
 11
47.986
 21
32.5114
  0
LINE
  8
0
 10
47.986
 20
32.5114
 11
47.986
 21
38.3507
  0
LINE
  8
0
 10
47.986
 20
38.3507
 11
49.9216
 21
38.3507
  0
LINE
  8
0
 10
49.9216
 20
38.3507
 11
50.8558
 21
35.4755
  0
LINE
  8
0
 10
50.8558
 20
35.4755
 11
49.5355
 21
35.4755
  0
LINE
  8
0
 10
49.5355
 20
35.4755
 11
51.0173
 21
32.5124
  0
LINE
  8
0
 10
51.0173
 20
32.5124
 11
50.9335
 21
31.2549
  0
LINE
  8
0
 10
50.9335
 20
31.2549
 11
50.7742
 21
30.1805
  0
LINE
  8
0
 10
50.7742
 20
30.1805
 11
50.5389
 21
29.2911
  0
LINE
  8
0
 10
50.5389
 20
29.2911
 11
50.2277
 21
28.5852
  0
LINE
  8
0
 10
50.2277
 20
28.5852
 11
49.8404
 21
28.0634
  0
LINE
  8
0
 10
49.8404
 20
28.0634
 11
49.3776
 21
27.7255
  0
LINE
  8
0
 10
49.3776
 20
27.7255
 11
48.8393
 21
27.5713
  0
LINE
  8
0
 10
48.8393
 20
27.5713
 11
48.2236
 21
27.6006
  0
LINE
  8
0
 10
-26.4244
 20
26.6493
 11
-22.4995
 21
29.5245
  0
LINE
  8
0
 10
-22.4995
 20
29.5245
 11
-19.5355
 21
29.5245
  0
LINE
  8
0
 10
-19.5355
 20
29.5245
 11
-21.0173
 21
32.4876
  0
LINE
  8
0
 10
-21.0173
 20
32.4876
 11
-20.9335
 21
33.7451
  0
LINE
  8
0
 10
-20.9335
 20
33.7451
 11
-20.7742
 21
34.8195
  0
LINE
  8
0
 10
-20.7742
 20
34.8195
 11
-20.5389
 21
35.7085
  0
LINE
  8
0
 10
-20.5389
 20
35.7085
 11
-20.2277
 21
36.4148
  0
LINE
  8
0
 10
-20.2277
 20
36.4148
 11
-19.8409
 21
36.9362
  0
LINE
  8
0
 10
-19.8409
 20
36.9362
 11
-19.3776
 21
37.2745
  0
LINE
  8
0
 10
-19.3776
 20
37.2745
 11
-18.8393
 21
37.4287
  0
LINE
  8
0
 10
-18.8393
 20
37.4287
 11
-18.2236
 21
37.3994
  0
LINE
  8
0
 10
-18.2236
 20
37.3994
 11
-17.5333
 21
37.1866
  0
LINE
  8
0
 10
-17.5333
 20
37.1866
 11
-16.7651
 21
36.7897
  0
LINE
  8
0
 10
-16.7651
 20
36.7897
 11
-15.9215
 21
36.2088
  0
LINE
  8
0
 10
-15.9215
 20
36.2088
 11
-15.0046
 21
35.4466
  0
LINE
  8
0
 10
-15.0046
 20
35.4466
 11
-17.986
 21
32.4886
  0
LINE
  8
0
 10
-17.986
 20
32.4886
 11
-17.986
 21
26.6493
  0
LINE
  8
0
 10
-17.986
 20
26.6493
 11
-26.4244
 21
26.6493
  0
LINE
  8
0
 10
-53.7236
 20
26.6493
 11
-52.8799
 21
29.2459
  0
LINE
  8
0
 10
-52.8799
 20
29.2459
 11
-52.4995
 21
29.5245
  0
LINE
  8
0
 10
-52.4995
 20
29.5245
 11
-49.5355
 21
29.5245
  0
LINE
  8
0
 10
-49.5355
 20
29.5245
 11
-51.0173
 21
32.4876
  0
LINE
  8
0
 10
-51.0173
 20
32.4876
 11
-50.9335
 21
33.7451
  0
LINE
  8
0
 10
-50.9335
 20
33.7451
 11
-50.7742
 21
34.8195
  0
LINE
  8
0
 10
-50.7742
 20
34.8195
 11
-50.5389
 21
35.7085
  0
LINE
  8
0
 10
-50.5389
 20
35.7085
 11
-50.2277
 21
36.4148
  0
LINE
  8
0
 10
-50.2277
 20
36.4148
 11
-49.8409
 21
36.9362
  0
LINE
  8
0
 10
-49.8409
 20
36.9362
 11
-49.3776
 21
37.2745
  0
LINE
  8
0
 10
-49.3776
 20
37.2745
 11
-48.8393
 21
37.4287
  0
LINE
  8
0
 10
-48.8393
 20
37.4287
 11
-48.2236
 21
37.3994
  0
LINE
  8
0
 10
-48.2236
 20
37.3994
 11
-47.5333
 21
37.1866
  0
LINE
  8
0
 10
-47.5333
 20
37.1866
 11
-46.7651
 21
36.7897
  0
LINE
  8
0
 10
-46.7651
 20
36.7897
 11
-45.9215
 21
36.2088
  0
LINE
  8
0
 10
-45.9215
 20
36.2088
 11
-45.0046
 21
35.4466
  0
LINE
  8
0
 10
-45.0046
 20
35.4466
 11
-47.986
 21
32.4886
  0
LINE
  8
0
 10
-47.986
 20
32.4886
 11
-47.986
 21
26.6493
  0
LINE
  8
0
 10
-47.986
 20
26.6493
 11
-53.7236
 21
26.6493
  0
LINE
  8
0
 10
3.57559
 20
26.6493
 11
7.50046
 21
29.5245
  0
LINE
  8
0
 10
7.50046
 20
29.5245
 11
10.4645
 21
29.5245
  0
LINE
  8
0
 10
10.4645
 20
29.5245
 11
8.9827
 21
32.4876
  0
LINE
  8
0
 10
8.9827
 20
32.4876
 11
9.06647
 21
33.7451
  0
LINE
  8
0
 10
9.06647
 20
33.7451
 11
9.22577
 21
34.8195
  0
LINE
  8
0
 10
9.22577
 20
34.8195
 11
9.46106
 21
35.7085
  0
LINE
  8
0
 10
9.46106
 20
35.7085
 11
9.77234
 21
36.4148
  0
LINE
  8
0
 10
9.77234
 20
36.4148
 11
10.1591
 21
36.9362
  0
LINE
  8
0
 10
10.1591
 20
36.9362
 11
10.6224
 21
37.2745
  0
LINE
  8
0
 10
10.6224
 20
37.2745
 11
11.1607
 21
37.4287
  0
LINE
  8
0
 10
11.1607
 20
37.4287
 11
11.7764
 21
37.3994
  0
LINE
  8
0
 10
11.7764
 20
37.3994
 11
12.4667
 21
37.1866
  0
LINE
  8
0
 10
12.4667
 20
37.1866
 11
13.2349
 21
36.7897
  0
LINE
  8
0
 10
13.2349
 20
36.7897
 11
14.0785
 21
36.2088
  0
LINE
  8
0
 10
14.0785
 20
36.2088
 11
14.9954
 21
35.4466
  0
LINE
  8
0
 10
14.9954
 20
35.4466
 11
12.014
 21
32.4886
  0
LINE
  8
0
 10
12.014
 20
32.4886
 11
12.014
 21
26.6493
  0
LINE
  8
0
 10
12.014
 20
26.6493
 11
3.57559
 21
26.6493
  0
LINE
  8
0
 10
33.5756
 20
26.6493
 11
37.5005
 21
29.5245
  0
LINE
  8
0
 10
37.5005
 20
29.5245
 11
40.4645
 21
29.5245
  0
LINE
  8
0
 10
40.4645
 20
29.5245
 11
38.9827
 21
32.4876
  0
LINE
  8
0
 10
38.9827
 20
32.4876
 11
39.0665
 21
33.7451
  0
LINE
  8
0
 10
39.0665
 20
33.7451
 11
39.2258
 21
34.8195
  0
LINE
  8
0
 10
39.2258
 20
34.8195
 11
39.4611
 21
35.7085
  0
LINE
  8
0
 10
39.4611
 20
35.7085
 11
39.7723
 21
36.4148
  0
LINE
  8
0
 10
39.7723
 20
36.4148
 11
40.1591
 21
36.9362
  0
LINE
  8
0
 10
40.1591
 20
36.9362
 11
40.6224
 21
37.2745
  0
LINE
  8
0
 10
40.6224
 20
37.2745
 11
41.1607
 21
37.4287
  0
LINE
  8
0
 10
41.1607
 20
37.4287
 11
41.7764
 21
37.3994
  0
LINE
  8
0
 10
41.7764
 20
37.3994
 11
42.4667
 21
37.1866
  0
LINE
  8
0
 10
42.4667
 20
37.1866
 11
43.2349
 21
36.7897
  0
LINE
  8
0
 10
43.2349
 20
36.7897
 11
44.0785
 21
36.2088
  0
LINE
  8
0
 10
44.0785
 20
36.2088
 11
44.9954
 21
35.4466
  0
LINE
  8
0
 10
44.9954
 20
35.4466
 11
42.014
 21
32.4886
  0
LINE
  8
0
 10
42.014
 20
32.4886
 11
42.014
 21
26.6493
  0
LINE
  8
0
 10
42.014
 20
26.6493
 11
33.5756
 21
26.6493
  0
LINE
  8
0
 10
-36.0168
 20
33.9914
 11
-31.506
 21
37.3354
  0
LINE
  8
0
 10
-31.506
 20
37.3354
 11
-31.506
 21
29.5612
  0
LINE
  8
0
 10
-31.506
 20
29.5612
 11
-32.0078
 21
30.1242
  0
LINE
  8
0
 10
-32.0078
 20
30.1242
 11
-32.4916
 21
30.5357
  0
LINE
  8
0
 10
-32.4916
 20
30.5357
 11
-32.9526
 21
30.7875
  0
LINE
  8
0
 10
-32.9526
 20
30.7875
 11
-33.3893
 21
30.8804
  0
LINE
  8
0
 10
-33.3893
 20
30.8804
 11
-33.8022
 21
30.8136
  0
LINE
  8
0
 10
-33.8022
 20
30.8136
 11
-34.1913
 21
30.5875
  0
LINE
  8
0
 10
-34.1913
 20
30.5875
 11
-34.5566
 21
30.2025
  0
LINE
  8
0
 10
-34.5566
 20
30.2025
 11
-34.8976
 21
29.6582
  0
LINE
  8
0
 10
-34.8976
 20
29.6582
 11
-35.2148
 21
28.9555
  0
LINE
  8
0
 10
-35.2148
 20
28.9555
 11
-35.5078
 21
28.0936
  0
LINE
  8
0
 10
-35.5078
 20
28.0936
 11
-35.7774
 21
27.0732
  0
LINE
  8
0
 10
-35.7774
 20
27.0732
 11
-36.0168
 21
25.9224
  0
LINE
  8
0
 10
-36.0168
 20
25.9224
 11
-36.0168
 21
33.9914
  0
LINE
  8
0
 10
23.9832
 20
33.9914
 11
28.494
 21
37.3354
  0
LINE
  8
0
 10
28.494
 20
37.3354
 11
28.494
 21
29.5612
  0
LINE
  8
0
 10
28.494
 20
29.5612
 11
27.9922
 21
30.1242
  0
LINE
  8
0
 10
27.9922
 20
30.1242
 11
27.5084
 21
30.5357
  0
LINE
  8
0
 10
27.5084
 20
30.5357
 11
27.0474
 21
30.7875
  0
LINE
  8
0
 10
27.0474
 20
30.7875
 11
26.6107
 21
30.8804
  0
LINE
  8
0
 10
26.6107
 20
30.8804
 11
26.1978
 21
30.8136
  0
LINE
  8
0
 10
26.1978
 20
30.8136
 11
25.8087
 21
30.5875
  0
LINE
  8
0
 10
25.8087
 20
30.5875
 11
25.4434
 21
30.2025
  0
LINE
  8
0
 10
25.4434
 20
30.2025
 11
25.1024
 21
29.6582
  0
LINE
  8
0
 10
25.1024
 20
29.6582
 11
24.7852
 21
28.9555
  0
LINE
  8
0
 10
24.7852
 20
28.9555
 11
24.4922
 21
28.0936
  0
LINE
  8
0
 10
24.4922
 20
28.0936
 11
24.2226
 21
27.0732
  0
LINE
  8
0
 10
24.2226
 20
27.0732
 11
23.9832
 21
25.9224
  0
LINE
  8
0
 10
23.9832
 20
25.9224
 11
23.9832
 21
33.9914
  0
LINE
  8
0
 10
-6.01685
 20
33.9914
 11
-1.50604
 21
37.3354
  0
LINE
  8
0
 10
-1.50604
 20
37.3354
 11
-1.50604
 21
29.5612
  0
LINE
  8
0
 10
-1.50604
 20
29.5612
 11
-2.00775
 21
30.1242
  0
LINE
  8
0
 10
-2.00775
 20
30.1242
 11
-2.49161
 21
30.5357
  0
LINE
  8
0
 10
-2.49161
 20
30.5357
 11
-2.95258
 21
30.7875
  0
LINE
  8
0
 10
-2.95258
 20
30.7875
 11
-3.38928
 21
30.8804
  0
LINE
  8
0
 10
-3.38928
 20
30.8804
 11
-3.80219
 21
30.8136
  0
LINE
  8
0
 10
-3.80219
 20
30.8136
 11
-4.19128
 21
30.5875
  0
LINE
  8
0
 10
-4.19128
 20
30.5875
 11
-4.55658
 21
30.2025
  0
LINE
  8
0
 10
-4.55658
 20
30.2025
 11
-4.89761
 21
29.6582
  0
LINE
  8
0
 10
-4.89761
 20
29.6582
 11
-5.21484
 21
28.9555
  0
LINE
  8
0
 10
-5.21484
 20
28.9555
 11
-5.50781
 21
28.0936
  0
LINE
  8
0
 10
-5.50781
 20
28.0936
 11
-5.77744
 21
27.0732
  0
LINE
  8
0
 10
-5.77744
 20
27.0732
 11
-6.01685
 21
25.9224
  0
LINE
  8
0
 10
-6.01685
 20
25.9224
 11
-6.01685
 21
33.9914
  0
LINE
  8
0
 10
53.9832
 20
16.0086
 11
53.9832
 21
24.0781
  0
LINE
  8
0
 10
53.9832
 20
24.0781
 11
54.2226
 21
22.9272
  0
LINE
  8
0
 10
54.2226
 20
22.9272
 11
54.4922
 21
21.9069
  0
LINE
  8
0
 10
54.4922
 20
21.9069
 11
54.7852
 21
21.0449
  0
LINE
  8
0
 10
54.7852
 20
21.0449
 11
55.1024
 21
20.3418
  0
LINE
  8
0
 10
55.1024
 20
20.3418
 11
55.443
 21
19.7975
  0
LINE
  8
0
 10
55.443
 20
19.7975
 11
55.8087
 21
19.4125
  0
LINE
  8
0
 10
55.8087
 20
19.4125
 11
56.1369
 21
19.2218
  0
LINE
  8
0
 10
56.1369
 20
19.2218
 11
58.1956
 21
12.8858
  0
LINE
  8
0
 10
58.1956
 20
12.8858
 11
53.9832
 21
16.0086
  0
LINE
  8
0
 10
-6.01685
 20
16.0086
 11
-6.01685
 21
24.0781
  0
LINE
  8
0
 10
-6.01685
 20
24.0781
 11
-5.77744
 21
22.9272
  0
LINE
  8
0
 10
-5.77744
 20
22.9272
 11
-5.50781
 21
21.9069
  0
LINE
  8
0
 10
-5.50781
 20
21.9069
 11
-5.21484
 21
21.0449
  0
LINE
  8
0
 10
-5.21484
 20
21.0449
 11
-4.89761
 21
20.3418
  0
LINE
  8
0
 10
-4.89761
 20
20.3418
 11
-4.55704
 21
19.7975
  0
LINE
  8
0
 10
-4.55704
 20
19.7975
 11
-4.19128
 21
19.4125
  0
LINE
  8
0
 10
-4.19128
 20
19.4125
 11
-3.80219
 21
19.1864
  0
LINE
  8
0
 10
-3.80219
 20
19.1864
 11
-3.38928
 21
19.1196
  0
LINE
  8
0
 10
-3.38928
 20
19.1196
 11
-2.95258
 21
19.2125
  0
LINE
  8
0
 10
-2.95258
 20
19.2125
 11
-2.49161
 21
19.4643
  0
LINE
  8
0
 10
-2.49161
 20
19.4643
 11
-2.00821
 21
19.8753
  0
LINE
  8
0
 10
-2.00821
 20
19.8753
 11
-1.50604
 21
20.4388
  0
LINE
  8
0
 10
-1.50604
 20
20.4388
 11
-1.50604
 21
12.6646
  0
LINE
  8
0
 10
-1.50604
 20
12.6646
 11
-6.01685
 21
16.0086
  0
LINE
  8
0
 10
-36.0168
 20
16.0086
 11
-36.0168
 21
24.0781
  0
LINE
  8
0
 10
-36.0168
 20
24.0781
 11
-35.7774
 21
22.9272
  0
LINE
  8
0
 10
-35.7774
 20
22.9272
 11
-35.5078
 21
21.9069
  0
LINE
  8
0
 10
-35.5078
 20
21.9069
 11
-35.2148
 21
21.0449
  0
LINE
  8
0
 10
-35.2148
 20
21.0449
 11
-34.8976
 21
20.3418
  0
LINE
  8
0
 10
-34.8976
 20
20.3418
 11
-34.557
 21
19.7975
  0
LINE
  8
0
 10
-34.557
 20
19.7975
 11
-34.1913
 21
19.4125
  0
LINE
  8
0
 10
-34.1913
 20
19.4125
 11
-33.8022
 21
19.1864
  0
LINE
  8
0
 10
-33.8022
 20
19.1864
 11
-33.3893
 21
19.1196
  0
LINE
  8
0
 10
-33.3893
 20
19.1196
 11
-32.9526
 21
19.2125
  0
LINE
  8
0
 10
-32.9526
 20
19.2125
 11
-32.4916
 21
19.4643
  0
LINE
  8
0
 10
-32.4916
 20
19.4643
 11
-32.0082
 21
19.8753
  0
LINE
  8
0
 10
-32.0082
 20
19.8753
 11
-31.506
 21
20.4388
  0
LINE
  8
0
 10
-31.506
 20
20.4388
 11
-31.506
 21
12.6646
  0
LINE
  8
0
 10
-31.506
 20
12.6646
 11
-36.0168
 21
16.0086
  0
LINE
  8
0
 10
23.9832
 20
16.0086
 11
23.9832
 21
24.0781
  0
LINE
  8
0
 10
23.9832
 20
24.0781
 11
24.2226
 21
22.9272
  0
LINE
  8
0
 10
24.2226
 20
22.9272
 11
24.4922
 21
21.9069
  0
LINE
  8
0
 10
24.4922
 20
21.9069
 11
24.7852
 21
21.0449
  0
LINE
  8
0
 10
24.7852
 20
21.0449
 11
25.1024
 21
20.3418
  0
LINE
  8
0
 10
25.1024
 20
20.3418
 11
25.443
 21
19.7975
  0
LINE
  8
0
 10
25.443
 20
19.7975
 11
25.8087
 21
19.4125
  0
LINE
  8
0
 10
25.8087
 20
19.4125
 11
26.1978
 21
19.1864
  0
LINE
  8
0
 10
26.1978
 20
19.1864
 11
26.6107
 21
19.1196
  0
LINE
  8
0
 10
26.6107
 20
19.1196
 11
27.0474
 21
19.2125
  0
LINE
  8
0
 10
27.0474
 20
19.2125
 11
27.5084
 21
19.4643
  0
LINE
  8
0
 10
27.5084
 20
19.4643
 11
27.9918
 21
19.8753
  0
LINE
  8
0
 10
27.9918
 20
19.8753
 11
28.494
 21
20.4388
  0
LINE
  8
0
 10
28.494
 20
20.4388
 11
28.494
 21
12.6646
  0
LINE
  8
0
 10
28.494
 20
12.6646
 11
23.9832
 21
16.0086
  0
LINE
  8
0
 10
-49.3776
 20
12.7255
 11
-49.8409
 21
13.0638
  0
LINE
  8
0
 10
-49.8409
 20
13.0638
 11
-50.2277
 21
13.5852
  0
LINE
  8
0
 10
-50.2277
 20
13.5852
 11
-50.5389
 21
14.2915
  0
LINE
  8
0
 10
-50.5389
 20
14.2915
 11
-50.7747
 21
15.1814
  0
LINE
  8
0
 10
-50.7747
 20
15.1814
 11
-50.9335
 21
16.2549
  0
LINE
  8
0
 10
-50.9335
 20
16.2549
 11
-51.0173
 21
17.5124
  0
LINE
  8
0
 10
-51.0173
 20
17.5124
 11
-49.5355
 21
20.4755
  0
LINE
  8
0
 10
-49.5355
 20
20.4755
 11
-52.4995
 21
20.4755
  0
LINE
  8
0
 10
-52.4995
 20
20.4755
 11
-55.1086
 21
22.3867
  0
LINE
  8
0
 10
-55.1086
 20
22.3867
 11
-54.7953
 21
23.3507
  0
LINE
  8
0
 10
-54.7953
 20
23.3507
 11
-47.986
 21
23.3507
  0
LINE
  8
0
 10
-47.986
 20
23.3507
 11
-47.986
 21
17.5114
  0
LINE
  8
0
 10
-47.986
 20
17.5114
 11
-45.0046
 21
14.5534
  0
LINE
  8
0
 10
-45.0046
 20
14.5534
 11
-45.9219
 21
13.7907
  0
LINE
  8
0
 10
-45.9219
 20
13.7907
 11
-46.7651
 21
13.2103
  0
LINE
  8
0
 10
-46.7651
 20
13.2103
 11
-47.5333
 21
12.8134
  0
LINE
  8
0
 10
-47.5333
 20
12.8134
 11
-48.2236
 21
12.6006
  0
LINE
  8
0
 10
-48.2236
 20
12.6006
 11
-48.8393
 21
12.5713
  0
LINE
  8
0
 10
-48.8393
 20
12.5713
 11
-49.3776
 21
12.7255
  0
LINE
  8
0
 10
-19.3776
 20
12.7255
 11
-19.8409
 21
13.0638
  0
LINE
  8
0
 10
-19.8409
 20
13.0638
 11
-20.2277
 21
13.5852
  0
LINE
  8
0
 10
-20.2277
 20
13.5852
 11
-20.5389
 21
14.2915
  0
LINE
  8
0
 10
-20.5389
 20
14.2915
 11
-20.7747
 21
15.1814
  0
LINE
  8
0
 10
-20.7747
 20
15.1814
 11
-20.9335
 21
16.2549
  0
LINE
  8
0
 10
-20.9335
 20
16.2549
 11
-21.0173
 21
17.5124
  0
LINE
  8
0
 10
-21.0173
 20
17.5124
 11
-19.5355
 21
20.4755
  0
LINE
  8
0
 10
-19.5355
 20
20.4755
 11
-22.4995
 21
20.4755
  0
LINE
  8
0
 10
-22.4995
 20
20.4755
 11
-26.4244
 21
23.3507
  0
LINE
  8
0
 10
-26.4244
 20
23.3507
 11
-17.986
 21
23.3507
  0
LINE
  8
0
 10
-17.986
 20
23.3507
 11
-17.986
 21
17.5114
  0
LINE
  8
0
 10
-17.986
 20
17.5114
 11
-15.0046
 21
14.5534
  0
LINE
  8
0
 10
-15.0046
 20
14.5534
 11
-15.9219
 21
13.7907
  0
LINE
  8
0
 10
-15.9219
 20
13.7907
 11
-16.7651
 21
13.2103
  0
LINE
  8
0
 10
-16.7651
 20
13.2103
 11
-17.5333
 21
12.8134
  0
LINE
  8
0
 10
-17.5333
 20
12.8134
 11
-18.2236
 21
12.6006
  0
LINE
  8
0
 10
-18.2236
 20
12.6006
 11
-18.8393
 21
12.5713
  0
LINE
  8
0
 10
-18.8393
 20
12.5713
 11
-19.3776
 21
12.7255
  0
LINE
  8
0
 10
40.6224
 20
12.7255
 11
40.1591
 21
13.0638
  0
LINE
  8
0
 10
40.1591
 20
13.0638
 11
39.7723
 21
13.5852
  0
LINE
  8
0
 10
39.7723
 20
13.5852
 11
39.4611
 21
14.2915
  0
LINE
  8
0
 10
39.4611
 20
14.2915
 11
39.2253
 21
15.1814
  0
LINE
  8
0
 10
39.2253
 20
15.1814
 11
39.0665
 21
16.2549
  0
LINE
  8
0
 10
39.0665
 20
16.2549
 11
38.9827
 21
17.5124
  0
LINE
  8
0
 10
38.9827
 20
17.5124
 11
40.4645
 21
20.4755
  0
LINE
  8
0
 10
40.4645
 20
20.4755
 11
37.5005
 21
20.4755
  0
LINE
  8
0
 10
37.5005
 20
20.4755
 11
33.5756
 21
23.3507
  0
LINE
  8
0
 10
33.5756
 20
23.3507
 11
42.014
 21
23.3507
  0
LINE
  8
0
 10
42.014
 20
23.3507
 11
42.014
 21
17.5114
  0
LINE
  8
0
 10
42.014
 20
17.5114
 11
44.9954
 21
14.5534
  0
LINE
  8
0
 10
44.9954
 20
14.5534
 11
44.0781
 21
13.7907
  0
LINE
  8
0
 10
44.0781
 20
13.7907
 11
43.2349
 21
13.2103
  0
LINE
  8
0
 10
43.2349
 20
13.2103
 11
42.4667
 21
12.8134
  0
LINE
  8
0
 10
42.4667
 20
12.8134
 11
41.7764
 21
12.6006
  0
LINE
  8
0
 10
41.7764
 20
12.6006
 11
41.1607
 21
12.5713
  0
LINE
  8
0
 10
41.1607
 20
12.5713
 11
40.6224
 21
12.7255
  0
LINE
  8
0
 10
10.6224
 20
12.7255
 11
10.1591
 21
13.0638
  0
LINE
  8
0
 10
10.1591
 20
13.0638
 11
9.77234
 21
13.5852
  0
LINE
  8
0
 10
9.77234
 20
13.5852
 11
9.46106
 21
14.2915
  0
LINE
  8
0
 10
9.46106
 20
14.2915
 11
9.22531
 21
15.1814
  0
LINE
  8
0
 10
9.22531
 20
15.1814
 11
9.06647
 21
16.2549
  0
LINE
  8
0
 10
9.06647
 20
16.2549
 11
8.9827
 21
17.5124
  0
LINE
  8
0
 10
8.9827
 20
17.5124
 11
10.4645
 21
20.4755
  0
LINE
  8
0
 10
10.4645
 20
20.4755
 11
7.50046
 21
20.4755
  0
LINE
  8
0
 10
7.50046
 20
20.4755
 11
3.57559
 21
23.3507
  0
LINE
  8
0
 10
3.57559
 20
23.3507
 11
12.014
 21
23.3507
  0
LINE
  8
0
 10
12.014
 20
23.3507
 11
12.014
 21
17.5114
  0
LINE
  8
0
 10
12.014
 20
17.5114
 11
14.9954
 21
14.5534
  0
LINE
  8
0
 10
14.9954
 20
14.5534
 11
14.0781
 21
13.7907
  0
LINE
  8
0
 10
14.0781
 20
13.7907
 11
13.2349
 21
13.2103
  0
LINE
  8
0
 10
13.2349
 20
13.2103
 11
12.4667
 21
12.8134
  0
LINE
  8
0
 10
12.4667
 20
12.8134
 11
11.7764
 21
12.6006
  0
LINE
  8
0
 10
11.7764
 20
12.6006
 11
11.1607
 21
12.5713
  0
LINE
  8
0
 10
11.1607
 20
12.5713
 11
10.6224
 21
12.7255
  0
LINE
  8
0
 10
-12.014
 20
12
 11
-12.014
 21
17.4886
  0
LINE
  8
0
 10
-12.014
 20
17.4886
 11
-14.9954
 21
20.4466
  0
LINE
  8
0
 10
-14.9954
 20
20.4466
 11
-14.0781
 21
21.2093
  0
LINE
  8
0
 10
-14.0781
 20
21.2093
 11
-13.2349
 21
21.7897
  0
LINE
  8
0
 10
-13.2349
 20
21.7897
 11
-12.4667
 21
22.1866
  0
LINE
  8
0
 10
-12.4667
 20
22.1866
 11
-11.7764
 21
22.3994
  0
LINE
  8
0
 10
-11.7764
 20
22.3994
 11
-11.1607
 21
22.4287
  0
LINE
  8
0
 10
-11.1607
 20
22.4287
 11
-10.6224
 21
22.2745
  0
LINE
  8
0
 10
-10.6224
 20
22.2745
 11
-10.1591
 21
21.9362
  0
LINE
  8
0
 10
-10.1591
 20
21.9362
 11
-9.77234
 21
21.4148
  0
LINE
  8
0
 10
-9.77234
 20
21.4148
 11
-9.46106
 21
20.7085
  0
LINE
  8
0
 10
-9.46106
 20
20.7085
 11
-9.22531
 21
19.8186
  0
LINE
  8
0
 10
-9.22531
 20
19.8186
 11
-9.06647
 21
18.7451
  0
LINE
  8
0
 10
-9.06647
 20
18.7451
 11
-8.9827
 21
17.4876
  0
LINE
  8
0
 10
-8.9827
 20
17.4876
 11
-10.4645
 21
14.5245
  0
LINE
  8
0
 10
-10.4645
 20
14.5245
 11
-7.50046
 21
14.5245
  0
LINE
  8
0
 10
-7.50046
 20
14.5245
 11
-4.05429
 21
12
  0
LINE
  8
0
 10
-4.05429
 20
12
 11
-12.014
 21
12
  0
LINE
  8
0
 10
17.986
 20
12
 11
17.986
 21
17.4886
  0
LINE
  8
0
 10
17.986
 20
17.4886
 11
15.0046
 21
20.4466
  0
LINE
  8
0
 10
15.0046
 20
20.4466
 11
15.9219
 21
21.2093
  0
LINE
  8
0
 10
15.9219
 20
21.2093
 11
16.7651
 21
21.7897
  0
LINE
  8
0
 10
16.7651
 20
21.7897
 11
17.5333
 21
22.1866
  0
LINE
  8
0
 10
17.5333
 20
22.1866
 11
18.2236
 21
22.3994
  0
LINE
  8
0
 10
18.2236
 20
22.3994
 11
18.8393
 21
22.4287
  0
LINE
  8
0
 10
18.8393
 20
22.4287
 11
19.3776
 21
22.2745
  0
LINE
  8
0
 10
19.3776
 20
22.2745
 11
19.8409
 21
21.9362
  0
LINE
  8
0
 10
19.8409
 20
21.9362
 11
20.2277
 21
21.4148
  0
LINE
  8
0
 10
20.2277
 20
21.4148
 11
20.5389
 21
20.7085
  0
LINE
  8
0
 10
20.5389
 20
20.7085
 11
20.7747
 21
19.8186
  0
LINE
  8
0
 10
20.7747
 20
19.8186
 11
20.9335
 21
18.7451
  0
LINE
  8
0
 10
20.9335
 20
18.7451
 11
21.0173
 21
17.4876
  0
LINE
  8
0
 10
21.0173
 20
17.4876
 11
19.5355
 21
14.5245
  0
LINE
  8
0
 10
19.5355
 20
14.5245
 11
22.4995
 21
14.5245
  0
LINE
  8
0
 10
22.4995
 20
14.5245
 11
25.9457
 21
12
  0
LINE
  8
0
 10
25.9457
 20
12
 11
17.986
 21
12
  0
LINE
  8
0
 10
-42.014
 20
12
 11
-42.014
 21
17.4886
  0
LINE
  8
0
 10
-42.014
 20
17.4886
 11
-44.9954
 21
20.4466
  0
LINE
  8
0
 10
-44.9954
 20
20.4466
 11
-44.0781
 21
21.2093
  0
LINE
  8
0
 10
-44.0781
 20
21.2093
 11
-43.2349
 21
21.7897
  0
LINE
  8
0
 10
-43.2349
 20
21.7897
 11
-42.4667
 21
22.1866
  0
LINE
  8
0
 10
-42.4667
 20
22.1866
 11
-41.7764
 21
22.3994
  0
LINE
  8
0
 10
-41.7764
 20
22.3994
 11
-41.1607
 21
22.4287
  0
LINE
  8
0
 10
-41.1607
 20
22.4287
 11
-40.6224
 21
22.2745
  0
LINE
  8
0
 10
-40.6224
 20
22.2745
 11
-40.1591
 21
21.9362
  0
LINE
  8
0
 10
-40.1591
 20
21.9362
 11
-39.7723
 21
21.4148
  0
LINE
  8
0
 10
-39.7723
 20
21.4148
 11
-39.4611
 21
20.7085
  0
LINE
  8
0
 10
-39.4611
 20
20.7085
 11
-39.2253
 21
19.8186
  0
LINE
  8
0
 10
-39.2253
 20
19.8186
 11
-39.0665
 21
18.7451
  0
LINE
  8
0
 10
-39.0665
 20
18.7451
 11
-38.9827
 21
17.4876
  0
LINE
  8
0
 10
-38.9827
 20
17.4876
 11
-40.4645
 21
14.5245
  0
LINE
  8
0
 10
-40.4645
 20
14.5245
 11
-37.5005
 21
14.5245
  0
LINE
  8
0
 10
-37.5005
 20
14.5245
 11
-34.0543
 21
12
  0
LINE
  8
0
 10
-34.0543
 20
12
 11
-42.014
 21
12
  0
LINE
  8
0
 10
47.986
 20
12
 11
47.986
 21
17.4886
  0
LINE
  8
0
 10
47.986
 20
17.4886
 11
45.0046
 21
20.4466
  0
LINE
  8
0
 10
45.0046
 20
20.4466
 11
45.9219
 21
21.2093
  0
LINE
  8
0
 10
45.9219
 20
21.2093
 11
46.7651
 21
21.7897
  0
LINE
  8
0
 10
46.7651
 20
21.7897
 11
47.5333
 21
22.1866
  0
LINE
  8
0
 10
47.5333
 20
22.1866
 11
48.2236
 21
22.3994
  0
LINE
  8
0
 10
48.2236
 20
22.3994
 11
48.8393
 21
22.4287
  0
LINE
  8
0
 10
48.8393
 20
22.4287
 11
49.3776
 21
22.2745
  0
LINE
  8
0
 10
49.3776
 20
22.2745
 11
49.8409
 21
21.9362
  0
LINE
  8
0
 10
49.8409
 20
21.9362
 11
50.2277
 21
21.4148
  0
LINE
  8
0
 10
50.2277
 20
21.4148
 11
50.5389
 21
20.7085
  0
LINE
  8
0
 10
50.5389
 20
20.7085
 11
50.7747
 21
19.8186
  0
LINE
  8
0
 10
50.7747
 20
19.8186
 11
50.9335
 21
18.7451
  0
LINE
  8
0
 10
50.9335
 20
18.7451
 11
51.0173
 21
17.4876
  0
LINE
  8
0
 10
51.0173
 20
17.4876
 11
49.5355
 21
14.5245
  0
LINE
  8
0
 10
49.5355
 20
14.5245
 11
52.4995
 21
14.5245
  0
LINE
  8
0
 10
52.4995
 20
14.5245
 11
55.9457
 21
12
  0
LINE
  8
0
 10
55.9457
 20
12
 11
47.986
 21
12
  0
LINE
  8
0
 10
5.79257
 20
12
 11
5.77744
 21
12.0728
  0
LINE
  8
0
 10
5.77744
 20
12.0728
 11
5.50781
 21
13.0931
  0
LINE
  8
0
 10
5.50781
 20
13.0931
 11
5.21484
 21
13.9551
  0
LINE
  8
0
 10
5.21484
 20
13.9551
 11
4.89761
 21
14.6582
  0
LINE
  8
0
 10
4.89761
 20
14.6582
 11
4.55704
 21
15.2025
  0
LINE
  8
0
 10
4.55704
 20
15.2025
 11
4.19128
 21
15.5875
  0
LINE
  8
0
 10
4.19128
 20
15.5875
 11
3.80219
 21
15.8136
  0
LINE
  8
0
 10
3.80219
 20
15.8136
 11
3.38928
 21
15.8804
  0
LINE
  8
0
 10
3.38928
 20
15.8804
 11
2.95258
 21
15.7875
  0
LINE
  8
0
 10
2.95258
 20
15.7875
 11
2.49161
 21
15.5357
  0
LINE
  8
0
 10
2.49161
 20
15.5357
 11
2.00821
 21
15.1247
  0
LINE
  8
0
 10
2.00821
 20
15.1247
 11
1.50604
 21
14.5612
  0
LINE
  8
0
 10
1.50604
 20
14.5612
 11
1.50604
 21
22.3354
  0
LINE
  8
0
 10
1.50604
 20
22.3354
 11
6.01685
 21
18.9914
  0
LINE
  8
0
 10
6.01685
 20
18.9914
 11
6.01685
 21
12
  0
LINE
  8
0
 10
6.01685
 20
12
 11
5.79257
 21
12
  0
LINE
  8
0
 10
-24.2074
 20
12
 11
-24.2226
 21
12.0728
  0
LINE
  8
0
 10
-24.2226
 20
12.0728
 11
-24.4922
 21
13.0931
  0
LINE
  8
0
 10
-24.4922
 20
13.0931
 11
-24.7852
 21
13.9551
  0
LINE
  8
0
 10
-24.7852
 20
13.9551
 11
-25.1024
 21
14.6582
  0
LINE
  8
0
 10
-25.1024
 20
14.6582
 11
-25.443
 21
15.2025
  0
LINE
  8
0
 10
-25.443
 20
15.2025
 11
-25.8087
 21
15.5875
  0
LINE
  8
0
 10
-25.8087
 20
15.5875
 11
-26.1978
 21
15.8136
  0
LINE
  8
0
 10
-26.1978
 20
15.8136
 11
-26.6107
 21
15.8804
  0
LINE
  8
0
 10
-26.6107
 20
15.8804
 11
-27.0474
 21
15.7875
  0
LINE
  8
0
 10
-27.0474
 20
15.7875
 11
-27.5084
 21
15.5357
  0
LINE
  8
0
 10
-27.5084
 20
15.5357
 11
-27.9918
 21
15.1247
  0
LINE
  8
0
 10
-27.9918
 20
15.1247
 11
-28.494
 21
14.5612
  0
LINE
  8
0
 10
-28.494
 20
14.5612
 11
-28.494
 21
22.3354
  0
LINE
  8
0
 10
-28.494
 20
22.3354
 11
-23.9832
 21
18.9914
  0
LINE
  8
0
 10
-23.9832
 20
18.9914
 11
-23.9832
 21
12
  0
LINE
  8
0
 10
-23.9832
 20
12
 11
-24.2074
 21
12
  0
LINE
  8
0
 10
35.7926
 20
12
 11
35.7774
 21
12.0728
  0
LINE
  8
0
 10
35.7774
 20
12.0728
 11
35.5078
 21
13.0931
  0
LINE
  8
0
 10
35.5078
 20
13.0931
 11
35.2148
 21
13.9551
  0
LINE
  8
0
 10
35.2148
 20
13.9551
 11
34.8976
 21
14.6582
  0
LINE
  8
0
 10
34.8976
 20
14.6582
 11
34.557
 21
15.2025
  0
LINE
  8
0
 10
34.557
 20
15.2025
 11
34.1913
 21
15.5875
  0
LINE
  8
0
 10
34.1913
 20
15.5875
 11
33.8022
 21
15.8136
  0
LINE
  8
0
 10
33.8022
 20
15.8136
 11
33.3893
 21
15.8804
  0
LINE
  8
0
 10
33.3893
 20
15.8804
 11
32.9526
 21
15.7875
  0
LINE
  8
0
 10
32.9526
 20
15.7875
 11
32.4916
 21
15.5357
  0
LINE
  8
0
 10
32.4916
 20
15.5357
 11
32.0082
 21
15.1247
  0
LINE
  8
0
 10
32.0082
 20
15.1247
 11
31.506
 21
14.5612
  0
LINE
  8
0
 10
31.506
 20
14.5612
 11
31.506
 21
22.3354
  0
LINE
  8
0
 10
31.506
 20
22.3354
 11
36.0168
 21
18.9914
  0
LINE
  8
0
 10
36.0168
 20
18.9914
 11
36.0168
 21
12
  0
LINE
  8
0
 10
36.0168
 20
12
 11
35.7926
 21
12
  0
LINE
  8
0
 10
-54.2074
 20
12
 11
-54.2226
 21
12.0728
  0
LINE
  8
0
 10
-54.2226
 20
12.0728
 11
-54.4922
 21
13.0931
  0
LINE
  8
0
 10
-54.4922
 20
13.0931
 11
-54.7852
 21
13.9551
  0
LINE
  8
0
 10
-54.7852
 20
13.9551
 11
-55.1024
 21
14.6582
  0
LINE
  8
0
 10
-55.1024
 20
14.6582
 11
-55.443
 21
15.2025
  0
LINE
  8
0
 10
-55.443
 20
15.2025
 11
-55.8087
 21
15.5875
  0
LINE
  8
0
 10
-55.8087
 20
15.5875
 11
-56.1978
 21
15.8136
  0
LINE
  8
0
 10
-56.1978
 20
15.8136
 11
-56.6107
 21
15.8804
  0
LINE
  8
0
 10
-56.6107
 20
15.8804
 11
-57.0474
 21
15.7875
  0
LINE
  8
0
 10
-57.0474
 20
15.7875
 11
-57.2971
 21
15.6512
  0
LINE
  8
0
 10
-57.2971
 20
15.6512
 11
-55.7792
 21
20.3228
  0
LINE
  8
0
 10
-55.7792
 20
20.3228
 11
-53.9832
 21
18.9914
  0
LINE
  8
0
 10
-53.9832
 20
18.9914
 11
-53.9832
 21
12
  0
LINE
  8
0
 10
-53.9832
 20
12
 11
-54.2074
 21
12
  0
LINE
  8
0
 10
-10
 20
7
 11
-10
 21
11
  0
LINE
  8
0
 10
-10
 20
11
 11
10
 21
11
  0
LINE
  8
0
 10
10
 20
11
 11
10
 21
7
  0
LINE
  8
0
 10
10
 20
7
 11
-10
 21
7
  0
LINE
  8
0
 10
-68.6534
 20
2.70622
 11
-68.7785
 21
2.71805
  0
LINE
  8
0
 10
-68.7785
 20
2.71805
 11
-68.9026
 21
2.7377
  0
LINE
  8
0
 10
-68.9026
 20
2.7377
 11
-69.0252
 21
2.76511
  0
LINE
  8
0
 10
-69.0252
 20
2.76511
 11
-69.1459
 21
2.80016
  0
LINE
  8
0
 10
-69.1459
 20
2.80016
 11
-69.2641
 21
2.84273
  0
LINE
  8
0
 10
-69.2641
 20
2.84273
 11
-69.3794
 21
2.89262
  0
LINE
  8
0
 10
-69.3794
 20
2.89262
 11
-69.4914
 21
2.94966
  0
LINE
  8
0
 10
-69.4914
 20
2.94966
 11
-69.5995
 21
3.01363
  0
LINE
  8
0
 10
-69.5995
 20
3.01363
 11
-69.7034
 21
3.08424
  0
LINE
  8
0
 10
-69.7034
 20
3.08424
 11
-69.8027
 21
3.16125
  0
LINE
  8
0
 10
-69.8027
 20
3.16125
 11
-69.897
 21
3.24434
  0
LINE
  8
0
 10
-69.897
 20
3.24434
 11
-69.9858
 21
3.33318
  0
LINE
  8
0
 10
-69.9858
 20
3.33318
 11
-70.0689
 21
3.42743
  0
LINE
  8
0
 10
-70.0689
 20
3.42743
 11
-70.1459
 21
3.5267
  0
LINE
  8
0
 10
-70.1459
 20
3.5267
 11
-70.2165
 21
3.63062
  0
LINE
  8
0
 10
-70.2165
 20
3.63062
 11
-70.2805
 21
3.73877
  0
LINE
  8
0
 10
-70.2805
 20
3.73877
 11
-70.3375
 21
3.85072
  0
LINE
  8
0
 10
-70.3375
 20
3.85072
 11
-70.3874
 21
3.96602
  0
LINE
  8
0
 10
-70.3874
 20
3.96602
 11
-70.43
 21
4.08424
  0
LINE
  8
0
 10
-70.43
 20
4.08424
 11
-70.465
 21
4.2049
  0
LINE
  8
0
 10
-70.465
 20
4.2049
 11
-70.4924
 21
4.32751
  0
LINE
  8
0
 10
-70.4924
 20
4.32751
 11
-70.5121
 21
4.45161
  0
LINE
  8
0
 10
-70.5121
 20
4.45161
 11
-70.5239
 21
4.57669
  0
LINE
  8
0
 10
-70.5239
 20
4.57669
 11
-70.5279
 21
4.70227
  0
LINE
  8
0
 10
-70.5279
 20
4.70227
 11
-70.5239
 21
4.82785
  0
LINE
  8
0
 10
-70.5239
 20
4.82785
 11
-70.5121
 21
4.95294
  0
LINE
  8
0
 10
-70.5121
 20
4.95294
 11
-70.4924
 21
5.07704
  0
LINE
  8
0
 10
-70.4924
 20
5.07704
 11
-70.465
 21
5.19966
  0
LINE
  8
0
 10
-70.465
 20
5.19966
 11
-70.43
 21
5.32031
  0
LINE
  8
0
 10
-70.43
 20
5.32031
 11
-70.3874
 21
5.43852
  0
LINE
  8
0
 10
-70.3874
 20
5.43852
 11
-70.3375
 21
5.55383
  0
LINE
  8
0
 10
-70.3375
 20
5.55383
 11
-70.2805
 21
5.66579
  0
LINE
  8
0
 10
-70.2805
 20
5.66579
 11
-70.2165
 21
5.77393
  0
LINE
  8
0
 10
-70.2165
 20
5.77393
 11
-70.1459
 21
5.87784
  0
LINE
  8
0
 10
-70.1459
 20
5.87784
 11
-70.0689
 21
5.97713
  0
LINE
  8
0
 10
-70.0689
 20
5.97713
 11
-69.9858
 21
6.07137
  0
LINE
  8
0
 10
-69.9858
 20
6.07137
 11
-69.897
 21
6.16022
  0
LINE
  8
0
 10
-69.897
 20
6.16022
 11
-69.8027
 21
6.2433
  0
LINE
  8
0
 10
-69.8027
 20
6.2433
 11
-69.7034
 21
6.32031
  0
LINE
  8
0
 10
-69.7034
 20
6.32031
 11
-69.5995
 21
6.39093
  0
LINE
  8
0
 10
-69.5995
 20
6.39093
 11
-69.4914
 21
6.4549
  0
LINE
  8
0
 10
-69.4914
 20
6.4549
 11
-69.3794
 21
6.51193
  0
LINE
  8
0
 10
-69.3794
 20
6.51193
 11
-69.2641
 21
6.56183
  0
LINE
  8
0
 10
-69.2641
 20
6.56183
 11
-69.1459
 21
6.60439
  0
LINE
  8
0
 10
-69.1459
 20
6.60439
 11
-69.0252
 21
6.63943
  0
LINE
  8
0
 10
-69.0252
 20
6.63943
 11
-68.9026
 21
6.66685
  0
LINE
  8
0
 10
-68.9026
 20
6.66685
 11
-68.7785
 21
6.68651
  0
LINE
  8
0
 10
-68.7785
 20
6.68651
 11
-68.6534
 21
6.69833
  0
LINE
  8
0
 10
-68.6534
 20
6.69833
 11
-68.5279
 21
6.70227
  0
LINE
  8
0
 10
-68.5279
 20
6.70227
 11
-68.4023
 21
6.69833
  0
LINE
  8
0
 10
-68.4023
 20
6.69833
 11
-68.2772
 21
6.68651
  0
LINE
  8
0
 10
-68.2772
 20
6.68651
 11
-68.1531
 21
6.66685
  0
LINE
  8
0
 10
-68.1531
 20
6.66685
 11
-68.0305
 21
6.63943
  0
LINE
  8
0
 10
-68.0305
 20
6.63943
 11
-67.9098
 21
6.60439
  0
LINE
  8
0
 10
-67.9098
 20
6.60439
 11
-67.7916
 21
6.56183
  0
LINE
  8
0
 10
-67.7916
 20
6.56183
 11
-67.6763
 21
6.51193
  0
LINE
  8
0
 10
-67.6763
 20
6.51193
 11
-67.5643
 21
6.4549
  0
LINE
  8
0
 10
-67.5643
 20
6.4549
 11
-67.4562
 21
6.39093
  0
LINE
  8
0
 10
-67.4562
 20
6.39093
 11
-67.3523
 21
6.32031
  0
LINE
  8
0
 10
-67.3523
 20
6.32031
 11
-67.253
 21
6.2433
  0
LINE
  8
0
 10
-67.253
 20
6.2433
 11
-67.1588
 21
6.16022
  0
LINE
  8
0
 10
-67.1588
 20
6.16022
 11
-67.0699
 21
6.07137
  0
LINE
  8
0
 10
-67.0699
 20
6.07137
 11
-66.9868
 21
5.97713
  0
LINE
  8
0
 10
-66.9868
 20
5.97713
 11
-66.9098
 21
5.87784
  0
LINE
  8
0
 10
-66.9098
 20
5.87784
 11
-66.8392
 21
5.77393
  0
LINE
  8
0
 10
-66.8392
 20
5.77393
 11
-66.7752
 21
5.66579
  0
LINE
  8
0
 10
-66.7752
 20
5.66579
 11
-66.7182
 21
5.55383
  0
LINE
  8
0
 10
-66.7182
 20
5.55383
 11
-66.6683
 21
5.43852
  0
LINE
  8
0
 10
-66.6683
 20
5.43852
 11
-66.6257
 21
5.32031
  0
LINE
  8
0
 10
-66.6257
 20
5.32031
 11
-66.5907
 21
5.19966
  0
LINE
  8
0
 10
-66.5907
 20
5.19966
 11
-66.5633
 21
5.07704
  0
LINE
  8
0
 10
-66.5633
 20
5.07704
 11
-66.5436
 21
4.95294
  0
LINE
  8
0
 10
-66.5436
 20
4.95294
 11
-66.5318
 21
4.82785
  0
LINE
  8
0
 10
-66.5318
 20
4.82785
 11
-66.5279
 21
4.70227
  0
LINE
  8
0
 10
-66.5279
 20
4.70227
 11
-66.5318
 21
4.57669
  0
LINE
  8
0
 10
-66.5318
 20
4.57669
 11
-66.5436
 21
4.45161
  0
LINE
  8
0
 10
-66.5436
 20
4.45161
 11
-66.5633
 21
4.32751
  0
LINE
  8
0
 10
-66.5633
 20
4.32751
 11
-66.5907
 21
4.2049
  0
LINE
  8
0
 10
-66.5907
 20
4.2049
 11
-66.6257
 21
4.08424
  0
LINE
  8
0
 10
-66.6257
 20
4.08424
 11
-66.6683
 21
3.96602
  0
LINE
  8
0
 10
-66.6683
 20
3.96602
 11
-66.7182
 21
3.85072
  0
LINE
  8
0
 10
-66.7182
 20
3.85072
 11
-66.7752
 21
3.73877
  0
LINE
  8
0
 10
-66.7752
 20
3.73877
 11
-66.8392
 21
3.63062
  0
LINE
  8
0
 10
-66.8392
 20
3.63062
 11
-66.9098
 21
3.5267
  0
LINE
  8
0
 10
-66.9098
 20
3.5267
 11
-66.9868
 21
3.42743
  0
LINE
  8
0
 10
-66.9868
 20
3.42743
 11
-67.0699
 21
3.33318
  0
LINE
  8
0
 10
-67.0699
 20
3.33318
 11
-67.1588
 21
3.24434
  0
LINE
  8
0
 10
-67.1588
 20
3.24434
 11
-67.253
 21
3.16125
  0
LINE
  8
0
 10
-67.253
 20
3.16125
 11
-67.3523
 21
3.08424
  0
LINE
  8
0
 10
-67.3523
 20
3.08424
 11
-67.4562
 21
3.01363
  0
LINE
  8
0
 10
-67.4562
 20
3.01363
 11
-67.5643
 21
2.94966
  0
LINE
  8
0
 10
-67.5643
 20
2.94966
 11
-67.6763
 21
2.89262
  0
LINE
  8
0
 10
-67.6763
 20
2.89262
 11
-67.7916
 21
2.84273
  0
LINE
  8
0
 10
-67.7916
 20
2.84273
 11
-67.9098
 21
2.80016
  0
LINE
  8
0
 10
-67.9098
 20
2.80016
 11
-68.0305
 21
2.76511
  0
LINE
  8
0
 10
-68.0305
 20
2.76511
 11
-68.1531
 21
2.7377
  0
LINE
  8
0
 10
-68.1531
 20
2.7377
 11
-68.2772
 21
2.71805
  0
LINE
  8
0
 10
-68.2772
 20
2.71805
 11
-68.4023
 21
2.70622
  0
LINE
  8
0
 10
-68.4023
 20
2.70622
 11
-68.5279
 21
2.70227
  0
LINE
  8
0
 10
-68.5279
 20
2.70227
 11
-68.6534
 21
2.70622
  0
LINE
  8
0
 10
68.4023
 20
2.70622
 11
68.2772
 21
2.71805
  0
LINE
  8
0
 10
68.2772
 20
2.71805
 11
68.1531
 21
2.7377
  0
LINE
  8
0
 10
68.1531
 20
2.7377
 11
68.0305
 21
2.76511
  0
LINE
  8
0
 10
68.0305
 20
2.76511
 11
67.9098
 21
2.80016
  0
LINE
  8
0
 10
67.9098
 20
2.80016
 11
67.7916
 21
2.84273
  0
LINE
  8
0
 10
67.7916
 20
2.84273
 11
67.6763
 21
2.89262
  0
LINE
  8
0
 10
67.6763
 20
2.89262
 11
67.5643
 21
2.94966
  0
LINE
  8
0
 10
67.5643
 20
2.94966
 11
67.4562
 21
3.01363
  0
LINE
  8
0
 10
67.4562
 20
3.01363
 11
67.3523
 21
3.08424
  0
LINE
  8
0
 10
67.3523
 20
3.08424
 11
67.253
 21
3.16125
  0
LINE
  8
0
 10
67.253
 20
3.16125
 11
67.1588
 21
3.24434
  0
LINE
  8
0
 10
67.1588
 20
3.24434
 11
67.0699
 21
3.33318
  0
LINE
  8
0
 10
67.0699
 20
3.33318
 11
66.9868
 21
3.42743
  0
LINE
  8
0
 10
66.9868
 20
3.42743
 11
66.9098
 21
3.5267
  0
LINE
  8
0
 10
66.9098
 20
3.5267
 11
66.8392
 21
3.63062
  0
LINE
  8
0
 10
66.8392
 20
3.63062
 11
66.7752
 21
3.73877
  0
LINE
  8
0
 10
66.7752
 20
3.73877
 11
66.7182
 21
3.85072
  0
LINE
  8
0
 10
66.7182
 20
3.85072
 11
66.6683
 21
3.96602
  0
LINE
  8
0
 10
66.6683
 20
3.96602
 11
66.6257
 21
4.08424
  0
LINE
  8
0
 10
66.6257
 20
4.08424
 11
66.5907
 21
4.2049
  0
LINE
  8
0
 10
66.5907
 20
4.2049
 11
66.5633
 21
4.32751
  0
LINE
  8
0
 10
66.5633
 20
4.32751
 11
66.5436
 21
4.45161
  0
LINE
  8
0
 10
66.5436
 20
4.45161
 11
66.5318
 21
4.57669
  0
LINE
  8
0
 10
66.5318
 20
4.57669
 11
66.5279
 21
4.70227
  0
LINE
  8
0
 10
66.5279
 20
4.70227
 11
66.5318
 21
4.82785
  0
LINE
  8
0
 10
66.5318
 20
4.82785
 11
66.5436
 21
4.95294
  0
LINE
  8
0
 10
66.5436
 20
4.95294
 11
66.5633
 21
5.07704
  0
LINE
  8
0
 10
66.5633
 20
5.07704
 11
66.5907
 21
5.19966
  0
LINE
  8
0
 10
66.5907
 20
5.19966
 11
66.6257
 21
5.32031
  0
LINE
  8
0
 10
66.6257
 20
5.32031
 11
66.6683
 21
5.43852
  0
LINE
  8
0
 10
66.6683
 20
5.43852
 11
66.7182
 21
5.55383
  0
LINE
  8
0
 10
66.7182
 20
5.55383
 11
66.7752
 21
5.66579
  0
LINE
  8
0
 10
66.7752
 20
5.66579
 11
66.8392
 21
5.77393
  0
LINE
  8
0
 10
66.8392
 20
5.77393
 11
66.9098
 21
5.87784
  0
LINE
  8
0
 10
66.9098
 20
5.87784
 11
66.9868
 21
5.97713
  0
LINE
  8
0
 10
66.9868
 20
5.97713
 11
67.0699
 21
6.07137
  0
LINE
  8
0
 10
67.0699
 20
6.07137
 11
67.1588
 21
6.16022
  0
LINE
  8
0
 10
67.1588
 20
6.16022
 11
67.253
 21
6.2433
  0
LINE
  8
0
 10
67.253
 20
6.2433
 11
67.3523
 21
6.32031
  0
LINE
  8
0
 10
67.3523
 20
6.32031
 11
67.4562
 21
6.39093
  0
LINE
  8
0
 10
67.4562
 20
6.39093
 11
67.5643
 21
6.4549
  0
LINE
  8
0
 10
67.5643
 20
6.4549
 11
67.6763
 21
6.51193
  0
LINE
  8
0
 10
67.6763
 20
6.51193
 11
67.7916
 21
6.56183
  0
LINE
  8
0
 10
67.7916
 20
6.56183
 11
67.9098
 21
6.60439
  0
LINE
  8
0
 10
67.9098
 20
6.60439
 11
68.0305
 21
6.63943
  0
LINE
  8
0
 10
68.0305
 20
6.63943
 11
68.1531
 21
6.66685
  0
LINE
  8
0
 10
68.1531
 20
6.66685
 11
68.2772
 21
6.68651
  0
LINE
  8
0
 10
68.2772
 20
6.68651
 11
68.4023
 21
6.69833
  0
LINE
  8
0
 10
68.4023
 20
6.69833
 11
68.5279
 21
6.70227
  0
LINE
  8
0
 10
68.5279
 20
6.70227
 11
68.6534
 21
6.69833
  0
LINE
  8
0
 10
68.6534
 20
6.69833
 11
68.7785
 21
6.68651
  0
LINE
  8
0
 10
68.7785
 20
6.68651
 11
68.9026
 21
6.66685
  0
LINE
  8
0
 10
68.9026
 20
6.66685
 11
69.0252
 21
6.63943
  0
LINE
  8
0
 10
69.0252
 20
6.63943
 11
69.1459
 21
6.60439
  0
LINE
  8
0
 10
69.1459
 20
6.60439
 11
69.2641
 21
6.56183
  0
LINE
  8
0
 10
69.2641
 20
6.56183
 11
69.3794
 21
6.51193
  0
LINE
  8
0
 10
69.3794
 20
6.51193
 11
69.4914
 21
6.4549
  0
LINE
  8
0
 10
69.4914
 20
6.4549
 11
69.5995
 21
6.39093
  0
LINE
  8
0
 10
69.5995
 20
6.39093
 11
69.7034
 21
6.32031
  0
LINE
  8
0
 10
69.7034
 20
6.32031
 11
69.8027
 21
6.2433
  0
LINE
  8
0
 10
69.8027
 20
6.2433
 11
69.897
 21
6.16022
  0
LINE
  8
0
 10
69.897
 20
6.16022
 11
69.9858
 21
6.07137
  0
LINE
  8
0
 10
69.9858
 20
6.07137
 11
70.0689
 21
5.97713
  0
LINE
  8
0
 10
70.0689
 20
5.97713
 11
70.1459
 21
5.87784
  0
LINE
  8
0
 10
70.1459
 20
5.87784
 11
70.2165
 21
5.77393
  0
LINE
  8
0
 10
70.2165
 20
5.77393
 11
70.2805
 21
5.66579
  0
LINE
  8
0
 10
70.2805
 20
5.66579
 11
70.3375
 21
5.55383
  0
LINE
  8
0
 10
70.3375
 20
5.55383
 11
70.3874
 21
5.43852
  0
LINE
  8
0
 10
70.3874
 20
5.43852
 11
70.43
 21
5.32031
  0
LINE
  8
0
 10
70.43
 20
5.32031
 11
70.465
 21
5.19966
  0
LINE
  8
0
 10
70.465
 20
5.19966
 11
70.4924
 21
5.07704
  0
LINE
  8
0
 10
70.4924
 20
5.07704
 11
70.5121
 21
4.95294
  0
LINE
  8
0
 10
70.5121
 20
4.95294
 11
70.5239
 21
4.82785
  0
LINE
  8
0
 10
70.5239
 20
4.82785
 11
70.5279
 21
4.70227
  0
LINE
  8
0
 10
70.5279
 20
4.70227
 11
70.5239
 21
4.57669
  0
LINE
  8
0
 10
70.5239
 20
4.57669
 11
70.5121
 21
4.45161
  0
LINE
  8
0
 10
70.5121
 20
4.45161
 11
70.4924
 21
4.32751
  0
LINE
  8
0
 10
70.4924
 20
4.32751
 11
70.465
 21
4.2049
  0
LINE
  8
0
 10
70.465
 20
4.2049
 11
70.43
 21
4.08424
  0
LINE
  8
0
 10
70.43
 20
4.08424
 11
70.3874
 21
3.96602
  0
LINE
  8
0
 10
70.3874
 20
3.96602
 11
70.3375
 21
3.85072
  0
LINE
  8
0
 10
70.3375
 20
3.85072
 11
70.2805
 21
3.73877
  0
LINE
  8
0
 10
70.2805
 20
3.73877
 11
70.2165
 21
3.63062
  0
LINE
  8
0
 10
70.2165
 20
3.63062
 11
70.1459
 21
3.5267
  0
LINE
  8
0
 10
70.1459
 20
3.5267
 11
70.0689
 21
3.42743
  0
LINE
  8
0
 10
70.0689
 20
3.42743
 11
69.9858
 21
3.33318
  0
LINE
  8
0
 10
69.9858
 20
3.33318
 11
69.897
 21
3.24434
  0
LINE
  8
0
 10
69.897
 20
3.24434
 11
69.8027
 21
3.16125
  0
LINE
  8
0
 10
69.8027
 20
3.16125
 11
69.7034
 21
3.08424
  0
LINE
  8
0
 10
69.7034
 20
3.08424
 11
69.5995
 21
3.01363
  0
LINE
  8
0
 10
69.5995
 20
3.01363
 11
69.4914
 21
2.94966
  0
LINE
  8
0
 10
69.4914
 20
2.94966
 11
69.3794
 21
2.89262
  0
LINE
  8
0
 10
69.3794
 20
2.89262
 11
69.2641
 21
2.84273
  0
LINE
  8
0
 10
69.2641
 20
2.84273
 11
69.1459
 21
2.80016
  0
LINE
  8
0
 10
69.1459
 20
2.80016
 11
69.0252
 21
2.76511
  0
LINE
  8
0
 10
69.0252
 20
2.76511
 11
68.9026
 21
2.7377
  0
LINE
  8
0
 10
68.9026
 20
2.7377
 11
68.7785
 21
2.71805
  0
LINE
  8
0
 10
68.7785
 20
2.71805
 11
68.6534
 21
2.70622
  0
LINE
  8
0
 10
68.6534
 20
2.70622
 11
68.5279
 21
2.70227
  0
LINE
  8
0
 10
68.5279
 20
2.70227
 11
68.4023
 21
2.70622
  0
ENDSEC
  0
SECTION
  2
OBJECTS
  0
DICTIONARY
  0
ENDSEC
  0
EOF
