  0
SECTION
  2
BLOCKS
  0
ENDSEC
  0
SECTION
  2
ENTITIES
  0
LINE
  8
0
 10
0
 20
230.826
 11
-75
 21
0
  0
LINE
  8
0
 10
-75
 20
0
 11
75
 21
0
  0
LINE
  8
0
 10
75
 20
0
 11
0
 21
230.826
  0
LINE
  8
0
 10
-0.12558
 20
212.83
 11
-0.250656
 21
212.842
  0
LINE
  8
0
 10
-0.250656
 20
212.842
 11
-0.374756
 21
212.862
  0
LINE
  8
0
 10
-0.374756
 20
212.862
 11
-0.497375
 21
212.889
  0
LINE
  8
0
 10
-0.497375
 20
212.889
 11
-0.618027
 21
212.924
  0
LINE
  8
0
 10
-0.618027
 20
212.924
 11
-0.736237
 21
212.967
  0
LINE
  8
0
 10
-0.736237
 20
212.967
 11
-0.851547
 21
213.017
  0
LINE
  8
0
 10
-0.851547
 20
213.017
 11
-0.963501
 21
213.074
  0
LINE
  8
0
 10
-0.963501
 20
213.074
 11
-1.07164
 21
213.138
  0
LINE
  8
0
 10
-1.07164
 20
213.138
 11
-1.17557
 21
213.208
  0
LINE
  8
0
 10
-1.17557
 20
213.208
 11
-1.27484
 21
213.285
  0
LINE
  8
0
 10
-1.27484
 20
213.285
 11
-1.36908
 21
213.368
  0
LINE
  8
0
 10
-1.36908
 20
213.368
 11
-1.45793
 21
213.457
  0
LINE
  8
0
 10
-1.45793
 20
213.457
 11
-1.54102
 21
213.551
  0
LINE
  8
0
 10
-1.54102
 20
213.551
 11
-1.61803
 21
213.651
  0
LINE
  8
0
 10
-1.61803
 20
213.651
 11
-1.68864
 21
213.755
  0
LINE
  8
0
 10
-1.68864
 20
213.755
 11
-1.75261
 21
213.863
  0
LINE
  8
0
 10
-1.75261
 20
213.863
 11
-1.80965
 21
213.975
  0
LINE
  8
0
 10
-1.80965
 20
213.975
 11
-1.85954
 21
214.09
  0
LINE
  8
0
 10
-1.85954
 20
214.09
 11
-1.9021
 21
214.208
  0
LINE
  8
0
 10
-1.9021
 20
214.208
 11
-1.93716
 21
214.329
  0
LINE
  8
0
 10
-1.93716
 20
214.329
 11
-1.96457
 21
214.451
  0
LINE
  8
0
 10
-1.96457
 20
214.451
 11
-1.98422
 21
214.576
  0
LINE
  8
0
 10
-1.98422
 20
214.576
 11
-1.99605
 21
214.701
  0
LINE
  8
0
 10
-1.99605
 20
214.701
 11
-2
 21
214.826
  0
LINE
  8
0
 10
-2
 20
214.826
 11
-1.99605
 21
214.952
  0
LINE
  8
0
 10
-1.99605
 20
214.952
 11
-1.98422
 21
215.077
  0
LINE
  8
0
 10
-1.98422
 20
215.077
 11
-1.96457
 21
215.201
  0
LINE
  8
0
 10
-1.96457
 20
215.201
 11
-1.93716
 21
215.324
  0
LINE
  8
0
 10
-1.93716
 20
215.324
 11
-1.9021
 21
215.444
  0
LINE
  8
0
 10
-1.9021
 20
215.444
 11
-1.85954
 21
215.562
  0
LINE
  8
0
 10
-1.85954
 20
215.562
 11
-1.80965
 21
215.678
  0
LINE
  8
0
 10
-1.80965
 20
215.678
 11
-1.75261
 21
215.79
  0
LINE
  8
0
 10
-1.75261
 20
215.79
 11
-1.68864
 21
215.898
  0
LINE
  8
0
 10
-1.68864
 20
215.898
 11
-1.61803
 21
216.002
  0
LINE
  8
0
 10
-1.61803
 20
216.002
 11
-1.54102
 21
216.101
  0
LINE
  8
0
 10
-1.54102
 20
216.101
 11
-1.45793
 21
216.195
  0
LINE
  8
0
 10
-1.45793
 20
216.195
 11
-1.36908
 21
216.284
  0
LINE
  8
0
 10
-1.36908
 20
216.284
 11
-1.27484
 21
216.367
  0
LINE
  8
0
 10
-1.27484
 20
216.367
 11
-1.17557
 21
216.444
  0
LINE
  8
0
 10
-1.17557
 20
216.444
 11
-1.07164
 21
216.515
  0
LINE
  8
0
 10
-1.07164
 20
216.515
 11
-0.963501
 21
216.579
  0
LINE
  8
0
 10
-0.963501
 20
216.579
 11
-0.851547
 21
216.636
  0
LINE
  8
0
 10
-0.851547
 20
216.636
 11
-0.736237
 21
216.686
  0
LINE
  8
0
 10
-0.736237
 20
216.686
 11
-0.618027
 21
216.728
  0
LINE
  8
0
 10
-0.618027
 20
216.728
 11
-0.497375
 21
216.763
  0
LINE
  8
0
 10
-0.497375
 20
216.763
 11
-0.374756
 21
216.791
  0
LINE
  8
0
 10
-0.374756
 20
216.791
 11
-0.250656
 21
216.81
  0
LINE
  8
0
 10
-0.250656
 20
216.81
 11
-0.12558
 21
216.822
  0
LINE
  8
0
 10
-0.12558
 20
216.822
 11
0
 21
216.826
  0
LINE
  8
0
 10
0
 20
216.826
 11
0.12558
 21
216.822
  0
LINE
  8
0
 10
0.12558
 20
216.822
 11
0.250656
 21
216.81
  0
LINE
  8
0
 10
0.250656
 20
216.81
 11
0.374756
 21
216.791
  0
LINE
  8
0
 10
0.374756
 20
216.791
 11
0.497375
 21
216.763
  0
LINE
  8
0
 10
0.497375
 20
216.763
 11
0.618027
 21
216.728
  0
LINE
  8
0
 10
0.618027
 20
216.728
 11
0.736237
 21
216.686
  0
LINE
  8
0
 10
0.736237
 20
216.686
 11
0.851547
 21
216.636
  0
LINE
  8
0
 10
0.851547
 20
216.636
 11
0.963501
 21
216.579
  0
LINE
  8
0
 10
0.963501
 20
216.579
 11
1.07164
 21
216.515
  0
LINE
  8
0
 10
1.07164
 20
216.515
 11
1.17557
 21
216.444
  0
LINE
  8
0
 10
1.17557
 20
216.444
 11
1.27484
 21
216.367
  0
LINE
  8
0
 10
1.27484
 20
216.367
 11
1.36908
 21
216.284
  0
LINE
  8
0
 10
1.36908
 20
216.284
 11
1.45793
 21
216.195
  0
LINE
  8
0
 10
1.45793
 20
216.195
 11
1.54102
 21
216.101
  0
LINE
  8
0
 10
1.54102
 20
216.101
 11
1.61803
 21
216.002
  0
LINE
  8
0
 10
1.61803
 20
216.002
 11
1.68864
 21
215.898
  0
LINE
  8
0
 10
1.68864
 20
215.898
 11
1.75261
 21
215.79
  0
LINE
  8
0
 10
1.75261
 20
215.79
 11
1.80965
 21
215.678
  0
LINE
  8
0
 10
1.80965
 20
215.678
 11
1.85954
 21
215.562
  0
LINE
  8
0
 10
1.85954
 20
215.562
 11
1.9021
 21
215.444
  0
LINE
  8
0
 10
1.9021
 20
215.444
 11
1.93716
 21
215.324
  0
LINE
  8
0
 10
1.93716
 20
215.324
 11
1.96457
 21
215.201
  0
LINE
  8
0
 10
1.96457
 20
215.201
 11
1.98422
 21
215.077
  0
LINE
  8
0
 10
1.98422
 20
215.077
 11
1.99605
 21
214.952
  0
LINE
  8
0
 10
1.99605
 20
214.952
 11
2
 21
214.826
  0
LINE
  8
0
 10
2
 20
214.826
 11
1.99605
 21
214.701
  0
LINE
  8
0
 10
1.99605
 20
214.701
 11
1.98422
 21
214.576
  0
LINE
  8
0
 10
1.98422
 20
214.576
 11
1.96457
 21
214.451
  0
LINE
  8
0
 10
1.96457
 20
214.451
 11
1.93716
 21
214.329
  0
LINE
  8
0
 10
1.93716
 20
214.329
 11
1.9021
 21
214.208
  0
LINE
  8
0
 10
1.9021
 20
214.208
 11
1.85954
 21
214.09
  0
LINE
  8
0
 10
1.85954
 20
214.09
 11
1.80965
 21
213.975
  0
LINE
  8
0
 10
1.80965
 20
213.975
 11
1.75261
 21
213.863
  0
LINE
  8
0
 10
1.75261
 20
213.863
 11
1.68864
 21
213.755
  0
LINE
  8
0
 10
1.68864
 20
213.755
 11
1.61803
 21
213.651
  0
LINE
  8
0
 10
1.61803
 20
213.651
 11
1.54102
 21
213.551
  0
LINE
  8
0
 10
1.54102
 20
213.551
 11
1.45793
 21
213.457
  0
LINE
  8
0
 10
1.45793
 20
213.457
 11
1.36908
 21
213.368
  0
LINE
  8
0
 10
1.36908
 20
213.368
 11
1.27484
 21
213.285
  0
LINE
  8
0
 10
1.27484
 20
213.285
 11
1.17557
 21
213.208
  0
LINE
  8
0
 10
1.17557
 20
213.208
 11
1.07164
 21
213.138
  0
LINE
  8
0
 10
1.07164
 20
213.138
 11
0.963501
 21
213.074
  0
LINE
  8
0
 10
0.963501
 20
213.074
 11
0.851547
 21
213.017
  0
LINE
  8
0
 10
0.851547
 20
213.017
 11
0.736237
 21
212.967
  0
LINE
  8
0
 10
0.736237
 20
212.967
 11
0.618027
 21
212.924
  0
LINE
  8
0
 10
0.618027
 20
212.924
 11
0.497375
 21
212.889
  0
LINE
  8
0
 10
0.497375
 20
212.889
 11
0.374756
 21
212.862
  0
LINE
  8
0
 10
0.374756
 20
212.862
 11
0.250656
 21
212.842
  0
LINE
  8
0
 10
0.250656
 20
212.842
 11
0.12558
 21
212.83
  0
LINE
  8
0
 10
0.12558
 20
212.83
 11
0
 21
212.826
  0
LINE
  8
0
 10
0
 20
212.826
 11
-0.12558
 21
212.83
  0
LINE
  8
0
 10
-0.800369
 20
189.53
 11
0
 21
191.993
  0
LINE
  8
0
 10
0
 20
191.993
 11
0.800369
 21
189.53
  0
LINE
  8
0
 10
0.800369
 20
189.53
 11
0
 21
189.28
  0
LINE
  8
0
 10
0
 20
189.28
 11
-0.800369
 21
189.53
  0
LINE
  8
0
 10
-5.11987
 20
174.88
 11
-5.33588
 21
175.571
  0
LINE
  8
0
 10
-5.33588
 20
175.571
 11
-1.90712
 21
186.124
  0
LINE
  8
0
 10
-1.90712
 20
186.124
 11
0
 21
186.72
  0
LINE
  8
0
 10
0
 20
186.72
 11
1.90712
 21
186.124
  0
LINE
  8
0
 10
1.90712
 20
186.124
 11
5.33588
 21
175.571
  0
LINE
  8
0
 10
5.33588
 20
175.571
 11
5.11987
 21
174.88
  0
LINE
  8
0
 10
5.11987
 20
174.88
 11
0
 21
173.28
  0
LINE
  8
0
 10
0
 20
173.28
 11
-5.11987
 21
174.88
  0
LINE
  8
0
 10
-5.11987
 20
158.88
 11
-6.71997
 21
164
  0
LINE
  8
0
 10
-6.71997
 20
164
 11
-5.11987
 21
169.12
  0
LINE
  8
0
 10
-5.11987
 20
169.12
 11
0
 21
170.72
  0
LINE
  8
0
 10
0
 20
170.72
 11
5.11987
 21
169.12
  0
LINE
  8
0
 10
5.11987
 20
169.12
 11
6.71997
 21
164
  0
LINE
  8
0
 10
6.71997
 20
164
 11
5.11987
 21
158.88
  0
LINE
  8
0
 10
5.11987
 20
158.88
 11
0
 21
157.28
  0
LINE
  8
0
 10
0
 20
157.28
 11
-5.11987
 21
158.88
  0
LINE
  8
0
 10
-5.11987
 20
142.88
 11
-6.71997
 21
148
  0
LINE
  8
0
 10
-6.71997
 20
148
 11
-5.11987
 21
153.12
  0
LINE
  8
0
 10
-5.11987
 20
153.12
 11
0
 21
154.72
  0
LINE
  8
0
 10
0
 20
154.72
 11
5.11987
 21
153.12
  0
LINE
  8
0
 10
5.11987
 20
153.12
 11
6.71997
 21
148
  0
LINE
  8
0
 10
6.71997
 20
148
 11
5.11987
 21
142.88
  0
LINE
  8
0
 10
5.11987
 20
142.88
 11
0
 21
141.28
  0
LINE
  8
0
 10
0
 20
141.28
 11
-5.11987
 21
142.88
  0
LINE
  8
0
 10
-16.4337
 20
141.416
 11
-12.4694
 21
153.617
  0
LINE
  8
0
 10
-12.4694
 20
153.617
 11
-10.8801
 21
153.12
  0
LINE
  8
0
 10
-10.8801
 20
153.12
 11
-9.28003
 21
148
  0
LINE
  8
0
 10
-9.28003
 20
148
 11
-10.8801
 21
142.88
  0
LINE
  8
0
 10
-10.8801
 20
142.88
 11
-16
 21
141.28
  0
LINE
  8
0
 10
-16
 20
141.28
 11
-16.4337
 21
141.416
  0
LINE
  8
0
 10
10.8801
 20
142.88
 11
9.28003
 21
148
  0
LINE
  8
0
 10
9.28003
 20
148
 11
10.8801
 21
153.12
  0
LINE
  8
0
 10
10.8801
 20
153.12
 11
12.4694
 21
153.617
  0
LINE
  8
0
 10
12.4694
 20
153.617
 11
16.4337
 21
141.416
  0
LINE
  8
0
 10
16.4337
 20
141.416
 11
16
 21
141.28
  0
LINE
  8
0
 10
16
 20
141.28
 11
10.8801
 21
142.88
  0
LINE
  8
0
 10
10.8801
 20
126.88
 11
9.28003
 21
132
  0
LINE
  8
0
 10
9.28003
 20
132
 11
10.8801
 21
137.12
  0
LINE
  8
0
 10
10.8801
 20
137.12
 11
16
 21
138.72
  0
LINE
  8
0
 10
16
 20
138.72
 11
17.4576
 21
138.264
  0
LINE
  8
0
 10
17.4576
 20
138.264
 11
21.1379
 21
126.938
  0
LINE
  8
0
 10
21.1379
 20
126.938
 11
21.1199
 21
126.88
  0
LINE
  8
0
 10
21.1199
 20
126.88
 11
16
 21
125.28
  0
LINE
  8
0
 10
16
 20
125.28
 11
10.8801
 21
126.88
  0
LINE
  8
0
 10
-5.11987
 20
126.88
 11
-6.71997
 21
132
  0
LINE
  8
0
 10
-6.71997
 20
132
 11
-5.11987
 21
137.12
  0
LINE
  8
0
 10
-5.11987
 20
137.12
 11
0
 21
138.72
  0
LINE
  8
0
 10
0
 20
138.72
 11
5.11987
 21
137.12
  0
LINE
  8
0
 10
5.11987
 20
137.12
 11
6.71997
 21
132
  0
LINE
  8
0
 10
6.71997
 20
132
 11
5.11987
 21
126.88
  0
LINE
  8
0
 10
5.11987
 20
126.88
 11
0
 21
125.28
  0
LINE
  8
0
 10
0
 20
125.28
 11
-5.11987
 21
126.88
  0
LINE
  8
0
 10
-21.1199
 20
126.88
 11
-21.1379
 21
126.938
  0
LINE
  8
0
 10
-21.1379
 20
126.938
 11
-17.4576
 21
138.264
  0
LINE
  8
0
 10
-17.4576
 20
138.264
 11
-16
 21
138.72
  0
LINE
  8
0
 10
-16
 20
138.72
 11
-10.8801
 21
137.12
  0
LINE
  8
0
 10
-10.8801
 20
137.12
 11
-9.28003
 21
132
  0
LINE
  8
0
 10
-9.28003
 20
132
 11
-10.8801
 21
126.88
  0
LINE
  8
0
 10
-10.8801
 20
126.88
 11
-16
 21
125.28
  0
LINE
  8
0
 10
-16
 20
125.28
 11
-21.1199
 21
126.88
  0
LINE
  8
0
 10
-5.11987
 20
110.88
 11
-6.71997
 21
116
  0
LINE
  8
0
 10
-6.71997
 20
116
 11
-5.11987
 21
121.12
  0
LINE
  8
0
 10
-5.11987
 20
121.12
 11
0
 21
122.72
  0
LINE
  8
0
 10
0
 20
122.72
 11
5.11987
 21
121.12
  0
LINE
  8
0
 10
5.11987
 20
121.12
 11
6.71997
 21
116
  0
LINE
  8
0
 10
6.71997
 20
116
 11
5.11987
 21
110.88
  0
LINE
  8
0
 10
5.11987
 20
110.88
 11
0
 21
109.28
  0
LINE
  8
0
 10
0
 20
109.28
 11
-5.11987
 21
110.88
  0
LINE
  8
0
 10
-21.1199
 20
110.88
 11
-22.72
 21
116
  0
LINE
  8
0
 10
-22.72
 20
116
 11
-21.1199
 21
121.12
  0
LINE
  8
0
 10
-21.1199
 20
121.12
 11
-16
 21
122.72
  0
LINE
  8
0
 10
-16
 20
122.72
 11
-10.8801
 21
121.12
  0
LINE
  8
0
 10
-10.8801
 20
121.12
 11
-9.28003
 21
116
  0
LINE
  8
0
 10
-9.28003
 20
116
 11
-10.8801
 21
110.88
  0
LINE
  8
0
 10
-10.8801
 20
110.88
 11
-16
 21
109.28
  0
LINE
  8
0
 10
-16
 20
109.28
 11
-21.1199
 21
110.88
  0
LINE
  8
0
 10
10.8801
 20
110.88
 11
9.28003
 21
116
  0
LINE
  8
0
 10
9.28003
 20
116
 11
10.8801
 21
121.12
  0
LINE
  8
0
 10
10.8801
 20
121.12
 11
16
 21
122.72
  0
LINE
  8
0
 10
16
 20
122.72
 11
21.1199
 21
121.12
  0
LINE
  8
0
 10
21.1199
 20
121.12
 11
22.72
 21
116
  0
LINE
  8
0
 10
22.72
 20
116
 11
21.1199
 21
110.88
  0
LINE
  8
0
 10
21.1199
 20
110.88
 11
16
 21
109.28
  0
LINE
  8
0
 10
16
 20
109.28
 11
10.8801
 21
110.88
  0
LINE
  8
0
 10
10.8801
 20
94.8801
 11
9.28003
 21
100
  0
LINE
  8
0
 10
9.28003
 20
100
 11
10.8801
 21
105.12
  0
LINE
  8
0
 10
10.8801
 20
105.12
 11
16
 21
106.72
  0
LINE
  8
0
 10
16
 20
106.72
 11
21.1199
 21
105.12
  0
LINE
  8
0
 10
21.1199
 20
105.12
 11
22.72
 21
100
  0
LINE
  8
0
 10
22.72
 20
100
 11
21.1199
 21
94.8801
  0
LINE
  8
0
 10
21.1199
 20
94.8801
 11
16
 21
93.28
  0
LINE
  8
0
 10
16
 20
93.28
 11
10.8801
 21
94.8801
  0
LINE
  8
0
 10
-21.1199
 20
94.8801
 11
-22.72
 21
100
  0
LINE
  8
0
 10
-22.72
 20
100
 11
-21.1199
 21
105.12
  0
LINE
  8
0
 10
-21.1199
 20
105.12
 11
-16
 21
106.72
  0
LINE
  8
0
 10
-16
 20
106.72
 11
-10.8801
 21
105.12
  0
LINE
  8
0
 10
-10.8801
 20
105.12
 11
-9.28003
 21
100
  0
LINE
  8
0
 10
-9.28003
 20
100
 11
-10.8801
 21
94.8801
  0
LINE
  8
0
 10
-10.8801
 20
94.8801
 11
-16
 21
93.28
  0
LINE
  8
0
 10
-16
 20
93.28
 11
-21.1199
 21
94.8801
  0
LINE
  8
0
 10
-5.11987
 20
94.8801
 11
-6.71997
 21
100
  0
LINE
  8
0
 10
-6.71997
 20
100
 11
-5.11987
 21
105.12
  0
LINE
  8
0
 10
-5.11987
 20
105.12
 11
0
 21
106.72
  0
LINE
  8
0
 10
0
 20
106.72
 11
5.11987
 21
105.12
  0
LINE
  8
0
 10
5.11987
 20
105.12
 11
6.71997
 21
100
  0
LINE
  8
0
 10
6.71997
 20
100
 11
5.11987
 21
94.8801
  0
LINE
  8
0
 10
5.11987
 20
94.8801
 11
0
 21
93.28
  0
LINE
  8
0
 10
0
 20
93.28
 11
-5.11987
 21
94.8801
  0
LINE
  8
0
 10
-32.0671
 20
93.301
 11
-28.1028
 21
105.502
  0
LINE
  8
0
 10
-28.1028
 20
105.502
 11
-26.8801
 21
105.12
  0
LINE
  8
0
 10
-26.8801
 20
105.12
 11
-25.28
 21
100
  0
LINE
  8
0
 10
-25.28
 20
100
 11
-26.8801
 21
94.8801
  0
LINE
  8
0
 10
-26.8801
 20
94.8801
 11
-32
 21
93.28
  0
LINE
  8
0
 10
-32
 20
93.28
 11
-32.0671
 21
93.301
  0
LINE
  8
0
 10
26.8801
 20
94.8801
 11
25.28
 21
100
  0
LINE
  8
0
 10
25.28
 20
100
 11
26.8801
 21
105.12
  0
LINE
  8
0
 10
26.8801
 20
105.12
 11
28.1028
 21
105.502
  0
LINE
  8
0
 10
28.1028
 20
105.502
 11
32.0671
 21
93.301
  0
LINE
  8
0
 10
32.0671
 20
93.301
 11
32
 21
93.28
  0
LINE
  8
0
 10
32
 20
93.28
 11
26.8801
 21
94.8801
  0
LINE
  8
0
 10
26.8801
 20
78.8801
 11
25.28
 21
84
  0
LINE
  8
0
 10
25.28
 20
84
 11
26.8801
 21
89.1199
  0
LINE
  8
0
 10
26.8801
 20
89.1199
 11
32
 21
90.72
  0
LINE
  8
0
 10
32
 20
90.72
 11
33.0081
 21
90.4049
  0
LINE
  8
0
 10
33.0081
 20
90.4049
 11
36.7866
 21
78.776
  0
LINE
  8
0
 10
36.7866
 20
78.776
 11
32
 21
77.28
  0
LINE
  8
0
 10
32
 20
77.28
 11
26.8801
 21
78.8801
  0
LINE
  8
0
 10
10.8801
 20
78.8801
 11
9.28003
 21
84
  0
LINE
  8
0
 10
9.28003
 20
84
 11
10.8801
 21
89.1199
  0
LINE
  8
0
 10
10.8801
 20
89.1199
 11
16
 21
90.72
  0
LINE
  8
0
 10
16
 20
90.72
 11
21.1199
 21
89.1199
  0
LINE
  8
0
 10
21.1199
 20
89.1199
 11
22.72
 21
84
  0
LINE
  8
0
 10
22.72
 20
84
 11
21.1199
 21
78.8801
  0
LINE
  8
0
 10
21.1199
 20
78.8801
 11
16
 21
77.28
  0
LINE
  8
0
 10
16
 20
77.28
 11
10.8801
 21
78.8801
  0
LINE
  8
0
 10
-5.11987
 20
78.8801
 11
-6.71997
 21
84
  0
LINE
  8
0
 10
-6.71997
 20
84
 11
-5.11987
 21
89.1199
  0
LINE
  8
0
 10
-5.11987
 20
89.1199
 11
0
 21
90.72
  0
LINE
  8
0
 10
0
 20
90.72
 11
5.11987
 21
89.1199
  0
LINE
  8
0
 10
5.11987
 20
89.1199
 11
6.71997
 21
84
  0
LINE
  8
0
 10
6.71997
 20
84
 11
5.11987
 21
78.8801
  0
LINE
  8
0
 10
5.11987
 20
78.8801
 11
0
 21
77.28
  0
LINE
  8
0
 10
0
 20
77.28
 11
-5.11987
 21
78.8801
  0
LINE
  8
0
 10
-21.1199
 20
78.8801
 11
-22.72
 21
84
  0
LINE
  8
0
 10
-22.72
 20
84
 11
-21.1199
 21
89.1199
  0
LINE
  8
0
 10
-21.1199
 20
89.1199
 11
-16
 21
90.72
  0
LINE
  8
0
 10
-16
 20
90.72
 11
-10.8801
 21
89.1199
  0
LINE
  8
0
 10
-10.8801
 20
89.1199
 11
-9.28003
 21
84
  0
LINE
  8
0
 10
-9.28003
 20
84
 11
-10.8801
 21
78.8801
  0
LINE
  8
0
 10
-10.8801
 20
78.8801
 11
-16
 21
77.28
  0
LINE
  8
0
 10
-16
 20
77.28
 11
-21.1199
 21
78.8801
  0
LINE
  8
0
 10
-36.7866
 20
78.776
 11
-33.0081
 21
90.4049
  0
LINE
  8
0
 10
-33.0081
 20
90.4049
 11
-32
 21
90.72
  0
LINE
  8
0
 10
-32
 20
90.72
 11
-26.8801
 21
89.1199
  0
LINE
  8
0
 10
-26.8801
 20
89.1199
 11
-25.28
 21
84
  0
LINE
  8
0
 10
-25.28
 20
84
 11
-26.8801
 21
78.8801
  0
LINE
  8
0
 10
-26.8801
 20
78.8801
 11
-32
 21
77.28
  0
LINE
  8
0
 10
-32
 20
77.28
 11
-36.7866
 21
78.776
  0
LINE
  8
0
 10
-5.11987
 20
62.8801
 11
-6.71997
 21
68
  0
LINE
  8
0
 10
-6.71997
 20
68
 11
-5.11987
 21
73.1199
  0
LINE
  8
0
 10
-5.11987
 20
73.1199
 11
0
 21
74.72
  0
LINE
  8
0
 10
0
 20
74.72
 11
5.11987
 21
73.1199
  0
LINE
  8
0
 10
5.11987
 20
73.1199
 11
6.71997
 21
68
  0
LINE
  8
0
 10
6.71997
 20
68
 11
5.11987
 21
62.8801
  0
LINE
  8
0
 10
5.11987
 20
62.8801
 11
0
 21
61.28
  0
LINE
  8
0
 10
0
 20
61.28
 11
-5.11987
 21
62.8801
  0
LINE
  8
0
 10
-37.1199
 20
62.8801
 11
-38.72
 21
68
  0
LINE
  8
0
 10
-38.72
 20
68
 11
-37.1199
 21
73.1199
  0
LINE
  8
0
 10
-37.1199
 20
73.1199
 11
-32
 21
74.72
  0
LINE
  8
0
 10
-32
 20
74.72
 11
-26.8801
 21
73.1199
  0
LINE
  8
0
 10
-26.8801
 20
73.1199
 11
-25.28
 21
68
  0
LINE
  8
0
 10
-25.28
 20
68
 11
-26.8801
 21
62.8801
  0
LINE
  8
0
 10
-26.8801
 20
62.8801
 11
-32
 21
61.28
  0
LINE
  8
0
 10
-32
 20
61.28
 11
-37.1199
 21
62.8801
  0
LINE
  8
0
 10
26.8801
 20
62.8801
 11
25.28
 21
68
  0
LINE
  8
0
 10
25.28
 20
68
 11
26.8801
 21
73.1199
  0
LINE
  8
0
 10
26.8801
 20
73.1199
 11
32
 21
74.72
  0
LINE
  8
0
 10
32
 20
74.72
 11
37.1199
 21
73.1199
  0
LINE
  8
0
 10
37.1199
 20
73.1199
 11
38.72
 21
68
  0
LINE
  8
0
 10
38.72
 20
68
 11
37.1199
 21
62.8801
  0
LINE
  8
0
 10
37.1199
 20
62.8801
 11
32
 21
61.28
  0
LINE
  8
0
 10
32
 20
61.28
 11
26.8801
 21
62.8801
  0
LINE
  8
0
 10
10.8801
 20
62.8801
 11
9.28003
 21
68
  0
LINE
  8
0
 10
9.28003
 20
68
 11
10.8801
 21
73.1199
  0
LINE
  8
0
 10
10.8801
 20
73.1199
 11
16
 21
74.72
  0
LINE
  8
0
 10
16
 20
74.72
 11
21.1199
 21
73.1199
  0
LINE
  8
0
 10
21.1199
 20
73.1199
 11
22.72
 21
68
  0
LINE
  8
0
 10
22.72
 20
68
 11
21.1199
 21
62.8801
  0
LINE
  8
0
 10
21.1199
 20
62.8801
 11
16
 21
61.28
  0
LINE
  8
0
 10
16
 20
61.28
 11
10.8801
 21
62.8801
  0
LINE
  8
0
 10
-21.1199
 20
62.8801
 11
-22.72
 21
68
  0
LINE
  8
0
 10
-22.72
 20
68
 11
-21.1199
 21
73.1199
  0
LINE
  8
0
 10
-21.1199
 20
73.1199
 11
-16
 21
74.72
  0
LINE
  8
0
 10
-16
 20
74.72
 11
-10.8801
 21
73.1199
  0
LINE
  8
0
 10
-10.8801
 20
73.1199
 11
-9.28003
 21
68
  0
LINE
  8
0
 10
-9.28003
 20
68
 11
-10.8801
 21
62.8801
  0
LINE
  8
0
 10
-10.8801
 20
62.8801
 11
-16
 21
61.28
  0
LINE
  8
0
 10
-16
 20
61.28
 11
-21.1199
 21
62.8801
  0
LINE
  8
0
 10
-5.11987
 20
46.8801
 11
-6.71997
 21
52
  0
LINE
  8
0
 10
-6.71997
 20
52
 11
-5.11987
 21
57.1199
  0
LINE
  8
0
 10
-5.11987
 20
57.1199
 11
0
 21
58.72
  0
LINE
  8
0
 10
0
 20
58.72
 11
5.11987
 21
57.1199
  0
LINE
  8
0
 10
5.11987
 20
57.1199
 11
6.71997
 21
52
  0
LINE
  8
0
 10
6.71997
 20
52
 11
5.11987
 21
46.8801
  0
LINE
  8
0
 10
5.11987
 20
46.8801
 11
0
 21
45.28
  0
LINE
  8
0
 10
0
 20
45.28
 11
-5.11987
 21
46.8801
  0
LINE
  8
0
 10
26.8801
 20
46.8801
 11
25.28
 21
52
  0
LINE
  8
0
 10
25.28
 20
52
 11
26.8801
 21
57.1199
  0
LINE
  8
0
 10
26.8801
 20
57.1199
 11
32
 21
58.72
  0
LINE
  8
0
 10
32
 20
58.72
 11
37.1199
 21
57.1199
  0
LINE
  8
0
 10
37.1199
 20
57.1199
 11
38.72
 21
52
  0
LINE
  8
0
 10
38.72
 20
52
 11
37.1199
 21
46.8801
  0
LINE
  8
0
 10
37.1199
 20
46.8801
 11
32
 21
45.28
  0
LINE
  8
0
 10
32
 20
45.28
 11
26.8801
 21
46.8801
  0
LINE
  8
0
 10
-21.1199
 20
46.8801
 11
-22.72
 21
52
  0
LINE
  8
0
 10
-22.72
 20
52
 11
-21.1199
 21
57.1199
  0
LINE
  8
0
 10
-21.1199
 20
57.1199
 11
-16
 21
58.72
  0
LINE
  8
0
 10
-16
 20
58.72
 11
-10.8801
 21
57.1199
  0
LINE
  8
0
 10
-10.8801
 20
57.1199
 11
-9.28003
 21
52
  0
LINE
  8
0
 10
-9.28003
 20
52
 11
-10.8801
 21
46.8801
  0
LINE
  8
0
 10
-10.8801
 20
46.8801
 11
-16
 21
45.28
  0
LINE
  8
0
 10
-16
 20
45.28
 11
-21.1199
 21
46.8801
  0
LINE
  8
0
 10
-37.1199
 20
46.8801
 11
-38.72
 21
52
  0
LINE
  8
0
 10
-38.72
 20
52
 11
-37.1199
 21
57.1199
  0
LINE
  8
0
 10
-37.1199
 20
57.1199
 11
-32
 21
58.72
  0
LINE
  8
0
 10
-32
 20
58.72
 11
-26.8801
 21
57.1199
  0
LINE
  8
0
 10
-26.8801
 20
57.1199
 11
-25.28
 21
52
  0
LINE
  8
0
 10
-25.28
 20
52
 11
-26.8801
 21
46.8801
  0
LINE
  8
0
 10
-26.8801
 20
46.8801
 11
-32
 21
45.28
  0
LINE
  8
0
 10
-32
 20
45.28
 11
-37.1199
 21
46.8801
  0
LINE
  8
0
 10
10.8801
 20
46.8801
 11
9.28003
 21
52
  0
LINE
  8
0
 10
9.28003
 20
52
 11
10.8801
 21
57.1199
  0
LINE
  8
0
 10
10.8801
 20
57.1199
 11
16
 21
58.72
  0
LINE
  8
0
 10
16
 20
58.72
 11
21.1199
 21
57.1199
  0
LINE
  8
0
 10
21.1199
 20
57.1199
 11
22.72
 21
52
  0
LINE
  8
0
 10
22.72
 20
52
 11
21.1199
 21
46.8801
  0
LINE
  8
0
 10
21.1199
 20
46.8801
 11
16
 21
45.28
  0
LINE
  8
0
 10
16
 20
45.28
 11
10.8801
 21
46.8801
  0
LINE
  8
0
 10
-43.7362
 20
57.3874
 11
-42.8801
 21
57.1199
  0
LINE
  8
0
 10
-42.8801
 20
57.1199
 11
-41.28
 21
52
  0
LINE
  8
0
 10
-41.28
 20
52
 11
-42.8801
 21
46.8801
  0
LINE
  8
0
 10
-42.8801
 20
46.8801
 11
-47.6328
 21
45.3948
  0
LINE
  8
0
 10
-47.6328
 20
45.3948
 11
-43.7362
 21
57.3874
  0
LINE
  8
0
 10
42.8801
 20
46.8801
 11
41.28
 21
52
  0
LINE
  8
0
 10
41.28
 20
52
 11
42.8801
 21
57.1199
  0
LINE
  8
0
 10
42.8801
 20
57.1199
 11
43.7362
 21
57.3874
  0
LINE
  8
0
 10
43.7362
 20
57.3874
 11
47.6328
 21
45.3948
  0
LINE
  8
0
 10
47.6328
 20
45.3948
 11
42.8801
 21
46.8801
  0
LINE
  8
0
 10
-37.1199
 20
30.8801
 11
-38.72
 21
36
  0
LINE
  8
0
 10
-38.72
 20
36
 11
-37.1199
 21
41.1199
  0
LINE
  8
0
 10
-37.1199
 20
41.1199
 11
-32
 21
42.72
  0
LINE
  8
0
 10
-32
 20
42.72
 11
-26.8801
 21
41.1199
  0
LINE
  8
0
 10
-26.8801
 20
41.1199
 11
-25.28
 21
36
  0
LINE
  8
0
 10
-25.28
 20
36
 11
-26.8801
 21
30.8801
  0
LINE
  8
0
 10
-26.8801
 20
30.8801
 11
-32
 21
29.28
  0
LINE
  8
0
 10
-32
 20
29.28
 11
-37.1199
 21
30.8801
  0
LINE
  8
0
 10
-5.11987
 20
30.8801
 11
-6.71997
 21
36
  0
LINE
  8
0
 10
-6.71997
 20
36
 11
-5.11987
 21
41.1199
  0
LINE
  8
0
 10
-5.11987
 20
41.1199
 11
0
 21
42.72
  0
LINE
  8
0
 10
0
 20
42.72
 11
5.11987
 21
41.1199
  0
LINE
  8
0
 10
5.11987
 20
41.1199
 11
6.71997
 21
36
  0
LINE
  8
0
 10
6.71997
 20
36
 11
5.11987
 21
30.8801
  0
LINE
  8
0
 10
5.11987
 20
30.8801
 11
0
 21
29.28
  0
LINE
  8
0
 10
0
 20
29.28
 11
-5.11987
 21
30.8801
  0
LINE
  8
0
 10
-52.42
 20
30.6614
 11
-48.5586
 21
42.5454
  0
LINE
  8
0
 10
-48.5586
 20
42.5454
 11
-48
 21
42.72
  0
LINE
  8
0
 10
-48
 20
42.72
 11
-42.8801
 21
41.1199
  0
LINE
  8
0
 10
-42.8801
 20
41.1199
 11
-41.28
 21
36
  0
LINE
  8
0
 10
-41.28
 20
36
 11
-42.8801
 21
30.8801
  0
LINE
  8
0
 10
-42.8801
 20
30.8801
 11
-48
 21
29.28
  0
LINE
  8
0
 10
-48
 20
29.28
 11
-52.42
 21
30.6614
  0
LINE
  8
0
 10
-21.1199
 20
30.8801
 11
-22.72
 21
36
  0
LINE
  8
0
 10
-22.72
 20
36
 11
-21.1199
 21
41.1199
  0
LINE
  8
0
 10
-21.1199
 20
41.1199
 11
-16
 21
42.72
  0
LINE
  8
0
 10
-16
 20
42.72
 11
-10.8801
 21
41.1199
  0
LINE
  8
0
 10
-10.8801
 20
41.1199
 11
-9.28003
 21
36
  0
LINE
  8
0
 10
-9.28003
 20
36
 11
-10.8801
 21
30.8801
  0
LINE
  8
0
 10
-10.8801
 20
30.8801
 11
-16
 21
29.28
  0
LINE
  8
0
 10
-16
 20
29.28
 11
-21.1199
 21
30.8801
  0
LINE
  8
0
 10
26.8801
 20
30.8801
 11
25.28
 21
36
  0
LINE
  8
0
 10
25.28
 20
36
 11
26.8801
 21
41.1199
  0
LINE
  8
0
 10
26.8801
 20
41.1199
 11
32
 21
42.72
  0
LINE
  8
0
 10
32
 20
42.72
 11
37.1199
 21
41.1199
  0
LINE
  8
0
 10
37.1199
 20
41.1199
 11
38.72
 21
36
  0
LINE
  8
0
 10
38.72
 20
36
 11
37.1199
 21
30.8801
  0
LINE
  8
0
 10
37.1199
 20
30.8801
 11
32
 21
29.28
  0
LINE
  8
0
 10
32
 20
29.28
 11
26.8801
 21
30.8801
  0
LINE
  8
0
 10
42.8801
 20
30.8801
 11
41.28
 21
36
  0
LINE
  8
0
 10
41.28
 20
36
 11
42.8801
 21
41.1199
  0
LINE
  8
0
 10
42.8801
 20
41.1199
 11
48
 21
42.72
  0
LINE
  8
0
 10
48
 20
42.72
 11
48.5586
 21
42.5454
  0
LINE
  8
0
 10
48.5586
 20
42.5454
 11
52.42
 21
30.6614
  0
LINE
  8
0
 10
52.42
 20
30.6614
 11
48
 21
29.28
  0
LINE
  8
0
 10
48
 20
29.28
 11
42.8801
 21
30.8801
  0
LINE
  8
0
 10
10.8801
 20
30.8801
 11
9.28003
 21
36
  0
LINE
  8
0
 10
9.28003
 20
36
 11
10.8801
 21
41.1199
  0
LINE
  8
0
 10
10.8801
 20
41.1199
 11
16
 21
42.72
  0
LINE
  8
0
 10
16
 20
42.72
 11
21.1199
 21
41.1199
  0
LINE
  8
0
 10
21.1199
 20
41.1199
 11
22.72
 21
36
  0
LINE
  8
0
 10
22.72
 20
36
 11
21.1199
 21
30.8801
  0
LINE
  8
0
 10
21.1199
 20
30.8801
 11
16
 21
29.28
  0
LINE
  8
0
 10
16
 20
29.28
 11
10.8801
 21
30.8801
  0
LINE
  8
0
 10
42.8801
 20
14.8801
 11
41.28
 21
20
  0
LINE
  8
0
 10
41.28
 20
20
 11
42.8801
 21
25.1199
  0
LINE
  8
0
 10
42.8801
 20
25.1199
 11
48
 21
26.72
  0
LINE
  8
0
 10
48
 20
26.72
 11
53.1199
 21
25.1199
  0
LINE
  8
0
 10
53.1199
 20
25.1199
 11
54.72
 21
20
  0
LINE
  8
0
 10
54.72
 20
20
 11
53.1199
 21
14.8801
  0
LINE
  8
0
 10
53.1199
 20
14.8801
 11
48
 21
13.28
  0
LINE
  8
0
 10
48
 20
13.28
 11
42.8801
 21
14.8801
  0
LINE
  8
0
 10
26.8801
 20
14.8801
 11
25.28
 21
20
  0
LINE
  8
0
 10
25.28
 20
20
 11
26.8801
 21
25.1199
  0
LINE
  8
0
 10
26.8801
 20
25.1199
 11
32
 21
26.72
  0
LINE
  8
0
 10
32
 20
26.72
 11
37.1199
 21
25.1199
  0
LINE
  8
0
 10
37.1199
 20
25.1199
 11
38.72
 21
20
  0
LINE
  8
0
 10
38.72
 20
20
 11
37.1199
 21
14.8801
  0
LINE
  8
0
 10
37.1199
 20
14.8801
 11
32
 21
13.28
  0
LINE
  8
0
 10
32
 20
13.28
 11
26.8801
 21
14.8801
  0
LINE
  8
0
 10
10.8801
 20
14.8801
 11
9.28003
 21
20
  0
LINE
  8
0
 10
9.28003
 20
20
 11
10.8801
 21
25.1199
  0
LINE
  8
0
 10
10.8801
 20
25.1199
 11
16
 21
26.72
  0
LINE
  8
0
 10
16
 20
26.72
 11
21.1199
 21
25.1199
  0
LINE
  8
0
 10
21.1199
 20
25.1199
 11
22.72
 21
20
  0
LINE
  8
0
 10
22.72
 20
20
 11
21.1199
 21
14.8801
  0
LINE
  8
0
 10
21.1199
 20
14.8801
 11
16
 21
13.28
  0
LINE
  8
0
 10
16
 20
13.28
 11
10.8801
 21
14.8801
  0
LINE
  8
0
 10
-5.11987
 20
14.8801
 11
-6.71997
 21
20
  0
LINE
  8
0
 10
-6.71997
 20
20
 11
-5.11987
 21
25.1199
  0
LINE
  8
0
 10
-5.11987
 20
25.1199
 11
0
 21
26.72
  0
LINE
  8
0
 10
0
 20
26.72
 11
5.11987
 21
25.1199
  0
LINE
  8
0
 10
5.11987
 20
25.1199
 11
6.71997
 21
20
  0
LINE
  8
0
 10
6.71997
 20
20
 11
5.11987
 21
14.8801
  0
LINE
  8
0
 10
5.11987
 20
14.8801
 11
0
 21
13.28
  0
LINE
  8
0
 10
0
 20
13.28
 11
-5.11987
 21
14.8801
  0
LINE
  8
0
 10
-21.1199
 20
14.8801
 11
-22.72
 21
20
  0
LINE
  8
0
 10
-22.72
 20
20
 11
-21.1199
 21
25.1199
  0
LINE
  8
0
 10
-21.1199
 20
25.1199
 11
-16
 21
26.72
  0
LINE
  8
0
 10
-16
 20
26.72
 11
-10.8801
 21
25.1199
  0
LINE
  8
0
 10
-10.8801
 20
25.1199
 11
-9.28003
 21
20
  0
LINE
  8
0
 10
-9.28003
 20
20
 11
-10.8801
 21
14.8801
  0
LINE
  8
0
 10
-10.8801
 20
14.8801
 11
-16
 21
13.28
  0
LINE
  8
0
 10
-16
 20
13.28
 11
-21.1199
 21
14.8801
  0
LINE
  8
0
 10
-37.1199
 20
14.8801
 11
-38.72
 21
20
  0
LINE
  8
0
 10
-38.72
 20
20
 11
-37.1199
 21
25.1199
  0
LINE
  8
0
 10
-37.1199
 20
25.1199
 11
-32
 21
26.72
  0
LINE
  8
0
 10
-32
 20
26.72
 11
-26.8801
 21
25.1199
  0
LINE
  8
0
 10
-26.8801
 20
25.1199
 11
-25.28
 21
20
  0
LINE
  8
0
 10
-25.28
 20
20
 11
-26.8801
 21
14.8801
  0
LINE
  8
0
 10
-26.8801
 20
14.8801
 11
-32
 21
13.28
  0
LINE
  8
0
 10
-32
 20
13.28
 11
-37.1199
 21
14.8801
  0
LINE
  8
0
 10
-53.1199
 20
14.8801
 11
-54.72
 21
20
  0
LINE
  8
0
 10
-54.72
 20
20
 11
-53.1199
 21
25.1199
  0
LINE
  8
0
 10
-53.1199
 20
25.1199
 11
-48
 21
26.72
  0
LINE
  8
0
 10
-48
 20
26.72
 11
-42.8801
 21
25.1199
  0
LINE
  8
0
 10
-42.8801
 20
25.1199
 11
-41.28
 21
20
  0
LINE
  8
0
 10
-41.28
 20
20
 11
-42.8801
 21
14.8801
  0
LINE
  8
0
 10
-42.8801
 20
14.8801
 11
-48
 21
13.28
  0
LINE
  8
0
 10
-48
 20
13.28
 11
-53.1199
 21
14.8801
  0
LINE
  8
0
 10
-10
 20
7
 11
-10
 21
11
  0
LINE
  8
0
 10
-10
 20
11
 11
10
 21
11
  0
LINE
  8
0
 10
10
 20
11
 11
10
 21
7
  0
LINE
  8
0
 10
10
 20
7
 11
-10
 21
7
  0
LINE
  8
0
 10
-68.6534
 20
2.70622
 11
-68.7785
 21
2.71805
  0
LINE
  8
0
 10
-68.7785
 20
2.71805
 11
-68.9026
 21
2.7377
  0
LINE
  8
0
 10
-68.9026
 20
2.7377
 11
-69.0252
 21
2.76511
  0
LINE
  8
0
 10
-69.0252
 20
2.76511
 11
-69.1459
 21
2.80016
  0
LINE
  8
0
 10
-69.1459
 20
2.80016
 11
-69.2641
 21
2.84273
  0
LINE
  8
0
 10
-69.2641
 20
2.84273
 11
-69.3794
 21
2.89262
  0
LINE
  8
0
 10
-69.3794
 20
2.89262
 11
-69.4914
 21
2.94966
  0
LINE
  8
0
 10
-69.4914
 20
2.94966
 11
-69.5995
 21
3.01363
  0
LINE
  8
0
 10
-69.5995
 20
3.01363
 11
-69.7034
 21
3.08424
  0
LINE
  8
0
 10
-69.7034
 20
3.08424
 11
-69.8027
 21
3.16125
  0
LINE
  8
0
 10
-69.8027
 20
3.16125
 11
-69.897
 21
3.24434
  0
LINE
  8
0
 10
-69.897
 20
3.24434
 11
-69.9858
 21
3.33318
  0
LINE
  8
0
 10
-69.9858
 20
3.33318
 11
-70.0689
 21
3.42743
  0
LINE
  8
0
 10
-70.0689
 20
3.42743
 11
-70.1459
 21
3.5267
  0
LINE
  8
0
 10
-70.1459
 20
3.5267
 11
-70.2165
 21
3.63062
  0
LINE
  8
0
 10
-70.2165
 20
3.63062
 11
-70.2805
 21
3.73877
  0
LINE
  8
0
 10
-70.2805
 20
3.73877
 11
-70.3375
 21
3.85072
  0
LINE
  8
0
 10
-70.3375
 20
3.85072
 11
-70.3874
 21
3.96602
  0
LINE
  8
0
 10
-70.3874
 20
3.96602
 11
-70.43
 21
4.08424
  0
LINE
  8
0
 10
-70.43
 20
4.08424
 11
-70.465
 21
4.2049
  0
LINE
  8
0
 10
-70.465
 20
4.2049
 11
-70.4924
 21
4.32751
  0
LINE
  8
0
 10
-70.4924
 20
4.32751
 11
-70.5121
 21
4.45161
  0
LINE
  8
0
 10
-70.5121
 20
4.45161
 11
-70.5239
 21
4.57669
  0
LINE
  8
0
 10
-70.5239
 20
4.57669
 11
-70.5279
 21
4.70227
  0
LINE
  8
0
 10
-70.5279
 20
4.70227
 11
-70.5239
 21
4.82785
  0
LINE
  8
0
 10
-70.5239
 20
4.82785
 11
-70.5121
 21
4.95294
  0
LINE
  8
0
 10
-70.5121
 20
4.95294
 11
-70.4924
 21
5.07704
  0
LINE
  8
0
 10
-70.4924
 20
5.07704
 11
-70.465
 21
5.19966
  0
LINE
  8
0
 10
-70.465
 20
5.19966
 11
-70.43
 21
5.32031
  0
LINE
  8
0
 10
-70.43
 20
5.32031
 11
-70.3874
 21
5.43852
  0
LINE
  8
0
 10
-70.3874
 20
5.43852
 11
-70.3375
 21
5.55383
  0
LINE
  8
0
 10
-70.3375
 20
5.55383
 11
-70.2805
 21
5.66579
  0
LINE
  8
0
 10
-70.2805
 20
5.66579
 11
-70.2165
 21
5.77393
  0
LINE
  8
0
 10
-70.2165
 20
5.77393
 11
-70.1459
 21
5.87784
  0
LINE
  8
0
 10
-70.1459
 20
5.87784
 11
-70.0689
 21
5.97713
  0
LINE
  8
0
 10
-70.0689
 20
5.97713
 11
-69.9858
 21
6.07137
  0
LINE
  8
0
 10
-69.9858
 20
6.07137
 11
-69.897
 21
6.16022
  0
LINE
  8
0
 10
-69.897
 20
6.16022
 11
-69.8027
 21
6.2433
  0
LINE
  8
0
 10
-69.8027
 20
6.2433
 11
-69.7034
 21
6.32031
  0
LINE
  8
0
 10
-69.7034
 20
6.32031
 11
-69.5995
 21
6.39093
  0
LINE
  8
0
 10
-69.5995
 20
6.39093
 11
-69.4914
 21
6.4549
  0
LINE
  8
0
 10
-69.4914
 20
6.4549
 11
-69.3794
 21
6.51193
  0
LINE
  8
0
 10
-69.3794
 20
6.51193
 11
-69.2641
 21
6.56183
  0
LINE
  8
0
 10
-69.2641
 20
6.56183
 11
-69.1459
 21
6.60439
  0
LINE
  8
0
 10
-69.1459
 20
6.60439
 11
-69.0252
 21
6.63943
  0
LINE
  8
0
 10
-69.0252
 20
6.63943
 11
-68.9026
 21
6.66685
  0
LINE
  8
0
 10
-68.9026
 20
6.66685
 11
-68.7785
 21
6.68651
  0
LINE
  8
0
 10
-68.7785
 20
6.68651
 11
-68.6534
 21
6.69833
  0
LINE
  8
0
 10
-68.6534
 20
6.69833
 11
-68.5279
 21
6.70227
  0
LINE
  8
0
 10
-68.5279
 20
6.70227
 11
-68.4023
 21
6.69833
  0
LINE
  8
0
 10
-68.4023
 20
6.69833
 11
-68.2772
 21
6.68651
  0
LINE
  8
0
 10
-68.2772
 20
6.68651
 11
-68.1531
 21
6.66685
  0
LINE
  8
0
 10
-68.1531
 20
6.66685
 11
-68.0305
 21
6.63943
  0
LINE
  8
0
 10
-68.0305
 20
6.63943
 11
-67.9098
 21
6.60439
  0
LINE
  8
0
 10
-67.9098
 20
6.60439
 11
-67.7916
 21
6.56183
  0
LINE
  8
0
 10
-67.7916
 20
6.56183
 11
-67.6763
 21
6.51193
  0
LINE
  8
0
 10
-67.6763
 20
6.51193
 11
-67.5643
 21
6.4549
  0
LINE
  8
0
 10
-67.5643
 20
6.4549
 11
-67.4562
 21
6.39093
  0
LINE
  8
0
 10
-67.4562
 20
6.39093
 11
-67.3523
 21
6.32031
  0
LINE
  8
0
 10
-67.3523
 20
6.32031
 11
-67.253
 21
6.2433
  0
LINE
  8
0
 10
-67.253
 20
6.2433
 11
-67.1588
 21
6.16022
  0
LINE
  8
0
 10
-67.1588
 20
6.16022
 11
-67.0699
 21
6.07137
  0
LINE
  8
0
 10
-67.0699
 20
6.07137
 11
-66.9868
 21
5.97713
  0
LINE
  8
0
 10
-66.9868
 20
5.97713
 11
-66.9098
 21
5.87784
  0
LINE
  8
0
 10
-66.9098
 20
5.87784
 11
-66.8392
 21
5.77393
  0
LINE
  8
0
 10
-66.8392
 20
5.77393
 11
-66.7752
 21
5.66579
  0
LINE
  8
0
 10
-66.7752
 20
5.66579
 11
-66.7182
 21
5.55383
  0
LINE
  8
0
 10
-66.7182
 20
5.55383
 11
-66.6683
 21
5.43852
  0
LINE
  8
0
 10
-66.6683
 20
5.43852
 11
-66.6257
 21
5.32031
  0
LINE
  8
0
 10
-66.6257
 20
5.32031
 11
-66.5907
 21
5.19966
  0
LINE
  8
0
 10
-66.5907
 20
5.19966
 11
-66.5633
 21
5.07704
  0
LINE
  8
0
 10
-66.5633
 20
5.07704
 11
-66.5436
 21
4.95294
  0
LINE
  8
0
 10
-66.5436
 20
4.95294
 11
-66.5318
 21
4.82785
  0
LINE
  8
0
 10
-66.5318
 20
4.82785
 11
-66.5279
 21
4.70227
  0
LINE
  8
0
 10
-66.5279
 20
4.70227
 11
-66.5318
 21
4.57669
  0
LINE
  8
0
 10
-66.5318
 20
4.57669
 11
-66.5436
 21
4.45161
  0
LINE
  8
0
 10
-66.5436
 20
4.45161
 11
-66.5633
 21
4.32751
  0
LINE
  8
0
 10
-66.5633
 20
4.32751
 11
-66.5907
 21
4.2049
  0
LINE
  8
0
 10
-66.5907
 20
4.2049
 11
-66.6257
 21
4.08424
  0
LINE
  8
0
 10
-66.6257
 20
4.08424
 11
-66.6683
 21
3.96602
  0
LINE
  8
0
 10
-66.6683
 20
3.96602
 11
-66.7182
 21
3.85072
  0
LINE
  8
0
 10
-66.7182
 20
3.85072
 11
-66.7752
 21
3.73877
  0
LINE
  8
0
 10
-66.7752
 20
3.73877
 11
-66.8392
 21
3.63062
  0
LINE
  8
0
 10
-66.8392
 20
3.63062
 11
-66.9098
 21
3.5267
  0
LINE
  8
0
 10
-66.9098
 20
3.5267
 11
-66.9868
 21
3.42743
  0
LINE
  8
0
 10
-66.9868
 20
3.42743
 11
-67.0699
 21
3.33318
  0
LINE
  8
0
 10
-67.0699
 20
3.33318
 11
-67.1588
 21
3.24434
  0
LINE
  8
0
 10
-67.1588
 20
3.24434
 11
-67.253
 21
3.16125
  0
LINE
  8
0
 10
-67.253
 20
3.16125
 11
-67.3523
 21
3.08424
  0
LINE
  8
0
 10
-67.3523
 20
3.08424
 11
-67.4562
 21
3.01363
  0
LINE
  8
0
 10
-67.4562
 20
3.01363
 11
-67.5643
 21
2.94966
  0
LINE
  8
0
 10
-67.5643
 20
2.94966
 11
-67.6763
 21
2.89262
  0
LINE
  8
0
 10
-67.6763
 20
2.89262
 11
-67.7916
 21
2.84273
  0
LINE
  8
0
 10
-67.7916
 20
2.84273
 11
-67.9098
 21
2.80016
  0
LINE
  8
0
 10
-67.9098
 20
2.80016
 11
-68.0305
 21
2.76511
  0
LINE
  8
0
 10
-68.0305
 20
2.76511
 11
-68.1531
 21
2.7377
  0
LINE
  8
0
 10
-68.1531
 20
2.7377
 11
-68.2772
 21
2.71805
  0
LINE
  8
0
 10
-68.2772
 20
2.71805
 11
-68.4023
 21
2.70622
  0
LINE
  8
0
 10
-68.4023
 20
2.70622
 11
-68.5279
 21
2.70227
  0
LINE
  8
0
 10
-68.5279
 20
2.70227
 11
-68.6534
 21
2.70622
  0
LINE
  8
0
 10
68.4023
 20
2.70622
 11
68.2772
 21
2.71805
  0
LINE
  8
0
 10
68.2772
 20
2.71805
 11
68.1531
 21
2.7377
  0
LINE
  8
0
 10
68.1531
 20
2.7377
 11
68.0305
 21
2.76511
  0
LINE
  8
0
 10
68.0305
 20
2.76511
 11
67.9098
 21
2.80016
  0
LINE
  8
0
 10
67.9098
 20
2.80016
 11
67.7916
 21
2.84273
  0
LINE
  8
0
 10
67.7916
 20
2.84273
 11
67.6763
 21
2.89262
  0
LINE
  8
0
 10
67.6763
 20
2.89262
 11
67.5643
 21
2.94966
  0
LINE
  8
0
 10
67.5643
 20
2.94966
 11
67.4562
 21
3.01363
  0
LINE
  8
0
 10
67.4562
 20
3.01363
 11
67.3523
 21
3.08424
  0
LINE
  8
0
 10
67.3523
 20
3.08424
 11
67.253
 21
3.16125
  0
LINE
  8
0
 10
67.253
 20
3.16125
 11
67.1588
 21
3.24434
  0
LINE
  8
0
 10
67.1588
 20
3.24434
 11
67.0699
 21
3.33318
  0
LINE
  8
0
 10
67.0699
 20
3.33318
 11
66.9868
 21
3.42743
  0
LINE
  8
0
 10
66.9868
 20
3.42743
 11
66.9098
 21
3.5267
  0
LINE
  8
0
 10
66.9098
 20
3.5267
 11
66.8392
 21
3.63062
  0
LINE
  8
0
 10
66.8392
 20
3.63062
 11
66.7752
 21
3.73877
  0
LINE
  8
0
 10
66.7752
 20
3.73877
 11
66.7182
 21
3.85072
  0
LINE
  8
0
 10
66.7182
 20
3.85072
 11
66.6683
 21
3.96602
  0
LINE
  8
0
 10
66.6683
 20
3.96602
 11
66.6257
 21
4.08424
  0
LINE
  8
0
 10
66.6257
 20
4.08424
 11
66.5907
 21
4.2049
  0
LINE
  8
0
 10
66.5907
 20
4.2049
 11
66.5633
 21
4.32751
  0
LINE
  8
0
 10
66.5633
 20
4.32751
 11
66.5436
 21
4.45161
  0
LINE
  8
0
 10
66.5436
 20
4.45161
 11
66.5318
 21
4.57669
  0
LINE
  8
0
 10
66.5318
 20
4.57669
 11
66.5279
 21
4.70227
  0
LINE
  8
0
 10
66.5279
 20
4.70227
 11
66.5318
 21
4.82785
  0
LINE
  8
0
 10
66.5318
 20
4.82785
 11
66.5436
 21
4.95294
  0
LINE
  8
0
 10
66.5436
 20
4.95294
 11
66.5633
 21
5.07704
  0
LINE
  8
0
 10
66.5633
 20
5.07704
 11
66.5907
 21
5.19966
  0
LINE
  8
0
 10
66.5907
 20
5.19966
 11
66.6257
 21
5.32031
  0
LINE
  8
0
 10
66.6257
 20
5.32031
 11
66.6683
 21
5.43852
  0
LINE
  8
0
 10
66.6683
 20
5.43852
 11
66.7182
 21
5.55383
  0
LINE
  8
0
 10
66.7182
 20
5.55383
 11
66.7752
 21
5.66579
  0
LINE
  8
0
 10
66.7752
 20
5.66579
 11
66.8392
 21
5.77393
  0
LINE
  8
0
 10
66.8392
 20
5.77393
 11
66.9098
 21
5.87784
  0
LINE
  8
0
 10
66.9098
 20
5.87784
 11
66.9868
 21
5.97713
  0
LINE
  8
0
 10
66.9868
 20
5.97713
 11
67.0699
 21
6.07137
  0
LINE
  8
0
 10
67.0699
 20
6.07137
 11
67.1588
 21
6.16022
  0
LINE
  8
0
 10
67.1588
 20
6.16022
 11
67.253
 21
6.2433
  0
LINE
  8
0
 10
67.253
 20
6.2433
 11
67.3523
 21
6.32031
  0
LINE
  8
0
 10
67.3523
 20
6.32031
 11
67.4562
 21
6.39093
  0
LINE
  8
0
 10
67.4562
 20
6.39093
 11
67.5643
 21
6.4549
  0
LINE
  8
0
 10
67.5643
 20
6.4549
 11
67.6763
 21
6.51193
  0
LINE
  8
0
 10
67.6763
 20
6.51193
 11
67.7916
 21
6.56183
  0
LINE
  8
0
 10
67.7916
 20
6.56183
 11
67.9098
 21
6.60439
  0
LINE
  8
0
 10
67.9098
 20
6.60439
 11
68.0305
 21
6.63943
  0
LINE
  8
0
 10
68.0305
 20
6.63943
 11
68.1531
 21
6.66685
  0
LINE
  8
0
 10
68.1531
 20
6.66685
 11
68.2772
 21
6.68651
  0
LINE
  8
0
 10
68.2772
 20
6.68651
 11
68.4023
 21
6.69833
  0
LINE
  8
0
 10
68.4023
 20
6.69833
 11
68.5279
 21
6.70227
  0
LINE
  8
0
 10
68.5279
 20
6.70227
 11
68.6534
 21
6.69833
  0
LINE
  8
0
 10
68.6534
 20
6.69833
 11
68.7785
 21
6.68651
  0
LINE
  8
0
 10
68.7785
 20
6.68651
 11
68.9026
 21
6.66685
  0
LINE
  8
0
 10
68.9026
 20
6.66685
 11
69.0252
 21
6.63943
  0
LINE
  8
0
 10
69.0252
 20
6.63943
 11
69.1459
 21
6.60439
  0
LINE
  8
0
 10
69.1459
 20
6.60439
 11
69.2641
 21
6.56183
  0
LINE
  8
0
 10
69.2641
 20
6.56183
 11
69.3794
 21
6.51193
  0
LINE
  8
0
 10
69.3794
 20
6.51193
 11
69.4914
 21
6.4549
  0
LINE
  8
0
 10
69.4914
 20
6.4549
 11
69.5995
 21
6.39093
  0
LINE
  8
0
 10
69.5995
 20
6.39093
 11
69.7034
 21
6.32031
  0
LINE
  8
0
 10
69.7034
 20
6.32031
 11
69.8027
 21
6.2433
  0
LINE
  8
0
 10
69.8027
 20
6.2433
 11
69.897
 21
6.16022
  0
LINE
  8
0
 10
69.897
 20
6.16022
 11
69.9858
 21
6.07137
  0
LINE
  8
0
 10
69.9858
 20
6.07137
 11
70.0689
 21
5.97713
  0
LINE
  8
0
 10
70.0689
 20
5.97713
 11
70.1459
 21
5.87784
  0
LINE
  8
0
 10
70.1459
 20
5.87784
 11
70.2165
 21
5.77393
  0
LINE
  8
0
 10
70.2165
 20
5.77393
 11
70.2805
 21
5.66579
  0
LINE
  8
0
 10
70.2805
 20
5.66579
 11
70.3375
 21
5.55383
  0
LINE
  8
0
 10
70.3375
 20
5.55383
 11
70.3874
 21
5.43852
  0
LINE
  8
0
 10
70.3874
 20
5.43852
 11
70.43
 21
5.32031
  0
LINE
  8
0
 10
70.43
 20
5.32031
 11
70.465
 21
5.19966
  0
LINE
  8
0
 10
70.465
 20
5.19966
 11
70.4924
 21
5.07704
  0
LINE
  8
0
 10
70.4924
 20
5.07704
 11
70.5121
 21
4.95294
  0
LINE
  8
0
 10
70.5121
 20
4.95294
 11
70.5239
 21
4.82785
  0
LINE
  8
0
 10
70.5239
 20
4.82785
 11
70.5279
 21
4.70227
  0
LINE
  8
0
 10
70.5279
 20
4.70227
 11
70.5239
 21
4.57669
  0
LINE
  8
0
 10
70.5239
 20
4.57669
 11
70.5121
 21
4.45161
  0
LINE
  8
0
 10
70.5121
 20
4.45161
 11
70.4924
 21
4.32751
  0
LINE
  8
0
 10
70.4924
 20
4.32751
 11
70.465
 21
4.2049
  0
LINE
  8
0
 10
70.465
 20
4.2049
 11
70.43
 21
4.08424
  0
LINE
  8
0
 10
70.43
 20
4.08424
 11
70.3874
 21
3.96602
  0
LINE
  8
0
 10
70.3874
 20
3.96602
 11
70.3375
 21
3.85072
  0
LINE
  8
0
 10
70.3375
 20
3.85072
 11
70.2805
 21
3.73877
  0
LINE
  8
0
 10
70.2805
 20
3.73877
 11
70.2165
 21
3.63062
  0
LINE
  8
0
 10
70.2165
 20
3.63062
 11
70.1459
 21
3.5267
  0
LINE
  8
0
 10
70.1459
 20
3.5267
 11
70.0689
 21
3.42743
  0
LINE
  8
0
 10
70.0689
 20
3.42743
 11
69.9858
 21
3.33318
  0
LINE
  8
0
 10
69.9858
 20
3.33318
 11
69.897
 21
3.24434
  0
LINE
  8
0
 10
69.897
 20
3.24434
 11
69.8027
 21
3.16125
  0
LINE
  8
0
 10
69.8027
 20
3.16125
 11
69.7034
 21
3.08424
  0
LINE
  8
0
 10
69.7034
 20
3.08424
 11
69.5995
 21
3.01363
  0
LINE
  8
0
 10
69.5995
 20
3.01363
 11
69.4914
 21
2.94966
  0
LINE
  8
0
 10
69.4914
 20
2.94966
 11
69.3794
 21
2.89262
  0
LINE
  8
0
 10
69.3794
 20
2.89262
 11
69.2641
 21
2.84273
  0
LINE
  8
0
 10
69.2641
 20
2.84273
 11
69.1459
 21
2.80016
  0
LINE
  8
0
 10
69.1459
 20
2.80016
 11
69.0252
 21
2.76511
  0
LINE
  8
0
 10
69.0252
 20
2.76511
 11
68.9026
 21
2.7377
  0
LINE
  8
0
 10
68.9026
 20
2.7377
 11
68.7785
 21
2.71805
  0
LINE
  8
0
 10
68.7785
 20
2.71805
 11
68.6534
 21
2.70622
  0
LINE
  8
0
 10
68.6534
 20
2.70622
 11
68.5279
 21
2.70227
  0
LINE
  8
0
 10
68.5279
 20
2.70227
 11
68.4023
 21
2.70622
  0
ENDSEC
  0
SECTION
  2
OBJECTS
  0
DICTIONARY
  0
ENDSEC
  0
EOF
