  0
SECTION
  2
BLOCKS
  0
ENDSEC
  0
SECTION
  2
ENTITIES
  0
LINE
  8
0
 10
0
 20
230.826
 11
-75
 21
0
  0
LINE
  8
0
 10
-75
 20
0
 11
75
 21
0
  0
LINE
  8
0
 10
75
 20
0
 11
0
 21
230.826
  0
LINE
  8
0
 10
-0.12558
 20
212.83
 11
-0.250656
 21
212.842
  0
LINE
  8
0
 10
-0.250656
 20
212.842
 11
-0.374756
 21
212.862
  0
LINE
  8
0
 10
-0.374756
 20
212.862
 11
-0.497375
 21
212.889
  0
LINE
  8
0
 10
-0.497375
 20
212.889
 11
-0.618027
 21
212.924
  0
LINE
  8
0
 10
-0.618027
 20
212.924
 11
-0.736237
 21
212.967
  0
LINE
  8
0
 10
-0.736237
 20
212.967
 11
-0.851547
 21
213.017
  0
LINE
  8
0
 10
-0.851547
 20
213.017
 11
-0.963501
 21
213.074
  0
LINE
  8
0
 10
-0.963501
 20
213.074
 11
-1.07164
 21
213.138
  0
LINE
  8
0
 10
-1.07164
 20
213.138
 11
-1.17557
 21
213.208
  0
LINE
  8
0
 10
-1.17557
 20
213.208
 11
-1.27484
 21
213.285
  0
LINE
  8
0
 10
-1.27484
 20
213.285
 11
-1.36908
 21
213.368
  0
LINE
  8
0
 10
-1.36908
 20
213.368
 11
-1.45793
 21
213.457
  0
LINE
  8
0
 10
-1.45793
 20
213.457
 11
-1.54102
 21
213.551
  0
LINE
  8
0
 10
-1.54102
 20
213.551
 11
-1.61803
 21
213.651
  0
LINE
  8
0
 10
-1.61803
 20
213.651
 11
-1.68864
 21
213.755
  0
LINE
  8
0
 10
-1.68864
 20
213.755
 11
-1.75261
 21
213.863
  0
LINE
  8
0
 10
-1.75261
 20
213.863
 11
-1.80965
 21
213.975
  0
LINE
  8
0
 10
-1.80965
 20
213.975
 11
-1.85954
 21
214.09
  0
LINE
  8
0
 10
-1.85954
 20
214.09
 11
-1.9021
 21
214.208
  0
LINE
  8
0
 10
-1.9021
 20
214.208
 11
-1.93716
 21
214.329
  0
LINE
  8
0
 10
-1.93716
 20
214.329
 11
-1.96457
 21
214.451
  0
LINE
  8
0
 10
-1.96457
 20
214.451
 11
-1.98422
 21
214.576
  0
LINE
  8
0
 10
-1.98422
 20
214.576
 11
-1.99605
 21
214.701
  0
LINE
  8
0
 10
-1.99605
 20
214.701
 11
-2
 21
214.826
  0
LINE
  8
0
 10
-2
 20
214.826
 11
-1.99605
 21
214.952
  0
LINE
  8
0
 10
-1.99605
 20
214.952
 11
-1.98422
 21
215.077
  0
LINE
  8
0
 10
-1.98422
 20
215.077
 11
-1.96457
 21
215.201
  0
LINE
  8
0
 10
-1.96457
 20
215.201
 11
-1.93716
 21
215.324
  0
LINE
  8
0
 10
-1.93716
 20
215.324
 11
-1.9021
 21
215.444
  0
LINE
  8
0
 10
-1.9021
 20
215.444
 11
-1.85954
 21
215.562
  0
LINE
  8
0
 10
-1.85954
 20
215.562
 11
-1.80965
 21
215.678
  0
LINE
  8
0
 10
-1.80965
 20
215.678
 11
-1.75261
 21
215.79
  0
LINE
  8
0
 10
-1.75261
 20
215.79
 11
-1.68864
 21
215.898
  0
LINE
  8
0
 10
-1.68864
 20
215.898
 11
-1.61803
 21
216.002
  0
LINE
  8
0
 10
-1.61803
 20
216.002
 11
-1.54102
 21
216.101
  0
LINE
  8
0
 10
-1.54102
 20
216.101
 11
-1.45793
 21
216.195
  0
LINE
  8
0
 10
-1.45793
 20
216.195
 11
-1.36908
 21
216.284
  0
LINE
  8
0
 10
-1.36908
 20
216.284
 11
-1.27484
 21
216.367
  0
LINE
  8
0
 10
-1.27484
 20
216.367
 11
-1.17557
 21
216.444
  0
LINE
  8
0
 10
-1.17557
 20
216.444
 11
-1.07164
 21
216.515
  0
LINE
  8
0
 10
-1.07164
 20
216.515
 11
-0.963501
 21
216.579
  0
LINE
  8
0
 10
-0.963501
 20
216.579
 11
-0.851547
 21
216.636
  0
LINE
  8
0
 10
-0.851547
 20
216.636
 11
-0.736237
 21
216.686
  0
LINE
  8
0
 10
-0.736237
 20
216.686
 11
-0.618027
 21
216.728
  0
LINE
  8
0
 10
-0.618027
 20
216.728
 11
-0.497375
 21
216.763
  0
LINE
  8
0
 10
-0.497375
 20
216.763
 11
-0.374756
 21
216.791
  0
LINE
  8
0
 10
-0.374756
 20
216.791
 11
-0.250656
 21
216.81
  0
LINE
  8
0
 10
-0.250656
 20
216.81
 11
-0.12558
 21
216.822
  0
LINE
  8
0
 10
-0.12558
 20
216.822
 11
0
 21
216.826
  0
LINE
  8
0
 10
0
 20
216.826
 11
0.12558
 21
216.822
  0
LINE
  8
0
 10
0.12558
 20
216.822
 11
0.250656
 21
216.81
  0
LINE
  8
0
 10
0.250656
 20
216.81
 11
0.374756
 21
216.791
  0
LINE
  8
0
 10
0.374756
 20
216.791
 11
0.497375
 21
216.763
  0
LINE
  8
0
 10
0.497375
 20
216.763
 11
0.618027
 21
216.728
  0
LINE
  8
0
 10
0.618027
 20
216.728
 11
0.736237
 21
216.686
  0
LINE
  8
0
 10
0.736237
 20
216.686
 11
0.851547
 21
216.636
  0
LINE
  8
0
 10
0.851547
 20
216.636
 11
0.963501
 21
216.579
  0
LINE
  8
0
 10
0.963501
 20
216.579
 11
1.07164
 21
216.515
  0
LINE
  8
0
 10
1.07164
 20
216.515
 11
1.17557
 21
216.444
  0
LINE
  8
0
 10
1.17557
 20
216.444
 11
1.27484
 21
216.367
  0
LINE
  8
0
 10
1.27484
 20
216.367
 11
1.36908
 21
216.284
  0
LINE
  8
0
 10
1.36908
 20
216.284
 11
1.45793
 21
216.195
  0
LINE
  8
0
 10
1.45793
 20
216.195
 11
1.54102
 21
216.101
  0
LINE
  8
0
 10
1.54102
 20
216.101
 11
1.61803
 21
216.002
  0
LINE
  8
0
 10
1.61803
 20
216.002
 11
1.68864
 21
215.898
  0
LINE
  8
0
 10
1.68864
 20
215.898
 11
1.75261
 21
215.79
  0
LINE
  8
0
 10
1.75261
 20
215.79
 11
1.80965
 21
215.678
  0
LINE
  8
0
 10
1.80965
 20
215.678
 11
1.85954
 21
215.562
  0
LINE
  8
0
 10
1.85954
 20
215.562
 11
1.9021
 21
215.444
  0
LINE
  8
0
 10
1.9021
 20
215.444
 11
1.93716
 21
215.324
  0
LINE
  8
0
 10
1.93716
 20
215.324
 11
1.96457
 21
215.201
  0
LINE
  8
0
 10
1.96457
 20
215.201
 11
1.98422
 21
215.077
  0
LINE
  8
0
 10
1.98422
 20
215.077
 11
1.99605
 21
214.952
  0
LINE
  8
0
 10
1.99605
 20
214.952
 11
2
 21
214.826
  0
LINE
  8
0
 10
2
 20
214.826
 11
1.99605
 21
214.701
  0
LINE
  8
0
 10
1.99605
 20
214.701
 11
1.98422
 21
214.576
  0
LINE
  8
0
 10
1.98422
 20
214.576
 11
1.96457
 21
214.451
  0
LINE
  8
0
 10
1.96457
 20
214.451
 11
1.93716
 21
214.329
  0
LINE
  8
0
 10
1.93716
 20
214.329
 11
1.9021
 21
214.208
  0
LINE
  8
0
 10
1.9021
 20
214.208
 11
1.85954
 21
214.09
  0
LINE
  8
0
 10
1.85954
 20
214.09
 11
1.80965
 21
213.975
  0
LINE
  8
0
 10
1.80965
 20
213.975
 11
1.75261
 21
213.863
  0
LINE
  8
0
 10
1.75261
 20
213.863
 11
1.68864
 21
213.755
  0
LINE
  8
0
 10
1.68864
 20
213.755
 11
1.61803
 21
213.651
  0
LINE
  8
0
 10
1.61803
 20
213.651
 11
1.54102
 21
213.551
  0
LINE
  8
0
 10
1.54102
 20
213.551
 11
1.45793
 21
213.457
  0
LINE
  8
0
 10
1.45793
 20
213.457
 11
1.36908
 21
213.368
  0
LINE
  8
0
 10
1.36908
 20
213.368
 11
1.27484
 21
213.285
  0
LINE
  8
0
 10
1.27484
 20
213.285
 11
1.17557
 21
213.208
  0
LINE
  8
0
 10
1.17557
 20
213.208
 11
1.07164
 21
213.138
  0
LINE
  8
0
 10
1.07164
 20
213.138
 11
0.963501
 21
213.074
  0
LINE
  8
0
 10
0.963501
 20
213.074
 11
0.851547
 21
213.017
  0
LINE
  8
0
 10
0.851547
 20
213.017
 11
0.736237
 21
212.967
  0
LINE
  8
0
 10
0.736237
 20
212.967
 11
0.618027
 21
212.924
  0
LINE
  8
0
 10
0.618027
 20
212.924
 11
0.497375
 21
212.889
  0
LINE
  8
0
 10
0.497375
 20
212.889
 11
0.374756
 21
212.862
  0
LINE
  8
0
 10
0.374756
 20
212.862
 11
0.250656
 21
212.842
  0
LINE
  8
0
 10
0.250656
 20
212.842
 11
0.12558
 21
212.83
  0
LINE
  8
0
 10
0.12558
 20
212.83
 11
0
 21
212.826
  0
LINE
  8
0
 10
0
 20
212.826
 11
-0.12558
 21
212.83
  0
LINE
  8
0
 10
0.739136
 20
189.57
 11
0.00427246
 21
191.248
  0
LINE
  8
0
 10
0.00427246
 20
191.248
 11
0.00427246
 21
191.269
  0
LINE
  8
0
 10
0.00427246
 20
191.269
 11
-0.000610352
 21
191.259
  0
LINE
  8
0
 10
-0.000610352
 20
191.259
 11
-0.00427246
 21
191.267
  0
LINE
  8
0
 10
-0.00427246
 20
191.267
 11
-0.00427246
 21
191.249
  0
LINE
  8
0
 10
-0.00427246
 20
191.249
 11
-0.739136
 21
189.57
  0
LINE
  8
0
 10
-0.739136
 20
189.57
 11
-0.879654
 21
189.286
  0
LINE
  8
0
 10
-0.879654
 20
189.286
 11
0
 21
191.993
  0
LINE
  8
0
 10
0
 20
191.993
 11
0.879654
 21
189.286
  0
LINE
  8
0
 10
0.879654
 20
189.286
 11
0.739136
 21
189.57
  0
LINE
  8
0
 10
2.56897
 20
167.654
 11
1.46301
 21
169.065
  0
LINE
  8
0
 10
1.46301
 20
169.065
 11
0.532837
 21
170.561
  0
LINE
  8
0
 10
0.532837
 20
170.561
 11
0.00427246
 21
171.664
  0
LINE
  8
0
 10
0.00427246
 20
171.664
 11
0.00427246
 21
171.685
  0
LINE
  8
0
 10
0.00427246
 20
171.685
 11
-0.000610352
 21
171.674
  0
LINE
  8
0
 10
-0.000610352
 20
171.674
 11
-0.00427246
 21
171.682
  0
LINE
  8
0
 10
-0.00427246
 20
171.682
 11
-0.00427246
 21
171.667
  0
LINE
  8
0
 10
-0.00427246
 20
171.667
 11
-0.532837
 21
170.561
  0
LINE
  8
0
 10
-0.532837
 20
170.561
 11
-1.46362
 21
169.064
  0
LINE
  8
0
 10
-1.46362
 20
169.064
 11
-2.56897
 21
167.654
  0
LINE
  8
0
 10
-2.56897
 20
167.654
 11
-3.84521
 21
166.333
  0
LINE
  8
0
 10
-3.84521
 20
166.333
 11
-5.35706
 21
168.415
  0
LINE
  8
0
 10
-5.35706
 20
168.415
 11
-6.68152
 21
170.449
  0
LINE
  8
0
 10
-6.68152
 20
170.449
 11
-6.8848
 21
170.804
  0
LINE
  8
0
 10
-6.8848
 20
170.804
 11
-4.77249
 21
177.305
  0
LINE
  8
0
 10
-4.77249
 20
177.305
 11
-4.28589
 21
177.123
  0
LINE
  8
0
 10
-4.28589
 20
177.123
 11
-3.5083
 21
177.424
  0
LINE
  8
0
 10
-3.5083
 20
177.424
 11
-2.75574
 21
178.325
  0
LINE
  8
0
 10
-2.75574
 20
178.325
 11
-2.02942
 21
179.825
  0
LINE
  8
0
 10
-2.02942
 20
179.825
 11
-1.3269
 21
181.925
  0
LINE
  8
0
 10
-1.3269
 20
181.925
 11
-0.649414
 21
184.625
  0
LINE
  8
0
 10
-0.649414
 20
184.625
 11
0
 21
187.905
  0
LINE
  8
0
 10
0
 20
187.905
 11
0.649414
 21
184.626
  0
LINE
  8
0
 10
0.649414
 20
184.626
 11
1.3269
 21
181.926
  0
LINE
  8
0
 10
1.3269
 20
181.926
 11
2.02942
 21
179.826
  0
LINE
  8
0
 10
2.02942
 20
179.826
 11
2.75574
 21
178.325
  0
LINE
  8
0
 10
2.75574
 20
178.325
 11
3.5083
 21
177.424
  0
LINE
  8
0
 10
3.5083
 20
177.424
 11
4.28589
 21
177.123
  0
LINE
  8
0
 10
4.28589
 20
177.123
 11
4.77249
 21
177.305
  0
LINE
  8
0
 10
4.77249
 20
177.305
 11
6.88472
 21
170.804
  0
LINE
  8
0
 10
6.88472
 20
170.804
 11
6.68091
 21
170.448
  0
LINE
  8
0
 10
6.68091
 20
170.448
 11
5.35645
 21
168.414
  0
LINE
  8
0
 10
5.35645
 20
168.414
 11
3.84583
 21
166.333
  0
LINE
  8
0
 10
3.84583
 20
166.333
 11
2.56897
 21
167.654
  0
LINE
  8
0
 10
10.6427
 20
148.415
 11
9.31824
 21
150.449
  0
LINE
  8
0
 10
9.31824
 20
150.449
 11
8.18542
 21
152.43
  0
LINE
  8
0
 10
8.18542
 20
152.43
 11
7.24182
 21
154.36
  0
LINE
  8
0
 10
7.24182
 20
154.36
 11
6.48926
 21
156.238
  0
LINE
  8
0
 10
6.48926
 20
156.238
 11
5.92712
 21
158.063
  0
LINE
  8
0
 10
5.92712
 20
158.063
 11
5.55542
 21
159.836
  0
LINE
  8
0
 10
5.55542
 20
159.836
 11
5.37354
 21
161.558
  0
LINE
  8
0
 10
5.37354
 20
161.558
 11
5.38208
 21
163.228
  0
LINE
  8
0
 10
5.38208
 20
163.228
 11
5.58105
 21
164.845
  0
LINE
  8
0
 10
5.58105
 20
164.845
 11
5.96985
 21
166.412
  0
LINE
  8
0
 10
5.96985
 20
166.412
 11
6.54541
 21
167.914
  0
LINE
  8
0
 10
6.54541
 20
167.914
 11
7.4646
 21
164.625
  0
LINE
  8
0
 10
7.4646
 20
164.625
 11
8.36304
 21
161.925
  0
LINE
  8
0
 10
8.36304
 20
161.925
 11
9.23645
 21
159.825
  0
LINE
  8
0
 10
9.23645
 20
159.825
 11
10.0861
 21
158.325
  0
LINE
  8
0
 10
10.0861
 20
158.325
 11
10.9113
 21
157.424
  0
LINE
  8
0
 10
10.9113
 20
157.424
 11
11.2769
 21
157.287
  0
LINE
  8
0
 10
11.2769
 20
157.287
 11
14.1208
 21
148.534
  0
LINE
  8
0
 10
14.1208
 20
148.534
 11
13.4308
 21
147.654
  0
LINE
  8
0
 10
13.4308
 20
147.654
 11
12.1545
 21
146.333
  0
LINE
  8
0
 10
12.1545
 20
146.333
 11
10.6427
 21
148.415
  0
LINE
  8
0
 10
-13.4308
 20
147.654
 11
-14.1207
 21
148.534
  0
LINE
  8
0
 10
-14.1207
 20
148.534
 11
-11.2769
 21
157.287
  0
LINE
  8
0
 10
-11.2769
 20
157.287
 11
-10.9113
 21
157.424
  0
LINE
  8
0
 10
-10.9113
 20
157.424
 11
-10.0861
 21
158.325
  0
LINE
  8
0
 10
-10.0861
 20
158.325
 11
-9.23645
 21
159.825
  0
LINE
  8
0
 10
-9.23645
 20
159.825
 11
-8.36304
 21
161.924
  0
LINE
  8
0
 10
-8.36304
 20
161.924
 11
-7.4646
 21
164.625
  0
LINE
  8
0
 10
-7.4646
 20
164.625
 11
-6.54541
 21
167.914
  0
LINE
  8
0
 10
-6.54541
 20
167.914
 11
-5.96985
 21
166.411
  0
LINE
  8
0
 10
-5.96985
 20
166.411
 11
-5.58105
 21
164.845
  0
LINE
  8
0
 10
-5.58105
 20
164.845
 11
-5.38208
 21
163.227
  0
LINE
  8
0
 10
-5.38208
 20
163.227
 11
-5.37354
 21
161.556
  0
LINE
  8
0
 10
-5.37354
 20
161.556
 11
-5.55542
 21
159.836
  0
LINE
  8
0
 10
-5.55542
 20
159.836
 11
-5.92712
 21
158.063
  0
LINE
  8
0
 10
-5.92712
 20
158.063
 11
-6.48926
 21
156.237
  0
LINE
  8
0
 10
-6.48926
 20
156.237
 11
-7.24182
 21
154.359
  0
LINE
  8
0
 10
-7.24182
 20
154.359
 11
-8.18542
 21
152.43
  0
LINE
  8
0
 10
-8.18542
 20
152.43
 11
-9.31885
 21
150.448
  0
LINE
  8
0
 10
-9.31885
 20
150.448
 11
-10.6433
 21
148.414
  0
LINE
  8
0
 10
-10.6433
 20
148.414
 11
-12.1539
 21
146.333
  0
LINE
  8
0
 10
-12.1539
 20
146.333
 11
-13.4308
 21
147.654
  0
LINE
  8
0
 10
-0.17395
 20
163.11
 11
-0.346069
 21
163.135
  0
LINE
  8
0
 10
-0.346069
 20
163.135
 11
-0.514526
 21
163.177
  0
LINE
  8
0
 10
-0.514526
 20
163.177
 11
-0.678101
 21
163.235
  0
LINE
  8
0
 10
-0.678101
 20
163.235
 11
-0.835571
 21
163.31
  0
LINE
  8
0
 10
-0.835571
 20
163.31
 11
-0.985107
 21
163.4
  0
LINE
  8
0
 10
-0.985107
 20
163.4
 11
-1.12427
 21
163.503
  0
LINE
  8
0
 10
-1.12427
 20
163.503
 11
-1.25366
 21
163.62
  0
LINE
  8
0
 10
-1.25366
 20
163.62
 11
-1.37024
 21
163.749
  0
LINE
  8
0
 10
-1.37024
 20
163.749
 11
-1.474
 21
163.889
  0
LINE
  8
0
 10
-1.474
 20
163.889
 11
-1.56311
 21
164.037
  0
LINE
  8
0
 10
-1.56311
 20
164.037
 11
-1.63757
 21
164.196
  0
LINE
  8
0
 10
-1.63757
 20
164.196
 11
-1.69617
 21
164.359
  0
LINE
  8
0
 10
-1.69617
 20
164.359
 11
-1.73889
 21
164.528
  0
LINE
  8
0
 10
-1.73889
 20
164.528
 11
-1.76453
 21
164.7
  0
LINE
  8
0
 10
-1.76453
 20
164.7
 11
-1.77246
 21
164.874
  0
LINE
  8
0
 10
-1.77246
 20
164.874
 11
-1.76392
 21
165.048
  0
LINE
  8
0
 10
-1.76392
 20
165.048
 11
-1.73828
 21
165.22
  0
LINE
  8
0
 10
-1.73828
 20
165.22
 11
-1.69617
 21
165.388
  0
LINE
  8
0
 10
-1.69617
 20
165.388
 11
-1.63757
 21
165.552
  0
LINE
  8
0
 10
-1.63757
 20
165.552
 11
-1.56311
 21
165.709
  0
LINE
  8
0
 10
-1.56311
 20
165.709
 11
-1.474
 21
165.858
  0
LINE
  8
0
 10
-1.474
 20
165.858
 11
-1.37024
 21
165.999
  0
LINE
  8
0
 10
-1.37024
 20
165.999
 11
-1.25366
 21
166.127
  0
LINE
  8
0
 10
-1.25366
 20
166.127
 11
-1.12427
 21
166.244
  0
LINE
  8
0
 10
-1.12427
 20
166.244
 11
-0.985107
 21
166.347
  0
LINE
  8
0
 10
-0.985107
 20
166.347
 11
-0.835571
 21
166.437
  0
LINE
  8
0
 10
-0.835571
 20
166.437
 11
-0.678101
 21
166.511
  0
LINE
  8
0
 10
-0.678101
 20
166.511
 11
-0.514526
 21
166.57
  0
LINE
  8
0
 10
-0.514526
 20
166.57
 11
-0.344849
 21
166.613
  0
LINE
  8
0
 10
-0.344849
 20
166.613
 11
-0.17334
 21
166.638
  0
LINE
  8
0
 10
-0.17334
 20
166.638
 11
0
 21
166.647
  0
LINE
  8
0
 10
0
 20
166.647
 11
0.17395
 21
166.638
  0
LINE
  8
0
 10
0.17395
 20
166.638
 11
0.346069
 21
166.613
  0
LINE
  8
0
 10
0.346069
 20
166.613
 11
0.514526
 21
166.57
  0
LINE
  8
0
 10
0.514526
 20
166.57
 11
0.678101
 21
166.511
  0
LINE
  8
0
 10
0.678101
 20
166.511
 11
0.835571
 21
166.437
  0
LINE
  8
0
 10
0.835571
 20
166.437
 11
0.985107
 21
166.347
  0
LINE
  8
0
 10
0.985107
 20
166.347
 11
1.12427
 21
166.244
  0
LINE
  8
0
 10
1.12427
 20
166.244
 11
1.25366
 21
166.127
  0
LINE
  8
0
 10
1.25366
 20
166.127
 11
1.37024
 21
165.999
  0
LINE
  8
0
 10
1.37024
 20
165.999
 11
1.474
 21
165.858
  0
LINE
  8
0
 10
1.474
 20
165.858
 11
1.56311
 21
165.709
  0
LINE
  8
0
 10
1.56311
 20
165.709
 11
1.63757
 21
165.552
  0
LINE
  8
0
 10
1.63757
 20
165.552
 11
1.69617
 21
165.388
  0
LINE
  8
0
 10
1.69617
 20
165.388
 11
1.73889
 21
165.219
  0
LINE
  8
0
 10
1.73889
 20
165.219
 11
1.76453
 21
165.047
  0
LINE
  8
0
 10
1.76453
 20
165.047
 11
1.77246
 21
164.874
  0
LINE
  8
0
 10
1.77246
 20
164.874
 11
1.76392
 21
164.699
  0
LINE
  8
0
 10
1.76392
 20
164.699
 11
1.73828
 21
164.527
  0
LINE
  8
0
 10
1.73828
 20
164.527
 11
1.69617
 21
164.359
  0
LINE
  8
0
 10
1.69617
 20
164.359
 11
1.63757
 21
164.195
  0
LINE
  8
0
 10
1.63757
 20
164.195
 11
1.56311
 21
164.037
  0
LINE
  8
0
 10
1.56311
 20
164.037
 11
1.47339
 21
163.888
  0
LINE
  8
0
 10
1.47339
 20
163.888
 11
1.37024
 21
163.749
  0
LINE
  8
0
 10
1.37024
 20
163.749
 11
1.25305
 21
163.619
  0
LINE
  8
0
 10
1.25305
 20
163.619
 11
1.12427
 21
163.503
  0
LINE
  8
0
 10
1.12427
 20
163.503
 11
0.985107
 21
163.4
  0
LINE
  8
0
 10
0.985107
 20
163.4
 11
0.835571
 21
163.31
  0
LINE
  8
0
 10
0.835571
 20
163.31
 11
0.678101
 21
163.235
  0
LINE
  8
0
 10
0.678101
 20
163.235
 11
0.514526
 21
163.177
  0
LINE
  8
0
 10
0.514526
 20
163.177
 11
0.344849
 21
163.135
  0
LINE
  8
0
 10
0.344849
 20
163.135
 11
0.17334
 21
163.109
  0
LINE
  8
0
 10
0.17334
 20
163.109
 11
0
 21
163.101
  0
LINE
  8
0
 10
0
 20
163.101
 11
-0.17395
 21
163.11
  0
LINE
  8
0
 10
3.14453
 20
145.903
 11
2.62329
 21
146.36
  0
LINE
  8
0
 10
2.62329
 20
146.36
 11
2.04895
 21
147.124
  0
LINE
  8
0
 10
2.04895
 20
147.124
 11
1.4209
 21
148.194
  0
LINE
  8
0
 10
1.4209
 20
148.194
 11
0.739136
 21
149.57
  0
LINE
  8
0
 10
0.739136
 20
149.57
 11
0.00427246
 21
151.248
  0
LINE
  8
0
 10
0.00427246
 20
151.248
 11
0.00427246
 21
151.269
  0
LINE
  8
0
 10
0.00427246
 20
151.269
 11
-0.000610352
 21
151.259
  0
LINE
  8
0
 10
-0.000610352
 20
151.259
 11
-0.00427246
 21
151.267
  0
LINE
  8
0
 10
-0.00427246
 20
151.267
 11
-0.00427246
 21
151.249
  0
LINE
  8
0
 10
-0.00427246
 20
151.249
 11
-0.739136
 21
149.57
  0
LINE
  8
0
 10
-0.739136
 20
149.57
 11
-1.4209
 21
148.194
  0
LINE
  8
0
 10
-1.4209
 20
148.194
 11
-2.04956
 21
147.123
  0
LINE
  8
0
 10
-2.04956
 20
147.123
 11
-2.6239
 21
146.36
  0
LINE
  8
0
 10
-2.6239
 20
146.36
 11
-3.14453
 21
145.903
  0
LINE
  8
0
 10
-3.14453
 20
145.903
 11
-3.61145
 21
145.75
  0
LINE
  8
0
 10
-3.61145
 20
145.75
 11
-4.02344
 21
145.902
  0
LINE
  8
0
 10
-4.02344
 20
145.902
 11
-4.38477
 21
146.36
  0
LINE
  8
0
 10
-4.38477
 20
146.36
 11
-4.69177
 21
147.123
  0
LINE
  8
0
 10
-4.69177
 20
147.123
 11
-4.9469
 21
148.193
  0
LINE
  8
0
 10
-4.9469
 20
148.193
 11
-5.14832
 21
149.568
  0
LINE
  8
0
 10
-5.14832
 20
149.568
 11
-5.29602
 21
151.249
  0
LINE
  8
0
 10
-5.29602
 20
151.249
 11
0
 21
157.474
  0
LINE
  8
0
 10
0
 20
157.474
 11
5.29541
 21
151.249
  0
LINE
  8
0
 10
5.29541
 20
151.249
 11
5.14771
 21
149.568
  0
LINE
  8
0
 10
5.14771
 20
149.568
 11
4.94629
 21
148.193
  0
LINE
  8
0
 10
4.94629
 20
148.193
 11
4.69177
 21
147.122
  0
LINE
  8
0
 10
4.69177
 20
147.122
 11
4.38477
 21
146.36
  0
LINE
  8
0
 10
4.38477
 20
146.36
 11
4.02344
 21
145.902
  0
LINE
  8
0
 10
4.02344
 20
145.902
 11
3.61145
 21
145.75
  0
LINE
  8
0
 10
3.61145
 20
145.75
 11
3.14453
 21
145.903
  0
LINE
  8
0
 10
2.56897
 20
127.654
 11
1.46301
 21
129.065
  0
LINE
  8
0
 10
1.46301
 20
129.065
 11
0.532837
 21
130.561
  0
LINE
  8
0
 10
0.532837
 20
130.561
 11
0.00427246
 21
131.664
  0
LINE
  8
0
 10
0.00427246
 20
131.664
 11
0.00427246
 21
131.685
  0
LINE
  8
0
 10
0.00427246
 20
131.685
 11
-0.000610352
 21
131.674
  0
LINE
  8
0
 10
-0.000610352
 20
131.674
 11
-0.00427246
 21
131.682
  0
LINE
  8
0
 10
-0.00427246
 20
131.682
 11
-0.00427246
 21
131.667
  0
LINE
  8
0
 10
-0.00427246
 20
131.667
 11
-0.532837
 21
130.561
  0
LINE
  8
0
 10
-0.532837
 20
130.561
 11
-1.46362
 21
129.064
  0
LINE
  8
0
 10
-1.46362
 20
129.064
 11
-2.56897
 21
127.654
  0
LINE
  8
0
 10
-2.56897
 20
127.654
 11
-3.84521
 21
126.333
  0
LINE
  8
0
 10
-3.84521
 20
126.333
 11
-5.35706
 21
128.415
  0
LINE
  8
0
 10
-5.35706
 20
128.415
 11
-6.68152
 21
130.449
  0
LINE
  8
0
 10
-6.68152
 20
130.449
 11
-7.81433
 21
132.43
  0
LINE
  8
0
 10
-7.81433
 20
132.43
 11
-8.75793
 21
134.36
  0
LINE
  8
0
 10
-8.75793
 20
134.36
 11
-9.5105
 21
136.238
  0
LINE
  8
0
 10
-9.5105
 20
136.238
 11
-10.0726
 21
138.063
  0
LINE
  8
0
 10
-10.0726
 20
138.063
 11
-10.4443
 21
139.836
  0
LINE
  8
0
 10
-10.4443
 20
139.836
 11
-10.6262
 21
141.558
  0
LINE
  8
0
 10
-10.6262
 20
141.558
 11
-10.6177
 21
143.228
  0
LINE
  8
0
 10
-10.6177
 20
143.228
 11
-10.4187
 21
144.845
  0
LINE
  8
0
 10
-10.4187
 20
144.845
 11
-10.0299
 21
146.412
  0
LINE
  8
0
 10
-10.0299
 20
146.412
 11
-9.45435
 21
147.914
  0
LINE
  8
0
 10
-9.45435
 20
147.914
 11
-8.53516
 21
144.625
  0
LINE
  8
0
 10
-8.53516
 20
144.625
 11
-7.63672
 21
141.925
  0
LINE
  8
0
 10
-7.63672
 20
141.925
 11
-6.76331
 21
139.825
  0
LINE
  8
0
 10
-6.76331
 20
139.825
 11
-5.9137
 21
138.325
  0
LINE
  8
0
 10
-5.9137
 20
138.325
 11
-5.0885
 21
137.424
  0
LINE
  8
0
 10
-5.0885
 20
137.424
 11
-4.28589
 21
137.123
  0
LINE
  8
0
 10
-4.28589
 20
137.123
 11
-3.5083
 21
137.424
  0
LINE
  8
0
 10
-3.5083
 20
137.424
 11
-2.75574
 21
138.325
  0
LINE
  8
0
 10
-2.75574
 20
138.325
 11
-2.02942
 21
139.825
  0
LINE
  8
0
 10
-2.02942
 20
139.825
 11
-1.3269
 21
141.925
  0
LINE
  8
0
 10
-1.3269
 20
141.925
 11
-0.649414
 21
144.625
  0
LINE
  8
0
 10
-0.649414
 20
144.625
 11
0
 21
147.905
  0
LINE
  8
0
 10
0
 20
147.905
 11
0.649414
 21
144.626
  0
LINE
  8
0
 10
0.649414
 20
144.626
 11
1.3269
 21
141.926
  0
LINE
  8
0
 10
1.3269
 20
141.926
 11
2.02942
 21
139.826
  0
LINE
  8
0
 10
2.02942
 20
139.826
 11
2.75574
 21
138.325
  0
LINE
  8
0
 10
2.75574
 20
138.325
 11
3.5083
 21
137.424
  0
LINE
  8
0
 10
3.5083
 20
137.424
 11
4.28589
 21
137.123
  0
LINE
  8
0
 10
4.28589
 20
137.123
 11
5.0885
 21
137.424
  0
LINE
  8
0
 10
5.0885
 20
137.424
 11
5.9137
 21
138.325
  0
LINE
  8
0
 10
5.9137
 20
138.325
 11
6.76331
 21
139.825
  0
LINE
  8
0
 10
6.76331
 20
139.825
 11
7.63672
 21
141.924
  0
LINE
  8
0
 10
7.63672
 20
141.924
 11
8.53516
 21
144.625
  0
LINE
  8
0
 10
8.53516
 20
144.625
 11
9.45435
 21
147.914
  0
LINE
  8
0
 10
9.45435
 20
147.914
 11
10.0299
 21
146.411
  0
LINE
  8
0
 10
10.0299
 20
146.411
 11
10.4187
 21
144.845
  0
LINE
  8
0
 10
10.4187
 20
144.845
 11
10.6177
 21
143.227
  0
LINE
  8
0
 10
10.6177
 20
143.227
 11
10.6262
 21
141.556
  0
LINE
  8
0
 10
10.6262
 20
141.556
 11
10.4443
 21
139.836
  0
LINE
  8
0
 10
10.4443
 20
139.836
 11
10.0726
 21
138.063
  0
LINE
  8
0
 10
10.0726
 20
138.063
 11
9.5105
 21
136.237
  0
LINE
  8
0
 10
9.5105
 20
136.237
 11
8.75793
 21
134.359
  0
LINE
  8
0
 10
8.75793
 20
134.359
 11
7.81433
 21
132.43
  0
LINE
  8
0
 10
7.81433
 20
132.43
 11
6.68091
 21
130.448
  0
LINE
  8
0
 10
6.68091
 20
130.448
 11
5.35645
 21
128.414
  0
LINE
  8
0
 10
5.35645
 20
128.414
 11
3.84583
 21
126.333
  0
LINE
  8
0
 10
3.84583
 20
126.333
 11
2.56897
 21
127.654
  0
LINE
  8
0
 10
-14.8673
 20
146.237
 11
-14.7461
 21
146.127
  0
LINE
  8
0
 10
-14.7461
 20
146.127
 11
-14.6295
 21
145.999
  0
LINE
  8
0
 10
-14.6295
 20
145.999
 11
-14.5258
 21
145.858
  0
LINE
  8
0
 10
-14.5258
 20
145.858
 11
-14.4366
 21
145.709
  0
LINE
  8
0
 10
-14.4366
 20
145.709
 11
-14.3622
 21
145.552
  0
LINE
  8
0
 10
-14.3622
 20
145.552
 11
-14.3036
 21
145.388
  0
LINE
  8
0
 10
-14.3036
 20
145.388
 11
-14.2609
 21
145.219
  0
LINE
  8
0
 10
-14.2609
 20
145.219
 11
-14.2352
 21
145.047
  0
LINE
  8
0
 10
-14.2352
 20
145.047
 11
-14.2273
 21
144.874
  0
LINE
  8
0
 10
-14.2273
 20
144.874
 11
-14.2358
 21
144.699
  0
LINE
  8
0
 10
-14.2358
 20
144.699
 11
-14.2615
 21
144.527
  0
LINE
  8
0
 10
-14.2615
 20
144.527
 11
-14.3036
 21
144.359
  0
LINE
  8
0
 10
-14.3036
 20
144.359
 11
-14.3622
 21
144.195
  0
LINE
  8
0
 10
-14.3622
 20
144.195
 11
-14.4366
 21
144.037
  0
LINE
  8
0
 10
-14.4366
 20
144.037
 11
-14.5264
 21
143.888
  0
LINE
  8
0
 10
-14.5264
 20
143.888
 11
-14.6295
 21
143.749
  0
LINE
  8
0
 10
-14.6295
 20
143.749
 11
-14.7467
 21
143.619
  0
LINE
  8
0
 10
-14.7467
 20
143.619
 11
-14.8755
 21
143.503
  0
LINE
  8
0
 10
-14.8755
 20
143.503
 11
-15.0146
 21
143.4
  0
LINE
  8
0
 10
-15.0146
 20
143.4
 11
-15.1642
 21
143.31
  0
LINE
  8
0
 10
-15.1642
 20
143.31
 11
-15.3217
 21
143.235
  0
LINE
  8
0
 10
-15.3217
 20
143.235
 11
-15.4852
 21
143.177
  0
LINE
  8
0
 10
-15.4852
 20
143.177
 11
-15.6549
 21
143.135
  0
LINE
  8
0
 10
-15.6549
 20
143.135
 11
-15.8264
 21
143.109
  0
LINE
  8
0
 10
-15.8264
 20
143.109
 11
-15.8844
 21
143.106
  0
LINE
  8
0
 10
-15.8844
 20
143.106
 11
-14.8673
 21
146.237
  0
LINE
  8
0
 10
15.8258
 20
143.11
 11
15.6537
 21
143.135
  0
LINE
  8
0
 10
15.6537
 20
143.135
 11
15.4852
 21
143.177
  0
LINE
  8
0
 10
15.4852
 20
143.177
 11
15.3217
 21
143.235
  0
LINE
  8
0
 10
15.3217
 20
143.235
 11
15.1642
 21
143.31
  0
LINE
  8
0
 10
15.1642
 20
143.31
 11
15.0146
 21
143.4
  0
LINE
  8
0
 10
15.0146
 20
143.4
 11
14.8755
 21
143.503
  0
LINE
  8
0
 10
14.8755
 20
143.503
 11
14.7461
 21
143.62
  0
LINE
  8
0
 10
14.7461
 20
143.62
 11
14.6295
 21
143.749
  0
LINE
  8
0
 10
14.6295
 20
143.749
 11
14.5258
 21
143.889
  0
LINE
  8
0
 10
14.5258
 20
143.889
 11
14.4366
 21
144.037
  0
LINE
  8
0
 10
14.4366
 20
144.037
 11
14.3622
 21
144.196
  0
LINE
  8
0
 10
14.3622
 20
144.196
 11
14.3036
 21
144.359
  0
LINE
  8
0
 10
14.3036
 20
144.359
 11
14.2609
 21
144.528
  0
LINE
  8
0
 10
14.2609
 20
144.528
 11
14.2352
 21
144.7
  0
LINE
  8
0
 10
14.2352
 20
144.7
 11
14.2273
 21
144.874
  0
LINE
  8
0
 10
14.2273
 20
144.874
 11
14.2358
 21
145.048
  0
LINE
  8
0
 10
14.2358
 20
145.048
 11
14.2615
 21
145.22
  0
LINE
  8
0
 10
14.2615
 20
145.22
 11
14.3036
 21
145.388
  0
LINE
  8
0
 10
14.3036
 20
145.388
 11
14.3622
 21
145.552
  0
LINE
  8
0
 10
14.3622
 20
145.552
 11
14.4366
 21
145.709
  0
LINE
  8
0
 10
14.4366
 20
145.709
 11
14.5258
 21
145.858
  0
LINE
  8
0
 10
14.5258
 20
145.858
 11
14.6295
 21
145.999
  0
LINE
  8
0
 10
14.6295
 20
145.999
 11
14.7461
 21
146.127
  0
LINE
  8
0
 10
14.7461
 20
146.127
 11
14.8673
 21
146.237
  0
LINE
  8
0
 10
14.8673
 20
146.237
 11
15.8843
 21
143.107
  0
LINE
  8
0
 10
15.8843
 20
143.107
 11
15.8258
 21
143.11
  0
LINE
  8
0
 10
-12.8552
 20
125.903
 11
-13.3765
 21
126.36
  0
LINE
  8
0
 10
-13.3765
 20
126.36
 11
-13.9508
 21
127.124
  0
LINE
  8
0
 10
-13.9508
 20
127.124
 11
-14.5789
 21
128.194
  0
LINE
  8
0
 10
-14.5789
 20
128.194
 11
-15.2606
 21
129.57
  0
LINE
  8
0
 10
-15.2606
 20
129.57
 11
-15.9955
 21
131.248
  0
LINE
  8
0
 10
-15.9955
 20
131.248
 11
-15.9955
 21
131.269
  0
LINE
  8
0
 10
-15.9955
 20
131.269
 11
-16.0004
 21
131.259
  0
LINE
  8
0
 10
-16.0004
 20
131.259
 11
-16.004
 21
131.267
  0
LINE
  8
0
 10
-16.004
 20
131.267
 11
-16.004
 21
131.249
  0
LINE
  8
0
 10
-16.004
 20
131.249
 11
-16.7389
 21
129.57
  0
LINE
  8
0
 10
-16.7389
 20
129.57
 11
-17.4207
 21
128.194
  0
LINE
  8
0
 10
-17.4207
 20
128.194
 11
-18.0493
 21
127.123
  0
LINE
  8
0
 10
-18.0493
 20
127.123
 11
-18.6237
 21
126.36
  0
LINE
  8
0
 10
-18.6237
 20
126.36
 11
-19.1443
 21
125.903
  0
LINE
  8
0
 10
-19.1443
 20
125.903
 11
-19.6112
 21
125.75
  0
LINE
  8
0
 10
-19.6112
 20
125.75
 11
-20.0232
 21
125.902
  0
LINE
  8
0
 10
-20.0232
 20
125.902
 11
-20.3845
 21
126.36
  0
LINE
  8
0
 10
-20.3845
 20
126.36
 11
-20.6915
 21
127.123
  0
LINE
  8
0
 10
-20.6915
 20
127.123
 11
-20.8549
 21
127.809
  0
LINE
  8
0
 10
-20.8549
 20
127.809
 11
-18.7739
 21
134.213
  0
LINE
  8
0
 10
-18.7739
 20
134.213
 11
-15.9998
 21
137.474
  0
LINE
  8
0
 10
-15.9998
 20
137.474
 11
-10.7043
 21
131.249
  0
LINE
  8
0
 10
-10.7043
 20
131.249
 11
-10.8521
 21
129.568
  0
LINE
  8
0
 10
-10.8521
 20
129.568
 11
-11.0535
 21
128.193
  0
LINE
  8
0
 10
-11.0535
 20
128.193
 11
-11.308
 21
127.122
  0
LINE
  8
0
 10
-11.308
 20
127.122
 11
-11.615
 21
126.36
  0
LINE
  8
0
 10
-11.615
 20
126.36
 11
-11.9763
 21
125.902
  0
LINE
  8
0
 10
-11.9763
 20
125.902
 11
-12.3883
 21
125.75
  0
LINE
  8
0
 10
-12.3883
 20
125.75
 11
-12.8552
 21
125.903
  0
LINE
  8
0
 10
19.1443
 20
125.903
 11
18.623
 21
126.36
  0
LINE
  8
0
 10
18.623
 20
126.36
 11
18.0487
 21
127.124
  0
LINE
  8
0
 10
18.0487
 20
127.124
 11
17.4207
 21
128.194
  0
LINE
  8
0
 10
17.4207
 20
128.194
 11
16.7389
 21
129.57
  0
LINE
  8
0
 10
16.7389
 20
129.57
 11
16.004
 21
131.248
  0
LINE
  8
0
 10
16.004
 20
131.248
 11
16.004
 21
131.269
  0
LINE
  8
0
 10
16.004
 20
131.269
 11
15.9991
 21
131.259
  0
LINE
  8
0
 10
15.9991
 20
131.259
 11
15.9955
 21
131.267
  0
LINE
  8
0
 10
15.9955
 20
131.267
 11
15.9955
 21
131.249
  0
LINE
  8
0
 10
15.9955
 20
131.249
 11
15.2606
 21
129.57
  0
LINE
  8
0
 10
15.2606
 20
129.57
 11
14.5789
 21
128.194
  0
LINE
  8
0
 10
14.5789
 20
128.194
 11
13.9502
 21
127.123
  0
LINE
  8
0
 10
13.9502
 20
127.123
 11
13.3759
 21
126.36
  0
LINE
  8
0
 10
13.3759
 20
126.36
 11
12.8552
 21
125.903
  0
LINE
  8
0
 10
12.8552
 20
125.903
 11
12.3883
 21
125.75
  0
LINE
  8
0
 10
12.3883
 20
125.75
 11
11.9763
 21
125.902
  0
LINE
  8
0
 10
11.9763
 20
125.902
 11
11.615
 21
126.36
  0
LINE
  8
0
 10
11.615
 20
126.36
 11
11.308
 21
127.123
  0
LINE
  8
0
 10
11.308
 20
127.123
 11
11.0529
 21
128.193
  0
LINE
  8
0
 10
11.0529
 20
128.193
 11
10.8514
 21
129.568
  0
LINE
  8
0
 10
10.8514
 20
129.568
 11
10.7037
 21
131.249
  0
LINE
  8
0
 10
10.7037
 20
131.249
 11
15.9998
 21
137.474
  0
LINE
  8
0
 10
15.9998
 20
137.474
 11
18.7739
 21
134.213
  0
LINE
  8
0
 10
18.7739
 20
134.213
 11
20.8548
 21
127.809
  0
LINE
  8
0
 10
20.8548
 20
127.809
 11
20.6915
 21
127.122
  0
LINE
  8
0
 10
20.6915
 20
127.122
 11
20.3845
 21
126.36
  0
LINE
  8
0
 10
20.3845
 20
126.36
 11
20.0232
 21
125.902
  0
LINE
  8
0
 10
20.0232
 20
125.902
 11
19.6112
 21
125.75
  0
LINE
  8
0
 10
19.6112
 20
125.75
 11
19.1443
 21
125.903
  0
LINE
  8
0
 10
18.5687
 20
107.654
 11
17.4628
 21
109.065
  0
LINE
  8
0
 10
17.4628
 20
109.065
 11
16.5326
 21
110.561
  0
LINE
  8
0
 10
16.5326
 20
110.561
 11
16.004
 21
111.664
  0
LINE
  8
0
 10
16.004
 20
111.664
 11
16.004
 21
111.685
  0
LINE
  8
0
 10
16.004
 20
111.685
 11
15.9991
 21
111.674
  0
LINE
  8
0
 10
15.9991
 20
111.674
 11
15.9955
 21
111.682
  0
LINE
  8
0
 10
15.9955
 20
111.682
 11
15.9955
 21
111.667
  0
LINE
  8
0
 10
15.9955
 20
111.667
 11
15.4669
 21
110.561
  0
LINE
  8
0
 10
15.4669
 20
110.561
 11
14.5361
 21
109.064
  0
LINE
  8
0
 10
14.5361
 20
109.064
 11
13.4308
 21
107.654
  0
LINE
  8
0
 10
13.4308
 20
107.654
 11
12.1545
 21
106.333
  0
LINE
  8
0
 10
12.1545
 20
106.333
 11
10.6427
 21
108.415
  0
LINE
  8
0
 10
10.6427
 20
108.415
 11
9.31824
 21
110.449
  0
LINE
  8
0
 10
9.31824
 20
110.449
 11
8.18542
 21
112.43
  0
LINE
  8
0
 10
8.18542
 20
112.43
 11
7.24182
 21
114.36
  0
LINE
  8
0
 10
7.24182
 20
114.36
 11
6.48926
 21
116.238
  0
LINE
  8
0
 10
6.48926
 20
116.238
 11
5.92712
 21
118.063
  0
LINE
  8
0
 10
5.92712
 20
118.063
 11
5.55542
 21
119.836
  0
LINE
  8
0
 10
5.55542
 20
119.836
 11
5.37354
 21
121.558
  0
LINE
  8
0
 10
5.37354
 20
121.558
 11
5.38208
 21
123.228
  0
LINE
  8
0
 10
5.38208
 20
123.228
 11
5.58105
 21
124.845
  0
LINE
  8
0
 10
5.58105
 20
124.845
 11
5.96985
 21
126.412
  0
LINE
  8
0
 10
5.96985
 20
126.412
 11
6.54541
 21
127.914
  0
LINE
  8
0
 10
6.54541
 20
127.914
 11
7.4646
 21
124.625
  0
LINE
  8
0
 10
7.4646
 20
124.625
 11
8.36304
 21
121.925
  0
LINE
  8
0
 10
8.36304
 20
121.925
 11
9.23645
 21
119.825
  0
LINE
  8
0
 10
9.23645
 20
119.825
 11
10.0861
 21
118.325
  0
LINE
  8
0
 10
10.0861
 20
118.325
 11
10.9113
 21
117.424
  0
LINE
  8
0
 10
10.9113
 20
117.424
 11
11.7139
 21
117.123
  0
LINE
  8
0
 10
11.7139
 20
117.123
 11
12.4915
 21
117.424
  0
LINE
  8
0
 10
12.4915
 20
117.424
 11
13.244
 21
118.325
  0
LINE
  8
0
 10
13.244
 20
118.325
 11
13.9703
 21
119.825
  0
LINE
  8
0
 10
13.9703
 20
119.825
 11
14.6729
 21
121.925
  0
LINE
  8
0
 10
14.6729
 20
121.925
 11
15.3503
 21
124.625
  0
LINE
  8
0
 10
15.3503
 20
124.625
 11
15.9998
 21
127.905
  0
LINE
  8
0
 10
15.9998
 20
127.905
 11
16.6492
 21
124.626
  0
LINE
  8
0
 10
16.6492
 20
124.626
 11
17.3267
 21
121.926
  0
LINE
  8
0
 10
17.3267
 20
121.926
 11
18.0292
 21
119.826
  0
LINE
  8
0
 10
18.0292
 20
119.826
 11
18.7555
 21
118.325
  0
LINE
  8
0
 10
18.7555
 20
118.325
 11
19.5081
 21
117.424
  0
LINE
  8
0
 10
19.5081
 20
117.424
 11
20.2856
 21
117.123
  0
LINE
  8
0
 10
20.2856
 20
117.123
 11
21.0883
 21
117.424
  0
LINE
  8
0
 10
21.0883
 20
117.424
 11
21.9135
 21
118.325
  0
LINE
  8
0
 10
21.9135
 20
118.325
 11
22.7631
 21
119.825
  0
LINE
  8
0
 10
22.7631
 20
119.825
 11
23.1481
 21
120.751
  0
LINE
  8
0
 10
23.1481
 20
120.751
 11
25.0157
 21
115.003
  0
LINE
  8
0
 10
25.0157
 20
115.003
 11
24.7577
 21
114.359
  0
LINE
  8
0
 10
24.7577
 20
114.359
 11
23.8141
 21
112.43
  0
LINE
  8
0
 10
23.8141
 20
112.43
 11
22.6807
 21
110.448
  0
LINE
  8
0
 10
22.6807
 20
110.448
 11
21.3562
 21
108.414
  0
LINE
  8
0
 10
21.3562
 20
108.414
 11
19.8456
 21
106.333
  0
LINE
  8
0
 10
19.8456
 20
106.333
 11
18.5687
 21
107.654
  0
LINE
  8
0
 10
-13.4308
 20
107.654
 11
-14.5367
 21
109.065
  0
LINE
  8
0
 10
-14.5367
 20
109.065
 11
-15.4669
 21
110.561
  0
LINE
  8
0
 10
-15.4669
 20
110.561
 11
-15.9955
 21
111.664
  0
LINE
  8
0
 10
-15.9955
 20
111.664
 11
-15.9955
 21
111.685
  0
LINE
  8
0
 10
-15.9955
 20
111.685
 11
-16.0004
 21
111.674
  0
LINE
  8
0
 10
-16.0004
 20
111.674
 11
-16.004
 21
111.682
  0
LINE
  8
0
 10
-16.004
 20
111.682
 11
-16.004
 21
111.667
  0
LINE
  8
0
 10
-16.004
 20
111.667
 11
-16.5326
 21
110.561
  0
LINE
  8
0
 10
-16.5326
 20
110.561
 11
-17.4634
 21
109.064
  0
LINE
  8
0
 10
-17.4634
 20
109.064
 11
-18.5687
 21
107.654
  0
LINE
  8
0
 10
-18.5687
 20
107.654
 11
-19.845
 21
106.333
  0
LINE
  8
0
 10
-19.845
 20
106.333
 11
-21.3568
 21
108.415
  0
LINE
  8
0
 10
-21.3568
 20
108.415
 11
-22.6813
 21
110.449
  0
LINE
  8
0
 10
-22.6813
 20
110.449
 11
-23.8141
 21
112.43
  0
LINE
  8
0
 10
-23.8141
 20
112.43
 11
-24.7577
 21
114.36
  0
LINE
  8
0
 10
-24.7577
 20
114.36
 11
-25.0156
 21
115.003
  0
LINE
  8
0
 10
-25.0156
 20
115.003
 11
-23.1481
 21
120.751
  0
LINE
  8
0
 10
-23.1481
 20
120.751
 11
-22.7631
 21
119.825
  0
LINE
  8
0
 10
-22.7631
 20
119.825
 11
-21.9135
 21
118.325
  0
LINE
  8
0
 10
-21.9135
 20
118.325
 11
-21.0883
 21
117.424
  0
LINE
  8
0
 10
-21.0883
 20
117.424
 11
-20.2856
 21
117.123
  0
LINE
  8
0
 10
-20.2856
 20
117.123
 11
-19.5081
 21
117.424
  0
LINE
  8
0
 10
-19.5081
 20
117.424
 11
-18.7555
 21
118.325
  0
LINE
  8
0
 10
-18.7555
 20
118.325
 11
-18.0292
 21
119.825
  0
LINE
  8
0
 10
-18.0292
 20
119.825
 11
-17.3267
 21
121.925
  0
LINE
  8
0
 10
-17.3267
 20
121.925
 11
-16.6492
 21
124.625
  0
LINE
  8
0
 10
-16.6492
 20
124.625
 11
-15.9998
 21
127.905
  0
LINE
  8
0
 10
-15.9998
 20
127.905
 11
-15.3503
 21
124.626
  0
LINE
  8
0
 10
-15.3503
 20
124.626
 11
-14.6729
 21
121.926
  0
LINE
  8
0
 10
-14.6729
 20
121.926
 11
-13.9703
 21
119.826
  0
LINE
  8
0
 10
-13.9703
 20
119.826
 11
-13.244
 21
118.325
  0
LINE
  8
0
 10
-13.244
 20
118.325
 11
-12.4915
 21
117.424
  0
LINE
  8
0
 10
-12.4915
 20
117.424
 11
-11.7139
 21
117.123
  0
LINE
  8
0
 10
-11.7139
 20
117.123
 11
-10.9113
 21
117.424
  0
LINE
  8
0
 10
-10.9113
 20
117.424
 11
-10.0861
 21
118.325
  0
LINE
  8
0
 10
-10.0861
 20
118.325
 11
-9.23645
 21
119.825
  0
LINE
  8
0
 10
-9.23645
 20
119.825
 11
-8.36304
 21
121.924
  0
LINE
  8
0
 10
-8.36304
 20
121.924
 11
-7.4646
 21
124.625
  0
LINE
  8
0
 10
-7.4646
 20
124.625
 11
-6.54541
 21
127.914
  0
LINE
  8
0
 10
-6.54541
 20
127.914
 11
-5.96985
 21
126.411
  0
LINE
  8
0
 10
-5.96985
 20
126.411
 11
-5.58105
 21
124.845
  0
LINE
  8
0
 10
-5.58105
 20
124.845
 11
-5.38208
 21
123.227
  0
LINE
  8
0
 10
-5.38208
 20
123.227
 11
-5.37354
 21
121.556
  0
LINE
  8
0
 10
-5.37354
 20
121.556
 11
-5.55542
 21
119.836
  0
LINE
  8
0
 10
-5.55542
 20
119.836
 11
-5.92712
 21
118.063
  0
LINE
  8
0
 10
-5.92712
 20
118.063
 11
-6.48926
 21
116.237
  0
LINE
  8
0
 10
-6.48926
 20
116.237
 11
-7.24182
 21
114.359
  0
LINE
  8
0
 10
-7.24182
 20
114.359
 11
-8.18542
 21
112.43
  0
LINE
  8
0
 10
-8.18542
 20
112.43
 11
-9.31885
 21
110.448
  0
LINE
  8
0
 10
-9.31885
 20
110.448
 11
-10.6433
 21
108.414
  0
LINE
  8
0
 10
-10.6433
 20
108.414
 11
-12.1539
 21
106.333
  0
LINE
  8
0
 10
-12.1539
 20
106.333
 11
-13.4308
 21
107.654
  0
LINE
  8
0
 10
-0.17395
 20
123.11
 11
-0.346069
 21
123.135
  0
LINE
  8
0
 10
-0.346069
 20
123.135
 11
-0.514526
 21
123.177
  0
LINE
  8
0
 10
-0.514526
 20
123.177
 11
-0.678101
 21
123.235
  0
LINE
  8
0
 10
-0.678101
 20
123.235
 11
-0.835571
 21
123.31
  0
LINE
  8
0
 10
-0.835571
 20
123.31
 11
-0.985107
 21
123.4
  0
LINE
  8
0
 10
-0.985107
 20
123.4
 11
-1.12427
 21
123.503
  0
LINE
  8
0
 10
-1.12427
 20
123.503
 11
-1.25366
 21
123.62
  0
LINE
  8
0
 10
-1.25366
 20
123.62
 11
-1.37024
 21
123.749
  0
LINE
  8
0
 10
-1.37024
 20
123.749
 11
-1.474
 21
123.889
  0
LINE
  8
0
 10
-1.474
 20
123.889
 11
-1.56311
 21
124.037
  0
LINE
  8
0
 10
-1.56311
 20
124.037
 11
-1.63757
 21
124.196
  0
LINE
  8
0
 10
-1.63757
 20
124.196
 11
-1.69617
 21
124.359
  0
LINE
  8
0
 10
-1.69617
 20
124.359
 11
-1.73889
 21
124.528
  0
LINE
  8
0
 10
-1.73889
 20
124.528
 11
-1.76453
 21
124.7
  0
LINE
  8
0
 10
-1.76453
 20
124.7
 11
-1.77246
 21
124.874
  0
LINE
  8
0
 10
-1.77246
 20
124.874
 11
-1.76392
 21
125.048
  0
LINE
  8
0
 10
-1.76392
 20
125.048
 11
-1.73828
 21
125.22
  0
LINE
  8
0
 10
-1.73828
 20
125.22
 11
-1.69617
 21
125.388
  0
LINE
  8
0
 10
-1.69617
 20
125.388
 11
-1.63757
 21
125.552
  0
LINE
  8
0
 10
-1.63757
 20
125.552
 11
-1.56311
 21
125.709
  0
LINE
  8
0
 10
-1.56311
 20
125.709
 11
-1.474
 21
125.858
  0
LINE
  8
0
 10
-1.474
 20
125.858
 11
-1.37024
 21
125.999
  0
LINE
  8
0
 10
-1.37024
 20
125.999
 11
-1.25366
 21
126.127
  0
LINE
  8
0
 10
-1.25366
 20
126.127
 11
-1.12427
 21
126.244
  0
LINE
  8
0
 10
-1.12427
 20
126.244
 11
-0.985107
 21
126.347
  0
LINE
  8
0
 10
-0.985107
 20
126.347
 11
-0.835571
 21
126.437
  0
LINE
  8
0
 10
-0.835571
 20
126.437
 11
-0.678101
 21
126.511
  0
LINE
  8
0
 10
-0.678101
 20
126.511
 11
-0.514526
 21
126.57
  0
LINE
  8
0
 10
-0.514526
 20
126.57
 11
-0.344849
 21
126.613
  0
LINE
  8
0
 10
-0.344849
 20
126.613
 11
-0.17334
 21
126.638
  0
LINE
  8
0
 10
-0.17334
 20
126.638
 11
0
 21
126.647
  0
LINE
  8
0
 10
0
 20
126.647
 11
0.17395
 21
126.638
  0
LINE
  8
0
 10
0.17395
 20
126.638
 11
0.346069
 21
126.613
  0
LINE
  8
0
 10
0.346069
 20
126.613
 11
0.514526
 21
126.57
  0
LINE
  8
0
 10
0.514526
 20
126.57
 11
0.678101
 21
126.511
  0
LINE
  8
0
 10
0.678101
 20
126.511
 11
0.835571
 21
126.437
  0
LINE
  8
0
 10
0.835571
 20
126.437
 11
0.985107
 21
126.347
  0
LINE
  8
0
 10
0.985107
 20
126.347
 11
1.12427
 21
126.244
  0
LINE
  8
0
 10
1.12427
 20
126.244
 11
1.25366
 21
126.127
  0
LINE
  8
0
 10
1.25366
 20
126.127
 11
1.37024
 21
125.999
  0
LINE
  8
0
 10
1.37024
 20
125.999
 11
1.474
 21
125.858
  0
LINE
  8
0
 10
1.474
 20
125.858
 11
1.56311
 21
125.709
  0
LINE
  8
0
 10
1.56311
 20
125.709
 11
1.63757
 21
125.552
  0
LINE
  8
0
 10
1.63757
 20
125.552
 11
1.69617
 21
125.388
  0
LINE
  8
0
 10
1.69617
 20
125.388
 11
1.73889
 21
125.219
  0
LINE
  8
0
 10
1.73889
 20
125.219
 11
1.76453
 21
125.047
  0
LINE
  8
0
 10
1.76453
 20
125.047
 11
1.77246
 21
124.874
  0
LINE
  8
0
 10
1.77246
 20
124.874
 11
1.76392
 21
124.699
  0
LINE
  8
0
 10
1.76392
 20
124.699
 11
1.73828
 21
124.527
  0
LINE
  8
0
 10
1.73828
 20
124.527
 11
1.69617
 21
124.359
  0
LINE
  8
0
 10
1.69617
 20
124.359
 11
1.63757
 21
124.195
  0
LINE
  8
0
 10
1.63757
 20
124.195
 11
1.56311
 21
124.037
  0
LINE
  8
0
 10
1.56311
 20
124.037
 11
1.47339
 21
123.888
  0
LINE
  8
0
 10
1.47339
 20
123.888
 11
1.37024
 21
123.749
  0
LINE
  8
0
 10
1.37024
 20
123.749
 11
1.25305
 21
123.619
  0
LINE
  8
0
 10
1.25305
 20
123.619
 11
1.12427
 21
123.503
  0
LINE
  8
0
 10
1.12427
 20
123.503
 11
0.985107
 21
123.4
  0
LINE
  8
0
 10
0.985107
 20
123.4
 11
0.835571
 21
123.31
  0
LINE
  8
0
 10
0.835571
 20
123.31
 11
0.678101
 21
123.235
  0
LINE
  8
0
 10
0.678101
 20
123.235
 11
0.514526
 21
123.177
  0
LINE
  8
0
 10
0.514526
 20
123.177
 11
0.344849
 21
123.135
  0
LINE
  8
0
 10
0.344849
 20
123.135
 11
0.17334
 21
123.109
  0
LINE
  8
0
 10
0.17334
 20
123.109
 11
0
 21
123.101
  0
LINE
  8
0
 10
0
 20
123.101
 11
-0.17395
 21
123.11
  0
LINE
  8
0
 10
3.14453
 20
105.903
 11
2.62329
 21
106.36
  0
LINE
  8
0
 10
2.62329
 20
106.36
 11
2.04895
 21
107.124
  0
LINE
  8
0
 10
2.04895
 20
107.124
 11
1.4209
 21
108.194
  0
LINE
  8
0
 10
1.4209
 20
108.194
 11
0.739136
 21
109.57
  0
LINE
  8
0
 10
0.739136
 20
109.57
 11
0.00427246
 21
111.248
  0
LINE
  8
0
 10
0.00427246
 20
111.248
 11
0.00427246
 21
111.269
  0
LINE
  8
0
 10
0.00427246
 20
111.269
 11
-0.000610352
 21
111.259
  0
LINE
  8
0
 10
-0.000610352
 20
111.259
 11
-0.00427246
 21
111.267
  0
LINE
  8
0
 10
-0.00427246
 20
111.267
 11
-0.00427246
 21
111.249
  0
LINE
  8
0
 10
-0.00427246
 20
111.249
 11
-0.739136
 21
109.57
  0
LINE
  8
0
 10
-0.739136
 20
109.57
 11
-1.4209
 21
108.194
  0
LINE
  8
0
 10
-1.4209
 20
108.194
 11
-2.04956
 21
107.123
  0
LINE
  8
0
 10
-2.04956
 20
107.123
 11
-2.6239
 21
106.36
  0
LINE
  8
0
 10
-2.6239
 20
106.36
 11
-3.14453
 21
105.903
  0
LINE
  8
0
 10
-3.14453
 20
105.903
 11
-3.61145
 21
105.75
  0
LINE
  8
0
 10
-3.61145
 20
105.75
 11
-4.02344
 21
105.902
  0
LINE
  8
0
 10
-4.02344
 20
105.902
 11
-4.38477
 21
106.36
  0
LINE
  8
0
 10
-4.38477
 20
106.36
 11
-4.69177
 21
107.123
  0
LINE
  8
0
 10
-4.69177
 20
107.123
 11
-4.9469
 21
108.193
  0
LINE
  8
0
 10
-4.9469
 20
108.193
 11
-5.14832
 21
109.568
  0
LINE
  8
0
 10
-5.14832
 20
109.568
 11
-5.29602
 21
111.249
  0
LINE
  8
0
 10
-5.29602
 20
111.249
 11
0
 21
117.474
  0
LINE
  8
0
 10
0
 20
117.474
 11
5.29541
 21
111.249
  0
LINE
  8
0
 10
5.29541
 20
111.249
 11
5.14771
 21
109.568
  0
LINE
  8
0
 10
5.14771
 20
109.568
 11
4.94629
 21
108.193
  0
LINE
  8
0
 10
4.94629
 20
108.193
 11
4.69177
 21
107.122
  0
LINE
  8
0
 10
4.69177
 20
107.122
 11
4.38477
 21
106.36
  0
LINE
  8
0
 10
4.38477
 20
106.36
 11
4.02344
 21
105.902
  0
LINE
  8
0
 10
4.02344
 20
105.902
 11
3.61145
 21
105.75
  0
LINE
  8
0
 10
3.61145
 20
105.75
 11
3.14453
 21
105.903
  0
LINE
  8
0
 10
27.6147
 20
106.36
 11
27.3077
 21
107.123
  0
LINE
  8
0
 10
27.3077
 20
107.123
 11
27.0526
 21
108.193
  0
LINE
  8
0
 10
27.0526
 20
108.193
 11
26.9084
 21
109.178
  0
LINE
  8
0
 10
26.9084
 20
109.178
 11
27.9705
 21
105.909
  0
LINE
  8
0
 10
27.9705
 20
105.909
 11
27.6147
 21
106.36
  0
LINE
  8
0
 10
-26.9095
 20
109.175
 11
-27.0532
 21
108.193
  0
LINE
  8
0
 10
-27.0532
 20
108.193
 11
-27.3077
 21
107.122
  0
LINE
  8
0
 10
-27.3077
 20
107.122
 11
-27.6147
 21
106.36
  0
LINE
  8
0
 10
-27.6147
 20
106.36
 11
-27.9705
 21
105.909
  0
LINE
  8
0
 10
-27.9705
 20
105.909
 11
-26.9095
 21
109.175
  0
LINE
  8
0
 10
2.56897
 20
87.6544
 11
1.46301
 21
89.0649
  0
LINE
  8
0
 10
1.46301
 20
89.0649
 11
0.532837
 21
90.5609
  0
LINE
  8
0
 10
0.532837
 20
90.5609
 11
0.00427246
 21
91.6638
  0
LINE
  8
0
 10
0.00427246
 20
91.6638
 11
0.00427246
 21
91.6852
  0
LINE
  8
0
 10
0.00427246
 20
91.6852
 11
-0.000610352
 21
91.6742
  0
LINE
  8
0
 10
-0.000610352
 20
91.6742
 11
-0.00427246
 21
91.6815
  0
LINE
  8
0
 10
-0.00427246
 20
91.6815
 11
-0.00427246
 21
91.6675
  0
LINE
  8
0
 10
-0.00427246
 20
91.6675
 11
-0.532837
 21
90.5609
  0
LINE
  8
0
 10
-0.532837
 20
90.5609
 11
-1.46362
 21
89.0637
  0
LINE
  8
0
 10
-1.46362
 20
89.0637
 11
-2.56897
 21
87.6538
  0
LINE
  8
0
 10
-2.56897
 20
87.6538
 11
-3.84521
 21
86.333
  0
LINE
  8
0
 10
-3.84521
 20
86.333
 11
-5.35706
 21
88.4149
  0
LINE
  8
0
 10
-5.35706
 20
88.4149
 11
-6.68152
 21
90.4486
  0
LINE
  8
0
 10
-6.68152
 20
90.4486
 11
-7.81433
 21
92.4304
  0
LINE
  8
0
 10
-7.81433
 20
92.4304
 11
-8.75793
 21
94.3597
  0
LINE
  8
0
 10
-8.75793
 20
94.3597
 11
-9.5105
 21
96.2378
  0
LINE
  8
0
 10
-9.5105
 20
96.2378
 11
-10.0726
 21
98.0634
  0
LINE
  8
0
 10
-10.0726
 20
98.0634
 11
-10.4443
 21
99.8364
  0
LINE
  8
0
 10
-10.4443
 20
99.8364
 11
-10.6262
 21
101.558
  0
LINE
  8
0
 10
-10.6262
 20
101.558
 11
-10.6177
 21
103.228
  0
LINE
  8
0
 10
-10.6177
 20
103.228
 11
-10.4187
 21
104.845
  0
LINE
  8
0
 10
-10.4187
 20
104.845
 11
-10.0299
 21
106.412
  0
LINE
  8
0
 10
-10.0299
 20
106.412
 11
-9.45435
 21
107.914
  0
LINE
  8
0
 10
-9.45435
 20
107.914
 11
-8.53516
 21
104.625
  0
LINE
  8
0
 10
-8.53516
 20
104.625
 11
-7.63672
 21
101.925
  0
LINE
  8
0
 10
-7.63672
 20
101.925
 11
-6.76331
 21
99.8254
  0
LINE
  8
0
 10
-6.76331
 20
99.8254
 11
-5.9137
 21
98.3246
  0
LINE
  8
0
 10
-5.9137
 20
98.3246
 11
-5.0885
 21
97.4237
  0
LINE
  8
0
 10
-5.0885
 20
97.4237
 11
-4.28589
 21
97.1228
  0
LINE
  8
0
 10
-4.28589
 20
97.1228
 11
-3.5083
 21
97.4243
  0
LINE
  8
0
 10
-3.5083
 20
97.4243
 11
-2.75574
 21
98.3246
  0
LINE
  8
0
 10
-2.75574
 20
98.3246
 11
-2.02942
 21
99.8254
  0
LINE
  8
0
 10
-2.02942
 20
99.8254
 11
-1.3269
 21
101.925
  0
LINE
  8
0
 10
-1.3269
 20
101.925
 11
-0.649414
 21
104.625
  0
LINE
  8
0
 10
-0.649414
 20
104.625
 11
0
 21
107.905
  0
LINE
  8
0
 10
0
 20
107.905
 11
0.649414
 21
104.626
  0
LINE
  8
0
 10
0.649414
 20
104.626
 11
1.3269
 21
101.926
  0
LINE
  8
0
 10
1.3269
 20
101.926
 11
2.02942
 21
99.826
  0
LINE
  8
0
 10
2.02942
 20
99.826
 11
2.75574
 21
98.3246
  0
LINE
  8
0
 10
2.75574
 20
98.3246
 11
3.5083
 21
97.4243
  0
LINE
  8
0
 10
3.5083
 20
97.4243
 11
4.28589
 21
97.1228
  0
LINE
  8
0
 10
4.28589
 20
97.1228
 11
5.0885
 21
97.4237
  0
LINE
  8
0
 10
5.0885
 20
97.4237
 11
5.9137
 21
98.3246
  0
LINE
  8
0
 10
5.9137
 20
98.3246
 11
6.76331
 21
99.8254
  0
LINE
  8
0
 10
6.76331
 20
99.8254
 11
7.63672
 21
101.924
  0
LINE
  8
0
 10
7.63672
 20
101.924
 11
8.53516
 21
104.625
  0
LINE
  8
0
 10
8.53516
 20
104.625
 11
9.45435
 21
107.914
  0
LINE
  8
0
 10
9.45435
 20
107.914
 11
10.0299
 21
106.411
  0
LINE
  8
0
 10
10.0299
 20
106.411
 11
10.4187
 21
104.845
  0
LINE
  8
0
 10
10.4187
 20
104.845
 11
10.6177
 21
103.227
  0
LINE
  8
0
 10
10.6177
 20
103.227
 11
10.6262
 21
101.556
  0
LINE
  8
0
 10
10.6262
 20
101.556
 11
10.4443
 21
99.8364
  0
LINE
  8
0
 10
10.4443
 20
99.8364
 11
10.0726
 21
98.0627
  0
LINE
  8
0
 10
10.0726
 20
98.0627
 11
9.5105
 21
96.2372
  0
LINE
  8
0
 10
9.5105
 20
96.2372
 11
8.75793
 21
94.3591
  0
LINE
  8
0
 10
8.75793
 20
94.3591
 11
7.81433
 21
92.4304
  0
LINE
  8
0
 10
7.81433
 20
92.4304
 11
6.68091
 21
90.448
  0
LINE
  8
0
 10
6.68091
 20
90.448
 11
5.35645
 21
88.4143
  0
LINE
  8
0
 10
5.35645
 20
88.4143
 11
3.84583
 21
86.333
  0
LINE
  8
0
 10
3.84583
 20
86.333
 11
2.56897
 21
87.6544
  0
LINE
  8
0
 10
-29.4305
 20
87.6544
 11
-30.5365
 21
89.0649
  0
LINE
  8
0
 10
-30.5365
 20
89.0649
 11
-31.4667
 21
90.5609
  0
LINE
  8
0
 10
-31.4667
 20
90.5609
 11
-31.9952
 21
91.6638
  0
LINE
  8
0
 10
-31.9952
 20
91.6638
 11
-31.9952
 21
91.6852
  0
LINE
  8
0
 10
-31.9952
 20
91.6852
 11
-32.0001
 21
91.6742
  0
LINE
  8
0
 10
-32.0001
 20
91.6742
 11
-32.0038
 21
91.6815
  0
LINE
  8
0
 10
-32.0038
 20
91.6815
 11
-32.0038
 21
91.6675
  0
LINE
  8
0
 10
-32.0038
 20
91.6675
 11
-32.5323
 21
90.5609
  0
LINE
  8
0
 10
-32.5323
 20
90.5609
 11
-33.4228
 21
89.1286
  0
LINE
  8
0
 10
-33.4228
 20
89.1286
 11
-29.9563
 21
99.7975
  0
LINE
  8
0
 10
-29.9563
 20
99.7975
 11
-29.2438
 21
98.3246
  0
LINE
  8
0
 10
-29.2438
 20
98.3246
 11
-28.4912
 21
97.4243
  0
LINE
  8
0
 10
-28.4912
 20
97.4243
 11
-27.7136
 21
97.1228
  0
LINE
  8
0
 10
-27.7136
 20
97.1228
 11
-26.911
 21
97.4237
  0
LINE
  8
0
 10
-26.911
 20
97.4237
 11
-26.0858
 21
98.3246
  0
LINE
  8
0
 10
-26.0858
 20
98.3246
 11
-25.2362
 21
99.8254
  0
LINE
  8
0
 10
-25.2362
 20
99.8254
 11
-24.3628
 21
101.924
  0
LINE
  8
0
 10
-24.3628
 20
101.924
 11
-23.4644
 21
104.625
  0
LINE
  8
0
 10
-23.4644
 20
104.625
 11
-22.5452
 21
107.914
  0
LINE
  8
0
 10
-22.5452
 20
107.914
 11
-21.9696
 21
106.411
  0
LINE
  8
0
 10
-21.9696
 20
106.411
 11
-21.5808
 21
104.845
  0
LINE
  8
0
 10
-21.5808
 20
104.845
 11
-21.3818
 21
103.227
  0
LINE
  8
0
 10
-21.3818
 20
103.227
 11
-21.3733
 21
101.556
  0
LINE
  8
0
 10
-21.3733
 20
101.556
 11
-21.5552
 21
99.8364
  0
LINE
  8
0
 10
-21.5552
 20
99.8364
 11
-21.9269
 21
98.0627
  0
LINE
  8
0
 10
-21.9269
 20
98.0627
 11
-22.489
 21
96.2372
  0
LINE
  8
0
 10
-22.489
 20
96.2372
 11
-23.2416
 21
94.3591
  0
LINE
  8
0
 10
-23.2416
 20
94.3591
 11
-24.1852
 21
92.4304
  0
LINE
  8
0
 10
-24.1852
 20
92.4304
 11
-25.3186
 21
90.448
  0
LINE
  8
0
 10
-25.3186
 20
90.448
 11
-26.6431
 21
88.4143
  0
LINE
  8
0
 10
-26.6431
 20
88.4143
 11
-28.1537
 21
86.333
  0
LINE
  8
0
 10
-28.1537
 20
86.333
 11
-29.4305
 21
87.6544
  0
LINE
  8
0
 10
26.6425
 20
88.4149
 11
25.318
 21
90.4486
  0
LINE
  8
0
 10
25.318
 20
90.4486
 11
24.1852
 21
92.4304
  0
LINE
  8
0
 10
24.1852
 20
92.4304
 11
23.2416
 21
94.3597
  0
LINE
  8
0
 10
23.2416
 20
94.3597
 11
22.489
 21
96.2378
  0
LINE
  8
0
 10
22.489
 20
96.2378
 11
21.9269
 21
98.0634
  0
LINE
  8
0
 10
21.9269
 20
98.0634
 11
21.5552
 21
99.8364
  0
LINE
  8
0
 10
21.5552
 20
99.8364
 11
21.3733
 21
101.558
  0
LINE
  8
0
 10
21.3733
 20
101.558
 11
21.3818
 21
103.228
  0
LINE
  8
0
 10
21.3818
 20
103.228
 11
21.5808
 21
104.845
  0
LINE
  8
0
 10
21.5808
 20
104.845
 11
21.9696
 21
106.412
  0
LINE
  8
0
 10
21.9696
 20
106.412
 11
22.5452
 21
107.914
  0
LINE
  8
0
 10
22.5452
 20
107.914
 11
23.4644
 21
104.625
  0
LINE
  8
0
 10
23.4644
 20
104.625
 11
24.3628
 21
101.925
  0
LINE
  8
0
 10
24.3628
 20
101.925
 11
25.2362
 21
99.8254
  0
LINE
  8
0
 10
25.2362
 20
99.8254
 11
26.0858
 21
98.3246
  0
LINE
  8
0
 10
26.0858
 20
98.3246
 11
26.911
 21
97.4237
  0
LINE
  8
0
 10
26.911
 20
97.4237
 11
27.7136
 21
97.1228
  0
LINE
  8
0
 10
27.7136
 20
97.1228
 11
28.4912
 21
97.4243
  0
LINE
  8
0
 10
28.4912
 20
97.4243
 11
29.2438
 21
98.3246
  0
LINE
  8
0
 10
29.2438
 20
98.3246
 11
29.9564
 21
99.7971
  0
LINE
  8
0
 10
29.9564
 20
99.7971
 11
33.4227
 21
89.129
  0
LINE
  8
0
 10
33.4227
 20
89.129
 11
32.5323
 21
90.5609
  0
LINE
  8
0
 10
32.5323
 20
90.5609
 11
32.0038
 21
91.6638
  0
LINE
  8
0
 10
32.0038
 20
91.6638
 11
32.0038
 21
91.6852
  0
LINE
  8
0
 10
32.0038
 20
91.6852
 11
31.9989
 21
91.6742
  0
LINE
  8
0
 10
31.9989
 20
91.6742
 11
31.9952
 21
91.6815
  0
LINE
  8
0
 10
31.9952
 20
91.6815
 11
31.9952
 21
91.6675
  0
LINE
  8
0
 10
31.9952
 20
91.6675
 11
31.4667
 21
90.5609
  0
LINE
  8
0
 10
31.4667
 20
90.5609
 11
30.5359
 21
89.0637
  0
LINE
  8
0
 10
30.5359
 20
89.0637
 11
29.4305
 21
87.6538
  0
LINE
  8
0
 10
29.4305
 20
87.6538
 11
28.1543
 21
86.333
  0
LINE
  8
0
 10
28.1543
 20
86.333
 11
26.6425
 21
88.4149
  0
LINE
  8
0
 10
15.8258
 20
103.11
 11
15.6537
 21
103.135
  0
LINE
  8
0
 10
15.6537
 20
103.135
 11
15.4852
 21
103.177
  0
LINE
  8
0
 10
15.4852
 20
103.177
 11
15.3217
 21
103.235
  0
LINE
  8
0
 10
15.3217
 20
103.235
 11
15.1642
 21
103.31
  0
LINE
  8
0
 10
15.1642
 20
103.31
 11
15.0146
 21
103.4
  0
LINE
  8
0
 10
15.0146
 20
103.4
 11
14.8755
 21
103.503
  0
LINE
  8
0
 10
14.8755
 20
103.503
 11
14.7461
 21
103.62
  0
LINE
  8
0
 10
14.7461
 20
103.62
 11
14.6295
 21
103.749
  0
LINE
  8
0
 10
14.6295
 20
103.749
 11
14.5258
 21
103.889
  0
LINE
  8
0
 10
14.5258
 20
103.889
 11
14.4366
 21
104.037
  0
LINE
  8
0
 10
14.4366
 20
104.037
 11
14.3622
 21
104.196
  0
LINE
  8
0
 10
14.3622
 20
104.196
 11
14.3036
 21
104.359
  0
LINE
  8
0
 10
14.3036
 20
104.359
 11
14.2609
 21
104.528
  0
LINE
  8
0
 10
14.2609
 20
104.528
 11
14.2352
 21
104.7
  0
LINE
  8
0
 10
14.2352
 20
104.7
 11
14.2273
 21
104.874
  0
LINE
  8
0
 10
14.2273
 20
104.874
 11
14.2358
 21
105.048
  0
LINE
  8
0
 10
14.2358
 20
105.048
 11
14.2615
 21
105.22
  0
LINE
  8
0
 10
14.2615
 20
105.22
 11
14.3036
 21
105.388
  0
LINE
  8
0
 10
14.3036
 20
105.388
 11
14.3622
 21
105.552
  0
LINE
  8
0
 10
14.3622
 20
105.552
 11
14.4366
 21
105.709
  0
LINE
  8
0
 10
14.4366
 20
105.709
 11
14.5258
 21
105.858
  0
LINE
  8
0
 10
14.5258
 20
105.858
 11
14.6295
 21
105.999
  0
LINE
  8
0
 10
14.6295
 20
105.999
 11
14.7461
 21
106.127
  0
LINE
  8
0
 10
14.7461
 20
106.127
 11
14.8755
 21
106.244
  0
LINE
  8
0
 10
14.8755
 20
106.244
 11
15.0146
 21
106.347
  0
LINE
  8
0
 10
15.0146
 20
106.347
 11
15.1642
 21
106.437
  0
LINE
  8
0
 10
15.1642
 20
106.437
 11
15.3217
 21
106.511
  0
LINE
  8
0
 10
15.3217
 20
106.511
 11
15.4852
 21
106.57
  0
LINE
  8
0
 10
15.4852
 20
106.57
 11
15.6549
 21
106.613
  0
LINE
  8
0
 10
15.6549
 20
106.613
 11
15.8264
 21
106.638
  0
LINE
  8
0
 10
15.8264
 20
106.638
 11
15.9998
 21
106.647
  0
LINE
  8
0
 10
15.9998
 20
106.647
 11
16.1737
 21
106.638
  0
LINE
  8
0
 10
16.1737
 20
106.638
 11
16.3458
 21
106.613
  0
LINE
  8
0
 10
16.3458
 20
106.613
 11
16.5143
 21
106.57
  0
LINE
  8
0
 10
16.5143
 20
106.57
 11
16.6779
 21
106.511
  0
LINE
  8
0
 10
16.6779
 20
106.511
 11
16.8353
 21
106.437
  0
LINE
  8
0
 10
16.8353
 20
106.437
 11
16.9849
 21
106.347
  0
LINE
  8
0
 10
16.9849
 20
106.347
 11
17.124
 21
106.244
  0
LINE
  8
0
 10
17.124
 20
106.244
 11
17.2534
 21
106.127
  0
LINE
  8
0
 10
17.2534
 20
106.127
 11
17.37
 21
105.999
  0
LINE
  8
0
 10
17.37
 20
105.999
 11
17.4738
 21
105.858
  0
LINE
  8
0
 10
17.4738
 20
105.858
 11
17.5629
 21
105.709
  0
LINE
  8
0
 10
17.5629
 20
105.709
 11
17.6373
 21
105.552
  0
LINE
  8
0
 10
17.6373
 20
105.552
 11
17.6959
 21
105.388
  0
LINE
  8
0
 10
17.6959
 20
105.388
 11
17.7386
 21
105.219
  0
LINE
  8
0
 10
17.7386
 20
105.219
 11
17.7643
 21
105.047
  0
LINE
  8
0
 10
17.7643
 20
105.047
 11
17.7722
 21
104.874
  0
LINE
  8
0
 10
17.7722
 20
104.874
 11
17.7637
 21
104.699
  0
LINE
  8
0
 10
17.7637
 20
104.699
 11
17.738
 21
104.527
  0
LINE
  8
0
 10
17.738
 20
104.527
 11
17.6959
 21
104.359
  0
LINE
  8
0
 10
17.6959
 20
104.359
 11
17.6373
 21
104.195
  0
LINE
  8
0
 10
17.6373
 20
104.195
 11
17.5629
 21
104.037
  0
LINE
  8
0
 10
17.5629
 20
104.037
 11
17.4731
 21
103.888
  0
LINE
  8
0
 10
17.4731
 20
103.888
 11
17.37
 21
103.749
  0
LINE
  8
0
 10
17.37
 20
103.749
 11
17.2528
 21
103.619
  0
LINE
  8
0
 10
17.2528
 20
103.619
 11
17.124
 21
103.503
  0
LINE
  8
0
 10
17.124
 20
103.503
 11
16.9849
 21
103.4
  0
LINE
  8
0
 10
16.9849
 20
103.4
 11
16.8353
 21
103.31
  0
LINE
  8
0
 10
16.8353
 20
103.31
 11
16.6779
 21
103.235
  0
LINE
  8
0
 10
16.6779
 20
103.235
 11
16.5143
 21
103.177
  0
LINE
  8
0
 10
16.5143
 20
103.177
 11
16.3446
 21
103.135
  0
LINE
  8
0
 10
16.3446
 20
103.135
 11
16.1731
 21
103.109
  0
LINE
  8
0
 10
16.1731
 20
103.109
 11
15.9998
 21
103.101
  0
LINE
  8
0
 10
15.9998
 20
103.101
 11
15.8258
 21
103.11
  0
LINE
  8
0
 10
-16.1737
 20
103.11
 11
-16.3458
 21
103.135
  0
LINE
  8
0
 10
-16.3458
 20
103.135
 11
-16.5143
 21
103.177
  0
LINE
  8
0
 10
-16.5143
 20
103.177
 11
-16.6779
 21
103.235
  0
LINE
  8
0
 10
-16.6779
 20
103.235
 11
-16.8353
 21
103.31
  0
LINE
  8
0
 10
-16.8353
 20
103.31
 11
-16.9849
 21
103.4
  0
LINE
  8
0
 10
-16.9849
 20
103.4
 11
-17.124
 21
103.503
  0
LINE
  8
0
 10
-17.124
 20
103.503
 11
-17.2534
 21
103.62
  0
LINE
  8
0
 10
-17.2534
 20
103.62
 11
-17.37
 21
103.749
  0
LINE
  8
0
 10
-17.37
 20
103.749
 11
-17.4738
 21
103.889
  0
LINE
  8
0
 10
-17.4738
 20
103.889
 11
-17.5629
 21
104.037
  0
LINE
  8
0
 10
-17.5629
 20
104.037
 11
-17.6373
 21
104.196
  0
LINE
  8
0
 10
-17.6373
 20
104.196
 11
-17.6959
 21
104.359
  0
LINE
  8
0
 10
-17.6959
 20
104.359
 11
-17.7386
 21
104.528
  0
LINE
  8
0
 10
-17.7386
 20
104.528
 11
-17.7643
 21
104.7
  0
LINE
  8
0
 10
-17.7643
 20
104.7
 11
-17.7722
 21
104.874
  0
LINE
  8
0
 10
-17.7722
 20
104.874
 11
-17.7637
 21
105.048
  0
LINE
  8
0
 10
-17.7637
 20
105.048
 11
-17.738
 21
105.22
  0
LINE
  8
0
 10
-17.738
 20
105.22
 11
-17.6959
 21
105.388
  0
LINE
  8
0
 10
-17.6959
 20
105.388
 11
-17.6373
 21
105.552
  0
LINE
  8
0
 10
-17.6373
 20
105.552
 11
-17.5629
 21
105.709
  0
LINE
  8
0
 10
-17.5629
 20
105.709
 11
-17.4738
 21
105.858
  0
LINE
  8
0
 10
-17.4738
 20
105.858
 11
-17.37
 21
105.999
  0
LINE
  8
0
 10
-17.37
 20
105.999
 11
-17.2534
 21
106.127
  0
LINE
  8
0
 10
-17.2534
 20
106.127
 11
-17.124
 21
106.244
  0
LINE
  8
0
 10
-17.124
 20
106.244
 11
-16.9849
 21
106.347
  0
LINE
  8
0
 10
-16.9849
 20
106.347
 11
-16.8353
 21
106.437
  0
LINE
  8
0
 10
-16.8353
 20
106.437
 11
-16.6779
 21
106.511
  0
LINE
  8
0
 10
-16.6779
 20
106.511
 11
-16.5143
 21
106.57
  0
LINE
  8
0
 10
-16.5143
 20
106.57
 11
-16.3446
 21
106.613
  0
LINE
  8
0
 10
-16.3446
 20
106.613
 11
-16.1731
 21
106.638
  0
LINE
  8
0
 10
-16.1731
 20
106.638
 11
-15.9998
 21
106.647
  0
LINE
  8
0
 10
-15.9998
 20
106.647
 11
-15.8258
 21
106.638
  0
LINE
  8
0
 10
-15.8258
 20
106.638
 11
-15.6537
 21
106.613
  0
LINE
  8
0
 10
-15.6537
 20
106.613
 11
-15.4852
 21
106.57
  0
LINE
  8
0
 10
-15.4852
 20
106.57
 11
-15.3217
 21
106.511
  0
LINE
  8
0
 10
-15.3217
 20
106.511
 11
-15.1642
 21
106.437
  0
LINE
  8
0
 10
-15.1642
 20
106.437
 11
-15.0146
 21
106.347
  0
LINE
  8
0
 10
-15.0146
 20
106.347
 11
-14.8755
 21
106.244
  0
LINE
  8
0
 10
-14.8755
 20
106.244
 11
-14.7461
 21
106.127
  0
LINE
  8
0
 10
-14.7461
 20
106.127
 11
-14.6295
 21
105.999
  0
LINE
  8
0
 10
-14.6295
 20
105.999
 11
-14.5258
 21
105.858
  0
LINE
  8
0
 10
-14.5258
 20
105.858
 11
-14.4366
 21
105.709
  0
LINE
  8
0
 10
-14.4366
 20
105.709
 11
-14.3622
 21
105.552
  0
LINE
  8
0
 10
-14.3622
 20
105.552
 11
-14.3036
 21
105.388
  0
LINE
  8
0
 10
-14.3036
 20
105.388
 11
-14.2609
 21
105.219
  0
LINE
  8
0
 10
-14.2609
 20
105.219
 11
-14.2352
 21
105.047
  0
LINE
  8
0
 10
-14.2352
 20
105.047
 11
-14.2273
 21
104.874
  0
LINE
  8
0
 10
-14.2273
 20
104.874
 11
-14.2358
 21
104.699
  0
LINE
  8
0
 10
-14.2358
 20
104.699
 11
-14.2615
 21
104.527
  0
LINE
  8
0
 10
-14.2615
 20
104.527
 11
-14.3036
 21
104.359
  0
LINE
  8
0
 10
-14.3036
 20
104.359
 11
-14.3622
 21
104.195
  0
LINE
  8
0
 10
-14.3622
 20
104.195
 11
-14.4366
 21
104.037
  0
LINE
  8
0
 10
-14.4366
 20
104.037
 11
-14.5264
 21
103.888
  0
LINE
  8
0
 10
-14.5264
 20
103.888
 11
-14.6295
 21
103.749
  0
LINE
  8
0
 10
-14.6295
 20
103.749
 11
-14.7467
 21
103.619
  0
LINE
  8
0
 10
-14.7467
 20
103.619
 11
-14.8755
 21
103.503
  0
LINE
  8
0
 10
-14.8755
 20
103.503
 11
-15.0146
 21
103.4
  0
LINE
  8
0
 10
-15.0146
 20
103.4
 11
-15.1642
 21
103.31
  0
LINE
  8
0
 10
-15.1642
 20
103.31
 11
-15.3217
 21
103.235
  0
LINE
  8
0
 10
-15.3217
 20
103.235
 11
-15.4852
 21
103.177
  0
LINE
  8
0
 10
-15.4852
 20
103.177
 11
-15.6549
 21
103.135
  0
LINE
  8
0
 10
-15.6549
 20
103.135
 11
-15.8264
 21
103.109
  0
LINE
  8
0
 10
-15.8264
 20
103.109
 11
-15.9998
 21
103.101
  0
LINE
  8
0
 10
-15.9998
 20
103.101
 11
-16.1737
 21
103.11
  0
LINE
  8
0
 10
19.1443
 20
85.9027
 11
18.623
 21
86.3605
  0
LINE
  8
0
 10
18.623
 20
86.3605
 11
18.0487
 21
87.124
  0
LINE
  8
0
 10
18.0487
 20
87.124
 11
17.4207
 21
88.194
  0
LINE
  8
0
 10
17.4207
 20
88.194
 11
16.7389
 21
89.5697
  0
LINE
  8
0
 10
16.7389
 20
89.5697
 11
16.004
 21
91.2476
  0
LINE
  8
0
 10
16.004
 20
91.2476
 11
16.004
 21
91.2689
  0
LINE
  8
0
 10
16.004
 20
91.2689
 11
15.9991
 21
91.2585
  0
LINE
  8
0
 10
15.9991
 20
91.2585
 11
15.9955
 21
91.2671
  0
LINE
  8
0
 10
15.9955
 20
91.2671
 11
15.9955
 21
91.2488
  0
LINE
  8
0
 10
15.9955
 20
91.2488
 11
15.2606
 21
89.5697
  0
LINE
  8
0
 10
15.2606
 20
89.5697
 11
14.5789
 21
88.194
  0
LINE
  8
0
 10
14.5789
 20
88.194
 11
13.9502
 21
87.1234
  0
LINE
  8
0
 10
13.9502
 20
87.1234
 11
13.3759
 21
86.3599
  0
LINE
  8
0
 10
13.3759
 20
86.3599
 11
12.8552
 21
85.9027
  0
LINE
  8
0
 10
12.8552
 20
85.9027
 11
12.3883
 21
85.7501
  0
LINE
  8
0
 10
12.3883
 20
85.7501
 11
11.9763
 21
85.9021
  0
LINE
  8
0
 10
11.9763
 20
85.9021
 11
11.615
 21
86.3599
  0
LINE
  8
0
 10
11.615
 20
86.3599
 11
11.308
 21
87.1228
  0
LINE
  8
0
 10
11.308
 20
87.1228
 11
11.0529
 21
88.1934
  0
LINE
  8
0
 10
11.0529
 20
88.1934
 11
10.8514
 21
89.5685
  0
LINE
  8
0
 10
10.8514
 20
89.5685
 11
10.7037
 21
91.2488
  0
LINE
  8
0
 10
10.7037
 20
91.2488
 11
15.9998
 21
97.4744
  0
LINE
  8
0
 10
15.9998
 20
97.4744
 11
21.2952
 21
91.2494
  0
LINE
  8
0
 10
21.2952
 20
91.2494
 11
21.1475
 21
89.5685
  0
LINE
  8
0
 10
21.1475
 20
89.5685
 11
20.946
 21
88.1927
  0
LINE
  8
0
 10
20.946
 20
88.1927
 11
20.6915
 21
87.1222
  0
LINE
  8
0
 10
20.6915
 20
87.1222
 11
20.3845
 21
86.3599
  0
LINE
  8
0
 10
20.3845
 20
86.3599
 11
20.0232
 21
85.9021
  0
LINE
  8
0
 10
20.0232
 20
85.9021
 11
19.6112
 21
85.7501
  0
LINE
  8
0
 10
19.6112
 20
85.7501
 11
19.1443
 21
85.9027
  0
LINE
  8
0
 10
-12.8552
 20
85.9027
 11
-13.3765
 21
86.3605
  0
LINE
  8
0
 10
-13.3765
 20
86.3605
 11
-13.9508
 21
87.124
  0
LINE
  8
0
 10
-13.9508
 20
87.124
 11
-14.5789
 21
88.194
  0
LINE
  8
0
 10
-14.5789
 20
88.194
 11
-15.2606
 21
89.5697
  0
LINE
  8
0
 10
-15.2606
 20
89.5697
 11
-15.9955
 21
91.2476
  0
LINE
  8
0
 10
-15.9955
 20
91.2476
 11
-15.9955
 21
91.2689
  0
LINE
  8
0
 10
-15.9955
 20
91.2689
 11
-16.0004
 21
91.2585
  0
LINE
  8
0
 10
-16.0004
 20
91.2585
 11
-16.004
 21
91.2671
  0
LINE
  8
0
 10
-16.004
 20
91.2671
 11
-16.004
 21
91.2488
  0
LINE
  8
0
 10
-16.004
 20
91.2488
 11
-16.7389
 21
89.5697
  0
LINE
  8
0
 10
-16.7389
 20
89.5697
 11
-17.4207
 21
88.194
  0
LINE
  8
0
 10
-17.4207
 20
88.194
 11
-18.0493
 21
87.1234
  0
LINE
  8
0
 10
-18.0493
 20
87.1234
 11
-18.6237
 21
86.3599
  0
LINE
  8
0
 10
-18.6237
 20
86.3599
 11
-19.1443
 21
85.9027
  0
LINE
  8
0
 10
-19.1443
 20
85.9027
 11
-19.6112
 21
85.7501
  0
LINE
  8
0
 10
-19.6112
 20
85.7501
 11
-20.0232
 21
85.9021
  0
LINE
  8
0
 10
-20.0232
 20
85.9021
 11
-20.3845
 21
86.3599
  0
LINE
  8
0
 10
-20.3845
 20
86.3599
 11
-20.6915
 21
87.1228
  0
LINE
  8
0
 10
-20.6915
 20
87.1228
 11
-20.9467
 21
88.1934
  0
LINE
  8
0
 10
-20.9467
 20
88.1934
 11
-21.1481
 21
89.5685
  0
LINE
  8
0
 10
-21.1481
 20
89.5685
 11
-21.2958
 21
91.2488
  0
LINE
  8
0
 10
-21.2958
 20
91.2488
 11
-15.9998
 21
97.4744
  0
LINE
  8
0
 10
-15.9998
 20
97.4744
 11
-10.7043
 21
91.2494
  0
LINE
  8
0
 10
-10.7043
 20
91.2494
 11
-10.8521
 21
89.5685
  0
LINE
  8
0
 10
-10.8521
 20
89.5685
 11
-11.0535
 21
88.1927
  0
LINE
  8
0
 10
-11.0535
 20
88.1927
 11
-11.308
 21
87.1222
  0
LINE
  8
0
 10
-11.308
 20
87.1222
 11
-11.615
 21
86.3599
  0
LINE
  8
0
 10
-11.615
 20
86.3599
 11
-11.9763
 21
85.9021
  0
LINE
  8
0
 10
-11.9763
 20
85.9021
 11
-12.3883
 21
85.7501
  0
LINE
  8
0
 10
-12.3883
 20
85.7501
 11
-12.8552
 21
85.9027
  0
LINE
  8
0
 10
18.5687
 20
67.6544
 11
17.4628
 21
69.0649
  0
LINE
  8
0
 10
17.4628
 20
69.0649
 11
16.5326
 21
70.5609
  0
LINE
  8
0
 10
16.5326
 20
70.5609
 11
16.004
 21
71.6638
  0
LINE
  8
0
 10
16.004
 20
71.6638
 11
16.004
 21
71.6852
  0
LINE
  8
0
 10
16.004
 20
71.6852
 11
15.9991
 21
71.6742
  0
LINE
  8
0
 10
15.9991
 20
71.6742
 11
15.9955
 21
71.6815
  0
LINE
  8
0
 10
15.9955
 20
71.6815
 11
15.9955
 21
71.6675
  0
LINE
  8
0
 10
15.9955
 20
71.6675
 11
15.4669
 21
70.5609
  0
LINE
  8
0
 10
15.4669
 20
70.5609
 11
14.5361
 21
69.0637
  0
LINE
  8
0
 10
14.5361
 20
69.0637
 11
13.4308
 21
67.6538
  0
LINE
  8
0
 10
13.4308
 20
67.6538
 11
12.1545
 21
66.333
  0
LINE
  8
0
 10
12.1545
 20
66.333
 11
10.6427
 21
68.4149
  0
LINE
  8
0
 10
10.6427
 20
68.4149
 11
9.31824
 21
70.4486
  0
LINE
  8
0
 10
9.31824
 20
70.4486
 11
8.18542
 21
72.4304
  0
LINE
  8
0
 10
8.18542
 20
72.4304
 11
7.24182
 21
74.3597
  0
LINE
  8
0
 10
7.24182
 20
74.3597
 11
6.48926
 21
76.2378
  0
LINE
  8
0
 10
6.48926
 20
76.2378
 11
5.92712
 21
78.0634
  0
LINE
  8
0
 10
5.92712
 20
78.0634
 11
5.55542
 21
79.8364
  0
LINE
  8
0
 10
5.55542
 20
79.8364
 11
5.37354
 21
81.5576
  0
LINE
  8
0
 10
5.37354
 20
81.5576
 11
5.38208
 21
83.2281
  0
LINE
  8
0
 10
5.38208
 20
83.2281
 11
5.58105
 21
84.845
  0
LINE
  8
0
 10
5.58105
 20
84.845
 11
5.96985
 21
86.4117
  0
LINE
  8
0
 10
5.96985
 20
86.4117
 11
6.54541
 21
87.9144
  0
LINE
  8
0
 10
6.54541
 20
87.9144
 11
7.4646
 21
84.6252
  0
LINE
  8
0
 10
7.4646
 20
84.6252
 11
8.36304
 21
81.925
  0
LINE
  8
0
 10
8.36304
 20
81.925
 11
9.23645
 21
79.8254
  0
LINE
  8
0
 10
9.23645
 20
79.8254
 11
10.0861
 21
78.3246
  0
LINE
  8
0
 10
10.0861
 20
78.3246
 11
10.9113
 21
77.4237
  0
LINE
  8
0
 10
10.9113
 20
77.4237
 11
11.7139
 21
77.1228
  0
LINE
  8
0
 10
11.7139
 20
77.1228
 11
12.4915
 21
77.4243
  0
LINE
  8
0
 10
12.4915
 20
77.4243
 11
13.244
 21
78.3246
  0
LINE
  8
0
 10
13.244
 20
78.3246
 11
13.9703
 21
79.8254
  0
LINE
  8
0
 10
13.9703
 20
79.8254
 11
14.6729
 21
81.925
  0
LINE
  8
0
 10
14.6729
 20
81.925
 11
15.3503
 21
84.6252
  0
LINE
  8
0
 10
15.3503
 20
84.6252
 11
15.9998
 21
87.9047
  0
LINE
  8
0
 10
15.9998
 20
87.9047
 11
16.6492
 21
84.6259
  0
LINE
  8
0
 10
16.6492
 20
84.6259
 11
17.3267
 21
81.9257
  0
LINE
  8
0
 10
17.3267
 20
81.9257
 11
18.0292
 21
79.826
  0
LINE
  8
0
 10
18.0292
 20
79.826
 11
18.7555
 21
78.3246
  0
LINE
  8
0
 10
18.7555
 20
78.3246
 11
19.5081
 21
77.4243
  0
LINE
  8
0
 10
19.5081
 20
77.4243
 11
20.2856
 21
77.1228
  0
LINE
  8
0
 10
20.2856
 20
77.1228
 11
21.0883
 21
77.4237
  0
LINE
  8
0
 10
21.0883
 20
77.4237
 11
21.9135
 21
78.3246
  0
LINE
  8
0
 10
21.9135
 20
78.3246
 11
22.7631
 21
79.8254
  0
LINE
  8
0
 10
22.7631
 20
79.8254
 11
23.6365
 21
81.9244
  0
LINE
  8
0
 10
23.6365
 20
81.9244
 11
24.5349
 21
84.6252
  0
LINE
  8
0
 10
24.5349
 20
84.6252
 11
25.4541
 21
87.9144
  0
LINE
  8
0
 10
25.4541
 20
87.9144
 11
26.0297
 21
86.4111
  0
LINE
  8
0
 10
26.0297
 20
86.4111
 11
26.4185
 21
84.845
  0
LINE
  8
0
 10
26.4185
 20
84.845
 11
26.6174
 21
83.2269
  0
LINE
  8
0
 10
26.6174
 20
83.2269
 11
26.626
 21
81.5564
  0
LINE
  8
0
 10
26.626
 20
81.5564
 11
26.4441
 21
79.8364
  0
LINE
  8
0
 10
26.4441
 20
79.8364
 11
26.0724
 21
78.0627
  0
LINE
  8
0
 10
26.0724
 20
78.0627
 11
25.5103
 21
76.2372
  0
LINE
  8
0
 10
25.5103
 20
76.2372
 11
24.7577
 21
74.3591
  0
LINE
  8
0
 10
24.7577
 20
74.3591
 11
23.8141
 21
72.4304
  0
LINE
  8
0
 10
23.8141
 20
72.4304
 11
22.6807
 21
70.448
  0
LINE
  8
0
 10
22.6807
 20
70.448
 11
21.3562
 21
68.4143
  0
LINE
  8
0
 10
21.3562
 20
68.4143
 11
19.8456
 21
66.333
  0
LINE
  8
0
 10
19.8456
 20
66.333
 11
18.5687
 21
67.6544
  0
LINE
  8
0
 10
-13.4308
 20
67.6544
 11
-14.5367
 21
69.0649
  0
LINE
  8
0
 10
-14.5367
 20
69.0649
 11
-15.4669
 21
70.5609
  0
LINE
  8
0
 10
-15.4669
 20
70.5609
 11
-15.9955
 21
71.6638
  0
LINE
  8
0
 10
-15.9955
 20
71.6638
 11
-15.9955
 21
71.6852
  0
LINE
  8
0
 10
-15.9955
 20
71.6852
 11
-16.0004
 21
71.6742
  0
LINE
  8
0
 10
-16.0004
 20
71.6742
 11
-16.004
 21
71.6815
  0
LINE
  8
0
 10
-16.004
 20
71.6815
 11
-16.004
 21
71.6675
  0
LINE
  8
0
 10
-16.004
 20
71.6675
 11
-16.5326
 21
70.5609
  0
LINE
  8
0
 10
-16.5326
 20
70.5609
 11
-17.4634
 21
69.0637
  0
LINE
  8
0
 10
-17.4634
 20
69.0637
 11
-18.5687
 21
67.6538
  0
LINE
  8
0
 10
-18.5687
 20
67.6538
 11
-19.845
 21
66.333
  0
LINE
  8
0
 10
-19.845
 20
66.333
 11
-21.3568
 21
68.4149
  0
LINE
  8
0
 10
-21.3568
 20
68.4149
 11
-22.6813
 21
70.4486
  0
LINE
  8
0
 10
-22.6813
 20
70.4486
 11
-23.8141
 21
72.4304
  0
LINE
  8
0
 10
-23.8141
 20
72.4304
 11
-24.7577
 21
74.3597
  0
LINE
  8
0
 10
-24.7577
 20
74.3597
 11
-25.5103
 21
76.2378
  0
LINE
  8
0
 10
-25.5103
 20
76.2378
 11
-26.0724
 21
78.0634
  0
LINE
  8
0
 10
-26.0724
 20
78.0634
 11
-26.4441
 21
79.8364
  0
LINE
  8
0
 10
-26.4441
 20
79.8364
 11
-26.626
 21
81.5576
  0
LINE
  8
0
 10
-26.626
 20
81.5576
 11
-26.6174
 21
83.2281
  0
LINE
  8
0
 10
-26.6174
 20
83.2281
 11
-26.4185
 21
84.845
  0
LINE
  8
0
 10
-26.4185
 20
84.845
 11
-26.0297
 21
86.4117
  0
LINE
  8
0
 10
-26.0297
 20
86.4117
 11
-25.4541
 21
87.9144
  0
LINE
  8
0
 10
-25.4541
 20
87.9144
 11
-24.5349
 21
84.6252
  0
LINE
  8
0
 10
-24.5349
 20
84.6252
 11
-23.6365
 21
81.925
  0
LINE
  8
0
 10
-23.6365
 20
81.925
 11
-22.7631
 21
79.8254
  0
LINE
  8
0
 10
-22.7631
 20
79.8254
 11
-21.9135
 21
78.3246
  0
LINE
  8
0
 10
-21.9135
 20
78.3246
 11
-21.0883
 21
77.4237
  0
LINE
  8
0
 10
-21.0883
 20
77.4237
 11
-20.2856
 21
77.1228
  0
LINE
  8
0
 10
-20.2856
 20
77.1228
 11
-19.5081
 21
77.4243
  0
LINE
  8
0
 10
-19.5081
 20
77.4243
 11
-18.7555
 21
78.3246
  0
LINE
  8
0
 10
-18.7555
 20
78.3246
 11
-18.0292
 21
79.8254
  0
LINE
  8
0
 10
-18.0292
 20
79.8254
 11
-17.3267
 21
81.925
  0
LINE
  8
0
 10
-17.3267
 20
81.925
 11
-16.6492
 21
84.6252
  0
LINE
  8
0
 10
-16.6492
 20
84.6252
 11
-15.9998
 21
87.9047
  0
LINE
  8
0
 10
-15.9998
 20
87.9047
 11
-15.3503
 21
84.6259
  0
LINE
  8
0
 10
-15.3503
 20
84.6259
 11
-14.6729
 21
81.9257
  0
LINE
  8
0
 10
-14.6729
 20
81.9257
 11
-13.9703
 21
79.826
  0
LINE
  8
0
 10
-13.9703
 20
79.826
 11
-13.244
 21
78.3246
  0
LINE
  8
0
 10
-13.244
 20
78.3246
 11
-12.4915
 21
77.4243
  0
LINE
  8
0
 10
-12.4915
 20
77.4243
 11
-11.7139
 21
77.1228
  0
LINE
  8
0
 10
-11.7139
 20
77.1228
 11
-10.9113
 21
77.4237
  0
LINE
  8
0
 10
-10.9113
 20
77.4237
 11
-10.0861
 21
78.3246
  0
LINE
  8
0
 10
-10.0861
 20
78.3246
 11
-9.23645
 21
79.8254
  0
LINE
  8
0
 10
-9.23645
 20
79.8254
 11
-8.36304
 21
81.9244
  0
LINE
  8
0
 10
-8.36304
 20
81.9244
 11
-7.4646
 21
84.6252
  0
LINE
  8
0
 10
-7.4646
 20
84.6252
 11
-6.54541
 21
87.9144
  0
LINE
  8
0
 10
-6.54541
 20
87.9144
 11
-5.96985
 21
86.4111
  0
LINE
  8
0
 10
-5.96985
 20
86.4111
 11
-5.58105
 21
84.845
  0
LINE
  8
0
 10
-5.58105
 20
84.845
 11
-5.38208
 21
83.2269
  0
LINE
  8
0
 10
-5.38208
 20
83.2269
 11
-5.37354
 21
81.5564
  0
LINE
  8
0
 10
-5.37354
 20
81.5564
 11
-5.55542
 21
79.8364
  0
LINE
  8
0
 10
-5.55542
 20
79.8364
 11
-5.92712
 21
78.0627
  0
LINE
  8
0
 10
-5.92712
 20
78.0627
 11
-6.48926
 21
76.2372
  0
LINE
  8
0
 10
-6.48926
 20
76.2372
 11
-7.24182
 21
74.3591
  0
LINE
  8
0
 10
-7.24182
 20
74.3591
 11
-8.18542
 21
72.4304
  0
LINE
  8
0
 10
-8.18542
 20
72.4304
 11
-9.31885
 21
70.448
  0
LINE
  8
0
 10
-9.31885
 20
70.448
 11
-10.6433
 21
68.4143
  0
LINE
  8
0
 10
-10.6433
 20
68.4143
 11
-12.1539
 21
66.333
  0
LINE
  8
0
 10
-12.1539
 20
66.333
 11
-13.4308
 21
67.6544
  0
LINE
  8
0
 10
31.8256
 20
83.1097
 11
31.6534
 21
83.1348
  0
LINE
  8
0
 10
31.6534
 20
83.1348
 11
31.485
 21
83.1769
  0
LINE
  8
0
 10
31.485
 20
83.1769
 11
31.3214
 21
83.2355
  0
LINE
  8
0
 10
31.3214
 20
83.2355
 11
31.1639
 21
83.3099
  0
LINE
  8
0
 10
31.1639
 20
83.3099
 11
31.0144
 21
83.3997
  0
LINE
  8
0
 10
31.0144
 20
83.3997
 11
30.8752
 21
83.5028
  0
LINE
  8
0
 10
30.8752
 20
83.5028
 11
30.7458
 21
83.62
  0
LINE
  8
0
 10
30.7458
 20
83.62
 11
30.6293
 21
83.7488
  0
LINE
  8
0
 10
30.6293
 20
83.7488
 11
30.5255
 21
83.8885
  0
LINE
  8
0
 10
30.5255
 20
83.8885
 11
30.4364
 21
84.0375
  0
LINE
  8
0
 10
30.4364
 20
84.0375
 11
30.3619
 21
84.1956
  0
LINE
  8
0
 10
30.3619
 20
84.1956
 11
30.3033
 21
84.3591
  0
LINE
  8
0
 10
30.3033
 20
84.3591
 11
30.2606
 21
84.5282
  0
LINE
  8
0
 10
30.2606
 20
84.5282
 11
30.235
 21
84.6997
  0
LINE
  8
0
 10
30.235
 20
84.6997
 11
30.2271
 21
84.8737
  0
LINE
  8
0
 10
30.2271
 20
84.8737
 11
30.2356
 21
85.0476
  0
LINE
  8
0
 10
30.2356
 20
85.0476
 11
30.2612
 21
85.2203
  0
LINE
  8
0
 10
30.2612
 20
85.2203
 11
30.3033
 21
85.3882
  0
LINE
  8
0
 10
30.3033
 20
85.3882
 11
30.3619
 21
85.5518
  0
LINE
  8
0
 10
30.3619
 20
85.5518
 11
30.4364
 21
85.7092
  0
LINE
  8
0
 10
30.4364
 20
85.7092
 11
30.5255
 21
85.8582
  0
LINE
  8
0
 10
30.5255
 20
85.8582
 11
30.6293
 21
85.9985
  0
LINE
  8
0
 10
30.6293
 20
85.9985
 11
30.7458
 21
86.1267
  0
LINE
  8
0
 10
30.7458
 20
86.1267
 11
30.8752
 21
86.2439
  0
LINE
  8
0
 10
30.8752
 20
86.2439
 11
31.0144
 21
86.347
  0
LINE
  8
0
 10
31.0144
 20
86.347
 11
31.1639
 21
86.4368
  0
LINE
  8
0
 10
31.1639
 20
86.4368
 11
31.3214
 21
86.5112
  0
LINE
  8
0
 10
31.3214
 20
86.5112
 11
31.485
 21
86.5704
  0
LINE
  8
0
 10
31.485
 20
86.5704
 11
31.6547
 21
86.6125
  0
LINE
  8
0
 10
31.6547
 20
86.6125
 11
31.8262
 21
86.6382
  0
LINE
  8
0
 10
31.8262
 20
86.6382
 11
31.9995
 21
86.6467
  0
LINE
  8
0
 10
31.9995
 20
86.6467
 11
32.1735
 21
86.6376
  0
LINE
  8
0
 10
32.1735
 20
86.6376
 11
32.3456
 21
86.6125
  0
LINE
  8
0
 10
32.3456
 20
86.6125
 11
32.514
 21
86.5704
  0
LINE
  8
0
 10
32.514
 20
86.5704
 11
32.6776
 21
86.5112
  0
LINE
  8
0
 10
32.6776
 20
86.5112
 11
32.8351
 21
86.4368
  0
LINE
  8
0
 10
32.8351
 20
86.4368
 11
32.9846
 21
86.347
  0
LINE
  8
0
 10
32.9846
 20
86.347
 11
33.1238
 21
86.2439
  0
LINE
  8
0
 10
33.1238
 20
86.2439
 11
33.2532
 21
86.1267
  0
LINE
  8
0
 10
33.2532
 20
86.1267
 11
33.3698
 21
85.9985
  0
LINE
  8
0
 10
33.3698
 20
85.9985
 11
33.4735
 21
85.8582
  0
LINE
  8
0
 10
33.4735
 20
85.8582
 11
33.5626
 21
85.7092
  0
LINE
  8
0
 10
33.5626
 20
85.7092
 11
33.6371
 21
85.5518
  0
LINE
  8
0
 10
33.6371
 20
85.5518
 11
33.6957
 21
85.3882
  0
LINE
  8
0
 10
33.6957
 20
85.3882
 11
33.7384
 21
85.2191
  0
LINE
  8
0
 10
33.7384
 20
85.2191
 11
33.764
 21
85.047
  0
LINE
  8
0
 10
33.764
 20
85.047
 11
33.772
 21
84.8737
  0
LINE
  8
0
 10
33.772
 20
84.8737
 11
33.7634
 21
84.6991
  0
LINE
  8
0
 10
33.7634
 20
84.6991
 11
33.7378
 21
84.527
  0
LINE
  8
0
 10
33.7378
 20
84.527
 11
33.6957
 21
84.3591
  0
LINE
  8
0
 10
33.6957
 20
84.3591
 11
33.6371
 21
84.1949
  0
LINE
  8
0
 10
33.6371
 20
84.1949
 11
33.5626
 21
84.0375
  0
LINE
  8
0
 10
33.5626
 20
84.0375
 11
33.4729
 21
83.8879
  0
LINE
  8
0
 10
33.4729
 20
83.8879
 11
33.3698
 21
83.7488
  0
LINE
  8
0
 10
33.3698
 20
83.7488
 11
33.2526
 21
83.6194
  0
LINE
  8
0
 10
33.2526
 20
83.6194
 11
33.1238
 21
83.5028
  0
LINE
  8
0
 10
33.1238
 20
83.5028
 11
32.9846
 21
83.3997
  0
LINE
  8
0
 10
32.9846
 20
83.3997
 11
32.8351
 21
83.3099
  0
LINE
  8
0
 10
32.8351
 20
83.3099
 11
32.6776
 21
83.2355
  0
LINE
  8
0
 10
32.6776
 20
83.2355
 11
32.514
 21
83.1769
  0
LINE
  8
0
 10
32.514
 20
83.1769
 11
32.3444
 21
83.1348
  0
LINE
  8
0
 10
32.3444
 20
83.1348
 11
32.1729
 21
83.1091
  0
LINE
  8
0
 10
32.1729
 20
83.1091
 11
31.9995
 21
83.1006
  0
LINE
  8
0
 10
31.9995
 20
83.1006
 11
31.8256
 21
83.1097
  0
LINE
  8
0
 10
-32.1735
 20
83.1097
 11
-32.3456
 21
83.1348
  0
LINE
  8
0
 10
-32.3456
 20
83.1348
 11
-32.514
 21
83.1769
  0
LINE
  8
0
 10
-32.514
 20
83.1769
 11
-32.6776
 21
83.2355
  0
LINE
  8
0
 10
-32.6776
 20
83.2355
 11
-32.8351
 21
83.3099
  0
LINE
  8
0
 10
-32.8351
 20
83.3099
 11
-32.9846
 21
83.3997
  0
LINE
  8
0
 10
-32.9846
 20
83.3997
 11
-33.1238
 21
83.5028
  0
LINE
  8
0
 10
-33.1238
 20
83.5028
 11
-33.2532
 21
83.62
  0
LINE
  8
0
 10
-33.2532
 20
83.62
 11
-33.3698
 21
83.7488
  0
LINE
  8
0
 10
-33.3698
 20
83.7488
 11
-33.4735
 21
83.8885
  0
LINE
  8
0
 10
-33.4735
 20
83.8885
 11
-33.5626
 21
84.0375
  0
LINE
  8
0
 10
-33.5626
 20
84.0375
 11
-33.6371
 21
84.1956
  0
LINE
  8
0
 10
-33.6371
 20
84.1956
 11
-33.6957
 21
84.3591
  0
LINE
  8
0
 10
-33.6957
 20
84.3591
 11
-33.7384
 21
84.5282
  0
LINE
  8
0
 10
-33.7384
 20
84.5282
 11
-33.764
 21
84.6997
  0
LINE
  8
0
 10
-33.764
 20
84.6997
 11
-33.772
 21
84.8737
  0
LINE
  8
0
 10
-33.772
 20
84.8737
 11
-33.7634
 21
85.0476
  0
LINE
  8
0
 10
-33.7634
 20
85.0476
 11
-33.7378
 21
85.2203
  0
LINE
  8
0
 10
-33.7378
 20
85.2203
 11
-33.6957
 21
85.3882
  0
LINE
  8
0
 10
-33.6957
 20
85.3882
 11
-33.6371
 21
85.5518
  0
LINE
  8
0
 10
-33.6371
 20
85.5518
 11
-33.5626
 21
85.7092
  0
LINE
  8
0
 10
-33.5626
 20
85.7092
 11
-33.4735
 21
85.8582
  0
LINE
  8
0
 10
-33.4735
 20
85.8582
 11
-33.3698
 21
85.9985
  0
LINE
  8
0
 10
-33.3698
 20
85.9985
 11
-33.2532
 21
86.1267
  0
LINE
  8
0
 10
-33.2532
 20
86.1267
 11
-33.1238
 21
86.2439
  0
LINE
  8
0
 10
-33.1238
 20
86.2439
 11
-32.9846
 21
86.347
  0
LINE
  8
0
 10
-32.9846
 20
86.347
 11
-32.8351
 21
86.4368
  0
LINE
  8
0
 10
-32.8351
 20
86.4368
 11
-32.6776
 21
86.5112
  0
LINE
  8
0
 10
-32.6776
 20
86.5112
 11
-32.514
 21
86.5704
  0
LINE
  8
0
 10
-32.514
 20
86.5704
 11
-32.3444
 21
86.6125
  0
LINE
  8
0
 10
-32.3444
 20
86.6125
 11
-32.1729
 21
86.6382
  0
LINE
  8
0
 10
-32.1729
 20
86.6382
 11
-31.9995
 21
86.6467
  0
LINE
  8
0
 10
-31.9995
 20
86.6467
 11
-31.8256
 21
86.6376
  0
LINE
  8
0
 10
-31.8256
 20
86.6376
 11
-31.6534
 21
86.6125
  0
LINE
  8
0
 10
-31.6534
 20
86.6125
 11
-31.485
 21
86.5704
  0
LINE
  8
0
 10
-31.485
 20
86.5704
 11
-31.3214
 21
86.5112
  0
LINE
  8
0
 10
-31.3214
 20
86.5112
 11
-31.1639
 21
86.4368
  0
LINE
  8
0
 10
-31.1639
 20
86.4368
 11
-31.0144
 21
86.347
  0
LINE
  8
0
 10
-31.0144
 20
86.347
 11
-30.8752
 21
86.2439
  0
LINE
  8
0
 10
-30.8752
 20
86.2439
 11
-30.7458
 21
86.1267
  0
LINE
  8
0
 10
-30.7458
 20
86.1267
 11
-30.6293
 21
85.9985
  0
LINE
  8
0
 10
-30.6293
 20
85.9985
 11
-30.5255
 21
85.8582
  0
LINE
  8
0
 10
-30.5255
 20
85.8582
 11
-30.4364
 21
85.7092
  0
LINE
  8
0
 10
-30.4364
 20
85.7092
 11
-30.3619
 21
85.5518
  0
LINE
  8
0
 10
-30.3619
 20
85.5518
 11
-30.3033
 21
85.3882
  0
LINE
  8
0
 10
-30.3033
 20
85.3882
 11
-30.2606
 21
85.2191
  0
LINE
  8
0
 10
-30.2606
 20
85.2191
 11
-30.235
 21
85.047
  0
LINE
  8
0
 10
-30.235
 20
85.047
 11
-30.2271
 21
84.8737
  0
LINE
  8
0
 10
-30.2271
 20
84.8737
 11
-30.2356
 21
84.6991
  0
LINE
  8
0
 10
-30.2356
 20
84.6991
 11
-30.2612
 21
84.527
  0
LINE
  8
0
 10
-30.2612
 20
84.527
 11
-30.3033
 21
84.3591
  0
LINE
  8
0
 10
-30.3033
 20
84.3591
 11
-30.3619
 21
84.1949
  0
LINE
  8
0
 10
-30.3619
 20
84.1949
 11
-30.4364
 21
84.0375
  0
LINE
  8
0
 10
-30.4364
 20
84.0375
 11
-30.5261
 21
83.8879
  0
LINE
  8
0
 10
-30.5261
 20
83.8879
 11
-30.6293
 21
83.7488
  0
LINE
  8
0
 10
-30.6293
 20
83.7488
 11
-30.7465
 21
83.6194
  0
LINE
  8
0
 10
-30.7465
 20
83.6194
 11
-30.8752
 21
83.5028
  0
LINE
  8
0
 10
-30.8752
 20
83.5028
 11
-31.0144
 21
83.3997
  0
LINE
  8
0
 10
-31.0144
 20
83.3997
 11
-31.1639
 21
83.3099
  0
LINE
  8
0
 10
-31.1639
 20
83.3099
 11
-31.3214
 21
83.2355
  0
LINE
  8
0
 10
-31.3214
 20
83.2355
 11
-31.485
 21
83.1769
  0
LINE
  8
0
 10
-31.485
 20
83.1769
 11
-31.6547
 21
83.1348
  0
LINE
  8
0
 10
-31.6547
 20
83.1348
 11
-31.8262
 21
83.1091
  0
LINE
  8
0
 10
-31.8262
 20
83.1091
 11
-31.9995
 21
83.1006
  0
LINE
  8
0
 10
-31.9995
 20
83.1006
 11
-32.1735
 21
83.1097
  0
LINE
  8
0
 10
-0.17395
 20
83.1097
 11
-0.346069
 21
83.1348
  0
LINE
  8
0
 10
-0.346069
 20
83.1348
 11
-0.514526
 21
83.1769
  0
LINE
  8
0
 10
-0.514526
 20
83.1769
 11
-0.678101
 21
83.2355
  0
LINE
  8
0
 10
-0.678101
 20
83.2355
 11
-0.835571
 21
83.3099
  0
LINE
  8
0
 10
-0.835571
 20
83.3099
 11
-0.985107
 21
83.3997
  0
LINE
  8
0
 10
-0.985107
 20
83.3997
 11
-1.12427
 21
83.5028
  0
LINE
  8
0
 10
-1.12427
 20
83.5028
 11
-1.25366
 21
83.62
  0
LINE
  8
0
 10
-1.25366
 20
83.62
 11
-1.37024
 21
83.7488
  0
LINE
  8
0
 10
-1.37024
 20
83.7488
 11
-1.474
 21
83.8885
  0
LINE
  8
0
 10
-1.474
 20
83.8885
 11
-1.56311
 21
84.0375
  0
LINE
  8
0
 10
-1.56311
 20
84.0375
 11
-1.63757
 21
84.1956
  0
LINE
  8
0
 10
-1.63757
 20
84.1956
 11
-1.69617
 21
84.3591
  0
LINE
  8
0
 10
-1.69617
 20
84.3591
 11
-1.73889
 21
84.5282
  0
LINE
  8
0
 10
-1.73889
 20
84.5282
 11
-1.76453
 21
84.6997
  0
LINE
  8
0
 10
-1.76453
 20
84.6997
 11
-1.77246
 21
84.8737
  0
LINE
  8
0
 10
-1.77246
 20
84.8737
 11
-1.76392
 21
85.0476
  0
LINE
  8
0
 10
-1.76392
 20
85.0476
 11
-1.73828
 21
85.2203
  0
LINE
  8
0
 10
-1.73828
 20
85.2203
 11
-1.69617
 21
85.3882
  0
LINE
  8
0
 10
-1.69617
 20
85.3882
 11
-1.63757
 21
85.5518
  0
LINE
  8
0
 10
-1.63757
 20
85.5518
 11
-1.56311
 21
85.7092
  0
LINE
  8
0
 10
-1.56311
 20
85.7092
 11
-1.474
 21
85.8582
  0
LINE
  8
0
 10
-1.474
 20
85.8582
 11
-1.37024
 21
85.9985
  0
LINE
  8
0
 10
-1.37024
 20
85.9985
 11
-1.25366
 21
86.1267
  0
LINE
  8
0
 10
-1.25366
 20
86.1267
 11
-1.12427
 21
86.2439
  0
LINE
  8
0
 10
-1.12427
 20
86.2439
 11
-0.985107
 21
86.347
  0
LINE
  8
0
 10
-0.985107
 20
86.347
 11
-0.835571
 21
86.4368
  0
LINE
  8
0
 10
-0.835571
 20
86.4368
 11
-0.678101
 21
86.5112
  0
LINE
  8
0
 10
-0.678101
 20
86.5112
 11
-0.514526
 21
86.5704
  0
LINE
  8
0
 10
-0.514526
 20
86.5704
 11
-0.344849
 21
86.6125
  0
LINE
  8
0
 10
-0.344849
 20
86.6125
 11
-0.17334
 21
86.6382
  0
LINE
  8
0
 10
-0.17334
 20
86.6382
 11
0
 21
86.6467
  0
LINE
  8
0
 10
0
 20
86.6467
 11
0.17395
 21
86.6376
  0
LINE
  8
0
 10
0.17395
 20
86.6376
 11
0.346069
 21
86.6125
  0
LINE
  8
0
 10
0.346069
 20
86.6125
 11
0.514526
 21
86.5704
  0
LINE
  8
0
 10
0.514526
 20
86.5704
 11
0.678101
 21
86.5112
  0
LINE
  8
0
 10
0.678101
 20
86.5112
 11
0.835571
 21
86.4368
  0
LINE
  8
0
 10
0.835571
 20
86.4368
 11
0.985107
 21
86.347
  0
LINE
  8
0
 10
0.985107
 20
86.347
 11
1.12427
 21
86.2439
  0
LINE
  8
0
 10
1.12427
 20
86.2439
 11
1.25366
 21
86.1267
  0
LINE
  8
0
 10
1.25366
 20
86.1267
 11
1.37024
 21
85.9985
  0
LINE
  8
0
 10
1.37024
 20
85.9985
 11
1.474
 21
85.8582
  0
LINE
  8
0
 10
1.474
 20
85.8582
 11
1.56311
 21
85.7092
  0
LINE
  8
0
 10
1.56311
 20
85.7092
 11
1.63757
 21
85.5518
  0
LINE
  8
0
 10
1.63757
 20
85.5518
 11
1.69617
 21
85.3882
  0
LINE
  8
0
 10
1.69617
 20
85.3882
 11
1.73889
 21
85.2191
  0
LINE
  8
0
 10
1.73889
 20
85.2191
 11
1.76453
 21
85.047
  0
LINE
  8
0
 10
1.76453
 20
85.047
 11
1.77246
 21
84.8737
  0
LINE
  8
0
 10
1.77246
 20
84.8737
 11
1.76392
 21
84.6991
  0
LINE
  8
0
 10
1.76392
 20
84.6991
 11
1.73828
 21
84.527
  0
LINE
  8
0
 10
1.73828
 20
84.527
 11
1.69617
 21
84.3591
  0
LINE
  8
0
 10
1.69617
 20
84.3591
 11
1.63757
 21
84.1949
  0
LINE
  8
0
 10
1.63757
 20
84.1949
 11
1.56311
 21
84.0375
  0
LINE
  8
0
 10
1.56311
 20
84.0375
 11
1.47339
 21
83.8879
  0
LINE
  8
0
 10
1.47339
 20
83.8879
 11
1.37024
 21
83.7488
  0
LINE
  8
0
 10
1.37024
 20
83.7488
 11
1.25305
 21
83.6194
  0
LINE
  8
0
 10
1.25305
 20
83.6194
 11
1.12427
 21
83.5028
  0
LINE
  8
0
 10
1.12427
 20
83.5028
 11
0.985107
 21
83.3997
  0
LINE
  8
0
 10
0.985107
 20
83.3997
 11
0.835571
 21
83.3099
  0
LINE
  8
0
 10
0.835571
 20
83.3099
 11
0.678101
 21
83.2355
  0
LINE
  8
0
 10
0.678101
 20
83.2355
 11
0.514526
 21
83.1769
  0
LINE
  8
0
 10
0.514526
 20
83.1769
 11
0.344849
 21
83.1348
  0
LINE
  8
0
 10
0.344849
 20
83.1348
 11
0.17334
 21
83.1091
  0
LINE
  8
0
 10
0.17334
 20
83.1091
 11
0
 21
83.1006
  0
LINE
  8
0
 10
0
 20
83.1006
 11
-0.17395
 21
83.1097
  0
LINE
  8
0
 10
35.144
 20
65.9027
 11
34.6228
 21
66.3605
  0
LINE
  8
0
 10
34.6228
 20
66.3605
 11
34.0485
 21
67.124
  0
LINE
  8
0
 10
34.0485
 20
67.124
 11
33.4204
 21
68.194
  0
LINE
  8
0
 10
33.4204
 20
68.194
 11
32.7386
 21
69.5697
  0
LINE
  8
0
 10
32.7386
 20
69.5697
 11
32.0038
 21
71.2476
  0
LINE
  8
0
 10
32.0038
 20
71.2476
 11
32.0038
 21
71.2689
  0
LINE
  8
0
 10
32.0038
 20
71.2689
 11
31.9989
 21
71.2585
  0
LINE
  8
0
 10
31.9989
 20
71.2585
 11
31.9952
 21
71.2671
  0
LINE
  8
0
 10
31.9952
 20
71.2671
 11
31.9952
 21
71.2488
  0
LINE
  8
0
 10
31.9952
 20
71.2488
 11
31.2604
 21
69.5697
  0
LINE
  8
0
 10
31.2604
 20
69.5697
 11
30.5786
 21
68.194
  0
LINE
  8
0
 10
30.5786
 20
68.194
 11
29.95
 21
67.1234
  0
LINE
  8
0
 10
29.95
 20
67.1234
 11
29.3756
 21
66.3599
  0
LINE
  8
0
 10
29.3756
 20
66.3599
 11
28.855
 21
65.9027
  0
LINE
  8
0
 10
28.855
 20
65.9027
 11
28.3881
 21
65.7501
  0
LINE
  8
0
 10
28.3881
 20
65.7501
 11
27.9761
 21
65.9021
  0
LINE
  8
0
 10
27.9761
 20
65.9021
 11
27.6147
 21
66.3599
  0
LINE
  8
0
 10
27.6147
 20
66.3599
 11
27.3077
 21
67.1228
  0
LINE
  8
0
 10
27.3077
 20
67.1228
 11
27.0526
 21
68.1934
  0
LINE
  8
0
 10
27.0526
 20
68.1934
 11
26.8512
 21
69.5685
  0
LINE
  8
0
 10
26.8512
 20
69.5685
 11
26.7035
 21
71.2488
  0
LINE
  8
0
 10
26.7035
 20
71.2488
 11
31.9995
 21
77.4744
  0
LINE
  8
0
 10
31.9995
 20
77.4744
 11
37.2949
 21
71.2494
  0
LINE
  8
0
 10
37.2949
 20
71.2494
 11
37.1472
 21
69.5685
  0
LINE
  8
0
 10
37.1472
 20
69.5685
 11
36.9458
 21
68.1927
  0
LINE
  8
0
 10
36.9458
 20
68.1927
 11
36.6913
 21
67.1222
  0
LINE
  8
0
 10
36.6913
 20
67.1222
 11
36.3843
 21
66.3599
  0
LINE
  8
0
 10
36.3843
 20
66.3599
 11
36.0229
 21
65.9021
  0
LINE
  8
0
 10
36.0229
 20
65.9021
 11
35.611
 21
65.7501
  0
LINE
  8
0
 10
35.611
 20
65.7501
 11
35.144
 21
65.9027
  0
LINE
  8
0
 10
3.14453
 20
65.9027
 11
2.62329
 21
66.3605
  0
LINE
  8
0
 10
2.62329
 20
66.3605
 11
2.04895
 21
67.124
  0
LINE
  8
0
 10
2.04895
 20
67.124
 11
1.4209
 21
68.194
  0
LINE
  8
0
 10
1.4209
 20
68.194
 11
0.739136
 21
69.5697
  0
LINE
  8
0
 10
0.739136
 20
69.5697
 11
0.00427246
 21
71.2476
  0
LINE
  8
0
 10
0.00427246
 20
71.2476
 11
0.00427246
 21
71.2689
  0
LINE
  8
0
 10
0.00427246
 20
71.2689
 11
-0.000610352
 21
71.2585
  0
LINE
  8
0
 10
-0.000610352
 20
71.2585
 11
-0.00427246
 21
71.2671
  0
LINE
  8
0
 10
-0.00427246
 20
71.2671
 11
-0.00427246
 21
71.2488
  0
LINE
  8
0
 10
-0.00427246
 20
71.2488
 11
-0.739136
 21
69.5697
  0
LINE
  8
0
 10
-0.739136
 20
69.5697
 11
-1.4209
 21
68.194
  0
LINE
  8
0
 10
-1.4209
 20
68.194
 11
-2.04956
 21
67.1234
  0
LINE
  8
0
 10
-2.04956
 20
67.1234
 11
-2.6239
 21
66.3599
  0
LINE
  8
0
 10
-2.6239
 20
66.3599
 11
-3.14453
 21
65.9027
  0
LINE
  8
0
 10
-3.14453
 20
65.9027
 11
-3.61145
 21
65.7501
  0
LINE
  8
0
 10
-3.61145
 20
65.7501
 11
-4.02344
 21
65.9021
  0
LINE
  8
0
 10
-4.02344
 20
65.9021
 11
-4.38477
 21
66.3599
  0
LINE
  8
0
 10
-4.38477
 20
66.3599
 11
-4.69177
 21
67.1228
  0
LINE
  8
0
 10
-4.69177
 20
67.1228
 11
-4.9469
 21
68.1934
  0
LINE
  8
0
 10
-4.9469
 20
68.1934
 11
-5.14832
 21
69.5685
  0
LINE
  8
0
 10
-5.14832
 20
69.5685
 11
-5.29602
 21
71.2488
  0
LINE
  8
0
 10
-5.29602
 20
71.2488
 11
0
 21
77.4744
  0
LINE
  8
0
 10
0
 20
77.4744
 11
5.29541
 21
71.2494
  0
LINE
  8
0
 10
5.29541
 20
71.2494
 11
5.14771
 21
69.5685
  0
LINE
  8
0
 10
5.14771
 20
69.5685
 11
4.94629
 21
68.1927
  0
LINE
  8
0
 10
4.94629
 20
68.1927
 11
4.69177
 21
67.1222
  0
LINE
  8
0
 10
4.69177
 20
67.1222
 11
4.38477
 21
66.3599
  0
LINE
  8
0
 10
4.38477
 20
66.3599
 11
4.02344
 21
65.9021
  0
LINE
  8
0
 10
4.02344
 20
65.9021
 11
3.61145
 21
65.7501
  0
LINE
  8
0
 10
3.61145
 20
65.7501
 11
3.14453
 21
65.9027
  0
LINE
  8
0
 10
-28.855
 20
65.9027
 11
-29.3762
 21
66.3605
  0
LINE
  8
0
 10
-29.3762
 20
66.3605
 11
-29.9506
 21
67.124
  0
LINE
  8
0
 10
-29.9506
 20
67.124
 11
-30.5786
 21
68.194
  0
LINE
  8
0
 10
-30.5786
 20
68.194
 11
-31.2604
 21
69.5697
  0
LINE
  8
0
 10
-31.2604
 20
69.5697
 11
-31.9952
 21
71.2476
  0
LINE
  8
0
 10
-31.9952
 20
71.2476
 11
-31.9952
 21
71.2689
  0
LINE
  8
0
 10
-31.9952
 20
71.2689
 11
-32.0001
 21
71.2585
  0
LINE
  8
0
 10
-32.0001
 20
71.2585
 11
-32.0038
 21
71.2671
  0
LINE
  8
0
 10
-32.0038
 20
71.2671
 11
-32.0038
 21
71.2488
  0
LINE
  8
0
 10
-32.0038
 20
71.2488
 11
-32.7386
 21
69.5697
  0
LINE
  8
0
 10
-32.7386
 20
69.5697
 11
-33.4204
 21
68.194
  0
LINE
  8
0
 10
-33.4204
 20
68.194
 11
-34.0491
 21
67.1234
  0
LINE
  8
0
 10
-34.0491
 20
67.1234
 11
-34.6234
 21
66.3599
  0
LINE
  8
0
 10
-34.6234
 20
66.3599
 11
-35.144
 21
65.9027
  0
LINE
  8
0
 10
-35.144
 20
65.9027
 11
-35.611
 21
65.7501
  0
LINE
  8
0
 10
-35.611
 20
65.7501
 11
-36.0229
 21
65.9021
  0
LINE
  8
0
 10
-36.0229
 20
65.9021
 11
-36.3843
 21
66.3599
  0
LINE
  8
0
 10
-36.3843
 20
66.3599
 11
-36.6913
 21
67.1228
  0
LINE
  8
0
 10
-36.6913
 20
67.1228
 11
-36.9464
 21
68.1934
  0
LINE
  8
0
 10
-36.9464
 20
68.1934
 11
-37.1478
 21
69.5685
  0
LINE
  8
0
 10
-37.1478
 20
69.5685
 11
-37.2955
 21
71.2488
  0
LINE
  8
0
 10
-37.2955
 20
71.2488
 11
-31.9995
 21
77.4744
  0
LINE
  8
0
 10
-31.9995
 20
77.4744
 11
-26.7041
 21
71.2494
  0
LINE
  8
0
 10
-26.7041
 20
71.2494
 11
-26.8518
 21
69.5685
  0
LINE
  8
0
 10
-26.8518
 20
69.5685
 11
-27.0532
 21
68.1927
  0
LINE
  8
0
 10
-27.0532
 20
68.1927
 11
-27.3077
 21
67.1222
  0
LINE
  8
0
 10
-27.3077
 20
67.1222
 11
-27.6147
 21
66.3599
  0
LINE
  8
0
 10
-27.6147
 20
66.3599
 11
-27.9761
 21
65.9021
  0
LINE
  8
0
 10
-27.9761
 20
65.9021
 11
-28.3881
 21
65.7501
  0
LINE
  8
0
 10
-28.3881
 20
65.7501
 11
-28.855
 21
65.9027
  0
LINE
  8
0
 10
34.5685
 20
47.6544
 11
33.4625
 21
49.0649
  0
LINE
  8
0
 10
33.4625
 20
49.0649
 11
32.5323
 21
50.5609
  0
LINE
  8
0
 10
32.5323
 20
50.5609
 11
32.0038
 21
51.6638
  0
LINE
  8
0
 10
32.0038
 20
51.6638
 11
32.0038
 21
51.6852
  0
LINE
  8
0
 10
32.0038
 20
51.6852
 11
31.9989
 21
51.6742
  0
LINE
  8
0
 10
31.9989
 20
51.6742
 11
31.9952
 21
51.6815
  0
LINE
  8
0
 10
31.9952
 20
51.6815
 11
31.9952
 21
51.6675
  0
LINE
  8
0
 10
31.9952
 20
51.6675
 11
31.4667
 21
50.5609
  0
LINE
  8
0
 10
31.4667
 20
50.5609
 11
30.5359
 21
49.0637
  0
LINE
  8
0
 10
30.5359
 20
49.0637
 11
29.4305
 21
47.6538
  0
LINE
  8
0
 10
29.4305
 20
47.6538
 11
28.1543
 21
46.333
  0
LINE
  8
0
 10
28.1543
 20
46.333
 11
26.6425
 21
48.4149
  0
LINE
  8
0
 10
26.6425
 20
48.4149
 11
25.318
 21
50.4486
  0
LINE
  8
0
 10
25.318
 20
50.4486
 11
24.1852
 21
52.4304
  0
LINE
  8
0
 10
24.1852
 20
52.4304
 11
23.2416
 21
54.3597
  0
LINE
  8
0
 10
23.2416
 20
54.3597
 11
22.489
 21
56.2378
  0
LINE
  8
0
 10
22.489
 20
56.2378
 11
21.9269
 21
58.0634
  0
LINE
  8
0
 10
21.9269
 20
58.0634
 11
21.5552
 21
59.8364
  0
LINE
  8
0
 10
21.5552
 20
59.8364
 11
21.3733
 21
61.5576
  0
LINE
  8
0
 10
21.3733
 20
61.5576
 11
21.3818
 21
63.2281
  0
LINE
  8
0
 10
21.3818
 20
63.2281
 11
21.5808
 21
64.845
  0
LINE
  8
0
 10
21.5808
 20
64.845
 11
21.9696
 21
66.4117
  0
LINE
  8
0
 10
21.9696
 20
66.4117
 11
22.5452
 21
67.9144
  0
LINE
  8
0
 10
22.5452
 20
67.9144
 11
23.4644
 21
64.6252
  0
LINE
  8
0
 10
23.4644
 20
64.6252
 11
24.3628
 21
61.925
  0
LINE
  8
0
 10
24.3628
 20
61.925
 11
25.2362
 21
59.8254
  0
LINE
  8
0
 10
25.2362
 20
59.8254
 11
26.0858
 21
58.3246
  0
LINE
  8
0
 10
26.0858
 20
58.3246
 11
26.911
 21
57.4237
  0
LINE
  8
0
 10
26.911
 20
57.4237
 11
27.7136
 21
57.1228
  0
LINE
  8
0
 10
27.7136
 20
57.1228
 11
28.4912
 21
57.4243
  0
LINE
  8
0
 10
28.4912
 20
57.4243
 11
29.2438
 21
58.3246
  0
LINE
  8
0
 10
29.2438
 20
58.3246
 11
29.9701
 21
59.8254
  0
LINE
  8
0
 10
29.9701
 20
59.8254
 11
30.6726
 21
61.925
  0
LINE
  8
0
 10
30.6726
 20
61.925
 11
31.3501
 21
64.6252
  0
LINE
  8
0
 10
31.3501
 20
64.6252
 11
31.9995
 21
67.9047
  0
LINE
  8
0
 10
31.9995
 20
67.9047
 11
32.6489
 21
64.6259
  0
LINE
  8
0
 10
32.6489
 20
64.6259
 11
33.3264
 21
61.9257
  0
LINE
  8
0
 10
33.3264
 20
61.9257
 11
34.0289
 21
59.826
  0
LINE
  8
0
 10
34.0289
 20
59.826
 11
34.7552
 21
58.3246
  0
LINE
  8
0
 10
34.7552
 20
58.3246
 11
35.5078
 21
57.4243
  0
LINE
  8
0
 10
35.5078
 20
57.4243
 11
36.2854
 21
57.1228
  0
LINE
  8
0
 10
36.2854
 20
57.1228
 11
37.088
 21
57.4237
  0
LINE
  8
0
 10
37.088
 20
57.4237
 11
37.9132
 21
58.3246
  0
LINE
  8
0
 10
37.9132
 20
58.3246
 11
38.7628
 21
59.8254
  0
LINE
  8
0
 10
38.7628
 20
59.8254
 11
39.6362
 21
61.9244
  0
LINE
  8
0
 10
39.6362
 20
61.9244
 11
40.5347
 21
64.6252
  0
LINE
  8
0
 10
40.5347
 20
64.6252
 11
40.9276
 21
66.0313
  0
LINE
  8
0
 10
40.9276
 20
66.0313
 11
42.5658
 21
60.9894
  0
LINE
  8
0
 10
42.5658
 20
60.9894
 11
42.4438
 21
59.8364
  0
LINE
  8
0
 10
42.4438
 20
59.8364
 11
42.0721
 21
58.0627
  0
LINE
  8
0
 10
42.0721
 20
58.0627
 11
41.51
 21
56.2372
  0
LINE
  8
0
 10
41.51
 20
56.2372
 11
40.7574
 21
54.3591
  0
LINE
  8
0
 10
40.7574
 20
54.3591
 11
39.8138
 21
52.4304
  0
LINE
  8
0
 10
39.8138
 20
52.4304
 11
38.6804
 21
50.448
  0
LINE
  8
0
 10
38.6804
 20
50.448
 11
37.356
 21
48.4143
  0
LINE
  8
0
 10
37.356
 20
48.4143
 11
35.8453
 21
46.333
  0
LINE
  8
0
 10
35.8453
 20
46.333
 11
34.5685
 21
47.6544
  0
LINE
  8
0
 10
2.56897
 20
47.6544
 11
1.46301
 21
49.0649
  0
LINE
  8
0
 10
1.46301
 20
49.0649
 11
0.532837
 21
50.5609
  0
LINE
  8
0
 10
0.532837
 20
50.5609
 11
0.00427246
 21
51.6638
  0
LINE
  8
0
 10
0.00427246
 20
51.6638
 11
0.00427246
 21
51.6852
  0
LINE
  8
0
 10
0.00427246
 20
51.6852
 11
-0.000610352
 21
51.6742
  0
LINE
  8
0
 10
-0.000610352
 20
51.6742
 11
-0.00427246
 21
51.6815
  0
LINE
  8
0
 10
-0.00427246
 20
51.6815
 11
-0.00427246
 21
51.6675
  0
LINE
  8
0
 10
-0.00427246
 20
51.6675
 11
-0.532837
 21
50.5609
  0
LINE
  8
0
 10
-0.532837
 20
50.5609
 11
-1.46362
 21
49.0637
  0
LINE
  8
0
 10
-1.46362
 20
49.0637
 11
-2.56897
 21
47.6538
  0
LINE
  8
0
 10
-2.56897
 20
47.6538
 11
-3.84521
 21
46.333
  0
LINE
  8
0
 10
-3.84521
 20
46.333
 11
-5.35706
 21
48.4149
  0
LINE
  8
0
 10
-5.35706
 20
48.4149
 11
-6.68152
 21
50.4486
  0
LINE
  8
0
 10
-6.68152
 20
50.4486
 11
-7.81433
 21
52.4304
  0
LINE
  8
0
 10
-7.81433
 20
52.4304
 11
-8.75793
 21
54.3597
  0
LINE
  8
0
 10
-8.75793
 20
54.3597
 11
-9.5105
 21
56.2378
  0
LINE
  8
0
 10
-9.5105
 20
56.2378
 11
-10.0726
 21
58.0634
  0
LINE
  8
0
 10
-10.0726
 20
58.0634
 11
-10.4443
 21
59.8364
  0
LINE
  8
0
 10
-10.4443
 20
59.8364
 11
-10.6262
 21
61.5576
  0
LINE
  8
0
 10
-10.6262
 20
61.5576
 11
-10.6177
 21
63.2281
  0
LINE
  8
0
 10
-10.6177
 20
63.2281
 11
-10.4187
 21
64.845
  0
LINE
  8
0
 10
-10.4187
 20
64.845
 11
-10.0299
 21
66.4117
  0
LINE
  8
0
 10
-10.0299
 20
66.4117
 11
-9.45435
 21
67.9144
  0
LINE
  8
0
 10
-9.45435
 20
67.9144
 11
-8.53516
 21
64.6252
  0
LINE
  8
0
 10
-8.53516
 20
64.6252
 11
-7.63672
 21
61.925
  0
LINE
  8
0
 10
-7.63672
 20
61.925
 11
-6.76331
 21
59.8254
  0
LINE
  8
0
 10
-6.76331
 20
59.8254
 11
-5.9137
 21
58.3246
  0
LINE
  8
0
 10
-5.9137
 20
58.3246
 11
-5.0885
 21
57.4237
  0
LINE
  8
0
 10
-5.0885
 20
57.4237
 11
-4.28589
 21
57.1228
  0
LINE
  8
0
 10
-4.28589
 20
57.1228
 11
-3.5083
 21
57.4243
  0
LINE
  8
0
 10
-3.5083
 20
57.4243
 11
-2.75574
 21
58.3246
  0
LINE
  8
0
 10
-2.75574
 20
58.3246
 11
-2.02942
 21
59.8254
  0
LINE
  8
0
 10
-2.02942
 20
59.8254
 11
-1.3269
 21
61.925
  0
LINE
  8
0
 10
-1.3269
 20
61.925
 11
-0.649414
 21
64.6252
  0
LINE
  8
0
 10
-0.649414
 20
64.6252
 11
0
 21
67.9047
  0
LINE
  8
0
 10
0
 20
67.9047
 11
0.649414
 21
64.6259
  0
LINE
  8
0
 10
0.649414
 20
64.6259
 11
1.3269
 21
61.9257
  0
LINE
  8
0
 10
1.3269
 20
61.9257
 11
2.02942
 21
59.826
  0
LINE
  8
0
 10
2.02942
 20
59.826
 11
2.75574
 21
58.3246
  0
LINE
  8
0
 10
2.75574
 20
58.3246
 11
3.5083
 21
57.4243
  0
LINE
  8
0
 10
3.5083
 20
57.4243
 11
4.28589
 21
57.1228
  0
LINE
  8
0
 10
4.28589
 20
57.1228
 11
5.0885
 21
57.4237
  0
LINE
  8
0
 10
5.0885
 20
57.4237
 11
5.9137
 21
58.3246
  0
LINE
  8
0
 10
5.9137
 20
58.3246
 11
6.76331
 21
59.8254
  0
LINE
  8
0
 10
6.76331
 20
59.8254
 11
7.63672
 21
61.9244
  0
LINE
  8
0
 10
7.63672
 20
61.9244
 11
8.53516
 21
64.6252
  0
LINE
  8
0
 10
8.53516
 20
64.6252
 11
9.45435
 21
67.9144
  0
LINE
  8
0
 10
9.45435
 20
67.9144
 11
10.0299
 21
66.4111
  0
LINE
  8
0
 10
10.0299
 20
66.4111
 11
10.4187
 21
64.845
  0
LINE
  8
0
 10
10.4187
 20
64.845
 11
10.6177
 21
63.2269
  0
LINE
  8
0
 10
10.6177
 20
63.2269
 11
10.6262
 21
61.5564
  0
LINE
  8
0
 10
10.6262
 20
61.5564
 11
10.4443
 21
59.8364
  0
LINE
  8
0
 10
10.4443
 20
59.8364
 11
10.0726
 21
58.0627
  0
LINE
  8
0
 10
10.0726
 20
58.0627
 11
9.5105
 21
56.2372
  0
LINE
  8
0
 10
9.5105
 20
56.2372
 11
8.75793
 21
54.3591
  0
LINE
  8
0
 10
8.75793
 20
54.3591
 11
7.81433
 21
52.4304
  0
LINE
  8
0
 10
7.81433
 20
52.4304
 11
6.68091
 21
50.448
  0
LINE
  8
0
 10
6.68091
 20
50.448
 11
5.35645
 21
48.4143
  0
LINE
  8
0
 10
5.35645
 20
48.4143
 11
3.84583
 21
46.333
  0
LINE
  8
0
 10
3.84583
 20
46.333
 11
2.56897
 21
47.6544
  0
LINE
  8
0
 10
-29.4305
 20
47.6544
 11
-30.5365
 21
49.0649
  0
LINE
  8
0
 10
-30.5365
 20
49.0649
 11
-31.4667
 21
50.5609
  0
LINE
  8
0
 10
-31.4667
 20
50.5609
 11
-31.9952
 21
51.6638
  0
LINE
  8
0
 10
-31.9952
 20
51.6638
 11
-31.9952
 21
51.6852
  0
LINE
  8
0
 10
-31.9952
 20
51.6852
 11
-32.0001
 21
51.6742
  0
LINE
  8
0
 10
-32.0001
 20
51.6742
 11
-32.0038
 21
51.6815
  0
LINE
  8
0
 10
-32.0038
 20
51.6815
 11
-32.0038
 21
51.6675
  0
LINE
  8
0
 10
-32.0038
 20
51.6675
 11
-32.5323
 21
50.5609
  0
LINE
  8
0
 10
-32.5323
 20
50.5609
 11
-33.4631
 21
49.0637
  0
LINE
  8
0
 10
-33.4631
 20
49.0637
 11
-34.5685
 21
47.6538
  0
LINE
  8
0
 10
-34.5685
 20
47.6538
 11
-35.8447
 21
46.333
  0
LINE
  8
0
 10
-35.8447
 20
46.333
 11
-37.3566
 21
48.4149
  0
LINE
  8
0
 10
-37.3566
 20
48.4149
 11
-38.681
 21
50.4486
  0
LINE
  8
0
 10
-38.681
 20
50.4486
 11
-39.8138
 21
52.4304
  0
LINE
  8
0
 10
-39.8138
 20
52.4304
 11
-40.7574
 21
54.3597
  0
LINE
  8
0
 10
-40.7574
 20
54.3597
 11
-41.51
 21
56.2378
  0
LINE
  8
0
 10
-41.51
 20
56.2378
 11
-42.0721
 21
58.0634
  0
LINE
  8
0
 10
-42.0721
 20
58.0634
 11
-42.4438
 21
59.8364
  0
LINE
  8
0
 10
-42.4438
 20
59.8364
 11
-42.5657
 21
60.9897
  0
LINE
  8
0
 10
-42.5657
 20
60.9897
 11
-40.9276
 21
66.0313
  0
LINE
  8
0
 10
-40.9276
 20
66.0313
 11
-40.5347
 21
64.6252
  0
LINE
  8
0
 10
-40.5347
 20
64.6252
 11
-39.6362
 21
61.925
  0
LINE
  8
0
 10
-39.6362
 20
61.925
 11
-38.7628
 21
59.8254
  0
LINE
  8
0
 10
-38.7628
 20
59.8254
 11
-37.9132
 21
58.3246
  0
LINE
  8
0
 10
-37.9132
 20
58.3246
 11
-37.088
 21
57.4237
  0
LINE
  8
0
 10
-37.088
 20
57.4237
 11
-36.2854
 21
57.1228
  0
LINE
  8
0
 10
-36.2854
 20
57.1228
 11
-35.5078
 21
57.4243
  0
LINE
  8
0
 10
-35.5078
 20
57.4243
 11
-34.7552
 21
58.3246
  0
LINE
  8
0
 10
-34.7552
 20
58.3246
 11
-34.0289
 21
59.8254
  0
LINE
  8
0
 10
-34.0289
 20
59.8254
 11
-33.3264
 21
61.925
  0
LINE
  8
0
 10
-33.3264
 20
61.925
 11
-32.6489
 21
64.6252
  0
LINE
  8
0
 10
-32.6489
 20
64.6252
 11
-31.9995
 21
67.9047
  0
LINE
  8
0
 10
-31.9995
 20
67.9047
 11
-31.3501
 21
64.6259
  0
LINE
  8
0
 10
-31.3501
 20
64.6259
 11
-30.6726
 21
61.9257
  0
LINE
  8
0
 10
-30.6726
 20
61.9257
 11
-29.9701
 21
59.826
  0
LINE
  8
0
 10
-29.9701
 20
59.826
 11
-29.2438
 21
58.3246
  0
LINE
  8
0
 10
-29.2438
 20
58.3246
 11
-28.4912
 21
57.4243
  0
LINE
  8
0
 10
-28.4912
 20
57.4243
 11
-27.7136
 21
57.1228
  0
LINE
  8
0
 10
-27.7136
 20
57.1228
 11
-26.911
 21
57.4237
  0
LINE
  8
0
 10
-26.911
 20
57.4237
 11
-26.0858
 21
58.3246
  0
LINE
  8
0
 10
-26.0858
 20
58.3246
 11
-25.2362
 21
59.8254
  0
LINE
  8
0
 10
-25.2362
 20
59.8254
 11
-24.3628
 21
61.9244
  0
LINE
  8
0
 10
-24.3628
 20
61.9244
 11
-23.4644
 21
64.6252
  0
LINE
  8
0
 10
-23.4644
 20
64.6252
 11
-22.5452
 21
67.9144
  0
LINE
  8
0
 10
-22.5452
 20
67.9144
 11
-21.9696
 21
66.4111
  0
LINE
  8
0
 10
-21.9696
 20
66.4111
 11
-21.5808
 21
64.845
  0
LINE
  8
0
 10
-21.5808
 20
64.845
 11
-21.3818
 21
63.2269
  0
LINE
  8
0
 10
-21.3818
 20
63.2269
 11
-21.3733
 21
61.5564
  0
LINE
  8
0
 10
-21.3733
 20
61.5564
 11
-21.5552
 21
59.8364
  0
LINE
  8
0
 10
-21.5552
 20
59.8364
 11
-21.9269
 21
58.0627
  0
LINE
  8
0
 10
-21.9269
 20
58.0627
 11
-22.489
 21
56.2372
  0
LINE
  8
0
 10
-22.489
 20
56.2372
 11
-23.2416
 21
54.3591
  0
LINE
  8
0
 10
-23.2416
 20
54.3591
 11
-24.1852
 21
52.4304
  0
LINE
  8
0
 10
-24.1852
 20
52.4304
 11
-25.3186
 21
50.448
  0
LINE
  8
0
 10
-25.3186
 20
50.448
 11
-26.6431
 21
48.4143
  0
LINE
  8
0
 10
-26.6431
 20
48.4143
 11
-28.1537
 21
46.333
  0
LINE
  8
0
 10
-28.1537
 20
46.333
 11
-29.4305
 21
47.6544
  0
LINE
  8
0
 10
-16.1737
 20
63.1097
 11
-16.3458
 21
63.1348
  0
LINE
  8
0
 10
-16.3458
 20
63.1348
 11
-16.5143
 21
63.1769
  0
LINE
  8
0
 10
-16.5143
 20
63.1769
 11
-16.6779
 21
63.2355
  0
LINE
  8
0
 10
-16.6779
 20
63.2355
 11
-16.8353
 21
63.3099
  0
LINE
  8
0
 10
-16.8353
 20
63.3099
 11
-16.9849
 21
63.3997
  0
LINE
  8
0
 10
-16.9849
 20
63.3997
 11
-17.124
 21
63.5028
  0
LINE
  8
0
 10
-17.124
 20
63.5028
 11
-17.2534
 21
63.62
  0
LINE
  8
0
 10
-17.2534
 20
63.62
 11
-17.37
 21
63.7488
  0
LINE
  8
0
 10
-17.37
 20
63.7488
 11
-17.4738
 21
63.8885
  0
LINE
  8
0
 10
-17.4738
 20
63.8885
 11
-17.5629
 21
64.0375
  0
LINE
  8
0
 10
-17.5629
 20
64.0375
 11
-17.6373
 21
64.1956
  0
LINE
  8
0
 10
-17.6373
 20
64.1956
 11
-17.6959
 21
64.3591
  0
LINE
  8
0
 10
-17.6959
 20
64.3591
 11
-17.7386
 21
64.5282
  0
LINE
  8
0
 10
-17.7386
 20
64.5282
 11
-17.7643
 21
64.6997
  0
LINE
  8
0
 10
-17.7643
 20
64.6997
 11
-17.7722
 21
64.8737
  0
LINE
  8
0
 10
-17.7722
 20
64.8737
 11
-17.7637
 21
65.0476
  0
LINE
  8
0
 10
-17.7637
 20
65.0476
 11
-17.738
 21
65.2203
  0
LINE
  8
0
 10
-17.738
 20
65.2203
 11
-17.6959
 21
65.3882
  0
LINE
  8
0
 10
-17.6959
 20
65.3882
 11
-17.6373
 21
65.5518
  0
LINE
  8
0
 10
-17.6373
 20
65.5518
 11
-17.5629
 21
65.7092
  0
LINE
  8
0
 10
-17.5629
 20
65.7092
 11
-17.4738
 21
65.8582
  0
LINE
  8
0
 10
-17.4738
 20
65.8582
 11
-17.37
 21
65.9985
  0
LINE
  8
0
 10
-17.37
 20
65.9985
 11
-17.2534
 21
66.1267
  0
LINE
  8
0
 10
-17.2534
 20
66.1267
 11
-17.124
 21
66.2439
  0
LINE
  8
0
 10
-17.124
 20
66.2439
 11
-16.9849
 21
66.347
  0
LINE
  8
0
 10
-16.9849
 20
66.347
 11
-16.8353
 21
66.4368
  0
LINE
  8
0
 10
-16.8353
 20
66.4368
 11
-16.6779
 21
66.5112
  0
LINE
  8
0
 10
-16.6779
 20
66.5112
 11
-16.5143
 21
66.5704
  0
LINE
  8
0
 10
-16.5143
 20
66.5704
 11
-16.3446
 21
66.6125
  0
LINE
  8
0
 10
-16.3446
 20
66.6125
 11
-16.1731
 21
66.6382
  0
LINE
  8
0
 10
-16.1731
 20
66.6382
 11
-15.9998
 21
66.6467
  0
LINE
  8
0
 10
-15.9998
 20
66.6467
 11
-15.8258
 21
66.6376
  0
LINE
  8
0
 10
-15.8258
 20
66.6376
 11
-15.6537
 21
66.6125
  0
LINE
  8
0
 10
-15.6537
 20
66.6125
 11
-15.4852
 21
66.5704
  0
LINE
  8
0
 10
-15.4852
 20
66.5704
 11
-15.3217
 21
66.5112
  0
LINE
  8
0
 10
-15.3217
 20
66.5112
 11
-15.1642
 21
66.4368
  0
LINE
  8
0
 10
-15.1642
 20
66.4368
 11
-15.0146
 21
66.347
  0
LINE
  8
0
 10
-15.0146
 20
66.347
 11
-14.8755
 21
66.2439
  0
LINE
  8
0
 10
-14.8755
 20
66.2439
 11
-14.7461
 21
66.1267
  0
LINE
  8
0
 10
-14.7461
 20
66.1267
 11
-14.6295
 21
65.9985
  0
LINE
  8
0
 10
-14.6295
 20
65.9985
 11
-14.5258
 21
65.8582
  0
LINE
  8
0
 10
-14.5258
 20
65.8582
 11
-14.4366
 21
65.7092
  0
LINE
  8
0
 10
-14.4366
 20
65.7092
 11
-14.3622
 21
65.5518
  0
LINE
  8
0
 10
-14.3622
 20
65.5518
 11
-14.3036
 21
65.3882
  0
LINE
  8
0
 10
-14.3036
 20
65.3882
 11
-14.2609
 21
65.2191
  0
LINE
  8
0
 10
-14.2609
 20
65.2191
 11
-14.2352
 21
65.047
  0
LINE
  8
0
 10
-14.2352
 20
65.047
 11
-14.2273
 21
64.8737
  0
LINE
  8
0
 10
-14.2273
 20
64.8737
 11
-14.2358
 21
64.6991
  0
LINE
  8
0
 10
-14.2358
 20
64.6991
 11
-14.2615
 21
64.527
  0
LINE
  8
0
 10
-14.2615
 20
64.527
 11
-14.3036
 21
64.3591
  0
LINE
  8
0
 10
-14.3036
 20
64.3591
 11
-14.3622
 21
64.1949
  0
LINE
  8
0
 10
-14.3622
 20
64.1949
 11
-14.4366
 21
64.0375
  0
LINE
  8
0
 10
-14.4366
 20
64.0375
 11
-14.5264
 21
63.8879
  0
LINE
  8
0
 10
-14.5264
 20
63.8879
 11
-14.6295
 21
63.7488
  0
LINE
  8
0
 10
-14.6295
 20
63.7488
 11
-14.7467
 21
63.6194
  0
LINE
  8
0
 10
-14.7467
 20
63.6194
 11
-14.8755
 21
63.5028
  0
LINE
  8
0
 10
-14.8755
 20
63.5028
 11
-15.0146
 21
63.3997
  0
LINE
  8
0
 10
-15.0146
 20
63.3997
 11
-15.1642
 21
63.3099
  0
LINE
  8
0
 10
-15.1642
 20
63.3099
 11
-15.3217
 21
63.2355
  0
LINE
  8
0
 10
-15.3217
 20
63.2355
 11
-15.4852
 21
63.1769
  0
LINE
  8
0
 10
-15.4852
 20
63.1769
 11
-15.6549
 21
63.1348
  0
LINE
  8
0
 10
-15.6549
 20
63.1348
 11
-15.8264
 21
63.1091
  0
LINE
  8
0
 10
-15.8264
 20
63.1091
 11
-15.9998
 21
63.1006
  0
LINE
  8
0
 10
-15.9998
 20
63.1006
 11
-16.1737
 21
63.1097
  0
LINE
  8
0
 10
15.8258
 20
63.1097
 11
15.6537
 21
63.1348
  0
LINE
  8
0
 10
15.6537
 20
63.1348
 11
15.4852
 21
63.1769
  0
LINE
  8
0
 10
15.4852
 20
63.1769
 11
15.3217
 21
63.2355
  0
LINE
  8
0
 10
15.3217
 20
63.2355
 11
15.1642
 21
63.3099
  0
LINE
  8
0
 10
15.1642
 20
63.3099
 11
15.0146
 21
63.3997
  0
LINE
  8
0
 10
15.0146
 20
63.3997
 11
14.8755
 21
63.5028
  0
LINE
  8
0
 10
14.8755
 20
63.5028
 11
14.7461
 21
63.62
  0
LINE
  8
0
 10
14.7461
 20
63.62
 11
14.6295
 21
63.7488
  0
LINE
  8
0
 10
14.6295
 20
63.7488
 11
14.5258
 21
63.8885
  0
LINE
  8
0
 10
14.5258
 20
63.8885
 11
14.4366
 21
64.0375
  0
LINE
  8
0
 10
14.4366
 20
64.0375
 11
14.3622
 21
64.1956
  0
LINE
  8
0
 10
14.3622
 20
64.1956
 11
14.3036
 21
64.3591
  0
LINE
  8
0
 10
14.3036
 20
64.3591
 11
14.2609
 21
64.5282
  0
LINE
  8
0
 10
14.2609
 20
64.5282
 11
14.2352
 21
64.6997
  0
LINE
  8
0
 10
14.2352
 20
64.6997
 11
14.2273
 21
64.8737
  0
LINE
  8
0
 10
14.2273
 20
64.8737
 11
14.2358
 21
65.0476
  0
LINE
  8
0
 10
14.2358
 20
65.0476
 11
14.2615
 21
65.2203
  0
LINE
  8
0
 10
14.2615
 20
65.2203
 11
14.3036
 21
65.3882
  0
LINE
  8
0
 10
14.3036
 20
65.3882
 11
14.3622
 21
65.5518
  0
LINE
  8
0
 10
14.3622
 20
65.5518
 11
14.4366
 21
65.7092
  0
LINE
  8
0
 10
14.4366
 20
65.7092
 11
14.5258
 21
65.8582
  0
LINE
  8
0
 10
14.5258
 20
65.8582
 11
14.6295
 21
65.9985
  0
LINE
  8
0
 10
14.6295
 20
65.9985
 11
14.7461
 21
66.1267
  0
LINE
  8
0
 10
14.7461
 20
66.1267
 11
14.8755
 21
66.2439
  0
LINE
  8
0
 10
14.8755
 20
66.2439
 11
15.0146
 21
66.347
  0
LINE
  8
0
 10
15.0146
 20
66.347
 11
15.1642
 21
66.4368
  0
LINE
  8
0
 10
15.1642
 20
66.4368
 11
15.3217
 21
66.5112
  0
LINE
  8
0
 10
15.3217
 20
66.5112
 11
15.4852
 21
66.5704
  0
LINE
  8
0
 10
15.4852
 20
66.5704
 11
15.6549
 21
66.6125
  0
LINE
  8
0
 10
15.6549
 20
66.6125
 11
15.8264
 21
66.6382
  0
LINE
  8
0
 10
15.8264
 20
66.6382
 11
15.9998
 21
66.6467
  0
LINE
  8
0
 10
15.9998
 20
66.6467
 11
16.1737
 21
66.6376
  0
LINE
  8
0
 10
16.1737
 20
66.6376
 11
16.3458
 21
66.6125
  0
LINE
  8
0
 10
16.3458
 20
66.6125
 11
16.5143
 21
66.5704
  0
LINE
  8
0
 10
16.5143
 20
66.5704
 11
16.6779
 21
66.5112
  0
LINE
  8
0
 10
16.6779
 20
66.5112
 11
16.8353
 21
66.4368
  0
LINE
  8
0
 10
16.8353
 20
66.4368
 11
16.9849
 21
66.347
  0
LINE
  8
0
 10
16.9849
 20
66.347
 11
17.124
 21
66.2439
  0
LINE
  8
0
 10
17.124
 20
66.2439
 11
17.2534
 21
66.1267
  0
LINE
  8
0
 10
17.2534
 20
66.1267
 11
17.37
 21
65.9985
  0
LINE
  8
0
 10
17.37
 20
65.9985
 11
17.4738
 21
65.8582
  0
LINE
  8
0
 10
17.4738
 20
65.8582
 11
17.5629
 21
65.7092
  0
LINE
  8
0
 10
17.5629
 20
65.7092
 11
17.6373
 21
65.5518
  0
LINE
  8
0
 10
17.6373
 20
65.5518
 11
17.6959
 21
65.3882
  0
LINE
  8
0
 10
17.6959
 20
65.3882
 11
17.7386
 21
65.2191
  0
LINE
  8
0
 10
17.7386
 20
65.2191
 11
17.7643
 21
65.047
  0
LINE
  8
0
 10
17.7643
 20
65.047
 11
17.7722
 21
64.8737
  0
LINE
  8
0
 10
17.7722
 20
64.8737
 11
17.7637
 21
64.6991
  0
LINE
  8
0
 10
17.7637
 20
64.6991
 11
17.738
 21
64.527
  0
LINE
  8
0
 10
17.738
 20
64.527
 11
17.6959
 21
64.3591
  0
LINE
  8
0
 10
17.6959
 20
64.3591
 11
17.6373
 21
64.1949
  0
LINE
  8
0
 10
17.6373
 20
64.1949
 11
17.5629
 21
64.0375
  0
LINE
  8
0
 10
17.5629
 20
64.0375
 11
17.4731
 21
63.8879
  0
LINE
  8
0
 10
17.4731
 20
63.8879
 11
17.37
 21
63.7488
  0
LINE
  8
0
 10
17.37
 20
63.7488
 11
17.2528
 21
63.6194
  0
LINE
  8
0
 10
17.2528
 20
63.6194
 11
17.124
 21
63.5028
  0
LINE
  8
0
 10
17.124
 20
63.5028
 11
16.9849
 21
63.3997
  0
LINE
  8
0
 10
16.9849
 20
63.3997
 11
16.8353
 21
63.3099
  0
LINE
  8
0
 10
16.8353
 20
63.3099
 11
16.6779
 21
63.2355
  0
LINE
  8
0
 10
16.6779
 20
63.2355
 11
16.5143
 21
63.1769
  0
LINE
  8
0
 10
16.5143
 20
63.1769
 11
16.3446
 21
63.1348
  0
LINE
  8
0
 10
16.3446
 20
63.1348
 11
16.1731
 21
63.1091
  0
LINE
  8
0
 10
16.1731
 20
63.1091
 11
15.9998
 21
63.1006
  0
LINE
  8
0
 10
15.9998
 20
63.1006
 11
15.8258
 21
63.1097
  0
LINE
  8
0
 10
-12.8552
 20
45.9027
 11
-13.3765
 21
46.3605
  0
LINE
  8
0
 10
-13.3765
 20
46.3605
 11
-13.9508
 21
47.124
  0
LINE
  8
0
 10
-13.9508
 20
47.124
 11
-14.5789
 21
48.194
  0
LINE
  8
0
 10
-14.5789
 20
48.194
 11
-15.2606
 21
49.5697
  0
LINE
  8
0
 10
-15.2606
 20
49.5697
 11
-15.9955
 21
51.2476
  0
LINE
  8
0
 10
-15.9955
 20
51.2476
 11
-15.9955
 21
51.2689
  0
LINE
  8
0
 10
-15.9955
 20
51.2689
 11
-16.0004
 21
51.2585
  0
LINE
  8
0
 10
-16.0004
 20
51.2585
 11
-16.004
 21
51.2671
  0
LINE
  8
0
 10
-16.004
 20
51.2671
 11
-16.004
 21
51.2488
  0
LINE
  8
0
 10
-16.004
 20
51.2488
 11
-16.7389
 21
49.5697
  0
LINE
  8
0
 10
-16.7389
 20
49.5697
 11
-17.4207
 21
48.194
  0
LINE
  8
0
 10
-17.4207
 20
48.194
 11
-18.0493
 21
47.1234
  0
LINE
  8
0
 10
-18.0493
 20
47.1234
 11
-18.6237
 21
46.3599
  0
LINE
  8
0
 10
-18.6237
 20
46.3599
 11
-19.1443
 21
45.9027
  0
LINE
  8
0
 10
-19.1443
 20
45.9027
 11
-19.6112
 21
45.7501
  0
LINE
  8
0
 10
-19.6112
 20
45.7501
 11
-20.0232
 21
45.9021
  0
LINE
  8
0
 10
-20.0232
 20
45.9021
 11
-20.3845
 21
46.3599
  0
LINE
  8
0
 10
-20.3845
 20
46.3599
 11
-20.6915
 21
47.1228
  0
LINE
  8
0
 10
-20.6915
 20
47.1228
 11
-20.9467
 21
48.1934
  0
LINE
  8
0
 10
-20.9467
 20
48.1934
 11
-21.1481
 21
49.5685
  0
LINE
  8
0
 10
-21.1481
 20
49.5685
 11
-21.2958
 21
51.2488
  0
LINE
  8
0
 10
-21.2958
 20
51.2488
 11
-15.9998
 21
57.4744
  0
LINE
  8
0
 10
-15.9998
 20
57.4744
 11
-10.7043
 21
51.2494
  0
LINE
  8
0
 10
-10.7043
 20
51.2494
 11
-10.8521
 21
49.5685
  0
LINE
  8
0
 10
-10.8521
 20
49.5685
 11
-11.0535
 21
48.1927
  0
LINE
  8
0
 10
-11.0535
 20
48.1927
 11
-11.308
 21
47.1222
  0
LINE
  8
0
 10
-11.308
 20
47.1222
 11
-11.615
 21
46.3599
  0
LINE
  8
0
 10
-11.615
 20
46.3599
 11
-11.9763
 21
45.9021
  0
LINE
  8
0
 10
-11.9763
 20
45.9021
 11
-12.3883
 21
45.7501
  0
LINE
  8
0
 10
-12.3883
 20
45.7501
 11
-12.8552
 21
45.9027
  0
LINE
  8
0
 10
19.1443
 20
45.9027
 11
18.623
 21
46.3605
  0
LINE
  8
0
 10
18.623
 20
46.3605
 11
18.0487
 21
47.124
  0
LINE
  8
0
 10
18.0487
 20
47.124
 11
17.4207
 21
48.194
  0
LINE
  8
0
 10
17.4207
 20
48.194
 11
16.7389
 21
49.5697
  0
LINE
  8
0
 10
16.7389
 20
49.5697
 11
16.004
 21
51.2476
  0
LINE
  8
0
 10
16.004
 20
51.2476
 11
16.004
 21
51.2689
  0
LINE
  8
0
 10
16.004
 20
51.2689
 11
15.9991
 21
51.2585
  0
LINE
  8
0
 10
15.9991
 20
51.2585
 11
15.9955
 21
51.2671
  0
LINE
  8
0
 10
15.9955
 20
51.2671
 11
15.9955
 21
51.2488
  0
LINE
  8
0
 10
15.9955
 20
51.2488
 11
15.2606
 21
49.5697
  0
LINE
  8
0
 10
15.2606
 20
49.5697
 11
14.5789
 21
48.194
  0
LINE
  8
0
 10
14.5789
 20
48.194
 11
13.9502
 21
47.1234
  0
LINE
  8
0
 10
13.9502
 20
47.1234
 11
13.3759
 21
46.3599
  0
LINE
  8
0
 10
13.3759
 20
46.3599
 11
12.8552
 21
45.9027
  0
LINE
  8
0
 10
12.8552
 20
45.9027
 11
12.3883
 21
45.7501
  0
LINE
  8
0
 10
12.3883
 20
45.7501
 11
11.9763
 21
45.9021
  0
LINE
  8
0
 10
11.9763
 20
45.9021
 11
11.615
 21
46.3599
  0
LINE
  8
0
 10
11.615
 20
46.3599
 11
11.308
 21
47.1228
  0
LINE
  8
0
 10
11.308
 20
47.1228
 11
11.0529
 21
48.1934
  0
LINE
  8
0
 10
11.0529
 20
48.1934
 11
10.8514
 21
49.5685
  0
LINE
  8
0
 10
10.8514
 20
49.5685
 11
10.7037
 21
51.2488
  0
LINE
  8
0
 10
10.7037
 20
51.2488
 11
15.9998
 21
57.4744
  0
LINE
  8
0
 10
15.9998
 20
57.4744
 11
21.2952
 21
51.2494
  0
LINE
  8
0
 10
21.2952
 20
51.2494
 11
21.1475
 21
49.5685
  0
LINE
  8
0
 10
21.1475
 20
49.5685
 11
20.946
 21
48.1927
  0
LINE
  8
0
 10
20.946
 20
48.1927
 11
20.6915
 21
47.1222
  0
LINE
  8
0
 10
20.6915
 20
47.1222
 11
20.3845
 21
46.3599
  0
LINE
  8
0
 10
20.3845
 20
46.3599
 11
20.0232
 21
45.9021
  0
LINE
  8
0
 10
20.0232
 20
45.9021
 11
19.6112
 21
45.7501
  0
LINE
  8
0
 10
19.6112
 20
45.7501
 11
19.1443
 21
45.9027
  0
LINE
  8
0
 10
43.9764
 20
45.9021
 11
43.6151
 21
46.3599
  0
LINE
  8
0
 10
43.6151
 20
46.3599
 11
43.3081
 21
47.1228
  0
LINE
  8
0
 10
43.3081
 20
47.1228
 11
43.053
 21
48.1934
  0
LINE
  8
0
 10
43.053
 20
48.1934
 11
42.8516
 21
49.5685
  0
LINE
  8
0
 10
42.8516
 20
49.5685
 11
42.7039
 21
51.2488
  0
LINE
  8
0
 10
42.7039
 20
51.2488
 11
44.8941
 21
53.8235
  0
LINE
  8
0
 10
44.8941
 20
53.8235
 11
46.6661
 21
48.3698
  0
LINE
  8
0
 10
46.6661
 20
48.3698
 11
46.579
 21
48.194
  0
LINE
  8
0
 10
46.579
 20
48.194
 11
45.9503
 21
47.1234
  0
LINE
  8
0
 10
45.9503
 20
47.1234
 11
45.376
 21
46.3599
  0
LINE
  8
0
 10
45.376
 20
46.3599
 11
44.8553
 21
45.9027
  0
LINE
  8
0
 10
44.8553
 20
45.9027
 11
44.3884
 21
45.7501
  0
LINE
  8
0
 10
44.3884
 20
45.7501
 11
43.9764
 21
45.9021
  0
LINE
  8
0
 10
-44.8553
 20
45.9027
 11
-45.3766
 21
46.3605
  0
LINE
  8
0
 10
-45.3766
 20
46.3605
 11
-45.9509
 21
47.124
  0
LINE
  8
0
 10
-45.9509
 20
47.124
 11
-46.579
 21
48.194
  0
LINE
  8
0
 10
-46.579
 20
48.194
 11
-46.6661
 21
48.3698
  0
LINE
  8
0
 10
-46.6661
 20
48.3698
 11
-44.8941
 21
53.8235
  0
LINE
  8
0
 10
-44.8941
 20
53.8235
 11
-42.7045
 21
51.2494
  0
LINE
  8
0
 10
-42.7045
 20
51.2494
 11
-42.8522
 21
49.5685
  0
LINE
  8
0
 10
-42.8522
 20
49.5685
 11
-43.0536
 21
48.1927
  0
LINE
  8
0
 10
-43.0536
 20
48.1927
 11
-43.3081
 21
47.1222
  0
LINE
  8
0
 10
-43.3081
 20
47.1222
 11
-43.6151
 21
46.3599
  0
LINE
  8
0
 10
-43.6151
 20
46.3599
 11
-43.9764
 21
45.9021
  0
LINE
  8
0
 10
-43.9764
 20
45.9021
 11
-44.3884
 21
45.7501
  0
LINE
  8
0
 10
-44.3884
 20
45.7501
 11
-44.8553
 21
45.9027
  0
LINE
  8
0
 10
-13.4308
 20
27.6544
 11
-14.5367
 21
29.0649
  0
LINE
  8
0
 10
-14.5367
 20
29.0649
 11
-15.4669
 21
30.5609
  0
LINE
  8
0
 10
-15.4669
 20
30.5609
 11
-15.9955
 21
31.6638
  0
LINE
  8
0
 10
-15.9955
 20
31.6638
 11
-15.9955
 21
31.6852
  0
LINE
  8
0
 10
-15.9955
 20
31.6852
 11
-16.0004
 21
31.6742
  0
LINE
  8
0
 10
-16.0004
 20
31.6742
 11
-16.004
 21
31.6815
  0
LINE
  8
0
 10
-16.004
 20
31.6815
 11
-16.004
 21
31.6675
  0
LINE
  8
0
 10
-16.004
 20
31.6675
 11
-16.5326
 21
30.5609
  0
LINE
  8
0
 10
-16.5326
 20
30.5609
 11
-17.4634
 21
29.0637
  0
LINE
  8
0
 10
-17.4634
 20
29.0637
 11
-18.5687
 21
27.6538
  0
LINE
  8
0
 10
-18.5687
 20
27.6538
 11
-19.845
 21
26.333
  0
LINE
  8
0
 10
-19.845
 20
26.333
 11
-21.3568
 21
28.4149
  0
LINE
  8
0
 10
-21.3568
 20
28.4149
 11
-22.6813
 21
30.4486
  0
LINE
  8
0
 10
-22.6813
 20
30.4486
 11
-23.8141
 21
32.4304
  0
LINE
  8
0
 10
-23.8141
 20
32.4304
 11
-24.7577
 21
34.3597
  0
LINE
  8
0
 10
-24.7577
 20
34.3597
 11
-25.5103
 21
36.2378
  0
LINE
  8
0
 10
-25.5103
 20
36.2378
 11
-26.0724
 21
38.0634
  0
LINE
  8
0
 10
-26.0724
 20
38.0634
 11
-26.4441
 21
39.8364
  0
LINE
  8
0
 10
-26.4441
 20
39.8364
 11
-26.626
 21
41.5576
  0
LINE
  8
0
 10
-26.626
 20
41.5576
 11
-26.6174
 21
43.2281
  0
LINE
  8
0
 10
-26.6174
 20
43.2281
 11
-26.4185
 21
44.845
  0
LINE
  8
0
 10
-26.4185
 20
44.845
 11
-26.0297
 21
46.4117
  0
LINE
  8
0
 10
-26.0297
 20
46.4117
 11
-25.4541
 21
47.9144
  0
LINE
  8
0
 10
-25.4541
 20
47.9144
 11
-24.5349
 21
44.6252
  0
LINE
  8
0
 10
-24.5349
 20
44.6252
 11
-23.6365
 21
41.925
  0
LINE
  8
0
 10
-23.6365
 20
41.925
 11
-22.7631
 21
39.8254
  0
LINE
  8
0
 10
-22.7631
 20
39.8254
 11
-21.9135
 21
38.3246
  0
LINE
  8
0
 10
-21.9135
 20
38.3246
 11
-21.0883
 21
37.4237
  0
LINE
  8
0
 10
-21.0883
 20
37.4237
 11
-20.2856
 21
37.1228
  0
LINE
  8
0
 10
-20.2856
 20
37.1228
 11
-19.5081
 21
37.4243
  0
LINE
  8
0
 10
-19.5081
 20
37.4243
 11
-18.7555
 21
38.3246
  0
LINE
  8
0
 10
-18.7555
 20
38.3246
 11
-18.0292
 21
39.8254
  0
LINE
  8
0
 10
-18.0292
 20
39.8254
 11
-17.3267
 21
41.925
  0
LINE
  8
0
 10
-17.3267
 20
41.925
 11
-16.6492
 21
44.6252
  0
LINE
  8
0
 10
-16.6492
 20
44.6252
 11
-15.9998
 21
47.9047
  0
LINE
  8
0
 10
-15.9998
 20
47.9047
 11
-15.3503
 21
44.6259
  0
LINE
  8
0
 10
-15.3503
 20
44.6259
 11
-14.6729
 21
41.9257
  0
LINE
  8
0
 10
-14.6729
 20
41.9257
 11
-13.9703
 21
39.826
  0
LINE
  8
0
 10
-13.9703
 20
39.826
 11
-13.244
 21
38.3246
  0
LINE
  8
0
 10
-13.244
 20
38.3246
 11
-12.4915
 21
37.4243
  0
LINE
  8
0
 10
-12.4915
 20
37.4243
 11
-11.7139
 21
37.1228
  0
LINE
  8
0
 10
-11.7139
 20
37.1228
 11
-10.9113
 21
37.4237
  0
LINE
  8
0
 10
-10.9113
 20
37.4237
 11
-10.0861
 21
38.3246
  0
LINE
  8
0
 10
-10.0861
 20
38.3246
 11
-9.23645
 21
39.8254
  0
LINE
  8
0
 10
-9.23645
 20
39.8254
 11
-8.36304
 21
41.9244
  0
LINE
  8
0
 10
-8.36304
 20
41.9244
 11
-7.4646
 21
44.6252
  0
LINE
  8
0
 10
-7.4646
 20
44.6252
 11
-6.54541
 21
47.9144
  0
LINE
  8
0
 10
-6.54541
 20
47.9144
 11
-5.96985
 21
46.4111
  0
LINE
  8
0
 10
-5.96985
 20
46.4111
 11
-5.58105
 21
44.845
  0
LINE
  8
0
 10
-5.58105
 20
44.845
 11
-5.38208
 21
43.2269
  0
LINE
  8
0
 10
-5.38208
 20
43.2269
 11
-5.37354
 21
41.5564
  0
LINE
  8
0
 10
-5.37354
 20
41.5564
 11
-5.55542
 21
39.8364
  0
LINE
  8
0
 10
-5.55542
 20
39.8364
 11
-5.92712
 21
38.0627
  0
LINE
  8
0
 10
-5.92712
 20
38.0627
 11
-6.48926
 21
36.2372
  0
LINE
  8
0
 10
-6.48926
 20
36.2372
 11
-7.24182
 21
34.3591
  0
LINE
  8
0
 10
-7.24182
 20
34.3591
 11
-8.18542
 21
32.4304
  0
LINE
  8
0
 10
-8.18542
 20
32.4304
 11
-9.31885
 21
30.448
  0
LINE
  8
0
 10
-9.31885
 20
30.448
 11
-10.6433
 21
28.4143
  0
LINE
  8
0
 10
-10.6433
 20
28.4143
 11
-12.1539
 21
26.333
  0
LINE
  8
0
 10
-12.1539
 20
26.333
 11
-13.4308
 21
27.6544
  0
LINE
  8
0
 10
-45.4309
 20
27.6544
 11
-46.5369
 21
29.0649
  0
LINE
  8
0
 10
-46.5369
 20
29.0649
 11
-47.467
 21
30.5609
  0
LINE
  8
0
 10
-47.467
 20
30.5609
 11
-47.9956
 21
31.6638
  0
LINE
  8
0
 10
-47.9956
 20
31.6638
 11
-47.9956
 21
31.6852
  0
LINE
  8
0
 10
-47.9956
 20
31.6852
 11
-48.0005
 21
31.6742
  0
LINE
  8
0
 10
-48.0005
 20
31.6742
 11
-48.0042
 21
31.6815
  0
LINE
  8
0
 10
-48.0042
 20
31.6815
 11
-48.0042
 21
31.6675
  0
LINE
  8
0
 10
-48.0042
 20
31.6675
 11
-48.5327
 21
30.5609
  0
LINE
  8
0
 10
-48.5327
 20
30.5609
 11
-49.4635
 21
29.0637
  0
LINE
  8
0
 10
-49.4635
 20
29.0637
 11
-50.5688
 21
27.6538
  0
LINE
  8
0
 10
-50.5688
 20
27.6538
 11
-51.8451
 21
26.333
  0
LINE
  8
0
 10
-51.8451
 20
26.333
 11
-53.2139
 21
28.2179
  0
LINE
  8
0
 10
-53.2139
 20
28.2179
 11
-47.552
 21
45.6434
  0
LINE
  8
0
 10
-47.552
 20
45.6434
 11
-47.3505
 21
44.6259
  0
LINE
  8
0
 10
-47.3505
 20
44.6259
 11
-46.673
 21
41.9257
  0
LINE
  8
0
 10
-46.673
 20
41.9257
 11
-45.9705
 21
39.826
  0
LINE
  8
0
 10
-45.9705
 20
39.826
 11
-45.2441
 21
38.3246
  0
LINE
  8
0
 10
-45.2441
 20
38.3246
 11
-44.4916
 21
37.4243
  0
LINE
  8
0
 10
-44.4916
 20
37.4243
 11
-43.714
 21
37.1228
  0
LINE
  8
0
 10
-43.714
 20
37.1228
 11
-42.9114
 21
37.4237
  0
LINE
  8
0
 10
-42.9114
 20
37.4237
 11
-42.0862
 21
38.3246
  0
LINE
  8
0
 10
-42.0862
 20
38.3246
 11
-41.2366
 21
39.8254
  0
LINE
  8
0
 10
-41.2366
 20
39.8254
 11
-40.3632
 21
41.9244
  0
LINE
  8
0
 10
-40.3632
 20
41.9244
 11
-39.4647
 21
44.6252
  0
LINE
  8
0
 10
-39.4647
 20
44.6252
 11
-38.5455
 21
47.9144
  0
LINE
  8
0
 10
-38.5455
 20
47.9144
 11
-37.97
 21
46.4111
  0
LINE
  8
0
 10
-37.97
 20
46.4111
 11
-37.5812
 21
44.845
  0
LINE
  8
0
 10
-37.5812
 20
44.845
 11
-37.3822
 21
43.2269
  0
LINE
  8
0
 10
-37.3822
 20
43.2269
 11
-37.3737
 21
41.5564
  0
LINE
  8
0
 10
-37.3737
 20
41.5564
 11
-37.5555
 21
39.8364
  0
LINE
  8
0
 10
-37.5555
 20
39.8364
 11
-37.9272
 21
38.0627
  0
LINE
  8
0
 10
-37.9272
 20
38.0627
 11
-38.4894
 21
36.2372
  0
LINE
  8
0
 10
-38.4894
 20
36.2372
 11
-39.2419
 21
34.3591
  0
LINE
  8
0
 10
-39.2419
 20
34.3591
 11
-40.1855
 21
32.4304
  0
LINE
  8
0
 10
-40.1855
 20
32.4304
 11
-41.319
 21
30.448
  0
LINE
  8
0
 10
-41.319
 20
30.448
 11
-42.6434
 21
28.4143
  0
LINE
  8
0
 10
-42.6434
 20
28.4143
 11
-44.1541
 21
26.333
  0
LINE
  8
0
 10
-44.1541
 20
26.333
 11
-45.4309
 21
27.6544
  0
LINE
  8
0
 10
50.5688
 20
27.6544
 11
49.4629
 21
29.0649
  0
LINE
  8
0
 10
49.4629
 20
29.0649
 11
48.5327
 21
30.5609
  0
LINE
  8
0
 10
48.5327
 20
30.5609
 11
48.0042
 21
31.6638
  0
LINE
  8
0
 10
48.0042
 20
31.6638
 11
48.0042
 21
31.6852
  0
LINE
  8
0
 10
48.0042
 20
31.6852
 11
47.9993
 21
31.6742
  0
LINE
  8
0
 10
47.9993
 20
31.6742
 11
47.9956
 21
31.6815
  0
LINE
  8
0
 10
47.9956
 20
31.6815
 11
47.9956
 21
31.6675
  0
LINE
  8
0
 10
47.9956
 20
31.6675
 11
47.467
 21
30.5609
  0
LINE
  8
0
 10
47.467
 20
30.5609
 11
46.5363
 21
29.0637
  0
LINE
  8
0
 10
46.5363
 20
29.0637
 11
45.4309
 21
27.6538
  0
LINE
  8
0
 10
45.4309
 20
27.6538
 11
44.1547
 21
26.333
  0
LINE
  8
0
 10
44.1547
 20
26.333
 11
42.6428
 21
28.4149
  0
LINE
  8
0
 10
42.6428
 20
28.4149
 11
41.3184
 21
30.4486
  0
LINE
  8
0
 10
41.3184
 20
30.4486
 11
40.1855
 21
32.4304
  0
LINE
  8
0
 10
40.1855
 20
32.4304
 11
39.2419
 21
34.3597
  0
LINE
  8
0
 10
39.2419
 20
34.3597
 11
38.4894
 21
36.2378
  0
LINE
  8
0
 10
38.4894
 20
36.2378
 11
37.9272
 21
38.0634
  0
LINE
  8
0
 10
37.9272
 20
38.0634
 11
37.5555
 21
39.8364
  0
LINE
  8
0
 10
37.5555
 20
39.8364
 11
37.3737
 21
41.5576
  0
LINE
  8
0
 10
37.3737
 20
41.5576
 11
37.3822
 21
43.2281
  0
LINE
  8
0
 10
37.3822
 20
43.2281
 11
37.5812
 21
44.845
  0
LINE
  8
0
 10
37.5812
 20
44.845
 11
37.97
 21
46.4117
  0
LINE
  8
0
 10
37.97
 20
46.4117
 11
38.5455
 21
47.9144
  0
LINE
  8
0
 10
38.5455
 20
47.9144
 11
39.4647
 21
44.6252
  0
LINE
  8
0
 10
39.4647
 20
44.6252
 11
40.3632
 21
41.925
  0
LINE
  8
0
 10
40.3632
 20
41.925
 11
41.2366
 21
39.8254
  0
LINE
  8
0
 10
41.2366
 20
39.8254
 11
42.0862
 21
38.3246
  0
LINE
  8
0
 10
42.0862
 20
38.3246
 11
42.9114
 21
37.4237
  0
LINE
  8
0
 10
42.9114
 20
37.4237
 11
43.714
 21
37.1228
  0
LINE
  8
0
 10
43.714
 20
37.1228
 11
44.4916
 21
37.4243
  0
LINE
  8
0
 10
44.4916
 20
37.4243
 11
45.2441
 21
38.3246
  0
LINE
  8
0
 10
45.2441
 20
38.3246
 11
45.9705
 21
39.8254
  0
LINE
  8
0
 10
45.9705
 20
39.8254
 11
46.673
 21
41.925
  0
LINE
  8
0
 10
46.673
 20
41.925
 11
47.3505
 21
44.6252
  0
LINE
  8
0
 10
47.3505
 20
44.6252
 11
47.5521
 21
45.6432
  0
LINE
  8
0
 10
47.5521
 20
45.6432
 11
53.2139
 21
28.218
  0
LINE
  8
0
 10
53.2139
 20
28.218
 11
51.8457
 21
26.333
  0
LINE
  8
0
 10
51.8457
 20
26.333
 11
50.5688
 21
27.6544
  0
LINE
  8
0
 10
18.5687
 20
27.6544
 11
17.4628
 21
29.0649
  0
LINE
  8
0
 10
17.4628
 20
29.0649
 11
16.5326
 21
30.5609
  0
LINE
  8
0
 10
16.5326
 20
30.5609
 11
16.004
 21
31.6638
  0
LINE
  8
0
 10
16.004
 20
31.6638
 11
16.004
 21
31.6852
  0
LINE
  8
0
 10
16.004
 20
31.6852
 11
15.9991
 21
31.6742
  0
LINE
  8
0
 10
15.9991
 20
31.6742
 11
15.9955
 21
31.6815
  0
LINE
  8
0
 10
15.9955
 20
31.6815
 11
15.9955
 21
31.6675
  0
LINE
  8
0
 10
15.9955
 20
31.6675
 11
15.4669
 21
30.5609
  0
LINE
  8
0
 10
15.4669
 20
30.5609
 11
14.5361
 21
29.0637
  0
LINE
  8
0
 10
14.5361
 20
29.0637
 11
13.4308
 21
27.6538
  0
LINE
  8
0
 10
13.4308
 20
27.6538
 11
12.1545
 21
26.333
  0
LINE
  8
0
 10
12.1545
 20
26.333
 11
10.6427
 21
28.4149
  0
LINE
  8
0
 10
10.6427
 20
28.4149
 11
9.31824
 21
30.4486
  0
LINE
  8
0
 10
9.31824
 20
30.4486
 11
8.18542
 21
32.4304
  0
LINE
  8
0
 10
8.18542
 20
32.4304
 11
7.24182
 21
34.3597
  0
LINE
  8
0
 10
7.24182
 20
34.3597
 11
6.48926
 21
36.2378
  0
LINE
  8
0
 10
6.48926
 20
36.2378
 11
5.92712
 21
38.0634
  0
LINE
  8
0
 10
5.92712
 20
38.0634
 11
5.55542
 21
39.8364
  0
LINE
  8
0
 10
5.55542
 20
39.8364
 11
5.37354
 21
41.5576
  0
LINE
  8
0
 10
5.37354
 20
41.5576
 11
5.38208
 21
43.2281
  0
LINE
  8
0
 10
5.38208
 20
43.2281
 11
5.58105
 21
44.845
  0
LINE
  8
0
 10
5.58105
 20
44.845
 11
5.96985
 21
46.4117
  0
LINE
  8
0
 10
5.96985
 20
46.4117
 11
6.54541
 21
47.9144
  0
LINE
  8
0
 10
6.54541
 20
47.9144
 11
7.4646
 21
44.6252
  0
LINE
  8
0
 10
7.4646
 20
44.6252
 11
8.36304
 21
41.925
  0
LINE
  8
0
 10
8.36304
 20
41.925
 11
9.23645
 21
39.8254
  0
LINE
  8
0
 10
9.23645
 20
39.8254
 11
10.0861
 21
38.3246
  0
LINE
  8
0
 10
10.0861
 20
38.3246
 11
10.9113
 21
37.4237
  0
LINE
  8
0
 10
10.9113
 20
37.4237
 11
11.7139
 21
37.1228
  0
LINE
  8
0
 10
11.7139
 20
37.1228
 11
12.4915
 21
37.4243
  0
LINE
  8
0
 10
12.4915
 20
37.4243
 11
13.244
 21
38.3246
  0
LINE
  8
0
 10
13.244
 20
38.3246
 11
13.9703
 21
39.8254
  0
LINE
  8
0
 10
13.9703
 20
39.8254
 11
14.6729
 21
41.925
  0
LINE
  8
0
 10
14.6729
 20
41.925
 11
15.3503
 21
44.6252
  0
LINE
  8
0
 10
15.3503
 20
44.6252
 11
15.9998
 21
47.9047
  0
LINE
  8
0
 10
15.9998
 20
47.9047
 11
16.6492
 21
44.6259
  0
LINE
  8
0
 10
16.6492
 20
44.6259
 11
17.3267
 21
41.9257
  0
LINE
  8
0
 10
17.3267
 20
41.9257
 11
18.0292
 21
39.826
  0
LINE
  8
0
 10
18.0292
 20
39.826
 11
18.7555
 21
38.3246
  0
LINE
  8
0
 10
18.7555
 20
38.3246
 11
19.5081
 21
37.4243
  0
LINE
  8
0
 10
19.5081
 20
37.4243
 11
20.2856
 21
37.1228
  0
LINE
  8
0
 10
20.2856
 20
37.1228
 11
21.0883
 21
37.4237
  0
LINE
  8
0
 10
21.0883
 20
37.4237
 11
21.9135
 21
38.3246
  0
LINE
  8
0
 10
21.9135
 20
38.3246
 11
22.7631
 21
39.8254
  0
LINE
  8
0
 10
22.7631
 20
39.8254
 11
23.6365
 21
41.9244
  0
LINE
  8
0
 10
23.6365
 20
41.9244
 11
24.5349
 21
44.6252
  0
LINE
  8
0
 10
24.5349
 20
44.6252
 11
25.4541
 21
47.9144
  0
LINE
  8
0
 10
25.4541
 20
47.9144
 11
26.0297
 21
46.4111
  0
LINE
  8
0
 10
26.0297
 20
46.4111
 11
26.4185
 21
44.845
  0
LINE
  8
0
 10
26.4185
 20
44.845
 11
26.6174
 21
43.2269
  0
LINE
  8
0
 10
26.6174
 20
43.2269
 11
26.626
 21
41.5564
  0
LINE
  8
0
 10
26.626
 20
41.5564
 11
26.4441
 21
39.8364
  0
LINE
  8
0
 10
26.4441
 20
39.8364
 11
26.0724
 21
38.0627
  0
LINE
  8
0
 10
26.0724
 20
38.0627
 11
25.5103
 21
36.2372
  0
LINE
  8
0
 10
25.5103
 20
36.2372
 11
24.7577
 21
34.3591
  0
LINE
  8
0
 10
24.7577
 20
34.3591
 11
23.8141
 21
32.4304
  0
LINE
  8
0
 10
23.8141
 20
32.4304
 11
22.6807
 21
30.448
  0
LINE
  8
0
 10
22.6807
 20
30.448
 11
21.3562
 21
28.4143
  0
LINE
  8
0
 10
21.3562
 20
28.4143
 11
19.8456
 21
26.333
  0
LINE
  8
0
 10
19.8456
 20
26.333
 11
18.5687
 21
27.6544
  0
LINE
  8
0
 10
31.8256
 20
43.1097
 11
31.6534
 21
43.1348
  0
LINE
  8
0
 10
31.6534
 20
43.1348
 11
31.485
 21
43.1769
  0
LINE
  8
0
 10
31.485
 20
43.1769
 11
31.3214
 21
43.2355
  0
LINE
  8
0
 10
31.3214
 20
43.2355
 11
31.1639
 21
43.3099
  0
LINE
  8
0
 10
31.1639
 20
43.3099
 11
31.0144
 21
43.3997
  0
LINE
  8
0
 10
31.0144
 20
43.3997
 11
30.8752
 21
43.5028
  0
LINE
  8
0
 10
30.8752
 20
43.5028
 11
30.7458
 21
43.62
  0
LINE
  8
0
 10
30.7458
 20
43.62
 11
30.6293
 21
43.7488
  0
LINE
  8
0
 10
30.6293
 20
43.7488
 11
30.5255
 21
43.8885
  0
LINE
  8
0
 10
30.5255
 20
43.8885
 11
30.4364
 21
44.0375
  0
LINE
  8
0
 10
30.4364
 20
44.0375
 11
30.3619
 21
44.1956
  0
LINE
  8
0
 10
30.3619
 20
44.1956
 11
30.3033
 21
44.3591
  0
LINE
  8
0
 10
30.3033
 20
44.3591
 11
30.2606
 21
44.5282
  0
LINE
  8
0
 10
30.2606
 20
44.5282
 11
30.235
 21
44.6997
  0
LINE
  8
0
 10
30.235
 20
44.6997
 11
30.2271
 21
44.8737
  0
LINE
  8
0
 10
30.2271
 20
44.8737
 11
30.2356
 21
45.0476
  0
LINE
  8
0
 10
30.2356
 20
45.0476
 11
30.2612
 21
45.2203
  0
LINE
  8
0
 10
30.2612
 20
45.2203
 11
30.3033
 21
45.3882
  0
LINE
  8
0
 10
30.3033
 20
45.3882
 11
30.3619
 21
45.5518
  0
LINE
  8
0
 10
30.3619
 20
45.5518
 11
30.4364
 21
45.7092
  0
LINE
  8
0
 10
30.4364
 20
45.7092
 11
30.5255
 21
45.8582
  0
LINE
  8
0
 10
30.5255
 20
45.8582
 11
30.6293
 21
45.9985
  0
LINE
  8
0
 10
30.6293
 20
45.9985
 11
30.7458
 21
46.1267
  0
LINE
  8
0
 10
30.7458
 20
46.1267
 11
30.8752
 21
46.2439
  0
LINE
  8
0
 10
30.8752
 20
46.2439
 11
31.0144
 21
46.347
  0
LINE
  8
0
 10
31.0144
 20
46.347
 11
31.1639
 21
46.4368
  0
LINE
  8
0
 10
31.1639
 20
46.4368
 11
31.3214
 21
46.5112
  0
LINE
  8
0
 10
31.3214
 20
46.5112
 11
31.485
 21
46.5704
  0
LINE
  8
0
 10
31.485
 20
46.5704
 11
31.6547
 21
46.6125
  0
LINE
  8
0
 10
31.6547
 20
46.6125
 11
31.8262
 21
46.6382
  0
LINE
  8
0
 10
31.8262
 20
46.6382
 11
31.9995
 21
46.6467
  0
LINE
  8
0
 10
31.9995
 20
46.6467
 11
32.1735
 21
46.6376
  0
LINE
  8
0
 10
32.1735
 20
46.6376
 11
32.3456
 21
46.6125
  0
LINE
  8
0
 10
32.3456
 20
46.6125
 11
32.514
 21
46.5704
  0
LINE
  8
0
 10
32.514
 20
46.5704
 11
32.6776
 21
46.5112
  0
LINE
  8
0
 10
32.6776
 20
46.5112
 11
32.8351
 21
46.4368
  0
LINE
  8
0
 10
32.8351
 20
46.4368
 11
32.9846
 21
46.347
  0
LINE
  8
0
 10
32.9846
 20
46.347
 11
33.1238
 21
46.2439
  0
LINE
  8
0
 10
33.1238
 20
46.2439
 11
33.2532
 21
46.1267
  0
LINE
  8
0
 10
33.2532
 20
46.1267
 11
33.3698
 21
45.9985
  0
LINE
  8
0
 10
33.3698
 20
45.9985
 11
33.4735
 21
45.8582
  0
LINE
  8
0
 10
33.4735
 20
45.8582
 11
33.5626
 21
45.7092
  0
LINE
  8
0
 10
33.5626
 20
45.7092
 11
33.6371
 21
45.5518
  0
LINE
  8
0
 10
33.6371
 20
45.5518
 11
33.6957
 21
45.3882
  0
LINE
  8
0
 10
33.6957
 20
45.3882
 11
33.7384
 21
45.2191
  0
LINE
  8
0
 10
33.7384
 20
45.2191
 11
33.764
 21
45.047
  0
LINE
  8
0
 10
33.764
 20
45.047
 11
33.772
 21
44.8737
  0
LINE
  8
0
 10
33.772
 20
44.8737
 11
33.7634
 21
44.6991
  0
LINE
  8
0
 10
33.7634
 20
44.6991
 11
33.7378
 21
44.527
  0
LINE
  8
0
 10
33.7378
 20
44.527
 11
33.6957
 21
44.3591
  0
LINE
  8
0
 10
33.6957
 20
44.3591
 11
33.6371
 21
44.1949
  0
LINE
  8
0
 10
33.6371
 20
44.1949
 11
33.5626
 21
44.0375
  0
LINE
  8
0
 10
33.5626
 20
44.0375
 11
33.4729
 21
43.8879
  0
LINE
  8
0
 10
33.4729
 20
43.8879
 11
33.3698
 21
43.7488
  0
LINE
  8
0
 10
33.3698
 20
43.7488
 11
33.2526
 21
43.6194
  0
LINE
  8
0
 10
33.2526
 20
43.6194
 11
33.1238
 21
43.5028
  0
LINE
  8
0
 10
33.1238
 20
43.5028
 11
32.9846
 21
43.3997
  0
LINE
  8
0
 10
32.9846
 20
43.3997
 11
32.8351
 21
43.3099
  0
LINE
  8
0
 10
32.8351
 20
43.3099
 11
32.6776
 21
43.2355
  0
LINE
  8
0
 10
32.6776
 20
43.2355
 11
32.514
 21
43.1769
  0
LINE
  8
0
 10
32.514
 20
43.1769
 11
32.3444
 21
43.1348
  0
LINE
  8
0
 10
32.3444
 20
43.1348
 11
32.1729
 21
43.1091
  0
LINE
  8
0
 10
32.1729
 20
43.1091
 11
31.9995
 21
43.1006
  0
LINE
  8
0
 10
31.9995
 20
43.1006
 11
31.8256
 21
43.1097
  0
LINE
  8
0
 10
-32.1735
 20
43.1097
 11
-32.3456
 21
43.1348
  0
LINE
  8
0
 10
-32.3456
 20
43.1348
 11
-32.514
 21
43.1769
  0
LINE
  8
0
 10
-32.514
 20
43.1769
 11
-32.6776
 21
43.2355
  0
LINE
  8
0
 10
-32.6776
 20
43.2355
 11
-32.8351
 21
43.3099
  0
LINE
  8
0
 10
-32.8351
 20
43.3099
 11
-32.9846
 21
43.3997
  0
LINE
  8
0
 10
-32.9846
 20
43.3997
 11
-33.1238
 21
43.5028
  0
LINE
  8
0
 10
-33.1238
 20
43.5028
 11
-33.2532
 21
43.62
  0
LINE
  8
0
 10
-33.2532
 20
43.62
 11
-33.3698
 21
43.7488
  0
LINE
  8
0
 10
-33.3698
 20
43.7488
 11
-33.4735
 21
43.8885
  0
LINE
  8
0
 10
-33.4735
 20
43.8885
 11
-33.5626
 21
44.0375
  0
LINE
  8
0
 10
-33.5626
 20
44.0375
 11
-33.6371
 21
44.1956
  0
LINE
  8
0
 10
-33.6371
 20
44.1956
 11
-33.6957
 21
44.3591
  0
LINE
  8
0
 10
-33.6957
 20
44.3591
 11
-33.7384
 21
44.5282
  0
LINE
  8
0
 10
-33.7384
 20
44.5282
 11
-33.764
 21
44.6997
  0
LINE
  8
0
 10
-33.764
 20
44.6997
 11
-33.772
 21
44.8737
  0
LINE
  8
0
 10
-33.772
 20
44.8737
 11
-33.7634
 21
45.0476
  0
LINE
  8
0
 10
-33.7634
 20
45.0476
 11
-33.7378
 21
45.2203
  0
LINE
  8
0
 10
-33.7378
 20
45.2203
 11
-33.6957
 21
45.3882
  0
LINE
  8
0
 10
-33.6957
 20
45.3882
 11
-33.6371
 21
45.5518
  0
LINE
  8
0
 10
-33.6371
 20
45.5518
 11
-33.5626
 21
45.7092
  0
LINE
  8
0
 10
-33.5626
 20
45.7092
 11
-33.4735
 21
45.8582
  0
LINE
  8
0
 10
-33.4735
 20
45.8582
 11
-33.3698
 21
45.9985
  0
LINE
  8
0
 10
-33.3698
 20
45.9985
 11
-33.2532
 21
46.1267
  0
LINE
  8
0
 10
-33.2532
 20
46.1267
 11
-33.1238
 21
46.2439
  0
LINE
  8
0
 10
-33.1238
 20
46.2439
 11
-32.9846
 21
46.347
  0
LINE
  8
0
 10
-32.9846
 20
46.347
 11
-32.8351
 21
46.4368
  0
LINE
  8
0
 10
-32.8351
 20
46.4368
 11
-32.6776
 21
46.5112
  0
LINE
  8
0
 10
-32.6776
 20
46.5112
 11
-32.514
 21
46.5704
  0
LINE
  8
0
 10
-32.514
 20
46.5704
 11
-32.3444
 21
46.6125
  0
LINE
  8
0
 10
-32.3444
 20
46.6125
 11
-32.1729
 21
46.6382
  0
LINE
  8
0
 10
-32.1729
 20
46.6382
 11
-31.9995
 21
46.6467
  0
LINE
  8
0
 10
-31.9995
 20
46.6467
 11
-31.8256
 21
46.6376
  0
LINE
  8
0
 10
-31.8256
 20
46.6376
 11
-31.6534
 21
46.6125
  0
LINE
  8
0
 10
-31.6534
 20
46.6125
 11
-31.485
 21
46.5704
  0
LINE
  8
0
 10
-31.485
 20
46.5704
 11
-31.3214
 21
46.5112
  0
LINE
  8
0
 10
-31.3214
 20
46.5112
 11
-31.1639
 21
46.4368
  0
LINE
  8
0
 10
-31.1639
 20
46.4368
 11
-31.0144
 21
46.347
  0
LINE
  8
0
 10
-31.0144
 20
46.347
 11
-30.8752
 21
46.2439
  0
LINE
  8
0
 10
-30.8752
 20
46.2439
 11
-30.7458
 21
46.1267
  0
LINE
  8
0
 10
-30.7458
 20
46.1267
 11
-30.6293
 21
45.9985
  0
LINE
  8
0
 10
-30.6293
 20
45.9985
 11
-30.5255
 21
45.8582
  0
LINE
  8
0
 10
-30.5255
 20
45.8582
 11
-30.4364
 21
45.7092
  0
LINE
  8
0
 10
-30.4364
 20
45.7092
 11
-30.3619
 21
45.5518
  0
LINE
  8
0
 10
-30.3619
 20
45.5518
 11
-30.3033
 21
45.3882
  0
LINE
  8
0
 10
-30.3033
 20
45.3882
 11
-30.2606
 21
45.2191
  0
LINE
  8
0
 10
-30.2606
 20
45.2191
 11
-30.235
 21
45.047
  0
LINE
  8
0
 10
-30.235
 20
45.047
 11
-30.2271
 21
44.8737
  0
LINE
  8
0
 10
-30.2271
 20
44.8737
 11
-30.2356
 21
44.6991
  0
LINE
  8
0
 10
-30.2356
 20
44.6991
 11
-30.2612
 21
44.527
  0
LINE
  8
0
 10
-30.2612
 20
44.527
 11
-30.3033
 21
44.3591
  0
LINE
  8
0
 10
-30.3033
 20
44.3591
 11
-30.3619
 21
44.1949
  0
LINE
  8
0
 10
-30.3619
 20
44.1949
 11
-30.4364
 21
44.0375
  0
LINE
  8
0
 10
-30.4364
 20
44.0375
 11
-30.5261
 21
43.8879
  0
LINE
  8
0
 10
-30.5261
 20
43.8879
 11
-30.6293
 21
43.7488
  0
LINE
  8
0
 10
-30.6293
 20
43.7488
 11
-30.7465
 21
43.6194
  0
LINE
  8
0
 10
-30.7465
 20
43.6194
 11
-30.8752
 21
43.5028
  0
LINE
  8
0
 10
-30.8752
 20
43.5028
 11
-31.0144
 21
43.3997
  0
LINE
  8
0
 10
-31.0144
 20
43.3997
 11
-31.1639
 21
43.3099
  0
LINE
  8
0
 10
-31.1639
 20
43.3099
 11
-31.3214
 21
43.2355
  0
LINE
  8
0
 10
-31.3214
 20
43.2355
 11
-31.485
 21
43.1769
  0
LINE
  8
0
 10
-31.485
 20
43.1769
 11
-31.6547
 21
43.1348
  0
LINE
  8
0
 10
-31.6547
 20
43.1348
 11
-31.8262
 21
43.1091
  0
LINE
  8
0
 10
-31.8262
 20
43.1091
 11
-31.9995
 21
43.1006
  0
LINE
  8
0
 10
-31.9995
 20
43.1006
 11
-32.1735
 21
43.1097
  0
LINE
  8
0
 10
-0.17395
 20
43.1097
 11
-0.346069
 21
43.1348
  0
LINE
  8
0
 10
-0.346069
 20
43.1348
 11
-0.514526
 21
43.1769
  0
LINE
  8
0
 10
-0.514526
 20
43.1769
 11
-0.678101
 21
43.2355
  0
LINE
  8
0
 10
-0.678101
 20
43.2355
 11
-0.835571
 21
43.3099
  0
LINE
  8
0
 10
-0.835571
 20
43.3099
 11
-0.985107
 21
43.3997
  0
LINE
  8
0
 10
-0.985107
 20
43.3997
 11
-1.12427
 21
43.5028
  0
LINE
  8
0
 10
-1.12427
 20
43.5028
 11
-1.25366
 21
43.62
  0
LINE
  8
0
 10
-1.25366
 20
43.62
 11
-1.37024
 21
43.7488
  0
LINE
  8
0
 10
-1.37024
 20
43.7488
 11
-1.474
 21
43.8885
  0
LINE
  8
0
 10
-1.474
 20
43.8885
 11
-1.56311
 21
44.0375
  0
LINE
  8
0
 10
-1.56311
 20
44.0375
 11
-1.63757
 21
44.1956
  0
LINE
  8
0
 10
-1.63757
 20
44.1956
 11
-1.69617
 21
44.3591
  0
LINE
  8
0
 10
-1.69617
 20
44.3591
 11
-1.73889
 21
44.5282
  0
LINE
  8
0
 10
-1.73889
 20
44.5282
 11
-1.76453
 21
44.6997
  0
LINE
  8
0
 10
-1.76453
 20
44.6997
 11
-1.77246
 21
44.8737
  0
LINE
  8
0
 10
-1.77246
 20
44.8737
 11
-1.76392
 21
45.0476
  0
LINE
  8
0
 10
-1.76392
 20
45.0476
 11
-1.73828
 21
45.2203
  0
LINE
  8
0
 10
-1.73828
 20
45.2203
 11
-1.69617
 21
45.3882
  0
LINE
  8
0
 10
-1.69617
 20
45.3882
 11
-1.63757
 21
45.5518
  0
LINE
  8
0
 10
-1.63757
 20
45.5518
 11
-1.56311
 21
45.7092
  0
LINE
  8
0
 10
-1.56311
 20
45.7092
 11
-1.474
 21
45.8582
  0
LINE
  8
0
 10
-1.474
 20
45.8582
 11
-1.37024
 21
45.9985
  0
LINE
  8
0
 10
-1.37024
 20
45.9985
 11
-1.25366
 21
46.1267
  0
LINE
  8
0
 10
-1.25366
 20
46.1267
 11
-1.12427
 21
46.2439
  0
LINE
  8
0
 10
-1.12427
 20
46.2439
 11
-0.985107
 21
46.347
  0
LINE
  8
0
 10
-0.985107
 20
46.347
 11
-0.835571
 21
46.4368
  0
LINE
  8
0
 10
-0.835571
 20
46.4368
 11
-0.678101
 21
46.5112
  0
LINE
  8
0
 10
-0.678101
 20
46.5112
 11
-0.514526
 21
46.5704
  0
LINE
  8
0
 10
-0.514526
 20
46.5704
 11
-0.344849
 21
46.6125
  0
LINE
  8
0
 10
-0.344849
 20
46.6125
 11
-0.17334
 21
46.6382
  0
LINE
  8
0
 10
-0.17334
 20
46.6382
 11
0
 21
46.6467
  0
LINE
  8
0
 10
0
 20
46.6467
 11
0.17395
 21
46.6376
  0
LINE
  8
0
 10
0.17395
 20
46.6376
 11
0.346069
 21
46.6125
  0
LINE
  8
0
 10
0.346069
 20
46.6125
 11
0.514526
 21
46.5704
  0
LINE
  8
0
 10
0.514526
 20
46.5704
 11
0.678101
 21
46.5112
  0
LINE
  8
0
 10
0.678101
 20
46.5112
 11
0.835571
 21
46.4368
  0
LINE
  8
0
 10
0.835571
 20
46.4368
 11
0.985107
 21
46.347
  0
LINE
  8
0
 10
0.985107
 20
46.347
 11
1.12427
 21
46.2439
  0
LINE
  8
0
 10
1.12427
 20
46.2439
 11
1.25366
 21
46.1267
  0
LINE
  8
0
 10
1.25366
 20
46.1267
 11
1.37024
 21
45.9985
  0
LINE
  8
0
 10
1.37024
 20
45.9985
 11
1.474
 21
45.8582
  0
LINE
  8
0
 10
1.474
 20
45.8582
 11
1.56311
 21
45.7092
  0
LINE
  8
0
 10
1.56311
 20
45.7092
 11
1.63757
 21
45.5518
  0
LINE
  8
0
 10
1.63757
 20
45.5518
 11
1.69617
 21
45.3882
  0
LINE
  8
0
 10
1.69617
 20
45.3882
 11
1.73889
 21
45.2191
  0
LINE
  8
0
 10
1.73889
 20
45.2191
 11
1.76453
 21
45.047
  0
LINE
  8
0
 10
1.76453
 20
45.047
 11
1.77246
 21
44.8737
  0
LINE
  8
0
 10
1.77246
 20
44.8737
 11
1.76392
 21
44.6991
  0
LINE
  8
0
 10
1.76392
 20
44.6991
 11
1.73828
 21
44.527
  0
LINE
  8
0
 10
1.73828
 20
44.527
 11
1.69617
 21
44.3591
  0
LINE
  8
0
 10
1.69617
 20
44.3591
 11
1.63757
 21
44.1949
  0
LINE
  8
0
 10
1.63757
 20
44.1949
 11
1.56311
 21
44.0375
  0
LINE
  8
0
 10
1.56311
 20
44.0375
 11
1.47339
 21
43.8879
  0
LINE
  8
0
 10
1.47339
 20
43.8879
 11
1.37024
 21
43.7488
  0
LINE
  8
0
 10
1.37024
 20
43.7488
 11
1.25305
 21
43.6194
  0
LINE
  8
0
 10
1.25305
 20
43.6194
 11
1.12427
 21
43.5028
  0
LINE
  8
0
 10
1.12427
 20
43.5028
 11
0.985107
 21
43.3997
  0
LINE
  8
0
 10
0.985107
 20
43.3997
 11
0.835571
 21
43.3099
  0
LINE
  8
0
 10
0.835571
 20
43.3099
 11
0.678101
 21
43.2355
  0
LINE
  8
0
 10
0.678101
 20
43.2355
 11
0.514526
 21
43.1769
  0
LINE
  8
0
 10
0.514526
 20
43.1769
 11
0.344849
 21
43.1348
  0
LINE
  8
0
 10
0.344849
 20
43.1348
 11
0.17334
 21
43.1091
  0
LINE
  8
0
 10
0.17334
 20
43.1091
 11
0
 21
43.1006
  0
LINE
  8
0
 10
0
 20
43.1006
 11
-0.17395
 21
43.1097
  0
LINE
  8
0
 10
3.14453
 20
25.9027
 11
2.62329
 21
26.3605
  0
LINE
  8
0
 10
2.62329
 20
26.3605
 11
2.04895
 21
27.124
  0
LINE
  8
0
 10
2.04895
 20
27.124
 11
1.4209
 21
28.194
  0
LINE
  8
0
 10
1.4209
 20
28.194
 11
0.739136
 21
29.5697
  0
LINE
  8
0
 10
0.739136
 20
29.5697
 11
0.00427246
 21
31.2476
  0
LINE
  8
0
 10
0.00427246
 20
31.2476
 11
0.00427246
 21
31.2689
  0
LINE
  8
0
 10
0.00427246
 20
31.2689
 11
-0.000610352
 21
31.2585
  0
LINE
  8
0
 10
-0.000610352
 20
31.2585
 11
-0.00427246
 21
31.2671
  0
LINE
  8
0
 10
-0.00427246
 20
31.2671
 11
-0.00427246
 21
31.2488
  0
LINE
  8
0
 10
-0.00427246
 20
31.2488
 11
-0.739136
 21
29.5697
  0
LINE
  8
0
 10
-0.739136
 20
29.5697
 11
-1.4209
 21
28.194
  0
LINE
  8
0
 10
-1.4209
 20
28.194
 11
-2.04956
 21
27.1234
  0
LINE
  8
0
 10
-2.04956
 20
27.1234
 11
-2.6239
 21
26.3599
  0
LINE
  8
0
 10
-2.6239
 20
26.3599
 11
-3.14453
 21
25.9027
  0
LINE
  8
0
 10
-3.14453
 20
25.9027
 11
-3.61145
 21
25.7501
  0
LINE
  8
0
 10
-3.61145
 20
25.7501
 11
-4.02344
 21
25.9021
  0
LINE
  8
0
 10
-4.02344
 20
25.9021
 11
-4.38477
 21
26.3599
  0
LINE
  8
0
 10
-4.38477
 20
26.3599
 11
-4.69177
 21
27.1228
  0
LINE
  8
0
 10
-4.69177
 20
27.1228
 11
-4.9469
 21
28.1934
  0
LINE
  8
0
 10
-4.9469
 20
28.1934
 11
-5.14832
 21
29.5685
  0
LINE
  8
0
 10
-5.14832
 20
29.5685
 11
-5.29602
 21
31.2488
  0
LINE
  8
0
 10
-5.29602
 20
31.2488
 11
0
 21
37.4744
  0
LINE
  8
0
 10
0
 20
37.4744
 11
5.29541
 21
31.2494
  0
LINE
  8
0
 10
5.29541
 20
31.2494
 11
5.14771
 21
29.5685
  0
LINE
  8
0
 10
5.14771
 20
29.5685
 11
4.94629
 21
28.1927
  0
LINE
  8
0
 10
4.94629
 20
28.1927
 11
4.69177
 21
27.1222
  0
LINE
  8
0
 10
4.69177
 20
27.1222
 11
4.38477
 21
26.3599
  0
LINE
  8
0
 10
4.38477
 20
26.3599
 11
4.02344
 21
25.9021
  0
LINE
  8
0
 10
4.02344
 20
25.9021
 11
3.61145
 21
25.7501
  0
LINE
  8
0
 10
3.61145
 20
25.7501
 11
3.14453
 21
25.9027
  0
LINE
  8
0
 10
-28.855
 20
25.9027
 11
-29.3762
 21
26.3605
  0
LINE
  8
0
 10
-29.3762
 20
26.3605
 11
-29.9506
 21
27.124
  0
LINE
  8
0
 10
-29.9506
 20
27.124
 11
-30.5786
 21
28.194
  0
LINE
  8
0
 10
-30.5786
 20
28.194
 11
-31.2604
 21
29.5697
  0
LINE
  8
0
 10
-31.2604
 20
29.5697
 11
-31.9952
 21
31.2476
  0
LINE
  8
0
 10
-31.9952
 20
31.2476
 11
-31.9952
 21
31.2689
  0
LINE
  8
0
 10
-31.9952
 20
31.2689
 11
-32.0001
 21
31.2585
  0
LINE
  8
0
 10
-32.0001
 20
31.2585
 11
-32.0038
 21
31.2671
  0
LINE
  8
0
 10
-32.0038
 20
31.2671
 11
-32.0038
 21
31.2488
  0
LINE
  8
0
 10
-32.0038
 20
31.2488
 11
-32.7386
 21
29.5697
  0
LINE
  8
0
 10
-32.7386
 20
29.5697
 11
-33.4204
 21
28.194
  0
LINE
  8
0
 10
-33.4204
 20
28.194
 11
-34.0491
 21
27.1234
  0
LINE
  8
0
 10
-34.0491
 20
27.1234
 11
-34.6234
 21
26.3599
  0
LINE
  8
0
 10
-34.6234
 20
26.3599
 11
-35.144
 21
25.9027
  0
LINE
  8
0
 10
-35.144
 20
25.9027
 11
-35.611
 21
25.7501
  0
LINE
  8
0
 10
-35.611
 20
25.7501
 11
-36.0229
 21
25.9021
  0
LINE
  8
0
 10
-36.0229
 20
25.9021
 11
-36.3843
 21
26.3599
  0
LINE
  8
0
 10
-36.3843
 20
26.3599
 11
-36.6913
 21
27.1228
  0
LINE
  8
0
 10
-36.6913
 20
27.1228
 11
-36.9464
 21
28.1934
  0
LINE
  8
0
 10
-36.9464
 20
28.1934
 11
-37.1478
 21
29.5685
  0
LINE
  8
0
 10
-37.1478
 20
29.5685
 11
-37.2955
 21
31.2488
  0
LINE
  8
0
 10
-37.2955
 20
31.2488
 11
-31.9995
 21
37.4744
  0
LINE
  8
0
 10
-31.9995
 20
37.4744
 11
-26.7041
 21
31.2494
  0
LINE
  8
0
 10
-26.7041
 20
31.2494
 11
-26.8518
 21
29.5685
  0
LINE
  8
0
 10
-26.8518
 20
29.5685
 11
-27.0532
 21
28.1927
  0
LINE
  8
0
 10
-27.0532
 20
28.1927
 11
-27.3077
 21
27.1222
  0
LINE
  8
0
 10
-27.3077
 20
27.1222
 11
-27.6147
 21
26.3599
  0
LINE
  8
0
 10
-27.6147
 20
26.3599
 11
-27.9761
 21
25.9021
  0
LINE
  8
0
 10
-27.9761
 20
25.9021
 11
-28.3881
 21
25.7501
  0
LINE
  8
0
 10
-28.3881
 20
25.7501
 11
-28.855
 21
25.9027
  0
LINE
  8
0
 10
35.144
 20
25.9027
 11
34.6228
 21
26.3605
  0
LINE
  8
0
 10
34.6228
 20
26.3605
 11
34.0485
 21
27.124
  0
LINE
  8
0
 10
34.0485
 20
27.124
 11
33.4204
 21
28.194
  0
LINE
  8
0
 10
33.4204
 20
28.194
 11
32.7386
 21
29.5697
  0
LINE
  8
0
 10
32.7386
 20
29.5697
 11
32.0038
 21
31.2476
  0
LINE
  8
0
 10
32.0038
 20
31.2476
 11
32.0038
 21
31.2689
  0
LINE
  8
0
 10
32.0038
 20
31.2689
 11
31.9989
 21
31.2585
  0
LINE
  8
0
 10
31.9989
 20
31.2585
 11
31.9952
 21
31.2671
  0
LINE
  8
0
 10
31.9952
 20
31.2671
 11
31.9952
 21
31.2488
  0
LINE
  8
0
 10
31.9952
 20
31.2488
 11
31.2604
 21
29.5697
  0
LINE
  8
0
 10
31.2604
 20
29.5697
 11
30.5786
 21
28.194
  0
LINE
  8
0
 10
30.5786
 20
28.194
 11
29.95
 21
27.1234
  0
LINE
  8
0
 10
29.95
 20
27.1234
 11
29.3756
 21
26.3599
  0
LINE
  8
0
 10
29.3756
 20
26.3599
 11
28.855
 21
25.9027
  0
LINE
  8
0
 10
28.855
 20
25.9027
 11
28.3881
 21
25.7501
  0
LINE
  8
0
 10
28.3881
 20
25.7501
 11
27.9761
 21
25.9021
  0
LINE
  8
0
 10
27.9761
 20
25.9021
 11
27.6147
 21
26.3599
  0
LINE
  8
0
 10
27.6147
 20
26.3599
 11
27.3077
 21
27.1228
  0
LINE
  8
0
 10
27.3077
 20
27.1228
 11
27.0526
 21
28.1934
  0
LINE
  8
0
 10
27.0526
 20
28.1934
 11
26.8512
 21
29.5685
  0
LINE
  8
0
 10
26.8512
 20
29.5685
 11
26.7035
 21
31.2488
  0
LINE
  8
0
 10
26.7035
 20
31.2488
 11
31.9995
 21
37.4744
  0
LINE
  8
0
 10
31.9995
 20
37.4744
 11
37.2949
 21
31.2494
  0
LINE
  8
0
 10
37.2949
 20
31.2494
 11
37.1472
 21
29.5685
  0
LINE
  8
0
 10
37.1472
 20
29.5685
 11
36.9458
 21
28.1927
  0
LINE
  8
0
 10
36.9458
 20
28.1927
 11
36.6913
 21
27.1222
  0
LINE
  8
0
 10
36.6913
 20
27.1222
 11
36.3843
 21
26.3599
  0
LINE
  8
0
 10
36.3843
 20
26.3599
 11
36.0229
 21
25.9021
  0
LINE
  8
0
 10
36.0229
 20
25.9021
 11
35.611
 21
25.7501
  0
LINE
  8
0
 10
35.611
 20
25.7501
 11
35.144
 21
25.9027
  0
LINE
  8
0
 10
-39.5678
 20
12
 11
-39.8138
 21
12.4304
  0
LINE
  8
0
 10
-39.8138
 20
12.4304
 11
-40.7574
 21
14.3597
  0
LINE
  8
0
 10
-40.7574
 20
14.3597
 11
-41.51
 21
16.2378
  0
LINE
  8
0
 10
-41.51
 20
16.2378
 11
-42.0721
 21
18.0634
  0
LINE
  8
0
 10
-42.0721
 20
18.0634
 11
-42.4438
 21
19.8364
  0
LINE
  8
0
 10
-42.4438
 20
19.8364
 11
-42.6257
 21
21.5576
  0
LINE
  8
0
 10
-42.6257
 20
21.5576
 11
-42.6172
 21
23.2281
  0
LINE
  8
0
 10
-42.6172
 20
23.2281
 11
-42.4182
 21
24.845
  0
LINE
  8
0
 10
-42.4182
 20
24.845
 11
-42.0294
 21
26.4117
  0
LINE
  8
0
 10
-42.0294
 20
26.4117
 11
-41.4539
 21
27.9144
  0
LINE
  8
0
 10
-41.4539
 20
27.9144
 11
-40.5347
 21
24.6252
  0
LINE
  8
0
 10
-40.5347
 20
24.6252
 11
-39.6362
 21
21.925
  0
LINE
  8
0
 10
-39.6362
 20
21.925
 11
-38.7628
 21
19.8254
  0
LINE
  8
0
 10
-38.7628
 20
19.8254
 11
-37.9132
 21
18.3246
  0
LINE
  8
0
 10
-37.9132
 20
18.3246
 11
-37.088
 21
17.4237
  0
LINE
  8
0
 10
-37.088
 20
17.4237
 11
-36.2854
 21
17.1228
  0
LINE
  8
0
 10
-36.2854
 20
17.1228
 11
-35.5078
 21
17.4243
  0
LINE
  8
0
 10
-35.5078
 20
17.4243
 11
-34.7552
 21
18.3246
  0
LINE
  8
0
 10
-34.7552
 20
18.3246
 11
-34.0289
 21
19.8254
  0
LINE
  8
0
 10
-34.0289
 20
19.8254
 11
-33.3264
 21
21.925
  0
LINE
  8
0
 10
-33.3264
 20
21.925
 11
-32.6489
 21
24.6252
  0
LINE
  8
0
 10
-32.6489
 20
24.6252
 11
-31.9995
 21
27.9047
  0
LINE
  8
0
 10
-31.9995
 20
27.9047
 11
-31.3501
 21
24.6259
  0
LINE
  8
0
 10
-31.3501
 20
24.6259
 11
-30.6726
 21
21.9257
  0
LINE
  8
0
 10
-30.6726
 20
21.9257
 11
-29.9701
 21
19.826
  0
LINE
  8
0
 10
-29.9701
 20
19.826
 11
-29.2438
 21
18.3246
  0
LINE
  8
0
 10
-29.2438
 20
18.3246
 11
-28.4912
 21
17.4243
  0
LINE
  8
0
 10
-28.4912
 20
17.4243
 11
-27.7136
 21
17.1228
  0
LINE
  8
0
 10
-27.7136
 20
17.1228
 11
-26.911
 21
17.4237
  0
LINE
  8
0
 10
-26.911
 20
17.4237
 11
-26.0858
 21
18.3246
  0
LINE
  8
0
 10
-26.0858
 20
18.3246
 11
-25.2362
 21
19.8254
  0
LINE
  8
0
 10
-25.2362
 20
19.8254
 11
-24.3628
 21
21.9244
  0
LINE
  8
0
 10
-24.3628
 20
21.9244
 11
-23.4644
 21
24.6252
  0
LINE
  8
0
 10
-23.4644
 20
24.6252
 11
-22.5452
 21
27.9144
  0
LINE
  8
0
 10
-22.5452
 20
27.9144
 11
-21.9696
 21
26.4111
  0
LINE
  8
0
 10
-21.9696
 20
26.4111
 11
-21.5808
 21
24.845
  0
LINE
  8
0
 10
-21.5808
 20
24.845
 11
-21.3818
 21
23.2269
  0
LINE
  8
0
 10
-21.3818
 20
23.2269
 11
-21.3733
 21
21.5564
  0
LINE
  8
0
 10
-21.3733
 20
21.5564
 11
-21.5552
 21
19.8364
  0
LINE
  8
0
 10
-21.5552
 20
19.8364
 11
-21.9269
 21
18.0627
  0
LINE
  8
0
 10
-21.9269
 20
18.0627
 11
-22.489
 21
16.2372
  0
LINE
  8
0
 10
-22.489
 20
16.2372
 11
-23.2416
 21
14.3591
  0
LINE
  8
0
 10
-23.2416
 20
14.3591
 11
-24.1852
 21
12.4304
  0
LINE
  8
0
 10
-24.1852
 20
12.4304
 11
-24.4313
 21
12
  0
LINE
  8
0
 10
-24.4313
 20
12
 11
-39.5678
 21
12
  0
LINE
  8
0
 10
24.4312
 20
12
 11
24.1852
 21
12.4304
  0
LINE
  8
0
 10
24.1852
 20
12.4304
 11
23.2416
 21
14.3597
  0
LINE
  8
0
 10
23.2416
 20
14.3597
 11
22.489
 21
16.2378
  0
LINE
  8
0
 10
22.489
 20
16.2378
 11
21.9269
 21
18.0634
  0
LINE
  8
0
 10
21.9269
 20
18.0634
 11
21.5552
 21
19.8364
  0
LINE
  8
0
 10
21.5552
 20
19.8364
 11
21.3733
 21
21.5576
  0
LINE
  8
0
 10
21.3733
 20
21.5576
 11
21.3818
 21
23.2281
  0
LINE
  8
0
 10
21.3818
 20
23.2281
 11
21.5808
 21
24.845
  0
LINE
  8
0
 10
21.5808
 20
24.845
 11
21.9696
 21
26.4117
  0
LINE
  8
0
 10
21.9696
 20
26.4117
 11
22.5452
 21
27.9144
  0
LINE
  8
0
 10
22.5452
 20
27.9144
 11
23.4644
 21
24.6252
  0
LINE
  8
0
 10
23.4644
 20
24.6252
 11
24.3628
 21
21.925
  0
LINE
  8
0
 10
24.3628
 20
21.925
 11
25.2362
 21
19.8254
  0
LINE
  8
0
 10
25.2362
 20
19.8254
 11
26.0858
 21
18.3246
  0
LINE
  8
0
 10
26.0858
 20
18.3246
 11
26.911
 21
17.4237
  0
LINE
  8
0
 10
26.911
 20
17.4237
 11
27.7136
 21
17.1228
  0
LINE
  8
0
 10
27.7136
 20
17.1228
 11
28.4912
 21
17.4243
  0
LINE
  8
0
 10
28.4912
 20
17.4243
 11
29.2438
 21
18.3246
  0
LINE
  8
0
 10
29.2438
 20
18.3246
 11
29.9701
 21
19.8254
  0
LINE
  8
0
 10
29.9701
 20
19.8254
 11
30.6726
 21
21.925
  0
LINE
  8
0
 10
30.6726
 20
21.925
 11
31.3501
 21
24.6252
  0
LINE
  8
0
 10
31.3501
 20
24.6252
 11
31.9995
 21
27.9047
  0
LINE
  8
0
 10
31.9995
 20
27.9047
 11
32.6489
 21
24.6259
  0
LINE
  8
0
 10
32.6489
 20
24.6259
 11
33.3264
 21
21.9257
  0
LINE
  8
0
 10
33.3264
 20
21.9257
 11
34.0289
 21
19.826
  0
LINE
  8
0
 10
34.0289
 20
19.826
 11
34.7552
 21
18.3246
  0
LINE
  8
0
 10
34.7552
 20
18.3246
 11
35.5078
 21
17.4243
  0
LINE
  8
0
 10
35.5078
 20
17.4243
 11
36.2854
 21
17.1228
  0
LINE
  8
0
 10
36.2854
 20
17.1228
 11
37.088
 21
17.4237
  0
LINE
  8
0
 10
37.088
 20
17.4237
 11
37.9132
 21
18.3246
  0
LINE
  8
0
 10
37.9132
 20
18.3246
 11
38.7628
 21
19.8254
  0
LINE
  8
0
 10
38.7628
 20
19.8254
 11
39.6362
 21
21.9244
  0
LINE
  8
0
 10
39.6362
 20
21.9244
 11
40.5347
 21
24.6252
  0
LINE
  8
0
 10
40.5347
 20
24.6252
 11
41.4539
 21
27.9144
  0
LINE
  8
0
 10
41.4539
 20
27.9144
 11
42.0294
 21
26.4111
  0
LINE
  8
0
 10
42.0294
 20
26.4111
 11
42.4182
 21
24.845
  0
LINE
  8
0
 10
42.4182
 20
24.845
 11
42.6172
 21
23.2269
  0
LINE
  8
0
 10
42.6172
 20
23.2269
 11
42.6257
 21
21.5564
  0
LINE
  8
0
 10
42.6257
 20
21.5564
 11
42.4438
 21
19.8364
  0
LINE
  8
0
 10
42.4438
 20
19.8364
 11
42.0721
 21
18.0627
  0
LINE
  8
0
 10
42.0721
 20
18.0627
 11
41.51
 21
16.2372
  0
LINE
  8
0
 10
41.51
 20
16.2372
 11
40.7574
 21
14.3591
  0
LINE
  8
0
 10
40.7574
 20
14.3591
 11
39.8138
 21
12.4304
  0
LINE
  8
0
 10
39.8138
 20
12.4304
 11
39.5677
 21
12
  0
LINE
  8
0
 10
39.5677
 20
12
 11
24.4312
 21
12
  0
LINE
  8
0
 10
-7.5683
 20
12
 11
-7.81433
 21
12.4304
  0
LINE
  8
0
 10
-7.81433
 20
12.4304
 11
-8.75793
 21
14.3597
  0
LINE
  8
0
 10
-8.75793
 20
14.3597
 11
-9.5105
 21
16.2378
  0
LINE
  8
0
 10
-9.5105
 20
16.2378
 11
-10.0726
 21
18.0634
  0
LINE
  8
0
 10
-10.0726
 20
18.0634
 11
-10.4443
 21
19.8364
  0
LINE
  8
0
 10
-10.4443
 20
19.8364
 11
-10.6262
 21
21.5576
  0
LINE
  8
0
 10
-10.6262
 20
21.5576
 11
-10.6177
 21
23.2281
  0
LINE
  8
0
 10
-10.6177
 20
23.2281
 11
-10.4187
 21
24.845
  0
LINE
  8
0
 10
-10.4187
 20
24.845
 11
-10.0299
 21
26.4117
  0
LINE
  8
0
 10
-10.0299
 20
26.4117
 11
-9.45435
 21
27.9144
  0
LINE
  8
0
 10
-9.45435
 20
27.9144
 11
-8.53516
 21
24.6252
  0
LINE
  8
0
 10
-8.53516
 20
24.6252
 11
-7.63672
 21
21.925
  0
LINE
  8
0
 10
-7.63672
 20
21.925
 11
-6.76331
 21
19.8254
  0
LINE
  8
0
 10
-6.76331
 20
19.8254
 11
-5.9137
 21
18.3246
  0
LINE
  8
0
 10
-5.9137
 20
18.3246
 11
-5.0885
 21
17.4237
  0
LINE
  8
0
 10
-5.0885
 20
17.4237
 11
-4.28589
 21
17.1228
  0
LINE
  8
0
 10
-4.28589
 20
17.1228
 11
-3.5083
 21
17.4243
  0
LINE
  8
0
 10
-3.5083
 20
17.4243
 11
-2.75574
 21
18.3246
  0
LINE
  8
0
 10
-2.75574
 20
18.3246
 11
-2.02942
 21
19.8254
  0
LINE
  8
0
 10
-2.02942
 20
19.8254
 11
-1.3269
 21
21.925
  0
LINE
  8
0
 10
-1.3269
 20
21.925
 11
-0.649414
 21
24.6252
  0
LINE
  8
0
 10
-0.649414
 20
24.6252
 11
0
 21
27.9047
  0
LINE
  8
0
 10
0
 20
27.9047
 11
0.649414
 21
24.6259
  0
LINE
  8
0
 10
0.649414
 20
24.6259
 11
1.3269
 21
21.9257
  0
LINE
  8
0
 10
1.3269
 20
21.9257
 11
2.02942
 21
19.826
  0
LINE
  8
0
 10
2.02942
 20
19.826
 11
2.75574
 21
18.3246
  0
LINE
  8
0
 10
2.75574
 20
18.3246
 11
3.5083
 21
17.4243
  0
LINE
  8
0
 10
3.5083
 20
17.4243
 11
4.28589
 21
17.1228
  0
LINE
  8
0
 10
4.28589
 20
17.1228
 11
5.0885
 21
17.4237
  0
LINE
  8
0
 10
5.0885
 20
17.4237
 11
5.9137
 21
18.3246
  0
LINE
  8
0
 10
5.9137
 20
18.3246
 11
6.76331
 21
19.8254
  0
LINE
  8
0
 10
6.76331
 20
19.8254
 11
7.63672
 21
21.9244
  0
LINE
  8
0
 10
7.63672
 20
21.9244
 11
8.53516
 21
24.6252
  0
LINE
  8
0
 10
8.53516
 20
24.6252
 11
9.45435
 21
27.9144
  0
LINE
  8
0
 10
9.45435
 20
27.9144
 11
10.0299
 21
26.4111
  0
LINE
  8
0
 10
10.0299
 20
26.4111
 11
10.4187
 21
24.845
  0
LINE
  8
0
 10
10.4187
 20
24.845
 11
10.6177
 21
23.2269
  0
LINE
  8
0
 10
10.6177
 20
23.2269
 11
10.6262
 21
21.5564
  0
LINE
  8
0
 10
10.6262
 20
21.5564
 11
10.4443
 21
19.8364
  0
LINE
  8
0
 10
10.4443
 20
19.8364
 11
10.0726
 21
18.0627
  0
LINE
  8
0
 10
10.0726
 20
18.0627
 11
9.5105
 21
16.2372
  0
LINE
  8
0
 10
9.5105
 20
16.2372
 11
8.75793
 21
14.3591
  0
LINE
  8
0
 10
8.75793
 20
14.3591
 11
7.81433
 21
12.4304
  0
LINE
  8
0
 10
7.81433
 20
12.4304
 11
7.56824
 21
12
  0
LINE
  8
0
 10
7.56824
 20
12
 11
-7.5683
 21
12
  0
LINE
  8
0
 10
-48.1738
 20
23.1097
 11
-48.3459
 21
23.1348
  0
LINE
  8
0
 10
-48.3459
 20
23.1348
 11
-48.5144
 21
23.1769
  0
LINE
  8
0
 10
-48.5144
 20
23.1769
 11
-48.678
 21
23.2355
  0
LINE
  8
0
 10
-48.678
 20
23.2355
 11
-48.8354
 21
23.3099
  0
LINE
  8
0
 10
-48.8354
 20
23.3099
 11
-48.985
 21
23.3997
  0
LINE
  8
0
 10
-48.985
 20
23.3997
 11
-49.1241
 21
23.5028
  0
LINE
  8
0
 10
-49.1241
 20
23.5028
 11
-49.2535
 21
23.62
  0
LINE
  8
0
 10
-49.2535
 20
23.62
 11
-49.3701
 21
23.7488
  0
LINE
  8
0
 10
-49.3701
 20
23.7488
 11
-49.4739
 21
23.8885
  0
LINE
  8
0
 10
-49.4739
 20
23.8885
 11
-49.563
 21
24.0375
  0
LINE
  8
0
 10
-49.563
 20
24.0375
 11
-49.6375
 21
24.1956
  0
LINE
  8
0
 10
-49.6375
 20
24.1956
 11
-49.696
 21
24.3591
  0
LINE
  8
0
 10
-49.696
 20
24.3591
 11
-49.7388
 21
24.5282
  0
LINE
  8
0
 10
-49.7388
 20
24.5282
 11
-49.7644
 21
24.6997
  0
LINE
  8
0
 10
-49.7644
 20
24.6997
 11
-49.7723
 21
24.8737
  0
LINE
  8
0
 10
-49.7723
 20
24.8737
 11
-49.7638
 21
25.0476
  0
LINE
  8
0
 10
-49.7638
 20
25.0476
 11
-49.7382
 21
25.2203
  0
LINE
  8
0
 10
-49.7382
 20
25.2203
 11
-49.696
 21
25.3882
  0
LINE
  8
0
 10
-49.696
 20
25.3882
 11
-49.6375
 21
25.5518
  0
LINE
  8
0
 10
-49.6375
 20
25.5518
 11
-49.563
 21
25.7092
  0
LINE
  8
0
 10
-49.563
 20
25.7092
 11
-49.4739
 21
25.8582
  0
LINE
  8
0
 10
-49.4739
 20
25.8582
 11
-49.3701
 21
25.9985
  0
LINE
  8
0
 10
-49.3701
 20
25.9985
 11
-49.2535
 21
26.1267
  0
LINE
  8
0
 10
-49.2535
 20
26.1267
 11
-49.1241
 21
26.2439
  0
LINE
  8
0
 10
-49.1241
 20
26.2439
 11
-48.985
 21
26.347
  0
LINE
  8
0
 10
-48.985
 20
26.347
 11
-48.8354
 21
26.4368
  0
LINE
  8
0
 10
-48.8354
 20
26.4368
 11
-48.678
 21
26.5112
  0
LINE
  8
0
 10
-48.678
 20
26.5112
 11
-48.5144
 21
26.5704
  0
LINE
  8
0
 10
-48.5144
 20
26.5704
 11
-48.3447
 21
26.6125
  0
LINE
  8
0
 10
-48.3447
 20
26.6125
 11
-48.1732
 21
26.6382
  0
LINE
  8
0
 10
-48.1732
 20
26.6382
 11
-47.9999
 21
26.6467
  0
LINE
  8
0
 10
-47.9999
 20
26.6467
 11
-47.8259
 21
26.6376
  0
LINE
  8
0
 10
-47.8259
 20
26.6376
 11
-47.6538
 21
26.6125
  0
LINE
  8
0
 10
-47.6538
 20
26.6125
 11
-47.4854
 21
26.5704
  0
LINE
  8
0
 10
-47.4854
 20
26.5704
 11
-47.3218
 21
26.5112
  0
LINE
  8
0
 10
-47.3218
 20
26.5112
 11
-47.1643
 21
26.4368
  0
LINE
  8
0
 10
-47.1643
 20
26.4368
 11
-47.0148
 21
26.347
  0
LINE
  8
0
 10
-47.0148
 20
26.347
 11
-46.8756
 21
26.2439
  0
LINE
  8
0
 10
-46.8756
 20
26.2439
 11
-46.7462
 21
26.1267
  0
LINE
  8
0
 10
-46.7462
 20
26.1267
 11
-46.6296
 21
25.9985
  0
LINE
  8
0
 10
-46.6296
 20
25.9985
 11
-46.5259
 21
25.8582
  0
LINE
  8
0
 10
-46.5259
 20
25.8582
 11
-46.4368
 21
25.7092
  0
LINE
  8
0
 10
-46.4368
 20
25.7092
 11
-46.3623
 21
25.5518
  0
LINE
  8
0
 10
-46.3623
 20
25.5518
 11
-46.3037
 21
25.3882
  0
LINE
  8
0
 10
-46.3037
 20
25.3882
 11
-46.261
 21
25.2191
  0
LINE
  8
0
 10
-46.261
 20
25.2191
 11
-46.2354
 21
25.047
  0
LINE
  8
0
 10
-46.2354
 20
25.047
 11
-46.2274
 21
24.8737
  0
LINE
  8
0
 10
-46.2274
 20
24.8737
 11
-46.236
 21
24.6991
  0
LINE
  8
0
 10
-46.236
 20
24.6991
 11
-46.2616
 21
24.527
  0
LINE
  8
0
 10
-46.2616
 20
24.527
 11
-46.3037
 21
24.3591
  0
LINE
  8
0
 10
-46.3037
 20
24.3591
 11
-46.3623
 21
24.1949
  0
LINE
  8
0
 10
-46.3623
 20
24.1949
 11
-46.4368
 21
24.0375
  0
LINE
  8
0
 10
-46.4368
 20
24.0375
 11
-46.5265
 21
23.8879
  0
LINE
  8
0
 10
-46.5265
 20
23.8879
 11
-46.6296
 21
23.7488
  0
LINE
  8
0
 10
-46.6296
 20
23.7488
 11
-46.7468
 21
23.6194
  0
LINE
  8
0
 10
-46.7468
 20
23.6194
 11
-46.8756
 21
23.5028
  0
LINE
  8
0
 10
-46.8756
 20
23.5028
 11
-47.0148
 21
23.3997
  0
LINE
  8
0
 10
-47.0148
 20
23.3997
 11
-47.1643
 21
23.3099
  0
LINE
  8
0
 10
-47.1643
 20
23.3099
 11
-47.3218
 21
23.2355
  0
LINE
  8
0
 10
-47.3218
 20
23.2355
 11
-47.4854
 21
23.1769
  0
LINE
  8
0
 10
-47.4854
 20
23.1769
 11
-47.655
 21
23.1348
  0
LINE
  8
0
 10
-47.655
 20
23.1348
 11
-47.8265
 21
23.1091
  0
LINE
  8
0
 10
-47.8265
 20
23.1091
 11
-47.9999
 21
23.1006
  0
LINE
  8
0
 10
-47.9999
 20
23.1006
 11
-48.1738
 21
23.1097
  0
LINE
  8
0
 10
-16.1737
 20
23.1097
 11
-16.3458
 21
23.1348
  0
LINE
  8
0
 10
-16.3458
 20
23.1348
 11
-16.5143
 21
23.1769
  0
LINE
  8
0
 10
-16.5143
 20
23.1769
 11
-16.6779
 21
23.2355
  0
LINE
  8
0
 10
-16.6779
 20
23.2355
 11
-16.8353
 21
23.3099
  0
LINE
  8
0
 10
-16.8353
 20
23.3099
 11
-16.9849
 21
23.3997
  0
LINE
  8
0
 10
-16.9849
 20
23.3997
 11
-17.124
 21
23.5028
  0
LINE
  8
0
 10
-17.124
 20
23.5028
 11
-17.2534
 21
23.62
  0
LINE
  8
0
 10
-17.2534
 20
23.62
 11
-17.37
 21
23.7488
  0
LINE
  8
0
 10
-17.37
 20
23.7488
 11
-17.4738
 21
23.8885
  0
LINE
  8
0
 10
-17.4738
 20
23.8885
 11
-17.5629
 21
24.0375
  0
LINE
  8
0
 10
-17.5629
 20
24.0375
 11
-17.6373
 21
24.1956
  0
LINE
  8
0
 10
-17.6373
 20
24.1956
 11
-17.6959
 21
24.3591
  0
LINE
  8
0
 10
-17.6959
 20
24.3591
 11
-17.7386
 21
24.5282
  0
LINE
  8
0
 10
-17.7386
 20
24.5282
 11
-17.7643
 21
24.6997
  0
LINE
  8
0
 10
-17.7643
 20
24.6997
 11
-17.7722
 21
24.8737
  0
LINE
  8
0
 10
-17.7722
 20
24.8737
 11
-17.7637
 21
25.0476
  0
LINE
  8
0
 10
-17.7637
 20
25.0476
 11
-17.738
 21
25.2203
  0
LINE
  8
0
 10
-17.738
 20
25.2203
 11
-17.6959
 21
25.3882
  0
LINE
  8
0
 10
-17.6959
 20
25.3882
 11
-17.6373
 21
25.5518
  0
LINE
  8
0
 10
-17.6373
 20
25.5518
 11
-17.5629
 21
25.7092
  0
LINE
  8
0
 10
-17.5629
 20
25.7092
 11
-17.4738
 21
25.8582
  0
LINE
  8
0
 10
-17.4738
 20
25.8582
 11
-17.37
 21
25.9985
  0
LINE
  8
0
 10
-17.37
 20
25.9985
 11
-17.2534
 21
26.1267
  0
LINE
  8
0
 10
-17.2534
 20
26.1267
 11
-17.124
 21
26.2439
  0
LINE
  8
0
 10
-17.124
 20
26.2439
 11
-16.9849
 21
26.347
  0
LINE
  8
0
 10
-16.9849
 20
26.347
 11
-16.8353
 21
26.4368
  0
LINE
  8
0
 10
-16.8353
 20
26.4368
 11
-16.6779
 21
26.5112
  0
LINE
  8
0
 10
-16.6779
 20
26.5112
 11
-16.5143
 21
26.5704
  0
LINE
  8
0
 10
-16.5143
 20
26.5704
 11
-16.3446
 21
26.6125
  0
LINE
  8
0
 10
-16.3446
 20
26.6125
 11
-16.1731
 21
26.6382
  0
LINE
  8
0
 10
-16.1731
 20
26.6382
 11
-15.9998
 21
26.6467
  0
LINE
  8
0
 10
-15.9998
 20
26.6467
 11
-15.8258
 21
26.6376
  0
LINE
  8
0
 10
-15.8258
 20
26.6376
 11
-15.6537
 21
26.6125
  0
LINE
  8
0
 10
-15.6537
 20
26.6125
 11
-15.4852
 21
26.5704
  0
LINE
  8
0
 10
-15.4852
 20
26.5704
 11
-15.3217
 21
26.5112
  0
LINE
  8
0
 10
-15.3217
 20
26.5112
 11
-15.1642
 21
26.4368
  0
LINE
  8
0
 10
-15.1642
 20
26.4368
 11
-15.0146
 21
26.347
  0
LINE
  8
0
 10
-15.0146
 20
26.347
 11
-14.8755
 21
26.2439
  0
LINE
  8
0
 10
-14.8755
 20
26.2439
 11
-14.7461
 21
26.1267
  0
LINE
  8
0
 10
-14.7461
 20
26.1267
 11
-14.6295
 21
25.9985
  0
LINE
  8
0
 10
-14.6295
 20
25.9985
 11
-14.5258
 21
25.8582
  0
LINE
  8
0
 10
-14.5258
 20
25.8582
 11
-14.4366
 21
25.7092
  0
LINE
  8
0
 10
-14.4366
 20
25.7092
 11
-14.3622
 21
25.5518
  0
LINE
  8
0
 10
-14.3622
 20
25.5518
 11
-14.3036
 21
25.3882
  0
LINE
  8
0
 10
-14.3036
 20
25.3882
 11
-14.2609
 21
25.2191
  0
LINE
  8
0
 10
-14.2609
 20
25.2191
 11
-14.2352
 21
25.047
  0
LINE
  8
0
 10
-14.2352
 20
25.047
 11
-14.2273
 21
24.8737
  0
LINE
  8
0
 10
-14.2273
 20
24.8737
 11
-14.2358
 21
24.6991
  0
LINE
  8
0
 10
-14.2358
 20
24.6991
 11
-14.2615
 21
24.527
  0
LINE
  8
0
 10
-14.2615
 20
24.527
 11
-14.3036
 21
24.3591
  0
LINE
  8
0
 10
-14.3036
 20
24.3591
 11
-14.3622
 21
24.1949
  0
LINE
  8
0
 10
-14.3622
 20
24.1949
 11
-14.4366
 21
24.0375
  0
LINE
  8
0
 10
-14.4366
 20
24.0375
 11
-14.5264
 21
23.8879
  0
LINE
  8
0
 10
-14.5264
 20
23.8879
 11
-14.6295
 21
23.7488
  0
LINE
  8
0
 10
-14.6295
 20
23.7488
 11
-14.7467
 21
23.6194
  0
LINE
  8
0
 10
-14.7467
 20
23.6194
 11
-14.8755
 21
23.5028
  0
LINE
  8
0
 10
-14.8755
 20
23.5028
 11
-15.0146
 21
23.3997
  0
LINE
  8
0
 10
-15.0146
 20
23.3997
 11
-15.1642
 21
23.3099
  0
LINE
  8
0
 10
-15.1642
 20
23.3099
 11
-15.3217
 21
23.2355
  0
LINE
  8
0
 10
-15.3217
 20
23.2355
 11
-15.4852
 21
23.1769
  0
LINE
  8
0
 10
-15.4852
 20
23.1769
 11
-15.6549
 21
23.1348
  0
LINE
  8
0
 10
-15.6549
 20
23.1348
 11
-15.8264
 21
23.1091
  0
LINE
  8
0
 10
-15.8264
 20
23.1091
 11
-15.9998
 21
23.1006
  0
LINE
  8
0
 10
-15.9998
 20
23.1006
 11
-16.1737
 21
23.1097
  0
LINE
  8
0
 10
47.8259
 20
23.1097
 11
47.6538
 21
23.1348
  0
LINE
  8
0
 10
47.6538
 20
23.1348
 11
47.4854
 21
23.1769
  0
LINE
  8
0
 10
47.4854
 20
23.1769
 11
47.3218
 21
23.2355
  0
LINE
  8
0
 10
47.3218
 20
23.2355
 11
47.1643
 21
23.3099
  0
LINE
  8
0
 10
47.1643
 20
23.3099
 11
47.0148
 21
23.3997
  0
LINE
  8
0
 10
47.0148
 20
23.3997
 11
46.8756
 21
23.5028
  0
LINE
  8
0
 10
46.8756
 20
23.5028
 11
46.7462
 21
23.62
  0
LINE
  8
0
 10
46.7462
 20
23.62
 11
46.6296
 21
23.7488
  0
LINE
  8
0
 10
46.6296
 20
23.7488
 11
46.5259
 21
23.8885
  0
LINE
  8
0
 10
46.5259
 20
23.8885
 11
46.4368
 21
24.0375
  0
LINE
  8
0
 10
46.4368
 20
24.0375
 11
46.3623
 21
24.1956
  0
LINE
  8
0
 10
46.3623
 20
24.1956
 11
46.3037
 21
24.3591
  0
LINE
  8
0
 10
46.3037
 20
24.3591
 11
46.261
 21
24.5282
  0
LINE
  8
0
 10
46.261
 20
24.5282
 11
46.2354
 21
24.6997
  0
LINE
  8
0
 10
46.2354
 20
24.6997
 11
46.2274
 21
24.8737
  0
LINE
  8
0
 10
46.2274
 20
24.8737
 11
46.236
 21
25.0476
  0
LINE
  8
0
 10
46.236
 20
25.0476
 11
46.2616
 21
25.2203
  0
LINE
  8
0
 10
46.2616
 20
25.2203
 11
46.3037
 21
25.3882
  0
LINE
  8
0
 10
46.3037
 20
25.3882
 11
46.3623
 21
25.5518
  0
LINE
  8
0
 10
46.3623
 20
25.5518
 11
46.4368
 21
25.7092
  0
LINE
  8
0
 10
46.4368
 20
25.7092
 11
46.5259
 21
25.8582
  0
LINE
  8
0
 10
46.5259
 20
25.8582
 11
46.6296
 21
25.9985
  0
LINE
  8
0
 10
46.6296
 20
25.9985
 11
46.7462
 21
26.1267
  0
LINE
  8
0
 10
46.7462
 20
26.1267
 11
46.8756
 21
26.2439
  0
LINE
  8
0
 10
46.8756
 20
26.2439
 11
47.0148
 21
26.347
  0
LINE
  8
0
 10
47.0148
 20
26.347
 11
47.1643
 21
26.4368
  0
LINE
  8
0
 10
47.1643
 20
26.4368
 11
47.3218
 21
26.5112
  0
LINE
  8
0
 10
47.3218
 20
26.5112
 11
47.4854
 21
26.5704
  0
LINE
  8
0
 10
47.4854
 20
26.5704
 11
47.655
 21
26.6125
  0
LINE
  8
0
 10
47.655
 20
26.6125
 11
47.8265
 21
26.6382
  0
LINE
  8
0
 10
47.8265
 20
26.6382
 11
47.9999
 21
26.6467
  0
LINE
  8
0
 10
47.9999
 20
26.6467
 11
48.1738
 21
26.6376
  0
LINE
  8
0
 10
48.1738
 20
26.6376
 11
48.3459
 21
26.6125
  0
LINE
  8
0
 10
48.3459
 20
26.6125
 11
48.5144
 21
26.5704
  0
LINE
  8
0
 10
48.5144
 20
26.5704
 11
48.678
 21
26.5112
  0
LINE
  8
0
 10
48.678
 20
26.5112
 11
48.8354
 21
26.4368
  0
LINE
  8
0
 10
48.8354
 20
26.4368
 11
48.985
 21
26.347
  0
LINE
  8
0
 10
48.985
 20
26.347
 11
49.1241
 21
26.2439
  0
LINE
  8
0
 10
49.1241
 20
26.2439
 11
49.2535
 21
26.1267
  0
LINE
  8
0
 10
49.2535
 20
26.1267
 11
49.3701
 21
25.9985
  0
LINE
  8
0
 10
49.3701
 20
25.9985
 11
49.4739
 21
25.8582
  0
LINE
  8
0
 10
49.4739
 20
25.8582
 11
49.563
 21
25.7092
  0
LINE
  8
0
 10
49.563
 20
25.7092
 11
49.6375
 21
25.5518
  0
LINE
  8
0
 10
49.6375
 20
25.5518
 11
49.696
 21
25.3882
  0
LINE
  8
0
 10
49.696
 20
25.3882
 11
49.7388
 21
25.2191
  0
LINE
  8
0
 10
49.7388
 20
25.2191
 11
49.7644
 21
25.047
  0
LINE
  8
0
 10
49.7644
 20
25.047
 11
49.7723
 21
24.8737
  0
LINE
  8
0
 10
49.7723
 20
24.8737
 11
49.7638
 21
24.6991
  0
LINE
  8
0
 10
49.7638
 20
24.6991
 11
49.7382
 21
24.527
  0
LINE
  8
0
 10
49.7382
 20
24.527
 11
49.696
 21
24.3591
  0
LINE
  8
0
 10
49.696
 20
24.3591
 11
49.6375
 21
24.1949
  0
LINE
  8
0
 10
49.6375
 20
24.1949
 11
49.563
 21
24.0375
  0
LINE
  8
0
 10
49.563
 20
24.0375
 11
49.4733
 21
23.8879
  0
LINE
  8
0
 10
49.4733
 20
23.8879
 11
49.3701
 21
23.7488
  0
LINE
  8
0
 10
49.3701
 20
23.7488
 11
49.2529
 21
23.6194
  0
LINE
  8
0
 10
49.2529
 20
23.6194
 11
49.1241
 21
23.5028
  0
LINE
  8
0
 10
49.1241
 20
23.5028
 11
48.985
 21
23.3997
  0
LINE
  8
0
 10
48.985
 20
23.3997
 11
48.8354
 21
23.3099
  0
LINE
  8
0
 10
48.8354
 20
23.3099
 11
48.678
 21
23.2355
  0
LINE
  8
0
 10
48.678
 20
23.2355
 11
48.5144
 21
23.1769
  0
LINE
  8
0
 10
48.5144
 20
23.1769
 11
48.3447
 21
23.1348
  0
LINE
  8
0
 10
48.3447
 20
23.1348
 11
48.1732
 21
23.1091
  0
LINE
  8
0
 10
48.1732
 20
23.1091
 11
47.9999
 21
23.1006
  0
LINE
  8
0
 10
47.9999
 20
23.1006
 11
47.8259
 21
23.1097
  0
LINE
  8
0
 10
15.8258
 20
23.1097
 11
15.6537
 21
23.1348
  0
LINE
  8
0
 10
15.6537
 20
23.1348
 11
15.4852
 21
23.1769
  0
LINE
  8
0
 10
15.4852
 20
23.1769
 11
15.3217
 21
23.2355
  0
LINE
  8
0
 10
15.3217
 20
23.2355
 11
15.1642
 21
23.3099
  0
LINE
  8
0
 10
15.1642
 20
23.3099
 11
15.0146
 21
23.3997
  0
LINE
  8
0
 10
15.0146
 20
23.3997
 11
14.8755
 21
23.5028
  0
LINE
  8
0
 10
14.8755
 20
23.5028
 11
14.7461
 21
23.62
  0
LINE
  8
0
 10
14.7461
 20
23.62
 11
14.6295
 21
23.7488
  0
LINE
  8
0
 10
14.6295
 20
23.7488
 11
14.5258
 21
23.8885
  0
LINE
  8
0
 10
14.5258
 20
23.8885
 11
14.4366
 21
24.0375
  0
LINE
  8
0
 10
14.4366
 20
24.0375
 11
14.3622
 21
24.1956
  0
LINE
  8
0
 10
14.3622
 20
24.1956
 11
14.3036
 21
24.3591
  0
LINE
  8
0
 10
14.3036
 20
24.3591
 11
14.2609
 21
24.5282
  0
LINE
  8
0
 10
14.2609
 20
24.5282
 11
14.2352
 21
24.6997
  0
LINE
  8
0
 10
14.2352
 20
24.6997
 11
14.2273
 21
24.8737
  0
LINE
  8
0
 10
14.2273
 20
24.8737
 11
14.2358
 21
25.0476
  0
LINE
  8
0
 10
14.2358
 20
25.0476
 11
14.2615
 21
25.2203
  0
LINE
  8
0
 10
14.2615
 20
25.2203
 11
14.3036
 21
25.3882
  0
LINE
  8
0
 10
14.3036
 20
25.3882
 11
14.3622
 21
25.5518
  0
LINE
  8
0
 10
14.3622
 20
25.5518
 11
14.4366
 21
25.7092
  0
LINE
  8
0
 10
14.4366
 20
25.7092
 11
14.5258
 21
25.8582
  0
LINE
  8
0
 10
14.5258
 20
25.8582
 11
14.6295
 21
25.9985
  0
LINE
  8
0
 10
14.6295
 20
25.9985
 11
14.7461
 21
26.1267
  0
LINE
  8
0
 10
14.7461
 20
26.1267
 11
14.8755
 21
26.2439
  0
LINE
  8
0
 10
14.8755
 20
26.2439
 11
15.0146
 21
26.347
  0
LINE
  8
0
 10
15.0146
 20
26.347
 11
15.1642
 21
26.4368
  0
LINE
  8
0
 10
15.1642
 20
26.4368
 11
15.3217
 21
26.5112
  0
LINE
  8
0
 10
15.3217
 20
26.5112
 11
15.4852
 21
26.5704
  0
LINE
  8
0
 10
15.4852
 20
26.5704
 11
15.6549
 21
26.6125
  0
LINE
  8
0
 10
15.6549
 20
26.6125
 11
15.8264
 21
26.6382
  0
LINE
  8
0
 10
15.8264
 20
26.6382
 11
15.9998
 21
26.6467
  0
LINE
  8
0
 10
15.9998
 20
26.6467
 11
16.1737
 21
26.6376
  0
LINE
  8
0
 10
16.1737
 20
26.6376
 11
16.3458
 21
26.6125
  0
LINE
  8
0
 10
16.3458
 20
26.6125
 11
16.5143
 21
26.5704
  0
LINE
  8
0
 10
16.5143
 20
26.5704
 11
16.6779
 21
26.5112
  0
LINE
  8
0
 10
16.6779
 20
26.5112
 11
16.8353
 21
26.4368
  0
LINE
  8
0
 10
16.8353
 20
26.4368
 11
16.9849
 21
26.347
  0
LINE
  8
0
 10
16.9849
 20
26.347
 11
17.124
 21
26.2439
  0
LINE
  8
0
 10
17.124
 20
26.2439
 11
17.2534
 21
26.1267
  0
LINE
  8
0
 10
17.2534
 20
26.1267
 11
17.37
 21
25.9985
  0
LINE
  8
0
 10
17.37
 20
25.9985
 11
17.4738
 21
25.8582
  0
LINE
  8
0
 10
17.4738
 20
25.8582
 11
17.5629
 21
25.7092
  0
LINE
  8
0
 10
17.5629
 20
25.7092
 11
17.6373
 21
25.5518
  0
LINE
  8
0
 10
17.6373
 20
25.5518
 11
17.6959
 21
25.3882
  0
LINE
  8
0
 10
17.6959
 20
25.3882
 11
17.7386
 21
25.2191
  0
LINE
  8
0
 10
17.7386
 20
25.2191
 11
17.7643
 21
25.047
  0
LINE
  8
0
 10
17.7643
 20
25.047
 11
17.7722
 21
24.8737
  0
LINE
  8
0
 10
17.7722
 20
24.8737
 11
17.7637
 21
24.6991
  0
LINE
  8
0
 10
17.7637
 20
24.6991
 11
17.738
 21
24.527
  0
LINE
  8
0
 10
17.738
 20
24.527
 11
17.6959
 21
24.3591
  0
LINE
  8
0
 10
17.6959
 20
24.3591
 11
17.6373
 21
24.1949
  0
LINE
  8
0
 10
17.6373
 20
24.1949
 11
17.5629
 21
24.0375
  0
LINE
  8
0
 10
17.5629
 20
24.0375
 11
17.4731
 21
23.8879
  0
LINE
  8
0
 10
17.4731
 20
23.8879
 11
17.37
 21
23.7488
  0
LINE
  8
0
 10
17.37
 20
23.7488
 11
17.2528
 21
23.6194
  0
LINE
  8
0
 10
17.2528
 20
23.6194
 11
17.124
 21
23.5028
  0
LINE
  8
0
 10
17.124
 20
23.5028
 11
16.9849
 21
23.3997
  0
LINE
  8
0
 10
16.9849
 20
23.3997
 11
16.8353
 21
23.3099
  0
LINE
  8
0
 10
16.8353
 20
23.3099
 11
16.6779
 21
23.2355
  0
LINE
  8
0
 10
16.6779
 20
23.2355
 11
16.5143
 21
23.1769
  0
LINE
  8
0
 10
16.5143
 20
23.1769
 11
16.3446
 21
23.1348
  0
LINE
  8
0
 10
16.3446
 20
23.1348
 11
16.1731
 21
23.1091
  0
LINE
  8
0
 10
16.1731
 20
23.1091
 11
15.9998
 21
23.1006
  0
LINE
  8
0
 10
15.9998
 20
23.1006
 11
15.8258
 21
23.1097
  0
LINE
  8
0
 10
56.4313
 20
12
 11
56.1853
 21
12.4304
  0
LINE
  8
0
 10
56.1853
 20
12.4304
 11
55.2417
 21
14.3597
  0
LINE
  8
0
 10
55.2417
 20
14.3597
 11
54.4891
 21
16.2378
  0
LINE
  8
0
 10
54.4891
 20
16.2378
 11
53.927
 21
18.0634
  0
LINE
  8
0
 10
53.927
 20
18.0634
 11
53.5553
 21
19.8364
  0
LINE
  8
0
 10
53.5553
 20
19.8364
 11
53.3734
 21
21.5576
  0
LINE
  8
0
 10
53.3734
 20
21.5576
 11
53.382
 21
23.2281
  0
LINE
  8
0
 10
53.382
 20
23.2281
 11
53.5809
 21
24.845
  0
LINE
  8
0
 10
53.5809
 20
24.845
 11
53.8966
 21
26.1169
  0
LINE
  8
0
 10
53.8966
 20
26.1169
 11
58.4834
 21
12
  0
LINE
  8
0
 10
58.4834
 20
12
 11
56.4313
 21
12
  0
LINE
  8
0
 10
-58.4834
 20
12
 11
-53.8966
 21
26.1167
  0
LINE
  8
0
 10
-53.8966
 20
26.1167
 11
-53.5809
 21
24.845
  0
LINE
  8
0
 10
-53.5809
 20
24.845
 11
-53.382
 21
23.2269
  0
LINE
  8
0
 10
-53.382
 20
23.2269
 11
-53.3734
 21
21.5564
  0
LINE
  8
0
 10
-53.3734
 20
21.5564
 11
-53.5553
 21
19.8364
  0
LINE
  8
0
 10
-53.5553
 20
19.8364
 11
-53.927
 21
18.0627
  0
LINE
  8
0
 10
-53.927
 20
18.0627
 11
-54.4891
 21
16.2372
  0
LINE
  8
0
 10
-54.4891
 20
16.2372
 11
-55.2417
 21
14.3591
  0
LINE
  8
0
 10
-55.2417
 20
14.3591
 11
-56.1853
 21
12.4304
  0
LINE
  8
0
 10
-56.1853
 20
12.4304
 11
-56.4314
 21
12
  0
LINE
  8
0
 10
-56.4314
 20
12
 11
-58.4834
 21
12
  0
LINE
  8
0
 10
-52.6568
 20
12
 11
-47.9999
 21
17.4744
  0
LINE
  8
0
 10
-47.9999
 20
17.4744
 11
-43.343
 21
12
  0
LINE
  8
0
 10
-43.343
 20
12
 11
-52.6568
 21
12
  0
LINE
  8
0
 10
-20.6567
 20
12
 11
-15.9998
 21
17.4744
  0
LINE
  8
0
 10
-15.9998
 20
17.4744
 11
-11.3429
 21
12
  0
LINE
  8
0
 10
-11.3429
 20
12
 11
-20.6567
 21
12
  0
LINE
  8
0
 10
43.3429
 20
12
 11
47.9999
 21
17.4744
  0
LINE
  8
0
 10
47.9999
 20
17.4744
 11
52.6568
 21
12
  0
LINE
  8
0
 10
52.6568
 20
12
 11
43.3429
 21
12
  0
LINE
  8
0
 10
11.3428
 20
12
 11
15.9998
 21
17.4744
  0
LINE
  8
0
 10
15.9998
 20
17.4744
 11
20.6566
 21
12
  0
LINE
  8
0
 10
20.6566
 20
12
 11
11.3428
 21
12
  0
LINE
  8
0
 10
-10
 20
7
 11
-10
 21
11
  0
LINE
  8
0
 10
-10
 20
11
 11
10
 21
11
  0
LINE
  8
0
 10
10
 20
11
 11
10
 21
7
  0
LINE
  8
0
 10
10
 20
7
 11
-10
 21
7
  0
LINE
  8
0
 10
-68.6534
 20
2.70622
 11
-68.7785
 21
2.71805
  0
LINE
  8
0
 10
-68.7785
 20
2.71805
 11
-68.9026
 21
2.7377
  0
LINE
  8
0
 10
-68.9026
 20
2.7377
 11
-69.0252
 21
2.76511
  0
LINE
  8
0
 10
-69.0252
 20
2.76511
 11
-69.1459
 21
2.80016
  0
LINE
  8
0
 10
-69.1459
 20
2.80016
 11
-69.2641
 21
2.84273
  0
LINE
  8
0
 10
-69.2641
 20
2.84273
 11
-69.3794
 21
2.89262
  0
LINE
  8
0
 10
-69.3794
 20
2.89262
 11
-69.4914
 21
2.94966
  0
LINE
  8
0
 10
-69.4914
 20
2.94966
 11
-69.5995
 21
3.01363
  0
LINE
  8
0
 10
-69.5995
 20
3.01363
 11
-69.7034
 21
3.08424
  0
LINE
  8
0
 10
-69.7034
 20
3.08424
 11
-69.8027
 21
3.16125
  0
LINE
  8
0
 10
-69.8027
 20
3.16125
 11
-69.897
 21
3.24434
  0
LINE
  8
0
 10
-69.897
 20
3.24434
 11
-69.9858
 21
3.33318
  0
LINE
  8
0
 10
-69.9858
 20
3.33318
 11
-70.0689
 21
3.42743
  0
LINE
  8
0
 10
-70.0689
 20
3.42743
 11
-70.1459
 21
3.5267
  0
LINE
  8
0
 10
-70.1459
 20
3.5267
 11
-70.2165
 21
3.63062
  0
LINE
  8
0
 10
-70.2165
 20
3.63062
 11
-70.2805
 21
3.73877
  0
LINE
  8
0
 10
-70.2805
 20
3.73877
 11
-70.3375
 21
3.85072
  0
LINE
  8
0
 10
-70.3375
 20
3.85072
 11
-70.3874
 21
3.96602
  0
LINE
  8
0
 10
-70.3874
 20
3.96602
 11
-70.43
 21
4.08424
  0
LINE
  8
0
 10
-70.43
 20
4.08424
 11
-70.465
 21
4.2049
  0
LINE
  8
0
 10
-70.465
 20
4.2049
 11
-70.4924
 21
4.32751
  0
LINE
  8
0
 10
-70.4924
 20
4.32751
 11
-70.5121
 21
4.45161
  0
LINE
  8
0
 10
-70.5121
 20
4.45161
 11
-70.5239
 21
4.57669
  0
LINE
  8
0
 10
-70.5239
 20
4.57669
 11
-70.5279
 21
4.70227
  0
LINE
  8
0
 10
-70.5279
 20
4.70227
 11
-70.5239
 21
4.82785
  0
LINE
  8
0
 10
-70.5239
 20
4.82785
 11
-70.5121
 21
4.95294
  0
LINE
  8
0
 10
-70.5121
 20
4.95294
 11
-70.4924
 21
5.07704
  0
LINE
  8
0
 10
-70.4924
 20
5.07704
 11
-70.465
 21
5.19966
  0
LINE
  8
0
 10
-70.465
 20
5.19966
 11
-70.43
 21
5.32031
  0
LINE
  8
0
 10
-70.43
 20
5.32031
 11
-70.3874
 21
5.43852
  0
LINE
  8
0
 10
-70.3874
 20
5.43852
 11
-70.3375
 21
5.55383
  0
LINE
  8
0
 10
-70.3375
 20
5.55383
 11
-70.2805
 21
5.66579
  0
LINE
  8
0
 10
-70.2805
 20
5.66579
 11
-70.2165
 21
5.77393
  0
LINE
  8
0
 10
-70.2165
 20
5.77393
 11
-70.1459
 21
5.87784
  0
LINE
  8
0
 10
-70.1459
 20
5.87784
 11
-70.0689
 21
5.97713
  0
LINE
  8
0
 10
-70.0689
 20
5.97713
 11
-69.9858
 21
6.07137
  0
LINE
  8
0
 10
-69.9858
 20
6.07137
 11
-69.897
 21
6.16022
  0
LINE
  8
0
 10
-69.897
 20
6.16022
 11
-69.8027
 21
6.2433
  0
LINE
  8
0
 10
-69.8027
 20
6.2433
 11
-69.7034
 21
6.32031
  0
LINE
  8
0
 10
-69.7034
 20
6.32031
 11
-69.5995
 21
6.39093
  0
LINE
  8
0
 10
-69.5995
 20
6.39093
 11
-69.4914
 21
6.4549
  0
LINE
  8
0
 10
-69.4914
 20
6.4549
 11
-69.3794
 21
6.51193
  0
LINE
  8
0
 10
-69.3794
 20
6.51193
 11
-69.2641
 21
6.56183
  0
LINE
  8
0
 10
-69.2641
 20
6.56183
 11
-69.1459
 21
6.60439
  0
LINE
  8
0
 10
-69.1459
 20
6.60439
 11
-69.0252
 21
6.63943
  0
LINE
  8
0
 10
-69.0252
 20
6.63943
 11
-68.9026
 21
6.66685
  0
LINE
  8
0
 10
-68.9026
 20
6.66685
 11
-68.7785
 21
6.68651
  0
LINE
  8
0
 10
-68.7785
 20
6.68651
 11
-68.6534
 21
6.69833
  0
LINE
  8
0
 10
-68.6534
 20
6.69833
 11
-68.5279
 21
6.70227
  0
LINE
  8
0
 10
-68.5279
 20
6.70227
 11
-68.4023
 21
6.69833
  0
LINE
  8
0
 10
-68.4023
 20
6.69833
 11
-68.2772
 21
6.68651
  0
LINE
  8
0
 10
-68.2772
 20
6.68651
 11
-68.1531
 21
6.66685
  0
LINE
  8
0
 10
-68.1531
 20
6.66685
 11
-68.0305
 21
6.63943
  0
LINE
  8
0
 10
-68.0305
 20
6.63943
 11
-67.9098
 21
6.60439
  0
LINE
  8
0
 10
-67.9098
 20
6.60439
 11
-67.7916
 21
6.56183
  0
LINE
  8
0
 10
-67.7916
 20
6.56183
 11
-67.6763
 21
6.51193
  0
LINE
  8
0
 10
-67.6763
 20
6.51193
 11
-67.5643
 21
6.4549
  0
LINE
  8
0
 10
-67.5643
 20
6.4549
 11
-67.4562
 21
6.39093
  0
LINE
  8
0
 10
-67.4562
 20
6.39093
 11
-67.3523
 21
6.32031
  0
LINE
  8
0
 10
-67.3523
 20
6.32031
 11
-67.253
 21
6.2433
  0
LINE
  8
0
 10
-67.253
 20
6.2433
 11
-67.1588
 21
6.16022
  0
LINE
  8
0
 10
-67.1588
 20
6.16022
 11
-67.0699
 21
6.07137
  0
LINE
  8
0
 10
-67.0699
 20
6.07137
 11
-66.9868
 21
5.97713
  0
LINE
  8
0
 10
-66.9868
 20
5.97713
 11
-66.9098
 21
5.87784
  0
LINE
  8
0
 10
-66.9098
 20
5.87784
 11
-66.8392
 21
5.77393
  0
LINE
  8
0
 10
-66.8392
 20
5.77393
 11
-66.7752
 21
5.66579
  0
LINE
  8
0
 10
-66.7752
 20
5.66579
 11
-66.7182
 21
5.55383
  0
LINE
  8
0
 10
-66.7182
 20
5.55383
 11
-66.6683
 21
5.43852
  0
LINE
  8
0
 10
-66.6683
 20
5.43852
 11
-66.6257
 21
5.32031
  0
LINE
  8
0
 10
-66.6257
 20
5.32031
 11
-66.5907
 21
5.19966
  0
LINE
  8
0
 10
-66.5907
 20
5.19966
 11
-66.5633
 21
5.07704
  0
LINE
  8
0
 10
-66.5633
 20
5.07704
 11
-66.5436
 21
4.95294
  0
LINE
  8
0
 10
-66.5436
 20
4.95294
 11
-66.5318
 21
4.82785
  0
LINE
  8
0
 10
-66.5318
 20
4.82785
 11
-66.5279
 21
4.70227
  0
LINE
  8
0
 10
-66.5279
 20
4.70227
 11
-66.5318
 21
4.57669
  0
LINE
  8
0
 10
-66.5318
 20
4.57669
 11
-66.5436
 21
4.45161
  0
LINE
  8
0
 10
-66.5436
 20
4.45161
 11
-66.5633
 21
4.32751
  0
LINE
  8
0
 10
-66.5633
 20
4.32751
 11
-66.5907
 21
4.2049
  0
LINE
  8
0
 10
-66.5907
 20
4.2049
 11
-66.6257
 21
4.08424
  0
LINE
  8
0
 10
-66.6257
 20
4.08424
 11
-66.6683
 21
3.96602
  0
LINE
  8
0
 10
-66.6683
 20
3.96602
 11
-66.7182
 21
3.85072
  0
LINE
  8
0
 10
-66.7182
 20
3.85072
 11
-66.7752
 21
3.73877
  0
LINE
  8
0
 10
-66.7752
 20
3.73877
 11
-66.8392
 21
3.63062
  0
LINE
  8
0
 10
-66.8392
 20
3.63062
 11
-66.9098
 21
3.5267
  0
LINE
  8
0
 10
-66.9098
 20
3.5267
 11
-66.9868
 21
3.42743
  0
LINE
  8
0
 10
-66.9868
 20
3.42743
 11
-67.0699
 21
3.33318
  0
LINE
  8
0
 10
-67.0699
 20
3.33318
 11
-67.1588
 21
3.24434
  0
LINE
  8
0
 10
-67.1588
 20
3.24434
 11
-67.253
 21
3.16125
  0
LINE
  8
0
 10
-67.253
 20
3.16125
 11
-67.3523
 21
3.08424
  0
LINE
  8
0
 10
-67.3523
 20
3.08424
 11
-67.4562
 21
3.01363
  0
LINE
  8
0
 10
-67.4562
 20
3.01363
 11
-67.5643
 21
2.94966
  0
LINE
  8
0
 10
-67.5643
 20
2.94966
 11
-67.6763
 21
2.89262
  0
LINE
  8
0
 10
-67.6763
 20
2.89262
 11
-67.7916
 21
2.84273
  0
LINE
  8
0
 10
-67.7916
 20
2.84273
 11
-67.9098
 21
2.80016
  0
LINE
  8
0
 10
-67.9098
 20
2.80016
 11
-68.0305
 21
2.76511
  0
LINE
  8
0
 10
-68.0305
 20
2.76511
 11
-68.1531
 21
2.7377
  0
LINE
  8
0
 10
-68.1531
 20
2.7377
 11
-68.2772
 21
2.71805
  0
LINE
  8
0
 10
-68.2772
 20
2.71805
 11
-68.4023
 21
2.70622
  0
LINE
  8
0
 10
-68.4023
 20
2.70622
 11
-68.5279
 21
2.70227
  0
LINE
  8
0
 10
-68.5279
 20
2.70227
 11
-68.6534
 21
2.70622
  0
LINE
  8
0
 10
68.4023
 20
2.70622
 11
68.2772
 21
2.71805
  0
LINE
  8
0
 10
68.2772
 20
2.71805
 11
68.1531
 21
2.7377
  0
LINE
  8
0
 10
68.1531
 20
2.7377
 11
68.0305
 21
2.76511
  0
LINE
  8
0
 10
68.0305
 20
2.76511
 11
67.9098
 21
2.80016
  0
LINE
  8
0
 10
67.9098
 20
2.80016
 11
67.7916
 21
2.84273
  0
LINE
  8
0
 10
67.7916
 20
2.84273
 11
67.6763
 21
2.89262
  0
LINE
  8
0
 10
67.6763
 20
2.89262
 11
67.5643
 21
2.94966
  0
LINE
  8
0
 10
67.5643
 20
2.94966
 11
67.4562
 21
3.01363
  0
LINE
  8
0
 10
67.4562
 20
3.01363
 11
67.3523
 21
3.08424
  0
LINE
  8
0
 10
67.3523
 20
3.08424
 11
67.253
 21
3.16125
  0
LINE
  8
0
 10
67.253
 20
3.16125
 11
67.1588
 21
3.24434
  0
LINE
  8
0
 10
67.1588
 20
3.24434
 11
67.0699
 21
3.33318
  0
LINE
  8
0
 10
67.0699
 20
3.33318
 11
66.9868
 21
3.42743
  0
LINE
  8
0
 10
66.9868
 20
3.42743
 11
66.9098
 21
3.5267
  0
LINE
  8
0
 10
66.9098
 20
3.5267
 11
66.8392
 21
3.63062
  0
LINE
  8
0
 10
66.8392
 20
3.63062
 11
66.7752
 21
3.73877
  0
LINE
  8
0
 10
66.7752
 20
3.73877
 11
66.7182
 21
3.85072
  0
LINE
  8
0
 10
66.7182
 20
3.85072
 11
66.6683
 21
3.96602
  0
LINE
  8
0
 10
66.6683
 20
3.96602
 11
66.6257
 21
4.08424
  0
LINE
  8
0
 10
66.6257
 20
4.08424
 11
66.5907
 21
4.2049
  0
LINE
  8
0
 10
66.5907
 20
4.2049
 11
66.5633
 21
4.32751
  0
LINE
  8
0
 10
66.5633
 20
4.32751
 11
66.5436
 21
4.45161
  0
LINE
  8
0
 10
66.5436
 20
4.45161
 11
66.5318
 21
4.57669
  0
LINE
  8
0
 10
66.5318
 20
4.57669
 11
66.5279
 21
4.70227
  0
LINE
  8
0
 10
66.5279
 20
4.70227
 11
66.5318
 21
4.82785
  0
LINE
  8
0
 10
66.5318
 20
4.82785
 11
66.5436
 21
4.95294
  0
LINE
  8
0
 10
66.5436
 20
4.95294
 11
66.5633
 21
5.07704
  0
LINE
  8
0
 10
66.5633
 20
5.07704
 11
66.5907
 21
5.19966
  0
LINE
  8
0
 10
66.5907
 20
5.19966
 11
66.6257
 21
5.32031
  0
LINE
  8
0
 10
66.6257
 20
5.32031
 11
66.6683
 21
5.43852
  0
LINE
  8
0
 10
66.6683
 20
5.43852
 11
66.7182
 21
5.55383
  0
LINE
  8
0
 10
66.7182
 20
5.55383
 11
66.7752
 21
5.66579
  0
LINE
  8
0
 10
66.7752
 20
5.66579
 11
66.8392
 21
5.77393
  0
LINE
  8
0
 10
66.8392
 20
5.77393
 11
66.9098
 21
5.87784
  0
LINE
  8
0
 10
66.9098
 20
5.87784
 11
66.9868
 21
5.97713
  0
LINE
  8
0
 10
66.9868
 20
5.97713
 11
67.0699
 21
6.07137
  0
LINE
  8
0
 10
67.0699
 20
6.07137
 11
67.1588
 21
6.16022
  0
LINE
  8
0
 10
67.1588
 20
6.16022
 11
67.253
 21
6.2433
  0
LINE
  8
0
 10
67.253
 20
6.2433
 11
67.3523
 21
6.32031
  0
LINE
  8
0
 10
67.3523
 20
6.32031
 11
67.4562
 21
6.39093
  0
LINE
  8
0
 10
67.4562
 20
6.39093
 11
67.5643
 21
6.4549
  0
LINE
  8
0
 10
67.5643
 20
6.4549
 11
67.6763
 21
6.51193
  0
LINE
  8
0
 10
67.6763
 20
6.51193
 11
67.7916
 21
6.56183
  0
LINE
  8
0
 10
67.7916
 20
6.56183
 11
67.9098
 21
6.60439
  0
LINE
  8
0
 10
67.9098
 20
6.60439
 11
68.0305
 21
6.63943
  0
LINE
  8
0
 10
68.0305
 20
6.63943
 11
68.1531
 21
6.66685
  0
LINE
  8
0
 10
68.1531
 20
6.66685
 11
68.2772
 21
6.68651
  0
LINE
  8
0
 10
68.2772
 20
6.68651
 11
68.4023
 21
6.69833
  0
LINE
  8
0
 10
68.4023
 20
6.69833
 11
68.5279
 21
6.70227
  0
LINE
  8
0
 10
68.5279
 20
6.70227
 11
68.6534
 21
6.69833
  0
LINE
  8
0
 10
68.6534
 20
6.69833
 11
68.7785
 21
6.68651
  0
LINE
  8
0
 10
68.7785
 20
6.68651
 11
68.9026
 21
6.66685
  0
LINE
  8
0
 10
68.9026
 20
6.66685
 11
69.0252
 21
6.63943
  0
LINE
  8
0
 10
69.0252
 20
6.63943
 11
69.1459
 21
6.60439
  0
LINE
  8
0
 10
69.1459
 20
6.60439
 11
69.2641
 21
6.56183
  0
LINE
  8
0
 10
69.2641
 20
6.56183
 11
69.3794
 21
6.51193
  0
LINE
  8
0
 10
69.3794
 20
6.51193
 11
69.4914
 21
6.4549
  0
LINE
  8
0
 10
69.4914
 20
6.4549
 11
69.5995
 21
6.39093
  0
LINE
  8
0
 10
69.5995
 20
6.39093
 11
69.7034
 21
6.32031
  0
LINE
  8
0
 10
69.7034
 20
6.32031
 11
69.8027
 21
6.2433
  0
LINE
  8
0
 10
69.8027
 20
6.2433
 11
69.897
 21
6.16022
  0
LINE
  8
0
 10
69.897
 20
6.16022
 11
69.9858
 21
6.07137
  0
LINE
  8
0
 10
69.9858
 20
6.07137
 11
70.0689
 21
5.97713
  0
LINE
  8
0
 10
70.0689
 20
5.97713
 11
70.1459
 21
5.87784
  0
LINE
  8
0
 10
70.1459
 20
5.87784
 11
70.2165
 21
5.77393
  0
LINE
  8
0
 10
70.2165
 20
5.77393
 11
70.2805
 21
5.66579
  0
LINE
  8
0
 10
70.2805
 20
5.66579
 11
70.3375
 21
5.55383
  0
LINE
  8
0
 10
70.3375
 20
5.55383
 11
70.3874
 21
5.43852
  0
LINE
  8
0
 10
70.3874
 20
5.43852
 11
70.43
 21
5.32031
  0
LINE
  8
0
 10
70.43
 20
5.32031
 11
70.465
 21
5.19966
  0
LINE
  8
0
 10
70.465
 20
5.19966
 11
70.4924
 21
5.07704
  0
LINE
  8
0
 10
70.4924
 20
5.07704
 11
70.5121
 21
4.95294
  0
LINE
  8
0
 10
70.5121
 20
4.95294
 11
70.5239
 21
4.82785
  0
LINE
  8
0
 10
70.5239
 20
4.82785
 11
70.5279
 21
4.70227
  0
LINE
  8
0
 10
70.5279
 20
4.70227
 11
70.5239
 21
4.57669
  0
LINE
  8
0
 10
70.5239
 20
4.57669
 11
70.5121
 21
4.45161
  0
LINE
  8
0
 10
70.5121
 20
4.45161
 11
70.4924
 21
4.32751
  0
LINE
  8
0
 10
70.4924
 20
4.32751
 11
70.465
 21
4.2049
  0
LINE
  8
0
 10
70.465
 20
4.2049
 11
70.43
 21
4.08424
  0
LINE
  8
0
 10
70.43
 20
4.08424
 11
70.3874
 21
3.96602
  0
LINE
  8
0
 10
70.3874
 20
3.96602
 11
70.3375
 21
3.85072
  0
LINE
  8
0
 10
70.3375
 20
3.85072
 11
70.2805
 21
3.73877
  0
LINE
  8
0
 10
70.2805
 20
3.73877
 11
70.2165
 21
3.63062
  0
LINE
  8
0
 10
70.2165
 20
3.63062
 11
70.1459
 21
3.5267
  0
LINE
  8
0
 10
70.1459
 20
3.5267
 11
70.0689
 21
3.42743
  0
LINE
  8
0
 10
70.0689
 20
3.42743
 11
69.9858
 21
3.33318
  0
LINE
  8
0
 10
69.9858
 20
3.33318
 11
69.897
 21
3.24434
  0
LINE
  8
0
 10
69.897
 20
3.24434
 11
69.8027
 21
3.16125
  0
LINE
  8
0
 10
69.8027
 20
3.16125
 11
69.7034
 21
3.08424
  0
LINE
  8
0
 10
69.7034
 20
3.08424
 11
69.5995
 21
3.01363
  0
LINE
  8
0
 10
69.5995
 20
3.01363
 11
69.4914
 21
2.94966
  0
LINE
  8
0
 10
69.4914
 20
2.94966
 11
69.3794
 21
2.89262
  0
LINE
  8
0
 10
69.3794
 20
2.89262
 11
69.2641
 21
2.84273
  0
LINE
  8
0
 10
69.2641
 20
2.84273
 11
69.1459
 21
2.80016
  0
LINE
  8
0
 10
69.1459
 20
2.80016
 11
69.0252
 21
2.76511
  0
LINE
  8
0
 10
69.0252
 20
2.76511
 11
68.9026
 21
2.7377
  0
LINE
  8
0
 10
68.9026
 20
2.7377
 11
68.7785
 21
2.71805
  0
LINE
  8
0
 10
68.7785
 20
2.71805
 11
68.6534
 21
2.70622
  0
LINE
  8
0
 10
68.6534
 20
2.70622
 11
68.5279
 21
2.70227
  0
LINE
  8
0
 10
68.5279
 20
2.70227
 11
68.4023
 21
2.70622
  0
ENDSEC
  0
SECTION
  2
OBJECTS
  0
DICTIONARY
  0
ENDSEC
  0
EOF
