  0
SECTION
  2
BLOCKS
  0
ENDSEC
  0
SECTION
  2
ENTITIES
  0
LINE
  8
0
 10
0
 20
230.826
 11
-75
 21
0
  0
LINE
  8
0
 10
-75
 20
0
 11
75
 21
0
  0
LINE
  8
0
 10
75
 20
0
 11
0
 21
230.826
  0
LINE
  8
0
 10
-0.12558
 20
212.83
 11
-0.250656
 21
212.842
  0
LINE
  8
0
 10
-0.250656
 20
212.842
 11
-0.374756
 21
212.862
  0
LINE
  8
0
 10
-0.374756
 20
212.862
 11
-0.497375
 21
212.889
  0
LINE
  8
0
 10
-0.497375
 20
212.889
 11
-0.618027
 21
212.924
  0
LINE
  8
0
 10
-0.618027
 20
212.924
 11
-0.736237
 21
212.967
  0
LINE
  8
0
 10
-0.736237
 20
212.967
 11
-0.851547
 21
213.017
  0
LINE
  8
0
 10
-0.851547
 20
213.017
 11
-0.963501
 21
213.074
  0
LINE
  8
0
 10
-0.963501
 20
213.074
 11
-1.07164
 21
213.138
  0
LINE
  8
0
 10
-1.07164
 20
213.138
 11
-1.17557
 21
213.208
  0
LINE
  8
0
 10
-1.17557
 20
213.208
 11
-1.27484
 21
213.285
  0
LINE
  8
0
 10
-1.27484
 20
213.285
 11
-1.36908
 21
213.368
  0
LINE
  8
0
 10
-1.36908
 20
213.368
 11
-1.45793
 21
213.457
  0
LINE
  8
0
 10
-1.45793
 20
213.457
 11
-1.54102
 21
213.551
  0
LINE
  8
0
 10
-1.54102
 20
213.551
 11
-1.61803
 21
213.651
  0
LINE
  8
0
 10
-1.61803
 20
213.651
 11
-1.68864
 21
213.755
  0
LINE
  8
0
 10
-1.68864
 20
213.755
 11
-1.75261
 21
213.863
  0
LINE
  8
0
 10
-1.75261
 20
213.863
 11
-1.80965
 21
213.975
  0
LINE
  8
0
 10
-1.80965
 20
213.975
 11
-1.85954
 21
214.09
  0
LINE
  8
0
 10
-1.85954
 20
214.09
 11
-1.9021
 21
214.208
  0
LINE
  8
0
 10
-1.9021
 20
214.208
 11
-1.93716
 21
214.329
  0
LINE
  8
0
 10
-1.93716
 20
214.329
 11
-1.96457
 21
214.451
  0
LINE
  8
0
 10
-1.96457
 20
214.451
 11
-1.98422
 21
214.576
  0
LINE
  8
0
 10
-1.98422
 20
214.576
 11
-1.99605
 21
214.701
  0
LINE
  8
0
 10
-1.99605
 20
214.701
 11
-2
 21
214.826
  0
LINE
  8
0
 10
-2
 20
214.826
 11
-1.99605
 21
214.952
  0
LINE
  8
0
 10
-1.99605
 20
214.952
 11
-1.98422
 21
215.077
  0
LINE
  8
0
 10
-1.98422
 20
215.077
 11
-1.96457
 21
215.201
  0
LINE
  8
0
 10
-1.96457
 20
215.201
 11
-1.93716
 21
215.324
  0
LINE
  8
0
 10
-1.93716
 20
215.324
 11
-1.9021
 21
215.444
  0
LINE
  8
0
 10
-1.9021
 20
215.444
 11
-1.85954
 21
215.562
  0
LINE
  8
0
 10
-1.85954
 20
215.562
 11
-1.80965
 21
215.678
  0
LINE
  8
0
 10
-1.80965
 20
215.678
 11
-1.75261
 21
215.79
  0
LINE
  8
0
 10
-1.75261
 20
215.79
 11
-1.68864
 21
215.898
  0
LINE
  8
0
 10
-1.68864
 20
215.898
 11
-1.61803
 21
216.002
  0
LINE
  8
0
 10
-1.61803
 20
216.002
 11
-1.54102
 21
216.101
  0
LINE
  8
0
 10
-1.54102
 20
216.101
 11
-1.45793
 21
216.195
  0
LINE
  8
0
 10
-1.45793
 20
216.195
 11
-1.36908
 21
216.284
  0
LINE
  8
0
 10
-1.36908
 20
216.284
 11
-1.27484
 21
216.367
  0
LINE
  8
0
 10
-1.27484
 20
216.367
 11
-1.17557
 21
216.444
  0
LINE
  8
0
 10
-1.17557
 20
216.444
 11
-1.07164
 21
216.515
  0
LINE
  8
0
 10
-1.07164
 20
216.515
 11
-0.963501
 21
216.579
  0
LINE
  8
0
 10
-0.963501
 20
216.579
 11
-0.851547
 21
216.636
  0
LINE
  8
0
 10
-0.851547
 20
216.636
 11
-0.736237
 21
216.686
  0
LINE
  8
0
 10
-0.736237
 20
216.686
 11
-0.618027
 21
216.728
  0
LINE
  8
0
 10
-0.618027
 20
216.728
 11
-0.497375
 21
216.763
  0
LINE
  8
0
 10
-0.497375
 20
216.763
 11
-0.374756
 21
216.791
  0
LINE
  8
0
 10
-0.374756
 20
216.791
 11
-0.250656
 21
216.81
  0
LINE
  8
0
 10
-0.250656
 20
216.81
 11
-0.12558
 21
216.822
  0
LINE
  8
0
 10
-0.12558
 20
216.822
 11
0
 21
216.826
  0
LINE
  8
0
 10
0
 20
216.826
 11
0.12558
 21
216.822
  0
LINE
  8
0
 10
0.12558
 20
216.822
 11
0.250656
 21
216.81
  0
LINE
  8
0
 10
0.250656
 20
216.81
 11
0.374756
 21
216.791
  0
LINE
  8
0
 10
0.374756
 20
216.791
 11
0.497375
 21
216.763
  0
LINE
  8
0
 10
0.497375
 20
216.763
 11
0.618027
 21
216.728
  0
LINE
  8
0
 10
0.618027
 20
216.728
 11
0.736237
 21
216.686
  0
LINE
  8
0
 10
0.736237
 20
216.686
 11
0.851547
 21
216.636
  0
LINE
  8
0
 10
0.851547
 20
216.636
 11
0.963501
 21
216.579
  0
LINE
  8
0
 10
0.963501
 20
216.579
 11
1.07164
 21
216.515
  0
LINE
  8
0
 10
1.07164
 20
216.515
 11
1.17557
 21
216.444
  0
LINE
  8
0
 10
1.17557
 20
216.444
 11
1.27484
 21
216.367
  0
LINE
  8
0
 10
1.27484
 20
216.367
 11
1.36908
 21
216.284
  0
LINE
  8
0
 10
1.36908
 20
216.284
 11
1.45793
 21
216.195
  0
LINE
  8
0
 10
1.45793
 20
216.195
 11
1.54102
 21
216.101
  0
LINE
  8
0
 10
1.54102
 20
216.101
 11
1.61803
 21
216.002
  0
LINE
  8
0
 10
1.61803
 20
216.002
 11
1.68864
 21
215.898
  0
LINE
  8
0
 10
1.68864
 20
215.898
 11
1.75261
 21
215.79
  0
LINE
  8
0
 10
1.75261
 20
215.79
 11
1.80965
 21
215.678
  0
LINE
  8
0
 10
1.80965
 20
215.678
 11
1.85954
 21
215.562
  0
LINE
  8
0
 10
1.85954
 20
215.562
 11
1.9021
 21
215.444
  0
LINE
  8
0
 10
1.9021
 20
215.444
 11
1.93716
 21
215.324
  0
LINE
  8
0
 10
1.93716
 20
215.324
 11
1.96457
 21
215.201
  0
LINE
  8
0
 10
1.96457
 20
215.201
 11
1.98422
 21
215.077
  0
LINE
  8
0
 10
1.98422
 20
215.077
 11
1.99605
 21
214.952
  0
LINE
  8
0
 10
1.99605
 20
214.952
 11
2
 21
214.826
  0
LINE
  8
0
 10
2
 20
214.826
 11
1.99605
 21
214.701
  0
LINE
  8
0
 10
1.99605
 20
214.701
 11
1.98422
 21
214.576
  0
LINE
  8
0
 10
1.98422
 20
214.576
 11
1.96457
 21
214.451
  0
LINE
  8
0
 10
1.96457
 20
214.451
 11
1.93716
 21
214.329
  0
LINE
  8
0
 10
1.93716
 20
214.329
 11
1.9021
 21
214.208
  0
LINE
  8
0
 10
1.9021
 20
214.208
 11
1.85954
 21
214.09
  0
LINE
  8
0
 10
1.85954
 20
214.09
 11
1.80965
 21
213.975
  0
LINE
  8
0
 10
1.80965
 20
213.975
 11
1.75261
 21
213.863
  0
LINE
  8
0
 10
1.75261
 20
213.863
 11
1.68864
 21
213.755
  0
LINE
  8
0
 10
1.68864
 20
213.755
 11
1.61803
 21
213.651
  0
LINE
  8
0
 10
1.61803
 20
213.651
 11
1.54102
 21
213.551
  0
LINE
  8
0
 10
1.54102
 20
213.551
 11
1.45793
 21
213.457
  0
LINE
  8
0
 10
1.45793
 20
213.457
 11
1.36908
 21
213.368
  0
LINE
  8
0
 10
1.36908
 20
213.368
 11
1.27484
 21
213.285
  0
LINE
  8
0
 10
1.27484
 20
213.285
 11
1.17557
 21
213.208
  0
LINE
  8
0
 10
1.17557
 20
213.208
 11
1.07164
 21
213.138
  0
LINE
  8
0
 10
1.07164
 20
213.138
 11
0.963501
 21
213.074
  0
LINE
  8
0
 10
0.963501
 20
213.074
 11
0.851547
 21
213.017
  0
LINE
  8
0
 10
0.851547
 20
213.017
 11
0.736237
 21
212.967
  0
LINE
  8
0
 10
0.736237
 20
212.967
 11
0.618027
 21
212.924
  0
LINE
  8
0
 10
0.618027
 20
212.924
 11
0.497375
 21
212.889
  0
LINE
  8
0
 10
0.497375
 20
212.889
 11
0.374756
 21
212.862
  0
LINE
  8
0
 10
0.374756
 20
212.862
 11
0.250656
 21
212.842
  0
LINE
  8
0
 10
0.250656
 20
212.842
 11
0.12558
 21
212.83
  0
LINE
  8
0
 10
0.12558
 20
212.83
 11
0
 21
212.826
  0
LINE
  8
0
 10
0
 20
212.826
 11
-0.12558
 21
212.83
  0
LINE
  8
0
 10
-0.11998
 20
191.624
 11
0
 21
191.993
  0
LINE
  8
0
 10
0
 20
191.993
 11
0.11998
 21
191.624
  0
LINE
  8
0
 10
0.11998
 20
191.624
 11
0
 21
191.504
  0
LINE
  8
0
 10
0
 20
191.504
 11
-0.11998
 21
191.624
  0
LINE
  8
0
 10
-2.99194
 20
164.497
 11
-0.746613
 21
164.497
  0
LINE
  8
0
 10
-0.746613
 20
164.497
 11
-0.733795
 21
174.253
  0
LINE
  8
0
 10
-0.733795
 20
174.253
 11
-5.76425
 21
174.253
  0
LINE
  8
0
 10
-5.76425
 20
174.253
 11
-5.27876
 21
175.747
  0
LINE
  8
0
 10
-5.27876
 20
175.747
 11
-0.733795
 21
175.747
  0
LINE
  8
0
 10
-0.733795
 20
175.747
 11
-0.746613
 21
185.503
  0
LINE
  8
0
 10
-0.746613
 20
185.503
 11
-2.10875
 21
185.503
  0
LINE
  8
0
 10
-2.10875
 20
185.503
 11
-1.68356
 21
186.812
  0
LINE
  8
0
 10
-1.68356
 20
186.812
 11
0
 21
188.496
  0
LINE
  8
0
 10
0
 20
188.496
 11
1.68356
 21
186.812
  0
LINE
  8
0
 10
1.68356
 20
186.812
 11
2.10875
 21
185.503
  0
LINE
  8
0
 10
2.10875
 20
185.503
 11
0.746613
 21
185.503
  0
LINE
  8
0
 10
0.746613
 20
185.503
 11
0.733795
 21
175.747
  0
LINE
  8
0
 10
0.733795
 20
175.747
 11
5.27876
 21
175.747
  0
LINE
  8
0
 10
5.27876
 20
175.747
 11
5.76425
 21
174.253
  0
LINE
  8
0
 10
5.76425
 20
174.253
 11
0.733795
 21
174.253
  0
LINE
  8
0
 10
0.733795
 20
174.253
 11
0.746613
 21
164.497
  0
LINE
  8
0
 10
0.746613
 20
164.497
 11
2.99194
 21
164.497
  0
LINE
  8
0
 10
2.99194
 20
164.497
 11
0
 21
161.504
  0
LINE
  8
0
 10
0
 20
161.504
 11
-2.99194
 21
164.497
  0
LINE
  8
0
 10
1.50421
 20
160
 11
4.49661
 21
162.992
  0
LINE
  8
0
 10
4.49661
 20
162.992
 11
4.49661
 21
160.747
  0
LINE
  8
0
 10
4.49661
 20
160.747
 11
10.1551
 21
160.739
  0
LINE
  8
0
 10
10.1551
 20
160.739
 11
10.6353
 21
159.261
  0
LINE
  8
0
 10
10.6353
 20
159.261
 11
4.49661
 21
159.253
  0
LINE
  8
0
 10
4.49661
 20
159.253
 11
4.49661
 21
157.008
  0
LINE
  8
0
 10
4.49661
 20
157.008
 11
1.50421
 21
160
  0
LINE
  8
0
 10
-4.49661
 20
159.253
 11
-10.6353
 21
159.261
  0
LINE
  8
0
 10
-10.6353
 20
159.261
 11
-10.1551
 21
160.739
  0
LINE
  8
0
 10
-10.1551
 20
160.739
 11
-4.49661
 21
160.747
  0
LINE
  8
0
 10
-4.49661
 20
160.747
 11
-4.49661
 21
162.992
  0
LINE
  8
0
 10
-4.49661
 20
162.992
 11
-1.50421
 21
160
  0
LINE
  8
0
 10
-1.50421
 20
160
 11
-4.49661
 21
157.008
  0
LINE
  8
0
 10
-4.49661
 20
157.008
 11
-4.49661
 21
159.253
  0
LINE
  8
0
 10
-2.99194
 20
134.497
 11
-0.746613
 21
134.497
  0
LINE
  8
0
 10
-0.746613
 20
134.497
 11
-0.733795
 21
144.253
  0
LINE
  8
0
 10
-0.733795
 20
144.253
 11
-10.5029
 21
144.253
  0
LINE
  8
0
 10
-10.5029
 20
144.253
 11
-10.5029
 21
142.008
  0
LINE
  8
0
 10
-10.5029
 20
142.008
 11
-13.4953
 21
145
  0
LINE
  8
0
 10
-13.4953
 20
145
 11
-10.5029
 21
147.992
  0
LINE
  8
0
 10
-10.5029
 20
147.992
 11
-10.5029
 21
145.747
  0
LINE
  8
0
 10
-10.5029
 20
145.747
 11
-0.733795
 21
145.747
  0
LINE
  8
0
 10
-0.733795
 20
145.747
 11
-0.746613
 21
155.503
  0
LINE
  8
0
 10
-0.746613
 20
155.503
 11
-2.99194
 21
155.503
  0
LINE
  8
0
 10
-2.99194
 20
155.503
 11
0
 21
158.496
  0
LINE
  8
0
 10
0
 20
158.496
 11
2.99194
 21
155.503
  0
LINE
  8
0
 10
2.99194
 20
155.503
 11
0.746613
 21
155.503
  0
LINE
  8
0
 10
0.746613
 20
155.503
 11
0.733795
 21
145.747
  0
LINE
  8
0
 10
0.733795
 20
145.747
 11
10.5029
 21
145.747
  0
LINE
  8
0
 10
10.5029
 20
145.747
 11
10.5029
 21
147.992
  0
LINE
  8
0
 10
10.5029
 20
147.992
 11
13.4953
 21
145
  0
LINE
  8
0
 10
13.4953
 20
145
 11
10.5029
 21
142.008
  0
LINE
  8
0
 10
10.5029
 20
142.008
 11
10.5029
 21
144.253
  0
LINE
  8
0
 10
10.5029
 20
144.253
 11
0.733795
 21
144.253
  0
LINE
  8
0
 10
0.733795
 20
144.253
 11
0.746613
 21
134.497
  0
LINE
  8
0
 10
0.746613
 20
134.497
 11
2.99194
 21
134.497
  0
LINE
  8
0
 10
2.99194
 20
134.497
 11
0
 21
131.504
  0
LINE
  8
0
 10
0
 20
131.504
 11
-2.99194
 21
134.497
  0
LINE
  8
0
 10
12.0076
 20
149.497
 11
13.8079
 21
149.497
  0
LINE
  8
0
 10
13.8079
 20
149.497
 11
14.6744
 21
146.83
  0
LINE
  8
0
 10
14.6744
 20
146.83
 11
12.0076
 21
149.497
  0
LINE
  8
0
 10
-13.8079
 20
149.497
 11
-12.0076
 21
149.497
  0
LINE
  8
0
 10
-12.0076
 20
149.497
 11
-14.6744
 21
146.83
  0
LINE
  8
0
 10
-14.6744
 20
146.83
 11
-13.8079
 21
149.497
  0
LINE
  8
0
 10
12.0076
 20
119.497
 11
14.2529
 21
119.497
  0
LINE
  8
0
 10
14.2529
 20
119.497
 11
14.2529
 21
129.266
  0
LINE
  8
0
 10
14.2529
 20
129.266
 11
4.49661
 21
129.253
  0
LINE
  8
0
 10
4.49661
 20
129.253
 11
4.49661
 21
127.008
  0
LINE
  8
0
 10
4.49661
 20
127.008
 11
1.50421
 21
130
  0
LINE
  8
0
 10
1.50421
 20
130
 11
4.49661
 21
132.992
  0
LINE
  8
0
 10
4.49661
 20
132.992
 11
4.49661
 21
130.747
  0
LINE
  8
0
 10
4.49661
 20
130.747
 11
14.2529
 21
130.734
  0
LINE
  8
0
 10
14.2529
 20
130.734
 11
14.2529
 21
140.503
  0
LINE
  8
0
 10
14.2529
 20
140.503
 11
12.0076
 21
140.503
  0
LINE
  8
0
 10
12.0076
 20
140.503
 11
15
 21
143.495
  0
LINE
  8
0
 10
15
 20
143.495
 11
16.1228
 21
142.373
  0
LINE
  8
0
 10
16.1228
 20
142.373
 11
16.7303
 21
140.503
  0
LINE
  8
0
 10
16.7303
 20
140.503
 11
15.7471
 21
140.503
  0
LINE
  8
0
 10
15.7471
 20
140.503
 11
15.7471
 21
130.734
  0
LINE
  8
0
 10
15.7471
 20
130.734
 11
19.9027
 21
130.739
  0
LINE
  8
0
 10
19.9027
 20
130.739
 11
20.3833
 21
129.26
  0
LINE
  8
0
 10
20.3833
 20
129.26
 11
15.7471
 21
129.266
  0
LINE
  8
0
 10
15.7471
 20
129.266
 11
15.7471
 21
119.497
  0
LINE
  8
0
 10
15.7471
 20
119.497
 11
17.9924
 21
119.497
  0
LINE
  8
0
 10
17.9924
 20
119.497
 11
15
 21
116.505
  0
LINE
  8
0
 10
15
 20
116.505
 11
12.0076
 21
119.497
  0
LINE
  8
0
 10
-17.9924
 20
119.497
 11
-15.7471
 21
119.497
  0
LINE
  8
0
 10
-15.7471
 20
119.497
 11
-15.7471
 21
129.266
  0
LINE
  8
0
 10
-15.7471
 20
129.266
 11
-20.3833
 21
129.26
  0
LINE
  8
0
 10
-20.3833
 20
129.26
 11
-19.9027
 21
130.739
  0
LINE
  8
0
 10
-19.9027
 20
130.739
 11
-15.7471
 21
130.734
  0
LINE
  8
0
 10
-15.7471
 20
130.734
 11
-15.7471
 21
140.503
  0
LINE
  8
0
 10
-15.7471
 20
140.503
 11
-16.7303
 21
140.503
  0
LINE
  8
0
 10
-16.7303
 20
140.503
 11
-16.1228
 21
142.373
  0
LINE
  8
0
 10
-16.1228
 20
142.373
 11
-15
 21
143.495
  0
LINE
  8
0
 10
-15
 20
143.495
 11
-12.0076
 21
140.503
  0
LINE
  8
0
 10
-12.0076
 20
140.503
 11
-14.2529
 21
140.503
  0
LINE
  8
0
 10
-14.2529
 20
140.503
 11
-14.2529
 21
130.734
  0
LINE
  8
0
 10
-14.2529
 20
130.734
 11
-4.49661
 21
130.747
  0
LINE
  8
0
 10
-4.49661
 20
130.747
 11
-4.49661
 21
132.992
  0
LINE
  8
0
 10
-4.49661
 20
132.992
 11
-1.50421
 21
130
  0
LINE
  8
0
 10
-1.50421
 20
130
 11
-4.49661
 21
127.008
  0
LINE
  8
0
 10
-4.49661
 20
127.008
 11
-4.49661
 21
129.253
  0
LINE
  8
0
 10
-4.49661
 20
129.253
 11
-14.2529
 21
129.266
  0
LINE
  8
0
 10
-14.2529
 20
129.266
 11
-14.2529
 21
119.497
  0
LINE
  8
0
 10
-14.2529
 20
119.497
 11
-12.0076
 21
119.497
  0
LINE
  8
0
 10
-12.0076
 20
119.497
 11
-15
 21
116.505
  0
LINE
  8
0
 10
-15
 20
116.505
 11
-17.9924
 21
119.497
  0
LINE
  8
0
 10
-2.99194
 20
104.497
 11
-0.746613
 21
104.497
  0
LINE
  8
0
 10
-0.746613
 20
104.497
 11
-0.733795
 21
114.253
  0
LINE
  8
0
 10
-0.733795
 20
114.253
 11
-10.5029
 21
114.253
  0
LINE
  8
0
 10
-10.5029
 20
114.253
 11
-10.5029
 21
112.008
  0
LINE
  8
0
 10
-10.5029
 20
112.008
 11
-13.4953
 21
115
  0
LINE
  8
0
 10
-13.4953
 20
115
 11
-10.5029
 21
117.992
  0
LINE
  8
0
 10
-10.5029
 20
117.992
 11
-10.5029
 21
115.747
  0
LINE
  8
0
 10
-10.5029
 20
115.747
 11
-0.733795
 21
115.747
  0
LINE
  8
0
 10
-0.733795
 20
115.747
 11
-0.746613
 21
125.503
  0
LINE
  8
0
 10
-0.746613
 20
125.503
 11
-2.99194
 21
125.503
  0
LINE
  8
0
 10
-2.99194
 20
125.503
 11
0
 21
128.496
  0
LINE
  8
0
 10
0
 20
128.496
 11
2.99194
 21
125.503
  0
LINE
  8
0
 10
2.99194
 20
125.503
 11
0.746613
 21
125.503
  0
LINE
  8
0
 10
0.746613
 20
125.503
 11
0.733795
 21
115.747
  0
LINE
  8
0
 10
0.733795
 20
115.747
 11
10.5029
 21
115.747
  0
LINE
  8
0
 10
10.5029
 20
115.747
 11
10.5029
 21
117.992
  0
LINE
  8
0
 10
10.5029
 20
117.992
 11
13.4953
 21
115
  0
LINE
  8
0
 10
13.4953
 20
115
 11
10.5029
 21
112.008
  0
LINE
  8
0
 10
10.5029
 20
112.008
 11
10.5029
 21
114.253
  0
LINE
  8
0
 10
10.5029
 20
114.253
 11
0.733795
 21
114.253
  0
LINE
  8
0
 10
0.733795
 20
114.253
 11
0.746613
 21
104.497
  0
LINE
  8
0
 10
0.746613
 20
104.497
 11
2.99194
 21
104.497
  0
LINE
  8
0
 10
2.99194
 20
104.497
 11
0
 21
101.504
  0
LINE
  8
0
 10
0
 20
101.504
 11
-2.99194
 21
104.497
  0
LINE
  8
0
 10
16.5047
 20
115
 11
19.4971
 21
117.992
  0
LINE
  8
0
 10
19.4971
 20
117.992
 11
19.4971
 21
115.747
  0
LINE
  8
0
 10
19.4971
 20
115.747
 11
24.774
 21
115.747
  0
LINE
  8
0
 10
24.774
 20
115.747
 11
25.2594
 21
114.253
  0
LINE
  8
0
 10
25.2594
 20
114.253
 11
19.4971
 21
114.253
  0
LINE
  8
0
 10
19.4971
 20
114.253
 11
19.4971
 21
112.008
  0
LINE
  8
0
 10
19.4971
 20
112.008
 11
16.5047
 21
115
  0
LINE
  8
0
 10
-19.4971
 20
114.253
 11
-25.2594
 21
114.253
  0
LINE
  8
0
 10
-25.2594
 20
114.253
 11
-24.774
 21
115.747
  0
LINE
  8
0
 10
-24.774
 20
115.747
 11
-19.4971
 21
115.747
  0
LINE
  8
0
 10
-19.4971
 20
115.747
 11
-19.4971
 21
117.992
  0
LINE
  8
0
 10
-19.4971
 20
117.992
 11
-16.5047
 21
115
  0
LINE
  8
0
 10
-16.5047
 20
115
 11
-19.4971
 21
112.008
  0
LINE
  8
0
 10
-19.4971
 20
112.008
 11
-19.4971
 21
114.253
  0
LINE
  8
0
 10
-17.9924
 20
89.4971
 11
-15.7471
 21
89.4971
  0
LINE
  8
0
 10
-15.7471
 20
89.4971
 11
-15.7471
 21
99.2662
  0
LINE
  8
0
 10
-15.7471
 20
99.2662
 11
-25.5034
 21
99.2534
  0
LINE
  8
0
 10
-25.5034
 20
99.2534
 11
-25.5034
 21
97.0081
  0
LINE
  8
0
 10
-25.5034
 20
97.0081
 11
-28.4958
 21
100
  0
LINE
  8
0
 10
-28.4958
 20
100
 11
-25.5034
 21
102.992
  0
LINE
  8
0
 10
-25.5034
 20
102.992
 11
-25.5034
 21
100.747
  0
LINE
  8
0
 10
-25.5034
 20
100.747
 11
-15.7471
 21
100.734
  0
LINE
  8
0
 10
-15.7471
 20
100.734
 11
-15.7471
 21
110.503
  0
LINE
  8
0
 10
-15.7471
 20
110.503
 11
-17.9924
 21
110.503
  0
LINE
  8
0
 10
-17.9924
 20
110.503
 11
-15
 21
113.495
  0
LINE
  8
0
 10
-15
 20
113.495
 11
-12.0076
 21
110.503
  0
LINE
  8
0
 10
-12.0076
 20
110.503
 11
-14.2529
 21
110.503
  0
LINE
  8
0
 10
-14.2529
 20
110.503
 11
-14.2529
 21
100.734
  0
LINE
  8
0
 10
-14.2529
 20
100.734
 11
-4.49661
 21
100.747
  0
LINE
  8
0
 10
-4.49661
 20
100.747
 11
-4.49661
 21
102.992
  0
LINE
  8
0
 10
-4.49661
 20
102.992
 11
-1.50421
 21
100
  0
LINE
  8
0
 10
-1.50421
 20
100
 11
-4.49661
 21
97.0081
  0
LINE
  8
0
 10
-4.49661
 20
97.0081
 11
-4.49661
 21
99.2534
  0
LINE
  8
0
 10
-4.49661
 20
99.2534
 11
-14.2529
 21
99.2662
  0
LINE
  8
0
 10
-14.2529
 20
99.2662
 11
-14.2529
 21
89.4971
  0
LINE
  8
0
 10
-14.2529
 20
89.4971
 11
-12.0076
 21
89.4971
  0
LINE
  8
0
 10
-12.0076
 20
89.4971
 11
-15
 21
86.5047
  0
LINE
  8
0
 10
-15
 20
86.5047
 11
-17.9924
 21
89.4971
  0
LINE
  8
0
 10
12.0076
 20
89.4971
 11
14.2529
 21
89.4971
  0
LINE
  8
0
 10
14.2529
 20
89.4971
 11
14.2529
 21
99.2662
  0
LINE
  8
0
 10
14.2529
 20
99.2662
 11
4.49661
 21
99.2534
  0
LINE
  8
0
 10
4.49661
 20
99.2534
 11
4.49661
 21
97.0081
  0
LINE
  8
0
 10
4.49661
 20
97.0081
 11
1.50421
 21
100
  0
LINE
  8
0
 10
1.50421
 20
100
 11
4.49661
 21
102.992
  0
LINE
  8
0
 10
4.49661
 20
102.992
 11
4.49661
 21
100.747
  0
LINE
  8
0
 10
4.49661
 20
100.747
 11
14.2529
 21
100.734
  0
LINE
  8
0
 10
14.2529
 20
100.734
 11
14.2529
 21
110.503
  0
LINE
  8
0
 10
14.2529
 20
110.503
 11
12.0076
 21
110.503
  0
LINE
  8
0
 10
12.0076
 20
110.503
 11
15
 21
113.495
  0
LINE
  8
0
 10
15
 20
113.495
 11
17.9924
 21
110.503
  0
LINE
  8
0
 10
17.9924
 20
110.503
 11
15.7471
 21
110.503
  0
LINE
  8
0
 10
15.7471
 20
110.503
 11
15.7471
 21
100.734
  0
LINE
  8
0
 10
15.7471
 20
100.734
 11
25.5034
 21
100.747
  0
LINE
  8
0
 10
25.5034
 20
100.747
 11
25.5034
 21
102.992
  0
LINE
  8
0
 10
25.5034
 20
102.992
 11
28.4958
 21
100
  0
LINE
  8
0
 10
28.4958
 20
100
 11
25.5034
 21
97.0081
  0
LINE
  8
0
 10
25.5034
 20
97.0081
 11
25.5034
 21
99.2534
  0
LINE
  8
0
 10
25.5034
 20
99.2534
 11
15.7471
 21
99.2662
  0
LINE
  8
0
 10
15.7471
 20
99.2662
 11
15.7471
 21
89.4971
  0
LINE
  8
0
 10
15.7471
 20
89.4971
 11
17.9924
 21
89.4971
  0
LINE
  8
0
 10
17.9924
 20
89.4971
 11
15
 21
86.5047
  0
LINE
  8
0
 10
15
 20
86.5047
 11
12.0076
 21
89.4971
  0
LINE
  8
0
 10
27.0081
 20
104.497
 11
28.4294
 21
104.497
  0
LINE
  8
0
 10
28.4294
 20
104.497
 11
29.1137
 21
102.391
  0
LINE
  8
0
 10
29.1137
 20
102.391
 11
27.0081
 21
104.497
  0
LINE
  8
0
 10
-28.4294
 20
104.497
 11
-27.0081
 21
104.497
  0
LINE
  8
0
 10
-27.0081
 20
104.497
 11
-29.1137
 21
102.391
  0
LINE
  8
0
 10
-29.1137
 20
102.391
 11
-28.4294
 21
104.497
  0
LINE
  8
0
 10
27.0081
 20
74.4966
 11
29.2534
 21
74.4966
  0
LINE
  8
0
 10
29.2534
 20
74.4966
 11
29.2662
 21
84.2529
  0
LINE
  8
0
 10
29.2662
 20
84.2529
 11
19.4971
 21
84.2529
  0
LINE
  8
0
 10
19.4971
 20
84.2529
 11
19.4971
 21
82.0076
  0
LINE
  8
0
 10
19.4971
 20
82.0076
 11
16.5047
 21
85
  0
LINE
  8
0
 10
16.5047
 20
85
 11
19.4971
 21
87.9924
  0
LINE
  8
0
 10
19.4971
 20
87.9924
 11
19.4971
 21
85.7471
  0
LINE
  8
0
 10
19.4971
 20
85.7471
 11
29.2662
 21
85.7471
  0
LINE
  8
0
 10
29.2662
 20
85.7471
 11
29.2534
 21
95.5034
  0
LINE
  8
0
 10
29.2534
 20
95.5034
 11
27.0081
 21
95.5034
  0
LINE
  8
0
 10
27.0081
 20
95.5034
 11
30
 21
98.4958
  0
LINE
  8
0
 10
30
 20
98.4958
 11
30.5618
 21
97.9339
  0
LINE
  8
0
 10
30.5618
 20
97.9339
 11
31.3515
 21
95.5034
  0
LINE
  8
0
 10
31.3515
 20
95.5034
 11
30.7466
 21
95.5034
  0
LINE
  8
0
 10
30.7466
 20
95.5034
 11
30.7338
 21
85.7471
  0
LINE
  8
0
 10
30.7338
 20
85.7471
 11
34.5215
 21
85.7471
  0
LINE
  8
0
 10
34.5215
 20
85.7471
 11
35.007
 21
84.2529
  0
LINE
  8
0
 10
35.007
 20
84.2529
 11
30.7338
 21
84.2529
  0
LINE
  8
0
 10
30.7338
 20
84.2529
 11
30.7466
 21
74.4966
  0
LINE
  8
0
 10
30.7466
 20
74.4966
 11
32.9919
 21
74.4966
  0
LINE
  8
0
 10
32.9919
 20
74.4966
 11
30
 21
71.5042
  0
LINE
  8
0
 10
30
 20
71.5042
 11
27.0081
 21
74.4966
  0
LINE
  8
0
 10
-32.9919
 20
74.4966
 11
-30.7466
 21
74.4966
  0
LINE
  8
0
 10
-30.7466
 20
74.4966
 11
-30.7338
 21
84.2529
  0
LINE
  8
0
 10
-30.7338
 20
84.2529
 11
-35.007
 21
84.2529
  0
LINE
  8
0
 10
-35.007
 20
84.2529
 11
-34.5215
 21
85.7471
  0
LINE
  8
0
 10
-34.5215
 20
85.7471
 11
-30.7338
 21
85.7471
  0
LINE
  8
0
 10
-30.7338
 20
85.7471
 11
-30.7466
 21
95.5034
  0
LINE
  8
0
 10
-30.7466
 20
95.5034
 11
-31.3515
 21
95.5034
  0
LINE
  8
0
 10
-31.3515
 20
95.5034
 11
-30.5618
 21
97.9339
  0
LINE
  8
0
 10
-30.5618
 20
97.9339
 11
-30
 21
98.4958
  0
LINE
  8
0
 10
-30
 20
98.4958
 11
-27.0081
 21
95.5034
  0
LINE
  8
0
 10
-27.0081
 20
95.5034
 11
-29.2534
 21
95.5034
  0
LINE
  8
0
 10
-29.2534
 20
95.5034
 11
-29.2662
 21
85.7471
  0
LINE
  8
0
 10
-29.2662
 20
85.7471
 11
-19.4971
 21
85.7471
  0
LINE
  8
0
 10
-19.4971
 20
85.7471
 11
-19.4971
 21
87.9924
  0
LINE
  8
0
 10
-19.4971
 20
87.9924
 11
-16.5047
 21
85
  0
LINE
  8
0
 10
-16.5047
 20
85
 11
-19.4971
 21
82.0076
  0
LINE
  8
0
 10
-19.4971
 20
82.0076
 11
-19.4971
 21
84.2529
  0
LINE
  8
0
 10
-19.4971
 20
84.2529
 11
-29.2662
 21
84.2529
  0
LINE
  8
0
 10
-29.2662
 20
84.2529
 11
-29.2534
 21
74.4966
  0
LINE
  8
0
 10
-29.2534
 20
74.4966
 11
-27.0081
 21
74.4966
  0
LINE
  8
0
 10
-27.0081
 20
74.4966
 11
-30
 21
71.5042
  0
LINE
  8
0
 10
-30
 20
71.5042
 11
-32.9919
 21
74.4966
  0
LINE
  8
0
 10
-2.99194
 20
74.4966
 11
-0.746613
 21
74.4966
  0
LINE
  8
0
 10
-0.746613
 20
74.4966
 11
-0.733795
 21
84.2529
  0
LINE
  8
0
 10
-0.733795
 20
84.2529
 11
-10.5029
 21
84.2529
  0
LINE
  8
0
 10
-10.5029
 20
84.2529
 11
-10.5029
 21
82.0076
  0
LINE
  8
0
 10
-10.5029
 20
82.0076
 11
-13.4953
 21
85
  0
LINE
  8
0
 10
-13.4953
 20
85
 11
-10.5029
 21
87.9924
  0
LINE
  8
0
 10
-10.5029
 20
87.9924
 11
-10.5029
 21
85.7471
  0
LINE
  8
0
 10
-10.5029
 20
85.7471
 11
-0.733795
 21
85.7471
  0
LINE
  8
0
 10
-0.733795
 20
85.7471
 11
-0.746613
 21
95.5034
  0
LINE
  8
0
 10
-0.746613
 20
95.5034
 11
-2.99194
 21
95.5034
  0
LINE
  8
0
 10
-2.99194
 20
95.5034
 11
0
 21
98.4958
  0
LINE
  8
0
 10
0
 20
98.4958
 11
2.99194
 21
95.5034
  0
LINE
  8
0
 10
2.99194
 20
95.5034
 11
0.746613
 21
95.5034
  0
LINE
  8
0
 10
0.746613
 20
95.5034
 11
0.733795
 21
85.7471
  0
LINE
  8
0
 10
0.733795
 20
85.7471
 11
10.5029
 21
85.7471
  0
LINE
  8
0
 10
10.5029
 20
85.7471
 11
10.5029
 21
87.9924
  0
LINE
  8
0
 10
10.5029
 20
87.9924
 11
13.4953
 21
85
  0
LINE
  8
0
 10
13.4953
 20
85
 11
10.5029
 21
82.0076
  0
LINE
  8
0
 10
10.5029
 20
82.0076
 11
10.5029
 21
84.2529
  0
LINE
  8
0
 10
10.5029
 20
84.2529
 11
0.733795
 21
84.2529
  0
LINE
  8
0
 10
0.733795
 20
84.2529
 11
0.746613
 21
74.4966
  0
LINE
  8
0
 10
0.746613
 20
74.4966
 11
2.99194
 21
74.4966
  0
LINE
  8
0
 10
2.99194
 20
74.4966
 11
0
 21
71.5042
  0
LINE
  8
0
 10
0
 20
71.5042
 11
-2.99194
 21
74.4966
  0
LINE
  8
0
 10
-17.9924
 20
59.4971
 11
-15.7471
 21
59.4971
  0
LINE
  8
0
 10
-15.7471
 20
59.4971
 11
-15.7471
 21
69.2662
  0
LINE
  8
0
 10
-15.7471
 20
69.2662
 11
-25.5034
 21
69.2534
  0
LINE
  8
0
 10
-25.5034
 20
69.2534
 11
-25.5034
 21
67.0081
  0
LINE
  8
0
 10
-25.5034
 20
67.0081
 11
-28.4958
 21
70
  0
LINE
  8
0
 10
-28.4958
 20
70
 11
-25.5034
 21
72.9919
  0
LINE
  8
0
 10
-25.5034
 20
72.9919
 11
-25.5034
 21
70.7466
  0
LINE
  8
0
 10
-25.5034
 20
70.7466
 11
-15.7471
 21
70.7338
  0
LINE
  8
0
 10
-15.7471
 20
70.7338
 11
-15.7471
 21
80.5029
  0
LINE
  8
0
 10
-15.7471
 20
80.5029
 11
-17.9924
 21
80.5029
  0
LINE
  8
0
 10
-17.9924
 20
80.5029
 11
-15
 21
83.4953
  0
LINE
  8
0
 10
-15
 20
83.4953
 11
-12.0076
 21
80.5029
  0
LINE
  8
0
 10
-12.0076
 20
80.5029
 11
-14.2529
 21
80.5029
  0
LINE
  8
0
 10
-14.2529
 20
80.5029
 11
-14.2529
 21
70.7338
  0
LINE
  8
0
 10
-14.2529
 20
70.7338
 11
-4.49661
 21
70.7466
  0
LINE
  8
0
 10
-4.49661
 20
70.7466
 11
-4.49661
 21
72.9919
  0
LINE
  8
0
 10
-4.49661
 20
72.9919
 11
-1.50421
 21
70
  0
LINE
  8
0
 10
-1.50421
 20
70
 11
-4.49661
 21
67.0081
  0
LINE
  8
0
 10
-4.49661
 20
67.0081
 11
-4.49661
 21
69.2534
  0
LINE
  8
0
 10
-4.49661
 20
69.2534
 11
-14.2529
 21
69.2662
  0
LINE
  8
0
 10
-14.2529
 20
69.2662
 11
-14.2529
 21
59.4971
  0
LINE
  8
0
 10
-14.2529
 20
59.4971
 11
-12.0076
 21
59.4971
  0
LINE
  8
0
 10
-12.0076
 20
59.4971
 11
-15
 21
56.5047
  0
LINE
  8
0
 10
-15
 20
56.5047
 11
-17.9924
 21
59.4971
  0
LINE
  8
0
 10
12.0076
 20
59.4971
 11
14.2529
 21
59.4971
  0
LINE
  8
0
 10
14.2529
 20
59.4971
 11
14.2529
 21
69.2662
  0
LINE
  8
0
 10
14.2529
 20
69.2662
 11
4.49661
 21
69.2534
  0
LINE
  8
0
 10
4.49661
 20
69.2534
 11
4.49661
 21
67.0081
  0
LINE
  8
0
 10
4.49661
 20
67.0081
 11
1.50421
 21
70
  0
LINE
  8
0
 10
1.50421
 20
70
 11
4.49661
 21
72.9919
  0
LINE
  8
0
 10
4.49661
 20
72.9919
 11
4.49661
 21
70.7466
  0
LINE
  8
0
 10
4.49661
 20
70.7466
 11
14.2529
 21
70.7338
  0
LINE
  8
0
 10
14.2529
 20
70.7338
 11
14.2529
 21
80.5029
  0
LINE
  8
0
 10
14.2529
 20
80.5029
 11
12.0076
 21
80.5029
  0
LINE
  8
0
 10
12.0076
 20
80.5029
 11
15
 21
83.4953
  0
LINE
  8
0
 10
15
 20
83.4953
 11
17.9924
 21
80.5029
  0
LINE
  8
0
 10
17.9924
 20
80.5029
 11
15.7471
 21
80.5029
  0
LINE
  8
0
 10
15.7471
 20
80.5029
 11
15.7471
 21
70.7338
  0
LINE
  8
0
 10
15.7471
 20
70.7338
 11
25.5034
 21
70.7466
  0
LINE
  8
0
 10
25.5034
 20
70.7466
 11
25.5034
 21
72.9919
  0
LINE
  8
0
 10
25.5034
 20
72.9919
 11
28.4958
 21
70
  0
LINE
  8
0
 10
28.4958
 20
70
 11
25.5034
 21
67.0081
  0
LINE
  8
0
 10
25.5034
 20
67.0081
 11
25.5034
 21
69.2534
  0
LINE
  8
0
 10
25.5034
 20
69.2534
 11
15.7471
 21
69.2662
  0
LINE
  8
0
 10
15.7471
 20
69.2662
 11
15.7471
 21
59.4971
  0
LINE
  8
0
 10
15.7471
 20
59.4971
 11
17.9924
 21
59.4971
  0
LINE
  8
0
 10
17.9924
 20
59.4971
 11
15
 21
56.5047
  0
LINE
  8
0
 10
15
 20
56.5047
 11
12.0076
 21
59.4971
  0
LINE
  8
0
 10
-34.4966
 20
69.2534
 11
-39.8784
 21
69.2605
  0
LINE
  8
0
 10
-39.8784
 20
69.2605
 11
-39.3976
 21
70.7402
  0
LINE
  8
0
 10
-39.3976
 20
70.7402
 11
-34.4966
 21
70.7466
  0
LINE
  8
0
 10
-34.4966
 20
70.7466
 11
-34.4966
 21
72.9919
  0
LINE
  8
0
 10
-34.4966
 20
72.9919
 11
-31.5042
 21
70
  0
LINE
  8
0
 10
-31.5042
 20
70
 11
-34.4966
 21
67.0081
  0
LINE
  8
0
 10
-34.4966
 20
67.0081
 11
-34.4966
 21
69.2534
  0
LINE
  8
0
 10
31.5042
 20
70
 11
34.4966
 21
72.9919
  0
LINE
  8
0
 10
34.4966
 20
72.9919
 11
34.4966
 21
70.7466
  0
LINE
  8
0
 10
34.4966
 20
70.7466
 11
39.3976
 21
70.7402
  0
LINE
  8
0
 10
39.3976
 20
70.7402
 11
39.8784
 21
69.2605
  0
LINE
  8
0
 10
39.8784
 20
69.2605
 11
34.4966
 21
69.2534
  0
LINE
  8
0
 10
34.4966
 20
69.2534
 11
34.4966
 21
67.0081
  0
LINE
  8
0
 10
34.4966
 20
67.0081
 11
31.5042
 21
70
  0
LINE
  8
0
 10
27.0081
 20
44.4966
 11
29.2534
 21
44.4966
  0
LINE
  8
0
 10
29.2534
 20
44.4966
 11
29.2662
 21
54.2529
  0
LINE
  8
0
 10
29.2662
 20
54.2529
 11
19.4971
 21
54.2529
  0
LINE
  8
0
 10
19.4971
 20
54.2529
 11
19.4971
 21
52.0076
  0
LINE
  8
0
 10
19.4971
 20
52.0076
 11
16.5047
 21
55
  0
LINE
  8
0
 10
16.5047
 20
55
 11
19.4971
 21
57.9924
  0
LINE
  8
0
 10
19.4971
 20
57.9924
 11
19.4971
 21
55.7471
  0
LINE
  8
0
 10
19.4971
 20
55.7471
 11
29.2662
 21
55.7471
  0
LINE
  8
0
 10
29.2662
 20
55.7471
 11
29.2534
 21
65.5034
  0
LINE
  8
0
 10
29.2534
 20
65.5034
 11
27.0081
 21
65.5034
  0
LINE
  8
0
 10
27.0081
 20
65.5034
 11
30
 21
68.4958
  0
LINE
  8
0
 10
30
 20
68.4958
 11
32.9919
 21
65.5034
  0
LINE
  8
0
 10
32.9919
 20
65.5034
 11
30.7466
 21
65.5034
  0
LINE
  8
0
 10
30.7466
 20
65.5034
 11
30.7338
 21
55.7471
  0
LINE
  8
0
 10
30.7338
 20
55.7471
 11
40.5029
 21
55.7471
  0
LINE
  8
0
 10
40.5029
 20
55.7471
 11
40.5029
 21
57.9924
  0
LINE
  8
0
 10
40.5029
 20
57.9924
 11
43.4953
 21
55
  0
LINE
  8
0
 10
43.4953
 20
55
 11
40.5029
 21
52.0076
  0
LINE
  8
0
 10
40.5029
 20
52.0076
 11
40.5029
 21
54.2529
  0
LINE
  8
0
 10
40.5029
 20
54.2529
 11
30.7338
 21
54.2529
  0
LINE
  8
0
 10
30.7338
 20
54.2529
 11
30.7466
 21
44.4966
  0
LINE
  8
0
 10
30.7466
 20
44.4966
 11
32.9919
 21
44.4966
  0
LINE
  8
0
 10
32.9919
 20
44.4966
 11
30
 21
41.5042
  0
LINE
  8
0
 10
30
 20
41.5042
 11
27.0081
 21
44.4966
  0
LINE
  8
0
 10
-32.9919
 20
44.4966
 11
-30.7466
 21
44.4966
  0
LINE
  8
0
 10
-30.7466
 20
44.4966
 11
-30.7338
 21
54.2529
  0
LINE
  8
0
 10
-30.7338
 20
54.2529
 11
-40.5029
 21
54.2529
  0
LINE
  8
0
 10
-40.5029
 20
54.2529
 11
-40.5029
 21
52.0076
  0
LINE
  8
0
 10
-40.5029
 20
52.0076
 11
-43.4953
 21
55
  0
LINE
  8
0
 10
-43.4953
 20
55
 11
-40.5029
 21
57.9924
  0
LINE
  8
0
 10
-40.5029
 20
57.9924
 11
-40.5029
 21
55.7471
  0
LINE
  8
0
 10
-40.5029
 20
55.7471
 11
-30.7338
 21
55.7471
  0
LINE
  8
0
 10
-30.7338
 20
55.7471
 11
-30.7466
 21
65.5034
  0
LINE
  8
0
 10
-30.7466
 20
65.5034
 11
-32.9919
 21
65.5034
  0
LINE
  8
0
 10
-32.9919
 20
65.5034
 11
-30
 21
68.4958
  0
LINE
  8
0
 10
-30
 20
68.4958
 11
-27.0081
 21
65.5034
  0
LINE
  8
0
 10
-27.0081
 20
65.5034
 11
-29.2534
 21
65.5034
  0
LINE
  8
0
 10
-29.2534
 20
65.5034
 11
-29.2662
 21
55.7471
  0
LINE
  8
0
 10
-29.2662
 20
55.7471
 11
-19.4971
 21
55.7471
  0
LINE
  8
0
 10
-19.4971
 20
55.7471
 11
-19.4971
 21
57.9924
  0
LINE
  8
0
 10
-19.4971
 20
57.9924
 11
-16.5047
 21
55
  0
LINE
  8
0
 10
-16.5047
 20
55
 11
-19.4971
 21
52.0076
  0
LINE
  8
0
 10
-19.4971
 20
52.0076
 11
-19.4971
 21
54.2529
  0
LINE
  8
0
 10
-19.4971
 20
54.2529
 11
-29.2662
 21
54.2529
  0
LINE
  8
0
 10
-29.2662
 20
54.2529
 11
-29.2534
 21
44.4966
  0
LINE
  8
0
 10
-29.2534
 20
44.4966
 11
-27.0081
 21
44.4966
  0
LINE
  8
0
 10
-27.0081
 20
44.4966
 11
-30
 21
41.5042
  0
LINE
  8
0
 10
-30
 20
41.5042
 11
-32.9919
 21
44.4966
  0
LINE
  8
0
 10
-2.99194
 20
44.4966
 11
-0.746613
 21
44.4966
  0
LINE
  8
0
 10
-0.746613
 20
44.4966
 11
-0.733795
 21
54.2529
  0
LINE
  8
0
 10
-0.733795
 20
54.2529
 11
-10.5029
 21
54.2529
  0
LINE
  8
0
 10
-10.5029
 20
54.2529
 11
-10.5029
 21
52.0076
  0
LINE
  8
0
 10
-10.5029
 20
52.0076
 11
-13.4953
 21
55
  0
LINE
  8
0
 10
-13.4953
 20
55
 11
-10.5029
 21
57.9924
  0
LINE
  8
0
 10
-10.5029
 20
57.9924
 11
-10.5029
 21
55.7471
  0
LINE
  8
0
 10
-10.5029
 20
55.7471
 11
-0.733795
 21
55.7471
  0
LINE
  8
0
 10
-0.733795
 20
55.7471
 11
-0.746613
 21
65.5034
  0
LINE
  8
0
 10
-0.746613
 20
65.5034
 11
-2.99194
 21
65.5034
  0
LINE
  8
0
 10
-2.99194
 20
65.5034
 11
0
 21
68.4958
  0
LINE
  8
0
 10
0
 20
68.4958
 11
2.99194
 21
65.5034
  0
LINE
  8
0
 10
2.99194
 20
65.5034
 11
0.746613
 21
65.5034
  0
LINE
  8
0
 10
0.746613
 20
65.5034
 11
0.733795
 21
55.7471
  0
LINE
  8
0
 10
0.733795
 20
55.7471
 11
10.5029
 21
55.7471
  0
LINE
  8
0
 10
10.5029
 20
55.7471
 11
10.5029
 21
57.9924
  0
LINE
  8
0
 10
10.5029
 20
57.9924
 11
13.4953
 21
55
  0
LINE
  8
0
 10
13.4953
 20
55
 11
10.5029
 21
52.0076
  0
LINE
  8
0
 10
10.5029
 20
52.0076
 11
10.5029
 21
54.2529
  0
LINE
  8
0
 10
10.5029
 20
54.2529
 11
0.733795
 21
54.2529
  0
LINE
  8
0
 10
0.733795
 20
54.2529
 11
0.746613
 21
44.4966
  0
LINE
  8
0
 10
0.746613
 20
44.4966
 11
2.99194
 21
44.4966
  0
LINE
  8
0
 10
2.99194
 20
44.4966
 11
0
 21
41.5042
  0
LINE
  8
0
 10
0
 20
41.5042
 11
-2.99194
 21
44.4966
  0
LINE
  8
0
 10
-43.0507
 20
59.4971
 11
-42.0076
 21
59.4971
  0
LINE
  8
0
 10
-42.0076
 20
59.4971
 11
-43.5527
 21
57.952
  0
LINE
  8
0
 10
-43.5527
 20
57.952
 11
-43.0507
 21
59.4971
  0
LINE
  8
0
 10
42.0076
 20
59.4971
 11
43.0507
 21
59.4971
  0
LINE
  8
0
 10
43.0507
 20
59.4971
 11
43.5527
 21
57.952
  0
LINE
  8
0
 10
43.5527
 20
57.952
 11
42.0076
 21
59.4971
  0
LINE
  8
0
 10
42.0076
 20
29.4971
 11
44.2529
 21
29.4971
  0
LINE
  8
0
 10
44.2529
 20
29.4971
 11
44.2529
 21
39.2662
  0
LINE
  8
0
 10
44.2529
 20
39.2662
 11
34.4966
 21
39.2534
  0
LINE
  8
0
 10
34.4966
 20
39.2534
 11
34.4966
 21
37.0081
  0
LINE
  8
0
 10
34.4966
 20
37.0081
 11
31.5042
 21
40
  0
LINE
  8
0
 10
31.5042
 20
40
 11
34.4966
 21
42.9919
  0
LINE
  8
0
 10
34.4966
 20
42.9919
 11
34.4966
 21
40.7466
  0
LINE
  8
0
 10
34.4966
 20
40.7466
 11
44.2529
 21
40.7338
  0
LINE
  8
0
 10
44.2529
 20
40.7338
 11
44.2529
 21
50.5029
  0
LINE
  8
0
 10
44.2529
 20
50.5029
 11
42.0076
 21
50.5029
  0
LINE
  8
0
 10
42.0076
 20
50.5029
 11
45
 21
53.4953
  0
LINE
  8
0
 10
45
 20
53.4953
 11
45.0011
 21
53.4942
  0
LINE
  8
0
 10
45.0011
 20
53.4942
 11
45.9731
 21
50.5029
  0
LINE
  8
0
 10
45.9731
 20
50.5029
 11
45.7471
 21
50.5029
  0
LINE
  8
0
 10
45.7471
 20
50.5029
 11
45.7471
 21
40.7338
  0
LINE
  8
0
 10
45.7471
 20
40.7338
 11
49.1458
 21
40.7383
  0
LINE
  8
0
 10
49.1458
 20
40.7383
 11
49.6257
 21
39.2611
  0
LINE
  8
0
 10
49.6257
 20
39.2611
 11
45.7471
 21
39.2662
  0
LINE
  8
0
 10
45.7471
 20
39.2662
 11
45.7471
 21
29.4971
  0
LINE
  8
0
 10
45.7471
 20
29.4971
 11
47.9924
 21
29.4971
  0
LINE
  8
0
 10
47.9924
 20
29.4971
 11
45
 21
26.5047
  0
LINE
  8
0
 10
45
 20
26.5047
 11
42.0076
 21
29.4971
  0
LINE
  8
0
 10
12.0076
 20
29.4971
 11
14.2529
 21
29.4971
  0
LINE
  8
0
 10
14.2529
 20
29.4971
 11
14.2529
 21
39.2662
  0
LINE
  8
0
 10
14.2529
 20
39.2662
 11
4.49661
 21
39.2534
  0
LINE
  8
0
 10
4.49661
 20
39.2534
 11
4.49661
 21
37.0081
  0
LINE
  8
0
 10
4.49661
 20
37.0081
 11
1.50421
 21
40
  0
LINE
  8
0
 10
1.50421
 20
40
 11
4.49661
 21
42.9919
  0
LINE
  8
0
 10
4.49661
 20
42.9919
 11
4.49661
 21
40.7466
  0
LINE
  8
0
 10
4.49661
 20
40.7466
 11
14.2529
 21
40.7338
  0
LINE
  8
0
 10
14.2529
 20
40.7338
 11
14.2529
 21
50.5029
  0
LINE
  8
0
 10
14.2529
 20
50.5029
 11
12.0076
 21
50.5029
  0
LINE
  8
0
 10
12.0076
 20
50.5029
 11
15
 21
53.4953
  0
LINE
  8
0
 10
15
 20
53.4953
 11
17.9924
 21
50.5029
  0
LINE
  8
0
 10
17.9924
 20
50.5029
 11
15.7471
 21
50.5029
  0
LINE
  8
0
 10
15.7471
 20
50.5029
 11
15.7471
 21
40.7338
  0
LINE
  8
0
 10
15.7471
 20
40.7338
 11
25.5034
 21
40.7466
  0
LINE
  8
0
 10
25.5034
 20
40.7466
 11
25.5034
 21
42.9919
  0
LINE
  8
0
 10
25.5034
 20
42.9919
 11
28.4958
 21
40
  0
LINE
  8
0
 10
28.4958
 20
40
 11
25.5034
 21
37.0081
  0
LINE
  8
0
 10
25.5034
 20
37.0081
 11
25.5034
 21
39.2534
  0
LINE
  8
0
 10
25.5034
 20
39.2534
 11
15.7471
 21
39.2662
  0
LINE
  8
0
 10
15.7471
 20
39.2662
 11
15.7471
 21
29.4971
  0
LINE
  8
0
 10
15.7471
 20
29.4971
 11
17.9924
 21
29.4971
  0
LINE
  8
0
 10
17.9924
 20
29.4971
 11
15
 21
26.5047
  0
LINE
  8
0
 10
15
 20
26.5047
 11
12.0076
 21
29.4971
  0
LINE
  8
0
 10
-17.9924
 20
29.4971
 11
-15.7471
 21
29.4971
  0
LINE
  8
0
 10
-15.7471
 20
29.4971
 11
-15.7471
 21
39.2662
  0
LINE
  8
0
 10
-15.7471
 20
39.2662
 11
-25.5034
 21
39.2534
  0
LINE
  8
0
 10
-25.5034
 20
39.2534
 11
-25.5034
 21
37.0081
  0
LINE
  8
0
 10
-25.5034
 20
37.0081
 11
-28.4958
 21
40
  0
LINE
  8
0
 10
-28.4958
 20
40
 11
-25.5034
 21
42.9919
  0
LINE
  8
0
 10
-25.5034
 20
42.9919
 11
-25.5034
 21
40.7466
  0
LINE
  8
0
 10
-25.5034
 20
40.7466
 11
-15.7471
 21
40.7338
  0
LINE
  8
0
 10
-15.7471
 20
40.7338
 11
-15.7471
 21
50.5029
  0
LINE
  8
0
 10
-15.7471
 20
50.5029
 11
-17.9924
 21
50.5029
  0
LINE
  8
0
 10
-17.9924
 20
50.5029
 11
-15
 21
53.4953
  0
LINE
  8
0
 10
-15
 20
53.4953
 11
-12.0076
 21
50.5029
  0
LINE
  8
0
 10
-12.0076
 20
50.5029
 11
-14.2529
 21
50.5029
  0
LINE
  8
0
 10
-14.2529
 20
50.5029
 11
-14.2529
 21
40.7338
  0
LINE
  8
0
 10
-14.2529
 20
40.7338
 11
-4.49661
 21
40.7466
  0
LINE
  8
0
 10
-4.49661
 20
40.7466
 11
-4.49661
 21
42.9919
  0
LINE
  8
0
 10
-4.49661
 20
42.9919
 11
-1.50421
 21
40
  0
LINE
  8
0
 10
-1.50421
 20
40
 11
-4.49661
 21
37.0081
  0
LINE
  8
0
 10
-4.49661
 20
37.0081
 11
-4.49661
 21
39.2534
  0
LINE
  8
0
 10
-4.49661
 20
39.2534
 11
-14.2529
 21
39.2662
  0
LINE
  8
0
 10
-14.2529
 20
39.2662
 11
-14.2529
 21
29.4971
  0
LINE
  8
0
 10
-14.2529
 20
29.4971
 11
-12.0076
 21
29.4971
  0
LINE
  8
0
 10
-12.0076
 20
29.4971
 11
-15
 21
26.5047
  0
LINE
  8
0
 10
-15
 20
26.5047
 11
-17.9924
 21
29.4971
  0
LINE
  8
0
 10
-47.9924
 20
29.4971
 11
-45.7471
 21
29.4971
  0
LINE
  8
0
 10
-45.7471
 20
29.4971
 11
-45.7471
 21
39.2662
  0
LINE
  8
0
 10
-45.7471
 20
39.2662
 11
-49.6257
 21
39.2611
  0
LINE
  8
0
 10
-49.6257
 20
39.2611
 11
-49.1458
 21
40.7383
  0
LINE
  8
0
 10
-49.1458
 20
40.7383
 11
-45.7471
 21
40.7338
  0
LINE
  8
0
 10
-45.7471
 20
40.7338
 11
-45.7471
 21
50.5029
  0
LINE
  8
0
 10
-45.7471
 20
50.5029
 11
-45.9731
 21
50.5029
  0
LINE
  8
0
 10
-45.9731
 20
50.5029
 11
-45.0011
 21
53.4942
  0
LINE
  8
0
 10
-45.0011
 20
53.4942
 11
-45
 21
53.4953
  0
LINE
  8
0
 10
-45
 20
53.4953
 11
-42.0076
 21
50.5029
  0
LINE
  8
0
 10
-42.0076
 20
50.5029
 11
-44.2529
 21
50.5029
  0
LINE
  8
0
 10
-44.2529
 20
50.5029
 11
-44.2529
 21
40.7338
  0
LINE
  8
0
 10
-44.2529
 20
40.7338
 11
-34.4966
 21
40.7466
  0
LINE
  8
0
 10
-34.4966
 20
40.7466
 11
-34.4966
 21
42.9919
  0
LINE
  8
0
 10
-34.4966
 20
42.9919
 11
-31.5042
 21
40
  0
LINE
  8
0
 10
-31.5042
 20
40
 11
-34.4966
 21
37.0081
  0
LINE
  8
0
 10
-34.4966
 20
37.0081
 11
-34.4966
 21
39.2534
  0
LINE
  8
0
 10
-34.4966
 20
39.2534
 11
-44.2529
 21
39.2662
  0
LINE
  8
0
 10
-44.2529
 20
39.2662
 11
-44.2529
 21
29.4971
  0
LINE
  8
0
 10
-44.2529
 20
29.4971
 11
-42.0076
 21
29.4971
  0
LINE
  8
0
 10
-42.0076
 20
29.4971
 11
-45
 21
26.5047
  0
LINE
  8
0
 10
-45
 20
26.5047
 11
-47.9924
 21
29.4971
  0
LINE
  8
0
 10
-0.495712
 20
12
 11
-2.99194
 21
14.4966
  0
LINE
  8
0
 10
-2.99194
 20
14.4966
 11
-0.746613
 21
14.4966
  0
LINE
  8
0
 10
-0.746613
 20
14.4966
 11
-0.733795
 21
24.2529
  0
LINE
  8
0
 10
-0.733795
 20
24.2529
 11
-10.5029
 21
24.2529
  0
LINE
  8
0
 10
-10.5029
 20
24.2529
 11
-10.5029
 21
22.0076
  0
LINE
  8
0
 10
-10.5029
 20
22.0076
 11
-13.4953
 21
25
  0
LINE
  8
0
 10
-13.4953
 20
25
 11
-10.5029
 21
27.9924
  0
LINE
  8
0
 10
-10.5029
 20
27.9924
 11
-10.5029
 21
25.7471
  0
LINE
  8
0
 10
-10.5029
 20
25.7471
 11
-0.733795
 21
25.7471
  0
LINE
  8
0
 10
-0.733795
 20
25.7471
 11
-0.746613
 21
35.5034
  0
LINE
  8
0
 10
-0.746613
 20
35.5034
 11
-2.99194
 21
35.5034
  0
LINE
  8
0
 10
-2.99194
 20
35.5034
 11
0
 21
38.4958
  0
LINE
  8
0
 10
0
 20
38.4958
 11
2.99194
 21
35.5034
  0
LINE
  8
0
 10
2.99194
 20
35.5034
 11
0.746613
 21
35.5034
  0
LINE
  8
0
 10
0.746613
 20
35.5034
 11
0.733795
 21
25.7471
  0
LINE
  8
0
 10
0.733795
 20
25.7471
 11
10.5029
 21
25.7471
  0
LINE
  8
0
 10
10.5029
 20
25.7471
 11
10.5029
 21
27.9924
  0
LINE
  8
0
 10
10.5029
 20
27.9924
 11
13.4953
 21
25
  0
LINE
  8
0
 10
13.4953
 20
25
 11
10.5029
 21
22.0076
  0
LINE
  8
0
 10
10.5029
 20
22.0076
 11
10.5029
 21
24.2529
  0
LINE
  8
0
 10
10.5029
 20
24.2529
 11
0.733795
 21
24.2529
  0
LINE
  8
0
 10
0.733795
 20
24.2529
 11
0.746613
 21
14.4966
  0
LINE
  8
0
 10
0.746613
 20
14.4966
 11
2.99194
 21
14.4966
  0
LINE
  8
0
 10
2.99194
 20
14.4966
 11
0.495712
 21
12
  0
LINE
  8
0
 10
0.495712
 20
12
 11
-0.495712
 21
12
  0
LINE
  8
0
 10
-30.4957
 20
12
 11
-32.9919
 21
14.4966
  0
LINE
  8
0
 10
-32.9919
 20
14.4966
 11
-30.7466
 21
14.4966
  0
LINE
  8
0
 10
-30.7466
 20
14.4966
 11
-30.7338
 21
24.2529
  0
LINE
  8
0
 10
-30.7338
 20
24.2529
 11
-40.5029
 21
24.2529
  0
LINE
  8
0
 10
-40.5029
 20
24.2529
 11
-40.5029
 21
22.0076
  0
LINE
  8
0
 10
-40.5029
 20
22.0076
 11
-43.4953
 21
25
  0
LINE
  8
0
 10
-43.4953
 20
25
 11
-40.5029
 21
27.9924
  0
LINE
  8
0
 10
-40.5029
 20
27.9924
 11
-40.5029
 21
25.7471
  0
LINE
  8
0
 10
-40.5029
 20
25.7471
 11
-30.7338
 21
25.7471
  0
LINE
  8
0
 10
-30.7338
 20
25.7471
 11
-30.7466
 21
35.5034
  0
LINE
  8
0
 10
-30.7466
 20
35.5034
 11
-32.9919
 21
35.5034
  0
LINE
  8
0
 10
-32.9919
 20
35.5034
 11
-30
 21
38.4958
  0
LINE
  8
0
 10
-30
 20
38.4958
 11
-27.0081
 21
35.5034
  0
LINE
  8
0
 10
-27.0081
 20
35.5034
 11
-29.2534
 21
35.5034
  0
LINE
  8
0
 10
-29.2534
 20
35.5034
 11
-29.2662
 21
25.7471
  0
LINE
  8
0
 10
-29.2662
 20
25.7471
 11
-19.4971
 21
25.7471
  0
LINE
  8
0
 10
-19.4971
 20
25.7471
 11
-19.4971
 21
27.9924
  0
LINE
  8
0
 10
-19.4971
 20
27.9924
 11
-16.5047
 21
25
  0
LINE
  8
0
 10
-16.5047
 20
25
 11
-19.4971
 21
22.0076
  0
LINE
  8
0
 10
-19.4971
 20
22.0076
 11
-19.4971
 21
24.2529
  0
LINE
  8
0
 10
-19.4971
 20
24.2529
 11
-29.2662
 21
24.2529
  0
LINE
  8
0
 10
-29.2662
 20
24.2529
 11
-29.2534
 21
14.4966
  0
LINE
  8
0
 10
-29.2534
 20
14.4966
 11
-27.0081
 21
14.4966
  0
LINE
  8
0
 10
-27.0081
 20
14.4966
 11
-29.5043
 21
12
  0
LINE
  8
0
 10
-29.5043
 20
12
 11
-30.4957
 21
12
  0
LINE
  8
0
 10
29.5043
 20
12
 11
27.0081
 21
14.4966
  0
LINE
  8
0
 10
27.0081
 20
14.4966
 11
29.2534
 21
14.4966
  0
LINE
  8
0
 10
29.2534
 20
14.4966
 11
29.2662
 21
24.2529
  0
LINE
  8
0
 10
29.2662
 20
24.2529
 11
19.4971
 21
24.2529
  0
LINE
  8
0
 10
19.4971
 20
24.2529
 11
19.4971
 21
22.0076
  0
LINE
  8
0
 10
19.4971
 20
22.0076
 11
16.5047
 21
25
  0
LINE
  8
0
 10
16.5047
 20
25
 11
19.4971
 21
27.9924
  0
LINE
  8
0
 10
19.4971
 20
27.9924
 11
19.4971
 21
25.7471
  0
LINE
  8
0
 10
19.4971
 20
25.7471
 11
29.2662
 21
25.7471
  0
LINE
  8
0
 10
29.2662
 20
25.7471
 11
29.2534
 21
35.5034
  0
LINE
  8
0
 10
29.2534
 20
35.5034
 11
27.0081
 21
35.5034
  0
LINE
  8
0
 10
27.0081
 20
35.5034
 11
30
 21
38.4958
  0
LINE
  8
0
 10
30
 20
38.4958
 11
32.9919
 21
35.5034
  0
LINE
  8
0
 10
32.9919
 20
35.5034
 11
30.7466
 21
35.5034
  0
LINE
  8
0
 10
30.7466
 20
35.5034
 11
30.7338
 21
25.7471
  0
LINE
  8
0
 10
30.7338
 20
25.7471
 11
40.5029
 21
25.7471
  0
LINE
  8
0
 10
40.5029
 20
25.7471
 11
40.5029
 21
27.9924
  0
LINE
  8
0
 10
40.5029
 20
27.9924
 11
43.4953
 21
25
  0
LINE
  8
0
 10
43.4953
 20
25
 11
40.5029
 21
22.0076
  0
LINE
  8
0
 10
40.5029
 20
22.0076
 11
40.5029
 21
24.2529
  0
LINE
  8
0
 10
40.5029
 20
24.2529
 11
30.7338
 21
24.2529
  0
LINE
  8
0
 10
30.7338
 20
24.2529
 11
30.7466
 21
14.4966
  0
LINE
  8
0
 10
30.7466
 20
14.4966
 11
32.9919
 21
14.4966
  0
LINE
  8
0
 10
32.9919
 20
14.4966
 11
30.4957
 21
12
  0
LINE
  8
0
 10
30.4957
 20
12
 11
29.5043
 21
12
  0
LINE
  8
0
 10
-49.4971
 20
24.2529
 11
-54.5022
 21
24.2529
  0
LINE
  8
0
 10
-54.5022
 20
24.2529
 11
-54.0167
 21
25.7471
  0
LINE
  8
0
 10
-54.0167
 20
25.7471
 11
-49.4971
 21
25.7471
  0
LINE
  8
0
 10
-49.4971
 20
25.7471
 11
-49.4971
 21
27.9924
  0
LINE
  8
0
 10
-49.4971
 20
27.9924
 11
-46.5047
 21
25
  0
LINE
  8
0
 10
-46.5047
 20
25
 11
-49.4971
 21
22.0076
  0
LINE
  8
0
 10
-49.4971
 20
22.0076
 11
-49.4971
 21
24.2529
  0
LINE
  8
0
 10
46.5047
 20
25
 11
49.4971
 21
27.9924
  0
LINE
  8
0
 10
49.4971
 20
27.9924
 11
49.4971
 21
25.7471
  0
LINE
  8
0
 10
49.4971
 20
25.7471
 11
54.0167
 21
25.7471
  0
LINE
  8
0
 10
54.0167
 20
25.7471
 11
54.5022
 21
24.2529
  0
LINE
  8
0
 10
54.5022
 20
24.2529
 11
49.4971
 21
24.2529
  0
LINE
  8
0
 10
49.4971
 20
24.2529
 11
49.4971
 21
22.0076
  0
LINE
  8
0
 10
49.4971
 20
22.0076
 11
46.5047
 21
25
  0
LINE
  8
0
 10
14.2529
 20
12
 11
14.2529
 21
20.5029
  0
LINE
  8
0
 10
14.2529
 20
20.5029
 11
12.0076
 21
20.5029
  0
LINE
  8
0
 10
12.0076
 20
20.5029
 11
15
 21
23.4953
  0
LINE
  8
0
 10
15
 20
23.4953
 11
17.9924
 21
20.5029
  0
LINE
  8
0
 10
17.9924
 20
20.5029
 11
15.7471
 21
20.5029
  0
LINE
  8
0
 10
15.7471
 20
20.5029
 11
15.7471
 21
12
  0
LINE
  8
0
 10
15.7471
 20
12
 11
14.2529
 21
12
  0
LINE
  8
0
 10
44.2529
 20
12
 11
44.2529
 21
20.5029
  0
LINE
  8
0
 10
44.2529
 20
20.5029
 11
42.0076
 21
20.5029
  0
LINE
  8
0
 10
42.0076
 20
20.5029
 11
45
 21
23.4953
  0
LINE
  8
0
 10
45
 20
23.4953
 11
47.9924
 21
20.5029
  0
LINE
  8
0
 10
47.9924
 20
20.5029
 11
45.7471
 21
20.5029
  0
LINE
  8
0
 10
45.7471
 20
20.5029
 11
45.7471
 21
12
  0
LINE
  8
0
 10
45.7471
 20
12
 11
44.2529
 21
12
  0
LINE
  8
0
 10
-45.7471
 20
12
 11
-45.7471
 21
20.5029
  0
LINE
  8
0
 10
-45.7471
 20
20.5029
 11
-47.9924
 21
20.5029
  0
LINE
  8
0
 10
-47.9924
 20
20.5029
 11
-45
 21
23.4953
  0
LINE
  8
0
 10
-45
 20
23.4953
 11
-42.0076
 21
20.5029
  0
LINE
  8
0
 10
-42.0076
 20
20.5029
 11
-44.2529
 21
20.5029
  0
LINE
  8
0
 10
-44.2529
 20
20.5029
 11
-44.2529
 21
12
  0
LINE
  8
0
 10
-44.2529
 20
12
 11
-45.7471
 21
12
  0
LINE
  8
0
 10
-15.7471
 20
12
 11
-15.7471
 21
20.5029
  0
LINE
  8
0
 10
-15.7471
 20
20.5029
 11
-17.9924
 21
20.5029
  0
LINE
  8
0
 10
-17.9924
 20
20.5029
 11
-15
 21
23.4953
  0
LINE
  8
0
 10
-15
 20
23.4953
 11
-12.0076
 21
20.5029
  0
LINE
  8
0
 10
-12.0076
 20
20.5029
 11
-14.2529
 21
20.5029
  0
LINE
  8
0
 10
-14.2529
 20
20.5029
 11
-14.2529
 21
12
  0
LINE
  8
0
 10
-14.2529
 20
12
 11
-15.7471
 21
12
  0
LINE
  8
0
 10
-57.6722
 20
14.4966
 11
-57.0081
 21
14.4966
  0
LINE
  8
0
 10
-57.0081
 20
14.4966
 11
-57.9919
 21
13.5126
  0
LINE
  8
0
 10
-57.9919
 20
13.5126
 11
-57.6722
 21
14.4966
  0
LINE
  8
0
 10
57.0081
 20
14.4966
 11
57.6722
 21
14.4966
  0
LINE
  8
0
 10
57.6722
 20
14.4966
 11
57.9919
 21
13.5126
  0
LINE
  8
0
 10
57.9919
 20
13.5126
 11
57.0081
 21
14.4966
  0
LINE
  8
0
 10
25.5034
 20
12
 11
25.5034
 21
12.9919
  0
LINE
  8
0
 10
25.5034
 20
12.9919
 11
26.4955
 21
12
  0
LINE
  8
0
 10
26.4955
 20
12
 11
25.5034
 21
12
  0
LINE
  8
0
 10
3.50452
 20
12
 11
4.49661
 21
12.9919
  0
LINE
  8
0
 10
4.49661
 20
12.9919
 11
4.49661
 21
12
  0
LINE
  8
0
 10
4.49661
 20
12
 11
3.50452
 21
12
  0
LINE
  8
0
 10
55.5034
 20
12
 11
55.5034
 21
12.9919
  0
LINE
  8
0
 10
55.5034
 20
12.9919
 11
56.4955
 21
12
  0
LINE
  8
0
 10
56.4955
 20
12
 11
55.5034
 21
12
  0
LINE
  8
0
 10
33.5045
 20
12
 11
34.4966
 21
12.9919
  0
LINE
  8
0
 10
34.4966
 20
12.9919
 11
34.4966
 21
12
  0
LINE
  8
0
 10
34.4966
 20
12
 11
33.5045
 21
12
  0
LINE
  8
0
 10
-26.4955
 20
12
 11
-25.5034
 21
12.9919
  0
LINE
  8
0
 10
-25.5034
 20
12.9919
 11
-25.5034
 21
12
  0
LINE
  8
0
 10
-25.5034
 20
12
 11
-26.4955
 21
12
  0
LINE
  8
0
 10
-4.49661
 20
12
 11
-4.49661
 21
12.9919
  0
LINE
  8
0
 10
-4.49661
 20
12.9919
 11
-3.50452
 21
12
  0
LINE
  8
0
 10
-3.50452
 20
12
 11
-4.49661
 21
12
  0
LINE
  8
0
 10
-56.4955
 20
12
 11
-55.5034
 21
12.9919
  0
LINE
  8
0
 10
-55.5034
 20
12.9919
 11
-55.5034
 21
12
  0
LINE
  8
0
 10
-55.5034
 20
12
 11
-56.4955
 21
12
  0
LINE
  8
0
 10
-34.4966
 20
12
 11
-34.4966
 21
12.9919
  0
LINE
  8
0
 10
-34.4966
 20
12.9919
 11
-33.5045
 21
12
  0
LINE
  8
0
 10
-33.5045
 20
12
 11
-34.4966
 21
12
  0
LINE
  8
0
 10
-10
 20
7
 11
-10
 21
11
  0
LINE
  8
0
 10
-10
 20
11
 11
10
 21
11
  0
LINE
  8
0
 10
10
 20
11
 11
10
 21
7
  0
LINE
  8
0
 10
10
 20
7
 11
-10
 21
7
  0
LINE
  8
0
 10
-68.6534
 20
2.70622
 11
-68.7785
 21
2.71805
  0
LINE
  8
0
 10
-68.7785
 20
2.71805
 11
-68.9026
 21
2.7377
  0
LINE
  8
0
 10
-68.9026
 20
2.7377
 11
-69.0252
 21
2.76511
  0
LINE
  8
0
 10
-69.0252
 20
2.76511
 11
-69.1459
 21
2.80016
  0
LINE
  8
0
 10
-69.1459
 20
2.80016
 11
-69.2641
 21
2.84273
  0
LINE
  8
0
 10
-69.2641
 20
2.84273
 11
-69.3794
 21
2.89262
  0
LINE
  8
0
 10
-69.3794
 20
2.89262
 11
-69.4914
 21
2.94966
  0
LINE
  8
0
 10
-69.4914
 20
2.94966
 11
-69.5995
 21
3.01363
  0
LINE
  8
0
 10
-69.5995
 20
3.01363
 11
-69.7034
 21
3.08424
  0
LINE
  8
0
 10
-69.7034
 20
3.08424
 11
-69.8027
 21
3.16125
  0
LINE
  8
0
 10
-69.8027
 20
3.16125
 11
-69.897
 21
3.24434
  0
LINE
  8
0
 10
-69.897
 20
3.24434
 11
-69.9858
 21
3.33318
  0
LINE
  8
0
 10
-69.9858
 20
3.33318
 11
-70.0689
 21
3.42743
  0
LINE
  8
0
 10
-70.0689
 20
3.42743
 11
-70.1459
 21
3.5267
  0
LINE
  8
0
 10
-70.1459
 20
3.5267
 11
-70.2165
 21
3.63062
  0
LINE
  8
0
 10
-70.2165
 20
3.63062
 11
-70.2805
 21
3.73877
  0
LINE
  8
0
 10
-70.2805
 20
3.73877
 11
-70.3375
 21
3.85072
  0
LINE
  8
0
 10
-70.3375
 20
3.85072
 11
-70.3874
 21
3.96602
  0
LINE
  8
0
 10
-70.3874
 20
3.96602
 11
-70.43
 21
4.08424
  0
LINE
  8
0
 10
-70.43
 20
4.08424
 11
-70.465
 21
4.2049
  0
LINE
  8
0
 10
-70.465
 20
4.2049
 11
-70.4924
 21
4.32751
  0
LINE
  8
0
 10
-70.4924
 20
4.32751
 11
-70.5121
 21
4.45161
  0
LINE
  8
0
 10
-70.5121
 20
4.45161
 11
-70.5239
 21
4.57669
  0
LINE
  8
0
 10
-70.5239
 20
4.57669
 11
-70.5279
 21
4.70227
  0
LINE
  8
0
 10
-70.5279
 20
4.70227
 11
-70.5239
 21
4.82785
  0
LINE
  8
0
 10
-70.5239
 20
4.82785
 11
-70.5121
 21
4.95294
  0
LINE
  8
0
 10
-70.5121
 20
4.95294
 11
-70.4924
 21
5.07704
  0
LINE
  8
0
 10
-70.4924
 20
5.07704
 11
-70.465
 21
5.19966
  0
LINE
  8
0
 10
-70.465
 20
5.19966
 11
-70.43
 21
5.32031
  0
LINE
  8
0
 10
-70.43
 20
5.32031
 11
-70.3874
 21
5.43852
  0
LINE
  8
0
 10
-70.3874
 20
5.43852
 11
-70.3375
 21
5.55383
  0
LINE
  8
0
 10
-70.3375
 20
5.55383
 11
-70.2805
 21
5.66579
  0
LINE
  8
0
 10
-70.2805
 20
5.66579
 11
-70.2165
 21
5.77393
  0
LINE
  8
0
 10
-70.2165
 20
5.77393
 11
-70.1459
 21
5.87784
  0
LINE
  8
0
 10
-70.1459
 20
5.87784
 11
-70.0689
 21
5.97713
  0
LINE
  8
0
 10
-70.0689
 20
5.97713
 11
-69.9858
 21
6.07137
  0
LINE
  8
0
 10
-69.9858
 20
6.07137
 11
-69.897
 21
6.16022
  0
LINE
  8
0
 10
-69.897
 20
6.16022
 11
-69.8027
 21
6.2433
  0
LINE
  8
0
 10
-69.8027
 20
6.2433
 11
-69.7034
 21
6.32031
  0
LINE
  8
0
 10
-69.7034
 20
6.32031
 11
-69.5995
 21
6.39093
  0
LINE
  8
0
 10
-69.5995
 20
6.39093
 11
-69.4914
 21
6.4549
  0
LINE
  8
0
 10
-69.4914
 20
6.4549
 11
-69.3794
 21
6.51193
  0
LINE
  8
0
 10
-69.3794
 20
6.51193
 11
-69.2641
 21
6.56183
  0
LINE
  8
0
 10
-69.2641
 20
6.56183
 11
-69.1459
 21
6.60439
  0
LINE
  8
0
 10
-69.1459
 20
6.60439
 11
-69.0252
 21
6.63943
  0
LINE
  8
0
 10
-69.0252
 20
6.63943
 11
-68.9026
 21
6.66685
  0
LINE
  8
0
 10
-68.9026
 20
6.66685
 11
-68.7785
 21
6.68651
  0
LINE
  8
0
 10
-68.7785
 20
6.68651
 11
-68.6534
 21
6.69833
  0
LINE
  8
0
 10
-68.6534
 20
6.69833
 11
-68.5279
 21
6.70227
  0
LINE
  8
0
 10
-68.5279
 20
6.70227
 11
-68.4023
 21
6.69833
  0
LINE
  8
0
 10
-68.4023
 20
6.69833
 11
-68.2772
 21
6.68651
  0
LINE
  8
0
 10
-68.2772
 20
6.68651
 11
-68.1531
 21
6.66685
  0
LINE
  8
0
 10
-68.1531
 20
6.66685
 11
-68.0305
 21
6.63943
  0
LINE
  8
0
 10
-68.0305
 20
6.63943
 11
-67.9098
 21
6.60439
  0
LINE
  8
0
 10
-67.9098
 20
6.60439
 11
-67.7916
 21
6.56183
  0
LINE
  8
0
 10
-67.7916
 20
6.56183
 11
-67.6763
 21
6.51193
  0
LINE
  8
0
 10
-67.6763
 20
6.51193
 11
-67.5643
 21
6.4549
  0
LINE
  8
0
 10
-67.5643
 20
6.4549
 11
-67.4562
 21
6.39093
  0
LINE
  8
0
 10
-67.4562
 20
6.39093
 11
-67.3523
 21
6.32031
  0
LINE
  8
0
 10
-67.3523
 20
6.32031
 11
-67.253
 21
6.2433
  0
LINE
  8
0
 10
-67.253
 20
6.2433
 11
-67.1588
 21
6.16022
  0
LINE
  8
0
 10
-67.1588
 20
6.16022
 11
-67.0699
 21
6.07137
  0
LINE
  8
0
 10
-67.0699
 20
6.07137
 11
-66.9868
 21
5.97713
  0
LINE
  8
0
 10
-66.9868
 20
5.97713
 11
-66.9098
 21
5.87784
  0
LINE
  8
0
 10
-66.9098
 20
5.87784
 11
-66.8392
 21
5.77393
  0
LINE
  8
0
 10
-66.8392
 20
5.77393
 11
-66.7752
 21
5.66579
  0
LINE
  8
0
 10
-66.7752
 20
5.66579
 11
-66.7182
 21
5.55383
  0
LINE
  8
0
 10
-66.7182
 20
5.55383
 11
-66.6683
 21
5.43852
  0
LINE
  8
0
 10
-66.6683
 20
5.43852
 11
-66.6257
 21
5.32031
  0
LINE
  8
0
 10
-66.6257
 20
5.32031
 11
-66.5907
 21
5.19966
  0
LINE
  8
0
 10
-66.5907
 20
5.19966
 11
-66.5633
 21
5.07704
  0
LINE
  8
0
 10
-66.5633
 20
5.07704
 11
-66.5436
 21
4.95294
  0
LINE
  8
0
 10
-66.5436
 20
4.95294
 11
-66.5318
 21
4.82785
  0
LINE
  8
0
 10
-66.5318
 20
4.82785
 11
-66.5279
 21
4.70227
  0
LINE
  8
0
 10
-66.5279
 20
4.70227
 11
-66.5318
 21
4.57669
  0
LINE
  8
0
 10
-66.5318
 20
4.57669
 11
-66.5436
 21
4.45161
  0
LINE
  8
0
 10
-66.5436
 20
4.45161
 11
-66.5633
 21
4.32751
  0
LINE
  8
0
 10
-66.5633
 20
4.32751
 11
-66.5907
 21
4.2049
  0
LINE
  8
0
 10
-66.5907
 20
4.2049
 11
-66.6257
 21
4.08424
  0
LINE
  8
0
 10
-66.6257
 20
4.08424
 11
-66.6683
 21
3.96602
  0
LINE
  8
0
 10
-66.6683
 20
3.96602
 11
-66.7182
 21
3.85072
  0
LINE
  8
0
 10
-66.7182
 20
3.85072
 11
-66.7752
 21
3.73877
  0
LINE
  8
0
 10
-66.7752
 20
3.73877
 11
-66.8392
 21
3.63062
  0
LINE
  8
0
 10
-66.8392
 20
3.63062
 11
-66.9098
 21
3.5267
  0
LINE
  8
0
 10
-66.9098
 20
3.5267
 11
-66.9868
 21
3.42743
  0
LINE
  8
0
 10
-66.9868
 20
3.42743
 11
-67.0699
 21
3.33318
  0
LINE
  8
0
 10
-67.0699
 20
3.33318
 11
-67.1588
 21
3.24434
  0
LINE
  8
0
 10
-67.1588
 20
3.24434
 11
-67.253
 21
3.16125
  0
LINE
  8
0
 10
-67.253
 20
3.16125
 11
-67.3523
 21
3.08424
  0
LINE
  8
0
 10
-67.3523
 20
3.08424
 11
-67.4562
 21
3.01363
  0
LINE
  8
0
 10
-67.4562
 20
3.01363
 11
-67.5643
 21
2.94966
  0
LINE
  8
0
 10
-67.5643
 20
2.94966
 11
-67.6763
 21
2.89262
  0
LINE
  8
0
 10
-67.6763
 20
2.89262
 11
-67.7916
 21
2.84273
  0
LINE
  8
0
 10
-67.7916
 20
2.84273
 11
-67.9098
 21
2.80016
  0
LINE
  8
0
 10
-67.9098
 20
2.80016
 11
-68.0305
 21
2.76511
  0
LINE
  8
0
 10
-68.0305
 20
2.76511
 11
-68.1531
 21
2.7377
  0
LINE
  8
0
 10
-68.1531
 20
2.7377
 11
-68.2772
 21
2.71805
  0
LINE
  8
0
 10
-68.2772
 20
2.71805
 11
-68.4023
 21
2.70622
  0
LINE
  8
0
 10
-68.4023
 20
2.70622
 11
-68.5279
 21
2.70227
  0
LINE
  8
0
 10
-68.5279
 20
2.70227
 11
-68.6534
 21
2.70622
  0
LINE
  8
0
 10
68.4023
 20
2.70622
 11
68.2772
 21
2.71805
  0
LINE
  8
0
 10
68.2772
 20
2.71805
 11
68.1531
 21
2.7377
  0
LINE
  8
0
 10
68.1531
 20
2.7377
 11
68.0305
 21
2.76511
  0
LINE
  8
0
 10
68.0305
 20
2.76511
 11
67.9098
 21
2.80016
  0
LINE
  8
0
 10
67.9098
 20
2.80016
 11
67.7916
 21
2.84273
  0
LINE
  8
0
 10
67.7916
 20
2.84273
 11
67.6763
 21
2.89262
  0
LINE
  8
0
 10
67.6763
 20
2.89262
 11
67.5643
 21
2.94966
  0
LINE
  8
0
 10
67.5643
 20
2.94966
 11
67.4562
 21
3.01363
  0
LINE
  8
0
 10
67.4562
 20
3.01363
 11
67.3523
 21
3.08424
  0
LINE
  8
0
 10
67.3523
 20
3.08424
 11
67.253
 21
3.16125
  0
LINE
  8
0
 10
67.253
 20
3.16125
 11
67.1588
 21
3.24434
  0
LINE
  8
0
 10
67.1588
 20
3.24434
 11
67.0699
 21
3.33318
  0
LINE
  8
0
 10
67.0699
 20
3.33318
 11
66.9868
 21
3.42743
  0
LINE
  8
0
 10
66.9868
 20
3.42743
 11
66.9098
 21
3.5267
  0
LINE
  8
0
 10
66.9098
 20
3.5267
 11
66.8392
 21
3.63062
  0
LINE
  8
0
 10
66.8392
 20
3.63062
 11
66.7752
 21
3.73877
  0
LINE
  8
0
 10
66.7752
 20
3.73877
 11
66.7182
 21
3.85072
  0
LINE
  8
0
 10
66.7182
 20
3.85072
 11
66.6683
 21
3.96602
  0
LINE
  8
0
 10
66.6683
 20
3.96602
 11
66.6257
 21
4.08424
  0
LINE
  8
0
 10
66.6257
 20
4.08424
 11
66.5907
 21
4.2049
  0
LINE
  8
0
 10
66.5907
 20
4.2049
 11
66.5633
 21
4.32751
  0
LINE
  8
0
 10
66.5633
 20
4.32751
 11
66.5436
 21
4.45161
  0
LINE
  8
0
 10
66.5436
 20
4.45161
 11
66.5318
 21
4.57669
  0
LINE
  8
0
 10
66.5318
 20
4.57669
 11
66.5279
 21
4.70227
  0
LINE
  8
0
 10
66.5279
 20
4.70227
 11
66.5318
 21
4.82785
  0
LINE
  8
0
 10
66.5318
 20
4.82785
 11
66.5436
 21
4.95294
  0
LINE
  8
0
 10
66.5436
 20
4.95294
 11
66.5633
 21
5.07704
  0
LINE
  8
0
 10
66.5633
 20
5.07704
 11
66.5907
 21
5.19966
  0
LINE
  8
0
 10
66.5907
 20
5.19966
 11
66.6257
 21
5.32031
  0
LINE
  8
0
 10
66.6257
 20
5.32031
 11
66.6683
 21
5.43852
  0
LINE
  8
0
 10
66.6683
 20
5.43852
 11
66.7182
 21
5.55383
  0
LINE
  8
0
 10
66.7182
 20
5.55383
 11
66.7752
 21
5.66579
  0
LINE
  8
0
 10
66.7752
 20
5.66579
 11
66.8392
 21
5.77393
  0
LINE
  8
0
 10
66.8392
 20
5.77393
 11
66.9098
 21
5.87784
  0
LINE
  8
0
 10
66.9098
 20
5.87784
 11
66.9868
 21
5.97713
  0
LINE
  8
0
 10
66.9868
 20
5.97713
 11
67.0699
 21
6.07137
  0
LINE
  8
0
 10
67.0699
 20
6.07137
 11
67.1588
 21
6.16022
  0
LINE
  8
0
 10
67.1588
 20
6.16022
 11
67.253
 21
6.2433
  0
LINE
  8
0
 10
67.253
 20
6.2433
 11
67.3523
 21
6.32031
  0
LINE
  8
0
 10
67.3523
 20
6.32031
 11
67.4562
 21
6.39093
  0
LINE
  8
0
 10
67.4562
 20
6.39093
 11
67.5643
 21
6.4549
  0
LINE
  8
0
 10
67.5643
 20
6.4549
 11
67.6763
 21
6.51193
  0
LINE
  8
0
 10
67.6763
 20
6.51193
 11
67.7916
 21
6.56183
  0
LINE
  8
0
 10
67.7916
 20
6.56183
 11
67.9098
 21
6.60439
  0
LINE
  8
0
 10
67.9098
 20
6.60439
 11
68.0305
 21
6.63943
  0
LINE
  8
0
 10
68.0305
 20
6.63943
 11
68.1531
 21
6.66685
  0
LINE
  8
0
 10
68.1531
 20
6.66685
 11
68.2772
 21
6.68651
  0
LINE
  8
0
 10
68.2772
 20
6.68651
 11
68.4023
 21
6.69833
  0
LINE
  8
0
 10
68.4023
 20
6.69833
 11
68.5279
 21
6.70227
  0
LINE
  8
0
 10
68.5279
 20
6.70227
 11
68.6534
 21
6.69833
  0
LINE
  8
0
 10
68.6534
 20
6.69833
 11
68.7785
 21
6.68651
  0
LINE
  8
0
 10
68.7785
 20
6.68651
 11
68.9026
 21
6.66685
  0
LINE
  8
0
 10
68.9026
 20
6.66685
 11
69.0252
 21
6.63943
  0
LINE
  8
0
 10
69.0252
 20
6.63943
 11
69.1459
 21
6.60439
  0
LINE
  8
0
 10
69.1459
 20
6.60439
 11
69.2641
 21
6.56183
  0
LINE
  8
0
 10
69.2641
 20
6.56183
 11
69.3794
 21
6.51193
  0
LINE
  8
0
 10
69.3794
 20
6.51193
 11
69.4914
 21
6.4549
  0
LINE
  8
0
 10
69.4914
 20
6.4549
 11
69.5995
 21
6.39093
  0
LINE
  8
0
 10
69.5995
 20
6.39093
 11
69.7034
 21
6.32031
  0
LINE
  8
0
 10
69.7034
 20
6.32031
 11
69.8027
 21
6.2433
  0
LINE
  8
0
 10
69.8027
 20
6.2433
 11
69.897
 21
6.16022
  0
LINE
  8
0
 10
69.897
 20
6.16022
 11
69.9858
 21
6.07137
  0
LINE
  8
0
 10
69.9858
 20
6.07137
 11
70.0689
 21
5.97713
  0
LINE
  8
0
 10
70.0689
 20
5.97713
 11
70.1459
 21
5.87784
  0
LINE
  8
0
 10
70.1459
 20
5.87784
 11
70.2165
 21
5.77393
  0
LINE
  8
0
 10
70.2165
 20
5.77393
 11
70.2805
 21
5.66579
  0
LINE
  8
0
 10
70.2805
 20
5.66579
 11
70.3375
 21
5.55383
  0
LINE
  8
0
 10
70.3375
 20
5.55383
 11
70.3874
 21
5.43852
  0
LINE
  8
0
 10
70.3874
 20
5.43852
 11
70.43
 21
5.32031
  0
LINE
  8
0
 10
70.43
 20
5.32031
 11
70.465
 21
5.19966
  0
LINE
  8
0
 10
70.465
 20
5.19966
 11
70.4924
 21
5.07704
  0
LINE
  8
0
 10
70.4924
 20
5.07704
 11
70.5121
 21
4.95294
  0
LINE
  8
0
 10
70.5121
 20
4.95294
 11
70.5239
 21
4.82785
  0
LINE
  8
0
 10
70.5239
 20
4.82785
 11
70.5279
 21
4.70227
  0
LINE
  8
0
 10
70.5279
 20
4.70227
 11
70.5239
 21
4.57669
  0
LINE
  8
0
 10
70.5239
 20
4.57669
 11
70.5121
 21
4.45161
  0
LINE
  8
0
 10
70.5121
 20
4.45161
 11
70.4924
 21
4.32751
  0
LINE
  8
0
 10
70.4924
 20
4.32751
 11
70.465
 21
4.2049
  0
LINE
  8
0
 10
70.465
 20
4.2049
 11
70.43
 21
4.08424
  0
LINE
  8
0
 10
70.43
 20
4.08424
 11
70.3874
 21
3.96602
  0
LINE
  8
0
 10
70.3874
 20
3.96602
 11
70.3375
 21
3.85072
  0
LINE
  8
0
 10
70.3375
 20
3.85072
 11
70.2805
 21
3.73877
  0
LINE
  8
0
 10
70.2805
 20
3.73877
 11
70.2165
 21
3.63062
  0
LINE
  8
0
 10
70.2165
 20
3.63062
 11
70.1459
 21
3.5267
  0
LINE
  8
0
 10
70.1459
 20
3.5267
 11
70.0689
 21
3.42743
  0
LINE
  8
0
 10
70.0689
 20
3.42743
 11
69.9858
 21
3.33318
  0
LINE
  8
0
 10
69.9858
 20
3.33318
 11
69.897
 21
3.24434
  0
LINE
  8
0
 10
69.897
 20
3.24434
 11
69.8027
 21
3.16125
  0
LINE
  8
0
 10
69.8027
 20
3.16125
 11
69.7034
 21
3.08424
  0
LINE
  8
0
 10
69.7034
 20
3.08424
 11
69.5995
 21
3.01363
  0
LINE
  8
0
 10
69.5995
 20
3.01363
 11
69.4914
 21
2.94966
  0
LINE
  8
0
 10
69.4914
 20
2.94966
 11
69.3794
 21
2.89262
  0
LINE
  8
0
 10
69.3794
 20
2.89262
 11
69.2641
 21
2.84273
  0
LINE
  8
0
 10
69.2641
 20
2.84273
 11
69.1459
 21
2.80016
  0
LINE
  8
0
 10
69.1459
 20
2.80016
 11
69.0252
 21
2.76511
  0
LINE
  8
0
 10
69.0252
 20
2.76511
 11
68.9026
 21
2.7377
  0
LINE
  8
0
 10
68.9026
 20
2.7377
 11
68.7785
 21
2.71805
  0
LINE
  8
0
 10
68.7785
 20
2.71805
 11
68.6534
 21
2.70622
  0
LINE
  8
0
 10
68.6534
 20
2.70622
 11
68.5279
 21
2.70227
  0
LINE
  8
0
 10
68.5279
 20
2.70227
 11
68.4023
 21
2.70622
  0
ENDSEC
  0
SECTION
  2
OBJECTS
  0
DICTIONARY
  0
ENDSEC
  0
EOF
