  0
SECTION
  2
BLOCKS
  0
ENDSEC
  0
SECTION
  2
ENTITIES
  0
LINE
  8
0
 10
0
 20
230.826
 11
-75
 21
0
  0
LINE
  8
0
 10
-75
 20
0
 11
75
 21
0
  0
LINE
  8
0
 10
75
 20
0
 11
0
 21
230.826
  0
LINE
  8
0
 10
-0.209045
 20
212.837
 11
-0.415817
 21
212.87
  0
LINE
  8
0
 10
-0.415817
 20
212.87
 11
-0.618027
 21
212.924
  0
LINE
  8
0
 10
-0.618027
 20
212.924
 11
-0.813461
 21
212.999
  0
LINE
  8
0
 10
-0.813461
 20
212.999
 11
-1
 21
213.094
  0
LINE
  8
0
 10
-1
 20
213.094
 11
-1.17557
 21
213.208
  0
LINE
  8
0
 10
-1.17557
 20
213.208
 11
-1.33826
 21
213.34
  0
LINE
  8
0
 10
-1.33826
 20
213.34
 11
-1.48628
 21
213.488
  0
LINE
  8
0
 10
-1.48628
 20
213.488
 11
-1.61803
 21
213.651
  0
LINE
  8
0
 10
-1.61803
 20
213.651
 11
-1.73204
 21
213.826
  0
LINE
  8
0
 10
-1.73204
 20
213.826
 11
-1.82709
 21
214.013
  0
LINE
  8
0
 10
-1.82709
 20
214.013
 11
-1.9021
 21
214.208
  0
LINE
  8
0
 10
-1.9021
 20
214.208
 11
-1.95628
 21
214.41
  0
LINE
  8
0
 10
-1.95628
 20
214.41
 11
-1.98903
 21
214.617
  0
LINE
  8
0
 10
-1.98903
 20
214.617
 11
-2
 21
214.826
  0
LINE
  8
0
 10
-2
 20
214.826
 11
-1.98903
 21
215.035
  0
LINE
  8
0
 10
-1.98903
 20
215.035
 11
-1.95628
 21
215.242
  0
LINE
  8
0
 10
-1.95628
 20
215.242
 11
-1.9021
 21
215.444
  0
LINE
  8
0
 10
-1.9021
 20
215.444
 11
-1.82709
 21
215.64
  0
LINE
  8
0
 10
-1.82709
 20
215.64
 11
-1.73204
 21
215.826
  0
LINE
  8
0
 10
-1.73204
 20
215.826
 11
-1.61803
 21
216.002
  0
LINE
  8
0
 10
-1.61803
 20
216.002
 11
-1.48628
 21
216.165
  0
LINE
  8
0
 10
-1.48628
 20
216.165
 11
-1.33826
 21
216.313
  0
LINE
  8
0
 10
-1.33826
 20
216.313
 11
-1.17557
 21
216.444
  0
LINE
  8
0
 10
-1.17557
 20
216.444
 11
-1
 21
216.558
  0
LINE
  8
0
 10
-1
 20
216.558
 11
-0.813461
 21
216.653
  0
LINE
  8
0
 10
-0.813461
 20
216.653
 11
-0.618027
 21
216.728
  0
LINE
  8
0
 10
-0.618027
 20
216.728
 11
-0.415817
 21
216.783
  0
LINE
  8
0
 10
-0.415817
 20
216.783
 11
-0.209045
 21
216.815
  0
LINE
  8
0
 10
-0.209045
 20
216.815
 11
0
 21
216.826
  0
LINE
  8
0
 10
0
 20
216.826
 11
0.209045
 21
216.815
  0
LINE
  8
0
 10
0.209045
 20
216.815
 11
0.415817
 21
216.783
  0
LINE
  8
0
 10
0.415817
 20
216.783
 11
0.618027
 21
216.728
  0
LINE
  8
0
 10
0.618027
 20
216.728
 11
0.813461
 21
216.653
  0
LINE
  8
0
 10
0.813461
 20
216.653
 11
1
 21
216.558
  0
LINE
  8
0
 10
1
 20
216.558
 11
1.17557
 21
216.444
  0
LINE
  8
0
 10
1.17557
 20
216.444
 11
1.33826
 21
216.313
  0
LINE
  8
0
 10
1.33826
 20
216.313
 11
1.48628
 21
216.165
  0
LINE
  8
0
 10
1.48628
 20
216.165
 11
1.61803
 21
216.002
  0
LINE
  8
0
 10
1.61803
 20
216.002
 11
1.73204
 21
215.826
  0
LINE
  8
0
 10
1.73204
 20
215.826
 11
1.82709
 21
215.64
  0
LINE
  8
0
 10
1.82709
 20
215.64
 11
1.9021
 21
215.444
  0
LINE
  8
0
 10
1.9021
 20
215.444
 11
1.95628
 21
215.242
  0
LINE
  8
0
 10
1.95628
 20
215.242
 11
1.98903
 21
215.035
  0
LINE
  8
0
 10
1.98903
 20
215.035
 11
2
 21
214.826
  0
LINE
  8
0
 10
2
 20
214.826
 11
1.98903
 21
214.617
  0
LINE
  8
0
 10
1.98903
 20
214.617
 11
1.95628
 21
214.41
  0
LINE
  8
0
 10
1.95628
 20
214.41
 11
1.9021
 21
214.208
  0
LINE
  8
0
 10
1.9021
 20
214.208
 11
1.82709
 21
214.013
  0
LINE
  8
0
 10
1.82709
 20
214.013
 11
1.73204
 21
213.826
  0
LINE
  8
0
 10
1.73204
 20
213.826
 11
1.61803
 21
213.651
  0
LINE
  8
0
 10
1.61803
 20
213.651
 11
1.48628
 21
213.488
  0
LINE
  8
0
 10
1.48628
 20
213.488
 11
1.33826
 21
213.34
  0
LINE
  8
0
 10
1.33826
 20
213.34
 11
1.17557
 21
213.208
  0
LINE
  8
0
 10
1.17557
 20
213.208
 11
1
 21
213.094
  0
LINE
  8
0
 10
1
 20
213.094
 11
0.813461
 21
212.999
  0
LINE
  8
0
 10
0.813461
 20
212.999
 11
0.618027
 21
212.924
  0
LINE
  8
0
 10
0.618027
 20
212.924
 11
0.415817
 21
212.87
  0
LINE
  8
0
 10
0.415817
 20
212.87
 11
0.209045
 21
212.837
  0
LINE
  8
0
 10
0.209045
 20
212.837
 11
0
 21
212.826
  0
LINE
  8
0
 10
0
 20
212.826
 11
-0.209045
 21
212.837
  0
LINE
  8
0
 10
0.488098
 20
186.864
 11
0.488098
 21
189.115
  0
LINE
  8
0
 10
0.488098
 20
189.115
 11
1.03845
 21
188.797
  0
LINE
  8
0
 10
1.03845
 20
188.797
 11
4.37468
 21
178.53
  0
LINE
  8
0
 10
4.37468
 20
178.53
 11
0.488098
 21
186.864
  0
LINE
  8
0
 10
2.40924
 20
175.046
 11
0.488098
 21
179.166
  0
LINE
  8
0
 10
0.488098
 20
179.166
 11
0.488098
 21
183.016
  0
LINE
  8
0
 10
0.488098
 20
183.016
 11
4.86615
 21
173.628
  0
LINE
  8
0
 10
4.86615
 20
173.628
 11
2.40924
 21
175.046
  0
LINE
  8
0
 10
-8.11049
 20
167.032
 11
-6.67259
 21
171.457
  0
LINE
  8
0
 10
-6.67259
 20
171.457
 11
0
 21
175.31
  0
LINE
  8
0
 10
0
 20
175.31
 11
6.67259
 21
171.457
  0
LINE
  8
0
 10
6.67259
 20
171.457
 11
8.11049
 21
167.032
  0
LINE
  8
0
 10
8.11049
 20
167.032
 11
0
 21
162.349
  0
LINE
  8
0
 10
0
 20
162.349
 11
-8.11049
 21
167.032
  0
LINE
  8
0
 10
-8.23596
 20
165.978
 11
-5.78018
 21
164.56
  0
LINE
  8
0
 10
-5.78018
 20
164.56
 11
-0.487717
 21
153.21
  0
LINE
  8
0
 10
-0.487717
 20
153.21
 11
-0.487717
 21
149.362
  0
LINE
  8
0
 10
-0.487717
 20
149.362
 11
-8.23596
 21
165.978
  0
LINE
  8
0
 10
-4.87805
 20
151.079
 11
-9.83804
 21
161.715
  0
LINE
  8
0
 10
-9.83804
 20
161.715
 11
-9.10097
 21
163.984
  0
LINE
  8
0
 10
-9.10097
 20
163.984
 11
-2.42191
 21
149.661
  0
LINE
  8
0
 10
-2.42191
 20
149.661
 11
-4.87805
 21
151.079
  0
LINE
  8
0
 10
-3.32439
 20
163.142
 11
-0.868607
 21
161.724
  0
LINE
  8
0
 10
-0.868607
 20
161.724
 11
-0.487717
 21
160.908
  0
LINE
  8
0
 10
-0.487717
 20
160.908
 11
-0.487717
 21
157.059
  0
LINE
  8
0
 10
-0.487717
 20
157.059
 11
-3.32439
 21
163.142
  0
LINE
  8
0
 10
-9.79074
 20
153.915
 11
-11.3122
 21
157.178
  0
LINE
  8
0
 10
-11.3122
 20
157.178
 11
-10.575
 21
159.447
  0
LINE
  8
0
 10
-10.575
 20
159.447
 11
-7.33385
 21
152.497
  0
LINE
  8
0
 10
-7.33385
 20
152.497
 11
-9.79074
 21
153.915
  0
LINE
  8
0
 10
-15.819
 20
143.308
 11
-12.3068
 21
154.117
  0
LINE
  8
0
 10
-12.3068
 20
154.117
 11
-12.2
 21
154.179
  0
LINE
  8
0
 10
-12.2
 20
154.179
 11
-0.97583
 21
147.698
  0
LINE
  8
0
 10
-0.97583
 20
147.698
 11
-12.2
 21
141.218
  0
LINE
  8
0
 10
-12.2
 20
141.218
 11
-15.819
 21
143.308
  0
LINE
  8
0
 10
0.97583
 20
147.698
 11
12.2
 21
154.179
  0
LINE
  8
0
 10
12.2
 20
154.179
 11
12.3068
 21
154.117
  0
LINE
  8
0
 10
12.3068
 20
154.117
 11
15.819
 21
143.308
  0
LINE
  8
0
 10
15.819
 20
143.308
 11
12.2
 21
141.218
  0
LINE
  8
0
 10
12.2
 20
141.218
 11
0.97583
 21
147.698
  0
LINE
  8
0
 10
7.32193
 20
129.948
 11
0.488098
 21
144.602
  0
LINE
  8
0
 10
0.488098
 20
144.602
 11
0.488098
 21
146.853
  0
LINE
  8
0
 10
0.488098
 20
146.853
 11
1.50787
 21
146.265
  0
LINE
  8
0
 10
1.50787
 20
146.265
 11
9.77809
 21
128.529
  0
LINE
  8
0
 10
9.77809
 20
128.529
 11
7.32193
 21
129.948
  0
LINE
  8
0
 10
3.96402
 20
144.847
 11
6.41982
 21
143.429
  0
LINE
  8
0
 10
6.41982
 20
143.429
 11
11.7123
 21
132.079
  0
LINE
  8
0
 10
11.7123
 20
132.079
 11
11.7123
 21
128.231
  0
LINE
  8
0
 10
11.7123
 20
128.231
 11
3.96402
 21
144.847
  0
LINE
  8
0
 10
-15.5244
 20
142.011
 11
-13.0686
 21
140.593
  0
LINE
  8
0
 10
-13.0686
 20
140.593
 11
-12.6877
 21
139.777
  0
LINE
  8
0
 10
-12.6877
 20
139.777
 11
-12.6877
 21
135.928
  0
LINE
  8
0
 10
-12.6877
 20
135.928
 11
-15.5244
 21
142.011
  0
LINE
  8
0
 10
8.8756
 20
142.011
 11
11.3314
 21
140.593
  0
LINE
  8
0
 10
11.3314
 20
140.593
 11
11.7123
 21
139.777
  0
LINE
  8
0
 10
11.7123
 20
139.777
 11
11.7123
 21
135.928
  0
LINE
  8
0
 10
11.7123
 20
135.928
 11
8.8756
 21
142.011
  0
LINE
  8
0
 10
2.40924
 20
132.784
 11
0.488098
 21
136.904
  0
LINE
  8
0
 10
0.488098
 20
136.904
 11
0.488098
 21
140.754
  0
LINE
  8
0
 10
0.488098
 20
140.754
 11
4.86615
 21
131.366
  0
LINE
  8
0
 10
4.86615
 20
131.366
 11
2.40924
 21
132.784
  0
LINE
  8
0
 10
-17.4202
 20
138.379
 11
-16.6832
 21
140.648
  0
LINE
  8
0
 10
-16.6832
 20
140.648
 11
-12.6877
 21
132.079
  0
LINE
  8
0
 10
-12.6877
 20
132.079
 11
-12.6877
 21
128.231
  0
LINE
  8
0
 10
-12.6877
 20
128.231
 11
-17.4202
 21
138.379
  0
LINE
  8
0
 10
-17.0781
 20
129.948
 11
-18.8944
 21
133.843
  0
LINE
  8
0
 10
-18.8944
 20
133.843
 11
-18.1573
 21
136.111
  0
LINE
  8
0
 10
-18.1573
 20
136.111
 11
-14.6219
 21
128.529
  0
LINE
  8
0
 10
-14.6219
 20
128.529
 11
-17.0781
 21
129.948
  0
LINE
  8
0
 10
-11.2242
 20
126.567
 11
0
 21
133.048
  0
LINE
  8
0
 10
0
 20
133.048
 11
11.2242
 21
126.567
  0
LINE
  8
0
 10
11.2242
 20
126.567
 11
0
 21
120.087
  0
LINE
  8
0
 10
0
 20
120.087
 11
-11.2242
 21
126.567
  0
LINE
  8
0
 10
-19.673
 20
131.446
 11
-19.6313
 21
131.575
  0
LINE
  8
0
 10
-19.6313
 20
131.575
 11
-19.5338
 21
131.366
  0
LINE
  8
0
 10
-19.5338
 20
131.366
 11
-19.673
 21
131.446
  0
LINE
  8
0
 10
-19.9815
 20
130.497
 11
-13.1758
 21
126.567
  0
LINE
  8
0
 10
-13.1758
 20
126.567
 11
-23.1245
 21
120.824
  0
LINE
  8
0
 10
-23.1245
 20
120.824
 11
-19.9815
 21
130.497
  0
LINE
  8
0
 10
13.1758
 20
126.567
 11
19.9815
 21
130.497
  0
LINE
  8
0
 10
19.9815
 20
130.497
 11
23.1245
 21
120.824
  0
LINE
  8
0
 10
23.1245
 20
120.824
 11
13.1758
 21
126.567
  0
LINE
  8
0
 10
-4.87805
 20
108.817
 11
-11.7119
 21
123.471
  0
LINE
  8
0
 10
-11.7119
 20
123.471
 11
-11.7119
 21
125.722
  0
LINE
  8
0
 10
-11.7119
 20
125.722
 11
-10.6921
 21
125.134
  0
LINE
  8
0
 10
-10.6921
 20
125.134
 11
-2.42191
 21
107.398
  0
LINE
  8
0
 10
-2.42191
 20
107.398
 11
-4.87805
 21
108.817
  0
LINE
  8
0
 10
19.5219
 20
108.817
 11
12.6881
 21
123.471
  0
LINE
  8
0
 10
12.6881
 20
123.471
 11
12.6881
 21
125.722
  0
LINE
  8
0
 10
12.6881
 20
125.722
 11
13.7079
 21
125.134
  0
LINE
  8
0
 10
13.7079
 20
125.134
 11
21.9781
 21
107.398
  0
LINE
  8
0
 10
21.9781
 20
107.398
 11
19.5219
 21
108.817
  0
LINE
  8
0
 10
-8.23596
 20
123.715
 11
-5.78018
 21
122.298
  0
LINE
  8
0
 10
-5.78018
 20
122.298
 11
-0.487717
 21
110.948
  0
LINE
  8
0
 10
-0.487717
 20
110.948
 11
-0.487717
 21
107.1
  0
LINE
  8
0
 10
-0.487717
 20
107.1
 11
-8.23596
 21
123.715
  0
LINE
  8
0
 10
16.164
 20
123.715
 11
18.6198
 21
122.298
  0
LINE
  8
0
 10
18.6198
 20
122.298
 11
23.9123
 21
110.948
  0
LINE
  8
0
 10
23.9123
 20
110.948
 11
23.9123
 21
107.1
  0
LINE
  8
0
 10
23.9123
 20
107.1
 11
16.164
 21
123.715
  0
LINE
  8
0
 10
-3.32439
 20
120.88
 11
-0.868607
 21
119.462
  0
LINE
  8
0
 10
-0.868607
 20
119.462
 11
-0.487717
 21
118.646
  0
LINE
  8
0
 10
-0.487717
 20
118.646
 11
-0.487717
 21
114.797
  0
LINE
  8
0
 10
-0.487717
 20
114.797
 11
-3.32439
 21
120.88
  0
LINE
  8
0
 10
21.0756
 20
120.88
 11
23.5314
 21
119.462
  0
LINE
  8
0
 10
23.5314
 20
119.462
 11
23.6483
 21
119.212
  0
LINE
  8
0
 10
23.6483
 20
119.212
 11
23.9123
 21
118.399
  0
LINE
  8
0
 10
23.9123
 20
118.399
 11
23.9123
 21
114.797
  0
LINE
  8
0
 10
23.9123
 20
114.797
 11
21.0756
 21
120.88
  0
LINE
  8
0
 10
-9.79074
 20
111.653
 11
-11.7119
 21
115.773
  0
LINE
  8
0
 10
-11.7119
 20
115.773
 11
-11.7119
 21
119.623
  0
LINE
  8
0
 10
-11.7119
 20
119.623
 11
-7.33385
 21
110.235
  0
LINE
  8
0
 10
-7.33385
 20
110.235
 11
-9.79074
 21
111.653
  0
LINE
  8
0
 10
14.6092
 20
111.653
 11
12.6881
 21
115.773
  0
LINE
  8
0
 10
12.6881
 20
115.773
 11
12.6881
 21
119.623
  0
LINE
  8
0
 10
12.6881
 20
119.623
 11
17.0661
 21
110.235
  0
LINE
  8
0
 10
17.0661
 20
110.235
 11
14.6092
 21
111.653
  0
LINE
  8
0
 10
-25.0027
 20
115.043
 11
-24.8877
 21
115.397
  0
LINE
  8
0
 10
-24.8877
 20
115.397
 11
-24.8877
 21
114.797
  0
LINE
  8
0
 10
-24.8877
 20
114.797
 11
-25.0027
 21
115.043
  0
LINE
  8
0
 10
-26.4766
 20
110.507
 11
-25.7397
 21
112.775
  0
LINE
  8
0
 10
-25.7397
 20
112.775
 11
-24.8877
 21
110.948
  0
LINE
  8
0
 10
-24.8877
 20
110.948
 11
-24.8877
 21
107.1
  0
LINE
  8
0
 10
-24.8877
 20
107.1
 11
-26.4766
 21
110.507
  0
LINE
  8
0
 10
-23.4242
 20
105.436
 11
-12.2
 21
111.916
  0
LINE
  8
0
 10
-12.2
 20
111.916
 11
-0.97583
 21
105.436
  0
LINE
  8
0
 10
-0.97583
 20
105.436
 11
-12.2
 21
98.9562
  0
LINE
  8
0
 10
-12.2
 20
98.9562
 11
-23.4242
 21
105.436
  0
LINE
  8
0
 10
0.97583
 20
105.436
 11
12.2
 21
111.916
  0
LINE
  8
0
 10
12.2
 20
111.916
 11
23.4242
 21
105.436
  0
LINE
  8
0
 10
23.4242
 20
105.436
 11
12.2
 21
98.9562
  0
LINE
  8
0
 10
12.2
 20
98.9562
 11
0.97583
 21
105.436
  0
LINE
  8
0
 10
-27.3816
 20
107.722
 11
-27.2136
 21
108.238
  0
LINE
  8
0
 10
-27.2136
 20
108.238
 11
-26.8219
 21
107.398
  0
LINE
  8
0
 10
-26.8219
 20
107.398
 11
-27.3816
 21
107.722
  0
LINE
  8
0
 10
-27.69
 20
106.772
 11
-25.3758
 21
105.436
  0
LINE
  8
0
 10
-25.3758
 20
105.436
 11
-28.7587
 21
103.483
  0
LINE
  8
0
 10
-28.7587
 20
103.483
 11
-27.69
 21
106.772
  0
LINE
  8
0
 10
25.3758
 20
105.436
 11
27.69
 21
106.772
  0
LINE
  8
0
 10
27.69
 20
106.772
 11
28.7587
 21
103.483
  0
LINE
  8
0
 10
28.7587
 20
103.483
 11
25.3758
 21
105.436
  0
LINE
  8
0
 10
7.32193
 20
87.6855
 11
0.488098
 21
102.34
  0
LINE
  8
0
 10
0.488098
 20
102.34
 11
0.488098
 21
104.591
  0
LINE
  8
0
 10
0.488098
 20
104.591
 11
1.50787
 21
104.003
  0
LINE
  8
0
 10
1.50787
 20
104.003
 11
9.77809
 21
86.2673
  0
LINE
  8
0
 10
9.77809
 20
86.2673
 11
7.32193
 21
87.6855
  0
LINE
  8
0
 10
-17.0781
 20
87.6855
 11
-23.9119
 21
102.34
  0
LINE
  8
0
 10
-23.9119
 20
102.34
 11
-23.9119
 21
104.591
  0
LINE
  8
0
 10
-23.9119
 20
104.591
 11
-22.8921
 21
104.003
  0
LINE
  8
0
 10
-22.8921
 20
104.003
 11
-14.6219
 21
86.2673
  0
LINE
  8
0
 10
-14.6219
 20
86.2673
 11
-17.0781
 21
87.6855
  0
LINE
  8
0
 10
31.7219
 20
87.6855
 11
24.8881
 21
102.34
  0
LINE
  8
0
 10
24.8881
 20
102.34
 11
24.8881
 21
104.591
  0
LINE
  8
0
 10
24.8881
 20
104.591
 11
25.9079
 21
104.003
  0
LINE
  8
0
 10
25.9079
 20
104.003
 11
34.1781
 21
86.2673
  0
LINE
  8
0
 10
34.1781
 20
86.2673
 11
31.7219
 21
87.6855
  0
LINE
  8
0
 10
-20.436
 20
102.584
 11
-17.9802
 21
101.167
  0
LINE
  8
0
 10
-17.9802
 20
101.167
 11
-12.6877
 21
89.8166
  0
LINE
  8
0
 10
-12.6877
 20
89.8166
 11
-12.6877
 21
85.9687
  0
LINE
  8
0
 10
-12.6877
 20
85.9687
 11
-20.436
 21
102.584
  0
LINE
  8
0
 10
28.364
 20
102.584
 11
29.2093
 21
102.097
  0
LINE
  8
0
 10
29.2093
 20
102.097
 11
30.6288
 21
97.7277
  0
LINE
  8
0
 10
30.6288
 20
97.7277
 11
28.364
 21
102.584
  0
LINE
  8
0
 10
3.96402
 20
102.584
 11
6.41982
 21
101.167
  0
LINE
  8
0
 10
6.41982
 20
101.167
 11
11.7123
 21
89.8166
  0
LINE
  8
0
 10
11.7123
 20
89.8166
 11
11.7123
 21
85.9687
  0
LINE
  8
0
 10
11.7123
 20
85.9687
 11
3.96402
 21
102.584
  0
LINE
  8
0
 10
8.8756
 20
99.7488
 11
11.3314
 21
98.3311
  0
LINE
  8
0
 10
11.3314
 20
98.3311
 11
11.7123
 21
97.5146
  0
LINE
  8
0
 10
11.7123
 20
97.5146
 11
11.7123
 21
93.6656
  0
LINE
  8
0
 10
11.7123
 20
93.6656
 11
8.8756
 21
99.7488
  0
LINE
  8
0
 10
-15.5244
 20
99.7488
 11
-13.0686
 21
98.3311
  0
LINE
  8
0
 10
-13.0686
 20
98.3311
 11
-12.6877
 21
97.5146
  0
LINE
  8
0
 10
-12.6877
 20
97.5146
 11
-12.6877
 21
93.6656
  0
LINE
  8
0
 10
-12.6877
 20
93.6656
 11
-15.5244
 21
99.7488
  0
LINE
  8
0
 10
26.8092
 20
90.5221
 11
24.8881
 21
94.6418
  0
LINE
  8
0
 10
24.8881
 20
94.6418
 11
24.8881
 21
98.4919
  0
LINE
  8
0
 10
24.8881
 20
98.4919
 11
29.2661
 21
89.1036
  0
LINE
  8
0
 10
29.2661
 20
89.1036
 11
26.8092
 21
90.5221
  0
LINE
  8
0
 10
-21.9908
 20
90.5221
 11
-23.9119
 21
94.6418
  0
LINE
  8
0
 10
-23.9119
 20
94.6418
 11
-23.9119
 21
98.4919
  0
LINE
  8
0
 10
-23.9119
 20
98.4919
 11
-19.5338
 21
89.1036
  0
LINE
  8
0
 10
-19.5338
 20
89.1036
 11
-21.9908
 21
90.5221
  0
LINE
  8
0
 10
2.40924
 20
90.5221
 11
0.488098
 21
94.6418
  0
LINE
  8
0
 10
0.488098
 20
94.6418
 11
0.488098
 21
98.4919
  0
LINE
  8
0
 10
0.488098
 20
98.4919
 11
4.86615
 21
89.1036
  0
LINE
  8
0
 10
4.86615
 20
89.1036
 11
2.40924
 21
90.5221
  0
LINE
  8
0
 10
-11.2242
 20
84.3052
 11
0
 21
90.7854
  0
LINE
  8
0
 10
0
 20
90.7854
 11
11.2242
 21
84.3052
  0
LINE
  8
0
 10
11.2242
 20
84.3052
 11
0
 21
77.8251
  0
LINE
  8
0
 10
0
 20
77.8251
 11
-11.2242
 21
84.3052
  0
LINE
  8
0
 10
-35.0902
 20
83.9969
 11
-34.8436
 21
84.7559
  0
LINE
  8
0
 10
-34.8436
 20
84.7559
 11
-24.4
 21
90.7854
  0
LINE
  8
0
 10
-24.4
 20
90.7854
 11
-13.1758
 21
84.3052
  0
LINE
  8
0
 10
-13.1758
 20
84.3052
 11
-24.4
 21
77.8251
  0
LINE
  8
0
 10
-24.4
 20
77.8251
 11
-35.0902
 21
83.9969
  0
LINE
  8
0
 10
13.1758
 20
84.3052
 11
24.4
 21
90.7854
  0
LINE
  8
0
 10
24.4
 20
90.7854
 11
34.8436
 21
84.7559
  0
LINE
  8
0
 10
34.8436
 20
84.7559
 11
35.0902
 21
83.9969
  0
LINE
  8
0
 10
35.0902
 20
83.9969
 11
24.4
 21
77.8251
  0
LINE
  8
0
 10
24.4
 20
77.8251
 11
13.1758
 21
84.3052
  0
LINE
  8
0
 10
19.5219
 20
66.5544
 11
12.6881
 21
81.2091
  0
LINE
  8
0
 10
12.6881
 20
81.2091
 11
12.6881
 21
83.4601
  0
LINE
  8
0
 10
12.6881
 20
83.4601
 11
13.7079
 21
82.8714
  0
LINE
  8
0
 10
13.7079
 20
82.8714
 11
21.9781
 21
65.1362
  0
LINE
  8
0
 10
21.9781
 20
65.1362
 11
19.5219
 21
66.5544
  0
LINE
  8
0
 10
-4.87805
 20
66.5544
 11
-11.7119
 21
81.2091
  0
LINE
  8
0
 10
-11.7119
 20
81.2091
 11
-11.7119
 21
83.4601
  0
LINE
  8
0
 10
-11.7119
 20
83.4601
 11
-10.6921
 21
82.8714
  0
LINE
  8
0
 10
-10.6921
 20
82.8714
 11
-2.42191
 21
65.1362
  0
LINE
  8
0
 10
-2.42191
 20
65.1362
 11
-4.87805
 21
66.5544
  0
LINE
  8
0
 10
-29.2781
 20
66.5544
 11
-36.0436
 21
81.0626
  0
LINE
  8
0
 10
-36.0436
 20
81.0626
 11
-35.3984
 21
83.0482
  0
LINE
  8
0
 10
-35.3984
 20
83.0482
 11
-35.0921
 21
82.8714
  0
LINE
  8
0
 10
-35.0921
 20
82.8714
 11
-26.8219
 21
65.1362
  0
LINE
  8
0
 10
-26.8219
 20
65.1362
 11
-29.2781
 21
66.5544
  0
LINE
  8
0
 10
-8.23596
 20
81.4533
 11
-5.78018
 21
80.0359
  0
LINE
  8
0
 10
-5.78018
 20
80.0359
 11
-0.487717
 21
68.6855
  0
LINE
  8
0
 10
-0.487717
 20
68.6855
 11
-0.487717
 21
64.8376
  0
LINE
  8
0
 10
-0.487717
 20
64.8376
 11
-8.23596
 21
81.4533
  0
LINE
  8
0
 10
16.164
 20
81.4533
 11
18.6198
 21
80.0359
  0
LINE
  8
0
 10
18.6198
 20
80.0359
 11
23.9123
 21
68.6855
  0
LINE
  8
0
 10
23.9123
 20
68.6855
 11
23.9123
 21
64.8376
  0
LINE
  8
0
 10
23.9123
 20
64.8376
 11
16.164
 21
81.4533
  0
LINE
  8
0
 10
-32.636
 20
81.4533
 11
-30.1802
 21
80.0359
  0
LINE
  8
0
 10
-30.1802
 20
80.0359
 11
-24.8877
 21
68.6855
  0
LINE
  8
0
 10
-24.8877
 20
68.6855
 11
-24.8877
 21
64.8376
  0
LINE
  8
0
 10
-24.8877
 20
64.8376
 11
-32.636
 21
81.4533
  0
LINE
  8
0
 10
21.0756
 20
78.6178
 11
23.5314
 21
77.2
  0
LINE
  8
0
 10
23.5314
 20
77.2
 11
23.9123
 21
76.3835
  0
LINE
  8
0
 10
23.9123
 20
76.3835
 11
23.9123
 21
72.5345
  0
LINE
  8
0
 10
23.9123
 20
72.5345
 11
21.0756
 21
78.6178
  0
LINE
  8
0
 10
-27.7244
 20
78.6178
 11
-25.2686
 21
77.2
  0
LINE
  8
0
 10
-25.2686
 20
77.2
 11
-24.8877
 21
76.3835
  0
LINE
  8
0
 10
-24.8877
 20
76.3835
 11
-24.8877
 21
72.5345
  0
LINE
  8
0
 10
-24.8877
 20
72.5345
 11
-27.7244
 21
78.6178
  0
LINE
  8
0
 10
-3.32439
 20
78.6178
 11
-0.868607
 21
77.2
  0
LINE
  8
0
 10
-0.868607
 20
77.2
 11
-0.487717
 21
76.3835
  0
LINE
  8
0
 10
-0.487717
 20
76.3835
 11
-0.487717
 21
72.5345
  0
LINE
  8
0
 10
-0.487717
 20
72.5345
 11
-3.32439
 21
78.6178
  0
LINE
  8
0
 10
39.0092
 20
69.3911
 11
37.0881
 21
73.5107
  0
LINE
  8
0
 10
37.0881
 20
73.5107
 11
37.0881
 21
77.3608
  0
LINE
  8
0
 10
37.0881
 20
77.3608
 11
37.6101
 21
76.2414
  0
LINE
  8
0
 10
37.6101
 20
76.2414
 11
40.0268
 21
68.8035
  0
LINE
  8
0
 10
40.0268
 20
68.8035
 11
39.0092
 21
69.3911
  0
LINE
  8
0
 10
-34.1908
 20
69.3911
 11
-36.1119
 21
73.5107
  0
LINE
  8
0
 10
-36.1119
 20
73.5107
 11
-36.1119
 21
77.3608
  0
LINE
  8
0
 10
-36.1119
 20
77.3608
 11
-31.7338
 21
67.9725
  0
LINE
  8
0
 10
-31.7338
 20
67.9725
 11
-34.1908
 21
69.3911
  0
LINE
  8
0
 10
14.6092
 20
69.3911
 11
12.6881
 21
73.5107
  0
LINE
  8
0
 10
12.6881
 20
73.5107
 11
12.6881
 21
77.3608
  0
LINE
  8
0
 10
12.6881
 20
77.3608
 11
17.0661
 21
67.9725
  0
LINE
  8
0
 10
17.0661
 20
67.9725
 11
14.6092
 21
69.3911
  0
LINE
  8
0
 10
-9.79074
 20
69.3911
 11
-11.7119
 21
73.5107
  0
LINE
  8
0
 10
-11.7119
 20
73.5107
 11
-11.7119
 21
77.3608
  0
LINE
  8
0
 10
-11.7119
 20
77.3608
 11
-7.33385
 21
67.9725
  0
LINE
  8
0
 10
-7.33385
 20
67.9725
 11
-9.79074
 21
69.3911
  0
LINE
  8
0
 10
0.97583
 20
63.1741
 11
12.2
 21
69.6543
  0
LINE
  8
0
 10
12.2
 20
69.6543
 11
23.4242
 21
63.1741
  0
LINE
  8
0
 10
23.4242
 20
63.1741
 11
12.2
 21
56.694
  0
LINE
  8
0
 10
12.2
 20
56.694
 11
0.97583
 21
63.1741
  0
LINE
  8
0
 10
25.3758
 20
63.1741
 11
36.6
 21
69.6543
  0
LINE
  8
0
 10
36.6
 20
69.6543
 11
40.4778
 21
67.4155
  0
LINE
  8
0
 10
40.4778
 20
67.4155
 11
42.7986
 21
60.2727
  0
LINE
  8
0
 10
42.7986
 20
60.2727
 11
36.6
 21
56.694
  0
LINE
  8
0
 10
36.6
 20
56.694
 11
25.3758
 21
63.1741
  0
LINE
  8
0
 10
-42.7986
 20
60.2727
 11
-40.4778
 21
67.4155
  0
LINE
  8
0
 10
-40.4778
 20
67.4155
 11
-36.6
 21
69.6543
  0
LINE
  8
0
 10
-36.6
 20
69.6543
 11
-25.3758
 21
63.1741
  0
LINE
  8
0
 10
-25.3758
 20
63.1741
 11
-36.6
 21
56.694
  0
LINE
  8
0
 10
-36.6
 20
56.694
 11
-42.7986
 21
60.2727
  0
LINE
  8
0
 10
-23.4242
 20
63.1741
 11
-12.2
 21
69.6543
  0
LINE
  8
0
 10
-12.2
 20
69.6543
 11
-0.97583
 21
63.1741
  0
LINE
  8
0
 10
-0.97583
 20
63.1741
 11
-12.2
 21
56.694
  0
LINE
  8
0
 10
-12.2
 20
56.694
 11
-23.4242
 21
63.1741
  0
LINE
  8
0
 10
31.7219
 20
45.4233
 11
24.8881
 21
60.078
  0
LINE
  8
0
 10
24.8881
 20
60.078
 11
24.8881
 21
62.329
  0
LINE
  8
0
 10
24.8881
 20
62.329
 11
25.9079
 21
61.7404
  0
LINE
  8
0
 10
25.9079
 20
61.7404
 11
34.1781
 21
44.0052
  0
LINE
  8
0
 10
34.1781
 20
44.0052
 11
31.7219
 21
45.4233
  0
LINE
  8
0
 10
7.32193
 20
45.4233
 11
0.488098
 21
60.078
  0
LINE
  8
0
 10
0.488098
 20
60.078
 11
0.488098
 21
62.329
  0
LINE
  8
0
 10
0.488098
 20
62.329
 11
1.50787
 21
61.7404
  0
LINE
  8
0
 10
1.50787
 20
61.7404
 11
9.77809
 21
44.0052
  0
LINE
  8
0
 10
9.77809
 20
44.0052
 11
7.32193
 21
45.4233
  0
LINE
  8
0
 10
-17.0781
 20
45.4233
 11
-23.9119
 21
60.078
  0
LINE
  8
0
 10
-23.9119
 20
60.078
 11
-23.9119
 21
62.329
  0
LINE
  8
0
 10
-23.9119
 20
62.329
 11
-22.8921
 21
61.7404
  0
LINE
  8
0
 10
-22.8921
 20
61.7404
 11
-14.6219
 21
44.0052
  0
LINE
  8
0
 10
-14.6219
 20
44.0052
 11
-17.0781
 21
45.4233
  0
LINE
  8
0
 10
-20.436
 20
60.3222
 11
-17.9802
 21
58.9048
  0
LINE
  8
0
 10
-17.9802
 20
58.9048
 11
-12.6877
 21
47.5544
  0
LINE
  8
0
 10
-12.6877
 20
47.5544
 11
-12.6877
 21
43.7066
  0
LINE
  8
0
 10
-12.6877
 20
43.7066
 11
-20.436
 21
60.3222
  0
LINE
  8
0
 10
3.96402
 20
60.3222
 11
6.41982
 21
58.9048
  0
LINE
  8
0
 10
6.41982
 20
58.9048
 11
11.7123
 21
47.5544
  0
LINE
  8
0
 10
11.7123
 20
47.5544
 11
11.7123
 21
43.7066
  0
LINE
  8
0
 10
11.7123
 20
43.7066
 11
3.96402
 21
60.3222
  0
LINE
  8
0
 10
28.364
 20
60.3222
 11
30.8198
 21
58.9048
  0
LINE
  8
0
 10
30.8198
 20
58.9048
 11
36.1123
 21
47.5544
  0
LINE
  8
0
 10
36.1123
 20
47.5544
 11
36.1123
 21
43.7066
  0
LINE
  8
0
 10
36.1123
 20
43.7066
 11
28.364
 21
60.3222
  0
LINE
  8
0
 10
-43.6258
 20
57.7271
 11
-43.1068
 21
59.3242
  0
LINE
  8
0
 10
-43.1068
 20
59.3242
 11
-42.3802
 21
58.9048
  0
LINE
  8
0
 10
-42.3802
 20
58.9048
 11
-37.0877
 21
47.5544
  0
LINE
  8
0
 10
-37.0877
 20
47.5544
 11
-37.0877
 21
43.7066
  0
LINE
  8
0
 10
-37.0877
 20
43.7066
 11
-43.6258
 21
57.7271
  0
LINE
  8
0
 10
8.8756
 20
57.4867
 11
11.3314
 21
56.0689
  0
LINE
  8
0
 10
11.3314
 20
56.0689
 11
11.7123
 21
55.2524
  0
LINE
  8
0
 10
11.7123
 20
55.2524
 11
11.7123
 21
51.4034
  0
LINE
  8
0
 10
11.7123
 20
51.4034
 11
8.8756
 21
57.4867
  0
LINE
  8
0
 10
33.2756
 20
57.4867
 11
35.7314
 21
56.0689
  0
LINE
  8
0
 10
35.7314
 20
56.0689
 11
36.1123
 21
55.2524
  0
LINE
  8
0
 10
36.1123
 20
55.2524
 11
36.1123
 21
51.4034
  0
LINE
  8
0
 10
36.1123
 20
51.4034
 11
33.2756
 21
57.4867
  0
LINE
  8
0
 10
-15.5244
 20
57.4867
 11
-13.0686
 21
56.0689
  0
LINE
  8
0
 10
-13.0686
 20
56.0689
 11
-12.6877
 21
55.2524
  0
LINE
  8
0
 10
-12.6877
 20
55.2524
 11
-12.6877
 21
51.4034
  0
LINE
  8
0
 10
-12.6877
 20
51.4034
 11
-15.5244
 21
57.4867
  0
LINE
  8
0
 10
-39.9244
 20
57.4867
 11
-37.4686
 21
56.0689
  0
LINE
  8
0
 10
-37.4686
 20
56.0689
 11
-37.0877
 21
55.2524
  0
LINE
  8
0
 10
-37.0877
 20
55.2524
 11
-37.0877
 21
51.4034
  0
LINE
  8
0
 10
-37.0877
 20
51.4034
 11
-39.9244
 21
57.4867
  0
LINE
  8
0
 10
26.8092
 20
48.26
 11
24.8881
 21
52.3796
  0
LINE
  8
0
 10
24.8881
 20
52.3796
 11
24.8881
 21
56.2297
  0
LINE
  8
0
 10
24.8881
 20
56.2297
 11
29.2661
 21
46.8415
  0
LINE
  8
0
 10
29.2661
 20
46.8415
 11
26.8092
 21
48.26
  0
LINE
  8
0
 10
-21.9908
 20
48.26
 11
-23.9119
 21
52.3796
  0
LINE
  8
0
 10
-23.9119
 20
52.3796
 11
-23.9119
 21
56.2297
  0
LINE
  8
0
 10
-23.9119
 20
56.2297
 11
-19.5338
 21
46.8415
  0
LINE
  8
0
 10
-19.5338
 20
46.8415
 11
-21.9908
 21
48.26
  0
LINE
  8
0
 10
2.40924
 20
48.26
 11
0.488098
 21
52.3796
  0
LINE
  8
0
 10
0.488098
 20
52.3796
 11
0.488098
 21
56.2297
  0
LINE
  8
0
 10
0.488098
 20
56.2297
 11
4.86615
 21
46.8415
  0
LINE
  8
0
 10
4.86615
 20
46.8415
 11
2.40924
 21
48.26
  0
LINE
  8
0
 10
-41.4781
 20
45.4233
 11
-45.0999
 21
53.1901
  0
LINE
  8
0
 10
-45.0999
 20
53.1901
 11
-44.3628
 21
55.4586
  0
LINE
  8
0
 10
-44.3628
 20
55.4586
 11
-39.0219
 21
44.0052
  0
LINE
  8
0
 10
-39.0219
 20
44.0052
 11
-41.4781
 21
45.4233
  0
LINE
  8
0
 10
-46.3907
 20
48.26
 11
-46.5741
 21
48.6531
  0
LINE
  8
0
 10
-46.5741
 20
48.6531
 11
-45.8368
 21
50.9222
  0
LINE
  8
0
 10
-45.8368
 20
50.9222
 11
-43.9338
 21
46.8415
  0
LINE
  8
0
 10
-43.9338
 20
46.8415
 11
-46.3907
 21
48.26
  0
LINE
  8
0
 10
13.1758
 20
42.0434
 11
24.4
 21
48.5236
  0
LINE
  8
0
 10
24.4
 20
48.5236
 11
35.6242
 21
42.0434
  0
LINE
  8
0
 10
35.6242
 20
42.0434
 11
24.4
 21
35.5633
  0
LINE
  8
0
 10
24.4
 20
35.5633
 11
13.1758
 21
42.0434
  0
LINE
  8
0
 10
-11.2242
 20
42.0434
 11
0
 21
48.5236
  0
LINE
  8
0
 10
0
 20
48.5236
 11
11.2242
 21
42.0434
  0
LINE
  8
0
 10
11.2242
 20
42.0434
 11
0
 21
35.5633
  0
LINE
  8
0
 10
0
 20
35.5633
 11
-11.2242
 21
42.0434
  0
LINE
  8
0
 10
-35.6242
 20
42.0434
 11
-24.4
 21
48.5236
  0
LINE
  8
0
 10
-24.4
 20
48.5236
 11
-13.1758
 21
42.0434
  0
LINE
  8
0
 10
-13.1758
 20
42.0434
 11
-24.4
 21
35.5633
  0
LINE
  8
0
 10
-24.4
 20
35.5633
 11
-35.6242
 21
42.0434
  0
LINE
  8
0
 10
-50.507
 20
36.5488
 11
-46.9611
 21
47.4619
  0
LINE
  8
0
 10
-46.9611
 20
47.4619
 11
-37.5758
 21
42.0434
  0
LINE
  8
0
 10
-37.5758
 20
42.0434
 11
-48.8
 21
35.5633
  0
LINE
  8
0
 10
-48.8
 20
35.5633
 11
-50.507
 21
36.5488
  0
LINE
  8
0
 10
37.5758
 20
42.0434
 11
46.9611
 21
47.4619
  0
LINE
  8
0
 10
46.9611
 20
47.4619
 11
50.507
 21
36.5488
  0
LINE
  8
0
 10
50.507
 20
36.5488
 11
48.8
 21
35.5633
  0
LINE
  8
0
 10
48.8
 20
35.5633
 11
37.5758
 21
42.0434
  0
LINE
  8
0
 10
43.9219
 20
24.2926
 11
37.0881
 21
38.9473
  0
LINE
  8
0
 10
37.0881
 20
38.9473
 11
37.0881
 21
41.1983
  0
LINE
  8
0
 10
37.0881
 20
41.1983
 11
38.1079
 21
40.6096
  0
LINE
  8
0
 10
38.1079
 20
40.6096
 11
46.3781
 21
22.8745
  0
LINE
  8
0
 10
46.3781
 20
22.8745
 11
43.9219
 21
24.2926
  0
LINE
  8
0
 10
-29.2781
 20
24.2926
 11
-36.1119
 21
38.9473
  0
LINE
  8
0
 10
-36.1119
 20
38.9473
 11
-36.1119
 21
41.1983
  0
LINE
  8
0
 10
-36.1119
 20
41.1983
 11
-35.0921
 21
40.6096
  0
LINE
  8
0
 10
-35.0921
 20
40.6096
 11
-26.8219
 21
22.8745
  0
LINE
  8
0
 10
-26.8219
 20
22.8745
 11
-29.2781
 21
24.2926
  0
LINE
  8
0
 10
19.5219
 20
24.2926
 11
12.6881
 21
38.9473
  0
LINE
  8
0
 10
12.6881
 20
38.9473
 11
12.6881
 21
41.1983
  0
LINE
  8
0
 10
12.6881
 20
41.1983
 11
13.7079
 21
40.6096
  0
LINE
  8
0
 10
13.7079
 20
40.6096
 11
21.9781
 21
22.8745
  0
LINE
  8
0
 10
21.9781
 20
22.8745
 11
19.5219
 21
24.2926
  0
LINE
  8
0
 10
-4.87805
 20
24.2926
 11
-11.7119
 21
38.9473
  0
LINE
  8
0
 10
-11.7119
 20
38.9473
 11
-11.7119
 21
41.1983
  0
LINE
  8
0
 10
-11.7119
 20
41.1983
 11
-10.6921
 21
40.6096
  0
LINE
  8
0
 10
-10.6921
 20
40.6096
 11
-2.42191
 21
22.8745
  0
LINE
  8
0
 10
-2.42191
 20
22.8745
 11
-4.87805
 21
24.2926
  0
LINE
  8
0
 10
-32.636
 20
39.1915
 11
-30.1802
 21
37.7741
  0
LINE
  8
0
 10
-30.1802
 20
37.7741
 11
-24.8877
 21
26.4237
  0
LINE
  8
0
 10
-24.8877
 20
26.4237
 11
-24.8877
 21
22.5759
  0
LINE
  8
0
 10
-24.8877
 20
22.5759
 11
-32.636
 21
39.1915
  0
LINE
  8
0
 10
16.164
 20
39.1915
 11
18.6198
 21
37.7741
  0
LINE
  8
0
 10
18.6198
 20
37.7741
 11
23.9123
 21
26.4237
  0
LINE
  8
0
 10
23.9123
 20
26.4237
 11
23.9123
 21
22.5759
  0
LINE
  8
0
 10
23.9123
 20
22.5759
 11
16.164
 21
39.1915
  0
LINE
  8
0
 10
-8.23596
 20
39.1915
 11
-5.78018
 21
37.7741
  0
LINE
  8
0
 10
-5.78018
 20
37.7741
 11
-0.487717
 21
26.4237
  0
LINE
  8
0
 10
-0.487717
 20
26.4237
 11
-0.487717
 21
22.5759
  0
LINE
  8
0
 10
-0.487717
 20
22.5759
 11
-8.23596
 21
39.1915
  0
LINE
  8
0
 10
40.564
 20
39.1915
 11
43.0198
 21
37.7741
  0
LINE
  8
0
 10
43.0198
 20
37.7741
 11
48.3123
 21
26.4237
  0
LINE
  8
0
 10
48.3123
 20
26.4237
 11
48.3123
 21
22.5759
  0
LINE
  8
0
 10
48.3123
 20
22.5759
 11
40.564
 21
39.1915
  0
LINE
  8
0
 10
-3.32439
 20
36.356
 11
-0.868607
 21
34.9382
  0
LINE
  8
0
 10
-0.868607
 20
34.9382
 11
-0.487717
 21
34.1217
  0
LINE
  8
0
 10
-0.487717
 20
34.1217
 11
-0.487717
 21
30.2727
  0
LINE
  8
0
 10
-0.487717
 20
30.2727
 11
-3.32439
 21
36.356
  0
LINE
  8
0
 10
45.4756
 20
36.356
 11
47.9314
 21
34.9382
  0
LINE
  8
0
 10
47.9314
 20
34.9382
 11
48.3123
 21
34.1217
  0
LINE
  8
0
 10
48.3123
 20
34.1217
 11
48.3123
 21
30.2727
  0
LINE
  8
0
 10
48.3123
 20
30.2727
 11
45.4756
 21
36.356
  0
LINE
  8
0
 10
21.0756
 20
36.356
 11
23.5314
 21
34.9382
  0
LINE
  8
0
 10
23.5314
 20
34.9382
 11
23.9123
 21
34.1217
  0
LINE
  8
0
 10
23.9123
 20
34.1217
 11
23.9123
 21
30.2727
  0
LINE
  8
0
 10
23.9123
 20
30.2727
 11
21.0756
 21
36.356
  0
LINE
  8
0
 10
-27.7244
 20
36.356
 11
-25.2686
 21
34.9382
  0
LINE
  8
0
 10
-25.2686
 20
34.9382
 11
-24.8877
 21
34.1217
  0
LINE
  8
0
 10
-24.8877
 20
34.1217
 11
-24.8877
 21
30.2727
  0
LINE
  8
0
 10
-24.8877
 20
30.2727
 11
-27.7244
 21
36.356
  0
LINE
  8
0
 10
-51.2081
 20
34.391
 11
-50.8153
 21
35.6002
  0
LINE
  8
0
 10
-50.8153
 20
35.6002
 11
-49.6686
 21
34.9382
  0
LINE
  8
0
 10
-49.6686
 20
34.9382
 11
-49.2877
 21
34.1217
  0
LINE
  8
0
 10
-49.2877
 20
34.1217
 11
-49.2877
 21
30.2727
  0
LINE
  8
0
 10
-49.2877
 20
30.2727
 11
-51.2081
 21
34.391
  0
LINE
  8
0
 10
14.6092
 20
27.1293
 11
12.6881
 21
31.2489
  0
LINE
  8
0
 10
12.6881
 20
31.2489
 11
12.6881
 21
35.099
  0
LINE
  8
0
 10
12.6881
 20
35.099
 11
17.0661
 21
25.7108
  0
LINE
  8
0
 10
17.0661
 20
25.7108
 11
14.6092
 21
27.1293
  0
LINE
  8
0
 10
-9.79074
 20
27.1293
 11
-11.7119
 21
31.2489
  0
LINE
  8
0
 10
-11.7119
 20
31.2489
 11
-11.7119
 21
35.099
  0
LINE
  8
0
 10
-11.7119
 20
35.099
 11
-7.33385
 21
25.7108
  0
LINE
  8
0
 10
-7.33385
 20
25.7108
 11
-9.79074
 21
27.1293
  0
LINE
  8
0
 10
-34.1908
 20
27.1293
 11
-36.1119
 21
31.2489
  0
LINE
  8
0
 10
-36.1119
 20
31.2489
 11
-36.1119
 21
35.099
  0
LINE
  8
0
 10
-36.1119
 20
35.099
 11
-31.7338
 21
25.7108
  0
LINE
  8
0
 10
-31.7338
 20
25.7108
 11
-34.1908
 21
27.1293
  0
LINE
  8
0
 10
39.0092
 20
27.1293
 11
37.0881
 21
31.2489
  0
LINE
  8
0
 10
37.0881
 20
31.2489
 11
37.0881
 21
35.099
  0
LINE
  8
0
 10
37.0881
 20
35.099
 11
41.4661
 21
25.7108
  0
LINE
  8
0
 10
41.4661
 20
25.7108
 11
39.0092
 21
27.1293
  0
LINE
  8
0
 10
-52.682
 20
29.8548
 11
-51.9451
 21
32.1228
  0
LINE
  8
0
 10
-51.9451
 20
32.1228
 11
-49.2877
 21
26.4237
  0
LINE
  8
0
 10
-49.2877
 20
26.4237
 11
-49.2877
 21
22.5759
  0
LINE
  8
0
 10
-49.2877
 20
22.5759
 11
-52.682
 21
29.8548
  0
LINE
  8
0
 10
-53.6781
 20
24.2926
 11
-54.1562
 21
25.3179
  0
LINE
  8
0
 10
-54.1562
 20
25.3179
 11
-53.4191
 21
27.5863
  0
LINE
  8
0
 10
-53.4191
 20
27.5863
 11
-51.2219
 21
22.8745
  0
LINE
  8
0
 10
-51.2219
 20
22.8745
 11
-53.6781
 21
24.2926
  0
LINE
  8
0
 10
0.97583
 20
20.9127
 11
12.2
 21
27.3929
  0
LINE
  8
0
 10
12.2
 20
27.3929
 11
23.4242
 21
20.9127
  0
LINE
  8
0
 10
23.4242
 20
20.9127
 11
12.2
 21
14.4326
  0
LINE
  8
0
 10
12.2
 20
14.4326
 11
0.97583
 21
20.9127
  0
LINE
  8
0
 10
-47.8242
 20
20.9127
 11
-36.6
 21
27.3929
  0
LINE
  8
0
 10
-36.6
 20
27.3929
 11
-25.3758
 21
20.9127
  0
LINE
  8
0
 10
-25.3758
 20
20.9127
 11
-36.6
 21
14.4326
  0
LINE
  8
0
 10
-36.6
 20
14.4326
 11
-47.8242
 21
20.9127
  0
LINE
  8
0
 10
25.3758
 20
20.9127
 11
36.6
 21
27.3929
  0
LINE
  8
0
 10
36.6
 20
27.3929
 11
47.8242
 21
20.9127
  0
LINE
  8
0
 10
47.8242
 20
20.9127
 11
36.6
 21
14.4326
  0
LINE
  8
0
 10
36.6
 20
14.4326
 11
25.3758
 21
20.9127
  0
LINE
  8
0
 10
-23.4242
 20
20.9127
 11
-12.2
 21
27.3929
  0
LINE
  8
0
 10
-12.2
 20
27.3929
 11
-0.97583
 21
20.9127
  0
LINE
  8
0
 10
-0.97583
 20
20.9127
 11
-12.2
 21
14.4326
  0
LINE
  8
0
 10
-12.2
 20
14.4326
 11
-23.4242
 21
20.9127
  0
LINE
  8
0
 10
-54.6695
 20
23.738
 11
-49.7758
 21
20.9127
  0
LINE
  8
0
 10
-49.7758
 20
20.9127
 11
-56.9294
 21
16.7827
  0
LINE
  8
0
 10
-56.9294
 20
16.7827
 11
-54.6695
 21
23.738
  0
LINE
  8
0
 10
49.7758
 20
20.9127
 11
54.6695
 21
23.738
  0
LINE
  8
0
 10
54.6695
 20
23.738
 11
56.9294
 21
16.7827
  0
LINE
  8
0
 10
56.9294
 20
16.7827
 11
49.7758
 21
20.9127
  0
LINE
  8
0
 10
52.0005
 20
12
 11
49.2881
 21
17.8166
  0
LINE
  8
0
 10
49.2881
 20
17.8166
 11
49.2881
 21
20.0676
  0
LINE
  8
0
 10
49.2881
 20
20.0676
 11
50.3079
 21
19.4789
  0
LINE
  8
0
 10
50.3079
 20
19.4789
 11
53.7954
 21
12
  0
LINE
  8
0
 10
53.7954
 20
12
 11
52.0005
 21
12
  0
LINE
  8
0
 10
-21.1995
 20
12
 11
-23.9119
 21
17.8166
  0
LINE
  8
0
 10
-23.9119
 20
17.8166
 11
-23.9119
 21
20.0676
  0
LINE
  8
0
 10
-23.9119
 20
20.0676
 11
-22.8921
 21
19.4789
  0
LINE
  8
0
 10
-22.8921
 20
19.4789
 11
-19.4046
 21
12
  0
LINE
  8
0
 10
-19.4046
 20
12
 11
-21.1995
 21
12
  0
LINE
  8
0
 10
3.2005
 20
12
 11
0.488098
 21
17.8166
  0
LINE
  8
0
 10
0.488098
 20
17.8166
 11
0.488098
 21
20.0676
  0
LINE
  8
0
 10
0.488098
 20
20.0676
 11
1.50787
 21
19.4789
  0
LINE
  8
0
 10
1.50787
 20
19.4789
 11
4.99542
 21
12
  0
LINE
  8
0
 10
4.99542
 20
12
 11
3.2005
 21
12
  0
LINE
  8
0
 10
-45.5995
 20
12
 11
-48.3119
 21
17.8166
  0
LINE
  8
0
 10
-48.3119
 20
17.8166
 11
-48.3119
 21
20.0676
  0
LINE
  8
0
 10
-48.3119
 20
20.0676
 11
-47.2921
 21
19.4789
  0
LINE
  8
0
 10
-47.2921
 20
19.4789
 11
-43.8046
 21
12
  0
LINE
  8
0
 10
-43.8046
 20
12
 11
-45.5995
 21
12
  0
LINE
  8
0
 10
27.6005
 20
12
 11
24.8881
 21
17.8166
  0
LINE
  8
0
 10
24.8881
 20
17.8166
 11
24.8881
 21
20.0676
  0
LINE
  8
0
 10
24.8881
 20
20.0676
 11
25.9079
 21
19.4789
  0
LINE
  8
0
 10
25.9079
 20
19.4789
 11
29.3954
 21
12
  0
LINE
  8
0
 10
29.3954
 20
12
 11
27.6005
 21
12
  0
LINE
  8
0
 10
6.79031
 20
12
 11
3.96402
 21
18.0608
  0
LINE
  8
0
 10
3.96402
 20
18.0608
 11
6.41982
 21
16.6434
  0
LINE
  8
0
 10
6.41982
 20
16.6434
 11
8.58495
 21
12
  0
LINE
  8
0
 10
8.58495
 20
12
 11
6.79031
 21
12
  0
LINE
  8
0
 10
-17.6097
 20
12
 11
-20.436
 21
18.0608
  0
LINE
  8
0
 10
-20.436
 20
18.0608
 11
-17.9802
 21
16.6434
  0
LINE
  8
0
 10
-17.9802
 20
16.6434
 11
-15.815
 21
12
  0
LINE
  8
0
 10
-15.815
 20
12
 11
-17.6097
 21
12
  0
LINE
  8
0
 10
31.1903
 20
12
 11
28.364
 21
18.0608
  0
LINE
  8
0
 10
28.364
 20
18.0608
 11
30.8198
 21
16.6434
  0
LINE
  8
0
 10
30.8198
 20
16.6434
 11
32.9849
 21
12
  0
LINE
  8
0
 10
32.9849
 20
12
 11
31.1903
 21
12
  0
LINE
  8
0
 10
55.5903
 20
12
 11
52.764
 21
18.0608
  0
LINE
  8
0
 10
52.764
 20
18.0608
 11
55.2198
 21
16.6434
  0
LINE
  8
0
 10
55.2198
 20
16.6434
 11
57.3849
 21
12
  0
LINE
  8
0
 10
57.3849
 20
12
 11
55.5903
 21
12
  0
LINE
  8
0
 10
-42.0097
 20
12
 11
-44.836
 21
18.0608
  0
LINE
  8
0
 10
-44.836
 20
18.0608
 11
-42.3802
 21
16.6434
  0
LINE
  8
0
 10
-42.3802
 20
16.6434
 11
-40.215
 21
12
  0
LINE
  8
0
 10
-40.215
 20
12
 11
-42.0097
 21
12
  0
LINE
  8
0
 10
-38.4204
 20
12
 11
-39.9244
 21
15.2253
  0
LINE
  8
0
 10
-39.9244
 20
15.2253
 11
-37.4686
 21
13.8075
  0
LINE
  8
0
 10
-37.4686
 20
13.8075
 11
-37.0877
 21
12.991
  0
LINE
  8
0
 10
-37.0877
 20
12.991
 11
-37.0877
 21
12
  0
LINE
  8
0
 10
-37.0877
 20
12
 11
-38.4204
 21
12
  0
LINE
  8
0
 10
10.3796
 20
12
 11
8.8756
 21
15.2253
  0
LINE
  8
0
 10
8.8756
 20
15.2253
 11
11.3314
 21
13.8075
  0
LINE
  8
0
 10
11.3314
 20
13.8075
 11
11.7123
 21
12.991
  0
LINE
  8
0
 10
11.7123
 20
12.991
 11
11.7123
 21
12
  0
LINE
  8
0
 10
11.7123
 20
12
 11
10.3796
 21
12
  0
LINE
  8
0
 10
34.7796
 20
12
 11
33.2756
 21
15.2253
  0
LINE
  8
0
 10
33.2756
 20
15.2253
 11
35.7314
 21
13.8075
  0
LINE
  8
0
 10
35.7314
 20
13.8075
 11
36.1123
 21
12.991
  0
LINE
  8
0
 10
36.1123
 20
12.991
 11
36.1123
 21
12
  0
LINE
  8
0
 10
36.1123
 20
12
 11
34.7796
 21
12
  0
LINE
  8
0
 10
-14.0204
 20
12
 11
-15.5244
 21
15.2253
  0
LINE
  8
0
 10
-15.5244
 20
15.2253
 11
-13.0686
 21
13.8075
  0
LINE
  8
0
 10
-13.0686
 20
13.8075
 11
-12.6877
 21
12.991
  0
LINE
  8
0
 10
-12.6877
 20
12.991
 11
-12.6877
 21
12
  0
LINE
  8
0
 10
-12.6877
 20
12
 11
-14.0204
 21
12
  0
LINE
  8
0
 10
24.8881
 20
12
 11
24.8881
 21
13.9683
  0
LINE
  8
0
 10
24.8881
 20
13.9683
 11
25.806
 21
12
  0
LINE
  8
0
 10
25.806
 20
12
 11
24.8881
 21
12
  0
LINE
  8
0
 10
49.2881
 20
12
 11
49.2881
 21
13.9683
  0
LINE
  8
0
 10
49.2881
 20
13.9683
 11
50.206
 21
12
  0
LINE
  8
0
 10
50.206
 20
12
 11
49.2881
 21
12
  0
LINE
  8
0
 10
0.488098
 20
12
 11
0.488098
 21
13.9683
  0
LINE
  8
0
 10
0.488098
 20
13.9683
 11
1.40599
 21
12
  0
LINE
  8
0
 10
1.40599
 20
12
 11
0.488098
 21
12
  0
LINE
  8
0
 10
-48.3119
 20
12
 11
-48.3119
 21
13.9683
  0
LINE
  8
0
 10
-48.3119
 20
13.9683
 11
-47.394
 21
12
  0
LINE
  8
0
 10
-47.394
 20
12
 11
-48.3119
 21
12
  0
LINE
  8
0
 10
-23.9119
 20
12
 11
-23.9119
 21
13.9683
  0
LINE
  8
0
 10
-23.9119
 20
13.9683
 11
-22.994
 21
12
  0
LINE
  8
0
 10
-22.994
 20
12
 11
-23.9119
 21
12
  0
LINE
  8
0
 10
-10
 20
7
 11
-10
 21
11
  0
LINE
  8
0
 10
-10
 20
11
 11
10
 21
11
  0
LINE
  8
0
 10
10
 20
11
 11
10
 21
7
  0
LINE
  8
0
 10
10
 20
7
 11
-10
 21
7
  0
LINE
  8
0
 10
-68.7369
 20
2.71323
 11
-68.9437
 21
2.74597
  0
LINE
  8
0
 10
-68.9437
 20
2.74597
 11
-69.1459
 21
2.80016
  0
LINE
  8
0
 10
-69.1459
 20
2.80016
 11
-69.3413
 21
2.87518
  0
LINE
  8
0
 10
-69.3413
 20
2.87518
 11
-69.5279
 21
2.97023
  0
LINE
  8
0
 10
-69.5279
 20
2.97023
 11
-69.7034
 21
3.08424
  0
LINE
  8
0
 10
-69.7034
 20
3.08424
 11
-69.8661
 21
3.21599
  0
LINE
  8
0
 10
-69.8661
 20
3.21599
 11
-70.0141
 21
3.36401
  0
LINE
  8
0
 10
-70.0141
 20
3.36401
 11
-70.1459
 21
3.5267
  0
LINE
  8
0
 10
-70.1459
 20
3.5267
 11
-70.2599
 21
3.70227
  0
LINE
  8
0
 10
-70.2599
 20
3.70227
 11
-70.3549
 21
3.88879
  0
LINE
  8
0
 10
-70.3549
 20
3.88879
 11
-70.43
 21
4.08424
  0
LINE
  8
0
 10
-70.43
 20
4.08424
 11
-70.4841
 21
4.28645
  0
LINE
  8
0
 10
-70.4841
 20
4.28645
 11
-70.5169
 21
4.49321
  0
LINE
  8
0
 10
-70.5169
 20
4.49321
 11
-70.5279
 21
4.70227
  0
LINE
  8
0
 10
-70.5279
 20
4.70227
 11
-70.5169
 21
4.91133
  0
LINE
  8
0
 10
-70.5169
 20
4.91133
 11
-70.4841
 21
5.1181
  0
LINE
  8
0
 10
-70.4841
 20
5.1181
 11
-70.43
 21
5.32031
  0
LINE
  8
0
 10
-70.43
 20
5.32031
 11
-70.3549
 21
5.51575
  0
LINE
  8
0
 10
-70.3549
 20
5.51575
 11
-70.2599
 21
5.70227
  0
LINE
  8
0
 10
-70.2599
 20
5.70227
 11
-70.1459
 21
5.87784
  0
LINE
  8
0
 10
-70.1459
 20
5.87784
 11
-70.0141
 21
6.04054
  0
LINE
  8
0
 10
-70.0141
 20
6.04054
 11
-69.8661
 21
6.18857
  0
LINE
  8
0
 10
-69.8661
 20
6.18857
 11
-69.7034
 21
6.32031
  0
LINE
  8
0
 10
-69.7034
 20
6.32031
 11
-69.5279
 21
6.43433
  0
LINE
  8
0
 10
-69.5279
 20
6.43433
 11
-69.3413
 21
6.52936
  0
LINE
  8
0
 10
-69.3413
 20
6.52936
 11
-69.1459
 21
6.60439
  0
LINE
  8
0
 10
-69.1459
 20
6.60439
 11
-68.9437
 21
6.65857
  0
LINE
  8
0
 10
-68.9437
 20
6.65857
 11
-68.7369
 21
6.69131
  0
LINE
  8
0
 10
-68.7369
 20
6.69131
 11
-68.5279
 21
6.70227
  0
LINE
  8
0
 10
-68.5279
 20
6.70227
 11
-68.3188
 21
6.69131
  0
LINE
  8
0
 10
-68.3188
 20
6.69131
 11
-68.112
 21
6.65857
  0
LINE
  8
0
 10
-68.112
 20
6.65857
 11
-67.9098
 21
6.60439
  0
LINE
  8
0
 10
-67.9098
 20
6.60439
 11
-67.7144
 21
6.52936
  0
LINE
  8
0
 10
-67.7144
 20
6.52936
 11
-67.5279
 21
6.43433
  0
LINE
  8
0
 10
-67.5279
 20
6.43433
 11
-67.3523
 21
6.32031
  0
LINE
  8
0
 10
-67.3523
 20
6.32031
 11
-67.1896
 21
6.18857
  0
LINE
  8
0
 10
-67.1896
 20
6.18857
 11
-67.0416
 21
6.04054
  0
LINE
  8
0
 10
-67.0416
 20
6.04054
 11
-66.9098
 21
5.87784
  0
LINE
  8
0
 10
-66.9098
 20
5.87784
 11
-66.7958
 21
5.70227
  0
LINE
  8
0
 10
-66.7958
 20
5.70227
 11
-66.7008
 21
5.51575
  0
LINE
  8
0
 10
-66.7008
 20
5.51575
 11
-66.6257
 21
5.32031
  0
LINE
  8
0
 10
-66.6257
 20
5.32031
 11
-66.5716
 21
5.1181
  0
LINE
  8
0
 10
-66.5716
 20
5.1181
 11
-66.5388
 21
4.91133
  0
LINE
  8
0
 10
-66.5388
 20
4.91133
 11
-66.5279
 21
4.70227
  0
LINE
  8
0
 10
-66.5279
 20
4.70227
 11
-66.5388
 21
4.49321
  0
LINE
  8
0
 10
-66.5388
 20
4.49321
 11
-66.5716
 21
4.28645
  0
LINE
  8
0
 10
-66.5716
 20
4.28645
 11
-66.6257
 21
4.08424
  0
LINE
  8
0
 10
-66.6257
 20
4.08424
 11
-66.7008
 21
3.88879
  0
LINE
  8
0
 10
-66.7008
 20
3.88879
 11
-66.7958
 21
3.70227
  0
LINE
  8
0
 10
-66.7958
 20
3.70227
 11
-66.9098
 21
3.5267
  0
LINE
  8
0
 10
-66.9098
 20
3.5267
 11
-67.0416
 21
3.36401
  0
LINE
  8
0
 10
-67.0416
 20
3.36401
 11
-67.1896
 21
3.21599
  0
LINE
  8
0
 10
-67.1896
 20
3.21599
 11
-67.3523
 21
3.08424
  0
LINE
  8
0
 10
-67.3523
 20
3.08424
 11
-67.5279
 21
2.97023
  0
LINE
  8
0
 10
-67.5279
 20
2.97023
 11
-67.7144
 21
2.87518
  0
LINE
  8
0
 10
-67.7144
 20
2.87518
 11
-67.9098
 21
2.80016
  0
LINE
  8
0
 10
-67.9098
 20
2.80016
 11
-68.112
 21
2.74597
  0
LINE
  8
0
 10
-68.112
 20
2.74597
 11
-68.3188
 21
2.71323
  0
LINE
  8
0
 10
-68.3188
 20
2.71323
 11
-68.5279
 21
2.70227
  0
LINE
  8
0
 10
-68.5279
 20
2.70227
 11
-68.7369
 21
2.71323
  0
LINE
  8
0
 10
68.3188
 20
2.71323
 11
68.112
 21
2.74597
  0
LINE
  8
0
 10
68.112
 20
2.74597
 11
67.9098
 21
2.80016
  0
LINE
  8
0
 10
67.9098
 20
2.80016
 11
67.7144
 21
2.87518
  0
LINE
  8
0
 10
67.7144
 20
2.87518
 11
67.5279
 21
2.97023
  0
LINE
  8
0
 10
67.5279
 20
2.97023
 11
67.3523
 21
3.08424
  0
LINE
  8
0
 10
67.3523
 20
3.08424
 11
67.1896
 21
3.21599
  0
LINE
  8
0
 10
67.1896
 20
3.21599
 11
67.0416
 21
3.36401
  0
LINE
  8
0
 10
67.0416
 20
3.36401
 11
66.9098
 21
3.5267
  0
LINE
  8
0
 10
66.9098
 20
3.5267
 11
66.7958
 21
3.70227
  0
LINE
  8
0
 10
66.7958
 20
3.70227
 11
66.7008
 21
3.88879
  0
LINE
  8
0
 10
66.7008
 20
3.88879
 11
66.6257
 21
4.08424
  0
LINE
  8
0
 10
66.6257
 20
4.08424
 11
66.5716
 21
4.28645
  0
LINE
  8
0
 10
66.5716
 20
4.28645
 11
66.5388
 21
4.49321
  0
LINE
  8
0
 10
66.5388
 20
4.49321
 11
66.5279
 21
4.70227
  0
LINE
  8
0
 10
66.5279
 20
4.70227
 11
66.5388
 21
4.91133
  0
LINE
  8
0
 10
66.5388
 20
4.91133
 11
66.5716
 21
5.1181
  0
LINE
  8
0
 10
66.5716
 20
5.1181
 11
66.6257
 21
5.32031
  0
LINE
  8
0
 10
66.6257
 20
5.32031
 11
66.7008
 21
5.51575
  0
LINE
  8
0
 10
66.7008
 20
5.51575
 11
66.7958
 21
5.70227
  0
LINE
  8
0
 10
66.7958
 20
5.70227
 11
66.9098
 21
5.87784
  0
LINE
  8
0
 10
66.9098
 20
5.87784
 11
67.0416
 21
6.04054
  0
LINE
  8
0
 10
67.0416
 20
6.04054
 11
67.1896
 21
6.18857
  0
LINE
  8
0
 10
67.1896
 20
6.18857
 11
67.3523
 21
6.32031
  0
LINE
  8
0
 10
67.3523
 20
6.32031
 11
67.5279
 21
6.43433
  0
LINE
  8
0
 10
67.5279
 20
6.43433
 11
67.7144
 21
6.52936
  0
LINE
  8
0
 10
67.7144
 20
6.52936
 11
67.9098
 21
6.60439
  0
LINE
  8
0
 10
67.9098
 20
6.60439
 11
68.112
 21
6.65857
  0
LINE
  8
0
 10
68.112
 20
6.65857
 11
68.3188
 21
6.69131
  0
LINE
  8
0
 10
68.3188
 20
6.69131
 11
68.5279
 21
6.70227
  0
LINE
  8
0
 10
68.5279
 20
6.70227
 11
68.7369
 21
6.69131
  0
LINE
  8
0
 10
68.7369
 20
6.69131
 11
68.9437
 21
6.65857
  0
LINE
  8
0
 10
68.9437
 20
6.65857
 11
69.1459
 21
6.60439
  0
LINE
  8
0
 10
69.1459
 20
6.60439
 11
69.3413
 21
6.52936
  0
LINE
  8
0
 10
69.3413
 20
6.52936
 11
69.5279
 21
6.43433
  0
LINE
  8
0
 10
69.5279
 20
6.43433
 11
69.7034
 21
6.32031
  0
LINE
  8
0
 10
69.7034
 20
6.32031
 11
69.8661
 21
6.18857
  0
LINE
  8
0
 10
69.8661
 20
6.18857
 11
70.0141
 21
6.04054
  0
LINE
  8
0
 10
70.0141
 20
6.04054
 11
70.1459
 21
5.87784
  0
LINE
  8
0
 10
70.1459
 20
5.87784
 11
70.2599
 21
5.70227
  0
LINE
  8
0
 10
70.2599
 20
5.70227
 11
70.3549
 21
5.51575
  0
LINE
  8
0
 10
70.3549
 20
5.51575
 11
70.43
 21
5.32031
  0
LINE
  8
0
 10
70.43
 20
5.32031
 11
70.4841
 21
5.1181
  0
LINE
  8
0
 10
70.4841
 20
5.1181
 11
70.5169
 21
4.91133
  0
LINE
  8
0
 10
70.5169
 20
4.91133
 11
70.5279
 21
4.70227
  0
LINE
  8
0
 10
70.5279
 20
4.70227
 11
70.5169
 21
4.49321
  0
LINE
  8
0
 10
70.5169
 20
4.49321
 11
70.4841
 21
4.28645
  0
LINE
  8
0
 10
70.4841
 20
4.28645
 11
70.43
 21
4.08424
  0
LINE
  8
0
 10
70.43
 20
4.08424
 11
70.3549
 21
3.88879
  0
LINE
  8
0
 10
70.3549
 20
3.88879
 11
70.2599
 21
3.70227
  0
LINE
  8
0
 10
70.2599
 20
3.70227
 11
70.1459
 21
3.5267
  0
LINE
  8
0
 10
70.1459
 20
3.5267
 11
70.0141
 21
3.36401
  0
LINE
  8
0
 10
70.0141
 20
3.36401
 11
69.8661
 21
3.21599
  0
LINE
  8
0
 10
69.8661
 20
3.21599
 11
69.7034
 21
3.08424
  0
LINE
  8
0
 10
69.7034
 20
3.08424
 11
69.5279
 21
2.97023
  0
LINE
  8
0
 10
69.5279
 20
2.97023
 11
69.3413
 21
2.87518
  0
LINE
  8
0
 10
69.3413
 20
2.87518
 11
69.1459
 21
2.80016
  0
LINE
  8
0
 10
69.1459
 20
2.80016
 11
68.9437
 21
2.74597
  0
LINE
  8
0
 10
68.9437
 20
2.74597
 11
68.7369
 21
2.71323
  0
LINE
  8
0
 10
68.7369
 20
2.71323
 11
68.5279
 21
2.70227
  0
LINE
  8
0
 10
68.5279
 20
2.70227
 11
68.3188
 21
2.71323
  0
ENDSEC
  0
SECTION
  2
OBJECTS
  0
DICTIONARY
  0
ENDSEC
  0
EOF
