  0
SECTION
  2
BLOCKS
  0
ENDSEC
  0
SECTION
  2
ENTITIES
  0
LINE
  8
0
 10
0
 20
230.826
 11
-75
 21
0
  0
LINE
  8
0
 10
-75
 20
0
 11
75
 21
0
  0
LINE
  8
0
 10
75
 20
0
 11
0
 21
230.826
  0
LINE
  8
0
 10
-0.12558
 20
212.83
 11
-0.250656
 21
212.842
  0
LINE
  8
0
 10
-0.250656
 20
212.842
 11
-0.374756
 21
212.862
  0
LINE
  8
0
 10
-0.374756
 20
212.862
 11
-0.497375
 21
212.889
  0
LINE
  8
0
 10
-0.497375
 20
212.889
 11
-0.618027
 21
212.924
  0
LINE
  8
0
 10
-0.618027
 20
212.924
 11
-0.736237
 21
212.967
  0
LINE
  8
0
 10
-0.736237
 20
212.967
 11
-0.851547
 21
213.017
  0
LINE
  8
0
 10
-0.851547
 20
213.017
 11
-0.963501
 21
213.074
  0
LINE
  8
0
 10
-0.963501
 20
213.074
 11
-1.07164
 21
213.138
  0
LINE
  8
0
 10
-1.07164
 20
213.138
 11
-1.17557
 21
213.208
  0
LINE
  8
0
 10
-1.17557
 20
213.208
 11
-1.27484
 21
213.285
  0
LINE
  8
0
 10
-1.27484
 20
213.285
 11
-1.36908
 21
213.368
  0
LINE
  8
0
 10
-1.36908
 20
213.368
 11
-1.45793
 21
213.457
  0
LINE
  8
0
 10
-1.45793
 20
213.457
 11
-1.54102
 21
213.551
  0
LINE
  8
0
 10
-1.54102
 20
213.551
 11
-1.61803
 21
213.651
  0
LINE
  8
0
 10
-1.61803
 20
213.651
 11
-1.68864
 21
213.755
  0
LINE
  8
0
 10
-1.68864
 20
213.755
 11
-1.75261
 21
213.863
  0
LINE
  8
0
 10
-1.75261
 20
213.863
 11
-1.80965
 21
213.975
  0
LINE
  8
0
 10
-1.80965
 20
213.975
 11
-1.85954
 21
214.09
  0
LINE
  8
0
 10
-1.85954
 20
214.09
 11
-1.9021
 21
214.208
  0
LINE
  8
0
 10
-1.9021
 20
214.208
 11
-1.93716
 21
214.329
  0
LINE
  8
0
 10
-1.93716
 20
214.329
 11
-1.96457
 21
214.451
  0
LINE
  8
0
 10
-1.96457
 20
214.451
 11
-1.98422
 21
214.576
  0
LINE
  8
0
 10
-1.98422
 20
214.576
 11
-1.99605
 21
214.701
  0
LINE
  8
0
 10
-1.99605
 20
214.701
 11
-2
 21
214.826
  0
LINE
  8
0
 10
-2
 20
214.826
 11
-1.99605
 21
214.952
  0
LINE
  8
0
 10
-1.99605
 20
214.952
 11
-1.98422
 21
215.077
  0
LINE
  8
0
 10
-1.98422
 20
215.077
 11
-1.96457
 21
215.201
  0
LINE
  8
0
 10
-1.96457
 20
215.201
 11
-1.93716
 21
215.324
  0
LINE
  8
0
 10
-1.93716
 20
215.324
 11
-1.9021
 21
215.444
  0
LINE
  8
0
 10
-1.9021
 20
215.444
 11
-1.85954
 21
215.562
  0
LINE
  8
0
 10
-1.85954
 20
215.562
 11
-1.80965
 21
215.678
  0
LINE
  8
0
 10
-1.80965
 20
215.678
 11
-1.75261
 21
215.79
  0
LINE
  8
0
 10
-1.75261
 20
215.79
 11
-1.68864
 21
215.898
  0
LINE
  8
0
 10
-1.68864
 20
215.898
 11
-1.61803
 21
216.002
  0
LINE
  8
0
 10
-1.61803
 20
216.002
 11
-1.54102
 21
216.101
  0
LINE
  8
0
 10
-1.54102
 20
216.101
 11
-1.45793
 21
216.195
  0
LINE
  8
0
 10
-1.45793
 20
216.195
 11
-1.36908
 21
216.284
  0
LINE
  8
0
 10
-1.36908
 20
216.284
 11
-1.27484
 21
216.367
  0
LINE
  8
0
 10
-1.27484
 20
216.367
 11
-1.17557
 21
216.444
  0
LINE
  8
0
 10
-1.17557
 20
216.444
 11
-1.07164
 21
216.515
  0
LINE
  8
0
 10
-1.07164
 20
216.515
 11
-0.963501
 21
216.579
  0
LINE
  8
0
 10
-0.963501
 20
216.579
 11
-0.851547
 21
216.636
  0
LINE
  8
0
 10
-0.851547
 20
216.636
 11
-0.736237
 21
216.686
  0
LINE
  8
0
 10
-0.736237
 20
216.686
 11
-0.618027
 21
216.728
  0
LINE
  8
0
 10
-0.618027
 20
216.728
 11
-0.497375
 21
216.763
  0
LINE
  8
0
 10
-0.497375
 20
216.763
 11
-0.374756
 21
216.791
  0
LINE
  8
0
 10
-0.374756
 20
216.791
 11
-0.250656
 21
216.81
  0
LINE
  8
0
 10
-0.250656
 20
216.81
 11
-0.12558
 21
216.822
  0
LINE
  8
0
 10
-0.12558
 20
216.822
 11
0
 21
216.826
  0
LINE
  8
0
 10
0
 20
216.826
 11
0.12558
 21
216.822
  0
LINE
  8
0
 10
0.12558
 20
216.822
 11
0.250656
 21
216.81
  0
LINE
  8
0
 10
0.250656
 20
216.81
 11
0.374756
 21
216.791
  0
LINE
  8
0
 10
0.374756
 20
216.791
 11
0.497375
 21
216.763
  0
LINE
  8
0
 10
0.497375
 20
216.763
 11
0.618027
 21
216.728
  0
LINE
  8
0
 10
0.618027
 20
216.728
 11
0.736237
 21
216.686
  0
LINE
  8
0
 10
0.736237
 20
216.686
 11
0.851547
 21
216.636
  0
LINE
  8
0
 10
0.851547
 20
216.636
 11
0.963501
 21
216.579
  0
LINE
  8
0
 10
0.963501
 20
216.579
 11
1.07164
 21
216.515
  0
LINE
  8
0
 10
1.07164
 20
216.515
 11
1.17557
 21
216.444
  0
LINE
  8
0
 10
1.17557
 20
216.444
 11
1.27484
 21
216.367
  0
LINE
  8
0
 10
1.27484
 20
216.367
 11
1.36908
 21
216.284
  0
LINE
  8
0
 10
1.36908
 20
216.284
 11
1.45793
 21
216.195
  0
LINE
  8
0
 10
1.45793
 20
216.195
 11
1.54102
 21
216.101
  0
LINE
  8
0
 10
1.54102
 20
216.101
 11
1.61803
 21
216.002
  0
LINE
  8
0
 10
1.61803
 20
216.002
 11
1.68864
 21
215.898
  0
LINE
  8
0
 10
1.68864
 20
215.898
 11
1.75261
 21
215.79
  0
LINE
  8
0
 10
1.75261
 20
215.79
 11
1.80965
 21
215.678
  0
LINE
  8
0
 10
1.80965
 20
215.678
 11
1.85954
 21
215.562
  0
LINE
  8
0
 10
1.85954
 20
215.562
 11
1.9021
 21
215.444
  0
LINE
  8
0
 10
1.9021
 20
215.444
 11
1.93716
 21
215.324
  0
LINE
  8
0
 10
1.93716
 20
215.324
 11
1.96457
 21
215.201
  0
LINE
  8
0
 10
1.96457
 20
215.201
 11
1.98422
 21
215.077
  0
LINE
  8
0
 10
1.98422
 20
215.077
 11
1.99605
 21
214.952
  0
LINE
  8
0
 10
1.99605
 20
214.952
 11
2
 21
214.826
  0
LINE
  8
0
 10
2
 20
214.826
 11
1.99605
 21
214.701
  0
LINE
  8
0
 10
1.99605
 20
214.701
 11
1.98422
 21
214.576
  0
LINE
  8
0
 10
1.98422
 20
214.576
 11
1.96457
 21
214.451
  0
LINE
  8
0
 10
1.96457
 20
214.451
 11
1.93716
 21
214.329
  0
LINE
  8
0
 10
1.93716
 20
214.329
 11
1.9021
 21
214.208
  0
LINE
  8
0
 10
1.9021
 20
214.208
 11
1.85954
 21
214.09
  0
LINE
  8
0
 10
1.85954
 20
214.09
 11
1.80965
 21
213.975
  0
LINE
  8
0
 10
1.80965
 20
213.975
 11
1.75261
 21
213.863
  0
LINE
  8
0
 10
1.75261
 20
213.863
 11
1.68864
 21
213.755
  0
LINE
  8
0
 10
1.68864
 20
213.755
 11
1.61803
 21
213.651
  0
LINE
  8
0
 10
1.61803
 20
213.651
 11
1.54102
 21
213.551
  0
LINE
  8
0
 10
1.54102
 20
213.551
 11
1.45793
 21
213.457
  0
LINE
  8
0
 10
1.45793
 20
213.457
 11
1.36908
 21
213.368
  0
LINE
  8
0
 10
1.36908
 20
213.368
 11
1.27484
 21
213.285
  0
LINE
  8
0
 10
1.27484
 20
213.285
 11
1.17557
 21
213.208
  0
LINE
  8
0
 10
1.17557
 20
213.208
 11
1.07164
 21
213.138
  0
LINE
  8
0
 10
1.07164
 20
213.138
 11
0.963501
 21
213.074
  0
LINE
  8
0
 10
0.963501
 20
213.074
 11
0.851547
 21
213.017
  0
LINE
  8
0
 10
0.851547
 20
213.017
 11
0.736237
 21
212.967
  0
LINE
  8
0
 10
0.736237
 20
212.967
 11
0.618027
 21
212.924
  0
LINE
  8
0
 10
0.618027
 20
212.924
 11
0.497375
 21
212.889
  0
LINE
  8
0
 10
0.497375
 20
212.889
 11
0.374756
 21
212.862
  0
LINE
  8
0
 10
0.374756
 20
212.862
 11
0.250656
 21
212.842
  0
LINE
  8
0
 10
0.250656
 20
212.842
 11
0.12558
 21
212.83
  0
LINE
  8
0
 10
0.12558
 20
212.83
 11
0
 21
212.826
  0
LINE
  8
0
 10
0
 20
212.826
 11
-0.12558
 21
212.83
  0
LINE
  8
0
 10
1.19324
 20
164.951
 11
1.15662
 21
165.772
  0
LINE
  8
0
 10
1.15662
 20
165.772
 11
1.39465
 21
167.007
  0
LINE
  8
0
 10
1.39465
 20
167.007
 11
0.323486
 21
166.174
  0
LINE
  8
0
 10
0.323486
 20
166.174
 11
0.0717163
 21
166.155
  0
LINE
  8
0
 10
0.0717163
 20
166.155
 11
-0.158691
 21
166.477
  0
LINE
  8
0
 10
-0.158691
 20
166.477
 11
-0.737
 21
166.096
  0
LINE
  8
0
 10
-0.737
 20
166.096
 11
-2.00119
 21
165.977
  0
LINE
  8
0
 10
-2.00119
 20
165.977
 11
-1.71585
 21
167.011
  0
LINE
  8
0
 10
-1.71585
 20
167.011
 11
-1.28479
 21
167.461
  0
LINE
  8
0
 10
-1.28479
 20
167.461
 11
-1.50528
 21
167.667
  0
LINE
  8
0
 10
-1.50528
 20
167.667
 11
-1.36795
 21
168.014
  0
LINE
  8
0
 10
-1.36795
 20
168.014
 11
0.233459
 21
169.014
  0
LINE
  8
0
 10
0.233459
 20
169.014
 11
-0.614166
 21
169.283
  0
LINE
  8
0
 10
-0.614166
 20
169.283
 11
-1.27869
 21
169.903
  0
LINE
  8
0
 10
-1.27869
 20
169.903
 11
-0.87204
 21
170.284
  0
LINE
  8
0
 10
-0.87204
 20
170.284
 11
-0.105286
 21
170.438
  0
LINE
  8
0
 10
-0.105286
 20
170.438
 11
-0.153351
 21
170.802
  0
LINE
  8
0
 10
-0.153351
 20
170.802
 11
0.908661
 21
170.885
  0
LINE
  8
0
 10
0.908661
 20
170.885
 11
2.84576
 21
170.081
  0
LINE
  8
0
 10
2.84576
 20
170.081
 11
3.27911
 21
170.274
  0
LINE
  8
0
 10
3.27911
 20
170.274
 11
3.00369
 21
170.435
  0
LINE
  8
0
 10
3.00369
 20
170.435
 11
2.88315
 21
171.349
  0
LINE
  8
0
 10
2.88315
 20
171.349
 11
1.49384
 21
172.353
  0
LINE
  8
0
 10
1.49384
 20
172.353
 11
0.972748
 21
173.083
  0
LINE
  8
0
 10
0.972748
 20
173.083
 11
0.928497
 21
173.364
  0
LINE
  8
0
 10
0.928497
 20
173.364
 11
1.15051
 21
173.506
  0
LINE
  8
0
 10
1.15051
 20
173.506
 11
0.958252
 21
173.932
  0
LINE
  8
0
 10
0.958252
 20
173.932
 11
1.02386
 21
174.718
  0
LINE
  8
0
 10
1.02386
 20
174.718
 11
1.44272
 21
174.673
  0
LINE
  8
0
 10
1.44272
 20
174.673
 11
2.56653
 21
173.959
  0
LINE
  8
0
 10
2.56653
 20
173.959
 11
2.59247
 21
174.999
  0
LINE
  8
0
 10
2.59247
 20
174.999
 11
2.82364
 21
175.634
  0
LINE
  8
0
 10
2.82364
 20
175.634
 11
3.26996
 21
175.81
  0
LINE
  8
0
 10
3.26996
 20
175.81
 11
4.16489
 21
176.883
  0
LINE
  8
0
 10
4.16489
 20
176.883
 11
4.52347
 21
175.681
  0
LINE
  8
0
 10
4.52347
 20
175.681
 11
4.9942
 21
175.259
  0
LINE
  8
0
 10
4.9942
 20
175.259
 11
4.92783
 21
174.05
  0
LINE
  8
0
 10
4.92783
 20
174.05
 11
5.68704
 21
174.491
  0
LINE
  8
0
 10
5.68704
 20
174.491
 11
6.58228
 21
171.735
  0
LINE
  8
0
 10
6.58228
 20
171.735
 11
6.26984
 21
171.628
  0
LINE
  8
0
 10
6.26984
 20
171.628
 11
6.67003
 21
171.465
  0
LINE
  8
0
 10
6.67003
 20
171.465
 11
7.46484
 21
169.019
  0
LINE
  8
0
 10
7.46484
 20
169.019
 11
7.2197
 21
169.08
  0
LINE
  8
0
 10
7.2197
 20
169.08
 11
7.14951
 21
168.784
  0
LINE
  8
0
 10
7.14951
 20
168.784
 11
6.78177
 21
168.731
  0
LINE
  8
0
 10
6.78177
 20
168.731
 11
5.11398
 21
169.618
  0
LINE
  8
0
 10
5.11398
 20
169.618
 11
5.21469
 21
169.16
  0
LINE
  8
0
 10
5.21469
 20
169.16
 11
5.34668
 21
169.093
  0
LINE
  8
0
 10
5.34668
 20
169.093
 11
5.26581
 21
169.051
  0
LINE
  8
0
 10
5.26581
 20
169.051
 11
6.15387
 21
168.51
  0
LINE
  8
0
 10
6.15387
 20
168.51
 11
6.58646
 21
167.991
  0
LINE
  8
0
 10
6.58646
 20
167.991
 11
6.51703
 21
167.511
  0
LINE
  8
0
 10
6.51703
 20
167.511
 11
7.00073
 21
166.203
  0
LINE
  8
0
 10
7.00073
 20
166.203
 11
5.78232
 21
166.495
  0
LINE
  8
0
 10
5.78232
 20
166.495
 11
5.17731
 21
166.299
  0
LINE
  8
0
 10
5.17731
 20
166.299
 11
4.16412
 21
166.959
  0
LINE
  8
0
 10
4.16412
 20
166.959
 11
4.1687
 21
164.951
  0
LINE
  8
0
 10
4.1687
 20
164.951
 11
1.19324
 21
164.951
  0
LINE
  8
0
 10
-10.4324
 20
150.703
 11
-10.9489
 21
151.291
  0
LINE
  8
0
 10
-10.9489
 20
151.291
 11
-11.2396
 21
151.067
  0
LINE
  8
0
 10
-11.2396
 20
151.067
 11
-11.8416
 21
151.944
  0
LINE
  8
0
 10
-11.8416
 20
151.944
 11
-12.1155
 21
154.028
  0
LINE
  8
0
 10
-12.1155
 20
154.028
 11
-12.294
 21
154.156
  0
LINE
  8
0
 10
-12.294
 20
154.156
 11
-10.692
 21
159.087
  0
LINE
  8
0
 10
-10.692
 20
159.087
 11
-10.4752
 21
158.36
  0
LINE
  8
0
 10
-10.4752
 20
158.36
 11
-10.0052
 21
157.938
  0
LINE
  8
0
 10
-10.0052
 20
157.938
 11
-10.0708
 21
156.728
  0
LINE
  8
0
 10
-10.0708
 20
156.728
 11
-8.33206
 21
157.736
  0
LINE
  8
0
 10
-8.33206
 20
157.736
 11
-8.15125
 21
157.423
  0
LINE
  8
0
 10
-8.15125
 20
157.423
 11
-7.46078
 21
157.865
  0
LINE
  8
0
 10
-7.46078
 20
157.865
 11
-6.26984
 21
158.275
  0
LINE
  8
0
 10
-6.26984
 20
158.275
 11
-7.52792
 21
158.786
  0
LINE
  8
0
 10
-7.52792
 20
158.786
 11
-7.66983
 21
158.994
  0
LINE
  8
0
 10
-7.66983
 20
158.994
 11
-7.50809
 21
159.356
  0
LINE
  8
0
 10
-7.50809
 20
159.356
 11
-8.12607
 21
159.663
  0
LINE
  8
0
 10
-8.12607
 20
159.663
 11
-8.86154
 21
160.7
  0
LINE
  8
0
 10
-8.86154
 20
160.7
 11
-7.8186
 21
160.971
  0
LINE
  8
0
 10
-7.8186
 20
160.971
 11
-7.2197
 21
160.823
  0
LINE
  8
0
 10
-7.2197
 20
160.823
 11
-7.14951
 21
161.118
  0
LINE
  8
0
 10
-7.14951
 20
161.118
 11
-6.78177
 21
161.172
  0
LINE
  8
0
 10
-6.78177
 20
161.172
 11
-5.11398
 21
160.284
  0
LINE
  8
0
 10
-5.11398
 20
160.284
 11
-5.21469
 21
160.743
  0
LINE
  8
0
 10
-5.21469
 20
160.743
 11
-5.34668
 21
160.809
  0
LINE
  8
0
 10
-5.34668
 20
160.809
 11
-5.26581
 21
160.852
  0
LINE
  8
0
 10
-5.26581
 20
160.852
 11
-6.15387
 21
161.393
  0
LINE
  8
0
 10
-6.15387
 20
161.393
 11
-6.58646
 21
161.912
  0
LINE
  8
0
 10
-6.58646
 20
161.912
 11
-6.51703
 21
162.392
  0
LINE
  8
0
 10
-6.51703
 20
162.392
 11
-7.00073
 21
163.7
  0
LINE
  8
0
 10
-7.00073
 20
163.7
 11
-5.78232
 21
163.408
  0
LINE
  8
0
 10
-5.78232
 20
163.408
 11
-5.17731
 21
163.603
  0
LINE
  8
0
 10
-5.17731
 20
163.603
 11
-4.16412
 21
162.944
  0
LINE
  8
0
 10
-4.16412
 20
162.944
 11
-4.1687
 21
164.952
  0
LINE
  8
0
 10
-4.1687
 20
164.952
 11
-1.19324
 21
164.952
  0
LINE
  8
0
 10
-1.19324
 20
164.952
 11
-1.15662
 21
164.13
  0
LINE
  8
0
 10
-1.15662
 20
164.13
 11
-1.39465
 21
162.895
  0
LINE
  8
0
 10
-1.39465
 20
162.895
 11
-0.323486
 21
163.729
  0
LINE
  8
0
 10
-0.323486
 20
163.729
 11
-0.0717163
 21
163.747
  0
LINE
  8
0
 10
-0.0717163
 20
163.747
 11
0.158691
 21
163.425
  0
LINE
  8
0
 10
0.158691
 20
163.425
 11
0.737
 21
163.807
  0
LINE
  8
0
 10
0.737
 20
163.807
 11
2.00119
 21
163.926
  0
LINE
  8
0
 10
2.00119
 20
163.926
 11
1.71585
 21
162.891
  0
LINE
  8
0
 10
1.71585
 20
162.891
 11
1.28479
 21
162.442
  0
LINE
  8
0
 10
1.28479
 20
162.442
 11
1.50528
 21
162.235
  0
LINE
  8
0
 10
1.50528
 20
162.235
 11
1.36795
 21
161.889
  0
LINE
  8
0
 10
1.36795
 20
161.889
 11
-0.233459
 21
160.889
  0
LINE
  8
0
 10
-0.233459
 20
160.889
 11
0.614166
 21
160.62
  0
LINE
  8
0
 10
0.614166
 20
160.62
 11
1.27869
 21
160
  0
LINE
  8
0
 10
1.27869
 20
160
 11
0.87204
 21
159.619
  0
LINE
  8
0
 10
0.87204
 20
159.619
 11
0.105286
 21
159.464
  0
LINE
  8
0
 10
0.105286
 20
159.464
 11
0.153351
 21
159.101
  0
LINE
  8
0
 10
0.153351
 20
159.101
 11
-0.908661
 21
159.018
  0
LINE
  8
0
 10
-0.908661
 20
159.018
 11
-2.84576
 21
159.822
  0
LINE
  8
0
 10
-2.84576
 20
159.822
 11
-3.27911
 21
159.628
  0
LINE
  8
0
 10
-3.27911
 20
159.628
 11
-3.00369
 21
159.468
  0
LINE
  8
0
 10
-3.00369
 20
159.468
 11
-2.88315
 21
158.553
  0
LINE
  8
0
 10
-2.88315
 20
158.553
 11
-1.49384
 21
157.55
  0
LINE
  8
0
 10
-1.49384
 20
157.55
 11
-0.972748
 21
156.819
  0
LINE
  8
0
 10
-0.972748
 20
156.819
 11
-0.928497
 21
156.538
  0
LINE
  8
0
 10
-0.928497
 20
156.538
 11
-1.15051
 21
156.396
  0
LINE
  8
0
 10
-1.15051
 20
156.396
 11
-0.958252
 21
155.971
  0
LINE
  8
0
 10
-0.958252
 20
155.971
 11
-1.02386
 21
155.185
  0
LINE
  8
0
 10
-1.02386
 20
155.185
 11
-1.44272
 21
155.229
  0
LINE
  8
0
 10
-1.44272
 20
155.229
 11
-2.56653
 21
155.943
  0
LINE
  8
0
 10
-2.56653
 20
155.943
 11
-2.59247
 21
154.903
  0
LINE
  8
0
 10
-2.59247
 20
154.903
 11
-2.82364
 21
154.269
  0
LINE
  8
0
 10
-2.82364
 20
154.269
 11
-3.26996
 21
154.092
  0
LINE
  8
0
 10
-3.26996
 20
154.092
 11
-4.16489
 21
153.02
  0
LINE
  8
0
 10
-4.16489
 20
153.02
 11
-4.52347
 21
154.221
  0
LINE
  8
0
 10
-4.52347
 20
154.221
 11
-4.9942
 21
154.644
  0
LINE
  8
0
 10
-4.9942
 20
154.644
 11
-4.92783
 21
155.853
  0
LINE
  8
0
 10
-4.92783
 20
155.853
 11
-6.66656
 21
154.844
  0
LINE
  8
0
 10
-6.66656
 20
154.844
 11
-6.84738
 21
155.157
  0
LINE
  8
0
 10
-6.84738
 20
155.157
 11
-7.54089
 21
154.716
  0
LINE
  8
0
 10
-7.54089
 20
154.716
 11
-8.72726
 21
154.305
  0
LINE
  8
0
 10
-8.72726
 20
154.305
 11
-7.47147
 21
153.795
  0
LINE
  8
0
 10
-7.47147
 20
153.795
 11
-7.32956
 21
153.587
  0
LINE
  8
0
 10
-7.32956
 20
153.587
 11
-7.4913
 21
153.225
  0
LINE
  8
0
 10
-7.4913
 20
153.225
 11
-6.87256
 21
152.917
  0
LINE
  8
0
 10
-6.87256
 20
152.917
 11
-6.13785
 21
151.881
  0
LINE
  8
0
 10
-6.13785
 20
151.881
 11
-7.18079
 21
151.611
  0
LINE
  8
0
 10
-7.18079
 20
151.611
 11
-7.77969
 21
151.759
  0
LINE
  8
0
 10
-7.77969
 20
151.759
 11
-7.84988
 21
151.463
  0
LINE
  8
0
 10
-7.84988
 20
151.463
 11
-8.21762
 21
151.41
  0
LINE
  8
0
 10
-8.21762
 20
151.41
 11
-9.88541
 21
152.296
  0
LINE
  8
0
 10
-9.88541
 20
152.296
 11
-9.69467
 21
151.43
  0
LINE
  8
0
 10
-9.69467
 20
151.43
 11
-9.89914
 21
150.543
  0
LINE
  8
0
 10
-9.89914
 20
150.543
 11
-10.4324
 21
150.703
  0
LINE
  8
0
 10
13.607
 20
145.011
 11
13.4346
 21
145.606
  0
LINE
  8
0
 10
13.4346
 20
145.606
 11
13.1432
 21
145.52
  0
LINE
  8
0
 10
13.1432
 20
145.52
 11
12.9158
 21
145.811
  0
LINE
  8
0
 10
12.9158
 20
145.811
 11
12.8479
 21
147.7
  0
LINE
  8
0
 10
12.8479
 20
147.7
 11
12.4992
 21
147.381
  0
LINE
  8
0
 10
12.4992
 20
147.381
 11
12.4992
 21
147.246
  0
LINE
  8
0
 10
12.4992
 20
147.246
 11
12.4329
 21
147.285
  0
LINE
  8
0
 10
12.4329
 20
147.285
 11
12.4069
 21
146.243
  0
LINE
  8
0
 10
12.4069
 20
146.243
 11
12.1758
 21
145.609
  0
LINE
  8
0
 10
12.1758
 20
145.609
 11
11.7294
 21
145.432
  0
LINE
  8
0
 10
11.7294
 20
145.432
 11
10.8337
 21
144.36
  0
LINE
  8
0
 10
10.8337
 20
144.36
 11
10.4767
 21
145.563
  0
LINE
  8
0
 10
10.4767
 20
145.563
 11
10.0052
 21
145.985
  0
LINE
  8
0
 10
10.0052
 20
145.985
 11
10.0708
 21
147.192
  0
LINE
  8
0
 10
10.0708
 20
147.192
 11
7.98492
 21
145.982
  0
LINE
  8
0
 10
7.98492
 20
145.982
 11
7.81555
 21
146.358
  0
LINE
  8
0
 10
7.81555
 20
146.358
 11
7.21741
 21
146.085
  0
LINE
  8
0
 10
7.21741
 20
146.085
 11
6.95801
 21
146.304
  0
LINE
  8
0
 10
6.95801
 20
146.304
 11
5.92041
 21
146.199
  0
LINE
  8
0
 10
5.92041
 20
146.199
 11
5.99594
 21
146.758
  0
LINE
  8
0
 10
5.99594
 20
146.758
 11
6.29501
 21
147.145
  0
LINE
  8
0
 10
6.29501
 20
147.145
 11
6.21567
 21
147.546
  0
LINE
  8
0
 10
6.21567
 20
147.546
 11
6.9809
 21
148.09
  0
LINE
  8
0
 10
6.9809
 20
148.09
 11
6.52008
 21
148.554
  0
LINE
  8
0
 10
6.52008
 20
148.554
 11
7.54089
 21
149.205
  0
LINE
  8
0
 10
7.54089
 20
149.205
 11
8.72955
 21
149.615
  0
LINE
  8
0
 10
8.72955
 20
149.615
 11
7.47147
 21
150.126
  0
LINE
  8
0
 10
7.47147
 20
150.126
 11
7.33032
 21
150.334
  0
LINE
  8
0
 10
7.33032
 20
150.334
 11
7.4913
 21
150.696
  0
LINE
  8
0
 10
7.4913
 20
150.696
 11
6.87256
 21
151.004
  0
LINE
  8
0
 10
6.87256
 20
151.004
 11
6.13785
 21
152.04
  0
LINE
  8
0
 10
6.13785
 20
152.04
 11
7.17926
 21
152.311
  0
LINE
  8
0
 10
7.17926
 20
152.311
 11
7.77969
 21
152.162
  0
LINE
  8
0
 10
7.77969
 20
152.162
 11
7.84988
 21
152.457
  0
LINE
  8
0
 10
7.84988
 20
152.457
 11
8.21533
 21
152.512
  0
LINE
  8
0
 10
8.21533
 20
152.512
 11
9.88541
 21
151.624
  0
LINE
  8
0
 10
9.88541
 20
151.624
 11
9.78088
 21
152.1
  0
LINE
  8
0
 10
9.78088
 20
152.1
 11
9.70459
 21
152.177
  0
LINE
  8
0
 10
9.70459
 20
152.177
 11
9.73206
 21
152.192
  0
LINE
  8
0
 10
9.73206
 20
152.192
 11
8.84552
 21
152.733
  0
LINE
  8
0
 10
8.84552
 20
152.733
 11
8.41293
 21
153.252
  0
LINE
  8
0
 10
8.41293
 20
153.252
 11
8.48236
 21
153.732
  0
LINE
  8
0
 10
8.48236
 20
153.732
 11
7.99866
 21
155.041
  0
LINE
  8
0
 10
7.99866
 20
155.041
 11
9.21783
 21
154.747
  0
LINE
  8
0
 10
9.21783
 20
154.747
 11
9.82285
 21
154.943
  0
LINE
  8
0
 10
9.82285
 20
154.943
 11
10.8353
 21
154.284
  0
LINE
  8
0
 10
10.8353
 20
154.284
 11
10.8292
 21
156.696
  0
LINE
  8
0
 10
10.8292
 20
156.696
 11
11.2396
 21
156.652
  0
LINE
  8
0
 10
11.2396
 20
156.652
 11
11.2969
 21
157.225
  0
LINE
  8
0
 10
11.2969
 20
157.225
 11
14.9122
 21
146.098
  0
LINE
  8
0
 10
14.9122
 20
146.098
 11
14.8491
 21
146.092
  0
LINE
  8
0
 10
14.8491
 20
146.092
 11
14.8895
 21
145.399
  0
LINE
  8
0
 10
14.8895
 20
145.399
 11
14.3616
 21
144.244
  0
LINE
  8
0
 10
14.3616
 20
144.244
 11
13.607
 21
145.011
  0
LINE
  8
0
 10
12.5
 20
149.935
 11
13.2347
 21
150.497
  0
LINE
  8
0
 10
13.2347
 20
150.497
 11
13.282
 21
150.967
  0
LINE
  8
0
 10
13.282
 20
150.967
 11
13.0028
 21
150.809
  0
LINE
  8
0
 10
13.0028
 20
150.809
 11
12.1536
 21
151.162
  0
LINE
  8
0
 10
12.1536
 20
151.162
 11
11.7195
 21
150.967
  0
LINE
  8
0
 10
11.7195
 20
150.967
 11
11.9949
 21
150.808
  0
LINE
  8
0
 10
11.9949
 20
150.808
 11
12.1155
 21
149.893
  0
LINE
  8
0
 10
12.1155
 20
149.893
 11
12.4992
 21
149.616
  0
LINE
  8
0
 10
12.4992
 20
149.616
 11
12.5
 21
149.935
  0
LINE
  8
0
 10
-12.4969
 20
128.573
 11
-12.6816
 21
129.025
  0
LINE
  8
0
 10
-12.6816
 20
129.025
 11
-13.0699
 21
129.156
  0
LINE
  8
0
 10
-13.0699
 20
129.156
 11
-13.1577
 21
130.091
  0
LINE
  8
0
 10
-13.1577
 20
130.091
 11
-13.7894
 21
129.925
  0
LINE
  8
0
 10
-13.7894
 20
129.925
 11
-13.8428
 21
131.131
  0
LINE
  8
0
 10
-13.8428
 20
131.131
 11
-13.6047
 21
132.366
  0
LINE
  8
0
 10
-13.6047
 20
132.366
 11
-14.6759
 21
131.532
  0
LINE
  8
0
 10
-14.6759
 20
131.532
 11
-14.9284
 21
131.515
  0
LINE
  8
0
 10
-14.9284
 20
131.515
 11
-15.1588
 21
131.837
  0
LINE
  8
0
 10
-15.1588
 20
131.837
 11
-15.7372
 21
131.455
  0
LINE
  8
0
 10
-15.7372
 20
131.455
 11
-17.0013
 21
131.335
  0
LINE
  8
0
 10
-17.0013
 20
131.335
 11
-16.716
 21
132.37
  0
LINE
  8
0
 10
-16.716
 20
132.37
 11
-16.2849
 21
132.819
  0
LINE
  8
0
 10
-16.2849
 20
132.819
 11
-16.5054
 21
133.026
  0
LINE
  8
0
 10
-16.5054
 20
133.026
 11
-16.3681
 21
133.372
  0
LINE
  8
0
 10
-16.3681
 20
133.372
 11
-14.7652
 21
134.373
  0
LINE
  8
0
 10
-14.7652
 20
134.373
 11
-15.2115
 21
134.514
  0
LINE
  8
0
 10
-15.2115
 20
134.514
 11
-15.3381
 21
134.43
  0
LINE
  8
0
 10
-15.3381
 20
134.43
 11
-15.3343
 21
134.524
  0
LINE
  8
0
 10
-15.3343
 20
134.524
 11
-16.2468
 21
134.028
  0
LINE
  8
0
 10
-16.2468
 20
134.028
 11
-16.9144
 21
133.91
  0
LINE
  8
0
 10
-16.9144
 20
133.91
 11
-17.2897
 21
134.212
  0
LINE
  8
0
 10
-17.2897
 20
134.212
 11
-18.6668
 21
134.447
  0
LINE
  8
0
 10
-18.6668
 20
134.447
 11
-17.8001
 21
135.359
  0
LINE
  8
0
 10
-17.8001
 20
135.359
 11
-17.6735
 21
135.977
  0
LINE
  8
0
 10
-17.6735
 20
135.977
 11
-16.5947
 21
136.525
  0
LINE
  8
0
 10
-16.5947
 20
136.525
 11
-17.798
 21
137.217
  0
LINE
  8
0
 10
-17.798
 20
137.217
 11
-16.8584
 21
140.109
  0
LINE
  8
0
 10
-16.8584
 20
140.109
 11
-16.1201
 21
139.725
  0
LINE
  8
0
 10
-16.1201
 20
139.725
 11
-15.1665
 21
138.9
  0
LINE
  8
0
 10
-15.1665
 20
138.9
 11
-15.3519
 21
140.247
  0
LINE
  8
0
 10
-15.3519
 20
140.247
 11
-15.2428
 21
140.47
  0
LINE
  8
0
 10
-15.2428
 20
140.47
 11
-14.8491
 21
140.509
  0
LINE
  8
0
 10
-14.8491
 20
140.509
 11
-14.8895
 21
141.203
  0
LINE
  8
0
 10
-14.8895
 20
141.203
 11
-14.3616
 21
142.358
  0
LINE
  8
0
 10
-14.3616
 20
142.358
 11
-13.607
 21
141.59
  0
LINE
  8
0
 10
-13.607
 20
141.59
 11
-13.4346
 21
140.995
  0
LINE
  8
0
 10
-13.4346
 20
140.995
 11
-13.1432
 21
141.081
  0
LINE
  8
0
 10
-13.1432
 20
141.081
 11
-12.9158
 21
140.79
  0
LINE
  8
0
 10
-12.9158
 20
140.79
 11
-12.8479
 21
138.902
  0
LINE
  8
0
 10
-12.8479
 20
138.902
 11
-12.4992
 21
139.22
  0
LINE
  8
0
 10
-12.4992
 20
139.22
 11
-12.4992
 21
139.355
  0
LINE
  8
0
 10
-12.4992
 20
139.355
 11
-12.4329
 21
139.317
  0
LINE
  8
0
 10
-12.4329
 20
139.317
 11
-12.4069
 21
140.358
  0
LINE
  8
0
 10
-12.4069
 20
140.358
 11
-12.1758
 21
140.993
  0
LINE
  8
0
 10
-12.1758
 20
140.993
 11
-11.7294
 21
141.169
  0
LINE
  8
0
 10
-11.7294
 20
141.169
 11
-10.8337
 21
142.242
  0
LINE
  8
0
 10
-10.8337
 20
142.242
 11
-10.4767
 21
141.039
  0
LINE
  8
0
 10
-10.4767
 20
141.039
 11
-10.0052
 21
140.617
  0
LINE
  8
0
 10
-10.0052
 20
140.617
 11
-10.0708
 21
139.409
  0
LINE
  8
0
 10
-10.0708
 20
139.409
 11
-7.98492
 21
140.62
  0
LINE
  8
0
 10
-7.98492
 20
140.62
 11
-7.81555
 21
140.244
  0
LINE
  8
0
 10
-7.81555
 20
140.244
 11
-7.21741
 21
140.517
  0
LINE
  8
0
 10
-7.21741
 20
140.517
 11
-6.95801
 21
140.298
  0
LINE
  8
0
 10
-6.95801
 20
140.298
 11
-5.92041
 21
140.402
  0
LINE
  8
0
 10
-5.92041
 20
140.402
 11
-5.99594
 21
139.843
  0
LINE
  8
0
 10
-5.99594
 20
139.843
 11
-6.29501
 21
139.456
  0
LINE
  8
0
 10
-6.29501
 20
139.456
 11
-6.21567
 21
139.056
  0
LINE
  8
0
 10
-6.21567
 20
139.056
 11
-6.9809
 21
138.511
  0
LINE
  8
0
 10
-6.9809
 20
138.511
 11
-6.52008
 21
138.047
  0
LINE
  8
0
 10
-6.52008
 20
138.047
 11
-7.54089
 21
137.396
  0
LINE
  8
0
 10
-7.54089
 20
137.396
 11
-8.72955
 21
136.987
  0
LINE
  8
0
 10
-8.72955
 20
136.987
 11
-7.47147
 21
136.475
  0
LINE
  8
0
 10
-7.47147
 20
136.475
 11
-7.33032
 21
136.267
  0
LINE
  8
0
 10
-7.33032
 20
136.267
 11
-7.4913
 21
135.905
  0
LINE
  8
0
 10
-7.4913
 20
135.905
 11
-6.87256
 21
135.597
  0
LINE
  8
0
 10
-6.87256
 20
135.597
 11
-6.13785
 21
134.561
  0
LINE
  8
0
 10
-6.13785
 20
134.561
 11
-7.17926
 21
134.29
  0
LINE
  8
0
 10
-7.17926
 20
134.29
 11
-7.77969
 21
134.439
  0
LINE
  8
0
 10
-7.77969
 20
134.439
 11
-7.84988
 21
134.144
  0
LINE
  8
0
 10
-7.84988
 20
134.144
 11
-8.21533
 21
134.09
  0
LINE
  8
0
 10
-8.21533
 20
134.09
 11
-9.88541
 21
134.977
  0
LINE
  8
0
 10
-9.88541
 20
134.977
 11
-9.78088
 21
134.501
  0
LINE
  8
0
 10
-9.78088
 20
134.501
 11
-9.70459
 21
134.424
  0
LINE
  8
0
 10
-9.70459
 20
134.424
 11
-9.73206
 21
134.409
  0
LINE
  8
0
 10
-9.73206
 20
134.409
 11
-8.84552
 21
133.868
  0
LINE
  8
0
 10
-8.84552
 20
133.868
 11
-8.41293
 21
133.35
  0
LINE
  8
0
 10
-8.41293
 20
133.35
 11
-8.48236
 21
132.87
  0
LINE
  8
0
 10
-8.48236
 20
132.87
 11
-7.99866
 21
131.561
  0
LINE
  8
0
 10
-7.99866
 20
131.561
 11
-9.21783
 21
131.854
  0
LINE
  8
0
 10
-9.21783
 20
131.854
 11
-9.82285
 21
131.658
  0
LINE
  8
0
 10
-9.82285
 20
131.658
 11
-10.8353
 21
132.317
  0
LINE
  8
0
 10
-10.8353
 20
132.317
 11
-10.8292
 21
129.906
  0
LINE
  8
0
 10
-10.8292
 20
129.906
 11
-11.2396
 21
129.949
  0
LINE
  8
0
 10
-11.2396
 20
129.949
 11
-11.3052
 21
129.293
  0
LINE
  8
0
 10
-11.3052
 20
129.293
 11
-11.6226
 21
129.18
  0
LINE
  8
0
 10
-11.6226
 20
129.18
 11
-12.0522
 21
128.226
  0
LINE
  8
0
 10
-12.0522
 20
128.226
 11
-12.4969
 21
128.573
  0
LINE
  8
0
 10
-11.7195
 20
135.634
 11
-11.9949
 21
135.793
  0
LINE
  8
0
 10
-11.9949
 20
135.793
 11
-12.1155
 21
136.708
  0
LINE
  8
0
 10
-12.1155
 20
136.708
 11
-12.4992
 21
136.985
  0
LINE
  8
0
 10
-12.4992
 20
136.985
 11
-12.5
 21
136.666
  0
LINE
  8
0
 10
-12.5
 20
136.666
 11
-13.2347
 21
136.105
  0
LINE
  8
0
 10
-13.2347
 20
136.105
 11
-13.282
 21
135.634
  0
LINE
  8
0
 10
-13.282
 20
135.634
 11
-13.0028
 21
135.793
  0
LINE
  8
0
 10
-13.0028
 20
135.793
 11
-12.1536
 21
135.439
  0
LINE
  8
0
 10
-12.1536
 20
135.439
 11
-11.7195
 21
135.634
  0
LINE
  8
0
 10
1.19324
 20
121.65
 11
1.15662
 21
122.471
  0
LINE
  8
0
 10
1.15662
 20
122.471
 11
1.39465
 21
123.706
  0
LINE
  8
0
 10
1.39465
 20
123.706
 11
0.323486
 21
122.872
  0
LINE
  8
0
 10
0.323486
 20
122.872
 11
0.0717163
 21
122.854
  0
LINE
  8
0
 10
0.0717163
 20
122.854
 11
-0.158691
 21
123.176
  0
LINE
  8
0
 10
-0.158691
 20
123.176
 11
-0.737
 21
122.794
  0
LINE
  8
0
 10
-0.737
 20
122.794
 11
-2.00119
 21
122.675
  0
LINE
  8
0
 10
-2.00119
 20
122.675
 11
-1.71585
 21
123.71
  0
LINE
  8
0
 10
-1.71585
 20
123.71
 11
-1.28479
 21
124.159
  0
LINE
  8
0
 10
-1.28479
 20
124.159
 11
-1.50528
 21
124.366
  0
LINE
  8
0
 10
-1.50528
 20
124.366
 11
-1.36795
 21
124.712
  0
LINE
  8
0
 10
-1.36795
 20
124.712
 11
0.233459
 21
125.713
  0
LINE
  8
0
 10
0.233459
 20
125.713
 11
-0.614166
 21
125.981
  0
LINE
  8
0
 10
-0.614166
 20
125.981
 11
-1.27869
 21
126.601
  0
LINE
  8
0
 10
-1.27869
 20
126.601
 11
-0.87204
 21
126.982
  0
LINE
  8
0
 10
-0.87204
 20
126.982
 11
-0.105286
 21
127.137
  0
LINE
  8
0
 10
-0.105286
 20
127.137
 11
-0.153351
 21
127.5
  0
LINE
  8
0
 10
-0.153351
 20
127.5
 11
0.908661
 21
127.583
  0
LINE
  8
0
 10
0.908661
 20
127.583
 11
2.84576
 21
126.779
  0
LINE
  8
0
 10
2.84576
 20
126.779
 11
3.27911
 21
126.973
  0
LINE
  8
0
 10
3.27911
 20
126.973
 11
3.00369
 21
127.133
  0
LINE
  8
0
 10
3.00369
 20
127.133
 11
2.88315
 21
128.048
  0
LINE
  8
0
 10
2.88315
 20
128.048
 11
1.49384
 21
129.051
  0
LINE
  8
0
 10
1.49384
 20
129.051
 11
0.972748
 21
129.782
  0
LINE
  8
0
 10
0.972748
 20
129.782
 11
0.928497
 21
130.063
  0
LINE
  8
0
 10
0.928497
 20
130.063
 11
1.15051
 21
130.205
  0
LINE
  8
0
 10
1.15051
 20
130.205
 11
0.958252
 21
130.63
  0
LINE
  8
0
 10
0.958252
 20
130.63
 11
1.02386
 21
131.416
  0
LINE
  8
0
 10
1.02386
 20
131.416
 11
1.44272
 21
131.372
  0
LINE
  8
0
 10
1.44272
 20
131.372
 11
2.56653
 21
130.658
  0
LINE
  8
0
 10
2.56653
 20
130.658
 11
2.59247
 21
131.698
  0
LINE
  8
0
 10
2.59247
 20
131.698
 11
2.82364
 21
132.333
  0
LINE
  8
0
 10
2.82364
 20
132.333
 11
3.26996
 21
132.509
  0
LINE
  8
0
 10
3.26996
 20
132.509
 11
4.16489
 21
133.582
  0
LINE
  8
0
 10
4.16489
 20
133.582
 11
4.52347
 21
132.38
  0
LINE
  8
0
 10
4.52347
 20
132.38
 11
4.9942
 21
131.957
  0
LINE
  8
0
 10
4.9942
 20
131.957
 11
4.92783
 21
130.749
  0
LINE
  8
0
 10
4.92783
 20
130.749
 11
6.66656
 21
131.757
  0
LINE
  8
0
 10
6.66656
 20
131.757
 11
6.84738
 21
131.444
  0
LINE
  8
0
 10
6.84738
 20
131.444
 11
7.54089
 21
131.886
  0
LINE
  8
0
 10
7.54089
 20
131.886
 11
8.72726
 21
132.296
  0
LINE
  8
0
 10
8.72726
 20
132.296
 11
7.47147
 21
132.806
  0
LINE
  8
0
 10
7.47147
 20
132.806
 11
7.32956
 21
133.015
  0
LINE
  8
0
 10
7.32956
 20
133.015
 11
7.4913
 21
133.376
  0
LINE
  8
0
 10
7.4913
 20
133.376
 11
6.87256
 21
133.684
  0
LINE
  8
0
 10
6.87256
 20
133.684
 11
6.13785
 21
134.72
  0
LINE
  8
0
 10
6.13785
 20
134.72
 11
7.18079
 21
134.991
  0
LINE
  8
0
 10
7.18079
 20
134.991
 11
7.77969
 21
134.843
  0
LINE
  8
0
 10
7.77969
 20
134.843
 11
7.84988
 21
135.138
  0
LINE
  8
0
 10
7.84988
 20
135.138
 11
8.21762
 21
135.191
  0
LINE
  8
0
 10
8.21762
 20
135.191
 11
9.88541
 21
134.305
  0
LINE
  8
0
 10
9.88541
 20
134.305
 11
9.69467
 21
135.172
  0
LINE
  8
0
 10
9.69467
 20
135.172
 11
9.89914
 21
136.058
  0
LINE
  8
0
 10
9.89914
 20
136.058
 11
10.4324
 21
135.898
  0
LINE
  8
0
 10
10.4324
 20
135.898
 11
10.9489
 21
135.31
  0
LINE
  8
0
 10
10.9489
 20
135.31
 11
11.2396
 21
135.534
  0
LINE
  8
0
 10
11.2396
 20
135.534
 11
11.8416
 21
134.657
  0
LINE
  8
0
 10
11.8416
 20
134.657
 11
12.1155
 21
132.574
  0
LINE
  8
0
 10
12.1155
 20
132.574
 11
12.5
 21
132.296
  0
LINE
  8
0
 10
12.5
 20
132.296
 11
12.5
 21
132.616
  0
LINE
  8
0
 10
12.5
 20
132.616
 11
13.2339
 21
133.177
  0
LINE
  8
0
 10
13.2339
 20
133.177
 11
13.4071
 21
134.885
  0
LINE
  8
0
 10
13.4071
 20
134.885
 11
13.7756
 21
135.695
  0
LINE
  8
0
 10
13.7756
 20
135.695
 11
14.0007
 21
135.878
  0
LINE
  8
0
 10
14.0007
 20
135.878
 11
14.2334
 21
135.757
  0
LINE
  8
0
 10
14.2334
 20
135.757
 11
14.5058
 21
136.137
  0
LINE
  8
0
 10
14.5058
 20
136.137
 11
15.2184
 21
136.474
  0
LINE
  8
0
 10
15.2184
 20
136.474
 11
15.3915
 21
136.085
  0
LINE
  8
0
 10
15.3915
 20
136.085
 11
15.3336
 21
134.756
  0
LINE
  8
0
 10
15.3336
 20
134.756
 11
16.2468
 21
135.254
  0
LINE
  8
0
 10
16.2468
 20
135.254
 11
16.9128
 21
135.371
  0
LINE
  8
0
 10
16.9128
 20
135.371
 11
17.2897
 21
135.071
  0
LINE
  8
0
 10
17.2897
 20
135.071
 11
18.5663
 21
134.852
  0
LINE
  8
0
 10
18.5663
 20
134.852
 11
18.5961
 21
134.761
  0
LINE
  8
0
 10
18.5961
 20
134.761
 11
17.8001
 21
133.922
  0
LINE
  8
0
 10
17.8001
 20
133.922
 11
17.672
 21
133.305
  0
LINE
  8
0
 10
17.672
 20
133.305
 11
16.5932
 21
132.757
  0
LINE
  8
0
 10
16.5932
 20
132.757
 11
18.3357
 21
131.756
  0
LINE
  8
0
 10
18.3357
 20
131.756
 11
18.1541
 21
131.441
  0
LINE
  8
0
 10
18.1541
 20
131.441
 11
18.8805
 21
131.065
  0
LINE
  8
0
 10
18.8805
 20
131.065
 11
19.8334
 21
130.24
  0
LINE
  8
0
 10
19.8334
 20
130.24
 11
19.6631
 21
131.477
  0
LINE
  8
0
 10
19.6631
 20
131.477
 11
22.856
 21
121.65
  0
LINE
  8
0
 10
22.856
 20
121.65
 11
21.1937
 21
121.65
  0
LINE
  8
0
 10
21.1937
 20
121.65
 11
21.1571
 21
122.471
  0
LINE
  8
0
 10
21.1571
 20
122.471
 11
21.3959
 21
123.707
  0
LINE
  8
0
 10
21.3959
 20
123.707
 11
20.3239
 21
122.872
  0
LINE
  8
0
 10
20.3239
 20
122.872
 11
20.0722
 21
122.854
  0
LINE
  8
0
 10
20.0722
 20
122.854
 11
19.841
 21
123.177
  0
LINE
  8
0
 10
19.841
 20
123.177
 11
19.2635
 21
122.794
  0
LINE
  8
0
 10
19.2635
 20
122.794
 11
17.9977
 21
122.675
  0
LINE
  8
0
 10
17.9977
 20
122.675
 11
18.2838
 21
123.71
  0
LINE
  8
0
 10
18.2838
 20
123.71
 11
18.7149
 21
124.159
  0
LINE
  8
0
 10
18.7149
 20
124.159
 11
18.4944
 21
124.366
  0
LINE
  8
0
 10
18.4944
 20
124.366
 11
18.6317
 21
124.712
  0
LINE
  8
0
 10
18.6317
 20
124.712
 11
20.2339
 21
125.712
  0
LINE
  8
0
 10
20.2339
 20
125.712
 11
19.6968
 21
125.882
  0
LINE
  8
0
 10
19.6968
 20
125.882
 11
18.7538
 21
125.368
  0
LINE
  8
0
 10
18.7538
 20
125.368
 11
18.0878
 21
125.25
  0
LINE
  8
0
 10
18.0878
 20
125.25
 11
17.7109
 21
125.551
  0
LINE
  8
0
 10
17.7109
 20
125.551
 11
16.333
 21
125.787
  0
LINE
  8
0
 10
16.333
 20
125.787
 11
17.1997
 21
126.7
  0
LINE
  8
0
 10
17.1997
 20
126.7
 11
17.3286
 21
127.317
  0
LINE
  8
0
 10
17.3286
 20
127.317
 11
18.4074
 21
127.866
  0
LINE
  8
0
 10
18.4074
 20
127.866
 11
16.6649
 21
128.867
  0
LINE
  8
0
 10
16.6649
 20
128.867
 11
16.8449
 21
129.179
  0
LINE
  8
0
 10
16.8449
 20
129.179
 11
16.1179
 21
129.559
  0
LINE
  8
0
 10
16.1179
 20
129.559
 11
15.168
 21
130.383
  0
LINE
  8
0
 10
15.168
 20
130.383
 11
15.3526
 21
129.037
  0
LINE
  8
0
 10
15.3526
 20
129.037
 11
15.2435
 21
128.811
  0
LINE
  8
0
 10
15.2435
 20
128.811
 11
14.8491
 21
128.772
  0
LINE
  8
0
 10
14.8491
 20
128.772
 11
14.8903
 21
128.08
  0
LINE
  8
0
 10
14.8903
 20
128.08
 11
14.3616
 21
126.926
  0
LINE
  8
0
 10
14.3616
 20
126.926
 11
13.607
 21
127.692
  0
LINE
  8
0
 10
13.607
 20
127.692
 11
13.4346
 21
128.286
  0
LINE
  8
0
 10
13.4346
 20
128.286
 11
13.1424
 21
128.2
  0
LINE
  8
0
 10
13.1424
 20
128.2
 11
12.9158
 21
128.492
  0
LINE
  8
0
 10
12.9158
 20
128.492
 11
12.8479
 21
130.379
  0
LINE
  8
0
 10
12.8479
 20
130.379
 11
12.4352
 21
130.002
  0
LINE
  8
0
 10
12.4352
 20
130.002
 11
12.4092
 21
128.924
  0
LINE
  8
0
 10
12.4092
 20
128.924
 11
12.1758
 21
128.289
  0
LINE
  8
0
 10
12.1758
 20
128.289
 11
11.7294
 21
128.113
  0
LINE
  8
0
 10
11.7294
 20
128.113
 11
10.8337
 21
127.039
  0
LINE
  8
0
 10
10.8337
 20
127.039
 11
10.4752
 21
128.241
  0
LINE
  8
0
 10
10.4752
 20
128.241
 11
10.0052
 21
128.664
  0
LINE
  8
0
 10
10.0052
 20
128.664
 11
10.0708
 21
129.874
  0
LINE
  8
0
 10
10.0708
 20
129.874
 11
8.33206
 21
128.865
  0
LINE
  8
0
 10
8.33206
 20
128.865
 11
8.15125
 21
129.179
  0
LINE
  8
0
 10
8.15125
 20
129.179
 11
7.46078
 21
128.736
  0
LINE
  8
0
 10
7.46078
 20
128.736
 11
6.26984
 21
128.326
  0
LINE
  8
0
 10
6.26984
 20
128.326
 11
7.52792
 21
127.815
  0
LINE
  8
0
 10
7.52792
 20
127.815
 11
7.66983
 21
127.607
  0
LINE
  8
0
 10
7.66983
 20
127.607
 11
7.50809
 21
127.245
  0
LINE
  8
0
 10
7.50809
 20
127.245
 11
8.12607
 21
126.938
  0
LINE
  8
0
 10
8.12607
 20
126.938
 11
8.86154
 21
125.901
  0
LINE
  8
0
 10
8.86154
 20
125.901
 11
7.8186
 21
125.63
  0
LINE
  8
0
 10
7.8186
 20
125.63
 11
7.2197
 21
125.778
  0
LINE
  8
0
 10
7.2197
 20
125.778
 11
7.14951
 21
125.483
  0
LINE
  8
0
 10
7.14951
 20
125.483
 11
6.78177
 21
125.43
  0
LINE
  8
0
 10
6.78177
 20
125.43
 11
5.11398
 21
126.317
  0
LINE
  8
0
 10
5.11398
 20
126.317
 11
5.21469
 21
125.858
  0
LINE
  8
0
 10
5.21469
 20
125.858
 11
5.34668
 21
125.792
  0
LINE
  8
0
 10
5.34668
 20
125.792
 11
5.26581
 21
125.749
  0
LINE
  8
0
 10
5.26581
 20
125.749
 11
6.15387
 21
125.208
  0
LINE
  8
0
 10
6.15387
 20
125.208
 11
6.58646
 21
124.689
  0
LINE
  8
0
 10
6.58646
 20
124.689
 11
6.51703
 21
124.21
  0
LINE
  8
0
 10
6.51703
 20
124.21
 11
7.00073
 21
122.901
  0
LINE
  8
0
 10
7.00073
 20
122.901
 11
5.78232
 21
123.193
  0
LINE
  8
0
 10
5.78232
 20
123.193
 11
5.17731
 21
122.998
  0
LINE
  8
0
 10
5.17731
 20
122.998
 11
4.16412
 21
123.657
  0
LINE
  8
0
 10
4.16412
 20
123.657
 11
4.1687
 21
121.65
  0
LINE
  8
0
 10
4.1687
 20
121.65
 11
1.19324
 21
121.65
  0
LINE
  8
0
 10
-15.3915
 20
107.216
 11
-15.3336
 21
108.544
  0
LINE
  8
0
 10
-15.3336
 20
108.544
 11
-16.2468
 21
108.047
  0
LINE
  8
0
 10
-16.2468
 20
108.047
 11
-16.9128
 21
107.929
  0
LINE
  8
0
 10
-16.9128
 20
107.929
 11
-17.2897
 21
108.23
  0
LINE
  8
0
 10
-17.2897
 20
108.23
 11
-18.6668
 21
108.466
  0
LINE
  8
0
 10
-18.6668
 20
108.466
 11
-17.8001
 21
109.379
  0
LINE
  8
0
 10
-17.8001
 20
109.379
 11
-17.672
 21
109.996
  0
LINE
  8
0
 10
-17.672
 20
109.996
 11
-16.5932
 21
110.544
  0
LINE
  8
0
 10
-16.5932
 20
110.544
 11
-18.3357
 21
111.545
  0
LINE
  8
0
 10
-18.3357
 20
111.545
 11
-18.1541
 21
111.859
  0
LINE
  8
0
 10
-18.1541
 20
111.859
 11
-18.8805
 21
112.236
  0
LINE
  8
0
 10
-18.8805
 20
112.236
 11
-19.8334
 21
113.061
  0
LINE
  8
0
 10
-19.8334
 20
113.061
 11
-19.648
 21
111.714
  0
LINE
  8
0
 10
-19.648
 20
111.714
 11
-19.7586
 21
111.49
  0
LINE
  8
0
 10
-19.7586
 20
111.49
 11
-20.1508
 21
111.451
  0
LINE
  8
0
 10
-20.1508
 20
111.451
 11
-20.1096
 21
110.759
  0
LINE
  8
0
 10
-20.1096
 20
110.759
 11
-20.6383
 21
109.606
  0
LINE
  8
0
 10
-20.6383
 20
109.606
 11
-21.3928
 21
110.371
  0
LINE
  8
0
 10
-21.3928
 20
110.371
 11
-21.5652
 21
110.966
  0
LINE
  8
0
 10
-21.5652
 20
110.966
 11
-21.8567
 21
110.88
  0
LINE
  8
0
 10
-21.8567
 20
110.88
 11
-22.0848
 21
111.172
  0
LINE
  8
0
 10
-22.0848
 20
111.172
 11
-22.1527
 21
113.058
  0
LINE
  8
0
 10
-22.1527
 20
113.058
 11
-22.8088
 21
112.458
  0
LINE
  8
0
 10
-22.8088
 20
112.458
 11
-23.6755
 21
112.193
  0
LINE
  8
0
 10
-23.6755
 20
112.193
 11
-23.8052
 21
112.735
  0
LINE
  8
0
 10
-23.8052
 20
112.735
 11
-23.555
 21
113.478
  0
LINE
  8
0
 10
-23.555
 20
113.478
 11
-23.8945
 21
113.618
  0
LINE
  8
0
 10
-23.8945
 20
113.618
 11
-23.4383
 21
114.574
  0
LINE
  8
0
 10
-23.4383
 20
114.574
 11
-21.7659
 21
115.858
  0
LINE
  8
0
 10
-21.7659
 20
115.858
 11
-21.7186
 21
116.329
  0
LINE
  8
0
 10
-21.7186
 20
116.329
 11
-21.9963
 21
116.168
  0
LINE
  8
0
 10
-21.9963
 20
116.168
 11
-22.847
 21
116.521
  0
LINE
  8
0
 10
-22.847
 20
116.521
 11
-24.4217
 21
115.819
  0
LINE
  8
0
 10
-24.4217
 20
115.819
 11
-24.7612
 21
115.786
  0
LINE
  8
0
 10
-24.7612
 20
115.786
 11
-22.8557
 21
121.651
  0
LINE
  8
0
 10
-22.8557
 20
121.651
 11
-21.1937
 21
121.651
  0
LINE
  8
0
 10
-21.1937
 20
121.651
 11
-21.1571
 21
120.83
  0
LINE
  8
0
 10
-21.1571
 20
120.83
 11
-21.3959
 21
119.594
  0
LINE
  8
0
 10
-21.3959
 20
119.594
 11
-20.3239
 21
120.428
  0
LINE
  8
0
 10
-20.3239
 20
120.428
 11
-20.0722
 21
120.447
  0
LINE
  8
0
 10
-20.0722
 20
120.447
 11
-19.841
 21
120.124
  0
LINE
  8
0
 10
-19.841
 20
120.124
 11
-19.2635
 21
120.506
  0
LINE
  8
0
 10
-19.2635
 20
120.506
 11
-17.9977
 21
120.625
  0
LINE
  8
0
 10
-17.9977
 20
120.625
 11
-18.2838
 21
119.591
  0
LINE
  8
0
 10
-18.2838
 20
119.591
 11
-18.7149
 21
119.141
  0
LINE
  8
0
 10
-18.7149
 20
119.141
 11
-18.4944
 21
118.935
  0
LINE
  8
0
 10
-18.4944
 20
118.935
 11
-18.6317
 21
118.588
  0
LINE
  8
0
 10
-18.6317
 20
118.588
 11
-20.2339
 21
117.589
  0
LINE
  8
0
 10
-20.2339
 20
117.589
 11
-19.6968
 21
117.419
  0
LINE
  8
0
 10
-19.6968
 20
117.419
 11
-18.7538
 21
117.933
  0
LINE
  8
0
 10
-18.7538
 20
117.933
 11
-18.0878
 21
118.05
  0
LINE
  8
0
 10
-18.0878
 20
118.05
 11
-17.7109
 21
117.75
  0
LINE
  8
0
 10
-17.7109
 20
117.75
 11
-16.333
 21
117.513
  0
LINE
  8
0
 10
-16.333
 20
117.513
 11
-17.1997
 21
116.601
  0
LINE
  8
0
 10
-17.1997
 20
116.601
 11
-17.3286
 21
115.984
  0
LINE
  8
0
 10
-17.3286
 20
115.984
 11
-18.4074
 21
115.435
  0
LINE
  8
0
 10
-18.4074
 20
115.435
 11
-16.6649
 21
114.434
  0
LINE
  8
0
 10
-16.6649
 20
114.434
 11
-16.8449
 21
114.121
  0
LINE
  8
0
 10
-16.8449
 20
114.121
 11
-16.1179
 21
113.741
  0
LINE
  8
0
 10
-16.1179
 20
113.741
 11
-15.168
 21
112.918
  0
LINE
  8
0
 10
-15.168
 20
112.918
 11
-15.3526
 21
114.264
  0
LINE
  8
0
 10
-15.3526
 20
114.264
 11
-15.2435
 21
114.49
  0
LINE
  8
0
 10
-15.2435
 20
114.49
 11
-14.8491
 21
114.529
  0
LINE
  8
0
 10
-14.8491
 20
114.529
 11
-14.8903
 21
115.221
  0
LINE
  8
0
 10
-14.8903
 20
115.221
 11
-14.3616
 21
116.374
  0
LINE
  8
0
 10
-14.3616
 20
116.374
 11
-13.607
 21
115.609
  0
LINE
  8
0
 10
-13.607
 20
115.609
 11
-13.4346
 21
115.015
  0
LINE
  8
0
 10
-13.4346
 20
115.015
 11
-13.1424
 21
115.101
  0
LINE
  8
0
 10
-13.1424
 20
115.101
 11
-12.9158
 21
114.809
  0
LINE
  8
0
 10
-12.9158
 20
114.809
 11
-12.8479
 21
112.921
  0
LINE
  8
0
 10
-12.8479
 20
112.921
 11
-12.4352
 21
113.299
  0
LINE
  8
0
 10
-12.4352
 20
113.299
 11
-12.4092
 21
114.377
  0
LINE
  8
0
 10
-12.4092
 20
114.377
 11
-12.1758
 21
115.012
  0
LINE
  8
0
 10
-12.1758
 20
115.012
 11
-11.7294
 21
115.188
  0
LINE
  8
0
 10
-11.7294
 20
115.188
 11
-10.8337
 21
116.261
  0
LINE
  8
0
 10
-10.8337
 20
116.261
 11
-10.4752
 21
115.06
  0
LINE
  8
0
 10
-10.4752
 20
115.06
 11
-10.0052
 21
114.637
  0
LINE
  8
0
 10
-10.0052
 20
114.637
 11
-10.0708
 21
113.427
  0
LINE
  8
0
 10
-10.0708
 20
113.427
 11
-8.33206
 21
114.436
  0
LINE
  8
0
 10
-8.33206
 20
114.436
 11
-8.15125
 21
114.122
  0
LINE
  8
0
 10
-8.15125
 20
114.122
 11
-7.46078
 21
114.565
  0
LINE
  8
0
 10
-7.46078
 20
114.565
 11
-6.26984
 21
114.974
  0
LINE
  8
0
 10
-6.26984
 20
114.974
 11
-7.52792
 21
115.485
  0
LINE
  8
0
 10
-7.52792
 20
115.485
 11
-7.66983
 21
115.694
  0
LINE
  8
0
 10
-7.66983
 20
115.694
 11
-7.50809
 21
116.055
  0
LINE
  8
0
 10
-7.50809
 20
116.055
 11
-8.12607
 21
116.363
  0
LINE
  8
0
 10
-8.12607
 20
116.363
 11
-8.86154
 21
117.4
  0
LINE
  8
0
 10
-8.86154
 20
117.4
 11
-7.8186
 21
117.67
  0
LINE
  8
0
 10
-7.8186
 20
117.67
 11
-7.2197
 21
117.522
  0
LINE
  8
0
 10
-7.2197
 20
117.522
 11
-7.14951
 21
117.818
  0
LINE
  8
0
 10
-7.14951
 20
117.818
 11
-6.78177
 21
117.871
  0
LINE
  8
0
 10
-6.78177
 20
117.871
 11
-5.11398
 21
116.984
  0
LINE
  8
0
 10
-5.11398
 20
116.984
 11
-5.21469
 21
117.442
  0
LINE
  8
0
 10
-5.21469
 20
117.442
 11
-5.34668
 21
117.509
  0
LINE
  8
0
 10
-5.34668
 20
117.509
 11
-5.26581
 21
117.551
  0
LINE
  8
0
 10
-5.26581
 20
117.551
 11
-6.15387
 21
118.092
  0
LINE
  8
0
 10
-6.15387
 20
118.092
 11
-6.58646
 21
118.611
  0
LINE
  8
0
 10
-6.58646
 20
118.611
 11
-6.51703
 21
119.091
  0
LINE
  8
0
 10
-6.51703
 20
119.091
 11
-7.00073
 21
120.399
  0
LINE
  8
0
 10
-7.00073
 20
120.399
 11
-5.78232
 21
120.107
  0
LINE
  8
0
 10
-5.78232
 20
120.107
 11
-5.17731
 21
120.303
  0
LINE
  8
0
 10
-5.17731
 20
120.303
 11
-4.16412
 21
119.643
  0
LINE
  8
0
 10
-4.16412
 20
119.643
 11
-4.1687
 21
121.651
  0
LINE
  8
0
 10
-4.1687
 20
121.651
 11
-1.19324
 21
121.651
  0
LINE
  8
0
 10
-1.19324
 20
121.651
 11
-1.15662
 21
120.83
  0
LINE
  8
0
 10
-1.15662
 20
120.83
 11
-1.39465
 21
119.595
  0
LINE
  8
0
 10
-1.39465
 20
119.595
 11
-0.323486
 21
120.428
  0
LINE
  8
0
 10
-0.323486
 20
120.428
 11
-0.0717163
 21
120.447
  0
LINE
  8
0
 10
-0.0717163
 20
120.447
 11
0.158691
 21
120.125
  0
LINE
  8
0
 10
0.158691
 20
120.125
 11
0.737
 21
120.506
  0
LINE
  8
0
 10
0.737
 20
120.506
 11
2.00119
 21
120.625
  0
LINE
  8
0
 10
2.00119
 20
120.625
 11
1.71585
 21
119.591
  0
LINE
  8
0
 10
1.71585
 20
119.591
 11
1.28479
 21
119.141
  0
LINE
  8
0
 10
1.28479
 20
119.141
 11
1.50528
 21
118.935
  0
LINE
  8
0
 10
1.50528
 20
118.935
 11
1.36795
 21
118.588
  0
LINE
  8
0
 10
1.36795
 20
118.588
 11
-0.233459
 21
117.588
  0
LINE
  8
0
 10
-0.233459
 20
117.588
 11
0.614166
 21
117.319
  0
LINE
  8
0
 10
0.614166
 20
117.319
 11
1.27869
 21
116.699
  0
LINE
  8
0
 10
1.27869
 20
116.699
 11
0.87204
 21
116.319
  0
LINE
  8
0
 10
0.87204
 20
116.319
 11
0.105286
 21
116.164
  0
LINE
  8
0
 10
0.105286
 20
116.164
 11
0.153351
 21
115.8
  0
LINE
  8
0
 10
0.153351
 20
115.8
 11
-0.908661
 21
115.717
  0
LINE
  8
0
 10
-0.908661
 20
115.717
 11
-2.84576
 21
116.521
  0
LINE
  8
0
 10
-2.84576
 20
116.521
 11
-3.27911
 21
116.328
  0
LINE
  8
0
 10
-3.27911
 20
116.328
 11
-3.00369
 21
116.167
  0
LINE
  8
0
 10
-3.00369
 20
116.167
 11
-2.88315
 21
115.253
  0
LINE
  8
0
 10
-2.88315
 20
115.253
 11
-1.49384
 21
114.249
  0
LINE
  8
0
 10
-1.49384
 20
114.249
 11
-0.972748
 21
113.519
  0
LINE
  8
0
 10
-0.972748
 20
113.519
 11
-0.928497
 21
113.238
  0
LINE
  8
0
 10
-0.928497
 20
113.238
 11
-1.15051
 21
113.096
  0
LINE
  8
0
 10
-1.15051
 20
113.096
 11
-0.958252
 21
112.67
  0
LINE
  8
0
 10
-0.958252
 20
112.67
 11
-1.02386
 21
111.884
  0
LINE
  8
0
 10
-1.02386
 20
111.884
 11
-1.44272
 21
111.929
  0
LINE
  8
0
 10
-1.44272
 20
111.929
 11
-2.56653
 21
112.643
  0
LINE
  8
0
 10
-2.56653
 20
112.643
 11
-2.59247
 21
111.603
  0
LINE
  8
0
 10
-2.59247
 20
111.603
 11
-2.82364
 21
110.968
  0
LINE
  8
0
 10
-2.82364
 20
110.968
 11
-3.26996
 21
110.792
  0
LINE
  8
0
 10
-3.26996
 20
110.792
 11
-4.16489
 21
109.719
  0
LINE
  8
0
 10
-4.16489
 20
109.719
 11
-4.52347
 21
110.921
  0
LINE
  8
0
 10
-4.52347
 20
110.921
 11
-4.9942
 21
111.343
  0
LINE
  8
0
 10
-4.9942
 20
111.343
 11
-4.92783
 21
112.552
  0
LINE
  8
0
 10
-4.92783
 20
112.552
 11
-6.66656
 21
111.543
  0
LINE
  8
0
 10
-6.66656
 20
111.543
 11
-6.84738
 21
111.857
  0
LINE
  8
0
 10
-6.84738
 20
111.857
 11
-7.54089
 21
111.415
  0
LINE
  8
0
 10
-7.54089
 20
111.415
 11
-8.72726
 21
111.005
  0
LINE
  8
0
 10
-8.72726
 20
111.005
 11
-7.47147
 21
110.494
  0
LINE
  8
0
 10
-7.47147
 20
110.494
 11
-7.32956
 21
110.286
  0
LINE
  8
0
 10
-7.32956
 20
110.286
 11
-7.4913
 21
109.924
  0
LINE
  8
0
 10
-7.4913
 20
109.924
 11
-6.87256
 21
109.617
  0
LINE
  8
0
 10
-6.87256
 20
109.617
 11
-6.13785
 21
108.581
  0
LINE
  8
0
 10
-6.13785
 20
108.581
 11
-7.18079
 21
108.31
  0
LINE
  8
0
 10
-7.18079
 20
108.31
 11
-7.77969
 21
108.458
  0
LINE
  8
0
 10
-7.77969
 20
108.458
 11
-7.84988
 21
108.163
  0
LINE
  8
0
 10
-7.84988
 20
108.163
 11
-8.21762
 21
108.109
  0
LINE
  8
0
 10
-8.21762
 20
108.109
 11
-9.88541
 21
108.996
  0
LINE
  8
0
 10
-9.88541
 20
108.996
 11
-9.69467
 21
108.129
  0
LINE
  8
0
 10
-9.69467
 20
108.129
 11
-9.89914
 21
107.243
  0
LINE
  8
0
 10
-9.89914
 20
107.243
 11
-10.4324
 21
107.403
  0
LINE
  8
0
 10
-10.4324
 20
107.403
 11
-10.9489
 21
107.99
  0
LINE
  8
0
 10
-10.9489
 20
107.99
 11
-11.2396
 21
107.767
  0
LINE
  8
0
 10
-11.2396
 20
107.767
 11
-11.8416
 21
108.643
  0
LINE
  8
0
 10
-11.8416
 20
108.643
 11
-12.1155
 21
110.727
  0
LINE
  8
0
 10
-12.1155
 20
110.727
 11
-12.5
 21
111.005
  0
LINE
  8
0
 10
-12.5
 20
111.005
 11
-12.5
 21
110.685
  0
LINE
  8
0
 10
-12.5
 20
110.685
 11
-13.2339
 21
110.123
  0
LINE
  8
0
 10
-13.2339
 20
110.123
 11
-13.4071
 21
108.416
  0
LINE
  8
0
 10
-13.4071
 20
108.416
 11
-13.7756
 21
107.606
  0
LINE
  8
0
 10
-13.7756
 20
107.606
 11
-14.0007
 21
107.423
  0
LINE
  8
0
 10
-14.0007
 20
107.423
 11
-14.2334
 21
107.544
  0
LINE
  8
0
 10
-14.2334
 20
107.544
 11
-14.5058
 21
107.163
  0
LINE
  8
0
 10
-14.5058
 20
107.163
 11
-15.2184
 21
106.827
  0
LINE
  8
0
 10
-15.2184
 20
106.827
 11
-15.3915
 21
107.216
  0
LINE
  8
0
 10
23.8457
 20
118.092
 11
23.4131
 21
118.611
  0
LINE
  8
0
 10
23.4131
 20
118.611
 11
23.4825
 21
119.091
  0
LINE
  8
0
 10
23.4825
 20
119.091
 11
22.9988
 21
120.399
  0
LINE
  8
0
 10
22.9988
 20
120.399
 11
23.2846
 21
120.331
  0
LINE
  8
0
 10
23.2846
 20
120.331
 11
24.0529
 21
117.966
  0
LINE
  8
0
 10
24.0529
 20
117.966
 11
23.8457
 21
118.092
  0
LINE
  8
0
 10
24.4293
 20
115.837
 11
24.4171
 21
116.099
  0
LINE
  8
0
 10
24.4171
 20
116.099
 11
23.9494
 21
116.145
  0
LINE
  8
0
 10
23.9494
 20
116.145
 11
23.3032
 21
116.595
  0
LINE
  8
0
 10
23.3032
 20
116.595
 11
23.5535
 21
116.938
  0
LINE
  8
0
 10
23.5535
 20
116.938
 11
24.2664
 21
117.309
  0
LINE
  8
0
 10
24.2664
 20
117.309
 11
24.7756
 21
115.742
  0
LINE
  8
0
 10
24.7756
 20
115.742
 11
24.7002
 21
115.735
  0
LINE
  8
0
 10
24.7002
 20
115.735
 11
24.4293
 21
115.837
  0
LINE
  8
0
 10
13.607
 20
101.711
 11
13.4346
 21
102.306
  0
LINE
  8
0
 10
13.4346
 20
102.306
 11
13.1432
 21
102.219
  0
LINE
  8
0
 10
13.1432
 20
102.219
 11
12.9158
 21
102.511
  0
LINE
  8
0
 10
12.9158
 20
102.511
 11
12.8479
 21
104.399
  0
LINE
  8
0
 10
12.8479
 20
104.399
 11
12.4992
 21
104.08
  0
LINE
  8
0
 10
12.4992
 20
104.08
 11
12.4992
 21
103.945
  0
LINE
  8
0
 10
12.4992
 20
103.945
 11
12.4329
 21
103.984
  0
LINE
  8
0
 10
12.4329
 20
103.984
 11
12.4069
 21
102.943
  0
LINE
  8
0
 10
12.4069
 20
102.943
 11
12.1758
 21
102.308
  0
LINE
  8
0
 10
12.1758
 20
102.308
 11
11.7294
 21
102.132
  0
LINE
  8
0
 10
11.7294
 20
102.132
 11
10.8337
 21
101.059
  0
LINE
  8
0
 10
10.8337
 20
101.059
 11
10.4767
 21
102.262
  0
LINE
  8
0
 10
10.4767
 20
102.262
 11
10.0052
 21
102.684
  0
LINE
  8
0
 10
10.0052
 20
102.684
 11
10.0708
 21
103.892
  0
LINE
  8
0
 10
10.0708
 20
103.892
 11
7.98492
 21
102.681
  0
LINE
  8
0
 10
7.98492
 20
102.681
 11
7.81555
 21
103.057
  0
LINE
  8
0
 10
7.81555
 20
103.057
 11
7.21741
 21
102.784
  0
LINE
  8
0
 10
7.21741
 20
102.784
 11
6.95801
 21
103.003
  0
LINE
  8
0
 10
6.95801
 20
103.003
 11
5.92041
 21
102.898
  0
LINE
  8
0
 10
5.92041
 20
102.898
 11
5.99594
 21
103.458
  0
LINE
  8
0
 10
5.99594
 20
103.458
 11
6.29501
 21
103.844
  0
LINE
  8
0
 10
6.29501
 20
103.844
 11
6.21567
 21
104.245
  0
LINE
  8
0
 10
6.21567
 20
104.245
 11
6.9809
 21
104.79
  0
LINE
  8
0
 10
6.9809
 20
104.79
 11
6.52008
 21
105.254
  0
LINE
  8
0
 10
6.52008
 20
105.254
 11
7.54089
 21
105.904
  0
LINE
  8
0
 10
7.54089
 20
105.904
 11
8.72955
 21
106.314
  0
LINE
  8
0
 10
8.72955
 20
106.314
 11
7.47147
 21
106.825
  0
LINE
  8
0
 10
7.47147
 20
106.825
 11
7.33032
 21
107.034
  0
LINE
  8
0
 10
7.33032
 20
107.034
 11
7.4913
 21
107.395
  0
LINE
  8
0
 10
7.4913
 20
107.395
 11
6.87256
 21
107.703
  0
LINE
  8
0
 10
6.87256
 20
107.703
 11
6.13785
 21
108.739
  0
LINE
  8
0
 10
6.13785
 20
108.739
 11
7.17926
 21
109.01
  0
LINE
  8
0
 10
7.17926
 20
109.01
 11
7.77969
 21
108.862
  0
LINE
  8
0
 10
7.77969
 20
108.862
 11
7.84988
 21
109.157
  0
LINE
  8
0
 10
7.84988
 20
109.157
 11
8.21533
 21
109.211
  0
LINE
  8
0
 10
8.21533
 20
109.211
 11
9.88541
 21
108.324
  0
LINE
  8
0
 10
9.88541
 20
108.324
 11
9.78088
 21
108.8
  0
LINE
  8
0
 10
9.78088
 20
108.8
 11
9.70459
 21
108.877
  0
LINE
  8
0
 10
9.70459
 20
108.877
 11
9.73206
 21
108.891
  0
LINE
  8
0
 10
9.73206
 20
108.891
 11
8.84552
 21
109.432
  0
LINE
  8
0
 10
8.84552
 20
109.432
 11
8.41293
 21
109.951
  0
LINE
  8
0
 10
8.41293
 20
109.951
 11
8.48236
 21
110.431
  0
LINE
  8
0
 10
8.48236
 20
110.431
 11
7.99866
 21
111.74
  0
LINE
  8
0
 10
7.99866
 20
111.74
 11
9.21783
 21
111.446
  0
LINE
  8
0
 10
9.21783
 20
111.446
 11
9.82285
 21
111.642
  0
LINE
  8
0
 10
9.82285
 20
111.642
 11
10.8353
 21
110.983
  0
LINE
  8
0
 10
10.8353
 20
110.983
 11
10.8292
 21
113.395
  0
LINE
  8
0
 10
10.8292
 20
113.395
 11
11.2396
 21
113.351
  0
LINE
  8
0
 10
11.2396
 20
113.351
 11
11.3052
 21
114.008
  0
LINE
  8
0
 10
11.3052
 20
114.008
 11
11.6226
 21
114.12
  0
LINE
  8
0
 10
11.6226
 20
114.12
 11
12.0522
 21
115.074
  0
LINE
  8
0
 10
12.0522
 20
115.074
 11
12.4969
 21
114.728
  0
LINE
  8
0
 10
12.4969
 20
114.728
 11
12.6816
 21
114.276
  0
LINE
  8
0
 10
12.6816
 20
114.276
 11
13.0699
 21
114.145
  0
LINE
  8
0
 10
13.0699
 20
114.145
 11
13.1577
 21
113.21
  0
LINE
  8
0
 10
13.1577
 20
113.21
 11
13.7894
 21
113.376
  0
LINE
  8
0
 10
13.7894
 20
113.376
 11
13.8428
 21
112.17
  0
LINE
  8
0
 10
13.8428
 20
112.17
 11
13.6047
 21
110.934
  0
LINE
  8
0
 10
13.6047
 20
110.934
 11
14.6759
 21
111.768
  0
LINE
  8
0
 10
14.6759
 20
111.768
 11
14.9284
 21
111.786
  0
LINE
  8
0
 10
14.9284
 20
111.786
 11
15.1588
 21
111.464
  0
LINE
  8
0
 10
15.1588
 20
111.464
 11
15.7372
 21
111.845
  0
LINE
  8
0
 10
15.7372
 20
111.845
 11
17.0013
 21
111.965
  0
LINE
  8
0
 10
17.0013
 20
111.965
 11
16.716
 21
110.931
  0
LINE
  8
0
 10
16.716
 20
110.931
 11
16.2849
 21
110.481
  0
LINE
  8
0
 10
16.2849
 20
110.481
 11
16.5054
 21
110.275
  0
LINE
  8
0
 10
16.5054
 20
110.275
 11
16.3681
 21
109.928
  0
LINE
  8
0
 10
16.3681
 20
109.928
 11
14.7652
 21
108.927
  0
LINE
  8
0
 10
14.7652
 20
108.927
 11
15.2115
 21
108.787
  0
LINE
  8
0
 10
15.2115
 20
108.787
 11
15.3381
 21
108.871
  0
LINE
  8
0
 10
15.3381
 20
108.871
 11
15.3343
 21
108.777
  0
LINE
  8
0
 10
15.3343
 20
108.777
 11
16.2468
 21
109.273
  0
LINE
  8
0
 10
16.2468
 20
109.273
 11
16.9144
 21
109.39
  0
LINE
  8
0
 10
16.9144
 20
109.39
 11
17.2897
 21
109.089
  0
LINE
  8
0
 10
17.2897
 20
109.089
 11
18.6668
 21
108.854
  0
LINE
  8
0
 10
18.6668
 20
108.854
 11
17.8001
 21
107.941
  0
LINE
  8
0
 10
17.8001
 20
107.941
 11
17.6735
 21
107.323
  0
LINE
  8
0
 10
17.6735
 20
107.323
 11
16.5947
 21
106.776
  0
LINE
  8
0
 10
16.5947
 20
106.776
 11
18.6844
 21
105.574
  0
LINE
  8
0
 10
18.6844
 20
105.574
 11
18.4441
 21
105.24
  0
LINE
  8
0
 10
18.4441
 20
105.24
 11
18.9781
 21
104.856
  0
LINE
  8
0
 10
18.9781
 20
104.856
 11
18.9186
 21
104.526
  0
LINE
  8
0
 10
18.9186
 20
104.526
 11
19.529
 21
103.677
  0
LINE
  8
0
 10
19.529
 20
103.677
 11
19.0063
 21
103.463
  0
LINE
  8
0
 10
19.0063
 20
103.463
 11
18.5226
 21
103.529
  0
LINE
  8
0
 10
18.5226
 20
103.529
 11
18.2152
 21
103.26
  0
LINE
  8
0
 10
18.2152
 20
103.26
 11
17.3607
 21
103.65
  0
LINE
  8
0
 10
17.3607
 20
103.65
 11
17.1898
 21
103.02
  0
LINE
  8
0
 10
17.1898
 20
103.02
 11
16.1201
 21
103.576
  0
LINE
  8
0
 10
16.1201
 20
103.576
 11
15.1665
 21
104.401
  0
LINE
  8
0
 10
15.1665
 20
104.401
 11
15.3519
 21
103.054
  0
LINE
  8
0
 10
15.3519
 20
103.054
 11
15.2428
 21
102.831
  0
LINE
  8
0
 10
15.2428
 20
102.831
 11
14.8491
 21
102.792
  0
LINE
  8
0
 10
14.8491
 20
102.792
 11
14.8895
 21
102.098
  0
LINE
  8
0
 10
14.8895
 20
102.098
 11
14.3616
 21
100.943
  0
LINE
  8
0
 10
14.3616
 20
100.943
 11
13.607
 21
101.711
  0
LINE
  8
0
 10
12.5
 20
106.635
 11
13.2347
 21
107.196
  0
LINE
  8
0
 10
13.2347
 20
107.196
 11
13.282
 21
107.667
  0
LINE
  8
0
 10
13.282
 20
107.667
 11
13.0028
 21
107.508
  0
LINE
  8
0
 10
13.0028
 20
107.508
 11
12.1536
 21
107.861
  0
LINE
  8
0
 10
12.1536
 20
107.861
 11
11.7195
 21
107.667
  0
LINE
  8
0
 10
11.7195
 20
107.667
 11
11.9949
 21
107.507
  0
LINE
  8
0
 10
11.9949
 20
107.507
 11
12.1155
 21
106.593
  0
LINE
  8
0
 10
12.1155
 20
106.593
 11
12.4992
 21
106.316
  0
LINE
  8
0
 10
12.4992
 20
106.316
 11
12.5
 21
106.635
  0
LINE
  8
0
 10
-12.4969
 20
85.2722
 11
-12.6816
 21
85.7239
  0
LINE
  8
0
 10
-12.6816
 20
85.7239
 11
-13.0699
 21
85.8551
  0
LINE
  8
0
 10
-13.0699
 20
85.8551
 11
-13.1577
 21
86.7905
  0
LINE
  8
0
 10
-13.1577
 20
86.7905
 11
-13.7894
 21
86.6241
  0
LINE
  8
0
 10
-13.7894
 20
86.6241
 11
-13.8428
 21
87.8304
  0
LINE
  8
0
 10
-13.8428
 20
87.8304
 11
-13.6047
 21
89.0656
  0
LINE
  8
0
 10
-13.6047
 20
89.0656
 11
-14.6759
 21
88.2317
  0
LINE
  8
0
 10
-14.6759
 20
88.2317
 11
-14.9284
 21
88.2141
  0
LINE
  8
0
 10
-14.9284
 20
88.2141
 11
-15.1588
 21
88.5361
  0
LINE
  8
0
 10
-15.1588
 20
88.5361
 11
-15.7372
 21
88.1546
  0
LINE
  8
0
 10
-15.7372
 20
88.1546
 11
-17.0013
 21
88.0348
  0
LINE
  8
0
 10
-17.0013
 20
88.0348
 11
-16.716
 21
89.0694
  0
LINE
  8
0
 10
-16.716
 20
89.0694
 11
-16.2849
 21
89.5187
  0
LINE
  8
0
 10
-16.2849
 20
89.5187
 11
-16.5054
 21
89.7255
  0
LINE
  8
0
 10
-16.5054
 20
89.7255
 11
-16.3681
 21
90.0719
  0
LINE
  8
0
 10
-16.3681
 20
90.0719
 11
-14.7652
 21
91.0728
  0
LINE
  8
0
 10
-14.7652
 20
91.0728
 11
-15.2115
 21
91.2132
  0
LINE
  8
0
 10
-15.2115
 20
91.2132
 11
-15.3381
 21
91.1293
  0
LINE
  8
0
 10
-15.3381
 20
91.1293
 11
-15.3343
 21
91.2231
  0
LINE
  8
0
 10
-15.3343
 20
91.2231
 11
-16.2468
 21
90.7272
  0
LINE
  8
0
 10
-16.2468
 20
90.7272
 11
-16.9144
 21
90.6097
  0
LINE
  8
0
 10
-16.9144
 20
90.6097
 11
-17.2897
 21
90.9111
  0
LINE
  8
0
 10
-17.2897
 20
90.9111
 11
-18.6668
 21
91.1461
  0
LINE
  8
0
 10
-18.6668
 20
91.1461
 11
-17.8001
 21
92.0586
  0
LINE
  8
0
 10
-17.8001
 20
92.0586
 11
-17.6735
 21
92.6765
  0
LINE
  8
0
 10
-17.6735
 20
92.6765
 11
-16.5947
 21
93.2243
  0
LINE
  8
0
 10
-16.5947
 20
93.2243
 11
-18.6844
 21
94.426
  0
LINE
  8
0
 10
-18.6844
 20
94.426
 11
-18.4441
 21
94.7601
  0
LINE
  8
0
 10
-18.4441
 20
94.7601
 11
-18.9781
 21
95.1439
  0
LINE
  8
0
 10
-18.9781
 20
95.1439
 11
-18.9186
 21
95.4742
  0
LINE
  8
0
 10
-18.9186
 20
95.4742
 11
-19.529
 21
96.3226
  0
LINE
  8
0
 10
-19.529
 20
96.3226
 11
-19.0063
 21
96.537
  0
LINE
  8
0
 10
-19.0063
 20
96.537
 11
-18.5226
 21
96.4706
  0
LINE
  8
0
 10
-18.5226
 20
96.4706
 11
-18.2152
 21
96.74
  0
LINE
  8
0
 10
-18.2152
 20
96.74
 11
-17.3607
 21
96.3501
  0
LINE
  8
0
 10
-17.3607
 20
96.3501
 11
-17.1898
 21
96.9803
  0
LINE
  8
0
 10
-17.1898
 20
96.9803
 11
-16.1201
 21
96.4241
  0
LINE
  8
0
 10
-16.1201
 20
96.4241
 11
-15.1665
 21
95.5994
  0
LINE
  8
0
 10
-15.1665
 20
95.5994
 11
-15.3519
 21
96.946
  0
LINE
  8
0
 10
-15.3519
 20
96.946
 11
-15.2428
 21
97.1695
  0
LINE
  8
0
 10
-15.2428
 20
97.1695
 11
-14.8491
 21
97.2084
  0
LINE
  8
0
 10
-14.8491
 20
97.2084
 11
-14.8895
 21
97.9019
  0
LINE
  8
0
 10
-14.8895
 20
97.9019
 11
-14.3616
 21
99.057
  0
LINE
  8
0
 10
-14.3616
 20
99.057
 11
-13.607
 21
98.2895
  0
LINE
  8
0
 10
-13.607
 20
98.2895
 11
-13.4346
 21
97.6944
  0
LINE
  8
0
 10
-13.4346
 20
97.6944
 11
-13.1432
 21
97.7806
  0
LINE
  8
0
 10
-13.1432
 20
97.7806
 11
-12.9158
 21
97.4892
  0
LINE
  8
0
 10
-12.9158
 20
97.4892
 11
-12.8479
 21
95.6009
  0
LINE
  8
0
 10
-12.8479
 20
95.6009
 11
-12.4992
 21
95.9198
  0
LINE
  8
0
 10
-12.4992
 20
95.9198
 11
-12.4992
 21
96.0548
  0
LINE
  8
0
 10
-12.4992
 20
96.0548
 11
-12.4329
 21
96.0159
  0
LINE
  8
0
 10
-12.4329
 20
96.0159
 11
-12.4069
 21
97.0573
  0
LINE
  8
0
 10
-12.4069
 20
97.0573
 11
-12.1758
 21
97.6921
  0
LINE
  8
0
 10
-12.1758
 20
97.6921
 11
-11.7294
 21
97.8683
  0
LINE
  8
0
 10
-11.7294
 20
97.8683
 11
-10.8337
 21
98.941
  0
LINE
  8
0
 10
-10.8337
 20
98.941
 11
-10.4767
 21
97.7379
  0
LINE
  8
0
 10
-10.4767
 20
97.7379
 11
-10.0052
 21
97.316
  0
LINE
  8
0
 10
-10.0052
 20
97.316
 11
-10.0708
 21
96.1082
  0
LINE
  8
0
 10
-10.0708
 20
96.1082
 11
-7.98492
 21
97.319
  0
LINE
  8
0
 10
-7.98492
 20
97.319
 11
-7.81555
 21
96.9429
  0
LINE
  8
0
 10
-7.81555
 20
96.9429
 11
-7.21741
 21
97.216
  0
LINE
  8
0
 10
-7.21741
 20
97.216
 11
-6.95801
 21
96.9971
  0
LINE
  8
0
 10
-6.95801
 20
96.9971
 11
-5.92041
 21
97.1016
  0
LINE
  8
0
 10
-5.92041
 20
97.1016
 11
-5.99594
 21
96.5424
  0
LINE
  8
0
 10
-5.99594
 20
96.5424
 11
-6.29501
 21
96.1555
  0
LINE
  8
0
 10
-6.29501
 20
96.1555
 11
-6.21567
 21
95.755
  0
LINE
  8
0
 10
-6.21567
 20
95.755
 11
-6.9809
 21
95.2103
  0
LINE
  8
0
 10
-6.9809
 20
95.2103
 11
-6.52008
 21
94.7464
  0
LINE
  8
0
 10
-6.52008
 20
94.7464
 11
-7.54089
 21
94.0956
  0
LINE
  8
0
 10
-7.54089
 20
94.0956
 11
-8.72955
 21
93.6859
  0
LINE
  8
0
 10
-8.72955
 20
93.6859
 11
-7.47147
 21
93.1747
  0
LINE
  8
0
 10
-7.47147
 20
93.1747
 11
-7.33032
 21
92.9665
  0
LINE
  8
0
 10
-7.33032
 20
92.9665
 11
-7.4913
 21
92.6048
  0
LINE
  8
0
 10
-7.4913
 20
92.6048
 11
-6.87256
 21
92.2966
  0
LINE
  8
0
 10
-6.87256
 20
92.2966
 11
-6.13785
 21
91.2605
  0
LINE
  8
0
 10
-6.13785
 20
91.2605
 11
-7.17926
 21
90.9897
  0
LINE
  8
0
 10
-7.17926
 20
90.9897
 11
-7.77969
 21
91.1385
  0
LINE
  8
0
 10
-7.77969
 20
91.1385
 11
-7.84988
 21
90.8432
  0
LINE
  8
0
 10
-7.84988
 20
90.8432
 11
-8.21533
 21
90.789
  0
LINE
  8
0
 10
-8.21533
 20
90.789
 11
-9.88541
 21
91.6763
  0
LINE
  8
0
 10
-9.88541
 20
91.6763
 11
-9.78088
 21
91.2003
  0
LINE
  8
0
 10
-9.78088
 20
91.2003
 11
-9.70459
 21
91.1232
  0
LINE
  8
0
 10
-9.70459
 20
91.1232
 11
-9.73206
 21
91.1087
  0
LINE
  8
0
 10
-9.73206
 20
91.1087
 11
-8.84552
 21
90.5678
  0
LINE
  8
0
 10
-8.84552
 20
90.5678
 11
-8.41293
 21
90.049
  0
LINE
  8
0
 10
-8.41293
 20
90.049
 11
-8.48236
 21
89.5691
  0
LINE
  8
0
 10
-8.48236
 20
89.5691
 11
-7.99866
 21
88.2599
  0
LINE
  8
0
 10
-7.99866
 20
88.2599
 11
-9.21783
 21
88.5536
  0
LINE
  8
0
 10
-9.21783
 20
88.5536
 11
-9.82285
 21
88.3575
  0
LINE
  8
0
 10
-9.82285
 20
88.3575
 11
-10.8353
 21
89.0167
  0
LINE
  8
0
 10
-10.8353
 20
89.0167
 11
-10.8292
 21
86.6051
  0
LINE
  8
0
 10
-10.8292
 20
86.6051
 11
-11.2396
 21
86.6486
  0
LINE
  8
0
 10
-11.2396
 20
86.6486
 11
-11.3052
 21
85.9924
  0
LINE
  8
0
 10
-11.3052
 20
85.9924
 11
-11.6226
 21
85.8795
  0
LINE
  8
0
 10
-11.6226
 20
85.8795
 11
-12.0522
 21
84.9258
  0
LINE
  8
0
 10
-12.0522
 20
84.9258
 11
-12.4969
 21
85.2722
  0
LINE
  8
0
 10
-11.7195
 20
92.3332
 11
-11.9949
 21
92.4927
  0
LINE
  8
0
 10
-11.9949
 20
92.4927
 11
-12.1155
 21
93.4074
  0
LINE
  8
0
 10
-12.1155
 20
93.4074
 11
-12.4992
 21
93.6844
  0
LINE
  8
0
 10
-12.4992
 20
93.6844
 11
-12.5
 21
93.3655
  0
LINE
  8
0
 10
-12.5
 20
93.3655
 11
-13.2347
 21
92.804
  0
LINE
  8
0
 10
-13.2347
 20
92.804
 11
-13.282
 21
92.3332
  0
LINE
  8
0
 10
-13.282
 20
92.3332
 11
-13.0028
 21
92.4919
  0
LINE
  8
0
 10
-13.0028
 20
92.4919
 11
-12.1536
 21
92.1387
  0
LINE
  8
0
 10
-12.1536
 20
92.1387
 11
-11.7195
 21
92.3332
  0
LINE
  8
0
 10
31.3156
 20
94.426
 11
31.5559
 21
94.7601
  0
LINE
  8
0
 10
31.5559
 20
94.7601
 11
31.0219
 21
95.1439
  0
LINE
  8
0
 10
31.0219
 20
95.1439
 11
31.0814
 21
95.4742
  0
LINE
  8
0
 10
31.0814
 20
95.4742
 11
30.471
 21
96.3226
  0
LINE
  8
0
 10
30.471
 20
96.3226
 11
30.9937
 21
96.537
  0
LINE
  8
0
 10
30.9937
 20
96.537
 11
31.0167
 21
96.5339
  0
LINE
  8
0
 10
31.0167
 20
96.5339
 11
31.7903
 21
94.153
  0
LINE
  8
0
 10
31.7903
 20
94.153
 11
31.3156
 21
94.426
  0
LINE
  8
0
 10
1.19324
 20
78.3493
 11
1.15662
 21
79.1702
  0
LINE
  8
0
 10
1.15662
 20
79.1702
 11
1.39465
 21
80.4054
  0
LINE
  8
0
 10
1.39465
 20
80.4054
 11
0.323486
 21
79.5715
  0
LINE
  8
0
 10
0.323486
 20
79.5715
 11
0.0717163
 21
79.5532
  0
LINE
  8
0
 10
0.0717163
 20
79.5532
 11
-0.158691
 21
79.8752
  0
LINE
  8
0
 10
-0.158691
 20
79.8752
 11
-0.737
 21
79.4937
  0
LINE
  8
0
 10
-0.737
 20
79.4937
 11
-2.00119
 21
79.3747
  0
LINE
  8
0
 10
-2.00119
 20
79.3747
 11
-1.71585
 21
80.4092
  0
LINE
  8
0
 10
-1.71585
 20
80.4092
 11
-1.28479
 21
80.8586
  0
LINE
  8
0
 10
-1.28479
 20
80.8586
 11
-1.50528
 21
81.0654
  0
LINE
  8
0
 10
-1.50528
 20
81.0654
 11
-1.36795
 21
81.4117
  0
LINE
  8
0
 10
-1.36795
 20
81.4117
 11
0.233459
 21
82.412
  0
LINE
  8
0
 10
0.233459
 20
82.412
 11
-0.614166
 21
82.6805
  0
LINE
  8
0
 10
-0.614166
 20
82.6805
 11
-1.27869
 21
83.3008
  0
LINE
  8
0
 10
-1.27869
 20
83.3008
 11
-0.87204
 21
83.6815
  0
LINE
  8
0
 10
-0.87204
 20
83.6815
 11
-0.105286
 21
83.8364
  0
LINE
  8
0
 10
-0.105286
 20
83.8364
 11
-0.153351
 21
84.1995
  0
LINE
  8
0
 10
-0.153351
 20
84.1995
 11
0.908661
 21
84.2827
  0
LINE
  8
0
 10
0.908661
 20
84.2827
 11
2.84576
 21
83.4785
  0
LINE
  8
0
 10
2.84576
 20
83.4785
 11
3.27911
 21
83.6723
  0
LINE
  8
0
 10
3.27911
 20
83.6723
 11
3.00369
 21
83.8326
  0
LINE
  8
0
 10
3.00369
 20
83.8326
 11
2.88315
 21
84.7473
  0
LINE
  8
0
 10
2.88315
 20
84.7473
 11
1.49384
 21
85.7506
  0
LINE
  8
0
 10
1.49384
 20
85.7506
 11
0.972748
 21
86.4815
  0
LINE
  8
0
 10
0.972748
 20
86.4815
 11
0.928497
 21
86.7622
  0
LINE
  8
0
 10
0.928497
 20
86.7622
 11
1.15051
 21
86.9041
  0
LINE
  8
0
 10
1.15051
 20
86.9041
 11
0.958252
 21
87.3299
  0
LINE
  8
0
 10
0.958252
 20
87.3299
 11
1.02386
 21
88.1157
  0
LINE
  8
0
 10
1.02386
 20
88.1157
 11
1.44272
 21
88.0714
  0
LINE
  8
0
 10
1.44272
 20
88.0714
 11
2.56653
 21
87.3573
  0
LINE
  8
0
 10
2.56653
 20
87.3573
 11
2.59247
 21
88.3972
  0
LINE
  8
0
 10
2.59247
 20
88.3972
 11
2.82364
 21
89.032
  0
LINE
  8
0
 10
2.82364
 20
89.032
 11
3.26996
 21
89.2082
  0
LINE
  8
0
 10
3.26996
 20
89.2082
 11
4.16489
 21
90.2809
  0
LINE
  8
0
 10
4.16489
 20
90.2809
 11
4.52347
 21
89.0793
  0
LINE
  8
0
 10
4.52347
 20
89.0793
 11
4.9942
 21
88.6566
  0
LINE
  8
0
 10
4.9942
 20
88.6566
 11
4.92783
 21
87.4481
  0
LINE
  8
0
 10
4.92783
 20
87.4481
 11
6.66656
 21
88.4567
  0
LINE
  8
0
 10
6.66656
 20
88.4567
 11
6.84738
 21
88.1432
  0
LINE
  8
0
 10
6.84738
 20
88.1432
 11
7.54089
 21
88.5849
  0
LINE
  8
0
 10
7.54089
 20
88.5849
 11
8.72726
 21
88.9954
  0
LINE
  8
0
 10
8.72726
 20
88.9954
 11
7.47147
 21
89.5058
  0
LINE
  8
0
 10
7.47147
 20
89.5058
 11
7.32956
 21
89.7141
  0
LINE
  8
0
 10
7.32956
 20
89.7141
 11
7.4913
 21
90.0757
  0
LINE
  8
0
 10
7.4913
 20
90.0757
 11
6.87256
 21
90.3831
  0
LINE
  8
0
 10
6.87256
 20
90.3831
 11
6.13785
 21
91.4192
  0
LINE
  8
0
 10
6.13785
 20
91.4192
 11
7.18079
 21
91.6901
  0
LINE
  8
0
 10
7.18079
 20
91.6901
 11
7.77969
 21
91.5421
  0
LINE
  8
0
 10
7.77969
 20
91.5421
 11
7.84988
 21
91.8373
  0
LINE
  8
0
 10
7.84988
 20
91.8373
 11
8.21762
 21
91.8907
  0
LINE
  8
0
 10
8.21762
 20
91.8907
 11
9.88541
 21
91.0042
  0
LINE
  8
0
 10
9.88541
 20
91.0042
 11
9.69467
 21
91.8709
  0
LINE
  8
0
 10
9.69467
 20
91.8709
 11
9.89914
 21
92.7574
  0
LINE
  8
0
 10
9.89914
 20
92.7574
 11
10.4324
 21
92.5972
  0
LINE
  8
0
 10
10.4324
 20
92.5972
 11
10.9489
 21
92.0097
  0
LINE
  8
0
 10
10.9489
 20
92.0097
 11
11.2396
 21
92.2333
  0
LINE
  8
0
 10
11.2396
 20
92.2333
 11
11.8416
 21
91.3567
  0
LINE
  8
0
 10
11.8416
 20
91.3567
 11
12.1155
 21
89.2731
  0
LINE
  8
0
 10
12.1155
 20
89.2731
 11
12.5
 21
88.9954
  0
LINE
  8
0
 10
12.5
 20
88.9954
 11
12.5
 21
89.315
  0
LINE
  8
0
 10
12.5
 20
89.315
 11
13.2339
 21
89.8766
  0
LINE
  8
0
 10
13.2339
 20
89.8766
 11
13.4071
 21
91.584
  0
LINE
  8
0
 10
13.4071
 20
91.584
 11
13.7756
 21
92.3943
  0
LINE
  8
0
 10
13.7756
 20
92.3943
 11
14.0007
 21
92.5774
  0
LINE
  8
0
 10
14.0007
 20
92.5774
 11
14.2334
 21
92.4561
  0
LINE
  8
0
 10
14.2334
 20
92.4561
 11
14.5058
 21
92.836
  0
LINE
  8
0
 10
14.5058
 20
92.836
 11
15.2184
 21
93.1732
  0
LINE
  8
0
 10
15.2184
 20
93.1732
 11
15.3915
 21
92.7841
  0
LINE
  8
0
 10
15.3915
 20
92.7841
 11
15.3336
 21
91.4558
  0
LINE
  8
0
 10
15.3336
 20
91.4558
 11
16.2468
 21
91.9533
  0
LINE
  8
0
 10
16.2468
 20
91.9533
 11
16.9128
 21
92.0708
  0
LINE
  8
0
 10
16.9128
 20
92.0708
 11
17.2897
 21
91.7702
  0
LINE
  8
0
 10
17.2897
 20
91.7702
 11
18.6668
 21
91.5344
  0
LINE
  8
0
 10
18.6668
 20
91.5344
 11
17.8001
 21
90.6212
  0
LINE
  8
0
 10
17.8001
 20
90.6212
 11
17.672
 21
90.004
  0
LINE
  8
0
 10
17.672
 20
90.004
 11
16.5932
 21
89.4562
  0
LINE
  8
0
 10
16.5932
 20
89.4562
 11
18.3357
 21
88.4552
  0
LINE
  8
0
 10
18.3357
 20
88.4552
 11
18.1541
 21
88.1409
  0
LINE
  8
0
 10
18.1541
 20
88.1409
 11
18.8805
 21
87.764
  0
LINE
  8
0
 10
18.8805
 20
87.764
 11
19.8334
 21
86.9392
  0
LINE
  8
0
 10
19.8334
 20
86.9392
 11
19.648
 21
88.2858
  0
LINE
  8
0
 10
19.648
 20
88.2858
 11
19.7586
 21
88.5101
  0
LINE
  8
0
 10
19.7586
 20
88.5101
 11
20.1508
 21
88.549
  0
LINE
  8
0
 10
20.1508
 20
88.549
 11
20.1096
 21
89.241
  0
LINE
  8
0
 10
20.1096
 20
89.241
 11
20.6383
 21
90.3938
  0
LINE
  8
0
 10
20.6383
 20
90.3938
 11
21.3928
 21
89.6286
  0
LINE
  8
0
 10
21.3928
 20
89.6286
 11
21.5652
 21
89.0343
  0
LINE
  8
0
 10
21.5652
 20
89.0343
 11
21.8567
 21
89.1205
  0
LINE
  8
0
 10
21.8567
 20
89.1205
 11
22.0848
 21
88.8283
  0
LINE
  8
0
 10
22.0848
 20
88.8283
 11
22.1527
 21
86.9415
  0
LINE
  8
0
 10
22.1527
 20
86.9415
 11
22.8088
 21
87.542
  0
LINE
  8
0
 10
22.8088
 20
87.542
 11
23.6755
 21
87.8075
  0
LINE
  8
0
 10
23.6755
 20
87.8075
 11
23.8052
 21
87.2643
  0
LINE
  8
0
 10
23.8052
 20
87.2643
 11
23.555
 21
86.5219
  0
LINE
  8
0
 10
23.555
 20
86.5219
 11
23.8945
 21
86.3823
  0
LINE
  8
0
 10
23.8945
 20
86.3823
 11
23.4383
 21
85.4256
  0
LINE
  8
0
 10
23.4383
 20
85.4256
 11
21.7659
 21
84.1423
  0
LINE
  8
0
 10
21.7659
 20
84.1423
 11
21.7186
 21
83.6708
  0
LINE
  8
0
 10
21.7186
 20
83.6708
 11
21.9963
 21
83.8318
  0
LINE
  8
0
 10
21.9963
 20
83.8318
 11
22.847
 21
83.4785
  0
LINE
  8
0
 10
22.847
 20
83.4785
 11
24.4217
 21
84.1812
  0
LINE
  8
0
 10
24.4217
 20
84.1812
 11
25.2998
 21
84.2651
  0
LINE
  8
0
 10
25.2998
 20
84.2651
 11
25.5707
 21
84.1629
  0
LINE
  8
0
 10
25.5707
 20
84.1629
 11
25.5829
 21
83.9012
  0
LINE
  8
0
 10
25.5829
 20
83.9012
 11
26.0506
 21
83.8554
  0
LINE
  8
0
 10
26.0506
 20
83.8554
 11
26.6968
 21
83.4053
  0
LINE
  8
0
 10
26.6968
 20
83.4053
 11
26.4465
 21
83.062
  0
LINE
  8
0
 10
26.4465
 20
83.062
 11
25.267
 21
82.4478
  0
LINE
  8
0
 10
25.267
 20
82.4478
 11
26.1543
 21
81.9077
  0
LINE
  8
0
 10
26.1543
 20
81.9077
 11
26.5869
 21
81.3889
  0
LINE
  8
0
 10
26.5869
 20
81.3889
 11
26.5175
 21
80.909
  0
LINE
  8
0
 10
26.5175
 20
80.909
 11
27.0012
 21
79.6005
  0
LINE
  8
0
 10
27.0012
 20
79.6005
 11
25.7828
 21
79.8927
  0
LINE
  8
0
 10
25.7828
 20
79.8927
 11
25.1778
 21
79.6974
  0
LINE
  8
0
 10
25.1778
 20
79.6974
 11
24.1653
 21
80.3566
  0
LINE
  8
0
 10
24.1653
 20
80.3566
 11
24.1699
 21
78.3493
  0
LINE
  8
0
 10
24.1699
 20
78.3493
 11
21.1937
 21
78.3493
  0
LINE
  8
0
 10
21.1937
 20
78.3493
 11
21.1571
 21
79.1702
  0
LINE
  8
0
 10
21.1571
 20
79.1702
 11
21.3959
 21
80.4062
  0
LINE
  8
0
 10
21.3959
 20
80.4062
 11
20.3239
 21
79.5715
  0
LINE
  8
0
 10
20.3239
 20
79.5715
 11
20.0722
 21
79.5532
  0
LINE
  8
0
 10
20.0722
 20
79.5532
 11
19.841
 21
79.8759
  0
LINE
  8
0
 10
19.841
 20
79.8759
 11
19.2635
 21
79.4937
  0
LINE
  8
0
 10
19.2635
 20
79.4937
 11
17.9977
 21
79.3747
  0
LINE
  8
0
 10
17.9977
 20
79.3747
 11
18.2838
 21
80.4092
  0
LINE
  8
0
 10
18.2838
 20
80.4092
 11
18.7149
 21
80.8586
  0
LINE
  8
0
 10
18.7149
 20
80.8586
 11
18.4944
 21
81.0654
  0
LINE
  8
0
 10
18.4944
 20
81.0654
 11
18.6317
 21
81.4117
  0
LINE
  8
0
 10
18.6317
 20
81.4117
 11
20.2339
 21
82.4112
  0
LINE
  8
0
 10
20.2339
 20
82.4112
 11
19.6968
 21
82.5813
  0
LINE
  8
0
 10
19.6968
 20
82.5813
 11
18.7538
 21
82.0671
  0
LINE
  8
0
 10
18.7538
 20
82.0671
 11
18.0878
 21
81.9496
  0
LINE
  8
0
 10
18.0878
 20
81.9496
 11
17.7109
 21
82.2502
  0
LINE
  8
0
 10
17.7109
 20
82.2502
 11
16.333
 21
82.4867
  0
LINE
  8
0
 10
16.333
 20
82.4867
 11
17.1997
 21
83.3992
  0
LINE
  8
0
 10
17.1997
 20
83.3992
 11
17.3286
 21
84.0164
  0
LINE
  8
0
 10
17.3286
 20
84.0164
 11
18.4074
 21
84.565
  0
LINE
  8
0
 10
18.4074
 20
84.565
 11
16.6649
 21
85.5659
  0
LINE
  8
0
 10
16.6649
 20
85.5659
 11
16.8449
 21
85.8788
  0
LINE
  8
0
 10
16.8449
 20
85.8788
 11
16.1179
 21
86.2587
  0
LINE
  8
0
 10
16.1179
 20
86.2587
 11
15.168
 21
87.0819
  0
LINE
  8
0
 10
15.168
 20
87.0819
 11
15.3526
 21
85.7361
  0
LINE
  8
0
 10
15.3526
 20
85.7361
 11
15.2435
 21
85.5103
  0
LINE
  8
0
 10
15.2435
 20
85.5103
 11
14.8491
 21
85.4713
  0
LINE
  8
0
 10
14.8491
 20
85.4713
 11
14.8903
 21
84.7794
  0
LINE
  8
0
 10
14.8903
 20
84.7794
 11
14.3616
 21
83.6258
  0
LINE
  8
0
 10
14.3616
 20
83.6258
 11
13.607
 21
84.391
  0
LINE
  8
0
 10
13.607
 20
84.391
 11
13.4346
 21
84.9854
  0
LINE
  8
0
 10
13.4346
 20
84.9854
 11
13.1424
 21
84.8991
  0
LINE
  8
0
 10
13.1424
 20
84.8991
 11
12.9158
 21
85.1913
  0
LINE
  8
0
 10
12.9158
 20
85.1913
 11
12.8479
 21
87.0789
  0
LINE
  8
0
 10
12.8479
 20
87.0789
 11
12.4352
 21
86.7012
  0
LINE
  8
0
 10
12.4352
 20
86.7012
 11
12.4092
 21
85.6232
  0
LINE
  8
0
 10
12.4092
 20
85.6232
 11
12.1758
 21
84.9884
  0
LINE
  8
0
 10
12.1758
 20
84.9884
 11
11.7294
 21
84.8122
  0
LINE
  8
0
 10
11.7294
 20
84.8122
 11
10.8337
 21
83.7387
  0
LINE
  8
0
 10
10.8337
 20
83.7387
 11
10.4752
 21
84.9403
  0
LINE
  8
0
 10
10.4752
 20
84.9403
 11
10.0052
 21
85.363
  0
LINE
  8
0
 10
10.0052
 20
85.363
 11
10.0708
 21
86.573
  0
LINE
  8
0
 10
10.0708
 20
86.573
 11
8.33206
 21
85.5644
  0
LINE
  8
0
 10
8.33206
 20
85.5644
 11
8.15125
 21
85.878
  0
LINE
  8
0
 10
8.15125
 20
85.878
 11
7.46078
 21
85.4355
  0
LINE
  8
0
 10
7.46078
 20
85.4355
 11
6.26984
 21
85.0258
  0
LINE
  8
0
 10
6.26984
 20
85.0258
 11
7.52792
 21
84.5146
  0
LINE
  8
0
 10
7.52792
 20
84.5146
 11
7.66983
 21
84.3063
  0
LINE
  8
0
 10
7.66983
 20
84.3063
 11
7.50809
 21
83.9447
  0
LINE
  8
0
 10
7.50809
 20
83.9447
 11
8.12607
 21
83.6372
  0
LINE
  8
0
 10
8.12607
 20
83.6372
 11
8.86154
 21
82.6004
  0
LINE
  8
0
 10
8.86154
 20
82.6004
 11
7.8186
 21
82.3296
  0
LINE
  8
0
 10
7.8186
 20
82.3296
 11
7.2197
 21
82.4776
  0
LINE
  8
0
 10
7.2197
 20
82.4776
 11
7.14951
 21
82.1823
  0
LINE
  8
0
 10
7.14951
 20
82.1823
 11
6.78177
 21
82.1289
  0
LINE
  8
0
 10
6.78177
 20
82.1289
 11
5.11398
 21
83.0162
  0
LINE
  8
0
 10
5.11398
 20
83.0162
 11
5.21469
 21
82.5577
  0
LINE
  8
0
 10
5.21469
 20
82.5577
 11
5.34668
 21
82.4913
  0
LINE
  8
0
 10
5.34668
 20
82.4913
 11
5.26581
 21
82.4486
  0
LINE
  8
0
 10
5.26581
 20
82.4486
 11
6.15387
 21
81.9077
  0
LINE
  8
0
 10
6.15387
 20
81.9077
 11
6.58646
 21
81.3889
  0
LINE
  8
0
 10
6.58646
 20
81.3889
 11
6.51703
 21
80.909
  0
LINE
  8
0
 10
6.51703
 20
80.909
 11
7.00073
 21
79.6005
  0
LINE
  8
0
 10
7.00073
 20
79.6005
 11
5.78232
 21
79.8927
  0
LINE
  8
0
 10
5.78232
 20
79.8927
 11
5.17731
 21
79.6974
  0
LINE
  8
0
 10
5.17731
 20
79.6974
 11
4.16412
 21
80.3566
  0
LINE
  8
0
 10
4.16412
 20
80.3566
 11
4.1687
 21
78.3493
  0
LINE
  8
0
 10
4.1687
 20
78.3493
 11
1.19324
 21
78.3493
  0
LINE
  8
0
 10
32.7103
 20
90.9111
 11
31.3332
 21
91.1461
  0
LINE
  8
0
 10
31.3332
 20
91.1461
 11
32.1999
 21
92.0586
  0
LINE
  8
0
 10
32.1999
 20
92.0586
 11
32.3047
 21
92.5699
  0
LINE
  8
0
 10
32.3047
 20
92.5699
 11
32.8907
 21
90.7662
  0
LINE
  8
0
 10
32.8907
 20
90.7662
 11
32.7103
 21
90.9111
  0
LINE
  8
0
 10
-32.5722
 20
91.7465
 11
-31.3332
 21
91.5344
  0
LINE
  8
0
 10
-31.3332
 20
91.5344
 11
-32.1999
 21
90.6212
  0
LINE
  8
0
 10
-32.1999
 20
90.6212
 11
-32.328
 21
90.004
  0
LINE
  8
0
 10
-32.328
 20
90.004
 11
-33.2985
 21
89.5112
  0
LINE
  8
0
 10
-33.2985
 20
89.5112
 11
-32.5722
 21
91.7465
  0
LINE
  8
0
 10
-28.8063
 20
78.3493
 11
-28.8429
 21
79.1702
  0
LINE
  8
0
 10
-28.8429
 20
79.1702
 11
-28.6041
 21
80.4062
  0
LINE
  8
0
 10
-28.6041
 20
80.4062
 11
-29.6761
 21
79.5715
  0
LINE
  8
0
 10
-29.6761
 20
79.5715
 11
-29.9278
 21
79.5532
  0
LINE
  8
0
 10
-29.9278
 20
79.5532
 11
-30.159
 21
79.8759
  0
LINE
  8
0
 10
-30.159
 20
79.8759
 11
-30.7365
 21
79.4937
  0
LINE
  8
0
 10
-30.7365
 20
79.4937
 11
-32.0023
 21
79.3747
  0
LINE
  8
0
 10
-32.0023
 20
79.3747
 11
-31.7162
 21
80.4092
  0
LINE
  8
0
 10
-31.7162
 20
80.4092
 11
-31.2851
 21
80.8586
  0
LINE
  8
0
 10
-31.2851
 20
80.8586
 11
-31.5056
 21
81.0654
  0
LINE
  8
0
 10
-31.5056
 20
81.0654
 11
-31.3683
 21
81.4117
  0
LINE
  8
0
 10
-31.3683
 20
81.4117
 11
-29.7661
 21
82.4112
  0
LINE
  8
0
 10
-29.7661
 20
82.4112
 11
-30.3032
 21
82.5813
  0
LINE
  8
0
 10
-30.3032
 20
82.5813
 11
-31.2462
 21
82.0671
  0
LINE
  8
0
 10
-31.2462
 20
82.0671
 11
-31.9122
 21
81.9496
  0
LINE
  8
0
 10
-31.9122
 20
81.9496
 11
-32.2891
 21
82.2502
  0
LINE
  8
0
 10
-32.2891
 20
82.2502
 11
-33.667
 21
82.4867
  0
LINE
  8
0
 10
-33.667
 20
82.4867
 11
-32.8003
 21
83.3992
  0
LINE
  8
0
 10
-32.8003
 20
83.3992
 11
-32.6714
 21
84.0164
  0
LINE
  8
0
 10
-32.6714
 20
84.0164
 11
-31.5926
 21
84.565
  0
LINE
  8
0
 10
-31.5926
 20
84.565
 11
-33.3351
 21
85.5659
  0
LINE
  8
0
 10
-33.3351
 20
85.5659
 11
-33.1551
 21
85.8788
  0
LINE
  8
0
 10
-33.1551
 20
85.8788
 11
-33.8821
 21
86.2587
  0
LINE
  8
0
 10
-33.8821
 20
86.2587
 11
-34.2513
 21
86.5787
  0
LINE
  8
0
 10
-34.2513
 20
86.5787
 11
-33.3306
 21
89.4124
  0
LINE
  8
0
 10
-33.3306
 20
89.4124
 11
-31.6643
 21
88.4552
  0
LINE
  8
0
 10
-31.6643
 20
88.4552
 11
-31.8459
 21
88.1409
  0
LINE
  8
0
 10
-31.8459
 20
88.1409
 11
-31.1195
 21
87.764
  0
LINE
  8
0
 10
-31.1195
 20
87.764
 11
-30.1666
 21
86.9392
  0
LINE
  8
0
 10
-30.1666
 20
86.9392
 11
-30.352
 21
88.2858
  0
LINE
  8
0
 10
-30.352
 20
88.2858
 11
-30.2414
 21
88.5101
  0
LINE
  8
0
 10
-30.2414
 20
88.5101
 11
-29.8492
 21
88.549
  0
LINE
  8
0
 10
-29.8492
 20
88.549
 11
-29.8904
 21
89.241
  0
LINE
  8
0
 10
-29.8904
 20
89.241
 11
-29.3617
 21
90.3938
  0
LINE
  8
0
 10
-29.3617
 20
90.3938
 11
-28.6072
 21
89.6286
  0
LINE
  8
0
 10
-28.6072
 20
89.6286
 11
-28.4348
 21
89.0343
  0
LINE
  8
0
 10
-28.4348
 20
89.0343
 11
-28.1433
 21
89.1205
  0
LINE
  8
0
 10
-28.1433
 20
89.1205
 11
-27.9152
 21
88.8283
  0
LINE
  8
0
 10
-27.9152
 20
88.8283
 11
-27.8473
 21
86.9415
  0
LINE
  8
0
 10
-27.8473
 20
86.9415
 11
-27.1912
 21
87.542
  0
LINE
  8
0
 10
-27.1912
 20
87.542
 11
-26.3245
 21
87.8075
  0
LINE
  8
0
 10
-26.3245
 20
87.8075
 11
-26.1948
 21
87.2643
  0
LINE
  8
0
 10
-26.1948
 20
87.2643
 11
-26.445
 21
86.5219
  0
LINE
  8
0
 10
-26.445
 20
86.5219
 11
-26.1055
 21
86.3823
  0
LINE
  8
0
 10
-26.1055
 20
86.3823
 11
-26.5617
 21
85.4256
  0
LINE
  8
0
 10
-26.5617
 20
85.4256
 11
-28.2341
 21
84.1423
  0
LINE
  8
0
 10
-28.2341
 20
84.1423
 11
-28.2814
 21
83.6708
  0
LINE
  8
0
 10
-28.2814
 20
83.6708
 11
-28.0037
 21
83.8318
  0
LINE
  8
0
 10
-28.0037
 20
83.8318
 11
-27.153
 21
83.4785
  0
LINE
  8
0
 10
-27.153
 20
83.4785
 11
-25.5783
 21
84.1812
  0
LINE
  8
0
 10
-25.5783
 20
84.1812
 11
-24.7002
 21
84.2651
  0
LINE
  8
0
 10
-24.7002
 20
84.2651
 11
-24.4293
 21
84.1629
  0
LINE
  8
0
 10
-24.4293
 20
84.1629
 11
-24.4171
 21
83.9012
  0
LINE
  8
0
 10
-24.4171
 20
83.9012
 11
-23.9494
 21
83.8554
  0
LINE
  8
0
 10
-23.9494
 20
83.8554
 11
-23.3032
 21
83.4053
  0
LINE
  8
0
 10
-23.3032
 20
83.4053
 11
-23.5535
 21
83.062
  0
LINE
  8
0
 10
-23.5535
 20
83.062
 11
-24.733
 21
82.4478
  0
LINE
  8
0
 10
-24.733
 20
82.4478
 11
-23.8457
 21
81.9077
  0
LINE
  8
0
 10
-23.8457
 20
81.9077
 11
-23.4131
 21
81.3889
  0
LINE
  8
0
 10
-23.4131
 20
81.3889
 11
-23.4825
 21
80.909
  0
LINE
  8
0
 10
-23.4825
 20
80.909
 11
-22.9988
 21
79.6005
  0
LINE
  8
0
 10
-22.9988
 20
79.6005
 11
-24.2172
 21
79.8927
  0
LINE
  8
0
 10
-24.2172
 20
79.8927
 11
-24.8222
 21
79.6974
  0
LINE
  8
0
 10
-24.8222
 20
79.6974
 11
-25.8347
 21
80.3566
  0
LINE
  8
0
 10
-25.8347
 20
80.3566
 11
-25.8301
 21
78.3493
  0
LINE
  8
0
 10
-25.8301
 20
78.3493
 11
-28.8063
 21
78.3493
  0
LINE
  8
0
 10
33.284
 20
89.0694
 11
33.4021
 21
89.1925
  0
LINE
  8
0
 10
33.4021
 20
89.1925
 11
33.7549
 21
88.1065
  0
LINE
  8
0
 10
33.7549
 20
88.1065
 11
32.9987
 21
88.0348
  0
LINE
  8
0
 10
32.9987
 20
88.0348
 11
33.284
 21
89.0694
  0
LINE
  8
0
 10
34.6085
 20
63.9153
 11
34.6664
 21
65.2435
  0
LINE
  8
0
 10
34.6664
 20
65.2435
 11
33.7532
 21
64.7461
  0
LINE
  8
0
 10
33.7532
 20
64.7461
 11
33.0872
 21
64.6286
  0
LINE
  8
0
 10
33.0872
 20
64.6286
 11
32.7103
 21
64.9292
  0
LINE
  8
0
 10
32.7103
 20
64.9292
 11
31.3332
 21
65.1649
  0
LINE
  8
0
 10
31.3332
 20
65.1649
 11
32.1999
 21
66.0782
  0
LINE
  8
0
 10
32.1999
 20
66.0782
 11
32.328
 21
66.6954
  0
LINE
  8
0
 10
32.328
 20
66.6954
 11
33.4068
 21
67.2432
  0
LINE
  8
0
 10
33.4068
 20
67.2432
 11
31.6643
 21
68.2442
  0
LINE
  8
0
 10
31.6643
 20
68.2442
 11
31.8459
 21
68.5585
  0
LINE
  8
0
 10
31.8459
 20
68.5585
 11
31.1195
 21
68.9354
  0
LINE
  8
0
 10
31.1195
 20
68.9354
 11
30.1666
 21
69.7601
  0
LINE
  8
0
 10
30.1666
 20
69.7601
 11
30.352
 21
68.4135
  0
LINE
  8
0
 10
30.352
 20
68.4135
 11
30.2414
 21
68.1892
  0
LINE
  8
0
 10
30.2414
 20
68.1892
 11
29.8492
 21
68.1503
  0
LINE
  8
0
 10
29.8492
 20
68.1503
 11
29.8904
 21
67.4583
  0
LINE
  8
0
 10
29.8904
 20
67.4583
 11
29.3617
 21
66.3055
  0
LINE
  8
0
 10
29.3617
 20
66.3055
 11
28.6072
 21
67.0708
  0
LINE
  8
0
 10
28.6072
 20
67.0708
 11
28.4348
 21
67.6651
  0
LINE
  8
0
 10
28.4348
 20
67.6651
 11
28.1433
 21
67.5789
  0
LINE
  8
0
 10
28.1433
 20
67.5789
 11
27.9152
 21
67.8711
  0
LINE
  8
0
 10
27.9152
 20
67.8711
 11
27.8473
 21
69.7578
  0
LINE
  8
0
 10
27.8473
 20
69.7578
 11
27.1912
 21
69.1574
  0
LINE
  8
0
 10
27.1912
 20
69.1574
 11
26.3245
 21
68.8919
  0
LINE
  8
0
 10
26.3245
 20
68.8919
 11
26.1948
 21
69.4344
  0
LINE
  8
0
 10
26.1948
 20
69.4344
 11
26.445
 21
70.1775
  0
LINE
  8
0
 10
26.445
 20
70.1775
 11
26.1055
 21
70.3171
  0
LINE
  8
0
 10
26.1055
 20
70.3171
 11
26.5617
 21
71.2738
  0
LINE
  8
0
 10
26.5617
 20
71.2738
 11
28.2341
 21
72.5571
  0
LINE
  8
0
 10
28.2341
 20
72.5571
 11
28.2814
 21
73.0286
  0
LINE
  8
0
 10
28.2814
 20
73.0286
 11
28.0037
 21
72.8676
  0
LINE
  8
0
 10
28.0037
 20
72.8676
 11
27.153
 21
73.2208
  0
LINE
  8
0
 10
27.153
 20
73.2208
 11
25.5783
 21
72.5182
  0
LINE
  8
0
 10
25.5783
 20
72.5182
 11
24.7002
 21
72.4342
  0
LINE
  8
0
 10
24.7002
 20
72.4342
 11
24.4293
 21
72.5365
  0
LINE
  8
0
 10
24.4293
 20
72.5365
 11
24.4171
 21
72.7982
  0
LINE
  8
0
 10
24.4171
 20
72.7982
 11
23.9494
 21
72.8439
  0
LINE
  8
0
 10
23.9494
 20
72.8439
 11
23.3032
 21
73.2941
  0
LINE
  8
0
 10
23.3032
 20
73.2941
 11
23.5535
 21
73.6374
  0
LINE
  8
0
 10
23.5535
 20
73.6374
 11
24.733
 21
74.2516
  0
LINE
  8
0
 10
24.733
 20
74.2516
 11
23.8457
 21
74.7917
  0
LINE
  8
0
 10
23.8457
 20
74.7917
 11
23.4131
 21
75.3105
  0
LINE
  8
0
 10
23.4131
 20
75.3105
 11
23.4825
 21
75.7904
  0
LINE
  8
0
 10
23.4825
 20
75.7904
 11
22.9988
 21
77.0988
  0
LINE
  8
0
 10
22.9988
 20
77.0988
 11
24.2172
 21
76.8066
  0
LINE
  8
0
 10
24.2172
 20
76.8066
 11
24.8222
 21
77.002
  0
LINE
  8
0
 10
24.8222
 20
77.002
 11
25.8347
 21
76.3428
  0
LINE
  8
0
 10
25.8347
 20
76.3428
 11
25.8301
 21
78.3501
  0
LINE
  8
0
 10
25.8301
 20
78.3501
 11
28.8063
 21
78.3501
  0
LINE
  8
0
 10
28.8063
 20
78.3501
 11
28.8429
 21
77.5291
  0
LINE
  8
0
 10
28.8429
 20
77.5291
 11
28.6041
 21
76.2932
  0
LINE
  8
0
 10
28.6041
 20
76.2932
 11
29.6761
 21
77.1278
  0
LINE
  8
0
 10
29.6761
 20
77.1278
 11
29.9278
 21
77.1461
  0
LINE
  8
0
 10
29.9278
 20
77.1461
 11
30.159
 21
76.8234
  0
LINE
  8
0
 10
30.159
 20
76.8234
 11
30.7365
 21
77.2057
  0
LINE
  8
0
 10
30.7365
 20
77.2057
 11
32.0023
 21
77.3247
  0
LINE
  8
0
 10
32.0023
 20
77.3247
 11
31.7162
 21
76.2901
  0
LINE
  8
0
 10
31.7162
 20
76.2901
 11
31.2851
 21
75.8408
  0
LINE
  8
0
 10
31.2851
 20
75.8408
 11
31.5056
 21
75.634
  0
LINE
  8
0
 10
31.5056
 20
75.634
 11
31.3683
 21
75.2876
  0
LINE
  8
0
 10
31.3683
 20
75.2876
 11
29.7661
 21
74.2882
  0
LINE
  8
0
 10
29.7661
 20
74.2882
 11
30.3032
 21
74.118
  0
LINE
  8
0
 10
30.3032
 20
74.118
 11
31.2462
 21
74.6323
  0
LINE
  8
0
 10
31.2462
 20
74.6323
 11
31.9122
 21
74.7498
  0
LINE
  8
0
 10
31.9122
 20
74.7498
 11
32.2891
 21
74.4492
  0
LINE
  8
0
 10
32.2891
 20
74.4492
 11
33.667
 21
74.2126
  0
LINE
  8
0
 10
33.667
 20
74.2126
 11
32.8003
 21
73.3002
  0
LINE
  8
0
 10
32.8003
 20
73.3002
 11
32.6714
 21
72.683
  0
LINE
  8
0
 10
32.6714
 20
72.683
 11
31.5926
 21
72.1344
  0
LINE
  8
0
 10
31.5926
 20
72.1344
 11
33.3351
 21
71.1334
  0
LINE
  8
0
 10
33.3351
 20
71.1334
 11
33.1551
 21
70.8206
  0
LINE
  8
0
 10
33.1551
 20
70.8206
 11
33.8821
 21
70.4407
  0
LINE
  8
0
 10
33.8821
 20
70.4407
 11
34.832
 21
69.6175
  0
LINE
  8
0
 10
34.832
 20
69.6175
 11
34.6474
 21
70.9633
  0
LINE
  8
0
 10
34.6474
 20
70.9633
 11
34.7565
 21
71.1891
  0
LINE
  8
0
 10
34.7565
 20
71.1891
 11
35.1509
 21
71.228
  0
LINE
  8
0
 10
35.1509
 20
71.228
 11
35.1097
 21
71.92
  0
LINE
  8
0
 10
35.1097
 20
71.92
 11
35.6384
 21
73.0736
  0
LINE
  8
0
 10
35.6384
 20
73.0736
 11
36.393
 21
72.3083
  0
LINE
  8
0
 10
36.393
 20
72.3083
 11
36.5654
 21
71.714
  0
LINE
  8
0
 10
36.5654
 20
71.714
 11
36.8576
 21
71.8002
  0
LINE
  8
0
 10
36.8576
 20
71.8002
 11
37.0842
 21
71.508
  0
LINE
  8
0
 10
37.0842
 20
71.508
 11
37.1521
 21
69.6205
  0
LINE
  8
0
 10
37.1521
 20
69.6205
 11
37.5648
 21
69.9982
  0
LINE
  8
0
 10
37.5648
 20
69.9982
 11
37.5908
 21
71.0762
  0
LINE
  8
0
 10
37.5908
 20
71.0762
 11
37.8242
 21
71.711
  0
LINE
  8
0
 10
37.8242
 20
71.711
 11
38.2706
 21
71.8872
  0
LINE
  8
0
 10
38.2706
 20
71.8872
 11
38.8135
 21
72.5379
  0
LINE
  8
0
 10
38.8135
 20
72.5379
 11
41.2293
 21
65.1026
  0
LINE
  8
0
 10
41.2293
 20
65.1026
 11
40.1146
 21
65.6952
  0
LINE
  8
0
 10
40.1146
 20
65.6952
 11
40.3053
 21
64.8285
  0
LINE
  8
0
 10
40.3053
 20
64.8285
 11
40.1009
 21
63.942
  0
LINE
  8
0
 10
40.1009
 20
63.942
 11
39.5676
 21
64.1022
  0
LINE
  8
0
 10
39.5676
 20
64.1022
 11
39.0511
 21
64.6896
  0
LINE
  8
0
 10
39.0511
 20
64.6896
 11
38.7604
 21
64.4661
  0
LINE
  8
0
 10
38.7604
 20
64.4661
 11
38.1584
 21
65.3427
  0
LINE
  8
0
 10
38.1584
 20
65.3427
 11
37.8845
 21
67.4263
  0
LINE
  8
0
 10
37.8845
 20
67.4263
 11
37.5
 21
67.704
  0
LINE
  8
0
 10
37.5
 20
67.704
 11
37.5
 21
67.3843
  0
LINE
  8
0
 10
37.5
 20
67.3843
 11
36.7661
 21
66.8228
  0
LINE
  8
0
 10
36.7661
 20
66.8228
 11
36.5929
 21
65.1154
  0
LINE
  8
0
 10
36.5929
 20
65.1154
 11
36.2244
 21
64.3051
  0
LINE
  8
0
 10
36.2244
 20
64.3051
 11
35.9993
 21
64.122
  0
LINE
  8
0
 10
35.9993
 20
64.122
 11
35.7666
 21
64.2433
  0
LINE
  8
0
 10
35.7666
 20
64.2433
 11
35.4942
 21
63.8626
  0
LINE
  8
0
 10
35.4942
 20
63.8626
 11
34.7816
 21
63.5262
  0
LINE
  8
0
 10
34.7816
 20
63.5262
 11
34.6085
 21
63.9153
  0
LINE
  8
0
 10
-15.3915
 20
63.9153
 11
-15.3336
 21
65.2435
  0
LINE
  8
0
 10
-15.3336
 20
65.2435
 11
-16.2468
 21
64.7461
  0
LINE
  8
0
 10
-16.2468
 20
64.7461
 11
-16.9128
 21
64.6286
  0
LINE
  8
0
 10
-16.9128
 20
64.6286
 11
-17.2897
 21
64.9292
  0
LINE
  8
0
 10
-17.2897
 20
64.9292
 11
-18.6668
 21
65.1649
  0
LINE
  8
0
 10
-18.6668
 20
65.1649
 11
-17.8001
 21
66.0782
  0
LINE
  8
0
 10
-17.8001
 20
66.0782
 11
-17.672
 21
66.6954
  0
LINE
  8
0
 10
-17.672
 20
66.6954
 11
-16.5932
 21
67.2432
  0
LINE
  8
0
 10
-16.5932
 20
67.2432
 11
-18.3357
 21
68.2442
  0
LINE
  8
0
 10
-18.3357
 20
68.2442
 11
-18.1541
 21
68.5585
  0
LINE
  8
0
 10
-18.1541
 20
68.5585
 11
-18.8805
 21
68.9354
  0
LINE
  8
0
 10
-18.8805
 20
68.9354
 11
-19.8334
 21
69.7601
  0
LINE
  8
0
 10
-19.8334
 20
69.7601
 11
-19.648
 21
68.4135
  0
LINE
  8
0
 10
-19.648
 20
68.4135
 11
-19.7586
 21
68.1892
  0
LINE
  8
0
 10
-19.7586
 20
68.1892
 11
-20.1508
 21
68.1503
  0
LINE
  8
0
 10
-20.1508
 20
68.1503
 11
-20.1096
 21
67.4583
  0
LINE
  8
0
 10
-20.1096
 20
67.4583
 11
-20.6383
 21
66.3055
  0
LINE
  8
0
 10
-20.6383
 20
66.3055
 11
-21.3928
 21
67.0708
  0
LINE
  8
0
 10
-21.3928
 20
67.0708
 11
-21.5652
 21
67.6651
  0
LINE
  8
0
 10
-21.5652
 20
67.6651
 11
-21.8567
 21
67.5789
  0
LINE
  8
0
 10
-21.8567
 20
67.5789
 11
-22.0848
 21
67.8711
  0
LINE
  8
0
 10
-22.0848
 20
67.8711
 11
-22.1527
 21
69.7578
  0
LINE
  8
0
 10
-22.1527
 20
69.7578
 11
-22.8088
 21
69.1574
  0
LINE
  8
0
 10
-22.8088
 20
69.1574
 11
-23.6755
 21
68.8919
  0
LINE
  8
0
 10
-23.6755
 20
68.8919
 11
-23.8052
 21
69.4344
  0
LINE
  8
0
 10
-23.8052
 20
69.4344
 11
-23.555
 21
70.1775
  0
LINE
  8
0
 10
-23.555
 20
70.1775
 11
-23.8945
 21
70.3171
  0
LINE
  8
0
 10
-23.8945
 20
70.3171
 11
-23.4383
 21
71.2738
  0
LINE
  8
0
 10
-23.4383
 20
71.2738
 11
-21.7659
 21
72.5571
  0
LINE
  8
0
 10
-21.7659
 20
72.5571
 11
-21.7186
 21
73.0286
  0
LINE
  8
0
 10
-21.7186
 20
73.0286
 11
-21.9963
 21
72.8676
  0
LINE
  8
0
 10
-21.9963
 20
72.8676
 11
-22.847
 21
73.2208
  0
LINE
  8
0
 10
-22.847
 20
73.2208
 11
-24.4217
 21
72.5182
  0
LINE
  8
0
 10
-24.4217
 20
72.5182
 11
-25.2998
 21
72.4342
  0
LINE
  8
0
 10
-25.2998
 20
72.4342
 11
-25.5707
 21
72.5365
  0
LINE
  8
0
 10
-25.5707
 20
72.5365
 11
-25.5829
 21
72.7982
  0
LINE
  8
0
 10
-25.5829
 20
72.7982
 11
-26.0506
 21
72.8439
  0
LINE
  8
0
 10
-26.0506
 20
72.8439
 11
-26.6968
 21
73.2941
  0
LINE
  8
0
 10
-26.6968
 20
73.2941
 11
-26.4465
 21
73.6374
  0
LINE
  8
0
 10
-26.4465
 20
73.6374
 11
-25.267
 21
74.2516
  0
LINE
  8
0
 10
-25.267
 20
74.2516
 11
-26.1543
 21
74.7917
  0
LINE
  8
0
 10
-26.1543
 20
74.7917
 11
-26.5869
 21
75.3105
  0
LINE
  8
0
 10
-26.5869
 20
75.3105
 11
-26.5175
 21
75.7904
  0
LINE
  8
0
 10
-26.5175
 20
75.7904
 11
-27.0012
 21
77.0988
  0
LINE
  8
0
 10
-27.0012
 20
77.0988
 11
-25.7828
 21
76.8066
  0
LINE
  8
0
 10
-25.7828
 20
76.8066
 11
-25.1778
 21
77.002
  0
LINE
  8
0
 10
-25.1778
 20
77.002
 11
-24.1653
 21
76.3428
  0
LINE
  8
0
 10
-24.1653
 20
76.3428
 11
-24.1699
 21
78.3501
  0
LINE
  8
0
 10
-24.1699
 20
78.3501
 11
-21.1937
 21
78.3501
  0
LINE
  8
0
 10
-21.1937
 20
78.3501
 11
-21.1571
 21
77.5291
  0
LINE
  8
0
 10
-21.1571
 20
77.5291
 11
-21.3959
 21
76.2932
  0
LINE
  8
0
 10
-21.3959
 20
76.2932
 11
-20.3239
 21
77.1278
  0
LINE
  8
0
 10
-20.3239
 20
77.1278
 11
-20.0722
 21
77.1461
  0
LINE
  8
0
 10
-20.0722
 20
77.1461
 11
-19.841
 21
76.8234
  0
LINE
  8
0
 10
-19.841
 20
76.8234
 11
-19.2635
 21
77.2057
  0
LINE
  8
0
 10
-19.2635
 20
77.2057
 11
-17.9977
 21
77.3247
  0
LINE
  8
0
 10
-17.9977
 20
77.3247
 11
-18.2838
 21
76.2901
  0
LINE
  8
0
 10
-18.2838
 20
76.2901
 11
-18.7149
 21
75.8408
  0
LINE
  8
0
 10
-18.7149
 20
75.8408
 11
-18.4944
 21
75.634
  0
LINE
  8
0
 10
-18.4944
 20
75.634
 11
-18.6317
 21
75.2876
  0
LINE
  8
0
 10
-18.6317
 20
75.2876
 11
-20.2339
 21
74.2882
  0
LINE
  8
0
 10
-20.2339
 20
74.2882
 11
-19.6968
 21
74.118
  0
LINE
  8
0
 10
-19.6968
 20
74.118
 11
-18.7538
 21
74.6323
  0
LINE
  8
0
 10
-18.7538
 20
74.6323
 11
-18.0878
 21
74.7498
  0
LINE
  8
0
 10
-18.0878
 20
74.7498
 11
-17.7109
 21
74.4492
  0
LINE
  8
0
 10
-17.7109
 20
74.4492
 11
-16.333
 21
74.2126
  0
LINE
  8
0
 10
-16.333
 20
74.2126
 11
-17.1997
 21
73.3002
  0
LINE
  8
0
 10
-17.1997
 20
73.3002
 11
-17.3286
 21
72.683
  0
LINE
  8
0
 10
-17.3286
 20
72.683
 11
-18.4074
 21
72.1344
  0
LINE
  8
0
 10
-18.4074
 20
72.1344
 11
-16.6649
 21
71.1334
  0
LINE
  8
0
 10
-16.6649
 20
71.1334
 11
-16.8449
 21
70.8206
  0
LINE
  8
0
 10
-16.8449
 20
70.8206
 11
-16.1179
 21
70.4407
  0
LINE
  8
0
 10
-16.1179
 20
70.4407
 11
-15.168
 21
69.6175
  0
LINE
  8
0
 10
-15.168
 20
69.6175
 11
-15.3526
 21
70.9633
  0
LINE
  8
0
 10
-15.3526
 20
70.9633
 11
-15.2435
 21
71.1891
  0
LINE
  8
0
 10
-15.2435
 20
71.1891
 11
-14.8491
 21
71.228
  0
LINE
  8
0
 10
-14.8491
 20
71.228
 11
-14.8903
 21
71.92
  0
LINE
  8
0
 10
-14.8903
 20
71.92
 11
-14.3616
 21
73.0736
  0
LINE
  8
0
 10
-14.3616
 20
73.0736
 11
-13.607
 21
72.3083
  0
LINE
  8
0
 10
-13.607
 20
72.3083
 11
-13.4346
 21
71.714
  0
LINE
  8
0
 10
-13.4346
 20
71.714
 11
-13.1424
 21
71.8002
  0
LINE
  8
0
 10
-13.1424
 20
71.8002
 11
-12.9158
 21
71.508
  0
LINE
  8
0
 10
-12.9158
 20
71.508
 11
-12.8479
 21
69.6205
  0
LINE
  8
0
 10
-12.8479
 20
69.6205
 11
-12.4352
 21
69.9982
  0
LINE
  8
0
 10
-12.4352
 20
69.9982
 11
-12.4092
 21
71.0762
  0
LINE
  8
0
 10
-12.4092
 20
71.0762
 11
-12.1758
 21
71.711
  0
LINE
  8
0
 10
-12.1758
 20
71.711
 11
-11.7294
 21
71.8872
  0
LINE
  8
0
 10
-11.7294
 20
71.8872
 11
-10.8337
 21
72.9607
  0
LINE
  8
0
 10
-10.8337
 20
72.9607
 11
-10.4752
 21
71.759
  0
LINE
  8
0
 10
-10.4752
 20
71.759
 11
-10.0052
 21
71.3364
  0
LINE
  8
0
 10
-10.0052
 20
71.3364
 11
-10.0708
 21
70.1263
  0
LINE
  8
0
 10
-10.0708
 20
70.1263
 11
-8.33206
 21
71.1349
  0
LINE
  8
0
 10
-8.33206
 20
71.1349
 11
-8.15125
 21
70.8214
  0
LINE
  8
0
 10
-8.15125
 20
70.8214
 11
-7.46078
 21
71.2639
  0
LINE
  8
0
 10
-7.46078
 20
71.2639
 11
-6.26984
 21
71.6736
  0
LINE
  8
0
 10
-6.26984
 20
71.6736
 11
-7.52792
 21
72.1848
  0
LINE
  8
0
 10
-7.52792
 20
72.1848
 11
-7.66983
 21
72.393
  0
LINE
  8
0
 10
-7.66983
 20
72.393
 11
-7.50809
 21
72.7547
  0
LINE
  8
0
 10
-7.50809
 20
72.7547
 11
-8.12607
 21
73.0621
  0
LINE
  8
0
 10
-8.12607
 20
73.0621
 11
-8.86154
 21
74.099
  0
LINE
  8
0
 10
-8.86154
 20
74.099
 11
-7.8186
 21
74.3698
  0
LINE
  8
0
 10
-7.8186
 20
74.3698
 11
-7.2197
 21
74.2218
  0
LINE
  8
0
 10
-7.2197
 20
74.2218
 11
-7.14951
 21
74.5171
  0
LINE
  8
0
 10
-7.14951
 20
74.5171
 11
-6.78177
 21
74.5705
  0
LINE
  8
0
 10
-6.78177
 20
74.5705
 11
-5.11398
 21
73.6832
  0
LINE
  8
0
 10
-5.11398
 20
73.6832
 11
-5.21469
 21
74.1417
  0
LINE
  8
0
 10
-5.21469
 20
74.1417
 11
-5.34668
 21
74.2081
  0
LINE
  8
0
 10
-5.34668
 20
74.2081
 11
-5.26581
 21
74.2508
  0
LINE
  8
0
 10
-5.26581
 20
74.2508
 11
-6.15387
 21
74.7917
  0
LINE
  8
0
 10
-6.15387
 20
74.7917
 11
-6.58646
 21
75.3105
  0
LINE
  8
0
 10
-6.58646
 20
75.3105
 11
-6.51703
 21
75.7904
  0
LINE
  8
0
 10
-6.51703
 20
75.7904
 11
-7.00073
 21
77.0988
  0
LINE
  8
0
 10
-7.00073
 20
77.0988
 11
-5.78232
 21
76.8066
  0
LINE
  8
0
 10
-5.78232
 20
76.8066
 11
-5.17731
 21
77.002
  0
LINE
  8
0
 10
-5.17731
 20
77.002
 11
-4.16412
 21
76.3428
  0
LINE
  8
0
 10
-4.16412
 20
76.3428
 11
-4.1687
 21
78.3501
  0
LINE
  8
0
 10
-4.1687
 20
78.3501
 11
-1.19324
 21
78.3501
  0
LINE
  8
0
 10
-1.19324
 20
78.3501
 11
-1.15662
 21
77.5291
  0
LINE
  8
0
 10
-1.15662
 20
77.5291
 11
-1.39465
 21
76.2939
  0
LINE
  8
0
 10
-1.39465
 20
76.2939
 11
-0.323486
 21
77.1278
  0
LINE
  8
0
 10
-0.323486
 20
77.1278
 11
-0.0717163
 21
77.1461
  0
LINE
  8
0
 10
-0.0717163
 20
77.1461
 11
0.158691
 21
76.8242
  0
LINE
  8
0
 10
0.158691
 20
76.8242
 11
0.737
 21
77.2057
  0
LINE
  8
0
 10
0.737
 20
77.2057
 11
2.00119
 21
77.3247
  0
LINE
  8
0
 10
2.00119
 20
77.3247
 11
1.71585
 21
76.2901
  0
LINE
  8
0
 10
1.71585
 20
76.2901
 11
1.28479
 21
75.8408
  0
LINE
  8
0
 10
1.28479
 20
75.8408
 11
1.50528
 21
75.634
  0
LINE
  8
0
 10
1.50528
 20
75.634
 11
1.36795
 21
75.2876
  0
LINE
  8
0
 10
1.36795
 20
75.2876
 11
-0.233459
 21
74.2874
  0
LINE
  8
0
 10
-0.233459
 20
74.2874
 11
0.614166
 21
74.0189
  0
LINE
  8
0
 10
0.614166
 20
74.0189
 11
1.27869
 21
73.3986
  0
LINE
  8
0
 10
1.27869
 20
73.3986
 11
0.87204
 21
73.0179
  0
LINE
  8
0
 10
0.87204
 20
73.0179
 11
0.105286
 21
72.863
  0
LINE
  8
0
 10
0.105286
 20
72.863
 11
0.153351
 21
72.4998
  0
LINE
  8
0
 10
0.153351
 20
72.4998
 11
-0.908661
 21
72.4167
  0
LINE
  8
0
 10
-0.908661
 20
72.4167
 11
-2.84576
 21
73.2208
  0
LINE
  8
0
 10
-2.84576
 20
73.2208
 11
-3.27911
 21
73.027
  0
LINE
  8
0
 10
-3.27911
 20
73.027
 11
-3.00369
 21
72.8668
  0
LINE
  8
0
 10
-3.00369
 20
72.8668
 11
-2.88315
 21
71.9521
  0
LINE
  8
0
 10
-2.88315
 20
71.9521
 11
-1.49384
 21
70.9488
  0
LINE
  8
0
 10
-1.49384
 20
70.9488
 11
-0.972748
 21
70.2179
  0
LINE
  8
0
 10
-0.972748
 20
70.2179
 11
-0.928497
 21
69.9371
  0
LINE
  8
0
 10
-0.928497
 20
69.9371
 11
-1.15051
 21
69.7952
  0
LINE
  8
0
 10
-1.15051
 20
69.7952
 11
-0.958252
 21
69.3695
  0
LINE
  8
0
 10
-0.958252
 20
69.3695
 11
-1.02386
 21
68.5837
  0
LINE
  8
0
 10
-1.02386
 20
68.5837
 11
-1.44272
 21
68.6279
  0
LINE
  8
0
 10
-1.44272
 20
68.6279
 11
-2.56653
 21
69.342
  0
LINE
  8
0
 10
-2.56653
 20
69.342
 11
-2.59247
 21
68.3022
  0
LINE
  8
0
 10
-2.59247
 20
68.3022
 11
-2.82364
 21
67.6674
  0
LINE
  8
0
 10
-2.82364
 20
67.6674
 11
-3.26996
 21
67.4911
  0
LINE
  8
0
 10
-3.26996
 20
67.4911
 11
-4.16489
 21
66.4185
  0
LINE
  8
0
 10
-4.16489
 20
66.4185
 11
-4.52347
 21
67.6201
  0
LINE
  8
0
 10
-4.52347
 20
67.6201
 11
-4.9942
 21
68.0428
  0
LINE
  8
0
 10
-4.9942
 20
68.0428
 11
-4.92783
 21
69.2513
  0
LINE
  8
0
 10
-4.92783
 20
69.2513
 11
-6.66656
 21
68.2426
  0
LINE
  8
0
 10
-6.66656
 20
68.2426
 11
-6.84738
 21
68.5562
  0
LINE
  8
0
 10
-6.84738
 20
68.5562
 11
-7.54089
 21
68.1145
  0
LINE
  8
0
 10
-7.54089
 20
68.1145
 11
-8.72726
 21
67.704
  0
LINE
  8
0
 10
-8.72726
 20
67.704
 11
-7.47147
 21
67.1936
  0
LINE
  8
0
 10
-7.47147
 20
67.1936
 11
-7.32956
 21
66.9853
  0
LINE
  8
0
 10
-7.32956
 20
66.9853
 11
-7.4913
 21
66.6237
  0
LINE
  8
0
 10
-7.4913
 20
66.6237
 11
-6.87256
 21
66.3162
  0
LINE
  8
0
 10
-6.87256
 20
66.3162
 11
-6.13785
 21
65.2802
  0
LINE
  8
0
 10
-6.13785
 20
65.2802
 11
-7.18079
 21
65.0093
  0
LINE
  8
0
 10
-7.18079
 20
65.0093
 11
-7.77969
 21
65.1573
  0
LINE
  8
0
 10
-7.77969
 20
65.1573
 11
-7.84988
 21
64.8621
  0
LINE
  8
0
 10
-7.84988
 20
64.8621
 11
-8.21762
 21
64.8087
  0
LINE
  8
0
 10
-8.21762
 20
64.8087
 11
-9.88541
 21
65.6952
  0
LINE
  8
0
 10
-9.88541
 20
65.6952
 11
-9.69467
 21
64.8285
  0
LINE
  8
0
 10
-9.69467
 20
64.8285
 11
-9.89914
 21
63.942
  0
LINE
  8
0
 10
-9.89914
 20
63.942
 11
-10.4324
 21
64.1022
  0
LINE
  8
0
 10
-10.4324
 20
64.1022
 11
-10.9489
 21
64.6896
  0
LINE
  8
0
 10
-10.9489
 20
64.6896
 11
-11.2396
 21
64.4661
  0
LINE
  8
0
 10
-11.2396
 20
64.4661
 11
-11.8416
 21
65.3427
  0
LINE
  8
0
 10
-11.8416
 20
65.3427
 11
-12.1155
 21
67.4263
  0
LINE
  8
0
 10
-12.1155
 20
67.4263
 11
-12.5
 21
67.704
  0
LINE
  8
0
 10
-12.5
 20
67.704
 11
-12.5
 21
67.3843
  0
LINE
  8
0
 10
-12.5
 20
67.3843
 11
-13.2339
 21
66.8228
  0
LINE
  8
0
 10
-13.2339
 20
66.8228
 11
-13.4071
 21
65.1154
  0
LINE
  8
0
 10
-13.4071
 20
65.1154
 11
-13.7756
 21
64.3051
  0
LINE
  8
0
 10
-13.7756
 20
64.3051
 11
-14.0007
 21
64.122
  0
LINE
  8
0
 10
-14.0007
 20
64.122
 11
-14.2334
 21
64.2433
  0
LINE
  8
0
 10
-14.2334
 20
64.2433
 11
-14.5058
 21
63.8626
  0
LINE
  8
0
 10
-14.5058
 20
63.8626
 11
-15.2184
 21
63.5262
  0
LINE
  8
0
 10
-15.2184
 20
63.5262
 11
-15.3915
 21
63.9153
  0
LINE
  8
0
 10
13.607
 20
58.4099
 11
13.4346
 21
59.005
  0
LINE
  8
0
 10
13.4346
 20
59.005
 11
13.1432
 21
58.9188
  0
LINE
  8
0
 10
13.1432
 20
58.9188
 11
12.9158
 21
59.2102
  0
LINE
  8
0
 10
12.9158
 20
59.2102
 11
12.8479
 21
61.0985
  0
LINE
  8
0
 10
12.8479
 20
61.0985
 11
12.4992
 21
60.7796
  0
LINE
  8
0
 10
12.4992
 20
60.7796
 11
12.4992
 21
60.6445
  0
LINE
  8
0
 10
12.4992
 20
60.6445
 11
12.4329
 21
60.6834
  0
LINE
  8
0
 10
12.4329
 20
60.6834
 11
12.4069
 21
59.642
  0
LINE
  8
0
 10
12.4069
 20
59.642
 11
12.1758
 21
59.0073
  0
LINE
  8
0
 10
12.1758
 20
59.0073
 11
11.7294
 21
58.831
  0
LINE
  8
0
 10
11.7294
 20
58.831
 11
10.8337
 21
57.7583
  0
LINE
  8
0
 10
10.8337
 20
57.7583
 11
10.4767
 21
58.9615
  0
LINE
  8
0
 10
10.4767
 20
58.9615
 11
10.0052
 21
59.3834
  0
LINE
  8
0
 10
10.0052
 20
59.3834
 11
10.0708
 21
60.5911
  0
LINE
  8
0
 10
10.0708
 20
60.5911
 11
7.98492
 21
59.3803
  0
LINE
  8
0
 10
7.98492
 20
59.3803
 11
7.81555
 21
59.7565
  0
LINE
  8
0
 10
7.81555
 20
59.7565
 11
7.21741
 21
59.4833
  0
LINE
  8
0
 10
7.21741
 20
59.4833
 11
6.95801
 21
59.7023
  0
LINE
  8
0
 10
6.95801
 20
59.7023
 11
5.92041
 21
59.5978
  0
LINE
  8
0
 10
5.92041
 20
59.5978
 11
5.99594
 21
60.157
  0
LINE
  8
0
 10
5.99594
 20
60.157
 11
6.29501
 21
60.5438
  0
LINE
  8
0
 10
6.29501
 20
60.5438
 11
6.21567
 21
60.9444
  0
LINE
  8
0
 10
6.21567
 20
60.9444
 11
6.9809
 21
61.4891
  0
LINE
  8
0
 10
6.9809
 20
61.4891
 11
6.52008
 21
61.953
  0
LINE
  8
0
 10
6.52008
 20
61.953
 11
7.54089
 21
62.6038
  0
LINE
  8
0
 10
7.54089
 20
62.6038
 11
8.72955
 21
63.0135
  0
LINE
  8
0
 10
8.72955
 20
63.0135
 11
7.47147
 21
63.5246
  0
LINE
  8
0
 10
7.47147
 20
63.5246
 11
7.33032
 21
63.7329
  0
LINE
  8
0
 10
7.33032
 20
63.7329
 11
7.4913
 21
64.0945
  0
LINE
  8
0
 10
7.4913
 20
64.0945
 11
6.87256
 21
64.4028
  0
LINE
  8
0
 10
6.87256
 20
64.4028
 11
6.13785
 21
65.4388
  0
LINE
  8
0
 10
6.13785
 20
65.4388
 11
7.17926
 21
65.7097
  0
LINE
  8
0
 10
7.17926
 20
65.7097
 11
7.77969
 21
65.5609
  0
LINE
  8
0
 10
7.77969
 20
65.5609
 11
7.84988
 21
65.8562
  0
LINE
  8
0
 10
7.84988
 20
65.8562
 11
8.21533
 21
65.9103
  0
LINE
  8
0
 10
8.21533
 20
65.9103
 11
9.88541
 21
65.023
  0
LINE
  8
0
 10
9.88541
 20
65.023
 11
9.78088
 21
65.4991
  0
LINE
  8
0
 10
9.78088
 20
65.4991
 11
9.70459
 21
65.5762
  0
LINE
  8
0
 10
9.70459
 20
65.5762
 11
9.73206
 21
65.5907
  0
LINE
  8
0
 10
9.73206
 20
65.5907
 11
8.84552
 21
66.1316
  0
LINE
  8
0
 10
8.84552
 20
66.1316
 11
8.41293
 21
66.6504
  0
LINE
  8
0
 10
8.41293
 20
66.6504
 11
8.48236
 21
67.1303
  0
LINE
  8
0
 10
8.48236
 20
67.1303
 11
7.99866
 21
68.4395
  0
LINE
  8
0
 10
7.99866
 20
68.4395
 11
9.21783
 21
68.1458
  0
LINE
  8
0
 10
9.21783
 20
68.1458
 11
9.82285
 21
68.3418
  0
LINE
  8
0
 10
9.82285
 20
68.3418
 11
10.8353
 21
67.6826
  0
LINE
  8
0
 10
10.8353
 20
67.6826
 11
10.8292
 21
70.0943
  0
LINE
  8
0
 10
10.8292
 20
70.0943
 11
11.2396
 21
70.0508
  0
LINE
  8
0
 10
11.2396
 20
70.0508
 11
11.3052
 21
70.7069
  0
LINE
  8
0
 10
11.3052
 20
70.7069
 11
11.6226
 21
70.8199
  0
LINE
  8
0
 10
11.6226
 20
70.8199
 11
12.0522
 21
71.7735
  0
LINE
  8
0
 10
12.0522
 20
71.7735
 11
12.4969
 21
71.4272
  0
LINE
  8
0
 10
12.4969
 20
71.4272
 11
12.6816
 21
70.9755
  0
LINE
  8
0
 10
12.6816
 20
70.9755
 11
13.0699
 21
70.8443
  0
LINE
  8
0
 10
13.0699
 20
70.8443
 11
13.1577
 21
69.9089
  0
LINE
  8
0
 10
13.1577
 20
69.9089
 11
13.7894
 21
70.0752
  0
LINE
  8
0
 10
13.7894
 20
70.0752
 11
13.8428
 21
68.869
  0
LINE
  8
0
 10
13.8428
 20
68.869
 11
13.6047
 21
67.6338
  0
LINE
  8
0
 10
13.6047
 20
67.6338
 11
14.6759
 21
68.4677
  0
LINE
  8
0
 10
14.6759
 20
68.4677
 11
14.9284
 21
68.4853
  0
LINE
  8
0
 10
14.9284
 20
68.4853
 11
15.1588
 21
68.1633
  0
LINE
  8
0
 10
15.1588
 20
68.1633
 11
15.7372
 21
68.5448
  0
LINE
  8
0
 10
15.7372
 20
68.5448
 11
17.0013
 21
68.6646
  0
LINE
  8
0
 10
17.0013
 20
68.6646
 11
16.716
 21
67.63
  0
LINE
  8
0
 10
16.716
 20
67.63
 11
16.2849
 21
67.1806
  0
LINE
  8
0
 10
16.2849
 20
67.1806
 11
16.5054
 21
66.9739
  0
LINE
  8
0
 10
16.5054
 20
66.9739
 11
16.3681
 21
66.6275
  0
LINE
  8
0
 10
16.3681
 20
66.6275
 11
14.7652
 21
65.6265
  0
LINE
  8
0
 10
14.7652
 20
65.6265
 11
15.2115
 21
65.4861
  0
LINE
  8
0
 10
15.2115
 20
65.4861
 11
15.3381
 21
65.5701
  0
LINE
  8
0
 10
15.3381
 20
65.5701
 11
15.3343
 21
65.4762
  0
LINE
  8
0
 10
15.3343
 20
65.4762
 11
16.2468
 21
65.9721
  0
LINE
  8
0
 10
16.2468
 20
65.9721
 11
16.9144
 21
66.0896
  0
LINE
  8
0
 10
16.9144
 20
66.0896
 11
17.2897
 21
65.7883
  0
LINE
  8
0
 10
17.2897
 20
65.7883
 11
18.6668
 21
65.5533
  0
LINE
  8
0
 10
18.6668
 20
65.5533
 11
17.8001
 21
64.6408
  0
LINE
  8
0
 10
17.8001
 20
64.6408
 11
17.6735
 21
64.0228
  0
LINE
  8
0
 10
17.6735
 20
64.0228
 11
16.5947
 21
63.475
  0
LINE
  8
0
 10
16.5947
 20
63.475
 11
18.6844
 21
62.2734
  0
LINE
  8
0
 10
18.6844
 20
62.2734
 11
18.4441
 21
61.9392
  0
LINE
  8
0
 10
18.4441
 20
61.9392
 11
18.9781
 21
61.5555
  0
LINE
  8
0
 10
18.9781
 20
61.5555
 11
18.9186
 21
61.2251
  0
LINE
  8
0
 10
18.9186
 20
61.2251
 11
19.529
 21
60.3767
  0
LINE
  8
0
 10
19.529
 20
60.3767
 11
19.0063
 21
60.1624
  0
LINE
  8
0
 10
19.0063
 20
60.1624
 11
18.5226
 21
60.2287
  0
LINE
  8
0
 10
18.5226
 20
60.2287
 11
18.2152
 21
59.9594
  0
LINE
  8
0
 10
18.2152
 20
59.9594
 11
17.3607
 21
60.3493
  0
LINE
  8
0
 10
17.3607
 20
60.3493
 11
17.1898
 21
59.7191
  0
LINE
  8
0
 10
17.1898
 20
59.7191
 11
16.1201
 21
60.2753
  0
LINE
  8
0
 10
16.1201
 20
60.2753
 11
15.1665
 21
61.1
  0
LINE
  8
0
 10
15.1665
 20
61.1
 11
15.3519
 21
59.7534
  0
LINE
  8
0
 10
15.3519
 20
59.7534
 11
15.2428
 21
59.5299
  0
LINE
  8
0
 10
15.2428
 20
59.5299
 11
14.8491
 21
59.491
  0
LINE
  8
0
 10
14.8491
 20
59.491
 11
14.8895
 21
58.7975
  0
LINE
  8
0
 10
14.8895
 20
58.7975
 11
14.3616
 21
57.6424
  0
LINE
  8
0
 10
14.3616
 20
57.6424
 11
13.607
 21
58.4099
  0
LINE
  8
0
 10
12.5
 20
63.3339
 11
13.2347
 21
63.8954
  0
LINE
  8
0
 10
13.2347
 20
63.8954
 11
13.282
 21
64.3661
  0
LINE
  8
0
 10
13.282
 20
64.3661
 11
13.0028
 21
64.2075
  0
LINE
  8
0
 10
13.0028
 20
64.2075
 11
12.1536
 21
64.5607
  0
LINE
  8
0
 10
12.1536
 20
64.5607
 11
11.7195
 21
64.3661
  0
LINE
  8
0
 10
11.7195
 20
64.3661
 11
11.9949
 21
64.2067
  0
LINE
  8
0
 10
11.9949
 20
64.2067
 11
12.1155
 21
63.2919
  0
LINE
  8
0
 10
12.1155
 20
63.2919
 11
12.4992
 21
63.015
  0
LINE
  8
0
 10
12.4992
 20
63.015
 11
12.5
 21
63.3339
  0
LINE
  8
0
 10
-36.393
 20
58.4099
 11
-36.5654
 21
59.005
  0
LINE
  8
0
 10
-36.5654
 20
59.005
 11
-36.8568
 21
58.9188
  0
LINE
  8
0
 10
-36.8568
 20
58.9188
 11
-37.0842
 21
59.2102
  0
LINE
  8
0
 10
-37.0842
 20
59.2102
 11
-37.1521
 21
61.0985
  0
LINE
  8
0
 10
-37.1521
 20
61.0985
 11
-37.5008
 21
60.7796
  0
LINE
  8
0
 10
-37.5008
 20
60.7796
 11
-37.5008
 21
60.6445
  0
LINE
  8
0
 10
-37.5008
 20
60.6445
 11
-37.5671
 21
60.6834
  0
LINE
  8
0
 10
-37.5671
 20
60.6834
 11
-37.5931
 21
59.642
  0
LINE
  8
0
 10
-37.5931
 20
59.642
 11
-37.8242
 21
59.0073
  0
LINE
  8
0
 10
-37.8242
 20
59.0073
 11
-38.2706
 21
58.831
  0
LINE
  8
0
 10
-38.2706
 20
58.831
 11
-39.1663
 21
57.7583
  0
LINE
  8
0
 10
-39.1663
 20
57.7583
 11
-39.5233
 21
58.9615
  0
LINE
  8
0
 10
-39.5233
 20
58.9615
 11
-39.9948
 21
59.3834
  0
LINE
  8
0
 10
-39.9948
 20
59.3834
 11
-39.9292
 21
60.5911
  0
LINE
  8
0
 10
-39.9292
 20
60.5911
 11
-42.0151
 21
59.3803
  0
LINE
  8
0
 10
-42.0151
 20
59.3803
 11
-42.1844
 21
59.7565
  0
LINE
  8
0
 10
-42.1844
 20
59.7565
 11
-42.7826
 21
59.4833
  0
LINE
  8
0
 10
-42.7826
 20
59.4833
 11
-42.9965
 21
59.6639
  0
LINE
  8
0
 10
-42.9965
 20
59.6639
 11
-41.9886
 21
62.7659
  0
LINE
  8
0
 10
-41.9886
 20
62.7659
 11
-41.2704
 21
63.0135
  0
LINE
  8
0
 10
-41.2704
 20
63.0135
 11
-41.8338
 21
63.2423
  0
LINE
  8
0
 10
-41.8338
 20
63.2423
 11
-41.0873
 21
65.5398
  0
LINE
  8
0
 10
-41.0873
 20
65.5398
 11
-40.1146
 21
65.023
  0
LINE
  8
0
 10
-40.1146
 20
65.023
 11
-40.2191
 21
65.4991
  0
LINE
  8
0
 10
-40.2191
 20
65.4991
 11
-40.2954
 21
65.5762
  0
LINE
  8
0
 10
-40.2954
 20
65.5762
 11
-40.2679
 21
65.5907
  0
LINE
  8
0
 10
-40.2679
 20
65.5907
 11
-40.9379
 21
65.9995
  0
LINE
  8
0
 10
-40.9379
 20
65.9995
 11
-40.1769
 21
68.3417
  0
LINE
  8
0
 10
-40.1769
 20
68.3417
 11
-39.1647
 21
67.6826
  0
LINE
  8
0
 10
-39.1647
 20
67.6826
 11
-39.1708
 21
70.0943
  0
LINE
  8
0
 10
-39.1708
 20
70.0943
 11
-38.7604
 21
70.0508
  0
LINE
  8
0
 10
-38.7604
 20
70.0508
 11
-38.6948
 21
70.7069
  0
LINE
  8
0
 10
-38.6948
 20
70.7069
 11
-38.3774
 21
70.8199
  0
LINE
  8
0
 10
-38.3774
 20
70.8199
 11
-37.9478
 21
71.7735
  0
LINE
  8
0
 10
-37.9478
 20
71.7735
 11
-37.5031
 21
71.4272
  0
LINE
  8
0
 10
-37.5031
 20
71.4272
 11
-37.3184
 21
70.9755
  0
LINE
  8
0
 10
-37.3184
 20
70.9755
 11
-36.9301
 21
70.8443
  0
LINE
  8
0
 10
-36.9301
 20
70.8443
 11
-36.8423
 21
69.9089
  0
LINE
  8
0
 10
-36.8423
 20
69.9089
 11
-36.2106
 21
70.0752
  0
LINE
  8
0
 10
-36.2106
 20
70.0752
 11
-36.1572
 21
68.869
  0
LINE
  8
0
 10
-36.1572
 20
68.869
 11
-36.3953
 21
67.6338
  0
LINE
  8
0
 10
-36.3953
 20
67.6338
 11
-35.3241
 21
68.4677
  0
LINE
  8
0
 10
-35.3241
 20
68.4677
 11
-35.0716
 21
68.4853
  0
LINE
  8
0
 10
-35.0716
 20
68.4853
 11
-34.8412
 21
68.1633
  0
LINE
  8
0
 10
-34.8412
 20
68.1633
 11
-34.2628
 21
68.5448
  0
LINE
  8
0
 10
-34.2628
 20
68.5448
 11
-32.9987
 21
68.6646
  0
LINE
  8
0
 10
-32.9987
 20
68.6646
 11
-33.284
 21
67.63
  0
LINE
  8
0
 10
-33.284
 20
67.63
 11
-33.7151
 21
67.1806
  0
LINE
  8
0
 10
-33.7151
 20
67.1806
 11
-33.4946
 21
66.9739
  0
LINE
  8
0
 10
-33.4946
 20
66.9739
 11
-33.6319
 21
66.6275
  0
LINE
  8
0
 10
-33.6319
 20
66.6275
 11
-35.2348
 21
65.6265
  0
LINE
  8
0
 10
-35.2348
 20
65.6265
 11
-34.7885
 21
65.4861
  0
LINE
  8
0
 10
-34.7885
 20
65.4861
 11
-34.6619
 21
65.5701
  0
LINE
  8
0
 10
-34.6619
 20
65.5701
 11
-34.6657
 21
65.4762
  0
LINE
  8
0
 10
-34.6657
 20
65.4762
 11
-33.7532
 21
65.9721
  0
LINE
  8
0
 10
-33.7532
 20
65.9721
 11
-33.0856
 21
66.0896
  0
LINE
  8
0
 10
-33.0856
 20
66.0896
 11
-32.7103
 21
65.7883
  0
LINE
  8
0
 10
-32.7103
 20
65.7883
 11
-31.3332
 21
65.5533
  0
LINE
  8
0
 10
-31.3332
 20
65.5533
 11
-32.1999
 21
64.6408
  0
LINE
  8
0
 10
-32.1999
 20
64.6408
 11
-32.3265
 21
64.0228
  0
LINE
  8
0
 10
-32.3265
 20
64.0228
 11
-33.4053
 21
63.475
  0
LINE
  8
0
 10
-33.4053
 20
63.475
 11
-31.3156
 21
62.2734
  0
LINE
  8
0
 10
-31.3156
 20
62.2734
 11
-31.5559
 21
61.9392
  0
LINE
  8
0
 10
-31.5559
 20
61.9392
 11
-31.0219
 21
61.5555
  0
LINE
  8
0
 10
-31.0219
 20
61.5555
 11
-31.0814
 21
61.2251
  0
LINE
  8
0
 10
-31.0814
 20
61.2251
 11
-30.471
 21
60.3767
  0
LINE
  8
0
 10
-30.471
 20
60.3767
 11
-30.9937
 21
60.1624
  0
LINE
  8
0
 10
-30.9937
 20
60.1624
 11
-31.4774
 21
60.2287
  0
LINE
  8
0
 10
-31.4774
 20
60.2287
 11
-31.7848
 21
59.9594
  0
LINE
  8
0
 10
-31.7848
 20
59.9594
 11
-32.6393
 21
60.3493
  0
LINE
  8
0
 10
-32.6393
 20
60.3493
 11
-32.8102
 21
59.7191
  0
LINE
  8
0
 10
-32.8102
 20
59.7191
 11
-33.8799
 21
60.2753
  0
LINE
  8
0
 10
-33.8799
 20
60.2753
 11
-34.8335
 21
61.1
  0
LINE
  8
0
 10
-34.8335
 20
61.1
 11
-34.6481
 21
59.7534
  0
LINE
  8
0
 10
-34.6481
 20
59.7534
 11
-34.7572
 21
59.5299
  0
LINE
  8
0
 10
-34.7572
 20
59.5299
 11
-35.1509
 21
59.491
  0
LINE
  8
0
 10
-35.1509
 20
59.491
 11
-35.1105
 21
58.7975
  0
LINE
  8
0
 10
-35.1105
 20
58.7975
 11
-35.6384
 21
57.6424
  0
LINE
  8
0
 10
-35.6384
 20
57.6424
 11
-36.393
 21
58.4099
  0
LINE
  8
0
 10
-37.5
 20
63.3339
 11
-36.7653
 21
63.8954
  0
LINE
  8
0
 10
-36.7653
 20
63.8954
 11
-36.718
 21
64.3661
  0
LINE
  8
0
 10
-36.718
 20
64.3661
 11
-36.9972
 21
64.2075
  0
LINE
  8
0
 10
-36.9972
 20
64.2075
 11
-37.8464
 21
64.5607
  0
LINE
  8
0
 10
-37.8464
 20
64.5607
 11
-38.2805
 21
64.3661
  0
LINE
  8
0
 10
-38.2805
 20
64.3661
 11
-38.0051
 21
64.2067
  0
LINE
  8
0
 10
-38.0051
 20
64.2067
 11
-37.8845
 21
63.2919
  0
LINE
  8
0
 10
-37.8845
 20
63.2919
 11
-37.5008
 21
63.015
  0
LINE
  8
0
 10
-37.5008
 20
63.015
 11
-37.5
 21
63.3339
  0
LINE
  8
0
 10
37.5031
 20
41.9716
 11
37.3184
 21
42.4232
  0
LINE
  8
0
 10
37.3184
 20
42.4232
 11
36.9301
 21
42.5545
  0
LINE
  8
0
 10
36.9301
 20
42.5545
 11
36.8423
 21
43.4898
  0
LINE
  8
0
 10
36.8423
 20
43.4898
 11
36.2106
 21
43.3235
  0
LINE
  8
0
 10
36.2106
 20
43.3235
 11
36.1572
 21
44.5297
  0
LINE
  8
0
 10
36.1572
 20
44.5297
 11
36.3953
 21
45.7649
  0
LINE
  8
0
 10
36.3953
 20
45.7649
 11
35.3241
 21
44.931
  0
LINE
  8
0
 10
35.3241
 20
44.931
 11
35.0716
 21
44.9135
  0
LINE
  8
0
 10
35.0716
 20
44.9135
 11
34.8412
 21
45.2354
  0
LINE
  8
0
 10
34.8412
 20
45.2354
 11
34.2628
 21
44.854
  0
LINE
  8
0
 10
34.2628
 20
44.854
 11
32.9987
 21
44.7342
  0
LINE
  8
0
 10
32.9987
 20
44.7342
 11
33.284
 21
45.7687
  0
LINE
  8
0
 10
33.284
 20
45.7687
 11
33.7151
 21
46.2181
  0
LINE
  8
0
 10
33.7151
 20
46.2181
 11
33.4946
 21
46.4249
  0
LINE
  8
0
 10
33.4946
 20
46.4249
 11
33.6319
 21
46.7712
  0
LINE
  8
0
 10
33.6319
 20
46.7712
 11
35.2348
 21
47.7722
  0
LINE
  8
0
 10
35.2348
 20
47.7722
 11
34.7885
 21
47.9126
  0
LINE
  8
0
 10
34.7885
 20
47.9126
 11
34.6619
 21
47.8287
  0
LINE
  8
0
 10
34.6619
 20
47.8287
 11
34.6657
 21
47.9225
  0
LINE
  8
0
 10
34.6657
 20
47.9225
 11
33.7532
 21
47.4266
  0
LINE
  8
0
 10
33.7532
 20
47.4266
 11
33.0856
 21
47.3091
  0
LINE
  8
0
 10
33.0856
 20
47.3091
 11
32.7103
 21
47.6105
  0
LINE
  8
0
 10
32.7103
 20
47.6105
 11
31.3332
 21
47.8455
  0
LINE
  8
0
 10
31.3332
 20
47.8455
 11
32.1999
 21
48.7579
  0
LINE
  8
0
 10
32.1999
 20
48.7579
 11
32.3265
 21
49.3759
  0
LINE
  8
0
 10
32.3265
 20
49.3759
 11
33.4053
 21
49.9237
  0
LINE
  8
0
 10
33.4053
 20
49.9237
 11
31.3156
 21
51.1253
  0
LINE
  8
0
 10
31.3156
 20
51.1253
 11
31.5559
 21
51.4595
  0
LINE
  8
0
 10
31.5559
 20
51.4595
 11
31.0219
 21
51.8433
  0
LINE
  8
0
 10
31.0219
 20
51.8433
 11
31.0814
 21
52.1736
  0
LINE
  8
0
 10
31.0814
 20
52.1736
 11
30.471
 21
53.022
  0
LINE
  8
0
 10
30.471
 20
53.022
 11
30.9937
 21
53.2364
  0
LINE
  8
0
 10
30.9937
 20
53.2364
 11
31.4774
 21
53.17
  0
LINE
  8
0
 10
31.4774
 20
53.17
 11
31.7848
 21
53.4393
  0
LINE
  8
0
 10
31.7848
 20
53.4393
 11
32.6393
 21
53.0495
  0
LINE
  8
0
 10
32.6393
 20
53.0495
 11
32.8102
 21
53.6797
  0
LINE
  8
0
 10
32.8102
 20
53.6797
 11
33.8799
 21
53.1235
  0
LINE
  8
0
 10
33.8799
 20
53.1235
 11
34.8335
 21
52.2987
  0
LINE
  8
0
 10
34.8335
 20
52.2987
 11
34.6481
 21
53.6453
  0
LINE
  8
0
 10
34.6481
 20
53.6453
 11
34.7572
 21
53.8689
  0
LINE
  8
0
 10
34.7572
 20
53.8689
 11
35.1509
 21
53.9078
  0
LINE
  8
0
 10
35.1509
 20
53.9078
 11
35.1105
 21
54.6013
  0
LINE
  8
0
 10
35.1105
 20
54.6013
 11
35.6384
 21
55.7564
  0
LINE
  8
0
 10
35.6384
 20
55.7564
 11
36.393
 21
54.9889
  0
LINE
  8
0
 10
36.393
 20
54.9889
 11
36.5654
 21
54.3938
  0
LINE
  8
0
 10
36.5654
 20
54.3938
 11
36.8568
 21
54.48
  0
LINE
  8
0
 10
36.8568
 20
54.48
 11
37.0842
 21
54.1885
  0
LINE
  8
0
 10
37.0842
 20
54.1885
 11
37.1521
 21
52.3003
  0
LINE
  8
0
 10
37.1521
 20
52.3003
 11
37.5008
 21
52.6192
  0
LINE
  8
0
 10
37.5008
 20
52.6192
 11
37.5008
 21
52.7542
  0
LINE
  8
0
 10
37.5008
 20
52.7542
 11
37.5671
 21
52.7153
  0
LINE
  8
0
 10
37.5671
 20
52.7153
 11
37.5931
 21
53.7567
  0
LINE
  8
0
 10
37.5931
 20
53.7567
 11
37.8242
 21
54.3915
  0
LINE
  8
0
 10
37.8242
 20
54.3915
 11
38.2706
 21
54.5677
  0
LINE
  8
0
 10
38.2706
 20
54.5677
 11
39.1663
 21
55.6404
  0
LINE
  8
0
 10
39.1663
 20
55.6404
 11
39.5233
 21
54.4373
  0
LINE
  8
0
 10
39.5233
 20
54.4373
 11
39.9948
 21
54.0154
  0
LINE
  8
0
 10
39.9948
 20
54.0154
 11
39.9292
 21
52.8076
  0
LINE
  8
0
 10
39.9292
 20
52.8076
 11
42.0151
 21
54.0184
  0
LINE
  8
0
 10
42.0151
 20
54.0184
 11
42.1844
 21
53.6423
  0
LINE
  8
0
 10
42.1844
 20
53.6423
 11
42.7826
 21
53.9154
  0
LINE
  8
0
 10
42.7826
 20
53.9154
 11
43.042
 21
53.6964
  0
LINE
  8
0
 10
43.042
 20
53.6964
 11
44.0796
 21
53.801
  0
LINE
  8
0
 10
44.0796
 20
53.801
 11
44.0041
 21
53.2417
  0
LINE
  8
0
 10
44.0041
 20
53.2417
 11
43.705
 21
52.8549
  0
LINE
  8
0
 10
43.705
 20
52.8549
 11
43.7843
 21
52.4544
  0
LINE
  8
0
 10
43.7843
 20
52.4544
 11
43.0191
 21
51.9096
  0
LINE
  8
0
 10
43.0191
 20
51.9096
 11
43.4799
 21
51.4458
  0
LINE
  8
0
 10
43.4799
 20
51.4458
 11
42.4591
 21
50.795
  0
LINE
  8
0
 10
42.4591
 20
50.795
 11
41.2704
 21
50.3853
  0
LINE
  8
0
 10
41.2704
 20
50.3853
 11
42.5285
 21
49.8741
  0
LINE
  8
0
 10
42.5285
 20
49.8741
 11
42.6697
 21
49.6658
  0
LINE
  8
0
 10
42.6697
 20
49.6658
 11
42.5087
 21
49.3042
  0
LINE
  8
0
 10
42.5087
 20
49.3042
 11
43.1274
 21
48.996
  0
LINE
  8
0
 10
43.1274
 20
48.996
 11
43.8622
 21
47.9599
  0
LINE
  8
0
 10
43.8622
 20
47.9599
 11
42.8207
 21
47.6891
  0
LINE
  8
0
 10
42.8207
 20
47.6891
 11
42.2203
 21
47.8378
  0
LINE
  8
0
 10
42.2203
 20
47.8378
 11
42.1501
 21
47.5426
  0
LINE
  8
0
 10
42.1501
 20
47.5426
 11
41.7847
 21
47.4884
  0
LINE
  8
0
 10
41.7847
 20
47.4884
 11
40.1146
 21
48.3757
  0
LINE
  8
0
 10
40.1146
 20
48.3757
 11
40.2191
 21
47.8996
  0
LINE
  8
0
 10
40.2191
 20
47.8996
 11
40.2954
 21
47.8226
  0
LINE
  8
0
 10
40.2954
 20
47.8226
 11
40.2679
 21
47.8081
  0
LINE
  8
0
 10
40.2679
 20
47.8081
 11
41.1545
 21
47.2672
  0
LINE
  8
0
 10
41.1545
 20
47.2672
 11
41.5871
 21
46.7484
  0
LINE
  8
0
 10
41.5871
 20
46.7484
 11
41.5176
 21
46.2685
  0
LINE
  8
0
 10
41.5176
 20
46.2685
 11
42.0013
 21
44.9593
  0
LINE
  8
0
 10
42.0013
 20
44.9593
 11
40.7822
 21
45.253
  0
LINE
  8
0
 10
40.7822
 20
45.253
 11
40.1772
 21
45.0569
  0
LINE
  8
0
 10
40.1772
 20
45.0569
 11
39.1647
 21
45.7161
  0
LINE
  8
0
 10
39.1647
 20
45.7161
 11
39.1708
 21
43.3044
  0
LINE
  8
0
 10
39.1708
 20
43.3044
 11
38.7604
 21
43.3479
  0
LINE
  8
0
 10
38.7604
 20
43.3479
 11
38.6948
 21
42.6918
  0
LINE
  8
0
 10
38.6948
 20
42.6918
 11
38.3774
 21
42.5789
  0
LINE
  8
0
 10
38.3774
 20
42.5789
 11
37.9478
 21
41.6252
  0
LINE
  8
0
 10
37.9478
 20
41.6252
 11
37.5031
 21
41.9716
  0
LINE
  8
0
 10
38.2805
 20
49.0326
 11
38.0051
 21
49.192
  0
LINE
  8
0
 10
38.0051
 20
49.192
 11
37.8845
 21
50.1068
  0
LINE
  8
0
 10
37.8845
 20
50.1068
 11
37.5008
 21
50.3838
  0
LINE
  8
0
 10
37.5008
 20
50.3838
 11
37.5
 21
50.0648
  0
LINE
  8
0
 10
37.5
 20
50.0648
 11
36.7653
 21
49.5033
  0
LINE
  8
0
 10
36.7653
 20
49.5033
 11
36.718
 21
49.0326
  0
LINE
  8
0
 10
36.718
 20
49.0326
 11
36.9972
 21
49.1913
  0
LINE
  8
0
 10
36.9972
 20
49.1913
 11
37.8464
 21
48.838
  0
LINE
  8
0
 10
37.8464
 20
48.838
 11
38.2805
 21
49.0326
  0
LINE
  8
0
 10
-12.4969
 20
41.9716
 11
-12.6816
 21
42.4232
  0
LINE
  8
0
 10
-12.6816
 20
42.4232
 11
-13.0699
 21
42.5545
  0
LINE
  8
0
 10
-13.0699
 20
42.5545
 11
-13.1577
 21
43.4898
  0
LINE
  8
0
 10
-13.1577
 20
43.4898
 11
-13.7894
 21
43.3235
  0
LINE
  8
0
 10
-13.7894
 20
43.3235
 11
-13.8428
 21
44.5297
  0
LINE
  8
0
 10
-13.8428
 20
44.5297
 11
-13.6047
 21
45.7649
  0
LINE
  8
0
 10
-13.6047
 20
45.7649
 11
-14.6759
 21
44.931
  0
LINE
  8
0
 10
-14.6759
 20
44.931
 11
-14.9284
 21
44.9135
  0
LINE
  8
0
 10
-14.9284
 20
44.9135
 11
-15.1588
 21
45.2354
  0
LINE
  8
0
 10
-15.1588
 20
45.2354
 11
-15.7372
 21
44.854
  0
LINE
  8
0
 10
-15.7372
 20
44.854
 11
-17.0013
 21
44.7342
  0
LINE
  8
0
 10
-17.0013
 20
44.7342
 11
-16.716
 21
45.7687
  0
LINE
  8
0
 10
-16.716
 20
45.7687
 11
-16.2849
 21
46.2181
  0
LINE
  8
0
 10
-16.2849
 20
46.2181
 11
-16.5054
 21
46.4249
  0
LINE
  8
0
 10
-16.5054
 20
46.4249
 11
-16.3681
 21
46.7712
  0
LINE
  8
0
 10
-16.3681
 20
46.7712
 11
-14.7652
 21
47.7722
  0
LINE
  8
0
 10
-14.7652
 20
47.7722
 11
-15.2115
 21
47.9126
  0
LINE
  8
0
 10
-15.2115
 20
47.9126
 11
-15.3381
 21
47.8287
  0
LINE
  8
0
 10
-15.3381
 20
47.8287
 11
-15.3343
 21
47.9225
  0
LINE
  8
0
 10
-15.3343
 20
47.9225
 11
-16.2468
 21
47.4266
  0
LINE
  8
0
 10
-16.2468
 20
47.4266
 11
-16.9144
 21
47.3091
  0
LINE
  8
0
 10
-16.9144
 20
47.3091
 11
-17.2897
 21
47.6105
  0
LINE
  8
0
 10
-17.2897
 20
47.6105
 11
-18.6668
 21
47.8455
  0
LINE
  8
0
 10
-18.6668
 20
47.8455
 11
-17.8001
 21
48.7579
  0
LINE
  8
0
 10
-17.8001
 20
48.7579
 11
-17.6735
 21
49.3759
  0
LINE
  8
0
 10
-17.6735
 20
49.3759
 11
-16.5947
 21
49.9237
  0
LINE
  8
0
 10
-16.5947
 20
49.9237
 11
-18.6844
 21
51.1253
  0
LINE
  8
0
 10
-18.6844
 20
51.1253
 11
-18.4441
 21
51.4595
  0
LINE
  8
0
 10
-18.4441
 20
51.4595
 11
-18.9781
 21
51.8433
  0
LINE
  8
0
 10
-18.9781
 20
51.8433
 11
-18.9186
 21
52.1736
  0
LINE
  8
0
 10
-18.9186
 20
52.1736
 11
-19.529
 21
53.022
  0
LINE
  8
0
 10
-19.529
 20
53.022
 11
-19.0063
 21
53.2364
  0
LINE
  8
0
 10
-19.0063
 20
53.2364
 11
-18.5226
 21
53.17
  0
LINE
  8
0
 10
-18.5226
 20
53.17
 11
-18.2152
 21
53.4393
  0
LINE
  8
0
 10
-18.2152
 20
53.4393
 11
-17.3607
 21
53.0495
  0
LINE
  8
0
 10
-17.3607
 20
53.0495
 11
-17.1898
 21
53.6797
  0
LINE
  8
0
 10
-17.1898
 20
53.6797
 11
-16.1201
 21
53.1235
  0
LINE
  8
0
 10
-16.1201
 20
53.1235
 11
-15.1665
 21
52.2987
  0
LINE
  8
0
 10
-15.1665
 20
52.2987
 11
-15.3519
 21
53.6453
  0
LINE
  8
0
 10
-15.3519
 20
53.6453
 11
-15.2428
 21
53.8689
  0
LINE
  8
0
 10
-15.2428
 20
53.8689
 11
-14.8491
 21
53.9078
  0
LINE
  8
0
 10
-14.8491
 20
53.9078
 11
-14.8895
 21
54.6013
  0
LINE
  8
0
 10
-14.8895
 20
54.6013
 11
-14.3616
 21
55.7564
  0
LINE
  8
0
 10
-14.3616
 20
55.7564
 11
-13.607
 21
54.9889
  0
LINE
  8
0
 10
-13.607
 20
54.9889
 11
-13.4346
 21
54.3938
  0
LINE
  8
0
 10
-13.4346
 20
54.3938
 11
-13.1432
 21
54.48
  0
LINE
  8
0
 10
-13.1432
 20
54.48
 11
-12.9158
 21
54.1885
  0
LINE
  8
0
 10
-12.9158
 20
54.1885
 11
-12.8479
 21
52.3003
  0
LINE
  8
0
 10
-12.8479
 20
52.3003
 11
-12.4992
 21
52.6192
  0
LINE
  8
0
 10
-12.4992
 20
52.6192
 11
-12.4992
 21
52.7542
  0
LINE
  8
0
 10
-12.4992
 20
52.7542
 11
-12.4329
 21
52.7153
  0
LINE
  8
0
 10
-12.4329
 20
52.7153
 11
-12.4069
 21
53.7567
  0
LINE
  8
0
 10
-12.4069
 20
53.7567
 11
-12.1758
 21
54.3915
  0
LINE
  8
0
 10
-12.1758
 20
54.3915
 11
-11.7294
 21
54.5677
  0
LINE
  8
0
 10
-11.7294
 20
54.5677
 11
-10.8337
 21
55.6404
  0
LINE
  8
0
 10
-10.8337
 20
55.6404
 11
-10.4767
 21
54.4373
  0
LINE
  8
0
 10
-10.4767
 20
54.4373
 11
-10.0052
 21
54.0154
  0
LINE
  8
0
 10
-10.0052
 20
54.0154
 11
-10.0708
 21
52.8076
  0
LINE
  8
0
 10
-10.0708
 20
52.8076
 11
-7.98492
 21
54.0184
  0
LINE
  8
0
 10
-7.98492
 20
54.0184
 11
-7.81555
 21
53.6423
  0
LINE
  8
0
 10
-7.81555
 20
53.6423
 11
-7.21741
 21
53.9154
  0
LINE
  8
0
 10
-7.21741
 20
53.9154
 11
-6.95801
 21
53.6964
  0
LINE
  8
0
 10
-6.95801
 20
53.6964
 11
-5.92041
 21
53.801
  0
LINE
  8
0
 10
-5.92041
 20
53.801
 11
-5.99594
 21
53.2417
  0
LINE
  8
0
 10
-5.99594
 20
53.2417
 11
-6.29501
 21
52.8549
  0
LINE
  8
0
 10
-6.29501
 20
52.8549
 11
-6.21567
 21
52.4544
  0
LINE
  8
0
 10
-6.21567
 20
52.4544
 11
-6.9809
 21
51.9096
  0
LINE
  8
0
 10
-6.9809
 20
51.9096
 11
-6.52008
 21
51.4458
  0
LINE
  8
0
 10
-6.52008
 20
51.4458
 11
-7.54089
 21
50.795
  0
LINE
  8
0
 10
-7.54089
 20
50.795
 11
-8.72955
 21
50.3853
  0
LINE
  8
0
 10
-8.72955
 20
50.3853
 11
-7.47147
 21
49.8741
  0
LINE
  8
0
 10
-7.47147
 20
49.8741
 11
-7.33032
 21
49.6658
  0
LINE
  8
0
 10
-7.33032
 20
49.6658
 11
-7.4913
 21
49.3042
  0
LINE
  8
0
 10
-7.4913
 20
49.3042
 11
-6.87256
 21
48.996
  0
LINE
  8
0
 10
-6.87256
 20
48.996
 11
-6.13785
 21
47.9599
  0
LINE
  8
0
 10
-6.13785
 20
47.9599
 11
-7.17926
 21
47.6891
  0
LINE
  8
0
 10
-7.17926
 20
47.6891
 11
-7.77969
 21
47.8378
  0
LINE
  8
0
 10
-7.77969
 20
47.8378
 11
-7.84988
 21
47.5426
  0
LINE
  8
0
 10
-7.84988
 20
47.5426
 11
-8.21533
 21
47.4884
  0
LINE
  8
0
 10
-8.21533
 20
47.4884
 11
-9.88541
 21
48.3757
  0
LINE
  8
0
 10
-9.88541
 20
48.3757
 11
-9.78088
 21
47.8996
  0
LINE
  8
0
 10
-9.78088
 20
47.8996
 11
-9.70459
 21
47.8226
  0
LINE
  8
0
 10
-9.70459
 20
47.8226
 11
-9.73206
 21
47.8081
  0
LINE
  8
0
 10
-9.73206
 20
47.8081
 11
-8.84552
 21
47.2672
  0
LINE
  8
0
 10
-8.84552
 20
47.2672
 11
-8.41293
 21
46.7484
  0
LINE
  8
0
 10
-8.41293
 20
46.7484
 11
-8.48236
 21
46.2685
  0
LINE
  8
0
 10
-8.48236
 20
46.2685
 11
-7.99866
 21
44.9593
  0
LINE
  8
0
 10
-7.99866
 20
44.9593
 11
-9.21783
 21
45.253
  0
LINE
  8
0
 10
-9.21783
 20
45.253
 11
-9.82285
 21
45.0569
  0
LINE
  8
0
 10
-9.82285
 20
45.0569
 11
-10.8353
 21
45.7161
  0
LINE
  8
0
 10
-10.8353
 20
45.7161
 11
-10.8292
 21
43.3044
  0
LINE
  8
0
 10
-10.8292
 20
43.3044
 11
-11.2396
 21
43.3479
  0
LINE
  8
0
 10
-11.2396
 20
43.3479
 11
-11.3052
 21
42.6918
  0
LINE
  8
0
 10
-11.3052
 20
42.6918
 11
-11.6226
 21
42.5789
  0
LINE
  8
0
 10
-11.6226
 20
42.5789
 11
-12.0522
 21
41.6252
  0
LINE
  8
0
 10
-12.0522
 20
41.6252
 11
-12.4969
 21
41.9716
  0
LINE
  8
0
 10
-11.7195
 20
49.0326
 11
-11.9949
 21
49.192
  0
LINE
  8
0
 10
-11.9949
 20
49.192
 11
-12.1155
 21
50.1068
  0
LINE
  8
0
 10
-12.1155
 20
50.1068
 11
-12.4992
 21
50.3838
  0
LINE
  8
0
 10
-12.4992
 20
50.3838
 11
-12.5
 21
50.0648
  0
LINE
  8
0
 10
-12.5
 20
50.0648
 11
-13.2347
 21
49.5033
  0
LINE
  8
0
 10
-13.2347
 20
49.5033
 11
-13.282
 21
49.0326
  0
LINE
  8
0
 10
-13.282
 20
49.0326
 11
-13.0028
 21
49.1913
  0
LINE
  8
0
 10
-13.0028
 20
49.1913
 11
-12.1536
 21
48.838
  0
LINE
  8
0
 10
-12.1536
 20
48.838
 11
-11.7195
 21
49.0326
  0
LINE
  8
0
 10
-48.8068
 20
35.0479
 11
-48.8434
 21
35.8696
  0
LINE
  8
0
 10
-48.8434
 20
35.8696
 11
-48.6053
 21
37.1048
  0
LINE
  8
0
 10
-48.6053
 20
37.1048
 11
-49.6765
 21
36.2709
  0
LINE
  8
0
 10
-49.6765
 20
36.2709
 11
-49.9283
 21
36.2526
  0
LINE
  8
0
 10
-49.9283
 20
36.2526
 11
-50.1587
 21
36.5746
  0
LINE
  8
0
 10
-50.1587
 20
36.5746
 11
-50.5914
 21
36.2891
  0
LINE
  8
0
 10
-50.5914
 20
36.2891
 11
-49.0695
 21
40.973
  0
LINE
  8
0
 10
-49.0695
 20
40.973
 11
-47.1542
 21
40.1779
  0
LINE
  8
0
 10
-47.1542
 20
40.1779
 11
-46.7209
 21
40.3717
  0
LINE
  8
0
 10
-46.7209
 20
40.3717
 11
-46.9963
 21
40.5319
  0
LINE
  8
0
 10
-46.9963
 20
40.5319
 11
-47.1169
 21
41.4467
  0
LINE
  8
0
 10
-47.1169
 20
41.4467
 11
-48.5062
 21
42.45
  0
LINE
  8
0
 10
-48.5062
 20
42.45
 11
-48.5635
 21
42.5304
  0
LINE
  8
0
 10
-48.5635
 20
42.5304
 11
-47.959
 21
44.3907
  0
LINE
  8
0
 10
-47.959
 20
44.3907
 11
-47.4335
 21
44.0567
  0
LINE
  8
0
 10
-47.4335
 20
44.0567
 11
-47.4075
 21
45.0966
  0
LINE
  8
0
 10
-47.4075
 20
45.0966
 11
-47.1764
 21
45.7314
  0
LINE
  8
0
 10
-47.1764
 20
45.7314
 11
-46.73
 21
45.9076
  0
LINE
  8
0
 10
-46.73
 20
45.9076
 11
-45.8351
 21
46.9803
  0
LINE
  8
0
 10
-45.8351
 20
46.9803
 11
-45.4765
 21
45.7787
  0
LINE
  8
0
 10
-45.4765
 20
45.7787
 11
-45.0058
 21
45.356
  0
LINE
  8
0
 10
-45.0058
 20
45.356
 11
-45.0722
 21
44.1475
  0
LINE
  8
0
 10
-45.0722
 20
44.1475
 11
-43.3334
 21
45.1561
  0
LINE
  8
0
 10
-43.3334
 20
45.1561
 11
-43.1526
 21
44.8425
  0
LINE
  8
0
 10
-43.1526
 20
44.8425
 11
-42.4591
 21
45.2843
  0
LINE
  8
0
 10
-42.4591
 20
45.2843
 11
-41.2727
 21
45.6947
  0
LINE
  8
0
 10
-41.2727
 20
45.6947
 11
-42.5285
 21
46.2051
  0
LINE
  8
0
 10
-42.5285
 20
46.2051
 11
-42.6704
 21
46.4134
  0
LINE
  8
0
 10
-42.6704
 20
46.4134
 11
-42.5087
 21
46.7751
  0
LINE
  8
0
 10
-42.5087
 20
46.7751
 11
-43.1274
 21
47.0825
  0
LINE
  8
0
 10
-43.1274
 20
47.0825
 11
-43.8622
 21
48.1186
  0
LINE
  8
0
 10
-43.8622
 20
48.1186
 11
-42.8192
 21
48.3894
  0
LINE
  8
0
 10
-42.8192
 20
48.3894
 11
-42.2203
 21
48.2414
  0
LINE
  8
0
 10
-42.2203
 20
48.2414
 11
-42.1501
 21
48.5367
  0
LINE
  8
0
 10
-42.1501
 20
48.5367
 11
-41.7824
 21
48.5901
  0
LINE
  8
0
 10
-41.7824
 20
48.5901
 11
-40.1146
 21
47.7036
  0
LINE
  8
0
 10
-40.1146
 20
47.7036
 11
-40.3053
 21
48.5703
  0
LINE
  8
0
 10
-40.3053
 20
48.5703
 11
-40.1009
 21
49.4568
  0
LINE
  8
0
 10
-40.1009
 20
49.4568
 11
-39.5676
 21
49.2966
  0
LINE
  8
0
 10
-39.5676
 20
49.2966
 11
-39.0511
 21
48.7091
  0
LINE
  8
0
 10
-39.0511
 20
48.7091
 11
-38.7604
 21
48.9326
  0
LINE
  8
0
 10
-38.7604
 20
48.9326
 11
-38.1584
 21
48.056
  0
LINE
  8
0
 10
-38.1584
 20
48.056
 11
-37.8845
 21
45.9724
  0
LINE
  8
0
 10
-37.8845
 20
45.9724
 11
-37.5
 21
45.6947
  0
LINE
  8
0
 10
-37.5
 20
45.6947
 11
-37.5
 21
46.0144
  0
LINE
  8
0
 10
-37.5
 20
46.0144
 11
-36.7661
 21
46.5759
  0
LINE
  8
0
 10
-36.7661
 20
46.5759
 11
-36.5929
 21
48.2834
  0
LINE
  8
0
 10
-36.5929
 20
48.2834
 11
-36.2244
 21
49.0936
  0
LINE
  8
0
 10
-36.2244
 20
49.0936
 11
-35.9993
 21
49.2767
  0
LINE
  8
0
 10
-35.9993
 20
49.2767
 11
-35.7666
 21
49.1554
  0
LINE
  8
0
 10
-35.7666
 20
49.1554
 11
-35.4942
 21
49.5354
  0
LINE
  8
0
 10
-35.4942
 20
49.5354
 11
-34.7816
 21
49.8726
  0
LINE
  8
0
 10
-34.7816
 20
49.8726
 11
-34.6085
 21
49.4835
  0
LINE
  8
0
 10
-34.6085
 20
49.4835
 11
-34.6664
 21
48.1552
  0
LINE
  8
0
 10
-34.6664
 20
48.1552
 11
-33.7532
 21
48.6526
  0
LINE
  8
0
 10
-33.7532
 20
48.6526
 11
-33.0872
 21
48.7701
  0
LINE
  8
0
 10
-33.0872
 20
48.7701
 11
-32.7103
 21
48.4695
  0
LINE
  8
0
 10
-32.7103
 20
48.4695
 11
-31.3332
 21
48.2338
  0
LINE
  8
0
 10
-31.3332
 20
48.2338
 11
-32.1999
 21
47.3206
  0
LINE
  8
0
 10
-32.1999
 20
47.3206
 11
-32.328
 21
46.7033
  0
LINE
  8
0
 10
-32.328
 20
46.7033
 11
-33.4068
 21
46.1555
  0
LINE
  8
0
 10
-33.4068
 20
46.1555
 11
-31.6643
 21
45.1546
  0
LINE
  8
0
 10
-31.6643
 20
45.1546
 11
-31.8459
 21
44.8402
  0
LINE
  8
0
 10
-31.8459
 20
44.8402
 11
-31.1195
 21
44.4633
  0
LINE
  8
0
 10
-31.1195
 20
44.4633
 11
-30.1666
 21
43.6386
  0
LINE
  8
0
 10
-30.1666
 20
43.6386
 11
-30.352
 21
44.9852
  0
LINE
  8
0
 10
-30.352
 20
44.9852
 11
-30.2414
 21
45.2095
  0
LINE
  8
0
 10
-30.2414
 20
45.2095
 11
-29.8492
 21
45.2484
  0
LINE
  8
0
 10
-29.8492
 20
45.2484
 11
-29.8904
 21
45.9404
  0
LINE
  8
0
 10
-29.8904
 20
45.9404
 11
-29.3617
 21
47.0932
  0
LINE
  8
0
 10
-29.3617
 20
47.0932
 11
-28.6072
 21
46.328
  0
LINE
  8
0
 10
-28.6072
 20
46.328
 11
-28.4348
 21
45.7336
  0
LINE
  8
0
 10
-28.4348
 20
45.7336
 11
-28.1433
 21
45.8199
  0
LINE
  8
0
 10
-28.1433
 20
45.8199
 11
-27.9152
 21
45.5276
  0
LINE
  8
0
 10
-27.9152
 20
45.5276
 11
-27.8473
 21
43.6409
  0
LINE
  8
0
 10
-27.8473
 20
43.6409
 11
-27.1912
 21
44.2413
  0
LINE
  8
0
 10
-27.1912
 20
44.2413
 11
-26.3245
 21
44.5068
  0
LINE
  8
0
 10
-26.3245
 20
44.5068
 11
-26.1948
 21
43.9636
  0
LINE
  8
0
 10
-26.1948
 20
43.9636
 11
-26.445
 21
43.2213
  0
LINE
  8
0
 10
-26.445
 20
43.2213
 11
-26.1055
 21
43.0817
  0
LINE
  8
0
 10
-26.1055
 20
43.0817
 11
-26.5617
 21
42.1249
  0
LINE
  8
0
 10
-26.5617
 20
42.1249
 11
-28.2341
 21
40.8417
  0
LINE
  8
0
 10
-28.2341
 20
40.8417
 11
-28.2814
 21
40.3702
  0
LINE
  8
0
 10
-28.2814
 20
40.3702
 11
-28.0037
 21
40.5312
  0
LINE
  8
0
 10
-28.0037
 20
40.5312
 11
-27.153
 21
40.1779
  0
LINE
  8
0
 10
-27.153
 20
40.1779
 11
-25.5783
 21
40.8806
  0
LINE
  8
0
 10
-25.5783
 20
40.8806
 11
-24.7002
 21
40.9645
  0
LINE
  8
0
 10
-24.7002
 20
40.9645
 11
-24.4293
 21
40.8623
  0
LINE
  8
0
 10
-24.4293
 20
40.8623
 11
-24.4171
 21
40.6006
  0
LINE
  8
0
 10
-24.4171
 20
40.6006
 11
-23.9494
 21
40.5548
  0
LINE
  8
0
 10
-23.9494
 20
40.5548
 11
-23.3032
 21
40.1047
  0
LINE
  8
0
 10
-23.3032
 20
40.1047
 11
-23.5535
 21
39.7614
  0
LINE
  8
0
 10
-23.5535
 20
39.7614
 11
-24.733
 21
39.1472
  0
LINE
  8
0
 10
-24.733
 20
39.1472
 11
-23.8457
 21
38.607
  0
LINE
  8
0
 10
-23.8457
 20
38.607
 11
-23.4131
 21
38.0882
  0
LINE
  8
0
 10
-23.4131
 20
38.0882
 11
-23.4825
 21
37.6083
  0
LINE
  8
0
 10
-23.4825
 20
37.6083
 11
-22.9988
 21
36.2999
  0
LINE
  8
0
 10
-22.9988
 20
36.2999
 11
-24.2172
 21
36.5921
  0
LINE
  8
0
 10
-24.2172
 20
36.5921
 11
-24.8222
 21
36.3968
  0
LINE
  8
0
 10
-24.8222
 20
36.3968
 11
-25.8347
 21
37.056
  0
LINE
  8
0
 10
-25.8347
 20
37.056
 11
-25.8301
 21
35.0479
  0
LINE
  8
0
 10
-25.8301
 20
35.0479
 11
-28.8063
 21
35.0479
  0
LINE
  8
0
 10
-28.8063
 20
35.0479
 11
-28.8429
 21
35.8696
  0
LINE
  8
0
 10
-28.8429
 20
35.8696
 11
-28.6041
 21
37.1056
  0
LINE
  8
0
 10
-28.6041
 20
37.1056
 11
-29.6761
 21
36.2709
  0
LINE
  8
0
 10
-29.6761
 20
36.2709
 11
-29.9278
 21
36.2526
  0
LINE
  8
0
 10
-29.9278
 20
36.2526
 11
-30.159
 21
36.5753
  0
LINE
  8
0
 10
-30.159
 20
36.5753
 11
-30.7365
 21
36.1931
  0
LINE
  8
0
 10
-30.7365
 20
36.1931
 11
-32.0023
 21
36.0741
  0
LINE
  8
0
 10
-32.0023
 20
36.0741
 11
-31.7162
 21
37.1086
  0
LINE
  8
0
 10
-31.7162
 20
37.1086
 11
-31.2851
 21
37.558
  0
LINE
  8
0
 10
-31.2851
 20
37.558
 11
-31.5056
 21
37.7647
  0
LINE
  8
0
 10
-31.5056
 20
37.7647
 11
-31.3683
 21
38.1111
  0
LINE
  8
0
 10
-31.3683
 20
38.1111
 11
-29.7661
 21
39.1106
  0
LINE
  8
0
 10
-29.7661
 20
39.1106
 11
-30.3032
 21
39.2807
  0
LINE
  8
0
 10
-30.3032
 20
39.2807
 11
-31.2462
 21
38.7665
  0
LINE
  8
0
 10
-31.2462
 20
38.7665
 11
-31.9122
 21
38.649
  0
LINE
  8
0
 10
-31.9122
 20
38.649
 11
-32.2891
 21
38.9496
  0
LINE
  8
0
 10
-32.2891
 20
38.9496
 11
-33.667
 21
39.1861
  0
LINE
  8
0
 10
-33.667
 20
39.1861
 11
-32.8003
 21
40.0986
  0
LINE
  8
0
 10
-32.8003
 20
40.0986
 11
-32.6714
 21
40.7158
  0
LINE
  8
0
 10
-32.6714
 20
40.7158
 11
-31.5926
 21
41.2643
  0
LINE
  8
0
 10
-31.5926
 20
41.2643
 11
-33.3351
 21
42.2653
  0
LINE
  8
0
 10
-33.3351
 20
42.2653
 11
-33.1551
 21
42.5781
  0
LINE
  8
0
 10
-33.1551
 20
42.5781
 11
-33.8821
 21
42.9581
  0
LINE
  8
0
 10
-33.8821
 20
42.9581
 11
-34.832
 21
43.7813
  0
LINE
  8
0
 10
-34.832
 20
43.7813
 11
-34.6474
 21
42.4355
  0
LINE
  8
0
 10
-34.6474
 20
42.4355
 11
-34.7565
 21
42.2096
  0
LINE
  8
0
 10
-34.7565
 20
42.2096
 11
-35.1509
 21
42.1707
  0
LINE
  8
0
 10
-35.1509
 20
42.1707
 11
-35.1097
 21
41.4787
  0
LINE
  8
0
 10
-35.1097
 20
41.4787
 11
-35.6384
 21
40.3252
  0
LINE
  8
0
 10
-35.6384
 20
40.3252
 11
-36.393
 21
41.0904
  0
LINE
  8
0
 10
-36.393
 20
41.0904
 11
-36.5654
 21
41.6847
  0
LINE
  8
0
 10
-36.5654
 20
41.6847
 11
-36.8576
 21
41.5985
  0
LINE
  8
0
 10
-36.8576
 20
41.5985
 11
-37.0842
 21
41.8907
  0
LINE
  8
0
 10
-37.0842
 20
41.8907
 11
-37.1521
 21
43.7782
  0
LINE
  8
0
 10
-37.1521
 20
43.7782
 11
-37.5648
 21
43.4006
  0
LINE
  8
0
 10
-37.5648
 20
43.4006
 11
-37.5908
 21
42.3225
  0
LINE
  8
0
 10
-37.5908
 20
42.3225
 11
-37.8242
 21
41.6878
  0
LINE
  8
0
 10
-37.8242
 20
41.6878
 11
-38.2706
 21
41.5115
  0
LINE
  8
0
 10
-38.2706
 20
41.5115
 11
-39.1663
 21
40.4381
  0
LINE
  8
0
 10
-39.1663
 20
40.4381
 11
-39.5248
 21
41.6397
  0
LINE
  8
0
 10
-39.5248
 20
41.6397
 11
-39.9948
 21
42.0624
  0
LINE
  8
0
 10
-39.9948
 20
42.0624
 11
-39.9292
 21
43.2724
  0
LINE
  8
0
 10
-39.9292
 20
43.2724
 11
-41.6679
 21
42.2638
  0
LINE
  8
0
 10
-41.6679
 20
42.2638
 11
-41.8488
 21
42.5774
  0
LINE
  8
0
 10
-41.8488
 20
42.5774
 11
-42.5392
 21
42.1349
  0
LINE
  8
0
 10
-42.5392
 20
42.1349
 11
-43.7302
 21
41.7252
  0
LINE
  8
0
 10
-43.7302
 20
41.7252
 11
-42.4721
 21
41.214
  0
LINE
  8
0
 10
-42.4721
 20
41.214
 11
-42.3302
 21
41.0057
  0
LINE
  8
0
 10
-42.3302
 20
41.0057
 11
-42.4919
 21
40.6441
  0
LINE
  8
0
 10
-42.4919
 20
40.6441
 11
-41.8739
 21
40.3366
  0
LINE
  8
0
 10
-41.8739
 20
40.3366
 11
-41.1385
 21
39.2998
  0
LINE
  8
0
 10
-41.1385
 20
39.2998
 11
-42.1814
 21
39.0289
  0
LINE
  8
0
 10
-42.1814
 20
39.0289
 11
-42.7803
 21
39.1769
  0
LINE
  8
0
 10
-42.7803
 20
39.1769
 11
-42.8505
 21
38.8817
  0
LINE
  8
0
 10
-42.8505
 20
38.8817
 11
-43.2182
 21
38.8283
  0
LINE
  8
0
 10
-43.2182
 20
38.8283
 11
-44.886
 21
39.7156
  0
LINE
  8
0
 10
-44.886
 20
39.7156
 11
-44.7853
 21
39.257
  0
LINE
  8
0
 10
-44.7853
 20
39.257
 11
-44.6533
 21
39.1907
  0
LINE
  8
0
 10
-44.6533
 20
39.1907
 11
-44.7342
 21
39.1479
  0
LINE
  8
0
 10
-44.7342
 20
39.1479
 11
-43.8461
 21
38.607
  0
LINE
  8
0
 10
-43.8461
 20
38.607
 11
-43.4135
 21
38.0882
  0
LINE
  8
0
 10
-43.4135
 20
38.0882
 11
-43.483
 21
37.6083
  0
LINE
  8
0
 10
-43.483
 20
37.6083
 11
-42.9993
 21
36.2999
  0
LINE
  8
0
 10
-42.9993
 20
36.2999
 11
-44.2177
 21
36.5921
  0
LINE
  8
0
 10
-44.2177
 20
36.5921
 11
-44.8227
 21
36.3968
  0
LINE
  8
0
 10
-44.8227
 20
36.3968
 11
-45.8359
 21
37.056
  0
LINE
  8
0
 10
-45.8359
 20
37.056
 11
-45.8313
 21
35.0479
  0
LINE
  8
0
 10
-45.8313
 20
35.0479
 11
-48.8068
 21
35.0479
  0
LINE
  8
0
 10
1.19324
 20
35.0479
 11
1.15662
 21
35.8696
  0
LINE
  8
0
 10
1.15662
 20
35.8696
 11
1.39465
 21
37.1048
  0
LINE
  8
0
 10
1.39465
 20
37.1048
 11
0.323486
 21
36.2709
  0
LINE
  8
0
 10
0.323486
 20
36.2709
 11
0.0717163
 21
36.2526
  0
LINE
  8
0
 10
0.0717163
 20
36.2526
 11
-0.158691
 21
36.5746
  0
LINE
  8
0
 10
-0.158691
 20
36.5746
 11
-0.737
 21
36.1931
  0
LINE
  8
0
 10
-0.737
 20
36.1931
 11
-2.00119
 21
36.0741
  0
LINE
  8
0
 10
-2.00119
 20
36.0741
 11
-1.71585
 21
37.1086
  0
LINE
  8
0
 10
-1.71585
 20
37.1086
 11
-1.28479
 21
37.558
  0
LINE
  8
0
 10
-1.28479
 20
37.558
 11
-1.50528
 21
37.7647
  0
LINE
  8
0
 10
-1.50528
 20
37.7647
 11
-1.36795
 21
38.1111
  0
LINE
  8
0
 10
-1.36795
 20
38.1111
 11
0.233459
 21
39.1113
  0
LINE
  8
0
 10
0.233459
 20
39.1113
 11
-0.614166
 21
39.3799
  0
LINE
  8
0
 10
-0.614166
 20
39.3799
 11
-1.27869
 21
40.0002
  0
LINE
  8
0
 10
-1.27869
 20
40.0002
 11
-0.87204
 21
40.3809
  0
LINE
  8
0
 10
-0.87204
 20
40.3809
 11
-0.105286
 21
40.5357
  0
LINE
  8
0
 10
-0.105286
 20
40.5357
 11
-0.153351
 21
40.8989
  0
LINE
  8
0
 10
-0.153351
 20
40.8989
 11
0.908661
 21
40.9821
  0
LINE
  8
0
 10
0.908661
 20
40.9821
 11
2.84576
 21
40.1779
  0
LINE
  8
0
 10
2.84576
 20
40.1779
 11
3.27911
 21
40.3717
  0
LINE
  8
0
 10
3.27911
 20
40.3717
 11
3.00369
 21
40.5319
  0
LINE
  8
0
 10
3.00369
 20
40.5319
 11
2.88315
 21
41.4467
  0
LINE
  8
0
 10
2.88315
 20
41.4467
 11
1.49384
 21
42.45
  0
LINE
  8
0
 10
1.49384
 20
42.45
 11
0.972748
 21
43.1808
  0
LINE
  8
0
 10
0.972748
 20
43.1808
 11
0.928497
 21
43.4616
  0
LINE
  8
0
 10
0.928497
 20
43.4616
 11
1.15051
 21
43.6035
  0
LINE
  8
0
 10
1.15051
 20
43.6035
 11
0.958252
 21
44.0292
  0
LINE
  8
0
 10
0.958252
 20
44.0292
 11
1.02386
 21
44.8151
  0
LINE
  8
0
 10
1.02386
 20
44.8151
 11
1.44272
 21
44.7708
  0
LINE
  8
0
 10
1.44272
 20
44.7708
 11
2.56653
 21
44.0567
  0
LINE
  8
0
 10
2.56653
 20
44.0567
 11
2.59247
 21
45.0966
  0
LINE
  8
0
 10
2.59247
 20
45.0966
 11
2.82364
 21
45.7314
  0
LINE
  8
0
 10
2.82364
 20
45.7314
 11
3.26996
 21
45.9076
  0
LINE
  8
0
 10
3.26996
 20
45.9076
 11
4.16489
 21
46.9803
  0
LINE
  8
0
 10
4.16489
 20
46.9803
 11
4.52347
 21
45.7787
  0
LINE
  8
0
 10
4.52347
 20
45.7787
 11
4.9942
 21
45.356
  0
LINE
  8
0
 10
4.9942
 20
45.356
 11
4.92783
 21
44.1475
  0
LINE
  8
0
 10
4.92783
 20
44.1475
 11
6.66656
 21
45.1561
  0
LINE
  8
0
 10
6.66656
 20
45.1561
 11
6.84738
 21
44.8425
  0
LINE
  8
0
 10
6.84738
 20
44.8425
 11
7.54089
 21
45.2843
  0
LINE
  8
0
 10
7.54089
 20
45.2843
 11
8.72726
 21
45.6947
  0
LINE
  8
0
 10
8.72726
 20
45.6947
 11
7.47147
 21
46.2051
  0
LINE
  8
0
 10
7.47147
 20
46.2051
 11
7.32956
 21
46.4134
  0
LINE
  8
0
 10
7.32956
 20
46.4134
 11
7.4913
 21
46.7751
  0
LINE
  8
0
 10
7.4913
 20
46.7751
 11
6.87256
 21
47.0825
  0
LINE
  8
0
 10
6.87256
 20
47.0825
 11
6.13785
 21
48.1186
  0
LINE
  8
0
 10
6.13785
 20
48.1186
 11
7.18079
 21
48.3894
  0
LINE
  8
0
 10
7.18079
 20
48.3894
 11
7.77969
 21
48.2414
  0
LINE
  8
0
 10
7.77969
 20
48.2414
 11
7.84988
 21
48.5367
  0
LINE
  8
0
 10
7.84988
 20
48.5367
 11
8.21762
 21
48.5901
  0
LINE
  8
0
 10
8.21762
 20
48.5901
 11
9.88541
 21
47.7036
  0
LINE
  8
0
 10
9.88541
 20
47.7036
 11
9.69467
 21
48.5703
  0
LINE
  8
0
 10
9.69467
 20
48.5703
 11
9.89914
 21
49.4568
  0
LINE
  8
0
 10
9.89914
 20
49.4568
 11
10.4324
 21
49.2966
  0
LINE
  8
0
 10
10.4324
 20
49.2966
 11
10.9489
 21
48.7091
  0
LINE
  8
0
 10
10.9489
 20
48.7091
 11
11.2396
 21
48.9326
  0
LINE
  8
0
 10
11.2396
 20
48.9326
 11
11.8416
 21
48.056
  0
LINE
  8
0
 10
11.8416
 20
48.056
 11
12.1155
 21
45.9724
  0
LINE
  8
0
 10
12.1155
 20
45.9724
 11
12.5
 21
45.6947
  0
LINE
  8
0
 10
12.5
 20
45.6947
 11
12.5
 21
46.0144
  0
LINE
  8
0
 10
12.5
 20
46.0144
 11
13.2339
 21
46.5759
  0
LINE
  8
0
 10
13.2339
 20
46.5759
 11
13.4071
 21
48.2834
  0
LINE
  8
0
 10
13.4071
 20
48.2834
 11
13.7756
 21
49.0936
  0
LINE
  8
0
 10
13.7756
 20
49.0936
 11
14.0007
 21
49.2767
  0
LINE
  8
0
 10
14.0007
 20
49.2767
 11
14.2334
 21
49.1554
  0
LINE
  8
0
 10
14.2334
 20
49.1554
 11
14.5058
 21
49.5354
  0
LINE
  8
0
 10
14.5058
 20
49.5354
 11
15.2184
 21
49.8726
  0
LINE
  8
0
 10
15.2184
 20
49.8726
 11
15.3915
 21
49.4835
  0
LINE
  8
0
 10
15.3915
 20
49.4835
 11
15.3336
 21
48.1552
  0
LINE
  8
0
 10
15.3336
 20
48.1552
 11
16.2468
 21
48.6526
  0
LINE
  8
0
 10
16.2468
 20
48.6526
 11
16.9128
 21
48.7701
  0
LINE
  8
0
 10
16.9128
 20
48.7701
 11
17.2897
 21
48.4695
  0
LINE
  8
0
 10
17.2897
 20
48.4695
 11
18.6668
 21
48.2338
  0
LINE
  8
0
 10
18.6668
 20
48.2338
 11
17.8001
 21
47.3206
  0
LINE
  8
0
 10
17.8001
 20
47.3206
 11
17.672
 21
46.7033
  0
LINE
  8
0
 10
17.672
 20
46.7033
 11
16.5932
 21
46.1555
  0
LINE
  8
0
 10
16.5932
 20
46.1555
 11
18.3357
 21
45.1546
  0
LINE
  8
0
 10
18.3357
 20
45.1546
 11
18.1541
 21
44.8402
  0
LINE
  8
0
 10
18.1541
 20
44.8402
 11
18.8805
 21
44.4633
  0
LINE
  8
0
 10
18.8805
 20
44.4633
 11
19.8334
 21
43.6386
  0
LINE
  8
0
 10
19.8334
 20
43.6386
 11
19.648
 21
44.9852
  0
LINE
  8
0
 10
19.648
 20
44.9852
 11
19.7586
 21
45.2095
  0
LINE
  8
0
 10
19.7586
 20
45.2095
 11
20.1508
 21
45.2484
  0
LINE
  8
0
 10
20.1508
 20
45.2484
 11
20.1096
 21
45.9404
  0
LINE
  8
0
 10
20.1096
 20
45.9404
 11
20.6383
 21
47.0932
  0
LINE
  8
0
 10
20.6383
 20
47.0932
 11
21.3928
 21
46.328
  0
LINE
  8
0
 10
21.3928
 20
46.328
 11
21.5652
 21
45.7336
  0
LINE
  8
0
 10
21.5652
 20
45.7336
 11
21.8567
 21
45.8199
  0
LINE
  8
0
 10
21.8567
 20
45.8199
 11
22.0848
 21
45.5276
  0
LINE
  8
0
 10
22.0848
 20
45.5276
 11
22.1527
 21
43.6409
  0
LINE
  8
0
 10
22.1527
 20
43.6409
 11
22.8088
 21
44.2413
  0
LINE
  8
0
 10
22.8088
 20
44.2413
 11
23.6755
 21
44.5068
  0
LINE
  8
0
 10
23.6755
 20
44.5068
 11
23.8052
 21
43.9636
  0
LINE
  8
0
 10
23.8052
 20
43.9636
 11
23.555
 21
43.2213
  0
LINE
  8
0
 10
23.555
 20
43.2213
 11
23.8945
 21
43.0817
  0
LINE
  8
0
 10
23.8945
 20
43.0817
 11
23.4383
 21
42.1249
  0
LINE
  8
0
 10
23.4383
 20
42.1249
 11
21.7659
 21
40.8417
  0
LINE
  8
0
 10
21.7659
 20
40.8417
 11
21.7186
 21
40.3702
  0
LINE
  8
0
 10
21.7186
 20
40.3702
 11
21.9963
 21
40.5312
  0
LINE
  8
0
 10
21.9963
 20
40.5312
 11
22.847
 21
40.1779
  0
LINE
  8
0
 10
22.847
 20
40.1779
 11
24.4217
 21
40.8806
  0
LINE
  8
0
 10
24.4217
 20
40.8806
 11
25.2998
 21
40.9645
  0
LINE
  8
0
 10
25.2998
 20
40.9645
 11
25.5707
 21
40.8623
  0
LINE
  8
0
 10
25.5707
 20
40.8623
 11
25.5829
 21
40.6006
  0
LINE
  8
0
 10
25.5829
 20
40.6006
 11
26.0506
 21
40.5548
  0
LINE
  8
0
 10
26.0506
 20
40.5548
 11
26.6968
 21
40.1047
  0
LINE
  8
0
 10
26.6968
 20
40.1047
 11
26.4465
 21
39.7614
  0
LINE
  8
0
 10
26.4465
 20
39.7614
 11
25.267
 21
39.1472
  0
LINE
  8
0
 10
25.267
 20
39.1472
 11
26.1543
 21
38.607
  0
LINE
  8
0
 10
26.1543
 20
38.607
 11
26.5869
 21
38.0882
  0
LINE
  8
0
 10
26.5869
 20
38.0882
 11
26.5175
 21
37.6083
  0
LINE
  8
0
 10
26.5175
 20
37.6083
 11
27.0012
 21
36.2999
  0
LINE
  8
0
 10
27.0012
 20
36.2999
 11
25.7828
 21
36.5921
  0
LINE
  8
0
 10
25.7828
 20
36.5921
 11
25.1778
 21
36.3968
  0
LINE
  8
0
 10
25.1778
 20
36.3968
 11
24.1653
 21
37.056
  0
LINE
  8
0
 10
24.1653
 20
37.056
 11
24.1699
 21
35.0479
  0
LINE
  8
0
 10
24.1699
 20
35.0479
 11
21.1937
 21
35.0479
  0
LINE
  8
0
 10
21.1937
 20
35.0479
 11
21.1571
 21
35.8696
  0
LINE
  8
0
 10
21.1571
 20
35.8696
 11
21.3959
 21
37.1056
  0
LINE
  8
0
 10
21.3959
 20
37.1056
 11
20.3239
 21
36.2709
  0
LINE
  8
0
 10
20.3239
 20
36.2709
 11
20.0722
 21
36.2526
  0
LINE
  8
0
 10
20.0722
 20
36.2526
 11
19.841
 21
36.5753
  0
LINE
  8
0
 10
19.841
 20
36.5753
 11
19.2635
 21
36.1931
  0
LINE
  8
0
 10
19.2635
 20
36.1931
 11
17.9977
 21
36.0741
  0
LINE
  8
0
 10
17.9977
 20
36.0741
 11
18.2838
 21
37.1086
  0
LINE
  8
0
 10
18.2838
 20
37.1086
 11
18.7149
 21
37.558
  0
LINE
  8
0
 10
18.7149
 20
37.558
 11
18.4944
 21
37.7647
  0
LINE
  8
0
 10
18.4944
 20
37.7647
 11
18.6317
 21
38.1111
  0
LINE
  8
0
 10
18.6317
 20
38.1111
 11
20.2339
 21
39.1106
  0
LINE
  8
0
 10
20.2339
 20
39.1106
 11
19.6968
 21
39.2807
  0
LINE
  8
0
 10
19.6968
 20
39.2807
 11
18.7538
 21
38.7665
  0
LINE
  8
0
 10
18.7538
 20
38.7665
 11
18.0878
 21
38.649
  0
LINE
  8
0
 10
18.0878
 20
38.649
 11
17.7109
 21
38.9496
  0
LINE
  8
0
 10
17.7109
 20
38.9496
 11
16.333
 21
39.1861
  0
LINE
  8
0
 10
16.333
 20
39.1861
 11
17.1997
 21
40.0986
  0
LINE
  8
0
 10
17.1997
 20
40.0986
 11
17.3286
 21
40.7158
  0
LINE
  8
0
 10
17.3286
 20
40.7158
 11
18.4074
 21
41.2643
  0
LINE
  8
0
 10
18.4074
 20
41.2643
 11
16.6649
 21
42.2653
  0
LINE
  8
0
 10
16.6649
 20
42.2653
 11
16.8449
 21
42.5781
  0
LINE
  8
0
 10
16.8449
 20
42.5781
 11
16.1179
 21
42.9581
  0
LINE
  8
0
 10
16.1179
 20
42.9581
 11
15.168
 21
43.7813
  0
LINE
  8
0
 10
15.168
 20
43.7813
 11
15.3526
 21
42.4355
  0
LINE
  8
0
 10
15.3526
 20
42.4355
 11
15.2435
 21
42.2096
  0
LINE
  8
0
 10
15.2435
 20
42.2096
 11
14.8491
 21
42.1707
  0
LINE
  8
0
 10
14.8491
 20
42.1707
 11
14.8903
 21
41.4787
  0
LINE
  8
0
 10
14.8903
 20
41.4787
 11
14.3616
 21
40.3252
  0
LINE
  8
0
 10
14.3616
 20
40.3252
 11
13.607
 21
41.0904
  0
LINE
  8
0
 10
13.607
 20
41.0904
 11
13.4346
 21
41.6847
  0
LINE
  8
0
 10
13.4346
 20
41.6847
 11
13.1424
 21
41.5985
  0
LINE
  8
0
 10
13.1424
 20
41.5985
 11
12.9158
 21
41.8907
  0
LINE
  8
0
 10
12.9158
 20
41.8907
 11
12.8479
 21
43.7782
  0
LINE
  8
0
 10
12.8479
 20
43.7782
 11
12.4352
 21
43.4006
  0
LINE
  8
0
 10
12.4352
 20
43.4006
 11
12.4092
 21
42.3225
  0
LINE
  8
0
 10
12.4092
 20
42.3225
 11
12.1758
 21
41.6878
  0
LINE
  8
0
 10
12.1758
 20
41.6878
 11
11.7294
 21
41.5115
  0
LINE
  8
0
 10
11.7294
 20
41.5115
 11
10.8337
 21
40.4381
  0
LINE
  8
0
 10
10.8337
 20
40.4381
 11
10.4752
 21
41.6397
  0
LINE
  8
0
 10
10.4752
 20
41.6397
 11
10.0052
 21
42.0624
  0
LINE
  8
0
 10
10.0052
 20
42.0624
 11
10.0708
 21
43.2724
  0
LINE
  8
0
 10
10.0708
 20
43.2724
 11
8.33206
 21
42.2638
  0
LINE
  8
0
 10
8.33206
 20
42.2638
 11
8.15125
 21
42.5774
  0
LINE
  8
0
 10
8.15125
 20
42.5774
 11
7.46078
 21
42.1349
  0
LINE
  8
0
 10
7.46078
 20
42.1349
 11
6.26984
 21
41.7252
  0
LINE
  8
0
 10
6.26984
 20
41.7252
 11
7.52792
 21
41.214
  0
LINE
  8
0
 10
7.52792
 20
41.214
 11
7.66983
 21
41.0057
  0
LINE
  8
0
 10
7.66983
 20
41.0057
 11
7.50809
 21
40.6441
  0
LINE
  8
0
 10
7.50809
 20
40.6441
 11
8.12607
 21
40.3366
  0
LINE
  8
0
 10
8.12607
 20
40.3366
 11
8.86154
 21
39.2998
  0
LINE
  8
0
 10
8.86154
 20
39.2998
 11
7.8186
 21
39.0289
  0
LINE
  8
0
 10
7.8186
 20
39.0289
 11
7.2197
 21
39.1769
  0
LINE
  8
0
 10
7.2197
 20
39.1769
 11
7.14951
 21
38.8817
  0
LINE
  8
0
 10
7.14951
 20
38.8817
 11
6.78177
 21
38.8283
  0
LINE
  8
0
 10
6.78177
 20
38.8283
 11
5.11398
 21
39.7156
  0
LINE
  8
0
 10
5.11398
 20
39.7156
 11
5.21469
 21
39.257
  0
LINE
  8
0
 10
5.21469
 20
39.257
 11
5.34668
 21
39.1907
  0
LINE
  8
0
 10
5.34668
 20
39.1907
 11
5.26581
 21
39.1479
  0
LINE
  8
0
 10
5.26581
 20
39.1479
 11
6.15387
 21
38.607
  0
LINE
  8
0
 10
6.15387
 20
38.607
 11
6.58646
 21
38.0882
  0
LINE
  8
0
 10
6.58646
 20
38.0882
 11
6.51703
 21
37.6083
  0
LINE
  8
0
 10
6.51703
 20
37.6083
 11
7.00073
 21
36.2999
  0
LINE
  8
0
 10
7.00073
 20
36.2999
 11
5.78232
 21
36.5921
  0
LINE
  8
0
 10
5.78232
 20
36.5921
 11
5.17731
 21
36.3968
  0
LINE
  8
0
 10
5.17731
 20
36.3968
 11
4.16412
 21
37.056
  0
LINE
  8
0
 10
4.16412
 20
37.056
 11
4.1687
 21
35.0479
  0
LINE
  8
0
 10
4.1687
 20
35.0479
 11
1.19324
 21
35.0479
  0
LINE
  8
0
 10
49.3858
 20
39.3799
 11
48.7213
 21
40.0002
  0
LINE
  8
0
 10
48.7213
 20
40.0002
 11
49.128
 21
40.3809
  0
LINE
  8
0
 10
49.128
 20
40.3809
 11
49.2537
 21
40.4062
  0
LINE
  8
0
 10
49.2537
 20
40.4062
 11
49.6103
 21
39.3088
  0
LINE
  8
0
 10
49.6103
 20
39.3088
 11
49.3858
 21
39.3799
  0
LINE
  8
0
 10
48.2841
 20
37.1086
 11
48.7152
 21
37.558
  0
LINE
  8
0
 10
48.7152
 20
37.558
 11
48.4947
 21
37.7647
  0
LINE
  8
0
 10
48.4947
 20
37.7647
 11
48.632
 21
38.1111
  0
LINE
  8
0
 10
48.632
 20
38.1111
 11
49.7687
 21
38.8211
  0
LINE
  8
0
 10
49.7687
 20
38.8211
 11
50.542
 21
36.441
  0
LINE
  8
0
 10
50.542
 20
36.441
 11
50.3235
 21
36.2709
  0
LINE
  8
0
 10
50.3235
 20
36.2709
 11
50.0717
 21
36.2526
  0
LINE
  8
0
 10
50.0717
 20
36.2526
 11
49.8413
 21
36.5746
  0
LINE
  8
0
 10
49.8413
 20
36.5746
 11
49.263
 21
36.1931
  0
LINE
  8
0
 10
49.263
 20
36.1931
 11
47.9988
 21
36.0741
  0
LINE
  8
0
 10
47.9988
 20
36.0741
 11
48.2841
 21
37.1086
  0
LINE
  8
0
 10
34.6085
 20
20.6139
 11
34.6664
 21
21.9421
  0
LINE
  8
0
 10
34.6664
 20
21.9421
 11
33.7532
 21
21.4447
  0
LINE
  8
0
 10
33.7532
 20
21.4447
 11
33.0872
 21
21.3272
  0
LINE
  8
0
 10
33.0872
 20
21.3272
 11
32.7103
 21
21.6278
  0
LINE
  8
0
 10
32.7103
 20
21.6278
 11
31.3332
 21
21.8636
  0
LINE
  8
0
 10
31.3332
 20
21.8636
 11
32.1999
 21
22.7768
  0
LINE
  8
0
 10
32.1999
 20
22.7768
 11
32.328
 21
23.394
  0
LINE
  8
0
 10
32.328
 20
23.394
 11
33.4068
 21
23.9418
  0
LINE
  8
0
 10
33.4068
 20
23.9418
 11
31.6643
 21
24.9428
  0
LINE
  8
0
 10
31.6643
 20
24.9428
 11
31.8459
 21
25.2571
  0
LINE
  8
0
 10
31.8459
 20
25.2571
 11
31.1195
 21
25.634
  0
LINE
  8
0
 10
31.1195
 20
25.634
 11
30.1666
 21
26.4587
  0
LINE
  8
0
 10
30.1666
 20
26.4587
 11
30.352
 21
25.1122
  0
LINE
  8
0
 10
30.352
 20
25.1122
 11
30.2414
 21
24.8878
  0
LINE
  8
0
 10
30.2414
 20
24.8878
 11
29.8492
 21
24.8489
  0
LINE
  8
0
 10
29.8492
 20
24.8489
 11
29.8904
 21
24.157
  0
LINE
  8
0
 10
29.8904
 20
24.157
 11
29.3617
 21
23.0042
  0
LINE
  8
0
 10
29.3617
 20
23.0042
 11
28.6072
 21
23.7694
  0
LINE
  8
0
 10
28.6072
 20
23.7694
 11
28.4348
 21
24.3637
  0
LINE
  8
0
 10
28.4348
 20
24.3637
 11
28.1433
 21
24.2775
  0
LINE
  8
0
 10
28.1433
 20
24.2775
 11
27.9152
 21
24.5697
  0
LINE
  8
0
 10
27.9152
 20
24.5697
 11
27.8473
 21
26.4565
  0
LINE
  8
0
 10
27.8473
 20
26.4565
 11
27.1912
 21
25.856
  0
LINE
  8
0
 10
27.1912
 20
25.856
 11
26.3245
 21
25.5905
  0
LINE
  8
0
 10
26.3245
 20
25.5905
 11
26.1948
 21
26.133
  0
LINE
  8
0
 10
26.1948
 20
26.133
 11
26.445
 21
26.8761
  0
LINE
  8
0
 10
26.445
 20
26.8761
 11
26.1055
 21
27.0157
  0
LINE
  8
0
 10
26.1055
 20
27.0157
 11
26.5617
 21
27.9724
  0
LINE
  8
0
 10
26.5617
 20
27.9724
 11
28.2341
 21
29.2557
  0
LINE
  8
0
 10
28.2341
 20
29.2557
 11
28.2814
 21
29.7272
  0
LINE
  8
0
 10
28.2814
 20
29.7272
 11
28.0037
 21
29.5662
  0
LINE
  8
0
 10
28.0037
 20
29.5662
 11
27.153
 21
29.9194
  0
LINE
  8
0
 10
27.153
 20
29.9194
 11
25.5783
 21
29.2168
  0
LINE
  8
0
 10
25.5783
 20
29.2168
 11
24.7002
 21
29.1328
  0
LINE
  8
0
 10
24.7002
 20
29.1328
 11
24.4293
 21
29.2351
  0
LINE
  8
0
 10
24.4293
 20
29.2351
 11
24.4171
 21
29.4968
  0
LINE
  8
0
 10
24.4171
 20
29.4968
 11
23.9494
 21
29.5425
  0
LINE
  8
0
 10
23.9494
 20
29.5425
 11
23.3032
 21
29.9927
  0
LINE
  8
0
 10
23.3032
 20
29.9927
 11
23.5535
 21
30.336
  0
LINE
  8
0
 10
23.5535
 20
30.336
 11
24.733
 21
30.9502
  0
LINE
  8
0
 10
24.733
 20
30.9502
 11
23.8457
 21
31.4903
  0
LINE
  8
0
 10
23.8457
 20
31.4903
 11
23.4131
 21
32.0091
  0
LINE
  8
0
 10
23.4131
 20
32.0091
 11
23.4825
 21
32.489
  0
LINE
  8
0
 10
23.4825
 20
32.489
 11
22.9988
 21
33.7975
  0
LINE
  8
0
 10
22.9988
 20
33.7975
 11
24.2172
 21
33.5052
  0
LINE
  8
0
 10
24.2172
 20
33.5052
 11
24.8222
 21
33.7006
  0
LINE
  8
0
 10
24.8222
 20
33.7006
 11
25.8347
 21
33.0414
  0
LINE
  8
0
 10
25.8347
 20
33.0414
 11
25.8301
 21
35.0494
  0
LINE
  8
0
 10
25.8301
 20
35.0494
 11
28.8063
 21
35.0494
  0
LINE
  8
0
 10
28.8063
 20
35.0494
 11
28.8429
 21
34.2278
  0
LINE
  8
0
 10
28.8429
 20
34.2278
 11
28.6041
 21
32.9918
  0
LINE
  8
0
 10
28.6041
 20
32.9918
 11
29.6761
 21
33.8264
  0
LINE
  8
0
 10
29.6761
 20
33.8264
 11
29.9278
 21
33.8448
  0
LINE
  8
0
 10
29.9278
 20
33.8448
 11
30.159
 21
33.522
  0
LINE
  8
0
 10
30.159
 20
33.522
 11
30.7365
 21
33.9043
  0
LINE
  8
0
 10
30.7365
 20
33.9043
 11
32.0023
 21
34.0233
  0
LINE
  8
0
 10
32.0023
 20
34.0233
 11
31.7162
 21
32.9887
  0
LINE
  8
0
 10
31.7162
 20
32.9887
 11
31.2851
 21
32.5394
  0
LINE
  8
0
 10
31.2851
 20
32.5394
 11
31.5056
 21
32.3326
  0
LINE
  8
0
 10
31.5056
 20
32.3326
 11
31.3683
 21
31.9862
  0
LINE
  8
0
 10
31.3683
 20
31.9862
 11
29.7661
 21
30.9868
  0
LINE
  8
0
 10
29.7661
 20
30.9868
 11
30.3032
 21
30.8167
  0
LINE
  8
0
 10
30.3032
 20
30.8167
 11
31.2462
 21
31.3309
  0
LINE
  8
0
 10
31.2462
 20
31.3309
 11
31.9122
 21
31.4484
  0
LINE
  8
0
 10
31.9122
 20
31.4484
 11
32.2891
 21
31.1478
  0
LINE
  8
0
 10
32.2891
 20
31.1478
 11
33.667
 21
30.9113
  0
LINE
  8
0
 10
33.667
 20
30.9113
 11
32.8003
 21
29.9988
  0
LINE
  8
0
 10
32.8003
 20
29.9988
 11
32.6714
 21
29.3816
  0
LINE
  8
0
 10
32.6714
 20
29.3816
 11
31.5926
 21
28.833
  0
LINE
  8
0
 10
31.5926
 20
28.833
 11
33.3351
 21
27.832
  0
LINE
  8
0
 10
33.3351
 20
27.832
 11
33.1551
 21
27.5192
  0
LINE
  8
0
 10
33.1551
 20
27.5192
 11
33.8821
 21
27.1393
  0
LINE
  8
0
 10
33.8821
 20
27.1393
 11
34.832
 21
26.3161
  0
LINE
  8
0
 10
34.832
 20
26.3161
 11
34.6474
 21
27.6619
  0
LINE
  8
0
 10
34.6474
 20
27.6619
 11
34.7565
 21
27.8877
  0
LINE
  8
0
 10
34.7565
 20
27.8877
 11
35.1509
 21
27.9266
  0
LINE
  8
0
 10
35.1509
 20
27.9266
 11
35.1097
 21
28.6186
  0
LINE
  8
0
 10
35.1097
 20
28.6186
 11
35.6384
 21
29.7722
  0
LINE
  8
0
 10
35.6384
 20
29.7722
 11
36.393
 21
29.007
  0
LINE
  8
0
 10
36.393
 20
29.007
 11
36.5654
 21
28.4126
  0
LINE
  8
0
 10
36.5654
 20
28.4126
 11
36.8576
 21
28.4988
  0
LINE
  8
0
 10
36.8576
 20
28.4988
 11
37.0842
 21
28.2066
  0
LINE
  8
0
 10
37.0842
 20
28.2066
 11
37.1521
 21
26.3191
  0
LINE
  8
0
 10
37.1521
 20
26.3191
 11
37.5648
 21
26.6968
  0
LINE
  8
0
 10
37.5648
 20
26.6968
 11
37.5908
 21
27.7748
  0
LINE
  8
0
 10
37.5908
 20
27.7748
 11
37.8242
 21
28.4096
  0
LINE
  8
0
 10
37.8242
 20
28.4096
 11
38.2706
 21
28.5858
  0
LINE
  8
0
 10
38.2706
 20
28.5858
 11
39.1663
 21
29.6593
  0
LINE
  8
0
 10
39.1663
 20
29.6593
 11
39.5248
 21
28.4576
  0
LINE
  8
0
 10
39.5248
 20
28.4576
 11
39.9948
 21
28.035
  0
LINE
  8
0
 10
39.9948
 20
28.035
 11
39.9292
 21
26.825
  0
LINE
  8
0
 10
39.9292
 20
26.825
 11
41.6679
 21
27.8336
  0
LINE
  8
0
 10
41.6679
 20
27.8336
 11
41.8488
 21
27.52
  0
LINE
  8
0
 10
41.8488
 20
27.52
 11
42.5392
 21
27.9625
  0
LINE
  8
0
 10
42.5392
 20
27.9625
 11
43.7302
 21
28.3722
  0
LINE
  8
0
 10
43.7302
 20
28.3722
 11
42.4721
 21
28.8834
  0
LINE
  8
0
 10
42.4721
 20
28.8834
 11
42.3302
 21
29.0916
  0
LINE
  8
0
 10
42.3302
 20
29.0916
 11
42.4919
 21
29.4533
  0
LINE
  8
0
 10
42.4919
 20
29.4533
 11
41.8739
 21
29.7607
  0
LINE
  8
0
 10
41.8739
 20
29.7607
 11
41.1385
 21
30.7976
  0
LINE
  8
0
 10
41.1385
 20
30.7976
 11
42.1814
 21
31.0684
  0
LINE
  8
0
 10
42.1814
 20
31.0684
 11
42.7803
 21
30.9204
  0
LINE
  8
0
 10
42.7803
 20
30.9204
 11
42.8505
 21
31.2157
  0
LINE
  8
0
 10
42.8505
 20
31.2157
 11
43.2182
 21
31.2691
  0
LINE
  8
0
 10
43.2182
 20
31.2691
 11
44.886
 21
30.3818
  0
LINE
  8
0
 10
44.886
 20
30.3818
 11
44.7853
 21
30.8403
  0
LINE
  8
0
 10
44.7853
 20
30.8403
 11
44.6533
 21
30.9067
  0
LINE
  8
0
 10
44.6533
 20
30.9067
 11
44.7342
 21
30.9494
  0
LINE
  8
0
 10
44.7342
 20
30.9494
 11
43.8461
 21
31.4903
  0
LINE
  8
0
 10
43.8461
 20
31.4903
 11
43.4135
 21
32.0091
  0
LINE
  8
0
 10
43.4135
 20
32.0091
 11
43.483
 21
32.489
  0
LINE
  8
0
 10
43.483
 20
32.489
 11
42.9993
 21
33.7975
  0
LINE
  8
0
 10
42.9993
 20
33.7975
 11
44.2177
 21
33.5052
  0
LINE
  8
0
 10
44.2177
 20
33.5052
 11
44.8227
 21
33.7006
  0
LINE
  8
0
 10
44.8227
 20
33.7006
 11
45.8359
 21
33.0414
  0
LINE
  8
0
 10
45.8359
 20
33.0414
 11
45.8313
 21
35.0494
  0
LINE
  8
0
 10
45.8313
 20
35.0494
 11
48.8068
 21
35.0494
  0
LINE
  8
0
 10
48.8068
 20
35.0494
 11
48.8434
 21
34.2278
  0
LINE
  8
0
 10
48.8434
 20
34.2278
 11
48.6053
 21
32.9926
  0
LINE
  8
0
 10
48.6053
 20
32.9926
 11
49.6765
 21
33.8264
  0
LINE
  8
0
 10
49.6765
 20
33.8264
 11
49.9283
 21
33.8448
  0
LINE
  8
0
 10
49.9283
 20
33.8448
 11
50.1587
 21
33.5228
  0
LINE
  8
0
 10
50.1587
 20
33.5228
 11
50.737
 21
33.9043
  0
LINE
  8
0
 10
50.737
 20
33.9043
 11
51.3476
 21
33.9617
  0
LINE
  8
0
 10
51.3476
 20
33.9617
 11
51.6769
 21
32.9482
  0
LINE
  8
0
 10
51.6769
 20
32.9482
 11
51.2848
 21
32.5394
  0
LINE
  8
0
 10
51.2848
 20
32.5394
 11
51.5053
 21
32.3326
  0
LINE
  8
0
 10
51.5053
 20
32.3326
 11
51.368
 21
31.9862
  0
LINE
  8
0
 10
51.368
 20
31.9862
 11
49.7665
 21
30.986
  0
LINE
  8
0
 10
49.7665
 20
30.986
 11
50.6142
 21
30.7175
  0
LINE
  8
0
 10
50.6142
 20
30.7175
 11
51.2787
 21
30.0972
  0
LINE
  8
0
 10
51.2787
 20
30.0972
 11
50.872
 21
29.7165
  0
LINE
  8
0
 10
50.872
 20
29.7165
 11
50.1053
 21
29.5616
  0
LINE
  8
0
 10
50.1053
 20
29.5616
 11
50.1534
 21
29.1985
  0
LINE
  8
0
 10
50.1534
 20
29.1985
 11
49.0913
 21
29.1153
  0
LINE
  8
0
 10
49.0913
 20
29.1153
 11
47.1542
 21
29.9194
  0
LINE
  8
0
 10
47.1542
 20
29.9194
 11
46.7209
 21
29.7256
  0
LINE
  8
0
 10
46.7209
 20
29.7256
 11
46.9963
 21
29.5654
  0
LINE
  8
0
 10
46.9963
 20
29.5654
 11
47.1169
 21
28.6507
  0
LINE
  8
0
 10
47.1169
 20
28.6507
 11
48.5062
 21
27.6474
  0
LINE
  8
0
 10
48.5062
 20
27.6474
 11
49.0273
 21
26.9165
  0
LINE
  8
0
 10
49.0273
 20
26.9165
 11
49.0715
 21
26.6357
  0
LINE
  8
0
 10
49.0715
 20
26.6357
 11
48.8495
 21
26.4938
  0
LINE
  8
0
 10
48.8495
 20
26.4938
 11
49.0417
 21
26.0681
  0
LINE
  8
0
 10
49.0417
 20
26.0681
 11
48.9761
 21
25.2823
  0
LINE
  8
0
 10
48.9761
 20
25.2823
 11
48.5573
 21
25.3265
  0
LINE
  8
0
 10
48.5573
 20
25.3265
 11
47.4335
 21
26.0406
  0
LINE
  8
0
 10
47.4335
 20
26.0406
 11
47.4075
 21
25.0008
  0
LINE
  8
0
 10
47.4075
 20
25.0008
 11
47.1764
 21
24.366
  0
LINE
  8
0
 10
47.1764
 20
24.366
 11
46.73
 21
24.1898
  0
LINE
  8
0
 10
46.73
 20
24.1898
 11
45.8351
 21
23.1171
  0
LINE
  8
0
 10
45.8351
 20
23.1171
 11
45.4765
 21
24.3187
  0
LINE
  8
0
 10
45.4765
 20
24.3187
 11
45.0058
 21
24.7414
  0
LINE
  8
0
 10
45.0058
 20
24.7414
 11
45.0722
 21
25.9499
  0
LINE
  8
0
 10
45.0722
 20
25.9499
 11
43.3334
 21
24.9413
  0
LINE
  8
0
 10
43.3334
 20
24.9413
 11
43.1526
 21
25.2548
  0
LINE
  8
0
 10
43.1526
 20
25.2548
 11
42.4591
 21
24.8131
  0
LINE
  8
0
 10
42.4591
 20
24.8131
 11
41.2727
 21
24.4026
  0
LINE
  8
0
 10
41.2727
 20
24.4026
 11
42.5285
 21
23.8922
  0
LINE
  8
0
 10
42.5285
 20
23.8922
 11
42.6704
 21
23.6839
  0
LINE
  8
0
 10
42.6704
 20
23.6839
 11
42.5087
 21
23.3223
  0
LINE
  8
0
 10
42.5087
 20
23.3223
 11
43.1274
 21
23.0148
  0
LINE
  8
0
 10
43.1274
 20
23.0148
 11
43.8622
 21
21.9788
  0
LINE
  8
0
 10
43.8622
 20
21.9788
 11
42.8192
 21
21.7079
  0
LINE
  8
0
 10
42.8192
 20
21.7079
 11
42.2203
 21
21.8559
  0
LINE
  8
0
 10
42.2203
 20
21.8559
 11
42.1501
 21
21.5607
  0
LINE
  8
0
 10
42.1501
 20
21.5607
 11
41.7824
 21
21.5073
  0
LINE
  8
0
 10
41.7824
 20
21.5073
 11
40.1146
 21
22.3938
  0
LINE
  8
0
 10
40.1146
 20
22.3938
 11
40.3053
 21
21.5271
  0
LINE
  8
0
 10
40.3053
 20
21.5271
 11
40.1009
 21
20.6406
  0
LINE
  8
0
 10
40.1009
 20
20.6406
 11
39.5676
 21
20.8008
  0
LINE
  8
0
 10
39.5676
 20
20.8008
 11
39.0511
 21
21.3882
  0
LINE
  8
0
 10
39.0511
 20
21.3882
 11
38.7604
 21
21.1647
  0
LINE
  8
0
 10
38.7604
 20
21.1647
 11
38.1584
 21
22.0413
  0
LINE
  8
0
 10
38.1584
 20
22.0413
 11
37.8845
 21
24.1249
  0
LINE
  8
0
 10
37.8845
 20
24.1249
 11
37.5
 21
24.4026
  0
LINE
  8
0
 10
37.5
 20
24.4026
 11
37.5
 21
24.0829
  0
LINE
  8
0
 10
37.5
 20
24.0829
 11
36.7661
 21
23.5214
  0
LINE
  8
0
 10
36.7661
 20
23.5214
 11
36.5929
 21
21.814
  0
LINE
  8
0
 10
36.5929
 20
21.814
 11
36.2244
 21
21.0037
  0
LINE
  8
0
 10
36.2244
 20
21.0037
 11
35.9993
 21
20.8206
  0
LINE
  8
0
 10
35.9993
 20
20.8206
 11
35.7666
 21
20.9419
  0
LINE
  8
0
 10
35.7666
 20
20.9419
 11
35.4942
 21
20.5612
  0
LINE
  8
0
 10
35.4942
 20
20.5612
 11
34.7816
 21
20.2248
  0
LINE
  8
0
 10
34.7816
 20
20.2248
 11
34.6085
 21
20.6139
  0
LINE
  8
0
 10
-15.3915
 20
20.6139
 11
-15.3336
 21
21.9421
  0
LINE
  8
0
 10
-15.3336
 20
21.9421
 11
-16.2468
 21
21.4447
  0
LINE
  8
0
 10
-16.2468
 20
21.4447
 11
-16.9128
 21
21.3272
  0
LINE
  8
0
 10
-16.9128
 20
21.3272
 11
-17.2897
 21
21.6278
  0
LINE
  8
0
 10
-17.2897
 20
21.6278
 11
-18.6668
 21
21.8636
  0
LINE
  8
0
 10
-18.6668
 20
21.8636
 11
-17.8001
 21
22.7768
  0
LINE
  8
0
 10
-17.8001
 20
22.7768
 11
-17.672
 21
23.394
  0
LINE
  8
0
 10
-17.672
 20
23.394
 11
-16.5932
 21
23.9418
  0
LINE
  8
0
 10
-16.5932
 20
23.9418
 11
-18.3357
 21
24.9428
  0
LINE
  8
0
 10
-18.3357
 20
24.9428
 11
-18.1541
 21
25.2571
  0
LINE
  8
0
 10
-18.1541
 20
25.2571
 11
-18.8805
 21
25.634
  0
LINE
  8
0
 10
-18.8805
 20
25.634
 11
-19.8334
 21
26.4587
  0
LINE
  8
0
 10
-19.8334
 20
26.4587
 11
-19.648
 21
25.1122
  0
LINE
  8
0
 10
-19.648
 20
25.1122
 11
-19.7586
 21
24.8878
  0
LINE
  8
0
 10
-19.7586
 20
24.8878
 11
-20.1508
 21
24.8489
  0
LINE
  8
0
 10
-20.1508
 20
24.8489
 11
-20.1096
 21
24.157
  0
LINE
  8
0
 10
-20.1096
 20
24.157
 11
-20.6383
 21
23.0042
  0
LINE
  8
0
 10
-20.6383
 20
23.0042
 11
-21.3928
 21
23.7694
  0
LINE
  8
0
 10
-21.3928
 20
23.7694
 11
-21.5652
 21
24.3637
  0
LINE
  8
0
 10
-21.5652
 20
24.3637
 11
-21.8567
 21
24.2775
  0
LINE
  8
0
 10
-21.8567
 20
24.2775
 11
-22.0848
 21
24.5697
  0
LINE
  8
0
 10
-22.0848
 20
24.5697
 11
-22.1527
 21
26.4565
  0
LINE
  8
0
 10
-22.1527
 20
26.4565
 11
-22.8088
 21
25.856
  0
LINE
  8
0
 10
-22.8088
 20
25.856
 11
-23.6755
 21
25.5905
  0
LINE
  8
0
 10
-23.6755
 20
25.5905
 11
-23.8052
 21
26.133
  0
LINE
  8
0
 10
-23.8052
 20
26.133
 11
-23.555
 21
26.8761
  0
LINE
  8
0
 10
-23.555
 20
26.8761
 11
-23.8945
 21
27.0157
  0
LINE
  8
0
 10
-23.8945
 20
27.0157
 11
-23.4383
 21
27.9724
  0
LINE
  8
0
 10
-23.4383
 20
27.9724
 11
-21.7659
 21
29.2557
  0
LINE
  8
0
 10
-21.7659
 20
29.2557
 11
-21.7186
 21
29.7272
  0
LINE
  8
0
 10
-21.7186
 20
29.7272
 11
-21.9963
 21
29.5662
  0
LINE
  8
0
 10
-21.9963
 20
29.5662
 11
-22.847
 21
29.9194
  0
LINE
  8
0
 10
-22.847
 20
29.9194
 11
-24.4217
 21
29.2168
  0
LINE
  8
0
 10
-24.4217
 20
29.2168
 11
-25.2998
 21
29.1328
  0
LINE
  8
0
 10
-25.2998
 20
29.1328
 11
-25.5707
 21
29.2351
  0
LINE
  8
0
 10
-25.5707
 20
29.2351
 11
-25.5829
 21
29.4968
  0
LINE
  8
0
 10
-25.5829
 20
29.4968
 11
-26.0506
 21
29.5425
  0
LINE
  8
0
 10
-26.0506
 20
29.5425
 11
-26.6968
 21
29.9927
  0
LINE
  8
0
 10
-26.6968
 20
29.9927
 11
-26.4465
 21
30.336
  0
LINE
  8
0
 10
-26.4465
 20
30.336
 11
-25.267
 21
30.9502
  0
LINE
  8
0
 10
-25.267
 20
30.9502
 11
-26.1543
 21
31.4903
  0
LINE
  8
0
 10
-26.1543
 20
31.4903
 11
-26.5869
 21
32.0091
  0
LINE
  8
0
 10
-26.5869
 20
32.0091
 11
-26.5175
 21
32.489
  0
LINE
  8
0
 10
-26.5175
 20
32.489
 11
-27.0012
 21
33.7975
  0
LINE
  8
0
 10
-27.0012
 20
33.7975
 11
-25.7828
 21
33.5052
  0
LINE
  8
0
 10
-25.7828
 20
33.5052
 11
-25.1778
 21
33.7006
  0
LINE
  8
0
 10
-25.1778
 20
33.7006
 11
-24.1653
 21
33.0414
  0
LINE
  8
0
 10
-24.1653
 20
33.0414
 11
-24.1699
 21
35.0494
  0
LINE
  8
0
 10
-24.1699
 20
35.0494
 11
-21.1937
 21
35.0494
  0
LINE
  8
0
 10
-21.1937
 20
35.0494
 11
-21.1571
 21
34.2278
  0
LINE
  8
0
 10
-21.1571
 20
34.2278
 11
-21.3959
 21
32.9918
  0
LINE
  8
0
 10
-21.3959
 20
32.9918
 11
-20.3239
 21
33.8264
  0
LINE
  8
0
 10
-20.3239
 20
33.8264
 11
-20.0722
 21
33.8448
  0
LINE
  8
0
 10
-20.0722
 20
33.8448
 11
-19.841
 21
33.522
  0
LINE
  8
0
 10
-19.841
 20
33.522
 11
-19.2635
 21
33.9043
  0
LINE
  8
0
 10
-19.2635
 20
33.9043
 11
-17.9977
 21
34.0233
  0
LINE
  8
0
 10
-17.9977
 20
34.0233
 11
-18.2838
 21
32.9887
  0
LINE
  8
0
 10
-18.2838
 20
32.9887
 11
-18.7149
 21
32.5394
  0
LINE
  8
0
 10
-18.7149
 20
32.5394
 11
-18.4944
 21
32.3326
  0
LINE
  8
0
 10
-18.4944
 20
32.3326
 11
-18.6317
 21
31.9862
  0
LINE
  8
0
 10
-18.6317
 20
31.9862
 11
-20.2339
 21
30.9868
  0
LINE
  8
0
 10
-20.2339
 20
30.9868
 11
-19.6968
 21
30.8167
  0
LINE
  8
0
 10
-19.6968
 20
30.8167
 11
-18.7538
 21
31.3309
  0
LINE
  8
0
 10
-18.7538
 20
31.3309
 11
-18.0878
 21
31.4484
  0
LINE
  8
0
 10
-18.0878
 20
31.4484
 11
-17.7109
 21
31.1478
  0
LINE
  8
0
 10
-17.7109
 20
31.1478
 11
-16.333
 21
30.9113
  0
LINE
  8
0
 10
-16.333
 20
30.9113
 11
-17.1997
 21
29.9988
  0
LINE
  8
0
 10
-17.1997
 20
29.9988
 11
-17.3286
 21
29.3816
  0
LINE
  8
0
 10
-17.3286
 20
29.3816
 11
-18.4074
 21
28.833
  0
LINE
  8
0
 10
-18.4074
 20
28.833
 11
-16.6649
 21
27.832
  0
LINE
  8
0
 10
-16.6649
 20
27.832
 11
-16.8449
 21
27.5192
  0
LINE
  8
0
 10
-16.8449
 20
27.5192
 11
-16.1179
 21
27.1393
  0
LINE
  8
0
 10
-16.1179
 20
27.1393
 11
-15.168
 21
26.3161
  0
LINE
  8
0
 10
-15.168
 20
26.3161
 11
-15.3526
 21
27.6619
  0
LINE
  8
0
 10
-15.3526
 20
27.6619
 11
-15.2435
 21
27.8877
  0
LINE
  8
0
 10
-15.2435
 20
27.8877
 11
-14.8491
 21
27.9266
  0
LINE
  8
0
 10
-14.8491
 20
27.9266
 11
-14.8903
 21
28.6186
  0
LINE
  8
0
 10
-14.8903
 20
28.6186
 11
-14.3616
 21
29.7722
  0
LINE
  8
0
 10
-14.3616
 20
29.7722
 11
-13.607
 21
29.007
  0
LINE
  8
0
 10
-13.607
 20
29.007
 11
-13.4346
 21
28.4126
  0
LINE
  8
0
 10
-13.4346
 20
28.4126
 11
-13.1424
 21
28.4988
  0
LINE
  8
0
 10
-13.1424
 20
28.4988
 11
-12.9158
 21
28.2066
  0
LINE
  8
0
 10
-12.9158
 20
28.2066
 11
-12.8479
 21
26.3191
  0
LINE
  8
0
 10
-12.8479
 20
26.3191
 11
-12.4352
 21
26.6968
  0
LINE
  8
0
 10
-12.4352
 20
26.6968
 11
-12.4092
 21
27.7748
  0
LINE
  8
0
 10
-12.4092
 20
27.7748
 11
-12.1758
 21
28.4096
  0
LINE
  8
0
 10
-12.1758
 20
28.4096
 11
-11.7294
 21
28.5858
  0
LINE
  8
0
 10
-11.7294
 20
28.5858
 11
-10.8337
 21
29.6593
  0
LINE
  8
0
 10
-10.8337
 20
29.6593
 11
-10.4752
 21
28.4576
  0
LINE
  8
0
 10
-10.4752
 20
28.4576
 11
-10.0052
 21
28.035
  0
LINE
  8
0
 10
-10.0052
 20
28.035
 11
-10.0708
 21
26.825
  0
LINE
  8
0
 10
-10.0708
 20
26.825
 11
-8.33206
 21
27.8336
  0
LINE
  8
0
 10
-8.33206
 20
27.8336
 11
-8.15125
 21
27.52
  0
LINE
  8
0
 10
-8.15125
 20
27.52
 11
-7.46078
 21
27.9625
  0
LINE
  8
0
 10
-7.46078
 20
27.9625
 11
-6.26984
 21
28.3722
  0
LINE
  8
0
 10
-6.26984
 20
28.3722
 11
-7.52792
 21
28.8834
  0
LINE
  8
0
 10
-7.52792
 20
28.8834
 11
-7.66983
 21
29.0916
  0
LINE
  8
0
 10
-7.66983
 20
29.0916
 11
-7.50809
 21
29.4533
  0
LINE
  8
0
 10
-7.50809
 20
29.4533
 11
-8.12607
 21
29.7607
  0
LINE
  8
0
 10
-8.12607
 20
29.7607
 11
-8.86154
 21
30.7976
  0
LINE
  8
0
 10
-8.86154
 20
30.7976
 11
-7.8186
 21
31.0684
  0
LINE
  8
0
 10
-7.8186
 20
31.0684
 11
-7.2197
 21
30.9204
  0
LINE
  8
0
 10
-7.2197
 20
30.9204
 11
-7.14951
 21
31.2157
  0
LINE
  8
0
 10
-7.14951
 20
31.2157
 11
-6.78177
 21
31.2691
  0
LINE
  8
0
 10
-6.78177
 20
31.2691
 11
-5.11398
 21
30.3818
  0
LINE
  8
0
 10
-5.11398
 20
30.3818
 11
-5.21469
 21
30.8403
  0
LINE
  8
0
 10
-5.21469
 20
30.8403
 11
-5.34668
 21
30.9067
  0
LINE
  8
0
 10
-5.34668
 20
30.9067
 11
-5.26581
 21
30.9494
  0
LINE
  8
0
 10
-5.26581
 20
30.9494
 11
-6.15387
 21
31.4903
  0
LINE
  8
0
 10
-6.15387
 20
31.4903
 11
-6.58646
 21
32.0091
  0
LINE
  8
0
 10
-6.58646
 20
32.0091
 11
-6.51703
 21
32.489
  0
LINE
  8
0
 10
-6.51703
 20
32.489
 11
-7.00073
 21
33.7975
  0
LINE
  8
0
 10
-7.00073
 20
33.7975
 11
-5.78232
 21
33.5052
  0
LINE
  8
0
 10
-5.78232
 20
33.5052
 11
-5.17731
 21
33.7006
  0
LINE
  8
0
 10
-5.17731
 20
33.7006
 11
-4.16412
 21
33.0414
  0
LINE
  8
0
 10
-4.16412
 20
33.0414
 11
-4.1687
 21
35.0494
  0
LINE
  8
0
 10
-4.1687
 20
35.0494
 11
-1.19324
 21
35.0494
  0
LINE
  8
0
 10
-1.19324
 20
35.0494
 11
-1.15662
 21
34.2278
  0
LINE
  8
0
 10
-1.15662
 20
34.2278
 11
-1.39465
 21
32.9926
  0
LINE
  8
0
 10
-1.39465
 20
32.9926
 11
-0.323486
 21
33.8264
  0
LINE
  8
0
 10
-0.323486
 20
33.8264
 11
-0.0717163
 21
33.8448
  0
LINE
  8
0
 10
-0.0717163
 20
33.8448
 11
0.158691
 21
33.5228
  0
LINE
  8
0
 10
0.158691
 20
33.5228
 11
0.737
 21
33.9043
  0
LINE
  8
0
 10
0.737
 20
33.9043
 11
2.00119
 21
34.0233
  0
LINE
  8
0
 10
2.00119
 20
34.0233
 11
1.71585
 21
32.9887
  0
LINE
  8
0
 10
1.71585
 20
32.9887
 11
1.28479
 21
32.5394
  0
LINE
  8
0
 10
1.28479
 20
32.5394
 11
1.50528
 21
32.3326
  0
LINE
  8
0
 10
1.50528
 20
32.3326
 11
1.36795
 21
31.9862
  0
LINE
  8
0
 10
1.36795
 20
31.9862
 11
-0.233459
 21
30.986
  0
LINE
  8
0
 10
-0.233459
 20
30.986
 11
0.614166
 21
30.7175
  0
LINE
  8
0
 10
0.614166
 20
30.7175
 11
1.27869
 21
30.0972
  0
LINE
  8
0
 10
1.27869
 20
30.0972
 11
0.87204
 21
29.7165
  0
LINE
  8
0
 10
0.87204
 20
29.7165
 11
0.105286
 21
29.5616
  0
LINE
  8
0
 10
0.105286
 20
29.5616
 11
0.153351
 21
29.1985
  0
LINE
  8
0
 10
0.153351
 20
29.1985
 11
-0.908661
 21
29.1153
  0
LINE
  8
0
 10
-0.908661
 20
29.1153
 11
-2.84576
 21
29.9194
  0
LINE
  8
0
 10
-2.84576
 20
29.9194
 11
-3.27911
 21
29.7256
  0
LINE
  8
0
 10
-3.27911
 20
29.7256
 11
-3.00369
 21
29.5654
  0
LINE
  8
0
 10
-3.00369
 20
29.5654
 11
-2.88315
 21
28.6507
  0
LINE
  8
0
 10
-2.88315
 20
28.6507
 11
-1.49384
 21
27.6474
  0
LINE
  8
0
 10
-1.49384
 20
27.6474
 11
-0.972748
 21
26.9165
  0
LINE
  8
0
 10
-0.972748
 20
26.9165
 11
-0.928497
 21
26.6357
  0
LINE
  8
0
 10
-0.928497
 20
26.6357
 11
-1.15051
 21
26.4938
  0
LINE
  8
0
 10
-1.15051
 20
26.4938
 11
-0.958252
 21
26.0681
  0
LINE
  8
0
 10
-0.958252
 20
26.0681
 11
-1.02386
 21
25.2823
  0
LINE
  8
0
 10
-1.02386
 20
25.2823
 11
-1.44272
 21
25.3265
  0
LINE
  8
0
 10
-1.44272
 20
25.3265
 11
-2.56653
 21
26.0406
  0
LINE
  8
0
 10
-2.56653
 20
26.0406
 11
-2.59247
 21
25.0008
  0
LINE
  8
0
 10
-2.59247
 20
25.0008
 11
-2.82364
 21
24.366
  0
LINE
  8
0
 10
-2.82364
 20
24.366
 11
-3.26996
 21
24.1898
  0
LINE
  8
0
 10
-3.26996
 20
24.1898
 11
-4.16489
 21
23.1171
  0
LINE
  8
0
 10
-4.16489
 20
23.1171
 11
-4.52347
 21
24.3187
  0
LINE
  8
0
 10
-4.52347
 20
24.3187
 11
-4.9942
 21
24.7414
  0
LINE
  8
0
 10
-4.9942
 20
24.7414
 11
-4.92783
 21
25.9499
  0
LINE
  8
0
 10
-4.92783
 20
25.9499
 11
-6.66656
 21
24.9413
  0
LINE
  8
0
 10
-6.66656
 20
24.9413
 11
-6.84738
 21
25.2548
  0
LINE
  8
0
 10
-6.84738
 20
25.2548
 11
-7.54089
 21
24.8131
  0
LINE
  8
0
 10
-7.54089
 20
24.8131
 11
-8.72726
 21
24.4026
  0
LINE
  8
0
 10
-8.72726
 20
24.4026
 11
-7.47147
 21
23.8922
  0
LINE
  8
0
 10
-7.47147
 20
23.8922
 11
-7.32956
 21
23.6839
  0
LINE
  8
0
 10
-7.32956
 20
23.6839
 11
-7.4913
 21
23.3223
  0
LINE
  8
0
 10
-7.4913
 20
23.3223
 11
-6.87256
 21
23.0148
  0
LINE
  8
0
 10
-6.87256
 20
23.0148
 11
-6.13785
 21
21.9788
  0
LINE
  8
0
 10
-6.13785
 20
21.9788
 11
-7.18079
 21
21.7079
  0
LINE
  8
0
 10
-7.18079
 20
21.7079
 11
-7.77969
 21
21.8559
  0
LINE
  8
0
 10
-7.77969
 20
21.8559
 11
-7.84988
 21
21.5607
  0
LINE
  8
0
 10
-7.84988
 20
21.5607
 11
-8.21762
 21
21.5073
  0
LINE
  8
0
 10
-8.21762
 20
21.5073
 11
-9.88541
 21
22.3938
  0
LINE
  8
0
 10
-9.88541
 20
22.3938
 11
-9.69467
 21
21.5271
  0
LINE
  8
0
 10
-9.69467
 20
21.5271
 11
-9.89914
 21
20.6406
  0
LINE
  8
0
 10
-9.89914
 20
20.6406
 11
-10.4324
 21
20.8008
  0
LINE
  8
0
 10
-10.4324
 20
20.8008
 11
-10.9489
 21
21.3882
  0
LINE
  8
0
 10
-10.9489
 20
21.3882
 11
-11.2396
 21
21.1647
  0
LINE
  8
0
 10
-11.2396
 20
21.1647
 11
-11.8416
 21
22.0413
  0
LINE
  8
0
 10
-11.8416
 20
22.0413
 11
-12.1155
 21
24.1249
  0
LINE
  8
0
 10
-12.1155
 20
24.1249
 11
-12.5
 21
24.4026
  0
LINE
  8
0
 10
-12.5
 20
24.4026
 11
-12.5
 21
24.0829
  0
LINE
  8
0
 10
-12.5
 20
24.0829
 11
-13.2339
 21
23.5214
  0
LINE
  8
0
 10
-13.2339
 20
23.5214
 11
-13.4071
 21
21.814
  0
LINE
  8
0
 10
-13.4071
 20
21.814
 11
-13.7756
 21
21.0037
  0
LINE
  8
0
 10
-13.7756
 20
21.0037
 11
-14.0007
 21
20.8206
  0
LINE
  8
0
 10
-14.0007
 20
20.8206
 11
-14.2334
 21
20.9419
  0
LINE
  8
0
 10
-14.2334
 20
20.9419
 11
-14.5058
 21
20.5612
  0
LINE
  8
0
 10
-14.5058
 20
20.5612
 11
-15.2184
 21
20.2248
  0
LINE
  8
0
 10
-15.2184
 20
20.2248
 11
-15.3915
 21
20.6139
  0
LINE
  8
0
 10
-52.683
 20
29.8519
 11
-51.1692
 21
34.5107
  0
LINE
  8
0
 10
-51.1692
 20
34.5107
 11
-51.1566
 21
34.2278
  0
LINE
  8
0
 10
-51.1566
 20
34.2278
 11
-51.3947
 21
32.9926
  0
LINE
  8
0
 10
-51.3947
 20
32.9926
 11
-50.3235
 21
33.8264
  0
LINE
  8
0
 10
-50.3235
 20
33.8264
 11
-50.0717
 21
33.8448
  0
LINE
  8
0
 10
-50.0717
 20
33.8448
 11
-49.8413
 21
33.5228
  0
LINE
  8
0
 10
-49.8413
 20
33.5228
 11
-49.263
 21
33.9043
  0
LINE
  8
0
 10
-49.263
 20
33.9043
 11
-47.9988
 21
34.0233
  0
LINE
  8
0
 10
-47.9988
 20
34.0233
 11
-48.2841
 21
32.9887
  0
LINE
  8
0
 10
-48.2841
 20
32.9887
 11
-48.7152
 21
32.5394
  0
LINE
  8
0
 10
-48.7152
 20
32.5394
 11
-48.4947
 21
32.3326
  0
LINE
  8
0
 10
-48.4947
 20
32.3326
 11
-48.632
 21
31.9862
  0
LINE
  8
0
 10
-48.632
 20
31.9862
 11
-50.2335
 21
30.986
  0
LINE
  8
0
 10
-50.2335
 20
30.986
 11
-49.3858
 21
30.7175
  0
LINE
  8
0
 10
-49.3858
 20
30.7175
 11
-48.7213
 21
30.0972
  0
LINE
  8
0
 10
-48.7213
 20
30.0972
 11
-49.128
 21
29.7165
  0
LINE
  8
0
 10
-49.128
 20
29.7165
 11
-49.8947
 21
29.5616
  0
LINE
  8
0
 10
-49.8947
 20
29.5616
 11
-49.8466
 21
29.1985
  0
LINE
  8
0
 10
-49.8466
 20
29.1985
 11
-50.9087
 21
29.1153
  0
LINE
  8
0
 10
-50.9087
 20
29.1153
 11
-52.683
 21
29.8519
  0
LINE
  8
0
 10
-54.5031
 20
24.2503
 11
-52.938
 21
29.067
  0
LINE
  8
0
 10
-52.938
 20
29.067
 11
-52.8831
 21
28.6507
  0
LINE
  8
0
 10
-52.8831
 20
28.6507
 11
-51.4938
 21
27.6474
  0
LINE
  8
0
 10
-51.4938
 20
27.6474
 11
-50.9727
 21
26.9165
  0
LINE
  8
0
 10
-50.9727
 20
26.9165
 11
-50.9285
 21
26.6357
  0
LINE
  8
0
 10
-50.9285
 20
26.6357
 11
-51.1505
 21
26.4938
  0
LINE
  8
0
 10
-51.1505
 20
26.4938
 11
-50.9583
 21
26.0681
  0
LINE
  8
0
 10
-50.9583
 20
26.0681
 11
-51.0239
 21
25.2823
  0
LINE
  8
0
 10
-51.0239
 20
25.2823
 11
-51.4427
 21
25.3265
  0
LINE
  8
0
 10
-51.4427
 20
25.3265
 11
-52.5665
 21
26.0406
  0
LINE
  8
0
 10
-52.5665
 20
26.0406
 11
-52.5925
 21
25.0008
  0
LINE
  8
0
 10
-52.5925
 20
25.0008
 11
-52.8236
 21
24.366
  0
LINE
  8
0
 10
-52.8236
 20
24.366
 11
-53.27
 21
24.1898
  0
LINE
  8
0
 10
-53.27
 20
24.1898
 11
-54.1649
 21
23.1171
  0
LINE
  8
0
 10
-54.1649
 20
23.1171
 11
-54.5031
 21
24.2503
  0
LINE
  8
0
 10
13.607
 20
15.1085
 11
13.4346
 21
15.7036
  0
LINE
  8
0
 10
13.4346
 20
15.7036
 11
13.1432
 21
15.6174
  0
LINE
  8
0
 10
13.1432
 20
15.6174
 11
12.9158
 21
15.9088
  0
LINE
  8
0
 10
12.9158
 20
15.9088
 11
12.8479
 21
17.7971
  0
LINE
  8
0
 10
12.8479
 20
17.7971
 11
12.4992
 21
17.4782
  0
LINE
  8
0
 10
12.4992
 20
17.4782
 11
12.4992
 21
17.3431
  0
LINE
  8
0
 10
12.4992
 20
17.3431
 11
12.4329
 21
17.382
  0
LINE
  8
0
 10
12.4329
 20
17.382
 11
12.4069
 21
16.3406
  0
LINE
  8
0
 10
12.4069
 20
16.3406
 11
12.1758
 21
15.7059
  0
LINE
  8
0
 10
12.1758
 20
15.7059
 11
11.7294
 21
15.5296
  0
LINE
  8
0
 10
11.7294
 20
15.5296
 11
10.8337
 21
14.4569
  0
LINE
  8
0
 10
10.8337
 20
14.4569
 11
10.4767
 21
15.6601
  0
LINE
  8
0
 10
10.4767
 20
15.6601
 11
10.0052
 21
16.082
  0
LINE
  8
0
 10
10.0052
 20
16.082
 11
10.0708
 21
17.2897
  0
LINE
  8
0
 10
10.0708
 20
17.2897
 11
7.98492
 21
16.0789
  0
LINE
  8
0
 10
7.98492
 20
16.0789
 11
7.81555
 21
16.4551
  0
LINE
  8
0
 10
7.81555
 20
16.4551
 11
7.21741
 21
16.1819
  0
LINE
  8
0
 10
7.21741
 20
16.1819
 11
6.95801
 21
16.4009
  0
LINE
  8
0
 10
6.95801
 20
16.4009
 11
5.92041
 21
16.2964
  0
LINE
  8
0
 10
5.92041
 20
16.2964
 11
5.99594
 21
16.8556
  0
LINE
  8
0
 10
5.99594
 20
16.8556
 11
6.29501
 21
17.2424
  0
LINE
  8
0
 10
6.29501
 20
17.2424
 11
6.21567
 21
17.643
  0
LINE
  8
0
 10
6.21567
 20
17.643
 11
6.9809
 21
18.1877
  0
LINE
  8
0
 10
6.9809
 20
18.1877
 11
6.52008
 21
18.6516
  0
LINE
  8
0
 10
6.52008
 20
18.6516
 11
7.54089
 21
19.3024
  0
LINE
  8
0
 10
7.54089
 20
19.3024
 11
8.72955
 21
19.7121
  0
LINE
  8
0
 10
8.72955
 20
19.7121
 11
7.47147
 21
20.2232
  0
LINE
  8
0
 10
7.47147
 20
20.2232
 11
7.33032
 21
20.4315
  0
LINE
  8
0
 10
7.33032
 20
20.4315
 11
7.4913
 21
20.7932
  0
LINE
  8
0
 10
7.4913
 20
20.7932
 11
6.87256
 21
21.1014
  0
LINE
  8
0
 10
6.87256
 20
21.1014
 11
6.13785
 21
22.1375
  0
LINE
  8
0
 10
6.13785
 20
22.1375
 11
7.17926
 21
22.4083
  0
LINE
  8
0
 10
7.17926
 20
22.4083
 11
7.77969
 21
22.2595
  0
LINE
  8
0
 10
7.77969
 20
22.2595
 11
7.84988
 21
22.5548
  0
LINE
  8
0
 10
7.84988
 20
22.5548
 11
8.21533
 21
22.6089
  0
LINE
  8
0
 10
8.21533
 20
22.6089
 11
9.88541
 21
21.7216
  0
LINE
  8
0
 10
9.88541
 20
21.7216
 11
9.78088
 21
22.1977
  0
LINE
  8
0
 10
9.78088
 20
22.1977
 11
9.70459
 21
22.2748
  0
LINE
  8
0
 10
9.70459
 20
22.2748
 11
9.73206
 21
22.2893
  0
LINE
  8
0
 10
9.73206
 20
22.2893
 11
8.84552
 21
22.8302
  0
LINE
  8
0
 10
8.84552
 20
22.8302
 11
8.41293
 21
23.349
  0
LINE
  8
0
 10
8.41293
 20
23.349
 11
8.48236
 21
23.8289
  0
LINE
  8
0
 10
8.48236
 20
23.8289
 11
7.99866
 21
25.1381
  0
LINE
  8
0
 10
7.99866
 20
25.1381
 11
9.21783
 21
24.8444
  0
LINE
  8
0
 10
9.21783
 20
24.8444
 11
9.82285
 21
25.0404
  0
LINE
  8
0
 10
9.82285
 20
25.0404
 11
10.8353
 21
24.3813
  0
LINE
  8
0
 10
10.8353
 20
24.3813
 11
10.8292
 21
26.7929
  0
LINE
  8
0
 10
10.8292
 20
26.7929
 11
11.2396
 21
26.7494
  0
LINE
  8
0
 10
11.2396
 20
26.7494
 11
11.3052
 21
27.4055
  0
LINE
  8
0
 10
11.3052
 20
27.4055
 11
11.6226
 21
27.5185
  0
LINE
  8
0
 10
11.6226
 20
27.5185
 11
12.0522
 21
28.4721
  0
LINE
  8
0
 10
12.0522
 20
28.4721
 11
12.4969
 21
28.1258
  0
LINE
  8
0
 10
12.4969
 20
28.1258
 11
12.6816
 21
27.6741
  0
LINE
  8
0
 10
12.6816
 20
27.6741
 11
13.0699
 21
27.5429
  0
LINE
  8
0
 10
13.0699
 20
27.5429
 11
13.1577
 21
26.6075
  0
LINE
  8
0
 10
13.1577
 20
26.6075
 11
13.7894
 21
26.7738
  0
LINE
  8
0
 10
13.7894
 20
26.7738
 11
13.8428
 21
25.5676
  0
LINE
  8
0
 10
13.8428
 20
25.5676
 11
13.6047
 21
24.3324
  0
LINE
  8
0
 10
13.6047
 20
24.3324
 11
14.6759
 21
25.1663
  0
LINE
  8
0
 10
14.6759
 20
25.1663
 11
14.9284
 21
25.1839
  0
LINE
  8
0
 10
14.9284
 20
25.1839
 11
15.1588
 21
24.8619
  0
LINE
  8
0
 10
15.1588
 20
24.8619
 11
15.7372
 21
25.2434
  0
LINE
  8
0
 10
15.7372
 20
25.2434
 11
17.0013
 21
25.3632
  0
LINE
  8
0
 10
17.0013
 20
25.3632
 11
16.716
 21
24.3286
  0
LINE
  8
0
 10
16.716
 20
24.3286
 11
16.2849
 21
23.8792
  0
LINE
  8
0
 10
16.2849
 20
23.8792
 11
16.5054
 21
23.6725
  0
LINE
  8
0
 10
16.5054
 20
23.6725
 11
16.3681
 21
23.3261
  0
LINE
  8
0
 10
16.3681
 20
23.3261
 11
14.7652
 21
22.3251
  0
LINE
  8
0
 10
14.7652
 20
22.3251
 11
15.2115
 21
22.1848
  0
LINE
  8
0
 10
15.2115
 20
22.1848
 11
15.3381
 21
22.2687
  0
LINE
  8
0
 10
15.3381
 20
22.2687
 11
15.3343
 21
22.1748
  0
LINE
  8
0
 10
15.3343
 20
22.1748
 11
16.2468
 21
22.6707
  0
LINE
  8
0
 10
16.2468
 20
22.6707
 11
16.9144
 21
22.7882
  0
LINE
  8
0
 10
16.9144
 20
22.7882
 11
17.2897
 21
22.4869
  0
LINE
  8
0
 10
17.2897
 20
22.4869
 11
18.6668
 21
22.2519
  0
LINE
  8
0
 10
18.6668
 20
22.2519
 11
17.8001
 21
21.3394
  0
LINE
  8
0
 10
17.8001
 20
21.3394
 11
17.6735
 21
20.7214
  0
LINE
  8
0
 10
17.6735
 20
20.7214
 11
16.5947
 21
20.1736
  0
LINE
  8
0
 10
16.5947
 20
20.1736
 11
18.6844
 21
18.972
  0
LINE
  8
0
 10
18.6844
 20
18.972
 11
18.4441
 21
18.6378
  0
LINE
  8
0
 10
18.4441
 20
18.6378
 11
18.9781
 21
18.2541
  0
LINE
  8
0
 10
18.9781
 20
18.2541
 11
18.9186
 21
17.9237
  0
LINE
  8
0
 10
18.9186
 20
17.9237
 11
19.529
 21
17.0753
  0
LINE
  8
0
 10
19.529
 20
17.0753
 11
19.0063
 21
16.861
  0
LINE
  8
0
 10
19.0063
 20
16.861
 11
18.5226
 21
16.9273
  0
LINE
  8
0
 10
18.5226
 20
16.9273
 11
18.2152
 21
16.658
  0
LINE
  8
0
 10
18.2152
 20
16.658
 11
17.3607
 21
17.0479
  0
LINE
  8
0
 10
17.3607
 20
17.0479
 11
17.1898
 21
16.4177
  0
LINE
  8
0
 10
17.1898
 20
16.4177
 11
16.1201
 21
16.9739
  0
LINE
  8
0
 10
16.1201
 20
16.9739
 11
15.1665
 21
17.7986
  0
LINE
  8
0
 10
15.1665
 20
17.7986
 11
15.3519
 21
16.452
  0
LINE
  8
0
 10
15.3519
 20
16.452
 11
15.2428
 21
16.2285
  0
LINE
  8
0
 10
15.2428
 20
16.2285
 11
14.8491
 21
16.1896
  0
LINE
  8
0
 10
14.8491
 20
16.1896
 11
14.8895
 21
15.4961
  0
LINE
  8
0
 10
14.8895
 20
15.4961
 11
14.3616
 21
14.341
  0
LINE
  8
0
 10
14.3616
 20
14.341
 11
13.607
 21
15.1085
  0
LINE
  8
0
 10
12.5
 20
20.0325
 11
13.2347
 21
20.594
  0
LINE
  8
0
 10
13.2347
 20
20.594
 11
13.282
 21
21.0648
  0
LINE
  8
0
 10
13.282
 20
21.0648
 11
13.0028
 21
20.9061
  0
LINE
  8
0
 10
13.0028
 20
20.9061
 11
12.1536
 21
21.2593
  0
LINE
  8
0
 10
12.1536
 20
21.2593
 11
11.7195
 21
21.0648
  0
LINE
  8
0
 10
11.7195
 20
21.0648
 11
11.9949
 21
20.9053
  0
LINE
  8
0
 10
11.9949
 20
20.9053
 11
12.1155
 21
19.9905
  0
LINE
  8
0
 10
12.1155
 20
19.9905
 11
12.4992
 21
19.7136
  0
LINE
  8
0
 10
12.4992
 20
19.7136
 11
12.5
 21
20.0325
  0
LINE
  8
0
 10
-36.393
 20
15.1085
 11
-36.5654
 21
15.7036
  0
LINE
  8
0
 10
-36.5654
 20
15.7036
 11
-36.8568
 21
15.6174
  0
LINE
  8
0
 10
-36.8568
 20
15.6174
 11
-37.0842
 21
15.9088
  0
LINE
  8
0
 10
-37.0842
 20
15.9088
 11
-37.1521
 21
17.7971
  0
LINE
  8
0
 10
-37.1521
 20
17.7971
 11
-37.5008
 21
17.4782
  0
LINE
  8
0
 10
-37.5008
 20
17.4782
 11
-37.5008
 21
17.3431
  0
LINE
  8
0
 10
-37.5008
 20
17.3431
 11
-37.5671
 21
17.382
  0
LINE
  8
0
 10
-37.5671
 20
17.382
 11
-37.5931
 21
16.3406
  0
LINE
  8
0
 10
-37.5931
 20
16.3406
 11
-37.8242
 21
15.7059
  0
LINE
  8
0
 10
-37.8242
 20
15.7059
 11
-38.2706
 21
15.5296
  0
LINE
  8
0
 10
-38.2706
 20
15.5296
 11
-39.1663
 21
14.4569
  0
LINE
  8
0
 10
-39.1663
 20
14.4569
 11
-39.5233
 21
15.6601
  0
LINE
  8
0
 10
-39.5233
 20
15.6601
 11
-39.9948
 21
16.082
  0
LINE
  8
0
 10
-39.9948
 20
16.082
 11
-39.9292
 21
17.2897
  0
LINE
  8
0
 10
-39.9292
 20
17.2897
 11
-42.0151
 21
16.0789
  0
LINE
  8
0
 10
-42.0151
 20
16.0789
 11
-42.1844
 21
16.4551
  0
LINE
  8
0
 10
-42.1844
 20
16.4551
 11
-42.7826
 21
16.1819
  0
LINE
  8
0
 10
-42.7826
 20
16.1819
 11
-43.042
 21
16.4009
  0
LINE
  8
0
 10
-43.042
 20
16.4009
 11
-44.0796
 21
16.2964
  0
LINE
  8
0
 10
-44.0796
 20
16.2964
 11
-44.0041
 21
16.8556
  0
LINE
  8
0
 10
-44.0041
 20
16.8556
 11
-43.705
 21
17.2424
  0
LINE
  8
0
 10
-43.705
 20
17.2424
 11
-43.7843
 21
17.643
  0
LINE
  8
0
 10
-43.7843
 20
17.643
 11
-43.0191
 21
18.1877
  0
LINE
  8
0
 10
-43.0191
 20
18.1877
 11
-43.4799
 21
18.6516
  0
LINE
  8
0
 10
-43.4799
 20
18.6516
 11
-42.4591
 21
19.3024
  0
LINE
  8
0
 10
-42.4591
 20
19.3024
 11
-41.2704
 21
19.7121
  0
LINE
  8
0
 10
-41.2704
 20
19.7121
 11
-42.5285
 21
20.2232
  0
LINE
  8
0
 10
-42.5285
 20
20.2232
 11
-42.6697
 21
20.4315
  0
LINE
  8
0
 10
-42.6697
 20
20.4315
 11
-42.5087
 21
20.7932
  0
LINE
  8
0
 10
-42.5087
 20
20.7932
 11
-43.1274
 21
21.1014
  0
LINE
  8
0
 10
-43.1274
 20
21.1014
 11
-43.8622
 21
22.1375
  0
LINE
  8
0
 10
-43.8622
 20
22.1375
 11
-42.8207
 21
22.4083
  0
LINE
  8
0
 10
-42.8207
 20
22.4083
 11
-42.2203
 21
22.2595
  0
LINE
  8
0
 10
-42.2203
 20
22.2595
 11
-42.1501
 21
22.5548
  0
LINE
  8
0
 10
-42.1501
 20
22.5548
 11
-41.7847
 21
22.6089
  0
LINE
  8
0
 10
-41.7847
 20
22.6089
 11
-40.1146
 21
21.7216
  0
LINE
  8
0
 10
-40.1146
 20
21.7216
 11
-40.2191
 21
22.1977
  0
LINE
  8
0
 10
-40.2191
 20
22.1977
 11
-40.2954
 21
22.2748
  0
LINE
  8
0
 10
-40.2954
 20
22.2748
 11
-40.2679
 21
22.2893
  0
LINE
  8
0
 10
-40.2679
 20
22.2893
 11
-41.1545
 21
22.8302
  0
LINE
  8
0
 10
-41.1545
 20
22.8302
 11
-41.5871
 21
23.349
  0
LINE
  8
0
 10
-41.5871
 20
23.349
 11
-41.5176
 21
23.8289
  0
LINE
  8
0
 10
-41.5176
 20
23.8289
 11
-42.0013
 21
25.1381
  0
LINE
  8
0
 10
-42.0013
 20
25.1381
 11
-40.7822
 21
24.8444
  0
LINE
  8
0
 10
-40.7822
 20
24.8444
 11
-40.1772
 21
25.0404
  0
LINE
  8
0
 10
-40.1772
 20
25.0404
 11
-39.1647
 21
24.3813
  0
LINE
  8
0
 10
-39.1647
 20
24.3813
 11
-39.1708
 21
26.7929
  0
LINE
  8
0
 10
-39.1708
 20
26.7929
 11
-38.7604
 21
26.7494
  0
LINE
  8
0
 10
-38.7604
 20
26.7494
 11
-38.6948
 21
27.4055
  0
LINE
  8
0
 10
-38.6948
 20
27.4055
 11
-38.3774
 21
27.5185
  0
LINE
  8
0
 10
-38.3774
 20
27.5185
 11
-37.9478
 21
28.4721
  0
LINE
  8
0
 10
-37.9478
 20
28.4721
 11
-37.5031
 21
28.1258
  0
LINE
  8
0
 10
-37.5031
 20
28.1258
 11
-37.3184
 21
27.6741
  0
LINE
  8
0
 10
-37.3184
 20
27.6741
 11
-36.9301
 21
27.5429
  0
LINE
  8
0
 10
-36.9301
 20
27.5429
 11
-36.8423
 21
26.6075
  0
LINE
  8
0
 10
-36.8423
 20
26.6075
 11
-36.2106
 21
26.7738
  0
LINE
  8
0
 10
-36.2106
 20
26.7738
 11
-36.1572
 21
25.5676
  0
LINE
  8
0
 10
-36.1572
 20
25.5676
 11
-36.3953
 21
24.3324
  0
LINE
  8
0
 10
-36.3953
 20
24.3324
 11
-35.3241
 21
25.1663
  0
LINE
  8
0
 10
-35.3241
 20
25.1663
 11
-35.0716
 21
25.1839
  0
LINE
  8
0
 10
-35.0716
 20
25.1839
 11
-34.8412
 21
24.8619
  0
LINE
  8
0
 10
-34.8412
 20
24.8619
 11
-34.2628
 21
25.2434
  0
LINE
  8
0
 10
-34.2628
 20
25.2434
 11
-32.9987
 21
25.3632
  0
LINE
  8
0
 10
-32.9987
 20
25.3632
 11
-33.284
 21
24.3286
  0
LINE
  8
0
 10
-33.284
 20
24.3286
 11
-33.7151
 21
23.8792
  0
LINE
  8
0
 10
-33.7151
 20
23.8792
 11
-33.4946
 21
23.6725
  0
LINE
  8
0
 10
-33.4946
 20
23.6725
 11
-33.6319
 21
23.3261
  0
LINE
  8
0
 10
-33.6319
 20
23.3261
 11
-35.2348
 21
22.3251
  0
LINE
  8
0
 10
-35.2348
 20
22.3251
 11
-34.7885
 21
22.1848
  0
LINE
  8
0
 10
-34.7885
 20
22.1848
 11
-34.6619
 21
22.2687
  0
LINE
  8
0
 10
-34.6619
 20
22.2687
 11
-34.6657
 21
22.1748
  0
LINE
  8
0
 10
-34.6657
 20
22.1748
 11
-33.7532
 21
22.6707
  0
LINE
  8
0
 10
-33.7532
 20
22.6707
 11
-33.0856
 21
22.7882
  0
LINE
  8
0
 10
-33.0856
 20
22.7882
 11
-32.7103
 21
22.4869
  0
LINE
  8
0
 10
-32.7103
 20
22.4869
 11
-31.3332
 21
22.2519
  0
LINE
  8
0
 10
-31.3332
 20
22.2519
 11
-32.1999
 21
21.3394
  0
LINE
  8
0
 10
-32.1999
 20
21.3394
 11
-32.3265
 21
20.7214
  0
LINE
  8
0
 10
-32.3265
 20
20.7214
 11
-33.4053
 21
20.1736
  0
LINE
  8
0
 10
-33.4053
 20
20.1736
 11
-31.3156
 21
18.972
  0
LINE
  8
0
 10
-31.3156
 20
18.972
 11
-31.5559
 21
18.6378
  0
LINE
  8
0
 10
-31.5559
 20
18.6378
 11
-31.0219
 21
18.2541
  0
LINE
  8
0
 10
-31.0219
 20
18.2541
 11
-31.0814
 21
17.9237
  0
LINE
  8
0
 10
-31.0814
 20
17.9237
 11
-30.471
 21
17.0753
  0
LINE
  8
0
 10
-30.471
 20
17.0753
 11
-30.9937
 21
16.861
  0
LINE
  8
0
 10
-30.9937
 20
16.861
 11
-31.4774
 21
16.9273
  0
LINE
  8
0
 10
-31.4774
 20
16.9273
 11
-31.7848
 21
16.658
  0
LINE
  8
0
 10
-31.7848
 20
16.658
 11
-32.6393
 21
17.0479
  0
LINE
  8
0
 10
-32.6393
 20
17.0479
 11
-32.8102
 21
16.4177
  0
LINE
  8
0
 10
-32.8102
 20
16.4177
 11
-33.8799
 21
16.9739
  0
LINE
  8
0
 10
-33.8799
 20
16.9739
 11
-34.8335
 21
17.7986
  0
LINE
  8
0
 10
-34.8335
 20
17.7986
 11
-34.6481
 21
16.452
  0
LINE
  8
0
 10
-34.6481
 20
16.452
 11
-34.7572
 21
16.2285
  0
LINE
  8
0
 10
-34.7572
 20
16.2285
 11
-35.1509
 21
16.1896
  0
LINE
  8
0
 10
-35.1509
 20
16.1896
 11
-35.1105
 21
15.4961
  0
LINE
  8
0
 10
-35.1105
 20
15.4961
 11
-35.6384
 21
14.341
  0
LINE
  8
0
 10
-35.6384
 20
14.341
 11
-36.393
 21
15.1085
  0
LINE
  8
0
 10
-37.5
 20
20.0325
 11
-36.7653
 21
20.594
  0
LINE
  8
0
 10
-36.7653
 20
20.594
 11
-36.718
 21
21.0648
  0
LINE
  8
0
 10
-36.718
 20
21.0648
 11
-36.9972
 21
20.9061
  0
LINE
  8
0
 10
-36.9972
 20
20.9061
 11
-37.8464
 21
21.2593
  0
LINE
  8
0
 10
-37.8464
 20
21.2593
 11
-38.2805
 21
21.0648
  0
LINE
  8
0
 10
-38.2805
 20
21.0648
 11
-38.0051
 21
20.9053
  0
LINE
  8
0
 10
-38.0051
 20
20.9053
 11
-37.8845
 21
19.9905
  0
LINE
  8
0
 10
-37.8845
 20
19.9905
 11
-37.5008
 21
19.7136
  0
LINE
  8
0
 10
-37.5008
 20
19.7136
 11
-37.5
 21
20.0325
  0
LINE
  8
0
 10
56.958
 20
16.4009
 11
55.9204
 21
16.2964
  0
LINE
  8
0
 10
55.9204
 20
16.2964
 11
55.9959
 21
16.8556
  0
LINE
  8
0
 10
55.9959
 20
16.8556
 11
56.295
 21
17.2424
  0
LINE
  8
0
 10
56.295
 20
17.2424
 11
56.2157
 21
17.643
  0
LINE
  8
0
 10
56.2157
 20
17.643
 11
56.5683
 21
17.894
  0
LINE
  8
0
 10
56.5683
 20
17.894
 11
57.0896
 21
16.2899
  0
LINE
  8
0
 10
57.0896
 20
16.2899
 11
56.958
 21
16.4009
  0
LINE
  8
0
 10
-14.5695
 20
12
 11
-14.3616
 21
12.455
  0
LINE
  8
0
 10
-14.3616
 20
12.455
 11
-13.9143
 21
12
  0
LINE
  8
0
 10
-13.9143
 20
12
 11
-14.5695
 21
12
  0
LINE
  8
0
 10
35.4305
 20
12
 11
35.6384
 21
12.455
  0
LINE
  8
0
 10
35.6384
 20
12.455
 11
36.0857
 21
12
  0
LINE
  8
0
 10
36.0857
 20
12
 11
35.4305
 21
12
  0
LINE
  8
0
 10
-11.1168
 20
12
 11
-10.8337
 21
12.339
  0
LINE
  8
0
 10
-10.8337
 20
12.339
 11
-10.7331
 21
12
  0
LINE
  8
0
 10
-10.7331
 20
12
 11
-11.1168
 21
12
  0
LINE
  8
0
 10
38.8832
 20
12
 11
39.1663
 21
12.339
  0
LINE
  8
0
 10
39.1663
 20
12.339
 11
39.2669
 21
12
  0
LINE
  8
0
 10
39.2669
 20
12
 11
38.8832
 21
12
  0
LINE
  8
0
 10
-10
 20
7
 11
-10
 21
11
  0
LINE
  8
0
 10
-10
 20
11
 11
10
 21
11
  0
LINE
  8
0
 10
10
 20
11
 11
10
 21
7
  0
LINE
  8
0
 10
10
 20
7
 11
-10
 21
7
  0
LINE
  8
0
 10
-68.6534
 20
2.70622
 11
-68.7785
 21
2.71805
  0
LINE
  8
0
 10
-68.7785
 20
2.71805
 11
-68.9026
 21
2.7377
  0
LINE
  8
0
 10
-68.9026
 20
2.7377
 11
-69.0252
 21
2.76511
  0
LINE
  8
0
 10
-69.0252
 20
2.76511
 11
-69.1459
 21
2.80016
  0
LINE
  8
0
 10
-69.1459
 20
2.80016
 11
-69.2641
 21
2.84273
  0
LINE
  8
0
 10
-69.2641
 20
2.84273
 11
-69.3794
 21
2.89262
  0
LINE
  8
0
 10
-69.3794
 20
2.89262
 11
-69.4914
 21
2.94966
  0
LINE
  8
0
 10
-69.4914
 20
2.94966
 11
-69.5995
 21
3.01363
  0
LINE
  8
0
 10
-69.5995
 20
3.01363
 11
-69.7034
 21
3.08424
  0
LINE
  8
0
 10
-69.7034
 20
3.08424
 11
-69.8027
 21
3.16125
  0
LINE
  8
0
 10
-69.8027
 20
3.16125
 11
-69.897
 21
3.24434
  0
LINE
  8
0
 10
-69.897
 20
3.24434
 11
-69.9858
 21
3.33318
  0
LINE
  8
0
 10
-69.9858
 20
3.33318
 11
-70.0689
 21
3.42743
  0
LINE
  8
0
 10
-70.0689
 20
3.42743
 11
-70.1459
 21
3.5267
  0
LINE
  8
0
 10
-70.1459
 20
3.5267
 11
-70.2165
 21
3.63062
  0
LINE
  8
0
 10
-70.2165
 20
3.63062
 11
-70.2805
 21
3.73877
  0
LINE
  8
0
 10
-70.2805
 20
3.73877
 11
-70.3375
 21
3.85072
  0
LINE
  8
0
 10
-70.3375
 20
3.85072
 11
-70.3874
 21
3.96602
  0
LINE
  8
0
 10
-70.3874
 20
3.96602
 11
-70.43
 21
4.08424
  0
LINE
  8
0
 10
-70.43
 20
4.08424
 11
-70.465
 21
4.2049
  0
LINE
  8
0
 10
-70.465
 20
4.2049
 11
-70.4924
 21
4.32751
  0
LINE
  8
0
 10
-70.4924
 20
4.32751
 11
-70.5121
 21
4.45161
  0
LINE
  8
0
 10
-70.5121
 20
4.45161
 11
-70.5239
 21
4.57669
  0
LINE
  8
0
 10
-70.5239
 20
4.57669
 11
-70.5279
 21
4.70227
  0
LINE
  8
0
 10
-70.5279
 20
4.70227
 11
-70.5239
 21
4.82785
  0
LINE
  8
0
 10
-70.5239
 20
4.82785
 11
-70.5121
 21
4.95294
  0
LINE
  8
0
 10
-70.5121
 20
4.95294
 11
-70.4924
 21
5.07704
  0
LINE
  8
0
 10
-70.4924
 20
5.07704
 11
-70.465
 21
5.19966
  0
LINE
  8
0
 10
-70.465
 20
5.19966
 11
-70.43
 21
5.32031
  0
LINE
  8
0
 10
-70.43
 20
5.32031
 11
-70.3874
 21
5.43852
  0
LINE
  8
0
 10
-70.3874
 20
5.43852
 11
-70.3375
 21
5.55383
  0
LINE
  8
0
 10
-70.3375
 20
5.55383
 11
-70.2805
 21
5.66579
  0
LINE
  8
0
 10
-70.2805
 20
5.66579
 11
-70.2165
 21
5.77393
  0
LINE
  8
0
 10
-70.2165
 20
5.77393
 11
-70.1459
 21
5.87784
  0
LINE
  8
0
 10
-70.1459
 20
5.87784
 11
-70.0689
 21
5.97713
  0
LINE
  8
0
 10
-70.0689
 20
5.97713
 11
-69.9858
 21
6.07137
  0
LINE
  8
0
 10
-69.9858
 20
6.07137
 11
-69.897
 21
6.16022
  0
LINE
  8
0
 10
-69.897
 20
6.16022
 11
-69.8027
 21
6.2433
  0
LINE
  8
0
 10
-69.8027
 20
6.2433
 11
-69.7034
 21
6.32031
  0
LINE
  8
0
 10
-69.7034
 20
6.32031
 11
-69.5995
 21
6.39093
  0
LINE
  8
0
 10
-69.5995
 20
6.39093
 11
-69.4914
 21
6.4549
  0
LINE
  8
0
 10
-69.4914
 20
6.4549
 11
-69.3794
 21
6.51193
  0
LINE
  8
0
 10
-69.3794
 20
6.51193
 11
-69.2641
 21
6.56183
  0
LINE
  8
0
 10
-69.2641
 20
6.56183
 11
-69.1459
 21
6.60439
  0
LINE
  8
0
 10
-69.1459
 20
6.60439
 11
-69.0252
 21
6.63943
  0
LINE
  8
0
 10
-69.0252
 20
6.63943
 11
-68.9026
 21
6.66685
  0
LINE
  8
0
 10
-68.9026
 20
6.66685
 11
-68.7785
 21
6.68651
  0
LINE
  8
0
 10
-68.7785
 20
6.68651
 11
-68.6534
 21
6.69833
  0
LINE
  8
0
 10
-68.6534
 20
6.69833
 11
-68.5279
 21
6.70227
  0
LINE
  8
0
 10
-68.5279
 20
6.70227
 11
-68.4023
 21
6.69833
  0
LINE
  8
0
 10
-68.4023
 20
6.69833
 11
-68.2772
 21
6.68651
  0
LINE
  8
0
 10
-68.2772
 20
6.68651
 11
-68.1531
 21
6.66685
  0
LINE
  8
0
 10
-68.1531
 20
6.66685
 11
-68.0305
 21
6.63943
  0
LINE
  8
0
 10
-68.0305
 20
6.63943
 11
-67.9098
 21
6.60439
  0
LINE
  8
0
 10
-67.9098
 20
6.60439
 11
-67.7916
 21
6.56183
  0
LINE
  8
0
 10
-67.7916
 20
6.56183
 11
-67.6763
 21
6.51193
  0
LINE
  8
0
 10
-67.6763
 20
6.51193
 11
-67.5643
 21
6.4549
  0
LINE
  8
0
 10
-67.5643
 20
6.4549
 11
-67.4562
 21
6.39093
  0
LINE
  8
0
 10
-67.4562
 20
6.39093
 11
-67.3523
 21
6.32031
  0
LINE
  8
0
 10
-67.3523
 20
6.32031
 11
-67.253
 21
6.2433
  0
LINE
  8
0
 10
-67.253
 20
6.2433
 11
-67.1588
 21
6.16022
  0
LINE
  8
0
 10
-67.1588
 20
6.16022
 11
-67.0699
 21
6.07137
  0
LINE
  8
0
 10
-67.0699
 20
6.07137
 11
-66.9868
 21
5.97713
  0
LINE
  8
0
 10
-66.9868
 20
5.97713
 11
-66.9098
 21
5.87784
  0
LINE
  8
0
 10
-66.9098
 20
5.87784
 11
-66.8392
 21
5.77393
  0
LINE
  8
0
 10
-66.8392
 20
5.77393
 11
-66.7752
 21
5.66579
  0
LINE
  8
0
 10
-66.7752
 20
5.66579
 11
-66.7182
 21
5.55383
  0
LINE
  8
0
 10
-66.7182
 20
5.55383
 11
-66.6683
 21
5.43852
  0
LINE
  8
0
 10
-66.6683
 20
5.43852
 11
-66.6257
 21
5.32031
  0
LINE
  8
0
 10
-66.6257
 20
5.32031
 11
-66.5907
 21
5.19966
  0
LINE
  8
0
 10
-66.5907
 20
5.19966
 11
-66.5633
 21
5.07704
  0
LINE
  8
0
 10
-66.5633
 20
5.07704
 11
-66.5436
 21
4.95294
  0
LINE
  8
0
 10
-66.5436
 20
4.95294
 11
-66.5318
 21
4.82785
  0
LINE
  8
0
 10
-66.5318
 20
4.82785
 11
-66.5279
 21
4.70227
  0
LINE
  8
0
 10
-66.5279
 20
4.70227
 11
-66.5318
 21
4.57669
  0
LINE
  8
0
 10
-66.5318
 20
4.57669
 11
-66.5436
 21
4.45161
  0
LINE
  8
0
 10
-66.5436
 20
4.45161
 11
-66.5633
 21
4.32751
  0
LINE
  8
0
 10
-66.5633
 20
4.32751
 11
-66.5907
 21
4.2049
  0
LINE
  8
0
 10
-66.5907
 20
4.2049
 11
-66.6257
 21
4.08424
  0
LINE
  8
0
 10
-66.6257
 20
4.08424
 11
-66.6683
 21
3.96602
  0
LINE
  8
0
 10
-66.6683
 20
3.96602
 11
-66.7182
 21
3.85072
  0
LINE
  8
0
 10
-66.7182
 20
3.85072
 11
-66.7752
 21
3.73877
  0
LINE
  8
0
 10
-66.7752
 20
3.73877
 11
-66.8392
 21
3.63062
  0
LINE
  8
0
 10
-66.8392
 20
3.63062
 11
-66.9098
 21
3.5267
  0
LINE
  8
0
 10
-66.9098
 20
3.5267
 11
-66.9868
 21
3.42743
  0
LINE
  8
0
 10
-66.9868
 20
3.42743
 11
-67.0699
 21
3.33318
  0
LINE
  8
0
 10
-67.0699
 20
3.33318
 11
-67.1588
 21
3.24434
  0
LINE
  8
0
 10
-67.1588
 20
3.24434
 11
-67.253
 21
3.16125
  0
LINE
  8
0
 10
-67.253
 20
3.16125
 11
-67.3523
 21
3.08424
  0
LINE
  8
0
 10
-67.3523
 20
3.08424
 11
-67.4562
 21
3.01363
  0
LINE
  8
0
 10
-67.4562
 20
3.01363
 11
-67.5643
 21
2.94966
  0
LINE
  8
0
 10
-67.5643
 20
2.94966
 11
-67.6763
 21
2.89262
  0
LINE
  8
0
 10
-67.6763
 20
2.89262
 11
-67.7916
 21
2.84273
  0
LINE
  8
0
 10
-67.7916
 20
2.84273
 11
-67.9098
 21
2.80016
  0
LINE
  8
0
 10
-67.9098
 20
2.80016
 11
-68.0305
 21
2.76511
  0
LINE
  8
0
 10
-68.0305
 20
2.76511
 11
-68.1531
 21
2.7377
  0
LINE
  8
0
 10
-68.1531
 20
2.7377
 11
-68.2772
 21
2.71805
  0
LINE
  8
0
 10
-68.2772
 20
2.71805
 11
-68.4023
 21
2.70622
  0
LINE
  8
0
 10
-68.4023
 20
2.70622
 11
-68.5279
 21
2.70227
  0
LINE
  8
0
 10
-68.5279
 20
2.70227
 11
-68.6534
 21
2.70622
  0
LINE
  8
0
 10
68.4023
 20
2.70622
 11
68.2772
 21
2.71805
  0
LINE
  8
0
 10
68.2772
 20
2.71805
 11
68.1531
 21
2.7377
  0
LINE
  8
0
 10
68.1531
 20
2.7377
 11
68.0305
 21
2.76511
  0
LINE
  8
0
 10
68.0305
 20
2.76511
 11
67.9098
 21
2.80016
  0
LINE
  8
0
 10
67.9098
 20
2.80016
 11
67.7916
 21
2.84273
  0
LINE
  8
0
 10
67.7916
 20
2.84273
 11
67.6763
 21
2.89262
  0
LINE
  8
0
 10
67.6763
 20
2.89262
 11
67.5643
 21
2.94966
  0
LINE
  8
0
 10
67.5643
 20
2.94966
 11
67.4562
 21
3.01363
  0
LINE
  8
0
 10
67.4562
 20
3.01363
 11
67.3523
 21
3.08424
  0
LINE
  8
0
 10
67.3523
 20
3.08424
 11
67.253
 21
3.16125
  0
LINE
  8
0
 10
67.253
 20
3.16125
 11
67.1588
 21
3.24434
  0
LINE
  8
0
 10
67.1588
 20
3.24434
 11
67.0699
 21
3.33318
  0
LINE
  8
0
 10
67.0699
 20
3.33318
 11
66.9868
 21
3.42743
  0
LINE
  8
0
 10
66.9868
 20
3.42743
 11
66.9098
 21
3.5267
  0
LINE
  8
0
 10
66.9098
 20
3.5267
 11
66.8392
 21
3.63062
  0
LINE
  8
0
 10
66.8392
 20
3.63062
 11
66.7752
 21
3.73877
  0
LINE
  8
0
 10
66.7752
 20
3.73877
 11
66.7182
 21
3.85072
  0
LINE
  8
0
 10
66.7182
 20
3.85072
 11
66.6683
 21
3.96602
  0
LINE
  8
0
 10
66.6683
 20
3.96602
 11
66.6257
 21
4.08424
  0
LINE
  8
0
 10
66.6257
 20
4.08424
 11
66.5907
 21
4.2049
  0
LINE
  8
0
 10
66.5907
 20
4.2049
 11
66.5633
 21
4.32751
  0
LINE
  8
0
 10
66.5633
 20
4.32751
 11
66.5436
 21
4.45161
  0
LINE
  8
0
 10
66.5436
 20
4.45161
 11
66.5318
 21
4.57669
  0
LINE
  8
0
 10
66.5318
 20
4.57669
 11
66.5279
 21
4.70227
  0
LINE
  8
0
 10
66.5279
 20
4.70227
 11
66.5318
 21
4.82785
  0
LINE
  8
0
 10
66.5318
 20
4.82785
 11
66.5436
 21
4.95294
  0
LINE
  8
0
 10
66.5436
 20
4.95294
 11
66.5633
 21
5.07704
  0
LINE
  8
0
 10
66.5633
 20
5.07704
 11
66.5907
 21
5.19966
  0
LINE
  8
0
 10
66.5907
 20
5.19966
 11
66.6257
 21
5.32031
  0
LINE
  8
0
 10
66.6257
 20
5.32031
 11
66.6683
 21
5.43852
  0
LINE
  8
0
 10
66.6683
 20
5.43852
 11
66.7182
 21
5.55383
  0
LINE
  8
0
 10
66.7182
 20
5.55383
 11
66.7752
 21
5.66579
  0
LINE
  8
0
 10
66.7752
 20
5.66579
 11
66.8392
 21
5.77393
  0
LINE
  8
0
 10
66.8392
 20
5.77393
 11
66.9098
 21
5.87784
  0
LINE
  8
0
 10
66.9098
 20
5.87784
 11
66.9868
 21
5.97713
  0
LINE
  8
0
 10
66.9868
 20
5.97713
 11
67.0699
 21
6.07137
  0
LINE
  8
0
 10
67.0699
 20
6.07137
 11
67.1588
 21
6.16022
  0
LINE
  8
0
 10
67.1588
 20
6.16022
 11
67.253
 21
6.2433
  0
LINE
  8
0
 10
67.253
 20
6.2433
 11
67.3523
 21
6.32031
  0
LINE
  8
0
 10
67.3523
 20
6.32031
 11
67.4562
 21
6.39093
  0
LINE
  8
0
 10
67.4562
 20
6.39093
 11
67.5643
 21
6.4549
  0
LINE
  8
0
 10
67.5643
 20
6.4549
 11
67.6763
 21
6.51193
  0
LINE
  8
0
 10
67.6763
 20
6.51193
 11
67.7916
 21
6.56183
  0
LINE
  8
0
 10
67.7916
 20
6.56183
 11
67.9098
 21
6.60439
  0
LINE
  8
0
 10
67.9098
 20
6.60439
 11
68.0305
 21
6.63943
  0
LINE
  8
0
 10
68.0305
 20
6.63943
 11
68.1531
 21
6.66685
  0
LINE
  8
0
 10
68.1531
 20
6.66685
 11
68.2772
 21
6.68651
  0
LINE
  8
0
 10
68.2772
 20
6.68651
 11
68.4023
 21
6.69833
  0
LINE
  8
0
 10
68.4023
 20
6.69833
 11
68.5279
 21
6.70227
  0
LINE
  8
0
 10
68.5279
 20
6.70227
 11
68.6534
 21
6.69833
  0
LINE
  8
0
 10
68.6534
 20
6.69833
 11
68.7785
 21
6.68651
  0
LINE
  8
0
 10
68.7785
 20
6.68651
 11
68.9026
 21
6.66685
  0
LINE
  8
0
 10
68.9026
 20
6.66685
 11
69.0252
 21
6.63943
  0
LINE
  8
0
 10
69.0252
 20
6.63943
 11
69.1459
 21
6.60439
  0
LINE
  8
0
 10
69.1459
 20
6.60439
 11
69.2641
 21
6.56183
  0
LINE
  8
0
 10
69.2641
 20
6.56183
 11
69.3794
 21
6.51193
  0
LINE
  8
0
 10
69.3794
 20
6.51193
 11
69.4914
 21
6.4549
  0
LINE
  8
0
 10
69.4914
 20
6.4549
 11
69.5995
 21
6.39093
  0
LINE
  8
0
 10
69.5995
 20
6.39093
 11
69.7034
 21
6.32031
  0
LINE
  8
0
 10
69.7034
 20
6.32031
 11
69.8027
 21
6.2433
  0
LINE
  8
0
 10
69.8027
 20
6.2433
 11
69.897
 21
6.16022
  0
LINE
  8
0
 10
69.897
 20
6.16022
 11
69.9858
 21
6.07137
  0
LINE
  8
0
 10
69.9858
 20
6.07137
 11
70.0689
 21
5.97713
  0
LINE
  8
0
 10
70.0689
 20
5.97713
 11
70.1459
 21
5.87784
  0
LINE
  8
0
 10
70.1459
 20
5.87784
 11
70.2165
 21
5.77393
  0
LINE
  8
0
 10
70.2165
 20
5.77393
 11
70.2805
 21
5.66579
  0
LINE
  8
0
 10
70.2805
 20
5.66579
 11
70.3375
 21
5.55383
  0
LINE
  8
0
 10
70.3375
 20
5.55383
 11
70.3874
 21
5.43852
  0
LINE
  8
0
 10
70.3874
 20
5.43852
 11
70.43
 21
5.32031
  0
LINE
  8
0
 10
70.43
 20
5.32031
 11
70.465
 21
5.19966
  0
LINE
  8
0
 10
70.465
 20
5.19966
 11
70.4924
 21
5.07704
  0
LINE
  8
0
 10
70.4924
 20
5.07704
 11
70.5121
 21
4.95294
  0
LINE
  8
0
 10
70.5121
 20
4.95294
 11
70.5239
 21
4.82785
  0
LINE
  8
0
 10
70.5239
 20
4.82785
 11
70.5279
 21
4.70227
  0
LINE
  8
0
 10
70.5279
 20
4.70227
 11
70.5239
 21
4.57669
  0
LINE
  8
0
 10
70.5239
 20
4.57669
 11
70.5121
 21
4.45161
  0
LINE
  8
0
 10
70.5121
 20
4.45161
 11
70.4924
 21
4.32751
  0
LINE
  8
0
 10
70.4924
 20
4.32751
 11
70.465
 21
4.2049
  0
LINE
  8
0
 10
70.465
 20
4.2049
 11
70.43
 21
4.08424
  0
LINE
  8
0
 10
70.43
 20
4.08424
 11
70.3874
 21
3.96602
  0
LINE
  8
0
 10
70.3874
 20
3.96602
 11
70.3375
 21
3.85072
  0
LINE
  8
0
 10
70.3375
 20
3.85072
 11
70.2805
 21
3.73877
  0
LINE
  8
0
 10
70.2805
 20
3.73877
 11
70.2165
 21
3.63062
  0
LINE
  8
0
 10
70.2165
 20
3.63062
 11
70.1459
 21
3.5267
  0
LINE
  8
0
 10
70.1459
 20
3.5267
 11
70.0689
 21
3.42743
  0
LINE
  8
0
 10
70.0689
 20
3.42743
 11
69.9858
 21
3.33318
  0
LINE
  8
0
 10
69.9858
 20
3.33318
 11
69.897
 21
3.24434
  0
LINE
  8
0
 10
69.897
 20
3.24434
 11
69.8027
 21
3.16125
  0
LINE
  8
0
 10
69.8027
 20
3.16125
 11
69.7034
 21
3.08424
  0
LINE
  8
0
 10
69.7034
 20
3.08424
 11
69.5995
 21
3.01363
  0
LINE
  8
0
 10
69.5995
 20
3.01363
 11
69.4914
 21
2.94966
  0
LINE
  8
0
 10
69.4914
 20
2.94966
 11
69.3794
 21
2.89262
  0
LINE
  8
0
 10
69.3794
 20
2.89262
 11
69.2641
 21
2.84273
  0
LINE
  8
0
 10
69.2641
 20
2.84273
 11
69.1459
 21
2.80016
  0
LINE
  8
0
 10
69.1459
 20
2.80016
 11
69.0252
 21
2.76511
  0
LINE
  8
0
 10
69.0252
 20
2.76511
 11
68.9026
 21
2.7377
  0
LINE
  8
0
 10
68.9026
 20
2.7377
 11
68.7785
 21
2.71805
  0
LINE
  8
0
 10
68.7785
 20
2.71805
 11
68.6534
 21
2.70622
  0
LINE
  8
0
 10
68.6534
 20
2.70622
 11
68.5279
 21
2.70227
  0
LINE
  8
0
 10
68.5279
 20
2.70227
 11
68.4023
 21
2.70622
  0
ENDSEC
  0
SECTION
  2
OBJECTS
  0
DICTIONARY
  0
ENDSEC
  0
EOF
