  0
SECTION
  2
BLOCKS
  0
ENDSEC
  0
SECTION
  2
ENTITIES
  0
LINE
  8
0
 10
0
 20
230.826
 11
-75
 21
0
  0
LINE
  8
0
 10
-75
 20
0
 11
75
 21
0
  0
LINE
  8
0
 10
75
 20
0
 11
0
 21
230.826
  0
LINE
  8
0
 10
-0.12558
 20
212.83
 11
-0.250656
 21
212.842
  0
LINE
  8
0
 10
-0.250656
 20
212.842
 11
-0.374756
 21
212.862
  0
LINE
  8
0
 10
-0.374756
 20
212.862
 11
-0.497375
 21
212.889
  0
LINE
  8
0
 10
-0.497375
 20
212.889
 11
-0.618027
 21
212.924
  0
LINE
  8
0
 10
-0.618027
 20
212.924
 11
-0.736237
 21
212.967
  0
LINE
  8
0
 10
-0.736237
 20
212.967
 11
-0.851547
 21
213.017
  0
LINE
  8
0
 10
-0.851547
 20
213.017
 11
-0.963501
 21
213.074
  0
LINE
  8
0
 10
-0.963501
 20
213.074
 11
-1.07164
 21
213.138
  0
LINE
  8
0
 10
-1.07164
 20
213.138
 11
-1.17557
 21
213.208
  0
LINE
  8
0
 10
-1.17557
 20
213.208
 11
-1.27484
 21
213.285
  0
LINE
  8
0
 10
-1.27484
 20
213.285
 11
-1.36908
 21
213.368
  0
LINE
  8
0
 10
-1.36908
 20
213.368
 11
-1.45793
 21
213.457
  0
LINE
  8
0
 10
-1.45793
 20
213.457
 11
-1.54102
 21
213.551
  0
LINE
  8
0
 10
-1.54102
 20
213.551
 11
-1.61803
 21
213.651
  0
LINE
  8
0
 10
-1.61803
 20
213.651
 11
-1.68864
 21
213.755
  0
LINE
  8
0
 10
-1.68864
 20
213.755
 11
-1.75261
 21
213.863
  0
LINE
  8
0
 10
-1.75261
 20
213.863
 11
-1.80965
 21
213.975
  0
LINE
  8
0
 10
-1.80965
 20
213.975
 11
-1.85954
 21
214.09
  0
LINE
  8
0
 10
-1.85954
 20
214.09
 11
-1.9021
 21
214.208
  0
LINE
  8
0
 10
-1.9021
 20
214.208
 11
-1.93716
 21
214.329
  0
LINE
  8
0
 10
-1.93716
 20
214.329
 11
-1.96457
 21
214.451
  0
LINE
  8
0
 10
-1.96457
 20
214.451
 11
-1.98422
 21
214.576
  0
LINE
  8
0
 10
-1.98422
 20
214.576
 11
-1.99605
 21
214.701
  0
LINE
  8
0
 10
-1.99605
 20
214.701
 11
-2
 21
214.826
  0
LINE
  8
0
 10
-2
 20
214.826
 11
-1.99605
 21
214.952
  0
LINE
  8
0
 10
-1.99605
 20
214.952
 11
-1.98422
 21
215.077
  0
LINE
  8
0
 10
-1.98422
 20
215.077
 11
-1.96457
 21
215.201
  0
LINE
  8
0
 10
-1.96457
 20
215.201
 11
-1.93716
 21
215.324
  0
LINE
  8
0
 10
-1.93716
 20
215.324
 11
-1.9021
 21
215.444
  0
LINE
  8
0
 10
-1.9021
 20
215.444
 11
-1.85954
 21
215.562
  0
LINE
  8
0
 10
-1.85954
 20
215.562
 11
-1.80965
 21
215.678
  0
LINE
  8
0
 10
-1.80965
 20
215.678
 11
-1.75261
 21
215.79
  0
LINE
  8
0
 10
-1.75261
 20
215.79
 11
-1.68864
 21
215.898
  0
LINE
  8
0
 10
-1.68864
 20
215.898
 11
-1.61803
 21
216.002
  0
LINE
  8
0
 10
-1.61803
 20
216.002
 11
-1.54102
 21
216.101
  0
LINE
  8
0
 10
-1.54102
 20
216.101
 11
-1.45793
 21
216.195
  0
LINE
  8
0
 10
-1.45793
 20
216.195
 11
-1.36908
 21
216.284
  0
LINE
  8
0
 10
-1.36908
 20
216.284
 11
-1.27484
 21
216.367
  0
LINE
  8
0
 10
-1.27484
 20
216.367
 11
-1.17557
 21
216.444
  0
LINE
  8
0
 10
-1.17557
 20
216.444
 11
-1.07164
 21
216.515
  0
LINE
  8
0
 10
-1.07164
 20
216.515
 11
-0.963501
 21
216.579
  0
LINE
  8
0
 10
-0.963501
 20
216.579
 11
-0.851547
 21
216.636
  0
LINE
  8
0
 10
-0.851547
 20
216.636
 11
-0.736237
 21
216.686
  0
LINE
  8
0
 10
-0.736237
 20
216.686
 11
-0.618027
 21
216.728
  0
LINE
  8
0
 10
-0.618027
 20
216.728
 11
-0.497375
 21
216.763
  0
LINE
  8
0
 10
-0.497375
 20
216.763
 11
-0.374756
 21
216.791
  0
LINE
  8
0
 10
-0.374756
 20
216.791
 11
-0.250656
 21
216.81
  0
LINE
  8
0
 10
-0.250656
 20
216.81
 11
-0.12558
 21
216.822
  0
LINE
  8
0
 10
-0.12558
 20
216.822
 11
0
 21
216.826
  0
LINE
  8
0
 10
0
 20
216.826
 11
0.12558
 21
216.822
  0
LINE
  8
0
 10
0.12558
 20
216.822
 11
0.250656
 21
216.81
  0
LINE
  8
0
 10
0.250656
 20
216.81
 11
0.374756
 21
216.791
  0
LINE
  8
0
 10
0.374756
 20
216.791
 11
0.497375
 21
216.763
  0
LINE
  8
0
 10
0.497375
 20
216.763
 11
0.618027
 21
216.728
  0
LINE
  8
0
 10
0.618027
 20
216.728
 11
0.736237
 21
216.686
  0
LINE
  8
0
 10
0.736237
 20
216.686
 11
0.851547
 21
216.636
  0
LINE
  8
0
 10
0.851547
 20
216.636
 11
0.963501
 21
216.579
  0
LINE
  8
0
 10
0.963501
 20
216.579
 11
1.07164
 21
216.515
  0
LINE
  8
0
 10
1.07164
 20
216.515
 11
1.17557
 21
216.444
  0
LINE
  8
0
 10
1.17557
 20
216.444
 11
1.27484
 21
216.367
  0
LINE
  8
0
 10
1.27484
 20
216.367
 11
1.36908
 21
216.284
  0
LINE
  8
0
 10
1.36908
 20
216.284
 11
1.45793
 21
216.195
  0
LINE
  8
0
 10
1.45793
 20
216.195
 11
1.54102
 21
216.101
  0
LINE
  8
0
 10
1.54102
 20
216.101
 11
1.61803
 21
216.002
  0
LINE
  8
0
 10
1.61803
 20
216.002
 11
1.68864
 21
215.898
  0
LINE
  8
0
 10
1.68864
 20
215.898
 11
1.75261
 21
215.79
  0
LINE
  8
0
 10
1.75261
 20
215.79
 11
1.80965
 21
215.678
  0
LINE
  8
0
 10
1.80965
 20
215.678
 11
1.85954
 21
215.562
  0
LINE
  8
0
 10
1.85954
 20
215.562
 11
1.9021
 21
215.444
  0
LINE
  8
0
 10
1.9021
 20
215.444
 11
1.93716
 21
215.324
  0
LINE
  8
0
 10
1.93716
 20
215.324
 11
1.96457
 21
215.201
  0
LINE
  8
0
 10
1.96457
 20
215.201
 11
1.98422
 21
215.077
  0
LINE
  8
0
 10
1.98422
 20
215.077
 11
1.99605
 21
214.952
  0
LINE
  8
0
 10
1.99605
 20
214.952
 11
2
 21
214.826
  0
LINE
  8
0
 10
2
 20
214.826
 11
1.99605
 21
214.701
  0
LINE
  8
0
 10
1.99605
 20
214.701
 11
1.98422
 21
214.576
  0
LINE
  8
0
 10
1.98422
 20
214.576
 11
1.96457
 21
214.451
  0
LINE
  8
0
 10
1.96457
 20
214.451
 11
1.93716
 21
214.329
  0
LINE
  8
0
 10
1.93716
 20
214.329
 11
1.9021
 21
214.208
  0
LINE
  8
0
 10
1.9021
 20
214.208
 11
1.85954
 21
214.09
  0
LINE
  8
0
 10
1.85954
 20
214.09
 11
1.80965
 21
213.975
  0
LINE
  8
0
 10
1.80965
 20
213.975
 11
1.75261
 21
213.863
  0
LINE
  8
0
 10
1.75261
 20
213.863
 11
1.68864
 21
213.755
  0
LINE
  8
0
 10
1.68864
 20
213.755
 11
1.61803
 21
213.651
  0
LINE
  8
0
 10
1.61803
 20
213.651
 11
1.54102
 21
213.551
  0
LINE
  8
0
 10
1.54102
 20
213.551
 11
1.45793
 21
213.457
  0
LINE
  8
0
 10
1.45793
 20
213.457
 11
1.36908
 21
213.368
  0
LINE
  8
0
 10
1.36908
 20
213.368
 11
1.27484
 21
213.285
  0
LINE
  8
0
 10
1.27484
 20
213.285
 11
1.17557
 21
213.208
  0
LINE
  8
0
 10
1.17557
 20
213.208
 11
1.07164
 21
213.138
  0
LINE
  8
0
 10
1.07164
 20
213.138
 11
0.963501
 21
213.074
  0
LINE
  8
0
 10
0.963501
 20
213.074
 11
0.851547
 21
213.017
  0
LINE
  8
0
 10
0.851547
 20
213.017
 11
0.736237
 21
212.967
  0
LINE
  8
0
 10
0.736237
 20
212.967
 11
0.618027
 21
212.924
  0
LINE
  8
0
 10
0.618027
 20
212.924
 11
0.497375
 21
212.889
  0
LINE
  8
0
 10
0.497375
 20
212.889
 11
0.374756
 21
212.862
  0
LINE
  8
0
 10
0.374756
 20
212.862
 11
0.250656
 21
212.842
  0
LINE
  8
0
 10
0.250656
 20
212.842
 11
0.12558
 21
212.83
  0
LINE
  8
0
 10
0.12558
 20
212.83
 11
0
 21
212.826
  0
LINE
  8
0
 10
0
 20
212.826
 11
-0.12558
 21
212.83
  0
LINE
  8
0
 10
-0.422302
 20
190.694
 11
-0.00320435
 21
190
  0
LINE
  8
0
 10
-0.00320435
 20
190
 11
-1.39775
 21
187.692
  0
LINE
  8
0
 10
-1.39775
 20
187.692
 11
-0.422302
 21
190.694
  0
LINE
  8
0
 10
0.00366211
 20
175
 11
3.59158
 21
180.94
  0
LINE
  8
0
 10
3.59158
 20
180.94
 11
7.07742
 21
170.211
  0
LINE
  8
0
 10
7.07742
 20
170.211
 11
4.19037
 21
168.069
  0
LINE
  8
0
 10
4.19037
 20
168.069
 11
0.00366211
 21
175
  0
LINE
  8
0
 10
-5.02592
 20
176.525
 11
-4.18289
 21
179.12
  0
LINE
  8
0
 10
-4.18289
 20
179.12
 11
-1.58844
 21
176.525
  0
LINE
  8
0
 10
-1.58844
 20
176.525
 11
-5.02592
 21
176.525
  0
LINE
  8
0
 10
-6.01709
 20
173.475
 11
-1.58844
 21
173.475
  0
LINE
  8
0
 10
-1.58844
 20
173.475
 11
-8.14876
 21
166.914
  0
LINE
  8
0
 10
-8.14876
 20
166.914
 11
-6.01709
 21
173.475
  0
LINE
  8
0
 10
1.58844
 20
161.525
 11
7.86142
 21
167.798
  0
LINE
  8
0
 10
7.86142
 20
167.798
 11
9.89972
 21
161.525
  0
LINE
  8
0
 10
9.89972
 20
161.525
 11
1.58844
 21
161.525
  0
LINE
  8
0
 10
-11.0044
 20
158.125
 11
-9.39919
 21
163.066
  0
LINE
  8
0
 10
-9.39919
 20
163.066
 11
-4.19037
 21
166.931
  0
LINE
  8
0
 10
-4.19037
 20
166.931
 11
-0.00320435
 21
160
  0
LINE
  8
0
 10
-0.00320435
 20
160
 11
-4.19037
 21
153.069
  0
LINE
  8
0
 10
-4.19037
 20
153.069
 11
-11.0044
 21
158.125
  0
LINE
  8
0
 10
1.58844
 20
158.475
 11
10.8909
 21
158.475
  0
LINE
  8
0
 10
10.8909
 20
158.475
 11
13.5324
 21
150.345
  0
LINE
  8
0
 10
13.5324
 20
150.345
 11
13.5324
 21
146.53
  0
LINE
  8
0
 10
13.5324
 20
146.53
 11
1.58844
 21
158.475
  0
LINE
  8
0
 10
-13.5324
 20
146.525
 11
-13.5324
 21
150.345
  0
LINE
  8
0
 10
-13.5324
 20
150.345
 11
-11.5399
 21
156.477
  0
LINE
  8
0
 10
-11.5399
 20
156.477
 11
-1.58844
 21
146.525
  0
LINE
  8
0
 10
-1.58844
 20
146.525
 11
-13.5324
 21
146.525
  0
LINE
  8
0
 10
0.00366211
 20
145
 11
4.19037
 21
151.931
  0
LINE
  8
0
 10
4.19037
 20
151.931
 11
13.5306
 21
145
  0
LINE
  8
0
 10
13.5306
 20
145
 11
4.19037
 21
138.069
  0
LINE
  8
0
 10
4.19037
 20
138.069
 11
0.00366211
 21
145
  0
LINE
  8
0
 10
-13.5324
 20
143.475
 11
-1.58844
 21
143.475
  0
LINE
  8
0
 10
-1.58844
 20
143.475
 11
-13.5324
 21
131.53
  0
LINE
  8
0
 10
-13.5324
 20
131.53
 11
-13.5324
 21
143.475
  0
LINE
  8
0
 10
1.58844
 20
131.525
 11
13.5324
 21
143.47
  0
LINE
  8
0
 10
13.5324
 20
143.47
 11
13.5324
 21
131.525
  0
LINE
  8
0
 10
13.5324
 20
131.525
 11
1.58844
 21
131.525
  0
LINE
  8
0
 10
-19.6473
 20
131.525
 11
-16.4676
 21
141.311
  0
LINE
  8
0
 10
-16.4676
 20
141.311
 11
-16.4676
 21
131.525
  0
LINE
  8
0
 10
-16.4676
 20
131.525
 11
-19.6473
 21
131.525
  0
LINE
  8
0
 10
16.4676
 20
141.311
 11
18.8663
 21
133.929
  0
LINE
  8
0
 10
18.8663
 20
133.929
 11
16.4676
 21
131.53
  0
LINE
  8
0
 10
16.4676
 20
131.53
 11
16.4676
 21
141.311
  0
LINE
  8
0
 10
-13.5306
 20
130
 11
-4.19037
 21
136.931
  0
LINE
  8
0
 10
-4.19037
 20
136.931
 11
-0.00320435
 21
130
  0
LINE
  8
0
 10
-0.00320435
 20
130
 11
-4.19037
 21
123.069
  0
LINE
  8
0
 10
-4.19037
 20
123.069
 11
-13.5306
 21
130
  0
LINE
  8
0
 10
16.4694
 20
130
 11
19.4292
 21
132.196
  0
LINE
  8
0
 10
19.4292
 20
132.196
 11
21.31
 21
126.408
  0
LINE
  8
0
 10
21.31
 20
126.408
 11
16.4694
 21
130
  0
LINE
  8
0
 10
1.58844
 20
128.475
 11
13.5324
 21
128.475
  0
LINE
  8
0
 10
13.5324
 20
128.475
 11
13.5324
 21
116.53
  0
LINE
  8
0
 10
13.5324
 20
116.53
 11
1.58844
 21
128.475
  0
LINE
  8
0
 10
-22.5448
 20
122.608
 11
-20.6385
 21
128.475
  0
LINE
  8
0
 10
-20.6385
 20
128.475
 11
-16.4676
 21
128.475
  0
LINE
  8
0
 10
-16.4676
 20
128.475
 11
-16.4676
 21
116.53
  0
LINE
  8
0
 10
-16.4676
 20
116.53
 11
-22.5448
 21
122.608
  0
LINE
  8
0
 10
-13.5324
 20
116.525
 11
-13.5324
 21
128.47
  0
LINE
  8
0
 10
-13.5324
 20
128.47
 11
-1.58844
 21
116.525
  0
LINE
  8
0
 10
-1.58844
 20
116.525
 11
-13.5324
 21
116.525
  0
LINE
  8
0
 10
16.4676
 20
116.525
 11
16.4676
 21
128.47
  0
LINE
  8
0
 10
16.4676
 20
128.47
 11
22.6485
 21
122.289
  0
LINE
  8
0
 10
22.6485
 20
122.289
 11
24.5211
 21
116.525
  0
LINE
  8
0
 10
24.5211
 20
116.525
 11
16.4676
 21
116.525
  0
LINE
  8
0
 10
0.00366211
 20
115
 11
4.19037
 21
121.931
  0
LINE
  8
0
 10
4.19037
 20
121.931
 11
13.5306
 21
115
  0
LINE
  8
0
 10
13.5306
 20
115
 11
4.19037
 21
108.069
  0
LINE
  8
0
 10
4.19037
 20
108.069
 11
0.00366211
 21
115
  0
LINE
  8
0
 10
-26.7584
 20
109.64
 11
-23.3562
 21
120.11
  0
LINE
  8
0
 10
-23.3562
 20
120.11
 11
-16.4694
 21
115
  0
LINE
  8
0
 10
-16.4694
 20
115
 11
-25.8096
 21
108.069
  0
LINE
  8
0
 10
-25.8096
 20
108.069
 11
-26.7584
 21
109.64
  0
LINE
  8
0
 10
16.4676
 20
113.475
 11
25.5123
 21
113.475
  0
LINE
  8
0
 10
25.5123
 20
113.475
 11
26.2233
 21
111.286
  0
LINE
  8
0
 10
26.2233
 20
111.286
 11
16.4676
 21
101.53
  0
LINE
  8
0
 10
16.4676
 20
101.53
 11
16.4676
 21
113.475
  0
LINE
  8
0
 10
-13.5324
 20
113.475
 11
-1.58844
 21
113.475
  0
LINE
  8
0
 10
-1.58844
 20
113.475
 11
-13.5324
 21
101.53
  0
LINE
  8
0
 10
-13.5324
 20
101.53
 11
-13.5324
 21
113.475
  0
LINE
  8
0
 10
-28.4116
 20
101.525
 11
-16.4676
 21
113.47
  0
LINE
  8
0
 10
-16.4676
 20
113.47
 11
-16.4676
 21
101.525
  0
LINE
  8
0
 10
-16.4676
 20
101.525
 11
-28.4116
 21
101.525
  0
LINE
  8
0
 10
1.58844
 20
101.525
 11
13.5324
 21
113.47
  0
LINE
  8
0
 10
13.5324
 20
113.47
 11
13.5324
 21
101.525
  0
LINE
  8
0
 10
13.5324
 20
101.525
 11
1.58844
 21
101.525
  0
LINE
  8
0
 10
-13.5306
 20
100
 11
-4.19037
 21
106.931
  0
LINE
  8
0
 10
-4.19037
 20
106.931
 11
-0.00320435
 21
100
  0
LINE
  8
0
 10
-0.00320435
 20
100
 11
-4.19037
 21
93.069
  0
LINE
  8
0
 10
-4.19037
 20
93.069
 11
-13.5306
 21
100
  0
LINE
  8
0
 10
16.4694
 20
100
 11
25.8096
 21
106.931
  0
LINE
  8
0
 10
25.8096
 20
106.931
 11
29.7668
 21
100.381
  0
LINE
  8
0
 10
29.7668
 20
100.381
 11
29.9277
 21
99.8856
  0
LINE
  8
0
 10
29.9277
 20
99.8856
 11
25.8096
 21
93.069
  0
LINE
  8
0
 10
25.8096
 20
93.069
 11
16.4694
 21
100
  0
LINE
  8
0
 10
-28.4116
 20
98.4747
 11
-16.4676
 21
98.4747
  0
LINE
  8
0
 10
-16.4676
 20
98.4747
 11
-16.4676
 21
86.5303
  0
LINE
  8
0
 10
-16.4676
 20
86.5303
 11
-28.4116
 21
98.4747
  0
LINE
  8
0
 10
1.58844
 20
98.4747
 11
13.5324
 21
98.4747
  0
LINE
  8
0
 10
13.5324
 20
98.4747
 11
13.5324
 21
86.5303
  0
LINE
  8
0
 10
13.5324
 20
86.5303
 11
1.58844
 21
98.4747
  0
LINE
  8
0
 10
-13.5324
 20
86.5253
 11
-13.5324
 21
98.4697
  0
LINE
  8
0
 10
-13.5324
 20
98.4697
 11
-1.58844
 21
86.5253
  0
LINE
  8
0
 10
-1.58844
 20
86.5253
 11
-13.5324
 21
86.5253
  0
LINE
  8
0
 10
16.4676
 20
86.5253
 11
16.4676
 21
98.4697
  0
LINE
  8
0
 10
16.4676
 20
98.4697
 11
28.4116
 21
86.5253
  0
LINE
  8
0
 10
28.4116
 20
86.5253
 11
16.4676
 21
86.5253
  0
LINE
  8
0
 10
-29.9963
 20
85
 11
-25.8096
 21
91.931
  0
LINE
  8
0
 10
-25.8096
 20
91.931
 11
-16.4694
 21
85
  0
LINE
  8
0
 10
-16.4694
 20
85
 11
-25.8096
 21
78.069
  0
LINE
  8
0
 10
-25.8096
 20
78.069
 11
-29.9963
 21
85
  0
LINE
  8
0
 10
0.00366211
 20
85
 11
4.19037
 21
91.931
  0
LINE
  8
0
 10
4.19037
 20
91.931
 11
13.5306
 21
85
  0
LINE
  8
0
 10
13.5306
 20
85
 11
4.19037
 21
78.069
  0
LINE
  8
0
 10
4.19037
 20
78.069
 11
0.00366211
 21
85
  0
LINE
  8
0
 10
30.0037
 20
85
 11
33.0992
 21
90.1246
  0
LINE
  8
0
 10
33.0992
 20
90.1246
 11
36.4673
 21
79.7586
  0
LINE
  8
0
 10
36.4673
 20
79.7586
 11
34.1904
 21
78.069
  0
LINE
  8
0
 10
34.1904
 20
78.069
 11
30.0037
 21
85
  0
LINE
  8
0
 10
-34.2687
 20
86.5253
 11
-33.6114
 21
88.5483
  0
LINE
  8
0
 10
-33.6114
 20
88.5483
 11
-31.5884
 21
86.5253
  0
LINE
  8
0
 10
-31.5884
 20
86.5253
 11
-34.2687
 21
86.5253
  0
LINE
  8
0
 10
16.4676
 20
83.4747
 11
28.4116
 21
83.4747
  0
LINE
  8
0
 10
28.4116
 20
83.4747
 11
16.4676
 21
71.5303
  0
LINE
  8
0
 10
16.4676
 20
71.5303
 11
16.4676
 21
83.4747
  0
LINE
  8
0
 10
-35.2599
 20
83.4747
 11
-31.5884
 21
83.4747
  0
LINE
  8
0
 10
-31.5884
 20
83.4747
 11
-37.027
 21
78.0359
  0
LINE
  8
0
 10
-37.027
 20
78.0359
 11
-35.2599
 21
83.4747
  0
LINE
  8
0
 10
-13.5324
 20
83.4747
 11
-1.58844
 21
83.4747
  0
LINE
  8
0
 10
-1.58844
 20
83.4747
 11
-13.5324
 21
71.5303
  0
LINE
  8
0
 10
-13.5324
 20
71.5303
 11
-13.5324
 21
83.4747
  0
LINE
  8
0
 10
1.58844
 20
71.5253
 11
13.5324
 21
83.4697
  0
LINE
  8
0
 10
13.5324
 20
83.4697
 11
13.5324
 21
71.5253
  0
LINE
  8
0
 10
13.5324
 20
71.5253
 11
1.58844
 21
71.5253
  0
LINE
  8
0
 10
-28.4116
 20
71.5253
 11
-16.4676
 21
83.4697
  0
LINE
  8
0
 10
-16.4676
 20
83.4697
 11
-16.4676
 21
71.5253
  0
LINE
  8
0
 10
-16.4676
 20
71.5253
 11
-28.4116
 21
71.5253
  0
LINE
  8
0
 10
31.5884
 20
71.5253
 11
37.2899
 21
77.2269
  0
LINE
  8
0
 10
37.2899
 20
77.2269
 11
39.1425
 21
71.5253
  0
LINE
  8
0
 10
39.1425
 20
71.5253
 11
31.5884
 21
71.5253
  0
LINE
  8
0
 10
-13.5306
 20
70
 11
-4.19037
 21
76.931
  0
LINE
  8
0
 10
-4.19037
 20
76.931
 11
-0.00320435
 21
70
  0
LINE
  8
0
 10
-0.00320435
 20
70
 11
-4.19037
 21
63.069
  0
LINE
  8
0
 10
-4.19037
 20
63.069
 11
-13.5306
 21
70
  0
LINE
  8
0
 10
-40.3943
 20
67.6727
 11
-38.4014
 21
73.8062
  0
LINE
  8
0
 10
-38.4014
 20
73.8062
 11
-34.1904
 21
76.931
  0
LINE
  8
0
 10
-34.1904
 20
76.931
 11
-30.0032
 21
70
  0
LINE
  8
0
 10
-30.0032
 20
70
 11
-34.1904
 21
63.069
  0
LINE
  8
0
 10
-34.1904
 20
63.069
 11
-40.3943
 21
67.6727
  0
LINE
  8
0
 10
16.4694
 20
70
 11
25.8096
 21
76.931
  0
LINE
  8
0
 10
25.8096
 20
76.931
 11
29.9968
 21
70
  0
LINE
  8
0
 10
29.9968
 20
70
 11
25.8096
 21
63.069
  0
LINE
  8
0
 10
25.8096
 20
63.069
 11
16.4694
 21
70
  0
LINE
  8
0
 10
-28.4116
 20
68.4747
 11
-16.4676
 21
68.4747
  0
LINE
  8
0
 10
-16.4676
 20
68.4747
 11
-16.4676
 21
56.5303
  0
LINE
  8
0
 10
-16.4676
 20
56.5303
 11
-28.4116
 21
68.4747
  0
LINE
  8
0
 10
1.58844
 20
68.4747
 11
13.5324
 21
68.4747
  0
LINE
  8
0
 10
13.5324
 20
68.4747
 11
13.5324
 21
56.5303
  0
LINE
  8
0
 10
13.5324
 20
56.5303
 11
1.58844
 21
68.4747
  0
LINE
  8
0
 10
31.5884
 20
68.4747
 11
40.1337
 21
68.4747
  0
LINE
  8
0
 10
40.1337
 20
68.4747
 11
43.5324
 21
58.0145
  0
LINE
  8
0
 10
43.5324
 20
58.0145
 11
43.5324
 21
56.5303
  0
LINE
  8
0
 10
43.5324
 20
56.5303
 11
31.5884
 21
68.4747
  0
LINE
  8
0
 10
-13.5324
 20
56.5253
 11
-13.5324
 21
68.4697
  0
LINE
  8
0
 10
-13.5324
 20
68.4697
 11
-1.58844
 21
56.5253
  0
LINE
  8
0
 10
-1.58844
 20
56.5253
 11
-13.5324
 21
56.5253
  0
LINE
  8
0
 10
16.4676
 20
56.5253
 11
16.4676
 21
68.4697
  0
LINE
  8
0
 10
16.4676
 20
68.4697
 11
28.4116
 21
56.5253
  0
LINE
  8
0
 10
28.4116
 20
56.5253
 11
16.4676
 21
56.5253
  0
LINE
  8
0
 10
-43.5324
 20
56.5253
 11
-43.5324
 21
58.0145
  0
LINE
  8
0
 10
-43.5324
 20
58.0145
 11
-40.9684
 21
65.9056
  0
LINE
  8
0
 10
-40.9684
 20
65.9056
 11
-31.5884
 21
56.5253
  0
LINE
  8
0
 10
-31.5884
 20
56.5253
 11
-43.5324
 21
56.5253
  0
LINE
  8
0
 10
0.00366211
 20
55
 11
4.19037
 21
61.931
  0
LINE
  8
0
 10
4.19037
 20
61.931
 11
13.5306
 21
55
  0
LINE
  8
0
 10
13.5306
 20
55
 11
4.19037
 21
48.069
  0
LINE
  8
0
 10
4.19037
 20
48.069
 11
0.00366211
 21
55
  0
LINE
  8
0
 10
30.0037
 20
55
 11
34.1904
 21
61.931
  0
LINE
  8
0
 10
34.1904
 20
61.931
 11
43.5306
 21
55
  0
LINE
  8
0
 10
43.5306
 20
55
 11
34.1904
 21
48.069
  0
LINE
  8
0
 10
34.1904
 20
48.069
 11
30.0037
 21
55
  0
LINE
  8
0
 10
-29.9963
 20
55
 11
-25.8096
 21
61.931
  0
LINE
  8
0
 10
-25.8096
 20
61.931
 11
-16.4694
 21
55
  0
LINE
  8
0
 10
-16.4694
 20
55
 11
-25.8096
 21
48.069
  0
LINE
  8
0
 10
-25.8096
 20
48.069
 11
-29.9963
 21
55
  0
LINE
  8
0
 10
16.4676
 20
53.4747
 11
28.4116
 21
53.4747
  0
LINE
  8
0
 10
28.4116
 20
53.4747
 11
16.4676
 21
41.5303
  0
LINE
  8
0
 10
16.4676
 20
41.5303
 11
16.4676
 21
53.4747
  0
LINE
  8
0
 10
-13.5324
 20
53.4747
 11
-1.58844
 21
53.4747
  0
LINE
  8
0
 10
-1.58844
 20
53.4747
 11
-13.5324
 21
41.5303
  0
LINE
  8
0
 10
-13.5324
 20
41.5303
 11
-13.5324
 21
53.4747
  0
LINE
  8
0
 10
-43.5324
 20
53.4747
 11
-31.5884
 21
53.4747
  0
LINE
  8
0
 10
-31.5884
 20
53.4747
 11
-43.5324
 21
41.5303
  0
LINE
  8
0
 10
-43.5324
 20
41.5303
 11
-43.5324
 21
53.4747
  0
LINE
  8
0
 10
-28.4116
 20
41.5253
 11
-16.4676
 21
53.4697
  0
LINE
  8
0
 10
-16.4676
 20
53.4697
 11
-16.4676
 21
41.5253
  0
LINE
  8
0
 10
-16.4676
 20
41.5253
 11
-28.4116
 21
41.5253
  0
LINE
  8
0
 10
1.58844
 20
41.5253
 11
13.5324
 21
53.4697
  0
LINE
  8
0
 10
13.5324
 20
53.4697
 11
13.5324
 21
41.5253
  0
LINE
  8
0
 10
13.5324
 20
41.5253
 11
1.58844
 21
41.5253
  0
LINE
  8
0
 10
31.5884
 20
41.5253
 11
43.5324
 21
53.4697
  0
LINE
  8
0
 10
43.5324
 20
53.4697
 11
43.5324
 21
41.5253
  0
LINE
  8
0
 10
43.5324
 20
41.5253
 11
31.5884
 21
41.5253
  0
LINE
  8
0
 10
-48.8901
 20
41.5253
 11
-46.4676
 21
48.9809
  0
LINE
  8
0
 10
-46.4676
 20
48.9809
 11
-46.4676
 21
41.5253
  0
LINE
  8
0
 10
-46.4676
 20
41.5253
 11
-48.8901
 21
41.5253
  0
LINE
  8
0
 10
46.4676
 20
48.9809
 11
48.2947
 21
43.3575
  0
LINE
  8
0
 10
48.2947
 20
43.3575
 11
46.4676
 21
41.5303
  0
LINE
  8
0
 10
46.4676
 20
41.5303
 11
46.4676
 21
48.9809
  0
LINE
  8
0
 10
-13.5306
 20
40
 11
-4.19037
 21
46.931
  0
LINE
  8
0
 10
-4.19037
 20
46.931
 11
-0.00320435
 21
40
  0
LINE
  8
0
 10
-0.00320435
 20
40
 11
-4.19037
 21
33.069
  0
LINE
  8
0
 10
-4.19037
 20
33.069
 11
-13.5306
 21
40
  0
LINE
  8
0
 10
-43.5306
 20
40
 11
-34.1904
 21
46.931
  0
LINE
  8
0
 10
-34.1904
 20
46.931
 11
-30.0032
 21
40
  0
LINE
  8
0
 10
-30.0032
 20
40
 11
-34.1904
 21
33.069
  0
LINE
  8
0
 10
-34.1904
 20
33.069
 11
-43.5306
 21
40
  0
LINE
  8
0
 10
16.4694
 20
40
 11
25.8096
 21
46.931
  0
LINE
  8
0
 10
25.8096
 20
46.931
 11
29.9968
 21
40
  0
LINE
  8
0
 10
29.9968
 20
40
 11
25.8096
 21
33.069
  0
LINE
  8
0
 10
25.8096
 20
33.069
 11
16.4694
 21
40
  0
LINE
  8
0
 10
46.4694
 20
40
 11
48.8191
 21
41.7436
  0
LINE
  8
0
 10
48.8191
 20
41.7436
 11
50.3122
 21
37.1484
  0
LINE
  8
0
 10
50.3122
 20
37.1484
 11
46.4694
 21
40
  0
LINE
  8
0
 10
31.5884
 20
38.4747
 11
43.5324
 21
38.4747
  0
LINE
  8
0
 10
43.5324
 20
38.4747
 11
43.5324
 21
26.5303
  0
LINE
  8
0
 10
43.5324
 20
26.5303
 11
31.5884
 21
38.4747
  0
LINE
  8
0
 10
1.58844
 20
38.4747
 11
13.5324
 21
38.4747
  0
LINE
  8
0
 10
13.5324
 20
38.4747
 11
13.5324
 21
26.5303
  0
LINE
  8
0
 10
13.5324
 20
26.5303
 11
1.58844
 21
38.4747
  0
LINE
  8
0
 10
-28.4116
 20
38.4747
 11
-16.4676
 21
38.4747
  0
LINE
  8
0
 10
-16.4676
 20
38.4747
 11
-16.4676
 21
26.5303
  0
LINE
  8
0
 10
-16.4676
 20
26.5303
 11
-28.4116
 21
38.4747
  0
LINE
  8
0
 10
-51.9733
 20
32.0362
 11
-49.8813
 21
38.4747
  0
LINE
  8
0
 10
-49.8813
 20
38.4747
 11
-46.4676
 21
38.4747
  0
LINE
  8
0
 10
-46.4676
 20
38.4747
 11
-46.4676
 21
26.5303
  0
LINE
  8
0
 10
-46.4676
 20
26.5303
 11
-51.9733
 21
32.0362
  0
LINE
  8
0
 10
46.4676
 20
26.5253
 11
46.4676
 21
38.4697
  0
LINE
  8
0
 10
46.4676
 20
38.4697
 11
51.5268
 21
33.4103
  0
LINE
  8
0
 10
51.5268
 20
33.4103
 11
53.7639
 21
26.5253
  0
LINE
  8
0
 10
53.7639
 20
26.5253
 11
46.4676
 21
26.5253
  0
LINE
  8
0
 10
-13.5324
 20
26.5253
 11
-13.5324
 21
38.4697
  0
LINE
  8
0
 10
-13.5324
 20
38.4697
 11
-1.58844
 21
26.5253
  0
LINE
  8
0
 10
-1.58844
 20
26.5253
 11
-13.5324
 21
26.5253
  0
LINE
  8
0
 10
16.4676
 20
26.5253
 11
16.4676
 21
38.4697
  0
LINE
  8
0
 10
16.4676
 20
38.4697
 11
28.4116
 21
26.5253
  0
LINE
  8
0
 10
28.4116
 20
26.5253
 11
16.4676
 21
26.5253
  0
LINE
  8
0
 10
-43.5324
 20
26.5253
 11
-43.5324
 21
38.4697
  0
LINE
  8
0
 10
-43.5324
 20
38.4697
 11
-31.5884
 21
26.5253
  0
LINE
  8
0
 10
-31.5884
 20
26.5253
 11
-43.5324
 21
26.5253
  0
LINE
  8
0
 10
30.0037
 20
25
 11
34.1904
 21
31.931
  0
LINE
  8
0
 10
34.1904
 20
31.931
 11
43.5306
 21
25
  0
LINE
  8
0
 10
43.5306
 20
25
 11
34.1904
 21
18.069
  0
LINE
  8
0
 10
34.1904
 20
18.069
 11
30.0037
 21
25
  0
LINE
  8
0
 10
0.00366211
 20
25
 11
4.19037
 21
31.931
  0
LINE
  8
0
 10
4.19037
 20
31.931
 11
13.5306
 21
25
  0
LINE
  8
0
 10
13.5306
 20
25
 11
4.19037
 21
18.069
  0
LINE
  8
0
 10
4.19037
 20
18.069
 11
0.00366211
 21
25
  0
LINE
  8
0
 10
-29.9963
 20
25
 11
-25.8096
 21
31.931
  0
LINE
  8
0
 10
-25.8096
 20
31.931
 11
-16.4694
 21
25
  0
LINE
  8
0
 10
-16.4694
 20
25
 11
-25.8096
 21
18.069
  0
LINE
  8
0
 10
-25.8096
 20
18.069
 11
-29.9963
 21
25
  0
LINE
  8
0
 10
-56.266
 20
18.8245
 11
-52.7461
 21
29.6577
  0
LINE
  8
0
 10
-52.7461
 20
29.6577
 11
-46.4694
 21
25
  0
LINE
  8
0
 10
-46.4694
 20
25
 11
-55.8096
 21
18.069
  0
LINE
  8
0
 10
-55.8096
 20
18.069
 11
-56.266
 21
18.8245
  0
LINE
  8
0
 10
-43.5324
 20
12
 11
-43.5324
 21
23.4747
  0
LINE
  8
0
 10
-43.5324
 20
23.4747
 11
-31.5884
 21
23.4747
  0
LINE
  8
0
 10
-31.5884
 20
23.4747
 11
-43.0627
 21
12
  0
LINE
  8
0
 10
-43.0627
 20
12
 11
-43.5324
 21
12
  0
LINE
  8
0
 10
-13.5324
 20
12
 11
-13.5324
 21
23.4747
  0
LINE
  8
0
 10
-13.5324
 20
23.4747
 11
-1.58844
 21
23.4747
  0
LINE
  8
0
 10
-1.58844
 20
23.4747
 11
-13.0627
 21
12
  0
LINE
  8
0
 10
-13.0627
 20
12
 11
-13.5324
 21
12
  0
LINE
  8
0
 10
16.4676
 20
12
 11
16.4676
 21
23.4747
  0
LINE
  8
0
 10
16.4676
 20
23.4747
 11
28.4116
 21
23.4747
  0
LINE
  8
0
 10
28.4116
 20
23.4747
 11
16.9373
 21
12
  0
LINE
  8
0
 10
16.9373
 20
12
 11
16.4676
 21
12
  0
LINE
  8
0
 10
46.4676
 20
12
 11
46.4676
 21
23.4747
  0
LINE
  8
0
 10
46.4676
 20
23.4747
 11
54.7551
 21
23.4747
  0
LINE
  8
0
 10
54.7551
 20
23.4747
 11
55.6518
 21
20.7149
  0
LINE
  8
0
 10
55.6518
 20
20.7149
 11
46.9373
 21
12
  0
LINE
  8
0
 10
46.9373
 20
12
 11
46.4676
 21
12
  0
LINE
  8
0
 10
2.06316
 20
12
 11
13.5324
 21
23.4697
  0
LINE
  8
0
 10
13.5324
 20
23.4697
 11
13.5324
 21
12
  0
LINE
  8
0
 10
13.5324
 20
12
 11
2.06316
 21
12
  0
LINE
  8
0
 10
32.0632
 20
12
 11
43.5324
 21
23.4697
  0
LINE
  8
0
 10
43.5324
 20
23.4697
 11
43.5324
 21
12
  0
LINE
  8
0
 10
43.5324
 20
12
 11
32.0632
 21
12
  0
LINE
  8
0
 10
-57.9368
 20
12
 11
-46.4676
 21
23.4697
  0
LINE
  8
0
 10
-46.4676
 20
23.4697
 11
-46.4676
 21
12
  0
LINE
  8
0
 10
-46.4676
 20
12
 11
-57.9368
 21
12
  0
LINE
  8
0
 10
-27.9368
 20
12
 11
-16.4676
 21
23.4697
  0
LINE
  8
0
 10
-16.4676
 20
23.4697
 11
-16.4676
 21
12
  0
LINE
  8
0
 10
-16.4676
 20
12
 11
-27.9368
 21
12
  0
LINE
  8
0
 10
-10.8354
 20
12
 11
-4.19037
 21
16.931
  0
LINE
  8
0
 10
-4.19037
 20
16.931
 11
-1.21144
 21
12
  0
LINE
  8
0
 10
-1.21144
 20
12
 11
-10.8354
 21
12
  0
LINE
  8
0
 10
49.1646
 20
12
 11
55.8096
 21
16.931
  0
LINE
  8
0
 10
55.8096
 20
16.931
 11
58.1283
 21
13.0929
  0
LINE
  8
0
 10
58.1283
 20
13.0929
 11
58.4834
 21
12
  0
LINE
  8
0
 10
58.4834
 20
12
 11
49.1646
 21
12
  0
LINE
  8
0
 10
-40.8354
 20
12
 11
-34.1904
 21
16.931
  0
LINE
  8
0
 10
-34.1904
 20
16.931
 11
-31.2114
 21
12
  0
LINE
  8
0
 10
-31.2114
 20
12
 11
-40.8354
 21
12
  0
LINE
  8
0
 10
19.1646
 20
12
 11
25.8096
 21
16.931
  0
LINE
  8
0
 10
25.8096
 20
16.931
 11
28.7886
 21
12
  0
LINE
  8
0
 10
28.7886
 20
12
 11
19.1646
 21
12
  0
LINE
  8
0
 10
-10
 20
7
 11
-10
 21
11
  0
LINE
  8
0
 10
-10
 20
11
 11
10
 21
11
  0
LINE
  8
0
 10
10
 20
11
 11
10
 21
7
  0
LINE
  8
0
 10
10
 20
7
 11
-10
 21
7
  0
LINE
  8
0
 10
-68.6534
 20
2.70622
 11
-68.7785
 21
2.71805
  0
LINE
  8
0
 10
-68.7785
 20
2.71805
 11
-68.9026
 21
2.7377
  0
LINE
  8
0
 10
-68.9026
 20
2.7377
 11
-69.0252
 21
2.76511
  0
LINE
  8
0
 10
-69.0252
 20
2.76511
 11
-69.1459
 21
2.80016
  0
LINE
  8
0
 10
-69.1459
 20
2.80016
 11
-69.2641
 21
2.84273
  0
LINE
  8
0
 10
-69.2641
 20
2.84273
 11
-69.3794
 21
2.89262
  0
LINE
  8
0
 10
-69.3794
 20
2.89262
 11
-69.4914
 21
2.94966
  0
LINE
  8
0
 10
-69.4914
 20
2.94966
 11
-69.5995
 21
3.01363
  0
LINE
  8
0
 10
-69.5995
 20
3.01363
 11
-69.7034
 21
3.08424
  0
LINE
  8
0
 10
-69.7034
 20
3.08424
 11
-69.8027
 21
3.16125
  0
LINE
  8
0
 10
-69.8027
 20
3.16125
 11
-69.897
 21
3.24434
  0
LINE
  8
0
 10
-69.897
 20
3.24434
 11
-69.9858
 21
3.33318
  0
LINE
  8
0
 10
-69.9858
 20
3.33318
 11
-70.0689
 21
3.42743
  0
LINE
  8
0
 10
-70.0689
 20
3.42743
 11
-70.1459
 21
3.5267
  0
LINE
  8
0
 10
-70.1459
 20
3.5267
 11
-70.2165
 21
3.63062
  0
LINE
  8
0
 10
-70.2165
 20
3.63062
 11
-70.2805
 21
3.73877
  0
LINE
  8
0
 10
-70.2805
 20
3.73877
 11
-70.3375
 21
3.85072
  0
LINE
  8
0
 10
-70.3375
 20
3.85072
 11
-70.3874
 21
3.96602
  0
LINE
  8
0
 10
-70.3874
 20
3.96602
 11
-70.43
 21
4.08424
  0
LINE
  8
0
 10
-70.43
 20
4.08424
 11
-70.465
 21
4.2049
  0
LINE
  8
0
 10
-70.465
 20
4.2049
 11
-70.4924
 21
4.32751
  0
LINE
  8
0
 10
-70.4924
 20
4.32751
 11
-70.5121
 21
4.45161
  0
LINE
  8
0
 10
-70.5121
 20
4.45161
 11
-70.5239
 21
4.57669
  0
LINE
  8
0
 10
-70.5239
 20
4.57669
 11
-70.5279
 21
4.70227
  0
LINE
  8
0
 10
-70.5279
 20
4.70227
 11
-70.5239
 21
4.82785
  0
LINE
  8
0
 10
-70.5239
 20
4.82785
 11
-70.5121
 21
4.95294
  0
LINE
  8
0
 10
-70.5121
 20
4.95294
 11
-70.4924
 21
5.07704
  0
LINE
  8
0
 10
-70.4924
 20
5.07704
 11
-70.465
 21
5.19966
  0
LINE
  8
0
 10
-70.465
 20
5.19966
 11
-70.43
 21
5.32031
  0
LINE
  8
0
 10
-70.43
 20
5.32031
 11
-70.3874
 21
5.43852
  0
LINE
  8
0
 10
-70.3874
 20
5.43852
 11
-70.3375
 21
5.55383
  0
LINE
  8
0
 10
-70.3375
 20
5.55383
 11
-70.2805
 21
5.66579
  0
LINE
  8
0
 10
-70.2805
 20
5.66579
 11
-70.2165
 21
5.77393
  0
LINE
  8
0
 10
-70.2165
 20
5.77393
 11
-70.1459
 21
5.87784
  0
LINE
  8
0
 10
-70.1459
 20
5.87784
 11
-70.0689
 21
5.97713
  0
LINE
  8
0
 10
-70.0689
 20
5.97713
 11
-69.9858
 21
6.07137
  0
LINE
  8
0
 10
-69.9858
 20
6.07137
 11
-69.897
 21
6.16022
  0
LINE
  8
0
 10
-69.897
 20
6.16022
 11
-69.8027
 21
6.2433
  0
LINE
  8
0
 10
-69.8027
 20
6.2433
 11
-69.7034
 21
6.32031
  0
LINE
  8
0
 10
-69.7034
 20
6.32031
 11
-69.5995
 21
6.39093
  0
LINE
  8
0
 10
-69.5995
 20
6.39093
 11
-69.4914
 21
6.4549
  0
LINE
  8
0
 10
-69.4914
 20
6.4549
 11
-69.3794
 21
6.51193
  0
LINE
  8
0
 10
-69.3794
 20
6.51193
 11
-69.2641
 21
6.56183
  0
LINE
  8
0
 10
-69.2641
 20
6.56183
 11
-69.1459
 21
6.60439
  0
LINE
  8
0
 10
-69.1459
 20
6.60439
 11
-69.0252
 21
6.63943
  0
LINE
  8
0
 10
-69.0252
 20
6.63943
 11
-68.9026
 21
6.66685
  0
LINE
  8
0
 10
-68.9026
 20
6.66685
 11
-68.7785
 21
6.68651
  0
LINE
  8
0
 10
-68.7785
 20
6.68651
 11
-68.6534
 21
6.69833
  0
LINE
  8
0
 10
-68.6534
 20
6.69833
 11
-68.5279
 21
6.70227
  0
LINE
  8
0
 10
-68.5279
 20
6.70227
 11
-68.4023
 21
6.69833
  0
LINE
  8
0
 10
-68.4023
 20
6.69833
 11
-68.2772
 21
6.68651
  0
LINE
  8
0
 10
-68.2772
 20
6.68651
 11
-68.1531
 21
6.66685
  0
LINE
  8
0
 10
-68.1531
 20
6.66685
 11
-68.0305
 21
6.63943
  0
LINE
  8
0
 10
-68.0305
 20
6.63943
 11
-67.9098
 21
6.60439
  0
LINE
  8
0
 10
-67.9098
 20
6.60439
 11
-67.7916
 21
6.56183
  0
LINE
  8
0
 10
-67.7916
 20
6.56183
 11
-67.6763
 21
6.51193
  0
LINE
  8
0
 10
-67.6763
 20
6.51193
 11
-67.5643
 21
6.4549
  0
LINE
  8
0
 10
-67.5643
 20
6.4549
 11
-67.4562
 21
6.39093
  0
LINE
  8
0
 10
-67.4562
 20
6.39093
 11
-67.3523
 21
6.32031
  0
LINE
  8
0
 10
-67.3523
 20
6.32031
 11
-67.253
 21
6.2433
  0
LINE
  8
0
 10
-67.253
 20
6.2433
 11
-67.1588
 21
6.16022
  0
LINE
  8
0
 10
-67.1588
 20
6.16022
 11
-67.0699
 21
6.07137
  0
LINE
  8
0
 10
-67.0699
 20
6.07137
 11
-66.9868
 21
5.97713
  0
LINE
  8
0
 10
-66.9868
 20
5.97713
 11
-66.9098
 21
5.87784
  0
LINE
  8
0
 10
-66.9098
 20
5.87784
 11
-66.8392
 21
5.77393
  0
LINE
  8
0
 10
-66.8392
 20
5.77393
 11
-66.7752
 21
5.66579
  0
LINE
  8
0
 10
-66.7752
 20
5.66579
 11
-66.7182
 21
5.55383
  0
LINE
  8
0
 10
-66.7182
 20
5.55383
 11
-66.6683
 21
5.43852
  0
LINE
  8
0
 10
-66.6683
 20
5.43852
 11
-66.6257
 21
5.32031
  0
LINE
  8
0
 10
-66.6257
 20
5.32031
 11
-66.5907
 21
5.19966
  0
LINE
  8
0
 10
-66.5907
 20
5.19966
 11
-66.5633
 21
5.07704
  0
LINE
  8
0
 10
-66.5633
 20
5.07704
 11
-66.5436
 21
4.95294
  0
LINE
  8
0
 10
-66.5436
 20
4.95294
 11
-66.5318
 21
4.82785
  0
LINE
  8
0
 10
-66.5318
 20
4.82785
 11
-66.5279
 21
4.70227
  0
LINE
  8
0
 10
-66.5279
 20
4.70227
 11
-66.5318
 21
4.57669
  0
LINE
  8
0
 10
-66.5318
 20
4.57669
 11
-66.5436
 21
4.45161
  0
LINE
  8
0
 10
-66.5436
 20
4.45161
 11
-66.5633
 21
4.32751
  0
LINE
  8
0
 10
-66.5633
 20
4.32751
 11
-66.5907
 21
4.2049
  0
LINE
  8
0
 10
-66.5907
 20
4.2049
 11
-66.6257
 21
4.08424
  0
LINE
  8
0
 10
-66.6257
 20
4.08424
 11
-66.6683
 21
3.96602
  0
LINE
  8
0
 10
-66.6683
 20
3.96602
 11
-66.7182
 21
3.85072
  0
LINE
  8
0
 10
-66.7182
 20
3.85072
 11
-66.7752
 21
3.73877
  0
LINE
  8
0
 10
-66.7752
 20
3.73877
 11
-66.8392
 21
3.63062
  0
LINE
  8
0
 10
-66.8392
 20
3.63062
 11
-66.9098
 21
3.5267
  0
LINE
  8
0
 10
-66.9098
 20
3.5267
 11
-66.9868
 21
3.42743
  0
LINE
  8
0
 10
-66.9868
 20
3.42743
 11
-67.0699
 21
3.33318
  0
LINE
  8
0
 10
-67.0699
 20
3.33318
 11
-67.1588
 21
3.24434
  0
LINE
  8
0
 10
-67.1588
 20
3.24434
 11
-67.253
 21
3.16125
  0
LINE
  8
0
 10
-67.253
 20
3.16125
 11
-67.3523
 21
3.08424
  0
LINE
  8
0
 10
-67.3523
 20
3.08424
 11
-67.4562
 21
3.01363
  0
LINE
  8
0
 10
-67.4562
 20
3.01363
 11
-67.5643
 21
2.94966
  0
LINE
  8
0
 10
-67.5643
 20
2.94966
 11
-67.6763
 21
2.89262
  0
LINE
  8
0
 10
-67.6763
 20
2.89262
 11
-67.7916
 21
2.84273
  0
LINE
  8
0
 10
-67.7916
 20
2.84273
 11
-67.9098
 21
2.80016
  0
LINE
  8
0
 10
-67.9098
 20
2.80016
 11
-68.0305
 21
2.76511
  0
LINE
  8
0
 10
-68.0305
 20
2.76511
 11
-68.1531
 21
2.7377
  0
LINE
  8
0
 10
-68.1531
 20
2.7377
 11
-68.2772
 21
2.71805
  0
LINE
  8
0
 10
-68.2772
 20
2.71805
 11
-68.4023
 21
2.70622
  0
LINE
  8
0
 10
-68.4023
 20
2.70622
 11
-68.5279
 21
2.70227
  0
LINE
  8
0
 10
-68.5279
 20
2.70227
 11
-68.6534
 21
2.70622
  0
LINE
  8
0
 10
68.4023
 20
2.70622
 11
68.2772
 21
2.71805
  0
LINE
  8
0
 10
68.2772
 20
2.71805
 11
68.1531
 21
2.7377
  0
LINE
  8
0
 10
68.1531
 20
2.7377
 11
68.0305
 21
2.76511
  0
LINE
  8
0
 10
68.0305
 20
2.76511
 11
67.9098
 21
2.80016
  0
LINE
  8
0
 10
67.9098
 20
2.80016
 11
67.7916
 21
2.84273
  0
LINE
  8
0
 10
67.7916
 20
2.84273
 11
67.6763
 21
2.89262
  0
LINE
  8
0
 10
67.6763
 20
2.89262
 11
67.5643
 21
2.94966
  0
LINE
  8
0
 10
67.5643
 20
2.94966
 11
67.4562
 21
3.01363
  0
LINE
  8
0
 10
67.4562
 20
3.01363
 11
67.3523
 21
3.08424
  0
LINE
  8
0
 10
67.3523
 20
3.08424
 11
67.253
 21
3.16125
  0
LINE
  8
0
 10
67.253
 20
3.16125
 11
67.1588
 21
3.24434
  0
LINE
  8
0
 10
67.1588
 20
3.24434
 11
67.0699
 21
3.33318
  0
LINE
  8
0
 10
67.0699
 20
3.33318
 11
66.9868
 21
3.42743
  0
LINE
  8
0
 10
66.9868
 20
3.42743
 11
66.9098
 21
3.5267
  0
LINE
  8
0
 10
66.9098
 20
3.5267
 11
66.8392
 21
3.63062
  0
LINE
  8
0
 10
66.8392
 20
3.63062
 11
66.7752
 21
3.73877
  0
LINE
  8
0
 10
66.7752
 20
3.73877
 11
66.7182
 21
3.85072
  0
LINE
  8
0
 10
66.7182
 20
3.85072
 11
66.6683
 21
3.96602
  0
LINE
  8
0
 10
66.6683
 20
3.96602
 11
66.6257
 21
4.08424
  0
LINE
  8
0
 10
66.6257
 20
4.08424
 11
66.5907
 21
4.2049
  0
LINE
  8
0
 10
66.5907
 20
4.2049
 11
66.5633
 21
4.32751
  0
LINE
  8
0
 10
66.5633
 20
4.32751
 11
66.5436
 21
4.45161
  0
LINE
  8
0
 10
66.5436
 20
4.45161
 11
66.5318
 21
4.57669
  0
LINE
  8
0
 10
66.5318
 20
4.57669
 11
66.5279
 21
4.70227
  0
LINE
  8
0
 10
66.5279
 20
4.70227
 11
66.5318
 21
4.82785
  0
LINE
  8
0
 10
66.5318
 20
4.82785
 11
66.5436
 21
4.95294
  0
LINE
  8
0
 10
66.5436
 20
4.95294
 11
66.5633
 21
5.07704
  0
LINE
  8
0
 10
66.5633
 20
5.07704
 11
66.5907
 21
5.19966
  0
LINE
  8
0
 10
66.5907
 20
5.19966
 11
66.6257
 21
5.32031
  0
LINE
  8
0
 10
66.6257
 20
5.32031
 11
66.6683
 21
5.43852
  0
LINE
  8
0
 10
66.6683
 20
5.43852
 11
66.7182
 21
5.55383
  0
LINE
  8
0
 10
66.7182
 20
5.55383
 11
66.7752
 21
5.66579
  0
LINE
  8
0
 10
66.7752
 20
5.66579
 11
66.8392
 21
5.77393
  0
LINE
  8
0
 10
66.8392
 20
5.77393
 11
66.9098
 21
5.87784
  0
LINE
  8
0
 10
66.9098
 20
5.87784
 11
66.9868
 21
5.97713
  0
LINE
  8
0
 10
66.9868
 20
5.97713
 11
67.0699
 21
6.07137
  0
LINE
  8
0
 10
67.0699
 20
6.07137
 11
67.1588
 21
6.16022
  0
LINE
  8
0
 10
67.1588
 20
6.16022
 11
67.253
 21
6.2433
  0
LINE
  8
0
 10
67.253
 20
6.2433
 11
67.3523
 21
6.32031
  0
LINE
  8
0
 10
67.3523
 20
6.32031
 11
67.4562
 21
6.39093
  0
LINE
  8
0
 10
67.4562
 20
6.39093
 11
67.5643
 21
6.4549
  0
LINE
  8
0
 10
67.5643
 20
6.4549
 11
67.6763
 21
6.51193
  0
LINE
  8
0
 10
67.6763
 20
6.51193
 11
67.7916
 21
6.56183
  0
LINE
  8
0
 10
67.7916
 20
6.56183
 11
67.9098
 21
6.60439
  0
LINE
  8
0
 10
67.9098
 20
6.60439
 11
68.0305
 21
6.63943
  0
LINE
  8
0
 10
68.0305
 20
6.63943
 11
68.1531
 21
6.66685
  0
LINE
  8
0
 10
68.1531
 20
6.66685
 11
68.2772
 21
6.68651
  0
LINE
  8
0
 10
68.2772
 20
6.68651
 11
68.4023
 21
6.69833
  0
LINE
  8
0
 10
68.4023
 20
6.69833
 11
68.5279
 21
6.70227
  0
LINE
  8
0
 10
68.5279
 20
6.70227
 11
68.6534
 21
6.69833
  0
LINE
  8
0
 10
68.6534
 20
6.69833
 11
68.7785
 21
6.68651
  0
LINE
  8
0
 10
68.7785
 20
6.68651
 11
68.9026
 21
6.66685
  0
LINE
  8
0
 10
68.9026
 20
6.66685
 11
69.0252
 21
6.63943
  0
LINE
  8
0
 10
69.0252
 20
6.63943
 11
69.1459
 21
6.60439
  0
LINE
  8
0
 10
69.1459
 20
6.60439
 11
69.2641
 21
6.56183
  0
LINE
  8
0
 10
69.2641
 20
6.56183
 11
69.3794
 21
6.51193
  0
LINE
  8
0
 10
69.3794
 20
6.51193
 11
69.4914
 21
6.4549
  0
LINE
  8
0
 10
69.4914
 20
6.4549
 11
69.5995
 21
6.39093
  0
LINE
  8
0
 10
69.5995
 20
6.39093
 11
69.7034
 21
6.32031
  0
LINE
  8
0
 10
69.7034
 20
6.32031
 11
69.8027
 21
6.2433
  0
LINE
  8
0
 10
69.8027
 20
6.2433
 11
69.897
 21
6.16022
  0
LINE
  8
0
 10
69.897
 20
6.16022
 11
69.9858
 21
6.07137
  0
LINE
  8
0
 10
69.9858
 20
6.07137
 11
70.0689
 21
5.97713
  0
LINE
  8
0
 10
70.0689
 20
5.97713
 11
70.1459
 21
5.87784
  0
LINE
  8
0
 10
70.1459
 20
5.87784
 11
70.2165
 21
5.77393
  0
LINE
  8
0
 10
70.2165
 20
5.77393
 11
70.2805
 21
5.66579
  0
LINE
  8
0
 10
70.2805
 20
5.66579
 11
70.3375
 21
5.55383
  0
LINE
  8
0
 10
70.3375
 20
5.55383
 11
70.3874
 21
5.43852
  0
LINE
  8
0
 10
70.3874
 20
5.43852
 11
70.43
 21
5.32031
  0
LINE
  8
0
 10
70.43
 20
5.32031
 11
70.465
 21
5.19966
  0
LINE
  8
0
 10
70.465
 20
5.19966
 11
70.4924
 21
5.07704
  0
LINE
  8
0
 10
70.4924
 20
5.07704
 11
70.5121
 21
4.95294
  0
LINE
  8
0
 10
70.5121
 20
4.95294
 11
70.5239
 21
4.82785
  0
LINE
  8
0
 10
70.5239
 20
4.82785
 11
70.5279
 21
4.70227
  0
LINE
  8
0
 10
70.5279
 20
4.70227
 11
70.5239
 21
4.57669
  0
LINE
  8
0
 10
70.5239
 20
4.57669
 11
70.5121
 21
4.45161
  0
LINE
  8
0
 10
70.5121
 20
4.45161
 11
70.4924
 21
4.32751
  0
LINE
  8
0
 10
70.4924
 20
4.32751
 11
70.465
 21
4.2049
  0
LINE
  8
0
 10
70.465
 20
4.2049
 11
70.43
 21
4.08424
  0
LINE
  8
0
 10
70.43
 20
4.08424
 11
70.3874
 21
3.96602
  0
LINE
  8
0
 10
70.3874
 20
3.96602
 11
70.3375
 21
3.85072
  0
LINE
  8
0
 10
70.3375
 20
3.85072
 11
70.2805
 21
3.73877
  0
LINE
  8
0
 10
70.2805
 20
3.73877
 11
70.2165
 21
3.63062
  0
LINE
  8
0
 10
70.2165
 20
3.63062
 11
70.1459
 21
3.5267
  0
LINE
  8
0
 10
70.1459
 20
3.5267
 11
70.0689
 21
3.42743
  0
LINE
  8
0
 10
70.0689
 20
3.42743
 11
69.9858
 21
3.33318
  0
LINE
  8
0
 10
69.9858
 20
3.33318
 11
69.897
 21
3.24434
  0
LINE
  8
0
 10
69.897
 20
3.24434
 11
69.8027
 21
3.16125
  0
LINE
  8
0
 10
69.8027
 20
3.16125
 11
69.7034
 21
3.08424
  0
LINE
  8
0
 10
69.7034
 20
3.08424
 11
69.5995
 21
3.01363
  0
LINE
  8
0
 10
69.5995
 20
3.01363
 11
69.4914
 21
2.94966
  0
LINE
  8
0
 10
69.4914
 20
2.94966
 11
69.3794
 21
2.89262
  0
LINE
  8
0
 10
69.3794
 20
2.89262
 11
69.2641
 21
2.84273
  0
LINE
  8
0
 10
69.2641
 20
2.84273
 11
69.1459
 21
2.80016
  0
LINE
  8
0
 10
69.1459
 20
2.80016
 11
69.0252
 21
2.76511
  0
LINE
  8
0
 10
69.0252
 20
2.76511
 11
68.9026
 21
2.7377
  0
LINE
  8
0
 10
68.9026
 20
2.7377
 11
68.7785
 21
2.71805
  0
LINE
  8
0
 10
68.7785
 20
2.71805
 11
68.6534
 21
2.70622
  0
LINE
  8
0
 10
68.6534
 20
2.70622
 11
68.5279
 21
2.70227
  0
LINE
  8
0
 10
68.5279
 20
2.70227
 11
68.4023
 21
2.70622
  0
ENDSEC
  0
SECTION
  2
OBJECTS
  0
DICTIONARY
  0
ENDSEC
  0
EOF
