  0
SECTION
  2
BLOCKS
  0
ENDSEC
  0
SECTION
  2
ENTITIES
  0
LINE
  8
0
 10
0
 20
230.826
 11
-75
 21
0
  0
LINE
  8
0
 10
-75
 20
0
 11
75
 21
0
  0
LINE
  8
0
 10
75
 20
0
 11
0
 21
230.826
  0
LINE
  8
0
 10
-0.12558
 20
212.83
 11
-0.250656
 21
212.842
  0
LINE
  8
0
 10
-0.250656
 20
212.842
 11
-0.374756
 21
212.862
  0
LINE
  8
0
 10
-0.374756
 20
212.862
 11
-0.497375
 21
212.889
  0
LINE
  8
0
 10
-0.497375
 20
212.889
 11
-0.618027
 21
212.924
  0
LINE
  8
0
 10
-0.618027
 20
212.924
 11
-0.736237
 21
212.967
  0
LINE
  8
0
 10
-0.736237
 20
212.967
 11
-0.851547
 21
213.017
  0
LINE
  8
0
 10
-0.851547
 20
213.017
 11
-0.963501
 21
213.074
  0
LINE
  8
0
 10
-0.963501
 20
213.074
 11
-1.07164
 21
213.138
  0
LINE
  8
0
 10
-1.07164
 20
213.138
 11
-1.17557
 21
213.208
  0
LINE
  8
0
 10
-1.17557
 20
213.208
 11
-1.27484
 21
213.285
  0
LINE
  8
0
 10
-1.27484
 20
213.285
 11
-1.36908
 21
213.368
  0
LINE
  8
0
 10
-1.36908
 20
213.368
 11
-1.45793
 21
213.457
  0
LINE
  8
0
 10
-1.45793
 20
213.457
 11
-1.54102
 21
213.551
  0
LINE
  8
0
 10
-1.54102
 20
213.551
 11
-1.61803
 21
213.651
  0
LINE
  8
0
 10
-1.61803
 20
213.651
 11
-1.68864
 21
213.755
  0
LINE
  8
0
 10
-1.68864
 20
213.755
 11
-1.75261
 21
213.863
  0
LINE
  8
0
 10
-1.75261
 20
213.863
 11
-1.80965
 21
213.975
  0
LINE
  8
0
 10
-1.80965
 20
213.975
 11
-1.85954
 21
214.09
  0
LINE
  8
0
 10
-1.85954
 20
214.09
 11
-1.9021
 21
214.208
  0
LINE
  8
0
 10
-1.9021
 20
214.208
 11
-1.93716
 21
214.329
  0
LINE
  8
0
 10
-1.93716
 20
214.329
 11
-1.96457
 21
214.451
  0
LINE
  8
0
 10
-1.96457
 20
214.451
 11
-1.98422
 21
214.576
  0
LINE
  8
0
 10
-1.98422
 20
214.576
 11
-1.99605
 21
214.701
  0
LINE
  8
0
 10
-1.99605
 20
214.701
 11
-2
 21
214.826
  0
LINE
  8
0
 10
-2
 20
214.826
 11
-1.99605
 21
214.952
  0
LINE
  8
0
 10
-1.99605
 20
214.952
 11
-1.98422
 21
215.077
  0
LINE
  8
0
 10
-1.98422
 20
215.077
 11
-1.96457
 21
215.201
  0
LINE
  8
0
 10
-1.96457
 20
215.201
 11
-1.93716
 21
215.324
  0
LINE
  8
0
 10
-1.93716
 20
215.324
 11
-1.9021
 21
215.444
  0
LINE
  8
0
 10
-1.9021
 20
215.444
 11
-1.85954
 21
215.562
  0
LINE
  8
0
 10
-1.85954
 20
215.562
 11
-1.80965
 21
215.678
  0
LINE
  8
0
 10
-1.80965
 20
215.678
 11
-1.75261
 21
215.79
  0
LINE
  8
0
 10
-1.75261
 20
215.79
 11
-1.68864
 21
215.898
  0
LINE
  8
0
 10
-1.68864
 20
215.898
 11
-1.61803
 21
216.002
  0
LINE
  8
0
 10
-1.61803
 20
216.002
 11
-1.54102
 21
216.101
  0
LINE
  8
0
 10
-1.54102
 20
216.101
 11
-1.45793
 21
216.195
  0
LINE
  8
0
 10
-1.45793
 20
216.195
 11
-1.36908
 21
216.284
  0
LINE
  8
0
 10
-1.36908
 20
216.284
 11
-1.27484
 21
216.367
  0
LINE
  8
0
 10
-1.27484
 20
216.367
 11
-1.17557
 21
216.444
  0
LINE
  8
0
 10
-1.17557
 20
216.444
 11
-1.07164
 21
216.515
  0
LINE
  8
0
 10
-1.07164
 20
216.515
 11
-0.963501
 21
216.579
  0
LINE
  8
0
 10
-0.963501
 20
216.579
 11
-0.851547
 21
216.636
  0
LINE
  8
0
 10
-0.851547
 20
216.636
 11
-0.736237
 21
216.686
  0
LINE
  8
0
 10
-0.736237
 20
216.686
 11
-0.618027
 21
216.728
  0
LINE
  8
0
 10
-0.618027
 20
216.728
 11
-0.497375
 21
216.763
  0
LINE
  8
0
 10
-0.497375
 20
216.763
 11
-0.374756
 21
216.791
  0
LINE
  8
0
 10
-0.374756
 20
216.791
 11
-0.250656
 21
216.81
  0
LINE
  8
0
 10
-0.250656
 20
216.81
 11
-0.12558
 21
216.822
  0
LINE
  8
0
 10
-0.12558
 20
216.822
 11
0
 21
216.826
  0
LINE
  8
0
 10
0
 20
216.826
 11
0.12558
 21
216.822
  0
LINE
  8
0
 10
0.12558
 20
216.822
 11
0.250656
 21
216.81
  0
LINE
  8
0
 10
0.250656
 20
216.81
 11
0.374756
 21
216.791
  0
LINE
  8
0
 10
0.374756
 20
216.791
 11
0.497375
 21
216.763
  0
LINE
  8
0
 10
0.497375
 20
216.763
 11
0.618027
 21
216.728
  0
LINE
  8
0
 10
0.618027
 20
216.728
 11
0.736237
 21
216.686
  0
LINE
  8
0
 10
0.736237
 20
216.686
 11
0.851547
 21
216.636
  0
LINE
  8
0
 10
0.851547
 20
216.636
 11
0.963501
 21
216.579
  0
LINE
  8
0
 10
0.963501
 20
216.579
 11
1.07164
 21
216.515
  0
LINE
  8
0
 10
1.07164
 20
216.515
 11
1.17557
 21
216.444
  0
LINE
  8
0
 10
1.17557
 20
216.444
 11
1.27484
 21
216.367
  0
LINE
  8
0
 10
1.27484
 20
216.367
 11
1.36908
 21
216.284
  0
LINE
  8
0
 10
1.36908
 20
216.284
 11
1.45793
 21
216.195
  0
LINE
  8
0
 10
1.45793
 20
216.195
 11
1.54102
 21
216.101
  0
LINE
  8
0
 10
1.54102
 20
216.101
 11
1.61803
 21
216.002
  0
LINE
  8
0
 10
1.61803
 20
216.002
 11
1.68864
 21
215.898
  0
LINE
  8
0
 10
1.68864
 20
215.898
 11
1.75261
 21
215.79
  0
LINE
  8
0
 10
1.75261
 20
215.79
 11
1.80965
 21
215.678
  0
LINE
  8
0
 10
1.80965
 20
215.678
 11
1.85954
 21
215.562
  0
LINE
  8
0
 10
1.85954
 20
215.562
 11
1.9021
 21
215.444
  0
LINE
  8
0
 10
1.9021
 20
215.444
 11
1.93716
 21
215.324
  0
LINE
  8
0
 10
1.93716
 20
215.324
 11
1.96457
 21
215.201
  0
LINE
  8
0
 10
1.96457
 20
215.201
 11
1.98422
 21
215.077
  0
LINE
  8
0
 10
1.98422
 20
215.077
 11
1.99605
 21
214.952
  0
LINE
  8
0
 10
1.99605
 20
214.952
 11
2
 21
214.826
  0
LINE
  8
0
 10
2
 20
214.826
 11
1.99605
 21
214.701
  0
LINE
  8
0
 10
1.99605
 20
214.701
 11
1.98422
 21
214.576
  0
LINE
  8
0
 10
1.98422
 20
214.576
 11
1.96457
 21
214.451
  0
LINE
  8
0
 10
1.96457
 20
214.451
 11
1.93716
 21
214.329
  0
LINE
  8
0
 10
1.93716
 20
214.329
 11
1.9021
 21
214.208
  0
LINE
  8
0
 10
1.9021
 20
214.208
 11
1.85954
 21
214.09
  0
LINE
  8
0
 10
1.85954
 20
214.09
 11
1.80965
 21
213.975
  0
LINE
  8
0
 10
1.80965
 20
213.975
 11
1.75261
 21
213.863
  0
LINE
  8
0
 10
1.75261
 20
213.863
 11
1.68864
 21
213.755
  0
LINE
  8
0
 10
1.68864
 20
213.755
 11
1.61803
 21
213.651
  0
LINE
  8
0
 10
1.61803
 20
213.651
 11
1.54102
 21
213.551
  0
LINE
  8
0
 10
1.54102
 20
213.551
 11
1.45793
 21
213.457
  0
LINE
  8
0
 10
1.45793
 20
213.457
 11
1.36908
 21
213.368
  0
LINE
  8
0
 10
1.36908
 20
213.368
 11
1.27484
 21
213.285
  0
LINE
  8
0
 10
1.27484
 20
213.285
 11
1.17557
 21
213.208
  0
LINE
  8
0
 10
1.17557
 20
213.208
 11
1.07164
 21
213.138
  0
LINE
  8
0
 10
1.07164
 20
213.138
 11
0.963501
 21
213.074
  0
LINE
  8
0
 10
0.963501
 20
213.074
 11
0.851547
 21
213.017
  0
LINE
  8
0
 10
0.851547
 20
213.017
 11
0.736237
 21
212.967
  0
LINE
  8
0
 10
0.736237
 20
212.967
 11
0.618027
 21
212.924
  0
LINE
  8
0
 10
0.618027
 20
212.924
 11
0.497375
 21
212.889
  0
LINE
  8
0
 10
0.497375
 20
212.889
 11
0.374756
 21
212.862
  0
LINE
  8
0
 10
0.374756
 20
212.862
 11
0.250656
 21
212.842
  0
LINE
  8
0
 10
0.250656
 20
212.842
 11
0.12558
 21
212.83
  0
LINE
  8
0
 10
0.12558
 20
212.83
 11
0
 21
212.826
  0
LINE
  8
0
 10
0
 20
212.826
 11
-0.12558
 21
212.83
  0
LINE
  8
0
 10
0.63446
 20
177.134
 11
-0.678406
 21
177.533
  0
LINE
  8
0
 10
-0.678406
 20
177.533
 11
-1.88873
 21
178.18
  0
LINE
  8
0
 10
-1.88873
 20
178.18
 11
-2.19971
 21
178.435
  0
LINE
  8
0
 10
-2.19971
 20
178.435
 11
-1.4502
 21
179.05
  0
LINE
  8
0
 10
-1.4502
 20
179.05
 11
-0.579529
 21
180.111
  0
LINE
  8
0
 10
-0.579529
 20
180.111
 11
0.0671387
 21
181.321
  0
LINE
  8
0
 10
0.0671387
 20
181.321
 11
0.465393
 21
182.634
  0
LINE
  8
0
 10
0.465393
 20
182.634
 11
0.599976
 21
184
  0
LINE
  8
0
 10
0.599976
 20
184
 11
0.465393
 21
185.365
  0
LINE
  8
0
 10
0.465393
 20
185.365
 11
0.0671387
 21
186.678
  0
LINE
  8
0
 10
0.0671387
 20
186.678
 11
-0.579529
 21
187.889
  0
LINE
  8
0
 10
-0.579529
 20
187.889
 11
-1.11981
 21
188.547
  0
LINE
  8
0
 10
-1.11981
 20
188.547
 11
-0.476059
 21
190.528
  0
LINE
  8
0
 10
-0.476059
 20
190.528
 11
0.39064
 21
190.791
  0
LINE
  8
0
 10
0.39064
 20
190.791
 11
4.69551
 21
177.542
  0
LINE
  8
0
 10
4.69551
 20
177.542
 11
4.67834
 21
177.533
  0
LINE
  8
0
 10
4.67834
 20
177.533
 11
3.36548
 21
177.134
  0
LINE
  8
0
 10
3.36548
 20
177.134
 11
1.99982
 21
177
  0
LINE
  8
0
 10
1.99982
 20
177
 11
0.63446
 21
177.134
  0
LINE
  8
0
 10
6.94946
 20
168.549
 11
5.88867
 21
169.42
  0
LINE
  8
0
 10
5.88867
 20
169.42
 11
4.67834
 21
170.067
  0
LINE
  8
0
 10
4.67834
 20
170.067
 11
3.36548
 21
170.465
  0
LINE
  8
0
 10
3.36548
 20
170.465
 11
1.99982
 21
170.6
  0
LINE
  8
0
 10
1.99982
 20
170.6
 11
0.63446
 21
170.465
  0
LINE
  8
0
 10
0.63446
 20
170.465
 11
-0.678406
 21
170.067
  0
LINE
  8
0
 10
-0.678406
 20
170.067
 11
-1.88873
 21
169.42
  0
LINE
  8
0
 10
-1.88873
 20
169.42
 11
-2.94952
 21
168.549
  0
LINE
  8
0
 10
-2.94952
 20
168.549
 11
-3.56476
 21
167.8
  0
LINE
  8
0
 10
-3.56476
 20
167.8
 11
-3.81989
 21
168.111
  0
LINE
  8
0
 10
-3.81989
 20
168.111
 11
-4.46686
 21
169.321
  0
LINE
  8
0
 10
-4.46686
 20
169.321
 11
-4.86511
 21
170.634
  0
LINE
  8
0
 10
-4.86511
 20
170.634
 11
-4.99969
 21
172
  0
LINE
  8
0
 10
-4.99969
 20
172
 11
-4.86511
 21
173.365
  0
LINE
  8
0
 10
-4.86511
 20
173.365
 11
-4.46686
 21
174.678
  0
LINE
  8
0
 10
-4.46686
 20
174.678
 11
-3.81989
 21
175.889
  0
LINE
  8
0
 10
-3.81989
 20
175.889
 11
-3.56476
 21
176.2
  0
LINE
  8
0
 10
-3.56476
 20
176.2
 11
-2.94952
 21
175.45
  0
LINE
  8
0
 10
-2.94952
 20
175.45
 11
-1.88873
 21
174.579
  0
LINE
  8
0
 10
-1.88873
 20
174.579
 11
-0.678406
 21
173.932
  0
LINE
  8
0
 10
-0.678406
 20
173.932
 11
0.63446
 21
173.534
  0
LINE
  8
0
 10
0.63446
 20
173.534
 11
1.99982
 21
173.4
  0
LINE
  8
0
 10
1.99982
 20
173.4
 11
3.36548
 21
173.534
  0
LINE
  8
0
 10
3.36548
 20
173.534
 11
4.67834
 21
173.932
  0
LINE
  8
0
 10
4.67834
 20
173.932
 11
5.69226
 21
174.474
  0
LINE
  8
0
 10
5.69226
 20
174.474
 11
7.77696
 21
168.058
  0
LINE
  8
0
 10
7.77696
 20
168.058
 11
7.5647
 21
167.8
  0
LINE
  8
0
 10
7.5647
 20
167.8
 11
6.94946
 21
168.549
  0
LINE
  8
0
 10
-7.63145
 20
168.506
 11
-7.42004
 21
168.111
  0
LINE
  8
0
 10
-7.42004
 20
168.111
 11
-6.54968
 21
167.05
  0
LINE
  8
0
 10
-6.54968
 20
167.05
 11
-5.80017
 21
166.435
  0
LINE
  8
0
 10
-5.80017
 20
166.435
 11
-6.11115
 21
166.18
  0
LINE
  8
0
 10
-6.11115
 20
166.18
 11
-7.32117
 21
165.533
  0
LINE
  8
0
 10
-7.32117
 20
165.533
 11
-8.63434
 21
165.134
  0
LINE
  8
0
 10
-8.63434
 20
165.134
 11
-8.73015
 21
165.125
  0
LINE
  8
0
 10
-8.73015
 20
165.125
 11
-7.63145
 21
168.506
  0
LINE
  8
0
 10
0.63446
 20
153.134
 11
-0.678406
 21
153.533
  0
LINE
  8
0
 10
-0.678406
 20
153.533
 11
-1.88873
 21
154.18
  0
LINE
  8
0
 10
-1.88873
 20
154.18
 11
-2.19971
 21
154.435
  0
LINE
  8
0
 10
-2.19971
 20
154.435
 11
-1.4502
 21
155.05
  0
LINE
  8
0
 10
-1.4502
 20
155.05
 11
-0.579529
 21
156.111
  0
LINE
  8
0
 10
-0.579529
 20
156.111
 11
0.0671387
 21
157.321
  0
LINE
  8
0
 10
0.0671387
 20
157.321
 11
0.465393
 21
158.634
  0
LINE
  8
0
 10
0.465393
 20
158.634
 11
0.599976
 21
160
  0
LINE
  8
0
 10
0.599976
 20
160
 11
0.465393
 21
161.365
  0
LINE
  8
0
 10
0.465393
 20
161.365
 11
0.0671387
 21
162.679
  0
LINE
  8
0
 10
0.0671387
 20
162.679
 11
-0.579529
 21
163.889
  0
LINE
  8
0
 10
-0.579529
 20
163.889
 11
-1.4502
 21
164.95
  0
LINE
  8
0
 10
-1.4502
 20
164.95
 11
-2.19971
 21
165.565
  0
LINE
  8
0
 10
-2.19971
 20
165.565
 11
-1.88873
 21
165.82
  0
LINE
  8
0
 10
-1.88873
 20
165.82
 11
-0.678406
 21
166.467
  0
LINE
  8
0
 10
-0.678406
 20
166.467
 11
0.63446
 21
166.865
  0
LINE
  8
0
 10
0.63446
 20
166.865
 11
1.99982
 21
167
  0
LINE
  8
0
 10
1.99982
 20
167
 11
3.36548
 21
166.865
  0
LINE
  8
0
 10
3.36548
 20
166.865
 11
4.67834
 21
166.467
  0
LINE
  8
0
 10
4.67834
 20
166.467
 11
5.88867
 21
165.82
  0
LINE
  8
0
 10
5.88867
 20
165.82
 11
6.19965
 21
165.565
  0
LINE
  8
0
 10
6.19965
 20
165.565
 11
5.45013
 21
164.95
  0
LINE
  8
0
 10
5.45013
 20
164.95
 11
4.57947
 21
163.889
  0
LINE
  8
0
 10
4.57947
 20
163.889
 11
3.9325
 21
162.679
  0
LINE
  8
0
 10
3.9325
 20
162.679
 11
3.53424
 21
161.365
  0
LINE
  8
0
 10
3.53424
 20
161.365
 11
3.39966
 21
160
  0
LINE
  8
0
 10
3.39966
 20
160
 11
3.53424
 21
158.634
  0
LINE
  8
0
 10
3.53424
 20
158.634
 11
3.9325
 21
157.321
  0
LINE
  8
0
 10
3.9325
 20
157.321
 11
4.57947
 21
156.111
  0
LINE
  8
0
 10
4.57947
 20
156.111
 11
5.45013
 21
155.05
  0
LINE
  8
0
 10
5.45013
 20
155.05
 11
6.19965
 21
154.435
  0
LINE
  8
0
 10
6.19965
 20
154.435
 11
5.88867
 21
154.18
  0
LINE
  8
0
 10
5.88867
 20
154.18
 11
4.67834
 21
153.533
  0
LINE
  8
0
 10
4.67834
 20
153.533
 11
3.36548
 21
153.134
  0
LINE
  8
0
 10
3.36548
 20
153.134
 11
1.99982
 21
153
  0
LINE
  8
0
 10
1.99982
 20
153
 11
0.63446
 21
153.134
  0
LINE
  8
0
 10
-5.05035
 20
156.55
 11
-6.11115
 21
157.42
  0
LINE
  8
0
 10
-6.11115
 20
157.42
 11
-7.32117
 21
158.067
  0
LINE
  8
0
 10
-7.32117
 20
158.067
 11
-8.63434
 21
158.465
  0
LINE
  8
0
 10
-8.63434
 20
158.465
 11
-10
 21
158.6
  0
LINE
  8
0
 10
-10
 20
158.6
 11
-10.8784
 21
158.513
  0
LINE
  8
0
 10
-10.8784
 20
158.513
 11
-9.93849
 21
161.406
  0
LINE
  8
0
 10
-9.93849
 20
161.406
 11
-8.63434
 21
161.534
  0
LINE
  8
0
 10
-8.63434
 20
161.534
 11
-7.32117
 21
161.932
  0
LINE
  8
0
 10
-7.32117
 20
161.932
 11
-6.11115
 21
162.58
  0
LINE
  8
0
 10
-6.11115
 20
162.58
 11
-5.05035
 21
163.45
  0
LINE
  8
0
 10
-5.05035
 20
163.45
 11
-4.43512
 21
164.2
  0
LINE
  8
0
 10
-4.43512
 20
164.2
 11
-4.17969
 21
163.889
  0
LINE
  8
0
 10
-4.17969
 20
163.889
 11
-3.53271
 21
162.679
  0
LINE
  8
0
 10
-3.53271
 20
162.679
 11
-3.13446
 21
161.365
  0
LINE
  8
0
 10
-3.13446
 20
161.365
 11
-2.99988
 21
160
  0
LINE
  8
0
 10
-2.99988
 20
160
 11
-3.13446
 21
158.634
  0
LINE
  8
0
 10
-3.13446
 20
158.634
 11
-3.53271
 21
157.321
  0
LINE
  8
0
 10
-3.53271
 20
157.321
 11
-4.17969
 21
156.111
  0
LINE
  8
0
 10
-4.17969
 20
156.111
 11
-4.43512
 21
155.8
  0
LINE
  8
0
 10
-4.43512
 20
155.8
 11
-5.05035
 21
156.55
  0
LINE
  8
0
 10
8.17963
 20
156.111
 11
7.53296
 21
157.321
  0
LINE
  8
0
 10
7.53296
 20
157.321
 11
7.1344
 21
158.634
  0
LINE
  8
0
 10
7.1344
 20
158.634
 11
6.99982
 21
160
  0
LINE
  8
0
 10
6.99982
 20
160
 11
7.1344
 21
161.365
  0
LINE
  8
0
 10
7.1344
 20
161.365
 11
7.53296
 21
162.679
  0
LINE
  8
0
 10
7.53296
 20
162.679
 11
8.17963
 21
163.889
  0
LINE
  8
0
 10
8.17963
 20
163.889
 11
8.43506
 21
164.2
  0
LINE
  8
0
 10
8.43506
 20
164.2
 11
9.05029
 21
163.45
  0
LINE
  8
0
 10
9.05029
 20
163.45
 11
9.35576
 21
163.199
  0
LINE
  8
0
 10
9.35576
 20
163.199
 11
11.0674
 21
157.932
  0
LINE
  8
0
 10
11.0674
 20
157.932
 11
10.1111
 21
157.42
  0
LINE
  8
0
 10
10.1111
 20
157.42
 11
9.05029
 21
156.55
  0
LINE
  8
0
 10
9.05029
 20
156.55
 11
8.43506
 21
155.8
  0
LINE
  8
0
 10
8.43506
 20
155.8
 11
8.17963
 21
156.111
  0
LINE
  8
0
 10
-11.3654
 20
141.134
 11
-12.6785
 21
141.533
  0
LINE
  8
0
 10
-12.6785
 20
141.533
 11
-13.8885
 21
142.18
  0
LINE
  8
0
 10
-13.8885
 20
142.18
 11
-14.1998
 21
142.435
  0
LINE
  8
0
 10
-14.1998
 20
142.435
 11
-13.45
 21
143.05
  0
LINE
  8
0
 10
-13.45
 20
143.05
 11
-12.5797
 21
144.111
  0
LINE
  8
0
 10
-12.5797
 20
144.111
 11
-11.9324
 21
145.321
  0
LINE
  8
0
 10
-11.9324
 20
145.321
 11
-11.5344
 21
146.635
  0
LINE
  8
0
 10
-11.5344
 20
146.635
 11
-11.3998
 21
148
  0
LINE
  8
0
 10
-11.3998
 20
148
 11
-11.5344
 21
149.365
  0
LINE
  8
0
 10
-11.5344
 20
149.365
 11
-11.9324
 21
150.678
  0
LINE
  8
0
 10
-11.9324
 20
150.678
 11
-12.5797
 21
151.889
  0
LINE
  8
0
 10
-12.5797
 20
151.889
 11
-12.9028
 21
152.283
  0
LINE
  8
0
 10
-12.9028
 20
152.283
 11
-12.14
 21
154.63
  0
LINE
  8
0
 10
-12.14
 20
154.63
 11
-11.3654
 21
154.865
  0
LINE
  8
0
 10
-11.3654
 20
154.865
 11
-10
 21
155
  0
LINE
  8
0
 10
-10
 20
155
 11
-8.63434
 21
154.865
  0
LINE
  8
0
 10
-8.63434
 20
154.865
 11
-7.32117
 21
154.467
  0
LINE
  8
0
 10
-7.32117
 20
154.467
 11
-6.11115
 21
153.82
  0
LINE
  8
0
 10
-6.11115
 20
153.82
 11
-5.80017
 21
153.565
  0
LINE
  8
0
 10
-5.80017
 20
153.565
 11
-6.54968
 21
152.95
  0
LINE
  8
0
 10
-6.54968
 20
152.95
 11
-7.42004
 21
151.889
  0
LINE
  8
0
 10
-7.42004
 20
151.889
 11
-8.06732
 21
150.678
  0
LINE
  8
0
 10
-8.06732
 20
150.678
 11
-8.46527
 21
149.365
  0
LINE
  8
0
 10
-8.46527
 20
149.365
 11
-8.59985
 21
148
  0
LINE
  8
0
 10
-8.59985
 20
148
 11
-8.46527
 21
146.635
  0
LINE
  8
0
 10
-8.46527
 20
146.635
 11
-8.06732
 21
145.321
  0
LINE
  8
0
 10
-8.06732
 20
145.321
 11
-7.42004
 21
144.111
  0
LINE
  8
0
 10
-7.42004
 20
144.111
 11
-6.54968
 21
143.05
  0
LINE
  8
0
 10
-6.54968
 20
143.05
 11
-5.80017
 21
142.435
  0
LINE
  8
0
 10
-5.80017
 20
142.435
 11
-6.11115
 21
142.18
  0
LINE
  8
0
 10
-6.11115
 20
142.18
 11
-7.32117
 21
141.533
  0
LINE
  8
0
 10
-7.32117
 20
141.533
 11
-8.63434
 21
141.134
  0
LINE
  8
0
 10
-8.63434
 20
141.134
 11
-10
 21
141
  0
LINE
  8
0
 10
-10
 20
141
 11
-11.3654
 21
141.134
  0
LINE
  8
0
 10
12.6343
 20
141.134
 11
11.3211
 21
141.533
  0
LINE
  8
0
 10
11.3211
 20
141.533
 11
10.1111
 21
142.18
  0
LINE
  8
0
 10
10.1111
 20
142.18
 11
9.80011
 21
142.435
  0
LINE
  8
0
 10
9.80011
 20
142.435
 11
10.5496
 21
143.05
  0
LINE
  8
0
 10
10.5496
 20
143.05
 11
11.4203
 21
144.111
  0
LINE
  8
0
 10
11.4203
 20
144.111
 11
12.0673
 21
145.321
  0
LINE
  8
0
 10
12.0673
 20
145.321
 11
12.4655
 21
146.635
  0
LINE
  8
0
 10
12.4655
 20
146.635
 11
12.6001
 21
148
  0
LINE
  8
0
 10
12.6001
 20
148
 11
12.4655
 21
149.365
  0
LINE
  8
0
 10
12.4655
 20
149.365
 11
12.0673
 21
150.678
  0
LINE
  8
0
 10
12.0673
 20
150.678
 11
11.4203
 21
151.889
  0
LINE
  8
0
 10
11.4203
 20
151.889
 11
10.5496
 21
152.95
  0
LINE
  8
0
 10
10.5496
 20
152.95
 11
9.80011
 21
153.565
  0
LINE
  8
0
 10
9.80011
 20
153.565
 11
10.1111
 21
153.82
  0
LINE
  8
0
 10
10.1111
 20
153.82
 11
11.3211
 21
154.467
  0
LINE
  8
0
 10
11.3211
 20
154.467
 11
12.1149
 21
154.708
  0
LINE
  8
0
 10
12.1149
 20
154.708
 11
16.421
 21
141.455
  0
LINE
  8
0
 10
16.421
 20
141.455
 11
15.3653
 21
141.134
  0
LINE
  8
0
 10
15.3653
 20
141.134
 11
13.9999
 21
141
  0
LINE
  8
0
 10
13.9999
 20
141
 11
12.6343
 21
141.134
  0
LINE
  8
0
 10
6.94946
 20
144.55
 11
5.88867
 21
145.42
  0
LINE
  8
0
 10
5.88867
 20
145.42
 11
4.67834
 21
146.067
  0
LINE
  8
0
 10
4.67834
 20
146.067
 11
3.36548
 21
146.465
  0
LINE
  8
0
 10
3.36548
 20
146.465
 11
1.99982
 21
146.6
  0
LINE
  8
0
 10
1.99982
 20
146.6
 11
0.63446
 21
146.465
  0
LINE
  8
0
 10
0.63446
 20
146.465
 11
-0.678406
 21
146.067
  0
LINE
  8
0
 10
-0.678406
 20
146.067
 11
-1.88873
 21
145.42
  0
LINE
  8
0
 10
-1.88873
 20
145.42
 11
-2.94952
 21
144.55
  0
LINE
  8
0
 10
-2.94952
 20
144.55
 11
-3.56476
 21
143.8
  0
LINE
  8
0
 10
-3.56476
 20
143.8
 11
-3.81989
 21
144.111
  0
LINE
  8
0
 10
-3.81989
 20
144.111
 11
-4.46686
 21
145.321
  0
LINE
  8
0
 10
-4.46686
 20
145.321
 11
-4.86511
 21
146.635
  0
LINE
  8
0
 10
-4.86511
 20
146.635
 11
-4.99969
 21
148
  0
LINE
  8
0
 10
-4.99969
 20
148
 11
-4.86511
 21
149.365
  0
LINE
  8
0
 10
-4.86511
 20
149.365
 11
-4.46686
 21
150.678
  0
LINE
  8
0
 10
-4.46686
 20
150.678
 11
-3.81989
 21
151.889
  0
LINE
  8
0
 10
-3.81989
 20
151.889
 11
-3.56476
 21
152.2
  0
LINE
  8
0
 10
-3.56476
 20
152.2
 11
-2.94952
 21
151.45
  0
LINE
  8
0
 10
-2.94952
 20
151.45
 11
-1.88873
 21
150.58
  0
LINE
  8
0
 10
-1.88873
 20
150.58
 11
-0.678406
 21
149.933
  0
LINE
  8
0
 10
-0.678406
 20
149.933
 11
0.63446
 21
149.534
  0
LINE
  8
0
 10
0.63446
 20
149.534
 11
1.99982
 21
149.4
  0
LINE
  8
0
 10
1.99982
 20
149.4
 11
3.36548
 21
149.534
  0
LINE
  8
0
 10
3.36548
 20
149.534
 11
4.67834
 21
149.933
  0
LINE
  8
0
 10
4.67834
 20
149.933
 11
5.88867
 21
150.58
  0
LINE
  8
0
 10
5.88867
 20
150.58
 11
6.94946
 21
151.45
  0
LINE
  8
0
 10
6.94946
 20
151.45
 11
7.5647
 21
152.2
  0
LINE
  8
0
 10
7.5647
 20
152.2
 11
7.82013
 21
151.889
  0
LINE
  8
0
 10
7.82013
 20
151.889
 11
8.4668
 21
150.678
  0
LINE
  8
0
 10
8.4668
 20
150.678
 11
8.86536
 21
149.365
  0
LINE
  8
0
 10
8.86536
 20
149.365
 11
8.99994
 21
148
  0
LINE
  8
0
 10
8.99994
 20
148
 11
8.86536
 21
146.635
  0
LINE
  8
0
 10
8.86536
 20
146.635
 11
8.4668
 21
145.321
  0
LINE
  8
0
 10
8.4668
 20
145.321
 11
7.82013
 21
144.111
  0
LINE
  8
0
 10
7.82013
 20
144.111
 11
7.5647
 21
143.8
  0
LINE
  8
0
 10
7.5647
 20
143.8
 11
6.94946
 21
144.55
  0
LINE
  8
0
 10
0.63446
 20
129.135
 11
-0.678406
 21
129.533
  0
LINE
  8
0
 10
-0.678406
 20
129.533
 11
-1.88873
 21
130.18
  0
LINE
  8
0
 10
-1.88873
 20
130.18
 11
-2.19971
 21
130.435
  0
LINE
  8
0
 10
-2.19971
 20
130.435
 11
-1.4502
 21
131.05
  0
LINE
  8
0
 10
-1.4502
 20
131.05
 11
-0.579529
 21
132.111
  0
LINE
  8
0
 10
-0.579529
 20
132.111
 11
0.0671387
 21
133.321
  0
LINE
  8
0
 10
0.0671387
 20
133.321
 11
0.465393
 21
134.634
  0
LINE
  8
0
 10
0.465393
 20
134.634
 11
0.599976
 21
136
  0
LINE
  8
0
 10
0.599976
 20
136
 11
0.465393
 21
137.365
  0
LINE
  8
0
 10
0.465393
 20
137.365
 11
0.0671387
 21
138.679
  0
LINE
  8
0
 10
0.0671387
 20
138.679
 11
-0.579529
 21
139.889
  0
LINE
  8
0
 10
-0.579529
 20
139.889
 11
-1.4502
 21
140.949
  0
LINE
  8
0
 10
-1.4502
 20
140.949
 11
-2.19971
 21
141.565
  0
LINE
  8
0
 10
-2.19971
 20
141.565
 11
-1.88873
 21
141.82
  0
LINE
  8
0
 10
-1.88873
 20
141.82
 11
-0.678406
 21
142.467
  0
LINE
  8
0
 10
-0.678406
 20
142.467
 11
0.63446
 21
142.865
  0
LINE
  8
0
 10
0.63446
 20
142.865
 11
1.99982
 21
143
  0
LINE
  8
0
 10
1.99982
 20
143
 11
3.36548
 21
142.865
  0
LINE
  8
0
 10
3.36548
 20
142.865
 11
4.67834
 21
142.467
  0
LINE
  8
0
 10
4.67834
 20
142.467
 11
5.88867
 21
141.82
  0
LINE
  8
0
 10
5.88867
 20
141.82
 11
6.19965
 21
141.565
  0
LINE
  8
0
 10
6.19965
 20
141.565
 11
5.45013
 21
140.949
  0
LINE
  8
0
 10
5.45013
 20
140.949
 11
4.57947
 21
139.889
  0
LINE
  8
0
 10
4.57947
 20
139.889
 11
3.9325
 21
138.679
  0
LINE
  8
0
 10
3.9325
 20
138.679
 11
3.53424
 21
137.365
  0
LINE
  8
0
 10
3.53424
 20
137.365
 11
3.39966
 21
136
  0
LINE
  8
0
 10
3.39966
 20
136
 11
3.53424
 21
134.634
  0
LINE
  8
0
 10
3.53424
 20
134.634
 11
3.9325
 21
133.321
  0
LINE
  8
0
 10
3.9325
 20
133.321
 11
4.57947
 21
132.111
  0
LINE
  8
0
 10
4.57947
 20
132.111
 11
5.45013
 21
131.05
  0
LINE
  8
0
 10
5.45013
 20
131.05
 11
6.19965
 21
130.435
  0
LINE
  8
0
 10
6.19965
 20
130.435
 11
5.88867
 21
130.18
  0
LINE
  8
0
 10
5.88867
 20
130.18
 11
4.67834
 21
129.533
  0
LINE
  8
0
 10
4.67834
 20
129.533
 11
3.36548
 21
129.135
  0
LINE
  8
0
 10
3.36548
 20
129.135
 11
1.99982
 21
129
  0
LINE
  8
0
 10
1.99982
 20
129
 11
0.63446
 21
129.135
  0
LINE
  8
0
 10
-5.05035
 20
132.55
 11
-6.11115
 21
133.42
  0
LINE
  8
0
 10
-6.11115
 20
133.42
 11
-7.32117
 21
134.067
  0
LINE
  8
0
 10
-7.32117
 20
134.067
 11
-8.63434
 21
134.465
  0
LINE
  8
0
 10
-8.63434
 20
134.465
 11
-10
 21
134.6
  0
LINE
  8
0
 10
-10
 20
134.6
 11
-11.3654
 21
134.465
  0
LINE
  8
0
 10
-11.3654
 20
134.465
 11
-12.6785
 21
134.067
  0
LINE
  8
0
 10
-12.6785
 20
134.067
 11
-13.8885
 21
133.42
  0
LINE
  8
0
 10
-13.8885
 20
133.42
 11
-14.9496
 21
132.55
  0
LINE
  8
0
 10
-14.9496
 20
132.55
 11
-15.5649
 21
131.8
  0
LINE
  8
0
 10
-15.5649
 20
131.8
 11
-15.82
 21
132.111
  0
LINE
  8
0
 10
-15.82
 20
132.111
 11
-16.467
 21
133.321
  0
LINE
  8
0
 10
-16.467
 20
133.321
 11
-16.8652
 21
134.634
  0
LINE
  8
0
 10
-16.8652
 20
134.634
 11
-16.9998
 21
136
  0
LINE
  8
0
 10
-16.9998
 20
136
 11
-16.8652
 21
137.365
  0
LINE
  8
0
 10
-16.8652
 20
137.365
 11
-16.467
 21
138.679
  0
LINE
  8
0
 10
-16.467
 20
138.679
 11
-15.82
 21
139.889
  0
LINE
  8
0
 10
-15.82
 20
139.889
 11
-15.5649
 21
140.2
  0
LINE
  8
0
 10
-15.5649
 20
140.2
 11
-14.9496
 21
139.45
  0
LINE
  8
0
 10
-14.9496
 20
139.45
 11
-13.8885
 21
138.579
  0
LINE
  8
0
 10
-13.8885
 20
138.579
 11
-12.6785
 21
137.932
  0
LINE
  8
0
 10
-12.6785
 20
137.932
 11
-11.3654
 21
137.534
  0
LINE
  8
0
 10
-11.3654
 20
137.534
 11
-10
 21
137.4
  0
LINE
  8
0
 10
-10
 20
137.4
 11
-8.63434
 21
137.534
  0
LINE
  8
0
 10
-8.63434
 20
137.534
 11
-7.32117
 21
137.932
  0
LINE
  8
0
 10
-7.32117
 20
137.932
 11
-6.11115
 21
138.579
  0
LINE
  8
0
 10
-6.11115
 20
138.579
 11
-5.05035
 21
139.45
  0
LINE
  8
0
 10
-5.05035
 20
139.45
 11
-4.43512
 21
140.2
  0
LINE
  8
0
 10
-4.43512
 20
140.2
 11
-4.17969
 21
139.889
  0
LINE
  8
0
 10
-4.17969
 20
139.889
 11
-3.53271
 21
138.679
  0
LINE
  8
0
 10
-3.53271
 20
138.679
 11
-3.13446
 21
137.365
  0
LINE
  8
0
 10
-3.13446
 20
137.365
 11
-2.99988
 21
136
  0
LINE
  8
0
 10
-2.99988
 20
136
 11
-3.13446
 21
134.634
  0
LINE
  8
0
 10
-3.13446
 20
134.634
 11
-3.53271
 21
133.321
  0
LINE
  8
0
 10
-3.53271
 20
133.321
 11
-4.17969
 21
132.111
  0
LINE
  8
0
 10
-4.17969
 20
132.111
 11
-4.43512
 21
131.8
  0
LINE
  8
0
 10
-4.43512
 20
131.8
 11
-5.05035
 21
132.55
  0
LINE
  8
0
 10
8.17963
 20
132.111
 11
7.53296
 21
133.321
  0
LINE
  8
0
 10
7.53296
 20
133.321
 11
7.1344
 21
134.634
  0
LINE
  8
0
 10
7.1344
 20
134.634
 11
6.99982
 21
136
  0
LINE
  8
0
 10
6.99982
 20
136
 11
7.1344
 21
137.365
  0
LINE
  8
0
 10
7.1344
 20
137.365
 11
7.53296
 21
138.679
  0
LINE
  8
0
 10
7.53296
 20
138.679
 11
8.17963
 21
139.889
  0
LINE
  8
0
 10
8.17963
 20
139.889
 11
8.43506
 21
140.2
  0
LINE
  8
0
 10
8.43506
 20
140.2
 11
9.05029
 21
139.45
  0
LINE
  8
0
 10
9.05029
 20
139.45
 11
10.1111
 21
138.579
  0
LINE
  8
0
 10
10.1111
 20
138.579
 11
11.3211
 21
137.932
  0
LINE
  8
0
 10
11.3211
 20
137.932
 11
12.6343
 21
137.534
  0
LINE
  8
0
 10
12.6343
 20
137.534
 11
13.9999
 21
137.4
  0
LINE
  8
0
 10
13.9999
 20
137.4
 11
15.3653
 21
137.534
  0
LINE
  8
0
 10
15.3653
 20
137.534
 11
16.6785
 21
137.932
  0
LINE
  8
0
 10
16.6785
 20
137.932
 11
17.4342
 21
138.336
  0
LINE
  8
0
 10
17.4342
 20
138.336
 11
19.5536
 21
131.814
  0
LINE
  8
0
 10
19.5536
 20
131.814
 11
18.9496
 21
132.55
  0
LINE
  8
0
 10
18.9496
 20
132.55
 11
17.8888
 21
133.42
  0
LINE
  8
0
 10
17.8888
 20
133.42
 11
16.6785
 21
134.067
  0
LINE
  8
0
 10
16.6785
 20
134.067
 11
15.3653
 21
134.465
  0
LINE
  8
0
 10
15.3653
 20
134.465
 11
13.9999
 21
134.6
  0
LINE
  8
0
 10
13.9999
 20
134.6
 11
12.6343
 21
134.465
  0
LINE
  8
0
 10
12.6343
 20
134.465
 11
11.3211
 21
134.067
  0
LINE
  8
0
 10
11.3211
 20
134.067
 11
10.1111
 21
133.42
  0
LINE
  8
0
 10
10.1111
 20
133.42
 11
9.05029
 21
132.55
  0
LINE
  8
0
 10
9.05029
 20
132.55
 11
8.43506
 21
131.8
  0
LINE
  8
0
 10
8.43506
 20
131.8
 11
8.17963
 21
132.111
  0
LINE
  8
0
 10
-19.4431
 20
132.154
 11
-19.4202
 21
132.111
  0
LINE
  8
0
 10
-19.4202
 20
132.111
 11
-18.5495
 21
131.05
  0
LINE
  8
0
 10
-18.5495
 20
131.05
 11
-17.8
 21
130.435
  0
LINE
  8
0
 10
-17.8
 20
130.435
 11
-18.111
 21
130.18
  0
LINE
  8
0
 10
-18.111
 20
130.18
 11
-19.3213
 21
129.533
  0
LINE
  8
0
 10
-19.3213
 20
129.533
 11
-20.4011
 21
129.205
  0
LINE
  8
0
 10
-20.4011
 20
129.205
 11
-19.4431
 21
132.154
  0
LINE
  8
0
 10
-11.3654
 20
117.134
 11
-12.6785
 21
117.533
  0
LINE
  8
0
 10
-12.6785
 20
117.533
 11
-13.8885
 21
118.18
  0
LINE
  8
0
 10
-13.8885
 20
118.18
 11
-14.1998
 21
118.435
  0
LINE
  8
0
 10
-14.1998
 20
118.435
 11
-13.45
 21
119.05
  0
LINE
  8
0
 10
-13.45
 20
119.05
 11
-12.5797
 21
120.111
  0
LINE
  8
0
 10
-12.5797
 20
120.111
 11
-11.9324
 21
121.321
  0
LINE
  8
0
 10
-11.9324
 20
121.321
 11
-11.5344
 21
122.634
  0
LINE
  8
0
 10
-11.5344
 20
122.634
 11
-11.3998
 21
124
  0
LINE
  8
0
 10
-11.3998
 20
124
 11
-11.5344
 21
125.365
  0
LINE
  8
0
 10
-11.5344
 20
125.365
 11
-11.9324
 21
126.678
  0
LINE
  8
0
 10
-11.9324
 20
126.678
 11
-12.5797
 21
127.889
  0
LINE
  8
0
 10
-12.5797
 20
127.889
 11
-13.45
 21
128.95
  0
LINE
  8
0
 10
-13.45
 20
128.95
 11
-14.1998
 21
129.565
  0
LINE
  8
0
 10
-14.1998
 20
129.565
 11
-13.8885
 21
129.82
  0
LINE
  8
0
 10
-13.8885
 20
129.82
 11
-12.6785
 21
130.467
  0
LINE
  8
0
 10
-12.6785
 20
130.467
 11
-11.3654
 21
130.865
  0
LINE
  8
0
 10
-11.3654
 20
130.865
 11
-10
 21
131
  0
LINE
  8
0
 10
-10
 20
131
 11
-8.63434
 21
130.865
  0
LINE
  8
0
 10
-8.63434
 20
130.865
 11
-7.32117
 21
130.467
  0
LINE
  8
0
 10
-7.32117
 20
130.467
 11
-6.11115
 21
129.82
  0
LINE
  8
0
 10
-6.11115
 20
129.82
 11
-5.80017
 21
129.565
  0
LINE
  8
0
 10
-5.80017
 20
129.565
 11
-6.54968
 21
128.95
  0
LINE
  8
0
 10
-6.54968
 20
128.95
 11
-7.42004
 21
127.889
  0
LINE
  8
0
 10
-7.42004
 20
127.889
 11
-8.06732
 21
126.678
  0
LINE
  8
0
 10
-8.06732
 20
126.678
 11
-8.46527
 21
125.365
  0
LINE
  8
0
 10
-8.46527
 20
125.365
 11
-8.59985
 21
124
  0
LINE
  8
0
 10
-8.59985
 20
124
 11
-8.46527
 21
122.634
  0
LINE
  8
0
 10
-8.46527
 20
122.634
 11
-8.06732
 21
121.321
  0
LINE
  8
0
 10
-8.06732
 20
121.321
 11
-7.42004
 21
120.111
  0
LINE
  8
0
 10
-7.42004
 20
120.111
 11
-6.54968
 21
119.05
  0
LINE
  8
0
 10
-6.54968
 20
119.05
 11
-5.80017
 21
118.435
  0
LINE
  8
0
 10
-5.80017
 20
118.435
 11
-6.11115
 21
118.18
  0
LINE
  8
0
 10
-6.11115
 20
118.18
 11
-7.32117
 21
117.533
  0
LINE
  8
0
 10
-7.32117
 20
117.533
 11
-8.63434
 21
117.134
  0
LINE
  8
0
 10
-8.63434
 20
117.134
 11
-10
 21
117
  0
LINE
  8
0
 10
-10
 20
117
 11
-11.3654
 21
117.134
  0
LINE
  8
0
 10
12.6343
 20
117.134
 11
11.3211
 21
117.533
  0
LINE
  8
0
 10
11.3211
 20
117.533
 11
10.1111
 21
118.18
  0
LINE
  8
0
 10
10.1111
 20
118.18
 11
9.80011
 21
118.435
  0
LINE
  8
0
 10
9.80011
 20
118.435
 11
10.5496
 21
119.05
  0
LINE
  8
0
 10
10.5496
 20
119.05
 11
11.4203
 21
120.111
  0
LINE
  8
0
 10
11.4203
 20
120.111
 11
12.0673
 21
121.321
  0
LINE
  8
0
 10
12.0673
 20
121.321
 11
12.4655
 21
122.634
  0
LINE
  8
0
 10
12.4655
 20
122.634
 11
12.6001
 21
124
  0
LINE
  8
0
 10
12.6001
 20
124
 11
12.4655
 21
125.365
  0
LINE
  8
0
 10
12.4655
 20
125.365
 11
12.0673
 21
126.678
  0
LINE
  8
0
 10
12.0673
 20
126.678
 11
11.4203
 21
127.889
  0
LINE
  8
0
 10
11.4203
 20
127.889
 11
10.5496
 21
128.95
  0
LINE
  8
0
 10
10.5496
 20
128.95
 11
9.80011
 21
129.565
  0
LINE
  8
0
 10
9.80011
 20
129.565
 11
10.1111
 21
129.82
  0
LINE
  8
0
 10
10.1111
 20
129.82
 11
11.3211
 21
130.467
  0
LINE
  8
0
 10
11.3211
 20
130.467
 11
12.6343
 21
130.865
  0
LINE
  8
0
 10
12.6343
 20
130.865
 11
13.9999
 21
131
  0
LINE
  8
0
 10
13.9999
 20
131
 11
15.3653
 21
130.865
  0
LINE
  8
0
 10
15.3653
 20
130.865
 11
16.6785
 21
130.467
  0
LINE
  8
0
 10
16.6785
 20
130.467
 11
17.8888
 21
129.82
  0
LINE
  8
0
 10
17.8888
 20
129.82
 11
18.1998
 21
129.565
  0
LINE
  8
0
 10
18.1998
 20
129.565
 11
17.45
 21
128.95
  0
LINE
  8
0
 10
17.45
 20
128.95
 11
16.5796
 21
127.889
  0
LINE
  8
0
 10
16.5796
 20
127.889
 11
15.9326
 21
126.678
  0
LINE
  8
0
 10
15.9326
 20
126.678
 11
15.5344
 21
125.365
  0
LINE
  8
0
 10
15.5344
 20
125.365
 11
15.3998
 21
124
  0
LINE
  8
0
 10
15.3998
 20
124
 11
15.5344
 21
122.634
  0
LINE
  8
0
 10
15.5344
 20
122.634
 11
15.9326
 21
121.321
  0
LINE
  8
0
 10
15.9326
 20
121.321
 11
16.5796
 21
120.111
  0
LINE
  8
0
 10
16.5796
 20
120.111
 11
17.45
 21
119.05
  0
LINE
  8
0
 10
17.45
 20
119.05
 11
18.1998
 21
118.435
  0
LINE
  8
0
 10
18.1998
 20
118.435
 11
17.8888
 21
118.18
  0
LINE
  8
0
 10
17.8888
 20
118.18
 11
16.6785
 21
117.533
  0
LINE
  8
0
 10
16.6785
 20
117.533
 11
15.3653
 21
117.134
  0
LINE
  8
0
 10
15.3653
 20
117.134
 11
13.9999
 21
117
  0
LINE
  8
0
 10
13.9999
 20
117
 11
12.6343
 21
117.134
  0
LINE
  8
0
 10
6.94946
 20
120.55
 11
5.88867
 21
121.42
  0
LINE
  8
0
 10
5.88867
 20
121.42
 11
4.67834
 21
122.067
  0
LINE
  8
0
 10
4.67834
 20
122.067
 11
3.36548
 21
122.466
  0
LINE
  8
0
 10
3.36548
 20
122.466
 11
1.99982
 21
122.6
  0
LINE
  8
0
 10
1.99982
 20
122.6
 11
0.63446
 21
122.466
  0
LINE
  8
0
 10
0.63446
 20
122.466
 11
-0.678406
 21
122.067
  0
LINE
  8
0
 10
-0.678406
 20
122.067
 11
-1.88873
 21
121.42
  0
LINE
  8
0
 10
-1.88873
 20
121.42
 11
-2.94952
 21
120.55
  0
LINE
  8
0
 10
-2.94952
 20
120.55
 11
-3.56476
 21
119.8
  0
LINE
  8
0
 10
-3.56476
 20
119.8
 11
-3.81989
 21
120.111
  0
LINE
  8
0
 10
-3.81989
 20
120.111
 11
-4.46686
 21
121.321
  0
LINE
  8
0
 10
-4.46686
 20
121.321
 11
-4.86511
 21
122.634
  0
LINE
  8
0
 10
-4.86511
 20
122.634
 11
-4.99969
 21
124
  0
LINE
  8
0
 10
-4.99969
 20
124
 11
-4.86511
 21
125.365
  0
LINE
  8
0
 10
-4.86511
 20
125.365
 11
-4.46686
 21
126.678
  0
LINE
  8
0
 10
-4.46686
 20
126.678
 11
-3.81989
 21
127.889
  0
LINE
  8
0
 10
-3.81989
 20
127.889
 11
-3.56476
 21
128.2
  0
LINE
  8
0
 10
-3.56476
 20
128.2
 11
-2.94952
 21
127.45
  0
LINE
  8
0
 10
-2.94952
 20
127.45
 11
-1.88873
 21
126.58
  0
LINE
  8
0
 10
-1.88873
 20
126.58
 11
-0.678406
 21
125.933
  0
LINE
  8
0
 10
-0.678406
 20
125.933
 11
0.63446
 21
125.534
  0
LINE
  8
0
 10
0.63446
 20
125.534
 11
1.99982
 21
125.4
  0
LINE
  8
0
 10
1.99982
 20
125.4
 11
3.36548
 21
125.534
  0
LINE
  8
0
 10
3.36548
 20
125.534
 11
4.67834
 21
125.933
  0
LINE
  8
0
 10
4.67834
 20
125.933
 11
5.88867
 21
126.58
  0
LINE
  8
0
 10
5.88867
 20
126.58
 11
6.94946
 21
127.45
  0
LINE
  8
0
 10
6.94946
 20
127.45
 11
7.5647
 21
128.2
  0
LINE
  8
0
 10
7.5647
 20
128.2
 11
7.82013
 21
127.889
  0
LINE
  8
0
 10
7.82013
 20
127.889
 11
8.4668
 21
126.678
  0
LINE
  8
0
 10
8.4668
 20
126.678
 11
8.86536
 21
125.365
  0
LINE
  8
0
 10
8.86536
 20
125.365
 11
8.99994
 21
124
  0
LINE
  8
0
 10
8.99994
 20
124
 11
8.86536
 21
122.634
  0
LINE
  8
0
 10
8.86536
 20
122.634
 11
8.4668
 21
121.321
  0
LINE
  8
0
 10
8.4668
 20
121.321
 11
7.82013
 21
120.111
  0
LINE
  8
0
 10
7.82013
 20
120.111
 11
7.5647
 21
119.8
  0
LINE
  8
0
 10
7.5647
 20
119.8
 11
6.94946
 21
120.55
  0
LINE
  8
0
 10
20.1797
 20
120.111
 11
19.5328
 21
121.321
  0
LINE
  8
0
 10
19.5328
 20
121.321
 11
19.1345
 21
122.634
  0
LINE
  8
0
 10
19.1345
 20
122.634
 11
18.9999
 21
124
  0
LINE
  8
0
 10
18.9999
 20
124
 11
19.1345
 21
125.365
  0
LINE
  8
0
 10
19.1345
 20
125.365
 11
19.5328
 21
126.678
  0
LINE
  8
0
 10
19.5328
 20
126.678
 11
20.1797
 21
127.889
  0
LINE
  8
0
 10
20.1797
 20
127.889
 11
20.4349
 21
128.2
  0
LINE
  8
0
 10
20.4349
 20
128.2
 11
20.9199
 21
127.609
  0
LINE
  8
0
 10
20.9199
 20
127.609
 11
22.8093
 21
121.794
  0
LINE
  8
0
 10
22.8093
 20
121.794
 11
22.1112
 21
121.42
  0
LINE
  8
0
 10
22.1112
 20
121.42
 11
21.0501
 21
120.55
  0
LINE
  8
0
 10
21.0501
 20
120.55
 11
20.4349
 21
119.8
  0
LINE
  8
0
 10
20.4349
 20
119.8
 11
20.1797
 21
120.111
  0
LINE
  8
0
 10
-17.0502
 20
120.55
 11
-18.111
 21
121.42
  0
LINE
  8
0
 10
-18.111
 20
121.42
 11
-19.3213
 21
122.067
  0
LINE
  8
0
 10
-19.3213
 20
122.067
 11
-20.6345
 21
122.466
  0
LINE
  8
0
 10
-20.6345
 20
122.466
 11
-21.9998
 21
122.6
  0
LINE
  8
0
 10
-21.9998
 20
122.6
 11
-22.5654
 21
122.544
  0
LINE
  8
0
 10
-22.5654
 20
122.544
 11
-21.6256
 21
125.437
  0
LINE
  8
0
 10
-21.6256
 20
125.437
 11
-20.6345
 21
125.534
  0
LINE
  8
0
 10
-20.6345
 20
125.534
 11
-19.3213
 21
125.933
  0
LINE
  8
0
 10
-19.3213
 20
125.933
 11
-18.111
 21
126.58
  0
LINE
  8
0
 10
-18.111
 20
126.58
 11
-17.0502
 21
127.45
  0
LINE
  8
0
 10
-17.0502
 20
127.45
 11
-16.4349
 21
128.2
  0
LINE
  8
0
 10
-16.4349
 20
128.2
 11
-16.1798
 21
127.889
  0
LINE
  8
0
 10
-16.1798
 20
127.889
 11
-15.5328
 21
126.678
  0
LINE
  8
0
 10
-15.5328
 20
126.678
 11
-15.1343
 21
125.365
  0
LINE
  8
0
 10
-15.1343
 20
125.365
 11
-14.9997
 21
124
  0
LINE
  8
0
 10
-14.9997
 20
124
 11
-15.1343
 21
122.634
  0
LINE
  8
0
 10
-15.1343
 20
122.634
 11
-15.5328
 21
121.321
  0
LINE
  8
0
 10
-15.5328
 20
121.321
 11
-16.1798
 21
120.111
  0
LINE
  8
0
 10
-16.1798
 20
120.111
 11
-16.4349
 21
119.8
  0
LINE
  8
0
 10
-16.4349
 20
119.8
 11
-17.0502
 21
120.55
  0
LINE
  8
0
 10
-23.3652
 20
105.135
 11
-24.6783
 21
105.533
  0
LINE
  8
0
 10
-24.6783
 20
105.533
 11
-25.8887
 21
106.18
  0
LINE
  8
0
 10
-25.8887
 20
106.18
 11
-26.1996
 21
106.435
  0
LINE
  8
0
 10
-26.1996
 20
106.435
 11
-25.4501
 21
107.05
  0
LINE
  8
0
 10
-25.4501
 20
107.05
 11
-24.5795
 21
108.111
  0
LINE
  8
0
 10
-24.5795
 20
108.111
 11
-23.9325
 21
109.321
  0
LINE
  8
0
 10
-23.9325
 20
109.321
 11
-23.5342
 21
110.634
  0
LINE
  8
0
 10
-23.5342
 20
110.634
 11
-23.3997
 21
112
  0
LINE
  8
0
 10
-23.3997
 20
112
 11
-23.5342
 21
113.365
  0
LINE
  8
0
 10
-23.5342
 20
113.365
 11
-23.9325
 21
114.678
  0
LINE
  8
0
 10
-23.9325
 20
114.678
 11
-24.5795
 21
115.889
  0
LINE
  8
0
 10
-24.5795
 20
115.889
 11
-24.6858
 21
116.018
  0
LINE
  8
0
 10
-24.6858
 20
116.018
 11
-23.804
 21
118.732
  0
LINE
  8
0
 10
-23.804
 20
118.732
 11
-23.3652
 21
118.865
  0
LINE
  8
0
 10
-23.3652
 20
118.865
 11
-21.9998
 21
119
  0
LINE
  8
0
 10
-21.9998
 20
119
 11
-20.6345
 21
118.865
  0
LINE
  8
0
 10
-20.6345
 20
118.865
 11
-19.3213
 21
118.467
  0
LINE
  8
0
 10
-19.3213
 20
118.467
 11
-18.111
 21
117.82
  0
LINE
  8
0
 10
-18.111
 20
117.82
 11
-17.8
 21
117.565
  0
LINE
  8
0
 10
-17.8
 20
117.565
 11
-18.5495
 21
116.949
  0
LINE
  8
0
 10
-18.5495
 20
116.949
 11
-19.4202
 21
115.889
  0
LINE
  8
0
 10
-19.4202
 20
115.889
 11
-20.0671
 21
114.678
  0
LINE
  8
0
 10
-20.0671
 20
114.678
 11
-20.4654
 21
113.365
  0
LINE
  8
0
 10
-20.4654
 20
113.365
 11
-20.6
 21
112
  0
LINE
  8
0
 10
-20.6
 20
112
 11
-20.4654
 21
110.634
  0
LINE
  8
0
 10
-20.4654
 20
110.634
 11
-20.0671
 21
109.321
  0
LINE
  8
0
 10
-20.0671
 20
109.321
 11
-19.4202
 21
108.111
  0
LINE
  8
0
 10
-19.4202
 20
108.111
 11
-18.5495
 21
107.05
  0
LINE
  8
0
 10
-18.5495
 20
107.05
 11
-17.8
 21
106.435
  0
LINE
  8
0
 10
-17.8
 20
106.435
 11
-18.111
 21
106.18
  0
LINE
  8
0
 10
-18.111
 20
106.18
 11
-19.3213
 21
105.533
  0
LINE
  8
0
 10
-19.3213
 20
105.533
 11
-20.6345
 21
105.135
  0
LINE
  8
0
 10
-20.6345
 20
105.135
 11
-21.9998
 21
105
  0
LINE
  8
0
 10
-21.9998
 20
105
 11
-23.3652
 21
105.135
  0
LINE
  8
0
 10
0.63446
 20
105.135
 11
-0.678406
 21
105.533
  0
LINE
  8
0
 10
-0.678406
 20
105.533
 11
-1.88873
 21
106.18
  0
LINE
  8
0
 10
-1.88873
 20
106.18
 11
-2.19971
 21
106.435
  0
LINE
  8
0
 10
-2.19971
 20
106.435
 11
-1.4502
 21
107.05
  0
LINE
  8
0
 10
-1.4502
 20
107.05
 11
-0.579529
 21
108.111
  0
LINE
  8
0
 10
-0.579529
 20
108.111
 11
0.0671387
 21
109.321
  0
LINE
  8
0
 10
0.0671387
 20
109.321
 11
0.465393
 21
110.634
  0
LINE
  8
0
 10
0.465393
 20
110.634
 11
0.599976
 21
112
  0
LINE
  8
0
 10
0.599976
 20
112
 11
0.465393
 21
113.365
  0
LINE
  8
0
 10
0.465393
 20
113.365
 11
0.0671387
 21
114.678
  0
LINE
  8
0
 10
0.0671387
 20
114.678
 11
-0.579529
 21
115.889
  0
LINE
  8
0
 10
-0.579529
 20
115.889
 11
-1.4502
 21
116.949
  0
LINE
  8
0
 10
-1.4502
 20
116.949
 11
-2.19971
 21
117.565
  0
LINE
  8
0
 10
-2.19971
 20
117.565
 11
-1.88873
 21
117.82
  0
LINE
  8
0
 10
-1.88873
 20
117.82
 11
-0.678406
 21
118.467
  0
LINE
  8
0
 10
-0.678406
 20
118.467
 11
0.63446
 21
118.865
  0
LINE
  8
0
 10
0.63446
 20
118.865
 11
1.99982
 21
119
  0
LINE
  8
0
 10
1.99982
 20
119
 11
3.36548
 21
118.865
  0
LINE
  8
0
 10
3.36548
 20
118.865
 11
4.67834
 21
118.467
  0
LINE
  8
0
 10
4.67834
 20
118.467
 11
5.88867
 21
117.82
  0
LINE
  8
0
 10
5.88867
 20
117.82
 11
6.19965
 21
117.565
  0
LINE
  8
0
 10
6.19965
 20
117.565
 11
5.45013
 21
116.949
  0
LINE
  8
0
 10
5.45013
 20
116.949
 11
4.57947
 21
115.889
  0
LINE
  8
0
 10
4.57947
 20
115.889
 11
3.9325
 21
114.678
  0
LINE
  8
0
 10
3.9325
 20
114.678
 11
3.53424
 21
113.365
  0
LINE
  8
0
 10
3.53424
 20
113.365
 11
3.39966
 21
112
  0
LINE
  8
0
 10
3.39966
 20
112
 11
3.53424
 21
110.634
  0
LINE
  8
0
 10
3.53424
 20
110.634
 11
3.9325
 21
109.321
  0
LINE
  8
0
 10
3.9325
 20
109.321
 11
4.57947
 21
108.111
  0
LINE
  8
0
 10
4.57947
 20
108.111
 11
5.45013
 21
107.05
  0
LINE
  8
0
 10
5.45013
 20
107.05
 11
6.19965
 21
106.435
  0
LINE
  8
0
 10
6.19965
 20
106.435
 11
5.88867
 21
106.18
  0
LINE
  8
0
 10
5.88867
 20
106.18
 11
4.67834
 21
105.533
  0
LINE
  8
0
 10
4.67834
 20
105.533
 11
3.36548
 21
105.135
  0
LINE
  8
0
 10
3.36548
 20
105.135
 11
1.99982
 21
105
  0
LINE
  8
0
 10
1.99982
 20
105
 11
0.63446
 21
105.135
  0
LINE
  8
0
 10
24.6344
 20
105.135
 11
23.3212
 21
105.533
  0
LINE
  8
0
 10
23.3212
 20
105.533
 11
22.1112
 21
106.18
  0
LINE
  8
0
 10
22.1112
 20
106.18
 11
21.7999
 21
106.435
  0
LINE
  8
0
 10
21.7999
 20
106.435
 11
22.5497
 21
107.05
  0
LINE
  8
0
 10
22.5497
 20
107.05
 11
23.4201
 21
108.111
  0
LINE
  8
0
 10
23.4201
 20
108.111
 11
24.0671
 21
109.321
  0
LINE
  8
0
 10
24.0671
 20
109.321
 11
24.4653
 21
110.634
  0
LINE
  8
0
 10
24.4653
 20
110.634
 11
24.5999
 21
112
  0
LINE
  8
0
 10
24.5999
 20
112
 11
24.4653
 21
113.365
  0
LINE
  8
0
 10
24.4653
 20
113.365
 11
24.0671
 21
114.678
  0
LINE
  8
0
 10
24.0671
 20
114.678
 11
23.4201
 21
115.889
  0
LINE
  8
0
 10
23.4201
 20
115.889
 11
22.5497
 21
116.949
  0
LINE
  8
0
 10
22.5497
 20
116.949
 11
21.7999
 21
117.565
  0
LINE
  8
0
 10
21.7999
 20
117.565
 11
22.1112
 21
117.82
  0
LINE
  8
0
 10
22.1112
 20
117.82
 11
23.3212
 21
118.467
  0
LINE
  8
0
 10
23.3212
 20
118.467
 11
23.8392
 21
118.624
  0
LINE
  8
0
 10
23.8392
 20
118.624
 11
28.1453
 21
105.371
  0
LINE
  8
0
 10
28.1453
 20
105.371
 11
27.3654
 21
105.135
  0
LINE
  8
0
 10
27.3654
 20
105.135
 11
25.9998
 21
105
  0
LINE
  8
0
 10
25.9998
 20
105
 11
24.6344
 21
105.135
  0
LINE
  8
0
 10
-5.05035
 20
108.549
 11
-6.11115
 21
109.42
  0
LINE
  8
0
 10
-6.11115
 20
109.42
 11
-7.32117
 21
110.067
  0
LINE
  8
0
 10
-7.32117
 20
110.067
 11
-8.63434
 21
110.465
  0
LINE
  8
0
 10
-8.63434
 20
110.465
 11
-10
 21
110.6
  0
LINE
  8
0
 10
-10
 20
110.6
 11
-11.3654
 21
110.465
  0
LINE
  8
0
 10
-11.3654
 20
110.465
 11
-12.6785
 21
110.067
  0
LINE
  8
0
 10
-12.6785
 20
110.067
 11
-13.8885
 21
109.42
  0
LINE
  8
0
 10
-13.8885
 20
109.42
 11
-14.9496
 21
108.549
  0
LINE
  8
0
 10
-14.9496
 20
108.549
 11
-15.5649
 21
107.8
  0
LINE
  8
0
 10
-15.5649
 20
107.8
 11
-15.82
 21
108.111
  0
LINE
  8
0
 10
-15.82
 20
108.111
 11
-16.467
 21
109.321
  0
LINE
  8
0
 10
-16.467
 20
109.321
 11
-16.8652
 21
110.634
  0
LINE
  8
0
 10
-16.8652
 20
110.634
 11
-16.9998
 21
112
  0
LINE
  8
0
 10
-16.9998
 20
112
 11
-16.8652
 21
113.365
  0
LINE
  8
0
 10
-16.8652
 20
113.365
 11
-16.467
 21
114.678
  0
LINE
  8
0
 10
-16.467
 20
114.678
 11
-15.82
 21
115.889
  0
LINE
  8
0
 10
-15.82
 20
115.889
 11
-15.5649
 21
116.2
  0
LINE
  8
0
 10
-15.5649
 20
116.2
 11
-14.9496
 21
115.45
  0
LINE
  8
0
 10
-14.9496
 20
115.45
 11
-13.8885
 21
114.579
  0
LINE
  8
0
 10
-13.8885
 20
114.579
 11
-12.6785
 21
113.932
  0
LINE
  8
0
 10
-12.6785
 20
113.932
 11
-11.3654
 21
113.534
  0
LINE
  8
0
 10
-11.3654
 20
113.534
 11
-10
 21
113.4
  0
LINE
  8
0
 10
-10
 20
113.4
 11
-8.63434
 21
113.534
  0
LINE
  8
0
 10
-8.63434
 20
113.534
 11
-7.32117
 21
113.932
  0
LINE
  8
0
 10
-7.32117
 20
113.932
 11
-6.11115
 21
114.579
  0
LINE
  8
0
 10
-6.11115
 20
114.579
 11
-5.05035
 21
115.45
  0
LINE
  8
0
 10
-5.05035
 20
115.45
 11
-4.43512
 21
116.2
  0
LINE
  8
0
 10
-4.43512
 20
116.2
 11
-4.17969
 21
115.889
  0
LINE
  8
0
 10
-4.17969
 20
115.889
 11
-3.53271
 21
114.678
  0
LINE
  8
0
 10
-3.53271
 20
114.678
 11
-3.13446
 21
113.365
  0
LINE
  8
0
 10
-3.13446
 20
113.365
 11
-2.99988
 21
112
  0
LINE
  8
0
 10
-2.99988
 20
112
 11
-3.13446
 21
110.634
  0
LINE
  8
0
 10
-3.13446
 20
110.634
 11
-3.53271
 21
109.321
  0
LINE
  8
0
 10
-3.53271
 20
109.321
 11
-4.17969
 21
108.111
  0
LINE
  8
0
 10
-4.17969
 20
108.111
 11
-4.43512
 21
107.8
  0
LINE
  8
0
 10
-4.43512
 20
107.8
 11
-5.05035
 21
108.549
  0
LINE
  8
0
 10
18.9496
 20
108.549
 11
17.8888
 21
109.42
  0
LINE
  8
0
 10
17.8888
 20
109.42
 11
16.6785
 21
110.067
  0
LINE
  8
0
 10
16.6785
 20
110.067
 11
15.3653
 21
110.465
  0
LINE
  8
0
 10
15.3653
 20
110.465
 11
13.9999
 21
110.6
  0
LINE
  8
0
 10
13.9999
 20
110.6
 11
12.6343
 21
110.465
  0
LINE
  8
0
 10
12.6343
 20
110.465
 11
11.3211
 21
110.067
  0
LINE
  8
0
 10
11.3211
 20
110.067
 11
10.1111
 21
109.42
  0
LINE
  8
0
 10
10.1111
 20
109.42
 11
9.05029
 21
108.549
  0
LINE
  8
0
 10
9.05029
 20
108.549
 11
8.43506
 21
107.8
  0
LINE
  8
0
 10
8.43506
 20
107.8
 11
8.17963
 21
108.111
  0
LINE
  8
0
 10
8.17963
 20
108.111
 11
7.53296
 21
109.321
  0
LINE
  8
0
 10
7.53296
 20
109.321
 11
7.1344
 21
110.634
  0
LINE
  8
0
 10
7.1344
 20
110.634
 11
6.99982
 21
112
  0
LINE
  8
0
 10
6.99982
 20
112
 11
7.1344
 21
113.365
  0
LINE
  8
0
 10
7.1344
 20
113.365
 11
7.53296
 21
114.678
  0
LINE
  8
0
 10
7.53296
 20
114.678
 11
8.17963
 21
115.889
  0
LINE
  8
0
 10
8.17963
 20
115.889
 11
8.43506
 21
116.2
  0
LINE
  8
0
 10
8.43506
 20
116.2
 11
9.05029
 21
115.45
  0
LINE
  8
0
 10
9.05029
 20
115.45
 11
10.1111
 21
114.579
  0
LINE
  8
0
 10
10.1111
 20
114.579
 11
11.3211
 21
113.932
  0
LINE
  8
0
 10
11.3211
 20
113.932
 11
12.6343
 21
113.534
  0
LINE
  8
0
 10
12.6343
 20
113.534
 11
13.9999
 21
113.4
  0
LINE
  8
0
 10
13.9999
 20
113.4
 11
15.3653
 21
113.534
  0
LINE
  8
0
 10
15.3653
 20
113.534
 11
16.6785
 21
113.932
  0
LINE
  8
0
 10
16.6785
 20
113.932
 11
17.8888
 21
114.579
  0
LINE
  8
0
 10
17.8888
 20
114.579
 11
18.9496
 21
115.45
  0
LINE
  8
0
 10
18.9496
 20
115.45
 11
19.5648
 21
116.2
  0
LINE
  8
0
 10
19.5648
 20
116.2
 11
19.8199
 21
115.889
  0
LINE
  8
0
 10
19.8199
 20
115.889
 11
20.4669
 21
114.678
  0
LINE
  8
0
 10
20.4669
 20
114.678
 11
20.8652
 21
113.365
  0
LINE
  8
0
 10
20.8652
 20
113.365
 11
20.9998
 21
112
  0
LINE
  8
0
 10
20.9998
 20
112
 11
20.8652
 21
110.634
  0
LINE
  8
0
 10
20.8652
 20
110.634
 11
20.4669
 21
109.321
  0
LINE
  8
0
 10
20.4669
 20
109.321
 11
19.8199
 21
108.111
  0
LINE
  8
0
 10
19.8199
 20
108.111
 11
19.5648
 21
107.8
  0
LINE
  8
0
 10
19.5648
 20
107.8
 11
18.9496
 21
108.549
  0
LINE
  8
0
 10
-11.3654
 20
93.1348
 11
-12.6785
 21
93.533
  0
LINE
  8
0
 10
-12.6785
 20
93.533
 11
-13.8885
 21
94.18
  0
LINE
  8
0
 10
-13.8885
 20
94.18
 11
-14.1998
 21
94.4351
  0
LINE
  8
0
 10
-14.1998
 20
94.4351
 11
-13.45
 21
95.0507
  0
LINE
  8
0
 10
-13.45
 20
95.0507
 11
-12.5797
 21
96.1115
  0
LINE
  8
0
 10
-12.5797
 20
96.1115
 11
-11.9324
 21
97.3215
  0
LINE
  8
0
 10
-11.9324
 20
97.3215
 11
-11.5344
 21
98.6346
  0
LINE
  8
0
 10
-11.5344
 20
98.6346
 11
-11.3998
 21
100
  0
LINE
  8
0
 10
-11.3998
 20
100
 11
-11.5344
 21
101.365
  0
LINE
  8
0
 10
-11.5344
 20
101.365
 11
-11.9324
 21
102.679
  0
LINE
  8
0
 10
-11.9324
 20
102.679
 11
-12.5797
 21
103.889
  0
LINE
  8
0
 10
-12.5797
 20
103.889
 11
-13.45
 21
104.949
  0
LINE
  8
0
 10
-13.45
 20
104.949
 11
-14.1998
 21
105.565
  0
LINE
  8
0
 10
-14.1998
 20
105.565
 11
-13.8885
 21
105.82
  0
LINE
  8
0
 10
-13.8885
 20
105.82
 11
-12.6785
 21
106.467
  0
LINE
  8
0
 10
-12.6785
 20
106.467
 11
-11.3654
 21
106.865
  0
LINE
  8
0
 10
-11.3654
 20
106.865
 11
-10
 21
107
  0
LINE
  8
0
 10
-10
 20
107
 11
-8.63434
 21
106.865
  0
LINE
  8
0
 10
-8.63434
 20
106.865
 11
-7.32117
 21
106.467
  0
LINE
  8
0
 10
-7.32117
 20
106.467
 11
-6.11115
 21
105.82
  0
LINE
  8
0
 10
-6.11115
 20
105.82
 11
-5.80017
 21
105.565
  0
LINE
  8
0
 10
-5.80017
 20
105.565
 11
-6.54968
 21
104.949
  0
LINE
  8
0
 10
-6.54968
 20
104.949
 11
-7.42004
 21
103.889
  0
LINE
  8
0
 10
-7.42004
 20
103.889
 11
-8.06732
 21
102.679
  0
LINE
  8
0
 10
-8.06732
 20
102.679
 11
-8.46527
 21
101.365
  0
LINE
  8
0
 10
-8.46527
 20
101.365
 11
-8.59985
 21
100
  0
LINE
  8
0
 10
-8.59985
 20
100
 11
-8.46527
 21
98.6346
  0
LINE
  8
0
 10
-8.46527
 20
98.6346
 11
-8.06732
 21
97.3215
  0
LINE
  8
0
 10
-8.06732
 20
97.3215
 11
-7.42004
 21
96.1115
  0
LINE
  8
0
 10
-7.42004
 20
96.1115
 11
-6.54968
 21
95.0507
  0
LINE
  8
0
 10
-6.54968
 20
95.0507
 11
-5.80017
 21
94.4351
  0
LINE
  8
0
 10
-5.80017
 20
94.4351
 11
-6.11115
 21
94.18
  0
LINE
  8
0
 10
-6.11115
 20
94.18
 11
-7.32117
 21
93.533
  0
LINE
  8
0
 10
-7.32117
 20
93.533
 11
-8.63434
 21
93.1348
  0
LINE
  8
0
 10
-8.63434
 20
93.1348
 11
-10
 21
93.0002
  0
LINE
  8
0
 10
-10
 20
93.0002
 11
-11.3654
 21
93.1348
  0
LINE
  8
0
 10
12.6343
 20
93.1348
 11
11.3211
 21
93.533
  0
LINE
  8
0
 10
11.3211
 20
93.533
 11
10.1111
 21
94.18
  0
LINE
  8
0
 10
10.1111
 20
94.18
 11
9.80011
 21
94.4351
  0
LINE
  8
0
 10
9.80011
 20
94.4351
 11
10.5496
 21
95.0507
  0
LINE
  8
0
 10
10.5496
 20
95.0507
 11
11.4203
 21
96.1115
  0
LINE
  8
0
 10
11.4203
 20
96.1115
 11
12.0673
 21
97.3215
  0
LINE
  8
0
 10
12.0673
 20
97.3215
 11
12.4655
 21
98.6346
  0
LINE
  8
0
 10
12.4655
 20
98.6346
 11
12.6001
 21
100
  0
LINE
  8
0
 10
12.6001
 20
100
 11
12.4655
 21
101.365
  0
LINE
  8
0
 10
12.4655
 20
101.365
 11
12.0673
 21
102.679
  0
LINE
  8
0
 10
12.0673
 20
102.679
 11
11.4203
 21
103.889
  0
LINE
  8
0
 10
11.4203
 20
103.889
 11
10.5496
 21
104.949
  0
LINE
  8
0
 10
10.5496
 20
104.949
 11
9.80011
 21
105.565
  0
LINE
  8
0
 10
9.80011
 20
105.565
 11
10.1111
 21
105.82
  0
LINE
  8
0
 10
10.1111
 20
105.82
 11
11.3211
 21
106.467
  0
LINE
  8
0
 10
11.3211
 20
106.467
 11
12.6343
 21
106.865
  0
LINE
  8
0
 10
12.6343
 20
106.865
 11
13.9999
 21
107
  0
LINE
  8
0
 10
13.9999
 20
107
 11
15.3653
 21
106.865
  0
LINE
  8
0
 10
15.3653
 20
106.865
 11
16.6785
 21
106.467
  0
LINE
  8
0
 10
16.6785
 20
106.467
 11
17.8888
 21
105.82
  0
LINE
  8
0
 10
17.8888
 20
105.82
 11
18.1998
 21
105.565
  0
LINE
  8
0
 10
18.1998
 20
105.565
 11
17.45
 21
104.949
  0
LINE
  8
0
 10
17.45
 20
104.949
 11
16.5796
 21
103.889
  0
LINE
  8
0
 10
16.5796
 20
103.889
 11
15.9326
 21
102.679
  0
LINE
  8
0
 10
15.9326
 20
102.679
 11
15.5344
 21
101.365
  0
LINE
  8
0
 10
15.5344
 20
101.365
 11
15.3998
 21
100
  0
LINE
  8
0
 10
15.3998
 20
100
 11
15.5344
 21
98.6346
  0
LINE
  8
0
 10
15.5344
 20
98.6346
 11
15.9326
 21
97.3215
  0
LINE
  8
0
 10
15.9326
 20
97.3215
 11
16.5796
 21
96.1115
  0
LINE
  8
0
 10
16.5796
 20
96.1115
 11
17.45
 21
95.0507
  0
LINE
  8
0
 10
17.45
 20
95.0507
 11
18.1998
 21
94.4351
  0
LINE
  8
0
 10
18.1998
 20
94.4351
 11
17.8888
 21
94.18
  0
LINE
  8
0
 10
17.8888
 20
94.18
 11
16.6785
 21
93.533
  0
LINE
  8
0
 10
16.6785
 20
93.533
 11
15.3653
 21
93.1348
  0
LINE
  8
0
 10
15.3653
 20
93.1348
 11
13.9999
 21
93.0002
  0
LINE
  8
0
 10
13.9999
 20
93.0002
 11
12.6343
 21
93.1348
  0
LINE
  8
0
 10
-17.0502
 20
96.55
 11
-18.111
 21
97.4203
  0
LINE
  8
0
 10
-18.111
 20
97.4203
 11
-19.3213
 21
98.0676
  0
LINE
  8
0
 10
-19.3213
 20
98.0676
 11
-20.6345
 21
98.4656
  0
LINE
  8
0
 10
-20.6345
 20
98.4656
 11
-21.9998
 21
98.6002
  0
LINE
  8
0
 10
-21.9998
 20
98.6002
 11
-23.3652
 21
98.4656
  0
LINE
  8
0
 10
-23.3652
 20
98.4656
 11
-24.6783
 21
98.0676
  0
LINE
  8
0
 10
-24.6783
 20
98.0676
 11
-25.8887
 21
97.4203
  0
LINE
  8
0
 10
-25.8887
 20
97.4203
 11
-26.9495
 21
96.55
  0
LINE
  8
0
 10
-26.9495
 20
96.55
 11
-27.5647
 21
95.8002
  0
LINE
  8
0
 10
-27.5647
 20
95.8002
 11
-27.8201
 21
96.1115
  0
LINE
  8
0
 10
-27.8201
 20
96.1115
 11
-28.4668
 21
97.3215
  0
LINE
  8
0
 10
-28.4668
 20
97.3215
 11
-28.8654
 21
98.6346
  0
LINE
  8
0
 10
-28.8654
 20
98.6346
 11
-28.9999
 21
100
  0
LINE
  8
0
 10
-28.9999
 20
100
 11
-28.8654
 21
101.365
  0
LINE
  8
0
 10
-28.8654
 20
101.365
 11
-28.4668
 21
102.679
  0
LINE
  8
0
 10
-28.4668
 20
102.679
 11
-27.8201
 21
103.889
  0
LINE
  8
0
 10
-27.8201
 20
103.889
 11
-27.5647
 21
104.2
  0
LINE
  8
0
 10
-27.5647
 20
104.2
 11
-26.9495
 21
103.45
  0
LINE
  8
0
 10
-26.9495
 20
103.45
 11
-25.8887
 21
102.58
  0
LINE
  8
0
 10
-25.8887
 20
102.58
 11
-24.6783
 21
101.932
  0
LINE
  8
0
 10
-24.6783
 20
101.932
 11
-23.3652
 21
101.534
  0
LINE
  8
0
 10
-23.3652
 20
101.534
 11
-21.9998
 21
101.4
  0
LINE
  8
0
 10
-21.9998
 20
101.4
 11
-20.6345
 21
101.534
  0
LINE
  8
0
 10
-20.6345
 20
101.534
 11
-19.3213
 21
101.932
  0
LINE
  8
0
 10
-19.3213
 20
101.932
 11
-18.111
 21
102.58
  0
LINE
  8
0
 10
-18.111
 20
102.58
 11
-17.0502
 21
103.45
  0
LINE
  8
0
 10
-17.0502
 20
103.45
 11
-16.4349
 21
104.2
  0
LINE
  8
0
 10
-16.4349
 20
104.2
 11
-16.1798
 21
103.889
  0
LINE
  8
0
 10
-16.1798
 20
103.889
 11
-15.5328
 21
102.679
  0
LINE
  8
0
 10
-15.5328
 20
102.679
 11
-15.1343
 21
101.365
  0
LINE
  8
0
 10
-15.1343
 20
101.365
 11
-14.9997
 21
100
  0
LINE
  8
0
 10
-14.9997
 20
100
 11
-15.1343
 21
98.6346
  0
LINE
  8
0
 10
-15.1343
 20
98.6346
 11
-15.5328
 21
97.3215
  0
LINE
  8
0
 10
-15.5328
 20
97.3215
 11
-16.1798
 21
96.1115
  0
LINE
  8
0
 10
-16.1798
 20
96.1115
 11
-16.4349
 21
95.8002
  0
LINE
  8
0
 10
-16.4349
 20
95.8002
 11
-17.0502
 21
96.55
  0
LINE
  8
0
 10
6.94946
 20
96.55
 11
5.88867
 21
97.4203
  0
LINE
  8
0
 10
5.88867
 20
97.4203
 11
4.67834
 21
98.0676
  0
LINE
  8
0
 10
4.67834
 20
98.0676
 11
3.36548
 21
98.4656
  0
LINE
  8
0
 10
3.36548
 20
98.4656
 11
1.99982
 21
98.6002
  0
LINE
  8
0
 10
1.99982
 20
98.6002
 11
0.63446
 21
98.4656
  0
LINE
  8
0
 10
0.63446
 20
98.4656
 11
-0.678406
 21
98.0676
  0
LINE
  8
0
 10
-0.678406
 20
98.0676
 11
-1.88873
 21
97.4203
  0
LINE
  8
0
 10
-1.88873
 20
97.4203
 11
-2.94952
 21
96.55
  0
LINE
  8
0
 10
-2.94952
 20
96.55
 11
-3.56476
 21
95.8002
  0
LINE
  8
0
 10
-3.56476
 20
95.8002
 11
-3.81989
 21
96.1115
  0
LINE
  8
0
 10
-3.81989
 20
96.1115
 11
-4.46686
 21
97.3215
  0
LINE
  8
0
 10
-4.46686
 20
97.3215
 11
-4.86511
 21
98.6346
  0
LINE
  8
0
 10
-4.86511
 20
98.6346
 11
-4.99969
 21
100
  0
LINE
  8
0
 10
-4.99969
 20
100
 11
-4.86511
 21
101.365
  0
LINE
  8
0
 10
-4.86511
 20
101.365
 11
-4.46686
 21
102.679
  0
LINE
  8
0
 10
-4.46686
 20
102.679
 11
-3.81989
 21
103.889
  0
LINE
  8
0
 10
-3.81989
 20
103.889
 11
-3.56476
 21
104.2
  0
LINE
  8
0
 10
-3.56476
 20
104.2
 11
-2.94952
 21
103.45
  0
LINE
  8
0
 10
-2.94952
 20
103.45
 11
-1.88873
 21
102.58
  0
LINE
  8
0
 10
-1.88873
 20
102.58
 11
-0.678406
 21
101.932
  0
LINE
  8
0
 10
-0.678406
 20
101.932
 11
0.63446
 21
101.534
  0
LINE
  8
0
 10
0.63446
 20
101.534
 11
1.99982
 21
101.4
  0
LINE
  8
0
 10
1.99982
 20
101.4
 11
3.36548
 21
101.534
  0
LINE
  8
0
 10
3.36548
 20
101.534
 11
4.67834
 21
101.932
  0
LINE
  8
0
 10
4.67834
 20
101.932
 11
5.88867
 21
102.58
  0
LINE
  8
0
 10
5.88867
 20
102.58
 11
6.94946
 21
103.45
  0
LINE
  8
0
 10
6.94946
 20
103.45
 11
7.5647
 21
104.2
  0
LINE
  8
0
 10
7.5647
 20
104.2
 11
7.82013
 21
103.889
  0
LINE
  8
0
 10
7.82013
 20
103.889
 11
8.4668
 21
102.679
  0
LINE
  8
0
 10
8.4668
 20
102.679
 11
8.86536
 21
101.365
  0
LINE
  8
0
 10
8.86536
 20
101.365
 11
8.99994
 21
100
  0
LINE
  8
0
 10
8.99994
 20
100
 11
8.86536
 21
98.6346
  0
LINE
  8
0
 10
8.86536
 20
98.6346
 11
8.4668
 21
97.3215
  0
LINE
  8
0
 10
8.4668
 20
97.3215
 11
7.82013
 21
96.1115
  0
LINE
  8
0
 10
7.82013
 20
96.1115
 11
7.5647
 21
95.8002
  0
LINE
  8
0
 10
7.5647
 20
95.8002
 11
6.94946
 21
96.55
  0
LINE
  8
0
 10
20.1797
 20
96.1115
 11
19.5328
 21
97.3215
  0
LINE
  8
0
 10
19.5328
 20
97.3215
 11
19.1345
 21
98.6346
  0
LINE
  8
0
 10
19.1345
 20
98.6346
 11
18.9999
 21
100
  0
LINE
  8
0
 10
18.9999
 20
100
 11
19.1345
 21
101.365
  0
LINE
  8
0
 10
19.1345
 20
101.365
 11
19.5328
 21
102.679
  0
LINE
  8
0
 10
19.5328
 20
102.679
 11
20.1797
 21
103.889
  0
LINE
  8
0
 10
20.1797
 20
103.889
 11
20.4349
 21
104.2
  0
LINE
  8
0
 10
20.4349
 20
104.2
 11
21.0501
 21
103.45
  0
LINE
  8
0
 10
21.0501
 20
103.45
 11
22.1112
 21
102.58
  0
LINE
  8
0
 10
22.1112
 20
102.58
 11
23.3212
 21
101.932
  0
LINE
  8
0
 10
23.3212
 20
101.932
 11
24.6344
 21
101.534
  0
LINE
  8
0
 10
24.6344
 20
101.534
 11
25.9998
 21
101.4
  0
LINE
  8
0
 10
25.9998
 20
101.4
 11
27.3654
 21
101.534
  0
LINE
  8
0
 10
27.3654
 20
101.534
 11
28.6786
 21
101.932
  0
LINE
  8
0
 10
28.6786
 20
101.932
 11
29.1761
 21
102.199
  0
LINE
  8
0
 10
29.1761
 20
102.199
 11
31.0521
 21
96.4248
  0
LINE
  8
0
 10
31.0521
 20
96.4248
 11
30.9494
 21
96.55
  0
LINE
  8
0
 10
30.9494
 20
96.55
 11
29.8886
 21
97.4203
  0
LINE
  8
0
 10
29.8886
 20
97.4203
 11
28.6786
 21
98.0676
  0
LINE
  8
0
 10
28.6786
 20
98.0676
 11
27.3654
 21
98.4656
  0
LINE
  8
0
 10
27.3654
 20
98.4656
 11
25.9998
 21
98.6002
  0
LINE
  8
0
 10
25.9998
 20
98.6002
 11
24.6344
 21
98.4656
  0
LINE
  8
0
 10
24.6344
 20
98.4656
 11
23.3212
 21
98.0676
  0
LINE
  8
0
 10
23.3212
 20
98.0676
 11
22.1112
 21
97.4203
  0
LINE
  8
0
 10
22.1112
 20
97.4203
 11
21.0501
 21
96.55
  0
LINE
  8
0
 10
21.0501
 20
96.55
 11
20.4349
 21
95.8002
  0
LINE
  8
0
 10
20.4349
 20
95.8002
 11
20.1797
 21
96.1115
  0
LINE
  8
0
 10
-31.2294
 20
95.8792
 11
-30.5496
 21
95.0507
  0
LINE
  8
0
 10
-30.5496
 20
95.0507
 11
-29.8001
 21
94.4351
  0
LINE
  8
0
 10
-29.8001
 20
94.4351
 11
-30.1111
 21
94.18
  0
LINE
  8
0
 10
-30.1111
 20
94.18
 11
-31.3211
 21
93.533
  0
LINE
  8
0
 10
-31.3211
 20
93.533
 11
-32.065
 21
93.3074
  0
LINE
  8
0
 10
-32.065
 20
93.3074
 11
-31.2294
 21
95.8792
  0
LINE
  8
0
 10
-23.3652
 20
81.1346
 11
-24.6783
 21
81.5332
  0
LINE
  8
0
 10
-24.6783
 20
81.5332
 11
-25.8887
 21
82.1799
  0
LINE
  8
0
 10
-25.8887
 20
82.1799
 11
-26.1996
 21
82.4353
  0
LINE
  8
0
 10
-26.1996
 20
82.4353
 11
-25.4501
 21
83.0505
  0
LINE
  8
0
 10
-25.4501
 20
83.0505
 11
-24.5795
 21
84.1113
  0
LINE
  8
0
 10
-24.5795
 20
84.1113
 11
-23.9325
 21
85.3217
  0
LINE
  8
0
 10
-23.9325
 20
85.3217
 11
-23.5342
 21
86.6345
  0
LINE
  8
0
 10
-23.5342
 20
86.6345
 11
-23.3997
 21
88.0002
  0
LINE
  8
0
 10
-23.3997
 20
88.0002
 11
-23.5342
 21
89.3655
  0
LINE
  8
0
 10
-23.5342
 20
89.3655
 11
-23.9325
 21
90.6787
  0
LINE
  8
0
 10
-23.9325
 20
90.6787
 11
-24.5795
 21
91.889
  0
LINE
  8
0
 10
-24.5795
 20
91.889
 11
-25.4501
 21
92.9498
  0
LINE
  8
0
 10
-25.4501
 20
92.9498
 11
-26.1996
 21
93.5651
  0
LINE
  8
0
 10
-26.1996
 20
93.5651
 11
-25.8887
 21
93.8202
  0
LINE
  8
0
 10
-25.8887
 20
93.8202
 11
-24.6783
 21
94.4672
  0
LINE
  8
0
 10
-24.6783
 20
94.4672
 11
-23.3652
 21
94.8654
  0
LINE
  8
0
 10
-23.3652
 20
94.8654
 11
-21.9998
 21
95
  0
LINE
  8
0
 10
-21.9998
 20
95
 11
-20.6345
 21
94.8654
  0
LINE
  8
0
 10
-20.6345
 20
94.8654
 11
-19.3213
 21
94.4672
  0
LINE
  8
0
 10
-19.3213
 20
94.4672
 11
-18.111
 21
93.8202
  0
LINE
  8
0
 10
-18.111
 20
93.8202
 11
-17.8
 21
93.5651
  0
LINE
  8
0
 10
-17.8
 20
93.5651
 11
-18.5495
 21
92.9498
  0
LINE
  8
0
 10
-18.5495
 20
92.9498
 11
-19.4202
 21
91.889
  0
LINE
  8
0
 10
-19.4202
 20
91.889
 11
-20.0671
 21
90.6787
  0
LINE
  8
0
 10
-20.0671
 20
90.6787
 11
-20.4654
 21
89.3655
  0
LINE
  8
0
 10
-20.4654
 20
89.3655
 11
-20.6
 21
88.0002
  0
LINE
  8
0
 10
-20.6
 20
88.0002
 11
-20.4654
 21
86.6345
  0
LINE
  8
0
 10
-20.4654
 20
86.6345
 11
-20.0671
 21
85.3217
  0
LINE
  8
0
 10
-20.0671
 20
85.3217
 11
-19.4202
 21
84.1113
  0
LINE
  8
0
 10
-19.4202
 20
84.1113
 11
-18.5495
 21
83.0505
  0
LINE
  8
0
 10
-18.5495
 20
83.0505
 11
-17.8
 21
82.4353
  0
LINE
  8
0
 10
-17.8
 20
82.4353
 11
-18.111
 21
82.1799
  0
LINE
  8
0
 10
-18.111
 20
82.1799
 11
-19.3213
 21
81.5332
  0
LINE
  8
0
 10
-19.3213
 20
81.5332
 11
-20.6345
 21
81.1346
  0
LINE
  8
0
 10
-20.6345
 20
81.1346
 11
-21.9998
 21
81.0001
  0
LINE
  8
0
 10
-21.9998
 20
81.0001
 11
-23.3652
 21
81.1346
  0
LINE
  8
0
 10
24.6344
 20
81.1346
 11
23.3212
 21
81.5332
  0
LINE
  8
0
 10
23.3212
 20
81.5332
 11
22.1112
 21
82.1799
  0
LINE
  8
0
 10
22.1112
 20
82.1799
 11
21.7999
 21
82.4353
  0
LINE
  8
0
 10
21.7999
 20
82.4353
 11
22.5497
 21
83.0505
  0
LINE
  8
0
 10
22.5497
 20
83.0505
 11
23.4201
 21
84.1113
  0
LINE
  8
0
 10
23.4201
 20
84.1113
 11
24.0671
 21
85.3217
  0
LINE
  8
0
 10
24.0671
 20
85.3217
 11
24.4653
 21
86.6345
  0
LINE
  8
0
 10
24.4653
 20
86.6345
 11
24.5999
 21
88.0002
  0
LINE
  8
0
 10
24.5999
 20
88.0002
 11
24.4653
 21
89.3655
  0
LINE
  8
0
 10
24.4653
 20
89.3655
 11
24.0671
 21
90.6787
  0
LINE
  8
0
 10
24.0671
 20
90.6787
 11
23.4201
 21
91.889
  0
LINE
  8
0
 10
23.4201
 20
91.889
 11
22.5497
 21
92.9498
  0
LINE
  8
0
 10
22.5497
 20
92.9498
 11
21.7999
 21
93.5651
  0
LINE
  8
0
 10
21.7999
 20
93.5651
 11
22.1112
 21
93.8202
  0
LINE
  8
0
 10
22.1112
 20
93.8202
 11
23.3212
 21
94.4672
  0
LINE
  8
0
 10
23.3212
 20
94.4672
 11
24.6344
 21
94.8654
  0
LINE
  8
0
 10
24.6344
 20
94.8654
 11
25.9998
 21
95
  0
LINE
  8
0
 10
25.9998
 20
95
 11
27.3654
 21
94.8654
  0
LINE
  8
0
 10
27.3654
 20
94.8654
 11
28.6786
 21
94.4672
  0
LINE
  8
0
 10
28.6786
 20
94.4672
 11
29.8886
 21
93.8202
  0
LINE
  8
0
 10
29.8886
 20
93.8202
 11
30.1996
 21
93.5651
  0
LINE
  8
0
 10
30.1996
 20
93.5651
 11
29.4501
 21
92.9498
  0
LINE
  8
0
 10
29.4501
 20
92.9498
 11
28.5797
 21
91.889
  0
LINE
  8
0
 10
28.5797
 20
91.889
 11
27.9324
 21
90.6787
  0
LINE
  8
0
 10
27.9324
 20
90.6787
 11
27.5342
 21
89.3655
  0
LINE
  8
0
 10
27.5342
 20
89.3655
 11
27.3996
 21
88.0002
  0
LINE
  8
0
 10
27.3996
 20
88.0002
 11
27.5342
 21
86.6345
  0
LINE
  8
0
 10
27.5342
 20
86.6345
 11
27.9324
 21
85.3217
  0
LINE
  8
0
 10
27.9324
 20
85.3217
 11
28.5797
 21
84.1113
  0
LINE
  8
0
 10
28.5797
 20
84.1113
 11
29.4501
 21
83.0505
  0
LINE
  8
0
 10
29.4501
 20
83.0505
 11
30.1996
 21
82.4353
  0
LINE
  8
0
 10
30.1996
 20
82.4353
 11
29.8886
 21
82.1799
  0
LINE
  8
0
 10
29.8886
 20
82.1799
 11
28.6786
 21
81.5332
  0
LINE
  8
0
 10
28.6786
 20
81.5332
 11
27.3654
 21
81.1346
  0
LINE
  8
0
 10
27.3654
 20
81.1346
 11
25.9998
 21
81.0001
  0
LINE
  8
0
 10
25.9998
 20
81.0001
 11
24.6344
 21
81.1346
  0
LINE
  8
0
 10
0.63446
 20
81.1346
 11
-0.678406
 21
81.5332
  0
LINE
  8
0
 10
-0.678406
 20
81.5332
 11
-1.88873
 21
82.1799
  0
LINE
  8
0
 10
-1.88873
 20
82.1799
 11
-2.19971
 21
82.4353
  0
LINE
  8
0
 10
-2.19971
 20
82.4353
 11
-1.4502
 21
83.0505
  0
LINE
  8
0
 10
-1.4502
 20
83.0505
 11
-0.579529
 21
84.1113
  0
LINE
  8
0
 10
-0.579529
 20
84.1113
 11
0.0671387
 21
85.3217
  0
LINE
  8
0
 10
0.0671387
 20
85.3217
 11
0.465393
 21
86.6345
  0
LINE
  8
0
 10
0.465393
 20
86.6345
 11
0.599976
 21
88.0002
  0
LINE
  8
0
 10
0.599976
 20
88.0002
 11
0.465393
 21
89.3655
  0
LINE
  8
0
 10
0.465393
 20
89.3655
 11
0.0671387
 21
90.6787
  0
LINE
  8
0
 10
0.0671387
 20
90.6787
 11
-0.579529
 21
91.889
  0
LINE
  8
0
 10
-0.579529
 20
91.889
 11
-1.4502
 21
92.9498
  0
LINE
  8
0
 10
-1.4502
 20
92.9498
 11
-2.19971
 21
93.5651
  0
LINE
  8
0
 10
-2.19971
 20
93.5651
 11
-1.88873
 21
93.8202
  0
LINE
  8
0
 10
-1.88873
 20
93.8202
 11
-0.678406
 21
94.4672
  0
LINE
  8
0
 10
-0.678406
 20
94.4672
 11
0.63446
 21
94.8654
  0
LINE
  8
0
 10
0.63446
 20
94.8654
 11
1.99982
 21
95
  0
LINE
  8
0
 10
1.99982
 20
95
 11
3.36548
 21
94.8654
  0
LINE
  8
0
 10
3.36548
 20
94.8654
 11
4.67834
 21
94.4672
  0
LINE
  8
0
 10
4.67834
 20
94.4672
 11
5.88867
 21
93.8202
  0
LINE
  8
0
 10
5.88867
 20
93.8202
 11
6.19965
 21
93.5651
  0
LINE
  8
0
 10
6.19965
 20
93.5651
 11
5.45013
 21
92.9498
  0
LINE
  8
0
 10
5.45013
 20
92.9498
 11
4.57947
 21
91.889
  0
LINE
  8
0
 10
4.57947
 20
91.889
 11
3.9325
 21
90.6787
  0
LINE
  8
0
 10
3.9325
 20
90.6787
 11
3.53424
 21
89.3655
  0
LINE
  8
0
 10
3.53424
 20
89.3655
 11
3.39966
 21
88.0002
  0
LINE
  8
0
 10
3.39966
 20
88.0002
 11
3.53424
 21
86.6345
  0
LINE
  8
0
 10
3.53424
 20
86.6345
 11
3.9325
 21
85.3217
  0
LINE
  8
0
 10
3.9325
 20
85.3217
 11
4.57947
 21
84.1113
  0
LINE
  8
0
 10
4.57947
 20
84.1113
 11
5.45013
 21
83.0505
  0
LINE
  8
0
 10
5.45013
 20
83.0505
 11
6.19965
 21
82.4353
  0
LINE
  8
0
 10
6.19965
 20
82.4353
 11
5.88867
 21
82.1799
  0
LINE
  8
0
 10
5.88867
 20
82.1799
 11
4.67834
 21
81.5332
  0
LINE
  8
0
 10
4.67834
 20
81.5332
 11
3.36548
 21
81.1346
  0
LINE
  8
0
 10
3.36548
 20
81.1346
 11
1.99982
 21
81.0001
  0
LINE
  8
0
 10
1.99982
 20
81.0001
 11
0.63446
 21
81.1346
  0
LINE
  8
0
 10
18.9496
 20
84.5499
 11
17.8888
 21
85.4205
  0
LINE
  8
0
 10
17.8888
 20
85.4205
 11
16.6785
 21
86.0675
  0
LINE
  8
0
 10
16.6785
 20
86.0675
 11
15.3653
 21
86.4658
  0
LINE
  8
0
 10
15.3653
 20
86.4658
 11
13.9999
 21
86.6003
  0
LINE
  8
0
 10
13.9999
 20
86.6003
 11
12.6343
 21
86.4658
  0
LINE
  8
0
 10
12.6343
 20
86.4658
 11
11.3211
 21
86.0675
  0
LINE
  8
0
 10
11.3211
 20
86.0675
 11
10.1111
 21
85.4205
  0
LINE
  8
0
 10
10.1111
 20
85.4205
 11
9.05029
 21
84.5499
  0
LINE
  8
0
 10
9.05029
 20
84.5499
 11
8.43506
 21
83.8004
  0
LINE
  8
0
 10
8.43506
 20
83.8004
 11
8.17963
 21
84.1113
  0
LINE
  8
0
 10
8.17963
 20
84.1113
 11
7.53296
 21
85.3217
  0
LINE
  8
0
 10
7.53296
 20
85.3217
 11
7.1344
 21
86.6345
  0
LINE
  8
0
 10
7.1344
 20
86.6345
 11
6.99982
 21
88.0002
  0
LINE
  8
0
 10
6.99982
 20
88.0002
 11
7.1344
 21
89.3655
  0
LINE
  8
0
 10
7.1344
 20
89.3655
 11
7.53296
 21
90.6787
  0
LINE
  8
0
 10
7.53296
 20
90.6787
 11
8.17963
 21
91.889
  0
LINE
  8
0
 10
8.17963
 20
91.889
 11
8.43506
 21
92.2
  0
LINE
  8
0
 10
8.43506
 20
92.2
 11
9.05029
 21
91.4505
  0
LINE
  8
0
 10
9.05029
 20
91.4505
 11
10.1111
 21
90.5798
  0
LINE
  8
0
 10
10.1111
 20
90.5798
 11
11.3211
 21
89.9329
  0
LINE
  8
0
 10
11.3211
 20
89.9329
 11
12.6343
 21
89.5346
  0
LINE
  8
0
 10
12.6343
 20
89.5346
 11
13.9999
 21
89.4
  0
LINE
  8
0
 10
13.9999
 20
89.4
 11
15.3653
 21
89.5346
  0
LINE
  8
0
 10
15.3653
 20
89.5346
 11
16.6785
 21
89.9329
  0
LINE
  8
0
 10
16.6785
 20
89.9329
 11
17.8888
 21
90.5798
  0
LINE
  8
0
 10
17.8888
 20
90.5798
 11
18.9496
 21
91.4505
  0
LINE
  8
0
 10
18.9496
 20
91.4505
 11
19.5648
 21
92.2
  0
LINE
  8
0
 10
19.5648
 20
92.2
 11
19.8199
 21
91.889
  0
LINE
  8
0
 10
19.8199
 20
91.889
 11
20.4669
 21
90.6787
  0
LINE
  8
0
 10
20.4669
 20
90.6787
 11
20.8652
 21
89.3655
  0
LINE
  8
0
 10
20.8652
 20
89.3655
 11
20.9998
 21
88.0002
  0
LINE
  8
0
 10
20.9998
 20
88.0002
 11
20.8652
 21
86.6345
  0
LINE
  8
0
 10
20.8652
 20
86.6345
 11
20.4669
 21
85.3217
  0
LINE
  8
0
 10
20.4669
 20
85.3217
 11
19.8199
 21
84.1113
  0
LINE
  8
0
 10
19.8199
 20
84.1113
 11
19.5648
 21
83.8004
  0
LINE
  8
0
 10
19.5648
 20
83.8004
 11
18.9496
 21
84.5499
  0
LINE
  8
0
 10
-5.05035
 20
84.5499
 11
-6.11115
 21
85.4205
  0
LINE
  8
0
 10
-6.11115
 20
85.4205
 11
-7.32117
 21
86.0675
  0
LINE
  8
0
 10
-7.32117
 20
86.0675
 11
-8.63434
 21
86.4658
  0
LINE
  8
0
 10
-8.63434
 20
86.4658
 11
-10
 21
86.6003
  0
LINE
  8
0
 10
-10
 20
86.6003
 11
-11.3654
 21
86.4658
  0
LINE
  8
0
 10
-11.3654
 20
86.4658
 11
-12.6785
 21
86.0675
  0
LINE
  8
0
 10
-12.6785
 20
86.0675
 11
-13.8885
 21
85.4205
  0
LINE
  8
0
 10
-13.8885
 20
85.4205
 11
-14.9496
 21
84.5499
  0
LINE
  8
0
 10
-14.9496
 20
84.5499
 11
-15.5649
 21
83.8004
  0
LINE
  8
0
 10
-15.5649
 20
83.8004
 11
-15.82
 21
84.1113
  0
LINE
  8
0
 10
-15.82
 20
84.1113
 11
-16.467
 21
85.3217
  0
LINE
  8
0
 10
-16.467
 20
85.3217
 11
-16.8652
 21
86.6345
  0
LINE
  8
0
 10
-16.8652
 20
86.6345
 11
-16.9998
 21
88.0002
  0
LINE
  8
0
 10
-16.9998
 20
88.0002
 11
-16.8652
 21
89.3655
  0
LINE
  8
0
 10
-16.8652
 20
89.3655
 11
-16.467
 21
90.6787
  0
LINE
  8
0
 10
-16.467
 20
90.6787
 11
-15.82
 21
91.889
  0
LINE
  8
0
 10
-15.82
 20
91.889
 11
-15.5649
 21
92.2
  0
LINE
  8
0
 10
-15.5649
 20
92.2
 11
-14.9496
 21
91.4505
  0
LINE
  8
0
 10
-14.9496
 20
91.4505
 11
-13.8885
 21
90.5798
  0
LINE
  8
0
 10
-13.8885
 20
90.5798
 11
-12.6785
 21
89.9329
  0
LINE
  8
0
 10
-12.6785
 20
89.9329
 11
-11.3654
 21
89.5346
  0
LINE
  8
0
 10
-11.3654
 20
89.5346
 11
-10
 21
89.4
  0
LINE
  8
0
 10
-10
 20
89.4
 11
-8.63434
 21
89.5346
  0
LINE
  8
0
 10
-8.63434
 20
89.5346
 11
-7.32117
 21
89.9329
  0
LINE
  8
0
 10
-7.32117
 20
89.9329
 11
-6.11115
 21
90.5798
  0
LINE
  8
0
 10
-6.11115
 20
90.5798
 11
-5.05035
 21
91.4505
  0
LINE
  8
0
 10
-5.05035
 20
91.4505
 11
-4.43512
 21
92.2
  0
LINE
  8
0
 10
-4.43512
 20
92.2
 11
-4.17969
 21
91.889
  0
LINE
  8
0
 10
-4.17969
 20
91.889
 11
-3.53271
 21
90.6787
  0
LINE
  8
0
 10
-3.53271
 20
90.6787
 11
-3.13446
 21
89.3655
  0
LINE
  8
0
 10
-3.13446
 20
89.3655
 11
-2.99988
 21
88.0002
  0
LINE
  8
0
 10
-2.99988
 20
88.0002
 11
-3.13446
 21
86.6345
  0
LINE
  8
0
 10
-3.13446
 20
86.6345
 11
-3.53271
 21
85.3217
  0
LINE
  8
0
 10
-3.53271
 20
85.3217
 11
-4.17969
 21
84.1113
  0
LINE
  8
0
 10
-4.17969
 20
84.1113
 11
-4.43512
 21
83.8004
  0
LINE
  8
0
 10
-4.43512
 20
83.8004
 11
-5.05035
 21
84.5499
  0
LINE
  8
0
 10
-29.0503
 20
84.5499
 11
-30.1111
 21
85.4205
  0
LINE
  8
0
 10
-30.1111
 20
85.4205
 11
-31.3211
 21
86.0675
  0
LINE
  8
0
 10
-31.3211
 20
86.0675
 11
-32.6343
 21
86.4658
  0
LINE
  8
0
 10
-32.6343
 20
86.4658
 11
-33.9999
 21
86.6003
  0
LINE
  8
0
 10
-33.9999
 20
86.6003
 11
-34.2524
 21
86.5755
  0
LINE
  8
0
 10
-34.2524
 20
86.5755
 11
-33.3126
 21
89.4678
  0
LINE
  8
0
 10
-33.3126
 20
89.4678
 11
-32.6343
 21
89.5346
  0
LINE
  8
0
 10
-32.6343
 20
89.5346
 11
-31.3211
 21
89.9329
  0
LINE
  8
0
 10
-31.3211
 20
89.9329
 11
-30.1111
 21
90.5798
  0
LINE
  8
0
 10
-30.1111
 20
90.5798
 11
-29.0503
 21
91.4505
  0
LINE
  8
0
 10
-29.0503
 20
91.4505
 11
-28.4351
 21
92.2
  0
LINE
  8
0
 10
-28.4351
 20
92.2
 11
-28.1796
 21
91.889
  0
LINE
  8
0
 10
-28.1796
 20
91.889
 11
-27.533
 21
90.6787
  0
LINE
  8
0
 10
-27.533
 20
90.6787
 11
-27.1344
 21
89.3655
  0
LINE
  8
0
 10
-27.1344
 20
89.3655
 11
-26.9998
 21
88.0002
  0
LINE
  8
0
 10
-26.9998
 20
88.0002
 11
-27.1344
 21
86.6345
  0
LINE
  8
0
 10
-27.1344
 20
86.6345
 11
-27.533
 21
85.3217
  0
LINE
  8
0
 10
-27.533
 20
85.3217
 11
-28.1796
 21
84.1113
  0
LINE
  8
0
 10
-28.1796
 20
84.1113
 11
-28.4351
 21
83.8004
  0
LINE
  8
0
 10
-28.4351
 20
83.8004
 11
-29.0503
 21
84.5499
  0
LINE
  8
0
 10
32.1796
 20
84.1113
 11
31.5329
 21
85.3217
  0
LINE
  8
0
 10
31.5329
 20
85.3217
 11
31.1343
 21
86.6345
  0
LINE
  8
0
 10
31.1343
 20
86.6345
 11
30.9998
 21
88.0002
  0
LINE
  8
0
 10
30.9998
 20
88.0002
 11
31.1343
 21
89.3655
  0
LINE
  8
0
 10
31.1343
 20
89.3655
 11
31.5329
 21
90.6787
  0
LINE
  8
0
 10
31.5329
 20
90.6787
 11
32.1796
 21
91.889
  0
LINE
  8
0
 10
32.1796
 20
91.889
 11
32.4277
 21
92.1912
  0
LINE
  8
0
 10
32.4277
 20
92.1912
 11
34.5512
 21
85.6558
  0
LINE
  8
0
 10
34.5512
 20
85.6558
 11
34.111
 21
85.4205
  0
LINE
  8
0
 10
34.111
 20
85.4205
 11
33.0502
 21
84.5499
  0
LINE
  8
0
 10
33.0502
 20
84.5499
 11
32.435
 21
83.8004
  0
LINE
  8
0
 10
32.435
 20
83.8004
 11
32.1796
 21
84.1113
  0
LINE
  8
0
 10
12.6343
 20
69.1348
 11
11.3211
 21
69.5331
  0
LINE
  8
0
 10
11.3211
 20
69.5331
 11
10.1111
 21
70.1801
  0
LINE
  8
0
 10
10.1111
 20
70.1801
 11
9.80011
 21
70.4352
  0
LINE
  8
0
 10
9.80011
 20
70.4352
 11
10.5496
 21
71.0504
  0
LINE
  8
0
 10
10.5496
 20
71.0504
 11
11.4203
 21
72.1112
  0
LINE
  8
0
 10
11.4203
 20
72.1112
 11
12.0673
 21
73.3215
  0
LINE
  8
0
 10
12.0673
 20
73.3215
 11
12.4655
 21
74.6347
  0
LINE
  8
0
 10
12.4655
 20
74.6347
 11
12.6001
 21
76.0001
  0
LINE
  8
0
 10
12.6001
 20
76.0001
 11
12.4655
 21
77.3657
  0
LINE
  8
0
 10
12.4655
 20
77.3657
 11
12.0673
 21
78.6789
  0
LINE
  8
0
 10
12.0673
 20
78.6789
 11
11.4203
 21
79.8889
  0
LINE
  8
0
 10
11.4203
 20
79.8889
 11
10.5496
 21
80.9497
  0
LINE
  8
0
 10
10.5496
 20
80.9497
 11
9.80011
 21
81.5649
  0
LINE
  8
0
 10
9.80011
 20
81.5649
 11
10.1111
 21
81.8204
  0
LINE
  8
0
 10
10.1111
 20
81.8204
 11
11.3211
 21
82.467
  0
LINE
  8
0
 10
11.3211
 20
82.467
 11
12.6343
 21
82.8656
  0
LINE
  8
0
 10
12.6343
 20
82.8656
 11
13.9999
 21
83.0002
  0
LINE
  8
0
 10
13.9999
 20
83.0002
 11
15.3653
 21
82.8656
  0
LINE
  8
0
 10
15.3653
 20
82.8656
 11
16.6785
 21
82.467
  0
LINE
  8
0
 10
16.6785
 20
82.467
 11
17.8888
 21
81.8204
  0
LINE
  8
0
 10
17.8888
 20
81.8204
 11
18.1998
 21
81.5649
  0
LINE
  8
0
 10
18.1998
 20
81.5649
 11
17.45
 21
80.9497
  0
LINE
  8
0
 10
17.45
 20
80.9497
 11
16.5796
 21
79.8889
  0
LINE
  8
0
 10
16.5796
 20
79.8889
 11
15.9326
 21
78.6789
  0
LINE
  8
0
 10
15.9326
 20
78.6789
 11
15.5344
 21
77.3657
  0
LINE
  8
0
 10
15.5344
 20
77.3657
 11
15.3998
 21
76.0001
  0
LINE
  8
0
 10
15.3998
 20
76.0001
 11
15.5344
 21
74.6347
  0
LINE
  8
0
 10
15.5344
 20
74.6347
 11
15.9326
 21
73.3215
  0
LINE
  8
0
 10
15.9326
 20
73.3215
 11
16.5796
 21
72.1112
  0
LINE
  8
0
 10
16.5796
 20
72.1112
 11
17.45
 21
71.0504
  0
LINE
  8
0
 10
17.45
 20
71.0504
 11
18.1998
 21
70.4352
  0
LINE
  8
0
 10
18.1998
 20
70.4352
 11
17.8888
 21
70.1801
  0
LINE
  8
0
 10
17.8888
 20
70.1801
 11
16.6785
 21
69.5331
  0
LINE
  8
0
 10
16.6785
 20
69.5331
 11
15.3653
 21
69.1348
  0
LINE
  8
0
 10
15.3653
 20
69.1348
 11
13.9999
 21
69.0002
  0
LINE
  8
0
 10
13.9999
 20
69.0002
 11
12.6343
 21
69.1348
  0
LINE
  8
0
 10
-11.3654
 20
69.1348
 11
-12.6785
 21
69.5331
  0
LINE
  8
0
 10
-12.6785
 20
69.5331
 11
-13.8885
 21
70.1801
  0
LINE
  8
0
 10
-13.8885
 20
70.1801
 11
-14.1998
 21
70.4352
  0
LINE
  8
0
 10
-14.1998
 20
70.4352
 11
-13.45
 21
71.0504
  0
LINE
  8
0
 10
-13.45
 20
71.0504
 11
-12.5797
 21
72.1112
  0
LINE
  8
0
 10
-12.5797
 20
72.1112
 11
-11.9324
 21
73.3215
  0
LINE
  8
0
 10
-11.9324
 20
73.3215
 11
-11.5344
 21
74.6347
  0
LINE
  8
0
 10
-11.5344
 20
74.6347
 11
-11.3998
 21
76.0001
  0
LINE
  8
0
 10
-11.3998
 20
76.0001
 11
-11.5344
 21
77.3657
  0
LINE
  8
0
 10
-11.5344
 20
77.3657
 11
-11.9324
 21
78.6789
  0
LINE
  8
0
 10
-11.9324
 20
78.6789
 11
-12.5797
 21
79.8889
  0
LINE
  8
0
 10
-12.5797
 20
79.8889
 11
-13.45
 21
80.9497
  0
LINE
  8
0
 10
-13.45
 20
80.9497
 11
-14.1998
 21
81.5649
  0
LINE
  8
0
 10
-14.1998
 20
81.5649
 11
-13.8885
 21
81.8204
  0
LINE
  8
0
 10
-13.8885
 20
81.8204
 11
-12.6785
 21
82.467
  0
LINE
  8
0
 10
-12.6785
 20
82.467
 11
-11.3654
 21
82.8656
  0
LINE
  8
0
 10
-11.3654
 20
82.8656
 11
-10
 21
83.0002
  0
LINE
  8
0
 10
-10
 20
83.0002
 11
-8.63434
 21
82.8656
  0
LINE
  8
0
 10
-8.63434
 20
82.8656
 11
-7.32117
 21
82.467
  0
LINE
  8
0
 10
-7.32117
 20
82.467
 11
-6.11115
 21
81.8204
  0
LINE
  8
0
 10
-6.11115
 20
81.8204
 11
-5.80017
 21
81.5649
  0
LINE
  8
0
 10
-5.80017
 20
81.5649
 11
-6.54968
 21
80.9497
  0
LINE
  8
0
 10
-6.54968
 20
80.9497
 11
-7.42004
 21
79.8889
  0
LINE
  8
0
 10
-7.42004
 20
79.8889
 11
-8.06732
 21
78.6789
  0
LINE
  8
0
 10
-8.06732
 20
78.6789
 11
-8.46527
 21
77.3657
  0
LINE
  8
0
 10
-8.46527
 20
77.3657
 11
-8.59985
 21
76.0001
  0
LINE
  8
0
 10
-8.59985
 20
76.0001
 11
-8.46527
 21
74.6347
  0
LINE
  8
0
 10
-8.46527
 20
74.6347
 11
-8.06732
 21
73.3215
  0
LINE
  8
0
 10
-8.06732
 20
73.3215
 11
-7.42004
 21
72.1112
  0
LINE
  8
0
 10
-7.42004
 20
72.1112
 11
-6.54968
 21
71.0504
  0
LINE
  8
0
 10
-6.54968
 20
71.0504
 11
-5.80017
 21
70.4352
  0
LINE
  8
0
 10
-5.80017
 20
70.4352
 11
-6.11115
 21
70.1801
  0
LINE
  8
0
 10
-6.11115
 20
70.1801
 11
-7.32117
 21
69.5331
  0
LINE
  8
0
 10
-7.32117
 20
69.5331
 11
-8.63434
 21
69.1348
  0
LINE
  8
0
 10
-8.63434
 20
69.1348
 11
-10
 21
69.0002
  0
LINE
  8
0
 10
-10
 20
69.0002
 11
-11.3654
 21
69.1348
  0
LINE
  8
0
 10
-35.3653
 20
69.1348
 11
-36.6785
 21
69.5331
  0
LINE
  8
0
 10
-36.6785
 20
69.5331
 11
-37.8885
 21
70.1801
  0
LINE
  8
0
 10
-37.8885
 20
70.1801
 11
-38.1998
 21
70.4352
  0
LINE
  8
0
 10
-38.1998
 20
70.4352
 11
-37.45
 21
71.0504
  0
LINE
  8
0
 10
-37.45
 20
71.0504
 11
-36.5796
 21
72.1112
  0
LINE
  8
0
 10
-36.5796
 20
72.1112
 11
-35.9326
 21
73.3215
  0
LINE
  8
0
 10
-35.9326
 20
73.3215
 11
-35.5344
 21
74.6347
  0
LINE
  8
0
 10
-35.5344
 20
74.6347
 11
-35.3998
 21
76.0001
  0
LINE
  8
0
 10
-35.3998
 20
76.0001
 11
-35.5344
 21
77.3657
  0
LINE
  8
0
 10
-35.5344
 20
77.3657
 11
-35.9326
 21
78.6789
  0
LINE
  8
0
 10
-35.9326
 20
78.6789
 11
-36.4834
 21
79.709
  0
LINE
  8
0
 10
-36.4834
 20
79.709
 11
-35.4679
 21
82.8345
  0
LINE
  8
0
 10
-35.4679
 20
82.8345
 11
-35.3653
 21
82.8656
  0
LINE
  8
0
 10
-35.3653
 20
82.8656
 11
-33.9999
 21
83.0002
  0
LINE
  8
0
 10
-33.9999
 20
83.0002
 11
-32.6343
 21
82.8656
  0
LINE
  8
0
 10
-32.6343
 20
82.8656
 11
-31.3211
 21
82.467
  0
LINE
  8
0
 10
-31.3211
 20
82.467
 11
-30.1111
 21
81.8204
  0
LINE
  8
0
 10
-30.1111
 20
81.8204
 11
-29.8001
 21
81.5649
  0
LINE
  8
0
 10
-29.8001
 20
81.5649
 11
-30.5496
 21
80.9497
  0
LINE
  8
0
 10
-30.5496
 20
80.9497
 11
-31.42
 21
79.8889
  0
LINE
  8
0
 10
-31.42
 20
79.8889
 11
-32.0673
 21
78.6789
  0
LINE
  8
0
 10
-32.0673
 20
78.6789
 11
-32.4655
 21
77.3657
  0
LINE
  8
0
 10
-32.4655
 20
77.3657
 11
-32.6001
 21
76.0001
  0
LINE
  8
0
 10
-32.6001
 20
76.0001
 11
-32.4655
 21
74.6347
  0
LINE
  8
0
 10
-32.4655
 20
74.6347
 11
-32.0673
 21
73.3215
  0
LINE
  8
0
 10
-32.0673
 20
73.3215
 11
-31.42
 21
72.1112
  0
LINE
  8
0
 10
-31.42
 20
72.1112
 11
-30.5496
 21
71.0504
  0
LINE
  8
0
 10
-30.5496
 20
71.0504
 11
-29.8001
 21
70.4352
  0
LINE
  8
0
 10
-29.8001
 20
70.4352
 11
-30.1111
 21
70.1801
  0
LINE
  8
0
 10
-30.1111
 20
70.1801
 11
-31.3211
 21
69.5331
  0
LINE
  8
0
 10
-31.3211
 20
69.5331
 11
-32.6343
 21
69.1348
  0
LINE
  8
0
 10
-32.6343
 20
69.1348
 11
-33.9999
 21
69.0002
  0
LINE
  8
0
 10
-33.9999
 20
69.0002
 11
-35.3653
 21
69.1348
  0
LINE
  8
0
 10
36.6345
 20
69.1348
 11
35.3214
 21
69.5331
  0
LINE
  8
0
 10
35.3214
 20
69.5331
 11
34.111
 21
70.1801
  0
LINE
  8
0
 10
34.111
 20
70.1801
 11
33.8
 21
70.4352
  0
LINE
  8
0
 10
33.8
 20
70.4352
 11
34.5496
 21
71.0504
  0
LINE
  8
0
 10
34.5496
 20
71.0504
 11
35.4202
 21
72.1112
  0
LINE
  8
0
 10
35.4202
 20
72.1112
 11
36.0672
 21
73.3215
  0
LINE
  8
0
 10
36.0672
 20
73.3215
 11
36.4655
 21
74.6347
  0
LINE
  8
0
 10
36.4655
 20
74.6347
 11
36.6
 21
76.0001
  0
LINE
  8
0
 10
36.6
 20
76.0001
 11
36.4655
 21
77.3657
  0
LINE
  8
0
 10
36.4655
 20
77.3657
 11
36.0672
 21
78.6789
  0
LINE
  8
0
 10
36.0672
 20
78.6789
 11
35.4202
 21
79.8889
  0
LINE
  8
0
 10
35.4202
 20
79.8889
 11
34.5496
 21
80.9497
  0
LINE
  8
0
 10
34.5496
 20
80.9497
 11
33.8
 21
81.5649
  0
LINE
  8
0
 10
33.8
 20
81.5649
 11
34.111
 21
81.8204
  0
LINE
  8
0
 10
34.111
 20
81.8204
 11
35.3214
 21
82.467
  0
LINE
  8
0
 10
35.3214
 20
82.467
 11
35.5634
 21
82.5405
  0
LINE
  8
0
 10
35.5634
 20
82.5405
 11
39.8695
 21
69.2878
  0
LINE
  8
0
 10
39.8695
 20
69.2878
 11
39.3652
 21
69.1348
  0
LINE
  8
0
 10
39.3652
 20
69.1348
 11
37.9999
 21
69.0002
  0
LINE
  8
0
 10
37.9999
 20
69.0002
 11
36.6345
 21
69.1348
  0
LINE
  8
0
 10
30.9494
 20
72.55
 11
29.8886
 21
73.4204
  0
LINE
  8
0
 10
29.8886
 20
73.4204
 11
28.6786
 21
74.0674
  0
LINE
  8
0
 10
28.6786
 20
74.0674
 11
27.3654
 21
74.4656
  0
LINE
  8
0
 10
27.3654
 20
74.4656
 11
25.9998
 21
74.6002
  0
LINE
  8
0
 10
25.9998
 20
74.6002
 11
24.6344
 21
74.4656
  0
LINE
  8
0
 10
24.6344
 20
74.4656
 11
23.3212
 21
74.0674
  0
LINE
  8
0
 10
23.3212
 20
74.0674
 11
22.1112
 21
73.4204
  0
LINE
  8
0
 10
22.1112
 20
73.4204
 11
21.0501
 21
72.55
  0
LINE
  8
0
 10
21.0501
 20
72.55
 11
20.4349
 21
71.8002
  0
LINE
  8
0
 10
20.4349
 20
71.8002
 11
20.1797
 21
72.1112
  0
LINE
  8
0
 10
20.1797
 20
72.1112
 11
19.5328
 21
73.3215
  0
LINE
  8
0
 10
19.5328
 20
73.3215
 11
19.1345
 21
74.6347
  0
LINE
  8
0
 10
19.1345
 20
74.6347
 11
18.9999
 21
76.0001
  0
LINE
  8
0
 10
18.9999
 20
76.0001
 11
19.1345
 21
77.3657
  0
LINE
  8
0
 10
19.1345
 20
77.3657
 11
19.5328
 21
78.6789
  0
LINE
  8
0
 10
19.5328
 20
78.6789
 11
20.1797
 21
79.8889
  0
LINE
  8
0
 10
20.1797
 20
79.8889
 11
20.4349
 21
80.1999
  0
LINE
  8
0
 10
20.4349
 20
80.1999
 11
21.0501
 21
79.4504
  0
LINE
  8
0
 10
21.0501
 20
79.4504
 11
22.1112
 21
78.5797
  0
LINE
  8
0
 10
22.1112
 20
78.5797
 11
23.3212
 21
77.9327
  0
LINE
  8
0
 10
23.3212
 20
77.9327
 11
24.6344
 21
77.5345
  0
LINE
  8
0
 10
24.6344
 20
77.5345
 11
25.9998
 21
77.3999
  0
LINE
  8
0
 10
25.9998
 20
77.3999
 11
27.3654
 21
77.5345
  0
LINE
  8
0
 10
27.3654
 20
77.5345
 11
28.6786
 21
77.9327
  0
LINE
  8
0
 10
28.6786
 20
77.9327
 11
29.8886
 21
78.5797
  0
LINE
  8
0
 10
29.8886
 20
78.5797
 11
30.9494
 21
79.4504
  0
LINE
  8
0
 10
30.9494
 20
79.4504
 11
31.5646
 21
80.1999
  0
LINE
  8
0
 10
31.5646
 20
80.1999
 11
31.8201
 21
79.8889
  0
LINE
  8
0
 10
31.8201
 20
79.8889
 11
32.4667
 21
78.6789
  0
LINE
  8
0
 10
32.4667
 20
78.6789
 11
32.8653
 21
77.3657
  0
LINE
  8
0
 10
32.8653
 20
77.3657
 11
32.9999
 21
76.0001
  0
LINE
  8
0
 10
32.9999
 20
76.0001
 11
32.8653
 21
74.6347
  0
LINE
  8
0
 10
32.8653
 20
74.6347
 11
32.4667
 21
73.3215
  0
LINE
  8
0
 10
32.4667
 20
73.3215
 11
31.8201
 21
72.1112
  0
LINE
  8
0
 10
31.8201
 20
72.1112
 11
31.5646
 21
71.8002
  0
LINE
  8
0
 10
31.5646
 20
71.8002
 11
30.9494
 21
72.55
  0
LINE
  8
0
 10
6.94946
 20
72.55
 11
5.88867
 21
73.4204
  0
LINE
  8
0
 10
5.88867
 20
73.4204
 11
4.67834
 21
74.0674
  0
LINE
  8
0
 10
4.67834
 20
74.0674
 11
3.36548
 21
74.4656
  0
LINE
  8
0
 10
3.36548
 20
74.4656
 11
1.99982
 21
74.6002
  0
LINE
  8
0
 10
1.99982
 20
74.6002
 11
0.63446
 21
74.4656
  0
LINE
  8
0
 10
0.63446
 20
74.4656
 11
-0.678406
 21
74.0674
  0
LINE
  8
0
 10
-0.678406
 20
74.0674
 11
-1.88873
 21
73.4204
  0
LINE
  8
0
 10
-1.88873
 20
73.4204
 11
-2.94952
 21
72.55
  0
LINE
  8
0
 10
-2.94952
 20
72.55
 11
-3.56476
 21
71.8002
  0
LINE
  8
0
 10
-3.56476
 20
71.8002
 11
-3.81989
 21
72.1112
  0
LINE
  8
0
 10
-3.81989
 20
72.1112
 11
-4.46686
 21
73.3215
  0
LINE
  8
0
 10
-4.46686
 20
73.3215
 11
-4.86511
 21
74.6347
  0
LINE
  8
0
 10
-4.86511
 20
74.6347
 11
-4.99969
 21
76.0001
  0
LINE
  8
0
 10
-4.99969
 20
76.0001
 11
-4.86511
 21
77.3657
  0
LINE
  8
0
 10
-4.86511
 20
77.3657
 11
-4.46686
 21
78.6789
  0
LINE
  8
0
 10
-4.46686
 20
78.6789
 11
-3.81989
 21
79.8889
  0
LINE
  8
0
 10
-3.81989
 20
79.8889
 11
-3.56476
 21
80.1999
  0
LINE
  8
0
 10
-3.56476
 20
80.1999
 11
-2.94952
 21
79.4504
  0
LINE
  8
0
 10
-2.94952
 20
79.4504
 11
-1.88873
 21
78.5797
  0
LINE
  8
0
 10
-1.88873
 20
78.5797
 11
-0.678406
 21
77.9327
  0
LINE
  8
0
 10
-0.678406
 20
77.9327
 11
0.63446
 21
77.5345
  0
LINE
  8
0
 10
0.63446
 20
77.5345
 11
1.99982
 21
77.3999
  0
LINE
  8
0
 10
1.99982
 20
77.3999
 11
3.36548
 21
77.5345
  0
LINE
  8
0
 10
3.36548
 20
77.5345
 11
4.67834
 21
77.9327
  0
LINE
  8
0
 10
4.67834
 20
77.9327
 11
5.88867
 21
78.5797
  0
LINE
  8
0
 10
5.88867
 20
78.5797
 11
6.94946
 21
79.4504
  0
LINE
  8
0
 10
6.94946
 20
79.4504
 11
7.5647
 21
80.1999
  0
LINE
  8
0
 10
7.5647
 20
80.1999
 11
7.82013
 21
79.8889
  0
LINE
  8
0
 10
7.82013
 20
79.8889
 11
8.4668
 21
78.6789
  0
LINE
  8
0
 10
8.4668
 20
78.6789
 11
8.86536
 21
77.3657
  0
LINE
  8
0
 10
8.86536
 20
77.3657
 11
8.99994
 21
76.0001
  0
LINE
  8
0
 10
8.99994
 20
76.0001
 11
8.86536
 21
74.6347
  0
LINE
  8
0
 10
8.86536
 20
74.6347
 11
8.4668
 21
73.3215
  0
LINE
  8
0
 10
8.4668
 20
73.3215
 11
7.82013
 21
72.1112
  0
LINE
  8
0
 10
7.82013
 20
72.1112
 11
7.5647
 21
71.8002
  0
LINE
  8
0
 10
7.5647
 20
71.8002
 11
6.94946
 21
72.55
  0
LINE
  8
0
 10
-17.0502
 20
72.55
 11
-18.111
 21
73.4204
  0
LINE
  8
0
 10
-18.111
 20
73.4204
 11
-19.3213
 21
74.0674
  0
LINE
  8
0
 10
-19.3213
 20
74.0674
 11
-20.6345
 21
74.4656
  0
LINE
  8
0
 10
-20.6345
 20
74.4656
 11
-21.9998
 21
74.6002
  0
LINE
  8
0
 10
-21.9998
 20
74.6002
 11
-23.3652
 21
74.4656
  0
LINE
  8
0
 10
-23.3652
 20
74.4656
 11
-24.6783
 21
74.0674
  0
LINE
  8
0
 10
-24.6783
 20
74.0674
 11
-25.8887
 21
73.4204
  0
LINE
  8
0
 10
-25.8887
 20
73.4204
 11
-26.9495
 21
72.55
  0
LINE
  8
0
 10
-26.9495
 20
72.55
 11
-27.5647
 21
71.8002
  0
LINE
  8
0
 10
-27.5647
 20
71.8002
 11
-27.8201
 21
72.1112
  0
LINE
  8
0
 10
-27.8201
 20
72.1112
 11
-28.4668
 21
73.3215
  0
LINE
  8
0
 10
-28.4668
 20
73.3215
 11
-28.8654
 21
74.6347
  0
LINE
  8
0
 10
-28.8654
 20
74.6347
 11
-28.9999
 21
76.0001
  0
LINE
  8
0
 10
-28.9999
 20
76.0001
 11
-28.8654
 21
77.3657
  0
LINE
  8
0
 10
-28.8654
 20
77.3657
 11
-28.4668
 21
78.6789
  0
LINE
  8
0
 10
-28.4668
 20
78.6789
 11
-27.8201
 21
79.8889
  0
LINE
  8
0
 10
-27.8201
 20
79.8889
 11
-27.5647
 21
80.1999
  0
LINE
  8
0
 10
-27.5647
 20
80.1999
 11
-26.9495
 21
79.4504
  0
LINE
  8
0
 10
-26.9495
 20
79.4504
 11
-25.8887
 21
78.5797
  0
LINE
  8
0
 10
-25.8887
 20
78.5797
 11
-24.6783
 21
77.9327
  0
LINE
  8
0
 10
-24.6783
 20
77.9327
 11
-23.3652
 21
77.5345
  0
LINE
  8
0
 10
-23.3652
 20
77.5345
 11
-21.9998
 21
77.3999
  0
LINE
  8
0
 10
-21.9998
 20
77.3999
 11
-20.6345
 21
77.5345
  0
LINE
  8
0
 10
-20.6345
 20
77.5345
 11
-19.3213
 21
77.9327
  0
LINE
  8
0
 10
-19.3213
 20
77.9327
 11
-18.111
 21
78.5797
  0
LINE
  8
0
 10
-18.111
 20
78.5797
 11
-17.0502
 21
79.4504
  0
LINE
  8
0
 10
-17.0502
 20
79.4504
 11
-16.4349
 21
80.1999
  0
LINE
  8
0
 10
-16.4349
 20
80.1999
 11
-16.1798
 21
79.8889
  0
LINE
  8
0
 10
-16.1798
 20
79.8889
 11
-15.5328
 21
78.6789
  0
LINE
  8
0
 10
-15.5328
 20
78.6789
 11
-15.1343
 21
77.3657
  0
LINE
  8
0
 10
-15.1343
 20
77.3657
 11
-14.9997
 21
76.0001
  0
LINE
  8
0
 10
-14.9997
 20
76.0001
 11
-15.1343
 21
74.6347
  0
LINE
  8
0
 10
-15.1343
 20
74.6347
 11
-15.5328
 21
73.3215
  0
LINE
  8
0
 10
-15.5328
 20
73.3215
 11
-16.1798
 21
72.1112
  0
LINE
  8
0
 10
-16.1798
 20
72.1112
 11
-16.4349
 21
71.8002
  0
LINE
  8
0
 10
-16.4349
 20
71.8002
 11
-17.0502
 21
72.55
  0
LINE
  8
0
 10
24.6344
 20
57.1347
 11
23.3212
 21
57.5333
  0
LINE
  8
0
 10
23.3212
 20
57.5333
 11
22.1112
 21
58.1799
  0
LINE
  8
0
 10
22.1112
 20
58.1799
 11
21.7999
 21
58.4354
  0
LINE
  8
0
 10
21.7999
 20
58.4354
 11
22.5497
 21
59.0506
  0
LINE
  8
0
 10
22.5497
 20
59.0506
 11
23.4201
 21
60.1114
  0
LINE
  8
0
 10
23.4201
 20
60.1114
 11
24.0671
 21
61.3214
  0
LINE
  8
0
 10
24.0671
 20
61.3214
 11
24.4653
 21
62.6346
  0
LINE
  8
0
 10
24.4653
 20
62.6346
 11
24.5999
 21
64.0002
  0
LINE
  8
0
 10
24.5999
 20
64.0002
 11
24.4653
 21
65.3656
  0
LINE
  8
0
 10
24.4653
 20
65.3656
 11
24.0671
 21
66.6788
  0
LINE
  8
0
 10
24.0671
 20
66.6788
 11
23.4201
 21
67.8891
  0
LINE
  8
0
 10
23.4201
 20
67.8891
 11
22.5497
 21
68.9499
  0
LINE
  8
0
 10
22.5497
 20
68.9499
 11
21.7999
 21
69.5651
  0
LINE
  8
0
 10
21.7999
 20
69.5651
 11
22.1112
 21
69.8203
  0
LINE
  8
0
 10
22.1112
 20
69.8203
 11
23.3212
 21
70.4672
  0
LINE
  8
0
 10
23.3212
 20
70.4672
 11
24.6344
 21
70.8655
  0
LINE
  8
0
 10
24.6344
 20
70.8655
 11
25.9998
 21
71.0001
  0
LINE
  8
0
 10
25.9998
 20
71.0001
 11
27.3654
 21
70.8655
  0
LINE
  8
0
 10
27.3654
 20
70.8655
 11
28.6786
 21
70.4672
  0
LINE
  8
0
 10
28.6786
 20
70.4672
 11
29.8886
 21
69.8203
  0
LINE
  8
0
 10
29.8886
 20
69.8203
 11
30.1996
 21
69.5651
  0
LINE
  8
0
 10
30.1996
 20
69.5651
 11
29.4501
 21
68.9499
  0
LINE
  8
0
 10
29.4501
 20
68.9499
 11
28.5797
 21
67.8891
  0
LINE
  8
0
 10
28.5797
 20
67.8891
 11
27.9324
 21
66.6788
  0
LINE
  8
0
 10
27.9324
 20
66.6788
 11
27.5342
 21
65.3656
  0
LINE
  8
0
 10
27.5342
 20
65.3656
 11
27.3996
 21
64.0002
  0
LINE
  8
0
 10
27.3996
 20
64.0002
 11
27.5342
 21
62.6346
  0
LINE
  8
0
 10
27.5342
 20
62.6346
 11
27.9324
 21
61.3214
  0
LINE
  8
0
 10
27.9324
 20
61.3214
 11
28.5797
 21
60.1114
  0
LINE
  8
0
 10
28.5797
 20
60.1114
 11
29.4501
 21
59.0506
  0
LINE
  8
0
 10
29.4501
 20
59.0506
 11
30.1996
 21
58.4354
  0
LINE
  8
0
 10
30.1996
 20
58.4354
 11
29.8886
 21
58.1799
  0
LINE
  8
0
 10
29.8886
 20
58.1799
 11
28.6786
 21
57.5333
  0
LINE
  8
0
 10
28.6786
 20
57.5333
 11
27.3654
 21
57.1347
  0
LINE
  8
0
 10
27.3654
 20
57.1347
 11
25.9998
 21
57.0001
  0
LINE
  8
0
 10
25.9998
 20
57.0001
 11
24.6344
 21
57.1347
  0
LINE
  8
0
 10
-23.3652
 20
57.1347
 11
-24.6783
 21
57.5333
  0
LINE
  8
0
 10
-24.6783
 20
57.5333
 11
-25.8887
 21
58.1799
  0
LINE
  8
0
 10
-25.8887
 20
58.1799
 11
-26.1996
 21
58.4354
  0
LINE
  8
0
 10
-26.1996
 20
58.4354
 11
-25.4501
 21
59.0506
  0
LINE
  8
0
 10
-25.4501
 20
59.0506
 11
-24.5795
 21
60.1114
  0
LINE
  8
0
 10
-24.5795
 20
60.1114
 11
-23.9325
 21
61.3214
  0
LINE
  8
0
 10
-23.9325
 20
61.3214
 11
-23.5342
 21
62.6346
  0
LINE
  8
0
 10
-23.5342
 20
62.6346
 11
-23.3997
 21
64.0002
  0
LINE
  8
0
 10
-23.3997
 20
64.0002
 11
-23.5342
 21
65.3656
  0
LINE
  8
0
 10
-23.5342
 20
65.3656
 11
-23.9325
 21
66.6788
  0
LINE
  8
0
 10
-23.9325
 20
66.6788
 11
-24.5795
 21
67.8891
  0
LINE
  8
0
 10
-24.5795
 20
67.8891
 11
-25.4501
 21
68.9499
  0
LINE
  8
0
 10
-25.4501
 20
68.9499
 11
-26.1996
 21
69.5651
  0
LINE
  8
0
 10
-26.1996
 20
69.5651
 11
-25.8887
 21
69.8203
  0
LINE
  8
0
 10
-25.8887
 20
69.8203
 11
-24.6783
 21
70.4672
  0
LINE
  8
0
 10
-24.6783
 20
70.4672
 11
-23.3652
 21
70.8655
  0
LINE
  8
0
 10
-23.3652
 20
70.8655
 11
-21.9998
 21
71.0001
  0
LINE
  8
0
 10
-21.9998
 20
71.0001
 11
-20.6345
 21
70.8655
  0
LINE
  8
0
 10
-20.6345
 20
70.8655
 11
-19.3213
 21
70.4672
  0
LINE
  8
0
 10
-19.3213
 20
70.4672
 11
-18.111
 21
69.8203
  0
LINE
  8
0
 10
-18.111
 20
69.8203
 11
-17.8
 21
69.5651
  0
LINE
  8
0
 10
-17.8
 20
69.5651
 11
-18.5495
 21
68.9499
  0
LINE
  8
0
 10
-18.5495
 20
68.9499
 11
-19.4202
 21
67.8891
  0
LINE
  8
0
 10
-19.4202
 20
67.8891
 11
-20.0671
 21
66.6788
  0
LINE
  8
0
 10
-20.0671
 20
66.6788
 11
-20.4654
 21
65.3656
  0
LINE
  8
0
 10
-20.4654
 20
65.3656
 11
-20.6
 21
64.0002
  0
LINE
  8
0
 10
-20.6
 20
64.0002
 11
-20.4654
 21
62.6346
  0
LINE
  8
0
 10
-20.4654
 20
62.6346
 11
-20.0671
 21
61.3214
  0
LINE
  8
0
 10
-20.0671
 20
61.3214
 11
-19.4202
 21
60.1114
  0
LINE
  8
0
 10
-19.4202
 20
60.1114
 11
-18.5495
 21
59.0506
  0
LINE
  8
0
 10
-18.5495
 20
59.0506
 11
-17.8
 21
58.4354
  0
LINE
  8
0
 10
-17.8
 20
58.4354
 11
-18.111
 21
58.1799
  0
LINE
  8
0
 10
-18.111
 20
58.1799
 11
-19.3213
 21
57.5333
  0
LINE
  8
0
 10
-19.3213
 20
57.5333
 11
-20.6345
 21
57.1347
  0
LINE
  8
0
 10
-20.6345
 20
57.1347
 11
-21.9998
 21
57.0001
  0
LINE
  8
0
 10
-21.9998
 20
57.0001
 11
-23.3652
 21
57.1347
  0
LINE
  8
0
 10
0.63446
 20
57.1347
 11
-0.678406
 21
57.5333
  0
LINE
  8
0
 10
-0.678406
 20
57.5333
 11
-1.88873
 21
58.1799
  0
LINE
  8
0
 10
-1.88873
 20
58.1799
 11
-2.19971
 21
58.4354
  0
LINE
  8
0
 10
-2.19971
 20
58.4354
 11
-1.4502
 21
59.0506
  0
LINE
  8
0
 10
-1.4502
 20
59.0506
 11
-0.579529
 21
60.1114
  0
LINE
  8
0
 10
-0.579529
 20
60.1114
 11
0.0671387
 21
61.3214
  0
LINE
  8
0
 10
0.0671387
 20
61.3214
 11
0.465393
 21
62.6346
  0
LINE
  8
0
 10
0.465393
 20
62.6346
 11
0.599976
 21
64.0002
  0
LINE
  8
0
 10
0.599976
 20
64.0002
 11
0.465393
 21
65.3656
  0
LINE
  8
0
 10
0.465393
 20
65.3656
 11
0.0671387
 21
66.6788
  0
LINE
  8
0
 10
0.0671387
 20
66.6788
 11
-0.579529
 21
67.8891
  0
LINE
  8
0
 10
-0.579529
 20
67.8891
 11
-1.4502
 21
68.9499
  0
LINE
  8
0
 10
-1.4502
 20
68.9499
 11
-2.19971
 21
69.5651
  0
LINE
  8
0
 10
-2.19971
 20
69.5651
 11
-1.88873
 21
69.8203
  0
LINE
  8
0
 10
-1.88873
 20
69.8203
 11
-0.678406
 21
70.4672
  0
LINE
  8
0
 10
-0.678406
 20
70.4672
 11
0.63446
 21
70.8655
  0
LINE
  8
0
 10
0.63446
 20
70.8655
 11
1.99982
 21
71.0001
  0
LINE
  8
0
 10
1.99982
 20
71.0001
 11
3.36548
 21
70.8655
  0
LINE
  8
0
 10
3.36548
 20
70.8655
 11
4.67834
 21
70.4672
  0
LINE
  8
0
 10
4.67834
 20
70.4672
 11
5.88867
 21
69.8203
  0
LINE
  8
0
 10
5.88867
 20
69.8203
 11
6.19965
 21
69.5651
  0
LINE
  8
0
 10
6.19965
 20
69.5651
 11
5.45013
 21
68.9499
  0
LINE
  8
0
 10
5.45013
 20
68.9499
 11
4.57947
 21
67.8891
  0
LINE
  8
0
 10
4.57947
 20
67.8891
 11
3.9325
 21
66.6788
  0
LINE
  8
0
 10
3.9325
 20
66.6788
 11
3.53424
 21
65.3656
  0
LINE
  8
0
 10
3.53424
 20
65.3656
 11
3.39966
 21
64.0002
  0
LINE
  8
0
 10
3.39966
 20
64.0002
 11
3.53424
 21
62.6346
  0
LINE
  8
0
 10
3.53424
 20
62.6346
 11
3.9325
 21
61.3214
  0
LINE
  8
0
 10
3.9325
 20
61.3214
 11
4.57947
 21
60.1114
  0
LINE
  8
0
 10
4.57947
 20
60.1114
 11
5.45013
 21
59.0506
  0
LINE
  8
0
 10
5.45013
 20
59.0506
 11
6.19965
 21
58.4354
  0
LINE
  8
0
 10
6.19965
 20
58.4354
 11
5.88867
 21
58.1799
  0
LINE
  8
0
 10
5.88867
 20
58.1799
 11
4.67834
 21
57.5333
  0
LINE
  8
0
 10
4.67834
 20
57.5333
 11
3.36548
 21
57.1347
  0
LINE
  8
0
 10
3.36548
 20
57.1347
 11
1.99982
 21
57.0001
  0
LINE
  8
0
 10
1.99982
 20
57.0001
 11
0.63446
 21
57.1347
  0
LINE
  8
0
 10
32.1796
 20
60.1114
 11
31.5329
 21
61.3214
  0
LINE
  8
0
 10
31.5329
 20
61.3214
 11
31.1343
 21
62.6346
  0
LINE
  8
0
 10
31.1343
 20
62.6346
 11
30.9998
 21
64.0002
  0
LINE
  8
0
 10
30.9998
 20
64.0002
 11
31.1343
 21
65.3656
  0
LINE
  8
0
 10
31.1343
 20
65.3656
 11
31.5329
 21
66.6788
  0
LINE
  8
0
 10
31.5329
 20
66.6788
 11
32.1796
 21
67.8891
  0
LINE
  8
0
 10
32.1796
 20
67.8891
 11
32.435
 21
68.2001
  0
LINE
  8
0
 10
32.435
 20
68.2001
 11
33.0502
 21
67.4503
  0
LINE
  8
0
 10
33.0502
 20
67.4503
 11
34.111
 21
66.5799
  0
LINE
  8
0
 10
34.111
 20
66.5799
 11
35.3214
 21
65.9329
  0
LINE
  8
0
 10
35.3214
 20
65.9329
 11
36.6345
 21
65.5347
  0
LINE
  8
0
 10
36.6345
 20
65.5347
 11
37.9999
 21
65.4001
  0
LINE
  8
0
 10
37.9999
 20
65.4001
 11
39.3652
 21
65.5347
  0
LINE
  8
0
 10
39.3652
 20
65.5347
 11
40.6784
 21
65.9329
  0
LINE
  8
0
 10
40.6784
 20
65.9329
 11
40.9179
 21
66.061
  0
LINE
  8
0
 10
40.9179
 20
66.061
 11
42.621
 21
60.8196
  0
LINE
  8
0
 10
42.621
 20
60.8196
 11
41.8887
 21
61.4206
  0
LINE
  8
0
 10
41.8887
 20
61.4206
 11
40.6784
 21
62.0676
  0
LINE
  8
0
 10
40.6784
 20
62.0676
 11
39.3652
 21
62.4658
  0
LINE
  8
0
 10
39.3652
 20
62.4658
 11
37.9999
 21
62.6004
  0
LINE
  8
0
 10
37.9999
 20
62.6004
 11
36.6345
 21
62.4658
  0
LINE
  8
0
 10
36.6345
 20
62.4658
 11
35.3214
 21
62.0676
  0
LINE
  8
0
 10
35.3214
 20
62.0676
 11
34.111
 21
61.4206
  0
LINE
  8
0
 10
34.111
 20
61.4206
 11
33.0502
 21
60.5499
  0
LINE
  8
0
 10
33.0502
 20
60.5499
 11
32.435
 21
59.8004
  0
LINE
  8
0
 10
32.435
 20
59.8004
 11
32.1796
 21
60.1114
  0
LINE
  8
0
 10
-5.05035
 20
60.5499
 11
-6.11115
 21
61.4206
  0
LINE
  8
0
 10
-6.11115
 20
61.4206
 11
-7.32117
 21
62.0676
  0
LINE
  8
0
 10
-7.32117
 20
62.0676
 11
-8.63434
 21
62.4658
  0
LINE
  8
0
 10
-8.63434
 20
62.4658
 11
-10
 21
62.6004
  0
LINE
  8
0
 10
-10
 20
62.6004
 11
-11.3654
 21
62.4658
  0
LINE
  8
0
 10
-11.3654
 20
62.4658
 11
-12.6785
 21
62.0676
  0
LINE
  8
0
 10
-12.6785
 20
62.0676
 11
-13.8885
 21
61.4206
  0
LINE
  8
0
 10
-13.8885
 20
61.4206
 11
-14.9496
 21
60.5499
  0
LINE
  8
0
 10
-14.9496
 20
60.5499
 11
-15.5649
 21
59.8004
  0
LINE
  8
0
 10
-15.5649
 20
59.8004
 11
-15.82
 21
60.1114
  0
LINE
  8
0
 10
-15.82
 20
60.1114
 11
-16.467
 21
61.3214
  0
LINE
  8
0
 10
-16.467
 20
61.3214
 11
-16.8652
 21
62.6346
  0
LINE
  8
0
 10
-16.8652
 20
62.6346
 11
-16.9998
 21
64.0002
  0
LINE
  8
0
 10
-16.9998
 20
64.0002
 11
-16.8652
 21
65.3656
  0
LINE
  8
0
 10
-16.8652
 20
65.3656
 11
-16.467
 21
66.6788
  0
LINE
  8
0
 10
-16.467
 20
66.6788
 11
-15.82
 21
67.8891
  0
LINE
  8
0
 10
-15.82
 20
67.8891
 11
-15.5649
 21
68.2001
  0
LINE
  8
0
 10
-15.5649
 20
68.2001
 11
-14.9496
 21
67.4503
  0
LINE
  8
0
 10
-14.9496
 20
67.4503
 11
-13.8885
 21
66.5799
  0
LINE
  8
0
 10
-13.8885
 20
66.5799
 11
-12.6785
 21
65.9329
  0
LINE
  8
0
 10
-12.6785
 20
65.9329
 11
-11.3654
 21
65.5347
  0
LINE
  8
0
 10
-11.3654
 20
65.5347
 11
-10
 21
65.4001
  0
LINE
  8
0
 10
-10
 20
65.4001
 11
-8.63434
 21
65.5347
  0
LINE
  8
0
 10
-8.63434
 20
65.5347
 11
-7.32117
 21
65.9329
  0
LINE
  8
0
 10
-7.32117
 20
65.9329
 11
-6.11115
 21
66.5799
  0
LINE
  8
0
 10
-6.11115
 20
66.5799
 11
-5.05035
 21
67.4503
  0
LINE
  8
0
 10
-5.05035
 20
67.4503
 11
-4.43512
 21
68.2001
  0
LINE
  8
0
 10
-4.43512
 20
68.2001
 11
-4.17969
 21
67.8891
  0
LINE
  8
0
 10
-4.17969
 20
67.8891
 11
-3.53271
 21
66.6788
  0
LINE
  8
0
 10
-3.53271
 20
66.6788
 11
-3.13446
 21
65.3656
  0
LINE
  8
0
 10
-3.13446
 20
65.3656
 11
-2.99988
 21
64.0002
  0
LINE
  8
0
 10
-2.99988
 20
64.0002
 11
-3.13446
 21
62.6346
  0
LINE
  8
0
 10
-3.13446
 20
62.6346
 11
-3.53271
 21
61.3214
  0
LINE
  8
0
 10
-3.53271
 20
61.3214
 11
-4.17969
 21
60.1114
  0
LINE
  8
0
 10
-4.17969
 20
60.1114
 11
-4.43512
 21
59.8004
  0
LINE
  8
0
 10
-4.43512
 20
59.8004
 11
-5.05035
 21
60.5499
  0
LINE
  8
0
 10
-29.0503
 20
60.5499
 11
-30.1111
 21
61.4206
  0
LINE
  8
0
 10
-30.1111
 20
61.4206
 11
-31.3211
 21
62.0676
  0
LINE
  8
0
 10
-31.3211
 20
62.0676
 11
-32.6343
 21
62.4658
  0
LINE
  8
0
 10
-32.6343
 20
62.4658
 11
-33.9999
 21
62.6004
  0
LINE
  8
0
 10
-33.9999
 20
62.6004
 11
-35.3653
 21
62.4658
  0
LINE
  8
0
 10
-35.3653
 20
62.4658
 11
-36.6785
 21
62.0676
  0
LINE
  8
0
 10
-36.6785
 20
62.0676
 11
-37.8885
 21
61.4206
  0
LINE
  8
0
 10
-37.8885
 20
61.4206
 11
-38.9496
 21
60.5499
  0
LINE
  8
0
 10
-38.9496
 20
60.5499
 11
-39.5648
 21
59.8004
  0
LINE
  8
0
 10
-39.5648
 20
59.8004
 11
-39.8199
 21
60.1114
  0
LINE
  8
0
 10
-39.8199
 20
60.1114
 11
-40.4669
 21
61.3214
  0
LINE
  8
0
 10
-40.4669
 20
61.3214
 11
-40.8652
 21
62.6346
  0
LINE
  8
0
 10
-40.8652
 20
62.6346
 11
-40.9998
 21
64.0002
  0
LINE
  8
0
 10
-40.9998
 20
64.0002
 11
-40.8652
 21
65.3656
  0
LINE
  8
0
 10
-40.8652
 20
65.3656
 11
-40.4669
 21
66.6788
  0
LINE
  8
0
 10
-40.4669
 20
66.6788
 11
-39.8199
 21
67.8891
  0
LINE
  8
0
 10
-39.8199
 20
67.8891
 11
-39.5648
 21
68.2001
  0
LINE
  8
0
 10
-39.5648
 20
68.2001
 11
-38.9496
 21
67.4503
  0
LINE
  8
0
 10
-38.9496
 20
67.4503
 11
-37.8885
 21
66.5799
  0
LINE
  8
0
 10
-37.8885
 20
66.5799
 11
-36.6785
 21
65.9329
  0
LINE
  8
0
 10
-36.6785
 20
65.9329
 11
-35.3653
 21
65.5347
  0
LINE
  8
0
 10
-35.3653
 20
65.5347
 11
-33.9999
 21
65.4001
  0
LINE
  8
0
 10
-33.9999
 20
65.4001
 11
-32.6343
 21
65.5347
  0
LINE
  8
0
 10
-32.6343
 20
65.5347
 11
-31.3211
 21
65.9329
  0
LINE
  8
0
 10
-31.3211
 20
65.9329
 11
-30.1111
 21
66.5799
  0
LINE
  8
0
 10
-30.1111
 20
66.5799
 11
-29.0503
 21
67.4503
  0
LINE
  8
0
 10
-29.0503
 20
67.4503
 11
-28.4351
 21
68.2001
  0
LINE
  8
0
 10
-28.4351
 20
68.2001
 11
-28.1796
 21
67.8891
  0
LINE
  8
0
 10
-28.1796
 20
67.8891
 11
-27.533
 21
66.6788
  0
LINE
  8
0
 10
-27.533
 20
66.6788
 11
-27.1344
 21
65.3656
  0
LINE
  8
0
 10
-27.1344
 20
65.3656
 11
-26.9998
 21
64.0002
  0
LINE
  8
0
 10
-26.9998
 20
64.0002
 11
-27.1344
 21
62.6346
  0
LINE
  8
0
 10
-27.1344
 20
62.6346
 11
-27.533
 21
61.3214
  0
LINE
  8
0
 10
-27.533
 20
61.3214
 11
-28.1796
 21
60.1114
  0
LINE
  8
0
 10
-28.1796
 20
60.1114
 11
-28.4351
 21
59.8004
  0
LINE
  8
0
 10
-28.4351
 20
59.8004
 11
-29.0503
 21
60.5499
  0
LINE
  8
0
 10
18.9496
 20
60.5499
 11
17.8888
 21
61.4206
  0
LINE
  8
0
 10
17.8888
 20
61.4206
 11
16.6785
 21
62.0676
  0
LINE
  8
0
 10
16.6785
 20
62.0676
 11
15.3653
 21
62.4658
  0
LINE
  8
0
 10
15.3653
 20
62.4658
 11
13.9999
 21
62.6004
  0
LINE
  8
0
 10
13.9999
 20
62.6004
 11
12.6343
 21
62.4658
  0
LINE
  8
0
 10
12.6343
 20
62.4658
 11
11.3211
 21
62.0676
  0
LINE
  8
0
 10
11.3211
 20
62.0676
 11
10.1111
 21
61.4206
  0
LINE
  8
0
 10
10.1111
 20
61.4206
 11
9.05029
 21
60.5499
  0
LINE
  8
0
 10
9.05029
 20
60.5499
 11
8.43506
 21
59.8004
  0
LINE
  8
0
 10
8.43506
 20
59.8004
 11
8.17963
 21
60.1114
  0
LINE
  8
0
 10
8.17963
 20
60.1114
 11
7.53296
 21
61.3214
  0
LINE
  8
0
 10
7.53296
 20
61.3214
 11
7.1344
 21
62.6346
  0
LINE
  8
0
 10
7.1344
 20
62.6346
 11
6.99982
 21
64.0002
  0
LINE
  8
0
 10
6.99982
 20
64.0002
 11
7.1344
 21
65.3656
  0
LINE
  8
0
 10
7.1344
 20
65.3656
 11
7.53296
 21
66.6788
  0
LINE
  8
0
 10
7.53296
 20
66.6788
 11
8.17963
 21
67.8891
  0
LINE
  8
0
 10
8.17963
 20
67.8891
 11
8.43506
 21
68.2001
  0
LINE
  8
0
 10
8.43506
 20
68.2001
 11
9.05029
 21
67.4503
  0
LINE
  8
0
 10
9.05029
 20
67.4503
 11
10.1111
 21
66.5799
  0
LINE
  8
0
 10
10.1111
 20
66.5799
 11
11.3211
 21
65.9329
  0
LINE
  8
0
 10
11.3211
 20
65.9329
 11
12.6343
 21
65.5347
  0
LINE
  8
0
 10
12.6343
 20
65.5347
 11
13.9999
 21
65.4001
  0
LINE
  8
0
 10
13.9999
 20
65.4001
 11
15.3653
 21
65.5347
  0
LINE
  8
0
 10
15.3653
 20
65.5347
 11
16.6785
 21
65.9329
  0
LINE
  8
0
 10
16.6785
 20
65.9329
 11
17.8888
 21
66.5799
  0
LINE
  8
0
 10
17.8888
 20
66.5799
 11
18.9496
 21
67.4503
  0
LINE
  8
0
 10
18.9496
 20
67.4503
 11
19.5648
 21
68.2001
  0
LINE
  8
0
 10
19.5648
 20
68.2001
 11
19.8199
 21
67.8891
  0
LINE
  8
0
 10
19.8199
 20
67.8891
 11
20.4669
 21
66.6788
  0
LINE
  8
0
 10
20.4669
 20
66.6788
 11
20.8652
 21
65.3656
  0
LINE
  8
0
 10
20.8652
 20
65.3656
 11
20.9998
 21
64.0002
  0
LINE
  8
0
 10
20.9998
 20
64.0002
 11
20.8652
 21
62.6346
  0
LINE
  8
0
 10
20.8652
 20
62.6346
 11
20.4669
 21
61.3214
  0
LINE
  8
0
 10
20.4669
 20
61.3214
 11
19.8199
 21
60.1114
  0
LINE
  8
0
 10
19.8199
 20
60.1114
 11
19.5648
 21
59.8004
  0
LINE
  8
0
 10
19.5648
 20
59.8004
 11
18.9496
 21
60.5499
  0
LINE
  8
0
 10
-43.0125
 20
59.6146
 11
-42.5497
 21
59.0506
  0
LINE
  8
0
 10
-42.5497
 20
59.0506
 11
-41.7999
 21
58.4354
  0
LINE
  8
0
 10
-41.7999
 20
58.4354
 11
-42.1112
 21
58.1799
  0
LINE
  8
0
 10
-42.1112
 20
58.1799
 11
-43.3212
 21
57.5333
  0
LINE
  8
0
 10
-43.3212
 20
57.5333
 11
-43.729
 21
57.4095
  0
LINE
  8
0
 10
-43.729
 20
57.4095
 11
-43.0125
 21
59.6146
  0
LINE
  8
0
 10
36.6345
 20
45.1346
 11
35.3214
 21
45.5331
  0
LINE
  8
0
 10
35.3214
 20
45.5331
 11
34.111
 21
46.1801
  0
LINE
  8
0
 10
34.111
 20
46.1801
 11
33.8
 21
46.4352
  0
LINE
  8
0
 10
33.8
 20
46.4352
 11
34.5496
 21
47.0505
  0
LINE
  8
0
 10
34.5496
 20
47.0505
 11
35.4202
 21
48.1113
  0
LINE
  8
0
 10
35.4202
 20
48.1113
 11
36.0672
 21
49.3216
  0
LINE
  8
0
 10
36.0672
 20
49.3216
 11
36.4655
 21
50.6348
  0
LINE
  8
0
 10
36.4655
 20
50.6348
 11
36.6
 21
52.0001
  0
LINE
  8
0
 10
36.6
 20
52.0001
 11
36.4655
 21
53.3655
  0
LINE
  8
0
 10
36.4655
 20
53.3655
 11
36.0672
 21
54.6786
  0
LINE
  8
0
 10
36.0672
 20
54.6786
 11
35.4202
 21
55.889
  0
LINE
  8
0
 10
35.4202
 20
55.889
 11
34.5496
 21
56.9498
  0
LINE
  8
0
 10
34.5496
 20
56.9498
 11
33.8
 21
57.565
  0
LINE
  8
0
 10
33.8
 20
57.565
 11
34.111
 21
57.8204
  0
LINE
  8
0
 10
34.111
 20
57.8204
 11
35.3214
 21
58.4671
  0
LINE
  8
0
 10
35.3214
 20
58.4671
 11
36.6345
 21
58.8657
  0
LINE
  8
0
 10
36.6345
 20
58.8657
 11
37.9999
 21
59.0002
  0
LINE
  8
0
 10
37.9999
 20
59.0002
 11
39.3652
 21
58.8657
  0
LINE
  8
0
 10
39.3652
 20
58.8657
 11
40.6784
 21
58.4671
  0
LINE
  8
0
 10
40.6784
 20
58.4671
 11
41.8887
 21
57.8204
  0
LINE
  8
0
 10
41.8887
 20
57.8204
 11
42.1997
 21
57.565
  0
LINE
  8
0
 10
42.1997
 20
57.565
 11
41.4502
 21
56.9498
  0
LINE
  8
0
 10
41.4502
 20
56.9498
 11
40.5795
 21
55.889
  0
LINE
  8
0
 10
40.5795
 20
55.889
 11
39.9326
 21
54.6786
  0
LINE
  8
0
 10
39.9326
 20
54.6786
 11
39.5343
 21
53.3655
  0
LINE
  8
0
 10
39.5343
 20
53.3655
 11
39.3997
 21
52.0001
  0
LINE
  8
0
 10
39.3997
 20
52.0001
 11
39.5343
 21
50.6348
  0
LINE
  8
0
 10
39.5343
 20
50.6348
 11
39.9326
 21
49.3216
  0
LINE
  8
0
 10
39.9326
 20
49.3216
 11
40.5795
 21
48.1113
  0
LINE
  8
0
 10
40.5795
 20
48.1113
 11
41.4502
 21
47.0505
  0
LINE
  8
0
 10
41.4502
 20
47.0505
 11
42.1997
 21
46.4352
  0
LINE
  8
0
 10
42.1997
 20
46.4352
 11
41.8887
 21
46.1801
  0
LINE
  8
0
 10
41.8887
 20
46.1801
 11
40.6784
 21
45.5331
  0
LINE
  8
0
 10
40.6784
 20
45.5331
 11
39.3652
 21
45.1346
  0
LINE
  8
0
 10
39.3652
 20
45.1346
 11
37.9999
 21
45
  0
LINE
  8
0
 10
37.9999
 20
45
 11
36.6345
 21
45.1346
  0
LINE
  8
0
 10
-35.3653
 20
45.1346
 11
-36.6785
 21
45.5331
  0
LINE
  8
0
 10
-36.6785
 20
45.5331
 11
-37.8885
 21
46.1801
  0
LINE
  8
0
 10
-37.8885
 20
46.1801
 11
-38.1998
 21
46.4352
  0
LINE
  8
0
 10
-38.1998
 20
46.4352
 11
-37.45
 21
47.0505
  0
LINE
  8
0
 10
-37.45
 20
47.0505
 11
-36.5796
 21
48.1113
  0
LINE
  8
0
 10
-36.5796
 20
48.1113
 11
-35.9326
 21
49.3216
  0
LINE
  8
0
 10
-35.9326
 20
49.3216
 11
-35.5344
 21
50.6348
  0
LINE
  8
0
 10
-35.5344
 20
50.6348
 11
-35.3998
 21
52.0001
  0
LINE
  8
0
 10
-35.3998
 20
52.0001
 11
-35.5344
 21
53.3655
  0
LINE
  8
0
 10
-35.5344
 20
53.3655
 11
-35.9326
 21
54.6786
  0
LINE
  8
0
 10
-35.9326
 20
54.6786
 11
-36.5796
 21
55.889
  0
LINE
  8
0
 10
-36.5796
 20
55.889
 11
-37.45
 21
56.9498
  0
LINE
  8
0
 10
-37.45
 20
56.9498
 11
-38.1998
 21
57.565
  0
LINE
  8
0
 10
-38.1998
 20
57.565
 11
-37.8885
 21
57.8204
  0
LINE
  8
0
 10
-37.8885
 20
57.8204
 11
-36.6785
 21
58.4671
  0
LINE
  8
0
 10
-36.6785
 20
58.4671
 11
-35.3653
 21
58.8657
  0
LINE
  8
0
 10
-35.3653
 20
58.8657
 11
-33.9999
 21
59.0002
  0
LINE
  8
0
 10
-33.9999
 20
59.0002
 11
-32.6343
 21
58.8657
  0
LINE
  8
0
 10
-32.6343
 20
58.8657
 11
-31.3211
 21
58.4671
  0
LINE
  8
0
 10
-31.3211
 20
58.4671
 11
-30.1111
 21
57.8204
  0
LINE
  8
0
 10
-30.1111
 20
57.8204
 11
-29.8001
 21
57.565
  0
LINE
  8
0
 10
-29.8001
 20
57.565
 11
-30.5496
 21
56.9498
  0
LINE
  8
0
 10
-30.5496
 20
56.9498
 11
-31.42
 21
55.889
  0
LINE
  8
0
 10
-31.42
 20
55.889
 11
-32.0673
 21
54.6786
  0
LINE
  8
0
 10
-32.0673
 20
54.6786
 11
-32.4655
 21
53.3655
  0
LINE
  8
0
 10
-32.4655
 20
53.3655
 11
-32.6001
 21
52.0001
  0
LINE
  8
0
 10
-32.6001
 20
52.0001
 11
-32.4655
 21
50.6348
  0
LINE
  8
0
 10
-32.4655
 20
50.6348
 11
-32.0673
 21
49.3216
  0
LINE
  8
0
 10
-32.0673
 20
49.3216
 11
-31.42
 21
48.1113
  0
LINE
  8
0
 10
-31.42
 20
48.1113
 11
-30.5496
 21
47.0505
  0
LINE
  8
0
 10
-30.5496
 20
47.0505
 11
-29.8001
 21
46.4352
  0
LINE
  8
0
 10
-29.8001
 20
46.4352
 11
-30.1111
 21
46.1801
  0
LINE
  8
0
 10
-30.1111
 20
46.1801
 11
-31.3211
 21
45.5331
  0
LINE
  8
0
 10
-31.3211
 20
45.5331
 11
-32.6343
 21
45.1346
  0
LINE
  8
0
 10
-32.6343
 20
45.1346
 11
-33.9999
 21
45
  0
LINE
  8
0
 10
-33.9999
 20
45
 11
-35.3653
 21
45.1346
  0
LINE
  8
0
 10
12.6343
 20
45.1346
 11
11.3211
 21
45.5331
  0
LINE
  8
0
 10
11.3211
 20
45.5331
 11
10.1111
 21
46.1801
  0
LINE
  8
0
 10
10.1111
 20
46.1801
 11
9.80011
 21
46.4352
  0
LINE
  8
0
 10
9.80011
 20
46.4352
 11
10.5496
 21
47.0505
  0
LINE
  8
0
 10
10.5496
 20
47.0505
 11
11.4203
 21
48.1113
  0
LINE
  8
0
 10
11.4203
 20
48.1113
 11
12.0673
 21
49.3216
  0
LINE
  8
0
 10
12.0673
 20
49.3216
 11
12.4655
 21
50.6348
  0
LINE
  8
0
 10
12.4655
 20
50.6348
 11
12.6001
 21
52.0001
  0
LINE
  8
0
 10
12.6001
 20
52.0001
 11
12.4655
 21
53.3655
  0
LINE
  8
0
 10
12.4655
 20
53.3655
 11
12.0673
 21
54.6786
  0
LINE
  8
0
 10
12.0673
 20
54.6786
 11
11.4203
 21
55.889
  0
LINE
  8
0
 10
11.4203
 20
55.889
 11
10.5496
 21
56.9498
  0
LINE
  8
0
 10
10.5496
 20
56.9498
 11
9.80011
 21
57.565
  0
LINE
  8
0
 10
9.80011
 20
57.565
 11
10.1111
 21
57.8204
  0
LINE
  8
0
 10
10.1111
 20
57.8204
 11
11.3211
 21
58.4671
  0
LINE
  8
0
 10
11.3211
 20
58.4671
 11
12.6343
 21
58.8657
  0
LINE
  8
0
 10
12.6343
 20
58.8657
 11
13.9999
 21
59.0002
  0
LINE
  8
0
 10
13.9999
 20
59.0002
 11
15.3653
 21
58.8657
  0
LINE
  8
0
 10
15.3653
 20
58.8657
 11
16.6785
 21
58.4671
  0
LINE
  8
0
 10
16.6785
 20
58.4671
 11
17.8888
 21
57.8204
  0
LINE
  8
0
 10
17.8888
 20
57.8204
 11
18.1998
 21
57.565
  0
LINE
  8
0
 10
18.1998
 20
57.565
 11
17.45
 21
56.9498
  0
LINE
  8
0
 10
17.45
 20
56.9498
 11
16.5796
 21
55.889
  0
LINE
  8
0
 10
16.5796
 20
55.889
 11
15.9326
 21
54.6786
  0
LINE
  8
0
 10
15.9326
 20
54.6786
 11
15.5344
 21
53.3655
  0
LINE
  8
0
 10
15.5344
 20
53.3655
 11
15.3998
 21
52.0001
  0
LINE
  8
0
 10
15.3998
 20
52.0001
 11
15.5344
 21
50.6348
  0
LINE
  8
0
 10
15.5344
 20
50.6348
 11
15.9326
 21
49.3216
  0
LINE
  8
0
 10
15.9326
 20
49.3216
 11
16.5796
 21
48.1113
  0
LINE
  8
0
 10
16.5796
 20
48.1113
 11
17.45
 21
47.0505
  0
LINE
  8
0
 10
17.45
 20
47.0505
 11
18.1998
 21
46.4352
  0
LINE
  8
0
 10
18.1998
 20
46.4352
 11
17.8888
 21
46.1801
  0
LINE
  8
0
 10
17.8888
 20
46.1801
 11
16.6785
 21
45.5331
  0
LINE
  8
0
 10
16.6785
 20
45.5331
 11
15.3653
 21
45.1346
  0
LINE
  8
0
 10
15.3653
 20
45.1346
 11
13.9999
 21
45
  0
LINE
  8
0
 10
13.9999
 20
45
 11
12.6343
 21
45.1346
  0
LINE
  8
0
 10
-11.3654
 20
45.1346
 11
-12.6785
 21
45.5331
  0
LINE
  8
0
 10
-12.6785
 20
45.5331
 11
-13.8885
 21
46.1801
  0
LINE
  8
0
 10
-13.8885
 20
46.1801
 11
-14.1998
 21
46.4352
  0
LINE
  8
0
 10
-14.1998
 20
46.4352
 11
-13.45
 21
47.0505
  0
LINE
  8
0
 10
-13.45
 20
47.0505
 11
-12.5797
 21
48.1113
  0
LINE
  8
0
 10
-12.5797
 20
48.1113
 11
-11.9324
 21
49.3216
  0
LINE
  8
0
 10
-11.9324
 20
49.3216
 11
-11.5344
 21
50.6348
  0
LINE
  8
0
 10
-11.5344
 20
50.6348
 11
-11.3998
 21
52.0001
  0
LINE
  8
0
 10
-11.3998
 20
52.0001
 11
-11.5344
 21
53.3655
  0
LINE
  8
0
 10
-11.5344
 20
53.3655
 11
-11.9324
 21
54.6786
  0
LINE
  8
0
 10
-11.9324
 20
54.6786
 11
-12.5797
 21
55.889
  0
LINE
  8
0
 10
-12.5797
 20
55.889
 11
-13.45
 21
56.9498
  0
LINE
  8
0
 10
-13.45
 20
56.9498
 11
-14.1998
 21
57.565
  0
LINE
  8
0
 10
-14.1998
 20
57.565
 11
-13.8885
 21
57.8204
  0
LINE
  8
0
 10
-13.8885
 20
57.8204
 11
-12.6785
 21
58.4671
  0
LINE
  8
0
 10
-12.6785
 20
58.4671
 11
-11.3654
 21
58.8657
  0
LINE
  8
0
 10
-11.3654
 20
58.8657
 11
-10
 21
59.0002
  0
LINE
  8
0
 10
-10
 20
59.0002
 11
-8.63434
 21
58.8657
  0
LINE
  8
0
 10
-8.63434
 20
58.8657
 11
-7.32117
 21
58.4671
  0
LINE
  8
0
 10
-7.32117
 20
58.4671
 11
-6.11115
 21
57.8204
  0
LINE
  8
0
 10
-6.11115
 20
57.8204
 11
-5.80017
 21
57.565
  0
LINE
  8
0
 10
-5.80017
 20
57.565
 11
-6.54968
 21
56.9498
  0
LINE
  8
0
 10
-6.54968
 20
56.9498
 11
-7.42004
 21
55.889
  0
LINE
  8
0
 10
-7.42004
 20
55.889
 11
-8.06732
 21
54.6786
  0
LINE
  8
0
 10
-8.06732
 20
54.6786
 11
-8.46527
 21
53.3655
  0
LINE
  8
0
 10
-8.46527
 20
53.3655
 11
-8.59985
 21
52.0001
  0
LINE
  8
0
 10
-8.59985
 20
52.0001
 11
-8.46527
 21
50.6348
  0
LINE
  8
0
 10
-8.46527
 20
50.6348
 11
-8.06732
 21
49.3216
  0
LINE
  8
0
 10
-8.06732
 20
49.3216
 11
-7.42004
 21
48.1113
  0
LINE
  8
0
 10
-7.42004
 20
48.1113
 11
-6.54968
 21
47.0505
  0
LINE
  8
0
 10
-6.54968
 20
47.0505
 11
-5.80017
 21
46.4352
  0
LINE
  8
0
 10
-5.80017
 20
46.4352
 11
-6.11115
 21
46.1801
  0
LINE
  8
0
 10
-6.11115
 20
46.1801
 11
-7.32117
 21
45.5331
  0
LINE
  8
0
 10
-7.32117
 20
45.5331
 11
-8.63434
 21
45.1346
  0
LINE
  8
0
 10
-8.63434
 20
45.1346
 11
-10
 21
45
  0
LINE
  8
0
 10
-10
 20
45
 11
-11.3654
 21
45.1346
  0
LINE
  8
0
 10
-41.0501
 20
48.5498
 11
-42.1112
 21
49.4205
  0
LINE
  8
0
 10
-42.1112
 20
49.4205
 11
-43.3212
 21
50.0674
  0
LINE
  8
0
 10
-43.3212
 20
50.0674
 11
-44.6344
 21
50.4657
  0
LINE
  8
0
 10
-44.6344
 20
50.4657
 11
-45.9432
 21
50.5947
  0
LINE
  8
0
 10
-45.9432
 20
50.5947
 11
-44.9997
 21
53.4985
  0
LINE
  8
0
 10
-44.9997
 20
53.4985
 11
-44.6344
 21
53.5345
  0
LINE
  8
0
 10
-44.6344
 20
53.5345
 11
-43.3212
 21
53.9328
  0
LINE
  8
0
 10
-43.3212
 20
53.9328
 11
-42.1112
 21
54.5798
  0
LINE
  8
0
 10
-42.1112
 20
54.5798
 11
-41.0501
 21
55.4504
  0
LINE
  8
0
 10
-41.0501
 20
55.4504
 11
-40.4349
 21
56.2
  0
LINE
  8
0
 10
-40.4349
 20
56.2
 11
-40.1797
 21
55.889
  0
LINE
  8
0
 10
-40.1797
 20
55.889
 11
-39.5328
 21
54.6786
  0
LINE
  8
0
 10
-39.5328
 20
54.6786
 11
-39.1345
 21
53.3655
  0
LINE
  8
0
 10
-39.1345
 20
53.3655
 11
-38.9999
 21
52.0001
  0
LINE
  8
0
 10
-38.9999
 20
52.0001
 11
-39.1345
 21
50.6348
  0
LINE
  8
0
 10
-39.1345
 20
50.6348
 11
-39.5328
 21
49.3216
  0
LINE
  8
0
 10
-39.5328
 20
49.3216
 11
-40.1797
 21
48.1113
  0
LINE
  8
0
 10
-40.1797
 20
48.1113
 11
-40.4349
 21
47.8003
  0
LINE
  8
0
 10
-40.4349
 20
47.8003
 11
-41.0501
 21
48.5498
  0
LINE
  8
0
 10
30.9494
 20
48.5498
 11
29.8886
 21
49.4205
  0
LINE
  8
0
 10
29.8886
 20
49.4205
 11
28.6786
 21
50.0674
  0
LINE
  8
0
 10
28.6786
 20
50.0674
 11
27.3654
 21
50.4657
  0
LINE
  8
0
 10
27.3654
 20
50.4657
 11
25.9998
 21
50.6003
  0
LINE
  8
0
 10
25.9998
 20
50.6003
 11
24.6344
 21
50.4657
  0
LINE
  8
0
 10
24.6344
 20
50.4657
 11
23.3212
 21
50.0674
  0
LINE
  8
0
 10
23.3212
 20
50.0674
 11
22.1112
 21
49.4205
  0
LINE
  8
0
 10
22.1112
 20
49.4205
 11
21.0501
 21
48.5498
  0
LINE
  8
0
 10
21.0501
 20
48.5498
 11
20.4349
 21
47.8003
  0
LINE
  8
0
 10
20.4349
 20
47.8003
 11
20.1797
 21
48.1113
  0
LINE
  8
0
 10
20.1797
 20
48.1113
 11
19.5328
 21
49.3216
  0
LINE
  8
0
 10
19.5328
 20
49.3216
 11
19.1345
 21
50.6348
  0
LINE
  8
0
 10
19.1345
 20
50.6348
 11
18.9999
 21
52.0001
  0
LINE
  8
0
 10
18.9999
 20
52.0001
 11
19.1345
 21
53.3655
  0
LINE
  8
0
 10
19.1345
 20
53.3655
 11
19.5328
 21
54.6786
  0
LINE
  8
0
 10
19.5328
 20
54.6786
 11
20.1797
 21
55.889
  0
LINE
  8
0
 10
20.1797
 20
55.889
 11
20.4349
 21
56.2
  0
LINE
  8
0
 10
20.4349
 20
56.2
 11
21.0501
 21
55.4504
  0
LINE
  8
0
 10
21.0501
 20
55.4504
 11
22.1112
 21
54.5798
  0
LINE
  8
0
 10
22.1112
 20
54.5798
 11
23.3212
 21
53.9328
  0
LINE
  8
0
 10
23.3212
 20
53.9328
 11
24.6344
 21
53.5345
  0
LINE
  8
0
 10
24.6344
 20
53.5345
 11
25.9998
 21
53.4
  0
LINE
  8
0
 10
25.9998
 20
53.4
 11
27.3654
 21
53.5345
  0
LINE
  8
0
 10
27.3654
 20
53.5345
 11
28.6786
 21
53.9328
  0
LINE
  8
0
 10
28.6786
 20
53.9328
 11
29.8886
 21
54.5798
  0
LINE
  8
0
 10
29.8886
 20
54.5798
 11
30.9494
 21
55.4504
  0
LINE
  8
0
 10
30.9494
 20
55.4504
 11
31.5646
 21
56.2
  0
LINE
  8
0
 10
31.5646
 20
56.2
 11
31.8201
 21
55.889
  0
LINE
  8
0
 10
31.8201
 20
55.889
 11
32.4667
 21
54.6786
  0
LINE
  8
0
 10
32.4667
 20
54.6786
 11
32.8653
 21
53.3655
  0
LINE
  8
0
 10
32.8653
 20
53.3655
 11
32.9999
 21
52.0001
  0
LINE
  8
0
 10
32.9999
 20
52.0001
 11
32.8653
 21
50.6348
  0
LINE
  8
0
 10
32.8653
 20
50.6348
 11
32.4667
 21
49.3216
  0
LINE
  8
0
 10
32.4667
 20
49.3216
 11
31.8201
 21
48.1113
  0
LINE
  8
0
 10
31.8201
 20
48.1113
 11
31.5646
 21
47.8003
  0
LINE
  8
0
 10
31.5646
 20
47.8003
 11
30.9494
 21
48.5498
  0
LINE
  8
0
 10
6.94946
 20
48.5498
 11
5.88867
 21
49.4205
  0
LINE
  8
0
 10
5.88867
 20
49.4205
 11
4.67834
 21
50.0674
  0
LINE
  8
0
 10
4.67834
 20
50.0674
 11
3.36548
 21
50.4657
  0
LINE
  8
0
 10
3.36548
 20
50.4657
 11
1.99982
 21
50.6003
  0
LINE
  8
0
 10
1.99982
 20
50.6003
 11
0.63446
 21
50.4657
  0
LINE
  8
0
 10
0.63446
 20
50.4657
 11
-0.678406
 21
50.0674
  0
LINE
  8
0
 10
-0.678406
 20
50.0674
 11
-1.88873
 21
49.4205
  0
LINE
  8
0
 10
-1.88873
 20
49.4205
 11
-2.94952
 21
48.5498
  0
LINE
  8
0
 10
-2.94952
 20
48.5498
 11
-3.56476
 21
47.8003
  0
LINE
  8
0
 10
-3.56476
 20
47.8003
 11
-3.81989
 21
48.1113
  0
LINE
  8
0
 10
-3.81989
 20
48.1113
 11
-4.46686
 21
49.3216
  0
LINE
  8
0
 10
-4.46686
 20
49.3216
 11
-4.86511
 21
50.6348
  0
LINE
  8
0
 10
-4.86511
 20
50.6348
 11
-4.99969
 21
52.0001
  0
LINE
  8
0
 10
-4.99969
 20
52.0001
 11
-4.86511
 21
53.3655
  0
LINE
  8
0
 10
-4.86511
 20
53.3655
 11
-4.46686
 21
54.6786
  0
LINE
  8
0
 10
-4.46686
 20
54.6786
 11
-3.81989
 21
55.889
  0
LINE
  8
0
 10
-3.81989
 20
55.889
 11
-3.56476
 21
56.2
  0
LINE
  8
0
 10
-3.56476
 20
56.2
 11
-2.94952
 21
55.4504
  0
LINE
  8
0
 10
-2.94952
 20
55.4504
 11
-1.88873
 21
54.5798
  0
LINE
  8
0
 10
-1.88873
 20
54.5798
 11
-0.678406
 21
53.9328
  0
LINE
  8
0
 10
-0.678406
 20
53.9328
 11
0.63446
 21
53.5345
  0
LINE
  8
0
 10
0.63446
 20
53.5345
 11
1.99982
 21
53.4
  0
LINE
  8
0
 10
1.99982
 20
53.4
 11
3.36548
 21
53.5345
  0
LINE
  8
0
 10
3.36548
 20
53.5345
 11
4.67834
 21
53.9328
  0
LINE
  8
0
 10
4.67834
 20
53.9328
 11
5.88867
 21
54.5798
  0
LINE
  8
0
 10
5.88867
 20
54.5798
 11
6.94946
 21
55.4504
  0
LINE
  8
0
 10
6.94946
 20
55.4504
 11
7.5647
 21
56.2
  0
LINE
  8
0
 10
7.5647
 20
56.2
 11
7.82013
 21
55.889
  0
LINE
  8
0
 10
7.82013
 20
55.889
 11
8.4668
 21
54.6786
  0
LINE
  8
0
 10
8.4668
 20
54.6786
 11
8.86536
 21
53.3655
  0
LINE
  8
0
 10
8.86536
 20
53.3655
 11
8.99994
 21
52.0001
  0
LINE
  8
0
 10
8.99994
 20
52.0001
 11
8.86536
 21
50.6348
  0
LINE
  8
0
 10
8.86536
 20
50.6348
 11
8.4668
 21
49.3216
  0
LINE
  8
0
 10
8.4668
 20
49.3216
 11
7.82013
 21
48.1113
  0
LINE
  8
0
 10
7.82013
 20
48.1113
 11
7.5647
 21
47.8003
  0
LINE
  8
0
 10
7.5647
 20
47.8003
 11
6.94946
 21
48.5498
  0
LINE
  8
0
 10
-17.0502
 20
48.5498
 11
-18.111
 21
49.4205
  0
LINE
  8
0
 10
-18.111
 20
49.4205
 11
-19.3213
 21
50.0674
  0
LINE
  8
0
 10
-19.3213
 20
50.0674
 11
-20.6345
 21
50.4657
  0
LINE
  8
0
 10
-20.6345
 20
50.4657
 11
-21.9998
 21
50.6003
  0
LINE
  8
0
 10
-21.9998
 20
50.6003
 11
-23.3652
 21
50.4657
  0
LINE
  8
0
 10
-23.3652
 20
50.4657
 11
-24.6783
 21
50.0674
  0
LINE
  8
0
 10
-24.6783
 20
50.0674
 11
-25.8887
 21
49.4205
  0
LINE
  8
0
 10
-25.8887
 20
49.4205
 11
-26.9495
 21
48.5498
  0
LINE
  8
0
 10
-26.9495
 20
48.5498
 11
-27.5647
 21
47.8003
  0
LINE
  8
0
 10
-27.5647
 20
47.8003
 11
-27.8201
 21
48.1113
  0
LINE
  8
0
 10
-27.8201
 20
48.1113
 11
-28.4668
 21
49.3216
  0
LINE
  8
0
 10
-28.4668
 20
49.3216
 11
-28.8654
 21
50.6348
  0
LINE
  8
0
 10
-28.8654
 20
50.6348
 11
-28.9999
 21
52.0001
  0
LINE
  8
0
 10
-28.9999
 20
52.0001
 11
-28.8654
 21
53.3655
  0
LINE
  8
0
 10
-28.8654
 20
53.3655
 11
-28.4668
 21
54.6786
  0
LINE
  8
0
 10
-28.4668
 20
54.6786
 11
-27.8201
 21
55.889
  0
LINE
  8
0
 10
-27.8201
 20
55.889
 11
-27.5647
 21
56.2
  0
LINE
  8
0
 10
-27.5647
 20
56.2
 11
-26.9495
 21
55.4504
  0
LINE
  8
0
 10
-26.9495
 20
55.4504
 11
-25.8887
 21
54.5798
  0
LINE
  8
0
 10
-25.8887
 20
54.5798
 11
-24.6783
 21
53.9328
  0
LINE
  8
0
 10
-24.6783
 20
53.9328
 11
-23.3652
 21
53.5345
  0
LINE
  8
0
 10
-23.3652
 20
53.5345
 11
-21.9998
 21
53.4
  0
LINE
  8
0
 10
-21.9998
 20
53.4
 11
-20.6345
 21
53.5345
  0
LINE
  8
0
 10
-20.6345
 20
53.5345
 11
-19.3213
 21
53.9328
  0
LINE
  8
0
 10
-19.3213
 20
53.9328
 11
-18.111
 21
54.5798
  0
LINE
  8
0
 10
-18.111
 20
54.5798
 11
-17.0502
 21
55.4504
  0
LINE
  8
0
 10
-17.0502
 20
55.4504
 11
-16.4349
 21
56.2
  0
LINE
  8
0
 10
-16.4349
 20
56.2
 11
-16.1798
 21
55.889
  0
LINE
  8
0
 10
-16.1798
 20
55.889
 11
-15.5328
 21
54.6786
  0
LINE
  8
0
 10
-15.5328
 20
54.6786
 11
-15.1343
 21
53.3655
  0
LINE
  8
0
 10
-15.1343
 20
53.3655
 11
-14.9997
 21
52.0001
  0
LINE
  8
0
 10
-14.9997
 20
52.0001
 11
-15.1343
 21
50.6348
  0
LINE
  8
0
 10
-15.1343
 20
50.6348
 11
-15.5328
 21
49.3216
  0
LINE
  8
0
 10
-15.5328
 20
49.3216
 11
-16.1798
 21
48.1113
  0
LINE
  8
0
 10
-16.1798
 20
48.1113
 11
-16.4349
 21
47.8003
  0
LINE
  8
0
 10
-16.4349
 20
47.8003
 11
-17.0502
 21
48.5498
  0
LINE
  8
0
 10
44.1797
 20
48.1113
 11
43.5327
 21
49.3216
  0
LINE
  8
0
 10
43.5327
 20
49.3216
 11
43.1345
 21
50.6348
  0
LINE
  8
0
 10
43.1345
 20
50.6348
 11
42.9999
 21
52.0001
  0
LINE
  8
0
 10
42.9999
 20
52.0001
 11
43.1345
 21
53.3655
  0
LINE
  8
0
 10
43.1345
 20
53.3655
 11
43.5327
 21
54.6786
  0
LINE
  8
0
 10
43.5327
 20
54.6786
 11
44.1797
 21
55.889
  0
LINE
  8
0
 10
44.1797
 20
55.889
 11
44.2107
 21
55.9268
  0
LINE
  8
0
 10
44.2107
 20
55.9268
 11
46.2932
 21
49.5178
  0
LINE
  8
0
 10
46.2932
 20
49.5178
 11
46.1111
 21
49.4205
  0
LINE
  8
0
 10
46.1111
 20
49.4205
 11
45.0504
 21
48.5498
  0
LINE
  8
0
 10
45.0504
 20
48.5498
 11
44.4351
 21
47.8003
  0
LINE
  8
0
 10
44.4351
 20
47.8003
 11
44.1797
 21
48.1113
  0
LINE
  8
0
 10
0.63446
 20
33.1348
 11
-0.678406
 21
33.533
  0
LINE
  8
0
 10
-0.678406
 20
33.533
 11
-1.88873
 21
34.18
  0
LINE
  8
0
 10
-1.88873
 20
34.18
 11
-2.19971
 21
34.4351
  0
LINE
  8
0
 10
-2.19971
 20
34.4351
 11
-1.4502
 21
35.0504
  0
LINE
  8
0
 10
-1.4502
 20
35.0504
 11
-0.579529
 21
36.1115
  0
LINE
  8
0
 10
-0.579529
 20
36.1115
 11
0.0671387
 21
37.3215
  0
LINE
  8
0
 10
0.0671387
 20
37.3215
 11
0.465393
 21
38.6346
  0
LINE
  8
0
 10
0.465393
 20
38.6346
 11
0.599976
 21
40
  0
LINE
  8
0
 10
0.599976
 20
40
 11
0.465393
 21
41.3657
  0
LINE
  8
0
 10
0.465393
 20
41.3657
 11
0.0671387
 21
42.6788
  0
LINE
  8
0
 10
0.0671387
 20
42.6788
 11
-0.579529
 21
43.8889
  0
LINE
  8
0
 10
-0.579529
 20
43.8889
 11
-1.4502
 21
44.9496
  0
LINE
  8
0
 10
-1.4502
 20
44.9496
 11
-2.19971
 21
45.5649
  0
LINE
  8
0
 10
-2.19971
 20
45.5649
 11
-1.88873
 21
45.8203
  0
LINE
  8
0
 10
-1.88873
 20
45.8203
 11
-0.678406
 21
46.4673
  0
LINE
  8
0
 10
-0.678406
 20
46.4673
 11
0.63446
 21
46.8655
  0
LINE
  8
0
 10
0.63446
 20
46.8655
 11
1.99982
 21
47.0001
  0
LINE
  8
0
 10
1.99982
 20
47.0001
 11
3.36548
 21
46.8655
  0
LINE
  8
0
 10
3.36548
 20
46.8655
 11
4.67834
 21
46.4673
  0
LINE
  8
0
 10
4.67834
 20
46.4673
 11
5.88867
 21
45.8203
  0
LINE
  8
0
 10
5.88867
 20
45.8203
 11
6.19965
 21
45.5649
  0
LINE
  8
0
 10
6.19965
 20
45.5649
 11
5.45013
 21
44.9496
  0
LINE
  8
0
 10
5.45013
 20
44.9496
 11
4.57947
 21
43.8889
  0
LINE
  8
0
 10
4.57947
 20
43.8889
 11
3.9325
 21
42.6788
  0
LINE
  8
0
 10
3.9325
 20
42.6788
 11
3.53424
 21
41.3657
  0
LINE
  8
0
 10
3.53424
 20
41.3657
 11
3.39966
 21
40
  0
LINE
  8
0
 10
3.39966
 20
40
 11
3.53424
 21
38.6346
  0
LINE
  8
0
 10
3.53424
 20
38.6346
 11
3.9325
 21
37.3215
  0
LINE
  8
0
 10
3.9325
 20
37.3215
 11
4.57947
 21
36.1115
  0
LINE
  8
0
 10
4.57947
 20
36.1115
 11
5.45013
 21
35.0504
  0
LINE
  8
0
 10
5.45013
 20
35.0504
 11
6.19965
 21
34.4351
  0
LINE
  8
0
 10
6.19965
 20
34.4351
 11
5.88867
 21
34.18
  0
LINE
  8
0
 10
5.88867
 20
34.18
 11
4.67834
 21
33.533
  0
LINE
  8
0
 10
4.67834
 20
33.533
 11
3.36548
 21
33.1348
  0
LINE
  8
0
 10
3.36548
 20
33.1348
 11
1.99982
 21
33.0002
  0
LINE
  8
0
 10
1.99982
 20
33.0002
 11
0.63446
 21
33.1348
  0
LINE
  8
0
 10
-47.3654
 20
33.1348
 11
-48.6786
 21
33.533
  0
LINE
  8
0
 10
-48.6786
 20
33.533
 11
-49.8886
 21
34.18
  0
LINE
  8
0
 10
-49.8886
 20
34.18
 11
-50.1996
 21
34.4351
  0
LINE
  8
0
 10
-50.1996
 20
34.4351
 11
-49.4501
 21
35.0504
  0
LINE
  8
0
 10
-49.4501
 20
35.0504
 11
-48.5797
 21
36.1115
  0
LINE
  8
0
 10
-48.5797
 20
36.1115
 11
-47.9324
 21
37.3215
  0
LINE
  8
0
 10
-47.9324
 20
37.3215
 11
-47.5342
 21
38.6346
  0
LINE
  8
0
 10
-47.5342
 20
38.6346
 11
-47.3996
 21
40
  0
LINE
  8
0
 10
-47.3996
 20
40
 11
-47.5342
 21
41.3657
  0
LINE
  8
0
 10
-47.5342
 20
41.3657
 11
-47.9324
 21
42.6788
  0
LINE
  8
0
 10
-47.9324
 20
42.6788
 11
-48.295
 21
43.3567
  0
LINE
  8
0
 10
-48.295
 20
43.3567
 11
-47.1479
 21
46.887
  0
LINE
  8
0
 10
-47.1479
 20
46.887
 11
-45.9998
 21
47.0001
  0
LINE
  8
0
 10
-45.9998
 20
47.0001
 11
-44.6344
 21
46.8655
  0
LINE
  8
0
 10
-44.6344
 20
46.8655
 11
-43.3212
 21
46.4673
  0
LINE
  8
0
 10
-43.3212
 20
46.4673
 11
-42.1112
 21
45.8203
  0
LINE
  8
0
 10
-42.1112
 20
45.8203
 11
-41.7999
 21
45.5649
  0
LINE
  8
0
 10
-41.7999
 20
45.5649
 11
-42.5497
 21
44.9496
  0
LINE
  8
0
 10
-42.5497
 20
44.9496
 11
-43.4201
 21
43.8889
  0
LINE
  8
0
 10
-43.4201
 20
43.8889
 11
-44.0671
 21
42.6788
  0
LINE
  8
0
 10
-44.0671
 20
42.6788
 11
-44.4653
 21
41.3657
  0
LINE
  8
0
 10
-44.4653
 20
41.3657
 11
-44.5999
 21
40
  0
LINE
  8
0
 10
-44.5999
 20
40
 11
-44.4653
 21
38.6346
  0
LINE
  8
0
 10
-44.4653
 20
38.6346
 11
-44.0671
 21
37.3215
  0
LINE
  8
0
 10
-44.0671
 20
37.3215
 11
-43.4201
 21
36.1115
  0
LINE
  8
0
 10
-43.4201
 20
36.1115
 11
-42.5497
 21
35.0504
  0
LINE
  8
0
 10
-42.5497
 20
35.0504
 11
-41.7999
 21
34.4351
  0
LINE
  8
0
 10
-41.7999
 20
34.4351
 11
-42.1112
 21
34.18
  0
LINE
  8
0
 10
-42.1112
 20
34.18
 11
-43.3212
 21
33.533
  0
LINE
  8
0
 10
-43.3212
 20
33.533
 11
-44.6344
 21
33.1348
  0
LINE
  8
0
 10
-44.6344
 20
33.1348
 11
-45.9998
 21
33.0002
  0
LINE
  8
0
 10
-45.9998
 20
33.0002
 11
-47.3654
 21
33.1348
  0
LINE
  8
0
 10
-23.3652
 20
33.1348
 11
-24.6783
 21
33.533
  0
LINE
  8
0
 10
-24.6783
 20
33.533
 11
-25.8887
 21
34.18
  0
LINE
  8
0
 10
-25.8887
 20
34.18
 11
-26.1996
 21
34.4351
  0
LINE
  8
0
 10
-26.1996
 20
34.4351
 11
-25.4501
 21
35.0504
  0
LINE
  8
0
 10
-25.4501
 20
35.0504
 11
-24.5795
 21
36.1115
  0
LINE
  8
0
 10
-24.5795
 20
36.1115
 11
-23.9325
 21
37.3215
  0
LINE
  8
0
 10
-23.9325
 20
37.3215
 11
-23.5342
 21
38.6346
  0
LINE
  8
0
 10
-23.5342
 20
38.6346
 11
-23.3997
 21
40
  0
LINE
  8
0
 10
-23.3997
 20
40
 11
-23.5342
 21
41.3657
  0
LINE
  8
0
 10
-23.5342
 20
41.3657
 11
-23.9325
 21
42.6788
  0
LINE
  8
0
 10
-23.9325
 20
42.6788
 11
-24.5795
 21
43.8889
  0
LINE
  8
0
 10
-24.5795
 20
43.8889
 11
-25.4501
 21
44.9496
  0
LINE
  8
0
 10
-25.4501
 20
44.9496
 11
-26.1996
 21
45.5649
  0
LINE
  8
0
 10
-26.1996
 20
45.5649
 11
-25.8887
 21
45.8203
  0
LINE
  8
0
 10
-25.8887
 20
45.8203
 11
-24.6783
 21
46.4673
  0
LINE
  8
0
 10
-24.6783
 20
46.4673
 11
-23.3652
 21
46.8655
  0
LINE
  8
0
 10
-23.3652
 20
46.8655
 11
-21.9998
 21
47.0001
  0
LINE
  8
0
 10
-21.9998
 20
47.0001
 11
-20.6345
 21
46.8655
  0
LINE
  8
0
 10
-20.6345
 20
46.8655
 11
-19.3213
 21
46.4673
  0
LINE
  8
0
 10
-19.3213
 20
46.4673
 11
-18.111
 21
45.8203
  0
LINE
  8
0
 10
-18.111
 20
45.8203
 11
-17.8
 21
45.5649
  0
LINE
  8
0
 10
-17.8
 20
45.5649
 11
-18.5495
 21
44.9496
  0
LINE
  8
0
 10
-18.5495
 20
44.9496
 11
-19.4202
 21
43.8889
  0
LINE
  8
0
 10
-19.4202
 20
43.8889
 11
-20.0671
 21
42.6788
  0
LINE
  8
0
 10
-20.0671
 20
42.6788
 11
-20.4654
 21
41.3657
  0
LINE
  8
0
 10
-20.4654
 20
41.3657
 11
-20.6
 21
40
  0
LINE
  8
0
 10
-20.6
 20
40
 11
-20.4654
 21
38.6346
  0
LINE
  8
0
 10
-20.4654
 20
38.6346
 11
-20.0671
 21
37.3215
  0
LINE
  8
0
 10
-20.0671
 20
37.3215
 11
-19.4202
 21
36.1115
  0
LINE
  8
0
 10
-19.4202
 20
36.1115
 11
-18.5495
 21
35.0504
  0
LINE
  8
0
 10
-18.5495
 20
35.0504
 11
-17.8
 21
34.4351
  0
LINE
  8
0
 10
-17.8
 20
34.4351
 11
-18.111
 21
34.18
  0
LINE
  8
0
 10
-18.111
 20
34.18
 11
-19.3213
 21
33.533
  0
LINE
  8
0
 10
-19.3213
 20
33.533
 11
-20.6345
 21
33.1348
  0
LINE
  8
0
 10
-20.6345
 20
33.1348
 11
-21.9998
 21
33.0002
  0
LINE
  8
0
 10
-21.9998
 20
33.0002
 11
-23.3652
 21
33.1348
  0
LINE
  8
0
 10
24.6344
 20
33.1348
 11
23.3212
 21
33.533
  0
LINE
  8
0
 10
23.3212
 20
33.533
 11
22.1112
 21
34.18
  0
LINE
  8
0
 10
22.1112
 20
34.18
 11
21.7999
 21
34.4351
  0
LINE
  8
0
 10
21.7999
 20
34.4351
 11
22.5497
 21
35.0504
  0
LINE
  8
0
 10
22.5497
 20
35.0504
 11
23.4201
 21
36.1115
  0
LINE
  8
0
 10
23.4201
 20
36.1115
 11
24.0671
 21
37.3215
  0
LINE
  8
0
 10
24.0671
 20
37.3215
 11
24.4653
 21
38.6346
  0
LINE
  8
0
 10
24.4653
 20
38.6346
 11
24.5999
 21
40
  0
LINE
  8
0
 10
24.5999
 20
40
 11
24.4653
 21
41.3657
  0
LINE
  8
0
 10
24.4653
 20
41.3657
 11
24.0671
 21
42.6788
  0
LINE
  8
0
 10
24.0671
 20
42.6788
 11
23.4201
 21
43.8889
  0
LINE
  8
0
 10
23.4201
 20
43.8889
 11
22.5497
 21
44.9496
  0
LINE
  8
0
 10
22.5497
 20
44.9496
 11
21.7999
 21
45.5649
  0
LINE
  8
0
 10
21.7999
 20
45.5649
 11
22.1112
 21
45.8203
  0
LINE
  8
0
 10
22.1112
 20
45.8203
 11
23.3212
 21
46.4673
  0
LINE
  8
0
 10
23.3212
 20
46.4673
 11
24.6344
 21
46.8655
  0
LINE
  8
0
 10
24.6344
 20
46.8655
 11
25.9998
 21
47.0001
  0
LINE
  8
0
 10
25.9998
 20
47.0001
 11
27.3654
 21
46.8655
  0
LINE
  8
0
 10
27.3654
 20
46.8655
 11
28.6786
 21
46.4673
  0
LINE
  8
0
 10
28.6786
 20
46.4673
 11
29.8886
 21
45.8203
  0
LINE
  8
0
 10
29.8886
 20
45.8203
 11
30.1996
 21
45.5649
  0
LINE
  8
0
 10
30.1996
 20
45.5649
 11
29.4501
 21
44.9496
  0
LINE
  8
0
 10
29.4501
 20
44.9496
 11
28.5797
 21
43.8889
  0
LINE
  8
0
 10
28.5797
 20
43.8889
 11
27.9324
 21
42.6788
  0
LINE
  8
0
 10
27.9324
 20
42.6788
 11
27.5342
 21
41.3657
  0
LINE
  8
0
 10
27.5342
 20
41.3657
 11
27.3996
 21
40
  0
LINE
  8
0
 10
27.3996
 20
40
 11
27.5342
 21
38.6346
  0
LINE
  8
0
 10
27.5342
 20
38.6346
 11
27.9324
 21
37.3215
  0
LINE
  8
0
 10
27.9324
 20
37.3215
 11
28.5797
 21
36.1115
  0
LINE
  8
0
 10
28.5797
 20
36.1115
 11
29.4501
 21
35.0504
  0
LINE
  8
0
 10
29.4501
 20
35.0504
 11
30.1996
 21
34.4351
  0
LINE
  8
0
 10
30.1996
 20
34.4351
 11
29.8886
 21
34.18
  0
LINE
  8
0
 10
29.8886
 20
34.18
 11
28.6786
 21
33.533
  0
LINE
  8
0
 10
28.6786
 20
33.533
 11
27.3654
 21
33.1348
  0
LINE
  8
0
 10
27.3654
 20
33.1348
 11
25.9998
 21
33.0002
  0
LINE
  8
0
 10
25.9998
 20
33.0002
 11
24.6344
 21
33.1348
  0
LINE
  8
0
 10
48.6343
 20
33.1348
 11
47.3212
 21
33.533
  0
LINE
  8
0
 10
47.3212
 20
33.533
 11
46.1111
 21
34.18
  0
LINE
  8
0
 10
46.1111
 20
34.18
 11
45.8002
 21
34.4351
  0
LINE
  8
0
 10
45.8002
 20
34.4351
 11
46.5497
 21
35.0504
  0
LINE
  8
0
 10
46.5497
 20
35.0504
 11
47.42
 21
36.1115
  0
LINE
  8
0
 10
47.42
 20
36.1115
 11
48.0673
 21
37.3215
  0
LINE
  8
0
 10
48.0673
 20
37.3215
 11
48.4653
 21
38.6346
  0
LINE
  8
0
 10
48.4653
 20
38.6346
 11
48.5999
 21
40
  0
LINE
  8
0
 10
48.5999
 20
40
 11
48.4653
 21
41.3657
  0
LINE
  8
0
 10
48.4653
 20
41.3657
 11
48.0673
 21
42.6788
  0
LINE
  8
0
 10
48.0673
 20
42.6788
 11
47.42
 21
43.8889
  0
LINE
  8
0
 10
47.42
 20
43.8889
 11
46.5497
 21
44.9496
  0
LINE
  8
0
 10
46.5497
 20
44.9496
 11
45.8002
 21
45.5649
  0
LINE
  8
0
 10
45.8002
 20
45.5649
 11
46.1111
 21
45.8203
  0
LINE
  8
0
 10
46.1111
 20
45.8203
 11
47.2898
 21
46.4505
  0
LINE
  8
0
 10
47.2898
 20
46.4505
 11
51.5938
 21
33.204
  0
LINE
  8
0
 10
51.5938
 20
33.204
 11
51.3654
 21
33.1348
  0
LINE
  8
0
 10
51.3654
 20
33.1348
 11
50
 21
33.0002
  0
LINE
  8
0
 10
50
 20
33.0002
 11
48.6343
 21
33.1348
  0
LINE
  8
0
 10
-5.05035
 20
36.55
 11
-6.11115
 21
37.4203
  0
LINE
  8
0
 10
-6.11115
 20
37.4203
 11
-7.32117
 21
38.0676
  0
LINE
  8
0
 10
-7.32117
 20
38.0676
 11
-8.63434
 21
38.4656
  0
LINE
  8
0
 10
-8.63434
 20
38.4656
 11
-10
 21
38.6002
  0
LINE
  8
0
 10
-10
 20
38.6002
 11
-11.3654
 21
38.4656
  0
LINE
  8
0
 10
-11.3654
 20
38.4656
 11
-12.6785
 21
38.0676
  0
LINE
  8
0
 10
-12.6785
 20
38.0676
 11
-13.8885
 21
37.4203
  0
LINE
  8
0
 10
-13.8885
 20
37.4203
 11
-14.9496
 21
36.55
  0
LINE
  8
0
 10
-14.9496
 20
36.55
 11
-15.5649
 21
35.8002
  0
LINE
  8
0
 10
-15.5649
 20
35.8002
 11
-15.82
 21
36.1115
  0
LINE
  8
0
 10
-15.82
 20
36.1115
 11
-16.467
 21
37.3215
  0
LINE
  8
0
 10
-16.467
 20
37.3215
 11
-16.8652
 21
38.6346
  0
LINE
  8
0
 10
-16.8652
 20
38.6346
 11
-16.9998
 21
40
  0
LINE
  8
0
 10
-16.9998
 20
40
 11
-16.8652
 21
41.3657
  0
LINE
  8
0
 10
-16.8652
 20
41.3657
 11
-16.467
 21
42.6788
  0
LINE
  8
0
 10
-16.467
 20
42.6788
 11
-15.82
 21
43.8889
  0
LINE
  8
0
 10
-15.82
 20
43.8889
 11
-15.5649
 21
44.1998
  0
LINE
  8
0
 10
-15.5649
 20
44.1998
 11
-14.9496
 21
43.4503
  0
LINE
  8
0
 10
-14.9496
 20
43.4503
 11
-13.8885
 21
42.58
  0
LINE
  8
0
 10
-13.8885
 20
42.58
 11
-12.6785
 21
41.9327
  0
LINE
  8
0
 10
-12.6785
 20
41.9327
 11
-11.3654
 21
41.5347
  0
LINE
  8
0
 10
-11.3654
 20
41.5347
 11
-10
 21
41.4001
  0
LINE
  8
0
 10
-10
 20
41.4001
 11
-8.63434
 21
41.5347
  0
LINE
  8
0
 10
-8.63434
 20
41.5347
 11
-7.32117
 21
41.9327
  0
LINE
  8
0
 10
-7.32117
 20
41.9327
 11
-6.11115
 21
42.58
  0
LINE
  8
0
 10
-6.11115
 20
42.58
 11
-5.05035
 21
43.4503
  0
LINE
  8
0
 10
-5.05035
 20
43.4503
 11
-4.43512
 21
44.1998
  0
LINE
  8
0
 10
-4.43512
 20
44.1998
 11
-4.17969
 21
43.8889
  0
LINE
  8
0
 10
-4.17969
 20
43.8889
 11
-3.53271
 21
42.6788
  0
LINE
  8
0
 10
-3.53271
 20
42.6788
 11
-3.13446
 21
41.3657
  0
LINE
  8
0
 10
-3.13446
 20
41.3657
 11
-2.99988
 21
40
  0
LINE
  8
0
 10
-2.99988
 20
40
 11
-3.13446
 21
38.6346
  0
LINE
  8
0
 10
-3.13446
 20
38.6346
 11
-3.53271
 21
37.3215
  0
LINE
  8
0
 10
-3.53271
 20
37.3215
 11
-4.17969
 21
36.1115
  0
LINE
  8
0
 10
-4.17969
 20
36.1115
 11
-4.43512
 21
35.8002
  0
LINE
  8
0
 10
-4.43512
 20
35.8002
 11
-5.05035
 21
36.55
  0
LINE
  8
0
 10
-29.0503
 20
36.55
 11
-30.1111
 21
37.4203
  0
LINE
  8
0
 10
-30.1111
 20
37.4203
 11
-31.3211
 21
38.0676
  0
LINE
  8
0
 10
-31.3211
 20
38.0676
 11
-32.6343
 21
38.4656
  0
LINE
  8
0
 10
-32.6343
 20
38.4656
 11
-33.9999
 21
38.6002
  0
LINE
  8
0
 10
-33.9999
 20
38.6002
 11
-35.3653
 21
38.4656
  0
LINE
  8
0
 10
-35.3653
 20
38.4656
 11
-36.6785
 21
38.0676
  0
LINE
  8
0
 10
-36.6785
 20
38.0676
 11
-37.8885
 21
37.4203
  0
LINE
  8
0
 10
-37.8885
 20
37.4203
 11
-38.9496
 21
36.55
  0
LINE
  8
0
 10
-38.9496
 20
36.55
 11
-39.5648
 21
35.8002
  0
LINE
  8
0
 10
-39.5648
 20
35.8002
 11
-39.8199
 21
36.1115
  0
LINE
  8
0
 10
-39.8199
 20
36.1115
 11
-40.4669
 21
37.3215
  0
LINE
  8
0
 10
-40.4669
 20
37.3215
 11
-40.8652
 21
38.6346
  0
LINE
  8
0
 10
-40.8652
 20
38.6346
 11
-40.9998
 21
40
  0
LINE
  8
0
 10
-40.9998
 20
40
 11
-40.8652
 21
41.3657
  0
LINE
  8
0
 10
-40.8652
 20
41.3657
 11
-40.4669
 21
42.6788
  0
LINE
  8
0
 10
-40.4669
 20
42.6788
 11
-39.8199
 21
43.8889
  0
LINE
  8
0
 10
-39.8199
 20
43.8889
 11
-39.5648
 21
44.1998
  0
LINE
  8
0
 10
-39.5648
 20
44.1998
 11
-38.9496
 21
43.4503
  0
LINE
  8
0
 10
-38.9496
 20
43.4503
 11
-37.8885
 21
42.58
  0
LINE
  8
0
 10
-37.8885
 20
42.58
 11
-36.6785
 21
41.9327
  0
LINE
  8
0
 10
-36.6785
 20
41.9327
 11
-35.3653
 21
41.5347
  0
LINE
  8
0
 10
-35.3653
 20
41.5347
 11
-33.9999
 21
41.4001
  0
LINE
  8
0
 10
-33.9999
 20
41.4001
 11
-32.6343
 21
41.5347
  0
LINE
  8
0
 10
-32.6343
 20
41.5347
 11
-31.3211
 21
41.9327
  0
LINE
  8
0
 10
-31.3211
 20
41.9327
 11
-30.1111
 21
42.58
  0
LINE
  8
0
 10
-30.1111
 20
42.58
 11
-29.0503
 21
43.4503
  0
LINE
  8
0
 10
-29.0503
 20
43.4503
 11
-28.4351
 21
44.1998
  0
LINE
  8
0
 10
-28.4351
 20
44.1998
 11
-28.1796
 21
43.8889
  0
LINE
  8
0
 10
-28.1796
 20
43.8889
 11
-27.533
 21
42.6788
  0
LINE
  8
0
 10
-27.533
 20
42.6788
 11
-27.1344
 21
41.3657
  0
LINE
  8
0
 10
-27.1344
 20
41.3657
 11
-26.9998
 21
40
  0
LINE
  8
0
 10
-26.9998
 20
40
 11
-27.1344
 21
38.6346
  0
LINE
  8
0
 10
-27.1344
 20
38.6346
 11
-27.533
 21
37.3215
  0
LINE
  8
0
 10
-27.533
 20
37.3215
 11
-28.1796
 21
36.1115
  0
LINE
  8
0
 10
-28.1796
 20
36.1115
 11
-28.4351
 21
35.8002
  0
LINE
  8
0
 10
-28.4351
 20
35.8002
 11
-29.0503
 21
36.55
  0
LINE
  8
0
 10
42.9495
 20
36.55
 11
41.8887
 21
37.4203
  0
LINE
  8
0
 10
41.8887
 20
37.4203
 11
40.6784
 21
38.0676
  0
LINE
  8
0
 10
40.6784
 20
38.0676
 11
39.3652
 21
38.4656
  0
LINE
  8
0
 10
39.3652
 20
38.4656
 11
37.9999
 21
38.6002
  0
LINE
  8
0
 10
37.9999
 20
38.6002
 11
36.6345
 21
38.4656
  0
LINE
  8
0
 10
36.6345
 20
38.4656
 11
35.3214
 21
38.0676
  0
LINE
  8
0
 10
35.3214
 20
38.0676
 11
34.111
 21
37.4203
  0
LINE
  8
0
 10
34.111
 20
37.4203
 11
33.0502
 21
36.55
  0
LINE
  8
0
 10
33.0502
 20
36.55
 11
32.435
 21
35.8002
  0
LINE
  8
0
 10
32.435
 20
35.8002
 11
32.1796
 21
36.1115
  0
LINE
  8
0
 10
32.1796
 20
36.1115
 11
31.5329
 21
37.3215
  0
LINE
  8
0
 10
31.5329
 20
37.3215
 11
31.1343
 21
38.6346
  0
LINE
  8
0
 10
31.1343
 20
38.6346
 11
30.9998
 21
40
  0
LINE
  8
0
 10
30.9998
 20
40
 11
31.1343
 21
41.3657
  0
LINE
  8
0
 10
31.1343
 20
41.3657
 11
31.5329
 21
42.6788
  0
LINE
  8
0
 10
31.5329
 20
42.6788
 11
32.1796
 21
43.8889
  0
LINE
  8
0
 10
32.1796
 20
43.8889
 11
32.435
 21
44.1998
  0
LINE
  8
0
 10
32.435
 20
44.1998
 11
33.0502
 21
43.4503
  0
LINE
  8
0
 10
33.0502
 20
43.4503
 11
34.111
 21
42.58
  0
LINE
  8
0
 10
34.111
 20
42.58
 11
35.3214
 21
41.9327
  0
LINE
  8
0
 10
35.3214
 20
41.9327
 11
36.6345
 21
41.5347
  0
LINE
  8
0
 10
36.6345
 20
41.5347
 11
37.9999
 21
41.4001
  0
LINE
  8
0
 10
37.9999
 20
41.4001
 11
39.3652
 21
41.5347
  0
LINE
  8
0
 10
39.3652
 20
41.5347
 11
40.6784
 21
41.9327
  0
LINE
  8
0
 10
40.6784
 20
41.9327
 11
41.8887
 21
42.58
  0
LINE
  8
0
 10
41.8887
 20
42.58
 11
42.9495
 21
43.4503
  0
LINE
  8
0
 10
42.9495
 20
43.4503
 11
43.5648
 21
44.1998
  0
LINE
  8
0
 10
43.5648
 20
44.1998
 11
43.8199
 21
43.8889
  0
LINE
  8
0
 10
43.8199
 20
43.8889
 11
44.4669
 21
42.6788
  0
LINE
  8
0
 10
44.4669
 20
42.6788
 11
44.8654
 21
41.3657
  0
LINE
  8
0
 10
44.8654
 20
41.3657
 11
45
 21
40
  0
LINE
  8
0
 10
45
 20
40
 11
44.8654
 21
38.6346
  0
LINE
  8
0
 10
44.8654
 20
38.6346
 11
44.4669
 21
37.3215
  0
LINE
  8
0
 10
44.4669
 20
37.3215
 11
43.8199
 21
36.1115
  0
LINE
  8
0
 10
43.8199
 20
36.1115
 11
43.5648
 21
35.8002
  0
LINE
  8
0
 10
43.5648
 20
35.8002
 11
42.9495
 21
36.55
  0
LINE
  8
0
 10
18.9496
 20
36.55
 11
17.8888
 21
37.4203
  0
LINE
  8
0
 10
17.8888
 20
37.4203
 11
16.6785
 21
38.0676
  0
LINE
  8
0
 10
16.6785
 20
38.0676
 11
15.3653
 21
38.4656
  0
LINE
  8
0
 10
15.3653
 20
38.4656
 11
13.9999
 21
38.6002
  0
LINE
  8
0
 10
13.9999
 20
38.6002
 11
12.6343
 21
38.4656
  0
LINE
  8
0
 10
12.6343
 20
38.4656
 11
11.3211
 21
38.0676
  0
LINE
  8
0
 10
11.3211
 20
38.0676
 11
10.1111
 21
37.4203
  0
LINE
  8
0
 10
10.1111
 20
37.4203
 11
9.05029
 21
36.55
  0
LINE
  8
0
 10
9.05029
 20
36.55
 11
8.43506
 21
35.8002
  0
LINE
  8
0
 10
8.43506
 20
35.8002
 11
8.17963
 21
36.1115
  0
LINE
  8
0
 10
8.17963
 20
36.1115
 11
7.53296
 21
37.3215
  0
LINE
  8
0
 10
7.53296
 20
37.3215
 11
7.1344
 21
38.6346
  0
LINE
  8
0
 10
7.1344
 20
38.6346
 11
6.99982
 21
40
  0
LINE
  8
0
 10
6.99982
 20
40
 11
7.1344
 21
41.3657
  0
LINE
  8
0
 10
7.1344
 20
41.3657
 11
7.53296
 21
42.6788
  0
LINE
  8
0
 10
7.53296
 20
42.6788
 11
8.17963
 21
43.8889
  0
LINE
  8
0
 10
8.17963
 20
43.8889
 11
8.43506
 21
44.1998
  0
LINE
  8
0
 10
8.43506
 20
44.1998
 11
9.05029
 21
43.4503
  0
LINE
  8
0
 10
9.05029
 20
43.4503
 11
10.1111
 21
42.58
  0
LINE
  8
0
 10
10.1111
 20
42.58
 11
11.3211
 21
41.9327
  0
LINE
  8
0
 10
11.3211
 20
41.9327
 11
12.6343
 21
41.5347
  0
LINE
  8
0
 10
12.6343
 20
41.5347
 11
13.9999
 21
41.4001
  0
LINE
  8
0
 10
13.9999
 20
41.4001
 11
15.3653
 21
41.5347
  0
LINE
  8
0
 10
15.3653
 20
41.5347
 11
16.6785
 21
41.9327
  0
LINE
  8
0
 10
16.6785
 20
41.9327
 11
17.8888
 21
42.58
  0
LINE
  8
0
 10
17.8888
 20
42.58
 11
18.9496
 21
43.4503
  0
LINE
  8
0
 10
18.9496
 20
43.4503
 11
19.5648
 21
44.1998
  0
LINE
  8
0
 10
19.5648
 20
44.1998
 11
19.8199
 21
43.8889
  0
LINE
  8
0
 10
19.8199
 20
43.8889
 11
20.4669
 21
42.6788
  0
LINE
  8
0
 10
20.4669
 20
42.6788
 11
20.8652
 21
41.3657
  0
LINE
  8
0
 10
20.8652
 20
41.3657
 11
20.9998
 21
40
  0
LINE
  8
0
 10
20.9998
 20
40
 11
20.8652
 21
38.6346
  0
LINE
  8
0
 10
20.8652
 20
38.6346
 11
20.4669
 21
37.3215
  0
LINE
  8
0
 10
20.4669
 20
37.3215
 11
19.8199
 21
36.1115
  0
LINE
  8
0
 10
19.8199
 20
36.1115
 11
19.5648
 21
35.8002
  0
LINE
  8
0
 10
19.5648
 20
35.8002
 11
18.9496
 21
36.55
  0
LINE
  8
0
 10
36.6345
 20
21.1346
 11
35.3214
 21
21.5332
  0
LINE
  8
0
 10
35.3214
 20
21.5332
 11
34.111
 21
22.1799
  0
LINE
  8
0
 10
34.111
 20
22.1799
 11
33.8
 21
22.4353
  0
LINE
  8
0
 10
33.8
 20
22.4353
 11
34.5496
 21
23.0505
  0
LINE
  8
0
 10
34.5496
 20
23.0505
 11
35.4202
 21
24.1113
  0
LINE
  8
0
 10
35.4202
 20
24.1113
 11
36.0672
 21
25.3217
  0
LINE
  8
0
 10
36.0672
 20
25.3217
 11
36.4655
 21
26.6348
  0
LINE
  8
0
 10
36.4655
 20
26.6348
 11
36.6
 21
28.0002
  0
LINE
  8
0
 10
36.6
 20
28.0002
 11
36.4655
 21
29.3655
  0
LINE
  8
0
 10
36.4655
 20
29.3655
 11
36.0672
 21
30.6787
  0
LINE
  8
0
 10
36.0672
 20
30.6787
 11
35.4202
 21
31.889
  0
LINE
  8
0
 10
35.4202
 20
31.889
 11
34.5496
 21
32.9498
  0
LINE
  8
0
 10
34.5496
 20
32.9498
 11
33.8
 21
33.5651
  0
LINE
  8
0
 10
33.8
 20
33.5651
 11
34.111
 21
33.8202
  0
LINE
  8
0
 10
34.111
 20
33.8202
 11
35.3214
 21
34.4672
  0
LINE
  8
0
 10
35.3214
 20
34.4672
 11
36.6345
 21
34.8657
  0
LINE
  8
0
 10
36.6345
 20
34.8657
 11
37.9999
 21
35.0003
  0
LINE
  8
0
 10
37.9999
 20
35.0003
 11
39.3652
 21
34.8657
  0
LINE
  8
0
 10
39.3652
 20
34.8657
 11
40.6784
 21
34.4672
  0
LINE
  8
0
 10
40.6784
 20
34.4672
 11
41.8887
 21
33.8202
  0
LINE
  8
0
 10
41.8887
 20
33.8202
 11
42.1997
 21
33.5651
  0
LINE
  8
0
 10
42.1997
 20
33.5651
 11
41.4502
 21
32.9498
  0
LINE
  8
0
 10
41.4502
 20
32.9498
 11
40.5795
 21
31.889
  0
LINE
  8
0
 10
40.5795
 20
31.889
 11
39.9326
 21
30.6787
  0
LINE
  8
0
 10
39.9326
 20
30.6787
 11
39.5343
 21
29.3655
  0
LINE
  8
0
 10
39.5343
 20
29.3655
 11
39.3997
 21
28.0002
  0
LINE
  8
0
 10
39.3997
 20
28.0002
 11
39.5343
 21
26.6348
  0
LINE
  8
0
 10
39.5343
 20
26.6348
 11
39.9326
 21
25.3217
  0
LINE
  8
0
 10
39.9326
 20
25.3217
 11
40.5795
 21
24.1113
  0
LINE
  8
0
 10
40.5795
 20
24.1113
 11
41.4502
 21
23.0505
  0
LINE
  8
0
 10
41.4502
 20
23.0505
 11
42.1997
 21
22.4353
  0
LINE
  8
0
 10
42.1997
 20
22.4353
 11
41.8887
 21
22.1799
  0
LINE
  8
0
 10
41.8887
 20
22.1799
 11
40.6784
 21
21.5332
  0
LINE
  8
0
 10
40.6784
 20
21.5332
 11
39.3652
 21
21.1346
  0
LINE
  8
0
 10
39.3652
 20
21.1346
 11
37.9999
 21
21.0001
  0
LINE
  8
0
 10
37.9999
 20
21.0001
 11
36.6345
 21
21.1346
  0
LINE
  8
0
 10
-11.3654
 20
21.1346
 11
-12.6785
 21
21.5332
  0
LINE
  8
0
 10
-12.6785
 20
21.5332
 11
-13.8885
 21
22.1799
  0
LINE
  8
0
 10
-13.8885
 20
22.1799
 11
-14.1998
 21
22.4353
  0
LINE
  8
0
 10
-14.1998
 20
22.4353
 11
-13.45
 21
23.0505
  0
LINE
  8
0
 10
-13.45
 20
23.0505
 11
-12.5797
 21
24.1113
  0
LINE
  8
0
 10
-12.5797
 20
24.1113
 11
-11.9324
 21
25.3217
  0
LINE
  8
0
 10
-11.9324
 20
25.3217
 11
-11.5344
 21
26.6348
  0
LINE
  8
0
 10
-11.5344
 20
26.6348
 11
-11.3998
 21
28.0002
  0
LINE
  8
0
 10
-11.3998
 20
28.0002
 11
-11.5344
 21
29.3655
  0
LINE
  8
0
 10
-11.5344
 20
29.3655
 11
-11.9324
 21
30.6787
  0
LINE
  8
0
 10
-11.9324
 20
30.6787
 11
-12.5797
 21
31.889
  0
LINE
  8
0
 10
-12.5797
 20
31.889
 11
-13.45
 21
32.9498
  0
LINE
  8
0
 10
-13.45
 20
32.9498
 11
-14.1998
 21
33.5651
  0
LINE
  8
0
 10
-14.1998
 20
33.5651
 11
-13.8885
 21
33.8202
  0
LINE
  8
0
 10
-13.8885
 20
33.8202
 11
-12.6785
 21
34.4672
  0
LINE
  8
0
 10
-12.6785
 20
34.4672
 11
-11.3654
 21
34.8657
  0
LINE
  8
0
 10
-11.3654
 20
34.8657
 11
-10
 21
35.0003
  0
LINE
  8
0
 10
-10
 20
35.0003
 11
-8.63434
 21
34.8657
  0
LINE
  8
0
 10
-8.63434
 20
34.8657
 11
-7.32117
 21
34.4672
  0
LINE
  8
0
 10
-7.32117
 20
34.4672
 11
-6.11115
 21
33.8202
  0
LINE
  8
0
 10
-6.11115
 20
33.8202
 11
-5.80017
 21
33.5651
  0
LINE
  8
0
 10
-5.80017
 20
33.5651
 11
-6.54968
 21
32.9498
  0
LINE
  8
0
 10
-6.54968
 20
32.9498
 11
-7.42004
 21
31.889
  0
LINE
  8
0
 10
-7.42004
 20
31.889
 11
-8.06732
 21
30.6787
  0
LINE
  8
0
 10
-8.06732
 20
30.6787
 11
-8.46527
 21
29.3655
  0
LINE
  8
0
 10
-8.46527
 20
29.3655
 11
-8.59985
 21
28.0002
  0
LINE
  8
0
 10
-8.59985
 20
28.0002
 11
-8.46527
 21
26.6348
  0
LINE
  8
0
 10
-8.46527
 20
26.6348
 11
-8.06732
 21
25.3217
  0
LINE
  8
0
 10
-8.06732
 20
25.3217
 11
-7.42004
 21
24.1113
  0
LINE
  8
0
 10
-7.42004
 20
24.1113
 11
-6.54968
 21
23.0505
  0
LINE
  8
0
 10
-6.54968
 20
23.0505
 11
-5.80017
 21
22.4353
  0
LINE
  8
0
 10
-5.80017
 20
22.4353
 11
-6.11115
 21
22.1799
  0
LINE
  8
0
 10
-6.11115
 20
22.1799
 11
-7.32117
 21
21.5332
  0
LINE
  8
0
 10
-7.32117
 20
21.5332
 11
-8.63434
 21
21.1346
  0
LINE
  8
0
 10
-8.63434
 20
21.1346
 11
-10
 21
21.0001
  0
LINE
  8
0
 10
-10
 20
21.0001
 11
-11.3654
 21
21.1346
  0
LINE
  8
0
 10
-35.3653
 20
21.1346
 11
-36.6785
 21
21.5332
  0
LINE
  8
0
 10
-36.6785
 20
21.5332
 11
-37.8885
 21
22.1799
  0
LINE
  8
0
 10
-37.8885
 20
22.1799
 11
-38.1998
 21
22.4353
  0
LINE
  8
0
 10
-38.1998
 20
22.4353
 11
-37.45
 21
23.0505
  0
LINE
  8
0
 10
-37.45
 20
23.0505
 11
-36.5796
 21
24.1113
  0
LINE
  8
0
 10
-36.5796
 20
24.1113
 11
-35.9326
 21
25.3217
  0
LINE
  8
0
 10
-35.9326
 20
25.3217
 11
-35.5344
 21
26.6348
  0
LINE
  8
0
 10
-35.5344
 20
26.6348
 11
-35.3998
 21
28.0002
  0
LINE
  8
0
 10
-35.3998
 20
28.0002
 11
-35.5344
 21
29.3655
  0
LINE
  8
0
 10
-35.5344
 20
29.3655
 11
-35.9326
 21
30.6787
  0
LINE
  8
0
 10
-35.9326
 20
30.6787
 11
-36.5796
 21
31.889
  0
LINE
  8
0
 10
-36.5796
 20
31.889
 11
-37.45
 21
32.9498
  0
LINE
  8
0
 10
-37.45
 20
32.9498
 11
-38.1998
 21
33.5651
  0
LINE
  8
0
 10
-38.1998
 20
33.5651
 11
-37.8885
 21
33.8202
  0
LINE
  8
0
 10
-37.8885
 20
33.8202
 11
-36.6785
 21
34.4672
  0
LINE
  8
0
 10
-36.6785
 20
34.4672
 11
-35.3653
 21
34.8657
  0
LINE
  8
0
 10
-35.3653
 20
34.8657
 11
-33.9999
 21
35.0003
  0
LINE
  8
0
 10
-33.9999
 20
35.0003
 11
-32.6343
 21
34.8657
  0
LINE
  8
0
 10
-32.6343
 20
34.8657
 11
-31.3211
 21
34.4672
  0
LINE
  8
0
 10
-31.3211
 20
34.4672
 11
-30.1111
 21
33.8202
  0
LINE
  8
0
 10
-30.1111
 20
33.8202
 11
-29.8001
 21
33.5651
  0
LINE
  8
0
 10
-29.8001
 20
33.5651
 11
-30.5496
 21
32.9498
  0
LINE
  8
0
 10
-30.5496
 20
32.9498
 11
-31.42
 21
31.889
  0
LINE
  8
0
 10
-31.42
 20
31.889
 11
-32.0673
 21
30.6787
  0
LINE
  8
0
 10
-32.0673
 20
30.6787
 11
-32.4655
 21
29.3655
  0
LINE
  8
0
 10
-32.4655
 20
29.3655
 11
-32.6001
 21
28.0002
  0
LINE
  8
0
 10
-32.6001
 20
28.0002
 11
-32.4655
 21
26.6348
  0
LINE
  8
0
 10
-32.4655
 20
26.6348
 11
-32.0673
 21
25.3217
  0
LINE
  8
0
 10
-32.0673
 20
25.3217
 11
-31.42
 21
24.1113
  0
LINE
  8
0
 10
-31.42
 20
24.1113
 11
-30.5496
 21
23.0505
  0
LINE
  8
0
 10
-30.5496
 20
23.0505
 11
-29.8001
 21
22.4353
  0
LINE
  8
0
 10
-29.8001
 20
22.4353
 11
-30.1111
 21
22.1799
  0
LINE
  8
0
 10
-30.1111
 20
22.1799
 11
-31.3211
 21
21.5332
  0
LINE
  8
0
 10
-31.3211
 20
21.5332
 11
-32.6343
 21
21.1346
  0
LINE
  8
0
 10
-32.6343
 20
21.1346
 11
-33.9999
 21
21.0001
  0
LINE
  8
0
 10
-33.9999
 20
21.0001
 11
-35.3653
 21
21.1346
  0
LINE
  8
0
 10
12.6343
 20
21.1346
 11
11.3211
 21
21.5332
  0
LINE
  8
0
 10
11.3211
 20
21.5332
 11
10.1111
 21
22.1799
  0
LINE
  8
0
 10
10.1111
 20
22.1799
 11
9.80011
 21
22.4353
  0
LINE
  8
0
 10
9.80011
 20
22.4353
 11
10.5496
 21
23.0505
  0
LINE
  8
0
 10
10.5496
 20
23.0505
 11
11.4203
 21
24.1113
  0
LINE
  8
0
 10
11.4203
 20
24.1113
 11
12.0673
 21
25.3217
  0
LINE
  8
0
 10
12.0673
 20
25.3217
 11
12.4655
 21
26.6348
  0
LINE
  8
0
 10
12.4655
 20
26.6348
 11
12.6001
 21
28.0002
  0
LINE
  8
0
 10
12.6001
 20
28.0002
 11
12.4655
 21
29.3655
  0
LINE
  8
0
 10
12.4655
 20
29.3655
 11
12.0673
 21
30.6787
  0
LINE
  8
0
 10
12.0673
 20
30.6787
 11
11.4203
 21
31.889
  0
LINE
  8
0
 10
11.4203
 20
31.889
 11
10.5496
 21
32.9498
  0
LINE
  8
0
 10
10.5496
 20
32.9498
 11
9.80011
 21
33.5651
  0
LINE
  8
0
 10
9.80011
 20
33.5651
 11
10.1111
 21
33.8202
  0
LINE
  8
0
 10
10.1111
 20
33.8202
 11
11.3211
 21
34.4672
  0
LINE
  8
0
 10
11.3211
 20
34.4672
 11
12.6343
 21
34.8657
  0
LINE
  8
0
 10
12.6343
 20
34.8657
 11
13.9999
 21
35.0003
  0
LINE
  8
0
 10
13.9999
 20
35.0003
 11
15.3653
 21
34.8657
  0
LINE
  8
0
 10
15.3653
 20
34.8657
 11
16.6785
 21
34.4672
  0
LINE
  8
0
 10
16.6785
 20
34.4672
 11
17.8888
 21
33.8202
  0
LINE
  8
0
 10
17.8888
 20
33.8202
 11
18.1998
 21
33.5651
  0
LINE
  8
0
 10
18.1998
 20
33.5651
 11
17.45
 21
32.9498
  0
LINE
  8
0
 10
17.45
 20
32.9498
 11
16.5796
 21
31.889
  0
LINE
  8
0
 10
16.5796
 20
31.889
 11
15.9326
 21
30.6787
  0
LINE
  8
0
 10
15.9326
 20
30.6787
 11
15.5344
 21
29.3655
  0
LINE
  8
0
 10
15.5344
 20
29.3655
 11
15.3998
 21
28.0002
  0
LINE
  8
0
 10
15.3998
 20
28.0002
 11
15.5344
 21
26.6348
  0
LINE
  8
0
 10
15.5344
 20
26.6348
 11
15.9326
 21
25.3217
  0
LINE
  8
0
 10
15.9326
 20
25.3217
 11
16.5796
 21
24.1113
  0
LINE
  8
0
 10
16.5796
 20
24.1113
 11
17.45
 21
23.0505
  0
LINE
  8
0
 10
17.45
 20
23.0505
 11
18.1998
 21
22.4353
  0
LINE
  8
0
 10
18.1998
 20
22.4353
 11
17.8888
 21
22.1799
  0
LINE
  8
0
 10
17.8888
 20
22.1799
 11
16.6785
 21
21.5332
  0
LINE
  8
0
 10
16.6785
 20
21.5332
 11
15.3653
 21
21.1346
  0
LINE
  8
0
 10
15.3653
 20
21.1346
 11
13.9999
 21
21.0001
  0
LINE
  8
0
 10
13.9999
 20
21.0001
 11
12.6343
 21
21.1346
  0
LINE
  8
0
 10
-41.0501
 20
24.5499
 11
-42.1112
 21
25.4205
  0
LINE
  8
0
 10
-42.1112
 20
25.4205
 11
-43.3212
 21
26.0675
  0
LINE
  8
0
 10
-43.3212
 20
26.0675
 11
-44.6344
 21
26.4658
  0
LINE
  8
0
 10
-44.6344
 20
26.4658
 11
-45.9998
 21
26.6003
  0
LINE
  8
0
 10
-45.9998
 20
26.6003
 11
-47.3654
 21
26.4658
  0
LINE
  8
0
 10
-47.3654
 20
26.4658
 11
-48.6786
 21
26.0675
  0
LINE
  8
0
 10
-48.6786
 20
26.0675
 11
-49.8886
 21
25.4205
  0
LINE
  8
0
 10
-49.8886
 20
25.4205
 11
-50.9494
 21
24.5499
  0
LINE
  8
0
 10
-50.9494
 20
24.5499
 11
-51.5646
 21
23.8004
  0
LINE
  8
0
 10
-51.5646
 20
23.8004
 11
-51.8201
 21
24.1113
  0
LINE
  8
0
 10
-51.8201
 20
24.1113
 11
-52.4667
 21
25.3217
  0
LINE
  8
0
 10
-52.4667
 20
25.3217
 11
-52.8653
 21
26.6348
  0
LINE
  8
0
 10
-52.8653
 20
26.6348
 11
-52.9999
 21
28.0002
  0
LINE
  8
0
 10
-52.9999
 20
28.0002
 11
-52.8759
 21
29.2582
  0
LINE
  8
0
 10
-52.8759
 20
29.2582
 11
-52.333
 21
30.929
  0
LINE
  8
0
 10
-52.333
 20
30.929
 11
-51.8201
 21
31.889
  0
LINE
  8
0
 10
-51.8201
 20
31.889
 11
-51.5646
 21
32.2
  0
LINE
  8
0
 10
-51.5646
 20
32.2
 11
-50.9494
 21
31.4505
  0
LINE
  8
0
 10
-50.9494
 20
31.4505
 11
-49.8886
 21
30.5798
  0
LINE
  8
0
 10
-49.8886
 20
30.5798
 11
-48.6786
 21
29.9329
  0
LINE
  8
0
 10
-48.6786
 20
29.9329
 11
-47.3654
 21
29.5346
  0
LINE
  8
0
 10
-47.3654
 20
29.5346
 11
-45.9998
 21
29.4
  0
LINE
  8
0
 10
-45.9998
 20
29.4
 11
-44.6344
 21
29.5346
  0
LINE
  8
0
 10
-44.6344
 20
29.5346
 11
-43.3212
 21
29.9329
  0
LINE
  8
0
 10
-43.3212
 20
29.9329
 11
-42.1112
 21
30.5798
  0
LINE
  8
0
 10
-42.1112
 20
30.5798
 11
-41.0501
 21
31.4505
  0
LINE
  8
0
 10
-41.0501
 20
31.4505
 11
-40.4349
 21
32.2
  0
LINE
  8
0
 10
-40.4349
 20
32.2
 11
-40.1797
 21
31.889
  0
LINE
  8
0
 10
-40.1797
 20
31.889
 11
-39.5328
 21
30.6787
  0
LINE
  8
0
 10
-39.5328
 20
30.6787
 11
-39.1345
 21
29.3655
  0
LINE
  8
0
 10
-39.1345
 20
29.3655
 11
-38.9999
 21
28.0002
  0
LINE
  8
0
 10
-38.9999
 20
28.0002
 11
-39.1345
 21
26.6348
  0
LINE
  8
0
 10
-39.1345
 20
26.6348
 11
-39.5328
 21
25.3217
  0
LINE
  8
0
 10
-39.5328
 20
25.3217
 11
-40.1797
 21
24.1113
  0
LINE
  8
0
 10
-40.1797
 20
24.1113
 11
-40.4349
 21
23.8004
  0
LINE
  8
0
 10
-40.4349
 20
23.8004
 11
-41.0501
 21
24.5499
  0
LINE
  8
0
 10
6.94946
 20
24.5499
 11
5.88867
 21
25.4205
  0
LINE
  8
0
 10
5.88867
 20
25.4205
 11
4.67834
 21
26.0675
  0
LINE
  8
0
 10
4.67834
 20
26.0675
 11
3.36548
 21
26.4658
  0
LINE
  8
0
 10
3.36548
 20
26.4658
 11
1.99982
 21
26.6003
  0
LINE
  8
0
 10
1.99982
 20
26.6003
 11
0.63446
 21
26.4658
  0
LINE
  8
0
 10
0.63446
 20
26.4658
 11
-0.678406
 21
26.0675
  0
LINE
  8
0
 10
-0.678406
 20
26.0675
 11
-1.88873
 21
25.4205
  0
LINE
  8
0
 10
-1.88873
 20
25.4205
 11
-2.94952
 21
24.5499
  0
LINE
  8
0
 10
-2.94952
 20
24.5499
 11
-3.56476
 21
23.8004
  0
LINE
  8
0
 10
-3.56476
 20
23.8004
 11
-3.81989
 21
24.1113
  0
LINE
  8
0
 10
-3.81989
 20
24.1113
 11
-4.46686
 21
25.3217
  0
LINE
  8
0
 10
-4.46686
 20
25.3217
 11
-4.86511
 21
26.6348
  0
LINE
  8
0
 10
-4.86511
 20
26.6348
 11
-4.99969
 21
28.0002
  0
LINE
  8
0
 10
-4.99969
 20
28.0002
 11
-4.86511
 21
29.3655
  0
LINE
  8
0
 10
-4.86511
 20
29.3655
 11
-4.46686
 21
30.6787
  0
LINE
  8
0
 10
-4.46686
 20
30.6787
 11
-3.81989
 21
31.889
  0
LINE
  8
0
 10
-3.81989
 20
31.889
 11
-3.56476
 21
32.2
  0
LINE
  8
0
 10
-3.56476
 20
32.2
 11
-2.94952
 21
31.4505
  0
LINE
  8
0
 10
-2.94952
 20
31.4505
 11
-1.88873
 21
30.5798
  0
LINE
  8
0
 10
-1.88873
 20
30.5798
 11
-0.678406
 21
29.9329
  0
LINE
  8
0
 10
-0.678406
 20
29.9329
 11
0.63446
 21
29.5346
  0
LINE
  8
0
 10
0.63446
 20
29.5346
 11
1.99982
 21
29.4
  0
LINE
  8
0
 10
1.99982
 20
29.4
 11
3.36548
 21
29.5346
  0
LINE
  8
0
 10
3.36548
 20
29.5346
 11
4.67834
 21
29.9329
  0
LINE
  8
0
 10
4.67834
 20
29.9329
 11
5.88867
 21
30.5798
  0
LINE
  8
0
 10
5.88867
 20
30.5798
 11
6.94946
 21
31.4505
  0
LINE
  8
0
 10
6.94946
 20
31.4505
 11
7.5647
 21
32.2
  0
LINE
  8
0
 10
7.5647
 20
32.2
 11
7.82013
 21
31.889
  0
LINE
  8
0
 10
7.82013
 20
31.889
 11
8.4668
 21
30.6787
  0
LINE
  8
0
 10
8.4668
 20
30.6787
 11
8.86536
 21
29.3655
  0
LINE
  8
0
 10
8.86536
 20
29.3655
 11
8.99994
 21
28.0002
  0
LINE
  8
0
 10
8.99994
 20
28.0002
 11
8.86536
 21
26.6348
  0
LINE
  8
0
 10
8.86536
 20
26.6348
 11
8.4668
 21
25.3217
  0
LINE
  8
0
 10
8.4668
 20
25.3217
 11
7.82013
 21
24.1113
  0
LINE
  8
0
 10
7.82013
 20
24.1113
 11
7.5647
 21
23.8004
  0
LINE
  8
0
 10
7.5647
 20
23.8004
 11
6.94946
 21
24.5499
  0
LINE
  8
0
 10
-17.0502
 20
24.5499
 11
-18.111
 21
25.4205
  0
LINE
  8
0
 10
-18.111
 20
25.4205
 11
-19.3213
 21
26.0675
  0
LINE
  8
0
 10
-19.3213
 20
26.0675
 11
-20.6345
 21
26.4658
  0
LINE
  8
0
 10
-20.6345
 20
26.4658
 11
-21.9998
 21
26.6003
  0
LINE
  8
0
 10
-21.9998
 20
26.6003
 11
-23.3652
 21
26.4658
  0
LINE
  8
0
 10
-23.3652
 20
26.4658
 11
-24.6783
 21
26.0675
  0
LINE
  8
0
 10
-24.6783
 20
26.0675
 11
-25.8887
 21
25.4205
  0
LINE
  8
0
 10
-25.8887
 20
25.4205
 11
-26.9495
 21
24.5499
  0
LINE
  8
0
 10
-26.9495
 20
24.5499
 11
-27.5647
 21
23.8004
  0
LINE
  8
0
 10
-27.5647
 20
23.8004
 11
-27.8201
 21
24.1113
  0
LINE
  8
0
 10
-27.8201
 20
24.1113
 11
-28.4668
 21
25.3217
  0
LINE
  8
0
 10
-28.4668
 20
25.3217
 11
-28.8654
 21
26.6348
  0
LINE
  8
0
 10
-28.8654
 20
26.6348
 11
-28.9999
 21
28.0002
  0
LINE
  8
0
 10
-28.9999
 20
28.0002
 11
-28.8654
 21
29.3655
  0
LINE
  8
0
 10
-28.8654
 20
29.3655
 11
-28.4668
 21
30.6787
  0
LINE
  8
0
 10
-28.4668
 20
30.6787
 11
-27.8201
 21
31.889
  0
LINE
  8
0
 10
-27.8201
 20
31.889
 11
-27.5647
 21
32.2
  0
LINE
  8
0
 10
-27.5647
 20
32.2
 11
-26.9495
 21
31.4505
  0
LINE
  8
0
 10
-26.9495
 20
31.4505
 11
-25.8887
 21
30.5798
  0
LINE
  8
0
 10
-25.8887
 20
30.5798
 11
-24.6783
 21
29.9329
  0
LINE
  8
0
 10
-24.6783
 20
29.9329
 11
-23.3652
 21
29.5346
  0
LINE
  8
0
 10
-23.3652
 20
29.5346
 11
-21.9998
 21
29.4
  0
LINE
  8
0
 10
-21.9998
 20
29.4
 11
-20.6345
 21
29.5346
  0
LINE
  8
0
 10
-20.6345
 20
29.5346
 11
-19.3213
 21
29.9329
  0
LINE
  8
0
 10
-19.3213
 20
29.9329
 11
-18.111
 21
30.5798
  0
LINE
  8
0
 10
-18.111
 20
30.5798
 11
-17.0502
 21
31.4505
  0
LINE
  8
0
 10
-17.0502
 20
31.4505
 11
-16.4349
 21
32.2
  0
LINE
  8
0
 10
-16.4349
 20
32.2
 11
-16.1798
 21
31.889
  0
LINE
  8
0
 10
-16.1798
 20
31.889
 11
-15.5328
 21
30.6787
  0
LINE
  8
0
 10
-15.5328
 20
30.6787
 11
-15.1343
 21
29.3655
  0
LINE
  8
0
 10
-15.1343
 20
29.3655
 11
-14.9997
 21
28.0002
  0
LINE
  8
0
 10
-14.9997
 20
28.0002
 11
-15.1343
 21
26.6348
  0
LINE
  8
0
 10
-15.1343
 20
26.6348
 11
-15.5328
 21
25.3217
  0
LINE
  8
0
 10
-15.5328
 20
25.3217
 11
-16.1798
 21
24.1113
  0
LINE
  8
0
 10
-16.1798
 20
24.1113
 11
-16.4349
 21
23.8004
  0
LINE
  8
0
 10
-16.4349
 20
23.8004
 11
-17.0502
 21
24.5499
  0
LINE
  8
0
 10
44.1797
 20
24.1113
 11
43.5327
 21
25.3217
  0
LINE
  8
0
 10
43.5327
 20
25.3217
 11
43.1345
 21
26.6348
  0
LINE
  8
0
 10
43.1345
 20
26.6348
 11
42.9999
 21
28.0002
  0
LINE
  8
0
 10
42.9999
 20
28.0002
 11
43.1345
 21
29.3655
  0
LINE
  8
0
 10
43.1345
 20
29.3655
 11
43.5327
 21
30.6787
  0
LINE
  8
0
 10
43.5327
 20
30.6787
 11
44.1797
 21
31.889
  0
LINE
  8
0
 10
44.1797
 20
31.889
 11
44.4351
 21
32.2
  0
LINE
  8
0
 10
44.4351
 20
32.2
 11
45.0504
 21
31.4505
  0
LINE
  8
0
 10
45.0504
 20
31.4505
 11
46.1111
 21
30.5798
  0
LINE
  8
0
 10
46.1111
 20
30.5798
 11
47.3212
 21
29.9329
  0
LINE
  8
0
 10
47.3212
 20
29.9329
 11
48.6343
 21
29.5346
  0
LINE
  8
0
 10
48.6343
 20
29.5346
 11
50
 21
29.4
  0
LINE
  8
0
 10
50
 20
29.4
 11
51.3654
 21
29.5346
  0
LINE
  8
0
 10
51.3654
 20
29.5346
 11
52.6586
 21
29.9268
  0
LINE
  8
0
 10
52.6586
 20
29.9268
 11
54.208
 21
25.1584
  0
LINE
  8
0
 10
54.208
 20
25.1584
 11
53.8885
 21
25.4205
  0
LINE
  8
0
 10
53.8885
 20
25.4205
 11
52.6785
 21
26.0675
  0
LINE
  8
0
 10
52.6785
 20
26.0675
 11
51.3654
 21
26.4658
  0
LINE
  8
0
 10
51.3654
 20
26.4658
 11
50
 21
26.6003
  0
LINE
  8
0
 10
50
 20
26.6003
 11
48.6343
 21
26.4658
  0
LINE
  8
0
 10
48.6343
 20
26.4658
 11
47.3212
 21
26.0675
  0
LINE
  8
0
 10
47.3212
 20
26.0675
 11
46.1111
 21
25.4205
  0
LINE
  8
0
 10
46.1111
 20
25.4205
 11
45.0504
 21
24.5499
  0
LINE
  8
0
 10
45.0504
 20
24.5499
 11
44.4351
 21
23.8004
  0
LINE
  8
0
 10
44.4351
 20
23.8004
 11
44.1797
 21
24.1113
  0
LINE
  8
0
 10
30.9494
 20
24.5499
 11
29.8886
 21
25.4205
  0
LINE
  8
0
 10
29.8886
 20
25.4205
 11
28.6786
 21
26.0675
  0
LINE
  8
0
 10
28.6786
 20
26.0675
 11
27.3654
 21
26.4658
  0
LINE
  8
0
 10
27.3654
 20
26.4658
 11
25.9998
 21
26.6003
  0
LINE
  8
0
 10
25.9998
 20
26.6003
 11
24.6344
 21
26.4658
  0
LINE
  8
0
 10
24.6344
 20
26.4658
 11
23.3212
 21
26.0675
  0
LINE
  8
0
 10
23.3212
 20
26.0675
 11
22.1112
 21
25.4205
  0
LINE
  8
0
 10
22.1112
 20
25.4205
 11
21.0501
 21
24.5499
  0
LINE
  8
0
 10
21.0501
 20
24.5499
 11
20.4349
 21
23.8004
  0
LINE
  8
0
 10
20.4349
 20
23.8004
 11
20.1797
 21
24.1113
  0
LINE
  8
0
 10
20.1797
 20
24.1113
 11
19.5328
 21
25.3217
  0
LINE
  8
0
 10
19.5328
 20
25.3217
 11
19.1345
 21
26.6348
  0
LINE
  8
0
 10
19.1345
 20
26.6348
 11
18.9999
 21
28.0002
  0
LINE
  8
0
 10
18.9999
 20
28.0002
 11
19.1345
 21
29.3655
  0
LINE
  8
0
 10
19.1345
 20
29.3655
 11
19.5328
 21
30.6787
  0
LINE
  8
0
 10
19.5328
 20
30.6787
 11
20.1797
 21
31.889
  0
LINE
  8
0
 10
20.1797
 20
31.889
 11
20.4349
 21
32.2
  0
LINE
  8
0
 10
20.4349
 20
32.2
 11
21.0501
 21
31.4505
  0
LINE
  8
0
 10
21.0501
 20
31.4505
 11
22.1112
 21
30.5798
  0
LINE
  8
0
 10
22.1112
 20
30.5798
 11
23.3212
 21
29.9329
  0
LINE
  8
0
 10
23.3212
 20
29.9329
 11
24.6344
 21
29.5346
  0
LINE
  8
0
 10
24.6344
 20
29.5346
 11
25.9998
 21
29.4
  0
LINE
  8
0
 10
25.9998
 20
29.4
 11
27.3654
 21
29.5346
  0
LINE
  8
0
 10
27.3654
 20
29.5346
 11
28.6786
 21
29.9329
  0
LINE
  8
0
 10
28.6786
 20
29.9329
 11
29.8886
 21
30.5798
  0
LINE
  8
0
 10
29.8886
 20
30.5798
 11
30.9494
 21
31.4505
  0
LINE
  8
0
 10
30.9494
 20
31.4505
 11
31.5646
 21
32.2
  0
LINE
  8
0
 10
31.5646
 20
32.2
 11
31.8201
 21
31.889
  0
LINE
  8
0
 10
31.8201
 20
31.889
 11
32.4667
 21
30.6787
  0
LINE
  8
0
 10
32.4667
 20
30.6787
 11
32.8653
 21
29.3655
  0
LINE
  8
0
 10
32.8653
 20
29.3655
 11
32.9999
 21
28.0002
  0
LINE
  8
0
 10
32.9999
 20
28.0002
 11
32.8653
 21
26.6348
  0
LINE
  8
0
 10
32.8653
 20
26.6348
 11
32.4667
 21
25.3217
  0
LINE
  8
0
 10
32.4667
 20
25.3217
 11
31.8201
 21
24.1113
  0
LINE
  8
0
 10
31.8201
 20
24.1113
 11
31.5646
 21
23.8004
  0
LINE
  8
0
 10
31.5646
 20
23.8004
 11
30.9494
 21
24.5499
  0
LINE
  8
0
 10
-54.7955
 20
23.3502
 11
-54.5496
 21
23.0505
  0
LINE
  8
0
 10
-54.5496
 20
23.0505
 11
-53.8
 21
22.4353
  0
LINE
  8
0
 10
-53.8
 20
22.4353
 11
-54.111
 21
22.1799
  0
LINE
  8
0
 10
-54.111
 20
22.1799
 11
-55.3214
 21
21.5332
  0
LINE
  8
0
 10
-55.3214
 20
21.5332
 11
-55.3929
 21
21.5115
  0
LINE
  8
0
 10
-55.3929
 20
21.5115
 11
-54.7955
 21
23.3502
  0
LINE
  8
0
 10
-48.671
 20
12
 11
-48.5797
 21
12.1112
  0
LINE
  8
0
 10
-48.5797
 20
12.1112
 11
-47.9324
 21
13.3215
  0
LINE
  8
0
 10
-47.9324
 20
13.3215
 11
-47.5342
 21
14.6347
  0
LINE
  8
0
 10
-47.5342
 20
14.6347
 11
-47.3996
 21
16.0001
  0
LINE
  8
0
 10
-47.3996
 20
16.0001
 11
-47.5342
 21
17.3657
  0
LINE
  8
0
 10
-47.5342
 20
17.3657
 11
-47.9324
 21
18.6789
  0
LINE
  8
0
 10
-47.9324
 20
18.6789
 11
-48.5797
 21
19.8889
  0
LINE
  8
0
 10
-48.5797
 20
19.8889
 11
-49.4501
 21
20.9497
  0
LINE
  8
0
 10
-49.4501
 20
20.9497
 11
-50.1996
 21
21.5649
  0
LINE
  8
0
 10
-50.1996
 20
21.5649
 11
-49.8886
 21
21.8204
  0
LINE
  8
0
 10
-49.8886
 20
21.8204
 11
-48.6786
 21
22.467
  0
LINE
  8
0
 10
-48.6786
 20
22.467
 11
-47.3654
 21
22.8656
  0
LINE
  8
0
 10
-47.3654
 20
22.8656
 11
-45.9998
 21
23.0002
  0
LINE
  8
0
 10
-45.9998
 20
23.0002
 11
-44.6344
 21
22.8656
  0
LINE
  8
0
 10
-44.6344
 20
22.8656
 11
-43.3212
 21
22.467
  0
LINE
  8
0
 10
-43.3212
 20
22.467
 11
-42.1112
 21
21.8204
  0
LINE
  8
0
 10
-42.1112
 20
21.8204
 11
-41.7999
 21
21.5649
  0
LINE
  8
0
 10
-41.7999
 20
21.5649
 11
-42.5497
 21
20.9497
  0
LINE
  8
0
 10
-42.5497
 20
20.9497
 11
-43.4201
 21
19.8889
  0
LINE
  8
0
 10
-43.4201
 20
19.8889
 11
-44.0671
 21
18.6789
  0
LINE
  8
0
 10
-44.0671
 20
18.6789
 11
-44.4653
 21
17.3657
  0
LINE
  8
0
 10
-44.4653
 20
17.3657
 11
-44.5999
 21
16.0001
  0
LINE
  8
0
 10
-44.5999
 20
16.0001
 11
-44.4653
 21
14.6347
  0
LINE
  8
0
 10
-44.4653
 20
14.6347
 11
-44.0671
 21
13.3215
  0
LINE
  8
0
 10
-44.0671
 20
13.3215
 11
-43.4201
 21
12.1112
  0
LINE
  8
0
 10
-43.4201
 20
12.1112
 11
-43.3289
 21
12
  0
LINE
  8
0
 10
-43.3289
 20
12
 11
-48.671
 21
12
  0
LINE
  8
0
 10
47.3288
 20
12
 11
47.42
 21
12.1112
  0
LINE
  8
0
 10
47.42
 20
12.1112
 11
48.0673
 21
13.3215
  0
LINE
  8
0
 10
48.0673
 20
13.3215
 11
48.4653
 21
14.6347
  0
LINE
  8
0
 10
48.4653
 20
14.6347
 11
48.5999
 21
16.0001
  0
LINE
  8
0
 10
48.5999
 20
16.0001
 11
48.4653
 21
17.3657
  0
LINE
  8
0
 10
48.4653
 20
17.3657
 11
48.0673
 21
18.6789
  0
LINE
  8
0
 10
48.0673
 20
18.6789
 11
47.42
 21
19.8889
  0
LINE
  8
0
 10
47.42
 20
19.8889
 11
46.5497
 21
20.9497
  0
LINE
  8
0
 10
46.5497
 20
20.9497
 11
45.8002
 21
21.5649
  0
LINE
  8
0
 10
45.8002
 20
21.5649
 11
46.1111
 21
21.8204
  0
LINE
  8
0
 10
46.1111
 20
21.8204
 11
47.3212
 21
22.467
  0
LINE
  8
0
 10
47.3212
 20
22.467
 11
48.6343
 21
22.8656
  0
LINE
  8
0
 10
48.6343
 20
22.8656
 11
50
 21
23.0002
  0
LINE
  8
0
 10
50
 20
23.0002
 11
51.3654
 21
22.8656
  0
LINE
  8
0
 10
51.3654
 20
22.8656
 11
52.6785
 21
22.467
  0
LINE
  8
0
 10
52.6785
 20
22.467
 11
53.8885
 21
21.8204
  0
LINE
  8
0
 10
53.8885
 20
21.8204
 11
54.1998
 21
21.5649
  0
LINE
  8
0
 10
54.1998
 20
21.5649
 11
53.45
 21
20.9497
  0
LINE
  8
0
 10
53.45
 20
20.9497
 11
52.5797
 21
19.8889
  0
LINE
  8
0
 10
52.5797
 20
19.8889
 11
51.9324
 21
18.6789
  0
LINE
  8
0
 10
51.9324
 20
18.6789
 11
51.5344
 21
17.3657
  0
LINE
  8
0
 10
51.5344
 20
17.3657
 11
51.3998
 21
16.0001
  0
LINE
  8
0
 10
51.3998
 20
16.0001
 11
51.5344
 21
14.6347
  0
LINE
  8
0
 10
51.5344
 20
14.6347
 11
51.9324
 21
13.3215
  0
LINE
  8
0
 10
51.9324
 20
13.3215
 11
52.5797
 21
12.1112
  0
LINE
  8
0
 10
52.5797
 20
12.1112
 11
52.6709
 21
12
  0
LINE
  8
0
 10
52.6709
 20
12
 11
47.3288
 21
12
  0
LINE
  8
0
 10
-0.670807
 20
12
 11
-0.579529
 21
12.1112
  0
LINE
  8
0
 10
-0.579529
 20
12.1112
 11
0.0671387
 21
13.3215
  0
LINE
  8
0
 10
0.0671387
 20
13.3215
 11
0.465393
 21
14.6347
  0
LINE
  8
0
 10
0.465393
 20
14.6347
 11
0.599976
 21
16.0001
  0
LINE
  8
0
 10
0.599976
 20
16.0001
 11
0.465393
 21
17.3657
  0
LINE
  8
0
 10
0.465393
 20
17.3657
 11
0.0671387
 21
18.6789
  0
LINE
  8
0
 10
0.0671387
 20
18.6789
 11
-0.579529
 21
19.8889
  0
LINE
  8
0
 10
-0.579529
 20
19.8889
 11
-1.4502
 21
20.9497
  0
LINE
  8
0
 10
-1.4502
 20
20.9497
 11
-2.19971
 21
21.5649
  0
LINE
  8
0
 10
-2.19971
 20
21.5649
 11
-1.88873
 21
21.8204
  0
LINE
  8
0
 10
-1.88873
 20
21.8204
 11
-0.678406
 21
22.467
  0
LINE
  8
0
 10
-0.678406
 20
22.467
 11
0.63446
 21
22.8656
  0
LINE
  8
0
 10
0.63446
 20
22.8656
 11
1.99982
 21
23.0002
  0
LINE
  8
0
 10
1.99982
 20
23.0002
 11
3.36548
 21
22.8656
  0
LINE
  8
0
 10
3.36548
 20
22.8656
 11
4.67834
 21
22.467
  0
LINE
  8
0
 10
4.67834
 20
22.467
 11
5.88867
 21
21.8204
  0
LINE
  8
0
 10
5.88867
 20
21.8204
 11
6.19965
 21
21.5649
  0
LINE
  8
0
 10
6.19965
 20
21.5649
 11
5.45013
 21
20.9497
  0
LINE
  8
0
 10
5.45013
 20
20.9497
 11
4.57947
 21
19.8889
  0
LINE
  8
0
 10
4.57947
 20
19.8889
 11
3.9325
 21
18.6789
  0
LINE
  8
0
 10
3.9325
 20
18.6789
 11
3.53424
 21
17.3657
  0
LINE
  8
0
 10
3.53424
 20
17.3657
 11
3.39966
 21
16.0001
  0
LINE
  8
0
 10
3.39966
 20
16.0001
 11
3.53424
 21
14.6347
  0
LINE
  8
0
 10
3.53424
 20
14.6347
 11
3.9325
 21
13.3215
  0
LINE
  8
0
 10
3.9325
 20
13.3215
 11
4.57947
 21
12.1112
  0
LINE
  8
0
 10
4.57947
 20
12.1112
 11
4.67075
 21
12
  0
LINE
  8
0
 10
4.67075
 20
12
 11
-0.670807
 21
12
  0
LINE
  8
0
 10
23.3289
 20
12
 11
23.4201
 21
12.1112
  0
LINE
  8
0
 10
23.4201
 20
12.1112
 11
24.0671
 21
13.3215
  0
LINE
  8
0
 10
24.0671
 20
13.3215
 11
24.4653
 21
14.6347
  0
LINE
  8
0
 10
24.4653
 20
14.6347
 11
24.5999
 21
16.0001
  0
LINE
  8
0
 10
24.5999
 20
16.0001
 11
24.4653
 21
17.3657
  0
LINE
  8
0
 10
24.4653
 20
17.3657
 11
24.0671
 21
18.6789
  0
LINE
  8
0
 10
24.0671
 20
18.6789
 11
23.4201
 21
19.8889
  0
LINE
  8
0
 10
23.4201
 20
19.8889
 11
22.5497
 21
20.9497
  0
LINE
  8
0
 10
22.5497
 20
20.9497
 11
21.7999
 21
21.5649
  0
LINE
  8
0
 10
21.7999
 20
21.5649
 11
22.1112
 21
21.8204
  0
LINE
  8
0
 10
22.1112
 20
21.8204
 11
23.3212
 21
22.467
  0
LINE
  8
0
 10
23.3212
 20
22.467
 11
24.6344
 21
22.8656
  0
LINE
  8
0
 10
24.6344
 20
22.8656
 11
25.9998
 21
23.0002
  0
LINE
  8
0
 10
25.9998
 20
23.0002
 11
27.3654
 21
22.8656
  0
LINE
  8
0
 10
27.3654
 20
22.8656
 11
28.6786
 21
22.467
  0
LINE
  8
0
 10
28.6786
 20
22.467
 11
29.8886
 21
21.8204
  0
LINE
  8
0
 10
29.8886
 20
21.8204
 11
30.1996
 21
21.5649
  0
LINE
  8
0
 10
30.1996
 20
21.5649
 11
29.4501
 21
20.9497
  0
LINE
  8
0
 10
29.4501
 20
20.9497
 11
28.5797
 21
19.8889
  0
LINE
  8
0
 10
28.5797
 20
19.8889
 11
27.9324
 21
18.6789
  0
LINE
  8
0
 10
27.9324
 20
18.6789
 11
27.5342
 21
17.3657
  0
LINE
  8
0
 10
27.5342
 20
17.3657
 11
27.3996
 21
16.0001
  0
LINE
  8
0
 10
27.3996
 20
16.0001
 11
27.5342
 21
14.6347
  0
LINE
  8
0
 10
27.5342
 20
14.6347
 11
27.9324
 21
13.3215
  0
LINE
  8
0
 10
27.9324
 20
13.3215
 11
28.5797
 21
12.1112
  0
LINE
  8
0
 10
28.5797
 20
12.1112
 11
28.671
 21
12
  0
LINE
  8
0
 10
28.671
 20
12
 11
23.3289
 21
12
  0
LINE
  8
0
 10
-24.6707
 20
12
 11
-24.5795
 21
12.1112
  0
LINE
  8
0
 10
-24.5795
 20
12.1112
 11
-23.9325
 21
13.3215
  0
LINE
  8
0
 10
-23.9325
 20
13.3215
 11
-23.5342
 21
14.6347
  0
LINE
  8
0
 10
-23.5342
 20
14.6347
 11
-23.3997
 21
16.0001
  0
LINE
  8
0
 10
-23.3997
 20
16.0001
 11
-23.5342
 21
17.3657
  0
LINE
  8
0
 10
-23.5342
 20
17.3657
 11
-23.9325
 21
18.6789
  0
LINE
  8
0
 10
-23.9325
 20
18.6789
 11
-24.5795
 21
19.8889
  0
LINE
  8
0
 10
-24.5795
 20
19.8889
 11
-25.4501
 21
20.9497
  0
LINE
  8
0
 10
-25.4501
 20
20.9497
 11
-26.1996
 21
21.5649
  0
LINE
  8
0
 10
-26.1996
 20
21.5649
 11
-25.8887
 21
21.8204
  0
LINE
  8
0
 10
-25.8887
 20
21.8204
 11
-24.6783
 21
22.467
  0
LINE
  8
0
 10
-24.6783
 20
22.467
 11
-23.3652
 21
22.8656
  0
LINE
  8
0
 10
-23.3652
 20
22.8656
 11
-21.9998
 21
23.0002
  0
LINE
  8
0
 10
-21.9998
 20
23.0002
 11
-20.6345
 21
22.8656
  0
LINE
  8
0
 10
-20.6345
 20
22.8656
 11
-19.3213
 21
22.467
  0
LINE
  8
0
 10
-19.3213
 20
22.467
 11
-18.111
 21
21.8204
  0
LINE
  8
0
 10
-18.111
 20
21.8204
 11
-17.8
 21
21.5649
  0
LINE
  8
0
 10
-17.8
 20
21.5649
 11
-18.5495
 21
20.9497
  0
LINE
  8
0
 10
-18.5495
 20
20.9497
 11
-19.4202
 21
19.8889
  0
LINE
  8
0
 10
-19.4202
 20
19.8889
 11
-20.0671
 21
18.6789
  0
LINE
  8
0
 10
-20.0671
 20
18.6789
 11
-20.4654
 21
17.3657
  0
LINE
  8
0
 10
-20.4654
 20
17.3657
 11
-20.6
 21
16.0001
  0
LINE
  8
0
 10
-20.6
 20
16.0001
 11
-20.4654
 21
14.6347
  0
LINE
  8
0
 10
-20.4654
 20
14.6347
 11
-20.0671
 21
13.3215
  0
LINE
  8
0
 10
-20.0671
 20
13.3215
 11
-19.4202
 21
12.1112
  0
LINE
  8
0
 10
-19.4202
 20
12.1112
 11
-19.3289
 21
12
  0
LINE
  8
0
 10
-19.3289
 20
12
 11
-24.6707
 21
12
  0
LINE
  8
0
 10
-39.7287
 20
12
 11
-39.8199
 21
12.1112
  0
LINE
  8
0
 10
-39.8199
 20
12.1112
 11
-40.4669
 21
13.3215
  0
LINE
  8
0
 10
-40.4669
 20
13.3215
 11
-40.8652
 21
14.6347
  0
LINE
  8
0
 10
-40.8652
 20
14.6347
 11
-40.9998
 21
16.0001
  0
LINE
  8
0
 10
-40.9998
 20
16.0001
 11
-40.8652
 21
17.3657
  0
LINE
  8
0
 10
-40.8652
 20
17.3657
 11
-40.4669
 21
18.6789
  0
LINE
  8
0
 10
-40.4669
 20
18.6789
 11
-39.8199
 21
19.8889
  0
LINE
  8
0
 10
-39.8199
 20
19.8889
 11
-39.5648
 21
20.1999
  0
LINE
  8
0
 10
-39.5648
 20
20.1999
 11
-38.9496
 21
19.4504
  0
LINE
  8
0
 10
-38.9496
 20
19.4504
 11
-37.8885
 21
18.5797
  0
LINE
  8
0
 10
-37.8885
 20
18.5797
 11
-36.6785
 21
17.9327
  0
LINE
  8
0
 10
-36.6785
 20
17.9327
 11
-35.3653
 21
17.5345
  0
LINE
  8
0
 10
-35.3653
 20
17.5345
 11
-33.9999
 21
17.3999
  0
LINE
  8
0
 10
-33.9999
 20
17.3999
 11
-32.6343
 21
17.5345
  0
LINE
  8
0
 10
-32.6343
 20
17.5345
 11
-31.3211
 21
17.9327
  0
LINE
  8
0
 10
-31.3211
 20
17.9327
 11
-30.1111
 21
18.5797
  0
LINE
  8
0
 10
-30.1111
 20
18.5797
 11
-29.0503
 21
19.4504
  0
LINE
  8
0
 10
-29.0503
 20
19.4504
 11
-28.4351
 21
20.1999
  0
LINE
  8
0
 10
-28.4351
 20
20.1999
 11
-28.1796
 21
19.8889
  0
LINE
  8
0
 10
-28.1796
 20
19.8889
 11
-27.533
 21
18.6789
  0
LINE
  8
0
 10
-27.533
 20
18.6789
 11
-27.1344
 21
17.3657
  0
LINE
  8
0
 10
-27.1344
 20
17.3657
 11
-26.9998
 21
16.0001
  0
LINE
  8
0
 10
-26.9998
 20
16.0001
 11
-27.1344
 21
14.6347
  0
LINE
  8
0
 10
-27.1344
 20
14.6347
 11
-27.533
 21
13.3215
  0
LINE
  8
0
 10
-27.533
 20
13.3215
 11
-28.1796
 21
12.1112
  0
LINE
  8
0
 10
-28.1796
 20
12.1112
 11
-28.271
 21
12
  0
LINE
  8
0
 10
-28.271
 20
12
 11
-28.599
 21
12
  0
LINE
  8
0
 10
-28.599
 20
12
 11
-29.0503
 21
12.55
  0
LINE
  8
0
 10
-29.0503
 20
12.55
 11
-30.1111
 21
13.4204
  0
LINE
  8
0
 10
-30.1111
 20
13.4204
 11
-31.3211
 21
14.0674
  0
LINE
  8
0
 10
-31.3211
 20
14.0674
 11
-32.6343
 21
14.4656
  0
LINE
  8
0
 10
-32.6343
 20
14.4656
 11
-33.9999
 21
14.6002
  0
LINE
  8
0
 10
-33.9999
 20
14.6002
 11
-35.3653
 21
14.4656
  0
LINE
  8
0
 10
-35.3653
 20
14.4656
 11
-36.6785
 21
14.0674
  0
LINE
  8
0
 10
-36.6785
 20
14.0674
 11
-37.8885
 21
13.4204
  0
LINE
  8
0
 10
-37.8885
 20
13.4204
 11
-38.9496
 21
12.55
  0
LINE
  8
0
 10
-38.9496
 20
12.55
 11
-39.4009
 21
12
  0
LINE
  8
0
 10
-39.4009
 20
12
 11
-39.7287
 21
12
  0
LINE
  8
0
 10
-15.7288
 20
12
 11
-15.82
 21
12.1112
  0
LINE
  8
0
 10
-15.82
 20
12.1112
 11
-16.467
 21
13.3215
  0
LINE
  8
0
 10
-16.467
 20
13.3215
 11
-16.8652
 21
14.6347
  0
LINE
  8
0
 10
-16.8652
 20
14.6347
 11
-16.9998
 21
16.0001
  0
LINE
  8
0
 10
-16.9998
 20
16.0001
 11
-16.8652
 21
17.3657
  0
LINE
  8
0
 10
-16.8652
 20
17.3657
 11
-16.467
 21
18.6789
  0
LINE
  8
0
 10
-16.467
 20
18.6789
 11
-15.82
 21
19.8889
  0
LINE
  8
0
 10
-15.82
 20
19.8889
 11
-15.5649
 21
20.1999
  0
LINE
  8
0
 10
-15.5649
 20
20.1999
 11
-14.9496
 21
19.4504
  0
LINE
  8
0
 10
-14.9496
 20
19.4504
 11
-13.8885
 21
18.5797
  0
LINE
  8
0
 10
-13.8885
 20
18.5797
 11
-12.6785
 21
17.9327
  0
LINE
  8
0
 10
-12.6785
 20
17.9327
 11
-11.3654
 21
17.5345
  0
LINE
  8
0
 10
-11.3654
 20
17.5345
 11
-10
 21
17.3999
  0
LINE
  8
0
 10
-10
 20
17.3999
 11
-8.63434
 21
17.5345
  0
LINE
  8
0
 10
-8.63434
 20
17.5345
 11
-7.32117
 21
17.9327
  0
LINE
  8
0
 10
-7.32117
 20
17.9327
 11
-6.11115
 21
18.5797
  0
LINE
  8
0
 10
-6.11115
 20
18.5797
 11
-5.05035
 21
19.4504
  0
LINE
  8
0
 10
-5.05035
 20
19.4504
 11
-4.43512
 21
20.1999
  0
LINE
  8
0
 10
-4.43512
 20
20.1999
 11
-4.17969
 21
19.8889
  0
LINE
  8
0
 10
-4.17969
 20
19.8889
 11
-3.53271
 21
18.6789
  0
LINE
  8
0
 10
-3.53271
 20
18.6789
 11
-3.13446
 21
17.3657
  0
LINE
  8
0
 10
-3.13446
 20
17.3657
 11
-2.99988
 21
16.0001
  0
LINE
  8
0
 10
-2.99988
 20
16.0001
 11
-3.13446
 21
14.6347
  0
LINE
  8
0
 10
-3.13446
 20
14.6347
 11
-3.53271
 21
13.3215
  0
LINE
  8
0
 10
-3.53271
 20
13.3215
 11
-4.17969
 21
12.1112
  0
LINE
  8
0
 10
-4.17969
 20
12.1112
 11
-4.27103
 21
12
  0
LINE
  8
0
 10
-4.27103
 20
12
 11
-4.59903
 21
12
  0
LINE
  8
0
 10
-4.59903
 20
12
 11
-5.05035
 21
12.55
  0
LINE
  8
0
 10
-5.05035
 20
12.55
 11
-6.11115
 21
13.4204
  0
LINE
  8
0
 10
-6.11115
 20
13.4204
 11
-7.32117
 21
14.0674
  0
LINE
  8
0
 10
-7.32117
 20
14.0674
 11
-8.63434
 21
14.4656
  0
LINE
  8
0
 10
-8.63434
 20
14.4656
 11
-10
 21
14.6002
  0
LINE
  8
0
 10
-10
 20
14.6002
 11
-11.3654
 21
14.4656
  0
LINE
  8
0
 10
-11.3654
 20
14.4656
 11
-12.6785
 21
14.0674
  0
LINE
  8
0
 10
-12.6785
 20
14.0674
 11
-13.8885
 21
13.4204
  0
LINE
  8
0
 10
-13.8885
 20
13.4204
 11
-14.9496
 21
12.55
  0
LINE
  8
0
 10
-14.9496
 20
12.55
 11
-15.401
 21
12
  0
LINE
  8
0
 10
-15.401
 20
12
 11
-15.7288
 21
12
  0
LINE
  8
0
 10
-52.5989
 20
12
 11
-53.0502
 21
12.55
  0
LINE
  8
0
 10
-53.0502
 20
12.55
 11
-54.111
 21
13.4204
  0
LINE
  8
0
 10
-54.111
 20
13.4204
 11
-55.3214
 21
14.0674
  0
LINE
  8
0
 10
-55.3214
 20
14.0674
 11
-56.6345
 21
14.4656
  0
LINE
  8
0
 10
-56.6345
 20
14.4656
 11
-57.6498
 21
14.5657
  0
LINE
  8
0
 10
-57.6498
 20
14.5657
 11
-56.6868
 21
17.5293
  0
LINE
  8
0
 10
-56.6868
 20
17.5293
 11
-56.6345
 21
17.5345
  0
LINE
  8
0
 10
-56.6345
 20
17.5345
 11
-55.3214
 21
17.9327
  0
LINE
  8
0
 10
-55.3214
 20
17.9327
 11
-54.111
 21
18.5797
  0
LINE
  8
0
 10
-54.111
 20
18.5797
 11
-53.0502
 21
19.4504
  0
LINE
  8
0
 10
-53.0502
 20
19.4504
 11
-52.435
 21
20.1999
  0
LINE
  8
0
 10
-52.435
 20
20.1999
 11
-52.1796
 21
19.8889
  0
LINE
  8
0
 10
-52.1796
 20
19.8889
 11
-51.5329
 21
18.6789
  0
LINE
  8
0
 10
-51.5329
 20
18.6789
 11
-51.1343
 21
17.3657
  0
LINE
  8
0
 10
-51.1343
 20
17.3657
 11
-50.9998
 21
16.0001
  0
LINE
  8
0
 10
-50.9998
 20
16.0001
 11
-51.1343
 21
14.6347
  0
LINE
  8
0
 10
-51.1343
 20
14.6347
 11
-51.5329
 21
13.3215
  0
LINE
  8
0
 10
-51.5329
 20
13.3215
 11
-52.1796
 21
12.1112
  0
LINE
  8
0
 10
-52.1796
 20
12.1112
 11
-52.2709
 21
12
  0
LINE
  8
0
 10
-52.2709
 20
12
 11
-52.5989
 21
12
  0
LINE
  8
0
 10
32.2709
 20
12
 11
32.1796
 21
12.1112
  0
LINE
  8
0
 10
32.1796
 20
12.1112
 11
31.5329
 21
13.3215
  0
LINE
  8
0
 10
31.5329
 20
13.3215
 11
31.1343
 21
14.6347
  0
LINE
  8
0
 10
31.1343
 20
14.6347
 11
30.9998
 21
16.0001
  0
LINE
  8
0
 10
30.9998
 20
16.0001
 11
31.1343
 21
17.3657
  0
LINE
  8
0
 10
31.1343
 20
17.3657
 11
31.5329
 21
18.6789
  0
LINE
  8
0
 10
31.5329
 20
18.6789
 11
32.1796
 21
19.8889
  0
LINE
  8
0
 10
32.1796
 20
19.8889
 11
32.435
 21
20.1999
  0
LINE
  8
0
 10
32.435
 20
20.1999
 11
33.0502
 21
19.4504
  0
LINE
  8
0
 10
33.0502
 20
19.4504
 11
34.111
 21
18.5797
  0
LINE
  8
0
 10
34.111
 20
18.5797
 11
35.3214
 21
17.9327
  0
LINE
  8
0
 10
35.3214
 20
17.9327
 11
36.6345
 21
17.5345
  0
LINE
  8
0
 10
36.6345
 20
17.5345
 11
37.9999
 21
17.3999
  0
LINE
  8
0
 10
37.9999
 20
17.3999
 11
39.3652
 21
17.5345
  0
LINE
  8
0
 10
39.3652
 20
17.5345
 11
40.6784
 21
17.9327
  0
LINE
  8
0
 10
40.6784
 20
17.9327
 11
41.8887
 21
18.5797
  0
LINE
  8
0
 10
41.8887
 20
18.5797
 11
42.9495
 21
19.4504
  0
LINE
  8
0
 10
42.9495
 20
19.4504
 11
43.5648
 21
20.1999
  0
LINE
  8
0
 10
43.5648
 20
20.1999
 11
43.8199
 21
19.8889
  0
LINE
  8
0
 10
43.8199
 20
19.8889
 11
44.4669
 21
18.6789
  0
LINE
  8
0
 10
44.4669
 20
18.6789
 11
44.8654
 21
17.3657
  0
LINE
  8
0
 10
44.8654
 20
17.3657
 11
45
 21
16.0001
  0
LINE
  8
0
 10
45
 20
16.0001
 11
44.8654
 21
14.6347
  0
LINE
  8
0
 10
44.8654
 20
14.6347
 11
44.4669
 21
13.3215
  0
LINE
  8
0
 10
44.4669
 20
13.3215
 11
43.8199
 21
12.1112
  0
LINE
  8
0
 10
43.8199
 20
12.1112
 11
43.7287
 21
12
  0
LINE
  8
0
 10
43.7287
 20
12
 11
43.4008
 21
12
  0
LINE
  8
0
 10
43.4008
 20
12
 11
42.9495
 21
12.55
  0
LINE
  8
0
 10
42.9495
 20
12.55
 11
41.8887
 21
13.4204
  0
LINE
  8
0
 10
41.8887
 20
13.4204
 11
40.6784
 21
14.0674
  0
LINE
  8
0
 10
40.6784
 20
14.0674
 11
39.3652
 21
14.4656
  0
LINE
  8
0
 10
39.3652
 20
14.4656
 11
37.9999
 21
14.6002
  0
LINE
  8
0
 10
37.9999
 20
14.6002
 11
36.6345
 21
14.4656
  0
LINE
  8
0
 10
36.6345
 20
14.4656
 11
35.3214
 21
14.0674
  0
LINE
  8
0
 10
35.3214
 20
14.0674
 11
34.111
 21
13.4204
  0
LINE
  8
0
 10
34.111
 20
13.4204
 11
33.0502
 21
12.55
  0
LINE
  8
0
 10
33.0502
 20
12.55
 11
32.5989
 21
12
  0
LINE
  8
0
 10
32.5989
 20
12
 11
32.2709
 21
12
  0
LINE
  8
0
 10
8.27097
 20
12
 11
8.17963
 21
12.1112
  0
LINE
  8
0
 10
8.17963
 20
12.1112
 11
7.53296
 21
13.3215
  0
LINE
  8
0
 10
7.53296
 20
13.3215
 11
7.1344
 21
14.6347
  0
LINE
  8
0
 10
7.1344
 20
14.6347
 11
6.99982
 21
16.0001
  0
LINE
  8
0
 10
6.99982
 20
16.0001
 11
7.1344
 21
17.3657
  0
LINE
  8
0
 10
7.1344
 20
17.3657
 11
7.53296
 21
18.6789
  0
LINE
  8
0
 10
7.53296
 20
18.6789
 11
8.17963
 21
19.8889
  0
LINE
  8
0
 10
8.17963
 20
19.8889
 11
8.43506
 21
20.1999
  0
LINE
  8
0
 10
8.43506
 20
20.1999
 11
9.05029
 21
19.4504
  0
LINE
  8
0
 10
9.05029
 20
19.4504
 11
10.1111
 21
18.5797
  0
LINE
  8
0
 10
10.1111
 20
18.5797
 11
11.3211
 21
17.9327
  0
LINE
  8
0
 10
11.3211
 20
17.9327
 11
12.6343
 21
17.5345
  0
LINE
  8
0
 10
12.6343
 20
17.5345
 11
13.9999
 21
17.3999
  0
LINE
  8
0
 10
13.9999
 20
17.3999
 11
15.3653
 21
17.5345
  0
LINE
  8
0
 10
15.3653
 20
17.5345
 11
16.6785
 21
17.9327
  0
LINE
  8
0
 10
16.6785
 20
17.9327
 11
17.8888
 21
18.5797
  0
LINE
  8
0
 10
17.8888
 20
18.5797
 11
18.9496
 21
19.4504
  0
LINE
  8
0
 10
18.9496
 20
19.4504
 11
19.5648
 21
20.1999
  0
LINE
  8
0
 10
19.5648
 20
20.1999
 11
19.8199
 21
19.8889
  0
LINE
  8
0
 10
19.8199
 20
19.8889
 11
20.4669
 21
18.6789
  0
LINE
  8
0
 10
20.4669
 20
18.6789
 11
20.8652
 21
17.3657
  0
LINE
  8
0
 10
20.8652
 20
17.3657
 11
20.9998
 21
16.0001
  0
LINE
  8
0
 10
20.9998
 20
16.0001
 11
20.8652
 21
14.6347
  0
LINE
  8
0
 10
20.8652
 20
14.6347
 11
20.4669
 21
13.3215
  0
LINE
  8
0
 10
20.4669
 20
13.3215
 11
19.8199
 21
12.1112
  0
LINE
  8
0
 10
19.8199
 20
12.1112
 11
19.7287
 21
12
  0
LINE
  8
0
 10
19.7287
 20
12
 11
19.4009
 21
12
  0
LINE
  8
0
 10
19.4009
 20
12
 11
18.9496
 21
12.55
  0
LINE
  8
0
 10
18.9496
 20
12.55
 11
17.8888
 21
13.4204
  0
LINE
  8
0
 10
17.8888
 20
13.4204
 11
16.6785
 21
14.0674
  0
LINE
  8
0
 10
16.6785
 20
14.0674
 11
15.3653
 21
14.4656
  0
LINE
  8
0
 10
15.3653
 20
14.4656
 11
13.9999
 21
14.6002
  0
LINE
  8
0
 10
13.9999
 20
14.6002
 11
12.6343
 21
14.4656
  0
LINE
  8
0
 10
12.6343
 20
14.4656
 11
11.3211
 21
14.0674
  0
LINE
  8
0
 10
11.3211
 20
14.0674
 11
10.1111
 21
13.4204
  0
LINE
  8
0
 10
10.1111
 20
13.4204
 11
9.05029
 21
12.55
  0
LINE
  8
0
 10
9.05029
 20
12.55
 11
8.59897
 21
12
  0
LINE
  8
0
 10
8.59897
 20
12
 11
8.27097
 21
12
  0
LINE
  8
0
 10
56.271
 20
12
 11
56.1798
 21
12.1112
  0
LINE
  8
0
 10
56.1798
 20
12.1112
 11
55.5328
 21
13.3215
  0
LINE
  8
0
 10
55.5328
 20
13.3215
 11
55.1346
 21
14.6347
  0
LINE
  8
0
 10
55.1346
 20
14.6347
 11
55
 21
16.0001
  0
LINE
  8
0
 10
55
 20
16.0001
 11
55.1346
 21
17.3657
  0
LINE
  8
0
 10
55.1346
 20
17.3657
 11
55.5328
 21
18.6789
  0
LINE
  8
0
 10
55.5328
 20
18.6789
 11
56.0183
 21
19.5868
  0
LINE
  8
0
 10
56.0183
 20
19.5868
 11
58.0406
 21
13.3627
  0
LINE
  8
0
 10
58.0406
 20
13.3627
 11
57.0502
 21
12.55
  0
LINE
  8
0
 10
57.0502
 20
12.55
 11
56.5988
 21
12
  0
LINE
  8
0
 10
56.5988
 20
12
 11
56.271
 21
12
  0
LINE
  8
0
 10
-10
 20
7
 11
-10
 21
11
  0
LINE
  8
0
 10
-10
 20
11
 11
10
 21
11
  0
LINE
  8
0
 10
10
 20
11
 11
10
 21
7
  0
LINE
  8
0
 10
10
 20
7
 11
-10
 21
7
  0
LINE
  8
0
 10
-68.6534
 20
2.70622
 11
-68.7785
 21
2.71805
  0
LINE
  8
0
 10
-68.7785
 20
2.71805
 11
-68.9026
 21
2.7377
  0
LINE
  8
0
 10
-68.9026
 20
2.7377
 11
-69.0252
 21
2.76511
  0
LINE
  8
0
 10
-69.0252
 20
2.76511
 11
-69.1459
 21
2.80016
  0
LINE
  8
0
 10
-69.1459
 20
2.80016
 11
-69.2641
 21
2.84273
  0
LINE
  8
0
 10
-69.2641
 20
2.84273
 11
-69.3794
 21
2.89262
  0
LINE
  8
0
 10
-69.3794
 20
2.89262
 11
-69.4914
 21
2.94966
  0
LINE
  8
0
 10
-69.4914
 20
2.94966
 11
-69.5995
 21
3.01363
  0
LINE
  8
0
 10
-69.5995
 20
3.01363
 11
-69.7034
 21
3.08424
  0
LINE
  8
0
 10
-69.7034
 20
3.08424
 11
-69.8027
 21
3.16125
  0
LINE
  8
0
 10
-69.8027
 20
3.16125
 11
-69.897
 21
3.24434
  0
LINE
  8
0
 10
-69.897
 20
3.24434
 11
-69.9858
 21
3.33318
  0
LINE
  8
0
 10
-69.9858
 20
3.33318
 11
-70.0689
 21
3.42743
  0
LINE
  8
0
 10
-70.0689
 20
3.42743
 11
-70.1459
 21
3.5267
  0
LINE
  8
0
 10
-70.1459
 20
3.5267
 11
-70.2165
 21
3.63062
  0
LINE
  8
0
 10
-70.2165
 20
3.63062
 11
-70.2805
 21
3.73877
  0
LINE
  8
0
 10
-70.2805
 20
3.73877
 11
-70.3375
 21
3.85072
  0
LINE
  8
0
 10
-70.3375
 20
3.85072
 11
-70.3874
 21
3.96602
  0
LINE
  8
0
 10
-70.3874
 20
3.96602
 11
-70.43
 21
4.08424
  0
LINE
  8
0
 10
-70.43
 20
4.08424
 11
-70.465
 21
4.2049
  0
LINE
  8
0
 10
-70.465
 20
4.2049
 11
-70.4924
 21
4.32751
  0
LINE
  8
0
 10
-70.4924
 20
4.32751
 11
-70.5121
 21
4.45161
  0
LINE
  8
0
 10
-70.5121
 20
4.45161
 11
-70.5239
 21
4.57669
  0
LINE
  8
0
 10
-70.5239
 20
4.57669
 11
-70.5279
 21
4.70227
  0
LINE
  8
0
 10
-70.5279
 20
4.70227
 11
-70.5239
 21
4.82785
  0
LINE
  8
0
 10
-70.5239
 20
4.82785
 11
-70.5121
 21
4.95294
  0
LINE
  8
0
 10
-70.5121
 20
4.95294
 11
-70.4924
 21
5.07704
  0
LINE
  8
0
 10
-70.4924
 20
5.07704
 11
-70.465
 21
5.19966
  0
LINE
  8
0
 10
-70.465
 20
5.19966
 11
-70.43
 21
5.32031
  0
LINE
  8
0
 10
-70.43
 20
5.32031
 11
-70.3874
 21
5.43852
  0
LINE
  8
0
 10
-70.3874
 20
5.43852
 11
-70.3375
 21
5.55383
  0
LINE
  8
0
 10
-70.3375
 20
5.55383
 11
-70.2805
 21
5.66579
  0
LINE
  8
0
 10
-70.2805
 20
5.66579
 11
-70.2165
 21
5.77393
  0
LINE
  8
0
 10
-70.2165
 20
5.77393
 11
-70.1459
 21
5.87784
  0
LINE
  8
0
 10
-70.1459
 20
5.87784
 11
-70.0689
 21
5.97713
  0
LINE
  8
0
 10
-70.0689
 20
5.97713
 11
-69.9858
 21
6.07137
  0
LINE
  8
0
 10
-69.9858
 20
6.07137
 11
-69.897
 21
6.16022
  0
LINE
  8
0
 10
-69.897
 20
6.16022
 11
-69.8027
 21
6.2433
  0
LINE
  8
0
 10
-69.8027
 20
6.2433
 11
-69.7034
 21
6.32031
  0
LINE
  8
0
 10
-69.7034
 20
6.32031
 11
-69.5995
 21
6.39093
  0
LINE
  8
0
 10
-69.5995
 20
6.39093
 11
-69.4914
 21
6.4549
  0
LINE
  8
0
 10
-69.4914
 20
6.4549
 11
-69.3794
 21
6.51193
  0
LINE
  8
0
 10
-69.3794
 20
6.51193
 11
-69.2641
 21
6.56183
  0
LINE
  8
0
 10
-69.2641
 20
6.56183
 11
-69.1459
 21
6.60439
  0
LINE
  8
0
 10
-69.1459
 20
6.60439
 11
-69.0252
 21
6.63943
  0
LINE
  8
0
 10
-69.0252
 20
6.63943
 11
-68.9026
 21
6.66685
  0
LINE
  8
0
 10
-68.9026
 20
6.66685
 11
-68.7785
 21
6.68651
  0
LINE
  8
0
 10
-68.7785
 20
6.68651
 11
-68.6534
 21
6.69833
  0
LINE
  8
0
 10
-68.6534
 20
6.69833
 11
-68.5279
 21
6.70227
  0
LINE
  8
0
 10
-68.5279
 20
6.70227
 11
-68.4023
 21
6.69833
  0
LINE
  8
0
 10
-68.4023
 20
6.69833
 11
-68.2772
 21
6.68651
  0
LINE
  8
0
 10
-68.2772
 20
6.68651
 11
-68.1531
 21
6.66685
  0
LINE
  8
0
 10
-68.1531
 20
6.66685
 11
-68.0305
 21
6.63943
  0
LINE
  8
0
 10
-68.0305
 20
6.63943
 11
-67.9098
 21
6.60439
  0
LINE
  8
0
 10
-67.9098
 20
6.60439
 11
-67.7916
 21
6.56183
  0
LINE
  8
0
 10
-67.7916
 20
6.56183
 11
-67.6763
 21
6.51193
  0
LINE
  8
0
 10
-67.6763
 20
6.51193
 11
-67.5643
 21
6.4549
  0
LINE
  8
0
 10
-67.5643
 20
6.4549
 11
-67.4562
 21
6.39093
  0
LINE
  8
0
 10
-67.4562
 20
6.39093
 11
-67.3523
 21
6.32031
  0
LINE
  8
0
 10
-67.3523
 20
6.32031
 11
-67.253
 21
6.2433
  0
LINE
  8
0
 10
-67.253
 20
6.2433
 11
-67.1588
 21
6.16022
  0
LINE
  8
0
 10
-67.1588
 20
6.16022
 11
-67.0699
 21
6.07137
  0
LINE
  8
0
 10
-67.0699
 20
6.07137
 11
-66.9868
 21
5.97713
  0
LINE
  8
0
 10
-66.9868
 20
5.97713
 11
-66.9098
 21
5.87784
  0
LINE
  8
0
 10
-66.9098
 20
5.87784
 11
-66.8392
 21
5.77393
  0
LINE
  8
0
 10
-66.8392
 20
5.77393
 11
-66.7752
 21
5.66579
  0
LINE
  8
0
 10
-66.7752
 20
5.66579
 11
-66.7182
 21
5.55383
  0
LINE
  8
0
 10
-66.7182
 20
5.55383
 11
-66.6683
 21
5.43852
  0
LINE
  8
0
 10
-66.6683
 20
5.43852
 11
-66.6257
 21
5.32031
  0
LINE
  8
0
 10
-66.6257
 20
5.32031
 11
-66.5907
 21
5.19966
  0
LINE
  8
0
 10
-66.5907
 20
5.19966
 11
-66.5633
 21
5.07704
  0
LINE
  8
0
 10
-66.5633
 20
5.07704
 11
-66.5436
 21
4.95294
  0
LINE
  8
0
 10
-66.5436
 20
4.95294
 11
-66.5318
 21
4.82785
  0
LINE
  8
0
 10
-66.5318
 20
4.82785
 11
-66.5279
 21
4.70227
  0
LINE
  8
0
 10
-66.5279
 20
4.70227
 11
-66.5318
 21
4.57669
  0
LINE
  8
0
 10
-66.5318
 20
4.57669
 11
-66.5436
 21
4.45161
  0
LINE
  8
0
 10
-66.5436
 20
4.45161
 11
-66.5633
 21
4.32751
  0
LINE
  8
0
 10
-66.5633
 20
4.32751
 11
-66.5907
 21
4.2049
  0
LINE
  8
0
 10
-66.5907
 20
4.2049
 11
-66.6257
 21
4.08424
  0
LINE
  8
0
 10
-66.6257
 20
4.08424
 11
-66.6683
 21
3.96602
  0
LINE
  8
0
 10
-66.6683
 20
3.96602
 11
-66.7182
 21
3.85072
  0
LINE
  8
0
 10
-66.7182
 20
3.85072
 11
-66.7752
 21
3.73877
  0
LINE
  8
0
 10
-66.7752
 20
3.73877
 11
-66.8392
 21
3.63062
  0
LINE
  8
0
 10
-66.8392
 20
3.63062
 11
-66.9098
 21
3.5267
  0
LINE
  8
0
 10
-66.9098
 20
3.5267
 11
-66.9868
 21
3.42743
  0
LINE
  8
0
 10
-66.9868
 20
3.42743
 11
-67.0699
 21
3.33318
  0
LINE
  8
0
 10
-67.0699
 20
3.33318
 11
-67.1588
 21
3.24434
  0
LINE
  8
0
 10
-67.1588
 20
3.24434
 11
-67.253
 21
3.16125
  0
LINE
  8
0
 10
-67.253
 20
3.16125
 11
-67.3523
 21
3.08424
  0
LINE
  8
0
 10
-67.3523
 20
3.08424
 11
-67.4562
 21
3.01363
  0
LINE
  8
0
 10
-67.4562
 20
3.01363
 11
-67.5643
 21
2.94966
  0
LINE
  8
0
 10
-67.5643
 20
2.94966
 11
-67.6763
 21
2.89262
  0
LINE
  8
0
 10
-67.6763
 20
2.89262
 11
-67.7916
 21
2.84273
  0
LINE
  8
0
 10
-67.7916
 20
2.84273
 11
-67.9098
 21
2.80016
  0
LINE
  8
0
 10
-67.9098
 20
2.80016
 11
-68.0305
 21
2.76511
  0
LINE
  8
0
 10
-68.0305
 20
2.76511
 11
-68.1531
 21
2.7377
  0
LINE
  8
0
 10
-68.1531
 20
2.7377
 11
-68.2772
 21
2.71805
  0
LINE
  8
0
 10
-68.2772
 20
2.71805
 11
-68.4023
 21
2.70622
  0
LINE
  8
0
 10
-68.4023
 20
2.70622
 11
-68.5279
 21
2.70227
  0
LINE
  8
0
 10
-68.5279
 20
2.70227
 11
-68.6534
 21
2.70622
  0
LINE
  8
0
 10
68.4023
 20
2.70622
 11
68.2772
 21
2.71805
  0
LINE
  8
0
 10
68.2772
 20
2.71805
 11
68.1531
 21
2.7377
  0
LINE
  8
0
 10
68.1531
 20
2.7377
 11
68.0305
 21
2.76511
  0
LINE
  8
0
 10
68.0305
 20
2.76511
 11
67.9098
 21
2.80016
  0
LINE
  8
0
 10
67.9098
 20
2.80016
 11
67.7916
 21
2.84273
  0
LINE
  8
0
 10
67.7916
 20
2.84273
 11
67.6763
 21
2.89262
  0
LINE
  8
0
 10
67.6763
 20
2.89262
 11
67.5643
 21
2.94966
  0
LINE
  8
0
 10
67.5643
 20
2.94966
 11
67.4562
 21
3.01363
  0
LINE
  8
0
 10
67.4562
 20
3.01363
 11
67.3523
 21
3.08424
  0
LINE
  8
0
 10
67.3523
 20
3.08424
 11
67.253
 21
3.16125
  0
LINE
  8
0
 10
67.253
 20
3.16125
 11
67.1588
 21
3.24434
  0
LINE
  8
0
 10
67.1588
 20
3.24434
 11
67.0699
 21
3.33318
  0
LINE
  8
0
 10
67.0699
 20
3.33318
 11
66.9868
 21
3.42743
  0
LINE
  8
0
 10
66.9868
 20
3.42743
 11
66.9098
 21
3.5267
  0
LINE
  8
0
 10
66.9098
 20
3.5267
 11
66.8392
 21
3.63062
  0
LINE
  8
0
 10
66.8392
 20
3.63062
 11
66.7752
 21
3.73877
  0
LINE
  8
0
 10
66.7752
 20
3.73877
 11
66.7182
 21
3.85072
  0
LINE
  8
0
 10
66.7182
 20
3.85072
 11
66.6683
 21
3.96602
  0
LINE
  8
0
 10
66.6683
 20
3.96602
 11
66.6257
 21
4.08424
  0
LINE
  8
0
 10
66.6257
 20
4.08424
 11
66.5907
 21
4.2049
  0
LINE
  8
0
 10
66.5907
 20
4.2049
 11
66.5633
 21
4.32751
  0
LINE
  8
0
 10
66.5633
 20
4.32751
 11
66.5436
 21
4.45161
  0
LINE
  8
0
 10
66.5436
 20
4.45161
 11
66.5318
 21
4.57669
  0
LINE
  8
0
 10
66.5318
 20
4.57669
 11
66.5279
 21
4.70227
  0
LINE
  8
0
 10
66.5279
 20
4.70227
 11
66.5318
 21
4.82785
  0
LINE
  8
0
 10
66.5318
 20
4.82785
 11
66.5436
 21
4.95294
  0
LINE
  8
0
 10
66.5436
 20
4.95294
 11
66.5633
 21
5.07704
  0
LINE
  8
0
 10
66.5633
 20
5.07704
 11
66.5907
 21
5.19966
  0
LINE
  8
0
 10
66.5907
 20
5.19966
 11
66.6257
 21
5.32031
  0
LINE
  8
0
 10
66.6257
 20
5.32031
 11
66.6683
 21
5.43852
  0
LINE
  8
0
 10
66.6683
 20
5.43852
 11
66.7182
 21
5.55383
  0
LINE
  8
0
 10
66.7182
 20
5.55383
 11
66.7752
 21
5.66579
  0
LINE
  8
0
 10
66.7752
 20
5.66579
 11
66.8392
 21
5.77393
  0
LINE
  8
0
 10
66.8392
 20
5.77393
 11
66.9098
 21
5.87784
  0
LINE
  8
0
 10
66.9098
 20
5.87784
 11
66.9868
 21
5.97713
  0
LINE
  8
0
 10
66.9868
 20
5.97713
 11
67.0699
 21
6.07137
  0
LINE
  8
0
 10
67.0699
 20
6.07137
 11
67.1588
 21
6.16022
  0
LINE
  8
0
 10
67.1588
 20
6.16022
 11
67.253
 21
6.2433
  0
LINE
  8
0
 10
67.253
 20
6.2433
 11
67.3523
 21
6.32031
  0
LINE
  8
0
 10
67.3523
 20
6.32031
 11
67.4562
 21
6.39093
  0
LINE
  8
0
 10
67.4562
 20
6.39093
 11
67.5643
 21
6.4549
  0
LINE
  8
0
 10
67.5643
 20
6.4549
 11
67.6763
 21
6.51193
  0
LINE
  8
0
 10
67.6763
 20
6.51193
 11
67.7916
 21
6.56183
  0
LINE
  8
0
 10
67.7916
 20
6.56183
 11
67.9098
 21
6.60439
  0
LINE
  8
0
 10
67.9098
 20
6.60439
 11
68.0305
 21
6.63943
  0
LINE
  8
0
 10
68.0305
 20
6.63943
 11
68.1531
 21
6.66685
  0
LINE
  8
0
 10
68.1531
 20
6.66685
 11
68.2772
 21
6.68651
  0
LINE
  8
0
 10
68.2772
 20
6.68651
 11
68.4023
 21
6.69833
  0
LINE
  8
0
 10
68.4023
 20
6.69833
 11
68.5279
 21
6.70227
  0
LINE
  8
0
 10
68.5279
 20
6.70227
 11
68.6534
 21
6.69833
  0
LINE
  8
0
 10
68.6534
 20
6.69833
 11
68.7785
 21
6.68651
  0
LINE
  8
0
 10
68.7785
 20
6.68651
 11
68.9026
 21
6.66685
  0
LINE
  8
0
 10
68.9026
 20
6.66685
 11
69.0252
 21
6.63943
  0
LINE
  8
0
 10
69.0252
 20
6.63943
 11
69.1459
 21
6.60439
  0
LINE
  8
0
 10
69.1459
 20
6.60439
 11
69.2641
 21
6.56183
  0
LINE
  8
0
 10
69.2641
 20
6.56183
 11
69.3794
 21
6.51193
  0
LINE
  8
0
 10
69.3794
 20
6.51193
 11
69.4914
 21
6.4549
  0
LINE
  8
0
 10
69.4914
 20
6.4549
 11
69.5995
 21
6.39093
  0
LINE
  8
0
 10
69.5995
 20
6.39093
 11
69.7034
 21
6.32031
  0
LINE
  8
0
 10
69.7034
 20
6.32031
 11
69.8027
 21
6.2433
  0
LINE
  8
0
 10
69.8027
 20
6.2433
 11
69.897
 21
6.16022
  0
LINE
  8
0
 10
69.897
 20
6.16022
 11
69.9858
 21
6.07137
  0
LINE
  8
0
 10
69.9858
 20
6.07137
 11
70.0689
 21
5.97713
  0
LINE
  8
0
 10
70.0689
 20
5.97713
 11
70.1459
 21
5.87784
  0
LINE
  8
0
 10
70.1459
 20
5.87784
 11
70.2165
 21
5.77393
  0
LINE
  8
0
 10
70.2165
 20
5.77393
 11
70.2805
 21
5.66579
  0
LINE
  8
0
 10
70.2805
 20
5.66579
 11
70.3375
 21
5.55383
  0
LINE
  8
0
 10
70.3375
 20
5.55383
 11
70.3874
 21
5.43852
  0
LINE
  8
0
 10
70.3874
 20
5.43852
 11
70.43
 21
5.32031
  0
LINE
  8
0
 10
70.43
 20
5.32031
 11
70.465
 21
5.19966
  0
LINE
  8
0
 10
70.465
 20
5.19966
 11
70.4924
 21
5.07704
  0
LINE
  8
0
 10
70.4924
 20
5.07704
 11
70.5121
 21
4.95294
  0
LINE
  8
0
 10
70.5121
 20
4.95294
 11
70.5239
 21
4.82785
  0
LINE
  8
0
 10
70.5239
 20
4.82785
 11
70.5279
 21
4.70227
  0
LINE
  8
0
 10
70.5279
 20
4.70227
 11
70.5239
 21
4.57669
  0
LINE
  8
0
 10
70.5239
 20
4.57669
 11
70.5121
 21
4.45161
  0
LINE
  8
0
 10
70.5121
 20
4.45161
 11
70.4924
 21
4.32751
  0
LINE
  8
0
 10
70.4924
 20
4.32751
 11
70.465
 21
4.2049
  0
LINE
  8
0
 10
70.465
 20
4.2049
 11
70.43
 21
4.08424
  0
LINE
  8
0
 10
70.43
 20
4.08424
 11
70.3874
 21
3.96602
  0
LINE
  8
0
 10
70.3874
 20
3.96602
 11
70.3375
 21
3.85072
  0
LINE
  8
0
 10
70.3375
 20
3.85072
 11
70.2805
 21
3.73877
  0
LINE
  8
0
 10
70.2805
 20
3.73877
 11
70.2165
 21
3.63062
  0
LINE
  8
0
 10
70.2165
 20
3.63062
 11
70.1459
 21
3.5267
  0
LINE
  8
0
 10
70.1459
 20
3.5267
 11
70.0689
 21
3.42743
  0
LINE
  8
0
 10
70.0689
 20
3.42743
 11
69.9858
 21
3.33318
  0
LINE
  8
0
 10
69.9858
 20
3.33318
 11
69.897
 21
3.24434
  0
LINE
  8
0
 10
69.897
 20
3.24434
 11
69.8027
 21
3.16125
  0
LINE
  8
0
 10
69.8027
 20
3.16125
 11
69.7034
 21
3.08424
  0
LINE
  8
0
 10
69.7034
 20
3.08424
 11
69.5995
 21
3.01363
  0
LINE
  8
0
 10
69.5995
 20
3.01363
 11
69.4914
 21
2.94966
  0
LINE
  8
0
 10
69.4914
 20
2.94966
 11
69.3794
 21
2.89262
  0
LINE
  8
0
 10
69.3794
 20
2.89262
 11
69.2641
 21
2.84273
  0
LINE
  8
0
 10
69.2641
 20
2.84273
 11
69.1459
 21
2.80016
  0
LINE
  8
0
 10
69.1459
 20
2.80016
 11
69.0252
 21
2.76511
  0
LINE
  8
0
 10
69.0252
 20
2.76511
 11
68.9026
 21
2.7377
  0
LINE
  8
0
 10
68.9026
 20
2.7377
 11
68.7785
 21
2.71805
  0
LINE
  8
0
 10
68.7785
 20
2.71805
 11
68.6534
 21
2.70622
  0
LINE
  8
0
 10
68.6534
 20
2.70622
 11
68.5279
 21
2.70227
  0
LINE
  8
0
 10
68.5279
 20
2.70227
 11
68.4023
 21
2.70622
  0
ENDSEC
  0
SECTION
  2
OBJECTS
  0
DICTIONARY
  0
ENDSEC
  0
EOF
