  0
SECTION
  2
BLOCKS
  0
ENDSEC
  0
SECTION
  2
ENTITIES
  0
LINE
  8
0
 10
9
 20
-98.3093
 11
71.4259
 21
-98.3093
  0
LINE
  8
0
 10
71.4259
 20
-98.3093
 11
90.7165
 21
-38.9387
  0
LINE
  8
0
 10
90.7165
 20
-38.9387
 11
94.5208
 21
-40.1748
  0
LINE
  8
0
 10
94.5208
 20
-40.1748
 11
100.083
 21
-23.0558
  0
LINE
  8
0
 10
100.083
 20
-23.0558
 11
96.2788
 21
-21.8197
  0
LINE
  8
0
 10
96.2788
 20
-21.8197
 11
115.57
 21
37.5508
  0
LINE
  8
0
 10
115.57
 20
37.5508
 11
65.0659
 21
74.2438
  0
LINE
  8
0
 10
65.0659
 20
74.2438
 11
67.417
 21
77.4799
  0
LINE
  8
0
 10
67.417
 20
77.4799
 11
52.8547
 21
88.06
  0
LINE
  8
0
 10
52.8547
 20
88.06
 11
50.5036
 21
84.8239
  0
LINE
  8
0
 10
50.5036
 20
84.8239
 11
0
 21
121.517
  0
LINE
  8
0
 10
0
 20
121.517
 11
-50.5036
 21
84.8239
  0
LINE
  8
0
 10
-50.5036
 20
84.8239
 11
-52.8547
 21
88.06
  0
LINE
  8
0
 10
-52.8547
 20
88.06
 11
-67.417
 21
77.4799
  0
LINE
  8
0
 10
-67.417
 20
77.4799
 11
-65.0659
 21
74.2438
  0
LINE
  8
0
 10
-65.0659
 20
74.2438
 11
-115.57
 21
37.5508
  0
LINE
  8
0
 10
-115.57
 20
37.5508
 11
-96.2788
 21
-21.8197
  0
LINE
  8
0
 10
-96.2788
 20
-21.8197
 11
-100.083
 21
-23.0558
  0
LINE
  8
0
 10
-100.083
 20
-23.0558
 11
-94.5208
 21
-40.1748
  0
LINE
  8
0
 10
-94.5208
 20
-40.1748
 11
-90.7165
 21
-38.9387
  0
LINE
  8
0
 10
-90.7165
 20
-38.9387
 11
-71.4259
 21
-98.3093
  0
LINE
  8
0
 10
-71.4259
 20
-98.3093
 11
-9
 21
-98.3093
  0
LINE
  8
0
 10
-9
 20
-98.3093
 11
-9
 21
-102.309
  0
LINE
  8
0
 10
-9
 20
-102.309
 11
9
 21
-102.309
  0
LINE
  8
0
 10
9
 20
-102.309
 11
9
 21
-98.3093
  0
LINE
  8
0
 10
-5
 20
40
 11
-5
 21
50
  0
LINE
  8
0
 10
-5
 20
50
 11
5
 21
50
  0
LINE
  8
0
 10
5
 20
50
 11
5
 21
40
  0
LINE
  8
0
 10
5
 20
40
 11
-5
 21
40
  0
LINE
  8
0
 10
-5
 20
-50
 11
-5
 21
-40
  0
LINE
  8
0
 10
-5
 20
-40
 11
5
 21
-40
  0
LINE
  8
0
 10
5
 20
-40
 11
5
 21
-50
  0
LINE
  8
0
 10
5
 20
-50
 11
-5
 21
-50
  0
ENDSEC
  0
SECTION
  2
OBJECTS
  0
DICTIONARY
  0
ENDSEC
  0
EOF
